<?xml version="1.0" encoding="utf-8" standalone="no"?>
<!DOCTYPE svg PUBLIC "-//W3C//DTD SVG 1.1//EN"
  "http://www.w3.org/Graphics/SVG/1.1/DTD/svg11.dtd">
<!-- Created with matplotlib (http://matplotlib.org/) -->
<svg version="1.1" viewBox="0 0 487 358" xmlns="http://www.w3.org/2000/svg" xmlns:xlink="http://www.w3.org/1999/xlink">
 <defs>
  <style type="text/css">
*{stroke-linecap:butt;stroke-linejoin:round;}
  </style>
 </defs>
 <g id="figure_1">
  <g id="patch_1">
   <path d="M 0 358.652187 
L 487.615 358.652187 
L 487.615 0 
L 0 0 
z
" style="fill:#ffffff;"/>
  </g>
  <g id="axes_1">
   <g id="patch_2">
    <path d="M 34.015 320.87625 
L 480.415 320.87625 
L 480.415 21.89625 
L 34.015 21.89625 
z
" style="fill:#eaeaf2;"/>
   </g>
   <g id="matplotlib.axis_1">
    <g id="xtick_1">
     <g id="line2d_1">
      <path clip-path="url(#pda4141ad63)" d="M 54.305909 320.87625 
L 54.305909 21.89625 
" style="fill:none;stroke:#ffffff;stroke-linecap:round;"/>
     </g>
     <g id="line2d_2"/>
     <g id="text_1">
      <!-- 0 -->
      <defs>
       <path d="M 51.703125 34.421875 
Q 51.703125 24.515625 49.828125 17.75 
Q 47.953125 10.984375 44.703125 6.8125 
Q 41.453125 2.640625 37.0625 0.828125 
Q 32.671875 -0.984375 27.6875 -0.984375 
Q 22.65625 -0.984375 18.3125 0.828125 
Q 13.96875 2.640625 10.765625 6.78125 
Q 7.5625 10.9375 5.734375 17.703125 
Q 3.90625 24.46875 3.90625 34.421875 
Q 3.90625 44.828125 5.734375 51.640625 
Q 7.5625 58.453125 10.78125 62.5 
Q 14.015625 66.546875 18.40625 68.1875 
Q 22.796875 69.828125 27.984375 69.828125 
Q 32.90625 69.828125 37.21875 68.1875 
Q 41.546875 66.546875 44.765625 62.5 
Q 48 58.453125 49.84375 51.640625 
Q 51.703125 44.828125 51.703125 34.421875 
z
M 42.78125 34.421875 
Q 42.78125 42.625 41.796875 48.0625 
Q 40.828125 53.515625 38.921875 56.765625 
Q 37.015625 60.015625 34.25 61.359375 
Q 31.5 62.703125 27.984375 62.703125 
Q 24.265625 62.703125 21.4375 61.328125 
Q 18.609375 59.96875 16.671875 56.71875 
Q 14.75 53.46875 13.765625 48.015625 
Q 12.796875 42.578125 12.796875 34.421875 
Q 12.796875 26.515625 13.796875 21.09375 
Q 14.796875 15.671875 16.71875 12.375 
Q 18.65625 9.078125 21.4375 7.640625 
Q 24.21875 6.203125 27.78125 6.203125 
Q 31.25 6.203125 34.03125 7.640625 
Q 36.8125 9.078125 38.734375 12.375 
Q 40.671875 15.671875 41.71875 21.09375 
Q 42.78125 26.515625 42.78125 34.421875 
z
" id="LiberationSans-30"/>
      </defs>
      <g style="fill:#262626;" transform="translate(51.52544 335.123125)scale(0.1 -0.1)">
       <use xlink:href="#LiberationSans-30"/>
      </g>
     </g>
    </g>
    <g id="xtick_2">
     <g id="line2d_3">
      <path clip-path="url(#pda4141ad63)" d="M 105.058558 320.87625 
L 105.058558 21.89625 
" style="fill:none;stroke:#ffffff;stroke-linecap:round;"/>
     </g>
     <g id="line2d_4"/>
     <g id="text_2">
      <!-- 250 -->
      <defs>
       <path d="M 5.03125 0 
L 5.03125 6.203125 
Q 7.515625 11.921875 11.109375 16.28125 
Q 14.703125 20.65625 18.65625 24.1875 
Q 22.609375 27.734375 26.484375 30.765625 
Q 30.375 33.796875 33.5 36.8125 
Q 36.625 39.84375 38.546875 43.15625 
Q 40.484375 46.484375 40.484375 50.6875 
Q 40.484375 53.609375 39.59375 55.828125 
Q 38.71875 58.0625 37.0625 59.5625 
Q 35.40625 61.078125 33.078125 61.828125 
Q 30.765625 62.59375 27.9375 62.59375 
Q 25.296875 62.59375 22.96875 61.859375 
Q 20.65625 61.140625 18.84375 59.671875 
Q 17.046875 58.203125 15.890625 56.03125 
Q 14.75 53.859375 14.40625 50.984375 
L 5.421875 51.8125 
Q 5.859375 55.515625 7.46875 58.78125 
Q 9.078125 62.0625 11.90625 64.53125 
Q 14.75 67 18.71875 68.40625 
Q 22.703125 69.828125 27.9375 69.828125 
Q 33.0625 69.828125 37.0625 68.609375 
Q 41.0625 67.390625 43.8125 64.984375 
Q 46.578125 62.59375 48.046875 59.078125 
Q 49.515625 55.5625 49.515625 50.984375 
Q 49.515625 47.515625 48.265625 44.390625 
Q 47.015625 41.265625 44.9375 38.421875 
Q 42.875 35.59375 40.140625 32.953125 
Q 37.40625 30.328125 34.421875 27.8125 
Q 31.453125 25.296875 28.421875 22.828125 
Q 25.390625 20.359375 22.71875 17.859375 
Q 20.0625 15.375 17.96875 12.8125 
Q 15.875 10.25 14.703125 7.46875 
L 50.59375 7.46875 
L 50.59375 0 
z
" id="LiberationSans-32"/>
       <path d="M 51.421875 22.40625 
Q 51.421875 17.234375 49.859375 12.9375 
Q 48.296875 8.640625 45.21875 5.53125 
Q 42.140625 2.4375 37.578125 0.71875 
Q 33.015625 -0.984375 27 -0.984375 
Q 21.578125 -0.984375 17.546875 0.28125 
Q 13.53125 1.5625 10.734375 3.78125 
Q 7.953125 6 6.3125 8.984375 
Q 4.6875 11.96875 4 15.375 
L 12.890625 16.40625 
Q 13.421875 14.453125 14.390625 12.625 
Q 15.375 10.796875 17.0625 9.34375 
Q 18.75 7.90625 21.21875 7.046875 
Q 23.6875 6.203125 27.203125 6.203125 
Q 30.609375 6.203125 33.390625 7.25 
Q 36.1875 8.296875 38.15625 10.34375 
Q 40.140625 12.40625 41.203125 15.375 
Q 42.28125 18.359375 42.28125 22.21875 
Q 42.28125 25.390625 41.25 28.046875 
Q 40.234375 30.71875 38.328125 32.640625 
Q 36.421875 34.578125 33.65625 35.640625 
Q 30.90625 36.71875 27.390625 36.71875 
Q 25.203125 36.71875 23.34375 36.328125 
Q 21.484375 35.9375 19.890625 35.25 
Q 18.3125 34.578125 17.015625 33.671875 
Q 15.71875 32.765625 14.59375 31.78125 
L 6 31.78125 
L 8.296875 68.796875 
L 47.40625 68.796875 
L 47.40625 61.328125 
L 16.3125 61.328125 
L 14.984375 39.5 
Q 17.328125 41.3125 20.84375 42.59375 
Q 24.359375 43.890625 29.203125 43.890625 
Q 34.328125 43.890625 38.421875 42.328125 
Q 42.53125 40.765625 45.40625 37.90625 
Q 48.296875 35.0625 49.859375 31.109375 
Q 51.421875 27.15625 51.421875 22.40625 
z
" id="LiberationSans-35"/>
      </defs>
      <g style="fill:#262626;" transform="translate(96.717152 335.123125)scale(0.1 -0.1)">
       <use xlink:href="#LiberationSans-32"/>
       <use x="55.615234" xlink:href="#LiberationSans-35"/>
       <use x="111.230469" xlink:href="#LiberationSans-30"/>
      </g>
     </g>
    </g>
    <g id="xtick_3">
     <g id="line2d_5">
      <path clip-path="url(#pda4141ad63)" d="M 155.811207 320.87625 
L 155.811207 21.89625 
" style="fill:none;stroke:#ffffff;stroke-linecap:round;"/>
     </g>
     <g id="line2d_6"/>
     <g id="text_3">
      <!-- 500 -->
      <g style="fill:#262626;" transform="translate(147.469801 335.123125)scale(0.1 -0.1)">
       <use xlink:href="#LiberationSans-35"/>
       <use x="55.615234" xlink:href="#LiberationSans-30"/>
       <use x="111.230469" xlink:href="#LiberationSans-30"/>
      </g>
     </g>
    </g>
    <g id="xtick_4">
     <g id="line2d_7">
      <path clip-path="url(#pda4141ad63)" d="M 206.563856 320.87625 
L 206.563856 21.89625 
" style="fill:none;stroke:#ffffff;stroke-linecap:round;"/>
     </g>
     <g id="line2d_8"/>
     <g id="text_4">
      <!-- 750 -->
      <defs>
       <path d="M 50.59375 61.671875 
Q 45.40625 53.765625 41.0625 46.453125 
Q 36.71875 39.15625 33.59375 31.75 
Q 30.46875 24.359375 28.734375 16.578125 
Q 27 8.796875 27 0 
L 17.828125 0 
Q 17.828125 8.25 19.78125 16.1875 
Q 21.734375 24.125 25.046875 31.765625 
Q 28.375 39.40625 32.765625 46.78125 
Q 37.15625 54.15625 42.09375 61.328125 
L 5.125 61.328125 
L 5.125 68.796875 
L 50.59375 68.796875 
z
" id="LiberationSans-37"/>
      </defs>
      <g style="fill:#262626;" transform="translate(198.22245 335.123125)scale(0.1 -0.1)">
       <use xlink:href="#LiberationSans-37"/>
       <use x="55.615234" xlink:href="#LiberationSans-35"/>
       <use x="111.230469" xlink:href="#LiberationSans-30"/>
      </g>
     </g>
    </g>
    <g id="xtick_5">
     <g id="line2d_9">
      <path clip-path="url(#pda4141ad63)" d="M 257.316505 320.87625 
L 257.316505 21.89625 
" style="fill:none;stroke:#ffffff;stroke-linecap:round;"/>
     </g>
     <g id="line2d_10"/>
     <g id="text_5">
      <!-- 1000 -->
      <defs>
       <path d="M 7.625 0 
L 7.625 7.46875 
L 25.140625 7.46875 
L 25.140625 60.40625 
L 9.625 49.3125 
L 9.625 57.625 
L 25.875 68.796875 
L 33.984375 68.796875 
L 33.984375 7.46875 
L 50.734375 7.46875 
L 50.734375 0 
z
" id="LiberationSans-31"/>
      </defs>
      <g style="fill:#262626;" transform="translate(246.19463 335.123125)scale(0.1 -0.1)">
       <use xlink:href="#LiberationSans-31"/>
       <use x="55.615234" xlink:href="#LiberationSans-30"/>
       <use x="111.230469" xlink:href="#LiberationSans-30"/>
       <use x="166.845703" xlink:href="#LiberationSans-30"/>
      </g>
     </g>
    </g>
    <g id="xtick_6">
     <g id="line2d_11">
      <path clip-path="url(#pda4141ad63)" d="M 308.069154 320.87625 
L 308.069154 21.89625 
" style="fill:none;stroke:#ffffff;stroke-linecap:round;"/>
     </g>
     <g id="line2d_12"/>
     <g id="text_6">
      <!-- 1250 -->
      <g style="fill:#262626;" transform="translate(296.947279 335.123125)scale(0.1 -0.1)">
       <use xlink:href="#LiberationSans-31"/>
       <use x="55.615234" xlink:href="#LiberationSans-32"/>
       <use x="111.230469" xlink:href="#LiberationSans-35"/>
       <use x="166.845703" xlink:href="#LiberationSans-30"/>
      </g>
     </g>
    </g>
    <g id="xtick_7">
     <g id="line2d_13">
      <path clip-path="url(#pda4141ad63)" d="M 358.821803 320.87625 
L 358.821803 21.89625 
" style="fill:none;stroke:#ffffff;stroke-linecap:round;"/>
     </g>
     <g id="line2d_14"/>
     <g id="text_7">
      <!-- 1500 -->
      <g style="fill:#262626;" transform="translate(347.699928 335.123125)scale(0.1 -0.1)">
       <use xlink:href="#LiberationSans-31"/>
       <use x="55.615234" xlink:href="#LiberationSans-35"/>
       <use x="111.230469" xlink:href="#LiberationSans-30"/>
       <use x="166.845703" xlink:href="#LiberationSans-30"/>
      </g>
     </g>
    </g>
    <g id="xtick_8">
     <g id="line2d_15">
      <path clip-path="url(#pda4141ad63)" d="M 409.574452 320.87625 
L 409.574452 21.89625 
" style="fill:none;stroke:#ffffff;stroke-linecap:round;"/>
     </g>
     <g id="line2d_16"/>
     <g id="text_8">
      <!-- 1750 -->
      <g style="fill:#262626;" transform="translate(398.452577 335.123125)scale(0.1 -0.1)">
       <use xlink:href="#LiberationSans-31"/>
       <use x="55.615234" xlink:href="#LiberationSans-37"/>
       <use x="111.230469" xlink:href="#LiberationSans-35"/>
       <use x="166.845703" xlink:href="#LiberationSans-30"/>
      </g>
     </g>
    </g>
    <g id="xtick_9">
     <g id="line2d_17">
      <path clip-path="url(#pda4141ad63)" d="M 460.327102 320.87625 
L 460.327102 21.89625 
" style="fill:none;stroke:#ffffff;stroke-linecap:round;"/>
     </g>
     <g id="line2d_18"/>
     <g id="text_9">
      <!-- 2000 -->
      <g style="fill:#262626;" transform="translate(449.205227 335.123125)scale(0.1 -0.1)">
       <use xlink:href="#LiberationSans-32"/>
       <use x="55.615234" xlink:href="#LiberationSans-30"/>
       <use x="111.230469" xlink:href="#LiberationSans-30"/>
       <use x="166.845703" xlink:href="#LiberationSans-30"/>
      </g>
     </g>
    </g>
    <g id="text_10">
     <!-- Training Step -->
     <defs>
      <path d="M 35.15625 61.1875 
L 35.15625 0 
L 25.875 0 
L 25.875 61.1875 
L 2.25 61.1875 
L 2.25 68.796875 
L 58.796875 68.796875 
L 58.796875 61.1875 
z
" id="LiberationSans-54"/>
      <path d="M 6.9375 0 
L 6.9375 40.53125 
Q 6.9375 42.1875 6.90625 43.921875 
Q 6.890625 45.65625 6.828125 47.265625 
Q 6.78125 48.875 6.734375 50.28125 
Q 6.6875 51.703125 6.640625 52.828125 
L 14.9375 52.828125 
Q 14.984375 51.703125 15.0625 50.265625 
Q 15.140625 48.828125 15.203125 47.3125 
Q 15.28125 45.796875 15.296875 44.40625 
Q 15.328125 43.015625 15.328125 42.046875 
L 15.53125 42.046875 
Q 16.453125 45.0625 17.5 47.28125 
Q 18.5625 49.515625 19.96875 50.953125 
Q 21.390625 52.390625 23.34375 53.09375 
Q 25.296875 53.8125 28.078125 53.8125 
Q 29.15625 53.8125 30.125 53.640625 
Q 31.109375 53.46875 31.640625 53.328125 
L 31.640625 45.265625 
Q 30.765625 45.515625 29.59375 45.625 
Q 28.421875 45.75 26.953125 45.75 
Q 23.921875 45.75 21.796875 44.375 
Q 19.671875 43.015625 18.328125 40.59375 
Q 17 38.1875 16.359375 34.84375 
Q 15.71875 31.5 15.71875 27.546875 
L 15.71875 0 
z
" id="LiberationSans-72"/>
      <path d="M 20.21875 -0.984375 
Q 12.25 -0.984375 8.25 3.21875 
Q 4.25 7.421875 4.25 14.75 
Q 4.25 19.96875 6.21875 23.3125 
Q 8.203125 26.65625 11.390625 28.5625 
Q 14.59375 30.46875 18.6875 31.203125 
Q 22.796875 31.9375 27.046875 32.03125 
L 38.921875 32.234375 
L 38.921875 35.109375 
Q 38.921875 38.375 38.234375 40.671875 
Q 37.546875 42.96875 36.125 44.375 
Q 34.71875 45.796875 32.59375 46.453125 
Q 30.46875 47.125 27.59375 47.125 
Q 25.046875 47.125 23 46.75 
Q 20.953125 46.390625 19.4375 45.4375 
Q 17.921875 44.484375 16.984375 42.84375 
Q 16.0625 41.21875 15.765625 38.71875 
L 6.59375 39.546875 
Q 7.078125 42.671875 8.4375 45.28125 
Q 9.8125 47.90625 12.328125 49.796875 
Q 14.84375 51.703125 18.625 52.75 
Q 22.40625 53.8125 27.78125 53.8125 
Q 37.75 53.8125 42.765625 49.234375 
Q 47.796875 44.671875 47.796875 36.03125 
L 47.796875 13.28125 
Q 47.796875 9.375 48.828125 7.390625 
Q 49.859375 5.421875 52.734375 5.421875 
Q 53.46875 5.421875 54.203125 5.515625 
Q 54.9375 5.609375 55.609375 5.765625 
L 55.609375 0.296875 
Q 53.953125 -0.09375 52.3125 -0.28125 
Q 50.6875 -0.484375 48.828125 -0.484375 
Q 46.34375 -0.484375 44.5625 0.171875 
Q 42.78125 0.828125 41.65625 2.171875 
Q 40.53125 3.515625 39.9375 5.484375 
Q 39.359375 7.46875 39.203125 10.109375 
L 38.921875 10.109375 
Q 37.5 7.5625 35.8125 5.515625 
Q 34.125 3.46875 31.875 2.03125 
Q 29.640625 0.59375 26.78125 -0.1875 
Q 23.921875 -0.984375 20.21875 -0.984375 
z
M 22.21875 5.609375 
Q 26.421875 5.609375 29.5625 7.140625 
Q 32.71875 8.6875 34.78125 11.078125 
Q 36.859375 13.484375 37.890625 16.3125 
Q 38.921875 19.140625 38.921875 21.734375 
L 38.921875 26.078125 
L 29.296875 25.875 
Q 26.078125 25.828125 23.171875 25.40625 
Q 20.265625 25 18.0625 23.78125 
Q 15.875 22.5625 14.578125 20.359375 
Q 13.28125 18.171875 13.28125 14.59375 
Q 13.28125 10.296875 15.59375 7.953125 
Q 17.921875 5.609375 22.21875 5.609375 
z
" id="LiberationSans-61"/>
      <path d="M 6.6875 64.0625 
L 6.6875 72.46875 
L 15.484375 72.46875 
L 15.484375 64.0625 
z
M 6.6875 0 
L 6.6875 52.828125 
L 15.484375 52.828125 
L 15.484375 0 
z
" id="LiberationSans-69"/>
      <path d="M 40.28125 0 
L 40.28125 33.5 
Q 40.28125 37.359375 39.71875 39.9375 
Q 39.15625 42.53125 37.890625 44.109375 
Q 36.625 45.703125 34.546875 46.359375 
Q 32.46875 47.015625 29.390625 47.015625 
Q 26.265625 47.015625 23.75 45.921875 
Q 21.234375 44.828125 19.453125 42.75 
Q 17.671875 40.671875 16.6875 37.625 
Q 15.71875 34.578125 15.71875 30.609375 
L 15.71875 0 
L 6.9375 0 
L 6.9375 41.546875 
Q 6.9375 43.21875 6.90625 45.046875 
Q 6.890625 46.875 6.828125 48.5 
Q 6.78125 50.140625 6.734375 51.3125 
Q 6.6875 52.484375 6.640625 52.828125 
L 14.9375 52.828125 
Q 14.984375 52.59375 15.03125 51.515625 
Q 15.09375 50.4375 15.15625 49.046875 
Q 15.234375 47.65625 15.28125 46.21875 
Q 15.328125 44.78125 15.328125 43.796875 
L 15.484375 43.796875 
Q 16.75 46.09375 18.265625 47.953125 
Q 19.78125 49.8125 21.78125 51.09375 
Q 23.78125 52.390625 26.359375 53.09375 
Q 28.953125 53.8125 32.375 53.8125 
Q 36.765625 53.8125 39.9375 52.734375 
Q 43.109375 51.65625 45.15625 49.40625 
Q 47.21875 47.171875 48.171875 43.625 
Q 49.125 40.09375 49.125 35.203125 
L 49.125 0 
z
" id="LiberationSans-6e"/>
      <path d="M 26.765625 -20.75 
Q 22.21875 -20.75 18.703125 -19.8125 
Q 15.1875 -18.890625 12.6875 -17.15625 
Q 10.203125 -15.4375 8.640625 -13.03125 
Q 7.078125 -10.640625 6.390625 -7.71875 
L 15.234375 -6.453125 
Q 16.109375 -10.109375 19.109375 -12.078125 
Q 22.125 -14.0625 27 -14.0625 
Q 29.984375 -14.0625 32.421875 -13.234375 
Q 34.859375 -12.40625 36.5625 -10.5625 
Q 38.28125 -8.734375 39.203125 -5.796875 
Q 40.140625 -2.875 40.140625 1.3125 
L 40.140625 9.8125 
L 40.046875 9.8125 
Q 39.0625 7.8125 37.625 5.984375 
Q 36.1875 4.15625 34.109375 2.734375 
Q 32.03125 1.3125 29.296875 0.453125 
Q 26.5625 -0.390625 23.046875 -0.390625 
Q 18.015625 -0.390625 14.421875 1.296875 
Q 10.84375 2.984375 8.5625 6.34375 
Q 6.296875 9.71875 5.25 14.71875 
Q 4.203125 19.734375 4.203125 26.3125 
Q 4.203125 32.671875 5.25 37.75 
Q 6.296875 42.828125 8.65625 46.359375 
Q 11.03125 49.90625 14.8125 51.78125 
Q 18.609375 53.65625 24.03125 53.65625 
Q 29.640625 53.65625 33.765625 51.09375 
Q 37.890625 48.53125 40.140625 43.796875 
L 40.234375 43.796875 
Q 40.234375 45.015625 40.296875 46.53125 
Q 40.375 48.046875 40.453125 49.390625 
Q 40.53125 50.734375 40.625 51.703125 
Q 40.71875 52.6875 40.828125 52.828125 
L 49.171875 52.828125 
Q 49.125 52.390625 49.078125 51.34375 
Q 49.03125 50.296875 48.96875 48.828125 
Q 48.921875 47.359375 48.890625 45.578125 
Q 48.875 43.796875 48.875 41.890625 
L 48.875 1.515625 
Q 48.875 -9.578125 43.421875 -15.15625 
Q 37.984375 -20.75 26.765625 -20.75 
z
M 40.140625 26.421875 
Q 40.140625 31.9375 38.9375 35.859375 
Q 37.75 39.796875 35.796875 42.28125 
Q 33.84375 44.78125 31.328125 45.953125 
Q 28.8125 47.125 26.171875 47.125 
Q 22.796875 47.125 20.375 45.953125 
Q 17.96875 44.78125 16.375 42.265625 
Q 14.796875 39.75 14.03125 35.8125 
Q 13.28125 31.890625 13.28125 26.421875 
Q 13.28125 20.703125 14.03125 16.8125 
Q 14.796875 12.9375 16.359375 10.546875 
Q 17.921875 8.15625 20.3125 7.125 
Q 22.703125 6.109375 26.03125 6.109375 
Q 28.65625 6.109375 31.171875 7.21875 
Q 33.6875 8.34375 35.6875 10.78125 
Q 37.703125 13.234375 38.921875 17.09375 
Q 40.140625 20.953125 40.140625 26.421875 
z
" id="LiberationSans-67"/>
      <path id="LiberationSans-20"/>
      <path d="M 62.109375 19 
Q 62.109375 14.65625 60.421875 10.984375 
Q 58.734375 7.328125 55.21875 4.65625 
Q 51.703125 2 46.359375 0.5 
Q 41.015625 -0.984375 33.6875 -0.984375 
Q 20.84375 -0.984375 13.671875 3.515625 
Q 6.5 8.015625 4.546875 16.5 
L 13.578125 18.3125 
Q 14.265625 15.625 15.671875 13.421875 
Q 17.09375 11.234375 19.5 9.640625 
Q 21.921875 8.0625 25.484375 7.171875 
Q 29.046875 6.296875 34.03125 6.296875 
Q 38.1875 6.296875 41.65625 7 
Q 45.125 7.71875 47.609375 9.171875 
Q 50.09375 10.640625 51.484375 12.953125 
Q 52.875 15.28125 52.875 18.5 
Q 52.875 21.875 51.34375 23.96875 
Q 49.8125 26.078125 47.015625 27.4375 
Q 44.234375 28.8125 40.375 29.734375 
Q 36.53125 30.671875 31.84375 31.734375 
Q 28.953125 32.375 26.046875 33.125 
Q 23.140625 33.890625 20.484375 34.9375 
Q 17.828125 35.984375 15.484375 37.390625 
Q 13.140625 38.8125 11.421875 40.796875 
Q 9.71875 42.78125 8.734375 45.390625 
Q 7.765625 48 7.765625 51.421875 
Q 7.765625 56.296875 9.734375 59.78125 
Q 11.71875 63.28125 15.234375 65.53125 
Q 18.75 67.78125 23.53125 68.796875 
Q 28.328125 69.828125 33.890625 69.828125 
Q 40.28125 69.828125 44.8125 68.828125 
Q 49.359375 67.828125 52.484375 65.8125 
Q 55.609375 63.8125 57.484375 60.859375 
Q 59.375 57.90625 60.5 54 
L 51.3125 52.390625 
Q 50.640625 54.890625 49.34375 56.84375 
Q 48.046875 58.796875 45.9375 60.109375 
Q 43.84375 61.421875 40.84375 62.109375 
Q 37.84375 62.796875 33.796875 62.796875 
Q 29 62.796875 25.75 61.9375 
Q 22.515625 61.078125 20.53125 59.609375 
Q 18.5625 58.15625 17.703125 56.171875 
Q 16.84375 54.203125 16.84375 51.90625 
Q 16.84375 48.828125 18.375 46.84375 
Q 19.921875 44.875 22.5625 43.546875 
Q 25.203125 42.234375 28.65625 41.359375 
Q 32.125 40.484375 36.03125 39.59375 
Q 39.203125 38.875 42.359375 38.109375 
Q 45.515625 37.359375 48.390625 36.296875 
Q 51.265625 35.25 53.78125 33.828125 
Q 56.296875 32.421875 58.15625 30.375 
Q 60.015625 28.328125 61.0625 25.53125 
Q 62.109375 22.75 62.109375 19 
z
" id="LiberationSans-53"/>
      <path d="M 27.046875 0.390625 
Q 25.046875 -0.140625 22.96875 -0.453125 
Q 20.90625 -0.78125 18.171875 -0.78125 
Q 7.625 -0.78125 7.625 11.1875 
L 7.625 46.4375 
L 1.515625 46.4375 
L 1.515625 52.828125 
L 7.953125 52.828125 
L 10.546875 64.65625 
L 16.40625 64.65625 
L 16.40625 52.828125 
L 26.171875 52.828125 
L 26.171875 46.4375 
L 16.40625 46.4375 
L 16.40625 13.09375 
Q 16.40625 9.28125 17.640625 7.734375 
Q 18.890625 6.203125 21.96875 6.203125 
Q 23.25 6.203125 24.4375 6.390625 
Q 25.640625 6.59375 27.046875 6.890625 
z
" id="LiberationSans-74"/>
      <path d="M 13.484375 24.5625 
Q 13.484375 20.40625 14.328125 16.90625 
Q 15.1875 13.421875 16.96875 10.90625 
Q 18.75 8.40625 21.53125 7 
Q 24.3125 5.609375 28.21875 5.609375 
Q 33.9375 5.609375 37.375 7.90625 
Q 40.828125 10.203125 42.046875 13.71875 
L 49.75 11.53125 
Q 48.921875 9.328125 47.4375 7.109375 
Q 45.953125 4.890625 43.453125 3.09375 
Q 40.96875 1.3125 37.234375 0.15625 
Q 33.5 -0.984375 28.21875 -0.984375 
Q 16.5 -0.984375 10.375 6 
Q 4.25 12.984375 4.25 26.765625 
Q 4.25 34.1875 6.09375 39.328125 
Q 7.953125 44.484375 11.171875 47.703125 
Q 14.40625 50.921875 18.703125 52.359375 
Q 23 53.8125 27.875 53.8125 
Q 34.515625 53.8125 38.984375 51.65625 
Q 43.453125 49.515625 46.15625 45.71875 
Q 48.875 41.9375 50.015625 36.8125 
Q 51.171875 31.6875 51.171875 25.734375 
L 51.171875 24.5625 
z
M 42.09375 31.296875 
Q 41.359375 39.65625 37.84375 43.484375 
Q 34.328125 47.3125 27.734375 47.3125 
Q 25.53125 47.3125 23.109375 46.609375 
Q 20.703125 45.90625 18.65625 44.09375 
Q 16.609375 42.28125 15.1875 39.171875 
Q 13.765625 36.078125 13.578125 31.296875 
z
" id="LiberationSans-65"/>
      <path d="M 51.421875 26.65625 
Q 51.421875 20.65625 50.4375 15.578125 
Q 49.46875 10.5 47.1875 6.828125 
Q 44.921875 3.171875 41.1875 1.09375 
Q 37.453125 -0.984375 31.984375 -0.984375 
Q 26.3125 -0.984375 22.0625 1.171875 
Q 17.828125 3.328125 15.578125 8.203125 
L 15.328125 8.203125 
Q 15.375 8.109375 15.40625 7.328125 
Q 15.4375 6.546875 15.453125 5.375 
Q 15.484375 4.203125 15.5 2.75 
Q 15.53125 1.3125 15.53125 -0.09375 
L 15.53125 -20.75 
L 6.734375 -20.75 
L 6.734375 42.046875 
Q 6.734375 43.953125 6.703125 45.703125 
Q 6.6875 47.46875 6.640625 48.90625 
Q 6.59375 50.34375 6.546875 51.359375 
Q 6.5 52.390625 6.453125 52.828125 
L 14.9375 52.828125 
Q 14.984375 52.6875 15.0625 51.796875 
Q 15.140625 50.921875 15.203125 49.671875 
Q 15.28125 48.4375 15.359375 47.015625 
Q 15.4375 45.609375 15.4375 44.34375 
L 15.625 44.34375 
Q 16.84375 46.875 18.40625 48.65625 
Q 19.96875 50.4375 21.96875 51.578125 
Q 23.96875 52.734375 26.4375 53.25 
Q 28.90625 53.765625 31.984375 53.765625 
Q 37.453125 53.765625 41.1875 51.8125 
Q 44.921875 49.859375 47.1875 46.3125 
Q 49.46875 42.78125 50.4375 37.765625 
Q 51.421875 32.765625 51.421875 26.65625 
z
M 42.1875 26.46875 
Q 42.1875 31.34375 41.59375 35.15625 
Q 41.015625 38.96875 39.578125 41.59375 
Q 38.140625 44.234375 35.734375 45.59375 
Q 33.34375 46.96875 29.734375 46.96875 
Q 26.8125 46.96875 24.21875 46.140625 
Q 21.625 45.3125 19.703125 42.96875 
Q 17.78125 40.625 16.65625 36.5 
Q 15.53125 32.375 15.53125 25.78125 
Q 15.53125 20.171875 16.453125 16.28125 
Q 17.390625 12.40625 19.171875 10.015625 
Q 20.953125 7.625 23.578125 6.5625 
Q 26.21875 5.515625 29.640625 5.515625 
Q 33.296875 5.515625 35.71875 6.921875 
Q 38.140625 8.34375 39.578125 11.03125 
Q 41.015625 13.71875 41.59375 17.59375 
Q 42.1875 21.484375 42.1875 26.46875 
z
" id="LiberationSans-70"/>
     </defs>
     <g style="fill:#262626;" transform="translate(224.507187 349.169687)scale(0.11 -0.11)">
      <use xlink:href="#LiberationSans-54"/>
      <use x="61.037109" xlink:href="#LiberationSans-72"/>
      <use x="94.337891" xlink:href="#LiberationSans-61"/>
      <use x="149.953125" xlink:href="#LiberationSans-69"/>
      <use x="172.169922" xlink:href="#LiberationSans-6e"/>
      <use x="227.785156" xlink:href="#LiberationSans-69"/>
      <use x="250.001953" xlink:href="#LiberationSans-6e"/>
      <use x="305.617188" xlink:href="#LiberationSans-67"/>
      <use x="361.232422" xlink:href="#LiberationSans-20"/>
      <use x="389.015625" xlink:href="#LiberationSans-53"/>
      <use x="455.714844" xlink:href="#LiberationSans-74"/>
      <use x="483.498047" xlink:href="#LiberationSans-65"/>
      <use x="539.113281" xlink:href="#LiberationSans-70"/>
     </g>
    </g>
   </g>
   <g id="matplotlib.axis_2">
    <g id="ytick_1">
     <g id="line2d_19">
      <path clip-path="url(#pda4141ad63)" d="M 34.015 263.87944 
L 480.415 263.87944 
" style="fill:none;stroke:#ffffff;stroke-linecap:round;"/>
     </g>
     <g id="line2d_20"/>
     <g id="text_11">
      <!-- 2 -->
      <g style="fill:#262626;" transform="translate(21.454063 267.502877)scale(0.1 -0.1)">
       <use xlink:href="#LiberationSans-32"/>
      </g>
     </g>
    </g>
    <g id="ytick_2">
     <g id="line2d_21">
      <path clip-path="url(#pda4141ad63)" d="M 34.015 198.12235 
L 480.415 198.12235 
" style="fill:none;stroke:#ffffff;stroke-linecap:round;"/>
     </g>
     <g id="line2d_22"/>
     <g id="text_12">
      <!-- 3 -->
      <defs>
       <path d="M 51.21875 19 
Q 51.21875 14.265625 49.671875 10.546875 
Q 48.140625 6.84375 45.1875 4.265625 
Q 42.234375 1.703125 37.859375 0.359375 
Q 33.5 -0.984375 27.875 -0.984375 
Q 21.484375 -0.984375 17.109375 0.609375 
Q 12.75 2.203125 9.90625 4.8125 
Q 7.078125 7.421875 5.65625 10.765625 
Q 4.25 14.109375 3.8125 17.671875 
L 12.890625 18.5 
Q 13.28125 15.765625 14.328125 13.515625 
Q 15.375 11.28125 17.1875 9.671875 
Q 19 8.0625 21.625 7.171875 
Q 24.265625 6.296875 27.875 6.296875 
Q 34.515625 6.296875 38.296875 9.5625 
Q 42.09375 12.84375 42.09375 19.28125 
Q 42.09375 23.09375 40.40625 25.40625 
Q 38.71875 27.734375 36.203125 29.03125 
Q 33.6875 30.328125 30.734375 30.765625 
Q 27.78125 31.203125 25.296875 31.203125 
L 20.3125 31.203125 
L 20.3125 38.8125 
L 25.09375 38.8125 
Q 27.59375 38.8125 30.265625 39.328125 
Q 32.953125 39.84375 35.171875 41.1875 
Q 37.40625 42.53125 38.84375 44.828125 
Q 40.28125 47.125 40.28125 50.6875 
Q 40.28125 56.203125 37.03125 59.390625 
Q 33.796875 62.59375 27.390625 62.59375 
Q 21.578125 62.59375 17.984375 59.609375 
Q 14.40625 56.640625 13.8125 51.21875 
L 4.984375 51.90625 
Q 5.515625 56.453125 7.46875 59.8125 
Q 9.421875 63.1875 12.421875 65.40625 
Q 15.4375 67.625 19.28125 68.71875 
Q 23.140625 69.828125 27.484375 69.828125 
Q 33.25 69.828125 37.390625 68.375 
Q 41.546875 66.9375 44.1875 64.46875 
Q 46.828125 62.015625 48.0625 58.6875 
Q 49.3125 55.375 49.3125 51.609375 
Q 49.3125 48.578125 48.484375 45.9375 
Q 47.65625 43.3125 45.890625 41.203125 
Q 44.140625 39.109375 41.421875 37.59375 
Q 38.71875 36.078125 34.90625 35.296875 
L 34.90625 35.109375 
Q 39.0625 34.671875 42.140625 33.21875 
Q 45.21875 31.78125 47.21875 29.625 
Q 49.21875 27.484375 50.21875 24.75 
Q 51.21875 22.015625 51.21875 19 
z
" id="LiberationSans-33"/>
      </defs>
      <g style="fill:#262626;" transform="translate(21.454063 201.745787)scale(0.1 -0.1)">
       <use xlink:href="#LiberationSans-33"/>
      </g>
     </g>
    </g>
    <g id="ytick_3">
     <g id="line2d_23">
      <path clip-path="url(#pda4141ad63)" d="M 34.015 132.36526 
L 480.415 132.36526 
" style="fill:none;stroke:#ffffff;stroke-linecap:round;"/>
     </g>
     <g id="line2d_24"/>
     <g id="text_13">
      <!-- 4 -->
      <defs>
       <path d="M 43.015625 15.578125 
L 43.015625 0 
L 34.71875 0 
L 34.71875 15.578125 
L 2.296875 15.578125 
L 2.296875 22.40625 
L 33.796875 68.796875 
L 43.015625 68.796875 
L 43.015625 22.515625 
L 52.6875 22.515625 
L 52.6875 15.578125 
z
M 34.71875 58.890625 
Q 34.625 58.640625 34.234375 57.9375 
Q 33.84375 57.234375 33.34375 56.34375 
Q 32.859375 55.46875 32.34375 54.5625 
Q 31.84375 53.65625 31.453125 53.078125 
L 13.8125 27.09375 
Q 13.578125 26.703125 13.109375 26.0625 
Q 12.640625 25.4375 12.15625 24.78125 
Q 11.671875 24.125 11.171875 23.484375 
Q 10.6875 22.859375 10.40625 22.515625 
L 34.71875 22.515625 
z
" id="LiberationSans-34"/>
      </defs>
      <g style="fill:#262626;" transform="translate(21.454063 135.988697)scale(0.1 -0.1)">
       <use xlink:href="#LiberationSans-34"/>
      </g>
     </g>
    </g>
    <g id="ytick_4">
     <g id="line2d_25">
      <path clip-path="url(#pda4141ad63)" d="M 34.015 66.60817 
L 480.415 66.60817 
" style="fill:none;stroke:#ffffff;stroke-linecap:round;"/>
     </g>
     <g id="line2d_26"/>
     <g id="text_14">
      <!-- 5 -->
      <g style="fill:#262626;" transform="translate(21.454063 70.231608)scale(0.1 -0.1)">
       <use xlink:href="#LiberationSans-35"/>
      </g>
     </g>
    </g>
    <g id="text_15">
     <!-- ELBO Loss -->
     <defs>
      <path d="M 8.203125 0 
L 8.203125 68.796875 
L 60.40625 68.796875 
L 60.40625 61.1875 
L 17.53125 61.1875 
L 17.53125 39.109375 
L 57.46875 39.109375 
L 57.46875 31.59375 
L 17.53125 31.59375 
L 17.53125 7.625 
L 62.40625 7.625 
L 62.40625 0 
z
" id="LiberationSans-45"/>
      <path d="M 8.203125 0 
L 8.203125 68.796875 
L 17.53125 68.796875 
L 17.53125 7.625 
L 52.296875 7.625 
L 52.296875 0 
z
" id="LiberationSans-4c"/>
      <path d="M 61.421875 19.390625 
Q 61.421875 14.15625 59.375 10.46875 
Q 57.328125 6.78125 53.859375 4.46875 
Q 50.390625 2.15625 45.796875 1.078125 
Q 41.21875 0 36.140625 0 
L 8.203125 0 
L 8.203125 68.796875 
L 33.203125 68.796875 
Q 38.921875 68.796875 43.40625 67.84375 
Q 47.90625 66.890625 51.03125 64.84375 
Q 54.15625 62.796875 55.78125 59.640625 
Q 57.421875 56.5 57.421875 52.09375 
Q 57.421875 49.21875 56.609375 46.671875 
Q 55.8125 44.140625 54.171875 42.0625 
Q 52.546875 39.984375 50.078125 38.5 
Q 47.609375 37.015625 44.34375 36.28125 
Q 48.484375 35.796875 51.6875 34.375 
Q 54.890625 32.953125 57.03125 30.75 
Q 59.1875 28.5625 60.296875 25.65625 
Q 61.421875 22.75 61.421875 19.390625 
z
M 48.046875 50.984375 
Q 48.046875 56.546875 44.234375 58.9375 
Q 40.4375 61.328125 33.203125 61.328125 
L 17.53125 61.328125 
L 17.53125 39.546875 
L 33.203125 39.546875 
Q 37.3125 39.546875 40.140625 40.34375 
Q 42.96875 41.15625 44.71875 42.640625 
Q 46.484375 44.140625 47.265625 46.234375 
Q 48.046875 48.34375 48.046875 50.984375 
z
M 52 20.125 
Q 52 23.390625 50.796875 25.6875 
Q 49.609375 27.984375 47.359375 29.4375 
Q 45.125 30.90625 41.96875 31.59375 
Q 38.8125 32.28125 34.90625 32.28125 
L 17.53125 32.28125 
L 17.53125 7.46875 
L 35.640625 7.46875 
Q 39.203125 7.46875 42.203125 8.046875 
Q 45.21875 8.640625 47.390625 10.109375 
Q 49.5625 11.578125 50.78125 14.015625 
Q 52 16.453125 52 20.125 
z
" id="LiberationSans-42"/>
      <path d="M 73 34.71875 
Q 73 26.65625 70.671875 20.0625 
Q 68.359375 13.484375 63.96875 8.796875 
Q 59.578125 4.109375 53.21875 1.5625 
Q 46.875 -0.984375 38.8125 -0.984375 
Q 30.328125 -0.984375 23.921875 1.671875 
Q 17.53125 4.34375 13.28125 9.109375 
Q 9.03125 13.875 6.875 20.40625 
Q 4.734375 26.953125 4.734375 34.71875 
Q 4.734375 42.78125 6.984375 49.265625 
Q 9.234375 55.765625 13.578125 60.328125 
Q 17.921875 64.890625 24.296875 67.359375 
Q 30.671875 69.828125 38.921875 69.828125 
Q 47.125 69.828125 53.484375 67.328125 
Q 59.859375 64.84375 64.171875 60.25 
Q 68.5 55.671875 70.75 49.171875 
Q 73 42.671875 73 34.71875 
z
M 63.484375 34.71875 
Q 63.484375 40.921875 61.890625 46 
Q 60.296875 51.078125 57.203125 54.6875 
Q 54.109375 58.296875 49.515625 60.25 
Q 44.921875 62.203125 38.921875 62.203125 
Q 32.765625 62.203125 28.125 60.25 
Q 23.484375 58.296875 20.375 54.6875 
Q 17.28125 51.078125 15.734375 46 
Q 14.203125 40.921875 14.203125 34.71875 
Q 14.203125 28.515625 15.796875 23.359375 
Q 17.390625 18.21875 20.484375 14.484375 
Q 23.578125 10.75 28.1875 8.671875 
Q 32.8125 6.59375 38.8125 6.59375 
Q 45.265625 6.59375 49.921875 8.6875 
Q 54.59375 10.796875 57.59375 14.53125 
Q 60.59375 18.265625 62.03125 23.4375 
Q 63.484375 28.609375 63.484375 34.71875 
z
" id="LiberationSans-4f"/>
      <path d="M 51.421875 26.46875 
Q 51.421875 12.59375 45.3125 5.796875 
Q 39.203125 -0.984375 27.59375 -0.984375 
Q 22.078125 -0.984375 17.71875 0.671875 
Q 13.375 2.34375 10.375 5.765625 
Q 7.375 9.1875 5.78125 14.328125 
Q 4.203125 19.484375 4.203125 26.46875 
Q 4.203125 53.8125 27.875 53.8125 
Q 34.03125 53.8125 38.5 52.09375 
Q 42.96875 50.390625 45.828125 46.96875 
Q 48.6875 43.5625 50.046875 38.421875 
Q 51.421875 33.296875 51.421875 26.46875 
z
M 42.1875 26.46875 
Q 42.1875 32.625 41.234375 36.625 
Q 40.28125 40.625 38.453125 43.015625 
Q 36.625 45.40625 33.984375 46.359375 
Q 31.34375 47.3125 28.03125 47.3125 
Q 24.65625 47.3125 21.9375 46.3125 
Q 19.234375 45.3125 17.328125 42.890625 
Q 15.4375 40.484375 14.421875 36.46875 
Q 13.421875 32.46875 13.421875 26.46875 
Q 13.421875 20.3125 14.5 16.28125 
Q 15.578125 12.25 17.453125 9.859375 
Q 19.34375 7.46875 21.90625 6.484375 
Q 24.46875 5.515625 27.484375 5.515625 
Q 30.859375 5.515625 33.59375 6.46875 
Q 36.328125 7.421875 38.234375 9.8125 
Q 40.140625 12.203125 41.15625 16.25 
Q 42.1875 20.3125 42.1875 26.46875 
z
" id="LiberationSans-6f"/>
      <path d="M 46.390625 14.59375 
Q 46.390625 10.890625 44.9375 7.984375 
Q 43.5 5.078125 40.765625 3.09375 
Q 38.03125 1.125 34.046875 0.0625 
Q 30.078125 -0.984375 24.953125 -0.984375 
Q 20.359375 -0.984375 16.671875 -0.265625 
Q 12.984375 0.4375 10.203125 2 
Q 7.421875 3.5625 5.53125 6.125 
Q 3.65625 8.6875 2.78125 12.40625 
L 10.546875 13.921875 
Q 11.671875 9.671875 15.1875 7.6875 
Q 18.703125 5.71875 24.953125 5.71875 
Q 27.78125 5.71875 30.140625 6.109375 
Q 32.515625 6.5 34.21875 7.453125 
Q 35.9375 8.40625 36.890625 9.984375 
Q 37.84375 11.578125 37.84375 13.921875 
Q 37.84375 16.3125 36.71875 17.84375 
Q 35.59375 19.390625 33.59375 20.40625 
Q 31.59375 21.4375 28.734375 22.1875 
Q 25.875 22.953125 22.46875 23.875 
Q 19.28125 24.703125 16.15625 25.734375 
Q 13.03125 26.765625 10.515625 28.4375 
Q 8.015625 30.125 6.453125 32.609375 
Q 4.890625 35.109375 4.890625 38.875 
Q 4.890625 46.09375 10.03125 49.875 
Q 15.1875 53.65625 25.046875 53.65625 
Q 33.796875 53.65625 38.9375 50.578125 
Q 44.09375 47.515625 45.453125 40.71875 
L 37.546875 39.75 
Q 37.109375 41.796875 35.9375 43.1875 
Q 34.765625 44.578125 33.109375 45.4375 
Q 31.453125 46.296875 29.375 46.65625 
Q 27.296875 47.015625 25.046875 47.015625 
Q 19.09375 47.015625 16.25 45.203125 
Q 13.421875 43.40625 13.421875 39.75 
Q 13.421875 37.59375 14.46875 36.203125 
Q 15.53125 34.8125 17.40625 33.859375 
Q 19.28125 32.90625 21.921875 32.203125 
Q 24.5625 31.5 27.734375 30.71875 
Q 29.828125 30.171875 32.03125 29.5625 
Q 34.234375 28.953125 36.296875 28.09375 
Q 38.375 27.25 40.203125 26.09375 
Q 42.046875 24.953125 43.40625 23.34375 
Q 44.78125 21.734375 45.578125 19.578125 
Q 46.390625 17.4375 46.390625 14.59375 
z
" id="LiberationSans-73"/>
     </defs>
     <g style="fill:#262626;" transform="translate(15.171563 199.205078)rotate(-90)scale(0.11 -0.11)">
      <use xlink:href="#LiberationSans-45"/>
      <use x="66.699219" xlink:href="#LiberationSans-4c"/>
      <use x="122.314453" xlink:href="#LiberationSans-42"/>
      <use x="189.013672" xlink:href="#LiberationSans-4f"/>
      <use x="266.796875" xlink:href="#LiberationSans-20"/>
      <use x="294.580078" xlink:href="#LiberationSans-4c"/>
      <use x="350.195312" xlink:href="#LiberationSans-6f"/>
      <use x="405.810547" xlink:href="#LiberationSans-73"/>
      <use x="455.810547" xlink:href="#LiberationSans-73"/>
     </g>
    </g>
   </g>
   <g id="line2d_27">
    <path clip-path="url(#pda4141ad63)" d="M 54.305909 35.48625 
L 54.50892 134.448154 
L 54.71193 124.203286 
L 54.914941 150.342735 
L 55.117951 161.602546 
L 55.726983 94.38061 
L 56.133004 165.919734 
L 56.336015 113.580633 
L 56.742036 199.74308 
L 56.945047 138.639872 
L 57.148057 171.19428 
L 57.554079 83.428881 
L 57.757089 200.592561 
L 58.366121 161.795257 
L 58.569132 149.432362 
L 58.772142 174.588819 
L 58.975153 160.992103 
L 59.178163 187.272135 
L 59.381174 171.321019 
L 59.584185 194.301723 
L 59.787195 178.276593 
L 59.990206 207.846984 
L 60.193216 172.736121 
L 60.396227 176.44923 
L 60.599238 217.523064 
L 60.802248 121.381894 
L 61.005259 206.966272 
L 61.208269 182.622815 
L 61.41128 140.271452 
L 61.614291 203.991724 
L 61.817301 179.672771 
L 62.020312 179.309346 
L 62.426333 190.754233 
L 62.629344 209.102533 
L 62.832354 198.757987 
L 63.035365 207.284263 
L 63.238375 224.184084 
L 63.441386 202.141253 
L 63.644397 235.95016 
L 63.847407 181.568661 
L 64.050418 223.994321 
L 64.253428 194.822364 
L 64.659449 227.080134 
L 64.86246 204.884335 
L 65.065471 233.079618 
L 65.268481 228.838813 
L 65.471492 200.169263 
L 65.877513 225.087779 
L 66.080524 192.088234 
L 66.283534 236.131253 
L 66.486545 190.431507 
L 66.689555 248.514075 
L 66.892566 207.635303 
L 67.095577 252.541663 
L 67.501598 209.977161 
L 67.704608 236.561513 
L 67.907619 198.750101 
L 68.11063 247.417042 
L 68.31364 227.02291 
L 68.516651 243.971301 
L 68.719661 224.551366 
L 68.922672 243.839937 
L 69.125683 230.960258 
L 69.328693 237.293897 
L 69.531704 229.221192 
L 69.734714 212.519255 
L 69.937725 233.451117 
L 70.140736 239.933365 
L 70.343746 240.386576 
L 70.546757 227.419196 
L 70.749767 247.639337 
L 70.952778 227.843968 
L 71.155789 241.70664 
L 71.358799 236.786205 
L 71.56181 253.119732 
L 71.76482 228.618588 
L 71.967831 245.022977 
L 72.170842 241.131942 
L 72.373852 239.722986 
L 72.576863 214.749896 
L 72.779873 252.495477 
L 72.982884 255.404852 
L 73.388905 209.932307 
L 73.591916 249.816124 
L 73.794926 233.316132 
L 73.997937 251.773534 
L 74.606969 234.486614 
L 74.809979 249.659237 
L 75.216001 244.306443 
L 75.419011 236.121361 
L 75.622022 244.670135 
L 75.825032 240.657816 
L 76.028043 258.959789 
L 76.637075 238.706835 
L 76.840085 259.51594 
L 77.043096 247.646768 
L 77.246106 246.879799 
L 77.449117 257.516374 
L 77.652128 246.288937 
L 77.855138 256.46719 
L 78.261159 247.912991 
L 78.46417 257.756368 
L 78.667181 253.072997 
L 78.870191 243.784078 
L 79.276212 255.376946 
L 79.479223 248.641879 
L 79.682234 259.380532 
L 79.885244 255.475794 
L 80.291265 238.91643 
L 80.494276 268.30659 
L 80.697287 249.552112 
L 80.900297 266.672604 
L 81.103308 261.431381 
L 81.306318 243.597717 
L 81.509329 239.834674 
L 81.71234 266.340237 
L 81.91535 268.410439 
L 82.118361 250.734133 
L 82.321371 264.326544 
L 82.524382 257.598384 
L 82.727393 260.490561 
L 82.930403 257.932836 
L 83.133414 260.533973 
L 83.336424 259.490229 
L 83.539435 268.380746 
L 83.742446 255.494388 
L 83.945456 264.234007 
L 84.148467 260.952599 
L 84.351477 264.75395 
L 84.554488 244.608647 
L 84.757499 265.119837 
L 84.960509 254.504011 
L 85.16352 265.410838 
L 85.36653 260.25897 
L 85.569541 265.785058 
L 85.772552 260.199175 
L 85.975562 260.684196 
L 86.381583 265.61947 
L 86.584594 260.945748 
L 86.787604 266.552348 
L 86.990615 263.000766 
L 87.193626 266.040518 
L 87.396636 264.359421 
L 87.599647 258.816808 
L 87.802657 269.77955 
L 88.005668 263.195201 
L 88.208679 262.195591 
L 88.411689 257.279107 
L 88.6147 267.126302 
L 88.81771 261.413006 
L 89.020721 269.321166 
L 89.223732 258.947451 
L 89.426742 271.622395 
L 89.629753 271.231871 
L 89.832763 259.125879 
L 90.035774 261.768044 
L 90.238785 269.110136 
L 90.441795 258.469516 
L 90.644806 273.100341 
L 90.847816 257.328696 
L 91.050827 272.876792 
L 91.253838 268.76659 
L 91.456848 268.260247 
L 91.659859 274.102052 
L 91.862869 262.435381 
L 92.06588 268.566715 
L 92.268891 268.393484 
L 92.471901 262.912579 
L 92.674912 273.992998 
L 93.080933 263.521988 
L 93.283944 264.544269 
L 93.486954 264.544033 
L 93.689965 265.942619 
L 93.892975 273.719305 
L 94.095986 265.466761 
L 94.502007 271.431903 
L 94.705018 269.290657 
L 94.908028 273.386733 
L 95.111039 262.612869 
L 95.51706 270.819249 
L 95.720071 266.520052 
L 95.923081 273.67692 
L 96.126092 267.503915 
L 96.329103 273.327707 
L 96.532113 273.02537 
L 96.735124 270.234196 
L 96.938134 272.701492 
L 97.141145 268.21972 
L 97.344155 270.771981 
L 97.547166 269.53501 
L 97.750177 275.686121 
L 97.953187 266.052464 
L 98.359208 273.438164 
L 98.562219 260.360514 
L 98.76523 279.097167 
L 98.96824 265.8865 
L 99.171251 278.537363 
L 99.374261 271.453083 
L 99.780283 274.361965 
L 99.983293 270.794808 
L 100.186304 272.717773 
L 100.389314 271.261204 
L 100.592325 275.95127 
L 100.795336 272.013907 
L 100.998346 278.078571 
L 101.201357 267.529203 
L 101.404367 272.432925 
L 101.607378 274.370024 
L 101.810389 273.459501 
L 102.013399 269.542057 
L 102.21641 271.664537 
L 102.41942 277.736318 
L 102.622431 272.098903 
L 102.825442 272.36809 
L 103.028452 270.045045 
L 103.434473 281.586326 
L 103.637484 268.637641 
L 104.043505 275.478751 
L 104.246516 268.572531 
L 104.449526 278.990904 
L 104.652537 281.451152 
L 104.855548 267.675609 
L 105.058558 274.790594 
L 105.261569 273.883442 
L 105.464579 271.81683 
L 105.66759 278.965381 
L 105.870601 276.945966 
L 106.073611 272.690314 
L 106.276622 277.127075 
L 106.479632 275.692666 
L 106.682643 272.289787 
L 107.088664 282.121853 
L 107.291675 270.754242 
L 107.494685 279.245886 
L 107.697696 271.12502 
L 107.900706 273.281928 
L 108.103717 279.459362 
L 108.306728 276.944798 
L 108.509738 277.830455 
L 108.712749 274.89565 
L 108.915759 278.105717 
L 109.11877 267.766642 
L 109.321781 287.29364 
L 109.524791 274.211122 
L 109.727802 279.185911 
L 109.930812 277.960784 
L 110.133823 274.357011 
L 110.336834 278.46563 
L 110.539844 276.628414 
L 110.742855 282.614972 
L 110.945865 272.454693 
L 111.148876 280.019424 
L 111.554897 274.683727 
L 111.757908 278.736988 
L 111.960918 271.040893 
L 112.163929 279.939547 
L 112.772961 275.547357 
L 112.975971 281.217264 
L 113.178982 277.824976 
L 113.381993 280.559835 
L 113.585003 275.306642 
L 113.788014 283.236569 
L 113.991024 271.927397 
L 114.194035 281.471957 
L 114.397046 274.903458 
L 114.600056 282.690577 
L 114.803067 277.394678 
L 115.006077 280.587483 
L 115.209088 280.381972 
L 115.615109 277.403293 
L 115.81812 277.753932 
L 116.02113 278.694336 
L 116.224141 277.744502 
L 116.427152 279.40761 
L 116.630162 278.974387 
L 116.833173 281.730153 
L 117.036183 280.212182 
L 117.239194 277.761121 
L 117.442205 279.053105 
L 117.645215 278.12065 
L 117.848226 278.311636 
L 118.051236 281.380234 
L 118.254247 279.343025 
L 118.457257 280.101819 
L 118.660268 279.14616 
L 118.863279 285.188648 
L 119.066289 275.818362 
L 119.2693 276.87221 
L 119.47231 282.703214 
L 119.675321 280.743852 
L 120.081342 283.448932 
L 120.284353 275.720055 
L 120.487363 277.480419 
L 120.690374 286.331475 
L 120.893385 286.790244 
L 121.096395 275.473782 
L 121.299406 283.020217 
L 121.705427 278.607733 
L 121.908438 283.302024 
L 122.111448 278.827699 
L 122.314459 285.584025 
L 122.517469 279.300688 
L 122.72048 285.258155 
L 122.923491 280.758205 
L 123.126501 280.550358 
L 123.329512 277.20464 
L 123.532522 280.688236 
L 123.735533 280.539141 
L 123.938544 282.567711 
L 124.141554 279.967445 
L 124.750586 284.287533 
L 124.953597 282.246059 
L 125.156607 283.608735 
L 125.359618 286.722469 
L 125.562628 284.574058 
L 125.765639 284.946726 
L 125.96865 281.006728 
L 126.374671 280.675074 
L 126.577681 286.087177 
L 126.780692 280.738624 
L 126.983703 282.696825 
L 127.186713 279.76514 
L 127.389724 282.11004 
L 127.592734 287.237208 
L 127.795745 281.030606 
L 127.998756 285.98909 
L 128.201766 282.724237 
L 128.404777 284.544443 
L 128.607787 282.509445 
L 128.810798 284.786774 
L 129.013808 284.966064 
L 129.216819 284.971206 
L 129.41983 285.951745 
L 129.62284 279.412791 
L 129.825851 284.00774 
L 130.028861 278.989124 
L 130.231872 286.224749 
L 130.434883 283.725204 
L 130.637893 289.483024 
L 130.840904 279.36437 
L 131.043914 279.868519 
L 131.246925 289.700278 
L 131.449936 278.10052 
L 131.652946 285.619315 
L 131.855957 282.393453 
L 132.261978 290.079044 
L 132.464989 278.843094 
L 132.667999 286.25543 
L 132.87101 286.224804 
L 133.07402 282.271881 
L 133.277031 289.200316 
L 133.480042 290.236652 
L 133.683052 278.637818 
L 134.089073 285.136888 
L 134.495095 283.265267 
L 134.698105 281.096648 
L 134.901116 290.353733 
L 135.104126 283.399665 
L 135.307137 287.487126 
L 135.510148 283.188713 
L 135.713158 284.961596 
L 135.916169 284.670037 
L 136.119179 287.823609 
L 136.32219 285.310691 
L 136.525201 284.30633 
L 136.728211 287.281074 
L 137.134232 282.495272 
L 137.337243 287.472695 
L 137.540254 288.563174 
L 137.743264 282.614392 
L 137.946275 285.055364 
L 138.149285 285.260178 
L 138.352296 287.586178 
L 138.555307 283.204932 
L 138.758317 287.01783 
L 138.961328 283.876761 
L 139.164338 284.968549 
L 139.367349 284.290551 
L 139.570359 288.133754 
L 139.976381 282.537304 
L 140.179391 289.890034 
L 140.585412 286.183297 
L 140.788423 282.785553 
L 140.991434 288.130093 
L 141.194444 285.658219 
L 141.397455 287.571386 
L 141.600465 282.004866 
L 141.803476 289.057876 
L 142.006487 280.737401 
L 142.209497 293.901646 
L 142.412508 281.421545 
L 142.615518 291.330596 
L 142.818529 283.330973 
L 143.02154 288.249212 
L 143.22455 289.655338 
L 143.427561 283.661224 
L 143.630571 287.863854 
L 143.833582 286.599501 
L 144.036593 281.649115 
L 144.239603 290.183246 
L 144.442614 285.585702 
L 144.645624 287.225497 
L 144.848635 285.469295 
L 145.051646 287.898705 
L 145.254656 282.428375 
L 145.457667 290.791902 
L 145.660677 285.131715 
L 145.863688 285.676194 
L 146.066699 287.385315 
L 146.269709 283.710264 
L 146.47272 285.863135 
L 146.67573 285.651047 
L 146.878741 291.922092 
L 147.081752 280.956042 
L 147.284762 293.726965 
L 147.487773 280.808303 
L 147.690783 286.731076 
L 147.893794 289.023942 
L 148.096805 277.384244 
L 148.299815 294.092656 
L 148.502826 291.915907 
L 148.705836 285.374704 
L 148.908847 285.207132 
L 149.111858 291.479832 
L 149.314868 292.149905 
L 149.720889 284.706041 
L 149.9239 283.848008 
L 150.329921 290.374177 
L 150.532932 285.316774 
L 150.735942 293.65952 
L 150.938953 287.909993 
L 151.141963 289.959384 
L 151.344974 283.145137 
L 151.547985 292.418409 
L 151.750995 283.178452 
L 151.954006 295.75037 
L 152.157016 291.755995 
L 152.360027 283.56664 
L 152.563038 292.006266 
L 152.766048 284.424697 
L 152.969059 289.464015 
L 153.172069 287.958226 
L 153.37508 288.440645 
L 153.578091 287.279859 
L 153.781101 281.118848 
L 153.984112 295.754242 
L 154.187122 295.251733 
L 154.390133 285.46732 
L 154.796154 291.396097 
L 154.999165 290.291736 
L 155.202175 287.059673 
L 155.405186 289.804661 
L 155.608197 289.340843 
L 155.811207 286.513681 
L 156.014218 292.534911 
L 156.217228 292.164454 
L 156.420239 280.254394 
L 156.62325 290.567953 
L 156.82626 288.600205 
L 157.435292 288.456181 
L 157.638303 288.858283 
L 157.841313 290.591509 
L 158.044324 290.754087 
L 158.247334 288.015497 
L 158.450345 290.168579 
L 158.653356 286.43088 
L 158.856366 289.634064 
L 159.059377 294.956145 
L 159.465398 283.071593 
L 159.668409 288.516376 
L 159.871419 289.676785 
L 160.07443 287.432505 
L 160.27744 290.489142 
L 160.480451 287.595828 
L 160.683462 291.12325 
L 160.886472 288.798151 
L 161.089483 292.1624 
L 161.292493 284.579514 
L 161.495504 285.741915 
L 161.698514 298.302608 
L 161.901525 286.530284 
L 162.104536 293.55629 
L 162.307546 287.026311 
L 162.713567 301.090834 
L 162.916578 279.394448 
L 163.119589 287.489846 
L 163.322599 290.936889 
L 163.52561 285.029253 
L 163.72862 291.1078 
L 163.931631 291.568019 
L 164.134642 288.748351 
L 164.337652 293.048011 
L 164.540663 288.14091 
L 164.743673 293.909854 
L 164.946684 282.146388 
L 165.149695 290.555999 
L 165.555716 284.068201 
L 165.758726 294.415742 
L 165.961737 283.500182 
L 166.164748 295.032825 
L 166.367758 287.475619 
L 166.570769 293.024228 
L 166.773779 288.83004 
L 166.97679 290.563462 
L 167.179801 295.611348 
L 167.382811 283.294985 
L 167.585822 295.20702 
L 167.788832 289.933343 
L 167.991843 292.629196 
L 168.194854 286.448298 
L 168.397864 291.267516 
L 168.600875 290.275784 
L 168.803885 285.372767 
L 169.006896 295.172286 
L 169.209907 288.734672 
L 169.412917 289.380171 
L 169.615928 288.737902 
L 169.818938 294.591991 
L 170.021949 290.643567 
L 170.22496 288.918807 
L 170.42797 299.555061 
L 170.630981 283.639432 
L 171.037002 292.680925 
L 171.240013 281.964644 
L 171.443023 297.295981 
L 171.646034 286.908039 
L 171.849044 296.198282 
L 172.255065 288.331583 
L 172.458076 293.738214 
L 172.661087 274.998614 
L 173.067108 292.613903 
L 173.270118 292.983583 
L 173.473129 288.450992 
L 173.87915 291.180082 
L 174.082161 303.537874 
L 174.285171 278.052632 
L 174.488182 290.402859 
L 174.691193 287.333171 
L 174.894203 295.466227 
L 175.097214 284.737287 
L 175.300224 291.657045 
L 175.503235 294.301585 
L 175.706246 291.541657 
L 176.112267 290.470101 
L 176.315277 292.276691 
L 176.518288 285.616101 
L 176.721299 293.278771 
L 176.924309 292.575963 
L 177.12732 289.986365 
L 177.33033 293.261839 
L 177.533341 290.053364 
L 177.736352 285.00003 
L 177.939362 294.668953 
L 178.142373 283.722445 
L 178.345383 295.412688 
L 178.548394 286.296326 
L 178.751405 293.4416 
L 178.954415 289.515038 
L 179.157426 292.827653 
L 179.360436 290.874696 
L 179.563447 292.255808 
L 179.766458 287.517721 
L 180.172479 292.719516 
L 180.375489 288.91517 
L 180.5785 289.021825 
L 180.781511 294.081188 
L 180.984521 292.526202 
L 181.187532 292.021465 
L 181.390542 293.371975 
L 181.593553 290.796542 
L 181.796564 295.30419 
L 181.999574 285.936624 
L 182.202585 293.777988 
L 182.405595 293.268157 
L 182.608606 290.116631 
L 182.811616 294.8266 
L 183.014627 293.248685 
L 183.217638 288.978445 
L 183.420648 290.808881 
L 183.623659 288.263487 
L 183.826669 287.180674 
L 184.02968 298.105617 
L 184.232691 297.396859 
L 184.435701 284.689909 
L 184.638712 286.653566 
L 184.841722 291.082888 
L 185.044733 288.845208 
L 185.247744 295.484703 
L 185.450754 294.365479 
L 185.653765 288.580325 
L 186.059786 292.030809 
L 186.262797 285.976312 
L 186.465807 296.764154 
L 186.668818 291.641461 
L 186.871828 295.778002 
L 187.48086 288.847646 
L 187.683871 290.632216 
L 188.089892 288.989059 
L 188.292903 292.063176 
L 188.495913 287.04913 
L 188.698924 292.76212 
L 188.901934 290.538134 
L 189.104945 284.572522 
L 189.307956 296.599326 
L 189.510966 286.980877 
L 189.713977 296.115802 
L 189.916987 293.217322 
L 190.119998 285.92902 
L 190.323009 293.196494 
L 190.72903 286.798357 
L 190.93204 293.254094 
L 191.135051 287.4063 
L 191.338062 296.389793 
L 191.541072 296.475809 
L 191.744083 284.277828 
L 191.947093 290.167647 
L 192.353115 287.020221 
L 192.556125 291.670928 
L 192.759136 300.884562 
L 192.962146 284.559439 
L 193.165157 292.680729 
L 193.368167 289.309104 
L 193.571178 301.516868 
L 193.774189 283.661294 
L 193.977199 296.701984 
L 194.18021 289.5167 
L 194.38322 299.085756 
L 194.586231 288.750233 
L 194.789242 286.174831 
L 194.992252 296.899523 
L 195.195263 289.021332 
L 195.398273 295.437176 
L 195.601284 297.779019 
L 195.804295 284.072074 
L 196.007305 287.18352 
L 196.210316 294.141484 
L 196.413326 294.907505 
L 196.616337 285.261769 
L 196.819348 283.188376 
L 197.022358 298.354908 
L 197.225369 286.734439 
L 197.428379 295.100411 
L 197.63139 292.751075 
L 197.834401 295.603995 
L 198.037411 285.779667 
L 198.240422 292.124735 
L 198.443432 286.047074 
L 198.646443 300.503978 
L 199.052464 289.928413 
L 199.255475 291.189755 
L 199.458485 297.499101 
L 199.661496 293.927648 
L 199.864507 286.034782 
L 200.067517 290.13633 
L 200.270528 285.221744 
L 200.473538 296.669672 
L 200.676549 288.66203 
L 201.285581 299.90875 
L 201.488591 284.860577 
L 201.691602 297.445397 
L 201.894613 288.120177 
L 202.097623 294.109306 
L 202.503644 292.087688 
L 202.909666 295.675485 
L 203.112676 292.217562 
L 203.315687 291.806822 
L 203.518697 292.229352 
L 203.721708 296.277314 
L 203.924718 284.362935 
L 204.127729 287.291029 
L 204.33074 297.8607 
L 204.53375 278.89777 
L 204.736761 300.55747 
L 204.939771 299.577997 
L 205.142782 284.230952 
L 205.345793 292.277349 
L 205.751814 296.261064 
L 205.954824 287.476497 
L 206.157835 297.084379 
L 206.360846 287.361226 
L 206.563856 297.478509 
L 206.969877 277.101128 
L 207.172888 301.109537 
L 207.375899 295.988319 
L 207.578909 284.951115 
L 207.78192 295.394658 
L 207.98493 289.514004 
L 208.187941 289.83292 
L 208.390952 290.99953 
L 208.593962 295.78519 
L 208.999983 278.862237 
L 209.202994 303.539371 
L 209.406005 287.494628 
L 209.812026 302.677888 
L 210.015036 284.648371 
L 210.218047 293.785796 
L 210.421058 290.489659 
L 210.624068 296.23732 
L 210.827079 285.395931 
L 211.030089 292.313173 
L 211.2331 293.227254 
L 211.436111 279.061736 
L 211.639121 297.703617 
L 211.842132 287.877211 
L 212.045142 302.479722 
L 212.248153 289.812633 
L 212.451164 290.186272 
L 212.654174 286.57941 
L 212.857185 291.718368 
L 213.060195 285.668512 
L 213.263206 292.089373 
L 213.466217 286.501578 
L 213.669227 294.619678 
L 213.872238 291.229757 
L 214.075248 293.587888 
L 214.278259 291.296716 
L 214.481269 294.366475 
L 214.68428 299.75572 
L 214.887291 288.170314 
L 215.090301 296.69086 
L 215.293312 286.907459 
L 215.496322 289.007496 
L 215.699333 294.88761 
L 215.902344 286.82827 
L 216.308365 298.220182 
L 216.511375 290.496095 
L 216.714386 289.834221 
L 216.917397 295.469653 
L 217.120407 291.82888 
L 217.323418 294.973445 
L 217.526428 287.390426 
L 217.729439 288.680937 
L 217.93245 288.672416 
L 218.13546 297.539385 
L 218.338471 279.739671 
L 218.541481 298.772312 
L 218.744492 298.976506 
L 218.947503 280.545498 
L 219.353524 296.361252 
L 219.556534 295.056036 
L 219.759545 289.453723 
L 219.962556 296.744259 
L 220.165566 289.45649 
L 220.368577 291.651456 
L 220.571587 290.853554 
L 220.774598 293.550356 
L 220.977609 287.682486 
L 221.180619 288.589975 
L 221.38363 296.283114 
L 221.58664 287.581788 
L 221.789651 294.234139 
L 221.992662 289.200794 
L 222.195672 294.513171 
L 222.398683 284.904929 
L 222.601693 298.424737 
L 223.210725 285.543349 
L 223.413736 296.629208 
L 223.616746 290.901458 
L 223.819757 292.540108 
L 224.022768 288.052692 
L 224.225778 295.1463 
L 224.428789 297.017059 
L 224.631799 282.002169 
L 224.83481 284.502129 
L 225.037821 298.72883 
L 225.240831 285.992123 
L 225.443842 297.157163 
L 225.849863 289.980321 
L 226.052873 296.266864 
L 226.255884 287.470586 
L 226.458895 296.354958 
L 226.661905 288.025475 
L 226.864916 292.230849 
L 227.067926 292.798861 
L 227.270937 289.235803 
L 227.473948 296.590311 
L 227.676958 287.878983 
L 227.879969 293.864279 
L 228.082979 294.017889 
L 228.28599 289.156403 
L 228.489001 291.147096 
L 228.692011 295.498602 
L 228.895022 289.50854 
L 229.098032 291.139524 
L 229.301043 299.28212 
L 229.504054 288.610317 
L 229.707064 286.100699 
L 229.910075 297.082301 
L 230.113085 298.061586 
L 230.316096 290.627105 
L 230.519107 289.317844 
L 230.722117 295.587722 
L 230.925128 294.650124 
L 231.128138 295.347476 
L 231.331149 287.113652 
L 231.73717 305.675828 
L 231.940181 282.223483 
L 232.143191 291.458651 
L 232.346202 293.610002 
L 232.549213 288.553603 
L 232.752223 296.411758 
L 232.955234 287.722386 
L 233.158244 295.272506 
L 233.361255 298.307891 
L 233.564266 281.097651 
L 233.767276 295.954996 
L 233.970287 287.611827 
L 234.173297 286.755353 
L 234.579319 299.170541 
L 234.782329 282.122574 
L 235.18835 293.469232 
L 235.391361 288.0844 
L 235.594372 296.343881 
L 235.797382 289.448824 
L 236.203403 296.360406 
L 236.406414 284.199008 
L 236.609424 297.200801 
L 237.015446 282.927499 
L 237.218456 299.85543 
L 237.421467 292.824329 
L 237.624477 291.576438 
L 238.030499 292.511182 
L 238.233509 300.48286 
L 238.43652 279.575118 
L 238.842541 295.71018 
L 239.045552 289.564368 
L 239.248562 293.868841 
L 239.451573 289.515689 
L 239.654583 293.865541 
L 239.857594 295.759361 
L 240.060605 286.925598 
L 240.263615 302.438427 
L 240.466626 285.774274 
L 240.669636 291.732133 
L 240.872647 290.446177 
L 241.075658 288.130155 
L 241.278668 297.260996 
L 241.481679 301.335563 
L 241.684689 283.061418 
L 242.090711 294.724664 
L 242.293721 291.535833 
L 242.496732 294.985039 
L 242.699742 291.283108 
L 242.902753 291.705967 
L 243.105764 293.940025 
L 243.308774 291.930872 
L 243.511785 296.576664 
L 243.714795 287.859715 
L 243.917806 286.38739 
L 244.120817 294.387358 
L 244.323827 283.601343 
L 244.526838 299.218915 
L 244.729848 288.17276 
L 244.932859 297.837262 
L 245.13587 287.943983 
L 245.33888 297.71808 
L 245.744901 288.084784 
L 245.947912 300.362714 
L 246.150923 287.268101 
L 246.353933 289.322022 
L 246.556944 294.950862 
L 246.759954 288.404735 
L 246.962965 295.078604 
L 247.165975 290.552331 
L 247.368986 294.630307 
L 247.571997 290.644837 
L 247.775007 292.032746 
L 247.978018 287.893524 
L 248.181028 295.78849 
L 248.384039 293.778561 
L 248.58705 293.050848 
L 248.79006 301.154822 
L 248.993071 280.436734 
L 249.196081 289.816764 
L 249.602103 296.442024 
L 249.805113 287.386585 
L 250.008124 290.563336 
L 250.211134 289.46944 
L 250.617156 292.761062 
L 250.820166 283.574252 
L 251.023177 297.506532 
L 251.632209 288.45082 
L 251.835219 290.516233 
L 252.03823 294.845304 
L 252.24124 292.011244 
L 252.444251 287.275485 
L 252.647262 293.07754 
L 252.850272 290.84766 
L 253.053283 294.512505 
L 253.256293 291.0111 
L 253.459304 294.216141 
L 253.662315 291.390398 
L 253.865325 293.71933 
L 254.068336 282.495178 
L 254.271346 298.867593 
L 254.677368 291.564139 
L 254.880378 293.448741 
L 255.083389 290.417973 
L 255.286399 292.348275 
L 255.48941 292.803384 
L 255.692421 287.228585 
L 255.895431 296.508583 
L 256.098442 291.860283 
L 256.301452 292.692613 
L 256.504463 296.119706 
L 256.707474 287.337012 
L 256.910484 297.889735 
L 257.113495 278.521176 
L 257.316505 292.712523 
L 257.519516 293.908427 
L 257.722526 290.084978 
L 257.925537 296.038048 
L 258.128548 293.720741 
L 258.331558 292.748723 
L 258.534569 284.959017 
L 258.737579 301.001424 
L 258.94059 289.397887 
L 259.143601 292.530364 
L 259.346611 290.207711 
L 259.549622 301.102616 
L 259.752632 285.061212 
L 259.955643 298.648717 
L 260.158654 297.205975 
L 260.361664 288.138026 
L 260.564675 285.093712 
L 260.767685 291.977936 
L 260.970696 290.121437 
L 261.173707 295.332551 
L 261.376717 292.952612 
L 261.579728 294.133598 
L 261.782738 296.997234 
L 261.985749 289.751654 
L 262.18876 292.911019 
L 262.39177 287.957121 
L 262.594781 298.803213 
L 262.797791 286.059671 
L 263.000802 299.846196 
L 263.203813 284.247907 
L 263.406823 284.041573 
L 263.609834 299.077698 
L 264.015855 286.880054 
L 264.218866 287.747102 
L 264.624887 297.564877 
L 264.827897 285.441036 
L 265.030908 302.905693 
L 265.233919 282.98466 
L 265.436929 281.314129 
L 265.63994 304.572226 
L 265.84295 290.064009 
L 266.045961 290.715536 
L 266.248972 292.151747 
L 266.451982 288.799249 
L 266.654993 299.516854 
L 266.858003 285.025553 
L 267.061014 284.499409 
L 267.264025 303.279536 
L 267.467035 286.086268 
L 267.873056 301.207907 
L 268.076067 282.506262 
L 268.279077 290.415801 
L 268.482088 291.1461 
L 268.685099 283.602119 
L 268.888109 294.353611 
L 269.09112 287.41359 
L 269.29413 292.108171 
L 269.497141 289.358786 
L 269.700152 294.775687 
L 269.903162 293.284258 
L 270.106173 293.938356 
L 270.309183 302.235354 
L 270.512194 283.290861 
L 270.715205 287.218755 
L 270.918215 295.924369 
L 271.324236 289.156379 
L 271.527247 289.637309 
L 271.933268 297.648431 
L 272.136279 284.535123 
L 272.339289 294.85366 
L 272.5423 289.898053 
L 272.745311 294.286754 
L 272.948321 292.725677 
L 273.151332 288.579259 
L 273.354342 294.913557 
L 273.557353 284.748269 
L 273.760364 296.685444 
L 273.963374 288.593408 
L 274.166385 299.253194 
L 274.369395 289.498114 
L 274.572406 293.933182 
L 274.775417 280.975498 
L 274.978427 305.00044 
L 275.181438 299.544651 
L 275.587459 281.578432 
L 275.79047 302.210332 
L 275.99348 287.732247 
L 276.196491 295.45472 
L 276.399501 287.713011 
L 276.602512 298.904624 
L 276.805523 282.303408 
L 277.008533 303.494172 
L 277.211544 298.860358 
L 277.414554 287.19741 
L 277.617565 294.79381 
L 277.820576 291.379087 
L 278.023586 297.646966 
L 278.226597 286.987783 
L 278.429607 297.191865 
L 278.632618 287.589251 
L 278.835628 294.67346 
L 279.038639 290.317698 
L 279.24165 304.065288 
L 279.44466 280.044822 
L 279.647671 292.910682 
L 279.850681 294.040582 
L 280.053692 288.758118 
L 280.256703 289.047505 
L 280.662724 294.768185 
L 280.865734 288.203723 
L 281.068745 294.598819 
L 281.271756 287.285707 
L 281.474766 303.196241 
L 281.677777 289.068341 
L 281.880787 298.642751 
L 282.083798 292.558114 
L 282.286809 290.764011 
L 282.69283 293.106536 
L 282.89584 289.026709 
L 283.098851 289.177725 
L 283.301862 296.879385 
L 283.504872 284.854791 
L 283.910893 294.530621 
L 284.113904 290.270336 
L 284.316915 292.568978 
L 284.519925 288.82761 
L 284.722936 292.842962 
L 284.925946 285.727021 
L 285.128957 297.238232 
L 285.331968 287.149562 
L 285.534978 300.952603 
L 285.737989 284.38174 
L 285.940999 299.175292 
L 286.14401 288.514996 
L 286.550031 302.405355 
L 286.753042 281.199776 
L 286.956052 284.406432 
L 287.159063 297.911057 
L 287.362074 290.354854 
L 287.565084 289.193575 
L 287.768095 290.520693 
L 287.971105 290.142249 
L 288.174116 288.677896 
L 288.377127 297.823089 
L 288.580137 286.39047 
L 288.783148 295.292534 
L 288.986158 291.914214 
L 289.189169 295.233413 
L 289.392179 287.600241 
L 289.59519 297.729705 
L 289.798201 286.692078 
L 290.001211 300.243602 
L 290.204222 288.528855 
L 290.407232 298.560279 
L 290.610243 291.384809 
L 290.813254 296.705981 
L 291.016264 298.610157 
L 291.219275 285.270941 
L 291.625296 294.020734 
L 291.828307 291.163158 
L 292.031317 293.580246 
L 292.640349 288.606405 
L 292.84336 297.005269 
L 293.04637 296.8473 
L 293.249381 286.975602 
L 293.452391 297.351652 
L 293.655402 287.126092 
L 293.858413 286.510178 
L 294.061423 297.410013 
L 294.264434 287.478856 
L 294.467444 296.176694 
L 294.670455 285.178332 
L 294.873466 299.155969 
L 295.076476 295.381458 
L 295.279487 286.980971 
L 295.482497 289.67129 
L 295.685508 296.710606 
L 295.888519 286.897793 
L 296.091529 299.745388 
L 296.29454 281.409536 
L 296.49755 298.890475 
L 296.700561 296.433346 
L 296.903572 288.611587 
L 297.106582 293.593783 
L 297.512603 286.308194 
L 297.715614 296.710246 
L 297.918625 285.92902 
L 298.121635 296.115026 
L 298.324646 287.599677 
L 298.527656 296.705386 
L 298.730667 291.498708 
L 298.933678 289.399901 
L 299.136688 286.111148 
L 299.339699 297.663466 
L 299.542709 292.113862 
L 299.74572 294.725299 
L 299.948731 290.546781 
L 300.151741 289.099007 
L 300.354752 293.927405 
L 300.557762 291.970011 
L 300.760773 294.775585 
L 300.963783 292.173594 
L 301.166794 302.796922 
L 301.369805 283.921983 
L 301.775826 293.878514 
L 301.978836 289.818959 
L 302.181847 294.720462 
L 302.384858 292.75414 
L 302.587868 293.862319 
L 302.790879 289.953803 
L 302.993889 294.3102 
L 303.1969 294.658331 
L 303.399911 293.080503 
L 303.602921 285.058813 
L 303.805932 295.90431 
L 304.008942 297.487578 
L 304.211953 285.247808 
L 304.414964 286.583439 
L 304.617974 293.624112 
L 304.820985 287.792309 
L 305.023995 297.728568 
L 305.430017 291.492938 
L 305.633027 292.440978 
L 305.836038 295.989369 
L 306.039048 287.454023 
L 306.242059 293.951415 
L 306.44507 307.28625 
L 306.64808 274.174162 
L 306.851091 295.668674 
L 307.054101 288.012259 
L 307.257112 293.955154 
L 307.460123 287.138838 
L 307.663133 288.356236 
L 307.866144 296.517935 
L 308.069154 295.703219 
L 308.272165 285.051429 
L 308.475176 294.171389 
L 308.678186 291.34734 
L 308.881197 285.004553 
L 309.084207 299.290719 
L 309.287218 286.959187 
L 309.490229 300.359155 
L 309.693239 297.472739 
L 309.89625 287.622511 
L 310.09926 292.904936 
L 310.302271 291.415624 
L 310.505282 300.473171 
L 310.708292 283.554952 
L 310.911303 288.033565 
L 311.114313 295.336094 
L 311.317324 291.400769 
L 311.520334 291.670669 
L 311.723345 296.365516 
L 312.129366 286.581088 
L 312.332377 298.065184 
L 312.535387 292.792566 
L 312.738398 296.249094 
L 312.941409 296.497774 
L 313.34743 284.366564 
L 313.55044 296.677189 
L 313.753451 298.958226 
L 313.956462 285.079963 
L 314.565493 300.186371 
L 314.768504 285.076372 
L 314.971515 295.648418 
L 315.377536 287.275775 
L 315.580546 291.508005 
L 315.783557 287.861259 
L 315.986568 297.885643 
L 316.189578 290.427042 
L 316.392589 290.899349 
L 316.595599 290.244703 
L 317.001621 295.402897 
L 317.204631 290.813098 
L 317.407642 291.648971 
L 317.610652 293.558359 
L 317.813663 302.670449 
L 318.016674 281.374606 
L 318.219684 284.321984 
L 318.422695 295.155973 
L 318.625705 296.880075 
L 318.828716 289.392086 
L 319.031727 291.707786 
L 319.234737 295.606049 
L 319.437748 294.826357 
L 319.640758 282.250128 
L 319.843769 301.444256 
L 320.04678 277.560908 
L 320.24979 293.106065 
L 320.452801 293.713443 
L 320.655811 299.091298 
L 320.858822 286.101836 
L 321.061833 295.081285 
L 321.264843 285.586799 
L 321.467854 286.553472 
L 321.670864 299.886762 
L 321.873875 294.374667 
L 322.076885 294.207456 
L 322.279896 287.96514 
L 322.685917 301.969812 
L 322.888928 285.347738 
L 323.091938 302.232547 
L 323.294949 278.895246 
L 323.49796 284.343408 
L 323.70097 300.458614 
L 324.106991 291.797627 
L 324.310002 291.834038 
L 324.513013 294.38898 
L 324.716023 289.287516 
L 325.122044 297.566131 
L 325.325055 285.833692 
L 325.731076 294.168512 
L 325.934087 290.272084 
L 326.137097 294.106139 
L 326.340108 294.90948 
L 326.543119 292.158528 
L 326.746129 291.847459 
L 326.94914 294.602871 
L 327.15215 294.104312 
L 327.355161 292.276761 
L 327.558172 295.008571 
L 327.964193 290.44439 
L 328.167203 292.445689 
L 328.370214 291.501271 
L 328.573225 293.220787 
L 328.776235 288.209007 
L 328.979246 294.295337 
L 329.182256 293.964106 
L 329.385267 292.405036 
L 329.588278 298.504764 
L 329.791288 287.848952 
L 329.994299 289.578823 
L 330.197309 287.578222 
L 330.806341 297.802951 
L 331.009352 283.505183 
L 331.212362 291.218947 
L 331.415373 286.686599 
L 331.618384 287.76713 
L 331.821394 297.286856 
L 332.024405 294.223204 
L 332.227415 284.202959 
L 332.430426 293.270948 
L 332.633436 291.686339 
L 332.836447 293.704648 
L 333.039458 290.482471 
L 333.242468 291.062076 
L 333.648489 296.267805 
L 333.8515 284.402795 
L 334.257521 294.935176 
L 334.460532 294.64615 
L 334.663542 291.434178 
L 334.866553 296.916008 
L 335.069564 283.241335 
L 335.272574 295.702051 
L 335.475585 287.448112 
L 335.678595 300.563208 
L 335.881606 277.504022 
L 336.084617 292.578001 
L 336.287627 290.713231 
L 336.490638 294.513148 
L 336.693648 290.7309 
L 336.896659 291.249158 
L 337.09967 294.472715 
L 337.30268 288.34603 
L 337.505691 297.060431 
L 337.708701 290.913373 
L 337.911712 297.333466 
L 338.114723 289.541283 
L 338.317733 294.321378 
L 338.520744 290.309499 
L 338.723754 291.199373 
L 338.926765 292.692354 
L 339.129776 291.012338 
L 339.332786 294.875758 
L 339.535797 293.161204 
L 339.738807 295.294658 
L 339.941818 288.099874 
L 340.144829 294.218046 
L 340.347839 290.978804 
L 340.55085 297.671587 
L 340.75386 285.637972 
L 340.956871 295.440821 
L 341.362892 279.694606 
L 341.565903 298.455779 
L 341.768913 292.239817 
L 341.971924 296.491934 
L 342.174935 294.62696 
L 342.377945 291.082872 
L 342.580956 297.866955 
L 342.783966 287.202419 
L 342.986977 296.048474 
L 343.189987 283.663685 
L 343.392998 291.386769 
L 343.799019 287.246724 
L 344.00203 293.793431 
L 344.20504 288.195869 
L 344.408051 296.104059 
L 344.611062 286.289451 
L 344.814072 297.103952 
L 345.017083 289.474276 
L 345.220093 296.484471 
L 345.423104 288.365917 
L 345.626115 293.740644 
L 345.829125 290.483835 
L 346.032136 295.692417 
L 346.235146 284.671056 
L 346.438157 293.763181 
L 346.641168 292.78867 
L 346.844178 293.598087 
L 347.047189 298.746851 
L 347.250199 290.140234 
L 347.45321 293.125992 
L 347.656221 292.987118 
L 348.062242 289.424829 
L 348.265252 291.804055 
L 348.671274 289.457337 
L 349.077295 296.960243 
L 349.280305 289.589672 
L 349.483316 289.565685 
L 349.686327 292.107019 
L 349.889337 303.131021 
L 350.092348 282.738128 
L 350.295358 300.122704 
L 350.498369 287.697231 
L 350.70138 288.95409 
L 350.90439 294.203591 
L 351.107401 292.131492 
L 351.310411 292.145084 
L 351.513422 279.870392 
L 351.716433 302.246634 
L 351.919443 298.330098 
L 352.122454 284.246457 
L 352.325464 292.021967 
L 352.528475 289.702881 
L 352.731486 294.134351 
L 352.934496 292.053871 
L 353.137507 291.77375 
L 353.340517 290.434113 
L 353.543528 288.016218 
L 353.746538 295.419084 
L 353.949549 292.21514 
L 354.15256 291.17247 
L 354.35557 289.060949 
L 354.558581 296.92358 
L 354.761591 291.851574 
L 354.964602 292.124468 
L 355.167613 290.03974 
L 355.370623 295.565789 
L 355.776644 289.057931 
L 355.979655 288.908107 
L 356.182666 293.443716 
L 356.385676 294.913282 
L 356.588687 290.620082 
L 356.791697 290.052055 
L 356.994708 292.239809 
L 357.197719 289.592737 
L 357.60374 298.786492 
L 357.80675 285.81335 
L 358.212772 294.989523 
L 358.415782 287.171793 
L 358.618793 297.676479 
L 358.821803 296.41679 
L 359.024814 281.335702 
L 359.227825 295.666149 
L 359.430835 289.873149 
L 359.633846 279.831057 
L 359.836856 303.624893 
L 360.039867 291.6847 
L 360.242878 289.659744 
L 360.445888 295.687628 
L 360.648899 289.688301 
L 360.851909 292.536071 
L 361.05492 292.384648 
L 361.257931 290.926252 
L 361.663952 295.83561 
L 361.866962 284.530263 
L 362.069973 290.759073 
L 362.272984 291.345709 
L 362.475994 297.114386 
L 362.679005 288.79043 
L 362.882015 292.623905 
L 363.085026 293.080087 
L 363.288037 295.609514 
L 363.491047 292.92857 
L 363.694058 284.623185 
L 363.897068 297.819648 
L 364.100079 290.17674 
L 364.303089 296.898088 
L 364.5061 295.339755 
L 364.709111 287.448449 
L 364.912121 303.235992 
L 365.115132 283.565394 
L 365.318142 285.356039 
L 365.521153 299.476014 
L 365.724164 300.925787 
L 365.927174 285.586133 
L 366.130185 295.494588 
L 366.333195 289.764408 
L 366.536206 297.393089 
L 366.739217 288.880593 
L 366.942227 293.652018 
L 367.145238 291.411164 
L 367.348248 283.058408 
L 367.551259 294.853299 
L 367.75427 291.995723 
L 367.95728 293.883233 
L 368.160291 296.924043 
L 368.363301 290.31421 
L 368.566312 291.943265 
L 368.769323 290.455662 
L 368.972333 294.818354 
L 369.175344 290.584736 
L 369.378354 294.876181 
L 369.581365 293.664121 
L 369.784376 290.428618 
L 369.987386 294.666609 
L 370.190397 295.804944 
L 370.393407 287.042593 
L 370.596418 297.771886 
L 370.799429 287.761557 
L 371.002439 293.950334 
L 371.20545 287.629159 
L 371.40846 289.125322 
L 371.611471 298.322942 
L 371.814482 289.967184 
L 372.220503 294.130792 
L 372.423513 293.753469 
L 372.626524 284.480165 
L 372.829535 301.19444 
L 373.032545 291.48985 
L 373.235556 293.44305 
L 373.438566 298.621429 
L 373.641577 288.764327 
L 373.844588 294.557116 
L 374.047598 294.075599 
L 374.453619 294.335206 
L 374.65663 287.186702 
L 374.859641 298.61352 
L 375.265662 286.780547 
L 375.468672 282.348811 
L 375.671683 296.893126 
L 375.874693 284.626281 
L 376.077704 301.371637 
L 376.280715 287.32262 
L 376.686736 298.605227 
L 376.889746 288.977136 
L 377.092757 288.070337 
L 377.295768 296.967454 
L 377.498778 295.400036 
L 377.701789 283.112723 
L 377.904799 295.97464 
L 378.10781 291.70331 
L 378.310821 301.046152 
L 378.513831 283.25082 
L 378.716842 293.784173 
L 378.919852 291.732016 
L 379.122863 288.114807 
L 379.325874 298.142515 
L 379.528884 288.38872 
L 379.731895 299.137971 
L 380.137916 290.091437 
L 380.340927 288.764092 
L 380.543937 296.152174 
L 380.746948 290.676004 
L 380.949958 292.363044 
L 381.152969 285.380105 
L 381.35598 294.448681 
L 381.55899 284.908315 
L 381.762001 300.831485 
L 381.965011 292.411746 
L 382.371033 293.59499 
L 382.574043 282.946877 
L 382.980064 297.865552 
L 383.183075 291.998968 
L 383.589096 294.925989 
L 383.792107 289.815564 
L 383.995117 296.374602 
L 384.198128 283.843164 
L 384.401139 291.468419 
L 384.604149 294.615743 
L 384.80716 290.376874 
L 385.01017 294.248069 
L 385.213181 293.82064 
L 385.416192 286.308554 
L 385.619202 294.074956 
L 385.822213 290.778246 
L 386.025223 279.904005 
L 386.228234 301.326517 
L 386.431244 296.709517 
L 386.634255 282.713749 
L 386.837266 296.042462 
L 387.040276 288.499389 
L 387.243287 298.164824 
L 387.446297 287.328868 
L 387.649308 290.620497 
L 387.852319 296.11084 
L 388.055329 294.125461 
L 388.25834 283.924986 
L 388.46135 297.916175 
L 388.664361 285.893675 
L 388.867372 292.106478 
L 389.070382 291.579095 
L 389.273393 295.658216 
L 389.476403 289.358685 
L 389.679414 295.183676 
L 389.882425 291.818651 
L 390.085435 283.044643 
L 390.288446 303.593443 
L 390.491456 288.513421 
L 390.694467 299.284895 
L 390.897478 294.140504 
L 391.100488 291.902174 
L 391.303499 294.988292 
L 391.506509 291.014439 
L 391.70952 284.444639 
L 391.912531 299.398213 
L 392.115541 293.396307 
L 392.318552 293.21595 
L 392.724573 289.791719 
L 392.927584 294.924162 
L 393.130594 289.011995 
L 393.333605 295.754681 
L 393.536615 288.666615 
L 393.739626 297.454671 
L 393.942637 287.071612 
L 394.145647 289.366406 
L 394.551668 299.796654 
L 394.754679 287.954267 
L 395.1607 291.878932 
L 395.363711 285.594262 
L 395.566721 295.756445 
L 395.769732 293.856307 
L 395.972743 289.643933 
L 396.175753 292.978033 
L 396.378764 292.045186 
L 396.581774 299.907425 
L 396.784785 284.383425 
L 396.987795 299.185584 
L 397.190806 287.127158 
L 397.393817 289.063779 
L 397.596827 294.992815 
L 397.799838 295.809185 
L 398.002848 283.162022 
L 398.205859 278.893381 
L 398.40887 302.549331 
L 398.61188 292.871911 
L 398.814891 293.374429 
L 399.017901 296.045495 
L 399.423923 285.614173 
L 399.626933 299.359709 
L 399.829944 290.866418 
L 400.032954 291.36442 
L 400.235965 292.630482 
L 400.438976 290.65966 
L 400.641986 291.243012 
L 400.844997 296.875442 
L 401.048007 282.335728 
L 401.251018 299.805598 
L 401.657039 291.472479 
L 401.86005 299.874228 
L 402.06306 284.969239 
L 402.266071 292.713009 
L 402.469082 292.69001 
L 402.672092 296.068008 
L 402.875103 289.715384 
L 403.078113 288.975639 
L 403.281124 293.761511 
L 403.484135 292.365748 
L 403.687145 294.521504 
L 403.890156 299.641453 
L 404.093166 283.686888 
L 404.296177 295.883239 
L 404.499188 290.261243 
L 404.702198 287.912784 
L 404.905209 294.160619 
L 405.108219 291.173834 
L 405.31123 294.652303 
L 405.514241 286.497189 
L 405.717251 297.642388 
L 405.920262 287.091625 
L 406.123272 297.380774 
L 406.326283 282.814337 
L 406.529294 290.783263 
L 406.732304 286.845234 
L 406.935315 296.569476 
L 407.138325 298.849595 
L 407.341336 286.728051 
L 407.544346 287.816092 
L 407.747357 300.804692 
L 407.950368 301.926613 
L 408.153378 287.450668 
L 408.356389 305.449238 
L 408.559399 275.861123 
L 408.76241 288.135886 
L 408.965421 292.543039 
L 409.168431 286.340788 
L 409.371442 294.653048 
L 409.574452 294.407425 
L 409.777463 288.3535 
L 409.980474 287.237576 
L 410.183484 301.128664 
L 410.386495 293.223852 
L 410.589505 294.663379 
L 410.792516 296.999515 
L 410.995527 287.853585 
L 411.198537 296.218875 
L 411.401548 288.847278 
L 411.604558 297.968453 
L 411.807569 279.125505 
L 412.21359 295.304182 
L 412.416601 293.821149 
L 412.619611 290.273651 
L 412.822622 289.630003 
L 413.025633 296.005674 
L 413.228643 298.474655 
L 413.431654 287.451083 
L 413.837675 295.180266 
L 414.040686 292.166633 
L 414.243696 291.030383 
L 414.446707 294.223102 
L 414.852728 283.769941 
L 415.055739 295.192298 
L 415.258749 291.813054 
L 415.46176 293.467554 
L 415.66477 298.172224 
L 415.867781 286.866391 
L 416.070792 290.435344 
L 416.273802 292.010185 
L 416.476813 284.113737 
L 416.679823 297.432275 
L 416.882834 298.196893 
L 417.085845 283.224584 
L 417.288855 284.989236 
L 417.694876 300.83785 
L 417.897887 282.210988 
L 418.100897 298.185401 
L 418.303908 288.689818 
L 418.506919 286.266052 
L 418.709929 298.428578 
L 418.91294 282.134889 
L 419.11595 302.994907 
L 419.521972 289.719664 
L 419.724982 290.211144 
L 419.927993 293.00474 
L 420.131003 285.45912 
L 420.334014 300.134603 
L 420.537025 297.925653 
L 420.740035 286.697315 
L 420.943046 292.329642 
L 421.146056 293.90127 
L 421.349067 290.599097 
L 421.552078 290.119187 
L 421.958099 296.243019 
L 422.161109 295.963556 
L 422.36412 289.904567 
L 422.567131 294.21582 
L 422.770141 283.956717 
L 422.973152 295.817188 
L 423.176162 285.701231 
L 423.379173 295.602576 
L 423.582184 289.98051 
L 423.785194 291.199906 
L 423.988205 290.486884 
L 424.191215 294.387248 
L 424.394226 292.035983 
L 424.597237 297.652225 
L 424.800247 287.749211 
L 425.003258 301.365891 
L 425.206268 279.699975 
L 425.409279 284.813418 
L 425.61229 298.642728 
L 425.8153 286.934534 
L 426.018311 298.157628 
L 426.221321 285.554496 
L 426.424332 300.203021 
L 426.627343 291.106303 
L 426.830353 296.34044 
L 427.033364 288.534852 
L 427.236374 298.064926 
L 427.439385 288.596936 
L 427.642396 297.688903 
L 427.845406 294.374447 
L 428.048417 288.009202 
L 428.251427 296.147236 
L 428.454438 293.440259 
L 428.657448 296.449557 
L 428.860459 288.326958 
L 429.06347 289.852109 
L 429.26648 296.674634 
L 429.469491 289.577326 
L 429.672501 292.883387 
L 429.875512 293.607917 
L 430.078523 288.265407 
L 430.281533 296.852059 
L 430.484544 288.970865 
L 430.890565 294.82573 
L 431.093576 294.256206 
L 431.499597 283.130839 
L 431.702607 296.73145 
L 431.905618 295.436212 
L 432.108629 284.144035 
L 432.51465 295.685072 
L 432.71766 291.618987 
L 433.123682 296.788862 
L 433.326692 291.464664 
L 433.529703 292.071626 
L 433.935724 297.430762 
L 434.138735 289.74855 
L 434.341745 295.218182 
L 434.544756 287.963102 
L 434.950777 290.693524 
L 435.153788 294.837269 
L 435.356798 290.742172 
L 435.559809 303.255283 
L 435.762819 287.7536 
L 435.96583 296.028516 
L 436.168841 288.973279 
L 436.371851 290.330091 
L 436.574862 294.844269 
L 436.777872 285.336332 
L 436.980883 293.109326 
L 437.386904 291.62761 
L 437.792925 289.252068 
L 437.995936 293.224667 
L 438.198947 288.705112 
L 438.401957 297.693411 
L 438.604968 281.732269 
L 439.010989 294.315648 
L 439.213999 287.181458 
L 439.41701 296.311279 
L 439.620021 296.856574 
L 439.823031 288.737228 
L 440.026042 289.387539 
L 440.432063 299.509885 
L 440.635074 286.453479 
L 440.838084 294.379103 
L 441.041095 290.430389 
L 441.244105 290.683365 
L 441.447116 296.749707 
L 441.650127 288.080316 
L 441.853137 296.122339 
L 442.259158 289.053596 
L 442.86819 296.974117 
L 443.071201 288.269797 
L 443.274211 298.56321 
L 443.477222 287.674726 
L 443.680233 288.86018 
L 443.883243 296.891229 
L 444.086254 288.589944 
L 444.289264 298.232324 
L 444.492275 295.677147 
L 444.695286 289.327964 
L 444.898296 289.420243 
L 445.101307 297.75243 
L 445.304317 289.787407 
L 445.507328 293.847253 
L 445.710339 285.729067 
L 445.913349 295.371165 
L 446.11636 287.280572 
L 446.31937 298.816303 
L 446.522381 296.535972 
L 446.725392 289.137864 
L 446.928402 290.276622 
L 447.131413 294.582138 
L 447.334423 303.583308 
L 447.537434 282.5494 
L 447.943455 297.060274 
L 448.349476 289.099046 
L 448.552487 296.057042 
L 448.755498 285.421846 
L 448.958508 285.673678 
L 449.161519 297.87996 
L 449.364529 300.039479 
L 449.56754 285.823846 
L 449.770551 288.110425 
L 449.973561 294.774127 
L 450.176572 289.802035 
L 450.379582 294.500833 
L 450.582593 283.713235 
L 450.785603 301.434858 
L 451.191625 290.279578 
L 451.394635 302.45209 
L 451.597646 280.852538 
L 451.800656 295.595835 
L 452.003667 290.618514 
L 452.206678 295.059038 
L 452.612699 286.402911 
L 452.815709 298.750731 
L 453.01872 299.07566 
L 453.221731 287.794151 
L 453.424741 293.859944 
L 453.627752 290.551382 
L 454.033773 294.350578 
L 454.236784 284.863555 
L 454.439794 303.640508 
L 454.642805 291.673632 
L 454.845815 295.223622 
L 455.048826 287.761102 
L 455.251837 300.402253 
L 455.454847 291.449315 
L 455.657858 292.703854 
L 455.860868 295.833595 
L 456.063879 286.758708 
L 456.26689 295.240844 
L 456.4699 292.712155 
L 456.672911 300.536321 
L 456.875921 286.017247 
L 457.078932 293.423421 
L 457.281943 287.404709 
L 457.484953 288.744816 
L 457.687964 300.132581 
L 457.890974 288.679126 
L 458.093985 295.130411 
L 458.296996 290.026845 
L 458.500006 295.061256 
L 458.703017 294.721167 
L 458.906027 290.127182 
L 459.109038 295.372663 
L 459.312049 283.219575 
L 459.515059 292.153205 
L 459.71807 295.798132 
L 459.92108 291.825173 
L 460.124091 295.550918 
L 460.124091 295.550918 
" style="fill:none;stroke:#4c72b0;stroke-linecap:round;stroke-width:1.75;"/>
   </g>
   <g id="patch_3">
    <path d="M 34.015 320.87625 
L 34.015 21.89625 
" style="fill:none;"/>
   </g>
   <g id="patch_4">
    <path d="M 480.415 320.87625 
L 480.415 21.89625 
" style="fill:none;"/>
   </g>
   <g id="patch_5">
    <path d="M 34.015 320.87625 
L 480.415 320.87625 
" style="fill:none;"/>
   </g>
   <g id="patch_6">
    <path d="M 34.015 21.89625 
L 480.415 21.89625 
" style="fill:none;"/>
   </g>
   <g id="text_16">
    <!-- ELBO loss over training -->
    <defs>
     <path d="M 6.734375 0 
L 6.734375 72.46875 
L 15.53125 72.46875 
L 15.53125 0 
z
" id="LiberationSans-6c"/>
     <path d="M 29.9375 0 
L 19.53125 0 
L 0.34375 52.828125 
L 9.71875 52.828125 
L 21.34375 18.453125 
Q 21.6875 17.390625 22.140625 15.84375 
Q 22.609375 14.3125 23.09375 12.640625 
Q 23.578125 10.984375 24 9.4375 
Q 24.421875 7.90625 24.703125 6.890625 
Q 25 7.90625 25.453125 9.4375 
Q 25.921875 10.984375 26.40625 12.59375 
Q 26.90625 14.203125 27.421875 15.734375 
Q 27.9375 17.28125 28.328125 18.359375 
L 40.328125 52.828125 
L 49.65625 52.828125 
z
" id="LiberationSans-76"/>
    </defs>
    <g style="fill:#262626;" transform="translate(194.18875 15.89625)scale(0.12 -0.12)">
     <use xlink:href="#LiberationSans-45"/>
     <use x="66.699219" xlink:href="#LiberationSans-4c"/>
     <use x="122.314453" xlink:href="#LiberationSans-42"/>
     <use x="189.013672" xlink:href="#LiberationSans-4f"/>
     <use x="266.796875" xlink:href="#LiberationSans-20"/>
     <use x="294.580078" xlink:href="#LiberationSans-6c"/>
     <use x="316.796875" xlink:href="#LiberationSans-6f"/>
     <use x="372.412109" xlink:href="#LiberationSans-73"/>
     <use x="422.412109" xlink:href="#LiberationSans-73"/>
     <use x="472.412109" xlink:href="#LiberationSans-20"/>
     <use x="500.195312" xlink:href="#LiberationSans-6f"/>
     <use x="555.810547" xlink:href="#LiberationSans-76"/>
     <use x="605.810547" xlink:href="#LiberationSans-65"/>
     <use x="661.425781" xlink:href="#LiberationSans-72"/>
     <use x="694.726562" xlink:href="#LiberationSans-20"/>
     <use x="722.509766" xlink:href="#LiberationSans-74"/>
     <use x="750.292969" xlink:href="#LiberationSans-72"/>
     <use x="783.59375" xlink:href="#LiberationSans-61"/>
     <use x="839.208984" xlink:href="#LiberationSans-69"/>
     <use x="861.425781" xlink:href="#LiberationSans-6e"/>
     <use x="917.041016" xlink:href="#LiberationSans-69"/>
     <use x="939.257812" xlink:href="#LiberationSans-6e"/>
     <use x="994.873047" xlink:href="#LiberationSans-67"/>
    </g>
   </g>
  </g>
 </g>
 <defs>
  <clipPath id="pda4141ad63">
   <rect height="298.98" width="446.4" x="34.015" y="21.89625"/>
  </clipPath>
 </defs>
</svg>
