<?xml version="1.0" encoding="utf-8" standalone="no"?>
<!DOCTYPE svg PUBLIC "-//W3C//DTD SVG 1.1//EN"
  "http://www.w3.org/Graphics/SVG/1.1/DTD/svg11.dtd">
<!-- Created with matplotlib (https://matplotlib.org/) -->
<svg version="1.1" viewBox="0 0 389.192187 257.985938" xmlns="http://www.w3.org/2000/svg" xmlns:xlink="http://www.w3.org/1999/xlink">
 <defs>
  <style type="text/css">
*{stroke-linecap:butt;stroke-linejoin:round;}
  </style>
 </defs>
 <g id="figure_1">
  <g id="patch_1">
   <path d="M 0 257.985938 
L 389.192187 257.985938 
L 389.192187 0 
L 0 0 
z
" style="fill:#ffffff;"/>
  </g>
  <g id="axes_1">
   <g id="patch_2">
    <path d="M 41.192188 60.469565 
L 193.374006 60.469565 
L 193.374006 13.2 
L 41.192188 13.2 
z
" style="fill:#eaeaf2;"/>
   </g>
   <g id="matplotlib.axis_1">
    <g id="xtick_1">
     <g id="line2d_1">
      <path clip-path="url(#p0c44cc8c73)" d="M 65.653977 60.469565 
L 65.653977 13.2 
" style="fill:none;stroke:#ffffff;stroke-linecap:round;"/>
     </g>
    </g>
    <g id="xtick_2">
     <g id="line2d_2">
      <path clip-path="url(#p0c44cc8c73)" d="M 122.33418 60.469565 
L 122.33418 13.2 
" style="fill:none;stroke:#ffffff;stroke-linecap:round;"/>
     </g>
    </g>
    <g id="xtick_3">
     <g id="line2d_3">
      <path clip-path="url(#p0c44cc8c73)" d="M 179.014383 60.469565 
L 179.014383 13.2 
" style="fill:none;stroke:#ffffff;stroke-linecap:round;"/>
     </g>
    </g>
   </g>
   <g id="matplotlib.axis_2">
    <g id="ytick_1">
     <g id="line2d_4">
      <path clip-path="url(#p0c44cc8c73)" d="M 41.192188 60.469565 
L 193.374006 60.469565 
" style="fill:none;stroke:#ffffff;stroke-linecap:round;"/>
     </g>
     <g id="text_1">
      <!-- 0.00 -->
      <defs>
       <path d="M 31.78125 66.40625 
Q 24.171875 66.40625 20.328125 58.90625 
Q 16.5 51.421875 16.5 36.375 
Q 16.5 21.390625 20.328125 13.890625 
Q 24.171875 6.390625 31.78125 6.390625 
Q 39.453125 6.390625 43.28125 13.890625 
Q 47.125 21.390625 47.125 36.375 
Q 47.125 51.421875 43.28125 58.90625 
Q 39.453125 66.40625 31.78125 66.40625 
z
M 31.78125 74.21875 
Q 44.046875 74.21875 50.515625 64.515625 
Q 56.984375 54.828125 56.984375 36.375 
Q 56.984375 17.96875 50.515625 8.265625 
Q 44.046875 -1.421875 31.78125 -1.421875 
Q 19.53125 -1.421875 13.0625 8.265625 
Q 6.59375 17.96875 6.59375 36.375 
Q 6.59375 54.828125 13.0625 64.515625 
Q 19.53125 74.21875 31.78125 74.21875 
z
" id="DejaVuSans-48"/>
       <path d="M 10.6875 12.40625 
L 21 12.40625 
L 21 0 
L 10.6875 0 
z
" id="DejaVuSans-46"/>
      </defs>
      <g style="fill:#262626;" transform="translate(7.2 64.648706)scale(0.11 -0.11)">
       <use xlink:href="#DejaVuSans-48"/>
       <use x="63.623047" xlink:href="#DejaVuSans-46"/>
       <use x="95.410156" xlink:href="#DejaVuSans-48"/>
       <use x="159.033203" xlink:href="#DejaVuSans-48"/>
      </g>
     </g>
    </g>
    <g id="ytick_2">
     <g id="line2d_5">
      <path clip-path="url(#p0c44cc8c73)" d="M 41.192188 32.842187 
L 193.374006 32.842187 
" style="fill:none;stroke:#ffffff;stroke-linecap:round;"/>
     </g>
     <g id="text_2">
      <!-- 0.25 -->
      <defs>
       <path d="M 19.1875 8.296875 
L 53.609375 8.296875 
L 53.609375 0 
L 7.328125 0 
L 7.328125 8.296875 
Q 12.9375 14.109375 22.625 23.890625 
Q 32.328125 33.6875 34.8125 36.53125 
Q 39.546875 41.84375 41.421875 45.53125 
Q 43.3125 49.21875 43.3125 52.78125 
Q 43.3125 58.59375 39.234375 62.25 
Q 35.15625 65.921875 28.609375 65.921875 
Q 23.96875 65.921875 18.8125 64.3125 
Q 13.671875 62.703125 7.8125 59.421875 
L 7.8125 69.390625 
Q 13.765625 71.78125 18.9375 73 
Q 24.125 74.21875 28.421875 74.21875 
Q 39.75 74.21875 46.484375 68.546875 
Q 53.21875 62.890625 53.21875 53.421875 
Q 53.21875 48.921875 51.53125 44.890625 
Q 49.859375 40.875 45.40625 35.40625 
Q 44.1875 33.984375 37.640625 27.21875 
Q 31.109375 20.453125 19.1875 8.296875 
z
" id="DejaVuSans-50"/>
       <path d="M 10.796875 72.90625 
L 49.515625 72.90625 
L 49.515625 64.59375 
L 19.828125 64.59375 
L 19.828125 46.734375 
Q 21.96875 47.46875 24.109375 47.828125 
Q 26.265625 48.1875 28.421875 48.1875 
Q 40.625 48.1875 47.75 41.5 
Q 54.890625 34.8125 54.890625 23.390625 
Q 54.890625 11.625 47.5625 5.09375 
Q 40.234375 -1.421875 26.90625 -1.421875 
Q 22.3125 -1.421875 17.546875 -0.640625 
Q 12.796875 0.140625 7.71875 1.703125 
L 7.71875 11.625 
Q 12.109375 9.234375 16.796875 8.0625 
Q 21.484375 6.890625 26.703125 6.890625 
Q 35.15625 6.890625 40.078125 11.328125 
Q 45.015625 15.765625 45.015625 23.390625 
Q 45.015625 31 40.078125 35.4375 
Q 35.15625 39.890625 26.703125 39.890625 
Q 22.75 39.890625 18.8125 39.015625 
Q 14.890625 38.140625 10.796875 36.28125 
z
" id="DejaVuSans-53"/>
      </defs>
      <g style="fill:#262626;" transform="translate(7.2 37.021327)scale(0.11 -0.11)">
       <use xlink:href="#DejaVuSans-48"/>
       <use x="63.623047" xlink:href="#DejaVuSans-46"/>
       <use x="95.410156" xlink:href="#DejaVuSans-50"/>
       <use x="159.033203" xlink:href="#DejaVuSans-53"/>
      </g>
     </g>
    </g>
   </g>
   <g id="PolyCollection_1">
    <defs>
     <path d="M 69.619559 -197.520599 
L 69.619559 -197.516372 
L 70.461998 -197.516372 
L 71.304436 -197.516372 
L 72.146875 -197.516372 
L 72.989313 -197.516372 
L 73.831752 -197.516372 
L 74.67419 -197.516372 
L 75.516629 -197.516372 
L 76.359068 -197.516372 
L 77.201506 -197.516372 
L 78.043945 -197.516372 
L 78.886383 -197.516372 
L 79.728822 -197.516372 
L 80.571261 -197.516372 
L 81.413699 -197.516372 
L 82.256138 -197.516372 
L 83.098576 -197.516372 
L 83.941015 -197.516372 
L 84.783453 -197.516372 
L 85.625892 -197.516372 
L 86.468331 -197.516372 
L 87.310769 -197.516372 
L 88.153208 -197.516372 
L 88.995646 -197.516372 
L 89.838085 -197.516372 
L 90.680523 -197.516372 
L 91.522962 -197.516372 
L 92.365401 -197.516372 
L 93.207839 -197.516372 
L 94.050278 -197.516372 
L 94.892716 -197.516372 
L 95.735155 -197.516372 
L 96.577594 -197.516372 
L 97.420032 -197.516372 
L 98.262471 -197.516372 
L 99.104909 -197.516372 
L 99.947348 -197.516372 
L 100.789786 -197.516372 
L 101.632225 -197.516372 
L 102.474664 -197.516372 
L 103.317102 -197.516372 
L 104.159541 -197.516372 
L 105.001979 -197.516372 
L 105.844418 -197.516372 
L 106.686857 -197.516372 
L 107.529295 -197.516372 
L 108.371734 -197.516372 
L 109.214172 -197.516372 
L 110.056611 -197.516372 
L 110.899049 -197.516372 
L 111.741488 -197.516372 
L 112.583927 -197.516372 
L 113.426365 -197.516372 
L 114.268804 -197.516372 
L 115.111242 -197.516372 
L 115.953681 -197.516372 
L 116.796119 -197.516372 
L 117.638558 -197.516372 
L 118.480997 -197.516372 
L 119.323435 -197.516372 
L 120.165874 -197.516372 
L 121.008312 -197.516372 
L 121.850751 -197.516372 
L 122.69319 -197.516372 
L 123.535628 -197.516372 
L 124.378067 -197.516372 
L 125.220505 -197.516372 
L 126.062944 -197.516372 
L 126.905382 -197.516372 
L 127.747821 -197.516372 
L 128.59026 -197.516372 
L 129.432698 -197.516372 
L 130.275137 -197.516372 
L 131.117575 -197.516372 
L 131.960014 -197.516372 
L 132.802453 -197.516372 
L 133.644891 -197.516372 
L 134.48733 -197.516372 
L 135.329768 -197.516372 
L 136.172207 -197.516372 
L 137.014645 -197.516372 
L 137.857084 -197.516372 
L 138.699523 -197.516372 
L 139.541961 -197.516372 
L 140.3844 -197.516372 
L 141.226838 -197.516372 
L 142.069277 -197.516372 
L 142.911716 -197.516372 
L 143.754154 -197.516372 
L 144.596593 -197.516372 
L 145.439031 -197.516372 
L 146.28147 -197.516372 
L 147.123908 -197.516372 
L 147.966347 -197.516372 
L 148.808786 -197.516372 
L 149.651224 -197.516372 
L 150.493663 -197.516372 
L 151.336101 -197.516372 
L 152.17854 -197.516372 
L 153.020978 -197.516372 
L 153.863417 -197.516372 
L 154.705856 -197.516372 
L 155.548294 -197.516372 
L 156.390733 -197.516372 
L 157.233171 -197.516372 
L 158.07561 -197.516372 
L 158.918049 -197.516372 
L 159.760487 -197.516372 
L 160.602926 -197.516372 
L 161.445364 -197.516372 
L 162.287803 -197.516372 
L 163.130241 -197.516372 
L 163.97268 -197.516372 
L 164.815119 -197.516372 
L 165.657557 -197.516372 
L 166.499996 -197.516372 
L 167.342434 -197.516372 
L 168.184873 -197.516372 
L 169.027312 -197.516372 
L 169.86975 -197.516372 
L 170.712189 -197.516372 
L 171.554627 -197.516372 
L 172.397066 -197.516372 
L 173.239504 -197.516372 
L 174.081943 -197.516372 
L 174.924382 -197.516372 
L 175.76682 -197.516372 
L 176.609259 -197.516372 
L 176.609259 -197.519642 
L 176.609259 -197.519642 
L 175.76682 -197.520339 
L 174.924382 -197.522691 
L 174.081943 -197.527044 
L 173.239504 -197.533972 
L 172.397066 -197.544121 
L 171.554627 -197.558027 
L 170.712189 -197.575922 
L 169.86975 -197.597594 
L 169.027312 -197.62236 
L 168.184873 -197.649199 
L 167.342434 -197.677041 
L 166.499996 -197.705119 
L 165.657557 -197.733268 
L 164.815119 -197.762041 
L 163.97268 -197.792607 
L 163.130241 -197.826495 
L 162.287803 -197.865327 
L 161.445364 -197.910712 
L 160.602926 -197.964385 
L 159.760487 -198.028568 
L 158.918049 -198.106426 
L 158.07561 -198.202422 
L 157.233171 -198.322415 
L 156.390733 -198.473405 
L 155.548294 -198.66292 
L 154.705856 -198.898133 
L 153.863417 -199.18487 
L 153.020978 -199.526716 
L 152.17854 -199.924441 
L 151.336101 -200.375893 
L 150.493663 -200.876427 
L 149.651224 -201.419795 
L 148.808786 -201.99936 
L 147.966347 -202.609514 
L 147.123908 -203.247204 
L 146.28147 -203.913521 
L 145.439031 -204.61516 
L 144.596593 -205.365387 
L 143.754154 -206.183848 
L 142.911716 -207.094602 
L 142.069277 -208.122082 
L 141.226838 -209.285409 
L 140.3844 -210.592283 
L 139.541961 -212.034171 
L 138.699523 -213.584426 
L 137.857084 -215.200232 
L 137.014645 -216.828134 
L 136.172207 -218.411906 
L 135.329768 -219.900783 
L 134.48733 -221.256165 
L 133.644891 -222.455376 
L 132.802453 -223.492026 
L 131.960014 -224.373518 
L 131.117575 -225.116923 
L 130.275137 -225.744727 
L 129.432698 -226.28157 
L 128.59026 -226.752363 
L 127.747821 -227.181449 
L 126.905382 -227.592099 
L 126.062944 -228.005867 
L 125.220505 -228.441722 
L 124.378067 -228.91518 
L 123.535628 -229.43739 
L 122.69319 -230.013657 
L 121.850751 -230.640627 
L 121.008312 -231.301966 
L 120.165874 -231.963698 
L 119.323435 -232.571765 
L 118.480997 -233.054756 
L 117.638558 -233.333424 
L 116.796119 -233.335921 
L 115.953681 -233.014703 
L 115.111242 -232.359462 
L 114.268804 -231.40112 
L 113.426365 -230.204939 
L 112.583927 -228.854763 
L 111.741488 -227.433696 
L 110.899049 -226.007577 
L 110.056611 -224.616098 
L 109.214172 -223.27307 
L 108.371734 -221.973834 
L 107.529295 -220.705582 
L 106.686857 -219.45627 
L 105.844418 -218.219486 
L 105.001979 -216.995044 
L 104.159541 -215.786913 
L 103.317102 -214.600679 
L 102.474664 -213.442006 
L 101.632225 -212.316321 
L 100.789786 -211.228972 
L 99.947348 -210.1849 
L 99.104909 -209.187511 
L 98.262471 -208.237239 
L 97.420032 -207.330789 
L 96.577594 -206.461836 
L 95.735155 -205.623206 
L 94.892716 -204.809717 
L 94.050278 -204.020493 
L 93.207839 -203.259764 
L 92.365401 -202.535907 
L 91.522962 -201.859216 
L 90.680523 -201.23937 
L 89.838085 -200.683514 
L 88.995646 -200.195426 
L 88.153208 -199.775694 
L 87.310769 -199.422412 
L 86.468331 -199.131794 
L 85.625892 -198.898382 
L 84.783453 -198.714885 
L 83.941015 -198.572042 
L 83.098576 -198.458964 
L 82.256138 -198.364197 
L 81.413699 -198.277337 
L 80.571261 -198.190715 
L 79.728822 -198.100509 
L 78.886383 -198.006884 
L 78.043945 -197.913109 
L 77.201506 -197.824014 
L 76.359068 -197.744325 
L 75.516629 -197.677405 
L 74.67419 -197.624662 
L 73.831752 -197.585623 
L 72.989313 -197.558469 
L 72.146875 -197.540717 
L 71.304436 -197.529837 
L 70.461998 -197.523664 
L 69.619559 -197.520599 
z
" id="m4f36bd8f3f" style="stroke:#ffffff;stroke-opacity:0.25;"/>
    </defs>
    <g clip-path="url(#p0c44cc8c73)">
     <use style="fill:#4c72b0;fill-opacity:0.25;stroke:#ffffff;stroke-opacity:0.25;" x="0" xlink:href="#m4f36bd8f3f" y="257.985938"/>
    </g>
   </g>
   <g id="line2d_6">
    <path clip-path="url(#p0c44cc8c73)" d="M 69.619559 60.465339 
L 74.67419 60.361276 
L 78.043945 60.072829 
L 84.783453 59.271053 
L 86.468331 58.854144 
L 88.153208 58.210243 
L 89.838085 57.302423 
L 91.522962 56.126722 
L 94.050278 53.965445 
L 96.577594 51.524102 
L 99.104909 48.798427 
L 101.632225 45.669616 
L 105.001979 40.990894 
L 109.214172 34.712868 
L 111.741488 30.552241 
L 113.426365 27.780998 
L 114.268804 26.584818 
L 115.111242 25.626475 
L 115.953681 24.971234 
L 116.796119 24.650017 
L 117.638558 24.652514 
L 118.480997 24.931182 
L 120.165874 26.02224 
L 123.535628 28.548547 
L 125.220505 29.544215 
L 130.275137 32.24121 
L 131.960014 33.612419 
L 133.644891 35.530562 
L 135.329768 38.085155 
L 137.014645 41.157803 
L 139.541961 45.951767 
L 141.226838 48.700528 
L 142.911716 50.891335 
L 144.596593 52.62055 
L 147.123908 54.738733 
L 149.651224 56.566143 
L 151.336101 57.610045 
L 153.020978 58.459221 
L 154.705856 59.087804 
L 156.390733 59.512533 
L 158.918049 59.879512 
L 163.130241 60.159442 
L 172.397066 60.441816 
L 176.609259 60.466296 
L 176.609259 60.466296 
" style="fill:none;stroke:#4c72b0;stroke-linecap:round;stroke-width:1.5;"/>
   </g>
   <g id="line2d_7">
    <path clip-path="url(#p0c44cc8c73)" d="M 109.243386 60.469565 
L 109.243386 13.2 
" style="fill:none;stroke:#4c72b0;stroke-linecap:round;stroke-width:1.5;"/>
   </g>
   <g id="patch_3">
    <path d="M 41.192188 60.469565 
L 41.192188 13.2 
" style="fill:none;stroke:#ffffff;stroke-linecap:square;stroke-linejoin:miter;stroke-width:1.25;"/>
   </g>
   <g id="patch_4">
    <path d="M 193.374006 60.469565 
L 193.374006 13.2 
" style="fill:none;stroke:#ffffff;stroke-linecap:square;stroke-linejoin:miter;stroke-width:1.25;"/>
   </g>
   <g id="patch_5">
    <path d="M 41.192188 60.469565 
L 193.374006 60.469565 
" style="fill:none;stroke:#ffffff;stroke-linecap:square;stroke-linejoin:miter;stroke-width:1.25;"/>
   </g>
   <g id="patch_6">
    <path d="M 41.192188 13.2 
L 193.374006 13.2 
" style="fill:none;stroke:#ffffff;stroke-linecap:square;stroke-linejoin:miter;stroke-width:1.25;"/>
   </g>
  </g>
  <g id="axes_2">
   <g id="patch_7">
    <path d="M 223.810369 60.469565 
L 375.992187 60.469565 
L 375.992187 13.2 
L 223.810369 13.2 
z
" style="fill:#eaeaf2;"/>
   </g>
   <g id="matplotlib.axis_3">
    <g id="xtick_4">
     <g id="line2d_8">
      <path clip-path="url(#p705a58d40d)" d="M 248.272159 60.469565 
L 248.272159 13.2 
" style="fill:none;stroke:#ffffff;stroke-linecap:round;"/>
     </g>
    </g>
    <g id="xtick_5">
     <g id="line2d_9">
      <path clip-path="url(#p705a58d40d)" d="M 304.952362 60.469565 
L 304.952362 13.2 
" style="fill:none;stroke:#ffffff;stroke-linecap:round;"/>
     </g>
    </g>
    <g id="xtick_6">
     <g id="line2d_10">
      <path clip-path="url(#p705a58d40d)" d="M 361.632565 60.469565 
L 361.632565 13.2 
" style="fill:none;stroke:#ffffff;stroke-linecap:round;"/>
     </g>
    </g>
   </g>
   <g id="matplotlib.axis_4">
    <g id="ytick_3">
     <g id="line2d_11">
      <path clip-path="url(#p705a58d40d)" d="M 223.810369 60.469565 
L 375.992187 60.469565 
" style="fill:none;stroke:#ffffff;stroke-linecap:round;"/>
     </g>
    </g>
    <g id="ytick_4">
     <g id="line2d_12">
      <path clip-path="url(#p705a58d40d)" d="M 223.810369 32.842187 
L 375.992187 32.842187 
" style="fill:none;stroke:#ffffff;stroke-linecap:round;"/>
     </g>
    </g>
   </g>
   <g id="PolyCollection_2">
    <defs>
     <path d="M 236.785005 -197.519634 
L 236.785005 -197.516372 
L 237.424361 -197.516372 
L 238.063717 -197.516372 
L 238.703074 -197.516372 
L 239.34243 -197.516372 
L 239.981786 -197.516372 
L 240.621143 -197.516372 
L 241.260499 -197.516372 
L 241.899855 -197.516372 
L 242.539212 -197.516372 
L 243.178568 -197.516372 
L 243.817924 -197.516372 
L 244.457281 -197.516372 
L 245.096637 -197.516372 
L 245.735993 -197.516372 
L 246.37535 -197.516372 
L 247.014706 -197.516372 
L 247.654062 -197.516372 
L 248.293419 -197.516372 
L 248.932775 -197.516372 
L 249.572131 -197.516372 
L 250.211488 -197.516372 
L 250.850844 -197.516372 
L 251.4902 -197.516372 
L 252.129556 -197.516372 
L 252.768913 -197.516372 
L 253.408269 -197.516372 
L 254.047625 -197.516372 
L 254.686982 -197.516372 
L 255.326338 -197.516372 
L 255.965694 -197.516372 
L 256.605051 -197.516372 
L 257.244407 -197.516372 
L 257.883763 -197.516372 
L 258.52312 -197.516372 
L 259.162476 -197.516372 
L 259.801832 -197.516372 
L 260.441189 -197.516372 
L 261.080545 -197.516372 
L 261.719901 -197.516372 
L 262.359258 -197.516372 
L 262.998614 -197.516372 
L 263.63797 -197.516372 
L 264.277327 -197.516372 
L 264.916683 -197.516372 
L 265.556039 -197.516372 
L 266.195396 -197.516372 
L 266.834752 -197.516372 
L 267.474108 -197.516372 
L 268.113465 -197.516372 
L 268.752821 -197.516372 
L 269.392177 -197.516372 
L 270.031533 -197.516372 
L 270.67089 -197.516372 
L 271.310246 -197.516372 
L 271.949602 -197.516372 
L 272.588959 -197.516372 
L 273.228315 -197.516372 
L 273.867671 -197.516372 
L 274.507028 -197.516372 
L 275.146384 -197.516372 
L 275.78574 -197.516372 
L 276.425097 -197.516372 
L 277.064453 -197.516372 
L 277.703809 -197.516372 
L 278.343166 -197.516372 
L 278.982522 -197.516372 
L 279.621878 -197.516372 
L 280.261235 -197.516372 
L 280.900591 -197.516372 
L 281.539947 -197.516372 
L 282.179304 -197.516372 
L 282.81866 -197.516372 
L 283.458016 -197.516372 
L 284.097373 -197.516372 
L 284.736729 -197.516372 
L 285.376085 -197.516372 
L 286.015442 -197.516372 
L 286.654798 -197.516372 
L 287.294154 -197.516372 
L 287.93351 -197.516372 
L 288.572867 -197.516372 
L 289.212223 -197.516372 
L 289.851579 -197.516372 
L 290.490936 -197.516372 
L 291.130292 -197.516372 
L 291.769648 -197.516372 
L 292.409005 -197.516372 
L 293.048361 -197.516372 
L 293.687717 -197.516372 
L 294.327074 -197.516372 
L 294.96643 -197.516372 
L 295.605786 -197.516372 
L 296.245143 -197.516372 
L 296.884499 -197.516372 
L 297.523855 -197.516372 
L 298.163212 -197.516372 
L 298.802568 -197.516372 
L 299.441924 -197.516372 
L 300.081281 -197.516372 
L 300.720637 -197.516372 
L 301.359993 -197.516372 
L 301.99935 -197.516372 
L 302.638706 -197.516372 
L 303.278062 -197.516372 
L 303.917419 -197.516372 
L 304.556775 -197.516372 
L 305.196131 -197.516372 
L 305.835487 -197.516372 
L 306.474844 -197.516372 
L 307.1142 -197.516372 
L 307.753556 -197.516372 
L 308.392913 -197.516372 
L 309.032269 -197.516372 
L 309.671625 -197.516372 
L 310.310982 -197.516372 
L 310.950338 -197.516372 
L 311.589694 -197.516372 
L 312.229051 -197.516372 
L 312.868407 -197.516372 
L 313.507763 -197.516372 
L 314.14712 -197.516372 
L 314.786476 -197.516372 
L 315.425832 -197.516372 
L 316.065189 -197.516372 
L 316.704545 -197.516372 
L 317.343901 -197.516372 
L 317.983258 -197.516372 
L 317.983258 -197.519549 
L 317.983258 -197.519549 
L 317.343901 -197.520905 
L 316.704545 -197.523979 
L 316.065189 -197.52933 
L 315.425832 -197.537718 
L 314.786476 -197.549972 
L 314.14712 -197.566799 
L 313.507763 -197.588578 
L 312.868407 -197.615206 
L 312.229051 -197.646072 
L 311.589694 -197.680256 
L 310.950338 -197.716964 
L 310.310982 -197.75614 
L 309.671625 -197.79912 
L 309.032269 -197.849131 
L 308.392913 -197.91144 
L 307.753556 -197.99306 
L 307.1142 -198.101968 
L 306.474844 -198.245963 
L 305.835487 -198.431352 
L 305.196131 -198.661774 
L 304.556775 -198.937513 
L 303.917419 -199.255617 
L 303.278062 -199.611041 
L 302.638706 -199.99876 
L 301.99935 -200.416479 
L 301.359993 -200.86724 
L 300.720637 -201.361034 
L 300.081281 -201.914645 
L 299.441924 -202.549369 
L 298.802568 -203.286876 
L 298.163212 -204.14421 
L 297.523855 -205.129292 
L 296.884499 -206.238264 
L 296.245143 -207.455439 
L 295.605786 -208.755789 
L 294.96643 -210.109146 
L 294.327074 -211.484957 
L 293.687717 -212.856575 
L 293.048361 -214.204595 
L 292.409005 -215.519159 
L 291.769648 -216.801347 
L 291.130292 -218.063567 
L 290.490936 -219.328527 
L 289.851579 -220.626235 
L 289.212223 -221.988743 
L 288.572867 -223.442973 
L 287.93351 -225.002882 
L 287.294154 -226.662907 
L 286.654798 -228.394866 
L 286.015442 -230.149961 
L 285.376085 -231.866197 
L 284.736729 -233.47985 
L 284.097373 -234.938072 
L 283.458016 -236.209116 
L 282.81866 -237.287237 
L 282.179304 -238.191031 
L 281.539947 -238.955953 
L 280.900591 -239.623413 
L 280.261235 -240.229453 
L 279.621878 -240.795724 
L 278.982522 -241.32451 
L 278.343166 -241.798509 
L 277.703809 -242.185046 
L 277.064453 -242.443622 
L 276.425097 -242.535006 
L 275.78574 -242.429724 
L 275.146384 -242.113894 
L 274.507028 -241.591108 
L 273.867671 -240.880271 
L 273.228315 -240.010565 
L 272.588959 -239.015477 
L 271.949602 -237.927701 
L 271.310246 -236.775921 
L 270.67089 -235.583298 
L 270.031533 -234.366753 
L 269.392177 -233.136077 
L 268.752821 -231.892663 
L 268.113465 -230.628594 
L 267.474108 -229.327476 
L 266.834752 -227.96808 
L 266.195396 -226.53081 
L 265.556039 -225.00547 
L 264.916683 -223.39776 
L 264.277327 -221.73184 
L 263.63797 -220.047423 
L 262.998614 -218.391785 
L 262.359258 -216.809 
L 261.719901 -215.329817 
L 261.080545 -213.965449 
L 260.441189 -212.707166 
L 259.801832 -211.531584 
L 259.162476 -210.409653 
L 258.52312 -209.316315 
L 257.883763 -208.237859 
L 257.244407 -207.17504 
L 256.605051 -206.141584 
L 255.965694 -205.159121 
L 255.326338 -204.250505 
L 254.686982 -203.433607 
L 254.047625 -202.717186 
L 253.408269 -202.099592 
L 252.768913 -201.570146 
L 252.129556 -201.112399 
L 251.4902 -200.708138 
L 250.850844 -200.341071 
L 250.211488 -199.999379 
L 249.572131 -199.676759 
L 248.932775 -199.371997 
L 248.293419 -199.087445 
L 247.654062 -198.827013 
L 247.014706 -198.59428 
L 246.37535 -198.391211 
L 245.735993 -198.217688 
L 245.096637 -198.071779 
L 244.457281 -197.950453 
L 243.817924 -197.850368 
L 243.178568 -197.768465 
L 242.539212 -197.702213 
L 241.899855 -197.64957 
L 241.260499 -197.608786 
L 240.621143 -197.578201 
L 239.981786 -197.556138 
L 239.34243 -197.540908 
L 238.703074 -197.530906 
L 238.063717 -197.524717 
L 237.424361 -197.521219 
L 236.785005 -197.519634 
z
" id="mb80a084daf" style="stroke:#ffffff;stroke-opacity:0.25;"/>
    </defs>
    <g clip-path="url(#p705a58d40d)">
     <use style="fill:#4c72b0;fill-opacity:0.25;stroke:#ffffff;stroke-opacity:0.25;" x="0" xlink:href="#mb80a084daf" y="257.985938"/>
    </g>
   </g>
   <g id="line2d_13">
    <path clip-path="url(#p705a58d40d)" d="M 236.785005 60.466304 
L 241.260499 60.377151 
L 243.817924 60.135569 
L 245.735993 59.768249 
L 247.654062 59.158925 
L 249.572131 58.309178 
L 251.4902 57.2778 
L 252.768913 56.415791 
L 254.047625 55.268751 
L 255.326338 53.735432 
L 256.605051 51.844354 
L 259.162476 47.576285 
L 261.080545 44.020489 
L 262.359258 41.176938 
L 267.474108 28.658462 
L 270.67089 22.40264 
L 272.588959 18.970461 
L 273.867671 17.105667 
L 274.507028 16.394829 
L 275.146384 15.872044 
L 275.78574 15.556214 
L 276.425097 15.450932 
L 277.064453 15.542316 
L 277.703809 15.800892 
L 278.982522 16.661428 
L 280.900591 18.362525 
L 282.179304 19.794907 
L 283.458016 21.776821 
L 284.736729 24.506088 
L 286.654798 29.591071 
L 288.572867 34.542965 
L 290.490936 38.657411 
L 293.687717 45.129362 
L 296.884499 51.747673 
L 298.163212 53.841728 
L 299.441924 55.436568 
L 300.720637 56.624904 
L 302.638706 57.987178 
L 304.556775 59.048425 
L 305.835487 59.554586 
L 307.1142 59.883969 
L 309.032269 60.136807 
L 313.507763 60.397359 
L 317.983258 60.466389 
L 317.983258 60.466389 
" style="fill:none;stroke:#4c72b0;stroke-linecap:round;stroke-width:1.5;"/>
   </g>
   <g id="line2d_14">
    <path clip-path="url(#p705a58d40d)" d="M 288.982907 60.469565 
L 288.982907 13.2 
" style="fill:none;stroke:#4c72b0;stroke-linecap:round;stroke-width:1.5;"/>
   </g>
   <g id="patch_8">
    <path d="M 223.810369 60.469565 
L 223.810369 13.2 
" style="fill:none;stroke:#ffffff;stroke-linecap:square;stroke-linejoin:miter;stroke-width:1.25;"/>
   </g>
   <g id="patch_9">
    <path d="M 375.992187 60.469565 
L 375.992187 13.2 
" style="fill:none;stroke:#ffffff;stroke-linecap:square;stroke-linejoin:miter;stroke-width:1.25;"/>
   </g>
   <g id="patch_10">
    <path d="M 223.810369 60.469565 
L 375.992187 60.469565 
" style="fill:none;stroke:#ffffff;stroke-linecap:square;stroke-linejoin:miter;stroke-width:1.25;"/>
   </g>
   <g id="patch_11">
    <path d="M 223.810369 13.2 
L 375.992187 13.2 
" style="fill:none;stroke:#ffffff;stroke-linecap:square;stroke-linejoin:miter;stroke-width:1.25;"/>
   </g>
  </g>
  <g id="axes_3">
   <g id="patch_12">
    <path d="M 41.192188 117.193043 
L 193.374006 117.193043 
L 193.374006 69.923478 
L 41.192188 69.923478 
z
" style="fill:#eaeaf2;"/>
   </g>
   <g id="matplotlib.axis_5">
    <g id="xtick_7">
     <g id="line2d_15">
      <path clip-path="url(#pdbf18ea115)" d="M 65.653977 117.193043 
L 65.653977 69.923478 
" style="fill:none;stroke:#ffffff;stroke-linecap:round;"/>
     </g>
    </g>
    <g id="xtick_8">
     <g id="line2d_16">
      <path clip-path="url(#pdbf18ea115)" d="M 122.33418 117.193043 
L 122.33418 69.923478 
" style="fill:none;stroke:#ffffff;stroke-linecap:round;"/>
     </g>
    </g>
    <g id="xtick_9">
     <g id="line2d_17">
      <path clip-path="url(#pdbf18ea115)" d="M 179.014383 117.193043 
L 179.014383 69.923478 
" style="fill:none;stroke:#ffffff;stroke-linecap:round;"/>
     </g>
    </g>
   </g>
   <g id="matplotlib.axis_6">
    <g id="ytick_5">
     <g id="line2d_18">
      <path clip-path="url(#pdbf18ea115)" d="M 41.192188 117.193043 
L 193.374006 117.193043 
" style="fill:none;stroke:#ffffff;stroke-linecap:round;"/>
     </g>
     <g id="text_3">
      <!-- 0.00 -->
      <g style="fill:#262626;" transform="translate(7.2 121.372184)scale(0.11 -0.11)">
       <use xlink:href="#DejaVuSans-48"/>
       <use x="63.623047" xlink:href="#DejaVuSans-46"/>
       <use x="95.410156" xlink:href="#DejaVuSans-48"/>
       <use x="159.033203" xlink:href="#DejaVuSans-48"/>
      </g>
     </g>
    </g>
    <g id="ytick_6">
     <g id="line2d_19">
      <path clip-path="url(#pdbf18ea115)" d="M 41.192188 89.565665 
L 193.374006 89.565665 
" style="fill:none;stroke:#ffffff;stroke-linecap:round;"/>
     </g>
     <g id="text_4">
      <!-- 0.25 -->
      <g style="fill:#262626;" transform="translate(7.2 93.744805)scale(0.11 -0.11)">
       <use xlink:href="#DejaVuSans-48"/>
       <use x="63.623047" xlink:href="#DejaVuSans-46"/>
       <use x="95.410156" xlink:href="#DejaVuSans-50"/>
       <use x="159.033203" xlink:href="#DejaVuSans-53"/>
      </g>
     </g>
    </g>
   </g>
   <g id="PolyCollection_3">
    <defs>
     <path d="M 48.109543 -140.796406 
L 48.109543 -140.792894 
L 48.876645 -140.792894 
L 49.643748 -140.792894 
L 50.41085 -140.792894 
L 51.177952 -140.792894 
L 51.945054 -140.792894 
L 52.712157 -140.792894 
L 53.479259 -140.792894 
L 54.246361 -140.792894 
L 55.013464 -140.792894 
L 55.780566 -140.792894 
L 56.547668 -140.792894 
L 57.314771 -140.792894 
L 58.081873 -140.792894 
L 58.848975 -140.792894 
L 59.616078 -140.792894 
L 60.38318 -140.792894 
L 61.150282 -140.792894 
L 61.917385 -140.792894 
L 62.684487 -140.792894 
L 63.451589 -140.792894 
L 64.218692 -140.792894 
L 64.985794 -140.792894 
L 65.752896 -140.792894 
L 66.519999 -140.792894 
L 67.287101 -140.792894 
L 68.054203 -140.792894 
L 68.821306 -140.792894 
L 69.588408 -140.792894 
L 70.35551 -140.792894 
L 71.122612 -140.792894 
L 71.889715 -140.792894 
L 72.656817 -140.792894 
L 73.423919 -140.792894 
L 74.191022 -140.792894 
L 74.958124 -140.792894 
L 75.725226 -140.792894 
L 76.492329 -140.792894 
L 77.259431 -140.792894 
L 78.026533 -140.792894 
L 78.793636 -140.792894 
L 79.560738 -140.792894 
L 80.32784 -140.792894 
L 81.094943 -140.792894 
L 81.862045 -140.792894 
L 82.629147 -140.792894 
L 83.39625 -140.792894 
L 84.163352 -140.792894 
L 84.930454 -140.792894 
L 85.697557 -140.792894 
L 86.464659 -140.792894 
L 87.231761 -140.792894 
L 87.998864 -140.792894 
L 88.765966 -140.792894 
L 89.533068 -140.792894 
L 90.30017 -140.792894 
L 91.067273 -140.792894 
L 91.834375 -140.792894 
L 92.601477 -140.792894 
L 93.36858 -140.792894 
L 94.135682 -140.792894 
L 94.902784 -140.792894 
L 95.669887 -140.792894 
L 96.436989 -140.792894 
L 97.204091 -140.792894 
L 97.971194 -140.792894 
L 98.738296 -140.792894 
L 99.505398 -140.792894 
L 100.272501 -140.792894 
L 101.039603 -140.792894 
L 101.806705 -140.792894 
L 102.573808 -140.792894 
L 103.34091 -140.792894 
L 104.108012 -140.792894 
L 104.875115 -140.792894 
L 105.642217 -140.792894 
L 106.409319 -140.792894 
L 107.176422 -140.792894 
L 107.943524 -140.792894 
L 108.710626 -140.792894 
L 109.477729 -140.792894 
L 110.244831 -140.792894 
L 111.011933 -140.792894 
L 111.779035 -140.792894 
L 112.546138 -140.792894 
L 113.31324 -140.792894 
L 114.080342 -140.792894 
L 114.847445 -140.792894 
L 115.614547 -140.792894 
L 116.381649 -140.792894 
L 117.148752 -140.792894 
L 117.915854 -140.792894 
L 118.682956 -140.792894 
L 119.450059 -140.792894 
L 120.217161 -140.792894 
L 120.984263 -140.792894 
L 121.751366 -140.792894 
L 122.518468 -140.792894 
L 123.28557 -140.792894 
L 124.052673 -140.792894 
L 124.819775 -140.792894 
L 125.586877 -140.792894 
L 126.35398 -140.792894 
L 127.121082 -140.792894 
L 127.888184 -140.792894 
L 128.655287 -140.792894 
L 129.422389 -140.792894 
L 130.189491 -140.792894 
L 130.956593 -140.792894 
L 131.723696 -140.792894 
L 132.490798 -140.792894 
L 133.2579 -140.792894 
L 134.025003 -140.792894 
L 134.792105 -140.792894 
L 135.559207 -140.792894 
L 136.32631 -140.792894 
L 137.093412 -140.792894 
L 137.860514 -140.792894 
L 138.627617 -140.792894 
L 139.394719 -140.792894 
L 140.161821 -140.792894 
L 140.928924 -140.792894 
L 141.696026 -140.792894 
L 142.463128 -140.792894 
L 143.230231 -140.792894 
L 143.997333 -140.792894 
L 144.764435 -140.792894 
L 145.531538 -140.792894 
L 145.531538 -140.796014 
L 145.531538 -140.796014 
L 144.764435 -140.79738 
L 143.997333 -140.800793 
L 143.230231 -140.806966 
L 142.463128 -140.816881 
L 141.696026 -140.831567 
L 140.928924 -140.851789 
L 140.161821 -140.877726 
L 139.394719 -140.908742 
L 138.627617 -140.943381 
L 137.860514 -140.97965 
L 137.093412 -141.015539 
L 136.32631 -141.049616 
L 135.559207 -141.081475 
L 134.792105 -141.111914 
L 134.025003 -141.14282 
L 133.2579 -141.176909 
L 132.490798 -141.217495 
L 131.723696 -141.268401 
L 130.956593 -141.334002 
L 130.189491 -141.419235 
L 129.422389 -141.529368 
L 128.655287 -141.669382 
L 127.888184 -141.843046 
L 127.121082 -142.051979 
L 126.35398 -142.295209 
L 125.586877 -142.569639 
L 124.819775 -142.871519 
L 124.052673 -143.198501 
L 123.28557 -143.551503 
L 122.518468 -143.935511 
L 121.751366 -144.358849 
L 120.984263 -144.831055 
L 120.217161 -145.360157 
L 119.450059 -145.950431 
L 118.682956 -146.601665 
L 117.915854 -147.310344 
L 117.148752 -148.072392 
L 116.381649 -148.886356 
L 115.614547 -149.755674 
L 114.847445 -150.689021 
L 114.080342 -151.69869 
L 113.31324 -152.797892 
L 112.546138 -153.998352 
L 111.779035 -155.309213 
L 111.011933 -156.73737 
L 110.244831 -158.288364 
L 109.477729 -159.966432 
L 108.710626 -161.772587 
L 107.943524 -163.700433 
L 107.176422 -165.730666 
L 106.409319 -167.826285 
L 105.642217 -169.931074 
L 104.875115 -171.973394 
L 104.108012 -173.875775 
L 103.34091 -175.568674 
L 102.573808 -177.004856 
L 101.806705 -178.170125 
L 101.039603 -179.086778 
L 100.272501 -179.808036 
L 99.505398 -180.404136 
L 98.738296 -180.943121 
L 97.971194 -181.471135 
L 97.204091 -181.997825 
L 96.436989 -182.491598 
L 95.669887 -182.886931 
L 94.902784 -183.102018 
L 94.135682 -183.061227 
L 93.36858 -182.714982 
L 92.601477 -182.050784 
L 91.834375 -181.092839 
L 91.067273 -179.892365 
L 90.30017 -178.513666 
L 89.533068 -177.021431 
L 88.765966 -175.472482 
L 87.998864 -173.912265 
L 87.231761 -172.37439 
L 86.464659 -170.881295 
L 85.697557 -169.445146 
L 84.930454 -168.069059 
L 84.163352 -166.748948 
L 83.39625 -165.475805 
L 82.629147 -164.237776 
L 81.862045 -163.021624 
L 81.094943 -161.813819 
L 80.32784 -160.601895 
L 79.560738 -159.376335 
L 78.793636 -158.13248 
L 78.026533 -156.871506 
L 77.259431 -155.599957 
L 76.492329 -154.328336 
L 75.725226 -153.069885 
L 74.958124 -151.84034 
L 74.191022 -150.658244 
L 73.423919 -149.544468 
L 72.656817 -148.519695 
L 71.889715 -147.599941 
L 71.122612 -146.791779 
L 70.35551 -146.089661 
L 69.588408 -145.477041 
L 68.821306 -144.931213 
L 68.054203 -144.430023 
L 67.287101 -143.957773 
L 66.519999 -143.508218 
L 65.752896 -143.084007 
L 64.985794 -142.69343 
L 64.218692 -142.346237 
L 63.451589 -142.050111 
L 62.684487 -141.808669 
L 61.917385 -141.620944 
L 61.150282 -141.481827 
L 60.38318 -141.382956 
L 59.616078 -141.313829 
L 58.848975 -141.263178 
L 58.081873 -141.220573 
L 57.314771 -141.178007 
L 56.547668 -141.131016 
L 55.780566 -141.078911 
L 55.013464 -141.024037 
L 54.246361 -140.970348 
L 53.479259 -140.921843 
L 52.712157 -140.881376 
L 51.945054 -140.850144 
L 51.177952 -140.8278 
L 50.41085 -140.812967 
L 49.643748 -140.803854 
L 48.876645 -140.798765 
L 48.109543 -140.796406 
z
" id="md93eb4fc1f" style="stroke:#ffffff;stroke-opacity:0.25;"/>
    </defs>
    <g clip-path="url(#pdbf18ea115)">
     <use style="fill:#4c72b0;fill-opacity:0.25;stroke:#ffffff;stroke-opacity:0.25;" x="0" xlink:href="#md93eb4fc1f" y="257.985938"/>
    </g>
   </g>
   <g id="line2d_20">
    <path clip-path="url(#pdbf18ea115)" d="M 48.109543 117.189532 
L 53.479259 117.064095 
L 61.150282 116.50411 
L 62.684487 116.177269 
L 64.218692 115.6397 
L 66.519999 114.477719 
L 68.821306 113.054724 
L 70.35551 111.896276 
L 71.889715 110.385997 
L 73.423919 108.441469 
L 75.725226 104.916052 
L 86.464659 87.104643 
L 91.834375 76.893098 
L 92.601477 75.935154 
L 93.36858 75.270955 
L 94.135682 74.924711 
L 94.902784 74.883919 
L 95.669887 75.099006 
L 97.204091 75.988112 
L 100.272501 78.177902 
L 101.039603 78.89916 
L 101.806705 79.815813 
L 102.573808 80.981082 
L 103.34091 82.417263 
L 104.875115 86.012544 
L 109.477729 98.019505 
L 111.011933 101.248567 
L 112.546138 103.987585 
L 114.080342 106.287248 
L 115.614547 108.230264 
L 117.915854 110.675593 
L 119.450059 112.035507 
L 120.984263 113.154882 
L 122.518468 114.050426 
L 124.819775 115.114419 
L 127.121082 115.933959 
L 129.422389 116.45657 
L 131.723696 116.717537 
L 137.093412 116.970399 
L 143.997333 117.185144 
L 145.531538 117.189923 
L 145.531538 117.189923 
" style="fill:none;stroke:#4c72b0;stroke-linecap:round;stroke-width:1.5;"/>
   </g>
   <g id="line2d_21">
    <path clip-path="url(#pdbf18ea115)" d="M 113.001703 117.193043 
L 113.001703 69.923478 
" style="fill:none;stroke:#4c72b0;stroke-linecap:round;stroke-width:1.5;"/>
   </g>
   <g id="patch_13">
    <path d="M 41.192188 117.193043 
L 41.192188 69.923478 
" style="fill:none;stroke:#ffffff;stroke-linecap:square;stroke-linejoin:miter;stroke-width:1.25;"/>
   </g>
   <g id="patch_14">
    <path d="M 193.374006 117.193043 
L 193.374006 69.923478 
" style="fill:none;stroke:#ffffff;stroke-linecap:square;stroke-linejoin:miter;stroke-width:1.25;"/>
   </g>
   <g id="patch_15">
    <path d="M 41.192188 117.193043 
L 193.374006 117.193043 
" style="fill:none;stroke:#ffffff;stroke-linecap:square;stroke-linejoin:miter;stroke-width:1.25;"/>
   </g>
   <g id="patch_16">
    <path d="M 41.192188 69.923478 
L 193.374006 69.923478 
" style="fill:none;stroke:#ffffff;stroke-linecap:square;stroke-linejoin:miter;stroke-width:1.25;"/>
   </g>
  </g>
  <g id="axes_4">
   <g id="patch_17">
    <path d="M 223.810369 117.193043 
L 375.992187 117.193043 
L 375.992187 69.923478 
L 223.810369 69.923478 
z
" style="fill:#eaeaf2;"/>
   </g>
   <g id="matplotlib.axis_7">
    <g id="xtick_10">
     <g id="line2d_22">
      <path clip-path="url(#pad30d22023)" d="M 248.272159 117.193043 
L 248.272159 69.923478 
" style="fill:none;stroke:#ffffff;stroke-linecap:round;"/>
     </g>
    </g>
    <g id="xtick_11">
     <g id="line2d_23">
      <path clip-path="url(#pad30d22023)" d="M 304.952362 117.193043 
L 304.952362 69.923478 
" style="fill:none;stroke:#ffffff;stroke-linecap:round;"/>
     </g>
    </g>
    <g id="xtick_12">
     <g id="line2d_24">
      <path clip-path="url(#pad30d22023)" d="M 361.632565 117.193043 
L 361.632565 69.923478 
" style="fill:none;stroke:#ffffff;stroke-linecap:round;"/>
     </g>
    </g>
   </g>
   <g id="matplotlib.axis_8">
    <g id="ytick_7">
     <g id="line2d_25">
      <path clip-path="url(#pad30d22023)" d="M 223.810369 117.193043 
L 375.992187 117.193043 
" style="fill:none;stroke:#ffffff;stroke-linecap:round;"/>
     </g>
    </g>
    <g id="ytick_8">
     <g id="line2d_26">
      <path clip-path="url(#pad30d22023)" d="M 223.810369 89.565665 
L 375.992187 89.565665 
" style="fill:none;stroke:#ffffff;stroke-linecap:round;"/>
     </g>
    </g>
   </g>
   <g id="PolyCollection_4">
    <defs>
     <path d="M 241.633563 -140.795697 
L 241.633563 -140.792894 
L 242.413124 -140.792894 
L 243.192686 -140.792894 
L 243.972247 -140.792894 
L 244.751809 -140.792894 
L 245.53137 -140.792894 
L 246.310932 -140.792894 
L 247.090493 -140.792894 
L 247.870055 -140.792894 
L 248.649616 -140.792894 
L 249.429178 -140.792894 
L 250.208739 -140.792894 
L 250.988301 -140.792894 
L 251.767862 -140.792894 
L 252.547424 -140.792894 
L 253.326985 -140.792894 
L 254.106547 -140.792894 
L 254.886108 -140.792894 
L 255.66567 -140.792894 
L 256.445231 -140.792894 
L 257.224793 -140.792894 
L 258.004354 -140.792894 
L 258.783916 -140.792894 
L 259.563477 -140.792894 
L 260.343039 -140.792894 
L 261.1226 -140.792894 
L 261.902162 -140.792894 
L 262.681723 -140.792894 
L 263.461285 -140.792894 
L 264.240846 -140.792894 
L 265.020408 -140.792894 
L 265.799969 -140.792894 
L 266.579531 -140.792894 
L 267.359092 -140.792894 
L 268.138654 -140.792894 
L 268.918215 -140.792894 
L 269.697777 -140.792894 
L 270.477338 -140.792894 
L 271.2569 -140.792894 
L 272.036461 -140.792894 
L 272.816023 -140.792894 
L 273.595584 -140.792894 
L 274.375146 -140.792894 
L 275.154707 -140.792894 
L 275.934269 -140.792894 
L 276.71383 -140.792894 
L 277.493392 -140.792894 
L 278.272953 -140.792894 
L 279.052515 -140.792894 
L 279.832076 -140.792894 
L 280.611638 -140.792894 
L 281.391199 -140.792894 
L 282.170761 -140.792894 
L 282.950322 -140.792894 
L 283.729884 -140.792894 
L 284.509445 -140.792894 
L 285.289007 -140.792894 
L 286.068568 -140.792894 
L 286.84813 -140.792894 
L 287.627691 -140.792894 
L 288.407253 -140.792894 
L 289.186814 -140.792894 
L 289.966376 -140.792894 
L 290.745937 -140.792894 
L 291.525499 -140.792894 
L 292.30506 -140.792894 
L 293.084622 -140.792894 
L 293.864183 -140.792894 
L 294.643745 -140.792894 
L 295.423306 -140.792894 
L 296.202868 -140.792894 
L 296.982429 -140.792894 
L 297.761991 -140.792894 
L 298.541552 -140.792894 
L 299.321114 -140.792894 
L 300.100675 -140.792894 
L 300.880237 -140.792894 
L 301.659798 -140.792894 
L 302.43936 -140.792894 
L 303.218921 -140.792894 
L 303.998483 -140.792894 
L 304.778044 -140.792894 
L 305.557606 -140.792894 
L 306.337167 -140.792894 
L 307.116729 -140.792894 
L 307.89629 -140.792894 
L 308.675852 -140.792894 
L 309.455413 -140.792894 
L 310.234975 -140.792894 
L 311.014536 -140.792894 
L 311.794098 -140.792894 
L 312.573659 -140.792894 
L 313.353221 -140.792894 
L 314.132782 -140.792894 
L 314.912344 -140.792894 
L 315.691905 -140.792894 
L 316.471467 -140.792894 
L 317.251028 -140.792894 
L 318.03059 -140.792894 
L 318.810151 -140.792894 
L 319.589713 -140.792894 
L 320.369274 -140.792894 
L 321.148836 -140.792894 
L 321.928397 -140.792894 
L 322.707959 -140.792894 
L 323.48752 -140.792894 
L 324.267082 -140.792894 
L 325.046643 -140.792894 
L 325.826205 -140.792894 
L 326.605766 -140.792894 
L 327.385328 -140.792894 
L 328.164889 -140.792894 
L 328.944451 -140.792894 
L 329.724012 -140.792894 
L 330.503574 -140.792894 
L 331.283135 -140.792894 
L 332.062697 -140.792894 
L 332.842258 -140.792894 
L 333.62182 -140.792894 
L 334.401381 -140.792894 
L 335.180943 -140.792894 
L 335.960504 -140.792894 
L 336.740066 -140.792894 
L 337.519627 -140.792894 
L 338.299189 -140.792894 
L 339.07875 -140.792894 
L 339.858312 -140.792894 
L 340.637873 -140.792894 
L 340.637873 -140.795799 
L 340.637873 -140.795799 
L 339.858312 -140.797328 
L 339.07875 -140.800708 
L 338.299189 -140.806724 
L 337.519627 -140.816485 
L 336.740066 -140.831326 
L 335.960504 -140.85265 
L 335.180943 -140.881705 
L 334.401381 -140.919367 
L 333.62182 -140.96599 
L 332.842258 -141.021381 
L 332.062697 -141.084928 
L 331.283135 -141.155831 
L 330.503574 -141.233357 
L 329.724012 -141.317043 
L 328.944451 -141.406827 
L 328.164889 -141.503167 
L 327.385328 -141.607213 
L 326.605766 -141.721067 
L 325.826205 -141.848046 
L 325.046643 -141.992783 
L 324.267082 -142.161039 
L 323.48752 -142.359252 
L 322.707959 -142.594061 
L 321.928397 -142.87218 
L 321.148836 -143.20091 
L 320.369274 -143.589313 
L 319.589713 -144.049611 
L 318.810151 -144.598115 
L 318.03059 -145.25484 
L 317.251028 -146.041264 
L 316.471467 -146.976148 
L 315.691905 -148.069973 
L 314.912344 -149.31916 
L 314.132782 -150.701689 
L 313.353221 -152.175939 
L 312.573659 -153.68419 
L 311.794098 -155.161246 
L 311.014536 -156.547029 
L 310.234975 -157.800156 
L 309.455413 -158.90844 
L 308.675852 -159.892425 
L 307.89629 -160.800049 
L 307.116729 -161.69352 
L 306.337167 -162.632401 
L 305.557606 -163.658412 
L 304.778044 -164.786712 
L 303.998483 -166.005889 
L 303.218921 -167.285484 
L 302.43936 -168.587242 
L 301.659798 -169.8754 
L 300.880237 -171.122471 
L 300.100675 -172.30945 
L 299.321114 -173.421996 
L 298.541552 -174.445704 
L 297.761991 -175.363506 
L 296.982429 -176.156712 
L 296.202868 -176.809109 
L 295.423306 -177.311981 
L 294.643745 -177.667595 
L 293.864183 -177.889633 
L 293.084622 -178.000555 
L 292.30506 -178.026978 
L 291.525499 -177.99441 
L 290.745937 -177.922151 
L 289.966376 -177.818657 
L 289.186814 -177.67772 
L 288.407253 -177.476486 
L 287.627691 -177.176985 
L 286.84813 -176.732546 
L 286.068568 -176.098918 
L 285.289007 -175.247578 
L 284.509445 -174.176932 
L 283.729884 -172.916949 
L 282.950322 -171.524717 
L 282.170761 -170.0717 
L 281.391199 -168.626644 
L 280.611638 -167.239724 
L 279.832076 -165.932884 
L 279.052515 -164.698842 
L 278.272953 -163.50804 
L 277.493392 -162.320332 
L 276.71383 -161.097322 
L 275.934269 -159.81202 
L 275.154707 -158.454221 
L 274.375146 -157.031656 
L 273.595584 -155.567916 
L 272.816023 -154.09821 
L 272.036461 -152.663719 
L 271.2569 -151.305136 
L 270.477338 -150.056211 
L 269.697777 -148.938495 
L 268.918215 -147.958602 
L 268.138654 -147.108831 
L 267.359092 -146.370976 
L 266.579531 -145.722075 
L 265.799969 -145.140204 
L 265.020408 -144.608568 
L 264.240846 -144.117 
L 263.461285 -143.661076 
L 262.681723 -143.239911 
L 261.902162 -142.853952 
L 261.1226 -142.503641 
L 260.343039 -142.189159 
L 259.563477 -141.910797 
L 258.783916 -141.669327 
L 258.004354 -141.46588 
L 257.224793 -141.30128 
L 256.445231 -141.175105 
L 255.66567 -141.084917 
L 254.886108 -141.025982 
L 254.106547 -140.991618 
L 253.326985 -140.97405 
L 252.547424 -140.965543 
L 251.767862 -140.959507 
L 250.988301 -140.9513 
L 250.208739 -140.938573 
L 249.429178 -140.921113 
L 248.649616 -140.900272 
L 247.870055 -140.878197 
L 247.090493 -140.857077 
L 246.310932 -140.838597 
L 245.53137 -140.823685 
L 244.751809 -140.812531 
L 243.972247 -140.80478 
L 243.192686 -140.799806 
L 242.413124 -140.796949 
L 241.633563 -140.795697 
z
" id="m0cf3643d5a" style="stroke:#ffffff;stroke-opacity:0.25;"/>
    </defs>
    <g clip-path="url(#pad30d22023)">
     <use style="fill:#4c72b0;fill-opacity:0.25;stroke:#ffffff;stroke-opacity:0.25;" x="0" xlink:href="#m0cf3643d5a" y="257.985938"/>
    </g>
   </g>
   <g id="line2d_27">
    <path clip-path="url(#pad30d22023)" d="M 241.633563 117.19024 
L 248.649616 117.085666 
L 256.445231 116.810833 
L 258.004354 116.520057 
L 260.343039 115.796779 
L 262.681723 114.746027 
L 265.020408 113.37737 
L 266.579531 112.263862 
L 268.138654 110.877107 
L 269.697777 109.047442 
L 271.2569 106.680802 
L 273.595584 102.418021 
L 275.934269 98.173917 
L 278.272953 94.477897 
L 280.611638 90.746213 
L 284.509445 83.809006 
L 285.289007 82.73836 
L 286.068568 81.887019 
L 286.84813 81.253391 
L 287.627691 80.808953 
L 289.186814 80.308217 
L 291.525499 79.991528 
L 293.084622 79.985382 
L 294.643745 80.318343 
L 295.423306 80.673957 
L 296.202868 81.176829 
L 297.761991 82.622431 
L 299.321114 84.563941 
L 300.880237 86.863467 
L 305.557606 94.327526 
L 307.116729 96.292418 
L 309.455413 99.077497 
L 311.014536 101.438909 
L 313.353221 105.809998 
L 314.912344 108.666778 
L 316.471467 111.00979 
L 318.03059 112.731097 
L 319.589713 113.936326 
L 321.148836 114.785027 
L 322.707959 115.391876 
L 325.046643 115.993155 
L 328.164889 116.48277 
L 332.842258 116.964557 
L 336.740066 117.154611 
L 340.637873 117.190138 
L 340.637873 117.190138 
" style="fill:none;stroke:#4c72b0;stroke-linecap:round;stroke-width:1.5;"/>
   </g>
   <g id="line2d_28">
    <path clip-path="url(#pad30d22023)" d="M 297.888188 117.193043 
L 297.888188 69.923478 
" style="fill:none;stroke:#4c72b0;stroke-linecap:round;stroke-width:1.5;"/>
   </g>
   <g id="patch_18">
    <path d="M 223.810369 117.193043 
L 223.810369 69.923478 
" style="fill:none;stroke:#ffffff;stroke-linecap:square;stroke-linejoin:miter;stroke-width:1.25;"/>
   </g>
   <g id="patch_19">
    <path d="M 375.992187 117.193043 
L 375.992187 69.923478 
" style="fill:none;stroke:#ffffff;stroke-linecap:square;stroke-linejoin:miter;stroke-width:1.25;"/>
   </g>
   <g id="patch_20">
    <path d="M 223.810369 117.193043 
L 375.992187 117.193043 
" style="fill:none;stroke:#ffffff;stroke-linecap:square;stroke-linejoin:miter;stroke-width:1.25;"/>
   </g>
   <g id="patch_21">
    <path d="M 223.810369 69.923478 
L 375.992187 69.923478 
" style="fill:none;stroke:#ffffff;stroke-linecap:square;stroke-linejoin:miter;stroke-width:1.25;"/>
   </g>
  </g>
  <g id="axes_5">
   <g id="patch_22">
    <path d="M 41.192188 173.916522 
L 193.374006 173.916522 
L 193.374006 126.646957 
L 41.192188 126.646957 
z
" style="fill:#eaeaf2;"/>
   </g>
   <g id="matplotlib.axis_9">
    <g id="xtick_13">
     <g id="line2d_29">
      <path clip-path="url(#pe0ed2bfe57)" d="M 65.653977 173.916522 
L 65.653977 126.646957 
" style="fill:none;stroke:#ffffff;stroke-linecap:round;"/>
     </g>
    </g>
    <g id="xtick_14">
     <g id="line2d_30">
      <path clip-path="url(#pe0ed2bfe57)" d="M 122.33418 173.916522 
L 122.33418 126.646957 
" style="fill:none;stroke:#ffffff;stroke-linecap:round;"/>
     </g>
    </g>
    <g id="xtick_15">
     <g id="line2d_31">
      <path clip-path="url(#pe0ed2bfe57)" d="M 179.014383 173.916522 
L 179.014383 126.646957 
" style="fill:none;stroke:#ffffff;stroke-linecap:round;"/>
     </g>
    </g>
   </g>
   <g id="matplotlib.axis_10">
    <g id="ytick_9">
     <g id="line2d_32">
      <path clip-path="url(#pe0ed2bfe57)" d="M 41.192188 173.916522 
L 193.374006 173.916522 
" style="fill:none;stroke:#ffffff;stroke-linecap:round;"/>
     </g>
     <g id="text_5">
      <!-- 0.00 -->
      <g style="fill:#262626;" transform="translate(7.2 178.095662)scale(0.11 -0.11)">
       <use xlink:href="#DejaVuSans-48"/>
       <use x="63.623047" xlink:href="#DejaVuSans-46"/>
       <use x="95.410156" xlink:href="#DejaVuSans-48"/>
       <use x="159.033203" xlink:href="#DejaVuSans-48"/>
      </g>
     </g>
    </g>
    <g id="ytick_10">
     <g id="line2d_33">
      <path clip-path="url(#pe0ed2bfe57)" d="M 41.192188 146.289143 
L 193.374006 146.289143 
" style="fill:none;stroke:#ffffff;stroke-linecap:round;"/>
     </g>
     <g id="text_6">
      <!-- 0.25 -->
      <g style="fill:#262626;" transform="translate(7.2 150.468284)scale(0.11 -0.11)">
       <use xlink:href="#DejaVuSans-48"/>
       <use x="63.623047" xlink:href="#DejaVuSans-46"/>
       <use x="95.410156" xlink:href="#DejaVuSans-50"/>
       <use x="159.033203" xlink:href="#DejaVuSans-53"/>
      </g>
     </g>
    </g>
   </g>
   <g id="PolyCollection_5">
    <defs>
     <path d="M 57.447649 -84.072426 
L 57.447649 -84.069416 
L 58.262941 -84.069416 
L 59.078233 -84.069416 
L 59.893525 -84.069416 
L 60.708818 -84.069416 
L 61.52411 -84.069416 
L 62.339402 -84.069416 
L 63.154694 -84.069416 
L 63.969986 -84.069416 
L 64.785278 -84.069416 
L 65.60057 -84.069416 
L 66.415863 -84.069416 
L 67.231155 -84.069416 
L 68.046447 -84.069416 
L 68.861739 -84.069416 
L 69.677031 -84.069416 
L 70.492323 -84.069416 
L 71.307615 -84.069416 
L 72.122907 -84.069416 
L 72.9382 -84.069416 
L 73.753492 -84.069416 
L 74.568784 -84.069416 
L 75.384076 -84.069416 
L 76.199368 -84.069416 
L 77.01466 -84.069416 
L 77.829952 -84.069416 
L 78.645244 -84.069416 
L 79.460537 -84.069416 
L 80.275829 -84.069416 
L 81.091121 -84.069416 
L 81.906413 -84.069416 
L 82.721705 -84.069416 
L 83.536997 -84.069416 
L 84.352289 -84.069416 
L 85.167582 -84.069416 
L 85.982874 -84.069416 
L 86.798166 -84.069416 
L 87.613458 -84.069416 
L 88.42875 -84.069416 
L 89.244042 -84.069416 
L 90.059334 -84.069416 
L 90.874626 -84.069416 
L 91.689919 -84.069416 
L 92.505211 -84.069416 
L 93.320503 -84.069416 
L 94.135795 -84.069416 
L 94.951087 -84.069416 
L 95.766379 -84.069416 
L 96.581671 -84.069416 
L 97.396964 -84.069416 
L 98.212256 -84.069416 
L 99.027548 -84.069416 
L 99.84284 -84.069416 
L 100.658132 -84.069416 
L 101.473424 -84.069416 
L 102.288716 -84.069416 
L 103.104008 -84.069416 
L 103.919301 -84.069416 
L 104.734593 -84.069416 
L 105.549885 -84.069416 
L 106.365177 -84.069416 
L 107.180469 -84.069416 
L 107.995761 -84.069416 
L 108.811053 -84.069416 
L 109.626345 -84.069416 
L 110.441638 -84.069416 
L 111.25693 -84.069416 
L 112.072222 -84.069416 
L 112.887514 -84.069416 
L 113.702806 -84.069416 
L 114.518098 -84.069416 
L 115.33339 -84.069416 
L 116.148683 -84.069416 
L 116.963975 -84.069416 
L 117.779267 -84.069416 
L 118.594559 -84.069416 
L 119.409851 -84.069416 
L 120.225143 -84.069416 
L 121.040435 -84.069416 
L 121.855727 -84.069416 
L 122.67102 -84.069416 
L 123.486312 -84.069416 
L 124.301604 -84.069416 
L 125.116896 -84.069416 
L 125.932188 -84.069416 
L 126.74748 -84.069416 
L 127.562772 -84.069416 
L 128.378064 -84.069416 
L 129.193357 -84.069416 
L 130.008649 -84.069416 
L 130.823941 -84.069416 
L 131.639233 -84.069416 
L 132.454525 -84.069416 
L 133.269817 -84.069416 
L 134.085109 -84.069416 
L 134.900402 -84.069416 
L 135.715694 -84.069416 
L 136.530986 -84.069416 
L 137.346278 -84.069416 
L 138.16157 -84.069416 
L 138.976862 -84.069416 
L 139.792154 -84.069416 
L 140.607446 -84.069416 
L 141.422739 -84.069416 
L 142.238031 -84.069416 
L 143.053323 -84.069416 
L 143.868615 -84.069416 
L 144.683907 -84.069416 
L 145.499199 -84.069416 
L 146.314491 -84.069416 
L 147.129784 -84.069416 
L 147.945076 -84.069416 
L 148.760368 -84.069416 
L 149.57566 -84.069416 
L 150.390952 -84.069416 
L 151.206244 -84.069416 
L 152.021536 -84.069416 
L 152.836828 -84.069416 
L 153.652121 -84.069416 
L 154.467413 -84.069416 
L 155.282705 -84.069416 
L 156.097997 -84.069416 
L 156.913289 -84.069416 
L 157.728581 -84.069416 
L 158.543873 -84.069416 
L 159.359165 -84.069416 
L 160.174458 -84.069416 
L 160.98975 -84.069416 
L 160.98975 -84.072918 
L 160.98975 -84.072918 
L 160.174458 -84.075188 
L 159.359165 -84.079966 
L 158.543873 -84.088497 
L 157.728581 -84.102547 
L 156.913289 -84.124313 
L 156.097997 -84.15624 
L 155.282705 -84.200732 
L 154.467413 -84.259861 
L 153.652121 -84.335141 
L 152.836828 -84.427507 
L 152.021536 -84.537529 
L 151.206244 -84.665817 
L 150.390952 -84.813482 
L 149.57566 -84.982494 
L 148.760368 -85.175799 
L 147.945076 -85.397186 
L 147.129784 -85.650963 
L 146.314491 -85.941538 
L 145.499199 -86.272978 
L 144.683907 -86.648523 
L 143.868615 -87.070043 
L 143.053323 -87.537451 
L 142.238031 -88.048275 
L 141.422739 -88.597714 
L 140.607446 -89.179528 
L 139.792154 -89.787879 
L 138.976862 -90.419801 
L 138.16157 -91.077525 
L 137.346278 -91.769655 
L 136.530986 -92.510412 
L 135.715694 -93.316815 
L 134.900402 -94.20448 
L 134.085109 -95.183284 
L 133.269817 -96.25432 
L 132.454525 -97.409151 
L 131.639233 -98.631703 
L 130.823941 -99.902318 
L 130.008649 -101.202832 
L 129.193357 -102.521099 
L 128.378064 -103.853297 
L 127.562772 -105.202856 
L 126.74748 -106.575902 
L 125.932188 -107.974533 
L 125.116896 -109.390462 
L 124.301604 -110.801829 
L 123.486312 -112.174954 
L 122.67102 -113.470753 
L 121.855727 -114.653492 
L 121.040435 -115.698536 
L 120.225143 -116.596356 
L 119.409851 -117.351902 
L 118.594559 -117.980413 
L 117.779267 -118.501864 
L 116.963975 -118.936125 
L 116.148683 -119.299947 
L 115.33339 -119.605878 
L 114.518098 -119.862558 
L 113.702806 -120.075628 
L 112.887514 -120.248425 
L 112.072222 -120.381594 
L 111.25693 -120.47103 
L 110.441638 -120.504423 
L 109.626345 -120.457872 
L 108.811053 -120.294963 
L 107.995761 -119.970381 
L 107.180469 -119.438322 
L 106.365177 -118.663521 
L 105.549885 -117.630969 
L 104.734593 -116.350701 
L 103.919301 -114.856221 
L 103.104008 -113.197999 
L 102.288716 -111.435202 
L 101.473424 -109.628565 
L 100.658132 -107.835522 
L 99.84284 -106.106817 
L 99.027548 -104.483189 
L 98.212256 -102.991566 
L 97.396964 -101.641685 
L 96.581671 -100.424974 
L 95.766379 -99.317136 
L 94.951087 -98.284431 
L 94.135795 -97.292036 
L 93.320503 -96.311968 
L 92.505211 -95.328364 
L 91.689919 -94.339002 
L 90.874626 -93.353346 
L 90.059334 -92.388362 
L 89.244042 -91.46371 
L 88.42875 -90.597611 
L 87.613458 -89.804098 
L 86.798166 -89.091768 
L 85.982874 -88.463711 
L 85.167582 -87.918143 
L 84.352289 -87.449337 
L 83.536997 -87.048614 
L 82.721705 -86.705352 
L 81.906413 -86.408052 
L 81.091121 -86.145469 
L 80.275829 -85.907732 
L 79.460537 -85.687262 
L 78.645244 -85.4793 
L 77.829952 -85.281936 
L 77.01466 -85.095675 
L 76.199368 -84.922705 
L 75.384076 -84.766059 
L 74.568784 -84.628841 
L 73.753492 -84.513548 
L 72.9382 -84.421531 
L 72.122907 -84.352585 
L 71.307615 -84.30474 
L 70.492323 -84.274345 
L 69.677031 -84.256496 
L 68.861739 -84.245786 
L 68.046447 -84.237204 
L 67.231155 -84.226963 
L 66.415863 -84.213004 
L 65.60057 -84.195052 
L 64.785278 -84.174251 
L 63.969986 -84.152515 
L 63.154694 -84.13185 
L 62.339402 -84.113823 
L 61.52411 -84.099301 
L 60.708818 -84.088454 
L 59.893525 -84.080935 
L 59.078233 -84.076142 
L 58.262941 -84.073453 
L 57.447649 -84.072426 
z
" id="mce5d72f34d" style="stroke:#ffffff;stroke-opacity:0.25;"/>
    </defs>
    <g clip-path="url(#pe0ed2bfe57)">
     <use style="fill:#4c72b0;fill-opacity:0.25;stroke:#ffffff;stroke-opacity:0.25;" x="0" xlink:href="#mce5d72f34d" y="257.985938"/>
    </g>
   </g>
   <g id="line2d_34">
    <path clip-path="url(#pe0ed2bfe57)" d="M 57.447649 173.913512 
L 64.785278 173.811687 
L 73.753492 173.472389 
L 76.199368 173.063233 
L 79.460537 172.298676 
L 81.906413 171.577886 
L 83.536997 170.937324 
L 85.167582 170.067794 
L 86.798166 168.89417 
L 88.42875 167.388326 
L 90.874626 164.632592 
L 96.581671 157.560963 
L 98.212256 154.994372 
L 99.84284 151.879121 
L 104.734593 141.635237 
L 105.549885 140.354969 
L 106.365177 139.322417 
L 107.180469 138.547615 
L 107.995761 138.015556 
L 108.811053 137.690974 
L 109.626345 137.528066 
L 111.25693 137.514907 
L 112.887514 137.737512 
L 114.518098 138.12338 
L 116.148683 138.685991 
L 117.779267 139.484073 
L 119.409851 140.634036 
L 121.040435 142.287402 
L 122.67102 144.515185 
L 125.116896 148.595476 
L 129.193357 155.464839 
L 132.454525 160.576786 
L 134.085109 162.802653 
L 135.715694 164.669122 
L 137.346278 166.216282 
L 139.792154 168.198058 
L 142.238031 169.937662 
L 143.868615 170.915895 
L 145.499199 171.71296 
L 147.945076 172.588752 
L 150.390952 173.172455 
L 153.652121 173.650797 
L 156.913289 173.861624 
L 160.98975 173.91302 
L 160.98975 173.91302 
" style="fill:none;stroke:#4c72b0;stroke-linecap:round;stroke-width:1.5;"/>
   </g>
   <g id="line2d_35">
    <path clip-path="url(#pe0ed2bfe57)" d="M 109.433089 173.916522 
L 109.433089 126.646957 
" style="fill:none;stroke:#4c72b0;stroke-linecap:round;stroke-width:1.5;"/>
   </g>
   <g id="patch_23">
    <path d="M 41.192188 173.916522 
L 41.192188 126.646957 
" style="fill:none;stroke:#ffffff;stroke-linecap:square;stroke-linejoin:miter;stroke-width:1.25;"/>
   </g>
   <g id="patch_24">
    <path d="M 193.374006 173.916522 
L 193.374006 126.646957 
" style="fill:none;stroke:#ffffff;stroke-linecap:square;stroke-linejoin:miter;stroke-width:1.25;"/>
   </g>
   <g id="patch_25">
    <path d="M 41.192188 173.916522 
L 193.374006 173.916522 
" style="fill:none;stroke:#ffffff;stroke-linecap:square;stroke-linejoin:miter;stroke-width:1.25;"/>
   </g>
   <g id="patch_26">
    <path d="M 41.192188 126.646957 
L 193.374006 126.646957 
" style="fill:none;stroke:#ffffff;stroke-linecap:square;stroke-linejoin:miter;stroke-width:1.25;"/>
   </g>
  </g>
  <g id="axes_6">
   <g id="patch_27">
    <path d="M 223.810369 173.916522 
L 375.992187 173.916522 
L 375.992187 126.646957 
L 223.810369 126.646957 
z
" style="fill:#eaeaf2;"/>
   </g>
   <g id="matplotlib.axis_11">
    <g id="xtick_16">
     <g id="line2d_36">
      <path clip-path="url(#p993e672cd3)" d="M 248.272159 173.916522 
L 248.272159 126.646957 
" style="fill:none;stroke:#ffffff;stroke-linecap:round;"/>
     </g>
    </g>
    <g id="xtick_17">
     <g id="line2d_37">
      <path clip-path="url(#p993e672cd3)" d="M 304.952362 173.916522 
L 304.952362 126.646957 
" style="fill:none;stroke:#ffffff;stroke-linecap:round;"/>
     </g>
    </g>
    <g id="xtick_18">
     <g id="line2d_38">
      <path clip-path="url(#p993e672cd3)" d="M 361.632565 173.916522 
L 361.632565 126.646957 
" style="fill:none;stroke:#ffffff;stroke-linecap:round;"/>
     </g>
    </g>
   </g>
   <g id="matplotlib.axis_12">
    <g id="ytick_11">
     <g id="line2d_39">
      <path clip-path="url(#p993e672cd3)" d="M 223.810369 173.916522 
L 375.992187 173.916522 
" style="fill:none;stroke:#ffffff;stroke-linecap:round;"/>
     </g>
    </g>
    <g id="ytick_12">
     <g id="line2d_40">
      <path clip-path="url(#p993e672cd3)" d="M 223.810369 146.289143 
L 375.992187 146.289143 
" style="fill:none;stroke:#ffffff;stroke-linecap:round;"/>
     </g>
    </g>
   </g>
   <g id="PolyCollection_6">
    <defs>
     <path d="M 238.268698 -84.072489 
L 238.268698 -84.069416 
L 238.99206 -84.069416 
L 239.715423 -84.069416 
L 240.438785 -84.069416 
L 241.162147 -84.069416 
L 241.88551 -84.069416 
L 242.608872 -84.069416 
L 243.332235 -84.069416 
L 244.055597 -84.069416 
L 244.778959 -84.069416 
L 245.502322 -84.069416 
L 246.225684 -84.069416 
L 246.949047 -84.069416 
L 247.672409 -84.069416 
L 248.395771 -84.069416 
L 249.119134 -84.069416 
L 249.842496 -84.069416 
L 250.565858 -84.069416 
L 251.289221 -84.069416 
L 252.012583 -84.069416 
L 252.735946 -84.069416 
L 253.459308 -84.069416 
L 254.18267 -84.069416 
L 254.906033 -84.069416 
L 255.629395 -84.069416 
L 256.352758 -84.069416 
L 257.07612 -84.069416 
L 257.799482 -84.069416 
L 258.522845 -84.069416 
L 259.246207 -84.069416 
L 259.96957 -84.069416 
L 260.692932 -84.069416 
L 261.416294 -84.069416 
L 262.139657 -84.069416 
L 262.863019 -84.069416 
L 263.586382 -84.069416 
L 264.309744 -84.069416 
L 265.033106 -84.069416 
L 265.756469 -84.069416 
L 266.479831 -84.069416 
L 267.203194 -84.069416 
L 267.926556 -84.069416 
L 268.649918 -84.069416 
L 269.373281 -84.069416 
L 270.096643 -84.069416 
L 270.820006 -84.069416 
L 271.543368 -84.069416 
L 272.26673 -84.069416 
L 272.990093 -84.069416 
L 273.713455 -84.069416 
L 274.436818 -84.069416 
L 275.16018 -84.069416 
L 275.883542 -84.069416 
L 276.606905 -84.069416 
L 277.330267 -84.069416 
L 278.05363 -84.069416 
L 278.776992 -84.069416 
L 279.500354 -84.069416 
L 280.223717 -84.069416 
L 280.947079 -84.069416 
L 281.670442 -84.069416 
L 282.393804 -84.069416 
L 283.117166 -84.069416 
L 283.840529 -84.069416 
L 284.563891 -84.069416 
L 285.287254 -84.069416 
L 286.010616 -84.069416 
L 286.733978 -84.069416 
L 287.457341 -84.069416 
L 288.180703 -84.069416 
L 288.904066 -84.069416 
L 289.627428 -84.069416 
L 290.35079 -84.069416 
L 291.074153 -84.069416 
L 291.797515 -84.069416 
L 292.520878 -84.069416 
L 293.24424 -84.069416 
L 293.967602 -84.069416 
L 294.690965 -84.069416 
L 295.414327 -84.069416 
L 296.137689 -84.069416 
L 296.861052 -84.069416 
L 297.584414 -84.069416 
L 298.307777 -84.069416 
L 299.031139 -84.069416 
L 299.754501 -84.069416 
L 300.477864 -84.069416 
L 301.201226 -84.069416 
L 301.924589 -84.069416 
L 302.647951 -84.069416 
L 303.371313 -84.069416 
L 304.094676 -84.069416 
L 304.818038 -84.069416 
L 305.541401 -84.069416 
L 306.264763 -84.069416 
L 306.988125 -84.069416 
L 307.711488 -84.069416 
L 308.43485 -84.069416 
L 309.158213 -84.069416 
L 309.881575 -84.069416 
L 310.604937 -84.069416 
L 311.3283 -84.069416 
L 312.051662 -84.069416 
L 312.775025 -84.069416 
L 313.498387 -84.069416 
L 314.221749 -84.069416 
L 314.945112 -84.069416 
L 315.668474 -84.069416 
L 316.391837 -84.069416 
L 317.115199 -84.069416 
L 317.838561 -84.069416 
L 318.561924 -84.069416 
L 319.285286 -84.069416 
L 320.008649 -84.069416 
L 320.732011 -84.069416 
L 321.455373 -84.069416 
L 322.178736 -84.069416 
L 322.902098 -84.069416 
L 323.625461 -84.069416 
L 324.348823 -84.069416 
L 325.072185 -84.069416 
L 325.795548 -84.069416 
L 326.51891 -84.069416 
L 327.242273 -84.069416 
L 327.965635 -84.069416 
L 328.688997 -84.069416 
L 329.41236 -84.069416 
L 330.135722 -84.069416 
L 330.135722 -84.072287 
L 330.135722 -84.072287 
L 329.41236 -84.073444 
L 328.688997 -84.076168 
L 327.965635 -84.080946 
L 327.242273 -84.088456 
L 326.51891 -84.099445 
L 325.795548 -84.114568 
L 325.072185 -84.134247 
L 324.348823 -84.158607 
L 323.625461 -84.187605 
L 322.902098 -84.22141 
L 322.178736 -84.261021 
L 321.455373 -84.308992 
L 320.732011 -84.370034 
L 320.008649 -84.451202 
L 319.285286 -84.561493 
L 318.561924 -84.710826 
L 317.838561 -84.908617 
L 317.115199 -85.162304 
L 316.391837 -85.476205 
L 315.668474 -85.850909 
L 314.945112 -86.283204 
L 314.221749 -86.766366 
L 313.498387 -87.290612 
L 312.775025 -87.843721 
L 312.051662 -88.41197 
L 311.3283 -88.981642 
L 310.604937 -89.541151 
L 309.881575 -90.083488 
L 309.158213 -90.608327 
L 308.43485 -91.123017 
L 307.711488 -91.641948 
L 306.988125 -92.184305 
L 306.264763 -92.770823 
L 305.541401 -93.420517 
L 304.818038 -94.14832 
L 304.094676 -94.964154 
L 303.371313 -95.873285 
L 302.647951 -96.877304 
L 301.924589 -97.974828 
L 301.201226 -99.161303 
L 300.477864 -100.427905 
L 299.754501 -101.760242 
L 299.031139 -103.137994 
L 298.307777 -104.536415 
L 297.584414 -105.929877 
L 296.861052 -107.296514 
L 296.137689 -108.622194 
L 295.414327 -109.901947 
L 294.690965 -111.137865 
L 293.967602 -112.334078 
L 293.24424 -113.490914 
L 292.520878 -114.601048 
L 291.797515 -115.649727 
L 291.074153 -116.619399 
L 290.35079 -117.496932 
L 289.627428 -118.28029 
L 288.904066 -118.981632 
L 288.180703 -119.625294 
L 287.457341 -120.24131 
L 286.733978 -120.856928 
L 286.010616 -121.489182 
L 285.287254 -122.1408 
L 284.563891 -122.800158 
L 283.840529 -123.444328 
L 283.117166 -124.043386 
L 282.393804 -124.564237 
L 281.670442 -124.972968 
L 280.947079 -125.235731 
L 280.223717 -125.318823 
L 279.500354 -125.188861 
L 278.776992 -124.813827 
L 278.05363 -124.165475 
L 277.330267 -123.223172 
L 276.606905 -121.978789 
L 275.883542 -120.441671 
L 275.16018 -118.642238 
L 274.436818 -116.632729 
L 273.713455 -114.484032 
L 272.990093 -112.278576 
L 272.26673 -110.100385 
L 271.543368 -108.024285 
L 270.820006 -106.106539 
L 270.096643 -104.37877 
L 269.373281 -102.846218 
L 268.649918 -101.490356 
L 267.926556 -100.27506 
L 267.203194 -99.154955 
L 266.479831 -98.08435 
L 265.756469 -97.025256 
L 265.033106 -95.953268 
L 264.309744 -94.860538 
L 263.586382 -93.755605 
L 262.863019 -92.660347 
L 262.139657 -91.604813 
L 261.416294 -90.621026 
L 260.692932 -89.736963 
L 259.96957 -88.971841 
L 259.246207 -88.333468 
L 258.522845 -87.817982 
L 257.799482 -87.411749 
L 257.07612 -87.094735 
L 256.352758 -86.844421 
L 255.629395 -86.639314 
L 254.906033 -86.461355 
L 254.18267 -86.296983 
L 253.459308 -86.137014 
L 252.735946 -85.975858 
L 252.012583 -85.810582 
L 251.289221 -85.640223 
L 250.565858 -85.46542 
L 249.842496 -85.28826 
L 249.119134 -85.112097 
L 248.395771 -84.941188 
L 247.672409 -84.78013 
L 246.949047 -84.633193 
L 246.225684 -84.503723 
L 245.502322 -84.393733 
L 244.778959 -84.303763 
L 244.055597 -84.232989 
L 243.332235 -84.179515 
L 242.608872 -84.140757 
L 241.88551 -84.11385 
L 241.162147 -84.095989 
L 240.438785 -84.084687 
L 239.715423 -84.077921 
L 238.99206 -84.074188 
L 238.268698 -84.072489 
z
" id="m4257861299" style="stroke:#ffffff;stroke-opacity:0.25;"/>
    </defs>
    <g clip-path="url(#p993e672cd3)">
     <use style="fill:#4c72b0;fill-opacity:0.25;stroke:#ffffff;stroke-opacity:0.25;" x="0" xlink:href="#m4257861299" y="257.985938"/>
    </g>
   </g>
   <g id="line2d_41">
    <path clip-path="url(#p993e672cd3)" d="M 238.268698 173.913448 
L 243.332235 173.806423 
L 246.225684 173.482214 
L 249.119134 172.873841 
L 257.07612 170.891203 
L 258.522845 170.167955 
L 259.96957 169.014096 
L 261.416294 167.364912 
L 263.586382 164.230332 
L 268.649918 156.495581 
L 270.096643 153.607168 
L 271.543368 149.961652 
L 275.883542 137.544266 
L 276.606905 136.007148 
L 277.330267 134.762766 
L 278.05363 133.820462 
L 278.776992 133.17211 
L 279.500354 132.797077 
L 280.223717 132.667114 
L 280.947079 132.750206 
L 281.670442 133.012969 
L 283.117166 133.942551 
L 285.287254 135.845137 
L 290.35079 140.489006 
L 291.797515 142.336211 
L 293.967602 145.651859 
L 296.137689 149.363743 
L 299.031139 154.847943 
L 301.201226 158.824634 
L 302.647951 161.108634 
L 304.094676 163.021783 
L 305.541401 164.56542 
L 306.988125 165.801633 
L 314.945112 171.702733 
L 316.391837 172.509732 
L 317.838561 173.077321 
L 319.285286 173.424445 
L 321.455373 173.676945 
L 325.795548 173.871369 
L 330.135722 173.913651 
L 330.135722 173.913651 
" style="fill:none;stroke:#4c72b0;stroke-linecap:round;stroke-width:1.5;"/>
   </g>
   <g id="line2d_42">
    <path clip-path="url(#p993e672cd3)" d="M 280.63149 173.916522 
L 280.63149 126.646957 
" style="fill:none;stroke:#4c72b0;stroke-linecap:round;stroke-width:1.5;"/>
   </g>
   <g id="patch_28">
    <path d="M 223.810369 173.916522 
L 223.810369 126.646957 
" style="fill:none;stroke:#ffffff;stroke-linecap:square;stroke-linejoin:miter;stroke-width:1.25;"/>
   </g>
   <g id="patch_29">
    <path d="M 375.992187 173.916522 
L 375.992187 126.646957 
" style="fill:none;stroke:#ffffff;stroke-linecap:square;stroke-linejoin:miter;stroke-width:1.25;"/>
   </g>
   <g id="patch_30">
    <path d="M 223.810369 173.916522 
L 375.992187 173.916522 
" style="fill:none;stroke:#ffffff;stroke-linecap:square;stroke-linejoin:miter;stroke-width:1.25;"/>
   </g>
   <g id="patch_31">
    <path d="M 223.810369 126.646957 
L 375.992187 126.646957 
" style="fill:none;stroke:#ffffff;stroke-linecap:square;stroke-linejoin:miter;stroke-width:1.25;"/>
   </g>
  </g>
  <g id="axes_7">
   <g id="patch_32">
    <path d="M 41.192188 230.64 
L 193.374006 230.64 
L 193.374006 183.370435 
L 41.192188 183.370435 
z
" style="fill:#eaeaf2;"/>
   </g>
   <g id="matplotlib.axis_13">
    <g id="xtick_19">
     <g id="line2d_43">
      <path clip-path="url(#p5dc7ab8bf7)" d="M 65.653977 230.64 
L 65.653977 183.370435 
" style="fill:none;stroke:#ffffff;stroke-linecap:round;"/>
     </g>
     <g id="text_7">
      <!-- 5 -->
      <defs>
       <path d="M 10.59375 35.5 
L 73.1875 35.5 
L 73.1875 27.203125 
L 10.59375 27.203125 
z
" id="DejaVuSans-8722"/>
      </defs>
      <g style="fill:#262626;" transform="translate(57.545774 248.498281)scale(0.11 -0.11)">
       <use xlink:href="#DejaVuSans-8722"/>
       <use x="83.789062" xlink:href="#DejaVuSans-53"/>
      </g>
     </g>
    </g>
    <g id="xtick_20">
     <g id="line2d_44">
      <path clip-path="url(#p5dc7ab8bf7)" d="M 122.33418 230.64 
L 122.33418 183.370435 
" style="fill:none;stroke:#ffffff;stroke-linecap:round;"/>
     </g>
     <g id="text_8">
      <!-- 0 -->
      <g style="fill:#262626;" transform="translate(118.834805 248.498281)scale(0.11 -0.11)">
       <use xlink:href="#DejaVuSans-48"/>
      </g>
     </g>
    </g>
    <g id="xtick_21">
     <g id="line2d_45">
      <path clip-path="url(#p5dc7ab8bf7)" d="M 179.014383 230.64 
L 179.014383 183.370435 
" style="fill:none;stroke:#ffffff;stroke-linecap:round;"/>
     </g>
     <g id="text_9">
      <!-- 5 -->
      <g style="fill:#262626;" transform="translate(175.515008 248.498281)scale(0.11 -0.11)">
       <use xlink:href="#DejaVuSans-53"/>
      </g>
     </g>
    </g>
   </g>
   <g id="matplotlib.axis_14">
    <g id="ytick_13">
     <g id="line2d_46">
      <path clip-path="url(#p5dc7ab8bf7)" d="M 41.192188 230.64 
L 193.374006 230.64 
" style="fill:none;stroke:#ffffff;stroke-linecap:round;"/>
     </g>
     <g id="text_10">
      <!-- 0.00 -->
      <g style="fill:#262626;" transform="translate(7.2 234.819141)scale(0.11 -0.11)">
       <use xlink:href="#DejaVuSans-48"/>
       <use x="63.623047" xlink:href="#DejaVuSans-46"/>
       <use x="95.410156" xlink:href="#DejaVuSans-48"/>
       <use x="159.033203" xlink:href="#DejaVuSans-48"/>
      </g>
     </g>
    </g>
    <g id="ytick_14">
     <g id="line2d_47">
      <path clip-path="url(#p5dc7ab8bf7)" d="M 41.192188 203.012621 
L 193.374006 203.012621 
" style="fill:none;stroke:#ffffff;stroke-linecap:round;"/>
     </g>
     <g id="text_11">
      <!-- 0.25 -->
      <g style="fill:#262626;" transform="translate(7.2 207.191762)scale(0.11 -0.11)">
       <use xlink:href="#DejaVuSans-48"/>
       <use x="63.623047" xlink:href="#DejaVuSans-46"/>
       <use x="95.410156" xlink:href="#DejaVuSans-50"/>
       <use x="159.033203" xlink:href="#DejaVuSans-53"/>
      </g>
     </g>
    </g>
   </g>
   <g id="PolyCollection_7">
    <defs>
     <path d="M 84.578037 -27.349728 
L 84.578037 -27.345938 
L 85.312991 -27.345938 
L 86.047945 -27.345938 
L 86.782899 -27.345938 
L 87.517853 -27.345938 
L 88.252808 -27.345938 
L 88.987762 -27.345938 
L 89.722716 -27.345938 
L 90.45767 -27.345938 
L 91.192624 -27.345938 
L 91.927578 -27.345938 
L 92.662533 -27.345938 
L 93.397487 -27.345938 
L 94.132441 -27.345938 
L 94.867395 -27.345938 
L 95.602349 -27.345938 
L 96.337303 -27.345938 
L 97.072257 -27.345938 
L 97.807212 -27.345938 
L 98.542166 -27.345938 
L 99.27712 -27.345938 
L 100.012074 -27.345938 
L 100.747028 -27.345938 
L 101.481982 -27.345938 
L 102.216937 -27.345938 
L 102.951891 -27.345938 
L 103.686845 -27.345938 
L 104.421799 -27.345938 
L 105.156753 -27.345938 
L 105.891707 -27.345938 
L 106.626661 -27.345938 
L 107.361616 -27.345938 
L 108.09657 -27.345938 
L 108.831524 -27.345938 
L 109.566478 -27.345938 
L 110.301432 -27.345938 
L 111.036386 -27.345938 
L 111.771341 -27.345938 
L 112.506295 -27.345938 
L 113.241249 -27.345938 
L 113.976203 -27.345938 
L 114.711157 -27.345938 
L 115.446111 -27.345938 
L 116.181066 -27.345938 
L 116.91602 -27.345938 
L 117.650974 -27.345938 
L 118.385928 -27.345938 
L 119.120882 -27.345938 
L 119.855836 -27.345938 
L 120.59079 -27.345938 
L 121.325745 -27.345938 
L 122.060699 -27.345938 
L 122.795653 -27.345938 
L 123.530607 -27.345938 
L 124.265561 -27.345938 
L 125.000515 -27.345938 
L 125.73547 -27.345938 
L 126.470424 -27.345938 
L 127.205378 -27.345938 
L 127.940332 -27.345938 
L 128.675286 -27.345938 
L 129.41024 -27.345938 
L 130.145194 -27.345938 
L 130.880149 -27.345938 
L 131.615103 -27.345938 
L 132.350057 -27.345938 
L 133.085011 -27.345938 
L 133.819965 -27.345938 
L 134.554919 -27.345938 
L 135.289874 -27.345938 
L 136.024828 -27.345938 
L 136.759782 -27.345938 
L 137.494736 -27.345938 
L 138.22969 -27.345938 
L 138.964644 -27.345938 
L 139.699599 -27.345938 
L 140.434553 -27.345938 
L 141.169507 -27.345938 
L 141.904461 -27.345938 
L 142.639415 -27.345938 
L 143.374369 -27.345938 
L 144.109323 -27.345938 
L 144.844278 -27.345938 
L 145.579232 -27.345938 
L 146.314186 -27.345938 
L 147.04914 -27.345938 
L 147.784094 -27.345938 
L 148.519048 -27.345938 
L 149.254003 -27.345938 
L 149.988957 -27.345938 
L 150.723911 -27.345938 
L 151.458865 -27.345938 
L 152.193819 -27.345938 
L 152.928773 -27.345938 
L 153.663727 -27.345938 
L 154.398682 -27.345938 
L 155.133636 -27.345938 
L 155.86859 -27.345938 
L 156.603544 -27.345938 
L 157.338498 -27.345938 
L 158.073452 -27.345938 
L 158.808407 -27.345938 
L 159.543361 -27.345938 
L 160.278315 -27.345938 
L 161.013269 -27.345938 
L 161.748223 -27.345938 
L 162.483177 -27.345938 
L 163.218132 -27.345938 
L 163.953086 -27.345938 
L 164.68804 -27.345938 
L 165.422994 -27.345938 
L 166.157948 -27.345938 
L 166.892902 -27.345938 
L 167.627856 -27.345938 
L 168.362811 -27.345938 
L 169.097765 -27.345938 
L 169.832719 -27.345938 
L 170.567673 -27.345938 
L 171.302627 -27.345938 
L 172.037581 -27.345938 
L 172.772536 -27.345938 
L 173.50749 -27.345938 
L 174.242444 -27.345938 
L 174.977398 -27.345938 
L 175.712352 -27.345938 
L 176.447306 -27.345938 
L 177.18226 -27.345938 
L 177.917215 -27.345938 
L 177.917215 -27.350335 
L 177.917215 -27.350335 
L 177.18226 -27.352807 
L 176.447306 -27.357767 
L 175.712352 -27.366285 
L 174.977398 -27.379864 
L 174.242444 -27.40037 
L 173.50749 -27.429882 
L 172.772536 -27.470458 
L 172.037581 -27.523846 
L 171.302627 -27.591199 
L 170.567673 -27.672886 
L 169.832719 -27.768486 
L 169.097765 -27.877009 
L 168.362811 -27.997327 
L 167.627856 -28.128708 
L 166.892902 -28.271291 
L 166.157948 -28.426322 
L 165.422994 -28.596015 
L 164.68804 -28.783018 
L 163.953086 -28.989616 
L 163.218132 -29.216928 
L 162.483177 -29.464446 
L 161.748223 -29.730162 
L 161.013269 -30.011382 
L 160.278315 -30.306027 
L 159.543361 -30.61399 
L 158.808407 -30.938033 
L 158.073452 -31.283814 
L 157.338498 -31.658934 
L 156.603544 -32.071281 
L 155.86859 -32.527198 
L 155.133636 -33.030056 
L 154.398682 -33.579641 
L 153.663727 -34.172398 
L 152.928773 -34.8023 
L 152.193819 -35.461931 
L 151.458865 -36.143449 
L 150.723911 -36.839288 
L 149.988957 -37.542712 
L 149.254003 -38.248459 
L 148.519048 -38.953695 
L 147.784094 -39.659282 
L 147.04914 -40.371131 
L 146.314186 -41.101192 
L 145.579232 -41.867575 
L 144.844278 -42.693466 
L 144.109323 -43.604748 
L 143.374369 -44.62659 
L 142.639415 -45.779466 
L 141.904461 -47.075197 
L 141.169507 -48.513592 
L 140.434553 -50.08024 
L 139.699599 -51.745958 
L 138.964644 -53.468299 
L 138.22969 -55.195243 
L 137.494736 -56.870718 
L 136.759782 -58.440984 
L 136.024828 -59.860456 
L 135.289874 -61.095548 
L 134.554919 -62.125645 
L 133.819965 -62.941386 
L 133.085011 -63.541442 
L 132.350057 -63.929622 
L 131.615103 -64.113887 
L 130.880149 -64.107931 
L 130.145194 -63.934565 
L 129.41024 -63.628981 
L 128.675286 -63.239547 
L 127.940332 -62.824352 
L 127.205378 -62.443146 
L 126.470424 -62.146112 
L 125.73547 -61.962339 
L 125.000515 -61.891413 
L 124.265561 -61.900909 
L 123.530607 -61.930972 
L 122.795653 -61.905176 
L 122.060699 -61.745047 
L 121.325745 -61.384759 
L 120.59079 -60.782617 
L 119.855836 -59.927022 
L 119.120882 -58.836199 
L 118.385928 -57.552484 
L 117.650974 -56.133087 
L 116.91602 -54.639652 
L 116.181066 -53.128754 
L 115.446111 -51.644865 
L 114.711157 -50.216565 
L 113.976203 -48.856092 
L 113.241249 -47.561789 
L 112.506295 -46.322653 
L 111.771341 -45.12393 
L 111.036386 -43.952595 
L 110.301432 -42.801593 
L 109.566478 -41.67199 
L 108.831524 -40.572701 
L 108.09657 -39.518028 
L 107.361616 -38.523858 
L 106.626661 -37.603585 
L 105.891707 -36.76483 
L 105.156753 -36.007639 
L 104.421799 -35.324384 
L 103.686845 -34.701192 
L 102.951891 -34.120434 
L 102.216937 -33.563765 
L 101.481982 -33.015191 
L 100.747028 -32.46366 
L 100.012074 -31.90476 
L 99.27712 -31.341183 
L 98.542166 -30.781851 
L 97.807212 -30.239877 
L 97.072257 -29.729849 
L 96.337303 -29.265074 
L 95.602349 -28.855409 
L 94.867395 -28.50608 
L 94.132441 -28.21757 
L 93.397487 -27.986383 
L 92.662533 -27.806278 
L 91.927578 -27.669605 
L 91.192624 -27.56843 
L 90.45767 -27.495312 
L 89.722716 -27.443737 
L 88.987762 -27.408269 
L 88.252808 -27.384541 
L 87.517853 -27.369149 
L 86.782899 -27.35953 
L 86.047945 -27.353831 
L 85.312991 -27.350806 
L 84.578037 -27.349728 
z
" id="m7933e44ad2" style="stroke:#ffffff;stroke-opacity:0.25;"/>
    </defs>
    <g clip-path="url(#p5dc7ab8bf7)">
     <use style="fill:#4c72b0;fill-opacity:0.25;stroke:#ffffff;stroke-opacity:0.25;" x="0" xlink:href="#m7933e44ad2" y="257.985938"/>
    </g>
   </g>
   <g id="line2d_48">
    <path clip-path="url(#p5dc7ab8bf7)" d="M 84.578037 230.63621 
L 89.722716 230.5422 
L 91.927578 230.316333 
L 93.397487 229.999555 
L 94.867395 229.479858 
L 96.337303 228.720863 
L 98.542166 227.204086 
L 104.421799 222.661553 
L 105.891707 221.221107 
L 107.361616 219.46208 
L 109.566478 216.313947 
L 112.506295 211.663284 
L 114.711157 207.769373 
L 119.120882 199.149738 
L 119.855836 198.058916 
L 120.59079 197.203321 
L 121.325745 196.601178 
L 122.060699 196.240891 
L 122.795653 196.080761 
L 125.73547 196.023599 
L 127.205378 195.542791 
L 130.145194 194.051372 
L 130.880149 193.878006 
L 131.615103 193.872051 
L 132.350057 194.056315 
L 133.085011 194.444495 
L 133.819965 195.044552 
L 134.554919 195.860292 
L 135.289874 196.89039 
L 136.759782 199.544954 
L 138.964644 204.517639 
L 141.169507 209.472345 
L 142.639415 212.206472 
L 144.109323 214.38119 
L 145.579232 216.118362 
L 148.519048 219.032243 
L 152.928773 223.183638 
L 155.133636 224.955881 
L 156.603544 225.914656 
L 158.808407 227.047904 
L 161.748223 228.255775 
L 164.68804 229.202919 
L 167.627856 229.857229 
L 170.567673 230.313052 
L 173.50749 230.556056 
L 177.917215 230.635603 
L 177.917215 230.635603 
" style="fill:none;stroke:#4c72b0;stroke-linecap:round;stroke-width:1.5;"/>
   </g>
   <g id="line2d_49">
    <path clip-path="url(#p5dc7ab8bf7)" d="M 143.857432 230.64 
L 143.857432 183.370435 
" style="fill:none;stroke:#4c72b0;stroke-linecap:round;stroke-width:1.5;"/>
   </g>
   <g id="patch_33">
    <path d="M 41.192188 230.64 
L 41.192188 183.370435 
" style="fill:none;stroke:#ffffff;stroke-linecap:square;stroke-linejoin:miter;stroke-width:1.25;"/>
   </g>
   <g id="patch_34">
    <path d="M 193.374006 230.64 
L 193.374006 183.370435 
" style="fill:none;stroke:#ffffff;stroke-linecap:square;stroke-linejoin:miter;stroke-width:1.25;"/>
   </g>
   <g id="patch_35">
    <path d="M 41.192188 230.64 
L 193.374006 230.64 
" style="fill:none;stroke:#ffffff;stroke-linecap:square;stroke-linejoin:miter;stroke-width:1.25;"/>
   </g>
   <g id="patch_36">
    <path d="M 41.192188 183.370435 
L 193.374006 183.370435 
" style="fill:none;stroke:#ffffff;stroke-linecap:square;stroke-linejoin:miter;stroke-width:1.25;"/>
   </g>
  </g>
  <g id="axes_8">
   <g id="patch_37">
    <path d="M 223.810369 230.64 
L 375.992187 230.64 
L 375.992187 183.370435 
L 223.810369 183.370435 
z
" style="fill:#eaeaf2;"/>
   </g>
   <g id="matplotlib.axis_15">
    <g id="xtick_22">
     <g id="line2d_50">
      <path clip-path="url(#pde8b77341f)" d="M 248.272159 230.64 
L 248.272159 183.370435 
" style="fill:none;stroke:#ffffff;stroke-linecap:round;"/>
     </g>
     <g id="text_12">
      <!-- 5 -->
      <g style="fill:#262626;" transform="translate(240.163956 248.498281)scale(0.11 -0.11)">
       <use xlink:href="#DejaVuSans-8722"/>
       <use x="83.789062" xlink:href="#DejaVuSans-53"/>
      </g>
     </g>
    </g>
    <g id="xtick_23">
     <g id="line2d_51">
      <path clip-path="url(#pde8b77341f)" d="M 304.952362 230.64 
L 304.952362 183.370435 
" style="fill:none;stroke:#ffffff;stroke-linecap:round;"/>
     </g>
     <g id="text_13">
      <!-- 0 -->
      <g style="fill:#262626;" transform="translate(301.452987 248.498281)scale(0.11 -0.11)">
       <use xlink:href="#DejaVuSans-48"/>
      </g>
     </g>
    </g>
    <g id="xtick_24">
     <g id="line2d_52">
      <path clip-path="url(#pde8b77341f)" d="M 361.632565 230.64 
L 361.632565 183.370435 
" style="fill:none;stroke:#ffffff;stroke-linecap:round;"/>
     </g>
     <g id="text_14">
      <!-- 5 -->
      <g style="fill:#262626;" transform="translate(358.13319 248.498281)scale(0.11 -0.11)">
       <use xlink:href="#DejaVuSans-53"/>
      </g>
     </g>
    </g>
   </g>
   <g id="matplotlib.axis_16">
    <g id="ytick_15">
     <g id="line2d_53">
      <path clip-path="url(#pde8b77341f)" d="M 223.810369 230.64 
L 375.992187 230.64 
" style="fill:none;stroke:#ffffff;stroke-linecap:round;"/>
     </g>
    </g>
    <g id="ytick_16">
     <g id="line2d_54">
      <path clip-path="url(#pde8b77341f)" d="M 223.810369 203.012621 
L 375.992187 203.012621 
" style="fill:none;stroke:#ffffff;stroke-linecap:round;"/>
     </g>
    </g>
   </g>
   <g id="PolyCollection_8">
    <defs>
     <path d="M 275.505997 -27.352197 
L 275.505997 -27.345938 
L 276.242759 -27.345938 
L 276.979522 -27.345938 
L 277.716284 -27.345938 
L 278.453047 -27.345938 
L 279.189809 -27.345938 
L 279.926572 -27.345938 
L 280.663334 -27.345938 
L 281.400097 -27.345938 
L 282.136859 -27.345938 
L 282.873621 -27.345938 
L 283.610384 -27.345938 
L 284.347146 -27.345938 
L 285.083909 -27.345938 
L 285.820671 -27.345938 
L 286.557434 -27.345938 
L 287.294196 -27.345938 
L 288.030959 -27.345938 
L 288.767721 -27.345938 
L 289.504484 -27.345938 
L 290.241246 -27.345938 
L 290.978009 -27.345938 
L 291.714771 -27.345938 
L 292.451534 -27.345938 
L 293.188296 -27.345938 
L 293.925059 -27.345938 
L 294.661821 -27.345938 
L 295.398584 -27.345938 
L 296.135346 -27.345938 
L 296.872109 -27.345938 
L 297.608871 -27.345938 
L 298.345634 -27.345938 
L 299.082396 -27.345938 
L 299.819159 -27.345938 
L 300.555921 -27.345938 
L 301.292684 -27.345938 
L 302.029446 -27.345938 
L 302.766209 -27.345938 
L 303.502971 -27.345938 
L 304.239734 -27.345938 
L 304.976496 -27.345938 
L 305.713258 -27.345938 
L 306.450021 -27.345938 
L 307.186783 -27.345938 
L 307.923546 -27.345938 
L 308.660308 -27.345938 
L 309.397071 -27.345938 
L 310.133833 -27.345938 
L 310.870596 -27.345938 
L 311.607358 -27.345938 
L 312.344121 -27.345938 
L 313.080883 -27.345938 
L 313.817646 -27.345938 
L 314.554408 -27.345938 
L 315.291171 -27.345938 
L 316.027933 -27.345938 
L 316.764696 -27.345938 
L 317.501458 -27.345938 
L 318.238221 -27.345938 
L 318.974983 -27.345938 
L 319.711746 -27.345938 
L 320.448508 -27.345938 
L 321.185271 -27.345938 
L 321.922033 -27.345938 
L 322.658796 -27.345938 
L 323.395558 -27.345938 
L 324.132321 -27.345938 
L 324.869083 -27.345938 
L 325.605846 -27.345938 
L 326.342608 -27.345938 
L 327.079371 -27.345938 
L 327.816133 -27.345938 
L 328.552896 -27.345938 
L 329.289658 -27.345938 
L 330.02642 -27.345938 
L 330.763183 -27.345938 
L 331.499945 -27.345938 
L 332.236708 -27.345938 
L 332.97347 -27.345938 
L 333.710233 -27.345938 
L 334.446995 -27.345938 
L 335.183758 -27.345938 
L 335.92052 -27.345938 
L 336.657283 -27.345938 
L 337.394045 -27.345938 
L 338.130808 -27.345938 
L 338.86757 -27.345938 
L 339.604333 -27.345938 
L 340.341095 -27.345938 
L 341.077858 -27.345938 
L 341.81462 -27.345938 
L 342.551383 -27.345938 
L 343.288145 -27.345938 
L 344.024908 -27.345938 
L 344.76167 -27.345938 
L 345.498433 -27.345938 
L 346.235195 -27.345938 
L 346.971958 -27.345938 
L 347.70872 -27.345938 
L 348.445483 -27.345938 
L 349.182245 -27.345938 
L 349.919008 -27.345938 
L 350.65577 -27.345938 
L 351.392533 -27.345938 
L 352.129295 -27.345938 
L 352.866057 -27.345938 
L 353.60282 -27.345938 
L 354.339582 -27.345938 
L 355.076345 -27.345938 
L 355.813107 -27.345938 
L 356.54987 -27.345938 
L 357.286632 -27.345938 
L 358.023395 -27.345938 
L 358.760157 -27.345938 
L 359.49692 -27.345938 
L 360.233682 -27.345938 
L 360.970445 -27.345938 
L 361.707207 -27.345938 
L 362.44397 -27.345938 
L 363.180732 -27.345938 
L 363.917495 -27.345938 
L 364.654257 -27.345938 
L 365.39102 -27.345938 
L 366.127782 -27.345938 
L 366.864545 -27.345938 
L 367.601307 -27.345938 
L 368.33807 -27.345938 
L 369.074832 -27.345938 
L 369.074832 -27.350257 
L 369.074832 -27.350257 
L 368.33807 -27.350533 
L 367.601307 -27.352776 
L 366.864545 -27.357198 
L 366.127782 -27.364286 
L 365.39102 -27.374592 
L 364.654257 -27.388491 
L 363.917495 -27.405922 
L 363.180732 -27.426164 
L 362.44397 -27.447732 
L 361.707207 -27.468472 
L 360.970445 -27.48588 
L 360.233682 -27.497596 
L 359.49692 -27.501954 
L 358.760157 -27.498441 
L 358.023395 -27.487914 
L 357.286632 -27.472558 
L 356.54987 -27.455634 
L 355.813107 -27.441175 
L 355.076345 -27.433783 
L 354.339582 -27.438616 
L 353.60282 -27.461545 
L 352.866057 -27.509339 
L 352.129295 -27.589672 
L 351.392533 -27.710744 
L 350.65577 -27.880465 
L 349.919008 -28.105265 
L 349.182245 -28.388864 
L 348.445483 -28.731422 
L 347.70872 -29.129525 
L 346.971958 -29.577234 
L 346.235195 -30.068106 
L 345.498433 -30.59766 
L 344.76167 -31.165503 
L 344.024908 -31.776366 
L 343.288145 -32.439622 
L 342.551383 -33.167443 
L 341.81462 -33.972193 
L 341.077858 -34.863897 
L 340.341095 -35.848374 
L 339.604333 -36.926225 
L 338.86757 -38.092511 
L 338.130808 -39.336887 
L 337.394045 -40.644213 
L 336.657283 -41.995922 
L 335.92052 -43.372375 
L 335.183758 -44.755994 
L 334.446995 -46.134286 
L 333.710233 -47.501556 
L 332.97347 -48.858414 
L 332.236708 -50.209134 
L 331.499945 -51.558 
L 330.763183 -52.906297 
L 330.02642 -54.251246 
L 329.289658 -55.587036 
L 328.552896 -56.906942 
L 327.816133 -58.204946 
L 327.079371 -59.475614 
L 326.342608 -60.712071 
L 325.605846 -61.903 
L 324.869083 -63.030245 
L 324.132321 -64.068438 
L 323.395558 -64.987324 
L 322.658796 -65.756466 
L 321.922033 -66.351135 
L 321.185271 -66.757695 
L 320.448508 -66.97678 
L 319.711746 -67.023045 
L 318.974983 -66.921225 
L 318.238221 -66.699413 
L 317.501458 -66.381545 
L 316.764696 -65.981598 
L 316.027933 -65.501555 
L 315.291171 -64.933881 
L 314.554408 -64.267444 
L 313.817646 -63.494356 
L 313.080883 -62.614812 
L 312.344121 -61.63796 
L 311.607358 -60.578678 
L 310.870596 -59.452123 
L 310.133833 -58.268915 
L 309.397071 -57.033491 
L 308.660308 -55.746572 
L 307.923546 -54.410583 
L 307.186783 -53.035352 
L 306.450021 -51.641097 
L 305.713258 -50.256835 
L 304.976496 -48.914332 
L 304.239734 -47.639755 
L 303.502971 -46.446244 
L 302.766209 -45.330361 
L 302.029446 -44.273868 
L 301.292684 -43.250186 
L 300.555921 -42.233189 
L 299.819159 -41.205289 
L 299.082396 -40.162275 
L 298.345634 -39.113784 
L 297.608871 -38.07987 
L 296.872109 -37.085276 
L 296.135346 -36.153398 
L 295.398584 -35.30156 
L 294.661821 -34.538463 
L 293.925059 -33.863918 
L 293.188296 -33.27037 
L 292.451534 -32.74546 
L 291.714771 -32.274851 
L 290.978009 -31.844637 
L 290.241246 -31.442948 
L 289.504484 -31.060639 
L 288.767721 -30.691277 
L 288.030959 -30.330789 
L 287.294196 -29.977174 
L 286.557434 -29.630452 
L 285.820671 -29.292769 
L 285.083909 -28.968407 
L 284.347146 -28.663379 
L 283.610384 -28.384518 
L 282.873621 -28.138193 
L 282.136859 -27.929011 
L 281.400097 -27.758888 
L 280.663334 -27.626769 
L 279.926572 -27.528991 
L 279.189809 -27.460136 
L 278.453047 -27.414053 
L 277.716284 -27.384777 
L 276.979522 -27.367174 
L 276.242759 -27.357251 
L 275.505997 -27.352197 
z
" id="m8a2910d761" style="stroke:#ffffff;stroke-opacity:0.25;"/>
    </defs>
    <g clip-path="url(#pde8b77341f)">
     <use style="fill:#4c72b0;fill-opacity:0.25;stroke:#ffffff;stroke-opacity:0.25;" x="0" xlink:href="#m8a2910d761" y="257.985938"/>
    </g>
   </g>
   <g id="line2d_55">
    <path clip-path="url(#pde8b77341f)" d="M 275.505997 230.633741 
L 279.189809 230.525801 
L 281.400097 230.227049 
L 282.873621 229.847744 
L 285.083909 229.01753 
L 288.767721 227.294661 
L 291.714771 225.711086 
L 293.188296 224.715568 
L 294.661821 223.447475 
L 296.135346 221.832539 
L 298.345634 218.872153 
L 304.239734 210.346182 
L 306.450021 206.34484 
L 309.397071 200.952447 
L 311.607358 197.40726 
L 313.080883 195.371125 
L 314.554408 193.718494 
L 316.027933 192.484382 
L 317.501458 191.604392 
L 318.974983 191.064712 
L 319.711746 190.962892 
L 320.448508 191.009157 
L 321.185271 191.228242 
L 321.922033 191.634803 
L 322.658796 192.229471 
L 324.132321 193.917499 
L 325.605846 196.082938 
L 327.816133 199.780991 
L 332.236708 207.776803 
L 339.604333 221.059713 
L 341.077858 223.12204 
L 342.551383 224.818495 
L 344.024908 226.209572 
L 346.235195 227.917831 
L 347.70872 228.856413 
L 349.182245 229.597074 
L 350.65577 230.105472 
L 352.129295 230.396266 
L 354.339582 230.547322 
L 369.074832 230.63568 
L 369.074832 230.63568 
" style="fill:none;stroke:#4c72b0;stroke-linecap:round;stroke-width:1.5;"/>
   </g>
   <g id="line2d_56">
    <path clip-path="url(#pde8b77341f)" d="M 316.276052 230.64 
L 316.276052 183.370435 
" style="fill:none;stroke:#4c72b0;stroke-linecap:round;stroke-width:1.5;"/>
   </g>
   <g id="patch_38">
    <path d="M 223.810369 230.64 
L 223.810369 183.370435 
" style="fill:none;stroke:#ffffff;stroke-linecap:square;stroke-linejoin:miter;stroke-width:1.25;"/>
   </g>
   <g id="patch_39">
    <path d="M 375.992187 230.64 
L 375.992187 183.370435 
" style="fill:none;stroke:#ffffff;stroke-linecap:square;stroke-linejoin:miter;stroke-width:1.25;"/>
   </g>
   <g id="patch_40">
    <path d="M 223.810369 230.64 
L 375.992187 230.64 
" style="fill:none;stroke:#ffffff;stroke-linecap:square;stroke-linejoin:miter;stroke-width:1.25;"/>
   </g>
   <g id="patch_41">
    <path d="M 223.810369 183.370435 
L 375.992187 183.370435 
" style="fill:none;stroke:#ffffff;stroke-linecap:square;stroke-linejoin:miter;stroke-width:1.25;"/>
   </g>
  </g>
 </g>
 <defs>
  <clipPath id="p0c44cc8c73">
   <rect height="47.269565" width="152.181818" x="41.192188" y="13.2"/>
  </clipPath>
  <clipPath id="p705a58d40d">
   <rect height="47.269565" width="152.181818" x="223.810369" y="13.2"/>
  </clipPath>
  <clipPath id="pdbf18ea115">
   <rect height="47.269565" width="152.181818" x="41.192188" y="69.923478"/>
  </clipPath>
  <clipPath id="pad30d22023">
   <rect height="47.269565" width="152.181818" x="223.810369" y="69.923478"/>
  </clipPath>
  <clipPath id="pe0ed2bfe57">
   <rect height="47.269565" width="152.181818" x="41.192188" y="126.646957"/>
  </clipPath>
  <clipPath id="p993e672cd3">
   <rect height="47.269565" width="152.181818" x="223.810369" y="126.646957"/>
  </clipPath>
  <clipPath id="p5dc7ab8bf7">
   <rect height="47.269565" width="152.181818" x="41.192188" y="183.370435"/>
  </clipPath>
  <clipPath id="pde8b77341f">
   <rect height="47.269565" width="152.181818" x="223.810369" y="183.370435"/>
  </clipPath>
 </defs>
</svg>
