<?xml version="1.0" encoding="utf-8" standalone="no"?>
<!DOCTYPE svg PUBLIC "-//W3C//DTD SVG 1.1//EN"
  "http://www.w3.org/Graphics/SVG/1.1/DTD/svg11.dtd">
<!-- Created with matplotlib (http://matplotlib.org/) -->
<svg version="1.1" viewBox="0 0 451 563" xmlns="http://www.w3.org/2000/svg" xmlns:xlink="http://www.w3.org/1999/xlink">
 <defs>
  <style type="text/css">
*{stroke-linecap:butt;stroke-linejoin:round;}
  </style>
 </defs>
 <g id="figure_1">
  <g id="patch_1">
   <path d="M 0 563.752187 
L 451.746564 563.752187 
L 451.746564 0 
L 0 0 
z
" style="fill:#ffffff;"/>
  </g>
  <g id="axes_1">
   <g id="patch_2">
    <path d="M 28.1 79.961784 
L 444.546564 79.961784 
L 444.546564 21.89625 
L 28.1 21.89625 
z
" style="fill:#eaeaf2;"/>
   </g>
   <g id="matplotlib.axis_1">
    <g id="xtick_1">
     <g id="line2d_1">
      <path clip-path="url(#pdadd7c9526)" d="M 54.69986 79.961784 
L 54.69986 21.89625 
" style="fill:none;stroke:#ffffff;stroke-linecap:round;"/>
     </g>
     <g id="line2d_2"/>
    </g>
    <g id="xtick_2">
     <g id="line2d_3">
      <path clip-path="url(#pdadd7c9526)" d="M 109.25668 79.961784 
L 109.25668 21.89625 
" style="fill:none;stroke:#ffffff;stroke-linecap:round;"/>
     </g>
     <g id="line2d_4"/>
    </g>
    <g id="xtick_3">
     <g id="line2d_5">
      <path clip-path="url(#pdadd7c9526)" d="M 163.8135 79.961784 
L 163.8135 21.89625 
" style="fill:none;stroke:#ffffff;stroke-linecap:round;"/>
     </g>
     <g id="line2d_6"/>
    </g>
    <g id="xtick_4">
     <g id="line2d_7">
      <path clip-path="url(#pdadd7c9526)" d="M 218.370319 79.961784 
L 218.370319 21.89625 
" style="fill:none;stroke:#ffffff;stroke-linecap:round;"/>
     </g>
     <g id="line2d_8"/>
    </g>
    <g id="xtick_5">
     <g id="line2d_9">
      <path clip-path="url(#pdadd7c9526)" d="M 272.927139 79.961784 
L 272.927139 21.89625 
" style="fill:none;stroke:#ffffff;stroke-linecap:round;"/>
     </g>
     <g id="line2d_10"/>
    </g>
    <g id="xtick_6">
     <g id="line2d_11">
      <path clip-path="url(#pdadd7c9526)" d="M 327.483959 79.961784 
L 327.483959 21.89625 
" style="fill:none;stroke:#ffffff;stroke-linecap:round;"/>
     </g>
     <g id="line2d_12"/>
    </g>
    <g id="xtick_7">
     <g id="line2d_13">
      <path clip-path="url(#pdadd7c9526)" d="M 382.040779 79.961784 
L 382.040779 21.89625 
" style="fill:none;stroke:#ffffff;stroke-linecap:round;"/>
     </g>
     <g id="line2d_14"/>
    </g>
    <g id="xtick_8">
     <g id="line2d_15">
      <path clip-path="url(#pdadd7c9526)" d="M 436.597598 79.961784 
L 436.597598 21.89625 
" style="fill:none;stroke:#ffffff;stroke-linecap:round;"/>
     </g>
     <g id="line2d_16"/>
    </g>
   </g>
   <g id="matplotlib.axis_2">
    <g id="ytick_1">
     <g id="line2d_17">
      <path clip-path="url(#pdadd7c9526)" d="M 28.1 77.323615 
L 444.546564 77.323615 
" style="fill:none;stroke:#ffffff;stroke-linecap:round;"/>
     </g>
     <g id="line2d_18"/>
     <g id="text_1">
      <!-- 0.0 -->
      <defs>
       <path d="M 51.703125 34.421875 
Q 51.703125 24.515625 49.828125 17.75 
Q 47.953125 10.984375 44.703125 6.8125 
Q 41.453125 2.640625 37.0625 0.828125 
Q 32.671875 -0.984375 27.6875 -0.984375 
Q 22.65625 -0.984375 18.3125 0.828125 
Q 13.96875 2.640625 10.765625 6.78125 
Q 7.5625 10.9375 5.734375 17.703125 
Q 3.90625 24.46875 3.90625 34.421875 
Q 3.90625 44.828125 5.734375 51.640625 
Q 7.5625 58.453125 10.78125 62.5 
Q 14.015625 66.546875 18.40625 68.1875 
Q 22.796875 69.828125 27.984375 69.828125 
Q 32.90625 69.828125 37.21875 68.1875 
Q 41.546875 66.546875 44.765625 62.5 
Q 48 58.453125 49.84375 51.640625 
Q 51.703125 44.828125 51.703125 34.421875 
z
M 42.78125 34.421875 
Q 42.78125 42.625 41.796875 48.0625 
Q 40.828125 53.515625 38.921875 56.765625 
Q 37.015625 60.015625 34.25 61.359375 
Q 31.5 62.703125 27.984375 62.703125 
Q 24.265625 62.703125 21.4375 61.328125 
Q 18.609375 59.96875 16.671875 56.71875 
Q 14.75 53.46875 13.765625 48.015625 
Q 12.796875 42.578125 12.796875 34.421875 
Q 12.796875 26.515625 13.796875 21.09375 
Q 14.796875 15.671875 16.71875 12.375 
Q 18.65625 9.078125 21.4375 7.640625 
Q 24.21875 6.203125 27.78125 6.203125 
Q 31.25 6.203125 34.03125 7.640625 
Q 36.8125 9.078125 38.734375 12.375 
Q 40.671875 15.671875 41.71875 21.09375 
Q 42.78125 26.515625 42.78125 34.421875 
z
" id="LiberationSans-30"/>
       <path d="M 9.125 0 
L 9.125 10.6875 
L 18.65625 10.6875 
L 18.65625 0 
z
" id="LiberationSans-2e"/>
      </defs>
      <g style="fill:#262626;" transform="translate(7.2 80.947052)scale(0.1 -0.1)">
       <use xlink:href="#LiberationSans-30"/>
       <use x="55.615234" xlink:href="#LiberationSans-2e"/>
       <use x="83.398438" xlink:href="#LiberationSans-30"/>
      </g>
     </g>
    </g>
    <g id="ytick_2">
     <g id="line2d_19">
      <path clip-path="url(#pdadd7c9526)" d="M 28.1 41.695387 
L 444.546564 41.695387 
" style="fill:none;stroke:#ffffff;stroke-linecap:round;"/>
     </g>
     <g id="line2d_20"/>
     <g id="text_2">
      <!-- 2.5 -->
      <defs>
       <path d="M 5.03125 0 
L 5.03125 6.203125 
Q 7.515625 11.921875 11.109375 16.28125 
Q 14.703125 20.65625 18.65625 24.1875 
Q 22.609375 27.734375 26.484375 30.765625 
Q 30.375 33.796875 33.5 36.8125 
Q 36.625 39.84375 38.546875 43.15625 
Q 40.484375 46.484375 40.484375 50.6875 
Q 40.484375 53.609375 39.59375 55.828125 
Q 38.71875 58.0625 37.0625 59.5625 
Q 35.40625 61.078125 33.078125 61.828125 
Q 30.765625 62.59375 27.9375 62.59375 
Q 25.296875 62.59375 22.96875 61.859375 
Q 20.65625 61.140625 18.84375 59.671875 
Q 17.046875 58.203125 15.890625 56.03125 
Q 14.75 53.859375 14.40625 50.984375 
L 5.421875 51.8125 
Q 5.859375 55.515625 7.46875 58.78125 
Q 9.078125 62.0625 11.90625 64.53125 
Q 14.75 67 18.71875 68.40625 
Q 22.703125 69.828125 27.9375 69.828125 
Q 33.0625 69.828125 37.0625 68.609375 
Q 41.0625 67.390625 43.8125 64.984375 
Q 46.578125 62.59375 48.046875 59.078125 
Q 49.515625 55.5625 49.515625 50.984375 
Q 49.515625 47.515625 48.265625 44.390625 
Q 47.015625 41.265625 44.9375 38.421875 
Q 42.875 35.59375 40.140625 32.953125 
Q 37.40625 30.328125 34.421875 27.8125 
Q 31.453125 25.296875 28.421875 22.828125 
Q 25.390625 20.359375 22.71875 17.859375 
Q 20.0625 15.375 17.96875 12.8125 
Q 15.875 10.25 14.703125 7.46875 
L 50.59375 7.46875 
L 50.59375 0 
z
" id="LiberationSans-32"/>
       <path d="M 51.421875 22.40625 
Q 51.421875 17.234375 49.859375 12.9375 
Q 48.296875 8.640625 45.21875 5.53125 
Q 42.140625 2.4375 37.578125 0.71875 
Q 33.015625 -0.984375 27 -0.984375 
Q 21.578125 -0.984375 17.546875 0.28125 
Q 13.53125 1.5625 10.734375 3.78125 
Q 7.953125 6 6.3125 8.984375 
Q 4.6875 11.96875 4 15.375 
L 12.890625 16.40625 
Q 13.421875 14.453125 14.390625 12.625 
Q 15.375 10.796875 17.0625 9.34375 
Q 18.75 7.90625 21.21875 7.046875 
Q 23.6875 6.203125 27.203125 6.203125 
Q 30.609375 6.203125 33.390625 7.25 
Q 36.1875 8.296875 38.15625 10.34375 
Q 40.140625 12.40625 41.203125 15.375 
Q 42.28125 18.359375 42.28125 22.21875 
Q 42.28125 25.390625 41.25 28.046875 
Q 40.234375 30.71875 38.328125 32.640625 
Q 36.421875 34.578125 33.65625 35.640625 
Q 30.90625 36.71875 27.390625 36.71875 
Q 25.203125 36.71875 23.34375 36.328125 
Q 21.484375 35.9375 19.890625 35.25 
Q 18.3125 34.578125 17.015625 33.671875 
Q 15.71875 32.765625 14.59375 31.78125 
L 6 31.78125 
L 8.296875 68.796875 
L 47.40625 68.796875 
L 47.40625 61.328125 
L 16.3125 61.328125 
L 14.984375 39.5 
Q 17.328125 41.3125 20.84375 42.59375 
Q 24.359375 43.890625 29.203125 43.890625 
Q 34.328125 43.890625 38.421875 42.328125 
Q 42.53125 40.765625 45.40625 37.90625 
Q 48.296875 35.0625 49.859375 31.109375 
Q 51.421875 27.15625 51.421875 22.40625 
z
" id="LiberationSans-35"/>
      </defs>
      <g style="fill:#262626;" transform="translate(7.2 45.318824)scale(0.1 -0.1)">
       <use xlink:href="#LiberationSans-32"/>
       <use x="55.615234" xlink:href="#LiberationSans-2e"/>
       <use x="83.398438" xlink:href="#LiberationSans-35"/>
      </g>
     </g>
    </g>
   </g>
   <g id="line2d_21">
    <path clip-path="url(#pdadd7c9526)" d="M 216.202587 77.321848 
L 220.912925 77.212016 
L 224.838206 77.109564 
L 229.548544 76.968106 
L 231.118657 76.769281 
L 232.688769 76.393971 
L 235.043938 75.544779 
L 236.614051 74.72384 
L 238.184163 73.563335 
L 239.754276 71.96592 
L 241.324388 69.98329 
L 243.679557 66.549974 
L 245.24967 63.918633 
L 246.819782 60.936048 
L 249.174951 55.911287 
L 250.745064 52.063286 
L 252.315176 47.393956 
L 255.455402 36.817865 
L 256.240458 34.696032 
L 257.025514 32.918793 
L 258.595627 30.160747 
L 260.165739 28.017641 
L 261.735852 26.361398 
L 263.305965 25.289814 
L 264.876077 24.677418 
L 265.661133 24.535592 
L 266.44619 24.575753 
L 267.231246 24.884838 
L 268.016302 25.528695 
L 268.801359 26.513317 
L 270.371471 29.225317 
L 271.941584 32.404705 
L 273.511696 36.007642 
L 275.081809 40.357919 
L 277.436978 48.02488 
L 279.792147 55.413449 
L 281.362259 59.545429 
L 282.932372 62.824917 
L 284.502484 65.441498 
L 286.857653 68.807754 
L 288.427766 70.668165 
L 289.997878 72.208438 
L 292.353047 74.176643 
L 293.92316 75.232225 
L 295.493272 75.979243 
L 297.063385 76.422101 
L 299.418554 76.770757 
L 303.343835 77.163951 
L 307.269117 77.272583 
L 315.904736 77.322442 
L 315.904736 77.322442 
" style="fill:none;stroke:#4c72b0;stroke-linecap:round;stroke-width:1.75;"/>
   </g>
   <g id="line2d_22">
    <path clip-path="url(#pdadd7c9526)" d="M 221.609826 77.31536 
L 225.058607 77.210325 
L 227.127876 76.956449 
L 229.197145 76.491253 
L 233.335683 75.276896 
L 235.404951 74.486959 
L 236.784464 73.759358 
L 238.163977 72.805528 
L 239.543489 71.559688 
L 240.923002 69.921253 
L 242.302514 67.787983 
L 243.682027 65.131439 
L 245.751296 60.356838 
L 251.269346 46.745533 
L 252.648859 44.067084 
L 256.09764 37.834144 
L 258.166909 33.215242 
L 259.546422 30.155436 
L 260.925934 27.698597 
L 261.615691 26.816692 
L 262.305447 26.194918 
L 262.995203 25.83297 
L 263.68496 25.717407 
L 264.374716 25.827115 
L 265.064472 26.138305 
L 265.754228 26.627697 
L 267.133741 28.053616 
L 268.513254 29.92542 
L 270.582523 33.164882 
L 272.651791 36.687647 
L 274.031304 39.383691 
L 275.410817 42.599479 
L 276.790329 46.419049 
L 280.928867 58.740288 
L 282.30838 61.8244 
L 283.687892 64.222802 
L 285.067405 66.162219 
L 287.82643 69.491277 
L 290.585455 72.463906 
L 291.964968 73.692114 
L 293.34448 74.647076 
L 294.723993 75.313386 
L 296.103505 75.753561 
L 299.552287 76.479342 
L 303.001068 77.049131 
L 305.760094 77.263663 
L 309.208875 77.31694 
L 309.208875 77.31694 
" style="fill:none;stroke:#55a868;stroke-linecap:round;stroke-width:1.75;"/>
   </g>
   <g id="line2d_23">
    <path clip-path="url(#pdadd7c9526)" d="M 260.304784 79.961784 
L 260.304784 21.89625 
" style="fill:none;stroke:#000000;stroke-dasharray:1.75,2.8875;stroke-dashoffset:0;stroke-width:1.75;"/>
   </g>
   <g id="patch_3">
    <path d="M 28.1 79.961784 
L 28.1 21.89625 
" style="fill:none;"/>
   </g>
   <g id="patch_4">
    <path d="M 444.546564 79.961784 
L 444.546564 21.89625 
" style="fill:none;"/>
   </g>
   <g id="patch_5">
    <path d="M 28.1 79.961784 
L 444.546564 79.961784 
" style="fill:none;"/>
   </g>
   <g id="patch_6">
    <path d="M 28.1 21.89625 
L 444.546564 21.89625 
" style="fill:none;"/>
   </g>
   <g id="text_3">
    <!-- W[0] -->
    <defs>
     <path d="M 73.78125 0 
L 62.640625 0 
L 50.734375 43.703125 
Q 50.203125 45.5625 49.578125 48.09375 
Q 48.96875 50.640625 48.484375 52.9375 
Q 47.90625 55.609375 47.3125 58.40625 
Q 46.6875 55.5625 46.09375 52.875 
Q 45.5625 50.53125 44.96875 48.046875 
Q 44.390625 45.5625 43.84375 43.703125 
L 31.84375 0 
L 20.703125 0 
L 0.4375 68.796875 
L 10.15625 68.796875 
L 22.515625 25.09375 
Q 23.34375 22.015625 24.09375 18.984375 
Q 24.859375 15.96875 25.390625 13.578125 
Q 26.03125 10.75 26.5625 8.203125 
Q 27.296875 11.578125 28.078125 14.84375 
Q 28.421875 16.21875 28.765625 17.71875 
Q 29.109375 19.234375 29.46875 20.703125 
Q 29.828125 22.171875 30.1875 23.515625 
Q 30.5625 24.859375 30.859375 25.984375 
L 42.828125 68.796875 
L 51.765625 68.796875 
L 63.71875 25.984375 
Q 64.015625 24.859375 64.375 23.515625 
Q 64.75 22.171875 65.109375 20.71875 
Q 65.484375 19.28125 65.8125 17.765625 
Q 66.15625 16.265625 66.5 14.890625 
Q 67.28125 11.625 68.015625 8.203125 
Q 68.0625 8.203125 68.453125 9.890625 
Q 68.84375 11.578125 69.421875 14.109375 
Q 70.015625 16.65625 70.71875 19.609375 
Q 71.4375 22.5625 72.171875 25.09375 
L 84.328125 68.796875 
L 94.046875 68.796875 
z
" id="LiberationSans-57"/>
     <path d="M 7.125 -20.75 
L 7.125 72.46875 
L 27 72.46875 
L 27 66.15625 
L 15.625 66.15625 
L 15.625 -14.453125 
L 27 -14.453125 
L 27 -20.75 
z
" id="LiberationSans-5b"/>
     <path d="M 0.78125 -20.75 
L 0.78125 -14.453125 
L 12.15625 -14.453125 
L 12.15625 66.15625 
L 0.78125 66.15625 
L 0.78125 72.46875 
L 20.65625 72.46875 
L 20.65625 -20.75 
z
" id="LiberationSans-5d"/>
    </defs>
    <g style="fill:#262626;" transform="translate(223.989532 15.89625)scale(0.12 -0.12)">
     <use xlink:href="#LiberationSans-57"/>
     <use x="94.384766" xlink:href="#LiberationSans-5b"/>
     <use x="122.167969" xlink:href="#LiberationSans-30"/>
     <use x="177.783203" xlink:href="#LiberationSans-5d"/>
    </g>
   </g>
   <g id="legend_1">
    <g id="line2d_24">
     <path d="M 360.309064 34.643125 
L 380.309064 34.643125 
" style="fill:none;stroke:#4c72b0;stroke-linecap:round;stroke-width:1.75;"/>
    </g>
    <g id="line2d_25"/>
    <g id="text_4">
     <!-- MCMC -->
     <defs>
      <path d="M 66.703125 0 
L 66.703125 45.90625 
Q 66.703125 48.390625 66.75 50.96875 
Q 66.796875 53.5625 66.890625 55.71875 
Q 67 58.203125 67.140625 60.546875 
Q 66.453125 58.0625 65.71875 55.609375 
Q 65.09375 53.515625 64.328125 51.140625 
Q 63.578125 48.78125 62.84375 46.875 
L 45.0625 0 
L 38.53125 0 
L 20.515625 46.875 
Q 20.21875 47.609375 19.890625 48.578125 
Q 19.578125 49.5625 19.203125 50.65625 
Q 18.84375 51.765625 18.46875 52.90625 
Q 18.109375 54.046875 17.78125 55.171875 
Q 16.9375 57.765625 16.15625 60.546875 
Q 16.21875 57.8125 16.3125 55.125 
Q 16.40625 52.828125 16.453125 50.3125 
Q 16.5 47.796875 16.5 45.90625 
L 16.5 0 
L 8.203125 0 
L 8.203125 68.796875 
L 20.453125 68.796875 
L 38.765625 21.09375 
Q 39.109375 20.125 39.59375 18.578125 
Q 40.09375 17.046875 40.53125 15.421875 
Q 40.96875 13.8125 41.328125 12.375 
Q 41.703125 10.9375 41.84375 10.15625 
Q 42 10.9375 42.390625 12.40625 
Q 42.78125 13.875 43.28125 15.484375 
Q 43.796875 17.09375 44.28125 18.609375 
Q 44.78125 20.125 45.171875 21.09375 
L 63.140625 68.796875 
L 75.09375 68.796875 
L 75.09375 0 
z
" id="LiberationSans-4d"/>
      <path d="M 38.671875 62.203125 
Q 32.8125 62.203125 28.296875 60.25 
Q 23.78125 58.296875 20.71875 54.6875 
Q 17.671875 51.078125 16.109375 46 
Q 14.546875 40.921875 14.546875 34.71875 
Q 14.546875 28.515625 16.234375 23.359375 
Q 17.921875 18.21875 21.0625 14.5 
Q 24.21875 10.796875 28.78125 8.734375 
Q 33.34375 6.6875 39.0625 6.6875 
Q 43.0625 6.6875 46.359375 7.734375 
Q 49.65625 8.796875 52.3125 10.6875 
Q 54.984375 12.59375 57.078125 15.203125 
Q 59.1875 17.828125 60.796875 21 
L 68.40625 17.1875 
Q 66.546875 13.328125 63.8125 10 
Q 61.078125 6.6875 57.390625 4.25 
Q 53.71875 1.8125 49.046875 0.40625 
Q 44.390625 -0.984375 38.625 -0.984375 
Q 30.28125 -0.984375 24 1.671875 
Q 17.71875 4.34375 13.5 9.109375 
Q 9.28125 13.875 7.171875 20.40625 
Q 5.078125 26.953125 5.078125 34.71875 
Q 5.078125 42.78125 7.296875 49.265625 
Q 9.515625 55.765625 13.78125 60.328125 
Q 18.0625 64.890625 24.3125 67.359375 
Q 30.5625 69.828125 38.578125 69.828125 
Q 49.5625 69.828125 56.9375 65.53125 
Q 64.3125 61.234375 67.78125 52.78125 
L 58.9375 49.859375 
Q 57.953125 52.296875 56.296875 54.515625 
Q 54.640625 56.734375 52.140625 58.4375 
Q 49.65625 60.15625 46.3125 61.171875 
Q 42.96875 62.203125 38.671875 62.203125 
z
" id="LiberationSans-43"/>
     </defs>
     <g style="fill:#262626;" transform="translate(388.309064 38.143125)scale(0.1 -0.1)">
      <use xlink:href="#LiberationSans-4d"/>
      <use x="83.300781" xlink:href="#LiberationSans-43"/>
      <use x="155.517578" xlink:href="#LiberationSans-4d"/>
      <use x="238.818359" xlink:href="#LiberationSans-43"/>
     </g>
    </g>
    <g id="line2d_26">
     <path d="M 360.309064 48.965 
L 380.309064 48.965 
" style="fill:none;stroke:#55a868;stroke-linecap:round;stroke-width:1.75;"/>
    </g>
    <g id="line2d_27"/>
    <g id="text_5">
     <!-- Variational -->
     <defs>
      <path d="M 38.1875 0 
L 28.515625 0 
L 0.4375 68.796875 
L 10.25 68.796875 
L 29.296875 20.359375 
Q 30.03125 18.171875 30.765625 15.984375 
Q 31.5 13.8125 32.078125 12.109375 
Q 32.765625 10.109375 33.40625 8.203125 
Q 33.984375 10.015625 34.671875 12.015625 
Q 35.25 13.71875 35.953125 15.859375 
Q 36.671875 18.015625 37.5 20.359375 
L 56.453125 68.796875 
L 66.265625 68.796875 
z
" id="LiberationSans-56"/>
      <path d="M 20.21875 -0.984375 
Q 12.25 -0.984375 8.25 3.21875 
Q 4.25 7.421875 4.25 14.75 
Q 4.25 19.96875 6.21875 23.3125 
Q 8.203125 26.65625 11.390625 28.5625 
Q 14.59375 30.46875 18.6875 31.203125 
Q 22.796875 31.9375 27.046875 32.03125 
L 38.921875 32.234375 
L 38.921875 35.109375 
Q 38.921875 38.375 38.234375 40.671875 
Q 37.546875 42.96875 36.125 44.375 
Q 34.71875 45.796875 32.59375 46.453125 
Q 30.46875 47.125 27.59375 47.125 
Q 25.046875 47.125 23 46.75 
Q 20.953125 46.390625 19.4375 45.4375 
Q 17.921875 44.484375 16.984375 42.84375 
Q 16.0625 41.21875 15.765625 38.71875 
L 6.59375 39.546875 
Q 7.078125 42.671875 8.4375 45.28125 
Q 9.8125 47.90625 12.328125 49.796875 
Q 14.84375 51.703125 18.625 52.75 
Q 22.40625 53.8125 27.78125 53.8125 
Q 37.75 53.8125 42.765625 49.234375 
Q 47.796875 44.671875 47.796875 36.03125 
L 47.796875 13.28125 
Q 47.796875 9.375 48.828125 7.390625 
Q 49.859375 5.421875 52.734375 5.421875 
Q 53.46875 5.421875 54.203125 5.515625 
Q 54.9375 5.609375 55.609375 5.765625 
L 55.609375 0.296875 
Q 53.953125 -0.09375 52.3125 -0.28125 
Q 50.6875 -0.484375 48.828125 -0.484375 
Q 46.34375 -0.484375 44.5625 0.171875 
Q 42.78125 0.828125 41.65625 2.171875 
Q 40.53125 3.515625 39.9375 5.484375 
Q 39.359375 7.46875 39.203125 10.109375 
L 38.921875 10.109375 
Q 37.5 7.5625 35.8125 5.515625 
Q 34.125 3.46875 31.875 2.03125 
Q 29.640625 0.59375 26.78125 -0.1875 
Q 23.921875 -0.984375 20.21875 -0.984375 
z
M 22.21875 5.609375 
Q 26.421875 5.609375 29.5625 7.140625 
Q 32.71875 8.6875 34.78125 11.078125 
Q 36.859375 13.484375 37.890625 16.3125 
Q 38.921875 19.140625 38.921875 21.734375 
L 38.921875 26.078125 
L 29.296875 25.875 
Q 26.078125 25.828125 23.171875 25.40625 
Q 20.265625 25 18.0625 23.78125 
Q 15.875 22.5625 14.578125 20.359375 
Q 13.28125 18.171875 13.28125 14.59375 
Q 13.28125 10.296875 15.59375 7.953125 
Q 17.921875 5.609375 22.21875 5.609375 
z
" id="LiberationSans-61"/>
      <path d="M 6.9375 0 
L 6.9375 40.53125 
Q 6.9375 42.1875 6.90625 43.921875 
Q 6.890625 45.65625 6.828125 47.265625 
Q 6.78125 48.875 6.734375 50.28125 
Q 6.6875 51.703125 6.640625 52.828125 
L 14.9375 52.828125 
Q 14.984375 51.703125 15.0625 50.265625 
Q 15.140625 48.828125 15.203125 47.3125 
Q 15.28125 45.796875 15.296875 44.40625 
Q 15.328125 43.015625 15.328125 42.046875 
L 15.53125 42.046875 
Q 16.453125 45.0625 17.5 47.28125 
Q 18.5625 49.515625 19.96875 50.953125 
Q 21.390625 52.390625 23.34375 53.09375 
Q 25.296875 53.8125 28.078125 53.8125 
Q 29.15625 53.8125 30.125 53.640625 
Q 31.109375 53.46875 31.640625 53.328125 
L 31.640625 45.265625 
Q 30.765625 45.515625 29.59375 45.625 
Q 28.421875 45.75 26.953125 45.75 
Q 23.921875 45.75 21.796875 44.375 
Q 19.671875 43.015625 18.328125 40.59375 
Q 17 38.1875 16.359375 34.84375 
Q 15.71875 31.5 15.71875 27.546875 
L 15.71875 0 
z
" id="LiberationSans-72"/>
      <path d="M 6.6875 64.0625 
L 6.6875 72.46875 
L 15.484375 72.46875 
L 15.484375 64.0625 
z
M 6.6875 0 
L 6.6875 52.828125 
L 15.484375 52.828125 
L 15.484375 0 
z
" id="LiberationSans-69"/>
      <path d="M 27.046875 0.390625 
Q 25.046875 -0.140625 22.96875 -0.453125 
Q 20.90625 -0.78125 18.171875 -0.78125 
Q 7.625 -0.78125 7.625 11.1875 
L 7.625 46.4375 
L 1.515625 46.4375 
L 1.515625 52.828125 
L 7.953125 52.828125 
L 10.546875 64.65625 
L 16.40625 64.65625 
L 16.40625 52.828125 
L 26.171875 52.828125 
L 26.171875 46.4375 
L 16.40625 46.4375 
L 16.40625 13.09375 
Q 16.40625 9.28125 17.640625 7.734375 
Q 18.890625 6.203125 21.96875 6.203125 
Q 23.25 6.203125 24.4375 6.390625 
Q 25.640625 6.59375 27.046875 6.890625 
z
" id="LiberationSans-74"/>
      <path d="M 51.421875 26.46875 
Q 51.421875 12.59375 45.3125 5.796875 
Q 39.203125 -0.984375 27.59375 -0.984375 
Q 22.078125 -0.984375 17.71875 0.671875 
Q 13.375 2.34375 10.375 5.765625 
Q 7.375 9.1875 5.78125 14.328125 
Q 4.203125 19.484375 4.203125 26.46875 
Q 4.203125 53.8125 27.875 53.8125 
Q 34.03125 53.8125 38.5 52.09375 
Q 42.96875 50.390625 45.828125 46.96875 
Q 48.6875 43.5625 50.046875 38.421875 
Q 51.421875 33.296875 51.421875 26.46875 
z
M 42.1875 26.46875 
Q 42.1875 32.625 41.234375 36.625 
Q 40.28125 40.625 38.453125 43.015625 
Q 36.625 45.40625 33.984375 46.359375 
Q 31.34375 47.3125 28.03125 47.3125 
Q 24.65625 47.3125 21.9375 46.3125 
Q 19.234375 45.3125 17.328125 42.890625 
Q 15.4375 40.484375 14.421875 36.46875 
Q 13.421875 32.46875 13.421875 26.46875 
Q 13.421875 20.3125 14.5 16.28125 
Q 15.578125 12.25 17.453125 9.859375 
Q 19.34375 7.46875 21.90625 6.484375 
Q 24.46875 5.515625 27.484375 5.515625 
Q 30.859375 5.515625 33.59375 6.46875 
Q 36.328125 7.421875 38.234375 9.8125 
Q 40.140625 12.203125 41.15625 16.25 
Q 42.1875 20.3125 42.1875 26.46875 
z
" id="LiberationSans-6f"/>
      <path d="M 40.28125 0 
L 40.28125 33.5 
Q 40.28125 37.359375 39.71875 39.9375 
Q 39.15625 42.53125 37.890625 44.109375 
Q 36.625 45.703125 34.546875 46.359375 
Q 32.46875 47.015625 29.390625 47.015625 
Q 26.265625 47.015625 23.75 45.921875 
Q 21.234375 44.828125 19.453125 42.75 
Q 17.671875 40.671875 16.6875 37.625 
Q 15.71875 34.578125 15.71875 30.609375 
L 15.71875 0 
L 6.9375 0 
L 6.9375 41.546875 
Q 6.9375 43.21875 6.90625 45.046875 
Q 6.890625 46.875 6.828125 48.5 
Q 6.78125 50.140625 6.734375 51.3125 
Q 6.6875 52.484375 6.640625 52.828125 
L 14.9375 52.828125 
Q 14.984375 52.59375 15.03125 51.515625 
Q 15.09375 50.4375 15.15625 49.046875 
Q 15.234375 47.65625 15.28125 46.21875 
Q 15.328125 44.78125 15.328125 43.796875 
L 15.484375 43.796875 
Q 16.75 46.09375 18.265625 47.953125 
Q 19.78125 49.8125 21.78125 51.09375 
Q 23.78125 52.390625 26.359375 53.09375 
Q 28.953125 53.8125 32.375 53.8125 
Q 36.765625 53.8125 39.9375 52.734375 
Q 43.109375 51.65625 45.15625 49.40625 
Q 47.21875 47.171875 48.171875 43.625 
Q 49.125 40.09375 49.125 35.203125 
L 49.125 0 
z
" id="LiberationSans-6e"/>
      <path d="M 6.734375 0 
L 6.734375 72.46875 
L 15.53125 72.46875 
L 15.53125 0 
z
" id="LiberationSans-6c"/>
     </defs>
     <g style="fill:#262626;" transform="translate(388.309064 52.465)scale(0.1 -0.1)">
      <use xlink:href="#LiberationSans-56"/>
      <use x="66.589844" xlink:href="#LiberationSans-61"/>
      <use x="122.205078" xlink:href="#LiberationSans-72"/>
      <use x="155.505859" xlink:href="#LiberationSans-69"/>
      <use x="177.722656" xlink:href="#LiberationSans-61"/>
      <use x="233.337891" xlink:href="#LiberationSans-74"/>
      <use x="261.121094" xlink:href="#LiberationSans-69"/>
      <use x="283.337891" xlink:href="#LiberationSans-6f"/>
      <use x="338.953125" xlink:href="#LiberationSans-6e"/>
      <use x="394.568359" xlink:href="#LiberationSans-61"/>
      <use x="450.183594" xlink:href="#LiberationSans-6c"/>
     </g>
    </g>
   </g>
  </g>
  <g id="axes_2">
   <g id="patch_7">
    <path d="M 28.1 169.164677 
L 444.546564 169.164677 
L 444.546564 111.099143 
L 28.1 111.099143 
z
" style="fill:#eaeaf2;"/>
   </g>
   <g id="matplotlib.axis_3">
    <g id="xtick_9">
     <g id="line2d_28">
      <path clip-path="url(#p22f0dba983)" d="M 54.69986 169.164677 
L 54.69986 111.099143 
" style="fill:none;stroke:#ffffff;stroke-linecap:round;"/>
     </g>
     <g id="line2d_29"/>
    </g>
    <g id="xtick_10">
     <g id="line2d_30">
      <path clip-path="url(#p22f0dba983)" d="M 109.25668 169.164677 
L 109.25668 111.099143 
" style="fill:none;stroke:#ffffff;stroke-linecap:round;"/>
     </g>
     <g id="line2d_31"/>
    </g>
    <g id="xtick_11">
     <g id="line2d_32">
      <path clip-path="url(#p22f0dba983)" d="M 163.8135 169.164677 
L 163.8135 111.099143 
" style="fill:none;stroke:#ffffff;stroke-linecap:round;"/>
     </g>
     <g id="line2d_33"/>
    </g>
    <g id="xtick_12">
     <g id="line2d_34">
      <path clip-path="url(#p22f0dba983)" d="M 218.370319 169.164677 
L 218.370319 111.099143 
" style="fill:none;stroke:#ffffff;stroke-linecap:round;"/>
     </g>
     <g id="line2d_35"/>
    </g>
    <g id="xtick_13">
     <g id="line2d_36">
      <path clip-path="url(#p22f0dba983)" d="M 272.927139 169.164677 
L 272.927139 111.099143 
" style="fill:none;stroke:#ffffff;stroke-linecap:round;"/>
     </g>
     <g id="line2d_37"/>
    </g>
    <g id="xtick_14">
     <g id="line2d_38">
      <path clip-path="url(#p22f0dba983)" d="M 327.483959 169.164677 
L 327.483959 111.099143 
" style="fill:none;stroke:#ffffff;stroke-linecap:round;"/>
     </g>
     <g id="line2d_39"/>
    </g>
    <g id="xtick_15">
     <g id="line2d_40">
      <path clip-path="url(#p22f0dba983)" d="M 382.040779 169.164677 
L 382.040779 111.099143 
" style="fill:none;stroke:#ffffff;stroke-linecap:round;"/>
     </g>
     <g id="line2d_41"/>
    </g>
    <g id="xtick_16">
     <g id="line2d_42">
      <path clip-path="url(#p22f0dba983)" d="M 436.597598 169.164677 
L 436.597598 111.099143 
" style="fill:none;stroke:#ffffff;stroke-linecap:round;"/>
     </g>
     <g id="line2d_43"/>
    </g>
   </g>
   <g id="matplotlib.axis_4">
    <g id="ytick_3">
     <g id="line2d_44">
      <path clip-path="url(#p22f0dba983)" d="M 28.1 166.526192 
L 444.546564 166.526192 
" style="fill:none;stroke:#ffffff;stroke-linecap:round;"/>
     </g>
     <g id="line2d_45"/>
     <g id="text_6">
      <!-- 0.0 -->
      <g style="fill:#262626;" transform="translate(7.2 170.14963)scale(0.1 -0.1)">
       <use xlink:href="#LiberationSans-30"/>
       <use x="55.615234" xlink:href="#LiberationSans-2e"/>
       <use x="83.398438" xlink:href="#LiberationSans-30"/>
      </g>
     </g>
    </g>
    <g id="ytick_4">
     <g id="line2d_46">
      <path clip-path="url(#p22f0dba983)" d="M 28.1 136.221282 
L 444.546564 136.221282 
" style="fill:none;stroke:#ffffff;stroke-linecap:round;"/>
     </g>
     <g id="line2d_47"/>
     <g id="text_7">
      <!-- 2.5 -->
      <g style="fill:#262626;" transform="translate(7.2 139.84472)scale(0.1 -0.1)">
       <use xlink:href="#LiberationSans-32"/>
       <use x="55.615234" xlink:href="#LiberationSans-2e"/>
       <use x="83.398438" xlink:href="#LiberationSans-35"/>
      </g>
     </g>
    </g>
   </g>
   <g id="line2d_48">
    <path clip-path="url(#p22f0dba983)" d="M 338.046768 166.525317 
L 344.252545 166.40871 
L 353.216445 165.913829 
L 354.595506 165.688432 
L 355.974568 165.260477 
L 358.04316 164.307944 
L 360.801283 162.764708 
L 362.180345 161.741161 
L 363.559406 160.337425 
L 364.938468 158.476837 
L 366.317529 156.18998 
L 368.386122 152.104806 
L 370.454714 147.568625 
L 371.833775 144.158162 
L 373.212837 140.187405 
L 375.281429 133.993221 
L 376.660491 130.606963 
L 378.729083 126.620905 
L 380.108144 123.803921 
L 382.866268 117.408109 
L 383.555798 116.345472 
L 384.245329 115.733954 
L 384.93486 115.570512 
L 385.624391 115.787985 
L 386.313921 116.293354 
L 387.692983 117.853601 
L 389.072044 119.956391 
L 390.451106 122.781008 
L 392.519698 128.153464 
L 396.656883 139.094001 
L 398.725475 144.998807 
L 400.104537 148.240466 
L 401.483598 150.882311 
L 406.999844 160.50494 
L 408.378906 162.178522 
L 409.757967 163.356937 
L 411.137029 164.25543 
L 412.51609 164.923796 
L 413.895152 165.360666 
L 418.032336 166.227866 
L 420.100929 166.433129 
L 424.238113 166.522375 
L 425.617175 166.525335 
L 425.617175 166.525335 
" style="fill:none;stroke:#4c72b0;stroke-linecap:round;stroke-width:1.75;"/>
   </g>
   <g id="line2d_49">
    <path clip-path="url(#p22f0dba983)" d="M 349.173347 166.52229 
L 353.324545 166.41269 
L 355.696658 166.098707 
L 357.475743 165.636943 
L 359.254828 164.89804 
L 360.440884 164.180416 
L 361.626941 163.224249 
L 362.812997 162.002342 
L 363.999054 160.51429 
L 365.18511 158.761859 
L 366.964195 155.610279 
L 368.74328 151.833738 
L 370.522364 147.531196 
L 373.487505 139.62878 
L 381.196873 118.967939 
L 382.382929 116.413478 
L 383.568986 114.540484 
L 384.162014 113.981746 
L 384.755042 113.738486 
L 385.34807 113.837718 
L 385.941099 114.277328 
L 386.534127 115.022331 
L 387.720183 117.159066 
L 393.057438 128.457731 
L 394.836522 133.400293 
L 398.394692 143.949472 
L 399.580748 146.954308 
L 400.766805 149.518694 
L 403.731946 155.024403 
L 406.104059 159.34146 
L 407.290116 161.099666 
L 408.476172 162.47363 
L 409.662229 163.519912 
L 410.848285 164.310865 
L 412.034342 164.896178 
L 413.813426 165.484152 
L 416.185539 165.964844 
L 419.150681 166.343632 
L 422.115822 166.500045 
L 424.487935 166.522376 
L 424.487935 166.522376 
" style="fill:none;stroke:#55a868;stroke-linecap:round;stroke-width:1.75;"/>
   </g>
   <g id="line2d_50">
    <path clip-path="url(#p22f0dba983)" d="M 381.664749 169.164677 
L 381.664749 111.099143 
" style="fill:none;stroke:#000000;stroke-dasharray:1.75,2.8875;stroke-dashoffset:0;stroke-width:1.75;"/>
   </g>
   <g id="patch_8">
    <path d="M 28.1 169.164677 
L 28.1 111.099143 
" style="fill:none;"/>
   </g>
   <g id="patch_9">
    <path d="M 444.546564 169.164677 
L 444.546564 111.099143 
" style="fill:none;"/>
   </g>
   <g id="patch_10">
    <path d="M 28.1 169.164677 
L 444.546564 169.164677 
" style="fill:none;"/>
   </g>
   <g id="patch_11">
    <path d="M 28.1 111.099143 
L 444.546564 111.099143 
" style="fill:none;"/>
   </g>
   <g id="text_8">
    <!-- W[1] -->
    <defs>
     <path d="M 7.625 0 
L 7.625 7.46875 
L 25.140625 7.46875 
L 25.140625 60.40625 
L 9.625 49.3125 
L 9.625 57.625 
L 25.875 68.796875 
L 33.984375 68.796875 
L 33.984375 7.46875 
L 50.734375 7.46875 
L 50.734375 0 
z
" id="LiberationSans-31"/>
    </defs>
    <g style="fill:#262626;" transform="translate(223.989532 105.099143)scale(0.12 -0.12)">
     <use xlink:href="#LiberationSans-57"/>
     <use x="94.384766" xlink:href="#LiberationSans-5b"/>
     <use x="122.167969" xlink:href="#LiberationSans-31"/>
     <use x="177.783203" xlink:href="#LiberationSans-5d"/>
    </g>
   </g>
   <g id="legend_2">
    <g id="line2d_51">
     <path d="M 37.1 123.846018 
L 57.1 123.846018 
" style="fill:none;stroke:#4c72b0;stroke-linecap:round;stroke-width:1.75;"/>
    </g>
    <g id="line2d_52"/>
    <g id="text_9">
     <!-- MCMC -->
     <g style="fill:#262626;" transform="translate(65.1 127.346018)scale(0.1 -0.1)">
      <use xlink:href="#LiberationSans-4d"/>
      <use x="83.300781" xlink:href="#LiberationSans-43"/>
      <use x="155.517578" xlink:href="#LiberationSans-4d"/>
      <use x="238.818359" xlink:href="#LiberationSans-43"/>
     </g>
    </g>
    <g id="line2d_53">
     <path d="M 37.1 138.167893 
L 57.1 138.167893 
" style="fill:none;stroke:#55a868;stroke-linecap:round;stroke-width:1.75;"/>
    </g>
    <g id="line2d_54"/>
    <g id="text_10">
     <!-- Variational -->
     <g style="fill:#262626;" transform="translate(65.1 141.667893)scale(0.1 -0.1)">
      <use xlink:href="#LiberationSans-56"/>
      <use x="66.589844" xlink:href="#LiberationSans-61"/>
      <use x="122.205078" xlink:href="#LiberationSans-72"/>
      <use x="155.505859" xlink:href="#LiberationSans-69"/>
      <use x="177.722656" xlink:href="#LiberationSans-61"/>
      <use x="233.337891" xlink:href="#LiberationSans-74"/>
      <use x="261.121094" xlink:href="#LiberationSans-69"/>
      <use x="283.337891" xlink:href="#LiberationSans-6f"/>
      <use x="338.953125" xlink:href="#LiberationSans-6e"/>
      <use x="394.568359" xlink:href="#LiberationSans-61"/>
      <use x="450.183594" xlink:href="#LiberationSans-6c"/>
     </g>
    </g>
   </g>
  </g>
  <g id="axes_3">
   <g id="patch_12">
    <path d="M 28.1 258.36757 
L 444.546564 258.36757 
L 444.546564 200.302036 
L 28.1 200.302036 
z
" style="fill:#eaeaf2;"/>
   </g>
   <g id="matplotlib.axis_5">
    <g id="xtick_17">
     <g id="line2d_55">
      <path clip-path="url(#pd746e76541)" d="M 54.69986 258.36757 
L 54.69986 200.302036 
" style="fill:none;stroke:#ffffff;stroke-linecap:round;"/>
     </g>
     <g id="line2d_56"/>
    </g>
    <g id="xtick_18">
     <g id="line2d_57">
      <path clip-path="url(#pd746e76541)" d="M 109.25668 258.36757 
L 109.25668 200.302036 
" style="fill:none;stroke:#ffffff;stroke-linecap:round;"/>
     </g>
     <g id="line2d_58"/>
    </g>
    <g id="xtick_19">
     <g id="line2d_59">
      <path clip-path="url(#pd746e76541)" d="M 163.8135 258.36757 
L 163.8135 200.302036 
" style="fill:none;stroke:#ffffff;stroke-linecap:round;"/>
     </g>
     <g id="line2d_60"/>
    </g>
    <g id="xtick_20">
     <g id="line2d_61">
      <path clip-path="url(#pd746e76541)" d="M 218.370319 258.36757 
L 218.370319 200.302036 
" style="fill:none;stroke:#ffffff;stroke-linecap:round;"/>
     </g>
     <g id="line2d_62"/>
    </g>
    <g id="xtick_21">
     <g id="line2d_63">
      <path clip-path="url(#pd746e76541)" d="M 272.927139 258.36757 
L 272.927139 200.302036 
" style="fill:none;stroke:#ffffff;stroke-linecap:round;"/>
     </g>
     <g id="line2d_64"/>
    </g>
    <g id="xtick_22">
     <g id="line2d_65">
      <path clip-path="url(#pd746e76541)" d="M 327.483959 258.36757 
L 327.483959 200.302036 
" style="fill:none;stroke:#ffffff;stroke-linecap:round;"/>
     </g>
     <g id="line2d_66"/>
    </g>
    <g id="xtick_23">
     <g id="line2d_67">
      <path clip-path="url(#pd746e76541)" d="M 382.040779 258.36757 
L 382.040779 200.302036 
" style="fill:none;stroke:#ffffff;stroke-linecap:round;"/>
     </g>
     <g id="line2d_68"/>
    </g>
    <g id="xtick_24">
     <g id="line2d_69">
      <path clip-path="url(#pd746e76541)" d="M 436.597598 258.36757 
L 436.597598 200.302036 
" style="fill:none;stroke:#ffffff;stroke-linecap:round;"/>
     </g>
     <g id="line2d_70"/>
    </g>
   </g>
   <g id="matplotlib.axis_6">
    <g id="ytick_5">
     <g id="line2d_71">
      <path clip-path="url(#pd746e76541)" d="M 28.1 255.729263 
L 444.546564 255.729263 
" style="fill:none;stroke:#ffffff;stroke-linecap:round;"/>
     </g>
     <g id="line2d_72"/>
     <g id="text_11">
      <!-- 0 -->
      <g style="fill:#262626;" transform="translate(15.539062 259.352701)scale(0.1 -0.1)">
       <use xlink:href="#LiberationSans-30"/>
      </g>
     </g>
    </g>
    <g id="ytick_6">
     <g id="line2d_73">
      <path clip-path="url(#pd746e76541)" d="M 28.1 225.783347 
L 444.546564 225.783347 
" style="fill:none;stroke:#ffffff;stroke-linecap:round;"/>
     </g>
     <g id="line2d_74"/>
     <g id="text_12">
      <!-- 2 -->
      <g style="fill:#262626;" transform="translate(15.539062 229.406784)scale(0.1 -0.1)">
       <use xlink:href="#LiberationSans-32"/>
      </g>
     </g>
    </g>
   </g>
   <g id="line2d_75">
    <path clip-path="url(#pd746e76541)" d="M 124.638793 255.727846 
L 129.764672 255.630752 
L 138.307804 255.133041 
L 140.870744 254.552702 
L 145.996623 253.067595 
L 147.705249 252.209889 
L 151.122502 250.116218 
L 152.831129 248.767181 
L 153.685442 247.820343 
L 154.539755 246.617942 
L 156.248381 243.493782 
L 159.665634 236.63963 
L 162.228574 231.755635 
L 163.9372 228.063866 
L 165.645827 224.003614 
L 167.354453 219.382981 
L 169.063079 214.520617 
L 170.771706 210.445587 
L 172.480332 207.472327 
L 174.188959 205.092973 
L 175.043272 204.099715 
L 175.897585 203.349222 
L 176.751898 202.944576 
L 177.606211 202.941379 
L 178.460525 203.324327 
L 179.314838 204.021987 
L 181.023464 205.996901 
L 183.586404 209.489987 
L 185.29503 212.263576 
L 186.149344 214.010746 
L 187.003657 216.080922 
L 188.712283 221.071223 
L 190.42091 226.38901 
L 192.129536 230.84142 
L 192.983849 232.565092 
L 194.692476 235.35633 
L 196.401102 238.122807 
L 201.526981 247.312771 
L 203.235608 249.592141 
L 204.944234 251.293953 
L 206.65286 252.544234 
L 208.361487 253.445786 
L 210.070113 254.054551 
L 213.487366 254.912962 
L 216.050306 255.261749 
L 222.884811 255.658131 
L 233.13657 255.728228 
L 233.13657 255.728228 
" style="fill:none;stroke:#4c72b0;stroke-linecap:round;stroke-width:1.75;"/>
   </g>
   <g id="line2d_76">
    <path clip-path="url(#pd746e76541)" d="M 130.379312 255.722422 
L 134.815392 255.609067 
L 137.772779 255.309747 
L 141.469513 254.699655 
L 142.948206 254.326053 
L 144.4269 253.755854 
L 145.905593 252.903955 
L 147.384287 251.761304 
L 155.517101 244.569912 
L 156.995794 242.698536 
L 158.474487 240.334613 
L 160.692528 236.110276 
L 164.389261 228.930329 
L 168.825342 220.684858 
L 172.522075 213.554322 
L 174.740115 209.719654 
L 176.218809 207.479053 
L 177.697502 205.665994 
L 178.436849 204.991778 
L 179.176196 204.512753 
L 179.915543 204.255248 
L 180.654889 204.239056 
L 181.394236 204.474763 
L 182.133583 204.961623 
L 182.872929 205.686744 
L 183.612276 206.62641 
L 185.09097 209.025141 
L 186.569663 211.931867 
L 188.048357 215.248299 
L 189.52705 218.986807 
L 195.441824 234.906529 
L 196.920517 237.989058 
L 199.138557 242.001226 
L 201.356598 245.539019 
L 202.835291 247.606224 
L 204.313984 249.375457 
L 205.792678 250.824887 
L 207.271371 251.97971 
L 208.750065 252.888614 
L 210.228758 253.594717 
L 212.446798 254.355941 
L 215.404185 255.045808 
L 218.361572 255.49981 
L 221.318959 255.687524 
L 224.276346 255.723013 
L 224.276346 255.723013 
" style="fill:none;stroke:#55a868;stroke-linecap:round;stroke-width:1.75;"/>
   </g>
   <g id="line2d_77">
    <path clip-path="url(#pd746e76541)" d="M 179.593264 258.36757 
L 179.593264 200.302036 
" style="fill:none;stroke:#000000;stroke-dasharray:1.75,2.8875;stroke-dashoffset:0;stroke-width:1.75;"/>
   </g>
   <g id="patch_13">
    <path d="M 28.1 258.36757 
L 28.1 200.302036 
" style="fill:none;"/>
   </g>
   <g id="patch_14">
    <path d="M 444.546564 258.36757 
L 444.546564 200.302036 
" style="fill:none;"/>
   </g>
   <g id="patch_15">
    <path d="M 28.1 258.36757 
L 444.546564 258.36757 
" style="fill:none;"/>
   </g>
   <g id="patch_16">
    <path d="M 28.1 200.302036 
L 444.546564 200.302036 
" style="fill:none;"/>
   </g>
   <g id="text_13">
    <!-- W[2] -->
    <g style="fill:#262626;" transform="translate(223.989532 194.302036)scale(0.12 -0.12)">
     <use xlink:href="#LiberationSans-57"/>
     <use x="94.384766" xlink:href="#LiberationSans-5b"/>
     <use x="122.167969" xlink:href="#LiberationSans-32"/>
     <use x="177.783203" xlink:href="#LiberationSans-5d"/>
    </g>
   </g>
   <g id="legend_3">
    <g id="line2d_78">
     <path d="M 360.309064 213.048911 
L 380.309064 213.048911 
" style="fill:none;stroke:#4c72b0;stroke-linecap:round;stroke-width:1.75;"/>
    </g>
    <g id="line2d_79"/>
    <g id="text_14">
     <!-- MCMC -->
     <g style="fill:#262626;" transform="translate(388.309064 216.548911)scale(0.1 -0.1)">
      <use xlink:href="#LiberationSans-4d"/>
      <use x="83.300781" xlink:href="#LiberationSans-43"/>
      <use x="155.517578" xlink:href="#LiberationSans-4d"/>
      <use x="238.818359" xlink:href="#LiberationSans-43"/>
     </g>
    </g>
    <g id="line2d_80">
     <path d="M 360.309064 227.370786 
L 380.309064 227.370786 
" style="fill:none;stroke:#55a868;stroke-linecap:round;stroke-width:1.75;"/>
    </g>
    <g id="line2d_81"/>
    <g id="text_15">
     <!-- Variational -->
     <g style="fill:#262626;" transform="translate(388.309064 230.870786)scale(0.1 -0.1)">
      <use xlink:href="#LiberationSans-56"/>
      <use x="66.589844" xlink:href="#LiberationSans-61"/>
      <use x="122.205078" xlink:href="#LiberationSans-72"/>
      <use x="155.505859" xlink:href="#LiberationSans-69"/>
      <use x="177.722656" xlink:href="#LiberationSans-61"/>
      <use x="233.337891" xlink:href="#LiberationSans-74"/>
      <use x="261.121094" xlink:href="#LiberationSans-69"/>
      <use x="283.337891" xlink:href="#LiberationSans-6f"/>
      <use x="338.953125" xlink:href="#LiberationSans-6e"/>
      <use x="394.568359" xlink:href="#LiberationSans-61"/>
      <use x="450.183594" xlink:href="#LiberationSans-6c"/>
     </g>
    </g>
   </g>
  </g>
  <g id="axes_4">
   <g id="patch_17">
    <path d="M 28.1 347.570464 
L 444.546564 347.570464 
L 444.546564 289.50493 
L 28.1 289.50493 
z
" style="fill:#eaeaf2;"/>
   </g>
   <g id="matplotlib.axis_7">
    <g id="xtick_25">
     <g id="line2d_82">
      <path clip-path="url(#pdcbb0f9404)" d="M 54.69986 347.570464 
L 54.69986 289.50493 
" style="fill:none;stroke:#ffffff;stroke-linecap:round;"/>
     </g>
     <g id="line2d_83"/>
    </g>
    <g id="xtick_26">
     <g id="line2d_84">
      <path clip-path="url(#pdcbb0f9404)" d="M 109.25668 347.570464 
L 109.25668 289.50493 
" style="fill:none;stroke:#ffffff;stroke-linecap:round;"/>
     </g>
     <g id="line2d_85"/>
    </g>
    <g id="xtick_27">
     <g id="line2d_86">
      <path clip-path="url(#pdcbb0f9404)" d="M 163.8135 347.570464 
L 163.8135 289.50493 
" style="fill:none;stroke:#ffffff;stroke-linecap:round;"/>
     </g>
     <g id="line2d_87"/>
    </g>
    <g id="xtick_28">
     <g id="line2d_88">
      <path clip-path="url(#pdcbb0f9404)" d="M 218.370319 347.570464 
L 218.370319 289.50493 
" style="fill:none;stroke:#ffffff;stroke-linecap:round;"/>
     </g>
     <g id="line2d_89"/>
    </g>
    <g id="xtick_29">
     <g id="line2d_90">
      <path clip-path="url(#pdcbb0f9404)" d="M 272.927139 347.570464 
L 272.927139 289.50493 
" style="fill:none;stroke:#ffffff;stroke-linecap:round;"/>
     </g>
     <g id="line2d_91"/>
    </g>
    <g id="xtick_30">
     <g id="line2d_92">
      <path clip-path="url(#pdcbb0f9404)" d="M 327.483959 347.570464 
L 327.483959 289.50493 
" style="fill:none;stroke:#ffffff;stroke-linecap:round;"/>
     </g>
     <g id="line2d_93"/>
    </g>
    <g id="xtick_31">
     <g id="line2d_94">
      <path clip-path="url(#pdcbb0f9404)" d="M 382.040779 347.570464 
L 382.040779 289.50493 
" style="fill:none;stroke:#ffffff;stroke-linecap:round;"/>
     </g>
     <g id="line2d_95"/>
    </g>
    <g id="xtick_32">
     <g id="line2d_96">
      <path clip-path="url(#pdcbb0f9404)" d="M 436.597598 347.570464 
L 436.597598 289.50493 
" style="fill:none;stroke:#ffffff;stroke-linecap:round;"/>
     </g>
     <g id="line2d_97"/>
    </g>
   </g>
   <g id="matplotlib.axis_8">
    <g id="ytick_7">
     <g id="line2d_98">
      <path clip-path="url(#pdcbb0f9404)" d="M 28.1 344.93197 
L 444.546564 344.93197 
" style="fill:none;stroke:#ffffff;stroke-linecap:round;"/>
     </g>
     <g id="line2d_99"/>
     <g id="text_16">
      <!-- 0 -->
      <g style="fill:#262626;" transform="translate(15.539062 348.555407)scale(0.1 -0.1)">
       <use xlink:href="#LiberationSans-30"/>
      </g>
     </g>
    </g>
    <g id="ytick_8">
     <g id="line2d_100">
      <path clip-path="url(#pdcbb0f9404)" d="M 28.1 315.090814 
L 444.546564 315.090814 
" style="fill:none;stroke:#ffffff;stroke-linecap:round;"/>
     </g>
     <g id="line2d_101"/>
     <g id="text_17">
      <!-- 2 -->
      <g style="fill:#262626;" transform="translate(15.539062 318.714251)scale(0.1 -0.1)">
       <use xlink:href="#LiberationSans-32"/>
      </g>
     </g>
    </g>
   </g>
   <g id="line2d_102">
    <path clip-path="url(#pdcbb0f9404)" d="M 99.797385 344.931113 
L 113.277244 344.809674 
L 117.770531 344.593905 
L 120.466502 344.276208 
L 122.263817 343.794916 
L 126.757103 342.094509 
L 128.554418 341.008813 
L 130.351732 339.497287 
L 132.149047 337.68642 
L 133.946361 335.38535 
L 134.845018 333.948161 
L 136.642333 330.426313 
L 138.439647 326.115471 
L 142.034276 316.983619 
L 143.831591 313.250494 
L 146.527563 307.756205 
L 149.223535 302.119819 
L 151.020849 298.839187 
L 152.818164 296.159871 
L 154.615478 293.965433 
L 155.514135 293.088393 
L 156.412793 292.456406 
L 157.31145 292.144272 
L 158.210107 292.200955 
L 159.108764 292.655441 
L 160.007422 293.519446 
L 160.906079 294.770421 
L 162.703393 298.111774 
L 164.500708 301.99603 
L 166.298022 306.331847 
L 171.689966 320.409548 
L 173.48728 324.419595 
L 177.081909 331.672518 
L 178.879224 334.844764 
L 179.777881 336.1102 
L 181.575196 338.089169 
L 184.271168 340.527585 
L 186.068482 341.878695 
L 187.865797 342.879169 
L 189.663111 343.550605 
L 191.460426 343.953832 
L 196.852369 344.704896 
L 199.548341 344.830897 
L 213.926857 344.931121 
L 213.926857 344.931121 
" style="fill:none;stroke:#4c72b0;stroke-linecap:round;stroke-width:1.75;"/>
   </g>
   <g id="line2d_103">
    <path clip-path="url(#pdcbb0f9404)" d="M 106.079307 344.928442 
L 111.752644 344.829728 
L 117.42598 344.489451 
L 119.857411 344.109968 
L 122.288841 343.408936 
L 123.909794 342.754938 
L 125.530747 341.894042 
L 127.151701 340.714307 
L 128.772654 339.142547 
L 131.204084 336.258011 
L 133.635514 333.394827 
L 136.066944 330.545787 
L 136.877421 329.330404 
L 137.687898 327.827171 
L 138.498374 325.953724 
L 139.308851 323.66204 
L 140.929805 317.883202 
L 144.171711 304.570962 
L 144.982188 301.782811 
L 145.792665 299.490095 
L 146.603141 297.757322 
L 147.413618 296.578577 
L 148.224095 295.875516 
L 149.034571 295.513749 
L 152.276478 294.767468 
L 153.897432 294.246654 
L 154.707908 294.143993 
L 155.518385 294.247294 
L 156.328862 294.595112 
L 157.139338 295.190197 
L 157.949815 296.007647 
L 159.570768 298.155667 
L 161.191722 300.780813 
L 163.623152 305.357481 
L 170.106965 318.616969 
L 171.727919 322.652234 
L 174.969826 331.237247 
L 176.590779 334.572801 
L 177.401256 335.854644 
L 178.211732 336.904017 
L 179.832686 338.484885 
L 181.453639 339.665328 
L 183.885069 341.109079 
L 187.126976 342.761219 
L 189.558406 343.766218 
L 191.179359 344.205291 
L 192.800313 344.450714 
L 195.231743 344.592899 
L 209.009847 344.928444 
L 209.009847 344.928444 
" style="fill:none;stroke:#55a868;stroke-linecap:round;stroke-width:1.75;"/>
   </g>
   <g id="line2d_104">
    <path clip-path="url(#pdcbb0f9404)" d="M 132.439671 347.570464 
L 132.439671 289.50493 
" style="fill:none;stroke:#000000;stroke-dasharray:1.75,2.8875;stroke-dashoffset:0;stroke-width:1.75;"/>
   </g>
   <g id="patch_18">
    <path d="M 28.1 347.570464 
L 28.1 289.50493 
" style="fill:none;"/>
   </g>
   <g id="patch_19">
    <path d="M 444.546564 347.570464 
L 444.546564 289.50493 
" style="fill:none;"/>
   </g>
   <g id="patch_20">
    <path d="M 28.1 347.570464 
L 444.546564 347.570464 
" style="fill:none;"/>
   </g>
   <g id="patch_21">
    <path d="M 28.1 289.50493 
L 444.546564 289.50493 
" style="fill:none;"/>
   </g>
   <g id="text_18">
    <!-- W[3] -->
    <defs>
     <path d="M 51.21875 19 
Q 51.21875 14.265625 49.671875 10.546875 
Q 48.140625 6.84375 45.1875 4.265625 
Q 42.234375 1.703125 37.859375 0.359375 
Q 33.5 -0.984375 27.875 -0.984375 
Q 21.484375 -0.984375 17.109375 0.609375 
Q 12.75 2.203125 9.90625 4.8125 
Q 7.078125 7.421875 5.65625 10.765625 
Q 4.25 14.109375 3.8125 17.671875 
L 12.890625 18.5 
Q 13.28125 15.765625 14.328125 13.515625 
Q 15.375 11.28125 17.1875 9.671875 
Q 19 8.0625 21.625 7.171875 
Q 24.265625 6.296875 27.875 6.296875 
Q 34.515625 6.296875 38.296875 9.5625 
Q 42.09375 12.84375 42.09375 19.28125 
Q 42.09375 23.09375 40.40625 25.40625 
Q 38.71875 27.734375 36.203125 29.03125 
Q 33.6875 30.328125 30.734375 30.765625 
Q 27.78125 31.203125 25.296875 31.203125 
L 20.3125 31.203125 
L 20.3125 38.8125 
L 25.09375 38.8125 
Q 27.59375 38.8125 30.265625 39.328125 
Q 32.953125 39.84375 35.171875 41.1875 
Q 37.40625 42.53125 38.84375 44.828125 
Q 40.28125 47.125 40.28125 50.6875 
Q 40.28125 56.203125 37.03125 59.390625 
Q 33.796875 62.59375 27.390625 62.59375 
Q 21.578125 62.59375 17.984375 59.609375 
Q 14.40625 56.640625 13.8125 51.21875 
L 4.984375 51.90625 
Q 5.515625 56.453125 7.46875 59.8125 
Q 9.421875 63.1875 12.421875 65.40625 
Q 15.4375 67.625 19.28125 68.71875 
Q 23.140625 69.828125 27.484375 69.828125 
Q 33.25 69.828125 37.390625 68.375 
Q 41.546875 66.9375 44.1875 64.46875 
Q 46.828125 62.015625 48.0625 58.6875 
Q 49.3125 55.375 49.3125 51.609375 
Q 49.3125 48.578125 48.484375 45.9375 
Q 47.65625 43.3125 45.890625 41.203125 
Q 44.140625 39.109375 41.421875 37.59375 
Q 38.71875 36.078125 34.90625 35.296875 
L 34.90625 35.109375 
Q 39.0625 34.671875 42.140625 33.21875 
Q 45.21875 31.78125 47.21875 29.625 
Q 49.21875 27.484375 50.21875 24.75 
Q 51.21875 22.015625 51.21875 19 
z
" id="LiberationSans-33"/>
    </defs>
    <g style="fill:#262626;" transform="translate(223.989532 283.50493)scale(0.12 -0.12)">
     <use xlink:href="#LiberationSans-57"/>
     <use x="94.384766" xlink:href="#LiberationSans-5b"/>
     <use x="122.167969" xlink:href="#LiberationSans-33"/>
     <use x="177.783203" xlink:href="#LiberationSans-5d"/>
    </g>
   </g>
   <g id="legend_4">
    <g id="line2d_105">
     <path d="M 360.309064 302.251805 
L 380.309064 302.251805 
" style="fill:none;stroke:#4c72b0;stroke-linecap:round;stroke-width:1.75;"/>
    </g>
    <g id="line2d_106"/>
    <g id="text_19">
     <!-- MCMC -->
     <g style="fill:#262626;" transform="translate(388.309064 305.751805)scale(0.1 -0.1)">
      <use xlink:href="#LiberationSans-4d"/>
      <use x="83.300781" xlink:href="#LiberationSans-43"/>
      <use x="155.517578" xlink:href="#LiberationSans-4d"/>
      <use x="238.818359" xlink:href="#LiberationSans-43"/>
     </g>
    </g>
    <g id="line2d_107">
     <path d="M 360.309064 316.57368 
L 380.309064 316.57368 
" style="fill:none;stroke:#55a868;stroke-linecap:round;stroke-width:1.75;"/>
    </g>
    <g id="line2d_108"/>
    <g id="text_20">
     <!-- Variational -->
     <g style="fill:#262626;" transform="translate(388.309064 320.07368)scale(0.1 -0.1)">
      <use xlink:href="#LiberationSans-56"/>
      <use x="66.589844" xlink:href="#LiberationSans-61"/>
      <use x="122.205078" xlink:href="#LiberationSans-72"/>
      <use x="155.505859" xlink:href="#LiberationSans-69"/>
      <use x="177.722656" xlink:href="#LiberationSans-61"/>
      <use x="233.337891" xlink:href="#LiberationSans-74"/>
      <use x="261.121094" xlink:href="#LiberationSans-69"/>
      <use x="283.337891" xlink:href="#LiberationSans-6f"/>
      <use x="338.953125" xlink:href="#LiberationSans-6e"/>
      <use x="394.568359" xlink:href="#LiberationSans-61"/>
      <use x="450.183594" xlink:href="#LiberationSans-6c"/>
     </g>
    </g>
   </g>
  </g>
  <g id="axes_5">
   <g id="patch_22">
    <path d="M 28.1 436.773357 
L 444.546564 436.773357 
L 444.546564 378.707823 
L 28.1 378.707823 
z
" style="fill:#eaeaf2;"/>
   </g>
   <g id="matplotlib.axis_9">
    <g id="xtick_33">
     <g id="line2d_109">
      <path clip-path="url(#pd61fa41bc8)" d="M 54.69986 436.773357 
L 54.69986 378.707823 
" style="fill:none;stroke:#ffffff;stroke-linecap:round;"/>
     </g>
     <g id="line2d_110"/>
    </g>
    <g id="xtick_34">
     <g id="line2d_111">
      <path clip-path="url(#pd61fa41bc8)" d="M 109.25668 436.773357 
L 109.25668 378.707823 
" style="fill:none;stroke:#ffffff;stroke-linecap:round;"/>
     </g>
     <g id="line2d_112"/>
    </g>
    <g id="xtick_35">
     <g id="line2d_113">
      <path clip-path="url(#pd61fa41bc8)" d="M 163.8135 436.773357 
L 163.8135 378.707823 
" style="fill:none;stroke:#ffffff;stroke-linecap:round;"/>
     </g>
     <g id="line2d_114"/>
    </g>
    <g id="xtick_36">
     <g id="line2d_115">
      <path clip-path="url(#pd61fa41bc8)" d="M 218.370319 436.773357 
L 218.370319 378.707823 
" style="fill:none;stroke:#ffffff;stroke-linecap:round;"/>
     </g>
     <g id="line2d_116"/>
    </g>
    <g id="xtick_37">
     <g id="line2d_117">
      <path clip-path="url(#pd61fa41bc8)" d="M 272.927139 436.773357 
L 272.927139 378.707823 
" style="fill:none;stroke:#ffffff;stroke-linecap:round;"/>
     </g>
     <g id="line2d_118"/>
    </g>
    <g id="xtick_38">
     <g id="line2d_119">
      <path clip-path="url(#pd61fa41bc8)" d="M 327.483959 436.773357 
L 327.483959 378.707823 
" style="fill:none;stroke:#ffffff;stroke-linecap:round;"/>
     </g>
     <g id="line2d_120"/>
    </g>
    <g id="xtick_39">
     <g id="line2d_121">
      <path clip-path="url(#pd61fa41bc8)" d="M 382.040779 436.773357 
L 382.040779 378.707823 
" style="fill:none;stroke:#ffffff;stroke-linecap:round;"/>
     </g>
     <g id="line2d_122"/>
    </g>
    <g id="xtick_40">
     <g id="line2d_123">
      <path clip-path="url(#pd61fa41bc8)" d="M 436.597598 436.773357 
L 436.597598 378.707823 
" style="fill:none;stroke:#ffffff;stroke-linecap:round;"/>
     </g>
     <g id="line2d_124"/>
    </g>
   </g>
   <g id="matplotlib.axis_10">
    <g id="ytick_9">
     <g id="line2d_125">
      <path clip-path="url(#pd61fa41bc8)" d="M 28.1 434.134303 
L 444.546564 434.134303 
" style="fill:none;stroke:#ffffff;stroke-linecap:round;"/>
     </g>
     <g id="line2d_126"/>
     <g id="text_21">
      <!-- 0 -->
      <g style="fill:#262626;" transform="translate(15.539062 437.757741)scale(0.1 -0.1)">
       <use xlink:href="#LiberationSans-30"/>
      </g>
     </g>
    </g>
    <g id="ytick_10">
     <g id="line2d_127">
      <path clip-path="url(#pd61fa41bc8)" d="M 28.1 404.018858 
L 444.546564 404.018858 
" style="fill:none;stroke:#ffffff;stroke-linecap:round;"/>
     </g>
     <g id="line2d_128"/>
     <g id="text_22">
      <!-- 10 -->
      <g style="fill:#262626;" transform="translate(9.978125 407.642296)scale(0.1 -0.1)">
       <use xlink:href="#LiberationSans-31"/>
       <use x="55.615234" xlink:href="#LiberationSans-30"/>
      </g>
     </g>
    </g>
   </g>
   <g id="line2d_129">
    <path clip-path="url(#pd61fa41bc8)" d="M 47.029389 434.133991 
L 66.135787 434.027035 
L 71.120064 433.808065 
L 73.612203 433.476883 
L 78.596481 432.506025 
L 81.08862 431.808971 
L 86.90361 429.726178 
L 89.395749 428.641954 
L 91.887888 427.319731 
L 95.21074 425.427741 
L 96.872166 424.690094 
L 99.364304 423.855711 
L 102.687156 422.951417 
L 103.517869 422.878466 
L 104.348582 422.93827 
L 106.010008 423.424366 
L 109.33286 424.72071 
L 111.824998 425.683058 
L 113.486424 426.620198 
L 116.809276 428.660544 
L 120.132128 430.230891 
L 123.45498 431.658118 
L 125.947118 432.505366 
L 128.439257 433.097347 
L 131.762109 433.575729 
L 135.915674 433.891776 
L 142.561377 434.094639 
L 152.529932 434.134014 
L 152.529932 434.134014 
" style="fill:none;stroke:#4c72b0;stroke-linecap:round;stroke-width:1.75;"/>
   </g>
   <g id="line2d_130">
    <path clip-path="url(#pd61fa41bc8)" d="M 91.202458 434.130492 
L 92.325214 434.026082 
L 94.089545 433.594698 
L 94.570727 433.051334 
L 95.051908 432.204556 
L 95.693483 430.537549 
L 96.335058 428.226704 
L 96.976633 425.201149 
L 98.259783 417.458562 
L 98.740964 412.90529 
L 99.382539 403.32963 
L 100.344902 387.882093 
L 100.826083 383.443835 
L 101.146871 381.943927 
L 101.467658 381.347165 
L 101.628052 381.382562 
L 101.94884 382.101745 
L 103.23199 387.094609 
L 103.552777 390.309069 
L 104.194352 400.610418 
L 104.996321 413.043126 
L 105.637896 419.975579 
L 106.439865 425.385017 
L 107.241834 429.623145 
L 107.723015 430.804966 
L 109.487347 433.391329 
L 110.289315 433.914942 
L 110.93089 434.095209 
L 111.572465 434.130355 
L 111.572465 434.130355 
" style="fill:none;stroke:#55a868;stroke-linecap:round;stroke-width:1.75;"/>
   </g>
   <g id="line2d_131">
    <path clip-path="url(#pd61fa41bc8)" d="M 94.653096 436.773357 
L 94.653096 378.707823 
" style="fill:none;stroke:#000000;stroke-dasharray:1.75,2.8875;stroke-dashoffset:0;stroke-width:1.75;"/>
   </g>
   <g id="patch_23">
    <path d="M 28.1 436.773357 
L 28.1 378.707823 
" style="fill:none;"/>
   </g>
   <g id="patch_24">
    <path d="M 444.546564 436.773357 
L 444.546564 378.707823 
" style="fill:none;"/>
   </g>
   <g id="patch_25">
    <path d="M 28.1 436.773357 
L 444.546564 436.773357 
" style="fill:none;"/>
   </g>
   <g id="patch_26">
    <path d="M 28.1 378.707823 
L 444.546564 378.707823 
" style="fill:none;"/>
   </g>
   <g id="text_23">
    <!-- Bias -->
    <defs>
     <path d="M 61.421875 19.390625 
Q 61.421875 14.15625 59.375 10.46875 
Q 57.328125 6.78125 53.859375 4.46875 
Q 50.390625 2.15625 45.796875 1.078125 
Q 41.21875 0 36.140625 0 
L 8.203125 0 
L 8.203125 68.796875 
L 33.203125 68.796875 
Q 38.921875 68.796875 43.40625 67.84375 
Q 47.90625 66.890625 51.03125 64.84375 
Q 54.15625 62.796875 55.78125 59.640625 
Q 57.421875 56.5 57.421875 52.09375 
Q 57.421875 49.21875 56.609375 46.671875 
Q 55.8125 44.140625 54.171875 42.0625 
Q 52.546875 39.984375 50.078125 38.5 
Q 47.609375 37.015625 44.34375 36.28125 
Q 48.484375 35.796875 51.6875 34.375 
Q 54.890625 32.953125 57.03125 30.75 
Q 59.1875 28.5625 60.296875 25.65625 
Q 61.421875 22.75 61.421875 19.390625 
z
M 48.046875 50.984375 
Q 48.046875 56.546875 44.234375 58.9375 
Q 40.4375 61.328125 33.203125 61.328125 
L 17.53125 61.328125 
L 17.53125 39.546875 
L 33.203125 39.546875 
Q 37.3125 39.546875 40.140625 40.34375 
Q 42.96875 41.15625 44.71875 42.640625 
Q 46.484375 44.140625 47.265625 46.234375 
Q 48.046875 48.34375 48.046875 50.984375 
z
M 52 20.125 
Q 52 23.390625 50.796875 25.6875 
Q 49.609375 27.984375 47.359375 29.4375 
Q 45.125 30.90625 41.96875 31.59375 
Q 38.8125 32.28125 34.90625 32.28125 
L 17.53125 32.28125 
L 17.53125 7.46875 
L 35.640625 7.46875 
Q 39.203125 7.46875 42.203125 8.046875 
Q 45.21875 8.640625 47.390625 10.109375 
Q 49.5625 11.578125 50.78125 14.015625 
Q 52 16.453125 52 20.125 
z
" id="LiberationSans-42"/>
     <path d="M 46.390625 14.59375 
Q 46.390625 10.890625 44.9375 7.984375 
Q 43.5 5.078125 40.765625 3.09375 
Q 38.03125 1.125 34.046875 0.0625 
Q 30.078125 -0.984375 24.953125 -0.984375 
Q 20.359375 -0.984375 16.671875 -0.265625 
Q 12.984375 0.4375 10.203125 2 
Q 7.421875 3.5625 5.53125 6.125 
Q 3.65625 8.6875 2.78125 12.40625 
L 10.546875 13.921875 
Q 11.671875 9.671875 15.1875 7.6875 
Q 18.703125 5.71875 24.953125 5.71875 
Q 27.78125 5.71875 30.140625 6.109375 
Q 32.515625 6.5 34.21875 7.453125 
Q 35.9375 8.40625 36.890625 9.984375 
Q 37.84375 11.578125 37.84375 13.921875 
Q 37.84375 16.3125 36.71875 17.84375 
Q 35.59375 19.390625 33.59375 20.40625 
Q 31.59375 21.4375 28.734375 22.1875 
Q 25.875 22.953125 22.46875 23.875 
Q 19.28125 24.703125 16.15625 25.734375 
Q 13.03125 26.765625 10.515625 28.4375 
Q 8.015625 30.125 6.453125 32.609375 
Q 4.890625 35.109375 4.890625 38.875 
Q 4.890625 46.09375 10.03125 49.875 
Q 15.1875 53.65625 25.046875 53.65625 
Q 33.796875 53.65625 38.9375 50.578125 
Q 44.09375 47.515625 45.453125 40.71875 
L 37.546875 39.75 
Q 37.109375 41.796875 35.9375 43.1875 
Q 34.765625 44.578125 33.109375 45.4375 
Q 31.453125 46.296875 29.375 46.65625 
Q 27.296875 47.015625 25.046875 47.015625 
Q 19.09375 47.015625 16.25 45.203125 
Q 13.421875 43.40625 13.421875 39.75 
Q 13.421875 37.59375 14.46875 36.203125 
Q 15.53125 34.8125 17.40625 33.859375 
Q 19.28125 32.90625 21.921875 32.203125 
Q 24.5625 31.5 27.734375 30.71875 
Q 29.828125 30.171875 32.03125 29.5625 
Q 34.234375 28.953125 36.296875 28.09375 
Q 38.375 27.25 40.203125 26.09375 
Q 42.046875 24.953125 43.40625 23.34375 
Q 44.78125 21.734375 45.578125 19.578125 
Q 46.390625 17.4375 46.390625 14.59375 
z
" id="LiberationSans-73"/>
    </defs>
    <g style="fill:#262626;" transform="translate(224.651407 372.707823)scale(0.12 -0.12)">
     <use xlink:href="#LiberationSans-42"/>
     <use x="66.699219" xlink:href="#LiberationSans-69"/>
     <use x="88.916016" xlink:href="#LiberationSans-61"/>
     <use x="144.53125" xlink:href="#LiberationSans-73"/>
    </g>
   </g>
   <g id="legend_5">
    <g id="line2d_132">
     <path d="M 360.309064 391.454698 
L 380.309064 391.454698 
" style="fill:none;stroke:#4c72b0;stroke-linecap:round;stroke-width:1.75;"/>
    </g>
    <g id="line2d_133"/>
    <g id="text_24">
     <!-- MCMC -->
     <g style="fill:#262626;" transform="translate(388.309064 394.954698)scale(0.1 -0.1)">
      <use xlink:href="#LiberationSans-4d"/>
      <use x="83.300781" xlink:href="#LiberationSans-43"/>
      <use x="155.517578" xlink:href="#LiberationSans-4d"/>
      <use x="238.818359" xlink:href="#LiberationSans-43"/>
     </g>
    </g>
    <g id="line2d_134">
     <path d="M 360.309064 405.776573 
L 380.309064 405.776573 
" style="fill:none;stroke:#55a868;stroke-linecap:round;stroke-width:1.75;"/>
    </g>
    <g id="line2d_135"/>
    <g id="text_25">
     <!-- Variational -->
     <g style="fill:#262626;" transform="translate(388.309064 409.276573)scale(0.1 -0.1)">
      <use xlink:href="#LiberationSans-56"/>
      <use x="66.589844" xlink:href="#LiberationSans-61"/>
      <use x="122.205078" xlink:href="#LiberationSans-72"/>
      <use x="155.505859" xlink:href="#LiberationSans-69"/>
      <use x="177.722656" xlink:href="#LiberationSans-61"/>
      <use x="233.337891" xlink:href="#LiberationSans-74"/>
      <use x="261.121094" xlink:href="#LiberationSans-69"/>
      <use x="283.337891" xlink:href="#LiberationSans-6f"/>
      <use x="338.953125" xlink:href="#LiberationSans-6e"/>
      <use x="394.568359" xlink:href="#LiberationSans-61"/>
      <use x="450.183594" xlink:href="#LiberationSans-6c"/>
     </g>
    </g>
   </g>
  </g>
  <g id="axes_6">
   <g id="patch_27">
    <path d="M 28.1 525.97625 
L 444.546564 525.97625 
L 444.546564 467.910716 
L 28.1 467.910716 
z
" style="fill:#eaeaf2;"/>
   </g>
   <g id="matplotlib.axis_11">
    <g id="xtick_41">
     <g id="line2d_136">
      <path clip-path="url(#p0705f4243c)" d="M 54.69986 525.97625 
L 54.69986 467.910716 
" style="fill:none;stroke:#ffffff;stroke-linecap:round;"/>
     </g>
     <g id="line2d_137"/>
     <g id="text_26">
      <!-- 1.5 -->
      <defs>
       <path d="M 4.9375 29.6875 
L 4.9375 36.8125 
L 53.515625 36.8125 
L 53.515625 29.6875 
z
" id="LiberationSans-2212"/>
      </defs>
      <g style="fill:#262626;" transform="translate(44.829548 540.223125)scale(0.1 -0.1)">
       <use xlink:href="#LiberationSans-2212"/>
       <use x="58.398438" xlink:href="#LiberationSans-31"/>
       <use x="114.013672" xlink:href="#LiberationSans-2e"/>
       <use x="141.796875" xlink:href="#LiberationSans-35"/>
      </g>
     </g>
    </g>
    <g id="xtick_42">
     <g id="line2d_138">
      <path clip-path="url(#p0705f4243c)" d="M 109.25668 525.97625 
L 109.25668 467.910716 
" style="fill:none;stroke:#ffffff;stroke-linecap:round;"/>
     </g>
     <g id="line2d_139"/>
     <g id="text_27">
      <!-- 1.0 -->
      <g style="fill:#262626;" transform="translate(99.386367 540.223125)scale(0.1 -0.1)">
       <use xlink:href="#LiberationSans-2212"/>
       <use x="58.398438" xlink:href="#LiberationSans-31"/>
       <use x="114.013672" xlink:href="#LiberationSans-2e"/>
       <use x="141.796875" xlink:href="#LiberationSans-30"/>
      </g>
     </g>
    </g>
    <g id="xtick_43">
     <g id="line2d_140">
      <path clip-path="url(#p0705f4243c)" d="M 163.8135 525.97625 
L 163.8135 467.910716 
" style="fill:none;stroke:#ffffff;stroke-linecap:round;"/>
     </g>
     <g id="line2d_141"/>
     <g id="text_28">
      <!-- 0.5 -->
      <g style="fill:#262626;" transform="translate(153.943187 540.223125)scale(0.1 -0.1)">
       <use xlink:href="#LiberationSans-2212"/>
       <use x="58.398438" xlink:href="#LiberationSans-30"/>
       <use x="114.013672" xlink:href="#LiberationSans-2e"/>
       <use x="141.796875" xlink:href="#LiberationSans-35"/>
      </g>
     </g>
    </g>
    <g id="xtick_44">
     <g id="line2d_142">
      <path clip-path="url(#p0705f4243c)" d="M 218.370319 525.97625 
L 218.370319 467.910716 
" style="fill:none;stroke:#ffffff;stroke-linecap:round;"/>
     </g>
     <g id="line2d_143"/>
     <g id="text_29">
      <!-- 0.0 -->
      <g style="fill:#262626;" transform="translate(211.420319 540.223125)scale(0.1 -0.1)">
       <use xlink:href="#LiberationSans-30"/>
       <use x="55.615234" xlink:href="#LiberationSans-2e"/>
       <use x="83.398438" xlink:href="#LiberationSans-30"/>
      </g>
     </g>
    </g>
    <g id="xtick_45">
     <g id="line2d_144">
      <path clip-path="url(#p0705f4243c)" d="M 272.927139 525.97625 
L 272.927139 467.910716 
" style="fill:none;stroke:#ffffff;stroke-linecap:round;"/>
     </g>
     <g id="line2d_145"/>
     <g id="text_30">
      <!-- 0.5 -->
      <g style="fill:#262626;" transform="translate(265.977139 540.223125)scale(0.1 -0.1)">
       <use xlink:href="#LiberationSans-30"/>
       <use x="55.615234" xlink:href="#LiberationSans-2e"/>
       <use x="83.398438" xlink:href="#LiberationSans-35"/>
      </g>
     </g>
    </g>
    <g id="xtick_46">
     <g id="line2d_146">
      <path clip-path="url(#p0705f4243c)" d="M 327.483959 525.97625 
L 327.483959 467.910716 
" style="fill:none;stroke:#ffffff;stroke-linecap:round;"/>
     </g>
     <g id="line2d_147"/>
     <g id="text_31">
      <!-- 1.0 -->
      <g style="fill:#262626;" transform="translate(320.533959 540.223125)scale(0.1 -0.1)">
       <use xlink:href="#LiberationSans-31"/>
       <use x="55.615234" xlink:href="#LiberationSans-2e"/>
       <use x="83.398438" xlink:href="#LiberationSans-30"/>
      </g>
     </g>
    </g>
    <g id="xtick_47">
     <g id="line2d_148">
      <path clip-path="url(#p0705f4243c)" d="M 382.040779 525.97625 
L 382.040779 467.910716 
" style="fill:none;stroke:#ffffff;stroke-linecap:round;"/>
     </g>
     <g id="line2d_149"/>
     <g id="text_32">
      <!-- 1.5 -->
      <g style="fill:#262626;" transform="translate(375.090779 540.223125)scale(0.1 -0.1)">
       <use xlink:href="#LiberationSans-31"/>
       <use x="55.615234" xlink:href="#LiberationSans-2e"/>
       <use x="83.398438" xlink:href="#LiberationSans-35"/>
      </g>
     </g>
    </g>
    <g id="xtick_48">
     <g id="line2d_150">
      <path clip-path="url(#p0705f4243c)" d="M 436.597598 525.97625 
L 436.597598 467.910716 
" style="fill:none;stroke:#ffffff;stroke-linecap:round;"/>
     </g>
     <g id="line2d_151"/>
     <g id="text_33">
      <!-- 2.0 -->
      <g style="fill:#262626;" transform="translate(429.647598 540.223125)scale(0.1 -0.1)">
       <use xlink:href="#LiberationSans-32"/>
       <use x="55.615234" xlink:href="#LiberationSans-2e"/>
       <use x="83.398438" xlink:href="#LiberationSans-30"/>
      </g>
     </g>
    </g>
    <g id="text_34">
     <!-- Parameter value -->
     <defs>
      <path d="M 61.421875 48.09375 
Q 61.421875 43.609375 59.9375 39.71875 
Q 58.453125 35.84375 55.5 32.984375 
Q 52.546875 30.125 48.09375 28.46875 
Q 43.65625 26.8125 37.75 26.8125 
L 17.53125 26.8125 
L 17.53125 0 
L 8.203125 0 
L 8.203125 68.796875 
L 37.15625 68.796875 
Q 43.265625 68.796875 47.796875 67.3125 
Q 52.34375 65.828125 55.375 63.109375 
Q 58.40625 60.40625 59.90625 56.5625 
Q 61.421875 52.734375 61.421875 48.09375 
z
M 52.046875 48 
Q 52.046875 54.546875 48.046875 57.9375 
Q 44.046875 61.328125 36.03125 61.328125 
L 17.53125 61.328125 
L 17.53125 34.1875 
L 36.421875 34.1875 
Q 44.484375 34.1875 48.265625 37.75 
Q 52.046875 41.3125 52.046875 48 
z
" id="LiberationSans-50"/>
      <path d="M 37.5 0 
L 37.5 33.5 
Q 37.5 37.359375 37.015625 39.9375 
Q 36.53125 42.53125 35.375 44.109375 
Q 34.234375 45.703125 32.375 46.359375 
Q 30.515625 47.015625 27.828125 47.015625 
Q 25.046875 47.015625 22.796875 45.921875 
Q 20.5625 44.828125 18.96875 42.75 
Q 17.390625 40.671875 16.53125 37.625 
Q 15.671875 34.578125 15.671875 30.609375 
L 15.671875 0 
L 6.9375 0 
L 6.9375 41.546875 
Q 6.9375 43.21875 6.90625 45.046875 
Q 6.890625 46.875 6.828125 48.5 
Q 6.78125 50.140625 6.734375 51.3125 
Q 6.6875 52.484375 6.640625 52.828125 
L 14.9375 52.828125 
Q 14.984375 52.59375 15.03125 51.515625 
Q 15.09375 50.4375 15.15625 49.046875 
Q 15.234375 47.65625 15.28125 46.21875 
Q 15.328125 44.78125 15.328125 43.796875 
L 15.484375 43.796875 
Q 16.65625 46.09375 18.015625 47.953125 
Q 19.390625 49.8125 21.21875 51.09375 
Q 23.046875 52.390625 25.40625 53.09375 
Q 27.78125 53.8125 30.90625 53.8125 
Q 36.921875 53.8125 40.40625 51.421875 
Q 43.890625 49.03125 45.265625 43.796875 
L 45.40625 43.796875 
Q 46.578125 46.09375 48.046875 47.953125 
Q 49.515625 49.8125 51.46875 51.09375 
Q 53.421875 52.390625 55.859375 53.09375 
Q 58.296875 53.8125 61.421875 53.8125 
Q 65.4375 53.8125 68.328125 52.734375 
Q 71.234375 51.65625 73.09375 49.40625 
Q 74.953125 47.171875 75.828125 43.625 
Q 76.703125 40.09375 76.703125 35.203125 
L 76.703125 0 
L 68.015625 0 
L 68.015625 33.5 
Q 68.015625 37.359375 67.53125 39.9375 
Q 67.046875 42.53125 65.890625 44.109375 
Q 64.75 45.703125 62.890625 46.359375 
Q 61.03125 47.015625 58.34375 47.015625 
Q 55.5625 47.015625 53.3125 45.96875 
Q 51.078125 44.921875 49.484375 42.875 
Q 47.90625 40.828125 47.046875 37.75 
Q 46.1875 34.671875 46.1875 30.609375 
L 46.1875 0 
z
" id="LiberationSans-6d"/>
      <path d="M 13.484375 24.5625 
Q 13.484375 20.40625 14.328125 16.90625 
Q 15.1875 13.421875 16.96875 10.90625 
Q 18.75 8.40625 21.53125 7 
Q 24.3125 5.609375 28.21875 5.609375 
Q 33.9375 5.609375 37.375 7.90625 
Q 40.828125 10.203125 42.046875 13.71875 
L 49.75 11.53125 
Q 48.921875 9.328125 47.4375 7.109375 
Q 45.953125 4.890625 43.453125 3.09375 
Q 40.96875 1.3125 37.234375 0.15625 
Q 33.5 -0.984375 28.21875 -0.984375 
Q 16.5 -0.984375 10.375 6 
Q 4.25 12.984375 4.25 26.765625 
Q 4.25 34.1875 6.09375 39.328125 
Q 7.953125 44.484375 11.171875 47.703125 
Q 14.40625 50.921875 18.703125 52.359375 
Q 23 53.8125 27.875 53.8125 
Q 34.515625 53.8125 38.984375 51.65625 
Q 43.453125 49.515625 46.15625 45.71875 
Q 48.875 41.9375 50.015625 36.8125 
Q 51.171875 31.6875 51.171875 25.734375 
L 51.171875 24.5625 
z
M 42.09375 31.296875 
Q 41.359375 39.65625 37.84375 43.484375 
Q 34.328125 47.3125 27.734375 47.3125 
Q 25.53125 47.3125 23.109375 46.609375 
Q 20.703125 45.90625 18.65625 44.09375 
Q 16.609375 42.28125 15.1875 39.171875 
Q 13.765625 36.078125 13.578125 31.296875 
z
" id="LiberationSans-65"/>
      <path id="LiberationSans-20"/>
      <path d="M 29.9375 0 
L 19.53125 0 
L 0.34375 52.828125 
L 9.71875 52.828125 
L 21.34375 18.453125 
Q 21.6875 17.390625 22.140625 15.84375 
Q 22.609375 14.3125 23.09375 12.640625 
Q 23.578125 10.984375 24 9.4375 
Q 24.421875 7.90625 24.703125 6.890625 
Q 25 7.90625 25.453125 9.4375 
Q 25.921875 10.984375 26.40625 12.59375 
Q 26.90625 14.203125 27.421875 15.734375 
Q 27.9375 17.28125 28.328125 18.359375 
L 40.328125 52.828125 
L 49.65625 52.828125 
z
" id="LiberationSans-76"/>
      <path d="M 15.328125 52.828125 
L 15.328125 19.34375 
Q 15.328125 15.484375 15.890625 12.890625 
Q 16.453125 10.296875 17.71875 8.703125 
Q 19 7.125 21.0625 6.46875 
Q 23.140625 5.8125 26.21875 5.8125 
Q 29.34375 5.8125 31.859375 6.90625 
Q 34.375 8.015625 36.15625 10.078125 
Q 37.9375 12.15625 38.90625 15.203125 
Q 39.890625 18.265625 39.890625 22.21875 
L 39.890625 52.828125 
L 48.6875 52.828125 
L 48.6875 11.28125 
Q 48.6875 9.625 48.703125 7.78125 
Q 48.734375 5.953125 48.78125 4.3125 
Q 48.828125 2.6875 48.875 1.515625 
Q 48.921875 0.34375 48.96875 0 
L 40.671875 0 
Q 40.625 0.25 40.578125 1.3125 
Q 40.53125 2.390625 40.453125 3.78125 
Q 40.375 5.171875 40.328125 6.609375 
Q 40.28125 8.0625 40.28125 9.03125 
L 40.140625 9.03125 
Q 38.875 6.734375 37.359375 4.875 
Q 35.84375 3.03125 33.84375 1.734375 
Q 31.84375 0.4375 29.25 -0.265625 
Q 26.65625 -0.984375 23.25 -0.984375 
Q 18.84375 -0.984375 15.671875 0.09375 
Q 12.5 1.171875 10.453125 3.421875 
Q 8.40625 5.671875 7.453125 9.1875 
Q 6.5 12.703125 6.5 17.625 
L 6.5 52.828125 
z
" id="LiberationSans-75"/>
     </defs>
     <g style="fill:#262626;" transform="translate(195.973048 554.269688)scale(0.11 -0.11)">
      <use xlink:href="#LiberationSans-50"/>
      <use x="66.699219" xlink:href="#LiberationSans-61"/>
      <use x="122.314453" xlink:href="#LiberationSans-72"/>
      <use x="155.615234" xlink:href="#LiberationSans-61"/>
      <use x="211.230469" xlink:href="#LiberationSans-6d"/>
      <use x="294.53125" xlink:href="#LiberationSans-65"/>
      <use x="350.146484" xlink:href="#LiberationSans-74"/>
      <use x="377.929688" xlink:href="#LiberationSans-65"/>
      <use x="433.544922" xlink:href="#LiberationSans-72"/>
      <use x="466.845703" xlink:href="#LiberationSans-20"/>
      <use x="494.628906" xlink:href="#LiberationSans-76"/>
      <use x="544.628906" xlink:href="#LiberationSans-61"/>
      <use x="600.244141" xlink:href="#LiberationSans-6c"/>
      <use x="622.460938" xlink:href="#LiberationSans-75"/>
      <use x="678.076172" xlink:href="#LiberationSans-65"/>
     </g>
    </g>
   </g>
   <g id="matplotlib.axis_12">
    <g id="ytick_11">
     <g id="line2d_152">
      <path clip-path="url(#p0705f4243c)" d="M 28.1 523.337582 
L 444.546564 523.337582 
" style="fill:none;stroke:#ffffff;stroke-linecap:round;"/>
     </g>
     <g id="line2d_153"/>
     <g id="text_35">
      <!-- 0 -->
      <g style="fill:#262626;" transform="translate(15.539062 526.96102)scale(0.1 -0.1)">
       <use xlink:href="#LiberationSans-30"/>
      </g>
     </g>
    </g>
    <g id="ytick_12">
     <g id="line2d_154">
      <path clip-path="url(#p0705f4243c)" d="M 28.1 494.482867 
L 444.546564 494.482867 
" style="fill:none;stroke:#ffffff;stroke-linecap:round;"/>
     </g>
     <g id="line2d_155"/>
     <g id="text_36">
      <!-- 5 -->
      <g style="fill:#262626;" transform="translate(15.539062 498.106304)scale(0.1 -0.1)">
       <use xlink:href="#LiberationSans-35"/>
      </g>
     </g>
    </g>
   </g>
   <g id="line2d_156">
    <path clip-path="url(#p0705f4243c)" d="M 306.935158 523.336672 
L 310.264144 523.252291 
L 313.038298 522.917079 
L 314.702791 522.623971 
L 315.812453 522.273888 
L 316.922114 521.697276 
L 318.031776 520.866383 
L 319.696269 519.247702 
L 320.805931 517.921366 
L 321.915592 516.206842 
L 323.025254 513.965898 
L 327.463901 503.471744 
L 329.683225 498.149072 
L 330.792887 496.03812 
L 331.347717 495.267138 
L 331.902548 494.718428 
L 332.457379 494.389207 
L 333.01221 494.242452 
L 334.676703 494.258146 
L 335.786365 494.422714 
L 336.341195 494.670022 
L 336.896026 495.08267 
L 338.005688 496.35546 
L 339.670181 498.85594 
L 342.999166 504.415085 
L 346.882982 511.740674 
L 348.547475 513.943624 
L 350.766799 516.495148 
L 352.431291 518.031958 
L 354.650615 519.590599 
L 357.9796 521.688017 
L 359.089262 522.098764 
L 360.753754 522.380518 
L 366.302063 523.025082 
L 370.18588 523.216849 
L 377.398681 523.336908 
L 377.398681 523.336908 
" style="fill:none;stroke:#4c72b0;stroke-linecap:round;stroke-width:1.75;"/>
   </g>
   <g id="line2d_157">
    <path clip-path="url(#p0705f4243c)" d="M 316.894754 523.33116 
L 318.296327 523.230273 
L 319.137271 522.978002 
L 321.660104 521.908847 
L 323.061677 521.522586 
L 323.622307 521.192795 
L 324.182936 520.620111 
L 324.743566 519.59425 
L 325.304195 517.887314 
L 325.864824 515.399868 
L 326.705769 510.4782 
L 328.667972 497.033907 
L 330.910489 481.190189 
L 331.751434 477.038725 
L 332.312063 475.178798 
L 333.153007 473.217709 
L 334.274266 471.118915 
L 334.834895 470.584021 
L 335.11521 470.550058 
L 335.395525 470.693637 
L 335.67584 471.026902 
L 336.236469 472.32374 
L 336.797098 474.548395 
L 337.638043 479.32324 
L 340.160875 495.862596 
L 342.123078 510.582771 
L 342.683708 513.283182 
L 343.244337 515.176911 
L 344.365596 517.901551 
L 345.767169 520.860905 
L 346.608114 522.070921 
L 347.168743 522.535574 
L 347.729372 522.765107 
L 350.252205 523.178315 
L 351.653778 523.31862 
L 352.494723 523.332438 
L 352.494723 523.332438 
" style="fill:none;stroke:#55a868;stroke-linecap:round;stroke-width:1.75;"/>
   </g>
   <g id="line2d_158">
    <path clip-path="url(#p0705f4243c)" d="M 327.483959 525.97625 
L 327.483959 467.910716 
" style="fill:none;stroke:#000000;stroke-dasharray:1.75,2.8875;stroke-dashoffset:0;stroke-width:1.75;"/>
   </g>
   <g id="patch_28">
    <path d="M 28.1 525.97625 
L 28.1 467.910716 
" style="fill:none;"/>
   </g>
   <g id="patch_29">
    <path d="M 444.546564 525.97625 
L 444.546564 467.910716 
" style="fill:none;"/>
   </g>
   <g id="patch_30">
    <path d="M 28.1 525.97625 
L 444.546564 525.97625 
" style="fill:none;"/>
   </g>
   <g id="patch_31">
    <path d="M 28.1 467.910716 
L 444.546564 467.910716 
" style="fill:none;"/>
   </g>
   <g id="text_37">
    <!-- Noise std dev -->
    <defs>
     <path d="M 52.828125 0 
L 16.015625 58.59375 
Q 16.109375 56.203125 16.265625 53.859375 
Q 16.359375 51.859375 16.421875 49.625 
Q 16.5 47.40625 16.5 45.703125 
L 16.5 0 
L 8.203125 0 
L 8.203125 68.796875 
L 19.046875 68.796875 
L 56.25 9.8125 
Q 56.109375 12.203125 55.953125 14.59375 
Q 55.859375 16.65625 55.765625 19.0625 
Q 55.671875 21.484375 55.671875 23.6875 
L 55.671875 68.796875 
L 64.0625 68.796875 
L 64.0625 0 
z
" id="LiberationSans-4e"/>
     <path d="M 40.09375 8.5 
Q 37.640625 3.421875 33.609375 1.21875 
Q 29.59375 -0.984375 23.640625 -0.984375 
Q 13.625 -0.984375 8.90625 5.75 
Q 4.203125 12.5 4.203125 26.171875 
Q 4.203125 53.8125 23.640625 53.8125 
Q 29.640625 53.8125 33.640625 51.609375 
Q 37.640625 49.421875 40.09375 44.625 
L 40.1875 44.625 
Q 40.1875 45.125 40.15625 46.171875 
Q 40.140625 47.21875 40.109375 48.359375 
Q 40.09375 49.515625 40.09375 50.53125 
Q 40.09375 51.5625 40.09375 52 
L 40.09375 72.46875 
L 48.875 72.46875 
L 48.875 10.890625 
Q 48.875 8.984375 48.890625 7.21875 
Q 48.921875 5.46875 48.96875 4 
Q 49.03125 2.546875 49.078125 1.484375 
Q 49.125 0.4375 49.171875 0 
L 40.765625 0 
Q 40.671875 0.484375 40.59375 1.390625 
Q 40.53125 2.296875 40.453125 3.46875 
Q 40.375 4.640625 40.328125 5.9375 
Q 40.28125 7.234375 40.28125 8.5 
z
M 13.421875 26.46875 
Q 13.421875 21 14.109375 17.09375 
Q 14.796875 13.1875 16.3125 10.671875 
Q 17.828125 8.15625 20.171875 6.984375 
Q 22.515625 5.8125 25.875 5.8125 
Q 29.34375 5.8125 32 6.9375 
Q 34.671875 8.0625 36.453125 10.578125 
Q 38.234375 13.09375 39.15625 17.140625 
Q 40.09375 21.1875 40.09375 27.046875 
Q 40.09375 32.671875 39.15625 36.546875 
Q 38.234375 40.4375 36.421875 42.828125 
Q 34.625 45.21875 32 46.265625 
Q 29.390625 47.3125 25.984375 47.3125 
Q 22.75 47.3125 20.40625 46.1875 
Q 18.0625 45.0625 16.5 42.578125 
Q 14.9375 40.09375 14.171875 36.109375 
Q 13.421875 32.125 13.421875 26.46875 
z
" id="LiberationSans-64"/>
    </defs>
    <g style="fill:#262626;" transform="translate(199.973594 461.910716)scale(0.12 -0.12)">
     <use xlink:href="#LiberationSans-4e"/>
     <use x="72.216797" xlink:href="#LiberationSans-6f"/>
     <use x="127.832031" xlink:href="#LiberationSans-69"/>
     <use x="150.048828" xlink:href="#LiberationSans-73"/>
     <use x="200.048828" xlink:href="#LiberationSans-65"/>
     <use x="255.664062" xlink:href="#LiberationSans-20"/>
     <use x="283.447266" xlink:href="#LiberationSans-73"/>
     <use x="333.447266" xlink:href="#LiberationSans-74"/>
     <use x="361.230469" xlink:href="#LiberationSans-64"/>
     <use x="416.845703" xlink:href="#LiberationSans-20"/>
     <use x="444.628906" xlink:href="#LiberationSans-64"/>
     <use x="500.244141" xlink:href="#LiberationSans-65"/>
     <use x="555.859375" xlink:href="#LiberationSans-76"/>
    </g>
   </g>
   <g id="legend_6">
    <g id="line2d_159">
     <path d="M 360.309064 480.657591 
L 380.309064 480.657591 
" style="fill:none;stroke:#4c72b0;stroke-linecap:round;stroke-width:1.75;"/>
    </g>
    <g id="line2d_160"/>
    <g id="text_38">
     <!-- MCMC -->
     <g style="fill:#262626;" transform="translate(388.309064 484.157591)scale(0.1 -0.1)">
      <use xlink:href="#LiberationSans-4d"/>
      <use x="83.300781" xlink:href="#LiberationSans-43"/>
      <use x="155.517578" xlink:href="#LiberationSans-4d"/>
      <use x="238.818359" xlink:href="#LiberationSans-43"/>
     </g>
    </g>
    <g id="line2d_161">
     <path d="M 360.309064 494.979466 
L 380.309064 494.979466 
" style="fill:none;stroke:#55a868;stroke-linecap:round;stroke-width:1.75;"/>
    </g>
    <g id="line2d_162"/>
    <g id="text_39">
     <!-- Variational -->
     <g style="fill:#262626;" transform="translate(388.309064 498.479466)scale(0.1 -0.1)">
      <use xlink:href="#LiberationSans-56"/>
      <use x="66.589844" xlink:href="#LiberationSans-61"/>
      <use x="122.205078" xlink:href="#LiberationSans-72"/>
      <use x="155.505859" xlink:href="#LiberationSans-69"/>
      <use x="177.722656" xlink:href="#LiberationSans-61"/>
      <use x="233.337891" xlink:href="#LiberationSans-74"/>
      <use x="261.121094" xlink:href="#LiberationSans-69"/>
      <use x="283.337891" xlink:href="#LiberationSans-6f"/>
      <use x="338.953125" xlink:href="#LiberationSans-6e"/>
      <use x="394.568359" xlink:href="#LiberationSans-61"/>
      <use x="450.183594" xlink:href="#LiberationSans-6c"/>
     </g>
    </g>
   </g>
  </g>
 </g>
 <defs>
  <clipPath id="pdadd7c9526">
   <rect height="58.065534" width="416.446564" x="28.1" y="21.89625"/>
  </clipPath>
  <clipPath id="p22f0dba983">
   <rect height="58.065534" width="416.446564" x="28.1" y="111.099143"/>
  </clipPath>
  <clipPath id="pd746e76541">
   <rect height="58.065534" width="416.446564" x="28.1" y="200.302036"/>
  </clipPath>
  <clipPath id="pdcbb0f9404">
   <rect height="58.065534" width="416.446564" x="28.1" y="289.50493"/>
  </clipPath>
  <clipPath id="pd61fa41bc8">
   <rect height="58.065534" width="416.446564" x="28.1" y="378.707823"/>
  </clipPath>
  <clipPath id="p0705f4243c">
   <rect height="58.065534" width="416.446564" x="28.1" y="467.910716"/>
  </clipPath>
 </defs>
</svg>
