<?xml version="1.0" encoding="utf-8" standalone="no"?>
<!DOCTYPE svg PUBLIC "-//W3C//DTD SVG 1.1//EN"
  "http://www.w3.org/Graphics/SVG/1.1/DTD/svg11.dtd">
<!-- Created with matplotlib (http://matplotlib.org/) -->
<svg version="1.1" viewBox="0 0 501 358" xmlns="http://www.w3.org/2000/svg" xmlns:xlink="http://www.w3.org/1999/xlink">
 <defs>
  <style type="text/css">
*{stroke-linecap:butt;stroke-linejoin:round;}
  </style>
 </defs>
 <g id="figure_1">
  <g id="patch_1">
   <path d="M 0 358.652187 
L 501.794687 358.652187 
L 501.794687 0 
L 0 0 
z
" style="fill:#ffffff;"/>
  </g>
  <g id="axes_1">
   <g id="patch_2">
    <path d="M 48.194688 320.87625 
L 494.594687 320.87625 
L 494.594687 21.89625 
L 48.194688 21.89625 
z
" style="fill:#eaeaf2;"/>
   </g>
   <g id="matplotlib.axis_1">
    <g id="xtick_1">
     <g id="line2d_1">
      <path clip-path="url(#p5a8048e37c)" d="M 68.485597 320.87625 
L 68.485597 21.89625 
" style="fill:none;stroke:#ffffff;stroke-linecap:round;"/>
     </g>
     <g id="line2d_2"/>
     <g id="text_1">
      <!-- 0 -->
      <defs>
       <path d="M 51.703125 34.421875 
Q 51.703125 24.515625 49.828125 17.75 
Q 47.953125 10.984375 44.703125 6.8125 
Q 41.453125 2.640625 37.0625 0.828125 
Q 32.671875 -0.984375 27.6875 -0.984375 
Q 22.65625 -0.984375 18.3125 0.828125 
Q 13.96875 2.640625 10.765625 6.78125 
Q 7.5625 10.9375 5.734375 17.703125 
Q 3.90625 24.46875 3.90625 34.421875 
Q 3.90625 44.828125 5.734375 51.640625 
Q 7.5625 58.453125 10.78125 62.5 
Q 14.015625 66.546875 18.40625 68.1875 
Q 22.796875 69.828125 27.984375 69.828125 
Q 32.90625 69.828125 37.21875 68.1875 
Q 41.546875 66.546875 44.765625 62.5 
Q 48 58.453125 49.84375 51.640625 
Q 51.703125 44.828125 51.703125 34.421875 
z
M 42.78125 34.421875 
Q 42.78125 42.625 41.796875 48.0625 
Q 40.828125 53.515625 38.921875 56.765625 
Q 37.015625 60.015625 34.25 61.359375 
Q 31.5 62.703125 27.984375 62.703125 
Q 24.265625 62.703125 21.4375 61.328125 
Q 18.609375 59.96875 16.671875 56.71875 
Q 14.75 53.46875 13.765625 48.015625 
Q 12.796875 42.578125 12.796875 34.421875 
Q 12.796875 26.515625 13.796875 21.09375 
Q 14.796875 15.671875 16.71875 12.375 
Q 18.65625 9.078125 21.4375 7.640625 
Q 24.21875 6.203125 27.78125 6.203125 
Q 31.25 6.203125 34.03125 7.640625 
Q 36.8125 9.078125 38.734375 12.375 
Q 40.671875 15.671875 41.71875 21.09375 
Q 42.78125 26.515625 42.78125 34.421875 
z
" id="LiberationSans-30"/>
      </defs>
      <g style="fill:#262626;" transform="translate(65.705128 335.123125)scale(0.1 -0.1)">
       <use xlink:href="#LiberationSans-30"/>
      </g>
     </g>
    </g>
    <g id="xtick_2">
     <g id="line2d_3">
      <path clip-path="url(#p5a8048e37c)" d="M 119.212869 320.87625 
L 119.212869 21.89625 
" style="fill:none;stroke:#ffffff;stroke-linecap:round;"/>
     </g>
     <g id="line2d_4"/>
     <g id="text_2">
      <!-- 250 -->
      <defs>
       <path d="M 5.03125 0 
L 5.03125 6.203125 
Q 7.515625 11.921875 11.109375 16.28125 
Q 14.703125 20.65625 18.65625 24.1875 
Q 22.609375 27.734375 26.484375 30.765625 
Q 30.375 33.796875 33.5 36.8125 
Q 36.625 39.84375 38.546875 43.15625 
Q 40.484375 46.484375 40.484375 50.6875 
Q 40.484375 53.609375 39.59375 55.828125 
Q 38.71875 58.0625 37.0625 59.5625 
Q 35.40625 61.078125 33.078125 61.828125 
Q 30.765625 62.59375 27.9375 62.59375 
Q 25.296875 62.59375 22.96875 61.859375 
Q 20.65625 61.140625 18.84375 59.671875 
Q 17.046875 58.203125 15.890625 56.03125 
Q 14.75 53.859375 14.40625 50.984375 
L 5.421875 51.8125 
Q 5.859375 55.515625 7.46875 58.78125 
Q 9.078125 62.0625 11.90625 64.53125 
Q 14.75 67 18.71875 68.40625 
Q 22.703125 69.828125 27.9375 69.828125 
Q 33.0625 69.828125 37.0625 68.609375 
Q 41.0625 67.390625 43.8125 64.984375 
Q 46.578125 62.59375 48.046875 59.078125 
Q 49.515625 55.5625 49.515625 50.984375 
Q 49.515625 47.515625 48.265625 44.390625 
Q 47.015625 41.265625 44.9375 38.421875 
Q 42.875 35.59375 40.140625 32.953125 
Q 37.40625 30.328125 34.421875 27.8125 
Q 31.453125 25.296875 28.421875 22.828125 
Q 25.390625 20.359375 22.71875 17.859375 
Q 20.0625 15.375 17.96875 12.8125 
Q 15.875 10.25 14.703125 7.46875 
L 50.59375 7.46875 
L 50.59375 0 
z
" id="LiberationSans-32"/>
       <path d="M 51.421875 22.40625 
Q 51.421875 17.234375 49.859375 12.9375 
Q 48.296875 8.640625 45.21875 5.53125 
Q 42.140625 2.4375 37.578125 0.71875 
Q 33.015625 -0.984375 27 -0.984375 
Q 21.578125 -0.984375 17.546875 0.28125 
Q 13.53125 1.5625 10.734375 3.78125 
Q 7.953125 6 6.3125 8.984375 
Q 4.6875 11.96875 4 15.375 
L 12.890625 16.40625 
Q 13.421875 14.453125 14.390625 12.625 
Q 15.375 10.796875 17.0625 9.34375 
Q 18.75 7.90625 21.21875 7.046875 
Q 23.6875 6.203125 27.203125 6.203125 
Q 30.609375 6.203125 33.390625 7.25 
Q 36.1875 8.296875 38.15625 10.34375 
Q 40.140625 12.40625 41.203125 15.375 
Q 42.28125 18.359375 42.28125 22.21875 
Q 42.28125 25.390625 41.25 28.046875 
Q 40.234375 30.71875 38.328125 32.640625 
Q 36.421875 34.578125 33.65625 35.640625 
Q 30.90625 36.71875 27.390625 36.71875 
Q 25.203125 36.71875 23.34375 36.328125 
Q 21.484375 35.9375 19.890625 35.25 
Q 18.3125 34.578125 17.015625 33.671875 
Q 15.71875 32.765625 14.59375 31.78125 
L 6 31.78125 
L 8.296875 68.796875 
L 47.40625 68.796875 
L 47.40625 61.328125 
L 16.3125 61.328125 
L 14.984375 39.5 
Q 17.328125 41.3125 20.84375 42.59375 
Q 24.359375 43.890625 29.203125 43.890625 
Q 34.328125 43.890625 38.421875 42.328125 
Q 42.53125 40.765625 45.40625 37.90625 
Q 48.296875 35.0625 49.859375 31.109375 
Q 51.421875 27.15625 51.421875 22.40625 
z
" id="LiberationSans-35"/>
      </defs>
      <g style="fill:#262626;" transform="translate(110.871463 335.123125)scale(0.1 -0.1)">
       <use xlink:href="#LiberationSans-32"/>
       <use x="55.615234" xlink:href="#LiberationSans-35"/>
       <use x="111.230469" xlink:href="#LiberationSans-30"/>
      </g>
     </g>
    </g>
    <g id="xtick_3">
     <g id="line2d_5">
      <path clip-path="url(#p5a8048e37c)" d="M 169.940142 320.87625 
L 169.940142 21.89625 
" style="fill:none;stroke:#ffffff;stroke-linecap:round;"/>
     </g>
     <g id="line2d_6"/>
     <g id="text_3">
      <!-- 500 -->
      <g style="fill:#262626;" transform="translate(161.598736 335.123125)scale(0.1 -0.1)">
       <use xlink:href="#LiberationSans-35"/>
       <use x="55.615234" xlink:href="#LiberationSans-30"/>
       <use x="111.230469" xlink:href="#LiberationSans-30"/>
      </g>
     </g>
    </g>
    <g id="xtick_4">
     <g id="line2d_7">
      <path clip-path="url(#p5a8048e37c)" d="M 220.667415 320.87625 
L 220.667415 21.89625 
" style="fill:none;stroke:#ffffff;stroke-linecap:round;"/>
     </g>
     <g id="line2d_8"/>
     <g id="text_4">
      <!-- 750 -->
      <defs>
       <path d="M 50.59375 61.671875 
Q 45.40625 53.765625 41.0625 46.453125 
Q 36.71875 39.15625 33.59375 31.75 
Q 30.46875 24.359375 28.734375 16.578125 
Q 27 8.796875 27 0 
L 17.828125 0 
Q 17.828125 8.25 19.78125 16.1875 
Q 21.734375 24.125 25.046875 31.765625 
Q 28.375 39.40625 32.765625 46.78125 
Q 37.15625 54.15625 42.09375 61.328125 
L 5.125 61.328125 
L 5.125 68.796875 
L 50.59375 68.796875 
z
" id="LiberationSans-37"/>
      </defs>
      <g style="fill:#262626;" transform="translate(212.326009 335.123125)scale(0.1 -0.1)">
       <use xlink:href="#LiberationSans-37"/>
       <use x="55.615234" xlink:href="#LiberationSans-35"/>
       <use x="111.230469" xlink:href="#LiberationSans-30"/>
      </g>
     </g>
    </g>
    <g id="xtick_5">
     <g id="line2d_9">
      <path clip-path="url(#p5a8048e37c)" d="M 271.394688 320.87625 
L 271.394688 21.89625 
" style="fill:none;stroke:#ffffff;stroke-linecap:round;"/>
     </g>
     <g id="line2d_10"/>
     <g id="text_5">
      <!-- 1000 -->
      <defs>
       <path d="M 7.625 0 
L 7.625 7.46875 
L 25.140625 7.46875 
L 25.140625 60.40625 
L 9.625 49.3125 
L 9.625 57.625 
L 25.875 68.796875 
L 33.984375 68.796875 
L 33.984375 7.46875 
L 50.734375 7.46875 
L 50.734375 0 
z
" id="LiberationSans-31"/>
      </defs>
      <g style="fill:#262626;" transform="translate(260.272813 335.123125)scale(0.1 -0.1)">
       <use xlink:href="#LiberationSans-31"/>
       <use x="55.615234" xlink:href="#LiberationSans-30"/>
       <use x="111.230469" xlink:href="#LiberationSans-30"/>
       <use x="166.845703" xlink:href="#LiberationSans-30"/>
      </g>
     </g>
    </g>
    <g id="xtick_6">
     <g id="line2d_11">
      <path clip-path="url(#p5a8048e37c)" d="M 322.12196 320.87625 
L 322.12196 21.89625 
" style="fill:none;stroke:#ffffff;stroke-linecap:round;"/>
     </g>
     <g id="line2d_12"/>
     <g id="text_6">
      <!-- 1250 -->
      <g style="fill:#262626;" transform="translate(311.000085 335.123125)scale(0.1 -0.1)">
       <use xlink:href="#LiberationSans-31"/>
       <use x="55.615234" xlink:href="#LiberationSans-32"/>
       <use x="111.230469" xlink:href="#LiberationSans-35"/>
       <use x="166.845703" xlink:href="#LiberationSans-30"/>
      </g>
     </g>
    </g>
    <g id="xtick_7">
     <g id="line2d_13">
      <path clip-path="url(#p5a8048e37c)" d="M 372.849233 320.87625 
L 372.849233 21.89625 
" style="fill:none;stroke:#ffffff;stroke-linecap:round;"/>
     </g>
     <g id="line2d_14"/>
     <g id="text_7">
      <!-- 1500 -->
      <g style="fill:#262626;" transform="translate(361.727358 335.123125)scale(0.1 -0.1)">
       <use xlink:href="#LiberationSans-31"/>
       <use x="55.615234" xlink:href="#LiberationSans-35"/>
       <use x="111.230469" xlink:href="#LiberationSans-30"/>
       <use x="166.845703" xlink:href="#LiberationSans-30"/>
      </g>
     </g>
    </g>
    <g id="xtick_8">
     <g id="line2d_15">
      <path clip-path="url(#p5a8048e37c)" d="M 423.576506 320.87625 
L 423.576506 21.89625 
" style="fill:none;stroke:#ffffff;stroke-linecap:round;"/>
     </g>
     <g id="line2d_16"/>
     <g id="text_8">
      <!-- 1750 -->
      <g style="fill:#262626;" transform="translate(412.454631 335.123125)scale(0.1 -0.1)">
       <use xlink:href="#LiberationSans-31"/>
       <use x="55.615234" xlink:href="#LiberationSans-37"/>
       <use x="111.230469" xlink:href="#LiberationSans-35"/>
       <use x="166.845703" xlink:href="#LiberationSans-30"/>
      </g>
     </g>
    </g>
    <g id="xtick_9">
     <g id="line2d_17">
      <path clip-path="url(#p5a8048e37c)" d="M 474.303778 320.87625 
L 474.303778 21.89625 
" style="fill:none;stroke:#ffffff;stroke-linecap:round;"/>
     </g>
     <g id="line2d_18"/>
     <g id="text_9">
      <!-- 2000 -->
      <g style="fill:#262626;" transform="translate(463.181903 335.123125)scale(0.1 -0.1)">
       <use xlink:href="#LiberationSans-32"/>
       <use x="55.615234" xlink:href="#LiberationSans-30"/>
       <use x="111.230469" xlink:href="#LiberationSans-30"/>
       <use x="166.845703" xlink:href="#LiberationSans-30"/>
      </g>
     </g>
    </g>
    <g id="text_10">
     <!-- Training Step -->
     <defs>
      <path d="M 35.15625 61.1875 
L 35.15625 0 
L 25.875 0 
L 25.875 61.1875 
L 2.25 61.1875 
L 2.25 68.796875 
L 58.796875 68.796875 
L 58.796875 61.1875 
z
" id="LiberationSans-54"/>
      <path d="M 6.9375 0 
L 6.9375 40.53125 
Q 6.9375 42.1875 6.90625 43.921875 
Q 6.890625 45.65625 6.828125 47.265625 
Q 6.78125 48.875 6.734375 50.28125 
Q 6.6875 51.703125 6.640625 52.828125 
L 14.9375 52.828125 
Q 14.984375 51.703125 15.0625 50.265625 
Q 15.140625 48.828125 15.203125 47.3125 
Q 15.28125 45.796875 15.296875 44.40625 
Q 15.328125 43.015625 15.328125 42.046875 
L 15.53125 42.046875 
Q 16.453125 45.0625 17.5 47.28125 
Q 18.5625 49.515625 19.96875 50.953125 
Q 21.390625 52.390625 23.34375 53.09375 
Q 25.296875 53.8125 28.078125 53.8125 
Q 29.15625 53.8125 30.125 53.640625 
Q 31.109375 53.46875 31.640625 53.328125 
L 31.640625 45.265625 
Q 30.765625 45.515625 29.59375 45.625 
Q 28.421875 45.75 26.953125 45.75 
Q 23.921875 45.75 21.796875 44.375 
Q 19.671875 43.015625 18.328125 40.59375 
Q 17 38.1875 16.359375 34.84375 
Q 15.71875 31.5 15.71875 27.546875 
L 15.71875 0 
z
" id="LiberationSans-72"/>
      <path d="M 20.21875 -0.984375 
Q 12.25 -0.984375 8.25 3.21875 
Q 4.25 7.421875 4.25 14.75 
Q 4.25 19.96875 6.21875 23.3125 
Q 8.203125 26.65625 11.390625 28.5625 
Q 14.59375 30.46875 18.6875 31.203125 
Q 22.796875 31.9375 27.046875 32.03125 
L 38.921875 32.234375 
L 38.921875 35.109375 
Q 38.921875 38.375 38.234375 40.671875 
Q 37.546875 42.96875 36.125 44.375 
Q 34.71875 45.796875 32.59375 46.453125 
Q 30.46875 47.125 27.59375 47.125 
Q 25.046875 47.125 23 46.75 
Q 20.953125 46.390625 19.4375 45.4375 
Q 17.921875 44.484375 16.984375 42.84375 
Q 16.0625 41.21875 15.765625 38.71875 
L 6.59375 39.546875 
Q 7.078125 42.671875 8.4375 45.28125 
Q 9.8125 47.90625 12.328125 49.796875 
Q 14.84375 51.703125 18.625 52.75 
Q 22.40625 53.8125 27.78125 53.8125 
Q 37.75 53.8125 42.765625 49.234375 
Q 47.796875 44.671875 47.796875 36.03125 
L 47.796875 13.28125 
Q 47.796875 9.375 48.828125 7.390625 
Q 49.859375 5.421875 52.734375 5.421875 
Q 53.46875 5.421875 54.203125 5.515625 
Q 54.9375 5.609375 55.609375 5.765625 
L 55.609375 0.296875 
Q 53.953125 -0.09375 52.3125 -0.28125 
Q 50.6875 -0.484375 48.828125 -0.484375 
Q 46.34375 -0.484375 44.5625 0.171875 
Q 42.78125 0.828125 41.65625 2.171875 
Q 40.53125 3.515625 39.9375 5.484375 
Q 39.359375 7.46875 39.203125 10.109375 
L 38.921875 10.109375 
Q 37.5 7.5625 35.8125 5.515625 
Q 34.125 3.46875 31.875 2.03125 
Q 29.640625 0.59375 26.78125 -0.1875 
Q 23.921875 -0.984375 20.21875 -0.984375 
z
M 22.21875 5.609375 
Q 26.421875 5.609375 29.5625 7.140625 
Q 32.71875 8.6875 34.78125 11.078125 
Q 36.859375 13.484375 37.890625 16.3125 
Q 38.921875 19.140625 38.921875 21.734375 
L 38.921875 26.078125 
L 29.296875 25.875 
Q 26.078125 25.828125 23.171875 25.40625 
Q 20.265625 25 18.0625 23.78125 
Q 15.875 22.5625 14.578125 20.359375 
Q 13.28125 18.171875 13.28125 14.59375 
Q 13.28125 10.296875 15.59375 7.953125 
Q 17.921875 5.609375 22.21875 5.609375 
z
" id="LiberationSans-61"/>
      <path d="M 6.6875 64.0625 
L 6.6875 72.46875 
L 15.484375 72.46875 
L 15.484375 64.0625 
z
M 6.6875 0 
L 6.6875 52.828125 
L 15.484375 52.828125 
L 15.484375 0 
z
" id="LiberationSans-69"/>
      <path d="M 40.28125 0 
L 40.28125 33.5 
Q 40.28125 37.359375 39.71875 39.9375 
Q 39.15625 42.53125 37.890625 44.109375 
Q 36.625 45.703125 34.546875 46.359375 
Q 32.46875 47.015625 29.390625 47.015625 
Q 26.265625 47.015625 23.75 45.921875 
Q 21.234375 44.828125 19.453125 42.75 
Q 17.671875 40.671875 16.6875 37.625 
Q 15.71875 34.578125 15.71875 30.609375 
L 15.71875 0 
L 6.9375 0 
L 6.9375 41.546875 
Q 6.9375 43.21875 6.90625 45.046875 
Q 6.890625 46.875 6.828125 48.5 
Q 6.78125 50.140625 6.734375 51.3125 
Q 6.6875 52.484375 6.640625 52.828125 
L 14.9375 52.828125 
Q 14.984375 52.59375 15.03125 51.515625 
Q 15.09375 50.4375 15.15625 49.046875 
Q 15.234375 47.65625 15.28125 46.21875 
Q 15.328125 44.78125 15.328125 43.796875 
L 15.484375 43.796875 
Q 16.75 46.09375 18.265625 47.953125 
Q 19.78125 49.8125 21.78125 51.09375 
Q 23.78125 52.390625 26.359375 53.09375 
Q 28.953125 53.8125 32.375 53.8125 
Q 36.765625 53.8125 39.9375 52.734375 
Q 43.109375 51.65625 45.15625 49.40625 
Q 47.21875 47.171875 48.171875 43.625 
Q 49.125 40.09375 49.125 35.203125 
L 49.125 0 
z
" id="LiberationSans-6e"/>
      <path d="M 26.765625 -20.75 
Q 22.21875 -20.75 18.703125 -19.8125 
Q 15.1875 -18.890625 12.6875 -17.15625 
Q 10.203125 -15.4375 8.640625 -13.03125 
Q 7.078125 -10.640625 6.390625 -7.71875 
L 15.234375 -6.453125 
Q 16.109375 -10.109375 19.109375 -12.078125 
Q 22.125 -14.0625 27 -14.0625 
Q 29.984375 -14.0625 32.421875 -13.234375 
Q 34.859375 -12.40625 36.5625 -10.5625 
Q 38.28125 -8.734375 39.203125 -5.796875 
Q 40.140625 -2.875 40.140625 1.3125 
L 40.140625 9.8125 
L 40.046875 9.8125 
Q 39.0625 7.8125 37.625 5.984375 
Q 36.1875 4.15625 34.109375 2.734375 
Q 32.03125 1.3125 29.296875 0.453125 
Q 26.5625 -0.390625 23.046875 -0.390625 
Q 18.015625 -0.390625 14.421875 1.296875 
Q 10.84375 2.984375 8.5625 6.34375 
Q 6.296875 9.71875 5.25 14.71875 
Q 4.203125 19.734375 4.203125 26.3125 
Q 4.203125 32.671875 5.25 37.75 
Q 6.296875 42.828125 8.65625 46.359375 
Q 11.03125 49.90625 14.8125 51.78125 
Q 18.609375 53.65625 24.03125 53.65625 
Q 29.640625 53.65625 33.765625 51.09375 
Q 37.890625 48.53125 40.140625 43.796875 
L 40.234375 43.796875 
Q 40.234375 45.015625 40.296875 46.53125 
Q 40.375 48.046875 40.453125 49.390625 
Q 40.53125 50.734375 40.625 51.703125 
Q 40.71875 52.6875 40.828125 52.828125 
L 49.171875 52.828125 
Q 49.125 52.390625 49.078125 51.34375 
Q 49.03125 50.296875 48.96875 48.828125 
Q 48.921875 47.359375 48.890625 45.578125 
Q 48.875 43.796875 48.875 41.890625 
L 48.875 1.515625 
Q 48.875 -9.578125 43.421875 -15.15625 
Q 37.984375 -20.75 26.765625 -20.75 
z
M 40.140625 26.421875 
Q 40.140625 31.9375 38.9375 35.859375 
Q 37.75 39.796875 35.796875 42.28125 
Q 33.84375 44.78125 31.328125 45.953125 
Q 28.8125 47.125 26.171875 47.125 
Q 22.796875 47.125 20.375 45.953125 
Q 17.96875 44.78125 16.375 42.265625 
Q 14.796875 39.75 14.03125 35.8125 
Q 13.28125 31.890625 13.28125 26.421875 
Q 13.28125 20.703125 14.03125 16.8125 
Q 14.796875 12.9375 16.359375 10.546875 
Q 17.921875 8.15625 20.3125 7.125 
Q 22.703125 6.109375 26.03125 6.109375 
Q 28.65625 6.109375 31.171875 7.21875 
Q 33.6875 8.34375 35.6875 10.78125 
Q 37.703125 13.234375 38.921875 17.09375 
Q 40.140625 20.953125 40.140625 26.421875 
z
" id="LiberationSans-67"/>
      <path id="LiberationSans-20"/>
      <path d="M 62.109375 19 
Q 62.109375 14.65625 60.421875 10.984375 
Q 58.734375 7.328125 55.21875 4.65625 
Q 51.703125 2 46.359375 0.5 
Q 41.015625 -0.984375 33.6875 -0.984375 
Q 20.84375 -0.984375 13.671875 3.515625 
Q 6.5 8.015625 4.546875 16.5 
L 13.578125 18.3125 
Q 14.265625 15.625 15.671875 13.421875 
Q 17.09375 11.234375 19.5 9.640625 
Q 21.921875 8.0625 25.484375 7.171875 
Q 29.046875 6.296875 34.03125 6.296875 
Q 38.1875 6.296875 41.65625 7 
Q 45.125 7.71875 47.609375 9.171875 
Q 50.09375 10.640625 51.484375 12.953125 
Q 52.875 15.28125 52.875 18.5 
Q 52.875 21.875 51.34375 23.96875 
Q 49.8125 26.078125 47.015625 27.4375 
Q 44.234375 28.8125 40.375 29.734375 
Q 36.53125 30.671875 31.84375 31.734375 
Q 28.953125 32.375 26.046875 33.125 
Q 23.140625 33.890625 20.484375 34.9375 
Q 17.828125 35.984375 15.484375 37.390625 
Q 13.140625 38.8125 11.421875 40.796875 
Q 9.71875 42.78125 8.734375 45.390625 
Q 7.765625 48 7.765625 51.421875 
Q 7.765625 56.296875 9.734375 59.78125 
Q 11.71875 63.28125 15.234375 65.53125 
Q 18.75 67.78125 23.53125 68.796875 
Q 28.328125 69.828125 33.890625 69.828125 
Q 40.28125 69.828125 44.8125 68.828125 
Q 49.359375 67.828125 52.484375 65.8125 
Q 55.609375 63.8125 57.484375 60.859375 
Q 59.375 57.90625 60.5 54 
L 51.3125 52.390625 
Q 50.640625 54.890625 49.34375 56.84375 
Q 48.046875 58.796875 45.9375 60.109375 
Q 43.84375 61.421875 40.84375 62.109375 
Q 37.84375 62.796875 33.796875 62.796875 
Q 29 62.796875 25.75 61.9375 
Q 22.515625 61.078125 20.53125 59.609375 
Q 18.5625 58.15625 17.703125 56.171875 
Q 16.84375 54.203125 16.84375 51.90625 
Q 16.84375 48.828125 18.375 46.84375 
Q 19.921875 44.875 22.5625 43.546875 
Q 25.203125 42.234375 28.65625 41.359375 
Q 32.125 40.484375 36.03125 39.59375 
Q 39.203125 38.875 42.359375 38.109375 
Q 45.515625 37.359375 48.390625 36.296875 
Q 51.265625 35.25 53.78125 33.828125 
Q 56.296875 32.421875 58.15625 30.375 
Q 60.015625 28.328125 61.0625 25.53125 
Q 62.109375 22.75 62.109375 19 
z
" id="LiberationSans-53"/>
      <path d="M 27.046875 0.390625 
Q 25.046875 -0.140625 22.96875 -0.453125 
Q 20.90625 -0.78125 18.171875 -0.78125 
Q 7.625 -0.78125 7.625 11.1875 
L 7.625 46.4375 
L 1.515625 46.4375 
L 1.515625 52.828125 
L 7.953125 52.828125 
L 10.546875 64.65625 
L 16.40625 64.65625 
L 16.40625 52.828125 
L 26.171875 52.828125 
L 26.171875 46.4375 
L 16.40625 46.4375 
L 16.40625 13.09375 
Q 16.40625 9.28125 17.640625 7.734375 
Q 18.890625 6.203125 21.96875 6.203125 
Q 23.25 6.203125 24.4375 6.390625 
Q 25.640625 6.59375 27.046875 6.890625 
z
" id="LiberationSans-74"/>
      <path d="M 13.484375 24.5625 
Q 13.484375 20.40625 14.328125 16.90625 
Q 15.1875 13.421875 16.96875 10.90625 
Q 18.75 8.40625 21.53125 7 
Q 24.3125 5.609375 28.21875 5.609375 
Q 33.9375 5.609375 37.375 7.90625 
Q 40.828125 10.203125 42.046875 13.71875 
L 49.75 11.53125 
Q 48.921875 9.328125 47.4375 7.109375 
Q 45.953125 4.890625 43.453125 3.09375 
Q 40.96875 1.3125 37.234375 0.15625 
Q 33.5 -0.984375 28.21875 -0.984375 
Q 16.5 -0.984375 10.375 6 
Q 4.25 12.984375 4.25 26.765625 
Q 4.25 34.1875 6.09375 39.328125 
Q 7.953125 44.484375 11.171875 47.703125 
Q 14.40625 50.921875 18.703125 52.359375 
Q 23 53.8125 27.875 53.8125 
Q 34.515625 53.8125 38.984375 51.65625 
Q 43.453125 49.515625 46.15625 45.71875 
Q 48.875 41.9375 50.015625 36.8125 
Q 51.171875 31.6875 51.171875 25.734375 
L 51.171875 24.5625 
z
M 42.09375 31.296875 
Q 41.359375 39.65625 37.84375 43.484375 
Q 34.328125 47.3125 27.734375 47.3125 
Q 25.53125 47.3125 23.109375 46.609375 
Q 20.703125 45.90625 18.65625 44.09375 
Q 16.609375 42.28125 15.1875 39.171875 
Q 13.765625 36.078125 13.578125 31.296875 
z
" id="LiberationSans-65"/>
      <path d="M 51.421875 26.65625 
Q 51.421875 20.65625 50.4375 15.578125 
Q 49.46875 10.5 47.1875 6.828125 
Q 44.921875 3.171875 41.1875 1.09375 
Q 37.453125 -0.984375 31.984375 -0.984375 
Q 26.3125 -0.984375 22.0625 1.171875 
Q 17.828125 3.328125 15.578125 8.203125 
L 15.328125 8.203125 
Q 15.375 8.109375 15.40625 7.328125 
Q 15.4375 6.546875 15.453125 5.375 
Q 15.484375 4.203125 15.5 2.75 
Q 15.53125 1.3125 15.53125 -0.09375 
L 15.53125 -20.75 
L 6.734375 -20.75 
L 6.734375 42.046875 
Q 6.734375 43.953125 6.703125 45.703125 
Q 6.6875 47.46875 6.640625 48.90625 
Q 6.59375 50.34375 6.546875 51.359375 
Q 6.5 52.390625 6.453125 52.828125 
L 14.9375 52.828125 
Q 14.984375 52.6875 15.0625 51.796875 
Q 15.140625 50.921875 15.203125 49.671875 
Q 15.28125 48.4375 15.359375 47.015625 
Q 15.4375 45.609375 15.4375 44.34375 
L 15.625 44.34375 
Q 16.84375 46.875 18.40625 48.65625 
Q 19.96875 50.4375 21.96875 51.578125 
Q 23.96875 52.734375 26.4375 53.25 
Q 28.90625 53.765625 31.984375 53.765625 
Q 37.453125 53.765625 41.1875 51.8125 
Q 44.921875 49.859375 47.1875 46.3125 
Q 49.46875 42.78125 50.4375 37.765625 
Q 51.421875 32.765625 51.421875 26.65625 
z
M 42.1875 26.46875 
Q 42.1875 31.34375 41.59375 35.15625 
Q 41.015625 38.96875 39.578125 41.59375 
Q 38.140625 44.234375 35.734375 45.59375 
Q 33.34375 46.96875 29.734375 46.96875 
Q 26.8125 46.96875 24.21875 46.140625 
Q 21.625 45.3125 19.703125 42.96875 
Q 17.78125 40.625 16.65625 36.5 
Q 15.53125 32.375 15.53125 25.78125 
Q 15.53125 20.171875 16.453125 16.28125 
Q 17.390625 12.40625 19.171875 10.015625 
Q 20.953125 7.625 23.578125 6.5625 
Q 26.21875 5.515625 29.640625 5.515625 
Q 33.296875 5.515625 35.71875 6.921875 
Q 38.140625 8.34375 39.578125 11.03125 
Q 41.015625 13.71875 41.59375 17.59375 
Q 42.1875 21.484375 42.1875 26.46875 
z
" id="LiberationSans-70"/>
     </defs>
     <g style="fill:#262626;" transform="translate(238.686875 349.169687)scale(0.11 -0.11)">
      <use xlink:href="#LiberationSans-54"/>
      <use x="61.037109" xlink:href="#LiberationSans-72"/>
      <use x="94.337891" xlink:href="#LiberationSans-61"/>
      <use x="149.953125" xlink:href="#LiberationSans-69"/>
      <use x="172.169922" xlink:href="#LiberationSans-6e"/>
      <use x="227.785156" xlink:href="#LiberationSans-69"/>
      <use x="250.001953" xlink:href="#LiberationSans-6e"/>
      <use x="305.617188" xlink:href="#LiberationSans-67"/>
      <use x="361.232422" xlink:href="#LiberationSans-20"/>
      <use x="389.015625" xlink:href="#LiberationSans-53"/>
      <use x="455.714844" xlink:href="#LiberationSans-74"/>
      <use x="483.498047" xlink:href="#LiberationSans-65"/>
      <use x="539.113281" xlink:href="#LiberationSans-70"/>
     </g>
    </g>
   </g>
   <g id="matplotlib.axis_2">
    <g id="ytick_1">
     <g id="line2d_19">
      <path clip-path="url(#p5a8048e37c)" d="M 48.194688 273.614266 
L 494.594687 273.614266 
" style="fill:none;stroke:#ffffff;stroke-linecap:round;"/>
     </g>
     <g id="line2d_20"/>
     <g id="text_11">
      <!-- −0.5 -->
      <defs>
       <path d="M 4.9375 29.6875 
L 4.9375 36.8125 
L 53.515625 36.8125 
L 53.515625 29.6875 
z
" id="LiberationSans-2212"/>
       <path d="M 9.125 0 
L 9.125 10.6875 
L 18.65625 10.6875 
L 18.65625 0 
z
" id="LiberationSans-2e"/>
      </defs>
      <g style="fill:#262626;" transform="translate(21.454063 277.237703)scale(0.1 -0.1)">
       <use xlink:href="#LiberationSans-2212"/>
       <use x="58.398438" xlink:href="#LiberationSans-30"/>
       <use x="114.013672" xlink:href="#LiberationSans-2e"/>
       <use x="141.796875" xlink:href="#LiberationSans-35"/>
      </g>
     </g>
    </g>
    <g id="ytick_2">
     <g id="line2d_21">
      <path clip-path="url(#p5a8048e37c)" d="M 48.194688 215.06112 
L 494.594687 215.06112 
" style="fill:none;stroke:#ffffff;stroke-linecap:round;"/>
     </g>
     <g id="line2d_22"/>
     <g id="text_12">
      <!-- 0.0 -->
      <g style="fill:#262626;" transform="translate(27.294688 218.684558)scale(0.1 -0.1)">
       <use xlink:href="#LiberationSans-30"/>
       <use x="55.615234" xlink:href="#LiberationSans-2e"/>
       <use x="83.398438" xlink:href="#LiberationSans-30"/>
      </g>
     </g>
    </g>
    <g id="ytick_3">
     <g id="line2d_23">
      <path clip-path="url(#p5a8048e37c)" d="M 48.194688 156.507975 
L 494.594687 156.507975 
" style="fill:none;stroke:#ffffff;stroke-linecap:round;"/>
     </g>
     <g id="line2d_24"/>
     <g id="text_13">
      <!-- 0.5 -->
      <g style="fill:#262626;" transform="translate(27.294688 160.131412)scale(0.1 -0.1)">
       <use xlink:href="#LiberationSans-30"/>
       <use x="55.615234" xlink:href="#LiberationSans-2e"/>
       <use x="83.398438" xlink:href="#LiberationSans-35"/>
      </g>
     </g>
    </g>
    <g id="ytick_4">
     <g id="line2d_25">
      <path clip-path="url(#p5a8048e37c)" d="M 48.194688 97.954829 
L 494.594687 97.954829 
" style="fill:none;stroke:#ffffff;stroke-linecap:round;"/>
     </g>
     <g id="line2d_26"/>
     <g id="text_14">
      <!-- 1.0 -->
      <g style="fill:#262626;" transform="translate(27.294688 101.578266)scale(0.1 -0.1)">
       <use xlink:href="#LiberationSans-31"/>
       <use x="55.615234" xlink:href="#LiberationSans-2e"/>
       <use x="83.398438" xlink:href="#LiberationSans-30"/>
      </g>
     </g>
    </g>
    <g id="ytick_5">
     <g id="line2d_27">
      <path clip-path="url(#p5a8048e37c)" d="M 48.194688 39.401683 
L 494.594687 39.401683 
" style="fill:none;stroke:#ffffff;stroke-linecap:round;"/>
     </g>
     <g id="line2d_28"/>
     <g id="text_15">
      <!-- 1.5 -->
      <g style="fill:#262626;" transform="translate(27.294688 43.025121)scale(0.1 -0.1)">
       <use xlink:href="#LiberationSans-31"/>
       <use x="55.615234" xlink:href="#LiberationSans-2e"/>
       <use x="83.398438" xlink:href="#LiberationSans-35"/>
      </g>
     </g>
    </g>
    <g id="text_16">
     <!-- Weight posterior mean -->
     <defs>
      <path d="M 73.78125 0 
L 62.640625 0 
L 50.734375 43.703125 
Q 50.203125 45.5625 49.578125 48.09375 
Q 48.96875 50.640625 48.484375 52.9375 
Q 47.90625 55.609375 47.3125 58.40625 
Q 46.6875 55.5625 46.09375 52.875 
Q 45.5625 50.53125 44.96875 48.046875 
Q 44.390625 45.5625 43.84375 43.703125 
L 31.84375 0 
L 20.703125 0 
L 0.4375 68.796875 
L 10.15625 68.796875 
L 22.515625 25.09375 
Q 23.34375 22.015625 24.09375 18.984375 
Q 24.859375 15.96875 25.390625 13.578125 
Q 26.03125 10.75 26.5625 8.203125 
Q 27.296875 11.578125 28.078125 14.84375 
Q 28.421875 16.21875 28.765625 17.71875 
Q 29.109375 19.234375 29.46875 20.703125 
Q 29.828125 22.171875 30.1875 23.515625 
Q 30.5625 24.859375 30.859375 25.984375 
L 42.828125 68.796875 
L 51.765625 68.796875 
L 63.71875 25.984375 
Q 64.015625 24.859375 64.375 23.515625 
Q 64.75 22.171875 65.109375 20.71875 
Q 65.484375 19.28125 65.8125 17.765625 
Q 66.15625 16.265625 66.5 14.890625 
Q 67.28125 11.625 68.015625 8.203125 
Q 68.0625 8.203125 68.453125 9.890625 
Q 68.84375 11.578125 69.421875 14.109375 
Q 70.015625 16.65625 70.71875 19.609375 
Q 71.4375 22.5625 72.171875 25.09375 
L 84.328125 68.796875 
L 94.046875 68.796875 
z
" id="LiberationSans-57"/>
      <path d="M 15.484375 43.796875 
Q 16.9375 46.484375 18.640625 48.359375 
Q 20.359375 50.25 22.40625 51.46875 
Q 24.46875 52.6875 26.90625 53.25 
Q 29.34375 53.8125 32.375 53.8125 
Q 37.453125 53.8125 40.703125 52.4375 
Q 43.953125 51.078125 45.828125 48.609375 
Q 47.703125 46.140625 48.40625 42.71875 
Q 49.125 39.3125 49.125 35.203125 
L 49.125 0 
L 40.28125 0 
L 40.28125 33.5 
Q 40.28125 36.859375 39.859375 39.390625 
Q 39.453125 41.9375 38.28125 43.625 
Q 37.109375 45.3125 34.953125 46.15625 
Q 32.8125 47.015625 29.390625 47.015625 
Q 26.265625 47.015625 23.75 45.890625 
Q 21.234375 44.78125 19.453125 42.71875 
Q 17.671875 40.671875 16.6875 37.734375 
Q 15.71875 34.8125 15.71875 31.15625 
L 15.71875 0 
L 6.9375 0 
L 6.9375 72.46875 
L 15.71875 72.46875 
L 15.71875 53.609375 
Q 15.71875 52 15.671875 50.390625 
Q 15.625 48.78125 15.546875 47.40625 
Q 15.484375 46.046875 15.421875 45.09375 
Q 15.375 44.140625 15.328125 43.796875 
z
" id="LiberationSans-68"/>
      <path d="M 51.421875 26.46875 
Q 51.421875 12.59375 45.3125 5.796875 
Q 39.203125 -0.984375 27.59375 -0.984375 
Q 22.078125 -0.984375 17.71875 0.671875 
Q 13.375 2.34375 10.375 5.765625 
Q 7.375 9.1875 5.78125 14.328125 
Q 4.203125 19.484375 4.203125 26.46875 
Q 4.203125 53.8125 27.875 53.8125 
Q 34.03125 53.8125 38.5 52.09375 
Q 42.96875 50.390625 45.828125 46.96875 
Q 48.6875 43.5625 50.046875 38.421875 
Q 51.421875 33.296875 51.421875 26.46875 
z
M 42.1875 26.46875 
Q 42.1875 32.625 41.234375 36.625 
Q 40.28125 40.625 38.453125 43.015625 
Q 36.625 45.40625 33.984375 46.359375 
Q 31.34375 47.3125 28.03125 47.3125 
Q 24.65625 47.3125 21.9375 46.3125 
Q 19.234375 45.3125 17.328125 42.890625 
Q 15.4375 40.484375 14.421875 36.46875 
Q 13.421875 32.46875 13.421875 26.46875 
Q 13.421875 20.3125 14.5 16.28125 
Q 15.578125 12.25 17.453125 9.859375 
Q 19.34375 7.46875 21.90625 6.484375 
Q 24.46875 5.515625 27.484375 5.515625 
Q 30.859375 5.515625 33.59375 6.46875 
Q 36.328125 7.421875 38.234375 9.8125 
Q 40.140625 12.203125 41.15625 16.25 
Q 42.1875 20.3125 42.1875 26.46875 
z
" id="LiberationSans-6f"/>
      <path d="M 46.390625 14.59375 
Q 46.390625 10.890625 44.9375 7.984375 
Q 43.5 5.078125 40.765625 3.09375 
Q 38.03125 1.125 34.046875 0.0625 
Q 30.078125 -0.984375 24.953125 -0.984375 
Q 20.359375 -0.984375 16.671875 -0.265625 
Q 12.984375 0.4375 10.203125 2 
Q 7.421875 3.5625 5.53125 6.125 
Q 3.65625 8.6875 2.78125 12.40625 
L 10.546875 13.921875 
Q 11.671875 9.671875 15.1875 7.6875 
Q 18.703125 5.71875 24.953125 5.71875 
Q 27.78125 5.71875 30.140625 6.109375 
Q 32.515625 6.5 34.21875 7.453125 
Q 35.9375 8.40625 36.890625 9.984375 
Q 37.84375 11.578125 37.84375 13.921875 
Q 37.84375 16.3125 36.71875 17.84375 
Q 35.59375 19.390625 33.59375 20.40625 
Q 31.59375 21.4375 28.734375 22.1875 
Q 25.875 22.953125 22.46875 23.875 
Q 19.28125 24.703125 16.15625 25.734375 
Q 13.03125 26.765625 10.515625 28.4375 
Q 8.015625 30.125 6.453125 32.609375 
Q 4.890625 35.109375 4.890625 38.875 
Q 4.890625 46.09375 10.03125 49.875 
Q 15.1875 53.65625 25.046875 53.65625 
Q 33.796875 53.65625 38.9375 50.578125 
Q 44.09375 47.515625 45.453125 40.71875 
L 37.546875 39.75 
Q 37.109375 41.796875 35.9375 43.1875 
Q 34.765625 44.578125 33.109375 45.4375 
Q 31.453125 46.296875 29.375 46.65625 
Q 27.296875 47.015625 25.046875 47.015625 
Q 19.09375 47.015625 16.25 45.203125 
Q 13.421875 43.40625 13.421875 39.75 
Q 13.421875 37.59375 14.46875 36.203125 
Q 15.53125 34.8125 17.40625 33.859375 
Q 19.28125 32.90625 21.921875 32.203125 
Q 24.5625 31.5 27.734375 30.71875 
Q 29.828125 30.171875 32.03125 29.5625 
Q 34.234375 28.953125 36.296875 28.09375 
Q 38.375 27.25 40.203125 26.09375 
Q 42.046875 24.953125 43.40625 23.34375 
Q 44.78125 21.734375 45.578125 19.578125 
Q 46.390625 17.4375 46.390625 14.59375 
z
" id="LiberationSans-73"/>
      <path d="M 37.5 0 
L 37.5 33.5 
Q 37.5 37.359375 37.015625 39.9375 
Q 36.53125 42.53125 35.375 44.109375 
Q 34.234375 45.703125 32.375 46.359375 
Q 30.515625 47.015625 27.828125 47.015625 
Q 25.046875 47.015625 22.796875 45.921875 
Q 20.5625 44.828125 18.96875 42.75 
Q 17.390625 40.671875 16.53125 37.625 
Q 15.671875 34.578125 15.671875 30.609375 
L 15.671875 0 
L 6.9375 0 
L 6.9375 41.546875 
Q 6.9375 43.21875 6.90625 45.046875 
Q 6.890625 46.875 6.828125 48.5 
Q 6.78125 50.140625 6.734375 51.3125 
Q 6.6875 52.484375 6.640625 52.828125 
L 14.9375 52.828125 
Q 14.984375 52.59375 15.03125 51.515625 
Q 15.09375 50.4375 15.15625 49.046875 
Q 15.234375 47.65625 15.28125 46.21875 
Q 15.328125 44.78125 15.328125 43.796875 
L 15.484375 43.796875 
Q 16.65625 46.09375 18.015625 47.953125 
Q 19.390625 49.8125 21.21875 51.09375 
Q 23.046875 52.390625 25.40625 53.09375 
Q 27.78125 53.8125 30.90625 53.8125 
Q 36.921875 53.8125 40.40625 51.421875 
Q 43.890625 49.03125 45.265625 43.796875 
L 45.40625 43.796875 
Q 46.578125 46.09375 48.046875 47.953125 
Q 49.515625 49.8125 51.46875 51.09375 
Q 53.421875 52.390625 55.859375 53.09375 
Q 58.296875 53.8125 61.421875 53.8125 
Q 65.4375 53.8125 68.328125 52.734375 
Q 71.234375 51.65625 73.09375 49.40625 
Q 74.953125 47.171875 75.828125 43.625 
Q 76.703125 40.09375 76.703125 35.203125 
L 76.703125 0 
L 68.015625 0 
L 68.015625 33.5 
Q 68.015625 37.359375 67.53125 39.9375 
Q 67.046875 42.53125 65.890625 44.109375 
Q 64.75 45.703125 62.890625 46.359375 
Q 61.03125 47.015625 58.34375 47.015625 
Q 55.5625 47.015625 53.3125 45.96875 
Q 51.078125 44.921875 49.484375 42.875 
Q 47.90625 40.828125 47.046875 37.75 
Q 46.1875 34.671875 46.1875 30.609375 
L 46.1875 0 
z
" id="LiberationSans-6d"/>
     </defs>
     <g style="fill:#262626;" transform="translate(15.171563 226.711953)rotate(-90)scale(0.11 -0.11)">
      <use xlink:href="#LiberationSans-57"/>
      <use x="94.369141" xlink:href="#LiberationSans-65"/>
      <use x="149.984375" xlink:href="#LiberationSans-69"/>
      <use x="172.201172" xlink:href="#LiberationSans-67"/>
      <use x="227.816406" xlink:href="#LiberationSans-68"/>
      <use x="283.431641" xlink:href="#LiberationSans-74"/>
      <use x="311.214844" xlink:href="#LiberationSans-20"/>
      <use x="338.998047" xlink:href="#LiberationSans-70"/>
      <use x="394.613281" xlink:href="#LiberationSans-6f"/>
      <use x="450.228516" xlink:href="#LiberationSans-73"/>
      <use x="500.228516" xlink:href="#LiberationSans-74"/>
      <use x="528.011719" xlink:href="#LiberationSans-65"/>
      <use x="583.626953" xlink:href="#LiberationSans-72"/>
      <use x="616.927734" xlink:href="#LiberationSans-69"/>
      <use x="639.144531" xlink:href="#LiberationSans-6f"/>
      <use x="694.759766" xlink:href="#LiberationSans-72"/>
      <use x="728.060547" xlink:href="#LiberationSans-20"/>
      <use x="755.84375" xlink:href="#LiberationSans-6d"/>
      <use x="839.144531" xlink:href="#LiberationSans-65"/>
      <use x="894.759766" xlink:href="#LiberationSans-61"/>
      <use x="950.375" xlink:href="#LiberationSans-6e"/>
     </g>
    </g>
   </g>
   <g id="LineCollection_1">
    <path clip-path="url(#p5a8048e37c)" d="M 68.485597 170.054926 
L 474.303778 170.054926 
" style="fill:none;stroke:#4c72b0;stroke-dasharray:6.475,2.8;stroke-dashoffset:0;stroke-width:1.75;"/>
   </g>
   <g id="LineCollection_2">
    <path clip-path="url(#p5a8048e37c)" d="M 68.485597 39.805258 
L 474.303778 39.805258 
" style="fill:none;stroke:#55a868;stroke-dasharray:6.475,2.8;stroke-dashoffset:0;stroke-width:1.75;"/>
   </g>
   <g id="LineCollection_3">
    <path clip-path="url(#p5a8048e37c)" d="M 68.485597 256.678622 
L 474.303778 256.678622 
" style="fill:none;stroke:#c44e52;stroke-dasharray:6.475,2.8;stroke-dashoffset:0;stroke-width:1.75;"/>
   </g>
   <g id="LineCollection_4">
    <path clip-path="url(#p5a8048e37c)" d="M 68.485597 307.28625 
L 474.303778 307.28625 
" style="fill:none;stroke:#8172b2;stroke-dasharray:6.475,2.8;stroke-dashoffset:0;stroke-width:1.75;"/>
   </g>
   <g id="line2d_29">
    <path clip-path="url(#p5a8048e37c)" d="M 68.485597 202.090885 
L 69.500142 199.498931 
L 73.964142 188.362359 
L 76.196142 183.377966 
L 80.863051 174.95114 
L 83.095051 171.599903 
L 84.515415 169.709283 
L 87.76196 165.754921 
L 90.196869 163.141489 
L 91.617233 161.803027 
L 93.240506 160.378435 
L 94.863778 159.120555 
L 98.516142 156.870544 
L 99.327778 156.427725 
L 102.574324 154.850904 
L 107.84996 153.085363 
L 113.328506 151.98771 
L 118.198324 151.882248 
L 124.894324 152.404274 
L 135.039778 153.83732 
L 136.054324 153.972649 
L 138.692142 154.311281 
L 144.576506 154.958383 
L 149.446324 155.93364 
L 154.924869 156.590011 
L 157.156869 157.069564 
L 158.577233 157.322913 
L 161.215051 157.823709 
L 163.244142 158.220729 
L 166.693597 158.844388 
L 167.505233 159.018876 
L 169.331415 159.468236 
L 173.186688 160.200405 
L 173.592506 160.146903 
L 180.085597 160.744519 
L 181.100142 160.987608 
L 181.911778 161.029439 
L 184.346688 161.266584 
L 187.390324 161.99372 
L 188.810688 162.058045 
L 190.231051 162.266948 
L 191.042687 162.222052 
L 191.448506 162.230983 
L 192.260142 162.239537 
L 196.318324 162.40136 
L 196.927051 162.463825 
L 201.999778 162.713453 
L 202.405597 162.610417 
L 207.072506 163.067319 
L 208.492869 163.037978 
L 210.116142 162.918311 
L 210.52196 162.932998 
L 210.927778 162.987498 
L 211.333597 162.928823 
L 212.145233 162.948068 
L 212.551051 162.907883 
L 213.159778 162.923393 
L 213.768506 162.911488 
L 215.188869 163.046392 
L 215.797597 163.17039 
L 218.232506 163.974181 
L 218.638324 163.962954 
L 219.855778 164.053143 
L 222.696506 164.045224 
L 223.102324 164.167013 
L 224.116869 164.414767 
L 225.740142 164.939903 
L 230.60996 165.77515 
L 231.624506 165.695503 
L 232.030324 165.557957 
L 233.247778 165.440263 
L 233.856506 165.433775 
L 235.07396 165.350251 
L 236.494324 165.353671 
L 238.929233 165.074112 
L 241.364142 164.931994 
L 241.76996 165.012307 
L 242.378688 165.08133 
L 244.00196 165.439216 
L 245.016506 165.528146 
L 246.436869 165.271146 
L 248.263051 164.76315 
L 248.871778 164.666476 
L 250.089233 164.701983 
L 252.321233 165.272549 
L 253.538688 165.145222 
L 254.756142 164.888093 
L 256.785233 165.077309 
L 258.814324 165.491092 
L 260.031778 165.544824 
L 261.046324 165.573935 
L 263.887051 165.67457 
L 264.495778 165.55015 
L 264.901597 165.333283 
L 267.133597 164.853046 
L 268.148142 164.768971 
L 268.756869 164.800577 
L 269.365597 164.848171 
L 269.771415 164.783221 
L 270.177233 164.812837 
L 270.78596 164.697914 
L 273.626688 164.835167 
L 274.844142 164.993967 
L 276.873233 165.088442 
L 279.105233 164.609435 
L 280.322688 164.638538 
L 281.540142 164.795614 
L 282.351778 165.064571 
L 282.960506 165.197255 
L 283.569233 165.361332 
L 284.786687 165.494931 
L 286.004142 165.293521 
L 286.612869 165.170643 
L 287.627415 165.133356 
L 288.033233 164.998686 
L 289.047778 164.886202 
L 289.656506 164.961981 
L 290.265233 165.119354 
L 291.685597 165.444817 
L 293.308869 165.789508 
L 293.714687 165.931263 
L 294.932142 165.654502 
L 295.33796 165.395426 
L 296.961233 164.722086 
L 297.367051 164.58996 
L 303.048506 163.97542 
L 303.454324 164.056008 
L 306.092142 164.153164 
L 307.106688 164.077839 
L 309.135778 164.576719 
L 309.541597 164.772713 
L 310.353233 164.910998 
L 313.599778 165.201157 
L 313.802687 165.36507 
L 314.411415 165.519103 
L 314.817233 165.59327 
L 316.034688 165.612755 
L 316.440506 165.614971 
L 317.049233 165.373847 
L 318.063778 165.138399 
L 320.092869 165.314206 
L 320.701597 165.390509 
L 321.919051 165.807317 
L 322.527778 165.931374 
L 323.136506 165.902766 
L 325.774324 166.342864 
L 326.180142 166.403276 
L 327.194687 166.229539 
L 328.412142 165.792645 
L 329.629597 165.35134 
L 331.04996 164.907927 
L 332.267415 164.870388 
L 333.28196 164.750743 
L 333.890688 164.762846 
L 334.093597 164.869572 
L 335.108142 164.662459 
L 335.51396 164.482428 
L 335.919778 164.418934 
L 336.325597 164.287775 
L 338.760506 164.30629 
L 339.369233 164.453538 
L 341.601233 164.586236 
L 342.20996 164.316735 
L 343.021597 164.316927 
L 345.862324 164.481116 
L 346.471051 164.387461 
L 346.876869 164.477595 
L 348.094324 164.482027 
L 349.920506 164.000639 
L 350.326324 163.893369 
L 352.761233 163.358981 
L 353.775778 163.376348 
L 355.399051 163.807029 
L 357.631051 164.384138 
L 358.036869 164.663425 
L 358.645597 165.018959 
L 359.660142 165.297513 
L 360.268869 165.295981 
L 362.29796 164.462856 
L 364.935778 164.059642 
L 365.747415 164.000705 
L 366.356142 163.99688 
L 368.588142 164.017227 
L 369.602688 163.903626 
L 371.22596 163.976114 
L 371.631778 164.090057 
L 375.68996 164.73918 
L 376.095778 164.697739 
L 376.907415 164.556644 
L 377.313233 164.535798 
L 377.719051 164.666169 
L 378.124869 164.715731 
L 378.733597 164.671735 
L 379.951051 164.888624 
L 380.559778 164.797684 
L 381.168506 164.574918 
L 382.588869 164.521946 
L 384.212142 164.849797 
L 385.429597 165.121894 
L 385.835415 165.07242 
L 386.241233 165.121162 
L 386.647051 165.305697 
L 388.676142 165.338577 
L 389.284869 165.124536 
L 391.516869 164.867977 
L 391.922687 164.861412 
L 392.328506 164.80488 
L 392.734324 164.903676 
L 392.937233 164.808629 
L 393.748869 164.868228 
L 396.386687 165.096201 
L 396.792506 165.292156 
L 397.198324 165.269338 
L 397.604142 165.348984 
L 398.00996 165.260784 
L 401.459415 165.34429 
L 402.676869 164.703707 
L 403.691415 164.253904 
L 404.300142 164.063596 
L 405.111778 163.858968 
L 406.126324 163.838129 
L 406.532142 163.83518 
L 407.546688 164.301596 
L 409.16996 164.661593 
L 409.981597 164.940447 
L 410.996142 165.062885 
L 413.025233 164.899572 
L 413.431051 164.98944 
L 414.242687 164.928414 
L 414.851415 164.743752 
L 415.257233 164.807944 
L 416.474688 164.975152 
L 419.112506 165.058365 
L 419.518324 164.981385 
L 420.32996 164.987312 
L 420.532869 164.849399 
L 421.141597 164.99195 
L 421.547415 165.151043 
L 422.156142 165.313927 
L 423.373597 165.413184 
L 424.185233 165.244416 
L 425.402688 165.004228 
L 426.417233 164.599868 
L 427.02596 164.414502 
L 427.837597 164.276558 
L 430.678324 163.995037 
L 431.692869 164.136241 
L 432.098687 164.09419 
L 432.707415 164.14096 
L 435.345233 164.684425 
L 436.359778 165.084516 
L 436.968506 165.22966 
L 438.794688 165.604459 
L 439.403415 165.69239 
L 440.012142 165.499967 
L 443.055778 165.495269 
L 443.461597 165.493671 
L 444.273233 165.266099 
L 446.302324 164.664476 
L 447.519778 164.410642 
L 447.925597 164.306799 
L 449.751778 164.021178 
L 451.172142 164.311273 
L 451.780869 164.533243 
L 453.607051 164.570088 
L 454.012869 164.701781 
L 455.433233 164.48818 
L 458.882687 164.311301 
L 459.694324 163.933529 
L 460.100142 163.837152 
L 461.114688 163.928085 
L 461.723415 163.830472 
L 462.535051 163.852599 
L 464.564142 164.368241 
L 465.578688 164.539442 
L 465.781597 164.592173 
L 466.187415 164.845668 
L 467.20196 165.194512 
L 467.810687 165.355608 
L 468.216506 165.344985 
L 469.231051 165.563681 
L 470.245597 165.919609 
L 471.260142 166.155602 
L 472.883415 165.846912 
L 474.100869 165.964767 
L 474.100869 165.964767 
" style="fill:none;stroke:#4c72b0;stroke-linecap:round;stroke-width:1.75;"/>
   </g>
   <g id="line2d_30">
    <path clip-path="url(#p5a8048e37c)" d="M 68.485597 213.872799 
L 71.326324 205.999904 
L 76.399051 192.669263 
L 78.428142 187.701998 
L 81.268869 181.317286 
L 85.732869 172.231548 
L 90.805597 162.426781 
L 92.834688 158.727015 
L 98.110324 149.484647 
L 109.270324 132.208666 
L 115.560506 123.375166 
L 123.676869 112.548066 
L 135.242687 98.152533 
L 139.09796 93.861599 
L 146.199778 86.631717 
L 153.301597 79.767494 
L 162.432506 71.6707 
L 174.80996 61.619051 
L 177.447778 59.684871 
L 181.50596 56.952785 
L 187.593233 53.073061 
L 190.636869 51.399685 
L 193.071778 50.28875 
L 194.086324 49.793318 
L 196.521233 48.676407 
L 201.188142 46.889842 
L 203.217233 46.085681 
L 206.260869 44.927058 
L 214.783051 42.230584 
L 219.247051 41.044961 
L 223.102324 40.293263 
L 224.725597 40.077509 
L 227.566324 39.598605 
L 230.60996 39.087719 
L 233.450687 38.608551 
L 236.088506 38.308184 
L 237.30596 38.121341 
L 240.146687 37.958245 
L 241.161233 37.87736 
L 243.190324 37.943363 
L 245.219415 37.940027 
L 261.452142 37.086419 
L 264.698688 36.905426 
L 266.930687 36.723441 
L 268.351051 36.654855 
L 272.206324 36.618558 
L 273.01796 36.620415 
L 278.293597 36.436309 
L 279.308142 36.487277 
L 283.366324 36.579791 
L 286.207051 36.680863 
L 289.250688 36.66418 
L 290.062324 36.572001 
L 291.279778 36.581159 
L 293.10596 36.689211 
L 303.657233 36.795462 
L 310.556142 36.400166 
L 312.179415 36.232602 
L 315.223051 36.03762 
L 321.513233 36.184956 
L 326.788869 36.169181 
L 328.209233 36.041222 
L 330.238324 36.134267 
L 338.760506 36.387029 
L 340.383778 36.57859 
L 341.398324 36.615808 
L 350.935051 36.611439 
L 352.558324 36.519944 
L 354.587415 36.498571 
L 358.036869 36.372525 
L 360.06596 36.30116 
L 362.703778 36.065234 
L 363.718324 36.002636 
L 365.341597 36.134504 
L 366.356142 36.216241 
L 369.805597 35.959737 
L 373.255051 35.904538 
L 374.269597 35.80496 
L 380.15396 35.825789 
L 381.574324 35.886585 
L 383.197597 35.74817 
L 384.212142 35.810684 
L 384.820869 35.864891 
L 388.067415 36.13167 
L 389.284869 36.197422 
L 393.54596 36.311993 
L 395.372142 36.442884 
L 398.00996 36.366647 
L 400.444869 36.300672 
L 401.256506 36.243952 
L 404.300142 35.971114 
L 406.532142 36.080813 
L 407.546688 36.237991 
L 409.778687 36.31963 
L 411.604869 36.075355 
L 417.895051 35.837264 
L 423.170687 35.742377 
L 424.388142 35.68581 
L 425.808506 35.80228 
L 427.634687 35.609658 
L 428.446324 35.51512 
L 429.663778 35.491206 
L 432.504506 35.526539 
L 433.316142 35.593673 
L 433.72196 35.596326 
L 434.533597 35.749999 
L 435.95396 35.938001 
L 437.577233 36.135621 
L 439.403415 36.272695 
L 440.41796 36.358369 
L 444.88196 36.675404 
L 449.143051 36.540312 
L 449.954687 36.522359 
L 450.969233 36.41742 
L 452.389597 36.291542 
L 455.636142 36.22283 
L 456.244869 36.247567 
L 459.491415 36.395377 
L 460.100142 36.445718 
L 460.708869 36.501935 
L 463.346687 36.536626 
L 463.955415 36.573872 
L 465.781597 36.477645 
L 474.100869 36.39024 
L 474.100869 36.39024 
" style="fill:none;stroke:#55a868;stroke-linecap:round;stroke-width:1.75;"/>
   </g>
   <g id="line2d_31">
    <path clip-path="url(#p5a8048e37c)" d="M 68.485597 200.79816 
L 68.891415 201.778324 
L 69.500142 202.893228 
L 71.935051 208.322317 
L 74.167051 212.938053 
L 77.007778 218.148586 
L 82.283415 226.190954 
L 83.500869 227.804228 
L 90.196869 235.208439 
L 92.023051 236.778958 
L 94.052142 238.430051 
L 99.733597 242.353272 
L 100.951051 243.065685 
L 102.371415 243.813725 
L 104.806324 245.051071 
L 106.835415 246.069492 
L 109.067415 247.055188 
L 110.893597 247.71381 
L 112.111051 248.240161 
L 115.154687 249.374357 
L 116.169233 249.618213 
L 123.47396 251.201138 
L 125.908869 251.427865 
L 126.517597 251.6083 
L 127.532142 251.937645 
L 129.155415 252.350167 
L 130.778687 252.586883 
L 135.242687 252.816248 
L 140.315415 253.132763 
L 143.156142 253.431123 
L 144.779415 253.640637 
L 148.634687 253.962691 
L 150.055051 254.093854 
L 152.48996 254.465641 
L 153.504506 254.647563 
L 156.142324 254.925035 
L 157.968506 254.930689 
L 161.215051 255.192885 
L 162.635415 255.631726 
L 163.244142 255.799216 
L 165.88196 256.163733 
L 166.490688 256.325567 
L 167.708142 256.524345 
L 169.940142 256.659385 
L 171.766324 256.66655 
L 173.186688 256.868547 
L 173.998324 257.058988 
L 174.404142 257.01049 
L 176.230324 257.034446 
L 177.447778 257.029267 
L 182.520506 257.35005 
L 183.332142 257.428789 
L 183.940869 257.321903 
L 187.187415 257.332481 
L 187.999051 257.418797 
L 189.013597 257.629334 
L 190.839778 257.914313 
L 192.260142 257.921624 
L 193.274687 258.428033 
L 194.086324 258.626686 
L 195.506687 258.992498 
L 196.115415 258.9515 
L 196.927051 258.959663 
L 199.159051 258.678555 
L 199.564869 258.680481 
L 200.376506 258.613169 
L 201.59396 258.579333 
L 201.999778 258.525862 
L 202.811415 258.598354 
L 203.420142 258.59204 
L 204.231778 258.585744 
L 205.246324 258.260225 
L 206.869597 257.512389 
L 208.28996 257.441095 
L 209.101597 257.593337 
L 210.319051 257.927425 
L 210.927778 258.099435 
L 212.145233 258.287848 
L 212.75396 258.539787 
L 213.768506 258.795129 
L 214.174324 258.806346 
L 218.638324 258.874304 
L 219.044142 258.977613 
L 220.464506 259.133143 
L 221.073233 259.172852 
L 221.68196 259.347553 
L 222.899415 259.50101 
L 225.131415 259.693392 
L 226.348869 259.314716 
L 227.160506 259.077484 
L 227.972142 258.67741 
L 228.175051 258.710984 
L 230.407051 257.839916 
L 232.84196 257.206802 
L 233.653597 257.067996 
L 234.059415 257.1848 
L 234.465233 257.239433 
L 235.682687 257.676219 
L 236.494324 257.910589 
L 237.914687 257.804188 
L 239.132142 257.529026 
L 240.146687 257.637078 
L 241.161233 257.652518 
L 241.76996 257.580232 
L 242.175778 257.648302 
L 244.00196 257.525843 
L 244.407778 257.340296 
L 245.422324 257.038704 
L 247.045597 257.500502 
L 247.451415 257.707406 
L 249.074688 258.111168 
L 249.886324 258.615734 
L 250.495051 258.761195 
L 250.69796 258.816436 
L 251.103778 258.710628 
L 251.509597 258.747944 
L 251.915415 258.738548 
L 253.132869 258.46204 
L 253.538688 258.489447 
L 254.147415 258.646286 
L 255.364869 258.7743 
L 257.191051 259.124505 
L 261.655051 258.725747 
L 263.887051 258.708513 
L 264.292869 258.722023 
L 265.713233 258.610712 
L 266.119051 258.663247 
L 266.930687 258.56293 
L 267.336506 258.53102 
L 267.742324 258.404869 
L 268.148142 258.39909 
L 269.974324 258.25321 
L 270.78596 258.385133 
L 272.612142 258.450662 
L 273.01796 258.392361 
L 274.438324 258.42887 
L 275.452869 258.650163 
L 275.858687 258.774293 
L 276.670324 258.919971 
L 278.090688 259.170207 
L 280.931415 258.910904 
L 281.743051 258.866923 
L 286.207051 259.198644 
L 287.221597 258.739229 
L 293.917597 257.368561 
L 294.932142 257.478829 
L 296.555415 257.802652 
L 297.164142 258.193959 
L 304.671778 260.384448 
L 305.077597 260.284646 
L 306.700869 260.148008 
L 307.106688 260.162355 
L 307.512506 260.010235 
L 308.324142 259.948894 
L 308.72996 259.954066 
L 309.744506 259.714472 
L 311.367778 259.195691 
L 312.179415 259.161506 
L 313.599778 259.355469 
L 314.208506 259.420216 
L 315.628869 259.666888 
L 317.65796 259.5981 
L 319.078324 259.241994 
L 320.092869 258.978684 
L 322.324869 258.738367 
L 323.745233 258.844426 
L 325.368506 258.733237 
L 325.977233 258.415751 
L 327.397597 258.080931 
L 328.412142 257.98968 
L 329.223778 258.04616 
L 329.426688 257.994022 
L 329.832506 258.059593 
L 331.455778 258.055998 
L 331.861597 258.137703 
L 332.267415 258.144303 
L 332.470324 258.289167 
L 333.890688 258.123056 
L 334.296506 258.24135 
L 335.108142 258.484303 
L 335.51396 258.664622 
L 335.919778 258.699537 
L 336.325597 258.90154 
L 336.934324 259.093353 
L 337.74596 259.136912 
L 339.97796 258.900821 
L 340.383778 259.050418 
L 340.789597 259.048809 
L 341.195415 259.124341 
L 341.804142 258.989074 
L 342.818688 258.846705 
L 343.021597 258.700374 
L 344.44196 258.696874 
L 345.050687 258.864748 
L 345.659415 258.884149 
L 347.688506 258.967073 
L 348.094324 258.979253 
L 350.529233 259.02017 
L 350.935051 258.987179 
L 351.340869 259.04905 
L 352.152506 259.086983 
L 352.355415 259.18385 
L 352.964142 259.025622 
L 354.384506 258.717514 
L 355.399051 258.530137 
L 356.616506 258.91586 
L 357.022324 258.943358 
L 359.254324 259.682971 
L 360.06596 259.600913 
L 361.283415 259.657392 
L 363.921233 259.159772 
L 364.327051 258.98617 
L 364.732869 258.895886 
L 365.544506 258.858878 
L 366.153233 258.864124 
L 366.356142 258.827523 
L 366.76196 258.629876 
L 367.979415 258.474178 
L 369.602688 258.342684 
L 370.211415 258.344558 
L 371.631778 258.211587 
L 372.240506 258.079067 
L 372.849233 258.138834 
L 373.052142 258.017262 
L 373.255051 258.118166 
L 373.660869 258.17112 
L 374.066688 258.396584 
L 374.878324 258.779776 
L 375.284142 258.966225 
L 375.892869 259.044956 
L 377.719051 259.081581 
L 378.327778 258.979016 
L 378.530687 258.95891 
L 378.733597 258.816488 
L 380.15396 258.923042 
L 381.777233 259.481396 
L 382.183051 259.540779 
L 382.588869 259.482845 
L 382.994687 259.302602 
L 384.820869 258.731492 
L 385.835415 258.80962 
L 386.444142 258.916834 
L 387.864506 259.000668 
L 388.270324 258.837306 
L 388.676142 258.79575 
L 389.284869 258.611193 
L 390.299415 258.597376 
L 391.922687 258.60658 
L 392.531415 258.821772 
L 394.357597 258.930797 
L 394.763415 259.096347 
L 395.169233 259.10939 
L 395.575051 259.205861 
L 396.792506 258.936186 
L 398.00996 258.929593 
L 398.415778 258.852411 
L 398.821597 258.870845 
L 399.227415 258.848303 
L 399.633233 258.737676 
L 399.836142 258.820795 
L 402.271051 258.253314 
L 404.300142 258.030831 
L 404.908869 257.896088 
L 405.314687 257.949653 
L 405.720506 258.022909 
L 407.952506 258.976245 
L 409.16996 258.936891 
L 412.010688 258.570451 
L 412.822324 258.167812 
L 414.242687 257.551541 
L 414.445597 257.588504 
L 416.880506 256.493511 
L 418.09796 256.105541 
L 418.909597 256.147655 
L 420.938688 256.529046 
L 421.547415 256.777405 
L 421.750324 256.977258 
L 422.764869 257.13001 
L 424.79396 258.022556 
L 425.199778 258.123715 
L 425.605597 258.357129 
L 426.417233 258.524319 
L 426.823051 258.50584 
L 427.228869 258.561097 
L 428.446324 258.425991 
L 429.460869 258.688979 
L 431.692869 259.580887 
L 433.519051 259.808853 
L 434.330688 259.568222 
L 436.562687 258.867031 
L 436.968506 258.754969 
L 437.374324 258.57445 
L 437.780142 258.548439 
L 438.794688 258.754749 
L 439.200506 258.684275 
L 439.809233 258.591806 
L 440.215051 258.634486 
L 440.823778 258.591475 
L 441.432506 258.574995 
L 441.838324 258.555656 
L 443.461597 257.96569 
L 443.867415 258.00371 
L 444.273233 257.991174 
L 444.679051 257.950344 
L 445.490687 257.964629 
L 446.099415 257.619331 
L 446.708142 257.614689 
L 447.316869 257.661596 
L 449.548869 257.729473 
L 449.954687 257.779199 
L 450.563415 257.713639 
L 451.172142 257.739797 
L 451.57796 257.876666 
L 451.983778 258.001072 
L 452.389597 258.175085 
L 452.795415 258.233554 
L 454.621597 258.78728 
L 455.433233 258.79687 
L 456.04196 258.808332 
L 456.853597 258.813075 
L 457.056506 258.676318 
L 458.476869 258.727199 
L 458.882687 258.596664 
L 460.303051 258.533673 
L 461.520506 258.654184 
L 465.375778 258.124846 
L 466.390324 257.544794 
L 466.796142 257.501012 
L 469.028142 257.867229 
L 470.245597 257.796032 
L 471.463051 257.647726 
L 472.071778 257.689638 
L 473.289233 257.695428 
L 474.100869 257.589076 
L 474.100869 257.589076 
" style="fill:none;stroke:#c44e52;stroke-linecap:round;stroke-width:1.75;"/>
   </g>
   <g id="line2d_32">
    <path clip-path="url(#p5a8048e37c)" d="M 68.485597 221.894128 
L 70.108869 226.289085 
L 72.746688 232.92228 
L 73.964142 235.591696 
L 78.428142 244.977661 
L 80.863051 249.253347 
L 82.892142 252.3353 
L 85.327051 255.648792 
L 91.008506 262.363907 
L 93.037597 264.432342 
L 95.066688 266.223619 
L 98.516142 268.99308 
L 99.733597 269.894878 
L 100.951051 270.743258 
L 102.980142 271.972209 
L 106.632506 274.036791 
L 108.255778 274.876138 
L 109.270324 275.386159 
L 111.299415 276.172583 
L 116.372142 277.885069 
L 117.183778 278.085125 
L 117.792506 278.271954 
L 120.024506 278.973794 
L 120.836142 279.216582 
L 122.256506 279.640461 
L 124.691415 280.363667 
L 126.923415 280.729221 
L 128.140869 280.91295 
L 128.546688 281.02452 
L 130.372869 281.296059 
L 134.228142 281.932244 
L 134.836869 281.989132 
L 137.880506 282.174935 
L 138.489233 282.157743 
L 140.315415 282.046641 
L 140.924142 282.014295 
L 144.576506 282.208264 
L 149.852142 282.751154 
L 154.519051 282.648805 
L 156.95396 282.672335 
L 157.562687 282.686784 
L 159.388869 282.770691 
L 160.200506 282.832507 
L 160.809233 282.868873 
L 164.258688 282.964039 
L 165.070324 283.011336 
L 168.316869 283.254983 
L 168.925597 283.204517 
L 170.34596 283.118013 
L 173.592506 283.164738 
L 173.998324 283.230644 
L 175.418688 283.210394 
L 176.636142 283.316938 
L 179.476869 283.33041 
L 182.317597 283.183786 
L 184.346688 283.283148 
L 184.955415 283.330173 
L 185.96996 283.459848 
L 187.187415 283.312918 
L 188.404869 283.142464 
L 190.43396 282.606736 
L 191.448506 282.438726 
L 192.057233 282.423237 
L 196.521233 281.907779 
L 198.144506 281.568952 
L 198.753233 281.436254 
L 201.188142 281.262904 
L 201.796869 281.298648 
L 202.608506 281.432575 
L 204.231778 281.593836 
L 206.869597 281.712693 
L 208.492869 282.036359 
L 209.101597 282.037818 
L 211.333597 282.133927 
L 211.739415 282.120288 
L 212.145233 282.189774 
L 212.551051 282.053732 
L 213.159778 282.058793 
L 214.377233 281.849921 
L 217.015051 281.798415 
L 218.029597 281.860677 
L 219.044142 281.753826 
L 220.667415 281.30551 
L 221.479051 281.387428 
L 222.290687 281.718207 
L 224.116869 282.313133 
L 224.725597 282.365812 
L 225.334324 282.269906 
L 225.943051 282.251164 
L 226.348869 282.228214 
L 227.566324 282.104205 
L 231.218687 281.535392 
L 233.450687 281.733459 
L 235.682687 282.243381 
L 237.711778 282.272293 
L 238.117597 282.323554 
L 238.523415 282.242558 
L 240.552506 282.223334 
L 241.567051 282.296807 
L 244.204869 282.067002 
L 244.813597 281.887837 
L 246.23396 281.648267 
L 247.248506 281.776735 
L 249.480506 281.968115 
L 249.886324 281.872648 
L 250.69796 281.812061 
L 251.103778 281.675245 
L 253.132869 281.352381 
L 253.538688 281.216779 
L 254.147415 281.281875 
L 256.176506 281.908247 
L 258.611415 282.059854 
L 259.423051 282.011161 
L 260.234688 281.916148 
L 261.046324 281.819216 
L 263.887051 282.231159 
L 265.104506 282.428011 
L 266.119051 282.37224 
L 266.524869 282.229582 
L 267.336506 282.179639 
L 267.742324 282.107996 
L 268.756869 282.262674 
L 270.177233 282.415454 
L 271.394688 282.496276 
L 272.003415 282.538576 
L 274.438324 282.913294 
L 274.641233 282.894336 
L 275.047051 282.692047 
L 275.858687 282.551356 
L 276.670324 282.516847 
L 277.076142 282.504576 
L 277.887778 282.574251 
L 278.293597 282.411126 
L 280.728506 282.488054 
L 282.757597 282.1216 
L 283.163415 282.148738 
L 284.786687 281.563556 
L 285.192506 281.478937 
L 286.207051 281.554385 
L 287.424506 281.681631 
L 288.844869 282.073102 
L 289.250688 282.108812 
L 290.265233 282.346994 
L 291.076869 282.429135 
L 293.308869 282.190877 
L 293.917597 282.035131 
L 295.135051 281.929187 
L 295.540869 281.931079 
L 296.149597 281.986284 
L 296.758324 282.108491 
L 298.584506 282.151105 
L 299.396142 282.216564 
L 301.628142 281.933982 
L 303.048506 281.661682 
L 303.860142 281.828025 
L 304.063051 281.729822 
L 306.700869 282.386592 
L 307.309597 282.352661 
L 308.72996 282.3752 
L 309.135778 282.334702 
L 314.208506 282.733781 
L 315.020142 282.805452 
L 317.65796 282.914334 
L 318.266687 282.679127 
L 320.701597 282.470548 
L 321.919051 282.280913 
L 322.933597 282.285953 
L 323.339415 282.216738 
L 323.745233 282.246634 
L 328.615051 281.971996 
L 329.223778 281.738079 
L 330.644142 281.65376 
L 331.252869 281.628632 
L 334.296506 281.362377 
L 336.325597 281.837371 
L 336.934324 281.962622 
L 339.572142 282.391499 
L 339.97796 282.355021 
L 340.383778 282.426894 
L 344.644869 282.563906 
L 345.456506 282.452044 
L 346.471051 282.368045 
L 346.876869 282.382159 
L 347.282688 282.499404 
L 347.891415 282.466143 
L 348.500142 282.446634 
L 352.558324 282.831893 
L 352.964142 282.682756 
L 353.775778 282.667281 
L 354.384506 282.556214 
L 357.428142 281.947363 
L 358.239778 281.960458 
L 358.645597 281.886874 
L 359.457233 282.109001 
L 359.660142 282.194423 
L 361.486324 281.924985 
L 367.370687 281.797284 
L 368.588142 281.911409 
L 368.791051 281.980128 
L 368.99396 282.17772 
L 370.008506 282.248295 
L 371.22596 282.205354 
L 372.240506 282.055408 
L 373.052142 281.990828 
L 373.660869 281.946281 
L 374.269597 282.171738 
L 375.081233 282.288424 
L 376.501597 281.95345 
L 378.124869 281.488039 
L 382.994687 282.265075 
L 384.009233 282.608746 
L 384.61796 282.616097 
L 385.023778 282.48002 
L 387.052869 282.13905 
L 387.864506 282.224849 
L 389.690687 282.268119 
L 390.705233 282.015817 
L 391.111051 282.013527 
L 391.719778 282.087048 
L 392.125597 282.023955 
L 393.343051 282.105378 
L 395.372142 282.611224 
L 396.183778 282.592839 
L 396.589597 282.598074 
L 398.00996 282.850495 
L 398.415778 282.822539 
L 398.821597 282.965463 
L 399.227415 282.991953 
L 400.24196 282.895188 
L 401.459415 282.597767 
L 402.068142 282.531561 
L 402.47396 282.607378 
L 403.082687 282.608048 
L 404.300142 282.803177 
L 405.111778 282.513503 
L 405.720506 282.178341 
L 406.126324 281.927302 
L 406.532142 281.760932 
L 407.140869 281.260118 
L 407.952506 281.035262 
L 409.16996 281.143733 
L 409.575778 281.132648 
L 410.387415 281.065612 
L 411.604869 281.055372 
L 412.822324 280.947641 
L 415.86596 281.052643 
L 416.068869 281.209506 
L 416.880506 281.310822 
L 418.706687 281.646857 
L 419.518324 281.938142 
L 420.532869 281.95211 
L 421.750324 282.557911 
L 422.156142 282.54848 
L 422.764869 282.459331 
L 423.373597 282.320637 
L 424.79396 282.312728 
L 426.011415 282.649405 
L 427.634687 282.697833 
L 429.663778 282.962923 
L 430.069597 283.118683 
L 430.475415 283.178914 
L 432.504506 282.824801 
L 433.519051 282.745416 
L 434.127778 282.642544 
L 435.345233 282.325334 
L 436.156869 281.854109 
L 436.765597 281.54129 
L 438.794688 281.188098 
L 439.809233 281.064544 
L 440.215051 281.100847 
L 442.041233 281.760318 
L 443.055778 281.892039 
L 443.664506 282.047471 
L 444.070324 282.042418 
L 445.287778 282.145521 
L 447.519778 282.480027 
L 448.331415 282.344201 
L 450.766324 281.901274 
L 454.418687 281.885247 
L 455.027415 281.687844 
L 455.636142 281.45503 
L 456.04196 281.265821 
L 456.447778 281.23053 
L 457.259415 281.069695 
L 457.868142 281.312993 
L 458.27396 281.496387 
L 458.882687 281.769364 
L 459.491415 282.071567 
L 460.303051 282.31203 
L 462.129233 282.165651 
L 462.73796 282.025728 
L 463.752506 282.038509 
L 464.361233 282.101714 
L 464.96996 282.080459 
L 465.578688 282.134415 
L 466.593233 282.398807 
L 466.999051 282.525258 
L 468.216506 282.548983 
L 468.622324 282.583311 
L 469.43396 282.783618 
L 472.680506 282.276565 
L 473.086324 282.348557 
L 473.492142 282.555035 
L 473.89796 282.626602 
L 474.100869 282.618798 
L 474.100869 282.618798 
" style="fill:none;stroke:#8172b2;stroke-linecap:round;stroke-width:1.75;"/>
   </g>
   <g id="patch_3">
    <path d="M 48.194688 320.87625 
L 48.194688 21.89625 
" style="fill:none;"/>
   </g>
   <g id="patch_4">
    <path d="M 494.594687 320.87625 
L 494.594687 21.89625 
" style="fill:none;"/>
   </g>
   <g id="patch_5">
    <path d="M 48.194688 320.87625 
L 494.594687 320.87625 
" style="fill:none;"/>
   </g>
   <g id="patch_6">
    <path d="M 48.194688 21.89625 
L 494.594687 21.89625 
" style="fill:none;"/>
   </g>
   <g id="text_17">
    <!-- Weight parameters over training -->
    <defs>
     <path d="M 29.9375 0 
L 19.53125 0 
L 0.34375 52.828125 
L 9.71875 52.828125 
L 21.34375 18.453125 
Q 21.6875 17.390625 22.140625 15.84375 
Q 22.609375 14.3125 23.09375 12.640625 
Q 23.578125 10.984375 24 9.4375 
Q 24.421875 7.90625 24.703125 6.890625 
Q 25 7.90625 25.453125 9.4375 
Q 25.921875 10.984375 26.40625 12.59375 
Q 26.90625 14.203125 27.421875 15.734375 
Q 27.9375 17.28125 28.328125 18.359375 
L 40.328125 52.828125 
L 49.65625 52.828125 
z
" id="LiberationSans-76"/>
    </defs>
    <g style="fill:#262626;" transform="translate(186.030625 15.89625)scale(0.12 -0.12)">
     <use xlink:href="#LiberationSans-57"/>
     <use x="94.369141" xlink:href="#LiberationSans-65"/>
     <use x="149.984375" xlink:href="#LiberationSans-69"/>
     <use x="172.201172" xlink:href="#LiberationSans-67"/>
     <use x="227.816406" xlink:href="#LiberationSans-68"/>
     <use x="283.431641" xlink:href="#LiberationSans-74"/>
     <use x="311.214844" xlink:href="#LiberationSans-20"/>
     <use x="338.998047" xlink:href="#LiberationSans-70"/>
     <use x="394.613281" xlink:href="#LiberationSans-61"/>
     <use x="450.228516" xlink:href="#LiberationSans-72"/>
     <use x="483.529297" xlink:href="#LiberationSans-61"/>
     <use x="539.144531" xlink:href="#LiberationSans-6d"/>
     <use x="622.445312" xlink:href="#LiberationSans-65"/>
     <use x="678.060547" xlink:href="#LiberationSans-74"/>
     <use x="705.84375" xlink:href="#LiberationSans-65"/>
     <use x="761.458984" xlink:href="#LiberationSans-72"/>
     <use x="794.759766" xlink:href="#LiberationSans-73"/>
     <use x="844.759766" xlink:href="#LiberationSans-20"/>
     <use x="872.542969" xlink:href="#LiberationSans-6f"/>
     <use x="928.158203" xlink:href="#LiberationSans-76"/>
     <use x="978.158203" xlink:href="#LiberationSans-65"/>
     <use x="1033.773438" xlink:href="#LiberationSans-72"/>
     <use x="1067.074219" xlink:href="#LiberationSans-20"/>
     <use x="1094.857422" xlink:href="#LiberationSans-74"/>
     <use x="1122.640625" xlink:href="#LiberationSans-72"/>
     <use x="1155.941406" xlink:href="#LiberationSans-61"/>
     <use x="1211.556641" xlink:href="#LiberationSans-69"/>
     <use x="1233.773438" xlink:href="#LiberationSans-6e"/>
     <use x="1289.388672" xlink:href="#LiberationSans-69"/>
     <use x="1311.605469" xlink:href="#LiberationSans-6e"/>
     <use x="1367.220703" xlink:href="#LiberationSans-67"/>
    </g>
   </g>
   <g id="legend_1">
    <g id="line2d_33">
     <path d="M 57.194688 34.643125 
L 77.194688 34.643125 
" style="fill:none;stroke:#4c72b0;stroke-linecap:round;stroke-width:1.75;"/>
    </g>
    <g id="line2d_34"/>
    <g id="text_18">
     <!-- Fit W[0] -->
     <defs>
      <path d="M 17.53125 61.1875 
L 17.53125 35.59375 
L 55.90625 35.59375 
L 55.90625 27.875 
L 17.53125 27.875 
L 17.53125 0 
L 8.203125 0 
L 8.203125 68.796875 
L 57.078125 68.796875 
L 57.078125 61.1875 
z
" id="LiberationSans-46"/>
      <path d="M 7.125 -20.75 
L 7.125 72.46875 
L 27 72.46875 
L 27 66.15625 
L 15.625 66.15625 
L 15.625 -14.453125 
L 27 -14.453125 
L 27 -20.75 
z
" id="LiberationSans-5b"/>
      <path d="M 0.78125 -20.75 
L 0.78125 -14.453125 
L 12.15625 -14.453125 
L 12.15625 66.15625 
L 0.78125 66.15625 
L 0.78125 72.46875 
L 20.65625 72.46875 
L 20.65625 -20.75 
z
" id="LiberationSans-5d"/>
     </defs>
     <g style="fill:#262626;" transform="translate(85.194688 38.143125)scale(0.1 -0.1)">
      <use xlink:href="#LiberationSans-46"/>
      <use x="61.083984" xlink:href="#LiberationSans-69"/>
      <use x="83.300781" xlink:href="#LiberationSans-74"/>
      <use x="111.083984" xlink:href="#LiberationSans-20"/>
      <use x="138.867188" xlink:href="#LiberationSans-57"/>
      <use x="233.251953" xlink:href="#LiberationSans-5b"/>
      <use x="261.035156" xlink:href="#LiberationSans-30"/>
      <use x="316.650391" xlink:href="#LiberationSans-5d"/>
     </g>
    </g>
    <g id="line2d_35">
     <path d="M 57.194688 48.965 
L 77.194688 48.965 
" style="fill:none;stroke:#55a868;stroke-linecap:round;stroke-width:1.75;"/>
    </g>
    <g id="line2d_36"/>
    <g id="text_19">
     <!-- Fit W[1] -->
     <g style="fill:#262626;" transform="translate(85.194688 52.465)scale(0.1 -0.1)">
      <use xlink:href="#LiberationSans-46"/>
      <use x="61.083984" xlink:href="#LiberationSans-69"/>
      <use x="83.300781" xlink:href="#LiberationSans-74"/>
      <use x="111.083984" xlink:href="#LiberationSans-20"/>
      <use x="138.867188" xlink:href="#LiberationSans-57"/>
      <use x="233.251953" xlink:href="#LiberationSans-5b"/>
      <use x="261.035156" xlink:href="#LiberationSans-31"/>
      <use x="316.650391" xlink:href="#LiberationSans-5d"/>
     </g>
    </g>
    <g id="line2d_37">
     <path d="M 57.194688 63.286875 
L 77.194688 63.286875 
" style="fill:none;stroke:#c44e52;stroke-linecap:round;stroke-width:1.75;"/>
    </g>
    <g id="line2d_38"/>
    <g id="text_20">
     <!-- Fit W[2] -->
     <g style="fill:#262626;" transform="translate(85.194688 66.786875)scale(0.1 -0.1)">
      <use xlink:href="#LiberationSans-46"/>
      <use x="61.083984" xlink:href="#LiberationSans-69"/>
      <use x="83.300781" xlink:href="#LiberationSans-74"/>
      <use x="111.083984" xlink:href="#LiberationSans-20"/>
      <use x="138.867188" xlink:href="#LiberationSans-57"/>
      <use x="233.251953" xlink:href="#LiberationSans-5b"/>
      <use x="261.035156" xlink:href="#LiberationSans-32"/>
      <use x="316.650391" xlink:href="#LiberationSans-5d"/>
     </g>
    </g>
    <g id="line2d_39">
     <path d="M 57.194688 77.60875 
L 77.194688 77.60875 
" style="fill:none;stroke:#8172b2;stroke-linecap:round;stroke-width:1.75;"/>
    </g>
    <g id="line2d_40"/>
    <g id="text_21">
     <!-- Fit W[3] -->
     <defs>
      <path d="M 51.21875 19 
Q 51.21875 14.265625 49.671875 10.546875 
Q 48.140625 6.84375 45.1875 4.265625 
Q 42.234375 1.703125 37.859375 0.359375 
Q 33.5 -0.984375 27.875 -0.984375 
Q 21.484375 -0.984375 17.109375 0.609375 
Q 12.75 2.203125 9.90625 4.8125 
Q 7.078125 7.421875 5.65625 10.765625 
Q 4.25 14.109375 3.8125 17.671875 
L 12.890625 18.5 
Q 13.28125 15.765625 14.328125 13.515625 
Q 15.375 11.28125 17.1875 9.671875 
Q 19 8.0625 21.625 7.171875 
Q 24.265625 6.296875 27.875 6.296875 
Q 34.515625 6.296875 38.296875 9.5625 
Q 42.09375 12.84375 42.09375 19.28125 
Q 42.09375 23.09375 40.40625 25.40625 
Q 38.71875 27.734375 36.203125 29.03125 
Q 33.6875 30.328125 30.734375 30.765625 
Q 27.78125 31.203125 25.296875 31.203125 
L 20.3125 31.203125 
L 20.3125 38.8125 
L 25.09375 38.8125 
Q 27.59375 38.8125 30.265625 39.328125 
Q 32.953125 39.84375 35.171875 41.1875 
Q 37.40625 42.53125 38.84375 44.828125 
Q 40.28125 47.125 40.28125 50.6875 
Q 40.28125 56.203125 37.03125 59.390625 
Q 33.796875 62.59375 27.390625 62.59375 
Q 21.578125 62.59375 17.984375 59.609375 
Q 14.40625 56.640625 13.8125 51.21875 
L 4.984375 51.90625 
Q 5.515625 56.453125 7.46875 59.8125 
Q 9.421875 63.1875 12.421875 65.40625 
Q 15.4375 67.625 19.28125 68.71875 
Q 23.140625 69.828125 27.484375 69.828125 
Q 33.25 69.828125 37.390625 68.375 
Q 41.546875 66.9375 44.1875 64.46875 
Q 46.828125 62.015625 48.0625 58.6875 
Q 49.3125 55.375 49.3125 51.609375 
Q 49.3125 48.578125 48.484375 45.9375 
Q 47.65625 43.3125 45.890625 41.203125 
Q 44.140625 39.109375 41.421875 37.59375 
Q 38.71875 36.078125 34.90625 35.296875 
L 34.90625 35.109375 
Q 39.0625 34.671875 42.140625 33.21875 
Q 45.21875 31.78125 47.21875 29.625 
Q 49.21875 27.484375 50.21875 24.75 
Q 51.21875 22.015625 51.21875 19 
z
" id="LiberationSans-33"/>
     </defs>
     <g style="fill:#262626;" transform="translate(85.194688 81.10875)scale(0.1 -0.1)">
      <use xlink:href="#LiberationSans-46"/>
      <use x="61.083984" xlink:href="#LiberationSans-69"/>
      <use x="83.300781" xlink:href="#LiberationSans-74"/>
      <use x="111.083984" xlink:href="#LiberationSans-20"/>
      <use x="138.867188" xlink:href="#LiberationSans-57"/>
      <use x="233.251953" xlink:href="#LiberationSans-5b"/>
      <use x="261.035156" xlink:href="#LiberationSans-33"/>
      <use x="316.650391" xlink:href="#LiberationSans-5d"/>
     </g>
    </g>
    <g id="line2d_41">
     <path d="M 57.194688 91.930625 
L 77.194688 91.930625 
" style="fill:none;stroke:#4c72b0;stroke-dasharray:6.475,2.8;stroke-dashoffset:0;stroke-width:1.75;"/>
    </g>
    <g id="text_22">
     <!-- True W[0] -->
     <defs>
      <path d="M 15.328125 52.828125 
L 15.328125 19.34375 
Q 15.328125 15.484375 15.890625 12.890625 
Q 16.453125 10.296875 17.71875 8.703125 
Q 19 7.125 21.0625 6.46875 
Q 23.140625 5.8125 26.21875 5.8125 
Q 29.34375 5.8125 31.859375 6.90625 
Q 34.375 8.015625 36.15625 10.078125 
Q 37.9375 12.15625 38.90625 15.203125 
Q 39.890625 18.265625 39.890625 22.21875 
L 39.890625 52.828125 
L 48.6875 52.828125 
L 48.6875 11.28125 
Q 48.6875 9.625 48.703125 7.78125 
Q 48.734375 5.953125 48.78125 4.3125 
Q 48.828125 2.6875 48.875 1.515625 
Q 48.921875 0.34375 48.96875 0 
L 40.671875 0 
Q 40.625 0.25 40.578125 1.3125 
Q 40.53125 2.390625 40.453125 3.78125 
Q 40.375 5.171875 40.328125 6.609375 
Q 40.28125 8.0625 40.28125 9.03125 
L 40.140625 9.03125 
Q 38.875 6.734375 37.359375 4.875 
Q 35.84375 3.03125 33.84375 1.734375 
Q 31.84375 0.4375 29.25 -0.265625 
Q 26.65625 -0.984375 23.25 -0.984375 
Q 18.84375 -0.984375 15.671875 0.09375 
Q 12.5 1.171875 10.453125 3.421875 
Q 8.40625 5.671875 7.453125 9.1875 
Q 6.5 12.703125 6.5 17.625 
L 6.5 52.828125 
z
" id="LiberationSans-75"/>
     </defs>
     <g style="fill:#262626;" transform="translate(85.194688 95.430625)scale(0.1 -0.1)">
      <use xlink:href="#LiberationSans-54"/>
      <use x="61.037109" xlink:href="#LiberationSans-72"/>
      <use x="94.337891" xlink:href="#LiberationSans-75"/>
      <use x="149.953125" xlink:href="#LiberationSans-65"/>
      <use x="205.568359" xlink:href="#LiberationSans-20"/>
      <use x="233.351562" xlink:href="#LiberationSans-57"/>
      <use x="327.736328" xlink:href="#LiberationSans-5b"/>
      <use x="355.519531" xlink:href="#LiberationSans-30"/>
      <use x="411.134766" xlink:href="#LiberationSans-5d"/>
     </g>
    </g>
    <g id="line2d_42">
     <path d="M 57.194688 106.2525 
L 77.194688 106.2525 
" style="fill:none;stroke:#55a868;stroke-dasharray:6.475,2.8;stroke-dashoffset:0;stroke-width:1.75;"/>
    </g>
    <g id="text_23">
     <!-- True W[1] -->
     <g style="fill:#262626;" transform="translate(85.194688 109.7525)scale(0.1 -0.1)">
      <use xlink:href="#LiberationSans-54"/>
      <use x="61.037109" xlink:href="#LiberationSans-72"/>
      <use x="94.337891" xlink:href="#LiberationSans-75"/>
      <use x="149.953125" xlink:href="#LiberationSans-65"/>
      <use x="205.568359" xlink:href="#LiberationSans-20"/>
      <use x="233.351562" xlink:href="#LiberationSans-57"/>
      <use x="327.736328" xlink:href="#LiberationSans-5b"/>
      <use x="355.519531" xlink:href="#LiberationSans-31"/>
      <use x="411.134766" xlink:href="#LiberationSans-5d"/>
     </g>
    </g>
    <g id="line2d_43">
     <path d="M 57.194688 120.574375 
L 77.194688 120.574375 
" style="fill:none;stroke:#c44e52;stroke-dasharray:6.475,2.8;stroke-dashoffset:0;stroke-width:1.75;"/>
    </g>
    <g id="text_24">
     <!-- True W[2] -->
     <g style="fill:#262626;" transform="translate(85.194688 124.074375)scale(0.1 -0.1)">
      <use xlink:href="#LiberationSans-54"/>
      <use x="61.037109" xlink:href="#LiberationSans-72"/>
      <use x="94.337891" xlink:href="#LiberationSans-75"/>
      <use x="149.953125" xlink:href="#LiberationSans-65"/>
      <use x="205.568359" xlink:href="#LiberationSans-20"/>
      <use x="233.351562" xlink:href="#LiberationSans-57"/>
      <use x="327.736328" xlink:href="#LiberationSans-5b"/>
      <use x="355.519531" xlink:href="#LiberationSans-32"/>
      <use x="411.134766" xlink:href="#LiberationSans-5d"/>
     </g>
    </g>
    <g id="line2d_44">
     <path d="M 57.194688 134.89625 
L 77.194688 134.89625 
" style="fill:none;stroke:#8172b2;stroke-dasharray:6.475,2.8;stroke-dashoffset:0;stroke-width:1.75;"/>
    </g>
    <g id="text_25">
     <!-- True W[3] -->
     <g style="fill:#262626;" transform="translate(85.194688 138.39625)scale(0.1 -0.1)">
      <use xlink:href="#LiberationSans-54"/>
      <use x="61.037109" xlink:href="#LiberationSans-72"/>
      <use x="94.337891" xlink:href="#LiberationSans-75"/>
      <use x="149.953125" xlink:href="#LiberationSans-65"/>
      <use x="205.568359" xlink:href="#LiberationSans-20"/>
      <use x="233.351562" xlink:href="#LiberationSans-57"/>
      <use x="327.736328" xlink:href="#LiberationSans-5b"/>
      <use x="355.519531" xlink:href="#LiberationSans-33"/>
      <use x="411.134766" xlink:href="#LiberationSans-5d"/>
     </g>
    </g>
   </g>
  </g>
 </g>
 <defs>
  <clipPath id="p5a8048e37c">
   <rect height="298.98" width="446.4" x="48.194688" y="21.89625"/>
  </clipPath>
 </defs>
</svg>
