<?xml version="1.0" encoding="utf-8" standalone="no"?>
<!DOCTYPE svg PUBLIC "-//W3C//DTD SVG 1.1//EN"
  "http://www.w3.org/Graphics/SVG/1.1/DTD/svg11.dtd">
<!-- Created with matplotlib (http://matplotlib.org/) -->
<svg version="1.1" viewBox="0 0 392 480" xmlns="http://www.w3.org/2000/svg" xmlns:xlink="http://www.w3.org/1999/xlink">
 <defs>
  <style type="text/css">
*{stroke-linecap:butt;stroke-linejoin:round;}
  </style>
 </defs>
 <g id="figure_1">
  <g id="patch_1">
   <path d="M 0 480.298125 
L 392.155213 480.298125 
L 392.155213 0 
L 0 0 
z
" style="fill:#ffffff;"/>
  </g>
  <g id="axes_1">
   <g id="patch_2">
    <path d="M 25.321875 84.021964 
L 382.441875 84.021964 
L 382.441875 21.89625 
L 25.321875 21.89625 
z
" style="fill:#eaeaf2;"/>
   </g>
   <g id="matplotlib.axis_1">
    <g id="xtick_1">
     <g id="line2d_1">
      <path clip-path="url(#p648c6bbbf8)" d="M 59.141283 84.021964 
L 59.141283 21.89625 
" style="fill:none;stroke:#ffffff;stroke-linecap:round;"/>
     </g>
     <g id="line2d_2"/>
    </g>
    <g id="xtick_2">
     <g id="line2d_3">
      <path clip-path="url(#p648c6bbbf8)" d="M 112.285271 84.021964 
L 112.285271 21.89625 
" style="fill:none;stroke:#ffffff;stroke-linecap:round;"/>
     </g>
     <g id="line2d_4"/>
    </g>
    <g id="xtick_3">
     <g id="line2d_5">
      <path clip-path="url(#p648c6bbbf8)" d="M 165.42926 84.021964 
L 165.42926 21.89625 
" style="fill:none;stroke:#ffffff;stroke-linecap:round;"/>
     </g>
     <g id="line2d_6"/>
    </g>
    <g id="xtick_4">
     <g id="line2d_7">
      <path clip-path="url(#p648c6bbbf8)" d="M 218.573248 84.021964 
L 218.573248 21.89625 
" style="fill:none;stroke:#ffffff;stroke-linecap:round;"/>
     </g>
     <g id="line2d_8"/>
    </g>
    <g id="xtick_5">
     <g id="line2d_9">
      <path clip-path="url(#p648c6bbbf8)" d="M 271.717236 84.021964 
L 271.717236 21.89625 
" style="fill:none;stroke:#ffffff;stroke-linecap:round;"/>
     </g>
     <g id="line2d_10"/>
    </g>
    <g id="xtick_6">
     <g id="line2d_11">
      <path clip-path="url(#p648c6bbbf8)" d="M 324.861225 84.021964 
L 324.861225 21.89625 
" style="fill:none;stroke:#ffffff;stroke-linecap:round;"/>
     </g>
     <g id="line2d_12"/>
    </g>
    <g id="xtick_7">
     <g id="line2d_13">
      <path clip-path="url(#p648c6bbbf8)" d="M 378.005213 84.021964 
L 378.005213 21.89625 
" style="fill:none;stroke:#ffffff;stroke-linecap:round;"/>
     </g>
     <g id="line2d_14"/>
    </g>
   </g>
   <g id="matplotlib.axis_2">
    <g id="ytick_1">
     <g id="line2d_15">
      <path clip-path="url(#p648c6bbbf8)" d="M 25.321875 84.021964 
L 382.441875 84.021964 
" style="fill:none;stroke:#ffffff;stroke-linecap:round;"/>
     </g>
     <g id="line2d_16"/>
     <g id="text_1">
      <!-- 0 -->
      <defs>
       <path d="M 51.703125 34.421875 
Q 51.703125 24.515625 49.828125 17.75 
Q 47.953125 10.984375 44.703125 6.8125 
Q 41.453125 2.640625 37.0625 0.828125 
Q 32.671875 -0.984375 27.6875 -0.984375 
Q 22.65625 -0.984375 18.3125 0.828125 
Q 13.96875 2.640625 10.765625 6.78125 
Q 7.5625 10.9375 5.734375 17.703125 
Q 3.90625 24.46875 3.90625 34.421875 
Q 3.90625 44.828125 5.734375 51.640625 
Q 7.5625 58.453125 10.78125 62.5 
Q 14.015625 66.546875 18.40625 68.1875 
Q 22.796875 69.828125 27.984375 69.828125 
Q 32.90625 69.828125 37.21875 68.1875 
Q 41.546875 66.546875 44.765625 62.5 
Q 48 58.453125 49.84375 51.640625 
Q 51.703125 44.828125 51.703125 34.421875 
z
M 42.78125 34.421875 
Q 42.78125 42.625 41.796875 48.0625 
Q 40.828125 53.515625 38.921875 56.765625 
Q 37.015625 60.015625 34.25 61.359375 
Q 31.5 62.703125 27.984375 62.703125 
Q 24.265625 62.703125 21.4375 61.328125 
Q 18.609375 59.96875 16.671875 56.71875 
Q 14.75 53.46875 13.765625 48.015625 
Q 12.796875 42.578125 12.796875 34.421875 
Q 12.796875 26.515625 13.796875 21.09375 
Q 14.796875 15.671875 16.71875 12.375 
Q 18.65625 9.078125 21.4375 7.640625 
Q 24.21875 6.203125 27.78125 6.203125 
Q 31.25 6.203125 34.03125 7.640625 
Q 36.8125 9.078125 38.734375 12.375 
Q 40.671875 15.671875 41.71875 21.09375 
Q 42.78125 26.515625 42.78125 34.421875 
z
" id="LiberationSans-30"/>
      </defs>
      <g style="fill:#262626;" transform="translate(12.760938 87.645402)scale(0.1 -0.1)">
       <use xlink:href="#LiberationSans-30"/>
      </g>
     </g>
    </g>
    <g id="ytick_2">
     <g id="line2d_17">
      <path clip-path="url(#p648c6bbbf8)" d="M 25.321875 52.789466 
L 382.441875 52.789466 
" style="fill:none;stroke:#ffffff;stroke-linecap:round;"/>
     </g>
     <g id="line2d_18"/>
     <g id="text_2">
      <!-- 2 -->
      <defs>
       <path d="M 5.03125 0 
L 5.03125 6.203125 
Q 7.515625 11.921875 11.109375 16.28125 
Q 14.703125 20.65625 18.65625 24.1875 
Q 22.609375 27.734375 26.484375 30.765625 
Q 30.375 33.796875 33.5 36.8125 
Q 36.625 39.84375 38.546875 43.15625 
Q 40.484375 46.484375 40.484375 50.6875 
Q 40.484375 53.609375 39.59375 55.828125 
Q 38.71875 58.0625 37.0625 59.5625 
Q 35.40625 61.078125 33.078125 61.828125 
Q 30.765625 62.59375 27.9375 62.59375 
Q 25.296875 62.59375 22.96875 61.859375 
Q 20.65625 61.140625 18.84375 59.671875 
Q 17.046875 58.203125 15.890625 56.03125 
Q 14.75 53.859375 14.40625 50.984375 
L 5.421875 51.8125 
Q 5.859375 55.515625 7.46875 58.78125 
Q 9.078125 62.0625 11.90625 64.53125 
Q 14.75 67 18.71875 68.40625 
Q 22.703125 69.828125 27.9375 69.828125 
Q 33.0625 69.828125 37.0625 68.609375 
Q 41.0625 67.390625 43.8125 64.984375 
Q 46.578125 62.59375 48.046875 59.078125 
Q 49.515625 55.5625 49.515625 50.984375 
Q 49.515625 47.515625 48.265625 44.390625 
Q 47.015625 41.265625 44.9375 38.421875 
Q 42.875 35.59375 40.140625 32.953125 
Q 37.40625 30.328125 34.421875 27.8125 
Q 31.453125 25.296875 28.421875 22.828125 
Q 25.390625 20.359375 22.71875 17.859375 
Q 20.0625 15.375 17.96875 12.8125 
Q 15.875 10.25 14.703125 7.46875 
L 50.59375 7.46875 
L 50.59375 0 
z
" id="LiberationSans-32"/>
      </defs>
      <g style="fill:#262626;" transform="translate(12.760938 56.412904)scale(0.1 -0.1)">
       <use xlink:href="#LiberationSans-32"/>
      </g>
     </g>
    </g>
    <g id="ytick_3">
     <g id="line2d_19">
      <path clip-path="url(#p648c6bbbf8)" d="M 25.321875 21.556968 
L 382.441875 21.556968 
" style="fill:none;stroke:#ffffff;stroke-linecap:round;"/>
     </g>
     <g id="line2d_20"/>
     <g id="text_3">
      <!-- 4 -->
      <defs>
       <path d="M 43.015625 15.578125 
L 43.015625 0 
L 34.71875 0 
L 34.71875 15.578125 
L 2.296875 15.578125 
L 2.296875 22.40625 
L 33.796875 68.796875 
L 43.015625 68.796875 
L 43.015625 22.515625 
L 52.6875 22.515625 
L 52.6875 15.578125 
z
M 34.71875 58.890625 
Q 34.625 58.640625 34.234375 57.9375 
Q 33.84375 57.234375 33.34375 56.34375 
Q 32.859375 55.46875 32.34375 54.5625 
Q 31.84375 53.65625 31.453125 53.078125 
L 13.8125 27.09375 
Q 13.578125 26.703125 13.109375 26.0625 
Q 12.640625 25.4375 12.15625 24.78125 
Q 11.671875 24.125 11.171875 23.484375 
Q 10.6875 22.859375 10.40625 22.515625 
L 34.71875 22.515625 
z
" id="LiberationSans-34"/>
      </defs>
      <g style="fill:#262626;" transform="translate(12.760938 25.180406)scale(0.1 -0.1)">
       <use xlink:href="#LiberationSans-34"/>
      </g>
     </g>
    </g>
   </g>
   <g id="patch_3">
    <path clip-path="url(#p648c6bbbf8)" d="M 177.614639 84.021964 
L 180.672412 84.021964 
L 180.672412 81.850685 
L 177.614639 81.850685 
z
" style="fill:#4c72b0;opacity:0.4;"/>
   </g>
   <g id="patch_4">
    <path clip-path="url(#p648c6bbbf8)" d="M 180.672412 84.021964 
L 183.730185 84.021964 
L 183.730185 81.307866 
L 180.672412 81.307866 
z
" style="fill:#4c72b0;opacity:0.4;"/>
   </g>
   <g id="patch_5">
    <path clip-path="url(#p648c6bbbf8)" d="M 183.730185 84.021964 
L 186.787959 84.021964 
L 186.787959 78.593767 
L 183.730185 78.593767 
z
" style="fill:#4c72b0;opacity:0.4;"/>
   </g>
   <g id="patch_6">
    <path clip-path="url(#p648c6bbbf8)" d="M 186.787959 84.021964 
L 189.845732 84.021964 
L 189.845732 77.508128 
L 186.787959 77.508128 
z
" style="fill:#4c72b0;opacity:0.4;"/>
   </g>
   <g id="patch_7">
    <path clip-path="url(#p648c6bbbf8)" d="M 189.845732 84.021964 
L 192.903505 84.021964 
L 192.903505 65.566095 
L 189.845732 65.566095 
z
" style="fill:#4c72b0;opacity:0.4;"/>
   </g>
   <g id="patch_8">
    <path clip-path="url(#p648c6bbbf8)" d="M 192.903505 84.021964 
L 195.961278 84.021964 
L 195.961278 59.595078 
L 192.903505 59.595078 
z
" style="fill:#4c72b0;opacity:0.4;"/>
   </g>
   <g id="patch_9">
    <path clip-path="url(#p648c6bbbf8)" d="M 195.961278 84.021964 
L 199.019051 84.021964 
L 199.019051 48.195864 
L 195.961278 48.195864 
z
" style="fill:#4c72b0;opacity:0.4;"/>
   </g>
   <g id="patch_10">
    <path clip-path="url(#p648c6bbbf8)" d="M 199.019051 84.021964 
L 202.076824 84.021964 
L 202.076824 47.110225 
L 199.019051 47.110225 
z
" style="fill:#4c72b0;opacity:0.4;"/>
   </g>
   <g id="patch_11">
    <path clip-path="url(#p648c6bbbf8)" d="M 202.076824 84.021964 
L 205.134598 84.021964 
L 205.134598 35.168192 
L 202.076824 35.168192 
z
" style="fill:#4c72b0;opacity:0.4;"/>
   </g>
   <g id="patch_12">
    <path clip-path="url(#p648c6bbbf8)" d="M 205.134598 84.021964 
L 208.192371 84.021964 
L 208.192371 27.568716 
L 205.134598 27.568716 
z
" style="fill:#4c72b0;opacity:0.4;"/>
   </g>
   <g id="patch_13">
    <path clip-path="url(#p648c6bbbf8)" d="M 208.192371 84.021964 
L 211.250144 84.021964 
L 211.250144 28.654355 
L 208.192371 28.654355 
z
" style="fill:#4c72b0;opacity:0.4;"/>
   </g>
   <g id="patch_14">
    <path clip-path="url(#p648c6bbbf8)" d="M 211.250144 84.021964 
L 214.307917 84.021964 
L 214.307917 24.854617 
L 211.250144 24.854617 
z
" style="fill:#4c72b0;opacity:0.4;"/>
   </g>
   <g id="patch_15">
    <path clip-path="url(#p648c6bbbf8)" d="M 214.307917 84.021964 
L 217.36569 84.021964 
L 217.36569 36.796651 
L 214.307917 36.796651 
z
" style="fill:#4c72b0;opacity:0.4;"/>
   </g>
   <g id="patch_16">
    <path clip-path="url(#p648c6bbbf8)" d="M 217.36569 84.021964 
L 220.423463 84.021964 
L 220.423463 38.967929 
L 217.36569 38.967929 
z
" style="fill:#4c72b0;opacity:0.4;"/>
   </g>
   <g id="patch_17">
    <path clip-path="url(#p648c6bbbf8)" d="M 220.423463 84.021964 
L 223.481237 84.021964 
L 223.481237 43.310487 
L 220.423463 43.310487 
z
" style="fill:#4c72b0;opacity:0.4;"/>
   </g>
   <g id="patch_18">
    <path clip-path="url(#p648c6bbbf8)" d="M 223.481237 84.021964 
L 226.53901 84.021964 
L 226.53901 66.651734 
L 223.481237 66.651734 
z
" style="fill:#4c72b0;opacity:0.4;"/>
   </g>
   <g id="patch_19">
    <path clip-path="url(#p648c6bbbf8)" d="M 226.53901 84.021964 
L 229.596783 84.021964 
L 229.596783 67.194554 
L 226.53901 67.194554 
z
" style="fill:#4c72b0;opacity:0.4;"/>
   </g>
   <g id="patch_20">
    <path clip-path="url(#p648c6bbbf8)" d="M 229.596783 84.021964 
L 232.654556 84.021964 
L 232.654556 73.70839 
L 229.596783 73.70839 
z
" style="fill:#4c72b0;opacity:0.4;"/>
   </g>
   <g id="patch_21">
    <path clip-path="url(#p648c6bbbf8)" d="M 232.654556 84.021964 
L 235.712329 84.021964 
L 235.712329 76.422489 
L 232.654556 76.422489 
z
" style="fill:#4c72b0;opacity:0.4;"/>
   </g>
   <g id="patch_22">
    <path clip-path="url(#p648c6bbbf8)" d="M 235.712329 84.021964 
L 238.770102 84.021964 
L 238.770102 81.850685 
L 235.712329 81.850685 
z
" style="fill:#4c72b0;opacity:0.4;"/>
   </g>
   <g id="patch_23">
    <path clip-path="url(#p648c6bbbf8)" d="M 238.770102 84.021964 
L 241.827876 84.021964 
L 241.827876 81.850685 
L 238.770102 81.850685 
z
" style="fill:#4c72b0;opacity:0.4;"/>
   </g>
   <g id="patch_24">
    <path clip-path="url(#p648c6bbbf8)" d="M 241.827876 84.021964 
L 244.885649 84.021964 
L 244.885649 82.936325 
L 241.827876 82.936325 
z
" style="fill:#4c72b0;opacity:0.4;"/>
   </g>
   <g id="line2d_21">
    <path clip-path="url(#p648c6bbbf8)" d="M 168.584874 84.012919 
L 171.944344 83.897823 
L 173.960026 83.619632 
L 175.975708 83.109881 
L 180.007072 81.779215 
L 182.022754 80.91362 
L 183.366542 80.116331 
L 184.71033 79.071145 
L 186.054118 77.705982 
L 187.397906 75.91062 
L 188.741695 73.57303 
L 190.085483 70.662048 
L 192.101165 65.430146 
L 197.476317 50.515181 
L 198.820105 47.580195 
L 202.179575 40.750277 
L 204.195257 35.688988 
L 205.539045 32.336119 
L 206.882833 29.64397 
L 207.554727 28.677598 
L 208.226621 27.996272 
L 208.898515 27.599658 
L 209.570409 27.473026 
L 210.242303 27.593241 
L 210.914197 27.934236 
L 211.586091 28.470502 
L 212.929879 30.032992 
L 214.273667 32.084074 
L 216.289349 35.633803 
L 218.305031 39.493972 
L 219.648819 42.448238 
L 220.992607 45.972026 
L 222.336395 50.157426 
L 226.367759 63.658767 
L 227.711547 67.038268 
L 229.055335 69.666384 
L 230.399123 71.791554 
L 233.086699 75.439463 
L 235.774275 78.696803 
L 237.118063 80.042646 
L 238.461851 81.089073 
L 239.805639 81.8192 
L 241.149427 82.301534 
L 243.837003 82.950381 
L 247.868368 83.721191 
L 250.555944 83.956271 
L 253.915414 84.01465 
L 253.915414 84.01465 
" style="fill:none;stroke:#4c72b0;stroke-linecap:round;stroke-width:1.75;"/>
   </g>
   <g id="line2d_22">
    <path clip-path="url(#p648c6bbbf8)" d="M 187.774412 84.021964 
L 187.774412 21.89625 
" style="fill:none;stroke:#4c72b0;stroke-dasharray:6.475,2.8;stroke-dashoffset:0;stroke-width:1.75;"/>
   </g>
   <g id="line2d_23">
    <path clip-path="url(#p648c6bbbf8)" d="M 232.363893 84.021964 
L 232.363893 21.89625 
" style="fill:none;stroke:#4c72b0;stroke-dasharray:6.475,2.8;stroke-dashoffset:0;stroke-width:1.75;"/>
   </g>
   <g id="line2d_24">
    <path clip-path="url(#p648c6bbbf8)" d="M 206.277768 84.021964 
L 206.277768 21.89625 
" style="fill:none;stroke:#4c72b0;stroke-linecap:round;stroke-width:1.75;"/>
   </g>
   <g id="patch_25">
    <path d="M 25.321875 84.021964 
L 25.321875 21.89625 
" style="fill:none;"/>
   </g>
   <g id="patch_26">
    <path d="M 382.441875 84.021964 
L 382.441875 21.89625 
" style="fill:none;"/>
   </g>
   <g id="patch_27">
    <path d="M 25.321875 84.021964 
L 382.441875 84.021964 
" style="fill:none;"/>
   </g>
   <g id="patch_28">
    <path d="M 25.321875 21.89625 
L 382.441875 21.89625 
" style="fill:none;"/>
   </g>
   <g id="text_4">
    <!-- W[0] distribution -->
    <defs>
     <path d="M 73.78125 0 
L 62.640625 0 
L 50.734375 43.703125 
Q 50.203125 45.5625 49.578125 48.09375 
Q 48.96875 50.640625 48.484375 52.9375 
Q 47.90625 55.609375 47.3125 58.40625 
Q 46.6875 55.5625 46.09375 52.875 
Q 45.5625 50.53125 44.96875 48.046875 
Q 44.390625 45.5625 43.84375 43.703125 
L 31.84375 0 
L 20.703125 0 
L 0.4375 68.796875 
L 10.15625 68.796875 
L 22.515625 25.09375 
Q 23.34375 22.015625 24.09375 18.984375 
Q 24.859375 15.96875 25.390625 13.578125 
Q 26.03125 10.75 26.5625 8.203125 
Q 27.296875 11.578125 28.078125 14.84375 
Q 28.421875 16.21875 28.765625 17.71875 
Q 29.109375 19.234375 29.46875 20.703125 
Q 29.828125 22.171875 30.1875 23.515625 
Q 30.5625 24.859375 30.859375 25.984375 
L 42.828125 68.796875 
L 51.765625 68.796875 
L 63.71875 25.984375 
Q 64.015625 24.859375 64.375 23.515625 
Q 64.75 22.171875 65.109375 20.71875 
Q 65.484375 19.28125 65.8125 17.765625 
Q 66.15625 16.265625 66.5 14.890625 
Q 67.28125 11.625 68.015625 8.203125 
Q 68.0625 8.203125 68.453125 9.890625 
Q 68.84375 11.578125 69.421875 14.109375 
Q 70.015625 16.65625 70.71875 19.609375 
Q 71.4375 22.5625 72.171875 25.09375 
L 84.328125 68.796875 
L 94.046875 68.796875 
z
" id="LiberationSans-57"/>
     <path d="M 7.125 -20.75 
L 7.125 72.46875 
L 27 72.46875 
L 27 66.15625 
L 15.625 66.15625 
L 15.625 -14.453125 
L 27 -14.453125 
L 27 -20.75 
z
" id="LiberationSans-5b"/>
     <path d="M 0.78125 -20.75 
L 0.78125 -14.453125 
L 12.15625 -14.453125 
L 12.15625 66.15625 
L 0.78125 66.15625 
L 0.78125 72.46875 
L 20.65625 72.46875 
L 20.65625 -20.75 
z
" id="LiberationSans-5d"/>
     <path id="LiberationSans-20"/>
     <path d="M 40.09375 8.5 
Q 37.640625 3.421875 33.609375 1.21875 
Q 29.59375 -0.984375 23.640625 -0.984375 
Q 13.625 -0.984375 8.90625 5.75 
Q 4.203125 12.5 4.203125 26.171875 
Q 4.203125 53.8125 23.640625 53.8125 
Q 29.640625 53.8125 33.640625 51.609375 
Q 37.640625 49.421875 40.09375 44.625 
L 40.1875 44.625 
Q 40.1875 45.125 40.15625 46.171875 
Q 40.140625 47.21875 40.109375 48.359375 
Q 40.09375 49.515625 40.09375 50.53125 
Q 40.09375 51.5625 40.09375 52 
L 40.09375 72.46875 
L 48.875 72.46875 
L 48.875 10.890625 
Q 48.875 8.984375 48.890625 7.21875 
Q 48.921875 5.46875 48.96875 4 
Q 49.03125 2.546875 49.078125 1.484375 
Q 49.125 0.4375 49.171875 0 
L 40.765625 0 
Q 40.671875 0.484375 40.59375 1.390625 
Q 40.53125 2.296875 40.453125 3.46875 
Q 40.375 4.640625 40.328125 5.9375 
Q 40.28125 7.234375 40.28125 8.5 
z
M 13.421875 26.46875 
Q 13.421875 21 14.109375 17.09375 
Q 14.796875 13.1875 16.3125 10.671875 
Q 17.828125 8.15625 20.171875 6.984375 
Q 22.515625 5.8125 25.875 5.8125 
Q 29.34375 5.8125 32 6.9375 
Q 34.671875 8.0625 36.453125 10.578125 
Q 38.234375 13.09375 39.15625 17.140625 
Q 40.09375 21.1875 40.09375 27.046875 
Q 40.09375 32.671875 39.15625 36.546875 
Q 38.234375 40.4375 36.421875 42.828125 
Q 34.625 45.21875 32 46.265625 
Q 29.390625 47.3125 25.984375 47.3125 
Q 22.75 47.3125 20.40625 46.1875 
Q 18.0625 45.0625 16.5 42.578125 
Q 14.9375 40.09375 14.171875 36.109375 
Q 13.421875 32.125 13.421875 26.46875 
z
" id="LiberationSans-64"/>
     <path d="M 6.6875 64.0625 
L 6.6875 72.46875 
L 15.484375 72.46875 
L 15.484375 64.0625 
z
M 6.6875 0 
L 6.6875 52.828125 
L 15.484375 52.828125 
L 15.484375 0 
z
" id="LiberationSans-69"/>
     <path d="M 46.390625 14.59375 
Q 46.390625 10.890625 44.9375 7.984375 
Q 43.5 5.078125 40.765625 3.09375 
Q 38.03125 1.125 34.046875 0.0625 
Q 30.078125 -0.984375 24.953125 -0.984375 
Q 20.359375 -0.984375 16.671875 -0.265625 
Q 12.984375 0.4375 10.203125 2 
Q 7.421875 3.5625 5.53125 6.125 
Q 3.65625 8.6875 2.78125 12.40625 
L 10.546875 13.921875 
Q 11.671875 9.671875 15.1875 7.6875 
Q 18.703125 5.71875 24.953125 5.71875 
Q 27.78125 5.71875 30.140625 6.109375 
Q 32.515625 6.5 34.21875 7.453125 
Q 35.9375 8.40625 36.890625 9.984375 
Q 37.84375 11.578125 37.84375 13.921875 
Q 37.84375 16.3125 36.71875 17.84375 
Q 35.59375 19.390625 33.59375 20.40625 
Q 31.59375 21.4375 28.734375 22.1875 
Q 25.875 22.953125 22.46875 23.875 
Q 19.28125 24.703125 16.15625 25.734375 
Q 13.03125 26.765625 10.515625 28.4375 
Q 8.015625 30.125 6.453125 32.609375 
Q 4.890625 35.109375 4.890625 38.875 
Q 4.890625 46.09375 10.03125 49.875 
Q 15.1875 53.65625 25.046875 53.65625 
Q 33.796875 53.65625 38.9375 50.578125 
Q 44.09375 47.515625 45.453125 40.71875 
L 37.546875 39.75 
Q 37.109375 41.796875 35.9375 43.1875 
Q 34.765625 44.578125 33.109375 45.4375 
Q 31.453125 46.296875 29.375 46.65625 
Q 27.296875 47.015625 25.046875 47.015625 
Q 19.09375 47.015625 16.25 45.203125 
Q 13.421875 43.40625 13.421875 39.75 
Q 13.421875 37.59375 14.46875 36.203125 
Q 15.53125 34.8125 17.40625 33.859375 
Q 19.28125 32.90625 21.921875 32.203125 
Q 24.5625 31.5 27.734375 30.71875 
Q 29.828125 30.171875 32.03125 29.5625 
Q 34.234375 28.953125 36.296875 28.09375 
Q 38.375 27.25 40.203125 26.09375 
Q 42.046875 24.953125 43.40625 23.34375 
Q 44.78125 21.734375 45.578125 19.578125 
Q 46.390625 17.4375 46.390625 14.59375 
z
" id="LiberationSans-73"/>
     <path d="M 27.046875 0.390625 
Q 25.046875 -0.140625 22.96875 -0.453125 
Q 20.90625 -0.78125 18.171875 -0.78125 
Q 7.625 -0.78125 7.625 11.1875 
L 7.625 46.4375 
L 1.515625 46.4375 
L 1.515625 52.828125 
L 7.953125 52.828125 
L 10.546875 64.65625 
L 16.40625 64.65625 
L 16.40625 52.828125 
L 26.171875 52.828125 
L 26.171875 46.4375 
L 16.40625 46.4375 
L 16.40625 13.09375 
Q 16.40625 9.28125 17.640625 7.734375 
Q 18.890625 6.203125 21.96875 6.203125 
Q 23.25 6.203125 24.4375 6.390625 
Q 25.640625 6.59375 27.046875 6.890625 
z
" id="LiberationSans-74"/>
     <path d="M 6.9375 0 
L 6.9375 40.53125 
Q 6.9375 42.1875 6.90625 43.921875 
Q 6.890625 45.65625 6.828125 47.265625 
Q 6.78125 48.875 6.734375 50.28125 
Q 6.6875 51.703125 6.640625 52.828125 
L 14.9375 52.828125 
Q 14.984375 51.703125 15.0625 50.265625 
Q 15.140625 48.828125 15.203125 47.3125 
Q 15.28125 45.796875 15.296875 44.40625 
Q 15.328125 43.015625 15.328125 42.046875 
L 15.53125 42.046875 
Q 16.453125 45.0625 17.5 47.28125 
Q 18.5625 49.515625 19.96875 50.953125 
Q 21.390625 52.390625 23.34375 53.09375 
Q 25.296875 53.8125 28.078125 53.8125 
Q 29.15625 53.8125 30.125 53.640625 
Q 31.109375 53.46875 31.640625 53.328125 
L 31.640625 45.265625 
Q 30.765625 45.515625 29.59375 45.625 
Q 28.421875 45.75 26.953125 45.75 
Q 23.921875 45.75 21.796875 44.375 
Q 19.671875 43.015625 18.328125 40.59375 
Q 17 38.1875 16.359375 34.84375 
Q 15.71875 31.5 15.71875 27.546875 
L 15.71875 0 
z
" id="LiberationSans-72"/>
     <path d="M 51.421875 26.65625 
Q 51.421875 -0.984375 31.984375 -0.984375 
Q 25.984375 -0.984375 22 1.1875 
Q 18.015625 3.375 15.53125 8.203125 
L 15.4375 8.203125 
Q 15.4375 6.9375 15.359375 5.5625 
Q 15.28125 4.203125 15.203125 3.03125 
Q 15.140625 1.859375 15.0625 1.03125 
Q 14.984375 0.203125 14.9375 0 
L 6.453125 0 
Q 6.5 0.4375 6.546875 1.484375 
Q 6.59375 2.546875 6.640625 4 
Q 6.6875 5.46875 6.703125 7.21875 
Q 6.734375 8.984375 6.734375 10.890625 
L 6.734375 72.46875 
L 15.53125 72.46875 
L 15.53125 51.8125 
Q 15.53125 50.34375 15.5 49 
Q 15.484375 47.65625 15.4375 46.625 
Q 15.375 45.40625 15.328125 44.34375 
L 15.53125 44.34375 
Q 17.96875 49.421875 22 51.609375 
Q 26.03125 53.8125 31.984375 53.8125 
Q 42 53.8125 46.703125 47.0625 
Q 51.421875 40.328125 51.421875 26.65625 
z
M 42.1875 26.375 
Q 42.1875 31.84375 41.5 35.75 
Q 40.828125 39.65625 39.3125 42.15625 
Q 37.796875 44.671875 35.453125 45.84375 
Q 33.109375 47.015625 29.734375 47.015625 
Q 26.265625 47.015625 23.609375 45.890625 
Q 20.953125 44.78125 19.171875 42.28125 
Q 17.390625 39.796875 16.453125 35.734375 
Q 15.53125 31.6875 15.53125 25.828125 
Q 15.53125 20.171875 16.453125 16.3125 
Q 17.390625 12.453125 19.171875 10.03125 
Q 20.953125 7.625 23.578125 6.5625 
Q 26.21875 5.515625 29.640625 5.515625 
Q 32.859375 5.515625 35.203125 6.640625 
Q 37.546875 7.765625 39.109375 10.25 
Q 40.671875 12.75 41.421875 16.71875 
Q 42.1875 20.703125 42.1875 26.375 
z
" id="LiberationSans-62"/>
     <path d="M 15.328125 52.828125 
L 15.328125 19.34375 
Q 15.328125 15.484375 15.890625 12.890625 
Q 16.453125 10.296875 17.71875 8.703125 
Q 19 7.125 21.0625 6.46875 
Q 23.140625 5.8125 26.21875 5.8125 
Q 29.34375 5.8125 31.859375 6.90625 
Q 34.375 8.015625 36.15625 10.078125 
Q 37.9375 12.15625 38.90625 15.203125 
Q 39.890625 18.265625 39.890625 22.21875 
L 39.890625 52.828125 
L 48.6875 52.828125 
L 48.6875 11.28125 
Q 48.6875 9.625 48.703125 7.78125 
Q 48.734375 5.953125 48.78125 4.3125 
Q 48.828125 2.6875 48.875 1.515625 
Q 48.921875 0.34375 48.96875 0 
L 40.671875 0 
Q 40.625 0.25 40.578125 1.3125 
Q 40.53125 2.390625 40.453125 3.78125 
Q 40.375 5.171875 40.328125 6.609375 
Q 40.28125 8.0625 40.28125 9.03125 
L 40.140625 9.03125 
Q 38.875 6.734375 37.359375 4.875 
Q 35.84375 3.03125 33.84375 1.734375 
Q 31.84375 0.4375 29.25 -0.265625 
Q 26.65625 -0.984375 23.25 -0.984375 
Q 18.84375 -0.984375 15.671875 0.09375 
Q 12.5 1.171875 10.453125 3.421875 
Q 8.40625 5.671875 7.453125 9.1875 
Q 6.5 12.703125 6.5 17.625 
L 6.5 52.828125 
z
" id="LiberationSans-75"/>
     <path d="M 51.421875 26.46875 
Q 51.421875 12.59375 45.3125 5.796875 
Q 39.203125 -0.984375 27.59375 -0.984375 
Q 22.078125 -0.984375 17.71875 0.671875 
Q 13.375 2.34375 10.375 5.765625 
Q 7.375 9.1875 5.78125 14.328125 
Q 4.203125 19.484375 4.203125 26.46875 
Q 4.203125 53.8125 27.875 53.8125 
Q 34.03125 53.8125 38.5 52.09375 
Q 42.96875 50.390625 45.828125 46.96875 
Q 48.6875 43.5625 50.046875 38.421875 
Q 51.421875 33.296875 51.421875 26.46875 
z
M 42.1875 26.46875 
Q 42.1875 32.625 41.234375 36.625 
Q 40.28125 40.625 38.453125 43.015625 
Q 36.625 45.40625 33.984375 46.359375 
Q 31.34375 47.3125 28.03125 47.3125 
Q 24.65625 47.3125 21.9375 46.3125 
Q 19.234375 45.3125 17.328125 42.890625 
Q 15.4375 40.484375 14.421875 36.46875 
Q 13.421875 32.46875 13.421875 26.46875 
Q 13.421875 20.3125 14.5 16.28125 
Q 15.578125 12.25 17.453125 9.859375 
Q 19.34375 7.46875 21.90625 6.484375 
Q 24.46875 5.515625 27.484375 5.515625 
Q 30.859375 5.515625 33.59375 6.46875 
Q 36.328125 7.421875 38.234375 9.8125 
Q 40.140625 12.203125 41.15625 16.25 
Q 42.1875 20.3125 42.1875 26.46875 
z
" id="LiberationSans-6f"/>
     <path d="M 40.28125 0 
L 40.28125 33.5 
Q 40.28125 37.359375 39.71875 39.9375 
Q 39.15625 42.53125 37.890625 44.109375 
Q 36.625 45.703125 34.546875 46.359375 
Q 32.46875 47.015625 29.390625 47.015625 
Q 26.265625 47.015625 23.75 45.921875 
Q 21.234375 44.828125 19.453125 42.75 
Q 17.671875 40.671875 16.6875 37.625 
Q 15.71875 34.578125 15.71875 30.609375 
L 15.71875 0 
L 6.9375 0 
L 6.9375 41.546875 
Q 6.9375 43.21875 6.90625 45.046875 
Q 6.890625 46.875 6.828125 48.5 
Q 6.78125 50.140625 6.734375 51.3125 
Q 6.6875 52.484375 6.640625 52.828125 
L 14.9375 52.828125 
Q 14.984375 52.59375 15.03125 51.515625 
Q 15.09375 50.4375 15.15625 49.046875 
Q 15.234375 47.65625 15.28125 46.21875 
Q 15.328125 44.78125 15.328125 43.796875 
L 15.484375 43.796875 
Q 16.75 46.09375 18.265625 47.953125 
Q 19.78125 49.8125 21.78125 51.09375 
Q 23.78125 52.390625 26.359375 53.09375 
Q 28.953125 53.8125 32.375 53.8125 
Q 36.765625 53.8125 39.9375 52.734375 
Q 43.109375 51.65625 45.15625 49.40625 
Q 47.21875 47.171875 48.171875 43.625 
Q 49.125 40.09375 49.125 35.203125 
L 49.125 0 
z
" id="LiberationSans-6e"/>
    </defs>
    <g style="fill:#262626;" transform="translate(160.8675 15.89625)scale(0.12 -0.12)">
     <use xlink:href="#LiberationSans-57"/>
     <use x="94.384766" xlink:href="#LiberationSans-5b"/>
     <use x="122.167969" xlink:href="#LiberationSans-30"/>
     <use x="177.783203" xlink:href="#LiberationSans-5d"/>
     <use x="205.566406" xlink:href="#LiberationSans-20"/>
     <use x="233.349609" xlink:href="#LiberationSans-64"/>
     <use x="288.964844" xlink:href="#LiberationSans-69"/>
     <use x="311.181641" xlink:href="#LiberationSans-73"/>
     <use x="361.181641" xlink:href="#LiberationSans-74"/>
     <use x="388.964844" xlink:href="#LiberationSans-72"/>
     <use x="422.265625" xlink:href="#LiberationSans-69"/>
     <use x="444.482422" xlink:href="#LiberationSans-62"/>
     <use x="500.097656" xlink:href="#LiberationSans-75"/>
     <use x="555.712891" xlink:href="#LiberationSans-74"/>
     <use x="583.496094" xlink:href="#LiberationSans-69"/>
     <use x="605.712891" xlink:href="#LiberationSans-6f"/>
     <use x="661.328125" xlink:href="#LiberationSans-6e"/>
    </g>
   </g>
  </g>
  <g id="axes_2">
   <g id="patch_29">
    <path d="M 25.321875 158.572821 
L 382.441875 158.572821 
L 382.441875 96.447107 
L 25.321875 96.447107 
z
" style="fill:#eaeaf2;"/>
   </g>
   <g id="matplotlib.axis_3">
    <g id="xtick_8">
     <g id="line2d_25">
      <path clip-path="url(#pfea1d4e455)" d="M 59.141283 158.572821 
L 59.141283 96.447107 
" style="fill:none;stroke:#ffffff;stroke-linecap:round;"/>
     </g>
     <g id="line2d_26"/>
    </g>
    <g id="xtick_9">
     <g id="line2d_27">
      <path clip-path="url(#pfea1d4e455)" d="M 112.285271 158.572821 
L 112.285271 96.447107 
" style="fill:none;stroke:#ffffff;stroke-linecap:round;"/>
     </g>
     <g id="line2d_28"/>
    </g>
    <g id="xtick_10">
     <g id="line2d_29">
      <path clip-path="url(#pfea1d4e455)" d="M 165.42926 158.572821 
L 165.42926 96.447107 
" style="fill:none;stroke:#ffffff;stroke-linecap:round;"/>
     </g>
     <g id="line2d_30"/>
    </g>
    <g id="xtick_11">
     <g id="line2d_31">
      <path clip-path="url(#pfea1d4e455)" d="M 218.573248 158.572821 
L 218.573248 96.447107 
" style="fill:none;stroke:#ffffff;stroke-linecap:round;"/>
     </g>
     <g id="line2d_32"/>
    </g>
    <g id="xtick_12">
     <g id="line2d_33">
      <path clip-path="url(#pfea1d4e455)" d="M 271.717236 158.572821 
L 271.717236 96.447107 
" style="fill:none;stroke:#ffffff;stroke-linecap:round;"/>
     </g>
     <g id="line2d_34"/>
    </g>
    <g id="xtick_13">
     <g id="line2d_35">
      <path clip-path="url(#pfea1d4e455)" d="M 324.861225 158.572821 
L 324.861225 96.447107 
" style="fill:none;stroke:#ffffff;stroke-linecap:round;"/>
     </g>
     <g id="line2d_36"/>
    </g>
    <g id="xtick_14">
     <g id="line2d_37">
      <path clip-path="url(#pfea1d4e455)" d="M 378.005213 158.572821 
L 378.005213 96.447107 
" style="fill:none;stroke:#ffffff;stroke-linecap:round;"/>
     </g>
     <g id="line2d_38"/>
    </g>
   </g>
   <g id="matplotlib.axis_4">
    <g id="ytick_4">
     <g id="line2d_39">
      <path clip-path="url(#pfea1d4e455)" d="M 25.321875 158.572821 
L 382.441875 158.572821 
" style="fill:none;stroke:#ffffff;stroke-linecap:round;"/>
     </g>
     <g id="line2d_40"/>
     <g id="text_5">
      <!-- 0 -->
      <g style="fill:#262626;" transform="translate(12.760938 162.196259)scale(0.1 -0.1)">
       <use xlink:href="#LiberationSans-30"/>
      </g>
     </g>
    </g>
    <g id="ytick_5">
     <g id="line2d_41">
      <path clip-path="url(#pfea1d4e455)" d="M 25.321875 132.312733 
L 382.441875 132.312733 
" style="fill:none;stroke:#ffffff;stroke-linecap:round;"/>
     </g>
     <g id="line2d_42"/>
     <g id="text_6">
      <!-- 2 -->
      <g style="fill:#262626;" transform="translate(12.760938 135.936171)scale(0.1 -0.1)">
       <use xlink:href="#LiberationSans-32"/>
      </g>
     </g>
    </g>
    <g id="ytick_6">
     <g id="line2d_43">
      <path clip-path="url(#pfea1d4e455)" d="M 25.321875 106.052645 
L 382.441875 106.052645 
" style="fill:none;stroke:#ffffff;stroke-linecap:round;"/>
     </g>
     <g id="line2d_44"/>
     <g id="text_7">
      <!-- 4 -->
      <g style="fill:#262626;" transform="translate(12.760938 109.676082)scale(0.1 -0.1)">
       <use xlink:href="#LiberationSans-34"/>
      </g>
     </g>
    </g>
   </g>
   <g id="patch_30">
    <path clip-path="url(#pfea1d4e455)" d="M 300.503542 158.572821 
L 303.027325 158.572821 
L 303.027325 157.46689 
L 300.503542 157.46689 
z
" style="fill:#4c72b0;opacity:0.4;"/>
   </g>
   <g id="patch_31">
    <path clip-path="url(#pfea1d4e455)" d="M 303.027325 158.572821 
L 305.551108 158.572821 
L 305.551108 155.807992 
L 303.027325 155.807992 
z
" style="fill:#4c72b0;opacity:0.4;"/>
   </g>
   <g id="patch_32">
    <path clip-path="url(#pfea1d4e455)" d="M 305.551108 158.572821 
L 308.074891 158.572821 
L 308.074891 152.490197 
L 305.551108 152.490197 
z
" style="fill:#4c72b0;opacity:0.4;"/>
   </g>
   <g id="patch_33">
    <path clip-path="url(#pfea1d4e455)" d="M 308.074891 158.572821 
L 310.598674 158.572821 
L 310.598674 151.384265 
L 308.074891 151.384265 
z
" style="fill:#4c72b0;opacity:0.4;"/>
   </g>
   <g id="patch_34">
    <path clip-path="url(#pfea1d4e455)" d="M 310.598674 158.572821 
L 313.122457 158.572821 
L 313.122457 141.43088 
L 310.598674 141.43088 
z
" style="fill:#4c72b0;opacity:0.4;"/>
   </g>
   <g id="patch_35">
    <path clip-path="url(#pfea1d4e455)" d="M 313.122457 158.572821 
L 315.64624 158.572821 
L 315.64624 137.560119 
L 313.122457 137.560119 
z
" style="fill:#4c72b0;opacity:0.4;"/>
   </g>
   <g id="patch_36">
    <path clip-path="url(#pfea1d4e455)" d="M 315.64624 158.572821 
L 318.170023 158.572821 
L 318.170023 128.159699 
L 315.64624 128.159699 
z
" style="fill:#4c72b0;opacity:0.4;"/>
   </g>
   <g id="patch_37">
    <path clip-path="url(#pfea1d4e455)" d="M 318.170023 158.572821 
L 320.693806 158.572821 
L 320.693806 119.312245 
L 318.170023 119.312245 
z
" style="fill:#4c72b0;opacity:0.4;"/>
   </g>
   <g id="patch_38">
    <path clip-path="url(#pfea1d4e455)" d="M 320.693806 158.572821 
L 323.217589 158.572821 
L 323.217589 113.782587 
L 320.693806 113.782587 
z
" style="fill:#4c72b0;opacity:0.4;"/>
   </g>
   <g id="patch_39">
    <path clip-path="url(#pfea1d4e455)" d="M 323.217589 158.572821 
L 325.741372 158.572821 
L 325.741372 104.382167 
L 323.217589 104.382167 
z
" style="fill:#4c72b0;opacity:0.4;"/>
   </g>
   <g id="patch_40">
    <path clip-path="url(#pfea1d4e455)" d="M 325.741372 158.572821 
L 328.265155 158.572821 
L 328.265155 99.405474 
L 325.741372 99.405474 
z
" style="fill:#4c72b0;opacity:0.4;"/>
   </g>
   <g id="patch_41">
    <path clip-path="url(#pfea1d4e455)" d="M 328.265155 158.572821 
L 330.788938 158.572821 
L 330.788938 101.064372 
L 328.265155 101.064372 
z
" style="fill:#4c72b0;opacity:0.4;"/>
   </g>
   <g id="patch_42">
    <path clip-path="url(#pfea1d4e455)" d="M 330.788938 158.572821 
L 333.312721 158.572821 
L 333.312721 109.911826 
L 330.788938 109.911826 
z
" style="fill:#4c72b0;opacity:0.4;"/>
   </g>
   <g id="patch_43">
    <path clip-path="url(#pfea1d4e455)" d="M 333.312721 158.572821 
L 335.836504 158.572821 
L 335.836504 112.676655 
L 333.312721 112.676655 
z
" style="fill:#4c72b0;opacity:0.4;"/>
   </g>
   <g id="patch_44">
    <path clip-path="url(#pfea1d4e455)" d="M 335.836504 158.572821 
L 338.360287 158.572821 
L 338.360287 121.524109 
L 335.836504 121.524109 
z
" style="fill:#4c72b0;opacity:0.4;"/>
   </g>
   <g id="patch_45">
    <path clip-path="url(#pfea1d4e455)" d="M 338.360287 158.572821 
L 340.88407 158.572821 
L 340.88407 129.818597 
L 338.360287 129.818597 
z
" style="fill:#4c72b0;opacity:0.4;"/>
   </g>
   <g id="patch_46">
    <path clip-path="url(#pfea1d4e455)" d="M 340.88407 158.572821 
L 343.407853 158.572821 
L 343.407853 142.536812 
L 340.88407 142.536812 
z
" style="fill:#4c72b0;opacity:0.4;"/>
   </g>
   <g id="patch_47">
    <path clip-path="url(#pfea1d4e455)" d="M 343.407853 158.572821 
L 345.931636 158.572821 
L 345.931636 138.66605 
L 343.407853 138.66605 
z
" style="fill:#4c72b0;opacity:0.4;"/>
   </g>
   <g id="patch_48">
    <path clip-path="url(#pfea1d4e455)" d="M 345.931636 158.572821 
L 348.455419 158.572821 
L 348.455419 152.490197 
L 345.931636 152.490197 
z
" style="fill:#4c72b0;opacity:0.4;"/>
   </g>
   <g id="patch_49">
    <path clip-path="url(#pfea1d4e455)" d="M 348.455419 158.572821 
L 350.979202 158.572821 
L 350.979202 152.490197 
L 348.455419 152.490197 
z
" style="fill:#4c72b0;opacity:0.4;"/>
   </g>
   <g id="patch_50">
    <path clip-path="url(#pfea1d4e455)" d="M 350.979202 158.572821 
L 353.502985 158.572821 
L 353.502985 156.913924 
L 350.979202 156.913924 
z
" style="fill:#4c72b0;opacity:0.4;"/>
   </g>
   <g id="patch_51">
    <path clip-path="url(#pfea1d4e455)" d="M 353.502985 158.572821 
L 356.026768 158.572821 
L 356.026768 157.46689 
L 353.502985 157.46689 
z
" style="fill:#4c72b0;opacity:0.4;"/>
   </g>
   <g id="patch_52">
    <path clip-path="url(#pfea1d4e455)" d="M 356.026768 158.572821 
L 358.550551 158.572821 
L 358.550551 157.46689 
L 356.026768 157.46689 
z
" style="fill:#4c72b0;opacity:0.4;"/>
   </g>
   <g id="line2d_45">
    <path clip-path="url(#pfea1d4e455)" d="M 292.844945 158.568594 
L 296.888642 158.44988 
L 298.621654 158.22555 
L 300.354667 157.80427 
L 302.08768 157.117735 
L 303.243021 156.449821 
L 304.398363 155.54908 
L 305.553705 154.370992 
L 306.709047 152.902445 
L 307.864388 151.14823 
L 309.01973 149.102308 
L 310.752743 145.457129 
L 312.485756 141.161623 
L 314.796439 134.649186 
L 324.616844 105.606332 
L 325.772186 103.160914 
L 326.349857 102.263906 
L 326.927528 101.658703 
L 327.505199 101.395212 
L 328.082869 101.502697 
L 328.66054 101.978865 
L 329.238211 102.785824 
L 330.393553 105.100253 
L 335.592591 117.338531 
L 337.325604 122.692124 
L 340.791629 134.118588 
L 341.946971 137.373311 
L 343.102312 140.150954 
L 345.990667 146.114526 
L 348.30135 150.790596 
L 349.456692 152.695017 
L 350.612034 154.183242 
L 351.767376 155.316535 
L 352.922717 156.173264 
L 354.078059 156.807253 
L 355.811072 157.444123 
L 358.121755 157.96479 
L 361.01011 158.375079 
L 363.898464 158.544499 
L 366.209148 158.568687 
L 366.209148 158.568687 
" style="fill:none;stroke:#4c72b0;stroke-linecap:round;stroke-width:1.75;"/>
   </g>
   <g id="line2d_46">
    <path clip-path="url(#pfea1d4e455)" d="M 309.69405 158.572821 
L 309.69405 96.447107 
" style="fill:none;stroke:#4c72b0;stroke-dasharray:6.475,2.8;stroke-dashoffset:0;stroke-width:1.75;"/>
   </g>
   <g id="line2d_47">
    <path clip-path="url(#pfea1d4e455)" d="M 346.804463 158.572821 
L 346.804463 96.447107 
" style="fill:none;stroke:#4c72b0;stroke-dasharray:6.475,2.8;stroke-dashoffset:0;stroke-width:1.75;"/>
   </g>
   <g id="line2d_48">
    <path clip-path="url(#pfea1d4e455)" d="M 324.494933 158.572821 
L 324.494933 96.447107 
" style="fill:none;stroke:#4c72b0;stroke-linecap:round;stroke-width:1.75;"/>
   </g>
   <g id="patch_53">
    <path d="M 25.321875 158.572821 
L 25.321875 96.447107 
" style="fill:none;"/>
   </g>
   <g id="patch_54">
    <path d="M 382.441875 158.572821 
L 382.441875 96.447107 
" style="fill:none;"/>
   </g>
   <g id="patch_55">
    <path d="M 25.321875 158.572821 
L 382.441875 158.572821 
" style="fill:none;"/>
   </g>
   <g id="patch_56">
    <path d="M 25.321875 96.447107 
L 382.441875 96.447107 
" style="fill:none;"/>
   </g>
   <g id="text_8">
    <!-- W[1] distribution -->
    <defs>
     <path d="M 7.625 0 
L 7.625 7.46875 
L 25.140625 7.46875 
L 25.140625 60.40625 
L 9.625 49.3125 
L 9.625 57.625 
L 25.875 68.796875 
L 33.984375 68.796875 
L 33.984375 7.46875 
L 50.734375 7.46875 
L 50.734375 0 
z
" id="LiberationSans-31"/>
    </defs>
    <g style="fill:#262626;" transform="translate(160.8675 90.447107)scale(0.12 -0.12)">
     <use xlink:href="#LiberationSans-57"/>
     <use x="94.384766" xlink:href="#LiberationSans-5b"/>
     <use x="122.167969" xlink:href="#LiberationSans-31"/>
     <use x="177.783203" xlink:href="#LiberationSans-5d"/>
     <use x="205.566406" xlink:href="#LiberationSans-20"/>
     <use x="233.349609" xlink:href="#LiberationSans-64"/>
     <use x="288.964844" xlink:href="#LiberationSans-69"/>
     <use x="311.181641" xlink:href="#LiberationSans-73"/>
     <use x="361.181641" xlink:href="#LiberationSans-74"/>
     <use x="388.964844" xlink:href="#LiberationSans-72"/>
     <use x="422.265625" xlink:href="#LiberationSans-69"/>
     <use x="444.482422" xlink:href="#LiberationSans-62"/>
     <use x="500.097656" xlink:href="#LiberationSans-75"/>
     <use x="555.712891" xlink:href="#LiberationSans-74"/>
     <use x="583.496094" xlink:href="#LiberationSans-69"/>
     <use x="605.712891" xlink:href="#LiberationSans-6f"/>
     <use x="661.328125" xlink:href="#LiberationSans-6e"/>
    </g>
   </g>
  </g>
  <g id="axes_3">
   <g id="patch_57">
    <path d="M 25.321875 233.123679 
L 382.441875 233.123679 
L 382.441875 170.997964 
L 25.321875 170.997964 
z
" style="fill:#eaeaf2;"/>
   </g>
   <g id="matplotlib.axis_5">
    <g id="xtick_15">
     <g id="line2d_49">
      <path clip-path="url(#pf80012e85f)" d="M 59.141283 233.123679 
L 59.141283 170.997964 
" style="fill:none;stroke:#ffffff;stroke-linecap:round;"/>
     </g>
     <g id="line2d_50"/>
    </g>
    <g id="xtick_16">
     <g id="line2d_51">
      <path clip-path="url(#pf80012e85f)" d="M 112.285271 233.123679 
L 112.285271 170.997964 
" style="fill:none;stroke:#ffffff;stroke-linecap:round;"/>
     </g>
     <g id="line2d_52"/>
    </g>
    <g id="xtick_17">
     <g id="line2d_53">
      <path clip-path="url(#pf80012e85f)" d="M 165.42926 233.123679 
L 165.42926 170.997964 
" style="fill:none;stroke:#ffffff;stroke-linecap:round;"/>
     </g>
     <g id="line2d_54"/>
    </g>
    <g id="xtick_18">
     <g id="line2d_55">
      <path clip-path="url(#pf80012e85f)" d="M 218.573248 233.123679 
L 218.573248 170.997964 
" style="fill:none;stroke:#ffffff;stroke-linecap:round;"/>
     </g>
     <g id="line2d_56"/>
    </g>
    <g id="xtick_19">
     <g id="line2d_57">
      <path clip-path="url(#pf80012e85f)" d="M 271.717236 233.123679 
L 271.717236 170.997964 
" style="fill:none;stroke:#ffffff;stroke-linecap:round;"/>
     </g>
     <g id="line2d_58"/>
    </g>
    <g id="xtick_20">
     <g id="line2d_59">
      <path clip-path="url(#pf80012e85f)" d="M 324.861225 233.123679 
L 324.861225 170.997964 
" style="fill:none;stroke:#ffffff;stroke-linecap:round;"/>
     </g>
     <g id="line2d_60"/>
    </g>
    <g id="xtick_21">
     <g id="line2d_61">
      <path clip-path="url(#pf80012e85f)" d="M 378.005213 233.123679 
L 378.005213 170.997964 
" style="fill:none;stroke:#ffffff;stroke-linecap:round;"/>
     </g>
     <g id="line2d_62"/>
    </g>
   </g>
   <g id="matplotlib.axis_6">
    <g id="ytick_7">
     <g id="line2d_63">
      <path clip-path="url(#pf80012e85f)" d="M 25.321875 233.123679 
L 382.441875 233.123679 
" style="fill:none;stroke:#ffffff;stroke-linecap:round;"/>
     </g>
     <g id="line2d_64"/>
     <g id="text_9">
      <!-- 0 -->
      <g style="fill:#262626;" transform="translate(12.760938 236.747116)scale(0.1 -0.1)">
       <use xlink:href="#LiberationSans-30"/>
      </g>
     </g>
    </g>
    <g id="ytick_8">
     <g id="line2d_65">
      <path clip-path="url(#pf80012e85f)" d="M 25.321875 201.109466 
L 382.441875 201.109466 
" style="fill:none;stroke:#ffffff;stroke-linecap:round;"/>
     </g>
     <g id="line2d_66"/>
     <g id="text_10">
      <!-- 2 -->
      <g style="fill:#262626;" transform="translate(12.760938 204.732904)scale(0.1 -0.1)">
       <use xlink:href="#LiberationSans-32"/>
      </g>
     </g>
    </g>
   </g>
   <g id="patch_58">
    <path clip-path="url(#pf80012e85f)" d="M 89.40511 233.123679 
L 92.539416 233.123679 
L 92.539416 231.495219 
L 89.40511 231.495219 
z
" style="fill:#4c72b0;opacity:0.4;"/>
   </g>
   <g id="patch_59">
    <path clip-path="url(#pf80012e85f)" d="M 92.539416 233.123679 
L 95.673722 233.123679 
L 95.673722 230.9524 
L 92.539416 230.9524 
z
" style="fill:#4c72b0;opacity:0.4;"/>
   </g>
   <g id="patch_60">
    <path clip-path="url(#pf80012e85f)" d="M 95.673722 233.123679 
L 98.808028 233.123679 
L 98.808028 229.86676 
L 95.673722 229.86676 
z
" style="fill:#4c72b0;opacity:0.4;"/>
   </g>
   <g id="patch_61">
    <path clip-path="url(#pf80012e85f)" d="M 98.808028 233.123679 
L 101.942333 233.123679 
L 101.942333 223.895744 
L 98.808028 223.895744 
z
" style="fill:#4c72b0;opacity:0.4;"/>
   </g>
   <g id="patch_62">
    <path clip-path="url(#pf80012e85f)" d="M 101.942333 233.123679 
L 105.076639 233.123679 
L 105.076639 222.810104 
L 101.942333 222.810104 
z
" style="fill:#4c72b0;opacity:0.4;"/>
   </g>
   <g id="patch_63">
    <path clip-path="url(#pf80012e85f)" d="M 105.076639 233.123679 
L 108.210945 233.123679 
L 108.210945 218.467547 
L 105.076639 218.467547 
z
" style="fill:#4c72b0;opacity:0.4;"/>
   </g>
   <g id="patch_64">
    <path clip-path="url(#pf80012e85f)" d="M 108.210945 233.123679 
L 111.345251 233.123679 
L 111.345251 210.325251 
L 108.210945 210.325251 
z
" style="fill:#4c72b0;opacity:0.4;"/>
   </g>
   <g id="patch_65">
    <path clip-path="url(#pf80012e85f)" d="M 111.345251 233.123679 
L 114.479557 233.123679 
L 114.479557 202.725776 
L 111.345251 202.725776 
z
" style="fill:#4c72b0;opacity:0.4;"/>
   </g>
   <g id="patch_66">
    <path clip-path="url(#pf80012e85f)" d="M 114.479557 233.123679 
L 117.613862 233.123679 
L 117.613862 200.554497 
L 114.479557 200.554497 
z
" style="fill:#4c72b0;opacity:0.4;"/>
   </g>
   <g id="patch_67">
    <path clip-path="url(#pf80012e85f)" d="M 117.613862 233.123679 
L 120.748168 233.123679 
L 120.748168 191.869382 
L 117.613862 191.869382 
z
" style="fill:#4c72b0;opacity:0.4;"/>
   </g>
   <g id="patch_68">
    <path clip-path="url(#pf80012e85f)" d="M 120.748168 233.123679 
L 123.882474 233.123679 
L 123.882474 184.812726 
L 120.748168 184.812726 
z
" style="fill:#4c72b0;opacity:0.4;"/>
   </g>
   <g id="patch_69">
    <path clip-path="url(#pf80012e85f)" d="M 123.882474 233.123679 
L 127.01678 233.123679 
L 127.01678 173.956332 
L 123.882474 173.956332 
z
" style="fill:#4c72b0;opacity:0.4;"/>
   </g>
   <g id="patch_70">
    <path clip-path="url(#pf80012e85f)" d="M 127.01678 233.123679 
L 130.151086 233.123679 
L 130.151086 177.21325 
L 127.01678 177.21325 
z
" style="fill:#4c72b0;opacity:0.4;"/>
   </g>
   <g id="patch_71">
    <path clip-path="url(#pf80012e85f)" d="M 130.151086 233.123679 
L 133.285391 233.123679 
L 133.285391 178.841709 
L 130.151086 178.841709 
z
" style="fill:#4c72b0;opacity:0.4;"/>
   </g>
   <g id="patch_72">
    <path clip-path="url(#pf80012e85f)" d="M 133.285391 233.123679 
L 136.419697 233.123679 
L 136.419697 188.612463 
L 133.285391 188.612463 
z
" style="fill:#4c72b0;opacity:0.4;"/>
   </g>
   <g id="patch_73">
    <path clip-path="url(#pf80012e85f)" d="M 136.419697 233.123679 
L 139.554003 233.123679 
L 139.554003 193.497841 
L 136.419697 193.497841 
z
" style="fill:#4c72b0;opacity:0.4;"/>
   </g>
   <g id="patch_74">
    <path clip-path="url(#pf80012e85f)" d="M 139.554003 233.123679 
L 142.688309 233.123679 
L 142.688309 208.696792 
L 139.554003 208.696792 
z
" style="fill:#4c72b0;opacity:0.4;"/>
   </g>
   <g id="patch_75">
    <path clip-path="url(#pf80012e85f)" d="M 142.688309 233.123679 
L 145.822614 233.123679 
L 145.822614 213.03935 
L 142.688309 213.03935 
z
" style="fill:#4c72b0;opacity:0.4;"/>
   </g>
   <g id="patch_76">
    <path clip-path="url(#pf80012e85f)" d="M 145.822614 233.123679 
L 148.95692 233.123679 
L 148.95692 220.096006 
L 145.822614 220.096006 
z
" style="fill:#4c72b0;opacity:0.4;"/>
   </g>
   <g id="patch_77">
    <path clip-path="url(#pf80012e85f)" d="M 148.95692 233.123679 
L 152.091226 233.123679 
L 152.091226 224.981383 
L 148.95692 224.981383 
z
" style="fill:#4c72b0;opacity:0.4;"/>
   </g>
   <g id="patch_78">
    <path clip-path="url(#pf80012e85f)" d="M 152.091226 233.123679 
L 155.225532 233.123679 
L 155.225532 229.323941 
L 152.091226 229.323941 
z
" style="fill:#4c72b0;opacity:0.4;"/>
   </g>
   <g id="patch_79">
    <path clip-path="url(#pf80012e85f)" d="M 155.225532 233.123679 
L 158.359838 233.123679 
L 158.359838 232.038039 
L 155.225532 232.038039 
z
" style="fill:#4c72b0;opacity:0.4;"/>
   </g>
   <g id="patch_80">
    <path clip-path="url(#pf80012e85f)" d="M 158.359838 233.123679 
L 161.494143 233.123679 
L 161.494143 230.9524 
L 158.359838 230.9524 
z
" style="fill:#4c72b0;opacity:0.4;"/>
   </g>
   <g id="line2d_67">
    <path clip-path="url(#pf80012e85f)" d="M 79.716913 233.116365 
L 84.038114 232.995181 
L 86.918915 232.675187 
L 90.519916 232.022957 
L 91.960316 231.623552 
L 93.400717 231.01397 
L 94.841117 230.103232 
L 96.281518 228.881661 
L 104.20372 221.193576 
L 105.644121 219.192949 
L 107.084521 216.665755 
L 109.245122 212.149653 
L 112.846123 204.473804 
L 117.167324 195.658837 
L 120.768325 188.035811 
L 122.928926 183.936292 
L 124.369327 181.540938 
L 125.809727 179.602655 
L 126.529927 178.881872 
L 127.250127 178.369762 
L 127.970328 178.094472 
L 128.690528 178.077161 
L 129.410728 178.329148 
L 130.130928 178.849635 
L 130.851129 179.624838 
L 131.571329 180.629405 
L 133.011729 183.19381 
L 134.45213 186.301297 
L 135.89253 189.846787 
L 137.332931 193.843506 
L 143.094532 210.862766 
L 144.534933 214.158198 
L 146.695533 218.447478 
L 148.856134 222.229618 
L 150.296535 224.4396 
L 151.736935 226.331029 
L 153.177335 227.880568 
L 154.617736 229.115152 
L 156.058136 230.086833 
L 157.498537 230.841704 
L 159.659137 231.655505 
L 162.539938 232.393019 
L 165.420739 232.878377 
L 168.30154 233.079057 
L 171.182341 233.116997 
L 171.182341 233.116997 
" style="fill:none;stroke:#4c72b0;stroke-linecap:round;stroke-width:1.75;"/>
   </g>
   <g id="line2d_68">
    <path clip-path="url(#pf80012e85f)" d="M 100.40607 233.123679 
L 100.40607 170.997964 
" style="fill:none;stroke:#4c72b0;stroke-dasharray:6.475,2.8;stroke-dashoffset:0;stroke-width:1.75;"/>
   </g>
   <g id="line2d_69">
    <path clip-path="url(#pf80012e85f)" d="M 149.274315 233.123679 
L 149.274315 170.997964 
" style="fill:none;stroke:#4c72b0;stroke-dasharray:6.475,2.8;stroke-dashoffset:0;stroke-width:1.75;"/>
   </g>
   <g id="line2d_70">
    <path clip-path="url(#pf80012e85f)" d="M 127.656395 233.123679 
L 127.656395 170.997964 
" style="fill:none;stroke:#4c72b0;stroke-linecap:round;stroke-width:1.75;"/>
   </g>
   <g id="patch_81">
    <path d="M 25.321875 233.123679 
L 25.321875 170.997964 
" style="fill:none;"/>
   </g>
   <g id="patch_82">
    <path d="M 382.441875 233.123679 
L 382.441875 170.997964 
" style="fill:none;"/>
   </g>
   <g id="patch_83">
    <path d="M 25.321875 233.123679 
L 382.441875 233.123679 
" style="fill:none;"/>
   </g>
   <g id="patch_84">
    <path d="M 25.321875 170.997964 
L 382.441875 170.997964 
" style="fill:none;"/>
   </g>
   <g id="text_11">
    <!-- W[2] distribution -->
    <g style="fill:#262626;" transform="translate(160.8675 164.997964)scale(0.12 -0.12)">
     <use xlink:href="#LiberationSans-57"/>
     <use x="94.384766" xlink:href="#LiberationSans-5b"/>
     <use x="122.167969" xlink:href="#LiberationSans-32"/>
     <use x="177.783203" xlink:href="#LiberationSans-5d"/>
     <use x="205.566406" xlink:href="#LiberationSans-20"/>
     <use x="233.349609" xlink:href="#LiberationSans-64"/>
     <use x="288.964844" xlink:href="#LiberationSans-69"/>
     <use x="311.181641" xlink:href="#LiberationSans-73"/>
     <use x="361.181641" xlink:href="#LiberationSans-74"/>
     <use x="388.964844" xlink:href="#LiberationSans-72"/>
     <use x="422.265625" xlink:href="#LiberationSans-69"/>
     <use x="444.482422" xlink:href="#LiberationSans-62"/>
     <use x="500.097656" xlink:href="#LiberationSans-75"/>
     <use x="555.712891" xlink:href="#LiberationSans-74"/>
     <use x="583.496094" xlink:href="#LiberationSans-69"/>
     <use x="605.712891" xlink:href="#LiberationSans-6f"/>
     <use x="661.328125" xlink:href="#LiberationSans-6e"/>
    </g>
   </g>
  </g>
  <g id="axes_4">
   <g id="patch_85">
    <path d="M 25.321875 307.674536 
L 382.441875 307.674536 
L 382.441875 245.548821 
L 25.321875 245.548821 
z
" style="fill:#eaeaf2;"/>
   </g>
   <g id="matplotlib.axis_7">
    <g id="xtick_22">
     <g id="line2d_71">
      <path clip-path="url(#p3c7e9f4dbe)" d="M 59.141283 307.674536 
L 59.141283 245.548821 
" style="fill:none;stroke:#ffffff;stroke-linecap:round;"/>
     </g>
     <g id="line2d_72"/>
    </g>
    <g id="xtick_23">
     <g id="line2d_73">
      <path clip-path="url(#p3c7e9f4dbe)" d="M 112.285271 307.674536 
L 112.285271 245.548821 
" style="fill:none;stroke:#ffffff;stroke-linecap:round;"/>
     </g>
     <g id="line2d_74"/>
    </g>
    <g id="xtick_24">
     <g id="line2d_75">
      <path clip-path="url(#p3c7e9f4dbe)" d="M 165.42926 307.674536 
L 165.42926 245.548821 
" style="fill:none;stroke:#ffffff;stroke-linecap:round;"/>
     </g>
     <g id="line2d_76"/>
    </g>
    <g id="xtick_25">
     <g id="line2d_77">
      <path clip-path="url(#p3c7e9f4dbe)" d="M 218.573248 307.674536 
L 218.573248 245.548821 
" style="fill:none;stroke:#ffffff;stroke-linecap:round;"/>
     </g>
     <g id="line2d_78"/>
    </g>
    <g id="xtick_26">
     <g id="line2d_79">
      <path clip-path="url(#p3c7e9f4dbe)" d="M 271.717236 307.674536 
L 271.717236 245.548821 
" style="fill:none;stroke:#ffffff;stroke-linecap:round;"/>
     </g>
     <g id="line2d_80"/>
    </g>
    <g id="xtick_27">
     <g id="line2d_81">
      <path clip-path="url(#p3c7e9f4dbe)" d="M 324.861225 307.674536 
L 324.861225 245.548821 
" style="fill:none;stroke:#ffffff;stroke-linecap:round;"/>
     </g>
     <g id="line2d_82"/>
    </g>
    <g id="xtick_28">
     <g id="line2d_83">
      <path clip-path="url(#p3c7e9f4dbe)" d="M 378.005213 307.674536 
L 378.005213 245.548821 
" style="fill:none;stroke:#ffffff;stroke-linecap:round;"/>
     </g>
     <g id="line2d_84"/>
    </g>
   </g>
   <g id="matplotlib.axis_8">
    <g id="ytick_9">
     <g id="line2d_85">
      <path clip-path="url(#p3c7e9f4dbe)" d="M 25.321875 307.674536 
L 382.441875 307.674536 
" style="fill:none;stroke:#ffffff;stroke-linecap:round;"/>
     </g>
     <g id="line2d_86"/>
     <g id="text_12">
      <!-- 0 -->
      <g style="fill:#262626;" transform="translate(12.760938 311.297973)scale(0.1 -0.1)">
       <use xlink:href="#LiberationSans-30"/>
      </g>
     </g>
    </g>
    <g id="ytick_10">
     <g id="line2d_87">
      <path clip-path="url(#p3c7e9f4dbe)" d="M 25.321875 277.014366 
L 382.441875 277.014366 
" style="fill:none;stroke:#ffffff;stroke-linecap:round;"/>
     </g>
     <g id="line2d_88"/>
     <g id="text_13">
      <!-- 2 -->
      <g style="fill:#262626;" transform="translate(12.760938 280.637803)scale(0.1 -0.1)">
       <use xlink:href="#LiberationSans-32"/>
      </g>
     </g>
    </g>
    <g id="ytick_11">
     <g id="line2d_89">
      <path clip-path="url(#p3c7e9f4dbe)" d="M 25.321875 246.354196 
L 382.441875 246.354196 
" style="fill:none;stroke:#ffffff;stroke-linecap:round;"/>
     </g>
     <g id="line2d_90"/>
     <g id="text_14">
      <!-- 4 -->
      <g style="fill:#262626;" transform="translate(12.760938 249.977634)scale(0.1 -0.1)">
       <use xlink:href="#LiberationSans-34"/>
      </g>
     </g>
    </g>
   </g>
   <g id="patch_86">
    <path clip-path="url(#p3c7e9f4dbe)" d="M 65.366041 307.674536 
L 68.505475 307.674536 
L 68.505475 307.155524 
L 65.366041 307.155524 
z
" style="fill:#4c72b0;opacity:0.4;"/>
   </g>
   <g id="patch_87">
    <path clip-path="url(#p3c7e9f4dbe)" d="M 68.505475 307.674536 
L 71.64491 307.674536 
L 71.64491 307.155524 
L 68.505475 307.155524 
z
" style="fill:#4c72b0;opacity:0.4;"/>
   </g>
   <g id="patch_88">
    <path clip-path="url(#p3c7e9f4dbe)" d="M 71.64491 307.674536 
L 74.784345 307.674536 
L 74.784345 305.079477 
L 71.64491 305.079477 
z
" style="fill:#4c72b0;opacity:0.4;"/>
   </g>
   <g id="patch_89">
    <path clip-path="url(#p3c7e9f4dbe)" d="M 74.784345 307.674536 
L 77.923779 307.674536 
L 77.923779 305.079477 
L 74.784345 305.079477 
z
" style="fill:#4c72b0;opacity:0.4;"/>
   </g>
   <g id="patch_90">
    <path clip-path="url(#p3c7e9f4dbe)" d="M 77.923779 307.674536 
L 81.063214 307.674536 
L 81.063214 301.446394 
L 77.923779 301.446394 
z
" style="fill:#4c72b0;opacity:0.4;"/>
   </g>
   <g id="patch_91">
    <path clip-path="url(#p3c7e9f4dbe)" d="M 81.063214 307.674536 
L 84.202649 307.674536 
L 84.202649 294.69924 
L 81.063214 294.69924 
z
" style="fill:#4c72b0;opacity:0.4;"/>
   </g>
   <g id="patch_92">
    <path clip-path="url(#p3c7e9f4dbe)" d="M 84.202649 307.674536 
L 87.342084 307.674536 
L 87.342084 291.585169 
L 84.202649 291.585169 
z
" style="fill:#4c72b0;opacity:0.4;"/>
   </g>
   <g id="patch_93">
    <path clip-path="url(#p3c7e9f4dbe)" d="M 87.342084 307.674536 
L 90.481518 307.674536 
L 90.481518 293.142205 
L 87.342084 293.142205 
z
" style="fill:#4c72b0;opacity:0.4;"/>
   </g>
   <g id="patch_94">
    <path clip-path="url(#p3c7e9f4dbe)" d="M 90.481518 307.674536 
L 93.620953 307.674536 
L 93.620953 266.672602 
L 90.481518 266.672602 
z
" style="fill:#4c72b0;opacity:0.4;"/>
   </g>
   <g id="patch_95">
    <path clip-path="url(#p3c7e9f4dbe)" d="M 93.620953 307.674536 
L 96.760388 307.674536 
L 96.760388 248.507189 
L 93.620953 248.507189 
z
" style="fill:#4c72b0;opacity:0.4;"/>
   </g>
   <g id="patch_96">
    <path clip-path="url(#p3c7e9f4dbe)" d="M 96.760388 307.674536 
L 99.899822 307.674536 
L 99.899822 264.077543 
L 96.760388 264.077543 
z
" style="fill:#4c72b0;opacity:0.4;"/>
   </g>
   <g id="patch_97">
    <path clip-path="url(#p3c7e9f4dbe)" d="M 99.899822 307.674536 
L 103.039257 307.674536 
L 103.039257 255.254342 
L 99.899822 255.254342 
z
" style="fill:#4c72b0;opacity:0.4;"/>
   </g>
   <g id="patch_98">
    <path clip-path="url(#p3c7e9f4dbe)" d="M 103.039257 307.674536 
L 106.178692 307.674536 
L 106.178692 251.62126 
L 103.039257 251.62126 
z
" style="fill:#4c72b0;opacity:0.4;"/>
   </g>
   <g id="patch_99">
    <path clip-path="url(#p3c7e9f4dbe)" d="M 106.178692 307.674536 
L 109.318127 307.674536 
L 109.318127 258.887425 
L 106.178692 258.887425 
z
" style="fill:#4c72b0;opacity:0.4;"/>
   </g>
   <g id="patch_100">
    <path clip-path="url(#p3c7e9f4dbe)" d="M 109.318127 307.674536 
L 112.457561 307.674536 
L 112.457561 263.558531 
L 109.318127 263.558531 
z
" style="fill:#4c72b0;opacity:0.4;"/>
   </g>
   <g id="patch_101">
    <path clip-path="url(#p3c7e9f4dbe)" d="M 112.457561 307.674536 
L 115.596996 307.674536 
L 115.596996 272.381732 
L 112.457561 272.381732 
z
" style="fill:#4c72b0;opacity:0.4;"/>
   </g>
   <g id="patch_102">
    <path clip-path="url(#p3c7e9f4dbe)" d="M 115.596996 307.674536 
L 118.736431 307.674536 
L 118.736431 279.647898 
L 115.596996 279.647898 
z
" style="fill:#4c72b0;opacity:0.4;"/>
   </g>
   <g id="patch_103">
    <path clip-path="url(#p3c7e9f4dbe)" d="M 118.736431 307.674536 
L 121.875865 307.674536 
L 121.875865 280.685921 
L 118.736431 280.685921 
z
" style="fill:#4c72b0;opacity:0.4;"/>
   </g>
   <g id="patch_104">
    <path clip-path="url(#p3c7e9f4dbe)" d="M 121.875865 307.674536 
L 125.0153 307.674536 
L 125.0153 298.332323 
L 121.875865 298.332323 
z
" style="fill:#4c72b0;opacity:0.4;"/>
   </g>
   <g id="patch_105">
    <path clip-path="url(#p3c7e9f4dbe)" d="M 125.0153 307.674536 
L 128.154735 307.674536 
L 128.154735 299.889358 
L 125.0153 299.889358 
z
" style="fill:#4c72b0;opacity:0.4;"/>
   </g>
   <g id="patch_106">
    <path clip-path="url(#p3c7e9f4dbe)" d="M 128.154735 307.674536 
L 131.294169 307.674536 
L 131.294169 303.522441 
L 128.154735 303.522441 
z
" style="fill:#4c72b0;opacity:0.4;"/>
   </g>
   <g id="patch_107">
    <path clip-path="url(#p3c7e9f4dbe)" d="M 131.294169 307.674536 
L 134.433604 307.674536 
L 134.433604 303.522441 
L 131.294169 303.522441 
z
" style="fill:#4c72b0;opacity:0.4;"/>
   </g>
   <g id="patch_108">
    <path clip-path="url(#p3c7e9f4dbe)" d="M 134.433604 307.674536 
L 137.573039 307.674536 
L 137.573039 306.636512 
L 134.433604 306.636512 
z
" style="fill:#4c72b0;opacity:0.4;"/>
   </g>
   <g id="patch_109">
    <path clip-path="url(#p3c7e9f4dbe)" d="M 137.573039 307.674536 
L 140.712474 307.674536 
L 140.712474 307.674536 
L 137.573039 307.674536 
z
" style="fill:#4c72b0;opacity:0.4;"/>
   </g>
   <g id="patch_110">
    <path clip-path="url(#p3c7e9f4dbe)" d="M 140.712474 307.674536 
L 143.851908 307.674536 
L 143.851908 307.155524 
L 140.712474 307.155524 
z
" style="fill:#4c72b0;opacity:0.4;"/>
   </g>
   <g id="patch_111">
    <path clip-path="url(#p3c7e9f4dbe)" d="M 143.851908 307.674536 
L 146.991343 307.674536 
L 146.991343 307.155524 
L 143.851908 307.155524 
z
" style="fill:#4c72b0;opacity:0.4;"/>
   </g>
   <g id="line2d_91">
    <path clip-path="url(#p3c7e9f4dbe)" d="M 56.046193 307.670912 
L 61.57261 307.569487 
L 67.099027 307.219872 
L 69.467492 306.829973 
L 71.835956 306.109701 
L 73.414933 305.437753 
L 74.993909 304.55323 
L 76.572885 303.341115 
L 78.151862 301.726218 
L 80.520326 298.762514 
L 82.888791 295.820747 
L 85.257255 292.893513 
L 86.046743 291.644773 
L 86.836232 290.100282 
L 87.62572 288.175418 
L 88.415208 285.820836 
L 89.994184 279.883393 
L 93.152137 266.205789 
L 93.941625 263.341115 
L 94.731113 260.985473 
L 95.520601 259.205143 
L 96.31009 257.994047 
L 97.099578 257.271689 
L 97.889066 256.899994 
L 101.047019 256.133231 
L 102.625995 255.598122 
L 103.415483 255.492644 
L 104.204971 255.59878 
L 104.99446 255.956144 
L 105.783948 256.567562 
L 106.573436 257.407447 
L 108.152412 259.614421 
L 109.731389 262.311617 
L 112.099853 267.013895 
L 118.415758 280.6373 
L 119.994735 284.783315 
L 123.152687 293.603951 
L 124.731664 297.031052 
L 125.521152 298.348076 
L 126.31064 299.42625 
L 127.889616 301.050506 
L 129.468593 302.263347 
L 131.837057 303.746723 
L 134.99501 305.444207 
L 137.363475 306.476789 
L 138.942451 306.927913 
L 140.521427 307.180071 
L 142.889892 307.326159 
L 156.311191 307.670913 
L 156.311191 307.670913 
" style="fill:none;stroke:#4c72b0;stroke-linecap:round;stroke-width:1.75;"/>
   </g>
   <g id="line2d_92">
    <path clip-path="url(#p3c7e9f4dbe)" d="M 81.335123 307.674536 
L 81.335123 245.548821 
" style="fill:none;stroke:#4c72b0;stroke-dasharray:6.475,2.8;stroke-dashoffset:0;stroke-width:1.75;"/>
   </g>
   <g id="line2d_93">
    <path clip-path="url(#p3c7e9f4dbe)" d="M 127.422534 307.674536 
L 127.422534 245.548821 
" style="fill:none;stroke:#4c72b0;stroke-dasharray:6.475,2.8;stroke-dashoffset:0;stroke-width:1.75;"/>
   </g>
   <g id="line2d_94">
    <path clip-path="url(#p3c7e9f4dbe)" d="M 81.723915 307.674536 
L 81.723915 245.548821 
" style="fill:none;stroke:#4c72b0;stroke-linecap:round;stroke-width:1.75;"/>
   </g>
   <g id="patch_112">
    <path d="M 25.321875 307.674536 
L 25.321875 245.548821 
" style="fill:none;"/>
   </g>
   <g id="patch_113">
    <path d="M 382.441875 307.674536 
L 382.441875 245.548821 
" style="fill:none;"/>
   </g>
   <g id="patch_114">
    <path d="M 25.321875 307.674536 
L 382.441875 307.674536 
" style="fill:none;"/>
   </g>
   <g id="patch_115">
    <path d="M 25.321875 245.548821 
L 382.441875 245.548821 
" style="fill:none;"/>
   </g>
   <g id="text_15">
    <!-- W[3] distribution -->
    <defs>
     <path d="M 51.21875 19 
Q 51.21875 14.265625 49.671875 10.546875 
Q 48.140625 6.84375 45.1875 4.265625 
Q 42.234375 1.703125 37.859375 0.359375 
Q 33.5 -0.984375 27.875 -0.984375 
Q 21.484375 -0.984375 17.109375 0.609375 
Q 12.75 2.203125 9.90625 4.8125 
Q 7.078125 7.421875 5.65625 10.765625 
Q 4.25 14.109375 3.8125 17.671875 
L 12.890625 18.5 
Q 13.28125 15.765625 14.328125 13.515625 
Q 15.375 11.28125 17.1875 9.671875 
Q 19 8.0625 21.625 7.171875 
Q 24.265625 6.296875 27.875 6.296875 
Q 34.515625 6.296875 38.296875 9.5625 
Q 42.09375 12.84375 42.09375 19.28125 
Q 42.09375 23.09375 40.40625 25.40625 
Q 38.71875 27.734375 36.203125 29.03125 
Q 33.6875 30.328125 30.734375 30.765625 
Q 27.78125 31.203125 25.296875 31.203125 
L 20.3125 31.203125 
L 20.3125 38.8125 
L 25.09375 38.8125 
Q 27.59375 38.8125 30.265625 39.328125 
Q 32.953125 39.84375 35.171875 41.1875 
Q 37.40625 42.53125 38.84375 44.828125 
Q 40.28125 47.125 40.28125 50.6875 
Q 40.28125 56.203125 37.03125 59.390625 
Q 33.796875 62.59375 27.390625 62.59375 
Q 21.578125 62.59375 17.984375 59.609375 
Q 14.40625 56.640625 13.8125 51.21875 
L 4.984375 51.90625 
Q 5.515625 56.453125 7.46875 59.8125 
Q 9.421875 63.1875 12.421875 65.40625 
Q 15.4375 67.625 19.28125 68.71875 
Q 23.140625 69.828125 27.484375 69.828125 
Q 33.25 69.828125 37.390625 68.375 
Q 41.546875 66.9375 44.1875 64.46875 
Q 46.828125 62.015625 48.0625 58.6875 
Q 49.3125 55.375 49.3125 51.609375 
Q 49.3125 48.578125 48.484375 45.9375 
Q 47.65625 43.3125 45.890625 41.203125 
Q 44.140625 39.109375 41.421875 37.59375 
Q 38.71875 36.078125 34.90625 35.296875 
L 34.90625 35.109375 
Q 39.0625 34.671875 42.140625 33.21875 
Q 45.21875 31.78125 47.21875 29.625 
Q 49.21875 27.484375 50.21875 24.75 
Q 51.21875 22.015625 51.21875 19 
z
" id="LiberationSans-33"/>
    </defs>
    <g style="fill:#262626;" transform="translate(160.8675 239.548821)scale(0.12 -0.12)">
     <use xlink:href="#LiberationSans-57"/>
     <use x="94.384766" xlink:href="#LiberationSans-5b"/>
     <use x="122.167969" xlink:href="#LiberationSans-33"/>
     <use x="177.783203" xlink:href="#LiberationSans-5d"/>
     <use x="205.566406" xlink:href="#LiberationSans-20"/>
     <use x="233.349609" xlink:href="#LiberationSans-64"/>
     <use x="288.964844" xlink:href="#LiberationSans-69"/>
     <use x="311.181641" xlink:href="#LiberationSans-73"/>
     <use x="361.181641" xlink:href="#LiberationSans-74"/>
     <use x="388.964844" xlink:href="#LiberationSans-72"/>
     <use x="422.265625" xlink:href="#LiberationSans-69"/>
     <use x="444.482422" xlink:href="#LiberationSans-62"/>
     <use x="500.097656" xlink:href="#LiberationSans-75"/>
     <use x="555.712891" xlink:href="#LiberationSans-74"/>
     <use x="583.496094" xlink:href="#LiberationSans-69"/>
     <use x="605.712891" xlink:href="#LiberationSans-6f"/>
     <use x="661.328125" xlink:href="#LiberationSans-6e"/>
    </g>
   </g>
  </g>
  <g id="axes_5">
   <g id="patch_116">
    <path d="M 25.321875 382.225393 
L 382.441875 382.225393 
L 382.441875 320.099679 
L 25.321875 320.099679 
z
" style="fill:#eaeaf2;"/>
   </g>
   <g id="matplotlib.axis_9">
    <g id="xtick_29">
     <g id="line2d_95">
      <path clip-path="url(#p7a270dfc44)" d="M 59.141283 382.225393 
L 59.141283 320.099679 
" style="fill:none;stroke:#ffffff;stroke-linecap:round;"/>
     </g>
     <g id="line2d_96"/>
    </g>
    <g id="xtick_30">
     <g id="line2d_97">
      <path clip-path="url(#p7a270dfc44)" d="M 112.285271 382.225393 
L 112.285271 320.099679 
" style="fill:none;stroke:#ffffff;stroke-linecap:round;"/>
     </g>
     <g id="line2d_98"/>
    </g>
    <g id="xtick_31">
     <g id="line2d_99">
      <path clip-path="url(#p7a270dfc44)" d="M 165.42926 382.225393 
L 165.42926 320.099679 
" style="fill:none;stroke:#ffffff;stroke-linecap:round;"/>
     </g>
     <g id="line2d_100"/>
    </g>
    <g id="xtick_32">
     <g id="line2d_101">
      <path clip-path="url(#p7a270dfc44)" d="M 218.573248 382.225393 
L 218.573248 320.099679 
" style="fill:none;stroke:#ffffff;stroke-linecap:round;"/>
     </g>
     <g id="line2d_102"/>
    </g>
    <g id="xtick_33">
     <g id="line2d_103">
      <path clip-path="url(#p7a270dfc44)" d="M 271.717236 382.225393 
L 271.717236 320.099679 
" style="fill:none;stroke:#ffffff;stroke-linecap:round;"/>
     </g>
     <g id="line2d_104"/>
    </g>
    <g id="xtick_34">
     <g id="line2d_105">
      <path clip-path="url(#p7a270dfc44)" d="M 324.861225 382.225393 
L 324.861225 320.099679 
" style="fill:none;stroke:#ffffff;stroke-linecap:round;"/>
     </g>
     <g id="line2d_106"/>
    </g>
    <g id="xtick_35">
     <g id="line2d_107">
      <path clip-path="url(#p7a270dfc44)" d="M 378.005213 382.225393 
L 378.005213 320.099679 
" style="fill:none;stroke:#ffffff;stroke-linecap:round;"/>
     </g>
     <g id="line2d_108"/>
    </g>
   </g>
   <g id="matplotlib.axis_10">
    <g id="ytick_12">
     <g id="line2d_109">
      <path clip-path="url(#p7a270dfc44)" d="M 25.321875 382.225393 
L 382.441875 382.225393 
" style="fill:none;stroke:#ffffff;stroke-linecap:round;"/>
     </g>
     <g id="line2d_110"/>
     <g id="text_16">
      <!-- 0 -->
      <g style="fill:#262626;" transform="translate(12.760938 385.84883)scale(0.1 -0.1)">
       <use xlink:href="#LiberationSans-30"/>
      </g>
     </g>
    </g>
    <g id="ytick_13">
     <g id="line2d_111">
      <path clip-path="url(#p7a270dfc44)" d="M 25.321875 352.314187 
L 382.441875 352.314187 
" style="fill:none;stroke:#ffffff;stroke-linecap:round;"/>
     </g>
     <g id="line2d_112"/>
     <g id="text_17">
      <!-- 10 -->
      <g style="fill:#262626;" transform="translate(7.2 355.937625)scale(0.1 -0.1)">
       <use xlink:href="#LiberationSans-31"/>
       <use x="55.615234" xlink:href="#LiberationSans-30"/>
      </g>
     </g>
    </g>
    <g id="ytick_14">
     <g id="line2d_113">
      <path clip-path="url(#p7a270dfc44)" d="M 25.321875 322.402982 
L 382.441875 322.402982 
" style="fill:none;stroke:#ffffff;stroke-linecap:round;"/>
     </g>
     <g id="line2d_114"/>
     <g id="text_18">
      <!-- 20 -->
      <g style="fill:#262626;" transform="translate(7.2 326.026419)scale(0.1 -0.1)">
       <use xlink:href="#LiberationSans-32"/>
       <use x="55.615234" xlink:href="#LiberationSans-30"/>
      </g>
     </g>
    </g>
   </g>
   <g id="patch_117">
    <path clip-path="url(#p7a270dfc44)" d="M 43.351516 382.225393 
L 43.953319 382.225393 
L 43.953319 381.697113 
L 43.351516 381.697113 
z
" style="fill:#4c72b0;opacity:0.4;"/>
   </g>
   <g id="patch_118">
    <path clip-path="url(#p7a270dfc44)" d="M 43.953319 382.225393 
L 44.555121 382.225393 
L 44.555121 382.225393 
L 43.953319 382.225393 
z
" style="fill:#4c72b0;opacity:0.4;"/>
   </g>
   <g id="patch_119">
    <path clip-path="url(#p7a270dfc44)" d="M 44.555121 382.225393 
L 45.156924 382.225393 
L 45.156924 380.640553 
L 44.555121 380.640553 
z
" style="fill:#4c72b0;opacity:0.4;"/>
   </g>
   <g id="patch_120">
    <path clip-path="url(#p7a270dfc44)" d="M 45.156924 382.225393 
L 45.758726 382.225393 
L 45.758726 380.640553 
L 45.156924 380.640553 
z
" style="fill:#4c72b0;opacity:0.4;"/>
   </g>
   <g id="patch_121">
    <path clip-path="url(#p7a270dfc44)" d="M 45.758726 382.225393 
L 46.360529 382.225393 
L 46.360529 378.527434 
L 45.758726 378.527434 
z
" style="fill:#4c72b0;opacity:0.4;"/>
   </g>
   <g id="patch_122">
    <path clip-path="url(#p7a270dfc44)" d="M 46.360529 382.225393 
L 46.962331 382.225393 
L 46.962331 375.357754 
L 46.360529 375.357754 
z
" style="fill:#4c72b0;opacity:0.4;"/>
   </g>
   <g id="patch_123">
    <path clip-path="url(#p7a270dfc44)" d="M 46.962331 382.225393 
L 47.564134 382.225393 
L 47.564134 376.414314 
L 46.962331 376.414314 
z
" style="fill:#4c72b0;opacity:0.4;"/>
   </g>
   <g id="patch_124">
    <path clip-path="url(#p7a270dfc44)" d="M 47.564134 382.225393 
L 48.165936 382.225393 
L 48.165936 365.848716 
L 47.564134 365.848716 
z
" style="fill:#4c72b0;opacity:0.4;"/>
   </g>
   <g id="patch_125">
    <path clip-path="url(#p7a270dfc44)" d="M 48.165936 382.225393 
L 48.767739 382.225393 
L 48.767739 367.433556 
L 48.165936 367.433556 
z
" style="fill:#4c72b0;opacity:0.4;"/>
   </g>
   <g id="patch_126">
    <path clip-path="url(#p7a270dfc44)" d="M 48.767739 382.225393 
L 49.369541 382.225393 
L 49.369541 359.509358 
L 48.767739 359.509358 
z
" style="fill:#4c72b0;opacity:0.4;"/>
   </g>
   <g id="patch_127">
    <path clip-path="url(#p7a270dfc44)" d="M 49.369541 382.225393 
L 49.971344 382.225393 
L 49.971344 351.05688 
L 49.369541 351.05688 
z
" style="fill:#4c72b0;opacity:0.4;"/>
   </g>
   <g id="patch_128">
    <path clip-path="url(#p7a270dfc44)" d="M 49.971344 382.225393 
L 50.573146 382.225393 
L 50.573146 335.208483 
L 49.971344 335.208483 
z
" style="fill:#4c72b0;opacity:0.4;"/>
   </g>
   <g id="patch_129">
    <path clip-path="url(#p7a270dfc44)" d="M 50.573146 382.225393 
L 51.174949 382.225393 
L 51.174949 330.982244 
L 50.573146 330.982244 
z
" style="fill:#4c72b0;opacity:0.4;"/>
   </g>
   <g id="patch_130">
    <path clip-path="url(#p7a270dfc44)" d="M 51.174949 382.225393 
L 51.776751 382.225393 
L 51.776751 333.095364 
L 51.174949 333.095364 
z
" style="fill:#4c72b0;opacity:0.4;"/>
   </g>
   <g id="patch_131">
    <path clip-path="url(#p7a270dfc44)" d="M 51.776751 382.225393 
L 52.378554 382.225393 
L 52.378554 324.642886 
L 51.776751 324.642886 
z
" style="fill:#4c72b0;opacity:0.4;"/>
   </g>
   <g id="patch_132">
    <path clip-path="url(#p7a270dfc44)" d="M 52.378554 382.225393 
L 52.980356 382.225393 
L 52.980356 339.963002 
L 52.378554 339.963002 
z
" style="fill:#4c72b0;opacity:0.4;"/>
   </g>
   <g id="patch_133">
    <path clip-path="url(#p7a270dfc44)" d="M 52.980356 382.225393 
L 53.582159 382.225393 
L 53.582159 323.058046 
L 52.980356 323.058046 
z
" style="fill:#4c72b0;opacity:0.4;"/>
   </g>
   <g id="patch_134">
    <path clip-path="url(#p7a270dfc44)" d="M 53.582159 382.225393 
L 54.183961 382.225393 
L 54.183961 346.302361 
L 53.582159 346.302361 
z
" style="fill:#4c72b0;opacity:0.4;"/>
   </g>
   <g id="patch_135">
    <path clip-path="url(#p7a270dfc44)" d="M 54.183961 382.225393 
L 54.785764 382.225393 
L 54.785764 353.698279 
L 54.183961 353.698279 
z
" style="fill:#4c72b0;opacity:0.4;"/>
   </g>
   <g id="patch_136">
    <path clip-path="url(#p7a270dfc44)" d="M 54.785764 382.225393 
L 55.387566 382.225393 
L 55.387566 364.792157 
L 54.785764 364.792157 
z
" style="fill:#4c72b0;opacity:0.4;"/>
   </g>
   <g id="patch_137">
    <path clip-path="url(#p7a270dfc44)" d="M 55.387566 382.225393 
L 55.989369 382.225393 
L 55.989369 370.074956 
L 55.387566 370.074956 
z
" style="fill:#4c72b0;opacity:0.4;"/>
   </g>
   <g id="patch_138">
    <path clip-path="url(#p7a270dfc44)" d="M 55.989369 382.225393 
L 56.591171 382.225393 
L 56.591171 372.188075 
L 55.989369 372.188075 
z
" style="fill:#4c72b0;opacity:0.4;"/>
   </g>
   <g id="patch_139">
    <path clip-path="url(#p7a270dfc44)" d="M 56.591171 382.225393 
L 57.192974 382.225393 
L 57.192974 377.999154 
L 56.591171 377.999154 
z
" style="fill:#4c72b0;opacity:0.4;"/>
   </g>
   <g id="patch_140">
    <path clip-path="url(#p7a270dfc44)" d="M 57.192974 382.225393 
L 57.794776 382.225393 
L 57.794776 379.055714 
L 57.192974 379.055714 
z
" style="fill:#4c72b0;opacity:0.4;"/>
   </g>
   <g id="patch_141">
    <path clip-path="url(#p7a270dfc44)" d="M 57.794776 382.225393 
L 58.396579 382.225393 
L 58.396579 379.055714 
L 57.794776 379.055714 
z
" style="fill:#4c72b0;opacity:0.4;"/>
   </g>
   <g id="patch_142">
    <path clip-path="url(#p7a270dfc44)" d="M 58.396579 382.225393 
L 58.998381 382.225393 
L 58.998381 381.168833 
L 58.396579 381.168833 
z
" style="fill:#4c72b0;opacity:0.4;"/>
   </g>
   <g id="patch_143">
    <path clip-path="url(#p7a270dfc44)" d="M 58.998381 382.225393 
L 59.600184 382.225393 
L 59.600184 381.168833 
L 58.998381 381.168833 
z
" style="fill:#4c72b0;opacity:0.4;"/>
   </g>
   <g id="line2d_115">
    <path clip-path="url(#p7a270dfc44)" d="M 41.554602 382.221608 
L 42.648283 382.117906 
L 44.366924 381.689447 
L 44.835645 381.149768 
L 45.304365 380.308733 
L 45.929326 378.653031 
L 46.710526 375.687431 
L 47.335487 372.454539 
L 48.585408 364.405917 
L 49.054128 359.091671 
L 49.835329 346.119154 
L 50.460289 336.28686 
L 50.92901 331.878702 
L 51.24149 330.388966 
L 51.55397 329.796251 
L 51.71021 329.831408 
L 52.022691 330.545713 
L 53.272612 335.504716 
L 53.585092 338.697376 
L 54.210052 348.928863 
L 55.147493 363.298528 
L 55.772453 369.405762 
L 56.709894 375.460852 
L 57.178615 377.744828 
L 57.647335 378.918635 
L 59.365976 381.487458 
L 60.147177 382.007519 
L 60.772137 382.186564 
L 61.397098 382.221472 
L 61.397098 382.221472 
" style="fill:none;stroke:#4c72b0;stroke-linecap:round;stroke-width:1.75;"/>
   </g>
   <g id="line2d_116">
    <path clip-path="url(#p7a270dfc44)" d="M 46.939395 382.225393 
L 46.939395 320.099679 
" style="fill:none;stroke:#4c72b0;stroke-dasharray:6.475,2.8;stroke-dashoffset:0;stroke-width:1.75;"/>
   </g>
   <g id="line2d_117">
    <path clip-path="url(#p7a270dfc44)" d="M 56.465038 382.225393 
L 56.465038 320.099679 
" style="fill:none;stroke:#4c72b0;stroke-dasharray:6.475,2.8;stroke-dashoffset:0;stroke-width:1.75;"/>
   </g>
   <g id="line2d_118">
    <path clip-path="url(#p7a270dfc44)" d="M 44.915881 382.225393 
L 44.915881 320.099679 
" style="fill:none;stroke:#4c72b0;stroke-linecap:round;stroke-width:1.75;"/>
   </g>
   <g id="patch_144">
    <path d="M 25.321875 382.225393 
L 25.321875 320.099679 
" style="fill:none;"/>
   </g>
   <g id="patch_145">
    <path d="M 382.441875 382.225393 
L 382.441875 320.099679 
" style="fill:none;"/>
   </g>
   <g id="patch_146">
    <path d="M 25.321875 382.225393 
L 382.441875 382.225393 
" style="fill:none;"/>
   </g>
   <g id="patch_147">
    <path d="M 25.321875 320.099679 
L 382.441875 320.099679 
" style="fill:none;"/>
   </g>
   <g id="text_19">
    <!-- Bias distribution -->
    <defs>
     <path d="M 61.421875 19.390625 
Q 61.421875 14.15625 59.375 10.46875 
Q 57.328125 6.78125 53.859375 4.46875 
Q 50.390625 2.15625 45.796875 1.078125 
Q 41.21875 0 36.140625 0 
L 8.203125 0 
L 8.203125 68.796875 
L 33.203125 68.796875 
Q 38.921875 68.796875 43.40625 67.84375 
Q 47.90625 66.890625 51.03125 64.84375 
Q 54.15625 62.796875 55.78125 59.640625 
Q 57.421875 56.5 57.421875 52.09375 
Q 57.421875 49.21875 56.609375 46.671875 
Q 55.8125 44.140625 54.171875 42.0625 
Q 52.546875 39.984375 50.078125 38.5 
Q 47.609375 37.015625 44.34375 36.28125 
Q 48.484375 35.796875 51.6875 34.375 
Q 54.890625 32.953125 57.03125 30.75 
Q 59.1875 28.5625 60.296875 25.65625 
Q 61.421875 22.75 61.421875 19.390625 
z
M 48.046875 50.984375 
Q 48.046875 56.546875 44.234375 58.9375 
Q 40.4375 61.328125 33.203125 61.328125 
L 17.53125 61.328125 
L 17.53125 39.546875 
L 33.203125 39.546875 
Q 37.3125 39.546875 40.140625 40.34375 
Q 42.96875 41.15625 44.71875 42.640625 
Q 46.484375 44.140625 47.265625 46.234375 
Q 48.046875 48.34375 48.046875 50.984375 
z
M 52 20.125 
Q 52 23.390625 50.796875 25.6875 
Q 49.609375 27.984375 47.359375 29.4375 
Q 45.125 30.90625 41.96875 31.59375 
Q 38.8125 32.28125 34.90625 32.28125 
L 17.53125 32.28125 
L 17.53125 7.46875 
L 35.640625 7.46875 
Q 39.203125 7.46875 42.203125 8.046875 
Q 45.21875 8.640625 47.390625 10.109375 
Q 49.5625 11.578125 50.78125 14.015625 
Q 52 16.453125 52 20.125 
z
" id="LiberationSans-42"/>
     <path d="M 20.21875 -0.984375 
Q 12.25 -0.984375 8.25 3.21875 
Q 4.25 7.421875 4.25 14.75 
Q 4.25 19.96875 6.21875 23.3125 
Q 8.203125 26.65625 11.390625 28.5625 
Q 14.59375 30.46875 18.6875 31.203125 
Q 22.796875 31.9375 27.046875 32.03125 
L 38.921875 32.234375 
L 38.921875 35.109375 
Q 38.921875 38.375 38.234375 40.671875 
Q 37.546875 42.96875 36.125 44.375 
Q 34.71875 45.796875 32.59375 46.453125 
Q 30.46875 47.125 27.59375 47.125 
Q 25.046875 47.125 23 46.75 
Q 20.953125 46.390625 19.4375 45.4375 
Q 17.921875 44.484375 16.984375 42.84375 
Q 16.0625 41.21875 15.765625 38.71875 
L 6.59375 39.546875 
Q 7.078125 42.671875 8.4375 45.28125 
Q 9.8125 47.90625 12.328125 49.796875 
Q 14.84375 51.703125 18.625 52.75 
Q 22.40625 53.8125 27.78125 53.8125 
Q 37.75 53.8125 42.765625 49.234375 
Q 47.796875 44.671875 47.796875 36.03125 
L 47.796875 13.28125 
Q 47.796875 9.375 48.828125 7.390625 
Q 49.859375 5.421875 52.734375 5.421875 
Q 53.46875 5.421875 54.203125 5.515625 
Q 54.9375 5.609375 55.609375 5.765625 
L 55.609375 0.296875 
Q 53.953125 -0.09375 52.3125 -0.28125 
Q 50.6875 -0.484375 48.828125 -0.484375 
Q 46.34375 -0.484375 44.5625 0.171875 
Q 42.78125 0.828125 41.65625 2.171875 
Q 40.53125 3.515625 39.9375 5.484375 
Q 39.359375 7.46875 39.203125 10.109375 
L 38.921875 10.109375 
Q 37.5 7.5625 35.8125 5.515625 
Q 34.125 3.46875 31.875 2.03125 
Q 29.640625 0.59375 26.78125 -0.1875 
Q 23.921875 -0.984375 20.21875 -0.984375 
z
M 22.21875 5.609375 
Q 26.421875 5.609375 29.5625 7.140625 
Q 32.71875 8.6875 34.78125 11.078125 
Q 36.859375 13.484375 37.890625 16.3125 
Q 38.921875 19.140625 38.921875 21.734375 
L 38.921875 26.078125 
L 29.296875 25.875 
Q 26.078125 25.828125 23.171875 25.40625 
Q 20.265625 25 18.0625 23.78125 
Q 15.875 22.5625 14.578125 20.359375 
Q 13.28125 18.171875 13.28125 14.59375 
Q 13.28125 10.296875 15.59375 7.953125 
Q 17.921875 5.609375 22.21875 5.609375 
z
" id="LiberationSans-61"/>
    </defs>
    <g style="fill:#262626;" transform="translate(161.529375 314.099679)scale(0.12 -0.12)">
     <use xlink:href="#LiberationSans-42"/>
     <use x="66.699219" xlink:href="#LiberationSans-69"/>
     <use x="88.916016" xlink:href="#LiberationSans-61"/>
     <use x="144.53125" xlink:href="#LiberationSans-73"/>
     <use x="194.53125" xlink:href="#LiberationSans-20"/>
     <use x="222.314453" xlink:href="#LiberationSans-64"/>
     <use x="277.929688" xlink:href="#LiberationSans-69"/>
     <use x="300.146484" xlink:href="#LiberationSans-73"/>
     <use x="350.146484" xlink:href="#LiberationSans-74"/>
     <use x="377.929688" xlink:href="#LiberationSans-72"/>
     <use x="411.230469" xlink:href="#LiberationSans-69"/>
     <use x="433.447266" xlink:href="#LiberationSans-62"/>
     <use x="489.0625" xlink:href="#LiberationSans-75"/>
     <use x="544.677734" xlink:href="#LiberationSans-74"/>
     <use x="572.460938" xlink:href="#LiberationSans-69"/>
     <use x="594.677734" xlink:href="#LiberationSans-6f"/>
     <use x="650.292969" xlink:href="#LiberationSans-6e"/>
    </g>
   </g>
  </g>
  <g id="axes_6">
   <g id="patch_148">
    <path d="M 25.321875 456.77625 
L 382.441875 456.77625 
L 382.441875 394.650536 
L 25.321875 394.650536 
z
" style="fill:#eaeaf2;"/>
   </g>
   <g id="matplotlib.axis_11">
    <g id="xtick_36">
     <g id="line2d_119">
      <path clip-path="url(#peb962dff88)" d="M 59.141283 456.77625 
L 59.141283 394.650536 
" style="fill:none;stroke:#ffffff;stroke-linecap:round;"/>
     </g>
     <g id="line2d_120"/>
     <g id="text_20">
      <!-- 1.0 -->
      <defs>
       <path d="M 4.9375 29.6875 
L 4.9375 36.8125 
L 53.515625 36.8125 
L 53.515625 29.6875 
z
" id="LiberationSans-2212"/>
       <path d="M 9.125 0 
L 9.125 10.6875 
L 18.65625 10.6875 
L 18.65625 0 
z
" id="LiberationSans-2e"/>
      </defs>
      <g style="fill:#262626;" transform="translate(49.270971 471.023125)scale(0.1 -0.1)">
       <use xlink:href="#LiberationSans-2212"/>
       <use x="58.398438" xlink:href="#LiberationSans-31"/>
       <use x="114.013672" xlink:href="#LiberationSans-2e"/>
       <use x="141.796875" xlink:href="#LiberationSans-30"/>
      </g>
     </g>
    </g>
    <g id="xtick_37">
     <g id="line2d_121">
      <path clip-path="url(#peb962dff88)" d="M 112.285271 456.77625 
L 112.285271 394.650536 
" style="fill:none;stroke:#ffffff;stroke-linecap:round;"/>
     </g>
     <g id="line2d_122"/>
     <g id="text_21">
      <!-- 0.5 -->
      <defs>
       <path d="M 51.421875 22.40625 
Q 51.421875 17.234375 49.859375 12.9375 
Q 48.296875 8.640625 45.21875 5.53125 
Q 42.140625 2.4375 37.578125 0.71875 
Q 33.015625 -0.984375 27 -0.984375 
Q 21.578125 -0.984375 17.546875 0.28125 
Q 13.53125 1.5625 10.734375 3.78125 
Q 7.953125 6 6.3125 8.984375 
Q 4.6875 11.96875 4 15.375 
L 12.890625 16.40625 
Q 13.421875 14.453125 14.390625 12.625 
Q 15.375 10.796875 17.0625 9.34375 
Q 18.75 7.90625 21.21875 7.046875 
Q 23.6875 6.203125 27.203125 6.203125 
Q 30.609375 6.203125 33.390625 7.25 
Q 36.1875 8.296875 38.15625 10.34375 
Q 40.140625 12.40625 41.203125 15.375 
Q 42.28125 18.359375 42.28125 22.21875 
Q 42.28125 25.390625 41.25 28.046875 
Q 40.234375 30.71875 38.328125 32.640625 
Q 36.421875 34.578125 33.65625 35.640625 
Q 30.90625 36.71875 27.390625 36.71875 
Q 25.203125 36.71875 23.34375 36.328125 
Q 21.484375 35.9375 19.890625 35.25 
Q 18.3125 34.578125 17.015625 33.671875 
Q 15.71875 32.765625 14.59375 31.78125 
L 6 31.78125 
L 8.296875 68.796875 
L 47.40625 68.796875 
L 47.40625 61.328125 
L 16.3125 61.328125 
L 14.984375 39.5 
Q 17.328125 41.3125 20.84375 42.59375 
Q 24.359375 43.890625 29.203125 43.890625 
Q 34.328125 43.890625 38.421875 42.328125 
Q 42.53125 40.765625 45.40625 37.90625 
Q 48.296875 35.0625 49.859375 31.109375 
Q 51.421875 27.15625 51.421875 22.40625 
z
" id="LiberationSans-35"/>
      </defs>
      <g style="fill:#262626;" transform="translate(102.414959 471.023125)scale(0.1 -0.1)">
       <use xlink:href="#LiberationSans-2212"/>
       <use x="58.398438" xlink:href="#LiberationSans-30"/>
       <use x="114.013672" xlink:href="#LiberationSans-2e"/>
       <use x="141.796875" xlink:href="#LiberationSans-35"/>
      </g>
     </g>
    </g>
    <g id="xtick_38">
     <g id="line2d_123">
      <path clip-path="url(#peb962dff88)" d="M 165.42926 456.77625 
L 165.42926 394.650536 
" style="fill:none;stroke:#ffffff;stroke-linecap:round;"/>
     </g>
     <g id="line2d_124"/>
     <g id="text_22">
      <!-- 0.0 -->
      <g style="fill:#262626;" transform="translate(158.47926 471.023125)scale(0.1 -0.1)">
       <use xlink:href="#LiberationSans-30"/>
       <use x="55.615234" xlink:href="#LiberationSans-2e"/>
       <use x="83.398438" xlink:href="#LiberationSans-30"/>
      </g>
     </g>
    </g>
    <g id="xtick_39">
     <g id="line2d_125">
      <path clip-path="url(#peb962dff88)" d="M 218.573248 456.77625 
L 218.573248 394.650536 
" style="fill:none;stroke:#ffffff;stroke-linecap:round;"/>
     </g>
     <g id="line2d_126"/>
     <g id="text_23">
      <!-- 0.5 -->
      <g style="fill:#262626;" transform="translate(211.623248 471.023125)scale(0.1 -0.1)">
       <use xlink:href="#LiberationSans-30"/>
       <use x="55.615234" xlink:href="#LiberationSans-2e"/>
       <use x="83.398438" xlink:href="#LiberationSans-35"/>
      </g>
     </g>
    </g>
    <g id="xtick_40">
     <g id="line2d_127">
      <path clip-path="url(#peb962dff88)" d="M 271.717236 456.77625 
L 271.717236 394.650536 
" style="fill:none;stroke:#ffffff;stroke-linecap:round;"/>
     </g>
     <g id="line2d_128"/>
     <g id="text_24">
      <!-- 1.0 -->
      <g style="fill:#262626;" transform="translate(264.767236 471.023125)scale(0.1 -0.1)">
       <use xlink:href="#LiberationSans-31"/>
       <use x="55.615234" xlink:href="#LiberationSans-2e"/>
       <use x="83.398438" xlink:href="#LiberationSans-30"/>
      </g>
     </g>
    </g>
    <g id="xtick_41">
     <g id="line2d_129">
      <path clip-path="url(#peb962dff88)" d="M 324.861225 456.77625 
L 324.861225 394.650536 
" style="fill:none;stroke:#ffffff;stroke-linecap:round;"/>
     </g>
     <g id="line2d_130"/>
     <g id="text_25">
      <!-- 1.5 -->
      <g style="fill:#262626;" transform="translate(317.911225 471.023125)scale(0.1 -0.1)">
       <use xlink:href="#LiberationSans-31"/>
       <use x="55.615234" xlink:href="#LiberationSans-2e"/>
       <use x="83.398438" xlink:href="#LiberationSans-35"/>
      </g>
     </g>
    </g>
    <g id="xtick_42">
     <g id="line2d_131">
      <path clip-path="url(#peb962dff88)" d="M 378.005213 456.77625 
L 378.005213 394.650536 
" style="fill:none;stroke:#ffffff;stroke-linecap:round;"/>
     </g>
     <g id="line2d_132"/>
     <g id="text_26">
      <!-- 2.0 -->
      <g style="fill:#262626;" transform="translate(371.055213 471.023125)scale(0.1 -0.1)">
       <use xlink:href="#LiberationSans-32"/>
       <use x="55.615234" xlink:href="#LiberationSans-2e"/>
       <use x="83.398438" xlink:href="#LiberationSans-30"/>
      </g>
     </g>
    </g>
   </g>
   <g id="matplotlib.axis_12">
    <g id="ytick_15">
     <g id="line2d_133">
      <path clip-path="url(#peb962dff88)" d="M 25.321875 456.77625 
L 382.441875 456.77625 
" style="fill:none;stroke:#ffffff;stroke-linecap:round;"/>
     </g>
     <g id="line2d_134"/>
     <g id="text_27">
      <!-- 0 -->
      <g style="fill:#262626;" transform="translate(12.760938 460.399687)scale(0.1 -0.1)">
       <use xlink:href="#LiberationSans-30"/>
      </g>
     </g>
    </g>
    <g id="ytick_16">
     <g id="line2d_135">
      <path clip-path="url(#peb962dff88)" d="M 25.321875 426.594605 
L 382.441875 426.594605 
" style="fill:none;stroke:#ffffff;stroke-linecap:round;"/>
     </g>
     <g id="line2d_136"/>
     <g id="text_28">
      <!-- 5 -->
      <g style="fill:#262626;" transform="translate(12.760938 430.218043)scale(0.1 -0.1)">
       <use xlink:href="#LiberationSans-35"/>
      </g>
     </g>
    </g>
    <g id="ytick_17">
     <g id="line2d_137">
      <path clip-path="url(#peb962dff88)" d="M 25.321875 396.412961 
L 382.441875 396.412961 
" style="fill:none;stroke:#ffffff;stroke-linecap:round;"/>
     </g>
     <g id="line2d_138"/>
     <g id="text_29">
      <!-- 10 -->
      <g style="fill:#262626;" transform="translate(7.2 400.036398)scale(0.1 -0.1)">
       <use xlink:href="#LiberationSans-31"/>
       <use x="55.615234" xlink:href="#LiberationSans-30"/>
      </g>
     </g>
    </g>
   </g>
   <g id="patch_149">
    <path clip-path="url(#peb962dff88)" d="M 264.818053 456.77625 
L 265.978322 456.77625 
L 265.978322 454.564387 
L 264.818053 454.564387 
z
" style="fill:#4c72b0;opacity:0.4;"/>
   </g>
   <g id="patch_150">
    <path clip-path="url(#peb962dff88)" d="M 265.978322 456.77625 
L 267.138591 456.77625 
L 267.138591 455.670318 
L 265.978322 455.670318 
z
" style="fill:#4c72b0;opacity:0.4;"/>
   </g>
   <g id="patch_151">
    <path clip-path="url(#peb962dff88)" d="M 267.138591 456.77625 
L 268.29886 456.77625 
L 268.29886 454.011421 
L 267.138591 454.011421 
z
" style="fill:#4c72b0;opacity:0.4;"/>
   </g>
   <g id="patch_152">
    <path clip-path="url(#peb962dff88)" d="M 268.29886 456.77625 
L 269.459129 456.77625 
L 269.459129 455.117352 
L 268.29886 455.117352 
z
" style="fill:#4c72b0;opacity:0.4;"/>
   </g>
   <g id="patch_153">
    <path clip-path="url(#peb962dff88)" d="M 269.459129 456.77625 
L 270.619398 456.77625 
L 270.619398 451.246591 
L 269.459129 451.246591 
z
" style="fill:#4c72b0;opacity:0.4;"/>
   </g>
   <g id="patch_154">
    <path clip-path="url(#peb962dff88)" d="M 270.619398 456.77625 
L 271.779667 456.77625 
L 271.779667 441.846172 
L 270.619398 441.846172 
z
" style="fill:#4c72b0;opacity:0.4;"/>
   </g>
   <g id="patch_155">
    <path clip-path="url(#peb962dff88)" d="M 271.779667 456.77625 
L 272.939936 456.77625 
L 272.939936 432.445752 
L 271.779667 432.445752 
z
" style="fill:#4c72b0;opacity:0.4;"/>
   </g>
   <g id="patch_156">
    <path clip-path="url(#peb962dff88)" d="M 272.939936 456.77625 
L 274.100205 456.77625 
L 274.100205 425.810162 
L 272.939936 425.810162 
z
" style="fill:#4c72b0;opacity:0.4;"/>
   </g>
   <g id="patch_157">
    <path clip-path="url(#peb962dff88)" d="M 274.100205 456.77625 
L 275.260474 456.77625 
L 275.260474 413.644913 
L 274.100205 413.644913 
z
" style="fill:#4c72b0;opacity:0.4;"/>
   </g>
   <g id="patch_158">
    <path clip-path="url(#peb962dff88)" d="M 275.260474 456.77625 
L 276.420744 456.77625 
L 276.420744 404.797459 
L 275.260474 404.797459 
z
" style="fill:#4c72b0;opacity:0.4;"/>
   </g>
   <g id="patch_159">
    <path clip-path="url(#peb962dff88)" d="M 276.420744 456.77625 
L 277.581013 456.77625 
L 277.581013 407.562289 
L 276.420744 407.562289 
z
" style="fill:#4c72b0;opacity:0.4;"/>
   </g>
   <g id="patch_160">
    <path clip-path="url(#peb962dff88)" d="M 277.581013 456.77625 
L 278.741282 456.77625 
L 278.741282 397.608903 
L 277.581013 397.608903 
z
" style="fill:#4c72b0;opacity:0.4;"/>
   </g>
   <g id="patch_161">
    <path clip-path="url(#peb962dff88)" d="M 278.741282 456.77625 
L 279.901551 456.77625 
L 279.901551 402.585596 
L 278.741282 402.585596 
z
" style="fill:#4c72b0;opacity:0.4;"/>
   </g>
   <g id="patch_162">
    <path clip-path="url(#peb962dff88)" d="M 279.901551 456.77625 
L 281.06182 456.77625 
L 281.06182 399.820766 
L 279.901551 399.820766 
z
" style="fill:#4c72b0;opacity:0.4;"/>
   </g>
   <g id="patch_163">
    <path clip-path="url(#peb962dff88)" d="M 281.06182 456.77625 
L 282.222089 456.77625 
L 282.222089 415.856776 
L 281.06182 415.856776 
z
" style="fill:#4c72b0;opacity:0.4;"/>
   </g>
   <g id="patch_164">
    <path clip-path="url(#peb962dff88)" d="M 282.222089 456.77625 
L 283.382358 456.77625 
L 283.382358 416.409742 
L 282.222089 416.409742 
z
" style="fill:#4c72b0;opacity:0.4;"/>
   </g>
   <g id="patch_165">
    <path clip-path="url(#peb962dff88)" d="M 283.382358 456.77625 
L 284.542627 456.77625 
L 284.542627 424.151264 
L 283.382358 424.151264 
z
" style="fill:#4c72b0;opacity:0.4;"/>
   </g>
   <g id="patch_166">
    <path clip-path="url(#peb962dff88)" d="M 284.542627 456.77625 
L 285.702896 456.77625 
L 285.702896 439.634308 
L 284.542627 439.634308 
z
" style="fill:#4c72b0;opacity:0.4;"/>
   </g>
   <g id="patch_167">
    <path clip-path="url(#peb962dff88)" d="M 285.702896 456.77625 
L 286.863165 456.77625 
L 286.863165 448.481762 
L 285.702896 448.481762 
z
" style="fill:#4c72b0;opacity:0.4;"/>
   </g>
   <g id="patch_168">
    <path clip-path="url(#peb962dff88)" d="M 286.863165 456.77625 
L 288.023434 456.77625 
L 288.023434 446.822865 
L 286.863165 446.822865 
z
" style="fill:#4c72b0;opacity:0.4;"/>
   </g>
   <g id="patch_169">
    <path clip-path="url(#peb962dff88)" d="M 288.023434 456.77625 
L 289.183703 456.77625 
L 289.183703 454.564387 
L 288.023434 454.564387 
z
" style="fill:#4c72b0;opacity:0.4;"/>
   </g>
   <g id="patch_170">
    <path clip-path="url(#peb962dff88)" d="M 289.183703 456.77625 
L 290.343972 456.77625 
L 290.343972 454.564387 
L 289.183703 454.564387 
z
" style="fill:#4c72b0;opacity:0.4;"/>
   </g>
   <g id="patch_171">
    <path clip-path="url(#peb962dff88)" d="M 290.343972 456.77625 
L 291.504242 456.77625 
L 291.504242 456.77625 
L 290.343972 456.77625 
z
" style="fill:#4c72b0;opacity:0.4;"/>
   </g>
   <g id="patch_172">
    <path clip-path="url(#peb962dff88)" d="M 291.504242 456.77625 
L 292.664511 456.77625 
L 292.664511 455.670318 
L 291.504242 455.670318 
z
" style="fill:#4c72b0;opacity:0.4;"/>
   </g>
   <g id="line2d_139">
    <path clip-path="url(#peb962dff88)" d="M 261.402255 456.769532 
L 262.767532 456.664005 
L 263.586699 456.400134 
L 266.044199 455.281812 
L 267.136421 454.995982 
L 267.955588 454.532831 
L 268.501699 453.933812 
L 269.04781 452.860775 
L 269.593921 451.075342 
L 270.140032 448.473507 
L 270.959199 443.325509 
L 272.870588 429.262959 
L 275.055032 412.690643 
L 275.874198 408.348267 
L 276.42031 406.402809 
L 277.239476 404.351536 
L 278.331698 402.156226 
L 278.877809 401.596733 
L 279.150865 401.561209 
L 279.423921 401.71139 
L 279.696976 402.059981 
L 280.243087 403.416456 
L 280.789198 405.743416 
L 281.608365 410.737839 
L 284.065865 428.037784 
L 285.977254 443.434889 
L 286.523365 446.259483 
L 287.069476 448.240297 
L 288.161698 451.090234 
L 289.526976 454.185678 
L 290.346142 455.451339 
L 290.892253 455.93736 
L 291.438364 456.177448 
L 293.895864 456.609659 
L 295.261142 456.756415 
L 296.080309 456.770869 
L 296.080309 456.770869 
" style="fill:none;stroke:#4c72b0;stroke-linecap:round;stroke-width:1.75;"/>
   </g>
   <g id="line2d_140">
    <path clip-path="url(#peb962dff88)" d="M 270.792719 456.77625 
L 270.792719 394.650536 
" style="fill:none;stroke:#4c72b0;stroke-dasharray:6.475,2.8;stroke-dashoffset:0;stroke-width:1.75;"/>
   </g>
   <g id="line2d_141">
    <path clip-path="url(#peb962dff88)" d="M 287.219427 456.77625 
L 287.219427 394.650536 
" style="fill:none;stroke:#4c72b0;stroke-dasharray:6.475,2.8;stroke-dashoffset:0;stroke-width:1.75;"/>
   </g>
   <g id="line2d_142">
    <path clip-path="url(#peb962dff88)" d="M 271.717236 456.77625 
L 271.717236 394.650536 
" style="fill:none;stroke:#4c72b0;stroke-linecap:round;stroke-width:1.75;"/>
   </g>
   <g id="patch_173">
    <path d="M 25.321875 456.77625 
L 25.321875 394.650536 
" style="fill:none;"/>
   </g>
   <g id="patch_174">
    <path d="M 382.441875 456.77625 
L 382.441875 394.650536 
" style="fill:none;"/>
   </g>
   <g id="patch_175">
    <path d="M 25.321875 456.77625 
L 382.441875 456.77625 
" style="fill:none;"/>
   </g>
   <g id="patch_176">
    <path d="M 25.321875 394.650536 
L 382.441875 394.650536 
" style="fill:none;"/>
   </g>
   <g id="text_30">
    <!-- Noise std distribution -->
    <defs>
     <path d="M 52.828125 0 
L 16.015625 58.59375 
Q 16.109375 56.203125 16.265625 53.859375 
Q 16.359375 51.859375 16.421875 49.625 
Q 16.5 47.40625 16.5 45.703125 
L 16.5 0 
L 8.203125 0 
L 8.203125 68.796875 
L 19.046875 68.796875 
L 56.25 9.8125 
Q 56.109375 12.203125 55.953125 14.59375 
Q 55.859375 16.65625 55.765625 19.0625 
Q 55.671875 21.484375 55.671875 23.6875 
L 55.671875 68.796875 
L 64.0625 68.796875 
L 64.0625 0 
z
" id="LiberationSans-4e"/>
     <path d="M 13.484375 24.5625 
Q 13.484375 20.40625 14.328125 16.90625 
Q 15.1875 13.421875 16.96875 10.90625 
Q 18.75 8.40625 21.53125 7 
Q 24.3125 5.609375 28.21875 5.609375 
Q 33.9375 5.609375 37.375 7.90625 
Q 40.828125 10.203125 42.046875 13.71875 
L 49.75 11.53125 
Q 48.921875 9.328125 47.4375 7.109375 
Q 45.953125 4.890625 43.453125 3.09375 
Q 40.96875 1.3125 37.234375 0.15625 
Q 33.5 -0.984375 28.21875 -0.984375 
Q 16.5 -0.984375 10.375 6 
Q 4.25 12.984375 4.25 26.765625 
Q 4.25 34.1875 6.09375 39.328125 
Q 7.953125 44.484375 11.171875 47.703125 
Q 14.40625 50.921875 18.703125 52.359375 
Q 23 53.8125 27.875 53.8125 
Q 34.515625 53.8125 38.984375 51.65625 
Q 43.453125 49.515625 46.15625 45.71875 
Q 48.875 41.9375 50.015625 36.8125 
Q 51.171875 31.6875 51.171875 25.734375 
L 51.171875 24.5625 
z
M 42.09375 31.296875 
Q 41.359375 39.65625 37.84375 43.484375 
Q 34.328125 47.3125 27.734375 47.3125 
Q 25.53125 47.3125 23.109375 46.609375 
Q 20.703125 45.90625 18.65625 44.09375 
Q 16.609375 42.28125 15.1875 39.171875 
Q 13.765625 36.078125 13.578125 31.296875 
z
" id="LiberationSans-65"/>
    </defs>
    <g style="fill:#262626;" transform="translate(148.191563 388.650536)scale(0.12 -0.12)">
     <use xlink:href="#LiberationSans-4e"/>
     <use x="72.216797" xlink:href="#LiberationSans-6f"/>
     <use x="127.832031" xlink:href="#LiberationSans-69"/>
     <use x="150.048828" xlink:href="#LiberationSans-73"/>
     <use x="200.048828" xlink:href="#LiberationSans-65"/>
     <use x="255.664062" xlink:href="#LiberationSans-20"/>
     <use x="283.447266" xlink:href="#LiberationSans-73"/>
     <use x="333.447266" xlink:href="#LiberationSans-74"/>
     <use x="361.230469" xlink:href="#LiberationSans-64"/>
     <use x="416.845703" xlink:href="#LiberationSans-20"/>
     <use x="444.628906" xlink:href="#LiberationSans-64"/>
     <use x="500.244141" xlink:href="#LiberationSans-69"/>
     <use x="522.460938" xlink:href="#LiberationSans-73"/>
     <use x="572.460938" xlink:href="#LiberationSans-74"/>
     <use x="600.244141" xlink:href="#LiberationSans-72"/>
     <use x="633.544922" xlink:href="#LiberationSans-69"/>
     <use x="655.761719" xlink:href="#LiberationSans-62"/>
     <use x="711.376953" xlink:href="#LiberationSans-75"/>
     <use x="766.992188" xlink:href="#LiberationSans-74"/>
     <use x="794.775391" xlink:href="#LiberationSans-69"/>
     <use x="816.992188" xlink:href="#LiberationSans-6f"/>
     <use x="872.607422" xlink:href="#LiberationSans-6e"/>
    </g>
   </g>
  </g>
 </g>
 <defs>
  <clipPath id="p648c6bbbf8">
   <rect height="62.125714" width="357.12" x="25.321875" y="21.89625"/>
  </clipPath>
  <clipPath id="pfea1d4e455">
   <rect height="62.125714" width="357.12" x="25.321875" y="96.447107"/>
  </clipPath>
  <clipPath id="pf80012e85f">
   <rect height="62.125714" width="357.12" x="25.321875" y="170.997964"/>
  </clipPath>
  <clipPath id="p3c7e9f4dbe">
   <rect height="62.125714" width="357.12" x="25.321875" y="245.548821"/>
  </clipPath>
  <clipPath id="p7a270dfc44">
   <rect height="62.125714" width="357.12" x="25.321875" y="320.099679"/>
  </clipPath>
  <clipPath id="peb962dff88">
   <rect height="62.125714" width="357.12" x="25.321875" y="394.650536"/>
  </clipPath>
 </defs>
</svg>
