<svg viewBox="0 0 495 343" xmlns="http://www.w3.org/2000/svg" xmlns:xlink="http://www.w3.org/1999/xlink"><defs><style>*{stroke-linecap:butt;stroke-linejoin:round}</style></defs><g id="figure_1"><path d="M0 344h496V0H0z" fill="#fff" id="patch_1"/><g id="axes_1"><path d="M42.4 72.2h202.9v-65h-203z" fill="#eaeaf2" id="patch_2"/><g id="matplotlib.axis_1"><g id="xtick_1"><path clip-path="url(#pc58628eb66)" d="M83.3 72.2v-65" fill="none" stroke="#fff" stroke-linecap="round" id="line2d_1"/></g><g id="xtick_2"><path clip-path="url(#pc58628eb66)" d="M150.7 72.2v-65" fill="none" stroke="#fff" stroke-linecap="round" id="line2d_3"/></g><g id="xtick_3"><path clip-path="url(#pc58628eb66)" d="M218 72.2v-65" fill="none" stroke="#fff" stroke-linecap="round" id="line2d_5"/></g></g><g id="matplotlib.axis_2"><g id="ytick_1"><path clip-path="url(#pc58628eb66)" d="M42.4 69.2h202.9" fill="none" stroke="#fff" stroke-linecap="round" id="line2d_7"/><g id="text_1"><defs><path d="M51.7 34.4q0-9.9-1.9-16.6-1.8-6.8-5.1-11-3.2-4.2-7.6-6Q32.7-1 27.7-1T18.3.8q-4.3 1.8-7.5 6-3.2 4.1-5 10.9-1.9 6.8-1.9 16.7 0 10.4 1.8 17.2 1.9 6.9 5 10.9 3.3 4 7.7 5.7 4.4 1.6 9.6 1.6 5 0 9.2-1.6 4.3-1.7 7.6-5.7 3.2-4 5-10.9 1.9-6.8 1.9-17.2zm-9 0q0 8.2-.9 13.7-1 5.4-2.9 8.7-1.9 3.2-4.6 4.6-2.8 1.3-6.3 1.3-3.7 0-6.6-1.4-2.8-1.3-4.7-4.6-2-3.2-3-8.7-.9-5.4-.9-13.6 0-7.9 1-13.3t3-8.7q1.9-3.3 4.6-4.8 2.8-1.4 6.4-1.4 3.4 0 6.2 1.4 2.8 1.5 4.7 4.8 2 3.3 3 8.7 1 5.4 1 13.3z" id="LiberationSans-30"/><path d="M9.1 0v10.7h9.6V0z" id="LiberationSans-2e"/></defs><g transform="matrix(.1 0 0 -.1 21.5 72.9)" fill="#262626"><use xlink:href="#LiberationSans-30"/><use x="55.6" xlink:href="#LiberationSans-2e"/><use x="83.4" xlink:href="#LiberationSans-30"/></g></g></g><g id="ytick_2"><path clip-path="url(#pc58628eb66)" d="M42.4 35.3h202.9" fill="none" stroke="#fff" stroke-linecap="round" id="line2d_9"/><g id="text_2"><defs><path d="M5 0v6.2q2.5 5.7 6.1 10 3.6 4.5 7.6 8l7.8 6.6q3.9 3 7 6t5 6.4q2 3.3 2 7.5 0 3-1 5.1-.8 2.3-2.4 3.8-1.7 1.5-4 2.2-2.3.8-5.2.8-2.6 0-5-.7-2.2-.8-4-2.2-1.9-1.5-3-3.7-1.2-2.1-1.5-5l-9 .8q.5 3.7 2 7Q9.2 62 12 64.5q2.8 2.5 6.8 4 4 1.3 9.2 1.3 5.2 0 9.2-1.2 4-1.2 6.7-3.6 2.8-2.4 4.2-6 1.5-3.4 1.5-8 0-3.5-1.2-6.6-1.3-3.1-3.4-6-2-2.8-4.8-5.4-2.7-2.7-5.7-5.2l-6-5q-3-2.4-5.7-5-2.6-2.4-4.7-5t-3.3-5.3h35.9V0z" id="LiberationSans-32"/></defs><g transform="matrix(.1 0 0 -.1 21.5 39)" fill="#262626"><use xlink:href="#LiberationSans-30"/><use x="55.6" xlink:href="#LiberationSans-2e"/><use x="83.4" xlink:href="#LiberationSans-32"/></g></g></g><g id="text_3"><defs><path d="M51.4 26.7q0-6-1-11.1t-3.2-8.8q-2.3-3.6-6-5.7-3.7-2-9.2-2-5.7 0-10 2-4.2 2.2-6.4 7.1h-.3l.1-.9v-2l.1-2.5v-23.5H6.7V48.9l-.2 2.5v1.4h8.4l.2-1 .1-2.1.2-2.7v-2.7h.2q1.2 2.6 2.8 4.4 1.6 1.7 3.6 2.9 2 1.1 4.4 1.6 2.5.6 5.6.6 5.5 0 9.2-2 3.7-2 6-5.5t3.2-8.5q1-5 1-11.1zm-9.2-.2q0 4.8-.6 8.7-.6 3.8-2 6.4-1.5 2.6-3.9 4t-6 1.4q-2.9 0-5.5-.9-2.6-.8-4.5-3.1-2-2.4-3-6.5-1.2-4.1-1.2-10.7 0-5.6 1-9.5.9-3.9 2.7-6.3 1.8-2.4 4.4-3.4 2.6-1 6-1 3.7 0 6.1 1.3 2.4 1.4 3.9 4.1 1.4 2.7 2 6.6.6 3.9.6 8.9z" id="LiberationSans-70"/><path d="M6.2 26q0 6.8 1 13t3.2 11.9q2.2 5.7 5.7 11 3.4 5.4 8.1 10.6h8.5q-4.6-5.2-8-10.6-3.3-5.4-5.4-11.1-2.2-5.7-3.2-12-1-6.1-1-13 0-6.7 1-13Q17 6.8 19.3 1q2.1-5.7 5.5-11.1 3.3-5.4 8-10.5h-8.6q-4.7 5.1-8.1 10.5-3.5 5.4-5.7 11-2.2 5.8-3.2 12t-1 13z" id="LiberationSans-28"/><path d="M29.5 0q-1.9-4.8-3.8-8.6-2-3.9-4.3-6.6-2.4-2.7-5.3-4.1-3-1.4-6.8-1.4h-3q-1.5.1-3 .5v6.6q.9-.2 2-.2l2-.1q4 0 7.2 2.9Q18-8.2 20.4-2l.8 2.1-21 52.6h9.4l11.2-29.2 1.2-3.5 1.5-4.4 1.3-4 .7-2.1.8 2 1.2 3.6 1.5 4 1.2 3.5 10.3 30.1h9.3z" id="LiberationSans-79"/><path d="M27 25.8q0-6.8-1-13T22.9.8q-2.1-5.6-5.6-11-3.4-5.4-8.1-10.5H.6q4.6 5.1 8 10.5Q11.8-4.8 14 .9q2.2 5.8 3.2 12t1 13q0 6.8-1 13T14 50.8q-2.1 5.7-5.5 11.1-3.3 5.4-8 10.6h8.6q4.7-5.2 8.1-10.5 3.5-5.4 5.6-11.1 2.2-5.7 3.3-12 1-6.1 1-13z" id="LiberationSans-29"/></defs><g transform="matrix(0 -.11 -.11 0 15.2 49.2)" fill="#262626"><use xlink:href="#LiberationSans-70"/><use x="55.6" xlink:href="#LiberationSans-28"/><use x="88.9" xlink:href="#LiberationSans-79"/><use x="138.9" xlink:href="#LiberationSans-29"/></g></g></g><path clip-path="url(#pc58628eb66)" d="M87.7 69.2H206h-10.3l-1-.1h-1.8l-1-.1-.8-.1-1-.1-1-.2-.8-.1-1-.3-.9-.3-1-.3-.9-.4-.9-.5-1-.5-.8-.5-1-.6-1-.7-.8-.7-1-.8-.9-.9-1-1-.9-1-.9-1.2-1-1.1-.8-1.2-1-1.1-1-1.2-.8-1.2-1-1.5-.9-1.7-1-2-.9-2.3-.9-2.4-1-2.5-.8-2.5-1-2.5-1-2.4-.8-2.4-1-2.2-.9-2.3-1-2.3-.9-2.3-.9-2.2-1-2.1-.8-1.9-1-1.5-1-1-.8-.8-1-.4-.9-.2-1-.2-.9-.3-.9-.3-1-.3-.8-.2-1-.1-1 .1-.8.5-1 .8-.9 1.1-1 1.4-.9 1.5-.9 1.7-1 1.8-.8 2-1 2.3-1 2.4-.8 2.6-1 2.6-.9 2.5-1 2.5-.9 2.3-.9 2.2-1 2-.8 2-1 1.7-1 1.8-.8 1.6-1 1.5-.9 1.4-1 1.3-.9 1.2-.9 1.2-1 1.3-.8 1.3-1 1.3-1 1.2-.8 1-1 1-.9.8-1 .6-.9.6-.9.5-1 .4-.8.4-1 .4-1 .3-.8.4-1 .2-.9.3-1 .2-.9.1-.9.2-1 .1-.8.1-1 .1h-1l-.8.1h-1.9l-1 .1h-4.6z" fill="#4c72b0" fill-opacity=".3" id="PolyCollection_1"/><path clip-path="url(#pc58628eb66)" d="M87.7 69.2h7.5l3.7-.4 2.8-.4 1.8-.5 1.9-.6 2.8-1.1 1.8-1 1.9-1.1 1-.8 1.8-2 2.8-3.8 4.6-6.4L124 48l1.9-3.6 1.8-4 1.9-4.4 5.6-14.8 1.8-4 1.9-3.1.9-1.4 1-1 .9-.9.9-.5 1-.1h.9l5.5 1.6 1 .4.9.8 1 1 .9 1.5.9 1.9 1.8 4.3 5.6 13.9 4.7 12.2.9 2 1 1.7 1.8 2.7L176 61l1.8 1.9 1.9 1.5 1.9 1.3 1.8 1 1.9.9 1.8.6 1.9.4 2.8.4 4.6.1 9.3.1h0" fill="none" stroke="#4c72b0" stroke-linecap="round" stroke-width="1.8" id="line2d_11"/><path clip-path="url(#pc58628eb66)" d="M135.1 72.2v-65" fill="none" stroke="#4c72b0" stroke-linecap="round" stroke-width="1.8" id="line2d_12"/><path d="M42.4 72.2v-65" fill="none" id="patch_3"/><path d="M245.3 72.2v-65" fill="none" id="patch_4"/><path d="M42.4 72.2h202.9" fill="none" id="patch_5"/><path d="M42.4 7.2h202.9" fill="none" id="patch_6"/></g><g id="axes_2"><path d="M285.8 72.2h203v-65h-203z" fill="#eaeaf2" id="patch_7"/><g id="matplotlib.axis_3"><g id="xtick_4"><path clip-path="url(#pccd2606774)" d="M326.8 72.2v-65" fill="none" stroke="#fff" stroke-linecap="round" id="line2d_13"/></g><g id="xtick_5"><path clip-path="url(#pccd2606774)" d="M394.2 72.2v-65" fill="none" stroke="#fff" stroke-linecap="round" id="line2d_15"/></g><g id="xtick_6"><path clip-path="url(#pccd2606774)" d="M461.5 72.2v-65" fill="none" stroke="#fff" stroke-linecap="round" id="line2d_17"/></g></g><g id="matplotlib.axis_4"><g id="ytick_3"><path clip-path="url(#pccd2606774)" d="M285.8 69.2h203" fill="none" stroke="#fff" stroke-linecap="round" id="line2d_19"/><g transform="matrix(.1 0 0 -.1 265 72.9)" fill="#262626" id="text_4"><use xlink:href="#LiberationSans-30"/><use x="55.6" xlink:href="#LiberationSans-2e"/><use x="83.4" xlink:href="#LiberationSans-30"/></g></g><g id="ytick_4"><path clip-path="url(#pccd2606774)" d="M285.8 37.3h203" fill="none" stroke="#fff" stroke-linecap="round" id="line2d_21"/><g transform="matrix(.1 0 0 -.1 265 41)" fill="#262626" id="text_5"><use xlink:href="#LiberationSans-30"/><use x="55.6" xlink:href="#LiberationSans-2e"/><use x="83.4" xlink:href="#LiberationSans-32"/></g></g></g><path clip-path="url(#pccd2606774)" d="M295 69.2H424.9h-13.2l-1-.1-1.1-.1-1-.1-1-.1-1-.2-1-.2-1.1-.2-1-.3-1-.3-1-.3-1.1-.3-1-.3-1-.4-1-.5-1-.6-1.1-.7-1-.7-1-.9-1-.9-1-1-1.1-1-1-1.1-1-1.2-1-1.2-1.1-1.3-1-1.4-1-1.7-1-1.9-1-2.1-1.1-2.4-1-2.4-1-2.4-1-2.3-1.1-2.2-1-2.2-1-2-1-2-1-2-1.1-2-1-1.9-1-1.9-1-2-1-2-1.1-2-1-1.9-1-1.7-1-1.3-1.1-1-1-.3h-1l-1 .5-1 1-1.1 1-1 1-1 1.1-1 1-1.1 1.1-1 1.4-1 1.8-1 2.3-1 2.8-1.1 3.3-1 3.3-1 3.2-1 3-1 2.7-1.1 2.5-1 2.2-1 2.1-1 2-1.1 1.8-1 1.8-1 1.6-1 1.6-1 1.4-1.1 1.4-1 1.2-1 1-1 1-1 1-1.1.8-1 .7-1 .5-1 .5-1.1.4-1 .3-1 .3-1 .2-1 .3-1.1.3-1 .4-1 .3-1 .2-1.1.2-1 .2h-1l-1 .1h-1l-1.1.1h-8.1l-1.1.1h-6.1z" fill="#4c72b0" fill-opacity=".3" id="PolyCollection_2"/><path clip-path="url(#pccd2606774)" d="M295 69.2h15.4l4-.3 2.1-.4 2-.5 3.1-1 3.1-.8 2-.9 2-1.2 2.1-1.7 2-2.1 2.1-2.6 2-3 2.1-3.4 2-3.8 2-4.3 2.1-5.2 2-6.2 2.1-6.6 1-2.8 1-2.3 1-1.8 1.1-1.4 5.1-5.3 1-.9 1-.5h1l1.1.4 1 .9 1 1.3 2 3.7 5.2 9.7 4 8 2.1 4.4 5.1 11.6 1 2 2.1 3 2 2.5 3.1 3.3 2 2 2 1.5 2.1 1.3 2 .9 3.1 1 3.1.7 3 .5 3.1.2h5.1l8.2.1h0" fill="none" stroke="#4c72b0" stroke-linecap="round" stroke-width="1.8" id="line2d_23"/><path clip-path="url(#pccd2606774)" d="M375.2 72.2v-65" fill="none" stroke="#4c72b0" stroke-linecap="round" stroke-width="1.8" id="line2d_24"/><path d="M285.8 72.2v-65" fill="none" id="patch_8"/><path d="M488.8 72.2v-65" fill="none" id="patch_9"/><path d="M285.8 72.2h203" fill="none" id="patch_10"/><path d="M285.8 7.2h203" fill="none" id="patch_11"/></g><g id="axes_3"><path d="M42.4 150.2h202.9v-65h-203z" fill="#eaeaf2" id="patch_12"/><g id="matplotlib.axis_5"><g id="xtick_7"><path clip-path="url(#p5a9bb52358)" d="M83.3 150.2v-65" fill="none" stroke="#fff" stroke-linecap="round" id="line2d_25"/></g><g id="xtick_8"><path clip-path="url(#p5a9bb52358)" d="M150.7 150.2v-65" fill="none" stroke="#fff" stroke-linecap="round" id="line2d_27"/></g><g id="xtick_9"><path clip-path="url(#p5a9bb52358)" d="M218 150.2v-65" fill="none" stroke="#fff" stroke-linecap="round" id="line2d_29"/></g></g><g id="matplotlib.axis_6"><g id="ytick_5"><path clip-path="url(#p5a9bb52358)" d="M42.4 147.2h202.9" fill="none" stroke="#fff" stroke-linecap="round" id="line2d_31"/><g transform="matrix(.1 0 0 -.1 21.5 150.9)" fill="#262626" id="text_6"><use xlink:href="#LiberationSans-30"/><use x="55.6" xlink:href="#LiberationSans-2e"/><use x="83.4" xlink:href="#LiberationSans-30"/></g></g><g id="ytick_6"><path clip-path="url(#p5a9bb52358)" d="M42.4 115h202.9" fill="none" stroke="#fff" stroke-linecap="round" id="line2d_33"/><g transform="matrix(.1 0 0 -.1 21.5 118.7)" fill="#262626" id="text_7"><use xlink:href="#LiberationSans-30"/><use x="55.6" xlink:href="#LiberationSans-2e"/><use x="83.4" xlink:href="#LiberationSans-32"/></g></g><g transform="matrix(0 -.11 -.11 0 15.2 127.2)" fill="#262626" id="text_8"><use xlink:href="#LiberationSans-70"/><use x="55.6" xlink:href="#LiberationSans-28"/><use x="88.9" xlink:href="#LiberationSans-79"/><use x="138.9" xlink:href="#LiberationSans-29"/></g></g><path clip-path="url(#p5a9bb52358)" d="M59.7 147.2H185.2h-6l-1-.1h-1l-1-.1h-4.9l-1-.1h-2.9l-1-.1h-1l-1-.1h-1l-1-.2-1-.1-1-.2-1-.2-.9-.3-1-.4-1-.4-1-.4-1-.4-1-.5-1-.5-1-.6-.9-.8-1-1-1-1.2-1-1.4-1-1.6-1-1.6-1-1.6-1-1.6-.9-1.4-1-1.3-1-1.4-1-1.3-1-1.5-1-1.5-1-1.8-1-1.8-1-2-.9-2.1-1-2.2-1-2.4-1-2.5-1-2.6-1-2.6-1-2.5-1-2.3-.9-2-1-1.8-1-1.5-1-1.2-1-1-1-1-1-.7-1-.6-.9-.5h-1l-1 .3-1 .8-1 1.2-1 1.6-1 1.7-1 2-.9 2-1 2.3-1 2.2-1 2.4-1 2.2-1 2.3-1 2.2-1 2.1-1 2.1-.9 2.2-1 2-1 2.1-1 2-1 1.9-1 1.8-1 1.7-1 1.8-.9 1.7-1 1.6-1 1.5-1 1.3-1 1.1-1 1-1 .9-1 .8-.9.8-1 .7-1 .8-1 .7-1 .5-1 .5-1 .3-1 .3-.9.1-1 .2-1 .2-1 .1-1 .2-1 .1-1 .2h-1l-1 .2h-.9l-1 .1-1 .1h-2l-1 .1h-3.9z" fill="#4c72b0" fill-opacity=".3" id="PolyCollection_3"/><path clip-path="url(#p5a9bb52358)" d="M59.7 147.2h6l3.9-.3 4-.5 4.9-.8 2-.6 1-.5 2-1.2 2.9-2.3 2-1.7 2-2.1 2-2.8 2.9-5 3-5.5 3-6.1 4.8-10.9 4-9 2-4 1-1.8 1-1.6 1-1.2 1-.8 1-.4.9.1 1 .5 1 .6 2 1.6 1 1 1 1.3 1 1.5.9 1.7 1 2 2 4.9 3 7.7 2 4.6 1.9 4 2 3.7 2 3 4.9 7 4 6.2 1 1.2.9 1 1 .8 2 1.1 4 1.7 1.9.7 2 .4 3 .3 5.9.2 8.9.2 4.9.1h1" fill="none" stroke="#4c72b0" stroke-linecap="round" stroke-width="1.8" id="line2d_35"/><path clip-path="url(#p5a9bb52358)" d="M139.6 150.2v-65" fill="none" stroke="#4c72b0" stroke-linecap="round" stroke-width="1.8" id="line2d_36"/><path d="M42.4 150.2v-65" fill="none" id="patch_13"/><path d="M245.3 150.2v-65" fill="none" id="patch_14"/><path d="M42.4 150.2h202.9" fill="none" id="patch_15"/><path d="M42.4 85.2h202.9" fill="none" id="patch_16"/></g><g id="axes_4"><path d="M285.8 150.2h203v-65h-203z" fill="#eaeaf2" id="patch_17"/><g id="matplotlib.axis_7"><g id="xtick_10"><path clip-path="url(#pddb838232a)" d="M326.8 150.2v-65" fill="none" stroke="#fff" stroke-linecap="round" id="line2d_37"/></g><g id="xtick_11"><path clip-path="url(#pddb838232a)" d="M394.2 150.2v-65" fill="none" stroke="#fff" stroke-linecap="round" id="line2d_39"/></g><g id="xtick_12"><path clip-path="url(#pddb838232a)" d="M461.5 150.2v-65" fill="none" stroke="#fff" stroke-linecap="round" id="line2d_41"/></g></g><g id="matplotlib.axis_8"><g id="ytick_7"><path clip-path="url(#pddb838232a)" d="M285.8 147.2h203" fill="none" stroke="#fff" stroke-linecap="round" id="line2d_43"/><g transform="matrix(.1 0 0 -.1 265 150.9)" fill="#262626" id="text_9"><use xlink:href="#LiberationSans-30"/><use x="55.6" xlink:href="#LiberationSans-2e"/><use x="83.4" xlink:href="#LiberationSans-30"/></g></g><g id="ytick_8"><path clip-path="url(#pddb838232a)" d="M285.8 114.7h203" fill="none" stroke="#fff" stroke-linecap="round" id="line2d_45"/><g transform="matrix(.1 0 0 -.1 265 118.3)" fill="#262626" id="text_10"><use xlink:href="#LiberationSans-30"/><use x="55.6" xlink:href="#LiberationSans-2e"/><use x="83.4" xlink:href="#LiberationSans-32"/></g></g></g><path clip-path="url(#pddb838232a)" d="M314.2 147.2H447.5 431.8l-1-.1h-1.1l-1-.1h-2.1l-1.1-.1h-2.1l-1-.1-1.1-.1-1-.1-1.1-.2-1-.2-1.1-.1-1-.2-1.1-.3-1-.2-1.1-.4-1-.5-1.1-.6-1-.8-1.1-1-1-1-1.1-1.3-1-1.3-1.1-1.4-1-1.4-1.1-1.5-1-1.6-1.1-1.8-1-2.1-1.1-2.3-1-2.6-1.1-2.7-1-2.8-1.1-2.8-1-2.7-1.1-2.7-1-2.4-1.1-2.4-1-2.2-1.1-2.2-1-2.2-1.1-2.1-1-2-1.1-1.7-1-1.6-1.1-1.3-1-1-1.1-.7-1-.2-1.1.3-1 .7-1.1.8-1 1.1-1.1 1.2-1 1.4-1.1 1.5-1 1.7-1.1 1.7-1 2-1.1 2-1 2.2-1.1 2.2-1 2.3-1.1 2.5-1 2.4-1.1 2.4-1 2.2-1.1 2.1-1 2-1.1 1.9-1 1.7-1 1.7-1.1 1.6-1 1.6-1.1 1.5-1 1.6-1.1 1.4-1 1.4-1.1 1.4-1 1.3-1.1 1-1 1-1.1.9-1 .7-1.1.5-1 .5-1.1.5-1 .4-1.1.3-1 .3-1.1.2-1 .1-1.1.2h-1l-1.1.2h-3.1l-1.1.1h-1l-1.1.1h-1l-1.1.1-1 .1h-2.1l-1.1.1h-3.1z" fill="#4c72b0" fill-opacity=".3" id="PolyCollection_4"/><path clip-path="url(#pddb838232a)" d="M314.2 147.2h5.3l12.6-.7 2-.3 2.2-.5 2-.7 2.2-1 2-1.2 1.1-.8 1-1 2.2-2.4 2-2.8 3.2-4.5 3.2-5 2-3.5 2.2-4 3.1-7.1 3.2-7 2-4.2 2.2-3.7 2-3.2L374 91l1.1-1 1-1 1.1-.6 1-.3 1.1.2 1 .6 1.1 1 1 1.4 1.1 1.6 2 3.7 3.2 6.5 2.1 4.6 2.1 5 5.3 13.7 2 4.4 2.2 3.4 3.1 4.3 2.1 2.5 2.1 2.1 1 .8 1.1.6 1 .5 2.2.6 3.1.6 3.2.5 3.1.2 6.3.2h4.2l7.4.1h5.2" fill="none" stroke="#4c72b0" stroke-linecap="round" stroke-width="1.8" id="line2d_47"/><path clip-path="url(#pddb838232a)" d="M385.8 150.2v-65" fill="none" stroke="#4c72b0" stroke-linecap="round" stroke-width="1.8" id="line2d_48"/><path d="M285.8 150.2v-65" fill="none" id="patch_18"/><path d="M488.8 150.2v-65" fill="none" id="patch_19"/><path d="M285.8 150.2h203" fill="none" id="patch_20"/><path d="M285.8 85.2h203" fill="none" id="patch_21"/></g><g id="axes_5"><path d="M42.4 228.2h202.9v-65h-203z" fill="#eaeaf2" id="patch_22"/><g id="matplotlib.axis_9"><g id="xtick_13"><path clip-path="url(#p5ab3ebaa93)" d="M83.3 228.2v-65" fill="none" stroke="#fff" stroke-linecap="round" id="line2d_49"/></g><g id="xtick_14"><path clip-path="url(#p5ab3ebaa93)" d="M150.7 228.2v-65" fill="none" stroke="#fff" stroke-linecap="round" id="line2d_51"/></g><g id="xtick_15"><path clip-path="url(#p5ab3ebaa93)" d="M218 228.2v-65" fill="none" stroke="#fff" stroke-linecap="round" id="line2d_53"/></g></g><g id="matplotlib.axis_10"><g id="ytick_9"><path clip-path="url(#p5ab3ebaa93)" d="M42.4 225.2h202.9" fill="none" stroke="#fff" stroke-linecap="round" id="line2d_55"/><g transform="matrix(.1 0 0 -.1 21.5 228.9)" fill="#262626" id="text_11"><use xlink:href="#LiberationSans-30"/><use x="55.6" xlink:href="#LiberationSans-2e"/><use x="83.4" xlink:href="#LiberationSans-30"/></g></g><g id="ytick_10"><path clip-path="url(#p5ab3ebaa93)" d="M42.4 193.3h202.9" fill="none" stroke="#fff" stroke-linecap="round" id="line2d_57"/><g transform="matrix(.1 0 0 -.1 21.5 197)" fill="#262626" id="text_12"><use xlink:href="#LiberationSans-30"/><use x="55.6" xlink:href="#LiberationSans-2e"/><use x="83.4" xlink:href="#LiberationSans-32"/></g></g><g transform="matrix(0 -.11 -.11 0 15.2 205.2)" fill="#262626" id="text_13"><use xlink:href="#LiberationSans-70"/><use x="55.6" xlink:href="#LiberationSans-28"/><use x="88.9" xlink:href="#LiberationSans-79"/><use x="138.9" xlink:href="#LiberationSans-29"/></g></g><path clip-path="url(#p5ab3ebaa93)" d="M74.3 225.2H205.5 191.3l-1.1-.1h-1l-1-.2H187l-1-.2-1-.1-1.1-.2-1-.1-1-.2-1.1-.3-1-.2-1-.4-1.1-.4-1-.4-1-.4-1.1-.5-1-.7-1.1-.7-1-.9-1-1-1.1-1.1-1-1.3-1-1.3-1.1-1.6-1-1.6-1-1.9-1.1-2-1-2-1-2.2-1.1-2.2-1-2-1-2.1-1.1-2-1-2.1-1-2.4-1.1-2.5-1-2.8-1-2.9-1.1-2.7-1-2.5-1-2.2-1.1-1.9-1-1.6-1-1.4-1.1-1.4-1-1.1-1-.9-1.1-.4-1 .2-1 .5-1.1.8-1 1-1 1.3-1.1 1.5-1 1.7-1 1.9-1.1 2-1 1.9-1 1.9-1.1 1.8-1 1.7-1 1.9-1.1 2-1 2.3-1 2.6-1.1 2.7-1 2.8-1.1 2.6-1 2.4-1 2.3-1.1 2-1 1.8-1 1.5-1.1 1.4-1 1.2-1 1.1-1.1 1-1 1-1 1-1.1 1.2-1 1-1 1-1.1.8-1 .7-1 .6-1.1.4-1 .4-1 .2-1.1.2-1 .1-1 .1-1.1.1h-1l-1 .1-1.1.1h-1l-1 .1-1.1.1H80.5l-1 .1H74.2z" fill="#4c72b0" fill-opacity=".3" id="PolyCollection_5"/><path clip-path="url(#p5ab3ebaa93)" d="M74.3 225.2h14.4l6.3-.4 4-.4 2.2-.4 1-.4 1-.4 1-.6 1-.7 2.2-1.8 6.2-6.3 1-1.2 1-1.4 1-1.5 2.1-3.8 2.1-4.7 5.2-13 2-3.9 3.1-5.4 3.1-5.8 1-1.7 1.1-1.5 1-1.2 1-1 1.1-.9 1-.5 1-.2 1.1.4 1 .9 1 1.1 2.2 2.8 1 1.6 1 2 1 2.1 2.1 5.2 3.1 8.2 2 4.5 3.2 6.1 3.1 6.5 2 3.8 2.1 3.2 2.1 2.6 2 2.1 2.1 1.6 2.1 1.2 2 .8 2.1.8 2.1.5 3.1.5 4.1.4 3.2.1 13.4.1h0" fill="none" stroke="#4c72b0" stroke-linecap="round" stroke-width="1.8" id="line2d_59"/><path clip-path="url(#p5ab3ebaa93)" d="M135.4 228.2v-65" fill="none" stroke="#4c72b0" stroke-linecap="round" stroke-width="1.8" id="line2d_60"/><path d="M42.4 228.2v-65" fill="none" id="patch_23"/><path d="M245.3 228.2v-65" fill="none" id="patch_24"/><path d="M42.4 228.2h202.9" fill="none" id="patch_25"/><path d="M42.4 163.2h202.9" fill="none" id="patch_26"/></g><g id="axes_6"><path d="M285.8 228.2h203v-65h-203z" fill="#eaeaf2" id="patch_27"/><g id="matplotlib.axis_11"><g id="xtick_16"><path clip-path="url(#p99bc34660b)" d="M326.8 228.2v-65" fill="none" stroke="#fff" stroke-linecap="round" id="line2d_61"/></g><g id="xtick_17"><path clip-path="url(#p99bc34660b)" d="M394.2 228.2v-65" fill="none" stroke="#fff" stroke-linecap="round" id="line2d_63"/></g><g id="xtick_18"><path clip-path="url(#p99bc34660b)" d="M461.5 228.2v-65" fill="none" stroke="#fff" stroke-linecap="round" id="line2d_65"/></g></g><g id="matplotlib.axis_12"><g id="ytick_11"><path clip-path="url(#p99bc34660b)" d="M285.8 225.2h203" fill="none" stroke="#fff" stroke-linecap="round" id="line2d_67"/><g transform="matrix(.1 0 0 -.1 265 228.9)" fill="#262626" id="text_14"><use xlink:href="#LiberationSans-30"/><use x="55.6" xlink:href="#LiberationSans-2e"/><use x="83.4" xlink:href="#LiberationSans-30"/></g></g><g id="ytick_12"><path clip-path="url(#p99bc34660b)" d="M285.8 191.3h203" fill="none" stroke="#fff" stroke-linecap="round" id="line2d_69"/><g transform="matrix(.1 0 0 -.1 265 195)" fill="#262626" id="text_15"><use xlink:href="#LiberationSans-30"/><use x="55.6" xlink:href="#LiberationSans-2e"/><use x="83.4" xlink:href="#LiberationSans-32"/></g></g></g><path clip-path="url(#p99bc34660b)" d="M306 225.2H435.8h-11.1l-1.1-.1h-1l-1-.2h-1l-1.1-.2-1-.1-1-.2h-1l-1.1-.2h-1l-1-.2-1-.2-1.1-.2-1-.2-1-.3-1-.3-1.1-.3-1-.4-1-.4-1-.4-1-.4-1.1-.5-1-.6-1-.7-1-1-1.1-1.3-1-1.5-1-1.7-1-2-1.1-2-1-2.2-1-2.2-1-2.2-1.1-2.2-1-2.2-1-2.3-1-2.3-1.1-2.5-1-2.5-1-2.6-1-2.6-1-2.4-1.1-2.4-1-2.2-1-2-1-1.9-1.1-1.5-1-1.2-1-.9-1-.7-1.1-.5-1-.3-1-.4-1-.3-1.1-.4-1-.4-1-.2-1 .4-1.1.9-1 1.5-1 2-1 2-1 2.2-1.1 2-1 2-1 2.2-1 2.1-1.1 2.3-1 2.5-1 2.5-1 2.7-1.1 2.7-1 2.7-1 2.5-1 2.3-1.1 2-1 1.9-1 1.6-1 1.6-1.1 1.5-1 1.4-1 1.3-1 1.3-1 1-1.1 1-1 .8-1 .6-1 .6-1.1.5-1 .6-1 .6-1 .6-1.1.5-1 .5-1 .4-1 .3-1.1.2-1 .2-1 .2-1 .1-1 .1h-1.1l-1 .1H312l-1 .1H306z" fill="#4c72b0" fill-opacity=".3" id="PolyCollection_6"/><path clip-path="url(#p99bc34660b)" d="M306 225.2h13.3l3-.3 3.1-.5 2-.5 2.1-.9 3-1.7 4.2-2.3 1-.8 1-1 2-2.3 2.1-2.7 2-3 2.1-3.6 2-4.3 2-5.2 3.2-8 2-4.7 3-6.3 4.2-8.2 1-1.5 1-1 1-.3 1 .2 6.2 2.3 1 .7 1 1 1 1.1 1.1 1.5 1 1.8 2 4.3 2.1 4.8 5.2 12.5 5 11.1 2.1 4.2 2 3.7 1 1.5 1.1 1.3 1 1 1 .7 2.1 1 3 1.3 3.2 1 3 .7 3 .4 9.3 1H436" fill="none" stroke="#4c72b0" stroke-linecap="round" stroke-width="1.8" id="line2d_71"/><path clip-path="url(#p99bc34660b)" d="M365.3 228.2v-65" fill="none" stroke="#4c72b0" stroke-linecap="round" stroke-width="1.8" id="line2d_72"/><path d="M285.8 228.2v-65" fill="none" id="patch_28"/><path d="M488.8 228.2v-65" fill="none" id="patch_29"/><path d="M285.8 228.2h203" fill="none" id="patch_30"/><path d="M285.8 163.2h203" fill="none" id="patch_31"/></g><g id="axes_7"><path d="M42.4 306.2h202.9v-65h-203z" fill="#eaeaf2" id="patch_32"/><g id="matplotlib.axis_13"><g id="xtick_19"><path clip-path="url(#p544abfa7b1)" d="M83.3 306.2v-65" fill="none" stroke="#fff" stroke-linecap="round" id="line2d_73"/><g id="text_16"><defs><path d="M5 29.7v7.1h48.5v-7.1z" id="LiberationSans-2212"/><path d="M51.4 22.4q0-5.2-1.5-9.5-1.6-4.3-4.7-7.4-3-3-7.6-4.8Q33-1 27-1 21.6-1 17.5.3q-4 1.3-6.8 3.5Q8 6 6.3 9 4.7 12 4 15.4l8.9 1q.5-2 1.5-3.8 1-1.8 2.7-3.3Q18.7 8 21.2 7q2.5-.8 6-.8 3.4 0 6.2 1 2.8 1.1 4.8 3.1 2 2.1 3 5 1 3 1 7 0 3-1 5.7t-2.9 4.6q-1.9 2-4.6 3-2.8 1.1-6.3 1.1-2.2 0-4-.4-2-.4-3.5-1-1.6-.7-2.9-1.6l-2.4-2H6l2.3 37.1h39.1v-7.5h-31L15 39.5q2.3 1.8 5.8 3 3.6 1.4 8.4 1.4 5.1 0 9.2-1.6 4.1-1.5 7-4.4 2.9-2.8 4.5-6.8 1.5-4 1.5-8.7z" id="LiberationSans-35"/></defs><g transform="matrix(.1 0 0 -.1 77.6 320.4)" fill="#262626"><use xlink:href="#LiberationSans-2212"/><use x="58.4" xlink:href="#LiberationSans-35"/></g></g></g><g id="xtick_20"><path clip-path="url(#p544abfa7b1)" d="M150.7 306.2v-65" fill="none" stroke="#fff" stroke-linecap="round" id="line2d_75"/><use xlink:href="#LiberationSans-30" transform="matrix(.1 0 0 -.1 148 320.4)" fill="#262626" id="text_17"/></g><g id="xtick_21"><path clip-path="url(#p544abfa7b1)" d="M218 306.2v-65" fill="none" stroke="#fff" stroke-linecap="round" id="line2d_77"/><use xlink:href="#LiberationSans-35" transform="matrix(.1 0 0 -.1 215.3 320.4)" fill="#262626" id="text_18"/></g><use xlink:href="#LiberationSans-79" transform="matrix(.11 0 0 -.11 141 334.5)" fill="#262626" id="text_19"/></g><g id="matplotlib.axis_14"><g id="ytick_13"><path clip-path="url(#p544abfa7b1)" d="M42.4 303.2h202.9" fill="none" stroke="#fff" stroke-linecap="round" id="line2d_79"/><g transform="matrix(.1 0 0 -.1 21.5 306.8)" fill="#262626" id="text_20"><use xlink:href="#LiberationSans-30"/><use x="55.6" xlink:href="#LiberationSans-2e"/><use x="83.4" xlink:href="#LiberationSans-30"/></g></g><g id="ytick_14"><path clip-path="url(#p544abfa7b1)" d="M42.4 270.7h202.9" fill="none" stroke="#fff" stroke-linecap="round" id="line2d_81"/><g transform="matrix(.1 0 0 -.1 21.5 274.4)" fill="#262626" id="text_21"><use xlink:href="#LiberationSans-30"/><use x="55.6" xlink:href="#LiberationSans-2e"/><use x="83.4" xlink:href="#LiberationSans-32"/></g></g><g transform="matrix(0 -.11 -.11 0 15.2 283.2)" fill="#262626" id="text_22"><use xlink:href="#LiberationSans-70"/><use x="55.6" xlink:href="#LiberationSans-28"/><use x="88.9" xlink:href="#LiberationSans-79"/><use x="138.9" xlink:href="#LiberationSans-29"/></g></g><path clip-path="url(#p544abfa7b1)" d="M91.6 303.2H226 213.5l-1-.1h-2.1l-1.1-.1H208l-1-.2H206l-1-.2h-1.1l-1.1-.2h-1l-1.1-.2-1-.1-1.1-.2-1-.1-1.2-.2-1-.3-1-.5-1.1-.7-1-.8-1.1-1-1.1-.8-1-1-1.1-.8-1-.9-1.1-1-1.1-1.2-1-1.5-1.1-1.6-1-1.8-1.1-2-1-2-1.1-2-1.1-2-1-2-1.1-2-1-2-1.1-2.2-1.1-2.5-1-2.7-1.1-3-1-3-1.1-3-1-2.6-1.2-2-1-1.7-1-1.4-1.1-1.3-1-1.2-1.1-1.1-1.1-1-1-.6-1.1-.3-1 .1-1.1.4-1 .8-1.2 1.2-1 1.7-1 2-1.1 2.3-1 2.3-1.1 2-1.1 2-1 2-1.1 2.1-1 2.4-1.1 2.5-1.1 2.5-1 2.4-1.1 2.3-1 2.2-1.1 2.1-1 2-1.1 2-1.1 1.9-1 1.7-1.1 1.7-1 1.5-1.1 1.5-1.1 1.3-1 1.3-1.1 1.2-1 1.1-1.1 1-1 1-1.2 1-1 .8-1 .7-1.1.4-1 .4-1.1.2-1.1.2-1 .1-1.1.1-1 .2-1.1.1-1.1.2h-1l-1.1.1H97l-1.1.1h-4.3z" fill="#4c72b0" fill-opacity=".3" id="PolyCollection_7"/><path clip-path="url(#p544abfa7b1)" d="M91.6 303.2h8.5l5.3-.1h3.2l3.2-.3 6.3-1 1-.3 1.1-.4 1-.7 2.2-1.7 2.1-2 2.1-2.4 2.2-2.6 2-3 2.2-3.4 2.1-3.8 3.2-6.4 2.1-4.7 3.2-7.4 2.1-4.1 2.1-4 3.2-6.6 1-1.7 1.1-1.2 1-.8 1.1-.4h1l1.1.2 1.1.6 1 1 3.2 3.6 1 1.4 1.1 1.6 1.1 2.1 1 2.6 4.3 11.7 2.1 4.6 7.4 14 2.1 3.5 1.1 1.5 1 1.2 2.2 2 3.2 2.6 2 1.7 1.1.7 1 .5 2.2.5 5.3.6 6.4.6 5.2.1 11.7.1h0" fill="none" stroke="#4c72b0" stroke-linecap="round" stroke-width="1.8" id="line2d_83"/><path clip-path="url(#p544abfa7b1)" d="M176.3 306.2v-65" fill="none" stroke="#4c72b0" stroke-linecap="round" stroke-width="1.8" id="line2d_84"/><path d="M42.4 306.2v-65" fill="none" id="patch_33"/><path d="M245.3 306.2v-65" fill="none" id="patch_34"/><path d="M42.4 306.2h202.9" fill="none" id="patch_35"/><path d="M42.4 241.2h202.9" fill="none" id="patch_36"/></g><g id="axes_8"><path d="M285.8 306.2h203v-65h-203z" fill="#eaeaf2" id="patch_37"/><g id="matplotlib.axis_15"><g id="xtick_22"><path clip-path="url(#p870c0e0ebb)" d="M326.8 306.2v-65" fill="none" stroke="#fff" stroke-linecap="round" id="line2d_85"/><g transform="matrix(.1 0 0 -.1 321.1 320.4)" fill="#262626" id="text_23"><use xlink:href="#LiberationSans-2212"/><use x="58.4" xlink:href="#LiberationSans-35"/></g></g><g id="xtick_23"><path clip-path="url(#p870c0e0ebb)" d="M394.2 306.2v-65" fill="none" stroke="#fff" stroke-linecap="round" id="line2d_87"/><use xlink:href="#LiberationSans-30" transform="matrix(.1 0 0 -.1 391.4 320.4)" fill="#262626" id="text_24"/></g><g id="xtick_24"><path clip-path="url(#p870c0e0ebb)" d="M461.5 306.2v-65" fill="none" stroke="#fff" stroke-linecap="round" id="line2d_89"/><use xlink:href="#LiberationSans-35" transform="matrix(.1 0 0 -.1 458.8 320.4)" fill="#262626" id="text_25"/></g><use xlink:href="#LiberationSans-79" transform="matrix(.11 0 0 -.11 384.5 334.5)" fill="#262626" id="text_26"/></g><g id="matplotlib.axis_16"><g id="ytick_15"><path clip-path="url(#p870c0e0ebb)" d="M285.8 303.2h203" fill="none" stroke="#fff" stroke-linecap="round" id="line2d_91"/><g transform="matrix(.1 0 0 -.1 265 306.8)" fill="#262626" id="text_27"><use xlink:href="#LiberationSans-30"/><use x="55.6" xlink:href="#LiberationSans-2e"/><use x="83.4" xlink:href="#LiberationSans-30"/></g></g><g id="ytick_16"><path clip-path="url(#p870c0e0ebb)" d="M285.8 270.4h203" fill="none" stroke="#fff" stroke-linecap="round" id="line2d_93"/><g transform="matrix(.1 0 0 -.1 265 274)" fill="#262626" id="text_28"><use xlink:href="#LiberationSans-30"/><use x="55.6" xlink:href="#LiberationSans-2e"/><use x="83.4" xlink:href="#LiberationSans-32"/></g></g></g><path clip-path="url(#p870c0e0ebb)" d="M338.8 303.2H479.5h-17.7l-1.1-.1h-1.1l-1.1-.2h-1.1l-1.1-.2-1.1-.1-1.2-.2-1-.2-1.2-.3-1-.3-1.2-.4-1-.4-1.2-.5-1.1-.7-1.1-.6-1.1-.7-1.1-.8-1.1-.9-1.2-1-1-1.2-1.2-1.3-1-1.4-1.2-1.6-1-1.7-1.2-1.9-1.1-2-1.1-2-1.1-2.2-1.1-2-1.1-1.8-1.1-1.9-1.2-2-1-2.2-1.2-2.7-1-3-1.2-3.3-1.1-3.3-1.1-3.4-1.1-3-1.1-2.8-1.1-2-1.1-1.6-1.1-.8-1.2-.4h-1l-1.2.3-1 .4-1.2.5-1 .7-1.2.9-1.1 1.1-1.1 1.4-1.1 1.5-1.1 1.7-1.1 2-1.1 2.6-1.2 2.8-1 3.2-1.2 3.2-1 3-1.2 2.5-1.1 2-1.1 2-1.1 1.8-1.1 2-1.1 2.3-1.1 2.2-1.1 2.1-1.2 1.8-1 1.6-1.2 1.3-1 1.2-1.2 1.1-1 1.1-1.2 1-1.1 1-1.1.9-1.1.8-1.1.8-1.1.6-1.1.6-1.2.6-1 .5-1.2.4-1 .4-1.2.3-1.1.2-1.1.2-1.1.1-1.1.1H361l-1.1.1-1.1.1h-2.2l-1.2.1H338.8z" fill="#4c72b0" fill-opacity=".3" id="PolyCollection_8"/><path clip-path="url(#p870c0e0ebb)" d="M338.8 303.2h20l5.5-.5 2.2-.4 2.2-.7 2.2-1 2.3-1 2.2-1.5 2.2-1.7 2.2-2 2.2-2.2 2.2-2.5 1.1-1.6 1.2-1.8 2.2-4.3 2.2-4.3 3.3-5.8 1.1-2.6 2.2-6.1 2.3-6 1-2.5 1.2-2 1-1.8 1.2-1.5 1-1.4 1.2-1.1 1.1-.9 1.1-.7 1.1-.5 1.1-.4 1.1-.2h1.1l1.2.3 1 .8 1.2 1.5 1 2.1 1.2 2.7 2.2 6.5 2.2 6.6 1.1 3 1.1 2.7 1.1 2.2 2.3 3.9 2.2 3.8 3.3 6.2 2.2 3.6 2.2 3 2.2 2.5 2.3 1.9 2.2 1.5 2.2 1.3 2.2 1 2.2.6 2.2.5 3.4.4 4.4.3h10l7.7.1h0" fill="none" stroke="#4c72b0" stroke-linecap="round" stroke-width="1.8" id="line2d_95"/><path clip-path="url(#p870c0e0ebb)" d="M407.6 306.2v-65" fill="none" stroke="#4c72b0" stroke-linecap="round" stroke-width="1.8" id="line2d_96"/><path d="M285.8 306.2v-65" fill="none" id="patch_38"/><path d="M488.8 306.2v-65" fill="none" id="patch_39"/><path d="M285.8 306.2h203" fill="none" id="patch_40"/><path d="M285.8 241.2h203" fill="none" id="patch_41"/></g></g><defs><clipPath id="pc58628eb66"><path d="M42.4 7.2h202.9v65H42.4z"/></clipPath><clipPath id="pccd2606774"><path d="M285.8 7.2h202.9v65H285.8z"/></clipPath><clipPath id="p5a9bb52358"><path d="M42.4 85.2h202.9v65H42.4z"/></clipPath><clipPath id="pddb838232a"><path d="M285.8 85.2h202.9v65H285.8z"/></clipPath><clipPath id="p5ab3ebaa93"><path d="M42.4 163.2h202.9v65H42.4z"/></clipPath><clipPath id="p99bc34660b"><path d="M285.8 163.2h202.9v65H285.8z"/></clipPath><clipPath id="p544abfa7b1"><path d="M42.4 241.2h202.9v65H42.4z"/></clipPath><clipPath id="p870c0e0ebb"><path d="M285.8 241.2h202.9v65H285.8z"/></clipPath></defs></svg>