<?xml version="1.0" encoding="utf-8" standalone="no"?>
<!DOCTYPE svg PUBLIC "-//W3C//DTD SVG 1.1//EN"
  "http://www.w3.org/Graphics/SVG/1.1/DTD/svg11.dtd">
<!-- Created with matplotlib (http://matplotlib.org/) -->
<svg height="358pt" version="1.1" viewBox="0 0 495 358" width="495pt" xmlns="http://www.w3.org/2000/svg" xmlns:xlink="http://www.w3.org/1999/xlink">
 <defs>
  <style type="text/css">
*{stroke-linecap:butt;stroke-linejoin:round;}
  </style>
 </defs>
 <g id="figure_1">
  <g id="patch_1">
   <path d="M 0 358.652187 
L 495.954062 358.652187 
L 495.954062 0 
L 0 0 
z
" style="fill:#ffffff;"/>
  </g>
  <g id="axes_1">
   <g id="patch_2">
    <path d="M 42.354063 320.87625 
L 488.754062 320.87625 
L 488.754062 21.89625 
L 42.354063 21.89625 
z
" style="fill:#eaeaf2;"/>
   </g>
   <g id="matplotlib.axis_1">
    <g id="xtick_1">
     <g id="line2d_1">
      <path clip-path="url(#pd2993b6531)" d="M 62.644972 320.87625 
L 62.644972 21.89625 
" style="fill:none;stroke:#ffffff;stroke-linecap:round;"/>
     </g>
     <g id="line2d_2"/>
     <g id="text_1">
      <!-- 0 -->
      <defs>
       <path d="M 51.703125 34.421875 
Q 51.703125 24.515625 49.828125 17.75 
Q 47.953125 10.984375 44.703125 6.8125 
Q 41.453125 2.640625 37.0625 0.828125 
Q 32.671875 -0.984375 27.6875 -0.984375 
Q 22.65625 -0.984375 18.3125 0.828125 
Q 13.96875 2.640625 10.765625 6.78125 
Q 7.5625 10.9375 5.734375 17.703125 
Q 3.90625 24.46875 3.90625 34.421875 
Q 3.90625 44.828125 5.734375 51.640625 
Q 7.5625 58.453125 10.78125 62.5 
Q 14.015625 66.546875 18.40625 68.1875 
Q 22.796875 69.828125 27.984375 69.828125 
Q 32.90625 69.828125 37.21875 68.1875 
Q 41.546875 66.546875 44.765625 62.5 
Q 48 58.453125 49.84375 51.640625 
Q 51.703125 44.828125 51.703125 34.421875 
z
M 42.78125 34.421875 
Q 42.78125 42.625 41.796875 48.0625 
Q 40.828125 53.515625 38.921875 56.765625 
Q 37.015625 60.015625 34.25 61.359375 
Q 31.5 62.703125 27.984375 62.703125 
Q 24.265625 62.703125 21.4375 61.328125 
Q 18.609375 59.96875 16.671875 56.71875 
Q 14.75 53.46875 13.765625 48.015625 
Q 12.796875 42.578125 12.796875 34.421875 
Q 12.796875 26.515625 13.796875 21.09375 
Q 14.796875 15.671875 16.71875 12.375 
Q 18.65625 9.078125 21.4375 7.640625 
Q 24.21875 6.203125 27.78125 6.203125 
Q 31.25 6.203125 34.03125 7.640625 
Q 36.8125 9.078125 38.734375 12.375 
Q 40.671875 15.671875 41.71875 21.09375 
Q 42.78125 26.515625 42.78125 34.421875 
z
" id="LiberationSans-30"/>
      </defs>
      <g style="fill:#262626;" transform="translate(59.864503 335.123125)scale(0.1 -0.1)">
       <use xlink:href="#LiberationSans-30"/>
      </g>
     </g>
    </g>
    <g id="xtick_2">
     <g id="line2d_3">
      <path clip-path="url(#pd2993b6531)" d="M 113.397621 320.87625 
L 113.397621 21.89625 
" style="fill:none;stroke:#ffffff;stroke-linecap:round;"/>
     </g>
     <g id="line2d_4"/>
     <g id="text_2">
      <!-- 250 -->
      <defs>
       <path d="M 5.03125 0 
L 5.03125 6.203125 
Q 7.515625 11.921875 11.109375 16.28125 
Q 14.703125 20.65625 18.65625 24.1875 
Q 22.609375 27.734375 26.484375 30.765625 
Q 30.375 33.796875 33.5 36.8125 
Q 36.625 39.84375 38.546875 43.15625 
Q 40.484375 46.484375 40.484375 50.6875 
Q 40.484375 53.609375 39.59375 55.828125 
Q 38.71875 58.0625 37.0625 59.5625 
Q 35.40625 61.078125 33.078125 61.828125 
Q 30.765625 62.59375 27.9375 62.59375 
Q 25.296875 62.59375 22.96875 61.859375 
Q 20.65625 61.140625 18.84375 59.671875 
Q 17.046875 58.203125 15.890625 56.03125 
Q 14.75 53.859375 14.40625 50.984375 
L 5.421875 51.8125 
Q 5.859375 55.515625 7.46875 58.78125 
Q 9.078125 62.0625 11.90625 64.53125 
Q 14.75 67 18.71875 68.40625 
Q 22.703125 69.828125 27.9375 69.828125 
Q 33.0625 69.828125 37.0625 68.609375 
Q 41.0625 67.390625 43.8125 64.984375 
Q 46.578125 62.59375 48.046875 59.078125 
Q 49.515625 55.5625 49.515625 50.984375 
Q 49.515625 47.515625 48.265625 44.390625 
Q 47.015625 41.265625 44.9375 38.421875 
Q 42.875 35.59375 40.140625 32.953125 
Q 37.40625 30.328125 34.421875 27.8125 
Q 31.453125 25.296875 28.421875 22.828125 
Q 25.390625 20.359375 22.71875 17.859375 
Q 20.0625 15.375 17.96875 12.8125 
Q 15.875 10.25 14.703125 7.46875 
L 50.59375 7.46875 
L 50.59375 0 
z
" id="LiberationSans-32"/>
       <path d="M 51.421875 22.40625 
Q 51.421875 17.234375 49.859375 12.9375 
Q 48.296875 8.640625 45.21875 5.53125 
Q 42.140625 2.4375 37.578125 0.71875 
Q 33.015625 -0.984375 27 -0.984375 
Q 21.578125 -0.984375 17.546875 0.28125 
Q 13.53125 1.5625 10.734375 3.78125 
Q 7.953125 6 6.3125 8.984375 
Q 4.6875 11.96875 4 15.375 
L 12.890625 16.40625 
Q 13.421875 14.453125 14.390625 12.625 
Q 15.375 10.796875 17.0625 9.34375 
Q 18.75 7.90625 21.21875 7.046875 
Q 23.6875 6.203125 27.203125 6.203125 
Q 30.609375 6.203125 33.390625 7.25 
Q 36.1875 8.296875 38.15625 10.34375 
Q 40.140625 12.40625 41.203125 15.375 
Q 42.28125 18.359375 42.28125 22.21875 
Q 42.28125 25.390625 41.25 28.046875 
Q 40.234375 30.71875 38.328125 32.640625 
Q 36.421875 34.578125 33.65625 35.640625 
Q 30.90625 36.71875 27.390625 36.71875 
Q 25.203125 36.71875 23.34375 36.328125 
Q 21.484375 35.9375 19.890625 35.25 
Q 18.3125 34.578125 17.015625 33.671875 
Q 15.71875 32.765625 14.59375 31.78125 
L 6 31.78125 
L 8.296875 68.796875 
L 47.40625 68.796875 
L 47.40625 61.328125 
L 16.3125 61.328125 
L 14.984375 39.5 
Q 17.328125 41.3125 20.84375 42.59375 
Q 24.359375 43.890625 29.203125 43.890625 
Q 34.328125 43.890625 38.421875 42.328125 
Q 42.53125 40.765625 45.40625 37.90625 
Q 48.296875 35.0625 49.859375 31.109375 
Q 51.421875 27.15625 51.421875 22.40625 
z
" id="LiberationSans-35"/>
      </defs>
      <g style="fill:#262626;" transform="translate(105.056214 335.123125)scale(0.1 -0.1)">
       <use xlink:href="#LiberationSans-32"/>
       <use x="55.615234" xlink:href="#LiberationSans-35"/>
       <use x="111.230469" xlink:href="#LiberationSans-30"/>
      </g>
     </g>
    </g>
    <g id="xtick_3">
     <g id="line2d_5">
      <path clip-path="url(#pd2993b6531)" d="M 164.15027 320.87625 
L 164.15027 21.89625 
" style="fill:none;stroke:#ffffff;stroke-linecap:round;"/>
     </g>
     <g id="line2d_6"/>
     <g id="text_3">
      <!-- 500 -->
      <g style="fill:#262626;" transform="translate(155.808863 335.123125)scale(0.1 -0.1)">
       <use xlink:href="#LiberationSans-35"/>
       <use x="55.615234" xlink:href="#LiberationSans-30"/>
       <use x="111.230469" xlink:href="#LiberationSans-30"/>
      </g>
     </g>
    </g>
    <g id="xtick_4">
     <g id="line2d_7">
      <path clip-path="url(#pd2993b6531)" d="M 214.902919 320.87625 
L 214.902919 21.89625 
" style="fill:none;stroke:#ffffff;stroke-linecap:round;"/>
     </g>
     <g id="line2d_8"/>
     <g id="text_4">
      <!-- 750 -->
      <defs>
       <path d="M 50.59375 61.671875 
Q 45.40625 53.765625 41.0625 46.453125 
Q 36.71875 39.15625 33.59375 31.75 
Q 30.46875 24.359375 28.734375 16.578125 
Q 27 8.796875 27 0 
L 17.828125 0 
Q 17.828125 8.25 19.78125 16.1875 
Q 21.734375 24.125 25.046875 31.765625 
Q 28.375 39.40625 32.765625 46.78125 
Q 37.15625 54.15625 42.09375 61.328125 
L 5.125 61.328125 
L 5.125 68.796875 
L 50.59375 68.796875 
z
" id="LiberationSans-37"/>
      </defs>
      <g style="fill:#262626;" transform="translate(206.561512 335.123125)scale(0.1 -0.1)">
       <use xlink:href="#LiberationSans-37"/>
       <use x="55.615234" xlink:href="#LiberationSans-35"/>
       <use x="111.230469" xlink:href="#LiberationSans-30"/>
      </g>
     </g>
    </g>
    <g id="xtick_5">
     <g id="line2d_9">
      <path clip-path="url(#pd2993b6531)" d="M 265.655568 320.87625 
L 265.655568 21.89625 
" style="fill:none;stroke:#ffffff;stroke-linecap:round;"/>
     </g>
     <g id="line2d_10"/>
     <g id="text_5">
      <!-- 1000 -->
      <defs>
       <path d="M 7.625 0 
L 7.625 7.46875 
L 25.140625 7.46875 
L 25.140625 60.40625 
L 9.625 49.3125 
L 9.625 57.625 
L 25.875 68.796875 
L 33.984375 68.796875 
L 33.984375 7.46875 
L 50.734375 7.46875 
L 50.734375 0 
z
" id="LiberationSans-31"/>
      </defs>
      <g style="fill:#262626;" transform="translate(254.533693 335.123125)scale(0.1 -0.1)">
       <use xlink:href="#LiberationSans-31"/>
       <use x="55.615234" xlink:href="#LiberationSans-30"/>
       <use x="111.230469" xlink:href="#LiberationSans-30"/>
       <use x="166.845703" xlink:href="#LiberationSans-30"/>
      </g>
     </g>
    </g>
    <g id="xtick_6">
     <g id="line2d_11">
      <path clip-path="url(#pd2993b6531)" d="M 316.408217 320.87625 
L 316.408217 21.89625 
" style="fill:none;stroke:#ffffff;stroke-linecap:round;"/>
     </g>
     <g id="line2d_12"/>
     <g id="text_6">
      <!-- 1250 -->
      <g style="fill:#262626;" transform="translate(305.286342 335.123125)scale(0.1 -0.1)">
       <use xlink:href="#LiberationSans-31"/>
       <use x="55.615234" xlink:href="#LiberationSans-32"/>
       <use x="111.230469" xlink:href="#LiberationSans-35"/>
       <use x="166.845703" xlink:href="#LiberationSans-30"/>
      </g>
     </g>
    </g>
    <g id="xtick_7">
     <g id="line2d_13">
      <path clip-path="url(#pd2993b6531)" d="M 367.160866 320.87625 
L 367.160866 21.89625 
" style="fill:none;stroke:#ffffff;stroke-linecap:round;"/>
     </g>
     <g id="line2d_14"/>
     <g id="text_7">
      <!-- 1500 -->
      <g style="fill:#262626;" transform="translate(356.038991 335.123125)scale(0.1 -0.1)">
       <use xlink:href="#LiberationSans-31"/>
       <use x="55.615234" xlink:href="#LiberationSans-35"/>
       <use x="111.230469" xlink:href="#LiberationSans-30"/>
       <use x="166.845703" xlink:href="#LiberationSans-30"/>
      </g>
     </g>
    </g>
    <g id="xtick_8">
     <g id="line2d_15">
      <path clip-path="url(#pd2993b6531)" d="M 417.913515 320.87625 
L 417.913515 21.89625 
" style="fill:none;stroke:#ffffff;stroke-linecap:round;"/>
     </g>
     <g id="line2d_16"/>
     <g id="text_8">
      <!-- 1750 -->
      <g style="fill:#262626;" transform="translate(406.79164 335.123125)scale(0.1 -0.1)">
       <use xlink:href="#LiberationSans-31"/>
       <use x="55.615234" xlink:href="#LiberationSans-37"/>
       <use x="111.230469" xlink:href="#LiberationSans-35"/>
       <use x="166.845703" xlink:href="#LiberationSans-30"/>
      </g>
     </g>
    </g>
    <g id="xtick_9">
     <g id="line2d_17">
      <path clip-path="url(#pd2993b6531)" d="M 468.666164 320.87625 
L 468.666164 21.89625 
" style="fill:none;stroke:#ffffff;stroke-linecap:round;"/>
     </g>
     <g id="line2d_18"/>
     <g id="text_9">
      <!-- 2000 -->
      <g style="fill:#262626;" transform="translate(457.544289 335.123125)scale(0.1 -0.1)">
       <use xlink:href="#LiberationSans-32"/>
       <use x="55.615234" xlink:href="#LiberationSans-30"/>
       <use x="111.230469" xlink:href="#LiberationSans-30"/>
       <use x="166.845703" xlink:href="#LiberationSans-30"/>
      </g>
     </g>
    </g>
    <g id="text_10">
     <!-- Training Step -->
     <defs>
      <path d="M 35.15625 61.1875 
L 35.15625 0 
L 25.875 0 
L 25.875 61.1875 
L 2.25 61.1875 
L 2.25 68.796875 
L 58.796875 68.796875 
L 58.796875 61.1875 
z
" id="LiberationSans-54"/>
      <path d="M 6.9375 0 
L 6.9375 40.53125 
Q 6.9375 42.1875 6.90625 43.921875 
Q 6.890625 45.65625 6.828125 47.265625 
Q 6.78125 48.875 6.734375 50.28125 
Q 6.6875 51.703125 6.640625 52.828125 
L 14.9375 52.828125 
Q 14.984375 51.703125 15.0625 50.265625 
Q 15.140625 48.828125 15.203125 47.3125 
Q 15.28125 45.796875 15.296875 44.40625 
Q 15.328125 43.015625 15.328125 42.046875 
L 15.53125 42.046875 
Q 16.453125 45.0625 17.5 47.28125 
Q 18.5625 49.515625 19.96875 50.953125 
Q 21.390625 52.390625 23.34375 53.09375 
Q 25.296875 53.8125 28.078125 53.8125 
Q 29.15625 53.8125 30.125 53.640625 
Q 31.109375 53.46875 31.640625 53.328125 
L 31.640625 45.265625 
Q 30.765625 45.515625 29.59375 45.625 
Q 28.421875 45.75 26.953125 45.75 
Q 23.921875 45.75 21.796875 44.375 
Q 19.671875 43.015625 18.328125 40.59375 
Q 17 38.1875 16.359375 34.84375 
Q 15.71875 31.5 15.71875 27.546875 
L 15.71875 0 
z
" id="LiberationSans-72"/>
      <path d="M 20.21875 -0.984375 
Q 12.25 -0.984375 8.25 3.21875 
Q 4.25 7.421875 4.25 14.75 
Q 4.25 19.96875 6.21875 23.3125 
Q 8.203125 26.65625 11.390625 28.5625 
Q 14.59375 30.46875 18.6875 31.203125 
Q 22.796875 31.9375 27.046875 32.03125 
L 38.921875 32.234375 
L 38.921875 35.109375 
Q 38.921875 38.375 38.234375 40.671875 
Q 37.546875 42.96875 36.125 44.375 
Q 34.71875 45.796875 32.59375 46.453125 
Q 30.46875 47.125 27.59375 47.125 
Q 25.046875 47.125 23 46.75 
Q 20.953125 46.390625 19.4375 45.4375 
Q 17.921875 44.484375 16.984375 42.84375 
Q 16.0625 41.21875 15.765625 38.71875 
L 6.59375 39.546875 
Q 7.078125 42.671875 8.4375 45.28125 
Q 9.8125 47.90625 12.328125 49.796875 
Q 14.84375 51.703125 18.625 52.75 
Q 22.40625 53.8125 27.78125 53.8125 
Q 37.75 53.8125 42.765625 49.234375 
Q 47.796875 44.671875 47.796875 36.03125 
L 47.796875 13.28125 
Q 47.796875 9.375 48.828125 7.390625 
Q 49.859375 5.421875 52.734375 5.421875 
Q 53.46875 5.421875 54.203125 5.515625 
Q 54.9375 5.609375 55.609375 5.765625 
L 55.609375 0.296875 
Q 53.953125 -0.09375 52.3125 -0.28125 
Q 50.6875 -0.484375 48.828125 -0.484375 
Q 46.34375 -0.484375 44.5625 0.171875 
Q 42.78125 0.828125 41.65625 2.171875 
Q 40.53125 3.515625 39.9375 5.484375 
Q 39.359375 7.46875 39.203125 10.109375 
L 38.921875 10.109375 
Q 37.5 7.5625 35.8125 5.515625 
Q 34.125 3.46875 31.875 2.03125 
Q 29.640625 0.59375 26.78125 -0.1875 
Q 23.921875 -0.984375 20.21875 -0.984375 
z
M 22.21875 5.609375 
Q 26.421875 5.609375 29.5625 7.140625 
Q 32.71875 8.6875 34.78125 11.078125 
Q 36.859375 13.484375 37.890625 16.3125 
Q 38.921875 19.140625 38.921875 21.734375 
L 38.921875 26.078125 
L 29.296875 25.875 
Q 26.078125 25.828125 23.171875 25.40625 
Q 20.265625 25 18.0625 23.78125 
Q 15.875 22.5625 14.578125 20.359375 
Q 13.28125 18.171875 13.28125 14.59375 
Q 13.28125 10.296875 15.59375 7.953125 
Q 17.921875 5.609375 22.21875 5.609375 
z
" id="LiberationSans-61"/>
      <path d="M 6.6875 64.0625 
L 6.6875 72.46875 
L 15.484375 72.46875 
L 15.484375 64.0625 
z
M 6.6875 0 
L 6.6875 52.828125 
L 15.484375 52.828125 
L 15.484375 0 
z
" id="LiberationSans-69"/>
      <path d="M 40.28125 0 
L 40.28125 33.5 
Q 40.28125 37.359375 39.71875 39.9375 
Q 39.15625 42.53125 37.890625 44.109375 
Q 36.625 45.703125 34.546875 46.359375 
Q 32.46875 47.015625 29.390625 47.015625 
Q 26.265625 47.015625 23.75 45.921875 
Q 21.234375 44.828125 19.453125 42.75 
Q 17.671875 40.671875 16.6875 37.625 
Q 15.71875 34.578125 15.71875 30.609375 
L 15.71875 0 
L 6.9375 0 
L 6.9375 41.546875 
Q 6.9375 43.21875 6.90625 45.046875 
Q 6.890625 46.875 6.828125 48.5 
Q 6.78125 50.140625 6.734375 51.3125 
Q 6.6875 52.484375 6.640625 52.828125 
L 14.9375 52.828125 
Q 14.984375 52.59375 15.03125 51.515625 
Q 15.09375 50.4375 15.15625 49.046875 
Q 15.234375 47.65625 15.28125 46.21875 
Q 15.328125 44.78125 15.328125 43.796875 
L 15.484375 43.796875 
Q 16.75 46.09375 18.265625 47.953125 
Q 19.78125 49.8125 21.78125 51.09375 
Q 23.78125 52.390625 26.359375 53.09375 
Q 28.953125 53.8125 32.375 53.8125 
Q 36.765625 53.8125 39.9375 52.734375 
Q 43.109375 51.65625 45.15625 49.40625 
Q 47.21875 47.171875 48.171875 43.625 
Q 49.125 40.09375 49.125 35.203125 
L 49.125 0 
z
" id="LiberationSans-6e"/>
      <path d="M 26.765625 -20.75 
Q 22.21875 -20.75 18.703125 -19.8125 
Q 15.1875 -18.890625 12.6875 -17.15625 
Q 10.203125 -15.4375 8.640625 -13.03125 
Q 7.078125 -10.640625 6.390625 -7.71875 
L 15.234375 -6.453125 
Q 16.109375 -10.109375 19.109375 -12.078125 
Q 22.125 -14.0625 27 -14.0625 
Q 29.984375 -14.0625 32.421875 -13.234375 
Q 34.859375 -12.40625 36.5625 -10.5625 
Q 38.28125 -8.734375 39.203125 -5.796875 
Q 40.140625 -2.875 40.140625 1.3125 
L 40.140625 9.8125 
L 40.046875 9.8125 
Q 39.0625 7.8125 37.625 5.984375 
Q 36.1875 4.15625 34.109375 2.734375 
Q 32.03125 1.3125 29.296875 0.453125 
Q 26.5625 -0.390625 23.046875 -0.390625 
Q 18.015625 -0.390625 14.421875 1.296875 
Q 10.84375 2.984375 8.5625 6.34375 
Q 6.296875 9.71875 5.25 14.71875 
Q 4.203125 19.734375 4.203125 26.3125 
Q 4.203125 32.671875 5.25 37.75 
Q 6.296875 42.828125 8.65625 46.359375 
Q 11.03125 49.90625 14.8125 51.78125 
Q 18.609375 53.65625 24.03125 53.65625 
Q 29.640625 53.65625 33.765625 51.09375 
Q 37.890625 48.53125 40.140625 43.796875 
L 40.234375 43.796875 
Q 40.234375 45.015625 40.296875 46.53125 
Q 40.375 48.046875 40.453125 49.390625 
Q 40.53125 50.734375 40.625 51.703125 
Q 40.71875 52.6875 40.828125 52.828125 
L 49.171875 52.828125 
Q 49.125 52.390625 49.078125 51.34375 
Q 49.03125 50.296875 48.96875 48.828125 
Q 48.921875 47.359375 48.890625 45.578125 
Q 48.875 43.796875 48.875 41.890625 
L 48.875 1.515625 
Q 48.875 -9.578125 43.421875 -15.15625 
Q 37.984375 -20.75 26.765625 -20.75 
z
M 40.140625 26.421875 
Q 40.140625 31.9375 38.9375 35.859375 
Q 37.75 39.796875 35.796875 42.28125 
Q 33.84375 44.78125 31.328125 45.953125 
Q 28.8125 47.125 26.171875 47.125 
Q 22.796875 47.125 20.375 45.953125 
Q 17.96875 44.78125 16.375 42.265625 
Q 14.796875 39.75 14.03125 35.8125 
Q 13.28125 31.890625 13.28125 26.421875 
Q 13.28125 20.703125 14.03125 16.8125 
Q 14.796875 12.9375 16.359375 10.546875 
Q 17.921875 8.15625 20.3125 7.125 
Q 22.703125 6.109375 26.03125 6.109375 
Q 28.65625 6.109375 31.171875 7.21875 
Q 33.6875 8.34375 35.6875 10.78125 
Q 37.703125 13.234375 38.921875 17.09375 
Q 40.140625 20.953125 40.140625 26.421875 
z
" id="LiberationSans-67"/>
      <path id="LiberationSans-20"/>
      <path d="M 62.109375 19 
Q 62.109375 14.65625 60.421875 10.984375 
Q 58.734375 7.328125 55.21875 4.65625 
Q 51.703125 2 46.359375 0.5 
Q 41.015625 -0.984375 33.6875 -0.984375 
Q 20.84375 -0.984375 13.671875 3.515625 
Q 6.5 8.015625 4.546875 16.5 
L 13.578125 18.3125 
Q 14.265625 15.625 15.671875 13.421875 
Q 17.09375 11.234375 19.5 9.640625 
Q 21.921875 8.0625 25.484375 7.171875 
Q 29.046875 6.296875 34.03125 6.296875 
Q 38.1875 6.296875 41.65625 7 
Q 45.125 7.71875 47.609375 9.171875 
Q 50.09375 10.640625 51.484375 12.953125 
Q 52.875 15.28125 52.875 18.5 
Q 52.875 21.875 51.34375 23.96875 
Q 49.8125 26.078125 47.015625 27.4375 
Q 44.234375 28.8125 40.375 29.734375 
Q 36.53125 30.671875 31.84375 31.734375 
Q 28.953125 32.375 26.046875 33.125 
Q 23.140625 33.890625 20.484375 34.9375 
Q 17.828125 35.984375 15.484375 37.390625 
Q 13.140625 38.8125 11.421875 40.796875 
Q 9.71875 42.78125 8.734375 45.390625 
Q 7.765625 48 7.765625 51.421875 
Q 7.765625 56.296875 9.734375 59.78125 
Q 11.71875 63.28125 15.234375 65.53125 
Q 18.75 67.78125 23.53125 68.796875 
Q 28.328125 69.828125 33.890625 69.828125 
Q 40.28125 69.828125 44.8125 68.828125 
Q 49.359375 67.828125 52.484375 65.8125 
Q 55.609375 63.8125 57.484375 60.859375 
Q 59.375 57.90625 60.5 54 
L 51.3125 52.390625 
Q 50.640625 54.890625 49.34375 56.84375 
Q 48.046875 58.796875 45.9375 60.109375 
Q 43.84375 61.421875 40.84375 62.109375 
Q 37.84375 62.796875 33.796875 62.796875 
Q 29 62.796875 25.75 61.9375 
Q 22.515625 61.078125 20.53125 59.609375 
Q 18.5625 58.15625 17.703125 56.171875 
Q 16.84375 54.203125 16.84375 51.90625 
Q 16.84375 48.828125 18.375 46.84375 
Q 19.921875 44.875 22.5625 43.546875 
Q 25.203125 42.234375 28.65625 41.359375 
Q 32.125 40.484375 36.03125 39.59375 
Q 39.203125 38.875 42.359375 38.109375 
Q 45.515625 37.359375 48.390625 36.296875 
Q 51.265625 35.25 53.78125 33.828125 
Q 56.296875 32.421875 58.15625 30.375 
Q 60.015625 28.328125 61.0625 25.53125 
Q 62.109375 22.75 62.109375 19 
z
" id="LiberationSans-53"/>
      <path d="M 27.046875 0.390625 
Q 25.046875 -0.140625 22.96875 -0.453125 
Q 20.90625 -0.78125 18.171875 -0.78125 
Q 7.625 -0.78125 7.625 11.1875 
L 7.625 46.4375 
L 1.515625 46.4375 
L 1.515625 52.828125 
L 7.953125 52.828125 
L 10.546875 64.65625 
L 16.40625 64.65625 
L 16.40625 52.828125 
L 26.171875 52.828125 
L 26.171875 46.4375 
L 16.40625 46.4375 
L 16.40625 13.09375 
Q 16.40625 9.28125 17.640625 7.734375 
Q 18.890625 6.203125 21.96875 6.203125 
Q 23.25 6.203125 24.4375 6.390625 
Q 25.640625 6.59375 27.046875 6.890625 
z
" id="LiberationSans-74"/>
      <path d="M 13.484375 24.5625 
Q 13.484375 20.40625 14.328125 16.90625 
Q 15.1875 13.421875 16.96875 10.90625 
Q 18.75 8.40625 21.53125 7 
Q 24.3125 5.609375 28.21875 5.609375 
Q 33.9375 5.609375 37.375 7.90625 
Q 40.828125 10.203125 42.046875 13.71875 
L 49.75 11.53125 
Q 48.921875 9.328125 47.4375 7.109375 
Q 45.953125 4.890625 43.453125 3.09375 
Q 40.96875 1.3125 37.234375 0.15625 
Q 33.5 -0.984375 28.21875 -0.984375 
Q 16.5 -0.984375 10.375 6 
Q 4.25 12.984375 4.25 26.765625 
Q 4.25 34.1875 6.09375 39.328125 
Q 7.953125 44.484375 11.171875 47.703125 
Q 14.40625 50.921875 18.703125 52.359375 
Q 23 53.8125 27.875 53.8125 
Q 34.515625 53.8125 38.984375 51.65625 
Q 43.453125 49.515625 46.15625 45.71875 
Q 48.875 41.9375 50.015625 36.8125 
Q 51.171875 31.6875 51.171875 25.734375 
L 51.171875 24.5625 
z
M 42.09375 31.296875 
Q 41.359375 39.65625 37.84375 43.484375 
Q 34.328125 47.3125 27.734375 47.3125 
Q 25.53125 47.3125 23.109375 46.609375 
Q 20.703125 45.90625 18.65625 44.09375 
Q 16.609375 42.28125 15.1875 39.171875 
Q 13.765625 36.078125 13.578125 31.296875 
z
" id="LiberationSans-65"/>
      <path d="M 51.421875 26.65625 
Q 51.421875 20.65625 50.4375 15.578125 
Q 49.46875 10.5 47.1875 6.828125 
Q 44.921875 3.171875 41.1875 1.09375 
Q 37.453125 -0.984375 31.984375 -0.984375 
Q 26.3125 -0.984375 22.0625 1.171875 
Q 17.828125 3.328125 15.578125 8.203125 
L 15.328125 8.203125 
Q 15.375 8.109375 15.40625 7.328125 
Q 15.4375 6.546875 15.453125 5.375 
Q 15.484375 4.203125 15.5 2.75 
Q 15.53125 1.3125 15.53125 -0.09375 
L 15.53125 -20.75 
L 6.734375 -20.75 
L 6.734375 42.046875 
Q 6.734375 43.953125 6.703125 45.703125 
Q 6.6875 47.46875 6.640625 48.90625 
Q 6.59375 50.34375 6.546875 51.359375 
Q 6.5 52.390625 6.453125 52.828125 
L 14.9375 52.828125 
Q 14.984375 52.6875 15.0625 51.796875 
Q 15.140625 50.921875 15.203125 49.671875 
Q 15.28125 48.4375 15.359375 47.015625 
Q 15.4375 45.609375 15.4375 44.34375 
L 15.625 44.34375 
Q 16.84375 46.875 18.40625 48.65625 
Q 19.96875 50.4375 21.96875 51.578125 
Q 23.96875 52.734375 26.4375 53.25 
Q 28.90625 53.765625 31.984375 53.765625 
Q 37.453125 53.765625 41.1875 51.8125 
Q 44.921875 49.859375 47.1875 46.3125 
Q 49.46875 42.78125 50.4375 37.765625 
Q 51.421875 32.765625 51.421875 26.65625 
z
M 42.1875 26.46875 
Q 42.1875 31.34375 41.59375 35.15625 
Q 41.015625 38.96875 39.578125 41.59375 
Q 38.140625 44.234375 35.734375 45.59375 
Q 33.34375 46.96875 29.734375 46.96875 
Q 26.8125 46.96875 24.21875 46.140625 
Q 21.625 45.3125 19.703125 42.96875 
Q 17.78125 40.625 16.65625 36.5 
Q 15.53125 32.375 15.53125 25.78125 
Q 15.53125 20.171875 16.453125 16.28125 
Q 17.390625 12.40625 19.171875 10.015625 
Q 20.953125 7.625 23.578125 6.5625 
Q 26.21875 5.515625 29.640625 5.515625 
Q 33.296875 5.515625 35.71875 6.921875 
Q 38.140625 8.34375 39.578125 11.03125 
Q 41.015625 13.71875 41.59375 17.59375 
Q 42.1875 21.484375 42.1875 26.46875 
z
" id="LiberationSans-70"/>
     </defs>
     <g style="fill:#262626;" transform="translate(232.84625 349.169687)scale(0.11 -0.11)">
      <use xlink:href="#LiberationSans-54"/>
      <use x="61.037109" xlink:href="#LiberationSans-72"/>
      <use x="94.337891" xlink:href="#LiberationSans-61"/>
      <use x="149.953125" xlink:href="#LiberationSans-69"/>
      <use x="172.169922" xlink:href="#LiberationSans-6e"/>
      <use x="227.785156" xlink:href="#LiberationSans-69"/>
      <use x="250.001953" xlink:href="#LiberationSans-6e"/>
      <use x="305.617188" xlink:href="#LiberationSans-67"/>
      <use x="361.232422" xlink:href="#LiberationSans-20"/>
      <use x="389.015625" xlink:href="#LiberationSans-53"/>
      <use x="455.714844" xlink:href="#LiberationSans-74"/>
      <use x="483.498047" xlink:href="#LiberationSans-65"/>
      <use x="539.113281" xlink:href="#LiberationSans-70"/>
     </g>
    </g>
   </g>
   <g id="matplotlib.axis_2">
    <g id="ytick_1">
     <g id="line2d_19">
      <path clip-path="url(#pd2993b6531)" d="M 42.354063 307.28625 
L 488.754062 307.28625 
" style="fill:none;stroke:#ffffff;stroke-linecap:round;"/>
     </g>
     <g id="line2d_20"/>
     <g id="text_11">
      <!-- 1.0 -->
      <defs>
       <path d="M 9.125 0 
L 9.125 10.6875 
L 18.65625 10.6875 
L 18.65625 0 
z
" id="LiberationSans-2e"/>
      </defs>
      <g style="fill:#262626;" transform="translate(21.454063 310.909687)scale(0.1 -0.1)">
       <use xlink:href="#LiberationSans-31"/>
       <use x="55.615234" xlink:href="#LiberationSans-2e"/>
       <use x="83.398438" xlink:href="#LiberationSans-30"/>
      </g>
     </g>
    </g>
    <g id="ytick_2">
     <g id="line2d_21">
      <path clip-path="url(#pd2993b6531)" d="M 42.354063 242.753638 
L 488.754062 242.753638 
" style="fill:none;stroke:#ffffff;stroke-linecap:round;"/>
     </g>
     <g id="line2d_22"/>
     <g id="text_12">
      <!-- 1.1 -->
      <g style="fill:#262626;" transform="translate(21.454063 246.377076)scale(0.1 -0.1)">
       <use xlink:href="#LiberationSans-31"/>
       <use x="55.615234" xlink:href="#LiberationSans-2e"/>
       <use x="83.398438" xlink:href="#LiberationSans-31"/>
      </g>
     </g>
    </g>
    <g id="ytick_3">
     <g id="line2d_23">
      <path clip-path="url(#pd2993b6531)" d="M 42.354063 178.221026 
L 488.754062 178.221026 
" style="fill:none;stroke:#ffffff;stroke-linecap:round;"/>
     </g>
     <g id="line2d_24"/>
     <g id="text_13">
      <!-- 1.2 -->
      <g style="fill:#262626;" transform="translate(21.454063 181.844464)scale(0.1 -0.1)">
       <use xlink:href="#LiberationSans-31"/>
       <use x="55.615234" xlink:href="#LiberationSans-2e"/>
       <use x="83.398438" xlink:href="#LiberationSans-32"/>
      </g>
     </g>
    </g>
    <g id="ytick_4">
     <g id="line2d_25">
      <path clip-path="url(#pd2993b6531)" d="M 42.354063 113.688414 
L 488.754062 113.688414 
" style="fill:none;stroke:#ffffff;stroke-linecap:round;"/>
     </g>
     <g id="line2d_26"/>
     <g id="text_14">
      <!-- 1.3 -->
      <defs>
       <path d="M 51.21875 19 
Q 51.21875 14.265625 49.671875 10.546875 
Q 48.140625 6.84375 45.1875 4.265625 
Q 42.234375 1.703125 37.859375 0.359375 
Q 33.5 -0.984375 27.875 -0.984375 
Q 21.484375 -0.984375 17.109375 0.609375 
Q 12.75 2.203125 9.90625 4.8125 
Q 7.078125 7.421875 5.65625 10.765625 
Q 4.25 14.109375 3.8125 17.671875 
L 12.890625 18.5 
Q 13.28125 15.765625 14.328125 13.515625 
Q 15.375 11.28125 17.1875 9.671875 
Q 19 8.0625 21.625 7.171875 
Q 24.265625 6.296875 27.875 6.296875 
Q 34.515625 6.296875 38.296875 9.5625 
Q 42.09375 12.84375 42.09375 19.28125 
Q 42.09375 23.09375 40.40625 25.40625 
Q 38.71875 27.734375 36.203125 29.03125 
Q 33.6875 30.328125 30.734375 30.765625 
Q 27.78125 31.203125 25.296875 31.203125 
L 20.3125 31.203125 
L 20.3125 38.8125 
L 25.09375 38.8125 
Q 27.59375 38.8125 30.265625 39.328125 
Q 32.953125 39.84375 35.171875 41.1875 
Q 37.40625 42.53125 38.84375 44.828125 
Q 40.28125 47.125 40.28125 50.6875 
Q 40.28125 56.203125 37.03125 59.390625 
Q 33.796875 62.59375 27.390625 62.59375 
Q 21.578125 62.59375 17.984375 59.609375 
Q 14.40625 56.640625 13.8125 51.21875 
L 4.984375 51.90625 
Q 5.515625 56.453125 7.46875 59.8125 
Q 9.421875 63.1875 12.421875 65.40625 
Q 15.4375 67.625 19.28125 68.71875 
Q 23.140625 69.828125 27.484375 69.828125 
Q 33.25 69.828125 37.390625 68.375 
Q 41.546875 66.9375 44.1875 64.46875 
Q 46.828125 62.015625 48.0625 58.6875 
Q 49.3125 55.375 49.3125 51.609375 
Q 49.3125 48.578125 48.484375 45.9375 
Q 47.65625 43.3125 45.890625 41.203125 
Q 44.140625 39.109375 41.421875 37.59375 
Q 38.71875 36.078125 34.90625 35.296875 
L 34.90625 35.109375 
Q 39.0625 34.671875 42.140625 33.21875 
Q 45.21875 31.78125 47.21875 29.625 
Q 49.21875 27.484375 50.21875 24.75 
Q 51.21875 22.015625 51.21875 19 
z
" id="LiberationSans-33"/>
      </defs>
      <g style="fill:#262626;" transform="translate(21.454063 117.311852)scale(0.1 -0.1)">
       <use xlink:href="#LiberationSans-31"/>
       <use x="55.615234" xlink:href="#LiberationSans-2e"/>
       <use x="83.398438" xlink:href="#LiberationSans-33"/>
      </g>
     </g>
    </g>
    <g id="ytick_5">
     <g id="line2d_27">
      <path clip-path="url(#pd2993b6531)" d="M 42.354063 49.155802 
L 488.754062 49.155802 
" style="fill:none;stroke:#ffffff;stroke-linecap:round;"/>
     </g>
     <g id="line2d_28"/>
     <g id="text_15">
      <!-- 1.4 -->
      <defs>
       <path d="M 43.015625 15.578125 
L 43.015625 0 
L 34.71875 0 
L 34.71875 15.578125 
L 2.296875 15.578125 
L 2.296875 22.40625 
L 33.796875 68.796875 
L 43.015625 68.796875 
L 43.015625 22.515625 
L 52.6875 22.515625 
L 52.6875 15.578125 
z
M 34.71875 58.890625 
Q 34.625 58.640625 34.234375 57.9375 
Q 33.84375 57.234375 33.34375 56.34375 
Q 32.859375 55.46875 32.34375 54.5625 
Q 31.84375 53.65625 31.453125 53.078125 
L 13.8125 27.09375 
Q 13.578125 26.703125 13.109375 26.0625 
Q 12.640625 25.4375 12.15625 24.78125 
Q 11.671875 24.125 11.171875 23.484375 
Q 10.6875 22.859375 10.40625 22.515625 
L 34.71875 22.515625 
z
" id="LiberationSans-34"/>
      </defs>
      <g style="fill:#262626;" transform="translate(21.454063 52.77924)scale(0.1 -0.1)">
       <use xlink:href="#LiberationSans-31"/>
       <use x="55.615234" xlink:href="#LiberationSans-2e"/>
       <use x="83.398438" xlink:href="#LiberationSans-34"/>
      </g>
     </g>
    </g>
    <g id="text_16">
     <!-- Noise std dev mean -->
     <defs>
      <path d="M 52.828125 0 
L 16.015625 58.59375 
Q 16.109375 56.203125 16.265625 53.859375 
Q 16.359375 51.859375 16.421875 49.625 
Q 16.5 47.40625 16.5 45.703125 
L 16.5 0 
L 8.203125 0 
L 8.203125 68.796875 
L 19.046875 68.796875 
L 56.25 9.8125 
Q 56.109375 12.203125 55.953125 14.59375 
Q 55.859375 16.65625 55.765625 19.0625 
Q 55.671875 21.484375 55.671875 23.6875 
L 55.671875 68.796875 
L 64.0625 68.796875 
L 64.0625 0 
z
" id="LiberationSans-4e"/>
      <path d="M 51.421875 26.46875 
Q 51.421875 12.59375 45.3125 5.796875 
Q 39.203125 -0.984375 27.59375 -0.984375 
Q 22.078125 -0.984375 17.71875 0.671875 
Q 13.375 2.34375 10.375 5.765625 
Q 7.375 9.1875 5.78125 14.328125 
Q 4.203125 19.484375 4.203125 26.46875 
Q 4.203125 53.8125 27.875 53.8125 
Q 34.03125 53.8125 38.5 52.09375 
Q 42.96875 50.390625 45.828125 46.96875 
Q 48.6875 43.5625 50.046875 38.421875 
Q 51.421875 33.296875 51.421875 26.46875 
z
M 42.1875 26.46875 
Q 42.1875 32.625 41.234375 36.625 
Q 40.28125 40.625 38.453125 43.015625 
Q 36.625 45.40625 33.984375 46.359375 
Q 31.34375 47.3125 28.03125 47.3125 
Q 24.65625 47.3125 21.9375 46.3125 
Q 19.234375 45.3125 17.328125 42.890625 
Q 15.4375 40.484375 14.421875 36.46875 
Q 13.421875 32.46875 13.421875 26.46875 
Q 13.421875 20.3125 14.5 16.28125 
Q 15.578125 12.25 17.453125 9.859375 
Q 19.34375 7.46875 21.90625 6.484375 
Q 24.46875 5.515625 27.484375 5.515625 
Q 30.859375 5.515625 33.59375 6.46875 
Q 36.328125 7.421875 38.234375 9.8125 
Q 40.140625 12.203125 41.15625 16.25 
Q 42.1875 20.3125 42.1875 26.46875 
z
" id="LiberationSans-6f"/>
      <path d="M 46.390625 14.59375 
Q 46.390625 10.890625 44.9375 7.984375 
Q 43.5 5.078125 40.765625 3.09375 
Q 38.03125 1.125 34.046875 0.0625 
Q 30.078125 -0.984375 24.953125 -0.984375 
Q 20.359375 -0.984375 16.671875 -0.265625 
Q 12.984375 0.4375 10.203125 2 
Q 7.421875 3.5625 5.53125 6.125 
Q 3.65625 8.6875 2.78125 12.40625 
L 10.546875 13.921875 
Q 11.671875 9.671875 15.1875 7.6875 
Q 18.703125 5.71875 24.953125 5.71875 
Q 27.78125 5.71875 30.140625 6.109375 
Q 32.515625 6.5 34.21875 7.453125 
Q 35.9375 8.40625 36.890625 9.984375 
Q 37.84375 11.578125 37.84375 13.921875 
Q 37.84375 16.3125 36.71875 17.84375 
Q 35.59375 19.390625 33.59375 20.40625 
Q 31.59375 21.4375 28.734375 22.1875 
Q 25.875 22.953125 22.46875 23.875 
Q 19.28125 24.703125 16.15625 25.734375 
Q 13.03125 26.765625 10.515625 28.4375 
Q 8.015625 30.125 6.453125 32.609375 
Q 4.890625 35.109375 4.890625 38.875 
Q 4.890625 46.09375 10.03125 49.875 
Q 15.1875 53.65625 25.046875 53.65625 
Q 33.796875 53.65625 38.9375 50.578125 
Q 44.09375 47.515625 45.453125 40.71875 
L 37.546875 39.75 
Q 37.109375 41.796875 35.9375 43.1875 
Q 34.765625 44.578125 33.109375 45.4375 
Q 31.453125 46.296875 29.375 46.65625 
Q 27.296875 47.015625 25.046875 47.015625 
Q 19.09375 47.015625 16.25 45.203125 
Q 13.421875 43.40625 13.421875 39.75 
Q 13.421875 37.59375 14.46875 36.203125 
Q 15.53125 34.8125 17.40625 33.859375 
Q 19.28125 32.90625 21.921875 32.203125 
Q 24.5625 31.5 27.734375 30.71875 
Q 29.828125 30.171875 32.03125 29.5625 
Q 34.234375 28.953125 36.296875 28.09375 
Q 38.375 27.25 40.203125 26.09375 
Q 42.046875 24.953125 43.40625 23.34375 
Q 44.78125 21.734375 45.578125 19.578125 
Q 46.390625 17.4375 46.390625 14.59375 
z
" id="LiberationSans-73"/>
      <path d="M 40.09375 8.5 
Q 37.640625 3.421875 33.609375 1.21875 
Q 29.59375 -0.984375 23.640625 -0.984375 
Q 13.625 -0.984375 8.90625 5.75 
Q 4.203125 12.5 4.203125 26.171875 
Q 4.203125 53.8125 23.640625 53.8125 
Q 29.640625 53.8125 33.640625 51.609375 
Q 37.640625 49.421875 40.09375 44.625 
L 40.1875 44.625 
Q 40.1875 45.125 40.15625 46.171875 
Q 40.140625 47.21875 40.109375 48.359375 
Q 40.09375 49.515625 40.09375 50.53125 
Q 40.09375 51.5625 40.09375 52 
L 40.09375 72.46875 
L 48.875 72.46875 
L 48.875 10.890625 
Q 48.875 8.984375 48.890625 7.21875 
Q 48.921875 5.46875 48.96875 4 
Q 49.03125 2.546875 49.078125 1.484375 
Q 49.125 0.4375 49.171875 0 
L 40.765625 0 
Q 40.671875 0.484375 40.59375 1.390625 
Q 40.53125 2.296875 40.453125 3.46875 
Q 40.375 4.640625 40.328125 5.9375 
Q 40.28125 7.234375 40.28125 8.5 
z
M 13.421875 26.46875 
Q 13.421875 21 14.109375 17.09375 
Q 14.796875 13.1875 16.3125 10.671875 
Q 17.828125 8.15625 20.171875 6.984375 
Q 22.515625 5.8125 25.875 5.8125 
Q 29.34375 5.8125 32 6.9375 
Q 34.671875 8.0625 36.453125 10.578125 
Q 38.234375 13.09375 39.15625 17.140625 
Q 40.09375 21.1875 40.09375 27.046875 
Q 40.09375 32.671875 39.15625 36.546875 
Q 38.234375 40.4375 36.421875 42.828125 
Q 34.625 45.21875 32 46.265625 
Q 29.390625 47.3125 25.984375 47.3125 
Q 22.75 47.3125 20.40625 46.1875 
Q 18.0625 45.0625 16.5 42.578125 
Q 14.9375 40.09375 14.171875 36.109375 
Q 13.421875 32.125 13.421875 26.46875 
z
" id="LiberationSans-64"/>
      <path d="M 29.9375 0 
L 19.53125 0 
L 0.34375 52.828125 
L 9.71875 52.828125 
L 21.34375 18.453125 
Q 21.6875 17.390625 22.140625 15.84375 
Q 22.609375 14.3125 23.09375 12.640625 
Q 23.578125 10.984375 24 9.4375 
Q 24.421875 7.90625 24.703125 6.890625 
Q 25 7.90625 25.453125 9.4375 
Q 25.921875 10.984375 26.40625 12.59375 
Q 26.90625 14.203125 27.421875 15.734375 
Q 27.9375 17.28125 28.328125 18.359375 
L 40.328125 52.828125 
L 49.65625 52.828125 
z
" id="LiberationSans-76"/>
      <path d="M 37.5 0 
L 37.5 33.5 
Q 37.5 37.359375 37.015625 39.9375 
Q 36.53125 42.53125 35.375 44.109375 
Q 34.234375 45.703125 32.375 46.359375 
Q 30.515625 47.015625 27.828125 47.015625 
Q 25.046875 47.015625 22.796875 45.921875 
Q 20.5625 44.828125 18.96875 42.75 
Q 17.390625 40.671875 16.53125 37.625 
Q 15.671875 34.578125 15.671875 30.609375 
L 15.671875 0 
L 6.9375 0 
L 6.9375 41.546875 
Q 6.9375 43.21875 6.90625 45.046875 
Q 6.890625 46.875 6.828125 48.5 
Q 6.78125 50.140625 6.734375 51.3125 
Q 6.6875 52.484375 6.640625 52.828125 
L 14.9375 52.828125 
Q 14.984375 52.59375 15.03125 51.515625 
Q 15.09375 50.4375 15.15625 49.046875 
Q 15.234375 47.65625 15.28125 46.21875 
Q 15.328125 44.78125 15.328125 43.796875 
L 15.484375 43.796875 
Q 16.65625 46.09375 18.015625 47.953125 
Q 19.390625 49.8125 21.21875 51.09375 
Q 23.046875 52.390625 25.40625 53.09375 
Q 27.78125 53.8125 30.90625 53.8125 
Q 36.921875 53.8125 40.40625 51.421875 
Q 43.890625 49.03125 45.265625 43.796875 
L 45.40625 43.796875 
Q 46.578125 46.09375 48.046875 47.953125 
Q 49.515625 49.8125 51.46875 51.09375 
Q 53.421875 52.390625 55.859375 53.09375 
Q 58.296875 53.8125 61.421875 53.8125 
Q 65.4375 53.8125 68.328125 52.734375 
Q 71.234375 51.65625 73.09375 49.40625 
Q 74.953125 47.171875 75.828125 43.625 
Q 76.703125 40.09375 76.703125 35.203125 
L 76.703125 0 
L 68.015625 0 
L 68.015625 33.5 
Q 68.015625 37.359375 67.53125 39.9375 
Q 67.046875 42.53125 65.890625 44.109375 
Q 64.75 45.703125 62.890625 46.359375 
Q 61.03125 47.015625 58.34375 47.015625 
Q 55.5625 47.015625 53.3125 45.96875 
Q 51.078125 44.921875 49.484375 42.875 
Q 47.90625 40.828125 47.046875 37.75 
Q 46.1875 34.671875 46.1875 30.609375 
L 46.1875 0 
z
" id="LiberationSans-6d"/>
     </defs>
     <g style="fill:#262626;" transform="translate(15.171563 219.991641)rotate(-90)scale(0.11 -0.11)">
      <use xlink:href="#LiberationSans-4e"/>
      <use x="72.216797" xlink:href="#LiberationSans-6f"/>
      <use x="127.832031" xlink:href="#LiberationSans-69"/>
      <use x="150.048828" xlink:href="#LiberationSans-73"/>
      <use x="200.048828" xlink:href="#LiberationSans-65"/>
      <use x="255.664062" xlink:href="#LiberationSans-20"/>
      <use x="283.447266" xlink:href="#LiberationSans-73"/>
      <use x="333.447266" xlink:href="#LiberationSans-74"/>
      <use x="361.230469" xlink:href="#LiberationSans-64"/>
      <use x="416.845703" xlink:href="#LiberationSans-20"/>
      <use x="444.628906" xlink:href="#LiberationSans-64"/>
      <use x="500.244141" xlink:href="#LiberationSans-65"/>
      <use x="555.859375" xlink:href="#LiberationSans-76"/>
      <use x="605.859375" xlink:href="#LiberationSans-20"/>
      <use x="633.642578" xlink:href="#LiberationSans-6d"/>
      <use x="716.943359" xlink:href="#LiberationSans-65"/>
      <use x="772.558594" xlink:href="#LiberationSans-61"/>
      <use x="828.173828" xlink:href="#LiberationSans-6e"/>
     </g>
    </g>
   </g>
   <g id="line2d_29">
    <path clip-path="url(#pd2993b6531)" d="M 62.644972 307.28625 
L 64.269056 283.24044 
L 66.299162 254.192022 
L 68.9383 219.635421 
L 70.765395 197.135804 
L 71.983459 183.1816 
L 74.013565 163.712749 
L 75.84066 148.124191 
L 77.667756 134.49355 
L 80.306893 117.668514 
L 85.78818 86.94997 
L 87.209254 80.763428 
L 89.44237 71.600584 
L 92.284519 61.717302 
L 93.502582 58.3182 
L 94.720646 54.962255 
L 95.938709 52.280745 
L 99.38989 45.798334 
L 100.404942 44.206907 
L 102.84107 40.880656 
L 104.059133 39.659795 
L 105.277197 38.548711 
L 106.698271 37.654029 
L 107.510313 37.118065 
L 108.322356 36.510019 
L 109.134398 36.145992 
L 109.946441 35.977979 
L 112.382568 35.631107 
L 114.818695 35.551409 
L 115.630737 35.666033 
L 116.848801 35.951824 
L 118.878907 36.786194 
L 120.09697 37.526711 
L 120.706002 37.866737 
L 124.157182 39.636639 
L 124.969225 40.018668 
L 125.781267 40.632253 
L 127.405352 42.172446 
L 129.232447 44.192982 
L 132.480617 48.711861 
L 136.134807 55.194888 
L 137.14986 57.304354 
L 145.676305 76.235548 
L 148.112433 82.09422 
L 150.345549 87.393773 
L 151.766623 91.074819 
L 158.262962 108.774613 
L 161.308121 116.767215 
L 163.541238 123.012608 
L 164.962312 126.841281 
L 166.586397 130.591256 
L 168.007471 133.710952 
L 171.05263 140.78687 
L 173.894778 148.148731 
L 178.970043 160.050627 
L 180.594128 163.279794 
L 181.40617 164.849219 
L 182.421223 166.840139 
L 183.030255 168.133544 
L 183.842298 169.688276 
L 184.857351 172.112459 
L 187.496488 178.206148 
L 189.729605 182.623173 
L 195.210891 196.25343 
L 197.647018 202.559212 
L 199.271103 205.665061 
L 200.692177 207.77622 
L 201.70723 209.841914 
L 204.9554 216.553573 
L 205.15841 216.747973 
L 205.564431 216.915524 
L 205.970453 217.358326 
L 208.40658 220.802739 
L 210.030664 221.84728 
L 211.654749 223.689726 
L 214.902919 228.937736 
L 215.511951 229.884269 
L 216.527004 231.220754 
L 217.745067 232.676326 
L 218.354099 233.677709 
L 219.572162 235.620701 
L 220.181194 236.179205 
L 220.993237 236.919799 
L 222.00829 236.961033 
L 223.023343 237.614005 
L 223.632374 238.072116 
L 224.850438 238.420989 
L 225.45947 238.890486 
L 226.068502 239.389831 
L 226.677533 239.603847 
L 227.083555 239.330827 
L 227.286565 239.354136 
L 227.895597 239.090962 
L 228.301618 239.270207 
L 229.519682 240.16312 
L 230.128713 240.252204 
L 230.940756 240.934716 
L 232.564841 242.987333 
L 233.173872 243.664845 
L 233.985915 243.920711 
L 235.406989 244.669921 
L 235.81301 244.660535 
L 237.031074 244.702769 
L 240.076233 246.087181 
L 240.482254 246.394435 
L 241.903328 247.079794 
L 242.51236 246.779233 
L 242.918381 246.725691 
L 243.121392 246.841546 
L 243.527413 246.624837 
L 244.339455 245.833008 
L 244.745476 245.933477 
L 245.151498 246.060718 
L 246.369561 247.053639 
L 247.993646 249.022325 
L 248.602678 249.676682 
L 249.008699 249.798691 
L 250.023752 250.019631 
L 250.835794 250.596752 
L 251.444826 251.147408 
L 252.256868 251.832845 
L 252.8659 252.065708 
L 253.677943 252.10425 
L 253.880953 252.170639 
L 255.505038 251.753916 
L 256.31708 251.794996 
L 256.723102 251.693296 
L 257.129123 251.82846 
L 257.738155 252.402503 
L 258.956218 253.450043 
L 259.159229 253.423272 
L 259.362239 253.274261 
L 259.768261 253.37373 
L 260.174282 253.5909 
L 260.986324 253.679907 
L 261.392345 253.811994 
L 262.813419 254.008316 
L 263.422451 254.623516 
L 263.828472 254.827916 
L 265.452557 256.254639 
L 266.061589 256.140323 
L 266.2646 256.191403 
L 266.670621 256.121167 
L 267.685674 256.249716 
L 268.294706 256.618513 
L 268.903737 257.133244 
L 269.71578 257.235944 
L 270.121801 257.340028 
L 270.527822 257.606895 
L 270.730833 257.643744 
L 271.339864 257.485193 
L 271.542875 257.540967 
L 272.151907 257.402033 
L 272.963949 257.700517 
L 273.775992 258.407109 
L 274.385023 258.407493 
L 276.009108 258.653973 
L 276.61814 258.556505 
L 277.024161 258.132627 
L 278.039214 255.985542 
L 278.445235 255.474734 
L 278.851257 255.327415 
L 279.460288 255.277796 
L 279.86631 255.345109 
L 280.272331 255.262718 
L 280.475341 255.322492 
L 281.084373 255.134016 
L 282.302437 254.858072 
L 282.708458 255.016007 
L 283.114479 255.304106 
L 283.5205 255.251717 
L 283.926521 255.391882 
L 284.129532 255.325723 
L 285.144585 255.712137 
L 285.550606 255.75714 
L 286.565659 256.549507 
L 287.580712 257.193787 
L 287.783723 257.431805 
L 291.234903 257.96846 
L 291.843935 258.128011 
L 292.858988 258.073161 
L 294.077051 258.624048 
L 294.280062 258.579352 
L 294.483072 258.682668 
L 294.889094 258.62651 
L 295.295115 258.92384 
L 295.498125 258.963843 
L 295.904147 259.238017 
L 297.12221 259.421031 
L 297.934253 259.733209 
L 298.137263 259.790905 
L 298.746295 259.232556 
L 299.355327 259.250249 
L 299.558337 259.350872 
L 300.37038 259.270174 
L 301.182422 259.64851 
L 304.02457 261.815211 
L 304.430592 261.964838 
L 304.633602 262.052845 
L 305.445645 261.638198 
L 305.851666 261.578732 
L 306.460698 261.159854 
L 307.678761 260.906297 
L 309.505857 261.983532 
L 309.911878 262.342174 
L 310.72392 262.738358 
L 311.129941 262.886754 
L 311.332952 262.815441 
L 312.144994 263.047381 
L 312.957037 262.85352 
L 313.566069 262.269015 
L 313.97209 262.221857 
L 314.378111 262.398871 
L 314.784132 262.764668 
L 314.987143 263.145542 
L 315.596174 263.158774 
L 315.799185 263.2017 
L 316.205206 263.103308 
L 317.220259 263.35425 
L 317.42327 263.227856 
L 318.641333 263.582498 
L 318.844344 263.557343 
L 319.047355 263.669659 
L 320.062408 263.246319 
L 320.468429 263.206547 
L 320.87445 263.128003 
L 321.686492 263.409485 
L 322.092514 263.265475 
L 322.498535 263.360251 
L 322.904556 263.381868 
L 323.310577 263.556958 
L 324.12262 263.685275 
L 324.528641 263.673659 
L 324.934662 263.753127 
L 326.761757 264.123001 
L 327.5738 264.059457 
L 327.979821 263.851442 
L 329.400895 260.758593 
L 330.821969 257.805602 
L 331.431001 257.33372 
L 331.634012 257.301102 
L 332.446054 256.609743 
L 333.055086 256.534968 
L 333.461107 256.653054 
L 333.867128 256.918843 
L 334.273149 257.074624 
L 334.679171 257.362799 
L 335.085192 257.65636 
L 335.491213 257.8793 
L 336.912287 258.515732 
L 337.318308 258.788214 
L 338.536372 259.429724 
L 339.754435 259.520269 
L 340.769488 259.104777 
L 341.37852 258.70467 
L 341.987552 258.359798 
L 342.190563 258.381799 
L 342.596584 258.022618 
L 343.205616 258.172476 
L 343.408626 258.284792 
L 343.814647 258.008233 
L 344.017658 257.897378 
L 344.220669 257.981307 
L 344.62669 257.658283 
L 345.032711 257.571354 
L 346.656796 257.873915 
L 347.062817 257.950459 
L 348.07787 257.687131 
L 348.28088 257.738289 
L 348.686902 257.614588 
L 349.701955 257.542736 
L 350.107976 256.74406 
L 350.717008 256.091934 
L 350.920018 255.98108 
L 351.123029 256.030391 
L 351.935071 255.656209 
L 352.747114 255.24187 
L 352.950124 255.291643 
L 353.559156 255.09909 
L 355.183241 255.890765 
L 355.386251 255.919845 
L 355.995283 256.388418 
L 356.401304 256.421959 
L 357.416357 255.907074 
L 358.025389 255.837223 
L 358.2284 255.822145 
L 358.43141 255.993389 
L 359.243453 256.018698 
L 359.852484 256.455654 
L 360.055495 256.367571 
L 360.258506 256.464732 
L 360.664527 256.824759 
L 361.070548 256.877917 
L 361.67958 256.959692 
L 363.100654 257.371108 
L 364.521728 257.904917 
L 365.13076 258.116471 
L 365.536781 258.279253 
L 365.942802 258.364875 
L 366.348824 258.673744 
L 366.754845 258.8016 
L 367.160866 258.731979 
L 367.363876 258.833679 
L 367.972908 258.392261 
L 368.378929 257.771522 
L 368.987961 257.33472 
L 369.596993 256.340953 
L 370.003014 255.780449 
L 370.206025 255.650747 
L 370.815057 254.766604 
L 371.83011 254.40273 
L 372.03312 254.355265 
L 372.439141 254.071321 
L 372.642152 253.972544 
L 373.048173 254.233256 
L 373.251184 254.352342 
L 373.657205 254.715985 
L 374.063226 254.741756 
L 374.469247 254.96985 
L 376.093332 256.178556 
L 376.499353 256.398265 
L 379.747523 260.137316 
L 380.153544 260.439185 
L 380.559565 260.750208 
L 380.965586 260.810674 
L 381.168597 260.68728 
L 381.777629 260.821829 
L 383.401714 262.53265 
L 383.807735 262.84952 
L 384.010745 262.799824 
L 384.619777 263.124387 
L 385.025798 263.553727 
L 385.43182 264.107307 
L 386.446873 264.726969 
L 386.649883 264.77405 
L 386.852894 265.003913 
L 387.055904 265.013068 
L 387.461926 265.186388 
L 388.070957 265.202005 
L 388.883 265.753585 
L 389.289021 266.014758 
L 389.492031 266.006065 
L 389.898053 265.635038 
L 390.304074 265.110229 
L 390.913106 264.332555 
L 391.522137 262.803055 
L 391.928159 262.234551 
L 392.33418 261.92422 
L 392.53719 261.945606 
L 393.146222 261.172932 
L 393.552243 260.796366 
L 393.755254 260.727206 
L 394.161275 260.199551 
L 394.364286 260.031154 
L 394.770307 259.381874 
L 394.973318 259.300176 
L 395.379339 258.840603 
L 396.597402 257.74329 
L 397.206434 257.420573 
L 397.815466 257.184478 
L 398.221487 257.273023 
L 398.424498 257.365415 
L 398.627508 257.209172 
L 399.439551 257.397956 
L 400.251593 257.233405 
L 401.266646 257.65236 
L 401.875678 258.227326 
L 402.281699 258.561351 
L 402.890731 259.069774 
L 403.296752 259.548964 
L 403.702773 259.914915 
L 404.108794 260.007768 
L 405.123847 260.798366 
L 405.326858 260.833753 
L 405.732879 261.13516 
L 406.1389 261.229629 
L 406.341911 261.394872 
L 406.544922 261.261862 
L 406.747932 260.910451 
L 407.153953 260.784134 
L 407.559975 260.983149 
L 408.372017 261.192934 
L 409.38707 261.453723 
L 409.793091 261.280556 
L 410.199112 261.307866 
L 410.402123 261.495034 
L 410.808144 261.540345 
L 411.214165 261.809596 
L 411.620186 262.00638 
L 412.635239 262.319865 
L 413.447282 262.311095 
L 414.056314 262.06523 
L 414.868356 261.702741 
L 415.477388 260.468341 
L 416.28943 259.960995 
L 416.695451 260.162933 
L 416.898462 260.477034 
L 417.304483 259.910145 
L 418.522547 258.508347 
L 418.928568 258.329641 
L 419.5376 258.576429 
L 420.146632 258.833602 
L 420.552653 258.712593 
L 421.161684 258.926917 
L 421.567706 259.135317 
L 422.582759 260.221476 
L 423.19179 260.769517 
L 424.003833 260.602043 
L 424.409854 260.766363 
L 424.815875 260.859678 
L 425.221896 260.701358 
L 425.424907 260.788827 
L 425.627918 260.687203 
L 426.033939 260.211552 
L 426.236949 260.299482 
L 427.252002 259.678589 
L 427.658024 259.052234 
L 428.267055 258.589661 
L 428.876087 258.152782 
L 429.079098 258.247404 
L 429.68813 258.15332 
L 430.094151 257.968845 
L 430.500172 257.741828 
L 430.906193 257.871376 
L 431.109204 257.995385 
L 431.921246 257.838297 
L 432.936299 257.332028 
L 433.545331 257.516196 
L 433.748341 257.35426 
L 434.154363 256.737675 
L 434.560384 256.499734 
L 434.966405 256.312336 
L 435.372426 256.388341 
L 435.778447 256.59928 
L 435.981458 256.733906 
L 436.387479 257.143629 
L 436.7935 257.207018 
L 438.417585 257.737289 
L 438.620596 257.817064 
L 439.026617 258.174245 
L 439.432638 258.463498 
L 439.838659 258.879298 
L 440.04167 258.913916 
L 440.650702 259.476728 
L 441.462744 259.468804 
L 443.086829 260.796596 
L 444.101882 260.900835 
L 444.507903 261.072156 
L 445.116935 261.242014 
L 445.522956 261.002689 
L 445.928977 261.061386 
L 446.334998 261.2514 
L 446.538009 261.305019 
L 446.74102 261.164316 
L 447.147041 261.108928 
L 447.959083 260.475188 
L 448.162094 260.468187 
L 448.771126 259.902683 
L 449.177147 260.01223 
L 450.1922 260.905528 
L 450.598221 260.900527 
L 451.207253 260.625199 
L 451.816285 260.795365 
L 452.019295 260.758978 
L 453.64338 258.918532 
L 454.252412 258.650435 
L 454.455422 258.66282 
L 454.861443 258.478191 
L 455.470475 258.894992 
L 455.673486 259.089237 
L 455.876496 259.486728 
L 456.891549 260.262941 
L 457.09456 260.517498 
L 457.703592 260.495266 
L 458.109613 260.819598 
L 459.327677 261.321559 
L 460.139719 262.202471 
L 460.951761 262.718664 
L 461.154772 262.607963 
L 461.357783 262.656429 
L 461.763804 262.974683 
L 462.169825 263.046843 
L 462.778857 262.909602 
L 463.79391 263.397638 
L 464.199931 263.991145 
L 465.214984 265.577649 
L 465.621005 265.972294 
L 466.027026 265.905904 
L 466.839069 265.709812 
L 467.24509 265.832206 
L 467.651111 266.030837 
L 468.463153 265.612728 
L 468.463153 265.612728 
" style="fill:none;stroke:#4c72b0;stroke-linecap:round;stroke-width:1.75;"/>
   </g>
   <g id="line2d_30">
    <path clip-path="url(#pd2993b6531)" d="M 42.354063 307.28625 
L 488.754062 307.28625 
" style="fill:none;stroke:#4c72b0;stroke-dasharray:6.475,2.8;stroke-dashoffset:0;stroke-width:1.75;"/>
   </g>
   <g id="patch_3">
    <path d="M 42.354063 320.87625 
L 42.354063 21.89625 
" style="fill:none;"/>
   </g>
   <g id="patch_4">
    <path d="M 488.754062 320.87625 
L 488.754062 21.89625 
" style="fill:none;"/>
   </g>
   <g id="patch_5">
    <path d="M 42.354062 320.87625 
L 488.754063 320.87625 
" style="fill:none;"/>
   </g>
   <g id="patch_6">
    <path d="M 42.354062 21.89625 
L 488.754063 21.89625 
" style="fill:none;"/>
   </g>
   <g id="text_17">
    <!-- Noise Std Dev parameter over training -->
    <defs>
     <path d="M 67.4375 35.109375 
Q 67.4375 26.515625 64.84375 19.9375 
Q 62.25 13.375 57.75 8.953125 
Q 53.265625 4.546875 47.140625 2.265625 
Q 41.015625 0 33.9375 0 
L 8.203125 0 
L 8.203125 68.796875 
L 30.953125 68.796875 
Q 38.921875 68.796875 45.625 66.8125 
Q 52.34375 64.84375 57.171875 60.71875 
Q 62.015625 56.59375 64.71875 50.234375 
Q 67.4375 43.890625 67.4375 35.109375 
z
M 58.0625 35.109375 
Q 58.0625 42.09375 56.046875 47.046875 
Q 54.046875 52 50.4375 55.171875 
Q 46.828125 58.34375 41.796875 59.828125 
Q 36.765625 61.328125 30.765625 61.328125 
L 17.53125 61.328125 
L 17.53125 7.46875 
L 32.859375 7.46875 
Q 38.28125 7.46875 42.890625 9.21875 
Q 47.515625 10.984375 50.875 14.453125 
Q 54.25 17.921875 56.15625 23.09375 
Q 58.0625 28.265625 58.0625 35.109375 
z
" id="LiberationSans-44"/>
    </defs>
    <g style="fill:#262626;" transform="translate(163.51375 15.89625)scale(0.12 -0.12)">
     <use xlink:href="#LiberationSans-4e"/>
     <use x="72.216797" xlink:href="#LiberationSans-6f"/>
     <use x="127.832031" xlink:href="#LiberationSans-69"/>
     <use x="150.048828" xlink:href="#LiberationSans-73"/>
     <use x="200.048828" xlink:href="#LiberationSans-65"/>
     <use x="255.664062" xlink:href="#LiberationSans-20"/>
     <use x="283.447266" xlink:href="#LiberationSans-53"/>
     <use x="350.146484" xlink:href="#LiberationSans-74"/>
     <use x="377.929688" xlink:href="#LiberationSans-64"/>
     <use x="433.544922" xlink:href="#LiberationSans-20"/>
     <use x="461.328125" xlink:href="#LiberationSans-44"/>
     <use x="533.544922" xlink:href="#LiberationSans-65"/>
     <use x="589.160156" xlink:href="#LiberationSans-76"/>
     <use x="639.160156" xlink:href="#LiberationSans-20"/>
     <use x="666.943359" xlink:href="#LiberationSans-70"/>
     <use x="722.558594" xlink:href="#LiberationSans-61"/>
     <use x="778.173828" xlink:href="#LiberationSans-72"/>
     <use x="811.474609" xlink:href="#LiberationSans-61"/>
     <use x="867.089844" xlink:href="#LiberationSans-6d"/>
     <use x="950.390625" xlink:href="#LiberationSans-65"/>
     <use x="1006.005859" xlink:href="#LiberationSans-74"/>
     <use x="1033.789062" xlink:href="#LiberationSans-65"/>
     <use x="1089.404297" xlink:href="#LiberationSans-72"/>
     <use x="1122.705078" xlink:href="#LiberationSans-20"/>
     <use x="1150.488281" xlink:href="#LiberationSans-6f"/>
     <use x="1206.103516" xlink:href="#LiberationSans-76"/>
     <use x="1256.103516" xlink:href="#LiberationSans-65"/>
     <use x="1311.71875" xlink:href="#LiberationSans-72"/>
     <use x="1345.019531" xlink:href="#LiberationSans-20"/>
     <use x="1372.802734" xlink:href="#LiberationSans-74"/>
     <use x="1400.585938" xlink:href="#LiberationSans-72"/>
     <use x="1433.886719" xlink:href="#LiberationSans-61"/>
     <use x="1489.501953" xlink:href="#LiberationSans-69"/>
     <use x="1511.71875" xlink:href="#LiberationSans-6e"/>
     <use x="1567.333984" xlink:href="#LiberationSans-69"/>
     <use x="1589.550781" xlink:href="#LiberationSans-6e"/>
     <use x="1645.166016" xlink:href="#LiberationSans-67"/>
    </g>
   </g>
   <g id="legend_1">
    <g id="line2d_31">
     <path d="M 434.524375 34.643125 
L 454.524375 34.643125 
" style="fill:none;stroke:#4c72b0;stroke-linecap:round;stroke-width:1.75;"/>
    </g>
    <g id="line2d_32"/>
    <g id="text_18">
     <!-- fit -->
     <defs>
      <path d="M 17.625 46.4375 
L 17.625 0 
L 8.84375 0 
L 8.84375 46.4375 
L 1.421875 46.4375 
L 1.421875 52.828125 
L 8.84375 52.828125 
L 8.84375 58.796875 
Q 8.84375 61.671875 9.375 64.140625 
Q 9.90625 66.609375 11.34375 68.4375 
Q 12.796875 70.265625 15.28125 71.3125 
Q 17.78125 72.359375 21.734375 72.359375 
Q 23.296875 72.359375 24.96875 72.21875 
Q 26.65625 72.078125 27.9375 71.78125 
L 27.9375 65.09375 
Q 27.09375 65.234375 26 65.359375 
Q 24.90625 65.484375 24.03125 65.484375 
Q 22.078125 65.484375 20.828125 64.9375 
Q 19.578125 64.40625 18.875 63.40625 
Q 18.171875 62.40625 17.890625 60.9375 
Q 17.625 59.46875 17.625 57.5625 
L 17.625 52.828125 
L 27.9375 52.828125 
L 27.9375 46.4375 
z
" id="LiberationSans-66"/>
     </defs>
     <g style="fill:#262626;" transform="translate(462.524375 38.143125)scale(0.1 -0.1)">
      <use xlink:href="#LiberationSans-66"/>
      <use x="27.783203" xlink:href="#LiberationSans-69"/>
      <use x="50" xlink:href="#LiberationSans-74"/>
     </g>
    </g>
    <g id="line2d_33">
     <path d="M 434.524375 48.965 
L 454.524375 48.965 
" style="fill:none;stroke:#4c72b0;stroke-dasharray:6.475,2.8;stroke-dashoffset:0;stroke-width:1.75;"/>
    </g>
    <g id="line2d_34"/>
    <g id="text_19">
     <!-- true -->
     <defs>
      <path d="M 15.328125 52.828125 
L 15.328125 19.34375 
Q 15.328125 15.484375 15.890625 12.890625 
Q 16.453125 10.296875 17.71875 8.703125 
Q 19 7.125 21.0625 6.46875 
Q 23.140625 5.8125 26.21875 5.8125 
Q 29.34375 5.8125 31.859375 6.90625 
Q 34.375 8.015625 36.15625 10.078125 
Q 37.9375 12.15625 38.90625 15.203125 
Q 39.890625 18.265625 39.890625 22.21875 
L 39.890625 52.828125 
L 48.6875 52.828125 
L 48.6875 11.28125 
Q 48.6875 9.625 48.703125 7.78125 
Q 48.734375 5.953125 48.78125 4.3125 
Q 48.828125 2.6875 48.875 1.515625 
Q 48.921875 0.34375 48.96875 0 
L 40.671875 0 
Q 40.625 0.25 40.578125 1.3125 
Q 40.53125 2.390625 40.453125 3.78125 
Q 40.375 5.171875 40.328125 6.609375 
Q 40.28125 8.0625 40.28125 9.03125 
L 40.140625 9.03125 
Q 38.875 6.734375 37.359375 4.875 
Q 35.84375 3.03125 33.84375 1.734375 
Q 31.84375 0.4375 29.25 -0.265625 
Q 26.65625 -0.984375 23.25 -0.984375 
Q 18.84375 -0.984375 15.671875 0.09375 
Q 12.5 1.171875 10.453125 3.421875 
Q 8.40625 5.671875 7.453125 9.1875 
Q 6.5 12.703125 6.5 17.625 
L 6.5 52.828125 
z
" id="LiberationSans-75"/>
     </defs>
     <g style="fill:#262626;" transform="translate(462.524375 52.465)scale(0.1 -0.1)">
      <use xlink:href="#LiberationSans-74"/>
      <use x="27.783203" xlink:href="#LiberationSans-72"/>
      <use x="61.083984" xlink:href="#LiberationSans-75"/>
      <use x="116.699219" xlink:href="#LiberationSans-65"/>
     </g>
    </g>
   </g>
  </g>
 </g>
 <defs>
  <clipPath id="pd2993b6531">
   <rect height="298.98" width="446.4" x="42.354063" y="21.89625"/>
  </clipPath>
 </defs>
</svg>
