<?xml version="1.0" encoding="utf-8" standalone="no"?>
<!DOCTYPE svg PUBLIC "-//W3C//DTD SVG 1.1//EN"
  "http://www.w3.org/Graphics/SVG/1.1/DTD/svg11.dtd">
<!-- Created with matplotlib (https://matplotlib.org/) -->
<svg version="1.1" viewBox="0 0 389.192187 257.985938" xmlns="http://www.w3.org/2000/svg" xmlns:xlink="http://www.w3.org/1999/xlink">
 <defs>
  <style type="text/css">
*{stroke-linecap:butt;stroke-linejoin:round;}
  </style>
 </defs>
 <g id="figure_1">
  <g id="patch_1">
   <path d="M 0 257.985938 
L 389.192187 257.985938 
L 389.192187 0 
L 0 0 
z
" style="fill:#ffffff;"/>
  </g>
  <g id="axes_1">
   <g id="patch_2">
    <path d="M 41.192188 60.469565 
L 193.374006 60.469565 
L 193.374006 13.2 
L 41.192188 13.2 
z
" style="fill:#eaeaf2;"/>
   </g>
   <g id="matplotlib.axis_1">
    <g id="xtick_1">
     <g id="line2d_1">
      <path clip-path="url(#p46b0738a01)" d="M 70.081225 60.469565 
L 70.081225 13.2 
" style="fill:none;stroke:#ffffff;stroke-linecap:round;"/>
     </g>
    </g>
    <g id="xtick_2">
     <g id="line2d_2">
      <path clip-path="url(#p46b0738a01)" d="M 123.252902 60.469565 
L 123.252902 13.2 
" style="fill:none;stroke:#ffffff;stroke-linecap:round;"/>
     </g>
    </g>
    <g id="xtick_3">
     <g id="line2d_3">
      <path clip-path="url(#p46b0738a01)" d="M 176.424578 60.469565 
L 176.424578 13.2 
" style="fill:none;stroke:#ffffff;stroke-linecap:round;"/>
     </g>
    </g>
   </g>
   <g id="matplotlib.axis_2">
    <g id="ytick_1">
     <g id="line2d_4">
      <path clip-path="url(#p46b0738a01)" d="M 41.192188 60.469565 
L 193.374006 60.469565 
" style="fill:none;stroke:#ffffff;stroke-linecap:round;"/>
     </g>
     <g id="text_1">
      <!-- 0.0 -->
      <defs>
       <path d="M 31.78125 66.40625 
Q 24.171875 66.40625 20.328125 58.90625 
Q 16.5 51.421875 16.5 36.375 
Q 16.5 21.390625 20.328125 13.890625 
Q 24.171875 6.390625 31.78125 6.390625 
Q 39.453125 6.390625 43.28125 13.890625 
Q 47.125 21.390625 47.125 36.375 
Q 47.125 51.421875 43.28125 58.90625 
Q 39.453125 66.40625 31.78125 66.40625 
z
M 31.78125 74.21875 
Q 44.046875 74.21875 50.515625 64.515625 
Q 56.984375 54.828125 56.984375 36.375 
Q 56.984375 17.96875 50.515625 8.265625 
Q 44.046875 -1.421875 31.78125 -1.421875 
Q 19.53125 -1.421875 13.0625 8.265625 
Q 6.59375 17.96875 6.59375 36.375 
Q 6.59375 54.828125 13.0625 64.515625 
Q 19.53125 74.21875 31.78125 74.21875 
z
" id="DejaVuSans-48"/>
       <path d="M 10.6875 12.40625 
L 21 12.40625 
L 21 0 
L 10.6875 0 
z
" id="DejaVuSans-46"/>
      </defs>
      <g style="fill:#262626;" transform="translate(14.19875 64.648706)scale(0.11 -0.11)">
       <use xlink:href="#DejaVuSans-48"/>
       <use x="63.623047" xlink:href="#DejaVuSans-46"/>
       <use x="95.410156" xlink:href="#DejaVuSans-48"/>
      </g>
     </g>
    </g>
    <g id="ytick_2">
     <g id="line2d_5">
      <path clip-path="url(#p46b0738a01)" d="M 41.192188 34.100208 
L 193.374006 34.100208 
" style="fill:none;stroke:#ffffff;stroke-linecap:round;"/>
     </g>
     <g id="text_2">
      <!-- 0.2 -->
      <defs>
       <path d="M 19.1875 8.296875 
L 53.609375 8.296875 
L 53.609375 0 
L 7.328125 0 
L 7.328125 8.296875 
Q 12.9375 14.109375 22.625 23.890625 
Q 32.328125 33.6875 34.8125 36.53125 
Q 39.546875 41.84375 41.421875 45.53125 
Q 43.3125 49.21875 43.3125 52.78125 
Q 43.3125 58.59375 39.234375 62.25 
Q 35.15625 65.921875 28.609375 65.921875 
Q 23.96875 65.921875 18.8125 64.3125 
Q 13.671875 62.703125 7.8125 59.421875 
L 7.8125 69.390625 
Q 13.765625 71.78125 18.9375 73 
Q 24.125 74.21875 28.421875 74.21875 
Q 39.75 74.21875 46.484375 68.546875 
Q 53.21875 62.890625 53.21875 53.421875 
Q 53.21875 48.921875 51.53125 44.890625 
Q 49.859375 40.875 45.40625 35.40625 
Q 44.1875 33.984375 37.640625 27.21875 
Q 31.109375 20.453125 19.1875 8.296875 
z
" id="DejaVuSans-50"/>
      </defs>
      <g style="fill:#262626;" transform="translate(14.19875 38.279349)scale(0.11 -0.11)">
       <use xlink:href="#DejaVuSans-48"/>
       <use x="63.623047" xlink:href="#DejaVuSans-46"/>
       <use x="95.410156" xlink:href="#DejaVuSans-50"/>
      </g>
     </g>
    </g>
   </g>
   <g id="line2d_6">
    <path clip-path="url(#p46b0738a01)" d="M 73.330934 60.468702 
L 79.925684 60.373371 
L 83.589433 60.113814 
L 86.520433 59.698393 
L 87.985932 59.33504 
L 89.451432 58.753268 
L 90.916932 57.820881 
L 92.382432 56.499514 
L 96.046181 52.568317 
L 98.244431 49.93272 
L 100.442681 46.709374 
L 103.37368 41.90382 
L 104.83918 39.024401 
L 106.30468 35.539742 
L 108.502929 29.331047 
L 110.701179 23.187522 
L 112.166679 20.047234 
L 113.632179 17.837008 
L 114.364929 17.018573 
L 115.097678 16.368608 
L 115.830428 15.888742 
L 116.563178 15.584583 
L 117.295928 15.450891 
L 118.761428 15.57037 
L 120.959678 15.903314 
L 123.157927 15.965514 
L 123.890677 16.244409 
L 124.623427 16.831328 
L 125.356177 17.778213 
L 126.088927 19.073212 
L 127.554427 22.428327 
L 131.218176 31.646255 
L 137.812925 46.74684 
L 139.278425 49.504153 
L 140.743925 51.657545 
L 142.209425 53.154594 
L 147.338674 57.309139 
L 148.804174 58.272176 
L 150.269673 59.031334 
L 151.735173 59.556645 
L 153.200673 59.834347 
L 157.597172 60.163546 
L 162.726422 60.434243 
L 166.390171 60.468563 
L 166.390171 60.468563 
" style="fill:none;stroke:#4c72b0;stroke-linecap:round;stroke-width:1.5;"/>
   </g>
   <g id="line2d_7">
    <path clip-path="url(#p46b0738a01)" d="M 73.801335 60.464523 
L 78.543083 60.340367 
L 81.704249 59.996226 
L 88.026579 59.039643 
L 89.607162 58.542237 
L 91.187744 57.774011 
L 92.768327 56.690909 
L 94.34891 55.288202 
L 96.719784 52.709623 
L 99.090658 49.796904 
L 101.461531 46.544953 
L 103.832405 42.812029 
L 106.993571 37.229935 
L 110.945027 29.739742 
L 114.106193 23.080331 
L 115.686775 20.042321 
L 116.477066 18.898942 
L 117.267358 18.117186 
L 118.057649 17.733948 
L 118.84794 17.736927 
L 119.638232 18.069401 
L 120.428523 18.645647 
L 125.170271 23.008249 
L 127.541145 24.586791 
L 129.912019 26.150359 
L 131.492601 27.539876 
L 133.073184 29.47851 
L 134.653767 32.146072 
L 136.234349 35.539504 
L 140.185806 44.868947 
L 141.766389 47.816096 
L 143.346971 50.128566 
L 144.927554 52.000137 
L 147.298428 54.393036 
L 149.669302 56.460748 
L 151.249884 57.596545 
L 152.830467 58.478913 
L 154.41105 59.101641 
L 155.991632 59.507891 
L 158.362506 59.858474 
L 162.313963 60.139994 
L 171.007167 60.448567 
L 174.168332 60.465665 
L 174.168332 60.465665 
" style="fill:none;stroke:#55a868;stroke-linecap:round;stroke-width:1.5;"/>
   </g>
   <g id="line2d_8">
    <path clip-path="url(#p46b0738a01)" d="M 110.972433 60.469565 
L 110.972433 13.2 
" style="fill:none;stroke:#1a1a1a;stroke-linecap:round;stroke-width:1.5;"/>
   </g>
   <g id="patch_3">
    <path d="M 41.192188 60.469565 
L 41.192188 13.2 
" style="fill:none;stroke:#ffffff;stroke-linecap:square;stroke-linejoin:miter;stroke-width:1.25;"/>
   </g>
   <g id="patch_4">
    <path d="M 193.374006 60.469565 
L 193.374006 13.2 
" style="fill:none;stroke:#ffffff;stroke-linecap:square;stroke-linejoin:miter;stroke-width:1.25;"/>
   </g>
   <g id="patch_5">
    <path d="M 41.192187 60.469565 
L 193.374006 60.469565 
" style="fill:none;stroke:#ffffff;stroke-linecap:square;stroke-linejoin:miter;stroke-width:1.25;"/>
   </g>
   <g id="patch_6">
    <path d="M 41.192187 13.2 
L 193.374006 13.2 
" style="fill:none;stroke:#ffffff;stroke-linecap:square;stroke-linejoin:miter;stroke-width:1.25;"/>
   </g>
  </g>
  <g id="axes_2">
   <g id="patch_7">
    <path d="M 223.810369 60.469565 
L 375.992187 60.469565 
L 375.992187 13.2 
L 223.810369 13.2 
z
" style="fill:#eaeaf2;"/>
   </g>
   <g id="matplotlib.axis_3">
    <g id="xtick_4">
     <g id="line2d_9">
      <path clip-path="url(#p381a9e4321)" d="M 252.699407 60.469565 
L 252.699407 13.2 
" style="fill:none;stroke:#ffffff;stroke-linecap:round;"/>
     </g>
    </g>
    <g id="xtick_5">
     <g id="line2d_10">
      <path clip-path="url(#p381a9e4321)" d="M 305.871084 60.469565 
L 305.871084 13.2 
" style="fill:none;stroke:#ffffff;stroke-linecap:round;"/>
     </g>
    </g>
    <g id="xtick_6">
     <g id="line2d_11">
      <path clip-path="url(#p381a9e4321)" d="M 359.04276 60.469565 
L 359.04276 13.2 
" style="fill:none;stroke:#ffffff;stroke-linecap:round;"/>
     </g>
    </g>
   </g>
   <g id="matplotlib.axis_4">
    <g id="ytick_3">
     <g id="line2d_12">
      <path clip-path="url(#p381a9e4321)" d="M 223.810369 60.469565 
L 375.992187 60.469565 
" style="fill:none;stroke:#ffffff;stroke-linecap:round;"/>
     </g>
     <g id="text_3">
      <!-- 0.00 -->
      <g style="fill:#262626;" transform="translate(189.818182 64.648706)scale(0.11 -0.11)">
       <use xlink:href="#DejaVuSans-48"/>
       <use x="63.623047" xlink:href="#DejaVuSans-46"/>
       <use x="95.410156" xlink:href="#DejaVuSans-48"/>
       <use x="159.033203" xlink:href="#DejaVuSans-48"/>
      </g>
     </g>
    </g>
    <g id="ytick_4">
     <g id="line2d_13">
      <path clip-path="url(#p381a9e4321)" d="M 223.810369 32.842164 
L 375.992187 32.842164 
" style="fill:none;stroke:#ffffff;stroke-linecap:round;"/>
     </g>
     <g id="text_4">
      <!-- 0.25 -->
      <defs>
       <path d="M 10.796875 72.90625 
L 49.515625 72.90625 
L 49.515625 64.59375 
L 19.828125 64.59375 
L 19.828125 46.734375 
Q 21.96875 47.46875 24.109375 47.828125 
Q 26.265625 48.1875 28.421875 48.1875 
Q 40.625 48.1875 47.75 41.5 
Q 54.890625 34.8125 54.890625 23.390625 
Q 54.890625 11.625 47.5625 5.09375 
Q 40.234375 -1.421875 26.90625 -1.421875 
Q 22.3125 -1.421875 17.546875 -0.640625 
Q 12.796875 0.140625 7.71875 1.703125 
L 7.71875 11.625 
Q 12.109375 9.234375 16.796875 8.0625 
Q 21.484375 6.890625 26.703125 6.890625 
Q 35.15625 6.890625 40.078125 11.328125 
Q 45.015625 15.765625 45.015625 23.390625 
Q 45.015625 31 40.078125 35.4375 
Q 35.15625 39.890625 26.703125 39.890625 
Q 22.75 39.890625 18.8125 39.015625 
Q 14.890625 38.140625 10.796875 36.28125 
z
" id="DejaVuSans-53"/>
      </defs>
      <g style="fill:#262626;" transform="translate(189.818182 37.021305)scale(0.11 -0.11)">
       <use xlink:href="#DejaVuSans-48"/>
       <use x="63.623047" xlink:href="#DejaVuSans-46"/>
       <use x="95.410156" xlink:href="#DejaVuSans-50"/>
       <use x="159.033203" xlink:href="#DejaVuSans-53"/>
      </g>
     </g>
    </g>
   </g>
   <g id="line2d_14">
    <path clip-path="url(#p381a9e4321)" d="M 234.146721 60.468658 
L 239.260223 60.369794 
L 242.912725 60.021285 
L 247.295727 59.388758 
L 250.217728 58.772362 
L 251.678729 58.31023 
L 253.13973 57.561899 
L 254.60073 56.497193 
L 256.792231 54.572906 
L 258.983732 52.355684 
L 260.444733 50.608555 
L 262.636234 47.550596 
L 264.097235 45.160785 
L 265.558235 42.317826 
L 267.019236 38.827091 
L 269.941238 31.268944 
L 271.402238 28.484484 
L 272.863239 26.36389 
L 275.78524 22.447937 
L 276.515741 21.645124 
L 277.246241 21.030276 
L 277.976741 20.625478 
L 278.707242 20.420362 
L 279.437742 20.388532 
L 280.168242 20.506722 
L 280.898743 20.765567 
L 281.629243 21.167984 
L 282.359743 21.719098 
L 283.820744 23.243426 
L 285.281745 25.203168 
L 287.473246 28.691358 
L 290.395247 33.962595 
L 292.586748 38.117817 
L 297.700251 48.44442 
L 299.161251 50.618668 
L 300.622252 52.32483 
L 302.813753 54.475331 
L 305.005254 56.328817 
L 306.466255 57.361326 
L 307.927256 58.177681 
L 309.388256 58.684958 
L 316.69326 60.116877 
L 319.615261 60.3382 
L 324.728763 60.463222 
L 326.920264 60.468803 
L 326.920264 60.468803 
" style="fill:none;stroke:#4c72b0;stroke-linecap:round;stroke-width:1.5;"/>
   </g>
   <g id="line2d_15">
    <path clip-path="url(#p381a9e4321)" d="M 241.923311 60.466304 
L 246.121771 60.377151 
L 248.520891 60.135569 
L 250.32023 59.768249 
L 252.11957 59.158924 
L 253.91891 58.309177 
L 255.71825 57.277797 
L 256.91781 56.415788 
L 258.117369 55.268747 
L 259.316929 53.735427 
L 261.116269 50.81089 
L 264.115169 45.278759 
L 265.314728 42.656106 
L 267.114068 37.938497 
L 269.513188 31.455104 
L 271.312528 27.357317 
L 274.311427 21.209985 
L 276.110767 17.975338 
L 277.310327 16.394794 
L 277.910107 15.872008 
L 278.509887 15.556178 
L 279.109667 15.450895 
L 279.709447 15.54228 
L 280.309227 15.800856 
L 281.508786 16.661392 
L 283.308126 18.362491 
L 284.507686 19.794874 
L 285.707246 21.77679 
L 286.906806 24.506059 
L 288.706146 29.591046 
L 290.505485 34.542944 
L 292.304825 38.657393 
L 295.903505 46.500969 
L 298.302624 51.747666 
L 299.502184 53.841722 
L 300.701744 55.436564 
L 301.901304 56.624901 
L 303.700644 57.987176 
L 305.499983 59.048423 
L 306.699543 59.554585 
L 307.899103 59.883969 
L 309.698443 60.136807 
L 313.896902 60.397359 
L 318.095362 60.466389 
L 318.095362 60.466389 
" style="fill:none;stroke:#55a868;stroke-linecap:round;stroke-width:1.5;"/>
   </g>
   <g id="line2d_16">
    <path clip-path="url(#p381a9e4321)" d="M 290.890144 60.469565 
L 290.890144 13.2 
" style="fill:none;stroke:#1a1a1a;stroke-linecap:round;stroke-width:1.5;"/>
   </g>
   <g id="patch_8">
    <path d="M 223.810369 60.469565 
L 223.810369 13.2 
" style="fill:none;stroke:#ffffff;stroke-linecap:square;stroke-linejoin:miter;stroke-width:1.25;"/>
   </g>
   <g id="patch_9">
    <path d="M 375.992187 60.469565 
L 375.992187 13.2 
" style="fill:none;stroke:#ffffff;stroke-linecap:square;stroke-linejoin:miter;stroke-width:1.25;"/>
   </g>
   <g id="patch_10">
    <path d="M 223.810369 60.469565 
L 375.992187 60.469565 
" style="fill:none;stroke:#ffffff;stroke-linecap:square;stroke-linejoin:miter;stroke-width:1.25;"/>
   </g>
   <g id="patch_11">
    <path d="M 223.810369 13.2 
L 375.992187 13.2 
" style="fill:none;stroke:#ffffff;stroke-linecap:square;stroke-linejoin:miter;stroke-width:1.25;"/>
   </g>
  </g>
  <g id="axes_3">
   <g id="patch_12">
    <path d="M 41.192188 117.193043 
L 193.374006 117.193043 
L 193.374006 69.923478 
L 41.192188 69.923478 
z
" style="fill:#eaeaf2;"/>
   </g>
   <g id="matplotlib.axis_5">
    <g id="xtick_7">
     <g id="line2d_17">
      <path clip-path="url(#p24e8ed78ee)" d="M 70.081225 117.193043 
L 70.081225 69.923478 
" style="fill:none;stroke:#ffffff;stroke-linecap:round;"/>
     </g>
    </g>
    <g id="xtick_8">
     <g id="line2d_18">
      <path clip-path="url(#p24e8ed78ee)" d="M 123.252902 117.193043 
L 123.252902 69.923478 
" style="fill:none;stroke:#ffffff;stroke-linecap:round;"/>
     </g>
    </g>
    <g id="xtick_9">
     <g id="line2d_19">
      <path clip-path="url(#p24e8ed78ee)" d="M 176.424578 117.193043 
L 176.424578 69.923478 
" style="fill:none;stroke:#ffffff;stroke-linecap:round;"/>
     </g>
    </g>
   </g>
   <g id="matplotlib.axis_6">
    <g id="ytick_5">
     <g id="line2d_20">
      <path clip-path="url(#p24e8ed78ee)" d="M 41.192188 117.193043 
L 193.374006 117.193043 
" style="fill:none;stroke:#ffffff;stroke-linecap:round;"/>
     </g>
     <g id="text_5">
      <!-- 0.00 -->
      <g style="fill:#262626;" transform="translate(7.2 121.372184)scale(0.11 -0.11)">
       <use xlink:href="#DejaVuSans-48"/>
       <use x="63.623047" xlink:href="#DejaVuSans-46"/>
       <use x="95.410156" xlink:href="#DejaVuSans-48"/>
       <use x="159.033203" xlink:href="#DejaVuSans-48"/>
      </g>
     </g>
    </g>
    <g id="ytick_6">
     <g id="line2d_21">
      <path clip-path="url(#p24e8ed78ee)" d="M 41.192188 87.796364 
L 193.374006 87.796364 
" style="fill:none;stroke:#ffffff;stroke-linecap:round;"/>
     </g>
     <g id="text_6">
      <!-- 0.25 -->
      <g style="fill:#262626;" transform="translate(7.2 91.975504)scale(0.11 -0.11)">
       <use xlink:href="#DejaVuSans-48"/>
       <use x="63.623047" xlink:href="#DejaVuSans-46"/>
       <use x="95.410156" xlink:href="#DejaVuSans-50"/>
       <use x="159.033203" xlink:href="#DejaVuSans-53"/>
      </g>
     </g>
    </g>
   </g>
   <g id="line2d_22">
    <path clip-path="url(#p24e8ed78ee)" d="M 48.109543 117.192329 
L 57.723885 117.081088 
L 60.127471 116.857913 
L 64.133447 116.25552 
L 66.537033 115.711499 
L 68.139423 115.132692 
L 70.543009 113.960229 
L 72.946594 112.56752 
L 74.548985 111.358209 
L 75.35018 110.559425 
L 76.151375 109.58863 
L 77.753765 107.123119 
L 80.157351 102.611228 
L 86.566913 90.279904 
L 89.771693 84.725055 
L 91.374084 81.385758 
L 92.976474 77.839295 
L 93.77767 76.297478 
L 94.578865 75.117437 
L 95.38006 74.393041 
L 96.181255 74.114118 
L 96.98245 74.169318 
L 99.386036 74.958655 
L 100.187231 75.325471 
L 100.988426 75.909589 
L 101.789622 76.826881 
L 102.590817 78.106462 
L 104.193207 81.427579 
L 109.000378 92.045587 
L 111.403964 96.765484 
L 113.80755 100.777969 
L 118.614721 108.235207 
L 120.217111 110.163466 
L 121.819502 111.639604 
L 123.421892 112.75664 
L 128.229063 115.592714 
L 129.831454 116.226812 
L 131.433844 116.60382 
L 133.036235 116.768799 
L 147.457748 117.185698 
L 149.861334 117.192329 
L 149.861334 117.192329 
" style="fill:none;stroke:#4c72b0;stroke-linecap:round;stroke-width:1.5;"/>
   </g>
   <g id="line2d_23">
    <path clip-path="url(#p24e8ed78ee)" d="M 53.622797 117.189307 
L 57.940508 117.098895 
L 65.136692 116.565193 
L 66.575929 116.311964 
L 68.015165 115.855312 
L 69.454402 115.170794 
L 71.613257 113.825481 
L 73.772113 112.208916 
L 75.211349 110.80998 
L 76.650586 108.971406 
L 78.089823 106.695901 
L 80.248678 102.790771 
L 85.286007 93.540751 
L 88.164481 88.17007 
L 90.323336 83.589019 
L 93.921428 75.589581 
L 94.641046 74.312226 
L 95.360665 73.292933 
L 96.080283 72.586198 
L 96.799901 72.21778 
L 97.51952 72.174376 
L 98.239138 72.403237 
L 99.678375 73.349283 
L 102.556849 75.67931 
L 103.276467 76.446759 
L 103.996085 77.422116 
L 104.715704 78.66201 
L 105.435322 80.190167 
L 106.874559 84.015695 
L 111.192269 96.791601 
L 112.631506 100.227458 
L 114.070743 103.141887 
L 115.50998 105.588823 
L 116.949216 107.656273 
L 119.108072 110.258205 
L 120.547308 111.70521 
L 121.986545 112.896272 
L 123.425782 113.849168 
L 125.584637 114.9813 
L 127.743492 115.853325 
L 129.902348 116.409405 
L 132.061203 116.687085 
L 137.098532 116.95614 
L 142.855479 117.17807 
L 145.014334 117.189723 
L 145.014334 117.189723 
" style="fill:none;stroke:#55a868;stroke-linecap:round;stroke-width:1.5;"/>
   </g>
   <g id="line2d_24">
    <path clip-path="url(#p24e8ed78ee)" d="M 114.498108 117.193043 
L 114.498108 69.923478 
" style="fill:none;stroke:#1a1a1a;stroke-linecap:round;stroke-width:1.5;"/>
   </g>
   <g id="patch_13">
    <path d="M 41.192188 117.193043 
L 41.192188 69.923478 
" style="fill:none;stroke:#ffffff;stroke-linecap:square;stroke-linejoin:miter;stroke-width:1.25;"/>
   </g>
   <g id="patch_14">
    <path d="M 193.374006 117.193043 
L 193.374006 69.923478 
" style="fill:none;stroke:#ffffff;stroke-linecap:square;stroke-linejoin:miter;stroke-width:1.25;"/>
   </g>
   <g id="patch_15">
    <path d="M 41.192187 117.193043 
L 193.374006 117.193043 
" style="fill:none;stroke:#ffffff;stroke-linecap:square;stroke-linejoin:miter;stroke-width:1.25;"/>
   </g>
   <g id="patch_16">
    <path d="M 41.192187 69.923478 
L 193.374006 69.923478 
" style="fill:none;stroke:#ffffff;stroke-linecap:square;stroke-linejoin:miter;stroke-width:1.25;"/>
   </g>
  </g>
  <g id="axes_4">
   <g id="patch_17">
    <path d="M 223.810369 117.193043 
L 375.992187 117.193043 
L 375.992187 69.923478 
L 223.810369 69.923478 
z
" style="fill:#eaeaf2;"/>
   </g>
   <g id="matplotlib.axis_7">
    <g id="xtick_10">
     <g id="line2d_25">
      <path clip-path="url(#pcdc5ea637f)" d="M 252.699407 117.193043 
L 252.699407 69.923478 
" style="fill:none;stroke:#ffffff;stroke-linecap:round;"/>
     </g>
    </g>
    <g id="xtick_11">
     <g id="line2d_26">
      <path clip-path="url(#pcdc5ea637f)" d="M 305.871084 117.193043 
L 305.871084 69.923478 
" style="fill:none;stroke:#ffffff;stroke-linecap:round;"/>
     </g>
    </g>
    <g id="xtick_12">
     <g id="line2d_27">
      <path clip-path="url(#pcdc5ea637f)" d="M 359.04276 117.193043 
L 359.04276 69.923478 
" style="fill:none;stroke:#ffffff;stroke-linecap:round;"/>
     </g>
    </g>
   </g>
   <g id="matplotlib.axis_8">
    <g id="ytick_7">
     <g id="line2d_28">
      <path clip-path="url(#pcdc5ea637f)" d="M 223.810369 117.193043 
L 375.992187 117.193043 
" style="fill:none;stroke:#ffffff;stroke-linecap:round;"/>
     </g>
     <g id="text_7">
      <!-- 0.0 -->
      <g style="fill:#262626;" transform="translate(196.816932 121.372184)scale(0.11 -0.11)">
       <use xlink:href="#DejaVuSans-48"/>
       <use x="63.623047" xlink:href="#DejaVuSans-46"/>
       <use x="95.410156" xlink:href="#DejaVuSans-48"/>
      </g>
     </g>
    </g>
    <g id="ytick_8">
     <g id="line2d_29">
      <path clip-path="url(#pcdc5ea637f)" d="M 223.810369 91.977274 
L 375.992187 91.977274 
" style="fill:none;stroke:#ffffff;stroke-linecap:round;"/>
     </g>
     <g id="text_8">
      <!-- 0.2 -->
      <g style="fill:#262626;" transform="translate(196.816932 96.156415)scale(0.11 -0.11)">
       <use xlink:href="#DejaVuSans-48"/>
       <use x="63.623047" xlink:href="#DejaVuSans-46"/>
       <use x="95.410156" xlink:href="#DejaVuSans-50"/>
      </g>
     </g>
    </g>
   </g>
   <g id="line2d_30">
    <path clip-path="url(#pcdc5ea637f)" d="M 240.819638 117.192168 
L 247.29122 117.080837 
L 251.335958 117.092367 
L 253.762801 117.006932 
L 256.189644 116.635778 
L 260.234382 115.613654 
L 262.661225 114.839186 
L 264.279121 114.123242 
L 265.897016 113.222812 
L 267.514911 112.068517 
L 269.132806 110.514163 
L 270.750702 108.501351 
L 272.368597 106.03823 
L 274.79544 101.647652 
L 277.222283 96.84029 
L 282.075969 86.446283 
L 284.502812 82.31732 
L 286.929655 77.849422 
L 288.54755 75.475114 
L 290.165446 73.68523 
L 290.974393 72.975556 
L 291.783341 72.445182 
L 292.592289 72.174372 
L 293.401236 72.229117 
L 294.210184 72.621569 
L 295.019132 73.294013 
L 297.445975 75.938973 
L 299.06387 77.818722 
L 299.872818 78.971837 
L 300.681765 80.389751 
L 301.490713 82.126844 
L 303.108608 86.492711 
L 304.726504 91.262984 
L 306.344399 95.186006 
L 307.962294 98.089801 
L 309.580189 100.878238 
L 313.624928 108.35019 
L 315.242823 110.64759 
L 316.860718 112.438636 
L 318.478614 113.862959 
L 320.096509 114.963468 
L 321.714404 115.665226 
L 323.3323 116.021556 
L 328.994933 116.757346 
L 332.230724 117.004282 
L 339.511253 117.165673 
L 343.555991 117.192237 
L 343.555991 117.192237 
" style="fill:none;stroke:#4c72b0;stroke-linecap:round;stroke-width:1.5;"/>
   </g>
   <g id="line2d_31">
    <path clip-path="url(#pcdc5ea637f)" d="M 246.471742 117.189845 
L 253.053499 117.070537 
L 260.366562 116.756984 
L 261.829175 116.425242 
L 263.291788 115.917642 
L 264.754401 115.241274 
L 266.94832 113.920773 
L 269.142239 112.233255 
L 270.604851 110.829083 
L 272.067464 109.017781 
L 273.530077 106.624647 
L 274.992689 103.649776 
L 279.380528 94.02799 
L 283.768366 85.437885 
L 286.693591 79.105635 
L 287.424897 77.884149 
L 288.156204 76.912866 
L 288.88751 76.189969 
L 289.618816 75.682915 
L 291.081429 75.111632 
L 292.544042 74.832764 
L 294.006655 74.713168 
L 295.469267 74.869863 
L 296.200574 75.123184 
L 296.93188 75.528899 
L 297.663186 76.10262 
L 298.394493 76.84693 
L 299.857105 78.798997 
L 301.319718 81.236221 
L 303.513637 85.482839 
L 305.707556 89.818813 
L 307.170169 92.276638 
L 310.826701 97.789682 
L 312.289313 100.80038 
L 315.214539 107.46554 
L 316.677151 110.138651 
L 318.139764 112.102468 
L 319.602377 113.477498 
L 321.064989 114.445769 
L 322.527602 115.138115 
L 324.721521 115.824106 
L 327.646747 116.382702 
L 332.034585 116.932366 
L 335.691116 117.149197 
L 339.347648 117.189729 
L 339.347648 117.189729 
" style="fill:none;stroke:#55a868;stroke-linecap:round;stroke-width:1.5;"/>
   </g>
   <g id="line2d_32">
    <path clip-path="url(#pcdc5ea637f)" d="M 299.244185 117.193043 
L 299.244185 69.923478 
" style="fill:none;stroke:#1a1a1a;stroke-linecap:round;stroke-width:1.5;"/>
   </g>
   <g id="patch_18">
    <path d="M 223.810369 117.193043 
L 223.810369 69.923478 
" style="fill:none;stroke:#ffffff;stroke-linecap:square;stroke-linejoin:miter;stroke-width:1.25;"/>
   </g>
   <g id="patch_19">
    <path d="M 375.992187 117.193043 
L 375.992187 69.923478 
" style="fill:none;stroke:#ffffff;stroke-linecap:square;stroke-linejoin:miter;stroke-width:1.25;"/>
   </g>
   <g id="patch_20">
    <path d="M 223.810369 117.193043 
L 375.992187 117.193043 
" style="fill:none;stroke:#ffffff;stroke-linecap:square;stroke-linejoin:miter;stroke-width:1.25;"/>
   </g>
   <g id="patch_21">
    <path d="M 223.810369 69.923478 
L 375.992187 69.923478 
" style="fill:none;stroke:#ffffff;stroke-linecap:square;stroke-linejoin:miter;stroke-width:1.25;"/>
   </g>
  </g>
  <g id="axes_5">
   <g id="patch_22">
    <path d="M 41.192188 173.916522 
L 193.374006 173.916522 
L 193.374006 126.646957 
L 41.192188 126.646957 
z
" style="fill:#eaeaf2;"/>
   </g>
   <g id="matplotlib.axis_9">
    <g id="xtick_13">
     <g id="line2d_33">
      <path clip-path="url(#pa465846f00)" d="M 70.081225 173.916522 
L 70.081225 126.646957 
" style="fill:none;stroke:#ffffff;stroke-linecap:round;"/>
     </g>
    </g>
    <g id="xtick_14">
     <g id="line2d_34">
      <path clip-path="url(#pa465846f00)" d="M 123.252902 173.916522 
L 123.252902 126.646957 
" style="fill:none;stroke:#ffffff;stroke-linecap:round;"/>
     </g>
    </g>
    <g id="xtick_15">
     <g id="line2d_35">
      <path clip-path="url(#pa465846f00)" d="M 176.424578 173.916522 
L 176.424578 126.646957 
" style="fill:none;stroke:#ffffff;stroke-linecap:round;"/>
     </g>
    </g>
   </g>
   <g id="matplotlib.axis_10">
    <g id="ytick_9">
     <g id="line2d_36">
      <path clip-path="url(#pa465846f00)" d="M 41.192188 173.916522 
L 193.374006 173.916522 
" style="fill:none;stroke:#ffffff;stroke-linecap:round;"/>
     </g>
     <g id="text_9">
      <!-- 0.0 -->
      <g style="fill:#262626;" transform="translate(14.19875 178.095662)scale(0.11 -0.11)">
       <use xlink:href="#DejaVuSans-48"/>
       <use x="63.623047" xlink:href="#DejaVuSans-46"/>
       <use x="95.410156" xlink:href="#DejaVuSans-48"/>
      </g>
     </g>
    </g>
    <g id="ytick_10">
     <g id="line2d_37">
      <path clip-path="url(#pa465846f00)" d="M 41.192188 149.828278 
L 193.374006 149.828278 
" style="fill:none;stroke:#ffffff;stroke-linecap:round;"/>
     </g>
     <g id="text_10">
      <!-- 0.2 -->
      <g style="fill:#262626;" transform="translate(14.19875 154.007418)scale(0.11 -0.11)">
       <use xlink:href="#DejaVuSans-48"/>
       <use x="63.623047" xlink:href="#DejaVuSans-46"/>
       <use x="95.410156" xlink:href="#DejaVuSans-50"/>
      </g>
     </g>
    </g>
   </g>
   <g id="line2d_38">
    <path clip-path="url(#pa465846f00)" d="M 60.054567 173.915679 
L 73.356422 173.807495 
L 78.051195 173.762174 
L 81.181043 173.698208 
L 82.745967 173.47744 
L 84.310892 172.972845 
L 85.875816 172.143819 
L 88.223202 170.513866 
L 90.570588 168.682722 
L 92.135512 167.200874 
L 93.700436 165.267108 
L 96.047823 161.688717 
L 99.960133 155.282521 
L 101.525057 152.168191 
L 103.872444 146.581867 
L 105.437368 142.982357 
L 107.002292 139.841556 
L 110.13214 134.226514 
L 111.697064 131.767144 
L 113.261989 129.848468 
L 114.044451 129.223404 
L 114.826913 128.897848 
L 115.609375 128.923149 
L 116.391837 129.337129 
L 117.174299 130.14272 
L 117.956761 131.281894 
L 121.869071 137.860888 
L 123.433996 140.500032 
L 125.781382 145.309082 
L 129.693692 153.49332 
L 132.041079 158.680874 
L 133.606003 161.449501 
L 135.953389 164.951654 
L 137.518313 167.018086 
L 139.083237 168.695604 
L 140.648161 170.057937 
L 142.213086 171.217117 
L 143.77801 172.092548 
L 145.342934 172.61079 
L 146.907858 172.859991 
L 151.602631 173.385742 
L 154.732479 173.804016 
L 157.862327 173.909952 
L 159.427251 173.915451 
L 159.427251 173.915451 
" style="fill:none;stroke:#4c72b0;stroke-linecap:round;stroke-width:1.5;"/>
   </g>
   <g id="line2d_39">
    <path clip-path="url(#pa465846f00)" d="M 62.382871 173.913241 
L 69.266299 173.802265 
L 76.914551 173.532761 
L 79.209027 173.15727 
L 82.268328 172.379929 
L 85.327629 171.367708 
L 86.857279 170.669577 
L 88.38693 169.721902 
L 89.91658 168.442801 
L 91.446231 166.801624 
L 93.740706 163.798227 
L 99.094483 156.091057 
L 100.624133 153.293801 
L 102.153784 149.898576 
L 106.742735 138.734055 
L 107.507561 137.338726 
L 108.272386 136.213377 
L 109.037211 135.368943 
L 109.802036 134.789067 
L 110.566862 134.435313 
L 111.331687 134.257764 
L 112.861337 134.243423 
L 114.390988 134.486034 
L 115.920638 134.90658 
L 117.450289 135.519754 
L 118.979939 136.389562 
L 120.50959 137.642874 
L 122.03924 139.444831 
L 123.568891 141.872829 
L 125.863366 146.319824 
L 129.687493 153.80655 
L 132.746794 159.377918 
L 134.276444 161.803828 
L 135.806095 163.838041 
L 137.335745 165.524246 
L 139.630221 167.684129 
L 141.924696 169.580074 
L 143.454347 170.646222 
L 144.983997 171.514921 
L 146.513648 172.192838 
L 148.808124 172.921383 
L 151.102599 173.406338 
L 153.397075 173.708961 
L 156.456376 173.880413 
L 159.515677 173.912705 
L 159.515677 173.912705 
" style="fill:none;stroke:#55a868;stroke-linecap:round;stroke-width:1.5;"/>
   </g>
   <g id="line2d_40">
    <path clip-path="url(#pa465846f00)" d="M 111.150393 173.916522 
L 111.150393 126.646957 
" style="fill:none;stroke:#1a1a1a;stroke-linecap:round;stroke-width:1.5;"/>
   </g>
   <g id="patch_23">
    <path d="M 41.192188 173.916522 
L 41.192188 126.646957 
" style="fill:none;stroke:#ffffff;stroke-linecap:square;stroke-linejoin:miter;stroke-width:1.25;"/>
   </g>
   <g id="patch_24">
    <path d="M 193.374006 173.916522 
L 193.374006 126.646957 
" style="fill:none;stroke:#ffffff;stroke-linecap:square;stroke-linejoin:miter;stroke-width:1.25;"/>
   </g>
   <g id="patch_25">
    <path d="M 41.192187 173.916522 
L 193.374006 173.916522 
" style="fill:none;stroke:#ffffff;stroke-linecap:square;stroke-linejoin:miter;stroke-width:1.25;"/>
   </g>
   <g id="patch_26">
    <path d="M 41.192187 126.646957 
L 193.374006 126.646957 
" style="fill:none;stroke:#ffffff;stroke-linecap:square;stroke-linejoin:miter;stroke-width:1.25;"/>
   </g>
  </g>
  <g id="axes_6">
   <g id="patch_27">
    <path d="M 223.810369 173.916522 
L 375.992187 173.916522 
L 375.992187 126.646957 
L 223.810369 126.646957 
z
" style="fill:#eaeaf2;"/>
   </g>
   <g id="matplotlib.axis_11">
    <g id="xtick_16">
     <g id="line2d_41">
      <path clip-path="url(#p7915d6ccfd)" d="M 252.699407 173.916522 
L 252.699407 126.646957 
" style="fill:none;stroke:#ffffff;stroke-linecap:round;"/>
     </g>
    </g>
    <g id="xtick_17">
     <g id="line2d_42">
      <path clip-path="url(#p7915d6ccfd)" d="M 305.871084 173.916522 
L 305.871084 126.646957 
" style="fill:none;stroke:#ffffff;stroke-linecap:round;"/>
     </g>
    </g>
    <g id="xtick_18">
     <g id="line2d_43">
      <path clip-path="url(#p7915d6ccfd)" d="M 359.04276 173.916522 
L 359.04276 126.646957 
" style="fill:none;stroke:#ffffff;stroke-linecap:round;"/>
     </g>
    </g>
   </g>
   <g id="matplotlib.axis_12">
    <g id="ytick_11">
     <g id="line2d_44">
      <path clip-path="url(#p7915d6ccfd)" d="M 223.810369 173.916522 
L 375.992187 173.916522 
" style="fill:none;stroke:#ffffff;stroke-linecap:round;"/>
     </g>
     <g id="text_11">
      <!-- 0.0 -->
      <g style="fill:#262626;" transform="translate(196.816932 178.095662)scale(0.11 -0.11)">
       <use xlink:href="#DejaVuSans-48"/>
       <use x="63.623047" xlink:href="#DejaVuSans-46"/>
       <use x="95.410156" xlink:href="#DejaVuSans-48"/>
      </g>
     </g>
    </g>
    <g id="ytick_12">
     <g id="line2d_45">
      <path clip-path="url(#p7915d6ccfd)" d="M 223.810369 149.795002 
L 375.992187 149.795002 
" style="fill:none;stroke:#ffffff;stroke-linecap:round;"/>
     </g>
     <g id="text_12">
      <!-- 0.2 -->
      <g style="fill:#262626;" transform="translate(196.816932 153.974142)scale(0.11 -0.11)">
       <use xlink:href="#DejaVuSans-48"/>
       <use x="63.623047" xlink:href="#DejaVuSans-46"/>
       <use x="95.410156" xlink:href="#DejaVuSans-50"/>
      </g>
     </g>
    </g>
   </g>
   <g id="line2d_46">
    <path clip-path="url(#p7915d6ccfd)" d="M 237.181293 173.915625 
L 244.977399 173.804987 
L 248.875453 173.6658 
L 251.993895 173.290537 
L 254.332727 172.801189 
L 255.891948 172.257649 
L 257.45117 171.496594 
L 259.010391 170.509025 
L 261.349223 168.682492 
L 263.688055 166.58725 
L 265.247276 164.939993 
L 266.806497 162.932327 
L 268.365719 160.566871 
L 269.92494 157.892184 
L 271.484161 154.819111 
L 273.822993 149.480204 
L 276.161825 144.14827 
L 278.500657 139.303826 
L 280.059878 136.382259 
L 281.6191 133.914849 
L 282.39871 132.962052 
L 283.178321 132.25473 
L 283.957931 131.797194 
L 284.737542 131.547423 
L 286.296763 131.421471 
L 287.076374 131.497272 
L 287.855985 131.716384 
L 288.635595 132.145264 
L 289.415206 132.825697 
L 290.194817 133.750287 
L 291.754038 136.07952 
L 295.652091 142.383094 
L 297.990923 146.961079 
L 305.007419 161.324112 
L 306.56664 163.718735 
L 308.905472 166.690257 
L 310.464693 168.421338 
L 312.023915 169.855927 
L 313.583136 170.867351 
L 315.142357 171.477173 
L 318.2608 172.260675 
L 322.938463 173.207934 
L 325.277295 173.600002 
L 327.616127 173.747778 
L 336.191844 173.915323 
L 336.191844 173.915323 
" style="fill:none;stroke:#4c72b0;stroke-linecap:round;stroke-width:1.5;"/>
   </g>
   <g id="line2d_47">
    <path clip-path="url(#p7915d6ccfd)" d="M 243.315163 173.913167 
L 248.065265 173.796362 
L 250.101023 173.562569 
L 252.136781 173.140865 
L 259.601227 171.111793 
L 260.958399 170.614756 
L 262.315571 169.82542 
L 263.672743 168.566125 
L 265.029915 166.766242 
L 267.065673 163.345232 
L 271.815775 154.903699 
L 273.172947 151.751349 
L 274.530119 147.772716 
L 278.601635 134.220659 
L 279.280221 132.543083 
L 279.958807 131.184993 
L 280.637393 130.156584 
L 281.315979 129.448986 
L 281.994565 129.039683 
L 282.673151 128.897846 
L 283.351737 128.98853 
L 284.030323 129.275304 
L 285.387495 130.289829 
L 287.423253 132.366269 
L 292.173355 137.434482 
L 293.530527 139.45048 
L 295.566285 143.069104 
L 297.602043 147.120171 
L 300.994973 154.609151 
L 303.030731 158.740468 
L 304.387903 161.034044 
L 305.745075 162.916632 
L 307.102246 164.420001 
L 309.138004 166.21838 
L 311.852348 168.555428 
L 314.566692 170.973131 
L 315.923864 171.97224 
L 317.281036 172.723768 
L 318.638208 173.216501 
L 319.99538 173.499849 
L 322.709724 173.750638 
L 327.459826 173.903938 
L 329.495584 173.913388 
L 329.495584 173.913388 
" style="fill:none;stroke:#55a868;stroke-linecap:round;stroke-width:1.5;"/>
   </g>
   <g id="line2d_48">
    <path clip-path="url(#p7915d6ccfd)" d="M 283.055683 173.916522 
L 283.055683 126.646957 
" style="fill:none;stroke:#1a1a1a;stroke-linecap:round;stroke-width:1.5;"/>
   </g>
   <g id="patch_28">
    <path d="M 223.810369 173.916522 
L 223.810369 126.646957 
" style="fill:none;stroke:#ffffff;stroke-linecap:square;stroke-linejoin:miter;stroke-width:1.25;"/>
   </g>
   <g id="patch_29">
    <path d="M 375.992187 173.916522 
L 375.992187 126.646957 
" style="fill:none;stroke:#ffffff;stroke-linecap:square;stroke-linejoin:miter;stroke-width:1.25;"/>
   </g>
   <g id="patch_30">
    <path d="M 223.810369 173.916522 
L 375.992187 173.916522 
" style="fill:none;stroke:#ffffff;stroke-linecap:square;stroke-linejoin:miter;stroke-width:1.25;"/>
   </g>
   <g id="patch_31">
    <path d="M 223.810369 126.646957 
L 375.992187 126.646957 
" style="fill:none;stroke:#ffffff;stroke-linecap:square;stroke-linejoin:miter;stroke-width:1.25;"/>
   </g>
  </g>
  <g id="axes_7">
   <g id="patch_32">
    <path d="M 41.192188 230.64 
L 193.374006 230.64 
L 193.374006 183.370435 
L 41.192188 183.370435 
z
" style="fill:#eaeaf2;"/>
   </g>
   <g id="matplotlib.axis_13">
    <g id="xtick_19">
     <g id="line2d_49">
      <path clip-path="url(#p29c6b669b4)" d="M 70.081225 230.64 
L 70.081225 183.370435 
" style="fill:none;stroke:#ffffff;stroke-linecap:round;"/>
     </g>
     <g id="text_13">
      <!-- −5 -->
      <defs>
       <path d="M 10.59375 35.5 
L 73.1875 35.5 
L 73.1875 27.203125 
L 10.59375 27.203125 
z
" id="DejaVuSans-8722"/>
      </defs>
      <g style="fill:#262626;" transform="translate(61.973022 248.498281)scale(0.11 -0.11)">
       <use xlink:href="#DejaVuSans-8722"/>
       <use x="83.789062" xlink:href="#DejaVuSans-53"/>
      </g>
     </g>
    </g>
    <g id="xtick_20">
     <g id="line2d_50">
      <path clip-path="url(#p29c6b669b4)" d="M 123.252902 230.64 
L 123.252902 183.370435 
" style="fill:none;stroke:#ffffff;stroke-linecap:round;"/>
     </g>
     <g id="text_14">
      <!-- 0 -->
      <g style="fill:#262626;" transform="translate(119.753527 248.498281)scale(0.11 -0.11)">
       <use xlink:href="#DejaVuSans-48"/>
      </g>
     </g>
    </g>
    <g id="xtick_21">
     <g id="line2d_51">
      <path clip-path="url(#p29c6b669b4)" d="M 176.424578 230.64 
L 176.424578 183.370435 
" style="fill:none;stroke:#ffffff;stroke-linecap:round;"/>
     </g>
     <g id="text_15">
      <!-- 5 -->
      <g style="fill:#262626;" transform="translate(172.925203 248.498281)scale(0.11 -0.11)">
       <use xlink:href="#DejaVuSans-53"/>
      </g>
     </g>
    </g>
   </g>
   <g id="matplotlib.axis_14">
    <g id="ytick_13">
     <g id="line2d_52">
      <path clip-path="url(#p29c6b669b4)" d="M 41.192188 230.64 
L 193.374006 230.64 
" style="fill:none;stroke:#ffffff;stroke-linecap:round;"/>
     </g>
     <g id="text_16">
      <!-- 0.0 -->
      <g style="fill:#262626;" transform="translate(14.19875 234.819141)scale(0.11 -0.11)">
       <use xlink:href="#DejaVuSans-48"/>
       <use x="63.623047" xlink:href="#DejaVuSans-46"/>
       <use x="95.410156" xlink:href="#DejaVuSans-48"/>
      </g>
     </g>
    </g>
    <g id="ytick_14">
     <g id="line2d_53">
      <path clip-path="url(#p29c6b669b4)" d="M 41.192188 205.73934 
L 193.374006 205.73934 
" style="fill:none;stroke:#ffffff;stroke-linecap:round;"/>
     </g>
     <g id="text_17">
      <!-- 0.2 -->
      <g style="fill:#262626;" transform="translate(14.19875 209.91848)scale(0.11 -0.11)">
       <use xlink:href="#DejaVuSans-48"/>
       <use x="63.623047" xlink:href="#DejaVuSans-46"/>
       <use x="95.410156" xlink:href="#DejaVuSans-50"/>
      </g>
     </g>
    </g>
   </g>
   <g id="line2d_54">
    <path clip-path="url(#p29c6b669b4)" d="M 73.013696 230.639141 
L 89.895771 230.518413 
L 93.272186 230.333344 
L 95.804497 230.012297 
L 97.492705 229.6184 
L 99.180912 228.891288 
L 100.86912 227.73864 
L 103.401431 225.502232 
L 105.933742 223.038909 
L 107.62195 220.906328 
L 110.154261 217.160765 
L 111.842469 214.410913 
L 113.530676 211.221628 
L 115.218884 207.414877 
L 118.595299 199.190489 
L 121.12761 193.845796 
L 122.815818 190.563605 
L 123.659921 189.144381 
L 124.504025 187.943207 
L 125.348129 186.97983 
L 126.192233 186.262931 
L 127.036336 185.805391 
L 127.88044 185.621326 
L 128.724544 185.708153 
L 129.568648 186.031971 
L 131.256855 187.159698 
L 132.945063 188.742572 
L 133.789167 189.764027 
L 134.63327 190.992387 
L 135.477374 192.455389 
L 136.321478 194.171677 
L 138.009685 198.329399 
L 140.541997 205.166417 
L 142.230204 209.004371 
L 143.918412 212.202286 
L 146.450723 216.537458 
L 148.983034 220.423464 
L 150.671242 222.777994 
L 152.359449 224.801395 
L 154.047657 226.323778 
L 155.735864 227.363551 
L 159.112279 228.927968 
L 160.800487 229.514855 
L 162.488694 229.884121 
L 165.865109 230.321041 
L 168.397421 230.507502 
L 171.773836 230.469918 
L 175.150251 230.540034 
L 179.37077 230.63705 
L 180.214873 230.638868 
L 180.214873 230.638868 
" style="fill:none;stroke:#4c72b0;stroke-linecap:round;stroke-width:1.5;"/>
   </g>
   <g id="line2d_55">
    <path clip-path="url(#p29c6b669b4)" d="M 87.833878 230.63573 
L 92.660099 230.529816 
L 94.72848 230.275347 
L 96.1074 229.918455 
L 97.486321 229.332949 
L 98.865241 228.477844 
L 100.933622 226.768998 
L 106.449304 221.651245 
L 107.828224 220.028396 
L 109.207145 218.046623 
L 111.275525 214.499843 
L 114.033366 209.260268 
L 116.101747 204.873272 
L 120.238508 195.162136 
L 120.927968 193.933182 
L 121.617429 192.969244 
L 122.306889 192.290852 
L 122.996349 191.884941 
L 123.685809 191.704535 
L 126.44365 191.640134 
L 127.13311 191.43309 
L 128.512031 190.668964 
L 129.890951 189.762446 
L 130.580411 189.418165 
L 131.269872 189.222845 
L 131.959332 189.216136 
L 132.648792 189.423734 
L 133.338252 189.861069 
L 134.027712 190.537111 
L 134.717173 191.456148 
L 135.406633 192.616686 
L 136.785553 195.607397 
L 138.853934 201.209772 
L 140.922315 206.791892 
L 142.301235 209.87224 
L 143.680155 212.322341 
L 145.059076 214.279492 
L 147.816917 217.562356 
L 151.953678 222.239441 
L 154.022059 224.236103 
L 155.400979 225.316287 
L 157.46936 226.593038 
L 160.227201 227.953862 
L 162.295581 228.788183 
L 164.363962 229.422807 
L 167.121803 230.041679 
L 169.879644 230.439562 
L 172.637485 230.601777 
L 175.395325 230.635046 
L 175.395325 230.635046 
" style="fill:none;stroke:#55a868;stroke-linecap:round;stroke-width:1.5;"/>
   </g>
   <g id="line2d_56">
    <path clip-path="url(#p29c6b669b4)" d="M 143.443857 230.64 
L 143.443857 183.370435 
" style="fill:none;stroke:#1a1a1a;stroke-linecap:round;stroke-width:1.5;"/>
   </g>
   <g id="patch_33">
    <path d="M 41.192188 230.64 
L 41.192188 183.370435 
" style="fill:none;stroke:#ffffff;stroke-linecap:square;stroke-linejoin:miter;stroke-width:1.25;"/>
   </g>
   <g id="patch_34">
    <path d="M 193.374006 230.64 
L 193.374006 183.370435 
" style="fill:none;stroke:#ffffff;stroke-linecap:square;stroke-linejoin:miter;stroke-width:1.25;"/>
   </g>
   <g id="patch_35">
    <path d="M 41.192187 230.64 
L 193.374006 230.64 
" style="fill:none;stroke:#ffffff;stroke-linecap:square;stroke-linejoin:miter;stroke-width:1.25;"/>
   </g>
   <g id="patch_36">
    <path d="M 41.192187 183.370435 
L 193.374006 183.370435 
" style="fill:none;stroke:#ffffff;stroke-linecap:square;stroke-linejoin:miter;stroke-width:1.25;"/>
   </g>
  </g>
  <g id="axes_8">
   <g id="patch_37">
    <path d="M 223.810369 230.64 
L 375.992187 230.64 
L 375.992187 183.370435 
L 223.810369 183.370435 
z
" style="fill:#eaeaf2;"/>
   </g>
   <g id="matplotlib.axis_15">
    <g id="xtick_22">
     <g id="line2d_57">
      <path clip-path="url(#pdd8987d58d)" d="M 252.699407 230.64 
L 252.699407 183.370435 
" style="fill:none;stroke:#ffffff;stroke-linecap:round;"/>
     </g>
     <g id="text_18">
      <!-- −5 -->
      <g style="fill:#262626;" transform="translate(244.591204 248.498281)scale(0.11 -0.11)">
       <use xlink:href="#DejaVuSans-8722"/>
       <use x="83.789062" xlink:href="#DejaVuSans-53"/>
      </g>
     </g>
    </g>
    <g id="xtick_23">
     <g id="line2d_58">
      <path clip-path="url(#pdd8987d58d)" d="M 305.871084 230.64 
L 305.871084 183.370435 
" style="fill:none;stroke:#ffffff;stroke-linecap:round;"/>
     </g>
     <g id="text_19">
      <!-- 0 -->
      <g style="fill:#262626;" transform="translate(302.371709 248.498281)scale(0.11 -0.11)">
       <use xlink:href="#DejaVuSans-48"/>
      </g>
     </g>
    </g>
    <g id="xtick_24">
     <g id="line2d_59">
      <path clip-path="url(#pdd8987d58d)" d="M 359.04276 230.64 
L 359.04276 183.370435 
" style="fill:none;stroke:#ffffff;stroke-linecap:round;"/>
     </g>
     <g id="text_20">
      <!-- 5 -->
      <g style="fill:#262626;" transform="translate(355.543385 248.498281)scale(0.11 -0.11)">
       <use xlink:href="#DejaVuSans-53"/>
      </g>
     </g>
    </g>
   </g>
   <g id="matplotlib.axis_16">
    <g id="ytick_15">
     <g id="line2d_60">
      <path clip-path="url(#pdd8987d58d)" d="M 223.810369 230.64 
L 375.992187 230.64 
" style="fill:none;stroke:#ffffff;stroke-linecap:round;"/>
     </g>
     <g id="text_21">
      <!-- 0.0 -->
      <g style="fill:#262626;" transform="translate(196.816932 234.819141)scale(0.11 -0.11)">
       <use xlink:href="#DejaVuSans-48"/>
       <use x="63.623047" xlink:href="#DejaVuSans-46"/>
       <use x="95.410156" xlink:href="#DejaVuSans-48"/>
      </g>
     </g>
    </g>
    <g id="ytick_16">
     <g id="line2d_61">
      <path clip-path="url(#pdd8987d58d)" d="M 223.810369 205.801016 
L 375.992187 205.801016 
" style="fill:none;stroke:#ffffff;stroke-linecap:round;"/>
     </g>
     <g id="text_22">
      <!-- 0.2 -->
      <g style="fill:#262626;" transform="translate(196.816932 209.980157)scale(0.11 -0.11)">
       <use xlink:href="#DejaVuSans-48"/>
       <use x="63.623047" xlink:href="#DejaVuSans-46"/>
       <use x="95.410156" xlink:href="#DejaVuSans-50"/>
      </g>
     </g>
    </g>
   </g>
   <g id="line2d_62">
    <path clip-path="url(#pdd8987d58d)" d="M 267.610145 230.639166 
L 275.599491 230.527321 
L 282.789902 230.249609 
L 284.387771 229.758955 
L 286.784574 228.929575 
L 289.181378 228.154499 
L 290.779247 227.300041 
L 293.176051 225.68445 
L 294.77392 224.283596 
L 296.371789 222.274226 
L 300.366462 216.277786 
L 301.964331 214.115608 
L 303.5622 211.487874 
L 305.160069 208.086969 
L 309.154741 198.536267 
L 311.551545 193.793405 
L 313.149414 191.133884 
L 314.747283 189.107236 
L 316.345152 187.522164 
L 317.943021 186.215547 
L 318.741956 185.781415 
L 319.540891 185.621327 
L 320.339825 185.816825 
L 321.13876 186.384952 
L 321.937694 187.263754 
L 323.535563 189.558962 
L 325.133432 192.369422 
L 326.731301 195.921632 
L 329.92704 203.498713 
L 334.720647 213.498557 
L 336.318516 216.554248 
L 337.916385 219.085786 
L 340.313189 222.244263 
L 341.911058 224.073159 
L 343.508927 225.591722 
L 345.106796 226.807998 
L 346.704665 227.765505 
L 349.101469 228.858989 
L 351.498272 229.742159 
L 353.096141 230.165428 
L 354.69401 230.378684 
L 357.889749 230.406303 
L 362.683356 230.514826 
L 369.074832 230.638991 
L 369.074832 230.638991 
" style="fill:none;stroke:#4c72b0;stroke-linecap:round;stroke-width:1.5;"/>
   </g>
   <g id="line2d_63">
    <path clip-path="url(#pdd8987d58d)" d="M 278.247459 230.632965 
L 281.703242 230.511659 
L 283.776712 230.17591 
L 285.159025 229.749632 
L 287.232495 228.816605 
L 290.688278 226.880377 
L 293.452905 225.100694 
L 294.835218 223.981891 
L 296.217531 222.556759 
L 297.599844 220.741831 
L 299.673314 217.414833 
L 305.202567 207.833013 
L 307.276037 203.336149 
L 310.040663 197.275965 
L 312.114133 193.291745 
L 313.496446 191.003458 
L 314.87876 189.146166 
L 316.261073 187.759223 
L 317.643386 186.770256 
L 319.025699 186.163742 
L 319.716856 186.049313 
L 320.408012 186.101307 
L 321.099169 186.347524 
L 321.790326 186.804432 
L 322.481482 187.472744 
L 323.863796 189.369816 
L 325.246109 191.803421 
L 327.319579 195.959438 
L 331.466518 204.945444 
L 338.378084 219.873298 
L 339.760397 222.191022 
L 341.142711 224.097564 
L 342.525024 225.660911 
L 344.598494 227.58072 
L 345.980807 228.635535 
L 347.36312 229.467919 
L 348.745433 230.039277 
L 350.127747 230.366082 
L 352.201216 230.535844 
L 366.024349 230.635145 
L 366.024349 230.635145 
" style="fill:none;stroke:#55a868;stroke-linecap:round;stroke-width:1.5;"/>
   </g>
   <g id="line2d_64">
    <path clip-path="url(#pdd8987d58d)" d="M 316.493833 230.64 
L 316.493833 183.370435 
" style="fill:none;stroke:#1a1a1a;stroke-linecap:round;stroke-width:1.5;"/>
   </g>
   <g id="patch_38">
    <path d="M 223.810369 230.64 
L 223.810369 183.370435 
" style="fill:none;stroke:#ffffff;stroke-linecap:square;stroke-linejoin:miter;stroke-width:1.25;"/>
   </g>
   <g id="patch_39">
    <path d="M 375.992187 230.64 
L 375.992187 183.370435 
" style="fill:none;stroke:#ffffff;stroke-linecap:square;stroke-linejoin:miter;stroke-width:1.25;"/>
   </g>
   <g id="patch_40">
    <path d="M 223.810369 230.64 
L 375.992187 230.64 
" style="fill:none;stroke:#ffffff;stroke-linecap:square;stroke-linejoin:miter;stroke-width:1.25;"/>
   </g>
   <g id="patch_41">
    <path d="M 223.810369 183.370435 
L 375.992187 183.370435 
" style="fill:none;stroke:#ffffff;stroke-linecap:square;stroke-linejoin:miter;stroke-width:1.25;"/>
   </g>
  </g>
 </g>
 <defs>
  <clipPath id="p46b0738a01">
   <rect height="47.269565" width="152.181818" x="41.192188" y="13.2"/>
  </clipPath>
  <clipPath id="p381a9e4321">
   <rect height="47.269565" width="152.181818" x="223.810369" y="13.2"/>
  </clipPath>
  <clipPath id="p24e8ed78ee">
   <rect height="47.269565" width="152.181818" x="41.192188" y="69.923478"/>
  </clipPath>
  <clipPath id="pcdc5ea637f">
   <rect height="47.269565" width="152.181818" x="223.810369" y="69.923478"/>
  </clipPath>
  <clipPath id="pa465846f00">
   <rect height="47.269565" width="152.181818" x="41.192188" y="126.646957"/>
  </clipPath>
  <clipPath id="p7915d6ccfd">
   <rect height="47.269565" width="152.181818" x="223.810369" y="126.646957"/>
  </clipPath>
  <clipPath id="p29c6b669b4">
   <rect height="47.269565" width="152.181818" x="41.192188" y="183.370435"/>
  </clipPath>
  <clipPath id="pdd8987d58d">
   <rect height="47.269565" width="152.181818" x="223.810369" y="183.370435"/>
  </clipPath>
 </defs>
</svg>
