<svg viewBox="0 0 389.2 258" xmlns="http://www.w3.org/2000/svg" xmlns:xlink="http://www.w3.org/1999/xlink"><defs><style>*{stroke-linecap:butt;stroke-linejoin:round}</style></defs><g id="figure_1"><path d="M0 258h389.2V0H0z" fill="#fff" id="patch_1"/><g id="axes_1"><path d="M41.2 60.5h152.2V13.2H41.2z" fill="#eaeaf2" id="patch_2"/><g id="matplotlib.axis_1"><g id="xtick_1"><path clip-path="url(#p46b0738a01)" d="M70 60.5V13.2" fill="none" stroke="#fff" stroke-linecap="round" id="line2d_1"/></g><g id="xtick_2"><path clip-path="url(#p46b0738a01)" d="M123.3 60.5V13.2" fill="none" stroke="#fff" stroke-linecap="round" id="line2d_2"/></g><g id="xtick_3"><path clip-path="url(#p46b0738a01)" d="M176.4 60.5V13.2" fill="none" stroke="#fff" stroke-linecap="round" id="line2d_3"/></g></g><g id="matplotlib.axis_2"><g id="ytick_1"><path clip-path="url(#p46b0738a01)" d="M41.2 60.5h152.2" fill="none" stroke="#fff" stroke-linecap="round" id="line2d_4"/><g id="text_1"><defs><path d="M31.8 66.4q-7.6 0-11.5-7.5-3.8-7.5-3.8-22.5t3.8-22.5q3.9-7.5 11.5-7.5 7.7 0 11.5 7.5T47 36.4q0 15-3.8 22.5t-11.5 7.5zm0 7.8q12.2 0 18.7-9.7T57 36.4Q57 18 50.5 8.3 44-1.4 31.8-1.4 19.5-1.4 13 8.3q-6.5 9.7-6.5 28 0 18.5 6.5 28.2 6.4 9.7 18.7 9.7z" id="DejaVuSans-48"/><path d="M10.7 12.4H21V0H10.7z" id="DejaVuSans-46"/></defs><g transform="matrix(.11 0 0 -.11 14.2 64.6)" fill="#262626"><use xlink:href="#DejaVuSans-48"/><use x="63.6" xlink:href="#DejaVuSans-46"/><use x="95.4" xlink:href="#DejaVuSans-48"/></g></g></g><g id="ytick_2"><path clip-path="url(#p46b0738a01)" d="M41.2 34.1h152.2" fill="none" stroke="#fff" stroke-linecap="round" id="line2d_5"/><g id="text_2"><defs><path d="M19.2 8.3h34.4V0H7.3v8.3l15.3 15.6q9.7 9.8 12.2 12.6 4.7 5.3 6.6 9 2 3.7 2 7.3 0 5.8-4.2 9.5-4 3.6-10.6 3.6-4.6 0-9.8-1.6-5.1-1.6-11-4.9v10q6 2.4 11.1 3.6 5.2 1.2 9.5 1.2 11.4 0 18-5.7 6.8-5.6 6.8-15 0-4.6-1.7-8.6-1.6-4-6-9.5l-7.9-8.2L19.2 8.3z" id="DejaVuSans-50"/></defs><g transform="matrix(.11 0 0 -.11 14.2 38.3)" fill="#262626"><use xlink:href="#DejaVuSans-48"/><use x="63.6" xlink:href="#DejaVuSans-46"/><use x="95.4" xlink:href="#DejaVuSans-50"/></g></g></g></g><path clip-path="url(#p46b0738a01)" d="M73.3 60.5l6.6-.1 3.7-.3 3-.4 1.4-.4 1.5-.5 1.4-1 1.5-1.3 3.6-4 2.2-2.6 2.2-3.2 3-4.8 1.4-2.9 1.5-3.5 2.2-6.2 2.2-6.1 1.5-3.2 1.4-2.2.8-.8.7-.6.7-.5.8-.3.7-.1h1.5l2.2.4h2.2l.7.3.7.6.8 1 .7 1.3 1.5 3.3 3.6 9.2 6.6 15.1 1.5 2.8 1.4 2.2 1.5 1.5 5.1 4.1 1.5 1 1.5.7 1.4.6 1.5.2 4.4.4 5.1.2h3.7" fill="none" stroke="#4c72b0" stroke-linecap="round" stroke-width="1.5" id="line2d_6"/><path clip-path="url(#p46b0738a01)" d="M73.8 60.5l4.7-.2 3.2-.3 6.3-1 1.6-.5 1.6-.7 1.6-1.1 1.5-1.4 2.4-2.6 2.4-2.9 2.4-3.3 2.3-3.7 3.2-5.6 4-7.5 3.1-6.6 1.6-3 .8-1.2.8-.8.8-.4h.7l.8.4.8.5 4.8 4.4 2.3 1.6 2.4 1.6 1.6 1.3 1.6 2 1.6 2.6 1.5 3.4 4 9.4 1.6 3 1.5 2.2L145 52l2.4 2.4 2.4 2 1.5 1.2 1.6.9 1.6.6 1.6.4 2.4.4 4 .2 8.6.3h3.2" fill="none" stroke="#55a868" stroke-linecap="round" stroke-width="1.5" id="line2d_7"/><path clip-path="url(#p46b0738a01)" d="M111 60.5V13.2" fill="none" stroke="#1a1a1a" stroke-linecap="round" stroke-width="1.5" id="line2d_8"/><path d="M41.2 60.5V13.2" fill="none" stroke="#fff" stroke-linecap="square" stroke-width="1.3" id="patch_3"/><path d="M193.4 60.5V13.2" fill="none" stroke="#fff" stroke-linecap="square" stroke-width="1.3" id="patch_4"/><path d="M41.2 60.5h152.2" fill="none" stroke="#fff" stroke-linecap="square" stroke-width="1.3" id="patch_5"/><path d="M41.2 13.2h152.2" fill="none" stroke="#fff" stroke-linecap="square" stroke-width="1.3" id="patch_6"/></g><g id="axes_2"><path d="M223.8 60.5H376V13.2H223.8z" fill="#eaeaf2" id="patch_7"/><g id="matplotlib.axis_3"><g id="xtick_4"><path clip-path="url(#p381a9e4321)" d="M252.7 60.5V13.2" fill="none" stroke="#fff" stroke-linecap="round" id="line2d_9"/></g><g id="xtick_5"><path clip-path="url(#p381a9e4321)" d="M305.9 60.5V13.2" fill="none" stroke="#fff" stroke-linecap="round" id="line2d_10"/></g><g id="xtick_6"><path clip-path="url(#p381a9e4321)" d="M359 60.5V13.2" fill="none" stroke="#fff" stroke-linecap="round" id="line2d_11"/></g></g><g id="matplotlib.axis_4"><g id="ytick_3"><path clip-path="url(#p381a9e4321)" d="M223.8 60.5H376" fill="none" stroke="#fff" stroke-linecap="round" id="line2d_12"/><g transform="matrix(.11 0 0 -.11 189.8 64.6)" fill="#262626" id="text_3"><use xlink:href="#DejaVuSans-48"/><use x="63.6" xlink:href="#DejaVuSans-46"/><use x="95.4" xlink:href="#DejaVuSans-48"/><use x="159" xlink:href="#DejaVuSans-48"/></g></g><g id="ytick_4"><path clip-path="url(#p381a9e4321)" d="M223.8 32.8H376" fill="none" stroke="#fff" stroke-linecap="round" id="line2d_13"/><g id="text_4"><defs><path d="M10.8 73h38.7v-8.4H19.8V46.7q2.2.8 4.3 1.1 2.2.4 4.3.4 12.2 0 19.4-6.7 7-6.7 7-18.1 0-11.8-7.2-18.3-7.4-6.5-20.7-6.5-4.6 0-9.4.8-4.7.7-9.8 2.3v10q4.4-2.5 9.1-3.6 4.7-1.2 9.9-1.2 8.5 0 13.4 4.4 5 4.5 5 12 0 7.7-5 12.1Q35 40 26.7 40q-4 0-7.9-.9-4-.9-8-2.7z" id="DejaVuSans-53"/></defs><g transform="matrix(.11 0 0 -.11 189.8 37)" fill="#262626"><use xlink:href="#DejaVuSans-48"/><use x="63.6" xlink:href="#DejaVuSans-46"/><use x="95.4" xlink:href="#DejaVuSans-50"/><use x="159" xlink:href="#DejaVuSans-53"/></g></g></g></g><path clip-path="url(#p381a9e4321)" d="M234.1 60.5l5.2-.1 3.6-.4 4.4-.6 3-.6 1.4-.5 1.4-.7 1.5-1.1 2.2-2 2.2-2.1 1.4-1.8 2.2-3 1.5-2.4 1.5-2.9 1.4-3.5 3-7.5 1.4-2.8 1.5-2.1 2.9-4 .7-.8.7-.6.8-.4.7-.2h.7l.8.1.7.3.7.4.8.5 1.4 1.5 1.5 2 2.2 3.5 2.9 5.3 2.2 4.1 5.1 10.3 1.5 2.2 1.4 1.7 2.2 2.2 2.2 1.8 1.5 1 1.4.9 1.5.5 7.3 1.4 3 .2 5 .2h2.2" fill="none" stroke="#4c72b0" stroke-linecap="round" stroke-width="1.5" id="line2d_14"/><path clip-path="url(#p381a9e4321)" d="M242 60.5l4.1-.1 2.4-.3 1.8-.3 1.8-.6 1.8-.9 1.8-1 1.2-.9 1.2-1.1 1.2-1.6 1.8-2.9 3-5.5 1.2-2.6 1.8-4.8 2.4-6.4 1.8-4.1 3-6.2 1.8-3.2 1.2-1.6.6-.5.6-.3.6-.1h.6l.6.3 1.2.9 1.8 1.7 1.2 1.4 1.2 2 1.2 2.7 1.8 5 1.8 5 1.8 4.2 3.6 7.8 2.4 5.2 1.2 2.1 1.2 1.6 1.2 1.2 1.8 1.4 1.8 1 1.2.6 1.2.3 1.8.2 4.2.3h4.2" fill="none" stroke="#55a868" stroke-linecap="round" stroke-width="1.5" id="line2d_15"/><path clip-path="url(#p381a9e4321)" d="M290.9 60.5V13.2" fill="none" stroke="#1a1a1a" stroke-linecap="round" stroke-width="1.5" id="line2d_16"/><path d="M223.8 60.5V13.2" fill="none" stroke="#fff" stroke-linecap="square" stroke-width="1.3" id="patch_8"/><path d="M376 60.5V13.2" fill="none" stroke="#fff" stroke-linecap="square" stroke-width="1.3" id="patch_9"/><path d="M223.8 60.5H376" fill="none" stroke="#fff" stroke-linecap="square" stroke-width="1.3" id="patch_10"/><path d="M223.8 13.2H376" fill="none" stroke="#fff" stroke-linecap="square" stroke-width="1.3" id="patch_11"/></g><g id="axes_3"><path d="M41.2 117.2h152.2V69.9H41.2z" fill="#eaeaf2" id="patch_12"/><g id="matplotlib.axis_5"><g id="xtick_7"><path clip-path="url(#p24e8ed78ee)" d="M70 117.2V69.9" fill="none" stroke="#fff" stroke-linecap="round" id="line2d_17"/></g><g id="xtick_8"><path clip-path="url(#p24e8ed78ee)" d="M123.3 117.2V69.9" fill="none" stroke="#fff" stroke-linecap="round" id="line2d_18"/></g><g id="xtick_9"><path clip-path="url(#p24e8ed78ee)" d="M176.4 117.2V69.9" fill="none" stroke="#fff" stroke-linecap="round" id="line2d_19"/></g></g><g id="matplotlib.axis_6"><g id="ytick_5"><path clip-path="url(#p24e8ed78ee)" d="M41.2 117.2h152.2" fill="none" stroke="#fff" stroke-linecap="round" id="line2d_20"/><g transform="matrix(.11 0 0 -.11 7.2 121.4)" fill="#262626" id="text_5"><use xlink:href="#DejaVuSans-48"/><use x="63.6" xlink:href="#DejaVuSans-46"/><use x="95.4" xlink:href="#DejaVuSans-48"/><use x="159" xlink:href="#DejaVuSans-48"/></g></g><g id="ytick_6"><path clip-path="url(#p24e8ed78ee)" d="M41.2 87.8h152.2" fill="none" stroke="#fff" stroke-linecap="round" id="line2d_21"/><g transform="matrix(.11 0 0 -.11 7.2 92)" fill="#262626" id="text_6"><use xlink:href="#DejaVuSans-48"/><use x="63.6" xlink:href="#DejaVuSans-46"/><use x="95.4" xlink:href="#DejaVuSans-50"/><use x="159" xlink:href="#DejaVuSans-53"/></g></g></g><path clip-path="url(#p24e8ed78ee)" d="M48.1 117.2l9.6-.1 2.4-.2 4-.6 2.4-.6 1.6-.6 2.4-1.1 2.4-1.4 1.6-1.2.9-.8.8-1 1.6-2.5 2.4-4.5 6.4-12.3 3.2-5.6 1.6-3.3 1.6-3.6.8-1.5.8-1.2.8-.7.8-.3h.8l2.4.9.8.3.8.6.8 1 .8 1.2 1.6 3.3L109 92l2.4 4.8 2.4 4 4.8 7.4 1.6 2 1.6 1.4 1.6 1.2 4.8 2.8 1.6.6 1.6.4 1.6.2 14.5.4h2.4" fill="none" stroke="#4c72b0" stroke-linecap="round" stroke-width="1.5" id="line2d_22"/><path clip-path="url(#p24e8ed78ee)" d="M53.6 117.2l4.3-.1 7.2-.5 1.5-.3 1.4-.4 1.5-.7 2.1-1.4 2.2-1.6 1.4-1.4 1.5-1.8 1.4-2.3 2.1-4 5-9.2 3-5.3 2.1-4.6 3.6-8 .7-1.3.8-1 .7-.7.7-.4h.7l.7.2 1.5 1 2.9 2.3.7.7.7 1 .7 1.3.7 1.5L107 84l4.3 12.8 1.4 3.4 1.5 3 1.4 2.4 1.4 2 2.2 2.7 1.4 1.4 1.5 1.2 1.4 1 2.2 1 2.1 1 2.2.5 2.2.3 5 .3 5.8.2h2.1" fill="none" stroke="#55a868" stroke-linecap="round" stroke-width="1.5" id="line2d_23"/><path clip-path="url(#p24e8ed78ee)" d="M114.5 117.2V69.9" fill="none" stroke="#1a1a1a" stroke-linecap="round" stroke-width="1.5" id="line2d_24"/><path d="M41.2 117.2V69.9" fill="none" stroke="#fff" stroke-linecap="square" stroke-width="1.3" id="patch_13"/><path d="M193.4 117.2V69.9" fill="none" stroke="#fff" stroke-linecap="square" stroke-width="1.3" id="patch_14"/><path d="M41.2 117.2h152.2" fill="none" stroke="#fff" stroke-linecap="square" stroke-width="1.3" id="patch_15"/><path d="M41.2 70h152.2" fill="none" stroke="#fff" stroke-linecap="square" stroke-width="1.3" id="patch_16"/></g><g id="axes_4"><path d="M223.8 117.2H376V69.9H223.8z" fill="#eaeaf2" id="patch_17"/><g id="matplotlib.axis_7"><g id="xtick_10"><path clip-path="url(#pcdc5ea637f)" d="M252.7 117.2V69.9" fill="none" stroke="#fff" stroke-linecap="round" id="line2d_25"/></g><g id="xtick_11"><path clip-path="url(#pcdc5ea637f)" d="M305.9 117.2V69.9" fill="none" stroke="#fff" stroke-linecap="round" id="line2d_26"/></g><g id="xtick_12"><path clip-path="url(#pcdc5ea637f)" d="M359 117.2V69.9" fill="none" stroke="#fff" stroke-linecap="round" id="line2d_27"/></g></g><g id="matplotlib.axis_8"><g id="ytick_7"><path clip-path="url(#pcdc5ea637f)" d="M223.8 117.2H376" fill="none" stroke="#fff" stroke-linecap="round" id="line2d_28"/><g transform="matrix(.11 0 0 -.11 196.8 121.4)" fill="#262626" id="text_7"><use xlink:href="#DejaVuSans-48"/><use x="63.6" xlink:href="#DejaVuSans-46"/><use x="95.4" xlink:href="#DejaVuSans-48"/></g></g><g id="ytick_8"><path clip-path="url(#pcdc5ea637f)" d="M223.8 92H376" fill="none" stroke="#fff" stroke-linecap="round" id="line2d_29"/><g transform="matrix(.11 0 0 -.11 196.8 96.2)" fill="#262626" id="text_8"><use xlink:href="#DejaVuSans-48"/><use x="63.6" xlink:href="#DejaVuSans-46"/><use x="95.4" xlink:href="#DejaVuSans-50"/></g></g></g><path clip-path="url(#pcdc5ea637f)" d="M240.8 117.2l6.5-.1h6.5l2.4-.5 4-1 2.5-.8 1.6-.7 1.6-.9 1.6-1.1 1.6-1.6 1.7-2 1.6-2.5 2.4-4.4 2.4-4.8 4.9-10.4 2.4-4 2.4-4.6 1.6-2.3 1.7-1.8.8-.7.8-.6.8-.2h.8l.8.4.8.7 2.4 2.6 1.7 2 .8 1 .8 1.5.8 1.7 1.6 4.4 1.6 4.8 1.6 3.9L308 98l1.6 2.8 4 7.5 1.6 2.2 1.7 1.8 1.6 1.5 1.6 1 1.6.8 1.6.3 5.7.8 3.2.2 7.3.2h4" fill="none" stroke="#4c72b0" stroke-linecap="round" stroke-width="1.5" id="line2d_30"/><path clip-path="url(#pcdc5ea637f)" d="M246.5 117.2l6.6-.1 7.3-.3 1.4-.4 1.5-.5 1.5-.7 2.1-1.3 2.2-1.7 1.5-1.4 1.5-1.8 1.4-2.4 1.5-3 4.4-9.6 4.4-8.6 2.9-6.3.7-1.2.8-1 .7-.7.7-.5 1.5-.6 1.4-.3h3l.7.3.7.4.8.6.7.7 1.5 2 1.4 2.4 2.2 4.3 2.2 4.3 1.5 2.5 3.6 5.5 1.5 3 3 6.7 1.4 2.6 1.4 2 1.5 1.4 1.5 1 1.4.6 2.2.7 3 .6 4.3.5 3.7.2h3.6" fill="none" stroke="#55a868" stroke-linecap="round" stroke-width="1.5" id="line2d_31"/><path clip-path="url(#pcdc5ea637f)" d="M299.2 117.2V69.9" fill="none" stroke="#1a1a1a" stroke-linecap="round" stroke-width="1.5" id="line2d_32"/><path d="M223.8 117.2V69.9" fill="none" stroke="#fff" stroke-linecap="square" stroke-width="1.3" id="patch_18"/><path d="M376 117.2V69.9" fill="none" stroke="#fff" stroke-linecap="square" stroke-width="1.3" id="patch_19"/><path d="M223.8 117.2H376" fill="none" stroke="#fff" stroke-linecap="square" stroke-width="1.3" id="patch_20"/><path d="M223.8 70H376" fill="none" stroke="#fff" stroke-linecap="square" stroke-width="1.3" id="patch_21"/></g><g id="axes_5"><path d="M41.2 174h152.2v-47.4H41.2z" fill="#eaeaf2" id="patch_22"/><g id="matplotlib.axis_9"><g id="xtick_13"><path clip-path="url(#pa465846f00)" d="M70 174v-47.4" fill="none" stroke="#fff" stroke-linecap="round" id="line2d_33"/></g><g id="xtick_14"><path clip-path="url(#pa465846f00)" d="M123.3 174v-47.4" fill="none" stroke="#fff" stroke-linecap="round" id="line2d_34"/></g><g id="xtick_15"><path clip-path="url(#pa465846f00)" d="M176.4 174v-47.4" fill="none" stroke="#fff" stroke-linecap="round" id="line2d_35"/></g></g><g id="matplotlib.axis_10"><g id="ytick_9"><path clip-path="url(#pa465846f00)" d="M41.2 174h152.2" fill="none" stroke="#fff" stroke-linecap="round" id="line2d_36"/><g transform="matrix(.11 0 0 -.11 14.2 178.1)" fill="#262626" id="text_9"><use xlink:href="#DejaVuSans-48"/><use x="63.6" xlink:href="#DejaVuSans-46"/><use x="95.4" xlink:href="#DejaVuSans-48"/></g></g><g id="ytick_10"><path clip-path="url(#pa465846f00)" d="M41.2 149.8h152.2" fill="none" stroke="#fff" stroke-linecap="round" id="line2d_37"/><g transform="matrix(.11 0 0 -.11 14.2 154)" fill="#262626" id="text_10"><use xlink:href="#DejaVuSans-48"/><use x="63.6" xlink:href="#DejaVuSans-46"/><use x="95.4" xlink:href="#DejaVuSans-50"/></g></g></g><path clip-path="url(#pa465846f00)" d="M60 174l13.4-.2H78l3-.1 1.6-.2 1.6-.5 1.6-.9 2.3-1.6 2.4-1.8 1.5-1.5 1.6-2 2.3-3.5 4-6.4 1.5-3.1 2.4-5.6 1.5-3.6 1.6-3.2 3.1-5.6 1.6-2.4 1.6-2 .7-.6.8-.3h.8l.8.4.8.8.8 1.2 3.9 6.6 1.5 2.6 2.4 4.8 3.9 8.2 2.3 5.2 1.6 2.7 2.4 3.6 1.5 2 1.6 1.7 1.5 1.4 1.6 1.1 1.6.9 1.5.5 1.6.3 4.7.5 3.1.4 3.2.1h1.5" fill="none" stroke="#4c72b0" stroke-linecap="round" stroke-width="1.5" id="line2d_38"/><path clip-path="url(#pa465846f00)" d="M62.4 174l6.9-.2 7.6-.3 2.3-.3 3-.8 3.1-1 1.6-.7 1.5-1 1.5-1.3 1.5-1.6 2.3-3 5.4-7.7 1.5-2.8 1.6-3.4 4.5-11.2.8-1.4.8-1 .7-1 .8-.5.8-.4.7-.1h1.6l1.5.2 1.5.4 1.6.6 1.5.9 1.5 1.2 1.5 1.8 1.6 2.5 2.3 4.4 3.8 7.5 3 5.6 1.6 2.4 1.5 2 1.5 1.7 2.3 2.2 2.3 1.9 1.6 1 1.5 1 1.5.6 2.3.7 2.3.5 2.3.3 3 .2h3.1" fill="none" stroke="#55a868" stroke-linecap="round" stroke-width="1.5" id="line2d_39"/><path clip-path="url(#pa465846f00)" d="M111.2 174v-47.4" fill="none" stroke="#1a1a1a" stroke-linecap="round" stroke-width="1.5" id="line2d_40"/><path d="M41.2 174v-47.4" fill="none" stroke="#fff" stroke-linecap="square" stroke-width="1.3" id="patch_23"/><path d="M193.4 174v-47.4" fill="none" stroke="#fff" stroke-linecap="square" stroke-width="1.3" id="patch_24"/><path d="M41.2 174h152.2" fill="none" stroke="#fff" stroke-linecap="square" stroke-width="1.3" id="patch_25"/><path d="M41.2 126.6h152.2" fill="none" stroke="#fff" stroke-linecap="square" stroke-width="1.3" id="patch_26"/></g><g id="axes_6"><path d="M223.8 174H376v-47.4H223.8z" fill="#eaeaf2" id="patch_27"/><g id="matplotlib.axis_11"><g id="xtick_16"><path clip-path="url(#p7915d6ccfd)" d="M252.7 174v-47.4" fill="none" stroke="#fff" stroke-linecap="round" id="line2d_41"/></g><g id="xtick_17"><path clip-path="url(#p7915d6ccfd)" d="M305.9 174v-47.4" fill="none" stroke="#fff" stroke-linecap="round" id="line2d_42"/></g><g id="xtick_18"><path clip-path="url(#p7915d6ccfd)" d="M359 174v-47.4" fill="none" stroke="#fff" stroke-linecap="round" id="line2d_43"/></g></g><g id="matplotlib.axis_12"><g id="ytick_11"><path clip-path="url(#p7915d6ccfd)" d="M223.8 174H376" fill="none" stroke="#fff" stroke-linecap="round" id="line2d_44"/><g transform="matrix(.11 0 0 -.11 196.8 178.1)" fill="#262626" id="text_11"><use xlink:href="#DejaVuSans-48"/><use x="63.6" xlink:href="#DejaVuSans-46"/><use x="95.4" xlink:href="#DejaVuSans-48"/></g></g><g id="ytick_12"><path clip-path="url(#p7915d6ccfd)" d="M223.8 149.8H376" fill="none" stroke="#fff" stroke-linecap="round" id="line2d_45"/><g transform="matrix(.11 0 0 -.11 196.8 154)" fill="#262626" id="text_12"><use xlink:href="#DejaVuSans-48"/><use x="63.6" xlink:href="#DejaVuSans-46"/><use x="95.4" xlink:href="#DejaVuSans-50"/></g></g></g><path clip-path="url(#p7915d6ccfd)" d="M237.2 174l7.8-.2 3.9-.1 3-.4 2.4-.5 1.6-.5 1.6-.8 1.5-1 2.3-1.8 2.4-2.1 1.5-1.7 1.6-2 1.6-2.3 1.5-2.7 1.6-3 2.3-5.4 2.4-5.4 2.3-4.8 1.6-3 1.5-2.4.8-1 .8-.6.8-.5.7-.3H287.1l.8.2.7.4.8.7.8 1 1.6 2.3 3.9 6.3 2.3 4.6 7 14.3 1.6 2.4 2.3 3 1.6 1.7 1.5 1.5 1.6 1 1.5.6 3.2.8 4.6 1 2.4.3 2.3.1 8.6.2h0" fill="none" stroke="#4c72b0" stroke-linecap="round" stroke-width="1.5" id="line2d_46"/><path clip-path="url(#p7915d6ccfd)" d="M243.3 174l4.8-.2 2-.2 2-.5 7.5-2 1.4-.5 1.3-.8 1.4-1.2 1.3-1.8 2-3.5 4.8-8.4 1.4-3.1 1.3-4 4.1-13.6.7-1.7.7-1.3.6-1 .7-.8.7-.4.7-.1h.7l.6.4 1.4 1 2 2 4.8 5.1 1.3 2 2 3.7 2.1 4 3.4 7.5 2 4.1 1.4 2.3 1.3 2 1.4 1.4 2 1.8 2.8 2.4 2.7 2.4 1.3 1 1.4.7 1.3.5 1.4.3 2.7.3 4.8.1h2" fill="none" stroke="#55a868" stroke-linecap="round" stroke-width="1.5" id="line2d_47"/><path clip-path="url(#p7915d6ccfd)" d="M283 174v-47.4" fill="none" stroke="#1a1a1a" stroke-linecap="round" stroke-width="1.5" id="line2d_48"/><path d="M223.8 174v-47.4" fill="none" stroke="#fff" stroke-linecap="square" stroke-width="1.3" id="patch_28"/><path d="M376 174v-47.4" fill="none" stroke="#fff" stroke-linecap="square" stroke-width="1.3" id="patch_29"/><path d="M223.8 174H376" fill="none" stroke="#fff" stroke-linecap="square" stroke-width="1.3" id="patch_30"/><path d="M223.8 126.6H376" fill="none" stroke="#fff" stroke-linecap="square" stroke-width="1.3" id="patch_31"/></g><g id="axes_7"><path d="M41.2 230.6h152.2v-47.2H41.2z" fill="#eaeaf2" id="patch_32"/><g id="matplotlib.axis_13"><g id="xtick_19"><path clip-path="url(#p29c6b669b4)" d="M70 230.6v-47.2" fill="none" stroke="#fff" stroke-linecap="round" id="line2d_49"/><g id="text_13"><defs><path d="M10.6 35.5h62.6v-8.3H10.6z" id="DejaVuSans-8722"/></defs><g transform="matrix(.11 0 0 -.11 62 248.5)" fill="#262626"><use xlink:href="#DejaVuSans-8722"/><use x="83.8" xlink:href="#DejaVuSans-53"/></g></g></g><g id="xtick_20"><path clip-path="url(#p29c6b669b4)" d="M123.3 230.6v-47.2" fill="none" stroke="#fff" stroke-linecap="round" id="line2d_50"/><use xlink:href="#DejaVuSans-48" transform="matrix(.11 0 0 -.11 119.8 248.5)" fill="#262626" id="text_14"/></g><g id="xtick_21"><path clip-path="url(#p29c6b669b4)" d="M176.4 230.6v-47.2" fill="none" stroke="#fff" stroke-linecap="round" id="line2d_51"/><use xlink:href="#DejaVuSans-53" transform="matrix(.11 0 0 -.11 173 248.5)" fill="#262626" id="text_15"/></g></g><g id="matplotlib.axis_14"><g id="ytick_13"><path clip-path="url(#p29c6b669b4)" d="M41.2 230.6h152.2" fill="none" stroke="#fff" stroke-linecap="round" id="line2d_52"/><g transform="matrix(.11 0 0 -.11 14.2 234.8)" fill="#262626" id="text_16"><use xlink:href="#DejaVuSans-48"/><use x="63.6" xlink:href="#DejaVuSans-46"/><use x="95.4" xlink:href="#DejaVuSans-48"/></g></g><g id="ytick_14"><path clip-path="url(#p29c6b669b4)" d="M41.2 205.7h152.2" fill="none" stroke="#fff" stroke-linecap="round" id="line2d_53"/><g transform="matrix(.11 0 0 -.11 14.2 210)" fill="#262626" id="text_17"><use xlink:href="#DejaVuSans-48"/><use x="63.6" xlink:href="#DejaVuSans-46"/><use x="95.4" xlink:href="#DejaVuSans-50"/></g></g></g><path clip-path="url(#p29c6b669b4)" d="M73 230.6H90l3.4-.3 2.5-.3 1.7-.4 1.7-.7 1.7-1.2 2.5-2.2 2.5-2.5 1.7-2 2.6-3.8 1.6-2.8 1.7-3.2 1.7-3.8 3.4-8.2 2.5-5.4 1.7-3.2.9-1.5.8-1.2.8-1 .9-.6.8-.5.9-.2.8.1.9.3 1.7 1.2 1.6 1.5.9 1 .8 1.3.9 1.5.8 1.7 1.7 4.1 2.5 6.9 1.7 3.8 1.7 3.2 2.6 4.3 2.5 4 1.7 2.3 1.7 2 1.6 1.5 1.7 1 3.4 1.6 1.7.6 1.7.4 3.4.4 2.5.2h6.8l4.2.1h.8" fill="none" stroke="#4c72b0" stroke-linecap="round" stroke-width="1.5" id="line2d_54"/><path clip-path="url(#p29c6b669b4)" d="M87.8 230.6h4.9l2-.3 1.4-.4 1.4-.6 1.4-.8 2-1.7 5.5-5.1 1.4-1.7 1.4-2 2-3.5 2.8-5.2 2.1-4.4 4.1-9.7.7-1.3.7-1 .7-.6.7-.4.7-.2h2.7l.7-.3 1.4-.7 1.4-1 .7-.3.7-.2h.7l.6.2.7.5.7.6.7 1 .7 1.1 1.4 3 2 5.6 2.1 5.6 1.4 3 1.4 2.5 1.4 2 2.7 3.3 4.2 4.6 2 2 1.4 1.1 2 1.3 2.8 1.4 2.1.8 2 .6 2.8.6 2.8.4 2.7.2h2.8" fill="none" stroke="#55a868" stroke-linecap="round" stroke-width="1.5" id="line2d_55"/><path clip-path="url(#p29c6b669b4)" d="M143.4 230.6v-47.2" fill="none" stroke="#1a1a1a" stroke-linecap="round" stroke-width="1.5" id="line2d_56"/><path d="M41.2 230.6v-47.2" fill="none" stroke="#fff" stroke-linecap="square" stroke-width="1.3" id="patch_33"/><path d="M193.4 230.6v-47.2" fill="none" stroke="#fff" stroke-linecap="square" stroke-width="1.3" id="patch_34"/><path d="M41.2 230.6h152.2" fill="none" stroke="#fff" stroke-linecap="square" stroke-width="1.3" id="patch_35"/><path d="M41.2 183.4h152.2" fill="none" stroke="#fff" stroke-linecap="square" stroke-width="1.3" id="patch_36"/></g><g id="axes_8"><path d="M223.8 230.6H376v-47.2H223.8z" fill="#eaeaf2" id="patch_37"/><g id="matplotlib.axis_15"><g id="xtick_22"><path clip-path="url(#pdd8987d58d)" d="M252.7 230.6v-47.2" fill="none" stroke="#fff" stroke-linecap="round" id="line2d_57"/><g transform="matrix(.11 0 0 -.11 244.6 248.5)" fill="#262626" id="text_18"><use xlink:href="#DejaVuSans-8722"/><use x="83.8" xlink:href="#DejaVuSans-53"/></g></g><g id="xtick_23"><path clip-path="url(#pdd8987d58d)" d="M305.9 230.6v-47.2" fill="none" stroke="#fff" stroke-linecap="round" id="line2d_58"/><use xlink:href="#DejaVuSans-48" transform="matrix(.11 0 0 -.11 302.4 248.5)" fill="#262626" id="text_19"/></g><g id="xtick_24"><path clip-path="url(#pdd8987d58d)" d="M359 230.6v-47.2" fill="none" stroke="#fff" stroke-linecap="round" id="line2d_59"/><use xlink:href="#DejaVuSans-53" transform="matrix(.11 0 0 -.11 355.5 248.5)" fill="#262626" id="text_20"/></g></g><g id="matplotlib.axis_16"><g id="ytick_15"><path clip-path="url(#pdd8987d58d)" d="M223.8 230.6H376" fill="none" stroke="#fff" stroke-linecap="round" id="line2d_60"/><g transform="matrix(.11 0 0 -.11 196.8 234.8)" fill="#262626" id="text_21"><use xlink:href="#DejaVuSans-48"/><use x="63.6" xlink:href="#DejaVuSans-46"/><use x="95.4" xlink:href="#DejaVuSans-48"/></g></g><g id="ytick_16"><path clip-path="url(#pdd8987d58d)" d="M223.8 205.8H376" fill="none" stroke="#fff" stroke-linecap="round" id="line2d_61"/><g transform="matrix(.11 0 0 -.11 196.8 210)" fill="#262626" id="text_22"><use xlink:href="#DejaVuSans-48"/><use x="63.6" xlink:href="#DejaVuSans-46"/><use x="95.4" xlink:href="#DejaVuSans-50"/></g></g></g><path clip-path="url(#pdd8987d58d)" d="M267.6 230.6h8l7.2-.4 1.6-.4 2.4-.9 2.4-.7 1.6-.9 2.4-1.6 1.6-1.4 1.6-2 4-6 1.6-2.2 1.6-2.6 1.6-3.4 4-9.6 2.4-4.7 1.5-2.7 1.6-2 1.6-1.6 1.6-1.3.8-.4.8-.2.8.2.8.6.8.9 1.6 2.3 1.6 2.8 1.6 3.5 3.2 7.6 4.8 10 1.6 3 1.6 2.6 2.4 3.1 1.6 1.9 1.6 1.5 1.6 1.2 1.6 1 2.4 1 2.4 1 1.6.4 1.6.2h3.2l4.8.1 6.4.1h0" fill="none" stroke="#4c72b0" stroke-linecap="round" stroke-width="1.5" id="line2d_62"/><path clip-path="url(#pdd8987d58d)" d="M278.2 230.6h3.5l2-.4 1.5-.5 2-.9 3.5-2 2.8-1.7 1.3-1.1 1.4-1.4 1.4-1.9 2-3.3 5.6-9.6 2-4.5 2.8-6 2.1-4 1.4-2.3 1.4-1.9 1.4-1.3 1.3-1 1.4-.6.7-.2.7.1.7.2.7.5.7.7 1.4 1.9 1.3 2.4 2.1 4.2 4.2 9 6.9 14.9 1.4 2.3 1.3 1.9 1.4 1.6 2.1 1.9 1.4 1 1.4.9 1.3.5 1.4.4 2.1.1 13.8.1h0" fill="none" stroke="#55a868" stroke-linecap="round" stroke-width="1.5" id="line2d_63"/><path clip-path="url(#pdd8987d58d)" d="M316.5 230.6v-47.2" fill="none" stroke="#1a1a1a" stroke-linecap="round" stroke-width="1.5" id="line2d_64"/><path d="M223.8 230.6v-47.2" fill="none" stroke="#fff" stroke-linecap="square" stroke-width="1.3" id="patch_38"/><path d="M376 230.6v-47.2" fill="none" stroke="#fff" stroke-linecap="square" stroke-width="1.3" id="patch_39"/><path d="M223.8 230.6H376" fill="none" stroke="#fff" stroke-linecap="square" stroke-width="1.3" id="patch_40"/><path d="M223.8 183.4H376" fill="none" stroke="#fff" stroke-linecap="square" stroke-width="1.3" id="patch_41"/></g></g><defs><clipPath id="p46b0738a01"><path d="M41.2 13.2h152.2v47.3H41.2z"/></clipPath><clipPath id="p381a9e4321"><path d="M223.8 13.2H376v47.3H223.8z"/></clipPath><clipPath id="p24e8ed78ee"><path d="M41.2 69.9h152.2v47.3H41.2z"/></clipPath><clipPath id="pcdc5ea637f"><path d="M223.8 69.9H376v47.3H223.8z"/></clipPath><clipPath id="pa465846f00"><path d="M41.2 126.6h152.2v47.3H41.2z"/></clipPath><clipPath id="p7915d6ccfd"><path d="M223.8 126.6H376v47.3H223.8z"/></clipPath><clipPath id="p29c6b669b4"><path d="M41.2 183.4h152.2v47.3H41.2z"/></clipPath><clipPath id="pdd8987d58d"><path d="M223.8 183.4H376v47.3H223.8z"/></clipPath></defs></svg>