<svg viewBox="0 0 404 371" xmlns="http://www.w3.org/2000/svg" xmlns:xlink="http://www.w3.org/1999/xlink"><defs><style>*{stroke-linecap:butt;stroke-linejoin:round}</style></defs><g id="figure_1"><path d="M0 371.1h404.2V0H0z" fill="#fff" id="patch_1"/><g id="axes_1"><path d="M39.9 155.5h162.3V7.2H39.9z" fill="#eaeaf2" id="patch_2"/><g id="matplotlib.axis_1"><g id="xtick_1"><path clip-path="url(#pbc063c6acb)" d="M63.8 155.5V7.2" fill="none" stroke="#fff" stroke-linecap="round" id="line2d_1"/></g><g id="xtick_2"><path clip-path="url(#pbc063c6acb)" d="M119.6 155.5V7.2" fill="none" stroke="#fff" stroke-linecap="round" id="line2d_3"/></g><g id="xtick_3"><path clip-path="url(#pbc063c6acb)" d="M175.4 155.5V7.2" fill="none" stroke="#fff" stroke-linecap="round" id="line2d_5"/></g><g id="text_1"><defs><path d="M39.1 0L25 21.7 10.6 0H1L20 27.2 2 52.8h9.7L25 32.3l13 20.5h9.9l-18-25.5L49 0z" id="LiberationSans-78"/><path d="M7.1-20.8v93.3H27v-6.3H15.6v-80.7H27v-6.3z" id="LiberationSans-5b"/><path d="M7.6 0v7.5h17.5v53L9.6 49.2v8.3L26 68.8h8V7.5h16.8V0z" id="LiberationSans-31"/><path d="M.8-20.8v6.3h11.4v80.7H.8v6.3h19.9v-93.3z" id="LiberationSans-5d"/></defs><g transform="matrix(.11 0 0 -.11 112.2 167.4)" fill="#262626"><use xlink:href="#LiberationSans-78"/><use x="50" xlink:href="#LiberationSans-5b"/><use x="77.8" xlink:href="#LiberationSans-31"/><use x="133.4" xlink:href="#LiberationSans-5d"/></g></g></g><g id="matplotlib.axis_2"><g id="ytick_1"><path clip-path="url(#pbc063c6acb)" d="M39.9 140.4h162.3" fill="none" stroke="#fff" stroke-linecap="round" id="line2d_7"/><g id="text_2"><defs><path d="M5 29.7v7.1h48.5v-7.1z" id="LiberationSans-2212"/><path d="M51.2 22.5q0-5.2-1.4-9.5-1.5-4.3-4.3-7.4-2.8-3.1-7-4.8Q34.6-1 29-1q-6 0-10.5 2.3T11 8q-3 4.3-4.4 10.6Q5 24.8 5 32.8 5 42 6.8 49q1.7 7 4.8 11.6 3.2 4.6 7.8 7 4.5 2.3 10.3 2.3 3.5 0 6.6-.7 3-.7 5.6-2.4 2.5-1.6 4.4-4.3 1.9-2.7 3-6.6L41 54.3q-1.4 4.4-4.4 6.4-3 2-7 2-3.5 0-6.5-1.7-2.9-1.7-5-5.1-2-3.4-3-8.5-1.2-5.2-1.2-12 2.4 4.4 6.8 6.8 4.3 2.3 10 2.3 4.6 0 8.4-1.5 3.8-1.5 6.5-4.4 2.8-2.9 4.2-7 1.5-4 1.5-9zm-9-.4q0 3.6-.8 6.5-.9 2.9-2.6 4.9-1.8 2-4.4 3-2.6 1.2-6 1.2-2.4 0-4.8-.7-2.5-.7-4.4-2.3-2-1.6-3.3-4.2-1.2-2.6-1.2-6.3 0-3.8 1-7 1-3.4 2.8-5.8 1.8-2.5 4.4-3.9 2.6-1.4 5.8-1.4 3.2 0 5.7 1.1t4.3 3.2q1.7 2 2.7 5 .9 3 .9 6.7z" id="LiberationSans-36"/></defs><g transform="matrix(.1 0 0 -.1 21.5 144)" fill="#262626"><use xlink:href="#LiberationSans-2212"/><use x="58.4" xlink:href="#LiberationSans-36"/></g></g></g><g id="ytick_2"><path clip-path="url(#pbc063c6acb)" d="M39.9 115.1h162.3" fill="none" stroke="#fff" stroke-linecap="round" id="line2d_9"/><g id="text_3"><defs><path d="M43 15.6V0h-8.3v15.6H2.3v6.8l31.5 46.4H43V22.5h9.7v-7zm-8.3 43.3q0-.3-.5-1l-.9-1.6-1-1.7-.8-1.5-17.7-26-.7-1-1-1.3q-.4-.7-1-1.3l-.7-1h24.3z" id="LiberationSans-34"/></defs><g transform="matrix(.1 0 0 -.1 21.5 118.7)" fill="#262626"><use xlink:href="#LiberationSans-2212"/><use x="58.4" xlink:href="#LiberationSans-34"/></g></g></g><g id="ytick_3"><path clip-path="url(#pbc063c6acb)" d="M39.9 89.8h162.3" fill="none" stroke="#fff" stroke-linecap="round" id="line2d_11"/><g id="text_4"><defs><path d="M5 0v6.2q2.5 5.7 6.1 10 3.6 4.5 7.6 8l7.8 6.6q3.9 3 7 6t5 6.4q2 3.3 2 7.5 0 3-1 5.1-.8 2.3-2.4 3.8-1.7 1.5-4 2.2-2.3.8-5.2.8-2.6 0-5-.7-2.2-.8-4-2.2-1.9-1.5-3-3.7-1.2-2.1-1.5-5l-9 .8q.5 3.7 2 7Q9.2 62 12 64.5q2.8 2.5 6.8 4 4 1.3 9.2 1.3 5.2 0 9.2-1.2 4-1.2 6.7-3.6 2.8-2.4 4.2-6 1.5-3.4 1.5-8 0-3.5-1.2-6.6-1.3-3.1-3.4-6-2-2.8-4.8-5.4-2.7-2.7-5.7-5.2l-6-5q-3-2.4-5.7-5-2.6-2.4-4.7-5t-3.3-5.3h35.9V0z" id="LiberationSans-32"/></defs><g transform="matrix(.1 0 0 -.1 21.5 93.5)" fill="#262626"><use xlink:href="#LiberationSans-2212"/><use x="58.4" xlink:href="#LiberationSans-32"/></g></g></g><g id="ytick_4"><path clip-path="url(#pbc063c6acb)" d="M39.9 64.6h162.3" fill="none" stroke="#fff" stroke-linecap="round" id="line2d_13"/><g id="text_5"><defs><path d="M51.7 34.4q0-9.9-1.9-16.6-1.8-6.8-5.1-11-3.2-4.2-7.6-6Q32.7-1 27.7-1T18.3.8q-4.3 1.8-7.5 6-3.2 4.1-5 10.9-1.9 6.8-1.9 16.7 0 10.4 1.8 17.2 1.9 6.9 5 10.9 3.3 4 7.7 5.7 4.4 1.6 9.6 1.6 5 0 9.2-1.6 4.3-1.7 7.6-5.7 3.2-4 5-10.9 1.9-6.8 1.9-17.2zm-9 0q0 8.2-.9 13.7-1 5.4-2.9 8.7-1.9 3.2-4.6 4.6-2.8 1.3-6.3 1.3-3.7 0-6.6-1.4-2.8-1.3-4.7-4.6-2-3.2-3-8.7-.9-5.4-.9-13.6 0-7.9 1-13.3t3-8.7q1.9-3.3 4.6-4.8 2.8-1.4 6.4-1.4 3.4 0 6.2 1.4 2.8 1.5 4.7 4.8 2 3.3 3 8.7 1 5.4 1 13.3z" id="LiberationSans-30"/></defs><use xlink:href="#LiberationSans-30" transform="matrix(.1 0 0 -.1 27.3 68.2)" fill="#262626"/></g></g><g id="ytick_5"><path clip-path="url(#pbc063c6acb)" d="M39.9 39.3h162.3" fill="none" stroke="#fff" stroke-linecap="round" id="line2d_15"/><use xlink:href="#LiberationSans-32" transform="matrix(.1 0 0 -.1 27.3 43)" fill="#262626" id="text_6"/></g><g id="ytick_6"><path clip-path="url(#pbc063c6acb)" d="M39.9 14h162.3" fill="none" stroke="#fff" stroke-linecap="round" id="line2d_17"/><use xlink:href="#LiberationSans-34" transform="matrix(.1 0 0 -.1 27.3 17.6)" fill="#262626" id="text_7"/></g><g id="text_8"><defs><path d="M29.5 0q-1.9-4.8-3.8-8.6-2-3.9-4.3-6.6-2.4-2.7-5.3-4.1-3-1.4-6.8-1.4h-3q-1.5.1-3 .5v6.6q.9-.2 2-.2l2-.1q4 0 7.2 2.9Q18-8.2 20.4-2l.8 2.1-21 52.6h9.4l11.2-29.2 1.2-3.5 1.5-4.4 1.3-4 .7-2.1.8 2 1.2 3.6 1.5 4 1.2 3.5 10.3 30.1h9.3z" id="LiberationSans-79"/></defs><use xlink:href="#LiberationSans-79" transform="matrix(0 -.11 -.11 0 15.2 84)" fill="#262626"/></g></g><g id="PathCollection_1"><defs><path d="M0 3.5a3.5 3.5 0 100-7 3.5 3.5 0 000 7z" id="m39765b4f9b"/></defs><g clip-path="url(#pbc063c6acb)" fill="#4c72b0" fill-opacity=".8"><use x="106.8" xlink:href="#m39765b4f9b" y="86.2"/><use x="86.5" xlink:href="#m39765b4f9b" y="78.2"/><use x="141.2" xlink:href="#m39765b4f9b" y="73.4"/><use x="131.5" xlink:href="#m39765b4f9b" y="42"/><use x="117.7" xlink:href="#m39765b4f9b" y="95.1"/><use x="145.2" xlink:href="#m39765b4f9b" y="122.2"/><use x="186.5" xlink:href="#m39765b4f9b" y="19.8"/><use x="73.4" xlink:href="#m39765b4f9b" y="79.2"/><use x="119" xlink:href="#m39765b4f9b" y="109"/><use x="124.6" xlink:href="#m39765b4f9b" y="64.1"/><use x="174.4" xlink:href="#m39765b4f9b" y="86.5"/><use x="83.7" xlink:href="#m39765b4f9b" y="93.5"/><use x="118" xlink:href="#m39765b4f9b" y="112"/><use x="150.9" xlink:href="#m39765b4f9b" y="50.7"/><use x="58.1" xlink:href="#m39765b4f9b" y="99"/><use x="131.5" xlink:href="#m39765b4f9b" y="85.8"/><use x="148.4" xlink:href="#m39765b4f9b" y="58.1"/><use x="103.3" xlink:href="#m39765b4f9b" y="91.8"/><use x="137" xlink:href="#m39765b4f9b" y="83.3"/><use x="139.2" xlink:href="#m39765b4f9b" y="104.3"/><use x="102.7" xlink:href="#m39765b4f9b" y="95.5"/><use x="90.8" xlink:href="#m39765b4f9b" y="77.9"/><use x="132.6" xlink:href="#m39765b4f9b" y="95.3"/><use x="116" xlink:href="#m39765b4f9b" y="92.7"/><use x="118.7" xlink:href="#m39765b4f9b" y="59.1"/><use x="132" xlink:href="#m39765b4f9b" y="90.2"/><use x="93.8" xlink:href="#m39765b4f9b" y="68.7"/><use x="106.2" xlink:href="#m39765b4f9b" y="83.6"/><use x="153.4" xlink:href="#m39765b4f9b" y="83.4"/><use x="137.8" xlink:href="#m39765b4f9b" y="98.2"/><use x="120.8" xlink:href="#m39765b4f9b" y="76.3"/><use x="130.7" xlink:href="#m39765b4f9b" y="87.2"/><use x="156.5" xlink:href="#m39765b4f9b" y="87.1"/><use x="108.5" xlink:href="#m39765b4f9b" y="93"/><use x="119.3" xlink:href="#m39765b4f9b" y="49.5"/><use x="132.5" xlink:href="#m39765b4f9b" y="82.9"/><use x="155.5" xlink:href="#m39765b4f9b" y="80"/><use x="111.1" xlink:href="#m39765b4f9b" y="62.2"/><use x="57.3" xlink:href="#m39765b4f9b" y="104.6"/><use x="188.3" xlink:href="#m39765b4f9b" y="49.7"/><use x="106.9" xlink:href="#m39765b4f9b" y="139.5"/><use x="143.2" xlink:href="#m39765b4f9b" y="65.3"/><use x="106.9" xlink:href="#m39765b4f9b" y="92.1"/><use x="113.6" xlink:href="#m39765b4f9b" y="85.1"/><use x="194.8" xlink:href="#m39765b4f9b" y="48.2"/><use x="128.4" xlink:href="#m39765b4f9b" y="90.6"/><use x="166.8" xlink:href="#m39765b4f9b" y="87.9"/><use x="121" xlink:href="#m39765b4f9b" y="33.3"/><use x="133.9" xlink:href="#m39765b4f9b" y="95"/><use x="89.6" xlink:href="#m39765b4f9b" y="108.2"/><use x="91.2" xlink:href="#m39765b4f9b" y="40.6"/><use x="135" xlink:href="#m39765b4f9b" y="98.1"/><use x="158.2" xlink:href="#m39765b4f9b" y="50.5"/><use x="76.2" xlink:href="#m39765b4f9b" y="69.4"/><use x="121.8" xlink:href="#m39765b4f9b" y="68.8"/><use x="127.2" xlink:href="#m39765b4f9b" y="106.8"/><use x="94.4" xlink:href="#m39765b4f9b" y="36.5"/><use x="109.8" xlink:href="#m39765b4f9b" y="106.6"/><use x="76.9" xlink:href="#m39765b4f9b" y="73.9"/><use x="117.1" xlink:href="#m39765b4f9b" y="71.4"/><use x="89.8" xlink:href="#m39765b4f9b" y="59.7"/><use x="124.9" xlink:href="#m39765b4f9b" y="148.4"/><use x="92.1" xlink:href="#m39765b4f9b" y="59.2"/><use x="106.9" xlink:href="#m39765b4f9b" y="89.7"/><use x="100.1" xlink:href="#m39765b4f9b" y="40.6"/><use x="86.5" xlink:href="#m39765b4f9b" y="104.1"/><use x="126.7" xlink:href="#m39765b4f9b" y="50.3"/><use x="131.7" xlink:href="#m39765b4f9b" y="42.1"/><use x="125.5" xlink:href="#m39765b4f9b" y="106.7"/><use x="158.1" xlink:href="#m39765b4f9b" y="54.2"/><use x="118.3" xlink:href="#m39765b4f9b" y="85.1"/><use x="149.7" xlink:href="#m39765b4f9b" y="57.5"/><use x="115.6" xlink:href="#m39765b4f9b" y="87.5"/><use x="129.1" xlink:href="#m39765b4f9b" y="14.2"/><use x="124.9" xlink:href="#m39765b4f9b" y="60.2"/><use x="80.3" xlink:href="#m39765b4f9b" y="65.2"/><use x="145.5" xlink:href="#m39765b4f9b" y="104.9"/><use x="82.3" xlink:href="#m39765b4f9b" y="60.6"/><use x="114.4" xlink:href="#m39765b4f9b" y="79.6"/><use x="91.9" xlink:href="#m39765b4f9b" y="83.4"/><use x="88.3" xlink:href="#m39765b4f9b" y="112.5"/><use x="47.2" xlink:href="#m39765b4f9b" y="115.8"/><use x="104.5" xlink:href="#m39765b4f9b" y="118"/><use x="80.8" xlink:href="#m39765b4f9b" y="145.5"/><use x="125" xlink:href="#m39765b4f9b" y="45.4"/><use x="147.6" xlink:href="#m39765b4f9b" y="108.6"/><use x="86.6" xlink:href="#m39765b4f9b" y="146"/><use x="138.9" xlink:href="#m39765b4f9b" y="96.1"/><use x="90.8" xlink:href="#m39765b4f9b" y="91"/><use x="113.7" xlink:href="#m39765b4f9b" y="80.4"/><use x="54.7" xlink:href="#m39765b4f9b" y="92.6"/><use x="163.5" xlink:href="#m39765b4f9b" y="36.5"/><use x="90" xlink:href="#m39765b4f9b" y="111.9"/><use x="107.1" xlink:href="#m39765b4f9b" y="105.9"/><use x="139.6" xlink:href="#m39765b4f9b" y="29.5"/><use x="69.7" xlink:href="#m39765b4f9b" y="133.6"/><use x="130.9" xlink:href="#m39765b4f9b" y="92.6"/><use x="125.6" xlink:href="#m39765b4f9b" y="30"/><use x="117" xlink:href="#m39765b4f9b" y="36.1"/><use x="146.1" xlink:href="#m39765b4f9b" y="111.6"/></g></g><path clip-path="url(#pbc063c6acb)" d="M39.9 90v27.8l1.6-.7 1.6-1 1.7-.7 1.6-.7 1.7-.6 1.6-.7 1.6-.8 1.7-.7 1.6-.7 1.7-.7 1.6-.7 1.6-.6 1.7-.7 1.6-.7 1.7-.8 1.6-.8 1.6-.7 1.7-.7 1.6-.7 1.6-.6 1.7-.7 1.6-.7 1.7-.7 1.6-.7 1.6-.6 1.7-.6 1.6-.7 1.7-.6 1.6-.6L89 97l1.7-.6 1.6-.7 1.7-.6 1.6-.6 1.6-.5 1.7-.6 1.6-.7 1.7-.6 1.6-.5 1.6-.6 1.7-.6 1.6-.5 1.7-.6 1.6-.5 1.6-.6 1.7-.7 1.6-.5 1.7-.5 1.6-.6 1.6-.5 1.7-.4 1.6-.4 1.7-.4 1.6-.4 1.6-.4 1.7-.3 1.6-.4 1.7-.4 1.6-.4 1.6-.3 1.7-.3 1.6-.4 1.7-.4 1.6-.3 1.6-.2 1.7-.3 1.6-.3 1.7-.3 1.6-.3 1.6-.3 1.7-.2 1.6-.3 1.7-.3 1.6-.2 1.6-.2 1.7-.2 1.6-.2 1.6-.3 1.7-.2 1.6-.2 1.7-.3 1.6-.2 1.6-.3 1.7-.4 1.6-.4 1.7-.2 1.6-.2 1.6-.2 1.7-.3 1.6-.2 1.7-.3 1.6-.3 1.6-.2 1.7-.3 1.6-.3 1.7-.2 1.6-.3 1.6-.2 1.7-.2V43.3l-1.7.7-1.6.7-1.6.7-1.7.7-1.6.7-1.7.7-1.6.7-1.6.7-1.7.7-1.6.7-1.7.7-1.6.6-1.6.8-1.7.6-1.6.6-1.7.6-1.6.7-1.6.6-1.7.7-1.6.7-1.7.6-1.6.6-1.6.7-1.7.7-1.6.7-1.6.6-1.7.7-1.6.6-1.7.8-1.6.6-1.6.6-1.7.6-1.6.7-1.7.6-1.6.6-1.6.7-1.7.6-1.6.6-1.7.6-1.6.6-1.6.6-1.7.6-1.6.6-1.7.5-1.6.6-1.6.6-1.7.5-1.6.4-1.7.6-1.6.5-1.6.5-1.7.5-1.6.6-1.7.4-1.6.5-1.6.4-1.7.4-1.6.4-1.7.4-1.6.3-1.6.4-1.7.4-1.6.2-1.7.3-1.6.3-1.6.3-1.7.3-1.6.5-1.7.3-1.6.3-1.6.2-1.7.2-1.6.4-1.7.3-1.6.2-1.6.2-1.7.3-1.6.2-1.7.3-1.6.2-1.6.2-1.7.3-1.6.2-1.6.2-1.7.2-1.6.3-1.7.3-1.6.2-1.6.3-1.7.2-1.6.2-1.7.3-1.6.2-1.6.3-1.7.2-1.6.2-1.7.3-1.6.2-1.6.2z" fill="#4c72b0" fill-opacity=".1" id="PolyCollection_1"/><path clip-path="url(#pbc063c6acb)" d="M39.9 104.4l1.6-.5 1.6-.5 1.7-.5 1.6-.5 1.7-.5 1.6-.5 1.6-.4 1.7-.5 1.6-.5 1.7-.5 1.6-.5 1.6-.5 1.7-.5 1.6-.5 1.7-.4 1.6-.5 1.6-.5 1.7-.5 1.6-.5 1.6-.5 1.7-.5 1.6-.4 1.7-.5 1.6-.5 1.6-.5 1.7-.5 1.6-.5 1.7-.5 1.6-.5 1.6-.4 1.7-.5 1.6-.5 1.7-.5 1.6-.5 1.6-.5 1.7-.5 1.6-.4 1.7-.5 1.6-.5 1.6-.5 1.7-.5 1.6-.5 1.7-.5 1.6-.4 1.6-.5 1.7-.5 1.6-.5 1.7-.5 1.6-.5 1.6-.5 1.7-.5 1.6-.4 1.7-.5 1.6-.5 1.6-.5 1.7-.5 1.6-.5 1.7-.5 1.6-.4 1.6-.5 1.7-.5 1.6-.5 1.7-.5 1.6-.5 1.6-.5 1.7-.5 1.6-.4 1.7-.5 1.6-.5 1.6-.5 1.7-.5 1.6-.5 1.7-.5 1.6-.4 1.6-.5 1.7-.5 1.6-.5 1.6-.5 1.7-.5 1.6-.5 1.7-.4 1.6-.5 1.6-.5 1.7-.5 1.6-.5 1.7-.5 1.6-.5 1.6-.5 1.7-.4 1.6-.5 1.7-.5 1.6-.5 1.6-.5 1.7-.5 1.6-.5 1.7-.4 1.6-.5 1.6-.5 1.7-.5" fill="none" stroke="#4c72b0" stroke-linecap="round" stroke-width="2.6" id="line2d_19"/><path d="M39.9 155.5V7.2" fill="none" id="patch_3"/><path d="M202.2 155.5V7.2" fill="none" id="patch_4"/><path d="M39.9 155.5h162.3" fill="none" id="patch_5"/><path d="M39.9 7.2h162.3" fill="none" id="patch_6"/></g><g id="axes_2"><path d="M234.6 155.5H397V7.2H234.6z" fill="#eaeaf2" id="patch_7"/><g id="matplotlib.axis_3"><g id="xtick_4"><path clip-path="url(#pb65304c000)" d="M258.6 155.5V7.2" fill="none" stroke="#fff" stroke-linecap="round" id="line2d_20"/></g><g id="xtick_5"><path clip-path="url(#pb65304c000)" d="M314.4 155.5V7.2" fill="none" stroke="#fff" stroke-linecap="round" id="line2d_22"/></g><g id="xtick_6"><path clip-path="url(#pb65304c000)" d="M370.2 155.5V7.2" fill="none" stroke="#fff" stroke-linecap="round" id="line2d_24"/></g><g transform="matrix(.11 0 0 -.11 307 167.4)" fill="#262626" id="text_9"><use xlink:href="#LiberationSans-78"/><use x="50" xlink:href="#LiberationSans-5b"/><use x="77.8" xlink:href="#LiberationSans-32"/><use x="133.4" xlink:href="#LiberationSans-5d"/></g></g><g id="matplotlib.axis_4"><g id="ytick_7"><path clip-path="url(#pb65304c000)" d="M234.6 140.7H397" fill="none" stroke="#fff" stroke-linecap="round" id="line2d_26"/><g transform="matrix(.1 0 0 -.1 216.2 144.3)" fill="#262626" id="text_10"><use xlink:href="#LiberationSans-2212"/><use x="58.4" xlink:href="#LiberationSans-36"/></g></g><g id="ytick_8"><path clip-path="url(#pb65304c000)" d="M234.6 116.3H397" fill="none" stroke="#fff" stroke-linecap="round" id="line2d_28"/><g transform="matrix(.1 0 0 -.1 216.2 119.9)" fill="#262626" id="text_11"><use xlink:href="#LiberationSans-2212"/><use x="58.4" xlink:href="#LiberationSans-34"/></g></g><g id="ytick_9"><path clip-path="url(#pb65304c000)" d="M234.6 91.8H397" fill="none" stroke="#fff" stroke-linecap="round" id="line2d_30"/><g transform="matrix(.1 0 0 -.1 216.2 95.5)" fill="#262626" id="text_12"><use xlink:href="#LiberationSans-2212"/><use x="58.4" xlink:href="#LiberationSans-32"/></g></g><g id="ytick_10"><path clip-path="url(#pb65304c000)" d="M234.6 67.4H397" fill="none" stroke="#fff" stroke-linecap="round" id="line2d_32"/><use xlink:href="#LiberationSans-30" transform="matrix(.1 0 0 -.1 222 71)" fill="#262626" id="text_13"/></g><g id="ytick_11"><path clip-path="url(#pb65304c000)" d="M234.6 43H397" fill="none" stroke="#fff" stroke-linecap="round" id="line2d_34"/><use xlink:href="#LiberationSans-32" transform="matrix(.1 0 0 -.1 222 46.6)" fill="#262626" id="text_14"/></g><g id="ytick_12"><path clip-path="url(#pb65304c000)" d="M234.6 18.6H397" fill="none" stroke="#fff" stroke-linecap="round" id="line2d_36"/><use xlink:href="#LiberationSans-34" transform="matrix(.1 0 0 -.1 222 22.2)" fill="#262626" id="text_15"/></g><use xlink:href="#LiberationSans-79" transform="matrix(0 -.11 -.11 0 210 84)" fill="#262626" id="text_16"/></g><g id="PathCollection_2"><defs><path d="M0 3.5a3.5 3.5 0 100-7 3.5 3.5 0 000 7z" id="mfc5690df22"/></defs><g clip-path="url(#pb65304c000)" fill="#55a868" fill-opacity=".8"><use x="312.7" xlink:href="#mfc5690df22" y="88.3"/><use x="321.1" xlink:href="#mfc5690df22" y="80.6"/><use x="285.7" xlink:href="#mfc5690df22" y="76"/><use x="350.2" xlink:href="#mfc5690df22" y="45.7"/><use x="287.8" xlink:href="#mfc5690df22" y="96.9"/><use x="267.8" xlink:href="#mfc5690df22" y="123.1"/><use x="357.7" xlink:href="#mfc5690df22" y="24.2"/><use x="324.2" xlink:href="#mfc5690df22" y="81.6"/><use x="265.7" xlink:href="#mfc5690df22" y="110.4"/><use x="305.1" xlink:href="#mfc5690df22" y="67"/><use x="334.5" xlink:href="#mfc5690df22" y="88.6"/><use x="329.4" xlink:href="#mfc5690df22" y="95.4"/><use x="288" xlink:href="#mfc5690df22" y="113.3"/><use x="309" xlink:href="#mfc5690df22" y="54.1"/><use x="302.4" xlink:href="#mfc5690df22" y="100.7"/><use x="324.1" xlink:href="#mfc5690df22" y="88"/><use x="334.6" xlink:href="#mfc5690df22" y="61.2"/><use x="310" xlink:href="#mfc5690df22" y="93.7"/><use x="321" xlink:href="#mfc5690df22" y="85.6"/><use x="331.1" xlink:href="#mfc5690df22" y="105.8"/><use x="321.4" xlink:href="#mfc5690df22" y="97.3"/><use x="296.3" xlink:href="#mfc5690df22" y="80.3"/><use x="305.8" xlink:href="#mfc5690df22" y="97.1"/><use x="270.2" xlink:href="#mfc5690df22" y="94.6"/><use x="333.3" xlink:href="#mfc5690df22" y="62.2"/><use x="268.7" xlink:href="#mfc5690df22" y="92.2"/><use x="339.9" xlink:href="#mfc5690df22" y="71.4"/><use x="327.3" xlink:href="#mfc5690df22" y="85.8"/><use x="300.7" xlink:href="#mfc5690df22" y="85.6"/><use x="285.6" xlink:href="#mfc5690df22" y="99.9"/><use x="319.3" xlink:href="#mfc5690df22" y="78.8"/><use x="282.6" xlink:href="#mfc5690df22" y="89.3"/><use x="309.9" xlink:href="#mfc5690df22" y="89.2"/><use x="295.2" xlink:href="#mfc5690df22" y="94.9"/><use x="363.4" xlink:href="#mfc5690df22" y="52.9"/><use x="279.1" xlink:href="#mfc5690df22" y="85.2"/><use x="287" xlink:href="#mfc5690df22" y="82.3"/><use x="318.6" xlink:href="#mfc5690df22" y="65.2"/><use x="320" xlink:href="#mfc5690df22" y="106.1"/><use x="351" xlink:href="#mfc5690df22" y="53.1"/><use x="257.8" xlink:href="#mfc5690df22" y="139.8"/><use x="339.2" xlink:href="#mfc5690df22" y="68.1"/><use x="292" xlink:href="#mfc5690df22" y="94.1"/><use x="319.9" xlink:href="#mfc5690df22" y="87.2"/><use x="337.3" xlink:href="#mfc5690df22" y="51.6"/><use x="324.6" xlink:href="#mfc5690df22" y="92.6"/><use x="296.4" xlink:href="#mfc5690df22" y="90"/><use x="372.6" xlink:href="#mfc5690df22" y="37.2"/><use x="276.3" xlink:href="#mfc5690df22" y="96.8"/><use x="261.8" xlink:href="#mfc5690df22" y="109.6"/><use x="335.9" xlink:href="#mfc5690df22" y="44.3"/><use x="271.5" xlink:href="#mfc5690df22" y="99.8"/><use x="334.2" xlink:href="#mfc5690df22" y="53.9"/><use x="351" xlink:href="#mfc5690df22" y="72.1"/><use x="295" xlink:href="#mfc5690df22" y="71.5"/><use x="283.1" xlink:href="#mfc5690df22" y="108.3"/><use x="346.1" xlink:href="#mfc5690df22" y="40.3"/><use x="271.5" xlink:href="#mfc5690df22" y="108.1"/><use x="337.1" xlink:href="#mfc5690df22" y="76.5"/><use x="309.1" xlink:href="#mfc5690df22" y="74.1"/><use x="325.3" xlink:href="#mfc5690df22" y="62.7"/><use x="251.2" xlink:href="#mfc5690df22" y="148.4"/><use x="365" xlink:href="#mfc5690df22" y="62.3"/><use x="312.4" xlink:href="#mfc5690df22" y="91.7"/><use x="312.8" xlink:href="#mfc5690df22" y="44.3"/><use x="296.8" xlink:href="#mfc5690df22" y="105.6"/><use x="312.5" xlink:href="#mfc5690df22" y="53.7"/><use x="347.7" xlink:href="#mfc5690df22" y="45.8"/><use x="297.2" xlink:href="#mfc5690df22" y="108.1"/><use x="331.7" xlink:href="#mfc5690df22" y="57.4"/><use x="291.3" xlink:href="#mfc5690df22" y="87.3"/><use x="355.8" xlink:href="#mfc5690df22" y="60.6"/><use x="297.3" xlink:href="#mfc5690df22" y="89.6"/><use x="369.4" xlink:href="#mfc5690df22" y="18.8"/><use x="352.2" xlink:href="#mfc5690df22" y="63.2"/><use x="326.4" xlink:href="#mfc5690df22" y="68.1"/><use x="259.6" xlink:href="#mfc5690df22" y="106.4"/><use x="343.6" xlink:href="#mfc5690df22" y="63.6"/><use x="316.7" xlink:href="#mfc5690df22" y="82"/><use x="302.3" xlink:href="#mfc5690df22" y="85.6"/><use x="284.4" xlink:href="#mfc5690df22" y="113.7"/><use x="279.9" xlink:href="#mfc5690df22" y="116.9"/><use x="294.1" xlink:href="#mfc5690df22" y="119.1"/><use x="265" xlink:href="#mfc5690df22" y="145.6"/><use x="358.4" xlink:href="#mfc5690df22" y="48.9"/><use x="255.3" xlink:href="#mfc5690df22" y="109.9"/><use x="256" xlink:href="#mfc5690df22" y="146.1"/><use x="298.8" xlink:href="#mfc5690df22" y="97.8"/><use x="304.8" xlink:href="#mfc5690df22" y="92.9"/><use x="313.3" xlink:href="#mfc5690df22" y="82.7"/><use x="308.9" xlink:href="#mfc5690df22" y="94.5"/><use x="296.1" xlink:href="#mfc5690df22" y="40.3"/><use x="263.9" xlink:href="#mfc5690df22" y="113.2"/><use x="290.6" xlink:href="#mfc5690df22" y="107.4"/><use x="394.4" xlink:href="#mfc5690df22" y="33.6"/><use x="258.9" xlink:href="#mfc5690df22" y="134.1"/><use x="287.9" xlink:href="#mfc5690df22" y="94.5"/><use x="324" xlink:href="#mfc5690df22" y="34.1"/><use x="358.8" xlink:href="#mfc5690df22" y="40"/><use x="279.8" xlink:href="#mfc5690df22" y="112.8"/></g></g><path clip-path="url(#pb65304c000)" d="M234.6 128v16.4l1.7-1.3 1.6-1.3 1.7-1.3 1.6-1.3 1.6-1.3 1.7-1.3 1.6-1.3 1.7-1.3 1.6-1.3 1.6-1.3 1.7-1.3 1.6-1.3 1.7-1.2 1.6-1.3 1.6-1.3 1.7-1.3 1.6-1.3 1.7-1.3 1.6-1.3 1.6-1.2 1.7-1.3 1.6-1.3 1.7-1.3 1.6-1.3 1.6-1.3 1.7-1.3 1.6-1.3 1.7-1.3 1.6-1.2 1.6-1.3 1.7-1.2 1.6-1.2 1.7-1.3 1.6-1.3 1.6-1.2 1.7-1.3 1.6-1.3 1.7-1.2 1.6-1.2 1.6-1.2L302 92l1.6-1.2 1.7-1.2 1.6-1.2 1.6-1.1 1.7-1.2 1.6-1.2 1.7-1 1.6-1.2 1.6-1.1 1.7-1.2 1.6-1.1 1.7-1 1.6-1.2 1.6-1.1 1.7-1.1 1.6-1 1.6-1.2 1.7-1.1 1.6-1 1.7-1.1 1.6-1.1 1.6-1 1.7-1.2 1.6-1 1.7-1 1.6-1 1.6-1 1.7-1.1 1.6-1 1.7-1 1.6-1 1.6-1 1.7-1 1.6-1 1.7-1 1.6-1.1 1.6-1 1.7-1 1.6-1 1.7-1 1.6-1 1.6-1 1.7-1.1 1.6-1 1.7-1 1.6-1 1.6-1 1.7-1 1.6-1 1.7-1 1.6-1 1.6-1 1.7-1 1.6-1 1.7-1 1.6-1 1.6-1 1.7-1V14l-1.7 1.2-1.6 1.3-1.6 1.3-1.7 1.2-1.6 1.3-1.7 1.3-1.6 1.2-1.6 1.3-1.7 1.2-1.6 1.3-1.7 1.3-1.6 1.3-1.6 1.3-1.7 1.2-1.6 1.3-1.7 1.2-1.6 1.4-1.6 1.2-1.7 1.3-1.6 1.2-1.7 1.3L361 42l-1.6 1.3-1.7 1.3-1.6 1.3-1.7 1.2-1.6 1.2-1.6 1.3-1.7 1.3-1.6 1.3-1.7 1.3-1.6 1.2-1.6 1.2-1.7 1.3-1.6 1.3-1.7 1.3-1.6 1.2-1.6 1.2-1.7 1.2-1.6 1.3-1.7 1.3-1.6 1.2-1.6 1.3-1.7 1.1-1.6 1.3-1.6 1.2-1.7 1.2-1.6 1.2-1.7 1.2-1.6 1.1-1.6 1.2-1.7 1.2-1.6 1.2-1.7 1-1.6 1.2-1.6 1-1.7 1.2-1.6 1.1-1.7 1-1.6 1.2-1.6 1-1.7 1.1-1.6 1-1.7 1.1-1.6 1-1.6 1.1-1.7 1-1.6 1.1-1.7 1-1.6 1.1-1.6 1-1.7 1-1.6 1.1-1.7 1-1.6 1-1.6 1-1.7 1-1.6 1-1.7 1-1.6 1-1.6 1-1.7 1-1.6 1.1-1.7 1-1.6 1.1-1.6 1-1.7 1-1.6 1-1.7 1.1-1.6 1-1.6 1-1.7 1.1-1.6 1-1.7 1-1.6 1-1.6 1-1.7 1-1.6 1-1.7 1z" fill="#55a868" fill-opacity=".1" id="PolyCollection_2"/><path clip-path="url(#pb65304c000)" d="M234.6 136.3l1.7-1.1 1.6-1.2 1.7-1.1 1.6-1.2 1.6-1.1 1.7-1.2 1.6-1.1 1.7-1.2 1.6-1.1 1.6-1.2 1.7-1.1 1.6-1.2 1.7-1.1 1.6-1.2 1.6-1.1 1.7-1.2 1.6-1.2 1.7-1.1 1.6-1.2 1.6-1.1 1.7-1.2 1.6-1.1 1.7-1.2 1.6-1.1 1.6-1.2 1.7-1.1 1.6-1.2 1.7-1.1 1.6-1.2 1.6-1.1 1.7-1.2 1.6-1.2 1.7-1.1 1.6-1.2L292 96l1.7-1.2 1.6-1.1 1.7-1.2 1.6-1.1 1.6-1.2 1.7-1.1 1.6-1.2 1.7-1.1 1.6-1.2 1.6-1.1 1.7-1.2 1.6-1.1 1.7-1.2 1.6-1.2 1.6-1.1 1.7-1.2 1.6-1.1 1.7-1.2 1.6-1.1 1.6-1.2 1.7-1.1 1.6-1.2 1.6-1.1 1.7-1.2 1.6-1.1 1.7-1.2 1.6-1.1 1.6-1.2 1.7-1.1 1.6-1.2 1.7-1.2 1.6-1.1 1.6-1.2 1.7-1.1 1.6-1.2 1.7-1.1 1.6-1.2 1.6-1.1L356 51l1.6-1.1 1.7-1.2 1.6-1.1 1.6-1.2 1.7-1.1 1.6-1.2 1.7-1.1 1.6-1.2 1.6-1.2 1.7-1.1 1.6-1.2 1.7-1.1 1.6-1.2 1.6-1.1 1.7-1.2 1.6-1.1 1.7-1.2 1.6-1.1 1.6-1.2 1.7-1.1 1.6-1.2 1.7-1.1 1.6-1.2 1.6-1.2 1.7-1.1" fill="none" stroke="#55a868" stroke-linecap="round" stroke-width="2.6" id="line2d_38"/><path d="M234.6 155.5V7.2" fill="none" id="patch_8"/><path d="M397 155.5V7.2" fill="none" id="patch_9"/><path d="M234.6 155.5H397" fill="none" id="patch_10"/><path d="M234.6 7.2H397" fill="none" id="patch_11"/></g><g id="axes_3"><path d="M39.9 333.4h162.3V185H39.9z" fill="#eaeaf2" id="patch_12"/><g id="matplotlib.axis_5"><g id="xtick_7"><path clip-path="url(#p5188d08c45)" d="M63.8 333.4V185" fill="none" stroke="#fff" stroke-linecap="round" id="line2d_39"/><g transform="matrix(.1 0 0 -.1 58 347.6)" fill="#262626" id="text_17"><use xlink:href="#LiberationSans-2212"/><use x="58.4" xlink:href="#LiberationSans-32"/></g></g><g id="xtick_8"><path clip-path="url(#p5188d08c45)" d="M119.6 333.4V185" fill="none" stroke="#fff" stroke-linecap="round" id="line2d_41"/><use xlink:href="#LiberationSans-30" transform="matrix(.1 0 0 -.1 116.8 347.6)" fill="#262626" id="text_18"/></g><g id="xtick_9"><path clip-path="url(#p5188d08c45)" d="M175.4 333.4V185" fill="none" stroke="#fff" stroke-linecap="round" id="line2d_43"/><use xlink:href="#LiberationSans-32" transform="matrix(.1 0 0 -.1 172.7 347.6)" fill="#262626" id="text_19"/></g><g id="text_20"><defs><path d="M51.2 19q0-4.7-1.5-8.5-1.6-3.7-4.5-6.2-3-2.6-7.3-4Q33.5-1 27.9-1 21.5-1 17 .6T10 4.8q-2.8 2.6-4.2 6-1.5 3.3-1.9 6.9l9 .8q.5-2.7 1.5-5 1-2.2 2.9-3.8Q19 8 21.6 7.2q2.7-.9 6.3-.9 6.6 0 10.4 3.3 3.8 3.2 3.8 9.7 0 3.8-1.7 6.1T36.2 29q-2.5 1.3-5.5 1.8-3 .4-5.4.4h-5v7.6h4.8q2.5 0 5.2.5t4.9 1.9q2.2 1.3 3.6 3.6 1.5 2.3 1.5 5.9 0 5.5-3.3 8.7-3.2 3.2-9.6 3.2-5.8 0-9.4-3-3.6-3-4.2-8.4L5 52q.5 4.6 2.5 8 2 3.3 5 5.5t6.8 3.3q3.8 1.1 8.2 1.1 5.8 0 9.9-1.4 4.1-1.5 6.8-4 2.6-2.4 3.9-5.7 1.2-3.3 1.2-7 0-3.1-.8-5.8-.8-2.6-2.6-4.7-1.8-2-4.5-3.6-2.7-1.5-6.5-2.3v-.2q4.2-.4 7.2-1.9 3.1-1.4 5.1-3.6 2-2.1 3-4.9 1-2.7 1-5.7z" id="LiberationSans-33"/></defs><g transform="matrix(.11 0 0 -.11 112.2 361.7)" fill="#262626"><use xlink:href="#LiberationSans-78"/><use x="50" xlink:href="#LiberationSans-5b"/><use x="77.8" xlink:href="#LiberationSans-33"/><use x="133.4" xlink:href="#LiberationSans-5d"/></g></g></g><g id="matplotlib.axis_6"><g id="ytick_13"><path clip-path="url(#p5188d08c45)" d="M39.9 318.3h162.3" fill="none" stroke="#fff" stroke-linecap="round" id="line2d_45"/><g transform="matrix(.1 0 0 -.1 21.5 322)" fill="#262626" id="text_21"><use xlink:href="#LiberationSans-2212"/><use x="58.4" xlink:href="#LiberationSans-36"/></g></g><g id="ytick_14"><path clip-path="url(#p5188d08c45)" d="M39.9 293h162.3" fill="none" stroke="#fff" stroke-linecap="round" id="line2d_47"/><g transform="matrix(.1 0 0 -.1 21.5 296.6)" fill="#262626" id="text_22"><use xlink:href="#LiberationSans-2212"/><use x="58.4" xlink:href="#LiberationSans-34"/></g></g><g id="ytick_15"><path clip-path="url(#p5188d08c45)" d="M39.9 267.7h162.3" fill="none" stroke="#fff" stroke-linecap="round" id="line2d_49"/><g transform="matrix(.1 0 0 -.1 21.5 271.4)" fill="#262626" id="text_23"><use xlink:href="#LiberationSans-2212"/><use x="58.4" xlink:href="#LiberationSans-32"/></g></g><g id="ytick_16"><path clip-path="url(#p5188d08c45)" d="M39.9 242.5h162.3" fill="none" stroke="#fff" stroke-linecap="round" id="line2d_51"/><use xlink:href="#LiberationSans-30" transform="matrix(.1 0 0 -.1 27.3 246)" fill="#262626" id="text_24"/></g><g id="ytick_17"><path clip-path="url(#p5188d08c45)" d="M39.9 217.2h162.3" fill="none" stroke="#fff" stroke-linecap="round" id="line2d_53"/><use xlink:href="#LiberationSans-32" transform="matrix(.1 0 0 -.1 27.3 220.8)" fill="#262626" id="text_25"/></g><g id="ytick_18"><path clip-path="url(#p5188d08c45)" d="M39.9 192h162.3" fill="none" stroke="#fff" stroke-linecap="round" id="line2d_55"/><use xlink:href="#LiberationSans-34" transform="matrix(.1 0 0 -.1 27.3 195.6)" fill="#262626" id="text_26"/></g><use xlink:href="#LiberationSans-79" transform="matrix(0 -.11 -.11 0 15.2 262)" fill="#262626" id="text_27"/></g><g id="PathCollection_3"><defs><path d="M0 3.5a3.5 3.5 0 100-7 3.5 3.5 0 000 7z" id="mc98645e140"/></defs><g clip-path="url(#p5188d08c45)" fill="#c44e52" fill-opacity=".8"><use x="109.7" xlink:href="#mc98645e140" y="264.1"/><use x="103.1" xlink:href="#mc98645e140" y="256.1"/><use x="117.1" xlink:href="#mc98645e140" y="251.4"/><use x="128.4" xlink:href="#mc98645e140" y="219.9"/><use x="116.5" xlink:href="#mc98645e140" y="273"/><use x="133.1" xlink:href="#mc98645e140" y="300.1"/><use x="101.5" xlink:href="#mc98645e140" y="197.7"/><use x="115.6" xlink:href="#mc98645e140" y="257.1"/><use x="97.3" xlink:href="#mc98645e140" y="286.9"/><use x="111.1" xlink:href="#mc98645e140" y="242"/><use x="151.5" xlink:href="#mc98645e140" y="264.4"/><use x="118.4" xlink:href="#mc98645e140" y="271.5"/><use x="134.7" xlink:href="#mc98645e140" y="289.9"/><use x="102.6" xlink:href="#mc98645e140" y="228.6"/><use x="107.7" xlink:href="#mc98645e140" y="276.9"/><use x="111.9" xlink:href="#mc98645e140" y="263.7"/><use x="159.6" xlink:href="#mc98645e140" y="236"/><use x="109.5" xlink:href="#mc98645e140" y="269.7"/><use x="98.7" xlink:href="#mc98645e140" y="261.2"/><use x="125.6" xlink:href="#mc98645e140" y="282.2"/><use x="142.8" xlink:href="#mc98645e140" y="273.4"/><use x="179.6" xlink:href="#mc98645e140" y="255.8"/><use x="178.3" xlink:href="#mc98645e140" y="273.2"/><use x="102.5" xlink:href="#mc98645e140" y="270.6"/><use x="90.2" xlink:href="#mc98645e140" y="237"/><use x="102.6" xlink:href="#mc98645e140" y="268.1"/><use x="154.7" xlink:href="#mc98645e140" y="246.6"/><use x="112.1" xlink:href="#mc98645e140" y="261.5"/><use x="134.1" xlink:href="#mc98645e140" y="261.3"/><use x="119.7" xlink:href="#mc98645e140" y="276.1"/><use x="103.8" xlink:href="#mc98645e140" y="254.2"/><use x="137.4" xlink:href="#mc98645e140" y="265.1"/><use x="73.2" xlink:href="#mc98645e140" y="265"/><use x="92.4" xlink:href="#mc98645e140" y="270.9"/><use x="127.6" xlink:href="#mc98645e140" y="227.4"/><use x="66.1" xlink:href="#mc98645e140" y="260.8"/><use x="112" xlink:href="#mc98645e140" y="257.9"/><use x="122" xlink:href="#mc98645e140" y="240.1"/><use x="126.2" xlink:href="#mc98645e140" y="282.5"/><use x="130.5" xlink:href="#mc98645e140" y="227.6"/><use x="139.7" xlink:href="#mc98645e140" y="317.4"/><use x="99.7" xlink:href="#mc98645e140" y="243.2"/><use x="116" xlink:href="#mc98645e140" y="270.1"/><use x="178.4" xlink:href="#mc98645e140" y="263"/><use x="138.6" xlink:href="#mc98645e140" y="226.1"/><use x="124.2" xlink:href="#mc98645e140" y="268.5"/><use x="112.9" xlink:href="#mc98645e140" y="265.8"/><use x="142.6" xlink:href="#mc98645e140" y="211.2"/><use x="129.6" xlink:href="#mc98645e140" y="272.9"/><use x="154.4" xlink:href="#mc98645e140" y="286.1"/><use x="85.6" xlink:href="#mc98645e140" y="218.5"/><use x="105.2" xlink:href="#mc98645e140" y="276"/><use x="117.3" xlink:href="#mc98645e140" y="228.5"/><use x="104.2" xlink:href="#mc98645e140" y="247.3"/><use x="136.2" xlink:href="#mc98645e140" y="246.7"/><use x="95.5" xlink:href="#mc98645e140" y="284.7"/><use x="110.8" xlink:href="#mc98645e140" y="214.4"/><use x="114.7" xlink:href="#mc98645e140" y="284.5"/><use x="170.3" xlink:href="#mc98645e140" y="251.8"/><use x="118.7" xlink:href="#mc98645e140" y="249.3"/><use x="129.8" xlink:href="#mc98645e140" y="237.6"/><use x="95.3" xlink:href="#mc98645e140" y="326.3"/><use x="129.6" xlink:href="#mc98645e140" y="237.1"/><use x="164.5" xlink:href="#mc98645e140" y="267.6"/><use x="103.5" xlink:href="#mc98645e140" y="218.5"/><use x="119.8" xlink:href="#mc98645e140" y="282"/><use x="129.6" xlink:href="#mc98645e140" y="228.3"/><use x="126.3" xlink:href="#mc98645e140" y="220"/><use x="153.5" xlink:href="#mc98645e140" y="284.6"/><use x="135.5" xlink:href="#mc98645e140" y="232.1"/><use x="115.1" xlink:href="#mc98645e140" y="263"/><use x="118" xlink:href="#mc98645e140" y="235.4"/><use x="109.1" xlink:href="#mc98645e140" y="265.4"/><use x="100.5" xlink:href="#mc98645e140" y="192.1"/><use x="110" xlink:href="#mc98645e140" y="238.1"/><use x="122.3" xlink:href="#mc98645e140" y="243.2"/><use x="110.7" xlink:href="#mc98645e140" y="282.8"/><use x="99.9" xlink:href="#mc98645e140" y="238.5"/><use x="126.1" xlink:href="#mc98645e140" y="257.5"/><use x="120.2" xlink:href="#mc98645e140" y="261.3"/><use x="95.2" xlink:href="#mc98645e140" y="290.4"/><use x="103.9" xlink:href="#mc98645e140" y="293.7"/><use x="119.8" xlink:href="#mc98645e140" y="295.9"/><use x="187.8" xlink:href="#mc98645e140" y="323.4"/><use x="91.5" xlink:href="#mc98645e140" y="223.3"/><use x="96.5" xlink:href="#mc98645e140" y="286.5"/><use x="149" xlink:href="#mc98645e140" y="323.9"/><use x="78.5" xlink:href="#mc98645e140" y="274"/><use x="107.6" xlink:href="#mc98645e140" y="268.9"/><use x="86.6" xlink:href="#mc98645e140" y="258.3"/><use x="104.5" xlink:href="#mc98645e140" y="270.5"/><use x="87.4" xlink:href="#mc98645e140" y="214.4"/><use x="31.5" xlink:href="#mc98645e140" y="289.8"/><use x="148.2" xlink:href="#mc98645e140" y="283.8"/><use x="93.4" xlink:href="#mc98645e140" y="207.4"/><use x="147.5" xlink:href="#mc98645e140" y="311.5"/><use x="173.9" xlink:href="#mc98645e140" y="270.5"/><use x="68.8" xlink:href="#mc98645e140" y="207.9"/><use x="127.7" xlink:href="#mc98645e140" y="214"/><use x="103.5" xlink:href="#mc98645e140" y="289.5"/></g></g><path clip-path="url(#p5188d08c45)" d="M39.9 225.5v38.7l1.6-.1h1.6l1.7-.1h1.6l1.7-.2H53l1.6-.1h1.7l1.6-.2 1.6-.2h1.7l1.6-.2 1.7-.1H71l1.6-.1 1.7-.2H87.4l1.6-.1h1.7l1.6-.2H99l1.6.1 1.7.2 1.6.3h1.6l1.7.2h1.6l1.7.2 1.6.3 1.6.1 1.7.1 1.6.2 1.7.2 1.6.5 1.6.2 1.7.3 1.6.3 1.7.4 1.6.4 1.6.5 1.7.6 1.6.4 1.7.5 1.6.3 1.6.5 1.7.6 1.6.3 1.7.7 1.6.8 1.6.5 1.7.5 1.6.5 1.7.6 1.6.6 1.6.6 1.7.7 1.6.6 1.7.6 1.6.6 1.6.5 1.7.6 1.6.5 1.6.6 1.7.5 1.6.6 1.7.8 1.6.6 1.6.7 1.7.7 1.6.6 1.7.7 1.6.5 1.6.6 1.7.6 1.6.7 1.7.7 1.6.8 1.6.6 1.7.6 1.6.7 1.7.7 1.6.7 1.6.7 1.7.7v-39h-1.7l-1.6.1h-1.6l-1.7.2H194l-1.7.1H181l-1.7.1h-1.6l-1.7.1-1.6.1h-1.6l-1.7.2h-3.3l-1.6.2h-1.6l-1.7.1h-1.6l-1.6.2H153l-1.6.2h-1.7l-1.6-.1-1.7-.1h-3.2l-1.7-.1-1.6-.1h-1.7l-1.6-.1-1.6-.1-1.7-.1-1.6-.2-1.7-.2h-1.6l-1.6-.2-1.7-.2-1.6-.2-1.7-.2-1.6-.3-1.6-.2-1.7-.3-1.6-.4-1.7-.4-1.6-.3-1.6-.3-1.7-.5-1.6-.4-1.7-.5-1.6-.4-1.6-.6-1.7-.6-1.6-.5-1.7-.6-1.6-.6-1.6-.7-1.7-.5-1.6-.6-1.7-.7-1.6-.6-1.6-.5-1.7-.6-1.6-.6-1.7-.7-1.6-.6-1.6-.6-1.7-.8-1.6-.7-1.7-.7-1.6-.6-1.6-.6-1.7-.6-1.6-.6-1.6-.7-1.7-.6-1.6-.6-1.7-.6-1.6-.7-1.6-.6-1.7-.7-1.6-.7-1.7-.6-1.6-.7-1.6-.6-1.7-.6-1.6-.7-1.7-.7-1.6-.6-1.6-.7z" fill="#c44e52" fill-opacity=".1" id="PolyCollection_3"/><path clip-path="url(#p5188d08c45)" d="M39.9 245.4l1.6.3 1.6.3 1.7.3 1.6.3 1.7.3 1.6.2 1.6.3 1.7.3 1.6.3 1.7.3 1.6.3 1.6.2 1.7.3 1.6.3 1.7.3 1.6.3 1.6.2 1.7.3 1.6.3 1.6.3 1.7.3 1.6.3 1.7.2 1.6.3 1.6.3 1.7.3 1.6.3 1.7.2 1.6.3 1.6.3 1.7.3 1.6.3 1.7.3 1.6.2 1.6.3 1.7.3 1.6.3 1.7.3 1.6.3 1.6.2 1.7.3 1.6.3 1.7.3 1.6.3 1.6.2 1.7.3 1.6.3 1.7.3 1.6.3 1.6.3 1.7.2 1.6.3 1.7.3 1.6.3 1.6.3 1.7.2 1.6.3 1.7.3 1.6.3 1.6.3 1.7.3 1.6.2 1.7.3 1.6.3 1.6.3 1.7.3 1.6.3 1.7.2 1.6.3 1.6.3 1.7.3 1.6.3 1.7.2 1.6.3 1.6.3 1.7.3 1.6.3 1.6.3 1.7.2 1.6.3 1.7.3 1.6.3 1.6.3 1.7.2 1.6.3 1.7.3 1.6.3 1.6.3 1.7.3 1.6.2 1.7.3 1.6.3 1.6.3 1.7.3 1.6.3 1.7.2 1.6.3 1.6.3 1.7.3" fill="none" stroke="#c44e52" stroke-linecap="round" stroke-width="2.6" id="line2d_57"/><path d="M39.9 333.4V185" fill="none" id="patch_13"/><path d="M202.2 333.4V185" fill="none" id="patch_14"/><path d="M39.9 333.4h162.3" fill="none" id="patch_15"/><path d="M39.9 185.1h162.3" fill="none" id="patch_16"/></g><g id="axes_4"><path d="M234.6 333.4H397V185H234.6z" fill="#eaeaf2" id="patch_17"/><g id="matplotlib.axis_7"><g id="xtick_10"><path clip-path="url(#pca67a15a9c)" d="M258.6 333.4V185" fill="none" stroke="#fff" stroke-linecap="round" id="line2d_58"/><g transform="matrix(.1 0 0 -.1 252.8 347.6)" fill="#262626" id="text_28"><use xlink:href="#LiberationSans-2212"/><use x="58.4" xlink:href="#LiberationSans-32"/></g></g><g id="xtick_11"><path clip-path="url(#pca67a15a9c)" d="M314.4 333.4V185" fill="none" stroke="#fff" stroke-linecap="round" id="line2d_60"/><use xlink:href="#LiberationSans-30" transform="matrix(.1 0 0 -.1 311.6 347.6)" fill="#262626" id="text_29"/></g><g id="xtick_12"><path clip-path="url(#pca67a15a9c)" d="M370.2 333.4V185" fill="none" stroke="#fff" stroke-linecap="round" id="line2d_62"/><use xlink:href="#LiberationSans-32" transform="matrix(.1 0 0 -.1 367.4 347.6)" fill="#262626" id="text_30"/></g><g transform="matrix(.11 0 0 -.11 307 361.7)" fill="#262626" id="text_31"><use xlink:href="#LiberationSans-78"/><use x="50" xlink:href="#LiberationSans-5b"/><use x="77.8" xlink:href="#LiberationSans-34"/><use x="133.4" xlink:href="#LiberationSans-5d"/></g></g><g id="matplotlib.axis_8"><g id="ytick_19"><path clip-path="url(#pca67a15a9c)" d="M234.6 318.5H397" fill="none" stroke="#fff" stroke-linecap="round" id="line2d_64"/><g transform="matrix(.1 0 0 -.1 216.2 322.1)" fill="#262626" id="text_32"><use xlink:href="#LiberationSans-2212"/><use x="58.4" xlink:href="#LiberationSans-36"/></g></g><g id="ytick_20"><path clip-path="url(#pca67a15a9c)" d="M234.6 293.1H397" fill="none" stroke="#fff" stroke-linecap="round" id="line2d_66"/><g transform="matrix(.1 0 0 -.1 216.2 296.8)" fill="#262626" id="text_33"><use xlink:href="#LiberationSans-2212"/><use x="58.4" xlink:href="#LiberationSans-34"/></g></g><g id="ytick_21"><path clip-path="url(#pca67a15a9c)" d="M234.6 267.8H397" fill="none" stroke="#fff" stroke-linecap="round" id="line2d_68"/><g transform="matrix(.1 0 0 -.1 216.2 271.4)" fill="#262626" id="text_34"><use xlink:href="#LiberationSans-2212"/><use x="58.4" xlink:href="#LiberationSans-32"/></g></g><g id="ytick_22"><path clip-path="url(#pca67a15a9c)" d="M234.6 242.4H397" fill="none" stroke="#fff" stroke-linecap="round" id="line2d_70"/><use xlink:href="#LiberationSans-30" transform="matrix(.1 0 0 -.1 222 246)" fill="#262626" id="text_35"/></g><g id="ytick_23"><path clip-path="url(#pca67a15a9c)" d="M234.6 217H397" fill="none" stroke="#fff" stroke-linecap="round" id="line2d_72"/><use xlink:href="#LiberationSans-32" transform="matrix(.1 0 0 -.1 222 220.7)" fill="#262626" id="text_36"/></g><g id="ytick_24"><path clip-path="url(#pca67a15a9c)" d="M234.6 191.7H397" fill="none" stroke="#fff" stroke-linecap="round" id="line2d_74"/><use xlink:href="#LiberationSans-34" transform="matrix(.1 0 0 -.1 222 195.3)" fill="#262626" id="text_37"/></g><use xlink:href="#LiberationSans-79" transform="matrix(0 -.11 -.11 0 210 262)" fill="#262626" id="text_38"/></g><g id="PathCollection_4"><defs><path d="M0 3.5a3.5 3.5 0 100-7 3.5 3.5 0 000 7z" id="mf930d7e6a5"/></defs><g clip-path="url(#pca67a15a9c)" fill="#8172b2" fill-opacity=".8"><use x="293.9" xlink:href="#mf930d7e6a5" y="264.1"/><use x="274.2" xlink:href="#mf930d7e6a5" y="256.1"/><use x="328.1" xlink:href="#mf930d7e6a5" y="251.3"/><use x="303" xlink:href="#mf930d7e6a5" y="219.8"/><use x="330.3" xlink:href="#mf930d7e6a5" y="273"/><use x="305.7" xlink:href="#mf930d7e6a5" y="300.3"/><use x="288.5" xlink:href="#mf930d7e6a5" y="197.4"/><use x="328.9" xlink:href="#mf930d7e6a5" y="257.1"/><use x="278" xlink:href="#mf930d7e6a5" y="287"/><use x="305.1" xlink:href="#mf930d7e6a5" y="242"/><use x="372.5" xlink:href="#mf930d7e6a5" y="264.4"/><use x="386.9" xlink:href="#mf930d7e6a5" y="271.5"/><use x="312.9" xlink:href="#mf930d7e6a5" y="290.1"/><use x="302" xlink:href="#mf930d7e6a5" y="228.5"/><use x="318.5" xlink:href="#mf930d7e6a5" y="277"/><use x="280.8" xlink:href="#mf930d7e6a5" y="263.7"/><use x="331.4" xlink:href="#mf930d7e6a5" y="236"/><use x="321.9" xlink:href="#mf930d7e6a5" y="269.7"/><use x="306.6" xlink:href="#mf930d7e6a5" y="261.2"/><use x="350.7" xlink:href="#mf930d7e6a5" y="282.3"/><use x="304.1" xlink:href="#mf930d7e6a5" y="273.4"/><use x="254.7" xlink:href="#mf930d7e6a5" y="255.8"/><use x="285.1" xlink:href="#mf930d7e6a5" y="273.2"/><use x="317.3" xlink:href="#mf930d7e6a5" y="270.7"/><use x="276.1" xlink:href="#mf930d7e6a5" y="237"/><use x="309.6" xlink:href="#mf930d7e6a5" y="268.2"/><use x="320.7" xlink:href="#mf930d7e6a5" y="246.6"/><use x="303.7" xlink:href="#mf930d7e6a5" y="261.5"/><use x="243.7" xlink:href="#mf930d7e6a5" y="261.3"/><use x="348.6" xlink:href="#mf930d7e6a5" y="276.2"/><use x="312" xlink:href="#mf930d7e6a5" y="254.2"/><use x="336.2" xlink:href="#mf930d7e6a5" y="265.2"/><use x="332" xlink:href="#mf930d7e6a5" y="265"/><use x="272.1" xlink:href="#mf930d7e6a5" y="270.9"/><use x="341.4" xlink:href="#mf930d7e6a5" y="227.3"/><use x="311" xlink:href="#mf930d7e6a5" y="260.8"/><use x="307.9" xlink:href="#mf930d7e6a5" y="257.9"/><use x="293.8" xlink:href="#mf930d7e6a5" y="240.1"/><use x="325.2" xlink:href="#mf930d7e6a5" y="282.6"/><use x="302.2" xlink:href="#mf930d7e6a5" y="227.5"/><use x="313.1" xlink:href="#mf930d7e6a5" y="317.6"/><use x="349.8" xlink:href="#mf930d7e6a5" y="243.1"/><use x="313.5" xlink:href="#mf930d7e6a5" y="270.1"/><use x="307.9" xlink:href="#mf930d7e6a5" y="263"/><use x="302.7" xlink:href="#mf930d7e6a5" y="226"/><use x="340.1" xlink:href="#mf930d7e6a5" y="268.6"/><use x="306.1" xlink:href="#mf930d7e6a5" y="265.9"/><use x="288" xlink:href="#mf930d7e6a5" y="211"/><use x="249.2" xlink:href="#mf930d7e6a5" y="273"/><use x="327" xlink:href="#mf930d7e6a5" y="286.2"/><use x="292.6" xlink:href="#mf930d7e6a5" y="218.4"/><use x="293.5" xlink:href="#mf930d7e6a5" y="276.1"/><use x="328.5" xlink:href="#mf930d7e6a5" y="228.3"/><use x="285.9" xlink:href="#mf930d7e6a5" y="247.3"/><use x="317.8" xlink:href="#mf930d7e6a5" y="246.6"/><use x="339.5" xlink:href="#mf930d7e6a5" y="284.8"/><use x="312.7" xlink:href="#mf930d7e6a5" y="214.3"/><use x="273.4" xlink:href="#mf930d7e6a5" y="284.6"/><use x="312.1" xlink:href="#mf930d7e6a5" y="251.8"/><use x="295.6" xlink:href="#mf930d7e6a5" y="249.3"/><use x="267.6" xlink:href="#mf930d7e6a5" y="237.5"/><use x="367.1" xlink:href="#mf930d7e6a5" y="326.6"/><use x="317.9" xlink:href="#mf930d7e6a5" y="237"/><use x="303.7" xlink:href="#mf930d7e6a5" y="267.6"/><use x="262.8" xlink:href="#mf930d7e6a5" y="218.4"/><use x="301.8" xlink:href="#mf930d7e6a5" y="282.1"/><use x="320.5" xlink:href="#mf930d7e6a5" y="228.1"/><use x="294.8" xlink:href="#mf930d7e6a5" y="219.9"/><use x="324.8" xlink:href="#mf930d7e6a5" y="284.7"/><use x="317.9" xlink:href="#mf930d7e6a5" y="232"/><use x="277.4" xlink:href="#mf930d7e6a5" y="263"/><use x="328" xlink:href="#mf930d7e6a5" y="235.3"/><use x="298.6" xlink:href="#mf930d7e6a5" y="265.4"/><use x="281.3" xlink:href="#mf930d7e6a5" y="191.9"/><use x="316.8" xlink:href="#mf930d7e6a5" y="238"/><use x="326.8" xlink:href="#mf930d7e6a5" y="243.1"/><use x="316" xlink:href="#mf930d7e6a5" y="282.9"/><use x="323.6" xlink:href="#mf930d7e6a5" y="238.5"/><use x="348" xlink:href="#mf930d7e6a5" y="257.5"/><use x="285.1" xlink:href="#mf930d7e6a5" y="261.3"/><use x="335.7" xlink:href="#mf930d7e6a5" y="290.5"/><use x="304.2" xlink:href="#mf930d7e6a5" y="293.8"/><use x="341.6" xlink:href="#mf930d7e6a5" y="296.1"/><use x="361.1" xlink:href="#mf930d7e6a5" y="323.7"/><use x="322.6" xlink:href="#mf930d7e6a5" y="223.1"/><use x="315.4" xlink:href="#mf930d7e6a5" y="286.6"/><use x="349.3" xlink:href="#mf930d7e6a5" y="324.1"/><use x="328.8" xlink:href="#mf930d7e6a5" y="274"/><use x="312" xlink:href="#mf930d7e6a5" y="268.9"/><use x="329" xlink:href="#mf930d7e6a5" y="258.3"/><use x="347.5" xlink:href="#mf930d7e6a5" y="270.5"/><use x="312.6" xlink:href="#mf930d7e6a5" y="214.2"/><use x="337" xlink:href="#mf930d7e6a5" y="289.9"/><use x="300.6" xlink:href="#mf930d7e6a5" y="283.9"/><use x="342" xlink:href="#mf930d7e6a5" y="207.2"/><use x="343.1" xlink:href="#mf930d7e6a5" y="311.7"/><use x="306.4" xlink:href="#mf930d7e6a5" y="270.6"/><use x="291.6" xlink:href="#mf930d7e6a5" y="207.7"/><use x="337.6" xlink:href="#mf930d7e6a5" y="213.8"/><use x="372.2" xlink:href="#mf930d7e6a5" y="289.6"/></g></g><path clip-path="url(#pca67a15a9c)" d="M234.6 217.6V251l1.7.1 1.6.4 1.7.2 1.6.2 1.6.3 1.7.3 1.6.4 1.7.3 1.6.3 1.6.2 1.7.1h1.6l1.7.4 1.6.2 1.6.3h1.7l1.6.2 1.7.3 1.6.2 1.6.1 1.7.3 1.6.2 1.7.3 1.6.1 1.6.2 1.7.1 1.6.2 1.7.2 1.6.3 1.6.2 1.7.2 1.6.3 1.7.3 1.6.3 1.6.3 1.7.3 1.6.3 1.7.4 1.6.2 1.6.4 1.7.3 1.6.5 1.7.5 1.6.3 1.6.4 1.7.5 1.6.5 1.7.5 1.6.7 1.6.6 1.7.6 1.6.7 1.7.6 1.6.6 1.6.6 1.7.6 1.6.7 1.6.5 1.7.8 1.6.9 1.7.8 1.6.7 1.6.7 1.7.9 1.6.6 1.7.9 1.6.8 1.6.7 1.7.8 1.6.7 1.7.8 1.6 1 1.6.8 1.7.8 1.6.8 1.7.8 1.6.8 1.6.9 1.7.8 1.6.8 1.7.9 1.6.8 1.6.8 1.7.9 1.6.8 1.7.8 1.6.8 1.6.9 1.7.8 1.6.7 1.7.7 1.6.7 1.6.9 1.7.9 1.6.8 1.7.9 1.6.8 1.6 1 1.7.8V265l-1.7-.1-1.6-.1-1.6-.1-1.7-.1-1.6-.2H387l-1.6-.2-1.6-.3-1.7-.2-1.6-.1-1.7-.2h-1.6l-1.6-.1H374l-1.6-.2h-1.7l-1.6-.2-1.6-.2-1.7-.2-1.6-.2-1.7-.3-1.6-.3-1.6-.2-1.7-.3-1.6-.2h-1.7l-1.6-.2h-1.6l-1.7-.4-1.6-.4-1.7-.2-1.6-.1-1.6-.2-1.7-.1-1.6-.3-1.7-.1-1.6-.2-1.6-.4-1.7-.4-1.6-.2-1.7-.3-1.6-.3-1.6-.4-1.7-.4-1.6-.4-1.6-.3-1.7-.3-1.6-.5-1.7-.5-1.6-.4-1.6-.4-1.7-.6-1.6-.4-1.7-.5-1.6-.6-1.6-.6-1.7-.7-1.6-.7-1.7-.4-1.6-.7-1.6-.6-1.7-.7-1.6-.6-1.7-.8-1.6-.8-1.6-.8-1.7-.6-1.6-.7-1.7-.7-1.6-.7-1.6-.7-1.7-.8-1.6-.8-1.7-.8-1.6-.8-1.6-.8-1.7-.8-1.6-.8-1.7-.9-1.6-.9-1.6-.8-1.7-.8-1.6-.9-1.7-.8-1.6-.8-1.6-.8-1.7-.9-1.6-.8-1.7-.8-1.6-.9-1.6-.7-1.7-.8-1.6-.8-1.7-.8-1.6-.9-1.6-.9-1.7-.8-1.6-.9-1.7-.8z" fill="#8172b2" fill-opacity=".1" id="PolyCollection_4"/><path clip-path="url(#pca67a15a9c)" d="M234.6 235l1.7.5 1.6.5 1.7.5 1.6.5 1.6.5 1.7.5 1.6.5 1.7.5 1.6.5 1.6.5 1.7.5 1.6.5 1.7.5 1.6.5 1.6.5 1.7.5 1.6.5 1.7.5 1.6.5 1.6.5 1.7.5 1.6.5 1.7.5 1.6.5 1.6.5 1.7.5 1.6.5 1.7.5 1.6.5 1.6.5 1.7.5 1.6.5 1.7.5 1.6.5 1.6.5 1.7.5 1.6.5 1.7.5 1.6.5 1.6.5 1.7.5 1.6.5 1.7.5 1.6.5 1.6.5 1.7.5 1.6.5 1.7.5 1.6.5 1.6.5 1.7.5 1.6.5 1.7.5 1.6.5 1.6.5 1.7.5 1.6.5 1.6.5 1.7.5 1.6.5 1.7.5 1.6.5 1.6.5 1.7.5 1.6.5 1.7.5 1.6.5 1.6.5 1.7.5 1.6.5 1.7.5 1.6.5 1.6.5 1.7.5 1.6.5 1.7.5 1.6.5 1.6.5 1.7.5 1.6.5 1.7.5 1.6.5 1.6.5 1.7.5 1.6.5 1.7.5 1.6.5 1.6.5 1.7.5 1.6.5 1.7.5 1.6.5 1.6.5 1.7.5 1.6.5 1.7.5 1.6.5 1.6.5 1.7.5" fill="none" stroke="#8172b2" stroke-linecap="round" stroke-width="2.6" id="line2d_76"/><path d="M234.6 333.4V185" fill="none" id="patch_18"/><path d="M397 333.4V185" fill="none" id="patch_19"/><path d="M234.6 333.4H397" fill="none" id="patch_20"/><path d="M234.6 185.1H397" fill="none" id="patch_21"/></g></g><defs><clipPath id="pbc063c6acb"><path d="M39.9 7.2h162.3v148.3H39.9z"/></clipPath><clipPath id="pb65304c000"><path d="M234.6 7.2h162.3v148.3H234.6z"/></clipPath><clipPath id="p5188d08c45"><path d="M39.9 185.1h162.3v148.3H39.9z"/></clipPath><clipPath id="pca67a15a9c"><path d="M234.6 185.1h162.3v148.3H234.6z"/></clipPath></defs></svg>