<svg viewBox="0 0 392 480" xmlns="http://www.w3.org/2000/svg" xmlns:xlink="http://www.w3.org/1999/xlink"><defs><style>*{stroke-linecap:butt;stroke-linejoin:round}</style></defs><g id="figure_1"><path d="M0 480.3h392.2V0H0z" fill="#fff" id="patch_1"/><g id="axes_1"><path d="M25.3 84h357.1V22h-357z" fill="#eaeaf2" id="patch_2"/><g id="matplotlib.axis_1"><g id="xtick_1"><path clip-path="url(#p648c6bbbf8)" d="M59.1 84V22" fill="none" stroke="#fff" stroke-linecap="round" id="line2d_1"/></g><g id="xtick_2"><path clip-path="url(#p648c6bbbf8)" d="M112.3 84V22" fill="none" stroke="#fff" stroke-linecap="round" id="line2d_3"/></g><g id="xtick_3"><path clip-path="url(#p648c6bbbf8)" d="M165.4 84V22" fill="none" stroke="#fff" stroke-linecap="round" id="line2d_5"/></g><g id="xtick_4"><path clip-path="url(#p648c6bbbf8)" d="M218.6 84V22" fill="none" stroke="#fff" stroke-linecap="round" id="line2d_7"/></g><g id="xtick_5"><path clip-path="url(#p648c6bbbf8)" d="M271.7 84V22" fill="none" stroke="#fff" stroke-linecap="round" id="line2d_9"/></g><g id="xtick_6"><path clip-path="url(#p648c6bbbf8)" d="M324.9 84V22" fill="none" stroke="#fff" stroke-linecap="round" id="line2d_11"/></g><g id="xtick_7"><path clip-path="url(#p648c6bbbf8)" d="M378 84V22" fill="none" stroke="#fff" stroke-linecap="round" id="line2d_13"/></g></g><g id="matplotlib.axis_2"><g id="ytick_1"><path clip-path="url(#p648c6bbbf8)" d="M25.3 84h357.1" fill="none" stroke="#fff" stroke-linecap="round" id="line2d_15"/><g id="text_1"><defs><path d="M51.7 34.4q0-9.9-1.9-16.6-1.8-6.8-5.1-11-3.2-4.2-7.6-6Q32.7-1 27.7-1T18.3.8q-4.3 1.8-7.5 6-3.2 4.1-5 10.9-1.9 6.8-1.9 16.7 0 10.4 1.8 17.2 1.9 6.9 5 10.9 3.3 4 7.7 5.7 4.4 1.6 9.6 1.6 5 0 9.2-1.6 4.3-1.7 7.6-5.7 3.2-4 5-10.9 1.9-6.8 1.9-17.2zm-9 0q0 8.2-.9 13.7-1 5.4-2.9 8.7-1.9 3.2-4.6 4.6-2.8 1.3-6.3 1.3-3.7 0-6.6-1.4-2.8-1.3-4.7-4.6-2-3.2-3-8.7-.9-5.4-.9-13.6 0-7.9 1-13.3t3-8.7q1.9-3.3 4.6-4.8 2.8-1.4 6.4-1.4 3.4 0 6.2 1.4 2.8 1.5 4.7 4.8 2 3.3 3 8.7 1 5.4 1 13.3z" id="LiberationSans-30"/></defs><use xlink:href="#LiberationSans-30" transform="matrix(.1 0 0 -.1 12.8 87.6)" fill="#262626"/></g></g><g id="ytick_2"><path clip-path="url(#p648c6bbbf8)" d="M25.3 52.8h357.1" fill="none" stroke="#fff" stroke-linecap="round" id="line2d_17"/><g id="text_2"><defs><path d="M5 0v6.2q2.5 5.7 6.1 10 3.6 4.5 7.6 8l7.8 6.6q3.9 3 7 6t5 6.4q2 3.3 2 7.5 0 3-1 5.1-.8 2.3-2.4 3.8-1.7 1.5-4 2.2-2.3.8-5.2.8-2.6 0-5-.7-2.2-.8-4-2.2-1.9-1.5-3-3.7-1.2-2.1-1.5-5l-9 .8q.5 3.7 2 7Q9.2 62 12 64.5q2.8 2.5 6.8 4 4 1.3 9.2 1.3 5.2 0 9.2-1.2 4-1.2 6.7-3.6 2.8-2.4 4.2-6 1.5-3.4 1.5-8 0-3.5-1.2-6.6-1.3-3.1-3.4-6-2-2.8-4.8-5.4-2.7-2.7-5.7-5.2l-6-5q-3-2.4-5.7-5-2.6-2.4-4.7-5t-3.3-5.3h35.9V0z" id="LiberationSans-32"/></defs><use xlink:href="#LiberationSans-32" transform="matrix(.1 0 0 -.1 12.8 56.4)" fill="#262626"/></g></g><g id="ytick_3"><path clip-path="url(#p648c6bbbf8)" d="M25.3 21.6h357.1" fill="none" stroke="#fff" stroke-linecap="round" id="line2d_19"/><g id="text_3"><defs><path d="M43 15.6V0h-8.3v15.6H2.3v6.8l31.5 46.4H43V22.5h9.7v-7zm-8.3 43.3q0-.3-.5-1l-.9-1.6-1-1.7-.8-1.5-17.7-26-.7-1-1-1.3q-.4-.7-1-1.3l-.7-1h24.3z" id="LiberationSans-34"/></defs><use xlink:href="#LiberationSans-34" transform="matrix(.1 0 0 -.1 12.8 25.2)" fill="#262626"/></g></g></g><path clip-path="url(#p648c6bbbf8)" d="M177.6 84h3V82h-3z" fill="#4c72b0" opacity=".4" id="patch_3"/><path clip-path="url(#p648c6bbbf8)" d="M180.7 84h3v-2.7h-3z" fill="#4c72b0" opacity=".4" id="patch_4"/><path clip-path="url(#p648c6bbbf8)" d="M183.7 84h3v-5.4h-3z" fill="#4c72b0" opacity=".4" id="patch_5"/><path clip-path="url(#p648c6bbbf8)" d="M186.8 84h3v-6.5h-3z" fill="#4c72b0" opacity=".4" id="patch_6"/><path clip-path="url(#p648c6bbbf8)" d="M189.8 84h3.1V65.6h-3z" fill="#4c72b0" opacity=".4" id="patch_7"/><path clip-path="url(#p648c6bbbf8)" d="M192.9 84h3V59.6h-3z" fill="#4c72b0" opacity=".4" id="patch_8"/><path clip-path="url(#p648c6bbbf8)" d="M196 84h3V48.2h-3z" fill="#4c72b0" opacity=".4" id="patch_9"/><path clip-path="url(#p648c6bbbf8)" d="M199 84h3V47.1h-3z" fill="#4c72b0" opacity=".4" id="patch_10"/><path clip-path="url(#p648c6bbbf8)" d="M202 84h3.1V35.2h-3z" fill="#4c72b0" opacity=".4" id="patch_11"/><path clip-path="url(#p648c6bbbf8)" d="M205.1 84h3V27.6h-3z" fill="#4c72b0" opacity=".4" id="patch_12"/><path clip-path="url(#p648c6bbbf8)" d="M208.2 84h3V28.7h-3z" fill="#4c72b0" opacity=".4" id="patch_13"/><path clip-path="url(#p648c6bbbf8)" d="M211.3 84h3V25h-3z" fill="#4c72b0" opacity=".4" id="patch_14"/><path clip-path="url(#p648c6bbbf8)" d="M214.3 84h3V36.8h-3z" fill="#4c72b0" opacity=".4" id="patch_15"/><path clip-path="url(#p648c6bbbf8)" d="M217.4 84h3V39h-3z" fill="#4c72b0" opacity=".4" id="patch_16"/><path clip-path="url(#p648c6bbbf8)" d="M220.4 84h3V43.3h-3z" fill="#4c72b0" opacity=".4" id="patch_17"/><path clip-path="url(#p648c6bbbf8)" d="M223.5 84h3V66.7h-3z" fill="#4c72b0" opacity=".4" id="patch_18"/><path clip-path="url(#p648c6bbbf8)" d="M226.5 84h3.1V67.2h-3z" fill="#4c72b0" opacity=".4" id="patch_19"/><path clip-path="url(#p648c6bbbf8)" d="M229.6 84h3V73.7h-3z" fill="#4c72b0" opacity=".4" id="patch_20"/><path clip-path="url(#p648c6bbbf8)" d="M232.7 84h3v-7.6h-3z" fill="#4c72b0" opacity=".4" id="patch_21"/><path clip-path="url(#p648c6bbbf8)" d="M235.7 84h3V82h-3z" fill="#4c72b0" opacity=".4" id="patch_22"/><path clip-path="url(#p648c6bbbf8)" d="M238.8 84h3V82h-3z" fill="#4c72b0" opacity=".4" id="patch_23"/><path clip-path="url(#p648c6bbbf8)" d="M241.8 84h3v-1h-3z" fill="#4c72b0" opacity=".4" id="patch_24"/><path clip-path="url(#p648c6bbbf8)" d="M168.6 84l3.3-.1 2-.3 2-.5 4.1-1.3 2-.9 1.4-.8 1.3-1 1.4-1.4 1.3-1.8 1.3-2.3 1.4-3 2-5.2 5.4-14.9 1.3-3 3.4-6.7 2-5.1 1.3-3.4 1.4-2.7.7-1 .6-.6.7-.4.7-.1h.6l.7.4.7.6 1.3 1.5 1.4 2 2 3.6 2 3.9 1.3 3L221 46l1.3 4.2 4 13.5 1.4 3.3 1.4 2.7 1.3 2 2.7 3.7 2.7 3.3L237 80l1.4 1 1.3.8 1.3.5 2.7.7 4 .7 2.8.3h3.3" fill="none" stroke="#4c72b0" stroke-linecap="round" stroke-width="1.8" id="line2d_21"/><path clip-path="url(#p648c6bbbf8)" d="M187.8 84V22" fill="none" stroke="#4c72b0" stroke-dasharray="6.475,2.8" stroke-width="1.8" id="line2d_22"/><path clip-path="url(#p648c6bbbf8)" d="M232.4 84V22" fill="none" stroke="#4c72b0" stroke-dasharray="6.475,2.8" stroke-width="1.8" id="line2d_23"/><path clip-path="url(#p648c6bbbf8)" d="M206.3 84V22" fill="none" stroke="#4c72b0" stroke-linecap="round" stroke-width="1.8" id="line2d_24"/><path d="M25.3 84V22" fill="none" id="patch_25"/><path d="M382.4 84V22" fill="none" id="patch_26"/><path d="M25.3 84h357.1" fill="none" id="patch_27"/><path d="M25.3 21.9h357.1" fill="none" id="patch_28"/><g id="text_4"><defs><path d="M27 .4l-4-.9q-2-.3-4.8-.3-10.6 0-10.6 12v35.2h-6v6.4H8l2.5 11.9h6V52.8h9.7v-6.4h-9.8V13.1q0-3.8 1.2-5.4Q19 6.2 22 6.2q1.3 0 2.4.2l2.6.5z" id="LiberationSans-74"/><path d="M73.8 0H62.6L50.7 43.7l-1.1 4.4-1.1 4.8-1.2 5.5-1.2-5.5L45 48l-1.2-4.3L31.8 0H20.7L.4 68.8h9.8l12.3-43.7 1.6-6.1 1.3-5.4 1.2-5.4 1.5 6.6.7 3 .7 2.9.7 2.8.7 2.5 12 42.8h8.9l12-42.8.6-2.5.7-2.8.7-3 .7-2.8L68 8.2l.5 1.7q.3 1.7 1 4.2l1.2 5.5q.7 3 1.5 5.5l12.1 43.7H94z" id="LiberationSans-57"/><path d="M.8-20.8v6.3h11.4v80.7H.8v6.3h19.9v-93.3z" id="LiberationSans-5d"/><path d="M40 8.5q-2.4-5-6.4-7.3-4-2.2-10-2.2Q13.6-1 9 5.8q-4.7 6.7-4.7 20.4 0 27.6 19.4 27.6 6 0 10-2.2t6.5-7v27.9h8.8V10.9 7.2 4l.2-2.5V0h-8.3l-.2 1.4-.1 2-.2 2.5v2.6zm-26.6 18q0-5.5.7-9.4.7-4 2.2-6.4 1.5-2.5 3.9-3.7 2.3-1.2 5.7-1.2 3.4 0 6.1 1.1 2.7 1.2 4.5 3.7 1.7 2.5 2.7 6.5.9 4 .9 10 0 5.6-1 9.4-.9 4-2.7 6.3-1.8 2.4-4.4 3.5-2.6 1-6 1-3.3 0-5.6-1.1t-3.9-3.6Q14.9 40 14.2 36q-.8-4-.8-9.6z" id="LiberationSans-64"/><path d="M6.7 64v8.5h8.8V64zm0-64v52.8h8.8V0z" id="LiberationSans-69"/><path d="M46.4 14.6q0-3.7-1.5-6.6-1.4-3-4.1-5Q38 1.2 34 0q-4-1-9-1-4.6 0-8.3.7Q13 .4 10.2 2 7.4 3.6 5.5 6.1q-1.8 2.6-2.7 6.3l7.7 1.5q1.2-4.2 4.7-6.2t9.8-2q2.8 0 5.1.4 2.4.4 4.1 1.4Q36 8.5 37 10q1 1.6 1 4 0 2.3-1.2 3.8-1.1 1.6-3.1 2.6t-4.9 1.8l-6.2 1.7q-3.2.8-6.3 1.8-3.2 1-5.7 2.7-2.5 1.7-4 4.2-1.6 2.5-1.6 6.3 0 7.2 5.1 11 5.2 3.8 15 3.8 8.8 0 14-3.1 5-3 6.5-9.9l-8-1q-.4 2.1-1.6 3.5-1.1 1.4-2.8 2.2-1.6.9-3.7 1.3-2.1.3-4.4.3-6 0-8.8-1.8-2.8-1.8-2.8-5.5 0-2.1 1-3.5 1.1-1.4 3-2.3 1.9-1 4.5-1.7l5.8-1.5 4.3-1.1q2.2-.6 4.3-1.5 2-.9 3.9-2 1.8-1.1 3.2-2.8 1.4-1.6 2.2-3.7.8-2.2.8-5z" id="LiberationSans-73"/><path d="M7.1-20.8v93.3H27v-6.3H15.6v-80.7H27v-6.3z" id="LiberationSans-5b"/><path d="M7 0v43.9l-.2 3.4v3l-.2 2.5H15l.2-2.5.1-3 .1-2.9V42h.2q1 3 2 5.3 1 2.2 2.5 3.7 1.4 1.4 3.3 2 2 .8 4.8.8l2-.2 1.5-.3v-8l-2 .3-2.6.1q-3 0-5.2-1.3-2.1-1.4-3.5-3.8-1.3-2.4-2-5.8-.6-3.3-.6-7.3V0z" id="LiberationSans-72"/><path d="M51.4 26.7Q51.4-1 32-1q-6 0-10 2.2t-6.5 7l-.1-2.6-.2-2.6-.1-2-.2-1H6.5v1.5L6.6 4l.1 3.2v65.3h8.8V51.8 49v-2.4l-.2-2.3h.2q2.5 5.1 6.5 7.3t10 2.2q10 0 14.7-6.7 4.7-6.8 4.7-20.4zm-9.2-.3q0 5.4-.7 9.4-.7 3.9-2.2 6.4-1.5 2.5-3.8 3.6Q33 47 29.7 47t-6-1.1q-2.7-1.1-4.5-3.6-1.8-2.5-2.7-6.6-1-4-1-9.9 0-5.6 1-9.5.9-3.8 2.7-6.3 1.8-2.4 4.4-3.4 2.6-1 6-1 3.3 0 5.6 1 2.3 1.2 4 3.7 1.5 2.4 2.2 6.4.8 4 .8 9.7z" id="LiberationSans-62"/><path d="M15.3 52.8V19.3q0-3.8.6-6.4.6-2.6 1.8-4.2 1.3-1.6 3.4-2.2 2-.7 5.1-.7 3.1 0 5.7 1.1 2.5 1.1 4.3 3.2 1.7 2 2.7 5.1 1 3 1 7v30.6h8.8V11.3 7.8 4.3l.2-2.8V0h-8.2l-.1 1.3-.1 2.5-.2 2.8V9H40Q39 6.7 37.4 5 35.8 3 33.8 1.7q-2-1.3-4.5-2-2.6-.7-6-.7-4.5 0-7.6 1-3.2 1.2-5.2 3.4-2 2.3-3 5.8t-1 8.4v35.2z" id="LiberationSans-75"/><path d="M51.4 26.5q0-14-6-20.7Q39.1-1 27.5-1 22-1 17.7.7q-4.3 1.6-7.3 5-3 3.5-4.6 8.6-1.6 5.2-1.6 12.2 0 27.3 23.7 27.3 6.1 0 10.6-1.7t7.3-5.1q2.9-3.4 4.2-8.6 1.4-5.1 1.4-12zm-9.2 0q0 6.1-1 10.1T38.5 43q-1.9 2.4-4.5 3.4-2.7 1-6 1t-6-1q-2.8-1-4.7-3.5-1.9-2.4-2.9-6.4t-1-10q0-6.2 1.1-10.2 1-4 3-6.4 1.8-2.4 4.4-3.4 2.6-1 5.6-1 3.4 0 6 1 2.8 1 4.7 3.3 2 2.4 3 6.4 1 4.1 1 10.3z" id="LiberationSans-6f"/><path d="M40.3 0v33.5q0 3.9-.6 6.4-.5 2.6-1.8 4.2t-3.4 2.3q-2 .6-5.1.6-3.1 0-5.6-1-2.6-1.2-4.3-3.3-1.8-2-2.8-5-1-3.1-1-7V0H7v48.5l-.2 2.8v1.5h8.2l.1-1.3.2-2.5v-2.8l.1-2.4h.2q1.3 2.3 2.8 4.2 1.5 1.8 3.5 3 2 1.4 4.6 2 2.6.8 6 .8 4.4 0 7.5-1 3.2-1.1 5.3-3.4 2-2.2 3-5.8 1-3.5 1-8.4V0z" id="LiberationSans-6e"/></defs><g transform="matrix(.12 0 0 -.12 160.9 15.9)" fill="#262626"><use xlink:href="#LiberationSans-57"/><use x="94.4" xlink:href="#LiberationSans-5b"/><use x="122.2" xlink:href="#LiberationSans-30"/><use x="177.8" xlink:href="#LiberationSans-5d"/><use x="205.6" xlink:href="#LiberationSans-20"/><use x="233.3" xlink:href="#LiberationSans-64"/><use x="289" xlink:href="#LiberationSans-69"/><use x="311.2" xlink:href="#LiberationSans-73"/><use x="361.2" xlink:href="#LiberationSans-74"/><use x="389" xlink:href="#LiberationSans-72"/><use x="422.3" xlink:href="#LiberationSans-69"/><use x="444.5" xlink:href="#LiberationSans-62"/><use x="500.1" xlink:href="#LiberationSans-75"/><use x="555.7" xlink:href="#LiberationSans-74"/><use x="583.5" xlink:href="#LiberationSans-69"/><use x="605.7" xlink:href="#LiberationSans-6f"/><use x="661.3" xlink:href="#LiberationSans-6e"/></g></g></g><g id="axes_2"><path d="M25.3 158.6h357.1V96.4h-357z" fill="#eaeaf2" id="patch_29"/><g id="matplotlib.axis_3"><g id="xtick_8"><path clip-path="url(#pfea1d4e455)" d="M59.1 158.6V96.4" fill="none" stroke="#fff" stroke-linecap="round" id="line2d_25"/></g><g id="xtick_9"><path clip-path="url(#pfea1d4e455)" d="M112.3 158.6V96.4" fill="none" stroke="#fff" stroke-linecap="round" id="line2d_27"/></g><g id="xtick_10"><path clip-path="url(#pfea1d4e455)" d="M165.4 158.6V96.4" fill="none" stroke="#fff" stroke-linecap="round" id="line2d_29"/></g><g id="xtick_11"><path clip-path="url(#pfea1d4e455)" d="M218.6 158.6V96.4" fill="none" stroke="#fff" stroke-linecap="round" id="line2d_31"/></g><g id="xtick_12"><path clip-path="url(#pfea1d4e455)" d="M271.7 158.6V96.4" fill="none" stroke="#fff" stroke-linecap="round" id="line2d_33"/></g><g id="xtick_13"><path clip-path="url(#pfea1d4e455)" d="M324.9 158.6V96.4" fill="none" stroke="#fff" stroke-linecap="round" id="line2d_35"/></g><g id="xtick_14"><path clip-path="url(#pfea1d4e455)" d="M378 158.6V96.4" fill="none" stroke="#fff" stroke-linecap="round" id="line2d_37"/></g></g><g id="matplotlib.axis_4"><g id="ytick_4"><path clip-path="url(#pfea1d4e455)" d="M25.3 158.6h357.1" fill="none" stroke="#fff" stroke-linecap="round" id="line2d_39"/><use xlink:href="#LiberationSans-30" transform="matrix(.1 0 0 -.1 12.8 162.2)" fill="#262626" id="text_5"/></g><g id="ytick_5"><path clip-path="url(#pfea1d4e455)" d="M25.3 132.3h357.1" fill="none" stroke="#fff" stroke-linecap="round" id="line2d_41"/><use xlink:href="#LiberationSans-32" transform="matrix(.1 0 0 -.1 12.8 136)" fill="#262626" id="text_6"/></g><g id="ytick_6"><path clip-path="url(#pfea1d4e455)" d="M25.3 106h357.1" fill="none" stroke="#fff" stroke-linecap="round" id="line2d_43"/><use xlink:href="#LiberationSans-34" transform="matrix(.1 0 0 -.1 12.8 109.7)" fill="#262626" id="text_7"/></g></g><path clip-path="url(#pfea1d4e455)" d="M300.5 158.6h2.5v-1.1h-2.5z" fill="#4c72b0" opacity=".4" id="patch_30"/><path clip-path="url(#pfea1d4e455)" d="M303 158.6h2.6v-2.8H303z" fill="#4c72b0" opacity=".4" id="patch_31"/><path clip-path="url(#pfea1d4e455)" d="M305.6 158.6h2.5v-6.1h-2.5z" fill="#4c72b0" opacity=".4" id="patch_32"/><path clip-path="url(#pfea1d4e455)" d="M308 158.6h2.6v-7.2h-2.5z" fill="#4c72b0" opacity=".4" id="patch_33"/><path clip-path="url(#pfea1d4e455)" d="M310.6 158.6h2.5v-17.2h-2.5z" fill="#4c72b0" opacity=".4" id="patch_34"/><path clip-path="url(#pfea1d4e455)" d="M313.1 158.6h2.5v-21h-2.5z" fill="#4c72b0" opacity=".4" id="patch_35"/><path clip-path="url(#pfea1d4e455)" d="M315.6 158.6h2.6v-30.4h-2.6z" fill="#4c72b0" opacity=".4" id="patch_36"/><path clip-path="url(#pfea1d4e455)" d="M318.2 158.6h2.5v-39.3h-2.5z" fill="#4c72b0" opacity=".4" id="patch_37"/><path clip-path="url(#pfea1d4e455)" d="M320.7 158.6h2.5v-44.8h-2.5z" fill="#4c72b0" opacity=".4" id="patch_38"/><path clip-path="url(#pfea1d4e455)" d="M323.2 158.6h2.5v-54.2h-2.5z" fill="#4c72b0" opacity=".4" id="patch_39"/><path clip-path="url(#pfea1d4e455)" d="M325.7 158.6h2.6V99.4h-2.6z" fill="#4c72b0" opacity=".4" id="patch_40"/><path clip-path="url(#pfea1d4e455)" d="M328.3 158.6h2.5V101h-2.5z" fill="#4c72b0" opacity=".4" id="patch_41"/><path clip-path="url(#pfea1d4e455)" d="M330.8 158.6h2.5v-48.7h-2.5z" fill="#4c72b0" opacity=".4" id="patch_42"/><path clip-path="url(#pfea1d4e455)" d="M333.3 158.6h2.5v-46h-2.5z" fill="#4c72b0" opacity=".4" id="patch_43"/><path clip-path="url(#pfea1d4e455)" d="M335.8 158.6h2.6v-37h-2.6z" fill="#4c72b0" opacity=".4" id="patch_44"/><path clip-path="url(#pfea1d4e455)" d="M338.4 158.6h2.5v-28.8h-2.5z" fill="#4c72b0" opacity=".4" id="patch_45"/><path clip-path="url(#pfea1d4e455)" d="M340.9 158.6h2.5v-16H341z" fill="#4c72b0" opacity=".4" id="patch_46"/><path clip-path="url(#pfea1d4e455)" d="M343.4 158.6h2.5v-20h-2.5z" fill="#4c72b0" opacity=".4" id="patch_47"/><path clip-path="url(#pfea1d4e455)" d="M346 158.6h2.5v-6.1h-2.6z" fill="#4c72b0" opacity=".4" id="patch_48"/><path clip-path="url(#pfea1d4e455)" d="M348.5 158.6h2.5v-6.1h-2.5z" fill="#4c72b0" opacity=".4" id="patch_49"/><path clip-path="url(#pfea1d4e455)" d="M351 158.6h2.5v-1.7H351z" fill="#4c72b0" opacity=".4" id="patch_50"/><path clip-path="url(#pfea1d4e455)" d="M353.5 158.6h2.5v-1.1h-2.5z" fill="#4c72b0" opacity=".4" id="patch_51"/><path clip-path="url(#pfea1d4e455)" d="M356 158.6h2.6v-1.1H356z" fill="#4c72b0" opacity=".4" id="patch_52"/><path clip-path="url(#pfea1d4e455)" d="M292.8 158.6l4-.2 1.8-.2 1.8-.4 1.7-.7 1.1-.7 1.2-.9 1.2-1.1 1.1-1.5 1.2-1.8 1.1-2 1.8-3.6 1.7-4.3 2.3-6.6 9.8-29 1.2-2.4.5-1 .6-.5.6-.3.6.1.6.5.5.8 1.2 2.3 5.2 12.2 1.7 5.4 3.5 11.4 1.1 3.3 1.2 2.8 2.9 6 2.3 4.6 1.2 1.9 1.1 1.5 1.2 1.1 1.1.9 1.2.6 1.7.6 2.3.6 3 .4 2.8.1h2.3" fill="none" stroke="#4c72b0" stroke-linecap="round" stroke-width="1.8" id="line2d_45"/><path clip-path="url(#pfea1d4e455)" d="M309.7 158.6V96.4" fill="none" stroke="#4c72b0" stroke-dasharray="6.475,2.8" stroke-width="1.8" id="line2d_46"/><path clip-path="url(#pfea1d4e455)" d="M346.8 158.6V96.4" fill="none" stroke="#4c72b0" stroke-dasharray="6.475,2.8" stroke-width="1.8" id="line2d_47"/><path clip-path="url(#pfea1d4e455)" d="M324.5 158.6V96.4" fill="none" stroke="#4c72b0" stroke-linecap="round" stroke-width="1.8" id="line2d_48"/><path d="M25.3 158.6V96.4" fill="none" id="patch_53"/><path d="M382.4 158.6V96.4" fill="none" id="patch_54"/><path d="M25.3 158.6h357.1" fill="none" id="patch_55"/><path d="M25.3 96.4h357.1" fill="none" id="patch_56"/><g id="text_8"><defs><path d="M7.6 0v7.5h17.5v53L9.6 49.2v8.3L26 68.8h8V7.5h16.8V0z" id="LiberationSans-31"/></defs><g transform="matrix(.12 0 0 -.12 160.9 90.4)" fill="#262626"><use xlink:href="#LiberationSans-57"/><use x="94.4" xlink:href="#LiberationSans-5b"/><use x="122.2" xlink:href="#LiberationSans-31"/><use x="177.8" xlink:href="#LiberationSans-5d"/><use x="205.6" xlink:href="#LiberationSans-20"/><use x="233.3" xlink:href="#LiberationSans-64"/><use x="289" xlink:href="#LiberationSans-69"/><use x="311.2" xlink:href="#LiberationSans-73"/><use x="361.2" xlink:href="#LiberationSans-74"/><use x="389" xlink:href="#LiberationSans-72"/><use x="422.3" xlink:href="#LiberationSans-69"/><use x="444.5" xlink:href="#LiberationSans-62"/><use x="500.1" xlink:href="#LiberationSans-75"/><use x="555.7" xlink:href="#LiberationSans-74"/><use x="583.5" xlink:href="#LiberationSans-69"/><use x="605.7" xlink:href="#LiberationSans-6f"/><use x="661.3" xlink:href="#LiberationSans-6e"/></g></g></g><g id="axes_3"><path d="M25.3 233.1h357.1V171h-357z" fill="#eaeaf2" id="patch_57"/><g id="matplotlib.axis_5"><g id="xtick_15"><path clip-path="url(#pf80012e85f)" d="M59.1 233.1V171" fill="none" stroke="#fff" stroke-linecap="round" id="line2d_49"/></g><g id="xtick_16"><path clip-path="url(#pf80012e85f)" d="M112.3 233.1V171" fill="none" stroke="#fff" stroke-linecap="round" id="line2d_51"/></g><g id="xtick_17"><path clip-path="url(#pf80012e85f)" d="M165.4 233.1V171" fill="none" stroke="#fff" stroke-linecap="round" id="line2d_53"/></g><g id="xtick_18"><path clip-path="url(#pf80012e85f)" d="M218.6 233.1V171" fill="none" stroke="#fff" stroke-linecap="round" id="line2d_55"/></g><g id="xtick_19"><path clip-path="url(#pf80012e85f)" d="M271.7 233.1V171" fill="none" stroke="#fff" stroke-linecap="round" id="line2d_57"/></g><g id="xtick_20"><path clip-path="url(#pf80012e85f)" d="M324.9 233.1V171" fill="none" stroke="#fff" stroke-linecap="round" id="line2d_59"/></g><g id="xtick_21"><path clip-path="url(#pf80012e85f)" d="M378 233.1V171" fill="none" stroke="#fff" stroke-linecap="round" id="line2d_61"/></g></g><g id="matplotlib.axis_6"><g id="ytick_7"><path clip-path="url(#pf80012e85f)" d="M25.3 233.1h357.1" fill="none" stroke="#fff" stroke-linecap="round" id="line2d_63"/><use xlink:href="#LiberationSans-30" transform="matrix(.1 0 0 -.1 12.8 236.7)" fill="#262626" id="text_9"/></g><g id="ytick_8"><path clip-path="url(#pf80012e85f)" d="M25.3 201.1h357.1" fill="none" stroke="#fff" stroke-linecap="round" id="line2d_65"/><use xlink:href="#LiberationSans-32" transform="matrix(.1 0 0 -.1 12.8 204.7)" fill="#262626" id="text_10"/></g></g><path clip-path="url(#pf80012e85f)" d="M89.4 233.1h3.1v-1.6h-3z" fill="#4c72b0" opacity=".4" id="patch_58"/><path clip-path="url(#pf80012e85f)" d="M92.5 233.1h3.2V231h-3.2z" fill="#4c72b0" opacity=".4" id="patch_59"/><path clip-path="url(#pf80012e85f)" d="M95.7 233.1h3.1V230h-3.1z" fill="#4c72b0" opacity=".4" id="patch_60"/><path clip-path="url(#pf80012e85f)" d="M98.8 233.1h3.1V224h-3z" fill="#4c72b0" opacity=".4" id="patch_61"/><path clip-path="url(#pf80012e85f)" d="M102 233.1h3v-10.3h-3z" fill="#4c72b0" opacity=".4" id="patch_62"/><path clip-path="url(#pf80012e85f)" d="M105 233.1h3.2v-14.6h-3.1z" fill="#4c72b0" opacity=".4" id="patch_63"/><path clip-path="url(#pf80012e85f)" d="M108.2 233.1h3.1v-22.8h-3z" fill="#4c72b0" opacity=".4" id="patch_64"/><path clip-path="url(#pf80012e85f)" d="M111.3 233.1h3.2v-30.4h-3.2z" fill="#4c72b0" opacity=".4" id="patch_65"/><path clip-path="url(#pf80012e85f)" d="M114.5 233.1h3.1v-32.5h-3.1z" fill="#4c72b0" opacity=".4" id="patch_66"/><path clip-path="url(#pf80012e85f)" d="M117.6 233.1h3.1V192h-3z" fill="#4c72b0" opacity=".4" id="patch_67"/><path clip-path="url(#pf80012e85f)" d="M120.7 233.1h3.2v-48.3h-3.2z" fill="#4c72b0" opacity=".4" id="patch_68"/><path clip-path="url(#pf80012e85f)" d="M123.9 233.1h3.1V174H124z" fill="#4c72b0" opacity=".4" id="patch_69"/><path clip-path="url(#pf80012e85f)" d="M127 233.1h3.2v-55.9H127z" fill="#4c72b0" opacity=".4" id="patch_70"/><path clip-path="url(#pf80012e85f)" d="M130.2 233.1h3v-54.3h-3z" fill="#4c72b0" opacity=".4" id="patch_71"/><path clip-path="url(#pf80012e85f)" d="M133.3 233.1h3.1v-44.5h-3.1z" fill="#4c72b0" opacity=".4" id="patch_72"/><path clip-path="url(#pf80012e85f)" d="M136.4 233.1h3.2v-39.6h-3.2z" fill="#4c72b0" opacity=".4" id="patch_73"/><path clip-path="url(#pf80012e85f)" d="M139.6 233.1h3v-24.4h-3z" fill="#4c72b0" opacity=".4" id="patch_74"/><path clip-path="url(#pf80012e85f)" d="M142.7 233.1h3.1v-20h-3.1z" fill="#4c72b0" opacity=".4" id="patch_75"/><path clip-path="url(#pf80012e85f)" d="M145.8 233.1h3.2v-13h-3.2z" fill="#4c72b0" opacity=".4" id="patch_76"/><path clip-path="url(#pf80012e85f)" d="M149 233.1h3V225h-3z" fill="#4c72b0" opacity=".4" id="patch_77"/><path clip-path="url(#pf80012e85f)" d="M152 233.1h3.2v-3.8h-3.1z" fill="#4c72b0" opacity=".4" id="patch_78"/><path clip-path="url(#pf80012e85f)" d="M155.2 233.1h3.2v-1h-3.2z" fill="#4c72b0" opacity=".4" id="patch_79"/><path clip-path="url(#pf80012e85f)" d="M158.4 233.1h3V231h-3z" fill="#4c72b0" opacity=".4" id="patch_80"/><path clip-path="url(#pf80012e85f)" d="M79.7 233.1l4.3-.1 3-.3 3.5-.7 1.5-.4 1.4-.6 1.4-.9 1.5-1.2 7.9-7.7 1.4-2 1.5-2.5 2.1-4.6 3.6-7.6 4.4-8.8 3.6-7.7 2.1-4 1.5-2.5 1.4-1.9.7-.7.8-.5.7-.3h.7l.7.2.7.5.8.8.7 1 1.4 2.6 1.5 3.1 1.4 3.5 1.4 4 5.8 17 1.4 3.4 2.2 4.2 2.2 3.8 1.4 2.2 1.4 2 1.5 1.5 1.4 1.2 1.5 1 1.4.7 2.2.9 2.8.7 3 .5 2.8.2h2.9" fill="none" stroke="#4c72b0" stroke-linecap="round" stroke-width="1.8" id="line2d_67"/><path clip-path="url(#pf80012e85f)" d="M100.4 233.1V171" fill="none" stroke="#4c72b0" stroke-dasharray="6.475,2.8" stroke-width="1.8" id="line2d_68"/><path clip-path="url(#pf80012e85f)" d="M149.3 233.1V171" fill="none" stroke="#4c72b0" stroke-dasharray="6.475,2.8" stroke-width="1.8" id="line2d_69"/><path clip-path="url(#pf80012e85f)" d="M127.7 233.1V171" fill="none" stroke="#4c72b0" stroke-linecap="round" stroke-width="1.8" id="line2d_70"/><path d="M25.3 233.1V171" fill="none" id="patch_81"/><path d="M382.4 233.1V171" fill="none" id="patch_82"/><path d="M25.3 233.1h357.1" fill="none" id="patch_83"/><path d="M25.3 171h357.1" fill="none" id="patch_84"/><g transform="matrix(.12 0 0 -.12 160.9 165)" fill="#262626" id="text_11"><use xlink:href="#LiberationSans-57"/><use x="94.4" xlink:href="#LiberationSans-5b"/><use x="122.2" xlink:href="#LiberationSans-32"/><use x="177.8" xlink:href="#LiberationSans-5d"/><use x="205.6" xlink:href="#LiberationSans-20"/><use x="233.3" xlink:href="#LiberationSans-64"/><use x="289" xlink:href="#LiberationSans-69"/><use x="311.2" xlink:href="#LiberationSans-73"/><use x="361.2" xlink:href="#LiberationSans-74"/><use x="389" xlink:href="#LiberationSans-72"/><use x="422.3" xlink:href="#LiberationSans-69"/><use x="444.5" xlink:href="#LiberationSans-62"/><use x="500.1" xlink:href="#LiberationSans-75"/><use x="555.7" xlink:href="#LiberationSans-74"/><use x="583.5" xlink:href="#LiberationSans-69"/><use x="605.7" xlink:href="#LiberationSans-6f"/><use x="661.3" xlink:href="#LiberationSans-6e"/></g></g><g id="axes_4"><path d="M25.3 307.7h357.1v-62.2h-357z" fill="#eaeaf2" id="patch_85"/><g id="matplotlib.axis_7"><g id="xtick_22"><path clip-path="url(#p3c7e9f4dbe)" d="M59.1 307.7v-62.2" fill="none" stroke="#fff" stroke-linecap="round" id="line2d_71"/></g><g id="xtick_23"><path clip-path="url(#p3c7e9f4dbe)" d="M112.3 307.7v-62.2" fill="none" stroke="#fff" stroke-linecap="round" id="line2d_73"/></g><g id="xtick_24"><path clip-path="url(#p3c7e9f4dbe)" d="M165.4 307.7v-62.2" fill="none" stroke="#fff" stroke-linecap="round" id="line2d_75"/></g><g id="xtick_25"><path clip-path="url(#p3c7e9f4dbe)" d="M218.6 307.7v-62.2" fill="none" stroke="#fff" stroke-linecap="round" id="line2d_77"/></g><g id="xtick_26"><path clip-path="url(#p3c7e9f4dbe)" d="M271.7 307.7v-62.2" fill="none" stroke="#fff" stroke-linecap="round" id="line2d_79"/></g><g id="xtick_27"><path clip-path="url(#p3c7e9f4dbe)" d="M324.9 307.7v-62.2" fill="none" stroke="#fff" stroke-linecap="round" id="line2d_81"/></g><g id="xtick_28"><path clip-path="url(#p3c7e9f4dbe)" d="M378 307.7v-62.2" fill="none" stroke="#fff" stroke-linecap="round" id="line2d_83"/></g></g><g id="matplotlib.axis_8"><g id="ytick_9"><path clip-path="url(#p3c7e9f4dbe)" d="M25.3 307.7h357.1" fill="none" stroke="#fff" stroke-linecap="round" id="line2d_85"/><use xlink:href="#LiberationSans-30" transform="matrix(.1 0 0 -.1 12.8 311.3)" fill="#262626" id="text_12"/></g><g id="ytick_10"><path clip-path="url(#p3c7e9f4dbe)" d="M25.3 277h357.1" fill="none" stroke="#fff" stroke-linecap="round" id="line2d_87"/><use xlink:href="#LiberationSans-32" transform="matrix(.1 0 0 -.1 12.8 280.6)" fill="#262626" id="text_13"/></g><g id="ytick_11"><path clip-path="url(#p3c7e9f4dbe)" d="M25.3 246.4h357.1" fill="none" stroke="#fff" stroke-linecap="round" id="line2d_89"/><use xlink:href="#LiberationSans-34" transform="matrix(.1 0 0 -.1 12.8 250)" fill="#262626" id="text_14"/></g></g><path clip-path="url(#p3c7e9f4dbe)" d="M65.4 307.7h3.1v-.5h-3.1z" fill="#4c72b0" opacity=".4" id="patch_86"/><path clip-path="url(#p3c7e9f4dbe)" d="M68.5 307.7h3.1v-.5h-3z" fill="#4c72b0" opacity=".4" id="patch_87"/><path clip-path="url(#p3c7e9f4dbe)" d="M71.6 307.7h3.2V305h-3.2z" fill="#4c72b0" opacity=".4" id="patch_88"/><path clip-path="url(#p3c7e9f4dbe)" d="M74.8 307.7h3.1V305h-3.1z" fill="#4c72b0" opacity=".4" id="patch_89"/><path clip-path="url(#p3c7e9f4dbe)" d="M78 307.7h3v-6.3h-3z" fill="#4c72b0" opacity=".4" id="patch_90"/><path clip-path="url(#p3c7e9f4dbe)" d="M81 307.7h3.2v-13h-3.1z" fill="#4c72b0" opacity=".4" id="patch_91"/><path clip-path="url(#p3c7e9f4dbe)" d="M84.2 307.7h3.1v-16.1h-3.1z" fill="#4c72b0" opacity=".4" id="patch_92"/><path clip-path="url(#p3c7e9f4dbe)" d="M87.3 307.7h3.2V293h-3.2z" fill="#4c72b0" opacity=".4" id="patch_93"/><path clip-path="url(#p3c7e9f4dbe)" d="M90.5 307.7h3.1v-41h-3.1z" fill="#4c72b0" opacity=".4" id="patch_94"/><path clip-path="url(#p3c7e9f4dbe)" d="M93.6 307.7h3.2v-59.2h-3.2z" fill="#4c72b0" opacity=".4" id="patch_95"/><path clip-path="url(#p3c7e9f4dbe)" d="M96.8 307.7h3.1V264h-3.1z" fill="#4c72b0" opacity=".4" id="patch_96"/><path clip-path="url(#p3c7e9f4dbe)" d="M99.9 307.7h3.1v-52.4H100z" fill="#4c72b0" opacity=".4" id="patch_97"/><path clip-path="url(#p3c7e9f4dbe)" d="M103 307.7h3.2v-56H103z" fill="#4c72b0" opacity=".4" id="patch_98"/><path clip-path="url(#p3c7e9f4dbe)" d="M106.2 307.7h3.1v-48.8h-3.1z" fill="#4c72b0" opacity=".4" id="patch_99"/><path clip-path="url(#p3c7e9f4dbe)" d="M109.3 307.7h3.2v-44.1h-3.2z" fill="#4c72b0" opacity=".4" id="patch_100"/><path clip-path="url(#p3c7e9f4dbe)" d="M112.5 307.7h3.1v-35.3h-3.1z" fill="#4c72b0" opacity=".4" id="patch_101"/><path clip-path="url(#p3c7e9f4dbe)" d="M115.6 307.7h3.1v-28h-3.1z" fill="#4c72b0" opacity=".4" id="patch_102"/><path clip-path="url(#p3c7e9f4dbe)" d="M118.7 307.7h3.2v-27h-3.2z" fill="#4c72b0" opacity=".4" id="patch_103"/><path clip-path="url(#p3c7e9f4dbe)" d="M121.9 307.7h3.1v-9.4H122z" fill="#4c72b0" opacity=".4" id="patch_104"/><path clip-path="url(#p3c7e9f4dbe)" d="M125 307.7h3.2v-7.8H125z" fill="#4c72b0" opacity=".4" id="patch_105"/><path clip-path="url(#p3c7e9f4dbe)" d="M128.2 307.7h3v-4.2h-3z" fill="#4c72b0" opacity=".4" id="patch_106"/><path clip-path="url(#p3c7e9f4dbe)" d="M131.3 307.7h3.1v-4.2h-3.1z" fill="#4c72b0" opacity=".4" id="patch_107"/><path clip-path="url(#p3c7e9f4dbe)" d="M134.4 307.7h3.2v-1h-3.2z" fill="#4c72b0" opacity=".4" id="patch_108"/><path clip-path="url(#p3c7e9f4dbe)" d="M137.6 307.7h3.1-3.1z" fill="#4c72b0" opacity=".4" id="patch_109"/><path clip-path="url(#p3c7e9f4dbe)" d="M140.7 307.7h3.2v-.5h-3.2z" fill="#4c72b0" opacity=".4" id="patch_110"/><path clip-path="url(#p3c7e9f4dbe)" d="M143.9 307.7h3v-.5h-3z" fill="#4c72b0" opacity=".4" id="patch_111"/><path clip-path="url(#p3c7e9f4dbe)" d="M56 307.7l5.6-.1 5.5-.4 2.4-.4 2.3-.7 1.6-.7 1.6-.8 1.6-1.3 1.6-1.6 2.3-3 2.4-2.9 2.4-3 .7-1.2.8-1.5.8-2 .8-2.3 1.6-6 3.2-13.6.7-2.9.8-2.3.8-1.8.8-1.2.8-.7.8-.4 3.1-.8 1.6-.5.8-.1.8.1.8.4.8.6.8.8 1.6 2.2 1.5 2.7 2.4 4.7 6.3 13.6 1.6 4.2 3.2 8.8 1.5 3.4.8 1.3.8 1.1 1.6 1.7 1.6 1.2 2.3 1.4 3.2 1.7 2.4 1 1.5.5 1.6.3 2.4.1 13.4.4h0" fill="none" stroke="#4c72b0" stroke-linecap="round" stroke-width="1.8" id="line2d_91"/><path clip-path="url(#p3c7e9f4dbe)" d="M81.3 307.7v-62.2" fill="none" stroke="#4c72b0" stroke-dasharray="6.475,2.8" stroke-width="1.8" id="line2d_92"/><path clip-path="url(#p3c7e9f4dbe)" d="M127.4 307.7v-62.2" fill="none" stroke="#4c72b0" stroke-dasharray="6.475,2.8" stroke-width="1.8" id="line2d_93"/><path clip-path="url(#p3c7e9f4dbe)" d="M81.7 307.7v-62.2" fill="none" stroke="#4c72b0" stroke-linecap="round" stroke-width="1.8" id="line2d_94"/><path d="M25.3 307.7v-62.2" fill="none" id="patch_112"/><path d="M382.4 307.7v-62.2" fill="none" id="patch_113"/><path d="M25.3 307.7h357.1" fill="none" id="patch_114"/><path d="M25.3 245.5h357.1" fill="none" id="patch_115"/><g id="text_15"><defs><path d="M51.2 19q0-4.7-1.5-8.5-1.6-3.7-4.5-6.2-3-2.6-7.3-4Q33.5-1 27.9-1 21.5-1 17 .6T10 4.8q-2.8 2.6-4.2 6-1.5 3.3-1.9 6.9l9 .8q.5-2.7 1.5-5 1-2.2 2.9-3.8Q19 8 21.6 7.2q2.7-.9 6.3-.9 6.6 0 10.4 3.3 3.8 3.2 3.8 9.7 0 3.8-1.7 6.1T36.2 29q-2.5 1.3-5.5 1.8-3 .4-5.4.4h-5v7.6h4.8q2.5 0 5.2.5t4.9 1.9q2.2 1.3 3.6 3.6 1.5 2.3 1.5 5.9 0 5.5-3.3 8.7-3.2 3.2-9.6 3.2-5.8 0-9.4-3-3.6-3-4.2-8.4L5 52q.5 4.6 2.5 8 2 3.3 5 5.5t6.8 3.3q3.8 1.1 8.2 1.1 5.8 0 9.9-1.4 4.1-1.5 6.8-4 2.6-2.4 3.9-5.7 1.2-3.3 1.2-7 0-3.1-.8-5.8-.8-2.6-2.6-4.7-1.8-2-4.5-3.6-2.7-1.5-6.5-2.3v-.2q4.2-.4 7.2-1.9 3.1-1.4 5.1-3.6 2-2.1 3-4.9 1-2.7 1-5.7z" id="LiberationSans-33"/></defs><g transform="matrix(.12 0 0 -.12 160.9 239.5)" fill="#262626"><use xlink:href="#LiberationSans-57"/><use x="94.4" xlink:href="#LiberationSans-5b"/><use x="122.2" xlink:href="#LiberationSans-33"/><use x="177.8" xlink:href="#LiberationSans-5d"/><use x="205.6" xlink:href="#LiberationSans-20"/><use x="233.3" xlink:href="#LiberationSans-64"/><use x="289" xlink:href="#LiberationSans-69"/><use x="311.2" xlink:href="#LiberationSans-73"/><use x="361.2" xlink:href="#LiberationSans-74"/><use x="389" xlink:href="#LiberationSans-72"/><use x="422.3" xlink:href="#LiberationSans-69"/><use x="444.5" xlink:href="#LiberationSans-62"/><use x="500.1" xlink:href="#LiberationSans-75"/><use x="555.7" xlink:href="#LiberationSans-74"/><use x="583.5" xlink:href="#LiberationSans-69"/><use x="605.7" xlink:href="#LiberationSans-6f"/><use x="661.3" xlink:href="#LiberationSans-6e"/></g></g></g><g id="axes_5"><path d="M25.3 382.2h357.1v-62.1h-357z" fill="#eaeaf2" id="patch_116"/><g id="matplotlib.axis_9"><g id="xtick_29"><path clip-path="url(#p7a270dfc44)" d="M59.1 382.2v-62.1" fill="none" stroke="#fff" stroke-linecap="round" id="line2d_95"/></g><g id="xtick_30"><path clip-path="url(#p7a270dfc44)" d="M112.3 382.2v-62.1" fill="none" stroke="#fff" stroke-linecap="round" id="line2d_97"/></g><g id="xtick_31"><path clip-path="url(#p7a270dfc44)" d="M165.4 382.2v-62.1" fill="none" stroke="#fff" stroke-linecap="round" id="line2d_99"/></g><g id="xtick_32"><path clip-path="url(#p7a270dfc44)" d="M218.6 382.2v-62.1" fill="none" stroke="#fff" stroke-linecap="round" id="line2d_101"/></g><g id="xtick_33"><path clip-path="url(#p7a270dfc44)" d="M271.7 382.2v-62.1" fill="none" stroke="#fff" stroke-linecap="round" id="line2d_103"/></g><g id="xtick_34"><path clip-path="url(#p7a270dfc44)" d="M324.9 382.2v-62.1" fill="none" stroke="#fff" stroke-linecap="round" id="line2d_105"/></g><g id="xtick_35"><path clip-path="url(#p7a270dfc44)" d="M378 382.2v-62.1" fill="none" stroke="#fff" stroke-linecap="round" id="line2d_107"/></g></g><g id="matplotlib.axis_10"><g id="ytick_12"><path clip-path="url(#p7a270dfc44)" d="M25.3 382.2h357.1" fill="none" stroke="#fff" stroke-linecap="round" id="line2d_109"/><use xlink:href="#LiberationSans-30" transform="matrix(.1 0 0 -.1 12.8 385.8)" fill="#262626" id="text_16"/></g><g id="ytick_13"><path clip-path="url(#p7a270dfc44)" d="M25.3 352.3h357.1" fill="none" stroke="#fff" stroke-linecap="round" id="line2d_111"/><g transform="matrix(.1 0 0 -.1 7.2 356)" fill="#262626" id="text_17"><use xlink:href="#LiberationSans-31"/><use x="55.6" xlink:href="#LiberationSans-30"/></g></g><g id="ytick_14"><path clip-path="url(#p7a270dfc44)" d="M25.3 322.4h357.1" fill="none" stroke="#fff" stroke-linecap="round" id="line2d_113"/><g transform="matrix(.1 0 0 -.1 7.2 326)" fill="#262626" id="text_18"><use xlink:href="#LiberationSans-32"/><use x="55.6" xlink:href="#LiberationSans-30"/></g></g></g><path clip-path="url(#p7a270dfc44)" d="M43.4 382.2h.6v-.5h-.6z" fill="#4c72b0" opacity=".4" id="patch_117"/><path clip-path="url(#p7a270dfc44)" d="M44 382.2h.6-.6z" fill="#4c72b0" opacity=".4" id="patch_118"/><path clip-path="url(#p7a270dfc44)" d="M44.6 382.2h.6v-1.6h-.6z" fill="#4c72b0" opacity=".4" id="patch_119"/><path clip-path="url(#p7a270dfc44)" d="M45.2 382.2h.6v-1.6h-.6z" fill="#4c72b0" opacity=".4" id="patch_120"/><path clip-path="url(#p7a270dfc44)" d="M45.8 382.2h.6v-3.7h-.6z" fill="#4c72b0" opacity=".4" id="patch_121"/><path clip-path="url(#p7a270dfc44)" d="M46.4 382.2h.6v-6.8h-.6z" fill="#4c72b0" opacity=".4" id="patch_122"/><path clip-path="url(#p7a270dfc44)" d="M47 382.2h.6v-5.8H47z" fill="#4c72b0" opacity=".4" id="patch_123"/><path clip-path="url(#p7a270dfc44)" d="M47.6 382.2h.6v-16.4h-.6z" fill="#4c72b0" opacity=".4" id="patch_124"/><path clip-path="url(#p7a270dfc44)" d="M48.2 382.2h.6v-14.8h-.6z" fill="#4c72b0" opacity=".4" id="patch_125"/><path clip-path="url(#p7a270dfc44)" d="M48.8 382.2h.6v-22.7h-.6z" fill="#4c72b0" opacity=".4" id="patch_126"/><path clip-path="url(#p7a270dfc44)" d="M49.4 382.2h.6v-31.1h-.6z" fill="#4c72b0" opacity=".4" id="patch_127"/><path clip-path="url(#p7a270dfc44)" d="M50 382.2h.6v-47H50z" fill="#4c72b0" opacity=".4" id="patch_128"/><path clip-path="url(#p7a270dfc44)" d="M50.6 382.2h.6V331h-.6z" fill="#4c72b0" opacity=".4" id="patch_129"/><path clip-path="url(#p7a270dfc44)" d="M51.2 382.2h.6v-49.1h-.6z" fill="#4c72b0" opacity=".4" id="patch_130"/><path clip-path="url(#p7a270dfc44)" d="M51.8 382.2h.6v-57.6h-.6z" fill="#4c72b0" opacity=".4" id="patch_131"/><path clip-path="url(#p7a270dfc44)" d="M52.4 382.2h.6V340h-.6z" fill="#4c72b0" opacity=".4" id="patch_132"/><path clip-path="url(#p7a270dfc44)" d="M53 382.2h.6v-59.1H53z" fill="#4c72b0" opacity=".4" id="patch_133"/><path clip-path="url(#p7a270dfc44)" d="M53.6 382.2h.6v-35.9h-.6z" fill="#4c72b0" opacity=".4" id="patch_134"/><path clip-path="url(#p7a270dfc44)" d="M54.2 382.2h.6v-28.5h-.6z" fill="#4c72b0" opacity=".4" id="patch_135"/><path clip-path="url(#p7a270dfc44)" d="M54.8 382.2h.6v-17.4h-.6z" fill="#4c72b0" opacity=".4" id="patch_136"/><path clip-path="url(#p7a270dfc44)" d="M55.4 382.2h.6v-12.1h-.6z" fill="#4c72b0" opacity=".4" id="patch_137"/><path clip-path="url(#p7a270dfc44)" d="M56 382.2h.6v-10H56z" fill="#4c72b0" opacity=".4" id="patch_138"/><path clip-path="url(#p7a270dfc44)" d="M56.6 382.2h.6V378h-.6z" fill="#4c72b0" opacity=".4" id="patch_139"/><path clip-path="url(#p7a270dfc44)" d="M57.2 382.2h.6v-3.1h-.6z" fill="#4c72b0" opacity=".4" id="patch_140"/><path clip-path="url(#p7a270dfc44)" d="M57.8 382.2h.6v-3.1h-.6z" fill="#4c72b0" opacity=".4" id="patch_141"/><path clip-path="url(#p7a270dfc44)" d="M58.4 382.2h.6v-1h-.6z" fill="#4c72b0" opacity=".4" id="patch_142"/><path clip-path="url(#p7a270dfc44)" d="M59 382.2h.6v-1H59z" fill="#4c72b0" opacity=".4" id="patch_143"/><path clip-path="url(#p7a270dfc44)" d="M41.6 382.2h1l1.8-.5.4-.6.5-.8.6-1.6.8-3 .6-3.2 1.3-8 .5-5.4.7-13 .7-9.8.4-4.4.3-1.5.4-.6h.1l.3.7 1.3 5 .3 3.2.6 10.2 1 14.4.6 6.1 1 6 .4 2.3.4 1.2 1.8 2.6.7.5.7.2h.6" fill="none" stroke="#4c72b0" stroke-linecap="round" stroke-width="1.8" id="line2d_115"/><path clip-path="url(#p7a270dfc44)" d="M47 382.2v-62.1" fill="none" stroke="#4c72b0" stroke-dasharray="6.475,2.8" stroke-width="1.8" id="line2d_116"/><path clip-path="url(#p7a270dfc44)" d="M56.5 382.2v-62.1" fill="none" stroke="#4c72b0" stroke-dasharray="6.475,2.8" stroke-width="1.8" id="line2d_117"/><path clip-path="url(#p7a270dfc44)" d="M45 382.2v-62.1" fill="none" stroke="#4c72b0" stroke-linecap="round" stroke-width="1.8" id="line2d_118"/><path d="M25.3 382.2v-62.1" fill="none" id="patch_144"/><path d="M382.4 382.2v-62.1" fill="none" id="patch_145"/><path d="M25.3 382.2h357.1" fill="none" id="patch_146"/><path d="M25.3 320.1h357.1" fill="none" id="patch_147"/><g id="text_19"><defs><path d="M61.4 19.4q0-5.2-2-9-2-3.6-5.5-6-3.5-2.2-8.1-3.3Q41.2 0 36.1 0H8.2v68.8h25q5.7 0 10.2-1 4.5-1 7.6-3 3.2-2 4.8-5.2 1.6-3.1 1.6-7.5 0-2.9-.8-5.4-.8-2.6-2.4-4.6-1.7-2.1-4.1-3.6-2.5-1.5-5.8-2.2 4.2-.5 7.4-2 3.2-1.3 5.3-3.5 2.2-2.2 3.3-5.1 1.1-3 1.1-6.3zM48 51q0 5.5-3.8 8-3.8 2.3-11 2.3H17.5V39.5h15.7q4.1 0 7 .8 2.8.9 4.5 2.3 1.8 1.5 2.6 3.6.7 2.1.7 4.8zM52 20q0 3.3-1.2 5.6t-3.4 3.7Q45 31 42 31.6q-3.2.7-7 .7H17.4V7.5h18.1q3.6 0 6.6.5 3 .6 5.2 2.1t3.4 4q1.2 2.4 1.2 6z" id="LiberationSans-42"/><path d="M20.2-1q-8 0-12 4.2t-4 11.6q0 5.2 2 8.5 2 3.4 5.2 5.3t7.3 2.6q4.1.7 8.3.8l12 .2v3q0 3.2-.8 5.5-.7 2.3-2 3.7-1.5 1.4-3.6 2-2.1.7-5 .7-2.6 0-4.6-.4-2-.3-3.6-1.3-1.5-1-2.4-2.6-1-1.6-1.2-4l-9.2.7q.5 3.2 1.8 5.8 1.4 2.6 4 4.5 2.4 1.9 6.2 3 3.8 1 9.2 1 10 0 15-4.6 5-4.5 5-13.2V13.3q0-4 1-6 1-1.9 4-1.9l1.4.1 1.4.3V.3Q54-.1 52.3-.3q-1.6-.2-3.5-.2-2.5 0-4.2.7-1.8.6-3 2-1 1.3-1.7 3.3-.5 2-.7 4.6h-.3q-1.4-2.5-3-4.6-1.8-2-4-3.5Q29.6.6 26.8-.2 23.9-1 20.2-1zm2 6.6q4.2 0 7.4 1.5 3.1 1.6 5.2 4 2 2.4 3 5.2 1.1 2.8 1.1 5.4v4.4l-9.6-.2q-3.2 0-6.1-.5-3-.4-5.1-1.6-2.2-1.2-3.5-3.4-1.3-2.2-1.3-5.8 0-4.3 2.3-6.6 2.3-2.4 6.6-2.4z" id="LiberationSans-61"/></defs><g transform="matrix(.12 0 0 -.12 161.5 314.1)" fill="#262626"><use xlink:href="#LiberationSans-42"/><use x="66.7" xlink:href="#LiberationSans-69"/><use x="88.9" xlink:href="#LiberationSans-61"/><use x="144.5" xlink:href="#LiberationSans-73"/><use x="194.5" xlink:href="#LiberationSans-20"/><use x="222.3" xlink:href="#LiberationSans-64"/><use x="277.9" xlink:href="#LiberationSans-69"/><use x="300.1" xlink:href="#LiberationSans-73"/><use x="350.1" xlink:href="#LiberationSans-74"/><use x="377.9" xlink:href="#LiberationSans-72"/><use x="411.2" xlink:href="#LiberationSans-69"/><use x="433.4" xlink:href="#LiberationSans-62"/><use x="489.1" xlink:href="#LiberationSans-75"/><use x="544.7" xlink:href="#LiberationSans-74"/><use x="572.5" xlink:href="#LiberationSans-69"/><use x="594.7" xlink:href="#LiberationSans-6f"/><use x="650.3" xlink:href="#LiberationSans-6e"/></g></g></g><g id="axes_6"><path d="M25.3 456.8h357.1v-62.1h-357z" fill="#eaeaf2" id="patch_148"/><g id="matplotlib.axis_11"><g id="xtick_36"><path clip-path="url(#peb962dff88)" d="M59.1 456.8v-62.1" fill="none" stroke="#fff" stroke-linecap="round" id="line2d_119"/><g id="text_20"><defs><path d="M5 29.7v7.1h48.5v-7.1z" id="LiberationSans-2212"/><path d="M9.1 0v10.7h9.6V0z" id="LiberationSans-2e"/></defs><g transform="matrix(.1 0 0 -.1 49.3 471)" fill="#262626"><use xlink:href="#LiberationSans-2212"/><use x="58.4" xlink:href="#LiberationSans-31"/><use x="114" xlink:href="#LiberationSans-2e"/><use x="141.8" xlink:href="#LiberationSans-30"/></g></g></g><g id="xtick_37"><path clip-path="url(#peb962dff88)" d="M112.3 456.8v-62.1" fill="none" stroke="#fff" stroke-linecap="round" id="line2d_121"/><g id="text_21"><defs><path d="M51.4 22.4q0-5.2-1.5-9.5-1.6-4.3-4.7-7.4-3-3-7.6-4.8Q33-1 27-1 21.6-1 17.5.3q-4 1.3-6.8 3.5Q8 6 6.3 9 4.7 12 4 15.4l8.9 1q.5-2 1.5-3.8 1-1.8 2.7-3.3Q18.7 8 21.2 7q2.5-.8 6-.8 3.4 0 6.2 1 2.8 1.1 4.8 3.1 2 2.1 3 5 1 3 1 7 0 3-1 5.7t-2.9 4.6q-1.9 2-4.6 3-2.8 1.1-6.3 1.1-2.2 0-4-.4-2-.4-3.5-1-1.6-.7-2.9-1.6l-2.4-2H6l2.3 37.1h39.1v-7.5h-31L15 39.5q2.3 1.8 5.8 3 3.6 1.4 8.4 1.4 5.1 0 9.2-1.6 4.1-1.5 7-4.4 2.9-2.8 4.5-6.8 1.5-4 1.5-8.7z" id="LiberationSans-35"/></defs><g transform="matrix(.1 0 0 -.1 102.4 471)" fill="#262626"><use xlink:href="#LiberationSans-2212"/><use x="58.4" xlink:href="#LiberationSans-30"/><use x="114" xlink:href="#LiberationSans-2e"/><use x="141.8" xlink:href="#LiberationSans-35"/></g></g></g><g id="xtick_38"><path clip-path="url(#peb962dff88)" d="M165.4 456.8v-62.1" fill="none" stroke="#fff" stroke-linecap="round" id="line2d_123"/><g transform="matrix(.1 0 0 -.1 158.5 471)" fill="#262626" id="text_22"><use xlink:href="#LiberationSans-30"/><use x="55.6" xlink:href="#LiberationSans-2e"/><use x="83.4" xlink:href="#LiberationSans-30"/></g></g><g id="xtick_39"><path clip-path="url(#peb962dff88)" d="M218.6 456.8v-62.1" fill="none" stroke="#fff" stroke-linecap="round" id="line2d_125"/><g transform="matrix(.1 0 0 -.1 211.6 471)" fill="#262626" id="text_23"><use xlink:href="#LiberationSans-30"/><use x="55.6" xlink:href="#LiberationSans-2e"/><use x="83.4" xlink:href="#LiberationSans-35"/></g></g><g id="xtick_40"><path clip-path="url(#peb962dff88)" d="M271.7 456.8v-62.1" fill="none" stroke="#fff" stroke-linecap="round" id="line2d_127"/><g transform="matrix(.1 0 0 -.1 264.8 471)" fill="#262626" id="text_24"><use xlink:href="#LiberationSans-31"/><use x="55.6" xlink:href="#LiberationSans-2e"/><use x="83.4" xlink:href="#LiberationSans-30"/></g></g><g id="xtick_41"><path clip-path="url(#peb962dff88)" d="M324.9 456.8v-62.1" fill="none" stroke="#fff" stroke-linecap="round" id="line2d_129"/><g transform="matrix(.1 0 0 -.1 318 471)" fill="#262626" id="text_25"><use xlink:href="#LiberationSans-31"/><use x="55.6" xlink:href="#LiberationSans-2e"/><use x="83.4" xlink:href="#LiberationSans-35"/></g></g><g id="xtick_42"><path clip-path="url(#peb962dff88)" d="M378 456.8v-62.1" fill="none" stroke="#fff" stroke-linecap="round" id="line2d_131"/><g transform="matrix(.1 0 0 -.1 371 471)" fill="#262626" id="text_26"><use xlink:href="#LiberationSans-32"/><use x="55.6" xlink:href="#LiberationSans-2e"/><use x="83.4" xlink:href="#LiberationSans-30"/></g></g></g><g id="matplotlib.axis_12"><g id="ytick_15"><path clip-path="url(#peb962dff88)" d="M25.3 456.8h357.1" fill="none" stroke="#fff" stroke-linecap="round" id="line2d_133"/><use xlink:href="#LiberationSans-30" transform="matrix(.1 0 0 -.1 12.8 460.4)" fill="#262626" id="text_27"/></g><g id="ytick_16"><path clip-path="url(#peb962dff88)" d="M25.3 426.6h357.1" fill="none" stroke="#fff" stroke-linecap="round" id="line2d_135"/><use xlink:href="#LiberationSans-35" transform="matrix(.1 0 0 -.1 12.8 430.2)" fill="#262626" id="text_28"/></g><g id="ytick_17"><path clip-path="url(#peb962dff88)" d="M25.3 396.4h357.1" fill="none" stroke="#fff" stroke-linecap="round" id="line2d_137"/><g transform="matrix(.1 0 0 -.1 7.2 400)" fill="#262626" id="text_29"><use xlink:href="#LiberationSans-31"/><use x="55.6" xlink:href="#LiberationSans-30"/></g></g></g><path clip-path="url(#peb962dff88)" d="M264.8 456.8h1.2v-2.2h-1.2z" fill="#4c72b0" opacity=".4" id="patch_149"/><path clip-path="url(#peb962dff88)" d="M266 456.8h1.1v-1.1H266z" fill="#4c72b0" opacity=".4" id="patch_150"/><path clip-path="url(#peb962dff88)" d="M267.1 456.8h1.2V454h-1.2z" fill="#4c72b0" opacity=".4" id="patch_151"/><path clip-path="url(#peb962dff88)" d="M268.3 456.8h1.2V455h-1.2z" fill="#4c72b0" opacity=".4" id="patch_152"/><path clip-path="url(#peb962dff88)" d="M269.5 456.8h1.1v-5.6h-1.1z" fill="#4c72b0" opacity=".4" id="patch_153"/><path clip-path="url(#peb962dff88)" d="M270.6 456.8h1.2v-15h-1.2z" fill="#4c72b0" opacity=".4" id="patch_154"/><path clip-path="url(#peb962dff88)" d="M271.8 456.8h1.1v-24.4h-1.1z" fill="#4c72b0" opacity=".4" id="patch_155"/><path clip-path="url(#peb962dff88)" d="M273 456.8h1.1v-31h-1.2z" fill="#4c72b0" opacity=".4" id="patch_156"/><path clip-path="url(#peb962dff88)" d="M274.1 456.8h1.2v-43.2H274z" fill="#4c72b0" opacity=".4" id="patch_157"/><path clip-path="url(#peb962dff88)" d="M275.3 456.8h1.1v-52h-1.1z" fill="#4c72b0" opacity=".4" id="patch_158"/><path clip-path="url(#peb962dff88)" d="M276.4 456.8h1.2v-49.2h-1.2z" fill="#4c72b0" opacity=".4" id="patch_159"/><path clip-path="url(#peb962dff88)" d="M277.6 456.8h1.1v-59.2h-1.1z" fill="#4c72b0" opacity=".4" id="patch_160"/><path clip-path="url(#peb962dff88)" d="M278.7 456.8h1.2v-54.2h-1.2z" fill="#4c72b0" opacity=".4" id="patch_161"/><path clip-path="url(#peb962dff88)" d="M279.9 456.8h1.2v-57h-1.2z" fill="#4c72b0" opacity=".4" id="patch_162"/><path clip-path="url(#peb962dff88)" d="M281 456.8h1.2v-41h-1.1z" fill="#4c72b0" opacity=".4" id="patch_163"/><path clip-path="url(#peb962dff88)" d="M282.2 456.8h1.2v-40.4h-1.2z" fill="#4c72b0" opacity=".4" id="patch_164"/><path clip-path="url(#peb962dff88)" d="M283.4 456.8h1.1v-32.6h-1.1z" fill="#4c72b0" opacity=".4" id="patch_165"/><path clip-path="url(#peb962dff88)" d="M284.5 456.8h1.2v-17.2h-1.2z" fill="#4c72b0" opacity=".4" id="patch_166"/><path clip-path="url(#peb962dff88)" d="M285.7 456.8h1.2v-8.3h-1.2z" fill="#4c72b0" opacity=".4" id="patch_167"/><path clip-path="url(#peb962dff88)" d="M286.9 456.8h1.1v-10H287z" fill="#4c72b0" opacity=".4" id="patch_168"/><path clip-path="url(#peb962dff88)" d="M288 456.8h1.2v-2.2H288z" fill="#4c72b0" opacity=".4" id="patch_169"/><path clip-path="url(#peb962dff88)" d="M289.2 456.8h1.1v-2.2h-1.1z" fill="#4c72b0" opacity=".4" id="patch_170"/><path clip-path="url(#peb962dff88)" d="M290.3 456.8h1.2-1.2z" fill="#4c72b0" opacity=".4" id="patch_171"/><path clip-path="url(#peb962dff88)" d="M291.5 456.8h1.2v-1.1h-1.2z" fill="#4c72b0" opacity=".4" id="patch_172"/><path clip-path="url(#peb962dff88)" d="M261.4 456.8l1.4-.1.8-.3 2.4-1.1 1.1-.3.9-.5.5-.6.5-1 .6-1.8.5-2.6.9-5.2 1.9-14 2.2-16.6.8-4.4.5-1.9.8-2 1.1-2.2.6-.6h.3l.2.1.3.4.5 1.3.6 2.3.8 5 2.5 17.3 1.9 15.4.5 2.9.6 2 1 2.8 1.4 3 .8 1.4.6.4.5.3 2.5.4 1.4.2h.8" fill="none" stroke="#4c72b0" stroke-linecap="round" stroke-width="1.8" id="line2d_139"/><path clip-path="url(#peb962dff88)" d="M270.8 456.8v-62.1" fill="none" stroke="#4c72b0" stroke-dasharray="6.475,2.8" stroke-width="1.8" id="line2d_140"/><path clip-path="url(#peb962dff88)" d="M287.2 456.8v-62.1" fill="none" stroke="#4c72b0" stroke-dasharray="6.475,2.8" stroke-width="1.8" id="line2d_141"/><path clip-path="url(#peb962dff88)" d="M271.7 456.8v-62.1" fill="none" stroke="#4c72b0" stroke-linecap="round" stroke-width="1.8" id="line2d_142"/><path d="M25.3 456.8v-62.1" fill="none" id="patch_173"/><path d="M382.4 456.8v-62.1" fill="none" id="patch_174"/><path d="M25.3 456.8h357.1" fill="none" id="patch_175"/><path d="M25.3 394.7h357.1" fill="none" id="patch_176"/><g id="text_30"><defs><path d="M52.8 0L16 58.6l.3-4.7.1-4.3.1-3.9V0H8.2v68.8H19l37.3-59-.3 4.8-.2 4.5-.1 4.6v45.1H64V0z" id="LiberationSans-4e"/><path d="M13.5 24.6q0-4.2.8-7.7.9-3.5 2.7-6 1.8-2.5 4.5-3.9 2.8-1.4 6.7-1.4 5.7 0 9.2 2.3 3.4 2.3 4.6 5.8l7.8-2.2q-.9-2.2-2.4-4.4-1.4-2.2-4-4-2.4-1.8-6.2-3-3.7-1-9-1Q16.5-1 10.4 6q-6.2 7-6.2 20.8 0 7.4 1.9 12.5 1.9 5.2 5 8.4 3.3 3.2 7.6 4.7 4.3 1.4 9.2 1.4 6.6 0 11-2.1 4.6-2.2 7.3-6t3.8-8.9q1.2-5.1 1.2-11v-1.2zM42 31.3q-.7 8.4-4.3 12.2-3.5 3.8-10 3.8-2.3 0-4.7-.7-2.4-.7-4.4-2.5-2-1.8-3.5-5-1.4-3-1.6-7.8z" id="LiberationSans-65"/></defs><g transform="matrix(.12 0 0 -.12 148.2 388.7)" fill="#262626"><use xlink:href="#LiberationSans-4e"/><use x="72.2" xlink:href="#LiberationSans-6f"/><use x="127.8" xlink:href="#LiberationSans-69"/><use x="150" xlink:href="#LiberationSans-73"/><use x="200" xlink:href="#LiberationSans-65"/><use x="255.7" xlink:href="#LiberationSans-20"/><use x="283.4" xlink:href="#LiberationSans-73"/><use x="333.4" xlink:href="#LiberationSans-74"/><use x="361.2" xlink:href="#LiberationSans-64"/><use x="416.8" xlink:href="#LiberationSans-20"/><use x="444.6" xlink:href="#LiberationSans-64"/><use x="500.2" xlink:href="#LiberationSans-69"/><use x="522.5" xlink:href="#LiberationSans-73"/><use x="572.5" xlink:href="#LiberationSans-74"/><use x="600.2" xlink:href="#LiberationSans-72"/><use x="633.5" xlink:href="#LiberationSans-69"/><use x="655.8" xlink:href="#LiberationSans-62"/><use x="711.4" xlink:href="#LiberationSans-75"/><use x="767" xlink:href="#LiberationSans-74"/><use x="794.8" xlink:href="#LiberationSans-69"/><use x="817" xlink:href="#LiberationSans-6f"/><use x="872.6" xlink:href="#LiberationSans-6e"/></g></g></g></g><defs><clipPath id="p648c6bbbf8"><path d="M25.3 21.9h357.1V84H25.3z"/></clipPath><clipPath id="pfea1d4e455"><path d="M25.3 96.4h357.1v62.1H25.3z"/></clipPath><clipPath id="pf80012e85f"><path d="M25.3 171h357.1v62.1H25.3z"/></clipPath><clipPath id="p3c7e9f4dbe"><path d="M25.3 245.5h357.1v62.1H25.3z"/></clipPath><clipPath id="p7a270dfc44"><path d="M25.3 320.1h357.1v62.1H25.3z"/></clipPath><clipPath id="peb962dff88"><path d="M25.3 394.7h357.1v62.1H25.3z"/></clipPath></defs></svg>