<svg xmlns="http://www.w3.org/2000/svg" viewBox="0 0 580 217.5"><path d="M161.2 75l-33.7-11.3V15l33.8 10v50M170 25l33.8-10-.2 48.7L170 75V25M196.9 9.7L165.4 0l-31 9.7 31 8.4L197 9.7M246.2 75l-33.7-11.3V15l33.8 10v50M255 25l33.8-10-.2 48.7L255 75V25M281.9 9.7L250.4 0l-31 9.7 31 8.4L282 9.7M33.8 96.3L0 86.3V135l33.7 11.3v-50M42.5 96.3l33.8-10L76 135l-33.6 11.3v-50M69.4 81l-31.5-9.8L7 81l31 8.3L69.5 81M118.7 146.3L85 135V86.2l33.8 10v50M127.5 96.3l33.8-10-.2 48.7-33.6 11.3v-50M154.4 81l-31.5-9.8L92 81l31 8.3 31.5-8.3M76.2 217.5l-33.7-11.3v-48.7l33.8 10v50M85 167.5l33.8-10-.2 48.7L85 217.5v-50M111.9 152.2l-31.5-9.7-31 9.7 31 8.4 31.5-8.4" fill="#f68d11"/><path d="M225.5 174.4H223c-.9 0-2 .6-2.3 1.6l-7.6 26.5-7.4-26.4c-.2-.8-1-1.7-2-1.7h-3c-1 0-1.8.9-2 1.7l-7 26.2-7.1-26.3c-.3-1-1.5-1.6-2.4-1.6h-3.6c-.8 0-1.5.3-1.9.9-.2.3-.3.7-.2 1l11 39.2c.3.8 1 1.6 2 1.6h3.6c1 0 1.8-.6 2-1.6l6.9-26.1 7.4 26c.2.9 1 1.7 2 1.7h3.5c1 0 1.7-.6 2-1.6l10.6-39.1c.1-.4 0-.8-.2-1.2-.4-.5-1-.8-1.8-.8M256.2 191h-18.8c.5-5.2 3.9-10.7 9.7-11 6.1.3 9 5.6 9 11zm-9.2-16.9c-12.6 0-18.4 11.2-18.4 21.6 0 13 7.2 21.4 18.3 21.4 8 0 14-4 16.6-11 .1-.4 0-.9-.1-1.3a2 2 0 00-1.4-1l-3.5-.6c-1-.1-2 .4-2.4 1.2a9.6 9.6 0 01-8.7 6.3c-3.8-.2-7.2-2.4-8.8-5.7a18.6 18.6 0 01-1.5-8.2h25.4c.6 0 1.1-.2 1.5-.6.3-.3.5-.7.5-1.2 0-10-4.7-20.9-17.5-20.9M295.8 195.8c0 2.4-.4 14.3-8.9 14.6a9.5 9.5 0 01-7.3-4.2 16 16 0 01-2-7.7v-7c0-5.4 3.8-11.3 9.3-11.5 8.5.3 9 13.2 9 15.8zm-7.6-22h-.6c-4.2 0-7.6 1.7-10 5.3v-16.5c0-1-1-1.8-2.1-1.8h-3.7c-1 0-2 .8-2 1.8v51.5c0 1 1 1.8 2 1.8h1.1c1 0 1.7-.9 2-1.6l1.1-3.7c2.7 3.8 6.7 6 11 6h.6c11.3 0 16.4-11 16.4-21.8a27 27 0 00-3.7-14.2 14.6 14.6 0 00-12-6.8M344 194.6c-2.3-1.7-5.2-2.3-8-2.8l-5.5-1c-4-.7-6.3-1.8-6.3-5.2 0-3.7 3.8-5.1 7-5.2 4 .1 7 1.9 8.4 5 .4.7 1.1 1.2 2 1.2h.3l3.5-.8c.5-.1 1-.5 1.3-1 .2-.4.3-.9.2-1.2-2.1-6.2-7.5-9.4-15.5-9.4-7.3 0-15.1 3.3-15.1 12.3 0 6.2 3.9 10.1 11.6 11.7l6.1 1.2c3.4.6 6.8 1.7 6.8 5.4 0 5.3-6.2 5.9-8.1 6-4.2-.2-9-2-10.2-6-.2-1-1.3-1.6-2.3-1.4l-3.6.8a2 2 0 00-1.3 1c-.3.3-.3.8-.2 1.2 1.8 6.6 8.2 10.6 17.1 10.7h.2c8 0 16.4-3.4 16.4-13 0-3.8-1.7-7.3-4.7-9.5M380.3 191h-18.7c.4-5.2 3.8-10.7 9.6-10.9 6.2.2 9 5.6 9.1 11zm-9-16.8c-12.8 0-18.5 11.2-18.5 21.6 0 13 7.1 21.3 18.2 21.3 8 0 14-4 16.7-11 .1-.4 0-.8-.2-1.2a2 2 0 00-1.3-1l-3.6-.7c-.8 0-2 .3-2.3 1.3a9.6 9.6 0 01-8.8 6.2c-3.7-.1-7.2-2.4-8.7-5.7a18.5 18.5 0 01-1.5-8.1h25.4c.5 0 1-.3 1.5-.7.3-.3.5-.7.5-1.1 0-10.1-4.7-21-17.5-21M412.7 174.6h-1.4c-4.3 0-7.8 2.3-10.2 6.7v-3.9c0-1-1-1.7-2-1.7H396c-1 0-2 .8-2 1.7v37.8c0 1 1 1.8 2 1.8h3.8c1 0 2-.8 2-1.8v-19c0-3.2.3-5.5 1.8-8.3 2.1-4 5.1-6 9.1-6a2 2 0 002-1.9v-3.5c0-1-.9-1.8-1.9-1.9M451.6 173.9h-2.9c-.9 0-2 .7-2.4 1.6l-9.5 29.9-9.6-29.8c-.3-1-1.5-1.7-2.4-1.7h-4.2c-.8 0-1.5.3-2 .9-.2.3-.2.7-.1 1.1l13.3 39.4c.2.7.9 1.6 2 1.6h5c1 0 1.7-.6 2-1.6l13-39.4c0-.4 0-.8-.3-1.1-.3-.6-1-.9-1.9-.9M461.3 158.8a4.9 4.9 0 100 9.8 4.9 4.9 0 000-9.8M463.3 173.7h-4c-1.1 0-2.1.8-2.1 1.8v40c0 .6.2 1 .6 1.4.4.3 1 .5 1.5.5h4c1.1 0 2-.8 2-1.8v-40c0-1-.9-2-2-2M500.8 200.8h-3.3c-1 0-1.8.6-2.1 1.6-1.2 5.3-4 8-8.2 8.1-8.2-.2-8.8-11.6-8.8-15.1 0-7 2.4-14.5 9.1-14.7 4 .1 7 3 8 7.8 0 1 .8 1.7 1.9 1.8h3.5c1.1 0 2-.9 2-1.9-1.3-8.6-7.3-14.1-15.2-14.1h-.6c-11.6 0-16.8 10.8-16.8 21.5 0 9.8 4.4 21.2 16.7 21.2h.6c7.8 0 13.6-5.4 15.3-14.2 0-.4-.1-.9-.4-1.2-.4-.5-1-.7-1.7-.8M534 191h-18.8c.4-5.2 3.8-10.7 9.6-10.9 6.2.2 9 5.6 9.1 11zm-9.2-16.8c-12.7 0-18.4 11.2-18.4 21.6 0 13 7.2 21.3 18.2 21.3 8 0 14-4 16.7-11 .1-.4 0-.8-.2-1.2a2 2 0 00-1.3-1l-3.6-.7c-.8 0-2 .3-2.3 1.3a9.6 9.6 0 01-8.8 6.2c-3.7-.1-7.2-2.4-8.7-5.7a18.5 18.5 0 01-1.5-8.1h25.4c.5 0 1-.3 1.5-.7.3-.3.5-.7.5-1.1 0-10.1-4.7-21-17.5-21M574.2 194.6c-2.4-1.7-5.3-2.3-8.1-2.8l-5.5-1c-4-.7-6.3-1.8-6.3-5.2 0-4.8 6-5.2 7-5.2 4 .1 7 1.9 8.4 5 .4.7 1.1 1.2 2 1.2h.3l3.5-.8c.5-.1 1-.5 1.3-1 .2-.4.3-.9.2-1.2-2.1-6.2-7.5-9.4-15.5-9.4-7.3 0-15 3.3-15 12.3 0 6.2 3.8 10.1 11.5 11.7l6.1 1.2c3.4.6 6.8 1.7 6.8 5.4 0 5.3-6.2 5.9-8 6-4-.2-9-1.8-10.3-6-.2-1-1.3-1.6-2.3-1.4l-3.6.8a2 2 0 00-1.3 1c-.3.3-.3.8-.2 1.2 1.8 6.6 8.2 10.6 17.1 10.7h.2c8 0 16.4-3.4 16.4-13 0-3.8-1.7-7.3-4.7-9.5" fill="#100f0d"/><path d="M410.9 96.5v-9.1c0-1.4 1-2.3 2.3-2.3H454c1.3 0 2.3 1 2.3 2.3v7.8c0 1.3-1 3-3 5.7L432 131.1c7.9-.2 16.2 1 23.3 5 1.6.9 2 2.2 2.2 3.5v9.7c0 1.4-1.5 3-3 2.1a47 47 0 00-43.1 0c-1.4.8-3-.7-3-2V140c0-1.4.1-4 1.6-6.2l24.5-35.1h-21.3c-1.4 0-2.4-1-2.4-2.3M262.2 153.3h-12.4c-1.2 0-2.1-1-2.2-2V87.5c0-1.3 1-2.3 2.4-2.3h11.5c1.2 0 2.2 1 2.3 2.1v8.3h.2c3-8 8.7-11.8 16.3-11.8 7.8 0 12.6 3.8 16.1 11.8 3-8 9.9-11.8 17.2-11.8 5.2 0 10.8 2.2 14.3 7 4 5.3 3.1 13.1 3.1 20V151c0 1.3-1 2.3-2.4 2.3h-12.4c-1.2 0-2.2-1-2.2-2.3v-33.7c0-2.7.2-9.4-.3-12-1-4.2-3.7-5.4-7.3-5.4-3 0-6.2 2-7.4 5.2-1.3 3.2-1.2 8.6-1.2 12.2V151c0 1.3-1 2.3-2.4 2.3H283c-1.2 0-2.2-1-2.2-2.3v-33.7c0-7.1 1.1-17.6-7.7-17.6-8.9 0-8.5 10.2-8.5 17.6V151c0 1.3-1 2.3-2.4 2.3M491.5 97c-9.1 0-9.7 12.4-9.7 20.1 0 7.8-.1 24.4 9.6 24.4 9.6 0 10.1-13.4 10.1-21.5 0-5.4-.2-11.8-1.9-17-1.3-4.3-4.1-6-8-6zm0-13c18.3 0 28.3 15.7 28.3 35.8 0 19.4-11 34.9-28.4 34.9-18 0-27.9-15.9-27.9-35.5 0-19.9 10-35.3 28-35.3M543.7 153.3h-12.4c-1.2 0-2.2-1-2.2-2.3V87.3c0-1.1 1-2 2.3-2H543c1.1 0 2 .8 2.3 1.7v9.8h.2c3.5-8.7 8.3-12.9 16.9-12.9 5.5 0 11 2 14.5 7.5 3.2 5.1 3.2 13.7 3.2 19.8v40.1c-.1 1.1-1.1 2-2.4 2h-12.4c-1.2 0-2-1-2.2-2v-34.6c0-7 .8-17.1-7.8-17.1-3 0-5.8 2-7.2 5-1.7 4-2 7.9-2 12.1V151c0 1.3-1 2.3-2.3 2.3M390.9 153.2c-.8.7-2 .7-3 .2-4-3.4-4.8-5-7-8.2-6.8 7-11.7 9-20.5 9-10.4 0-18.6-6.5-18.6-19.3 0-10.1 5.5-17 13.3-20.3 6.7-3 16.1-3.5 23.3-4.3v-1.6c0-3 .2-6.5-1.5-9-1.5-2.3-4.4-3.2-7-3.2-4.7 0-9 2.4-10 7.4-.2 1.1-1 2.2-2.1 2.3l-12-1.3c-1-.2-2.2-1-1.9-2.6 2.8-14.6 16-19 27.8-19 6 0 13.9 1.6 18.6 6.2 6 5.6 5.5 13.1 5.5 21.3v19.4c0 5.8 2.4 8.3 4.7 11.4.8 1.2 1 2.5 0 3.3l-9.6 8.3zm-12.5-30.3c0 4.8.1 8.9-2.3 13.2-2 3.5-5.1 5.6-8.6 5.6-4.8 0-7.6-3.6-7.6-9 0-10.5 9.5-12.5 18.5-12.5v2.7M228.3 153.2c-.8.7-2 .7-3 .2-4-3.4-4.8-5-7-8.2-6.8 7-11.7 9-20.5 9-10.4 0-18.6-6.5-18.6-19.3 0-10.1 5.5-17 13.3-20.3 6.7-3 16.1-3.5 23.3-4.3v-1.6c0-3 .2-6.5-1.5-9-1.5-2.3-4.4-3.2-7-3.2-4.7 0-9 2.4-10 7.4-.2 1.1-1 2.2-2 2.3l-12.1-1.3c-1-.2-2.2-1-1.9-2.6 2.8-14.6 16-19 27.8-19 6 0 13.9 1.6 18.7 6.2 6 5.6 5.4 13.1 5.4 21.3v19.4c0 5.8 2.4 8.3 4.7 11.4.8 1.2 1 2.5 0 3.3l-9.6 8.3zm-12.5-30.3c0 4.8.1 8.9-2.3 13.2-2 3.5-5.1 5.6-8.6 5.6-4.8 0-7.5-3.6-7.5-9 0-10.5 9.4-12.5 18.4-12.5v2.7" fill="#100f0d" fill-rule="evenodd"/></svg>