<?xml version="1.0" encoding="utf-8" standalone="no"?>
<!DOCTYPE svg PUBLIC "-//W3C//DTD SVG 1.1//EN"
  "http://www.w3.org/Graphics/SVG/1.1/DTD/svg11.dtd">
<!-- Created with matplotlib (https://matplotlib.org/) -->
<svg height="252.018125pt" version="1.1" viewBox="0 0 381.965625 252.018125" width="381.965625pt" xmlns="http://www.w3.org/2000/svg" xmlns:xlink="http://www.w3.org/1999/xlink">
 <defs>
  <style type="text/css">
*{stroke-linecap:butt;stroke-linejoin:round;}
  </style>
 </defs>
 <g id="figure_1">
  <g id="patch_1">
   <path d="M 0 252.018125 
L 381.965625 252.018125 
L 381.965625 0 
L 0 0 
z
" style="fill:none;"/>
  </g>
  <g id="axes_1">
   <g id="patch_2">
    <path d="M 36.465625 228.14 
L 371.265625 228.14 
L 371.265625 10.7 
L 36.465625 10.7 
z
" style="fill:#ffffff;"/>
   </g>
   <g id="patch_3">
    <path clip-path="url(#p8403850e14)" d="M 65.417117 228.14 
L 70.955057 228.14 
L 70.955057 225.470793 
L 65.417117 225.470793 
z
" style="fill:#1f77b4;opacity:0.4;"/>
   </g>
   <g id="patch_4">
    <path clip-path="url(#p8403850e14)" d="M 70.955051 228.14 
L 76.492991 228.14 
L 76.492991 211.902326 
L 70.955051 211.902326 
z
" style="fill:#1f77b4;opacity:0.4;"/>
   </g>
   <g id="patch_5">
    <path clip-path="url(#p8403850e14)" d="M 76.492997 228.14 
L 82.030937 228.14 
L 82.030937 190.326239 
L 76.492997 190.326239 
z
" style="fill:#1f77b4;opacity:0.4;"/>
   </g>
   <g id="patch_6">
    <path clip-path="url(#p8403850e14)" d="M 82.030931 228.14 
L 87.568871 228.14 
L 87.568871 154.291949 
L 82.030931 154.291949 
z
" style="fill:#1f77b4;opacity:0.4;"/>
   </g>
   <g id="patch_7">
    <path clip-path="url(#p8403850e14)" d="M 87.568877 228.14 
L 93.106817 228.14 
L 93.106817 110.694907 
L 87.568877 110.694907 
z
" style="fill:#1f77b4;opacity:0.4;"/>
   </g>
   <g id="patch_8">
    <path clip-path="url(#p8403850e14)" d="M 93.106811 228.14 
L 98.644751 228.14 
L 98.644751 75.550353 
L 93.106811 75.550353 
z
" style="fill:#1f77b4;opacity:0.4;"/>
   </g>
   <g id="patch_9">
    <path clip-path="url(#p8403850e14)" d="M 98.644757 228.14 
L 104.182698 228.14 
L 104.182698 33.287914 
L 98.644757 33.287914 
z
" style="fill:#1f77b4;opacity:0.4;"/>
   </g>
   <g id="patch_10">
    <path clip-path="url(#p8403850e14)" d="M 104.182691 228.14 
L 109.720631 228.14 
L 109.720631 39.293629 
L 104.182691 39.293629 
z
" style="fill:#1f77b4;opacity:0.4;"/>
   </g>
   <g id="patch_11">
    <path clip-path="url(#p8403850e14)" d="M 109.720638 228.14 
L 115.258584 228.14 
L 115.258584 21.054286 
L 109.720638 21.054286 
z
" style="fill:#1f77b4;opacity:0.4;"/>
   </g>
   <g id="patch_12">
    <path clip-path="url(#p8403850e14)" d="M 115.258584 228.14 
L 120.796518 228.14 
L 120.796518 28.394141 
L 115.258584 28.394141 
z
" style="fill:#1f77b4;opacity:0.4;"/>
   </g>
   <g id="patch_13">
    <path clip-path="url(#p8403850e14)" d="M 120.796518 228.14 
L 126.334464 228.14 
L 126.334464 54.196897 
L 120.796518 54.196897 
z
" style="fill:#1f77b4;opacity:0.4;"/>
   </g>
   <g id="patch_14">
    <path clip-path="url(#p8403850e14)" d="M 126.334452 228.14 
L 131.872385 228.14 
L 131.872385 71.546365 
L 126.334452 71.546365 
z
" style="fill:#1f77b4;opacity:0.4;"/>
   </g>
   <g id="patch_15">
    <path clip-path="url(#p8403850e14)" d="M 131.872398 228.14 
L 137.410344 228.14 
L 137.410344 96.014421 
L 131.872398 96.014421 
z
" style="fill:#1f77b4;opacity:0.4;"/>
   </g>
   <g id="patch_16">
    <path clip-path="url(#p8403850e14)" d="M 137.410344 228.14 
L 142.948278 228.14 
L 142.948278 118.479968 
L 137.410344 118.479968 
z
" style="fill:#1f77b4;opacity:0.4;"/>
   </g>
   <g id="patch_17">
    <path clip-path="url(#p8403850e14)" d="M 142.948278 228.14 
L 148.486224 228.14 
L 148.486224 140.05628 
L 142.948278 140.05628 
z
" style="fill:#1f77b4;opacity:0.4;"/>
   </g>
   <g id="patch_18">
    <path clip-path="url(#p8403850e14)" d="M 148.486212 228.14 
L 154.024146 228.14 
L 154.024146 149.398314 
L 148.486212 149.398314 
z
" style="fill:#1f77b4;opacity:0.4;"/>
   </g>
   <g id="patch_19">
    <path clip-path="url(#p8403850e14)" d="M 154.024158 228.14 
L 159.562104 228.14 
L 159.562104 168.305352 
L 154.024158 168.305352 
z
" style="fill:#1f77b4;opacity:0.4;"/>
   </g>
   <g id="patch_20">
    <path clip-path="url(#p8403850e14)" d="M 159.562104 228.14 
L 165.100038 228.14 
L 165.100038 173.86607 
L 159.562104 173.86607 
z
" style="fill:#1f77b4;opacity:0.4;"/>
   </g>
   <g id="patch_21">
    <path clip-path="url(#p8403850e14)" d="M 165.100038 228.14 
L 170.637985 228.14 
L 170.637985 194.330087 
L 165.100038 194.330087 
z
" style="fill:#1f77b4;opacity:0.4;"/>
   </g>
   <g id="patch_22">
    <path clip-path="url(#p8403850e14)" d="M 170.637972 228.14 
L 176.175906 228.14 
L 176.175906 194.997313 
L 170.637972 194.997313 
z
" style="fill:#1f77b4;opacity:0.4;"/>
   </g>
   <g id="patch_23">
    <path clip-path="url(#p8403850e14)" d="M 176.175918 228.14 
L 181.713865 228.14 
L 181.713865 205.229336 
L 176.175918 205.229336 
z
" style="fill:#1f77b4;opacity:0.4;"/>
   </g>
   <g id="patch_24">
    <path clip-path="url(#p8403850e14)" d="M 181.713865 228.14 
L 187.251799 228.14 
L 187.251799 205.451718 
L 181.713865 205.451718 
z
" style="fill:#1f77b4;opacity:0.4;"/>
   </g>
   <g id="patch_25">
    <path clip-path="url(#p8403850e14)" d="M 187.251799 228.14 
L 192.789745 228.14 
L 192.789745 212.792079 
L 187.251799 212.792079 
z
" style="fill:#1f77b4;opacity:0.4;"/>
   </g>
   <g id="patch_26">
    <path clip-path="url(#p8403850e14)" d="M 192.789732 228.14 
L 198.327666 228.14 
L 198.327666 219.242634 
L 192.789732 219.242634 
z
" style="fill:#1f77b4;opacity:0.4;"/>
   </g>
   <g id="patch_27">
    <path clip-path="url(#p8403850e14)" d="M 198.327679 228.14 
L 203.865625 228.14 
L 203.865625 219.242655 
L 198.327679 219.242655 
z
" style="fill:#1f77b4;opacity:0.4;"/>
   </g>
   <g id="patch_28">
    <path clip-path="url(#p8403850e14)" d="M 203.865625 228.14 
L 209.403571 228.14 
L 209.403571 221.466991 
L 203.865625 221.466991 
z
" style="fill:#1f77b4;opacity:0.4;"/>
   </g>
   <g id="patch_29">
    <path clip-path="url(#p8403850e14)" d="M 209.403571 228.14 
L 214.941505 228.14 
L 214.941505 223.246449 
L 209.403571 223.246449 
z
" style="fill:#1f77b4;opacity:0.4;"/>
   </g>
   <g id="patch_30">
    <path clip-path="url(#p8403850e14)" d="M 214.941493 228.14 
L 220.479414 228.14 
L 220.479414 223.246449 
L 214.941493 223.246449 
z
" style="fill:#1f77b4;opacity:0.4;"/>
   </g>
   <g id="patch_31">
    <path clip-path="url(#p8403850e14)" d="M 220.479439 228.14 
L 226.017385 228.14 
L 226.017385 224.803495 
L 220.479439 224.803495 
z
" style="fill:#1f77b4;opacity:0.4;"/>
   </g>
   <g id="patch_32">
    <path clip-path="url(#p8403850e14)" d="M 226.017385 228.14 
L 231.555332 228.14 
L 231.555332 224.581062 
L 226.017385 224.581062 
z
" style="fill:#1f77b4;opacity:0.4;"/>
   </g>
   <g id="patch_33">
    <path clip-path="url(#p8403850e14)" d="M 231.555332 228.14 
L 237.093278 228.14 
L 237.093278 225.025929 
L 231.555332 225.025929 
z
" style="fill:#1f77b4;opacity:0.4;"/>
   </g>
   <g id="patch_34">
    <path clip-path="url(#p8403850e14)" d="M 237.093253 228.14 
L 242.631174 228.14 
L 242.631174 227.695131 
L 237.093253 227.695131 
z
" style="fill:#1f77b4;opacity:0.4;"/>
   </g>
   <g id="patch_35">
    <path clip-path="url(#p8403850e14)" d="M 242.631199 228.14 
L 248.169146 228.14 
L 248.169146 227.472699 
L 242.631199 227.472699 
z
" style="fill:#1f77b4;opacity:0.4;"/>
   </g>
   <g id="patch_36">
    <path clip-path="url(#p8403850e14)" d="M 248.169146 228.14 
L 253.707092 228.14 
L 253.707092 227.695133 
L 248.169146 227.695133 
z
" style="fill:#1f77b4;opacity:0.4;"/>
   </g>
   <g id="patch_37">
    <path clip-path="url(#p8403850e14)" d="M 253.707092 228.14 
L 259.245038 228.14 
L 259.245038 227.695133 
L 253.707092 227.695133 
z
" style="fill:#1f77b4;opacity:0.4;"/>
   </g>
   <g id="patch_38">
    <path clip-path="url(#p8403850e14)" d="M 259.245038 228.14 
L 264.782959 228.14 
L 264.782959 227.027827 
L 259.245038 227.027827 
z
" style="fill:#1f77b4;opacity:0.4;"/>
   </g>
   <g id="patch_39">
    <path clip-path="url(#p8403850e14)" d="M 264.782959 228.14 
L 270.320906 228.14 
L 270.320906 227.027832 
L 264.782959 227.027832 
z
" style="fill:#1f77b4;opacity:0.4;"/>
   </g>
   <g id="patch_40">
    <path clip-path="url(#p8403850e14)" d="M 270.320906 228.14 
L 275.858852 228.14 
L 275.858852 227.695133 
L 270.320906 227.695133 
z
" style="fill:#1f77b4;opacity:0.4;"/>
   </g>
   <g id="patch_41">
    <path clip-path="url(#p8403850e14)" d="M 275.858852 228.14 
L 281.396798 228.14 
L 281.396798 227.695133 
L 275.858852 227.695133 
z
" style="fill:#1f77b4;opacity:0.4;"/>
   </g>
   <g id="patch_42">
    <path clip-path="url(#p8403850e14)" d="M 281.396773 228.14 
L 286.934694 228.14 
L 286.934694 227.695131 
L 281.396773 227.695131 
z
" style="fill:#1f77b4;opacity:0.4;"/>
   </g>
   <g id="patch_43">
    <path clip-path="url(#p8403850e14)" d="M 286.93472 228.14 
L 292.472666 228.14 
L 292.472666 227.695133 
L 286.93472 227.695133 
z
" style="fill:#1f77b4;opacity:0.4;"/>
   </g>
   <g id="patch_44">
    <path clip-path="url(#p8403850e14)" d="M 292.472666 228.14 
L 298.010612 228.14 
L 298.010612 228.14 
L 292.472666 228.14 
z
" style="fill:#1f77b4;opacity:0.4;"/>
   </g>
   <g id="patch_45">
    <path clip-path="url(#p8403850e14)" d="M 298.010612 228.14 
L 303.548559 228.14 
L 303.548559 227.917566 
L 298.010612 227.917566 
z
" style="fill:#1f77b4;opacity:0.4;"/>
   </g>
   <g id="patch_46">
    <path clip-path="url(#p8403850e14)" d="M 303.548559 228.14 
L 309.08648 228.14 
L 309.08648 227.917565 
L 303.548559 227.917565 
z
" style="fill:#1f77b4;opacity:0.4;"/>
   </g>
   <g id="patch_47">
    <path clip-path="url(#p8403850e14)" d="M 309.08648 228.14 
L 314.624426 228.14 
L 314.624426 228.14 
L 309.08648 228.14 
z
" style="fill:#1f77b4;opacity:0.4;"/>
   </g>
   <g id="patch_48">
    <path clip-path="url(#p8403850e14)" d="M 314.624426 228.14 
L 320.162373 228.14 
L 320.162373 227.695133 
L 314.624426 227.695133 
z
" style="fill:#1f77b4;opacity:0.4;"/>
   </g>
   <g id="patch_49">
    <path clip-path="url(#p8403850e14)" d="M 320.162373 228.14 
L 325.700319 228.14 
L 325.700319 228.14 
L 320.162373 228.14 
z
" style="fill:#1f77b4;opacity:0.4;"/>
   </g>
   <g id="patch_50">
    <path clip-path="url(#p8403850e14)" d="M 325.700294 228.14 
L 331.238215 228.14 
L 331.238215 227.917565 
L 325.700294 227.917565 
z
" style="fill:#1f77b4;opacity:0.4;"/>
   </g>
   <g id="patch_51">
    <path clip-path="url(#p8403850e14)" d="M 331.23824 228.14 
L 336.776187 228.14 
L 336.776187 227.695133 
L 331.23824 227.695133 
z
" style="fill:#1f77b4;opacity:0.4;"/>
   </g>
   <g id="patch_52">
    <path clip-path="url(#p8403850e14)" d="M 336.776187 228.14 
L 342.314133 228.14 
L 342.314133 227.917566 
L 336.776187 227.917566 
z
" style="fill:#1f77b4;opacity:0.4;"/>
   </g>
   <g id="matplotlib.axis_1">
    <g id="xtick_1">
     <g id="line2d_1">
      <defs>
       <path d="M 0 0 
L 0 3.5 
" id="md077e7a9ab" style="stroke:#000000;stroke-width:0.8;"/>
      </defs>
      <g>
       <use style="stroke:#000000;stroke-width:0.8;" x="57.512318" xlink:href="#md077e7a9ab" y="228.14"/>
      </g>
     </g>
     <g id="text_1">
      <!-- 0.5 -->
      <defs>
       <path d="M 31.78125 66.40625 
Q 24.171875 66.40625 20.328125 58.90625 
Q 16.5 51.421875 16.5 36.375 
Q 16.5 21.390625 20.328125 13.890625 
Q 24.171875 6.390625 31.78125 6.390625 
Q 39.453125 6.390625 43.28125 13.890625 
Q 47.125 21.390625 47.125 36.375 
Q 47.125 51.421875 43.28125 58.90625 
Q 39.453125 66.40625 31.78125 66.40625 
z
M 31.78125 74.21875 
Q 44.046875 74.21875 50.515625 64.515625 
Q 56.984375 54.828125 56.984375 36.375 
Q 56.984375 17.96875 50.515625 8.265625 
Q 44.046875 -1.421875 31.78125 -1.421875 
Q 19.53125 -1.421875 13.0625 8.265625 
Q 6.59375 17.96875 6.59375 36.375 
Q 6.59375 54.828125 13.0625 64.515625 
Q 19.53125 74.21875 31.78125 74.21875 
z
" id="DejaVuSans-48"/>
       <path d="M 10.6875 12.40625 
L 21 12.40625 
L 21 0 
L 10.6875 0 
z
" id="DejaVuSans-46"/>
       <path d="M 10.796875 72.90625 
L 49.515625 72.90625 
L 49.515625 64.59375 
L 19.828125 64.59375 
L 19.828125 46.734375 
Q 21.96875 47.46875 24.109375 47.828125 
Q 26.265625 48.1875 28.421875 48.1875 
Q 40.625 48.1875 47.75 41.5 
Q 54.890625 34.8125 54.890625 23.390625 
Q 54.890625 11.625 47.5625 5.09375 
Q 40.234375 -1.421875 26.90625 -1.421875 
Q 22.3125 -1.421875 17.546875 -0.640625 
Q 12.796875 0.140625 7.71875 1.703125 
L 7.71875 11.625 
Q 12.109375 9.234375 16.796875 8.0625 
Q 21.484375 6.890625 26.703125 6.890625 
Q 35.15625 6.890625 40.078125 11.328125 
Q 45.015625 15.765625 45.015625 23.390625 
Q 45.015625 31 40.078125 35.4375 
Q 35.15625 39.890625 26.703125 39.890625 
Q 22.75 39.890625 18.8125 39.015625 
Q 14.890625 38.140625 10.796875 36.28125 
z
" id="DejaVuSans-53"/>
      </defs>
      <g transform="translate(49.560756 242.738437)scale(0.1 -0.1)">
       <use xlink:href="#DejaVuSans-48"/>
       <use x="63.623047" xlink:href="#DejaVuSans-46"/>
       <use x="95.410156" xlink:href="#DejaVuSans-53"/>
      </g>
     </g>
    </g>
    <g id="xtick_2">
     <g id="line2d_2">
      <g>
       <use style="stroke:#000000;stroke-width:0.8;" x="110.371078" xlink:href="#md077e7a9ab" y="228.14"/>
      </g>
     </g>
     <g id="text_2">
      <!-- 1.0 -->
      <defs>
       <path d="M 12.40625 8.296875 
L 28.515625 8.296875 
L 28.515625 63.921875 
L 10.984375 60.40625 
L 10.984375 69.390625 
L 28.421875 72.90625 
L 38.28125 72.90625 
L 38.28125 8.296875 
L 54.390625 8.296875 
L 54.390625 0 
L 12.40625 0 
z
" id="DejaVuSans-49"/>
      </defs>
      <g transform="translate(102.419516 242.738437)scale(0.1 -0.1)">
       <use xlink:href="#DejaVuSans-49"/>
       <use x="63.623047" xlink:href="#DejaVuSans-46"/>
       <use x="95.410156" xlink:href="#DejaVuSans-48"/>
      </g>
     </g>
    </g>
    <g id="xtick_3">
     <g id="line2d_3">
      <g>
       <use style="stroke:#000000;stroke-width:0.8;" x="163.229838" xlink:href="#md077e7a9ab" y="228.14"/>
      </g>
     </g>
     <g id="text_3">
      <!-- 1.5 -->
      <g transform="translate(155.278276 242.738437)scale(0.1 -0.1)">
       <use xlink:href="#DejaVuSans-49"/>
       <use x="63.623047" xlink:href="#DejaVuSans-46"/>
       <use x="95.410156" xlink:href="#DejaVuSans-53"/>
      </g>
     </g>
    </g>
    <g id="xtick_4">
     <g id="line2d_4">
      <g>
       <use style="stroke:#000000;stroke-width:0.8;" x="216.088598" xlink:href="#md077e7a9ab" y="228.14"/>
      </g>
     </g>
     <g id="text_4">
      <!-- 2.0 -->
      <defs>
       <path d="M 19.1875 8.296875 
L 53.609375 8.296875 
L 53.609375 0 
L 7.328125 0 
L 7.328125 8.296875 
Q 12.9375 14.109375 22.625 23.890625 
Q 32.328125 33.6875 34.8125 36.53125 
Q 39.546875 41.84375 41.421875 45.53125 
Q 43.3125 49.21875 43.3125 52.78125 
Q 43.3125 58.59375 39.234375 62.25 
Q 35.15625 65.921875 28.609375 65.921875 
Q 23.96875 65.921875 18.8125 64.3125 
Q 13.671875 62.703125 7.8125 59.421875 
L 7.8125 69.390625 
Q 13.765625 71.78125 18.9375 73 
Q 24.125 74.21875 28.421875 74.21875 
Q 39.75 74.21875 46.484375 68.546875 
Q 53.21875 62.890625 53.21875 53.421875 
Q 53.21875 48.921875 51.53125 44.890625 
Q 49.859375 40.875 45.40625 35.40625 
Q 44.1875 33.984375 37.640625 27.21875 
Q 31.109375 20.453125 19.1875 8.296875 
z
" id="DejaVuSans-50"/>
      </defs>
      <g transform="translate(208.137036 242.738437)scale(0.1 -0.1)">
       <use xlink:href="#DejaVuSans-50"/>
       <use x="63.623047" xlink:href="#DejaVuSans-46"/>
       <use x="95.410156" xlink:href="#DejaVuSans-48"/>
      </g>
     </g>
    </g>
    <g id="xtick_5">
     <g id="line2d_5">
      <g>
       <use style="stroke:#000000;stroke-width:0.8;" x="268.947358" xlink:href="#md077e7a9ab" y="228.14"/>
      </g>
     </g>
     <g id="text_5">
      <!-- 2.5 -->
      <g transform="translate(260.995796 242.738437)scale(0.1 -0.1)">
       <use xlink:href="#DejaVuSans-50"/>
       <use x="63.623047" xlink:href="#DejaVuSans-46"/>
       <use x="95.410156" xlink:href="#DejaVuSans-53"/>
      </g>
     </g>
    </g>
    <g id="xtick_6">
     <g id="line2d_6">
      <g>
       <use style="stroke:#000000;stroke-width:0.8;" x="321.806118" xlink:href="#md077e7a9ab" y="228.14"/>
      </g>
     </g>
     <g id="text_6">
      <!-- 3.0 -->
      <defs>
       <path d="M 40.578125 39.3125 
Q 47.65625 37.796875 51.625 33 
Q 55.609375 28.21875 55.609375 21.1875 
Q 55.609375 10.40625 48.1875 4.484375 
Q 40.765625 -1.421875 27.09375 -1.421875 
Q 22.515625 -1.421875 17.65625 -0.515625 
Q 12.796875 0.390625 7.625 2.203125 
L 7.625 11.71875 
Q 11.71875 9.328125 16.59375 8.109375 
Q 21.484375 6.890625 26.8125 6.890625 
Q 36.078125 6.890625 40.9375 10.546875 
Q 45.796875 14.203125 45.796875 21.1875 
Q 45.796875 27.640625 41.28125 31.265625 
Q 36.765625 34.90625 28.71875 34.90625 
L 20.21875 34.90625 
L 20.21875 43.015625 
L 29.109375 43.015625 
Q 36.375 43.015625 40.234375 45.921875 
Q 44.09375 48.828125 44.09375 54.296875 
Q 44.09375 59.90625 40.109375 62.90625 
Q 36.140625 65.921875 28.71875 65.921875 
Q 24.65625 65.921875 20.015625 65.03125 
Q 15.375 64.15625 9.8125 62.3125 
L 9.8125 71.09375 
Q 15.4375 72.65625 20.34375 73.4375 
Q 25.25 74.21875 29.59375 74.21875 
Q 40.828125 74.21875 47.359375 69.109375 
Q 53.90625 64.015625 53.90625 55.328125 
Q 53.90625 49.265625 50.4375 45.09375 
Q 46.96875 40.921875 40.578125 39.3125 
z
" id="DejaVuSans-51"/>
      </defs>
      <g transform="translate(313.854556 242.738437)scale(0.1 -0.1)">
       <use xlink:href="#DejaVuSans-51"/>
       <use x="63.623047" xlink:href="#DejaVuSans-46"/>
       <use x="95.410156" xlink:href="#DejaVuSans-48"/>
      </g>
     </g>
    </g>
   </g>
   <g id="matplotlib.axis_2">
    <g id="ytick_1">
     <g id="line2d_7">
      <defs>
       <path d="M 0 0 
L -3.5 0 
" id="m8e08f07907" style="stroke:#000000;stroke-width:0.8;"/>
      </defs>
      <g>
       <use style="stroke:#000000;stroke-width:0.8;" x="36.465625" xlink:href="#m8e08f07907" y="228.14"/>
      </g>
     </g>
     <g id="text_7">
      <!-- 0.00 -->
      <g transform="translate(7.2 231.939219)scale(0.1 -0.1)">
       <use xlink:href="#DejaVuSans-48"/>
       <use x="63.623047" xlink:href="#DejaVuSans-46"/>
       <use x="95.410156" xlink:href="#DejaVuSans-48"/>
       <use x="159.033203" xlink:href="#DejaVuSans-48"/>
      </g>
     </g>
    </g>
    <g id="ytick_2">
     <g id="line2d_8">
      <g>
       <use style="stroke:#000000;stroke-width:0.8;" x="36.465625" xlink:href="#m8e08f07907" y="199.009882"/>
      </g>
     </g>
     <g id="text_8">
      <!-- 0.25 -->
      <g transform="translate(7.2 202.809101)scale(0.1 -0.1)">
       <use xlink:href="#DejaVuSans-48"/>
       <use x="63.623047" xlink:href="#DejaVuSans-46"/>
       <use x="95.410156" xlink:href="#DejaVuSans-50"/>
       <use x="159.033203" xlink:href="#DejaVuSans-53"/>
      </g>
     </g>
    </g>
    <g id="ytick_3">
     <g id="line2d_9">
      <g>
       <use style="stroke:#000000;stroke-width:0.8;" x="36.465625" xlink:href="#m8e08f07907" y="169.879764"/>
      </g>
     </g>
     <g id="text_9">
      <!-- 0.50 -->
      <g transform="translate(7.2 173.678982)scale(0.1 -0.1)">
       <use xlink:href="#DejaVuSans-48"/>
       <use x="63.623047" xlink:href="#DejaVuSans-46"/>
       <use x="95.410156" xlink:href="#DejaVuSans-53"/>
       <use x="159.033203" xlink:href="#DejaVuSans-48"/>
      </g>
     </g>
    </g>
    <g id="ytick_4">
     <g id="line2d_10">
      <g>
       <use style="stroke:#000000;stroke-width:0.8;" x="36.465625" xlink:href="#m8e08f07907" y="140.749645"/>
      </g>
     </g>
     <g id="text_10">
      <!-- 0.75 -->
      <defs>
       <path d="M 8.203125 72.90625 
L 55.078125 72.90625 
L 55.078125 68.703125 
L 28.609375 0 
L 18.3125 0 
L 43.21875 64.59375 
L 8.203125 64.59375 
z
" id="DejaVuSans-55"/>
      </defs>
      <g transform="translate(7.2 144.548864)scale(0.1 -0.1)">
       <use xlink:href="#DejaVuSans-48"/>
       <use x="63.623047" xlink:href="#DejaVuSans-46"/>
       <use x="95.410156" xlink:href="#DejaVuSans-55"/>
       <use x="159.033203" xlink:href="#DejaVuSans-53"/>
      </g>
     </g>
    </g>
    <g id="ytick_5">
     <g id="line2d_11">
      <g>
       <use style="stroke:#000000;stroke-width:0.8;" x="36.465625" xlink:href="#m8e08f07907" y="111.619527"/>
      </g>
     </g>
     <g id="text_11">
      <!-- 1.00 -->
      <g transform="translate(7.2 115.418746)scale(0.1 -0.1)">
       <use xlink:href="#DejaVuSans-49"/>
       <use x="63.623047" xlink:href="#DejaVuSans-46"/>
       <use x="95.410156" xlink:href="#DejaVuSans-48"/>
       <use x="159.033203" xlink:href="#DejaVuSans-48"/>
      </g>
     </g>
    </g>
    <g id="ytick_6">
     <g id="line2d_12">
      <g>
       <use style="stroke:#000000;stroke-width:0.8;" x="36.465625" xlink:href="#m8e08f07907" y="82.489409"/>
      </g>
     </g>
     <g id="text_12">
      <!-- 1.25 -->
      <g transform="translate(7.2 86.288628)scale(0.1 -0.1)">
       <use xlink:href="#DejaVuSans-49"/>
       <use x="63.623047" xlink:href="#DejaVuSans-46"/>
       <use x="95.410156" xlink:href="#DejaVuSans-50"/>
       <use x="159.033203" xlink:href="#DejaVuSans-53"/>
      </g>
     </g>
    </g>
    <g id="ytick_7">
     <g id="line2d_13">
      <g>
       <use style="stroke:#000000;stroke-width:0.8;" x="36.465625" xlink:href="#m8e08f07907" y="53.359291"/>
      </g>
     </g>
     <g id="text_13">
      <!-- 1.50 -->
      <g transform="translate(7.2 57.158509)scale(0.1 -0.1)">
       <use xlink:href="#DejaVuSans-49"/>
       <use x="63.623047" xlink:href="#DejaVuSans-46"/>
       <use x="95.410156" xlink:href="#DejaVuSans-53"/>
       <use x="159.033203" xlink:href="#DejaVuSans-48"/>
      </g>
     </g>
    </g>
    <g id="ytick_8">
     <g id="line2d_14">
      <g>
       <use style="stroke:#000000;stroke-width:0.8;" x="36.465625" xlink:href="#m8e08f07907" y="24.229172"/>
      </g>
     </g>
     <g id="text_14">
      <!-- 1.75 -->
      <g transform="translate(7.2 28.028391)scale(0.1 -0.1)">
       <use xlink:href="#DejaVuSans-49"/>
       <use x="63.623047" xlink:href="#DejaVuSans-46"/>
       <use x="95.410156" xlink:href="#DejaVuSans-55"/>
       <use x="159.033203" xlink:href="#DejaVuSans-53"/>
      </g>
     </g>
    </g>
   </g>
   <g id="line2d_15">
    <path clip-path="url(#p8403850e14)" d="M 51.683807 228.137444 
L 54.758187 228.120505 
L 57.832567 228.033096 
L 60.906947 227.694371 
L 63.981327 226.657292 
L 67.055708 224.104597 
L 70.130088 219.070564 
L 73.204468 210.973037 
L 76.278848 199.706757 
L 79.353228 185.232413 
L 82.427608 167.597549 
L 85.501989 147.286487 
L 88.576369 125.413266 
L 91.650749 103.437445 
L 94.725129 82.353701 
L 97.799509 62.993393 
L 100.873889 47.306288 
L 103.94827 37.435217 
L 107.02265 32.86042 
L 110.09703 30.817776 
L 113.17141 30.000579 
L 116.24579 31.556041 
L 119.32017 37.124801 
L 122.394551 46.878904 
L 125.468931 58.883766 
L 128.543311 71.084566 
L 131.617691 83.091128 
L 134.692071 95.239214 
L 137.766451 107.61942 
L 140.840832 120.021421 
L 143.915212 131.507668 
L 146.989592 140.979101 
L 150.063972 148.857107 
L 153.138352 156.64545 
L 156.212732 164.557681 
L 159.287113 171.489336 
L 162.361493 177.46824 
L 165.435873 183.715291 
L 168.510253 189.948272 
L 171.584633 194.732227 
L 174.659013 198.232073 
L 177.733394 201.497363 
L 180.807774 204.527776 
L 183.882154 207.132438 
L 186.956534 209.829028 
L 190.030914 212.877733 
L 193.105294 215.70614 
L 196.179675 217.687152 
L 199.254055 218.930131 
L 202.328435 219.971356 
L 205.402815 221.070024 
L 208.477195 222.084181 
L 211.551575 222.763757 
L 214.625956 223.128425 
L 217.700336 223.47223 
L 220.774716 223.949574 
L 223.849096 224.396946 
L 226.923476 224.643676 
L 229.997856 224.827718 
L 233.072237 225.272795 
L 236.146617 226.075927 
L 239.220997 226.927197 
L 242.295377 227.451817 
L 245.369757 227.611381 
L 248.444137 227.61624 
L 251.518518 227.60219 
L 254.592898 227.555423 
L 257.667278 227.435024 
L 260.741658 227.259031 
L 263.816038 227.128405 
L 266.890418 227.161395 
L 269.964799 227.342148 
L 273.039179 227.525899 
L 276.113559 227.62625 
L 279.187939 227.670182 
L 282.262319 227.692914 
L 285.336699 227.713105 
L 288.41108 227.769128 
L 291.48546 227.868363 
L 294.55984 227.952877 
L 297.63422 227.981205 
L 300.7086 227.977476 
L 303.78298 227.976392 
L 306.857361 227.986336 
L 309.931741 227.989436 
L 313.006121 227.95952 
L 316.080501 227.920142 
L 319.154881 227.924061 
L 322.229261 227.952339 
L 325.303642 227.938009 
L 328.378022 227.881116 
L 331.452402 227.850582 
L 334.526782 227.885292 
L 337.601162 227.946648 
L 340.675542 227.989227 
L 343.749923 228.025001 
L 346.824303 228.071782 
L 349.898683 228.112554 
L 352.973063 228.132845 
L 356.047443 228.138806 
" style="fill:none;stroke:#1f77b4;stroke-linecap:square;stroke-width:1.5;"/>
   </g>
   <g id="patch_53">
    <path d="M 36.465625 228.14 
L 36.465625 10.7 
" style="fill:none;stroke:#000000;stroke-linecap:square;stroke-linejoin:miter;stroke-width:0.8;"/>
   </g>
   <g id="patch_54">
    <path d="M 371.265625 228.14 
L 371.265625 10.7 
" style="fill:none;stroke:#000000;stroke-linecap:square;stroke-linejoin:miter;stroke-width:0.8;"/>
   </g>
   <g id="patch_55">
    <path d="M 36.465625 228.14 
L 371.265625 228.14 
" style="fill:none;stroke:#000000;stroke-linecap:square;stroke-linejoin:miter;stroke-width:0.8;"/>
   </g>
   <g id="patch_56">
    <path d="M 36.465625 10.7 
L 371.265625 10.7 
" style="fill:none;stroke:#000000;stroke-linecap:square;stroke-linejoin:miter;stroke-width:0.8;"/>
   </g>
  </g>
 </g>
 <defs>
  <clipPath id="p8403850e14">
   <rect height="217.44" width="334.8" x="36.465625" y="10.7"/>
  </clipPath>
 </defs>
</svg>
