<svg height="336" viewBox="0 0 390.3 252" width="520.5" xmlns="http://www.w3.org/2000/svg" xmlns:xlink="http://www.w3.org/1999/xlink"><defs><style>*{stroke-linecap:butt;stroke-linejoin:round}</style></defs><g id="figure_1"><path d="M0 252h390.3V0H0z" fill="none" id="patch_1"/><g id="axes_1"><path d="M44.8 228.1h334.8V10.7H44.8z" fill="#fff" id="patch_2"/><g id="matplotlib.axis_1"><g id="xtick_1"><g id="line2d_1"><defs><path d="M0 0v3.5" id="m27a6a03b7b" stroke="#000" stroke-width=".8"/></defs><use x="85.4" xlink:href="#m27a6a03b7b" y="228.1" stroke="#000" stroke-width=".8"/></g><g id="text_1"><defs><path d="M10.6 35.5h62.6v-8.3H10.6z" id="DejaVuSans-8722"/><path d="M19.2 8.3h34.4V0H7.3v8.3l15.3 15.6q9.7 9.8 12.2 12.6 4.7 5.3 6.6 9 2 3.7 2 7.3 0 5.8-4.2 9.5-4 3.6-10.6 3.6-4.6 0-9.8-1.6-5.1-1.6-11-4.9v10q6 2.4 11.1 3.6 5.2 1.2 9.5 1.2 11.4 0 18-5.7 6.8-5.6 6.8-15 0-4.6-1.7-8.6-1.6-4-6-9.5l-7.9-8.2L19.2 8.3z" id="DejaVuSans-50"/><path d="M10.7 12.4H21V0H10.7z" id="DejaVuSans-46"/><path d="M12.4 8.3h16.1v55.6L11 60.4v9l17.4 3.5h9.9V8.3h16V0H12.5z" id="DejaVuSans-49"/><path d="M31.8 66.4q-7.6 0-11.5-7.5-3.8-7.5-3.8-22.5t3.8-22.5q3.9-7.5 11.5-7.5 7.7 0 11.5 7.5T47 36.4q0 15-3.8 22.5t-11.5 7.5zm0 7.8q12.2 0 18.7-9.7T57 36.4Q57 18 50.5 8.3 44-1.4 31.8-1.4 19.5-1.4 13 8.3q-6.5 9.7-6.5 28 0 18.5 6.5 28.2 6.4 9.7 18.7 9.7z" id="DejaVuSans-48"/></defs><g transform="matrix(.1 0 0 -.1 70 242.7)"><use xlink:href="#DejaVuSans-8722"/><use x="83.8" xlink:href="#DejaVuSans-50"/><use x="147.4" xlink:href="#DejaVuSans-46"/><use x="179.2" xlink:href="#DejaVuSans-49"/><use x="242.8" xlink:href="#DejaVuSans-48"/></g></g></g><g id="xtick_2"><use x="139.4" xlink:href="#m27a6a03b7b" y="228.1" stroke="#000" stroke-width=".8" id="line2d_2"/><g id="text_2"><defs><path d="M10.8 73h38.7v-8.4H19.8V46.7q2.2.8 4.3 1.1 2.2.4 4.3.4 12.2 0 19.4-6.7 7-6.7 7-18.1 0-11.8-7.2-18.3-7.4-6.5-20.7-6.5-4.6 0-9.4.8-4.7.7-9.8 2.3v10q4.4-2.5 9.1-3.6 4.7-1.2 9.9-1.2 8.5 0 13.4 4.4 5 4.5 5 12 0 7.7-5 12.1Q35 40 26.7 40q-4 0-7.9-.9-4-.9-8-2.7z" id="DejaVuSans-53"/></defs><g transform="matrix(.1 0 0 -.1 124 242.7)"><use xlink:href="#DejaVuSans-8722"/><use x="83.8" xlink:href="#DejaVuSans-50"/><use x="147.4" xlink:href="#DejaVuSans-46"/><use x="179.2" xlink:href="#DejaVuSans-48"/><use x="242.8" xlink:href="#DejaVuSans-53"/></g></g></g><g id="xtick_3"><use x="193.4" xlink:href="#m27a6a03b7b" y="228.1" stroke="#000" stroke-width=".8" id="line2d_3"/><g transform="matrix(.1 0 0 -.1 178 242.7)" id="text_3"><use xlink:href="#DejaVuSans-8722"/><use x="83.8" xlink:href="#DejaVuSans-50"/><use x="147.4" xlink:href="#DejaVuSans-46"/><use x="179.2" xlink:href="#DejaVuSans-48"/><use x="242.8" xlink:href="#DejaVuSans-48"/></g></g><g id="xtick_4"><use x="247.4" xlink:href="#m27a6a03b7b" y="228.1" stroke="#000" stroke-width=".8" id="line2d_4"/><g id="text_4"><defs><path d="M11 1.5v9q3.7-1.8 7.5-2.7 3.8-1 7.5-1 9.8 0 14.9 6.7 5.1 6.5 5.9 20-2.8-4.3-7.2-6.5-4.4-2.3-9.6-2.3-11 0-17.3 6.6Q6.3 38 6.3 49.4q0 11.2 6.6 18 6.7 6.8 17.7 6.8 12.7 0 19.3-9.7 6.7-9.7 6.7-28.1 0-17.3-8.2-27.5-8.2-10.3-22-10.3-3.7 0-7.5.7t-8 2.2zm19.6 31q6.6 0 10.5 4.5 4 4.5 4 12.4t-4 12.4q-3.9 4.6-10.5 4.6t-10.5-4.6q-3.9-4.5-3.9-12.4T20.1 37q3.9-4.6 10.5-4.6z" id="DejaVuSans-57"/></defs><g transform="matrix(.1 0 0 -.1 232 242.7)"><use xlink:href="#DejaVuSans-8722"/><use x="83.8" xlink:href="#DejaVuSans-49"/><use x="147.4" xlink:href="#DejaVuSans-46"/><use x="179.2" xlink:href="#DejaVuSans-57"/><use x="242.8" xlink:href="#DejaVuSans-53"/></g></g></g><g id="xtick_5"><use x="301.3" xlink:href="#m27a6a03b7b" y="228.1" stroke="#000" stroke-width=".8" id="line2d_5"/><g transform="matrix(.1 0 0 -.1 286 242.7)" id="text_5"><use xlink:href="#DejaVuSans-8722"/><use x="83.8" xlink:href="#DejaVuSans-49"/><use x="147.4" xlink:href="#DejaVuSans-46"/><use x="179.2" xlink:href="#DejaVuSans-57"/><use x="242.8" xlink:href="#DejaVuSans-48"/></g></g><g id="xtick_6"><use x="355.3" xlink:href="#m27a6a03b7b" y="228.1" stroke="#000" stroke-width=".8" id="line2d_6"/><g id="text_6"><defs><path d="M31.8 34.6q-7 0-11-3.7-4.1-3.8-4.1-10.4 0-6.6 4-10.3 4-3.8 11-3.8 7.1 0 11.2 3.8 4 3.8 4 10.3 0 6.6-4 10.4-4 3.7-11.1 3.7zm-9.9 4.2q-6.3 1.6-9.9 6Q8.5 49 8.5 55.2q0 8.8 6.2 13.8 6.3 5.1 17 5.1 11 0 17.2-5Q55 64 55 55.2q0-6.2-3.6-10.6-3.5-4.3-9.8-5.9 7.1-1.6 11.1-6.5 4-4.8 4-11.8 0-10.6-6.5-16.3-6.5-5.6-18.5-5.6T13.2 4.2Q6.8 10 6.8 20.5q0 7 4 11.8 4 4.9 11.1 6.5zm-3.6 15.6q0-5.7 3.5-8.8 3.6-3.2 10-3.2 6.3 0 10 3.2 3.5 3.1 3.5 8.8 0 5.7-3.6 8.8-3.6 3.2-10 3.2-6.3 0-9.9-3.2-3.5-3.1-3.5-8.8z" id="DejaVuSans-56"/></defs><g transform="matrix(.1 0 0 -.1 340 242.7)"><use xlink:href="#DejaVuSans-8722"/><use x="83.8" xlink:href="#DejaVuSans-49"/><use x="147.4" xlink:href="#DejaVuSans-46"/><use x="179.2" xlink:href="#DejaVuSans-56"/><use x="242.8" xlink:href="#DejaVuSans-53"/></g></g></g></g><g id="matplotlib.axis_2"><g id="ytick_1"><g id="line2d_7"><defs><path d="M0 0h-3.5" id="mdc9fac6994" stroke="#000" stroke-width=".8"/></defs><use x="44.8" xlink:href="#mdc9fac6994" y="213.7" stroke="#000" stroke-width=".8"/></g><g id="text_7"><defs><path d="M37.8 64.3l-25-39h25zM35.2 73h12.4V25.4H58v-8.2H47.6V0h-9.8v17.2h-33v9.5z" id="DejaVuSans-52"/></defs><g transform="matrix(.1 0 0 -.1 7.2 217.5)"><use xlink:href="#DejaVuSans-8722"/><use x="83.8" xlink:href="#DejaVuSans-52"/><use x="147.4" xlink:href="#DejaVuSans-46"/><use x="179.2" xlink:href="#DejaVuSans-49"/><use x="242.8" xlink:href="#DejaVuSans-48"/></g></g></g><g id="ytick_2"><use x="44.8" xlink:href="#mdc9fac6994" y="179.7" stroke="#000" stroke-width=".8" id="line2d_8"/><g transform="matrix(.1 0 0 -.1 7.2 183.5)" id="text_8"><use xlink:href="#DejaVuSans-8722"/><use x="83.8" xlink:href="#DejaVuSans-52"/><use x="147.4" xlink:href="#DejaVuSans-46"/><use x="179.2" xlink:href="#DejaVuSans-48"/><use x="242.8" xlink:href="#DejaVuSans-53"/></g></g><g id="ytick_3"><use x="44.8" xlink:href="#mdc9fac6994" y="145.7" stroke="#000" stroke-width=".8" id="line2d_9"/><g transform="matrix(.1 0 0 -.1 7.2 149.5)" id="text_9"><use xlink:href="#DejaVuSans-8722"/><use x="83.8" xlink:href="#DejaVuSans-52"/><use x="147.4" xlink:href="#DejaVuSans-46"/><use x="179.2" xlink:href="#DejaVuSans-48"/><use x="242.8" xlink:href="#DejaVuSans-48"/></g></g><g id="ytick_4"><use x="44.8" xlink:href="#mdc9fac6994" y="111.7" stroke="#000" stroke-width=".8" id="line2d_10"/><g id="text_10"><defs><path d="M40.6 39.3q7-1.5 11-6.3t4-11.8q0-10.8-7.4-16.7-7.4-6-21.1-6-4.6 0-9.4 1-4.9.9-10 2.7v9.5q4-2.4 8.9-3.6Q21.5 7 26.8 7q9.3 0 14.1 3.6 4.9 3.7 4.9 10.7 0 6.4-4.5 10Q36.8 35 28.7 35h-8.5V43h9q7.2 0 11 3 3.9 2.8 3.9 8.3 0 5.6-4 8.6t-11.4 3q-4 0-8.7-.9-4.6-.8-10.2-2.7v8.8q5.6 1.6 10.5 2.3 5 .8 9.3.8 11.2 0 17.8-5 6.5-5.2 6.5-13.9 0-6-3.5-10.2-3.4-4.2-9.8-5.8z" id="DejaVuSans-51"/></defs><g transform="matrix(.1 0 0 -.1 7.2 115.5)"><use xlink:href="#DejaVuSans-8722"/><use x="83.8" xlink:href="#DejaVuSans-51"/><use x="147.4" xlink:href="#DejaVuSans-46"/><use x="179.2" xlink:href="#DejaVuSans-57"/><use x="242.8" xlink:href="#DejaVuSans-53"/></g></g></g><g id="ytick_5"><use x="44.8" xlink:href="#mdc9fac6994" y="77.6" stroke="#000" stroke-width=".8" id="line2d_11"/><g transform="matrix(.1 0 0 -.1 7.2 81.4)" id="text_11"><use xlink:href="#DejaVuSans-8722"/><use x="83.8" xlink:href="#DejaVuSans-51"/><use x="147.4" xlink:href="#DejaVuSans-46"/><use x="179.2" xlink:href="#DejaVuSans-57"/><use x="242.8" xlink:href="#DejaVuSans-48"/></g></g><g id="ytick_6"><use x="44.8" xlink:href="#mdc9fac6994" y="43.6" stroke="#000" stroke-width=".8" id="line2d_12"/><g transform="matrix(.1 0 0 -.1 7.2 47.4)" id="text_12"><use xlink:href="#DejaVuSans-8722"/><use x="83.8" xlink:href="#DejaVuSans-51"/><use x="147.4" xlink:href="#DejaVuSans-46"/><use x="179.2" xlink:href="#DejaVuSans-56"/><use x="242.8" xlink:href="#DejaVuSans-53"/></g></g></g><path clip-path="url(#pe2793cbc00)" d="M180.1 173.3h10.2l3.3.2 6.8.8 3.4.4 3.4.3h3.4l3.3-.3 3.4-.5 6.8-1.6 6.7-2 5.4-1.8 8.2-2.9 3.6-1.5 3.8-2.2 2.7-2.2 3.4-3 3.4-2.5 3.4-2 2-1.2 1.3-1.4.7-.8 1-2.2 2.2-6.6 2-4.4 1.2-2.2 2.5-4.4 1-2.2.5-2.2-.1-2.2-.8-2.3-1.2-2-2.2-2.8-3.5-3.9-1.5-2.2-1.8-2.2-3.7-6.5-1-2.2-1.4-2.2-1.8-2.2-2.3-2.2-3.3-3.3-.8-1.1-3-4.4-2-2.2-1-1-1.5-1.2-1.8-1.1-3.4-1.4-3.4-.9-3.4-.4-10.1-.9-3.4-.7-12-3.4-1.5-.3-3.4-.6-3.4-.3H197l-3.4.5-3.3 1.2-8.1 3.9-2 .8-3.5 1-3.3.7-6.8.9-3.9 1-2.9 1-3.4 1.6-7.1 4-3.6 2.2-3 2.2-3.2 3-1.2 1.4-7.3 8.7-5 7-1.3 1.8-1 2.2-.8 2.2-.3 2.5v2l.5 2.1 1 4.4.7 2.2 1.2 2.6 1 1.8 2.7 4.4 1 2.2 3 8.8 1 2.2 1.5 2.3 1.5 2 2.2 2.3 3 2.2 3.6 2.1 6.6 3.5 3.3 1.6 6.8 2.6 3.4 1.2 3.4 1 3.4.8 3.3.3h3.4" fill="none" stroke="#222b32" stroke-width="1.5" id="LineCollection_2"/><path clip-path="url(#pe2793cbc00)" d="M186.9 164.7l3.4.3h10.1l3.4-.1 10.1.1 3.4-.2 3.4-.4 3.4-.8 3.7-1.4 8.7-4.3 1.1-.5 4.6-1.7 2.2-1.1 1.5-1.1 2.3-2.2 1.8-2.2 2.2-2.2 5.7-4.4 2-2.2 1.4-2.4.6-2 .4-2.2.2-2.2v-2.2l-.2-2.2-.3-2.2-.7-2.3-2.4-6.5-1.8-6.6-.9-2.2-1.7-2.7-1.2-1.7-2.2-2.1-3.3-3-7.9-5.8-2.8-2.2-3.2-2.2-4-2.2-2.4-1-3.8-1.2-3-.7-3.4-.6-6.7-1-3.4-.3-3.4-.2h-3.4l-4.4.6-2.4.3-3.3.6-20.3 4.6-3.5 1-3.3 1.4-3.4 1.8-3.4 2-3.3 2.3-3.4 2.7-1 .9-2.4 2.5-5.8 6.2-2.1 2.2-2.2 2.6-1.3 1.8-1 2.2-.4 2.2.3 2.2.7 2.2 2.1 4.4 4.3 8.8 2 4.9.9 1.7 1.4 2.2 1.6 2.2 3.5 4.4 2.8 2.4 3.3 2.1 5 2 15.3 5.3 3.4.7 4.2.6 2.6.3h0" fill="none" stroke="#213542" stroke-width="1.5" id="LineCollection_3"/><path clip-path="url(#pe2793cbc00)" d="M183.5 158.2l3.4.6 3.4.3 3.3.1 6.8-.2 6.8-.1h3.4l3.3-.2 3.4-.6 3.4-1 3.4-1.8 10.1-6.5 6.8-4.6 6.8-4 2.8-2.1.5-.6 1.1-1.6.5-2.2-.2-2.2-2-6.6-.2-2.2-.4-6.6-.5-4.4-.5-2.2-1.1-2.6-1.2-1.8-2.3-2.2-3.3-2.2-6.8-3.6-1.5-.7-3.6-2.2-2.8-2.2-2.9-2.2-2.7-1.4-3.4-1-3.4-.5-6.7-.2H197l-3.4.4-3.3.5-3.4.7L180 90l-3.4 1.1-3.3 1.3-3.4 1.9-13.6 9.4-3.3 3-5.2 5-1.9 2.2-1.2 2.2-.5 2.2.1 2.2.5 2.2 1.5 4.4 1.7 4.4 1.6 3.1.7 1.3 1.5 2.2 2 2.2 9.3 9.3 2.2 1.7 1.2.7 3.4 1.7 4.7 2 2 .7 3.4 1 3.4.8h0" fill="none" stroke="#213e53" stroke-width="1.5" id="LineCollection_4"/><path clip-path="url(#pe2793cbc00)" d="M186.9 153.9l3.4.5 3.3.2h3.4l3.4-.2 3.4-.2 3.4-.2 3.4-.3 1.1-.2 2.2-.4 3.4-1 1.9-.8 1.5-.7 3-1.5.4-.2 3.3-2h0l3.2-2.2.2-.2 2.9-2 .5-.4 2.7-1.8.7-.6 2.5-1.6.9-.8 1.6-1.4 1.2-2.2.2-2.2-.3-2.2-.3-2.2V125l.1-2.2.2-2.2v-2.2l-.2-2.2-.6-2.2-.9-2.2-1-1.9-.2-.3-1.8-2.2-1.4-1.1-1.3-1-2-1.4-1.6-.9-1.9-1-2.3-1.1-1-.6-3.4-1.6h-.1l-3.3-1.8-1-.4-2.4-1.3-2.5-1-.9-.3-3.3-.7-3.4-.3-3.4-.4-3.4-.2-3.4-.2-3.4.2-3.3.5-3.4.9-1.8.6-1.6.6-3 1.6-.4.1-3 2-.4.3-2.6 2-.7.6-2.2 1.5-1.2 1-2 1.2-1.4 1-2 1.2-1.4 1-1.6 1.2-1.8 1.6-.6.6-2 2.2-.8 1.6-.3.6-.5 2.2v4.4l.2 2.2.2 2.2.4 2.2v.1l.7 2.1 1 2.2 1.6 2.2.1.1 2 2 1.4 1.4.9.9 2.2 2.2.3.3 1.7 1.9 1.7 1.6.6.6 2.8 2.1h0l3.3 1.8 1 .5 2.4.9 3.4 1 1.5.3 1.9.4" fill="none" stroke="#214863" stroke-width="1.5" id="LineCollection_5"/><path clip-path="url(#pe2793cbc00)" d="M186.9 149.7l3.4.6 3.3.4h3.4l3.4-.3 3.4-.4 3.4-.5 1.9-.4 1.5-.4 3.3-.9 2.8-1 .6-.1 3.4-1.4 1.2-.6 2.2-1.2 1.6-1 1.8-1.3 1.2-1 2.1-1.7.5-.4 2.2-2.2.7-1.1.8-1.1.8-2.2.4-2.2.4-2.2.5-2.2.5-1.8.1-.4.4-2.2v-2.2l-.5-1.5-.2-.7-1.2-2.2-1.8-2.2-.2-.1-2.2-2-1.2-1-1.6-1.3-1.7-1.1-1.7-1-1.7-1-2.6-1.3-.8-.3-3.4-1.3-1.8-.5-1.6-.6-3.3-.8-3.4-.7-.6-.1-2.8-.6-3.4-.5-3.4-.2-3.4.1-3.3.7-1.2.5-2.2.8-2.6 1.4-.8.4-2.6 1.7-.8.6-2.2 1.6-1.2 1-1.4 1.2-2 1.8-.5.4-2.2 2.2-.6.9-1.2 1.3-1.4 2.2-.8 1.9-.2.3-.9 2.2-.8 2.2-.6 2.2-.3 2.2.2 2.2.7 2.2 1.4 2.2.5.5 1.6 1.7 1.8 1.8.4.4 2.1 2.2.9.9 1.1 1.3 2.2 2.2h0l3.1 2.2.3.1 3.4 1.6 1.4.5 2 .6" fill="none" stroke="#205173" stroke-width="1.5" id="LineCollection_6"/><path clip-path="url(#pe2793cbc00)" d="M186.9 145.2l3.4 1.1 3.3.5h3.4l3.4-.3 3.4-.8 3.4-.9.5-.1 2.9-.9 3.3-1 .9-.3 2.5-1 2.8-1.2.6-.4 2.7-1.8.7-.6 1.6-1.6 1.6-2.2.2-.3 1-1.9.8-2.2.8-2.2.7-2v-.2l.8-2.2.4-2.2-.3-2.2-.9-1.9-.1-.3-1.9-2.2-1.3-1.2-1.2-1-2.2-1.6-1-.6-2.4-1.3-1.9-.9-1.5-.6-3.4-1.2-1.2-.4-2.1-.6-3.4-.9-2.6-.7-.8-.1-3.4-.6-3.4-.2-3.4.2-3 .7-.3.1-3.4 1.5-1.1.6-2.3 1.6-.8.6-2.3 2.2-.3.4-1.5 1.8-1.3 2.2-.6 1-.6 1.2-.9 2.2-1 2.2-.8 2.1v.1l-1 2.2-.4 2.2.2 2.2 1 2.2.2.2 1.5 2 1.8 2.1h0l1.9 2.3 1.5 2 .2.2 2.1 2.2 1.1.8 2.2 1.4 1.2.5" fill="none" stroke="#205b83" stroke-width="1.5" id="LineCollection_7"/><path clip-path="url(#pe2793cbc00)" d="M190.3 141l3.3 1.1h3.4l3.4-.5 3.4-1 1.1-.3 2.3-.7 3.4-1 1.4-.5 2-.7 2.9-1.5.4-.3 2.2-1.9 1.2-1.3.6-.9 1.3-2.2 1.1-2.2.4-.7.6-1.5.6-2.2.2-2.2-.6-2.2-.8-1.1-1-1-2.4-2-.7-.3-2.7-1.1-3.4-.9-1.3-.2-2-.3-3.4-.7-3.4-1-.8-.2-2.6-.7-3.4-.7h-3.4l-3.3 1-.7.4-2.7 2-.2.2-1.4 2.2-1.2 2.2-.6 1.3-.3 1-.8 2.1-.8 2.2-.7 2.2-.2 2.2.3 2.2 1 2.2 1.3 2.2.2.3 1.4 1.9 1.6 2.2.4.4 2 1.8 1.4.8" fill="none" stroke="#206494" stroke-width="1.5" id="LineCollection_8"/><path clip-path="url(#pe2793cbc00)" d="M193.6 131.5l3.4.8 3.4-.2 3.4-.5.7-.1 2.7-.6 3.4-1.2.5-.4 2.8-1.8.4-.4 1.8-2.2 1.2-2 .1-.2v-1.3l-.2-.9-3.3-2.2h-.2l-3.1-.2-1.8.2-1.6.3-3.4.8-3.4.6-2.4.5-1 .3-3.4 1.4-.5.5-2 2.2-.7 2.2.8 2.2 2.4 2.2h0" fill="none" stroke="#1f6ea4" stroke-width="1.5" id="LineCollection_9"/><path d="M44.8 228.1V10.7" fill="none" stroke="#000" stroke-linecap="square" stroke-width=".8" id="patch_3"/><path d="M379.6 228.1V10.7" fill="none" stroke="#000" stroke-linecap="square" stroke-width=".8" id="patch_4"/><path d="M44.8 228.1h334.8" fill="none" stroke="#000" stroke-linecap="square" stroke-width=".8" id="patch_5"/><path d="M44.8 10.7h334.8" fill="none" stroke="#000" stroke-linecap="square" stroke-width=".8" id="patch_6"/></g></g><defs><clipPath id="pe2793cbc00"><path d="M44.8 10.7h334.8v217.4H44.8z"/></clipPath></defs></svg>