<svg viewBox="0 0 1054.8 803.7" fill="none" stroke-linecap="square" stroke-miterlimit="10" xmlns="http://www.w3.org/2000/svg"><clipPath id="a"><path d="M0 0h1054.8v803.7H0V0z"/></clipPath><g clip-path="url(#a)"><path fill="none" d="M0 0h1054.8v803.7H0z"/><path fill="none" d="M411.1 12.7h224v144h-224z"/><path stroke="#000" stroke-linejoin="round" stroke-linecap="butt" d="M411.1 12.7h224v144h-224z"/><path fill="none" d="M427.1 12.7v144"/><path stroke="#ccc" stroke-linejoin="round" stroke-linecap="butt" d="M427.1 12.7v144"/><path fill="none" d="M443.1 12.7v144"/><path stroke="#ccc" stroke-linejoin="round" stroke-linecap="butt" d="M443.1 12.7v144"/><path fill="none" d="M459.1 12.7v144"/><path stroke="#ccc" stroke-linejoin="round" stroke-linecap="butt" d="M459.1 12.7v144"/><path fill="none" d="M475.1 12.7v144"/><path stroke="#ccc" stroke-linejoin="round" stroke-linecap="butt" d="M475.1 12.7v144"/><path fill="none" d="M491.1 12.7v144"/><path stroke="#ccc" stroke-linejoin="round" stroke-linecap="butt" d="M491.1 12.7v144"/><path fill="none" d="M507.1 12.7v144"/><path stroke="#ccc" stroke-linejoin="round" stroke-linecap="butt" d="M507.1 12.7v144"/><path fill="none" d="M523.1 12.7v144"/><path stroke="#ccc" stroke-linejoin="round" stroke-linecap="butt" d="M523.1 12.7v144"/><path fill="none" d="M539.1 12.7v144"/><path stroke="#ccc" stroke-linejoin="round" stroke-linecap="butt" d="M539.1 12.7v144"/><path fill="none" d="M555.1 12.7v144"/><path stroke="#ccc" stroke-linejoin="round" stroke-linecap="butt" d="M555.1 12.7v144"/><path fill="none" d="M571.1 12.7v144"/><path stroke="#ccc" stroke-linejoin="round" stroke-linecap="butt" d="M571.1 12.7v144"/><path fill="none" d="M587.1 12.7v144"/><path stroke="#ccc" stroke-linejoin="round" stroke-linecap="butt" d="M587.1 12.7v144"/><path fill="none" d="M603.1 12.7v144"/><path stroke="#ccc" stroke-linejoin="round" stroke-linecap="butt" d="M603.1 12.7v144"/><path fill="none" d="M619.1 12.7v144"/><path stroke="#ccc" stroke-linejoin="round" stroke-linecap="butt" d="M619.1 12.7v144"/><path fill="none" d="M411.1 28.7h224"/><path stroke="#ccc" stroke-linejoin="round" stroke-linecap="butt" d="M411.1 28.7h224"/><path fill="none" d="M411.1 44.7h224"/><path stroke="#ccc" stroke-linejoin="round" stroke-linecap="butt" d="M411.1 44.7h224"/><path fill="none" d="M411.1 60.7h224"/><path stroke="#ccc" stroke-linejoin="round" stroke-linecap="butt" d="M411.1 60.7h224"/><path fill="none" d="M411.1 76.7h224"/><path stroke="#ccc" stroke-linejoin="round" stroke-linecap="butt" d="M411.1 76.7h224"/><path fill="none" d="M411.1 92.7h224"/><path stroke="#ccc" stroke-linejoin="round" stroke-linecap="butt" d="M411.1 92.7h224"/><path fill="none" d="M411.1 108.7h224"/><path stroke="#ccc" stroke-linejoin="round" stroke-linecap="butt" d="M411.1 108.7h224"/><path fill="none" d="M411.1 124.7h224"/><path stroke="#ccc" stroke-linejoin="round" stroke-linecap="butt" d="M411.1 124.7h224"/><path fill="none" d="M411.1 140.7h224"/><path stroke="#ccc" stroke-linejoin="round" stroke-linecap="butt" d="M411.1 140.7h224"/><path fill="none" d="M427.1 28.7h192v112h-192z"/><path fill="#000" d="M464.3 96.4h-5l-2-5.2H448l-1.9 5.2h-4.9l9-23h4.8l9.2 23zm-8.5-9l-3.2-8.6-3 8.5h6.2zm10.8-7.6h4.1v2.4q.8-1.2 2.2-2 1.3-.8 3-.8 2.9 0 4.9 2.3 2 2.3 2 6.3 0 4.2-2 6.5t-5 2.3q-1.3 0-2.5-.6-1-.5-2.3-1.9v8.4h-4.4V79.8zm4.4 8q0 2.8 1 4.2 1.2 1.3 2.8 1.3 1.5 0 2.5-1.2 1-1.3 1-4t-1-4q-1-1.2-2.6-1.2T472 84q-1 1.3-1 3.7zm15.2-8h4v2.4q.8-1.2 2.2-2 1.4-.8 3-.8 3 0 5 2.3t2 6.3q0 4.2-2 6.5-2.1 2.3-5 2.3-1.4 0-2.5-.6-1.1-.5-2.4-1.9v8.4h-4.3V79.8zm4.3 8q0 2.8 1.1 4.2 1.1 1.3 2.7 1.3 1.5 0 2.6-1.2 1-1.3 1-4t-1-4q-1.1-1.2-2.7-1.2t-2.6 1.2q-1.1 1.3-1.1 3.7zm15.3 8.6v-23h4.4v23h-4.4zm9-18.8v-4.1h4.3v4h-4.4zm0 18.8V79.8h4.3v16.6h-4.4zM538 84.7l-4.3.8q-.3-1.3-1-2-.8-.6-2-.6-1.7 0-2.7 1.1-1 1.1-1 3.8 0 3 1 4.2 1 1.2 2.7 1.2 1.3 0 2-.7.9-.7 1.2-2.5l4.3.8q-.7 3-2.6 4.5-1.9 1.5-5 1.5-3.7 0-5.9-2.3t-2.2-6.4q0-4.1 2.2-6.4 2.2-2.3 5.9-2.3 3 0 4.8 1.3 1.8 1.3 2.6 4zm6.6.2l-4-.8q.7-2.4 2.3-3.5 1.7-1.2 4.9-1.2 3 0 4.4.7 1.4.7 2 1.8.6 1 .6 4v5l.1 3.3.8 2.2h-4.3L551 95l-.2-.5q-1.1 1-2.4 1.6-1.3.6-2.7.6-2.6 0-4-1.4-1.5-1.4-1.5-3.5 0-1.4.6-2.5.7-1.1 1.9-1.7 1.2-.6 3.5-1 3-.6 4.3-1.1V85q0-1.2-.7-1.8-.6-.5-2.3-.5-1.2 0-1.8.5-.7.4-1.1 1.6zm5.9 3.5l-2.7.7q-1.8.4-2.4.8-.9.6-.9 1.5 0 1 .7 1.6.7.7 1.8.7 1.2 0 2.2-.8.8-.6 1-1.5.3-.5.3-2.1v-.9zm23.7 8h-4.4v-8.5q0-2.7-.3-3.4-.3-.8-.9-1.3-.6-.4-1.5-.4-1.2 0-2 .6-1 .6-1.3 1.7-.3 1-.3 3.8v7.5h-4.4V79.8h4v2.4q2.2-2.8 5.5-2.8 1.5 0 2.7.6 1.2.5 1.8 1.3.6.8.8 1.8.3 1 .3 3v10.3zm12-16.6v3.5h-3V90l.1 2.4q.1.3.4.5.3.2.8.2.6 0 1.7-.4l.4 3.4q-1.5.7-3.4.7-1.2 0-2.2-.4-1-.4-1.4-1-.4-.7-.6-1.8l-.1-3v-7.3h-2v-3.5h2v-3.3l4.4-2.6v5.9h3zm1.6 11.9l4.4-.7q.2 1.3 1.1 2 .9.6 2.4.6 1.7 0 2.6-.6.6-.5.6-1.2 0-.5-.4-.8-.3-.3-1.4-.6-5.3-1.2-6.8-2.1-2-1.4-2-3.8 0-2.1 1.8-3.6 1.7-1.5 5.3-1.5 3.4 0 5 1.1 1.7 1.1 2.3 3.3l-4.1.8q-.3-1-1-1.5-.8-.5-2.2-.5-1.7 0-2.5.5-.5.3-.5.9 0 .4.5.8.6.4 4 1.2 3.6.8 5 2 1.4 1.1 1.4 3.2 0 2.3-2 4-1.9 1.6-5.6 1.6-3.4 0-5.4-1.4-2-1.4-2.5-3.7z"/><path fill="none" d="M171.1 276.7h224v144h-224z"/><path stroke="#000" stroke-linejoin="round" stroke-linecap="butt" d="M171.1 276.7h224v144h-224z"/><path fill="none" d="M187.1 276.7v144"/><path stroke="#ccc" stroke-linejoin="round" stroke-linecap="butt" d="M187.1 276.7v144"/><path fill="none" d="M203.1 276.7v144"/><path stroke="#ccc" stroke-linejoin="round" stroke-linecap="butt" d="M203.1 276.7v144"/><path fill="none" d="M219.1 276.7v144"/><path stroke="#ccc" stroke-linejoin="round" stroke-linecap="butt" d="M219.1 276.7v144"/><path fill="none" d="M235.1 276.7v144"/><path stroke="#ccc" stroke-linejoin="round" stroke-linecap="butt" d="M235.1 276.7v144"/><path fill="none" d="M251.1 276.7v144"/><path stroke="#ccc" stroke-linejoin="round" stroke-linecap="butt" d="M251.1 276.7v144"/><path fill="none" d="M267.1 276.7v144"/><path stroke="#ccc" stroke-linejoin="round" stroke-linecap="butt" d="M267.1 276.7v144"/><path fill="none" d="M283.1 276.7v144"/><path stroke="#ccc" stroke-linejoin="round" stroke-linecap="butt" d="M283.1 276.7v144"/><path fill="none" d="M299.1 276.7v144"/><path stroke="#ccc" stroke-linejoin="round" stroke-linecap="butt" d="M299.1 276.7v144"/><path fill="none" d="M315.1 276.7v144"/><path stroke="#ccc" stroke-linejoin="round" stroke-linecap="butt" d="M315.1 276.7v144"/><path fill="none" d="M331.1 276.7v144"/><path stroke="#ccc" stroke-linejoin="round" stroke-linecap="butt" d="M331.1 276.7v144"/><path fill="none" d="M347.1 276.7v144"/><path stroke="#ccc" stroke-linejoin="round" stroke-linecap="butt" d="M347.1 276.7v144"/><path fill="none" d="M363.1 276.7v144"/><path stroke="#ccc" stroke-linejoin="round" stroke-linecap="butt" d="M363.1 276.7v144"/><path fill="none" d="M379.1 276.7v144"/><path stroke="#ccc" stroke-linejoin="round" stroke-linecap="butt" d="M379.1 276.7v144"/><path fill="none" d="M171.1 292.7h224"/><path stroke="#ccc" stroke-linejoin="round" stroke-linecap="butt" d="M171.1 292.7h224"/><path fill="none" d="M171.1 308.7h224"/><path stroke="#ccc" stroke-linejoin="round" stroke-linecap="butt" d="M171.1 308.7h224"/><path fill="none" d="M171.1 324.7h224"/><path stroke="#ccc" stroke-linejoin="round" stroke-linecap="butt" d="M171.1 324.7h224"/><path fill="none" d="M171.1 340.7h224"/><path stroke="#ccc" stroke-linejoin="round" stroke-linecap="butt" d="M171.1 340.7h224"/><path fill="none" d="M171.1 356.7h224"/><path stroke="#ccc" stroke-linejoin="round" stroke-linecap="butt" d="M171.1 356.7h224"/><path fill="none" d="M171.1 372.7h224"/><path stroke="#ccc" stroke-linejoin="round" stroke-linecap="butt" d="M171.1 372.7h224"/><path fill="none" d="M171.1 388.7h224"/><path stroke="#ccc" stroke-linejoin="round" stroke-linecap="butt" d="M171.1 388.7h224"/><path fill="none" d="M171.1 404.7h224"/><path stroke="#ccc" stroke-linejoin="round" stroke-linecap="butt" d="M171.1 404.7h224"/><path fill="none" d="M187.1 292.7h192v112h-192z"/><path fill="#000" d="M253.9 333l4.5 1.4q-1 3.7-3.5 5.6-2.4 1.8-6 1.8-4.6 0-7.6-3.1-2.9-3.1-2.9-8.6 0-5.7 3-8.8 3-3.2 7.7-3.2 4.2 0 6.9 2.5 1.5 1.5 2.3 4.2l-4.6 1q-.4-1.7-1.7-2.7-1.3-1-3.1-1-2.6 0-4.1 1.8-1.6 1.8-1.6 5.9 0 4.3 1.5 6.2 1.6 1.8 4.1 1.8 1.8 0 3.2-1.1 1.3-1.2 1.9-3.7zm12.6 8.4h-4.4v-16.6h4v2.4q1.1-1.7 2-2.2.8-.6 1.9-.6 1.5 0 2.9.9l-1.4 3.8q-1.1-.7-2-.7-1 0-1.6.5-.7.5-1 1.8-.4 1.3-.4 5.6v5zm17.9-5.3l4.3.7q-.8 2.5-2.6 3.7-1.8 1.3-4.6 1.3-4.3 0-6.4-2.9-1.6-2.2-1.6-5.7 0-4.1 2.1-6.4 2.2-2.4 5.5-2.4 3.7 0 5.8 2.5 2.2 2.4 2 7.5h-11q.1 2 1.1 3t2.6 1q1 0 1.7-.5t1-1.8zm.2-4.4q0-2-1-3t-2.3-1q-1.4 0-2.3 1.1-1 1-1 2.9h6.6zm23.2 9.7h-4.1V339q-1 1.4-2.4 2-1.4.8-2.8.8-2.9 0-5-2.3-2-2.3-2-6.5t2-6.4q2-2.2 5-2.2 2.8 0 4.9 2.3v-8.2h4.4v22.9zm-11.8-8.7q0 2.7.8 3.9 1 1.7 3 1.7 1.5 0 2.5-1.3t1-3.8q0-2.9-1-4.1-1-1.3-2.6-1.3-1.5 0-2.6 1.2-1 1.3-1 3.7zm16-10.1v-4.1h4.5v4H312zm0 18.8v-16.6h4.5v16.6H312zm16.6-16.6v3.5h-3v9.1l.5.5q.3.2.7.2.6 0 1.8-.4l.4 3.4q-1.6.7-3.5.7-1.2 0-2.2-.4-1-.4-1.4-1-.4-.7-.6-1.8l-.1-3v-7.3h-2v-3.5h2v-3.3l4.4-2.6v5.9h3zM254.8 371l4.4 1.4q-1 3.7-3.4 5.6-2.4 1.8-6 1.8-4.6 0-7.6-3.1t-3-8.6q0-5.7 3-8.8 3-3.2 7.8-3.2 4.2 0 6.8 2.5 1.6 1.5 2.4 4.2l-4.6 1q-.4-1.7-1.7-2.7-1.3-1-3.1-1-2.6 0-4.2 1.8t-1.6 5.9q0 4.3 1.6 6.2 1.6 1.8 4 1.8 2 0 3.2-1.1 1.4-1.2 2-3.7zm11.7-3.1l-4-.8q.6-2.4 2.3-3.5 1.6-1.2 4.9-1.2 2.9 0 4.3.7 1.5.7 2 1.8.6 1 .6 4v5q0 2.2.2 3.3.2 1 .8 2.2h-4.3l-.5-1.3-.1-.5q-1.2 1-2.4 1.6-1.3.6-2.8.6-2.5 0-4-1.4t-1.5-3.5q0-1.4.7-2.5t1.9-1.7q1.2-.6 3.5-1 3-.6 4.2-1.1v-.5q0-1.2-.6-1.8-.6-.5-2.4-.5-1.1 0-1.8.5-.6.4-1 1.6zm5.8 3.5l-2.6.7q-1.9.4-2.4.8-.9.6-.9 1.5 0 1 .7 1.6.7.7 1.7.7 1.2 0 2.3-.8.8-.6 1-1.5.2-.5.2-2.1v-.9zm12.9 8h-4.4v-16.6h4v2.4q1.1-1.7 2-2.2.8-.6 1.8-.6 1.5 0 3 .9l-1.4 3.8q-1.1-.7-2-.7-1 0-1.7.5-.6.5-1 1.8-.3 1.3-.3 5.6v5zm23.4 0h-4V377q-1 1.4-2.4 2-1.4.8-2.8.8-2.9 0-5-2.3-2-2.3-2-6.5t2-6.4q2-2.2 5-2.2 2.8 0 4.9 2.3v-8.2h4.3v22.9zm-11.7-8.7q0 2.7.8 3.9 1 1.7 3 1.7 1.4 0 2.5-1.3 1-1.3 1-3.8 0-2.9-1-4.1-1-1.3-2.6-1.3T298 367q-1 1.3-1 3.7zm14.5 4l4.4-.7q.3 1.3 1.2 2 .8.6 2.4.6 1.7 0 2.5-.6.6-.5.6-1.2 0-.5-.3-.8-.3-.3-1.5-.6-5.3-1.2-6.7-2.1-2-1.4-2-3.8 0-2.1 1.7-3.6t5.3-1.5q3.4 0 5 1.1 1.7 1.1 2.4 3.3l-4.2.8q-.2-1-1-1.5-.7-.5-2.1-.5-1.7 0-2.5.5-.5.3-.5.9 0 .4.4.8.6.4 4.1 1.2 3.6.8 5 2 1.3 1.1 1.3 3.2 0 2.3-1.9 4-1.9 1.6-5.6 1.6-3.4 0-5.4-1.4-2-1.4-2.6-3.7z"/><path fill="none" d="M11.1 540.7h224v144h-224z"/><path stroke="#000" stroke-linejoin="round" stroke-linecap="butt" d="M11.1 540.7h224v144h-224z"/><path fill="none" d="M27.1 540.7v144"/><path stroke="#ccc" stroke-linejoin="round" stroke-linecap="butt" d="M27.1 540.7v144"/><path fill="none" d="M43.1 540.7v144"/><path stroke="#ccc" stroke-linejoin="round" stroke-linecap="butt" d="M43.1 540.7v144"/><path fill="none" d="M59.1 540.7v144"/><path stroke="#ccc" stroke-linejoin="round" stroke-linecap="butt" d="M59.1 540.7v144"/><path fill="none" d="M75.1 540.7v144"/><path stroke="#ccc" stroke-linejoin="round" stroke-linecap="butt" d="M75.1 540.7v144"/><path fill="none" d="M91.1 540.7v144"/><path stroke="#ccc" stroke-linejoin="round" stroke-linecap="butt" d="M91.1 540.7v144"/><path fill="none" d="M107.1 540.7v144"/><path stroke="#ccc" stroke-linejoin="round" stroke-linecap="butt" d="M107.1 540.7v144"/><path fill="none" d="M123.1 540.7v144"/><path stroke="#ccc" stroke-linejoin="round" stroke-linecap="butt" d="M123.1 540.7v144"/><path fill="none" d="M139.1 540.7v144"/><path stroke="#ccc" stroke-linejoin="round" stroke-linecap="butt" d="M139.1 540.7v144"/><path fill="none" d="M155.1 540.7v144"/><path stroke="#ccc" stroke-linejoin="round" stroke-linecap="butt" d="M155.1 540.7v144"/><path fill="none" d="M171.1 540.7v144"/><path stroke="#ccc" stroke-linejoin="round" stroke-linecap="butt" d="M171.1 540.7v144"/><path fill="none" d="M187.1 540.7v144"/><path stroke="#ccc" stroke-linejoin="round" stroke-linecap="butt" d="M187.1 540.7v144"/><path fill="none" d="M203.1 540.7v144"/><path stroke="#ccc" stroke-linejoin="round" stroke-linecap="butt" d="M203.1 540.7v144"/><path fill="none" d="M219.1 540.7v144"/><path stroke="#ccc" stroke-linejoin="round" stroke-linecap="butt" d="M219.1 540.7v144"/><path fill="none" d="M11.1 556.7h224"/><path stroke="#ccc" stroke-linejoin="round" stroke-linecap="butt" d="M11.1 556.7h224"/><path fill="none" d="M11.1 572.7h224"/><path stroke="#ccc" stroke-linejoin="round" stroke-linecap="butt" d="M11.1 572.7h224"/><path fill="none" d="M11.1 588.7h224"/><path stroke="#ccc" stroke-linejoin="round" stroke-linecap="butt" d="M11.1 588.7h224"/><path fill="none" d="M11.1 604.7h224"/><path stroke="#ccc" stroke-linejoin="round" stroke-linecap="butt" d="M11.1 604.7h224"/><path fill="none" d="M11.1 620.7h224"/><path stroke="#ccc" stroke-linejoin="round" stroke-linecap="butt" d="M11.1 620.7h224"/><path fill="none" d="M11.1 636.7h224"/><path stroke="#ccc" stroke-linejoin="round" stroke-linecap="butt" d="M11.1 636.7h224"/><path fill="none" d="M11.1 652.7h224"/><path stroke="#ccc" stroke-linejoin="round" stroke-linecap="butt" d="M11.1 652.7h224"/><path fill="none" d="M11.1 668.7h224"/><path stroke="#ccc" stroke-linejoin="round" stroke-linecap="butt" d="M11.1 668.7h224"/><path fill="none" d="M27.1 556.7h192v112h-192z"/><path fill="#000" d="M55.2 601.5h9.2q2.7 0 4 .2 1.3.2 2.4 1 1 .7 1.8 1.9.7 1.2.7 2.7 0 1.6-1 3-.8 1.3-2.3 2 2.1.5 3.3 2 1 1.5 1 3.5 0 1.5-.7 3t-2 2.4q-1.2.8-3 1-1.2.2-5.6.2h-7.8v-23zm4.6 3.8v5.3h6.4q1.2-.2 1.9-.9t.7-1.8q0-1-.6-1.7t-1.8-.8l-4-.1h-2.6zm0 9.1v6.1h4.3l3.2-.1q1-.2 1.6-1 .7-.6.7-1.9 0-1-.5-1.7t-1.5-1q-.9-.4-4-.4h-3.8zm21.7-1.5l-4-.8q.7-2.4 2.4-3.5 1.6-1.2 4.8-1.2 3 0 4.4.7 1.5.7 2 1.8.6 1 .6 4v5q0 2.2.2 3.3.2 1 .8 2.2h-4.4L88 623l-.1-.5q-1.2 1-2.4 1.6-1.3.6-2.8.6-2.5 0-4-1.4t-1.5-3.5q0-1.4.7-2.5.6-1.1 1.8-1.7 1.3-.6 3.5-1 3.1-.6 4.3-1.1v-.5q0-1.2-.6-1.8-.6-.5-2.4-.5-1.1 0-1.8.5-.7.4-1 1.6zm6 3.5l-2.8.7q-1.8.4-2.3.8-1 .6-1 1.5 0 1 .8 1.6.7.7 1.7.7 1.2 0 2.3-.8.8-.6 1-1.5.2-.5.2-2.1v-.9zm8.6 8v-23h4.3v23h-4.3zm12.1-11.5l-4-.8q.7-2.4 2.4-3.5 1.6-1.2 4.8-1.2 3 0 4.4.7 1.4.7 2 1.8.6 1 .6 4v5q0 2.2.2 3.3.2 1 .8 2.2H115l-.4-1.3-.2-.5q-1 1-2.4 1.6-1.2.6-2.7.6-2.6 0-4-1.4-1.5-1.4-1.5-3.5 0-1.4.7-2.5.6-1.1 1.8-1.7 1.3-.6 3.5-1 3.1-.6 4.3-1.1v-.5q0-1.2-.6-1.8-.6-.5-2.4-.5-1.2 0-1.8.5-.7.4-1 1.6zm5.9 3.5l-2.7.7q-1.8.4-2.4.8-.8.6-.8 1.5 0 1 .7 1.6.7.7 1.7.7 1.2 0 2.3-.8.8-.6 1-1.5.2-.5.2-2.1v-.9zm23.7 8h-4.4v-8.5q0-2.7-.2-3.4-.3-.8-1-1.3-.6-.4-1.5-.4-1.1 0-2 .6-1 .6-1.3 1.7-.3 1-.3 3.8v7.5h-4.4v-16.6h4v2.4q2.3-2.8 5.6-2.8 1.4 0 2.6.6 1.2.5 1.8 1.3.7.8.9 1.8.2 1 .2 3v10.3zm19-11.7l-4.4.8q-.2-1.3-1-2-.7-.6-2-.6-1.6 0-2.6 1.1t-1 3.8q0 3 1 4.2 1 1.2 2.7 1.2 1.2 0 2-.7t1.2-2.5l4.3.8q-.7 3-2.6 4.5-2 1.5-5.1 1.5-3.7 0-5.8-2.3-2.2-2.3-2.2-6.4 0-4.1 2.2-6.4 2.2-2.3 5.9-2.3 3 0 4.8 1.3 1.8 1.3 2.6 4zm12.9 6.4l4.4.7q-.9 2.5-2.7 3.7-1.8 1.3-4.5 1.3-4.4 0-6.5-2.9-1.6-2.2-1.6-5.7 0-4.1 2.2-6.4 2.1-2.4 5.4-2.4 3.7 0 5.9 2.5 2.1 2.4 2 7.5h-11q0 2 1 3t2.6 1q1 0 1.7-.5t1.1-1.8zm.2-4.4q0-2-1-3-.9-1-2.2-1-1.5 0-2.4 1.1-1 1-1 2.9h6.6zm6.4 5l4.4-.7q.3 1.3 1.2 2 .8.6 2.4.6 1.7 0 2.6-.6.5-.5.5-1.2 0-.5-.3-.8-.3-.3-1.5-.6-5.3-1.2-6.7-2.1-2-1.4-2-3.8 0-2.1 1.7-3.6 1.8-1.5 5.3-1.5 3.4 0 5 1.1 1.7 1.1 2.4 3.3l-4.2.8q-.2-1-1-1.5-.7-.5-2-.5-1.8 0-2.6.5-.5.3-.5.9 0 .4.5.8.6.4 4 1.2 3.6.8 5 2 1.3 1.1 1.3 3.2 0 2.3-1.9 4-1.9 1.6-5.6 1.6-3.4 0-5.4-1.4-2-1.4-2.6-3.7z"/><path fill="none" d="M331.1 540.7h224v144h-224z"/><path stroke="#000" stroke-linejoin="round" stroke-linecap="butt" d="M331.1 540.7h224v144h-224z"/><path fill="none" d="M347.1 540.7v144"/><path stroke="#ccc" stroke-linejoin="round" stroke-linecap="butt" d="M347.1 540.7v144"/><path fill="none" d="M363.1 540.7v144"/><path stroke="#ccc" stroke-linejoin="round" stroke-linecap="butt" d="M363.1 540.7v144"/><path fill="none" d="M379.1 540.7v144"/><path stroke="#ccc" stroke-linejoin="round" stroke-linecap="butt" d="M379.1 540.7v144"/><path fill="none" d="M395.1 540.7v144"/><path stroke="#ccc" stroke-linejoin="round" stroke-linecap="butt" d="M395.1 540.7v144"/><path fill="none" d="M411.1 540.7v144"/><path stroke="#ccc" stroke-linejoin="round" stroke-linecap="butt" d="M411.1 540.7v144"/><path fill="none" d="M427.1 540.7v144"/><path stroke="#ccc" stroke-linejoin="round" stroke-linecap="butt" d="M427.1 540.7v144"/><path fill="none" d="M443.1 540.7v144"/><path stroke="#ccc" stroke-linejoin="round" stroke-linecap="butt" d="M443.1 540.7v144"/><path fill="none" d="M459.1 540.7v144"/><path stroke="#ccc" stroke-linejoin="round" stroke-linecap="butt" d="M459.1 540.7v144"/><path fill="none" d="M475.1 540.7v144"/><path stroke="#ccc" stroke-linejoin="round" stroke-linecap="butt" d="M475.1 540.7v144"/><path fill="none" d="M491.1 540.7v144"/><path stroke="#ccc" stroke-linejoin="round" stroke-linecap="butt" d="M491.1 540.7v144"/><path fill="none" d="M507.1 540.7v144"/><path stroke="#ccc" stroke-linejoin="round" stroke-linecap="butt" d="M507.1 540.7v144"/><path fill="none" d="M523.1 540.7v144"/><path stroke="#ccc" stroke-linejoin="round" stroke-linecap="butt" d="M523.1 540.7v144"/><path fill="none" d="M539.1 540.7v144"/><path stroke="#ccc" stroke-linejoin="round" stroke-linecap="butt" d="M539.1 540.7v144"/><path fill="none" d="M331.1 556.7h224"/><path stroke="#ccc" stroke-linejoin="round" stroke-linecap="butt" d="M331.1 556.7h224"/><path fill="none" d="M331.1 572.7h224"/><path stroke="#ccc" stroke-linejoin="round" stroke-linecap="butt" d="M331.1 572.7h224"/><path fill="none" d="M331.1 588.7h224"/><path stroke="#ccc" stroke-linejoin="round" stroke-linecap="butt" d="M331.1 588.7h224"/><path fill="none" d="M331.1 604.7h224"/><path stroke="#ccc" stroke-linejoin="round" stroke-linecap="butt" d="M331.1 604.7h224"/><path fill="none" d="M331.1 620.7h224"/><path stroke="#ccc" stroke-linejoin="round" stroke-linecap="butt" d="M331.1 620.7h224"/><path fill="none" d="M331.1 636.7h224"/><path stroke="#ccc" stroke-linejoin="round" stroke-linecap="butt" d="M331.1 636.7h224"/><path fill="none" d="M331.1 652.7h224"/><path stroke="#ccc" stroke-linejoin="round" stroke-linecap="butt" d="M331.1 652.7h224"/><path fill="none" d="M331.1 668.7h224"/><path stroke="#ccc" stroke-linejoin="round" stroke-linecap="butt" d="M331.1 668.7h224"/><path fill="none" d="M347.1 556.7h192v112h-192z"/><path fill="#000" d="M369.9 624.4v-23h7.4q4.2 0 5.5.4 2 .5 3.3 2.3 1.3 1.7 1.3 4.4 0 2.1-.8 3.6-.7 1.4-2 2.2-1 .9-2.3 1.1-1.7.4-4.8.4h-3v8.6h-4.6zm4.6-19v6.5h2.5q2.7 0 3.7-.4.9-.4 1.4-1.1.5-.8.5-1.8 0-1.3-.7-2-.7-.9-1.9-1-.8-.2-3.3-.2h-2.2zm20 7.5l-4-.8q.6-2.4 2.3-3.5 1.6-1.2 4.8-1.2 3 0 4.4.7 1.5.7 2 1.8.6 1 .6 4v5q0 2.2.2 3.3.2 1 .8 2.2h-4.4l-.4-1.3-.1-.5q-1.2 1-2.4 1.6-1.3.6-2.8.6-2.5 0-4-1.4t-1.5-3.5q0-1.4.7-2.5t1.9-1.7q1.2-.6 3.5-1 3-.6 4.2-1.1v-.5q0-1.2-.6-1.8-.6-.5-2.4-.5-1.1 0-1.8.5-.6.4-1 1.6zm5.8 3.5l-2.7.7q-1.8.4-2.3.8-.9.6-.9 1.5 0 1 .7 1.6.7.7 1.7.7 1.2 0 2.3-.8.8-.6 1-1.5.2-.5.2-2.1v-.9zm6.6-8.6h4.7l4 11.8 3.8-11.8h4.5l-5.8 16-1 2.9q-.6 1.4-1.2 2.2-.5.7-1.2 1.2-.6.5-1.6.8-1 .2-2.3.2l-2.5-.2-.4-3.5 2 .2q1.4 0 2.2-.9.7-.9 1.1-2.3l-6.3-16.6zm19.5 0h4v2.3q2.2-2.7 5.2-2.7 1.6 0 2.8.7 1.2.6 2 2 1-1.4 2.3-2 1.3-.7 2.7-.7 1.8 0 3 .8 1.4.7 2 2.1.4 1.1.4 3.5v10.6h-4.4v-9.5q0-2.5-.4-3.2-.6-1-1.9-1-.9 0-1.7.6-.8.6-1.2 1.7-.3 1-.3 3.4v8h-4.4v-9.1q0-2.4-.3-3.1-.2-.7-.7-1-.5-.4-1.3-.4-1 0-1.9.5-.8.6-1.1 1.6-.4 1-.4 3.4v8h-4.4v-16.5zm38.4 11.3l4.4.7q-.8 2.5-2.7 3.7-1.8 1.3-4.5 1.3-4.4 0-6.4-2.9-1.7-2.2-1.7-5.7 0-4.1 2.2-6.4 2.1-2.4 5.4-2.4 3.7 0 5.9 2.5 2.1 2.4 2 7.5h-11q0 2 1 3 1.1 1 2.6 1 1 0 1.8-.5.7-.5 1-1.8zm.3-4.4q0-2-1-3t-2.3-1q-1.4 0-2.4 1.1-1 1-.9 2.9h6.6zm23 9.7h-4.4v-8.5q0-2.7-.3-3.4-.3-.8-.9-1.3-.6-.4-1.5-.4-1.1 0-2 .6-1 .6-1.3 1.7-.3 1-.3 3.8v7.5H473v-16.6h4v2.4q2.2-2.8 5.5-2.8 1.5 0 2.7.6 1.2.5 1.8 1.3.6.8.9 1.8.2 1 .2 3v10.3zm12-16.6v3.5h-3v6.7l.1 2.4q.1.3.4.5.3.2.8.2.6 0 1.7-.4l.4 3.4q-1.5.7-3.4.7-1.2 0-2.2-.4-1-.4-1.4-1-.4-.7-.6-1.8l-.1-3v-7.3h-2v-3.5h2v-3.3l4.4-2.6v5.9h3zm1.6 11.9l4.4-.7q.3 1.3 1.1 2 .9.6 2.4.6 1.7 0 2.6-.6.6-.5.6-1.2 0-.5-.4-.8-.3-.3-1.4-.6-5.3-1.2-6.8-2.1-2-1.4-2-3.8 0-2.1 1.8-3.6 1.7-1.5 5.3-1.5 3.4 0 5 1.1 1.7 1.1 2.3 3.3l-4.1.8q-.3-1-1-1.5-.8-.5-2.2-.5-1.7 0-2.4.5-.5.3-.5.9 0 .4.4.8.6.4 4 1.2 3.6.8 5 2 1.4 1.1 1.4 3.2 0 2.3-2 4-1.8 1.6-5.6 1.6-3.4 0-5.4-1.4-2-1.4-2.5-3.7z"/><path fill="none" d="M651.1 276.7h224v144h-224z"/><path stroke="#000" stroke-linejoin="round" stroke-linecap="butt" d="M651.1 276.7h224v144h-224z"/><path fill="none" d="M667.1 276.7v144"/><path stroke="#ccc" stroke-linejoin="round" stroke-linecap="butt" d="M667.1 276.7v144"/><path fill="none" d="M683.1 276.7v144"/><path stroke="#ccc" stroke-linejoin="round" stroke-linecap="butt" d="M683.1 276.7v144"/><path fill="none" d="M699.1 276.7v144"/><path stroke="#ccc" stroke-linejoin="round" stroke-linecap="butt" d="M699.1 276.7v144"/><path fill="none" d="M715.1 276.7v144"/><path stroke="#ccc" stroke-linejoin="round" stroke-linecap="butt" d="M715.1 276.7v144"/><path fill="none" d="M731.1 276.7v144"/><path stroke="#ccc" stroke-linejoin="round" stroke-linecap="butt" d="M731.1 276.7v144"/><path fill="none" d="M747.1 276.7v144"/><path stroke="#ccc" stroke-linejoin="round" stroke-linecap="butt" d="M747.1 276.7v144"/><path fill="none" d="M763.1 276.7v144"/><path stroke="#ccc" stroke-linejoin="round" stroke-linecap="butt" d="M763.1 276.7v144"/><path fill="none" d="M779.1 276.7v144"/><path stroke="#ccc" stroke-linejoin="round" stroke-linecap="butt" d="M779.1 276.7v144"/><path fill="none" d="M795.1 276.7v144"/><path stroke="#ccc" stroke-linejoin="round" stroke-linecap="butt" d="M795.1 276.7v144"/><path fill="none" d="M811.1 276.7v144"/><path stroke="#ccc" stroke-linejoin="round" stroke-linecap="butt" d="M811.1 276.7v144"/><path fill="none" d="M827.1 276.7v144"/><path stroke="#ccc" stroke-linejoin="round" stroke-linecap="butt" d="M827.1 276.7v144"/><path fill="none" d="M843.1 276.7v144"/><path stroke="#ccc" stroke-linejoin="round" stroke-linecap="butt" d="M843.1 276.7v144"/><path fill="none" d="M859.1 276.7v144"/><path stroke="#ccc" stroke-linejoin="round" stroke-linecap="butt" d="M859.1 276.7v144"/><path fill="none" d="M651.1 292.7h224"/><path stroke="#ccc" stroke-linejoin="round" stroke-linecap="butt" d="M651.1 292.7h224"/><path fill="none" d="M651.1 308.7h224"/><path stroke="#ccc" stroke-linejoin="round" stroke-linecap="butt" d="M651.1 308.7h224"/><path fill="none" d="M651.1 324.7h224"/><path stroke="#ccc" stroke-linejoin="round" stroke-linecap="butt" d="M651.1 324.7h224"/><path fill="none" d="M651.1 340.7h224"/><path stroke="#ccc" stroke-linejoin="round" stroke-linecap="butt" d="M651.1 340.7h224"/><path fill="none" d="M651.1 356.7h224"/><path stroke="#ccc" stroke-linejoin="round" stroke-linecap="butt" d="M651.1 356.7h224"/><path fill="none" d="M651.1 372.7h224"/><path stroke="#ccc" stroke-linejoin="round" stroke-linecap="butt" d="M651.1 372.7h224"/><path fill="none" d="M651.1 388.7h224"/><path stroke="#ccc" stroke-linejoin="round" stroke-linecap="butt" d="M651.1 388.7h224"/><path fill="none" d="M651.1 404.7h224"/><path stroke="#ccc" stroke-linejoin="round" stroke-linecap="butt" d="M651.1 404.7h224"/><path fill="none" d="M667.1 292.7h192v112h-192z"/><path fill="#000" d="M721.8 330q0-3.4 1-5.8.9-1.7 2.2-3.1 1.4-1.4 3-2.1 2.1-.9 5-.9 5 0 8 3.1 3 3.2 3 8.8 0 5.5-3 8.7-3 3-8 3-5.1 0-8.1-3-3-3.1-3-8.6zm4.8 0q0 3.8 1.8 5.8t4.6 2q2.7 0 4.5-2 1.8-2 1.8-6 0-3.9-1.8-5.8-1.7-2-4.5-2-2.9 0-4.6 2-1.8 2-1.8 6zm28.6-5.2v3.5h-3v6.7l.1 2.4q.1.3.4.5.3.2.8.2.6 0 1.7-.4l.4 3.4q-1.5.7-3.5.7-1.2 0-2.1-.4-1-.4-1.4-1-.5-.7-.6-1.8-.2-.7-.2-3v-7.3h-2v-3.5h2v-3.3l4.4-2.6v5.9h3zm7.5-6.3v8.4q2-2.5 5-2.5 1.6 0 2.8.6 1.2.6 1.8 1.4.6.9.8 2 .3 1 .3 3.3v9.7H769v-8.8q0-2.6-.3-3.3-.2-.7-.8-1-.7-.5-1.6-.5-1.1 0-2 .5-.8.5-1.2 1.6-.4 1-.4 3.2v8.3h-4.4v-23h4.4zm24.7 17.6l4.4.7q-.8 2.5-2.7 3.7-1.8 1.3-4.5 1.3-4.3 0-6.4-2.9-1.6-2.2-1.6-5.7 0-4.1 2.1-6.4 2.2-2.4 5.5-2.4 3.7 0 5.8 2.5 2.1 2.4 2 7.5h-11q.1 2 1.1 3t2.5 1q1 0 1.8-.5.7-.5 1-1.8zm.3-4.4q0-2-1-3t-2.3-1q-1.4 0-2.3 1.1-1 1-1 2.9h6.6zm12.1 9.7h-4.4v-16.6h4.1v2.4q1-1.7 1.9-2.2.8-.6 2-.6 1.4 0 2.8.9l-1.4 3.8q-1-.7-2-.7t-1.6.5q-.6.5-1 1.8t-.4 5.6v5zM718.5 379.4v-22.7h4.6v18.8h11.5v3.9h-16.1zm18.3-8.5q0-2.2 1.1-4.3 1-2 3-3.1 2-1 4.5-1 3.7 0 6.1 2.4 2.5 2.4 2.5 6.2 0 3.7-2.5 6.2-2.4 2.5-6 2.5-2.4 0-4.5-1-2-1-3-3-1.2-2-1.2-5zm4.5.2q0 2.5 1.2 3.8 1.2 1.3 2.9 1.3t2.9-1.3q1.1-1.3 1.1-3.8t-1.1-3.8q-1.2-1.3-3-1.3-1.6 0-2.8 1.3-1.2 1.3-1.2 3.8zm19.4-3.2l-4-.8q.7-2.4 2.3-3.5 1.6-1.2 4.9-1.2 3 0 4.4.7 1.4.7 2 1.8.6 1 .6 4v5l.1 3.3q.2 1 .8 2.2h-4.3l-.5-1.3-.1-.5q-1.1 1-2.4 1.6-1.3.6-2.7.6-2.6 0-4.1-1.4-1.5-1.4-1.5-3.5 0-1.4.7-2.5t1.9-1.7q1.2-.6 3.5-1 3-.6 4.2-1.1v-.5q0-1.2-.6-1.8-.6-.5-2.3-.5-1.2 0-1.9.5-.6.4-1 1.6zm5.8 3.5l-2.6.7q-1.9.4-2.4.8-.9.6-.9 1.5 0 1 .7 1.6.7.7 1.8.7 1.2 0 2.2-.8.8-.6 1-1.5.2-.5.2-2.1v-.9zm23.8 8h-4.4v-8.5q0-2.7-.3-3.4-.3-.8-1-1.3-.5-.4-1.4-.4-1.2 0-2 .6-1 .6-1.3 1.7-.4 1-.4 3.8v7.5h-4.3v-16.6h4v2.4q2.2-2.8 5.5-2.8 1.5 0 2.7.6 1.2.5 1.8 1.3.6.8.8 1.8.3 1 .3 3v10.3zm2.9-4.7l4.4-.7q.3 1.3 1.1 2 .9.6 2.4.6 1.7 0 2.6-.6.6-.5.6-1.2 0-.5-.3-.8-.4-.3-1.5-.6-5.3-1.2-6.7-2.1-2-1.4-2-3.8 0-2.1 1.7-3.6t5.3-1.5q3.4 0 5 1.1 1.7 1.1 2.3 3.3l-4.1.8q-.3-1-1-1.5-.8-.5-2.1-.5-1.8 0-2.5.5-.5.3-.5.9 0 .4.4.8.6.4 4.1 1.2 3.5.8 5 2 1.3 1.1 1.3 3.2 0 2.3-2 4-1.8 1.6-5.6 1.6-3.3 0-5.3-1.4t-2.6-3.7z"/><path fill="none" d="M811.1 540.7h224v144h-224z"/><path stroke="#000" stroke-linejoin="round" stroke-linecap="butt" d="M811.1 540.7h224v144h-224z"/><path fill="none" d="M827.1 540.7v144"/><path stroke="#ccc" stroke-linejoin="round" stroke-linecap="butt" d="M827.1 540.7v144"/><path fill="none" d="M843.1 540.7v144"/><path stroke="#ccc" stroke-linejoin="round" stroke-linecap="butt" d="M843.1 540.7v144"/><path fill="none" d="M859.1 540.7v144"/><path stroke="#ccc" stroke-linejoin="round" stroke-linecap="butt" d="M859.1 540.7v144"/><path fill="none" d="M875.1 540.7v144"/><path stroke="#ccc" stroke-linejoin="round" stroke-linecap="butt" d="M875.1 540.7v144"/><path fill="none" d="M891.1 540.7v144"/><path stroke="#ccc" stroke-linejoin="round" stroke-linecap="butt" d="M891.1 540.7v144"/><path fill="none" d="M907.1 540.7v144"/><path stroke="#ccc" stroke-linejoin="round" stroke-linecap="butt" d="M907.1 540.7v144"/><path fill="none" d="M923.1 540.7v144"/><path stroke="#ccc" stroke-linejoin="round" stroke-linecap="butt" d="M923.1 540.7v144"/><path fill="none" d="M939.1 540.7v144"/><path stroke="#ccc" stroke-linejoin="round" stroke-linecap="butt" d="M939.1 540.7v144"/><path fill="none" d="M955.1 540.7v144"/><path stroke="#ccc" stroke-linejoin="round" stroke-linecap="butt" d="M955.1 540.7v144"/><path fill="none" d="M971.1 540.7v144"/><path stroke="#ccc" stroke-linejoin="round" stroke-linecap="butt" d="M971.1 540.7v144"/><path fill="none" d="M987.1 540.7v144"/><path stroke="#ccc" stroke-linejoin="round" stroke-linecap="butt" d="M987.1 540.7v144"/><path fill="none" d="M1003.1 540.7v144"/><path stroke="#ccc" stroke-linejoin="round" stroke-linecap="butt" d="M1003.1 540.7v144"/><path fill="none" d="M1019.1 540.7v144"/><path stroke="#ccc" stroke-linejoin="round" stroke-linecap="butt" d="M1019.1 540.7v144"/><path fill="none" d="M811.1 556.7h224"/><path stroke="#ccc" stroke-linejoin="round" stroke-linecap="butt" d="M811.1 556.7h224"/><path fill="none" d="M811.1 572.7h224"/><path stroke="#ccc" stroke-linejoin="round" stroke-linecap="butt" d="M811.1 572.7h224"/><path fill="none" d="M811.1 588.7h224"/><path stroke="#ccc" stroke-linejoin="round" stroke-linecap="butt" d="M811.1 588.7h224"/><path fill="none" d="M811.1 604.7h224"/><path stroke="#ccc" stroke-linejoin="round" stroke-linecap="butt" d="M811.1 604.7h224"/><path fill="none" d="M811.1 620.7h224"/><path stroke="#ccc" stroke-linejoin="round" stroke-linecap="butt" d="M811.1 620.7h224"/><path fill="none" d="M811.1 636.7h224"/><path stroke="#ccc" stroke-linejoin="round" stroke-linecap="butt" d="M811.1 636.7h224"/><path fill="none" d="M811.1 652.7h224"/><path stroke="#ccc" stroke-linejoin="round" stroke-linecap="butt" d="M811.1 652.7h224"/><path fill="none" d="M811.1 668.7h224"/><path stroke="#ccc" stroke-linejoin="round" stroke-linecap="butt" d="M811.1 668.7h224"/><path fill="none" d="M827.1 556.7h192v112h-192z"/><path fill="#000" d="M855.2 601.5h9.2q2.7 0 4 .2 1.3.2 2.4 1 1 .7 1.8 1.9.7 1.2.7 2.7 0 1.6-1 3-.8 1.3-2.3 2 2.1.5 3.3 2 1 1.5 1 3.5 0 1.5-.7 3t-2 2.4q-1.2.8-3 1-1.2.2-5.6.2h-7.8v-23zm4.6 3.8v5.3h6.4q1.2-.2 1.9-.9t.7-1.8q0-1-.6-1.7t-1.8-.8l-4-.1h-2.6zm0 9.1v6.1h4.3l3.2-.1q1-.2 1.6-1 .7-.6.7-1.9 0-1-.5-1.7t-1.5-1q-.9-.4-4-.4h-3.8zm21.7-1.5l-4-.8q.7-2.4 2.4-3.5 1.6-1.2 4.8-1.2 3 0 4.4.7 1.5.7 2 1.8.6 1 .6 4v5q0 2.2.2 3.3.2 1 .8 2.2h-4.4l-.4-1.3-.1-.5q-1.2 1-2.4 1.6-1.3.6-2.8.6-2.5 0-4-1.4t-1.5-3.5q0-1.4.7-2.5.6-1.1 1.8-1.7 1.3-.6 3.5-1 3.1-.6 4.3-1.1v-.5q0-1.2-.6-1.8-.6-.5-2.4-.5-1.1 0-1.8.5-.7.4-1 1.6zm6 3.5l-2.8.7q-1.8.4-2.3.8-1 .6-1 1.5 0 1 .8 1.6.7.7 1.7.7 1.2 0 2.3-.8.8-.6 1-1.5.2-.5.2-2.1v-.9zm8.6 8v-23h4.3v23h-4.3zm12.1-11.5l-4-.8q.7-2.4 2.4-3.5 1.6-1.2 4.8-1.2 3 0 4.4.7 1.4.7 2 1.8.6 1 .6 4v5q0 2.2.2 3.3.2 1 .8 2.2H915l-.4-1.3-.2-.5q-1 1-2.4 1.6-1.2.6-2.7.6-2.6 0-4-1.4-1.5-1.4-1.5-3.5 0-1.4.7-2.5.6-1.1 1.8-1.7 1.3-.6 3.5-1 3.1-.6 4.3-1.1v-.5q0-1.2-.6-1.8-.6-.5-2.4-.5-1.2 0-1.8.5-.7.4-1 1.6zm5.9 3.5l-2.7.7q-1.8.4-2.4.8-.8.6-.8 1.5 0 1 .7 1.6.7.7 1.7.7 1.2 0 2.3-.8.8-.6 1-1.5.2-.5.2-2.1v-.9zm23.7 8h-4.4v-8.5q0-2.7-.2-3.4-.3-.8-1-1.3-.6-.4-1.5-.4-1.1 0-2 .6-1 .6-1.3 1.7-.3 1-.3 3.8v7.5h-4.4v-16.6h4v2.4q2.3-2.8 5.6-2.8 1.4 0 2.6.6 1.2.5 1.8 1.3.7.8.9 1.8.2 1 .2 3v10.3zm19-11.7l-4.4.8q-.2-1.3-1-2-.7-.6-2-.6-1.6 0-2.6 1.1t-1 3.8q0 3 1 4.2 1 1.2 2.7 1.2 1.2 0 2-.7t1.2-2.5l4.3.8q-.7 3-2.6 4.5-2 1.5-5.1 1.5-3.7 0-5.8-2.3-2.2-2.3-2.2-6.4 0-4.1 2.2-6.4 2.2-2.3 5.9-2.3 3 0 4.8 1.3 1.8 1.3 2.6 4zm12.9 6.4l4.4.7q-.9 2.5-2.7 3.7-1.8 1.3-4.5 1.3-4.4 0-6.5-2.9-1.6-2.2-1.6-5.7 0-4.1 2.2-6.4 2.1-2.4 5.4-2.4 3.7 0 5.9 2.5 2.1 2.4 2 7.5h-11q0 2 1 3t2.6 1q1 0 1.7-.5t1.1-1.8zm.2-4.4q0-2-1-3-.9-1-2.2-1-1.5 0-2.4 1.1-1 1-1 2.9h6.6zm6.4 5l4.4-.7q.3 1.3 1.2 2 .8.6 2.4.6 1.7 0 2.6-.6.5-.5.5-1.2 0-.5-.3-.8-.3-.3-1.5-.6-5.3-1.2-6.7-2.1-2-1.4-2-3.8 0-2.1 1.7-3.6 1.8-1.5 5.3-1.5 3.4 0 5 1.1 1.7 1.1 2.4 3.3l-4.2.8q-.2-1-1-1.5-.7-.5-2-.5-1.8 0-2.6.5-.5.3-.5.9 0 .4.5.8.6.4 4 1.2 3.6.8 5 2 1.3 1.1 1.3 3.2 0 2.3-1.9 4-1.9 1.6-5.6 1.6-3.4 0-5.4-1.4-2-1.4-2.6-3.7z"/><path fill="none" d="M523.1 156.7l-240 120"/><path stroke="#000" stroke-width="3" stroke-linejoin="round" stroke-linecap="butt" d="M523.1 156.7l-223.9 112"/><path fill="#000" stroke="#000" stroke-width="3" stroke-linecap="butt" d="M297 264.2l-10 10.5 14.4-1.6z" fill-rule="evenodd"/><path fill="none" d="M523.1 156.7l240 120"/><path stroke="#000" stroke-width="3" stroke-linejoin="round" stroke-linecap="butt" d="M523.1 156.7l224 112"/><path fill="#000" stroke="#000" stroke-width="3" stroke-linecap="butt" d="M744.8 273l14.4 1.7-10-10.5z" fill-rule="evenodd"/><path fill="none" d="M283.1 420.7l-160 120"/><path stroke="#000" stroke-width="3" stroke-linejoin="round" stroke-linecap="butt" d="M283.1 420.7L137.5 529.9"/><path fill="#000" stroke="#000" stroke-width="3" stroke-linecap="butt" d="M134.5 526l-7.9 12 13.9-4.2z" fill-rule="evenodd"/><path fill="none" d="M283.1 420.7l160 120"/><path stroke="#000" stroke-width="3" stroke-linejoin="round" stroke-linecap="butt" d="M283.1 420.7l145.6 109.2"/><path fill="#000" stroke="#000" stroke-width="3" stroke-linecap="butt" d="M425.7 533.8l14 4.2-8-12z" fill-rule="evenodd"/><path fill="none" d="M763.1 420.7l160 120"/><path stroke="#000" stroke-width="3" stroke-linejoin="round" stroke-linecap="butt" d="M763.1 420.7l145.6 109.2"/><path fill="#000" stroke="#000" stroke-width="3" stroke-linecap="butt" d="M905.7 533.8l14 4.2-8-12z" fill-rule="evenodd"/><path fill="none" d="M523.1 156.7l-74.8 129.6"/><path stroke="#000" stroke-width="3" stroke-linejoin="round" stroke-linecap="butt" d="M523.1 156.7l-65.8 114"/><path fill="#000" stroke="#000" stroke-width="3" stroke-linecap="butt" d="M453 268.2l-2.5 14.3 11-9.3z" fill-rule="evenodd"/><path fill="none" d="M523.1 156.7v129.1"/><path stroke="#000" stroke-width="3" stroke-linejoin="round" stroke-linecap="butt" d="M523.1 156.7v111.1"/><path fill="#000" stroke="#000" stroke-width="3" stroke-linecap="butt" d="M518.2 267.8l5 13.6 4.9-13.6z" fill-rule="evenodd"/><path fill="none" d="M523.1 156.7l74.6 129.2"/><path stroke="#000" stroke-width="3" stroke-linejoin="round" stroke-linecap="butt" d="M523.1 156.7l65.6 113.6"/><path fill="#000" stroke="#000" stroke-width="3" stroke-linecap="butt" d="M584.4 272.8l11.1 9.3L593 268z" fill-rule="evenodd"/><path fill="none" d="M427.1 292.7h192v112h-192z"/><path fill="#000" d="M512 360.4V356h4.5v4.4H512zm9 0V356h4.4v4.4H521zm8.9 0V356h4.4v4.4h-4.4z"/><path fill="none" d="M443.1 684.7v59.6"/><path stroke="#000" stroke-width="3" stroke-linejoin="round" stroke-linecap="butt" d="M443.1 684.7v41.6"/><path fill="#000" stroke="#000" stroke-width="3" stroke-linecap="butt" d="M438.2 726.3l5 13.6 4.9-13.6z" fill-rule="evenodd"/><path fill="none" d="M347.1 732.7h192v48h-192z"/><path fill="#000" d="M432 768.4V764h4.5v4.4H432zm9 0V764h4.4v4.4H441zm8.9 0V764h4.4v4.4h-4.4z"/></g></svg>