<svg version="1.1" viewBox="0.0 0.0 833.5459317585302 372.2965879265092" fill="none" stroke="none" stroke-linecap="square" stroke-miterlimit="10" xmlns:xlink="http://www.w3.org/1999/xlink" xmlns="http://www.w3.org/2000/svg"><clipPath id="p.0"><path d="m0 0l833.54596 0l0 372.2966l-833.54596 0l0 -372.2966z" clip-rule="nonzero"/></clipPath><g clip-path="url(#p.0)"><path fill="#000000" fill-opacity="0.0" d="m0 0l833.54596 0l0 372.2966l-833.54596 0z" fill-rule="evenodd"/><path fill="#000000" fill-opacity="0.0" d="m127.94162 141.0447l0 0c33.93724 -58.785706 88.04381 -91.091705 120.85039 -72.15747l0 0c15.754288 9.092537 24.389236 29.026955 24.005325 55.4179c-0.38394165 26.390938 -9.755341 57.076607 -26.052567 85.30651l0 0c-33.93724 58.785706 -88.04381 91.091705 -120.850395 72.15747l0 0c-32.80658 -18.934235 -31.89 -81.93869 2.0472488 -140.72441z" fill-rule="evenodd"/><path stroke="#cccccc" stroke-width="2.0" stroke-linejoin="round" stroke-linecap="butt" d="m127.94162 141.0447l0 0c33.93724 -58.785706 88.04381 -91.091705 120.85039 -72.15747l0 0c15.754288 9.092537 24.389236 29.026955 24.005325 55.4179c-0.38394165 26.390938 -9.755341 57.076607 -26.052567 85.30651l0 0c-33.93724 58.785706 -88.04381 91.091705 -120.850395 72.15747l0 0c-32.80658 -18.934235 -31.89 -81.93869 2.0472488 -140.72441z" fill-rule="evenodd"/><path fill="#000000" fill-opacity="0.0" d="m147.74069 152.485l0 0c22.621933 -39.190475 58.68593 -60.723106 80.55118 -48.09449l0 0c10.500076 6.064476 16.254593 19.356758 15.997665 36.95269c-0.25694275 17.595932 -6.504303 38.054153 -17.367737 56.874084l0 0c-22.621933 39.190475 -58.68593 60.723114 -80.55119 48.094482l0 0c-21.86525 -12.628616 -21.251846 -54.63629 1.3700867 -93.82677z" fill-rule="evenodd"/><path stroke="#999999" stroke-width="2.0" stroke-linejoin="round" stroke-linecap="butt" d="m147.74069 152.485l0 0c22.621933 -39.190475 58.68593 -60.723106 80.55118 -48.09449l0 0c10.500076 6.064476 16.254593 19.356758 15.997665 36.95269c-0.25694275 17.595932 -6.504303 38.054153 -17.367737 56.874084l0 0c-22.621933 39.190475 -58.68593 60.723114 -80.55119 48.094482l0 0c-21.86525 -12.628616 -21.251846 -54.63629 1.3700867 -93.82677z" fill-rule="evenodd"/><path fill="#000000" fill-opacity="0.0" d="m66.49344 316.0525l0 -294.01575" fill-rule="evenodd"/><path stroke="#000000" stroke-width="2.0" stroke-linejoin="round" stroke-linecap="butt" d="m66.49344 316.0525l0 -282.01575" fill-rule="evenodd"/><path fill="#000000" stroke="#000000" stroke-width="2.0" stroke-linecap="butt" d="m69.796906 34.036743l-3.3034668 -9.076193l-3.3034668 9.076193z" fill-rule="evenodd"/><path fill="#000000" fill-opacity="0.0" d="m66.02874 315.5878l294.01575 0" fill-rule="evenodd"/><path stroke="#000000" stroke-width="2.0" stroke-linejoin="round" stroke-linecap="butt" d="m66.02874 315.5878l282.01575 0" fill-rule="evenodd"/><path fill="#000000" stroke="#000000" stroke-width="2.0" stroke-linecap="butt" d="m348.0445 318.89127l9.076202 -3.3034668l-9.076202 -3.3034668z" fill-rule="evenodd"/><path fill="#000000" fill-opacity="0.0" d="m167.23665 163.74205l0 0c11.480576 -19.87355 29.784012 -30.794983 40.881897 -24.393707l0 0c5.3293915 3.0740051 8.250412 9.813293 8.120453 18.735306c-0.12994385 8.921997 -3.3002014 19.295883 -8.81337 28.839493l0 0c-11.48056 19.873566 -29.784012 30.794998 -40.88188 24.393707l0 0c-11.097885 -6.401291 -10.787659 -27.701248 0.6929016 -47.5748z" fill-rule="evenodd"/><path stroke="#434343" stroke-width="2.0" stroke-linejoin="round" stroke-linecap="butt" d="m167.23665 163.74205l0 0c11.480576 -19.87355 29.784012 -30.794983 40.881897 -24.393707l0 0c5.3293915 3.0740051 8.250412 9.813293 8.120453 18.735306c-0.12994385 8.921997 -3.3002014 19.295883 -8.81337 28.839493l0 0c-11.48056 19.873566 -29.784012 30.794998 -40.88188 24.393707l0 0c-11.097885 -6.401291 -10.787659 -27.701248 0.6929016 -47.5748z" fill-rule="evenodd"/><path fill="#000000" fill-opacity="0.0" d="m82.12336 315.58792l261.82678 0l0 49.29135l-261.82678 0z" fill-rule="evenodd"/><path fill="#000000" d="m212.2903 347.1536l-1.921875 0l-3.21875 -5.78125l-3.34375 5.78125l-1.71875 0l4.125 -6.953125l-3.84375 -6.359375l1.8125 0l3.015625 5.09375l3.046875 -5.09375l1.734375 0l-3.84375 6.296875l4.15625 7.015625z" fill-rule="nonzero"/><path fill="#000000" d="m221.44856 354.1536l-1.0625 0l0 -5.546875q0 -0.265625 0 -0.5625q0 -0.296875 0 -0.578125q0.015625 -0.296875 0.03125 -0.5625q0.015625 -0.28125 0.015625 -0.484375q-0.109375 0.109375 -0.1875 0.1875q-0.078125 0.078125 -0.15625 0.15625q-0.078125 0.0625 -0.171875 0.15625q-0.09375 0.078125 -0.21875 0.1875l-0.90625 0.734375l-0.578125 -0.75l2.328125 -1.8125l0.90625 0l0 8.875z" fill-rule="nonzero"/><path fill="#000000" fill-opacity="0.0" d="m17.202099 299.958l0 -261.82678l49.29134 0l0 261.82678z" fill-rule="evenodd"/><path fill="#000000" d="m48.767765 169.79106l0 1.921875l-5.78125 3.21875l5.78125 3.34375l0 1.71875l-6.953125 -4.125l-6.359375 3.84375l0 -1.8125l5.09375 -3.015625l-5.09375 -3.046875l0 -1.734375l6.296875 3.84375l7.015625 -4.15625z" fill-rule="nonzero"/><path fill="#000000" d="m55.767765 158.8203l0 5.546875l-0.953125 0l-2.3125 -2.125q-0.484375 -0.453125 -0.890625 -0.8125q-0.40625 -0.359375 -0.796875 -0.609375q-0.390625 -0.265625 -0.78125 -0.390625q-0.390625 -0.140625 -0.859375 -0.140625q-0.359375 0 -0.625 0.109375q-0.28125 0.09375 -0.46875 0.296875q-0.1875 0.1875 -0.28125 0.453125q-0.109375 0.25 -0.109375 0.578125q0 0.578125 0.234375 1.046875q0.234375 0.453125 0.609375 0.875l-0.734375 0.625q-0.21875 -0.25 -0.40625 -0.515625q-0.1875 -0.28125 -0.328125 -0.609375q-0.140625 -0.328125 -0.21875 -0.6875q-0.078125 -0.359375 -0.078125 -0.75q0 -0.578125 0.171875 -1.046875q0.15625 -0.46875 0.46875 -0.796875q0.296875 -0.328125 0.734375 -0.5q0.4375 -0.1875 1.0 -0.1875q0.515625 0 0.984375 0.15625q0.453125 0.15625 0.90625 0.453125q0.453125 0.28125 0.921875 0.671875q0.453125 0.390625 0.9375 0.84375l1.8125 1.703125l0.046875 0l0 -4.1875l1.015625 0z" fill-rule="nonzero"/><path fill="#000000" d="m130.44882 219.53543l0 0c0 -5.1662445 4.18808 -9.354324 9.354324 -9.354324l0 0c2.4809265 0 4.8602295 0.98553467 6.614517 2.7398224c1.7542725 1.7542725 2.7398224 4.1335754 2.7398224 6.614502l0 0c0 5.16626 -4.18808 9.35434 -9.35434 9.35434l0 0c-5.1662445 0 -9.354324 -4.18808 -9.354324 -9.35434z" fill-rule="evenodd"/><path fill="#000000" d="m210.44882 183.32808l0 0c0 -5.1662445 4.18808 -9.354324 9.354324 -9.354324l0 0c2.4809265 0 4.8602295 0.98553467 6.614517 2.7398224c1.7542725 1.7542725 2.7398224 4.1335907 2.7398224 6.614502l0 0c0 5.16626 -4.18808 9.35434 -9.35434 9.35434l0 0c-5.1662445 0 -9.354324 -4.18808 -9.354324 -9.35434z" fill-rule="evenodd"/><path fill="#000000" d="m210.44882 99.53543l0 0c0 -5.166252 4.18808 -9.354332 9.354324 -9.354332l0 0c2.4809265 0 4.8602295 0.9855499 6.614517 2.7398224c1.7542725 1.7542801 2.7398224 4.1335907 2.7398224 6.6145096l0 0c0 5.16626 -4.18808 9.354332 -9.35434 9.354332l0 0c-5.1662445 0 -9.354324 -4.188072 -9.354324 -9.354332z" fill-rule="evenodd"/><path fill="#000000" fill-opacity="0.0" d="m420.021 63.897636l129.85828 0l0 87.2756l-129.85828 0z" fill-rule="evenodd"/><path fill="#000000" d="m490.95404 78.75014l0 2.03125l-9.21875 0l5.859375 6.234375l-5.859375 6.890625l9.703125 0l0 2.03125l-12.171875 0l0 -2.375l5.609375 -6.546875l-5.609375 -5.96875l0 -2.296875l11.6875 0z" fill-rule="nonzero"/><path fill="#000000" d="m435.07864 114.70826q0 -1.140625 0.15625 -2.25q0.171875 -1.109375 0.5 -2.140625q0.34375 -1.046875 0.859375 -2.0q0.515625 -0.96875 1.21875 -1.8125l1.578125 0q-1.28125 1.75 -1.953125 3.859375q-0.65625 2.109375 -0.65625 4.328125q0 1.078125 0.171875 2.15625q0.171875 1.078125 0.484375 2.109375q0.328125 1.015625 0.8125 1.984375q0.484375 0.96875 1.109375 1.828125l-1.546875 0q-0.703125 -0.828125 -1.21875 -1.765625q-0.515625 -0.9375 -0.859375 -1.953125q-0.328125 -1.03125 -0.5 -2.125q-0.15625 -1.09375 -0.15625 -2.21875zm10.2677 5.296875q-0.921875 0 -1.71875 -0.28125q-0.796875 -0.296875 -1.390625 -0.921875q-0.59375 -0.625 -0.9375 -1.59375q-0.328125 -0.96875 -0.328125 -2.34375q0 -1.421875 0.34375 -2.421875q0.34375 -1.0 0.953125 -1.625q0.609375 -0.625 1.421875 -0.90625q0.8125 -0.28125 1.734375 -0.28125q0.703125 0 1.375 0.15625q0.6875 0.15625 1.140625 0.390625l-0.484375 1.390625q-0.203125 -0.078125 -0.46875 -0.171875q-0.25 -0.09375 -0.53125 -0.15625q-0.265625 -0.0625 -0.53125 -0.109375q-0.265625 -0.046875 -0.5 -0.046875q-1.4375 0 -2.09375 0.921875q-0.65625 0.921875 -0.65625 2.84375q0 1.921875 0.65625 2.8125q0.671875 0.890625 2.015625 0.890625q0.75 0 1.34375 -0.171875q0.59375 -0.171875 1.078125 -0.390625l0 1.46875q-0.484375 0.265625 -1.046875 0.40625q-0.5625 0.140625 -1.375 0.140625zm12.963928 -5.203125q0 1.25 -0.3125 2.21875q-0.296875 0.96875 -0.875 1.625q-0.5625 0.65625 -1.375 1.015625q-0.796875 0.34375 -1.8125 0.34375q-0.9375 0 -1.734375 -0.34375q-0.796875 -0.359375 -1.375 -1.015625q-0.578125 -0.65625 -0.90625 -1.625q-0.3125 -0.96875 -0.3125 -2.21875q0 -1.25 0.296875 -2.203125q0.3125 -0.96875 0.875 -1.625q0.5625 -0.65625 1.375 -1.0q0.828125 -0.34375 1.828125 -0.34375q0.9375 0 1.734375 0.34375q0.796875 0.34375 1.375 1.0q0.578125 0.65625 0.890625 1.625q0.328125 0.953125 0.328125 2.203125zm-7.0 0q0 1.90625 0.625 2.875q0.625 0.953125 2.03125 0.953125q1.40625 0 2.015625 -0.953125q0.625 -0.96875 0.625 -2.875q0 -1.90625 -0.625 -2.84375q-0.625 -0.953125 -2.03125 -0.953125q-1.40625 0 -2.03125 0.953125q-0.609375 0.9375 -0.609375 2.84375zm11.454926 5.015625l-3.421875 -10.0l1.71875 0l1.8125 5.5625q0.09375 0.296875 0.234375 0.78125q0.140625 0.46875 0.265625 0.96875q0.140625 0.484375 0.25 0.921875q0.125 0.4375 0.15625 0.65625l0.0625 0q0.046875 -0.21875 0.15625 -0.65625q0.109375 -0.4375 0.234375 -0.921875q0.140625 -0.5 0.28125 -0.96875q0.140625 -0.484375 0.234375 -0.78125l1.8125 -5.5625l1.71875 0l-3.421875 10.0l-2.09375 0zm12.733307 0l-0.328125 -1.390625l-0.078125 0q-0.296875 0.421875 -0.609375 0.71875q-0.296875 0.296875 -0.65625 0.484375q-0.34375 0.1875 -0.78125 0.28125q-0.4375 0.09375 -1.015625 0.09375q-0.625 0 -1.15625 -0.1875q-0.53125 -0.171875 -0.921875 -0.53125q-0.375 -0.375 -0.59375 -0.9375q-0.21875 -0.5625 -0.21875 -1.328125q0 -1.5 1.046875 -2.296875q1.046875 -0.796875 3.203125 -0.875l1.671875 -0.0625l0 -0.625q0 -0.609375 -0.140625 -1.015625q-0.125 -0.421875 -0.375 -0.671875q-0.25 -0.25 -0.625 -0.359375q-0.359375 -0.109375 -0.828125 -0.109375q-0.765625 0 -1.421875 0.21875q-0.640625 0.21875 -1.234375 0.53125l-0.59375 -1.25q0.671875 -0.359375 1.5 -0.609375q0.84375 -0.265625 1.75 -0.265625q0.921875 0 1.59375 0.1875q0.6875 0.1875 1.125 0.59375q0.453125 0.40625 0.671875 1.03125q0.21875 0.625 0.21875 1.53125l0 6.84375l-1.203125 0zm-3.03125 -1.15625q0.546875 0 1.015625 -0.171875q0.484375 -0.171875 0.828125 -0.515625q0.34375 -0.359375 0.53125 -0.890625q0.203125 -0.53125 0.203125 -1.25l0 -0.90625l-1.296875 0.0625q-0.828125 0.03125 -1.390625 0.1875q-0.546875 0.140625 -0.875 0.40625q-0.328125 0.25 -0.484375 0.625q-0.140625 0.359375 -0.140625 0.828125q0 0.84375 0.4375 1.234375q0.453125 0.390625 1.171875 0.390625zm11.620789 -9.03125q0.265625 0 0.59375 0.03125q0.328125 0.015625 0.5625 0.0625l-0.21875 1.53125q-0.25 -0.046875 -0.515625 -0.078125q-0.265625 -0.03125 -0.5000305 -0.03125q-0.578125 0 -1.0625 0.234375q-0.46875 0.234375 -0.8125 0.671875q-0.34375 0.421875 -0.53125 1.03125q-0.171875 0.609375 -0.171875 1.34375l0 5.390625l-1.671875 0l0 -10.0l1.359375 0l0.203125 1.828125l0.0625 0q0.234375 -0.390625 0.484375 -0.75q0.265625 -0.375 0.578125 -0.640625q0.328125 -0.28125 0.734375 -0.453125q0.40625 -0.171875 0.9062805 -0.171875zm4.786194 10.1875l-1.671875 0l0 -10.0l1.671875 0l0 10.0zm-1.796875 -12.703125q0 -0.546875 0.28125 -0.796875q0.28125 -0.25 0.6875 -0.25q0.203125 0 0.375 0.0625q0.1875 0.0625 0.3125 0.1875q0.140625 0.125 0.203125 0.328125q0.078125 0.1875 0.078125 0.46875q0 0.53125 -0.28125 0.796875q-0.28125 0.25 -0.6875 0.25q-0.40625 0 -0.6875 -0.25q-0.28125 -0.265625 -0.28125 -0.796875zm10.593658 12.703125l-0.328125 -1.390625l-0.078125 0q-0.296875 0.421875 -0.609375 0.71875q-0.296875 0.296875 -0.65625 0.484375q-0.34375 0.1875 -0.78125 0.28125q-0.4375 0.09375 -1.015625 0.09375q-0.625 0 -1.15625 -0.1875q-0.53125 -0.171875 -0.921875 -0.53125q-0.375 -0.375 -0.59375 -0.9375q-0.21875 -0.5625 -0.21875 -1.328125q0 -1.5 1.046875 -2.296875q1.046875 -0.796875 3.203125 -0.875l1.671875 -0.0625l0 -0.625q0 -0.609375 -0.140625 -1.015625q-0.125 -0.421875 -0.375 -0.671875q-0.25 -0.25 -0.625 -0.359375q-0.359375 -0.109375 -0.828125 -0.109375q-0.765625 0 -1.421875 0.21875q-0.640625 0.21875 -1.234375 0.53125l-0.59375 -1.25q0.671875 -0.359375 1.5 -0.609375q0.84375 -0.265625 1.75 -0.265625q0.921875 0 1.59375 0.1875q0.6875 0.1875 1.125 0.59375q0.453125 0.40625 0.671875 1.03125q0.21875 0.625 0.21875 1.53125l0 6.84375l-1.203125 0zm-3.03125 -1.15625q0.546875 0 1.015625 -0.171875q0.484375 -0.171875 0.828125 -0.515625q0.34375 -0.359375 0.53125 -0.890625q0.203125 -0.53125 0.203125 -1.25l0 -0.90625l-1.296875 0.0625q-0.828125 0.03125 -1.390625 0.1875q-0.546875 0.140625 -0.875 0.40625q-0.328125 0.25 -0.484375 0.625q-0.140625 0.359375 -0.140625 0.828125q0 0.84375 0.4375 1.234375q0.453125 0.390625 1.171875 0.390625zm13.542664 1.15625l0 -6.4375q0 -1.1875 -0.484375 -1.78125q-0.46875 -0.59375 -1.484375 -0.59375q-0.734375 0 -1.234375 0.25q-0.5 0.234375 -0.8125 0.703125q-0.3125 0.453125 -0.4375 1.125q-0.125 0.671875 -0.125 1.546875l0 5.1875l-1.671875 0l0 -10.0l1.359375 0l0.234375 1.34375l0.09375 0q0.21875 -0.390625 0.53125 -0.671875q0.328125 -0.296875 0.6875 -0.484375q0.375 -0.1875 0.796875 -0.28125q0.421875 -0.09375 0.859375 -0.09375q1.671875 0 2.5 0.875q0.84375 0.875 0.84375 2.78125l0 6.53125l-1.65625 0zm8.564148 0.1875q-0.921875 0 -1.71875 -0.28125q-0.796875 -0.296875 -1.390625 -0.921875q-0.59375 -0.625 -0.9375 -1.59375q-0.328125 -0.96875 -0.328125 -2.34375q0 -1.421875 0.34375 -2.421875q0.34375 -1.0 0.953125 -1.625q0.609375 -0.625 1.421875 -0.90625q0.8125 -0.28125 1.734375 -0.28125q0.703125 0 1.375 0.15625q0.6875 0.15625 1.140625 0.390625l-0.484375 1.390625q-0.203125 -0.078125 -0.46875 -0.171875q-0.25 -0.09375 -0.53125 -0.15625q-0.265625 -0.0625 -0.53125 -0.109375q-0.265625 -0.046875 -0.5 -0.046875q-1.4375 0 -2.09375 0.921875q-0.65625 0.921875 -0.65625 2.84375q0 1.921875 0.65625 2.8125q0.671875 0.890625 2.015625 0.890625q0.75 0 1.34375 -0.171875q0.59375 -0.171875 1.078125 -0.390625l0 1.46875q-0.484375 0.265625 -1.046875 0.40625q-0.5625 0.140625 -1.375 0.140625zm8.760803 0q-1.0 0 -1.828125 -0.328125q-0.828125 -0.34375 -1.421875 -0.984375q-0.59375 -0.65625 -0.921875 -1.609375q-0.328125 -0.96875 -0.328125 -2.1875q0 -1.25 0.296875 -2.21875q0.296875 -0.96875 0.84375 -1.640625q0.546875 -0.6875 1.3125 -1.046875q0.765625 -0.359375 1.6875 -0.359375q0.890625 0 1.609375 0.328125q0.71875 0.328125 1.21875 0.921875q0.515625 0.578125 0.78125 1.40625q0.265625 0.8125 0.265625 1.8125l0 1.03125l-6.3125 0q0.046875 1.765625 0.75 2.59375q0.703125 0.828125 2.078125 0.828125q0.453125 0 0.84375 -0.046875q0.40625 -0.046875 0.765625 -0.125q0.375 -0.09375 0.71875 -0.21875q0.359375 -0.140625 0.703125 -0.296875l0 1.46875q-0.359375 0.171875 -0.71875 0.3125q-0.34375 0.125 -0.71875 0.203125q-0.359375 0.078125 -0.765625 0.109375q-0.390625 0.046875 -0.859375 0.046875zm-0.40625 -9.0q-1.03125 0 -1.640625 0.71875q-0.609375 0.703125 -0.703125 2.0625l4.484375 0q0 -0.625 -0.125 -1.125q-0.125 -0.515625 -0.390625 -0.875q-0.25 -0.375 -0.65625 -0.578125q-0.40625 -0.203125 -0.96875 -0.203125zm9.734009 3.703125q0 1.125 -0.171875 2.21875q-0.15625 1.09375 -0.5 2.125q-0.34375 1.015625 -0.859375 1.953125q-0.515625 0.9375 -1.21875 1.765625l-1.546875 0q0.625 -0.859375 1.109375 -1.828125q0.484375 -0.96875 0.8125 -1.984375q0.328125 -1.03125 0.484375 -2.109375q0.171875 -1.078125 0.171875 -2.15625q0 -2.21875 -0.65625 -4.328125q-0.65625 -2.109375 -1.9375 -3.859375l1.5625 0q0.703125 0.84375 1.21875 1.8125q0.515625 0.953125 0.859375 2.0q0.34375 1.03125 0.5 2.140625q0.171875 1.109375 0.171875 2.25z" fill-rule="nonzero"/><path fill="#000000" d="m170.44882 163.53543l0 0c0 -5.1662445 4.18808 -9.354324 9.354324 -9.354324l0 0c2.4809265 0 4.8602295 0.98553467 6.614517 2.7398224c1.7542725 1.7542725 2.7398224 4.1335754 2.7398224 6.614502l0 0c0 5.16626 -4.18808 9.35434 -9.35434 9.35434l0 0c-5.1662445 0 -9.354324 -4.18808 -9.354324 -9.35434z" fill-rule="evenodd"/><path fill="#000000" fill-opacity="0.0" d="m297.87015 91.66148l0 0c43.733673 -13.526176 90.53488 -13.515152 134.26215 0.03163147l-67.18216 216.85544z" fill-rule="evenodd"/><path fill="#000000" fill-opacity="0.0" d="m297.87015 91.66148l0 0c43.733673 -13.526176 90.53488 -13.515152 134.26215 0.03163147" fill-rule="evenodd"/><path stroke="#000000" stroke-width="2.0" stroke-linejoin="round" stroke-linecap="butt" d="m297.87015 91.661476l0 0c21.866852 -6.763077 44.50055 -10.141869 67.13345 -10.136536c11.316498 0.002670288 22.632751 0.85136414 33.852814 2.5460663c5.610077 0.8473511 11.196075 1.9062042 16.746063 3.176567c1.3874817 0.31758118 2.7727356 0.6483841 4.1555176 0.99240875c0.69140625 0.17201996 1.3822327 0.34733582 2.0723877 0.5259628c0.34506226 0.08930969 0.6899719 0.17943573 1.034729 0.270401l0.61901855 0.1648941" fill-rule="evenodd"/><path fill="#000000" stroke="#000000" stroke-width="2.0" stroke-linecap="butt" d="m422.87183 91.32633l6.4509583 -0.4427414l-5.2263184 -3.8074493z" fill-rule="evenodd"/><path fill="#000000" fill-opacity="0.0" d="m297.87015 221.43562l0 0c43.733673 13.526184 90.53488 13.515152 134.26215 -0.03163147l-67.18216 -216.85544z" fill-rule="evenodd"/><path fill="#000000" fill-opacity="0.0" d="m297.87015 221.43562l0 0c43.733673 13.526184 90.53488 13.515152 134.26215 -0.03163147" fill-rule="evenodd"/><path stroke="#000000" stroke-width="2.0" stroke-linejoin="round" stroke-linecap="butt" d="m297.87015 221.43564l0 0c21.866852 6.763077 44.50055 10.141876 67.13345 10.136536c11.316498 -0.0026550293 22.632751 -0.8513489 33.852814 -2.5460663c5.610077 -0.8473358 11.196075 -1.9062195 16.746063 -3.1765594c1.3874817 -0.31758118 2.7727356 -0.6483917 4.1555176 -0.99243164c0.69140625 -0.17199707 1.3822327 -0.34732056 2.0723877 -0.52593994c0.34506226 -0.08932495 0.6899719 -0.17945862 1.034729 -0.27041626l0.61901855 -0.16488647" fill-rule="evenodd"/><path fill="#000000" stroke="#000000" stroke-width="2.0" stroke-linecap="butt" d="m424.09647 226.02097l5.2263184 -3.807434l-6.4509583 -0.44274902z" fill-rule="evenodd"/><path fill="#000000" fill-opacity="0.0" d="m420.021 183.89764l129.85828 0l0 87.27557l-129.85828 0z" fill-rule="evenodd"/><path fill="#000000" d="m489.97357 203.48451l0 12.453125l-1.890625 0l0 -1.484375q-0.609375 0.9375 -1.203125 1.296875q-0.828125 0.484375 -1.921875 0.484375q-0.96875 0 -1.71875 -0.390625q-0.5625 -0.296875 -1.234375 -1.15625l0 6.015625l-2.09375 0l0 -17.21875l2.09375 0l0 5.28125q0 2.875 0.296875 3.71875q0.3125 0.84375 0.984375 1.34375q0.6875 0.484375 1.578125 0.484375q0.9375 0 1.671875 -0.515625q0.75 -0.515625 1.046875 -1.328125q0.3125 -0.8125 0.3125 -3.671875l0 -5.3125l2.078125 0z" fill-rule="nonzero"/><path fill="#000000" d="m456.29468 234.70827q0 -1.140625 0.15625 -2.25q0.171875 -1.109375 0.5 -2.140625q0.34375 -1.046875 0.859375 -2.0q0.515625 -0.96875 1.21875 -1.8125l1.578125 0q-1.28125 1.75 -1.953125 3.859375q-0.65625 2.109375 -0.65625 4.328125q0 1.078125 0.171875 2.15625q0.171875 1.078125 0.484375 2.109375q0.328125 1.015625 0.8125 1.984375q0.484375 0.96875 1.109375 1.828125l-1.546875 0q-0.703125 -0.828125 -1.21875 -1.765625q-0.515625 -0.9375 -0.859375 -1.953125q-0.328125 -1.03125 -0.5 -2.125q-0.15625 -1.09375 -0.15625 -2.21875zm18.42395 5.109375l0 -6.4375q0 -1.1875 -0.453125 -1.78125q-0.453125 -0.59375 -1.40625 -0.59375q-0.671875 0 -1.140625 0.21875q-0.453125 0.21875 -0.75 0.640625q-0.296875 0.40625 -0.4375 1.015625q-0.140625 0.609375 -0.140625 1.421875l0 5.515625l-1.671875 0l0 -6.4375q0 -1.1875 -0.453125 -1.78125q-0.4375 -0.59375 -1.390625 -0.59375q-0.703125 0 -1.1875 0.25q-0.46875 0.234375 -0.765625 0.703125q-0.28125 0.453125 -0.40625 1.125q-0.109375 0.671875 -0.109375 1.546875l0 5.1875l-1.671875 0l0 -10.0l1.359375 0l0.234375 1.34375l0.09375 0q0.21875 -0.390625 0.515625 -0.671875q0.296875 -0.296875 0.65625 -0.484375q0.359375 -0.1875 0.765625 -0.28125q0.40625 -0.09375 0.828125 -0.09375q1.09375 0 1.8125 0.40625q0.734375 0.40625 1.078125 1.25l0.0625 0q0.25 -0.421875 0.578125 -0.734375q0.328125 -0.3125 0.71875 -0.515625q0.40625 -0.203125 0.84375 -0.296875q0.4375 -0.109375 0.890625 -0.109375q1.59375 0 2.390625 0.875q0.8125 0.875 0.8125 2.78125l0 6.53125l-1.65625 0zm8.684662 0.1875q-1.0 0 -1.828125 -0.328125q-0.828125 -0.34375 -1.421875 -0.984375q-0.59375 -0.65625 -0.921875 -1.609375q-0.328125 -0.96875 -0.328125 -2.1875q0 -1.25 0.296875 -2.21875q0.296875 -0.96875 0.84375 -1.640625q0.546875 -0.6875 1.3125 -1.046875q0.765625 -0.359375 1.6875 -0.359375q0.890625 0 1.6094055 0.328125q0.71875 0.328125 1.21875 0.921875q0.515625 0.578125 0.78125 1.40625q0.265625 0.8125 0.265625 1.8125l0 1.03125l-6.3125305 0q0.046875 1.765625 0.75 2.59375q0.703125 0.828125 2.078125 0.828125q0.453125 0 0.8437805 -0.046875q0.40625 -0.046875 0.765625 -0.125q0.375 -0.09375 0.71875 -0.21875q0.359375 -0.140625 0.703125 -0.296875l0 1.46875q-0.359375 0.171875 -0.71875 0.3125q-0.34375 0.125 -0.71875 0.203125q-0.359375 0.078125 -0.765625 0.109375q-0.39065552 0.046875 -0.8594055 0.046875zm-0.40625 -9.0q-1.03125 0 -1.640625 0.71875q-0.609375 0.703125 -0.703125 2.0625l4.4844055 0q0 -0.625 -0.125 -1.125q-0.125 -0.515625 -0.390625 -0.875q-0.25 -0.375 -0.6562805 -0.578125q-0.40625 -0.203125 -0.96875 -0.203125zm12.077789 8.8125l-0.328125 -1.390625l-0.078125 0q-0.296875 0.421875 -0.609375 0.71875q-0.296875 0.296875 -0.65625 0.484375q-0.34375 0.1875 -0.78125 0.28125q-0.4375 0.09375 -1.015625 0.09375q-0.625 0 -1.15625 -0.1875q-0.53125 -0.171875 -0.921875 -0.53125q-0.375 -0.375 -0.59375 -0.9375q-0.21875 -0.5625 -0.21875 -1.328125q0 -1.5 1.046875 -2.296875q1.046875 -0.796875 3.203125 -0.875l1.671875 -0.0625l0 -0.625q0 -0.609375 -0.140625 -1.015625q-0.125 -0.421875 -0.375 -0.671875q-0.25 -0.25 -0.625 -0.359375q-0.359375 -0.109375 -0.828125 -0.109375q-0.765625 0 -1.421875 0.21875q-0.640625 0.21875 -1.234375 0.53125l-0.59375 -1.25q0.671875 -0.359375 1.5 -0.609375q0.84375 -0.265625 1.75 -0.265625q0.921875 0 1.59375 0.1875q0.6875 0.1875 1.125 0.59375q0.453125 0.40625 0.671875 1.03125q0.21875 0.625 0.21875 1.53125l0 6.84375l-1.203125 0zm-3.03125 -1.15625q0.546875 0 1.015625 -0.171875q0.484375 -0.171875 0.828125 -0.515625q0.34375 -0.359375 0.53125 -0.890625q0.203125 -0.53125 0.203125 -1.25l0 -0.90625l-1.296875 0.0625q-0.828125 0.03125 -1.390625 0.1875q-0.546875 0.140625 -0.875 0.40625q-0.328125 0.25 -0.484375 0.625q-0.140625 0.359375 -0.140625 0.828125q0 0.84375 0.4375 1.234375q0.453125 0.390625 1.171875 0.390625zm13.542633 1.15625l0 -6.4375q0 -1.1875 -0.484375 -1.78125q-0.46875 -0.59375 -1.484375 -0.59375q-0.734375 0 -1.234375 0.25q-0.5 0.234375 -0.8125 0.703125q-0.3125 0.453125 -0.4375 1.125q-0.125 0.671875 -0.125 1.546875l0 5.1875l-1.671875 0l0 -10.0l1.359375 0l0.234375 1.34375l0.09375 0q0.21875 -0.390625 0.53125 -0.671875q0.328125 -0.296875 0.6875 -0.484375q0.375 -0.1875 0.796875 -0.28125q0.421875 -0.09375 0.859375 -0.09375q1.671875 0 2.5 0.875q0.84375 0.875 0.84375 2.78125l0 6.53125l-1.65625 0zm8.032928 -5.109375q0 1.125 -0.171875 2.21875q-0.15625 1.09375 -0.5 2.125q-0.34375 1.015625 -0.859375 1.953125q-0.515625 0.9375 -1.21875 1.765625l-1.546875 0q0.625 -0.859375 1.109375 -1.828125q0.484375 -0.96875 0.8125 -1.984375q0.328125 -1.03125 0.484375 -2.109375q0.171875 -1.078125 0.171875 -2.15625q0 -2.21875 -0.65625 -4.328125q-0.65625 -2.109375 -1.9375 -3.859375l1.5625 0q0.703125 0.84375 1.21875 1.8125q0.515625 0.953125 0.859375 2.0q0.34375 1.03125 0.5 2.140625q0.171875 1.109375 0.171875 2.25z" fill-rule="nonzero"/><path fill="#000000" fill-opacity="0.0" d="m668.021 55.897636l129.85828 0l0 87.2756l-129.85828 0z" fill-rule="evenodd"/><path fill="#000000" d="m727.6552 92.70326l0 -10.5625q0 -3.53125 1.390625 -5.234375q1.40625 -1.703125 4.0625 -1.703125q2.65625 0 4.234375 1.8125q1.59375 1.796875 1.59375 4.6875q0 2.890625 -1.515625 4.703125q-1.515625 1.8125 -4.0 1.8125q-2.296875 0 -3.65625 -1.46875l0 5.953125l-2.109375 0zm5.53125 -15.75q-1.546875 0 -2.46875 1.1875q-0.921875 1.171875 -0.921875 3.734375q0 2.3125 0.90625 3.46875q0.921875 1.140625 2.484375 1.140625q1.59375 0 2.578125 -1.1875q1.0 -1.1875 1.0 -3.484375q0 -2.59375 -1.0625 -3.71875q-1.0625 -1.140625 -2.515625 -1.140625z" fill-rule="nonzero"/><path fill="#000000" d="m684.9415 106.70826q0 -1.140625 0.15625 -2.25q0.171875 -1.109375 0.5 -2.140625q0.34375 -1.046875 0.859375 -2.0q0.515625 -0.96875 1.21875 -1.8125l1.578125 0q-1.28125 1.75 -1.953125 3.859375q-0.65625 2.109375 -0.65625 4.328125q0 1.078125 0.171875 2.15625q0.171875 1.078125 0.484375 2.109375q0.328125 1.015625 0.8125 1.984375q0.484375 0.96875 1.109375 1.828125l-1.546875 0q-0.703125 -0.828125 -1.21875 -1.765625q-0.515625 -0.9375 -0.859375 -1.953125q-0.328125 -1.03125 -0.5 -2.125q-0.15625 -1.09375 -0.15625 -2.21875zm10.2677 5.296875q-0.921875 0 -1.71875 -0.28125q-0.796875 -0.296875 -1.390625 -0.921875q-0.59375 -0.625 -0.9375 -1.59375q-0.328125 -0.96875 -0.328125 -2.34375q0 -1.421875 0.34375 -2.421875q0.34375 -1.0 0.953125 -1.625q0.609375 -0.625 1.421875 -0.90625q0.8125 -0.28125 1.734375 -0.28125q0.703125 0 1.375 0.15625q0.6875 0.15625 1.140625 0.390625l-0.484375 1.390625q-0.203125 -0.078125 -0.46875 -0.171875q-0.25 -0.09375 -0.53125 -0.15625q-0.265625 -0.0625 -0.53125 -0.109375q-0.265625 -0.046875 -0.5 -0.046875q-1.4375 0 -2.09375 0.921875q-0.65625 0.921875 -0.65625 2.84375q0 1.921875 0.65625 2.8125q0.671875 0.890625 2.015625 0.890625q0.75 0 1.34375 -0.171875q0.59375 -0.171875 1.078125 -0.390625l0 1.46875q-0.484375 0.265625 -1.046875 0.40625q-0.5625 0.140625 -1.375 0.140625zm12.963928 -5.203125q0 1.25 -0.3125 2.21875q-0.296875 0.96875 -0.875 1.625q-0.5625 0.65625 -1.375 1.015625q-0.796875 0.34375 -1.8125 0.34375q-0.9375 0 -1.734375 -0.34375q-0.796875 -0.359375 -1.375 -1.015625q-0.578125 -0.65625 -0.90625 -1.625q-0.3125 -0.96875 -0.3125 -2.21875q0 -1.25 0.296875 -2.203125q0.3125 -0.96875 0.875 -1.625q0.5625 -0.65625 1.375 -1.0q0.828125 -0.34375 1.828125 -0.34375q0.9375 0 1.734375 0.34375q0.796875 0.34375 1.375 1.0q0.578125 0.65625 0.890625 1.625q0.328125 0.953125 0.328125 2.203125zm-7.0 0q0 1.90625 0.625 2.875q0.625 0.953125 2.03125 0.953125q1.40625 0 2.015625 -0.953125q0.625 -0.96875 0.625 -2.875q0 -1.90625 -0.625 -2.84375q-0.625 -0.953125 -2.03125 -0.953125q-1.40625 0 -2.03125 0.953125q-0.609375 0.9375 -0.609375 2.84375zm13.939331 -5.171875q0.265625 0 0.59375 0.03125q0.328125 0.015625 0.5625 0.0625l-0.21875 1.53125q-0.25 -0.046875 -0.515625 -0.078125q-0.265625 -0.03125 -0.5 -0.03125q-0.578125 0 -1.0625 0.234375q-0.46875 0.234375 -0.8125 0.671875q-0.34375 0.421875 -0.53125 1.03125q-0.171875 0.609375 -0.171875 1.34375l0 5.390625l-1.671875 0l0 -10.0l1.359375 0l0.203125 1.828125l0.0625 0q0.234375 -0.390625 0.484375 -0.75q0.265625 -0.375 0.578125 -0.640625q0.328125 -0.28125 0.734375 -0.453125q0.40625 -0.171875 0.90625 -0.171875zm7.442444 0q0.265625 0 0.59375 0.03125q0.328125 0.015625 0.5625 0.0625l-0.21875 1.53125q-0.25 -0.046875 -0.515625 -0.078125q-0.265625 -0.03125 -0.5 -0.03125q-0.578125 0 -1.0625 0.234375q-0.46875 0.234375 -0.8125 0.671875q-0.34375 0.421875 -0.53125 1.03125q-0.171875 0.609375 -0.171875 1.34375l0 5.390625l-1.671875 0l0 -10.0l1.359375 0l0.203125 1.828125l0.0625 0q0.234375 -0.390625 0.484375 -0.75q0.265625 -0.375 0.578125 -0.640625q0.328125 -0.28125 0.734375 -0.453125q0.40625 -0.171875 0.90625 -0.171875zm7.067444 10.375q-1.0 0 -1.828125 -0.328125q-0.828125 -0.34375 -1.421875 -0.984375q-0.59375 -0.65625 -0.921875 -1.609375q-0.328125 -0.96875 -0.328125 -2.1875q0 -1.25 0.296875 -2.21875q0.296875 -0.96875 0.84375 -1.640625q0.546875 -0.6875 1.3125 -1.046875q0.765625 -0.359375 1.6875 -0.359375q0.890625 0 1.609375 0.328125q0.71875 0.328125 1.21875 0.921875q0.515625 0.578125 0.78125 1.40625q0.265625 0.8125 0.265625 1.8125l0 1.03125l-6.3125 0q0.046875 1.765625 0.75 2.59375q0.703125 0.828125 2.078125 0.828125q0.453125 0 0.84375 -0.046875q0.40625 -0.046875 0.765625 -0.125q0.375 -0.09375 0.71875 -0.21875q0.359375 -0.140625 0.703125 -0.296875l0 1.46875q-0.359375 0.171875 -0.71875 0.3125q-0.34375 0.125 -0.71875 0.203125q-0.359375 0.078125 -0.765625 0.109375q-0.390625 0.046875 -0.859375 0.046875zm-0.40625 -9.0q-1.03125 0 -1.640625 0.71875q-0.609375 0.703125 -0.703125 2.0625l4.484375 0q0 -0.625 -0.125 -1.125q-0.125 -0.515625 -0.390625 -0.875q-0.25 -0.375 -0.65625 -0.578125q-0.40625 -0.203125 -0.96875 -0.203125zm8.109009 8.8125l-1.671875 0l0 -14.171875l1.671875 0l0 14.171875zm8.796814 0l-0.328125 -1.390625l-0.078125 0q-0.296875 0.421875 -0.609375 0.71875q-0.296875 0.296875 -0.65625 0.484375q-0.34375 0.1875 -0.78125 0.28125q-0.4375 0.09375 -1.015625 0.09375q-0.625 0 -1.15625 -0.1875q-0.53125 -0.171875 -0.921875 -0.53125q-0.375 -0.375 -0.59375 -0.9375q-0.21875 -0.5625 -0.21875 -1.328125q0 -1.5 1.046875 -2.296875q1.046875 -0.796875 3.203125 -0.875l1.671875 -0.0625l0 -0.625q0 -0.609375 -0.140625 -1.015625q-0.125 -0.421875 -0.375 -0.671875q-0.25 -0.25 -0.625 -0.359375q-0.359375 -0.109375 -0.828125 -0.109375q-0.765625 0 -1.421875 0.21875q-0.640625 0.21875 -1.234375 0.53125l-0.59375 -1.25q0.671875 -0.359375 1.5 -0.609375q0.84375 -0.265625 1.75 -0.265625q0.921875 0 1.59375 0.1875q0.6875 0.1875 1.125 0.59375q0.453125 0.40625 0.671875 1.03125q0.21875 0.625 0.21875 1.53125l0 6.84375l-1.203125 0zm-3.03125 -1.15625q0.546875 0 1.015625 -0.171875q0.484375 -0.171875 0.828125 -0.515625q0.34375 -0.359375 0.53125 -0.890625q0.203125 -0.53125 0.203125 -1.25l0 -0.90625l-1.296875 0.0625q-0.828125 0.03125 -1.390625 0.1875q-0.546875 0.140625 -0.875 0.40625q-0.328125 0.25 -0.484375 0.625q-0.140625 0.359375 -0.140625 0.828125q0 0.84375 0.4375 1.234375q0.453125 0.390625 1.171875 0.390625zm10.323914 -0.015625q0.15625 0 0.359375 -0.015625q0.21875 -0.03125 0.40625 -0.046875q0.1875 -0.03125 0.34375 -0.0625q0.171875 -0.046875 0.25 -0.0625l0 1.25q-0.125 0.0625 -0.3125 0.109375q-0.171875 0.046875 -0.390625 0.09375q-0.21875 0.046875 -0.453125 0.0625q-0.234375 0.03125 -0.46875 0.03125q-0.5625 0 -1.046875 -0.15625q-0.484375 -0.140625 -0.84375 -0.484375q-0.34375 -0.359375 -0.546875 -0.96875q-0.1875 -0.609375 -0.1875 -1.53125l0 -5.796875l-1.421875 0l0 -0.734375l1.421875 -0.71875l0.703125 -2.09375l0.953125 0l0 2.296875l2.515625 0l0 1.25l-2.515625 0l0 5.796875q0 0.890625 0.28125 1.34375q0.296875 0.4375 0.953125 0.4375zm4.9625854 1.171875l-1.671875 0l0 -10.0l1.671875 0l0 10.0zm-1.796875 -12.703125q0 -0.546875 0.28125 -0.796875q0.28125 -0.25 0.6875 -0.25q0.203125 0 0.375 0.0625q0.1875 0.0625 0.3125 0.1875q0.140625 0.125 0.203125 0.328125q0.078125 0.1875 0.078125 0.46875q0 0.53125 -0.28125 0.796875q-0.28125 0.25 -0.6875 0.25q-0.40625 0 -0.6875 -0.25q-0.28125 -0.265625 -0.28125 -0.796875zm13.109314 7.6875q0 1.25 -0.3125 2.21875q-0.296875 0.96875 -0.875 1.625q-0.5625 0.65625 -1.375 1.015625q-0.796875 0.34375 -1.8125 0.34375q-0.9375 0 -1.734375 -0.34375q-0.796875 -0.359375 -1.375 -1.015625q-0.578125 -0.65625 -0.90625 -1.625q-0.3125 -0.96875 -0.3125 -2.21875q0 -1.25 0.296875 -2.203125q0.3125 -0.96875 0.875 -1.625q0.5625 -0.65625 1.375 -1.0q0.828125 -0.34375 1.828125 -0.34375q0.9375 0 1.734375 0.34375q0.796875 0.34375 1.375 1.0q0.578125 0.65625 0.890625 1.625q0.328125 0.953125 0.328125 2.203125zm-7.0 0q0 1.90625 0.625 2.875q0.625 0.953125 2.03125 0.953125q1.40625 0 2.015625 -0.953125q0.625 -0.96875 0.625 -2.875q0 -1.90625 -0.625 -2.84375q-0.625 -0.953125 -2.03125 -0.953125q-1.40625 0 -2.03125 0.953125q-0.609375 0.9375 -0.609375 2.84375zm15.861145 5.015625l0 -6.4375q0 -1.1875 -0.484375 -1.78125q-0.46875 -0.59375 -1.484375 -0.59375q-0.734375 0 -1.234375 0.25q-0.5 0.234375 -0.8125 0.703125q-0.3125 0.453125 -0.4375 1.125q-0.125 0.671875 -0.125 1.546875l0 5.1875l-1.671875 0l0 -10.0l1.359375 0l0.234375 1.34375l0.09375 0q0.21875 -0.390625 0.53125 -0.671875q0.328125 -0.296875 0.6875 -0.484375q0.375 -0.1875 0.796875 -0.28125q0.421875 -0.09375 0.859375 -0.09375q1.671875 0 2.5 0.875q0.84375 0.875 0.84375 2.78125l0 6.53125l-1.65625 0z" fill-rule="nonzero"/><path fill="#000000" d="m691.9253 134.00514q-0.921875 0 -1.71875 -0.28125q-0.796875 -0.296875 -1.390625 -0.921875q-0.59375 -0.625 -0.9375 -1.59375q-0.328125 -0.96875 -0.328125 -2.34375q0 -1.4218826 0.34375 -2.4218826q0.34375 -1.0 0.953125 -1.625q0.609375 -0.625 1.421875 -0.90625q0.8125 -0.28125 1.734375 -0.28125q0.703125 0 1.375 0.15625q0.6875 0.15625 1.140625 0.390625l-0.484375 1.390625q-0.203125 -0.078125 -0.46875 -0.171875q-0.25 -0.09375 -0.53125 -0.15625q-0.265625 -0.0625 -0.53125 -0.109375q-0.265625 -0.046875 -0.5 -0.046875q-1.4375 0 -2.09375 0.921875q-0.65625 0.921875 -0.65625 2.8437576q0 1.921875 0.65625 2.8125q0.671875 0.890625 2.015625 0.890625q0.75 0 1.34375 -0.171875q0.59375 -0.171875 1.078125 -0.390625l0 1.46875q-0.484375 0.265625 -1.046875 0.40625q-0.5625 0.140625 -1.375 0.140625zm12.963928 -5.203125q0 1.25 -0.3125 2.21875q-0.296875 0.96875 -0.875 1.625q-0.5625 0.65625 -1.375 1.015625q-0.796875 0.34375 -1.8125 0.34375q-0.9375 0 -1.734375 -0.34375q-0.796875 -0.359375 -1.375 -1.015625q-0.578125 -0.65625 -0.90625 -1.625q-0.3125 -0.96875 -0.3125 -2.21875q0 -1.2500076 0.296875 -2.2031326q0.3125 -0.96875 0.875 -1.625q0.5625 -0.65625 1.375 -1.0q0.828125 -0.34375 1.828125 -0.34375q0.9375 0 1.734375 0.34375q0.796875 0.34375 1.375 1.0q0.578125 0.65625 0.890625 1.625q0.328125 0.953125 0.328125 2.2031326zm-7.0 0q0 1.90625 0.625 2.875q0.625 0.953125 2.03125 0.953125q1.40625 0 2.015625 -0.953125q0.625 -0.96875 0.625 -2.875q0 -1.9062576 -0.625 -2.8437576q-0.625 -0.953125 -2.03125 -0.953125q-1.40625 0 -2.03125 0.953125q-0.609375 0.9375 -0.609375 2.8437576zm13.56427 5.203125q-1.0 0 -1.828125 -0.328125q-0.828125 -0.34375 -1.421875 -0.984375q-0.59375 -0.65625 -0.921875 -1.609375q-0.328125 -0.96875 -0.328125 -2.1875q0 -1.2500076 0.296875 -2.2187576q0.296875 -0.96875 0.84375 -1.640625q0.546875 -0.6875 1.3125 -1.046875q0.765625 -0.359375 1.6875 -0.359375q0.890625 0 1.609375 0.328125q0.71875 0.328125 1.21875 0.921875q0.515625 0.578125 0.78125 1.40625q0.265625 0.8125 0.265625 1.8125076l0 1.03125l-6.3125 0q0.046875 1.765625 0.75 2.59375q0.703125 0.828125 2.078125 0.828125q0.453125 0 0.84375 -0.046875q0.40625 -0.046875 0.765625 -0.125q0.375 -0.09375 0.71875 -0.21875q0.359375 -0.140625 0.703125 -0.296875l0 1.46875q-0.359375 0.171875 -0.71875 0.3125q-0.34375 0.125 -0.71875 0.203125q-0.359375 0.078125 -0.765625 0.109375q-0.390625 0.046875 -0.859375 0.046875zm-0.40625 -9.000008q-1.03125 0 -1.640625 0.71875q-0.609375 0.703125 -0.703125 2.0625l4.484375 0q0 -0.625 -0.125 -1.125q-0.125 -0.515625 -0.390625 -0.875q-0.25 -0.375 -0.65625 -0.578125q-0.40625 -0.203125 -0.96875 -0.203125zm10.796509 0.0625l-2.234375 0l0 8.750008l-1.671875 0l0 -8.750008l-1.765625 0l0 -0.6875l1.765625 -0.625l0 -0.875q0 -0.96875 0.203125 -1.609375q0.203125 -0.640625 0.59375 -1.015625q0.390625 -0.390625 0.953125 -0.546875q0.5625 -0.171875 1.28125 -0.171875q0.53125 0 0.984375 0.109375q0.453125 0.109375 0.796875 0.234375l-0.421875 1.28125q-0.28125 -0.09375 -0.625 -0.171875q-0.328125 -0.078125 -0.6875 -0.078125q-0.359375 0 -0.625 0.09375q-0.265625 0.078125 -0.4375 0.296875q-0.171875 0.21875 -0.265625 0.59375q-0.078125 0.375 -0.078125 0.96875l0 0.953125l2.234375 0l0 1.25zm6.1398315 0l-2.234375 0l0 8.750008l-1.671875 0l0 -8.750008l-1.765625 0l0 -0.6875l1.765625 -0.625l0 -0.875q0 -0.96875 0.203125 -1.609375q0.203125 -0.640625 0.59375 -1.015625q0.390625 -0.390625 0.953125 -0.546875q0.5625 -0.171875 1.28125 -0.171875q0.53125 0 0.984375 0.109375q0.453125 0.109375 0.796875 0.234375l-0.421875 1.28125q-0.28125 -0.09375 -0.625 -0.171875q-0.328125 -0.078125 -0.6875 -0.078125q-0.359375 0 -0.625 0.09375q-0.265625 0.078125 -0.4375 0.296875q-0.171875 0.21875 -0.265625 0.59375q-0.078125 0.375 -0.078125 0.96875l0 0.953125l2.234375 0l0 1.25zm3.4522705 8.750008l-1.671875 0l0 -10.000008l1.671875 0l0 10.000008zm-1.796875 -12.703133q0 -0.546875 0.28125 -0.796875q0.28125 -0.25 0.6875 -0.25q0.203125 0 0.375 0.0625q0.1875 0.0625 0.3125 0.1875q0.140625 0.125 0.203125 0.328125q0.078125 0.1875 0.078125 0.46875q0 0.53125 -0.28125 0.796875q-0.28125 0.25 -0.6875 0.25q-0.40625 0 -0.6875 -0.25q-0.28125 -0.265625 -0.28125 -0.796875zm8.781189 12.890633q-0.921875 0 -1.71875 -0.28125q-0.796875 -0.296875 -1.390625 -0.921875q-0.59375 -0.625 -0.9375 -1.59375q-0.328125 -0.96875 -0.328125 -2.34375q0 -1.4218826 0.34375 -2.4218826q0.34375 -1.0 0.953125 -1.625q0.609375 -0.625 1.421875 -0.90625q0.8125 -0.28125 1.734375 -0.28125q0.703125 0 1.375 0.15625q0.6875 0.15625 1.140625 0.390625l-0.484375 1.390625q-0.203125 -0.078125 -0.46875 -0.171875q-0.25 -0.09375 -0.53125 -0.15625q-0.265625 -0.0625 -0.53125 -0.109375q-0.265625 -0.046875 -0.5 -0.046875q-1.4375 0 -2.09375 0.921875q-0.65625 0.921875 -0.65625 2.8437576q0 1.921875 0.65625 2.8125q0.671875 0.890625 2.015625 0.890625q0.75 0 1.34375 -0.171875q0.59375 -0.171875 1.078125 -0.390625l0 1.46875q-0.484375 0.265625 -1.046875 0.40625q-0.5625 0.140625 -1.375 0.140625zm6.479553 -0.1875l-1.671875 0l0 -10.000008l1.671875 0l0 10.000008zm-1.796875 -12.703133q0 -0.546875 0.28125 -0.796875q0.28125 -0.25 0.6875 -0.25q0.203125 0 0.375 0.0625q0.1875 0.0625 0.3125 0.1875q0.140625 0.125 0.203125 0.328125q0.078125 0.1875 0.078125 0.46875q0 0.53125 -0.28125 0.796875q-0.28125 0.25 -0.6875 0.25q-0.40625 0 -0.6875 -0.25q-0.28125 -0.265625 -0.28125 -0.796875zm8.906128 12.890633q-1.0 0 -1.828125 -0.328125q-0.828125 -0.34375 -1.421875 -0.984375q-0.59375 -0.65625 -0.921875 -1.609375q-0.328125 -0.96875 -0.328125 -2.1875q0 -1.2500076 0.296875 -2.2187576q0.296875 -0.96875 0.84375 -1.640625q0.546875 -0.6875 1.3125 -1.046875q0.765625 -0.359375 1.6875 -0.359375q0.890625 0 1.609375 0.328125q0.71875 0.328125 1.21875 0.921875q0.515625 0.578125 0.78125 1.40625q0.265625 0.8125 0.265625 1.8125076l0 1.03125l-6.3125 0q0.046875 1.765625 0.75 2.59375q0.703125 0.828125 2.078125 0.828125q0.453125 0 0.84375 -0.046875q0.40625 -0.046875 0.765625 -0.125q0.375 -0.09375 0.71875 -0.21875q0.359375 -0.140625 0.703125 -0.296875l0 1.46875q-0.359375 0.171875 -0.71875 0.3125q-0.34375 0.125 -0.71875 0.203125q-0.359375 0.078125 -0.765625 0.109375q-0.390625 0.046875 -0.859375 0.046875zm-0.40625 -9.000008q-1.03125 0 -1.640625 0.71875q-0.609375 0.703125 -0.703125 2.0625l4.484375 0q0 -0.625 -0.125 -1.125q-0.125 -0.515625 -0.390625 -0.875q-0.25 -0.375 -0.65625 -0.578125q-0.40625 -0.203125 -0.96875 -0.203125zm12.687134 8.812508l0 -6.4375076q0 -1.1875 -0.484375 -1.78125q-0.46875 -0.59375 -1.484375 -0.59375q-0.734375 0 -1.234375 0.25q-0.5 0.234375 -0.8125 0.703125q-0.3125 0.453125 -0.4375 1.125q-0.125 0.671875 -0.125 1.5468826l0 5.1875l-1.671875 0l0 -10.000008l1.359375 0l0.234375 1.34375l0.09375 0q0.21875 -0.390625 0.53125 -0.671875q0.328125 -0.296875 0.6875 -0.484375q0.375 -0.1875 0.796875 -0.28125q0.421875 -0.09375 0.859375 -0.09375q1.671875 0 2.5 0.875q0.84375 0.875 0.84375 2.78125l0 6.5312576l-1.65625 0zm7.767334 -1.171875q0.15625 0 0.359375 -0.015625q0.21875 -0.03125 0.40625 -0.046875q0.1875 -0.03125 0.34375 -0.0625q0.171875 -0.046875 0.25 -0.0625l0 1.25q-0.125 0.0625 -0.3125 0.109375q-0.171875 0.046875 -0.390625 0.09375q-0.21875 0.046875 -0.453125 0.0625q-0.234375 0.03125 -0.46875 0.03125q-0.5625 0 -1.046875 -0.15625q-0.484375 -0.140625 -0.84375 -0.484375q-0.34375 -0.359375 -0.546875 -0.96875q-0.1875 -0.609375 -0.1875 -1.53125l0 -5.7968826l-1.421875 0l0 -0.734375l1.421875 -0.71875l0.703125 -2.09375l0.953125 0l0 2.296875l2.515625 0l0 1.25l-2.515625 0l0 5.7968826q0 0.890625 0.28125 1.34375q0.296875 0.4375 0.953125 0.4375zm6.5875854 -3.9375q0 1.125 -0.171875 2.21875q-0.15625 1.09375 -0.5 2.125q-0.34375 1.015625 -0.859375 1.953125q-0.515625 0.9375 -1.21875 1.765625l-1.546875 0q0.625 -0.859375 1.109375 -1.828125q0.484375 -0.96875 0.8125 -1.984375q0.328125 -1.03125 0.484375 -2.109375q0.171875 -1.078125 0.171875 -2.15625q0 -2.2187576 -0.65625 -4.3281326q-0.65625 -2.109375 -1.9375 -3.859375l1.5625 0q0.703125 0.84375 1.21875 1.8125q0.515625 0.953125 0.859375 2.0q0.34375 1.03125 0.5 2.140625q0.171875 1.109375 0.171875 2.2500076z" fill-rule="nonzero"/><path fill="#000000" fill-opacity="0.0" d="m545.8702 91.66148l0 0c43.733643 -13.526176 90.53485 -13.515152 134.26215 0.03163147l-67.18219 216.85544z" fill-rule="evenodd"/><path fill="#000000" fill-opacity="0.0" d="m545.8702 91.66148l0 0c43.733643 -13.526176 90.53485 -13.515152 134.26215 0.03163147" fill-rule="evenodd"/><path stroke="#000000" stroke-width="2.0" stroke-linejoin="round" stroke-linecap="butt" d="m545.8702 91.661476l0 0c21.866821 -6.763077 44.50055 -10.141869 67.13342 -10.136536c11.316467 0.002670288 22.632751 0.85136414 33.852844 2.5460663c5.6100464 0.8473511 11.196045 1.9062042 16.746033 3.176567c1.3874512 0.31758118 2.772705 0.6483841 4.1555176 0.99240875c0.69140625 0.17201996 1.3822021 0.34733582 2.0723877 0.5259628c0.34503174 0.08930969 0.6899414 0.17943573 1.034729 0.270401l0.61901855 0.1648941" fill-rule="evenodd"/><path fill="#000000" stroke="#000000" stroke-width="2.0" stroke-linecap="butt" d="m670.8718 91.32633l6.450989 -0.4427414l-5.2263184 -3.8074493z" fill-rule="evenodd"/></g></svg>