<svg viewBox="0 0 833.5 372.3" fill="none" stroke-linecap="square" stroke-miterlimit="10" xmlns="http://www.w3.org/2000/svg"><clipPath id="a"><path d="M0 0h833.5v372.3H0V0z"/></clipPath><g clip-path="url(#a)"><path fill="#000" fill-opacity="0" d="M0 0h833.5v372.3H0z" fill-rule="evenodd"/><path fill="#000" fill-opacity="0" d="M128 141c33.9-58.7 88-91 120.8-72.1 15.7 9 24.4 29 24 55.4-.4 26.4-9.8 57-26 85.3-34 58.8-88.1 91.1-121 72.2-32.7-19-31.8-82 2.1-140.8z" fill-rule="evenodd"/><path stroke="#ccc" stroke-width="2" stroke-linejoin="round" stroke-linecap="butt" d="M128 141h0c33.9-58.7 88-91 120.8-72.1h0c15.7 9 24.4 29 24 55.4-.4 26.4-9.8 57-26 85.3h0c-34 58.8-88.1 91.1-121 72.2h0c-32.7-19-31.8-82 2.1-140.8z" fill-rule="evenodd"/><path fill="#000" fill-opacity="0" d="M147.7 152.5c22.7-39.2 58.7-60.7 80.6-48.1 10.5 6 16.2 19.3 16 37a122 122 0 01-17.4 56.8c-22.6 39.2-58.7 60.7-80.5 48.1-21.9-12.6-21.3-54.6 1.3-93.8z" fill-rule="evenodd"/><path stroke="#999" stroke-width="2" stroke-linejoin="round" stroke-linecap="butt" d="M147.7 152.5h0c22.7-39.2 58.7-60.7 80.6-48.1h0c10.5 6 16.2 19.3 16 37a122 122 0 01-17.4 56.8h0c-22.6 39.2-58.7 60.7-80.5 48.1h0c-21.9-12.6-21.3-54.6 1.3-93.8z" fill-rule="evenodd"/><path fill="#000" fill-opacity="0" d="M66.5 316V22" fill-rule="evenodd"/><path stroke="#000" stroke-width="2" stroke-linejoin="round" stroke-linecap="butt" d="M66.5 316V34" fill-rule="evenodd"/><path fill="#000" stroke="#000" stroke-width="2" stroke-linecap="butt" d="M69.8 34l-3.3-9-3.3 9z" fill-rule="evenodd"/><path fill="#000" fill-opacity="0" d="M66 315.6h294" fill-rule="evenodd"/><path stroke="#000" stroke-width="2" stroke-linejoin="round" stroke-linecap="butt" d="M66 315.6h282" fill-rule="evenodd"/><path fill="#000" stroke="#000" stroke-width="2" stroke-linecap="butt" d="M348 318.9l9.1-3.3-9-3.3z" fill-rule="evenodd"/><path fill="#000" fill-opacity="0" d="M167.2 163.7c11.5-19.8 29.8-30.8 41-24.4 5.2 3.1 8.2 9.9 8 18.8 0 9-3.3 19.3-8.8 28.8-11.5 19.9-29.8 30.8-40.9 24.4-11-6.4-10.7-27.7.7-47.6z" fill-rule="evenodd"/><path stroke="#434343" stroke-width="2" stroke-linejoin="round" stroke-linecap="butt" d="M167.2 163.7h0c11.5-19.8 29.8-30.8 41-24.4h0c5.2 3.1 8.2 9.9 8 18.8 0 9-3.3 19.3-8.8 28.8h0c-11.5 19.9-29.8 30.8-40.9 24.4h0c-11-6.4-10.7-27.7.7-47.6z" fill-rule="evenodd"/><path fill="#000" fill-opacity="0" d="M82.1 315.6H344v49.3H82z" fill-rule="evenodd"/><path fill="#000" d="M212.3 347.2h-2l-3.2-5.8-3.3 5.8h-1.7l4.1-7-3.8-6.4h1.8l3 5.1 3-5h1.8L208 340l4.2 7zM221.4 354.2h-1v-5.6-.6-.5-.6-.5l-.2.2-.1.2-.2.1-.2.2-1 .7-.5-.7 2.3-1.8h1v8.9z"/><path fill="#000" fill-opacity="0" d="M17.2 300V38h49.3V300z" fill-rule="evenodd"/><path fill="#000" d="M48.8 169.8v2l-5.8 3.1 5.8 3.4v1.7l-7-4.1-6.3 3.8V178l5-3-5-3V170l6.3 3.8 7-4.1zM55.8 158.8v5.6h-1l-2.3-2.2-.9-.8-.8-.6-.8-.4-.8-.1-.7.1q-.2 0-.4.3l-.3.4-.1.6q0 .6.2 1l.6 1-.7.6-.4-.5-.3-.7-.3-.6v-.8l.1-1 .5-.8q.3-.4.7-.5l1-.2 1 .1 1 .5.9.7.9.8 1.8 1.7v-4.2h1z"/><path fill="#000" d="M130.4 219.5c0-5.1 4.2-9.3 9.4-9.3a9.4 9.4 0 019.4 9.3 9.4 9.4 0 11-18.7 0zM210.4 183.3c0-5.1 4.2-9.3 9.4-9.3a9.4 9.4 0 019.4 9.3 9.4 9.4 0 11-18.7 0zM210.4 99.5c0-5.1 4.2-9.3 9.4-9.3a9.4 9.4 0 019.4 9.3 9.4 9.4 0 11-18.7 0z" fill-rule="evenodd"/><path fill="#000" fill-opacity="0" d="M420 63.9H550v87.3H420z" fill-rule="evenodd"/><path fill="#000" d="M491 78.8v2h-9.3l5.9 6.2-5.9 7h9.7v2h-12.1v-2.4l5.6-6.6-5.6-6v-2.2H491zM435 114.7l.2-2.2.5-2.2.9-2q.5-1 1.2-1.8h1.6q-1.3 1.8-2 3.9-.6 2-.6 4.3l.2 2.1.4 2.2.9 2q.4 1 1 1.8h-1.5l-1.2-1.8-.9-2-.5-2-.1-2.3zm10.3 5.3q-.9 0-1.7-.3-.8-.3-1.4-.9-.6-.6-.9-1.6-.3-1-.3-2.3 0-1.5.3-2.5.4-1 1-1.6.6-.6 1.4-.9.8-.3 1.7-.3l1.4.2q.7.1 1.1.4l-.4 1.4-.5-.2-.5-.2h-.6l-.5-.1q-1.4 0-2 1-.7.8-.7 2.7 0 2 .6 2.9.7.9 2 .9.8 0 1.4-.2l1-.4v1.5l-1 .4-1.4.1zm13-5.2q0 1.3-.3 2.2-.3 1-.9 1.6-.5.7-1.4 1-.7.4-1.8.4-.9 0-1.7-.3-.8-.4-1.4-1-.6-.7-.9-1.7-.3-1-.3-2.2 0-1.2.3-2.2.3-1 .9-1.6.5-.7 1.4-1 .8-.4 1.8-.4t1.7.4q.8.3 1.4 1 .6.6.9 1.6.3 1 .3 2.2zm-7 0q0 2 .6 2.9.7 1 2 1 1.5 0 2-1 .7-1 .7-2.9t-.6-2.8q-.6-1-2-1-1.5 0-2 1-.7.9-.7 2.8zm11.5 5l-3.5-10h1.8l1.8 5.6.2.8.3 1 .2.9.2.6.2-.6.2-1 .3-1 .2-.7 1.9-5.6h1.7l-3.4 10h-2.1zm12.7 0l-.3-1.4h-.1l-.6.7-.7.5-.8.3-1 .1q-.6 0-1.1-.2l-1-.5-.5-1q-.3-.5-.3-1.3 0-1.5 1-2.3 1.1-.8 3.3-.9h1.7v-.6q0-.6-.2-1-.1-.5-.4-.7-.2-.3-.6-.4h-.8l-1.4.1q-.7.2-1.3.6l-.6-1.3q.7-.4 1.5-.6.9-.3 1.8-.3 1 0 1.6.2.7.2 1.1.6.5.4.7 1 .2.7.2 1.6v6.8h-1.2zm-3-1.1l1-.2.8-.5q.4-.4.5-1 .2-.4.2-1.2v-.9h-1.3l-1.3.3q-.6.1-1 .4l-.4.6-.1.8q0 .9.4 1.3t1.2.4zm11.6-9h1.1l-.2 1.6-.5-.1h-.5q-.6 0-1 .2-.5.2-.9.7l-.5 1q-.2.6-.2 1.3v5.4h-1.6v-10h1.3l.2 1.8.6-.7q.2-.4.5-.6l.8-.5q.4-.2.9-.2zm4.8 10.1h-1.7v-10h1.7v10zm-1.8-12.7q0-.5.3-.8.2-.2.6-.2h.4q.2 0 .3.2.2.1.2.3l.1.5q0 .5-.3.8-.2.3-.7.3-.4 0-.6-.3-.3-.3-.3-.8zm10.6 12.7l-.4-1.4-.6.7-.7.5-.8.3-1 .1-1.2-.2-.9-.5q-.4-.4-.6-1-.2-.5-.2-1.3 0-1.5 1-2.3 1.1-.8 3.3-.9h1.6v-.6l-.1-1q-.1-.5-.4-.7-.2-.3-.6-.4h-.8l-1.5.1-1.2.6-.6-1.3q.7-.4 1.5-.6.9-.3 1.8-.3t1.6.2q.6.2 1 .6.5.4.8 1 .2.7.2 1.6v6.8h-1.2zm-3-1.1l1-.2.8-.5.5-1q.2-.4.2-1.2v-.9H496l-1.4.3q-.5.1-.8.4-.4.2-.5.6l-.2.8q0 .9.5 1.3.4.4 1.1.4zm13.5 1.1v-6.4q0-1.2-.5-1.8-.5-.6-1.5-.6-.7 0-1.2.3-.5.2-.8.7l-.5 1-.1 1.6v5.2h-1.7v-10h1.4l.2 1.4h.1q.2-.4.6-.7l.6-.5.8-.3h.9q1.7 0 2.5.8.8.9.8 2.8v6.5h-1.6zm8.5.2q-.9 0-1.7-.3-.8-.3-1.4-.9-.6-.6-.9-1.6-.3-1-.3-2.3 0-1.5.3-2.5.4-1 1-1.6.6-.6 1.4-.9.8-.3 1.7-.3l1.4.2q.7.1 1.1.4l-.4 1.4-.5-.2-.5-.2h-.6l-.5-.1q-1.4 0-2 1-.7.8-.7 2.7 0 2 .6 2.9.7.9 2 .9.8 0 1.4-.2l1-.4v1.5l-1 .4-1.4.1zm8.8 0q-1 0-1.8-.3-.8-.4-1.4-1-.6-.7-1-1.6-.3-1-.3-2.2 0-1.3.3-2.2.3-1 .8-1.7.6-.7 1.4-1 .7-.4 1.6-.4 1 0 1.7.4.7.3 1.2.9.5.6.8 1.4.2.8.2 1.8v1h-6.3q0 1.8.8 2.6.7.9 2 .9h.9l.7-.2.8-.2.7-.3v1.4l-.7.3-.8.2-.7.2h-.9zm-.4-9q-1 0-1.6.7-.6.7-.7 2h4.4v-1l-.5-1q-.2-.3-.6-.5-.4-.2-1-.2zm9.7 3.7l-.1 2.2-.5 2.2-.9 2-1.2 1.7h-1.6q.7-.9 1.1-1.9l.9-2 .4-2 .2-2.2q0-2.2-.6-4.3-.7-2.1-2-3.9h1.6q.7.8 1.2 1.8l.9 2 .5 2.2.1 2.2z"/><path fill="#000" d="M170.4 163.5c0-5.1 4.2-9.3 9.4-9.3a9.4 9.4 0 019.4 9.3 9.4 9.4 0 11-18.7 0z" fill-rule="evenodd"/><path fill="#000" fill-opacity="0" d="M297.9 91.7a227 227 0 01134.2 0L365 308.5zM297.9 91.7a227 227 0 01134.2 0" fill-rule="evenodd"/><path stroke="#000" stroke-width="2" stroke-linejoin="round" stroke-linecap="butt" d="M297.9 91.7h0a227 227 0 01125-2.7l.6.2" fill-rule="evenodd"/><path fill="#000" stroke="#000" stroke-width="2" stroke-linecap="butt" d="M422.9 91.3l6.4-.4-5.2-3.8z" fill-rule="evenodd"/><path fill="#000" fill-opacity="0" d="M297.9 221.4a227 227 0 00134.2 0L365 4.5zM297.9 221.4a227 227 0 00134.2 0" fill-rule="evenodd"/><path stroke="#000" stroke-width="2" stroke-linejoin="round" stroke-linecap="butt" d="M297.9 221.4h0a227 227 0 00125 2.7l.6-.2" fill-rule="evenodd"/><path fill="#000" stroke="#000" stroke-width="2" stroke-linecap="butt" d="M424.1 226l5.2-3.8-6.4-.4z" fill-rule="evenodd"/><path fill="#000" fill-opacity="0" d="M420 183.9H550v87.3H420z" fill-rule="evenodd"/><path fill="#000" d="M490 203.5v12.4h-2v-1.4q-.5.9-1.1 1.3-.8.4-2 .4-1 0-1.7-.4-.5-.3-1.2-1.1v6h-2v-17.2h2v5.3q0 2.8.3 3.7.3.8 1 1.3t1.6.5q.9 0 1.6-.5.8-.5 1-1.3.4-.8.4-3.7v-5.3h2zM456.3 234.7l.2-2.2q.1-1.2.5-2.2l.8-2q.5-1 1.2-1.8h1.6q-1.3 1.8-2 3.9-.6 2-.6 4.3l.2 2.1q.1 1.1.5 2.2l.8 2 1 1.8H459l-1.2-1.8-.8-2q-.4-1-.5-2l-.2-2.3zm18.4 5.1v-6.4q0-1.2-.4-1.8-.5-.6-1.4-.6-.7 0-1.2.2-.4.2-.7.7l-.5 1-.1 1.4v5.5h-1.7v-6.4q0-1.2-.4-1.8-.5-.6-1.4-.6-.7 0-1.2.3-.5.2-.8.7-.3.4-.4 1V239.9h-1.8v-10h1.4l.2 1.4h.1l.5-.7.7-.5.8-.3h.8q1 0 1.8.3.7.4 1 1.3h.1l.6-.7q.3-.4.7-.6l.9-.3h.9q1.6 0 2.4.8.8.9.8 2.8v6.5h-1.7zm8.7.2q-1 0-1.8-.3-.9-.4-1.4-1-.6-.7-1-1.6-.3-1-.3-2.2 0-1.3.3-2.2.3-1 .8-1.7.6-.7 1.4-1 .7-.4 1.6-.4 1 0 1.7.4.7.3 1.2.9.5.6.8 1.4.2.8.2 1.8v1h-6.3q0 1.8.8 2.6.7.9 2 .9h.9l.7-.2.8-.2.7-.3v1.4l-.8.3q-.3.2-.7.2l-.7.2h-.9zm-.4-9q-1 0-1.6.7-.7.7-.7 2h4.4v-1l-.5-1q-.2-.3-.6-.5-.4-.2-1-.2zm12 8.8l-.3-1.4-.6.7-.7.5-.8.3-1 .1-1.2-.2-.9-.5-.6-1q-.2-.5-.2-1.3 0-1.5 1-2.3 1.1-.8 3.3-.9h1.6v-.6l-.1-1q-.1-.5-.4-.7-.2-.3-.6-.4h-.8l-1.5.1-1.2.6-.6-1.3q.7-.4 1.5-.6.9-.3 1.8-.3t1.6.2q.6.2 1 .6.5.4.8 1 .2.7.2 1.6v6.8H495zm-3-1.1q.6 0 1-.2l.9-.5.5-1q.2-.4.2-1.2v-.9h-1.3l-1.4.3q-.5.1-.8.4-.4.2-.5.6l-.2.8q0 .9.5 1.3.4.4 1.1.4zm13.6 1.1v-6.4q0-1.2-.5-1.8-.5-.6-1.5-.6-.7 0-1.2.3-.5.2-.8.7l-.5 1V239.9h-1.8v-10h1.4l.2 1.4h.1q.2-.4.6-.7l.6-.5.8-.3h.9q1.7 0 2.5.8.8.9.8 2.8v6.5h-1.6zm8-5l-.2 2.1q-.1 1.1-.5 2.2l-.8 2-1.2 1.7h-1.6l1.1-1.9.8-2q.4-1 .5-2l.2-2.2q0-2.2-.7-4.3-.6-2.1-1.9-3.9h1.6q.7.8 1.2 1.8l.8 2q.4 1 .5 2.2.2 1 .2 2.2z"/><path fill="#000" fill-opacity="0" d="M668 55.9H798v87.3H668z" fill-rule="evenodd"/><path fill="#000" d="M727.7 92.7V82.1q0-3.5 1.3-5.2 1.5-1.7 4.1-1.7 2.7 0 4.2 1.8 1.6 1.8 1.6 4.7 0 2.9-1.5 4.7-1.5 1.8-4 1.8-2.3 0-3.6-1.4v5.9h-2.1zm5.5-15.7q-1.6 0-2.5 1.1-.9 1.2-.9 3.8 0 2.3.9 3.4 1 1.2 2.5 1.2 1.6 0 2.6-1.2t1-3.5q0-2.6-1.1-3.7-1-1.1-2.5-1.1zM685 106.7l.1-2.2.5-2.2q.3-1 .9-2 .5-1 1.2-1.8h1.6q-1.3 1.8-2 3.9-.7 2-.7 4.3l.2 2.1.5 2.2.8 2 1.1 1.8h-1.5l-1.2-1.8q-.6-1-.9-2l-.5-2-.2-2.3zm10.2 5.3q-1 0-1.7-.3-.8-.3-1.4-.9-.6-.6-1-1.6-.3-1-.3-2.3 0-1.5.4-2.5.3-1 1-1.6.5-.6 1.4-.9.8-.3 1.7-.3l1.4.2q.6.1 1.1.4l-.5 1.4-.5-.2-.5-.2h-.5l-.5-.1q-1.5 0-2.1 1-.7.8-.7 2.7 0 2 .7 2.9.7.9 2 .9.8 0 1.4-.2l1-.4v1.5l-1 .4-1.4.1zm13-5.2q0 1.3-.3 2.2-.3 1-1 1.6-.5.7-1.3 1-.8.4-1.8.4t-1.7-.3q-.8-.4-1.4-1-.6-.7-1-1.7-.2-1-.2-2.2 0-1.2.3-2.2.3-1 .8-1.6.6-.7 1.4-1 .8-.4 1.8-.4t1.8.4q.8.3 1.4 1 .5.6.8 1.6.4 1 .4 2.2zm-7 0q0 2 .6 2.9.6 1 2 1t2-1q.7-1 .7-2.9t-.7-2.8q-.6-1-2-1t-2 1q-.6.9-.6 2.8zm14-5.2h.5l.6.1-.3 1.6-.5-.1h-.5l-1 .2q-.5.2-.8.7-.4.4-.6 1l-.1 1.3v5.4h-1.7v-10h1.3l.2 1.8h.1l.5-.7.6-.6.7-.5q.4-.2 1-.2zm7.4 0h.5l.6.1-.2 1.6-.5-.1h-.5q-.6 0-1 .2-.6.2-.9.7l-.5 1q-.2.6-.2 1.3v5.4h-1.7v-10h1.4l.2 1.8.5-.7.6-.6.7-.5 1-.2zm7 10.4q-1 0-1.8-.3-.8-.4-1.4-1-.6-.7-1-1.6-.3-1-.3-2.2 0-1.3.3-2.2.3-1 .9-1.7.5-.7 1.3-1 .7-.4 1.7-.4.9 0 1.6.4.7.3 1.2.9.5.6.8 1.4.2.8.2 1.8v1h-6.3q0 1.8.8 2.6.7.9 2 .9h.9l.8-.2.7-.2.7-.3v1.4l-.7.3-.8.2-.7.2h-.9zm-.4-9q-1 0-1.6.7-.6.7-.7 2h4.5l-.2-1q0-.6-.4-1-.2-.3-.6-.5-.4-.2-1-.2zm8.1 8.8h-1.6V97.6h1.6v14.2zm8.8 0l-.3-1.4-.7.7-.6.5-.8.3-1 .1q-.7 0-1.2-.2l-1-.5-.5-1q-.2-.5-.2-1.3 0-1.5 1-2.3 1-.8 3.2-.9h1.7v-.6q0-.6-.2-1 0-.5-.3-.7-.3-.3-.7-.4h-.8l-1.4.1-1.2.6-.6-1.3q.6-.4 1.5-.6.8-.3 1.7-.3 1 0 1.6.2.7.2 1.1.6.5.4.7 1 .2.7.2 1.6v6.8h-1.2zm-3-1.1l1-.2.8-.5q.4-.4.6-1 .2-.4.2-1.2v-.9h-1.3l-1.4.3q-.6.1-.9.4-.3.2-.5.6l-.1.8q0 .9.4 1.3.5.4 1.2.4zm10.3 0h.4l.4-.1h.3l.3-.1v1.2l-.3.1-.4.1h-.5l-.5.1-1-.2q-.5 0-.8-.4-.4-.4-.6-1-.2-.6-.2-1.5V103h-1.4v-.8l1.4-.7.7-2h1v2.2h2.5v1.3h-2.5v5.8q0 .9.3 1.3t1 .4zm5 1.1h-1.7v-10h1.7v10zm-1.8-12.7q0-.5.3-.8.2-.2.6-.2h.4q.2 0 .3.2.2.1.2.3l.1.5q0 .5-.3.8-.2.3-.7.3-.4 0-.6-.3-.3-.3-.3-.8zm13 7.7q0 1.3-.2 2.2-.3 1-.9 1.6-.6.7-1.4 1-.8.4-1.8.4t-1.7-.3q-.8-.4-1.4-1-.6-.7-.9-1.7-.3-1-.3-2.2 0-1.2.3-2.2.3-1 .9-1.6.5-.7 1.3-1 .9-.4 1.9-.4.9 0 1.7.4.8.3 1.4 1 .5.6.9 1.6.3 1 .3 2.2zm-7 0q0 2 .7 2.9.6 1 2 1 1.5 0 2-1 .7-1 .7-2.9t-.6-2.8q-.7-1-2-1-1.5 0-2.1 1-.6.9-.6 2.8zm16 5v-6.4q0-1.2-.5-1.8-.5-.6-1.5-.6-.8 0-1.3.3-.5.2-.8.7-.3.4-.4 1l-.1 1.6v5.2h-1.7v-10h1.4l.2 1.4.6-.7.7-.5.8-.3h.9q1.6 0 2.5.8.8.9.8 2.8v6.5h-1.6zM692 134q-1 0-1.8-.3t-1.4-.9q-.6-.6-1-1.6-.2-1-.2-2.3 0-1.5.3-2.5t1-1.6q.6-.6 1.4-.9.8-.3 1.7-.3l1.4.2q.7.1 1.1.4l-.5 1.4-.4-.2-.6-.2h-.5l-.5-.1q-1.4 0-2 1-.7.8-.7 2.7 0 2 .6 2.9.7.9 2 .9.8 0 1.4-.2l1-.4v1.5l-1 .4-1.4.1zm12.9-5.2q0 1.3-.3 2.2-.3 1-.9 1.6-.6.7-1.4 1-.8.4-1.8.4t-1.7-.3q-.8-.4-1.4-1-.6-.7-.9-1.7-.3-1-.3-2.2 0-1.2.3-2.2.3-1 .9-1.6.5-.7 1.3-1 .9-.4 1.9-.4.9 0 1.7.4.8.3 1.4 1 .5.6.9 1.6.3 1 .3 2.2zm-7 0q0 2 .6 2.9.6 1 2 1 1.5 0 2-1 .7-1 .7-2.9t-.6-2.8q-.7-1-2-1-1.5 0-2.1 1-.6.9-.6 2.8zm13.6 5.2q-1 0-1.9-.3-.8-.4-1.4-1-.6-.7-1-1.6-.2-1-.2-2.2 0-1.3.3-2.2.2-1 .8-1.7.5-.7 1.3-1 .8-.4 1.7-.4.9 0 1.6.4.7.3 1.2.9.5.6.8 1.4.3.8.3 1.8v1h-6.3q0 1.8.7 2.6.7.9 2 .9h1l.7-.2.7-.2.7-.3v1.4l-.7.3q-.3.2-.7.2l-.8.2h-.8zm-.5-9q-1 0-1.6.7-.6.7-.7 2h4.5l-.1-1-.4-1-.7-.5q-.4-.2-1-.2zm10.8 0h-2.2v8.8H718v-8.7h-1.7v-.7l1.7-.6v-1q0-.9.2-1.5.2-.7.6-1 .4-.4 1-.6.6-.2 1.3-.2l1 .1.8.3-.5 1.3-.6-.2H720.4q-.3 0-.4.3l-.3.6v2h2.1v1.2zm6.2 0h-2.3v8.8h-1.6v-8.7h-1.8v-.7l1.8-.6v-1q0-.9.2-1.5.2-.7.6-1 .4-.4 1-.6.5-.2 1.2-.2l1 .1.8.3-.4 1.3-.7-.2H726.5q-.2 0-.4.3l-.3.6v2h2.2v1.2zm3.4 8.8h-1.6v-10h1.6v10zm-1.8-12.7q0-.5.3-.8.3-.2.7-.2h.4q.2 0 .3.2l.2.3v.5q0 .5-.2.8-.3.3-.7.3-.4 0-.7-.3-.3-.3-.3-.8zm8.8 13q-.9 0-1.7-.4-.8-.3-1.4-.9-.6-.6-1-1.6-.3-1-.3-2.3 0-1.5.4-2.5.3-1 1-1.6.6-.6 1.4-.9.8-.3 1.7-.3l1.4.2q.7.1 1.1.4l-.5 1.4-.4-.2-.6-.2h-.5l-.5-.1q-1.4 0-2.1 1-.7.8-.7 2.7 0 2 .7 2.9.7.9 2 .9.8 0 1.4-.2l1-.4v1.5l-1 .4-1.4.1zm6.5-.3h-1.7v-10h1.7v10zm-1.8-12.7q0-.5.3-.8.3-.2.7-.2h.3l.4.2.2.3v.5q0 .5-.2.8-.3.3-.7.3-.4 0-.7-.3-.3-.3-.3-.8zm9 13q-1 0-2-.4-.7-.4-1.3-1-.6-.7-1-1.6-.3-1-.3-2.2 0-1.3.3-2.2.3-1 .8-1.7.6-.7 1.4-1 .7-.4 1.6-.4 1 0 1.7.4.7.3 1.2.9.5.6.8 1.4.2.8.2 1.8v1h-6.3q0 1.8.8 2.6.7.9 2 .9h.9l.7-.2.8-.2.7-.3v1.4l-.7.3-.8.2-.7.2h-.9zm-.5-9q-1 0-1.6.6-.6.7-.7 2h4.4v-1l-.5-1q-.2-.3-.6-.5-.4-.2-1-.2zm12.7 8.7v-6.4q0-1.2-.5-1.8-.5-.6-1.5-.6-.7 0-1.2.3-.5.2-.8.7l-.5 1V133.9H758v-10h1.4l.2 1.4h.1q.2-.4.6-.7l.6-.5.8-.3h.9q1.7 0 2.5.8.8.9.8 2.8v6.5h-1.6zm7.8-1.2h1.1l.2-.1v1.2l-.3.1-.4.1h-.4l-.5.1q-.6 0-1-.2-.5 0-.9-.4l-.5-1q-.2-.6-.2-1.5V125h-1.5v-.8l1.5-.7.7-2h1v2.2h2.4v1.3h-2.5v5.8q0 .9.3 1.3t1 .4zm6.5-3.9l-.1 2.2-.5 2.2-.9 2-1.2 1.7h-1.6q.7-.9 1.2-1.9l.8-2 .5-2 .1-2.2q0-2.2-.6-4.3-.7-2.1-2-3.9h1.6q.7.8 1.2 1.8l.9 2 .5 2.2.1 2.2z"/><path fill="#000" fill-opacity="0" d="M545.9 91.7a227 227 0 01134.2 0L613 308.5zM545.9 91.7a227 227 0 01134.2 0" fill-rule="evenodd"/><path stroke="#000" stroke-width="2" stroke-linejoin="round" stroke-linecap="butt" d="M545.9 91.7h0a227 227 0 01125-2.7l.6.2" fill-rule="evenodd"/><path fill="#000" stroke="#000" stroke-width="2" stroke-linecap="butt" d="M670.9 91.3l6.4-.4-5.2-3.8z" fill-rule="evenodd"/></g></svg>