<?xml version="1.0" encoding="utf-8" standalone="no"?>
<!DOCTYPE svg PUBLIC "-//W3C//DTD SVG 1.1//EN"
  "http://www.w3.org/Graphics/SVG/1.1/DTD/svg11.dtd">
<!-- Created with matplotlib (http://matplotlib.org/) -->
<svg version="1.1" viewBox="0 0 377 278" xmlns="http://www.w3.org/2000/svg" xmlns:xlink="http://www.w3.org/1999/xlink">
 <defs>
  <style type="text/css">
*{stroke-linecap:butt;stroke-linejoin:round;}
  </style>
 </defs>
 <g id="figure_1">
  <g id="patch_1">
   <path d="M 0 278.282188 
L 377.208438 278.282188 
L 377.208438 0 
L 0 0 
z
" style="fill:#ffffff;"/>
  </g>
  <g id="axes_1">
   <g id="patch_2">
    <path d="M 35.208438 239.758125 
L 370.008438 239.758125 
L 370.008438 22.318125 
L 35.208438 22.318125 
z
" style="fill:#eaeaf2;"/>
   </g>
   <g id="matplotlib.axis_1">
    <g id="xtick_1">
     <g id="line2d_1">
      <path clip-path="url(#p7c9a5b3e34)" d="M 40.610174 239.758125 
L 40.610174 22.318125 
" style="fill:none;stroke:#ffffff;stroke-linecap:round;"/>
     </g>
     <g id="line2d_2"/>
     <g id="text_1">
      <!-- −1.00 -->
      <defs>
       <path d="M 10.59375 35.5 
L 73.1875 35.5 
L 73.1875 27.203125 
L 10.59375 27.203125 
z
" id="DejaVuSans-2212"/>
       <path d="M 12.40625 8.296875 
L 28.515625 8.296875 
L 28.515625 63.921875 
L 10.984375 60.40625 
L 10.984375 69.390625 
L 28.421875 72.90625 
L 38.28125 72.90625 
L 38.28125 8.296875 
L 54.390625 8.296875 
L 54.390625 0 
L 12.40625 0 
z
" id="DejaVuSans-31"/>
       <path d="M 10.6875 12.40625 
L 21 12.40625 
L 21 0 
L 10.6875 0 
z
" id="DejaVuSans-2e"/>
       <path d="M 31.78125 66.40625 
Q 24.171875 66.40625 20.328125 58.90625 
Q 16.5 51.421875 16.5 36.375 
Q 16.5 21.390625 20.328125 13.890625 
Q 24.171875 6.390625 31.78125 6.390625 
Q 39.453125 6.390625 43.28125 13.890625 
Q 47.125 21.390625 47.125 36.375 
Q 47.125 51.421875 43.28125 58.90625 
Q 39.453125 66.40625 31.78125 66.40625 
z
M 31.78125 74.21875 
Q 44.046875 74.21875 50.515625 64.515625 
Q 56.984375 54.828125 56.984375 36.375 
Q 56.984375 17.96875 50.515625 8.265625 
Q 44.046875 -1.421875 31.78125 -1.421875 
Q 19.53125 -1.421875 13.0625 8.265625 
Q 6.59375 17.96875 6.59375 36.375 
Q 6.59375 54.828125 13.0625 64.515625 
Q 19.53125 74.21875 31.78125 74.21875 
z
" id="DejaVuSans-30"/>
      </defs>
      <g style="fill:#262626;" transform="translate(25.287518 254.356563)scale(0.1 -0.1)">
       <use xlink:href="#DejaVuSans-2212"/>
       <use x="83.789062" xlink:href="#DejaVuSans-31"/>
       <use x="147.412109" xlink:href="#DejaVuSans-2e"/>
       <use x="179.199219" xlink:href="#DejaVuSans-30"/>
       <use x="242.822266" xlink:href="#DejaVuSans-30"/>
      </g>
     </g>
    </g>
    <g id="xtick_2">
     <g id="line2d_3">
      <path clip-path="url(#p7c9a5b3e34)" d="M 79.126039 239.758125 
L 79.126039 22.318125 
" style="fill:none;stroke:#ffffff;stroke-linecap:round;"/>
     </g>
     <g id="line2d_4"/>
     <g id="text_2">
      <!-- −0.75 -->
      <defs>
       <path d="M 8.203125 72.90625 
L 55.078125 72.90625 
L 55.078125 68.703125 
L 28.609375 0 
L 18.3125 0 
L 43.21875 64.59375 
L 8.203125 64.59375 
z
" id="DejaVuSans-37"/>
       <path d="M 10.796875 72.90625 
L 49.515625 72.90625 
L 49.515625 64.59375 
L 19.828125 64.59375 
L 19.828125 46.734375 
Q 21.96875 47.46875 24.109375 47.828125 
Q 26.265625 48.1875 28.421875 48.1875 
Q 40.625 48.1875 47.75 41.5 
Q 54.890625 34.8125 54.890625 23.390625 
Q 54.890625 11.625 47.5625 5.09375 
Q 40.234375 -1.421875 26.90625 -1.421875 
Q 22.3125 -1.421875 17.546875 -0.640625 
Q 12.796875 0.140625 7.71875 1.703125 
L 7.71875 11.625 
Q 12.109375 9.234375 16.796875 8.0625 
Q 21.484375 6.890625 26.703125 6.890625 
Q 35.15625 6.890625 40.078125 11.328125 
Q 45.015625 15.765625 45.015625 23.390625 
Q 45.015625 31 40.078125 35.4375 
Q 35.15625 39.890625 26.703125 39.890625 
Q 22.75 39.890625 18.8125 39.015625 
Q 14.890625 38.140625 10.796875 36.28125 
z
" id="DejaVuSans-35"/>
      </defs>
      <g style="fill:#262626;" transform="translate(63.803383 254.356563)scale(0.1 -0.1)">
       <use xlink:href="#DejaVuSans-2212"/>
       <use x="83.789062" xlink:href="#DejaVuSans-30"/>
       <use x="147.412109" xlink:href="#DejaVuSans-2e"/>
       <use x="179.199219" xlink:href="#DejaVuSans-37"/>
       <use x="242.822266" xlink:href="#DejaVuSans-35"/>
      </g>
     </g>
    </g>
    <g id="xtick_3">
     <g id="line2d_5">
      <path clip-path="url(#p7c9a5b3e34)" d="M 117.641904 239.758125 
L 117.641904 22.318125 
" style="fill:none;stroke:#ffffff;stroke-linecap:round;"/>
     </g>
     <g id="line2d_6"/>
     <g id="text_3">
      <!-- −0.50 -->
      <g style="fill:#262626;" transform="translate(102.319248 254.356563)scale(0.1 -0.1)">
       <use xlink:href="#DejaVuSans-2212"/>
       <use x="83.789062" xlink:href="#DejaVuSans-30"/>
       <use x="147.412109" xlink:href="#DejaVuSans-2e"/>
       <use x="179.199219" xlink:href="#DejaVuSans-35"/>
       <use x="242.822266" xlink:href="#DejaVuSans-30"/>
      </g>
     </g>
    </g>
    <g id="xtick_4">
     <g id="line2d_7">
      <path clip-path="url(#p7c9a5b3e34)" d="M 156.157769 239.758125 
L 156.157769 22.318125 
" style="fill:none;stroke:#ffffff;stroke-linecap:round;"/>
     </g>
     <g id="line2d_8"/>
     <g id="text_4">
      <!-- −0.25 -->
      <defs>
       <path d="M 19.1875 8.296875 
L 53.609375 8.296875 
L 53.609375 0 
L 7.328125 0 
L 7.328125 8.296875 
Q 12.9375 14.109375 22.625 23.890625 
Q 32.328125 33.6875 34.8125 36.53125 
Q 39.546875 41.84375 41.421875 45.53125 
Q 43.3125 49.21875 43.3125 52.78125 
Q 43.3125 58.59375 39.234375 62.25 
Q 35.15625 65.921875 28.609375 65.921875 
Q 23.96875 65.921875 18.8125 64.3125 
Q 13.671875 62.703125 7.8125 59.421875 
L 7.8125 69.390625 
Q 13.765625 71.78125 18.9375 73 
Q 24.125 74.21875 28.421875 74.21875 
Q 39.75 74.21875 46.484375 68.546875 
Q 53.21875 62.890625 53.21875 53.421875 
Q 53.21875 48.921875 51.53125 44.890625 
Q 49.859375 40.875 45.40625 35.40625 
Q 44.1875 33.984375 37.640625 27.21875 
Q 31.109375 20.453125 19.1875 8.296875 
z
" id="DejaVuSans-32"/>
      </defs>
      <g style="fill:#262626;" transform="translate(140.835112 254.356563)scale(0.1 -0.1)">
       <use xlink:href="#DejaVuSans-2212"/>
       <use x="83.789062" xlink:href="#DejaVuSans-30"/>
       <use x="147.412109" xlink:href="#DejaVuSans-2e"/>
       <use x="179.199219" xlink:href="#DejaVuSans-32"/>
       <use x="242.822266" xlink:href="#DejaVuSans-35"/>
      </g>
     </g>
    </g>
    <g id="xtick_5">
     <g id="line2d_9">
      <path clip-path="url(#p7c9a5b3e34)" d="M 194.673633 239.758125 
L 194.673633 22.318125 
" style="fill:none;stroke:#ffffff;stroke-linecap:round;"/>
     </g>
     <g id="line2d_10"/>
     <g id="text_5">
      <!-- 0.00 -->
      <g style="fill:#262626;" transform="translate(183.540821 254.356563)scale(0.1 -0.1)">
       <use xlink:href="#DejaVuSans-30"/>
       <use x="63.623047" xlink:href="#DejaVuSans-2e"/>
       <use x="95.410156" xlink:href="#DejaVuSans-30"/>
       <use x="159.033203" xlink:href="#DejaVuSans-30"/>
      </g>
     </g>
    </g>
    <g id="xtick_6">
     <g id="line2d_11">
      <path clip-path="url(#p7c9a5b3e34)" d="M 233.189498 239.758125 
L 233.189498 22.318125 
" style="fill:none;stroke:#ffffff;stroke-linecap:round;"/>
     </g>
     <g id="line2d_12"/>
     <g id="text_6">
      <!-- 0.25 -->
      <g style="fill:#262626;" transform="translate(222.056686 254.356563)scale(0.1 -0.1)">
       <use xlink:href="#DejaVuSans-30"/>
       <use x="63.623047" xlink:href="#DejaVuSans-2e"/>
       <use x="95.410156" xlink:href="#DejaVuSans-32"/>
       <use x="159.033203" xlink:href="#DejaVuSans-35"/>
      </g>
     </g>
    </g>
    <g id="xtick_7">
     <g id="line2d_13">
      <path clip-path="url(#p7c9a5b3e34)" d="M 271.705363 239.758125 
L 271.705363 22.318125 
" style="fill:none;stroke:#ffffff;stroke-linecap:round;"/>
     </g>
     <g id="line2d_14"/>
     <g id="text_7">
      <!-- 0.50 -->
      <g style="fill:#262626;" transform="translate(260.572551 254.356563)scale(0.1 -0.1)">
       <use xlink:href="#DejaVuSans-30"/>
       <use x="63.623047" xlink:href="#DejaVuSans-2e"/>
       <use x="95.410156" xlink:href="#DejaVuSans-35"/>
       <use x="159.033203" xlink:href="#DejaVuSans-30"/>
      </g>
     </g>
    </g>
    <g id="xtick_8">
     <g id="line2d_15">
      <path clip-path="url(#p7c9a5b3e34)" d="M 310.221228 239.758125 
L 310.221228 22.318125 
" style="fill:none;stroke:#ffffff;stroke-linecap:round;"/>
     </g>
     <g id="line2d_16"/>
     <g id="text_8">
      <!-- 0.75 -->
      <g style="fill:#262626;" transform="translate(299.088415 254.356563)scale(0.1 -0.1)">
       <use xlink:href="#DejaVuSans-30"/>
       <use x="63.623047" xlink:href="#DejaVuSans-2e"/>
       <use x="95.410156" xlink:href="#DejaVuSans-37"/>
       <use x="159.033203" xlink:href="#DejaVuSans-35"/>
      </g>
     </g>
    </g>
    <g id="xtick_9">
     <g id="line2d_17">
      <path clip-path="url(#p7c9a5b3e34)" d="M 348.737093 239.758125 
L 348.737093 22.318125 
" style="fill:none;stroke:#ffffff;stroke-linecap:round;"/>
     </g>
     <g id="line2d_18"/>
     <g id="text_9">
      <!-- 1.00 -->
      <g style="fill:#262626;" transform="translate(337.60428 254.356563)scale(0.1 -0.1)">
       <use xlink:href="#DejaVuSans-31"/>
       <use x="63.623047" xlink:href="#DejaVuSans-2e"/>
       <use x="95.410156" xlink:href="#DejaVuSans-30"/>
       <use x="159.033203" xlink:href="#DejaVuSans-30"/>
      </g>
     </g>
    </g>
    <g id="text_10">
     <!-- Pearson Correlation Coefficient -->
     <defs>
      <path d="M 19.671875 64.796875 
L 19.671875 37.40625 
L 32.078125 37.40625 
Q 38.96875 37.40625 42.71875 40.96875 
Q 46.484375 44.53125 46.484375 51.125 
Q 46.484375 57.671875 42.71875 61.234375 
Q 38.96875 64.796875 32.078125 64.796875 
z
M 9.8125 72.90625 
L 32.078125 72.90625 
Q 44.34375 72.90625 50.609375 67.359375 
Q 56.890625 61.8125 56.890625 51.125 
Q 56.890625 40.328125 50.609375 34.8125 
Q 44.34375 29.296875 32.078125 29.296875 
L 19.671875 29.296875 
L 19.671875 0 
L 9.8125 0 
z
" id="DejaVuSans-50"/>
      <path d="M 56.203125 29.59375 
L 56.203125 25.203125 
L 14.890625 25.203125 
Q 15.484375 15.921875 20.484375 11.0625 
Q 25.484375 6.203125 34.421875 6.203125 
Q 39.59375 6.203125 44.453125 7.46875 
Q 49.3125 8.734375 54.109375 11.28125 
L 54.109375 2.78125 
Q 49.265625 0.734375 44.1875 -0.34375 
Q 39.109375 -1.421875 33.890625 -1.421875 
Q 20.796875 -1.421875 13.15625 6.1875 
Q 5.515625 13.8125 5.515625 26.8125 
Q 5.515625 40.234375 12.765625 48.109375 
Q 20.015625 56 32.328125 56 
Q 43.359375 56 49.78125 48.890625 
Q 56.203125 41.796875 56.203125 29.59375 
z
M 47.21875 32.234375 
Q 47.125 39.59375 43.09375 43.984375 
Q 39.0625 48.390625 32.421875 48.390625 
Q 24.90625 48.390625 20.390625 44.140625 
Q 15.875 39.890625 15.1875 32.171875 
z
" id="DejaVuSans-65"/>
      <path d="M 34.28125 27.484375 
Q 23.390625 27.484375 19.1875 25 
Q 14.984375 22.515625 14.984375 16.5 
Q 14.984375 11.71875 18.140625 8.90625 
Q 21.296875 6.109375 26.703125 6.109375 
Q 34.1875 6.109375 38.703125 11.40625 
Q 43.21875 16.703125 43.21875 25.484375 
L 43.21875 27.484375 
z
M 52.203125 31.203125 
L 52.203125 0 
L 43.21875 0 
L 43.21875 8.296875 
Q 40.140625 3.328125 35.546875 0.953125 
Q 30.953125 -1.421875 24.3125 -1.421875 
Q 15.921875 -1.421875 10.953125 3.296875 
Q 6 8.015625 6 15.921875 
Q 6 25.140625 12.171875 29.828125 
Q 18.359375 34.515625 30.609375 34.515625 
L 43.21875 34.515625 
L 43.21875 35.40625 
Q 43.21875 41.609375 39.140625 45 
Q 35.0625 48.390625 27.6875 48.390625 
Q 23 48.390625 18.546875 47.265625 
Q 14.109375 46.140625 10.015625 43.890625 
L 10.015625 52.203125 
Q 14.9375 54.109375 19.578125 55.046875 
Q 24.21875 56 28.609375 56 
Q 40.484375 56 46.34375 49.84375 
Q 52.203125 43.703125 52.203125 31.203125 
z
" id="DejaVuSans-61"/>
      <path d="M 41.109375 46.296875 
Q 39.59375 47.171875 37.8125 47.578125 
Q 36.03125 48 33.890625 48 
Q 26.265625 48 22.1875 43.046875 
Q 18.109375 38.09375 18.109375 28.8125 
L 18.109375 0 
L 9.078125 0 
L 9.078125 54.6875 
L 18.109375 54.6875 
L 18.109375 46.1875 
Q 20.953125 51.171875 25.484375 53.578125 
Q 30.03125 56 36.53125 56 
Q 37.453125 56 38.578125 55.875 
Q 39.703125 55.765625 41.0625 55.515625 
z
" id="DejaVuSans-72"/>
      <path d="M 44.28125 53.078125 
L 44.28125 44.578125 
Q 40.484375 46.53125 36.375 47.5 
Q 32.28125 48.484375 27.875 48.484375 
Q 21.1875 48.484375 17.84375 46.4375 
Q 14.5 44.390625 14.5 40.28125 
Q 14.5 37.15625 16.890625 35.375 
Q 19.28125 33.59375 26.515625 31.984375 
L 29.59375 31.296875 
Q 39.15625 29.25 43.1875 25.515625 
Q 47.21875 21.78125 47.21875 15.09375 
Q 47.21875 7.46875 41.1875 3.015625 
Q 35.15625 -1.421875 24.609375 -1.421875 
Q 20.21875 -1.421875 15.453125 -0.5625 
Q 10.6875 0.296875 5.421875 2 
L 5.421875 11.28125 
Q 10.40625 8.6875 15.234375 7.390625 
Q 20.0625 6.109375 24.8125 6.109375 
Q 31.15625 6.109375 34.5625 8.28125 
Q 37.984375 10.453125 37.984375 14.40625 
Q 37.984375 18.0625 35.515625 20.015625 
Q 33.0625 21.96875 24.703125 23.78125 
L 21.578125 24.515625 
Q 13.234375 26.265625 9.515625 29.90625 
Q 5.8125 33.546875 5.8125 39.890625 
Q 5.8125 47.609375 11.28125 51.796875 
Q 16.75 56 26.8125 56 
Q 31.78125 56 36.171875 55.265625 
Q 40.578125 54.546875 44.28125 53.078125 
z
" id="DejaVuSans-73"/>
      <path d="M 30.609375 48.390625 
Q 23.390625 48.390625 19.1875 42.75 
Q 14.984375 37.109375 14.984375 27.296875 
Q 14.984375 17.484375 19.15625 11.84375 
Q 23.34375 6.203125 30.609375 6.203125 
Q 37.796875 6.203125 41.984375 11.859375 
Q 46.1875 17.53125 46.1875 27.296875 
Q 46.1875 37.015625 41.984375 42.703125 
Q 37.796875 48.390625 30.609375 48.390625 
z
M 30.609375 56 
Q 42.328125 56 49.015625 48.375 
Q 55.71875 40.765625 55.71875 27.296875 
Q 55.71875 13.875 49.015625 6.21875 
Q 42.328125 -1.421875 30.609375 -1.421875 
Q 18.84375 -1.421875 12.171875 6.21875 
Q 5.515625 13.875 5.515625 27.296875 
Q 5.515625 40.765625 12.171875 48.375 
Q 18.84375 56 30.609375 56 
z
" id="DejaVuSans-6f"/>
      <path d="M 54.890625 33.015625 
L 54.890625 0 
L 45.90625 0 
L 45.90625 32.71875 
Q 45.90625 40.484375 42.875 44.328125 
Q 39.84375 48.1875 33.796875 48.1875 
Q 26.515625 48.1875 22.3125 43.546875 
Q 18.109375 38.921875 18.109375 30.90625 
L 18.109375 0 
L 9.078125 0 
L 9.078125 54.6875 
L 18.109375 54.6875 
L 18.109375 46.1875 
Q 21.34375 51.125 25.703125 53.5625 
Q 30.078125 56 35.796875 56 
Q 45.21875 56 50.046875 50.171875 
Q 54.890625 44.34375 54.890625 33.015625 
z
" id="DejaVuSans-6e"/>
      <path id="DejaVuSans-20"/>
      <path d="M 64.40625 67.28125 
L 64.40625 56.890625 
Q 59.421875 61.53125 53.78125 63.8125 
Q 48.140625 66.109375 41.796875 66.109375 
Q 29.296875 66.109375 22.65625 58.46875 
Q 16.015625 50.828125 16.015625 36.375 
Q 16.015625 21.96875 22.65625 14.328125 
Q 29.296875 6.6875 41.796875 6.6875 
Q 48.140625 6.6875 53.78125 8.984375 
Q 59.421875 11.28125 64.40625 15.921875 
L 64.40625 5.609375 
Q 59.234375 2.09375 53.4375 0.328125 
Q 47.65625 -1.421875 41.21875 -1.421875 
Q 24.65625 -1.421875 15.125 8.703125 
Q 5.609375 18.84375 5.609375 36.375 
Q 5.609375 53.953125 15.125 64.078125 
Q 24.65625 74.21875 41.21875 74.21875 
Q 47.75 74.21875 53.53125 72.484375 
Q 59.328125 70.75 64.40625 67.28125 
z
" id="DejaVuSans-43"/>
      <path d="M 9.421875 75.984375 
L 18.40625 75.984375 
L 18.40625 0 
L 9.421875 0 
z
" id="DejaVuSans-6c"/>
      <path d="M 18.3125 70.21875 
L 18.3125 54.6875 
L 36.8125 54.6875 
L 36.8125 47.703125 
L 18.3125 47.703125 
L 18.3125 18.015625 
Q 18.3125 11.328125 20.140625 9.421875 
Q 21.96875 7.515625 27.59375 7.515625 
L 36.8125 7.515625 
L 36.8125 0 
L 27.59375 0 
Q 17.1875 0 13.234375 3.875 
Q 9.28125 7.765625 9.28125 18.015625 
L 9.28125 47.703125 
L 2.6875 47.703125 
L 2.6875 54.6875 
L 9.28125 54.6875 
L 9.28125 70.21875 
z
" id="DejaVuSans-74"/>
      <path d="M 9.421875 54.6875 
L 18.40625 54.6875 
L 18.40625 0 
L 9.421875 0 
z
M 9.421875 75.984375 
L 18.40625 75.984375 
L 18.40625 64.59375 
L 9.421875 64.59375 
z
" id="DejaVuSans-69"/>
      <path d="M 37.109375 75.984375 
L 37.109375 68.5 
L 28.515625 68.5 
Q 23.6875 68.5 21.796875 66.546875 
Q 19.921875 64.59375 19.921875 59.515625 
L 19.921875 54.6875 
L 34.71875 54.6875 
L 34.71875 47.703125 
L 19.921875 47.703125 
L 19.921875 0 
L 10.890625 0 
L 10.890625 47.703125 
L 2.296875 47.703125 
L 2.296875 54.6875 
L 10.890625 54.6875 
L 10.890625 58.5 
Q 10.890625 67.625 15.140625 71.796875 
Q 19.390625 75.984375 28.609375 75.984375 
z
" id="DejaVuSans-66"/>
      <path d="M 48.78125 52.59375 
L 48.78125 44.1875 
Q 44.96875 46.296875 41.140625 47.34375 
Q 37.3125 48.390625 33.40625 48.390625 
Q 24.65625 48.390625 19.8125 42.84375 
Q 14.984375 37.3125 14.984375 27.296875 
Q 14.984375 17.28125 19.8125 11.734375 
Q 24.65625 6.203125 33.40625 6.203125 
Q 37.3125 6.203125 41.140625 7.25 
Q 44.96875 8.296875 48.78125 10.40625 
L 48.78125 2.09375 
Q 45.015625 0.34375 40.984375 -0.53125 
Q 36.96875 -1.421875 32.421875 -1.421875 
Q 20.0625 -1.421875 12.78125 6.34375 
Q 5.515625 14.109375 5.515625 27.296875 
Q 5.515625 40.671875 12.859375 48.328125 
Q 20.21875 56 33.015625 56 
Q 37.15625 56 41.109375 55.140625 
Q 45.0625 54.296875 48.78125 52.59375 
z
" id="DejaVuSans-63"/>
     </defs>
     <g style="fill:#262626;" transform="translate(116.955391 268.794531)scale(0.11 -0.11)">
      <use xlink:href="#DejaVuSans-50"/>
      <use x="60.255859" xlink:href="#DejaVuSans-65"/>
      <use x="121.779297" xlink:href="#DejaVuSans-61"/>
      <use x="183.058594" xlink:href="#DejaVuSans-72"/>
      <use x="224.171875" xlink:href="#DejaVuSans-73"/>
      <use x="276.271484" xlink:href="#DejaVuSans-6f"/>
      <use x="337.453125" xlink:href="#DejaVuSans-6e"/>
      <use x="400.832031" xlink:href="#DejaVuSans-20"/>
      <use x="432.619141" xlink:href="#DejaVuSans-43"/>
      <use x="502.443359" xlink:href="#DejaVuSans-6f"/>
      <use x="563.625" xlink:href="#DejaVuSans-72"/>
      <use x="604.722656" xlink:href="#DejaVuSans-72"/>
      <use x="645.804688" xlink:href="#DejaVuSans-65"/>
      <use x="707.328125" xlink:href="#DejaVuSans-6c"/>
      <use x="735.111328" xlink:href="#DejaVuSans-61"/>
      <use x="796.390625" xlink:href="#DejaVuSans-74"/>
      <use x="835.599609" xlink:href="#DejaVuSans-69"/>
      <use x="863.382812" xlink:href="#DejaVuSans-6f"/>
      <use x="924.564453" xlink:href="#DejaVuSans-6e"/>
      <use x="987.943359" xlink:href="#DejaVuSans-20"/>
      <use x="1019.730469" xlink:href="#DejaVuSans-43"/>
      <use x="1089.554688" xlink:href="#DejaVuSans-6f"/>
      <use x="1150.736328" xlink:href="#DejaVuSans-65"/>
      <use x="1212.259766" xlink:href="#DejaVuSans-66"/>
      <use x="1247.464844" xlink:href="#DejaVuSans-66"/>
      <use x="1282.669922" xlink:href="#DejaVuSans-69"/>
      <use x="1310.453125" xlink:href="#DejaVuSans-63"/>
      <use x="1365.433594" xlink:href="#DejaVuSans-69"/>
      <use x="1393.216797" xlink:href="#DejaVuSans-65"/>
      <use x="1454.740234" xlink:href="#DejaVuSans-6e"/>
      <use x="1518.119141" xlink:href="#DejaVuSans-74"/>
     </g>
    </g>
   </g>
   <g id="matplotlib.axis_2">
    <g id="ytick_1">
     <g id="line2d_19">
      <path clip-path="url(#p7c9a5b3e34)" d="M 35.208438 239.758125 
L 370.008438 239.758125 
" style="fill:none;stroke:#ffffff;stroke-linecap:round;"/>
     </g>
     <g id="line2d_20"/>
     <g id="text_11">
      <!-- 0 -->
      <g style="fill:#262626;" transform="translate(21.845938 243.557344)scale(0.1 -0.1)">
       <use xlink:href="#DejaVuSans-30"/>
      </g>
     </g>
    </g>
    <g id="ytick_2">
     <g id="line2d_21">
      <path clip-path="url(#p7c9a5b3e34)" d="M 35.208438 207.885811 
L 370.008438 207.885811 
" style="fill:none;stroke:#ffffff;stroke-linecap:round;"/>
     </g>
     <g id="line2d_22"/>
     <g id="text_12">
      <!-- 1 -->
      <g style="fill:#262626;" transform="translate(21.845938 211.68503)scale(0.1 -0.1)">
       <use xlink:href="#DejaVuSans-31"/>
      </g>
     </g>
    </g>
    <g id="ytick_3">
     <g id="line2d_23">
      <path clip-path="url(#p7c9a5b3e34)" d="M 35.208438 176.013497 
L 370.008438 176.013497 
" style="fill:none;stroke:#ffffff;stroke-linecap:round;"/>
     </g>
     <g id="line2d_24"/>
     <g id="text_13">
      <!-- 2 -->
      <g style="fill:#262626;" transform="translate(21.845938 179.812716)scale(0.1 -0.1)">
       <use xlink:href="#DejaVuSans-32"/>
      </g>
     </g>
    </g>
    <g id="ytick_4">
     <g id="line2d_25">
      <path clip-path="url(#p7c9a5b3e34)" d="M 35.208438 144.141183 
L 370.008438 144.141183 
" style="fill:none;stroke:#ffffff;stroke-linecap:round;"/>
     </g>
     <g id="line2d_26"/>
     <g id="text_14">
      <!-- 3 -->
      <defs>
       <path d="M 40.578125 39.3125 
Q 47.65625 37.796875 51.625 33 
Q 55.609375 28.21875 55.609375 21.1875 
Q 55.609375 10.40625 48.1875 4.484375 
Q 40.765625 -1.421875 27.09375 -1.421875 
Q 22.515625 -1.421875 17.65625 -0.515625 
Q 12.796875 0.390625 7.625 2.203125 
L 7.625 11.71875 
Q 11.71875 9.328125 16.59375 8.109375 
Q 21.484375 6.890625 26.8125 6.890625 
Q 36.078125 6.890625 40.9375 10.546875 
Q 45.796875 14.203125 45.796875 21.1875 
Q 45.796875 27.640625 41.28125 31.265625 
Q 36.765625 34.90625 28.71875 34.90625 
L 20.21875 34.90625 
L 20.21875 43.015625 
L 29.109375 43.015625 
Q 36.375 43.015625 40.234375 45.921875 
Q 44.09375 48.828125 44.09375 54.296875 
Q 44.09375 59.90625 40.109375 62.90625 
Q 36.140625 65.921875 28.71875 65.921875 
Q 24.65625 65.921875 20.015625 65.03125 
Q 15.375 64.15625 9.8125 62.3125 
L 9.8125 71.09375 
Q 15.4375 72.65625 20.34375 73.4375 
Q 25.25 74.21875 29.59375 74.21875 
Q 40.828125 74.21875 47.359375 69.109375 
Q 53.90625 64.015625 53.90625 55.328125 
Q 53.90625 49.265625 50.4375 45.09375 
Q 46.96875 40.921875 40.578125 39.3125 
z
" id="DejaVuSans-33"/>
      </defs>
      <g style="fill:#262626;" transform="translate(21.845938 147.940402)scale(0.1 -0.1)">
       <use xlink:href="#DejaVuSans-33"/>
      </g>
     </g>
    </g>
    <g id="ytick_5">
     <g id="line2d_27">
      <path clip-path="url(#p7c9a5b3e34)" d="M 35.208438 112.268869 
L 370.008438 112.268869 
" style="fill:none;stroke:#ffffff;stroke-linecap:round;"/>
     </g>
     <g id="line2d_28"/>
     <g id="text_15">
      <!-- 4 -->
      <defs>
       <path d="M 37.796875 64.3125 
L 12.890625 25.390625 
L 37.796875 25.390625 
z
M 35.203125 72.90625 
L 47.609375 72.90625 
L 47.609375 25.390625 
L 58.015625 25.390625 
L 58.015625 17.1875 
L 47.609375 17.1875 
L 47.609375 0 
L 37.796875 0 
L 37.796875 17.1875 
L 4.890625 17.1875 
L 4.890625 26.703125 
z
" id="DejaVuSans-34"/>
      </defs>
      <g style="fill:#262626;" transform="translate(21.845938 116.068088)scale(0.1 -0.1)">
       <use xlink:href="#DejaVuSans-34"/>
      </g>
     </g>
    </g>
    <g id="ytick_6">
     <g id="line2d_29">
      <path clip-path="url(#p7c9a5b3e34)" d="M 35.208438 80.396555 
L 370.008438 80.396555 
" style="fill:none;stroke:#ffffff;stroke-linecap:round;"/>
     </g>
     <g id="line2d_30"/>
     <g id="text_16">
      <!-- 5 -->
      <g style="fill:#262626;" transform="translate(21.845938 84.195774)scale(0.1 -0.1)">
       <use xlink:href="#DejaVuSans-35"/>
      </g>
     </g>
    </g>
    <g id="ytick_7">
     <g id="line2d_31">
      <path clip-path="url(#p7c9a5b3e34)" d="M 35.208438 48.524241 
L 370.008438 48.524241 
" style="fill:none;stroke:#ffffff;stroke-linecap:round;"/>
     </g>
     <g id="line2d_32"/>
     <g id="text_17">
      <!-- 6 -->
      <defs>
       <path d="M 33.015625 40.375 
Q 26.375 40.375 22.484375 35.828125 
Q 18.609375 31.296875 18.609375 23.390625 
Q 18.609375 15.53125 22.484375 10.953125 
Q 26.375 6.390625 33.015625 6.390625 
Q 39.65625 6.390625 43.53125 10.953125 
Q 47.40625 15.53125 47.40625 23.390625 
Q 47.40625 31.296875 43.53125 35.828125 
Q 39.65625 40.375 33.015625 40.375 
z
M 52.59375 71.296875 
L 52.59375 62.3125 
Q 48.875 64.0625 45.09375 64.984375 
Q 41.3125 65.921875 37.59375 65.921875 
Q 27.828125 65.921875 22.671875 59.328125 
Q 17.53125 52.734375 16.796875 39.40625 
Q 19.671875 43.65625 24.015625 45.921875 
Q 28.375 48.1875 33.59375 48.1875 
Q 44.578125 48.1875 50.953125 41.515625 
Q 57.328125 34.859375 57.328125 23.390625 
Q 57.328125 12.15625 50.6875 5.359375 
Q 44.046875 -1.421875 33.015625 -1.421875 
Q 20.359375 -1.421875 13.671875 8.265625 
Q 6.984375 17.96875 6.984375 36.375 
Q 6.984375 53.65625 15.1875 63.9375 
Q 23.390625 74.21875 37.203125 74.21875 
Q 40.921875 74.21875 44.703125 73.484375 
Q 48.484375 72.75 52.59375 71.296875 
z
" id="DejaVuSans-36"/>
      </defs>
      <g style="fill:#262626;" transform="translate(21.845938 52.32346)scale(0.1 -0.1)">
       <use xlink:href="#DejaVuSans-36"/>
      </g>
     </g>
    </g>
    <g id="text_18">
     <!-- Posterior Probability -->
     <defs>
      <path d="M 48.6875 27.296875 
Q 48.6875 37.203125 44.609375 42.84375 
Q 40.53125 48.484375 33.40625 48.484375 
Q 26.265625 48.484375 22.1875 42.84375 
Q 18.109375 37.203125 18.109375 27.296875 
Q 18.109375 17.390625 22.1875 11.75 
Q 26.265625 6.109375 33.40625 6.109375 
Q 40.53125 6.109375 44.609375 11.75 
Q 48.6875 17.390625 48.6875 27.296875 
z
M 18.109375 46.390625 
Q 20.953125 51.265625 25.265625 53.625 
Q 29.59375 56 35.59375 56 
Q 45.5625 56 51.78125 48.09375 
Q 58.015625 40.1875 58.015625 27.296875 
Q 58.015625 14.40625 51.78125 6.484375 
Q 45.5625 -1.421875 35.59375 -1.421875 
Q 29.59375 -1.421875 25.265625 0.953125 
Q 20.953125 3.328125 18.109375 8.203125 
L 18.109375 0 
L 9.078125 0 
L 9.078125 75.984375 
L 18.109375 75.984375 
z
" id="DejaVuSans-62"/>
      <path d="M 32.171875 -5.078125 
Q 28.375 -14.84375 24.75 -17.8125 
Q 21.140625 -20.796875 15.09375 -20.796875 
L 7.90625 -20.796875 
L 7.90625 -13.28125 
L 13.1875 -13.28125 
Q 16.890625 -13.28125 18.9375 -11.515625 
Q 21 -9.765625 23.484375 -3.21875 
L 25.09375 0.875 
L 2.984375 54.6875 
L 12.5 54.6875 
L 29.59375 11.921875 
L 46.6875 54.6875 
L 56.203125 54.6875 
z
" id="DejaVuSans-79"/>
     </defs>
     <g style="fill:#262626;" transform="translate(15.558281 186.575234)rotate(-90)scale(0.11 -0.11)">
      <use xlink:href="#DejaVuSans-50"/>
      <use x="60.255859" xlink:href="#DejaVuSans-6f"/>
      <use x="121.4375" xlink:href="#DejaVuSans-73"/>
      <use x="173.537109" xlink:href="#DejaVuSans-74"/>
      <use x="212.746094" xlink:href="#DejaVuSans-65"/>
      <use x="274.269531" xlink:href="#DejaVuSans-72"/>
      <use x="315.382812" xlink:href="#DejaVuSans-69"/>
      <use x="343.166016" xlink:href="#DejaVuSans-6f"/>
      <use x="404.347656" xlink:href="#DejaVuSans-72"/>
      <use x="445.460938" xlink:href="#DejaVuSans-20"/>
      <use x="477.248047" xlink:href="#DejaVuSans-50"/>
      <use x="537.535156" xlink:href="#DejaVuSans-72"/>
      <use x="578.617188" xlink:href="#DejaVuSans-6f"/>
      <use x="639.798828" xlink:href="#DejaVuSans-62"/>
      <use x="703.275391" xlink:href="#DejaVuSans-61"/>
      <use x="764.554688" xlink:href="#DejaVuSans-62"/>
      <use x="828.03125" xlink:href="#DejaVuSans-69"/>
      <use x="855.814453" xlink:href="#DejaVuSans-6c"/>
      <use x="883.597656" xlink:href="#DejaVuSans-69"/>
      <use x="911.380859" xlink:href="#DejaVuSans-74"/>
      <use x="950.589844" xlink:href="#DejaVuSans-79"/>
     </g>
    </g>
   </g>
   <g id="line2d_33">
    <path clip-path="url(#p7c9a5b3e34)" d="M 128.32861 239.752201 
L 133.399548 239.658293 
L 136.442111 239.420815 
L 139.484674 238.951074 
L 141.513049 238.427954 
L 143.541424 237.609152 
L 145.5698 236.414304 
L 147.598175 234.907048 
L 155.711676 228.423225 
L 156.725863 227.351863 
L 157.740051 226.086159 
L 158.754239 224.596077 
L 159.768426 222.869447 
L 161.796802 218.734681 
L 163.825177 213.813099 
L 165.853552 208.267266 
L 168.896115 199.212278 
L 173.967053 183.521269 
L 177.009616 173.306067 
L 180.052179 162.956763 
L 183.094742 153.618944 
L 188.16568 138.795555 
L 189.179867 136.259908 
L 190.194055 134.182275 
L 191.208243 132.685429 
L 192.22243 131.8324 
L 193.236618 131.616853 
L 194.250805 131.969822 
L 195.264993 132.776749 
L 196.279181 133.897505 
L 199.321743 137.741366 
L 201.350119 139.814283 
L 203.378494 141.76818 
L 204.392682 143.086972 
L 205.406869 144.876303 
L 206.421057 147.266609 
L 207.435244 150.308521 
L 208.449432 153.965836 
L 210.477807 162.653591 
L 214.534558 181.381057 
L 216.562933 189.799588 
L 218.591308 197.244367 
L 220.619684 203.744423 
L 222.648059 209.318939 
L 224.676434 214.023355 
L 226.704809 218.040002 
L 228.733184 221.542742 
L 230.76156 224.553898 
L 232.789935 227.067885 
L 235.832498 230.235881 
L 240.903436 235.100737 
L 242.931811 236.708492 
L 244.960186 237.93445 
L 246.988562 238.774088 
L 249.016937 239.289998 
L 251.045312 239.567582 
L 254.087875 239.723271 
L 257.130438 239.75235 
L 257.130438 239.75235 
" style="fill:none;stroke:#4c72b0;stroke-linecap:round;stroke-width:1.75;"/>
   </g>
   <g id="line2d_34">
    <path clip-path="url(#p7c9a5b3e34)" d="M 158.229361 239.753154 
L 164.527146 239.631979 
L 168.725669 239.525994 
L 175.023454 239.557322 
L 179.221977 239.188274 
L 182.37087 238.706032 
L 184.470131 238.117927 
L 187.619024 236.883443 
L 190.767916 235.452243 
L 192.867178 234.155863 
L 193.916809 233.309422 
L 196.01607 231.184872 
L 202.313855 223.941969 
L 203.363486 222.377851 
L 204.413117 220.389756 
L 205.462748 217.898396 
L 206.512378 214.911821 
L 208.61164 207.802637 
L 210.710902 199.794682 
L 212.810163 190.997737 
L 214.909425 180.738604 
L 217.008686 168.622248 
L 219.107948 156.159323 
L 220.157579 150.696933 
L 221.20721 146.100222 
L 222.25684 142.384023 
L 223.306471 139.356565 
L 226.455364 131.188563 
L 227.504994 127.90163 
L 229.604256 120.200803 
L 231.703518 112.59695 
L 232.753148 109.797416 
L 233.802779 108.166832 
L 234.85241 107.908626 
L 235.902041 109.024186 
L 236.951672 111.335183 
L 238.001302 114.561996 
L 240.100564 122.68295 
L 242.199826 131.945363 
L 250.596872 171.421325 
L 256.894657 201.379646 
L 257.944288 205.620582 
L 258.993919 209.373543 
L 260.043549 212.638457 
L 261.09318 215.471301 
L 263.192442 220.157723 
L 265.291703 223.92436 
L 267.390965 227.005389 
L 269.490227 229.597507 
L 271.589488 231.879456 
L 273.68875 233.851351 
L 275.788011 235.369579 
L 277.887273 236.450898 
L 283.135427 238.646005 
L 285.234689 239.273014 
L 287.33395 239.602095 
L 290.482843 239.742451 
L 291.532473 239.751101 
L 291.532473 239.751101 
" style="fill:none;stroke:#55a868;stroke-linecap:round;stroke-width:1.75;"/>
   </g>
   <g id="line2d_35">
    <path clip-path="url(#p7c9a5b3e34)" d="M 129.035303 239.753757 
L 134.714096 239.649684 
L 139.446424 239.31382 
L 142.285821 238.938681 
L 145.125218 238.292393 
L 147.964614 237.33998 
L 149.857546 236.496829 
L 151.750477 235.439333 
L 153.643408 234.102165 
L 154.589873 233.271056 
L 155.536339 232.268786 
L 156.482805 231.029568 
L 157.42927 229.484046 
L 158.375736 227.574314 
L 159.322201 225.268223 
L 160.268667 222.567606 
L 162.161598 216.147753 
L 165.000995 205.007103 
L 168.786857 190.163818 
L 171.626254 180.080643 
L 176.358582 163.849991 
L 178.251513 155.923452 
L 180.144444 146.121958 
L 182.983841 130.537045 
L 183.930307 126.225798 
L 184.876772 122.73045 
L 185.823238 120.135781 
L 186.769703 118.427069 
L 187.716169 117.509126 
L 188.662635 117.235598 
L 189.6091 117.443415 
L 190.555566 117.985225 
L 191.502031 118.750995 
L 193.394963 120.718826 
L 195.287894 123.143679 
L 197.180825 126.093672 
L 198.12729 127.860572 
L 199.073756 129.907392 
L 200.020222 132.309198 
L 200.966687 135.138486 
L 201.913153 138.452949 
L 202.859618 142.278327 
L 204.75255 151.28825 
L 208.538412 170.689555 
L 210.431343 179.168088 
L 213.27074 190.766783 
L 216.110137 201.748123 
L 218.003068 208.563097 
L 219.895999 214.74589 
L 221.78893 220.128636 
L 223.681861 224.674816 
L 225.574792 228.456864 
L 227.467724 231.525256 
L 229.360655 233.890203 
L 231.253586 235.637234 
L 233.146517 236.934011 
L 235.039448 237.893851 
L 236.93238 238.554209 
L 238.825311 238.983249 
L 241.664707 239.404178 
L 244.504104 239.651482 
L 248.289967 239.749203 
L 249.236432 239.75319 
L 249.236432 239.75319 
" style="fill:none;stroke:#c44e52;stroke-linecap:round;stroke-width:1.75;"/>
   </g>
   <g id="line2d_36">
    <path clip-path="url(#p7c9a5b3e34)" d="M 150.569246 239.753949 
L 155.457307 239.672443 
L 158.390143 239.42314 
L 160.345368 239.079095 
L 162.300592 238.562358 
L 166.211041 237.198674 
L 168.166265 236.35653 
L 170.12149 235.207208 
L 172.076714 233.628651 
L 174.031939 231.631265 
L 175.987163 229.219635 
L 177.942387 226.306818 
L 179.897612 222.784918 
L 181.852836 218.608834 
L 183.808061 213.753739 
L 185.763285 208.131347 
L 187.718509 201.698873 
L 189.673734 194.590076 
L 192.60657 182.902976 
L 195.539407 169.896127 
L 198.472244 156.602266 
L 201.40508 144.55627 
L 207.270753 121.714239 
L 208.248366 118.749089 
L 209.225978 116.497618 
L 210.20359 115.081033 
L 211.181202 114.535843 
L 212.158814 114.817546 
L 213.136427 115.819478 
L 214.114039 117.399044 
L 215.091651 119.406675 
L 217.046875 124.239487 
L 219.0021 129.888388 
L 220.957324 136.62919 
L 222.912549 144.740816 
L 228.778222 171.402198 
L 230.733446 179.172521 
L 233.666283 189.868547 
L 240.509568 213.711828 
L 242.464793 219.092522 
L 243.442405 221.29294 
L 244.420017 223.168993 
L 245.397629 224.748525 
L 247.352854 227.220322 
L 253.218527 233.318756 
L 255.173751 235.084765 
L 257.128976 236.395615 
L 259.0842 237.355943 
L 261.039425 238.100378 
L 263.972261 238.909596 
L 266.905098 239.412835 
L 269.837934 239.663957 
L 274.725995 239.7538 
L 274.725995 239.7538 
" style="fill:none;stroke:#8172b2;stroke-linecap:round;stroke-width:1.75;"/>
   </g>
   <g id="line2d_37">
    <path clip-path="url(#p7c9a5b3e34)" d="M 131.941358 239.753899 
L 136.828965 239.66497 
L 139.76153 239.433114 
L 145.626659 238.626297 
L 149.536744 238.038675 
L 151.491787 237.572307 
L 153.44683 236.850989 
L 155.401873 235.778323 
L 156.379395 235.066621 
L 157.356916 234.200945 
L 158.334438 233.146007 
L 159.311959 231.866954 
L 160.289481 230.338385 
L 161.267002 228.553987 
L 163.222045 224.318464 
L 166.15461 217.017844 
L 168.109653 211.702836 
L 170.064696 205.688168 
L 172.019738 198.910024 
L 174.952303 187.797734 
L 176.907346 179.496006 
L 178.862389 170.126252 
L 183.749996 145.586052 
L 185.705039 136.932009 
L 187.660082 129.352456 
L 189.615125 123.17135 
L 190.592647 120.674976 
L 191.570168 118.557005 
L 192.54769 116.770018 
L 193.525211 115.269357 
L 194.502732 114.05613 
L 195.480254 113.212472 
L 196.457775 112.90198 
L 197.435297 113.323238 
L 198.412818 114.632376 
L 199.39034 116.871926 
L 200.367861 119.94136 
L 202.322904 127.637477 
L 205.255469 139.513444 
L 209.165555 154.037468 
L 211.120598 162.400495 
L 217.963248 193.826039 
L 219.918291 201.793416 
L 221.873334 209.013406 
L 223.828377 215.307331 
L 225.78342 220.669468 
L 227.738463 225.211149 
L 229.693506 228.983722 
L 230.671027 230.553513 
L 231.648549 231.891488 
L 232.62607 232.996207 
L 233.603592 233.886291 
L 235.558635 235.182739 
L 237.513678 236.134485 
L 240.446242 237.33462 
L 243.378806 238.325825 
L 246.311371 239.073933 
L 249.243935 239.520048 
L 252.1765 239.704582 
L 256.086586 239.753941 
L 256.086586 239.753941 
" style="fill:none;stroke:#ccb974;stroke-linecap:round;stroke-width:1.75;"/>
   </g>
   <g id="line2d_38">
    <path clip-path="url(#p7c9a5b3e34)" d="M 200.379818 239.753916 
L 206.21261 239.626716 
L 210.101137 239.511355 
L 217.878193 239.601043 
L 220.794589 239.354279 
L 222.738853 239.00027 
L 224.683117 238.287254 
L 226.627381 237.082107 
L 228.571645 235.435441 
L 232.460173 231.527868 
L 235.376569 228.639293 
L 236.348701 227.525661 
L 237.320833 226.194753 
L 238.292965 224.577772 
L 239.265097 222.64613 
L 241.209361 217.919065 
L 243.153625 212.31345 
L 245.097889 205.859629 
L 246.070021 202.157179 
L 247.042153 198.016475 
L 248.986417 188.247123 
L 253.847077 160.68539 
L 255.791341 152.236408 
L 258.707737 140.67704 
L 261.624133 128.523178 
L 262.596265 125.138374 
L 263.568397 122.237638 
L 265.512661 117.409909 
L 267.456925 113.357258 
L 268.429057 111.767237 
L 269.401189 110.636085 
L 270.373321 110.05369 
L 271.345453 110.056546 
L 272.317585 110.630803 
L 273.289717 111.717616 
L 274.261849 113.222292 
L 275.233981 115.039229 
L 277.178245 119.394593 
L 278.150377 122.036593 
L 279.122509 125.188158 
L 280.094641 129.013673 
L 281.066773 133.592701 
L 283.011037 144.63657 
L 286.899564 168.011086 
L 294.67662 211.754992 
L 296.620884 220.154617 
L 297.593016 223.571749 
L 298.565148 226.465072 
L 299.53728 228.867817 
L 300.509412 230.842948 
L 301.481544 232.472667 
L 302.453676 233.838781 
L 304.39794 236.003367 
L 305.370072 236.849969 
L 306.342204 237.546951 
L 307.314336 238.099892 
L 309.2586 238.832843 
L 311.202864 239.204268 
L 314.11926 239.420814 
L 322.868448 239.7505 
L 323.84058 239.753913 
L 323.84058 239.753913 
" style="fill:none;stroke:#64b5cd;stroke-linecap:round;stroke-width:1.75;"/>
   </g>
   <g id="line2d_39">
    <path clip-path="url(#p7c9a5b3e34)" d="M 127.955362 239.754372 
L 134.132831 239.655062 
L 143.399034 239.201911 
L 146.487769 238.900821 
L 148.546925 238.520296 
L 150.606081 237.81465 
L 152.665238 236.671414 
L 154.724394 235.078635 
L 156.78355 233.015182 
L 158.842706 230.396878 
L 160.901863 227.260672 
L 165.020175 220.453656 
L 167.079332 216.680955 
L 168.10891 214.490493 
L 169.138488 212.017462 
L 170.168066 209.226607 
L 172.227222 202.637635 
L 174.286379 194.821561 
L 178.404691 178.149613 
L 182.523004 163.071497 
L 188.700473 140.383935 
L 189.730051 137.465835 
L 190.759629 135.14332 
L 191.789207 133.384643 
L 194.877941 129.126468 
L 195.90752 127.193866 
L 197.966676 122.686361 
L 198.996254 120.80521 
L 200.025832 119.687581 
L 201.05541 119.573683 
L 202.084988 120.520041 
L 203.114567 122.431553 
L 204.144145 125.136361 
L 205.173723 128.457721 
L 207.232879 136.404403 
L 210.321614 150.006077 
L 216.499082 177.12574 
L 220.617395 194.944153 
L 222.676551 203.100828 
L 224.735708 210.15685 
L 226.794864 216.003859 
L 228.85402 220.901724 
L 230.913176 225.02879 
L 232.972333 228.413999 
L 235.031489 231.192893 
L 237.090645 233.558054 
L 239.149802 235.526175 
L 241.208958 237.001027 
L 243.268114 238.006417 
L 245.32727 238.677655 
L 247.386427 239.12189 
L 250.475161 239.503698 
L 254.593474 239.713794 
L 258.711786 239.754349 
L 258.711786 239.754349 
" style="fill:none;stroke:#4c72b0;stroke-linecap:round;stroke-width:1.75;"/>
   </g>
   <g id="line2d_40">
    <path clip-path="url(#p7c9a5b3e34)" d="M 149.94453 239.754228 
L 156.996798 239.632609 
L 167.071466 239.230188 
L 169.086399 238.864949 
L 171.101333 238.262427 
L 173.116267 237.303791 
L 174.123733 236.641628 
L 175.1312 235.83335 
L 176.138667 234.86683 
L 178.153601 232.447339 
L 180.168534 229.449688 
L 183.190935 224.353761 
L 186.213335 219.038789 
L 188.228269 215.009773 
L 189.235736 212.656501 
L 190.243202 210.000074 
L 191.250669 207.004766 
L 193.265603 199.959211 
L 195.280536 191.658971 
L 199.310404 173.91028 
L 201.325337 166.262456 
L 204.347738 156.4294 
L 207.370138 146.270606 
L 210.392539 135.878384 
L 211.400005 132.801924 
L 212.407472 130.106261 
L 213.414939 127.901693 
L 214.422406 126.286721 
L 215.429873 125.328721 
L 216.437339 125.041204 
L 217.444806 125.370475 
L 218.452273 126.201977 
L 219.45974 127.386234 
L 222.48214 131.73329 
L 225.504541 136.333411 
L 226.512008 138.103196 
L 227.519474 140.112116 
L 228.526941 142.415496 
L 229.534408 145.051185 
L 230.541875 148.048688 
L 231.549342 151.439572 
L 232.556808 155.258433 
L 234.571742 164.238048 
L 240.616543 194.1578 
L 241.62401 197.950508 
L 243.638943 204.303724 
L 245.653877 209.733846 
L 248.676277 217.164081 
L 250.691211 221.582444 
L 252.706145 225.44169 
L 254.721078 228.667554 
L 256.736012 231.201611 
L 258.750945 233.139481 
L 260.765879 234.731025 
L 263.788279 236.808214 
L 265.803213 237.932774 
L 267.818147 238.758615 
L 269.83308 239.284051 
L 271.848014 239.56873 
L 274.870414 239.725603 
L 277.892815 239.753787 
L 277.892815 239.753787 
" style="fill:none;stroke:#55a868;stroke-linecap:round;stroke-width:1.75;"/>
   </g>
   <g id="line2d_41">
    <path clip-path="url(#p7c9a5b3e34)" d="M 102.502393 239.753949 
L 109.389294 239.63047 
L 113.521434 239.278808 
L 117.653575 238.646517 
L 120.408335 238.077112 
L 123.163095 237.329423 
L 125.917856 236.383722 
L 130.049996 234.680345 
L 132.804756 233.20727 
L 135.559517 231.28585 
L 139.691657 228.123599 
L 145.201178 224.237859 
L 146.578558 222.903603 
L 147.955938 221.251875 
L 149.333319 219.256578 
L 150.710699 216.940847 
L 153.465459 211.609011 
L 158.97498 199.911897 
L 169.994021 176.088823 
L 174.126162 165.869354 
L 176.880922 159.34741 
L 178.258302 156.563719 
L 179.635682 154.223378 
L 181.013063 152.359437 
L 182.390443 150.961864 
L 183.767823 149.991262 
L 185.145203 149.392013 
L 186.522583 149.105425 
L 187.899963 149.087327 
L 189.277344 149.328766 
L 190.654724 149.868812 
L 192.032104 150.7866 
L 193.409484 152.170496 
L 194.786864 154.077966 
L 196.164244 156.506977 
L 197.541625 159.392327 
L 200.296385 166.073875 
L 204.428526 176.49894 
L 207.183286 182.587774 
L 212.692807 193.420196 
L 214.070187 196.54749 
L 216.824947 203.690161 
L 220.957088 215.114637 
L 222.334468 218.536639 
L 223.711848 221.560409 
L 225.089228 224.122985 
L 226.466608 226.216131 
L 227.843988 227.883852 
L 229.221369 229.207311 
L 230.598749 230.281786 
L 233.353509 232.011523 
L 237.48565 234.214388 
L 241.61779 236.193762 
L 244.372551 237.30884 
L 247.127311 238.177006 
L 249.882071 238.793124 
L 252.636832 239.207683 
L 255.391592 239.459497 
L 259.523732 239.582952 
L 269.165394 239.680396 
L 277.429675 239.75486 
L 277.429675 239.75486 
" style="fill:none;stroke:#c44e52;stroke-linecap:round;stroke-width:1.75;"/>
   </g>
   <g id="line2d_42">
    <path clip-path="url(#p7c9a5b3e34)" d="M 122.810247 239.753737 
L 127.955783 239.650327 
L 132.072212 239.294532 
L 138.246856 238.585033 
L 140.30507 237.959918 
L 142.363285 236.969462 
L 144.421499 235.677114 
L 146.479714 234.058569 
L 148.537928 231.954094 
L 150.596143 229.205538 
L 152.654357 225.687506 
L 154.712572 221.305256 
L 156.770786 216.195756 
L 159.858108 207.768596 
L 161.916322 201.179703 
L 162.94543 197.28469 
L 165.003644 188.127771 
L 170.14918 163.103983 
L 172.207395 154.960783 
L 174.265609 148.221226 
L 176.323824 142.436504 
L 182.498467 126.100854 
L 183.527575 123.908101 
L 184.556682 122.288605 
L 185.585789 121.423415 
L 186.614896 121.417989 
L 187.644004 122.267841 
L 188.673111 123.860861 
L 189.702218 126.018524 
L 191.760433 131.326615 
L 199.99329 154.403255 
L 202.051505 160.089733 
L 204.109719 166.865178 
L 206.167934 175.020461 
L 212.342577 202.033327 
L 214.400792 209.852168 
L 216.459006 216.986114 
L 218.517221 223.00766 
L 219.546328 225.42251 
L 220.575435 227.411964 
L 221.604543 229.019507 
L 222.63365 230.326995 
L 224.691864 232.40961 
L 227.779186 235.002053 
L 229.8374 236.449659 
L 231.895615 237.621538 
L 233.953829 238.523042 
L 236.012044 239.13305 
L 238.070258 239.442702 
L 241.15758 239.530153 
L 246.303116 239.618167 
L 252.47776 239.751661 
L 253.506867 239.754173 
L 253.506867 239.754173 
" style="fill:none;stroke:#8172b2;stroke-linecap:round;stroke-width:1.75;"/>
   </g>
   <g id="line2d_43">
    <path clip-path="url(#p7c9a5b3e34)" d="M 138.070271 239.751113 
L 140.533872 239.663573 
L 142.381573 239.37011 
L 145.461075 238.490989 
L 147.308776 237.789716 
L 148.540577 237.009484 
L 149.772377 235.957649 
L 151.620078 234.023158 
L 152.851879 232.34107 
L 154.08368 230.057584 
L 155.31548 226.955396 
L 156.547281 222.929015 
L 157.779082 217.934094 
L 159.010882 211.735763 
L 160.242683 203.811116 
L 161.474484 193.625615 
L 162.706284 181.078217 
L 166.401687 140.220604 
L 168.865288 113.735048 
L 170.712989 93.513672 
L 176.256092 38.649664 
L 176.871992 34.807093 
L 177.487893 32.783634 
L 178.103793 32.672411 
L 178.719693 34.257082 
L 179.335594 37.121565 
L 180.567394 45.075032 
L 181.799195 54.949301 
L 183.030996 67.23901 
L 187.342298 115.581295 
L 189.189999 133.280741 
L 191.0377 154.572563 
L 192.885401 176.026096 
L 194.117202 187.901843 
L 195.349003 197.484502 
L 196.580803 205.07536 
L 197.812604 210.839429 
L 199.044405 215.152686 
L 200.892106 221.038971 
L 203.971607 232.000579 
L 204.587508 233.635118 
L 205.203408 234.946201 
L 205.819308 235.961282 
L 206.435209 236.732512 
L 207.667009 237.772741 
L 208.89881 238.43792 
L 210.746511 239.119691 
L 212.594212 239.539224 
L 214.441913 239.714067 
L 216.289614 239.751464 
L 216.289614 239.751464 
" style="fill:none;stroke:#ccb974;stroke-linecap:round;stroke-width:1.75;"/>
   </g>
   <g id="line2d_44">
    <path clip-path="url(#p7c9a5b3e34)" d="M 50.426619 239.756233 
L 76.788824 239.631606 
L 83.978516 239.536876 
L 105.547593 238.936641 
L 110.340721 238.84944 
L 115.133849 238.458786 
L 119.926977 237.734268 
L 134.306362 235.197311 
L 136.702926 234.611939 
L 139.09949 233.885932 
L 141.496054 232.972198 
L 143.892618 231.828077 
L 146.289182 230.433905 
L 148.685746 228.806069 
L 153.478874 225.056346 
L 160.668566 218.910769 
L 165.461694 214.487002 
L 167.858259 212.045318 
L 170.254823 209.385889 
L 172.651387 206.498632 
L 177.444515 200.243516 
L 182.237643 194.069348 
L 184.634207 191.28571 
L 187.030771 188.748837 
L 191.823899 184.146036 
L 199.013591 177.532163 
L 201.410155 175.637205 
L 203.80672 174.212249 
L 206.203284 173.486863 
L 208.599848 173.643622 
L 210.996412 174.764944 
L 213.392976 176.799185 
L 215.78954 179.558705 
L 222.979232 189.174964 
L 225.375796 191.927097 
L 227.77236 194.280938 
L 234.962052 200.517251 
L 237.358616 202.975167 
L 239.755181 205.753032 
L 249.341437 217.617914 
L 251.738001 220.11243 
L 254.134565 222.275112 
L 256.531129 224.108907 
L 258.927693 225.652653 
L 261.324257 226.963147 
L 263.720821 228.095869 
L 268.513949 230.00922 
L 278.100206 233.363069 
L 282.893334 234.803726 
L 287.686462 235.953069 
L 294.876154 237.37846 
L 299.669282 238.095398 
L 304.46241 238.497531 
L 311.652102 238.707059 
L 321.238359 238.990739 
L 333.221179 239.523747 
L 345.203999 239.723572 
L 354.790256 239.756227 
L 354.790256 239.756227 
" style="fill:none;stroke:#64b5cd;stroke-linecap:round;stroke-width:1.75;"/>
   </g>
   <g id="line2d_45">
    <path clip-path="url(#p7c9a5b3e34)" d="M 103.126475 239.753859 
L 110.128086 239.657147 
L 115.729376 239.338914 
L 122.730987 238.69739 
L 126.931954 238.104291 
L 131.132921 237.251315 
L 133.933566 236.454344 
L 135.333888 235.930839 
L 136.734211 235.283319 
L 138.134533 234.480253 
L 139.534855 233.497279 
L 140.935178 232.324574 
L 143.735822 229.475311 
L 150.737434 221.396814 
L 153.538079 217.949193 
L 154.938401 215.989584 
L 156.338723 213.815737 
L 159.139368 208.83349 
L 161.940013 203.238434 
L 164.740657 197.275861 
L 167.541302 190.926572 
L 177.343558 167.791049 
L 180.144203 161.782826 
L 181.544525 159.183702 
L 182.944847 157.059092 
L 184.34517 155.527806 
L 185.745492 154.622137 
L 187.145814 154.268356 
L 188.546137 154.306001 
L 192.747104 154.988284 
L 195.547748 155.227716 
L 196.948071 155.469847 
L 198.348393 155.964021 
L 199.748715 156.829874 
L 201.149038 158.159299 
L 202.54936 160.000254 
L 203.949682 162.341741 
L 205.350005 165.110373 
L 208.150649 171.452885 
L 212.351616 181.7087 
L 216.552583 192.624167 
L 220.75355 203.412547 
L 223.554195 209.715175 
L 226.35484 215.100016 
L 229.155484 219.819129 
L 231.956129 224.160412 
L 234.756774 228.037204 
L 236.157096 229.699515 
L 237.557418 231.140165 
L 238.957741 232.359159 
L 240.358063 233.37577 
L 241.758385 234.219174 
L 244.55903 235.505838 
L 247.359675 236.426317 
L 251.560642 237.462822 
L 257.161931 238.615732 
L 261.362898 239.227742 
L 265.563865 239.498251 
L 275.366121 239.726887 
L 280.967411 239.754785 
L 280.967411 239.754785 
" style="fill:none;stroke:#4c72b0;stroke-linecap:round;stroke-width:1.75;"/>
   </g>
   <g id="line2d_46">
    <path clip-path="url(#p7c9a5b3e34)" d="M 113.813367 239.755451 
L 123.664454 239.636756 
L 130.700944 239.36481 
L 133.515541 239.080569 
L 136.330137 238.609958 
L 140.552031 237.638538 
L 146.181224 236.085585 
L 148.99582 235.007043 
L 150.403118 234.284033 
L 151.810416 233.413961 
L 154.625012 231.291226 
L 157.439608 228.861473 
L 160.254205 226.198696 
L 161.661503 224.702654 
L 163.068801 223.025751 
L 164.476099 221.115456 
L 165.883397 218.931533 
L 167.290695 216.45292 
L 168.697993 213.683038 
L 171.51259 207.422407 
L 185.585571 174.123738 
L 194.029359 155.067285 
L 195.436657 152.154379 
L 196.843956 149.67499 
L 198.251254 147.789322 
L 199.658552 146.598487 
L 201.06585 146.140126 
L 202.473148 146.400365 
L 203.880446 147.328936 
L 205.287744 148.850485 
L 206.695042 150.872583 
L 208.10234 153.292805 
L 210.916937 158.904138 
L 215.138831 167.742005 
L 217.953427 173.002487 
L 223.58262 182.424551 
L 224.989918 185.164512 
L 227.804514 191.51013 
L 232.026408 201.685319 
L 234.841004 207.924272 
L 239.062899 216.795495 
L 241.877495 222.244665 
L 243.284793 224.631157 
L 244.692091 226.72561 
L 246.099389 228.525 
L 247.506687 230.063245 
L 250.321284 232.585536 
L 253.13588 234.691826 
L 255.950476 236.497219 
L 258.765072 237.886401 
L 260.17237 238.385766 
L 261.579669 238.753909 
L 264.394265 239.167597 
L 268.616159 239.356992 
L 292.540227 239.755417 
L 292.540227 239.755417 
" style="fill:none;stroke:#55a868;stroke-linecap:round;stroke-width:1.75;"/>
   </g>
   <g id="line2d_47">
    <path clip-path="url(#p7c9a5b3e34)" d="M 86.811395 239.753717 
L 96.549492 239.650017 
L 104.896432 239.590316 
L 109.069902 239.488913 
L 114.634529 239.070378 
L 121.590312 238.393689 
L 124.372626 237.87365 
L 127.154939 237.071572 
L 129.937253 235.93238 
L 132.719566 234.430474 
L 135.50188 232.513727 
L 136.893036 231.358985 
L 138.284193 230.04308 
L 139.67535 228.544814 
L 141.066506 226.849588 
L 142.457663 224.953715 
L 145.239977 220.621935 
L 149.413447 213.35689 
L 156.36923 200.830941 
L 160.5427 192.696067 
L 163.325014 186.768003 
L 166.107327 180.276618 
L 170.280797 170.283204 
L 171.671954 167.29372 
L 173.063111 164.595924 
L 175.845424 159.952362 
L 178.627738 155.886309 
L 180.018894 154.062016 
L 181.410051 152.502208 
L 182.801208 151.329926 
L 184.192365 150.626839 
L 185.583521 150.40096 
L 186.974678 150.594981 
L 188.365835 151.129693 
L 189.756991 151.956696 
L 191.148148 153.088812 
L 192.539305 154.589064 
L 193.930462 156.523358 
L 195.321618 158.904128 
L 198.103932 164.6415 
L 202.277402 173.578515 
L 205.059715 179.412396 
L 207.842029 185.95498 
L 214.797812 203.994168 
L 217.580126 210.26807 
L 220.362439 215.861984 
L 223.144753 220.76607 
L 224.535909 222.917294 
L 225.927066 224.859143 
L 228.709379 228.205393 
L 231.491693 231.079845 
L 234.274006 233.59109 
L 235.665163 234.652194 
L 237.05632 235.540354 
L 238.447476 236.239503 
L 239.838633 236.7547 
L 241.22979 237.11123 
L 244.012103 237.519694 
L 248.185573 238.053435 
L 256.532514 239.51011 
L 260.705984 239.72254 
L 263.488297 239.750832 
L 263.488297 239.750832 
" style="fill:none;stroke:#c44e52;stroke-linecap:round;stroke-width:1.75;"/>
   </g>
   <g id="line2d_48">
    <path clip-path="url(#p7c9a5b3e34)" d="M 136.699928 239.755427 
L 146.850813 239.637054 
L 154.101445 239.298246 
L 158.451825 238.926686 
L 164.25233 238.182072 
L 168.60271 237.473366 
L 171.502963 236.737797 
L 172.953089 236.217581 
L 174.403216 235.564811 
L 175.853342 234.762437 
L 177.303468 233.80015 
L 178.753595 232.674443 
L 180.203721 231.387266 
L 183.103974 228.348625 
L 186.004227 224.717003 
L 188.90448 220.519274 
L 191.804733 215.869258 
L 196.155112 208.384916 
L 199.055365 202.909195 
L 201.955618 196.870052 
L 206.305997 187.647276 
L 209.20625 182.248913 
L 210.656377 179.88285 
L 213.55663 175.766021 
L 216.456883 172.203125 
L 220.807262 166.972816 
L 226.607768 159.653274 
L 228.057894 158.201681 
L 229.508021 157.177195 
L 230.958147 156.713375 
L 232.408273 156.890525 
L 233.8584 157.714532 
L 235.308526 159.116484 
L 236.758653 160.972212 
L 239.658906 165.45555 
L 245.459411 174.755448 
L 248.359664 179.452493 
L 251.259917 184.658541 
L 255.610297 193.271732 
L 259.960676 201.792643 
L 264.311055 209.847458 
L 267.211308 214.817029 
L 270.111561 219.127647 
L 273.011814 222.674412 
L 275.912067 225.667307 
L 278.81232 228.327994 
L 281.712573 230.665466 
L 284.612826 232.57196 
L 287.513078 234.057938 
L 294.763711 237.213871 
L 297.663964 238.293413 
L 300.564216 239.017624 
L 303.464469 239.386603 
L 307.814849 239.592733 
L 317.965734 239.749852 
L 320.865987 239.755492 
L 320.865987 239.755492 
" style="fill:none;stroke:#8172b2;stroke-linecap:round;stroke-width:1.75;"/>
   </g>
   <g id="line2d_49">
    <path clip-path="url(#p7c9a5b3e34)" d="M 120.417551 239.755743 
L 131.498236 239.662389 
L 137.830056 239.403612 
L 140.995966 239.092942 
L 144.161875 238.561322 
L 147.327785 237.811635 
L 155.24256 235.600735 
L 158.40847 234.481566 
L 159.991425 233.747172 
L 161.57438 232.857712 
L 163.157335 231.805978 
L 166.323245 229.272583 
L 169.489155 226.328547 
L 172.655065 223.108226 
L 175.820975 219.641252 
L 178.986885 215.91474 
L 182.152794 211.842785 
L 185.318704 207.230809 
L 188.484614 201.935533 
L 191.650524 196.059574 
L 199.565299 180.980526 
L 202.731209 175.552149 
L 204.314164 173.133173 
L 205.897119 171.004182 
L 207.480074 169.230397 
L 209.063029 167.845182 
L 210.645984 166.834642 
L 212.228939 166.142077 
L 213.811894 165.693108 
L 215.394849 165.430143 
L 216.977804 165.338456 
L 218.560758 165.449896 
L 220.143713 165.822221 
L 221.726668 166.505197 
L 223.309623 167.511347 
L 224.892578 168.805805 
L 228.058488 171.971609 
L 231.224398 175.489954 
L 234.390308 179.283913 
L 235.973263 181.376561 
L 237.556218 183.660557 
L 240.722128 188.86263 
L 247.053948 200.212019 
L 248.636903 202.71738 
L 250.219858 204.989203 
L 253.385768 208.95988 
L 267.632362 225.243659 
L 270.798272 228.457367 
L 273.964182 231.228655 
L 275.547137 232.412955 
L 277.130092 233.44877 
L 278.713047 234.333133 
L 280.296002 235.07187 
L 283.461912 236.17588 
L 286.627822 236.930593 
L 292.959642 238.044096 
L 299.291461 238.963331 
L 304.040326 239.37764 
L 310.372146 239.648109 
L 318.286921 239.750145 
L 321.452831 239.755701 
L 321.452831 239.755701 
" style="fill:none;stroke:#ccb974;stroke-linecap:round;stroke-width:1.75;"/>
   </g>
   <g id="line2d_50">
    <path clip-path="url(#p7c9a5b3e34)" d="M 120.18467 239.754688 
L 127.603527 239.663303 
L 133.785908 239.369133 
L 138.731813 238.932105 
L 142.441242 238.398932 
L 144.914194 237.891327 
L 147.387147 237.173749 
L 149.860099 236.196586 
L 152.333051 234.991938 
L 154.806004 233.576315 
L 157.278956 231.809247 
L 158.515432 230.704037 
L 159.751909 229.399519 
L 160.988385 227.872731 
L 162.224861 226.124897 
L 164.697813 222.089473 
L 167.170766 217.589658 
L 169.643718 212.662311 
L 172.116671 207.036361 
L 174.589623 200.579073 
L 178.299052 189.856128 
L 183.244956 174.631017 
L 185.717909 167.068418 
L 188.190861 160.221171 
L 189.427337 157.216564 
L 190.663814 154.538139 
L 191.90029 152.195604 
L 193.136766 150.174172 
L 194.373242 148.433214 
L 196.846195 145.545405 
L 199.319147 143.106395 
L 200.555623 142.045879 
L 201.792099 141.173992 
L 203.028576 140.596994 
L 204.265052 140.432784 
L 205.501528 140.783534 
L 206.738004 141.708497 
L 207.97448 143.20534 
L 209.210957 145.208441 
L 210.447433 147.608245 
L 212.920385 153.159965 
L 215.393338 159.436336 
L 217.86629 166.779369 
L 220.339242 175.482228 
L 224.048671 189.547071 
L 226.521623 197.844506 
L 228.994576 204.729301 
L 231.467528 210.633016 
L 233.940481 215.894717 
L 236.413433 220.388833 
L 237.649909 222.288558 
L 240.122862 225.486574 
L 242.595814 228.222746 
L 245.068766 230.759582 
L 247.541719 233.018376 
L 250.014671 234.847958 
L 252.487624 236.26295 
L 254.960576 237.361652 
L 257.433528 238.187024 
L 259.906481 238.740621 
L 262.379433 239.070847 
L 268.561814 239.544271 
L 273.507719 239.727984 
L 277.217148 239.754167 
L 277.217148 239.754167 
" style="fill:none;stroke:#64b5cd;stroke-linecap:round;stroke-width:1.75;"/>
   </g>
   <g id="patch_3">
    <path d="M 35.208438 239.758125 
L 35.208438 22.318125 
" style="fill:none;"/>
   </g>
   <g id="patch_4">
    <path d="M 370.008438 239.758125 
L 370.008438 22.318125 
" style="fill:none;"/>
   </g>
   <g id="patch_5">
    <path d="M 35.208438 239.758125 
L 370.008438 239.758125 
" style="fill:none;"/>
   </g>
   <g id="patch_6">
    <path d="M 35.208438 22.318125 
L 370.008438 22.318125 
" style="fill:none;"/>
   </g>
   <g id="text_19">
    <!-- Robust Per-Group Estimates of Rho -->
    <defs>
     <path d="M 44.390625 34.1875 
Q 47.5625 33.109375 50.5625 29.59375 
Q 53.5625 26.078125 56.59375 19.921875 
L 66.609375 0 
L 56 0 
L 46.6875 18.703125 
Q 43.0625 26.03125 39.671875 28.421875 
Q 36.28125 30.8125 30.421875 30.8125 
L 19.671875 30.8125 
L 19.671875 0 
L 9.8125 0 
L 9.8125 72.90625 
L 32.078125 72.90625 
Q 44.578125 72.90625 50.734375 67.671875 
Q 56.890625 62.453125 56.890625 51.90625 
Q 56.890625 45.015625 53.6875 40.46875 
Q 50.484375 35.9375 44.390625 34.1875 
z
M 19.671875 64.796875 
L 19.671875 38.921875 
L 32.078125 38.921875 
Q 39.203125 38.921875 42.84375 42.21875 
Q 46.484375 45.515625 46.484375 51.90625 
Q 46.484375 58.296875 42.84375 61.546875 
Q 39.203125 64.796875 32.078125 64.796875 
z
" id="DejaVuSans-52"/>
     <path d="M 8.5 21.578125 
L 8.5 54.6875 
L 17.484375 54.6875 
L 17.484375 21.921875 
Q 17.484375 14.15625 20.5 10.265625 
Q 23.53125 6.390625 29.59375 6.390625 
Q 36.859375 6.390625 41.078125 11.03125 
Q 45.3125 15.671875 45.3125 23.6875 
L 45.3125 54.6875 
L 54.296875 54.6875 
L 54.296875 0 
L 45.3125 0 
L 45.3125 8.40625 
Q 42.046875 3.421875 37.71875 1 
Q 33.40625 -1.421875 27.6875 -1.421875 
Q 18.265625 -1.421875 13.375 4.4375 
Q 8.5 10.296875 8.5 21.578125 
z
M 31.109375 56 
z
" id="DejaVuSans-75"/>
     <path d="M 4.890625 31.390625 
L 31.203125 31.390625 
L 31.203125 23.390625 
L 4.890625 23.390625 
z
" id="DejaVuSans-2d"/>
     <path d="M 59.515625 10.40625 
L 59.515625 29.984375 
L 43.40625 29.984375 
L 43.40625 38.09375 
L 69.28125 38.09375 
L 69.28125 6.78125 
Q 63.578125 2.734375 56.6875 0.65625 
Q 49.8125 -1.421875 42 -1.421875 
Q 24.90625 -1.421875 15.25 8.5625 
Q 5.609375 18.5625 5.609375 36.375 
Q 5.609375 54.25 15.25 64.234375 
Q 24.90625 74.21875 42 74.21875 
Q 49.125 74.21875 55.546875 72.453125 
Q 61.96875 70.703125 67.390625 67.28125 
L 67.390625 56.78125 
Q 61.921875 61.421875 55.765625 63.765625 
Q 49.609375 66.109375 42.828125 66.109375 
Q 29.4375 66.109375 22.71875 58.640625 
Q 16.015625 51.171875 16.015625 36.375 
Q 16.015625 21.625 22.71875 14.15625 
Q 29.4375 6.6875 42.828125 6.6875 
Q 48.046875 6.6875 52.140625 7.59375 
Q 56.25 8.5 59.515625 10.40625 
z
" id="DejaVuSans-47"/>
     <path d="M 18.109375 8.203125 
L 18.109375 -20.796875 
L 9.078125 -20.796875 
L 9.078125 54.6875 
L 18.109375 54.6875 
L 18.109375 46.390625 
Q 20.953125 51.265625 25.265625 53.625 
Q 29.59375 56 35.59375 56 
Q 45.5625 56 51.78125 48.09375 
Q 58.015625 40.1875 58.015625 27.296875 
Q 58.015625 14.40625 51.78125 6.484375 
Q 45.5625 -1.421875 35.59375 -1.421875 
Q 29.59375 -1.421875 25.265625 0.953125 
Q 20.953125 3.328125 18.109375 8.203125 
z
M 48.6875 27.296875 
Q 48.6875 37.203125 44.609375 42.84375 
Q 40.53125 48.484375 33.40625 48.484375 
Q 26.265625 48.484375 22.1875 42.84375 
Q 18.109375 37.203125 18.109375 27.296875 
Q 18.109375 17.390625 22.1875 11.75 
Q 26.265625 6.109375 33.40625 6.109375 
Q 40.53125 6.109375 44.609375 11.75 
Q 48.6875 17.390625 48.6875 27.296875 
z
" id="DejaVuSans-70"/>
     <path d="M 9.8125 72.90625 
L 55.90625 72.90625 
L 55.90625 64.59375 
L 19.671875 64.59375 
L 19.671875 43.015625 
L 54.390625 43.015625 
L 54.390625 34.71875 
L 19.671875 34.71875 
L 19.671875 8.296875 
L 56.78125 8.296875 
L 56.78125 0 
L 9.8125 0 
z
" id="DejaVuSans-45"/>
     <path d="M 52 44.1875 
Q 55.375 50.25 60.0625 53.125 
Q 64.75 56 71.09375 56 
Q 79.640625 56 84.28125 50.015625 
Q 88.921875 44.046875 88.921875 33.015625 
L 88.921875 0 
L 79.890625 0 
L 79.890625 32.71875 
Q 79.890625 40.578125 77.09375 44.375 
Q 74.3125 48.1875 68.609375 48.1875 
Q 61.625 48.1875 57.5625 43.546875 
Q 53.515625 38.921875 53.515625 30.90625 
L 53.515625 0 
L 44.484375 0 
L 44.484375 32.71875 
Q 44.484375 40.625 41.703125 44.40625 
Q 38.921875 48.1875 33.109375 48.1875 
Q 26.21875 48.1875 22.15625 43.53125 
Q 18.109375 38.875 18.109375 30.90625 
L 18.109375 0 
L 9.078125 0 
L 9.078125 54.6875 
L 18.109375 54.6875 
L 18.109375 46.1875 
Q 21.1875 51.21875 25.484375 53.609375 
Q 29.78125 56 35.6875 56 
Q 41.65625 56 45.828125 52.96875 
Q 50 49.953125 52 44.1875 
z
" id="DejaVuSans-6d"/>
     <path d="M 54.890625 33.015625 
L 54.890625 0 
L 45.90625 0 
L 45.90625 32.71875 
Q 45.90625 40.484375 42.875 44.328125 
Q 39.84375 48.1875 33.796875 48.1875 
Q 26.515625 48.1875 22.3125 43.546875 
Q 18.109375 38.921875 18.109375 30.90625 
L 18.109375 0 
L 9.078125 0 
L 9.078125 75.984375 
L 18.109375 75.984375 
L 18.109375 46.1875 
Q 21.34375 51.125 25.703125 53.5625 
Q 30.078125 56 35.796875 56 
Q 45.21875 56 50.046875 50.171875 
Q 54.890625 44.34375 54.890625 33.015625 
z
" id="DejaVuSans-68"/>
    </defs>
    <g style="fill:#262626;" transform="translate(96.67 16.318125)scale(0.12 -0.12)">
     <use xlink:href="#DejaVuSans-52"/>
     <use x="69.419922" xlink:href="#DejaVuSans-6f"/>
     <use x="130.601562" xlink:href="#DejaVuSans-62"/>
     <use x="194.078125" xlink:href="#DejaVuSans-75"/>
     <use x="257.457031" xlink:href="#DejaVuSans-73"/>
     <use x="309.556641" xlink:href="#DejaVuSans-74"/>
     <use x="348.765625" xlink:href="#DejaVuSans-20"/>
     <use x="380.552734" xlink:href="#DejaVuSans-50"/>
     <use x="440.808594" xlink:href="#DejaVuSans-65"/>
     <use x="502.332031" xlink:href="#DejaVuSans-72"/>
     <use x="543.351562" xlink:href="#DejaVuSans-2d"/>
     <use x="579.482422" xlink:href="#DejaVuSans-47"/>
     <use x="656.972656" xlink:href="#DejaVuSans-72"/>
     <use x="698.054688" xlink:href="#DejaVuSans-6f"/>
     <use x="759.236328" xlink:href="#DejaVuSans-75"/>
     <use x="822.615234" xlink:href="#DejaVuSans-70"/>
     <use x="886.091797" xlink:href="#DejaVuSans-20"/>
     <use x="917.878906" xlink:href="#DejaVuSans-45"/>
     <use x="981.0625" xlink:href="#DejaVuSans-73"/>
     <use x="1033.162109" xlink:href="#DejaVuSans-74"/>
     <use x="1072.371094" xlink:href="#DejaVuSans-69"/>
     <use x="1100.154297" xlink:href="#DejaVuSans-6d"/>
     <use x="1197.566406" xlink:href="#DejaVuSans-61"/>
     <use x="1258.845703" xlink:href="#DejaVuSans-74"/>
     <use x="1298.054688" xlink:href="#DejaVuSans-65"/>
     <use x="1359.578125" xlink:href="#DejaVuSans-73"/>
     <use x="1411.677734" xlink:href="#DejaVuSans-20"/>
     <use x="1443.464844" xlink:href="#DejaVuSans-6f"/>
     <use x="1504.646484" xlink:href="#DejaVuSans-66"/>
     <use x="1539.851562" xlink:href="#DejaVuSans-20"/>
     <use x="1571.638672" xlink:href="#DejaVuSans-52"/>
     <use x="1641.121094" xlink:href="#DejaVuSans-68"/>
     <use x="1704.5" xlink:href="#DejaVuSans-6f"/>
    </g>
   </g>
  </g>
 </g>
 <defs>
  <clipPath id="p7c9a5b3e34">
   <rect height="217.44" width="334.8" x="35.208438" y="22.318125"/>
  </clipPath>
 </defs>
</svg>
