<svg viewBox="0 0 373 278" xmlns="http://www.w3.org/2000/svg" xmlns:xlink="http://www.w3.org/1999/xlink"><defs><style>*{stroke-linecap:butt;stroke-linejoin:round}</style></defs><g id="figure_1"><path d="M0 278.3h373.5V0H0z" fill="#fff" id="patch_1"/><g id="axes_1"><path d="M41.6 239.8h267.8V22.3H41.6z" fill="#eaeaf2" id="patch_2"/><g id="matplotlib.axis_1"><g id="xtick_1"><path clip-path="url(#p34471c2fa8)" d="M70.1 239.8V22.3" fill="none" stroke="#fff" stroke-linecap="round" id="line2d_1"/><g id="text_1"><defs><path d="M37.8 64.3l-25-39h25zM35.2 73h12.4V25.4H58v-8.2H47.6V0h-9.8v17.2h-33v9.5z" id="DejaVuSans-34"/></defs><use xlink:href="#DejaVuSans-34" transform="matrix(.1 0 0 -.1 67 254.4)" fill="#262626"/></g></g><g id="xtick_2"><path clip-path="url(#p34471c2fa8)" d="M117.8 239.8V22.3" fill="none" stroke="#fff" stroke-linecap="round" id="line2d_3"/><g id="text_2"><defs><path d="M33 40.4q-6.6 0-10.5-4.6-3.9-4.5-3.9-12.4T22.5 11Q26.4 6.4 33 6.4q6.7 0 10.5 4.6 4 4.5 4 12.4t-4 12.4q-3.8 4.6-10.5 4.6zm19.6 30.9v-9Q48.9 64.1 45 65q-3.8 1-7.5 1-9.8 0-15-6.7-5-6.6-5.8-19.9 2.9 4.3 7.2 6.5 4.4 2.3 9.6 2.3 11 0 17.4-6.7 6.3-6.6 6.3-18.1 0-11.2-6.6-18Q44-1.4 33-1.4q-12.6 0-19.3 9.7Q7 18 7 36.3 7 53.8 15.2 64q8.2 10.3 22 10.3 3.7 0 7.5-.7 3.8-.8 7.9-2.2z" id="DejaVuSans-36"/></defs><use xlink:href="#DejaVuSans-36" transform="matrix(.1 0 0 -.1 114.6 254.4)" fill="#262626"/></g></g><g id="xtick_3"><path clip-path="url(#p34471c2fa8)" d="M165.4 239.8V22.3" fill="none" stroke="#fff" stroke-linecap="round" id="line2d_5"/><g id="text_3"><defs><path d="M31.8 34.6q-7 0-11-3.7-4.1-3.8-4.1-10.4 0-6.6 4-10.3 4-3.8 11-3.8 7.1 0 11.2 3.8 4 3.8 4 10.3 0 6.6-4 10.4-4 3.7-11.1 3.7zm-9.9 4.2q-6.3 1.6-9.9 6Q8.5 49 8.5 55.2q0 8.8 6.2 13.8 6.3 5.1 17 5.1 11 0 17.2-5Q55 64 55 55.2q0-6.2-3.6-10.6-3.5-4.3-9.8-5.9 7.1-1.6 11.1-6.5 4-4.8 4-11.8 0-10.6-6.5-16.3-6.5-5.6-18.5-5.6T13.2 4.2Q6.8 10 6.8 20.5q0 7 4 11.8 4 4.9 11.1 6.5zm-3.6 15.6q0-5.7 3.5-8.8 3.6-3.2 10-3.2 6.3 0 10 3.2 3.5 3.1 3.5 8.8 0 5.7-3.6 8.8-3.6 3.2-10 3.2-6.3 0-9.9-3.2-3.5-3.1-3.5-8.8z" id="DejaVuSans-38"/></defs><use xlink:href="#DejaVuSans-38" transform="matrix(.1 0 0 -.1 162.2 254.4)" fill="#262626"/></g></g><g id="xtick_4"><path clip-path="url(#p34471c2fa8)" d="M213 239.8V22.3" fill="none" stroke="#fff" stroke-linecap="round" id="line2d_7"/><g id="text_4"><defs><path d="M12.4 8.3h16.1v55.6L11 60.4v9l17.4 3.5h9.9V8.3h16V0H12.5z" id="DejaVuSans-31"/><path d="M31.8 66.4q-7.6 0-11.5-7.5-3.8-7.5-3.8-22.5t3.8-22.5q3.9-7.5 11.5-7.5 7.7 0 11.5 7.5T47 36.4q0 15-3.8 22.5t-11.5 7.5zm0 7.8q12.2 0 18.7-9.7T57 36.4Q57 18 50.5 8.3 44-1.4 31.8-1.4 19.5-1.4 13 8.3q-6.5 9.7-6.5 28 0 18.5 6.5 28.2 6.4 9.7 18.7 9.7z" id="DejaVuSans-30"/></defs><g transform="matrix(.1 0 0 -.1 206.7 254.4)" fill="#262626"><use xlink:href="#DejaVuSans-31"/><use x="63.6" xlink:href="#DejaVuSans-30"/></g></g></g><g id="xtick_5"><path clip-path="url(#p34471c2fa8)" d="M260.7 239.8V22.3" fill="none" stroke="#fff" stroke-linecap="round" id="line2d_9"/><g id="text_5"><defs><path d="M19.2 8.3h34.4V0H7.3v8.3l15.3 15.6q9.7 9.8 12.2 12.6 4.7 5.3 6.6 9 2 3.7 2 7.3 0 5.8-4.2 9.5-4 3.6-10.6 3.6-4.6 0-9.8-1.6-5.1-1.6-11-4.9v10q6 2.4 11.1 3.6 5.2 1.2 9.5 1.2 11.4 0 18-5.7 6.8-5.6 6.8-15 0-4.6-1.7-8.6-1.6-4-6-9.5l-7.9-8.2L19.2 8.3z" id="DejaVuSans-32"/></defs><g transform="matrix(.1 0 0 -.1 254.3 254.4)" fill="#262626"><use xlink:href="#DejaVuSans-31"/><use x="63.6" xlink:href="#DejaVuSans-32"/></g></g></g><g id="xtick_6"><path clip-path="url(#p34471c2fa8)" d="M308.3 239.8V22.3" fill="none" stroke="#fff" stroke-linecap="round" id="line2d_11"/><g transform="matrix(.1 0 0 -.1 302 254.4)" fill="#262626" id="text_6"><use xlink:href="#DejaVuSans-31"/><use x="63.6" xlink:href="#DejaVuSans-34"/></g></g><g id="text_7"><defs><path d="M13.7 73h10l12.5-26.4 22.6 26.3h11.5l-30-34.8L58.4 0h-10L33.9 30.7 7.2 0H-4.3l34 39.2z" id="DejaVuSans-Oblique-58"/><path d="M53.5 70.5V61q-5.6 2.7-10.6 4-5 1.3-9.6 1.3-8 0-12.4-3.1t-4.4-8.9q0-4.8 3-7.3 2.8-2.5 11-4l5.9-1.2q11-2.1 16.3-7.4 5.2-5.3 5.2-14.2 0-10.6-7.1-16Q43.7-1.5 30-1.5q-5.2 0-11 1.1Q13 1 6.9 3.3v10.2q6-3.4 11.8-5.1Q24.4 6.6 30 6.6q8.4 0 13 3.3t4.6 9.5q0 5.4-3.3 8.4t-10.8 4.5l-6 1.2q-11 2.2-16 6.9t-5 13q0 9.7 7 15.3 6.7 5.5 18.7 5.5 5.1 0 10.4-1 5.4-.8 11-2.7z" id="DejaVuSans-53"/><path d="M18.3 70.2V54.7h18.5v-7H18.3V18q0-6.7 1.8-8.6 1.9-1.9 7.5-1.9h9.2V0h-9.2Q17.2 0 13.2 3.9T9.2 18v29.7H2.8v7h6.6v15.5z" id="DejaVuSans-74"/><path d="M45.4 46.4V76h9V0h-9v8.2Q42.6 3.3 38.3 1q-4.4-2.4-10.4-2.4-10 0-16.2 7.9-6.2 8-6.2 20.8 0 12.9 6.2 20.8Q18 56 28 56q6 0 10.4-2.4 4.3-2.3 7.1-7.2zM14.8 27.3q0-10 4-15.6Q23 6.2 30.2 6.2q7.1 0 11.2 5.7 4.1 5.6 4.1 15.5t-4.1 15.5q-4.1 5.7-11.2 5.7t-11.2-5.7q-4.1-5.6-4.1-15.5z" id="DejaVuSans-64"/><path d="M19.7 64.8V8.1h11.9q15 0 22 6.8 7 6.9 7 21.6 0 14.7-7 21.5-7 6.8-22 6.8zm-9.9 8.1h20.3q21.2 0 31-8.8 10-8.8 10-27.6T61 8.8Q51.1 0 30.1 0H9.8z" id="DejaVuSans-44"/><path d="M56.2 29.6v-4.4H14.9q.6-9.3 5.6-14.1 5-4.9 14-4.9 5 0 10 1.3 4.8 1.2 9.6 3.8V2.8q-4.8-2-10-3.1-5-1.1-10.2-1.1-13.1 0-20.7 7.6-7.7 7.6-7.7 20.6 0 13.4 7.3 21.3Q20 56 32.3 56q11 0 17.5-7.1 6.4-7.1 6.4-19.3zm-9 2.6q0 7.4-4.1 11.8-4 4.4-10.7 4.4-7.5 0-12-4.3-4.5-4.2-5.2-12z" id="DejaVuSans-65"/><path d="M3 54.7h9.5l17-45.9 17.2 45.9h9.5L35.7 0H23.5z" id="DejaVuSans-76"/></defs><g transform="matrix(.11 0 0 -.11 145.6 268.8)" fill="#262626"><use xlink:href="#DejaVuSans-Oblique-58"/><use transform="matrix(.7 0 0 .7 68.5 -16.4)" xlink:href="#DejaVuSans-31"/><use transform="translate(115.8)" xlink:href="#DejaVuSans-20"/><use transform="translate(147.6)" xlink:href="#DejaVuSans-53"/><use transform="translate(211)" xlink:href="#DejaVuSans-74"/><use transform="translate(250.2)" xlink:href="#DejaVuSans-64"/><use transform="translate(313.7)" xlink:href="#DejaVuSans-20"/><use transform="translate(345.5)" xlink:href="#DejaVuSans-44"/><use transform="translate(422.5)" xlink:href="#DejaVuSans-65"/><use transform="translate(484)" xlink:href="#DejaVuSans-76"/></g></g></g><g id="matplotlib.axis_2"><g id="ytick_1"><path clip-path="url(#p34471c2fa8)" d="M41.6 223.5h267.8" fill="none" stroke="#fff" stroke-linecap="round" id="line2d_13"/><use xlink:href="#DejaVuSans-34" transform="matrix(.1 0 0 -.1 28.2 227.3)" fill="#262626" id="text_8"/></g><g id="ytick_2"><path clip-path="url(#p34471c2fa8)" d="M41.6 188.4h267.8" fill="none" stroke="#fff" stroke-linecap="round" id="line2d_15"/><use xlink:href="#DejaVuSans-36" transform="matrix(.1 0 0 -.1 28.2 192.2)" fill="#262626" id="text_9"/></g><g id="ytick_3"><path clip-path="url(#p34471c2fa8)" d="M41.6 153.3h267.8" fill="none" stroke="#fff" stroke-linecap="round" id="line2d_17"/><use xlink:href="#DejaVuSans-38" transform="matrix(.1 0 0 -.1 28.2 157.1)" fill="#262626" id="text_10"/></g><g id="ytick_4"><path clip-path="url(#p34471c2fa8)" d="M41.6 118.2h267.8" fill="none" stroke="#fff" stroke-linecap="round" id="line2d_19"/><g transform="matrix(.1 0 0 -.1 21.8 122)" fill="#262626" id="text_11"><use xlink:href="#DejaVuSans-31"/><use x="63.6" xlink:href="#DejaVuSans-30"/></g></g><g id="ytick_5"><path clip-path="url(#p34471c2fa8)" d="M41.6 83h267.8" fill="none" stroke="#fff" stroke-linecap="round" id="line2d_21"/><g transform="matrix(.1 0 0 -.1 21.8 86.9)" fill="#262626" id="text_12"><use xlink:href="#DejaVuSans-31"/><use x="63.6" xlink:href="#DejaVuSans-32"/></g></g><g id="ytick_6"><path clip-path="url(#p34471c2fa8)" d="M41.6 48h267.8" fill="none" stroke="#fff" stroke-linecap="round" id="line2d_23"/><g transform="matrix(.1 0 0 -.1 21.8 51.8)" fill="#262626" id="text_13"><use xlink:href="#DejaVuSans-31"/><use x="63.6" xlink:href="#DejaVuSans-34"/></g></g><g transform="matrix(0 -.11 -.11 0 15.6 161)" fill="#262626" id="text_14"><use xlink:href="#DejaVuSans-Oblique-58"/><use transform="matrix(.7 0 0 .7 68.5 -16.4)" xlink:href="#DejaVuSans-32"/><use transform="translate(115.8)" xlink:href="#DejaVuSans-20"/><use transform="translate(147.6)" xlink:href="#DejaVuSans-53"/><use transform="translate(211)" xlink:href="#DejaVuSans-74"/><use transform="translate(250.2)" xlink:href="#DejaVuSans-64"/><use transform="translate(313.7)" xlink:href="#DejaVuSans-20"/><use transform="translate(345.5)" xlink:href="#DejaVuSans-44"/><use transform="translate(422.5)" xlink:href="#DejaVuSans-65"/><use transform="translate(484)" xlink:href="#DejaVuSans-76"/></g></g><path clip-path="url(#p34471c2fa8)" d="M82.2 211.4l2.7 1.7 2.7.2 2.7-.3 2.7-.7 5.4-2.1 11.4-5.6 2.1-1 5.6-3.4 3.3-2.2 4.6-3.3 5.5-4 8-6 5.5-4.2 5.1-4.4.3-.3 4.3-4.1 2.2-2.2 2.5-2.2 5.3-4.4 2.3-2.2 2.3-2.7 1.4-1.7 1.5-2.2 2.5-3.5 1-.9 1.8-2.2 1.2-2.2-.9-2.2-.4-.2-2.7-.6h-2.7l-2.7.4-5.4 1.3-5.4 1.8-3.8 1.7-1.6.8-2.7 1.6-3 2-6 4.4-4.5 2.8-6.2 3.8-3 2.2-4.4 3.2-9.8 7.8-3.7 2.5-2.7 2-2.7 2-2.7 2.4-4.3 4.2-3.8 4-.6.4-4.8 5.4-1.2 1.2-3.1 4.4-1.1 2.5-.6 2 .6 2.3h0" fill="none" stroke="#333" stroke-width="1.8" id="LineCollection_1"/><path clip-path="url(#p34471c2fa8)" d="M90.3 207.5l2.7.3 2.7-.4 1.7-.6 1-.3 2.7-1 2.2-.9.5-.2 2.7-1.2 1.6-.8 1.1-.5 2.7-1.4.4-.3 2.3-1.2 1.5-1 1.2-.7 2.2-1.5.5-.4 2.5-1.8.2-.1 2.7-2v-.1l2.7-2 .2-.2 2.6-1.8.5-.4 2.2-1.5.8-.7 1.9-1.3 1-.8 1.7-1.3 1.2-1 1.5-1.2 1-1 1.7-1.5.7-.6 2-2.1.1-.1 2-2.2.6-.9 1.2-1.3 1.5-2 .2-.2 2-2.2.5-.7 1.7-1.5 1-1 1.3-1.2 1.4-1.5.7-.7 1.6-2.2.4-.8.7-1.4v-2.2l-.7-.7-2.7-.4-2.7.6-1.4.5-1.3.6-2.7 1.3-.5.3-2.2 1.3-1.4.9-1.3.8-2.2 1.4-.5.3-2.7 1.4-.9.5-1.8.8-2.7 1.4h0l-2.7 1.4-1.3.8-1.4.9-2 1.3-.8.5-2.3 1.7-.4.2-2.5 2-.2.1-2.5 2-.2.2-2.6 2v.1l-2.8 2-.3.2-2.4 1.5-.9.7-1.8 1.2-1.2 1-1.5 1.1-1.2 1-1.5 1.4-.9.8-1.8 2-.3.2-2 2.2-.4.5-1.7 1.7-1 1.1-1 1.1-1.7 2-.2.2-1.6 2.2-1 1.6-.3.6-.8 2.2.2 2.2 1 .7" fill="none" stroke="#356b4c" stroke-width="1.8" id="LineCollection_2"/><path clip-path="url(#p34471c2fa8)" d="M98.4 203l2.7-.4.5-.2 2.2-.7 2.7-1 .9-.5 1.8-.8 2.7-1.3h.1l2.6-1.5 1.3-.8 1.4-.9 2-1.3.7-.5 2.3-1.7.4-.3 2.4-1.9.3-.2 2.6-2h.1l2.8-2 .1-.2 2.6-1.8.4-.3 2.3-1.8.6-.4 2-1.8.6-.4 2.2-2.1.1-.1 2-2.2.6-.8 1.1-1.4 1.4-2.2.2-.5.8-1.7.4-2.2-1.2-2h-2.7l-2.7.6-2.7.8-1.3.6-1.4.6-2.7 1.3-.5.3-2.2 1.3-1.4.9-1.4.9-1.8 1.3-.9.6-2 1.6-.7.5-2 1.7-.7.4-2.3 1.8-.4.2-2.7 1.8-.1.2-2.6 1.7-.6.5-2 1.5-.9.6-1.9 1.8-.5.4-2.1 2.2-.1.1-1.9 2.1-.8 1-1 1.2-1.7 2-.2.2-1.5 2.2-1 2-.1.2v1.5l.2.7 2.6.6" fill="none" stroke="#37a366" stroke-width="1.8" id="LineCollection_3"/><path clip-path="url(#p34471c2fa8)" d="M103.8 198.3l1.4-.3 1.3-.2 2.7-1 2.6-1h.1l2.7-1.4 1.3-.8 1.4-.8 2-1.4.7-.5 2.2-1.7.5-.4 2.3-1.8.4-.3 2.5-1.9.2-.1 2.8-2h0l2.7-2 .2-.2 2.5-2 .2-.2 2.3-2.2.2-.3 1.6-2 1-1.7.3-.4.5-2.2-.7-1.3-2.7-.5-2.7.7-2.6 1-.1.1-2.7 1.5-1 .7-1.8 1-1.5 1.2-1.2.8-1.7 1.4-1 .8-1.8 1.4-.9.6-2.3 1.6-.4.2-2.7 1.8-.2.2-2.5 1.7-.6.4-2 1.9-.5.3-2 2.2-.3.3-1.5 2-1.2 1.7-.3.4-1 2.2.5 2.2.8.3" fill="none" stroke="#71c19d" stroke-width="1.8" id="LineCollection_4"/><path clip-path="url(#p34471c2fa8)" d="M109.2 192.5l2.7.3 2.7-1 .8-.4 2-1.1 1.4-1 1.2-1 1.6-1.3 1.1-1 1.5-1.2 1.2-1 1.6-1.1 1.1-1 1.8-1.2 1-.8 1.8-1.4.9-.9 1.3-1.3 1.4-2V173.4l-2.7-.7-2.7 1h-.2l-2.6 1.8-.6.5-2 1.6-.8.6-2 1.5-1 .7-1.7 1-1.8 1.2-.9.5-2.6 1.6v.1L112 187v.1l-1.9 2.1-.9 1.7-.3.5.3 1" fill="none" stroke="#aadfd3" stroke-width="1.8" id="LineCollection_5"/><path d="M41.6 239.8V22.3" fill="none" id="patch_3"/><path d="M309.4 239.8V22.3" fill="none" id="patch_4"/><path d="M41.6 239.8h267.8" fill="none" id="patch_5"/><path d="M41.6 22.3h267.8" fill="none" id="patch_6"/><g id="text_15"><defs><path d="M48.7 27.3q0 9.9-4 15.5-4.2 5.7-11.3 5.7-7.1 0-11.2-5.7-4-5.6-4-15.5 0-10 4-15.6t11.2-5.6q7.1 0 11.2 5.7 4 5.6 4 15.5zM18 46.3q2.9 5 7.2 7.3Q29.6 56 35.6 56q10 0 16.2-8Q58 40.3 58 27.4q0-12.9-6.2-20.8-6.2-8-16.2-8-6 0-10.3 2.5Q21 3.3 18 8.2V0h-9v76h9z" id="DejaVuSans-62"/><path d="M19.7 64.8V37.4H32q6.9 0 10.6 3.6 3.8 3.5 3.8 10.1t-3.8 10.1q-3.7 3.6-10.6 3.6zm-9.9 8.1h22.3q12.2 0 18.5-5.5Q57 61.8 57 51q0-10.8-6.3-16.3t-18.5-5.5H19.7V0H9.8z" id="DejaVuSans-50"/><path d="M44.3 53v-8.4q-3.8 2-8 2.9-4 1-8.4 1-6.7 0-10-2-3.4-2.1-3.4-6.2 0-3.1 2.4-5 2.4-1.7 9.6-3.3l3-.7q9.7-2 13.7-5.8 4-3.7 4-10.4 0-7.6-6-12-6-4.5-16.6-4.5-4.4 0-9.1.8-4.8.9-10 2.6v9.3q5-2.6 9.7-4 4.9-1.2 9.6-1.2 6.4 0 9.8 2.2 3.4 2.2 3.4 6.1 0 3.7-2.5 5.6-2.4 2-10.8 3.8l-3.1.7q-8.4 1.8-12 5.4-3.8 3.6-3.8 10 0 7.7 5.5 11.9Q16.7 56 26.8 56q5 0 9.4-.7 4.4-.8 8-2.2z" id="DejaVuSans-73"/><path d="M41.1 46.3q-1.5.9-3.3 1.3-1.8.4-4 .4-7.5 0-11.6-5-4-5-4-14.2V0H9v54.7h9v-8.5q2.9 5 7.4 7.4Q30 56 36.5 56l2-.1 2.6-.4z" id="DejaVuSans-72"/><path d="M9.4 54.7h9V0h-9zm0 21.3h9V64.6h-9z" id="DejaVuSans-69"/><path d="M9.8 73h9.9V5q0-13.1-5-19-5-6-16.1-6h-3.8v8.3H-2q6.5 0 9.2 3.7Q9.8-4.4 9.8 5z" id="DejaVuSans-4a"/><path d="M54.9 33V0h-9v32.7q0 7.8-3 11.6-3 3.9-9.1 3.9-7.3 0-11.5-4.7Q18.1 39 18.1 31V0h-9v54.7h9v-8.5q3.2 5 7.6 7.4Q30.1 56 35.8 56q9.4 0 14.2-5.8Q55 44.3 55 33z" id="DejaVuSans-6e"/><path d="M30.6 48.4q-7.2 0-11.4-5.6Q15 37 15 27.3t4.2-15.5q4.1-5.6 11.4-5.6 7.2 0 11.4 5.7 4.2 5.6 4.2 15.4 0 9.7-4.2 15.4-4.2 5.7-11.4 5.7zm0 7.6q11.7 0 18.4-7.6 6.7-7.6 6.7-21.1 0-13.4-6.7-21-6.7-7.7-18.4-7.7-11.8 0-18.4 7.6Q5.5 14 5.5 27.3q0 13.5 6.7 21Q18.8 56 30.6 56z" id="DejaVuSans-6f"/><path d="M8.5 21.6v33h9V22q0-7.7 3-11.6 3-4 9-4 7.4 0 11.6 4.7 4.2 4.7 4.2 12.7v31h9V0h-9v8.4Q42 3.4 37.7 1q-4.3-2.4-10-2.4-9.4 0-14.3 5.8-4.9 5.9-4.9 17.2zM31.1 56z" id="DejaVuSans-75"/><path d="M37.1 76v-7.5h-8.6q-4.8 0-6.7-2-1.9-2-1.9-7v-4.8h14.8v-7H20V0h-9v47.7H2.3v7h8.6v3.8q0 9.1 4.2 13.3Q19.4 76 28.6 76z" id="DejaVuSans-66"/><path d="M54.9 33V0h-9v32.7q0 7.8-3 11.6-3 3.9-9.1 3.9-7.3 0-11.5-4.7Q18.1 39 18.1 31V0h-9v76h9V46.2q3.2 5 7.6 7.4Q30.1 56 35.8 56q9.4 0 14.2-5.8Q55 44.3 55 33z" id="DejaVuSans-68"/><path d="M28.6 0L.8 73H11l23-61.5L57.4 73h10.3L39.8 0z" id="DejaVuSans-56"/><path d="M34.3 27.5q-11 0-15.1-2.5-4.2-2.5-4.2-8.5 0-4.8 3.1-7.6 3.2-2.8 8.6-2.8 7.5 0 12 5.3t4.5 14v2zm17.9 3.7V0h-9v8.3q-3-5-7.7-7.3Q31-1.4 24.3-1.4 16-1.4 11 3.3 6 8 6 15.9q0 9.2 6.2 14 6.2 4.6 18.4 4.6h12.6v1q0 6.1-4 9.5-4.1 3.4-11.5 3.4-4.7 0-9.2-1.1-4.4-1.2-8.5-3.4v8.3q5 2 9.6 2.8 4.6 1 9 1 11.9 0 17.7-6.2 5.9-6.1 5.9-18.6z" id="DejaVuSans-61"/><path d="M48.8 52.6v-8.4Q45 46.3 41 47.3q-3.8 1-7.7 1-8.7 0-13.6-5.5Q15 37.3 15 27.3t4.8-15.6q4.9-5.5 13.6-5.5 4 0 7.7 1 3.9 1.1 7.7 3.2V2.1Q45 .3 41-.5q-4-1-8.6-1-12.3 0-19.6 7.8-7.3 7.8-7.3 21 0 13.4 7.4 21Q20.2 56 33 56q4.2 0 8.1-.9 4-.8 7.7-2.5z" id="DejaVuSans-63"/></defs><g transform="matrix(.12 0 0 -.12 45.8 16.3)" fill="#262626"><use xlink:href="#DejaVuSans-50"/><use x="60.3" xlink:href="#DejaVuSans-6f"/><use x="121.4" xlink:href="#DejaVuSans-73"/><use x="173.5" xlink:href="#DejaVuSans-74"/><use x="212.7" xlink:href="#DejaVuSans-65"/><use x="274.3" xlink:href="#DejaVuSans-72"/><use x="315.4" xlink:href="#DejaVuSans-69"/><use x="343.2" xlink:href="#DejaVuSans-6f"/><use x="404.3" xlink:href="#DejaVuSans-72"/><use x="445.5" xlink:href="#DejaVuSans-20"/><use x="477.2" xlink:href="#DejaVuSans-4a"/><use x="506.7" xlink:href="#DejaVuSans-6f"/><use x="567.9" xlink:href="#DejaVuSans-69"/><use x="595.7" xlink:href="#DejaVuSans-6e"/><use x="659.1" xlink:href="#DejaVuSans-74"/><use x="698.3" xlink:href="#DejaVuSans-20"/><use x="730.1" xlink:href="#DejaVuSans-44"/><use x="807.1" xlink:href="#DejaVuSans-69"/><use x="834.9" xlink:href="#DejaVuSans-73"/><use x="887" xlink:href="#DejaVuSans-74"/><use x="926.2" xlink:href="#DejaVuSans-72"/><use x="967.3" xlink:href="#DejaVuSans-69"/><use x="995.1" xlink:href="#DejaVuSans-62"/><use x="1058.5" xlink:href="#DejaVuSans-75"/><use x="1121.9" xlink:href="#DejaVuSans-74"/><use x="1161.1" xlink:href="#DejaVuSans-69"/><use x="1188.9" xlink:href="#DejaVuSans-6f"/><use x="1250.1" xlink:href="#DejaVuSans-6e"/><use x="1313.5" xlink:href="#DejaVuSans-20"/><use x="1345.3" xlink:href="#DejaVuSans-6f"/><use x="1406.4" xlink:href="#DejaVuSans-66"/><use x="1441.7" xlink:href="#DejaVuSans-20"/><use x="1473.4" xlink:href="#DejaVuSans-74"/><use x="1512.6" xlink:href="#DejaVuSans-68"/><use x="1576" xlink:href="#DejaVuSans-65"/><use x="1637.6" xlink:href="#DejaVuSans-20"/><use x="1669.3" xlink:href="#DejaVuSans-56"/><use x="1737.6" xlink:href="#DejaVuSans-61"/><use x="1798.9" xlink:href="#DejaVuSans-72"/><use x="1840" xlink:href="#DejaVuSans-69"/><use x="1867.8" xlink:href="#DejaVuSans-61"/><use x="1929.1" xlink:href="#DejaVuSans-6e"/><use x="1992.5" xlink:href="#DejaVuSans-63"/><use x="2047.5" xlink:href="#DejaVuSans-65"/><use x="2109" xlink:href="#DejaVuSans-73"/></g></g></g><g id="axes_2"><path clip-path="url(#p5a719d2996)" d="M326.2 239.8V22.3H337v217.5z" fill="#eaeaf2" stroke="#eaeaf2" stroke-width="0" id="patch_7"/><g id="matplotlib.axis_4"><g id="ytick_7"><path clip-path="url(#p5a719d2996)" d="M326.2 239.8H337" fill="none" stroke="#fff" stroke-linecap="round" id="line2d_25"/><g id="text_16"><defs><path d="M10.7 12.4H21V0H10.7z" id="DejaVuSans-2e"/></defs><g transform="matrix(.1 0 0 -.1 344 243.6)" fill="#262626"><use xlink:href="#DejaVuSans-30"/><use x="63.6" xlink:href="#DejaVuSans-2e"/><use x="95.4" xlink:href="#DejaVuSans-30"/><use x="159" xlink:href="#DejaVuSans-36"/></g></g></g><g id="ytick_8"><path clip-path="url(#p5a719d2996)" d="M326.2 185.4H337" fill="none" stroke="#fff" stroke-linecap="round" id="line2d_27"/><g transform="matrix(.1 0 0 -.1 344 189.2)" fill="#262626" id="text_17"><use xlink:href="#DejaVuSans-30"/><use x="63.6" xlink:href="#DejaVuSans-2e"/><use x="95.4" xlink:href="#DejaVuSans-31"/><use x="159" xlink:href="#DejaVuSans-32"/></g></g><g id="ytick_9"><path clip-path="url(#p5a719d2996)" d="M326.2 131H337" fill="none" stroke="#fff" stroke-linecap="round" id="line2d_29"/><g transform="matrix(.1 0 0 -.1 344 134.8)" fill="#262626" id="text_18"><use xlink:href="#DejaVuSans-30"/><use x="63.6" xlink:href="#DejaVuSans-2e"/><use x="95.4" xlink:href="#DejaVuSans-31"/><use x="159" xlink:href="#DejaVuSans-38"/></g></g><g id="ytick_10"><path clip-path="url(#p5a719d2996)" d="M326.2 76.7H337" fill="none" stroke="#fff" stroke-linecap="round" id="line2d_31"/><g transform="matrix(.1 0 0 -.1 344 80.5)" fill="#262626" id="text_19"><use xlink:href="#DejaVuSans-30"/><use x="63.6" xlink:href="#DejaVuSans-2e"/><use x="95.4" xlink:href="#DejaVuSans-32"/><use x="159" xlink:href="#DejaVuSans-34"/></g></g><g id="ytick_11"><path clip-path="url(#p5a719d2996)" d="M326.2 22.3H337" fill="none" stroke="#fff" stroke-linecap="round" id="line2d_33"/><g id="text_20"><defs><path d="M40.6 39.3q7-1.5 11-6.3t4-11.8q0-10.8-7.4-16.7-7.4-6-21.1-6-4.6 0-9.4 1-4.9.9-10 2.7v9.5q4-2.4 8.9-3.6Q21.5 7 26.8 7q9.3 0 14.1 3.6 4.9 3.7 4.9 10.7 0 6.4-4.5 10Q36.8 35 28.7 35h-8.5V43h9q7.2 0 11 3 3.9 2.8 3.9 8.3 0 5.6-4 8.6t-11.4 3q-4 0-8.7-.9-4.6-.8-10.2-2.7v8.8q5.6 1.6 10.5 2.3 5 .8 9.3.8 11.2 0 17.8-5 6.5-5.2 6.5-13.9 0-6-3.5-10.2-3.4-4.2-9.8-5.8z" id="DejaVuSans-33"/></defs><g transform="matrix(.1 0 0 -.1 344 26.1)" fill="#262626"><use xlink:href="#DejaVuSans-30"/><use x="63.6" xlink:href="#DejaVuSans-2e"/><use x="95.4" xlink:href="#DejaVuSans-33"/><use x="159" xlink:href="#DejaVuSans-30"/></g></g></g></g><g id="LineCollection_6" fill="none" stroke-width="1.8"><path clip-path="url(#p5a719d2996)" d="M326.2 239.8H337" stroke="#333"/><path clip-path="url(#p5a719d2996)" d="M326.2 185.4H337" stroke="#356b4c"/><path clip-path="url(#p5a719d2996)" d="M326.2 131H337" stroke="#37a366"/><path clip-path="url(#p5a719d2996)" d="M326.2 76.7H337" stroke="#71c19d"/><path clip-path="url(#p5a719d2996)" d="M326.2 22.3H337" stroke="#aadfd3"/></g><path d="M326.2 239.8V22.3H337v217.5z" fill="none" id="patch_8"/></g></g><defs><clipPath id="p34471c2fa8"><path d="M41.6 22.3h267.8v217.4H41.6z"/></clipPath><clipPath id="p5a719d2996"><path d="M326.2 22.3h10.9v217.4h-10.9z"/></clipPath></defs></svg>