<svg viewBox="0 0 395 278" xmlns="http://www.w3.org/2000/svg" xmlns:xlink="http://www.w3.org/1999/xlink"><defs><style>*{stroke-linecap:butt;stroke-linejoin:round}</style></defs><g id="figure_1"><path d="M0 278.3h395.1V0H0z" fill="#fff" id="patch_1"/><g id="axes_1"><path d="M53.1 239.8H388V22.3H53.1z" fill="#eaeaf2" id="patch_2"/><g id="matplotlib.axis_1"><g id="xtick_1"><path clip-path="url(#p6567b8f426)" d="M59.8 239.8V22.3" fill="none" stroke="#fff" stroke-linecap="round" id="line2d_1"/><g id="text_1"><defs><path d="M10.6 35.5h62.6v-8.3H10.6z" id="DejaVuSans-2212"/><path d="M19.2 8.3h34.4V0H7.3v8.3l15.3 15.6q9.7 9.8 12.2 12.6 4.7 5.3 6.6 9 2 3.7 2 7.3 0 5.8-4.2 9.5-4 3.6-10.6 3.6-4.6 0-9.8-1.6-5.1-1.6-11-4.9v10q6 2.4 11.1 3.6 5.2 1.2 9.5 1.2 11.4 0 18-5.7 6.8-5.6 6.8-15 0-4.6-1.7-8.6-1.6-4-6-9.5l-7.9-8.2L19.2 8.3z" id="DejaVuSans-32"/><path d="M10.7 12.4H21V0H10.7z" id="DejaVuSans-2e"/><path d="M10.8 73h38.7v-8.4H19.8V46.7q2.2.8 4.3 1.1 2.2.4 4.3.4 12.2 0 19.4-6.7 7-6.7 7-18.1 0-11.8-7.2-18.3-7.4-6.5-20.7-6.5-4.6 0-9.4.8-4.7.7-9.8 2.3v10q4.4-2.5 9.1-3.6 4.7-1.2 9.9-1.2 8.5 0 13.4 4.4 5 4.5 5 12 0 7.7-5 12.1Q35 40 26.7 40q-4 0-7.9-.9-4-.9-8-2.7z" id="DejaVuSans-35"/></defs><g transform="matrix(.1 0 0 -.1 47.7 254.4)" fill="#262626"><use xlink:href="#DejaVuSans-2212"/><use x="83.8" xlink:href="#DejaVuSans-32"/><use x="147.4" xlink:href="#DejaVuSans-2e"/><use x="179.2" xlink:href="#DejaVuSans-35"/></g></g></g><g id="xtick_2"><path clip-path="url(#p6567b8f426)" d="M98.8 239.8V22.3" fill="none" stroke="#fff" stroke-linecap="round" id="line2d_3"/><g id="text_2"><defs><path d="M31.8 66.4q-7.6 0-11.5-7.5-3.8-7.5-3.8-22.5t3.8-22.5q3.9-7.5 11.5-7.5 7.7 0 11.5 7.5T47 36.4q0 15-3.8 22.5t-11.5 7.5zm0 7.8q12.2 0 18.7-9.7T57 36.4Q57 18 50.5 8.3 44-1.4 31.8-1.4 19.5-1.4 13 8.3q-6.5 9.7-6.5 28 0 18.5 6.5 28.2 6.4 9.7 18.7 9.7z" id="DejaVuSans-30"/></defs><g transform="matrix(.1 0 0 -.1 86.7 254.4)" fill="#262626"><use xlink:href="#DejaVuSans-2212"/><use x="83.8" xlink:href="#DejaVuSans-32"/><use x="147.4" xlink:href="#DejaVuSans-2e"/><use x="179.2" xlink:href="#DejaVuSans-30"/></g></g></g><g id="xtick_3"><path clip-path="url(#p6567b8f426)" d="M137.9 239.8V22.3" fill="none" stroke="#fff" stroke-linecap="round" id="line2d_5"/><g id="text_3"><defs><path d="M12.4 8.3h16.1v55.6L11 60.4v9l17.4 3.5h9.9V8.3h16V0H12.5z" id="DejaVuSans-31"/></defs><g transform="matrix(.1 0 0 -.1 125.7 254.4)" fill="#262626"><use xlink:href="#DejaVuSans-2212"/><use x="83.8" xlink:href="#DejaVuSans-31"/><use x="147.4" xlink:href="#DejaVuSans-2e"/><use x="179.2" xlink:href="#DejaVuSans-35"/></g></g></g><g id="xtick_4"><path clip-path="url(#p6567b8f426)" d="M177 239.8V22.3" fill="none" stroke="#fff" stroke-linecap="round" id="line2d_7"/><g transform="matrix(.1 0 0 -.1 164.8 254.4)" fill="#262626" id="text_4"><use xlink:href="#DejaVuSans-2212"/><use x="83.8" xlink:href="#DejaVuSans-31"/><use x="147.4" xlink:href="#DejaVuSans-2e"/><use x="179.2" xlink:href="#DejaVuSans-30"/></g></g><g id="xtick_5"><path clip-path="url(#p6567b8f426)" d="M216 239.8V22.3" fill="none" stroke="#fff" stroke-linecap="round" id="line2d_9"/><g transform="matrix(.1 0 0 -.1 203.8 254.4)" fill="#262626" id="text_5"><use xlink:href="#DejaVuSans-2212"/><use x="83.8" xlink:href="#DejaVuSans-30"/><use x="147.4" xlink:href="#DejaVuSans-2e"/><use x="179.2" xlink:href="#DejaVuSans-35"/></g></g><g id="xtick_6"><path clip-path="url(#p6567b8f426)" d="M255 239.8V22.3" fill="none" stroke="#fff" stroke-linecap="round" id="line2d_11"/><g transform="matrix(.1 0 0 -.1 247 254.4)" fill="#262626" id="text_6"><use xlink:href="#DejaVuSans-30"/><use x="63.6" xlink:href="#DejaVuSans-2e"/><use x="95.4" xlink:href="#DejaVuSans-30"/></g></g><g id="xtick_7"><path clip-path="url(#p6567b8f426)" d="M294 239.8V22.3" fill="none" stroke="#fff" stroke-linecap="round" id="line2d_13"/><g transform="matrix(.1 0 0 -.1 286.1 254.4)" fill="#262626" id="text_7"><use xlink:href="#DejaVuSans-30"/><use x="63.6" xlink:href="#DejaVuSans-2e"/><use x="95.4" xlink:href="#DejaVuSans-35"/></g></g><g id="xtick_8"><path clip-path="url(#p6567b8f426)" d="M333.1 239.8V22.3" fill="none" stroke="#fff" stroke-linecap="round" id="line2d_15"/><g transform="matrix(.1 0 0 -.1 325.2 254.4)" fill="#262626" id="text_8"><use xlink:href="#DejaVuSans-31"/><use x="63.6" xlink:href="#DejaVuSans-2e"/><use x="95.4" xlink:href="#DejaVuSans-30"/></g></g><g id="xtick_9"><path clip-path="url(#p6567b8f426)" d="M372.2 239.8V22.3" fill="none" stroke="#fff" stroke-linecap="round" id="line2d_17"/><g transform="matrix(.1 0 0 -.1 364.2 254.4)" fill="#262626" id="text_9"><use xlink:href="#DejaVuSans-31"/><use x="63.6" xlink:href="#DejaVuSans-2e"/><use x="95.4" xlink:href="#DejaVuSans-35"/></g></g><g id="text_10"><defs><path d="M13.7 73h10l12.5-26.4 22.6 26.3h11.5l-30-34.8L58.4 0h-10L33.9 30.7 7.2 0H-4.3l34 39.2z" id="DejaVuSans-Oblique-58"/></defs><g transform="matrix(.11 0 0 -.11 214.1 268.8)" fill="#262626"><use xlink:href="#DejaVuSans-Oblique-58"/><use transform="matrix(.7 0 0 .7 68.5 -16.3)" xlink:href="#DejaVuSans-31"/></g></g></g><g id="matplotlib.axis_2"><g id="ytick_1"><path clip-path="url(#p6567b8f426)" d="M53.1 237.3H388" fill="none" stroke="#fff" stroke-linecap="round" id="line2d_19"/><g transform="matrix(.1 0 0 -.1 21.8 241.1)" fill="#262626" id="text_11"><use xlink:href="#DejaVuSans-2212"/><use x="83.8" xlink:href="#DejaVuSans-32"/><use x="147.4" xlink:href="#DejaVuSans-2e"/><use x="179.2" xlink:href="#DejaVuSans-30"/></g></g><g id="ytick_2"><path clip-path="url(#p6567b8f426)" d="M53.1 210.4H388" fill="none" stroke="#fff" stroke-linecap="round" id="line2d_21"/><g transform="matrix(.1 0 0 -.1 21.8 214.2)" fill="#262626" id="text_12"><use xlink:href="#DejaVuSans-2212"/><use x="83.8" xlink:href="#DejaVuSans-31"/><use x="147.4" xlink:href="#DejaVuSans-2e"/><use x="179.2" xlink:href="#DejaVuSans-35"/></g></g><g id="ytick_3"><path clip-path="url(#p6567b8f426)" d="M53.1 183.5H388" fill="none" stroke="#fff" stroke-linecap="round" id="line2d_23"/><g transform="matrix(.1 0 0 -.1 21.8 187.3)" fill="#262626" id="text_13"><use xlink:href="#DejaVuSans-2212"/><use x="83.8" xlink:href="#DejaVuSans-31"/><use x="147.4" xlink:href="#DejaVuSans-2e"/><use x="179.2" xlink:href="#DejaVuSans-30"/></g></g><g id="ytick_4"><path clip-path="url(#p6567b8f426)" d="M53.1 156.6H388" fill="none" stroke="#fff" stroke-linecap="round" id="line2d_25"/><g transform="matrix(.1 0 0 -.1 21.8 160.4)" fill="#262626" id="text_14"><use xlink:href="#DejaVuSans-2212"/><use x="83.8" xlink:href="#DejaVuSans-30"/><use x="147.4" xlink:href="#DejaVuSans-2e"/><use x="179.2" xlink:href="#DejaVuSans-35"/></g></g><g id="ytick_5"><path clip-path="url(#p6567b8f426)" d="M53.1 129.7H388" fill="none" stroke="#fff" stroke-linecap="round" id="line2d_27"/><g transform="matrix(.1 0 0 -.1 30.2 133.5)" fill="#262626" id="text_15"><use xlink:href="#DejaVuSans-30"/><use x="63.6" xlink:href="#DejaVuSans-2e"/><use x="95.4" xlink:href="#DejaVuSans-30"/></g></g><g id="ytick_6"><path clip-path="url(#p6567b8f426)" d="M53.1 102.8H388" fill="none" stroke="#fff" stroke-linecap="round" id="line2d_29"/><g transform="matrix(.1 0 0 -.1 30.2 106.6)" fill="#262626" id="text_16"><use xlink:href="#DejaVuSans-30"/><use x="63.6" xlink:href="#DejaVuSans-2e"/><use x="95.4" xlink:href="#DejaVuSans-35"/></g></g><g id="ytick_7"><path clip-path="url(#p6567b8f426)" d="M53.1 75.9H388" fill="none" stroke="#fff" stroke-linecap="round" id="line2d_31"/><g transform="matrix(.1 0 0 -.1 30.2 79.7)" fill="#262626" id="text_17"><use xlink:href="#DejaVuSans-31"/><use x="63.6" xlink:href="#DejaVuSans-2e"/><use x="95.4" xlink:href="#DejaVuSans-30"/></g></g><g id="ytick_8"><path clip-path="url(#p6567b8f426)" d="M53.1 49H388" fill="none" stroke="#fff" stroke-linecap="round" id="line2d_33"/><g transform="matrix(.1 0 0 -.1 30.2 52.8)" fill="#262626" id="text_18"><use xlink:href="#DejaVuSans-31"/><use x="63.6" xlink:href="#DejaVuSans-2e"/><use x="95.4" xlink:href="#DejaVuSans-35"/></g></g><g id="ytick_9"><path clip-path="url(#p6567b8f426)" d="M53.1 22H388" fill="none" stroke="#fff" stroke-linecap="round" id="line2d_35"/><g transform="matrix(.1 0 0 -.1 30.2 25.8)" fill="#262626" id="text_19"><use xlink:href="#DejaVuSans-32"/><use x="63.6" xlink:href="#DejaVuSans-2e"/><use x="95.4" xlink:href="#DejaVuSans-30"/></g></g><g transform="matrix(0 -.11 -.11 0 15.6 137.4)" fill="#262626" id="text_20"><use xlink:href="#DejaVuSans-Oblique-58"/><use transform="matrix(.7 0 0 .7 68.5 -16.3)" xlink:href="#DejaVuSans-32"/></g></g><g id="line2d_37"><defs><path d="M0 1.8a1.8 1.8 0 100-3.6 1.8 1.8 0 000 3.5z" id="me29c4c5dfc"/></defs><g clip-path="url(#p6567b8f426)" fill="#4c72b0"><use x="330.3" xlink:href="#me29c4c5dfc" y="140.7"/><use x="197.6" xlink:href="#me29c4c5dfc" y="86.4"/><use x="91.6" xlink:href="#me29c4c5dfc" y="108.9"/><use x="160.7" xlink:href="#me29c4c5dfc" y="229.9"/><use x="220" xlink:href="#me29c4c5dfc" y="145"/><use x="191.5" xlink:href="#me29c4c5dfc" y="105"/><use x="161.7" xlink:href="#me29c4c5dfc" y="120.3"/><use x="246.8" xlink:href="#me29c4c5dfc" y="123.6"/><use x="279.9" xlink:href="#me29c4c5dfc" y="32.2"/><use x="338.4" xlink:href="#me29c4c5dfc" y="101.2"/><use x="295.2" xlink:href="#me29c4c5dfc" y="137.3"/><use x="249.5" xlink:href="#me29c4c5dfc" y="190.2"/><use x="290.1" xlink:href="#me29c4c5dfc" y="101.4"/><use x="372.7" xlink:href="#me29c4c5dfc" y="173.6"/><use x="235.6" xlink:href="#me29c4c5dfc" y="186.1"/><use x="206.1" xlink:href="#me29c4c5dfc" y="212.5"/><use x="149.9" xlink:href="#me29c4c5dfc" y="148.2"/><use x="267.4" xlink:href="#me29c4c5dfc" y="133.9"/><use x="232.8" xlink:href="#me29c4c5dfc" y="153.6"/><use x="68.3" xlink:href="#me29c4c5dfc" y="101.4"/></g></g><path d="M53.1 239.8V22.3" fill="none" id="patch_3"/><path d="M388 239.8V22.3" fill="none" id="patch_4"/><path d="M53.1 239.8H388" fill="none" id="patch_5"/><path d="M53.1 22.3H388" fill="none" id="patch_6"/><g id="text_21"><defs><path d="M34.3 27.5q-11 0-15.1-2.5-4.2-2.5-4.2-8.5 0-4.8 3.1-7.6 3.2-2.8 8.6-2.8 7.5 0 12 5.3t4.5 14v2zm17.9 3.7V0h-9v8.3q-3-5-7.7-7.3Q31-1.4 24.3-1.4 16-1.4 11 3.3 6 8 6 15.9q0 9.2 6.2 14 6.2 4.6 18.4 4.6h12.6v1q0 6.1-4 9.5-4.1 3.4-11.5 3.4-4.7 0-9.2-1.1-4.4-1.2-8.5-3.4v8.3q5 2 9.6 2.8 4.6 1 9 1 11.9 0 17.7-6.2 5.9-6.1 5.9-18.6z" id="DejaVuSans-61"/><path d="M8.7 73h10V28.5q0-11.7 4.1-16.9 4.3-5.1 13.8-5.1t13.7 5.1q4.3 5.2 4.3 17v44.2h9.9V27.4q0-14.3-7-21.5-7.1-7.3-20.9-7.3-13.8 0-20.9 7.3-7 7.2-7 21.5z" id="DejaVuSans-55"/><path d="M48.8 52.6v-8.4Q45 46.3 41 47.3q-3.8 1-7.7 1-8.7 0-13.6-5.5Q15 37.3 15 27.3t4.8-15.6q4.9-5.5 13.6-5.5 4 0 7.7 1 3.9 1.1 7.7 3.2V2.1Q45 .3 41-.5q-4-1-8.6-1-12.3 0-19.6 7.8-7.3 7.8-7.3 21 0 13.4 7.4 21Q20.2 56 33 56q4.2 0 8.1-.9 4-.8 7.7-2.5z" id="DejaVuSans-63"/><path d="M30.6 48.4q-7.2 0-11.4-5.6Q15 37 15 27.3t4.2-15.5q4.1-5.6 11.4-5.6 7.2 0 11.4 5.7 4.2 5.6 4.2 15.4 0 9.7-4.2 15.4-4.2 5.7-11.4 5.7zm0 7.6q11.7 0 18.4-7.6 6.7-7.6 6.7-21.1 0-13.4-6.7-21-6.7-7.7-18.4-7.7-11.8 0-18.4 7.6Q5.5 14 5.5 27.3q0 13.5 6.7 21Q18.8 56 30.6 56z" id="DejaVuSans-6f"/><path d="M41.1 46.3q-1.5.9-3.3 1.3-1.8.4-4 .4-7.5 0-11.6-5-4-5-4-14.2V0H9v54.7h9v-8.5q2.9 5 7.4 7.4Q30 56 36.5 56l2-.1 2.6-.4z" id="DejaVuSans-72"/><path d="M56.2 29.6v-4.4H14.9q.6-9.3 5.6-14.1 5-4.9 14-4.9 5 0 10 1.3 4.8 1.2 9.6 3.8V2.8q-4.8-2-10-3.1-5-1.1-10.2-1.1-13.1 0-20.7 7.6-7.7 7.6-7.7 20.6 0 13.4 7.3 21.3Q20 56 32.3 56q11 0 17.5-7.1 6.4-7.1 6.4-19.3zm-9 2.6q0 7.4-4.1 11.8-4 4.4-10.7 4.4-7.5 0-12-4.3-4.5-4.2-5.2-12z" id="DejaVuSans-65"/><path d="M9.4 76h9V0h-9z" id="DejaVuSans-6c"/><path d="M54.9 33V0h-9v32.7q0 7.8-3 11.6-3 3.9-9.1 3.9-7.3 0-11.5-4.7Q18.1 39 18.1 31V0h-9v54.7h9v-8.5q3.2 5 7.6 7.4Q30.1 56 35.8 56q9.4 0 14.2-5.8Q55 44.3 55 33z" id="DejaVuSans-6e"/><path d="M18.3 70.2V54.7h18.5v-7H18.3V18q0-6.7 1.8-8.6 1.9-1.9 7.5-1.9h9.2V0h-9.2Q17.2 0 13.2 3.9T9.2 18v29.7H2.8v7h6.6v15.5z" id="DejaVuSans-74"/><path d="M45.4 46.4V76h9V0h-9v8.2Q42.6 3.3 38.3 1q-4.4-2.4-10.4-2.4-10 0-16.2 7.9-6.2 8-6.2 20.8 0 12.9 6.2 20.8Q18 56 28 56q6 0 10.4-2.4 4.3-2.3 7.1-7.2zM14.8 27.3q0-10 4-15.6Q23 6.2 30.2 6.2q7.1 0 11.2 5.7 4.1 5.6 4.1 15.5t-4.1 15.5q-4.1 5.7-11.2 5.7t-11.2-5.7q-4.1-5.6-4.1-15.5z" id="DejaVuSans-64"/><path d="M3 54.7h9.5l17-45.9 17.2 45.9h9.5L35.7 0H23.5z" id="DejaVuSans-76"/><path d="M9.4 54.7h9V0h-9zm0 21.3h9V64.6h-9z" id="DejaVuSans-69"/><path d="M48.7 27.3q0 9.9-4 15.5-4.2 5.7-11.3 5.7-7.1 0-11.2-5.7-4-5.6-4-15.5 0-10 4-15.6t11.2-5.6q7.1 0 11.2 5.7 4 5.6 4 15.5zM18 46.3q2.9 5 7.2 7.3Q29.6 56 35.6 56q10 0 16.2-8Q58 40.3 58 27.4q0-12.9-6.2-20.8-6.2-8-16.2-8-6 0-10.3 2.5Q21 3.3 18 8.2V0h-9v76h9z" id="DejaVuSans-62"/><path d="M44.3 53v-8.4q-3.8 2-8 2.9-4 1-8.4 1-6.7 0-10-2-3.4-2.1-3.4-6.2 0-3.1 2.4-5 2.4-1.7 9.6-3.3l3-.7q9.7-2 13.7-5.8 4-3.7 4-10.4 0-7.6-6-12-6-4.5-16.6-4.5-4.4 0-9.1.8-4.8.9-10 2.6v9.3q5-2.6 9.7-4 4.9-1.2 9.6-1.2 6.4 0 9.8 2.2 3.4 2.2 3.4 6.1 0 3.7-2.5 5.6-2.4 2-10.8 3.8l-3.1.7q-8.4 1.8-12 5.4-3.8 3.6-3.8 10 0 7.7 5.5 11.9Q16.7 56 26.8 56q5 0 9.4-.7 4.4-.8 8-2.2z" id="DejaVuSans-73"/></defs><g transform="matrix(.12 0 0 -.12 152.3 16.3)" fill="#262626"><use xlink:href="#DejaVuSans-55"/><use x="73.2" xlink:href="#DejaVuSans-6e"/><use x="136.6" xlink:href="#DejaVuSans-63"/><use x="191.6" xlink:href="#DejaVuSans-6f"/><use x="252.7" xlink:href="#DejaVuSans-72"/><use x="293.8" xlink:href="#DejaVuSans-72"/><use x="334.9" xlink:href="#DejaVuSans-65"/><use x="396.4" xlink:href="#DejaVuSans-6c"/><use x="424.2" xlink:href="#DejaVuSans-61"/><use x="485.5" xlink:href="#DejaVuSans-74"/><use x="524.7" xlink:href="#DejaVuSans-65"/><use x="586.2" xlink:href="#DejaVuSans-64"/><use x="649.7" xlink:href="#DejaVuSans-20"/><use x="681.5" xlink:href="#DejaVuSans-76"/><use x="740.7" xlink:href="#DejaVuSans-61"/><use x="802" xlink:href="#DejaVuSans-72"/><use x="843.1" xlink:href="#DejaVuSans-69"/><use x="870.9" xlink:href="#DejaVuSans-61"/><use x="932.1" xlink:href="#DejaVuSans-62"/><use x="995.6" xlink:href="#DejaVuSans-6c"/><use x="1023.4" xlink:href="#DejaVuSans-65"/><use x="1084.9" xlink:href="#DejaVuSans-73"/></g></g></g></g><defs><clipPath id="p6567b8f426"><path d="M53.1 22.3h334.8v217.4H53.1z"/></clipPath></defs></svg>