<svg viewBox="0 0 386 278" xmlns="http://www.w3.org/2000/svg" xmlns:xlink="http://www.w3.org/1999/xlink"><defs><style>*{stroke-linecap:butt;stroke-linejoin:round}</style></defs><g id="figure_1"><path d="M0 278.3h386.7V0H0z" fill="#fff" id="patch_1"/><g id="axes_1"><path d="M44.7 239.8h334.8V22.3H44.7z" fill="#eaeaf2" id="patch_2"/><g id="matplotlib.axis_1"><g id="xtick_1"><path clip-path="url(#p55a5c15d4a)" d="M93.8 239.8V22.3" fill="none" stroke="#fff" stroke-linecap="round" id="line2d_1"/><g id="text_1"><defs><path d="M10.6 35.5h62.6v-8.3H10.6z" id="DejaVuSans-2212"/><path d="M12.4 8.3h16.1v55.6L11 60.4v9l17.4 3.5h9.9V8.3h16V0H12.5z" id="DejaVuSans-31"/><path d="M10.7 12.4H21V0H10.7z" id="DejaVuSans-2e"/><path d="M31.8 66.4q-7.6 0-11.5-7.5-3.8-7.5-3.8-22.5t3.8-22.5q3.9-7.5 11.5-7.5 7.7 0 11.5 7.5T47 36.4q0 15-3.8 22.5t-11.5 7.5zm0 7.8q12.2 0 18.7-9.7T57 36.4Q57 18 50.5 8.3 44-1.4 31.8-1.4 19.5-1.4 13 8.3q-6.5 9.7-6.5 28 0 18.5 6.5 28.2 6.4 9.7 18.7 9.7z" id="DejaVuSans-30"/></defs><g transform="matrix(.1 0 0 -.1 81.7 254.4)" fill="#262626"><use xlink:href="#DejaVuSans-2212"/><use x="83.8" xlink:href="#DejaVuSans-31"/><use x="147.4" xlink:href="#DejaVuSans-2e"/><use x="179.2" xlink:href="#DejaVuSans-30"/></g></g></g><g id="xtick_2"><path clip-path="url(#p55a5c15d4a)" d="M154.2 239.8V22.3" fill="none" stroke="#fff" stroke-linecap="round" id="line2d_3"/><g id="text_2"><defs><path d="M10.8 73h38.7v-8.4H19.8V46.7q2.2.8 4.3 1.1 2.2.4 4.3.4 12.2 0 19.4-6.7 7-6.7 7-18.1 0-11.8-7.2-18.3-7.4-6.5-20.7-6.5-4.6 0-9.4.8-4.7.7-9.8 2.3v10q4.4-2.5 9.1-3.6 4.7-1.2 9.9-1.2 8.5 0 13.4 4.4 5 4.5 5 12 0 7.7-5 12.1Q35 40 26.7 40q-4 0-7.9-.9-4-.9-8-2.7z" id="DejaVuSans-35"/></defs><g transform="matrix(.1 0 0 -.1 142 254.4)" fill="#262626"><use xlink:href="#DejaVuSans-2212"/><use x="83.8" xlink:href="#DejaVuSans-30"/><use x="147.4" xlink:href="#DejaVuSans-2e"/><use x="179.2" xlink:href="#DejaVuSans-35"/></g></g></g><g id="xtick_3"><path clip-path="url(#p55a5c15d4a)" d="M214.6 239.8V22.3" fill="none" stroke="#fff" stroke-linecap="round" id="line2d_5"/><g transform="matrix(.1 0 0 -.1 206.6 254.4)" fill="#262626" id="text_3"><use xlink:href="#DejaVuSans-30"/><use x="63.6" xlink:href="#DejaVuSans-2e"/><use x="95.4" xlink:href="#DejaVuSans-30"/></g></g><g id="xtick_4"><path clip-path="url(#p55a5c15d4a)" d="M274.9 239.8V22.3" fill="none" stroke="#fff" stroke-linecap="round" id="line2d_7"/><g transform="matrix(.1 0 0 -.1 267 254.4)" fill="#262626" id="text_4"><use xlink:href="#DejaVuSans-30"/><use x="63.6" xlink:href="#DejaVuSans-2e"/><use x="95.4" xlink:href="#DejaVuSans-35"/></g></g><g id="xtick_5"><path clip-path="url(#p55a5c15d4a)" d="M335.3 239.8V22.3" fill="none" stroke="#fff" stroke-linecap="round" id="line2d_9"/><g transform="matrix(.1 0 0 -.1 327.3 254.4)" fill="#262626" id="text_5"><use xlink:href="#DejaVuSans-31"/><use x="63.6" xlink:href="#DejaVuSans-2e"/><use x="95.4" xlink:href="#DejaVuSans-30"/></g></g><g id="text_6"><defs><path d="M54.9 33V0h-9v32.7q0 7.8-3 11.6-3 3.9-9.1 3.9-7.3 0-11.5-4.7Q18.1 39 18.1 31V0h-9v54.7h9v-8.5q3.2 5 7.6 7.4Q30.1 56 35.8 56q9.4 0 14.2-5.8Q55 44.3 55 33z" id="DejaVuSans-6e"/><path d="M19.7 64.8V37.4H32q6.9 0 10.6 3.6 3.8 3.5 3.8 10.1t-3.8 10.1q-3.7 3.6-10.6 3.6zm-9.9 8.1h22.3q12.2 0 18.5-5.5Q57 61.8 57 51q0-10.8-6.3-16.3t-18.5-5.5H19.7V0H9.8z" id="DejaVuSans-50"/><path d="M34.3 27.5q-11 0-15.1-2.5-4.2-2.5-4.2-8.5 0-4.8 3.1-7.6 3.2-2.8 8.6-2.8 7.5 0 12 5.3t4.5 14v2zm17.9 3.7V0h-9v8.3q-3-5-7.7-7.3Q31-1.4 24.3-1.4 16-1.4 11 3.3 6 8 6 15.9q0 9.2 6.2 14 6.2 4.6 18.4 4.6h12.6v1q0 6.1-4 9.5-4.1 3.4-11.5 3.4-4.7 0-9.2-1.1-4.4-1.2-8.5-3.4v8.3q5 2 9.6 2.8 4.6 1 9 1 11.9 0 17.7-6.2 5.9-6.1 5.9-18.6z" id="DejaVuSans-61"/><path d="M41.1 46.3q-1.5.9-3.3 1.3-1.8.4-4 .4-7.5 0-11.6-5-4-5-4-14.2V0H9v54.7h9v-8.5q2.9 5 7.4 7.4Q30 56 36.5 56l2-.1 2.6-.4z" id="DejaVuSans-72"/><path d="M44.3 53v-8.4q-3.8 2-8 2.9-4 1-8.4 1-6.7 0-10-2-3.4-2.1-3.4-6.2 0-3.1 2.4-5 2.4-1.7 9.6-3.3l3-.7q9.7-2 13.7-5.8 4-3.7 4-10.4 0-7.6-6-12-6-4.5-16.6-4.5-4.4 0-9.1.8-4.8.9-10 2.6v9.3q5-2.6 9.7-4 4.9-1.2 9.6-1.2 6.4 0 9.8 2.2 3.4 2.2 3.4 6.1 0 3.7-2.5 5.6-2.4 2-10.8 3.8l-3.1.7q-8.4 1.8-12 5.4-3.8 3.6-3.8 10 0 7.7 5.5 11.9Q16.7 56 26.8 56q5 0 9.4-.7 4.4-.8 8-2.2z" id="DejaVuSans-73"/><path d="M30.6 48.4q-7.2 0-11.4-5.6Q15 37 15 27.3t4.2-15.5q4.1-5.6 11.4-5.6 7.2 0 11.4 5.7 4.2 5.6 4.2 15.4 0 9.7-4.2 15.4-4.2 5.7-11.4 5.7zm0 7.6q11.7 0 18.4-7.6 6.7-7.6 6.7-21.1 0-13.4-6.7-21-6.7-7.7-18.4-7.7-11.8 0-18.4 7.6Q5.5 14 5.5 27.3q0 13.5 6.7 21Q18.8 56 30.6 56z" id="DejaVuSans-6f"/><path d="M56.2 29.6v-4.4H14.9q.6-9.3 5.6-14.1 5-4.9 14-4.9 5 0 10 1.3 4.8 1.2 9.6 3.8V2.8q-4.8-2-10-3.1-5-1.1-10.2-1.1-13.1 0-20.7 7.6-7.7 7.6-7.7 20.6 0 13.4 7.3 21.3Q20 56 32.3 56q11 0 17.5-7.1 6.4-7.1 6.4-19.3zm-9 2.6q0 7.4-4.1 11.8-4 4.4-10.7 4.4-7.5 0-12-4.3-4.5-4.2-5.2-12z" id="DejaVuSans-65"/><path d="M64.4 67.3V56.9q-5 4.6-10.6 7Q48 66 41.8 66q-12.5 0-19.1-7.6Q16 50.8 16 36.4q0-14.4 6.7-22 6.6-7.7 19.1-7.7 6.3 0 12 2.3 5.6 2.3 10.6 7V5.5q-5.2-3.5-11-5.3-5.7-1.7-12.2-1.7-16.5 0-26 10.1-9.6 10.1-9.6 27.7T15.1 64q9.6 10.1 26.1 10.1 6.5 0 12.3-1.7 5.8-1.8 11-5.2z" id="DejaVuSans-43"/><path d="M9.4 76h9V0h-9z" id="DejaVuSans-6c"/><path d="M18.3 70.2V54.7h18.5v-7H18.3V18q0-6.7 1.8-8.6 1.9-1.9 7.5-1.9h9.2V0h-9.2Q17.2 0 13.2 3.9T9.2 18v29.7H2.8v7h6.6v15.5z" id="DejaVuSans-74"/><path d="M9.4 54.7h9V0h-9zm0 21.3h9V64.6h-9z" id="DejaVuSans-69"/><path d="M37.1 76v-7.5h-8.6q-4.8 0-6.7-2-1.9-2-1.9-7v-4.8h14.8v-7H20V0h-9v47.7H2.3v7h8.6v3.8q0 9.1 4.2 13.3Q19.4 76 28.6 76z" id="DejaVuSans-66"/><path d="M48.8 52.6v-8.4Q45 46.3 41 47.3q-3.8 1-7.7 1-8.7 0-13.6-5.5Q15 37.3 15 27.3t4.8-15.6q4.9-5.5 13.6-5.5 4 0 7.7 1 3.9 1.1 7.7 3.2V2.1Q45 .3 41-.5q-4-1-8.6-1-12.3 0-19.6 7.8-7.3 7.8-7.3 21 0 13.4 7.4 21Q20.2 56 33 56q4.2 0 8.1-.9 4-.8 7.7-2.5z" id="DejaVuSans-63"/></defs><g transform="matrix(.11 0 0 -.11 126.5 268.8)" fill="#262626"><use xlink:href="#DejaVuSans-50"/><use x="60.3" xlink:href="#DejaVuSans-65"/><use x="121.8" xlink:href="#DejaVuSans-61"/><use x="183.1" xlink:href="#DejaVuSans-72"/><use x="224.2" xlink:href="#DejaVuSans-73"/><use x="276.3" xlink:href="#DejaVuSans-6f"/><use x="337.5" xlink:href="#DejaVuSans-6e"/><use x="400.8" xlink:href="#DejaVuSans-20"/><use x="432.6" xlink:href="#DejaVuSans-43"/><use x="502.4" xlink:href="#DejaVuSans-6f"/><use x="563.6" xlink:href="#DejaVuSans-72"/><use x="604.7" xlink:href="#DejaVuSans-72"/><use x="645.8" xlink:href="#DejaVuSans-65"/><use x="707.3" xlink:href="#DejaVuSans-6c"/><use x="735.1" xlink:href="#DejaVuSans-61"/><use x="796.4" xlink:href="#DejaVuSans-74"/><use x="835.6" xlink:href="#DejaVuSans-69"/><use x="863.4" xlink:href="#DejaVuSans-6f"/><use x="924.6" xlink:href="#DejaVuSans-6e"/><use x="987.9" xlink:href="#DejaVuSans-20"/><use x="1019.7" xlink:href="#DejaVuSans-43"/><use x="1089.6" xlink:href="#DejaVuSans-6f"/><use x="1150.7" xlink:href="#DejaVuSans-65"/><use x="1212.3" xlink:href="#DejaVuSans-66"/><use x="1247.5" xlink:href="#DejaVuSans-66"/><use x="1282.7" xlink:href="#DejaVuSans-69"/><use x="1310.5" xlink:href="#DejaVuSans-63"/><use x="1365.4" xlink:href="#DejaVuSans-69"/><use x="1393.2" xlink:href="#DejaVuSans-65"/><use x="1454.7" xlink:href="#DejaVuSans-6e"/><use x="1518.1" xlink:href="#DejaVuSans-74"/></g></g></g><g id="matplotlib.axis_2"><g id="ytick_1"><path clip-path="url(#p55a5c15d4a)" d="M44.7 239.8h334.8" fill="none" stroke="#fff" stroke-linecap="round" id="line2d_11"/><g transform="matrix(.1 0 0 -.1 21.8 243.6)" fill="#262626" id="text_7"><use xlink:href="#DejaVuSans-30"/><use x="63.6" xlink:href="#DejaVuSans-2e"/><use x="95.4" xlink:href="#DejaVuSans-30"/></g></g><g id="ytick_2"><path clip-path="url(#p55a5c15d4a)" d="M44.7 204.6h334.8" fill="none" stroke="#fff" stroke-linecap="round" id="line2d_13"/><g transform="matrix(.1 0 0 -.1 21.8 208.4)" fill="#262626" id="text_8"><use xlink:href="#DejaVuSans-30"/><use x="63.6" xlink:href="#DejaVuSans-2e"/><use x="95.4" xlink:href="#DejaVuSans-35"/></g></g><g id="ytick_3"><path clip-path="url(#p55a5c15d4a)" d="M44.7 169.3h334.8" fill="none" stroke="#fff" stroke-linecap="round" id="line2d_15"/><g transform="matrix(.1 0 0 -.1 21.8 173.1)" fill="#262626" id="text_9"><use xlink:href="#DejaVuSans-31"/><use x="63.6" xlink:href="#DejaVuSans-2e"/><use x="95.4" xlink:href="#DejaVuSans-30"/></g></g><g id="ytick_4"><path clip-path="url(#p55a5c15d4a)" d="M44.7 134.1h334.8" fill="none" stroke="#fff" stroke-linecap="round" id="line2d_17"/><g transform="matrix(.1 0 0 -.1 21.8 138)" fill="#262626" id="text_10"><use xlink:href="#DejaVuSans-31"/><use x="63.6" xlink:href="#DejaVuSans-2e"/><use x="95.4" xlink:href="#DejaVuSans-35"/></g></g><g id="ytick_5"><path clip-path="url(#p55a5c15d4a)" d="M44.7 99h334.8" fill="none" stroke="#fff" stroke-linecap="round" id="line2d_19"/><g id="text_11"><defs><path d="M19.2 8.3h34.4V0H7.3v8.3l15.3 15.6q9.7 9.8 12.2 12.6 4.7 5.3 6.6 9 2 3.7 2 7.3 0 5.8-4.2 9.5-4 3.6-10.6 3.6-4.6 0-9.8-1.6-5.1-1.6-11-4.9v10q6 2.4 11.1 3.6 5.2 1.2 9.5 1.2 11.4 0 18-5.7 6.8-5.6 6.8-15 0-4.6-1.7-8.6-1.6-4-6-9.5l-7.9-8.2L19.2 8.3z" id="DejaVuSans-32"/></defs><g transform="matrix(.1 0 0 -.1 21.8 102.7)" fill="#262626"><use xlink:href="#DejaVuSans-32"/><use x="63.6" xlink:href="#DejaVuSans-2e"/><use x="95.4" xlink:href="#DejaVuSans-30"/></g></g></g><g id="ytick_6"><path clip-path="url(#p55a5c15d4a)" d="M44.7 63.7h334.8" fill="none" stroke="#fff" stroke-linecap="round" id="line2d_21"/><g transform="matrix(.1 0 0 -.1 21.8 67.5)" fill="#262626" id="text_12"><use xlink:href="#DejaVuSans-32"/><use x="63.6" xlink:href="#DejaVuSans-2e"/><use x="95.4" xlink:href="#DejaVuSans-35"/></g></g><g id="ytick_7"><path clip-path="url(#p55a5c15d4a)" d="M44.7 28.5h334.8" fill="none" stroke="#fff" stroke-linecap="round" id="line2d_23"/><g id="text_13"><defs><path d="M40.6 39.3q7-1.5 11-6.3t4-11.8q0-10.8-7.4-16.7-7.4-6-21.1-6-4.6 0-9.4 1-4.9.9-10 2.7v9.5q4-2.4 8.9-3.6Q21.5 7 26.8 7q9.3 0 14.1 3.6 4.9 3.7 4.9 10.7 0 6.4-4.5 10Q36.8 35 28.7 35h-8.5V43h9q7.2 0 11 3 3.9 2.8 3.9 8.3 0 5.6-4 8.6t-11.4 3q-4 0-8.7-.9-4.6-.8-10.2-2.7v8.8q5.6 1.6 10.5 2.3 5 .8 9.3.8 11.2 0 17.8-5 6.5-5.2 6.5-13.9 0-6-3.5-10.2-3.4-4.2-9.8-5.8z" id="DejaVuSans-33"/></defs><g transform="matrix(.1 0 0 -.1 21.8 32.3)" fill="#262626"><use xlink:href="#DejaVuSans-33"/><use x="63.6" xlink:href="#DejaVuSans-2e"/><use x="95.4" xlink:href="#DejaVuSans-30"/></g></g></g><g id="text_14"><defs><path d="M48.7 27.3q0 9.9-4 15.5-4.2 5.7-11.3 5.7-7.1 0-11.2-5.7-4-5.6-4-15.5 0-10 4-15.6t11.2-5.6q7.1 0 11.2 5.7 4 5.6 4 15.5zM18 46.3q2.9 5 7.2 7.3Q29.6 56 35.6 56q10 0 16.2-8Q58 40.3 58 27.4q0-12.9-6.2-20.8-6.2-8-16.2-8-6 0-10.3 2.5Q21 3.3 18 8.2V0h-9v76h9z" id="DejaVuSans-62"/><path d="M32.2-5q-3.8-9.8-7.5-12.8-3.6-3-9.6-3H7.9v7.5h5.3q3.7 0 5.7 1.8 2.1 1.7 4.6 8.3l1.6 4L3 54.8h9.5l17-42.8 17.2 42.8h9.5z" id="DejaVuSans-79"/></defs><g transform="matrix(0 -.11 -.11 0 15.6 186.6)" fill="#262626"><use xlink:href="#DejaVuSans-50"/><use x="60.3" xlink:href="#DejaVuSans-6f"/><use x="121.4" xlink:href="#DejaVuSans-73"/><use x="173.5" xlink:href="#DejaVuSans-74"/><use x="212.7" xlink:href="#DejaVuSans-65"/><use x="274.3" xlink:href="#DejaVuSans-72"/><use x="315.4" xlink:href="#DejaVuSans-69"/><use x="343.2" xlink:href="#DejaVuSans-6f"/><use x="404.3" xlink:href="#DejaVuSans-72"/><use x="445.5" xlink:href="#DejaVuSans-20"/><use x="477.2" xlink:href="#DejaVuSans-50"/><use x="537.5" xlink:href="#DejaVuSans-72"/><use x="578.6" xlink:href="#DejaVuSans-6f"/><use x="639.8" xlink:href="#DejaVuSans-62"/><use x="703.3" xlink:href="#DejaVuSans-61"/><use x="764.6" xlink:href="#DejaVuSans-62"/><use x="828" xlink:href="#DejaVuSans-69"/><use x="855.8" xlink:href="#DejaVuSans-6c"/><use x="883.6" xlink:href="#DejaVuSans-69"/><use x="911.4" xlink:href="#DejaVuSans-74"/><use x="950.6" xlink:href="#DejaVuSans-79"/></g></g></g><path clip-path="url(#p55a5c15d4a)" d="M60 239.7l4.7-.3 2.4-.3 2.4-.5 2.4-.8 2.4-1.2 2.3-1.8 2.4-2.4 2.4-3.4 2.4-4.3 2.4-5.4 2.4-6.5 2.3-7.3 4.8-16.5 2.4-8.4 2.4-8 2.4-7.2 2.3-6 2.4-4.8 2.4-3.2 2.4-1.9 2.4-.5 2.3.7 2.4 1.6 2.4 2.3 2.4 2.8 12 15 2.3 2.5 2.4 2.3 2.4 2 2.3 1.7 2.4 1.6 4.8 2.7 9.5 5 14.3 8.2 4.8 2.4 11.9 5.7 4.8 2.6 7.1 4 4.8 2.4 2.4 1 2.3.8 2.4.6 2.4.5 4.8.6 9.5.8 4.8.7 4.7 1.2 4.8 1.4 11.9 4 4.8 1.3 4.7 1 4.8.7 12 1.5 7 1.2 7.2 1.5 19 4.2 4.8.7 4.8.6 7.1.5 7.2.3 9.5.1h9.6" fill="none" stroke="#4c72b0" stroke-linecap="round" stroke-width="1.8" id="line2d_25"/><path clip-path="url(#p55a5c15d4a)" d="M72.6 239.2l2.1-.8 2.2-1.8 2.2-3.8 2.1-6.8 2.2-11.4 2.1-17.4 2.2-23.8 2.2-29.3 4.3-63.6 2.1-25.8 2.2-16.5 2.2-5.5 2.1 5 2.2 13 2.1 17.9 4.4 37.9 2.1 16.2 2.2 13.4 2.1 10.8 2.2 8.7 2.2 7 2.1 6 2.2 5.2 2.1 4.8 2.2 4.4 2.2 4.3 2.1 3.9 2.2 3.6 2.2 3.2 2.1 2.7 2.2 2.2 2.1 1.9 6.5 5.2 6.5 6 2.2 1.7 2.1 1.2 2.2.7 2.1.3 4.4.2 2.1.2 2.2.5 8.6 2.7 2.2.4 6.5.7 2.1.4 4.4 1.2 4.3 1.2 2.1.4 4.4.5 10.8.7 4.3.7 8.6 1.8 2.2.3 4.3.2 4.3-.1 13-.6 2.1.2 2.2.3 4.3.9 4.4.9 2.1.2 4.3.1h4.4l4.3.1 4.3.5 10.8 1.5 4.3.3 8.7.2 4.3.4 4.3.8 6.5 1.2 4.3.5 4.3.2 4.4.1 4.3-.1h0" fill="none" stroke="#55a868" stroke-linecap="round" stroke-width="1.8" id="line2d_26"/><path clip-path="url(#p55a5c15d4a)" d="M71 239.7h9.3l9.2-.1 9.2-.4 11.5-.7 34.6-2.7 6.9-.8 7-1 6.8-1.4 7-1.5 6.9-1.6 4.6-1 11.5-2 4.6-1.2 4.6-1.7 7-3 4.5-2 4.6-1.5 7-1.8 4.5-1.4 2.3-.8 2.3-1 4.7-2.2 11.5-6 9.2-4.3 2.3-1.3 2.3-1.5 2.3-1.9 2.3-2.2 2.3-2.6 2.3-3 4.6-6.5 16.2-24 4.6-7.6 4.6-8.3 4.6-8.5 2.3-3.7 2.3-3 2.3-1.6 2.3.1 2.3 2.3 2.3 4.9 2.3 7.3 2.3 9.7 2.3 11.5 7 37.3 2.2 10.8 2.3 9 2.3 7.3 2.3 5.5 2.3 3.8 2.3 2.6 2.3 1.6 2.4 1 2.3.6 2.3.3 2.3.1h0" fill="none" stroke="#c44e52" stroke-linecap="round" stroke-width="1.8" id="line2d_27"/><path clip-path="url(#p55a5c15d4a)" d="M88.3 239.6l4.2.1h8.5l10.5-.5 8.5-.5 6.4-.7 6.3-.7 4.2-.3 4.3-.1 6.3.1 6.4.2 4.2-.2 4.2-.3 6.4-.8 4.2-.8 4.2-1 4.3-1 2-.5 2.2-.3h2.1l4.2.1 4.3.2h2l2.2-.3 2.1-.5 2.1-.6 10.6-3.8 4.2-1 4.3-.6 2-.5 2.2-.5 2.1-.8 2.1-1 4.2-2.2 6.4-3.7 4.2-2.1 4.3-1.7 4.2-1.4 6.3-2 2.1-.9 2.2-1 2-1.2 4.3-2.9 4.2-3.2 4.3-3.6 4.2-4 2.1-2.1 2.1-2.5 2.1-2.7 2.2-3.2 2-3.8 2.2-4.5 2.1-5.3 2.1-6 2.1-6.9 2.2-7.7 2-8.4 2.2-9.3 2.1-10.3 2.1-11.2 4.2-24 2.2-11 2-8.5 2.2-4.2 2.1 1.7 2.1 8.6 2.1 15.4 2.2 21 6.3 72.5 2.1 19.3 2.1 14.8 2.1 10.4 2.2 6.6 2 4 2.2 2 2.1 1.1 2.1.5h0" fill="none" stroke="#8172b2" stroke-linecap="round" stroke-width="1.8" id="line2d_28"/><path clip-path="url(#p55a5c15d4a)" d="M78.6 239.7h11.2l9-.1 9-.4 13.5-1 15.8-1 4.5-.6 4.5-.7 6.7-1.4 11.3-2.5 9-2.2 6.7-1.7 4.5-1 4.5-.7 13.5-2 4.5-1 4.5-1.4 4.5-1.7 4.5-2 6.8-3.4 6.7-3.6 4.5-2.7 4.5-3 6.8-4.6 9-6.4 4.5-2.7 4.5-2.3 4.5-2.2 2.2-1.2 2.3-1.5 2.2-1.9 2.3-2.2 2.2-2.6 2.3-3 2.2-3.3 4.5-7.2 9-15.2 9-15.4 2.3-3.1 2.2-2.3 2.3-.9 2.2.8 2.3 2.9 2.2 5.1 2.3 7.4 2.2 9.3 2.3 10.7 6.7 34.3 2.3 10 2.2 8.5 2.3 6.9 2.2 5.3 2.3 3.9 2.2 2.7 2.3 1.8 2.2 1.1 2.3.7 2.2.4 4.5.3h0" fill="none" stroke="#ccb974" stroke-linecap="round" stroke-width="1.8" id="line2d_29"/><path d="M44.7 239.8V22.3" fill="none" id="patch_3"/><path d="M379.5 239.8V22.3" fill="none" id="patch_4"/><path d="M44.7 239.8h334.8" fill="none" id="patch_5"/><path d="M44.7 22.3h334.8" fill="none" id="patch_6"/><g id="text_15"><defs><path d="M9.8 73h9.9V0H9.8z" id="DejaVuSans-49"/><path d="M9.8 73h13.3l32.3-61v61H65V0H51.7L19.4 61V0H9.8z" id="DejaVuSans-4e"/><path d="M4.9 31.4h26.3v-8H4.9z" id="DejaVuSans-2d"/><path d="M44.4 34.2q3.2-1 6.2-4.6 3-3.5 6-9.7L66.6 0H56l-9.3 18.7q-3.6 7.3-7 9.7-3.4 2.4-9.3 2.4H19.7V0H9.8v73h22.3q12.5 0 18.6-5.3Q57 62.5 57 51.9q0-6.9-3.2-11.4-3.2-4.6-9.3-6.3zM19.7 64.8V38.9H32q7.1 0 10.7 3.3 3.7 3.3 3.7 9.7 0 6.4-3.7 9.6-3.6 3.3-10.7 3.3z" id="DejaVuSans-52"/><path d="M8.5 21.6v33h9V22q0-7.7 3-11.6 3-4 9-4 7.4 0 11.6 4.7 4.2 4.7 4.2 12.7v31h9V0h-9v8.4Q42 3.4 37.7 1q-4.3-2.4-10-2.4-9.4 0-14.3 5.8-4.9 5.9-4.9 17.2zM31.1 56z" id="DejaVuSans-75"/><path d="M39.4 66.2q-10.7 0-17-8-6.4-8-6.4-21.8t6.3-21.8q6.4-8 17.1-8 10.7 0 17 8 6.3 8 6.3 21.8t-6.3 21.8q-6.3 8-17 8zm0 8Q54.7 74.2 64 64q9.2-10.2 9.2-27.5T63.9 8.9Q54.7-1.4 39.4-1.4 24-1.4 14.8 8.8 5.6 19.1 5.6 36.4t9.2 27.5Q24 74.2 39.4 74.2z" id="DejaVuSans-4f"/><path d="M45.4 46.4V76h9V0h-9v8.2Q42.6 3.3 38.3 1q-4.4-2.4-10.4-2.4-10 0-16.2 7.9-6.2 8-6.2 20.8 0 12.9 6.2 20.8Q18 56 28 56q6 0 10.4-2.4 4.3-2.3 7.1-7.2zM14.8 27.3q0-10 4-15.6Q23 6.2 30.2 6.2q7.1 0 11.2 5.7 4.1 5.6 4.1 15.5t-4.1 15.5q-4.1 5.7-11.2 5.7t-11.2-5.7q-4.1-5.6-4.1-15.5z" id="DejaVuSans-64"/><path d="M3 54.7h9.5l17-45.9 17.2 45.9h9.5L35.7 0H23.5z" id="DejaVuSans-76"/><path d="M9.8 73H56v-8.4H19.7V43h34.7v-8.3H19.7V8.3h37V0H9.9z" id="DejaVuSans-45"/><path d="M52 44.2q3.4 6 8 9Q64.9 56 71 56q8.6 0 13.3-6 4.6-6 4.6-17V0h-9v32.7q0 7.9-2.8 11.7-2.8 3.8-8.5 3.8-7 0-11-4.7-4-4.6-4-12.6V0h-9.1v32.7q0 8-2.8 11.7-2.8 3.8-8.6 3.8-6.9 0-11-4.7-4-4.6-4-12.6V0h-9v54.7h9v-8.5q3 5 7.4 7.4Q29.8 56 35.7 56q6 0 10.1-3 4.2-3 6.2-8.8z" id="DejaVuSans-6d"/><path d="M54.9 33V0h-9v32.7q0 7.8-3 11.6-3 3.9-9.1 3.9-7.3 0-11.5-4.7Q18.1 39 18.1 31V0h-9v76h9V46.2q3.2 5 7.6 7.4Q30.1 56 35.8 56q9.4 0 14.2-5.8Q55 44.3 55 33z" id="DejaVuSans-68"/></defs><g transform="matrix(.12 0 0 -.12 79.5 16.3)" fill="#262626"><use xlink:href="#DejaVuSans-4e"/><use x="74.8" xlink:href="#DejaVuSans-4f"/><use x="153.5" xlink:href="#DejaVuSans-4e"/><use x="228.3" xlink:href="#DejaVuSans-2d"/><use x="264.4" xlink:href="#DejaVuSans-52"/><use x="333.8" xlink:href="#DejaVuSans-6f"/><use x="395" xlink:href="#DejaVuSans-62"/><use x="458.5" xlink:href="#DejaVuSans-75"/><use x="521.9" xlink:href="#DejaVuSans-73"/><use x="574" xlink:href="#DejaVuSans-74"/><use x="613.2" xlink:href="#DejaVuSans-20"/><use x="645" xlink:href="#DejaVuSans-50"/><use x="705.2" xlink:href="#DejaVuSans-65"/><use x="766.7" xlink:href="#DejaVuSans-72"/><use x="807.8" xlink:href="#DejaVuSans-2d"/><use x="843.8" xlink:href="#DejaVuSans-49"/><use x="873.3" xlink:href="#DejaVuSans-6e"/><use x="936.7" xlink:href="#DejaVuSans-64"/><use x="1000.2" xlink:href="#DejaVuSans-69"/><use x="1028" xlink:href="#DejaVuSans-76"/><use x="1087.2" xlink:href="#DejaVuSans-69"/><use x="1114.9" xlink:href="#DejaVuSans-64"/><use x="1178.4" xlink:href="#DejaVuSans-75"/><use x="1241.8" xlink:href="#DejaVuSans-61"/><use x="1303.1" xlink:href="#DejaVuSans-6c"/><use x="1330.9" xlink:href="#DejaVuSans-20"/><use x="1362.6" xlink:href="#DejaVuSans-45"/><use x="1425.8" xlink:href="#DejaVuSans-73"/><use x="1477.9" xlink:href="#DejaVuSans-74"/><use x="1517.1" xlink:href="#DejaVuSans-69"/><use x="1544.9" xlink:href="#DejaVuSans-6d"/><use x="1642.3" xlink:href="#DejaVuSans-61"/><use x="1703.6" xlink:href="#DejaVuSans-74"/><use x="1742.8" xlink:href="#DejaVuSans-65"/><use x="1804.3" xlink:href="#DejaVuSans-73"/><use x="1856.4" xlink:href="#DejaVuSans-20"/><use x="1888.2" xlink:href="#DejaVuSans-6f"/><use x="1949.4" xlink:href="#DejaVuSans-66"/><use x="1984.6" xlink:href="#DejaVuSans-20"/><use x="2016.4" xlink:href="#DejaVuSans-52"/><use x="2085.9" xlink:href="#DejaVuSans-68"/><use x="2149.3" xlink:href="#DejaVuSans-6f"/></g></g></g></g><defs><clipPath id="p55a5c15d4a"><path d="M44.7 22.3h334.8v217.4H44.7z"/></clipPath></defs></svg>