<svg viewBox="0 0 389 278" xmlns="http://www.w3.org/2000/svg" xmlns:xlink="http://www.w3.org/1999/xlink"><defs><style>*{stroke-linecap:butt;stroke-linejoin:round}</style></defs><g id="figure_1"><path d="M0 278.3h390V0H0z" fill="#fff" id="patch_1"/><g id="axes_1"><path d="M48 239.8h334.7V22.3H48z" fill="#eaeaf2" id="patch_2"/><g id="matplotlib.axis_1"><g id="xtick_1"><g id="text_1"><defs><path d="M12.4 8.3h16.1v55.6L11 60.4v9l17.4 3.5h9.9V8.3h16V0H12.5z" id="DejaVuSans-31"/></defs><use xlink:href="#DejaVuSans-31" transform="matrix(.1 0 0 -.1 54 254.4)" fill="#262626"/></g></g><g id="xtick_2"><g id="text_2"><defs><path d="M19.2 8.3h34.4V0H7.3v8.3l15.3 15.6q9.7 9.8 12.2 12.6 4.7 5.3 6.6 9 2 3.7 2 7.3 0 5.8-4.2 9.5-4 3.6-10.6 3.6-4.6 0-9.8-1.6-5.1-1.6-11-4.9v10q6 2.4 11.1 3.6 5.2 1.2 9.5 1.2 11.4 0 18-5.7 6.8-5.6 6.8-15 0-4.6-1.7-8.6-1.6-4-6-9.5l-7.9-8.2L19.2 8.3z" id="DejaVuSans-32"/></defs><use xlink:href="#DejaVuSans-32" transform="matrix(.1 0 0 -.1 72.7 254.4)" fill="#262626"/></g></g><g id="xtick_3"><g id="text_3"><defs><path d="M40.6 39.3q7-1.5 11-6.3t4-11.8q0-10.8-7.4-16.7-7.4-6-21.1-6-4.6 0-9.4 1-4.9.9-10 2.7v9.5q4-2.4 8.9-3.6Q21.5 7 26.8 7q9.3 0 14.1 3.6 4.9 3.7 4.9 10.7 0 6.4-4.5 10Q36.8 35 28.7 35h-8.5V43h9q7.2 0 11 3 3.9 2.8 3.9 8.3 0 5.6-4 8.6t-11.4 3q-4 0-8.7-.9-4.6-.8-10.2-2.7v8.8q5.6 1.6 10.5 2.3 5 .8 9.3.8 11.2 0 17.8-5 6.5-5.2 6.5-13.9 0-6-3.5-10.2-3.4-4.2-9.8-5.8z" id="DejaVuSans-33"/></defs><use xlink:href="#DejaVuSans-33" transform="matrix(.1 0 0 -.1 91.3 254.4)" fill="#262626"/></g></g><g id="xtick_4"><g id="text_4"><defs><path d="M37.8 64.3l-25-39h25zM35.2 73h12.4V25.4H58v-8.2H47.6V0h-9.8v17.2h-33v9.5z" id="DejaVuSans-34"/></defs><use xlink:href="#DejaVuSans-34" transform="matrix(.1 0 0 -.1 109.9 254.4)" fill="#262626"/></g></g><g id="xtick_5"><g id="text_5"><defs><path d="M10.8 73h38.7v-8.4H19.8V46.7q2.2.8 4.3 1.1 2.2.4 4.3.4 12.2 0 19.4-6.7 7-6.7 7-18.1 0-11.8-7.2-18.3-7.4-6.5-20.7-6.5-4.6 0-9.4.8-4.7.7-9.8 2.3v10q4.4-2.5 9.1-3.6 4.7-1.2 9.9-1.2 8.5 0 13.4 4.4 5 4.5 5 12 0 7.7-5 12.1Q35 40 26.7 40q-4 0-7.9-.9-4-.9-8-2.7z" id="DejaVuSans-35"/></defs><use xlink:href="#DejaVuSans-35" transform="matrix(.1 0 0 -.1 128.5 254.4)" fill="#262626"/></g></g><g id="xtick_6"><g id="text_6"><defs><path d="M33 40.4q-6.6 0-10.5-4.6-3.9-4.5-3.9-12.4T22.5 11Q26.4 6.4 33 6.4q6.7 0 10.5 4.6 4 4.5 4 12.4t-4 12.4q-3.8 4.6-10.5 4.6zm19.6 30.9v-9Q48.9 64.1 45 65q-3.8 1-7.5 1-9.8 0-15-6.7-5-6.6-5.8-19.9 2.9 4.3 7.2 6.5 4.4 2.3 9.6 2.3 11 0 17.4-6.7 6.3-6.6 6.3-18.1 0-11.2-6.6-18Q44-1.4 33-1.4q-12.6 0-19.3 9.7Q7 18 7 36.3 7 53.8 15.2 64q8.2 10.3 22 10.3 3.7 0 7.5-.7 3.8-.8 7.9-2.2z" id="DejaVuSans-36"/></defs><use xlink:href="#DejaVuSans-36" transform="matrix(.1 0 0 -.1 147 254.4)" fill="#262626"/></g></g><g id="xtick_7"><g id="text_7"><defs><path d="M8.2 73h46.9v-4.3L28.6 0H18.3l25 64.6H8.1z" id="DejaVuSans-37"/></defs><use xlink:href="#DejaVuSans-37" transform="matrix(.1 0 0 -.1 165.7 254.4)" fill="#262626"/></g></g><g id="xtick_8"><g id="text_8"><defs><path d="M31.8 34.6q-7 0-11-3.7-4.1-3.8-4.1-10.4 0-6.6 4-10.3 4-3.8 11-3.8 7.1 0 11.2 3.8 4 3.8 4 10.3 0 6.6-4 10.4-4 3.7-11.1 3.7zm-9.9 4.2q-6.3 1.6-9.9 6Q8.5 49 8.5 55.2q0 8.8 6.2 13.8 6.3 5.1 17 5.1 11 0 17.2-5Q55 64 55 55.2q0-6.2-3.6-10.6-3.5-4.3-9.8-5.9 7.1-1.6 11.1-6.5 4-4.8 4-11.8 0-10.6-6.5-16.3-6.5-5.6-18.5-5.6T13.2 4.2Q6.8 10 6.8 20.5q0 7 4 11.8 4 4.9 11.1 6.5zm-3.6 15.6q0-5.7 3.5-8.8 3.6-3.2 10-3.2 6.3 0 10 3.2 3.5 3.1 3.5 8.8 0 5.7-3.6 8.8-3.6 3.2-10 3.2-6.3 0-9.9-3.2-3.5-3.1-3.5-8.8z" id="DejaVuSans-38"/></defs><use xlink:href="#DejaVuSans-38" transform="matrix(.1 0 0 -.1 184.3 254.4)" fill="#262626"/></g></g><g id="xtick_9"><g id="text_9"><defs><path d="M11 1.5v9q3.7-1.8 7.5-2.7 3.8-1 7.5-1 9.8 0 14.9 6.7 5.1 6.5 5.9 20-2.8-4.3-7.2-6.5-4.4-2.3-9.6-2.3-11 0-17.3 6.6Q6.3 38 6.3 49.4q0 11.2 6.6 18 6.7 6.8 17.7 6.8 12.7 0 19.3-9.7 6.7-9.7 6.7-28.1 0-17.3-8.2-27.5-8.2-10.3-22-10.3-3.7 0-7.5.7t-8 2.2zm19.6 31q6.6 0 10.5 4.5 4 4.5 4 12.4t-4 12.4q-3.9 4.6-10.5 4.6t-10.5-4.6q-3.9-4.5-3.9-12.4T20.1 37q3.9-4.6 10.5-4.6z" id="DejaVuSans-39"/></defs><use xlink:href="#DejaVuSans-39" transform="matrix(.1 0 0 -.1 202.9 254.4)" fill="#262626"/></g></g><g id="xtick_10"><g id="text_10"><defs><path d="M31.8 66.4q-7.6 0-11.5-7.5-3.8-7.5-3.8-22.5t3.8-22.5q3.9-7.5 11.5-7.5 7.7 0 11.5 7.5T47 36.4q0 15-3.8 22.5t-11.5 7.5zm0 7.8q12.2 0 18.7-9.7T57 36.4Q57 18 50.5 8.3 44-1.4 31.8-1.4 19.5-1.4 13 8.3q-6.5 9.7-6.5 28 0 18.5 6.5 28.2 6.4 9.7 18.7 9.7z" id="DejaVuSans-30"/></defs><g transform="matrix(.1 0 0 -.1 218.3 254.4)" fill="#262626"><use xlink:href="#DejaVuSans-31"/><use x="63.6" xlink:href="#DejaVuSans-30"/></g></g></g><g id="xtick_11"><g transform="matrix(.1 0 0 -.1 236.9 254.4)" fill="#262626" id="text_11"><use xlink:href="#DejaVuSans-31"/><use x="63.6" xlink:href="#DejaVuSans-31"/></g></g><g id="xtick_12"><g transform="matrix(.1 0 0 -.1 255.5 254.4)" fill="#262626" id="text_12"><use xlink:href="#DejaVuSans-31"/><use x="63.6" xlink:href="#DejaVuSans-32"/></g></g><g id="xtick_13"><g transform="matrix(.1 0 0 -.1 274 254.4)" fill="#262626" id="text_13"><use xlink:href="#DejaVuSans-31"/><use x="63.6" xlink:href="#DejaVuSans-33"/></g></g><g id="xtick_14"><g transform="matrix(.1 0 0 -.1 292.7 254.4)" fill="#262626" id="text_14"><use xlink:href="#DejaVuSans-31"/><use x="63.6" xlink:href="#DejaVuSans-34"/></g></g><g id="xtick_15"><g transform="matrix(.1 0 0 -.1 311.3 254.4)" fill="#262626" id="text_15"><use xlink:href="#DejaVuSans-31"/><use x="63.6" xlink:href="#DejaVuSans-35"/></g></g><g id="xtick_16"><g transform="matrix(.1 0 0 -.1 329.9 254.4)" fill="#262626" id="text_16"><use xlink:href="#DejaVuSans-31"/><use x="63.6" xlink:href="#DejaVuSans-36"/></g></g><g id="xtick_17"><g transform="matrix(.1 0 0 -.1 348.5 254.4)" fill="#262626" id="text_17"><use xlink:href="#DejaVuSans-31"/><use x="63.6" xlink:href="#DejaVuSans-37"/></g></g><g id="xtick_18"><g transform="matrix(.1 0 0 -.1 367 254.4)" fill="#262626" id="text_18"><use xlink:href="#DejaVuSans-31"/><use x="63.6" xlink:href="#DejaVuSans-38"/></g></g><g id="text_19"><defs><path d="M5.6 73H63v-7.6L16.8 8.3H64V0H4.5v7.5l46 57H5.7z" id="DejaVuSans-5a"/><path d="M9.4 54.7h9V0h-9zm0 21.3h9V64.6h-9z" id="DejaVuSans-69"/><path d="M18.1 8.2v-29h-9v75.5h9v-8.3q2.9 4.9 7.2 7.2Q29.6 56 35.6 56q10 0 16.2-8Q58 40.3 58 27.4q0-12.9-6.2-20.8-6.2-8-16.2-8-6 0-10.3 2.5Q21 3.3 18 8.2zm30.6 19.1q0 9.9-4 15.5-4.2 5.7-11.3 5.7-7.1 0-11.2-5.7-4-5.6-4-15.5 0-10 4-15.6t11.2-5.6q7.1 0 11.2 5.7 4 5.6 4 15.5z" id="DejaVuSans-70"/><path d="M59.5 10.4V30h-16v8h25.8V6.9q-5.7-4-12.6-6.1Q49.8-1.4 42-1.4q-17 0-26.8 10-9.6 10-9.6 27.8 0 17.9 9.7 27.8 9.6 10 26.7 10 7.1 0 13.5-1.7 6.5-1.8 11.9-5.2V56.8q-5.5 4.6-11.6 7-6.2 2.3-13 2.3-13.4 0-20-7.5Q16 51.2 16 36.4q0-14.8 6.7-22.2 6.7-7.5 20.1-7.5 5.2 0 9.3.9 4.1.9 7.4 2.8z" id="DejaVuSans-47"/><path d="M41.1 46.3q-1.5.9-3.3 1.3-1.8.4-4 .4-7.5 0-11.6-5-4-5-4-14.2V0H9v54.7h9v-8.5q2.9 5 7.4 7.4Q30 56 36.5 56l2-.1 2.6-.4z" id="DejaVuSans-72"/><path d="M30.6 48.4q-7.2 0-11.4-5.6Q15 37 15 27.3t4.2-15.5q4.1-5.6 11.4-5.6 7.2 0 11.4 5.7 4.2 5.6 4.2 15.4 0 9.7-4.2 15.4-4.2 5.7-11.4 5.7zm0 7.6q11.7 0 18.4-7.6 6.7-7.6 6.7-21.1 0-13.4-6.7-21-6.7-7.7-18.4-7.7-11.8 0-18.4 7.6Q5.5 14 5.5 27.3q0 13.5 6.7 21Q18.8 56 30.6 56z" id="DejaVuSans-6f"/><path d="M8.5 21.6v33h9V22q0-7.7 3-11.6 3-4 9-4 7.4 0 11.6 4.7 4.2 4.7 4.2 12.7v31h9V0h-9v8.4Q42 3.4 37.7 1q-4.3-2.4-10-2.4-9.4 0-14.3 5.8-4.9 5.9-4.9 17.2zM31.1 56z" id="DejaVuSans-75"/></defs><g transform="matrix(.11 0 0 -.11 189.7 268.8)" fill="#262626"><use xlink:href="#DejaVuSans-5a"/><use x="68.5" xlink:href="#DejaVuSans-69"/><use x="96.3" xlink:href="#DejaVuSans-70"/><use x="159.8" xlink:href="#DejaVuSans-47"/><use x="237.3" xlink:href="#DejaVuSans-72"/><use x="278.3" xlink:href="#DejaVuSans-6f"/><use x="339.5" xlink:href="#DejaVuSans-75"/><use x="402.9" xlink:href="#DejaVuSans-70"/></g></g></g><g id="matplotlib.axis_2"><g id="ytick_1"><path clip-path="url(#p04d8bd0e4d)" d="M48 239.8h334.7" fill="none" stroke="#fff" stroke-linecap="round" id="line2d_19"/><use xlink:href="#DejaVuSans-30" transform="matrix(.1 0 0 -.1 34.6 243.6)" fill="#262626" id="text_20"/></g><g id="ytick_2"><path clip-path="url(#p04d8bd0e4d)" d="M48 203h334.7" fill="none" stroke="#fff" stroke-linecap="round" id="line2d_21"/><g transform="matrix(.1 0 0 -.1 28.2 206.8)" fill="#262626" id="text_21"><use xlink:href="#DejaVuSans-35"/><use x="63.6" xlink:href="#DejaVuSans-30"/></g></g><g id="ytick_3"><path clip-path="url(#p04d8bd0e4d)" d="M48 166.3h334.7" fill="none" stroke="#fff" stroke-linecap="round" id="line2d_23"/><g transform="matrix(.1 0 0 -.1 21.8 170.1)" fill="#262626" id="text_22"><use xlink:href="#DejaVuSans-31"/><use x="63.6" xlink:href="#DejaVuSans-30"/><use x="127.2" xlink:href="#DejaVuSans-30"/></g></g><g id="ytick_4"><path clip-path="url(#p04d8bd0e4d)" d="M48 129.6h334.7" fill="none" stroke="#fff" stroke-linecap="round" id="line2d_25"/><g transform="matrix(.1 0 0 -.1 21.8 133.4)" fill="#262626" id="text_23"><use xlink:href="#DejaVuSans-31"/><use x="63.6" xlink:href="#DejaVuSans-35"/><use x="127.2" xlink:href="#DejaVuSans-30"/></g></g><g id="ytick_5"><path clip-path="url(#p04d8bd0e4d)" d="M48 92.9h334.7" fill="none" stroke="#fff" stroke-linecap="round" id="line2d_27"/><g transform="matrix(.1 0 0 -.1 21.8 96.7)" fill="#262626" id="text_24"><use xlink:href="#DejaVuSans-32"/><use x="63.6" xlink:href="#DejaVuSans-30"/><use x="127.2" xlink:href="#DejaVuSans-30"/></g></g><g id="ytick_6"><path clip-path="url(#p04d8bd0e4d)" d="M48 56.2h334.7" fill="none" stroke="#fff" stroke-linecap="round" id="line2d_29"/><g transform="matrix(.1 0 0 -.1 21.8 60)" fill="#262626" id="text_25"><use xlink:href="#DejaVuSans-32"/><use x="63.6" xlink:href="#DejaVuSans-35"/><use x="127.2" xlink:href="#DejaVuSans-30"/></g></g><g id="text_26"><defs><path d="M48.8 52.6v-8.4Q45 46.3 41 47.3q-3.8 1-7.7 1-8.7 0-13.6-5.5Q15 37.3 15 27.3t4.8-15.6q4.9-5.5 13.6-5.5 4 0 7.7 1 3.9 1.1 7.7 3.2V2.1Q45 .3 41-.5q-4-1-8.6-1-12.3 0-19.6 7.8-7.3 7.8-7.3 21 0 13.4 7.4 21Q20.2 56 33 56q4.2 0 8.1-.9 4-.8 7.7-2.5z" id="DejaVuSans-63"/><path d="M54.9 33V0h-9v32.7q0 7.8-3 11.6-3 3.9-9.1 3.9-7.3 0-11.5-4.7Q18.1 39 18.1 31V0h-9v54.7h9v-8.5q3.2 5 7.6 7.4Q30.1 56 35.8 56q9.4 0 14.2-5.8Q55 44.3 55 33z" id="DejaVuSans-6e"/><path d="M18.3 70.2V54.7h18.5v-7H18.3V18q0-6.7 1.8-8.6 1.9-1.9 7.5-1.9h9.2V0h-9.2Q17.2 0 13.2 3.9T9.2 18v29.7H2.8v7h6.6v15.5z" id="DejaVuSans-74"/></defs><g transform="matrix(0 -.11 -.11 0 15.6 146.6)" fill="#262626"><use xlink:href="#DejaVuSans-63"/><use x="55" xlink:href="#DejaVuSans-6f"/><use x="116.2" xlink:href="#DejaVuSans-75"/><use x="179.5" xlink:href="#DejaVuSans-6e"/><use x="242.9" xlink:href="#DejaVuSans-74"/></g></g></g><path clip-path="url(#p04d8bd0e4d)" d="M49.8 239.8h14.9v-87.4h-15z" fill="#ea96a3" id="patch_3"/><path clip-path="url(#p04d8bd0e4d)" d="M68.4 239.8h14.9V136.9h-15z" fill="#e7957e" id="patch_4"/><path clip-path="url(#p04d8bd0e4d)" d="M87 239.8h14.9V127.4h-15z" fill="#d1964d" id="patch_5"/><path clip-path="url(#p04d8bd0e4d)" d="M105.6 239.8h14.9v-105h-15z" fill="#b89c49" id="patch_6"/><path clip-path="url(#p04d8bd0e4d)" d="M124.2 239.8H139V85.5h-15z" fill="#a29f46" id="patch_7"/><path clip-path="url(#p04d8bd0e4d)" d="M142.8 239.8h14.9v-72h-15z" fill="#8ca646" id="patch_8"/><path clip-path="url(#p04d8bd0e4d)" d="M161.4 239.8h14.9v-79.4h-15z" fill="#60ae47" id="patch_9"/><path clip-path="url(#p04d8bd0e4d)" d="M180 239.8h14.9v-92.6h-15z" fill="#49af7c" id="patch_10"/><path clip-path="url(#p04d8bd0e4d)" d="M198.6 239.8h14.9v-26.5h-15z" fill="#4aad95" id="patch_11"/><path clip-path="url(#p04d8bd0e4d)" d="M217.2 239.8H232v-99.2h-15z" fill="#4baba4" id="patch_12"/><path clip-path="url(#p04d8bd0e4d)" d="M235.8 239.8h14.9V32.7h-15z" fill="#4dabb3" id="patch_13"/><path clip-path="url(#p04d8bd0e4d)" d="M254.4 239.8h14.9v-1.5h-15z" fill="#51acc7" id="patch_14"/><path clip-path="url(#p04d8bd0e4d)" d="M273 239.8h14.9v-22h-15z" fill="#6daee2" id="patch_15"/><path clip-path="url(#p04d8bd0e4d)" d="M291.6 239.8h14.9V206h-15z" fill="#a6acea" id="patch_16"/><path clip-path="url(#p04d8bd0e4d)" d="M310.2 239.8H325v-30.9h-15z" fill="#c4a1ea" id="patch_17"/><path clip-path="url(#p04d8bd0e4d)" d="M328.8 239.8h14.9v-53h-15z" fill="#df8fe7" id="patch_18"/><path clip-path="url(#p04d8bd0e4d)" d="M347.4 239.8h14.9v-36h-15z" fill="#e88ed1" id="patch_19"/><path clip-path="url(#p04d8bd0e4d)" d="M366 239.8h14.9v-51.4h-15z" fill="#e992bb" id="patch_20"/><path d="M48 239.8V22.3" fill="none" id="patch_21"/><path d="M382.7 239.8V22.3" fill="none" id="patch_22"/><path d="M48 239.8h334.7" fill="none" id="patch_23"/><path d="M48 22.3h334.7" fill="none" id="patch_24"/><g id="text_27"><defs><path d="M9.8 73h13.3l32.3-61v61H65V0H51.7L19.4 61V0H9.8z" id="DejaVuSans-4e"/><path d="M52 44.2q3.4 6 8 9Q64.9 56 71 56q8.6 0 13.3-6 4.6-6 4.6-17V0h-9v32.7q0 7.9-2.8 11.7-2.8 3.8-8.5 3.8-7 0-11-4.7-4-4.6-4-12.6V0h-9.1v32.7q0 8-2.8 11.7-2.8 3.8-8.6 3.8-6.9 0-11-4.7-4-4.6-4-12.6V0h-9v54.7h9v-8.5q3 5 7.4 7.4Q29.8 56 35.7 56q6 0 10.1-3 4.2-3 6.2-8.8z" id="DejaVuSans-6d"/><path d="M48.7 27.3q0 9.9-4 15.5-4.2 5.7-11.3 5.7-7.1 0-11.2-5.7-4-5.6-4-15.5 0-10 4-15.6t11.2-5.6q7.1 0 11.2 5.7 4 5.6 4 15.5zM18 46.3q2.9 5 7.2 7.3Q29.6 56 35.6 56q10 0 16.2-8Q58 40.3 58 27.4q0-12.9-6.2-20.8-6.2-8-16.2-8-6 0-10.3 2.5Q21 3.3 18 8.2V0h-9v76h9z" id="DejaVuSans-62"/><path d="M56.2 29.6v-4.4H14.9q.6-9.3 5.6-14.1 5-4.9 14-4.9 5 0 10 1.3 4.8 1.2 9.6 3.8V2.8q-4.8-2-10-3.1-5-1.1-10.2-1.1-13.1 0-20.7 7.6-7.7 7.6-7.7 20.6 0 13.4 7.3 21.3Q20 56 32.3 56q11 0 17.5-7.1 6.4-7.1 6.4-19.3zm-9 2.6q0 7.4-4.1 11.8-4 4.4-10.7 4.4-7.5 0-12-4.3-4.5-4.2-5.2-12z" id="DejaVuSans-65"/><path d="M37.1 76v-7.5h-8.6q-4.8 0-6.7-2-1.9-2-1.9-7v-4.8h14.8v-7H20V0h-9v47.7H2.3v7h8.6v3.8q0 9.1 4.2 13.3Q19.4 76 28.6 76z" id="DejaVuSans-66"/><path d="M53.5 70.5V61q-5.6 2.7-10.6 4-5 1.3-9.6 1.3-8 0-12.4-3.1t-4.4-8.9q0-4.8 3-7.3 2.8-2.5 11-4l5.9-1.2q11-2.1 16.3-7.4 5.2-5.3 5.2-14.2 0-10.6-7.1-16Q43.7-1.5 30-1.5q-5.2 0-11 1.1Q13 1 6.9 3.3v10.2q6-3.4 11.8-5.1Q24.4 6.6 30 6.6q8.4 0 13 3.3t4.6 9.5q0 5.4-3.3 8.4t-10.8 4.5l-6 1.2q-11 2.2-16 6.9t-5 13q0 9.7 7 15.3 6.7 5.5 18.7 5.5 5.1 0 10.4-1 5.4-.8 11-2.7z" id="DejaVuSans-53"/><path d="M54.9 33V0h-9v32.7q0 7.8-3 11.6-3 3.9-9.1 3.9-7.3 0-11.5-4.7Q18.1 39 18.1 31V0h-9v76h9V46.2q3.2 5 7.6 7.4Q30.1 56 35.8 56q9.4 0 14.2-5.8Q55 44.3 55 33z" id="DejaVuSans-68"/><path d="M9.4 76h9V0h-9z" id="DejaVuSans-6c"/><path d="M44.3 53v-8.4q-3.8 2-8 2.9-4 1-8.4 1-6.7 0-10-2-3.4-2.1-3.4-6.2 0-3.1 2.4-5 2.4-1.7 9.6-3.3l3-.7q9.7-2 13.7-5.8 4-3.7 4-10.4 0-7.6-6-12-6-4.5-16.6-4.5-4.4 0-9.1.8-4.8.9-10 2.6v9.3q5-2.6 9.7-4 4.9-1.2 9.6-1.2 6.4 0 9.8 2.2 3.4 2.2 3.4 6.1 0 3.7-2.5 5.6-2.4 2-10.8 3.8l-3.1.7q-8.4 1.8-12 5.4-3.8 3.6-3.8 10 0 7.7 5.5 11.9Q16.7 56 26.8 56q5 0 9.4-.7 4.4-.8 8-2.2z" id="DejaVuSans-73"/></defs><g transform="matrix(.12 0 0 -.12 115 16.3)" fill="#262626"><use xlink:href="#DejaVuSans-4e"/><use x="74.8" xlink:href="#DejaVuSans-75"/><use x="138.2" xlink:href="#DejaVuSans-6d"/><use x="235.6" xlink:href="#DejaVuSans-62"/><use x="299.1" xlink:href="#DejaVuSans-65"/><use x="360.6" xlink:href="#DejaVuSans-72"/><use x="401.7" xlink:href="#DejaVuSans-20"/><use x="433.5" xlink:href="#DejaVuSans-6f"/><use x="494.7" xlink:href="#DejaVuSans-66"/><use x="529.9" xlink:href="#DejaVuSans-20"/><use x="561.7" xlink:href="#DejaVuSans-53"/><use x="625.1" xlink:href="#DejaVuSans-63"/><use x="680.1" xlink:href="#DejaVuSans-68"/><use x="743.5" xlink:href="#DejaVuSans-6f"/><use x="804.7" xlink:href="#DejaVuSans-6f"/><use x="865.9" xlink:href="#DejaVuSans-6c"/><use x="893.7" xlink:href="#DejaVuSans-73"/><use x="945.8" xlink:href="#DejaVuSans-20"/><use x="977.5" xlink:href="#DejaVuSans-70"/><use x="1041" xlink:href="#DejaVuSans-65"/><use x="1102.5" xlink:href="#DejaVuSans-72"/><use x="1143.7" xlink:href="#DejaVuSans-20"/><use x="1175.4" xlink:href="#DejaVuSans-5a"/><use x="1243.9" xlink:href="#DejaVuSans-69"/><use x="1271.7" xlink:href="#DejaVuSans-70"/><use x="1335.2" xlink:href="#DejaVuSans-20"/><use x="1367" xlink:href="#DejaVuSans-47"/><use x="1444.5" xlink:href="#DejaVuSans-72"/><use x="1485.6" xlink:href="#DejaVuSans-6f"/><use x="1546.7" xlink:href="#DejaVuSans-75"/><use x="1610.1" xlink:href="#DejaVuSans-70"/></g></g></g></g><defs><clipPath id="p04d8bd0e4d"><path d="M47.9 22.3h334.8v217.4H47.9z"/></clipPath></defs></svg>