<?xml version="1.0" encoding="utf-8" standalone="no"?>
<!DOCTYPE svg PUBLIC "-//W3C//DTD SVG 1.1//EN"
  "http://www.w3.org/Graphics/SVG/1.1/DTD/svg11.dtd">
<!-- Created with matplotlib (http://matplotlib.org/) -->
<svg height="278pt" version="1.1" viewBox="0 0 393 278" width="393pt" xmlns="http://www.w3.org/2000/svg" xmlns:xlink="http://www.w3.org/1999/xlink">
 <defs>
  <style type="text/css">
*{stroke-linecap:butt;stroke-linejoin:round;}
  </style>
 </defs>
 <g id="figure_1">
  <g id="patch_1">
   <path d="M 0 278.282188 
L 393.111562 278.282188 
L 393.111562 0 
L 0 0 
z
" style="fill:#ffffff;"/>
  </g>
  <g id="axes_1">
   <g id="patch_2">
    <path d="M 51.111563 239.758125 
L 385.911563 239.758125 
L 385.911563 22.318125 
L 51.111563 22.318125 
z
" style="fill:#eaeaf2;"/>
   </g>
   <g id="matplotlib.axis_1">
    <g id="xtick_1">
     <g id="line2d_1">
      <path clip-path="url(#paa3c969c17)" d="M 97.032894 239.758125 
L 97.032894 22.318125 
" style="fill:none;stroke:#ffffff;stroke-linecap:round;"/>
     </g>
     <g id="line2d_2"/>
     <g id="text_1">
      <!-- −1.0 -->
      <defs>
       <path d="M 10.59375 35.5 
L 73.1875 35.5 
L 73.1875 27.203125 
L 10.59375 27.203125 
z
" id="DejaVuSans-2212"/>
       <path d="M 12.40625 8.296875 
L 28.515625 8.296875 
L 28.515625 63.921875 
L 10.984375 60.40625 
L 10.984375 69.390625 
L 28.421875 72.90625 
L 38.28125 72.90625 
L 38.28125 8.296875 
L 54.390625 8.296875 
L 54.390625 0 
L 12.40625 0 
z
" id="DejaVuSans-31"/>
       <path d="M 10.6875 12.40625 
L 21 12.40625 
L 21 0 
L 10.6875 0 
z
" id="DejaVuSans-2e"/>
       <path d="M 31.78125 66.40625 
Q 24.171875 66.40625 20.328125 58.90625 
Q 16.5 51.421875 16.5 36.375 
Q 16.5 21.390625 20.328125 13.890625 
Q 24.171875 6.390625 31.78125 6.390625 
Q 39.453125 6.390625 43.28125 13.890625 
Q 47.125 21.390625 47.125 36.375 
Q 47.125 51.421875 43.28125 58.90625 
Q 39.453125 66.40625 31.78125 66.40625 
z
M 31.78125 74.21875 
Q 44.046875 74.21875 50.515625 64.515625 
Q 56.984375 54.828125 56.984375 36.375 
Q 56.984375 17.96875 50.515625 8.265625 
Q 44.046875 -1.421875 31.78125 -1.421875 
Q 19.53125 -1.421875 13.0625 8.265625 
Q 6.59375 17.96875 6.59375 36.375 
Q 6.59375 54.828125 13.0625 64.515625 
Q 19.53125 74.21875 31.78125 74.21875 
z
" id="DejaVuSans-30"/>
      </defs>
      <g style="fill:#262626;" transform="translate(84.891487 254.356563)scale(0.1 -0.1)">
       <use xlink:href="#DejaVuSans-2212"/>
       <use x="83.789062" xlink:href="#DejaVuSans-31"/>
       <use x="147.412109" xlink:href="#DejaVuSans-2e"/>
       <use x="179.199219" xlink:href="#DejaVuSans-30"/>
      </g>
     </g>
    </g>
    <g id="xtick_2">
     <g id="line2d_3">
      <path clip-path="url(#paa3c969c17)" d="M 157.472438 239.758125 
L 157.472438 22.318125 
" style="fill:none;stroke:#ffffff;stroke-linecap:round;"/>
     </g>
     <g id="line2d_4"/>
     <g id="text_2">
      <!-- −0.5 -->
      <defs>
       <path d="M 10.796875 72.90625 
L 49.515625 72.90625 
L 49.515625 64.59375 
L 19.828125 64.59375 
L 19.828125 46.734375 
Q 21.96875 47.46875 24.109375 47.828125 
Q 26.265625 48.1875 28.421875 48.1875 
Q 40.625 48.1875 47.75 41.5 
Q 54.890625 34.8125 54.890625 23.390625 
Q 54.890625 11.625 47.5625 5.09375 
Q 40.234375 -1.421875 26.90625 -1.421875 
Q 22.3125 -1.421875 17.546875 -0.640625 
Q 12.796875 0.140625 7.71875 1.703125 
L 7.71875 11.625 
Q 12.109375 9.234375 16.796875 8.0625 
Q 21.484375 6.890625 26.703125 6.890625 
Q 35.15625 6.890625 40.078125 11.328125 
Q 45.015625 15.765625 45.015625 23.390625 
Q 45.015625 31 40.078125 35.4375 
Q 35.15625 39.890625 26.703125 39.890625 
Q 22.75 39.890625 18.8125 39.015625 
Q 14.890625 38.140625 10.796875 36.28125 
z
" id="DejaVuSans-35"/>
      </defs>
      <g style="fill:#262626;" transform="translate(145.331032 254.356563)scale(0.1 -0.1)">
       <use xlink:href="#DejaVuSans-2212"/>
       <use x="83.789062" xlink:href="#DejaVuSans-30"/>
       <use x="147.412109" xlink:href="#DejaVuSans-2e"/>
       <use x="179.199219" xlink:href="#DejaVuSans-35"/>
      </g>
     </g>
    </g>
    <g id="xtick_3">
     <g id="line2d_5">
      <path clip-path="url(#paa3c969c17)" d="M 217.911982 239.758125 
L 217.911982 22.318125 
" style="fill:none;stroke:#ffffff;stroke-linecap:round;"/>
     </g>
     <g id="line2d_6"/>
     <g id="text_3">
      <!-- 0.0 -->
      <g style="fill:#262626;" transform="translate(209.960419 254.356563)scale(0.1 -0.1)">
       <use xlink:href="#DejaVuSans-30"/>
       <use x="63.623047" xlink:href="#DejaVuSans-2e"/>
       <use x="95.410156" xlink:href="#DejaVuSans-30"/>
      </g>
     </g>
    </g>
    <g id="xtick_4">
     <g id="line2d_7">
      <path clip-path="url(#paa3c969c17)" d="M 278.351526 239.758125 
L 278.351526 22.318125 
" style="fill:none;stroke:#ffffff;stroke-linecap:round;"/>
     </g>
     <g id="line2d_8"/>
     <g id="text_4">
      <!-- 0.5 -->
      <g style="fill:#262626;" transform="translate(270.399964 254.356563)scale(0.1 -0.1)">
       <use xlink:href="#DejaVuSans-30"/>
       <use x="63.623047" xlink:href="#DejaVuSans-2e"/>
       <use x="95.410156" xlink:href="#DejaVuSans-35"/>
      </g>
     </g>
    </g>
    <g id="xtick_5">
     <g id="line2d_9">
      <path clip-path="url(#paa3c969c17)" d="M 338.79107 239.758125 
L 338.79107 22.318125 
" style="fill:none;stroke:#ffffff;stroke-linecap:round;"/>
     </g>
     <g id="line2d_10"/>
     <g id="text_5">
      <!-- 1.0 -->
      <g style="fill:#262626;" transform="translate(330.839508 254.356563)scale(0.1 -0.1)">
       <use xlink:href="#DejaVuSans-31"/>
       <use x="63.623047" xlink:href="#DejaVuSans-2e"/>
       <use x="95.410156" xlink:href="#DejaVuSans-30"/>
      </g>
     </g>
    </g>
    <g id="text_6">
     <!-- Pearson Correlation Coefficient -->
     <defs>
      <path d="M 19.671875 64.796875 
L 19.671875 37.40625 
L 32.078125 37.40625 
Q 38.96875 37.40625 42.71875 40.96875 
Q 46.484375 44.53125 46.484375 51.125 
Q 46.484375 57.671875 42.71875 61.234375 
Q 38.96875 64.796875 32.078125 64.796875 
z
M 9.8125 72.90625 
L 32.078125 72.90625 
Q 44.34375 72.90625 50.609375 67.359375 
Q 56.890625 61.8125 56.890625 51.125 
Q 56.890625 40.328125 50.609375 34.8125 
Q 44.34375 29.296875 32.078125 29.296875 
L 19.671875 29.296875 
L 19.671875 0 
L 9.8125 0 
z
" id="DejaVuSans-50"/>
      <path d="M 56.203125 29.59375 
L 56.203125 25.203125 
L 14.890625 25.203125 
Q 15.484375 15.921875 20.484375 11.0625 
Q 25.484375 6.203125 34.421875 6.203125 
Q 39.59375 6.203125 44.453125 7.46875 
Q 49.3125 8.734375 54.109375 11.28125 
L 54.109375 2.78125 
Q 49.265625 0.734375 44.1875 -0.34375 
Q 39.109375 -1.421875 33.890625 -1.421875 
Q 20.796875 -1.421875 13.15625 6.1875 
Q 5.515625 13.8125 5.515625 26.8125 
Q 5.515625 40.234375 12.765625 48.109375 
Q 20.015625 56 32.328125 56 
Q 43.359375 56 49.78125 48.890625 
Q 56.203125 41.796875 56.203125 29.59375 
z
M 47.21875 32.234375 
Q 47.125 39.59375 43.09375 43.984375 
Q 39.0625 48.390625 32.421875 48.390625 
Q 24.90625 48.390625 20.390625 44.140625 
Q 15.875 39.890625 15.1875 32.171875 
z
" id="DejaVuSans-65"/>
      <path d="M 34.28125 27.484375 
Q 23.390625 27.484375 19.1875 25 
Q 14.984375 22.515625 14.984375 16.5 
Q 14.984375 11.71875 18.140625 8.90625 
Q 21.296875 6.109375 26.703125 6.109375 
Q 34.1875 6.109375 38.703125 11.40625 
Q 43.21875 16.703125 43.21875 25.484375 
L 43.21875 27.484375 
z
M 52.203125 31.203125 
L 52.203125 0 
L 43.21875 0 
L 43.21875 8.296875 
Q 40.140625 3.328125 35.546875 0.953125 
Q 30.953125 -1.421875 24.3125 -1.421875 
Q 15.921875 -1.421875 10.953125 3.296875 
Q 6 8.015625 6 15.921875 
Q 6 25.140625 12.171875 29.828125 
Q 18.359375 34.515625 30.609375 34.515625 
L 43.21875 34.515625 
L 43.21875 35.40625 
Q 43.21875 41.609375 39.140625 45 
Q 35.0625 48.390625 27.6875 48.390625 
Q 23 48.390625 18.546875 47.265625 
Q 14.109375 46.140625 10.015625 43.890625 
L 10.015625 52.203125 
Q 14.9375 54.109375 19.578125 55.046875 
Q 24.21875 56 28.609375 56 
Q 40.484375 56 46.34375 49.84375 
Q 52.203125 43.703125 52.203125 31.203125 
z
" id="DejaVuSans-61"/>
      <path d="M 41.109375 46.296875 
Q 39.59375 47.171875 37.8125 47.578125 
Q 36.03125 48 33.890625 48 
Q 26.265625 48 22.1875 43.046875 
Q 18.109375 38.09375 18.109375 28.8125 
L 18.109375 0 
L 9.078125 0 
L 9.078125 54.6875 
L 18.109375 54.6875 
L 18.109375 46.1875 
Q 20.953125 51.171875 25.484375 53.578125 
Q 30.03125 56 36.53125 56 
Q 37.453125 56 38.578125 55.875 
Q 39.703125 55.765625 41.0625 55.515625 
z
" id="DejaVuSans-72"/>
      <path d="M 44.28125 53.078125 
L 44.28125 44.578125 
Q 40.484375 46.53125 36.375 47.5 
Q 32.28125 48.484375 27.875 48.484375 
Q 21.1875 48.484375 17.84375 46.4375 
Q 14.5 44.390625 14.5 40.28125 
Q 14.5 37.15625 16.890625 35.375 
Q 19.28125 33.59375 26.515625 31.984375 
L 29.59375 31.296875 
Q 39.15625 29.25 43.1875 25.515625 
Q 47.21875 21.78125 47.21875 15.09375 
Q 47.21875 7.46875 41.1875 3.015625 
Q 35.15625 -1.421875 24.609375 -1.421875 
Q 20.21875 -1.421875 15.453125 -0.5625 
Q 10.6875 0.296875 5.421875 2 
L 5.421875 11.28125 
Q 10.40625 8.6875 15.234375 7.390625 
Q 20.0625 6.109375 24.8125 6.109375 
Q 31.15625 6.109375 34.5625 8.28125 
Q 37.984375 10.453125 37.984375 14.40625 
Q 37.984375 18.0625 35.515625 20.015625 
Q 33.0625 21.96875 24.703125 23.78125 
L 21.578125 24.515625 
Q 13.234375 26.265625 9.515625 29.90625 
Q 5.8125 33.546875 5.8125 39.890625 
Q 5.8125 47.609375 11.28125 51.796875 
Q 16.75 56 26.8125 56 
Q 31.78125 56 36.171875 55.265625 
Q 40.578125 54.546875 44.28125 53.078125 
z
" id="DejaVuSans-73"/>
      <path d="M 30.609375 48.390625 
Q 23.390625 48.390625 19.1875 42.75 
Q 14.984375 37.109375 14.984375 27.296875 
Q 14.984375 17.484375 19.15625 11.84375 
Q 23.34375 6.203125 30.609375 6.203125 
Q 37.796875 6.203125 41.984375 11.859375 
Q 46.1875 17.53125 46.1875 27.296875 
Q 46.1875 37.015625 41.984375 42.703125 
Q 37.796875 48.390625 30.609375 48.390625 
z
M 30.609375 56 
Q 42.328125 56 49.015625 48.375 
Q 55.71875 40.765625 55.71875 27.296875 
Q 55.71875 13.875 49.015625 6.21875 
Q 42.328125 -1.421875 30.609375 -1.421875 
Q 18.84375 -1.421875 12.171875 6.21875 
Q 5.515625 13.875 5.515625 27.296875 
Q 5.515625 40.765625 12.171875 48.375 
Q 18.84375 56 30.609375 56 
z
" id="DejaVuSans-6f"/>
      <path d="M 54.890625 33.015625 
L 54.890625 0 
L 45.90625 0 
L 45.90625 32.71875 
Q 45.90625 40.484375 42.875 44.328125 
Q 39.84375 48.1875 33.796875 48.1875 
Q 26.515625 48.1875 22.3125 43.546875 
Q 18.109375 38.921875 18.109375 30.90625 
L 18.109375 0 
L 9.078125 0 
L 9.078125 54.6875 
L 18.109375 54.6875 
L 18.109375 46.1875 
Q 21.34375 51.125 25.703125 53.5625 
Q 30.078125 56 35.796875 56 
Q 45.21875 56 50.046875 50.171875 
Q 54.890625 44.34375 54.890625 33.015625 
z
" id="DejaVuSans-6e"/>
      <path id="DejaVuSans-20"/>
      <path d="M 64.40625 67.28125 
L 64.40625 56.890625 
Q 59.421875 61.53125 53.78125 63.8125 
Q 48.140625 66.109375 41.796875 66.109375 
Q 29.296875 66.109375 22.65625 58.46875 
Q 16.015625 50.828125 16.015625 36.375 
Q 16.015625 21.96875 22.65625 14.328125 
Q 29.296875 6.6875 41.796875 6.6875 
Q 48.140625 6.6875 53.78125 8.984375 
Q 59.421875 11.28125 64.40625 15.921875 
L 64.40625 5.609375 
Q 59.234375 2.09375 53.4375 0.328125 
Q 47.65625 -1.421875 41.21875 -1.421875 
Q 24.65625 -1.421875 15.125 8.703125 
Q 5.609375 18.84375 5.609375 36.375 
Q 5.609375 53.953125 15.125 64.078125 
Q 24.65625 74.21875 41.21875 74.21875 
Q 47.75 74.21875 53.53125 72.484375 
Q 59.328125 70.75 64.40625 67.28125 
z
" id="DejaVuSans-43"/>
      <path d="M 9.421875 75.984375 
L 18.40625 75.984375 
L 18.40625 0 
L 9.421875 0 
z
" id="DejaVuSans-6c"/>
      <path d="M 18.3125 70.21875 
L 18.3125 54.6875 
L 36.8125 54.6875 
L 36.8125 47.703125 
L 18.3125 47.703125 
L 18.3125 18.015625 
Q 18.3125 11.328125 20.140625 9.421875 
Q 21.96875 7.515625 27.59375 7.515625 
L 36.8125 7.515625 
L 36.8125 0 
L 27.59375 0 
Q 17.1875 0 13.234375 3.875 
Q 9.28125 7.765625 9.28125 18.015625 
L 9.28125 47.703125 
L 2.6875 47.703125 
L 2.6875 54.6875 
L 9.28125 54.6875 
L 9.28125 70.21875 
z
" id="DejaVuSans-74"/>
      <path d="M 9.421875 54.6875 
L 18.40625 54.6875 
L 18.40625 0 
L 9.421875 0 
z
M 9.421875 75.984375 
L 18.40625 75.984375 
L 18.40625 64.59375 
L 9.421875 64.59375 
z
" id="DejaVuSans-69"/>
      <path d="M 37.109375 75.984375 
L 37.109375 68.5 
L 28.515625 68.5 
Q 23.6875 68.5 21.796875 66.546875 
Q 19.921875 64.59375 19.921875 59.515625 
L 19.921875 54.6875 
L 34.71875 54.6875 
L 34.71875 47.703125 
L 19.921875 47.703125 
L 19.921875 0 
L 10.890625 0 
L 10.890625 47.703125 
L 2.296875 47.703125 
L 2.296875 54.6875 
L 10.890625 54.6875 
L 10.890625 58.5 
Q 10.890625 67.625 15.140625 71.796875 
Q 19.390625 75.984375 28.609375 75.984375 
z
" id="DejaVuSans-66"/>
      <path d="M 48.78125 52.59375 
L 48.78125 44.1875 
Q 44.96875 46.296875 41.140625 47.34375 
Q 37.3125 48.390625 33.40625 48.390625 
Q 24.65625 48.390625 19.8125 42.84375 
Q 14.984375 37.3125 14.984375 27.296875 
Q 14.984375 17.28125 19.8125 11.734375 
Q 24.65625 6.203125 33.40625 6.203125 
Q 37.3125 6.203125 41.140625 7.25 
Q 44.96875 8.296875 48.78125 10.40625 
L 48.78125 2.09375 
Q 45.015625 0.34375 40.984375 -0.53125 
Q 36.96875 -1.421875 32.421875 -1.421875 
Q 20.0625 -1.421875 12.78125 6.34375 
Q 5.515625 14.109375 5.515625 27.296875 
Q 5.515625 40.671875 12.859375 48.328125 
Q 20.21875 56 33.015625 56 
Q 37.15625 56 41.109375 55.140625 
Q 45.0625 54.296875 48.78125 52.59375 
z
" id="DejaVuSans-63"/>
     </defs>
     <g style="fill:#262626;" transform="translate(132.858516 268.794531)scale(0.11 -0.11)">
      <use xlink:href="#DejaVuSans-50"/>
      <use x="60.255859" xlink:href="#DejaVuSans-65"/>
      <use x="121.779297" xlink:href="#DejaVuSans-61"/>
      <use x="183.058594" xlink:href="#DejaVuSans-72"/>
      <use x="224.171875" xlink:href="#DejaVuSans-73"/>
      <use x="276.271484" xlink:href="#DejaVuSans-6f"/>
      <use x="337.453125" xlink:href="#DejaVuSans-6e"/>
      <use x="400.832031" xlink:href="#DejaVuSans-20"/>
      <use x="432.619141" xlink:href="#DejaVuSans-43"/>
      <use x="502.443359" xlink:href="#DejaVuSans-6f"/>
      <use x="563.625" xlink:href="#DejaVuSans-72"/>
      <use x="604.722656" xlink:href="#DejaVuSans-72"/>
      <use x="645.804688" xlink:href="#DejaVuSans-65"/>
      <use x="707.328125" xlink:href="#DejaVuSans-6c"/>
      <use x="735.111328" xlink:href="#DejaVuSans-61"/>
      <use x="796.390625" xlink:href="#DejaVuSans-74"/>
      <use x="835.599609" xlink:href="#DejaVuSans-69"/>
      <use x="863.382812" xlink:href="#DejaVuSans-6f"/>
      <use x="924.564453" xlink:href="#DejaVuSans-6e"/>
      <use x="987.943359" xlink:href="#DejaVuSans-20"/>
      <use x="1019.730469" xlink:href="#DejaVuSans-43"/>
      <use x="1089.554688" xlink:href="#DejaVuSans-6f"/>
      <use x="1150.736328" xlink:href="#DejaVuSans-65"/>
      <use x="1212.259766" xlink:href="#DejaVuSans-66"/>
      <use x="1247.464844" xlink:href="#DejaVuSans-66"/>
      <use x="1282.669922" xlink:href="#DejaVuSans-69"/>
      <use x="1310.453125" xlink:href="#DejaVuSans-63"/>
      <use x="1365.433594" xlink:href="#DejaVuSans-69"/>
      <use x="1393.216797" xlink:href="#DejaVuSans-65"/>
      <use x="1454.740234" xlink:href="#DejaVuSans-6e"/>
      <use x="1518.119141" xlink:href="#DejaVuSans-74"/>
     </g>
    </g>
   </g>
   <g id="matplotlib.axis_2">
    <g id="ytick_1">
     <g id="line2d_11">
      <path clip-path="url(#paa3c969c17)" d="M 51.111563 239.758125 
L 385.911563 239.758125 
" style="fill:none;stroke:#ffffff;stroke-linecap:round;"/>
     </g>
     <g id="line2d_12"/>
     <g id="text_7">
      <!-- 0.00 -->
      <g style="fill:#262626;" transform="translate(21.845938 243.557344)scale(0.1 -0.1)">
       <use xlink:href="#DejaVuSans-30"/>
       <use x="63.623047" xlink:href="#DejaVuSans-2e"/>
       <use x="95.410156" xlink:href="#DejaVuSans-30"/>
       <use x="159.033203" xlink:href="#DejaVuSans-30"/>
      </g>
     </g>
    </g>
    <g id="ytick_2">
     <g id="line2d_13">
      <path clip-path="url(#paa3c969c17)" d="M 51.111563 214.080972 
L 385.911563 214.080972 
" style="fill:none;stroke:#ffffff;stroke-linecap:round;"/>
     </g>
     <g id="line2d_14"/>
     <g id="text_8">
      <!-- 0.25 -->
      <defs>
       <path d="M 19.1875 8.296875 
L 53.609375 8.296875 
L 53.609375 0 
L 7.328125 0 
L 7.328125 8.296875 
Q 12.9375 14.109375 22.625 23.890625 
Q 32.328125 33.6875 34.8125 36.53125 
Q 39.546875 41.84375 41.421875 45.53125 
Q 43.3125 49.21875 43.3125 52.78125 
Q 43.3125 58.59375 39.234375 62.25 
Q 35.15625 65.921875 28.609375 65.921875 
Q 23.96875 65.921875 18.8125 64.3125 
Q 13.671875 62.703125 7.8125 59.421875 
L 7.8125 69.390625 
Q 13.765625 71.78125 18.9375 73 
Q 24.125 74.21875 28.421875 74.21875 
Q 39.75 74.21875 46.484375 68.546875 
Q 53.21875 62.890625 53.21875 53.421875 
Q 53.21875 48.921875 51.53125 44.890625 
Q 49.859375 40.875 45.40625 35.40625 
Q 44.1875 33.984375 37.640625 27.21875 
Q 31.109375 20.453125 19.1875 8.296875 
z
" id="DejaVuSans-32"/>
      </defs>
      <g style="fill:#262626;" transform="translate(21.845938 217.880191)scale(0.1 -0.1)">
       <use xlink:href="#DejaVuSans-30"/>
       <use x="63.623047" xlink:href="#DejaVuSans-2e"/>
       <use x="95.410156" xlink:href="#DejaVuSans-32"/>
       <use x="159.033203" xlink:href="#DejaVuSans-35"/>
      </g>
     </g>
    </g>
    <g id="ytick_3">
     <g id="line2d_15">
      <path clip-path="url(#paa3c969c17)" d="M 51.111563 188.403819 
L 385.911563 188.403819 
" style="fill:none;stroke:#ffffff;stroke-linecap:round;"/>
     </g>
     <g id="line2d_16"/>
     <g id="text_9">
      <!-- 0.50 -->
      <g style="fill:#262626;" transform="translate(21.845938 192.203038)scale(0.1 -0.1)">
       <use xlink:href="#DejaVuSans-30"/>
       <use x="63.623047" xlink:href="#DejaVuSans-2e"/>
       <use x="95.410156" xlink:href="#DejaVuSans-35"/>
       <use x="159.033203" xlink:href="#DejaVuSans-30"/>
      </g>
     </g>
    </g>
    <g id="ytick_4">
     <g id="line2d_17">
      <path clip-path="url(#paa3c969c17)" d="M 51.111563 162.726666 
L 385.911563 162.726666 
" style="fill:none;stroke:#ffffff;stroke-linecap:round;"/>
     </g>
     <g id="line2d_18"/>
     <g id="text_10">
      <!-- 0.75 -->
      <defs>
       <path d="M 8.203125 72.90625 
L 55.078125 72.90625 
L 55.078125 68.703125 
L 28.609375 0 
L 18.3125 0 
L 43.21875 64.59375 
L 8.203125 64.59375 
z
" id="DejaVuSans-37"/>
      </defs>
      <g style="fill:#262626;" transform="translate(21.845938 166.525885)scale(0.1 -0.1)">
       <use xlink:href="#DejaVuSans-30"/>
       <use x="63.623047" xlink:href="#DejaVuSans-2e"/>
       <use x="95.410156" xlink:href="#DejaVuSans-37"/>
       <use x="159.033203" xlink:href="#DejaVuSans-35"/>
      </g>
     </g>
    </g>
    <g id="ytick_5">
     <g id="line2d_19">
      <path clip-path="url(#paa3c969c17)" d="M 51.111563 137.049513 
L 385.911563 137.049513 
" style="fill:none;stroke:#ffffff;stroke-linecap:round;"/>
     </g>
     <g id="line2d_20"/>
     <g id="text_11">
      <!-- 1.00 -->
      <g style="fill:#262626;" transform="translate(21.845938 140.848732)scale(0.1 -0.1)">
       <use xlink:href="#DejaVuSans-31"/>
       <use x="63.623047" xlink:href="#DejaVuSans-2e"/>
       <use x="95.410156" xlink:href="#DejaVuSans-30"/>
       <use x="159.033203" xlink:href="#DejaVuSans-30"/>
      </g>
     </g>
    </g>
    <g id="ytick_6">
     <g id="line2d_21">
      <path clip-path="url(#paa3c969c17)" d="M 51.111563 111.37236 
L 385.911563 111.37236 
" style="fill:none;stroke:#ffffff;stroke-linecap:round;"/>
     </g>
     <g id="line2d_22"/>
     <g id="text_12">
      <!-- 1.25 -->
      <g style="fill:#262626;" transform="translate(21.845938 115.171579)scale(0.1 -0.1)">
       <use xlink:href="#DejaVuSans-31"/>
       <use x="63.623047" xlink:href="#DejaVuSans-2e"/>
       <use x="95.410156" xlink:href="#DejaVuSans-32"/>
       <use x="159.033203" xlink:href="#DejaVuSans-35"/>
      </g>
     </g>
    </g>
    <g id="ytick_7">
     <g id="line2d_23">
      <path clip-path="url(#paa3c969c17)" d="M 51.111563 85.695207 
L 385.911563 85.695207 
" style="fill:none;stroke:#ffffff;stroke-linecap:round;"/>
     </g>
     <g id="line2d_24"/>
     <g id="text_13">
      <!-- 1.50 -->
      <g style="fill:#262626;" transform="translate(21.845938 89.494426)scale(0.1 -0.1)">
       <use xlink:href="#DejaVuSans-31"/>
       <use x="63.623047" xlink:href="#DejaVuSans-2e"/>
       <use x="95.410156" xlink:href="#DejaVuSans-35"/>
       <use x="159.033203" xlink:href="#DejaVuSans-30"/>
      </g>
     </g>
    </g>
    <g id="ytick_8">
     <g id="line2d_25">
      <path clip-path="url(#paa3c969c17)" d="M 51.111563 60.018054 
L 385.911563 60.018054 
" style="fill:none;stroke:#ffffff;stroke-linecap:round;"/>
     </g>
     <g id="line2d_26"/>
     <g id="text_14">
      <!-- 1.75 -->
      <g style="fill:#262626;" transform="translate(21.845938 63.817273)scale(0.1 -0.1)">
       <use xlink:href="#DejaVuSans-31"/>
       <use x="63.623047" xlink:href="#DejaVuSans-2e"/>
       <use x="95.410156" xlink:href="#DejaVuSans-37"/>
       <use x="159.033203" xlink:href="#DejaVuSans-35"/>
      </g>
     </g>
    </g>
    <g id="ytick_9">
     <g id="line2d_27">
      <path clip-path="url(#paa3c969c17)" d="M 51.111563 34.340901 
L 385.911563 34.340901 
" style="fill:none;stroke:#ffffff;stroke-linecap:round;"/>
     </g>
     <g id="line2d_28"/>
     <g id="text_15">
      <!-- 2.00 -->
      <g style="fill:#262626;" transform="translate(21.845938 38.14012)scale(0.1 -0.1)">
       <use xlink:href="#DejaVuSans-32"/>
       <use x="63.623047" xlink:href="#DejaVuSans-2e"/>
       <use x="95.410156" xlink:href="#DejaVuSans-30"/>
       <use x="159.033203" xlink:href="#DejaVuSans-30"/>
      </g>
     </g>
    </g>
    <g id="text_16">
     <!-- Posterior Probability -->
     <defs>
      <path d="M 48.6875 27.296875 
Q 48.6875 37.203125 44.609375 42.84375 
Q 40.53125 48.484375 33.40625 48.484375 
Q 26.265625 48.484375 22.1875 42.84375 
Q 18.109375 37.203125 18.109375 27.296875 
Q 18.109375 17.390625 22.1875 11.75 
Q 26.265625 6.109375 33.40625 6.109375 
Q 40.53125 6.109375 44.609375 11.75 
Q 48.6875 17.390625 48.6875 27.296875 
z
M 18.109375 46.390625 
Q 20.953125 51.265625 25.265625 53.625 
Q 29.59375 56 35.59375 56 
Q 45.5625 56 51.78125 48.09375 
Q 58.015625 40.1875 58.015625 27.296875 
Q 58.015625 14.40625 51.78125 6.484375 
Q 45.5625 -1.421875 35.59375 -1.421875 
Q 29.59375 -1.421875 25.265625 0.953125 
Q 20.953125 3.328125 18.109375 8.203125 
L 18.109375 0 
L 9.078125 0 
L 9.078125 75.984375 
L 18.109375 75.984375 
z
" id="DejaVuSans-62"/>
      <path d="M 32.171875 -5.078125 
Q 28.375 -14.84375 24.75 -17.8125 
Q 21.140625 -20.796875 15.09375 -20.796875 
L 7.90625 -20.796875 
L 7.90625 -13.28125 
L 13.1875 -13.28125 
Q 16.890625 -13.28125 18.9375 -11.515625 
Q 21 -9.765625 23.484375 -3.21875 
L 25.09375 0.875 
L 2.984375 54.6875 
L 12.5 54.6875 
L 29.59375 11.921875 
L 46.6875 54.6875 
L 56.203125 54.6875 
z
" id="DejaVuSans-79"/>
     </defs>
     <g style="fill:#262626;" transform="translate(15.558281 186.575234)rotate(-90)scale(0.11 -0.11)">
      <use xlink:href="#DejaVuSans-50"/>
      <use x="60.255859" xlink:href="#DejaVuSans-6f"/>
      <use x="121.4375" xlink:href="#DejaVuSans-73"/>
      <use x="173.537109" xlink:href="#DejaVuSans-74"/>
      <use x="212.746094" xlink:href="#DejaVuSans-65"/>
      <use x="274.269531" xlink:href="#DejaVuSans-72"/>
      <use x="315.382812" xlink:href="#DejaVuSans-69"/>
      <use x="343.166016" xlink:href="#DejaVuSans-6f"/>
      <use x="404.347656" xlink:href="#DejaVuSans-72"/>
      <use x="445.460938" xlink:href="#DejaVuSans-20"/>
      <use x="477.248047" xlink:href="#DejaVuSans-50"/>
      <use x="537.535156" xlink:href="#DejaVuSans-72"/>
      <use x="578.617188" xlink:href="#DejaVuSans-6f"/>
      <use x="639.798828" xlink:href="#DejaVuSans-62"/>
      <use x="703.275391" xlink:href="#DejaVuSans-61"/>
      <use x="764.554688" xlink:href="#DejaVuSans-62"/>
      <use x="828.03125" xlink:href="#DejaVuSans-69"/>
      <use x="855.814453" xlink:href="#DejaVuSans-6c"/>
      <use x="883.597656" xlink:href="#DejaVuSans-69"/>
      <use x="911.380859" xlink:href="#DejaVuSans-74"/>
      <use x="950.589844" xlink:href="#DejaVuSans-79"/>
     </g>
    </g>
   </g>
   <g id="line2d_29">
    <path clip-path="url(#paa3c969c17)" d="M 66.329744 239.614322 
L 71.122872 239.716124 
L 80.709129 239.635452 
L 87.898821 239.385065 
L 95.088513 238.909865 
L 102.278205 238.156859 
L 107.071333 237.445504 
L 111.864462 236.530204 
L 119.054154 234.827525 
L 133.433538 231.210855 
L 143.019794 229.141623 
L 150.209487 227.787389 
L 155.002615 227.125458 
L 159.795743 226.806658 
L 164.588871 226.824212 
L 171.778563 226.96984 
L 174.175127 226.887341 
L 176.571691 226.687509 
L 178.968255 226.358939 
L 183.761384 225.338444 
L 188.554512 223.956685 
L 195.744204 221.528058 
L 200.537332 219.715543 
L 205.33046 217.634695 
L 210.123588 215.176177 
L 222.106409 208.372157 
L 224.502973 207.310427 
L 226.899537 206.46185 
L 229.296101 205.831541 
L 231.692665 205.389445 
L 238.882357 204.408813 
L 241.278921 203.841121 
L 243.675485 202.97955 
L 246.072049 201.757101 
L 248.468613 200.149382 
L 250.865177 198.17899 
L 253.261741 195.91166 
L 265.244562 183.647282 
L 270.03769 179.551786 
L 277.227382 173.722543 
L 279.623946 171.551419 
L 282.02051 169.148457 
L 284.417074 166.462561 
L 286.813638 163.455992 
L 289.210202 160.102116 
L 291.606767 156.382465 
L 294.003331 152.28266 
L 296.399895 147.78598 
L 298.796459 142.864187 
L 301.193023 137.467541 
L 303.589587 131.519371 
L 305.986151 124.923106 
L 308.382715 117.589558 
L 310.779279 109.487928 
L 315.572407 91.570284 
L 317.968971 82.602188 
L 320.365535 74.615297 
L 322.762099 68.601714 
L 325.158663 65.604338 
L 327.555227 66.52944 
L 329.951792 71.951001 
L 332.348356 81.958937 
L 334.74492 96.096755 
L 337.141484 113.411248 
L 344.331176 171.031399 
L 346.72774 187.894716 
L 349.124304 202.185287 
L 351.520868 213.645414 
L 353.917432 222.359286 
L 356.313996 228.650197 
L 358.71056 232.9666 
L 361.107124 235.783279 
L 363.503688 237.53217 
L 365.900253 238.565659 
L 368.296817 239.14683 
L 370.693381 239.45743 
L 370.693381 239.45743 
" style="fill:none;stroke:#4c72b0;stroke-linecap:round;stroke-width:1.75;"/>
   </g>
   <g id="line2d_30">
    <path clip-path="url(#paa3c969c17)" d="M 71.315099 239.642626 
L 75.952649 239.723294 
L 82.908974 239.648434 
L 89.865298 239.377303 
L 99.140398 238.760157 
L 106.096723 238.110482 
L 110.734273 237.320102 
L 115.371822 236.116608 
L 122.328147 234.047701 
L 126.965697 233.011464 
L 131.603247 232.382685 
L 157.10977 230.153636 
L 161.74732 230.142236 
L 168.703645 230.186612 
L 171.02242 230.040779 
L 173.341195 229.750445 
L 175.65997 229.295884 
L 177.978745 228.670101 
L 180.297519 227.875372 
L 182.616294 226.921227 
L 187.253844 224.626268 
L 191.891394 222.154111 
L 194.210169 221.050145 
L 196.528944 220.148022 
L 198.847719 219.504025 
L 201.166493 219.130907 
L 203.485268 218.993578 
L 212.760368 219.146742 
L 215.079143 218.968588 
L 217.397918 218.621399 
L 219.716693 218.100597 
L 222.035468 217.410232 
L 224.354242 216.556661 
L 226.673017 215.546749 
L 228.991792 214.389276 
L 233.629342 211.683503 
L 238.266892 208.549547 
L 242.904442 205.043075 
L 247.541991 201.179857 
L 252.179541 197.035933 
L 259.135866 190.470131 
L 270.72974 179.218484 
L 280.00484 171.214074 
L 282.323615 168.717385 
L 284.64239 165.700317 
L 286.961165 162.064414 
L 289.279939 157.783825 
L 291.598714 152.895604 
L 293.917489 147.468608 
L 296.236264 141.561301 
L 298.555039 135.182323 
L 300.873814 128.267539 
L 303.192589 120.684245 
L 305.511364 112.268136 
L 307.830139 102.892192 
L 310.148914 92.558553 
L 317.105238 59.607757 
L 319.424013 50.739918 
L 321.742788 44.854209 
L 324.061563 43.095813 
L 326.380338 46.306823 
L 328.699113 54.844908 
L 331.017888 68.484898 
L 333.336662 86.425167 
L 335.655437 107.395438 
L 340.292987 152.160867 
L 342.611762 172.916928 
L 344.930537 191.036941 
L 347.249312 205.908767 
L 349.568087 217.389356 
L 351.886862 225.724511 
L 354.205637 231.413722 
L 356.524411 235.062741 
L 358.843186 237.26099 
L 361.161961 238.504185 
L 363.480736 239.163755 
L 365.799511 239.49141 
L 365.799511 239.49141 
" style="fill:none;stroke:#55a868;stroke-linecap:round;stroke-width:1.75;"/>
   </g>
   <g id="line2d_31">
    <path clip-path="url(#paa3c969c17)" d="M 81.99276 239.476779 
L 86.457069 239.694554 
L 93.153532 239.640651 
L 97.617841 239.456449 
L 102.08215 239.103722 
L 106.546458 238.548008 
L 111.010767 237.797276 
L 117.70723 236.405201 
L 128.868002 233.946231 
L 133.332311 233.147815 
L 137.79662 232.555455 
L 144.493083 232.00967 
L 153.4217 231.584172 
L 160.118163 231.241921 
L 164.582472 230.678254 
L 169.046781 229.701973 
L 175.743244 227.969905 
L 180.207553 227.152807 
L 184.671861 226.708453 
L 191.368325 226.146511 
L 195.832633 225.476468 
L 200.296942 224.557035 
L 209.22556 222.591236 
L 218.154177 220.913838 
L 220.386332 220.342863 
L 222.618486 219.611029 
L 224.85064 218.688513 
L 227.082795 217.572853 
L 231.547103 214.883679 
L 242.707875 207.639434 
L 251.636493 202.28399 
L 253.868647 200.76303 
L 256.100802 199.011479 
L 258.332956 196.932676 
L 260.56511 194.449034 
L 262.797265 191.527347 
L 265.029419 188.19855 
L 269.493728 180.783738 
L 271.725882 177.048317 
L 273.958037 173.540361 
L 276.190191 170.396582 
L 278.422345 167.679901 
L 280.6545 165.368258 
L 285.118808 161.500804 
L 287.350963 159.598913 
L 289.583117 157.466174 
L 291.815272 154.935914 
L 294.047426 151.8817 
L 296.27958 148.226748 
L 298.511735 143.943866 
L 300.743889 139.044711 
L 302.976043 133.559106 
L 305.208198 127.509152 
L 307.440352 120.887081 
L 309.672507 113.647654 
L 311.904661 105.723564 
L 314.136815 97.066517 
L 316.36897 87.709701 
L 323.065433 58.502215 
L 325.297587 50.684837 
L 327.529742 45.598633 
L 329.761896 44.47221 
L 331.99405 48.353679 
L 334.226205 57.840798 
L 336.458359 72.853928 
L 338.690513 92.539165 
L 340.922668 115.359166 
L 345.386977 162.579906 
L 347.619131 183.3597 
L 349.851285 200.652037 
L 352.08344 214.066521 
L 354.315594 223.785147 
L 356.547748 230.369512 
L 358.779903 234.54508 
L 361.012057 237.025422 
L 363.244212 238.406065 
L 365.476366 239.126036 
L 365.476366 239.126036 
" style="fill:none;stroke:#c44e52;stroke-linecap:round;stroke-width:1.75;"/>
   </g>
   <g id="line2d_32">
    <path clip-path="url(#paa3c969c17)" d="M 71.177361 239.564001 
L 75.881154 239.679789 
L 82.936844 239.530075 
L 87.640637 239.21785 
L 92.34443 238.677633 
L 99.40012 237.519934 
L 106.45581 236.380023 
L 113.5115 235.569217 
L 120.56719 234.80161 
L 125.270983 234.131863 
L 132.326673 232.845088 
L 151.141846 229.017175 
L 155.84564 228.44224 
L 160.549433 228.154845 
L 165.253226 228.140742 
L 172.308916 228.224664 
L 174.660813 228.097844 
L 177.012709 227.799153 
L 179.364606 227.276772 
L 181.716503 226.493024 
L 184.068399 225.43225 
L 186.420296 224.107023 
L 188.772192 222.560969 
L 198.179779 215.868376 
L 200.531676 214.544383 
L 202.883572 213.497359 
L 205.235469 212.742699 
L 207.587365 212.262205 
L 209.939262 212.009896 
L 214.643055 211.921745 
L 219.346849 211.908295 
L 221.698745 211.776896 
L 224.050642 211.507893 
L 226.402539 211.07862 
L 228.754435 210.478322 
L 231.106332 209.704659 
L 233.458228 208.760547 
L 235.810125 207.652453 
L 238.162022 206.3906 
L 242.865815 203.47483 
L 249.921505 198.541018 
L 264.032885 188.381273 
L 268.736678 184.508625 
L 273.440471 180.16627 
L 278.144264 175.402114 
L 282.848058 170.293539 
L 285.199954 167.579762 
L 287.551851 164.685496 
L 289.903748 161.50805 
L 292.255644 157.912733 
L 294.607541 153.750096 
L 296.959438 148.881633 
L 299.311334 143.208232 
L 301.663231 136.694067 
L 304.015127 129.379758 
L 306.367024 121.382282 
L 311.070817 104.120183 
L 315.774611 86.955614 
L 318.126507 79.277304 
L 320.478404 72.817829 
L 322.830301 68.159543 
L 325.182197 65.956153 
L 327.534094 66.858651 
L 329.88599 71.397038 
L 332.237887 79.842088 
L 334.589784 92.087437 
L 336.94168 107.594907 
L 339.293577 125.431279 
L 343.99737 163.215743 
L 346.349267 180.737955 
L 348.701163 196.100914 
L 351.05306 208.81495 
L 353.404957 218.763222 
L 355.756853 226.132238 
L 358.10875 231.304522 
L 360.460647 234.74712 
L 362.812543 236.921128 
L 365.16444 238.224096 
L 367.516337 238.964968 
L 369.868233 239.363539 
L 369.868233 239.363539 
" style="fill:none;stroke:#8172b2;stroke-linecap:round;stroke-width:1.75;"/>
   </g>
   <g id="line2d_33">
    <path clip-path="url(#paa3c969c17)" d="M 73.730654 239.643992 
L 78.326048 239.716104 
L 85.21914 239.597559 
L 89.814535 239.354668 
L 94.409929 238.935708 
L 103.600718 237.761352 
L 112.791507 236.465746 
L 119.684599 235.209122 
L 126.577691 233.974198 
L 131.173085 233.427073 
L 135.76848 233.165096 
L 144.959269 232.887502 
L 147.256966 232.659615 
L 149.554663 232.308989 
L 154.150058 231.255539 
L 165.638544 228.10771 
L 170.233939 227.184549 
L 174.829333 226.480478 
L 179.424728 225.982308 
L 188.615517 225.206238 
L 190.913214 224.84411 
L 193.210911 224.330636 
L 195.508609 223.651747 
L 200.104003 221.897873 
L 204.699398 220.058949 
L 206.997095 219.310968 
L 209.294792 218.754067 
L 211.592489 218.398475 
L 216.187884 218.128792 
L 220.783278 217.96383 
L 223.080976 217.757651 
L 225.378673 217.4243 
L 227.67637 216.951175 
L 229.974067 216.324515 
L 232.271765 215.514948 
L 234.569462 214.472607 
L 236.867159 213.13516 
L 239.164856 211.445916 
L 241.462554 209.374658 
L 243.760251 206.933121 
L 246.057948 204.179857 
L 255.248737 192.270951 
L 257.546435 189.632014 
L 259.844132 187.259757 
L 262.141829 185.146913 
L 266.737224 181.489887 
L 273.630315 176.315106 
L 278.22571 172.533784 
L 282.821104 168.472911 
L 285.118802 166.309692 
L 287.416499 163.970106 
L 289.714196 161.328919 
L 292.011893 158.21696 
L 294.309591 154.427962 
L 296.607288 149.724649 
L 298.904985 143.846064 
L 301.202682 136.524707 
L 303.50038 127.525513 
L 305.798077 116.71453 
L 308.095774 104.152226 
L 310.393471 90.188583 
L 314.988866 61.196005 
L 317.286563 48.486175 
L 319.58426 38.7417 
L 321.881958 33.173578 
L 324.179655 32.672411 
L 326.477352 37.685089 
L 328.77505 48.163909 
L 331.072747 63.577189 
L 333.370444 82.96453 
L 335.668141 105.029325 
L 340.263536 151.158739 
L 342.561233 172.321492 
L 344.85893 190.725668 
L 347.156628 205.784202 
L 349.454325 217.373949 
L 351.752022 225.76086 
L 354.049719 231.464649 
L 356.347417 235.108583 
L 358.645114 237.294615 
L 360.942811 238.525588 
L 363.240508 239.175768 
L 365.538206 239.497083 
L 365.538206 239.497083 
" style="fill:none;stroke:#ccb974;stroke-linecap:round;stroke-width:1.75;"/>
   </g>
   <g id="patch_3">
    <path d="M 51.111563 239.758125 
L 51.111563 22.318125 
" style="fill:none;"/>
   </g>
   <g id="patch_4">
    <path d="M 385.911563 239.758125 
L 385.911563 22.318125 
" style="fill:none;"/>
   </g>
   <g id="patch_5">
    <path d="M 51.111562 239.758125 
L 385.911563 239.758125 
" style="fill:none;"/>
   </g>
   <g id="patch_6">
    <path d="M 51.111562 22.318125 
L 385.911563 22.318125 
" style="fill:none;"/>
   </g>
   <g id="text_17">
    <!-- Multilevel Model Per-Individual Estimates of Rho -->
    <defs>
     <path d="M 9.8125 72.90625 
L 24.515625 72.90625 
L 43.109375 23.296875 
L 61.8125 72.90625 
L 76.515625 72.90625 
L 76.515625 0 
L 66.890625 0 
L 66.890625 64.015625 
L 48.09375 14.015625 
L 38.1875 14.015625 
L 19.390625 64.015625 
L 19.390625 0 
L 9.8125 0 
z
" id="DejaVuSans-4d"/>
     <path d="M 8.5 21.578125 
L 8.5 54.6875 
L 17.484375 54.6875 
L 17.484375 21.921875 
Q 17.484375 14.15625 20.5 10.265625 
Q 23.53125 6.390625 29.59375 6.390625 
Q 36.859375 6.390625 41.078125 11.03125 
Q 45.3125 15.671875 45.3125 23.6875 
L 45.3125 54.6875 
L 54.296875 54.6875 
L 54.296875 0 
L 45.3125 0 
L 45.3125 8.40625 
Q 42.046875 3.421875 37.71875 1 
Q 33.40625 -1.421875 27.6875 -1.421875 
Q 18.265625 -1.421875 13.375 4.4375 
Q 8.5 10.296875 8.5 21.578125 
z
M 31.109375 56 
z
" id="DejaVuSans-75"/>
     <path d="M 2.984375 54.6875 
L 12.5 54.6875 
L 29.59375 8.796875 
L 46.6875 54.6875 
L 56.203125 54.6875 
L 35.6875 0 
L 23.484375 0 
z
" id="DejaVuSans-76"/>
     <path d="M 45.40625 46.390625 
L 45.40625 75.984375 
L 54.390625 75.984375 
L 54.390625 0 
L 45.40625 0 
L 45.40625 8.203125 
Q 42.578125 3.328125 38.25 0.953125 
Q 33.9375 -1.421875 27.875 -1.421875 
Q 17.96875 -1.421875 11.734375 6.484375 
Q 5.515625 14.40625 5.515625 27.296875 
Q 5.515625 40.1875 11.734375 48.09375 
Q 17.96875 56 27.875 56 
Q 33.9375 56 38.25 53.625 
Q 42.578125 51.265625 45.40625 46.390625 
z
M 14.796875 27.296875 
Q 14.796875 17.390625 18.875 11.75 
Q 22.953125 6.109375 30.078125 6.109375 
Q 37.203125 6.109375 41.296875 11.75 
Q 45.40625 17.390625 45.40625 27.296875 
Q 45.40625 37.203125 41.296875 42.84375 
Q 37.203125 48.484375 30.078125 48.484375 
Q 22.953125 48.484375 18.875 42.84375 
Q 14.796875 37.203125 14.796875 27.296875 
z
" id="DejaVuSans-64"/>
     <path d="M 4.890625 31.390625 
L 31.203125 31.390625 
L 31.203125 23.390625 
L 4.890625 23.390625 
z
" id="DejaVuSans-2d"/>
     <path d="M 9.8125 72.90625 
L 19.671875 72.90625 
L 19.671875 0 
L 9.8125 0 
z
" id="DejaVuSans-49"/>
     <path d="M 9.8125 72.90625 
L 55.90625 72.90625 
L 55.90625 64.59375 
L 19.671875 64.59375 
L 19.671875 43.015625 
L 54.390625 43.015625 
L 54.390625 34.71875 
L 19.671875 34.71875 
L 19.671875 8.296875 
L 56.78125 8.296875 
L 56.78125 0 
L 9.8125 0 
z
" id="DejaVuSans-45"/>
     <path d="M 52 44.1875 
Q 55.375 50.25 60.0625 53.125 
Q 64.75 56 71.09375 56 
Q 79.640625 56 84.28125 50.015625 
Q 88.921875 44.046875 88.921875 33.015625 
L 88.921875 0 
L 79.890625 0 
L 79.890625 32.71875 
Q 79.890625 40.578125 77.09375 44.375 
Q 74.3125 48.1875 68.609375 48.1875 
Q 61.625 48.1875 57.5625 43.546875 
Q 53.515625 38.921875 53.515625 30.90625 
L 53.515625 0 
L 44.484375 0 
L 44.484375 32.71875 
Q 44.484375 40.625 41.703125 44.40625 
Q 38.921875 48.1875 33.109375 48.1875 
Q 26.21875 48.1875 22.15625 43.53125 
Q 18.109375 38.875 18.109375 30.90625 
L 18.109375 0 
L 9.078125 0 
L 9.078125 54.6875 
L 18.109375 54.6875 
L 18.109375 46.1875 
Q 21.1875 51.21875 25.484375 53.609375 
Q 29.78125 56 35.6875 56 
Q 41.65625 56 45.828125 52.96875 
Q 50 49.953125 52 44.1875 
z
" id="DejaVuSans-6d"/>
     <path d="M 44.390625 34.1875 
Q 47.5625 33.109375 50.5625 29.59375 
Q 53.5625 26.078125 56.59375 19.921875 
L 66.609375 0 
L 56 0 
L 46.6875 18.703125 
Q 43.0625 26.03125 39.671875 28.421875 
Q 36.28125 30.8125 30.421875 30.8125 
L 19.671875 30.8125 
L 19.671875 0 
L 9.8125 0 
L 9.8125 72.90625 
L 32.078125 72.90625 
Q 44.578125 72.90625 50.734375 67.671875 
Q 56.890625 62.453125 56.890625 51.90625 
Q 56.890625 45.015625 53.6875 40.46875 
Q 50.484375 35.9375 44.390625 34.1875 
z
M 19.671875 64.796875 
L 19.671875 38.921875 
L 32.078125 38.921875 
Q 39.203125 38.921875 42.84375 42.21875 
Q 46.484375 45.515625 46.484375 51.90625 
Q 46.484375 58.296875 42.84375 61.546875 
Q 39.203125 64.796875 32.078125 64.796875 
z
" id="DejaVuSans-52"/>
     <path d="M 54.890625 33.015625 
L 54.890625 0 
L 45.90625 0 
L 45.90625 32.71875 
Q 45.90625 40.484375 42.875 44.328125 
Q 39.84375 48.1875 33.796875 48.1875 
Q 26.515625 48.1875 22.3125 43.546875 
Q 18.109375 38.921875 18.109375 30.90625 
L 18.109375 0 
L 9.078125 0 
L 9.078125 75.984375 
L 18.109375 75.984375 
L 18.109375 46.1875 
Q 21.34375 51.125 25.703125 53.5625 
Q 30.078125 56 35.796875 56 
Q 45.21875 56 50.046875 50.171875 
Q 54.890625 44.34375 54.890625 33.015625 
z
" id="DejaVuSans-68"/>
    </defs>
    <g style="fill:#262626;" transform="translate(73.819688 16.318125)scale(0.12 -0.12)">
     <use xlink:href="#DejaVuSans-4d"/>
     <use x="86.279297" xlink:href="#DejaVuSans-75"/>
     <use x="149.658203" xlink:href="#DejaVuSans-6c"/>
     <use x="177.441406" xlink:href="#DejaVuSans-74"/>
     <use x="216.650391" xlink:href="#DejaVuSans-69"/>
     <use x="244.433594" xlink:href="#DejaVuSans-6c"/>
     <use x="272.216797" xlink:href="#DejaVuSans-65"/>
     <use x="333.740234" xlink:href="#DejaVuSans-76"/>
     <use x="392.919922" xlink:href="#DejaVuSans-65"/>
     <use x="454.443359" xlink:href="#DejaVuSans-6c"/>
     <use x="482.226562" xlink:href="#DejaVuSans-20"/>
     <use x="514.013672" xlink:href="#DejaVuSans-4d"/>
     <use x="600.292969" xlink:href="#DejaVuSans-6f"/>
     <use x="661.474609" xlink:href="#DejaVuSans-64"/>
     <use x="724.951172" xlink:href="#DejaVuSans-65"/>
     <use x="786.474609" xlink:href="#DejaVuSans-6c"/>
     <use x="814.257812" xlink:href="#DejaVuSans-20"/>
     <use x="846.044922" xlink:href="#DejaVuSans-50"/>
     <use x="906.300781" xlink:href="#DejaVuSans-65"/>
     <use x="967.824219" xlink:href="#DejaVuSans-72"/>
     <use x="1008.84375" xlink:href="#DejaVuSans-2d"/>
     <use x="1044.927734" xlink:href="#DejaVuSans-49"/>
     <use x="1074.419922" xlink:href="#DejaVuSans-6e"/>
     <use x="1137.798828" xlink:href="#DejaVuSans-64"/>
     <use x="1201.275391" xlink:href="#DejaVuSans-69"/>
     <use x="1229.058594" xlink:href="#DejaVuSans-76"/>
     <use x="1288.238281" xlink:href="#DejaVuSans-69"/>
     <use x="1316.021484" xlink:href="#DejaVuSans-64"/>
     <use x="1379.498047" xlink:href="#DejaVuSans-75"/>
     <use x="1442.876953" xlink:href="#DejaVuSans-61"/>
     <use x="1504.15625" xlink:href="#DejaVuSans-6c"/>
     <use x="1531.939453" xlink:href="#DejaVuSans-20"/>
     <use x="1563.726562" xlink:href="#DejaVuSans-45"/>
     <use x="1626.910156" xlink:href="#DejaVuSans-73"/>
     <use x="1679.009766" xlink:href="#DejaVuSans-74"/>
     <use x="1718.21875" xlink:href="#DejaVuSans-69"/>
     <use x="1746.001953" xlink:href="#DejaVuSans-6d"/>
     <use x="1843.414062" xlink:href="#DejaVuSans-61"/>
     <use x="1904.693359" xlink:href="#DejaVuSans-74"/>
     <use x="1943.902344" xlink:href="#DejaVuSans-65"/>
     <use x="2005.425781" xlink:href="#DejaVuSans-73"/>
     <use x="2057.525391" xlink:href="#DejaVuSans-20"/>
     <use x="2089.3125" xlink:href="#DejaVuSans-6f"/>
     <use x="2150.494141" xlink:href="#DejaVuSans-66"/>
     <use x="2185.699219" xlink:href="#DejaVuSans-20"/>
     <use x="2217.486328" xlink:href="#DejaVuSans-52"/>
     <use x="2286.96875" xlink:href="#DejaVuSans-68"/>
     <use x="2350.347656" xlink:href="#DejaVuSans-6f"/>
    </g>
   </g>
  </g>
 </g>
 <defs>
  <clipPath id="paa3c969c17">
   <rect height="217.44" width="334.8" x="51.111563" y="22.318125"/>
  </clipPath>
 </defs>
</svg>
