<?xml version="1.0" encoding="utf-8" standalone="no"?>
<!DOCTYPE svg PUBLIC "-//W3C//DTD SVG 1.1//EN"
  "http://www.w3.org/Graphics/SVG/1.1/DTD/svg11.dtd">
<!-- Created with matplotlib (http://matplotlib.org/) -->
<svg version="1.1" viewBox="0 0 399 278" xmlns="http://www.w3.org/2000/svg" xmlns:xlink="http://www.w3.org/1999/xlink">
 <defs>
  <style type="text/css">
*{stroke-linecap:butt;stroke-linejoin:round;}
  </style>
 </defs>
 <g id="figure_1">
  <g id="patch_1">
   <path d="M 0 278.284063 
L 399.048437 278.284063 
L 399.048437 0 
L 0 0 
z
" style="fill:#ffffff;"/>
  </g>
  <g id="axes_1">
   <g id="patch_2">
    <path d="M 35.208438 239.76 
L 370.008438 239.76 
L 370.008438 22.32 
L 35.208438 22.32 
z
" style="fill:#eaeaf2;"/>
   </g>
   <g id="matplotlib.axis_1">
    <g id="xtick_1">
     <g id="line2d_1">
      <path clip-path="url(#p0044c61326)" d="M 58.450003 239.76 
L 58.450003 22.32 
" style="fill:none;stroke:#ffffff;stroke-linecap:round;"/>
     </g>
     <g id="line2d_2"/>
     <g id="text_1">
      <!-- −0.2 -->
      <defs>
       <path d="M 10.59375 35.5 
L 73.1875 35.5 
L 73.1875 27.203125 
L 10.59375 27.203125 
z
" id="DejaVuSans-2212"/>
       <path d="M 31.78125 66.40625 
Q 24.171875 66.40625 20.328125 58.90625 
Q 16.5 51.421875 16.5 36.375 
Q 16.5 21.390625 20.328125 13.890625 
Q 24.171875 6.390625 31.78125 6.390625 
Q 39.453125 6.390625 43.28125 13.890625 
Q 47.125 21.390625 47.125 36.375 
Q 47.125 51.421875 43.28125 58.90625 
Q 39.453125 66.40625 31.78125 66.40625 
z
M 31.78125 74.21875 
Q 44.046875 74.21875 50.515625 64.515625 
Q 56.984375 54.828125 56.984375 36.375 
Q 56.984375 17.96875 50.515625 8.265625 
Q 44.046875 -1.421875 31.78125 -1.421875 
Q 19.53125 -1.421875 13.0625 8.265625 
Q 6.59375 17.96875 6.59375 36.375 
Q 6.59375 54.828125 13.0625 64.515625 
Q 19.53125 74.21875 31.78125 74.21875 
z
" id="DejaVuSans-30"/>
       <path d="M 10.6875 12.40625 
L 21 12.40625 
L 21 0 
L 10.6875 0 
z
" id="DejaVuSans-2e"/>
       <path d="M 19.1875 8.296875 
L 53.609375 8.296875 
L 53.609375 0 
L 7.328125 0 
L 7.328125 8.296875 
Q 12.9375 14.109375 22.625 23.890625 
Q 32.328125 33.6875 34.8125 36.53125 
Q 39.546875 41.84375 41.421875 45.53125 
Q 43.3125 49.21875 43.3125 52.78125 
Q 43.3125 58.59375 39.234375 62.25 
Q 35.15625 65.921875 28.609375 65.921875 
Q 23.96875 65.921875 18.8125 64.3125 
Q 13.671875 62.703125 7.8125 59.421875 
L 7.8125 69.390625 
Q 13.765625 71.78125 18.9375 73 
Q 24.125 74.21875 28.421875 74.21875 
Q 39.75 74.21875 46.484375 68.546875 
Q 53.21875 62.890625 53.21875 53.421875 
Q 53.21875 48.921875 51.53125 44.890625 
Q 49.859375 40.875 45.40625 35.40625 
Q 44.1875 33.984375 37.640625 27.21875 
Q 31.109375 20.453125 19.1875 8.296875 
z
" id="DejaVuSans-32"/>
      </defs>
      <g style="fill:#262626;" transform="translate(46.308597 254.358438)scale(0.1 -0.1)">
       <use xlink:href="#DejaVuSans-2212"/>
       <use x="83.789062" xlink:href="#DejaVuSans-30"/>
       <use x="147.412109" xlink:href="#DejaVuSans-2e"/>
       <use x="179.199219" xlink:href="#DejaVuSans-32"/>
      </g>
     </g>
    </g>
    <g id="xtick_2">
     <g id="line2d_3">
      <path clip-path="url(#p0044c61326)" d="M 111.006226 239.76 
L 111.006226 22.32 
" style="fill:none;stroke:#ffffff;stroke-linecap:round;"/>
     </g>
     <g id="line2d_4"/>
     <g id="text_2">
      <!-- −0.1 -->
      <defs>
       <path d="M 12.40625 8.296875 
L 28.515625 8.296875 
L 28.515625 63.921875 
L 10.984375 60.40625 
L 10.984375 69.390625 
L 28.421875 72.90625 
L 38.28125 72.90625 
L 38.28125 8.296875 
L 54.390625 8.296875 
L 54.390625 0 
L 12.40625 0 
z
" id="DejaVuSans-31"/>
      </defs>
      <g style="fill:#262626;" transform="translate(98.86482 254.358438)scale(0.1 -0.1)">
       <use xlink:href="#DejaVuSans-2212"/>
       <use x="83.789062" xlink:href="#DejaVuSans-30"/>
       <use x="147.412109" xlink:href="#DejaVuSans-2e"/>
       <use x="179.199219" xlink:href="#DejaVuSans-31"/>
      </g>
     </g>
    </g>
    <g id="xtick_3">
     <g id="line2d_5">
      <path clip-path="url(#p0044c61326)" d="M 163.562449 239.76 
L 163.562449 22.32 
" style="fill:none;stroke:#ffffff;stroke-linecap:round;"/>
     </g>
     <g id="line2d_6"/>
     <g id="text_3">
      <!-- 0.0 -->
      <g style="fill:#262626;" transform="translate(155.610886 254.358438)scale(0.1 -0.1)">
       <use xlink:href="#DejaVuSans-30"/>
       <use x="63.623047" xlink:href="#DejaVuSans-2e"/>
       <use x="95.410156" xlink:href="#DejaVuSans-30"/>
      </g>
     </g>
    </g>
    <g id="xtick_4">
     <g id="line2d_7">
      <path clip-path="url(#p0044c61326)" d="M 216.118671 239.76 
L 216.118671 22.32 
" style="fill:none;stroke:#ffffff;stroke-linecap:round;"/>
     </g>
     <g id="line2d_8"/>
     <g id="text_4">
      <!-- 0.1 -->
      <g style="fill:#262626;" transform="translate(208.167109 254.358438)scale(0.1 -0.1)">
       <use xlink:href="#DejaVuSans-30"/>
       <use x="63.623047" xlink:href="#DejaVuSans-2e"/>
       <use x="95.410156" xlink:href="#DejaVuSans-31"/>
      </g>
     </g>
    </g>
    <g id="xtick_5">
     <g id="line2d_9">
      <path clip-path="url(#p0044c61326)" d="M 268.674894 239.76 
L 268.674894 22.32 
" style="fill:none;stroke:#ffffff;stroke-linecap:round;"/>
     </g>
     <g id="line2d_10"/>
     <g id="text_5">
      <!-- 0.2 -->
      <g style="fill:#262626;" transform="translate(260.723331 254.358438)scale(0.1 -0.1)">
       <use xlink:href="#DejaVuSans-30"/>
       <use x="63.623047" xlink:href="#DejaVuSans-2e"/>
       <use x="95.410156" xlink:href="#DejaVuSans-32"/>
      </g>
     </g>
    </g>
    <g id="xtick_6">
     <g id="line2d_11">
      <path clip-path="url(#p0044c61326)" d="M 321.231117 239.76 
L 321.231117 22.32 
" style="fill:none;stroke:#ffffff;stroke-linecap:round;"/>
     </g>
     <g id="line2d_12"/>
     <g id="text_6">
      <!-- 0.3 -->
      <defs>
       <path d="M 40.578125 39.3125 
Q 47.65625 37.796875 51.625 33 
Q 55.609375 28.21875 55.609375 21.1875 
Q 55.609375 10.40625 48.1875 4.484375 
Q 40.765625 -1.421875 27.09375 -1.421875 
Q 22.515625 -1.421875 17.65625 -0.515625 
Q 12.796875 0.390625 7.625 2.203125 
L 7.625 11.71875 
Q 11.71875 9.328125 16.59375 8.109375 
Q 21.484375 6.890625 26.8125 6.890625 
Q 36.078125 6.890625 40.9375 10.546875 
Q 45.796875 14.203125 45.796875 21.1875 
Q 45.796875 27.640625 41.28125 31.265625 
Q 36.765625 34.90625 28.71875 34.90625 
L 20.21875 34.90625 
L 20.21875 43.015625 
L 29.109375 43.015625 
Q 36.375 43.015625 40.234375 45.921875 
Q 44.09375 48.828125 44.09375 54.296875 
Q 44.09375 59.90625 40.109375 62.90625 
Q 36.140625 65.921875 28.71875 65.921875 
Q 24.65625 65.921875 20.015625 65.03125 
Q 15.375 64.15625 9.8125 62.3125 
L 9.8125 71.09375 
Q 15.4375 72.65625 20.34375 73.4375 
Q 25.25 74.21875 29.59375 74.21875 
Q 40.828125 74.21875 47.359375 69.109375 
Q 53.90625 64.015625 53.90625 55.328125 
Q 53.90625 49.265625 50.4375 45.09375 
Q 46.96875 40.921875 40.578125 39.3125 
z
" id="DejaVuSans-33"/>
      </defs>
      <g style="fill:#262626;" transform="translate(313.279554 254.358438)scale(0.1 -0.1)">
       <use xlink:href="#DejaVuSans-30"/>
       <use x="63.623047" xlink:href="#DejaVuSans-2e"/>
       <use x="95.410156" xlink:href="#DejaVuSans-33"/>
      </g>
     </g>
    </g>
    <g id="text_7">
     <!-- Group Mean Pearson Correlation Coefficient -->
     <defs>
      <path d="M 59.515625 10.40625 
L 59.515625 29.984375 
L 43.40625 29.984375 
L 43.40625 38.09375 
L 69.28125 38.09375 
L 69.28125 6.78125 
Q 63.578125 2.734375 56.6875 0.65625 
Q 49.8125 -1.421875 42 -1.421875 
Q 24.90625 -1.421875 15.25 8.5625 
Q 5.609375 18.5625 5.609375 36.375 
Q 5.609375 54.25 15.25 64.234375 
Q 24.90625 74.21875 42 74.21875 
Q 49.125 74.21875 55.546875 72.453125 
Q 61.96875 70.703125 67.390625 67.28125 
L 67.390625 56.78125 
Q 61.921875 61.421875 55.765625 63.765625 
Q 49.609375 66.109375 42.828125 66.109375 
Q 29.4375 66.109375 22.71875 58.640625 
Q 16.015625 51.171875 16.015625 36.375 
Q 16.015625 21.625 22.71875 14.15625 
Q 29.4375 6.6875 42.828125 6.6875 
Q 48.046875 6.6875 52.140625 7.59375 
Q 56.25 8.5 59.515625 10.40625 
z
" id="DejaVuSans-47"/>
      <path d="M 41.109375 46.296875 
Q 39.59375 47.171875 37.8125 47.578125 
Q 36.03125 48 33.890625 48 
Q 26.265625 48 22.1875 43.046875 
Q 18.109375 38.09375 18.109375 28.8125 
L 18.109375 0 
L 9.078125 0 
L 9.078125 54.6875 
L 18.109375 54.6875 
L 18.109375 46.1875 
Q 20.953125 51.171875 25.484375 53.578125 
Q 30.03125 56 36.53125 56 
Q 37.453125 56 38.578125 55.875 
Q 39.703125 55.765625 41.0625 55.515625 
z
" id="DejaVuSans-72"/>
      <path d="M 30.609375 48.390625 
Q 23.390625 48.390625 19.1875 42.75 
Q 14.984375 37.109375 14.984375 27.296875 
Q 14.984375 17.484375 19.15625 11.84375 
Q 23.34375 6.203125 30.609375 6.203125 
Q 37.796875 6.203125 41.984375 11.859375 
Q 46.1875 17.53125 46.1875 27.296875 
Q 46.1875 37.015625 41.984375 42.703125 
Q 37.796875 48.390625 30.609375 48.390625 
z
M 30.609375 56 
Q 42.328125 56 49.015625 48.375 
Q 55.71875 40.765625 55.71875 27.296875 
Q 55.71875 13.875 49.015625 6.21875 
Q 42.328125 -1.421875 30.609375 -1.421875 
Q 18.84375 -1.421875 12.171875 6.21875 
Q 5.515625 13.875 5.515625 27.296875 
Q 5.515625 40.765625 12.171875 48.375 
Q 18.84375 56 30.609375 56 
z
" id="DejaVuSans-6f"/>
      <path d="M 8.5 21.578125 
L 8.5 54.6875 
L 17.484375 54.6875 
L 17.484375 21.921875 
Q 17.484375 14.15625 20.5 10.265625 
Q 23.53125 6.390625 29.59375 6.390625 
Q 36.859375 6.390625 41.078125 11.03125 
Q 45.3125 15.671875 45.3125 23.6875 
L 45.3125 54.6875 
L 54.296875 54.6875 
L 54.296875 0 
L 45.3125 0 
L 45.3125 8.40625 
Q 42.046875 3.421875 37.71875 1 
Q 33.40625 -1.421875 27.6875 -1.421875 
Q 18.265625 -1.421875 13.375 4.4375 
Q 8.5 10.296875 8.5 21.578125 
z
M 31.109375 56 
z
" id="DejaVuSans-75"/>
      <path d="M 18.109375 8.203125 
L 18.109375 -20.796875 
L 9.078125 -20.796875 
L 9.078125 54.6875 
L 18.109375 54.6875 
L 18.109375 46.390625 
Q 20.953125 51.265625 25.265625 53.625 
Q 29.59375 56 35.59375 56 
Q 45.5625 56 51.78125 48.09375 
Q 58.015625 40.1875 58.015625 27.296875 
Q 58.015625 14.40625 51.78125 6.484375 
Q 45.5625 -1.421875 35.59375 -1.421875 
Q 29.59375 -1.421875 25.265625 0.953125 
Q 20.953125 3.328125 18.109375 8.203125 
z
M 48.6875 27.296875 
Q 48.6875 37.203125 44.609375 42.84375 
Q 40.53125 48.484375 33.40625 48.484375 
Q 26.265625 48.484375 22.1875 42.84375 
Q 18.109375 37.203125 18.109375 27.296875 
Q 18.109375 17.390625 22.1875 11.75 
Q 26.265625 6.109375 33.40625 6.109375 
Q 40.53125 6.109375 44.609375 11.75 
Q 48.6875 17.390625 48.6875 27.296875 
z
" id="DejaVuSans-70"/>
      <path id="DejaVuSans-20"/>
      <path d="M 9.8125 72.90625 
L 24.515625 72.90625 
L 43.109375 23.296875 
L 61.8125 72.90625 
L 76.515625 72.90625 
L 76.515625 0 
L 66.890625 0 
L 66.890625 64.015625 
L 48.09375 14.015625 
L 38.1875 14.015625 
L 19.390625 64.015625 
L 19.390625 0 
L 9.8125 0 
z
" id="DejaVuSans-4d"/>
      <path d="M 56.203125 29.59375 
L 56.203125 25.203125 
L 14.890625 25.203125 
Q 15.484375 15.921875 20.484375 11.0625 
Q 25.484375 6.203125 34.421875 6.203125 
Q 39.59375 6.203125 44.453125 7.46875 
Q 49.3125 8.734375 54.109375 11.28125 
L 54.109375 2.78125 
Q 49.265625 0.734375 44.1875 -0.34375 
Q 39.109375 -1.421875 33.890625 -1.421875 
Q 20.796875 -1.421875 13.15625 6.1875 
Q 5.515625 13.8125 5.515625 26.8125 
Q 5.515625 40.234375 12.765625 48.109375 
Q 20.015625 56 32.328125 56 
Q 43.359375 56 49.78125 48.890625 
Q 56.203125 41.796875 56.203125 29.59375 
z
M 47.21875 32.234375 
Q 47.125 39.59375 43.09375 43.984375 
Q 39.0625 48.390625 32.421875 48.390625 
Q 24.90625 48.390625 20.390625 44.140625 
Q 15.875 39.890625 15.1875 32.171875 
z
" id="DejaVuSans-65"/>
      <path d="M 34.28125 27.484375 
Q 23.390625 27.484375 19.1875 25 
Q 14.984375 22.515625 14.984375 16.5 
Q 14.984375 11.71875 18.140625 8.90625 
Q 21.296875 6.109375 26.703125 6.109375 
Q 34.1875 6.109375 38.703125 11.40625 
Q 43.21875 16.703125 43.21875 25.484375 
L 43.21875 27.484375 
z
M 52.203125 31.203125 
L 52.203125 0 
L 43.21875 0 
L 43.21875 8.296875 
Q 40.140625 3.328125 35.546875 0.953125 
Q 30.953125 -1.421875 24.3125 -1.421875 
Q 15.921875 -1.421875 10.953125 3.296875 
Q 6 8.015625 6 15.921875 
Q 6 25.140625 12.171875 29.828125 
Q 18.359375 34.515625 30.609375 34.515625 
L 43.21875 34.515625 
L 43.21875 35.40625 
Q 43.21875 41.609375 39.140625 45 
Q 35.0625 48.390625 27.6875 48.390625 
Q 23 48.390625 18.546875 47.265625 
Q 14.109375 46.140625 10.015625 43.890625 
L 10.015625 52.203125 
Q 14.9375 54.109375 19.578125 55.046875 
Q 24.21875 56 28.609375 56 
Q 40.484375 56 46.34375 49.84375 
Q 52.203125 43.703125 52.203125 31.203125 
z
" id="DejaVuSans-61"/>
      <path d="M 54.890625 33.015625 
L 54.890625 0 
L 45.90625 0 
L 45.90625 32.71875 
Q 45.90625 40.484375 42.875 44.328125 
Q 39.84375 48.1875 33.796875 48.1875 
Q 26.515625 48.1875 22.3125 43.546875 
Q 18.109375 38.921875 18.109375 30.90625 
L 18.109375 0 
L 9.078125 0 
L 9.078125 54.6875 
L 18.109375 54.6875 
L 18.109375 46.1875 
Q 21.34375 51.125 25.703125 53.5625 
Q 30.078125 56 35.796875 56 
Q 45.21875 56 50.046875 50.171875 
Q 54.890625 44.34375 54.890625 33.015625 
z
" id="DejaVuSans-6e"/>
      <path d="M 19.671875 64.796875 
L 19.671875 37.40625 
L 32.078125 37.40625 
Q 38.96875 37.40625 42.71875 40.96875 
Q 46.484375 44.53125 46.484375 51.125 
Q 46.484375 57.671875 42.71875 61.234375 
Q 38.96875 64.796875 32.078125 64.796875 
z
M 9.8125 72.90625 
L 32.078125 72.90625 
Q 44.34375 72.90625 50.609375 67.359375 
Q 56.890625 61.8125 56.890625 51.125 
Q 56.890625 40.328125 50.609375 34.8125 
Q 44.34375 29.296875 32.078125 29.296875 
L 19.671875 29.296875 
L 19.671875 0 
L 9.8125 0 
z
" id="DejaVuSans-50"/>
      <path d="M 44.28125 53.078125 
L 44.28125 44.578125 
Q 40.484375 46.53125 36.375 47.5 
Q 32.28125 48.484375 27.875 48.484375 
Q 21.1875 48.484375 17.84375 46.4375 
Q 14.5 44.390625 14.5 40.28125 
Q 14.5 37.15625 16.890625 35.375 
Q 19.28125 33.59375 26.515625 31.984375 
L 29.59375 31.296875 
Q 39.15625 29.25 43.1875 25.515625 
Q 47.21875 21.78125 47.21875 15.09375 
Q 47.21875 7.46875 41.1875 3.015625 
Q 35.15625 -1.421875 24.609375 -1.421875 
Q 20.21875 -1.421875 15.453125 -0.5625 
Q 10.6875 0.296875 5.421875 2 
L 5.421875 11.28125 
Q 10.40625 8.6875 15.234375 7.390625 
Q 20.0625 6.109375 24.8125 6.109375 
Q 31.15625 6.109375 34.5625 8.28125 
Q 37.984375 10.453125 37.984375 14.40625 
Q 37.984375 18.0625 35.515625 20.015625 
Q 33.0625 21.96875 24.703125 23.78125 
L 21.578125 24.515625 
Q 13.234375 26.265625 9.515625 29.90625 
Q 5.8125 33.546875 5.8125 39.890625 
Q 5.8125 47.609375 11.28125 51.796875 
Q 16.75 56 26.8125 56 
Q 31.78125 56 36.171875 55.265625 
Q 40.578125 54.546875 44.28125 53.078125 
z
" id="DejaVuSans-73"/>
      <path d="M 64.40625 67.28125 
L 64.40625 56.890625 
Q 59.421875 61.53125 53.78125 63.8125 
Q 48.140625 66.109375 41.796875 66.109375 
Q 29.296875 66.109375 22.65625 58.46875 
Q 16.015625 50.828125 16.015625 36.375 
Q 16.015625 21.96875 22.65625 14.328125 
Q 29.296875 6.6875 41.796875 6.6875 
Q 48.140625 6.6875 53.78125 8.984375 
Q 59.421875 11.28125 64.40625 15.921875 
L 64.40625 5.609375 
Q 59.234375 2.09375 53.4375 0.328125 
Q 47.65625 -1.421875 41.21875 -1.421875 
Q 24.65625 -1.421875 15.125 8.703125 
Q 5.609375 18.84375 5.609375 36.375 
Q 5.609375 53.953125 15.125 64.078125 
Q 24.65625 74.21875 41.21875 74.21875 
Q 47.75 74.21875 53.53125 72.484375 
Q 59.328125 70.75 64.40625 67.28125 
z
" id="DejaVuSans-43"/>
      <path d="M 9.421875 75.984375 
L 18.40625 75.984375 
L 18.40625 0 
L 9.421875 0 
z
" id="DejaVuSans-6c"/>
      <path d="M 18.3125 70.21875 
L 18.3125 54.6875 
L 36.8125 54.6875 
L 36.8125 47.703125 
L 18.3125 47.703125 
L 18.3125 18.015625 
Q 18.3125 11.328125 20.140625 9.421875 
Q 21.96875 7.515625 27.59375 7.515625 
L 36.8125 7.515625 
L 36.8125 0 
L 27.59375 0 
Q 17.1875 0 13.234375 3.875 
Q 9.28125 7.765625 9.28125 18.015625 
L 9.28125 47.703125 
L 2.6875 47.703125 
L 2.6875 54.6875 
L 9.28125 54.6875 
L 9.28125 70.21875 
z
" id="DejaVuSans-74"/>
      <path d="M 9.421875 54.6875 
L 18.40625 54.6875 
L 18.40625 0 
L 9.421875 0 
z
M 9.421875 75.984375 
L 18.40625 75.984375 
L 18.40625 64.59375 
L 9.421875 64.59375 
z
" id="DejaVuSans-69"/>
      <path d="M 37.109375 75.984375 
L 37.109375 68.5 
L 28.515625 68.5 
Q 23.6875 68.5 21.796875 66.546875 
Q 19.921875 64.59375 19.921875 59.515625 
L 19.921875 54.6875 
L 34.71875 54.6875 
L 34.71875 47.703125 
L 19.921875 47.703125 
L 19.921875 0 
L 10.890625 0 
L 10.890625 47.703125 
L 2.296875 47.703125 
L 2.296875 54.6875 
L 10.890625 54.6875 
L 10.890625 58.5 
Q 10.890625 67.625 15.140625 71.796875 
Q 19.390625 75.984375 28.609375 75.984375 
z
" id="DejaVuSans-66"/>
      <path d="M 48.78125 52.59375 
L 48.78125 44.1875 
Q 44.96875 46.296875 41.140625 47.34375 
Q 37.3125 48.390625 33.40625 48.390625 
Q 24.65625 48.390625 19.8125 42.84375 
Q 14.984375 37.3125 14.984375 27.296875 
Q 14.984375 17.28125 19.8125 11.734375 
Q 24.65625 6.203125 33.40625 6.203125 
Q 37.3125 6.203125 41.140625 7.25 
Q 44.96875 8.296875 48.78125 10.40625 
L 48.78125 2.09375 
Q 45.015625 0.34375 40.984375 -0.53125 
Q 36.96875 -1.421875 32.421875 -1.421875 
Q 20.0625 -1.421875 12.78125 6.34375 
Q 5.515625 14.109375 5.515625 27.296875 
Q 5.515625 40.671875 12.859375 48.328125 
Q 20.21875 56 33.015625 56 
Q 37.15625 56 41.109375 55.140625 
Q 45.0625 54.296875 48.78125 52.59375 
z
" id="DejaVuSans-63"/>
     </defs>
     <g style="fill:#262626;" transform="translate(81.610156 268.796406)scale(0.11 -0.11)">
      <use xlink:href="#DejaVuSans-47"/>
      <use x="77.490234" xlink:href="#DejaVuSans-72"/>
      <use x="118.572266" xlink:href="#DejaVuSans-6f"/>
      <use x="179.753906" xlink:href="#DejaVuSans-75"/>
      <use x="243.132812" xlink:href="#DejaVuSans-70"/>
      <use x="306.609375" xlink:href="#DejaVuSans-20"/>
      <use x="338.396484" xlink:href="#DejaVuSans-4d"/>
      <use x="424.675781" xlink:href="#DejaVuSans-65"/>
      <use x="486.199219" xlink:href="#DejaVuSans-61"/>
      <use x="547.478516" xlink:href="#DejaVuSans-6e"/>
      <use x="610.857422" xlink:href="#DejaVuSans-20"/>
      <use x="642.644531" xlink:href="#DejaVuSans-50"/>
      <use x="702.900391" xlink:href="#DejaVuSans-65"/>
      <use x="764.423828" xlink:href="#DejaVuSans-61"/>
      <use x="825.703125" xlink:href="#DejaVuSans-72"/>
      <use x="866.816406" xlink:href="#DejaVuSans-73"/>
      <use x="918.916016" xlink:href="#DejaVuSans-6f"/>
      <use x="980.097656" xlink:href="#DejaVuSans-6e"/>
      <use x="1043.476562" xlink:href="#DejaVuSans-20"/>
      <use x="1075.263672" xlink:href="#DejaVuSans-43"/>
      <use x="1145.087891" xlink:href="#DejaVuSans-6f"/>
      <use x="1206.269531" xlink:href="#DejaVuSans-72"/>
      <use x="1247.367188" xlink:href="#DejaVuSans-72"/>
      <use x="1288.449219" xlink:href="#DejaVuSans-65"/>
      <use x="1349.972656" xlink:href="#DejaVuSans-6c"/>
      <use x="1377.755859" xlink:href="#DejaVuSans-61"/>
      <use x="1439.035156" xlink:href="#DejaVuSans-74"/>
      <use x="1478.244141" xlink:href="#DejaVuSans-69"/>
      <use x="1506.027344" xlink:href="#DejaVuSans-6f"/>
      <use x="1567.208984" xlink:href="#DejaVuSans-6e"/>
      <use x="1630.587891" xlink:href="#DejaVuSans-20"/>
      <use x="1662.375" xlink:href="#DejaVuSans-43"/>
      <use x="1732.199219" xlink:href="#DejaVuSans-6f"/>
      <use x="1793.380859" xlink:href="#DejaVuSans-65"/>
      <use x="1854.904297" xlink:href="#DejaVuSans-66"/>
      <use x="1890.109375" xlink:href="#DejaVuSans-66"/>
      <use x="1925.314453" xlink:href="#DejaVuSans-69"/>
      <use x="1953.097656" xlink:href="#DejaVuSans-63"/>
      <use x="2008.078125" xlink:href="#DejaVuSans-69"/>
      <use x="2035.861328" xlink:href="#DejaVuSans-65"/>
      <use x="2097.384766" xlink:href="#DejaVuSans-6e"/>
      <use x="2160.763672" xlink:href="#DejaVuSans-74"/>
     </g>
    </g>
   </g>
   <g id="matplotlib.axis_2">
    <g id="ytick_1">
     <g id="line2d_13">
      <path clip-path="url(#p0044c61326)" d="M 35.208438 239.76 
L 370.008438 239.76 
" style="fill:none;stroke:#ffffff;stroke-linecap:round;"/>
     </g>
     <g id="line2d_14"/>
     <g id="text_8">
      <!-- 0 -->
      <g style="fill:#262626;" transform="translate(21.845938 243.559219)scale(0.1 -0.1)">
       <use xlink:href="#DejaVuSans-30"/>
      </g>
     </g>
    </g>
    <g id="ytick_2">
     <g id="line2d_15">
      <path clip-path="url(#p0044c61326)" d="M 35.208438 209.568292 
L 370.008438 209.568292 
" style="fill:none;stroke:#ffffff;stroke-linecap:round;"/>
     </g>
     <g id="line2d_16"/>
     <g id="text_9">
      <!-- 1 -->
      <g style="fill:#262626;" transform="translate(21.845938 213.367511)scale(0.1 -0.1)">
       <use xlink:href="#DejaVuSans-31"/>
      </g>
     </g>
    </g>
    <g id="ytick_3">
     <g id="line2d_17">
      <path clip-path="url(#p0044c61326)" d="M 35.208438 179.376585 
L 370.008438 179.376585 
" style="fill:none;stroke:#ffffff;stroke-linecap:round;"/>
     </g>
     <g id="line2d_18"/>
     <g id="text_10">
      <!-- 2 -->
      <g style="fill:#262626;" transform="translate(21.845938 183.175804)scale(0.1 -0.1)">
       <use xlink:href="#DejaVuSans-32"/>
      </g>
     </g>
    </g>
    <g id="ytick_4">
     <g id="line2d_19">
      <path clip-path="url(#p0044c61326)" d="M 35.208438 149.184877 
L 370.008438 149.184877 
" style="fill:none;stroke:#ffffff;stroke-linecap:round;"/>
     </g>
     <g id="line2d_20"/>
     <g id="text_11">
      <!-- 3 -->
      <g style="fill:#262626;" transform="translate(21.845938 152.984096)scale(0.1 -0.1)">
       <use xlink:href="#DejaVuSans-33"/>
      </g>
     </g>
    </g>
    <g id="ytick_5">
     <g id="line2d_21">
      <path clip-path="url(#p0044c61326)" d="M 35.208438 118.99317 
L 370.008438 118.99317 
" style="fill:none;stroke:#ffffff;stroke-linecap:round;"/>
     </g>
     <g id="line2d_22"/>
     <g id="text_12">
      <!-- 4 -->
      <defs>
       <path d="M 37.796875 64.3125 
L 12.890625 25.390625 
L 37.796875 25.390625 
z
M 35.203125 72.90625 
L 47.609375 72.90625 
L 47.609375 25.390625 
L 58.015625 25.390625 
L 58.015625 17.1875 
L 47.609375 17.1875 
L 47.609375 0 
L 37.796875 0 
L 37.796875 17.1875 
L 4.890625 17.1875 
L 4.890625 26.703125 
z
" id="DejaVuSans-34"/>
      </defs>
      <g style="fill:#262626;" transform="translate(21.845938 122.792388)scale(0.1 -0.1)">
       <use xlink:href="#DejaVuSans-34"/>
      </g>
     </g>
    </g>
    <g id="ytick_6">
     <g id="line2d_23">
      <path clip-path="url(#p0044c61326)" d="M 35.208438 88.801462 
L 370.008438 88.801462 
" style="fill:none;stroke:#ffffff;stroke-linecap:round;"/>
     </g>
     <g id="line2d_24"/>
     <g id="text_13">
      <!-- 5 -->
      <defs>
       <path d="M 10.796875 72.90625 
L 49.515625 72.90625 
L 49.515625 64.59375 
L 19.828125 64.59375 
L 19.828125 46.734375 
Q 21.96875 47.46875 24.109375 47.828125 
Q 26.265625 48.1875 28.421875 48.1875 
Q 40.625 48.1875 47.75 41.5 
Q 54.890625 34.8125 54.890625 23.390625 
Q 54.890625 11.625 47.5625 5.09375 
Q 40.234375 -1.421875 26.90625 -1.421875 
Q 22.3125 -1.421875 17.546875 -0.640625 
Q 12.796875 0.140625 7.71875 1.703125 
L 7.71875 11.625 
Q 12.109375 9.234375 16.796875 8.0625 
Q 21.484375 6.890625 26.703125 6.890625 
Q 35.15625 6.890625 40.078125 11.328125 
Q 45.015625 15.765625 45.015625 23.390625 
Q 45.015625 31 40.078125 35.4375 
Q 35.15625 39.890625 26.703125 39.890625 
Q 22.75 39.890625 18.8125 39.015625 
Q 14.890625 38.140625 10.796875 36.28125 
z
" id="DejaVuSans-35"/>
      </defs>
      <g style="fill:#262626;" transform="translate(21.845938 92.600681)scale(0.1 -0.1)">
       <use xlink:href="#DejaVuSans-35"/>
      </g>
     </g>
    </g>
    <g id="ytick_7">
     <g id="line2d_25">
      <path clip-path="url(#p0044c61326)" d="M 35.208438 58.609754 
L 370.008438 58.609754 
" style="fill:none;stroke:#ffffff;stroke-linecap:round;"/>
     </g>
     <g id="line2d_26"/>
     <g id="text_14">
      <!-- 6 -->
      <defs>
       <path d="M 33.015625 40.375 
Q 26.375 40.375 22.484375 35.828125 
Q 18.609375 31.296875 18.609375 23.390625 
Q 18.609375 15.53125 22.484375 10.953125 
Q 26.375 6.390625 33.015625 6.390625 
Q 39.65625 6.390625 43.53125 10.953125 
Q 47.40625 15.53125 47.40625 23.390625 
Q 47.40625 31.296875 43.53125 35.828125 
Q 39.65625 40.375 33.015625 40.375 
z
M 52.59375 71.296875 
L 52.59375 62.3125 
Q 48.875 64.0625 45.09375 64.984375 
Q 41.3125 65.921875 37.59375 65.921875 
Q 27.828125 65.921875 22.671875 59.328125 
Q 17.53125 52.734375 16.796875 39.40625 
Q 19.671875 43.65625 24.015625 45.921875 
Q 28.375 48.1875 33.59375 48.1875 
Q 44.578125 48.1875 50.953125 41.515625 
Q 57.328125 34.859375 57.328125 23.390625 
Q 57.328125 12.15625 50.6875 5.359375 
Q 44.046875 -1.421875 33.015625 -1.421875 
Q 20.359375 -1.421875 13.671875 8.265625 
Q 6.984375 17.96875 6.984375 36.375 
Q 6.984375 53.65625 15.1875 63.9375 
Q 23.390625 74.21875 37.203125 74.21875 
Q 40.921875 74.21875 44.703125 73.484375 
Q 48.484375 72.75 52.59375 71.296875 
z
" id="DejaVuSans-36"/>
      </defs>
      <g style="fill:#262626;" transform="translate(21.845938 62.408973)scale(0.1 -0.1)">
       <use xlink:href="#DejaVuSans-36"/>
      </g>
     </g>
    </g>
    <g id="ytick_8">
     <g id="line2d_27">
      <path clip-path="url(#p0044c61326)" d="M 35.208438 28.418047 
L 370.008438 28.418047 
" style="fill:none;stroke:#ffffff;stroke-linecap:round;"/>
     </g>
     <g id="line2d_28"/>
     <g id="text_15">
      <!-- 7 -->
      <defs>
       <path d="M 8.203125 72.90625 
L 55.078125 72.90625 
L 55.078125 68.703125 
L 28.609375 0 
L 18.3125 0 
L 43.21875 64.59375 
L 8.203125 64.59375 
z
" id="DejaVuSans-37"/>
      </defs>
      <g style="fill:#262626;" transform="translate(21.845938 32.217266)scale(0.1 -0.1)">
       <use xlink:href="#DejaVuSans-37"/>
      </g>
     </g>
    </g>
    <g id="text_16">
     <!-- Posterior Probability -->
     <defs>
      <path d="M 48.6875 27.296875 
Q 48.6875 37.203125 44.609375 42.84375 
Q 40.53125 48.484375 33.40625 48.484375 
Q 26.265625 48.484375 22.1875 42.84375 
Q 18.109375 37.203125 18.109375 27.296875 
Q 18.109375 17.390625 22.1875 11.75 
Q 26.265625 6.109375 33.40625 6.109375 
Q 40.53125 6.109375 44.609375 11.75 
Q 48.6875 17.390625 48.6875 27.296875 
z
M 18.109375 46.390625 
Q 20.953125 51.265625 25.265625 53.625 
Q 29.59375 56 35.59375 56 
Q 45.5625 56 51.78125 48.09375 
Q 58.015625 40.1875 58.015625 27.296875 
Q 58.015625 14.40625 51.78125 6.484375 
Q 45.5625 -1.421875 35.59375 -1.421875 
Q 29.59375 -1.421875 25.265625 0.953125 
Q 20.953125 3.328125 18.109375 8.203125 
L 18.109375 0 
L 9.078125 0 
L 9.078125 75.984375 
L 18.109375 75.984375 
z
" id="DejaVuSans-62"/>
      <path d="M 32.171875 -5.078125 
Q 28.375 -14.84375 24.75 -17.8125 
Q 21.140625 -20.796875 15.09375 -20.796875 
L 7.90625 -20.796875 
L 7.90625 -13.28125 
L 13.1875 -13.28125 
Q 16.890625 -13.28125 18.9375 -11.515625 
Q 21 -9.765625 23.484375 -3.21875 
L 25.09375 0.875 
L 2.984375 54.6875 
L 12.5 54.6875 
L 29.59375 11.921875 
L 46.6875 54.6875 
L 56.203125 54.6875 
z
" id="DejaVuSans-79"/>
     </defs>
     <g style="fill:#262626;" transform="translate(15.558281 186.577109)rotate(-90)scale(0.11 -0.11)">
      <use xlink:href="#DejaVuSans-50"/>
      <use x="60.255859" xlink:href="#DejaVuSans-6f"/>
      <use x="121.4375" xlink:href="#DejaVuSans-73"/>
      <use x="173.537109" xlink:href="#DejaVuSans-74"/>
      <use x="212.746094" xlink:href="#DejaVuSans-65"/>
      <use x="274.269531" xlink:href="#DejaVuSans-72"/>
      <use x="315.382812" xlink:href="#DejaVuSans-69"/>
      <use x="343.166016" xlink:href="#DejaVuSans-6f"/>
      <use x="404.347656" xlink:href="#DejaVuSans-72"/>
      <use x="445.460938" xlink:href="#DejaVuSans-20"/>
      <use x="477.248047" xlink:href="#DejaVuSans-50"/>
      <use x="537.535156" xlink:href="#DejaVuSans-72"/>
      <use x="578.617188" xlink:href="#DejaVuSans-6f"/>
      <use x="639.798828" xlink:href="#DejaVuSans-62"/>
      <use x="703.275391" xlink:href="#DejaVuSans-61"/>
      <use x="764.554688" xlink:href="#DejaVuSans-62"/>
      <use x="828.03125" xlink:href="#DejaVuSans-69"/>
      <use x="855.814453" xlink:href="#DejaVuSans-6c"/>
      <use x="883.597656" xlink:href="#DejaVuSans-69"/>
      <use x="911.380859" xlink:href="#DejaVuSans-74"/>
      <use x="950.589844" xlink:href="#DejaVuSans-79"/>
     </g>
    </g>
   </g>
   <g id="patch_3">
    <path clip-path="url(#p0044c61326)" d="M 71.919488 239.76 
L 78.294559 239.76 
L 78.294559 238.764396 
L 71.919488 238.764396 
z
" style="fill:#4c72b0;opacity:0.4;"/>
   </g>
   <g id="patch_4">
    <path clip-path="url(#p0044c61326)" d="M 78.294559 239.76 
L 84.669629 239.76 
L 84.669629 237.768791 
L 78.294559 237.768791 
z
" style="fill:#4c72b0;opacity:0.4;"/>
   </g>
   <g id="patch_5">
    <path clip-path="url(#p0044c61326)" d="M 84.669629 239.76 
L 91.0447 239.76 
L 91.0447 237.768791 
L 84.669629 237.768791 
z
" style="fill:#4c72b0;opacity:0.4;"/>
   </g>
   <g id="patch_6">
    <path clip-path="url(#p0044c61326)" d="M 91.0447 239.76 
L 97.419771 239.76 
L 97.419771 236.773187 
L 91.0447 236.773187 
z
" style="fill:#4c72b0;opacity:0.4;"/>
   </g>
   <g id="patch_7">
    <path clip-path="url(#p0044c61326)" d="M 97.419771 239.76 
L 103.794841 239.76 
L 103.794841 234.781978 
L 97.419771 234.781978 
z
" style="fill:#4c72b0;opacity:0.4;"/>
   </g>
   <g id="patch_8">
    <path clip-path="url(#p0044c61326)" d="M 103.794841 239.76 
L 110.169912 239.76 
L 110.169912 236.773187 
L 103.794841 236.773187 
z
" style="fill:#4c72b0;opacity:0.4;"/>
   </g>
   <g id="patch_9">
    <path clip-path="url(#p0044c61326)" d="M 110.169912 239.76 
L 116.544983 239.76 
L 116.544983 237.768791 
L 110.169912 237.768791 
z
" style="fill:#4c72b0;opacity:0.4;"/>
   </g>
   <g id="patch_10">
    <path clip-path="url(#p0044c61326)" d="M 116.544983 239.76 
L 122.920054 239.76 
L 122.920054 233.786374 
L 116.544983 233.786374 
z
" style="fill:#4c72b0;opacity:0.4;"/>
   </g>
   <g id="patch_11">
    <path clip-path="url(#p0044c61326)" d="M 122.920054 239.76 
L 129.295124 239.76 
L 129.295124 223.83033 
L 122.920054 223.83033 
z
" style="fill:#4c72b0;opacity:0.4;"/>
   </g>
   <g id="patch_12">
    <path clip-path="url(#p0044c61326)" d="M 129.295124 239.76 
L 135.670195 239.76 
L 135.670195 219.847912 
L 129.295124 219.847912 
z
" style="fill:#4c72b0;opacity:0.4;"/>
   </g>
   <g id="patch_13">
    <path clip-path="url(#p0044c61326)" d="M 135.670195 239.76 
L 142.045266 239.76 
L 142.045266 209.891868 
L 135.670195 209.891868 
z
" style="fill:#4c72b0;opacity:0.4;"/>
   </g>
   <g id="patch_14">
    <path clip-path="url(#p0044c61326)" d="M 142.045266 239.76 
L 148.420336 239.76 
L 148.420336 195.953407 
L 142.045266 195.953407 
z
" style="fill:#4c72b0;opacity:0.4;"/>
   </g>
   <g id="patch_15">
    <path clip-path="url(#p0044c61326)" d="M 148.420336 239.76 
L 154.795407 239.76 
L 154.795407 178.032527 
L 148.420336 178.032527 
z
" style="fill:#4c72b0;opacity:0.4;"/>
   </g>
   <g id="patch_16">
    <path clip-path="url(#p0044c61326)" d="M 154.795407 239.76 
L 161.170478 239.76 
L 161.170478 174.05011 
L 154.795407 174.05011 
z
" style="fill:#4c72b0;opacity:0.4;"/>
   </g>
   <g id="patch_17">
    <path clip-path="url(#p0044c61326)" d="M 161.170478 239.76 
L 167.545549 239.76 
L 167.545549 132.234725 
L 161.170478 132.234725 
z
" style="fill:#4c72b0;opacity:0.4;"/>
   </g>
   <g id="patch_18">
    <path clip-path="url(#p0044c61326)" d="M 167.545549 239.76 
L 173.920619 239.76 
L 173.920619 99.37978 
L 167.545549 99.37978 
z
" style="fill:#4c72b0;opacity:0.4;"/>
   </g>
   <g id="patch_19">
    <path clip-path="url(#p0044c61326)" d="M 173.920619 239.76 
L 180.29569 239.76 
L 180.29569 65.529231 
L 173.920619 65.529231 
z
" style="fill:#4c72b0;opacity:0.4;"/>
   </g>
   <g id="patch_20">
    <path clip-path="url(#p0044c61326)" d="M 180.29569 239.76 
L 186.670761 239.76 
L 186.670761 92.410549 
L 180.29569 92.410549 
z
" style="fill:#4c72b0;opacity:0.4;"/>
   </g>
   <g id="patch_21">
    <path clip-path="url(#p0044c61326)" d="M 186.670761 239.76 
L 193.045831 239.76 
L 193.045831 48.603956 
L 186.670761 48.603956 
z
" style="fill:#4c72b0;opacity:0.4;"/>
   </g>
   <g id="patch_22">
    <path clip-path="url(#p0044c61326)" d="M 193.045831 239.76 
L 199.420902 239.76 
L 199.420902 32.674286 
L 193.045831 32.674286 
z
" style="fill:#4c72b0;opacity:0.4;"/>
   </g>
   <g id="patch_23">
    <path clip-path="url(#p0044c61326)" d="M 199.420902 239.76 
L 205.795973 239.76 
L 205.795973 56.568791 
L 199.420902 56.568791 
z
" style="fill:#4c72b0;opacity:0.4;"/>
   </g>
   <g id="patch_24">
    <path clip-path="url(#p0044c61326)" d="M 205.795973 239.76 
L 212.171044 239.76 
L 212.171044 42.63033 
L 205.795973 42.63033 
z
" style="fill:#4c72b0;opacity:0.4;"/>
   </g>
   <g id="patch_25">
    <path clip-path="url(#p0044c61326)" d="M 212.171044 239.76 
L 218.546114 239.76 
L 218.546114 64.533626 
L 212.171044 64.533626 
z
" style="fill:#4c72b0;opacity:0.4;"/>
   </g>
   <g id="patch_26">
    <path clip-path="url(#p0044c61326)" d="M 218.546114 239.76 
L 224.921185 239.76 
L 224.921185 83.45011 
L 218.546114 83.45011 
z
" style="fill:#4c72b0;opacity:0.4;"/>
   </g>
   <g id="patch_27">
    <path clip-path="url(#p0044c61326)" d="M 224.921185 239.76 
L 231.296256 239.76 
L 231.296256 74.48967 
L 224.921185 74.48967 
z
" style="fill:#4c72b0;opacity:0.4;"/>
   </g>
   <g id="patch_28">
    <path clip-path="url(#p0044c61326)" d="M 231.296256 239.76 
L 237.671326 239.76 
L 237.671326 148.164396 
L 231.296256 148.164396 
z
" style="fill:#4c72b0;opacity:0.4;"/>
   </g>
   <g id="patch_29">
    <path clip-path="url(#p0044c61326)" d="M 237.671326 239.76 
L 244.046397 239.76 
L 244.046397 148.164396 
L 237.671326 148.164396 
z
" style="fill:#4c72b0;opacity:0.4;"/>
   </g>
   <g id="patch_30">
    <path clip-path="url(#p0044c61326)" d="M 244.046397 239.76 
L 250.421468 239.76 
L 250.421468 180.023736 
L 244.046397 180.023736 
z
" style="fill:#4c72b0;opacity:0.4;"/>
   </g>
   <g id="patch_31">
    <path clip-path="url(#p0044c61326)" d="M 250.421468 239.76 
L 256.796539 239.76 
L 256.796539 191.970989 
L 250.421468 191.970989 
z
" style="fill:#4c72b0;opacity:0.4;"/>
   </g>
   <g id="patch_32">
    <path clip-path="url(#p0044c61326)" d="M 256.796539 239.76 
L 263.171609 239.76 
L 263.171609 203.918242 
L 256.796539 203.918242 
z
" style="fill:#4c72b0;opacity:0.4;"/>
   </g>
   <g id="patch_33">
    <path clip-path="url(#p0044c61326)" d="M 263.171609 239.76 
L 269.54668 239.76 
L 269.54668 221.839121 
L 263.171609 221.839121 
z
" style="fill:#4c72b0;opacity:0.4;"/>
   </g>
   <g id="patch_34">
    <path clip-path="url(#p0044c61326)" d="M 269.54668 239.76 
L 275.921751 239.76 
L 275.921751 230.79956 
L 269.54668 230.79956 
z
" style="fill:#4c72b0;opacity:0.4;"/>
   </g>
   <g id="patch_35">
    <path clip-path="url(#p0044c61326)" d="M 275.921751 239.76 
L 282.296821 239.76 
L 282.296821 230.79956 
L 275.921751 230.79956 
z
" style="fill:#4c72b0;opacity:0.4;"/>
   </g>
   <g id="patch_36">
    <path clip-path="url(#p0044c61326)" d="M 282.296821 239.76 
L 288.671892 239.76 
L 288.671892 230.79956 
L 282.296821 230.79956 
z
" style="fill:#4c72b0;opacity:0.4;"/>
   </g>
   <g id="patch_37">
    <path clip-path="url(#p0044c61326)" d="M 288.671892 239.76 
L 295.046963 239.76 
L 295.046963 233.786374 
L 288.671892 233.786374 
z
" style="fill:#4c72b0;opacity:0.4;"/>
   </g>
   <g id="patch_38">
    <path clip-path="url(#p0044c61326)" d="M 295.046963 239.76 
L 301.422034 239.76 
L 301.422034 238.764396 
L 295.046963 238.764396 
z
" style="fill:#4c72b0;opacity:0.4;"/>
   </g>
   <g id="patch_39">
    <path clip-path="url(#p0044c61326)" d="M 301.422034 239.76 
L 307.797104 239.76 
L 307.797104 237.768791 
L 301.422034 237.768791 
z
" style="fill:#4c72b0;opacity:0.4;"/>
   </g>
   <g id="patch_40">
    <path clip-path="url(#p0044c61326)" d="M 307.797104 239.76 
L 314.172175 239.76 
L 314.172175 239.76 
L 307.797104 239.76 
z
" style="fill:#4c72b0;opacity:0.4;"/>
   </g>
   <g id="patch_41">
    <path clip-path="url(#p0044c61326)" d="M 314.172175 239.76 
L 320.547246 239.76 
L 320.547246 237.768791 
L 314.172175 237.768791 
z
" style="fill:#4c72b0;opacity:0.4;"/>
   </g>
   <g id="patch_42">
    <path clip-path="url(#p0044c61326)" d="M 320.547246 239.76 
L 326.922316 239.76 
L 326.922316 239.76 
L 320.547246 239.76 
z
" style="fill:#4c72b0;opacity:0.4;"/>
   </g>
   <g id="patch_43">
    <path clip-path="url(#p0044c61326)" d="M 326.922316 239.76 
L 333.297387 239.76 
L 333.297387 238.764396 
L 326.922316 238.764396 
z
" style="fill:#4c72b0;opacity:0.4;"/>
   </g>
   <g id="line2d_29">
    <path clip-path="url(#p0044c61326)" d="M 50.426619 239.754558 
L 60.012876 239.660223 
L 67.202568 239.357432 
L 76.788824 238.678567 
L 83.978516 237.995253 
L 98.357901 236.346147 
L 103.151029 236.301942 
L 107.944157 236.219217 
L 110.340721 235.921381 
L 112.737285 235.33223 
L 115.133849 234.385547 
L 117.530413 233.03717 
L 119.926977 231.270539 
L 122.323541 229.106394 
L 124.720105 226.605434 
L 127.116669 223.849854 
L 129.513233 220.903419 
L 131.909798 217.771864 
L 134.306362 214.394714 
L 136.702926 210.68264 
L 139.09949 206.581171 
L 141.496054 202.117433 
L 146.289182 192.496089 
L 148.685746 187.42275 
L 151.08231 181.979023 
L 153.478874 175.815421 
L 155.875438 168.549113 
L 158.272002 159.937479 
L 160.668566 150.011278 
L 165.461694 127.78641 
L 167.858259 116.729409 
L 170.254823 106.572261 
L 172.651387 97.773179 
L 175.047951 90.481875 
L 177.444515 84.478807 
L 187.030771 63.317244 
L 189.427335 57.813503 
L 191.823899 52.936551 
L 194.220463 49.213148 
L 196.617027 46.93793 
L 199.013591 46.100803 
L 201.410155 46.463712 
L 203.80672 47.733516 
L 206.203284 49.725625 
L 208.599848 52.420237 
L 210.996412 55.887468 
L 213.392976 60.152789 
L 215.78954 65.118569 
L 218.186104 70.613757 
L 220.582668 76.540396 
L 222.979232 82.998205 
L 225.375796 90.267741 
L 227.77236 98.631547 
L 230.168924 108.143789 
L 239.755181 149.354296 
L 242.151745 158.282407 
L 244.548309 166.420379 
L 246.944873 173.862093 
L 249.341437 180.698526 
L 251.738001 187.012328 
L 254.134565 192.896284 
L 258.927693 203.750302 
L 261.324257 208.800614 
L 263.720821 213.523231 
L 266.117385 217.778799 
L 268.513949 221.420882 
L 270.910513 224.353605 
L 273.307077 226.570155 
L 275.703642 228.161454 
L 278.100206 229.295444 
L 287.686462 232.818209 
L 294.876154 235.878328 
L 297.272718 236.697814 
L 299.669282 237.341913 
L 302.065846 237.821868 
L 306.858974 238.429846 
L 311.652102 238.741045 
L 321.238359 238.921251 
L 338.014307 239.446812 
L 347.600563 239.711323 
L 354.790256 239.754636 
L 354.790256 239.754636 
" style="fill:none;stroke:#4c72b0;stroke-linecap:round;stroke-width:1.75;"/>
   </g>
   <g id="patch_44">
    <path d="M 35.208438 239.76 
L 35.208438 22.32 
" style="fill:none;"/>
   </g>
   <g id="patch_45">
    <path d="M 370.008438 239.76 
L 370.008438 22.32 
" style="fill:none;"/>
   </g>
   <g id="patch_46">
    <path d="M 35.208438 239.76 
L 370.008438 239.76 
" style="fill:none;"/>
   </g>
   <g id="patch_47">
    <path d="M 35.208438 22.32 
L 370.008438 22.32 
" style="fill:none;"/>
   </g>
   <g id="text_17">
    <!-- Robust Estimate of $\mu_\rho$ across the entire state of Massachusetts -->
    <defs>
     <path d="M 44.390625 34.1875 
Q 47.5625 33.109375 50.5625 29.59375 
Q 53.5625 26.078125 56.59375 19.921875 
L 66.609375 0 
L 56 0 
L 46.6875 18.703125 
Q 43.0625 26.03125 39.671875 28.421875 
Q 36.28125 30.8125 30.421875 30.8125 
L 19.671875 30.8125 
L 19.671875 0 
L 9.8125 0 
L 9.8125 72.90625 
L 32.078125 72.90625 
Q 44.578125 72.90625 50.734375 67.671875 
Q 56.890625 62.453125 56.890625 51.90625 
Q 56.890625 45.015625 53.6875 40.46875 
Q 50.484375 35.9375 44.390625 34.1875 
z
M 19.671875 64.796875 
L 19.671875 38.921875 
L 32.078125 38.921875 
Q 39.203125 38.921875 42.84375 42.21875 
Q 46.484375 45.515625 46.484375 51.90625 
Q 46.484375 58.296875 42.84375 61.546875 
Q 39.203125 64.796875 32.078125 64.796875 
z
" id="DejaVuSans-52"/>
     <path d="M 9.8125 72.90625 
L 55.90625 72.90625 
L 55.90625 64.59375 
L 19.671875 64.59375 
L 19.671875 43.015625 
L 54.390625 43.015625 
L 54.390625 34.71875 
L 19.671875 34.71875 
L 19.671875 8.296875 
L 56.78125 8.296875 
L 56.78125 0 
L 9.8125 0 
z
" id="DejaVuSans-45"/>
     <path d="M 52 44.1875 
Q 55.375 50.25 60.0625 53.125 
Q 64.75 56 71.09375 56 
Q 79.640625 56 84.28125 50.015625 
Q 88.921875 44.046875 88.921875 33.015625 
L 88.921875 0 
L 79.890625 0 
L 79.890625 32.71875 
Q 79.890625 40.578125 77.09375 44.375 
Q 74.3125 48.1875 68.609375 48.1875 
Q 61.625 48.1875 57.5625 43.546875 
Q 53.515625 38.921875 53.515625 30.90625 
L 53.515625 0 
L 44.484375 0 
L 44.484375 32.71875 
Q 44.484375 40.625 41.703125 44.40625 
Q 38.921875 48.1875 33.109375 48.1875 
Q 26.21875 48.1875 22.15625 43.53125 
Q 18.109375 38.875 18.109375 30.90625 
L 18.109375 0 
L 9.078125 0 
L 9.078125 54.6875 
L 18.109375 54.6875 
L 18.109375 46.1875 
Q 21.1875 51.21875 25.484375 53.609375 
Q 29.78125 56 35.6875 56 
Q 41.65625 56 45.828125 52.96875 
Q 50 49.953125 52 44.1875 
z
" id="DejaVuSans-6d"/>
     <path d="M -1.3125 -20.796875 
L 13.375 54.6875 
L 22.40625 54.6875 
L 15.765625 20.65625 
Q 15.578125 19.625 15.421875 18.359375 
Q 15.28125 17.09375 15.28125 15.828125 
Q 15.28125 11.28125 18.140625 8.828125 
Q 21 6.390625 26.3125 6.390625 
Q 33.546875 6.390625 37.984375 10.484375 
Q 42.4375 14.59375 44 22.796875 
L 50.203125 54.6875 
L 59.1875 54.6875 
L 51.03125 12.640625 
Q 50.828125 11.71875 50.75 11.03125 
Q 50.6875 10.359375 50.6875 9.8125 
Q 50.6875 8.296875 51.296875 7.59375 
Q 51.90625 6.890625 53.21875 6.890625 
Q 53.71875 6.890625 54.5625 7.125 
Q 55.421875 7.375 56.984375 8.015625 
L 55.609375 0.78125 
Q 53.46875 -0.296875 51.515625 -0.859375 
Q 49.5625 -1.421875 47.703125 -1.421875 
Q 44.484375 -1.421875 42.65625 0.625 
Q 40.828125 2.6875 40.828125 6.296875 
Q 38.09375 2.390625 34.296875 0.484375 
Q 30.515625 -1.421875 25.390625 -1.421875 
Q 20.84375 -1.421875 17.453125 0.671875 
Q 14.0625 2.78125 12.984375 6.203125 
L 7.71875 -20.796875 
z
" id="DejaVuSans-Oblique-3bc"/>
     <path d="M 18.796875 44.921875 
Q 22.703125 49.90625 30.953125 54.296875 
Q 34.1875 56 43.0625 56 
Q 53.03125 56 57.71875 48.09375 
Q 62.40625 40.1875 59.90625 27.296875 
Q 57.375 14.40625 49.609375 6.484375 
Q 41.84375 -1.421875 31.890625 -1.421875 
Q 25.875 -1.421875 22.015625 0.984375 
Q 18.171875 3.328125 16.3125 8.203125 
L 10.640625 -20.796875 
L 1.609375 -20.796875 
L 10.890625 26.8125 
Q 13.09375 38.09375 18.796875 44.921875 
z
M 50.59375 27.296875 
Q 52.484375 37.203125 49.515625 42.875 
Q 46.53125 48.484375 39.40625 48.484375 
Q 32.28125 48.484375 27.09375 42.875 
Q 21.921875 37.203125 20.015625 27.296875 
Q 18.0625 17.390625 21.046875 11.71875 
Q 24.03125 6.109375 31.15625 6.109375 
Q 38.28125 6.109375 43.453125 11.71875 
Q 48.640625 17.390625 50.59375 27.296875 
z
" id="DejaVuSans-Oblique-3c1"/>
     <path d="M 54.890625 33.015625 
L 54.890625 0 
L 45.90625 0 
L 45.90625 32.71875 
Q 45.90625 40.484375 42.875 44.328125 
Q 39.84375 48.1875 33.796875 48.1875 
Q 26.515625 48.1875 22.3125 43.546875 
Q 18.109375 38.921875 18.109375 30.90625 
L 18.109375 0 
L 9.078125 0 
L 9.078125 75.984375 
L 18.109375 75.984375 
L 18.109375 46.1875 
Q 21.34375 51.125 25.703125 53.5625 
Q 30.078125 56 35.796875 56 
Q 45.21875 56 50.046875 50.171875 
Q 54.890625 44.34375 54.890625 33.015625 
z
" id="DejaVuSans-68"/>
    </defs>
    <g style="fill:#262626;" transform="translate(13.368438 16.32)scale(0.12 -0.12)">
     <use transform="translate(0 0.015625)" xlink:href="#DejaVuSans-52"/>
     <use transform="translate(69.482422 0.015625)" xlink:href="#DejaVuSans-6f"/>
     <use transform="translate(130.664062 0.015625)" xlink:href="#DejaVuSans-62"/>
     <use transform="translate(194.140625 0.015625)" xlink:href="#DejaVuSans-75"/>
     <use transform="translate(257.519531 0.015625)" xlink:href="#DejaVuSans-73"/>
     <use transform="translate(309.619141 0.015625)" xlink:href="#DejaVuSans-74"/>
     <use transform="translate(348.828125 0.015625)" xlink:href="#DejaVuSans-20"/>
     <use transform="translate(380.615234 0.015625)" xlink:href="#DejaVuSans-45"/>
     <use transform="translate(443.798828 0.015625)" xlink:href="#DejaVuSans-73"/>
     <use transform="translate(495.898438 0.015625)" xlink:href="#DejaVuSans-74"/>
     <use transform="translate(535.107422 0.015625)" xlink:href="#DejaVuSans-69"/>
     <use transform="translate(562.890625 0.015625)" xlink:href="#DejaVuSans-6d"/>
     <use transform="translate(660.302734 0.015625)" xlink:href="#DejaVuSans-61"/>
     <use transform="translate(721.582031 0.015625)" xlink:href="#DejaVuSans-74"/>
     <use transform="translate(760.791016 0.015625)" xlink:href="#DejaVuSans-65"/>
     <use transform="translate(822.314453 0.015625)" xlink:href="#DejaVuSans-20"/>
     <use transform="translate(854.101562 0.015625)" xlink:href="#DejaVuSans-6f"/>
     <use transform="translate(915.283203 0.015625)" xlink:href="#DejaVuSans-66"/>
     <use transform="translate(950.488281 0.015625)" xlink:href="#DejaVuSans-20"/>
     <use transform="translate(982.275391 0.015625)" xlink:href="#DejaVuSans-Oblique-3bc"/>
     <use transform="translate(1045.898438 -16.390625)scale(0.7)" xlink:href="#DejaVuSans-Oblique-3c1"/>
     <use transform="translate(1093.066406 0.015625)" xlink:href="#DejaVuSans-20"/>
     <use transform="translate(1124.853516 0.015625)" xlink:href="#DejaVuSans-61"/>
     <use transform="translate(1186.132812 0.015625)" xlink:href="#DejaVuSans-63"/>
     <use transform="translate(1241.113281 0.015625)" xlink:href="#DejaVuSans-72"/>
     <use transform="translate(1282.226562 0.015625)" xlink:href="#DejaVuSans-6f"/>
     <use transform="translate(1343.408203 0.015625)" xlink:href="#DejaVuSans-73"/>
     <use transform="translate(1395.507812 0.015625)" xlink:href="#DejaVuSans-73"/>
     <use transform="translate(1447.607422 0.015625)" xlink:href="#DejaVuSans-20"/>
     <use transform="translate(1479.394531 0.015625)" xlink:href="#DejaVuSans-74"/>
     <use transform="translate(1518.603516 0.015625)" xlink:href="#DejaVuSans-68"/>
     <use transform="translate(1581.982422 0.015625)" xlink:href="#DejaVuSans-65"/>
     <use transform="translate(1643.505859 0.015625)" xlink:href="#DejaVuSans-20"/>
     <use transform="translate(1675.292969 0.015625)" xlink:href="#DejaVuSans-65"/>
     <use transform="translate(1736.816406 0.015625)" xlink:href="#DejaVuSans-6e"/>
     <use transform="translate(1800.195312 0.015625)" xlink:href="#DejaVuSans-74"/>
     <use transform="translate(1839.404297 0.015625)" xlink:href="#DejaVuSans-69"/>
     <use transform="translate(1867.1875 0.015625)" xlink:href="#DejaVuSans-72"/>
     <use transform="translate(1908.300781 0.015625)" xlink:href="#DejaVuSans-65"/>
     <use transform="translate(1969.824219 0.015625)" xlink:href="#DejaVuSans-20"/>
     <use transform="translate(2001.611328 0.015625)" xlink:href="#DejaVuSans-73"/>
     <use transform="translate(2053.710938 0.015625)" xlink:href="#DejaVuSans-74"/>
     <use transform="translate(2092.919922 0.015625)" xlink:href="#DejaVuSans-61"/>
     <use transform="translate(2154.199219 0.015625)" xlink:href="#DejaVuSans-74"/>
     <use transform="translate(2193.408203 0.015625)" xlink:href="#DejaVuSans-65"/>
     <use transform="translate(2254.931641 0.015625)" xlink:href="#DejaVuSans-20"/>
     <use transform="translate(2286.71875 0.015625)" xlink:href="#DejaVuSans-6f"/>
     <use transform="translate(2347.900391 0.015625)" xlink:href="#DejaVuSans-66"/>
     <use transform="translate(2383.105469 0.015625)" xlink:href="#DejaVuSans-20"/>
     <use transform="translate(2414.892578 0.015625)" xlink:href="#DejaVuSans-4d"/>
     <use transform="translate(2501.171875 0.015625)" xlink:href="#DejaVuSans-61"/>
     <use transform="translate(2562.451172 0.015625)" xlink:href="#DejaVuSans-73"/>
     <use transform="translate(2614.550781 0.015625)" xlink:href="#DejaVuSans-73"/>
     <use transform="translate(2666.650391 0.015625)" xlink:href="#DejaVuSans-61"/>
     <use transform="translate(2727.929688 0.015625)" xlink:href="#DejaVuSans-63"/>
     <use transform="translate(2782.910156 0.015625)" xlink:href="#DejaVuSans-68"/>
     <use transform="translate(2846.289062 0.015625)" xlink:href="#DejaVuSans-75"/>
     <use transform="translate(2909.667969 0.015625)" xlink:href="#DejaVuSans-73"/>
     <use transform="translate(2961.767578 0.015625)" xlink:href="#DejaVuSans-65"/>
     <use transform="translate(3023.291016 0.015625)" xlink:href="#DejaVuSans-74"/>
     <use transform="translate(3062.5 0.015625)" xlink:href="#DejaVuSans-74"/>
     <use transform="translate(3101.708984 0.015625)" xlink:href="#DejaVuSans-73"/>
    </g>
   </g>
  </g>
 </g>
 <defs>
  <clipPath id="p0044c61326">
   <rect height="217.44" width="334.8" x="35.208438" y="22.32"/>
  </clipPath>
 </defs>
</svg>
