<?xml version="1.0" encoding="utf-8" standalone="no"?>
<!DOCTYPE svg PUBLIC "-//W3C//DTD SVG 1.1//EN"
  "http://www.w3.org/Graphics/SVG/1.1/DTD/svg11.dtd">
<!-- Created with matplotlib (http://matplotlib.org/) -->
<svg height="278pt" version="1.1" viewBox="0 0 386 278" width="386pt" xmlns="http://www.w3.org/2000/svg" xmlns:xlink="http://www.w3.org/1999/xlink">
 <defs>
  <style type="text/css">
*{stroke-linecap:butt;stroke-linejoin:round;}
  </style>
 </defs>
 <g id="figure_1">
  <g id="patch_1">
   <path d="M 0 278.282188 
L 386.749062 278.282188 
L 386.749062 0 
L 0 0 
z
" style="fill:#ffffff;"/>
  </g>
  <g id="axes_1">
   <g id="patch_2">
    <path d="M 44.749063 239.758125 
L 379.549062 239.758125 
L 379.549062 22.318125 
L 44.749063 22.318125 
z
" style="fill:#eaeaf2;"/>
   </g>
   <g id="matplotlib.axis_1">
    <g id="xtick_1">
     <g id="line2d_1">
      <path clip-path="url(#p55a5c15d4a)" d="M 93.845354 239.758125 
L 93.845354 22.318125 
" style="fill:none;stroke:#ffffff;stroke-linecap:round;"/>
     </g>
     <g id="line2d_2"/>
     <g id="text_1">
      <!-- −1.0 -->
      <defs>
       <path d="M 10.59375 35.5 
L 73.1875 35.5 
L 73.1875 27.203125 
L 10.59375 27.203125 
z
" id="DejaVuSans-2212"/>
       <path d="M 12.40625 8.296875 
L 28.515625 8.296875 
L 28.515625 63.921875 
L 10.984375 60.40625 
L 10.984375 69.390625 
L 28.421875 72.90625 
L 38.28125 72.90625 
L 38.28125 8.296875 
L 54.390625 8.296875 
L 54.390625 0 
L 12.40625 0 
z
" id="DejaVuSans-31"/>
       <path d="M 10.6875 12.40625 
L 21 12.40625 
L 21 0 
L 10.6875 0 
z
" id="DejaVuSans-2e"/>
       <path d="M 31.78125 66.40625 
Q 24.171875 66.40625 20.328125 58.90625 
Q 16.5 51.421875 16.5 36.375 
Q 16.5 21.390625 20.328125 13.890625 
Q 24.171875 6.390625 31.78125 6.390625 
Q 39.453125 6.390625 43.28125 13.890625 
Q 47.125 21.390625 47.125 36.375 
Q 47.125 51.421875 43.28125 58.90625 
Q 39.453125 66.40625 31.78125 66.40625 
z
M 31.78125 74.21875 
Q 44.046875 74.21875 50.515625 64.515625 
Q 56.984375 54.828125 56.984375 36.375 
Q 56.984375 17.96875 50.515625 8.265625 
Q 44.046875 -1.421875 31.78125 -1.421875 
Q 19.53125 -1.421875 13.0625 8.265625 
Q 6.59375 17.96875 6.59375 36.375 
Q 6.59375 54.828125 13.0625 64.515625 
Q 19.53125 74.21875 31.78125 74.21875 
z
" id="DejaVuSans-30"/>
      </defs>
      <g style="fill:#262626;" transform="translate(81.703948 254.356563)scale(0.1 -0.1)">
       <use xlink:href="#DejaVuSans-2212"/>
       <use x="83.789062" xlink:href="#DejaVuSans-31"/>
       <use x="147.412109" xlink:href="#DejaVuSans-2e"/>
       <use x="179.199219" xlink:href="#DejaVuSans-30"/>
      </g>
     </g>
    </g>
    <g id="xtick_2">
     <g id="line2d_3">
      <path clip-path="url(#p55a5c15d4a)" d="M 154.197749 239.758125 
L 154.197749 22.318125 
" style="fill:none;stroke:#ffffff;stroke-linecap:round;"/>
     </g>
     <g id="line2d_4"/>
     <g id="text_2">
      <!-- −0.5 -->
      <defs>
       <path d="M 10.796875 72.90625 
L 49.515625 72.90625 
L 49.515625 64.59375 
L 19.828125 64.59375 
L 19.828125 46.734375 
Q 21.96875 47.46875 24.109375 47.828125 
Q 26.265625 48.1875 28.421875 48.1875 
Q 40.625 48.1875 47.75 41.5 
Q 54.890625 34.8125 54.890625 23.390625 
Q 54.890625 11.625 47.5625 5.09375 
Q 40.234375 -1.421875 26.90625 -1.421875 
Q 22.3125 -1.421875 17.546875 -0.640625 
Q 12.796875 0.140625 7.71875 1.703125 
L 7.71875 11.625 
Q 12.109375 9.234375 16.796875 8.0625 
Q 21.484375 6.890625 26.703125 6.890625 
Q 35.15625 6.890625 40.078125 11.328125 
Q 45.015625 15.765625 45.015625 23.390625 
Q 45.015625 31 40.078125 35.4375 
Q 35.15625 39.890625 26.703125 39.890625 
Q 22.75 39.890625 18.8125 39.015625 
Q 14.890625 38.140625 10.796875 36.28125 
z
" id="DejaVuSans-35"/>
      </defs>
      <g style="fill:#262626;" transform="translate(142.056342 254.356563)scale(0.1 -0.1)">
       <use xlink:href="#DejaVuSans-2212"/>
       <use x="83.789062" xlink:href="#DejaVuSans-30"/>
       <use x="147.412109" xlink:href="#DejaVuSans-2e"/>
       <use x="179.199219" xlink:href="#DejaVuSans-35"/>
      </g>
     </g>
    </g>
    <g id="xtick_3">
     <g id="line2d_5">
      <path clip-path="url(#p55a5c15d4a)" d="M 214.550144 239.758125 
L 214.550144 22.318125 
" style="fill:none;stroke:#ffffff;stroke-linecap:round;"/>
     </g>
     <g id="line2d_6"/>
     <g id="text_3">
      <!-- 0.0 -->
      <g style="fill:#262626;" transform="translate(206.598581 254.356563)scale(0.1 -0.1)">
       <use xlink:href="#DejaVuSans-30"/>
       <use x="63.623047" xlink:href="#DejaVuSans-2e"/>
       <use x="95.410156" xlink:href="#DejaVuSans-30"/>
      </g>
     </g>
    </g>
    <g id="xtick_4">
     <g id="line2d_7">
      <path clip-path="url(#p55a5c15d4a)" d="M 274.902538 239.758125 
L 274.902538 22.318125 
" style="fill:none;stroke:#ffffff;stroke-linecap:round;"/>
     </g>
     <g id="line2d_8"/>
     <g id="text_4">
      <!-- 0.5 -->
      <g style="fill:#262626;" transform="translate(266.950976 254.356563)scale(0.1 -0.1)">
       <use xlink:href="#DejaVuSans-30"/>
       <use x="63.623047" xlink:href="#DejaVuSans-2e"/>
       <use x="95.410156" xlink:href="#DejaVuSans-35"/>
      </g>
     </g>
    </g>
    <g id="xtick_5">
     <g id="line2d_9">
      <path clip-path="url(#p55a5c15d4a)" d="M 335.254933 239.758125 
L 335.254933 22.318125 
" style="fill:none;stroke:#ffffff;stroke-linecap:round;"/>
     </g>
     <g id="line2d_10"/>
     <g id="text_5">
      <!-- 1.0 -->
      <g style="fill:#262626;" transform="translate(327.303371 254.356563)scale(0.1 -0.1)">
       <use xlink:href="#DejaVuSans-31"/>
       <use x="63.623047" xlink:href="#DejaVuSans-2e"/>
       <use x="95.410156" xlink:href="#DejaVuSans-30"/>
      </g>
     </g>
    </g>
    <g id="text_6">
     <!-- Pearson Correlation Coefficient -->
     <defs>
      <path d="M 19.671875 64.796875 
L 19.671875 37.40625 
L 32.078125 37.40625 
Q 38.96875 37.40625 42.71875 40.96875 
Q 46.484375 44.53125 46.484375 51.125 
Q 46.484375 57.671875 42.71875 61.234375 
Q 38.96875 64.796875 32.078125 64.796875 
z
M 9.8125 72.90625 
L 32.078125 72.90625 
Q 44.34375 72.90625 50.609375 67.359375 
Q 56.890625 61.8125 56.890625 51.125 
Q 56.890625 40.328125 50.609375 34.8125 
Q 44.34375 29.296875 32.078125 29.296875 
L 19.671875 29.296875 
L 19.671875 0 
L 9.8125 0 
z
" id="DejaVuSans-50"/>
      <path d="M 56.203125 29.59375 
L 56.203125 25.203125 
L 14.890625 25.203125 
Q 15.484375 15.921875 20.484375 11.0625 
Q 25.484375 6.203125 34.421875 6.203125 
Q 39.59375 6.203125 44.453125 7.46875 
Q 49.3125 8.734375 54.109375 11.28125 
L 54.109375 2.78125 
Q 49.265625 0.734375 44.1875 -0.34375 
Q 39.109375 -1.421875 33.890625 -1.421875 
Q 20.796875 -1.421875 13.15625 6.1875 
Q 5.515625 13.8125 5.515625 26.8125 
Q 5.515625 40.234375 12.765625 48.109375 
Q 20.015625 56 32.328125 56 
Q 43.359375 56 49.78125 48.890625 
Q 56.203125 41.796875 56.203125 29.59375 
z
M 47.21875 32.234375 
Q 47.125 39.59375 43.09375 43.984375 
Q 39.0625 48.390625 32.421875 48.390625 
Q 24.90625 48.390625 20.390625 44.140625 
Q 15.875 39.890625 15.1875 32.171875 
z
" id="DejaVuSans-65"/>
      <path d="M 34.28125 27.484375 
Q 23.390625 27.484375 19.1875 25 
Q 14.984375 22.515625 14.984375 16.5 
Q 14.984375 11.71875 18.140625 8.90625 
Q 21.296875 6.109375 26.703125 6.109375 
Q 34.1875 6.109375 38.703125 11.40625 
Q 43.21875 16.703125 43.21875 25.484375 
L 43.21875 27.484375 
z
M 52.203125 31.203125 
L 52.203125 0 
L 43.21875 0 
L 43.21875 8.296875 
Q 40.140625 3.328125 35.546875 0.953125 
Q 30.953125 -1.421875 24.3125 -1.421875 
Q 15.921875 -1.421875 10.953125 3.296875 
Q 6 8.015625 6 15.921875 
Q 6 25.140625 12.171875 29.828125 
Q 18.359375 34.515625 30.609375 34.515625 
L 43.21875 34.515625 
L 43.21875 35.40625 
Q 43.21875 41.609375 39.140625 45 
Q 35.0625 48.390625 27.6875 48.390625 
Q 23 48.390625 18.546875 47.265625 
Q 14.109375 46.140625 10.015625 43.890625 
L 10.015625 52.203125 
Q 14.9375 54.109375 19.578125 55.046875 
Q 24.21875 56 28.609375 56 
Q 40.484375 56 46.34375 49.84375 
Q 52.203125 43.703125 52.203125 31.203125 
z
" id="DejaVuSans-61"/>
      <path d="M 41.109375 46.296875 
Q 39.59375 47.171875 37.8125 47.578125 
Q 36.03125 48 33.890625 48 
Q 26.265625 48 22.1875 43.046875 
Q 18.109375 38.09375 18.109375 28.8125 
L 18.109375 0 
L 9.078125 0 
L 9.078125 54.6875 
L 18.109375 54.6875 
L 18.109375 46.1875 
Q 20.953125 51.171875 25.484375 53.578125 
Q 30.03125 56 36.53125 56 
Q 37.453125 56 38.578125 55.875 
Q 39.703125 55.765625 41.0625 55.515625 
z
" id="DejaVuSans-72"/>
      <path d="M 44.28125 53.078125 
L 44.28125 44.578125 
Q 40.484375 46.53125 36.375 47.5 
Q 32.28125 48.484375 27.875 48.484375 
Q 21.1875 48.484375 17.84375 46.4375 
Q 14.5 44.390625 14.5 40.28125 
Q 14.5 37.15625 16.890625 35.375 
Q 19.28125 33.59375 26.515625 31.984375 
L 29.59375 31.296875 
Q 39.15625 29.25 43.1875 25.515625 
Q 47.21875 21.78125 47.21875 15.09375 
Q 47.21875 7.46875 41.1875 3.015625 
Q 35.15625 -1.421875 24.609375 -1.421875 
Q 20.21875 -1.421875 15.453125 -0.5625 
Q 10.6875 0.296875 5.421875 2 
L 5.421875 11.28125 
Q 10.40625 8.6875 15.234375 7.390625 
Q 20.0625 6.109375 24.8125 6.109375 
Q 31.15625 6.109375 34.5625 8.28125 
Q 37.984375 10.453125 37.984375 14.40625 
Q 37.984375 18.0625 35.515625 20.015625 
Q 33.0625 21.96875 24.703125 23.78125 
L 21.578125 24.515625 
Q 13.234375 26.265625 9.515625 29.90625 
Q 5.8125 33.546875 5.8125 39.890625 
Q 5.8125 47.609375 11.28125 51.796875 
Q 16.75 56 26.8125 56 
Q 31.78125 56 36.171875 55.265625 
Q 40.578125 54.546875 44.28125 53.078125 
z
" id="DejaVuSans-73"/>
      <path d="M 30.609375 48.390625 
Q 23.390625 48.390625 19.1875 42.75 
Q 14.984375 37.109375 14.984375 27.296875 
Q 14.984375 17.484375 19.15625 11.84375 
Q 23.34375 6.203125 30.609375 6.203125 
Q 37.796875 6.203125 41.984375 11.859375 
Q 46.1875 17.53125 46.1875 27.296875 
Q 46.1875 37.015625 41.984375 42.703125 
Q 37.796875 48.390625 30.609375 48.390625 
z
M 30.609375 56 
Q 42.328125 56 49.015625 48.375 
Q 55.71875 40.765625 55.71875 27.296875 
Q 55.71875 13.875 49.015625 6.21875 
Q 42.328125 -1.421875 30.609375 -1.421875 
Q 18.84375 -1.421875 12.171875 6.21875 
Q 5.515625 13.875 5.515625 27.296875 
Q 5.515625 40.765625 12.171875 48.375 
Q 18.84375 56 30.609375 56 
z
" id="DejaVuSans-6f"/>
      <path d="M 54.890625 33.015625 
L 54.890625 0 
L 45.90625 0 
L 45.90625 32.71875 
Q 45.90625 40.484375 42.875 44.328125 
Q 39.84375 48.1875 33.796875 48.1875 
Q 26.515625 48.1875 22.3125 43.546875 
Q 18.109375 38.921875 18.109375 30.90625 
L 18.109375 0 
L 9.078125 0 
L 9.078125 54.6875 
L 18.109375 54.6875 
L 18.109375 46.1875 
Q 21.34375 51.125 25.703125 53.5625 
Q 30.078125 56 35.796875 56 
Q 45.21875 56 50.046875 50.171875 
Q 54.890625 44.34375 54.890625 33.015625 
z
" id="DejaVuSans-6e"/>
      <path id="DejaVuSans-20"/>
      <path d="M 64.40625 67.28125 
L 64.40625 56.890625 
Q 59.421875 61.53125 53.78125 63.8125 
Q 48.140625 66.109375 41.796875 66.109375 
Q 29.296875 66.109375 22.65625 58.46875 
Q 16.015625 50.828125 16.015625 36.375 
Q 16.015625 21.96875 22.65625 14.328125 
Q 29.296875 6.6875 41.796875 6.6875 
Q 48.140625 6.6875 53.78125 8.984375 
Q 59.421875 11.28125 64.40625 15.921875 
L 64.40625 5.609375 
Q 59.234375 2.09375 53.4375 0.328125 
Q 47.65625 -1.421875 41.21875 -1.421875 
Q 24.65625 -1.421875 15.125 8.703125 
Q 5.609375 18.84375 5.609375 36.375 
Q 5.609375 53.953125 15.125 64.078125 
Q 24.65625 74.21875 41.21875 74.21875 
Q 47.75 74.21875 53.53125 72.484375 
Q 59.328125 70.75 64.40625 67.28125 
z
" id="DejaVuSans-43"/>
      <path d="M 9.421875 75.984375 
L 18.40625 75.984375 
L 18.40625 0 
L 9.421875 0 
z
" id="DejaVuSans-6c"/>
      <path d="M 18.3125 70.21875 
L 18.3125 54.6875 
L 36.8125 54.6875 
L 36.8125 47.703125 
L 18.3125 47.703125 
L 18.3125 18.015625 
Q 18.3125 11.328125 20.140625 9.421875 
Q 21.96875 7.515625 27.59375 7.515625 
L 36.8125 7.515625 
L 36.8125 0 
L 27.59375 0 
Q 17.1875 0 13.234375 3.875 
Q 9.28125 7.765625 9.28125 18.015625 
L 9.28125 47.703125 
L 2.6875 47.703125 
L 2.6875 54.6875 
L 9.28125 54.6875 
L 9.28125 70.21875 
z
" id="DejaVuSans-74"/>
      <path d="M 9.421875 54.6875 
L 18.40625 54.6875 
L 18.40625 0 
L 9.421875 0 
z
M 9.421875 75.984375 
L 18.40625 75.984375 
L 18.40625 64.59375 
L 9.421875 64.59375 
z
" id="DejaVuSans-69"/>
      <path d="M 37.109375 75.984375 
L 37.109375 68.5 
L 28.515625 68.5 
Q 23.6875 68.5 21.796875 66.546875 
Q 19.921875 64.59375 19.921875 59.515625 
L 19.921875 54.6875 
L 34.71875 54.6875 
L 34.71875 47.703125 
L 19.921875 47.703125 
L 19.921875 0 
L 10.890625 0 
L 10.890625 47.703125 
L 2.296875 47.703125 
L 2.296875 54.6875 
L 10.890625 54.6875 
L 10.890625 58.5 
Q 10.890625 67.625 15.140625 71.796875 
Q 19.390625 75.984375 28.609375 75.984375 
z
" id="DejaVuSans-66"/>
      <path d="M 48.78125 52.59375 
L 48.78125 44.1875 
Q 44.96875 46.296875 41.140625 47.34375 
Q 37.3125 48.390625 33.40625 48.390625 
Q 24.65625 48.390625 19.8125 42.84375 
Q 14.984375 37.3125 14.984375 27.296875 
Q 14.984375 17.28125 19.8125 11.734375 
Q 24.65625 6.203125 33.40625 6.203125 
Q 37.3125 6.203125 41.140625 7.25 
Q 44.96875 8.296875 48.78125 10.40625 
L 48.78125 2.09375 
Q 45.015625 0.34375 40.984375 -0.53125 
Q 36.96875 -1.421875 32.421875 -1.421875 
Q 20.0625 -1.421875 12.78125 6.34375 
Q 5.515625 14.109375 5.515625 27.296875 
Q 5.515625 40.671875 12.859375 48.328125 
Q 20.21875 56 33.015625 56 
Q 37.15625 56 41.109375 55.140625 
Q 45.0625 54.296875 48.78125 52.59375 
z
" id="DejaVuSans-63"/>
     </defs>
     <g style="fill:#262626;" transform="translate(126.496016 268.794531)scale(0.11 -0.11)">
      <use xlink:href="#DejaVuSans-50"/>
      <use x="60.255859" xlink:href="#DejaVuSans-65"/>
      <use x="121.779297" xlink:href="#DejaVuSans-61"/>
      <use x="183.058594" xlink:href="#DejaVuSans-72"/>
      <use x="224.171875" xlink:href="#DejaVuSans-73"/>
      <use x="276.271484" xlink:href="#DejaVuSans-6f"/>
      <use x="337.453125" xlink:href="#DejaVuSans-6e"/>
      <use x="400.832031" xlink:href="#DejaVuSans-20"/>
      <use x="432.619141" xlink:href="#DejaVuSans-43"/>
      <use x="502.443359" xlink:href="#DejaVuSans-6f"/>
      <use x="563.625" xlink:href="#DejaVuSans-72"/>
      <use x="604.722656" xlink:href="#DejaVuSans-72"/>
      <use x="645.804688" xlink:href="#DejaVuSans-65"/>
      <use x="707.328125" xlink:href="#DejaVuSans-6c"/>
      <use x="735.111328" xlink:href="#DejaVuSans-61"/>
      <use x="796.390625" xlink:href="#DejaVuSans-74"/>
      <use x="835.599609" xlink:href="#DejaVuSans-69"/>
      <use x="863.382812" xlink:href="#DejaVuSans-6f"/>
      <use x="924.564453" xlink:href="#DejaVuSans-6e"/>
      <use x="987.943359" xlink:href="#DejaVuSans-20"/>
      <use x="1019.730469" xlink:href="#DejaVuSans-43"/>
      <use x="1089.554688" xlink:href="#DejaVuSans-6f"/>
      <use x="1150.736328" xlink:href="#DejaVuSans-65"/>
      <use x="1212.259766" xlink:href="#DejaVuSans-66"/>
      <use x="1247.464844" xlink:href="#DejaVuSans-66"/>
      <use x="1282.669922" xlink:href="#DejaVuSans-69"/>
      <use x="1310.453125" xlink:href="#DejaVuSans-63"/>
      <use x="1365.433594" xlink:href="#DejaVuSans-69"/>
      <use x="1393.216797" xlink:href="#DejaVuSans-65"/>
      <use x="1454.740234" xlink:href="#DejaVuSans-6e"/>
      <use x="1518.119141" xlink:href="#DejaVuSans-74"/>
     </g>
    </g>
   </g>
   <g id="matplotlib.axis_2">
    <g id="ytick_1">
     <g id="line2d_11">
      <path clip-path="url(#p55a5c15d4a)" d="M 44.749063 239.758125 
L 379.549062 239.758125 
" style="fill:none;stroke:#ffffff;stroke-linecap:round;"/>
     </g>
     <g id="line2d_12"/>
     <g id="text_7">
      <!-- 0.0 -->
      <g style="fill:#262626;" transform="translate(21.845938 243.557344)scale(0.1 -0.1)">
       <use xlink:href="#DejaVuSans-30"/>
       <use x="63.623047" xlink:href="#DejaVuSans-2e"/>
       <use x="95.410156" xlink:href="#DejaVuSans-30"/>
      </g>
     </g>
    </g>
    <g id="ytick_2">
     <g id="line2d_13">
      <path clip-path="url(#p55a5c15d4a)" d="M 44.749063 204.552044 
L 379.549062 204.552044 
" style="fill:none;stroke:#ffffff;stroke-linecap:round;"/>
     </g>
     <g id="line2d_14"/>
     <g id="text_8">
      <!-- 0.5 -->
      <g style="fill:#262626;" transform="translate(21.845938 208.351262)scale(0.1 -0.1)">
       <use xlink:href="#DejaVuSans-30"/>
       <use x="63.623047" xlink:href="#DejaVuSans-2e"/>
       <use x="95.410156" xlink:href="#DejaVuSans-35"/>
      </g>
     </g>
    </g>
    <g id="ytick_3">
     <g id="line2d_15">
      <path clip-path="url(#p55a5c15d4a)" d="M 44.749063 169.345962 
L 379.549062 169.345962 
" style="fill:none;stroke:#ffffff;stroke-linecap:round;"/>
     </g>
     <g id="line2d_16"/>
     <g id="text_9">
      <!-- 1.0 -->
      <g style="fill:#262626;" transform="translate(21.845938 173.145181)scale(0.1 -0.1)">
       <use xlink:href="#DejaVuSans-31"/>
       <use x="63.623047" xlink:href="#DejaVuSans-2e"/>
       <use x="95.410156" xlink:href="#DejaVuSans-30"/>
      </g>
     </g>
    </g>
    <g id="ytick_4">
     <g id="line2d_17">
      <path clip-path="url(#p55a5c15d4a)" d="M 44.749063 134.139881 
L 379.549062 134.139881 
" style="fill:none;stroke:#ffffff;stroke-linecap:round;"/>
     </g>
     <g id="line2d_18"/>
     <g id="text_10">
      <!-- 1.5 -->
      <g style="fill:#262626;" transform="translate(21.845938 137.939099)scale(0.1 -0.1)">
       <use xlink:href="#DejaVuSans-31"/>
       <use x="63.623047" xlink:href="#DejaVuSans-2e"/>
       <use x="95.410156" xlink:href="#DejaVuSans-35"/>
      </g>
     </g>
    </g>
    <g id="ytick_5">
     <g id="line2d_19">
      <path clip-path="url(#p55a5c15d4a)" d="M 44.749063 98.933799 
L 379.549062 98.933799 
" style="fill:none;stroke:#ffffff;stroke-linecap:round;"/>
     </g>
     <g id="line2d_20"/>
     <g id="text_11">
      <!-- 2.0 -->
      <defs>
       <path d="M 19.1875 8.296875 
L 53.609375 8.296875 
L 53.609375 0 
L 7.328125 0 
L 7.328125 8.296875 
Q 12.9375 14.109375 22.625 23.890625 
Q 32.328125 33.6875 34.8125 36.53125 
Q 39.546875 41.84375 41.421875 45.53125 
Q 43.3125 49.21875 43.3125 52.78125 
Q 43.3125 58.59375 39.234375 62.25 
Q 35.15625 65.921875 28.609375 65.921875 
Q 23.96875 65.921875 18.8125 64.3125 
Q 13.671875 62.703125 7.8125 59.421875 
L 7.8125 69.390625 
Q 13.765625 71.78125 18.9375 73 
Q 24.125 74.21875 28.421875 74.21875 
Q 39.75 74.21875 46.484375 68.546875 
Q 53.21875 62.890625 53.21875 53.421875 
Q 53.21875 48.921875 51.53125 44.890625 
Q 49.859375 40.875 45.40625 35.40625 
Q 44.1875 33.984375 37.640625 27.21875 
Q 31.109375 20.453125 19.1875 8.296875 
z
" id="DejaVuSans-32"/>
      </defs>
      <g style="fill:#262626;" transform="translate(21.845938 102.733018)scale(0.1 -0.1)">
       <use xlink:href="#DejaVuSans-32"/>
       <use x="63.623047" xlink:href="#DejaVuSans-2e"/>
       <use x="95.410156" xlink:href="#DejaVuSans-30"/>
      </g>
     </g>
    </g>
    <g id="ytick_6">
     <g id="line2d_21">
      <path clip-path="url(#p55a5c15d4a)" d="M 44.749063 63.727718 
L 379.549062 63.727718 
" style="fill:none;stroke:#ffffff;stroke-linecap:round;"/>
     </g>
     <g id="line2d_22"/>
     <g id="text_12">
      <!-- 2.5 -->
      <g style="fill:#262626;" transform="translate(21.845938 67.526937)scale(0.1 -0.1)">
       <use xlink:href="#DejaVuSans-32"/>
       <use x="63.623047" xlink:href="#DejaVuSans-2e"/>
       <use x="95.410156" xlink:href="#DejaVuSans-35"/>
      </g>
     </g>
    </g>
    <g id="ytick_7">
     <g id="line2d_23">
      <path clip-path="url(#p55a5c15d4a)" d="M 44.749063 28.521636 
L 379.549062 28.521636 
" style="fill:none;stroke:#ffffff;stroke-linecap:round;"/>
     </g>
     <g id="line2d_24"/>
     <g id="text_13">
      <!-- 3.0 -->
      <defs>
       <path d="M 40.578125 39.3125 
Q 47.65625 37.796875 51.625 33 
Q 55.609375 28.21875 55.609375 21.1875 
Q 55.609375 10.40625 48.1875 4.484375 
Q 40.765625 -1.421875 27.09375 -1.421875 
Q 22.515625 -1.421875 17.65625 -0.515625 
Q 12.796875 0.390625 7.625 2.203125 
L 7.625 11.71875 
Q 11.71875 9.328125 16.59375 8.109375 
Q 21.484375 6.890625 26.8125 6.890625 
Q 36.078125 6.890625 40.9375 10.546875 
Q 45.796875 14.203125 45.796875 21.1875 
Q 45.796875 27.640625 41.28125 31.265625 
Q 36.765625 34.90625 28.71875 34.90625 
L 20.21875 34.90625 
L 20.21875 43.015625 
L 29.109375 43.015625 
Q 36.375 43.015625 40.234375 45.921875 
Q 44.09375 48.828125 44.09375 54.296875 
Q 44.09375 59.90625 40.109375 62.90625 
Q 36.140625 65.921875 28.71875 65.921875 
Q 24.65625 65.921875 20.015625 65.03125 
Q 15.375 64.15625 9.8125 62.3125 
L 9.8125 71.09375 
Q 15.4375 72.65625 20.34375 73.4375 
Q 25.25 74.21875 29.59375 74.21875 
Q 40.828125 74.21875 47.359375 69.109375 
Q 53.90625 64.015625 53.90625 55.328125 
Q 53.90625 49.265625 50.4375 45.09375 
Q 46.96875 40.921875 40.578125 39.3125 
z
" id="DejaVuSans-33"/>
      </defs>
      <g style="fill:#262626;" transform="translate(21.845938 32.320855)scale(0.1 -0.1)">
       <use xlink:href="#DejaVuSans-33"/>
       <use x="63.623047" xlink:href="#DejaVuSans-2e"/>
       <use x="95.410156" xlink:href="#DejaVuSans-30"/>
      </g>
     </g>
    </g>
    <g id="text_14">
     <!-- Posterior Probability -->
     <defs>
      <path d="M 48.6875 27.296875 
Q 48.6875 37.203125 44.609375 42.84375 
Q 40.53125 48.484375 33.40625 48.484375 
Q 26.265625 48.484375 22.1875 42.84375 
Q 18.109375 37.203125 18.109375 27.296875 
Q 18.109375 17.390625 22.1875 11.75 
Q 26.265625 6.109375 33.40625 6.109375 
Q 40.53125 6.109375 44.609375 11.75 
Q 48.6875 17.390625 48.6875 27.296875 
z
M 18.109375 46.390625 
Q 20.953125 51.265625 25.265625 53.625 
Q 29.59375 56 35.59375 56 
Q 45.5625 56 51.78125 48.09375 
Q 58.015625 40.1875 58.015625 27.296875 
Q 58.015625 14.40625 51.78125 6.484375 
Q 45.5625 -1.421875 35.59375 -1.421875 
Q 29.59375 -1.421875 25.265625 0.953125 
Q 20.953125 3.328125 18.109375 8.203125 
L 18.109375 0 
L 9.078125 0 
L 9.078125 75.984375 
L 18.109375 75.984375 
z
" id="DejaVuSans-62"/>
      <path d="M 32.171875 -5.078125 
Q 28.375 -14.84375 24.75 -17.8125 
Q 21.140625 -20.796875 15.09375 -20.796875 
L 7.90625 -20.796875 
L 7.90625 -13.28125 
L 13.1875 -13.28125 
Q 16.890625 -13.28125 18.9375 -11.515625 
Q 21 -9.765625 23.484375 -3.21875 
L 25.09375 0.875 
L 2.984375 54.6875 
L 12.5 54.6875 
L 29.59375 11.921875 
L 46.6875 54.6875 
L 56.203125 54.6875 
z
" id="DejaVuSans-79"/>
     </defs>
     <g style="fill:#262626;" transform="translate(15.558281 186.575234)rotate(-90)scale(0.11 -0.11)">
      <use xlink:href="#DejaVuSans-50"/>
      <use x="60.255859" xlink:href="#DejaVuSans-6f"/>
      <use x="121.4375" xlink:href="#DejaVuSans-73"/>
      <use x="173.537109" xlink:href="#DejaVuSans-74"/>
      <use x="212.746094" xlink:href="#DejaVuSans-65"/>
      <use x="274.269531" xlink:href="#DejaVuSans-72"/>
      <use x="315.382812" xlink:href="#DejaVuSans-69"/>
      <use x="343.166016" xlink:href="#DejaVuSans-6f"/>
      <use x="404.347656" xlink:href="#DejaVuSans-72"/>
      <use x="445.460938" xlink:href="#DejaVuSans-20"/>
      <use x="477.248047" xlink:href="#DejaVuSans-50"/>
      <use x="537.535156" xlink:href="#DejaVuSans-72"/>
      <use x="578.617188" xlink:href="#DejaVuSans-6f"/>
      <use x="639.798828" xlink:href="#DejaVuSans-62"/>
      <use x="703.275391" xlink:href="#DejaVuSans-61"/>
      <use x="764.554688" xlink:href="#DejaVuSans-62"/>
      <use x="828.03125" xlink:href="#DejaVuSans-69"/>
      <use x="855.814453" xlink:href="#DejaVuSans-6c"/>
      <use x="883.597656" xlink:href="#DejaVuSans-69"/>
      <use x="911.380859" xlink:href="#DejaVuSans-74"/>
      <use x="950.589844" xlink:href="#DejaVuSans-79"/>
     </g>
    </g>
   </g>
   <g id="line2d_25">
    <path clip-path="url(#p55a5c15d4a)" d="M 59.967244 239.656953 
L 64.732353 239.391101 
L 67.114907 239.094148 
L 69.497462 238.600847 
L 71.880016 237.814736 
L 74.26257 236.612744 
L 76.645125 234.849197 
L 79.027679 232.366434 
L 81.410233 229.012753 
L 83.792788 224.666674 
L 86.175342 219.264376 
L 88.557897 212.825251 
L 90.940451 205.469573 
L 95.70556 189.003542 
L 98.088114 180.594768 
L 100.470668 172.603432 
L 102.853223 165.414359 
L 105.235777 159.34733 
L 107.618331 154.624593 
L 110.000886 151.353814 
L 112.38344 149.52798 
L 114.765994 149.040394 
L 117.148549 149.710272 
L 119.531103 151.313207 
L 121.913657 153.610791 
L 124.296212 156.374939 
L 136.208983 171.37099 
L 138.591538 173.902763 
L 140.974092 176.172263 
L 143.356647 178.17875 
L 145.739201 179.941453 
L 148.121755 181.497185 
L 152.886864 184.19311 
L 162.417081 189.29246 
L 176.712407 197.427566 
L 181.477516 199.808118 
L 193.390288 205.486489 
L 198.155397 208.058431 
L 205.30306 212.087717 
L 210.068168 214.462325 
L 212.450723 215.445979 
L 214.833277 216.266176 
L 217.215831 216.919359 
L 219.598386 217.415795 
L 224.363494 218.037045 
L 233.893712 218.819307 
L 238.65882 219.537582 
L 243.423929 220.655079 
L 248.189038 222.113621 
L 260.10181 226.136944 
L 264.866918 227.447121 
L 269.632027 228.43558 
L 274.397136 229.136567 
L 286.309907 230.587347 
L 293.457571 231.797158 
L 300.605234 233.264427 
L 319.665668 237.476263 
L 324.430777 238.237414 
L 329.195886 238.800307 
L 336.343549 239.333413 
L 343.491212 239.602626 
L 353.021429 239.729039 
L 362.551647 239.706288 
L 362.551647 239.706288 
" style="fill:none;stroke:#4c72b0;stroke-linecap:round;stroke-width:1.75;"/>
   </g>
   <g id="line2d_26">
    <path clip-path="url(#p55a5c15d4a)" d="M 72.571942 239.222826 
L 74.732603 238.392783 
L 76.893264 236.550698 
L 79.053925 232.829421 
L 81.214586 225.987054 
L 83.375247 214.550267 
L 85.535909 197.208133 
L 87.69657 173.426122 
L 89.857231 144.077506 
L 94.178553 80.482339 
L 96.339214 54.741281 
L 98.499875 38.209026 
L 100.660536 32.672411 
L 102.821197 37.631755 
L 104.981858 50.703824 
L 107.142519 68.564357 
L 111.463841 106.474483 
L 113.624502 122.676886 
L 115.785163 136.105222 
L 117.945824 146.910589 
L 120.106485 155.558233 
L 122.267146 162.600214 
L 124.427807 168.541401 
L 126.588468 173.775015 
L 128.749129 178.563061 
L 130.90979 183.045374 
L 133.070451 187.264884 
L 135.231112 191.197926 
L 137.391773 194.783279 
L 139.552435 197.951026 
L 141.713096 200.654966 
L 143.873757 202.906036 
L 146.034418 204.793753 
L 152.516401 209.951557 
L 158.998384 215.983529 
L 161.159045 217.659242 
L 163.319706 218.873124 
L 165.480367 219.586295 
L 167.641028 219.892673 
L 171.96235 220.070812 
L 174.123011 220.324951 
L 176.283672 220.812889 
L 184.926316 223.530889 
L 187.086977 223.911507 
L 193.568961 224.640324 
L 195.729622 225.03787 
L 200.050944 226.183519 
L 204.372266 227.35424 
L 206.532927 227.784581 
L 210.854249 228.278821 
L 221.657554 228.981724 
L 225.978876 229.697872 
L 234.62152 231.490948 
L 236.782181 231.75488 
L 241.103503 231.959029 
L 245.424826 231.880322 
L 258.388792 231.336579 
L 260.549453 231.470711 
L 262.710114 231.763009 
L 267.031436 232.702163 
L 271.352758 233.59698 
L 273.513419 233.848106 
L 277.834741 233.935863 
L 282.156063 233.84537 
L 286.477385 234.004763 
L 290.798707 234.492044 
L 301.602013 236.015659 
L 305.923335 236.258732 
L 314.565979 236.462239 
L 318.887301 236.915161 
L 323.208623 237.662836 
L 329.690606 238.850655 
L 334.011928 239.373618 
L 338.33325 239.63307 
L 342.654572 239.709567 
L 346.975894 239.561597 
L 346.975894 239.561597 
" style="fill:none;stroke:#55a868;stroke-linecap:round;stroke-width:1.75;"/>
   </g>
   <g id="line2d_27">
    <path clip-path="url(#p55a5c15d4a)" d="M 71.066976 239.697859 
L 80.282668 239.720788 
L 89.498361 239.556292 
L 98.714054 239.181992 
L 110.23367 238.466067 
L 144.792519 235.778409 
L 151.704289 234.992835 
L 158.616058 233.935853 
L 165.527828 232.643626 
L 172.439598 231.098139 
L 179.351367 229.473809 
L 183.959214 228.573573 
L 195.47883 226.590144 
L 200.086676 225.335494 
L 204.694523 223.638547 
L 211.606292 220.58373 
L 216.214139 218.647231 
L 220.821985 217.081037 
L 227.733755 215.261789 
L 232.341602 213.931716 
L 234.645525 213.112689 
L 236.949448 212.167559 
L 241.557294 209.931763 
L 253.076911 203.844648 
L 262.292604 199.590795 
L 264.596527 198.306457 
L 266.90045 196.771909 
L 269.204373 194.915306 
L 271.508296 192.692953 
L 273.81222 190.100375 
L 276.116143 187.175581 
L 280.723989 180.643211 
L 296.851452 156.652974 
L 301.459298 149.032735 
L 306.067145 140.676001 
L 310.674991 132.203199 
L 312.978915 128.460372 
L 315.282838 125.531037 
L 317.586761 123.882092 
L 319.890684 124.005554 
L 322.194607 126.338047 
L 324.498531 131.166136 
L 326.802454 138.539994 
L 329.106377 148.221524 
L 331.4103 159.687751 
L 338.32207 196.982764 
L 340.625993 207.786722 
L 342.929917 216.88784 
L 345.23384 224.121673 
L 347.537763 229.552106 
L 349.841686 233.404976 
L 352.145609 235.98972 
L 354.449533 237.629811 
L 356.753456 238.614316 
L 359.057379 239.173402 
L 361.361302 239.473644 
L 363.665226 239.625792 
L 363.665226 239.625792 
" style="fill:none;stroke:#c44e52;stroke-linecap:round;stroke-width:1.75;"/>
   </g>
   <g id="line2d_28">
    <path clip-path="url(#p55a5c15d4a)" d="M 88.277253 239.631715 
L 92.507853 239.731996 
L 100.969053 239.631708 
L 111.545553 239.207696 
L 120.006753 238.710614 
L 126.352653 238.021858 
L 132.698553 237.309306 
L 136.929153 237.019129 
L 141.159753 236.897879 
L 147.505654 237.009234 
L 153.851554 237.178831 
L 158.082154 237.032632 
L 162.312754 236.652447 
L 168.658654 235.871779 
L 172.889254 235.138187 
L 177.119854 234.112769 
L 181.350454 233.023974 
L 183.465754 232.607727 
L 185.581054 232.345492 
L 187.696354 232.250476 
L 191.926954 232.425326 
L 196.157554 232.615368 
L 198.272854 232.530699 
L 200.388155 232.26191 
L 202.503455 231.796886 
L 204.618755 231.155078 
L 215.195255 227.368217 
L 219.425855 226.477756 
L 223.656455 225.776298 
L 225.771755 225.334829 
L 227.887055 224.753636 
L 230.002355 223.99799 
L 232.117655 223.061462 
L 236.348255 220.759985 
L 242.694155 217.061691 
L 246.924755 214.967953 
L 251.155355 213.263414 
L 255.385955 211.857862 
L 261.731856 209.855634 
L 263.847156 209.007371 
L 265.962456 207.986579 
L 268.077756 206.785115 
L 272.308356 203.942504 
L 276.538956 200.711035 
L 280.769556 197.142319 
L 285.000156 193.15616 
L 287.115456 190.951898 
L 289.230756 188.531888 
L 291.346056 185.793506 
L 293.461356 182.603197 
L 295.576656 178.81975 
L 297.691956 174.324983 
L 299.807256 169.047612 
L 301.922556 162.967458 
L 304.037856 156.096259 
L 306.153156 148.443494 
L 308.268456 139.984903 
L 310.383756 130.654937 
L 312.499056 120.38208 
L 314.614357 109.177675 
L 318.844957 85.265988 
L 320.960257 74.234918 
L 323.075557 65.709535 
L 325.190857 61.469566 
L 327.306157 63.150312 
L 329.421457 71.75141 
L 331.536757 87.218569 
L 333.652057 108.285561 
L 339.997957 180.726758 
L 342.113257 200.035845 
L 344.228557 214.805987 
L 346.343857 225.15368 
L 348.459157 231.805942 
L 350.574457 235.735129 
L 352.689757 237.869163 
L 354.805057 238.935433 
L 356.920357 239.425409 
L 356.920357 239.425409 
" style="fill:none;stroke:#8172b2;stroke-linecap:round;stroke-width:1.75;"/>
   </g>
   <g id="line2d_29">
    <path clip-path="url(#p55a5c15d4a)" d="M 78.591645 239.714583 
L 89.841221 239.716651 
L 98.840882 239.550064 
L 107.840543 239.158812 
L 121.340035 238.281303 
L 137.089441 237.11865 
L 141.589272 236.579434 
L 146.089102 235.856984 
L 152.838848 234.51068 
L 164.088424 232.036531 
L 173.088085 229.796462 
L 179.837831 228.099497 
L 184.337661 227.140971 
L 188.837492 226.3875 
L 202.336983 224.468763 
L 206.836814 223.433817 
L 211.336644 222.032948 
L 215.836475 220.270026 
L 220.336305 218.225017 
L 227.086051 214.868873 
L 233.835797 211.256811 
L 238.335627 208.599569 
L 242.835458 205.690714 
L 249.585203 200.977672 
L 258.584864 194.647648 
L 263.084695 191.885512 
L 267.584525 189.577015 
L 272.084356 187.418371 
L 274.334271 186.173765 
L 276.584186 184.67797 
L 278.834102 182.843198 
L 281.084017 180.61605 
L 283.333932 177.986243 
L 285.583847 174.986143 
L 287.833763 171.681567 
L 292.333593 164.492879 
L 301.333254 149.336907 
L 310.332915 133.944819 
L 312.58283 130.7978 
L 314.832745 128.540088 
L 317.082661 127.601867 
L 319.332576 128.404945 
L 321.582491 131.286375 
L 323.832406 136.423426 
L 326.082322 143.777608 
L 328.332237 153.073225 
L 330.582152 163.818887 
L 337.331898 198.106492 
L 339.581813 208.08522 
L 341.831728 216.601768 
L 344.081644 223.501458 
L 346.331559 228.811531 
L 348.581474 232.695447 
L 350.831389 235.395939 
L 353.081304 237.181057 
L 355.33122 238.302943 
L 357.581135 238.973232 
L 359.83105 239.353879 
L 364.330881 239.66419 
L 364.330881 239.66419 
" style="fill:none;stroke:#ccb974;stroke-linecap:round;stroke-width:1.75;"/>
   </g>
   <g id="patch_3">
    <path d="M 44.749063 239.758125 
L 44.749063 22.318125 
" style="fill:none;"/>
   </g>
   <g id="patch_4">
    <path d="M 379.549062 239.758125 
L 379.549062 22.318125 
" style="fill:none;"/>
   </g>
   <g id="patch_5">
    <path d="M 44.749063 239.758125 
L 379.549062 239.758125 
" style="fill:none;"/>
   </g>
   <g id="patch_6">
    <path d="M 44.749063 22.318125 
L 379.549062 22.318125 
" style="fill:none;"/>
   </g>
   <g id="text_15">
    <!-- NON-Robust Per-Individual Estimates of Rho -->
    <defs>
     <path d="M 9.8125 72.90625 
L 23.09375 72.90625 
L 55.421875 11.921875 
L 55.421875 72.90625 
L 64.984375 72.90625 
L 64.984375 0 
L 51.703125 0 
L 19.390625 60.984375 
L 19.390625 0 
L 9.8125 0 
z
" id="DejaVuSans-4e"/>
     <path d="M 39.40625 66.21875 
Q 28.65625 66.21875 22.328125 58.203125 
Q 16.015625 50.203125 16.015625 36.375 
Q 16.015625 22.609375 22.328125 14.59375 
Q 28.65625 6.59375 39.40625 6.59375 
Q 50.140625 6.59375 56.421875 14.59375 
Q 62.703125 22.609375 62.703125 36.375 
Q 62.703125 50.203125 56.421875 58.203125 
Q 50.140625 66.21875 39.40625 66.21875 
z
M 39.40625 74.21875 
Q 54.734375 74.21875 63.90625 63.9375 
Q 73.09375 53.65625 73.09375 36.375 
Q 73.09375 19.140625 63.90625 8.859375 
Q 54.734375 -1.421875 39.40625 -1.421875 
Q 24.03125 -1.421875 14.8125 8.828125 
Q 5.609375 19.09375 5.609375 36.375 
Q 5.609375 53.65625 14.8125 63.9375 
Q 24.03125 74.21875 39.40625 74.21875 
z
" id="DejaVuSans-4f"/>
     <path d="M 4.890625 31.390625 
L 31.203125 31.390625 
L 31.203125 23.390625 
L 4.890625 23.390625 
z
" id="DejaVuSans-2d"/>
     <path d="M 44.390625 34.1875 
Q 47.5625 33.109375 50.5625 29.59375 
Q 53.5625 26.078125 56.59375 19.921875 
L 66.609375 0 
L 56 0 
L 46.6875 18.703125 
Q 43.0625 26.03125 39.671875 28.421875 
Q 36.28125 30.8125 30.421875 30.8125 
L 19.671875 30.8125 
L 19.671875 0 
L 9.8125 0 
L 9.8125 72.90625 
L 32.078125 72.90625 
Q 44.578125 72.90625 50.734375 67.671875 
Q 56.890625 62.453125 56.890625 51.90625 
Q 56.890625 45.015625 53.6875 40.46875 
Q 50.484375 35.9375 44.390625 34.1875 
z
M 19.671875 64.796875 
L 19.671875 38.921875 
L 32.078125 38.921875 
Q 39.203125 38.921875 42.84375 42.21875 
Q 46.484375 45.515625 46.484375 51.90625 
Q 46.484375 58.296875 42.84375 61.546875 
Q 39.203125 64.796875 32.078125 64.796875 
z
" id="DejaVuSans-52"/>
     <path d="M 8.5 21.578125 
L 8.5 54.6875 
L 17.484375 54.6875 
L 17.484375 21.921875 
Q 17.484375 14.15625 20.5 10.265625 
Q 23.53125 6.390625 29.59375 6.390625 
Q 36.859375 6.390625 41.078125 11.03125 
Q 45.3125 15.671875 45.3125 23.6875 
L 45.3125 54.6875 
L 54.296875 54.6875 
L 54.296875 0 
L 45.3125 0 
L 45.3125 8.40625 
Q 42.046875 3.421875 37.71875 1 
Q 33.40625 -1.421875 27.6875 -1.421875 
Q 18.265625 -1.421875 13.375 4.4375 
Q 8.5 10.296875 8.5 21.578125 
z
M 31.109375 56 
z
" id="DejaVuSans-75"/>
     <path d="M 9.8125 72.90625 
L 19.671875 72.90625 
L 19.671875 0 
L 9.8125 0 
z
" id="DejaVuSans-49"/>
     <path d="M 45.40625 46.390625 
L 45.40625 75.984375 
L 54.390625 75.984375 
L 54.390625 0 
L 45.40625 0 
L 45.40625 8.203125 
Q 42.578125 3.328125 38.25 0.953125 
Q 33.9375 -1.421875 27.875 -1.421875 
Q 17.96875 -1.421875 11.734375 6.484375 
Q 5.515625 14.40625 5.515625 27.296875 
Q 5.515625 40.1875 11.734375 48.09375 
Q 17.96875 56 27.875 56 
Q 33.9375 56 38.25 53.625 
Q 42.578125 51.265625 45.40625 46.390625 
z
M 14.796875 27.296875 
Q 14.796875 17.390625 18.875 11.75 
Q 22.953125 6.109375 30.078125 6.109375 
Q 37.203125 6.109375 41.296875 11.75 
Q 45.40625 17.390625 45.40625 27.296875 
Q 45.40625 37.203125 41.296875 42.84375 
Q 37.203125 48.484375 30.078125 48.484375 
Q 22.953125 48.484375 18.875 42.84375 
Q 14.796875 37.203125 14.796875 27.296875 
z
" id="DejaVuSans-64"/>
     <path d="M 2.984375 54.6875 
L 12.5 54.6875 
L 29.59375 8.796875 
L 46.6875 54.6875 
L 56.203125 54.6875 
L 35.6875 0 
L 23.484375 0 
z
" id="DejaVuSans-76"/>
     <path d="M 9.8125 72.90625 
L 55.90625 72.90625 
L 55.90625 64.59375 
L 19.671875 64.59375 
L 19.671875 43.015625 
L 54.390625 43.015625 
L 54.390625 34.71875 
L 19.671875 34.71875 
L 19.671875 8.296875 
L 56.78125 8.296875 
L 56.78125 0 
L 9.8125 0 
z
" id="DejaVuSans-45"/>
     <path d="M 52 44.1875 
Q 55.375 50.25 60.0625 53.125 
Q 64.75 56 71.09375 56 
Q 79.640625 56 84.28125 50.015625 
Q 88.921875 44.046875 88.921875 33.015625 
L 88.921875 0 
L 79.890625 0 
L 79.890625 32.71875 
Q 79.890625 40.578125 77.09375 44.375 
Q 74.3125 48.1875 68.609375 48.1875 
Q 61.625 48.1875 57.5625 43.546875 
Q 53.515625 38.921875 53.515625 30.90625 
L 53.515625 0 
L 44.484375 0 
L 44.484375 32.71875 
Q 44.484375 40.625 41.703125 44.40625 
Q 38.921875 48.1875 33.109375 48.1875 
Q 26.21875 48.1875 22.15625 43.53125 
Q 18.109375 38.875 18.109375 30.90625 
L 18.109375 0 
L 9.078125 0 
L 9.078125 54.6875 
L 18.109375 54.6875 
L 18.109375 46.1875 
Q 21.1875 51.21875 25.484375 53.609375 
Q 29.78125 56 35.6875 56 
Q 41.65625 56 45.828125 52.96875 
Q 50 49.953125 52 44.1875 
z
" id="DejaVuSans-6d"/>
     <path d="M 54.890625 33.015625 
L 54.890625 0 
L 45.90625 0 
L 45.90625 32.71875 
Q 45.90625 40.484375 42.875 44.328125 
Q 39.84375 48.1875 33.796875 48.1875 
Q 26.515625 48.1875 22.3125 43.546875 
Q 18.109375 38.921875 18.109375 30.90625 
L 18.109375 0 
L 9.078125 0 
L 9.078125 75.984375 
L 18.109375 75.984375 
L 18.109375 46.1875 
Q 21.34375 51.125 25.703125 53.5625 
Q 30.078125 56 35.796875 56 
Q 45.21875 56 50.046875 50.171875 
Q 54.890625 44.34375 54.890625 33.015625 
z
" id="DejaVuSans-68"/>
    </defs>
    <g style="fill:#262626;" transform="translate(79.522812 16.318125)scale(0.12 -0.12)">
     <use xlink:href="#DejaVuSans-4e"/>
     <use x="74.804688" xlink:href="#DejaVuSans-4f"/>
     <use x="153.515625" xlink:href="#DejaVuSans-4e"/>
     <use x="228.320312" xlink:href="#DejaVuSans-2d"/>
     <use x="264.404297" xlink:href="#DejaVuSans-52"/>
     <use x="333.824219" xlink:href="#DejaVuSans-6f"/>
     <use x="395.005859" xlink:href="#DejaVuSans-62"/>
     <use x="458.482422" xlink:href="#DejaVuSans-75"/>
     <use x="521.861328" xlink:href="#DejaVuSans-73"/>
     <use x="573.960938" xlink:href="#DejaVuSans-74"/>
     <use x="613.169922" xlink:href="#DejaVuSans-20"/>
     <use x="644.957031" xlink:href="#DejaVuSans-50"/>
     <use x="705.212891" xlink:href="#DejaVuSans-65"/>
     <use x="766.736328" xlink:href="#DejaVuSans-72"/>
     <use x="807.755859" xlink:href="#DejaVuSans-2d"/>
     <use x="843.839844" xlink:href="#DejaVuSans-49"/>
     <use x="873.332031" xlink:href="#DejaVuSans-6e"/>
     <use x="936.710938" xlink:href="#DejaVuSans-64"/>
     <use x="1000.1875" xlink:href="#DejaVuSans-69"/>
     <use x="1027.970703" xlink:href="#DejaVuSans-76"/>
     <use x="1087.150391" xlink:href="#DejaVuSans-69"/>
     <use x="1114.933594" xlink:href="#DejaVuSans-64"/>
     <use x="1178.410156" xlink:href="#DejaVuSans-75"/>
     <use x="1241.789062" xlink:href="#DejaVuSans-61"/>
     <use x="1303.068359" xlink:href="#DejaVuSans-6c"/>
     <use x="1330.851562" xlink:href="#DejaVuSans-20"/>
     <use x="1362.638672" xlink:href="#DejaVuSans-45"/>
     <use x="1425.822266" xlink:href="#DejaVuSans-73"/>
     <use x="1477.921875" xlink:href="#DejaVuSans-74"/>
     <use x="1517.130859" xlink:href="#DejaVuSans-69"/>
     <use x="1544.914062" xlink:href="#DejaVuSans-6d"/>
     <use x="1642.326172" xlink:href="#DejaVuSans-61"/>
     <use x="1703.605469" xlink:href="#DejaVuSans-74"/>
     <use x="1742.814453" xlink:href="#DejaVuSans-65"/>
     <use x="1804.337891" xlink:href="#DejaVuSans-73"/>
     <use x="1856.4375" xlink:href="#DejaVuSans-20"/>
     <use x="1888.224609" xlink:href="#DejaVuSans-6f"/>
     <use x="1949.40625" xlink:href="#DejaVuSans-66"/>
     <use x="1984.611328" xlink:href="#DejaVuSans-20"/>
     <use x="2016.398438" xlink:href="#DejaVuSans-52"/>
     <use x="2085.880859" xlink:href="#DejaVuSans-68"/>
     <use x="2149.259766" xlink:href="#DejaVuSans-6f"/>
    </g>
   </g>
  </g>
 </g>
 <defs>
  <clipPath id="p55a5c15d4a">
   <rect height="217.44" width="334.8" x="44.749063" y="22.318125"/>
  </clipPath>
 </defs>
</svg>
