<svg viewBox="0 0 385 278" xmlns="http://www.w3.org/2000/svg" xmlns:xlink="http://www.w3.org/1999/xlink"><defs><style>*{stroke-linecap:butt;stroke-linejoin:round}</style></defs><g id="figure_1"><path d="M0 278.3h385.6V0H0z" fill="#fff" id="patch_1"/><g id="axes_1"><path d="M43.6 239.8h334.8V22.3H43.6z" fill="#eaeaf2" id="patch_2"/><g id="matplotlib.axis_1"><g id="xtick_1"><path clip-path="url(#p5324635da7)" d="M52.7 239.8V22.3" fill="none" stroke="#fff" stroke-linecap="round" id="line2d_1"/><g id="text_1"><defs><path d="M31.8 66.4q-7.6 0-11.5-7.5-3.8-7.5-3.8-22.5t3.8-22.5q3.9-7.5 11.5-7.5 7.7 0 11.5 7.5T47 36.4q0 15-3.8 22.5t-11.5 7.5zm0 7.8q12.2 0 18.7-9.7T57 36.4Q57 18 50.5 8.3 44-1.4 31.8-1.4 19.5-1.4 13 8.3q-6.5 9.7-6.5 28 0 18.5 6.5 28.2 6.4 9.7 18.7 9.7z" id="DejaVuSans-30"/></defs><use xlink:href="#DejaVuSans-30" transform="matrix(.1 0 0 -.1 49.6 254.4)" fill="#262626"/></g></g><g id="xtick_2"><path clip-path="url(#p5324635da7)" d="M115.5 239.8V22.3" fill="none" stroke="#fff" stroke-linecap="round" id="line2d_3"/><g id="text_2"><defs><path d="M12.4 8.3h16.1v55.6L11 60.4v9l17.4 3.5h9.9V8.3h16V0H12.5z" id="DejaVuSans-31"/></defs><use xlink:href="#DejaVuSans-31" transform="matrix(.1 0 0 -.1 112.3 254.4)" fill="#262626"/></g></g><g id="xtick_3"><path clip-path="url(#p5324635da7)" d="M178.2 239.8V22.3" fill="none" stroke="#fff" stroke-linecap="round" id="line2d_5"/><g id="text_3"><defs><path d="M19.2 8.3h34.4V0H7.3v8.3l15.3 15.6q9.7 9.8 12.2 12.6 4.7 5.3 6.6 9 2 3.7 2 7.3 0 5.8-4.2 9.5-4 3.6-10.6 3.6-4.6 0-9.8-1.6-5.1-1.6-11-4.9v10q6 2.4 11.1 3.6 5.2 1.2 9.5 1.2 11.4 0 18-5.7 6.8-5.6 6.8-15 0-4.6-1.7-8.6-1.6-4-6-9.5l-7.9-8.2L19.2 8.3z" id="DejaVuSans-32"/></defs><use xlink:href="#DejaVuSans-32" transform="matrix(.1 0 0 -.1 175 254.4)" fill="#262626"/></g></g><g id="xtick_4"><path clip-path="url(#p5324635da7)" d="M241 239.8V22.3" fill="none" stroke="#fff" stroke-linecap="round" id="line2d_7"/><g id="text_4"><defs><path d="M40.6 39.3q7-1.5 11-6.3t4-11.8q0-10.8-7.4-16.7-7.4-6-21.1-6-4.6 0-9.4 1-4.9.9-10 2.7v9.5q4-2.4 8.9-3.6Q21.5 7 26.8 7q9.3 0 14.1 3.6 4.9 3.7 4.9 10.7 0 6.4-4.5 10Q36.8 35 28.7 35h-8.5V43h9q7.2 0 11 3 3.9 2.8 3.9 8.3 0 5.6-4 8.6t-11.4 3q-4 0-8.7-.9-4.6-.8-10.2-2.7v8.8q5.6 1.6 10.5 2.3 5 .8 9.3.8 11.2 0 17.8-5 6.5-5.2 6.5-13.9 0-6-3.5-10.2-3.4-4.2-9.8-5.8z" id="DejaVuSans-33"/></defs><use xlink:href="#DejaVuSans-33" transform="matrix(.1 0 0 -.1 237.8 254.4)" fill="#262626"/></g></g><g id="xtick_5"><path clip-path="url(#p5324635da7)" d="M303.7 239.8V22.3" fill="none" stroke="#fff" stroke-linecap="round" id="line2d_9"/><g id="text_5"><defs><path d="M37.8 64.3l-25-39h25zM35.2 73h12.4V25.4H58v-8.2H47.6V0h-9.8v17.2h-33v9.5z" id="DejaVuSans-34"/></defs><use xlink:href="#DejaVuSans-34" transform="matrix(.1 0 0 -.1 300.5 254.4)" fill="#262626"/></g></g><g id="xtick_6"><path clip-path="url(#p5324635da7)" d="M366.4 239.8V22.3" fill="none" stroke="#fff" stroke-linecap="round" id="line2d_11"/><g id="text_6"><defs><path d="M10.8 73h38.7v-8.4H19.8V46.7q2.2.8 4.3 1.1 2.2.4 4.3.4 12.2 0 19.4-6.7 7-6.7 7-18.1 0-11.8-7.2-18.3-7.4-6.5-20.7-6.5-4.6 0-9.4.8-4.7.7-9.8 2.3v10q4.4-2.5 9.1-3.6 4.7-1.2 9.9-1.2 8.5 0 13.4 4.4 5 4.5 5 12 0 7.7-5 12.1Q35 40 26.7 40q-4 0-7.9-.9-4-.9-8-2.7z" id="DejaVuSans-35"/></defs><use xlink:href="#DejaVuSans-35" transform="matrix(.1 0 0 -.1 363.3 254.4)" fill="#262626"/></g></g><g id="text_7"><defs><path d="M13.7 73h10l12.5-26.4 22.6 26.3h11.5l-30-34.8L58.4 0h-10L33.9 30.7 7.2 0H-4.3l34 39.2z" id="DejaVuSans-Oblique-58"/></defs><g transform="matrix(.11 0 0 -.11 204.6 268.8)" fill="#262626"><use xlink:href="#DejaVuSans-Oblique-58"/><use transform="matrix(.7 0 0 .7 68.5 -16.3)" xlink:href="#DejaVuSans-31"/></g></g></g><g id="matplotlib.axis_2"><g id="ytick_1"><path clip-path="url(#p5324635da7)" d="M43.6 229.9h334.8" fill="none" stroke="#fff" stroke-linecap="round" id="line2d_13"/><g id="text_8"><defs><path d="M10.6 35.5h62.6v-8.3H10.6z" id="DejaVuSans-2212"/></defs><g transform="matrix(.1 0 0 -.1 21.8 233.7)" fill="#262626"><use xlink:href="#DejaVuSans-2212"/><use x="83.8" xlink:href="#DejaVuSans-34"/></g></g></g><g id="ytick_2"><path clip-path="url(#p5324635da7)" d="M43.6 189.8h334.8" fill="none" stroke="#fff" stroke-linecap="round" id="line2d_15"/><g transform="matrix(.1 0 0 -.1 21.8 193.6)" fill="#262626" id="text_9"><use xlink:href="#DejaVuSans-2212"/><use x="83.8" xlink:href="#DejaVuSans-33"/></g></g><g id="ytick_3"><path clip-path="url(#p5324635da7)" d="M43.6 149.8h334.8" fill="none" stroke="#fff" stroke-linecap="round" id="line2d_17"/><g transform="matrix(.1 0 0 -.1 21.8 153.6)" fill="#262626" id="text_10"><use xlink:href="#DejaVuSans-2212"/><use x="83.8" xlink:href="#DejaVuSans-32"/></g></g><g id="ytick_4"><path clip-path="url(#p5324635da7)" d="M43.6 109.7h334.8" fill="none" stroke="#fff" stroke-linecap="round" id="line2d_19"/><g transform="matrix(.1 0 0 -.1 21.8 113.5)" fill="#262626" id="text_11"><use xlink:href="#DejaVuSans-2212"/><use x="83.8" xlink:href="#DejaVuSans-31"/></g></g><g id="ytick_5"><path clip-path="url(#p5324635da7)" d="M43.6 69.6h334.8" fill="none" stroke="#fff" stroke-linecap="round" id="line2d_21"/><use xlink:href="#DejaVuSans-30" transform="matrix(.1 0 0 -.1 30.2 73.4)" fill="#262626" id="text_12"/></g><g id="ytick_6"><path clip-path="url(#p5324635da7)" d="M43.6 29.6h334.8" fill="none" stroke="#fff" stroke-linecap="round" id="line2d_23"/><use xlink:href="#DejaVuSans-31" transform="matrix(.1 0 0 -.1 30.2 33.4)" fill="#262626" id="text_13"/></g><g transform="matrix(0 -.11 -.11 0 15.6 137.4)" fill="#262626" id="text_14"><use xlink:href="#DejaVuSans-Oblique-58"/><use transform="matrix(.7 0 0 .7 68.5 -16.3)" xlink:href="#DejaVuSans-32"/></g></g><g id="line2d_25"><defs><path d="M0 1.8a1.8 1.8 0 100-3.6 1.8 1.8 0 000 3.5z" id="mc1a514d0d0"/></defs><g clip-path="url(#p5324635da7)" fill="#4c72b0"><use x="241" xlink:href="#mc1a514d0d0" y="189.8"/><use x="67.2" xlink:href="#mc1a514d0d0" y="55.8"/><use x="102.2" xlink:href="#mc1a514d0d0" y="32.2"/><use x="58.8" xlink:href="#mc1a514d0d0" y="64.3"/><use x="110.6" xlink:href="#mc1a514d0d0" y="41.1"/></g></g><g id="line2d_26"><defs><path d="M0 1.8a1.8 1.8 0 100-3.6 1.8 1.8 0 000 3.5z" id="mf27b9de28a"/></defs><g clip-path="url(#p5324635da7)" fill="#55a868"><use x="303.7" xlink:href="#mf27b9de28a" y="229.9"/><use x="165.6" xlink:href="#mf27b9de28a" y="44.7"/><use x="154.3" xlink:href="#mf27b9de28a" y="44.8"/><use x="152.9" xlink:href="#mf27b9de28a" y="40.8"/><use x="138.8" xlink:href="#mf27b9de28a" y="60.9"/></g></g><g id="line2d_27"><defs><path d="M0 1.8a1.8 1.8 0 100-3.6 1.8 1.8 0 000 3.5z" id="me5e2df5c8a"/></defs><g clip-path="url(#p5324635da7)" fill="#c44e52"><use x="201.8" xlink:href="#me5e2df5c8a" y="65.3"/><use x="233" xlink:href="#me5e2df5c8a" y="43.4"/><use x="220.8" xlink:href="#me5e2df5c8a" y="42.8"/><use x="202" xlink:href="#me5e2df5c8a" y="57.8"/><use x="218.2" xlink:href="#me5e2df5c8a" y="50.3"/></g></g><g id="line2d_28"><defs><path d="M0 1.8a1.8 1.8 0 100-3.6 1.8 1.8 0 000 3.5z" id="m644d6f556a"/></defs><g clip-path="url(#p5324635da7)" fill="#8172b2"><use x="261.5" xlink:href="#m644d6f556a" y="68.6"/><use x="256.5" xlink:href="#m644d6f556a" y="66.9"/><use x="275.5" xlink:href="#m644d6f556a" y="53"/><use x="282.9" xlink:href="#m644d6f556a" y="43.2"/><use x="273.4" xlink:href="#m644d6f556a" y="57.3"/></g></g><g id="line2d_29"><defs><path d="M0 1.8a1.8 1.8 0 100-3.6 1.8 1.8 0 000 3.5z" id="m52a54948fa"/></defs><g clip-path="url(#p5324635da7)" fill="#ccb974"><use x="349.4" xlink:href="#m52a54948fa" y="49.6"/><use x="336.7" xlink:href="#m52a54948fa" y="49.7"/><use x="327.6" xlink:href="#m52a54948fa" y="64.1"/><use x="326.2" xlink:href="#m52a54948fa" y="57.4"/><use x="363.2" xlink:href="#m52a54948fa" y="43.1"/></g></g><path d="M43.6 239.8V22.3" fill="none" id="patch_3"/><path d="M378.4 239.8V22.3" fill="none" id="patch_4"/><path d="M43.6 239.8h334.8" fill="none" id="patch_5"/><path d="M43.6 22.3h334.8" fill="none" id="patch_6"/><g id="text_15"><defs><path d="M9.4 76h9V0h-9z" id="DejaVuSans-6c"/><path d="M19.7 64.8V37.4H32q6.9 0 10.6 3.6 3.8 3.5 3.8 10.1t-3.8 10.1q-3.7 3.6-10.6 3.6zm-9.9 8.1h22.3q12.2 0 18.5-5.5Q57 61.8 57 51q0-10.8-6.3-16.3t-18.5-5.5H19.7V0H9.8z" id="DejaVuSans-50"/><path d="M44.3 53v-8.4q-3.8 2-8 2.9-4 1-8.4 1-6.7 0-10-2-3.4-2.1-3.4-6.2 0-3.1 2.4-5 2.4-1.7 9.6-3.3l3-.7q9.7-2 13.7-5.8 4-3.7 4-10.4 0-7.6-6-12-6-4.5-16.6-4.5-4.4 0-9.1.8-4.8.9-10 2.6v9.3q5-2.6 9.7-4 4.9-1.2 9.6-1.2 6.4 0 9.8 2.2 3.4 2.2 3.4 6.1 0 3.7-2.5 5.6-2.4 2-10.8 3.8l-3.1.7q-8.4 1.8-12 5.4-3.8 3.6-3.8 10 0 7.7 5.5 11.9Q16.7 56 26.8 56q5 0 9.4-.7 4.4-.8 8-2.2z" id="DejaVuSans-73"/><path d="M9.4 54.7h9V0h-9zm0 21.3h9V64.6h-9z" id="DejaVuSans-69"/><path d="M18.3 70.2V54.7h18.5v-7H18.3V18q0-6.7 1.8-8.6 1.9-1.9 7.5-1.9h9.2V0h-9.2Q17.2 0 13.2 3.9T9.2 18v29.7H2.8v7h6.6v15.5z" id="DejaVuSans-74"/><path d="M3 54.7h9.5l17-45.9 17.2 45.9h9.5L35.7 0H23.5z" id="DejaVuSans-76"/><path d="M56.2 29.6v-4.4H14.9q.6-9.3 5.6-14.1 5-4.9 14-4.9 5 0 10 1.3 4.8 1.2 9.6 3.8V2.8q-4.8-2-10-3.1-5-1.1-10.2-1.1-13.1 0-20.7 7.6-7.7 7.6-7.7 20.6 0 13.4 7.3 21.3Q20 56 32.3 56q11 0 17.5-7.1 6.4-7.1 6.4-19.3zm-9 2.6q0 7.4-4.1 11.8-4 4.4-10.7 4.4-7.5 0-12-4.3-4.5-4.2-5.2-12z" id="DejaVuSans-65"/><path d="M18.1 8.2v-29h-9v75.5h9v-8.3q2.9 4.9 7.2 7.2Q29.6 56 35.6 56q10 0 16.2-8Q58 40.3 58 27.4q0-12.9-6.2-20.8-6.2-8-16.2-8-6 0-10.3 2.5Q21 3.3 18 8.2zm30.6 19.1q0 9.9-4 15.5-4.2 5.7-11.3 5.7-7.1 0-11.2-5.7-4-5.6-4-15.5 0-10 4-15.6t11.2-5.6q7.1 0 11.2 5.7 4 5.6 4 15.5z" id="DejaVuSans-70"/><path d="M8.5 21.6v33h9V22q0-7.7 3-11.6 3-4 9-4 7.4 0 11.6 4.7 4.2 4.7 4.2 12.7v31h9V0h-9v8.4Q42 3.4 37.7 1q-4.3-2.4-10-2.4-9.4 0-14.3 5.8-4.9 5.9-4.9 17.2zM31.1 56z" id="DejaVuSans-75"/><path d="M30.6 48.4q-7.2 0-11.4-5.6Q15 37 15 27.3t4.2-15.5q4.1-5.6 11.4-5.6 7.2 0 11.4 5.7 4.2 5.6 4.2 15.4 0 9.7-4.2 15.4-4.2 5.7-11.4 5.7zm0 7.6q11.7 0 18.4-7.6 6.7-7.6 6.7-21.1 0-13.4-6.7-21-6.7-7.7-18.4-7.7-11.8 0-18.4 7.6Q5.5 14 5.5 27.3q0 13.5 6.7 21Q18.8 56 30.6 56z" id="DejaVuSans-6f"/><path d="M34.3 27.5q-11 0-15.1-2.5-4.2-2.5-4.2-8.5 0-4.8 3.1-7.6 3.2-2.8 8.6-2.8 7.5 0 12 5.3t4.5 14v2zm17.9 3.7V0h-9v8.3q-3-5-7.7-7.3Q31-1.4 24.3-1.4 16-1.4 11 3.3 6 8 6 15.9q0 9.2 6.2 14 6.2 4.6 18.4 4.6h12.6v1q0 6.1-4 9.5-4.1 3.4-11.5 3.4-4.7 0-9.2-1.1-4.4-1.2-8.5-3.4v8.3q5 2 9.6 2.8 4.6 1 9 1 11.9 0 17.7-6.2 5.9-6.1 5.9-18.6z" id="DejaVuSans-61"/><path d="M54.9 33V0h-9v32.7q0 7.8-3 11.6-3 3.9-9.1 3.9-7.3 0-11.5-4.7Q18.1 39 18.1 31V0h-9v54.7h9v-8.5q3.2 5 7.6 7.4Q30.1 56 35.8 56q9.4 0 14.2-5.8Q55 44.3 55 33z" id="DejaVuSans-6e"/><path d="M48.8 52.6v-8.4Q45 46.3 41 47.3q-3.8 1-7.7 1-8.7 0-13.6-5.5Q15 37.3 15 27.3t4.8-15.6q4.9-5.5 13.6-5.5 4 0 7.7 1 3.9 1.1 7.7 3.2V2.1Q45 .3 41-.5q-4-1-8.6-1-12.3 0-19.6 7.8-7.3 7.8-7.3 21 0 13.4 7.4 21Q20.2 56 33 56q4.2 0 8.1-.9 4-.8 7.7-2.5z" id="DejaVuSans-63"/><path d="M41.1 46.3q-1.5.9-3.3 1.3-1.8.4-4 .4-7.5 0-11.6-5-4-5-4-14.2V0H9v54.7h9v-8.5q2.9 5 7.4 7.4Q30 56 36.5 56l2-.1 2.6-.4z" id="DejaVuSans-72"/><path d="M11.7 12.4H22V4l-8-15.6H7.7l4 15.6z" id="DejaVuSans-2c"/><path d="M48.7 27.3q0 9.9-4 15.5-4.2 5.7-11.3 5.7-7.1 0-11.2-5.7-4-5.6-4-15.5 0-10 4-15.6t11.2-5.6q7.1 0 11.2 5.7 4 5.6 4 15.5zM18 46.3q2.9 5 7.2 7.3Q29.6 56 35.6 56q10 0 16.2-8Q58 40.3 58 27.4q0-12.9-6.2-20.8-6.2-8-16.2-8-6 0-10.3 2.5Q21 3.3 18 8.2V0h-9v76h9z" id="DejaVuSans-62"/><path d="M4.2 54.7h9L24.4 12l11.2 42.7h10.6L57.4 12l11.2 42.7h9L63.3 0H52.7L40.9 44.8 29.1 0H18.5z" id="DejaVuSans-77"/><path d="M54.9 33V0h-9v32.7q0 7.8-3 11.6-3 3.9-9.1 3.9-7.3 0-11.5-4.7Q18.1 39 18.1 31V0h-9v76h9V46.2q3.2 5 7.6 7.4Q30.1 56 35.8 56q9.4 0 14.2-5.8Q55 44.3 55 33z" id="DejaVuSans-68"/><path d="M15 12.4h10V0H15zM15 73h10V41l-1-17.4h-7.9l-1 17.4z" id="DejaVuSans-21"/></defs><g transform="matrix(.12 0 0 -.12 64.3 16.3)" fill="#262626"><use xlink:href="#DejaVuSans-50"/><use x="60.3" xlink:href="#DejaVuSans-6f"/><use x="121.4" xlink:href="#DejaVuSans-73"/><use x="173.5" xlink:href="#DejaVuSans-69"/><use x="201.3" xlink:href="#DejaVuSans-74"/><use x="240.5" xlink:href="#DejaVuSans-69"/><use x="268.3" xlink:href="#DejaVuSans-76"/><use x="327.5" xlink:href="#DejaVuSans-65"/><use x="389" xlink:href="#DejaVuSans-20"/><use x="420.8" xlink:href="#DejaVuSans-70"/><use x="484.3" xlink:href="#DejaVuSans-6f"/><use x="545.5" xlink:href="#DejaVuSans-70"/><use x="608.9" xlink:href="#DejaVuSans-75"/><use x="672.3" xlink:href="#DejaVuSans-6c"/><use x="700.1" xlink:href="#DejaVuSans-61"/><use x="761.4" xlink:href="#DejaVuSans-74"/><use x="800.6" xlink:href="#DejaVuSans-69"/><use x="828.4" xlink:href="#DejaVuSans-6f"/><use x="889.6" xlink:href="#DejaVuSans-6e"/><use x="952.9" xlink:href="#DejaVuSans-20"/><use x="984.7" xlink:href="#DejaVuSans-63"/><use x="1039.7" xlink:href="#DejaVuSans-6f"/><use x="1100.9" xlink:href="#DejaVuSans-72"/><use x="1142" xlink:href="#DejaVuSans-72"/><use x="1183.1" xlink:href="#DejaVuSans-65"/><use x="1244.6" xlink:href="#DejaVuSans-6c"/><use x="1272.4" xlink:href="#DejaVuSans-61"/><use x="1333.6" xlink:href="#DejaVuSans-74"/><use x="1372.9" xlink:href="#DejaVuSans-69"/><use x="1400.6" xlink:href="#DejaVuSans-6f"/><use x="1461.8" xlink:href="#DejaVuSans-6e"/><use x="1525.2" xlink:href="#DejaVuSans-2c"/><use x="1557" xlink:href="#DejaVuSans-20"/><use x="1588.8" xlink:href="#DejaVuSans-62"/><use x="1652.3" xlink:href="#DejaVuSans-75"/><use x="1715.6" xlink:href="#DejaVuSans-74"/><use x="1754.8" xlink:href="#DejaVuSans-20"/><use x="1786.6" xlink:href="#DejaVuSans-77"/><use x="1868.4" xlink:href="#DejaVuSans-69"/><use x="1896.2" xlink:href="#DejaVuSans-74"/><use x="1935.4" xlink:href="#DejaVuSans-68"/><use x="1998.8" xlink:href="#DejaVuSans-20"/><use x="2030.6" xlink:href="#DejaVuSans-6f"/><use x="2091.8" xlink:href="#DejaVuSans-75"/><use x="2155.1" xlink:href="#DejaVuSans-74"/><use x="2194.3" xlink:href="#DejaVuSans-6c"/><use x="2222.1" xlink:href="#DejaVuSans-69"/><use x="2249.9" xlink:href="#DejaVuSans-65"/><use x="2311.4" xlink:href="#DejaVuSans-72"/><use x="2352.5" xlink:href="#DejaVuSans-73"/><use x="2404.6" xlink:href="#DejaVuSans-21"/></g></g></g></g><defs><clipPath id="p5324635da7"><path d="M43.6 22.3h334.8v217.4H43.6z"/></clipPath></defs></svg>