<svg viewBox="0 0 795.4 412.1" fill="none" stroke-linecap="square" stroke-miterlimit="10" xmlns="http://www.w3.org/2000/svg"><clipPath id="a"><path d="M0 0h795.4v412H0V0z"/></clipPath><g clip-path="url(#a)"><path fill="#000" fill-opacity="0" d="M0 0h795.4v412H0z" fill-rule="evenodd"/><path fill="#000" fill-opacity="0" d="M235.3 121.1c100.3-48.4 228.6-54.2 336.3-15L421.2 325zM235.3 121.1c100.3-48.4 228.6-54.2 336.3-15" fill-rule="evenodd"/><path stroke="#a4c2f4" stroke-width="2" stroke-linejoin="round" stroke-linecap="butt" stroke-dasharray="8.0,6.0" d="M235.3 121.1h0a425.8 425.8 0 01165.4-40.3 459.3 459.3 0 01129.6 12.8 420.8 420.8 0 0132.4 9.5h.4" fill-rule="evenodd"/><path fill="#a4c2f4" stroke="#a4c2f4" stroke-width="2" stroke-linecap="butt" d="M562.3 105.3h6.5l-5-4.2z" fill-rule="evenodd"/><path fill="#000" fill-opacity="0" d="M239.2 197.7c100.4-48.5 228.6-54.2 336.3-15L425.1 401.5zM239.2 197.7c100.4-48.5 228.6-54.2 336.3-15" fill-rule="evenodd"/><path stroke="#ea9999" stroke-width="2" stroke-linejoin="round" stroke-linecap="butt" stroke-dasharray="8.0,6.0" d="M239.2 197.7h0a425.8 425.8 0 01165.4-40.4 459.3 459.3 0 01129.7 12.8 420.8 420.8 0 0132.4 9.5l.3.1" fill-rule="evenodd"/><path fill="#ea9999" stroke="#ea9999" stroke-width="2" stroke-linecap="butt" d="M566.3 181.8h6.5l-5-4.1z" fill-rule="evenodd"/><path fill="#000" fill-opacity="0" d="M155.3 264.8c100.3 48.5 228.6 54.2 336.3 15L341.2 61zM155.3 264.8c100.3 48.5 228.6 54.2 336.3 15" fill-rule="evenodd"/><path stroke="#b6d7a8" stroke-width="2" stroke-linejoin="round" stroke-linecap="butt" stroke-dasharray="8.0,6.0" d="M155.3 264.8h0A425.8 425.8 0 00320.7 305a459.3 459.3 0 00129.6-12.8 420.8 420.8 0 0032.4-9.5h.4" fill-rule="evenodd"/><path fill="#b6d7a8" stroke="#b6d7a8" stroke-width="2" stroke-linecap="butt" d="M483.8 284.8l5-4.1h-6.5z" fill-rule="evenodd"/><path fill="#000" fill-opacity="0" d="M518.7 234.7c16.6-28.9 43.2-44.7 59.3-35.4 7.7 4.4 12 14.2 11.8 27.2-.2 13-4.8 28-12.8 41.9-16.7 28.8-43.2 44.7-59.3 35.4-16.2-9.3-15.7-40.2 1-69.1z" fill-rule="evenodd"/><path stroke="#d9ead3" stroke-width="2" stroke-linejoin="round" stroke-linecap="butt" d="M518.7 234.7h0c16.6-28.9 43.2-44.7 59.3-35.4h0c7.7 4.4 12 14.2 11.8 27.2-.2 13-4.8 28-12.8 41.9h0c-16.7 28.8-43.2 44.7-59.3 35.4h0c-16.2-9.3-15.7-40.2 1-69.1z" fill-rule="evenodd"/><path fill="#000" fill-opacity="0" d="M528.4 240.3c11.1-19.2 28.8-29.8 39.5-23.6 5.2 3 8 9.5 7.9 18.2a59.9 59.9 0 01-8.5 27.9c-11.2 19.2-28.9 29.8-39.6 23.6-10.7-6.2-10.4-26.8.7-46z" fill-rule="evenodd"/><path stroke="#b6d7a8" stroke-width="2" stroke-linejoin="round" stroke-linecap="butt" d="M528.4 240.3h0c11.1-19.2 28.8-29.8 39.5-23.6h0c5.2 3 8 9.5 7.9 18.2a59.9 59.9 0 01-8.5 27.9h0c-11.2 19.2-28.9 29.8-39.6 23.6h0c-10.7-6.2-10.4-26.8.7-46z" fill-rule="evenodd"/><path fill="#000" fill-opacity="0" d="M538 245.8c5.6-9.7 14.6-15 20-12 2.7 1.6 4.1 4.9 4 9.3 0 4.4-1.6 9.5-4.3 14.1-5.6 9.8-14.6 15.2-20 12-5.5-3.1-5.4-13.6.3-23.4z" fill-rule="evenodd"/><path stroke="#93c47d" stroke-width="2" stroke-linejoin="round" stroke-linecap="butt" d="M538 245.8h0c5.6-9.7 14.6-15 20-12h0c2.7 1.6 4.1 4.9 4 9.3 0 4.4-1.6 9.5-4.3 14.1h0c-5.6 9.8-14.6 15.2-20 12h0c-5.5-3.1-5.4-13.6.3-23.4z" fill-rule="evenodd"/><path fill="#000" fill-opacity="0" d="M598.7 199.4c16.6-28.8 43.2-44.7 59.3-35.4 7.7 4.5 12 14.3 11.8 27.2-.2 13-4.8 28-12.8 42-16.7 28.8-43.2 44.6-59.3 35.3-16.2-9.3-15.7-40.2 1-69z" fill-rule="evenodd"/><path stroke="#f4cccc" stroke-width="2" stroke-linejoin="round" stroke-linecap="butt" d="M598.7 199.4h0c16.6-28.8 43.2-44.7 59.3-35.4h0c7.7 4.5 12 14.3 11.8 27.2-.2 13-4.8 28-12.8 42h0c-16.7 28.8-43.2 44.6-59.3 35.3h0c-16.2-9.3-15.7-40.2 1-69z" fill-rule="evenodd"/><path fill="#000" fill-opacity="0" d="M608.4 205c11.1-19.2 28.8-29.8 39.5-23.6 5.2 3 8 9.5 7.9 18.2a59.9 59.9 0 01-8.5 28c-11.2 19.1-28.9 29.7-39.6 23.5-10.7-6.2-10.4-26.8.7-46z" fill-rule="evenodd"/><path stroke="#ea9999" stroke-width="2" stroke-linejoin="round" stroke-linecap="butt" d="M608.4 205h0c11.1-19.2 28.8-29.8 39.5-23.6h0c5.2 3 8 9.5 7.9 18.2a59.9 59.9 0 01-8.5 28h0c-11.2 19.1-28.9 29.7-39.6 23.5h0c-10.7-6.2-10.4-26.8.7-46z" fill-rule="evenodd"/><path fill="#000" fill-opacity="0" d="M618 210.6c5.6-9.8 14.6-15.1 20-12 2.7 1.5 4.1 4.8 4 9.2 0 4.4-1.6 9.5-4.3 14.2-5.6 9.7-14.6 15.1-20 12-5.5-3.2-5.4-13.7.3-23.4z" fill-rule="evenodd"/><path stroke="#e06666" stroke-width="2" stroke-linejoin="round" stroke-linecap="butt" d="M618 210.6h0c5.6-9.8 14.6-15.1 20-12h0c2.7 1.5 4.1 4.8 4 9.2 0 4.4-1.6 9.5-4.3 14.2h0c-5.6 9.7-14.6 15.1-20 12h0c-5.5-3.2-5.4-13.7.3-23.4z" fill-rule="evenodd"/><path fill="#000" fill-opacity="0" d="M598.7 115.4c16.6-28.9 43.2-44.8 59.3-35.5 7.7 4.5 12 14.3 11.8 27.2-.2 13-4.8 28-12.8 42-16.7 28.8-43.2 44.6-59.3 35.3-16.2-9.3-15.7-40.2 1-69z" fill-rule="evenodd"/><path stroke="#c9daf8" stroke-width="2" stroke-linejoin="round" stroke-linecap="butt" d="M598.7 115.4h0c16.6-28.9 43.2-44.8 59.3-35.5h0c7.7 4.5 12 14.3 11.8 27.2-.2 13-4.8 28-12.8 42h0c-16.7 28.8-43.2 44.6-59.3 35.3h0c-16.2-9.3-15.7-40.2 1-69z" fill-rule="evenodd"/><path fill="#000" fill-opacity="0" d="M608.4 121c11.1-19.3 28.8-29.8 39.5-23.6 5.2 3 8 9.5 7.9 18.1a59.9 59.9 0 01-8.5 28c-11.2 19.2-28.9 29.7-39.6 23.5-10.7-6.2-10.4-26.8.7-46z" fill-rule="evenodd"/><path stroke="#a4c2f4" stroke-width="2" stroke-linejoin="round" stroke-linecap="butt" d="M608.4 121h0c11.1-19.3 28.8-29.8 39.5-23.6h0c5.2 3 8 9.5 7.9 18.1a59.9 59.9 0 01-8.5 28h0c-11.2 19.2-28.9 29.7-39.6 23.5h0c-10.7-6.2-10.4-26.8.7-46z" fill-rule="evenodd"/><path fill="#000" fill-opacity="0" d="M618 126.5c5.6-9.8 14.6-15.1 20-12 2.7 1.5 4.1 4.9 4 9.2 0 4.4-1.6 9.5-4.3 14.2-5.6 9.8-14.6 15.1-20 12-5.5-3.2-5.4-13.6.3-23.4z" fill-rule="evenodd"/><path stroke="#6d9eeb" stroke-width="2" stroke-linejoin="round" stroke-linecap="butt" d="M618 126.5h0c5.6-9.8 14.6-15.1 20-12h0c2.7 1.5 4.1 4.9 4 9.2 0 4.4-1.6 9.5-4.3 14.2h0c-5.6 9.8-14.6 15.1-20 12h0c-5.5-3.2-5.4-13.6.3-23.4z" fill-rule="evenodd"/><path fill="#000" fill-opacity="0" d="M120 173c33.9-58.7 88-91 120.8-72.1 15.7 9 24.4 29 24 55.4-.4 26.4-9.8 57-26 85.3-34 58.8-88.1 91.1-121 72.2-32.7-19-31.8-82 2.1-140.8z" fill-rule="evenodd"/><path stroke="#000" stroke-width="2" stroke-linejoin="round" stroke-linecap="butt" d="M120 173h0c33.9-58.7 88-91 120.8-72.1h0c15.7 9 24.4 29 24 55.4-.4 26.4-9.8 57-26 85.3h0c-34 58.8-88.1 91.1-121 72.2h0c-32.7-19-31.8-82 2.1-140.8z" fill-rule="evenodd"/><path fill="#000" fill-opacity="0" d="M139.7 184.5c22.7-39.2 58.7-60.7 80.6-48.1 10.5 6 16.2 19.3 16 37a122 122 0 01-17.4 56.8c-22.6 39.2-58.7 60.7-80.5 48.1-21.9-12.6-21.3-54.6 1.3-93.8z" fill-rule="evenodd"/><path stroke="#000" stroke-width="2" stroke-linejoin="round" stroke-linecap="butt" d="M139.7 184.5h0c22.7-39.2 58.7-60.7 80.6-48.1h0c10.5 6 16.2 19.3 16 37a122 122 0 01-17.4 56.8h0c-22.6 39.2-58.7 60.7-80.5 48.1h0c-21.9-12.6-21.3-54.6 1.3-93.8z" fill-rule="evenodd"/><path fill="#000" fill-opacity="0" d="M58.5 348V54" fill-rule="evenodd"/><path stroke="#000" stroke-width="2" stroke-linejoin="round" stroke-linecap="butt" d="M58.5 348V66" fill-rule="evenodd"/><path fill="#000" stroke="#000" stroke-width="2" stroke-linecap="butt" d="M61.8 66l-3.3-9-3.3 9z" fill-rule="evenodd"/><path fill="#000" fill-opacity="0" d="M58 347.6h294" fill-rule="evenodd"/><path stroke="#000" stroke-width="2" stroke-linejoin="round" stroke-linecap="butt" d="M58 347.6h282" fill-rule="evenodd"/><path fill="#000" stroke="#000" stroke-width="2" stroke-linecap="butt" d="M340 350.9l9.1-3.3-9-3.3z" fill-rule="evenodd"/><path fill="#000" fill-opacity="0" d="M159.2 195.7c11.5-19.8 29.8-30.8 41-24.4 5.2 3.1 8.2 9.9 8 18.8 0 9-3.3 19.3-8.8 28.8-11.5 19.9-29.8 30.8-40.9 24.4-11-6.4-10.7-27.7.7-47.6z" fill-rule="evenodd"/><path stroke="#000" stroke-width="2" stroke-linejoin="round" stroke-linecap="butt" d="M159.2 195.7h0c11.5-19.8 29.8-30.8 41-24.4h0c5.2 3.1 8.2 9.9 8 18.8 0 9-3.3 19.3-8.8 28.8h0c-11.5 19.9-29.8 30.8-40.9 24.4h0c-11-6.4-10.7-27.7.7-47.6z" fill-rule="evenodd"/><path fill="#000" fill-opacity="0" d="M74.1 347.6H336v49.3H74z" fill-rule="evenodd"/><path fill="#000" d="M204.3 379.2h-2l-3.2-5.8-3.3 5.8h-1.7l4.1-7-3.8-6.4h1.8l3 5.1 3-5h1.8L200 372l4.2 7zM213.4 386.2h-1v-5.6-.6-.5-.6-.5l-.2.2-.1.2-.2.1-.2.2-1 .7-.5-.7 2.3-1.8h1v8.9z"/><path fill="#000" fill-opacity="0" d="M9.2 332V70h49.3V332z" fill-rule="evenodd"/><path fill="#000" d="M40.8 201.8v2l-5.8 3.1 5.8 3.4v1.7l-7-4.1-6.3 3.8V210l5-3-5-3V202l6.3 3.8 7-4.1zM47.8 190.8v5.6h-1l-2.3-2.2-.9-.8-.8-.6-.8-.4-.8-.1-.7.1q-.2 0-.4.3l-.3.4-.1.6q0 .6.2 1l.6 1-.7.6-.4-.5-.3-.7-.3-.6v-.8l.1-1 .5-.8q.3-.4.7-.5l1-.2 1 .1 1 .5.9.7.9.8 1.8 1.7v-4.2h1z"/><path fill="#000" fill-opacity="0" d="M74.1 19.6H336v49.3H74z" fill-rule="evenodd"/><path fill="#000" d="M117.2 41.7q0 .9-.3 1.6-.2.8-.8 1.4-.6.6-1.5 1-1 .3-2.4.3H111v5.2h-1.7V37.8h3.3q1.2 0 2 .3 1 .3 1.5.8.6.4.9 1.2.3.7.3 1.6zm-6.3 2.8h1.2l1.4-.1q.7-.2 1-.5.5-.3.7-.8.2-.5.2-1.3 0-1.3-.7-1.9-.8-.6-2.4-.6H111v5.2zm17 1.6q0 1.3-.4 2.3-.3 1-.8 1.6-.6.6-1.4 1-.8.3-1.8.3t-1.8-.3q-.8-.4-1.3-1-.6-.7-1-1.6-.3-1-.3-2.3 0-1.2.3-2.2.4-1 1-1.6.5-.6 1.3-1 .8-.3 1.8-.3t1.8.3q.8.4 1.3 1 .6.7 1 1.6.3 1 .3 2.2zm-7 0q0 2 .6 3 .6.9 2 .9t2-1q.6-1 .6-2.9t-.6-2.8q-.6-1-2-1t-2 1q-.6 1-.6 2.8zm14.1 5.2h-1l-.8-.4-.6-.4-.5-.6v5.7h-1.6V41.2h1.3l.3 1.3.5-.6.6-.5.8-.3 1-.1q.8 0 1.5.3t1.2 1q.5.6.8 1.6.3 1 .3 2.2 0 1.3-.3 2.3-.3 1-.8 1.6-.5.7-1.2 1-.7.3-1.5.3zm-.3-9q-.7 0-1.2.3-.5.2-.8.6-.3.4-.4 1l-.2 1.6v.3l.1 1.7.5 1.2q.3.5.7.7.5.3 1.3.3 1.2 0 1.8-1 .6-1 .6-2.9t-.6-2.8q-.6-1-1.8-1zm13.2 8.9l-.3-1.4-.6.7-.7.5-.8.2-.8.1q-.9 0-1.5-.2t-1-.6q-.5-.5-.7-1.2-.2-.7-.2-1.6v-6.5h1.7v6.4q0 1.2.5 1.8.4.6 1.4.6.8 0 1.3-.3.5-.2.8-.7.3-.4.4-1.1.2-.7.2-1.6v-5.1h1.6v10H148zm6.2 0h-1.7V37h1.7v14.2zm8.8 0l-.4-1.4-.7.7-.6.5-.8.2-1 .1-1.2-.1q-.5-.2-.9-.6-.4-.4-.6-1-.2-.5-.2-1.2 0-1.5 1-2.3 1-.8 3.2-1h1.7v-.6l-.1-1-.4-.7-.6-.3q-.4-.2-.9-.2-.7 0-1.4.3l-1.2.5-.6-1.3 1.5-.6q.8-.2 1.7-.2 1 0 1.6.2.7.1 1.2.5l.6 1q.3.7.3 1.6v6.9h-1.2zm-3-1.2l1-.2q.4-.1.8-.5.3-.3.5-.9.2-.5.2-1.2v-1l-1.3.1q-.8 0-1.4.2l-.9.4-.4.6q-.2.4-.2.9 0 .8.4 1.2.5.4 1.2.4zm10.2 0h.8l.4-.1.2-.1V51l-.3.2h-.4l-.5.1h-.4l-1-.1-1-.5-.5-1-.1-1.5v-5.8h-1.5v-.7l1.5-.7.7-2.1h1v2.3h2.4v1.2H169v5.8q0 .9.3 1.3.3.5 1 .5zm5 1.2h-1.7v-10h1.7v10zm-1.8-12.7q0-.6.3-.8.3-.3.7-.3h.4l.3.3.2.3v.5q0 .5-.2.7-.3.3-.7.3-.4 0-.7-.3-.3-.2-.3-.7zm13.1 7.6q0 1.3-.3 2.3-.3 1-.9 1.6-.5.6-1.3 1-.8.3-1.9.3-.9 0-1.7-.3-.8-.4-1.4-1l-.9-1.6q-.3-1-.3-2.3 0-1.2.3-2.2.3-1 .9-1.6.5-.6 1.4-1 .8-.3 1.8-.3t1.7.3q.8.4 1.4 1 .6.7.9 1.6.3 1 .3 2.2zm-7 0q0 2 .6 3 .7.9 2 .9 1.5 0 2-1 .7-1 .7-2.9t-.6-2.8q-.6-1-2-1t-2 1q-.7 1-.7 2.8zm15.9 5v-6.4q0-1.2-.5-1.8-.5-.6-1.5-.6-.7 0-1.2.3-.5.2-.8.7-.3.4-.5 1.1l-.1 1.6v5.2H189v-10h1.4l.2 1.3h.1l.5-.7.7-.5.8-.2.9-.1q1.7 0 2.5.8.8 1 .8 2.8v6.6h-1.6zm19.6-6.7q0 1.7-.4 3-.5 1.2-1.3 2-.8.9-2 1.3-1.2.5-2.8.5h-3.3V37.8h3.7q1.4 0 2.5.5 1.2.4 2 1.2.7.8 1.2 2 .4 1.3.4 2.9zm-1.8 0q0-1.3-.3-2.3-.3-1-.9-1.6-.5-.6-1.4-1-.8-.2-1.9-.2h-1.8v10.4h1.5q2.4 0 3.6-1.3 1.2-1.4 1.2-4zm6.2 6.8h-1.7v-10h1.7v10zm-1.8-12.7q0-.6.3-.8.3-.3.7-.3h.3l.4.3.2.3v.5q0 .5-.2.7-.3.3-.7.3-.4 0-.7-.3-.3-.2-.3-.7zm11 10q0 .6-.3 1.2l-.8 1-1.2.5-1.6.1-1.7-.1-1.2-.5v-1.5l.6.3.7.2.8.2h1.8q.5-.1.7-.3.3-.2.4-.5l.1-.6V48l-.4-.4-.7-.5-1-.5-1.2-.5-1-.6-.5-.8-.2-1q0-.7.3-1.2.2-.5.7-.8.4-.4 1-.6l1.5-.1q.9 0 1.6.2l1.4.5-.6 1.3-1.2-.5q-.6-.2-1.3-.2-.9 0-1.3.4-.5.3-.5.8l.1.6.4.4.7.5 1 .4 1.2.6q.5.2.9.6.4.3.5.8.2.4.2 1zm5.4 1.5h.8l.3-.1.3-.1V51l-.4.2h-.3l-.5.1h-.5l-1-.1-.9-.5-.5-1q-.2-.6-.2-1.5v-5.8h-1.4v-.7l1.4-.7.7-2.1h1v2.3h2.5v1.2h-2.5v5.8q0 .9.2 1.3.3.5 1 .5zm7.6-9h1.2l-.2 1.6h-.6l-.5-.1-1 .2q-.5.3-.8.7-.4.4-.6 1l-.1 1.4v5.4h-1.7v-10h1.4l.2 1.8.5-.8.6-.6.7-.5 1-.1zm4.8 10.2h-1.7v-10h1.7v10zm-1.8-12.7q0-.6.3-.8.3-.3.7-.3h.4l.3.3.2.3v.5q0 .5-.2.7-.3.3-.7.3-.4 0-.7-.3-.3-.2-.3-.7zM254 41q.8 0 1.5.3t1.2 1q.5.6.8 1.6.3 1 .3 2.2 0 1.3-.3 2.3-.3 1-.8 1.6-.5.7-1.2 1-.7.3-1.5.3h-1l-.8-.4-.6-.4-.5-.6-.4 1.3h-1.2V37h1.6V42.5q.2-.4.5-.6l.6-.5.8-.3 1-.1zm-.3 1.3q-.8 0-1.3.3-.4.2-.7.7l-.5 1.2v3.3l.5 1.2q.3.5.7.7.5.3 1.3.3 1.2 0 1.8-1 .6-1 .6-2.9t-.6-2.8q-.6-1-1.8-1zm13.2 8.9l-.3-1.4-.6.7-.7.5-.8.2-.8.1q-.9 0-1.5-.2t-1-.6q-.5-.5-.7-1.2-.2-.7-.2-1.6v-6.5h1.7v6.4q0 1.2.5 1.8.4.6 1.4.6.8 0 1.3-.3.5-.2.8-.7.3-.4.4-1.1.2-.7.2-1.6v-5.1h1.6v10H267zm7.5-1.2h.8l.3-.1.3-.1V51l-.3.2h-.4l-.5.1h-.5l-1-.1-.8-.5q-.4-.4-.6-1-.2-.6-.2-1.5v-5.8h-1.4v-.7l1.4-.7.7-2.1h1v2.3h2.5v1.2h-2.5v5.8q0 .9.3 1.3.3.5 1 .5zm5 1.2h-1.7v-10h1.7v10zm-1.8-12.7q0-.6.3-.8.2-.3.6-.3h.4l.3.3q.2 0 .2.3l.1.5q0 .5-.3.7-.2.3-.7.3-.4 0-.6-.3-.3-.2-.3-.7zm13 7.6q0 1.3-.2 2.3-.3 1-.9 1.6-.6.6-1.4 1-.8.3-1.8.3t-1.7-.3q-.8-.4-1.4-1-.6-.7-1-1.6-.2-1-.2-2.3 0-1.2.3-2.2.3-1 .9-1.6.5-.6 1.3-1 .9-.3 1.9-.3.9 0 1.7.3.8.4 1.4 1l.9 1.6q.3 1 .3 2.2zm-7 0q0 2 .7 3 .6.9 2 .9t2-1q.7-1 .7-2.9t-.6-2.8q-.7-1-2-1-1.5 0-2.1 1-.6 1-.6 2.8zm16 5v-6.4q0-1.2-.5-1.8-.5-.6-1.5-.6-.8 0-1.3.3-.5.2-.8.7-.3.4-.4 1.1L295 46v5.2h-1.7v-10h1.4l.2 1.3.6-.7.7-.5.8-.2.9-.1q1.6 0 2.5.8.8 1 .8 2.8v6.6h-1.7z"/><path fill="#6aa84f" d="M122.4 251.5c0-5.1 4.2-9.3 9.4-9.3a9.4 9.4 0 019.4 9.3 9.4 9.4 0 11-18.7 0z" fill-rule="evenodd"/><path fill="#c00" d="M202.4 215.3c0-5.1 4.2-9.3 9.4-9.3a9.4 9.4 0 019.4 9.3 9.4 9.4 0 11-18.7 0z" fill-rule="evenodd"/><path fill="#3c78d8" d="M202.4 131.5c0-5.1 4.2-9.3 9.4-9.3a9.4 9.4 0 019.4 9.3 9.4 9.4 0 11-18.7 0z" fill-rule="evenodd"/><path fill="#000" fill-opacity="0" d="M474.5 348V54" fill-rule="evenodd"/><path stroke="#000" stroke-width="2" stroke-linejoin="round" stroke-linecap="butt" d="M474.5 348V66" fill-rule="evenodd"/><path fill="#000" stroke="#000" stroke-width="2" stroke-linecap="butt" d="M477.8 66l-3.3-9-3.3 9z" fill-rule="evenodd"/><path fill="#000" fill-opacity="0" d="M474 347.6h294" fill-rule="evenodd"/><path stroke="#000" stroke-width="2" stroke-linejoin="round" stroke-linecap="butt" d="M474 347.6h282" fill-rule="evenodd"/><path fill="#000" stroke="#000" stroke-width="2" stroke-linecap="butt" d="M756 350.9l9.1-3.3-9-3.3z" fill-rule="evenodd"/><path fill="#000" fill-opacity="0" d="M490.1 347.6H752v49.3H490z" fill-rule="evenodd"/><path fill="#000" d="M620.3 379.2h-2l-3.2-5.8-3.3 5.8h-1.7l4.1-7-3.8-6.4h1.8l3 5.1 3-5h1.8L616 372l4.2 7zM629.4 386.2h-1v-5.6-.6-.5-.6-.5l-.2.2-.1.2-.2.1-.2.2-1 .7-.5-.7 2.3-1.8h1v8.9z"/><path fill="#000" fill-opacity="0" d="M425.2 332V70h49.3V332z" fill-rule="evenodd"/><path fill="#000" d="M456.8 201.8v2l-5.8 3.1 5.8 3.4v1.7l-7-4.1-6.3 3.8V210l5-3-5-3V202l6.3 3.8 7-4.1zM463.8 190.8v5.6h-1l-2.3-2.2-.9-.8-.8-.6-.8-.4-.8-.1-.7.1q-.2 0-.4.3l-.3.4-.1.6q0 .6.2 1l.6 1-.7.6-.4-.5-.3-.7-.3-.6v-.8l.1-1 .5-.8q.3-.4.7-.5l1-.2 1 .1 1 .5.9.7.9.8 1.8 1.7v-4.2h1z"/><path fill="#000" fill-opacity="0" d="M490.1 19.6H752v49.3H490z" fill-rule="evenodd"/><path fill="#000" d="M522.7 51.2h-4.8v-1l1.5-.3V39l-1.5-.3v-1h4.8v1l-1.6.3V50l1.6.3v1zm8.6 0v-6.5q0-1.2-.5-1.8-.5-.6-1.5-.6-.7 0-1.2.3-.5.2-.8.7-.4.4-.5 1.1l-.1 1.6v5.2H525v-10h1.4l.2 1.3h.1l.5-.7.7-.5.8-.2.9-.1q1.7 0 2.5.8.8 1 .8 2.8v6.6h-1.6zm10.9-1.4l-.6.6q-.2.3-.6.5l-.8.3-1 .1q-.8 0-1.5-.3t-1.2-1q-.5-.6-.8-1.6-.2-1-.2-2.2 0-1.3.2-2.3.3-1 .8-1.6.5-.7 1.2-1 .7-.3 1.6-.3h1l.7.4q.4.2.6.5l.5.5h.1v-.6-.5V37h1.6v14.2h-1.4l-.2-1.4zm-2.6.2q.7 0 1.1-.2.5-.3.8-.7l.5-1 .1-1.6v-.3l-.1-1.7q-.1-.7-.4-1.2-.3-.5-.8-.7-.5-.3-1.3-.3-1.2 0-1.8 1-.5 1-.5 2.9t.5 2.8q.6 1 1.9 1zm9 1.2H547v-10h1.7v10zm-1.8-12.7q0-.6.3-.8.3-.3.7-.3h.4l.3.3.2.3v.5q0 .5-.2.7-.3.3-.7.3-.4 0-.7-.3-.3-.2-.3-.7zm6.8 12.7l-3.4-10h1.7l1.8 5.5.2.8.3 1 .3.9.1.6.2-.6.3-1 .3-.9.2-.8 1.8-5.5h1.7l-3.4 10h-2.1zm8.8 0h-1.7v-10h1.7v10zm-1.8-12.7q0-.6.3-.8.2-.3.6-.3h.4l.3.3q.2 0 .2.3l.1.5q0 .5-.3.7-.3.3-.7.3-.4 0-.6-.3-.3-.2-.3-.7zm11.1 11.3l-.5.6-.7.5-.7.3-1 .1q-.9 0-1.6-.3-.7-.3-1.2-1-.5-.6-.8-1.6-.2-1-.2-2.2 0-1.3.2-2.3.3-1 .8-1.6.5-.7 1.2-1 .7-.3 1.6-.3h1l.7.4.7.5.4.5h.1v-.6-.5V37h1.6v14.2h-1.4l-.2-1.4zm-2.6.2q.7 0 1.2-.2l.7-.7.5-1 .1-1.6v-.3-1.7l-.5-1.2q-.3-.5-.8-.7-.5-.3-1.2-.3-1.2 0-1.8 1-.6 1-.6 2.9t.6 2.8q.6 1 1.8 1zm13.8 1.2l-.2-1.4h-.1l-.5.7-.7.5-.8.2-.9.1q-.8 0-1.4-.2-.7-.2-1-.6-.5-.5-.7-1.2-.2-.7-.2-1.6v-6.5h1.6v6.4q0 1.2.5 1.8.5.6 1.5.6.7 0 1.2-.3.6-.2.9-.7.3-.4.4-1.1l.1-1.6v-5.1h1.7v10h-1.4zm10.2 0l-.3-1.4h-.1l-.6.7-.7.5q-.3.2-.8.2l-1 .1-1.1-.1q-.6-.2-1-.6l-.6-1q-.2-.5-.2-1.2 0-1.5 1-2.3 1.1-.8 3.3-1h1.6v-.6-1l-.5-.7-.6-.3-.8-.2q-.8 0-1.4.3l-1.3.5-.6-1.3 1.5-.6 1.8-.2q.9 0 1.6.2.7.1 1.1.5l.7 1q.2.7.2 1.6v6.9H593zm-3-1.2l1-.2q.5-.1.8-.5.3-.3.5-.9.2-.5.2-1.2v-1l-1.3.1q-.8 0-1.4.2l-.8.4q-.4.3-.5.6-.2.4-.2.9 0 .8.5 1.2.4.4 1.2.4zm9 1.2h-1.8V37h1.7v14.2zm9-2.8q0 .7-.2 1.3l-.8 1-1.2.5-1.5.1-1.7-.1-1.3-.5v-1.5l.6.3.8.2.8.2h1.8l.6-.3q.3-.2.4-.5l.1-.6V48l-.4-.4-.6-.5-1.1-.5-1.2-.5-.9-.6-.5-.8-.2-1q0-.7.2-1.2.3-.5.7-.8.5-.4 1.1-.6l1.4-.1q1 0 1.6.2l1.4.5-.5 1.3-1.2-.5-1.3-.2q-1 0-1.4.4-.4.3-.4.8v.6l.4.4.7.5 1 .4 1.2.6 1 .6.5.8q.2.4.2 1zm3.8-10.6l.2.2-.3 1-.4 1.2-.5 1.1-.4 1.1h-1.3l.3-1.1.2-1.2.2-1.2.2-1h1.8zm16.8 6.6q0 1.7-.4 3-.4 1.2-1.3 2-.8.9-2 1.3-1.2.5-2.7.5h-3.4V37.8h3.7q1.4 0 2.6.5 1 .4 1.9 1.2.8.8 1.2 2 .4 1.3.4 2.9zm-1.8 0q0-1.3-.2-2.3-.3-1-1-1.6-.5-.6-1.3-1-.9-.2-2-.2h-1.8v10.4h1.5q2.4 0 3.6-1.3 1.2-1.4 1.2-4zm6.2 6.8h-1.6v-10h1.6v10zm-1.8-12.7q0-.6.3-.8.3-.3.7-.3h.4l.3.3.2.3v.5q0 .5-.2.7-.3.3-.7.3-.4 0-.7-.3-.3-.2-.3-.7zm11 10q0 .6-.3 1.2-.2.5-.7 1l-1.2.5-1.6.1-1.7-.1-1.3-.5v-1.5l.7.3.7.2.8.2h1.8l.7-.3.3-.5q.2-.2.2-.6l-.1-.5-.4-.4-.6-.5-1-.5-1.3-.5-.9-.6-.5-.8-.2-1q0-.7.2-1.2.3-.5.7-.8.5-.4 1.1-.6l1.4-.1q1 0 1.7.2l1.3.5-.5 1.3-1.2-.5-1.3-.2q-1 0-1.4.4-.4.3-.4.8v.6l.4.4.7.5 1 .4 1.2.6q.6.2 1 .6l.5.8q.2.4.2 1zm5.4 1.5h.8l.3-.1.3-.1V51l-.3.2h-.4l-.5.1h-.4l-1-.1-1-.5-.5-1q-.2-.6-.2-1.5v-5.8h-1.4v-.7l1.4-.7.7-2.1h1v2.3h2.5v1.2h-2.5v5.8q0 .9.3 1.3.3.5 1 .5zm7.7-9h1.1l-.2 1.6h-.5l-.5-.1q-.6 0-1 .2-.6.3-.9.7l-.5 1q-.2.6-.2 1.4v5.4H651v-10h1.4l.2 1.8.5-.8.6-.6.7-.5 1-.1zm4.7 10.2h-1.6v-10h1.6v10zm-1.8-12.7q0-.6.3-.8.3-.3.7-.3h.4l.3.3.2.3v.5q0 .5-.2.7-.3.3-.7.3-.4 0-.7-.3-.3-.2-.3-.7zm9.5 2.5q.9 0 1.6.3.7.3 1.2 1 .5.6.7 1.6.3 1 .3 2.2 0 1.3-.3 2.3-.2 1-.7 1.6-.5.7-1.2 1-.7.3-1.6.3h-1l-.8-.4-.6-.4-.4-.6h-.1l-.4 1.3h-1.2V37h1.7V41.7l-.1.8.5-.6.6-.5.8-.3 1-.1zm-.3 1.3q-.7 0-1.2.3-.5.2-.8.7-.3.5-.4 1.2L665 46v1.7l.5 1.2q.3.5.8.7.5.3 1.2.3 1.3 0 1.8-1 .6-1 .6-2.9t-.6-2.8q-.5-1-1.8-1zm13.2 8.9l-.2-1.4h-.1q-.2.4-.6.7l-.6.5-.8.2-1 .1-1.4-.2q-.6-.2-1-.6-.4-.5-.6-1.2-.2-.7-.2-1.6v-6.5h1.6v6.4q0 1.2.5 1.8.5.6 1.5.6.7 0 1.2-.3.5-.2.8-.7.3-.4.5-1.1l.1-1.6v-5.1h1.7v10h-1.4zm7.5-1.2h.8l.4-.1.2-.1V51l-.3.2h-.4l-.5.1h-.4l-1-.1-1-.5-.5-1-.1-1.5v-5.8h-1.5v-.7l1.5-.7.7-2.1h1v2.3h2.4v1.2H687v5.8q0 .9.3 1.3.3.5 1 .5zm5 1.2h-1.7v-10h1.7v10zm-1.8-12.7q0-.6.3-.8.3-.3.7-.3h.4l.3.3.2.3v.5q0 .5-.2.7-.3.3-.7.3-.4 0-.7-.3-.3-.2-.3-.7zm13.1 7.6q0 1.3-.3 2.3-.3 1-.9 1.6-.5.6-1.3 1-.8.3-1.9.3-.9 0-1.7-.3-.8-.4-1.4-1l-.9-1.6q-.3-1-.3-2.3 0-1.2.3-2.2.3-1 .9-1.6.6-.6 1.4-1 .8-.3 1.8-.3t1.7.3q.8.4 1.4 1 .6.7.9 1.6.3 1 .3 2.2zm-7 0q0 2 .6 3 .7.9 2 .9 1.5 0 2-1 .7-1 .7-2.9t-.6-2.8q-.6-1-2-1t-2 1q-.7 1-.7 2.8zm15.9 5v-6.4q0-1.2-.5-1.8-.5-.6-1.5-.6-.7 0-1.2.3-.5.2-.8.7-.3.4-.5 1.1l-.1 1.6v5.2h-1.7v-10h1.4l.2 1.3h.1q.2-.4.6-.7l.6-.5.8-.2.9-.1q1.7 0 2.5.8.8 1 .8 2.8v6.6h-1.6zm10.7-2.7q0 .7-.3 1.3-.2.5-.7 1l-1.2.5-1.6.1-1.7-.1-1.2-.5v-1.5l.6.3.7.2.8.2h1.8l.7-.3q.3-.2.4-.5v-.6-.5q0-.2-.3-.4l-.7-.5-1-.5-1.2-.5-1-.6-.5-.8-.2-1q0-.7.3-1.2.2-.5.7-.8.4-.4 1-.6l1.5-.1q.9 0 1.6.2l1.4.5-.6 1.3-1.2-.5q-.6-.2-1.3-.2-1 0-1.4.4-.4.3-.4.8l.1.6.4.4.6.5 1.1.4 1.2.6q.5.2.9.6l.5.8q.2.4.2 1z"/><path fill="#3c78d8" d="M623.7 107.5c0-2.3 1.8-4.1 4.1-4.1a4.2 4.2 0 014.2 4.1c0 2.3-1.9 4.2-4.2 4.2a4.2 4.2 0 01-4.1-4.2zM628.6 126.6c0-2.3 1.9-4.2 4.2-4.2a4.2 4.2 0 014.1 4.2c0 2.3-1.8 4.1-4.1 4.1a4.2 4.2 0 01-4.2-4.1zM615.7 139.5c0-2.3 1.8-4.1 4.1-4.1a4.2 4.2 0 014.2 4.1c0 2.3-1.9 4.2-4.2 4.2a4.2 4.2 0 01-4.1-4.2zM615.7 155.5c0-2.3 1.8-4.1 4.1-4.1a4.2 4.2 0 014.2 4.1c0 2.3-1.9 4.2-4.2 4.2a4.2 4.2 0 01-4.1-4.2zM655.7 91.5c0-2.3 1.8-4.1 4.1-4.1a4.2 4.2 0 014.2 4.1c0 2.3-1.9 4.2-4.2 4.2a4.2 4.2 0 01-4.1-4.2z" fill-rule="evenodd"/><path fill="#c00" d="M639.7 179.5c0-2.3 1.8-4.1 4.1-4.1a4.2 4.2 0 014.2 4.1c0 2.3-1.9 4.2-4.2 4.2a4.2 4.2 0 01-4.1-4.2zM615.7 195.5c0-2.3 1.8-4.1 4.1-4.1a4.2 4.2 0 014.2 4.1c0 2.3-1.9 4.2-4.2 4.2a4.2 4.2 0 01-4.1-4.2zM631.7 211.5c0-2.3 1.8-4.1 4.1-4.1a4.2 4.2 0 014.2 4.1c0 2.3-1.9 4.2-4.2 4.2a4.2 4.2 0 01-4.1-4.2zM639.7 227.5c0-2.3 1.8-4.1 4.1-4.1a4.2 4.2 0 014.2 4.1c0 2.3-1.9 4.2-4.2 4.2a4.2 4.2 0 01-4.1-4.2zM615.7 219.5c0-2.3 1.8-4.1 4.1-4.1a4.2 4.2 0 014.2 4.1c0 2.3-1.9 4.2-4.2 4.2a4.2 4.2 0 01-4.1-4.2zM615.7 235.5c0-2.3 1.8-4.1 4.1-4.1a4.2 4.2 0 014.2 4.1c0 2.3-1.9 4.2-4.2 4.2a4.2 4.2 0 01-4.1-4.2zM599.7 251.5c0-2.3 1.8-4.1 4.1-4.1a4.2 4.2 0 014.2 4.1c0 2.3-1.9 4.2-4.2 4.2a4.2 4.2 0 01-4.1-4.2z" fill-rule="evenodd"/><path fill="#6aa84f" d="M543.7 251.5c0-2.3 1.8-4.1 4.1-4.1a4.2 4.2 0 014.2 4.1c0 2.3-1.9 4.2-4.2 4.2a4.2 4.2 0 01-4.1-4.2zM559.7 267.5c0-2.3 1.8-4.1 4.1-4.1a4.2 4.2 0 014.2 4.1c0 2.3-1.9 4.2-4.2 4.2a4.2 4.2 0 01-4.1-4.2zM559.7 243.5c0-2.3 1.8-4.1 4.1-4.1a4.2 4.2 0 014.2 4.1c0 2.3-1.9 4.2-4.2 4.2a4.2 4.2 0 01-4.1-4.2zM551.7 219.5c0-2.3 1.8-4.1 4.1-4.1a4.2 4.2 0 014.2 4.1c0 2.3-1.9 4.2-4.2 4.2a4.2 4.2 0 01-4.1-4.2zM535.7 243.5c0-2.3 1.8-4.1 4.1-4.1a4.2 4.2 0 014.2 4.1c0 2.3-1.9 4.2-4.2 4.2a4.2 4.2 0 01-4.1-4.2zM519.7 275.5c0-2.3 1.8-4.1 4.1-4.1a4.2 4.2 0 014.2 4.1c0 2.3-1.9 4.2-4.2 4.2a4.2 4.2 0 01-4.1-4.2zM567.7 227.5c0-2.3 1.8-4.1 4.1-4.1a4.2 4.2 0 014.2 4.1c0 2.3-1.9 4.2-4.2 4.2a4.2 4.2 0 01-4.1-4.2z" fill-rule="evenodd"/></g></svg>