<svg version="1.1" viewBox="0.0 0.0 952.4225721784777 413.0839895013123" fill="none" stroke="none" stroke-linecap="square" stroke-miterlimit="10" xmlns:xlink="http://www.w3.org/1999/xlink" xmlns="http://www.w3.org/2000/svg"><clipPath id="p.0"><path d="m0 0l952.42255 0l0 413.08398l-952.42255 0l0 -413.08398z" clip-rule="nonzero"/></clipPath><g clip-path="url(#p.0)"><path fill="#000000" fill-opacity="0.0" d="m0 0l952.42255 0l0 413.08398l-952.42255 0z" fill-rule="evenodd"/><path fill="#000000" fill-opacity="0.0" d="m307.28824 121.137764l0 0c100.3172 -48.48343 228.60013 -54.190155 336.2803 -14.959602l-150.4032 218.77722z" fill-rule="evenodd"/><path fill="#000000" fill-opacity="0.0" d="m307.28824 121.137764l0 0c100.3172 -48.48343 228.60013 -54.190155 336.2803 -14.959602" fill-rule="evenodd"/><path stroke="#a4c2f4" stroke-width="2.0" stroke-linejoin="round" stroke-linecap="butt" stroke-dasharray="8.0,6.0" d="m307.28824 121.137764l0 0c50.1586 -24.241714 107.308624 -37.789253 165.37903 -40.372543c29.035187 -1.2916489 58.300507 0.15776825 87.03702 4.382004c14.368286 2.1121292 28.60431 4.917938 42.61328 8.421692c7.0045166 1.7518768 13.9522705 3.6782303 20.83136 5.779602c3.4395752 1.0506744 6.8619995 2.145111 10.265747 3.2833633c0.42547607 0.14228058 0.850647 0.2852478 1.2755127 0.42889404l0.3880005 0.13188934" fill-rule="evenodd"/><path fill="#a4c2f4" stroke="#a4c2f4" stroke-width="2.0" stroke-linecap="butt" d="m634.34454 105.279l6.4657593 -0.07072449l-4.998535 -4.1019363z" fill-rule="evenodd"/><path fill="#000000" fill-opacity="0.0" d="m311.24826 197.68272l0 0c100.3172 -48.483414 228.60019 -54.190155 336.28036 -14.959595l-150.40323 218.7772z" fill-rule="evenodd"/><path fill="#000000" fill-opacity="0.0" d="m311.24826 197.68272l0 0c100.3172 -48.483414 228.60019 -54.190155 336.28036 -14.959595" fill-rule="evenodd"/><path stroke="#ea9999" stroke-width="2.0" stroke-linejoin="round" stroke-linecap="butt" stroke-dasharray="8.0,6.0" d="m311.2483 197.68272l0 0c50.15857 -24.241714 107.308624 -37.789246 165.379 -40.372543c29.035248 -1.2916412 58.300507 0.15777588 87.03702 4.382004c14.368286 2.1121216 28.60431 4.917938 42.613342 8.421692c7.0044556 1.7518768 13.952209 3.6782227 20.831299 5.779602c3.4395752 1.0506592 6.8619995 2.145111 10.265747 3.2833557c0.42547607 0.14228821 0.850647 0.2852478 1.2755127 0.4289093l0.3880005 0.13186646" fill-rule="evenodd"/><path fill="#ea9999" stroke="#ea9999" stroke-width="2.0" stroke-linecap="butt" d="m638.30457 181.82396l6.4657593 -0.07072449l-4.998535 -4.101944z" fill-rule="evenodd"/><path fill="#000000" fill-opacity="0.0" d="m227.28824 264.773l0 0c100.3172 48.4834 228.60016 54.190155 336.2803 14.959595l-150.4032 -218.77722z" fill-rule="evenodd"/><path fill="#000000" fill-opacity="0.0" d="m227.28824 264.773l0 0c100.3172 48.4834 228.60016 54.190155 336.2803 14.959595" fill-rule="evenodd"/><path stroke="#b6d7a8" stroke-width="2.0" stroke-linejoin="round" stroke-linecap="butt" stroke-dasharray="8.0,6.0" d="m227.28824 264.773l0 0c50.1586 24.2417 107.308624 37.789246 165.37903 40.372528c29.035187 1.2916565 58.300507 -0.15777588 87.03702 -4.382019c14.368256 -2.1121216 28.60431 -4.917938 42.61328 -8.421661c7.0045166 -1.7518921 13.9522705 -3.6782532 20.83136 -5.7796326c3.4395752 -1.0506592 6.8619995 -2.145111 10.265747 -3.2833557c0.42547607 -0.14227295 0.850647 -0.2852478 1.2755127 -0.42889404l0.3880005 -0.13189697" fill-rule="evenodd"/><path fill="#b6d7a8" stroke="#b6d7a8" stroke-width="2.0" stroke-linecap="butt" d="m555.81177 284.8044l4.998535 -4.1019287l-6.4657593 -0.070739746z" fill-rule="evenodd"/><path fill="#000000" fill-opacity="0.0" d="m590.6651 234.70079l0 0c16.664246 -28.857971 43.231018 -44.714844 59.338623 -35.417328l0 0c7.7351074 4.4648285 11.974487 14.251892 11.785461 27.208145c-0.18902588 12.956253 -4.7908936 28.020386 -12.793335 41.87848l0 0c-16.664246 28.85794 -43.231018 44.714844 -59.338623 35.417328l0 0c-16.107544 -9.297546 -15.656311 -40.22867 1.0078735 -69.086624z" fill-rule="evenodd"/><path stroke="#d9ead3" stroke-width="2.0" stroke-linejoin="round" stroke-linecap="butt" d="m590.6651 234.70079l0 0c16.664246 -28.857971 43.231018 -44.714844 59.338623 -35.417328l0 0c7.7351074 4.4648285 11.974487 14.251892 11.785461 27.208145c-0.18902588 12.956253 -4.7908936 28.020386 -12.793335 41.87848l0 0c-16.664246 28.85794 -43.231018 44.714844 -59.338623 35.417328l0 0c-16.107544 -9.297546 -15.656311 -40.22867 1.0078735 -69.086624z" fill-rule="evenodd"/><path fill="#000000" fill-opacity="0.0" d="m600.38983 240.31648l0 0c11.106567 -19.238632 28.81073 -29.80754 39.543335 -23.606293l0 0c5.1539307 2.9779358 7.9780884 9.503983 7.851074 18.142471c-0.12701416 8.638489 -3.1947021 18.681793 -8.528259 27.920532l0 0c-11.106567 19.238617 -28.81073 29.807526 -39.543335 23.606293l0 0c-10.732544 -6.2012634 -10.429382 -26.82434 0.67718506 -46.063004z" fill-rule="evenodd"/><path stroke="#b6d7a8" stroke-width="2.0" stroke-linejoin="round" stroke-linecap="butt" d="m600.38983 240.31648l0 0c11.106567 -19.238632 28.81073 -29.80754 39.543335 -23.606293l0 0c5.1539307 2.9779358 7.9780884 9.503983 7.851074 18.142471c-0.12701416 8.638489 -3.1947021 18.681793 -8.528259 27.920532l0 0c-11.106567 19.238617 -28.81073 29.807526 -39.543335 23.606293l0 0c-10.732544 -6.2012634 -10.429382 -26.82434 0.67718506 -46.063004z" fill-rule="evenodd"/><path fill="#000000" fill-opacity="0.0" d="m609.9629 245.84682l0 0c5.6359253 -9.758469 14.625427 -15.116959 20.078735 -11.968506l0 0c2.6187134 1.5119476 4.0551147 4.8235474 3.993103 9.206284c-0.062072754 4.3827515 -1.6173706 9.477615 -4.3238525 14.163788l0 0c-5.6358643 9.758484 -14.625427 15.116974 -20.078735 11.968506l0 0c-5.453247 -3.1484375 -5.305176 -13.611588 0.3307495 -23.370071z" fill-rule="evenodd"/><path stroke="#93c47d" stroke-width="2.0" stroke-linejoin="round" stroke-linecap="butt" d="m609.9629 245.84682l0 0c5.6359253 -9.758469 14.625427 -15.116959 20.078735 -11.968506l0 0c2.6187134 1.5119476 4.0551147 4.8235474 3.993103 9.206284c-0.062072754 4.3827515 -1.6173706 9.477615 -4.3238525 14.163788l0 0c-5.6358643 9.758484 -14.625427 15.116974 -20.078735 11.968506l0 0c-5.453247 -3.1484375 -5.305176 -13.611588 0.3307495 -23.370071z" fill-rule="evenodd"/><path fill="#000000" fill-opacity="0.0" d="m670.6651 199.43576l0 0c16.664246 -28.857971 43.231018 -44.714844 59.338623 -35.417328l0 0c7.7351074 4.4648285 11.974487 14.251877 11.785461 27.20813c-0.18902588 12.956268 -4.7908936 28.020401 -12.793335 41.87848l0 0c-16.664246 28.857971 -43.231018 44.714844 -59.338623 35.417328l0 0c-16.107544 -9.297516 -15.656311 -40.228653 1.0078735 -69.08661z" fill-rule="evenodd"/><path stroke="#f4cccc" stroke-width="2.0" stroke-linejoin="round" stroke-linecap="butt" d="m670.6651 199.43576l0 0c16.664246 -28.857971 43.231018 -44.714844 59.338623 -35.417328l0 0c7.7351074 4.4648285 11.974487 14.251877 11.785461 27.20813c-0.18902588 12.956268 -4.7908936 28.020401 -12.793335 41.87848l0 0c-16.664246 28.857971 -43.231018 44.714844 -59.338623 35.417328l0 0c-16.107544 -9.297516 -15.656311 -40.228653 1.0078735 -69.08661z" fill-rule="evenodd"/><path fill="#000000" fill-opacity="0.0" d="m680.38983 205.05145l0 0c11.106567 -19.238647 28.81073 -29.80754 39.543335 -23.606293l0 0c5.1539307 2.9779358 7.9780884 9.503983 7.851074 18.142471c-0.12701416 8.638489 -3.1947021 18.681793 -8.528259 27.920517l0 0c-11.106567 19.238647 -28.81073 29.807556 -39.543335 23.606293l0 0c-10.732544 -6.201233 -10.429382 -26.82434 0.67718506 -46.06299z" fill-rule="evenodd"/><path stroke="#ea9999" stroke-width="2.0" stroke-linejoin="round" stroke-linecap="butt" d="m680.38983 205.05145l0 0c11.106567 -19.238647 28.81073 -29.80754 39.543335 -23.606293l0 0c5.1539307 2.9779358 7.9780884 9.503983 7.851074 18.142471c-0.12701416 8.638489 -3.1947021 18.681793 -8.528259 27.920517l0 0c-11.106567 19.238647 -28.81073 29.807556 -39.543335 23.606293l0 0c-10.732544 -6.201233 -10.429382 -26.82434 0.67718506 -46.06299z" fill-rule="evenodd"/><path fill="#000000" fill-opacity="0.0" d="m689.9629 210.58179l0 0c5.6359253 -9.758484 14.625427 -15.116959 20.078735 -11.968506l0 0c2.6187134 1.5119476 4.0551147 4.8235474 3.993103 9.206284c-0.062072754 4.382736 -1.6173706 9.477615 -4.3238525 14.163803l0 0c-5.6358643 9.758484 -14.625427 15.116959 -20.078735 11.968506l0 0c-5.453247 -3.148468 -5.305176 -13.611603 0.3307495 -23.370087z" fill-rule="evenodd"/><path stroke="#e06666" stroke-width="2.0" stroke-linejoin="round" stroke-linecap="butt" d="m689.9629 210.58179l0 0c5.6359253 -9.758484 14.625427 -15.116959 20.078735 -11.968506l0 0c2.6187134 1.5119476 4.0551147 4.8235474 3.993103 9.206284c-0.062072754 4.382736 -1.6173706 9.477615 -4.3238525 14.163803l0 0c-5.6358643 9.758484 -14.625427 15.116959 -20.078735 11.968506l0 0c-5.453247 -3.148468 -5.305176 -13.611603 0.3307495 -23.370087z" fill-rule="evenodd"/><path fill="#000000" fill-opacity="0.0" d="m670.6651 115.35446l0 0c16.664246 -28.857964 43.231018 -44.714836 59.338623 -35.41732l0 0c7.7351074 4.464821 11.974487 14.251884 11.785461 27.208138c-0.18902588 12.956253 -4.7908936 28.020386 -12.793335 41.87848l0 0c-16.664246 28.857956 -43.231018 44.714844 -59.338623 35.417313l0 0c-16.107544 -9.297516 -15.656311 -40.228638 1.0078735 -69.08661z" fill-rule="evenodd"/><path stroke="#c9daf8" stroke-width="2.0" stroke-linejoin="round" stroke-linecap="butt" d="m670.6651 115.35446l0 0c16.664246 -28.857964 43.231018 -44.714836 59.338623 -35.41732l0 0c7.7351074 4.464821 11.974487 14.251884 11.785461 27.208138c-0.18902588 12.956253 -4.7908936 28.020386 -12.793335 41.87848l0 0c-16.664246 28.857956 -43.231018 44.714844 -59.338623 35.417313l0 0c-16.107544 -9.297516 -15.656311 -40.228638 1.0078735 -69.08661z" fill-rule="evenodd"/><path fill="#000000" fill-opacity="0.0" d="m680.38983 120.97017l0 0c11.106567 -19.238647 28.81073 -29.807549 39.543335 -23.6063l0 0c5.1539307 2.9779434 7.9780884 9.503983 7.851074 18.142471c-0.12701416 8.638489 -3.1947021 18.6818 -8.528259 27.920525l0 0c-11.106567 19.238632 -28.81073 29.80754 -39.543335 23.606293l0 0c-10.732544 -6.201248 -10.429382 -26.82434 0.67718506 -46.06299z" fill-rule="evenodd"/><path stroke="#a4c2f4" stroke-width="2.0" stroke-linejoin="round" stroke-linecap="butt" d="m680.38983 120.97017l0 0c11.106567 -19.238647 28.81073 -29.807549 39.543335 -23.6063l0 0c5.1539307 2.9779434 7.9780884 9.503983 7.851074 18.142471c-0.12701416 8.638489 -3.1947021 18.6818 -8.528259 27.920525l0 0c-11.106567 19.238632 -28.81073 29.80754 -39.543335 23.606293l0 0c-10.732544 -6.201248 -10.429382 -26.82434 0.67718506 -46.06299z" fill-rule="evenodd"/><path fill="#000000" fill-opacity="0.0" d="m689.9629 126.5005l0 0c5.6359253 -9.758484 14.625427 -15.116966 20.078735 -11.968506l0 0c2.6187134 1.51194 4.0551147 4.8235397 3.993103 9.206276c-0.062072754 4.382744 -1.6173706 9.477608 -4.3238525 14.163795l0 0c-5.6358643 9.758484 -14.625427 15.116974 -20.078735 11.968506l0 0c-5.453247 -3.1484528 -5.305176 -13.611588 0.3307495 -23.370071z" fill-rule="evenodd"/><path stroke="#6d9eeb" stroke-width="2.0" stroke-linejoin="round" stroke-linecap="butt" d="m689.9629 126.5005l0 0c5.6359253 -9.758484 14.625427 -15.116966 20.078735 -11.968506l0 0c2.6187134 1.51194 4.0551147 4.8235397 3.993103 9.206276c-0.062072754 4.382744 -1.6173706 9.477608 -4.3238525 14.163795l0 0c-5.6358643 9.758484 -14.625427 15.116974 -20.078735 11.968506l0 0c-5.453247 -3.1484528 -5.305176 -13.611588 0.3307495 -23.370071z" fill-rule="evenodd"/><path fill="#000000" fill-opacity="0.0" d="m191.94162 173.0447l0 0c33.93724 -58.785706 88.04379 -91.091705 120.8504 -72.15747l0 0c15.754272 9.092537 24.389221 29.026947 24.00531 55.417892c-0.38394165 26.390945 -9.755341 57.076614 -26.052551 85.30652l0 0c-33.937256 58.785706 -88.04382 91.091705 -120.8504 72.15747l0 0c-32.806595 -18.934235 -31.89 -81.93869 2.0472412 -140.72441z" fill-rule="evenodd"/><path stroke="#000000" stroke-width="2.0" stroke-linejoin="round" stroke-linecap="butt" d="m191.94162 173.0447l0 0c33.93724 -58.785706 88.04379 -91.091705 120.8504 -72.15747l0 0c15.754272 9.092537 24.389221 29.026947 24.00531 55.417892c-0.38394165 26.390945 -9.755341 57.076614 -26.052551 85.30652l0 0c-33.937256 58.785706 -88.04382 91.091705 -120.8504 72.15747l0 0c-32.806595 -18.934235 -31.89 -81.93869 2.0472412 -140.72441z" fill-rule="evenodd"/><path fill="#000000" fill-opacity="0.0" d="m211.74069 184.485l0 0c22.621933 -39.190475 58.685913 -60.723106 80.55118 -48.094482l0 0c10.500061 6.0644684 16.254608 19.35675 15.99765 36.952682c-0.2569275 17.595932 -6.504303 38.054153 -17.367737 56.874084l0 0c-22.621918 39.19046 -58.685913 60.723114 -80.55118 48.094482l0 0c-21.86525 -12.628632 -21.251846 -54.63629 1.3700867 -93.82677z" fill-rule="evenodd"/><path stroke="#000000" stroke-width="2.0" stroke-linejoin="round" stroke-linecap="butt" d="m211.74069 184.485l0 0c22.621933 -39.190475 58.685913 -60.723106 80.55118 -48.094482l0 0c10.500061 6.0644684 16.254608 19.35675 15.99765 36.952682c-0.2569275 17.595932 -6.504303 38.054153 -17.367737 56.874084l0 0c-22.621918 39.19046 -58.685913 60.723114 -80.55118 48.094482l0 0c-21.86525 -12.628632 -21.251846 -54.63629 1.3700867 -93.82677z" fill-rule="evenodd"/><path fill="#000000" fill-opacity="0.0" d="m130.49344 348.0525l0 -294.01575" fill-rule="evenodd"/><path stroke="#000000" stroke-width="2.0" stroke-linejoin="round" stroke-linecap="butt" d="m130.49344 348.0525l0 -282.01575" fill-rule="evenodd"/><path fill="#000000" stroke="#000000" stroke-width="2.0" stroke-linecap="butt" d="m133.7969 66.03674l-3.3034668 -9.076195l-3.3034668 9.076195z" fill-rule="evenodd"/><path fill="#000000" fill-opacity="0.0" d="m130.02875 347.5878l294.01575 0" fill-rule="evenodd"/><path stroke="#000000" stroke-width="2.0" stroke-linejoin="round" stroke-linecap="butt" d="m130.02873 347.5878l282.01575 0" fill-rule="evenodd"/><path fill="#000000" stroke="#000000" stroke-width="2.0" stroke-linecap="butt" d="m412.0445 350.89127l9.076202 -3.3034668l-9.076202 -3.3034668z" fill-rule="evenodd"/><path fill="#000000" fill-opacity="0.0" d="m231.23665 195.74205l0 0c11.480576 -19.87355 29.784012 -30.794983 40.88188 -24.393707l0 0c5.3294067 3.0740051 8.250427 9.813293 8.120483 18.735306c-0.12994385 8.921997 -3.300232 19.295883 -8.813385 28.839493l0 0c-11.48056 19.873566 -29.784012 30.794998 -40.88188 24.393707l0 0c-11.097885 -6.401291 -10.787659 -27.701248 0.6929016 -47.5748z" fill-rule="evenodd"/><path stroke="#000000" stroke-width="2.0" stroke-linejoin="round" stroke-linecap="butt" d="m231.23665 195.74205l0 0c11.480576 -19.87355 29.784012 -30.794983 40.88188 -24.393707l0 0c5.3294067 3.0740051 8.250427 9.813293 8.120483 18.735306c-0.12994385 8.921997 -3.300232 19.295883 -8.813385 28.839493l0 0c-11.48056 19.873566 -29.784012 30.794998 -40.88188 24.393707l0 0c-11.097885 -6.401291 -10.787659 -27.701248 0.6929016 -47.5748z" fill-rule="evenodd"/><path fill="#000000" fill-opacity="0.0" d="m146.12335 347.58792l261.82678 0l0 49.29135l-261.82678 0z" fill-rule="evenodd"/><path fill="#000000" d="m276.2903 379.1536l-1.921875 0l-3.21875 -5.78125l-3.34375 5.78125l-1.71875 0l4.125 -6.953125l-3.84375 -6.359375l1.8125 0l3.015625 5.09375l3.046875 -5.09375l1.734375 0l-3.84375 6.296875l4.15625 7.015625z" fill-rule="nonzero"/><path fill="#000000" d="m285.44858 386.1536l-1.0625 0l0 -5.546875q0 -0.265625 0 -0.5625q0 -0.296875 0 -0.578125q0.015625 -0.296875 0.03125 -0.5625q0.015625 -0.28125 0.015625 -0.484375q-0.109375 0.109375 -0.1875 0.1875q-0.078125 0.078125 -0.15625 0.15625q-0.078125 0.0625 -0.171875 0.15625q-0.09375 0.078125 -0.21875 0.1875l-0.90625 0.734375l-0.578125 -0.75l2.328125 -1.8125l0.90625 0l0 8.875z" fill-rule="nonzero"/><path fill="#000000" fill-opacity="0.0" d="m81.2021 331.958l0 -261.82678l49.291336 0l0 261.82678z" fill-rule="evenodd"/><path fill="#000000" d="m112.76777 201.79106l0 1.921875l-5.78125 3.21875l5.78125 3.34375l0 1.71875l-6.953125 -4.125l-6.359375 3.84375l0 -1.8125l5.09375 -3.015625l-5.09375 -3.046875l0 -1.734375l6.296875 3.84375l7.015625 -4.15625z" fill-rule="nonzero"/><path fill="#000000" d="m119.76777 190.8203l0 5.546875l-0.953125 0l-2.3125 -2.125q-0.484375 -0.453125 -0.890625 -0.8125q-0.40625 -0.359375 -0.796875 -0.609375q-0.390625 -0.265625 -0.78125 -0.390625q-0.390625 -0.140625 -0.859375 -0.140625q-0.359375 0 -0.625 0.109375q-0.28125 0.09375 -0.46875 0.296875q-0.1875 0.1875 -0.28125 0.453125q-0.109375 0.25 -0.109375 0.578125q0 0.578125 0.234375 1.046875q0.234375 0.453125 0.609375 0.875l-0.734375 0.625q-0.21875 -0.25 -0.40625 -0.515625q-0.1875 -0.28125 -0.328125 -0.609375q-0.140625 -0.328125 -0.21875 -0.6875q-0.078125 -0.359375 -0.078125 -0.75q0 -0.578125 0.171875 -1.046875q0.15625 -0.46875 0.46875 -0.796875q0.296875 -0.328125 0.734375 -0.5q0.4375 -0.1875 1.0 -0.1875q0.515625 0 0.984375 0.15625q0.453125 0.15625 0.90625 0.453125q0.453125 0.28125 0.921875 0.671875q0.453125 0.390625 0.9375 0.84375l1.8125 1.703125l0.046875 0l0 -4.1875l1.015625 0z" fill-rule="nonzero"/><path fill="#000000" fill-opacity="0.0" d="m146.12335 19.587927l261.82678 0l0 49.291336l-261.82678 0z" fill-rule="evenodd"/><path fill="#000000" d="m189.16614 41.731716q0 0.828125 -0.25 1.59375q-0.25 0.765625 -0.828125 1.359375q-0.578125 0.578125 -1.515625 0.9375q-0.9375 0.34375 -2.328125 0.34375l-1.375 0l0 5.1875l-1.6875 0l0 -13.3125l3.296875 0q1.21875 0 2.09375 0.265625q0.890625 0.25 1.46875 0.75q0.578125 0.484375 0.84375 1.21875q0.28125 0.734375 0.28125 1.65625zm-6.296875 2.796875l1.1875 0q0.84375 0 1.46875 -0.140625q0.640625 -0.15625 1.046875 -0.46875q0.421875 -0.328125 0.625 -0.84375q0.21875 -0.515625 0.21875 -1.25q0 -1.296875 -0.75 -1.921875q-0.75 -0.625 -2.328125 -0.625l-1.46875 0l0 5.25zm16.983582 1.609375q0 1.25 -0.3125 2.21875q-0.296875 0.96875 -0.875 1.625q-0.5625 0.65625 -1.375 1.015625q-0.796875 0.34375 -1.8125 0.34375q-0.9375 0 -1.734375 -0.34375q-0.796875 -0.359375 -1.375 -1.015625q-0.578125 -0.65625 -0.90625 -1.625q-0.3125 -0.96875 -0.3125 -2.21875q0 -1.25 0.296875 -2.203125q0.3125 -0.96875 0.875 -1.625q0.5625 -0.65625 1.375 -1.0q0.828125 -0.34375 1.828125 -0.34375q0.9375 0 1.734375 0.34375q0.796875 0.34375 1.375 1.0q0.578125 0.65625 0.890625 1.625q0.328125 0.953125 0.328125 2.203125zm-7.0 0q0 1.90625 0.625 2.875q0.625 0.953125 2.03125 0.953125q1.40625 0 2.015625 -0.953125q0.625 -0.96875 0.625 -2.875q0 -1.90625 -0.625 -2.84375q-0.625 -0.953125 -2.03125 -0.953125q-1.40625 0 -2.03125 0.953125q-0.609375 0.9375 -0.609375 2.84375zm14.142426 5.203125q-0.546875 0 -0.984375 -0.125q-0.4375 -0.109375 -0.796875 -0.3125q-0.34375 -0.203125 -0.609375 -0.453125q-0.265625 -0.265625 -0.46875 -0.5625l-0.109375 0q0.015625 0.3125 0.046875 0.59375q0.015625 0.234375 0.03125 0.484375q0.03125 0.25 0.03125 0.390625l0 4.28125l-1.671875 0l0 -14.484375l1.359375 0l0.234375 1.34375l0.078125 0q0.203125 -0.3125 0.46875 -0.59375q0.265625 -0.28125 0.609375 -0.484375q0.359375 -0.203125 0.796875 -0.328125q0.4375 -0.125 0.984375 -0.125q0.84375 0 1.546875 0.328125q0.703125 0.328125 1.203125 0.984375q0.5 0.65625 0.765625 1.625q0.28125 0.953125 0.28125 2.234375q0 1.28125 -0.28125 2.25q-0.265625 0.96875 -0.765625 1.625q-0.5 0.65625 -1.203125 1.0q-0.703125 0.328125 -1.546875 0.328125zm-0.328125 -9.0q-0.6875 0 -1.171875 0.21875q-0.46875 0.203125 -0.765625 0.640625q-0.296875 0.421875 -0.4375 1.0625q-0.140625 0.625 -0.15625 1.5l0 0.375q0 0.921875 0.109375 1.640625q0.125 0.703125 0.421875 1.203125q0.296875 0.484375 0.78125 0.734375q0.5 0.25 1.234375 0.25q1.234375 0 1.8125 -0.984375q0.578125 -1.0 0.578125 -2.859375q0 -1.90625 -0.578125 -2.84375q-0.578125 -0.9375 -1.828125 -0.9375zm13.2126465 8.8125l-0.25 -1.34375l-0.09375 0q-0.21875 0.390625 -0.53125 0.6875q-0.3125 0.28125 -0.6875 0.46875q-0.375 0.1875 -0.796875 0.28125q-0.421875 0.09375 -0.859375 0.09375q-0.828125 0 -1.453125 -0.203125q-0.625 -0.21875 -1.046875 -0.65625q-0.421875 -0.453125 -0.640625 -1.140625q-0.203125 -0.703125 -0.203125 -1.65625l0 -6.53125l1.65625 0l0 6.4375q0 1.1875 0.484375 1.78125q0.484375 0.59375 1.484375 0.59375q0.734375 0 1.234375 -0.234375q0.515625 -0.25 0.8125 -0.703125q0.3125 -0.46875 0.4375 -1.140625q0.140625 -0.671875 0.140625 -1.546875l0 -5.1875l1.65625 0l0 10.0l-1.34375 0zm6.1735535 0l-1.671875 0l0 -14.171875l1.671875 0l0 14.171875zm8.796783 0l-0.328125 -1.390625l-0.078125 0q-0.296875 0.421875 -0.609375 0.71875q-0.296875 0.296875 -0.65625 0.484375q-0.34375 0.1875 -0.78125 0.28125q-0.4375 0.09375 -1.015625 0.09375q-0.625 0 -1.15625 -0.1875q-0.53125 -0.171875 -0.921875 -0.53125q-0.375 -0.375 -0.59375 -0.9375q-0.21875 -0.5625 -0.21875 -1.328125q0 -1.5 1.046875 -2.296875q1.046875 -0.796875 3.203125 -0.875l1.671875 -0.0625l0 -0.625q0 -0.609375 -0.140625 -1.015625q-0.125 -0.421875 -0.375 -0.671875q-0.25 -0.25 -0.625 -0.359375q-0.359375 -0.109375 -0.828125 -0.109375q-0.765625 0 -1.421875 0.21875q-0.640625 0.21875 -1.234375 0.53125l-0.59375 -1.25q0.671875 -0.359375 1.5 -0.609375q0.84375 -0.265625 1.75 -0.265625q0.921875 0 1.59375 0.1875q0.6875 0.1875 1.125 0.59375q0.453125 0.40625 0.671875 1.03125q0.21875 0.625 0.21875 1.53125l0 6.84375l-1.203125 0zm-3.03125 -1.15625q0.546875 0 1.015625 -0.171875q0.484375 -0.171875 0.828125 -0.515625q0.34375 -0.359375 0.53125 -0.890625q0.203125 -0.53125 0.203125 -1.25l0 -0.90625l-1.296875 0.0625q-0.828125 0.03125 -1.390625 0.1875q-0.546875 0.140625 -0.875 0.40625q-0.328125 0.25 -0.484375 0.625q-0.140625 0.359375 -0.140625 0.828125q0 0.84375 0.4375 1.234375q0.453125 0.390625 1.171875 0.390625zm10.323898 -0.015625q0.15625 0 0.359375 -0.015625q0.21875 -0.03125 0.40625 -0.046875q0.1875 -0.03125 0.34375 -0.0625q0.171875 -0.046875 0.25 -0.0625l0 1.25q-0.125 0.0625 -0.3125 0.109375q-0.171875 0.046875 -0.390625 0.09375q-0.21875 0.046875 -0.453125 0.0625q-0.234375 0.03125 -0.46875 0.03125q-0.5625 0 -1.046875 -0.15625q-0.484375 -0.140625 -0.84375 -0.484375q-0.34375 -0.359375 -0.546875 -0.96875q-0.1875 -0.609375 -0.1875 -1.53125l0 -5.796875l-1.421875 0l0 -0.734375l1.421875 -0.71875l0.703125 -2.09375l0.953125 0l0 2.296875l2.515625 0l0 1.25l-2.515625 0l0 5.796875q0 0.890625 0.28125 1.34375q0.296875 0.4375 0.953125 0.4375zm4.962616 1.171875l-1.671875 0l0 -10.0l1.671875 0l0 10.0zm-1.796875 -12.703125q0 -0.546875 0.28125 -0.796875q0.28125 -0.25 0.6875 -0.25q0.203125 0 0.375 0.0625q0.1875 0.0625 0.3125 0.1875q0.140625 0.125 0.203125 0.328125q0.078125 0.1875 0.078125 0.46875q0 0.53125 -0.28125 0.796875q-0.28125 0.25 -0.6875 0.25q-0.40625 0 -0.6875 -0.25q-0.28125 -0.265625 -0.28125 -0.796875zm13.109299 7.6875q0 1.25 -0.3125 2.21875q-0.296875 0.96875 -0.875 1.625q-0.5625 0.65625 -1.3750153 1.015625q-0.796875 0.34375 -1.8125 0.34375q-0.9375 0 -1.734375 -0.34375q-0.796875 -0.359375 -1.375 -1.015625q-0.578125 -0.65625 -0.90625 -1.625q-0.3125 -0.96875 -0.3125 -2.21875q0 -1.25 0.296875 -2.203125q0.3125 -0.96875 0.875 -1.625q0.5625 -0.65625 1.375 -1.0q0.828125 -0.34375 1.828125 -0.34375q0.9375 0 1.734375 0.34375q0.79689026 0.34375 1.3750153 1.0q0.578125 0.65625 0.890625 1.625q0.328125 0.953125 0.328125 2.203125zm-7.0000153 0q0 1.90625 0.625 2.875q0.625 0.953125 2.03125 0.953125q1.40625 0 2.0156403 -0.953125q0.625 -0.96875 0.625 -2.875q0 -1.90625 -0.625 -2.84375q-0.62501526 -0.953125 -2.0312653 -0.953125q-1.40625 0 -2.03125 0.953125q-0.609375 0.9375 -0.609375 2.84375zm15.861191 5.015625l0 -6.4375q0 -1.1875 -0.484375 -1.78125q-0.46875 -0.59375 -1.484375 -0.59375q-0.734375 0 -1.234375 0.25q-0.5 0.234375 -0.8125 0.703125q-0.3125 0.453125 -0.4375 1.125q-0.125 0.671875 -0.125 1.546875l0 5.1875l-1.671875 0l0 -10.0l1.359375 0l0.234375 1.34375l0.09375 0q0.21875 -0.390625 0.53125 -0.671875q0.328125 -0.296875 0.6875 -0.484375q0.375 -0.1875 0.796875 -0.28125q0.421875 -0.09375 0.859375 -0.09375q1.671875 0 2.5 0.875q0.84375 0.875 0.84375 2.78125l0 6.53125l-1.65625 0zm19.62918 -6.78125q0 1.6875 -0.4375 2.953125q-0.4375 1.265625 -1.265625 2.125q-0.828125 0.84375 -2.046875 1.28125q-1.203125 0.421875 -2.734375 0.421875l-3.328125 0l0 -13.3125l3.703125 0q1.40625 0 2.53125 0.421875q1.125 0.40625 1.921875 1.234375q0.796875 0.828125 1.21875 2.046875q0.4375 1.21875 0.4375 2.828125zm-1.796875 0.046875q0 -1.328125 -0.296875 -2.296875q-0.296875 -0.96875 -0.875 -1.59375q-0.578125 -0.640625 -1.421875 -0.9375q-0.828125 -0.3125 -1.890625 -0.3125l-1.84375 0l0 10.421875l1.484375 0q2.40625 0 3.625 -1.328125q1.21875 -1.34375 1.21875 -3.953125zm6.184265 6.734375l-1.671875 0l0 -10.0l1.671875 0l0 10.0zm-1.796875 -12.703125q0 -0.546875 0.28125 -0.796875q0.28125 -0.25 0.6875 -0.25q0.203125 0 0.375 0.0625q0.1875 0.0625 0.3125 0.1875q0.140625 0.125 0.203125 0.328125q0.078125 0.1875 0.078125 0.46875q0 0.53125 -0.28125 0.796875q-0.28125 0.25 -0.6875 0.25q-0.40625 0 -0.6875 -0.25q-0.28125 -0.265625 -0.28125 -0.796875zm10.937408 9.96875q0 0.71875 -0.265625 1.265625q-0.25 0.546875 -0.75 0.921875q-0.5 0.359375 -1.203125 0.546875q-0.703125 0.1875 -1.578125 0.1875q-0.984375 0 -1.703125 -0.171875q-0.703125 -0.15625 -1.25 -0.46875l0 -1.5q0.296875 0.140625 0.640625 0.28125q0.34375 0.140625 0.71875 0.25q0.390625 0.109375 0.796875 0.1875q0.40625 0.0625 0.796875 0.0625q0.59375 0 1.0 -0.09375q0.421875 -0.109375 0.6875 -0.296875q0.265625 -0.1875 0.375 -0.453125q0.125 -0.265625 0.125 -0.59375q0 -0.28125 -0.09375 -0.515625q-0.09375 -0.234375 -0.34375 -0.453125q-0.234375 -0.21875 -0.65625 -0.4375q-0.40625 -0.234375 -1.0625 -0.515625q-0.65625 -0.28125 -1.1875 -0.546875q-0.515625 -0.28125 -0.890625 -0.625q-0.359375 -0.34375 -0.5625 -0.78125q-0.1875 -0.4375 -0.1875 -1.046875q0 -0.640625 0.25 -1.140625q0.25 -0.5 0.703125 -0.828125q0.453125 -0.34375 1.09375 -0.515625q0.640625 -0.171875 1.421875 -0.171875q0.875 0 1.609375 0.203125q0.734375 0.1875 1.390625 0.5l-0.5625 1.328125q-0.59375 -0.265625 -1.21875 -0.453125q-0.625 -0.203125 -1.28125 -0.203125q-0.921875 0 -1.375 0.3125q-0.4375 0.296875 -0.4375 0.859375q0 0.328125 0.09375 0.5625q0.109375 0.234375 0.359375 0.453125q0.265625 0.203125 0.6875 0.421875q0.4375 0.203125 1.0625 0.46875q0.65625 0.28125 1.171875 0.5625q0.515625 0.265625 0.875 0.609375q0.375 0.328125 0.5625 0.765625q0.1875 0.4375 0.1875 1.0625zm5.4640503 1.5625q0.15625 0 0.359375 -0.015625q0.21875 -0.03125 0.40625 -0.046875q0.1875 -0.03125 0.34375 -0.0625q0.171875 -0.046875 0.25 -0.0625l0 1.25q-0.125 0.0625 -0.3125 0.109375q-0.171875 0.046875 -0.390625 0.09375q-0.21875 0.046875 -0.453125 0.0625q-0.234375 0.03125 -0.46875 0.03125q-0.5625 0 -1.046875 -0.15625q-0.484375 -0.140625 -0.84375 -0.484375q-0.34375 -0.359375 -0.546875 -0.96875q-0.1875 -0.609375 -0.1875 -1.53125l0 -5.796875l-1.421875 0l0 -0.734375l1.421875 -0.71875l0.703125 -2.09375l0.953125 0l0 2.296875l2.515625 0l0 1.25l-2.515625 0l0 5.796875q0 0.890625 0.28125 1.34375q0.296875 0.4375 0.953125 0.4375zm7.618866 -9.015625q0.265625 0 0.59375 0.03125q0.328125 0.015625 0.5625 0.0625l-0.21875 1.53125q-0.25 -0.046875 -0.515625 -0.078125q-0.265625 -0.03125 -0.5 -0.03125q-0.578125 0 -1.0625 0.234375q-0.46875 0.234375 -0.8125 0.671875q-0.34375 0.421875 -0.53125 1.03125q-0.171875 0.609375 -0.171875 1.34375l0 5.390625l-1.671875 0l0 -10.0l1.359375 0l0.203125 1.828125l0.0625 0q0.234375 -0.390625 0.484375 -0.75q0.265625 -0.375 0.578125 -0.640625q0.328125 -0.28125 0.734375 -0.453125q0.40625 -0.171875 0.90625 -0.171875zm4.7862244 10.1875l-1.671875 0l0 -10.0l1.671875 0l0 10.0zm-1.796875 -12.703125q0 -0.546875 0.28125 -0.796875q0.28125 -0.25 0.6875 -0.25q0.203125 0 0.375 0.0625q0.1875 0.0625 0.3125 0.1875q0.140625 0.125 0.203125 0.328125q0.078125 0.1875 0.078125 0.46875q0 0.53125 -0.28125 0.796875q-0.28125 0.25 -0.6875 0.25q-0.40625 0 -0.6875 -0.25q-0.28125 -0.265625 -0.28125 -0.796875zm9.484283 2.515625q0.84375 0 1.546875 0.328125q0.703125 0.328125 1.203125 0.984375q0.5 0.65625 0.765625 1.625q0.28125 0.953125 0.28125 2.234375q0 1.28125 -0.28125 2.25q-0.265625 0.96875 -0.765625 1.625q-0.5 0.65625 -1.203125 1.0q-0.703125 0.328125 -1.546875 0.328125q-0.546875 0 -0.984375 -0.125q-0.4375 -0.109375 -0.796875 -0.3125q-0.34375 -0.203125 -0.609375 -0.453125q-0.265625 -0.265625 -0.46875 -0.5625l-0.109375 0l-0.34375 1.265625l-1.21875 0l0 -14.171875l1.671875 0l0 3.421875q0 0.3125 -0.015625 0.6875q-0.015625 0.359375 -0.03125 0.65625q-0.015625 0.375 -0.03125 0.71875l0.078125 0q0.203125 -0.328125 0.46875 -0.59375q0.265625 -0.28125 0.609375 -0.46875q0.359375 -0.203125 0.796875 -0.3125q0.4375 -0.125 0.984375 -0.125zm-0.328125 1.375q-0.71875 0 -1.21875 0.234375q-0.484375 0.234375 -0.78125 0.71875q-0.296875 0.46875 -0.421875 1.1875q-0.109375 0.703125 -0.109375 1.65625q0 0.921875 0.109375 1.640625q0.125 0.703125 0.421875 1.203125q0.296875 0.484375 0.78125 0.734375q0.5 0.25 1.234375 0.25q1.234375 0 1.8125 -0.984375q0.578125 -1.0 0.578125 -2.859375q0 -1.90625 -0.578125 -2.84375q-0.578125 -0.9375 -1.828125 -0.9375zm13.2126465 8.8125l-0.25 -1.34375l-0.09375 0q-0.21875 0.390625 -0.53125 0.6875q-0.3125 0.28125 -0.6875 0.46875q-0.375 0.1875 -0.796875 0.28125q-0.421875 0.09375 -0.859375 0.09375q-0.828125 0 -1.453125 -0.203125q-0.625 -0.21875 -1.046875 -0.65625q-0.421875 -0.453125 -0.640625 -1.140625q-0.203125 -0.703125 -0.203125 -1.65625l0 -6.53125l1.65625 0l0 6.4375q0 1.1875 0.484375 1.78125q0.484375 0.59375 1.484375 0.59375q0.734375 0 1.234375 -0.234375q0.515625 -0.25 0.8125 -0.703125q0.3125 -0.46875 0.4375 -1.140625q0.140625 -0.671875 0.140625 -1.546875l0 -5.1875l1.65625 0l0 10.0l-1.34375 0zm7.5329285 -1.171875q0.15625 0 0.359375 -0.015625q0.21875 -0.03125 0.40625 -0.046875q0.1875 -0.03125 0.34375 -0.0625q0.171875 -0.046875 0.25 -0.0625l0 1.25q-0.125 0.0625 -0.3125 0.109375q-0.171875 0.046875 -0.390625 0.09375q-0.21875 0.046875 -0.453125 0.0625q-0.234375 0.03125 -0.46875 0.03125q-0.5625 0 -1.046875 -0.15625q-0.484375 -0.140625 -0.84375 -0.484375q-0.34375 -0.359375 -0.546875 -0.96875q-0.1875 -0.609375 -0.1875 -1.53125l0 -5.796875l-1.421875 0l0 -0.734375l1.421875 -0.71875l0.703125 -2.09375l0.953125 0l0 2.296875l2.515625 0l0 1.25l-2.515625 0l0 5.796875q0 0.890625 0.28125 1.34375q0.296875 0.4375 0.953125 0.4375zm4.962616 1.171875l-1.671875 0l0 -10.0l1.671875 0l0 10.0zm-1.796875 -12.703125q0 -0.546875 0.28125 -0.796875q0.28125 -0.25 0.6875 -0.25q0.203125 0 0.375 0.0625q0.1875 0.0625 0.3125 0.1875q0.140625 0.125 0.203125 0.328125q0.078125 0.1875 0.078125 0.46875q0 0.53125 -0.28125 0.796875q-0.28125 0.25 -0.6875 0.25q-0.40625 0 -0.6875 -0.25q-0.28125 -0.265625 -0.28125 -0.796875zm13.109283 7.6875q0 1.25 -0.3125 2.21875q-0.296875 0.96875 -0.875 1.625q-0.5625 0.65625 -1.375 1.015625q-0.796875 0.34375 -1.8125 0.34375q-0.9375 0 -1.734375 -0.34375q-0.796875 -0.359375 -1.375 -1.015625q-0.578125 -0.65625 -0.90625 -1.625q-0.3125 -0.96875 -0.3125 -2.21875q0 -1.25 0.296875 -2.203125q0.3125 -0.96875 0.875 -1.625q0.5625 -0.65625 1.375 -1.0q0.828125 -0.34375 1.828125 -0.34375q0.9375 0 1.734375 0.34375q0.796875 0.34375 1.375 1.0q0.578125 0.65625 0.890625 1.625q0.328125 0.953125 0.328125 2.203125zm-7.0 0q0 1.90625 0.625 2.875q0.625 0.953125 2.03125 0.953125q1.40625 0 2.015625 -0.953125q0.625 -0.96875 0.625 -2.875q0 -1.90625 -0.625 -2.84375q-0.625 -0.953125 -2.03125 -0.953125q-1.40625 0 -2.03125 0.953125q-0.609375 0.9375 -0.609375 2.84375zm15.861176 5.015625l0 -6.4375q0 -1.1875 -0.484375 -1.78125q-0.46875 -0.59375 -1.484375 -0.59375q-0.734375 0 -1.234375 0.25q-0.5 0.234375 -0.8125 0.703125q-0.3125 0.453125 -0.4375 1.125q-0.125 0.671875 -0.125 1.546875l0 5.1875l-1.671875 0l0 -10.0l1.359375 0l0.234375 1.34375l0.09375 0q0.21875 -0.390625 0.53125 -0.671875q0.328125 -0.296875 0.6875 -0.484375q0.375 -0.1875 0.796875 -0.28125q0.421875 -0.09375 0.859375 -0.09375q1.671875 0 2.5 0.875q0.84375 0.875 0.84375 2.78125l0 6.53125l-1.65625 0z" fill-rule="nonzero"/><path fill="#6aa84f" d="m194.44882 251.53543l0 0c0 -5.1662445 4.18808 -9.354324 9.354324 -9.354324l0 0c2.4809265 0 4.8602295 0.98553467 6.614517 2.7398224c1.7542725 1.7542725 2.7398224 4.1335754 2.7398224 6.614502l0 0c0 5.16626 -4.18808 9.35434 -9.35434 9.35434l0 0c-5.1662445 0 -9.354324 -4.18808 -9.354324 -9.35434z" fill-rule="evenodd"/><path fill="#cc0000" d="m274.44882 215.32808l0 0c0 -5.1662445 4.18808 -9.354324 9.35434 -9.354324l0 0c2.480896 0 4.8602295 0.98553467 6.614502 2.7398224c1.7542725 1.7542725 2.7398071 4.1335907 2.7398071 6.614502l0 0c0 5.16626 -4.18808 9.35434 -9.354309 9.35434l0 0c-5.16626 0 -9.35434 -4.18808 -9.35434 -9.35434z" fill-rule="evenodd"/><path fill="#3c78d8" d="m274.44882 131.53543l0 0c0 -5.166252 4.18808 -9.354332 9.35434 -9.354332l0 0c2.480896 0 4.8602295 0.9855499 6.614502 2.7398224c1.7542725 1.7542801 2.7398071 4.133583 2.7398071 6.6145096l0 0c0 5.16626 -4.18808 9.35434 -9.354309 9.35434l0 0c-5.16626 0 -9.35434 -4.18808 -9.35434 -9.35434z" fill-rule="evenodd"/><path fill="#000000" fill-opacity="0.0" d="m546.4934 348.0525l0 -294.01575" fill-rule="evenodd"/><path stroke="#000000" stroke-width="2.0" stroke-linejoin="round" stroke-linecap="butt" d="m546.4934 348.0525l0 -282.01575" fill-rule="evenodd"/><path fill="#000000" stroke="#000000" stroke-width="2.0" stroke-linecap="butt" d="m549.7969 66.03674l-3.3034668 -9.076195l-3.3034058 9.076195z" fill-rule="evenodd"/><path fill="#000000" fill-opacity="0.0" d="m546.02875 347.5878l294.01575 0" fill-rule="evenodd"/><path stroke="#000000" stroke-width="2.0" stroke-linejoin="round" stroke-linecap="butt" d="m546.02875 347.5878l282.0157 0" fill-rule="evenodd"/><path fill="#000000" stroke="#000000" stroke-width="2.0" stroke-linecap="butt" d="m828.04443 350.89127l9.076233 -3.3034668l-9.076233 -3.3034668z" fill-rule="evenodd"/><path fill="#000000" fill-opacity="0.0" d="m562.12335 347.58792l261.82678 0l0 49.29135l-261.82678 0z" fill-rule="evenodd"/><path fill="#000000" d="m692.2903 379.1536l-1.921875 0l-3.21875 -5.78125l-3.34375 5.78125l-1.71875 0l4.125 -6.953125l-3.84375 -6.359375l1.8125 0l3.015625 5.09375l3.046875 -5.09375l1.734375 0l-3.84375 6.296875l4.15625 7.015625z" fill-rule="nonzero"/><path fill="#000000" d="m701.44855 386.1536l-1.0625 0l0 -5.546875q0 -0.265625 0 -0.5625q0 -0.296875 0 -0.578125q0.015625 -0.296875 0.03125 -0.5625q0.015625 -0.28125 0.015625 -0.484375q-0.109375 0.109375 -0.1875 0.1875q-0.078125 0.078125 -0.15625 0.15625q-0.078125 0.0625 -0.171875 0.15625q-0.09375 0.078125 -0.21875 0.1875l-0.90625 0.734375l-0.578125 -0.75l2.328125 -1.8125l0.90625 0l0 8.875z" fill-rule="nonzero"/><path fill="#000000" fill-opacity="0.0" d="m497.2021 331.958l0 -261.82678l49.29132 0l0 261.82678z" fill-rule="evenodd"/><path fill="#000000" d="m528.76776 201.79106l0 1.921875l-5.78125 3.21875l5.78125 3.34375l0 1.71875l-6.953125 -4.125l-6.359375 3.84375l0 -1.8125l5.09375 -3.015625l-5.09375 -3.046875l0 -1.734375l6.296875 3.84375l7.015625 -4.15625z" fill-rule="nonzero"/><path fill="#000000" d="m535.76776 190.8203l0 5.546875l-0.953125 0l-2.3125 -2.125q-0.484375 -0.453125 -0.890625 -0.8125q-0.40625 -0.359375 -0.796875 -0.609375q-0.390625 -0.265625 -0.78125 -0.390625q-0.390625 -0.140625 -0.859375 -0.140625q-0.359375 0 -0.625 0.109375q-0.28125 0.09375 -0.46875 0.296875q-0.1875 0.1875 -0.28125 0.453125q-0.109375 0.25 -0.109375 0.578125q0 0.578125 0.234375 1.046875q0.234375 0.453125 0.609375 0.875l-0.734375 0.625q-0.21875 -0.25 -0.40625 -0.515625q-0.1875 -0.28125 -0.328125 -0.609375q-0.140625 -0.328125 -0.21875 -0.6875q-0.078125 -0.359375 -0.078125 -0.75q0 -0.578125 0.171875 -1.046875q0.15625 -0.46875 0.46875 -0.796875q0.296875 -0.328125 0.734375 -0.5q0.4375 -0.1875 1.0 -0.1875q0.515625 0 0.984375 0.15625q0.453125 0.15625 0.90625 0.453125q0.453125 0.28125 0.921875 0.671875q0.453125 0.390625 0.9375 0.84375l1.8125 1.703125l0.046875 0l0 -4.1875l1.015625 0z" fill-rule="nonzero"/><path fill="#000000" fill-opacity="0.0" d="m562.12335 19.587927l261.82678 0l0 49.291336l-261.82678 0z" fill-rule="evenodd"/><path fill="#000000" d="m594.6937 51.15359l-4.828125 0l0 -0.921875l1.5625 -0.375l0 -10.71875l-1.5625 -0.375l0 -0.921875l4.828125 0l0 0.921875l-1.5625 0.375l0 10.71875l1.5625 0.375l0 0.921875zm8.57196 0l0 -6.4375q0 -1.1875 -0.484375 -1.78125q-0.46875 -0.59375 -1.484375 -0.59375q-0.734375 0 -1.234375 0.25q-0.5 0.234375 -0.8125 0.703125q-0.3125 0.453125 -0.4375 1.125q-0.125 0.671875 -0.125 1.546875l0 5.1875l-1.671875 0l0 -10.0l1.359375 0l0.234375 1.34375l0.09375 0q0.21875 -0.390625 0.53125 -0.671875q0.328125 -0.296875 0.6875 -0.484375q0.375 -0.1875 0.796875 -0.28125q0.421875 -0.09375 0.859375 -0.09375q1.671875 0 2.5 0.875q0.84375 0.875 0.84375 2.78125l0 6.53125l-1.65625 0zm10.923584 -1.34375l-0.078125 0q-0.203125 0.3125 -0.46875 0.59375q-0.265625 0.28125 -0.625 0.5q-0.34375 0.203125 -0.78125 0.3125q-0.4375 0.125 -0.984375 0.125q-0.84375 0 -1.546875 -0.328125q-0.703125 -0.328125 -1.203125 -0.984375q-0.5 -0.65625 -0.78125 -1.609375q-0.265625 -0.96875 -0.265625 -2.25q0 -1.28125 0.265625 -2.25q0.28125 -0.96875 0.78125 -1.625q0.5 -0.65625 1.203125 -0.984375q0.703125 -0.34375 1.546875 -0.34375q0.53125 0 0.96875 0.125q0.4375 0.109375 0.78125 0.3125q0.359375 0.203125 0.625 0.46875q0.28125 0.265625 0.484375 0.546875l0.109375 0q-0.03125 -0.296875 -0.046875 -0.578125q-0.03125 -0.25 -0.046875 -0.5q-0.015625 -0.25 -0.015625 -0.390625l0 -3.96875l1.65625 0l0 14.171875l-1.34375 0l-0.234375 -1.34375zm-2.625 0.15625q0.703125 0 1.171875 -0.203125q0.484375 -0.21875 0.78125 -0.640625q0.296875 -0.4375 0.4375 -1.078125q0.140625 -0.640625 0.15625 -1.5l0 -0.375q0 -0.921875 -0.125 -1.625q-0.125 -0.71875 -0.421875 -1.203125q-0.296875 -0.5 -0.796875 -0.75q-0.484375 -0.25 -1.21875 -0.25q-1.21875 0 -1.8125 1.0q-0.578125 0.984375 -0.578125 2.84375q0 1.90625 0.578125 2.84375q0.59375 0.9375 1.828125 0.9375zm9.0407715 1.1875l-1.671875 0l0 -10.0l1.671875 0l0 10.0zm-1.796875 -12.703125q0 -0.546875 0.28125 -0.796875q0.28125 -0.25 0.6875 -0.25q0.203125 0 0.375 0.0625q0.1875 0.0625 0.3125 0.1875q0.140625 0.125 0.203125 0.328125q0.078125 0.1875 0.078125 0.46875q0 0.53125 -0.28125 0.796875q-0.28125 0.25 -0.6875 0.25q-0.40625 0 -0.6875 -0.25q-0.28125 -0.265625 -0.28125 -0.796875zm6.796753 12.703125l-3.421875 -10.0l1.71875 0l1.8125 5.5625q0.09375 0.296875 0.234375 0.78125q0.140625 0.46875 0.265625 0.96875q0.140625 0.484375 0.25 0.921875q0.125 0.4375 0.15625 0.65625l0.0625 0q0.046875 -0.21875 0.15625 -0.65625q0.109375 -0.4375 0.234375 -0.921875q0.140625 -0.5 0.28125 -0.96875q0.140625 -0.484375 0.234375 -0.78125l1.8125 -5.5625l1.71875 0l-3.421875 10.0l-2.09375 0zm8.764587 0l-1.671875 0l0 -10.0l1.671875 0l0 10.0zm-1.796875 -12.703125q0 -0.546875 0.28125 -0.796875q0.28125 -0.25 0.6875 -0.25q0.203125 0 0.375 0.0625q0.1875 0.0625 0.3125 0.1875q0.140625 0.125 0.203125 0.328125q0.078125 0.1875 0.078125 0.46875q0 0.53125 -0.28125 0.796875q-0.28125 0.25 -0.6875 0.25q-0.40625 0 -0.6875 -0.25q-0.28125 -0.265625 -0.28125 -0.796875zm11.140503 11.359375l-0.078125 0q-0.203125 0.3125 -0.46875 0.59375q-0.265625 0.28125 -0.625 0.5q-0.34375 0.203125 -0.78125 0.3125q-0.4375 0.125 -0.984375 0.125q-0.84375 0 -1.546875 -0.328125q-0.703125 -0.328125 -1.203125 -0.984375q-0.5 -0.65625 -0.78125 -1.609375q-0.265625 -0.96875 -0.265625 -2.25q0 -1.28125 0.265625 -2.25q0.28125 -0.96875 0.78125 -1.625q0.5 -0.65625 1.203125 -0.984375q0.703125 -0.34375 1.546875 -0.34375q0.53125 0 0.96875 0.125q0.4375 0.109375 0.78125 0.3125q0.359375 0.203125 0.625 0.46875q0.28125 0.265625 0.484375 0.546875l0.109375 0q-0.03125 -0.296875 -0.046875 -0.578125q-0.03125 -0.25 -0.046875 -0.5q-0.015625 -0.25 -0.015625 -0.390625l0 -3.96875l1.65625 0l0 14.171875l-1.34375 0l-0.234375 -1.34375zm-2.625 0.15625q0.703125 0 1.171875 -0.203125q0.484375 -0.21875 0.78125 -0.640625q0.296875 -0.4375 0.4375 -1.078125q0.140625 -0.640625 0.15625 -1.5l0 -0.375q0 -0.921875 -0.125 -1.625q-0.125 -0.71875 -0.421875 -1.203125q-0.296875 -0.5 -0.796875 -0.75q-0.484375 -0.25 -1.21875 -0.25q-1.21875 0 -1.8125 1.0q-0.578125 0.984375 -0.578125 2.84375q0 1.90625 0.578125 2.84375q0.59375 0.9375 1.828125 0.9375zm13.8532715 1.1875l-0.25 -1.34375l-0.09375 0q-0.21875 0.390625 -0.53125 0.6875q-0.3125 0.28125 -0.6875 0.46875q-0.375 0.1875 -0.796875 0.28125q-0.421875 0.09375 -0.859375 0.09375q-0.828125 0 -1.453125 -0.203125q-0.625 -0.21875 -1.046875 -0.65625q-0.421875 -0.453125 -0.640625 -1.140625q-0.203125 -0.703125 -0.203125 -1.65625l0 -6.53125l1.65625 0l0 6.4375q0 1.1875 0.484375 1.78125q0.484375 0.59375 1.484375 0.59375q0.734375 0 1.234375 -0.234375q0.515625 -0.25 0.8125 -0.703125q0.3125 -0.46875 0.4375 -1.140625q0.140625 -0.671875 0.140625 -1.546875l0 -5.1875l1.65625 0l0 10.0l-1.34375 0zm10.142334 0l-0.328125 -1.390625l-0.078125 0q-0.296875 0.421875 -0.609375 0.71875q-0.296875 0.296875 -0.65625 0.484375q-0.34375 0.1875 -0.78125 0.28125q-0.4375 0.09375 -1.015625 0.09375q-0.625 0 -1.15625 -0.1875q-0.53125 -0.171875 -0.921875 -0.53125q-0.375 -0.375 -0.59375 -0.9375q-0.21875 -0.5625 -0.21875 -1.328125q0 -1.5 1.046875 -2.296875q1.046875 -0.796875 3.203125 -0.875l1.671875 -0.0625l0 -0.625q0 -0.609375 -0.140625 -1.015625q-0.125 -0.421875 -0.375 -0.671875q-0.25 -0.25 -0.625 -0.359375q-0.359375 -0.109375 -0.828125 -0.109375q-0.765625 0 -1.421875 0.21875q-0.640625 0.21875 -1.234375 0.53125l-0.59375 -1.25q0.671875 -0.359375 1.5 -0.609375q0.84375 -0.265625 1.75 -0.265625q0.921875 0 1.59375 0.1875q0.6875 0.1875 1.125 0.59375q0.453125 0.40625 0.671875 1.03125q0.21875 0.625 0.21875 1.53125l0 6.84375l-1.203125 0zm-3.03125 -1.15625q0.546875 0 1.015625 -0.171875q0.484375 -0.171875 0.828125 -0.515625q0.34375 -0.359375 0.53125 -0.890625q0.203125 -0.53125 0.203125 -1.25l0 -0.90625l-1.296875 0.0625q-0.828125 0.03125 -1.390625 0.1875q-0.546875 0.140625 -0.875 0.40625q-0.328125 0.25 -0.484375 0.625q-0.140625 0.359375 -0.140625 0.828125q0 0.84375 0.4375 1.234375q0.453125 0.390625 1.171875 0.390625zm8.964478 1.15625l-1.671875 0l0 -14.171875l1.671875 0l0 14.171875zm9.140564 -2.734375q0 0.71875 -0.265625 1.265625q-0.25 0.546875 -0.75 0.921875q-0.5 0.359375 -1.203125 0.546875q-0.703125 0.1875 -1.578125 0.1875q-0.984375 0 -1.703125 -0.171875q-0.703125 -0.15625 -1.25 -0.46875l0 -1.5q0.296875 0.140625 0.640625 0.28125q0.34375 0.140625 0.71875 0.25q0.390625 0.109375 0.796875 0.1875q0.40625 0.0625 0.796875 0.0625q0.59375 0 1.0 -0.09375q0.421875 -0.109375 0.6875 -0.296875q0.265625 -0.1875 0.375 -0.453125q0.125 -0.265625 0.125 -0.59375q0 -0.28125 -0.09375 -0.515625q-0.09375 -0.234375 -0.34375 -0.453125q-0.234375 -0.21875 -0.65625 -0.4375q-0.40625 -0.234375 -1.0625 -0.515625q-0.65625 -0.28125 -1.1875 -0.546875q-0.515625 -0.28125 -0.890625 -0.625q-0.359375 -0.34375 -0.5625 -0.78125q-0.1875 -0.4375 -0.1875 -1.046875q0 -0.640625 0.25 -1.140625q0.25 -0.5 0.703125 -0.828125q0.453125 -0.34375 1.09375 -0.515625q0.640625 -0.171875 1.421875 -0.171875q0.875 0 1.609375 0.203125q0.734375 0.1875 1.390625 0.5l-0.5625 1.328125q-0.59375 -0.265625 -1.21875 -0.453125q-0.625 -0.203125 -1.28125 -0.203125q-0.921875 0 -1.375 0.3125q-0.4375 0.296875 -0.4375 0.859375q0 0.328125 0.09375 0.5625q0.109375 0.234375 0.359375 0.453125q0.265625 0.203125 0.6875 0.421875q0.4375 0.203125 1.0625 0.46875q0.65625 0.28125 1.171875 0.5625q0.515625 0.265625 0.875 0.609375q0.375 0.328125 0.5625 0.765625q0.1875 0.4375 0.1875 1.0625zm3.7921753 -10.578125l0.125 0.1875q-0.125 0.515625 -0.3125 1.0625q-0.171875 0.546875 -0.390625 1.125q-0.203125 0.5625 -0.4375 1.125q-0.234375 0.546875 -0.46875 1.0625l-1.25 0q0.140625 -0.546875 0.265625 -1.140625q0.125 -0.609375 0.25 -1.203125q0.125 -0.609375 0.21875 -1.171875q0.109375 -0.5625 0.1875 -1.046875l1.8125 0zm16.794983 6.53125q0 1.6875 -0.4375 2.953125q-0.4375 1.265625 -1.265625 2.125q-0.828125 0.84375 -2.046875 1.28125q-1.203125 0.421875 -2.734375 0.421875l-3.328125 0l0 -13.3125l3.703125 0q1.40625 0 2.53125 0.421875q1.125 0.40625 1.921875 1.234375q0.796875 0.828125 1.21875 2.046875q0.4375 1.21875 0.4375 2.828125zm-1.796875 0.046875q0 -1.328125 -0.296875 -2.296875q-0.296875 -0.96875 -0.875 -1.59375q-0.578125 -0.640625 -1.421875 -0.9375q-0.828125 -0.3125 -1.890625 -0.3125l-1.84375 0l0 10.421875l1.484375 0q2.40625 0 3.625 -1.328125q1.21875 -1.34375 1.21875 -3.953125zm6.184265 6.734375l-1.671875 0l0 -10.0l1.671875 0l0 10.0zm-1.796875 -12.703125q0 -0.546875 0.28125 -0.796875q0.28125 -0.25 0.6875 -0.25q0.203125 0 0.375 0.0625q0.1875 0.0625 0.3125 0.1875q0.140625 0.125 0.203125 0.328125q0.078125 0.1875 0.078125 0.46875q0 0.53125 -0.28125 0.796875q-0.28125 0.25 -0.6875 0.25q-0.40625 0 -0.6875 -0.25q-0.28125 -0.265625 -0.28125 -0.796875zm10.937378 9.96875q0 0.71875 -0.265625 1.265625q-0.25 0.546875 -0.75 0.921875q-0.5 0.359375 -1.203125 0.546875q-0.703125 0.1875 -1.578125 0.1875q-0.984375 0 -1.703125 -0.171875q-0.703125 -0.15625 -1.25 -0.46875l0 -1.5q0.296875 0.140625 0.640625 0.28125q0.34375 0.140625 0.71875 0.25q0.390625 0.109375 0.796875 0.1875q0.40625 0.0625 0.796875 0.0625q0.59375 0 1.0 -0.09375q0.421875 -0.109375 0.6875 -0.296875q0.265625 -0.1875 0.375 -0.453125q0.125 -0.265625 0.125 -0.59375q0 -0.28125 -0.09375 -0.515625q-0.09375 -0.234375 -0.34375 -0.453125q-0.234375 -0.21875 -0.65625 -0.4375q-0.40625 -0.234375 -1.0625 -0.515625q-0.65625 -0.28125 -1.1875 -0.546875q-0.515625 -0.28125 -0.890625 -0.625q-0.359375 -0.34375 -0.5625 -0.78125q-0.1875 -0.4375 -0.1875 -1.046875q0 -0.640625 0.25 -1.140625q0.25 -0.5 0.703125 -0.828125q0.453125 -0.34375 1.09375 -0.515625q0.640625 -0.171875 1.421875 -0.171875q0.875 0 1.609375 0.203125q0.734375 0.1875 1.390625 0.5l-0.5625 1.328125q-0.59375 -0.265625 -1.21875 -0.453125q-0.625 -0.203125 -1.28125 -0.203125q-0.921875 0 -1.375 0.3125q-0.4375 0.296875 -0.4375 0.859375q0 0.328125 0.09375 0.5625q0.109375 0.234375 0.359375 0.453125q0.265625 0.203125 0.6875 0.421875q0.4375 0.203125 1.0625 0.46875q0.65625 0.28125 1.171875 0.5625q0.515625 0.265625 0.875 0.609375q0.375 0.328125 0.5625 0.765625q0.1875 0.4375 0.1875 1.0625zm5.4640503 1.5625q0.15625 0 0.359375 -0.015625q0.21875 -0.03125 0.40625 -0.046875q0.1875 -0.03125 0.34375 -0.0625q0.171875 -0.046875 0.25 -0.0625l0 1.25q-0.125 0.0625 -0.3125 0.109375q-0.171875 0.046875 -0.390625 0.09375q-0.21875 0.046875 -0.453125 0.0625q-0.234375 0.03125 -0.46875 0.03125q-0.5625 0 -1.046875 -0.15625q-0.484375 -0.140625 -0.84375 -0.484375q-0.34375 -0.359375 -0.546875 -0.96875q-0.1875 -0.609375 -0.1875 -1.53125l0 -5.796875l-1.421875 0l0 -0.734375l1.421875 -0.71875l0.703125 -2.09375l0.953125 0l0 2.296875l2.515625 0l0 1.25l-2.515625 0l0 5.796875q0 0.890625 0.28125 1.34375q0.296875 0.4375 0.953125 0.4375zm7.6188965 -9.015625q0.265625 0 0.59375 0.03125q0.328125 0.015625 0.5625 0.0625l-0.21875 1.53125q-0.25 -0.046875 -0.515625 -0.078125q-0.265625 -0.03125 -0.5 -0.03125q-0.578125 0 -1.0625 0.234375q-0.46875 0.234375 -0.8125 0.671875q-0.34375 0.421875 -0.53125 1.03125q-0.171875 0.609375 -0.171875 1.34375l0 5.390625l-1.671875 0l0 -10.0l1.359375 0l0.203125 1.828125l0.0625 0q0.234375 -0.390625 0.484375 -0.75q0.265625 -0.375 0.578125 -0.640625q0.328125 -0.28125 0.734375 -0.453125q0.40625 -0.171875 0.90625 -0.171875zm4.786194 10.1875l-1.671875 0l0 -10.0l1.671875 0l0 10.0zm-1.796875 -12.703125q0 -0.546875 0.28125 -0.796875q0.28125 -0.25 0.6875 -0.25q0.203125 0 0.375 0.0625q0.1875 0.0625 0.3125 0.1875q0.140625 0.125 0.203125 0.328125q0.078125 0.1875 0.078125 0.46875q0 0.53125 -0.28125 0.796875q-0.28125 0.25 -0.6875 0.25q-0.40625 0 -0.6875 -0.25q-0.28125 -0.265625 -0.28125 -0.796875zm9.484314 2.515625q0.84375 0 1.546875 0.328125q0.703125 0.328125 1.203125 0.984375q0.5 0.65625 0.765625 1.625q0.28125 0.953125 0.28125 2.234375q0 1.28125 -0.28125 2.25q-0.265625 0.96875 -0.765625 1.625q-0.5 0.65625 -1.203125 1.0q-0.703125 0.328125 -1.546875 0.328125q-0.546875 0 -0.984375 -0.125q-0.4375 -0.109375 -0.796875 -0.3125q-0.34375 -0.203125 -0.609375 -0.453125q-0.265625 -0.265625 -0.46875 -0.5625l-0.109375 0l-0.34375 1.265625l-1.21875 0l0 -14.171875l1.671875 0l0 3.421875q0 0.3125 -0.015625 0.6875q-0.015625 0.359375 -0.03125 0.65625q-0.015625 0.375 -0.03125 0.71875l0.078125 0q0.203125 -0.328125 0.46875 -0.59375q0.265625 -0.28125 0.609375 -0.46875q0.359375 -0.203125 0.796875 -0.3125q0.4375 -0.125 0.984375 -0.125zm-0.328125 1.375q-0.71875 0 -1.21875 0.234375q-0.484375 0.234375 -0.78125 0.71875q-0.296875 0.46875 -0.421875 1.1875q-0.109375 0.703125 -0.109375 1.65625q0 0.921875 0.109375 1.640625q0.125 0.703125 0.421875 1.203125q0.296875 0.484375 0.78125 0.734375q0.5 0.25 1.234375 0.25q1.234375 0 1.8125 -0.984375q0.578125 -1.0 0.578125 -2.859375q0 -1.90625 -0.578125 -2.84375q-0.578125 -0.9375 -1.828125 -0.9375zm13.2126465 8.8125l-0.25 -1.34375l-0.09375 0q-0.21875 0.390625 -0.53125 0.6875q-0.3125 0.28125 -0.6875 0.46875q-0.375 0.1875 -0.796875 0.28125q-0.421875 0.09375 -0.859375 0.09375q-0.828125 0 -1.453125 -0.203125q-0.625 -0.21875 -1.046875 -0.65625q-0.421875 -0.453125 -0.640625 -1.140625q-0.203125 -0.703125 -0.203125 -1.65625l0 -6.53125l1.65625 0l0 6.4375q0 1.1875 0.484375 1.78125q0.484375 0.59375 1.484375 0.59375q0.734375 0 1.234375 -0.234375q0.515625 -0.25 0.8125 -0.703125q0.3125 -0.46875 0.4375 -1.140625q0.140625 -0.671875 0.140625 -1.546875l0 -5.1875l1.65625 0l0 10.0l-1.34375 0zm7.532898 -1.171875q0.15625 0 0.359375 -0.015625q0.21875 -0.03125 0.40625 -0.046875q0.1875 -0.03125 0.34375 -0.0625q0.171875 -0.046875 0.25 -0.0625l0 1.25q-0.125 0.0625 -0.3125 0.109375q-0.171875 0.046875 -0.390625 0.09375q-0.21875 0.046875 -0.453125 0.0625q-0.234375 0.03125 -0.46875 0.03125q-0.5625 0 -1.046875 -0.15625q-0.484375 -0.140625 -0.84375 -0.484375q-0.34375 -0.359375 -0.546875 -0.96875q-0.1875 -0.609375 -0.1875 -1.53125l0 -5.796875l-1.421875 0l0 -0.734375l1.421875 -0.71875l0.703125 -2.09375l0.953125 0l0 2.296875l2.515625 0l0 1.25l-2.515625 0l0 5.796875q0 0.890625 0.28125 1.34375q0.296875 0.4375 0.953125 0.4375zm4.9626465 1.171875l-1.671875 0l0 -10.0l1.671875 0l0 10.0zm-1.796875 -12.703125q0 -0.546875 0.28125 -0.796875q0.28125 -0.25 0.6875 -0.25q0.203125 0 0.375 0.0625q0.1875 0.0625 0.3125 0.1875q0.140625 0.125 0.203125 0.328125q0.078125 0.1875 0.078125 0.46875q0 0.53125 -0.28125 0.796875q-0.28125 0.25 -0.6875 0.25q-0.40625 0 -0.6875 -0.25q-0.28125 -0.265625 -0.28125 -0.796875zm13.109253 7.6875q0 1.25 -0.3125 2.21875q-0.296875 0.96875 -0.875 1.625q-0.5625 0.65625 -1.375 1.015625q-0.796875 0.34375 -1.8125 0.34375q-0.9375 0 -1.734375 -0.34375q-0.796875 -0.359375 -1.375 -1.015625q-0.578125 -0.65625 -0.90625 -1.625q-0.3125 -0.96875 -0.3125 -2.21875q0 -1.25 0.296875 -2.203125q0.3125 -0.96875 0.875 -1.625q0.5625 -0.65625 1.375 -1.0q0.828125 -0.34375 1.828125 -0.34375q0.9375 0 1.734375 0.34375q0.796875 0.34375 1.375 1.0q0.578125 0.65625 0.890625 1.625q0.328125 0.953125 0.328125 2.203125zm-7.0 0q0 1.90625 0.625 2.875q0.625 0.953125 2.03125 0.953125q1.40625 0 2.015625 -0.953125q0.625 -0.96875 0.625 -2.875q0 -1.90625 -0.625 -2.84375q-0.625 -0.953125 -2.03125 -0.953125q-1.40625 0 -2.03125 0.953125q-0.609375 0.9375 -0.609375 2.84375zm15.861206 5.015625l0 -6.4375q0 -1.1875 -0.484375 -1.78125q-0.46875 -0.59375 -1.484375 -0.59375q-0.734375 0 -1.234375 0.25q-0.5 0.234375 -0.8125 0.703125q-0.3125 0.453125 -0.4375 1.125q-0.125 0.671875 -0.125 1.546875l0 5.1875l-1.671875 0l0 -10.0l1.359375 0l0.234375 1.34375l0.09375 0q0.21875 -0.390625 0.53125 -0.671875q0.328125 -0.296875 0.6875 -0.484375q0.375 -0.1875 0.796875 -0.28125q0.421875 -0.09375 0.859375 -0.09375q1.671875 0 2.5 0.875q0.84375 0.875 0.84375 2.78125l0 6.53125l-1.65625 0zm10.720398 -2.734375q0 0.71875 -0.265625 1.265625q-0.25 0.546875 -0.75 0.921875q-0.5 0.359375 -1.203125 0.546875q-0.703125 0.1875 -1.578125 0.1875q-0.984375 0 -1.703125 -0.171875q-0.703125 -0.15625 -1.25 -0.46875l0 -1.5q0.296875 0.140625 0.640625 0.28125q0.34375 0.140625 0.71875 0.25q0.390625 0.109375 0.796875 0.1875q0.40625 0.0625 0.796875 0.0625q0.59375 0 1.0 -0.09375q0.421875 -0.109375 0.6875 -0.296875q0.265625 -0.1875 0.375 -0.453125q0.125 -0.265625 0.125 -0.59375q0 -0.28125 -0.09375 -0.515625q-0.09375 -0.234375 -0.34375 -0.453125q-0.234375 -0.21875 -0.65625 -0.4375q-0.40625 -0.234375 -1.0625 -0.515625q-0.65625 -0.28125 -1.1875 -0.546875q-0.515625 -0.28125 -0.890625 -0.625q-0.359375 -0.34375 -0.5625 -0.78125q-0.1875 -0.4375 -0.1875 -1.046875q0 -0.640625 0.25 -1.140625q0.25 -0.5 0.703125 -0.828125q0.453125 -0.34375 1.09375 -0.515625q0.640625 -0.171875 1.421875 -0.171875q0.875 0 1.609375 0.203125q0.734375 0.1875 1.390625 0.5l-0.5625 1.328125q-0.59375 -0.265625 -1.21875 -0.453125q-0.625 -0.203125 -1.28125 -0.203125q-0.921875 0 -1.375 0.3125q-0.4375 0.296875 -0.4375 0.859375q0 0.328125 0.09375 0.5625q0.109375 0.234375 0.359375 0.453125q0.265625 0.203125 0.6875 0.421875q0.4375 0.203125 1.0625 0.46875q0.65625 0.28125 1.171875 0.5625q0.515625 0.265625 0.875 0.609375q0.375 0.328125 0.5625 0.765625q0.1875 0.4375 0.1875 1.0625z" fill-rule="nonzero"/><path fill="#3c78d8" d="m695.65094 107.54068l0 0c0 -2.296112 1.8613281 -4.1574783 4.1574707 -4.1574783l0 0c1.1026001 0 2.1600952 0.4380188 2.9397583 1.2176971c0.7796631 0.77967834 1.2177124 1.8371506 1.2177124 2.9397812l0 0c0 2.296112 -1.8613892 4.157486 -4.1574707 4.157486l0 0c-2.2961426 0 -4.1574707 -1.8613739 -4.1574707 -4.157486z" fill-rule="evenodd"/><path fill="#3c78d8" d="m700.621 126.570656l0 0c0 -2.296112 1.8613281 -4.1574783 4.1574707 -4.1574783l0 0c1.1026001 0 2.1600952 0.4380188 2.9397583 1.2176971c0.7796631 0.77967834 1.2177124 1.8371506 1.2177124 2.9397812l0 0c0 2.2961197 -1.8613892 4.1574783 -4.1574707 4.1574783l0 0c-2.2961426 0 -4.1574707 -1.8613586 -4.1574707 -4.1574783z" fill-rule="evenodd"/><path fill="#3c78d8" d="m687.65094 139.54068l0 0c0 -2.296112 1.8613281 -4.1574707 4.1574707 -4.1574707l0 0c1.1026001 0 2.1600952 0.4380188 2.9397583 1.2176971c0.7796631 0.77967834 1.2177124 1.837143 1.2177124 2.9397736l0 0c0 2.296112 -1.8613892 4.157486 -4.1574707 4.157486l0 0c-2.2961426 0 -4.1574707 -1.8613739 -4.1574707 -4.157486z" fill-rule="evenodd"/><path fill="#3c78d8" d="m687.65094 155.54068l0 0c0 -2.296112 1.8613281 -4.1574707 4.1574707 -4.1574707l0 0c1.1026001 0 2.1600952 0.4380188 2.9397583 1.2176971c0.7796631 0.77967834 1.2177124 1.837143 1.2177124 2.9397736l0 0c0 2.296112 -1.8613892 4.157486 -4.1574707 4.157486l0 0c-2.2961426 0 -4.1574707 -1.8613739 -4.1574707 -4.157486z" fill-rule="evenodd"/><path fill="#3c78d8" d="m727.65094 91.54068l0 0c0 -2.296112 1.8613281 -4.1574783 4.1574707 -4.1574783l0 0c1.1026001 0 2.1600952 0.4380188 2.9397583 1.2176971c0.7796631 0.77967834 1.2177124 1.8371506 1.2177124 2.9397812l0 0c0 2.296112 -1.8613892 4.157486 -4.1574707 4.157486l0 0c-2.2961426 0 -4.1574707 -1.8613739 -4.1574707 -4.157486z" fill-rule="evenodd"/><path fill="#cc0000" d="m711.65094 179.54068l0 0c0 -2.296112 1.8613281 -4.1574707 4.1574707 -4.1574707l0 0c1.1026001 0 2.1600952 0.4380188 2.9397583 1.2176971c0.7796631 0.77967834 1.2177124 1.837143 1.2177124 2.9397736l0 0c0 2.296112 -1.8613892 4.157486 -4.1574707 4.157486l0 0c-2.2961426 0 -4.1574707 -1.8613739 -4.1574707 -4.157486z" fill-rule="evenodd"/><path fill="#cc0000" d="m687.65094 195.54068l0 0c0 -2.296112 1.8613281 -4.1574707 4.1574707 -4.1574707l0 0c1.1026001 0 2.1600952 0.4380188 2.9397583 1.2176971c0.7796631 0.77967834 1.2177124 1.837143 1.2177124 2.9397736l0 0c0 2.296112 -1.8613892 4.157486 -4.1574707 4.157486l0 0c-2.2961426 0 -4.1574707 -1.8613739 -4.1574707 -4.157486z" fill-rule="evenodd"/><path fill="#cc0000" d="m703.65094 211.54068l0 0c0 -2.296112 1.8613281 -4.1574707 4.1574707 -4.1574707l0 0c1.1026001 0 2.1600952 0.4380188 2.9397583 1.2176971c0.7796631 0.77967834 1.2177124 1.837143 1.2177124 2.9397736l0 0c0 2.296112 -1.8613892 4.157486 -4.1574707 4.157486l0 0c-2.2961426 0 -4.1574707 -1.8613739 -4.1574707 -4.157486z" fill-rule="evenodd"/><path fill="#cc0000" d="m711.65094 227.54068l0 0c0 -2.296112 1.8613281 -4.1574707 4.1574707 -4.1574707l0 0c1.1026001 0 2.1600952 0.4380188 2.9397583 1.2176971c0.7796631 0.77967834 1.2177124 1.837143 1.2177124 2.9397736l0 0c0 2.296112 -1.8613892 4.157486 -4.1574707 4.157486l0 0c-2.2961426 0 -4.1574707 -1.8613739 -4.1574707 -4.157486z" fill-rule="evenodd"/><path fill="#cc0000" d="m687.65094 219.54068l0 0c0 -2.296112 1.8613281 -4.1574707 4.1574707 -4.1574707l0 0c1.1026001 0 2.1600952 0.4380188 2.9397583 1.2176971c0.7796631 0.77967834 1.2177124 1.837143 1.2177124 2.9397736l0 0c0 2.296112 -1.8613892 4.157486 -4.1574707 4.157486l0 0c-2.2961426 0 -4.1574707 -1.8613739 -4.1574707 -4.157486z" fill-rule="evenodd"/><path fill="#cc0000" d="m687.65094 235.54068l0 0c0 -2.296112 1.8613281 -4.1574707 4.1574707 -4.1574707l0 0c1.1026001 0 2.1600952 0.4380188 2.9397583 1.2176971c0.7796631 0.77967834 1.2177124 1.837143 1.2177124 2.9397736l0 0c0 2.296112 -1.8613892 4.157486 -4.1574707 4.157486l0 0c-2.2961426 0 -4.1574707 -1.8613739 -4.1574707 -4.157486z" fill-rule="evenodd"/><path fill="#cc0000" d="m671.65094 251.54068l0 0c0 -2.296112 1.8613281 -4.1574707 4.1574707 -4.1574707l0 0c1.1026001 0 2.1600952 0.4380188 2.9397583 1.2176971c0.7796631 0.77967834 1.2177124 1.837143 1.2177124 2.9397736l0 0c0 2.296112 -1.8613892 4.157486 -4.1574707 4.157486l0 0c-2.2961426 0 -4.1574707 -1.8613739 -4.1574707 -4.157486z" fill-rule="evenodd"/><path fill="#6aa84f" d="m615.65094 251.54068l0 0c0 -2.296112 1.8613281 -4.1574707 4.1574707 -4.1574707l0 0c1.1026001 0 2.1600952 0.4380188 2.9397583 1.2176971c0.7796631 0.77967834 1.2177124 1.837143 1.2177124 2.9397736l0 0c0 2.296112 -1.8613892 4.157486 -4.1574707 4.157486l0 0c-2.2961426 0 -4.1574707 -1.8613739 -4.1574707 -4.157486z" fill-rule="evenodd"/><path fill="#6aa84f" d="m631.65094 267.54068l0 0c0 -2.296112 1.8613281 -4.1574707 4.1574707 -4.1574707l0 0c1.1026001 0 2.1600952 0.4380188 2.9397583 1.2176819c0.7796631 0.7796936 1.2177124 1.8371582 1.2177124 2.9397888l0 0c0 2.296112 -1.8613892 4.1574707 -4.1574707 4.1574707l0 0c-2.2961426 0 -4.1574707 -1.8613586 -4.1574707 -4.1574707z" fill-rule="evenodd"/><path fill="#6aa84f" d="m631.65094 243.54068l0 0c0 -2.296112 1.8613281 -4.1574707 4.1574707 -4.1574707l0 0c1.1026001 0 2.1600952 0.4380188 2.9397583 1.2176971c0.7796631 0.77967834 1.2177124 1.837143 1.2177124 2.9397736l0 0c0 2.296112 -1.8613892 4.157486 -4.1574707 4.157486l0 0c-2.2961426 0 -4.1574707 -1.8613739 -4.1574707 -4.157486z" fill-rule="evenodd"/><path fill="#6aa84f" d="m623.65094 219.54068l0 0c0 -2.296112 1.8613281 -4.1574707 4.1574707 -4.1574707l0 0c1.1026001 0 2.1600952 0.4380188 2.9397583 1.2176971c0.7796631 0.77967834 1.2177124 1.837143 1.2177124 2.9397736l0 0c0 2.296112 -1.8613892 4.157486 -4.1574707 4.157486l0 0c-2.2961426 0 -4.1574707 -1.8613739 -4.1574707 -4.157486z" fill-rule="evenodd"/><path fill="#6aa84f" d="m607.65094 243.54068l0 0c0 -2.296112 1.8613281 -4.1574707 4.1574707 -4.1574707l0 0c1.1026001 0 2.1600952 0.4380188 2.9397583 1.2176971c0.7796631 0.77967834 1.2177124 1.837143 1.2177124 2.9397736l0 0c0 2.296112 -1.8613892 4.157486 -4.1574707 4.157486l0 0c-2.2961426 0 -4.1574707 -1.8613739 -4.1574707 -4.157486z" fill-rule="evenodd"/><path fill="#6aa84f" d="m591.65094 275.54068l0 0c0 -2.296112 1.8613281 -4.1574707 4.1574707 -4.1574707l0 0c1.1026001 0 2.1600952 0.4380188 2.9397583 1.2176819c0.7796631 0.7796936 1.2177124 1.8371582 1.2177124 2.9397888l0 0c0 2.296112 -1.8613892 4.1574707 -4.1574707 4.1574707l0 0c-2.2961426 0 -4.1574707 -1.8613586 -4.1574707 -4.1574707z" fill-rule="evenodd"/><path fill="#6aa84f" d="m639.65094 227.54068l0 0c0 -2.296112 1.8613281 -4.1574707 4.1574707 -4.1574707l0 0c1.1026001 0 2.1600952 0.4380188 2.9397583 1.2176971c0.7796631 0.77967834 1.2177124 1.837143 1.2177124 2.9397736l0 0c0 2.296112 -1.8613892 4.157486 -4.1574707 4.157486l0 0c-2.2961426 0 -4.1574707 -1.8613739 -4.1574707 -4.157486z" fill-rule="evenodd"/></g></svg>