<svg viewBox="0 0 389 278" xmlns="http://www.w3.org/2000/svg" xmlns:xlink="http://www.w3.org/1999/xlink"><defs><style>*{stroke-linecap:butt;stroke-linejoin:round}</style></defs><g id="figure_1"><path d="M0 278.3h390V0H0z" fill="#fff" id="patch_1"/><g id="axes_1"><path d="M48 239.8h334.7V22.3H48z" fill="#eaeaf2" id="patch_2"/><g id="matplotlib.axis_1"><g id="xtick_1"><g id="text_1"><defs><path d="M9.8 73h14.7l18.6-49.7 18.7 49.6h14.7V0H67v64L48 14H38L19.5 64V0H9.8z" id="DejaVuSans-4d"/></defs><use xlink:href="#DejaVuSans-4d" transform="matrix(.1 0 0 -.1 67.5 254.4)" fill="#262626"/></g></g><g id="xtick_2"><g id="text_2"><defs><path d="M-.3 73h61.7v-8.4H35.5V0h-10v64.6H-.2z" id="DejaVuSans-54"/></defs><use xlink:href="#DejaVuSans-54" transform="matrix(.1 0 0 -.1 116.6 254.4)" fill="#262626"/></g></g><g id="xtick_3"><g id="text_3"><defs><path d="M3.3 73h10l15.3-61.7L44 72.9h11l15.4-61.6 15.3 61.6h10L77.3 0H64.9L49.5 63.3 34 0H21.6z" id="DejaVuSans-57"/></defs><use xlink:href="#DejaVuSans-57" transform="matrix(.1 0 0 -.1 162.6 254.4)" fill="#262626"/></g></g><g id="xtick_4"><g id="text_4"><defs><path d="M54.9 33V0h-9v32.7q0 7.8-3 11.6-3 3.9-9.1 3.9-7.3 0-11.5-4.7Q18.1 39 18.1 31V0h-9v76h9V46.2q3.2 5 7.6 7.4Q30.1 56 35.8 56q9.4 0 14.2-5.8Q55 44.3 55 33z" id="DejaVuSans-68"/></defs><g transform="matrix(.1 0 0 -.1 209.1 254.4)" fill="#262626"><use xlink:href="#DejaVuSans-54"/><use x="61.1" xlink:href="#DejaVuSans-68"/></g></g></g><g id="xtick_5"><g id="text_5"><defs><path d="M9.8 73h41.9v-8.4h-32V43h28.9v-8.3h-29V0H9.9z" id="DejaVuSans-46"/></defs><use xlink:href="#DejaVuSans-46" transform="matrix(.1 0 0 -.1 260.3 254.4)" fill="#262626"/></g></g><g id="xtick_6"><g id="text_6"><defs><path d="M53.5 70.5V61q-5.6 2.7-10.6 4-5 1.3-9.6 1.3-8 0-12.4-3.1t-4.4-8.9q0-4.8 3-7.3 2.8-2.5 11-4l5.9-1.2q11-2.1 16.3-7.4 5.2-5.3 5.2-14.2 0-10.6-7.1-16Q43.7-1.5 30-1.5q-5.2 0-11 1.1Q13 1 6.9 3.3v10.2q6-3.4 11.8-5.1Q24.4 6.6 30 6.6q8.4 0 13 3.3t4.6 9.5q0 5.4-3.3 8.4t-10.8 4.5l-6 1.2q-11 2.2-16 6.9t-5 13q0 9.7 7 15.3 6.7 5.5 18.7 5.5 5.1 0 10.4-1 5.4-.8 11-2.7z" id="DejaVuSans-53"/><path d="M34.3 27.5q-11 0-15.1-2.5-4.2-2.5-4.2-8.5 0-4.8 3.1-7.6 3.2-2.8 8.6-2.8 7.5 0 12 5.3t4.5 14v2zm17.9 3.7V0h-9v8.3q-3-5-7.7-7.3Q31-1.4 24.3-1.4 16-1.4 11 3.3 6 8 6 15.9q0 9.2 6.2 14 6.2 4.6 18.4 4.6h12.6v1q0 6.1-4 9.5-4.1 3.4-11.5 3.4-4.7 0-9.2-1.1-4.4-1.2-8.5-3.4v8.3q5 2 9.6 2.8 4.6 1 9 1 11.9 0 17.7-6.2 5.9-6.1 5.9-18.6z" id="DejaVuSans-61"/></defs><g transform="matrix(.1 0 0 -.1 304.8 254.4)" fill="#262626"><use xlink:href="#DejaVuSans-53"/><use x="63.5" xlink:href="#DejaVuSans-61"/></g></g></g><g id="xtick_7"><g id="text_7"><defs><path d="M8.5 21.6v33h9V22q0-7.7 3-11.6 3-4 9-4 7.4 0 11.6 4.7 4.2 4.7 4.2 12.7v31h9V0h-9v8.4Q42 3.4 37.7 1q-4.3-2.4-10-2.4-9.4 0-14.3 5.8-4.9 5.9-4.9 17.2zM31.1 56z" id="DejaVuSans-75"/></defs><g transform="matrix(.1 0 0 -.1 352.5 254.4)" fill="#262626"><use xlink:href="#DejaVuSans-53"/><use x="63.5" xlink:href="#DejaVuSans-75"/></g></g></g><g id="text_8"><defs><path d="M45.4 46.4V76h9V0h-9v8.2Q42.6 3.3 38.3 1q-4.4-2.4-10.4-2.4-10 0-16.2 7.9-6.2 8-6.2 20.8 0 12.9 6.2 20.8Q18 56 28 56q6 0 10.4-2.4 4.3-2.3 7.1-7.2zM14.8 27.3q0-10 4-15.6Q23 6.2 30.2 6.2q7.1 0 11.2 5.7 4.1 5.6 4.1 15.5t-4.1 15.5q-4.1 5.7-11.2 5.7t-11.2-5.7q-4.1-5.6-4.1-15.5z" id="DejaVuSans-64"/><path d="M18.3 70.2V54.7h18.5v-7H18.3V18q0-6.7 1.8-8.6 1.9-1.9 7.5-1.9h9.2V0h-9.2Q17.2 0 13.2 3.9T9.2 18v29.7H2.8v7h6.6v15.5z" id="DejaVuSans-74"/><path d="M56.2 29.6v-4.4H14.9q.6-9.3 5.6-14.1 5-4.9 14-4.9 5 0 10 1.3 4.8 1.2 9.6 3.8V2.8q-4.8-2-10-3.1-5-1.1-10.2-1.1-13.1 0-20.7 7.6-7.7 7.6-7.7 20.6 0 13.4 7.3 21.3Q20 56 32.3 56q11 0 17.5-7.1 6.4-7.1 6.4-19.3zm-9 2.6q0 7.4-4.1 11.8-4 4.4-10.7 4.4-7.5 0-12-4.3-4.5-4.2-5.2-12z" id="DejaVuSans-65"/></defs><g transform="matrix(.11 0 0 -.11 203 268.8)" fill="#262626"><use xlink:href="#DejaVuSans-64"/><use x="63.5" xlink:href="#DejaVuSans-61"/><use x="124.8" xlink:href="#DejaVuSans-74"/><use x="164" xlink:href="#DejaVuSans-65"/></g></g></g><g id="matplotlib.axis_2"><g id="ytick_1"><path clip-path="url(#p35183ea882)" d="M48 239.8h334.7" fill="none" stroke="#fff" stroke-linecap="round" id="line2d_8"/><g id="text_9"><defs><path d="M31.8 66.4q-7.6 0-11.5-7.5-3.8-7.5-3.8-22.5t3.8-22.5q3.9-7.5 11.5-7.5 7.7 0 11.5 7.5T47 36.4q0 15-3.8 22.5t-11.5 7.5zm0 7.8q12.2 0 18.7-9.7T57 36.4Q57 18 50.5 8.3 44-1.4 31.8-1.4 19.5-1.4 13 8.3q-6.5 9.7-6.5 28 0 18.5 6.5 28.2 6.4 9.7 18.7 9.7z" id="DejaVuSans-30"/></defs><use xlink:href="#DejaVuSans-30" transform="matrix(.1 0 0 -.1 34.6 243.6)" fill="#262626"/></g></g><g id="ytick_2"><path clip-path="url(#p35183ea882)" d="M48 201h334.7" fill="none" stroke="#fff" stroke-linecap="round" id="line2d_10"/><g id="text_10"><defs><path d="M12.4 8.3h16.1v55.6L11 60.4v9l17.4 3.5h9.9V8.3h16V0H12.5z" id="DejaVuSans-31"/></defs><g transform="matrix(.1 0 0 -.1 21.8 204.8)" fill="#262626"><use xlink:href="#DejaVuSans-31"/><use x="63.6" xlink:href="#DejaVuSans-30"/><use x="127.2" xlink:href="#DejaVuSans-30"/></g></g></g><g id="ytick_3"><path clip-path="url(#p35183ea882)" d="M48 162.2h334.7" fill="none" stroke="#fff" stroke-linecap="round" id="line2d_12"/><g id="text_11"><defs><path d="M19.2 8.3h34.4V0H7.3v8.3l15.3 15.6q9.7 9.8 12.2 12.6 4.7 5.3 6.6 9 2 3.7 2 7.3 0 5.8-4.2 9.5-4 3.6-10.6 3.6-4.6 0-9.8-1.6-5.1-1.6-11-4.9v10q6 2.4 11.1 3.6 5.2 1.2 9.5 1.2 11.4 0 18-5.7 6.8-5.6 6.8-15 0-4.6-1.7-8.6-1.6-4-6-9.5l-7.9-8.2L19.2 8.3z" id="DejaVuSans-32"/></defs><g transform="matrix(.1 0 0 -.1 21.8 166)" fill="#262626"><use xlink:href="#DejaVuSans-32"/><use x="63.6" xlink:href="#DejaVuSans-30"/><use x="127.2" xlink:href="#DejaVuSans-30"/></g></g></g><g id="ytick_4"><path clip-path="url(#p35183ea882)" d="M48 123.4h334.7" fill="none" stroke="#fff" stroke-linecap="round" id="line2d_14"/><g id="text_12"><defs><path d="M40.6 39.3q7-1.5 11-6.3t4-11.8q0-10.8-7.4-16.7-7.4-6-21.1-6-4.6 0-9.4 1-4.9.9-10 2.7v9.5q4-2.4 8.9-3.6Q21.5 7 26.8 7q9.3 0 14.1 3.6 4.9 3.7 4.9 10.7 0 6.4-4.5 10Q36.8 35 28.7 35h-8.5V43h9q7.2 0 11 3 3.9 2.8 3.9 8.3 0 5.6-4 8.6t-11.4 3q-4 0-8.7-.9-4.6-.8-10.2-2.7v8.8q5.6 1.6 10.5 2.3 5 .8 9.3.8 11.2 0 17.8-5 6.5-5.2 6.5-13.9 0-6-3.5-10.2-3.4-4.2-9.8-5.8z" id="DejaVuSans-33"/></defs><g transform="matrix(.1 0 0 -.1 21.8 127.2)" fill="#262626"><use xlink:href="#DejaVuSans-33"/><use x="63.6" xlink:href="#DejaVuSans-30"/><use x="127.2" xlink:href="#DejaVuSans-30"/></g></g></g><g id="ytick_5"><path clip-path="url(#p35183ea882)" d="M48 84.6h334.7" fill="none" stroke="#fff" stroke-linecap="round" id="line2d_16"/><g id="text_13"><defs><path d="M37.8 64.3l-25-39h25zM35.2 73h12.4V25.4H58v-8.2H47.6V0h-9.8v17.2h-33v9.5z" id="DejaVuSans-34"/></defs><g transform="matrix(.1 0 0 -.1 21.8 88.4)" fill="#262626"><use xlink:href="#DejaVuSans-34"/><use x="63.6" xlink:href="#DejaVuSans-30"/><use x="127.2" xlink:href="#DejaVuSans-30"/></g></g></g><g id="ytick_6"><path clip-path="url(#p35183ea882)" d="M48 45.9h334.7" fill="none" stroke="#fff" stroke-linecap="round" id="line2d_18"/><g id="text_14"><defs><path d="M10.8 73h38.7v-8.4H19.8V46.7q2.2.8 4.3 1.1 2.2.4 4.3.4 12.2 0 19.4-6.7 7-6.7 7-18.1 0-11.8-7.2-18.3-7.4-6.5-20.7-6.5-4.6 0-9.4.8-4.7.7-9.8 2.3v10q4.4-2.5 9.1-3.6 4.7-1.2 9.9-1.2 8.5 0 13.4 4.4 5 4.5 5 12 0 7.7-5 12.1Q35 40 26.7 40q-4 0-7.9-.9-4-.9-8-2.7z" id="DejaVuSans-35"/></defs><g transform="matrix(.1 0 0 -.1 21.8 49.7)" fill="#262626"><use xlink:href="#DejaVuSans-35"/><use x="63.6" xlink:href="#DejaVuSans-30"/><use x="127.2" xlink:href="#DejaVuSans-30"/></g></g></g><g id="text_15"><defs><path d="M48.8 52.6v-8.4Q45 46.3 41 47.3q-3.8 1-7.7 1-8.7 0-13.6-5.5Q15 37.3 15 27.3t4.8-15.6q4.9-5.5 13.6-5.5 4 0 7.7 1 3.9 1.1 7.7 3.2V2.1Q45 .3 41-.5q-4-1-8.6-1-12.3 0-19.6 7.8-7.3 7.8-7.3 21 0 13.4 7.4 21Q20.2 56 33 56q4.2 0 8.1-.9 4-.8 7.7-2.5z" id="DejaVuSans-63"/><path d="M30.6 48.4q-7.2 0-11.4-5.6Q15 37 15 27.3t4.2-15.5q4.1-5.6 11.4-5.6 7.2 0 11.4 5.7 4.2 5.6 4.2 15.4 0 9.7-4.2 15.4-4.2 5.7-11.4 5.7zm0 7.6q11.7 0 18.4-7.6 6.7-7.6 6.7-21.1 0-13.4-6.7-21-6.7-7.7-18.4-7.7-11.8 0-18.4 7.6Q5.5 14 5.5 27.3q0 13.5 6.7 21Q18.8 56 30.6 56z" id="DejaVuSans-6f"/><path d="M54.9 33V0h-9v32.7q0 7.8-3 11.6-3 3.9-9.1 3.9-7.3 0-11.5-4.7Q18.1 39 18.1 31V0h-9v54.7h9v-8.5q3.2 5 7.6 7.4Q30.1 56 35.8 56q9.4 0 14.2-5.8Q55 44.3 55 33z" id="DejaVuSans-6e"/></defs><g transform="matrix(0 -.11 -.11 0 15.6 146.6)" fill="#262626"><use xlink:href="#DejaVuSans-63"/><use x="55" xlink:href="#DejaVuSans-6f"/><use x="116.2" xlink:href="#DejaVuSans-75"/><use x="179.5" xlink:href="#DejaVuSans-6e"/><use x="242.9" xlink:href="#DejaVuSans-74"/></g></g></g><path clip-path="url(#p35183ea882)" d="M52.7 239.8H91V68.4H52.7z" fill="#ea96a3" id="patch_3"/><path clip-path="url(#p35183ea882)" d="M100.5 239.8h38.3V36.6h-38.3z" fill="#c29a4b" id="patch_4"/><path clip-path="url(#p35183ea882)" d="M148.4 239.8h38.2V32.7h-38.2z" fill="#88a746" id="patch_5"/><path clip-path="url(#p35183ea882)" d="M196.2 239.8h38.3V45h-38.3z" fill="#4aad8f" id="patch_6"/><path clip-path="url(#p35183ea882)" d="M244 239.8h38.3V45H244z" fill="#4eabb8" id="patch_7"/><path clip-path="url(#p35183ea882)" d="M291.9 239.8H330V60.2H292z" fill="#a0adea" id="patch_8"/><path clip-path="url(#p35183ea882)" d="M339.7 239.8H378V47h-38.3z" fill="#e78ae0" id="patch_9"/><path d="M48 239.8V22.3" fill="none" id="patch_10"/><path d="M382.7 239.8V22.3" fill="none" id="patch_11"/><path d="M48 239.8h334.7" fill="none" id="patch_12"/><path d="M48 22.3h334.7" fill="none" id="patch_13"/><g id="text_16"><defs><path d="M44.3 53v-8.4q-3.8 2-8 2.9-4 1-8.4 1-6.7 0-10-2-3.4-2.1-3.4-6.2 0-3.1 2.4-5 2.4-1.7 9.6-3.3l3-.7q9.7-2 13.7-5.8 4-3.7 4-10.4 0-7.6-6-12-6-4.5-16.6-4.5-4.4 0-9.1.8-4.8.9-10 2.6v9.3q5-2.6 9.7-4 4.9-1.2 9.6-1.2 6.4 0 9.8 2.2 3.4 2.2 3.4 6.1 0 3.7-2.5 5.6-2.4 2-10.8 3.8l-3.1.7q-8.4 1.8-12 5.4-3.8 3.6-3.8 10 0 7.7 5.5 11.9Q16.7 56 26.8 56q5 0 9.4-.7 4.4-.8 8-2.2z" id="DejaVuSans-73"/><path d="M19.7 64.8V37.4H32q6.9 0 10.6 3.6 3.8 3.5 3.8 10.1t-3.8 10.1q-3.7 3.6-10.6 3.6zm-9.9 8.1h22.3q12.2 0 18.5-5.5Q57 61.8 57 51q0-10.8-6.3-16.3t-18.5-5.5H19.7V0H9.8z" id="DejaVuSans-50"/><path d="M9.4 54.7h9V0h-9zm0 21.3h9V64.6h-9z" id="DejaVuSans-69"/><path d="M9.8 73h9.9V42l32.7 31H65L28.9 39 67.7 0h-13l-35 35.1V0H9.8z" id="DejaVuSans-4b"/><path d="M45.4 28q0 9.8-4 15.1-4 5.4-11.3 5.4-7.2 0-11.3-5.4-4-5.4-4-15.1t4-15.1q4-5.4 11.3-5.4 7.3 0 11.3 5.4 4 5.4 4 15zm9-21.2q0-14-6.2-20.8-6.2-6.8-19-6.8-4.7 0-9 .7-4.1.7-8 2.2v8.7q3.9-2.1 7.7-3.1 3.9-1 7.9-1 8.8 0 13.2 4.5 4.4 4.6 4.4 14v4.4q-2.8-4.8-7.1-7.2Q33.9 0 27.9 0q-10 0-16.2 7.7Q5.5 15.3 5.5 28q0 12.7 6.2 20.3Q17.8 56 27.9 56q6 0 10.4-2.4 4.3-2.4 7.1-7.2v8.3h9z" id="DejaVuSans-67"/><path d="M9.4 76h9V0h-9z" id="DejaVuSans-6c"/><path d="M19.7 34.8V8.1h15.8q8 0 11.8 3.3 3.8 3.3 3.8 10 0 7-3.8 10.2-3.8 3.2-11.8 3.2zm0 30v-22h14.6q7.2 0 10.7 2.7 3.6 2.8 3.6 8.3 0 5.5-3.6 8.3-3.5 2.7-10.7 2.7zm-9.9 8.1H35q11.3 0 17.4-4.7 6.1-4.7 6.1-13.3 0-6.7-3.1-10.7-3.1-4-9.2-4.9 7.3-1.5 11.3-6.5 4-5 4-12.4 0-9.8-6.6-15Q48.3 0 35.9 0H10z" id="DejaVuSans-42"/><path d="M32.2-5q-3.8-9.8-7.5-12.8-3.6-3-9.6-3H7.9v7.5h5.3q3.7 0 5.7 1.8 2.1 1.7 4.6 8.3l1.6 4L3 54.8h9.5l17-42.8 17.2 42.8h9.5z" id="DejaVuSans-79"/><path d="M19.7 64.8V8.1h11.9q15 0 22 6.8 7 6.9 7 21.6 0 14.7-7 21.5-7 6.8-22 6.8zm-9.9 8.1h20.3q21.2 0 31-8.8 10-8.8 10-27.6T61 8.8Q51.1 0 30.1 0H9.8z" id="DejaVuSans-44"/><path d="M37.1 76v-7.5h-8.6q-4.8 0-6.7-2-1.9-2-1.9-7v-4.8h14.8v-7H20V0h-9v47.7H2.3v7h8.6v3.8q0 9.1 4.2 13.3Q19.4 76 28.6 76z" id="DejaVuSans-66"/><path d="M9 76h9.1V31L45 54.7h11.5L27.4 29 57.6 0H46L18.1 26.7V0h-9z" id="DejaVuSans-6b"/></defs><g transform="matrix(.12 0 0 -.12 124.8 16.3)" fill="#262626"><use xlink:href="#DejaVuSans-50"/><use x="60.3" xlink:href="#DejaVuSans-6f"/><use x="121.4" xlink:href="#DejaVuSans-6c"/><use x="149.2" xlink:href="#DejaVuSans-69"/><use x="177" xlink:href="#DejaVuSans-63"/><use x="232" xlink:href="#DejaVuSans-65"/><use x="293.5" xlink:href="#DejaVuSans-20"/><use x="325.3" xlink:href="#DejaVuSans-4b"/><use x="390.9" xlink:href="#DejaVuSans-69"/><use x="418.7" xlink:href="#DejaVuSans-6c"/><use x="446.4" xlink:href="#DejaVuSans-6c"/><use x="474.2" xlink:href="#DejaVuSans-69"/><use x="502" xlink:href="#DejaVuSans-6e"/><use x="565.4" xlink:href="#DejaVuSans-67"/><use x="628.9" xlink:href="#DejaVuSans-73"/><use x="681" xlink:href="#DejaVuSans-20"/><use x="712.7" xlink:href="#DejaVuSans-42"/><use x="781.3" xlink:href="#DejaVuSans-79"/><use x="840.5" xlink:href="#DejaVuSans-20"/><use x="872.3" xlink:href="#DejaVuSans-44"/><use x="949.3" xlink:href="#DejaVuSans-61"/><use x="1010.6" xlink:href="#DejaVuSans-79"/><use x="1069.8" xlink:href="#DejaVuSans-20"/><use x="1101.6" xlink:href="#DejaVuSans-6f"/><use x="1162.7" xlink:href="#DejaVuSans-66"/><use x="1198" xlink:href="#DejaVuSans-20"/><use x="1229.7" xlink:href="#DejaVuSans-57"/><use x="1328.5" xlink:href="#DejaVuSans-65"/><use x="1390.1" xlink:href="#DejaVuSans-65"/><use x="1451.6" xlink:href="#DejaVuSans-6b"/></g></g></g></g><defs><clipPath id="p35183ea882"><path d="M47.9 22.3h334.8v217.4H47.9z"/></clipPath></defs></svg>