<?xml version="1.0" encoding="utf-8" standalone="no"?>
<!DOCTYPE svg PUBLIC "-//W3C//DTD SVG 1.1//EN"
  "http://www.w3.org/Graphics/SVG/1.1/DTD/svg11.dtd">
<!-- Created with matplotlib (http://matplotlib.org/) -->
<svg version="1.1" viewBox="0 0 397 780" xmlns="http://www.w3.org/2000/svg" xmlns:xlink="http://www.w3.org/1999/xlink">
 <defs>
  <style type="text/css">
*{stroke-linecap:butt;stroke-linejoin:round;}
  </style>
 </defs>
 <g id="figure_1">
  <g id="patch_1">
   <path d="M 0 780.959562 
L 397.117812 780.959562 
L 397.117812 0 
L 0 0 
z
" style="fill:#ffffff;"/>
  </g>
  <g id="axes_1">
   <g id="patch_2">
    <path d="M 45.574063 742.4355 
L 380.374063 742.4355 
L 380.374063 35.7555 
L 45.574063 35.7555 
z
" style="fill:#eaeaf2;"/>
   </g>
   <g id="matplotlib.axis_1">
    <g id="xtick_1">
     <g id="line2d_1">
      <path clip-path="url(#p44c759a44c)" d="M 45.574063 742.4355 
L 45.574063 35.7555 
" style="fill:none;stroke:#ffffff;stroke-linecap:round;"/>
     </g>
     <g id="line2d_2"/>
     <g id="text_1">
      <!-- 0 -->
      <defs>
       <path d="M 31.78125 66.40625 
Q 24.171875 66.40625 20.328125 58.90625 
Q 16.5 51.421875 16.5 36.375 
Q 16.5 21.390625 20.328125 13.890625 
Q 24.171875 6.390625 31.78125 6.390625 
Q 39.453125 6.390625 43.28125 13.890625 
Q 47.125 21.390625 47.125 36.375 
Q 47.125 51.421875 43.28125 58.90625 
Q 39.453125 66.40625 31.78125 66.40625 
z
M 31.78125 74.21875 
Q 44.046875 74.21875 50.515625 64.515625 
Q 56.984375 54.828125 56.984375 36.375 
Q 56.984375 17.96875 50.515625 8.265625 
Q 44.046875 -1.421875 31.78125 -1.421875 
Q 19.53125 -1.421875 13.0625 8.265625 
Q 6.59375 17.96875 6.59375 36.375 
Q 6.59375 54.828125 13.0625 64.515625 
Q 19.53125 74.21875 31.78125 74.21875 
z
" id="DejaVuSans-30"/>
      </defs>
      <g style="fill:#262626;" transform="translate(42.392813 757.033937)scale(0.1 -0.1)">
       <use xlink:href="#DejaVuSans-30"/>
      </g>
     </g>
    </g>
    <g id="xtick_2">
     <g id="line2d_3">
      <path clip-path="url(#p44c759a44c)" d="M 112.534063 742.4355 
L 112.534063 35.7555 
" style="fill:none;stroke:#ffffff;stroke-linecap:round;"/>
     </g>
     <g id="line2d_4"/>
     <g id="text_2">
      <!-- 20 -->
      <defs>
       <path d="M 19.1875 8.296875 
L 53.609375 8.296875 
L 53.609375 0 
L 7.328125 0 
L 7.328125 8.296875 
Q 12.9375 14.109375 22.625 23.890625 
Q 32.328125 33.6875 34.8125 36.53125 
Q 39.546875 41.84375 41.421875 45.53125 
Q 43.3125 49.21875 43.3125 52.78125 
Q 43.3125 58.59375 39.234375 62.25 
Q 35.15625 65.921875 28.609375 65.921875 
Q 23.96875 65.921875 18.8125 64.3125 
Q 13.671875 62.703125 7.8125 59.421875 
L 7.8125 69.390625 
Q 13.765625 71.78125 18.9375 73 
Q 24.125 74.21875 28.421875 74.21875 
Q 39.75 74.21875 46.484375 68.546875 
Q 53.21875 62.890625 53.21875 53.421875 
Q 53.21875 48.921875 51.53125 44.890625 
Q 49.859375 40.875 45.40625 35.40625 
Q 44.1875 33.984375 37.640625 27.21875 
Q 31.109375 20.453125 19.1875 8.296875 
z
" id="DejaVuSans-32"/>
      </defs>
      <g style="fill:#262626;" transform="translate(106.171563 757.033937)scale(0.1 -0.1)">
       <use xlink:href="#DejaVuSans-32"/>
       <use x="63.623047" xlink:href="#DejaVuSans-30"/>
      </g>
     </g>
    </g>
    <g id="xtick_3">
     <g id="line2d_5">
      <path clip-path="url(#p44c759a44c)" d="M 179.494063 742.4355 
L 179.494063 35.7555 
" style="fill:none;stroke:#ffffff;stroke-linecap:round;"/>
     </g>
     <g id="line2d_6"/>
     <g id="text_3">
      <!-- 40 -->
      <defs>
       <path d="M 37.796875 64.3125 
L 12.890625 25.390625 
L 37.796875 25.390625 
z
M 35.203125 72.90625 
L 47.609375 72.90625 
L 47.609375 25.390625 
L 58.015625 25.390625 
L 58.015625 17.1875 
L 47.609375 17.1875 
L 47.609375 0 
L 37.796875 0 
L 37.796875 17.1875 
L 4.890625 17.1875 
L 4.890625 26.703125 
z
" id="DejaVuSans-34"/>
      </defs>
      <g style="fill:#262626;" transform="translate(173.131563 757.033937)scale(0.1 -0.1)">
       <use xlink:href="#DejaVuSans-34"/>
       <use x="63.623047" xlink:href="#DejaVuSans-30"/>
      </g>
     </g>
    </g>
    <g id="xtick_4">
     <g id="line2d_7">
      <path clip-path="url(#p44c759a44c)" d="M 246.454063 742.4355 
L 246.454063 35.7555 
" style="fill:none;stroke:#ffffff;stroke-linecap:round;"/>
     </g>
     <g id="line2d_8"/>
     <g id="text_4">
      <!-- 60 -->
      <defs>
       <path d="M 33.015625 40.375 
Q 26.375 40.375 22.484375 35.828125 
Q 18.609375 31.296875 18.609375 23.390625 
Q 18.609375 15.53125 22.484375 10.953125 
Q 26.375 6.390625 33.015625 6.390625 
Q 39.65625 6.390625 43.53125 10.953125 
Q 47.40625 15.53125 47.40625 23.390625 
Q 47.40625 31.296875 43.53125 35.828125 
Q 39.65625 40.375 33.015625 40.375 
z
M 52.59375 71.296875 
L 52.59375 62.3125 
Q 48.875 64.0625 45.09375 64.984375 
Q 41.3125 65.921875 37.59375 65.921875 
Q 27.828125 65.921875 22.671875 59.328125 
Q 17.53125 52.734375 16.796875 39.40625 
Q 19.671875 43.65625 24.015625 45.921875 
Q 28.375 48.1875 33.59375 48.1875 
Q 44.578125 48.1875 50.953125 41.515625 
Q 57.328125 34.859375 57.328125 23.390625 
Q 57.328125 12.15625 50.6875 5.359375 
Q 44.046875 -1.421875 33.015625 -1.421875 
Q 20.359375 -1.421875 13.671875 8.265625 
Q 6.984375 17.96875 6.984375 36.375 
Q 6.984375 53.65625 15.1875 63.9375 
Q 23.390625 74.21875 37.203125 74.21875 
Q 40.921875 74.21875 44.703125 73.484375 
Q 48.484375 72.75 52.59375 71.296875 
z
" id="DejaVuSans-36"/>
      </defs>
      <g style="fill:#262626;" transform="translate(240.091563 757.033937)scale(0.1 -0.1)">
       <use xlink:href="#DejaVuSans-36"/>
       <use x="63.623047" xlink:href="#DejaVuSans-30"/>
      </g>
     </g>
    </g>
    <g id="xtick_5">
     <g id="line2d_9">
      <path clip-path="url(#p44c759a44c)" d="M 313.414063 742.4355 
L 313.414063 35.7555 
" style="fill:none;stroke:#ffffff;stroke-linecap:round;"/>
     </g>
     <g id="line2d_10"/>
     <g id="text_5">
      <!-- 80 -->
      <defs>
       <path d="M 31.78125 34.625 
Q 24.75 34.625 20.71875 30.859375 
Q 16.703125 27.09375 16.703125 20.515625 
Q 16.703125 13.921875 20.71875 10.15625 
Q 24.75 6.390625 31.78125 6.390625 
Q 38.8125 6.390625 42.859375 10.171875 
Q 46.921875 13.96875 46.921875 20.515625 
Q 46.921875 27.09375 42.890625 30.859375 
Q 38.875 34.625 31.78125 34.625 
z
M 21.921875 38.8125 
Q 15.578125 40.375 12.03125 44.71875 
Q 8.5 49.078125 8.5 55.328125 
Q 8.5 64.0625 14.71875 69.140625 
Q 20.953125 74.21875 31.78125 74.21875 
Q 42.671875 74.21875 48.875 69.140625 
Q 55.078125 64.0625 55.078125 55.328125 
Q 55.078125 49.078125 51.53125 44.71875 
Q 48 40.375 41.703125 38.8125 
Q 48.828125 37.15625 52.796875 32.3125 
Q 56.78125 27.484375 56.78125 20.515625 
Q 56.78125 9.90625 50.3125 4.234375 
Q 43.84375 -1.421875 31.78125 -1.421875 
Q 19.734375 -1.421875 13.25 4.234375 
Q 6.78125 9.90625 6.78125 20.515625 
Q 6.78125 27.484375 10.78125 32.3125 
Q 14.796875 37.15625 21.921875 38.8125 
z
M 18.3125 54.390625 
Q 18.3125 48.734375 21.84375 45.5625 
Q 25.390625 42.390625 31.78125 42.390625 
Q 38.140625 42.390625 41.71875 45.5625 
Q 45.3125 48.734375 45.3125 54.390625 
Q 45.3125 60.0625 41.71875 63.234375 
Q 38.140625 66.40625 31.78125 66.40625 
Q 25.390625 66.40625 21.84375 63.234375 
Q 18.3125 60.0625 18.3125 54.390625 
z
" id="DejaVuSans-38"/>
      </defs>
      <g style="fill:#262626;" transform="translate(307.051563 757.033937)scale(0.1 -0.1)">
       <use xlink:href="#DejaVuSans-38"/>
       <use x="63.623047" xlink:href="#DejaVuSans-30"/>
      </g>
     </g>
    </g>
    <g id="xtick_6">
     <g id="line2d_11">
      <path clip-path="url(#p44c759a44c)" d="M 380.374063 742.4355 
L 380.374063 35.7555 
" style="fill:none;stroke:#ffffff;stroke-linecap:round;"/>
     </g>
     <g id="line2d_12"/>
     <g id="text_6">
      <!-- 100 -->
      <defs>
       <path d="M 12.40625 8.296875 
L 28.515625 8.296875 
L 28.515625 63.921875 
L 10.984375 60.40625 
L 10.984375 69.390625 
L 28.421875 72.90625 
L 38.28125 72.90625 
L 38.28125 8.296875 
L 54.390625 8.296875 
L 54.390625 0 
L 12.40625 0 
z
" id="DejaVuSans-31"/>
      </defs>
      <g style="fill:#262626;" transform="translate(370.830313 757.033937)scale(0.1 -0.1)">
       <use xlink:href="#DejaVuSans-31"/>
       <use x="63.623047" xlink:href="#DejaVuSans-30"/>
       <use x="127.246094" xlink:href="#DejaVuSans-30"/>
      </g>
     </g>
    </g>
    <g id="text_7">
     <!-- Percent of Shootings with body camera -->
     <defs>
      <path d="M 19.671875 64.796875 
L 19.671875 37.40625 
L 32.078125 37.40625 
Q 38.96875 37.40625 42.71875 40.96875 
Q 46.484375 44.53125 46.484375 51.125 
Q 46.484375 57.671875 42.71875 61.234375 
Q 38.96875 64.796875 32.078125 64.796875 
z
M 9.8125 72.90625 
L 32.078125 72.90625 
Q 44.34375 72.90625 50.609375 67.359375 
Q 56.890625 61.8125 56.890625 51.125 
Q 56.890625 40.328125 50.609375 34.8125 
Q 44.34375 29.296875 32.078125 29.296875 
L 19.671875 29.296875 
L 19.671875 0 
L 9.8125 0 
z
" id="DejaVuSans-50"/>
      <path d="M 56.203125 29.59375 
L 56.203125 25.203125 
L 14.890625 25.203125 
Q 15.484375 15.921875 20.484375 11.0625 
Q 25.484375 6.203125 34.421875 6.203125 
Q 39.59375 6.203125 44.453125 7.46875 
Q 49.3125 8.734375 54.109375 11.28125 
L 54.109375 2.78125 
Q 49.265625 0.734375 44.1875 -0.34375 
Q 39.109375 -1.421875 33.890625 -1.421875 
Q 20.796875 -1.421875 13.15625 6.1875 
Q 5.515625 13.8125 5.515625 26.8125 
Q 5.515625 40.234375 12.765625 48.109375 
Q 20.015625 56 32.328125 56 
Q 43.359375 56 49.78125 48.890625 
Q 56.203125 41.796875 56.203125 29.59375 
z
M 47.21875 32.234375 
Q 47.125 39.59375 43.09375 43.984375 
Q 39.0625 48.390625 32.421875 48.390625 
Q 24.90625 48.390625 20.390625 44.140625 
Q 15.875 39.890625 15.1875 32.171875 
z
" id="DejaVuSans-65"/>
      <path d="M 41.109375 46.296875 
Q 39.59375 47.171875 37.8125 47.578125 
Q 36.03125 48 33.890625 48 
Q 26.265625 48 22.1875 43.046875 
Q 18.109375 38.09375 18.109375 28.8125 
L 18.109375 0 
L 9.078125 0 
L 9.078125 54.6875 
L 18.109375 54.6875 
L 18.109375 46.1875 
Q 20.953125 51.171875 25.484375 53.578125 
Q 30.03125 56 36.53125 56 
Q 37.453125 56 38.578125 55.875 
Q 39.703125 55.765625 41.0625 55.515625 
z
" id="DejaVuSans-72"/>
      <path d="M 48.78125 52.59375 
L 48.78125 44.1875 
Q 44.96875 46.296875 41.140625 47.34375 
Q 37.3125 48.390625 33.40625 48.390625 
Q 24.65625 48.390625 19.8125 42.84375 
Q 14.984375 37.3125 14.984375 27.296875 
Q 14.984375 17.28125 19.8125 11.734375 
Q 24.65625 6.203125 33.40625 6.203125 
Q 37.3125 6.203125 41.140625 7.25 
Q 44.96875 8.296875 48.78125 10.40625 
L 48.78125 2.09375 
Q 45.015625 0.34375 40.984375 -0.53125 
Q 36.96875 -1.421875 32.421875 -1.421875 
Q 20.0625 -1.421875 12.78125 6.34375 
Q 5.515625 14.109375 5.515625 27.296875 
Q 5.515625 40.671875 12.859375 48.328125 
Q 20.21875 56 33.015625 56 
Q 37.15625 56 41.109375 55.140625 
Q 45.0625 54.296875 48.78125 52.59375 
z
" id="DejaVuSans-63"/>
      <path d="M 54.890625 33.015625 
L 54.890625 0 
L 45.90625 0 
L 45.90625 32.71875 
Q 45.90625 40.484375 42.875 44.328125 
Q 39.84375 48.1875 33.796875 48.1875 
Q 26.515625 48.1875 22.3125 43.546875 
Q 18.109375 38.921875 18.109375 30.90625 
L 18.109375 0 
L 9.078125 0 
L 9.078125 54.6875 
L 18.109375 54.6875 
L 18.109375 46.1875 
Q 21.34375 51.125 25.703125 53.5625 
Q 30.078125 56 35.796875 56 
Q 45.21875 56 50.046875 50.171875 
Q 54.890625 44.34375 54.890625 33.015625 
z
" id="DejaVuSans-6e"/>
      <path d="M 18.3125 70.21875 
L 18.3125 54.6875 
L 36.8125 54.6875 
L 36.8125 47.703125 
L 18.3125 47.703125 
L 18.3125 18.015625 
Q 18.3125 11.328125 20.140625 9.421875 
Q 21.96875 7.515625 27.59375 7.515625 
L 36.8125 7.515625 
L 36.8125 0 
L 27.59375 0 
Q 17.1875 0 13.234375 3.875 
Q 9.28125 7.765625 9.28125 18.015625 
L 9.28125 47.703125 
L 2.6875 47.703125 
L 2.6875 54.6875 
L 9.28125 54.6875 
L 9.28125 70.21875 
z
" id="DejaVuSans-74"/>
      <path id="DejaVuSans-20"/>
      <path d="M 30.609375 48.390625 
Q 23.390625 48.390625 19.1875 42.75 
Q 14.984375 37.109375 14.984375 27.296875 
Q 14.984375 17.484375 19.15625 11.84375 
Q 23.34375 6.203125 30.609375 6.203125 
Q 37.796875 6.203125 41.984375 11.859375 
Q 46.1875 17.53125 46.1875 27.296875 
Q 46.1875 37.015625 41.984375 42.703125 
Q 37.796875 48.390625 30.609375 48.390625 
z
M 30.609375 56 
Q 42.328125 56 49.015625 48.375 
Q 55.71875 40.765625 55.71875 27.296875 
Q 55.71875 13.875 49.015625 6.21875 
Q 42.328125 -1.421875 30.609375 -1.421875 
Q 18.84375 -1.421875 12.171875 6.21875 
Q 5.515625 13.875 5.515625 27.296875 
Q 5.515625 40.765625 12.171875 48.375 
Q 18.84375 56 30.609375 56 
z
" id="DejaVuSans-6f"/>
      <path d="M 37.109375 75.984375 
L 37.109375 68.5 
L 28.515625 68.5 
Q 23.6875 68.5 21.796875 66.546875 
Q 19.921875 64.59375 19.921875 59.515625 
L 19.921875 54.6875 
L 34.71875 54.6875 
L 34.71875 47.703125 
L 19.921875 47.703125 
L 19.921875 0 
L 10.890625 0 
L 10.890625 47.703125 
L 2.296875 47.703125 
L 2.296875 54.6875 
L 10.890625 54.6875 
L 10.890625 58.5 
Q 10.890625 67.625 15.140625 71.796875 
Q 19.390625 75.984375 28.609375 75.984375 
z
" id="DejaVuSans-66"/>
      <path d="M 53.515625 70.515625 
L 53.515625 60.890625 
Q 47.90625 63.578125 42.921875 64.890625 
Q 37.9375 66.21875 33.296875 66.21875 
Q 25.25 66.21875 20.875 63.09375 
Q 16.5 59.96875 16.5 54.203125 
Q 16.5 49.359375 19.40625 46.890625 
Q 22.3125 44.4375 30.421875 42.921875 
L 36.375 41.703125 
Q 47.40625 39.59375 52.65625 34.296875 
Q 57.90625 29 57.90625 20.125 
Q 57.90625 9.515625 50.796875 4.046875 
Q 43.703125 -1.421875 29.984375 -1.421875 
Q 24.8125 -1.421875 18.96875 -0.25 
Q 13.140625 0.921875 6.890625 3.21875 
L 6.890625 13.375 
Q 12.890625 10.015625 18.65625 8.296875 
Q 24.421875 6.59375 29.984375 6.59375 
Q 38.421875 6.59375 43.015625 9.90625 
Q 47.609375 13.234375 47.609375 19.390625 
Q 47.609375 24.75 44.3125 27.78125 
Q 41.015625 30.8125 33.5 32.328125 
L 27.484375 33.5 
Q 16.453125 35.6875 11.515625 40.375 
Q 6.59375 45.0625 6.59375 53.421875 
Q 6.59375 63.09375 13.40625 68.65625 
Q 20.21875 74.21875 32.171875 74.21875 
Q 37.3125 74.21875 42.625 73.28125 
Q 47.953125 72.359375 53.515625 70.515625 
z
" id="DejaVuSans-53"/>
      <path d="M 54.890625 33.015625 
L 54.890625 0 
L 45.90625 0 
L 45.90625 32.71875 
Q 45.90625 40.484375 42.875 44.328125 
Q 39.84375 48.1875 33.796875 48.1875 
Q 26.515625 48.1875 22.3125 43.546875 
Q 18.109375 38.921875 18.109375 30.90625 
L 18.109375 0 
L 9.078125 0 
L 9.078125 75.984375 
L 18.109375 75.984375 
L 18.109375 46.1875 
Q 21.34375 51.125 25.703125 53.5625 
Q 30.078125 56 35.796875 56 
Q 45.21875 56 50.046875 50.171875 
Q 54.890625 44.34375 54.890625 33.015625 
z
" id="DejaVuSans-68"/>
      <path d="M 9.421875 54.6875 
L 18.40625 54.6875 
L 18.40625 0 
L 9.421875 0 
z
M 9.421875 75.984375 
L 18.40625 75.984375 
L 18.40625 64.59375 
L 9.421875 64.59375 
z
" id="DejaVuSans-69"/>
      <path d="M 45.40625 27.984375 
Q 45.40625 37.75 41.375 43.109375 
Q 37.359375 48.484375 30.078125 48.484375 
Q 22.859375 48.484375 18.828125 43.109375 
Q 14.796875 37.75 14.796875 27.984375 
Q 14.796875 18.265625 18.828125 12.890625 
Q 22.859375 7.515625 30.078125 7.515625 
Q 37.359375 7.515625 41.375 12.890625 
Q 45.40625 18.265625 45.40625 27.984375 
z
M 54.390625 6.78125 
Q 54.390625 -7.171875 48.1875 -13.984375 
Q 42 -20.796875 29.203125 -20.796875 
Q 24.46875 -20.796875 20.265625 -20.09375 
Q 16.0625 -19.390625 12.109375 -17.921875 
L 12.109375 -9.1875 
Q 16.0625 -11.328125 19.921875 -12.34375 
Q 23.78125 -13.375 27.78125 -13.375 
Q 36.625 -13.375 41.015625 -8.765625 
Q 45.40625 -4.15625 45.40625 5.171875 
L 45.40625 9.625 
Q 42.625 4.78125 38.28125 2.390625 
Q 33.9375 0 27.875 0 
Q 17.828125 0 11.671875 7.65625 
Q 5.515625 15.328125 5.515625 27.984375 
Q 5.515625 40.671875 11.671875 48.328125 
Q 17.828125 56 27.875 56 
Q 33.9375 56 38.28125 53.609375 
Q 42.625 51.21875 45.40625 46.390625 
L 45.40625 54.6875 
L 54.390625 54.6875 
z
" id="DejaVuSans-67"/>
      <path d="M 44.28125 53.078125 
L 44.28125 44.578125 
Q 40.484375 46.53125 36.375 47.5 
Q 32.28125 48.484375 27.875 48.484375 
Q 21.1875 48.484375 17.84375 46.4375 
Q 14.5 44.390625 14.5 40.28125 
Q 14.5 37.15625 16.890625 35.375 
Q 19.28125 33.59375 26.515625 31.984375 
L 29.59375 31.296875 
Q 39.15625 29.25 43.1875 25.515625 
Q 47.21875 21.78125 47.21875 15.09375 
Q 47.21875 7.46875 41.1875 3.015625 
Q 35.15625 -1.421875 24.609375 -1.421875 
Q 20.21875 -1.421875 15.453125 -0.5625 
Q 10.6875 0.296875 5.421875 2 
L 5.421875 11.28125 
Q 10.40625 8.6875 15.234375 7.390625 
Q 20.0625 6.109375 24.8125 6.109375 
Q 31.15625 6.109375 34.5625 8.28125 
Q 37.984375 10.453125 37.984375 14.40625 
Q 37.984375 18.0625 35.515625 20.015625 
Q 33.0625 21.96875 24.703125 23.78125 
L 21.578125 24.515625 
Q 13.234375 26.265625 9.515625 29.90625 
Q 5.8125 33.546875 5.8125 39.890625 
Q 5.8125 47.609375 11.28125 51.796875 
Q 16.75 56 26.8125 56 
Q 31.78125 56 36.171875 55.265625 
Q 40.578125 54.546875 44.28125 53.078125 
z
" id="DejaVuSans-73"/>
      <path d="M 4.203125 54.6875 
L 13.1875 54.6875 
L 24.421875 12.015625 
L 35.59375 54.6875 
L 46.1875 54.6875 
L 57.421875 12.015625 
L 68.609375 54.6875 
L 77.59375 54.6875 
L 63.28125 0 
L 52.6875 0 
L 40.921875 44.828125 
L 29.109375 0 
L 18.5 0 
z
" id="DejaVuSans-77"/>
      <path d="M 48.6875 27.296875 
Q 48.6875 37.203125 44.609375 42.84375 
Q 40.53125 48.484375 33.40625 48.484375 
Q 26.265625 48.484375 22.1875 42.84375 
Q 18.109375 37.203125 18.109375 27.296875 
Q 18.109375 17.390625 22.1875 11.75 
Q 26.265625 6.109375 33.40625 6.109375 
Q 40.53125 6.109375 44.609375 11.75 
Q 48.6875 17.390625 48.6875 27.296875 
z
M 18.109375 46.390625 
Q 20.953125 51.265625 25.265625 53.625 
Q 29.59375 56 35.59375 56 
Q 45.5625 56 51.78125 48.09375 
Q 58.015625 40.1875 58.015625 27.296875 
Q 58.015625 14.40625 51.78125 6.484375 
Q 45.5625 -1.421875 35.59375 -1.421875 
Q 29.59375 -1.421875 25.265625 0.953125 
Q 20.953125 3.328125 18.109375 8.203125 
L 18.109375 0 
L 9.078125 0 
L 9.078125 75.984375 
L 18.109375 75.984375 
z
" id="DejaVuSans-62"/>
      <path d="M 45.40625 46.390625 
L 45.40625 75.984375 
L 54.390625 75.984375 
L 54.390625 0 
L 45.40625 0 
L 45.40625 8.203125 
Q 42.578125 3.328125 38.25 0.953125 
Q 33.9375 -1.421875 27.875 -1.421875 
Q 17.96875 -1.421875 11.734375 6.484375 
Q 5.515625 14.40625 5.515625 27.296875 
Q 5.515625 40.1875 11.734375 48.09375 
Q 17.96875 56 27.875 56 
Q 33.9375 56 38.25 53.625 
Q 42.578125 51.265625 45.40625 46.390625 
z
M 14.796875 27.296875 
Q 14.796875 17.390625 18.875 11.75 
Q 22.953125 6.109375 30.078125 6.109375 
Q 37.203125 6.109375 41.296875 11.75 
Q 45.40625 17.390625 45.40625 27.296875 
Q 45.40625 37.203125 41.296875 42.84375 
Q 37.203125 48.484375 30.078125 48.484375 
Q 22.953125 48.484375 18.875 42.84375 
Q 14.796875 37.203125 14.796875 27.296875 
z
" id="DejaVuSans-64"/>
      <path d="M 32.171875 -5.078125 
Q 28.375 -14.84375 24.75 -17.8125 
Q 21.140625 -20.796875 15.09375 -20.796875 
L 7.90625 -20.796875 
L 7.90625 -13.28125 
L 13.1875 -13.28125 
Q 16.890625 -13.28125 18.9375 -11.515625 
Q 21 -9.765625 23.484375 -3.21875 
L 25.09375 0.875 
L 2.984375 54.6875 
L 12.5 54.6875 
L 29.59375 11.921875 
L 46.6875 54.6875 
L 56.203125 54.6875 
z
" id="DejaVuSans-79"/>
      <path d="M 34.28125 27.484375 
Q 23.390625 27.484375 19.1875 25 
Q 14.984375 22.515625 14.984375 16.5 
Q 14.984375 11.71875 18.140625 8.90625 
Q 21.296875 6.109375 26.703125 6.109375 
Q 34.1875 6.109375 38.703125 11.40625 
Q 43.21875 16.703125 43.21875 25.484375 
L 43.21875 27.484375 
z
M 52.203125 31.203125 
L 52.203125 0 
L 43.21875 0 
L 43.21875 8.296875 
Q 40.140625 3.328125 35.546875 0.953125 
Q 30.953125 -1.421875 24.3125 -1.421875 
Q 15.921875 -1.421875 10.953125 3.296875 
Q 6 8.015625 6 15.921875 
Q 6 25.140625 12.171875 29.828125 
Q 18.359375 34.515625 30.609375 34.515625 
L 43.21875 34.515625 
L 43.21875 35.40625 
Q 43.21875 41.609375 39.140625 45 
Q 35.0625 48.390625 27.6875 48.390625 
Q 23 48.390625 18.546875 47.265625 
Q 14.109375 46.140625 10.015625 43.890625 
L 10.015625 52.203125 
Q 14.9375 54.109375 19.578125 55.046875 
Q 24.21875 56 28.609375 56 
Q 40.484375 56 46.34375 49.84375 
Q 52.203125 43.703125 52.203125 31.203125 
z
" id="DejaVuSans-61"/>
      <path d="M 52 44.1875 
Q 55.375 50.25 60.0625 53.125 
Q 64.75 56 71.09375 56 
Q 79.640625 56 84.28125 50.015625 
Q 88.921875 44.046875 88.921875 33.015625 
L 88.921875 0 
L 79.890625 0 
L 79.890625 32.71875 
Q 79.890625 40.578125 77.09375 44.375 
Q 74.3125 48.1875 68.609375 48.1875 
Q 61.625 48.1875 57.5625 43.546875 
Q 53.515625 38.921875 53.515625 30.90625 
L 53.515625 0 
L 44.484375 0 
L 44.484375 32.71875 
Q 44.484375 40.625 41.703125 44.40625 
Q 38.921875 48.1875 33.109375 48.1875 
Q 26.21875 48.1875 22.15625 43.53125 
Q 18.109375 38.875 18.109375 30.90625 
L 18.109375 0 
L 9.078125 0 
L 9.078125 54.6875 
L 18.109375 54.6875 
L 18.109375 46.1875 
Q 21.1875 51.21875 25.484375 53.609375 
Q 29.78125 56 35.6875 56 
Q 41.65625 56 45.828125 52.96875 
Q 50 49.953125 52 44.1875 
z
" id="DejaVuSans-6d"/>
     </defs>
     <g style="fill:#262626;" transform="translate(104.651562 771.471906)scale(0.11 -0.11)">
      <use xlink:href="#DejaVuSans-50"/>
      <use x="60.255859" xlink:href="#DejaVuSans-65"/>
      <use x="121.779297" xlink:href="#DejaVuSans-72"/>
      <use x="162.861328" xlink:href="#DejaVuSans-63"/>
      <use x="217.841797" xlink:href="#DejaVuSans-65"/>
      <use x="279.365234" xlink:href="#DejaVuSans-6e"/>
      <use x="342.744141" xlink:href="#DejaVuSans-74"/>
      <use x="381.953125" xlink:href="#DejaVuSans-20"/>
      <use x="413.740234" xlink:href="#DejaVuSans-6f"/>
      <use x="474.921875" xlink:href="#DejaVuSans-66"/>
      <use x="510.126953" xlink:href="#DejaVuSans-20"/>
      <use x="541.914062" xlink:href="#DejaVuSans-53"/>
      <use x="605.390625" xlink:href="#DejaVuSans-68"/>
      <use x="668.769531" xlink:href="#DejaVuSans-6f"/>
      <use x="729.951172" xlink:href="#DejaVuSans-6f"/>
      <use x="791.132812" xlink:href="#DejaVuSans-74"/>
      <use x="830.341797" xlink:href="#DejaVuSans-69"/>
      <use x="858.125" xlink:href="#DejaVuSans-6e"/>
      <use x="921.503906" xlink:href="#DejaVuSans-67"/>
      <use x="984.980469" xlink:href="#DejaVuSans-73"/>
      <use x="1037.080078" xlink:href="#DejaVuSans-20"/>
      <use x="1068.867188" xlink:href="#DejaVuSans-77"/>
      <use x="1150.654297" xlink:href="#DejaVuSans-69"/>
      <use x="1178.4375" xlink:href="#DejaVuSans-74"/>
      <use x="1217.646484" xlink:href="#DejaVuSans-68"/>
      <use x="1281.025391" xlink:href="#DejaVuSans-20"/>
      <use x="1312.8125" xlink:href="#DejaVuSans-62"/>
      <use x="1376.289062" xlink:href="#DejaVuSans-6f"/>
      <use x="1437.470703" xlink:href="#DejaVuSans-64"/>
      <use x="1500.947266" xlink:href="#DejaVuSans-79"/>
      <use x="1560.126953" xlink:href="#DejaVuSans-20"/>
      <use x="1591.914062" xlink:href="#DejaVuSans-63"/>
      <use x="1646.894531" xlink:href="#DejaVuSans-61"/>
      <use x="1708.173828" xlink:href="#DejaVuSans-6d"/>
      <use x="1805.585938" xlink:href="#DejaVuSans-65"/>
      <use x="1867.109375" xlink:href="#DejaVuSans-72"/>
      <use x="1908.222656" xlink:href="#DejaVuSans-61"/>
     </g>
    </g>
   </g>
   <g id="matplotlib.axis_2">
    <g id="ytick_1">
     <g id="line2d_13"/>
     <g id="text_8">
      <!-- VT -->
      <defs>
       <path d="M 28.609375 0 
L 0.78125 72.90625 
L 11.078125 72.90625 
L 34.1875 11.53125 
L 57.328125 72.90625 
L 67.578125 72.90625 
L 39.796875 0 
z
" id="DejaVuSans-56"/>
       <path d="M -0.296875 72.90625 
L 61.375 72.90625 
L 61.375 64.59375 
L 35.5 64.59375 
L 35.5 0 
L 25.59375 0 
L 25.59375 64.59375 
L -0.296875 64.59375 
z
" id="DejaVuSans-54"/>
      </defs>
      <g style="fill:#262626;" transform="translate(25.625625 46.482954)scale(0.1 -0.1)">
       <use xlink:href="#DejaVuSans-56"/>
       <use x="68.408203" xlink:href="#DejaVuSans-54"/>
      </g>
     </g>
    </g>
    <g id="ytick_2">
     <g id="line2d_14"/>
     <g id="text_9">
      <!-- RI -->
      <defs>
       <path d="M 44.390625 34.1875 
Q 47.5625 33.109375 50.5625 29.59375 
Q 53.5625 26.078125 56.59375 19.921875 
L 66.609375 0 
L 56 0 
L 46.6875 18.703125 
Q 43.0625 26.03125 39.671875 28.421875 
Q 36.28125 30.8125 30.421875 30.8125 
L 19.671875 30.8125 
L 19.671875 0 
L 9.8125 0 
L 9.8125 72.90625 
L 32.078125 72.90625 
Q 44.578125 72.90625 50.734375 67.671875 
Q 56.890625 62.453125 56.890625 51.90625 
Q 56.890625 45.015625 53.6875 40.46875 
Q 50.484375 35.9375 44.390625 34.1875 
z
M 19.671875 64.796875 
L 19.671875 38.921875 
L 32.078125 38.921875 
Q 39.203125 38.921875 42.84375 42.21875 
Q 46.484375 45.515625 46.484375 51.90625 
Q 46.484375 58.296875 42.84375 61.546875 
Q 39.203125 64.796875 32.078125 64.796875 
z
" id="DejaVuSans-52"/>
       <path d="M 9.8125 72.90625 
L 19.671875 72.90625 
L 19.671875 0 
L 9.8125 0 
z
" id="DejaVuSans-49"/>
      </defs>
      <g style="fill:#262626;" transform="translate(28.675625 60.339425)scale(0.1 -0.1)">
       <use xlink:href="#DejaVuSans-52"/>
       <use x="69.482422" xlink:href="#DejaVuSans-49"/>
      </g>
     </g>
    </g>
    <g id="ytick_3">
     <g id="line2d_15"/>
     <g id="text_10">
      <!-- UT -->
      <defs>
       <path d="M 8.6875 72.90625 
L 18.609375 72.90625 
L 18.609375 28.609375 
Q 18.609375 16.890625 22.84375 11.734375 
Q 27.09375 6.59375 36.625 6.59375 
Q 46.09375 6.59375 50.34375 11.734375 
Q 54.59375 16.890625 54.59375 28.609375 
L 54.59375 72.90625 
L 64.5 72.90625 
L 64.5 27.390625 
Q 64.5 13.140625 57.4375 5.859375 
Q 50.390625 -1.421875 36.625 -1.421875 
Q 22.796875 -1.421875 15.734375 5.859375 
Q 8.6875 13.140625 8.6875 27.390625 
z
" id="DejaVuSans-55"/>
      </defs>
      <g style="fill:#262626;" transform="translate(25.1475 74.195895)scale(0.1 -0.1)">
       <use xlink:href="#DejaVuSans-55"/>
       <use x="73.193359" xlink:href="#DejaVuSans-54"/>
      </g>
     </g>
    </g>
    <g id="ytick_4">
     <g id="line2d_16"/>
     <g id="text_11">
      <!-- MD -->
      <defs>
       <path d="M 9.8125 72.90625 
L 24.515625 72.90625 
L 43.109375 23.296875 
L 61.8125 72.90625 
L 76.515625 72.90625 
L 76.515625 0 
L 66.890625 0 
L 66.890625 64.015625 
L 48.09375 14.015625 
L 38.1875 14.015625 
L 19.390625 64.015625 
L 19.390625 0 
L 9.8125 0 
z
" id="DejaVuSans-4d"/>
       <path d="M 19.671875 64.796875 
L 19.671875 8.109375 
L 31.59375 8.109375 
Q 46.6875 8.109375 53.6875 14.9375 
Q 60.6875 21.78125 60.6875 36.53125 
Q 60.6875 51.171875 53.6875 57.984375 
Q 46.6875 64.796875 31.59375 64.796875 
z
M 9.8125 72.90625 
L 30.078125 72.90625 
Q 51.265625 72.90625 61.171875 64.09375 
Q 71.09375 55.28125 71.09375 36.53125 
Q 71.09375 17.671875 61.125 8.828125 
Q 51.171875 0 30.078125 0 
L 9.8125 0 
z
" id="DejaVuSans-44"/>
      </defs>
      <g style="fill:#262626;" transform="translate(22.245938 88.052366)scale(0.1 -0.1)">
       <use xlink:href="#DejaVuSans-4d"/>
       <use x="86.279297" xlink:href="#DejaVuSans-44"/>
      </g>
     </g>
    </g>
    <g id="ytick_5">
     <g id="line2d_17"/>
     <g id="text_12">
      <!-- DC -->
      <defs>
       <path d="M 64.40625 67.28125 
L 64.40625 56.890625 
Q 59.421875 61.53125 53.78125 63.8125 
Q 48.140625 66.109375 41.796875 66.109375 
Q 29.296875 66.109375 22.65625 58.46875 
Q 16.015625 50.828125 16.015625 36.375 
Q 16.015625 21.96875 22.65625 14.328125 
Q 29.296875 6.6875 41.796875 6.6875 
Q 48.140625 6.6875 53.78125 8.984375 
Q 59.421875 11.28125 64.40625 15.921875 
L 64.40625 5.609375 
Q 59.234375 2.09375 53.4375 0.328125 
Q 47.65625 -1.421875 41.21875 -1.421875 
Q 24.65625 -1.421875 15.125 8.703125 
Q 5.609375 18.84375 5.609375 36.375 
Q 5.609375 53.953125 15.125 64.078125 
Q 24.65625 74.21875 41.21875 74.21875 
Q 47.75 74.21875 53.53125 72.484375 
Q 59.328125 70.75 64.40625 67.28125 
z
" id="DejaVuSans-43"/>
      </defs>
      <g style="fill:#262626;" transform="translate(23.89125 101.908836)scale(0.1 -0.1)">
       <use xlink:href="#DejaVuSans-44"/>
       <use x="77.001953" xlink:href="#DejaVuSans-43"/>
      </g>
     </g>
    </g>
    <g id="ytick_6">
     <g id="line2d_18"/>
     <g id="text_13">
      <!-- NV -->
      <defs>
       <path d="M 9.8125 72.90625 
L 23.09375 72.90625 
L 55.421875 11.921875 
L 55.421875 72.90625 
L 64.984375 72.90625 
L 64.984375 0 
L 51.703125 0 
L 19.390625 60.984375 
L 19.390625 0 
L 9.8125 0 
z
" id="DejaVuSans-4e"/>
      </defs>
      <g style="fill:#262626;" transform="translate(24.252188 115.765307)scale(0.1 -0.1)">
       <use xlink:href="#DejaVuSans-4e"/>
       <use x="74.804688" xlink:href="#DejaVuSans-56"/>
      </g>
     </g>
    </g>
    <g id="ytick_7">
     <g id="line2d_19"/>
     <g id="text_14">
      <!-- IA -->
      <defs>
       <path d="M 34.1875 63.1875 
L 20.796875 26.90625 
L 47.609375 26.90625 
z
M 28.609375 72.90625 
L 39.796875 72.90625 
L 67.578125 0 
L 57.328125 0 
L 50.6875 18.703125 
L 17.828125 18.703125 
L 11.1875 0 
L 0.78125 0 
z
" id="DejaVuSans-41"/>
      </defs>
      <g style="fill:#262626;" transform="translate(28.783438 129.621778)scale(0.1 -0.1)">
       <use xlink:href="#DejaVuSans-49"/>
       <use x="29.492188" xlink:href="#DejaVuSans-41"/>
      </g>
     </g>
    </g>
    <g id="ytick_8">
     <g id="line2d_20"/>
     <g id="text_15">
      <!-- NM -->
      <g style="fill:#262626;" transform="translate(22.464688 143.478248)scale(0.1 -0.1)">
       <use xlink:href="#DejaVuSans-4e"/>
       <use x="74.804688" xlink:href="#DejaVuSans-4d"/>
      </g>
     </g>
    </g>
    <g id="ytick_9">
     <g id="line2d_21"/>
     <g id="text_16">
      <!-- DE -->
      <defs>
       <path d="M 9.8125 72.90625 
L 55.90625 72.90625 
L 55.90625 64.59375 
L 19.671875 64.59375 
L 19.671875 43.015625 
L 54.390625 43.015625 
L 54.390625 34.71875 
L 19.671875 34.71875 
L 19.671875 8.296875 
L 56.78125 8.296875 
L 56.78125 0 
L 9.8125 0 
z
" id="DejaVuSans-45"/>
      </defs>
      <g style="fill:#262626;" transform="translate(24.555313 157.334719)scale(0.1 -0.1)">
       <use xlink:href="#DejaVuSans-44"/>
       <use x="77.001953" xlink:href="#DejaVuSans-45"/>
      </g>
     </g>
    </g>
    <g id="ytick_10">
     <g id="line2d_22"/>
     <g id="text_17">
      <!-- AL -->
      <defs>
       <path d="M 9.8125 72.90625 
L 19.671875 72.90625 
L 19.671875 8.296875 
L 55.171875 8.296875 
L 55.171875 0 
L 9.8125 0 
z
" id="DejaVuSans-4c"/>
      </defs>
      <g style="fill:#262626;" transform="translate(26.161563 171.191189)scale(0.1 -0.1)">
       <use xlink:href="#DejaVuSans-41"/>
       <use x="68.408203" xlink:href="#DejaVuSans-4c"/>
      </g>
     </g>
    </g>
    <g id="ytick_11">
     <g id="line2d_23"/>
     <g id="text_18">
      <!-- ID -->
      <g style="fill:#262626;" transform="translate(27.924063 185.04766)scale(0.1 -0.1)">
       <use xlink:href="#DejaVuSans-49"/>
       <use x="29.492188" xlink:href="#DejaVuSans-44"/>
      </g>
     </g>
    </g>
    <g id="ytick_12">
     <g id="line2d_24"/>
     <g id="text_19">
      <!-- VA -->
      <g style="fill:#262626;" transform="translate(24.902188 198.904131)scale(0.1 -0.1)">
       <use xlink:href="#DejaVuSans-56"/>
       <use x="68.314453" xlink:href="#DejaVuSans-41"/>
      </g>
     </g>
    </g>
    <g id="ytick_13">
     <g id="line2d_25"/>
     <g id="text_20">
      <!-- MN -->
      <g style="fill:#262626;" transform="translate(22.464688 212.760601)scale(0.1 -0.1)">
       <use xlink:href="#DejaVuSans-4d"/>
       <use x="86.279297" xlink:href="#DejaVuSans-4e"/>
      </g>
     </g>
    </g>
    <g id="ytick_14">
     <g id="line2d_26"/>
     <g id="text_21">
      <!-- SC -->
      <g style="fill:#262626;" transform="translate(25.242813 226.617072)scale(0.1 -0.1)">
       <use xlink:href="#DejaVuSans-53"/>
       <use x="63.476562" xlink:href="#DejaVuSans-43"/>
      </g>
     </g>
    </g>
    <g id="ytick_15">
     <g id="line2d_27"/>
     <g id="text_22">
      <!-- WI -->
      <defs>
       <path d="M 3.328125 72.90625 
L 13.28125 72.90625 
L 28.609375 11.28125 
L 43.890625 72.90625 
L 54.984375 72.90625 
L 70.3125 11.28125 
L 85.59375 72.90625 
L 95.609375 72.90625 
L 77.296875 0 
L 64.890625 0 
L 49.515625 63.28125 
L 33.984375 0 
L 21.578125 0 
z
" id="DejaVuSans-57"/>
      </defs>
      <g style="fill:#262626;" transform="translate(25.736563 240.473542)scale(0.1 -0.1)">
       <use xlink:href="#DejaVuSans-57"/>
       <use x="98.876953" xlink:href="#DejaVuSans-49"/>
      </g>
     </g>
    </g>
    <g id="ytick_16">
     <g id="line2d_28"/>
     <g id="text_23">
      <!-- NC -->
      <g style="fill:#262626;" transform="translate(24.11 254.330013)scale(0.1 -0.1)">
       <use xlink:href="#DejaVuSans-4e"/>
       <use x="74.804688" xlink:href="#DejaVuSans-43"/>
      </g>
     </g>
    </g>
    <g id="ytick_17">
     <g id="line2d_29"/>
     <g id="text_24">
      <!-- OK -->
      <defs>
       <path d="M 39.40625 66.21875 
Q 28.65625 66.21875 22.328125 58.203125 
Q 16.015625 50.203125 16.015625 36.375 
Q 16.015625 22.609375 22.328125 14.59375 
Q 28.65625 6.59375 39.40625 6.59375 
Q 50.140625 6.59375 56.421875 14.59375 
Q 62.703125 22.609375 62.703125 36.375 
Q 62.703125 50.203125 56.421875 58.203125 
Q 50.140625 66.21875 39.40625 66.21875 
z
M 39.40625 74.21875 
Q 54.734375 74.21875 63.90625 63.9375 
Q 73.09375 53.65625 73.09375 36.375 
Q 73.09375 19.140625 63.90625 8.859375 
Q 54.734375 -1.421875 39.40625 -1.421875 
Q 24.03125 -1.421875 14.8125 8.828125 
Q 5.609375 19.09375 5.609375 36.375 
Q 5.609375 53.65625 14.8125 63.9375 
Q 24.03125 74.21875 39.40625 74.21875 
z
" id="DejaVuSans-4f"/>
       <path d="M 9.8125 72.90625 
L 19.671875 72.90625 
L 19.671875 42.09375 
L 52.390625 72.90625 
L 65.09375 72.90625 
L 28.90625 38.921875 
L 67.671875 0 
L 54.6875 0 
L 19.671875 35.109375 
L 19.671875 0 
L 9.8125 0 
z
" id="DejaVuSans-4b"/>
      </defs>
      <g style="fill:#262626;" transform="translate(24.144375 268.186483)scale(0.1 -0.1)">
       <use xlink:href="#DejaVuSans-4f"/>
       <use x="78.710938" xlink:href="#DejaVuSans-4b"/>
      </g>
     </g>
    </g>
    <g id="ytick_18">
     <g id="line2d_30"/>
     <g id="text_25">
      <!-- IN -->
      <g style="fill:#262626;" transform="translate(28.142813 282.042954)scale(0.1 -0.1)">
       <use xlink:href="#DejaVuSans-49"/>
       <use x="29.492188" xlink:href="#DejaVuSans-4e"/>
      </g>
     </g>
    </g>
    <g id="ytick_19">
     <g id="line2d_31"/>
     <g id="text_26">
      <!-- NH -->
      <defs>
       <path d="M 9.8125 72.90625 
L 19.671875 72.90625 
L 19.671875 43.015625 
L 55.515625 43.015625 
L 55.515625 72.90625 
L 65.375 72.90625 
L 65.375 0 
L 55.515625 0 
L 55.515625 34.71875 
L 19.671875 34.71875 
L 19.671875 0 
L 9.8125 0 
z
" id="DejaVuSans-48"/>
      </defs>
      <g style="fill:#262626;" transform="translate(23.5725 295.899425)scale(0.1 -0.1)">
       <use xlink:href="#DejaVuSans-4e"/>
       <use x="74.804688" xlink:href="#DejaVuSans-48"/>
      </g>
     </g>
    </g>
    <g id="ytick_20">
     <g id="line2d_32"/>
     <g id="text_27">
      <!-- AZ -->
      <defs>
       <path d="M 5.609375 72.90625 
L 62.890625 72.90625 
L 62.890625 65.375 
L 16.796875 8.296875 
L 64.015625 8.296875 
L 64.015625 0 
L 4.5 0 
L 4.5 7.515625 
L 50.59375 64.59375 
L 5.609375 64.59375 
z
" id="DejaVuSans-5a"/>
      </defs>
      <g style="fill:#262626;" transform="translate(24.883438 309.755895)scale(0.1 -0.1)">
       <use xlink:href="#DejaVuSans-41"/>
       <use x="68.408203" xlink:href="#DejaVuSans-5a"/>
      </g>
     </g>
    </g>
    <g id="ytick_21">
     <g id="line2d_33"/>
     <g id="text_28">
      <!-- LA -->
      <g style="fill:#262626;" transform="translate(26.158438 323.612366)scale(0.1 -0.1)">
       <use xlink:href="#DejaVuSans-4c"/>
       <use x="55.744141" xlink:href="#DejaVuSans-41"/>
      </g>
     </g>
    </g>
    <g id="ytick_22">
     <g id="line2d_34"/>
     <g id="text_29">
      <!-- CA -->
      <g style="fill:#262626;" transform="translate(24.750625 337.468836)scale(0.1 -0.1)">
       <use xlink:href="#DejaVuSans-43"/>
       <use x="69.824219" xlink:href="#DejaVuSans-41"/>
      </g>
     </g>
    </g>
    <g id="ytick_23">
     <g id="line2d_35"/>
     <g id="text_30">
      <!-- KY -->
      <defs>
       <path d="M -0.203125 72.90625 
L 10.40625 72.90625 
L 30.609375 42.921875 
L 50.6875 72.90625 
L 61.28125 72.90625 
L 35.5 34.71875 
L 35.5 0 
L 25.59375 0 
L 25.59375 34.71875 
z
" id="DejaVuSans-59"/>
      </defs>
      <g style="fill:#262626;" transform="translate(25.913125 351.325307)scale(0.1 -0.1)">
       <use xlink:href="#DejaVuSans-4b"/>
       <use x="65.529297" xlink:href="#DejaVuSans-59"/>
      </g>
     </g>
    </g>
    <g id="ytick_24">
     <g id="line2d_36"/>
     <g id="text_31">
      <!-- MT -->
      <g style="fill:#262626;" transform="translate(23.838125 365.181778)scale(0.1 -0.1)">
       <use xlink:href="#DejaVuSans-4d"/>
       <use x="86.279297" xlink:href="#DejaVuSans-54"/>
      </g>
     </g>
    </g>
    <g id="ytick_25">
     <g id="line2d_37"/>
     <g id="text_32">
      <!-- TN -->
      <g style="fill:#262626;" transform="translate(24.985 379.038248)scale(0.1 -0.1)">
       <use xlink:href="#DejaVuSans-54"/>
       <use x="61.083984" xlink:href="#DejaVuSans-4e"/>
      </g>
     </g>
    </g>
    <g id="ytick_26">
     <g id="line2d_38"/>
     <g id="text_33">
      <!-- GA -->
      <defs>
       <path d="M 59.515625 10.40625 
L 59.515625 29.984375 
L 43.40625 29.984375 
L 43.40625 38.09375 
L 69.28125 38.09375 
L 69.28125 6.78125 
Q 63.578125 2.734375 56.6875 0.65625 
Q 49.8125 -1.421875 42 -1.421875 
Q 24.90625 -1.421875 15.25 8.5625 
Q 5.609375 18.5625 5.609375 36.375 
Q 5.609375 54.25 15.25 64.234375 
Q 24.90625 74.21875 42 74.21875 
Q 49.125 74.21875 55.546875 72.453125 
Q 61.96875 70.703125 67.390625 67.28125 
L 67.390625 56.78125 
Q 61.921875 61.421875 55.765625 63.765625 
Q 49.609375 66.109375 42.828125 66.109375 
Q 29.4375 66.109375 22.71875 58.640625 
Q 16.015625 51.171875 16.015625 36.375 
Q 16.015625 21.625 22.71875 14.15625 
Q 29.4375 6.6875 42.828125 6.6875 
Q 48.046875 6.6875 52.140625 7.59375 
Q 56.25 8.5 59.515625 10.40625 
z
" id="DejaVuSans-47"/>
      </defs>
      <g style="fill:#262626;" transform="translate(23.985 392.894719)scale(0.1 -0.1)">
       <use xlink:href="#DejaVuSans-47"/>
       <use x="77.490234" xlink:href="#DejaVuSans-41"/>
      </g>
     </g>
    </g>
    <g id="ytick_27">
     <g id="line2d_39"/>
     <g id="text_34">
      <!-- CO -->
      <g style="fill:#262626;" transform="translate(23.719375 406.751189)scale(0.1 -0.1)">
       <use xlink:href="#DejaVuSans-43"/>
       <use x="69.824219" xlink:href="#DejaVuSans-4f"/>
      </g>
     </g>
    </g>
    <g id="ytick_28">
     <g id="line2d_40"/>
     <g id="text_35">
      <!-- MI -->
      <g style="fill:#262626;" transform="translate(26.995938 420.60766)scale(0.1 -0.1)">
       <use xlink:href="#DejaVuSans-4d"/>
       <use x="86.279297" xlink:href="#DejaVuSans-49"/>
      </g>
     </g>
    </g>
    <g id="ytick_29">
     <g id="line2d_41"/>
     <g id="text_36">
      <!-- IL -->
      <g style="fill:#262626;" transform="translate(30.052188 434.464131)scale(0.1 -0.1)">
       <use xlink:href="#DejaVuSans-49"/>
       <use x="29.492188" xlink:href="#DejaVuSans-4c"/>
      </g>
     </g>
    </g>
    <g id="ytick_30">
     <g id="line2d_42"/>
     <g id="text_37">
      <!-- KS -->
      <g style="fill:#262626;" transform="translate(25.667813 448.320601)scale(0.1 -0.1)">
       <use xlink:href="#DejaVuSans-4b"/>
       <use x="65.576172" xlink:href="#DejaVuSans-53"/>
      </g>
     </g>
    </g>
    <g id="ytick_31">
     <g id="line2d_43"/>
     <g id="text_38">
      <!-- AK -->
      <g style="fill:#262626;" transform="translate(25.175625 462.177072)scale(0.1 -0.1)">
       <use xlink:href="#DejaVuSans-41"/>
       <use x="68.408203" xlink:href="#DejaVuSans-4b"/>
      </g>
     </g>
    </g>
    <g id="ytick_32">
     <g id="line2d_44"/>
     <g id="text_39">
      <!-- SD -->
      <g style="fill:#262626;" transform="translate(24.525625 476.033542)scale(0.1 -0.1)">
       <use xlink:href="#DejaVuSans-53"/>
       <use x="63.476562" xlink:href="#DejaVuSans-44"/>
      </g>
     </g>
    </g>
    <g id="ytick_33">
     <g id="line2d_45"/>
     <g id="text_40">
      <!-- WA -->
      <g style="fill:#262626;" transform="translate(21.85375 489.890013)scale(0.1 -0.1)">
       <use xlink:href="#DejaVuSans-57"/>
       <use x="98.798828" xlink:href="#DejaVuSans-41"/>
      </g>
     </g>
    </g>
    <g id="ytick_34">
     <g id="line2d_46"/>
     <g id="text_41">
      <!-- WV -->
      <g style="fill:#262626;" transform="translate(21.845938 503.746483)scale(0.1 -0.1)">
       <use xlink:href="#DejaVuSans-57"/>
       <use x="98.876953" xlink:href="#DejaVuSans-56"/>
      </g>
     </g>
    </g>
    <g id="ytick_35">
     <g id="line2d_47"/>
     <g id="text_42">
      <!-- TX -->
      <defs>
       <path d="M 6.296875 72.90625 
L 16.890625 72.90625 
L 35.015625 45.796875 
L 53.21875 72.90625 
L 63.8125 72.90625 
L 40.375 37.890625 
L 65.375 0 
L 54.78125 0 
L 34.28125 31 
L 13.625 0 
L 2.984375 0 
L 29 38.921875 
z
" id="DejaVuSans-58"/>
      </defs>
      <g style="fill:#262626;" transform="translate(25.61625 517.602954)scale(0.1 -0.1)">
       <use xlink:href="#DejaVuSans-54"/>
       <use x="61.083984" xlink:href="#DejaVuSans-58"/>
      </g>
     </g>
    </g>
    <g id="ytick_36">
     <g id="line2d_48"/>
     <g id="text_43">
      <!-- NY -->
      <g style="fill:#262626;" transform="translate(24.985 531.459425)scale(0.1 -0.1)">
       <use xlink:href="#DejaVuSans-4e"/>
       <use x="74.804688" xlink:href="#DejaVuSans-59"/>
      </g>
     </g>
    </g>
    <g id="ytick_37">
     <g id="line2d_49"/>
     <g id="text_44">
      <!-- NE -->
      <g style="fill:#262626;" transform="translate(24.774063 545.315895)scale(0.1 -0.1)">
       <use xlink:href="#DejaVuSans-4e"/>
       <use x="74.804688" xlink:href="#DejaVuSans-45"/>
      </g>
     </g>
    </g>
    <g id="ytick_38">
     <g id="line2d_50"/>
     <g id="text_45">
      <!-- OH -->
      <g style="fill:#262626;" transform="translate(23.181875 559.172366)scale(0.1 -0.1)">
       <use xlink:href="#DejaVuSans-4f"/>
       <use x="78.710938" xlink:href="#DejaVuSans-48"/>
      </g>
     </g>
    </g>
    <g id="ytick_39">
     <g id="line2d_51"/>
     <g id="text_46">
      <!-- MS -->
      <g style="fill:#262626;" transform="translate(23.5975 573.028836)scale(0.1 -0.1)">
       <use xlink:href="#DejaVuSans-4d"/>
       <use x="86.279297" xlink:href="#DejaVuSans-53"/>
      </g>
     </g>
    </g>
    <g id="ytick_40">
     <g id="line2d_52"/>
     <g id="text_47">
      <!-- FL -->
      <defs>
       <path d="M 9.8125 72.90625 
L 51.703125 72.90625 
L 51.703125 64.59375 
L 19.671875 64.59375 
L 19.671875 43.109375 
L 48.578125 43.109375 
L 48.578125 34.8125 
L 19.671875 34.8125 
L 19.671875 0 
L 9.8125 0 
z
" id="DejaVuSans-46"/>
      </defs>
      <g style="fill:#262626;" transform="translate(27.250625 586.885307)scale(0.1 -0.1)">
       <use xlink:href="#DejaVuSans-46"/>
       <use x="57.519531" xlink:href="#DejaVuSans-4c"/>
      </g>
     </g>
    </g>
    <g id="ytick_41">
     <g id="line2d_53"/>
     <g id="text_48">
      <!-- AR -->
      <g style="fill:#262626;" transform="translate(24.785 600.741778)scale(0.1 -0.1)">
       <use xlink:href="#DejaVuSans-41"/>
       <use x="68.408203" xlink:href="#DejaVuSans-52"/>
      </g>
     </g>
    </g>
    <g id="ytick_42">
     <g id="line2d_54"/>
     <g id="text_49">
      <!-- MO -->
      <g style="fill:#262626;" transform="translate(22.074063 614.598248)scale(0.1 -0.1)">
       <use xlink:href="#DejaVuSans-4d"/>
       <use x="86.279297" xlink:href="#DejaVuSans-4f"/>
      </g>
     </g>
    </g>
    <g id="ytick_43">
     <g id="line2d_55"/>
     <g id="text_50">
      <!-- NJ -->
      <defs>
       <path d="M 9.8125 72.90625 
L 19.671875 72.90625 
L 19.671875 5.078125 
Q 19.671875 -8.109375 14.671875 -14.0625 
Q 9.671875 -20.015625 -1.421875 -20.015625 
L -5.171875 -20.015625 
L -5.171875 -11.71875 
L -2.09375 -11.71875 
Q 4.4375 -11.71875 7.125 -8.046875 
Q 9.8125 -4.390625 9.8125 5.078125 
z
" id="DejaVuSans-4a"/>
      </defs>
      <g style="fill:#262626;" transform="translate(28.142813 628.454719)scale(0.1 -0.1)">
       <use xlink:href="#DejaVuSans-4e"/>
       <use x="74.804688" xlink:href="#DejaVuSans-4a"/>
      </g>
     </g>
    </g>
    <g id="ytick_44">
     <g id="line2d_56"/>
     <g id="text_51">
      <!-- OR -->
      <g style="fill:#262626;" transform="translate(23.75375 642.311189)scale(0.1 -0.1)">
       <use xlink:href="#DejaVuSans-4f"/>
       <use x="78.710938" xlink:href="#DejaVuSans-52"/>
      </g>
     </g>
    </g>
    <g id="ytick_45">
     <g id="line2d_57"/>
     <g id="text_52">
      <!-- HI -->
      <g style="fill:#262626;" transform="translate(28.10375 656.16766)scale(0.1 -0.1)">
       <use xlink:href="#DejaVuSans-48"/>
       <use x="75.195312" xlink:href="#DejaVuSans-49"/>
      </g>
     </g>
    </g>
    <g id="ytick_46">
     <g id="line2d_58"/>
     <g id="text_53">
      <!-- MA -->
      <g style="fill:#262626;" transform="translate(23.105313 670.024131)scale(0.1 -0.1)">
       <use xlink:href="#DejaVuSans-4d"/>
       <use x="86.279297" xlink:href="#DejaVuSans-41"/>
      </g>
     </g>
    </g>
    <g id="ytick_47">
     <g id="line2d_59"/>
     <g id="text_54">
      <!-- ME -->
      <g style="fill:#262626;" transform="translate(23.627188 683.880601)scale(0.1 -0.1)">
       <use xlink:href="#DejaVuSans-4d"/>
       <use x="86.279297" xlink:href="#DejaVuSans-45"/>
      </g>
     </g>
    </g>
    <g id="ytick_48">
     <g id="line2d_60"/>
     <g id="text_55">
      <!-- CT -->
      <g style="fill:#262626;" transform="translate(25.483438 697.737072)scale(0.1 -0.1)">
       <use xlink:href="#DejaVuSans-43"/>
       <use x="69.824219" xlink:href="#DejaVuSans-54"/>
      </g>
     </g>
    </g>
    <g id="ytick_49">
     <g id="line2d_61"/>
     <g id="text_56">
      <!-- ND -->
      <g style="fill:#262626;" transform="translate(23.392813 711.593542)scale(0.1 -0.1)">
       <use xlink:href="#DejaVuSans-4e"/>
       <use x="74.804688" xlink:href="#DejaVuSans-44"/>
      </g>
     </g>
    </g>
    <g id="ytick_50">
     <g id="line2d_62"/>
     <g id="text_57">
      <!-- PA -->
      <g style="fill:#262626;" transform="translate(25.713125 725.450013)scale(0.1 -0.1)">
       <use xlink:href="#DejaVuSans-50"/>
       <use x="60.208984" xlink:href="#DejaVuSans-41"/>
      </g>
     </g>
    </g>
    <g id="ytick_51">
     <g id="line2d_63"/>
     <g id="text_58">
      <!-- WY -->
      <g style="fill:#262626;" transform="translate(22.57875 739.306483)scale(0.1 -0.1)">
       <use xlink:href="#DejaVuSans-57"/>
       <use x="98.876953" xlink:href="#DejaVuSans-59"/>
      </g>
     </g>
    </g>
    <g id="text_59">
     <!-- state -->
     <g style="fill:#262626;" transform="translate(15.558281 403.027687)rotate(-90)scale(0.11 -0.11)">
      <use xlink:href="#DejaVuSans-73"/>
      <use x="52.099609" xlink:href="#DejaVuSans-74"/>
      <use x="91.308594" xlink:href="#DejaVuSans-61"/>
      <use x="152.587891" xlink:href="#DejaVuSans-74"/>
      <use x="191.796875" xlink:href="#DejaVuSans-65"/>
     </g>
    </g>
   </g>
   <g id="patch_3">
    <path clip-path="url(#p44c759a44c)" d="M 45.574063 37.141147 
L 212.974063 37.141147 
L 212.974063 48.226324 
L 45.574063 48.226324 
z
" style="fill:#ea96a3;"/>
   </g>
   <g id="patch_4">
    <path clip-path="url(#p44c759a44c)" d="M 45.574063 50.997618 
L 157.174062 50.997618 
L 157.174062 62.082794 
L 45.574063 62.082794 
z
" style="fill:#ea979a;"/>
   </g>
   <g id="patch_5">
    <path clip-path="url(#p44c759a44c)" d="M 45.574063 64.854088 
L 147.028608 64.854088 
L 147.028608 75.939265 
L 45.574063 75.939265 
z
" style="fill:#e9978c;"/>
   </g>
   <g id="patch_6">
    <path clip-path="url(#p44c759a44c)" d="M 45.574063 78.710559 
L 129.274063 78.710559 
L 129.274063 89.795735 
L 45.574063 89.795735 
z
" style="fill:#e6957a;"/>
   </g>
   <g id="patch_7">
    <path clip-path="url(#p44c759a44c)" d="M 45.574063 92.567029 
L 129.274063 92.567029 
L 129.274063 103.652206 
L 45.574063 103.652206 
z
" style="fill:#e2925e;"/>
   </g>
   <g id="patch_8">
    <path clip-path="url(#p44c759a44c)" d="M 45.574063 106.4235 
L 121.931957 106.4235 
L 121.931957 117.508676 
L 45.574063 117.508676 
z
" style="fill:#d8944e;"/>
   </g>
   <g id="patch_9">
    <path clip-path="url(#p44c759a44c)" d="M 45.574063 120.279971 
L 116.058273 120.279971 
L 116.058273 131.365147 
L 45.574063 131.365147 
z
" style="fill:#ce974c;"/>
   </g>
   <g id="patch_10">
    <path clip-path="url(#p44c759a44c)" d="M 45.574063 134.136441 
L 112.534063 134.136441 
L 112.534063 145.221618 
L 45.574063 145.221618 
z
" style="fill:#c5994b;"/>
   </g>
   <g id="patch_11">
    <path clip-path="url(#p44c759a44c)" d="M 45.574063 147.992912 
L 112.534063 147.992912 
L 112.534063 159.078088 
L 45.574063 159.078088 
z
" style="fill:#bc9b4a;"/>
   </g>
   <g id="patch_12">
    <path clip-path="url(#p44c759a44c)" d="M 45.574063 161.849382 
L 105.19598 161.849382 
L 105.19598 172.934559 
L 45.574063 172.934559 
z
" style="fill:#b59c49;"/>
   </g>
   <g id="patch_13">
    <path clip-path="url(#p44c759a44c)" d="M 45.574063 175.705853 
L 103.2982 175.705853 
L 103.2982 186.791029 
L 45.574063 186.791029 
z
" style="fill:#ad9e47;"/>
   </g>
   <g id="patch_14">
    <path clip-path="url(#p44c759a44c)" d="M 45.574063 189.562324 
L 100.541227 189.562324 
L 100.541227 200.6475 
L 45.574063 200.6475 
z
" style="fill:#a59f46;"/>
   </g>
   <g id="patch_15">
    <path clip-path="url(#p44c759a44c)" d="M 45.574063 203.418794 
L 97.081755 203.418794 
L 97.081755 214.503971 
L 45.574063 214.503971 
z
" style="fill:#9da045;"/>
   </g>
   <g id="patch_16">
    <path clip-path="url(#p44c759a44c)" d="M 45.574063 217.275265 
L 97.081755 217.275265 
L 97.081755 228.360441 
L 45.574063 228.360441 
z
" style="fill:#96a346;"/>
   </g>
   <g id="patch_17">
    <path clip-path="url(#p44c759a44c)" d="M 45.574063 231.131735 
L 96.645249 231.131735 
L 96.645249 242.216912 
L 45.574063 242.216912 
z
" style="fill:#8da546;"/>
   </g>
   <g id="patch_18">
    <path clip-path="url(#p44c759a44c)" d="M 45.574063 244.988206 
L 96.521889 244.988206 
L 96.521889 256.073382 
L 45.574063 256.073382 
z
" style="fill:#83a846;"/>
   </g>
   <g id="patch_19">
    <path clip-path="url(#p44c759a44c)" d="M 45.574063 258.844676 
L 90.643293 258.844676 
L 90.643293 269.929853 
L 45.574063 269.929853 
z
" style="fill:#75ab47;"/>
   </g>
   <g id="patch_20">
    <path clip-path="url(#p44c759a44c)" d="M 45.574063 272.701147 
L 88.774063 272.701147 
L 88.774063 283.786324 
L 45.574063 283.786324 
z
" style="fill:#60ae47;"/>
   </g>
   <g id="patch_21">
    <path clip-path="url(#p44c759a44c)" d="M 45.574063 286.557618 
L 87.424063 286.557618 
L 87.424063 297.642794 
L 45.574063 297.642794 
z
" style="fill:#48b058;"/>
   </g>
   <g id="patch_22">
    <path clip-path="url(#p44c759a44c)" d="M 45.574063 300.414088 
L 86.93171 300.414088 
L 86.93171 311.499265 
L 45.574063 311.499265 
z
" style="fill:#48af70;"/>
   </g>
   <g id="patch_23">
    <path clip-path="url(#p44c759a44c)" d="M 45.574063 314.270559 
L 85.750063 314.270559 
L 85.750063 325.355735 
L 45.574063 325.355735 
z
" style="fill:#49ae7e;"/>
   </g>
   <g id="patch_24">
    <path clip-path="url(#p44c759a44c)" d="M 45.574063 328.127029 
L 84.890026 328.127029 
L 84.890026 339.212206 
L 45.574063 339.212206 
z
" style="fill:#49ae88;"/>
   </g>
   <g id="patch_25">
    <path clip-path="url(#p44c759a44c)" d="M 45.574063 341.9835 
L 82.192813 341.9835 
L 82.192813 353.068676 
L 45.574063 353.068676 
z
" style="fill:#4aad90;"/>
   </g>
   <g id="patch_26">
    <path clip-path="url(#p44c759a44c)" d="M 45.574063 355.839971 
L 80.816168 355.839971 
L 80.816168 366.925147 
L 45.574063 366.925147 
z
" style="fill:#4aac97;"/>
   </g>
   <g id="patch_27">
    <path clip-path="url(#p44c759a44c)" d="M 45.574063 369.696441 
L 79.912524 369.696441 
L 79.912524 380.781618 
L 45.574063 380.781618 
z
" style="fill:#4bac9c;"/>
   </g>
   <g id="patch_28">
    <path clip-path="url(#p44c759a44c)" d="M 45.574063 383.552912 
L 78.752441 383.552912 
L 78.752441 394.638088 
L 45.574063 394.638088 
z
" style="fill:#4baba2;"/>
   </g>
   <g id="patch_29">
    <path clip-path="url(#p44c759a44c)" d="M 45.574063 397.409382 
L 77.59841 397.409382 
L 77.59841 408.494559 
L 45.574063 408.494559 
z
" style="fill:#4baba7;"/>
   </g>
   <g id="patch_30">
    <path clip-path="url(#p44c759a44c)" d="M 45.574063 411.265853 
L 75.46692 411.265853 
L 75.46692 422.351029 
L 45.574063 422.351029 
z
" style="fill:#4cabac;"/>
   </g>
   <g id="patch_31">
    <path clip-path="url(#p44c759a44c)" d="M 45.574063 425.122324 
L 75.239885 425.122324 
L 75.239885 436.2075 
L 45.574063 436.2075 
z
" style="fill:#4dabb1;"/>
   </g>
   <g id="patch_32">
    <path clip-path="url(#p44c759a44c)" d="M 45.574063 438.978794 
L 75.115239 438.978794 
L 75.115239 450.063971 
L 45.574063 450.063971 
z
" style="fill:#4eabb8;"/>
   </g>
   <g id="patch_33">
    <path clip-path="url(#p44c759a44c)" d="M 45.574063 452.835265 
L 74.687106 452.835265 
L 74.687106 463.920441 
L 45.574063 463.920441 
z
" style="fill:#50acbe;"/>
   </g>
   <g id="patch_34">
    <path clip-path="url(#p44c759a44c)" d="M 45.574063 466.691735 
L 73.474063 466.691735 
L 73.474063 477.776912 
L 45.574063 477.776912 
z
" style="fill:#51acc6;"/>
   </g>
   <g id="patch_35">
    <path clip-path="url(#p44c759a44c)" d="M 45.574063 480.548206 
L 72.825225 480.548206 
L 72.825225 491.633382 
L 45.574063 491.633382 
z
" style="fill:#53acce;"/>
   </g>
   <g id="patch_36">
    <path clip-path="url(#p44c759a44c)" d="M 45.574063 494.404676 
L 72.720008 494.404676 
L 72.720008 505.489853 
L 45.574063 505.489853 
z
" style="fill:#56acd9;"/>
   </g>
   <g id="patch_37">
    <path clip-path="url(#p44c759a44c)" d="M 45.574063 508.261147 
L 71.832886 508.261147 
L 71.832886 519.346324 
L 45.574063 519.346324 
z
" style="fill:#6daee2;"/>
   </g>
   <g id="patch_38">
    <path clip-path="url(#p44c759a44c)" d="M 45.574063 522.117618 
L 68.272368 522.117618 
L 68.272368 533.202794 
L 45.574063 533.202794 
z
" style="fill:#87aee6;"/>
   </g>
   <g id="patch_39">
    <path clip-path="url(#p44c759a44c)" d="M 45.574063 535.974088 
L 67.894063 535.974088 
L 67.894063 547.059265 
L 45.574063 547.059265 
z
" style="fill:#99ade9;"/>
   </g>
   <g id="patch_40">
    <path clip-path="url(#p44c759a44c)" d="M 45.574063 549.830559 
L 67.476866 549.830559 
L 67.476866 560.915735 
L 45.574063 560.915735 
z
" style="fill:#a8aceb;"/>
   </g>
   <g id="patch_41">
    <path clip-path="url(#p44c759a44c)" d="M 45.574063 563.687029 
L 62.314063 563.687029 
L 62.314063 574.772206 
L 45.574063 574.772206 
z
" style="fill:#b3a9eb;"/>
   </g>
   <g id="patch_42">
    <path clip-path="url(#p44c759a44c)" d="M 45.574063 577.5435 
L 59.991287 577.5435 
L 59.991287 588.628676 
L 45.574063 588.628676 
z
" style="fill:#bda4ea;"/>
   </g>
   <g id="patch_43">
    <path clip-path="url(#p44c759a44c)" d="M 45.574063 591.399971 
L 53.739916 591.399971 
L 53.739916 602.485147 
L 45.574063 602.485147 
z
" style="fill:#c7a0ea;"/>
   </g>
   <g id="patch_44">
    <path clip-path="url(#p44c759a44c)" d="M 45.574063 605.256441 
L 53.014063 605.256441 
L 53.014063 616.341618 
L 45.574063 616.341618 
z
" style="fill:#d09ae9;"/>
   </g>
   <g id="patch_45">
    <path clip-path="url(#p44c759a44c)" d="M 45.574063 619.112912 
L 53.014063 619.112912 
L 53.014063 630.198088 
L 45.574063 630.198088 
z
" style="fill:#da93e8;"/>
   </g>
   <g id="patch_46">
    <path clip-path="url(#p44c759a44c)" d="M 45.574063 632.969382 
L 52.138768 632.969382 
L 52.138768 644.054559 
L 45.574063 644.054559 
z
" style="fill:#e48ae6;"/>
   </g>
   <g id="patch_47">
    <path clip-path="url(#p44c759a44c)" d="M 45.574063 646.825853 
L 45.574063 646.825853 
L 45.574063 657.911029 
L 45.574063 657.911029 
z
" style="fill:#e78bdd;"/>
   </g>
   <g id="patch_48">
    <path clip-path="url(#p44c759a44c)" d="M 45.574063 660.682324 
L 45.574063 660.682324 
L 45.574063 671.7675 
L 45.574063 671.7675 
z
" style="fill:#e78dd4;"/>
   </g>
   <g id="patch_49">
    <path clip-path="url(#p44c759a44c)" d="M 45.574063 674.538794 
L 45.574063 674.538794 
L 45.574063 685.623971 
L 45.574063 685.623971 
z
" style="fill:#e88fcc;"/>
   </g>
   <g id="patch_50">
    <path clip-path="url(#p44c759a44c)" d="M 45.574063 688.395265 
L 45.574063 688.395265 
L 45.574063 699.480441 
L 45.574063 699.480441 
z
" style="fill:#e890c4;"/>
   </g>
   <g id="patch_51">
    <path clip-path="url(#p44c759a44c)" d="M 45.574063 702.251735 
L 45.574063 702.251735 
L 45.574063 713.336912 
L 45.574063 713.336912 
z
" style="fill:#e992bc;"/>
   </g>
   <g id="patch_52">
    <path clip-path="url(#p44c759a44c)" d="M 45.574063 716.108206 
L 45.574063 716.108206 
L 45.574063 727.193382 
L 45.574063 727.193382 
z
" style="fill:#e993b5;"/>
   </g>
   <g id="patch_53">
    <path clip-path="url(#p44c759a44c)" d="M 45.574063 729.964676 
L 45.574063 729.964676 
L 45.574063 741.049853 
L 45.574063 741.049853 
z
" style="fill:#e994ad;"/>
   </g>
   <g id="line2d_64">
    <path clip-path="url(#p44c759a44c)" d="M 0 0 
" style="fill:none;stroke:#424242;stroke-linecap:round;stroke-width:3.15;"/>
   </g>
   <g id="line2d_65">
    <path clip-path="url(#p44c759a44c)" d="M 0 0 
" style="fill:none;stroke:#424242;stroke-linecap:round;stroke-width:3.15;"/>
   </g>
   <g id="line2d_66">
    <path clip-path="url(#p44c759a44c)" d="M 0 0 
" style="fill:none;stroke:#424242;stroke-linecap:round;stroke-width:3.15;"/>
   </g>
   <g id="line2d_67">
    <path clip-path="url(#p44c759a44c)" d="M 0 0 
" style="fill:none;stroke:#424242;stroke-linecap:round;stroke-width:3.15;"/>
   </g>
   <g id="line2d_68">
    <path clip-path="url(#p44c759a44c)" d="M 0 0 
" style="fill:none;stroke:#424242;stroke-linecap:round;stroke-width:3.15;"/>
   </g>
   <g id="line2d_69">
    <path clip-path="url(#p44c759a44c)" d="M 0 0 
" style="fill:none;stroke:#424242;stroke-linecap:round;stroke-width:3.15;"/>
   </g>
   <g id="line2d_70">
    <path clip-path="url(#p44c759a44c)" d="M 0 0 
" style="fill:none;stroke:#424242;stroke-linecap:round;stroke-width:3.15;"/>
   </g>
   <g id="line2d_71">
    <path clip-path="url(#p44c759a44c)" d="M 0 0 
" style="fill:none;stroke:#424242;stroke-linecap:round;stroke-width:3.15;"/>
   </g>
   <g id="line2d_72">
    <path clip-path="url(#p44c759a44c)" d="M 0 0 
" style="fill:none;stroke:#424242;stroke-linecap:round;stroke-width:3.15;"/>
   </g>
   <g id="line2d_73">
    <path clip-path="url(#p44c759a44c)" d="M 0 0 
" style="fill:none;stroke:#424242;stroke-linecap:round;stroke-width:3.15;"/>
   </g>
   <g id="line2d_74">
    <path clip-path="url(#p44c759a44c)" d="M 0 0 
" style="fill:none;stroke:#424242;stroke-linecap:round;stroke-width:3.15;"/>
   </g>
   <g id="line2d_75">
    <path clip-path="url(#p44c759a44c)" d="M 0 0 
" style="fill:none;stroke:#424242;stroke-linecap:round;stroke-width:3.15;"/>
   </g>
   <g id="line2d_76">
    <path clip-path="url(#p44c759a44c)" d="M 0 0 
" style="fill:none;stroke:#424242;stroke-linecap:round;stroke-width:3.15;"/>
   </g>
   <g id="line2d_77">
    <path clip-path="url(#p44c759a44c)" d="M 0 0 
" style="fill:none;stroke:#424242;stroke-linecap:round;stroke-width:3.15;"/>
   </g>
   <g id="line2d_78">
    <path clip-path="url(#p44c759a44c)" d="M 0 0 
" style="fill:none;stroke:#424242;stroke-linecap:round;stroke-width:3.15;"/>
   </g>
   <g id="line2d_79">
    <path clip-path="url(#p44c759a44c)" d="M 0 0 
" style="fill:none;stroke:#424242;stroke-linecap:round;stroke-width:3.15;"/>
   </g>
   <g id="line2d_80">
    <path clip-path="url(#p44c759a44c)" d="M 0 0 
" style="fill:none;stroke:#424242;stroke-linecap:round;stroke-width:3.15;"/>
   </g>
   <g id="line2d_81">
    <path clip-path="url(#p44c759a44c)" d="M 0 0 
" style="fill:none;stroke:#424242;stroke-linecap:round;stroke-width:3.15;"/>
   </g>
   <g id="line2d_82">
    <path clip-path="url(#p44c759a44c)" d="M 0 0 
" style="fill:none;stroke:#424242;stroke-linecap:round;stroke-width:3.15;"/>
   </g>
   <g id="line2d_83">
    <path clip-path="url(#p44c759a44c)" d="M 0 0 
" style="fill:none;stroke:#424242;stroke-linecap:round;stroke-width:3.15;"/>
   </g>
   <g id="line2d_84">
    <path clip-path="url(#p44c759a44c)" d="M 0 0 
" style="fill:none;stroke:#424242;stroke-linecap:round;stroke-width:3.15;"/>
   </g>
   <g id="line2d_85">
    <path clip-path="url(#p44c759a44c)" d="M 0 0 
" style="fill:none;stroke:#424242;stroke-linecap:round;stroke-width:3.15;"/>
   </g>
   <g id="line2d_86">
    <path clip-path="url(#p44c759a44c)" d="M 0 0 
" style="fill:none;stroke:#424242;stroke-linecap:round;stroke-width:3.15;"/>
   </g>
   <g id="line2d_87">
    <path clip-path="url(#p44c759a44c)" d="M 0 0 
" style="fill:none;stroke:#424242;stroke-linecap:round;stroke-width:3.15;"/>
   </g>
   <g id="line2d_88">
    <path clip-path="url(#p44c759a44c)" d="M 0 0 
" style="fill:none;stroke:#424242;stroke-linecap:round;stroke-width:3.15;"/>
   </g>
   <g id="line2d_89">
    <path clip-path="url(#p44c759a44c)" d="M 0 0 
" style="fill:none;stroke:#424242;stroke-linecap:round;stroke-width:3.15;"/>
   </g>
   <g id="line2d_90">
    <path clip-path="url(#p44c759a44c)" d="M 0 0 
" style="fill:none;stroke:#424242;stroke-linecap:round;stroke-width:3.15;"/>
   </g>
   <g id="line2d_91">
    <path clip-path="url(#p44c759a44c)" d="M 0 0 
" style="fill:none;stroke:#424242;stroke-linecap:round;stroke-width:3.15;"/>
   </g>
   <g id="line2d_92">
    <path clip-path="url(#p44c759a44c)" d="M 0 0 
" style="fill:none;stroke:#424242;stroke-linecap:round;stroke-width:3.15;"/>
   </g>
   <g id="line2d_93">
    <path clip-path="url(#p44c759a44c)" d="M 0 0 
" style="fill:none;stroke:#424242;stroke-linecap:round;stroke-width:3.15;"/>
   </g>
   <g id="line2d_94">
    <path clip-path="url(#p44c759a44c)" d="M 0 0 
" style="fill:none;stroke:#424242;stroke-linecap:round;stroke-width:3.15;"/>
   </g>
   <g id="line2d_95">
    <path clip-path="url(#p44c759a44c)" d="M 0 0 
" style="fill:none;stroke:#424242;stroke-linecap:round;stroke-width:3.15;"/>
   </g>
   <g id="line2d_96">
    <path clip-path="url(#p44c759a44c)" d="M 0 0 
" style="fill:none;stroke:#424242;stroke-linecap:round;stroke-width:3.15;"/>
   </g>
   <g id="line2d_97">
    <path clip-path="url(#p44c759a44c)" d="M 0 0 
" style="fill:none;stroke:#424242;stroke-linecap:round;stroke-width:3.15;"/>
   </g>
   <g id="line2d_98">
    <path clip-path="url(#p44c759a44c)" d="M 0 0 
" style="fill:none;stroke:#424242;stroke-linecap:round;stroke-width:3.15;"/>
   </g>
   <g id="line2d_99">
    <path clip-path="url(#p44c759a44c)" d="M 0 0 
" style="fill:none;stroke:#424242;stroke-linecap:round;stroke-width:3.15;"/>
   </g>
   <g id="line2d_100">
    <path clip-path="url(#p44c759a44c)" d="M 0 0 
" style="fill:none;stroke:#424242;stroke-linecap:round;stroke-width:3.15;"/>
   </g>
   <g id="line2d_101">
    <path clip-path="url(#p44c759a44c)" d="M 0 0 
" style="fill:none;stroke:#424242;stroke-linecap:round;stroke-width:3.15;"/>
   </g>
   <g id="line2d_102">
    <path clip-path="url(#p44c759a44c)" d="M 0 0 
" style="fill:none;stroke:#424242;stroke-linecap:round;stroke-width:3.15;"/>
   </g>
   <g id="line2d_103">
    <path clip-path="url(#p44c759a44c)" d="M 0 0 
" style="fill:none;stroke:#424242;stroke-linecap:round;stroke-width:3.15;"/>
   </g>
   <g id="line2d_104">
    <path clip-path="url(#p44c759a44c)" d="M 0 0 
" style="fill:none;stroke:#424242;stroke-linecap:round;stroke-width:3.15;"/>
   </g>
   <g id="line2d_105">
    <path clip-path="url(#p44c759a44c)" d="M 0 0 
" style="fill:none;stroke:#424242;stroke-linecap:round;stroke-width:3.15;"/>
   </g>
   <g id="line2d_106">
    <path clip-path="url(#p44c759a44c)" d="M 0 0 
" style="fill:none;stroke:#424242;stroke-linecap:round;stroke-width:3.15;"/>
   </g>
   <g id="line2d_107">
    <path clip-path="url(#p44c759a44c)" d="M 0 0 
" style="fill:none;stroke:#424242;stroke-linecap:round;stroke-width:3.15;"/>
   </g>
   <g id="line2d_108">
    <path clip-path="url(#p44c759a44c)" d="M 0 0 
" style="fill:none;stroke:#424242;stroke-linecap:round;stroke-width:3.15;"/>
   </g>
   <g id="line2d_109">
    <path clip-path="url(#p44c759a44c)" d="M 0 0 
" style="fill:none;stroke:#424242;stroke-linecap:round;stroke-width:3.15;"/>
   </g>
   <g id="line2d_110">
    <path clip-path="url(#p44c759a44c)" d="M 0 0 
" style="fill:none;stroke:#424242;stroke-linecap:round;stroke-width:3.15;"/>
   </g>
   <g id="line2d_111">
    <path clip-path="url(#p44c759a44c)" d="M 0 0 
" style="fill:none;stroke:#424242;stroke-linecap:round;stroke-width:3.15;"/>
   </g>
   <g id="line2d_112">
    <path clip-path="url(#p44c759a44c)" d="M 0 0 
" style="fill:none;stroke:#424242;stroke-linecap:round;stroke-width:3.15;"/>
   </g>
   <g id="line2d_113">
    <path clip-path="url(#p44c759a44c)" d="M 0 0 
" style="fill:none;stroke:#424242;stroke-linecap:round;stroke-width:3.15;"/>
   </g>
   <g id="line2d_114">
    <path clip-path="url(#p44c759a44c)" d="M 0 0 
" style="fill:none;stroke:#424242;stroke-linecap:round;stroke-width:3.15;"/>
   </g>
   <g id="patch_54">
    <path d="M 45.574063 742.4355 
L 45.574063 35.7555 
" style="fill:none;"/>
   </g>
   <g id="patch_55">
    <path d="M 380.374063 742.4355 
L 380.374063 35.7555 
" style="fill:none;"/>
   </g>
   <g id="patch_56">
    <path d="M 45.574063 742.4355 
L 380.374063 742.4355 
" style="fill:none;"/>
   </g>
   <g id="patch_57">
    <path d="M 45.574063 35.7555 
L 380.374063 35.7555 
" style="fill:none;"/>
   </g>
   <g id="text_60">
    <!-- Percent of Police Killings -->
    <defs>
     <path d="M 9.421875 75.984375 
L 18.40625 75.984375 
L 18.40625 0 
L 9.421875 0 
z
" id="DejaVuSans-6c"/>
    </defs>
    <g style="fill:#262626;" transform="translate(139.6025 16.318125)scale(0.12 -0.12)">
     <use xlink:href="#DejaVuSans-50"/>
     <use x="60.255859" xlink:href="#DejaVuSans-65"/>
     <use x="121.779297" xlink:href="#DejaVuSans-72"/>
     <use x="162.861328" xlink:href="#DejaVuSans-63"/>
     <use x="217.841797" xlink:href="#DejaVuSans-65"/>
     <use x="279.365234" xlink:href="#DejaVuSans-6e"/>
     <use x="342.744141" xlink:href="#DejaVuSans-74"/>
     <use x="381.953125" xlink:href="#DejaVuSans-20"/>
     <use x="413.740234" xlink:href="#DejaVuSans-6f"/>
     <use x="474.921875" xlink:href="#DejaVuSans-66"/>
     <use x="510.126953" xlink:href="#DejaVuSans-20"/>
     <use x="541.914062" xlink:href="#DejaVuSans-50"/>
     <use x="602.169922" xlink:href="#DejaVuSans-6f"/>
     <use x="663.351562" xlink:href="#DejaVuSans-6c"/>
     <use x="691.134766" xlink:href="#DejaVuSans-69"/>
     <use x="718.917969" xlink:href="#DejaVuSans-63"/>
     <use x="773.898438" xlink:href="#DejaVuSans-65"/>
     <use x="835.421875" xlink:href="#DejaVuSans-20"/>
     <use x="867.208984" xlink:href="#DejaVuSans-4b"/>
     <use x="932.785156" xlink:href="#DejaVuSans-69"/>
     <use x="960.568359" xlink:href="#DejaVuSans-6c"/>
     <use x="988.351562" xlink:href="#DejaVuSans-6c"/>
     <use x="1016.134766" xlink:href="#DejaVuSans-69"/>
     <use x="1043.917969" xlink:href="#DejaVuSans-6e"/>
     <use x="1107.296875" xlink:href="#DejaVuSans-67"/>
     <use x="1170.773438" xlink:href="#DejaVuSans-73"/>
    </g>
    <!-- with body camera, by State -->
    <defs>
     <path d="M 11.71875 12.40625 
L 22.015625 12.40625 
L 22.015625 4 
L 14.015625 -11.625 
L 7.71875 -11.625 
L 11.71875 4 
z
" id="DejaVuSans-2c"/>
    </defs>
    <g style="fill:#262626;" transform="translate(129.9725 29.7555)scale(0.12 -0.12)">
     <use xlink:href="#DejaVuSans-77"/>
     <use x="81.787109" xlink:href="#DejaVuSans-69"/>
     <use x="109.570312" xlink:href="#DejaVuSans-74"/>
     <use x="148.779297" xlink:href="#DejaVuSans-68"/>
     <use x="212.158203" xlink:href="#DejaVuSans-20"/>
     <use x="243.945312" xlink:href="#DejaVuSans-62"/>
     <use x="307.421875" xlink:href="#DejaVuSans-6f"/>
     <use x="368.603516" xlink:href="#DejaVuSans-64"/>
     <use x="432.080078" xlink:href="#DejaVuSans-79"/>
     <use x="491.259766" xlink:href="#DejaVuSans-20"/>
     <use x="523.046875" xlink:href="#DejaVuSans-63"/>
     <use x="578.027344" xlink:href="#DejaVuSans-61"/>
     <use x="639.306641" xlink:href="#DejaVuSans-6d"/>
     <use x="736.71875" xlink:href="#DejaVuSans-65"/>
     <use x="798.242188" xlink:href="#DejaVuSans-72"/>
     <use x="839.355469" xlink:href="#DejaVuSans-61"/>
     <use x="900.634766" xlink:href="#DejaVuSans-2c"/>
     <use x="932.421875" xlink:href="#DejaVuSans-20"/>
     <use x="964.208984" xlink:href="#DejaVuSans-62"/>
     <use x="1027.685547" xlink:href="#DejaVuSans-79"/>
     <use x="1086.865234" xlink:href="#DejaVuSans-20"/>
     <use x="1118.652344" xlink:href="#DejaVuSans-53"/>
     <use x="1182.128906" xlink:href="#DejaVuSans-74"/>
     <use x="1221.337891" xlink:href="#DejaVuSans-61"/>
     <use x="1282.617188" xlink:href="#DejaVuSans-74"/>
     <use x="1321.826172" xlink:href="#DejaVuSans-65"/>
    </g>
   </g>
  </g>
 </g>
 <defs>
  <clipPath id="p44c759a44c">
   <rect height="706.68" width="334.8" x="45.574063" y="35.7555"/>
  </clipPath>
 </defs>
</svg>
