<svg viewBox="0 0 393 278" xmlns="http://www.w3.org/2000/svg" xmlns:xlink="http://www.w3.org/1999/xlink"><defs><style>*{stroke-linecap:butt;stroke-linejoin:round}</style></defs><g id="figure_1"><path d="M0 278.3h393.1V0H0z" fill="#fff" id="patch_1"/><g id="axes_1"><path d="M44.7 239.8h334.8V22.3H44.7z" fill="#eaeaf2" id="patch_2"/><g id="matplotlib.axis_1"><g id="xtick_1"><path clip-path="url(#p1bcabd3480)" d="M44.7 239.8V22.3" fill="none" stroke="#fff" stroke-linecap="round" id="line2d_1"/><g id="text_1"><defs><path d="M31.8 66.4q-7.6 0-11.5-7.5-3.8-7.5-3.8-22.5t3.8-22.5q3.9-7.5 11.5-7.5 7.7 0 11.5 7.5T47 36.4q0 15-3.8 22.5t-11.5 7.5zm0 7.8q12.2 0 18.7-9.7T57 36.4Q57 18 50.5 8.3 44-1.4 31.8-1.4 19.5-1.4 13 8.3q-6.5 9.7-6.5 28 0 18.5 6.5 28.2 6.4 9.7 18.7 9.7z" id="DejaVuSans-30"/></defs><use xlink:href="#DejaVuSans-30" transform="matrix(.1 0 0 -.1 41.6 254.4)" fill="#262626"/></g></g><g id="xtick_2"><path clip-path="url(#p1bcabd3480)" d="M100.5 239.8V22.3" fill="none" stroke="#fff" stroke-linecap="round" id="line2d_3"/><g id="text_2"><defs><path d="M10.8 73h38.7v-8.4H19.8V46.7q2.2.8 4.3 1.1 2.2.4 4.3.4 12.2 0 19.4-6.7 7-6.7 7-18.1 0-11.8-7.2-18.3-7.4-6.5-20.7-6.5-4.6 0-9.4.8-4.7.7-9.8 2.3v10q4.4-2.5 9.1-3.6 4.7-1.2 9.9-1.2 8.5 0 13.4 4.4 5 4.5 5 12 0 7.7-5 12.1Q35 40 26.7 40q-4 0-7.9-.9-4-.9-8-2.7z" id="DejaVuSans-35"/></defs><use xlink:href="#DejaVuSans-35" transform="matrix(.1 0 0 -.1 97.4 254.4)" fill="#262626"/></g></g><g id="xtick_3"><path clip-path="url(#p1bcabd3480)" d="M156.3 239.8V22.3" fill="none" stroke="#fff" stroke-linecap="round" id="line2d_5"/><g id="text_3"><defs><path d="M12.4 8.3h16.1v55.6L11 60.4v9l17.4 3.5h9.9V8.3h16V0H12.5z" id="DejaVuSans-31"/></defs><g transform="matrix(.1 0 0 -.1 150 254.4)" fill="#262626"><use xlink:href="#DejaVuSans-31"/><use x="63.6" xlink:href="#DejaVuSans-30"/></g></g></g><g id="xtick_4"><path clip-path="url(#p1bcabd3480)" d="M212.1 239.8V22.3" fill="none" stroke="#fff" stroke-linecap="round" id="line2d_7"/><g transform="matrix(.1 0 0 -.1 205.8 254.4)" fill="#262626" id="text_4"><use xlink:href="#DejaVuSans-31"/><use x="63.6" xlink:href="#DejaVuSans-35"/></g></g><g id="xtick_5"><path clip-path="url(#p1bcabd3480)" d="M268 239.8V22.3" fill="none" stroke="#fff" stroke-linecap="round" id="line2d_9"/><g id="text_5"><defs><path d="M19.2 8.3h34.4V0H7.3v8.3l15.3 15.6q9.7 9.8 12.2 12.6 4.7 5.3 6.6 9 2 3.7 2 7.3 0 5.8-4.2 9.5-4 3.6-10.6 3.6-4.6 0-9.8-1.6-5.1-1.6-11-4.9v10q6 2.4 11.1 3.6 5.2 1.2 9.5 1.2 11.4 0 18-5.7 6.8-5.6 6.8-15 0-4.6-1.7-8.6-1.6-4-6-9.5l-7.9-8.2L19.2 8.3z" id="DejaVuSans-32"/></defs><g transform="matrix(.1 0 0 -.1 261.6 254.4)" fill="#262626"><use xlink:href="#DejaVuSans-32"/><use x="63.6" xlink:href="#DejaVuSans-30"/></g></g></g><g id="xtick_6"><path clip-path="url(#p1bcabd3480)" d="M323.7 239.8V22.3" fill="none" stroke="#fff" stroke-linecap="round" id="line2d_11"/><g transform="matrix(.1 0 0 -.1 317.4 254.4)" fill="#262626" id="text_6"><use xlink:href="#DejaVuSans-32"/><use x="63.6" xlink:href="#DejaVuSans-35"/></g></g><g id="xtick_7"><path clip-path="url(#p1bcabd3480)" d="M379.5 239.8V22.3" fill="none" stroke="#fff" stroke-linecap="round" id="line2d_13"/><g id="text_7"><defs><path d="M40.6 39.3q7-1.5 11-6.3t4-11.8q0-10.8-7.4-16.7-7.4-6-21.1-6-4.6 0-9.4 1-4.9.9-10 2.7v9.5q4-2.4 8.9-3.6Q21.5 7 26.8 7q9.3 0 14.1 3.6 4.9 3.7 4.9 10.7 0 6.4-4.5 10Q36.8 35 28.7 35h-8.5V43h9q7.2 0 11 3 3.9 2.8 3.9 8.3 0 5.6-4 8.6t-11.4 3q-4 0-8.7-.9-4.6-.8-10.2-2.7v8.8q5.6 1.6 10.5 2.3 5 .8 9.3.8 11.2 0 17.8-5 6.5-5.2 6.5-13.9 0-6-3.5-10.2-3.4-4.2-9.8-5.8z" id="DejaVuSans-33"/></defs><g transform="matrix(.1 0 0 -.1 373.2 254.4)" fill="#262626"><use xlink:href="#DejaVuSans-33"/><use x="63.6" xlink:href="#DejaVuSans-30"/></g></g></g><g id="text_8"><defs><path d="M9 76h9.1V31L45 54.7h11.5L27.4 29 57.6 0H46L18.1 26.7V0h-9z" id="DejaVuSans-6b"/></defs><use xlink:href="#DejaVuSans-6b" transform="matrix(.11 0 0 -.11 209 268.8)" fill="#262626"/></g></g><g id="matplotlib.axis_2"><g id="ytick_1"><path clip-path="url(#p1bcabd3480)" d="M44.7 239.8h334.8" fill="none" stroke="#fff" stroke-linecap="round" id="line2d_15"/><g id="text_9"><defs><path d="M10.7 12.4H21V0H10.7z" id="DejaVuSans-2e"/></defs><g transform="matrix(.1 0 0 -.1 21.8 243.6)" fill="#262626"><use xlink:href="#DejaVuSans-30"/><use x="63.6" xlink:href="#DejaVuSans-2e"/><use x="95.4" xlink:href="#DejaVuSans-30"/></g></g></g><g id="ytick_2"><path clip-path="url(#p1bcabd3480)" d="M44.7 196.3h334.8" fill="none" stroke="#fff" stroke-linecap="round" id="line2d_17"/><g transform="matrix(.1 0 0 -.1 21.8 200)" fill="#262626" id="text_10"><use xlink:href="#DejaVuSans-30"/><use x="63.6" xlink:href="#DejaVuSans-2e"/><use x="95.4" xlink:href="#DejaVuSans-32"/></g></g><g id="ytick_3"><path clip-path="url(#p1bcabd3480)" d="M44.7 152.8h334.8" fill="none" stroke="#fff" stroke-linecap="round" id="line2d_19"/><g id="text_11"><defs><path d="M37.8 64.3l-25-39h25zM35.2 73h12.4V25.4H58v-8.2H47.6V0h-9.8v17.2h-33v9.5z" id="DejaVuSans-34"/></defs><g transform="matrix(.1 0 0 -.1 21.8 156.6)" fill="#262626"><use xlink:href="#DejaVuSans-30"/><use x="63.6" xlink:href="#DejaVuSans-2e"/><use x="95.4" xlink:href="#DejaVuSans-34"/></g></g></g><g id="ytick_4"><path clip-path="url(#p1bcabd3480)" d="M44.7 109.3h334.8" fill="none" stroke="#fff" stroke-linecap="round" id="line2d_21"/><g id="text_12"><defs><path d="M33 40.4q-6.6 0-10.5-4.6-3.9-4.5-3.9-12.4T22.5 11Q26.4 6.4 33 6.4q6.7 0 10.5 4.6 4 4.5 4 12.4t-4 12.4q-3.8 4.6-10.5 4.6zm19.6 30.9v-9Q48.9 64.1 45 65q-3.8 1-7.5 1-9.8 0-15-6.7-5-6.6-5.8-19.9 2.9 4.3 7.2 6.5 4.4 2.3 9.6 2.3 11 0 17.4-6.7 6.3-6.6 6.3-18.1 0-11.2-6.6-18Q44-1.4 33-1.4q-12.6 0-19.3 9.7Q7 18 7 36.3 7 53.8 15.2 64q8.2 10.3 22 10.3 3.7 0 7.5-.7 3.8-.8 7.9-2.2z" id="DejaVuSans-36"/></defs><g transform="matrix(.1 0 0 -.1 21.8 113)" fill="#262626"><use xlink:href="#DejaVuSans-30"/><use x="63.6" xlink:href="#DejaVuSans-2e"/><use x="95.4" xlink:href="#DejaVuSans-36"/></g></g></g><g id="ytick_5"><path clip-path="url(#p1bcabd3480)" d="M44.7 65.8h334.8" fill="none" stroke="#fff" stroke-linecap="round" id="line2d_23"/><g id="text_13"><defs><path d="M31.8 34.6q-7 0-11-3.7-4.1-3.8-4.1-10.4 0-6.6 4-10.3 4-3.8 11-3.8 7.1 0 11.2 3.8 4 3.8 4 10.3 0 6.6-4 10.4-4 3.7-11.1 3.7zm-9.9 4.2q-6.3 1.6-9.9 6Q8.5 49 8.5 55.2q0 8.8 6.2 13.8 6.3 5.1 17 5.1 11 0 17.2-5Q55 64 55 55.2q0-6.2-3.6-10.6-3.5-4.3-9.8-5.9 7.1-1.6 11.1-6.5 4-4.8 4-11.8 0-10.6-6.5-16.3-6.5-5.6-18.5-5.6T13.2 4.2Q6.8 10 6.8 20.5q0 7 4 11.8 4 4.9 11.1 6.5zm-3.6 15.6q0-5.7 3.5-8.8 3.6-3.2 10-3.2 6.3 0 10 3.2 3.5 3.1 3.5 8.8 0 5.7-3.6 8.8-3.6 3.2-10 3.2-6.3 0-9.9-3.2-3.5-3.1-3.5-8.8z" id="DejaVuSans-38"/></defs><g transform="matrix(.1 0 0 -.1 21.8 69.6)" fill="#262626"><use xlink:href="#DejaVuSans-30"/><use x="63.6" xlink:href="#DejaVuSans-2e"/><use x="95.4" xlink:href="#DejaVuSans-38"/></g></g></g><g id="ytick_6"><path clip-path="url(#p1bcabd3480)" d="M44.7 22.3h334.8" fill="none" stroke="#fff" stroke-linecap="round" id="line2d_25"/><g transform="matrix(.1 0 0 -.1 21.8 26.1)" fill="#262626" id="text_14"><use xlink:href="#DejaVuSans-31"/><use x="63.6" xlink:href="#DejaVuSans-2e"/><use x="95.4" xlink:href="#DejaVuSans-30"/></g></g><g id="text_15"><defs><path d="M3 54.7h9.5l17-45.9 17.2 45.9h9.5L35.7 0H23.5z" id="DejaVuSans-76"/><path d="M64.4 67.3V56.9q-5 4.6-10.6 7Q48 66 41.8 66q-12.5 0-19.1-7.6Q16 50.8 16 36.4q0-14.4 6.7-22 6.6-7.7 19.1-7.7 6.3 0 12 2.3 5.6 2.3 10.6 7V5.5q-5.2-3.5-11-5.3-5.7-1.7-12.2-1.7-16.5 0-26 10.1-9.6 10.1-9.6 27.7T15.1 64q9.6 10.1 26.1 10.1 6.5 0 12.3-1.7 5.8-1.8 11-5.2z" id="DejaVuSans-43"/><path d="M52 44.2q3.4 6 8 9Q64.9 56 71 56q8.6 0 13.3-6 4.6-6 4.6-17V0h-9v32.7q0 7.9-2.8 11.7-2.8 3.8-8.5 3.8-7 0-11-4.7-4-4.6-4-12.6V0h-9.1v32.7q0 8-2.8 11.7-2.8 3.8-8.6 3.8-6.9 0-11-4.7-4-4.6-4-12.6V0h-9v54.7h9v-8.5q3 5 7.4 7.4Q29.8 56 35.7 56q6 0 10.1-3 4.2-3 6.2-8.8z" id="DejaVuSans-6d"/><path d="M9.4 76h9V0h-9z" id="DejaVuSans-6c"/><path d="M34.3 27.5q-11 0-15.1-2.5-4.2-2.5-4.2-8.5 0-4.8 3.1-7.6 3.2-2.8 8.6-2.8 7.5 0 12 5.3t4.5 14v2zm17.9 3.7V0h-9v8.3q-3-5-7.7-7.3Q31-1.4 24.3-1.4 16-1.4 11 3.3 6 8 6 15.9q0 9.2 6.2 14 6.2 4.6 18.4 4.6h12.6v1q0 6.1-4 9.5-4.1 3.4-11.5 3.4-4.7 0-9.2-1.1-4.4-1.2-8.5-3.4v8.3q5 2 9.6 2.8 4.6 1 9 1 11.9 0 17.7-6.2 5.9-6.1 5.9-18.6z" id="DejaVuSans-61"/><path d="M18.3 70.2V54.7h18.5v-7H18.3V18q0-6.7 1.8-8.6 1.9-1.9 7.5-1.9h9.2V0h-9.2Q17.2 0 13.2 3.9T9.2 18v29.7H2.8v7h6.6v15.5z" id="DejaVuSans-74"/><path d="M9.4 54.7h9V0h-9zm0 21.3h9V64.6h-9z" id="DejaVuSans-69"/><path d="M8.5 21.6v33h9V22q0-7.7 3-11.6 3-4 9-4 7.4 0 11.6 4.7 4.2 4.7 4.2 12.7v31h9V0h-9v8.4Q42 3.4 37.7 1q-4.3-2.4-10-2.4-9.4 0-14.3 5.8-4.9 5.9-4.9 17.2zM31.1 56z" id="DejaVuSans-75"/><path d="M56.2 29.6v-4.4H14.9q.6-9.3 5.6-14.1 5-4.9 14-4.9 5 0 10 1.3 4.8 1.2 9.6 3.8V2.8q-4.8-2-10-3.1-5-1.1-10.2-1.1-13.1 0-20.7 7.6-7.7 7.6-7.7 20.6 0 13.4 7.3 21.3Q20 56 32.3 56q11 0 17.5-7.1 6.4-7.1 6.4-19.3zm-9 2.6q0 7.4-4.1 11.8-4 4.4-10.7 4.4-7.5 0-12-4.3-4.5-4.2-5.2-12z" id="DejaVuSans-65"/><path d="M19.7 64.8V37.4H32q6.9 0 10.6 3.6 3.8 3.5 3.8 10.1t-3.8 10.1q-3.7 3.6-10.6 3.6zm-9.9 8.1h22.3q12.2 0 18.5-5.5Q57 61.8 57 51q0-10.8-6.3-16.3t-18.5-5.5H19.7V0H9.8z" id="DejaVuSans-50"/><path d="M41.1 46.3q-1.5.9-3.3 1.3-1.8.4-4 .4-7.5 0-11.6-5-4-5-4-14.2V0H9v54.7h9v-8.5q2.9 5 7.4 7.4Q30 56 36.5 56l2-.1 2.6-.4z" id="DejaVuSans-72"/><path d="M30.6 48.4q-7.2 0-11.4-5.6Q15 37 15 27.3t4.2-15.5q4.1-5.6 11.4-5.6 7.2 0 11.4 5.7 4.2 5.6 4.2 15.4 0 9.7-4.2 15.4-4.2 5.7-11.4 5.7zm0 7.6q11.7 0 18.4-7.6 6.7-7.6 6.7-21.1 0-13.4-6.7-21-6.7-7.7-18.4-7.7-11.8 0-18.4 7.6Q5.5 14 5.5 27.3q0 13.5 6.7 21Q18.8 56 30.6 56z" id="DejaVuSans-6f"/><path d="M48.7 27.3q0 9.9-4 15.5-4.2 5.7-11.3 5.7-7.1 0-11.2-5.7-4-5.6-4-15.5 0-10 4-15.6t11.2-5.6q7.1 0 11.2 5.7 4 5.6 4 15.5zM18 46.3q2.9 5 7.2 7.3Q29.6 56 35.6 56q10 0 16.2-8Q58 40.3 58 27.4q0-12.9-6.2-20.8-6.2-8-16.2-8-6 0-10.3 2.5Q21 3.3 18 8.2V0h-9v76h9z" id="DejaVuSans-62"/><path d="M32.2-5q-3.8-9.8-7.5-12.8-3.6-3-9.6-3H7.9v7.5h5.3q3.7 0 5.7 1.8 2.1 1.7 4.6 8.3l1.6 4L3 54.8h9.5l17-42.8 17.2 42.8h9.5z" id="DejaVuSans-79"/></defs><g transform="matrix(0 -.11 -.11 0 15.6 193.5)" fill="#262626"><use xlink:href="#DejaVuSans-43"/><use x="69.8" xlink:href="#DejaVuSans-75"/><use x="133.2" xlink:href="#DejaVuSans-6d"/><use x="230.6" xlink:href="#DejaVuSans-75"/><use x="294" xlink:href="#DejaVuSans-6c"/><use x="321.8" xlink:href="#DejaVuSans-61"/><use x="383.1" xlink:href="#DejaVuSans-74"/><use x="422.3" xlink:href="#DejaVuSans-69"/><use x="450" xlink:href="#DejaVuSans-76"/><use x="509.2" xlink:href="#DejaVuSans-65"/><use x="570.8" xlink:href="#DejaVuSans-20"/><use x="602.5" xlink:href="#DejaVuSans-50"/><use x="662.8" xlink:href="#DejaVuSans-72"/><use x="703.9" xlink:href="#DejaVuSans-6f"/><use x="765.1" xlink:href="#DejaVuSans-62"/><use x="828.6" xlink:href="#DejaVuSans-61"/><use x="889.8" xlink:href="#DejaVuSans-62"/><use x="953.3" xlink:href="#DejaVuSans-69"/><use x="981.1" xlink:href="#DejaVuSans-6c"/><use x="1008.9" xlink:href="#DejaVuSans-69"/><use x="1036.7" xlink:href="#DejaVuSans-74"/><use x="1075.9" xlink:href="#DejaVuSans-79"/></g></g></g><g id="line2d_27"><defs><path d="M0 3.5a3.5 3.5 0 100-7 3.5 3.5 0 000 7z" id="m90f2cd4664"/></defs><g clip-path="url(#p1bcabd3480)" fill="#4c72b0"><use x="44.7" xlink:href="#m90f2cd4664" y="239.7"/><use x="55.9" xlink:href="#m90f2cd4664" y="239.6"/><use x="67.1" xlink:href="#m90f2cd4664" y="239.2"/><use x="78.2" xlink:href="#m90f2cd4664" y="237.5"/><use x="89.4" xlink:href="#m90f2cd4664" y="233.4"/><use x="100.5" xlink:href="#m90f2cd4664" y="225.2"/><use x="111.7" xlink:href="#m90f2cd4664" y="211.5"/><use x="122.9" xlink:href="#m90f2cd4664" y="191.9"/><use x="134" xlink:href="#m90f2cd4664" y="167.4"/><use x="145.2" xlink:href="#m90f2cd4664" y="140.2"/><use x="156.3" xlink:href="#m90f2cd4664" y="113"/><use x="167.5" xlink:href="#m90f2cd4664" y="88.3"/><use x="178.7" xlink:href="#m90f2cd4664" y="67.6"/><use x="189.8" xlink:href="#m90f2cd4664" y="51.8"/><use x="201" xlink:href="#m90f2cd4664" y="40.5"/><use x="212.1" xlink:href="#m90f2cd4664" y="32.9"/><use x="223.3" xlink:href="#m90f2cd4664" y="28.2"/><use x="234.5" xlink:href="#m90f2cd4664" y="25.4"/><use x="245.6" xlink:href="#m90f2cd4664" y="23.9"/><use x="256.8" xlink:href="#m90f2cd4664" y="23.1"/><use x="267.9" xlink:href="#m90f2cd4664" y="22.7"/><use x="279.1" xlink:href="#m90f2cd4664" y="22.5"/><use x="290.3" xlink:href="#m90f2cd4664" y="22.4"/><use x="301.4" xlink:href="#m90f2cd4664" y="22.3"/><use x="312.6" xlink:href="#m90f2cd4664" y="22.3"/><use x="323.7" xlink:href="#m90f2cd4664" y="22.3"/><use x="334.9" xlink:href="#m90f2cd4664" y="22.3"/><use x="346.1" xlink:href="#m90f2cd4664" y="22.3"/><use x="357.2" xlink:href="#m90f2cd4664" y="22.3"/><use x="368.4" xlink:href="#m90f2cd4664" y="22.3"/></g></g><path clip-path="url(#p1bcabd3480)" d="M100.5 239.8v-14.6" fill="none" stroke="green" stroke-dasharray="6.475,2.8" stroke-width="1.8" id="line2d_28"/><path clip-path="url(#p1bcabd3480)" d="M44.7 225.2h55.8" fill="none" stroke="green" stroke-dasharray="6.475,2.8" stroke-width="1.8" id="line2d_29"/><path clip-path="url(#p1bcabd3480)" d="M212.1 239.8V32.9" fill="none" stroke="red" stroke-dasharray="6.475,2.8" stroke-width="1.8" id="line2d_30"/><path clip-path="url(#p1bcabd3480)" d="M44.7 33h167.4" fill="none" stroke="red" stroke-dasharray="6.475,2.8" stroke-width="1.8" id="line2d_31"/><path d="M44.7 239.8V22.3" fill="none" id="patch_3"/><path d="M379.5 239.8V22.3" fill="none" id="patch_4"/><path d="M44.7 239.8h334.8" fill="none" id="patch_5"/><path d="M44.7 22.3h334.8" fill="none" id="patch_6"/><g id="text_16"><defs><path d="M44.3 53v-8.4q-3.8 2-8 2.9-4 1-8.4 1-6.7 0-10-2-3.4-2.1-3.4-6.2 0-3.1 2.4-5 2.4-1.7 9.6-3.3l3-.7q9.7-2 13.7-5.8 4-3.7 4-10.4 0-7.6-6-12-6-4.5-16.6-4.5-4.4 0-9.1.8-4.8.9-10 2.6v9.3q5-2.6 9.7-4 4.9-1.2 9.6-1.2 6.4 0 9.8 2.2 3.4 2.2 3.4 6.1 0 3.7-2.5 5.6-2.4 2-10.8 3.8l-3.1.7q-8.4 1.8-12 5.4-3.8 3.6-3.8 10 0 7.7 5.5 11.9Q16.7 56 26.8 56q5 0 9.4-.7 4.4-.8 8-2.2z" id="DejaVuSans-73"/><path d="M54.9 33V0h-9v32.7q0 7.8-3 11.6-3 3.9-9.1 3.9-7.3 0-11.5-4.7Q18.1 39 18.1 31V0h-9v54.7h9v-8.5q3.2 5 7.6 7.4Q30.1 56 35.8 56q9.4 0 14.2-5.8Q55 44.3 55 33z" id="DejaVuSans-6e"/><path d="M19.7 64.8V8.1h11.9q15 0 22 6.8 7 6.9 7 21.6 0 14.7-7 21.5-7 6.8-22 6.8zm-9.9 8.1h20.3q21.2 0 31-8.8 10-8.8 10-27.6T61 8.8Q51.1 0 30.1 0H9.8z" id="DejaVuSans-44"/><path d="M11.7 12.4H22V4l-8-15.6H7.7l4 15.6z" id="DejaVuSans-2c"/><path d="M36.7 67.4L48.8 0h-9.5l-7.5 40.4L5.1 0h-9.5l34.1 52.4-1.7 9.7q-1 6.2-6.3 6.2H17l1.5 7.7 5.7-.1q11-.2 12.5-8.5z" id="DejaVuSans-Oblique-3bb"/><path d="M10.6 45.4h62.6v-8.2H10.6zm0-20h62.6v-8.2H10.6z" id="DejaVuSans-3d"/></defs><g transform="matrix(.12 0 0 -.12 94 16.3)" fill="#262626"><use xlink:href="#DejaVuSans-50"/><use transform="translate(60.3)" xlink:href="#DejaVuSans-6f"/><use transform="translate(121.5)" xlink:href="#DejaVuSans-69"/><use transform="translate(149.3)" xlink:href="#DejaVuSans-73"/><use transform="translate(201.4)" xlink:href="#DejaVuSans-73"/><use transform="translate(253.5)" xlink:href="#DejaVuSans-6f"/><use transform="translate(314.6)" xlink:href="#DejaVuSans-6e"/><use transform="translate(378)" xlink:href="#DejaVuSans-20"/><use transform="translate(409.8)" xlink:href="#DejaVuSans-43"/><use transform="translate(479.6)" xlink:href="#DejaVuSans-75"/><use transform="translate(543)" xlink:href="#DejaVuSans-6d"/><use transform="translate(640.4)" xlink:href="#DejaVuSans-75"/><use transform="translate(703.8)" xlink:href="#DejaVuSans-6c"/><use transform="translate(731.6)" xlink:href="#DejaVuSans-61"/><use transform="translate(792.9)" xlink:href="#DejaVuSans-74"/><use transform="translate(832)" xlink:href="#DejaVuSans-69"/><use transform="translate(859.9)" xlink:href="#DejaVuSans-76"/><use transform="translate(919)" xlink:href="#DejaVuSans-65"/><use transform="translate(980.6)" xlink:href="#DejaVuSans-20"/><use transform="translate(1012.4)" xlink:href="#DejaVuSans-44"/><use transform="translate(1089.4)" xlink:href="#DejaVuSans-69"/><use transform="translate(1117.1)" xlink:href="#DejaVuSans-73"/><use transform="translate(1169.2)" xlink:href="#DejaVuSans-74"/><use transform="translate(1208.4)" xlink:href="#DejaVuSans-72"/><use transform="translate(1249.6)" xlink:href="#DejaVuSans-69"/><use transform="translate(1277.3)" xlink:href="#DejaVuSans-62"/><use transform="translate(1340.8)" xlink:href="#DejaVuSans-75"/><use transform="translate(1404.2)" xlink:href="#DejaVuSans-74"/><use transform="translate(1443.4)" xlink:href="#DejaVuSans-69"/><use transform="translate(1471.2)" xlink:href="#DejaVuSans-6f"/><use transform="translate(1532.4)" xlink:href="#DejaVuSans-6e"/><use transform="translate(1595.8)" xlink:href="#DejaVuSans-2c"/><use transform="translate(1627.5)" xlink:href="#DejaVuSans-20"/><use transform="translate(1659.3)" xlink:href="#DejaVuSans-Oblique-3bb"/><use transform="translate(1738)" xlink:href="#DejaVuSans-3d"/><use transform="translate(1841.3)" xlink:href="#DejaVuSans-31"/><use transform="translate(1904.9)" xlink:href="#DejaVuSans-30"/></g></g></g></g><defs><clipPath id="p1bcabd3480"><path d="M44.7 22.3h334.8v217.4H44.7z"/></clipPath></defs></svg>