<svg viewBox="0 0 380 291" xmlns="http://www.w3.org/2000/svg" xmlns:xlink="http://www.w3.org/1999/xlink"><defs><style>*{stroke-linecap:butt;stroke-linejoin:round}</style></defs><g id="figure_1"><path d="M0 291.7h380.7V0H0z" fill="#fff" id="patch_1"/><g id="axes_1"><path d="M38.7 253.2h334.8V35.8H38.7z" fill="#eaeaf2" id="patch_2"/><g id="matplotlib.axis_1"><g id="xtick_1"><path clip-path="url(#p23152a59b7)" d="M54 253.2V35.8" fill="none" stroke="#fff" stroke-linecap="round" id="line2d_1"/><g id="text_1"><defs><path d="M31.8 66.4q-7.6 0-11.5-7.5-3.8-7.5-3.8-22.5t3.8-22.5q3.9-7.5 11.5-7.5 7.7 0 11.5 7.5T47 36.4q0 15-3.8 22.5t-11.5 7.5zm0 7.8q12.2 0 18.7-9.7T57 36.4Q57 18 50.5 8.3 44-1.4 31.8-1.4 19.5-1.4 13 8.3q-6.5 9.7-6.5 28 0 18.5 6.5 28.2 6.4 9.7 18.7 9.7z" id="DejaVuSans-30"/><path d="M10.7 12.4H21V0H10.7z" id="DejaVuSans-2e"/></defs><g transform="matrix(.1 0 0 -.1 46 267.8)" fill="#262626"><use xlink:href="#DejaVuSans-30"/><use x="63.6" xlink:href="#DejaVuSans-2e"/><use x="95.4" xlink:href="#DejaVuSans-30"/></g></g></g><g id="xtick_2"><path clip-path="url(#p23152a59b7)" d="M114.8 253.2V35.8" fill="none" stroke="#fff" stroke-linecap="round" id="line2d_3"/><g id="text_2"><defs><path d="M19.2 8.3h34.4V0H7.3v8.3l15.3 15.6q9.7 9.8 12.2 12.6 4.7 5.3 6.6 9 2 3.7 2 7.3 0 5.8-4.2 9.5-4 3.6-10.6 3.6-4.6 0-9.8-1.6-5.1-1.6-11-4.9v10q6 2.4 11.1 3.6 5.2 1.2 9.5 1.2 11.4 0 18-5.7 6.8-5.6 6.8-15 0-4.6-1.7-8.6-1.6-4-6-9.5l-7.9-8.2L19.2 8.3z" id="DejaVuSans-32"/></defs><g transform="matrix(.1 0 0 -.1 106.9 267.8)" fill="#262626"><use xlink:href="#DejaVuSans-30"/><use x="63.6" xlink:href="#DejaVuSans-2e"/><use x="95.4" xlink:href="#DejaVuSans-32"/></g></g></g><g id="xtick_3"><path clip-path="url(#p23152a59b7)" d="M175.7 253.2V35.8" fill="none" stroke="#fff" stroke-linecap="round" id="line2d_5"/><g id="text_3"><defs><path d="M37.8 64.3l-25-39h25zM35.2 73h12.4V25.4H58v-8.2H47.6V0h-9.8v17.2h-33v9.5z" id="DejaVuSans-34"/></defs><g transform="matrix(.1 0 0 -.1 167.7 267.8)" fill="#262626"><use xlink:href="#DejaVuSans-30"/><use x="63.6" xlink:href="#DejaVuSans-2e"/><use x="95.4" xlink:href="#DejaVuSans-34"/></g></g></g><g id="xtick_4"><path clip-path="url(#p23152a59b7)" d="M236.6 253.2V35.8" fill="none" stroke="#fff" stroke-linecap="round" id="line2d_7"/><g id="text_4"><defs><path d="M33 40.4q-6.6 0-10.5-4.6-3.9-4.5-3.9-12.4T22.5 11Q26.4 6.4 33 6.4q6.7 0 10.5 4.6 4 4.5 4 12.4t-4 12.4q-3.8 4.6-10.5 4.6zm19.6 30.9v-9Q48.9 64.1 45 65q-3.8 1-7.5 1-9.8 0-15-6.7-5-6.6-5.8-19.9 2.9 4.3 7.2 6.5 4.4 2.3 9.6 2.3 11 0 17.4-6.7 6.3-6.6 6.3-18.1 0-11.2-6.6-18Q44-1.4 33-1.4q-12.6 0-19.3 9.7Q7 18 7 36.3 7 53.8 15.2 64q8.2 10.3 22 10.3 3.7 0 7.5-.7 3.8-.8 7.9-2.2z" id="DejaVuSans-36"/></defs><g transform="matrix(.1 0 0 -.1 228.6 267.8)" fill="#262626"><use xlink:href="#DejaVuSans-30"/><use x="63.6" xlink:href="#DejaVuSans-2e"/><use x="95.4" xlink:href="#DejaVuSans-36"/></g></g></g><g id="xtick_5"><path clip-path="url(#p23152a59b7)" d="M297.4 253.2V35.8" fill="none" stroke="#fff" stroke-linecap="round" id="line2d_9"/><g id="text_5"><defs><path d="M31.8 34.6q-7 0-11-3.7-4.1-3.8-4.1-10.4 0-6.6 4-10.3 4-3.8 11-3.8 7.1 0 11.2 3.8 4 3.8 4 10.3 0 6.6-4 10.4-4 3.7-11.1 3.7zm-9.9 4.2q-6.3 1.6-9.9 6Q8.5 49 8.5 55.2q0 8.8 6.2 13.8 6.3 5.1 17 5.1 11 0 17.2-5Q55 64 55 55.2q0-6.2-3.6-10.6-3.5-4.3-9.8-5.9 7.1-1.6 11.1-6.5 4-4.8 4-11.8 0-10.6-6.5-16.3-6.5-5.6-18.5-5.6T13.2 4.2Q6.8 10 6.8 20.5q0 7 4 11.8 4 4.9 11.1 6.5zm-3.6 15.6q0-5.7 3.5-8.8 3.6-3.2 10-3.2 6.3 0 10 3.2 3.5 3.1 3.5 8.8 0 5.7-3.6 8.8-3.6 3.2-10 3.2-6.3 0-9.9-3.2-3.5-3.1-3.5-8.8z" id="DejaVuSans-38"/></defs><g transform="matrix(.1 0 0 -.1 289.5 267.8)" fill="#262626"><use xlink:href="#DejaVuSans-30"/><use x="63.6" xlink:href="#DejaVuSans-2e"/><use x="95.4" xlink:href="#DejaVuSans-38"/></g></g></g><g id="xtick_6"><path clip-path="url(#p23152a59b7)" d="M358.3 253.2V35.8" fill="none" stroke="#fff" stroke-linecap="round" id="line2d_11"/><g id="text_6"><defs><path d="M12.4 8.3h16.1v55.6L11 60.4v9l17.4 3.5h9.9V8.3h16V0H12.5z" id="DejaVuSans-31"/></defs><g transform="matrix(.1 0 0 -.1 350.4 267.8)" fill="#262626"><use xlink:href="#DejaVuSans-31"/><use x="63.6" xlink:href="#DejaVuSans-2e"/><use x="95.4" xlink:href="#DejaVuSans-30"/></g></g></g><g id="text_7"><defs><path d="M56.2 29.6v-4.4H14.9q.6-9.3 5.6-14.1 5-4.9 14-4.9 5 0 10 1.3 4.8 1.2 9.6 3.8V2.8q-4.8-2-10-3.1-5-1.1-10.2-1.1-13.1 0-20.7 7.6-7.7 7.6-7.7 20.6 0 13.4 7.3 21.3Q20 56 32.3 56q11 0 17.5-7.1 6.4-7.1 6.4-19.3zm-9 2.6q0 7.4-4.1 11.8-4 4.4-10.7 4.4-7.5 0-12-4.3-4.5-4.2-5.2-12z" id="DejaVuSans-65"/><path d="M64.4 67.3V56.9q-5 4.6-10.6 7Q48 66 41.8 66q-12.5 0-19.1-7.6Q16 50.8 16 36.4q0-14.4 6.7-22 6.6-7.7 19.1-7.7 6.3 0 12 2.3 5.6 2.3 10.6 7V5.5q-5.2-3.5-11-5.3-5.7-1.7-12.2-1.7-16.5 0-26 10.1-9.6 10.1-9.6 27.7T15.1 64q9.6 10.1 26.1 10.1 6.5 0 12.3-1.7 5.8-1.8 11-5.2z" id="DejaVuSans-43"/><path d="M52 44.2q3.4 6 8 9Q64.9 56 71 56q8.6 0 13.3-6 4.6-6 4.6-17V0h-9v32.7q0 7.9-2.8 11.7-2.8 3.8-8.5 3.8-7 0-11-4.7-4-4.6-4-12.6V0h-9.1v32.7q0 8-2.8 11.7-2.8 3.8-8.6 3.8-6.9 0-11-4.7-4-4.6-4-12.6V0h-9v54.7h9v-8.5q3 5 7.4 7.4Q29.8 56 35.7 56q6 0 10.1-3 4.2-3 6.2-8.8z" id="DejaVuSans-6d"/><path d="M9.4 76h9V0h-9z" id="DejaVuSans-6c"/><path d="M34.3 27.5q-11 0-15.1-2.5-4.2-2.5-4.2-8.5 0-4.8 3.1-7.6 3.2-2.8 8.6-2.8 7.5 0 12 5.3t4.5 14v2zm17.9 3.7V0h-9v8.3q-3-5-7.7-7.3Q31-1.4 24.3-1.4 16-1.4 11 3.3 6 8 6 15.9q0 9.2 6.2 14 6.2 4.6 18.4 4.6h12.6v1q0 6.1-4 9.5-4.1 3.4-11.5 3.4-4.7 0-9.2-1.1-4.4-1.2-8.5-3.4v8.3q5 2 9.6 2.8 4.6 1 9 1 11.9 0 17.7-6.2 5.9-6.1 5.9-18.6z" id="DejaVuSans-61"/><path d="M18.3 70.2V54.7h18.5v-7H18.3V18q0-6.7 1.8-8.6 1.9-1.9 7.5-1.9h9.2V0h-9.2Q17.2 0 13.2 3.9T9.2 18v29.7H2.8v7h6.6v15.5z" id="DejaVuSans-74"/><path d="M9.4 54.7h9V0h-9zm0 21.3h9V64.6h-9z" id="DejaVuSans-69"/><path d="M3 54.7h9.5l17-45.9 17.2 45.9h9.5L35.7 0H23.5z" id="DejaVuSans-76"/><path d="M8.5 21.6v33h9V22q0-7.7 3-11.6 3-4 9-4 7.4 0 11.6 4.7 4.2 4.7 4.2 12.7v31h9V0h-9v8.4Q42 3.4 37.7 1q-4.3-2.4-10-2.4-9.4 0-14.3 5.8-4.9 5.9-4.9 17.2zM31.1 56z" id="DejaVuSans-75"/><path d="M19.7 64.8V37.4H32q6.9 0 10.6 3.6 3.8 3.5 3.8 10.1t-3.8 10.1q-3.7 3.6-10.6 3.6zm-9.9 8.1h22.3q12.2 0 18.5-5.5Q57 61.8 57 51q0-10.8-6.3-16.3t-18.5-5.5H19.7V0H9.8z" id="DejaVuSans-50"/><path d="M30.6 48.4q-7.2 0-11.4-5.6Q15 37 15 27.3t4.2-15.5q4.1-5.6 11.4-5.6 7.2 0 11.4 5.7 4.2 5.6 4.2 15.4 0 9.7-4.2 15.4-4.2 5.7-11.4 5.7zm0 7.6q11.7 0 18.4-7.6 6.7-7.6 6.7-21.1 0-13.4-6.7-21-6.7-7.7-18.4-7.7-11.8 0-18.4 7.6Q5.5 14 5.5 27.3q0 13.5 6.7 21Q18.8 56 30.6 56z" id="DejaVuSans-6f"/><path d="M44.3 53v-8.4q-3.8 2-8 2.9-4 1-8.4 1-6.7 0-10-2-3.4-2.1-3.4-6.2 0-3.1 2.4-5 2.4-1.7 9.6-3.3l3-.7q9.7-2 13.7-5.8 4-3.7 4-10.4 0-7.6-6-12-6-4.5-16.6-4.5-4.4 0-9.1.8-4.8.9-10 2.6v9.3q5-2.6 9.7-4 4.9-1.2 9.6-1.2 6.4 0 9.8 2.2 3.4 2.2 3.4 6.1 0 3.7-2.5 5.6-2.4 2-10.8 3.8l-3.1.7q-8.4 1.8-12 5.4-3.8 3.6-3.8 10 0 7.7 5.5 11.9Q16.7 56 26.8 56q5 0 9.4-.7 4.4-.8 8-2.2z" id="DejaVuSans-73"/><path d="M54.9 33V0h-9v32.7q0 7.8-3 11.6-3 3.9-9.1 3.9-7.3 0-11.5-4.7Q18.1 39 18.1 31V0h-9v54.7h9v-8.5q3.2 5 7.6 7.4Q30.1 56 35.8 56q9.4 0 14.2-5.8Q55 44.3 55 33z" id="DejaVuSans-6e"/><path d="M41.1 46.3q-1.5.9-3.3 1.3-1.8.4-4 .4-7.5 0-11.6-5-4-5-4-14.2V0H9v54.7h9v-8.5q2.9 5 7.4 7.4Q30 56 36.5 56l2-.1 2.6-.4z" id="DejaVuSans-72"/><path d="M48.7 27.3q0 9.9-4 15.5-4.2 5.7-11.3 5.7-7.1 0-11.2-5.7-4-5.6-4-15.5 0-10 4-15.6t11.2-5.6q7.1 0 11.2 5.7 4 5.6 4 15.5zM18 46.3q2.9 5 7.2 7.3Q29.6 56 35.6 56q10 0 16.2-8Q58 40.3 58 27.4q0-12.9-6.2-20.8-6.2-8-16.2-8-6 0-10.3 2.5Q21 3.3 18 8.2V0h-9v76h9z" id="DejaVuSans-62"/><path d="M32.2-5q-3.8-9.8-7.5-12.8-3.6-3-9.6-3H7.9v7.5h5.3q3.7 0 5.7 1.8 2.1 1.7 4.6 8.3l1.6 4L3 54.8h9.5l17-42.8 17.2 42.8h9.5z" id="DejaVuSans-79"/></defs><g transform="matrix(.11 0 0 -.11 121.2 282.2)" fill="#262626"><use xlink:href="#DejaVuSans-43"/><use x="69.8" xlink:href="#DejaVuSans-75"/><use x="133.2" xlink:href="#DejaVuSans-6d"/><use x="230.6" xlink:href="#DejaVuSans-75"/><use x="294" xlink:href="#DejaVuSans-6c"/><use x="321.8" xlink:href="#DejaVuSans-61"/><use x="383.1" xlink:href="#DejaVuSans-74"/><use x="422.3" xlink:href="#DejaVuSans-69"/><use x="450" xlink:href="#DejaVuSans-76"/><use x="509.2" xlink:href="#DejaVuSans-65"/><use x="570.8" xlink:href="#DejaVuSans-20"/><use x="602.5" xlink:href="#DejaVuSans-50"/><use x="662.8" xlink:href="#DejaVuSans-6f"/><use x="724" xlink:href="#DejaVuSans-69"/><use x="751.8" xlink:href="#DejaVuSans-73"/><use x="803.9" xlink:href="#DejaVuSans-73"/><use x="856" xlink:href="#DejaVuSans-6f"/><use x="917.1" xlink:href="#DejaVuSans-6e"/><use x="980.5" xlink:href="#DejaVuSans-20"/><use x="1012.3" xlink:href="#DejaVuSans-50"/><use x="1072.6" xlink:href="#DejaVuSans-72"/><use x="1113.7" xlink:href="#DejaVuSans-6f"/><use x="1174.9" xlink:href="#DejaVuSans-62"/><use x="1238.3" xlink:href="#DejaVuSans-61"/><use x="1299.6" xlink:href="#DejaVuSans-62"/><use x="1363.1" xlink:href="#DejaVuSans-69"/><use x="1390.9" xlink:href="#DejaVuSans-6c"/><use x="1418.7" xlink:href="#DejaVuSans-69"/><use x="1446.4" xlink:href="#DejaVuSans-74"/><use x="1485.6" xlink:href="#DejaVuSans-79"/></g></g></g><g id="matplotlib.axis_2"><g id="ytick_1"><path clip-path="url(#p23152a59b7)" d="M38.7 73.9h334.8" fill="none" stroke="#fff" stroke-linecap="round" id="line2d_13"/><g id="text_8"><defs><path d="M34.2 63.2L20.8 26.9h26.8zm-5.6 9.7h11.2L67.6 0H57.3l-6.6 18.7H17.8L11.2 0H.8z" id="DejaVuSans-41"/></defs><use xlink:href="#DejaVuSans-41" transform="matrix(.1 0 0 -.1 24.9 77.7)" fill="#262626"/></g></g><g id="ytick_2"><path clip-path="url(#p23152a59b7)" d="M38.7 102.1h334.8" fill="none" stroke="#fff" stroke-linecap="round" id="line2d_15"/><g id="text_9"><defs><path d="M3.3 73h10l15.3-61.7L44 72.9h11l15.4-61.6 15.3 61.6h10L77.3 0H64.9L49.5 63.3 34 0H21.6z" id="DejaVuSans-57"/></defs><use xlink:href="#DejaVuSans-57" transform="matrix(.1 0 0 -.1 21.8 106)" fill="#262626"/></g></g><g id="ytick_3"><path clip-path="url(#p23152a59b7)" d="M38.7 130.4h334.8" fill="none" stroke="#fff" stroke-linecap="round" id="line2d_17"/><g id="text_10"><defs><path d="M9.8 73h9.9V43h35.8v30h9.9V0h-9.9v34.7H19.7V0H9.8z" id="DejaVuSans-48"/></defs><use xlink:href="#DejaVuSans-48" transform="matrix(.1 0 0 -.1 24.2 134.2)" fill="#262626"/></g></g><g id="ytick_4"><path clip-path="url(#p23152a59b7)" d="M38.7 158.6h334.8" fill="none" stroke="#fff" stroke-linecap="round" id="line2d_19"/><g id="text_11"><defs><path d="M9.8 73h13.3l32.3-61v61H65V0H51.7L19.4 61V0H9.8z" id="DejaVuSans-4e"/></defs><use xlink:href="#DejaVuSans-4e" transform="matrix(.1 0 0 -.1 24.3 162.4)" fill="#262626"/></g></g><g id="ytick_5"><path clip-path="url(#p23152a59b7)" d="M38.7 186.8h334.8" fill="none" stroke="#fff" stroke-linecap="round" id="line2d_21"/><g id="text_12"><defs><path d="M39.4 66.2q-10.7 0-17-8-6.4-8-6.4-21.8t6.3-21.8q6.4-8 17.1-8 10.7 0 17 8 6.3 8 6.3 21.8t-6.3 21.8q-6.3 8-17 8zm0 8Q54.7 74.2 64 64q9.2-10.2 9.2-27.5T63.9 8.9Q54.7-1.4 39.4-1.4 24-1.4 14.8 8.8 5.6 19.1 5.6 36.4t9.2 27.5Q24 74.2 39.4 74.2z" id="DejaVuSans-4f"/></defs><use xlink:href="#DejaVuSans-4f" transform="matrix(.1 0 0 -.1 23.9 190.6)" fill="#262626"/></g></g><g id="ytick_6"><path clip-path="url(#p23152a59b7)" d="M38.7 215h334.8" fill="none" stroke="#fff" stroke-linecap="round" id="line2d_23"/><g id="text_13"><defs><path d="M19.7 34.8V8.1h15.8q8 0 11.8 3.3 3.8 3.3 3.8 10 0 7-3.8 10.2-3.8 3.2-11.8 3.2zm0 30v-22h14.6q7.2 0 10.7 2.7 3.6 2.8 3.6 8.3 0 5.5-3.6 8.3-3.5 2.7-10.7 2.7zm-9.9 8.1H35q11.3 0 17.4-4.7 6.1-4.7 6.1-13.3 0-6.7-3.1-10.7-3.1-4-9.2-4.9 7.3-1.5 11.3-6.5 4-5 4-12.4 0-9.8-6.6-15Q48.3 0 35.9 0H10z" id="DejaVuSans-42"/></defs><use xlink:href="#DejaVuSans-42" transform="matrix(.1 0 0 -.1 24.9 218.9)" fill="#262626"/></g></g><g id="text_14"><defs><path d="M44.4 34.2q3.2-1 6.2-4.6 3-3.5 6-9.7L66.6 0H56l-9.3 18.7q-3.6 7.3-7 9.7-3.4 2.4-9.3 2.4H19.7V0H9.8v73h22.3q12.5 0 18.6-5.3Q57 62.5 57 51.9q0-6.9-3.2-11.4-3.2-4.6-9.3-6.3zM19.7 64.8V38.9H32q7.1 0 10.7 3.3 3.7 3.3 3.7 9.7 0 6.4-3.7 9.6-3.6 3.3-10.7 3.3z" id="DejaVuSans-52"/><path d="M48.8 52.6v-8.4Q45 46.3 41 47.3q-3.8 1-7.7 1-8.7 0-13.6-5.5Q15 37.3 15 27.3t4.8-15.6q4.9-5.5 13.6-5.5 4 0 7.7 1 3.9 1.1 7.7 3.2V2.1Q45 .3 41-.5q-4-1-8.6-1-12.3 0-19.6 7.8-7.3 7.8-7.3 21 0 13.4 7.4 21Q20.2 56 33 56q4.2 0 8.1-.9 4-.8 7.7-2.5z" id="DejaVuSans-63"/></defs><g transform="matrix(0 -.11 -.11 0 15.6 158)" fill="#262626"><use xlink:href="#DejaVuSans-52"/><use x="69.5" xlink:href="#DejaVuSans-61"/><use x="130.7" xlink:href="#DejaVuSans-63"/><use x="185.7" xlink:href="#DejaVuSans-65"/></g></g></g><path clip-path="url(#p23152a59b7)" d="M206.1 62.6H54v22.6H206z" fill="#4c72b0" id="patch_3"/><path clip-path="url(#p23152a59b7)" d="M206.1 90.8H54v22.6H206z" fill="#4c72b0" id="patch_4"/><path clip-path="url(#p23152a59b7)" d="M206.1 119H62.4v22.7h143.7z" fill="#4c72b0" id="patch_5"/><path clip-path="url(#p23152a59b7)" d="M206.1 147.3h59.2v22.6h-59.2z" fill="#4c72b0" id="patch_6"/><path clip-path="url(#p23152a59b7)" d="M206.1 175.5h152v22.6h-152z" fill="#4c72b0" id="patch_7"/><path clip-path="url(#p23152a59b7)" d="M206.1 203.8h152.2v22.6H206.1z" fill="#4c72b0" id="patch_8"/><path clip-path="url(#p23152a59b7)" d="M206.1 45.6v197.7" fill="none" stroke="#000" stroke-linecap="round" stroke-width="2" id="line2d_25"/><path d="M38.7 253.2V35.8" fill="none" id="patch_9"/><path d="M373.5 253.2V35.8" fill="none" id="patch_10"/><path d="M38.7 253.2h334.8" fill="none" id="patch_11"/><path d="M38.7 35.8h334.8" fill="none" id="patch_12"/><g id="text_15"><defs><path d="M9.8 73h9.9V8.2h35.5V0H9.8z" id="DejaVuSans-4c"/><path d="M54.9 33V0h-9v32.7q0 7.8-3 11.6-3 3.9-9.1 3.9-7.3 0-11.5-4.7Q18.1 39 18.1 31V0h-9v76h9V46.2q3.2 5 7.6 7.4Q30.1 56 35.8 56q9.4 0 14.2-5.8Q55 44.3 55 33z" id="DejaVuSans-68"/><path d="M45.4 28q0 9.8-4 15.1-4 5.4-11.3 5.4-7.2 0-11.3-5.4-4-5.4-4-15.1t4-15.1q4-5.4 11.3-5.4 7.3 0 11.3 5.4 4 5.4 4 15zm9-21.2q0-14-6.2-20.8-6.2-6.8-19-6.8-4.7 0-9 .7-4.1.7-8 2.2v8.7q3.9-2.1 7.7-3.1 3.9-1 7.9-1 8.8 0 13.2 4.5 4.4 4.6 4.4 14v4.4q-2.8-4.8-7.1-7.2Q33.9 0 27.9 0q-10 0-16.2 7.7Q5.5 15.3 5.5 28q0 12.7 6.2 20.3Q17.8 56 27.9 56q6 0 10.4-2.4 4.3-2.4 7.1-7.2v8.3h9z" id="DejaVuSans-67"/><path d="M4.9 29.2v4.3L24 52.7l5.8-5.8-11.3-11.4H78v-8.3H18.6l11.3-11.4-5.8-5.8z" id="DejaVuSans-2190"/><path d="M79 33.5v-4.3L59.6 10 54 15.8l11.3 11.4H5.7v8.3h59.5L54 46.9l5.8 5.8z" id="DejaVuSans-2192"/><path d="M9.8 73h14.7l18.6-49.7 18.7 49.6h14.7V0H67v64L48 14H38L19.5 64V0H9.8z" id="DejaVuSans-4d"/></defs><g transform="matrix(.12 0 0 -.12 97.3 52.7)" fill="gray"><use xlink:href="#DejaVuSans-4c"/><use transform="translate(55.7)" xlink:href="#DejaVuSans-65"/><use transform="translate(117.2)" xlink:href="#DejaVuSans-73"/><use transform="translate(169.3)" xlink:href="#DejaVuSans-73"/><use transform="translate(221.4)" xlink:href="#DejaVuSans-20"/><use transform="translate(253.2)" xlink:href="#DejaVuSans-73"/><use transform="translate(305.3)" xlink:href="#DejaVuSans-68"/><use transform="translate(368.7)" xlink:href="#DejaVuSans-6f"/><use transform="translate(429.9)" xlink:href="#DejaVuSans-6f"/><use transform="translate(491)" xlink:href="#DejaVuSans-74"/><use transform="translate(530.3)" xlink:href="#DejaVuSans-69"/><use transform="translate(558)" xlink:href="#DejaVuSans-6e"/><use transform="translate(621.4)" xlink:href="#DejaVuSans-67"/><use transform="translate(685)" xlink:href="#DejaVuSans-73"/><use transform="translate(737)" xlink:href="#DejaVuSans-20"/><use transform="translate(788.3)" xlink:href="#DejaVuSans-2190"/><use transform="translate(891.6)" xlink:href="#DejaVuSans-20"/><use transform="translate(942.8)" xlink:href="#DejaVuSans-2192"/><use transform="translate(1046)" xlink:href="#DejaVuSans-20"/><use transform="translate(1077.9)" xlink:href="#DejaVuSans-4d"/><use transform="translate(1164.2)" xlink:href="#DejaVuSans-6f"/><use transform="translate(1225.3)" xlink:href="#DejaVuSans-72"/><use transform="translate(1266.5)" xlink:href="#DejaVuSans-65"/><use transform="translate(1328)" xlink:href="#DejaVuSans-20"/><use transform="translate(1359.8)" xlink:href="#DejaVuSans-73"/><use transform="translate(1411.9)" xlink:href="#DejaVuSans-68"/><use transform="translate(1475.2)" xlink:href="#DejaVuSans-6f"/><use transform="translate(1536.4)" xlink:href="#DejaVuSans-6f"/><use transform="translate(1597.6)" xlink:href="#DejaVuSans-74"/><use transform="translate(1636.8)" xlink:href="#DejaVuSans-69"/><use transform="translate(1664.6)" xlink:href="#DejaVuSans-6e"/><use transform="translate(1728)" xlink:href="#DejaVuSans-67"/><use transform="translate(1791.5)" xlink:href="#DejaVuSans-73"/></g></g><g id="text_16"><defs><path d="M53.5 70.5V61q-5.6 2.7-10.6 4-5 1.3-9.6 1.3-8 0-12.4-3.1t-4.4-8.9q0-4.8 3-7.3 2.8-2.5 11-4l5.9-1.2q11-2.1 16.3-7.4 5.2-5.3 5.2-14.2 0-10.6-7.1-16Q43.7-1.5 30-1.5q-5.2 0-11 1.1Q13 1 6.9 3.3v10.2q6-3.4 11.8-5.1Q24.4 6.6 30 6.6q8.4 0 13 3.3t4.6 9.5q0 5.4-3.3 8.4t-10.8 4.5l-6 1.2q-11 2.2-16 6.9t-5 13q0 9.7 7 15.3 6.7 5.5 18.7 5.5 5.1 0 10.4-1 5.4-.8 11-2.7z" id="DejaVuSans-53"/><path d="M11.7 12.4H22V0H11.7zm0 39.3H22V39.3H11.7z" id="DejaVuSans-3a"/></defs><g transform="matrix(.12 0 0 -.12 84.9 16.3)" fill="#262626"><use xlink:href="#DejaVuSans-50"/><use x="60.3" xlink:href="#DejaVuSans-6f"/><use x="121.4" xlink:href="#DejaVuSans-6c"/><use x="149.2" xlink:href="#DejaVuSans-69"/><use x="177" xlink:href="#DejaVuSans-63"/><use x="232" xlink:href="#DejaVuSans-65"/><use x="293.5" xlink:href="#DejaVuSans-20"/><use x="325.3" xlink:href="#DejaVuSans-53"/><use x="388.8" xlink:href="#DejaVuSans-68"/><use x="452.2" xlink:href="#DejaVuSans-6f"/><use x="513.3" xlink:href="#DejaVuSans-6f"/><use x="574.5" xlink:href="#DejaVuSans-74"/><use x="613.7" xlink:href="#DejaVuSans-69"/><use x="641.5" xlink:href="#DejaVuSans-6e"/><use x="704.9" xlink:href="#DejaVuSans-67"/><use x="768.4" xlink:href="#DejaVuSans-73"/><use x="820.5" xlink:href="#DejaVuSans-3a"/><use x="854.2" xlink:href="#DejaVuSans-20"/><use x="885.9" xlink:href="#DejaVuSans-43"/><use x="955.8" xlink:href="#DejaVuSans-75"/><use x="1019.1" xlink:href="#DejaVuSans-6d"/><use x="1116.6" xlink:href="#DejaVuSans-75"/><use x="1179.9" xlink:href="#DejaVuSans-6c"/><use x="1207.7" xlink:href="#DejaVuSans-61"/><use x="1269" xlink:href="#DejaVuSans-74"/><use x="1308.2" xlink:href="#DejaVuSans-69"/><use x="1336" xlink:href="#DejaVuSans-76"/><use x="1395.2" xlink:href="#DejaVuSans-65"/><use x="1456.7" xlink:href="#DejaVuSans-20"/><use x="1488.5" xlink:href="#DejaVuSans-50"/><use x="1548.8" xlink:href="#DejaVuSans-72"/><use x="1589.8" xlink:href="#DejaVuSans-6f"/><use x="1651" xlink:href="#DejaVuSans-62"/><use x="1714.5" xlink:href="#DejaVuSans-61"/><use x="1775.8" xlink:href="#DejaVuSans-62"/><use x="1839.3" xlink:href="#DejaVuSans-69"/><use x="1867" xlink:href="#DejaVuSans-6c"/><use x="1894.8" xlink:href="#DejaVuSans-69"/><use x="1922.6" xlink:href="#DejaVuSans-74"/><use x="1961.8" xlink:href="#DejaVuSans-79"/></g><defs><path d="M11.7 12.4H22V4l-8-15.6H7.7l4 15.6z" id="DejaVuSans-2c"/></defs><g transform="matrix(.12 0 0 -.12 109 29.8)" fill="#262626"><use xlink:href="#DejaVuSans-67"/><use x="63.5" xlink:href="#DejaVuSans-69"/><use x="91.3" xlink:href="#DejaVuSans-76"/><use x="150.4" xlink:href="#DejaVuSans-65"/><use x="212" xlink:href="#DejaVuSans-6e"/><use x="275.3" xlink:href="#DejaVuSans-20"/><use x="307.1" xlink:href="#DejaVuSans-6e"/><use x="370.5" xlink:href="#DejaVuSans-61"/><use x="431.8" xlink:href="#DejaVuSans-74"/><use x="471" xlink:href="#DejaVuSans-69"/><use x="498.8" xlink:href="#DejaVuSans-6f"/><use x="560" xlink:href="#DejaVuSans-6e"/><use x="623.3" xlink:href="#DejaVuSans-61"/><use x="684.6" xlink:href="#DejaVuSans-6c"/><use x="712.4" xlink:href="#DejaVuSans-20"/><use x="744.2" xlink:href="#DejaVuSans-61"/><use x="805.5" xlink:href="#DejaVuSans-76"/><use x="864.6" xlink:href="#DejaVuSans-65"/><use x="926.2" xlink:href="#DejaVuSans-72"/><use x="967.3" xlink:href="#DejaVuSans-61"/><use x="1028.6" xlink:href="#DejaVuSans-67"/><use x="1092" xlink:href="#DejaVuSans-65"/><use x="1153.6" xlink:href="#DejaVuSans-2c"/><use x="1185.4" xlink:href="#DejaVuSans-20"/><use x="1217.1" xlink:href="#DejaVuSans-62"/><use x="1280.6" xlink:href="#DejaVuSans-79"/><use x="1339.8" xlink:href="#DejaVuSans-20"/><use x="1371.6" xlink:href="#DejaVuSans-52"/><use x="1441" xlink:href="#DejaVuSans-61"/><use x="1502.3" xlink:href="#DejaVuSans-63"/><use x="1557.3" xlink:href="#DejaVuSans-65"/></g></g></g></g><defs><clipPath id="p23152a59b7"><path d="M38.7 35.8h334.8v217.4H38.7z"/></clipPath></defs></svg>