<svg viewBox="0 0 397 780" xmlns="http://www.w3.org/2000/svg" xmlns:xlink="http://www.w3.org/1999/xlink"><defs><style>*{stroke-linecap:butt;stroke-linejoin:round}</style></defs><g id="figure_1"><path d="M0 781h397.1V0H0z" fill="#fff" id="patch_1"/><g id="axes_1"><path d="M45.6 742.4h334.8V35.8H45.6z" fill="#eaeaf2" id="patch_2"/><g id="matplotlib.axis_1"><g id="xtick_1"><path clip-path="url(#p44c759a44c)" d="M45.6 742.4V35.8" fill="none" stroke="#fff" stroke-linecap="round" id="line2d_1"/><g id="text_1"><defs><path d="M31.8 66.4q-7.6 0-11.5-7.5-3.8-7.5-3.8-22.5t3.8-22.5q3.9-7.5 11.5-7.5 7.7 0 11.5 7.5T47 36.4q0 15-3.8 22.5t-11.5 7.5zm0 7.8q12.2 0 18.7-9.7T57 36.4Q57 18 50.5 8.3 44-1.4 31.8-1.4 19.5-1.4 13 8.3q-6.5 9.7-6.5 28 0 18.5 6.5 28.2 6.4 9.7 18.7 9.7z" id="DejaVuSans-30"/></defs><use xlink:href="#DejaVuSans-30" transform="matrix(.1 0 0 -.1 42.4 757)" fill="#262626"/></g></g><g id="xtick_2"><path clip-path="url(#p44c759a44c)" d="M112.5 742.4V35.8" fill="none" stroke="#fff" stroke-linecap="round" id="line2d_3"/><g id="text_2"><defs><path d="M19.2 8.3h34.4V0H7.3v8.3l15.3 15.6q9.7 9.8 12.2 12.6 4.7 5.3 6.6 9 2 3.7 2 7.3 0 5.8-4.2 9.5-4 3.6-10.6 3.6-4.6 0-9.8-1.6-5.1-1.6-11-4.9v10q6 2.4 11.1 3.6 5.2 1.2 9.5 1.2 11.4 0 18-5.7 6.8-5.6 6.8-15 0-4.6-1.7-8.6-1.6-4-6-9.5l-7.9-8.2L19.2 8.3z" id="DejaVuSans-32"/></defs><g transform="matrix(.1 0 0 -.1 106.2 757)" fill="#262626"><use xlink:href="#DejaVuSans-32"/><use x="63.6" xlink:href="#DejaVuSans-30"/></g></g></g><g id="xtick_3"><path clip-path="url(#p44c759a44c)" d="M179.5 742.4V35.8" fill="none" stroke="#fff" stroke-linecap="round" id="line2d_5"/><g id="text_3"><defs><path d="M37.8 64.3l-25-39h25zM35.2 73h12.4V25.4H58v-8.2H47.6V0h-9.8v17.2h-33v9.5z" id="DejaVuSans-34"/></defs><g transform="matrix(.1 0 0 -.1 173.1 757)" fill="#262626"><use xlink:href="#DejaVuSans-34"/><use x="63.6" xlink:href="#DejaVuSans-30"/></g></g></g><g id="xtick_4"><path clip-path="url(#p44c759a44c)" d="M246.5 742.4V35.8" fill="none" stroke="#fff" stroke-linecap="round" id="line2d_7"/><g id="text_4"><defs><path d="M33 40.4q-6.6 0-10.5-4.6-3.9-4.5-3.9-12.4T22.5 11Q26.4 6.4 33 6.4q6.7 0 10.5 4.6 4 4.5 4 12.4t-4 12.4q-3.8 4.6-10.5 4.6zm19.6 30.9v-9Q48.9 64.1 45 65q-3.8 1-7.5 1-9.8 0-15-6.7-5-6.6-5.8-19.9 2.9 4.3 7.2 6.5 4.4 2.3 9.6 2.3 11 0 17.4-6.7 6.3-6.6 6.3-18.1 0-11.2-6.6-18Q44-1.4 33-1.4q-12.6 0-19.3 9.7Q7 18 7 36.3 7 53.8 15.2 64q8.2 10.3 22 10.3 3.7 0 7.5-.7 3.8-.8 7.9-2.2z" id="DejaVuSans-36"/></defs><g transform="matrix(.1 0 0 -.1 240 757)" fill="#262626"><use xlink:href="#DejaVuSans-36"/><use x="63.6" xlink:href="#DejaVuSans-30"/></g></g></g><g id="xtick_5"><path clip-path="url(#p44c759a44c)" d="M313.4 742.4V35.8" fill="none" stroke="#fff" stroke-linecap="round" id="line2d_9"/><g id="text_5"><defs><path d="M31.8 34.6q-7 0-11-3.7-4.1-3.8-4.1-10.4 0-6.6 4-10.3 4-3.8 11-3.8 7.1 0 11.2 3.8 4 3.8 4 10.3 0 6.6-4 10.4-4 3.7-11.1 3.7zm-9.9 4.2q-6.3 1.6-9.9 6Q8.5 49 8.5 55.2q0 8.8 6.2 13.8 6.3 5.1 17 5.1 11 0 17.2-5Q55 64 55 55.2q0-6.2-3.6-10.6-3.5-4.3-9.8-5.9 7.1-1.6 11.1-6.5 4-4.8 4-11.8 0-10.6-6.5-16.3-6.5-5.6-18.5-5.6T13.2 4.2Q6.8 10 6.8 20.5q0 7 4 11.8 4 4.9 11.1 6.5zm-3.6 15.6q0-5.7 3.5-8.8 3.6-3.2 10-3.2 6.3 0 10 3.2 3.5 3.1 3.5 8.8 0 5.7-3.6 8.8-3.6 3.2-10 3.2-6.3 0-9.9-3.2-3.5-3.1-3.5-8.8z" id="DejaVuSans-38"/></defs><g transform="matrix(.1 0 0 -.1 307 757)" fill="#262626"><use xlink:href="#DejaVuSans-38"/><use x="63.6" xlink:href="#DejaVuSans-30"/></g></g></g><g id="xtick_6"><path clip-path="url(#p44c759a44c)" d="M380.4 742.4V35.8" fill="none" stroke="#fff" stroke-linecap="round" id="line2d_11"/><g id="text_6"><defs><path d="M12.4 8.3h16.1v55.6L11 60.4v9l17.4 3.5h9.9V8.3h16V0H12.5z" id="DejaVuSans-31"/></defs><g transform="matrix(.1 0 0 -.1 370.8 757)" fill="#262626"><use xlink:href="#DejaVuSans-31"/><use x="63.6" xlink:href="#DejaVuSans-30"/><use x="127.2" xlink:href="#DejaVuSans-30"/></g></g></g><g id="text_7"><defs><path d="M54.9 33V0h-9v32.7q0 7.8-3 11.6-3 3.9-9.1 3.9-7.3 0-11.5-4.7Q18.1 39 18.1 31V0h-9v76h9V46.2q3.2 5 7.6 7.4Q30.1 56 35.8 56q9.4 0 14.2-5.8Q55 44.3 55 33z" id="DejaVuSans-68"/><path d="M19.7 64.8V37.4H32q6.9 0 10.6 3.6 3.8 3.5 3.8 10.1t-3.8 10.1q-3.7 3.6-10.6 3.6zm-9.9 8.1h22.3q12.2 0 18.5-5.5Q57 61.8 57 51q0-10.8-6.3-16.3t-18.5-5.5H19.7V0H9.8z" id="DejaVuSans-50"/><path d="M41.1 46.3q-1.5.9-3.3 1.3-1.8.4-4 .4-7.5 0-11.6-5-4-5-4-14.2V0H9v54.7h9v-8.5q2.9 5 7.4 7.4Q30 56 36.5 56l2-.1 2.6-.4z" id="DejaVuSans-72"/><path d="M48.8 52.6v-8.4Q45 46.3 41 47.3q-3.8 1-7.7 1-8.7 0-13.6-5.5Q15 37.3 15 27.3t4.8-15.6q4.9-5.5 13.6-5.5 4 0 7.7 1 3.9 1.1 7.7 3.2V2.1Q45 .3 41-.5q-4-1-8.6-1-12.3 0-19.6 7.8-7.3 7.8-7.3 21 0 13.4 7.4 21Q20.2 56 33 56q4.2 0 8.1-.9 4-.8 7.7-2.5z" id="DejaVuSans-63"/><path d="M54.9 33V0h-9v32.7q0 7.8-3 11.6-3 3.9-9.1 3.9-7.3 0-11.5-4.7Q18.1 39 18.1 31V0h-9v54.7h9v-8.5q3.2 5 7.6 7.4Q30.1 56 35.8 56q9.4 0 14.2-5.8Q55 44.3 55 33z" id="DejaVuSans-6e"/><path d="M18.3 70.2V54.7h18.5v-7H18.3V18q0-6.7 1.8-8.6 1.9-1.9 7.5-1.9h9.2V0h-9.2Q17.2 0 13.2 3.9T9.2 18v29.7H2.8v7h6.6v15.5z" id="DejaVuSans-74"/><path d="M30.6 48.4q-7.2 0-11.4-5.6Q15 37 15 27.3t4.2-15.5q4.1-5.6 11.4-5.6 7.2 0 11.4 5.7 4.2 5.6 4.2 15.4 0 9.7-4.2 15.4-4.2 5.7-11.4 5.7zm0 7.6q11.7 0 18.4-7.6 6.7-7.6 6.7-21.1 0-13.4-6.7-21-6.7-7.7-18.4-7.7-11.8 0-18.4 7.6Q5.5 14 5.5 27.3q0 13.5 6.7 21Q18.8 56 30.6 56z" id="DejaVuSans-6f"/><path d="M37.1 76v-7.5h-8.6q-4.8 0-6.7-2-1.9-2-1.9-7v-4.8h14.8v-7H20V0h-9v47.7H2.3v7h8.6v3.8q0 9.1 4.2 13.3Q19.4 76 28.6 76z" id="DejaVuSans-66"/><path d="M53.5 70.5V61q-5.6 2.7-10.6 4-5 1.3-9.6 1.3-8 0-12.4-3.1t-4.4-8.9q0-4.8 3-7.3 2.8-2.5 11-4l5.9-1.2q11-2.1 16.3-7.4 5.2-5.3 5.2-14.2 0-10.6-7.1-16Q43.7-1.5 30-1.5q-5.2 0-11 1.1Q13 1 6.9 3.3v10.2q6-3.4 11.8-5.1Q24.4 6.6 30 6.6q8.4 0 13 3.3t4.6 9.5q0 5.4-3.3 8.4t-10.8 4.5l-6 1.2q-11 2.2-16 6.9t-5 13q0 9.7 7 15.3 6.7 5.5 18.7 5.5 5.1 0 10.4-1 5.4-.8 11-2.7z" id="DejaVuSans-53"/><path d="M56.2 29.6v-4.4H14.9q.6-9.3 5.6-14.1 5-4.9 14-4.9 5 0 10 1.3 4.8 1.2 9.6 3.8V2.8q-4.8-2-10-3.1-5-1.1-10.2-1.1-13.1 0-20.7 7.6-7.7 7.6-7.7 20.6 0 13.4 7.3 21.3Q20 56 32.3 56q11 0 17.5-7.1 6.4-7.1 6.4-19.3zm-9 2.6q0 7.4-4.1 11.8-4 4.4-10.7 4.4-7.5 0-12-4.3-4.5-4.2-5.2-12z" id="DejaVuSans-65"/><path d="M9.4 54.7h9V0h-9zm0 21.3h9V64.6h-9z" id="DejaVuSans-69"/><path d="M45.4 28q0 9.8-4 15.1-4 5.4-11.3 5.4-7.2 0-11.3-5.4-4-5.4-4-15.1t4-15.1q4-5.4 11.3-5.4 7.3 0 11.3 5.4 4 5.4 4 15zm9-21.2q0-14-6.2-20.8-6.2-6.8-19-6.8-4.7 0-9 .7-4.1.7-8 2.2v8.7q3.9-2.1 7.7-3.1 3.9-1 7.9-1 8.8 0 13.2 4.5 4.4 4.6 4.4 14v4.4q-2.8-4.8-7.1-7.2Q33.9 0 27.9 0q-10 0-16.2 7.7Q5.5 15.3 5.5 28q0 12.7 6.2 20.3Q17.8 56 27.9 56q6 0 10.4-2.4 4.3-2.4 7.1-7.2v8.3h9z" id="DejaVuSans-67"/><path d="M44.3 53v-8.4q-3.8 2-8 2.9-4 1-8.4 1-6.7 0-10-2-3.4-2.1-3.4-6.2 0-3.1 2.4-5 2.4-1.7 9.6-3.3l3-.7q9.7-2 13.7-5.8 4-3.7 4-10.4 0-7.6-6-12-6-4.5-16.6-4.5-4.4 0-9.1.8-4.8.9-10 2.6v9.3q5-2.6 9.7-4 4.9-1.2 9.6-1.2 6.4 0 9.8 2.2 3.4 2.2 3.4 6.1 0 3.7-2.5 5.6-2.4 2-10.8 3.8l-3.1.7q-8.4 1.8-12 5.4-3.8 3.6-3.8 10 0 7.7 5.5 11.9Q16.7 56 26.8 56q5 0 9.4-.7 4.4-.8 8-2.2z" id="DejaVuSans-73"/><path d="M4.2 54.7h9L24.4 12l11.2 42.7h10.6L57.4 12l11.2 42.7h9L63.3 0H52.7L40.9 44.8 29.1 0H18.5z" id="DejaVuSans-77"/><path d="M48.7 27.3q0 9.9-4 15.5-4.2 5.7-11.3 5.7-7.1 0-11.2-5.7-4-5.6-4-15.5 0-10 4-15.6t11.2-5.6q7.1 0 11.2 5.7 4 5.6 4 15.5zM18 46.3q2.9 5 7.2 7.3Q29.6 56 35.6 56q10 0 16.2-8Q58 40.3 58 27.4q0-12.9-6.2-20.8-6.2-8-16.2-8-6 0-10.3 2.5Q21 3.3 18 8.2V0h-9v76h9z" id="DejaVuSans-62"/><path d="M45.4 46.4V76h9V0h-9v8.2Q42.6 3.3 38.3 1q-4.4-2.4-10.4-2.4-10 0-16.2 7.9-6.2 8-6.2 20.8 0 12.9 6.2 20.8Q18 56 28 56q6 0 10.4-2.4 4.3-2.3 7.1-7.2zM14.8 27.3q0-10 4-15.6Q23 6.2 30.2 6.2q7.1 0 11.2 5.7 4.1 5.6 4.1 15.5t-4.1 15.5q-4.1 5.7-11.2 5.7t-11.2-5.7q-4.1-5.6-4.1-15.5z" id="DejaVuSans-64"/><path d="M32.2-5q-3.8-9.8-7.5-12.8-3.6-3-9.6-3H7.9v7.5h5.3q3.7 0 5.7 1.8 2.1 1.7 4.6 8.3l1.6 4L3 54.8h9.5l17-42.8 17.2 42.8h9.5z" id="DejaVuSans-79"/><path d="M34.3 27.5q-11 0-15.1-2.5-4.2-2.5-4.2-8.5 0-4.8 3.1-7.6 3.2-2.8 8.6-2.8 7.5 0 12 5.3t4.5 14v2zm17.9 3.7V0h-9v8.3q-3-5-7.7-7.3Q31-1.4 24.3-1.4 16-1.4 11 3.3 6 8 6 15.9q0 9.2 6.2 14 6.2 4.6 18.4 4.6h12.6v1q0 6.1-4 9.5-4.1 3.4-11.5 3.4-4.7 0-9.2-1.1-4.4-1.2-8.5-3.4v8.3q5 2 9.6 2.8 4.6 1 9 1 11.9 0 17.7-6.2 5.9-6.1 5.9-18.6z" id="DejaVuSans-61"/><path d="M52 44.2q3.4 6 8 9Q64.9 56 71 56q8.6 0 13.3-6 4.6-6 4.6-17V0h-9v32.7q0 7.9-2.8 11.7-2.8 3.8-8.5 3.8-7 0-11-4.7-4-4.6-4-12.6V0h-9.1v32.7q0 8-2.8 11.7-2.8 3.8-8.6 3.8-6.9 0-11-4.7-4-4.6-4-12.6V0h-9v54.7h9v-8.5q3 5 7.4 7.4Q29.8 56 35.7 56q6 0 10.1-3 4.2-3 6.2-8.8z" id="DejaVuSans-6d"/></defs><g transform="matrix(.11 0 0 -.11 104.7 771.5)" fill="#262626"><use xlink:href="#DejaVuSans-50"/><use x="60.3" xlink:href="#DejaVuSans-65"/><use x="121.8" xlink:href="#DejaVuSans-72"/><use x="162.9" xlink:href="#DejaVuSans-63"/><use x="217.8" xlink:href="#DejaVuSans-65"/><use x="279.4" xlink:href="#DejaVuSans-6e"/><use x="342.7" xlink:href="#DejaVuSans-74"/><use x="382" xlink:href="#DejaVuSans-20"/><use x="413.7" xlink:href="#DejaVuSans-6f"/><use x="474.9" xlink:href="#DejaVuSans-66"/><use x="510.1" xlink:href="#DejaVuSans-20"/><use x="541.9" xlink:href="#DejaVuSans-53"/><use x="605.4" xlink:href="#DejaVuSans-68"/><use x="668.8" xlink:href="#DejaVuSans-6f"/><use x="730" xlink:href="#DejaVuSans-6f"/><use x="791.1" xlink:href="#DejaVuSans-74"/><use x="830.3" xlink:href="#DejaVuSans-69"/><use x="858.1" xlink:href="#DejaVuSans-6e"/><use x="921.5" xlink:href="#DejaVuSans-67"/><use x="985" xlink:href="#DejaVuSans-73"/><use x="1037.1" xlink:href="#DejaVuSans-20"/><use x="1068.9" xlink:href="#DejaVuSans-77"/><use x="1150.7" xlink:href="#DejaVuSans-69"/><use x="1178.4" xlink:href="#DejaVuSans-74"/><use x="1217.6" xlink:href="#DejaVuSans-68"/><use x="1281" xlink:href="#DejaVuSans-20"/><use x="1312.8" xlink:href="#DejaVuSans-62"/><use x="1376.3" xlink:href="#DejaVuSans-6f"/><use x="1437.5" xlink:href="#DejaVuSans-64"/><use x="1500.9" xlink:href="#DejaVuSans-79"/><use x="1560.1" xlink:href="#DejaVuSans-20"/><use x="1591.9" xlink:href="#DejaVuSans-63"/><use x="1646.9" xlink:href="#DejaVuSans-61"/><use x="1708.2" xlink:href="#DejaVuSans-6d"/><use x="1805.6" xlink:href="#DejaVuSans-65"/><use x="1867.1" xlink:href="#DejaVuSans-72"/><use x="1908.2" xlink:href="#DejaVuSans-61"/></g></g></g><g id="matplotlib.axis_2"><g id="ytick_1"><g id="text_8"><defs><path d="M28.6 0L.8 73H11l23-61.5L57.4 73h10.3L39.8 0z" id="DejaVuSans-56"/><path d="M-.3 73h61.7v-8.4H35.5V0h-10v64.6H-.2z" id="DejaVuSans-54"/></defs><g transform="matrix(.1 0 0 -.1 25.6 46.5)" fill="#262626"><use xlink:href="#DejaVuSans-56"/><use x="68.4" xlink:href="#DejaVuSans-54"/></g></g></g><g id="ytick_2"><g id="text_9"><defs><path d="M44.4 34.2q3.2-1 6.2-4.6 3-3.5 6-9.7L66.6 0H56l-9.3 18.7q-3.6 7.3-7 9.7-3.4 2.4-9.3 2.4H19.7V0H9.8v73h22.3q12.5 0 18.6-5.3Q57 62.5 57 51.9q0-6.9-3.2-11.4-3.2-4.6-9.3-6.3zM19.7 64.8V38.9H32q7.1 0 10.7 3.3 3.7 3.3 3.7 9.7 0 6.4-3.7 9.6-3.6 3.3-10.7 3.3z" id="DejaVuSans-52"/><path d="M9.8 73h9.9V0H9.8z" id="DejaVuSans-49"/></defs><g transform="matrix(.1 0 0 -.1 28.7 60.3)" fill="#262626"><use xlink:href="#DejaVuSans-52"/><use x="69.5" xlink:href="#DejaVuSans-49"/></g></g></g><g id="ytick_3"><g id="text_10"><defs><path d="M8.7 73h10V28.5q0-11.7 4.1-16.9 4.3-5.1 13.8-5.1t13.7 5.1q4.3 5.2 4.3 17v44.2h9.9V27.4q0-14.3-7-21.5-7.1-7.3-20.9-7.3-13.8 0-20.9 7.3-7 7.2-7 21.5z" id="DejaVuSans-55"/></defs><g transform="matrix(.1 0 0 -.1 25.1 74.2)" fill="#262626"><use xlink:href="#DejaVuSans-55"/><use x="73.2" xlink:href="#DejaVuSans-54"/></g></g></g><g id="ytick_4"><g id="text_11"><defs><path d="M9.8 73h14.7l18.6-49.7 18.7 49.6h14.7V0H67v64L48 14H38L19.5 64V0H9.8z" id="DejaVuSans-4d"/><path d="M19.7 64.8V8.1h11.9q15 0 22 6.8 7 6.9 7 21.6 0 14.7-7 21.5-7 6.8-22 6.8zm-9.9 8.1h20.3q21.2 0 31-8.8 10-8.8 10-27.6T61 8.8Q51.1 0 30.1 0H9.8z" id="DejaVuSans-44"/></defs><g transform="matrix(.1 0 0 -.1 22.2 88)" fill="#262626"><use xlink:href="#DejaVuSans-4d"/><use x="86.3" xlink:href="#DejaVuSans-44"/></g></g></g><g id="ytick_5"><g id="text_12"><defs><path d="M64.4 67.3V56.9q-5 4.6-10.6 7Q48 66 41.8 66q-12.5 0-19.1-7.6Q16 50.8 16 36.4q0-14.4 6.7-22 6.6-7.7 19.1-7.7 6.3 0 12 2.3 5.6 2.3 10.6 7V5.5q-5.2-3.5-11-5.3-5.7-1.7-12.2-1.7-16.5 0-26 10.1-9.6 10.1-9.6 27.7T15.1 64q9.6 10.1 26.1 10.1 6.5 0 12.3-1.7 5.8-1.8 11-5.2z" id="DejaVuSans-43"/></defs><g transform="matrix(.1 0 0 -.1 23.9 102)" fill="#262626"><use xlink:href="#DejaVuSans-44"/><use x="77" xlink:href="#DejaVuSans-43"/></g></g></g><g id="ytick_6"><g id="text_13"><defs><path d="M9.8 73h13.3l32.3-61v61H65V0H51.7L19.4 61V0H9.8z" id="DejaVuSans-4e"/></defs><g transform="matrix(.1 0 0 -.1 24.3 115.8)" fill="#262626"><use xlink:href="#DejaVuSans-4e"/><use x="74.8" xlink:href="#DejaVuSans-56"/></g></g></g><g id="ytick_7"><g id="text_14"><defs><path d="M34.2 63.2L20.8 26.9h26.8zm-5.6 9.7h11.2L67.6 0H57.3l-6.6 18.7H17.8L11.2 0H.8z" id="DejaVuSans-41"/></defs><g transform="matrix(.1 0 0 -.1 28.8 129.6)" fill="#262626"><use xlink:href="#DejaVuSans-49"/><use x="29.5" xlink:href="#DejaVuSans-41"/></g></g></g><g id="ytick_8"><g transform="matrix(.1 0 0 -.1 22.5 143.5)" fill="#262626" id="text_15"><use xlink:href="#DejaVuSans-4e"/><use x="74.8" xlink:href="#DejaVuSans-4d"/></g></g><g id="ytick_9"><g id="text_16"><defs><path d="M9.8 73H56v-8.4H19.7V43h34.7v-8.3H19.7V8.3h37V0H9.9z" id="DejaVuSans-45"/></defs><g transform="matrix(.1 0 0 -.1 24.6 157.3)" fill="#262626"><use xlink:href="#DejaVuSans-44"/><use x="77" xlink:href="#DejaVuSans-45"/></g></g></g><g id="ytick_10"><g id="text_17"><defs><path d="M9.8 73h9.9V8.2h35.5V0H9.8z" id="DejaVuSans-4c"/></defs><g transform="matrix(.1 0 0 -.1 26.2 171.2)" fill="#262626"><use xlink:href="#DejaVuSans-41"/><use x="68.4" xlink:href="#DejaVuSans-4c"/></g></g></g><g id="ytick_11"><g transform="matrix(.1 0 0 -.1 28 185)" fill="#262626" id="text_18"><use xlink:href="#DejaVuSans-49"/><use x="29.5" xlink:href="#DejaVuSans-44"/></g></g><g id="ytick_12"><g transform="matrix(.1 0 0 -.1 24.9 198.9)" fill="#262626" id="text_19"><use xlink:href="#DejaVuSans-56"/><use x="68.3" xlink:href="#DejaVuSans-41"/></g></g><g id="ytick_13"><g transform="matrix(.1 0 0 -.1 22.5 212.8)" fill="#262626" id="text_20"><use xlink:href="#DejaVuSans-4d"/><use x="86.3" xlink:href="#DejaVuSans-4e"/></g></g><g id="ytick_14"><g transform="matrix(.1 0 0 -.1 25.2 226.6)" fill="#262626" id="text_21"><use xlink:href="#DejaVuSans-53"/><use x="63.5" xlink:href="#DejaVuSans-43"/></g></g><g id="ytick_15"><g id="text_22"><defs><path d="M3.3 73h10l15.3-61.7L44 72.9h11l15.4-61.6 15.3 61.6h10L77.3 0H64.9L49.5 63.3 34 0H21.6z" id="DejaVuSans-57"/></defs><g transform="matrix(.1 0 0 -.1 25.7 240.5)" fill="#262626"><use xlink:href="#DejaVuSans-57"/><use x="98.9" xlink:href="#DejaVuSans-49"/></g></g></g><g id="ytick_16"><g transform="matrix(.1 0 0 -.1 24.1 254.3)" fill="#262626" id="text_23"><use xlink:href="#DejaVuSans-4e"/><use x="74.8" xlink:href="#DejaVuSans-43"/></g></g><g id="ytick_17"><g id="text_24"><defs><path d="M39.4 66.2q-10.7 0-17-8-6.4-8-6.4-21.8t6.3-21.8q6.4-8 17.1-8 10.7 0 17 8 6.3 8 6.3 21.8t-6.3 21.8q-6.3 8-17 8zm0 8Q54.7 74.2 64 64q9.2-10.2 9.2-27.5T63.9 8.9Q54.7-1.4 39.4-1.4 24-1.4 14.8 8.8 5.6 19.1 5.6 36.4t9.2 27.5Q24 74.2 39.4 74.2z" id="DejaVuSans-4f"/><path d="M9.8 73h9.9V42l32.7 31H65L28.9 39 67.7 0h-13l-35 35.1V0H9.8z" id="DejaVuSans-4b"/></defs><g transform="matrix(.1 0 0 -.1 24.1 268.2)" fill="#262626"><use xlink:href="#DejaVuSans-4f"/><use x="78.7" xlink:href="#DejaVuSans-4b"/></g></g></g><g id="ytick_18"><g transform="matrix(.1 0 0 -.1 28.1 282)" fill="#262626" id="text_25"><use xlink:href="#DejaVuSans-49"/><use x="29.5" xlink:href="#DejaVuSans-4e"/></g></g><g id="ytick_19"><g id="text_26"><defs><path d="M9.8 73h9.9V43h35.8v30h9.9V0h-9.9v34.7H19.7V0H9.8z" id="DejaVuSans-48"/></defs><g transform="matrix(.1 0 0 -.1 23.6 295.9)" fill="#262626"><use xlink:href="#DejaVuSans-4e"/><use x="74.8" xlink:href="#DejaVuSans-48"/></g></g></g><g id="ytick_20"><g id="text_27"><defs><path d="M5.6 73H63v-7.6L16.8 8.3H64V0H4.5v7.5l46 57H5.7z" id="DejaVuSans-5a"/></defs><g transform="matrix(.1 0 0 -.1 24.9 309.8)" fill="#262626"><use xlink:href="#DejaVuSans-41"/><use x="68.4" xlink:href="#DejaVuSans-5a"/></g></g></g><g id="ytick_21"><g transform="matrix(.1 0 0 -.1 26.2 323.6)" fill="#262626" id="text_28"><use xlink:href="#DejaVuSans-4c"/><use x="55.7" xlink:href="#DejaVuSans-41"/></g></g><g id="ytick_22"><g transform="matrix(.1 0 0 -.1 24.8 337.5)" fill="#262626" id="text_29"><use xlink:href="#DejaVuSans-43"/><use x="69.8" xlink:href="#DejaVuSans-41"/></g></g><g id="ytick_23"><g id="text_30"><defs><path d="M-.2 73h10.6l20.2-30 20 30h10.7L35.5 34.6V0h-10v34.7z" id="DejaVuSans-59"/></defs><g transform="matrix(.1 0 0 -.1 26 351.3)" fill="#262626"><use xlink:href="#DejaVuSans-4b"/><use x="65.5" xlink:href="#DejaVuSans-59"/></g></g></g><g id="ytick_24"><g transform="matrix(.1 0 0 -.1 23.8 365.2)" fill="#262626" id="text_31"><use xlink:href="#DejaVuSans-4d"/><use x="86.3" xlink:href="#DejaVuSans-54"/></g></g><g id="ytick_25"><g transform="matrix(.1 0 0 -.1 25 379)" fill="#262626" id="text_32"><use xlink:href="#DejaVuSans-54"/><use x="61.1" xlink:href="#DejaVuSans-4e"/></g></g><g id="ytick_26"><g id="text_33"><defs><path d="M59.5 10.4V30h-16v8h25.8V6.9q-5.7-4-12.6-6.1Q49.8-1.4 42-1.4q-17 0-26.8 10-9.6 10-9.6 27.8 0 17.9 9.7 27.8 9.6 10 26.7 10 7.1 0 13.5-1.7 6.5-1.8 11.9-5.2V56.8q-5.5 4.6-11.6 7-6.2 2.3-13 2.3-13.4 0-20-7.5Q16 51.2 16 36.4q0-14.8 6.7-22.2 6.7-7.5 20.1-7.5 5.2 0 9.3.9 4.1.9 7.4 2.8z" id="DejaVuSans-47"/></defs><g transform="matrix(.1 0 0 -.1 24 392.9)" fill="#262626"><use xlink:href="#DejaVuSans-47"/><use x="77.5" xlink:href="#DejaVuSans-41"/></g></g></g><g id="ytick_27"><g transform="matrix(.1 0 0 -.1 23.7 406.8)" fill="#262626" id="text_34"><use xlink:href="#DejaVuSans-43"/><use x="69.8" xlink:href="#DejaVuSans-4f"/></g></g><g id="ytick_28"><g transform="matrix(.1 0 0 -.1 27 420.6)" fill="#262626" id="text_35"><use xlink:href="#DejaVuSans-4d"/><use x="86.3" xlink:href="#DejaVuSans-49"/></g></g><g id="ytick_29"><g transform="matrix(.1 0 0 -.1 30 434.5)" fill="#262626" id="text_36"><use xlink:href="#DejaVuSans-49"/><use x="29.5" xlink:href="#DejaVuSans-4c"/></g></g><g id="ytick_30"><g transform="matrix(.1 0 0 -.1 25.7 448.3)" fill="#262626" id="text_37"><use xlink:href="#DejaVuSans-4b"/><use x="65.6" xlink:href="#DejaVuSans-53"/></g></g><g id="ytick_31"><g transform="matrix(.1 0 0 -.1 25.2 462.2)" fill="#262626" id="text_38"><use xlink:href="#DejaVuSans-41"/><use x="68.4" xlink:href="#DejaVuSans-4b"/></g></g><g id="ytick_32"><g transform="matrix(.1 0 0 -.1 24.5 476)" fill="#262626" id="text_39"><use xlink:href="#DejaVuSans-53"/><use x="63.5" xlink:href="#DejaVuSans-44"/></g></g><g id="ytick_33"><g transform="matrix(.1 0 0 -.1 21.9 489.9)" fill="#262626" id="text_40"><use xlink:href="#DejaVuSans-57"/><use x="98.8" xlink:href="#DejaVuSans-41"/></g></g><g id="ytick_34"><g transform="matrix(.1 0 0 -.1 21.8 503.7)" fill="#262626" id="text_41"><use xlink:href="#DejaVuSans-57"/><use x="98.9" xlink:href="#DejaVuSans-56"/></g></g><g id="ytick_35"><g id="text_42"><defs><path d="M6.3 73h10.6L35 45.7l18.2 27.1h10.6L40.4 38 65.4 0H54.8L34.3 31 13.6 0H3l26 39z" id="DejaVuSans-58"/></defs><g transform="matrix(.1 0 0 -.1 25.6 517.6)" fill="#262626"><use xlink:href="#DejaVuSans-54"/><use x="61.1" xlink:href="#DejaVuSans-58"/></g></g></g><g id="ytick_36"><g transform="matrix(.1 0 0 -.1 25 531.5)" fill="#262626" id="text_43"><use xlink:href="#DejaVuSans-4e"/><use x="74.8" xlink:href="#DejaVuSans-59"/></g></g><g id="ytick_37"><g transform="matrix(.1 0 0 -.1 24.8 545.3)" fill="#262626" id="text_44"><use xlink:href="#DejaVuSans-4e"/><use x="74.8" xlink:href="#DejaVuSans-45"/></g></g><g id="ytick_38"><g transform="matrix(.1 0 0 -.1 23.2 559.2)" fill="#262626" id="text_45"><use xlink:href="#DejaVuSans-4f"/><use x="78.7" xlink:href="#DejaVuSans-48"/></g></g><g id="ytick_39"><g transform="matrix(.1 0 0 -.1 23.6 573)" fill="#262626" id="text_46"><use xlink:href="#DejaVuSans-4d"/><use x="86.3" xlink:href="#DejaVuSans-53"/></g></g><g id="ytick_40"><g id="text_47"><defs><path d="M9.8 73h41.9v-8.4h-32V43h28.9v-8.3h-29V0H9.9z" id="DejaVuSans-46"/></defs><g transform="matrix(.1 0 0 -.1 27.3 586.9)" fill="#262626"><use xlink:href="#DejaVuSans-46"/><use x="57.5" xlink:href="#DejaVuSans-4c"/></g></g></g><g id="ytick_41"><g transform="matrix(.1 0 0 -.1 24.8 600.7)" fill="#262626" id="text_48"><use xlink:href="#DejaVuSans-41"/><use x="68.4" xlink:href="#DejaVuSans-52"/></g></g><g id="ytick_42"><g transform="matrix(.1 0 0 -.1 22 614.6)" fill="#262626" id="text_49"><use xlink:href="#DejaVuSans-4d"/><use x="86.3" xlink:href="#DejaVuSans-4f"/></g></g><g id="ytick_43"><g id="text_50"><defs><path d="M9.8 73h9.9V5q0-13.1-5-19-5-6-16.1-6h-3.8v8.3H-2q6.5 0 9.2 3.7Q9.8-4.4 9.8 5z" id="DejaVuSans-4a"/></defs><g transform="matrix(.1 0 0 -.1 28.1 628.5)" fill="#262626"><use xlink:href="#DejaVuSans-4e"/><use x="74.8" xlink:href="#DejaVuSans-4a"/></g></g></g><g id="ytick_44"><g transform="matrix(.1 0 0 -.1 23.8 642.3)" fill="#262626" id="text_51"><use xlink:href="#DejaVuSans-4f"/><use x="78.7" xlink:href="#DejaVuSans-52"/></g></g><g id="ytick_45"><g transform="matrix(.1 0 0 -.1 28.1 656.2)" fill="#262626" id="text_52"><use xlink:href="#DejaVuSans-48"/><use x="75.2" xlink:href="#DejaVuSans-49"/></g></g><g id="ytick_46"><g transform="matrix(.1 0 0 -.1 23.1 670)" fill="#262626" id="text_53"><use xlink:href="#DejaVuSans-4d"/><use x="86.3" xlink:href="#DejaVuSans-41"/></g></g><g id="ytick_47"><g transform="matrix(.1 0 0 -.1 23.6 683.9)" fill="#262626" id="text_54"><use xlink:href="#DejaVuSans-4d"/><use x="86.3" xlink:href="#DejaVuSans-45"/></g></g><g id="ytick_48"><g transform="matrix(.1 0 0 -.1 25.5 697.7)" fill="#262626" id="text_55"><use xlink:href="#DejaVuSans-43"/><use x="69.8" xlink:href="#DejaVuSans-54"/></g></g><g id="ytick_49"><g transform="matrix(.1 0 0 -.1 23.4 711.6)" fill="#262626" id="text_56"><use xlink:href="#DejaVuSans-4e"/><use x="74.8" xlink:href="#DejaVuSans-44"/></g></g><g id="ytick_50"><g transform="matrix(.1 0 0 -.1 25.7 725.5)" fill="#262626" id="text_57"><use xlink:href="#DejaVuSans-50"/><use x="60.2" xlink:href="#DejaVuSans-41"/></g></g><g id="ytick_51"><g transform="matrix(.1 0 0 -.1 22.6 739.3)" fill="#262626" id="text_58"><use xlink:href="#DejaVuSans-57"/><use x="98.9" xlink:href="#DejaVuSans-59"/></g></g><g transform="matrix(0 -.11 -.11 0 15.6 403)" fill="#262626" id="text_59"><use xlink:href="#DejaVuSans-73"/><use x="52.1" xlink:href="#DejaVuSans-74"/><use x="91.3" xlink:href="#DejaVuSans-61"/><use x="152.6" xlink:href="#DejaVuSans-74"/><use x="191.8" xlink:href="#DejaVuSans-65"/></g></g><path clip-path="url(#p44c759a44c)" d="M45.6 37.1H213v11.1H45.6z" fill="#ea96a3" id="patch_3"/><path clip-path="url(#p44c759a44c)" d="M45.6 51h111.6v11H45.6z" fill="#ea979a" id="patch_4"/><path clip-path="url(#p44c759a44c)" d="M45.6 64.9H147v11H45.6z" fill="#e9978c" id="patch_5"/><path clip-path="url(#p44c759a44c)" d="M45.6 78.7h83.7v11.1H45.6z" fill="#e6957a" id="patch_6"/><path clip-path="url(#p44c759a44c)" d="M45.6 92.6h83.7v11H45.6z" fill="#e2925e" id="patch_7"/><path clip-path="url(#p44c759a44c)" d="M45.6 106.4h76.3v11.1H45.6z" fill="#d8944e" id="patch_8"/><path clip-path="url(#p44c759a44c)" d="M45.6 120.3H116v11H45.6z" fill="#ce974c" id="patch_9"/><path clip-path="url(#p44c759a44c)" d="M45.6 134.1h67v11.1h-67z" fill="#c5994b" id="patch_10"/><path clip-path="url(#p44c759a44c)" d="M45.6 148h67v11h-67z" fill="#bc9b4a" id="patch_11"/><path clip-path="url(#p44c759a44c)" d="M45.6 161.8h59.6V173H45.6z" fill="#b59c49" id="patch_12"/><path clip-path="url(#p44c759a44c)" d="M45.6 175.7h57.7v11H45.6z" fill="#ad9e47" id="patch_13"/><path clip-path="url(#p44c759a44c)" d="M45.6 189.6h55v11h-55z" fill="#a59f46" id="patch_14"/><path clip-path="url(#p44c759a44c)" d="M45.6 203.4H97v11.1H45.6z" fill="#9da045" id="patch_15"/><path clip-path="url(#p44c759a44c)" d="M45.6 217.3H97v11H45.6z" fill="#96a346" id="patch_16"/><path clip-path="url(#p44c759a44c)" d="M45.6 231.1h51v11.1h-51z" fill="#8da546" id="patch_17"/><path clip-path="url(#p44c759a44c)" d="M45.6 245h51v11h-51z" fill="#83a846" id="patch_18"/><path clip-path="url(#p44c759a44c)" d="M45.6 258.8h45V270h-45z" fill="#75ab47" id="patch_19"/><path clip-path="url(#p44c759a44c)" d="M45.6 272.7h43.2v11H45.6z" fill="#60ae47" id="patch_20"/><path clip-path="url(#p44c759a44c)" d="M45.6 286.6h41.8v11H45.6z" fill="#48b058" id="patch_21"/><path clip-path="url(#p44c759a44c)" d="M45.6 300.4h41.3v11.1H45.6z" fill="#48af70" id="patch_22"/><path clip-path="url(#p44c759a44c)" d="M45.6 314.3h40.2v11H45.6z" fill="#49ae7e" id="patch_23"/><path clip-path="url(#p44c759a44c)" d="M45.6 328.1h39.3v11.1H45.6z" fill="#49ae88" id="patch_24"/><path clip-path="url(#p44c759a44c)" d="M45.6 342h36.6v11H45.6z" fill="#4aad90" id="patch_25"/><path clip-path="url(#p44c759a44c)" d="M45.6 355.8h35.2V367H45.6z" fill="#4aac97" id="patch_26"/><path clip-path="url(#p44c759a44c)" d="M45.6 369.7h34.3v11H45.6z" fill="#4bac9c" id="patch_27"/><path clip-path="url(#p44c759a44c)" d="M45.6 383.6h33.2v11H45.6z" fill="#4baba2" id="patch_28"/><path clip-path="url(#p44c759a44c)" d="M45.6 397.4h32v11h-32z" fill="#4baba7" id="patch_29"/><path clip-path="url(#p44c759a44c)" d="M45.6 411.3h29.9v11h-30z" fill="#4cabac" id="patch_30"/><path clip-path="url(#p44c759a44c)" d="M45.6 425.1h29.6v11.1H45.6z" fill="#4dabb1" id="patch_31"/><path clip-path="url(#p44c759a44c)" d="M45.6 439H75v11H45.6z" fill="#4eabb8" id="patch_32"/><path clip-path="url(#p44c759a44c)" d="M45.6 452.8h29V464h-29z" fill="#50acbe" id="patch_33"/><path clip-path="url(#p44c759a44c)" d="M45.6 466.7h27.9v11h-28z" fill="#51acc6" id="patch_34"/><path clip-path="url(#p44c759a44c)" d="M45.6 480.5h27.2v11.1H45.6z" fill="#53acce" id="patch_35"/><path clip-path="url(#p44c759a44c)" d="M45.6 494.4h27.1v11H45.6z" fill="#56acd9" id="patch_36"/><path clip-path="url(#p44c759a44c)" d="M45.6 508.3h26.2v11H45.6z" fill="#6daee2" id="patch_37"/><path clip-path="url(#p44c759a44c)" d="M45.6 522.1h22.7v11.1H45.6z" fill="#87aee6" id="patch_38"/><path clip-path="url(#p44c759a44c)" d="M45.6 536h22.3v11H45.6z" fill="#99ade9" id="patch_39"/><path clip-path="url(#p44c759a44c)" d="M45.6 549.8h21.9V561h-22z" fill="#a8aceb" id="patch_40"/><path clip-path="url(#p44c759a44c)" d="M45.6 563.7h16.7v11H45.6z" fill="#b3a9eb" id="patch_41"/><path clip-path="url(#p44c759a44c)" d="M45.6 577.5H60v11.1H45.6z" fill="#bda4ea" id="patch_42"/><path clip-path="url(#p44c759a44c)" d="M45.6 591.4h8.1v11h-8.1z" fill="#c7a0ea" id="patch_43"/><path clip-path="url(#p44c759a44c)" d="M45.6 605.3H53v11h-7.4z" fill="#d09ae9" id="patch_44"/><path clip-path="url(#p44c759a44c)" d="M45.6 619.1H53v11.1h-7.4z" fill="#da93e8" id="patch_45"/><path clip-path="url(#p44c759a44c)" d="M45.6 633H52v11h-6.5z" fill="#e48ae6" id="patch_46"/><path clip-path="url(#p44c759a44c)" d="M45.6 646.8V658z" fill="#e78bdd" id="patch_47"/><path clip-path="url(#p44c759a44c)" d="M45.6 660.7v11z" fill="#e78dd4" id="patch_48"/><path clip-path="url(#p44c759a44c)" d="M45.6 674.5v11.1z" fill="#e88fcc" id="patch_49"/><path clip-path="url(#p44c759a44c)" d="M45.6 688.4v11z" fill="#e890c4" id="patch_50"/><path clip-path="url(#p44c759a44c)" d="M45.6 702.3v11z" fill="#e992bc" id="patch_51"/><path clip-path="url(#p44c759a44c)" d="M45.6 716.1v11z" fill="#e993b5" id="patch_52"/><path clip-path="url(#p44c759a44c)" d="M45.6 730v11z" fill="#e994ad" id="patch_53"/><path d="M45.6 742.4V35.8" fill="none" id="patch_54"/><path d="M380.4 742.4V35.8" fill="none" id="patch_55"/><path d="M45.6 742.4h334.8" fill="none" id="patch_56"/><path d="M45.6 35.8h334.8" fill="none" id="patch_57"/><g id="text_60"><defs><path d="M9.4 76h9V0h-9z" id="DejaVuSans-6c"/></defs><g transform="matrix(.12 0 0 -.12 139.6 16.3)" fill="#262626"><use xlink:href="#DejaVuSans-50"/><use x="60.3" xlink:href="#DejaVuSans-65"/><use x="121.8" xlink:href="#DejaVuSans-72"/><use x="162.9" xlink:href="#DejaVuSans-63"/><use x="217.8" xlink:href="#DejaVuSans-65"/><use x="279.4" xlink:href="#DejaVuSans-6e"/><use x="342.7" xlink:href="#DejaVuSans-74"/><use x="382" xlink:href="#DejaVuSans-20"/><use x="413.7" xlink:href="#DejaVuSans-6f"/><use x="474.9" xlink:href="#DejaVuSans-66"/><use x="510.1" xlink:href="#DejaVuSans-20"/><use x="541.9" xlink:href="#DejaVuSans-50"/><use x="602.2" xlink:href="#DejaVuSans-6f"/><use x="663.4" xlink:href="#DejaVuSans-6c"/><use x="691.1" xlink:href="#DejaVuSans-69"/><use x="718.9" xlink:href="#DejaVuSans-63"/><use x="773.9" xlink:href="#DejaVuSans-65"/><use x="835.4" xlink:href="#DejaVuSans-20"/><use x="867.2" xlink:href="#DejaVuSans-4b"/><use x="932.8" xlink:href="#DejaVuSans-69"/><use x="960.6" xlink:href="#DejaVuSans-6c"/><use x="988.4" xlink:href="#DejaVuSans-6c"/><use x="1016.1" xlink:href="#DejaVuSans-69"/><use x="1043.9" xlink:href="#DejaVuSans-6e"/><use x="1107.3" xlink:href="#DejaVuSans-67"/><use x="1170.8" xlink:href="#DejaVuSans-73"/></g><defs><path d="M11.7 12.4H22V4l-8-15.6H7.7l4 15.6z" id="DejaVuSans-2c"/></defs><g transform="matrix(.12 0 0 -.12 130 29.8)" fill="#262626"><use xlink:href="#DejaVuSans-77"/><use x="81.8" xlink:href="#DejaVuSans-69"/><use x="109.6" xlink:href="#DejaVuSans-74"/><use x="148.8" xlink:href="#DejaVuSans-68"/><use x="212.2" xlink:href="#DejaVuSans-20"/><use x="243.9" xlink:href="#DejaVuSans-62"/><use x="307.4" xlink:href="#DejaVuSans-6f"/><use x="368.6" xlink:href="#DejaVuSans-64"/><use x="432.1" xlink:href="#DejaVuSans-79"/><use x="491.3" xlink:href="#DejaVuSans-20"/><use x="523" xlink:href="#DejaVuSans-63"/><use x="578" xlink:href="#DejaVuSans-61"/><use x="639.3" xlink:href="#DejaVuSans-6d"/><use x="736.7" xlink:href="#DejaVuSans-65"/><use x="798.2" xlink:href="#DejaVuSans-72"/><use x="839.4" xlink:href="#DejaVuSans-61"/><use x="900.6" xlink:href="#DejaVuSans-2c"/><use x="932.4" xlink:href="#DejaVuSans-20"/><use x="964.2" xlink:href="#DejaVuSans-62"/><use x="1027.7" xlink:href="#DejaVuSans-79"/><use x="1086.9" xlink:href="#DejaVuSans-20"/><use x="1118.7" xlink:href="#DejaVuSans-53"/><use x="1182.1" xlink:href="#DejaVuSans-74"/><use x="1221.3" xlink:href="#DejaVuSans-61"/><use x="1282.6" xlink:href="#DejaVuSans-74"/><use x="1321.8" xlink:href="#DejaVuSans-65"/></g></g></g></g><defs><clipPath id="p44c759a44c"><path d="M45.6 35.8h334.8v706.7H45.6z"/></clipPath></defs></svg>