<svg xmlns="http://www.w3.org/2000/svg" xmlns:xlink="http://www.w3.org/1999/xlink" viewBox="0 0 538.7 669.3" version="1.2"><defs><symbol overflow="visible" id="a"><path d="M.5-8.2v.4h.3c.8 0 .9.1.9.5v6.4c0 .4 0 .6-1 .6H.6V0H5c1.5 0 2.6-1 2.6-2.2 0-1-.8-2-2.3-2 1.2-.3 2-1 2-2s-1-2-2.6-2zm2 3.8v-3c0-.3 0-.4.6-.4h1.5c1.2 0 1.6 1 1.6 1.7s-.6 1.7-1.9 1.7zm.6 4c-.5 0-.5 0-.5-.4v-3.3h2.2c1.1 0 1.7 1 1.7 1.9 0 1-.7 1.9-1.9 1.9zm0 0"/></symbol><symbol overflow="visible" id="s"><path d="M7.8-2.4c0-.4 0-.5.8-.5v-.3H5.4v.3h.3c1 0 1.1.1 1.1.6v.8C6.8-.2 5.3-.1 5-.1 4 0 1.7-.7 1.7-4S4-8 5-8c1 0 2.2.8 2.6 2.9l.1.2c.2 0 .2 0 .2-.3v-2.8l-.1-.3-.2.1-.6 1c-.3-.5-1-1.1-2.2-1.1-2.2 0-4 1.9-4 4.3C.6-1.6 2.4.2 4.6.2 5.6.3 6.5 0 7-.8c.2.4.6.8.7.8v-.3zm0 0"/></symbol><symbol overflow="visible" id="q"><path d="M8.6-3c0-1 0-1.3-.3-1.7-.3-.5-1-.6-1.3-.6-1 0-1.5.8-1.7 1.2-.2-1-.8-1.2-1.6-1.2-1.1 0-1.6 1-1.7 1.3v-1.3L.4-5v.3c.8 0 .9.1.9.7V-1c0 .6-.1.6-1 .6V0H3v-.3c-.8 0-1 0-1-.6V-3c0-1.3.9-2 1.6-2 .8 0 1 .7 1 1.4v2.8c0 .6-.2.6-1 .6V0h2.6v-.3c-.7 0-.9 0-.9-.6V-3c0-1.3.8-2 1.6-2 .7 0 .9.7.9 1.4v2.8c0 .6-.1.6-1 .6V0h2.7v-.3c-.6 0-1 0-1-.4zm0 0"/></symbol><symbol overflow="visible" id="e"><path d="M3.9 3l-.2-.4C2.5 1.4 1.8-.5 1.8-3c0-2.3.6-4.3 2-5.7v-.2A5 5 0 002-7a8.6 8.6 0 00-1 4c0 1 .2 2.4.9 3.7C2.7 2.2 3.6 3 3.8 3zm0 0"/></symbol><symbol overflow="visible" id="h"><path d="M5.3-2H5c0 .2-.1.9-.3 1 0 .2-.7.2-1 .2H1.3l1.4-1.4c1.8-1.6 2.5-2.3 2.5-3.5C5.3-7 4.2-8 2.8-8A2.2 2.2 0 00.6-5.7c0 .6.5.6.5.6.3 0 .6-.2.6-.6 0-.3-.2-.5-.6-.5H1c.2-.8.9-1.4 1.6-1.4 1 0 1.7.8 1.7 2 0 1-.6 1.8-1.3 2.6L.6-.3V0H5zm0 0"/></symbol><symbol overflow="visible" id="r"><path d="M5.4-3.8c0-1-.1-2-.5-2.9a2.1 2.1 0 00-4 0C.6-5.8.5-5 .5-3.7c0 1.1 0 2 .5 2.9C1.5 0 2.3.2 3 .2 4 .3 4.4-.3 5-1c.3-.9.4-2 .4-2.7zM2.9 0c-.4 0-1.1-.2-1.4-1.5V-4v-2.5c.3-.8 1-1.2 1.4-1.2.5 0 1.2.3 1.4 1.3.2.7.2 1.6.2 2.4 0 .8 0 1.7-.2 2.5C4.1-.2 3.3 0 3 0zm0 0"/></symbol><symbol overflow="visible" id="j"><path d="M3.4-3c0-.9-.1-2.4-.8-3.8A5.2 5.2 0 00.8-9l-.1.1.2.3C2-7.4 2.7-5.4 2.7-3c0 2.3-.5 4.3-2 5.7V3a5 5 0 001.8-2c.6-1.3.9-2.5.9-4zm0 0"/></symbol><symbol overflow="visible" id="k"><path d="M7.1-7.3c0-.4 0-.5 1-.5h.2v-.4H5v.4h.3c.8 0 .9.1.9.5v2.9H2.6v-2.8c0-.5 0-.6.9-.6h.2v-.4H.5v.4h.2c.9 0 1 .1 1 .5v6.4c0 .4-.1.6-1 .6H.5V0h3.2v-.3h-.2c-.9 0-1-.2-1-.6v-3.2h3.7v3.2c0 .4 0 .6-1 .6H5V0h3.3v-.3H8c-.8 0-.9-.2-.9-.6zm0 0"/></symbol><symbol overflow="visible" id="l"><path d="M2-8.3l-1.6.1v.4c.8 0 .9 0 .9.7V-1c0 .6-.1.6-1 .6V0H3v-.3c-.8 0-1 0-1-.6zm0 0"/></symbol><symbol overflow="visible" id="m"><path d="M2-4.8h1.4v-.4H2v-1.3c0-1.1.6-1.7 1-1.7l.5.1S3-8 3-7.6c0 .3.2.5.5.5s.5-.2.5-.5c0-.5-.4-.8-1-.8-.9 0-1.8.6-1.8 1.9v1.3h-1v.4h1v4c0 .5-.1.5-1 .5V0h2.9v-.3H3C2-.3 2-.5 2-1zm0 0"/></symbol><symbol overflow="visible" id="n"><path d="M2.7-8c-.1-.2-.1-.2-.4-.2H.5v.4h1.1v6.5c0 .4 0 1-1.1 1V0H3v-.3c-1 0-1-.6-1-1v-6.2l.1.2L6.8-.2c0 .2.1.2.2.2h.1v-7c0-.3 0-.8 1.2-.8v-.4H5.7v.4c1.1 0 1.1.5 1.1.9v5.2zm0 0"/></symbol><symbol overflow="visible" id="o"><path d="M5.5-2.6c0-1.5-1.2-2.7-2.6-2.7C1.5-5.3.4-4.1.4-2.6.4-1 1.5.1 2.9.1S5.5-1 5.5-2.6zM2.9 0c-.4 0-1-.2-1.3-.8-.3-.6-.3-1.3-.3-1.8 0-.4 0-1.1.3-1.7C2-4.9 2.5-5 3-5c.5 0 1 .2 1.3.7.4.5.4 1.3.4 1.7 0 .5 0 1.2-.3 1.8-.4.5-1 .8-1.4.8zm0 0"/></symbol><symbol overflow="visible" id="p"><path d="M2-2.8C2-3.9 2.5-5 3.4-5h.2c-.1 0-.3 0-.3.4s.2.5.4.5c.3 0 .5-.2.5-.5s-.3-.7-.8-.7C2.4-5.3 2-4.2 2-3.9v-1.4L.2-5v.3c.8 0 1 .1 1 .7V-1c0 .6-.2.6-1 .6V0h2.8v-.3H3C2-.3 2-.5 2-1zm0 0"/></symbol><symbol overflow="visible" id="f"><path d="M3.4-7.7c0-.2 0-.3-.2-.3-.3.4-.9.8-2.1.8v.4c.3 0 .9 0 1.5-.3V-1c0 .4 0 .6-1 .6h-.4V0H5v-.3h-.5c-1 0-1-.2-1-.6zm0 0"/></symbol><symbol overflow="visible" id="x"><path d="M6.8-3h-.3C6.5-2 6.3-.4 4.2-.4h-1c-.6 0-.6-.1-.6-.5v-6.5c0-.4 0-.5 1-.5H4v-.4H.5v.4h.2c.9 0 1 .1 1 .5v6.4c0 .4-.1.6-1 .6H.5V0h6zm0 0"/></symbol><symbol overflow="visible" id="y"><path d="M1.4-2.2c.6.4 1 .4 1.2.4 1 0 1.9-.8 1.9-1.7 0-.3-.1-.8-.5-1.2.5-.5 1-.5 1-.5h.2l-.1.4c0 .1 0 .3.3.3 0 0 .3 0 .3-.4 0-.2-.2-.5-.6-.5-.6 0-1.1.4-1.3.6a2 2 0 00-1.2-.5c-1 0-1.9.8-1.9 1.8 0 .6.4 1 .6 1.2-.2.2-.4.5-.4 1 0 .7.4 1 .5 1C1 0 .4.3.4 1c0 .9 1 1.6 2.5 1.6 1.4 0 2.6-.7 2.6-1.6 0-.3 0-1-.8-1.4-.6-.3-1.2-.3-2.2-.3-.8 0-.8 0-1-.2a1 1 0 01-.3-.6l.2-.6zm1.2.2c-1 0-1-1.3-1-1.5l.1-1c.3-.4.6-.5.9-.5 1 0 1 1.2 1 1.5 0 .2 0 .7-.2 1a1 1 0 01-.8.5zM3 2.2c-1.1 0-2-.6-2-1.3 0 0 0-.5.5-.8.3-.2.4-.2 1.2-.2 1 0 2.3 0 2.3 1 0 .7-.9 1.3-2 1.3zm0 0"/></symbol><symbol overflow="visible" id="d"><path d="M4.6-3.2c0-.6 0-1.1-.5-1.6-.4-.4-1-.5-1.5-.5-1 0-1.7.6-1.7 1.4 0 .3.2.5.5.5s.5-.2.5-.5c0-.5-.5-.5-.6-.5.2-.5.8-.7 1.3-.7s1.2.5 1.2 1.5v.5C1.4-3 .5-2 .5-1S1.6 0 2.4 0c.7 0 1.3-.5 1.5-1 0 .5.4 1 1 1 .2 0 .9-.2.9-1.2v-.6h-.3v.6c0 .7-.3.8-.4.8-.5 0-.5-.6-.5-.8zm-.8 1.5C3.8-.5 3 0 2.5 0c-.6 0-1.1-.4-1.1-1 0-1.6 2-1.7 2.4-1.8zm0 0"/></symbol><symbol overflow="visible" id="b"><path d="M4.6-2.8c.2 0 .3 0 .3-.2 0-1.2-.7-2.3-2.1-2.3C1.4-5.3.4-4.1.4-2.6.4-1 1.6 0 2.9 0a2 2 0 002-1.5l-.2-.1h-.1C4.3-.4 3.5 0 3 0S1.3-.5 1.3-2.5v-.3zM1.3-3c0-1.9 1.1-2 1.5-2C4-5 4-3.5 4-3zm0 0"/></symbol><symbol overflow="visible" id="c"><path d="M2-4.8h1.7v-.4H2v-2.1h-.3c0 1-.4 2.2-1.5 2.3v.2h1v3.3C1.2-.2 2.2.1 2.8.1c.7 0 1-.7 1-1.6v-.7h-.2v.7c0 .9-.3 1.4-.8 1.4C2-.1 2-1.2 2-1.5zm0 0"/></symbol><symbol overflow="visible" id="z"><path d="M2-7.4c0-.3-.2-.6-.5-.6s-.6.3-.6.6c0 .4.3.6.6.6.4 0 .6-.3.6-.6zM.5-5v.3c.8 0 .9 0 .9.7V-1c0 .6-.1.6-1 .6V0H3v-.3C2-.3 2-.4 2-1v-4.4zm0 0"/></symbol><symbol overflow="visible" id="i"><path d="M2.3 0c0-.6-.2-1.2-.7-1.2-.4 0-.6.4-.6.6 0 .3.2.6.6.6.2 0 .3 0 .4-.2V0a3 3 0 01-.7 2l-.1.2.1.1c.1 0 1-.9 1-2.3zm0 0"/></symbol><symbol overflow="visible" id="g"><path d="M2.2-.6c0-.3-.3-.6-.6-.6S1-.9 1-.6c0 .4.3.6.6.6.4 0 .6-.3.6-.6zm0 0"/></symbol><symbol overflow="visible" id="t"><path d="M5.1-8.2v-.1c-.2 0-.2 0-.2.2l-.7 2.6v.2H4C2-5 .6-3.5.6-2c0 1.3 1 2 2.2 2.1l-.3 1.2-.2 1v.1h.2l.1-.5.5-1.8C5 .1 6.7-1.6 6.7-3c0-1.2-1-2.1-2.3-2.2zM4.4-5c.8 0 1.5.5 1.5 1.7C6-2 5-.3 3.1 0zM2.9 0c-.6 0-1.6-.3-1.6-1.6 0-1.6 1-3.2 2.8-3.3zm0 0"/></symbol><symbol overflow="visible" id="w"><path d="M5.3-6c0-1.2-.4-2.4-1.4-2.4C2.3-8.4.5-5 .5-2.3.5-1.7.5.1 1.9.1 3.5.1 5.3-3.3 5.3-6zM1.7-4.3C1.9-5 2-6 2.6-7c.4-.7.8-1.3 1.3-1.3.4 0 .7.4.7 1.5 0 .4 0 1-.4 2.4zM4-4c-.3 1.2-.5 2-1 2.7C2.8-.7 2.4-.1 2-.1c-.4 0-.7-.3-.7-1.5 0-.8.2-1.6.4-2.4zm0 0"/></symbol><symbol overflow="visible" id="G"><path d="M8.6-4l-.1-.4s-.2.1-.2.3c0 1.2-.8 1.8-1.7 1.8-.7 0-1.3-.5-1.9-1-.6-.5-1.2-1-2-1-1.3 0-2 1.2-2 2.3l.1.4c.2 0 .2-.2.2-.3 0-1.3 1-1.8 1.7-1.8s1.3.5 1.9 1c.6.6 1.2 1.1 2 1.1 1.3 0 2-1.3 2-2.4zm0 0"/></symbol><symbol overflow="visible" id="u"><path d="M1.6-1.3l.1-.5.1-.4.6-.8.8-.3c.3 0 .5.2.5.5l-.2.8-.2 1-.1.4-.1.4c0 .2.1.3.2.3.2 0 .3-.1.3-.2l.2-.5.1-.7.2-.5c0-.5 0-.5.3-.7.2-.4.6-.8 1.1-.8.3 0 .5.2.5.5 0 .5-.3 1.4-.5 1.8v.4c0 .5.3.7.6.7C7 0 7.2-1 7.2-1.1v-.1H7c-.2.7-.5 1-.9 1L6-.3V-1c.2-.3.6-1.2.6-1.6 0-.6-.4-1-1-1s-1 .4-1.4.9c0-.7-.6-.8-1-.8-.3 0-.8.1-1.3.7 0-.5-.4-.7-.8-.7-.3 0-.5.2-.6.4l-.3.8.2.1.1-.2c.1-.4.3-.9.6-.9.2 0 .3.2.3.4l-.1.5-.2.7L.8-.5l-.1.3c0 .2.2.3.3.3l.3-.2.1-.5zm0 0"/></symbol><symbol overflow="visible" id="v"><path d="M4.4-3h.3l.1-.2c0-.2-.2-.2-.3-.2h-2C1.3-3.4.3-2.2.3-1.2.3-.4 1 0 1.6 0c1 0 2.1-1 2.1-2.2l-.2-.8zM1.6 0C1.2-.1 1-.4 1-1c0-.3.2-2 1.5-2 .7 0 .7.7.7.8 0 .9-.5 2-1.5 2zm0 0"/></symbol><symbol overflow="visible" id="E"><path d="M2.4-5c0-.1-.1-.3-.3-.3-.2 0-.5.2-.5.5 0 .1.1.3.3.3.2 0 .5-.2.5-.5zM1.2-2L.8-1l-.1.4c0 .4.3.7.7.7.8 0 1.1-1.1 1.1-1.2v-.1h-.2c-.2.7-.5 1-.9 1l-.1-.2.1-.6.3-.6.2-.7.2-.5c0-.4-.4-.7-.8-.7-.7 0-1 1-1 1.2v.1l.2-.1c.2-.8.6-1 .8-1 .1 0 .2 0 .2.3v.4zm0 0"/></symbol><symbol overflow="visible" id="F"><path d="M1.5-.1c0 .5-.1 1-.6 1.4v.2c.1 0 .8-.6.8-1.5 0-.5-.2-.9-.5-.9s-.5.2-.5.4c0 .3.2.5.5.5l.3-.1zm0 0"/></symbol><symbol overflow="visible" id="A"><path d="M5 13.7h-.1A7.4 7.4 0 013 10c-.3-1-.4-2.3-.4-3.4 0-3.2.8-5.4 2.2-6.9L5-.4h-.1c-.2 0-.8.6-1 .8a9.6 9.6 0 00-2 6.3c0 1.7.3 4 1.9 6.1.1.1.9 1 1.1 1h.1zm0 0"/></symbol><symbol overflow="visible" id="D"><path d="M3.6 6.7C3.6 5 3.3 2.6 1.8.6L.7-.4H.5v.2c.7.6 1.5 1.5 2 3.5.2 1 .3 2.3.3 3.4a14 14 0 01-.4 3.6 7.6 7.6 0 01-1.8 3.3V13.9c.2 0 .9-.8 1-1 1.3-1.4 2-3.5 2-6.2zm0 0"/></symbol><symbol overflow="visible" id="B"><path d="M5.6-1.8c.1 0 .3 0 .3-.2s-.2-.2-.3-.2H1c-.1 0-.3 0-.3.2s.2.2.3.2zm0 0"/></symbol><symbol overflow="visible" id="C"><path d="M2.5-5c0-.3 0-.3-.2-.3-.4.3-.8.5-1.5.5v.3c.2 0 .6 0 1-.2v4c0 .3 0 .4-.7.4H.8V0h2.8v-.3h-.3c-.8 0-.8 0-.8-.4zm0 0"/></symbol></defs><g transform="translate(-32.3 -218.5)"><use xlink:href="#a" x="139.4" y="369.8" width="100%" height="100%"/><use xlink:href="#b" x="147.7" y="369.8" width="100%" height="100%"/><use xlink:href="#c" x="152.9" y="369.8" width="100%" height="100%"/><use xlink:href="#d" x="157.5" y="369.8" width="100%" height="100%"/></g><g transform="translate(-32.3 -218.5)"><use xlink:href="#e" x="165.3" y="369.8" width="100%" height="100%"/><use xlink:href="#f" x="169.9" y="369.8" width="100%" height="100%"/></g><use xlink:href="#g" x="175.7" y="369.8" width="100%" height="100%" transform="translate(-32.3 -218.5)"/><use xlink:href="#h" x="179" y="369.8" width="100%" height="100%" transform="translate(-32.3 -218.5)"/><use xlink:href="#i" x="184.8" y="369.8" width="100%" height="100%" transform="translate(-32.3 -218.5)"/><use xlink:href="#f" x="190.1" y="369.8" width="100%" height="100%" transform="translate(-32.3 -218.5)"/><use xlink:href="#g" x="195.9" y="369.8" width="100%" height="100%" transform="translate(-32.3 -218.5)"/><g transform="translate(-32.3 -218.5)"><use xlink:href="#h" x="199.2" y="369.8" width="100%" height="100%"/><use xlink:href="#j" x="205" y="369.8" width="100%" height="100%"/></g><g transform="translate(-6.8 -218.5)"><use xlink:href="#k" x="215.5" y="369.8" width="100%" height="100%"/><use xlink:href="#d" x="224.3" y="369.8" width="100%" height="100%"/><use xlink:href="#l" x="230.1" y="369.8" width="100%" height="100%"/><use xlink:href="#m" x="233.4" y="369.8" width="100%" height="100%"/><use xlink:href="#n" x="236.9" y="369.8" width="100%" height="100%"/><use xlink:href="#o" x="245.7" y="369.8" width="100%" height="100%"/><use xlink:href="#p" x="251.6" y="369.8" width="100%" height="100%"/><use xlink:href="#q" x="256.1" y="369.8" width="100%" height="100%"/><use xlink:href="#d" x="265.9" y="369.8" width="100%" height="100%"/><use xlink:href="#l" x="271.7" y="369.8" width="100%" height="100%"/></g><g transform="translate(-6.8 -218.5)"><use xlink:href="#e" x="277" y="369.8" width="100%" height="100%"/><use xlink:href="#r" x="281.5" y="369.8" width="100%" height="100%"/></g><use xlink:href="#i" x="287.4" y="369.8" width="100%" height="100%" transform="translate(-6.8 -218.5)"/><g transform="translate(-6.8 -218.5)"><use xlink:href="#f" x="292.6" y="369.8" width="100%" height="100%"/><use xlink:href="#j" x="298.5" y="369.8" width="100%" height="100%"/></g><g transform="translate(27.7 -218.5)"><use xlink:href="#s" x="308.9" y="369.8" width="100%" height="100%"/><use xlink:href="#d" x="318.1" y="369.8" width="100%" height="100%"/><use xlink:href="#q" x="324" y="369.8" width="100%" height="100%"/><use xlink:href="#q" x="333.7" y="369.8" width="100%" height="100%"/><use xlink:href="#d" x="343.5" y="369.8" width="100%" height="100%"/></g><g transform="translate(27.7 -218.5)"><use xlink:href="#e" x="351.3" y="369.8" width="100%" height="100%"/><use xlink:href="#h" x="355.9" y="369.8" width="100%" height="100%"/></g><use xlink:href="#i" x="361.7" y="369.8" width="100%" height="100%" transform="translate(27.7 -218.5)"/><g transform="translate(27.7 -218.5)"><use xlink:href="#h" x="367" y="369.8" width="100%" height="100%"/><use xlink:href="#j" x="372.8" y="369.8" width="100%" height="100%"/></g><g transform="translate(53.2 -218.5)"><use xlink:href="#k" x="383.3" y="369.8" width="100%" height="100%"/><use xlink:href="#d" x="392" y="369.8" width="100%" height="100%"/><use xlink:href="#l" x="397.9" y="369.8" width="100%" height="100%"/><use xlink:href="#m" x="401.1" y="369.8" width="100%" height="100%"/><use xlink:href="#n" x="404.7" y="369.8" width="100%" height="100%"/><use xlink:href="#o" x="413.5" y="369.8" width="100%" height="100%"/><use xlink:href="#p" x="419.4" y="369.8" width="100%" height="100%"/><use xlink:href="#q" x="423.9" y="369.8" width="100%" height="100%"/><use xlink:href="#d" x="433.7" y="369.8" width="100%" height="100%"/><use xlink:href="#l" x="439.5" y="369.8" width="100%" height="100%"/></g><g transform="translate(53.2 -218.5)"><use xlink:href="#e" x="444.8" y="369.8" width="100%" height="100%"/><use xlink:href="#r" x="449.3" y="369.8" width="100%" height="100%"/></g><use xlink:href="#i" x="455.2" y="369.8" width="100%" height="100%" transform="translate(53.2 -218.5)"/><g transform="translate(53.2 -218.5)"><use xlink:href="#h" x="460.4" y="369.8" width="100%" height="100%"/><use xlink:href="#j" x="466.3" y="369.8" width="100%" height="100%"/></g><use xlink:href="#t" x="273.3" y="405" width="100%" height="100%" transform="translate(-119 -158.3)"/><use xlink:href="#u" x="280.2" y="406.8" width="100%" height="100%" transform="translate(-119 -158.3)"/><use xlink:href="#t" x="292.1" y="405" width="100%" height="100%" transform="translate(-113.2 -152.3)"/><use xlink:href="#v" x="299" y="406.8" width="100%" height="100%" transform="translate(-113.2 -152.3)"/><use xlink:href="#w" x="308.5" y="405" width="100%" height="100%" transform="translate(73.7 -158.3)"/><use xlink:href="#u" x="314" y="406.8" width="100%" height="100%" transform="translate(73.7 -158.3)"/><use xlink:href="#w" x="325.9" y="405" width="100%" height="100%" transform="translate(81 -152.3)"/><use xlink:href="#v" x="331.4" y="406.8" width="100%" height="100%" transform="translate(81 -152.3)"/><g transform="translate(-45 -69.5)"><use xlink:href="#x" x="161.3" y="438" width="100%" height="100%"/><use xlink:href="#o" x="168.6" y="438" width="100%" height="100%"/><use xlink:href="#y" x="174.5" y="438" width="100%" height="100%"/><use xlink:href="#z" x="180.3" y="438" width="100%" height="100%"/><use xlink:href="#c" x="183.6" y="438" width="100%" height="100%"/><use xlink:href="#n" x="188.1" y="438" width="100%" height="100%"/><use xlink:href="#o" x="196.9" y="438" width="100%" height="100%"/><use xlink:href="#p" x="202.8" y="438" width="100%" height="100%"/><use xlink:href="#q" x="207.3" y="438" width="100%" height="100%"/><use xlink:href="#d" x="217.1" y="438" width="100%" height="100%"/><use xlink:href="#l" x="222.9" y="438" width="100%" height="100%"/></g><use xlink:href="#A" x="228.2" y="428.3" width="100%" height="100%" transform="translate(-45 -69.5)"/><g transform="translate(-45 -69.5)"><use xlink:href="#l" x="233.6" y="438" width="100%" height="100%"/><use xlink:href="#o" x="236.9" y="438" width="100%" height="100%"/><use xlink:href="#y" x="242.7" y="438" width="100%" height="100%"/><use xlink:href="#z" x="248.6" y="438" width="100%" height="100%"/><use xlink:href="#c" x="251.8" y="438" width="100%" height="100%"/></g><use xlink:href="#B" x="256.4" y="432.9" width="100%" height="100%" transform="translate(-45 -69.5)"/><use xlink:href="#C" x="263" y="432.9" width="100%" height="100%" transform="translate(-45 -69.5)"/><use xlink:href="#e" x="267.7" y="438" width="100%" height="100%" transform="translate(-45 -69.5)"/><use xlink:href="#t" x="272.3" y="438" width="100%" height="100%" transform="translate(-45 -69.5)"/><use xlink:href="#u" x="279.2" y="439.8" width="100%" height="100%" transform="translate(-45 -69.5)"/><use xlink:href="#j" x="287.2" y="438" width="100%" height="100%" transform="translate(-45 -69.5)"/><use xlink:href="#i" x="291.7" y="438" width="100%" height="100%" transform="translate(-45 -69.5)"/><use xlink:href="#t" x="297" y="438" width="100%" height="100%" transform="translate(-45 -69.5)"/><use xlink:href="#v" x="303.9" y="439.8" width="100%" height="100%" transform="translate(-45 -69.5)"/><use xlink:href="#D" x="309.5" y="428.3" width="100%" height="100%" transform="translate(-45 -69.5)"/><g transform="translate(57 -69.5)"><use xlink:href="#x" x="320.9" y="438" width="100%" height="100%"/><use xlink:href="#o" x="328.2" y="438" width="100%" height="100%"/><use xlink:href="#y" x="334.1" y="438" width="100%" height="100%"/><use xlink:href="#n" x="339.9" y="438" width="100%" height="100%"/><use xlink:href="#o" x="348.7" y="438" width="100%" height="100%"/><use xlink:href="#p" x="354.6" y="438" width="100%" height="100%"/><use xlink:href="#q" x="359.1" y="438" width="100%" height="100%"/><use xlink:href="#d" x="368.9" y="438" width="100%" height="100%"/><use xlink:href="#l" x="374.7" y="438" width="100%" height="100%"/></g><g transform="translate(57 -69.5)"><use xlink:href="#e" x="380" y="438" width="100%" height="100%"/><use xlink:href="#l" x="384.5" y="438" width="100%" height="100%"/></g><g transform="translate(57 -69.5)"><use xlink:href="#o" x="387.8" y="438" width="100%" height="100%"/><use xlink:href="#y" x="393.6" y="438" width="100%" height="100%"/></g><use xlink:href="#e" x="399.6" y="438" width="100%" height="100%" transform="translate(57 -69.5)"/><use xlink:href="#w" x="404.2" y="438" width="100%" height="100%" transform="translate(57 -69.5)"/><use xlink:href="#u" x="409.6" y="439.8" width="100%" height="100%" transform="translate(57 -69.5)"/><use xlink:href="#j" x="417.6" y="438" width="100%" height="100%" transform="translate(57 -69.5)"/><use xlink:href="#i" x="422.2" y="438" width="100%" height="100%" transform="translate(57 -69.5)"/><use xlink:href="#w" x="427.4" y="438" width="100%" height="100%" transform="translate(57 -69.5)"/><use xlink:href="#v" x="432.9" y="439.8" width="100%" height="100%" transform="translate(57 -69.5)"/><use xlink:href="#j" x="438.5" y="438" width="100%" height="100%" transform="translate(57 -69.5)"/><use xlink:href="#t" x="291" y="471" width="100%" height="100%" transform="translate(-129 -11.3)"/><g transform="translate(-129 -11.3)"><use xlink:href="#E" x="297.9" y="472.8" width="100%" height="100%"/><use xlink:href="#F" x="300.8" y="472.8" width="100%" height="100%"/><use xlink:href="#E" x="303.1" y="472.8" width="100%" height="100%"/></g><use xlink:href="#w" x="310.4" y="471" width="100%" height="100%" transform="translate(99.4 -9.7)"/><use xlink:href="#E" x="315.9" y="472.8" width="100%" height="100%" transform="translate(99.4 -9.7)"/><use height="100%" width="100%" y="504" x="296.8" xlink:href="#t" transform="translate(-106.3 56)"/><use height="100%" width="100%" y="504" x="307.6" xlink:href="#w" transform="translate(76.7 65)"/><path d="M27.9 206H446" fill="none" stroke="#a6a3a6" stroke-width="1.1" stroke-linejoin="round" stroke-dasharray="11.23434099,11.23434099"/><path d="M414.6 378.3v58.4" fill="none" stroke="#a6a3a6" stroke-width="2" stroke-linejoin="round"/><path d="M409.7 435.3l5 8.6 5-8.6zm0 0" fill="#a6a3a6"/><path d="M169.1 378.3v58.4" fill="none" stroke="#a6a3a6" stroke-width="2" stroke-linejoin="round"/><path d="M164.2 435.3l5 8.6 5-8.6zm0 0" fill="#a6a3a6"/><path d="M27.9 425H446" fill="none" stroke="#a6a3a6" stroke-width="1.1" stroke-linejoin="round" stroke-dasharray="11.23434099,11.23434099"/><path d="M129.5 519.2h8.4l4.2 138.4h100.8l4.2-138.4h42l4.3 138.4h16.8l4.2-138.4H327l4.2 138.4h4.2l4.2-138.4h117.7" fill="none" stroke="#a6a3a6" stroke-width="2" stroke-linejoin="round" stroke-miterlimit="10"/><path d="M135.6 538.8c0 2.6-3.9 2.6-3.9 0s4-2.6 4 0M139.8 520.2c0 2.6-3.9 2.6-3.9 0s4-2.6 4 0M144 638.5c0 2.6-3.9 2.6-3.9 0s4-2.6 4 0M148.2 607c0 2.6-3.9 2.6-3.9 0s4-2.6 4 0M152.4 655.4c0 2.6-3.9 2.6-3.9 0s4-2.6 4 0M156.6 657c0 2.6-3.9 2.6-3.9 0s4-2.6 4 0M160.8 601.7c0 2.6-3.9 2.6-3.9 0s4-2.6 4 0M165 645c0 2.7-3.9 2.7-3.9 0 0-2.5 4-2.5 4 0M169.2 647.8c0 2.6-3.9 2.6-3.9 0s4-2.6 4 0M173.4 642.2c0 2.6-3.9 2.6-3.9 0s4-2.6 4 0M177.6 644.3c0 2.6-3.9 2.6-3.9 0s4-2.6 4 0M186 643c0 2.6-3.9 2.6-3.9 0s4-2.6 4 0M190.3 655.4c0 2.7-4 2.7-4 0 0-2.6 4-2.6 4 0M194.5 650.1c0 2.6-4 2.6-4 0s4-2.6 4 0M198.7 647.7c0 2.6-4 2.6-4 0s4-2.6 4 0M202.9 619.3c0 2.6-4 2.6-4 0s4-2.6 4 0M207 647c0 2.5-3.8 2.5-3.8 0 0-2.7 3.9-2.7 3.9 0M211.3 637.7c0 2.7-4 2.7-4 0 0-2.6 4-2.6 4 0M215.5 655.8c0 2.6-4 2.6-4 0s4-2.6 4 0M219.7 654.9c0 2.6-4 2.6-4 0s4-2.6 4 0M223.9 652.4c0 2.6-4 2.6-4 0s4-2.6 4 0M228 646.8c0 2.6-3.8 2.6-3.8 0 0-2.7 3.9-2.7 3.9 0M232.3 649.6c0 2.6-4 2.6-4 0s4-2.6 4 0M236.5 623.9c0 2.6-4 2.6-4 0s4-2.6 4 0M240.7 620.3c0 2.6-4 2.6-4 0s4-2.6 4 0M244.9 610.3c0 2.6-4 2.6-4 0s4-2.6 4 0M249.1 583.3c0 2.6-4 2.6-4 0s4-2.6 4 0M253.3 537.2c0 2.6-4 2.6-4 0s4-2.6 4 0M257.5 532c0 2.5-4 2.5-4 0 0-2.7 4-2.7 4 0M261.7 531.6c0 2.6-3.9 2.6-3.9 0s4-2.6 4 0M266 520.7c0 2.6-4 2.6-4 0s4-2.6 4 0M270.1 577.1c0 2.6-3.9 2.6-3.9 0s4-2.6 4 0M274.3 562.9c0 2.6-3.9 2.6-3.9 0s4-2.6 4 0M278.5 529.5c0 2.6-3.9 2.6-3.9 0s4-2.6 4 0M282.7 545.8c0 2.6-3.9 2.6-3.9 0s4-2.6 4 0M287 520.8c0 2.6-4 2.6-4 0s4-2.6 4 0M291.1 538.8c0 2.6-3.9 2.6-3.9 0s4-2.6 4 0M295.3 643c0 2.6-3.9 2.6-3.9 0s4-2.6 4 0M299.5 633.1c0 2.6-3.9 2.6-3.9 0s4-2.6 4 0M303.7 616.9c0 2.6-3.9 2.6-3.9 0s4-2.6 4 0M308 627c0 2.7-4 2.7-4 0 0-2.5 4-2.5 4 0M312.1 641c0 2.6-3.9 2.6-3.9 0s4-2.6 4 0M316.3 522.5c0 2.6-3.9 2.6-3.9 0s4-2.6 4 0M320.6 573.7c0 2.6-4 2.6-4 0s4-2.6 4 0M324.8 555c0 2.7-4 2.7-4 0 0-2.5 4-2.5 4 0M329 546.5c0 2.6-4 2.6-4 0s4-2.6 4 0M333.2 656.2c0 2.6-4 2.6-4 0s4-2.6 4 0M337.4 623.4c0 2.6-4 2.6-4 0s4-2.6 4 0M341.6 528.8c0 2.6-4 2.6-4 0s4-2.6 4 0M345.8 522.7c0 2.6-4 2.6-4 0s4-2.6 4 0M350 551.3c0 2.6-4 2.6-4 0s4-2.6 4 0M354.2 528.6c0 2.6-4 2.6-4 0s4-2.6 4 0M358.4 550.2c0 2.6-4 2.6-4 0s4-2.6 4 0M362.6 536.1c0 2.6-4 2.6-4 0s4-2.6 4 0M366.8 524.8c0 2.6-4 2.6-4 0s4-2.6 4 0M371 528.5c0 2.6-4 2.6-4 0s4-2.6 4 0M375.2 519.7c0 2.6-4 2.6-4 0s4-2.6 4 0M383.6 543c0 2.6-4 2.6-4 0 0-2.7 4-2.7 4 0M394 542.3c0 2.6-3.9 2.6-3.9 0s4-2.6 4 0M398.2 549.4c0 2.7-3.9 2.7-3.9 0 0-2.6 4-2.6 4 0M400.4 524.5c0 2.6-3.9 2.6-3.9 0s4-2.6 4 0M404.6 523.7c0 2.6-3.9 2.6-3.9 0s4-2.6 4 0M408.8 535.1c0 2.6-3.9 2.6-3.9 0s4-2.6 4 0M413 533c0 2.6-3.9 2.6-3.9 0s4-2.6 4 0M417.2 527.6c0 2.6-3.9 2.6-3.9 0s4-2.6 4 0M421.4 532.2c0 2.6-3.9 2.6-3.9 0s4-2.6 4 0M425.6 547.1c0 2.6-3.9 2.6-3.9 0s4-2.6 4 0M429.8 528c0 2.7-3.9 2.7-3.9 0 0-2.5 4-2.5 4 0M434 544.7c0 2.6-3.9 2.6-3.9 0s4-2.6 4 0M438.2 526.9c0 2.6-3.9 2.6-3.9 0 0-2.7 4-2.7 4 0M442.4 540.7c0 2.7-3.9 2.7-3.9 0 0-2.6 4-2.6 4 0M446.6 537.3c0 2.6-3.9 2.6-3.9 0s4-2.6 4 0M455 527.3c0 2.6-3.9 2.6-3.9 0s4-2.6 4 0M131.9 525.7c0 2.6-4 2.6-4 0s4-2.6 4 0" fill="#b56b75" stroke="#b56b75" stroke-width=".7" stroke-linecap="round" stroke-linejoin="round" stroke-miterlimit="10"/><path d="M387.5 551.7v-27.3" fill="none" stroke="#4a4747" stroke-linejoin="round"/><path d="M387.5 557l3-7.4-3 1.8-3-1.8zm0 0M387.5 519.2l3 7.4-3-1.8-3 1.8zm0 0" fill="#4a4747"/><path d="M237.6 567.7h-88" fill="none" stroke="#4a4747" stroke-linejoin="round"/><path d="M243 567.7l-7.5-3 1.7 3-1.7 3zm0 0M144.3 567.7l7.5-3-1.8 3 1.8 3zm0 0" fill="#4a4747"/><path d="M169.4 471.6l6.6 24.8" fill="none" stroke="#a6a3a6" stroke-width="2" stroke-linejoin="round"/><path d="M170.9 496.2l7 7.1 2.6-9.6zm0 0" fill="#a6a3a6"/><g><path d="M414.4 471.6l-6.7 24.8" fill="none" stroke="#a6a3a6" stroke-width="2" stroke-linejoin="round"/><path d="M403.3 493.7l2.6 9.6 7-7zm0 0" fill="#a6a3a6"/></g><text y="24.3" x="269.3" style="line-height:1.25;-inkscape-font-specification:'Adobe Garamond Pro, Normal';font-variant-ligatures:normal;font-variant-caps:normal;font-variant-numeric:normal;font-feature-settings:normal;text-align:center" font-weight="400" font-size="14" font-family="Adobe Garamond Pro" letter-spacing="0" word-spacing="0" text-anchor="middle" stroke-width=".8"><tspan style="-inkscape-font-specification:'Adobe Garamond Pro, Normal';font-variant-ligatures:normal;font-variant-caps:normal;font-variant-numeric:normal;font-feature-settings:normal;text-align:center" y="24.3" x="269.3" font-size="20">Multilevel Hidden Markov Model</tspan></text><g fill="#211e1e"><text style="line-height:1.25;-inkscape-font-specification:'Adobe Garamond Pro, Normal';font-variant-ligatures:normal;font-variant-caps:normal;font-variant-numeric:normal;font-feature-settings:normal;text-align:center" x="30.3" y="-5.3" font-weight="400" font-size="14" font-family="Adobe Garamond Pro" letter-spacing="0" word-spacing="0" text-anchor="middle" fill="#000" stroke-width=".8" transform="translate(8.7 85.8)"><tspan x="30.3" y="-5.3" style="-inkscape-font-specification:'Adobe Garamond Pro, Normal';font-variant-ligatures:normal;font-variant-caps:normal;font-variant-numeric:normal;font-feature-settings:normal;text-align:center">Population</tspan><tspan x="30.3" y="12.2" style="-inkscape-font-specification:'Adobe Garamond Pro, Normal';font-variant-ligatures:normal;font-variant-caps:normal;font-variant-numeric:normal;font-feature-settings:normal;text-align:center">Parameter</tspan><tspan x="30.3" y="29.7" style="-inkscape-font-specification:'Adobe Garamond Pro, Normal';font-variant-ligatures:normal;font-variant-caps:normal;font-variant-numeric:normal;font-feature-settings:normal;text-align:center">Priors</tspan></text></g><g fill="#211e1e"><text style="line-height:1.25;-inkscape-font-specification:'Adobe Garamond Pro, Normal';font-variant-ligatures:normal;font-variant-caps:normal;font-variant-numeric:normal;font-feature-settings:normal;text-align:center" x="30.3" y="-5.3" font-weight="400" font-size="14" font-family="Adobe Garamond Pro" letter-spacing="0" word-spacing="0" text-anchor="middle" fill="#000" stroke-width=".8" transform="translate(8.7 298.8)"><tspan x="30.3" y="-5.3" style="-inkscape-font-specification:'Adobe Garamond Pro, Normal';font-variant-ligatures:normal;font-variant-caps:normal;font-variant-numeric:normal;font-feature-settings:normal;text-align:center">Population</tspan><tspan x="30.3" y="12.2" style="-inkscape-font-specification:'Adobe Garamond Pro, Normal';font-variant-ligatures:normal;font-variant-caps:normal;font-variant-numeric:normal;font-feature-settings:normal;text-align:center">Level</tspan></text></g><g fill="#211e1e"><text style="line-height:1.25;-inkscape-font-specification:'Adobe Garamond Pro, Normal';font-variant-ligatures:normal;font-variant-caps:normal;font-variant-numeric:normal;font-feature-settings:normal;text-align:center" x="30.3" y="-5.3" font-weight="400" font-size="14" font-family="Adobe Garamond Pro" letter-spacing="0" word-spacing="0" text-anchor="middle" fill="#000" stroke-width=".8" transform="translate(9 517.7)"><tspan x="30.3" y="-5.3" style="-inkscape-font-specification:'Adobe Garamond Pro, Normal';font-variant-ligatures:normal;font-variant-caps:normal;font-variant-numeric:normal;font-feature-settings:normal;text-align:center">Subject</tspan><tspan x="30.3" y="12.2" style="-inkscape-font-specification:'Adobe Garamond Pro, Normal';font-variant-ligatures:normal;font-variant-caps:normal;font-variant-numeric:normal;font-feature-settings:normal;text-align:center">Level</tspan></text></g><path d="M122.4 353.5h140.3M122.4 353.5v-65M262.7 353.5v-65" fill="none" stroke="#a6a3a6" stroke-linejoin="round" stroke-miterlimit="10"/><path d="M122.9 353.5h.4l.5-.3.5-.4.4-.5.5-.8.5-.9.5-1 .4-1 .5-1.3.5-1.3.4-1.3.5-1.3.5-1.4.4-1.4 1-2.8.4-1.4.5-1.3.5-1.4.5-1.3.4-1.3.5-1.3.5-1.3.4-1.2.5-1.2.5-1.2.4-1.1.5-1.1.5-1 .4-1.1.5-1 .5-1 .5-1 .4-.9.5-.8.5-.9.4-.8.5-.8.5-.8.4-.7.5-.7.5-.7.4-.6.5-.7.5-.6.5-.6.4-.5.5-.5.5-.5.4-.5.5-.5.5-.4.4-.5.5-.4.5-.4.4-.3.5-.4.5-.3.4-.3.5-.3.5-.3.5-.2.4-.3.5-.2.5-.2.4-.2.5-.2.5-.2.4-.1.5-.2.5-.1.4-.1.5-.1.5-.1.5-.1.4-.1h.5l.5-.1h.4l.5-.1h3.8l.4.1h.5l.5.1h.4l.5.1.5.1.4.1.5.1.5.1.4.1.5.1.5.1.4.2.5.1.5.1.5.2.4.1.5.2 1 .3.4.1.5.2 1 .4.8.3 1 .4.5.2.4.2 1 .4.9.4.5.3.4.2 1 .4 1.4.7.5.3.4.2.5.3 1 .5.4.2 1 .5.4.3 1 .5.9.6.5.3.4.2.5.3 1.4.8 1 .6.4.3.5.3.4.3.5.3.5.3.4.3.5.3 1 .6.9.6 1.4 1 1.4.9.5.3 1 .6 1.3 1 1.9 1.3 1 .6.4.3 1.9 1.4.5.3.4.3.5.4.5.3.4.3.5.4.5.3.4.4.5.3.5.3 2.3 1.8.5.3.5.4 1.4 1 .4.3.5.4.5.3.4.4.5.3.5.4 3.3 2.5.4.3 4.2 3.2.5.3.5.4.5.3.4.4.5.3.5.4.4.3.5.4 1.9 1.3 1 .7.4.3.5.4.4.3.5.4.5.3.9.6 1 .7.9.6 1 .7.4.3 1 .6.4.3 1 .6.4.3 1 .5.4.3.5.3.4.2.5.3.5.2.5.3.4.2.5.3.5.2.4.2.5.2.5.2.4.2.5.2.5.2.4.1.5.2.5.1.5.2.4.1.5.1.5.1.4.1.5.1h.5l.4.1h.5l.5.1h2.8" fill="none" stroke="#9ec7eb" stroke-width="3" stroke-linejoin="round" stroke-miterlimit="10"/><path d="M93.1 136.8h97.6M93.5 136.8V49M201 136.8h98.2M201.4 136.8V50.7" fill="none" stroke="#a6a3a6" stroke-width=".8" stroke-linejoin="round" stroke-miterlimit="10"/><path d="M201.4 65h1l.3.1h.4l.3.1.3.1.3.1.4.1.3.2h.3l.3.2.4.2.3.2.3.1.3.2.4.2.3.3.3.2.4.2.3.3.3.3.3.2.4.3.3.3.3.3.3.4.4.3.3.3.3.4.4.3.3.4.3.4.3.4.4.4.3.4.3.4.3.4.4.5.3.4.3.4.3.5.4.5.3.4.3.5.4.5.3.5.3.5.3.5.4.5.3.5.3.5.3.6.4.5.3.5.3.6.4.5.3.6.3.5.3.6.4.6.3.5.3.6.3.6.4.5.6 1.2.3.5.4.6.3.6.3.6 1 1.7.3.6.4.6.3.6.3.6.7 1.1.6 1.2.3.6.7 1.1.3.6.4.5.3.6.3.6.3.5.4.6.3.6.3.5.3.6.4.5.3.5.3.6.4.5.3.5.3.6.3.5.4.5.3.5.3.5.3.6.4.5.3.4.3.5.7 1 .3.5.3.5.4.4.3.5.3.4.3.5.4.4.3.5.3.4.7.9.3.4.3.4.4.4.3.4.6.8.4.4.3.3.3.4.3.4.4.3.3.4.3.3.7.7.3.3.3.4.4.3.3.3.3.3.3.3.4.3.3.3.3.3.3.3.4.2.3.3.3.3.3.2.4.3.6.5.4.2.3.3.6.4.4.2.3.2.3.3.3.2.4.2.6.4.4.1.3.2.6.4.4.2.3.1.3.2.3.1.7.3.3.2.3.1.4.2.3.1.3.1.4.2.3.1.6.2.4.2.6.2h.3l.7.3h.3l.4.2.6.2h.3l.7.2.3.1h.3l.4.2h.6l.3.2h.7l.7.2h.3l.3.1h.3l.4.1h.3l.3.1h.3l.4.1h.3l.3.1h.4l.3.1h.6l.4.1h.6l.3.1h.7l.3.1h1l.3.1h1l.3.1h1.3l.4.1h1.6l.3.1h2.3l.3.1h3.6l.4.1h8.5l.3.1h2" fill="none" stroke="#a3ccee" stroke-width="3" stroke-linejoin="round" stroke-miterlimit="10"/><path d="M322.6 136.8h97.6M323 136.8V49M430.5 136.8h98.2M431 136.8V50.7" fill="none" stroke="#a6a3a6" stroke-width=".8" stroke-linejoin="round" stroke-miterlimit="10"/><path d="M431 65H431.8l.3.1h.4l.3.1.3.1.3.1.4.1.3.2h.3l.3.2.4.2.3.2.3.1.3.2.4.2.3.3.3.2.4.2.3.3.3.3.3.2.4.3.3.3.3.3.3.4.4.3.3.3.3.4.4.3.3.4.3.4.3.4.4.4.3.4.3.4.3.4.4.5.3.4.3.4.3.5.4.5.3.4.3.5.4.5.3.5.3.5.3.5.4.5.3.5.3.5.3.6.4.5.3.5.3.6.4.5.3.6.3.5.3.6.4.6.3.5.3.6.3.6.4.5.6 1.2.3.5.4.6.3.6.3.6 1 1.7.3.6.4.6.3.6.3.6.7 1.1.6 1.2.3.6.7 1.1.3.6.4.5.3.6.3.6.3.5.4.6.3.6.3.5.3.6.4.5.3.5.3.6.4.5.3.5.3.6.3.5.4.5.3.5.3.5.3.6.4.5.3.4.3.5.7 1 .3.5.3.5.4.4.3.5.3.4.3.5.4.4.3.5.3.4.7.9.3.4.3.4.4.4.3.4.6.8.4.4.3.3.3.4.3.4.4.3.3.4.3.3.7.7.3.3.3.4.4.3.3.3.3.3.3.3.4.3.3.3.3.3.3.3.4.2.3.3.3.3.3.2.4.3.6.5.4.2.3.3.6.4.4.2.3.2.3.3.3.2.4.2.6.4.4.1.3.2.6.4.4.2.3.1.3.2.3.1.7.3.3.2.3.1.4.2.3.1.3.1.4.2.3.1.6.2.4.2.6.2h.3l.7.3h.3l.4.2.6.2h.3l.7.2.3.1h.3l.4.2h.6l.3.2h.7l.7.2h.3l.3.1h.3l.4.1h.3l.3.1h.3l.4.1h.3l.3.1h.4l.3.1h.6l.4.1h.6l.3.1h.7l.3.1h1l.3.1h1l.3.1h1.3l.4.1h1.6l.3.1h2.3l.3.1h3.6l.4.1h8.5l.3.1h2" fill="none" stroke="#a3ccee" stroke-width="3" stroke-linejoin="round" stroke-miterlimit="10"/><path d="M191 136.8V49" fill="none" stroke="#a6a3a6" stroke-width=".8" stroke-linejoin="round" stroke-miterlimit="10"/><path d="M368.1 353.3h140.7" fill="none" stroke="#a6a3a6" stroke-width=".7" stroke-linejoin="round" stroke-miterlimit="10"/><path d="M368.5 353.3v-99.4" fill="none" stroke="#a6a3a6" stroke-width=".8" stroke-linejoin="round" stroke-miterlimit="10"/><path d="M387.5 350.3v-94.4" fill="none" stroke="#a6a3a6" stroke-linejoin="round" stroke-dasharray="1.98799982,1.98799982"/><path d="M387.5 254.9v-1" fill="none" stroke="#a6a3a6" stroke-linejoin="round"/><path d="M368.5 351.8h.9l.5-.4.5-.7.4-1.3.5-1.9.5-2.4.5-2.8.4-3.2.5-3.4.5-3.6.4-3.7.5-3.7.5-3.7.4-3.6.5-3.5.5-3.4.4-3.3.5-3 .5-3 .5-2.6.4-2.5.5-2.4.5-2.1.4-2 .5-1.8.5-1.6.4-1.5.5-1.3.5-1.2.4-1 .5-1 .5-.7.5-.7.4-.5.5-.5.5-.3.4-.2.5-.2h.5l.4-.1h.5l.5.2.4.2.5.2.5.3.5.3.4.4.5.4.5.5.4.4.5.6.5.5.4.6.5.6.5.6.4.6.5.6.5.7.4.7.5.6.5.7.5.7.4.7.5.7 1 1.5.4.7.5.7.4.7 2 2.9.9 1.4.4.7.5.7.5.7.4.7.5.7.5.7.4.7.5.6.5.7.4.7.5.6.5.7.5.6.4.6.5.7.5.6.4.6.5.6.5.6.4.6.5.6.5.6.4.5 1 1.2.4.5.5.5.5.6.5.5.4.5.5.5.5.5.4.5.5.5.5.5.4.5.5.5.5.4.4.5.5.4.5.5.5.4.4.4.5.5.5.4.4.4.5.4.5.4.4.4.5.4.5.4.4.3.5.4.5.4.5.3.4.4 1 .7.4.3 1 .7.4.3.5.3 1 .7.4.3.5.3.5.3.9.6.5.2.4.3.5.3 1 .5.4.3.5.2.4.3.5.3.5.2.4.2 1 .5 1 .5.4.2.5.2.4.2.5.3 1 .4.4.2.5.2.4.2 1 .4.5.2.9.4.5.1.4.2 1 .4.4.1.5.2.5.2 1 .3.4.2 1 .3.9.3.9.3.5.1.4.2.5.1.5.1.4.2 1.4.4.5.1 1.4.4 1 .2.4.1 1 .3h.4l.5.2.5.1.4.1.5.1 1 .2 1.4.3.4.1.5.1.5.1.4.1.5.1.5.1 1.4.3 1.4.2.5.1 1.4.3 1.4.2h.4l.5.2h.5l.4.1h.5l.5.1 1 .2 2.3.3 2.3.3h.5l1.9.3 2.3.3h.5l.4.1h.5l.5.1h.5l.9.2 2.3.2h1l.4.1h.5l1.9.2 1 .1h.4l1.4.2h1.4l2.4.3" fill="none" stroke="#9ec7eb" stroke-width="3" stroke-linejoin="round" stroke-miterlimit="10"/><path d="M378.8 263.2h31.4" fill="#a6a3a6" stroke="#a6a3a6" stroke-linejoin="round"/><path d="M373.5 263.2l7.5 3-1.8-3 1.8-3zm0 0M415.5 263.2l-7.4 3 1.7-3-1.7-3zm0 0" fill="#a6a3a6"/><path d="M161 350.3v-94.4" fill="none" stroke="#a6a3a6" stroke-linejoin="round" stroke-dasharray="1.98799982,1.98799982"/><path d="M161 254.9v-1" fill="none" stroke="#a6a3a6" stroke-linejoin="round"/><path d="M152.3 263.2h31.4" fill="#a6a3a6" stroke="#a6a3a6" stroke-linejoin="round"/><path d="M147 263.2l7.5 3-1.8-3 1.8-3zm0 0M189 263.2l-7.4 3 1.7-3-1.7-3zm0 0" fill="#a6a3a6"/><path d="M323 135.4H328.2l.3-.1.3-.1h.4l.3-.2.3-.1.3-.1.4-.2.3-.2.3-.2.3-.3.4-.3.3-.3.3-.4.3-.5.4-.4.3-.5.3-.6.3-.6.4-.7.3-.7.3-.8.3-.8.4-.9.3-.9.3-1 .3-1 .4-1 .3-1.2.3-1.2.3-1.2.4-1.2.3-1.3.3-1.3.3-1.4.4-1.4.3-1.4.3-1.4.3-1.5.4-1.5.3-1.4.3-1.5.7-3 .3-1.6.3-1.5.3-1.5.4-1.5.3-1.4.3-1.5.3-1.4.4-1.5.3-1.4.3-1.3.3-1.4.4-1.3.3-1.2.3-1.3.3-1.1.3-1.2.4-1.1.3-1 .3-1 .3-1 .4-1 .3-.8.3-.8.3-.8.4-.7.3-.7.3-.6.3-.5.4-.5.3-.4.3-.4.3-.4.4-.3.3-.2.3-.2.3-.1h.4l.3-.1h.6l.4.2.3.1.3.2.3.3.4.2.3.4.3.3.3.4.4.4.3.5.3.5.3.5.4.6.3.6.3.6.3.6.4.7.3.7.3.7.3.7.4.8.3.8.3.7.3.8.4.8.3.9.3.8.3.8.4.9.3.9.3.8.3.9.3.9.4.8.3 1 .3.8.3.9.4.9.3.8.3.9.7 1.7.3 1 .3.8.3.8.4.9.3.8.3.8.3.9.4.8.3.8.3.8.3.8.4.8.3.7.3.8.3.7.4.8.3.7.3.7.3.7.4.7.3.7.3.7.3.6.4.7.3.6.3.6.3.6.4.6.3.6.3.6.3.6.4.5.3.5.3.6.3.5.4.5.3.5.3.5.3.4.4.5.3.4.3.5.3.4.4.4.3.4.3.4.3.4.4.3.3.4.3.4.3.3.3.3.4.4.3.3.3.3.3.3.4.3.3.3.3.2.3.3.4.2.3.3.3.2.3.3.4.2.3.2.3.2.3.2.4.2.3.2.3.2.3.2.4.2.3.2.3.1.3.2.4.1.3.2.3.1.3.2.4.1.3.1.6.3.4.1.3.1.3.1.3.1.7.2.3.1.3.1.7.2h.3l.3.2.7.1h.3l1 .3h.3l.7.2h.6l.3.1h.4l.3.1h.3l.3.1h.3l1 .2h.7l.6.1h1l.3.1h1l.3.1h1l.3.1h1.3l.7.1h2.3l.3.1H419.7l.4.1M94.7 137l.4-28.5.3-4.2.3-2.7.3-2 .3-1.7.3-1.5.4-1.2.3-1.1.3-1 .3-.9.3-.8.4-.8.3-.7.3-.7.3-.6.3-.6.3-.6.4-.5.3-.5.3-.5.3-.5.3-.4.4-.4.3-.4.3-.4.3-.4.3-.4.3-.3.4-.4.3-.3.3-.3.3-.3.3-.3.4-.3.3-.3.3-.3.3-.3.3-.2.3-.3.4-.2.3-.3.6-.4.3-.2.4-.3.3-.2.3-.2.3-.2.7-.4.3-.2.3-.2.3-.1.3-.2.7-.4.3-.1.6-.3.7-.3.3-.2.6-.3.6-.3.7-.2.3-.2h.3l1-.5 1-.3.2-.1.7-.2.3-.1.3-.1.3-.1 1-.3.6-.2h.3l.4-.2h.3l.3-.1.3-.1h.3l.4-.2h.3l1-.2.9-.2.6-.2h.7l.3-.1 1-.2h.3l.3-.1h.6l.3-.1 1-.2h.6l1.3-.2H134.8l.4-.1H136l.3-.1h1.4l.9-.1h1.2l.4-.1H146l1 .1h1.2l.3.1h1l.3.1h.3l.7.1 1.2.2h.7l1 .2H154.2l.3.1h.3l.3.1 1 .2h.3l.6.1.7.2 1 .2.9.2h.3l.3.1.3.1h.3l.4.2h.3l.3.1.3.1.7.2 1 .3h.2l.3.2h.4l.6.3.3.1 1 .3 1 .4.2.1.4.2.6.2.6.3.7.3.3.2.6.3.7.3.3.1.6.4.3.2.4.1.3.2.3.2.6.4.4.2.3.2.3.2.3.3.3.2.7.4.3.3.3.2.3.3.3.2.4.3.3.3.3.3.3.3.3.3.3.3.4.3.3.3.3.4.3.3.3.4.4.4.3.4.3.4.3.4.3.4.3.5.4.5.3.5.3.5.3.6.3.6.4.6.3.7.3.7.3.8.3.8.3 1 .4.9.3 1.1.3 1.2.3 1.5.3 1.6.4 2.1.3 2.7.3 4.2.3 28.5" fill="none" stroke="#9ec7eb" stroke-width="3" stroke-linejoin="round" stroke-miterlimit="10"/><g><path d="M138.3 163l15.1 56.4" fill="none" stroke="#a6a3a6" stroke-width="2" stroke-linejoin="round"/><path d="M148.2 219.3l7.1 7 2.6-9.6zm0 0" fill="#a6a3a6"/></g><g transform="translate(-95.9 -24.8)"><use height="100%" width="100%" y="208.3" x="244.6" xlink:href="#G"/></g><g><path d="M236 162.8l-40.4 68.5" fill="none" stroke="#a6a3a6" stroke-width="2" stroke-linejoin="round"/><path d="M192 227.5v10l8.7-5zm0 0" fill="#a6a3a6"/></g><g transform="translate(-12.4 -24.7)"><use xlink:href="#G" x="244.6" y="208.3" width="100%" height="100%"/></g><g><path d="M364.8 163l15.1 56.4" fill="none" stroke="#a6a3a6" stroke-width="2" stroke-linejoin="round"/><path d="M374.7 219.3l7.1 7 2.6-9.6zm0 0" fill="#a6a3a6"/></g><g transform="translate(130.6 -24.8)"><use xlink:href="#G" x="244.6" y="208.3" width="100%" height="100%"/></g><g><path d="M462.5 162.8L422 231.3" fill="none" stroke="#a6a3a6" stroke-width="2" stroke-linejoin="round"/><path d="M418.5 227.5v10l8.7-5zm0 0" fill="#a6a3a6"/></g><g transform="translate(214.1 -24.7)"><use height="100%" width="100%" y="208.3" x="244.6" xlink:href="#G"/></g><g transform="translate(-69 195.1)"><use height="100%" width="100%" y="208.3" x="244.6" xlink:href="#G"/></g><g transform="translate(177 195.1)"><use xlink:href="#G" x="244.6" y="208.3" width="100%" height="100%"/></g></svg>