<svg xmlns="http://www.w3.org/2000/svg" xmlns:xlink="http://www.w3.org/1999/xlink" viewBox="0 0 538.7 622.1" version="1.2"><defs><symbol overflow="visible" id="c"><path d="M2-4.8h1.7v-.4H2v-2.1h-.3c0 1-.4 2.2-1.5 2.3v.2h1v3.3C1.2-.2 2.2.1 2.8.1c.7 0 1-.7 1-1.6v-.7h-.2v.7c0 .9-.3 1.4-.8 1.4C2-.1 2-1.2 2-1.5zm0 0"/></symbol><symbol overflow="visible" id="s"><path d="M7.8-2.4c0-.4 0-.5.8-.5v-.3H5.4v.3h.3c1 0 1.1.1 1.1.6v.8C6.8-.2 5.3-.1 5-.1 4 0 1.7-.7 1.7-4S4-8 5-8c1 0 2.2.8 2.6 2.9l.1.2c.2 0 .2 0 .2-.3v-2.8l-.1-.3-.2.1-.6 1c-.3-.5-1-1.1-2.2-1.1-2.2 0-4 1.9-4 4.3C.6-1.6 2.4.2 4.6.2 5.6.3 6.5 0 7-.8c.2.4.6.8.7.8v-.3zm0 0"/></symbol><symbol overflow="visible" id="q"><path d="M8.6-3c0-1 0-1.3-.3-1.7-.3-.5-1-.6-1.3-.6-1 0-1.5.8-1.7 1.2-.2-1-.8-1.2-1.6-1.2-1.1 0-1.6 1-1.7 1.3v-1.3L.4-5v.3c.8 0 .9.1.9.7V-1c0 .6-.1.6-1 .6V0H3v-.3c-.8 0-1 0-1-.6V-3c0-1.3.9-2 1.6-2 .8 0 1 .7 1 1.4v2.8c0 .6-.2.6-1 .6V0h2.6v-.3c-.7 0-.9 0-.9-.6V-3c0-1.3.8-2 1.6-2 .7 0 .9.7.9 1.4v2.8c0 .6-.1.6-1 .6V0h2.7v-.3c-.6 0-1 0-1-.4zm0 0"/></symbol><symbol overflow="visible" id="e"><path d="M3.9 3l-.2-.4C2.5 1.4 1.8-.5 1.8-3c0-2.3.6-4.3 2-5.7v-.2A5 5 0 002-7a8.6 8.6 0 00-1 4c0 1 .2 2.4.9 3.7C2.7 2.2 3.6 3 3.8 3zm0 0"/></symbol><symbol overflow="visible" id="h"><path d="M5.3-2H5c0 .2-.1.9-.3 1 0 .2-.7.2-1 .2H1.3l1.4-1.4c1.8-1.6 2.5-2.3 2.5-3.5C5.3-7 4.2-8 2.8-8A2.2 2.2 0 00.6-5.7c0 .6.5.6.5.6.3 0 .6-.2.6-.6 0-.3-.2-.5-.6-.5H1c.2-.8.9-1.4 1.6-1.4 1 0 1.7.8 1.7 2 0 1-.6 1.8-1.3 2.6L.6-.3V0H5zm0 0"/></symbol><symbol overflow="visible" id="r"><path d="M5.4-3.8c0-1-.1-2-.5-2.9a2.1 2.1 0 00-4 0C.6-5.8.5-5 .5-3.7c0 1.1 0 2 .5 2.9C1.5 0 2.3.2 3 .2 4 .3 4.4-.3 5-1c.3-.9.4-2 .4-2.7zM2.9 0c-.4 0-1.1-.2-1.4-1.5V-4v-2.5c.3-.8 1-1.2 1.4-1.2.5 0 1.2.3 1.4 1.3.2.7.2 1.6.2 2.4 0 .8 0 1.7-.2 2.5C4.1-.2 3.3 0 3 0zm0 0"/></symbol><symbol overflow="visible" id="j"><path d="M3.4-3c0-.9-.1-2.4-.8-3.8A5.2 5.2 0 00.8-9l-.1.1.2.3C2-7.4 2.7-5.4 2.7-3c0 2.3-.5 4.3-2 5.7V3a5 5 0 001.8-2c.6-1.3.9-2.5.9-4zm0 0"/></symbol><symbol overflow="visible" id="k"><path d="M7.1-7.3c0-.4 0-.5 1-.5h.2v-.4H5v.4h.3c.8 0 .9.1.9.5v2.9H2.6v-2.8c0-.5 0-.6.9-.6h.2v-.4H.5v.4h.2c.9 0 1 .1 1 .5v6.4c0 .4-.1.6-1 .6H.5V0h3.2v-.3h-.2c-.9 0-1-.2-1-.6v-3.2h3.7v3.2c0 .4 0 .6-1 .6H5V0h3.3v-.3H8c-.8 0-.9-.2-.9-.6zm0 0"/></symbol><symbol overflow="visible" id="l"><path d="M2-8.3l-1.6.1v.4c.8 0 .9 0 .9.7V-1c0 .6-.1.6-1 .6V0H3v-.3c-.8 0-1 0-1-.6zm0 0"/></symbol><symbol overflow="visible" id="m"><path d="M2-4.8h1.4v-.4H2v-1.3c0-1.1.6-1.7 1-1.7l.5.1S3-8 3-7.6c0 .3.2.5.5.5s.5-.2.5-.5c0-.5-.4-.8-1-.8-.9 0-1.8.6-1.8 1.9v1.3h-1v.4h1v4c0 .5-.1.5-1 .5V0h2.9v-.3H3C2-.3 2-.5 2-1zm0 0"/></symbol><symbol overflow="visible" id="n"><path d="M2.7-8c-.1-.2-.1-.2-.4-.2H.5v.4h1.1v6.5c0 .4 0 1-1.1 1V0H3v-.3c-1 0-1-.6-1-1v-6.2l.1.2L6.8-.2c0 .2.1.2.2.2h.1v-7c0-.3 0-.8 1.2-.8v-.4H5.7v.4c1.1 0 1.1.5 1.1.9v5.2zm0 0"/></symbol><symbol overflow="visible" id="o"><path d="M5.5-2.6c0-1.5-1.2-2.7-2.6-2.7C1.5-5.3.4-4.1.4-2.6.4-1 1.5.1 2.9.1S5.5-1 5.5-2.6zM2.9 0c-.4 0-1-.2-1.3-.8-.3-.6-.3-1.3-.3-1.8 0-.4 0-1.1.3-1.7C2-4.9 2.5-5 3-5c.5 0 1 .2 1.3.7.4.5.4 1.3.4 1.7 0 .5 0 1.2-.3 1.8-.4.5-1 .8-1.4.8zm0 0"/></symbol><symbol overflow="visible" id="p"><path d="M2-2.8C2-3.9 2.5-5 3.4-5h.2c-.1 0-.3 0-.3.4s.2.5.4.5c.3 0 .5-.2.5-.5s-.3-.7-.8-.7C2.4-5.3 2-4.2 2-3.9v-1.4L.2-5v.3c.8 0 1 .1 1 .7V-1c0 .6-.2.6-1 .6V0h2.8v-.3H3C2-.3 2-.5 2-1zm0 0"/></symbol><symbol overflow="visible" id="f"><path d="M3.4-7.7c0-.2 0-.3-.2-.3-.3.4-.9.8-2.1.8v.4c.3 0 .9 0 1.5-.3V-1c0 .4 0 .6-1 .6h-.4V0H5v-.3h-.5c-1 0-1-.2-1-.6zm0 0"/></symbol><symbol overflow="visible" id="z"><path d="M1.4-2.2c.6.4 1 .4 1.2.4 1 0 1.9-.8 1.9-1.7 0-.3-.1-.8-.5-1.2.5-.5 1-.5 1-.5h.2l-.1.4c0 .1 0 .3.3.3 0 0 .3 0 .3-.4 0-.2-.2-.5-.6-.5-.6 0-1.1.4-1.3.6a2 2 0 00-1.2-.5c-1 0-1.9.8-1.9 1.8 0 .6.4 1 .6 1.2-.2.2-.4.5-.4 1 0 .7.4 1 .5 1C1 0 .4.3.4 1c0 .9 1 1.6 2.5 1.6 1.4 0 2.6-.7 2.6-1.6 0-.3 0-1-.8-1.4-.6-.3-1.2-.3-2.2-.3-.8 0-.8 0-1-.2a1 1 0 01-.3-.6l.2-.6zm1.2.2c-1 0-1-1.3-1-1.5l.1-1c.3-.4.6-.5.9-.5 1 0 1 1.2 1 1.5 0 .2 0 .7-.2 1a1 1 0 01-.8.5zM3 2.2c-1.1 0-2-.6-2-1.3 0 0 0-.5.5-.8.3-.2.4-.2 1.2-.2 1 0 2.3 0 2.3 1 0 .7-.9 1.3-2 1.3zm0 0"/></symbol><symbol overflow="visible" id="a"><path d="M.5-8.2v.4h.3c.8 0 .9.1.9.5v6.4c0 .4 0 .6-1 .6H.6V0H5c1.5 0 2.6-1 2.6-2.2 0-1-.8-2-2.3-2 1.2-.3 2-1 2-2s-1-2-2.6-2zm2 3.8v-3c0-.3 0-.4.6-.4h1.5c1.2 0 1.6 1 1.6 1.7s-.6 1.7-1.9 1.7zm.6 4c-.5 0-.5 0-.5-.4v-3.3h2.2c1.1 0 1.7 1 1.7 1.9 0 1-.7 1.9-1.9 1.9zm0 0"/></symbol><symbol overflow="visible" id="b"><path d="M4.6-2.8c.2 0 .3 0 .3-.2 0-1.2-.7-2.3-2.1-2.3C1.4-5.3.4-4.1.4-2.6.4-1 1.6 0 2.9 0a2 2 0 002-1.5l-.2-.1h-.1C4.3-.4 3.5 0 3 0S1.3-.5 1.3-2.5v-.3zM1.3-3c0-1.9 1.1-2 1.5-2C4-5 4-3.5 4-3zm0 0"/></symbol><symbol overflow="visible" id="d"><path d="M4.6-3.2c0-.6 0-1.1-.5-1.6-.4-.4-1-.5-1.5-.5-1 0-1.7.6-1.7 1.4 0 .3.2.5.5.5s.5-.2.5-.5c0-.5-.5-.5-.6-.5.2-.5.8-.7 1.3-.7s1.2.5 1.2 1.5v.5C1.4-3 .5-2 .5-1S1.6 0 2.4 0c.7 0 1.3-.5 1.5-1 0 .5.4 1 1 1 .2 0 .9-.2.9-1.2v-.6h-.3v.6c0 .7-.3.8-.4.8-.5 0-.5-.6-.5-.8zm-.8 1.5C3.8-.5 3 0 2.5 0c-.6 0-1.1-.4-1.1-1 0-1.6 2-1.7 2.4-1.8zm0 0"/></symbol><symbol overflow="visible" id="F"><path d="M2-7.4c0-.3-.2-.6-.5-.6s-.6.3-.6.6c0 .4.3.6.6.6.4 0 .6-.3.6-.6zM.5-5v.3c.8 0 .9 0 .9.7V-1c0 .6-.1.6-1 .6V0H3v-.3C2-.3 2-.4 2-1v-4.4zm0 0"/></symbol><symbol overflow="visible" id="w"><path d="M8-3.9c.2 0 .5 0 .5-.2s-.3-.2-.4-.2H1c-.2 0-.5 0-.5.2s.2.2.4.2zm0 2.2c.2 0 .5 0 .5-.2S8.2-2 8-2H1c-.2 0-.5 0-.5.2s.2.2.4.2zm0 0"/></symbol><symbol overflow="visible" id="x"><path d="M3.3-2.8l1.1-1.4c.5-.5 1-.6 1.5-.6v-.4H3.8v.4c.1 0 .3.1.3.4 0 .2 0 .3-.2.4l-.7 1-1-1.3v-.2s0-.3.4-.3v-.4H.2v.4c.6 0 .8 0 1 .3l1.5 1.9v.1l-1 1.4c-.5.6-1 .7-1.6.8V0h2v-.3C2-.3 2-.6 2-.7c0-.2 0-.3.2-.5l.8-1L4-1l.2.4s-.1.2-.4.3V0H6v-.3c-.6 0-.8 0-1-.5zm0 0"/></symbol><symbol overflow="visible" id="y"><path d="M3 2c-.8 0-1 0-1-.6v-2c.2.3.7.7 1.5.7C4.9.1 6-1 6-2.6 6-4 5-5.3 3.6-5.3a2 2 0 00-1.6.8v-.8L.3-5v.3c.9 0 1 .1 1 .6v5.6c0 .6-.2.6-1 .6v.3H3zM2-3.8l.2-.5c.3-.5.9-.7 1.3-.7 1 0 1.7 1 1.7 2.4S4.3 0 3.4 0c-.3 0-.7-.2-1-.4C2.3-.8 2-1 2-1.3zm0 0"/></symbol><symbol overflow="visible" id="B"><path d="M4.8-2.8H8c.1 0 .4 0 .4-.2s-.3-.2-.4-.2H4.8v-3.3c0-.2 0-.4-.3-.4-.2 0-.2.2-.2.4v3.3H1c-.1 0-.4 0-.4.2s.2.2.4.2h3.3V.5c0 .2 0 .4.2.4.3 0 .3-.2.3-.4zm0 0"/></symbol><symbol overflow="visible" id="i"><path d="M2.3 0c0-.6-.2-1.2-.7-1.2-.4 0-.6.4-.6.6 0 .3.2.6.6.6.2 0 .3 0 .4-.2V0a3 3 0 01-.7 2l-.1.2.1.1c.1 0 1-.9 1-2.3zm0 0"/></symbol><symbol overflow="visible" id="g"><path d="M2.2-.6c0-.3-.3-.6-.6-.6S1-.9 1-.6c0 .4.3.6.6.6.4 0 .6-.3.6-.6zm0 0"/></symbol><symbol overflow="visible" id="t"><path d="M5.1-8.2v-.1c-.2 0-.2 0-.2.2l-.7 2.6v.2H4C2-5 .6-3.5.6-2c0 1.3 1 2 2.2 2.1l-.3 1.2-.2 1v.1h.2l.1-.5.5-1.8C5 .1 6.7-1.6 6.7-3c0-1.2-1-2.1-2.3-2.2zM4.4-5c.8 0 1.5.5 1.5 1.7C6-2 5-.3 3.1 0zM2.9 0c-.6 0-1.6-.3-1.6-1.6 0-1.6 1-3.2 2.8-3.3zm0 0"/></symbol><symbol overflow="visible" id="u"><path d="M5.3-6c0-1.2-.4-2.4-1.4-2.4C2.3-8.4.5-5 .5-2.3.5-1.7.5.1 1.9.1 3.5.1 5.3-3.3 5.3-6zM1.7-4.3C1.9-5 2-6 2.6-7c.4-.7.8-1.3 1.3-1.3.4 0 .7.4.7 1.5 0 .4 0 1-.4 2.4zM4-4c-.3 1.2-.5 2-1 2.7C2.8-.7 2.4-.1 2-.1c-.4 0-.7-.3-.7-1.5 0-.8.2-1.6.4-2.4zm0 0"/></symbol><symbol overflow="visible" id="I"><path d="M8.6-4l-.1-.4s-.2.1-.2.3c0 1.2-.8 1.8-1.7 1.8-.7 0-1.3-.5-1.9-1-.6-.5-1.2-1-2-1-1.3 0-2 1.2-2 2.3l.1.4c.2 0 .2-.2.2-.3 0-1.3 1-1.8 1.7-1.8s1.3.5 1.9 1c.6.6 1.2 1.1 2 1.1 1.3 0 2-1.3 2-2.4zm0 0"/></symbol><symbol overflow="visible" id="A"><path d="M1.6-1.3l.1-.5.1-.4.6-.8.8-.3c.3 0 .5.2.5.5l-.2.8-.2 1-.1.4-.1.4c0 .2.1.3.2.3.2 0 .3-.1.3-.2l.2-.5.1-.7.2-.5c0-.5 0-.5.3-.7.2-.4.6-.8 1.1-.8.3 0 .5.2.5.5 0 .5-.3 1.4-.5 1.8v.4c0 .5.3.7.6.7C7 0 7.2-1 7.2-1.1v-.1H7c-.2.7-.5 1-.9 1L6-.3V-1c.2-.3.6-1.2.6-1.6 0-.6-.4-1-1-1s-1 .4-1.4.9c0-.7-.6-.8-1-.8-.3 0-.8.1-1.3.7 0-.5-.4-.7-.8-.7-.3 0-.5.2-.6.4l-.3.8.2.1.1-.2c.1-.4.3-.9.6-.9.2 0 .3.2.3.4l-.1.5-.2.7L.8-.5l-.1.3c0 .2.2.3.3.3l.3-.2.1-.5zm0 0"/></symbol><symbol overflow="visible" id="D"><path d="M4.4-3h.3l.1-.2c0-.2-.2-.2-.3-.2h-2C1.3-3.4.3-2.2.3-1.2.3-.4 1 0 1.6 0c1 0 2.1-1 2.1-2.2l-.2-.8zM1.6 0C1.2-.1 1-.4 1-1c0-.3.2-2 1.5-2 .7 0 .7.7.7.8 0 .9-.5 2-1.5 2zm0 0"/></symbol><symbol overflow="visible" id="v"><path d="M2.4-5c0-.1-.1-.3-.3-.3-.2 0-.5.2-.5.5 0 .1.1.3.3.3.2 0 .5-.2.5-.5zM1.2-2L.8-1l-.1.4c0 .4.3.7.7.7.8 0 1.1-1.1 1.1-1.2v-.1h-.2c-.2.7-.5 1-.9 1l-.1-.2.1-.6.3-.6.2-.7.2-.5c0-.4-.4-.7-.8-.7-.7 0-1 1-1 1.2v.1l.2-.1c.2-.8.6-1 .8-1 .1 0 .2 0 .2.3v.4zm0 0"/></symbol><symbol overflow="visible" id="E"><path d="M1.5-.1c0 .5-.1 1-.6 1.4v.2c.1 0 .8-.6.8-1.5 0-.5-.2-.9-.5-.9s-.5.2-.5.4c0 .3.2.5.5.5l.3-.1zm0 0"/></symbol><symbol overflow="visible" id="C"><path d="M6.5-8.6c-.6.5-1.3.8-1.9.8-.4 0-.8-.2-1.2-.4-.4-.2-.7-.4-1.2-.4-.3 0-.6 0-.9.2a5 5 0 00-.7.4l-.6.5.2.2C.8-7.8 1.4-8 2-8c.5 0 .8.2 1.2.4.4.2.8.4 1.2.4.3 0 .6 0 1-.2l.6-.4.6-.5zm0 0"/></symbol><symbol overflow="visible" id="G"><path d="M5.6-1.8c.1 0 .3 0 .3-.2s-.2-.2-.3-.2H1c-.1 0-.3 0-.3.2s.2.2.3.2zm0 0"/></symbol><symbol overflow="visible" id="H"><path d="M2.5-5c0-.3 0-.3-.2-.3-.4.3-.8.5-1.5.5v.3c.2 0 .6 0 1-.2v4c0 .3 0 .4-.7.4H.8V0h2.8v-.3h-.3c-.8 0-.8 0-.8-.4zm0 0"/></symbol></defs><g transform="translate(-32.3 -219.3)"><use xlink:href="#a" x="139.4" y="369.8" width="100%" height="100%"/><use xlink:href="#b" x="147.7" y="369.8" width="100%" height="100%"/><use xlink:href="#c" x="152.9" y="369.8" width="100%" height="100%"/><use xlink:href="#d" x="157.5" y="369.8" width="100%" height="100%"/></g><g transform="translate(-32.3 -219.3)"><use xlink:href="#e" x="165.3" y="369.8" width="100%" height="100%"/><use xlink:href="#f" x="169.9" y="369.8" width="100%" height="100%"/></g><use xlink:href="#g" x="175.7" y="369.8" width="100%" height="100%" transform="translate(-32.3 -219.3)"/><use xlink:href="#h" x="179" y="369.8" width="100%" height="100%" transform="translate(-32.3 -219.3)"/><use xlink:href="#i" x="184.8" y="369.8" width="100%" height="100%" transform="translate(-32.3 -219.3)"/><use xlink:href="#f" x="190.1" y="369.8" width="100%" height="100%" transform="translate(-32.3 -219.3)"/><use xlink:href="#g" x="195.9" y="369.8" width="100%" height="100%" transform="translate(-32.3 -219.3)"/><g transform="translate(-32.3 -219.3)"><use xlink:href="#h" x="199.2" y="369.8" width="100%" height="100%"/><use xlink:href="#j" x="205" y="369.8" width="100%" height="100%"/></g><g transform="translate(-6.8 -219.3)"><use xlink:href="#k" x="215.5" y="369.8" width="100%" height="100%"/><use xlink:href="#d" x="224.3" y="369.8" width="100%" height="100%"/><use xlink:href="#l" x="230.1" y="369.8" width="100%" height="100%"/><use xlink:href="#m" x="233.4" y="369.8" width="100%" height="100%"/><use xlink:href="#n" x="236.9" y="369.8" width="100%" height="100%"/><use xlink:href="#o" x="245.7" y="369.8" width="100%" height="100%"/><use xlink:href="#p" x="251.6" y="369.8" width="100%" height="100%"/><use xlink:href="#q" x="256.1" y="369.8" width="100%" height="100%"/><use xlink:href="#d" x="265.9" y="369.8" width="100%" height="100%"/><use xlink:href="#l" x="271.7" y="369.8" width="100%" height="100%"/></g><g transform="translate(-6.8 -219.3)"><use xlink:href="#e" x="277" y="369.8" width="100%" height="100%"/><use xlink:href="#r" x="281.5" y="369.8" width="100%" height="100%"/></g><use xlink:href="#i" x="287.4" y="369.8" width="100%" height="100%" transform="translate(-6.8 -219.3)"/><g transform="translate(-6.8 -219.3)"><use xlink:href="#f" x="292.6" y="369.8" width="100%" height="100%"/><use xlink:href="#j" x="298.5" y="369.8" width="100%" height="100%"/></g><g transform="translate(27.7 -219.3)"><use xlink:href="#s" x="308.9" y="369.8" width="100%" height="100%"/><use xlink:href="#d" x="318.1" y="369.8" width="100%" height="100%"/><use xlink:href="#q" x="324" y="369.8" width="100%" height="100%"/><use xlink:href="#q" x="333.7" y="369.8" width="100%" height="100%"/><use xlink:href="#d" x="343.5" y="369.8" width="100%" height="100%"/></g><g transform="translate(27.7 -219.3)"><use xlink:href="#e" x="351.3" y="369.8" width="100%" height="100%"/><use xlink:href="#h" x="355.9" y="369.8" width="100%" height="100%"/></g><use xlink:href="#i" x="361.7" y="369.8" width="100%" height="100%" transform="translate(27.7 -219.3)"/><g transform="translate(27.7 -219.3)"><use xlink:href="#h" x="367" y="369.8" width="100%" height="100%"/><use xlink:href="#j" x="372.8" y="369.8" width="100%" height="100%"/></g><g transform="translate(53.2 -219.3)"><use xlink:href="#k" x="383.3" y="369.8" width="100%" height="100%"/><use xlink:href="#d" x="392" y="369.8" width="100%" height="100%"/><use xlink:href="#l" x="397.9" y="369.8" width="100%" height="100%"/><use xlink:href="#m" x="401.1" y="369.8" width="100%" height="100%"/><use xlink:href="#n" x="404.7" y="369.8" width="100%" height="100%"/><use xlink:href="#o" x="413.5" y="369.8" width="100%" height="100%"/><use xlink:href="#p" x="419.4" y="369.8" width="100%" height="100%"/><use xlink:href="#q" x="423.9" y="369.8" width="100%" height="100%"/><use xlink:href="#d" x="433.7" y="369.8" width="100%" height="100%"/><use xlink:href="#l" x="439.5" y="369.8" width="100%" height="100%"/></g><g transform="translate(53.2 -219.3)"><use xlink:href="#e" x="444.8" y="369.8" width="100%" height="100%"/><use xlink:href="#r" x="449.3" y="369.8" width="100%" height="100%"/></g><use xlink:href="#i" x="455.2" y="369.8" width="100%" height="100%" transform="translate(53.2 -219.3)"/><g transform="translate(53.2 -219.3)"><use xlink:href="#h" x="460.4" y="369.8" width="100%" height="100%"/><use xlink:href="#j" x="466.3" y="369.8" width="100%" height="100%"/></g><use height="100%" width="100%" y="504" x="296.8" xlink:href="#t" transform="translate(-106.3 8.7)"/><use height="100%" width="100%" y="504" x="307.6" xlink:href="#u" transform="translate(76.7 17.7)"/><use xlink:href="#u" x="258.9" y="645.8" width="100%" height="100%" transform="translate(68.3 -233.1)"/><use xlink:href="#v" x="264.3" y="647.5" width="100%" height="100%" transform="translate(68.3 -233.1)"/><use xlink:href="#w" x="271" y="645.8" width="100%" height="100%" transform="translate(68.3 -233.1)"/><g transform="translate(68.3 -233.1)"><use xlink:href="#b" x="283.5" y="645.8" width="100%" height="100%"/><use xlink:href="#x" x="288.7" y="645.8" width="100%" height="100%"/><use xlink:href="#y" x="294.8" y="645.8" width="100%" height="100%"/><use xlink:href="#e" x="301.3" y="645.8" width="100%" height="100%"/><use xlink:href="#l" x="305.9" y="645.8" width="100%" height="100%"/><use xlink:href="#o" x="309.1" y="645.8" width="100%" height="100%"/><use xlink:href="#z" x="315" y="645.8" width="100%" height="100%"/></g><use xlink:href="#e" x="321" y="645.8" width="100%" height="100%" transform="translate(68.3 -233.1)"/><use xlink:href="#u" x="325.6" y="645.8" width="100%" height="100%" transform="translate(68.3 -233.1)"/><use xlink:href="#A" x="331" y="647.5" width="100%" height="100%" transform="translate(68.3 -233.1)"/><use xlink:href="#j" x="339" y="645.8" width="100%" height="100%" transform="translate(68.3 -233.1)"/><use xlink:href="#B" x="346.2" y="645.8" width="100%" height="100%" transform="translate(68.3 -233.1)"/><use xlink:href="#C" x="358.5" y="642.6" width="100%" height="100%" transform="translate(68.3 -233.1)"/><use xlink:href="#u" x="358" y="645.8" width="100%" height="100%" transform="translate(68.3 -233.1)"/><use xlink:href="#v" x="363.4" y="647.5" width="100%" height="100%" transform="translate(68.3 -233.1)"/><use xlink:href="#u" x="370.7" y="645.8" width="100%" height="100%" transform="translate(68.3 -233.1)"/><use xlink:href="#D" x="376.2" y="647.5" width="100%" height="100%" transform="translate(68.3 -233.1)"/><use xlink:href="#j" x="381.8" y="645.8" width="100%" height="100%" transform="translate(68.3 -233.1)"/><use xlink:href="#t" x="223.9" y="665.9" width="100%" height="100%" transform="translate(-163.1 -255)"/><g transform="translate(-163.1 -255)"><use xlink:href="#v" x="230.8" y="667.7" width="100%" height="100%"/><use xlink:href="#E" x="233.7" y="667.7" width="100%" height="100%"/><use xlink:href="#v" x="236.1" y="667.7" width="100%" height="100%"/></g><use xlink:href="#w" x="242.8" y="665.9" width="100%" height="100%" transform="translate(-163.1 -255)"/><g transform="translate(-163.1 -255)"><use xlink:href="#l" x="255.2" y="665.9" width="100%" height="100%"/><use xlink:href="#o" x="258.5" y="665.9" width="100%" height="100%"/><use xlink:href="#z" x="264.3" y="665.9" width="100%" height="100%"/><use xlink:href="#F" x="270.2" y="665.9" width="100%" height="100%"/><use xlink:href="#c" x="273.4" y="665.9" width="100%" height="100%"/><use xlink:href="#e" x="278" y="665.9" width="100%" height="100%"/><use xlink:href="#l" x="282.5" y="665.9" width="100%" height="100%"/><use xlink:href="#o" x="285.8" y="665.9" width="100%" height="100%"/><use xlink:href="#z" x="291.6" y="665.9" width="100%" height="100%"/><use xlink:href="#F" x="297.5" y="665.9" width="100%" height="100%"/><use xlink:href="#c" x="300.7" y="665.9" width="100%" height="100%"/></g><use xlink:href="#G" x="305.3" y="660.7" width="100%" height="100%" transform="translate(-163.1 -255)"/><use xlink:href="#H" x="311.9" y="660.7" width="100%" height="100%" transform="translate(-163.1 -255)"/><use xlink:href="#e" x="316.6" y="665.9" width="100%" height="100%" transform="translate(-163.1 -255)"/><use xlink:href="#t" x="321.1" y="665.9" width="100%" height="100%" transform="translate(-163.1 -255)"/><use xlink:href="#A" x="328.1" y="667.7" width="100%" height="100%" transform="translate(-163.1 -255)"/><use xlink:href="#j" x="336.1" y="665.9" width="100%" height="100%" transform="translate(-163.1 -255)"/><use xlink:href="#B" x="343.3" y="665.9" width="100%" height="100%" transform="translate(-163.1 -255)"/><use xlink:href="#C" x="356.1" y="662.7" width="100%" height="100%" transform="translate(-163.1 -255)"/><use xlink:href="#t" x="355" y="665.9" width="100%" height="100%" transform="translate(-163.1 -255)"/><use xlink:href="#v" x="362" y="667.7" width="100%" height="100%" transform="translate(-163.1 -255)"/><use xlink:href="#t" x="369.2" y="665.9" width="100%" height="100%" transform="translate(-163.1 -255)"/><use xlink:href="#D" x="376.2" y="667.7" width="100%" height="100%" transform="translate(-163.1 -255)"/><use xlink:href="#j" x="381.8" y="665.9" width="100%" height="100%" transform="translate(-163.1 -255)"/><path d="M27.9 190.2h494.6M27.9 371.7h494.6" fill="none" stroke="#a6a3a6" stroke-width="1.2" stroke-linejoin="round" stroke-dasharray="12.21888176,12.21888176"/><path d="M129.5 472h8.4l4.2 138.3h100.8l4.2-138.3h42l4.3 138.3h16.8l4.2-138.3H327l4.2 138.3h4.2l4.2-138.3h117.7" fill="none" stroke="#a6a3a6" stroke-width="2" stroke-linejoin="round" stroke-miterlimit="10"/><path d="M135.6 491.5c0 2.6-3.9 2.6-3.9 0s4-2.6 4 0M139.8 473c0 2.5-3.9 2.5-3.9 0 0-2.7 4-2.7 4 0M144 591.2c0 2.6-3.9 2.6-3.9 0s4-2.6 4 0M148.2 559.8c0 2.6-3.9 2.6-3.9 0s4-2.6 4 0M152.4 608.2c0 2.6-3.9 2.6-3.9 0s4-2.6 4 0M156.6 609.8c0 2.6-3.9 2.6-3.9 0s4-2.6 4 0M160.8 554.5c0 2.6-3.9 2.6-3.9 0s4-2.6 4 0M165 597.8c0 2.6-3.9 2.6-3.9 0s4-2.6 4 0M169.2 600.6c0 2.6-3.9 2.6-3.9 0s4-2.6 4 0M173.4 595c0 2.6-3.9 2.6-3.9 0s4-2.6 4 0M177.6 597c0 2.6-3.9 2.6-3.9 0s4-2.6 4 0M186 595.7c0 2.6-3.9 2.6-3.9 0s4-2.6 4 0M190.3 608.2c0 2.6-4 2.6-4 0s4-2.6 4 0M194.5 602.8c0 2.7-4 2.7-4 0 0-2.6 4-2.6 4 0M198.7 600.4c0 2.6-4 2.6-4 0s4-2.6 4 0M202.9 572c0 2.7-4 2.7-4 0 0-2.5 4-2.5 4 0M207 599.7c0 2.6-3.8 2.6-3.8 0s3.9-2.6 3.9 0M211.3 590.5c0 2.6-4 2.6-4 0s4-2.6 4 0M215.5 608.6c0 2.6-4 2.6-4 0s4-2.6 4 0M219.7 607.6c0 2.6-4 2.6-4 0s4-2.6 4 0M223.9 605.1c0 2.6-4 2.6-4 0s4-2.6 4 0M228 599.5c0 2.6-3.8 2.6-3.8 0s3.9-2.6 3.9 0M232.3 602.3c0 2.6-4 2.6-4 0s4-2.6 4 0M236.5 576.7c0 2.6-4 2.6-4 0 0-2.7 4-2.7 4 0M240.7 573c0 2.6-4 2.6-4 0s4-2.6 4 0M244.9 563c0 2.7-4 2.7-4 0 0-2.5 4-2.5 4 0M249.1 536c0 2.7-4 2.7-4 0 0-2.5 4-2.5 4 0M253.3 490c0 2.5-4 2.5-4 0 0-2.7 4-2.7 4 0M257.5 484.7c0 2.6-4 2.6-4 0s4-2.6 4 0M261.7 484.4c0 2.6-3.9 2.6-3.9 0s4-2.6 4 0M266 473.5c0 2.6-4 2.6-4 0s4-2.6 4 0M270.1 529.9c0 2.6-3.9 2.6-3.9 0s4-2.6 4 0M274.3 515.6c0 2.6-3.9 2.6-3.9 0s4-2.6 4 0M278.5 482.3c0 2.6-3.9 2.6-3.9 0 0-2.7 4-2.7 4 0M282.7 498.5c0 2.6-3.9 2.6-3.9 0s4-2.6 4 0M287 473.5c0 2.6-4 2.6-4 0s4-2.6 4 0M291.1 491.5c0 2.6-3.9 2.6-3.9 0s4-2.6 4 0M295.3 595.8c0 2.6-3.9 2.6-3.9 0s4-2.6 4 0M299.5 585.8c0 2.7-3.9 2.7-3.9 0 0-2.6 4-2.6 4 0M303.7 569.6c0 2.6-3.9 2.6-3.9 0s4-2.6 4 0M308 579.8c0 2.6-4 2.6-4 0s4-2.6 4 0M312.1 593.8c0 2.6-3.9 2.6-3.9 0s4-2.6 4 0M316.3 475.3c0 2.6-3.9 2.6-3.9 0s4-2.6 4 0M320.6 526.5c0 2.6-4 2.6-4 0s4-2.6 4 0M324.8 507.8c0 2.6-4 2.6-4 0s4-2.6 4 0M329 499.3c0 2.6-4 2.6-4 0s4-2.6 4 0M333.2 609c0 2.6-4 2.6-4 0 0-2.7 4-2.7 4 0M337.4 576.2c0 2.6-4 2.6-4 0s4-2.6 4 0M341.6 481.5c0 2.6-4 2.6-4 0s4-2.6 4 0M345.8 475.5c0 2.6-4 2.6-4 0s4-2.6 4 0M350 504c0 2.6-4 2.6-4 0s4-2.6 4 0M354.2 481.4c0 2.6-4 2.6-4 0s4-2.6 4 0M358.4 503c0 2.6-4 2.6-4 0s4-2.6 4 0M362.6 488.9c0 2.6-4 2.6-4 0s4-2.6 4 0M366.8 477.6c0 2.6-4 2.6-4 0s4-2.6 4 0M371 481.2c0 2.6-4 2.6-4 0s4-2.6 4 0M375.2 472.4c0 2.6-4 2.6-4 0s4-2.6 4 0M383.6 495.7c0 2.6-4 2.6-4 0s4-2.6 4 0M394 495c0 2.7-3.9 2.7-3.9 0 0-2.6 4-2.6 4 0M398.2 502.2c0 2.6-3.9 2.6-3.9 0s4-2.6 4 0M400.4 477.2c0 2.6-3.9 2.6-3.9 0s4-2.6 4 0M404.6 476.4c0 2.6-3.9 2.6-3.9 0s4-2.6 4 0M408.8 487.8c0 2.7-3.9 2.7-3.9 0 0-2.6 4-2.6 4 0M413 485.8c0 2.6-3.9 2.6-3.9 0s4-2.6 4 0M417.2 480.3c0 2.6-3.9 2.6-3.9 0s4-2.6 4 0M421.4 485c0 2.5-3.9 2.5-3.9 0 0-2.7 4-2.7 4 0M425.6 499.9c0 2.6-3.9 2.6-3.9 0s4-2.6 4 0M429.8 480.8c0 2.6-3.9 2.6-3.9 0s4-2.6 4 0M434 497.4c0 2.6-3.9 2.6-3.9 0s4-2.6 4 0M438.2 479.6c0 2.6-3.9 2.6-3.9 0s4-2.6 4 0M442.4 493.5c0 2.6-3.9 2.6-3.9 0s4-2.6 4 0M446.6 490c0 2.6-3.9 2.6-3.9 0s4-2.6 4 0M455 480c0 2.6-3.9 2.6-3.9 0s4-2.6 4 0M131.9 478.4c0 2.6-4 2.6-4 0s4-2.6 4 0" fill="#b56b75" stroke="#b56b75" stroke-width=".7" stroke-linecap="round" stroke-linejoin="round" stroke-miterlimit="10"/><path d="M387.5 504.5v-27.3" fill="none" stroke="#4a4747" stroke-linejoin="round"/><path d="M387.5 509.8l3-7.5-3 1.8-3-1.8zm0 0M387.5 471.9l3 7.5-3-1.8-3 1.8zm0 0" fill="#4a4747"/><path d="M237.6 520.4h-88" fill="none" stroke="#4a4747" stroke-linejoin="round"/><path d="M243 520.4l-7.5-3 1.7 3-1.7 3zm0 0M144.3 520.4l7.5-3-1.8 3 1.8 3zm0 0" fill="#4a4747"/><g><path d="M78.2 422.3l18.1 18" fill="none" stroke="#a6a3a6" stroke-width="2" stroke-linejoin="round"/><path d="M91.8 442.8l9.6 2.6-2.5-9.6zm0 0" fill="#a6a3a6"/></g><g><path d="M333.2 421.9l18.1 18.1" fill="none" stroke="#a6a3a6" stroke-width="2" stroke-linejoin="round"/><path d="M346.8 442.5l9.6 2.6-2.6-9.7zm0 0" fill="#a6a3a6"/></g><text y="24.3" x="269.9" style="line-height:1.25;-inkscape-font-specification:'Adobe Garamond Pro, Normal';font-variant-ligatures:normal;font-variant-caps:normal;font-variant-numeric:normal;font-feature-settings:normal;text-align:center" font-weight="400" font-size="14" font-family="Adobe Garamond Pro" letter-spacing="0" word-spacing="0" text-anchor="middle" stroke-width=".8"><tspan style="-inkscape-font-specification:'Adobe Garamond Pro, Normal';font-variant-ligatures:normal;font-variant-caps:normal;font-variant-numeric:normal;font-feature-settings:normal;text-align:center" y="24.3" x="269.9" font-size="20">Multilevel Hidden Markov Model (non-centered parameterization)</tspan></text><g fill="#211e1e"><text style="line-height:1.25;-inkscape-font-specification:'Adobe Garamond Pro, Normal';font-variant-ligatures:normal;font-variant-caps:normal;font-variant-numeric:normal;font-feature-settings:normal;text-align:center" x="30.3" y="-5.3" font-weight="400" font-size="14" font-family="Adobe Garamond Pro" letter-spacing="0" word-spacing="0" text-anchor="middle" fill="#000" stroke-width=".8" transform="translate(8.7 85)"><tspan x="30.3" y="-5.3" style="-inkscape-font-specification:'Adobe Garamond Pro, Normal';font-variant-ligatures:normal;font-variant-caps:normal;font-variant-numeric:normal;font-feature-settings:normal;text-align:center">Population</tspan><tspan x="30.3" y="12.2" style="-inkscape-font-specification:'Adobe Garamond Pro, Normal';font-variant-ligatures:normal;font-variant-caps:normal;font-variant-numeric:normal;font-feature-settings:normal;text-align:center">Parameter</tspan><tspan x="30.3" y="29.7" style="-inkscape-font-specification:'Adobe Garamond Pro, Normal';font-variant-ligatures:normal;font-variant-caps:normal;font-variant-numeric:normal;font-feature-settings:normal;text-align:center">Priors</tspan></text></g><g fill="#211e1e"><text style="line-height:1.25;-inkscape-font-specification:'Adobe Garamond Pro, Normal';font-variant-ligatures:normal;font-variant-caps:normal;font-variant-numeric:normal;font-feature-settings:normal;text-align:center" x="30.3" y="-5.3" font-weight="400" font-size="14" font-family="Adobe Garamond Pro" letter-spacing="0" word-spacing="0" text-anchor="middle" fill="#000" stroke-width=".8" transform="translate(8.7 251.6)"><tspan x="30.3" y="-5.3" style="-inkscape-font-specification:'Adobe Garamond Pro, Normal';font-variant-ligatures:normal;font-variant-caps:normal;font-variant-numeric:normal;font-feature-settings:normal;text-align:center">Population</tspan><tspan x="30.3" y="12.2" style="-inkscape-font-specification:'Adobe Garamond Pro, Normal';font-variant-ligatures:normal;font-variant-caps:normal;font-variant-numeric:normal;font-feature-settings:normal;text-align:center">Level</tspan></text></g><g fill="#211e1e"><text style="line-height:1.25;-inkscape-font-specification:'Adobe Garamond Pro, Normal';font-variant-ligatures:normal;font-variant-caps:normal;font-variant-numeric:normal;font-feature-settings:normal;text-align:center" x="30.3" y="-5.3" font-weight="400" font-size="14" font-family="Adobe Garamond Pro" letter-spacing="0" word-spacing="0" text-anchor="middle" fill="#000" stroke-width=".8" transform="translate(9 470.5)"><tspan x="30.3" y="-5.3" style="-inkscape-font-specification:'Adobe Garamond Pro, Normal';font-variant-ligatures:normal;font-variant-caps:normal;font-variant-numeric:normal;font-feature-settings:normal;text-align:center">Subject</tspan><tspan x="30.3" y="12.2" style="-inkscape-font-specification:'Adobe Garamond Pro, Normal';font-variant-ligatures:normal;font-variant-caps:normal;font-variant-numeric:normal;font-feature-settings:normal;text-align:center">Level</tspan></text></g><path d="M93.1 136h97.6M93.5 136V48.3M201 136h98.2M201.4 136V50" fill="none" stroke="#a6a3a6" stroke-width=".8" stroke-linejoin="round" stroke-miterlimit="10"/><path d="M201.4 64.3h1.3l.4.1.3.1h.3l.3.2h.4l.3.2.3.1.3.2.4.1.3.2.3.2.3.2.4.2.3.2.3.2.4.3.3.2.3.3.3.3.4.3.3.3.3.3.3.3.4.3.3.4.3.3.4.4.3.4.3.3.3.4.4.4.3.4.3.4.3.5.4.4.3.4.3.5.3.5.4.4.3.5.3.5.4.5.3.4.3.5.3.5.4.6.3.5.3.5.3.5.4.6.3.5.3.5.4.6.3.5.3.6.3.5.4.6.3.6.3.5.3.6.4.6.6 1.1.3.6.4.6.3.6.3.5 1 1.8.3.6.4.6.3.5.3.6.7 1.2.6 1.1.3.6.7 1.2.3.5.4.6.3.6.3.5.3.6.4.5.3.6.3.6.3.5.4.6.3.5.3.5.4.6.3.5.3.5.3.6.4.5.3.5.3.5.3.5.4.5.3.5.3.5.7 1 .3.4.3.5.4.5.3.4.3.5.3.4.4.5.3.4.3.5.7.8.3.4.3.4.4.4.3.4.6.8.4.4.3.4.3.3.3.4.4.4.3.3.3.4.7.7.3.3.3.3.4.3.3.3.3.4.3.3.4.3.3.2.3.3.3.3.4.3.3.3.3.2.3.3.4.2.6.5.4.3.3.2.6.5.4.2.3.2.3.2.3.2.4.2.6.4.4.2.3.2.6.3.4.2.3.2.3.1.3.2.7.3.3.1.3.2.4.1.3.2h.3l.4.2.3.1.6.3.4.1.6.2.3.1.7.2.3.1.4.1.6.2.3.1.7.2h.3l.3.1.4.1h.3l.3.1.3.1h.4l.3.1.7.2h.6l.3.1h.4l.3.1h.3l.3.1h.4l.3.1h.3l.4.1h.6l.3.1h.4l.3.1h.6l.4.1H275.9l.4.1h.6l.7.1h.6l.7.1h1.3l.7.1H282.5l.3.1H285.8l.3.1h4.6l1 .1h7.5" fill="none" stroke="#a3ccee" stroke-width="3" stroke-linejoin="round" stroke-miterlimit="10"/><path d="M322.6 136h97.6M323 136V48.3M430.5 136h98.2M431 136V50" fill="none" stroke="#a6a3a6" stroke-width=".8" stroke-linejoin="round" stroke-miterlimit="10"/><path d="M431 64.3H432.1l.4.1.3.1h.3l.3.2h.4l.3.2.3.1.3.2.4.1.3.2.3.2.3.2.4.2.3.2.3.2.4.3.3.2.3.3.3.3.4.3.3.3.3.3.3.3.4.3.3.4.3.3.4.4.3.4.3.3.3.4.4.4.3.4.3.4.3.5.4.4.3.4.3.5.3.5.4.4.3.5.3.5.4.5.3.4.3.5.3.5.4.6.3.5.3.5.3.5.4.6.3.5.3.5.4.6.3.5.3.6.3.5.4.6.3.6.3.5.3.6.4.6.6 1.1.3.6.4.6.3.6.3.5 1 1.8.3.6.4.6.3.5.3.6.7 1.2.6 1.1.3.6.7 1.2.3.5.4.6.3.6.3.5.3.6.4.5.3.6.3.6.3.5.4.6.3.5.3.5.4.6.3.5.3.5.3.6.4.5.3.5.3.5.3.5.4.5.3.5.3.5.7 1 .3.4.3.5.4.5.3.4.3.5.3.4.4.5.3.4.3.5.7.8.3.4.3.4.4.4.3.4.6.8.4.4.3.4.3.3.3.4.4.4.3.3.3.4.7.7.3.3.3.3.4.3.3.3.3.4.3.3.4.3.3.2.3.3.3.3.4.3.3.3.3.2.3.3.4.2.6.5.4.3.3.2.6.5.4.2.3.2.3.2.3.2.4.2.6.4.4.2.3.2.6.3.4.2.3.2.3.1.3.2.7.3.3.1.3.2.4.1.3.2h.3l.4.2.3.1.6.3.4.1.6.2.3.1.7.2.3.1.4.1.6.2.3.1.7.2h.3l.3.1.4.1h.3l.3.1.3.1h.4l.3.1.7.2h.6l.3.1h.4l.3.1h.3l.3.1h.4l.3.1h.3l.4.1h.6l.3.1h.4l.3.1h.6l.4.1H505.4l.4.1h.6l.7.1h.6l.7.1h1.3l.7.1H512l.3.1H515.3l.3.1h4.6l1 .1h7.5" fill="none" stroke="#a3ccee" stroke-width="3" stroke-linejoin="round" stroke-miterlimit="10"/><path d="M191 136V48.3" fill="none" stroke="#a6a3a6" stroke-width=".8" stroke-linejoin="round" stroke-miterlimit="10"/><path d="M323 134.7h4.6l.3-.1h.6l.3-.2h.4l.3-.1.3-.1.3-.2.4-.2.3-.2.3-.2.3-.3.4-.3.3-.3.3-.4.3-.4.4-.5.3-.5.3-.6.3-.6.4-.6.3-.8.3-.7.3-.9.4-.8.3-1 .3-1 .3-1 .4-1 .3-1.1.3-1.2.3-1.2.4-1.3.3-1.3.3-1.3.3-1.3.4-1.4.3-1.4.3-1.5.3-1.4.4-1.5.3-1.5.3-1.5.7-3 .3-1.5.3-1.5.3-1.5.4-1.5.3-1.5.3-1.4.3-1.5.4-1.4.3-1.4.3-1.4.3-1.3.4-1.3.3-1.3.3-1.2.3-1.2.3-1.1.4-1.1.3-1.1.3-1 .3-1 .4-.9.3-.9.3-.8.3-.7.4-.7.3-.7.3-.6.3-.6.4-.5.3-.4.3-.4.3-.3.4-.3.3-.2.3-.2.3-.2h1.3l.4.1.3.2.3.2.3.2.4.3.3.3.3.4.3.4.4.4.3.5.3.5.3.5.4.5.3.6.3.7.3.6.4.7.3.6.3.8.3.7.4.7.3.8.3.8.3.8.4.8.3.8.3.8.3.9.4.8.3.9.3.9.3.8.3.9.4.9.3.9.3.8.3 1 .4.8.3.9.3.9.7 1.7.3.9.3.8.3.9.4.8.3.9.3.8.3.8.4.8.3.8.3.8.3.8.4.8.3.8.3.7.3.8.4.7.3.8.3.7.3.7.4.7.3.7.3.6.3.7.4.6.3.7.3.6.3.6.4.6.3.6.3.6.3.5.4.6.3.5.3.5.3.5.4.5.3.5.3.5.3.5.4.4.3.5.3.4.3.4.4.5.3.4.3.3.3.4.4.4.3.4.3.3.3.4.3.3.4.3.3.3.3.3.3.3.4.3.3.3.3.3.3.2.4.3.3.2.3.3.3.2.4.3.3.2.3.2.3.2.4.2.3.2.3.2.3.2.4.1.3.2.3.2.3.1.4.2.3.1.3.2.3.1.4.2h.3l.6.3.4.2h.3l.3.2h.3l.7.3h.3l.3.2.7.1.3.1.3.1.7.2h.3l1 .2h.3l.7.2h.3l.3.1h.3l.4.1h.3l.3.1h.6l1 .2h.7l.6.1h.3l.4.1H409.3l.7.1h.6l.4.1H412.3l.3.1H414.5l.4.1h2.2l1 .1h2M94.7 136.2l.4-28.4.3-4.2.3-2.7.3-2.1.3-1.7.3-1.4.4-1.3.3-1 .3-1 .3-1 .3-.8.4-.7.3-.8.3-.6.3-.7.3-.5.3-.6.4-.5.3-.6.3-.4.3-.5.3-.4.4-.5.3-.4.3-.4.3-.4.3-.3.3-.4.4-.3.3-.4.3-.3.3-.3.3-.3.4-.3.3-.3.3-.2.3-.3.3-.3.3-.2.4-.3.3-.2.6-.5.3-.2.4-.2.3-.2.3-.2.3-.2.7-.4.3-.2.3-.2.3-.2.3-.2.7-.3.3-.2.6-.3.7-.3.3-.1.6-.3.6-.3.7-.3.3-.1.3-.1 1-.4 1-.3.2-.2.7-.2h.3l.3-.2h.3l1-.4.6-.1.3-.1.4-.1h.3l.3-.2h.3l.3-.1.4-.1h.3l1-.3.9-.2.6-.1.7-.1h.3l1-.3h.6l.3-.1h.6l1-.2h.3l.3-.1 1.3-.1.6-.1h1l.3-.1h1l1-.1h.9l1-.1H147l.9.1h1l.3.1h.6l.3.1h.7l1.2.2h.7l1 .2h.2l.4.1h.3l.3.1h.3l1 .2h.3l.6.2.7.1 1 .2.9.2.3.1h.3l.3.2h.3l.4.1.3.1h.3l.3.2.7.1 1 .3.2.1.3.1.4.1.6.2.3.2 1 .3 1 .4h.2l.4.2.6.3.6.3.7.3.3.1.6.3.7.3.3.2.6.3.3.2.4.2.3.2.3.2.6.4.4.2.3.2.3.2.3.2.3.2.7.5.3.2.3.3.3.2.3.3.4.3.3.2.3.3.3.3.3.3.3.3.4.3.3.4.3.3.3.4.3.3.4.4.3.4.3.4.3.5.3.4.3.5.4.4.3.6.3.5.3.6.3.5.4.7.3.6.3.8.3.7.3.9.3.9.4 1 .3 1 .3 1.3.3 1.4.3 1.7.4 2 .3 2.8.3 4.2.3 28.4" fill="none" stroke="#9ec7eb" stroke-width="3" stroke-linejoin="round" stroke-miterlimit="10"/><path d="M138.8 302.9h112.6" fill="none" stroke="#a6a3a6" stroke-width=".8" stroke-linejoin="round" stroke-miterlimit="10"/><path d="M196.4 327.7V386" fill="none" stroke="#a6a3a6" stroke-width="2" stroke-linejoin="round"/><path d="M191.5 384.6l5 8.7 5-8.7zm0 0" fill="#a6a3a6"/><g transform="translate(-44.3 144.3)"><use height="100%" width="100%" y="208.3" x="244.6" xlink:href="#I"/></g><g><g transform="translate(-107.3 -233.3)"><use xlink:href="#n" x="269.1" y="551.4" width="100%" height="100%"/><use xlink:href="#o" x="277.9" y="551.4" width="100%" height="100%"/><use xlink:href="#p" x="283.8" y="551.4" width="100%" height="100%"/><use xlink:href="#q" x="288.3" y="551.4" width="100%" height="100%"/><use xlink:href="#d" x="298.1" y="551.4" width="100%" height="100%"/><use xlink:href="#l" x="303.9" y="551.4" width="100%" height="100%"/></g><g transform="translate(-107.3 -233.3)"><use xlink:href="#e" x="309.2" y="551.4" width="100%" height="100%"/><use xlink:href="#r" x="313.7" y="551.4" width="100%" height="100%"/></g><use xlink:href="#i" x="319.6" y="551.4" width="100%" height="100%" transform="translate(-107.3 -233.3)"/><g transform="translate(-107.3 -233.3)"><use xlink:href="#f" x="324.8" y="551.4" width="100%" height="100%"/><use xlink:href="#j" x="330.7" y="551.4" width="100%" height="100%"/></g></g><path d="M139 301.6h4.4l.4-.1h2.3l.3-.1H148l.8-.1h.4l.3-.1h.8l.4-.1h.3l.4-.1h.4l.4-.1h.4l.3-.1.4-.1.8-.2h.3l.4-.1.4-.1.4-.1.3-.2h.4l.4-.2.4-.1.3-.2.4-.1.4-.2.4-.2.3-.2.4-.1.4-.3.4-.2.3-.2.4-.3.4-.2.4-.3.3-.3.4-.3.4-.3.4-.3.4-.4.3-.4.4-.3.4-.4.4-.5.3-.4.4-.5.4-.5.4-.5.3-.5.4-.6.4-.5.4-.6.3-.7.4-.6.4-.7.4-.7.3-.7.4-.7.4-.8.4-.8.3-.8.4-.8.4-.9.4-.9.3-.9.4-1 .4-.9.4-1 .3-1 .4-1 .4-1 .4-1.1.4-1.1.3-1.1.4-1.1.4-1.2.4-1.1.3-1.2.4-1.2.4-1.2.4-1.2.3-1.2.4-1.3.4-1.2.4-1.3.3-1.2.8-2.5.4-1.2.3-1.3.4-1.2.4-1.3.4-1.2.3-1.2.4-1.2.4-1.2.4-1.1.3-1.2.4-1.1.4-1.1.4-1 .4-1.1.3-1 .4-1 .4-1 .4-1 .3-.8.4-.8.4-.9.4-.7.3-.7.4-.7.4-.6.4-.6.3-.5.4-.5.4-.5.4-.3.3-.4.4-.2.4-.3.4-.1.3-.1H196l.4.2.4.3.4.2.4.4.3.3.4.5.4.5.4.5.3.6.4.6.4.7.4.7.3.7.4.9.4.8.4.9.3.9.4 1 .4 1 .4 1 .3 1 .4 1 .4 1.2.4 1.1.3 1.2.4 1.1.4 1.2.4 1.2.3 1.2.4 1.2.4 1.3.4 1.2.4 1.3.3 1.2.8 2.5.4 1.2.3 1.3.4 1.2.4 1.3.4 1.2.3 1.2.4 1.2.4 1.2.4 1.2.3 1.1.4 1.2.4 1 .4 1.2.3 1 .4 1.2.4 1 .4 1 .3 1 .4 1 .4 1 .4 1 .3.8.4 1 .4.8.4.8.3.8.4.8.4.8.4.7.3.7.4.7.4.7.4.6.4.7.3.6.4.5.4.6.4.5.3.5.4.5.4.5.4.4.3.5.4.4.4.3.4.4.3.4.4.3.4.3.4.3.3.3.4.3.4.2.4.3.3.2.4.2.4.3.4.1.3.2.4.2.4.2.4.1.4.2.3.1.4.1.4.1.4.2h.3l.4.2h.4l.4.1.7.2h.4l.4.1h.3l.4.1.4.1h.7l.4.1h.4l.4.1h.7l.8.1h1.1l.4.1h1.9l.7.1h4.9" fill="none" stroke="#9ec7eb" stroke-width="3" stroke-linejoin="round" stroke-miterlimit="10"/><path d="M218.3 382.7v10l8.6-5zm0 0M154.6 389l8.7 5v-10zm0 0" fill="#a6a3a6"/><path d="M121 160.7s-1.5 107.7 5 148.3c6 36.4 34.3 79.8 34.3 79.8M270 161s3 103.4-10.8 152.5c-7.4 26.6-37.8 73.7-37.8 73.7" fill="none" stroke="#a6a3a6" stroke-width="2"/><g transform="translate(-99.8 144.3)"><use xlink:href="#I" x="244.6" y="208.3" width="100%" height="100%"/></g><g transform="translate(3.7 144.3)"><use height="100%" width="100%" y="208.3" x="244.6" xlink:href="#I"/></g><path d="M371.3 302.9H484" fill="none" stroke="#a6a3a6" stroke-width=".8" stroke-linejoin="round" stroke-miterlimit="10"/><path d="M429 327.7V386" fill="none" stroke="#a6a3a6" stroke-width="2" stroke-linejoin="round"/><path d="M424 384.6l5 8.7 5-8.7zm0 0" fill="#a6a3a6"/><g transform="translate(188.2 144.3)"><use xlink:href="#I" x="244.6" y="208.3" width="100%" height="100%"/></g><g><g transform="translate(125.2 -233.3)"><use height="100%" width="100%" y="551.4" x="269.1" xlink:href="#n"/><use height="100%" width="100%" y="551.4" x="277.9" xlink:href="#o"/><use height="100%" width="100%" y="551.4" x="283.8" xlink:href="#p"/><use height="100%" width="100%" y="551.4" x="288.3" xlink:href="#q"/><use height="100%" width="100%" y="551.4" x="298.1" xlink:href="#d"/><use height="100%" width="100%" y="551.4" x="303.9" xlink:href="#l"/></g><g transform="translate(125.2 -233.3)"><use height="100%" width="100%" y="551.4" x="309.2" xlink:href="#e"/><use height="100%" width="100%" y="551.4" x="313.7" xlink:href="#r"/></g><use height="100%" width="100%" y="551.4" x="319.6" xlink:href="#i" transform="translate(125.2 -233.3)"/><g transform="translate(125.2 -233.3)"><use height="100%" width="100%" y="551.4" x="324.8" xlink:href="#f"/><use height="100%" width="100%" y="551.4" x="330.7" xlink:href="#j"/></g></g><path d="M371.4 301.6h4.5l.4-.1h2.3l.3-.1H380.4l.8-.1h.4l.3-.1h.8l.4-.1h.3l.4-.1h.4l.4-.1h.4l.3-.1.4-.1.8-.2h.3l.4-.1.4-.1.4-.1.3-.2h.4l.4-.2.4-.1.3-.2.4-.1.4-.2.4-.2.3-.2.4-.1.4-.3.4-.2.3-.2.4-.3.4-.2.4-.3.3-.3.4-.3.4-.3.4-.3.4-.4.3-.4.4-.3.4-.4.4-.5.3-.4.4-.5.4-.5.4-.5.3-.5.4-.6.4-.5.4-.6.3-.7.4-.6.4-.7.4-.7.3-.7.4-.7.4-.8.4-.8.3-.8.4-.8.4-.9.4-.9.3-.9.4-1 .4-.9.4-1 .3-1 .4-1 .4-1 .4-1.1.4-1.1.3-1.1.4-1.1.4-1.2.4-1.1.3-1.2.4-1.2.4-1.2.4-1.2.3-1.2.4-1.3.4-1.2.4-1.3.3-1.2.8-2.5.4-1.2.3-1.3.4-1.2.4-1.3.4-1.2.3-1.2.4-1.2.4-1.2.4-1.1.3-1.2.4-1.1.4-1.1.4-1 .4-1.1.3-1 .4-1 .4-1 .4-1 .3-.8.4-.8.4-.9.4-.7.3-.7.4-.7.4-.6.4-.6.3-.5.4-.5.4-.5.4-.3.3-.4.4-.2.4-.3.4-.1.3-.1H428.5l.4.2.4.3.4.2.4.4.3.3.4.5.4.5.4.5.3.6.4.6.4.7.4.7.3.7.4.9.4.8.4.9.3.9.4 1 .4 1 .4 1 .3 1 .4 1 .4 1.2.4 1.1.3 1.2.4 1.1.4 1.2.4 1.2.3 1.2.4 1.2.4 1.3.4 1.2.4 1.3.3 1.2.8 2.5.4 1.2.3 1.3.4 1.2.4 1.3.4 1.2.3 1.2.4 1.2.4 1.2.4 1.2.3 1.1.4 1.2.4 1 .4 1.2.3 1 .4 1.2.4 1 .4 1 .3 1 .4 1 .4 1 .4 1 .3.8.4 1 .4.8.4.8.3.8.4.8.4.8.4.7.3.7.4.7.4.7.4.6.4.7.3.6.4.5.4.6.4.5.3.5.4.5.4.5.4.4.3.5.4.4.4.3.4.4.3.4.4.3.4.3.4.3.3.3.4.3.4.2.4.3.3.2.4.2.4.3.4.1.3.2.4.2.4.2.4.1.4.2.3.1.4.1.4.1.4.2h.3l.4.2h.4l.4.1.7.2h.4l.4.1h.3l.4.1.4.1h.7l.4.1h.4l.4.1h.7l.8.1h1.1l.4.1h1.9l.7.1h4.9" fill="none" stroke="#9ec7eb" stroke-width="3" stroke-linejoin="round" stroke-miterlimit="10"/><path d="M450.8 382.7v10l8.6-5zm0 0M387.1 389l8.7 5v-10zm0 0" fill="#a6a3a6"/><path d="M353.4 160.7S352 268.4 358.6 309c5.8 36.4 34.2 79.8 34.2 79.8M502.4 161s3 103.4-10.7 152.5c-7.4 26.6-37.8 73.7-37.8 73.7" fill="none" stroke="#a6a3a6" stroke-width="2"/><g transform="translate(132.7 144.3)"><use height="100%" width="100%" y="208.3" x="244.6" xlink:href="#I"/></g><g transform="translate(236.2 144.3)"><use xlink:href="#I" x="244.6" y="208.3" width="100%" height="100%"/></g></svg>