<svg xmlns="http://www.w3.org/2000/svg" xmlns:xlink="http://www.w3.org/1999/xlink" viewBox="0 0 773.5 683.2" version="1.2"><defs><symbol overflow="visible" id="q"><path d="M2.7-8c-.1-.2-.1-.2-.4-.2H.5v.4h1.1v6.5c0 .4 0 1-1.1 1V0H3v-.3c-1 0-1-.6-1-1v-6.2l.1.2L6.8-.2c0 .2.1.2.2.2h.1v-7c0-.3 0-.8 1.2-.8v-.4H5.7v.4c1.1 0 1.1.5 1.1.9v5.2zm0 0"/></symbol><symbol overflow="visible" id="a"><path d="M2.6-7.3c0-.4 0-.5 1-.5h.2v-.4H.4v.4h.3c.9 0 1 .1 1 .5v6.4c0 .4-.1.6-1 .6H.4V0h3.4v-.3h-.3c-.9 0-1-.2-1-.6zm0 0"/></symbol><symbol overflow="visible" id="c"><path d="M4.9-4c0-.3.3-.8 1-.8v-.4H4.2v.4c.5 0 .6.4.6.5l-.1.3L3.3-.9 2-4.3v-.2c0-.3.4-.3.6-.3v-.4H.2v.4c.7 0 .8 0 1 .4L2.8 0c0 .2 0 .2.2.2l.2-.2zm0 0"/></symbol><symbol overflow="visible" id="d"><path d="M7.8-2.4c0-.4 0-.5.8-.5v-.3H5.4v.3h.3c1 0 1.1.1 1.1.6v.8C6.8-.2 5.3-.1 5-.1 4 0 1.7-.7 1.7-4S4-8 5-8c1 0 2.2.8 2.6 2.9l.1.2c.2 0 .2 0 .2-.3v-2.8l-.1-.3-.2.1-.6 1c-.3-.5-1-1.1-2.2-1.1-2.2 0-4 1.9-4 4.3C.6-1.6 2.4.2 4.6.2 5.6.3 6.5 0 7-.8c.2.4.6.8.7.8v-.3zm0 0"/></symbol><symbol overflow="visible" id="e"><path d="M4.6-3.2c0-.6 0-1.1-.5-1.6-.4-.4-1-.5-1.5-.5-1 0-1.7.6-1.7 1.4 0 .3.2.5.5.5s.5-.2.5-.5c0-.5-.5-.5-.6-.5.2-.5.8-.7 1.3-.7s1.2.5 1.2 1.5v.5C1.4-3 .5-2 .5-1S1.6 0 2.4 0c.7 0 1.3-.5 1.5-1 0 .5.4 1 1 1 .2 0 .9-.2.9-1.2v-.6h-.3v.6c0 .7-.3.8-.4.8-.5 0-.5-.6-.5-.8zm-.8 1.5C3.8-.5 3 0 2.5 0c-.6 0-1.1-.4-1.1-1 0-1.6 2-1.7 2.4-1.8zm0 0"/></symbol><symbol overflow="visible" id="f"><path d="M8.6-3c0-1 0-1.3-.3-1.7-.3-.5-1-.6-1.3-.6-1 0-1.5.8-1.7 1.2-.2-1-.8-1.2-1.6-1.2-1.1 0-1.6 1-1.7 1.3v-1.3L.4-5v.3c.8 0 .9.1.9.7V-1c0 .6-.1.6-1 .6V0H3v-.3c-.8 0-1 0-1-.6V-3c0-1.3.9-2 1.6-2 .8 0 1 .7 1 1.4v2.8c0 .6-.2.6-1 .6V0h2.6v-.3c-.7 0-.9 0-.9-.6V-3c0-1.3.8-2 1.6-2 .7 0 .9.7.9 1.4v2.8c0 .6-.1.6-1 .6V0h2.7v-.3c-.6 0-1 0-1-.4zm0 0"/></symbol><symbol overflow="visible" id="g"><path d="M3.9 3l-.2-.4C2.5 1.4 1.8-.5 1.8-3c0-2.3.6-4.3 2-5.7v-.2A5 5 0 002-7a8.6 8.6 0 00-1 4c0 1 .2 2.4.9 3.7C2.7 2.2 3.6 3 3.8 3zm0 0"/></symbol><symbol overflow="visible" id="h"><path d="M5.3-2H5c0 .2-.1.9-.3 1 0 .2-.7.2-1 .2H1.3l1.4-1.4c1.8-1.6 2.5-2.3 2.5-3.5C5.3-7 4.2-8 2.8-8A2.2 2.2 0 00.6-5.7c0 .6.5.6.5.6.3 0 .6-.2.6-.6 0-.3-.2-.5-.6-.5H1c.2-.8.9-1.4 1.6-1.4 1 0 1.7.8 1.7 2 0 1-.6 1.8-1.3 2.6L.6-.3V0H5zm0 0"/></symbol><symbol overflow="visible" id="j"><path d="M5.4-3.8c0-1-.1-2-.5-2.9a2.1 2.1 0 00-4 0C.6-5.8.5-5 .5-3.7c0 1.1 0 2 .5 2.9C1.5 0 2.3.2 3 .2 4 .3 4.4-.3 5-1c.3-.9.4-2 .4-2.7zM2.9 0c-.4 0-1.1-.2-1.4-1.5V-4v-2.5c.3-.8 1-1.2 1.4-1.2.5 0 1.2.3 1.4 1.3.2.7.2 1.6.2 2.4 0 .8 0 1.7-.2 2.5C4.1-.2 3.3 0 3 0zm0 0"/></symbol><symbol overflow="visible" id="l"><path d="M1.5-6.8l1 .1c1.4 0 2.3-1 2.3-1.1L4.7-8h-.2a4 4 0 01-1.5.3c-.8 0-1.3-.2-1.6-.3h-.1l-.1.2V-4l.1.3.2-.2c.4-.5 1-.8 1.5-.8.7 0 1 .6 1 .8.3.5.3 1 .3 1.5s0 1.2-.3 1.7c-.3.4-.8.7-1.3.7C1.9 0 1.1-.6.9-1.5h.2c.2 0 .5 0 .5-.5 0-.3-.2-.5-.5-.5-.2 0-.5.1-.5.6C.6-1 1.4.2 2.7.2c1.4 0 2.6-1 2.6-2.6C5.3-3.8 4.3-5 3-5a2 2 0 00-1.5.6zm0 0"/></symbol><symbol overflow="visible" id="m"><path d="M3.4-3c0-.9-.1-2.4-.8-3.8A5.2 5.2 0 00.8-9l-.1.1.2.3C2-7.4 2.7-5.4 2.7-3c0 2.3-.5 4.3-2 5.7V3a5 5 0 001.8-2c.6-1.3.9-2.5.9-4zm0 0"/></symbol><symbol overflow="visible" id="n"><path d="M7.1-7.3c0-.4 0-.5 1-.5h.2v-.4H5v.4h.3c.8 0 .9.1.9.5v2.9H2.6v-2.8c0-.5 0-.6.9-.6h.2v-.4H.5v.4h.2c.9 0 1 .1 1 .5v6.4c0 .4-.1.6-1 .6H.5V0h3.2v-.3h-.2c-.9 0-1-.2-1-.6v-3.2h3.7v3.2c0 .4 0 .6-1 .6H5V0h3.3v-.3H8c-.8 0-.9-.2-.9-.6zm0 0"/></symbol><symbol overflow="visible" id="o"><path d="M2-8.3l-1.6.1v.4c.8 0 .9 0 .9.7V-1c0 .6-.1.6-1 .6V0H3v-.3c-.8 0-1 0-1-.6zm0 0"/></symbol><symbol overflow="visible" id="p"><path d="M2-4.8h1.4v-.4H2v-1.3c0-1.1.6-1.7 1-1.7l.5.1S3-8 3-7.6c0 .3.2.5.5.5s.5-.2.5-.5c0-.5-.4-.8-1-.8-.9 0-1.8.6-1.8 1.9v1.3h-1v.4h1v4c0 .5-.1.5-1 .5V0h2.9v-.3H3C2-.3 2-.5 2-1zm0 0"/></symbol><symbol overflow="visible" id="b"><path d="M5.3-3c0-1 0-1.3-.3-1.7-.3-.5-.9-.6-1.3-.6-1.1 0-1.6 1-1.7 1.3v-1.3L.4-5v.3c.8 0 .9.1.9.7V-1c0 .6-.1.6-1 .6V0H3v-.3c-.8 0-1 0-1-.6V-3c0-1.3.9-2 1.6-2 .8 0 1 .7 1 1.4v2.8c0 .6-.2.6-1 .6V0h2.6v-.3c-.6 0-.9 0-.9-.4zm0 0"/></symbol><symbol overflow="visible" id="r"><path d="M5.5-2.6c0-1.5-1.2-2.7-2.6-2.7C1.5-5.3.4-4.1.4-2.6.4-1 1.5.1 2.9.1S5.5-1 5.5-2.6zM2.9 0c-.4 0-1-.2-1.3-.8-.3-.6-.3-1.3-.3-1.8 0-.4 0-1.1.3-1.7C2-4.9 2.5-5 3-5c.5 0 1 .2 1.3.7.4.5.4 1.3.4 1.7 0 .5 0 1.2-.3 1.8-.4.5-1 .8-1.4.8zm0 0"/></symbol><symbol overflow="visible" id="s"><path d="M2-2.8C2-3.9 2.5-5 3.4-5h.2c-.1 0-.3 0-.3.4s.2.5.4.5c.3 0 .5-.2.5-.5s-.3-.7-.8-.7C2.4-5.3 2-4.2 2-3.9v-1.4L.2-5v.3c.8 0 1 .1 1 .7V-1c0 .6-.2.6-1 .6V0h2.8v-.3H3C2-.3 2-.5 2-1zm0 0"/></symbol><symbol overflow="visible" id="t"><path d="M3.4-7.7c0-.2 0-.3-.2-.3-.3.4-.9.8-2.1.8v.4c.3 0 .9 0 1.5-.3V-1c0 .4 0 .6-1 .6h-.4V0H5v-.3h-.5c-1 0-1-.2-1-.6zm0 0"/></symbol><symbol overflow="visible" id="z"><path d="M6.8-3h-.3C6.5-2 6.3-.4 4.2-.4h-1c-.6 0-.6-.1-.6-.5v-6.5c0-.4 0-.5 1-.5H4v-.4H.5v.4h.2c.9 0 1 .1 1 .5v6.4c0 .4-.1.6-1 .6H.5V0h6zm0 0"/></symbol><symbol overflow="visible" id="A"><path d="M1.4-2.2c.6.4 1 .4 1.2.4 1 0 1.9-.8 1.9-1.7 0-.3-.1-.8-.5-1.2.5-.5 1-.5 1-.5h.2l-.1.4c0 .1 0 .3.3.3 0 0 .3 0 .3-.4 0-.2-.2-.5-.6-.5-.6 0-1.1.4-1.3.6a2 2 0 00-1.2-.5c-1 0-1.9.8-1.9 1.8 0 .6.4 1 .6 1.2-.2.2-.4.5-.4 1 0 .7.4 1 .5 1C1 0 .4.3.4 1c0 .9 1 1.6 2.5 1.6 1.4 0 2.6-.7 2.6-1.6 0-.3 0-1-.8-1.4-.6-.3-1.2-.3-2.2-.3-.8 0-.8 0-1-.2a1 1 0 01-.3-.6l.2-.6zm1.2.2c-1 0-1-1.3-1-1.5l.1-1c.3-.4.6-.5.9-.5 1 0 1 1.2 1 1.5 0 .2 0 .7-.2 1a1 1 0 01-.8.5zM3 2.2c-1.1 0-2-.6-2-1.3 0 0 0-.5.5-.8.3-.2.4-.2 1.2-.2 1 0 2.3 0 2.3 1 0 .7-.9 1.3-2 1.3zm0 0"/></symbol><symbol overflow="visible" id="i"><path d="M2.3 0c0-.6-.2-1.2-.7-1.2-.4 0-.6.4-.6.6 0 .3.2.6.6.6.2 0 .3 0 .4-.2V0a3 3 0 01-.7 2l-.1.2.1.1c.1 0 1-.9 1-2.3zm0 0"/></symbol><symbol overflow="visible" id="k"><path d="M2.2-.6c0-.3-.3-.6-.6-.6S1-.9 1-.6c0 .4.3.6.6.6.4 0 .6-.3.6-.6zm0 0"/></symbol><symbol overflow="visible" id="u"><path d="M.4 2v.3c0 .2 0 .3.3.3l.4-.3.7-3c.3.6.7.8 1.2.8 1.3 0 2.9-1.6 2.9-3.5 0-1.2-.8-1.9-1.6-1.9-1 0-2.4 1.1-2.8 2.7zM3 0c-.8 0-1-1-1-1.1l.3-1.4C2.9-5 4.1-5 4.3-5c.5 0 .8.5.8 1.2 0 .6-.3 1.8-.5 2.3-.4.8-1 1.4-1.6 1.4zm0 0"/></symbol><symbol overflow="visible" id="x"><path d="M5.5-3c0-1.2-.6-2.3-1.9-2.3C2-5.3.5-3.6.5-1.9c0 1 .6 2 1.8 2 .8 0 1.7-.3 2.5-1 .2.7.6 1 1 1 .7 0 1-.6 1-.8v-.1l-.2.1c-.1.3-.4.6-.7.6-.4 0-.4-.8-.4-1.5 1.3-1.5 1.5-3 1.5-3v-.1c-.2 0-.2 0-.3.2-.1.6-.4 1.5-1.2 2.5zm-.7 1.8c-1 1-2 1-2.4 1-.9 0-1.1-.7-1.1-1.2 0-.6.2-1.8.6-2.4C2.4-4.7 3.1-5 3.6-5c1.2 0 1.2 1.5 1.2 2.5v1.3zm0 0"/></symbol><symbol overflow="visible" id="y"><path d="M6-4.5c.2 0 .6 0 .6-.4 0-.3-.2-.3-.4-.3H3.5c-1.8 0-3 2-3 3.5C.5-.8 1 0 2.2 0c1.4 0 3-1.5 3-3.3 0-.5-.2-1-.5-1.3zM2.3-.1c-.6 0-1-.5-1-1.3 0-.7.4-3.1 2.1-3.1.5 0 1.1.3 1.1 1.2 0 .4-.2 1.4-.6 2-.4.8-1 1.2-1.6 1.2zm0 0"/></symbol><symbol overflow="visible" id="C"><path d="M8.6-4l-.1-.4s-.2.1-.2.3c0 1.2-.8 1.8-1.7 1.8-.7 0-1.3-.5-1.9-1-.6-.5-1.2-1-2-1-1.3 0-2 1.2-2 2.3l.1.4c.2 0 .2-.2.2-.3 0-1.3 1-1.8 1.7-1.8s1.3.5 1.9 1c.6.6 1.2 1.1 2 1.1 1.3 0 2-1.3 2-2.4zm0 0"/></symbol><symbol overflow="visible" id="v"><path d="M1.6-1.3l.1-.5.1-.4.6-.8.8-.3c.3 0 .5.2.5.5l-.2.8-.2 1-.1.4-.1.4c0 .2.1.3.2.3.2 0 .3-.1.3-.2l.2-.5.1-.7.2-.5c0-.5 0-.5.3-.7.2-.4.6-.8 1.1-.8.3 0 .5.2.5.5 0 .5-.3 1.4-.5 1.8v.4c0 .5.3.7.6.7C7 0 7.2-1 7.2-1.1v-.1H7c-.2.7-.5 1-.9 1L6-.3V-1c.2-.3.6-1.2.6-1.6 0-.6-.4-1-1-1s-1 .4-1.4.9c0-.7-.6-.8-1-.8-.3 0-.8.1-1.3.7 0-.5-.4-.7-.8-.7-.3 0-.5.2-.6.4l-.3.8.2.1.1-.2c.1-.4.3-.9.6-.9.2 0 .3.2.3.4l-.1.5-.2.7L.8-.5l-.1.3c0 .2.2.3.3.3l.3-.2.1-.5zm0 0"/></symbol><symbol overflow="visible" id="w"><path d="M4.4-3h.3l.1-.2c0-.2-.2-.2-.3-.2h-2C1.3-3.4.3-2.2.3-1.2.3-.4 1 0 1.6 0c1 0 2.1-1 2.1-2.2l-.2-.8zM1.6 0C1.2-.1 1-.4 1-1c0-.3.2-2 1.5-2 .7 0 .7.7.7.8 0 .9-.5 2-1.5 2zm0 0"/></symbol><symbol overflow="visible" id="B"><path d="M2.4-5c0-.1-.1-.3-.3-.3-.2 0-.5.2-.5.5 0 .1.1.3.3.3.2 0 .5-.2.5-.5zM1.2-2L.8-1l-.1.4c0 .4.3.7.7.7.8 0 1.1-1.1 1.1-1.2v-.1h-.2c-.2.7-.5 1-.9 1l-.1-.2.1-.6.3-.6.2-.7.2-.5c0-.4-.4-.7-.8-.7-.7 0-1 1-1 1.2v.1l.2-.1c.2-.8.6-1 .8-1 .1 0 .2 0 .2.3v.4zm0 0"/></symbol></defs><g transform="translate(-11.4 -23.6)"><use xlink:href="#a" x="113.3" y="173" width="100%" height="100%"/><use xlink:href="#b" x="117.6" y="173" width="100%" height="100%"/></g><g transform="translate(-11.4 -23.6)"><use xlink:href="#c" x="123.8" y="173" width="100%" height="100%"/><use xlink:href="#d" x="129.9" y="173" width="100%" height="100%"/><use xlink:href="#e" x="139.1" y="173" width="100%" height="100%"/><use xlink:href="#f" x="145" y="173" width="100%" height="100%"/><use xlink:href="#f" x="154.7" y="173" width="100%" height="100%"/><use xlink:href="#e" x="164.5" y="173" width="100%" height="100%"/></g><g transform="translate(-11.4 -23.6)"><use xlink:href="#g" x="172.3" y="173" width="100%" height="100%"/><use xlink:href="#h" x="176.9" y="173" width="100%" height="100%"/></g><use xlink:href="#i" x="182.7" y="173" width="100%" height="100%" transform="translate(-11.4 -23.6)"/><use xlink:href="#j" x="188" y="173" width="100%" height="100%" transform="translate(-11.4 -23.6)"/><use xlink:href="#k" x="193.8" y="173" width="100%" height="100%" transform="translate(-11.4 -23.6)"/><g transform="translate(-11.4 -23.6)"><use xlink:href="#l" x="197.1" y="173" width="100%" height="100%"/><use xlink:href="#m" x="202.9" y="173" width="100%" height="100%"/></g><g transform="translate(120.6 -23.6)"><use xlink:href="#n" x="213.4" y="173" width="100%" height="100%"/><use xlink:href="#e" x="222.2" y="173" width="100%" height="100%"/><use xlink:href="#o" x="228" y="173" width="100%" height="100%"/><use xlink:href="#p" x="231.3" y="173" width="100%" height="100%"/><use xlink:href="#q" x="234.8" y="173" width="100%" height="100%"/><use xlink:href="#r" x="243.6" y="173" width="100%" height="100%"/><use xlink:href="#s" x="249.5" y="173" width="100%" height="100%"/><use xlink:href="#f" x="254" y="173" width="100%" height="100%"/><use xlink:href="#e" x="263.8" y="173" width="100%" height="100%"/><use xlink:href="#o" x="269.6" y="173" width="100%" height="100%"/></g><g transform="translate(120.6 -23.6)"><use xlink:href="#g" x="274.9" y="173" width="100%" height="100%"/><use xlink:href="#j" x="279.4" y="173" width="100%" height="100%"/></g><use xlink:href="#i" x="285.3" y="173" width="100%" height="100%" transform="translate(120.6 -23.6)"/><g transform="translate(120.6 -23.6)"><use xlink:href="#h" x="290.5" y="173" width="100%" height="100%"/><use xlink:href="#m" x="296.4" y="173" width="100%" height="100%"/></g><g transform="translate(257 -23.6)"><use xlink:href="#n" x="306.8" y="173" width="100%" height="100%"/><use xlink:href="#e" x="315.6" y="173" width="100%" height="100%"/><use xlink:href="#o" x="321.4" y="173" width="100%" height="100%"/><use xlink:href="#p" x="324.7" y="173" width="100%" height="100%"/><use xlink:href="#q" x="328.3" y="173" width="100%" height="100%"/><use xlink:href="#r" x="337" y="173" width="100%" height="100%"/><use xlink:href="#s" x="342.9" y="173" width="100%" height="100%"/><use xlink:href="#f" x="347.5" y="173" width="100%" height="100%"/><use xlink:href="#e" x="357.2" y="173" width="100%" height="100%"/><use xlink:href="#o" x="363.1" y="173" width="100%" height="100%"/></g><g transform="translate(257 -23.6)"><use xlink:href="#g" x="368.3" y="173" width="100%" height="100%"/><use xlink:href="#j" x="372.9" y="173" width="100%" height="100%"/></g><use xlink:href="#i" x="378.7" y="173" width="100%" height="100%" transform="translate(257 -23.6)"/><g transform="translate(257 -23.6)"><use xlink:href="#t" x="384" y="173" width="100%" height="100%"/><use xlink:href="#m" x="389.8" y="173" width="100%" height="100%"/></g><g transform="translate(266 -23.6)"><use xlink:href="#n" x="400.3" y="173" width="100%" height="100%"/><use xlink:href="#e" x="409" y="173" width="100%" height="100%"/><use xlink:href="#o" x="414.9" y="173" width="100%" height="100%"/><use xlink:href="#p" x="418.1" y="173" width="100%" height="100%"/><use xlink:href="#q" x="421.7" y="173" width="100%" height="100%"/><use xlink:href="#r" x="430.5" y="173" width="100%" height="100%"/><use xlink:href="#s" x="436.3" y="173" width="100%" height="100%"/><use xlink:href="#f" x="440.9" y="173" width="100%" height="100%"/><use xlink:href="#e" x="450.6" y="173" width="100%" height="100%"/><use xlink:href="#o" x="456.5" y="173" width="100%" height="100%"/></g><use xlink:href="#g" x="461.7" y="173" width="100%" height="100%" transform="translate(266 -23.6)"/><use xlink:href="#j" x="466.3" y="173" width="100%" height="100%" transform="translate(266 -23.6)"/><use xlink:href="#i" x="472.1" y="173" width="100%" height="100%" transform="translate(266 -23.6)"/><use xlink:href="#j" x="477.4" y="173" width="100%" height="100%" transform="translate(266 -23.6)"/><use xlink:href="#k" x="483.2" y="173" width="100%" height="100%" transform="translate(266 -23.6)"/><g transform="translate(266 -23.6)"><use xlink:href="#l" x="486.5" y="173" width="100%" height="100%"/><use xlink:href="#m" x="492.4" y="173" width="100%" height="100%"/></g><use height="100%" width="100%" y="208.3" x="261.1" xlink:href="#u" transform="translate(-106 38.7)"/><use height="100%" width="100%" y="210.1" x="267.2" xlink:href="#v" transform="translate(-106 38.7)"/><use height="100%" width="100%" y="208.3" x="279.1" xlink:href="#u" transform="translate(-100 44.7)"/><use height="100%" width="100%" y="210.1" x="285.1" xlink:href="#w" transform="translate(-100 44.7)"/><use height="100%" width="100%" y="208.3" x="294.6" xlink:href="#x" transform="translate(86 38.7)"/><use height="100%" width="100%" y="210.1" x="302.1" xlink:href="#v" transform="translate(86 38.7)"/><use height="100%" width="100%" y="208.3" x="314" xlink:href="#x" transform="translate(92 44.7)"/><use height="100%" width="100%" y="210.1" x="321.4" xlink:href="#w" transform="translate(92 44.7)"/><use height="100%" width="100%" y="208.3" x="330.9" xlink:href="#y" transform="translate(276.5 38.7)"/><use height="100%" width="100%" y="210.1" x="337.6" xlink:href="#v" transform="translate(276.5 38.7)"/><use height="100%" width="100%" y="208.3" x="349.5" xlink:href="#y" transform="translate(282.5 44.7)"/><use height="100%" width="100%" y="210.1" x="356.1" xlink:href="#w" transform="translate(282.5 44.7)"/><g transform="translate(38.6 121.3)"><use xlink:href="#z" x="112.2" y="247.7" width="100%" height="100%"/><use xlink:href="#r" x="119.6" y="247.7" width="100%" height="100%"/><use xlink:href="#A" x="125.4" y="247.7" width="100%" height="100%"/><use xlink:href="#q" x="131.3" y="247.7" width="100%" height="100%"/><use xlink:href="#r" x="140" y="247.7" width="100%" height="100%"/><use xlink:href="#s" x="145.9" y="247.7" width="100%" height="100%"/><use xlink:href="#f" x="150.4" y="247.7" width="100%" height="100%"/><use xlink:href="#e" x="160.2" y="247.7" width="100%" height="100%"/><use xlink:href="#o" x="166" y="247.7" width="100%" height="100%"/></g><g transform="translate(38.6 121.3)"><use xlink:href="#g" x="171.3" y="247.7" width="100%" height="100%"/><use xlink:href="#o" x="175.8" y="247.7" width="100%" height="100%"/><use xlink:href="#r" x="179.1" y="247.7" width="100%" height="100%"/><use xlink:href="#A" x="185" y="247.7" width="100%" height="100%"/></g><use xlink:href="#g" x="191" y="247.7" width="100%" height="100%" transform="translate(38.6 121.3)"/><use xlink:href="#u" x="195.5" y="247.7" width="100%" height="100%" transform="translate(38.6 121.3)"/><use xlink:href="#v" x="201.6" y="249.5" width="100%" height="100%" transform="translate(38.6 121.3)"/><use xlink:href="#m" x="209.5" y="247.7" width="100%" height="100%" transform="translate(38.6 121.3)"/><use xlink:href="#i" x="214.1" y="247.7" width="100%" height="100%" transform="translate(38.6 121.3)"/><use xlink:href="#u" x="219.3" y="247.7" width="100%" height="100%" transform="translate(38.6 121.3)"/><use xlink:href="#w" x="225.4" y="249.5" width="100%" height="100%" transform="translate(38.6 121.3)"/><use xlink:href="#m" x="231" y="247.7" width="100%" height="100%" transform="translate(38.6 121.3)"/><g transform="translate(137.5 121.2)"><use xlink:href="#z" x="241.4" y="247.7" width="100%" height="100%"/><use xlink:href="#r" x="248.8" y="247.7" width="100%" height="100%"/><use xlink:href="#A" x="254.6" y="247.7" width="100%" height="100%"/><use xlink:href="#q" x="260.5" y="247.7" width="100%" height="100%"/><use xlink:href="#r" x="269.2" y="247.7" width="100%" height="100%"/><use xlink:href="#s" x="275.1" y="247.7" width="100%" height="100%"/><use xlink:href="#f" x="279.6" y="247.7" width="100%" height="100%"/><use xlink:href="#e" x="289.4" y="247.7" width="100%" height="100%"/><use xlink:href="#o" x="295.3" y="247.7" width="100%" height="100%"/></g><g transform="translate(137.5 121.2)"><use xlink:href="#g" x="300.5" y="247.7" width="100%" height="100%"/><use xlink:href="#o" x="305.1" y="247.7" width="100%" height="100%"/><use xlink:href="#r" x="308.3" y="247.7" width="100%" height="100%"/><use xlink:href="#A" x="314.2" y="247.7" width="100%" height="100%"/></g><use xlink:href="#g" x="320.2" y="247.7" width="100%" height="100%" transform="translate(137.5 121.2)"/><use xlink:href="#x" x="324.7" y="247.7" width="100%" height="100%" transform="translate(137.5 121.2)"/><use xlink:href="#v" x="332.2" y="249.5" width="100%" height="100%" transform="translate(137.5 121.2)"/><use xlink:href="#m" x="340.2" y="247.7" width="100%" height="100%" transform="translate(137.5 121.2)"/><use xlink:href="#i" x="344.7" y="247.7" width="100%" height="100%" transform="translate(137.5 121.2)"/><use xlink:href="#x" x="350" y="247.7" width="100%" height="100%" transform="translate(137.5 121.2)"/><use xlink:href="#w" x="357.4" y="249.5" width="100%" height="100%" transform="translate(137.5 121.2)"/><use xlink:href="#m" x="363" y="247.7" width="100%" height="100%" transform="translate(137.5 121.2)"/><g transform="translate(230.5 121.2)"><use xlink:href="#z" x="373.5" y="247.7" width="100%" height="100%"/><use xlink:href="#r" x="380.8" y="247.7" width="100%" height="100%"/><use xlink:href="#A" x="386.6" y="247.7" width="100%" height="100%"/><use xlink:href="#q" x="392.5" y="247.7" width="100%" height="100%"/><use xlink:href="#r" x="401.3" y="247.7" width="100%" height="100%"/><use xlink:href="#s" x="407.1" y="247.7" width="100%" height="100%"/><use xlink:href="#f" x="411.7" y="247.7" width="100%" height="100%"/><use xlink:href="#e" x="421.4" y="247.7" width="100%" height="100%"/><use xlink:href="#o" x="427.3" y="247.7" width="100%" height="100%"/></g><g transform="translate(230.5 121.2)"><use xlink:href="#g" x="432.5" y="247.7" width="100%" height="100%"/><use xlink:href="#o" x="437.1" y="247.7" width="100%" height="100%"/></g><g transform="translate(230.5 121.2)"><use xlink:href="#r" x="440.3" y="247.7" width="100%" height="100%"/><use xlink:href="#A" x="446.2" y="247.7" width="100%" height="100%"/></g><use xlink:href="#g" x="452.2" y="247.7" width="100%" height="100%" transform="translate(230.5 121.2)"/><use xlink:href="#y" x="456.7" y="247.7" width="100%" height="100%" transform="translate(230.5 121.2)"/><use xlink:href="#v" x="463.4" y="249.5" width="100%" height="100%" transform="translate(230.5 121.2)"/><use xlink:href="#m" x="471.4" y="247.7" width="100%" height="100%" transform="translate(230.5 121.2)"/><use xlink:href="#i" x="475.9" y="247.7" width="100%" height="100%" transform="translate(230.5 121.2)"/><use xlink:href="#y" x="481.2" y="247.7" width="100%" height="100%" transform="translate(230.5 121.2)"/><use xlink:href="#w" x="487.8" y="249.5" width="100%" height="100%" transform="translate(230.5 121.2)"/><use xlink:href="#m" x="493.5" y="247.7" width="100%" height="100%" transform="translate(230.5 121.2)"/><use height="100%" width="100%" y="283" x="286.1" xlink:href="#u" transform="translate(-101.1 176.5)"/><use height="100%" width="100%" y="284.8" x="292.1" xlink:href="#B" transform="translate(-101.1 176.5)"/><use height="100%" width="100%" y="283" x="299.4" xlink:href="#x" transform="translate(111.9 176.5)"/><use height="100%" width="100%" y="284.8" x="306.9" xlink:href="#B" transform="translate(111.9 176.5)"/><use height="100%" width="100%" y="283" x="314.1" xlink:href="#y" transform="translate(321.9 176.5)"/><use height="100%" width="100%" y="284.8" x="320.8" xlink:href="#B" transform="translate(321.9 176.5)"/><use height="100%" width="100%" y="315.9" x="290.9" xlink:href="#u" transform="translate(1.2 268.1)"/><use height="100%" width="100%" y="315.9" x="300.8" xlink:href="#x" transform="translate(121 302.2)"/><use height="100%" width="100%" y="315.9" x="312.3" xlink:href="#y" transform="translate(256.6 239.1)"/><path d="M99.9 134.4h97.6" fill="none" stroke="#a6a3a6" stroke-width=".8" stroke-linejoin="round" stroke-miterlimit="10"/><path d="M100.3 134.4V46.7M207.8 134.4H306M208.2 134.4V48.2M141.9 353.5h140.6M142.3 353.5v-99.4" fill="none" stroke="#a6a3a6" stroke-width=".7" stroke-linejoin="round" stroke-miterlimit="10"/><path d="M365.5 160.5l15.1 56.5" fill="none" stroke="#a6a3a6" stroke-width="2" stroke-linejoin="round"/><path d="M375.4 216.8l7 7 2.7-9.6zm0 0" fill="#a6a3a6"/><path d="M137.5 160.5l15.1 56.5" fill="none" stroke="#a6a3a6" stroke-width="2" stroke-linejoin="round"/><path d="M147.4 216.8l7 7 2.7-9.6zm0 0" fill="#a6a3a6"/><path d="M592 160.5L607 217" fill="none" stroke="#a6a3a6" stroke-width="2" stroke-linejoin="round"/><path d="M602 216.8l7 7 2.6-9.6zm0 0" fill="#a6a3a6"/><path d="M30.3 203h725.4" fill="none" stroke="#a6a3a6" stroke-width="1.2" stroke-linejoin="round" stroke-dasharray="11.35945345,11.35945345"/><path d="M100.3 134.3h.9l.5-.6.5-3.7.5-7.9.4-10.7.5-11.4.5-10.5.5-8.8.4-7 .5-5 .5-3.6.5-2.2.5-1.2.4-.3.5.3.5.8.5 1.2.4 1.5.5 1.6.5 1.8.5 1.8.4 1.9.5 1.9.5 1.8.5 1.9.4 1.8.5 1.8.5 1.7.5 1.7.4 1.6.5 1.6.5 1.5.5 1.5.5 1.4.4 1.3.5 1.3.5 1.2.5 1.2.4 1.2.5 1 .5 1.1.5 1 .4 1 .5.9.5.9.5.8.4.9.5.8.5.7.5.7.4.7.5.7.5.7.5.6.5.6.4.6.5.5.5.6.5.5.4.5.5.5.5.4.5.5.4.4.5.4.5.4.5.4.4.4.5.4.5.3.5.4.5.3.4.3.5.3.5.3.5.3.4.3.5.3.5.3.5.2.4.3.5.2 1 .5.4.2.5.2.5.2.5.2.4.2.5.2 1 .4.5.2.4.2.5.1 1 .4 1 .3.9.3 1 .2.4.2.5.1 1 .3.9.2 1 .3h.4l.5.2h.5l.4.2h.5l.5.2h.5l.4.2h.5l1.4.3 1 .2 1 .2 1.4.2h.4l.5.2 2 .2.4.1h.5l.5.1 1 .2h.9l1 .2 1.8.2 2.4.3h.5l1 .1h.4l.5.1 1.9.2h1.4l.5.1h.5l.4.1h.5l3.4.3h1.4l.5.1 1.4.1h1.4l.5.1 1.4.1h1.5l.4.1h1.5l.4.1 2 .1M208.2 62.6h1l.3.1h.4l.3.1.3.1.3.1.4.1.3.1.3.2.3.1.4.2.3.2.3.1.4.2.3.2.3.3.3.2.4.2.3.3.3.3.3.2.4.3.3.3.3.3.4.3.3.4.3.3.3.4.4.3.3.4.3.4.3.4.4.4.3.4.3.4.3.4.4.4.3.5.3.4.4.5.3.5.3.4.3.5.4.5.3.5.3.5.3.5.4.5.3.5.3.5.3.6.4.5.3.5.3.6.4.5.3.6.3.5.3.6.4.5.3.6.3.6.3.5.4.6.6 1.2.4.5.3.6.3.6.3.6 1 1.7.3.6.4.6.3.6.3.6.7 1.1.6 1.2.4.6.6 1.1.3.6.4.5.3.6.3.6.3.5.4.6.3.5.3.6.4.6.3.5.3.5.3.6.4.5.3.5.3.6.3.5.4.5.3.5.3.5.3.5.4.5.3.5.3.5.7 1 .3.5.3.4.4.5.3.5.3.4.3.5.4.4.3.5.3.4.7.8.3.5.3.4.4.4.3.4.6.8.4.3.3.4.3.4.3.4.4.3.3.4.3.3.7.7.3.3.3.4.4.3.3.3.3.3.3.3.4.3.3.3.3.3.4.3.3.2.3.3.3.3.4.2.3.3.6.5.4.2.3.3.6.4.4.2.3.2.3.3.4.2.3.2.6.3.4.2.3.2.6.4.4.1.3.2.3.2.3.1.7.3.3.2.4.1.3.2.3.1.3.1.4.2h.3l.6.3.4.1.6.3h.4l.6.3h.3l.4.2.6.2h.3l.7.2h.3l.3.2h.4l.3.1h.3l.4.2h.6l.7.2h.3l.3.1h.3l.4.1h.3l.3.1h.4l.3.1h.3l.3.1h.4l.3.1h.6l.4.1h.6l.3.1h.7l.3.1h1l.3.1h1l.3.1h1.4l.3.1h1.6l.3.1H291.3l.3.1H295.2l.3.1h9.8l.3.1h.4" fill="none" stroke="#a3ccee" stroke-width="3" stroke-linejoin="round" stroke-miterlimit="10"/><path d="M369.5 353.5H510M369.8 353.5v-99.4M594.5 353.5H735M594.8 353.5v-99.4" fill="none" stroke="#a6a3a6" stroke-width=".7" stroke-linejoin="round" stroke-miterlimit="10"/><path d="M161 350.5v-94.4" fill="none" stroke="#a6a3a6" stroke-linejoin="round" stroke-dasharray="1.98799991,1.98799991"/><path d="M161 255.1v-1" fill="none" stroke="#a6a3a6" stroke-linejoin="round"/><path d="M388.8 350.5v-94.4" fill="none" stroke="#a6a3a6" stroke-linejoin="round" stroke-dasharray="1.98799991,1.98799991"/><path d="M388.8 255.1v-1" fill="none" stroke="#a6a3a6" stroke-linejoin="round"/><path d="M613.8 350.5v-94.4" fill="none" stroke="#a6a3a6" stroke-linejoin="round" stroke-dasharray="1.98799991,1.98799991"/><path d="M613.8 255.1v-1" fill="none" stroke="#a6a3a6" stroke-linejoin="round"/><path d="M416 378.4v58.4" fill="none" stroke="#a6a3a6" stroke-width="2" stroke-linejoin="round"/><path d="M411 435.4l5 8.6 5-8.6zm0 0" fill="#a6a3a6"/><path d="M188 378.4v58.4" fill="none" stroke="#a6a3a6" stroke-width="2" stroke-linejoin="round"/><path d="M183 435.4l5 8.6 5-8.6zm0 0" fill="#a6a3a6"/><path d="M641 378.4v58.4" fill="none" stroke="#a6a3a6" stroke-width="2" stroke-linejoin="round"/><path d="M636 435.4l5 8.6 5-8.6zm0 0" fill="#a6a3a6"/><path d="M30.3 422h725.4" fill="none" stroke="#a6a3a6" stroke-width="1.2" stroke-linejoin="round" stroke-dasharray="11.35945345,11.35945345"/><path d="M416.8 470.8v25.6" fill="none" stroke="#a6a3a6" stroke-width="2" stroke-linejoin="round"/><path d="M411.9 495l5 8.6 5-8.6zm0 0" fill="#a6a3a6"/><path d="M193.3 472.6l18 18.1" fill="none" stroke="#a6a3a6" stroke-width="2" stroke-linejoin="round"/><path d="M206.8 493.2l9.7 2.6-2.6-9.7zm0 0" fill="#a6a3a6"/><path d="M634.4 472.6l-18 18.1" fill="none" stroke="#a6a3a6" stroke-width="2" stroke-linejoin="round"/><path d="M613.9 486.2l-2.6 9.6 9.6-2.6zm0 0" fill="#a6a3a6"/><path d="M235.2 595.6h350.7" fill="none" stroke="#4a4747" stroke-width=".9" stroke-linejoin="round" stroke-dasharray="4.62816956,4.62816956"/><path d="M588.4 595.6h2.5" fill="none" stroke="#4a4747" stroke-linejoin="round"/><path d="M242 604.4c1.7 0 3.3-.7 4.2-1.1a23 23 0 008.4-8 94.8 94.8 0 008.5-15c1-2 3-6.4 4.2-8.6a150 150 0 018.4-15.8 49.5 49.5 0 018.4-10.4c1-.8 3-2.4 4.2-3a28 28 0 014.2-1.8c1-.3 3.1-.7 4.2-.8 1 0 3.2 0 4.2.3 1 .2 3.2.9 4.2 1.4 1.1.5 3.2 2 4.2 2.7a36.3 36.3 0 018.4 12.1 130.8 130.8 0 018.4 25.4c1.2 4.4 3.2 13.1 4.2 17.5l4.2 18.2c1 4 3 12.2 4.2 16.2 1 3.1 3 9.5 4.2 12.5a46.7 46.7 0 008.4 14.6c1 1 3 2.8 4.2 3.6a31.6 31.6 0 008.4 3.6 51 51 0 0021 .4 84.6 84.6 0 0012.7-3.2 136.7 136.7 0 008.4-3.4l4.2-1.8 4.2-1.7a147 147 0 0112.6-4.1l4.2-1.1 4.2-1.1a98.8 98.8 0 008.4-3 61 61 0 008.4-5 70.7 70.7 0 0012.6-12.7l4.2-5.4 4.2-5.6 4.2-5.5a175.1 175.1 0 018.4-9.6 79.6 79.6 0 018.4-6.8l4.2-2.5 4.2-2.1 4.2-2.2a86.8 86.8 0 008.5-5.5 68.5 68.5 0 0012.6-14.5l4.2-6.2c1-1.6 3-4.9 4.2-6.5a208 208 0 018.4-11.3c1-1 3-3.2 4.2-4.2a49.1 49.1 0 018.4-5.6 40.5 40.5 0 018.4-2.5 47.3 47.3 0 018.4-.2 47.5 47.5 0 018.4 1.7 49.6 49.6 0 018.4 4" fill="none" stroke="#a6a3a6" stroke-width="2" stroke-linejoin="round" stroke-miterlimit="10"/><path d="M244 601.1c0 2.7-4 2.7-4 0 0-2.6 4-2.6 4 0M248.2 601.4c0 2.6-4 2.6-4 0s4-2.6 4 0M252.4 582.4c0 2.6-4 2.6-4 0s4-2.6 4 0M256.6 601.2c0 2.6-3.9 2.6-3.9 0s4-2.6 4 0M260.8 571.3c0 2.6-3.9 2.6-3.9 0s4-2.6 4 0M265 585.4c0 2.6-3.9 2.6-3.9 0s4-2.6 4 0M269.2 569c0 2.6-3.9 2.6-3.9 0s4-2.6 4 0M273.4 561.2c0 2.6-3.9 2.6-3.9 0s4-2.6 4 0M277.6 552c0 2.7-3.9 2.7-3.9 0 0-2.5 4-2.5 4 0M281.8 553.6c0 2.6-3.9 2.6-3.9 0s4-2.6 4 0M286 551.1c0 2.6-3.9 2.6-3.9 0s4-2.6 4 0M290.2 538.5c0 2.6-3.9 2.6-3.9 0s4-2.6 4 0M294.4 539.9c0 2.6-3.9 2.6-3.9 0s4-2.6 4 0M298.6 540c0 2.6-3.9 2.6-3.9 0s4-2.6 4 0M302.8 546.9c0 2.6-3.9 2.6-3.9 0s4-2.6 4 0M307 537.2c0 2.6-3.9 2.6-3.9 0s4-2.6 4 0M311.2 540.9c0 2.6-3.9 2.6-3.9 0s4-2.6 4 0M315.4 550.1c0 2.6-3.9 2.6-3.9 0s4-2.6 4 0M319.7 555.3c0 2.6-4 2.6-4 0s4-2.6 4 0M323.9 577.4c0 2.7-4 2.7-4 0 0-2.6 4-2.6 4 0M328 570.8c0 2.6-3.9 2.6-3.9 0s4-2.6 4 0M332.3 590.4c0 2.6-4 2.6-4 0s4-2.6 4 0M336.5 626.6c0 2.6-4 2.6-4 0s4-2.6 4 0M340.7 632.1c0 2.6-4 2.6-4 0s4-2.6 4 0M344.9 654.9c0 2.6-4 2.6-4 0s4-2.6 4 0M349 648c0 2.5-3.8 2.5-3.8 0 0-2.7 3.9-2.7 3.9 0M353.3 657.4c0 2.6-4 2.6-4 0s4-2.6 4 0M357.5 665.6c0 2.6-4 2.6-4 0s4-2.6 4 0M361.7 664.6c0 2.7-4 2.7-4 0 0-2.6 4-2.6 4 0M365.9 671c0 2.5-4 2.5-4 0 0-2.7 4-2.7 4 0M370 668.4c0 2.6-3.8 2.6-3.8 0s3.9-2.6 3.9 0M374.3 668c0 2.7-4 2.7-4 0 0-2.5 4-2.5 4 0M378.5 669.2c0 2.6-4 2.6-4 0s4-2.6 4 0M382.7 669.7c0 2.6-4 2.6-4 0s4-2.6 4 0M386.9 666.5c0 2.6-3.9 2.6-3.9 0s3.9-2.6 3.9 0M391.1 669c0 2.7-3.9 2.7-3.9 0 0-2.5 4-2.5 4 0M395.3 665.4c0 2.6-3.9 2.6-3.9 0 0-2.7 4-2.7 4 0M399.5 665.5c0 2.6-3.9 2.6-3.9 0s4-2.6 4 0M403.7 663c0 2.7-3.9 2.7-3.9 0 0-2.5 4-2.5 4 0M408 661c0 2.7-4 2.7-4 0 0-2.6 4-2.6 4 0M412.1 660.5c0 2.6-3.9 2.6-3.9 0s4-2.6 4 0M416.3 657.5c0 2.6-3.9 2.6-3.9 0s4-2.6 4 0M420.5 648.8c0 2.6-3.9 2.6-3.9 0s4-2.6 4 0M424.7 653.2c0 2.6-3.9 2.6-3.9 0s4-2.6 4 0M429 658c0 2.6-4 2.6-4 0s4-2.6 4 0M433.1 650.8c0 2.6-3.9 2.6-3.9 0s4-2.6 4 0M437.3 641.9c0 2.6-3.9 2.6-3.9 0 0-2.7 4-2.7 4 0M441.5 657c0 2.6-3.9 2.6-3.9 0s4-2.6 4 0M445.8 651.8c0 2.6-4 2.6-4 0s4-2.6 4 0M450 651.9c0 2.6-4 2.6-4 0s4-2.6 4 0M454.2 646.5c0 2.6-4 2.6-4 0s4-2.6 4 0M458.4 640.8c0 2.6-4 2.6-4 0s4-2.6 4 0M462.6 636.8c0 2.7-4 2.7-4 0 0-2.6 4-2.6 4 0M466.8 631.2c0 2.6-4 2.6-4 0s4-2.6 4 0M471 632c0 2.7-4 2.7-4 0 0-2.6 4-2.6 4 0M475.2 621.2c0 2.6-4 2.6-4 0s4-2.6 4 0M479.4 601.1c0 2.6-4 2.6-4 0s4-2.6 4 0M483.6 616.2c0 2.6-4 2.6-4 0s4-2.6 4 0M487.8 635.2c0 2.6-4 2.6-4 0s4-2.6 4 0M492 604.4c0 2.6-4 2.6-4 0s4-2.6 4 0M496.2 587.3c0 2.6-4 2.6-4 0s4-2.6 4 0M500.4 592.5c0 2.6-4 2.6-4 0s4-2.6 4 0M504.6 596.7c0 2.6-4 2.6-4 0s4-2.6 4 0M508.8 581.2c0 2.6-4 2.6-4 0s4-2.6 4 0M513 595.6c0 2.6-4 2.6-4 0s4-2.6 4 0M517.2 580.3c0 2.6-4 2.6-4 0s4-2.6 4 0M521.4 582.4c0 2.6-3.9 2.6-3.9 0 0-2.7 4-2.7 4 0M525.6 572.6c0 2.6-3.9 2.6-3.9 0s4-2.6 4 0M529.8 571.7c0 2.6-3.9 2.6-3.9 0s4-2.6 4 0M534 548.5c0 2.6-3.9 2.6-3.9 0s4-2.6 4 0M538.2 554.4c0 2.6-3.9 2.6-3.9 0s4-2.6 4 0M542.4 551.3c0 2.6-3.9 2.6-3.9 0s4-2.6 4 0M546.6 553c0 2.6-3.9 2.6-3.9 0s4-2.6 4 0M550.8 545.2c0 2.6-3.9 2.6-3.9 0s4-2.6 4 0M555 543c0 2.5-3.9 2.5-3.9 0 0-2.7 4-2.7 4 0M559.2 535.8c0 2.6-3.9 2.6-3.9 0s4-2.6 4 0M563.4 536c0 2.7-3.9 2.7-3.9 0 0-2.6 4-2.6 4 0M567.6 538c0 2.7-3.9 2.7-3.9 0 0-2.5 4-2.5 4 0M571.8 532.6c0 2.6-3.9 2.6-3.9 0s4-2.6 4 0M576 537.3c0 2.6-3.9 2.6-3.9 0s4-2.6 4 0M580.3 535c0 2.7-4 2.7-4 0 0-2.5 4-2.5 4 0M584.5 547.8c0 2.6-4 2.6-4 0s4-2.6 4 0M588.7 540c0 2.5-4 2.5-4 0 0-2.7 4-2.7 4 0M592.9 535.5c0 2.6-4 2.6-4 0s4-2.6 4 0" fill="#b56b75" stroke="#b56b75" stroke-width=".7" stroke-linecap="round" stroke-linejoin="round" stroke-miterlimit="10"/><path d="M279 574.3h31.4" fill="none" stroke="#4a4747" stroke-linejoin="round"/><path d="M273.7 574.3l7.5 3-1.8-3 1.8-3zm0 0M315.7 574.3l-7.4 3 1.8-3-1.8-3zm0 0" fill="#4a4747"/><path d="M416.3 632.9v-74.5" fill="none" stroke="#4a4747" stroke-linejoin="round"/><path d="M416.3 638.2l3-7.5-3 1.8-3-1.8zm0 0M416.3 553l3 7.5-3-1.7-3 1.7zm0 0" fill="#4a4747"/><path d="M563.7 565.8v-57.6" fill="none" stroke="#4a4747" stroke-linejoin="round"/><path d="M563.7 571.1l3-7.4-3 1.7-3-1.7zm0 0M563.7 503l3 7.4-3-1.8-3 1.8zm0 0" fill="#4a4747"/><g fill="#211e1e"><text style="line-height:1.25;-inkscape-font-specification:'Adobe Garamond Pro, Normal';font-variant-ligatures:normal;font-variant-caps:normal;font-variant-numeric:normal;font-feature-settings:normal;text-align:center" x="30.3" y="-5.3" font-weight="400" font-size="14" font-family="Adobe Garamond Pro" letter-spacing="0" word-spacing="0" text-anchor="middle" fill="#000" stroke-width=".8" transform="translate(8.7 88.2)"><tspan x="30.3" y="-5.3" style="-inkscape-font-specification:'Adobe Garamond Pro, Normal';font-variant-ligatures:normal;font-variant-caps:normal;font-variant-numeric:normal;font-feature-settings:normal;text-align:center">Population</tspan><tspan x="30.3" y="12.2" style="-inkscape-font-specification:'Adobe Garamond Pro, Normal';font-variant-ligatures:normal;font-variant-caps:normal;font-variant-numeric:normal;font-feature-settings:normal;text-align:center">Parameter</tspan><tspan x="30.3" y="29.7" style="-inkscape-font-specification:'Adobe Garamond Pro, Normal';font-variant-ligatures:normal;font-variant-caps:normal;font-variant-numeric:normal;font-feature-settings:normal;text-align:center">Priors</tspan></text></g><path d="M142.2 352h1l.5-.3.4-.8.5-1.3.5-1.9.4-2.3.5-2.9.5-3.1.4-3.5.5-3.6.5-3.7.4-3.7.5-3.7.5-3.6.4-3.5.5-3.4.5-3.2.5-3 .4-3 .5-2.7.5-2.5.4-2.3.5-2.2.5-2 .4-1.8.5-1.6.5-1.5.4-1.3.5-1.2.5-1 .5-.9.4-.8.5-.6.5-.6.4-.4.5-.4.5-.2.4-.2h1.4l.5.1.5.2.5.2.4.3.5.4.5.3.4.5.5.4.5.5.4.5.5.5.5.6.4.6.5.6.5.6.5.7.4.6.5.7.5.7.4.7.5.7.5.7.4.7 1 1.4.4.7.5.7.5.8 1.9 2.8.9 1.5.5.7.4.7.5.7.5.7.4.7.5.6.5.7.4.7.5.7.5.6.5.7.4.6.5.7.5.6.4.6.5.6.5.6.4.7.5.5.5.6.4.6.5.6.5.6 1 1 .4.6.5.6.4.5.5.5.5.6.4.5.5.5.5.5.4.5.5.4.5.5.4.5.5.5.5.4.5.5.4.4.5.4.5.5.4.4.5.4.5.4.4.4.5.4.5.4.4.4.5.4.5.4.5.4.4.3.5.4.5.3.9.7.5.4 1 .6.4.4.4.3 1 .6.5.3.4.3.5.3 1 .6.4.3.5.3.4.2 1 .6.4.2.5.3.5.2.4.3.5.2.5.3 1 .5.9.4.4.2.5.3.5.2.4.2 1 .4.4.2.5.2.5.2 1 .4.4.2 1 .4.4.2.5.2 1 .3.4.2.4.1.5.2 1 .3.4.2 1 .3.9.3 1 .3.4.2.5.1.4.1.5.2.5.1 1.4.4.5.2 1.4.3.9.3h.5l1 .3.4.1.4.1.5.2h.5l.5.2.9.2 1.4.3h.5l.4.2h.5l.5.2h.4l.5.2 1.4.2 1.4.3h.5l1.4.3 1.4.2.5.1.5.1h.4l.5.1.5.1h.4l1 .2 2.3.4 2.4.3h.4l1.9.3 2.3.2h.5l.5.1h.5l.4.1h.5l1 .2 2.3.2h.4l.5.1h.5l.5.1 1.8.2h1l.4.1 1.4.1h1l.5.1 2.3.2M369.8 352h1l.4-.3.5-.8.5-1.3.4-1.9.5-2.3.5-2.9.5-3.1.4-3.5.5-3.6.5-3.7.4-3.7.5-3.7.5-3.6.4-3.5.5-3.4.5-3.2.5-3 .4-3 .5-2.7.5-2.5.4-2.3.5-2.2.5-2 .4-1.8.5-1.6.5-1.5.4-1.3.5-1.2.5-1 .4-.9.5-.8.5-.6.5-.6.4-.4.5-.4.5-.2.4-.2h1.4l.5.1.5.2.4.2.5.3.5.4.5.3.4.5.5.4.5.5.4.5.5.5.5.6.4.6.5.6.5.6.4.7.5.6.5.7.5.7.4.7.5.7.5.7.4.7 1 1.4.4.7.5.7.5.8 1.8 2.8 1 1.5.5.7.4.7.5.7.5.7.4.7.5.6.5.7.4.7.5.7.5.6.4.7.5.6.5.7.5.6.4.6.5.6.5.6.4.7.5.5.5.6.4.6.5.6.5.6 1 1 .4.6.4.6.5.5.5.5.5.6.4.5.5.5.5.5.4.5.5.4.5.5.4.5.5.5.5.4.4.5.5.4.5.4.5.5.4.4.5.4.5.4.4.4.5.4.5.4.4.4.5.4.5.4.4.4.5.3.5.4.5.3.9.7.5.4.9.6.5.4.4.3 1 .6.4.3.5.3.5.3 1 .6.4.3.5.3.4.2 1 .6.4.2.5.3.5.2.4.3.5.2.5.3 1 .5.9.4.4.2.5.3.5.2.4.2 1 .4.4.2.5.2.5.2 1 .4.4.2 1 .4.4.2.5.2.9.3.5.2.4.1.5.2 1 .3.4.2 1 .3.9.3 1 .3.4.2.5.1.4.1.5.2.5.1 1.4.4.4.2 1.5.3.9.3h.5l.9.3.5.1.4.1.5.2h.5l.4.2 1 .2 1.4.3h.5l.4.2h.5l.5.2h.4l.5.2 1.4.2 1.4.3h.5l1.4.3 1.4.2.5.1.4.1h.5l.5.1.4.1h.5l1 .2 2.3.4 2.3.3h.5l1.9.3 2.3.2h.5l.5.1h.4l.5.1h.5l1 .2 2.3.2h.4l.5.1h.5l.4.1 2 .2h.9l.4.1 1.4.1h1l.4.1 2.4.2M594.8 352h1l.4-.3.5-.8.5-1.3.4-1.9.5-2.3.5-2.9.5-3.1.4-3.5.5-3.6.5-3.7.4-3.7.5-3.7.5-3.6.4-3.5.5-3.4.5-3.2.5-3 .4-3 .5-2.7.5-2.5.4-2.3.5-2.2.5-2 .4-1.8.5-1.6.5-1.5.4-1.3.5-1.2.5-1 .4-.9.5-.8.5-.6.5-.6.4-.4.5-.4.5-.2.4-.2h1.4l.5.1.5.2.4.2.5.3.5.4.5.3.4.5.5.4.5.5.4.5.5.5.5.6.4.6.5.6.5.6.4.7.5.6.5.7.5.7.4.7.5.7.5.7.4.7 1 1.4.4.7.5.7.5.8 1.8 2.8 1 1.5.5.7.4.7.5.7.5.7.4.7.5.6.5.7.4.7.5.7.5.6.4.7.5.6.5.7.5.6.4.6.5.6.5.6.4.7.5.5.5.6.4.6.5.6.5.6 1 1 .4.6.4.6.5.5.5.5.5.6.4.5.5.5.5.5.4.5.5.4.5.5.4.5.5.5.5.4.4.5.5.4.5.4.5.5.4.4.5.4.5.4.4.4.5.4.5.4.4.4.5.4.5.4.4.4.5.3.5.4.5.3.9.7.5.4.9.6.5.4.4.3 1 .6.4.3.5.3.5.3 1 .6.4.3.5.3.4.2 1 .6.4.2.5.3.5.2.4.3.5.2.5.3 1 .5.9.4.4.2.5.3.5.2.4.2 1 .4.4.2.5.2.5.2 1 .4.4.2 1 .4.4.2.5.2.9.3.5.2.4.1.5.2 1 .3.4.2 1 .3.9.3 1 .3.4.2.5.1.4.1.5.2.5.1 1.4.4.4.2 1.5.3.9.3h.5l.9.3.5.1.4.1.5.2h.5l.4.2 1 .2 1.4.3h.5l.4.2h.5l.5.2h.4l.5.2 1.4.2 1.4.3h.5l1.4.3 1.4.2.5.1.4.1h.5l.5.1.4.1h.5l1 .2 2.3.4 2.3.3h.5l1.9.3 2.3.2h.5l.5.1h.4l.5.1h.5l1 .2 2.3.2h.4l.5.1h.5l.4.1 2 .2h.9l.4.1 1.4.1h1l.4.1 2.4.2" fill="none" stroke="#9ec7eb" stroke-width="3" stroke-linejoin="round" stroke-miterlimit="10"/><g fill="#211e1e"><text style="line-height:1.25;-inkscape-font-specification:'Adobe Garamond Pro, Normal';font-variant-ligatures:normal;font-variant-caps:normal;font-variant-numeric:normal;font-feature-settings:normal;text-align:center" x="30.3" y="-5.3" font-weight="400" font-size="14" font-family="Adobe Garamond Pro" letter-spacing="0" word-spacing="0" text-anchor="middle" fill="#000" stroke-width=".8" transform="translate(8.7 301.3)"><tspan x="30.3" y="-5.3" style="-inkscape-font-specification:'Adobe Garamond Pro, Normal';font-variant-ligatures:normal;font-variant-caps:normal;font-variant-numeric:normal;font-feature-settings:normal;text-align:center">Population</tspan><tspan x="30.3" y="12.2" style="-inkscape-font-specification:'Adobe Garamond Pro, Normal';font-variant-ligatures:normal;font-variant-caps:normal;font-variant-numeric:normal;font-feature-settings:normal;text-align:center">Level</tspan></text></g><g fill="#211e1e"><text style="line-height:1.25;-inkscape-font-specification:'Adobe Garamond Pro, Normal';font-variant-ligatures:normal;font-variant-caps:normal;font-variant-numeric:normal;font-feature-settings:normal;text-align:center" x="30.3" y="-5.3" font-weight="400" font-size="14" font-family="Adobe Garamond Pro" letter-spacing="0" word-spacing="0" text-anchor="middle" fill="#000" stroke-width=".8" transform="translate(9 520.1)"><tspan x="30.3" y="-5.3" style="-inkscape-font-specification:'Adobe Garamond Pro, Normal';font-variant-ligatures:normal;font-variant-caps:normal;font-variant-numeric:normal;font-feature-settings:normal;text-align:center">Subject</tspan><tspan x="30.3" y="12.2" style="-inkscape-font-specification:'Adobe Garamond Pro, Normal';font-variant-ligatures:normal;font-variant-caps:normal;font-variant-numeric:normal;font-feature-settings:normal;text-align:center">Level</tspan></text></g><g transform="translate(-52.7 195)"><use height="100%" width="100%" y="208.3" x="244.6" xlink:href="#C"/></g><g transform="translate(175.2 195)"><use height="100%" width="100%" y="208.3" x="244.6" xlink:href="#C"/></g><g transform="translate(400.8 195)"><use height="100%" width="100%" y="208.3" x="244.6" xlink:href="#C"/></g><g transform="translate(-97.2 -27.2)"><use height="100%" width="100%" y="208.3" x="244.6" xlink:href="#C"/></g><g transform="translate(130.7 -27.3)"><use height="100%" width="100%" y="208.3" x="244.6" xlink:href="#C"/></g><g transform="translate(357.8 -27.3)"><use height="100%" width="100%" y="208.3" x="244.6" xlink:href="#C"/></g><g><g transform="translate(-191.4 -23.6)"><use height="100%" width="100%" y="173" x="400.3" xlink:href="#n"/><use height="100%" width="100%" y="173" x="409" xlink:href="#e"/><use height="100%" width="100%" y="173" x="414.9" xlink:href="#o"/><use height="100%" width="100%" y="173" x="418.1" xlink:href="#p"/><use height="100%" width="100%" y="173" x="421.7" xlink:href="#q"/><use height="100%" width="100%" y="173" x="430.5" xlink:href="#r"/><use height="100%" width="100%" y="173" x="436.3" xlink:href="#s"/><use height="100%" width="100%" y="173" x="440.9" xlink:href="#f"/><use height="100%" width="100%" y="173" x="450.6" xlink:href="#e"/><use height="100%" width="100%" y="173" x="456.5" xlink:href="#o"/></g><use height="100%" width="100%" y="173" x="461.7" xlink:href="#g" transform="translate(-191.4 -23.6)"/><use height="100%" width="100%" y="173" x="466.3" xlink:href="#j" transform="translate(-191.4 -23.6)"/><use height="100%" width="100%" y="173" x="472.1" xlink:href="#i" transform="translate(-191.4 -23.6)"/><use height="100%" width="100%" y="173" x="477.4" xlink:href="#j" transform="translate(-191.4 -23.6)"/><use height="100%" width="100%" y="173" x="483.2" xlink:href="#k" transform="translate(-191.4 -23.6)"/><g transform="translate(-191.4 -23.6)"><use height="100%" width="100%" y="173" x="486.5" xlink:href="#l"/><use height="100%" width="100%" y="173" x="492.4" xlink:href="#m"/></g></g><g><g transform="translate(39.6 -23.6)"><use height="100%" width="100%" y="173" x="400.3" xlink:href="#n"/><use height="100%" width="100%" y="173" x="409" xlink:href="#e"/><use height="100%" width="100%" y="173" x="414.9" xlink:href="#o"/><use height="100%" width="100%" y="173" x="418.1" xlink:href="#p"/><use height="100%" width="100%" y="173" x="421.7" xlink:href="#q"/><use height="100%" width="100%" y="173" x="430.5" xlink:href="#r"/><use height="100%" width="100%" y="173" x="436.3" xlink:href="#s"/><use height="100%" width="100%" y="173" x="440.9" xlink:href="#f"/><use height="100%" width="100%" y="173" x="450.6" xlink:href="#e"/><use height="100%" width="100%" y="173" x="456.5" xlink:href="#o"/></g><use height="100%" width="100%" y="173" x="461.7" xlink:href="#g" transform="translate(39.6 -23.6)"/><use height="100%" width="100%" y="173" x="466.3" xlink:href="#j" transform="translate(39.6 -23.6)"/><use height="100%" width="100%" y="173" x="472.1" xlink:href="#i" transform="translate(39.6 -23.6)"/><use height="100%" width="100%" y="173" x="477.4" xlink:href="#j" transform="translate(39.6 -23.6)"/><use height="100%" width="100%" y="173" x="483.2" xlink:href="#k" transform="translate(39.6 -23.6)"/><g transform="translate(39.6 -23.6)"><use height="100%" width="100%" y="173" x="486.5" xlink:href="#l"/><use height="100%" width="100%" y="173" x="492.4" xlink:href="#m"/></g></g><path d="M329.4 134.4H427M329.8 134.4V46.7M437.3 134.4h98.2M437.7 134.4V48.2" fill="none" stroke="#a6a3a6" stroke-width=".7" stroke-linejoin="round" stroke-miterlimit="10"/><path d="M437.7 62.6h1l.3.1h.4l.3.1.3.1.3.1.4.1.3.1.3.2.3.1.4.2.3.2.3.1.4.2.3.2.3.3.3.2.4.2.3.3.3.3.3.2.4.3.3.3.3.3.4.3.3.4.3.3.3.4.4.3.3.4.3.4.3.4.4.4.3.4.3.4.3.4.4.4.3.5.3.4.4.5.3.5.3.4.3.5.4.5.3.5.3.5.3.5.4.5.3.5.3.5.3.6.4.5.3.5.3.6.4.5.3.6.3.5.3.6.4.5.3.6.3.6.3.5.4.6.6 1.2.4.5.3.6.3.6.3.6 1 1.7.3.6.4.6.3.6.3.6.7 1.1.6 1.2.4.6.6 1.1.3.6.4.5.3.6.3.6.3.5.4.6.3.5.3.6.4.6.3.5.3.5.3.6.4.5.3.5.3.6.3.5.4.5.3.5.3.5.3.5.4.5.3.5.3.5.7 1 .3.5.3.4.4.5.3.5.3.4.3.5.4.4.3.5.3.4.7.8.3.5.3.4.4.4.3.4.6.8.4.3.3.4.3.4.3.4.4.3.3.4.3.3.7.7.3.3.3.4.4.3.3.3.3.3.3.3.4.3.3.3.3.3.4.3.3.2.3.3.3.3.4.2.3.3.6.5.4.2.3.3.6.4.4.2.3.2.3.3.4.2.3.2.6.3.4.2.3.2.6.4.4.1.3.2.3.2.3.1.7.3.3.2.4.1.3.2.3.1.3.1.4.2h.3l.6.3.4.1.6.3h.4l.6.3h.3l.4.2.6.2h.3l.7.2h.3l.3.2h.4l.3.1h.3l.4.2h.6l.7.2h.3l.3.1h.3l.4.1h.3l.3.1h.4l.3.1h.3l.3.1h.4l.3.1h.6l.4.1h.6l.3.1h.7l.3.1h1l.3.1h1l.3.1h1.4l.3.1h1.6l.3.1H520.8l.3.1H524.7l.3.1h9.8l.3.1h.4M329.7 62.6h1l.3.1h.4l.3.1.3.1.3.1.4.1.3.1.3.2.3.1.4.2.3.2.3.1.4.2.3.2.3.3.3.2.4.2.3.3.3.3.3.2.4.3.3.3.3.3.4.3.3.4.3.3.3.4.4.3.3.4.3.4.3.4.4.4.3.4.3.4.3.4.4.4.3.5.3.4.4.5.3.5.3.4.3.5.4.5.3.5.3.5.3.5.4.5.3.5.3.5.3.6.4.5.3.5.3.6.4.5.3.6.3.5.3.6.4.5.3.6.3.6.3.5.4.6.6 1.2.4.5.3.6.3.6.3.6 1 1.7.3.6.4.6.3.6.3.6.7 1.1.6 1.2.4.6.6 1.1.3.6.4.5.3.6.3.6.3.5.4.6.3.5.3.6.4.6.3.5.3.5.3.6.4.5.3.5.3.6.3.5.4.5.3.5.3.5.3.5.4.5.3.5.3.5.7 1 .3.5.3.4.4.5.3.5.3.4.3.5.4.4.3.5.3.4.7.8.3.5.3.4.4.4.3.4.6.8.4.3.3.4.3.4.3.4.4.3.3.4.3.3.7.7.3.3.3.4.4.3.3.3.3.3.3.3.4.3.3.3.3.3.4.3.3.2.3.3.3.3.4.2.3.3.6.5.4.2.3.3.6.4.4.2.3.2.3.3.4.2.3.2.6.3.4.2.3.2.6.4.4.1.3.2.3.2.3.1.7.3.3.2.4.1.3.2.3.1.3.1.4.2h.3l.6.3.4.1.6.3h.4l.6.3h.3l.4.2.6.2h.3l.7.2h.3l.3.2h.4l.3.1h.3l.4.2h.6l.7.2h.3l.3.1h.3l.4.1h.3l.3.1h.4l.3.1h.3l.3.1h.4l.3.1h.6l.4.1h.6l.3.1h.7l.3.1h1l.3.1h1l.3.1h1.4l.3.1h1.6l.3.1H412.8l.3.1H416.7l.3.1h9.8l.3.1h.4" fill="none" stroke="#a3ccee" stroke-width="3" stroke-linejoin="round" stroke-miterlimit="10"/><path d="M557.4 134.4H655M557.8 134.4V46.7M665.4 134.4h98M665.7 134.4V48.2" fill="none" stroke="#a6a3a6" stroke-width=".7" stroke-linejoin="round" stroke-miterlimit="10"/><path d="M665.7 62.6h1l.3.1h.4l.3.1.3.1.3.1.4.1.3.1.3.2.3.1.4.2.3.2.3.1.4.2.3.2.3.3.3.2.4.2.3.3.3.3.3.2.4.3.3.3.3.3.4.3.3.4.3.3.3.4.4.3.3.4.3.4.3.4.4.4.3.4.3.4.3.4.4.4.3.5.3.4.4.5.3.5.3.4.3.5.4.5.3.5.3.5.3.5.4.5.3.5.3.5.3.6.4.5.3.5.3.6.4.5.3.6.3.5.3.6.4.5.3.6.3.6.3.5.4.6.6 1.2.4.5.3.6.3.6.3.6 1 1.7.3.6.4.6.3.6.3.6.7 1.1.6 1.2.4.6.6 1.1.3.6.4.5.3.6.3.6.3.5.4.6.3.5.3.6.4.6.3.5.3.5.3.6.4.5.3.5.3.6.3.5.4.5.3.5.3.5.3.5.4.5.3.5.3.5.7 1 .3.5.3.4.4.5.3.5.3.4.3.5.4.4.3.5.3.4.7.8.3.5.3.4.4.4.3.4.6.8.4.3.3.4.3.4.3.4.4.3.3.4.3.3.7.7.3.3.3.4.4.3.3.3.3.3.3.3.4.3.3.3.3.3.4.3.3.2.3.3.3.3.4.2.3.3.6.5.4.2.3.3.6.4.4.2.3.2.3.3.4.2.3.2.6.3.4.2.3.2.6.4.4.1.3.2.3.2.3.1.7.3.3.2.4.1.3.2.3.1.3.1.4.2h.3l.6.3.4.1.6.3h.4l.6.3h.3l.4.2.6.2h.3l.7.2h.3l.3.2h.4l.3.1h.3l.4.2h.6l.7.2h.3l.3.1h.3l.4.1h.3l.3.1h.4l.3.1h.3l.3.1h.4l.3.1h.6l.4.1h.6l.3.1h.7l.3.1h1l.3.1h1l.3.1h1.4l.3.1h1.6l.3.1H748.8l.3.1H752.7l.3.1h9.8l.3.1h.4M557.7 62.6h1l.3.1h.4l.3.1.3.1.3.1.4.1.3.1.3.2.3.1.4.2.3.2.3.1.4.2.3.2.3.3.3.2.4.2.3.3.3.3.3.2.4.3.3.3.3.3.4.3.3.4.3.3.3.4.4.3.3.4.3.4.3.4.4.4.3.4.3.4.3.4.4.4.3.5.3.4.4.5.3.5.3.4.3.5.4.5.3.5.3.5.3.5.4.5.3.5.3.5.3.6.4.5.3.5.3.6.4.5.3.6.3.5.3.6.4.5.3.6.3.6.3.5.4.6.6 1.2.4.5.3.6.3.6.3.6 1 1.7.3.6.4.6.3.6.3.6.7 1.1.6 1.2.4.6.6 1.1.3.6.4.5.3.6.3.6.3.5.4.6.3.5.3.6.4.6.3.5.3.5.3.6.4.5.3.5.3.6.3.5.4.5.3.5.3.5.3.5.4.5.3.5.3.5.7 1 .3.5.3.4.4.5.3.5.3.4.3.5.4.4.3.5.3.4.7.8.3.5.3.4.4.4.3.4.6.8.4.3.3.4.3.4.3.4.4.3.3.4.3.3.7.7.3.3.3.4.4.3.3.3.3.3.3.3.4.3.3.3.3.3.4.3.3.2.3.3.3.3.4.2.3.3.6.5.4.2.3.3.6.4.4.2.3.2.3.3.4.2.3.2.6.3.4.2.3.2.6.4.4.1.3.2.3.2.3.1.7.3.3.2.4.1.3.2.3.1.3.1.4.2h.3l.6.3.4.1.6.3h.4l.6.3h.3l.4.2.6.2h.3l.7.2h.3l.3.2h.4l.3.1h.3l.4.2h.6l.7.2h.3l.3.1h.3l.4.1h.3l.3.1h.4l.3.1h.3l.3.1h.4l.3.1h.6l.4.1h.6l.3.1h.7l.3.1h1l.3.1h1l.3.1h1.4l.3.1h1.6l.3.1H640.8l.3.1H644.7l.3.1h9.8l.3.1h.4" fill="none" stroke="#a3ccee" stroke-width="3" stroke-linejoin="round" stroke-miterlimit="10"/><path d="M151.9 263.4h31.4" fill="#a6a3a6" stroke="#a6a3a6" stroke-linejoin="round"/><path d="M146.6 263.4l7.4 3-1.7-3 1.7-3zm0 0M188.6 263.4l-7.5 3 1.8-3-1.8-3zm0 0" fill="#a6a3a6"/><path d="M380.1 263.4h31.5" fill="#a6a3a6" stroke="#a6a3a6" stroke-linejoin="round"/><path d="M374.8 263.4l7.5 3-1.8-3 1.8-3zm0 0M416.9 263.4l-7.5 3 1.8-3-1.8-3zm0 0" fill="#a6a3a6"/><path d="M605.1 263.4h31.5" fill="#a6a3a6" stroke="#a6a3a6" stroke-linejoin="round"/><path d="M599.8 263.4l7.5 3-1.8-3 1.8-3zm0 0M641.9 263.4l-7.5 3 1.8-3-1.8-3zm0 0" fill="#a6a3a6"/><g><path d="M235.2 160.3l-40.4 68.5" fill="none" stroke="#a6a3a6" stroke-width="2" stroke-linejoin="round"/><path d="M191.2 225v10l8.7-5zm0 0" fill="#a6a3a6"/></g><g transform="translate(-13.2 -27.2)"><use xlink:href="#C" x="244.6" y="208.3" width="100%" height="100%"/></g><g><path d="M464.7 160.3l-40.4 68.5" fill="none" stroke="#a6a3a6" stroke-width="2" stroke-linejoin="round"/><path d="M420.7 225v10l8.7-5zm0 0" fill="#a6a3a6"/></g><g transform="translate(216.3 -27.2)"><use height="100%" width="100%" y="208.3" x="244.6" xlink:href="#C"/></g><g><path d="M689.7 160.3l-40.4 68.5" fill="none" stroke="#a6a3a6" stroke-width="2" stroke-linejoin="round"/><path d="M645.7 225v10l8.7-5zm0 0" fill="#a6a3a6"/></g><g transform="translate(441.3 -27.2)"><use xlink:href="#C" x="244.6" y="208.3" width="100%" height="100%"/></g><g fill="#211e1e"><text y="-5.3" x="35.9" style="line-height:1.25;-inkscape-font-specification:'Adobe Garamond Pro, Normal';font-variant-ligatures:normal;font-variant-caps:normal;font-variant-numeric:normal;font-feature-settings:normal;text-align:center" font-weight="400" font-size="14" font-family="Adobe Garamond Pro" letter-spacing="0" word-spacing="0" text-anchor="middle" fill="#000" stroke-width=".8" transform="translate(350.9 29.6)"><tspan style="-inkscape-font-specification:'Adobe Garamond Pro, Normal';font-variant-ligatures:normal;font-variant-caps:normal;font-variant-numeric:normal;font-feature-settings:normal;text-align:center" y="-5.3" x="35.9" font-size="20">Multilevel Gaussian Process</tspan></text></g></svg>