<svg xmlns="http://www.w3.org/2000/svg" xmlns:xlink="http://www.w3.org/1999/xlink" viewBox="0 0 785.5 630.6" version="1.2"><defs><symbol overflow="visible" id="t"><path d="M3.4-7.7c0-.2 0-.3-.2-.3-.3.4-.9.8-2.1.8v.4c.3 0 .9 0 1.5-.3V-1c0 .4 0 .6-1 .6h-.4V0H5v-.3h-.5c-1 0-1-.2-1-.6zm0 0"/></symbol><symbol overflow="visible" id="a"><path d="M2.6-7.3c0-.4 0-.5 1-.5h.2v-.4H.4v.4h.3c.9 0 1 .1 1 .5v6.4c0 .4-.1.6-1 .6H.4V0h3.4v-.3h-.3c-.9 0-1-.2-1-.6zm0 0"/></symbol><symbol overflow="visible" id="c"><path d="M4.9-4c0-.3.3-.8 1-.8v-.4H4.2v.4c.5 0 .6.4.6.5l-.1.3L3.3-.9 2-4.3v-.2c0-.3.4-.3.6-.3v-.4H.2v.4c.7 0 .8 0 1 .4L2.8 0c0 .2 0 .2.2.2l.2-.2zm0 0"/></symbol><symbol overflow="visible" id="d"><path d="M7.8-2.4c0-.4 0-.5.8-.5v-.3H5.4v.3h.3c1 0 1.1.1 1.1.6v.8C6.8-.2 5.3-.1 5-.1 4 0 1.7-.7 1.7-4S4-8 5-8c1 0 2.2.8 2.6 2.9l.1.2c.2 0 .2 0 .2-.3v-2.8l-.1-.3-.2.1-.6 1c-.3-.5-1-1.1-2.2-1.1-2.2 0-4 1.9-4 4.3C.6-1.6 2.4.2 4.6.2 5.6.3 6.5 0 7-.8c.2.4.6.8.7.8v-.3zm0 0"/></symbol><symbol overflow="visible" id="e"><path d="M4.6-3.2c0-.6 0-1.1-.5-1.6-.4-.4-1-.5-1.5-.5-1 0-1.7.6-1.7 1.4 0 .3.2.5.5.5s.5-.2.5-.5c0-.5-.5-.5-.6-.5.2-.5.8-.7 1.3-.7s1.2.5 1.2 1.5v.5C1.4-3 .5-2 .5-1S1.6 0 2.4 0c.7 0 1.3-.5 1.5-1 0 .5.4 1 1 1 .2 0 .9-.2.9-1.2v-.6h-.3v.6c0 .7-.3.8-.4.8-.5 0-.5-.6-.5-.8zm-.8 1.5C3.8-.5 3 0 2.5 0c-.6 0-1.1-.4-1.1-1 0-1.6 2-1.7 2.4-1.8zm0 0"/></symbol><symbol overflow="visible" id="f"><path d="M8.6-3c0-1 0-1.3-.3-1.7-.3-.5-1-.6-1.3-.6-1 0-1.5.8-1.7 1.2-.2-1-.8-1.2-1.6-1.2-1.1 0-1.6 1-1.7 1.3v-1.3L.4-5v.3c.8 0 .9.1.9.7V-1c0 .6-.1.6-1 .6V0H3v-.3c-.8 0-1 0-1-.6V-3c0-1.3.9-2 1.6-2 .8 0 1 .7 1 1.4v2.8c0 .6-.2.6-1 .6V0h2.6v-.3c-.7 0-.9 0-.9-.6V-3c0-1.3.8-2 1.6-2 .7 0 .9.7.9 1.4v2.8c0 .6-.1.6-1 .6V0h2.7v-.3c-.6 0-1 0-1-.4zm0 0"/></symbol><symbol overflow="visible" id="g"><path d="M3.9 3l-.2-.4C2.5 1.4 1.8-.5 1.8-3c0-2.3.6-4.3 2-5.7v-.2A5 5 0 002-7a8.6 8.6 0 00-1 4c0 1 .2 2.4.9 3.7C2.7 2.2 3.6 3 3.8 3zm0 0"/></symbol><symbol overflow="visible" id="h"><path d="M5.3-2H5c0 .2-.1.9-.3 1 0 .2-.7.2-1 .2H1.3l1.4-1.4c1.8-1.6 2.5-2.3 2.5-3.5C5.3-7 4.2-8 2.8-8A2.2 2.2 0 00.6-5.7c0 .6.5.6.5.6.3 0 .6-.2.6-.6 0-.3-.2-.5-.6-.5H1c.2-.8.9-1.4 1.6-1.4 1 0 1.7.8 1.7 2 0 1-.6 1.8-1.3 2.6L.6-.3V0H5zm0 0"/></symbol><symbol overflow="visible" id="j"><path d="M5.4-3.8c0-1-.1-2-.5-2.9a2.1 2.1 0 00-4 0C.6-5.8.5-5 .5-3.7c0 1.1 0 2 .5 2.9C1.5 0 2.3.2 3 .2 4 .3 4.4-.3 5-1c.3-.9.4-2 .4-2.7zM2.9 0c-.4 0-1.1-.2-1.4-1.5V-4v-2.5c.3-.8 1-1.2 1.4-1.2.5 0 1.2.3 1.4 1.3.2.7.2 1.6.2 2.4 0 .8 0 1.7-.2 2.5C4.1-.2 3.3 0 3 0zm0 0"/></symbol><symbol overflow="visible" id="l"><path d="M1.5-6.8l1 .1c1.4 0 2.3-1 2.3-1.1L4.7-8h-.2a4 4 0 01-1.5.3c-.8 0-1.3-.2-1.6-.3h-.1l-.1.2V-4l.1.3.2-.2c.4-.5 1-.8 1.5-.8.7 0 1 .6 1 .8.3.5.3 1 .3 1.5s0 1.2-.3 1.7c-.3.4-.8.7-1.3.7C1.9 0 1.1-.6.9-1.5h.2c.2 0 .5 0 .5-.5 0-.3-.2-.5-.5-.5-.2 0-.5.1-.5.6C.6-1 1.4.2 2.7.2c1.4 0 2.6-1 2.6-2.6C5.3-3.8 4.3-5 3-5a2 2 0 00-1.5.6zm0 0"/></symbol><symbol overflow="visible" id="m"><path d="M3.4-3c0-.9-.1-2.4-.8-3.8A5.2 5.2 0 00.8-9l-.1.1.2.3C2-7.4 2.7-5.4 2.7-3c0 2.3-.5 4.3-2 5.7V3a5 5 0 001.8-2c.6-1.3.9-2.5.9-4zm0 0"/></symbol><symbol overflow="visible" id="n"><path d="M7.1-7.3c0-.4 0-.5 1-.5h.2v-.4H5v.4h.3c.8 0 .9.1.9.5v2.9H2.6v-2.8c0-.5 0-.6.9-.6h.2v-.4H.5v.4h.2c.9 0 1 .1 1 .5v6.4c0 .4-.1.6-1 .6H.5V0h3.2v-.3h-.2c-.9 0-1-.2-1-.6v-3.2h3.7v3.2c0 .4 0 .6-1 .6H5V0h3.3v-.3H8c-.8 0-.9-.2-.9-.6zm0 0"/></symbol><symbol overflow="visible" id="o"><path d="M2-8.3l-1.6.1v.4c.8 0 .9 0 .9.7V-1c0 .6-.1.6-1 .6V0H3v-.3c-.8 0-1 0-1-.6zm0 0"/></symbol><symbol overflow="visible" id="p"><path d="M2-4.8h1.4v-.4H2v-1.3c0-1.1.6-1.7 1-1.7l.5.1S3-8 3-7.6c0 .3.2.5.5.5s.5-.2.5-.5c0-.5-.4-.8-1-.8-.9 0-1.8.6-1.8 1.9v1.3h-1v.4h1v4c0 .5-.1.5-1 .5V0h2.9v-.3H3C2-.3 2-.5 2-1zm0 0"/></symbol><symbol overflow="visible" id="q"><path d="M2.7-8c-.1-.2-.1-.2-.4-.2H.5v.4h1.1v6.5c0 .4 0 1-1.1 1V0H3v-.3c-1 0-1-.6-1-1v-6.2l.1.2L6.8-.2c0 .2.1.2.2.2h.1v-7c0-.3 0-.8 1.2-.8v-.4H5.7v.4c1.1 0 1.1.5 1.1.9v5.2zm0 0"/></symbol><symbol overflow="visible" id="r"><path d="M5.5-2.6c0-1.5-1.2-2.7-2.6-2.7C1.5-5.3.4-4.1.4-2.6.4-1 1.5.1 2.9.1S5.5-1 5.5-2.6zM2.9 0c-.4 0-1-.2-1.3-.8-.3-.6-.3-1.3-.3-1.8 0-.4 0-1.1.3-1.7C2-4.9 2.5-5 3-5c.5 0 1 .2 1.3.7.4.5.4 1.3.4 1.7 0 .5 0 1.2-.3 1.8-.4.5-1 .8-1.4.8zm0 0"/></symbol><symbol overflow="visible" id="s"><path d="M2-2.8C2-3.9 2.5-5 3.4-5h.2c-.1 0-.3 0-.3.4s.2.5.4.5c.3 0 .5-.2.5-.5s-.3-.7-.8-.7C2.4-5.3 2-4.2 2-3.9v-1.4L.2-5v.3c.8 0 1 .1 1 .7V-1c0 .6-.2.6-1 .6V0h2.8v-.3H3C2-.3 2-.5 2-1zm0 0"/></symbol><symbol overflow="visible" id="b"><path d="M5.3-3c0-1 0-1.3-.3-1.7-.3-.5-.9-.6-1.3-.6-1.1 0-1.6 1-1.7 1.3v-1.3L.4-5v.3c.8 0 .9.1.9.7V-1c0 .6-.1.6-1 .6V0H3v-.3c-.8 0-1 0-1-.6V-3c0-1.3.9-2 1.6-2 .8 0 1 .7 1 1.4v2.8c0 .6-.2.6-1 .6V0h2.6v-.3c-.6 0-.9 0-.9-.4zm0 0"/></symbol><symbol overflow="visible" id="C"><path d="M1.4-2.2c.6.4 1 .4 1.2.4 1 0 1.9-.8 1.9-1.7 0-.3-.1-.8-.5-1.2.5-.5 1-.5 1-.5h.2l-.1.4c0 .1 0 .3.3.3 0 0 .3 0 .3-.4 0-.2-.2-.5-.6-.5-.6 0-1.1.4-1.3.6a2 2 0 00-1.2-.5c-1 0-1.9.8-1.9 1.8 0 .6.4 1 .6 1.2-.2.2-.4.5-.4 1 0 .7.4 1 .5 1C1 0 .4.3.4 1c0 .9 1 1.6 2.5 1.6 1.4 0 2.6-.7 2.6-1.6 0-.3 0-1-.8-1.4-.6-.3-1.2-.3-2.2-.3-.8 0-.8 0-1-.2a1 1 0 01-.3-.6l.2-.6zm1.2.2c-1 0-1-1.3-1-1.5l.1-1c.3-.4.6-.5.9-.5 1 0 1 1.2 1 1.5 0 .2 0 .7-.2 1a1 1 0 01-.8.5zM3 2.2c-1.1 0-2-.6-2-1.3 0 0 0-.5.5-.8.3-.2.4-.2 1.2-.2 1 0 2.3 0 2.3 1 0 .7-.9 1.3-2 1.3zm0 0"/></symbol><symbol overflow="visible" id="z"><path d="M4.6-2.8c.2 0 .3 0 .3-.2 0-1.2-.7-2.3-2.1-2.3C1.4-5.3.4-4.1.4-2.6.4-1 1.6 0 2.9 0a2 2 0 002-1.5l-.2-.1h-.1C4.3-.4 3.5 0 3 0S1.3-.5 1.3-2.5v-.3zM1.3-3c0-1.9 1.1-2 1.5-2C4-5 4-3.5 4-3zm0 0"/></symbol><symbol overflow="visible" id="y"><path d="M8-3.9c.2 0 .5 0 .5-.2s-.3-.2-.4-.2H1c-.2 0-.5 0-.5.2s.2.2.4.2zm0 2.2c.2 0 .5 0 .5-.2S8.2-2 8-2H1c-.2 0-.5 0-.5.2s.2.2.4.2zm0 0"/></symbol><symbol overflow="visible" id="A"><path d="M3.3-2.8l1.1-1.4c.5-.5 1-.6 1.5-.6v-.4H3.8v.4c.1 0 .3.1.3.4 0 .2 0 .3-.2.4l-.7 1-1-1.3v-.2s0-.3.4-.3v-.4H.2v.4c.6 0 .8 0 1 .3l1.5 1.9v.1l-1 1.4c-.5.6-1 .7-1.6.8V0h2v-.3C2-.3 2-.6 2-.7c0-.2 0-.3.2-.5l.8-1L4-1l.2.4s-.1.2-.4.3V0H6v-.3c-.6 0-.8 0-1-.5zm0 0"/></symbol><symbol overflow="visible" id="B"><path d="M3 2c-.8 0-1 0-1-.6v-2c.2.3.7.7 1.5.7C4.9.1 6-1 6-2.6 6-4 5-5.3 3.6-5.3a2 2 0 00-1.6.8v-.8L.3-5v.3c.9 0 1 .1 1 .6v5.6c0 .6-.2.6-1 .6v.3H3zM2-3.8l.2-.5c.3-.5.9-.7 1.3-.7 1 0 1.7 1 1.7 2.4S4.3 0 3.4 0c-.3 0-.7-.2-1-.4C2.3-.8 2-1 2-1.3zm0 0"/></symbol><symbol overflow="visible" id="E"><path d="M4.8-2.8H8c.1 0 .4 0 .4-.2s-.3-.2-.4-.2H4.8v-3.3c0-.2 0-.4-.3-.4-.2 0-.2.2-.2.4v3.3H1c-.1 0-.4 0-.4.2s.2.2.4.2h3.3V.5c0 .2 0 .4.2.4.3 0 .3-.2.3-.4zm0 0"/></symbol><symbol overflow="visible" id="i"><path d="M2.3 0c0-.6-.2-1.2-.7-1.2-.4 0-.6.4-.6.6 0 .3.2.6.6.6.2 0 .3 0 .4-.2V0a3 3 0 01-.7 2l-.1.2.1.1c.1 0 1-.9 1-2.3zm0 0"/></symbol><symbol overflow="visible" id="k"><path d="M2.2-.6c0-.3-.3-.6-.6-.6S1-.9 1-.6c0 .4.3.6.6.6.4 0 .6-.3.6-.6zm0 0"/></symbol><symbol overflow="visible" id="u"><path d="M.4 2v.3c0 .2 0 .3.3.3l.4-.3.7-3c.3.6.7.8 1.2.8 1.3 0 2.9-1.6 2.9-3.5 0-1.2-.8-1.9-1.6-1.9-1 0-2.4 1.1-2.8 2.7zM3 0c-.8 0-1-1-1-1.1l.3-1.4C2.9-5 4.1-5 4.3-5c.5 0 .8.5.8 1.2 0 .6-.3 1.8-.5 2.3-.4.8-1 1.4-1.6 1.4zm0 0"/></symbol><symbol overflow="visible" id="v"><path d="M5.5-3c0-1.2-.6-2.3-1.9-2.3C2-5.3.5-3.6.5-1.9c0 1 .6 2 1.8 2 .8 0 1.7-.3 2.5-1 .2.7.6 1 1 1 .7 0 1-.6 1-.8v-.1l-.2.1c-.1.3-.4.6-.7.6-.4 0-.4-.8-.4-1.5 1.3-1.5 1.5-3 1.5-3v-.1c-.2 0-.2 0-.3.2-.1.6-.4 1.5-1.2 2.5zm-.7 1.8c-1 1-2 1-2.4 1-.9 0-1.1-.7-1.1-1.2 0-.6.2-1.8.6-2.4C2.4-4.7 3.1-5 3.6-5c1.2 0 1.2 1.5 1.2 2.5v1.3zm0 0"/></symbol><symbol overflow="visible" id="w"><path d="M6-4.5c.2 0 .6 0 .6-.4 0-.3-.2-.3-.4-.3H3.5c-1.8 0-3 2-3 3.5C.5-.8 1 0 2.2 0c1.4 0 3-1.5 3-3.3 0-.5-.2-1-.5-1.3zM2.3-.1c-.6 0-1-.5-1-1.3 0-.7.4-3.1 2.1-3.1.5 0 1.1.3 1.1 1.2 0 .4-.2 1.4-.6 2-.4.8-1 1.2-1.6 1.2zm0 0"/></symbol><symbol overflow="visible" id="H"><path d="M8.6-4l-.1-.4s-.2.1-.2.3c0 1.2-.8 1.8-1.7 1.8-.7 0-1.3-.5-1.9-1-.6-.5-1.2-1-2-1-1.3 0-2 1.2-2 2.3l.1.4c.2 0 .2-.2.2-.3 0-1.3 1-1.8 1.7-1.8s1.3.5 1.9 1c.6.6 1.2 1.1 2 1.1 1.3 0 2-1.3 2-2.4zm0 0"/></symbol><symbol overflow="visible" id="D"><path d="M1.6-1.3l.1-.5.1-.4.6-.8.8-.3c.3 0 .5.2.5.5l-.2.8-.2 1-.1.4-.1.4c0 .2.1.3.2.3.2 0 .3-.1.3-.2l.2-.5.1-.7.2-.5c0-.5 0-.5.3-.7.2-.4.6-.8 1.1-.8.3 0 .5.2.5.5 0 .5-.3 1.4-.5 1.8v.4c0 .5.3.7.6.7C7 0 7.2-1 7.2-1.1v-.1H7c-.2.7-.5 1-.9 1L6-.3V-1c.2-.3.6-1.2.6-1.6 0-.6-.4-1-1-1s-1 .4-1.4.9c0-.7-.6-.8-1-.8-.3 0-.8.1-1.3.7 0-.5-.4-.7-.8-.7-.3 0-.5.2-.6.4l-.3.8.2.1.1-.2c.1-.4.3-.9.6-.9.2 0 .3.2.3.4l-.1.5-.2.7L.8-.5l-.1.3c0 .2.2.3.3.3l.3-.2.1-.5zm0 0"/></symbol><symbol overflow="visible" id="G"><path d="M4.4-3h.3l.1-.2c0-.2-.2-.2-.3-.2h-2C1.3-3.4.3-2.2.3-1.2.3-.4 1 0 1.6 0c1 0 2.1-1 2.1-2.2l-.2-.8zM1.6 0C1.2-.1 1-.4 1-1c0-.3.2-2 1.5-2 .7 0 .7.7.7.8 0 .9-.5 2-1.5 2zm0 0"/></symbol><symbol overflow="visible" id="x"><path d="M2.4-5c0-.1-.1-.3-.3-.3-.2 0-.5.2-.5.5 0 .1.1.3.3.3.2 0 .5-.2.5-.5zM1.2-2L.8-1l-.1.4c0 .4.3.7.7.7.8 0 1.1-1.1 1.1-1.2v-.1h-.2c-.2.7-.5 1-.9 1l-.1-.2.1-.6.3-.6.2-.7.2-.5c0-.4-.4-.7-.8-.7-.7 0-1 1-1 1.2v.1l.2-.1c.2-.8.6-1 .8-1 .1 0 .2 0 .2.3v.4zm0 0"/></symbol><symbol overflow="visible" id="F"><path d="M6.5-8.6c-.6.5-1.3.8-1.9.8-.4 0-.8-.2-1.2-.4-.4-.2-.7-.4-1.2-.4-.3 0-.6 0-.9.2a5 5 0 00-.7.4l-.6.5.2.2C.8-7.8 1.4-8 2-8c.5 0 .8.2 1.2.4.4.2.8.4 1.2.4.3 0 .6 0 1-.2l.6-.4.6-.5zm0 0"/></symbol></defs><g transform="translate(.6 -23.8)"><use xlink:href="#a" x="113.3" y="173" width="100%" height="100%"/><use xlink:href="#b" x="117.6" y="173" width="100%" height="100%"/></g><g transform="translate(.6 -23.8)"><use xlink:href="#c" x="123.8" y="173" width="100%" height="100%"/><use xlink:href="#d" x="129.9" y="173" width="100%" height="100%"/><use xlink:href="#e" x="139.1" y="173" width="100%" height="100%"/><use xlink:href="#f" x="145" y="173" width="100%" height="100%"/><use xlink:href="#f" x="154.7" y="173" width="100%" height="100%"/><use xlink:href="#e" x="164.5" y="173" width="100%" height="100%"/></g><g transform="translate(.6 -23.8)"><use xlink:href="#g" x="172.3" y="173" width="100%" height="100%"/><use xlink:href="#h" x="176.9" y="173" width="100%" height="100%"/></g><use xlink:href="#i" x="182.7" y="173" width="100%" height="100%" transform="translate(.6 -23.8)"/><use xlink:href="#j" x="188" y="173" width="100%" height="100%" transform="translate(.6 -23.8)"/><use xlink:href="#k" x="193.8" y="173" width="100%" height="100%" transform="translate(.6 -23.8)"/><g transform="translate(.6 -23.8)"><use xlink:href="#l" x="197.1" y="173" width="100%" height="100%"/><use xlink:href="#m" x="202.9" y="173" width="100%" height="100%"/></g><g transform="translate(132.6 -23.8)"><use xlink:href="#n" x="213.4" y="173" width="100%" height="100%"/><use xlink:href="#e" x="222.2" y="173" width="100%" height="100%"/><use xlink:href="#o" x="228" y="173" width="100%" height="100%"/><use xlink:href="#p" x="231.3" y="173" width="100%" height="100%"/><use xlink:href="#q" x="234.8" y="173" width="100%" height="100%"/><use xlink:href="#r" x="243.6" y="173" width="100%" height="100%"/><use xlink:href="#s" x="249.5" y="173" width="100%" height="100%"/><use xlink:href="#f" x="254" y="173" width="100%" height="100%"/><use xlink:href="#e" x="263.8" y="173" width="100%" height="100%"/><use xlink:href="#o" x="269.6" y="173" width="100%" height="100%"/></g><g transform="translate(132.6 -23.8)"><use xlink:href="#g" x="274.9" y="173" width="100%" height="100%"/><use xlink:href="#j" x="279.4" y="173" width="100%" height="100%"/></g><use xlink:href="#i" x="285.3" y="173" width="100%" height="100%" transform="translate(132.6 -23.8)"/><g transform="translate(132.6 -23.8)"><use xlink:href="#h" x="290.5" y="173" width="100%" height="100%"/><use xlink:href="#m" x="296.4" y="173" width="100%" height="100%"/></g><g transform="translate(269 -23.8)"><use xlink:href="#n" x="306.8" y="173" width="100%" height="100%"/><use xlink:href="#e" x="315.6" y="173" width="100%" height="100%"/><use xlink:href="#o" x="321.4" y="173" width="100%" height="100%"/><use xlink:href="#p" x="324.7" y="173" width="100%" height="100%"/><use xlink:href="#q" x="328.3" y="173" width="100%" height="100%"/><use xlink:href="#r" x="337" y="173" width="100%" height="100%"/><use xlink:href="#s" x="342.9" y="173" width="100%" height="100%"/><use xlink:href="#f" x="347.5" y="173" width="100%" height="100%"/><use xlink:href="#e" x="357.2" y="173" width="100%" height="100%"/><use xlink:href="#o" x="363.1" y="173" width="100%" height="100%"/></g><g transform="translate(269 -23.8)"><use xlink:href="#g" x="368.3" y="173" width="100%" height="100%"/><use xlink:href="#j" x="372.9" y="173" width="100%" height="100%"/></g><use xlink:href="#i" x="378.7" y="173" width="100%" height="100%" transform="translate(269 -23.8)"/><g transform="translate(269 -23.8)"><use xlink:href="#t" x="384" y="173" width="100%" height="100%"/><use xlink:href="#m" x="389.8" y="173" width="100%" height="100%"/></g><g transform="translate(278 -23.8)"><use xlink:href="#n" x="400.3" y="173" width="100%" height="100%"/><use xlink:href="#e" x="409" y="173" width="100%" height="100%"/><use xlink:href="#o" x="414.9" y="173" width="100%" height="100%"/><use xlink:href="#p" x="418.1" y="173" width="100%" height="100%"/><use xlink:href="#q" x="421.7" y="173" width="100%" height="100%"/><use xlink:href="#r" x="430.5" y="173" width="100%" height="100%"/><use xlink:href="#s" x="436.3" y="173" width="100%" height="100%"/><use xlink:href="#f" x="440.9" y="173" width="100%" height="100%"/><use xlink:href="#e" x="450.6" y="173" width="100%" height="100%"/><use xlink:href="#o" x="456.5" y="173" width="100%" height="100%"/></g><use xlink:href="#g" x="461.7" y="173" width="100%" height="100%" transform="translate(278 -23.8)"/><use xlink:href="#j" x="466.3" y="173" width="100%" height="100%" transform="translate(278 -23.8)"/><use xlink:href="#i" x="472.1" y="173" width="100%" height="100%" transform="translate(278 -23.8)"/><use xlink:href="#j" x="477.4" y="173" width="100%" height="100%" transform="translate(278 -23.8)"/><use xlink:href="#k" x="483.2" y="173" width="100%" height="100%" transform="translate(278 -23.8)"/><g transform="translate(278 -23.8)"><use xlink:href="#l" x="486.5" y="173" width="100%" height="100%"/><use xlink:href="#m" x="492.4" y="173" width="100%" height="100%"/></g><use height="100%" width="100%" y="315.9" x="290.9" xlink:href="#u" transform="translate(-74.6 215.5)"/><use height="100%" width="100%" y="315.9" x="300.8" xlink:href="#v" transform="translate(45.3 249.5)"/><use height="100%" width="100%" y="315.9" x="312.3" xlink:href="#w" transform="translate(180.8 186.5)"/><use height="100%" width="100%" y="590.8" x="256.5" xlink:href="#u" transform="translate(-147.2 -184)"/><use height="100%" width="100%" y="592.6" x="262.6" xlink:href="#x" transform="translate(-147.2 -184)"/><use height="100%" width="100%" y="590.8" x="269.3" xlink:href="#y" transform="translate(-147.2 -184)"/><g transform="translate(-147.2 -184)"><use height="100%" width="100%" y="590.8" x="281.7" xlink:href="#z"/><use height="100%" width="100%" y="590.8" x="286.9" xlink:href="#A"/><use height="100%" width="100%" y="590.8" x="293.1" xlink:href="#B"/><use height="100%" width="100%" y="590.8" x="299.6" xlink:href="#g"/><use height="100%" width="100%" y="590.8" x="304.1" xlink:href="#o"/><use height="100%" width="100%" y="590.8" x="307.4" xlink:href="#r"/><use height="100%" width="100%" y="590.8" x="313.3" xlink:href="#C"/></g><use height="100%" width="100%" y="590.8" x="319.3" xlink:href="#g" transform="translate(-147.2 -184)"/><use height="100%" width="100%" y="590.8" x="323.8" xlink:href="#u" transform="translate(-147.2 -184)"/><use height="100%" width="100%" y="592.6" x="329.9" xlink:href="#D" transform="translate(-147.2 -184)"/><use height="100%" width="100%" y="590.8" x="337.8" xlink:href="#m" transform="translate(-147.2 -184)"/><use height="100%" width="100%" y="590.8" x="345" xlink:href="#E" transform="translate(-147.2 -184)"/><use height="100%" width="100%" y="590.8" x="357.5" xlink:href="#F" transform="translate(-147.2 -184)"/><use height="100%" width="100%" y="590.8" x="356.8" xlink:href="#u" transform="translate(-147.2 -184)"/><use height="100%" width="100%" y="592.6" x="362.8" xlink:href="#x" transform="translate(-147.2 -184)"/><use height="100%" width="100%" y="590.8" x="370.1" xlink:href="#u" transform="translate(-147.2 -184)"/><use height="100%" width="100%" y="592.6" x="376.2" xlink:href="#G" transform="translate(-147.2 -184)"/><use height="100%" width="100%" y="590.8" x="381.8" xlink:href="#m" transform="translate(-147.2 -184)"/><use xlink:href="#v" x="250.9" y="608.2" width="100%" height="100%" transform="translate(83.9 -201.4)"/><use xlink:href="#x" x="258.4" y="610" width="100%" height="100%" transform="translate(83.9 -201.4)"/><use xlink:href="#y" x="265.1" y="608.2" width="100%" height="100%" transform="translate(83.9 -201.4)"/><g transform="translate(83.9 -201.4)"><use xlink:href="#z" x="277.5" y="608.2" width="100%" height="100%"/><use xlink:href="#A" x="282.7" y="608.2" width="100%" height="100%"/><use xlink:href="#B" x="288.9" y="608.2" width="100%" height="100%"/><use xlink:href="#g" x="295.4" y="608.2" width="100%" height="100%"/><use xlink:href="#o" x="299.9" y="608.2" width="100%" height="100%"/><use xlink:href="#r" x="303.2" y="608.2" width="100%" height="100%"/><use xlink:href="#C" x="309" y="608.2" width="100%" height="100%"/></g><use xlink:href="#g" x="315" y="608.2" width="100%" height="100%" transform="translate(83.9 -201.4)"/><use xlink:href="#v" x="319.6" y="608.2" width="100%" height="100%" transform="translate(83.9 -201.4)"/><use xlink:href="#D" x="327" y="610" width="100%" height="100%" transform="translate(83.9 -201.4)"/><use xlink:href="#m" x="335" y="608.2" width="100%" height="100%" transform="translate(83.9 -201.4)"/><use xlink:href="#E" x="342.2" y="608.2" width="100%" height="100%" transform="translate(83.9 -201.4)"/><use xlink:href="#F" x="354.8" y="608.2" width="100%" height="100%" transform="translate(83.9 -201.4)"/><use xlink:href="#v" x="354" y="608.2" width="100%" height="100%" transform="translate(83.9 -201.4)"/><use xlink:href="#x" x="361.4" y="610" width="100%" height="100%" transform="translate(83.9 -201.4)"/><use xlink:href="#v" x="368.7" y="608.2" width="100%" height="100%" transform="translate(83.9 -201.4)"/><use xlink:href="#G" x="376.2" y="610" width="100%" height="100%" transform="translate(83.9 -201.4)"/><use xlink:href="#m" x="381.8" y="608.2" width="100%" height="100%" transform="translate(83.9 -201.4)"/><use xlink:href="#w" x="254.1" y="625.6" width="100%" height="100%" transform="translate(306.9 -218.8)"/><use xlink:href="#x" x="260.7" y="627.4" width="100%" height="100%" transform="translate(306.9 -218.8)"/><use xlink:href="#y" x="267.4" y="625.6" width="100%" height="100%" transform="translate(306.9 -218.8)"/><g transform="translate(306.9 -218.8)"><use xlink:href="#z" x="279.9" y="625.6" width="100%" height="100%"/><use xlink:href="#A" x="285.1" y="625.6" width="100%" height="100%"/><use xlink:href="#B" x="291.2" y="625.6" width="100%" height="100%"/><use xlink:href="#g" x="297.7" y="625.6" width="100%" height="100%"/><use xlink:href="#o" x="302.3" y="625.6" width="100%" height="100%"/><use xlink:href="#r" x="305.6" y="625.6" width="100%" height="100%"/><use xlink:href="#C" x="311.4" y="625.6" width="100%" height="100%"/></g><use xlink:href="#g" x="317.4" y="625.6" width="100%" height="100%" transform="translate(306.9 -218.8)"/><use xlink:href="#w" x="322" y="625.6" width="100%" height="100%" transform="translate(306.9 -218.8)"/><use xlink:href="#D" x="328.6" y="627.4" width="100%" height="100%" transform="translate(306.9 -218.8)"/><use xlink:href="#m" x="336.6" y="625.6" width="100%" height="100%" transform="translate(306.9 -218.8)"/><use xlink:href="#E" x="343.8" y="625.6" width="100%" height="100%" transform="translate(306.9 -218.8)"/><use xlink:href="#F" x="355.8" y="625.6" width="100%" height="100%" transform="translate(306.9 -218.8)"/><use xlink:href="#w" x="355.6" y="625.6" width="100%" height="100%" transform="translate(306.9 -218.8)"/><use xlink:href="#x" x="362.2" y="627.4" width="100%" height="100%" transform="translate(306.9 -218.8)"/><use xlink:href="#w" x="369.5" y="625.6" width="100%" height="100%" transform="translate(306.9 -218.8)"/><use xlink:href="#G" x="376.2" y="627.4" width="100%" height="100%" transform="translate(306.9 -218.8)"/><use xlink:href="#m" x="381.8" y="625.6" width="100%" height="100%" transform="translate(306.9 -218.8)"/><path d="M111.9 134.3h97.6M112.3 134.3V46.6M219.8 134.3H318M220.2 134.3V48M155.9 301h112.6" fill="none" stroke="#a6a3a6" stroke-width=".8" stroke-linejoin="round" stroke-miterlimit="10"/><path d="M30.3 202.9h725.4" fill="none" stroke="#a6a3a6" stroke-width="1.2" stroke-linejoin="round" stroke-dasharray="11.35945345,11.35945345"/><path d="M112.3 134.2h.9l.5-.7.5-3.6.5-8 .4-10.6.5-11.4.5-10.5.5-8.9.4-6.9.5-5.1.5-3.5.5-2.3.5-1.1.4-.3.5.3.5.8.5 1.2.4 1.4.5 1.7.5 1.7.5 1.9.4 1.8.5 2 .5 1.8.5 1.9.4 1.8.5 1.8.5 1.7.5 1.7.4 1.6.5 1.6.5 1.5.5 1.4.5 1.4.4 1.4.5 1.3.5 1.2.5 1.2.4 1.1.5 1.1.5 1 .5 1 .4 1 .5 1 .5.9.5.8.4.8.5.8.5.8.5.7.4.7.5.7.5.6.5.7.5.6.4.5.5.6.5.5.5.5.4.5.5.5.5.5.5.4.4.5.5.4.5.4.5.4.4.4.5.3.5.4.5.3.5.4.4.3.5.3.5.3.5.3.4.3.5.3.5.2.5.3.4.2.5.3 1 .4.4.3.5.2.5.2.5.2.4.2.5.2 1 .4.5.2.4.1.5.2 1 .3 1 .3.9.3 1 .3.4.2h.5l1 .3.9.3 1 .2.4.1.5.1.5.1.4.2h.5l.5.2h.5l.4.1.5.1 1.4.3 1 .2 1 .1 1.4.3h.4l.5.1 2 .3h.4l.5.1.5.1 1 .1h.4l.5.1 1 .2 1.8.2 2.4.2h.5l1 .2h.9l1.9.2 1 .1h.4l.5.1h.9l.5.1 3.4.3h1.9l1.4.2h1.9l1.4.2h1.9l.5.1h1.4l2 .2M220.2 62.5h1.3l.4.1.3.1h.3l.3.2h.4l.3.2.3.1.3.2.4.2.3.1.3.2.4.2.3.2.3.2.3.3.4.2.3.3.3.2.3.3.4.3.3.3.3.3.4.3.3.3.3.4.3.3.4.4.3.4.3.3.3.4.4.4.3.4.3.5.3.4.4.4.3.5.3.4.4.5.3.4.3.5.3.5.4.5.3.5.3.5.3.5.4.5.3.5.3.5.3.5.4.6.3.5.3.5.4.6.3.5.3.6.3.6.4.5.3.6.3.5.3.6.4.6.6 1.1.4.6.3.6.3.6.3.5 1 1.8.3.6.4.6.3.5.3.6.7 1.2.6 1.1.4.6.6 1.2.3.5.4.6.3.6.3.5.3.6.4.6.3.5.3.6.4.5.3.6.3.5.3.5.4.6.3.5.3.5.3.6.4.5.3.5.3.5.3.5.4.5.3.5.3.5.7 1 .3.4.3.5.4.5.3.4.3.5.3.4.4.5.3.4.3.5.7.8.3.4.3.4.4.4.3.4.6.8.4.4.3.4.3.4.3.3.4.4.3.3.3.4.7.7.3.3.3.3.4.3.3.4.3.3.3.3.4.3.3.3.3.2.4.3.3.3.3.3.3.2.4.3.3.3.6.4.4.3.3.2.6.5.4.2.3.2.3.2.4.2.3.2.6.4.4.2.3.2.6.3.4.2.3.2.3.1.3.2.7.3.3.1.4.2.3.1.3.2.3.1.4.1.3.2.6.2.4.1.6.2.4.1.6.2.3.1.4.1.6.2.3.1.7.2h.3l.3.1.4.1h.3l.3.1.4.1h.3l.3.1.7.2h.6l.3.1.4.1h.6l.4.1h.3l.3.1h.3l.4.1h.3l.3.1h.7l.3.1h.6l.4.1h.6l.4.1H295.7l.7.1h.6l.7.1h1.3l.7.1H301.3l.3.1H304.2l.4.1H309.5l1 .1h7.5" fill="none" stroke="#a3ccee" stroke-width="3" stroke-linejoin="round" stroke-miterlimit="10"/><path d="M213.5 325.7v58.5" fill="none" stroke="#a6a3a6" stroke-width="2" stroke-linejoin="round"/><path d="M208.5 382.7l5 8.7 5-8.7zm0 0" fill="#a6a3a6"/><path d="M30.3 369.4h725.4" fill="none" stroke="#a6a3a6" stroke-width="1.2" stroke-linejoin="round" stroke-dasharray="11.35945345,11.35945345"/><path d="M340.3 418.1v25.7" fill="none" stroke="#a6a3a6" stroke-width="2" stroke-linejoin="round"/><path d="M335.4 442.3l5 8.7 5-8.7zm0 0" fill="#a6a3a6"/><path d="M125.8 420l18 18" fill="none" stroke="#a6a3a6" stroke-width="2" stroke-linejoin="round"/><path d="M139.3 440.5l9.7 2.6-2.6-9.6zm0 0" fill="#a6a3a6"/><path d="M556.4 420l-18 18" fill="none" stroke="#a6a3a6" stroke-width="2" stroke-linejoin="round"/><path d="M535.9 433.5l-2.6 9.7 9.6-2.6zm0 0" fill="#a6a3a6"/><path d="M159.4 543h350.8" fill="none" stroke="#4a4747" stroke-width=".9" stroke-linejoin="round" stroke-dasharray="4.62816956,4.62816956"/><path d="M512.7 543h2.5" fill="none" stroke="#4a4747" stroke-linejoin="round"/><path d="M166.3 551.8c1.6 0 3.2-.7 4.2-1.2a23 23 0 008.4-8 94.8 94.8 0 008.4-14.8l4.2-8.7 4.2-8.5c1-1.8 3-5.6 4.2-7.4a49.5 49.5 0 018.4-10.4l4.2-3a28 28 0 014.2-1.8c1-.3 3.2-.7 4.2-.7s3.2 0 4.2.2l4.2 1.4c1.2.6 3.3 2 4.2 2.8a36.3 36.3 0 018.4 12.1 130.8 130.8 0 018.5 25.4l4.2 17.5c1 4.5 3 13.6 4.2 18.1a184.6 184.6 0 008.4 28.8 46.7 46.7 0 008.4 14.6c1 1 3 2.8 4.2 3.6a31.6 31.6 0 008.4 3.6 51 51 0 0021 .4 84.6 84.6 0 0012.6-3.2 136.7 136.7 0 008.4-3.4l4.2-1.8 4.2-1.8a147 147 0 0112.6-4c1-.4 3.2-.9 4.2-1.2l4.2-1a98.8 98.8 0 008.4-3 61 61 0 008.4-5 70.7 70.7 0 0012.7-12.7l4.2-5.4 4.2-5.6c1-1.4 3-4.2 4.2-5.5a175.1 175.1 0 018.4-9.6 79.6 79.6 0 018.4-6.8l4.2-2.5 4.2-2.2 4.2-2.1a86.8 86.8 0 008.4-5.6 68.5 68.5 0 0012.6-14.4l4.2-6.3 4.2-6.4A208 208 0 01469 495l4.2-4.3a49.1 49.1 0 018.4-5.6 40.5 40.5 0 018.4-2.4 47.3 47.3 0 018.4-.3 47.5 47.5 0 018.5 1.8 49.6 49.6 0 018.4 4" fill="none" stroke="#a6a3a6" stroke-width="2" stroke-linejoin="round" stroke-miterlimit="10"/><path d="M168.2 548.5c0 2.6-3.9 2.6-3.9 0s4-2.6 4 0M172.4 548.7c0 2.7-3.9 2.7-3.9 0 0-2.6 4-2.6 4 0M176.7 529.8c0 2.6-4 2.6-4 0s4-2.6 4 0M180.9 548.6c0 2.6-4 2.6-4 0s4-2.6 4 0M185 518.7c0 2.6-3.9 2.6-3.9 0s4-2.6 4 0M189.3 532.8c0 2.6-4 2.6-4 0s4-2.6 4 0M193.5 516.4c0 2.6-4 2.6-4 0s4-2.6 4 0M197.7 508.6c0 2.6-4 2.6-4 0s4-2.6 4 0M201.9 499.5c0 2.6-4 2.6-4 0s4-2.6 4 0M206 501c0 2.6-3.8 2.6-3.8 0s3.9-2.6 3.9 0M210.3 498.5c0 2.6-4 2.6-4 0s4-2.6 4 0M214.5 485.9c0 2.6-4 2.6-4 0s4-2.6 4 0M218.7 487.2c0 2.6-4 2.6-4 0s4-2.6 4 0M222.9 487.3c0 2.6-4 2.6-4 0s4-2.6 4 0M227 494.2c0 2.6-3.8 2.6-3.8 0s3.9-2.6 3.9 0M231.3 484.5c0 2.6-4 2.6-4 0s4-2.6 4 0M235.5 488.2c0 2.6-4 2.6-4 0s4-2.6 4 0M239.7 497.5c0 2.6-4 2.6-4 0s4-2.6 4 0M243.9 502.7c0 2.6-4 2.6-4 0 0-2.7 4-2.7 4 0M248.1 524.8c0 2.6-3.9 2.6-3.9 0s4-2.6 4 0M252.3 518.2c0 2.6-3.9 2.6-3.9 0s4-2.6 4 0M256.5 537.7c0 2.6-3.9 2.6-3.9 0s4-2.6 4 0M260.7 574c0 2.5-3.9 2.5-3.9 0 0-2.7 4-2.7 4 0M265 579.5c0 2.6-4 2.6-4 0s4-2.6 4 0M269.1 602.2c0 2.6-3.9 2.6-3.9 0s4-2.6 4 0M273.3 595.3c0 2.6-3.9 2.6-3.9 0s4-2.6 4 0M277.5 604.8c0 2.6-3.9 2.6-3.9 0s4-2.6 4 0M281.7 613c0 2.6-3.9 2.6-3.9 0s4-2.6 4 0M286 612c0 2.6-4 2.6-4 0s4-2.6 4 0M290.1 618.3c0 2.6-3.9 2.6-3.9 0s4-2.6 4 0M294.3 615.8c0 2.6-3.9 2.6-3.9 0s4-2.6 4 0M298.5 615.4c0 2.6-3.9 2.6-3.9 0s4-2.6 4 0M302.7 616.6c0 2.6-3.9 2.6-3.9 0s4-2.6 4 0M307 617c0 2.7-4 2.7-4 0 0-2.5 4-2.5 4 0M311.2 613.9c0 2.6-4 2.6-4 0s4-2.6 4 0M315.4 616.5c0 2.6-4 2.6-4 0 0-2.7 4-2.7 4 0M319.6 612.7c0 2.6-4 2.6-4 0s4-2.6 4 0M323.8 612.8c0 2.6-4 2.6-4 0s4-2.6 4 0M328 610.5c0 2.6-4 2.6-4 0 0-2.7 4-2.7 4 0M332.2 608.4c0 2.6-4 2.6-4 0s4-2.6 4 0M336.4 607.9c0 2.6-4 2.6-4 0s4-2.6 4 0M340.6 604.9c0 2.6-4 2.6-4 0s4-2.6 4 0M344.8 596.2c0 2.6-4 2.6-4 0s4-2.6 4 0M349 600.6c0 2.6-4 2.6-4 0s4-2.6 4 0M353.2 605.3c0 2.6-4 2.6-4 0s4-2.6 4 0M357.4 598.1c0 2.7-4 2.7-4 0 0-2.6 4-2.6 4 0M361.6 589.2c0 2.6-4 2.6-4 0s4-2.6 4 0M365.8 604.3c0 2.6-4 2.6-4 0s4-2.6 4 0M370 599.1c0 2.6-4 2.6-4 0s4-2.6 4 0M374.2 599.2c0 2.6-4 2.6-4 0s4-2.6 4 0M378.4 593.9c0 2.6-3.9 2.6-3.9 0s4-2.6 4 0M382.6 588.1c0 2.7-3.9 2.7-3.9 0 0-2.6 4-2.6 4 0M386.8 584.2c0 2.6-3.9 2.6-3.9 0s4-2.6 4 0M391 578.5c0 2.6-3.9 2.6-3.9 0s4-2.6 4 0M395.2 579.4c0 2.6-3.9 2.6-3.9 0s4-2.6 4 0M399.4 568.6c0 2.6-3.9 2.6-3.9 0s4-2.6 4 0M403.6 548.5c0 2.6-3.9 2.6-3.9 0s4-2.6 4 0M407.8 563.6c0 2.6-3.9 2.6-3.9 0s4-2.6 4 0M412 582.6c0 2.6-3.9 2.6-3.9 0s4-2.6 4 0M416.2 551.8c0 2.6-3.9 2.6-3.9 0s4-2.6 4 0M420.4 534.7c0 2.6-3.9 2.6-3.9 0s4-2.6 4 0M424.6 539.9c0 2.6-3.9 2.6-3.9 0s4-2.6 4 0M428.8 544c0 2.6-3.9 2.6-3.9 0s4-2.6 4 0M433 528.5c0 2.6-3.9 2.6-3.9 0s4-2.6 4 0M437.3 543c0 2.6-4 2.6-4 0s4-2.6 4 0M441.5 527.7c0 2.6-4 2.6-4 0s4-2.6 4 0M445.7 529.7c0 2.6-4 2.6-4 0s4-2.6 4 0M449.9 520c0 2.5-4 2.5-4 0 0-2.7 4-2.7 4 0M454 519c0 2.7-3.8 2.7-3.8 0 0-2.5 3.9-2.5 3.9 0M458.3 495.8c0 2.6-4 2.6-4 0s4-2.6 4 0M462.5 501.8c0 2.6-4 2.6-4 0s4-2.6 4 0M466.7 498.6c0 2.6-4 2.6-4 0s4-2.6 4 0M470.9 500.4c0 2.6-4 2.6-4 0s4-2.6 4 0M475 492.6c0 2.6-3.8 2.6-3.8 0s3.9-2.6 3.9 0M479.3 490.3c0 2.6-4 2.6-4 0s4-2.6 4 0M483.5 483.2c0 2.6-4 2.6-4 0s4-2.6 4 0M487.7 483.4c0 2.6-4 2.6-4 0s4-2.6 4 0M491.9 485.5c0 2.6-4 2.6-4 0 0-2.7 4-2.7 4 0M496 480c0 2.6-3.8 2.6-3.8 0 0-2.7 3.9-2.7 3.9 0M500.3 484.6c0 2.6-4 2.6-4 0s4-2.6 4 0M504.5 482.5c0 2.6-4 2.6-4 0 0-2.7 4-2.7 4 0M508.7 495.1c0 2.6-4 2.6-4 0s4-2.6 4 0M513 487.3c0 2.6-4 2.6-4 0s4-2.6 4 0M517.1 482.9c0 2.6-3.9 2.6-3.9 0s4-2.6 4 0" fill="#b56b75" stroke="#b56b75" stroke-width=".7" stroke-linecap="round" stroke-linejoin="round" stroke-miterlimit="10"/><path d="M203.3 521.7h31.4" fill="none" stroke="#4a4747" stroke-linejoin="round"/><path d="M198 521.7l7.4 3-1.7-3 1.7-3zm0 0M240 521.7l-7.5 3 1.8-3-1.8-3zm0 0" fill="#4a4747"/><path d="M340.6 580.2v-74.5" fill="none" stroke="#4a4747" stroke-linejoin="round"/><path d="M340.6 585.5l3-7.4-3 1.7-3-1.7zm0 0M340.6 500.4l3 7.5-3-1.8-3 1.8zm0 0" fill="#4a4747"/><path d="M488 513.2v-57.6" fill="none" stroke="#4a4747" stroke-linejoin="round"/><path d="M488 518.5l3-7.5-3 1.8-3-1.8zm0 0M488 450.3l3 7.5-3-1.8-3 1.8zm0 0" fill="#4a4747"/><text style="line-height:1.25;-inkscape-font-specification:'Adobe Garamond Pro, Normal';font-variant-ligatures:normal;font-variant-caps:normal;font-variant-numeric:normal;font-feature-settings:normal;text-align:center" x="30.3" y="-5.3" font-weight="400" font-size="14" font-family="Adobe Garamond Pro" letter-spacing="0" word-spacing="0" text-anchor="middle" fill="#000" stroke-width=".8" transform="translate(8.7 88.1)"><tspan x="30.3" y="-5.3" style="-inkscape-font-specification:'Adobe Garamond Pro, Normal';font-variant-ligatures:normal;font-variant-caps:normal;font-variant-numeric:normal;font-feature-settings:normal;text-align:center">Population</tspan><tspan x="30.3" y="12.2" style="-inkscape-font-specification:'Adobe Garamond Pro, Normal';font-variant-ligatures:normal;font-variant-caps:normal;font-variant-numeric:normal;font-feature-settings:normal;text-align:center">Parameter</tspan><tspan x="30.3" y="29.7" style="-inkscape-font-specification:'Adobe Garamond Pro, Normal';font-variant-ligatures:normal;font-variant-caps:normal;font-variant-numeric:normal;font-feature-settings:normal;text-align:center">Priors</tspan></text><text style="line-height:1.25;-inkscape-font-specification:'Adobe Garamond Pro, Normal';font-variant-ligatures:normal;font-variant-caps:normal;font-variant-numeric:normal;font-feature-settings:normal;text-align:center" x="30.3" y="-5.3" font-weight="400" font-size="14" font-family="Adobe Garamond Pro" letter-spacing="0" word-spacing="0" text-anchor="middle" fill="#000" stroke-width=".8" transform="translate(8.7 248.6)"><tspan x="30.3" y="-5.3" style="-inkscape-font-specification:'Adobe Garamond Pro, Normal';font-variant-ligatures:normal;font-variant-caps:normal;font-variant-numeric:normal;font-feature-settings:normal;text-align:center">Population</tspan><tspan x="30.3" y="12.2" style="-inkscape-font-specification:'Adobe Garamond Pro, Normal';font-variant-ligatures:normal;font-variant-caps:normal;font-variant-numeric:normal;font-feature-settings:normal;text-align:center">Level</tspan></text><text style="line-height:1.25;-inkscape-font-specification:'Adobe Garamond Pro, Normal';font-variant-ligatures:normal;font-variant-caps:normal;font-variant-numeric:normal;font-feature-settings:normal;text-align:center" x="30.3" y="-5.3" font-weight="400" font-size="14" font-family="Adobe Garamond Pro" letter-spacing="0" word-spacing="0" text-anchor="middle" fill="#000" stroke-width=".8" transform="translate(9 467.5)"><tspan x="30.3" y="-5.3" style="-inkscape-font-specification:'Adobe Garamond Pro, Normal';font-variant-ligatures:normal;font-variant-caps:normal;font-variant-numeric:normal;font-feature-settings:normal;text-align:center">Subject</tspan><tspan x="30.3" y="12.2" style="-inkscape-font-specification:'Adobe Garamond Pro, Normal';font-variant-ligatures:normal;font-variant-caps:normal;font-variant-numeric:normal;font-feature-settings:normal;text-align:center">Level</tspan></text><use height="100%" width="100%" y="208.3" x="244.6" xlink:href="#H" transform="translate(-27.2 142.4)"/><g transform="translate(-179.4 -23.8)"><use height="100%" width="100%" y="173" x="400.3" xlink:href="#n"/><use height="100%" width="100%" y="173" x="409" xlink:href="#e"/><use height="100%" width="100%" y="173" x="414.9" xlink:href="#o"/><use height="100%" width="100%" y="173" x="418.1" xlink:href="#p"/><use height="100%" width="100%" y="173" x="421.7" xlink:href="#q"/><use height="100%" width="100%" y="173" x="430.5" xlink:href="#r"/><use height="100%" width="100%" y="173" x="436.3" xlink:href="#s"/><use height="100%" width="100%" y="173" x="440.9" xlink:href="#f"/><use height="100%" width="100%" y="173" x="450.6" xlink:href="#e"/><use height="100%" width="100%" y="173" x="456.5" xlink:href="#o"/></g><use height="100%" width="100%" y="173" x="461.7" xlink:href="#g" transform="translate(-179.4 -23.8)"/><use height="100%" width="100%" y="173" x="466.3" xlink:href="#j" transform="translate(-179.4 -23.8)"/><use height="100%" width="100%" y="173" x="472.1" xlink:href="#i" transform="translate(-179.4 -23.8)"/><use height="100%" width="100%" y="173" x="477.4" xlink:href="#j" transform="translate(-179.4 -23.8)"/><use height="100%" width="100%" y="173" x="483.2" xlink:href="#k" transform="translate(-179.4 -23.8)"/><g transform="translate(-179.4 -23.8)"><use height="100%" width="100%" y="173" x="486.5" xlink:href="#l"/><use height="100%" width="100%" y="173" x="492.4" xlink:href="#m"/></g><g><g transform="translate(51.6 -23.8)"><use height="100%" width="100%" y="173" x="400.3" xlink:href="#n"/><use height="100%" width="100%" y="173" x="409" xlink:href="#e"/><use height="100%" width="100%" y="173" x="414.9" xlink:href="#o"/><use height="100%" width="100%" y="173" x="418.1" xlink:href="#p"/><use height="100%" width="100%" y="173" x="421.7" xlink:href="#q"/><use height="100%" width="100%" y="173" x="430.5" xlink:href="#r"/><use height="100%" width="100%" y="173" x="436.3" xlink:href="#s"/><use height="100%" width="100%" y="173" x="440.9" xlink:href="#f"/><use height="100%" width="100%" y="173" x="450.6" xlink:href="#e"/><use height="100%" width="100%" y="173" x="456.5" xlink:href="#o"/></g><use height="100%" width="100%" y="173" x="461.7" xlink:href="#g" transform="translate(51.6 -23.8)"/><use height="100%" width="100%" y="173" x="466.3" xlink:href="#j" transform="translate(51.6 -23.8)"/><use height="100%" width="100%" y="173" x="472.1" xlink:href="#i" transform="translate(51.6 -23.8)"/><use height="100%" width="100%" y="173" x="477.4" xlink:href="#j" transform="translate(51.6 -23.8)"/><use height="100%" width="100%" y="173" x="483.2" xlink:href="#k" transform="translate(51.6 -23.8)"/><g transform="translate(51.6 -23.8)"><use height="100%" width="100%" y="173" x="486.5" xlink:href="#l"/><use height="100%" width="100%" y="173" x="492.4" xlink:href="#m"/></g></g><path d="M341.4 134.3H439M341.8 134.3V46.6M449.4 134.3h98M449.7 134.3V48" fill="none" stroke="#a6a3a6" stroke-width=".8" stroke-linejoin="round" stroke-miterlimit="10"/><path d="M449.7 62.5h1.3l.4.1.3.1h.3l.3.2h.4l.3.2.3.1.3.2.4.2.3.1.3.2.4.2.3.2.3.2.3.3.4.2.3.3.3.2.3.3.4.3.3.3.3.3.4.3.3.3.3.4.3.3.4.4.3.4.3.3.3.4.4.4.3.4.3.5.3.4.4.4.3.5.3.4.4.5.3.4.3.5.3.5.4.5.3.5.3.5.3.5.4.5.3.5.3.5.3.5.4.6.3.5.3.5.4.6.3.5.3.6.3.6.4.5.3.6.3.5.3.6.4.6.6 1.1.4.6.3.6.3.6.3.5 1 1.8.3.6.4.6.3.5.3.6.7 1.2.6 1.1.4.6.6 1.2.3.5.4.6.3.6.3.5.3.6.4.6.3.5.3.6.4.5.3.6.3.5.3.5.4.6.3.5.3.5.3.6.4.5.3.5.3.5.3.5.4.5.3.5.3.5.7 1 .3.4.3.5.4.5.3.4.3.5.3.4.4.5.3.4.3.5.7.8.3.4.3.4.4.4.3.4.6.8.4.4.3.4.3.4.3.3.4.4.3.3.3.4.7.7.3.3.3.3.4.3.3.4.3.3.3.3.4.3.3.3.3.2.4.3.3.3.3.3.3.2.4.3.3.3.6.4.4.3.3.2.6.5.4.2.3.2.3.2.4.2.3.2.6.4.4.2.3.2.6.3.4.2.3.2.3.1.3.2.7.3.3.1.4.2.3.1.3.2.3.1.4.1.3.2.6.2.4.1.6.2.4.1.6.2.3.1.4.1.6.2.3.1.7.2h.3l.3.1.4.1h.3l.3.1.4.1h.3l.3.1.7.2h.6l.3.1.4.1h.6l.4.1h.3l.3.1h.3l.4.1h.3l.3.1h.7l.3.1h.6l.4.1h.6l.4.1H525.2l.7.1h.6l.7.1h1.3l.7.1H530.8l.3.1H533.7l.4.1H539l1 .1h7.5M341.7 62.5h1.3l.4.1.3.1h.3l.3.2h.4l.3.2.3.1.3.2.4.2.3.1.3.2.4.2.3.2.3.2.3.3.4.2.3.3.3.2.3.3.4.3.3.3.3.3.4.3.3.3.3.4.3.3.4.4.3.4.3.3.3.4.4.4.3.4.3.5.3.4.4.4.3.5.3.4.4.5.3.4.3.5.3.5.4.5.3.5.3.5.3.5.4.5.3.5.3.5.3.5.4.6.3.5.3.5.4.6.3.5.3.6.3.6.4.5.3.6.3.5.3.6.4.6.6 1.1.4.6.3.6.3.6.3.5 1 1.8.3.6.4.6.3.5.3.6.7 1.2.6 1.1.4.6.6 1.2.3.5.4.6.3.6.3.5.3.6.4.6.3.5.3.6.4.5.3.6.3.5.3.5.4.6.3.5.3.5.3.6.4.5.3.5.3.5.3.5.4.5.3.5.3.5.7 1 .3.4.3.5.4.5.3.4.3.5.3.4.4.5.3.4.3.5.7.8.3.4.3.4.4.4.3.4.6.8.4.4.3.4.3.4.3.3.4.4.3.3.3.4.7.7.3.3.3.3.4.3.3.4.3.3.3.3.4.3.3.3.3.2.4.3.3.3.3.3.3.2.4.3.3.3.6.4.4.3.3.2.6.5.4.2.3.2.3.2.4.2.3.2.6.4.4.2.3.2.6.3.4.2.3.2.3.1.3.2.7.3.3.1.4.2.3.1.3.2.3.1.4.1.3.2.6.2.4.1.6.2.4.1.6.2.3.1.4.1.6.2.3.1.7.2h.3l.3.1.4.1h.3l.3.1.4.1h.3l.3.1.7.2h.6l.3.1.4.1h.6l.4.1h.3l.3.1h.3l.4.1h.3l.3.1h.7l.3.1h.6l.4.1h.6l.4.1H417.2l.7.1h.6l.7.1h1.3l.7.1H422.8l.3.1H425.7l.4.1H431l1 .1h7.5" fill="none" stroke="#a3ccee" stroke-width="3" stroke-linejoin="round" stroke-miterlimit="10"/><path d="M569.4 134.3H667M569.8 134.3V46.6M677.4 134.3h98M677.7 134.3V48" fill="none" stroke="#a6a3a6" stroke-width=".8" stroke-linejoin="round" stroke-miterlimit="10"/><path d="M677.7 62.5h1.3l.4.1.3.1h.3l.3.2h.4l.3.2.3.1.3.2.4.2.3.1.3.2.4.2.3.2.3.2.3.3.4.2.3.3.3.2.3.3.4.3.3.3.3.3.4.3.3.3.3.4.3.3.4.4.3.4.3.3.3.4.4.4.3.4.3.5.3.4.4.4.3.5.3.4.4.5.3.4.3.5.3.5.4.5.3.5.3.5.3.5.4.5.3.5.3.5.3.5.4.6.3.5.3.5.4.6.3.5.3.6.3.6.4.5.3.6.3.5.3.6.4.6.6 1.1.4.6.3.6.3.6.3.5 1 1.8.3.6.4.6.3.5.3.6.7 1.2.6 1.1.4.6.6 1.2.3.5.4.6.3.6.3.5.3.6.4.6.3.5.3.6.4.5.3.6.3.5.3.5.4.6.3.5.3.5.3.6.4.5.3.5.3.5.3.5.4.5.3.5.3.5.7 1 .3.4.3.5.4.5.3.4.3.5.3.4.4.5.3.4.3.5.7.8.3.4.3.4.4.4.3.4.6.8.4.4.3.4.3.4.3.3.4.4.3.3.3.4.7.7.3.3.3.3.4.3.3.4.3.3.3.3.4.3.3.3.3.2.4.3.3.3.3.3.3.2.4.3.3.3.6.4.4.3.3.2.6.5.4.2.3.2.3.2.4.2.3.2.6.4.4.2.3.2.6.3.4.2.3.2.3.1.3.2.7.3.3.1.4.2.3.1.3.2.3.1.4.1.3.2.6.2.4.1.6.2.4.1.6.2.3.1.4.1.6.2.3.1.7.2h.3l.3.1.4.1h.3l.3.1.4.1h.3l.3.1.7.2h.6l.3.1.4.1h.6l.4.1h.3l.3.1h.3l.4.1h.3l.3.1h.7l.3.1h.6l.4.1h.6l.4.1H753.2l.7.1h.6l.7.1h1.3l.7.1H758.8l.3.1H761.7l.4.1H767l1 .1h7.5M569.7 62.5h1.3l.4.1.3.1h.3l.3.2h.4l.3.2.3.1.3.2.4.2.3.1.3.2.4.2.3.2.3.2.3.3.4.2.3.3.3.2.3.3.4.3.3.3.3.3.4.3.3.3.3.4.3.3.4.4.3.4.3.3.3.4.4.4.3.4.3.5.3.4.4.4.3.5.3.4.4.5.3.4.3.5.3.5.4.5.3.5.3.5.3.5.4.5.3.5.3.5.3.5.4.6.3.5.3.5.4.6.3.5.3.6.3.6.4.5.3.6.3.5.3.6.4.6.6 1.1.4.6.3.6.3.6.3.5 1 1.8.3.6.4.6.3.5.3.6.7 1.2.6 1.1.4.6.6 1.2.3.5.4.6.3.6.3.5.3.6.4.6.3.5.3.6.4.5.3.6.3.5.3.5.4.6.3.5.3.5.3.6.4.5.3.5.3.5.3.5.4.5.3.5.3.5.7 1 .3.4.3.5.4.5.3.4.3.5.3.4.4.5.3.4.3.5.7.8.3.4.3.4.4.4.3.4.6.8.4.4.3.4.3.4.3.3.4.4.3.3.3.4.7.7.3.3.3.3.4.3.3.4.3.3.3.3.4.3.3.3.3.2.4.3.3.3.3.3.3.2.4.3.3.3.6.4.4.3.3.2.6.5.4.2.3.2.3.2.4.2.3.2.6.4.4.2.3.2.6.3.4.2.3.2.3.1.3.2.7.3.3.1.4.2.3.1.3.2.3.1.4.1.3.2.6.2.4.1.6.2.4.1.6.2.3.1.4.1.6.2.3.1.7.2h.3l.3.1.4.1h.3l.3.1.4.1h.3l.3.1.7.2h.6l.3.1.4.1h.6l.4.1h.3l.3.1h.3l.4.1h.3l.3.1h.7l.3.1h.6l.4.1h.6l.4.1H645.2l.7.1h.6l.7.1h1.3l.7.1H650.8l.3.1H653.7l.4.1H659l1 .1h7.5" fill="none" stroke="#a3ccee" stroke-width="3" stroke-linejoin="round" stroke-miterlimit="10"/><g><g transform="translate(-90.2 -235.2)"><use xlink:href="#q" x="269.1" y="551.4" width="100%" height="100%"/><use xlink:href="#r" x="277.9" y="551.4" width="100%" height="100%"/><use xlink:href="#s" x="283.8" y="551.4" width="100%" height="100%"/><use xlink:href="#f" x="288.3" y="551.4" width="100%" height="100%"/><use xlink:href="#e" x="298.1" y="551.4" width="100%" height="100%"/><use xlink:href="#o" x="303.9" y="551.4" width="100%" height="100%"/></g><g transform="translate(-90.2 -235.2)"><use xlink:href="#g" x="309.2" y="551.4" width="100%" height="100%"/><use xlink:href="#j" x="313.7" y="551.4" width="100%" height="100%"/></g><use xlink:href="#i" x="319.6" y="551.4" width="100%" height="100%" transform="translate(-90.2 -235.2)"/><g transform="translate(-90.2 -235.2)"><use xlink:href="#t" x="324.8" y="551.4" width="100%" height="100%"/><use xlink:href="#m" x="330.7" y="551.4" width="100%" height="100%"/></g></g><path d="M156 299.7h3.7l.8-.1H163l.4-.1h1.5l.7-.1h.4l.4-.1h.7l.4-.1h.4l.4-.1h.3l.4-.1h.4l.4-.2h.3l.8-.2h.4l.3-.1.4-.1.4-.2h.4l.3-.2.4-.1.4-.1.4-.2.4-.1.3-.2.4-.2.4-.2.4-.2.3-.2.4-.2.4-.2.4-.3.3-.2.4-.3.4-.3.4-.3.3-.3.4-.3.4-.4.4-.4.3-.4.4-.4.4-.4.4-.4.3-.5.4-.5.4-.5.4-.5.3-.6.4-.6.4-.5.4-.7.4-.6.3-.7.4-.7.4-.7.4-.7.3-.8.4-.8.4-.8.4-.8.3-.9.4-.9.4-.9.4-1 .3-.9.4-1 .4-1 .4-1 .3-1 .4-1.1.4-1.1.4-1.1.3-1.1.4-1.2.4-1.2.4-1.1.3-1.2.4-1.2.4-1.2.4-1.3.4-1.2.3-1.2.4-1.3.4-1.2.7-2.5.4-1.3.4-1.2.4-1.2.3-1.3.4-1.2.4-1.2.4-1.2.3-1.2.4-1.2.4-1.1.4-1.1.3-1.1.4-1.1.4-1 .4-1 .3-1 .4-1 .4-1 .4-.8.3-.9.4-.8.4-.7.4-.7.4-.7.3-.6.4-.6.4-.6.4-.4.3-.5.4-.4.4-.3.4-.3.3-.2.4-.1.4-.1.4-.1h.7l.4.2.4.1.3.2.4.3.4.3.4.4.3.5.4.4.4.6.4.6.3.6.4.7.4.7.4.7.3.8.4.9.4.9.4.9.4 1 .3 1 .4 1 .4 1 .4 1 .3 1.2.4 1.1.4 1.1.4 1.2.3 1.2.4 1.2.4 1.2.4 1.2.3 1.3.4 1.2.4 1.2.4 1.3.7 2.5.4 1.2.4 1.3.3 1.2.4 1.2.4 1.3.4 1.2.3 1.2.4 1.2.4 1.1.4 1.2.4 1.2.3 1 .4 1.2.4 1 .4 1.1.3 1 .4 1.1.4 1 .4 1 .3 1 .4.9.4 1 .4.8.3.9.4.8.4.8.4.8.3.8.4.7.4.7.4.7.3.7.4.6.4.7.4.5.3.6.4.6.4.5.4.5.4.5.3.5.4.4.4.4.4.4.3.4.4.4.4.4.4.3.3.3.4.3.4.3.4.3.3.2.4.3.4.2.4.2.3.2.4.2.4.2.4.2.3.2.4.1.4.2h.4l.3.2.4.1.4.1.4.2h.3l.4.1.4.1.8.2h.3l.4.1h.4l.4.1h.3l.4.1h.4l.4.1h.7l.4.1h.4l.7.1h1.5l.4.1h2.6l.8.1H268.3" fill="none" stroke="#9ec7eb" stroke-width="3" stroke-linejoin="round" stroke-miterlimit="10"/><path d="M383.9 301h112.6" fill="none" stroke="#a6a3a6" stroke-width=".8" stroke-linejoin="round" stroke-miterlimit="10"/><path d="M384 299.7h3.7l.8-.1H391l.4-.1h1.5l.7-.1h.4l.4-.1h.7l.4-.1h.4l.4-.1h.3l.4-.1h.4l.4-.2h.3l.8-.2h.4l.3-.1.4-.1.4-.2h.4l.3-.2.4-.1.4-.1.4-.2.4-.1.3-.2.4-.2.4-.2.4-.2.3-.2.4-.2.4-.2.4-.3.3-.2.4-.3.4-.3.4-.3.3-.3.4-.3.4-.4.4-.4.3-.4.4-.4.4-.4.4-.4.3-.5.4-.5.4-.5.4-.5.3-.6.4-.6.4-.5.4-.7.4-.6.3-.7.4-.7.4-.7.4-.7.3-.8.4-.8.4-.8.4-.8.3-.9.4-.9.4-.9.4-1 .3-.9.4-1 .4-1 .4-1 .3-1 .4-1.1.4-1.1.4-1.1.3-1.1.4-1.2.4-1.2.4-1.1.3-1.2.4-1.2.4-1.2.4-1.3.4-1.2.3-1.2.4-1.3.4-1.2.7-2.5.4-1.3.4-1.2.4-1.2.3-1.3.4-1.2.4-1.2.4-1.2.3-1.2.4-1.2.4-1.1.4-1.1.3-1.1.4-1.1.4-1 .4-1 .3-1 .4-1 .4-1 .4-.8.3-.9.4-.8.4-.7.4-.7.4-.7.3-.6.4-.6.4-.6.4-.4.3-.5.4-.4.4-.3.4-.3.3-.2.4-.1.4-.1.4-.1h.7l.4.2.4.1.3.2.4.3.4.3.4.4.3.5.4.4.4.6.4.6.3.6.4.7.4.7.4.7.3.8.4.9.4.9.4.9.4 1 .3 1 .4 1 .4 1 .4 1 .3 1.2.4 1.1.4 1.1.4 1.2.3 1.2.4 1.2.4 1.2.4 1.2.3 1.3.4 1.2.4 1.2.4 1.3.7 2.5.4 1.2.4 1.3.3 1.2.4 1.2.4 1.3.4 1.2.3 1.2.4 1.2.4 1.1.4 1.2.4 1.2.3 1 .4 1.2.4 1 .4 1.1.3 1 .4 1.1.4 1 .4 1 .3 1 .4.9.4 1 .4.8.3.9.4.8.4.8.4.8.3.8.4.7.4.7.4.7.3.7.4.6.4.7.4.5.3.6.4.6.4.5.4.5.4.5.3.5.4.4.4.4.4.4.3.4.4.4.4.4.4.3.3.3.4.3.4.3.4.3.3.2.4.3.4.2.4.2.3.2.4.2.4.2.4.2.3.2.4.1.4.2h.4l.3.2.4.1.4.1.4.2h.3l.4.1.4.1.8.2h.3l.4.1h.4l.4.1h.3l.4.1h.4l.4.1h.7l.4.1h.4l.7.1h1.5l.4.1h2.6l.8.1H496.3" fill="none" stroke="#9ec7eb" stroke-width="3" stroke-linejoin="round" stroke-miterlimit="10"/><g><g transform="translate(136.3 -235.2)"><use height="100%" width="100%" y="551.4" x="269.1" xlink:href="#q"/><use height="100%" width="100%" y="551.4" x="277.9" xlink:href="#r"/><use height="100%" width="100%" y="551.4" x="283.8" xlink:href="#s"/><use height="100%" width="100%" y="551.4" x="288.3" xlink:href="#f"/><use height="100%" width="100%" y="551.4" x="298.1" xlink:href="#e"/><use height="100%" width="100%" y="551.4" x="303.9" xlink:href="#o"/></g><g transform="translate(136.3 -235.2)"><use height="100%" width="100%" y="551.4" x="309.2" xlink:href="#g"/><use height="100%" width="100%" y="551.4" x="313.7" xlink:href="#j"/></g><use height="100%" width="100%" y="551.4" x="319.6" xlink:href="#i" transform="translate(136.3 -235.2)"/><g transform="translate(136.3 -235.2)"><use height="100%" width="100%" y="551.4" x="324.8" xlink:href="#t"/><use height="100%" width="100%" y="551.4" x="330.7" xlink:href="#m"/></g></g><path d="M608.9 301h112.6" fill="none" stroke="#a6a3a6" stroke-width=".8" stroke-linejoin="round" stroke-miterlimit="10"/><path d="M609 299.7h3.7l.8-.1H616l.4-.1h1.5l.7-.1h.4l.4-.1h.7l.4-.1h.4l.4-.1h.3l.4-.1h.4l.4-.2h.3l.8-.2h.4l.3-.1.4-.1.4-.2h.4l.3-.2.4-.1.4-.1.4-.2.4-.1.3-.2.4-.2.4-.2.4-.2.3-.2.4-.2.4-.2.4-.3.3-.2.4-.3.4-.3.4-.3.3-.3.4-.3.4-.4.4-.4.3-.4.4-.4.4-.4.4-.4.3-.5.4-.5.4-.5.4-.5.3-.6.4-.6.4-.5.4-.7.4-.6.3-.7.4-.7.4-.7.4-.7.3-.8.4-.8.4-.8.4-.8.3-.9.4-.9.4-.9.4-1 .3-.9.4-1 .4-1 .4-1 .3-1 .4-1.1.4-1.1.4-1.1.3-1.1.4-1.2.4-1.2.4-1.1.3-1.2.4-1.2.4-1.2.4-1.3.4-1.2.3-1.2.4-1.3.4-1.2.7-2.5.4-1.3.4-1.2.4-1.2.3-1.3.4-1.2.4-1.2.4-1.2.3-1.2.4-1.2.4-1.1.4-1.1.3-1.1.4-1.1.4-1 .4-1 .3-1 .4-1 .4-1 .4-.8.3-.9.4-.8.4-.7.4-.7.4-.7.3-.6.4-.6.4-.6.4-.4.3-.5.4-.4.4-.3.4-.3.3-.2.4-.1.4-.1.4-.1h.7l.4.2.4.1.3.2.4.3.4.3.4.4.3.5.4.4.4.6.4.6.3.6.4.7.4.7.4.7.3.8.4.9.4.9.4.9.4 1 .3 1 .4 1 .4 1 .4 1 .3 1.2.4 1.1.4 1.1.4 1.2.3 1.2.4 1.2.4 1.2.4 1.2.3 1.3.4 1.2.4 1.2.4 1.3.7 2.5.4 1.2.4 1.3.3 1.2.4 1.2.4 1.3.4 1.2.3 1.2.4 1.2.4 1.1.4 1.2.4 1.2.3 1 .4 1.2.4 1 .4 1.1.3 1 .4 1.1.4 1 .4 1 .3 1 .4.9.4 1 .4.8.3.9.4.8.4.8.4.8.3.8.4.7.4.7.4.7.3.7.4.6.4.7.4.5.3.6.4.6.4.5.4.5.4.5.3.5.4.4.4.4.4.4.3.4.4.4.4.4.4.3.3.3.4.3.4.3.4.3.3.2.4.3.4.2.4.2.3.2.4.2.4.2.4.2.3.2.4.1.4.2h.4l.3.2.4.1.4.1.4.2h.3l.4.1.4.1.8.2h.3l.4.1h.4l.4.1h.3l.4.1h.4l.4.1h.7l.4.1h.4l.7.1h1.5l.4.1h2.6l.8.1H721.3" fill="none" stroke="#9ec7eb" stroke-width="3" stroke-linejoin="round" stroke-miterlimit="10"/><g><g transform="translate(361.3 -235.2)"><use xlink:href="#q" x="269.1" y="551.4" width="100%" height="100%"/><use xlink:href="#r" x="277.9" y="551.4" width="100%" height="100%"/><use xlink:href="#s" x="283.8" y="551.4" width="100%" height="100%"/><use xlink:href="#f" x="288.3" y="551.4" width="100%" height="100%"/><use xlink:href="#e" x="298.1" y="551.4" width="100%" height="100%"/><use xlink:href="#o" x="303.9" y="551.4" width="100%" height="100%"/></g><g transform="translate(361.3 -235.2)"><use xlink:href="#g" x="309.2" y="551.4" width="100%" height="100%"/><use xlink:href="#j" x="313.7" y="551.4" width="100%" height="100%"/></g><use xlink:href="#i" x="319.6" y="551.4" width="100%" height="100%" transform="translate(361.3 -235.2)"/><g transform="translate(361.3 -235.2)"><use xlink:href="#t" x="324.8" y="551.4" width="100%" height="100%"/><use xlink:href="#m" x="330.7" y="551.4" width="100%" height="100%"/></g></g><path d="M235.3 380.8v10l8.7-5zm0 0M171.7 387l8.6 5v-10zm0 0" fill="#a6a3a6"/><path d="M138 158.7s-1.5 107.7 5.1 148.4c5.9 36.4 34.2 79.8 34.2 79.8M287 159s3 103.5-10.7 152.6c-7.4 26.6-37.8 73.7-37.8 73.7" fill="none" stroke="#a6a3a6" stroke-width="2"/><g transform="translate(-82.7 142.4)"><use xlink:href="#H" x="244.6" y="208.3" width="100%" height="100%"/></g><g transform="translate(20.8 142.4)"><use height="100%" width="100%" y="208.3" x="244.6" xlink:href="#H"/></g><path d="M441.5 325.7v58.5" fill="none" stroke="#a6a3a6" stroke-width="2" stroke-linejoin="round"/><path d="M436.5 382.7l5 8.7 5-8.7zm0 0" fill="#a6a3a6"/><g transform="translate(200.8 142.4)"><use xlink:href="#H" x="244.6" y="208.3" width="100%" height="100%"/></g><path d="M463.3 380.8v10l8.7-5zm0 0M399.7 387l8.6 5v-10zm0 0" fill="#a6a3a6"/><path d="M366 158.7s-1.5 107.7 5.1 148.4c5.9 36.4 34.2 79.8 34.2 79.8M515 159s3 103.5-10.7 152.6c-7.4 26.6-37.8 73.7-37.8 73.7" fill="none" stroke="#a6a3a6" stroke-width="2"/><g transform="translate(145.3 142.4)"><use height="100%" width="100%" y="208.3" x="244.6" xlink:href="#H"/></g><g transform="translate(248.8 142.4)"><use xlink:href="#H" x="244.6" y="208.3" width="100%" height="100%"/></g><path d="M666.5 325.7v58.5" fill="none" stroke="#a6a3a6" stroke-width="2" stroke-linejoin="round"/><path d="M661.5 382.7l5 8.7 5-8.7zm0 0" fill="#a6a3a6"/><g transform="translate(425.8 142.4)"><use height="100%" width="100%" y="208.3" x="244.6" xlink:href="#H"/></g><path d="M688.3 380.8v10l8.7-5zm0 0M624.7 387l8.6 5v-10zm0 0" fill="#a6a3a6"/><path d="M591 158.7s-1.5 107.7 5.1 148.4c5.9 36.4 34.2 79.8 34.2 79.8M740 159s3 103.5-10.7 152.6c-7.4 26.6-37.8 73.7-37.8 73.7" fill="none" stroke="#a6a3a6" stroke-width="2"/><g transform="translate(370.3 142.4)"><use xlink:href="#H" x="244.6" y="208.3" width="100%" height="100%"/></g><g transform="translate(473.8 142.4)"><use height="100%" width="100%" y="208.3" x="244.6" xlink:href="#H"/></g><text y="24.3" x="392.8" style="line-height:1.25;-inkscape-font-specification:'Adobe Garamond Pro, Normal';font-variant-ligatures:normal;font-variant-caps:normal;font-variant-numeric:normal;font-feature-settings:normal;text-align:center" font-weight="400" font-size="14" font-family="Adobe Garamond Pro" letter-spacing="0" word-spacing="0" text-anchor="middle" stroke-width=".7"><tspan style="-inkscape-font-specification:'Adobe Garamond Pro, Normal';font-variant-ligatures:normal;font-variant-caps:normal;font-variant-numeric:normal;font-feature-settings:normal;text-align:center" y="24.3" x="392.8" font-size="20">Multilevel Gaussian Process (non-centered parameterization)</tspan></text></svg>