<svg xmlns="http://www.w3.org/2000/svg" xmlns:xlink="http://www.w3.org/1999/xlink" viewBox="0 0 504 360"><defs><symbol overflow="visible" id="q"><path d="M1 0v-10.3h2V0zm0 0"/></symbol><symbol overflow="visible" id="a"><path d="M.5-4.2c0-1 .1-1.9.3-2.5a3 3 0 011-1.4c.3-.4.9-.5 1.5-.5.5 0 .9 0 1.2.3.4.1.6.4.9.8l.5 1.2.2 2a8 8 0 01-.3 2.5c-.2.6-.5 1.1-1 1.4-.4.4-.9.5-1.5.5-.8 0-1.5-.2-2-.8-.5-.8-.8-2-.8-3.5zm1 0c0 1.4.2 2.3.6 2.8.3.5.7.7 1.2.7s.9-.2 1.2-.7c.3-.5.5-1.4.5-2.8s-.2-2.4-.5-2.9c-.3-.4-.7-.6-1.2-.7-.5 0-.9.3-1.2.7-.3.5-.5 1.5-.5 2.9zm0 0"/></symbol><symbol overflow="visible" id="c"><path d="M6-1v1H.4v-.7L1.3-2l1.4-1.3A12 12 0 004.5-5c.3-.4.4-.9.4-1.3s-.1-.7-.4-1c-.3-.3-.7-.4-1.2-.5-.5 0-.9.2-1.2.5-.3.3-.5.7-.5 1.3l-1-.1c0-.8.3-1.5.8-1.9.5-.4 1.1-.6 2-.6.8 0 1.4.2 2 .7.4.4.6 1 .6 1.7 0 .3 0 .6-.2 1a4 4 0 01-.7 1c-.3.4-.8.9-1.6 1.5A20.2 20.2 0 001.8-1zm0 0"/></symbol><symbol overflow="visible" id="d"><path d="M.5-2.3l1-.1c.2.6.4 1 .7 1.3.3.3.6.4 1 .4.5 0 1-.2 1.3-.5.3-.4.5-.8.5-1.3s-.2-.9-.5-1.2c-.3-.3-.7-.5-1.2-.5a3 3 0 00-.7.1l.1-.9h.2L4-5.3c.3-.3.5-.6.5-1.1 0-.4-.1-.7-.4-1-.2-.2-.6-.4-1-.4s-.7.2-1 .4a2 2 0 00-.5 1.2l-1-.2c0-.7.3-1.3.8-1.6.4-.4 1-.6 1.7-.6.5 0 .9 0 1.3.3.4.2.7.5.9.8.2.4.3.7.3 1.1 0 .4 0 .7-.3 1a2 2 0 01-.9.7c.5.2 1 .4 1.2.8.3.4.4.8.4 1.4 0 .7-.2 1.4-.8 1.9-.5.5-1.2.8-2 .8s-1.5-.3-2-.7C1-1 .7-1.5.6-2.3zm0 0"/></symbol><symbol overflow="visible" id="e"><path d="M3.9 0v-2H.2v-1L4-8.6h.8V-3h1.2v1H4.9v2zm0-3V-7L1.2-3zm0 0"/></symbol><symbol overflow="visible" id="f"><path d="M.5-2.3h1.1c0 .5.3.9.6 1.2.3.2.6.4 1 .4.6 0 1-.2 1.3-.6.4-.4.6-.9.6-1.5s-.2-1-.5-1.4c-.4-.4-.8-.6-1.4-.6l-.9.3c-.3.1-.5.3-.6.6l-1-.2.8-4.4h4.3v1H2.4l-.5 2.3c.5-.3 1-.5 1.6-.5.8 0 1.4.3 2 .8.4.5.7 1.2.7 2S6-1.5 5.5-1C5-.2 4.2.1 3.3.1c-.8 0-1.5-.2-2-.6-.5-.4-.7-1-.8-1.8zm0 0"/></symbol><symbol overflow="visible" id="m"><path d="M0 0l2.4-3.2-2.1-3h1.3l1 1.4.4.7.4-.7 1-1.4h1.3l-2.1 3L5.9 0H4.6L3.3-2 3-2.4 1.4 0zm0 0"/></symbol><symbol overflow="visible" id="g"><path d="M-4.2-.5c-1 0-1.9-.1-2.5-.3a3 3 0 01-1.4-1c-.4-.4-.5-.9-.5-1.5 0-.5 0-.9.3-1.2.1-.4.4-.6.8-.9l1.2-.5 2-.2c1 0 1.9.1 2.5.3.6.2 1.1.5 1.4 1 .4.4.5.9.5 1.5 0 .8-.2 1.5-.8 2-.8.5-2 .8-3.5.8zm0-1c1.4 0 2.3-.2 2.8-.6.5-.3.7-.7.7-1.2s-.2-.9-.7-1.2C-2-4.8-2.8-5-4.2-5s-2.4.2-2.9.5c-.4.3-.6.7-.7 1.2 0 .5.3.9.7 1.2.5.3 1.5.5 2.9.5zm0 0"/></symbol><symbol overflow="visible" id="h"><path d="M-1-6h1v5.6h-.7L-2-1.3l-1.3-1.4A12 12 0 00-5-4.5c-.4-.3-.9-.4-1.3-.4s-.7.1-1 .4c-.3.3-.4.7-.5 1.2 0 .5.2.9.5 1.2.3.3.7.5 1.3.5l-.1 1C-7-.6-7.6-.9-8-1.4c-.4-.5-.6-1.1-.6-2 0-.8.2-1.4.7-2 .4-.4 1-.6 1.7-.6.3 0 .6 0 1 .2l1 .7c.4.3.9.8 1.5 1.6A20.2 20.2 0 00-1-1.8zm0 0"/></symbol><symbol overflow="visible" id="i"><path d="M0-3.9h-2v3.7h-1L-8.6-4v-.8H-3v-1.2h1v1.2h2zm-3 0H-7L-3-1.2zm0 0"/></symbol><symbol overflow="visible" id="j"><path d="M-6.5-6v1a2 2 0 00-.8.5c-.3.3-.5.6-.5 1s.1.7.3 1l1 .7c.6.2 1.2.3 2 .3a2.5 2.5 0 01-.3-3.9c.5-.5 1.2-.7 2-.7l1.5.3A2.5 2.5 0 01.1-3.4c0 .8-.3 1.6-1 2.1-.6.6-1.6.9-3.1.8-1.7 0-2.9-.3-3.6-.9-.7-.5-1-1.2-1-2.1 0-.7.2-1.3.5-1.7.4-.4 1-.7 1.6-.8zm3.7 4.3c.4 0 .7 0 1-.2.4-.1.6-.4.8-.6a1.5 1.5 0 00-.3-2C-1.6-5-2-5-2.7-5a2 2 0 00-1.4.4c-.4.3-.5.7-.5 1.2s.1 1 .5 1.2c.3.4.8.5 1.3.5zm0 0"/></symbol><symbol overflow="visible" id="k"><path d="M-4.7-2.1a2 2 0 01-.6 1c-.3.2-.7.3-1.1.3A2 2 0 01-8-1.5c-.4-.5-.6-1-.6-1.8 0-.7.2-1.4.6-1.8.5-.5 1-.7 1.6-.7.4 0 .8.1 1 .3.4.2.6.5.7 1 .2-.6.5-1 .9-1.2.4-.3.8-.4 1.3-.4.8 0 1.4.2 1.9.7.5.6.7 1.2.7 2 0 1-.2 1.6-.7 2.1-.5.6-1.1.8-1.9.8-.5 0-1-.1-1.4-.4-.4-.3-.6-.7-.8-1.2zm-1.7.2c.4 0 .7-.1 1-.4.2-.3.3-.6.3-1s0-.8-.3-1c-.3-.3-.6-.4-1-.4s-.7.1-1 .4c-.2.3-.4.6-.4 1s.2.7.4 1c.3.3.6.4 1 .4zm4 .3c.2 0 .5 0 .8-.2.3-.1.5-.3.7-.6l.2-1c0-.4-.2-.8-.5-1.2-.3-.3-.7-.5-1.2-.5s-1 .2-1.3.5c-.3.4-.5.8-.5 1.3s.2 1 .5 1.2c.3.4.7.5 1.2.5zm0 0"/></symbol><symbol overflow="visible" id="l"><path d="M0-4.5v1h-6.7l.7 1 .6 1.2h-1l-1-1.6a4 4 0 00-1.2-.9v-.7zm0 0"/></symbol><symbol overflow="visible" id="n"><path d="M0-1h-5.4v.9h-.8v-1H-8l-.6-.6a2 2 0 01-.2-1v-1l1 .1v.6l.1.7.8.2h.6v-1.2h.8v1.2H0zm0 0"/></symbol><symbol overflow="visible" id="o"><path d="M1 0v-10.3h3.1l1.9 7 1.9-7h3V0H9v-8.1L7 0H5L3-8.1V0zm0 0"/></symbol><symbol overflow="visible" id="p"><path d="M6 0v-1.1l-1.1 1-1.4.3C3 .2 2.5 0 2-.2a2 2 0 01-.8-.9A4 4 0 011-2.7v-4.8h2V-2l.5.6.7.2 1-.3.5-.7.1-2v-3.2h2V0zm0 0"/></symbol><symbol overflow="visible" id="b"><path d="M4.5 0h-1v-6.7l-1 .7a7 7 0 01-1.2.6v-1l1.6-1a4 4 0 00.9-1.2h.7zm0 0"/></symbol><symbol overflow="visible" id="r"><path d="M4.5-7.5v1.6H3v4c0 .2.1.3.2.3l.4.1c.1 0 .4 0 .7-.2L4.6 0a4 4 0 01-1.5.3c-.4 0-.7 0-1-.2-.3-.1-.5-.3-.6-.5-.2-.2-.3-.4-.3-.7V-6h-1v-1.6h1v-1.4l2-1.2v2.6zm0 0"/></symbol><symbol overflow="visible" id="s"><path d="M1-8.5v-1.8h2v1.8zM1 0v-7.5h2V0zm0 0"/></symbol><symbol overflow="visible" id="t"><path d="M1-7.5h1.8v1.1a2.8 2.8 0 012.3-1.2c1 0 1.6.3 2.3 1 .6.7.9 1.6.9 2.8 0 1.3-.3 2.2-1 3A2.9 2.9 0 014-.2c-.3-.1-.7-.4-1-.8v3.7H1zm2 3.6C3-3 3-2.4 3.3-2c.4.4.8.6 1.2.6.5 0 .9-.2 1.2-.5.3-.4.4-1 .5-1.9 0-.7-.2-1.3-.5-1.7-.3-.4-.7-.6-1.2-.6s-.9.2-1.2.6c-.3.4-.5 1-.5 1.6zm0 0"/></symbol><symbol overflow="visible" id="u"><path d="M5.4-2.4l2 .4C7-1.3 6.6-.8 6-.4c-.5.4-1.2.6-2 .6-1.3 0-2.3-.5-2.9-1.3C.7-1.8.5-2.6.5-3.7c0-1.2.3-2.2 1-2.9.6-.7 1.4-1 2.4-1s2 .3 2.6 1c.6.8 1 2 1 3.4h-5c0 .6.2 1 .5 1.4.3.3.6.5 1.1.5.3 0 .6 0 .8-.3.2-.1.3-.4.5-.8zm0-2c0-.5 0-1-.4-1.3C4.7-6 4.4-6 4-6s-.8.1-1 .4c-.4.4-.5.8-.5 1.3zm0 0"/></symbol><symbol overflow="visible" id="w"><path d="M7.9 0H6v-1.1A3 3 0 013.7.2c-.8 0-1.6-.4-2.2-1-.6-.8-1-1.7-1-3C.6-5 1-6 1.6-6.6a3 3 0 014.4 0v-3.7h2zM2.6-3.9c0 .8.1 1.4.3 1.7.4.6.8.8 1.4.8.4 0 .8-.2 1.1-.6.3-.4.5-1 .5-1.7 0-.9-.1-1.5-.5-1.9-.3-.3-.7-.5-1.1-.5-.5 0-.9.2-1.2.5-.3.4-.5 1-.5 1.7zm0 0"/></symbol><symbol overflow="visible" id="x"><path d="M3 0H1v-7.5h1.8v1l.8-.9c.3-.2.6-.2.9-.2.4 0 .9 0 1.3.3l-.6 1.8c-.4-.3-.7-.4-1-.4-.2 0-.5.1-.7.3-.2.1-.3.4-.4.8-.1.4-.2 1.2-.2 2.5zm0 0"/></symbol><symbol overflow="visible" id="y"><path d="M2.5-5.2L.7-5.5c.2-.7.6-1.3 1-1.6.6-.4 1.3-.5 2.3-.5.8 0 1.5 0 2 .3l.8.8c.2.3.3.9.3 1.7V-1l.4 1h-2a5.3 5.3 0 01-.2-.8l-1 .7L3 .2C2.2.2 1.6 0 1.2-.5A2 2 0 01.5-2c0-.5.1-.8.3-1.2.2-.3.5-.5.9-.7.3-.2.8-.4 1.5-.5l2-.5V-5c0-.3-.1-.6-.3-.8l-1-.2c-.4 0-.7 0-1 .2l-.4.7zm2.7 1.6l-1.3.3-1 .4c-.3.1-.4.4-.4.7 0 .2 0 .5.3.7.2.2.5.3.8.3.3 0 .7-.1 1-.4l.5-.6v-1zm0 0"/></symbol><symbol overflow="visible" id="z"><path d="M2.4 0L.1-7.5H2l1.4 5 1.3-5h1.9l1.2 5 1.4-5h2L8.8 0H6.9L5.6-4.8 4.3 0zm0 0"/></symbol><symbol overflow="visible" id="A"><path d="M.3-2.1l2-.3c.1.4.3.6.5.8.3.2.6.3 1.1.3.5 0 1 0 1.2-.2l.2-.6-.1-.3-.7-.3C3-3 2-3.4 1.5-3.7.9-4 .6-4.7.6-5.3c0-.7.3-1.2.8-1.7.5-.4 1.3-.6 2.4-.6 1 0 1.7.1 2.2.5.5.3.9.8 1 1.4l-1.8.4c0-.3-.2-.5-.5-.7l-1-.2c-.4 0-.8 0-1 .2-.2.1-.3.2-.3.4l.2.4 1.9.5c1 .3 1.8.6 2.2.9.4.4.6.8.6 1.5S7-1.1 6.5-.6C5.9 0 5 .2 3.9.2 3 .2 2.1 0 1.5-.4.9-1 .5-1.4.3-2.1zm0 0"/></symbol><symbol overflow="visible" id="B"><path d="M.2-7.5h1V-8c0-.7.1-1.1.3-1.4.1-.3.3-.6.7-.8a3 3 0 011.4-.3l1.6.3L5-9a4 4 0 00-.9 0l-.6.1-.2.8v.5h1.5v1.6H3.2V0h-2v-6h-1zm0 0"/></symbol><symbol overflow="visible" id="C"><path d="M.6-3.8c0-.7.1-1.3.5-2 .3-.6.7-1 1.3-1.3.6-.4 1.3-.5 2-.5 1.2 0 2 .3 2.8 1 .7.8 1 1.7 1 2.8 0 1.2-.3 2.1-1 2.9-.7.7-1.7 1-2.8 1-.7 0-1.3 0-2-.4-.5-.3-1-.8-1.3-1.4C.7-2.3.6-3 .6-3.8zm2 0c0 .8.2 1.4.5 1.8.4.4.8.6 1.3.6s1-.2 1.3-.6c.4-.4.5-1 .5-1.7 0-.8-.1-1.3-.5-1.7C5.4-5.8 5-6 4.4-6s-1 .2-1.3.6c-.3.4-.5 1-.5 1.7zm0 0"/></symbol><symbol overflow="visible" id="D"><path d="M.9-7.5h1.8v1A3 3 0 015-7.5c.5 0 1 0 1.3.3.3.2.6.5.8.9l1.1-1 1.2-.2c.6 0 1 0 1.4.3.4.2.7.5.9 1l.2 1.5V0h-2v-4.3c0-.7 0-1.2-.2-1.4a1 1 0 00-.9-.4 1.4 1.4 0 00-1.3 1l-.1 1.5V0h-2v-4l-.1-1.5A1 1 0 005-6a1 1 0 00-.6-.1c-.3 0-.6 0-.9.2l-.5.7A5 5 0 003-3.6V0h-2zm0 0"/></symbol><symbol overflow="visible" id="E"><path d="M3-10.3v3.8a3 3 0 013.5-.9c.4.2.7.4.8.7.2.2.4.5.4.8l.1 1.5V0h-2v-4-1.4a1 1 0 00-.5-.5c-.2-.2-.4-.2-.7-.2-.3 0-.6 0-.9.2l-.5.7L3-3.7V0H1v-10.3zm0 0"/></symbol><symbol overflow="visible" id="F"><path d="M7.8 0h-2v-3.8-1.6l-.5-.5c-.2-.2-.4-.2-.7-.2-.3 0-.6 0-.9.3-.3.1-.5.4-.6.7L3-3.4V0H1v-7.5H3v1.1a3 3 0 013.6-1l.8.6.4.8.1 1.4zm0 0"/></symbol><symbol overflow="visible" id="G"><path d="M1 0v-10.3h2v5.5l2.3-2.7h2.4L5-4.7 8 0H5.7L4-3.4l-1 1V0zm0 0"/></symbol><symbol overflow="visible" id="H"><path d="M3 0L0-7.5h2.2l1.4 3.8.4 1.3a24.2 24.2 0 00.4-1.3l1.4-3.8h2L4.8 0zm0 0"/></symbol></defs><path fill="#fff" d="M0 0h504v360H0z"/><path d="M74.4 278.1h23.3l3.9-21H117l3.8 21h23.3l3.9-21h19.4l3.9 21h27.1l3.9-21h38.8l3.9 21h19.4l3.8-21H315l3.9 21h11.6l3.9-21h3.9l3.8 21h27.2l3.9-21h31l3.9 21h50.4" fill="none" stroke-width="1.5" stroke-linecap="round" stroke-linejoin="round" stroke="#a6cee3" stroke-miterlimit="10"/><path d="M74.4 286.6h384M74.4 286.6v7.2M151.2 286.6v7.2M228 286.6v7.2M304.8 286.6v7.2M381.6 286.6v7.2M458.4 286.6v7.2" fill="none" stroke-width=".8" stroke-linecap="round" stroke-linejoin="round" stroke="#000" stroke-miterlimit="10"/><use xlink:href="#a" x="71.1" y="312.5"/><use xlink:href="#b" x="147.9" y="312.5"/><use xlink:href="#c" x="224.7" y="312.5"/><use xlink:href="#d" x="301.5" y="312.5"/><use xlink:href="#e" x="378.3" y="312.5"/><use xlink:href="#f" x="455.1" y="312.5"/><path d="M59 278.1V67.5M59 278.1h-7.2M59 236h-7.2M59 193.9h-7.2M59 151.7h-7.2M59 109.6h-7.2M59 67.5h-7.2" fill="none" stroke-width=".8" stroke-linecap="round" stroke-linejoin="round" stroke="#000" stroke-miterlimit="10"/><use xlink:href="#g" x="41.8" y="281.5"/><use xlink:href="#h" x="41.8" y="239.3"/><use xlink:href="#i" x="41.8" y="197.2"/><use xlink:href="#j" x="41.8" y="155.1"/><use xlink:href="#k" x="41.8" y="112.9"/><use xlink:href="#l" x="41.8" y="74.1"/><use xlink:href="#g" x="41.8" y="67.5"/><path d="M59 286.6h414.8V59H59v227.6" fill="none" stroke-width=".8" stroke-linecap="round" stroke-linejoin="round" stroke="#000" stroke-miterlimit="10"/><path d="M74.4 236l3.9 21h3.9l3.8-21h38.8l3.9 21h27.2l3.8-21h7.8l3.9 21h93l4-21h34.9l3.8 21h11.7l3.8-21H342l4 21 3.8-21h3.9l3.9 21 3.8-21h62l4 21 3.9-21h27.1" fill="none" stroke-width="1.5" stroke-linecap="round" stroke-linejoin="round" stroke="#1f78b4" stroke-miterlimit="10"/><path d="M74.4 236h7.8l3.8-21h11.7l3.9 21h62l3.9-21h19.4l3.9 21h11.6l3.9-21h124.1l3.9 21h11.6l3.9-21h3.9l3.9 21h19.3l4-21h3.8l3.9 21h38.8l3.9-21h27.1" fill="none" stroke-width="1.5" stroke-linecap="round" stroke-linejoin="round" stroke="#b2df8a" stroke-miterlimit="10"/><path d="M74.4 193.9h15.5l3.9 21H179l4-21h7.7l3.8 21h38.8l4-21h3.8l3.9 21h7.7l3.9-21h58.2l3.9 21h3.8l4-21h27l4 21h23.2l3.9-21h62l4 21h7.7" fill="none" stroke-width="1.5" stroke-linecap="round" stroke-linejoin="round" stroke="#33a02c" stroke-miterlimit="10"/><path d="M74.4 172.8h3.9l3.9 21h31l3.9-21h15.5l3.9 21H214l4-21h23.2l3.9 21 3.8-21h27.2l3.9 21h3.9l3.8-21h7.8l3.9 21 3.9-21h93l4 21h3.8l3.9-21h50.4" fill="none" stroke-width="1.5" stroke-linecap="round" stroke-linejoin="round" stroke="#fb9a99" stroke-miterlimit="10"/><path d="M74.4 172.8h19.4l3.9-21h23.2l4 21h93l3.9-21h62l4 21h27l4-21h34.9l3.9 21h27.1l3.9-21h69.8" fill="none" stroke-width="1.5" stroke-linecap="round" stroke-linejoin="round" stroke="#e31a1c" stroke-miterlimit="10"/><path d="M74.4 130.7h42.7l3.8 21h143.6l3.8-21h19.4l4 21h96.9l3.9-21h54.3l3.8 21h7.8" fill="none" stroke-width="1.5" stroke-linecap="round" stroke-linejoin="round" stroke="#a6cee3" stroke-miterlimit="10"/><path d="M74.4 130.7h42.7l3.8-21.1h15.6l3.8 21H214l4-21h3.8l3.9 21h190l4-21h38.7" fill="none" stroke-width="1.5" stroke-linecap="round" stroke-linejoin="round" stroke="#1f78b4" stroke-miterlimit="10"/><path d="M74.4 109.6h15.5l3.9-21h27.1l4 21h42.6l3.9-21h38.8l3.8 21h85.4l3.9-21h19.3l4 21H373l3.8-21h15.6l3.8 21h23.3l3.9-21 3.9 21h31" fill="none" stroke-width="1.5" stroke-linecap="round" stroke-linejoin="round" stroke="#b2df8a" stroke-miterlimit="10"/><path d="M74.4 67.5l3.9 21h34.9l3.9-21 3.8 21h46.6l3.9-21h54.3l3.9 21h65.9l3.9-21h15.5l3.9 21h42.6l4-21h31l3.8 21h19.4l3.9-21h34.9" fill="none" stroke-width="1.5" stroke-linecap="round" stroke-linejoin="round" stroke="#33a02c" stroke-miterlimit="10"/><path d="M76.2 277.2c0 2.4-3.6 2.4-3.6 0s3.6-2.4 3.6 0M80 274.4c0 2.4-3.5 2.4-3.5 0s3.6-2.4 3.6 0M84 278c0 2.5-3.6 2.5-3.6 0 0-2.3 3.6-2.3 3.6 0M87.8 277c0 2.4-3.6 2.4-3.6 0s3.6-2.4 3.6 0M91.7 275.4c0 2.4-3.6 2.4-3.6 0s3.6-2.4 3.6 0M95.6 272.7c0 2.4-3.6 2.4-3.6 0s3.6-2.4 3.6 0M99.5 270c0 2.5-3.6 2.5-3.6 0 0-2.3 3.6-2.3 3.6 0M103.4 259.5c0 2.4-3.7 2.4-3.7 0s3.7-2.4 3.7 0M107.2 260.9c0 2.4-3.6 2.4-3.6 0s3.6-2.4 3.6 0M111.1 257.2c0 2.4-3.6 2.4-3.6 0s3.6-2.4 3.6 0M115 258.1c0 2.4-3.6 2.4-3.6 0s3.6-2.4 3.6 0M118.9 260.2c0 2.4-3.6 2.4-3.6 0s3.6-2.4 3.6 0M122.7 277c0 2.4-3.6 2.4-3.6 0s3.6-2.4 3.6 0M126.6 277.9c0 2.4-3.6 2.4-3.6 0s3.6-2.4 3.6 0M130.5 274.2c0 2.4-3.6 2.4-3.6 0s3.6-2.4 3.6 0M134.4 275c0 2.3-3.6 2.3-3.6 0 0-2.5 3.6-2.5 3.6 0M138.3 271.6c0 2.4-3.6 2.4-3.6 0s3.6-2.4 3.6 0M142.1 278.1c0 2.4-3.6 2.4-3.6 0s3.6-2.4 3.6 0M146 274.7c0 2.4-3.6 2.4-3.6 0s3.6-2.4 3.6 0M149.9 258.7c0 2.4-3.6 2.4-3.6 0s3.6-2.4 3.6 0M153.8 258.5c0 2.4-3.6 2.4-3.6 0s3.6-2.4 3.6 0M157.7 257.4c0 2.4-3.6 2.4-3.6 0s3.6-2.4 3.6 0M161.5 257.5c0 2.4-3.6 2.4-3.6 0s3.6-2.4 3.6 0M165.4 257.8c0 2.4-3.6 2.4-3.6 0s3.6-2.4 3.6 0M169.3 261c0 2.5-3.6 2.5-3.6 0 0-2.3 3.6-2.3 3.6 0M173.2 277c0 2.4-3.6 2.4-3.6 0s3.6-2.4 3.6 0M177 277.4c0 2.4-3.6 2.4-3.6 0s3.6-2.4 3.6 0M181 277.6c0 2.4-3.7 2.4-3.7 0s3.6-2.4 3.6 0M184.8 268.3c0 2.4-3.6 2.4-3.6 0s3.6-2.4 3.6 0M188.7 276.8c0 2.4-3.6 2.4-3.6 0s3.6-2.4 3.6 0M192.6 275c0 2.4-3.6 2.4-3.6 0s3.6-2.4 3.6 0M196.4 275.5c0 2.4-3.6 2.4-3.6 0s3.6-2.4 3.6 0M200.3 278c0 2.3-3.6 2.3-3.6 0 0-2.5 3.6-2.5 3.6 0M204.2 257.5c0 2.4-3.6 2.4-3.6 0s3.6-2.4 3.6 0M208 262c0 2.4-3.5 2.4-3.5 0s3.6-2.4 3.6 0M212 257.3c0 2.4-3.6 2.4-3.6 0s3.6-2.4 3.6 0M215.8 258.3c0 2.3-3.6 2.3-3.6 0 0-2.4 3.6-2.4 3.6 0M219.7 257.6c0 2.4-3.6 2.4-3.6 0s3.6-2.4 3.6 0M223.6 263.2c0 2.4-3.6 2.4-3.6 0s3.6-2.4 3.6 0M227.5 266.7c0 2.4-3.6 2.4-3.6 0s3.6-2.4 3.6 0M231.4 257.4c0 2.4-3.7 2.4-3.7 0s3.7-2.4 3.7 0M235.2 267.4c0 2.4-3.6 2.4-3.6 0s3.6-2.4 3.6 0M239.1 257.4c0 2.4-3.6 2.4-3.6 0s3.6-2.4 3.6 0M243 262.2c0 2.4-3.6 2.4-3.6 0s3.6-2.4 3.6 0M246.9 277c0 2.3-3.6 2.3-3.6 0 0-2.5 3.6-2.5 3.6 0M250.7 276c0 2.5-3.6 2.5-3.6 0 0-2.3 3.6-2.3 3.6 0M254.6 275.4c0 2.4-3.6 2.4-3.6 0s3.6-2.4 3.6 0M258.5 277.8c0 2.4-3.6 2.4-3.6 0s3.6-2.4 3.6 0M262.4 275.4c0 2.4-3.6 2.4-3.6 0s3.6-2.4 3.6 0M266.3 271.7c0 2.4-3.6 2.4-3.6 0s3.6-2.4 3.6 0M270.1 262.6c0 2.4-3.6 2.4-3.6 0s3.6-2.4 3.6 0M274 258.6c0 2.4-3.6 2.4-3.6 0s3.6-2.4 3.6 0M277.9 259.3c0 2.4-3.6 2.4-3.6 0s3.6-2.4 3.6 0M281.8 260.4c0 2.4-3.6 2.4-3.6 0s3.6-2.4 3.6 0M285.7 264.9c0 2.4-3.6 2.4-3.6 0s3.6-2.4 3.6 0M289.5 260.5c0 2.4-3.6 2.4-3.6 0s3.6-2.4 3.6 0M293.4 257.9c0 2.4-3.6 2.4-3.6 0s3.6-2.4 3.6 0M297.3 259.2c0 2.4-3.6 2.4-3.6 0s3.6-2.4 3.6 0M301.2 264.6c0 2.4-3.6 2.4-3.6 0s3.6-2.4 3.6 0M305 257.3c0 2.4-3.6 2.4-3.6 0s3.6-2.4 3.6 0M309 269.1c0 2.4-3.7 2.4-3.7 0s3.6-2.4 3.6 0M312.8 258.9c0 2.4-3.6 2.4-3.6 0s3.6-2.4 3.6 0M316.7 257.9c0 2.4-3.6 2.4-3.6 0s3.6-2.4 3.6 0M320.6 276.5c0 2.4-3.6 2.4-3.6 0s3.6-2.4 3.6 0M324.4 277c0 2.3-3.6 2.3-3.6 0 0-2.5 3.6-2.5 3.6 0M328.3 278c0 2.4-3.6 2.4-3.6 0s3.6-2.4 3.6 0M332.2 276.8c0 2.4-3.6 2.4-3.6 0s3.6-2.4 3.6 0M336 261.6c0 2.4-3.5 2.4-3.5 0s3.6-2.4 3.6 0M340 261.1c0 2.4-3.6 2.4-3.6 0s3.6-2.4 3.6 0M343.8 277.8c0 2.4-3.6 2.4-3.6 0s3.6-2.4 3.6 0M347.7 277.9c0 2.4-3.6 2.4-3.6 0s3.6-2.4 3.6 0M351.6 277.5c0 2.4-3.6 2.4-3.6 0s3.6-2.4 3.6 0M355.5 274.5c0 2.4-3.6 2.4-3.6 0s3.6-2.4 3.6 0M359.4 274c0 2.5-3.6 2.5-3.6 0 0-2.3 3.6-2.3 3.6 0M363.2 275.9c0 2.4-3.6 2.4-3.6 0s3.6-2.4 3.6 0M367.1 278c0 2.4-3.6 2.4-3.6 0s3.6-2.4 3.6 0M371 267.2c0 2.4-3.6 2.4-3.6 0s3.6-2.4 3.6 0M374.9 258c0 2.4-3.6 2.4-3.6 0s3.6-2.4 3.6 0M378.7 257.2c0 2.4-3.6 2.4-3.6 0s3.6-2.4 3.6 0M382.6 261.1c0 2.4-3.6 2.4-3.6 0s3.6-2.4 3.6 0M386.5 264.8c0 2.4-3.6 2.4-3.6 0s3.6-2.4 3.6 0M390.4 257.8c0 2.4-3.6 2.4-3.6 0s3.6-2.4 3.6 0M394.3 261.8c0 2.4-3.6 2.4-3.6 0s3.6-2.4 3.6 0M398.1 261.6c0 2.4-3.6 2.4-3.6 0s3.6-2.4 3.6 0M402 260c0 2.4-3.6 2.4-3.6 0s3.6-2.4 3.6 0M405.9 264c0 2.3-3.6 2.3-3.6 0 0-2.5 3.6-2.5 3.6 0M409.8 274.6c0 2.4-3.6 2.4-3.6 0s3.6-2.4 3.6 0M413.7 277.3c0 2.4-3.6 2.4-3.6 0s3.6-2.4 3.6 0M417.5 276.5c0 2.4-3.6 2.4-3.6 0s3.6-2.4 3.6 0M421.4 274.2c0 2.4-3.6 2.4-3.6 0s3.6-2.4 3.6 0M425.3 278.1c0 2.4-3.6 2.4-3.6 0s3.6-2.4 3.6 0M429.2 272.2c0 2.4-3.6 2.4-3.6 0s3.6-2.4 3.6 0M433 276.2c0 2.4-3.6 2.4-3.6 0s3.6-2.4 3.6 0M437 277.9c0 2.4-3.7 2.4-3.7 0s3.6-2.4 3.6 0M440.8 277.5c0 2.4-3.6 2.4-3.6 0s3.6-2.4 3.6 0M444.7 276c0 2.3-3.6 2.3-3.6 0 0-2.5 3.6-2.5 3.6 0M448.6 278.1c0 2.4-3.6 2.4-3.6 0s3.6-2.4 3.6 0M452.4 275.2c0 2.4-3.6 2.4-3.6 0s3.6-2.4 3.6 0M456.3 273.3c0 2.4-3.6 2.4-3.6 0s3.6-2.4 3.6 0M460.2 276.2c0 2.4-3.6 2.4-3.6 0s3.6-2.4 3.6 0" fill="#a6cee3" stroke-width=".8" stroke-linecap="round" stroke-linejoin="round" stroke="#a6cee3" stroke-miterlimit="10"/><path d="M74.4 286.6h384M74.4 286.6v7.2M151.2 286.6v7.2M228 286.6v7.2M304.8 286.6v7.2M381.6 286.6v7.2M458.4 286.6v7.2" fill="none" stroke-width=".8" stroke-linecap="round" stroke-linejoin="round" stroke="#000" stroke-miterlimit="10"/><use xlink:href="#a" x="71.1" y="312.5"/><use xlink:href="#b" x="147.9" y="312.5"/><use xlink:href="#c" x="224.7" y="312.5"/><use xlink:href="#d" x="301.5" y="312.5"/><use xlink:href="#e" x="378.3" y="312.5"/><use xlink:href="#f" x="455.1" y="312.5"/><path d="M59 278.1V67.5M59 278.1h-7.2M59 236h-7.2M59 193.9h-7.2M59 151.7h-7.2M59 109.6h-7.2M59 67.5h-7.2" fill="none" stroke-width=".8" stroke-linecap="round" stroke-linejoin="round" stroke="#000" stroke-miterlimit="10"/><use xlink:href="#g" x="41.8" y="281.5"/><use xlink:href="#h" x="41.8" y="239.3"/><use xlink:href="#i" x="41.8" y="197.2"/><use xlink:href="#j" x="41.8" y="155.1"/><use xlink:href="#k" x="41.8" y="112.9"/><use xlink:href="#l" x="41.8" y="74.1"/><use xlink:href="#g" x="41.8" y="67.5"/><path d="M59 286.6h414.8V59H59v227.6" fill="none" stroke-width=".8" stroke-linecap="round" stroke-linejoin="round" stroke="#000" stroke-miterlimit="10"/><use xlink:href="#m" x="263.4" y="341.3"/><use xlink:href="#n" x="13" y="174.5"/><path d="M76.2 239.9c0 2.4-3.6 2.4-3.6 0s3.6-2.4 3.6 0M80 251.6c0 2.4-3.5 2.4-3.5 0s3.6-2.4 3.6 0M84 256.5c0 2.4-3.6 2.4-3.6 0s3.6-2.4 3.6 0M87.8 243c0 2.5-3.6 2.5-3.6 0 0-2.3 3.6-2.3 3.6 0M91.7 237c0 2.5-3.6 2.5-3.6 0 0-2.3 3.6-2.3 3.6 0M95.6 243.9c0 2.4-3.6 2.4-3.6 0s3.6-2.4 3.6 0M99.5 240.1c0 2.4-3.6 2.4-3.6 0s3.6-2.4 3.6 0M103.4 239.5c0 2.4-3.7 2.4-3.7 0s3.7-2.4 3.7 0M107.2 237.7c0 2.4-3.6 2.4-3.6 0s3.6-2.4 3.6 0M111.1 237.4c0 2.5-3.6 2.5-3.6 0 0-2.3 3.6-2.3 3.6 0M115 239.6c0 2.4-3.6 2.4-3.6 0s3.6-2.4 3.6 0M118.9 236.7c0 2.4-3.6 2.4-3.6 0s3.6-2.4 3.6 0M122.7 237.8c0 2.4-3.6 2.4-3.6 0s3.6-2.4 3.6 0M126.6 245.6c0 2.4-3.6 2.4-3.6 0s3.6-2.4 3.6 0M130.5 256.3c0 2.4-3.6 2.4-3.6 0s3.6-2.4 3.6 0M134.4 255.4c0 2.4-3.6 2.4-3.6 0s3.6-2.4 3.6 0M138.3 253.8c0 2.4-3.6 2.4-3.6 0s3.6-2.4 3.6 0M142.1 256.6c0 2.4-3.6 2.4-3.6 0s3.6-2.4 3.6 0M146 256.4c0 2.4-3.6 2.4-3.6 0s3.6-2.4 3.6 0M149.9 249.6c0 2.4-3.6 2.4-3.6 0s3.6-2.4 3.6 0M153.8 256.9c0 2.4-3.6 2.4-3.6 0s3.6-2.4 3.6 0M157.7 251.5c0 2.4-3.6 2.4-3.6 0s3.6-2.4 3.6 0M161.5 236.4c0 2.4-3.6 2.4-3.6 0s3.6-2.4 3.6 0M165.4 237c0 2.4-3.6 2.4-3.6 0s3.6-2.4 3.6 0M169.3 238.3c0 2.4-3.6 2.4-3.6 0s3.6-2.4 3.6 0M173.2 252.5c0 2.4-3.6 2.4-3.6 0s3.6-2.4 3.6 0M177 255.8c0 2.4-3.6 2.4-3.6 0s3.6-2.4 3.6 0M181 254.8c0 2.4-3.7 2.4-3.7 0s3.6-2.4 3.6 0M184.8 254.6c0 2.4-3.6 2.4-3.6 0s3.6-2.4 3.6 0M188.7 256.3c0 2.4-3.6 2.4-3.6 0s3.6-2.4 3.6 0M192.6 255.5c0 2.4-3.6 2.4-3.6 0s3.6-2.4 3.6 0M196.4 255.8c0 2.4-3.6 2.4-3.6 0s3.6-2.4 3.6 0M200.3 252.8c0 2.4-3.6 2.4-3.6 0s3.6-2.4 3.6 0M204.2 249.5c0 2.4-3.6 2.4-3.6 0s3.6-2.4 3.6 0M208 249.5c0 2.4-3.5 2.4-3.5 0s3.6-2.4 3.6 0M212 252.7c0 2.4-3.6 2.4-3.6 0s3.6-2.4 3.6 0M215.8 250c0 2.3-3.6 2.3-3.6 0 0-2.5 3.6-2.5 3.6 0M219.7 256.8c0 2.4-3.6 2.4-3.6 0s3.6-2.4 3.6 0M223.6 253.8c0 2.4-3.6 2.4-3.6 0s3.6-2.4 3.6 0M227.5 254.3c0 2.4-3.6 2.4-3.6 0s3.6-2.4 3.6 0M231.4 254.7c0 2.4-3.7 2.4-3.7 0s3.7-2.4 3.7 0M235.2 249.6c0 2.4-3.6 2.4-3.6 0s3.6-2.4 3.6 0M239.1 254.7c0 2.4-3.6 2.4-3.6 0s3.6-2.4 3.6 0M243 250.8c0 2.4-3.6 2.4-3.6 0s3.6-2.4 3.6 0M246.9 249.6c0 2.4-3.6 2.4-3.6 0s3.6-2.4 3.6 0M250.7 252.8c0 2.4-3.6 2.4-3.6 0s3.6-2.4 3.6 0M254.6 253c0 2.4-3.6 2.4-3.6 0s3.6-2.4 3.6 0M258.5 256.6c0 2.4-3.6 2.4-3.6 0s3.6-2.4 3.6 0M262.4 252c0 2.5-3.6 2.5-3.6 0 0-2.3 3.6-2.3 3.6 0M266.3 255.8c0 2.4-3.6 2.4-3.6 0s3.6-2.4 3.6 0M270.1 239c0 2.5-3.6 2.5-3.6 0 0-2.3 3.6-2.3 3.6 0M274 240c0 2.4-3.6 2.4-3.6 0s3.6-2.4 3.6 0M277.9 238.8c0 2.4-3.6 2.4-3.6 0s3.6-2.4 3.6 0M281.8 236.1c0 2.4-3.6 2.4-3.6 0s3.6-2.4 3.6 0M285.7 236.5c0 2.4-3.6 2.4-3.6 0s3.6-2.4 3.6 0M289.5 237.6c0 2.4-3.6 2.4-3.6 0s3.6-2.4 3.6 0M293.4 242.4c0 2.4-3.6 2.4-3.6 0s3.6-2.4 3.6 0M297.3 238.7c0 2.4-3.6 2.4-3.6 0s3.6-2.4 3.6 0M301.2 242c0 2.3-3.6 2.3-3.6 0 0-2.5 3.6-2.5 3.6 0M305 238.6c0 2.4-3.6 2.4-3.6 0s3.6-2.4 3.6 0M309 253.3c0 2.4-3.7 2.4-3.7 0s3.6-2.4 3.6 0M312.8 253c0 2.4-3.6 2.4-3.6 0s3.6-2.4 3.6 0M316.7 253.7c0 2.4-3.6 2.4-3.6 0s3.6-2.4 3.6 0M320.6 254.4c0 2.4-3.6 2.4-3.6 0s3.6-2.4 3.6 0M324.4 244.8c0 2.4-3.6 2.4-3.6 0s3.6-2.4 3.6 0M328.3 236.2c0 2.4-3.6 2.4-3.6 0s3.6-2.4 3.6 0M332.2 246.4c0 2.4-3.6 2.4-3.6 0s3.6-2.4 3.6 0M336 237.4c0 2.4-3.5 2.4-3.5 0s3.6-2.4 3.6 0M340 241c0 2.3-3.6 2.3-3.6 0 0-2.5 3.6-2.5 3.6 0M343.8 239.9c0 2.4-3.6 2.4-3.6 0s3.6-2.4 3.6 0M347.7 256.3c0 2.4-3.6 2.4-3.6 0s3.6-2.4 3.6 0M351.6 244c0 2.4-3.6 2.4-3.6 0s3.6-2.4 3.6 0M355.5 240.9c0 2.4-3.6 2.4-3.6 0s3.6-2.4 3.6 0M359.4 253c0 2.5-3.6 2.5-3.6 0 0-2.3 3.6-2.3 3.6 0M363.2 238.6c0 2.4-3.6 2.4-3.6 0 0-2.3 3.6-2.3 3.6 0M367.1 251.2c0 2.4-3.6 2.4-3.6 0s3.6-2.4 3.6 0M371 239.8c0 2.4-3.6 2.4-3.6 0s3.6-2.4 3.6 0M374.9 238.4c0 2.4-3.6 2.4-3.6 0s3.6-2.4 3.6 0M378.7 241.7c0 2.4-3.6 2.4-3.6 0s3.6-2.4 3.6 0M382.6 237.9c0 2.4-3.6 2.4-3.6 0s3.6-2.4 3.6 0M386.5 238.1c0 2.4-3.6 2.4-3.6 0s3.6-2.4 3.6 0M390.4 245.1c0 2.4-3.6 2.4-3.6 0s3.6-2.4 3.6 0M394.3 238c0 2.3-3.6 2.3-3.6 0 0-2.5 3.6-2.5 3.6 0M398.1 239.4c0 2.4-3.6 2.4-3.6 0s3.6-2.4 3.6 0M402 237c0 2.3-3.6 2.3-3.6 0 0-2.5 3.6-2.5 3.6 0M405.9 240.2c0 2.4-3.6 2.4-3.6 0s3.6-2.4 3.6 0M409.8 238.7c0 2.4-3.6 2.4-3.6 0s3.6-2.4 3.6 0M413.7 241.8c0 2.4-3.6 2.4-3.6 0s3.6-2.4 3.6 0M417.5 236c0 2.5-3.6 2.5-3.6 0 0-2.3 3.6-2.3 3.6 0M421.4 239.3c0 2.4-3.6 2.4-3.6 0s3.6-2.4 3.6 0M425.3 243.7c0 2.4-3.6 2.4-3.6 0s3.6-2.4 3.6 0M429.2 251c0 2.5-3.6 2.5-3.6 0 0-2.3 3.6-2.3 3.6 0M433 237c0 2.4-3.6 2.4-3.6 0s3.6-2.4 3.6 0M437 237.7c0 2.4-3.7 2.4-3.7 0s3.6-2.4 3.6 0M440.8 238.6c0 2.4-3.6 2.4-3.6 0s3.6-2.4 3.6 0M444.7 236.4c0 2.5-3.6 2.5-3.6 0 0-2.3 3.6-2.3 3.6 0M448.6 240.7c0 2.4-3.6 2.4-3.6 0s3.6-2.4 3.6 0M452.4 237.9c0 2.4-3.6 2.4-3.6 0s3.6-2.4 3.6 0M456.3 239.1c0 2.5-3.6 2.5-3.6 0 0-2.3 3.6-2.3 3.6 0M460.2 240.7c0 2.4-3.6 2.4-3.6 0s3.6-2.4 3.6 0" fill="#1f78b4" stroke-width=".8" stroke-linecap="round" stroke-linejoin="round" stroke="#1f78b4" stroke-miterlimit="10"/><path d="M76.2 233c0 2.4-3.6 2.4-3.6 0s3.6-2.4 3.6 0M80 228c0 2.4-3.5 2.4-3.5 0s3.6-2.4 3.6 0M84 233.4c0 2.4-3.6 2.4-3.6 0s3.6-2.4 3.6 0M87.8 220.8c0 2.4-3.6 2.4-3.6 0s3.6-2.4 3.6 0M91.7 218.3c0 2.4-3.6 2.4-3.6 0s3.6-2.4 3.6 0M95.6 219.3c0 2.4-3.6 2.4-3.6 0s3.6-2.4 3.6 0M99.5 221.4c0 2.4-3.6 2.4-3.6 0s3.6-2.4 3.6 0M103.4 226.1c0 2.4-3.7 2.4-3.7 0s3.7-2.4 3.7 0M107.2 235.9c0 2.4-3.6 2.4-3.6 0s3.6-2.4 3.6 0M111.1 234.6c0 2.4-3.6 2.4-3.6 0s3.6-2.4 3.6 0M115 235.2c0 2.4-3.6 2.4-3.6 0s3.6-2.4 3.6 0M118.9 233c0 2.4-3.6 2.4-3.6 0s3.6-2.4 3.6 0M122.7 235.6c0 2.4-3.6 2.4-3.6 0s3.6-2.4 3.6 0M126.6 235c0 2.4-3.6 2.4-3.6 0s3.6-2.4 3.6 0M130.5 235.4c0 2.4-3.6 2.4-3.6 0s3.6-2.4 3.6 0M134.4 233.6c0 2.4-3.6 2.4-3.6 0s3.6-2.4 3.6 0M138.3 229.8c0 2.4-3.6 2.4-3.6 0s3.6-2.4 3.6 0M142.1 235.1c0 2.4-3.6 2.4-3.6 0s3.6-2.4 3.6 0M146 229.6c0 2.4-3.6 2.4-3.6 0s3.6-2.4 3.6 0M149.9 232.1c0 2.4-3.6 2.4-3.6 0s3.6-2.4 3.6 0M153.8 235.5c0 2.4-3.6 2.4-3.6 0s3.6-2.4 3.6 0M157.7 233.3c0 2.4-3.6 2.4-3.6 0s3.6-2.4 3.6 0M161.5 234.7c0 2.4-3.6 2.4-3.6 0s3.6-2.4 3.6 0M165.4 233.2c0 2.4-3.6 2.4-3.6 0s3.6-2.4 3.6 0M169.3 215.4c0 2.4-3.6 2.4-3.6 0s3.6-2.4 3.6 0M173.2 222.8c0 2.4-3.6 2.4-3.6 0s3.6-2.4 3.6 0M177 216.8c0 2.4-3.6 2.4-3.6 0s3.6-2.4 3.6 0M181 217.1c0 2.4-3.7 2.4-3.7 0s3.6-2.4 3.6 0M184.8 216.2c0 2.4-3.6 2.4-3.6 0s3.6-2.4 3.6 0M188.7 215.6c0 2.4-3.6 2.4-3.6 0s3.6-2.4 3.6 0M192.6 232.8c0 2.3-3.6 2.3-3.6 0 0-2.4 3.6-2.4 3.6 0M196.4 233.5c0 2.4-3.6 2.4-3.6 0s3.6-2.4 3.6 0M200.3 223.2c0 2.4-3.6 2.4-3.6 0s3.6-2.4 3.6 0M204.2 231.8c0 2.4-3.6 2.4-3.6 0s3.6-2.4 3.6 0M208 215.3c0 2.4-3.5 2.4-3.5 0s3.6-2.4 3.6 0M212 221c0 2.3-3.6 2.3-3.6 0 0-2.5 3.6-2.5 3.6 0M215.8 216.9c0 2.4-3.6 2.4-3.6 0s3.6-2.4 3.6 0M219.7 215.3c0 2.4-3.6 2.4-3.6 0s3.6-2.4 3.6 0M223.6 219.7c0 2.4-3.6 2.4-3.6 0s3.6-2.4 3.6 0M227.5 215.8c0 2.4-3.6 2.4-3.6 0s3.6-2.4 3.6 0M231.4 227.5c0 2.4-3.7 2.4-3.7 0s3.7-2.4 3.7 0M235.2 216c0 2.4-3.6 2.4-3.6 0s3.6-2.4 3.6 0M239.1 221c0 2.4-3.6 2.4-3.6 0s3.6-2.4 3.6 0M243 219.6c0 2.4-3.6 2.4-3.6 0s3.6-2.4 3.6 0M246.9 216.4c0 2.4-3.6 2.4-3.6 0s3.6-2.4 3.6 0M250.7 216.8c0 2.4-3.6 2.4-3.6 0s3.6-2.4 3.6 0M254.6 215.3c0 2.4-3.6 2.4-3.6 0s3.6-2.4 3.6 0M258.5 219.5c0 2.4-3.6 2.4-3.6 0s3.6-2.4 3.6 0M262.4 216.2c0 2.4-3.6 2.4-3.6 0s3.6-2.4 3.6 0M266.3 216.4c0 2.4-3.6 2.4-3.6 0s3.6-2.4 3.6 0M270.1 215.9c0 2.4-3.6 2.4-3.6 0s3.6-2.4 3.6 0M274 224.7c0 2.4-3.6 2.4-3.6 0s3.6-2.4 3.6 0M277.9 220.2c0 2.4-3.6 2.4-3.6 0s3.6-2.4 3.6 0M281.8 215.3c0 2.4-3.6 2.4-3.6 0s3.6-2.4 3.6 0M285.7 218.4c0 2.4-3.6 2.4-3.6 0s3.6-2.4 3.6 0M289.5 218c0 2.3-3.6 2.3-3.6 0 0-2.5 3.6-2.5 3.6 0M293.4 217.4c0 2.4-3.6 2.4-3.6 0s3.6-2.4 3.6 0M297.3 215.6c0 2.4-3.6 2.4-3.6 0s3.6-2.4 3.6 0M301.2 220c0 2.4-3.6 2.4-3.6 0s3.6-2.4 3.6 0M305 219.3c0 2.4-3.6 2.4-3.6 0s3.6-2.4 3.6 0M309 217.6c0 2.4-3.7 2.4-3.7 0s3.6-2.4 3.6 0M312.8 216c0 2.4-3.6 2.4-3.6 0s3.6-2.4 3.6 0M316.7 215.5c0 2.4-3.6 2.4-3.6 0s3.6-2.4 3.6 0M320.6 224.3c0 2.4-3.6 2.4-3.6 0s3.6-2.4 3.6 0M324.4 219.3c0 2.3-3.6 2.3-3.6 0 0-2.4 3.6-2.4 3.6 0M328.3 215.1c0 2.4-3.6 2.4-3.6 0s3.6-2.4 3.6 0M332.2 220c0 2.3-3.6 2.3-3.6 0 0-2.5 3.6-2.5 3.6 0M336 235.4c0 2.4-3.5 2.4-3.5 0s3.6-2.4 3.6 0M340 232c0 2.4-3.6 2.4-3.6 0s3.6-2.4 3.6 0M343.8 235c0 2.3-3.6 2.3-3.6 0 0-2.5 3.6-2.5 3.6 0M347.7 232.2c0 2.4-3.6 2.4-3.6 0s3.6-2.4 3.6 0M351.6 215c0 2.4-3.6 2.4-3.6 0s3.6-2.4 3.6 0M355.5 217.6c0 2.4-3.6 2.4-3.6 0s3.6-2.4 3.6 0M359.4 232.9c0 2.4-3.6 2.4-3.6 0s3.6-2.4 3.6 0M363.2 226.9c0 2.4-3.6 2.4-3.6 0s3.6-2.4 3.6 0M367.1 234.6c0 2.4-3.6 2.4-3.6 0s3.6-2.4 3.6 0M371 222c0 2.4-3.6 2.4-3.6 0s3.6-2.4 3.6 0M374.9 228.3c0 2.4-3.6 2.4-3.6 0s3.6-2.4 3.6 0M378.7 235.4c0 2.4-3.6 2.4-3.6 0s3.6-2.4 3.6 0M382.6 220.1c0 2.4-3.6 2.4-3.6 0s3.6-2.4 3.6 0M386.5 217.2c0 2.4-3.6 2.4-3.6 0s3.6-2.4 3.6 0M390.4 235.3c0 2.4-3.6 2.4-3.6 0s3.6-2.4 3.6 0M394.3 228c0 2.4-3.6 2.4-3.6 0s3.6-2.4 3.6 0M398.1 231.4c0 2.4-3.6 2.4-3.6 0 0-2.3 3.6-2.3 3.6 0M402 227.4c0 2.4-3.6 2.4-3.6 0s3.6-2.4 3.6 0M405.9 228c0 2.4-3.6 2.4-3.6 0s3.6-2.4 3.6 0M409.8 235c0 2.4-3.6 2.4-3.6 0s3.6-2.4 3.6 0M413.7 232.3c0 2.4-3.6 2.4-3.6 0s3.6-2.4 3.6 0M417.5 233c0 2.5-3.6 2.5-3.6 0 0-2.3 3.6-2.3 3.6 0M421.4 235.3c0 2.4-3.6 2.4-3.6 0s3.6-2.4 3.6 0M425.3 232.3c0 2.4-3.6 2.4-3.6 0s3.6-2.4 3.6 0M429.2 235.3c0 2.4-3.6 2.4-3.6 0s3.6-2.4 3.6 0M433 220c0 2.5-3.6 2.5-3.6 0 0-2.3 3.6-2.3 3.6 0M437 216.1c0 2.4-3.7 2.4-3.7 0s3.6-2.4 3.6 0M440.8 215.6c0 2.4-3.6 2.4-3.6 0s3.6-2.4 3.6 0M444.7 216.3c0 2.4-3.6 2.4-3.6 0s3.6-2.4 3.6 0M448.6 215c0 2.3-3.6 2.3-3.6 0 0-2.5 3.6-2.5 3.6 0M452.4 215.2c0 2.4-3.6 2.4-3.6 0s3.6-2.4 3.6 0M456.3 217.7c0 2.4-3.6 2.4-3.6 0s3.6-2.4 3.6 0M460.2 215c0 2.3-3.6 2.3-3.6 0 0-2.5 3.6-2.5 3.6 0" fill="#b2df8a" stroke-width=".8" stroke-linecap="round" stroke-linejoin="round" stroke="#b2df8a" stroke-miterlimit="10"/><path d="M76.2 197.8c0 2.4-3.6 2.4-3.6 0s3.6-2.4 3.6 0M80 202c0 2.4-3.5 2.4-3.5 0s3.6-2.4 3.6 0M84 195c0 2.4-3.6 2.4-3.6 0s3.6-2.4 3.6 0M87.8 200.7c0 2.4-3.6 2.4-3.6 0s3.6-2.4 3.6 0M91.7 195c0 2.4-3.6 2.4-3.6 0s3.6-2.4 3.6 0M95.6 206.4c0 2.4-3.6 2.4-3.6 0s3.6-2.4 3.6 0M99.5 213.4c0 2.5-3.6 2.5-3.6 0 0-2.3 3.6-2.3 3.6 0M103.4 214.4c0 2.4-3.7 2.4-3.7 0s3.7-2.4 3.7 0M107.2 207.3c0 2.4-3.6 2.4-3.6 0s3.6-2.4 3.6 0M111.1 209.9c0 2.4-3.6 2.4-3.6 0s3.6-2.4 3.6 0M115 204c0 2.3-3.6 2.3-3.6 0 0-2.5 3.6-2.5 3.6 0M118.9 214.3c0 2.4-3.6 2.4-3.6 0s3.6-2.4 3.6 0M122.7 209.4c0 2.4-3.6 2.4-3.6 0s3.6-2.4 3.6 0M126.6 212.2c0 2.4-3.6 2.4-3.6 0s3.6-2.4 3.6 0M130.5 214.3c0 2.4-3.6 2.4-3.6 0s3.6-2.4 3.6 0M134.4 212.1c0 2.4-3.6 2.4-3.6 0s3.6-2.4 3.6 0M138.3 209.6c0 2.4-3.6 2.4-3.6 0s3.6-2.4 3.6 0M142.1 211.7c0 2.4-3.6 2.4-3.6 0s3.6-2.4 3.6 0M146 214c0 2.4-3.6 2.4-3.6 0s3.6-2.4 3.6 0M149.9 214c0 2.5-3.6 2.5-3.6 0 0-2.3 3.6-2.3 3.6 0M153.8 214.3c0 2.4-3.6 2.4-3.6 0s3.6-2.4 3.6 0M157.7 213.8c0 2.4-3.6 2.4-3.6 0s3.6-2.4 3.6 0M161.5 208.3c0 2.4-3.6 2.4-3.6 0s3.6-2.4 3.6 0M165.4 213.6c0 2.4-3.6 2.4-3.6 0s3.6-2.4 3.6 0M169.3 208c0 2.5-3.6 2.5-3.6 0 0-2.3 3.6-2.3 3.6 0M173.2 208.8c0 2.4-3.6 2.4-3.6 0s3.6-2.4 3.6 0M177 213.6c0 2.4-3.6 2.4-3.6 0s3.6-2.4 3.6 0M181 214.8c0 2.4-3.7 2.4-3.7 0s3.6-2.4 3.6 0M184.8 194c0 2.4-3.6 2.4-3.6 0s3.6-2.4 3.6 0M188.7 195.4c0 2.4-3.6 2.4-3.6 0s3.6-2.4 3.6 0M192.6 196.4c0 2.4-3.6 2.4-3.6 0s3.6-2.4 3.6 0M196.4 210.4c0 2.4-3.6 2.4-3.6 0s3.6-2.4 3.6 0M200.3 214.6c0 2.4-3.6 2.4-3.6 0s3.6-2.4 3.6 0M204.2 214.6c0 2.4-3.6 2.4-3.6 0s3.6-2.4 3.6 0M208 213.3c0 2.4-3.5 2.4-3.5 0s3.6-2.4 3.6 0M212 212.3c0 2.4-3.6 2.4-3.6 0s3.6-2.4 3.6 0M215.8 212.4c0 2.4-3.6 2.4-3.6 0s3.6-2.4 3.6 0M219.7 209.5c0 2.4-3.6 2.4-3.6 0s3.6-2.4 3.6 0M223.6 207c0 2.4-3.6 2.4-3.6 0s3.6-2.4 3.6 0M227.5 210.2c0 2.4-3.6 2.4-3.6 0s3.6-2.4 3.6 0M231.4 214.1c0 2.4-3.7 2.4-3.7 0s3.7-2.4 3.7 0M235.2 212.4c0 2.4-3.6 2.4-3.6 0s3.6-2.4 3.6 0M239.1 199.8c0 2.4-3.6 2.4-3.6 0s3.6-2.4 3.6 0M243 200.3c0 2.4-3.6 2.4-3.6 0s3.6-2.4 3.6 0M246.9 214.5c0 2.4-3.6 2.4-3.6 0s3.6-2.4 3.6 0M250.7 214.9c0 2.4-3.6 2.4-3.6 0s3.6-2.4 3.6 0M254.6 207.3c0 2.4-3.6 2.4-3.6 0s3.6-2.4 3.6 0M258.5 194.7c0 2.4-3.6 2.4-3.6 0s3.6-2.4 3.6 0M262.4 203.4c0 2.4-3.6 2.4-3.6 0s3.6-2.4 3.6 0M266.3 201.1c0 2.4-3.6 2.4-3.6 0s3.6-2.4 3.6 0M270.1 194.9c0 2.4-3.6 2.4-3.6 0s3.6-2.4 3.6 0M274 205.6c0 2.4-3.6 2.4-3.6 0s3.6-2.4 3.6 0M277.9 197.4c0 2.4-3.6 2.4-3.6 0s3.6-2.4 3.6 0M281.8 199.2c0 2.4-3.6 2.4-3.6 0s3.6-2.4 3.6 0M285.7 193.9c0 2.4-3.6 2.4-3.6 0s3.6-2.4 3.6 0M289.5 196c0 2.4-3.6 2.4-3.6 0s3.6-2.4 3.6 0M293.4 199.6c0 2.4-3.6 2.4-3.6 0s3.6-2.4 3.6 0M297.3 194.9c0 2.4-3.6 2.4-3.6 0s3.6-2.4 3.6 0M301.2 194.8c0 2.4-3.6 2.4-3.6 0s3.6-2.4 3.6 0M305 196c0 2.4-3.6 2.4-3.6 0s3.6-2.4 3.6 0M309 196c0 2.5-3.7 2.5-3.7 0 0-2.3 3.6-2.3 3.6 0M312.8 196.7c0 2.4-3.6 2.4-3.6 0s3.6-2.4 3.6 0M316.7 195c0 2.4-3.6 2.4-3.6 0s3.6-2.4 3.6 0M320.6 206.8c0 2.4-3.6 2.4-3.6 0s3.6-2.4 3.6 0M324.4 214.3c0 2.4-3.6 2.4-3.6 0s3.6-2.4 3.6 0M328.3 195.2c0 2.4-3.6 2.4-3.6 0s3.6-2.4 3.6 0M332.2 199.7c0 2.4-3.6 2.4-3.6 0s3.6-2.4 3.6 0M336 196.4c0 2.4-3.5 2.4-3.5 0s3.6-2.4 3.6 0M340 194.1c0 2.4-3.6 2.4-3.6 0s3.6-2.4 3.6 0M343.8 194.5c0 2.4-3.6 2.4-3.6 0s3.6-2.4 3.6 0M347.7 199.5c0 2.4-3.6 2.4-3.6 0s3.6-2.4 3.6 0M351.6 199.3c0 2.4-3.6 2.4-3.6 0s3.6-2.4 3.6 0M355.5 195.5c0 2.4-3.6 2.4-3.6 0s3.6-2.4 3.6 0M359.4 214.3c0 2.4-3.6 2.4-3.6 0s3.6-2.4 3.6 0M363.2 209.2c0 2.4-3.6 2.4-3.6 0s3.6-2.4 3.6 0M367.1 211.2c0 2.4-3.6 2.4-3.6 0s3.6-2.4 3.6 0M371 213.5c0 2.4-3.6 2.4-3.6 0s3.6-2.4 3.6 0M374.9 214c0 2.3-3.6 2.3-3.6 0 0-2.5 3.6-2.5 3.6 0M378.7 210.6c0 2.4-3.6 2.4-3.6 0s3.6-2.4 3.6 0M382.6 213.2c0 2.4-3.6 2.4-3.6 0s3.6-2.4 3.6 0M386.5 196.1c0 2.4-3.6 2.4-3.6 0s3.6-2.4 3.6 0M390.4 199.3c0 2.4-3.6 2.4-3.6 0s3.6-2.4 3.6 0M394.3 194.7c0 2.4-3.6 2.4-3.6 0s3.6-2.4 3.6 0M398.1 208.5c0 2.4-3.6 2.4-3.6 0s3.6-2.4 3.6 0M402 195.6c0 2.4-3.6 2.4-3.6 0s3.6-2.4 3.6 0M405.9 194.9c0 2.4-3.6 2.4-3.6 0s3.6-2.4 3.6 0M409.8 199.5c0 2.4-3.6 2.4-3.6 0s3.6-2.4 3.6 0M413.7 199c0 2.5-3.6 2.5-3.6 0 0-2.3 3.6-2.3 3.6 0M417.5 203.1c0 2.4-3.6 2.4-3.6 0s3.6-2.4 3.6 0M421.4 203.4c0 2.4-3.6 2.4-3.6 0s3.6-2.4 3.6 0M425.3 197.6c0 2.4-3.6 2.4-3.6 0s3.6-2.4 3.6 0M429.2 196.4c0 2.4-3.6 2.4-3.6 0s3.6-2.4 3.6 0M433 201.3c0 2.4-3.6 2.4-3.6 0s3.6-2.4 3.6 0M437 196c0 2.4-3.7 2.4-3.7 0s3.6-2.4 3.6 0M440.8 197.7c0 2.4-3.6 2.4-3.6 0s3.6-2.4 3.6 0M444.7 202.8c0 2.4-3.6 2.4-3.6 0s3.6-2.4 3.6 0M448.6 197c0 2.4-3.6 2.4-3.6 0s3.6-2.4 3.6 0M452.4 211.2c0 2.4-3.6 2.4-3.6 0s3.6-2.4 3.6 0M456.3 214c0 2.4-3.6 2.4-3.6 0s3.6-2.4 3.6 0M460.2 212.7c0 2.4-3.6 2.4-3.6 0s3.6-2.4 3.6 0" fill="#33a02c" stroke-width=".8" stroke-linecap="round" stroke-linejoin="round" stroke="#33a02c" stroke-miterlimit="10"/><path d="M76.2 174.1c0 2.4-3.6 2.4-3.6 0s3.6-2.4 3.6 0M80 178.7c0 2.4-3.5 2.4-3.5 0s3.6-2.4 3.6 0M84 193.8c0 2.4-3.6 2.4-3.6 0s3.6-2.4 3.6 0M87.8 184c0 2.4-3.6 2.4-3.6 0s3.6-2.4 3.6 0M91.7 183.4c0 2.4-3.6 2.4-3.6 0s3.6-2.4 3.6 0M95.6 191.9c0 2.4-3.6 2.4-3.6 0s3.6-2.4 3.6 0M99.5 187.8c0 2.4-3.6 2.4-3.6 0s3.6-2.4 3.6 0M103.4 192.9c0 2.4-3.7 2.4-3.7 0s3.7-2.4 3.7 0M107.2 192.8c0 2.4-3.6 2.4-3.6 0s3.6-2.4 3.6 0M111.1 192.8c0 2.4-3.6 2.4-3.6 0s3.6-2.4 3.6 0M115 192.4c0 2.4-3.6 2.4-3.6 0s3.6-2.4 3.6 0M118.9 176c0 2.4-3.6 2.4-3.6 0s3.6-2.4 3.6 0M122.7 174.5c0 2.4-3.6 2.4-3.6 0s3.6-2.4 3.6 0M126.6 178.4c0 2.4-3.6 2.4-3.6 0s3.6-2.4 3.6 0M130.5 177.5c0 2.4-3.6 2.4-3.6 0s3.6-2.4 3.6 0M134.4 175.4c0 2.4-3.6 2.4-3.6 0s3.6-2.4 3.6 0M138.3 185.3c0 2.4-3.6 2.4-3.6 0s3.6-2.4 3.6 0M142.1 189.5c0 2.4-3.6 2.4-3.6 0s3.6-2.4 3.6 0M146 193c0 2.4-3.6 2.4-3.6 0s3.6-2.4 3.6 0M149.9 191.5c0 2.4-3.6 2.4-3.6 0s3.6-2.4 3.6 0M153.8 191.7c0 2.4-3.6 2.4-3.6 0s3.6-2.4 3.6 0M157.7 192.6c0 2.4-3.6 2.4-3.6 0s3.6-2.4 3.6 0M161.5 186.5c0 2.4-3.6 2.4-3.6 0s3.6-2.4 3.6 0M165.4 191.3c0 2.4-3.6 2.4-3.6 0s3.6-2.4 3.6 0M169.3 188.8c0 2.4-3.6 2.4-3.6 0s3.6-2.4 3.6 0M173.2 190.2c0 2.4-3.6 2.4-3.6 0s3.6-2.4 3.6 0M177 189.7c0 2.4-3.6 2.4-3.6 0s3.6-2.4 3.6 0M181 183.5c0 2.4-3.7 2.4-3.7 0s3.6-2.4 3.6 0M184.8 188.2c0 2.4-3.6 2.4-3.6 0s3.6-2.4 3.6 0M188.7 192.9c0 2.4-3.6 2.4-3.6 0s3.6-2.4 3.6 0M192.6 189.4c0 2.4-3.6 2.4-3.6 0s3.6-2.4 3.6 0M196.4 190.6c0 2.4-3.6 2.4-3.6 0s3.6-2.4 3.6 0M200.3 178.3c0 2.4-3.6 2.4-3.6 0s3.6-2.4 3.6 0M204.2 193.4c0 2.4-3.6 2.4-3.6 0s3.6-2.4 3.6 0M208 193c0 2.5-3.5 2.5-3.5 0 0-2.3 3.6-2.3 3.6 0M212 189.4c0 2.4-3.6 2.4-3.6 0s3.6-2.4 3.6 0M215.8 192c0 2.4-3.6 2.4-3.6 0s3.6-2.4 3.6 0M219.7 174.6c0 2.4-3.6 2.4-3.6 0s3.6-2.4 3.6 0M223.6 174c0 2.4-3.6 2.4-3.6 0s3.6-2.4 3.6 0M227.5 175c0 2.3-3.6 2.3-3.6 0 0-2.5 3.6-2.5 3.6 0M231.4 175.1c0 2.4-3.7 2.4-3.7 0s3.7-2.4 3.7 0M235.2 178.3c0 2.4-3.6 2.4-3.6 0s3.6-2.4 3.6 0M239.1 177.8c0 2.4-3.6 2.4-3.6 0s3.6-2.4 3.6 0M243 174.3c0 2.4-3.6 2.4-3.6 0s3.6-2.4 3.6 0M246.9 190c0 2.5-3.6 2.5-3.6 0 0-2.3 3.6-2.3 3.6 0M250.7 176.2c0 2.4-3.6 2.4-3.6 0s3.6-2.4 3.6 0M254.6 174c0 2.5-3.6 2.5-3.6 0 0-2.3 3.6-2.3 3.6 0M258.5 175.2c0 2.4-3.6 2.4-3.6 0s3.6-2.4 3.6 0M262.4 172.8c0 2.4-3.6 2.4-3.6 0s3.6-2.4 3.6 0M266.3 175.1c0 2.4-3.6 2.4-3.6 0s3.6-2.4 3.6 0M270.1 175.5c0 2.4-3.6 2.4-3.6 0s3.6-2.4 3.6 0M274 173.3c0 2.4-3.6 2.4-3.6 0s3.6-2.4 3.6 0M277.9 177.9c0 2.4-3.6 2.4-3.6 0s3.6-2.4 3.6 0M281.8 193c0 2.3-3.6 2.3-3.6 0 0-2.5 3.6-2.5 3.6 0M285.7 183.6c0 2.4-3.6 2.4-3.6 0s3.6-2.4 3.6 0M289.5 173.2c0 2.4-3.6 2.4-3.6 0s3.6-2.4 3.6 0M293.4 173.8c0 2.4-3.6 2.4-3.6 0s3.6-2.4 3.6 0M297.3 176.5c0 2.4-3.6 2.4-3.6 0s3.6-2.4 3.6 0M301.2 193.3c0 2.4-3.6 2.4-3.6 0s3.6-2.4 3.6 0M305 174.2c0 2.4-3.6 2.4-3.6 0s3.6-2.4 3.6 0M309 173.5c0 2.4-3.7 2.4-3.7 0s3.6-2.4 3.6 0M312.8 178.4c0 2.3-3.6 2.3-3.6 0 0-2.5 3.6-2.5 3.6 0M316.7 181.2c0 2.4-3.6 2.4-3.6 0s3.6-2.4 3.6 0M320.6 176.1c0 2.4-3.6 2.4-3.6 0s3.6-2.4 3.6 0M324.4 172.9c0 2.4-3.6 2.4-3.6 0s3.6-2.4 3.6 0M328.3 176.4c0 2.4-3.6 2.4-3.6 0s3.6-2.4 3.6 0M332.2 174.3c0 2.4-3.6 2.4-3.6 0s3.6-2.4 3.6 0M336 173c0 2.5-3.5 2.5-3.5 0 0-2.3 3.6-2.3 3.6 0M340 174.4c0 2.4-3.6 2.4-3.6 0s3.6-2.4 3.6 0M343.8 175.5c0 2.4-3.6 2.4-3.6 0s3.6-2.4 3.6 0M347.7 176.2c0 2.4-3.6 2.4-3.6 0s3.6-2.4 3.6 0M351.6 174.7c0 2.4-3.6 2.4-3.6 0s3.6-2.4 3.6 0M355.5 177.6c0 2.4-3.6 2.4-3.6 0s3.6-2.4 3.6 0M359.4 179.8c0 2.4-3.6 2.4-3.6 0s3.6-2.4 3.6 0M363.2 173.4c0 2.4-3.6 2.4-3.6 0s3.6-2.4 3.6 0M367.1 173.8c0 2.4-3.6 2.4-3.6 0s3.6-2.4 3.6 0M371 177.5c0 2.4-3.6 2.4-3.6 0s3.6-2.4 3.6 0M374.9 173.6c0 2.4-3.6 2.4-3.6 0s3.6-2.4 3.6 0M378.7 177.3c0 2.4-3.6 2.4-3.6 0s3.6-2.4 3.6 0M382.6 174.1c0 2.4-3.6 2.4-3.6 0s3.6-2.4 3.6 0M386.5 183.5c0 2.4-3.6 2.4-3.6 0s3.6-2.4 3.6 0M390.4 172.8c0 2.4-3.6 2.4-3.6 0s3.6-2.4 3.6 0M394.3 174.5c0 2.4-3.6 2.4-3.6 0s3.6-2.4 3.6 0M398.1 173c0 2.5-3.6 2.5-3.6 0 0-2.3 3.6-2.3 3.6 0M402 192.1c0 2.4-3.6 2.4-3.6 0s3.6-2.4 3.6 0M405.9 193c0 2.3-3.6 2.3-3.6 0 0-2.5 3.6-2.5 3.6 0M409.8 175.5c0 2.4-3.6 2.4-3.6 0s3.6-2.4 3.6 0M413.7 179.9c0 2.4-3.6 2.4-3.6 0s3.6-2.4 3.6 0M417.5 181.7c0 2.4-3.6 2.4-3.6 0s3.6-2.4 3.6 0M421.4 173.2c0 2.4-3.6 2.4-3.6 0s3.6-2.4 3.6 0M425.3 173.5c0 2.4-3.6 2.4-3.6 0s3.6-2.4 3.6 0M429.2 174.3c0 2.4-3.6 2.4-3.6 0s3.6-2.4 3.6 0M433 175.4c0 2.4-3.6 2.4-3.6 0s3.6-2.4 3.6 0M437 177.5c0 2.4-3.7 2.4-3.7 0s3.6-2.4 3.6 0M440.8 175c0 2.4-3.6 2.4-3.6 0s3.6-2.4 3.6 0M444.7 173c0 2.4-3.6 2.4-3.6 0s3.6-2.4 3.6 0M448.6 174.4c0 2.4-3.6 2.4-3.6 0s3.6-2.4 3.6 0M452.4 174.2c0 2.4-3.6 2.4-3.6 0s3.6-2.4 3.6 0M456.3 174.1c0 2.4-3.6 2.4-3.6 0s3.6-2.4 3.6 0M460.2 173.7c0 2.4-3.6 2.4-3.6 0s3.6-2.4 3.6 0" fill="#fb9a99" stroke-width=".8" stroke-linecap="round" stroke-linejoin="round" stroke="#fb9a99" stroke-miterlimit="10"/><path d="M76.2 169c0 2.5-3.6 2.5-3.6 0 0-2.3 3.6-2.3 3.6 0M80 171.4c0 2.4-3.5 2.4-3.5 0s3.6-2.4 3.6 0M84 172.3c0 2.4-3.6 2.4-3.6 0s3.6-2.4 3.6 0M87.8 162.3c0 2.4-3.6 2.4-3.6 0s3.6-2.4 3.6 0M91.7 171.2c0 2.4-3.6 2.4-3.6 0s3.6-2.4 3.6 0M95.6 171.4c0 2.4-3.6 2.4-3.6 0s3.6-2.4 3.6 0M99.5 157.6c0 2.4-3.6 2.4-3.6 0s3.6-2.4 3.6 0M103.4 151.8c0 2.4-3.7 2.4-3.7 0s3.7-2.4 3.7 0M107.2 159.6c0 2.4-3.6 2.4-3.6 0s3.6-2.4 3.6 0M111.1 159.5c0 2.4-3.6 2.4-3.6 0s3.6-2.4 3.6 0M115 152.1c0 2.4-3.6 2.4-3.6 0s3.6-2.4 3.6 0M118.9 155.2c0 2.4-3.6 2.4-3.6 0s3.6-2.4 3.6 0M122.7 153.4c0 2.4-3.6 2.4-3.6 0s3.6-2.4 3.6 0M126.6 165.1c0 2.4-3.6 2.4-3.6 0s3.6-2.4 3.6 0M130.5 172c0 2.4-3.6 2.4-3.6 0s3.6-2.4 3.6 0M134.4 170.6c0 2.4-3.6 2.4-3.6 0s3.6-2.4 3.6 0M138.3 171.5c0 2.4-3.6 2.4-3.6 0s3.6-2.4 3.6 0M142.1 172.3c0 2.4-3.6 2.4-3.6 0s3.6-2.4 3.6 0M146 172.6c0 2.4-3.6 2.4-3.6 0s3.6-2.4 3.6 0M149.9 166.2c0 2.4-3.6 2.4-3.6 0s3.6-2.4 3.6 0M153.8 170.3c0 2.4-3.6 2.4-3.6 0s3.6-2.4 3.6 0M157.7 165c0 2.3-3.6 2.3-3.6 0 0-2.5 3.6-2.5 3.6 0M161.5 164c0 2.5-3.6 2.5-3.6 0 0-2.3 3.6-2.3 3.6 0M165.4 172.4c0 2.4-3.6 2.4-3.6 0s3.6-2.4 3.6 0M169.3 168.2c0 2.4-3.6 2.4-3.6 0s3.6-2.4 3.6 0M173.2 168.2c0 2.4-3.6 2.4-3.6 0s3.6-2.4 3.6 0M177 172.4c0 2.4-3.6 2.4-3.6 0s3.6-2.4 3.6 0M181 171c0 2.4-3.7 2.4-3.7 0s3.6-2.4 3.6 0M184.8 165.3c0 2.4-3.6 2.4-3.6 0s3.6-2.4 3.6 0M188.7 171.8c0 2.4-3.6 2.4-3.6 0s3.6-2.4 3.6 0M192.6 170.2c0 2.4-3.6 2.4-3.6 0s3.6-2.4 3.6 0M196.4 170.7c0 2.4-3.6 2.4-3.6 0s3.6-2.4 3.6 0M200.3 164.8c0 2.4-3.6 2.4-3.6 0s3.6-2.4 3.6 0M204.2 172.2c0 2.4-3.6 2.4-3.6 0s3.6-2.4 3.6 0M208 172.1c0 2.4-3.5 2.4-3.5 0s3.6-2.4 3.6 0M212 168.8c0 2.4-3.6 2.4-3.6 0s3.6-2.4 3.6 0M215.8 164c0 2.5-3.6 2.5-3.6 0 0-2.3 3.6-2.3 3.6 0M219.7 171.4c0 2.4-3.6 2.4-3.6 0s3.6-2.4 3.6 0M223.6 154.5c0 2.4-3.6 2.4-3.6 0s3.6-2.4 3.6 0M227.5 152.6c0 2.4-3.6 2.4-3.6 0s3.6-2.4 3.6 0M231.4 154c0 2.4-3.7 2.4-3.7 0s3.7-2.4 3.7 0M235.2 153.1c0 2.4-3.6 2.4-3.6 0s3.6-2.4 3.6 0M239.1 152.7c0 2.4-3.6 2.4-3.6 0s3.6-2.4 3.6 0M243 152.1c0 2.4-3.6 2.4-3.6 0s3.6-2.4 3.6 0M246.9 161c0 2.3-3.6 2.3-3.6 0 0-2.5 3.6-2.5 3.6 0M250.7 153.1c0 2.4-3.6 2.4-3.6 0s3.6-2.4 3.6 0M254.6 152.7c0 2.4-3.6 2.4-3.6 0s3.6-2.4 3.6 0M258.5 155c0 2.5-3.6 2.5-3.6 0 0-2.3 3.6-2.3 3.6 0M262.4 155.6c0 2.4-3.6 2.4-3.6 0s3.6-2.4 3.6 0M266.3 153.7c0 2.4-3.6 2.4-3.6 0s3.6-2.4 3.6 0M270.1 153.5c0 2.4-3.6 2.4-3.6 0s3.6-2.4 3.6 0M274 153c0 2.4-3.6 2.4-3.6 0s3.6-2.4 3.6 0M277.9 154.4c0 2.4-3.6 2.4-3.6 0s3.6-2.4 3.6 0M281.8 152.4c0 2.4-3.6 2.4-3.6 0s3.6-2.4 3.6 0M285.7 155.7c0 2.4-3.6 2.4-3.6 0s3.6-2.4 3.6 0M289.5 172.3c0 2.4-3.6 2.4-3.6 0s3.6-2.4 3.6 0M293.4 166c0 2.4-3.6 2.4-3.6 0s3.6-2.4 3.6 0M297.3 169.3c0 2.4-3.6 2.4-3.6 0s3.6-2.4 3.6 0M301.2 170.7c0 2.4-3.6 2.4-3.6 0s3.6-2.4 3.6 0M305 165.6c0 2.4-3.6 2.4-3.6 0s3.6-2.4 3.6 0M309 159c0 2.5-3.7 2.5-3.7 0 0-2.3 3.6-2.3 3.6 0M312.8 164.2c0 2.4-3.6 2.4-3.6 0s3.6-2.4 3.6 0M316.7 161.6c0 2.3-3.6 2.3-3.6 0 0-2.5 3.6-2.5 3.6 0M320.6 152.3c0 2.4-3.6 2.4-3.6 0s3.6-2.4 3.6 0M324.4 153.5c0 2.4-3.6 2.4-3.6 0s3.6-2.4 3.6 0M328.3 153.4c0 2.4-3.6 2.4-3.6 0s3.6-2.4 3.6 0M332.2 159c0 2.4-3.6 2.4-3.6 0s3.6-2.4 3.6 0M336 152.8c0 2.4-3.5 2.4-3.5 0s3.6-2.4 3.6 0M340 158.8c0 2.4-3.6 2.4-3.6 0s3.6-2.4 3.6 0M343.8 154c0 2.3-3.6 2.3-3.6 0 0-2.5 3.6-2.5 3.6 0M347.7 162.8c0 2.4-3.6 2.4-3.6 0s3.6-2.4 3.6 0M351.6 161c0 2.4-3.6 2.4-3.6 0s3.6-2.4 3.6 0M355.5 152.9c0 2.4-3.6 2.4-3.6 0s3.6-2.4 3.6 0M359.4 168.7c0 2.4-3.6 2.4-3.6 0s3.6-2.4 3.6 0M363.2 172.2c0 2.4-3.6 2.4-3.6 0s3.6-2.4 3.6 0M367.1 170.8c0 2.4-3.6 2.4-3.6 0s3.6-2.4 3.6 0M371 159.5c0 2.4-3.6 2.4-3.6 0s3.6-2.4 3.6 0M374.9 168.7c0 2.4-3.6 2.4-3.6 0s3.6-2.4 3.6 0M378.7 172c0 2.5-3.6 2.5-3.6 0 0-2.3 3.6-2.3 3.6 0M382.6 166.1c0 2.4-3.6 2.4-3.6 0s3.6-2.4 3.6 0M386.5 165.7c0 2.4-3.6 2.4-3.6 0s3.6-2.4 3.6 0M390.4 160.7c0 2.4-3.6 2.4-3.6 0s3.6-2.4 3.6 0M394.3 160.8c0 2.4-3.6 2.4-3.6 0s3.6-2.4 3.6 0M398.1 160c0 2.5-3.6 2.5-3.6 0 0-2.3 3.6-2.3 3.6 0M402 153.1c0 2.4-3.6 2.4-3.6 0s3.6-2.4 3.6 0M405.9 157.8c0 2.4-3.6 2.4-3.6 0s3.6-2.4 3.6 0M409.8 153.6c0 2.4-3.6 2.4-3.6 0s3.6-2.4 3.6 0M413.7 153.8c0 2.4-3.6 2.4-3.6 0s3.6-2.4 3.6 0M417.5 152.3c0 2.4-3.6 2.4-3.6 0s3.6-2.4 3.6 0M421.4 153.1c0 2.4-3.6 2.4-3.6 0s3.6-2.4 3.6 0M425.3 157.1c0 2.4-3.6 2.4-3.6 0s3.6-2.4 3.6 0M429.2 156c0 2.5-3.6 2.5-3.6 0 0-2.3 3.6-2.3 3.6 0M433 158.5c0 2.4-3.6 2.4-3.6 0s3.6-2.4 3.6 0M437 154.7c0 2.4-3.7 2.4-3.7 0s3.6-2.4 3.6 0M440.8 162c0 2.4-3.6 2.4-3.6 0s3.6-2.4 3.6 0M444.7 156.2c0 2.4-3.6 2.4-3.6 0s3.6-2.4 3.6 0M448.6 152.3c0 2.4-3.6 2.4-3.6 0s3.6-2.4 3.6 0M452.4 157c0 2.4-3.6 2.4-3.6 0s3.6-2.4 3.6 0M456.3 153.3c0 2.4-3.6 2.4-3.6 0s3.6-2.4 3.6 0M460.2 158.8c0 2.4-3.6 2.4-3.6 0s3.6-2.4 3.6 0" fill="#e31a1c" stroke-width=".8" stroke-linecap="round" stroke-linejoin="round" stroke="#e31a1c" stroke-miterlimit="10"/><path d="M76.2 132.2c0 2.4-3.6 2.4-3.6 0s3.6-2.4 3.6 0M80 134.7c0 2.4-3.5 2.4-3.5 0s3.6-2.4 3.6 0M84 133.3c0 2.4-3.6 2.4-3.6 0s3.6-2.4 3.6 0M87.8 133c0 2.4-3.6 2.4-3.6 0s3.6-2.4 3.6 0M91.7 137.7c0 2.4-3.6 2.4-3.6 0s3.6-2.4 3.6 0M95.6 136c0 2.4-3.6 2.4-3.6 0s3.6-2.4 3.6 0M99.5 134.7c0 2.4-3.6 2.4-3.6 0s3.6-2.4 3.6 0M103.4 130.7c0 2.4-3.7 2.4-3.7 0s3.7-2.4 3.7 0M107.2 135c0 2.5-3.6 2.5-3.6 0 0-2.3 3.6-2.3 3.6 0M111.1 131.3c0 2.4-3.6 2.4-3.6 0s3.6-2.4 3.6 0M115 130.9c0 2.4-3.6 2.4-3.6 0s3.6-2.4 3.6 0M118.9 135.3c0 2.4-3.6 2.4-3.6 0s3.6-2.4 3.6 0M122.7 146.7c0 2.4-3.6 2.4-3.6 0s3.6-2.4 3.6 0M126.6 151.1c0 2.4-3.6 2.4-3.6 0s3.6-2.4 3.6 0M130.5 151.7c0 2.4-3.6 2.4-3.6 0s3.6-2.4 3.6 0M134.4 148.4c0 2.4-3.6 2.4-3.6 0s3.6-2.4 3.6 0M138.3 150c0 2.4-3.6 2.4-3.6 0s3.6-2.4 3.6 0M142.1 149.1c0 2.4-3.6 2.4-3.6 0s3.6-2.4 3.6 0M146 147c0 2.4-3.6 2.4-3.6 0s3.6-2.4 3.6 0M149.9 144.9c0 2.4-3.6 2.4-3.6 0s3.6-2.4 3.6 0M153.8 145.2c0 2.4-3.6 2.4-3.6 0s3.6-2.4 3.6 0M157.7 149.4c0 2.4-3.6 2.4-3.6 0s3.6-2.4 3.6 0M161.5 140.2c0 2.4-3.6 2.4-3.6 0s3.6-2.4 3.6 0M165.4 144.5c0 2.4-3.6 2.4-3.6 0s3.6-2.4 3.6 0M169.3 150.2c0 2.4-3.6 2.4-3.6 0s3.6-2.4 3.6 0M173.2 144.9c0 2.4-3.6 2.4-3.6 0s3.6-2.4 3.6 0M177 145.6c0 2.4-3.6 2.4-3.6 0s3.6-2.4 3.6 0M181 149.4c0 2.4-3.7 2.4-3.7 0s3.6-2.4 3.6 0M184.8 148c0 2.5-3.6 2.5-3.6 0 0-2.3 3.6-2.3 3.6 0M188.7 149.5c0 2.4-3.6 2.4-3.6 0s3.6-2.4 3.6 0M192.6 148.4c0 2.4-3.6 2.4-3.6 0s3.6-2.4 3.6 0M196.4 150c0 2.4-3.6 2.4-3.6 0s3.6-2.4 3.6 0M200.3 148.9c0 2.4-3.6 2.4-3.6 0s3.6-2.4 3.6 0M204.2 139.9c0 2.4-3.6 2.4-3.6 0s3.6-2.4 3.6 0M208 146.5c0 2.4-3.5 2.4-3.5 0s3.6-2.4 3.6 0M212 148.5c0 2.4-3.6 2.4-3.6 0s3.6-2.4 3.6 0M215.8 149.8c0 2.4-3.6 2.4-3.6 0s3.6-2.4 3.6 0M219.7 141.6c0 2.4-3.6 2.4-3.6 0s3.6-2.4 3.6 0M223.6 151c0 2.4-3.6 2.4-3.6 0s3.6-2.4 3.6 0M227.5 148.3c0 2.4-3.6 2.4-3.6 0s3.6-2.4 3.6 0M231.4 149.7c0 2.4-3.7 2.4-3.7 0s3.7-2.4 3.7 0M235.2 151.3c0 2.4-3.6 2.4-3.6 0s3.6-2.4 3.6 0M239.1 146.4c0 2.4-3.6 2.4-3.6 0s3.6-2.4 3.6 0M243 150.8c0 2.4-3.6 2.4-3.6 0s3.6-2.4 3.6 0M246.9 148.4c0 2.4-3.6 2.4-3.6 0s3.6-2.4 3.6 0M250.7 151.5c0 2.4-3.6 2.4-3.6 0s3.6-2.4 3.6 0M254.6 146.9c0 2.4-3.6 2.4-3.6 0s3.6-2.4 3.6 0M258.5 148.2c0 2.4-3.6 2.4-3.6 0s3.6-2.4 3.6 0M262.4 145.7c0 2.4-3.6 2.4-3.6 0s3.6-2.4 3.6 0M266.3 146.3c0 2.4-3.6 2.4-3.6 0s3.6-2.4 3.6 0M270.1 130.9c0 2.4-3.6 2.4-3.6 0s3.6-2.4 3.6 0M274 131.5c0 2.4-3.6 2.4-3.6 0s3.6-2.4 3.6 0M277.9 140.6c0 2.4-3.6 2.4-3.6 0s3.6-2.4 3.6 0M281.8 137.6c0 2.4-3.6 2.4-3.6 0s3.6-2.4 3.6 0M285.7 137c0 2.4-3.6 2.4-3.6 0s3.6-2.4 3.6 0M289.5 131.2c0 2.4-3.6 2.4-3.6 0s3.6-2.4 3.6 0M293.4 150.4c0 2.4-3.6 2.4-3.6 0s3.6-2.4 3.6 0M297.3 148.8c0 2.4-3.6 2.4-3.6 0s3.6-2.4 3.6 0M301.2 141.9c0 2.4-3.6 2.4-3.6 0s3.6-2.4 3.6 0M305 151c0 2.5-3.6 2.5-3.6 0 0-2.3 3.6-2.3 3.6 0M309 149.3c0 2.4-3.7 2.4-3.7 0s3.6-2.4 3.6 0M312.8 150.9c0 2.4-3.6 2.4-3.6 0s3.6-2.4 3.6 0M316.7 150.3c0 2.4-3.6 2.4-3.6 0s3.6-2.4 3.6 0M320.6 143.2c0 2.4-3.6 2.4-3.6 0s3.6-2.4 3.6 0M324.4 149c0 2.3-3.6 2.3-3.6 0 0-2.5 3.6-2.5 3.6 0M328.3 151.7c0 2.4-3.6 2.4-3.6 0s3.6-2.4 3.6 0M332.2 151.4c0 2.4-3.6 2.4-3.6 0s3.6-2.4 3.6 0M336 146.8c0 2.4-3.5 2.4-3.5 0s3.6-2.4 3.6 0M340 150.2c0 2.4-3.6 2.4-3.6 0s3.6-2.4 3.6 0M343.8 143.9c0 2.4-3.6 2.4-3.6 0s3.6-2.4 3.6 0M347.7 148.9c0 2.4-3.6 2.4-3.6 0s3.6-2.4 3.6 0M351.6 148.8c0 2.4-3.6 2.4-3.6 0s3.6-2.4 3.6 0M355.5 149.6c0 2.4-3.6 2.4-3.6 0s3.6-2.4 3.6 0M359.4 149.7c0 2.4-3.6 2.4-3.6 0s3.6-2.4 3.6 0M363.2 141.7c0 2.4-3.6 2.4-3.6 0s3.6-2.4 3.6 0M367.1 146.7c0 2.4-3.6 2.4-3.6 0s3.6-2.4 3.6 0M371 151.3c0 2.4-3.6 2.4-3.6 0s3.6-2.4 3.6 0M374.9 148.7c0 2.4-3.6 2.4-3.6 0s3.6-2.4 3.6 0M378.7 151.7c0 2.4-3.6 2.4-3.6 0s3.6-2.4 3.6 0M382.6 146.6c0 2.4-3.6 2.4-3.6 0s3.6-2.4 3.6 0M386.5 150.2c0 2.4-3.6 2.4-3.6 0s3.6-2.4 3.6 0M390.4 150.9c0 2.4-3.6 2.4-3.6 0s3.6-2.4 3.6 0M394.3 131.7c0 2.4-3.6 2.4-3.6 0s3.6-2.4 3.6 0M398.1 132.5c0 2.4-3.6 2.4-3.6 0s3.6-2.4 3.6 0M402 138.5c0 2.4-3.6 2.4-3.6 0s3.6-2.4 3.6 0M405.9 140.2c0 2.4-3.6 2.4-3.6 0s3.6-2.4 3.6 0M409.8 133.4c0 2.4-3.6 2.4-3.6 0s3.6-2.4 3.6 0M413.7 135.3c0 2.4-3.6 2.4-3.6 0s3.6-2.4 3.6 0M417.5 142.1c0 2.4-3.6 2.4-3.6 0s3.6-2.4 3.6 0M421.4 132.6c0 2.4-3.6 2.4-3.6 0s3.6-2.4 3.6 0M425.3 133.5c0 2.4-3.6 2.4-3.6 0s3.6-2.4 3.6 0M429.2 133.5c0 2.4-3.6 2.4-3.6 0s3.6-2.4 3.6 0M433 132.6c0 2.4-3.6 2.4-3.6 0s3.6-2.4 3.6 0M437 130.8c0 2.4-3.7 2.4-3.7 0s3.6-2.4 3.6 0M440.8 131.3c0 2.4-3.6 2.4-3.6 0s3.6-2.4 3.6 0M444.7 143.5c0 2.4-3.6 2.4-3.6 0s3.6-2.4 3.6 0M448.6 134.3c0 2.4-3.6 2.4-3.6 0s3.6-2.4 3.6 0M452.4 147.8c0 2.4-3.6 2.4-3.6 0s3.6-2.4 3.6 0M456.3 144c0 2.4-3.6 2.4-3.6 0s3.6-2.4 3.6 0M460.2 150.3c0 2.4-3.6 2.4-3.6 0s3.6-2.4 3.6 0" fill="#a6cee3" stroke-width=".8" stroke-linecap="round" stroke-linejoin="round" stroke="#a6cee3" stroke-miterlimit="10"/><path d="M76.2 130c0 2.4-3.6 2.4-3.6 0s3.6-2.4 3.6 0M80 129.3c0 2.4-3.5 2.4-3.5 0s3.6-2.4 3.6 0M84 130.6c0 2.4-3.6 2.4-3.6 0s3.6-2.4 3.6 0M87.8 129.6c0 2.4-3.6 2.4-3.6 0s3.6-2.4 3.6 0M91.7 129.4c0 2.4-3.6 2.4-3.6 0s3.6-2.4 3.6 0M95.6 128.1c0 2.4-3.6 2.4-3.6 0s3.6-2.4 3.6 0M99.5 127.4c0 2.4-3.6 2.4-3.6 0s3.6-2.4 3.6 0M103.4 130.3c0 2.4-3.7 2.4-3.7 0s3.7-2.4 3.7 0M107.2 125.2c0 2.4-3.6 2.4-3.6 0s3.6-2.4 3.6 0M111.1 125.5c0 2.4-3.6 2.4-3.6 0s3.6-2.4 3.6 0M115 129.6c0 2.4-3.6 2.4-3.6 0s3.6-2.4 3.6 0M118.9 126.8c0 2.4-3.6 2.4-3.6 0s3.6-2.4 3.6 0M122.7 113.8c0 2.4-3.6 2.4-3.6 0s3.6-2.4 3.6 0M126.6 118.8c0 2.4-3.6 2.4-3.6 0s3.6-2.4 3.6 0M130.5 109.8c0 2.4-3.6 2.4-3.6 0s3.6-2.4 3.6 0M134.4 115.4c0 2.4-3.6 2.4-3.6 0s3.6-2.4 3.6 0M138.3 111c0 2.4-3.6 2.4-3.6 0s3.6-2.4 3.6 0M142.1 129.3c0 2.4-3.6 2.4-3.6 0s3.6-2.4 3.6 0M146 129.9c0 2.4-3.6 2.4-3.6 0s3.6-2.4 3.6 0M149.9 126.8c0 2.4-3.6 2.4-3.6 0s3.6-2.4 3.6 0M153.8 129.1c0 2.4-3.6 2.4-3.6 0s3.6-2.4 3.6 0M157.7 123.6c0 2.4-3.6 2.4-3.6 0s3.6-2.4 3.6 0M161.5 124.8c0 2.4-3.6 2.4-3.6 0s3.6-2.4 3.6 0M165.4 124.7c0 2.4-3.6 2.4-3.6 0s3.6-2.4 3.6 0M169.3 127.7c0 2.4-3.6 2.4-3.6 0s3.6-2.4 3.6 0M173.2 129.2c0 2.4-3.6 2.4-3.6 0s3.6-2.4 3.6 0M177 129c0 2.4-3.6 2.4-3.6 0s3.6-2.4 3.6 0M181 129.9c0 2.4-3.7 2.4-3.7 0s3.6-2.4 3.6 0M184.8 130c0 2.5-3.6 2.5-3.6 0 0-2.3 3.6-2.3 3.6 0M188.7 122.8c0 2.4-3.6 2.4-3.6 0s3.6-2.4 3.6 0M192.6 121.3c0 2.3-3.6 2.3-3.6 0 0-2.4 3.6-2.4 3.6 0M196.4 130.3c0 2.4-3.6 2.4-3.6 0s3.6-2.4 3.6 0M200.3 130.4c0 2.4-3.6 2.4-3.6 0s3.6-2.4 3.6 0M204.2 128.5c0 2.4-3.6 2.4-3.6 0s3.6-2.4 3.6 0M208 127c0 2.4-3.5 2.4-3.5 0s3.6-2.4 3.6 0M212 124.6c0 2.4-3.6 2.4-3.6 0s3.6-2.4 3.6 0M215.8 127.3c0 2.4-3.6 2.4-3.6 0s3.6-2.4 3.6 0M219.7 116c0 2.4-3.6 2.4-3.6 0s3.6-2.4 3.6 0M223.6 110.4c0 2.4-3.6 2.4-3.6 0s3.6-2.4 3.6 0M227.5 129.1c0 2.4-3.6 2.4-3.6 0s3.6-2.4 3.6 0M231.4 130.4c0 2.4-3.7 2.4-3.7 0s3.7-2.4 3.7 0M235.2 122.3c0 2.4-3.6 2.4-3.6 0s3.6-2.4 3.6 0M239.1 125.8c0 2.4-3.6 2.4-3.6 0s3.6-2.4 3.6 0M243 129c0 2.4-3.6 2.4-3.6 0s3.6-2.4 3.6 0M246.9 129.5c0 2.4-3.6 2.4-3.6 0s3.6-2.4 3.6 0M250.7 129.5c0 2.4-3.6 2.4-3.6 0s3.6-2.4 3.6 0M254.6 126.5c0 2.4-3.6 2.4-3.6 0s3.6-2.4 3.6 0M258.5 128.7c0 2.4-3.6 2.4-3.6 0s3.6-2.4 3.6 0M262.4 129.1c0 2.4-3.6 2.4-3.6 0s3.6-2.4 3.6 0M266.3 127.4c0 2.4-3.6 2.4-3.6 0s3.6-2.4 3.6 0M270.1 124.7c0 2.4-3.6 2.4-3.6 0s3.6-2.4 3.6 0M274 125.8c0 2.4-3.6 2.4-3.6 0s3.6-2.4 3.6 0M277.9 129.3c0 2.4-3.6 2.4-3.6 0s3.6-2.4 3.6 0M281.8 124c0 2.4-3.6 2.4-3.6 0s3.6-2.4 3.6 0M285.7 130.5c0 2.4-3.6 2.4-3.6 0s3.6-2.4 3.6 0M289.5 123.2c0 2.4-3.6 2.4-3.6 0s3.6-2.4 3.6 0M293.4 129c0 2.3-3.6 2.3-3.6 0 0-2.5 3.6-2.5 3.6 0M297.3 130.3c0 2.4-3.6 2.4-3.6 0s3.6-2.4 3.6 0M301.2 130.2c0 2.4-3.6 2.4-3.6 0s3.6-2.4 3.6 0M305 127.1c0 2.4-3.6 2.4-3.6 0s3.6-2.4 3.6 0M309 126.7c0 2.4-3.7 2.4-3.7 0s3.6-2.4 3.6 0M312.8 123.4c0 2.4-3.6 2.4-3.6 0s3.6-2.4 3.6 0M316.7 127.8c0 2.4-3.6 2.4-3.6 0s3.6-2.4 3.6 0M320.6 124.2c0 2.4-3.6 2.4-3.6 0s3.6-2.4 3.6 0M324.4 126.5c0 2.4-3.6 2.4-3.6 0s3.6-2.4 3.6 0M328.3 128c0 2.5-3.6 2.5-3.6 0 0-2.3 3.6-2.3 3.6 0M332.2 121c0 2.4-3.6 2.4-3.6 0s3.6-2.4 3.6 0M336 129.4c0 2.4-3.5 2.4-3.5 0s3.6-2.4 3.6 0M340 128.4c0 2.4-3.6 2.4-3.6 0s3.6-2.4 3.6 0M343.8 126.3c0 2.4-3.6 2.4-3.6 0s3.6-2.4 3.6 0M347.7 123.4c0 2.4-3.6 2.4-3.6 0s3.6-2.4 3.6 0M351.6 115.2c0 2.4-3.6 2.4-3.6 0s3.6-2.4 3.6 0M355.5 128c0 2.4-3.6 2.4-3.6 0s3.6-2.4 3.6 0M359.4 128c0 2.4-3.6 2.4-3.6 0s3.6-2.4 3.6 0M363.2 130.1c0 2.4-3.6 2.4-3.6 0s3.6-2.4 3.6 0M367.1 128.5c0 2.4-3.6 2.4-3.6 0s3.6-2.4 3.6 0M371 129.7c0 2.4-3.6 2.4-3.6 0s3.6-2.4 3.6 0M374.9 124c0 2.3-3.6 2.3-3.6 0 0-2.5 3.6-2.5 3.6 0M378.7 129.5c0 2.4-3.6 2.4-3.6 0s3.6-2.4 3.6 0M382.6 127.3c0 2.4-3.6 2.4-3.6 0s3.6-2.4 3.6 0M386.5 129.4c0 2.4-3.6 2.4-3.6 0s3.6-2.4 3.6 0M390.4 128.8c0 2.4-3.6 2.4-3.6 0s3.6-2.4 3.6 0M394.3 130.1c0 2.4-3.6 2.4-3.6 0s3.6-2.4 3.6 0M398.1 130c0 2.4-3.6 2.4-3.6 0s3.6-2.4 3.6 0M402 130.4c0 2.4-3.6 2.4-3.6 0s3.6-2.4 3.6 0M405.9 127.8c0 2.4-3.6 2.4-3.6 0s3.6-2.4 3.6 0M409.8 126c0 2.4-3.6 2.4-3.6 0s3.6-2.4 3.6 0M413.7 121.3c0 2.4-3.6 2.4-3.6 0s3.6-2.4 3.6 0M417.5 121c0 2.4-3.6 2.4-3.6 0s3.6-2.4 3.6 0M421.4 110c0 2.4-3.6 2.4-3.6 0s3.6-2.4 3.6 0M425.3 111.6c0 2.4-3.6 2.4-3.6 0s3.6-2.4 3.6 0M429.2 111.6c0 2.4-3.6 2.4-3.6 0s3.6-2.4 3.6 0M433 109.8c0 2.5-3.6 2.5-3.6 0 0-2.4 3.6-2.4 3.6 0M437 116.7c0 2.4-3.7 2.4-3.7 0s3.6-2.4 3.6 0M440.8 118.4c0 2.4-3.6 2.4-3.6 0s3.6-2.4 3.6 0M444.7 114.1c0 2.4-3.6 2.4-3.6 0s3.6-2.4 3.6 0M448.6 110.3c0 2.4-3.6 2.4-3.6 0s3.6-2.4 3.6 0M452.4 110.4c0 2.4-3.6 2.4-3.6 0s3.6-2.4 3.6 0M456.3 115c0 2.5-3.6 2.5-3.6 0 0-2.3 3.6-2.3 3.6 0M460.2 115.4c0 2.4-3.6 2.4-3.6 0s3.6-2.4 3.6 0" fill="#1f78b4" stroke-width=".8" stroke-linecap="round" stroke-linejoin="round" stroke="#1f78b4" stroke-miterlimit="10"/><path d="M76.2 108.3c0 2.4-3.6 2.4-3.6 0s3.6-2.4 3.6 0M80 101.2c0 2.4-3.5 2.4-3.5 0s3.6-2.4 3.6 0M84 105.4c0 2.4-3.6 2.4-3.6 0s3.6-2.4 3.6 0M87.8 104.6c0 2.4-3.6 2.4-3.6 0s3.6-2.4 3.6 0M91.7 103.3c0 2.4-3.6 2.4-3.6 0s3.6-2.4 3.6 0M95.6 91.3c0 2.4-3.6 2.4-3.6 0s3.6-2.4 3.6 0M99.5 90.3c0 2.4-3.6 2.4-3.6 0s3.6-2.4 3.6 0M103.4 89.3c0 2.4-3.7 2.4-3.7 0s3.7-2.4 3.7 0M107.2 90.3c0 2.4-3.6 2.4-3.6 0s3.6-2.4 3.6 0M111.1 92c0 2.5-3.6 2.5-3.6 0 0-2.3 3.6-2.3 3.6 0M115 90.7c0 2.4-3.6 2.4-3.6 0s3.6-2.4 3.6 0M118.9 90.9c0 2.4-3.6 2.4-3.6 0s3.6-2.4 3.6 0M122.7 88.8c0 2.4-3.6 2.4-3.6 0s3.6-2.4 3.6 0M126.6 103c0 2.4-3.6 2.4-3.6 0s3.6-2.4 3.6 0M130.5 105.8c0 2.4-3.6 2.4-3.6 0s3.6-2.4 3.6 0M134.4 105.4c0 2.4-3.6 2.4-3.6 0s3.6-2.4 3.6 0M138.3 102.8c0 2.4-3.6 2.4-3.6 0s3.6-2.4 3.6 0M142.1 106.8c0 2.4-3.6 2.4-3.6 0s3.6-2.4 3.6 0M146 108.7c0 2.4-3.6 2.4-3.6 0s3.6-2.4 3.6 0M149.9 102.5c0 2.4-3.6 2.4-3.6 0s3.6-2.4 3.6 0M153.8 107.6c0 2.4-3.6 2.4-3.6 0s3.6-2.4 3.6 0M157.7 109.3c0 2.4-3.6 2.4-3.6 0s3.6-2.4 3.6 0M161.5 101c0 2.3-3.6 2.3-3.6 0 0-2.5 3.6-2.5 3.6 0M165.4 105.7c0 2.4-3.6 2.4-3.6 0s3.6-2.4 3.6 0M169.3 104.7c0 2.4-3.6 2.4-3.6 0s3.6-2.4 3.6 0M173.2 99.5c0 2.4-3.6 2.4-3.6 0s3.6-2.4 3.6 0M177 90c0 2.5-3.6 2.5-3.6 0 0-2.3 3.6-2.3 3.6 0M181 89c0 2.5-3.7 2.5-3.7 0 0-2.3 3.6-2.3 3.6 0M184.8 90.6c0 2.4-3.6 2.4-3.6 0s3.6-2.4 3.6 0M188.7 91.2c0 2.4-3.6 2.4-3.6 0s3.6-2.4 3.6 0M192.6 89.5c0 2.4-3.6 2.4-3.6 0s3.6-2.4 3.6 0M196.4 90c0 2.4-3.6 2.4-3.6 0s3.6-2.4 3.6 0M200.3 90.6c0 2.4-3.6 2.4-3.6 0s3.6-2.4 3.6 0M204.2 90c0 2.5-3.6 2.5-3.6 0 0-2.3 3.6-2.3 3.6 0M208 90.1c0 2.4-3.5 2.4-3.5 0s3.6-2.4 3.6 0M212 93c0 2.4-3.6 2.4-3.6 0s3.6-2.4 3.6 0M215.8 107.5c0 2.4-3.6 2.4-3.6 0s3.6-2.4 3.6 0M219.7 109c0 2.5-3.6 2.5-3.6 0 0-2.3 3.6-2.3 3.6 0M223.6 108.9c0 2.4-3.6 2.4-3.6 0s3.6-2.4 3.6 0M227.5 106.8c0 2.4-3.6 2.4-3.6 0s3.6-2.4 3.6 0M231.4 107.4c0 2.4-3.7 2.4-3.7 0s3.7-2.4 3.7 0M235.2 108.9c0 2.4-3.6 2.4-3.6 0s3.6-2.4 3.6 0M239.1 107.2c0 2.4-3.6 2.4-3.6 0s3.6-2.4 3.6 0M243 103.9c0 2.4-3.6 2.4-3.6 0s3.6-2.4 3.6 0M246.9 102c0 2.5-3.6 2.5-3.6 0 0-2.3 3.6-2.3 3.6 0M250.7 108c0 2.4-3.6 2.4-3.6 0s3.6-2.4 3.6 0M254.6 109.1c0 2.4-3.6 2.4-3.6 0s3.6-2.4 3.6 0M258.5 100.6c0 2.4-3.6 2.4-3.6 0s3.6-2.4 3.6 0M262.4 105.5c0 2.4-3.6 2.4-3.6 0s3.6-2.4 3.6 0M266.3 108c0 2.4-3.6 2.4-3.6 0s3.6-2.4 3.6 0M270.1 103.3c0 2.4-3.6 2.4-3.6 0s3.6-2.4 3.6 0M274 107.2c0 2.4-3.6 2.4-3.6 0s3.6-2.4 3.6 0M277.9 108.5c0 2.4-3.6 2.4-3.6 0s3.6-2.4 3.6 0M281.8 105.8c0 2.4-3.6 2.4-3.6 0s3.6-2.4 3.6 0M285.7 107.8c0 2.4-3.6 2.4-3.6 0s3.6-2.4 3.6 0M289.5 108.6c0 2.4-3.6 2.4-3.6 0s3.6-2.4 3.6 0M293.4 104.3c0 2.4-3.6 2.4-3.6 0s3.6-2.4 3.6 0M297.3 106.7c0 2.4-3.6 2.4-3.6 0s3.6-2.4 3.6 0M301.2 109.4c0 2.4-3.6 2.4-3.6 0s3.6-2.4 3.6 0M305 89.5c0 2.4-3.6 2.4-3.6 0s3.6-2.4 3.6 0M309 93.1c0 2.4-3.7 2.4-3.7 0s3.6-2.4 3.6 0M312.8 91.8c0 2.4-3.6 2.4-3.6 0s3.6-2.4 3.6 0M316.7 91.9c0 2.4-3.6 2.4-3.6 0s3.6-2.4 3.6 0M320.6 92.4c0 2.4-3.6 2.4-3.6 0s3.6-2.4 3.6 0M324.4 96.9c0 2.4-3.6 2.4-3.6 0s3.6-2.4 3.6 0M328.3 105.5c0 2.4-3.6 2.4-3.6 0s3.6-2.4 3.6 0M332.2 105.4c0 2.4-3.6 2.4-3.6 0s3.6-2.4 3.6 0M336 100.6c0 2.4-3.5 2.4-3.5 0s3.6-2.4 3.6 0M340 102.8c0 2.4-3.6 2.4-3.6 0s3.6-2.4 3.6 0M343.8 102.8c0 2.4-3.6 2.4-3.6 0s3.6-2.4 3.6 0M347.7 104.2c0 2.4-3.6 2.4-3.6 0s3.6-2.4 3.6 0M351.6 102.7c0 2.4-3.6 2.4-3.6 0s3.6-2.4 3.6 0M355.5 104.3c0 2.4-3.6 2.4-3.6 0s3.6-2.4 3.6 0M359.4 107.6c0 2.4-3.6 2.4-3.6 0s3.6-2.4 3.6 0M363.2 98.3c0 2.4-3.6 2.4-3.6 0s3.6-2.4 3.6 0M367.1 109.1c0 2.4-3.6 2.4-3.6 0s3.6-2.4 3.6 0M371 105.9c0 2.4-3.6 2.4-3.6 0s3.6-2.4 3.6 0M374.9 109c0 2.4-3.6 2.4-3.6 0s3.6-2.4 3.6 0M378.7 95c0 2.4-3.6 2.4-3.6 0s3.6-2.4 3.6 0M382.6 89.5c0 2.4-3.6 2.4-3.6 0s3.6-2.4 3.6 0M386.5 94c0 2.3-3.6 2.3-3.6 0 0-2.5 3.6-2.5 3.6 0M390.4 90.4c0 2.4-3.6 2.4-3.6 0s3.6-2.4 3.6 0M394.3 90.4c0 2.4-3.6 2.4-3.6 0s3.6-2.4 3.6 0M398.1 109c0 2.4-3.6 2.4-3.6 0s3.6-2.4 3.6 0M402 105.5c0 2.4-3.6 2.4-3.6 0s3.6-2.4 3.6 0M405.9 101.9c0 2.4-3.6 2.4-3.6 0s3.6-2.4 3.6 0M409.8 108c0 2.5-3.6 2.5-3.6 0 0-2.3 3.6-2.3 3.6 0M413.7 106.6c0 2.4-3.6 2.4-3.6 0s3.6-2.4 3.6 0M417.5 109.2c0 2.4-3.6 2.4-3.6 0s3.6-2.4 3.6 0M421.4 108.7c0 2.4-3.6 2.4-3.6 0s3.6-2.4 3.6 0M425.3 89.6c0 2.4-3.6 2.4-3.6 0s3.6-2.4 3.6 0M429.2 107.9c0 2.4-3.6 2.4-3.6 0s3.6-2.4 3.6 0M433 109.5c0 2.4-3.6 2.4-3.6 0s3.6-2.4 3.6 0M437 103.7c0 2.4-3.7 2.4-3.7 0s3.6-2.4 3.6 0M440.8 101.2c0 2.4-3.6 2.4-3.6 0s3.6-2.4 3.6 0M444.7 99.4c0 2.4-3.6 2.4-3.6 0s3.6-2.4 3.6 0M448.6 107.7c0 2.4-3.6 2.4-3.6 0s3.6-2.4 3.6 0M452.4 107.6c0 2.4-3.6 2.4-3.6 0s3.6-2.4 3.6 0M456.3 105c0 2.3-3.6 2.3-3.6 0 0-2.5 3.6-2.5 3.6 0M460.2 98.8c0 2.4-3.6 2.4-3.6 0s3.6-2.4 3.6 0" fill="#b2df8a" stroke-width=".8" stroke-linecap="round" stroke-linejoin="round" stroke="#b2df8a" stroke-miterlimit="10"/><path d="M76.2 72.8c0 2.4-3.6 2.4-3.6 0s3.6-2.4 3.6 0M80 88.2c0 2.4-3.5 2.4-3.5 0s3.6-2.4 3.6 0M84 84.3c0 2.4-3.6 2.4-3.6 0s3.6-2.4 3.6 0M87.8 88.5c0 2.4-3.6 2.4-3.6 0s3.6-2.4 3.6 0M91.7 85.6c0 2.4-3.6 2.4-3.6 0s3.6-2.4 3.6 0M95.6 80.2c0 2.4-3.6 2.4-3.6 0s3.6-2.4 3.6 0M99.5 83.2c0 2.4-3.6 2.4-3.6 0s3.6-2.4 3.6 0M103.4 86.7c0 2.4-3.7 2.4-3.7 0s3.7-2.4 3.7 0M107.2 80.9c0 2.4-3.6 2.4-3.6 0s3.6-2.4 3.6 0M111.1 86.5c0 2.4-3.6 2.4-3.6 0s3.6-2.4 3.6 0M115 85.1c0 2.4-3.6 2.4-3.6 0s3.6-2.4 3.6 0M118.9 68.7c0 2.4-3.6 2.4-3.6 0s3.6-2.4 3.6 0M122.7 84.3c0 2.4-3.6 2.4-3.6 0s3.6-2.4 3.6 0M126.6 88c0 2.4-3.6 2.4-3.6 0s3.6-2.4 3.6 0M130.5 82.8c0 2.4-3.6 2.4-3.6 0s3.6-2.4 3.6 0M134.4 82.6c0 2.4-3.6 2.4-3.6 0s3.6-2.4 3.6 0M138.3 85.3c0 2.4-3.6 2.4-3.6 0s3.6-2.4 3.6 0M142.1 86c0 2.5-3.6 2.5-3.6 0 0-2.3 3.6-2.3 3.6 0M146 87.6c0 2.4-3.6 2.4-3.6 0s3.6-2.4 3.6 0M149.9 87.1c0 2.4-3.6 2.4-3.6 0s3.6-2.4 3.6 0M153.8 83.2c0 2.4-3.6 2.4-3.6 0s3.6-2.4 3.6 0M157.7 85.7c0 2.4-3.6 2.4-3.6 0s3.6-2.4 3.6 0M161.5 74.1c0 2.4-3.6 2.4-3.6 0s3.6-2.4 3.6 0M165.4 88c0 2.4-3.6 2.4-3.6 0s3.6-2.4 3.6 0M169.3 88.5c0 2.4-3.6 2.4-3.6 0s3.6-2.4 3.6 0M173.2 68c0 2.4-3.6 2.4-3.6 0s3.6-2.4 3.6 0M177 74.2c0 2.4-3.6 2.4-3.6 0s3.6-2.4 3.6 0M181 72.3c0 2.4-3.7 2.4-3.7 0s3.6-2.4 3.6 0M184.8 69.8c0 2.4-3.6 2.4-3.6 0s3.6-2.4 3.6 0M188.7 76.4c0 2.4-3.6 2.4-3.6 0s3.6-2.4 3.6 0M192.6 68c0 2.3-3.6 2.3-3.6 0 0-2.5 3.6-2.5 3.6 0M196.4 76c0 2.4-3.6 2.4-3.6 0s3.6-2.4 3.6 0M200.3 68.4c0 2.4-3.6 2.4-3.6 0s3.6-2.4 3.6 0M204.2 76.5c0 2.4-3.6 2.4-3.6 0s3.6-2.4 3.6 0M208 68.8c0 2.4-3.5 2.4-3.5 0s3.6-2.4 3.6 0M212 68.7c0 2.4-3.6 2.4-3.6 0s3.6-2.4 3.6 0M215.8 68.6c0 2.4-3.6 2.4-3.6 0s3.6-2.4 3.6 0M219.7 69.8c0 2.4-3.6 2.4-3.6 0s3.6-2.4 3.6 0M223.6 72.2c0 2.4-3.6 2.4-3.6 0s3.6-2.4 3.6 0M227.5 72c0 2.4-3.6 2.4-3.6 0s3.6-2.4 3.6 0M231.4 86.9c0 2.4-3.7 2.4-3.7 0s3.7-2.4 3.7 0M235.2 85.3c0 2.4-3.6 2.4-3.6 0s3.6-2.4 3.6 0M239.1 87.7c0 2.4-3.6 2.4-3.6 0s3.6-2.4 3.6 0M243 86.9c0 2.4-3.6 2.4-3.6 0s3.6-2.4 3.6 0M246.9 86.8c0 2.4-3.6 2.4-3.6 0s3.6-2.4 3.6 0M250.7 86.2c0 2.4-3.6 2.4-3.6 0s3.6-2.4 3.6 0M254.6 87c0 2.4-3.6 2.4-3.6 0s3.6-2.4 3.6 0M258.5 86.5c0 2.4-3.6 2.4-3.6 0s3.6-2.4 3.6 0M262.4 82.3c0 2.4-3.6 2.4-3.6 0s3.6-2.4 3.6 0M266.3 88c0 2.4-3.6 2.4-3.6 0s3.6-2.4 3.6 0M270.1 86.5c0 2.4-3.6 2.4-3.6 0s3.6-2.4 3.6 0M274 81.6c0 2.4-3.6 2.4-3.6 0s3.6-2.4 3.6 0M277.9 83.7c0 2.4-3.6 2.4-3.6 0s3.6-2.4 3.6 0M281.8 84.1c0 2.4-3.6 2.4-3.6 0s3.6-2.4 3.6 0M285.7 86.8c0 2.4-3.6 2.4-3.6 0s3.6-2.4 3.6 0M289.5 80c0 2.5-3.6 2.5-3.6 0 0-2.3 3.6-2.3 3.6 0M293.4 86.6c0 2.4-3.6 2.4-3.6 0s3.6-2.4 3.6 0M297.3 87.8c0 2.4-3.6 2.4-3.6 0s3.6-2.4 3.6 0M301.2 75c0 2.5-3.6 2.5-3.6 0 0-2.3 3.6-2.3 3.6 0M305 69c0 2.5-3.6 2.5-3.6 0 0-2.3 3.6-2.3 3.6 0M309 69c0 2.5-3.7 2.5-3.7 0 0-2.3 3.6-2.3 3.6 0M312.8 71.7c0 2.4-3.6 2.4-3.6 0s3.6-2.4 3.6 0M316.7 69.6c0 2.4-3.6 2.4-3.6 0s3.6-2.4 3.6 0M320.6 87.2c0 2.4-3.6 2.4-3.6 0s3.6-2.4 3.6 0M324.4 86c0 2.4-3.6 2.4-3.6 0s3.6-2.4 3.6 0M328.3 88c0 2.3-3.6 2.3-3.6 0 0-2.5 3.6-2.5 3.6 0M332.2 87.9c0 2.4-3.6 2.4-3.6 0s3.6-2.4 3.6 0M336 84.5c0 2.4-3.5 2.4-3.5 0s3.6-2.4 3.6 0M340 86.1c0 2.4-3.6 2.4-3.6 0s3.6-2.4 3.6 0M343.8 87.8c0 2.4-3.6 2.4-3.6 0s3.6-2.4 3.6 0M347.7 82.3c0 2.4-3.6 2.4-3.6 0s3.6-2.4 3.6 0M351.6 87.5c0 2.4-3.6 2.4-3.6 0s3.6-2.4 3.6 0M355.5 87.5c0 2.4-3.6 2.4-3.6 0s3.6-2.4 3.6 0M359.4 77c0 2.4-3.6 2.4-3.6 0s3.6-2.4 3.6 0M363.2 88.3c0 2.4-3.6 2.4-3.6 0s3.6-2.4 3.6 0M367.1 71.8c0 2.4-3.6 2.4-3.6 0s3.6-2.4 3.6 0M371 73c0 2.4-3.6 2.4-3.6 0s3.6-2.4 3.6 0M374.9 67.9c0 2.4-3.6 2.4-3.6 0s3.6-2.4 3.6 0M378.7 68.1c0 2.4-3.6 2.4-3.6 0s3.6-2.4 3.6 0M382.6 79.3c0 2.4-3.6 2.4-3.6 0s3.6-2.4 3.6 0M386.5 69.3c0 2.4-3.6 2.4-3.6 0s3.6-2.4 3.6 0M390.4 71.5c0 2.4-3.6 2.4-3.6 0s3.6-2.4 3.6 0M394.3 68.8c0 2.4-3.6 2.4-3.6 0s3.6-2.4 3.6 0M398.1 70.7c0 2.4-3.6 2.4-3.6 0s3.6-2.4 3.6 0M402 86.3c0 2.4-3.6 2.4-3.6 0s3.6-2.4 3.6 0M405.9 85c0 2.5-3.6 2.5-3.6 0 0-2.3 3.6-2.3 3.6 0M409.8 84.1c0 2.4-3.6 2.4-3.6 0s3.6-2.4 3.6 0M413.7 83.9c0 2.4-3.6 2.4-3.6 0s3.6-2.4 3.6 0M417.5 87.5c0 2.4-3.6 2.4-3.6 0s3.6-2.4 3.6 0M421.4 82.3c0 2.5-3.6 2.5-3.6 0 0-2.4 3.6-2.4 3.6 0M425.3 75.4c0 2.4-3.6 2.4-3.6 0s3.6-2.4 3.6 0M429.2 71.4c0 2.4-3.6 2.4-3.6 0s3.6-2.4 3.6 0M433 68.6c0 2.4-3.6 2.4-3.6 0s3.6-2.4 3.6 0M437 70.6c0 2.4-3.7 2.4-3.7 0s3.6-2.4 3.6 0M440.8 67.6c0 2.4-3.6 2.4-3.6 0s3.6-2.4 3.6 0M444.7 72.4c0 2.4-3.6 2.4-3.6 0s3.6-2.4 3.6 0M448.6 74.4c0 2.4-3.6 2.4-3.6 0s3.6-2.4 3.6 0M452.4 67.6c0 2.4-3.6 2.4-3.6 0s3.6-2.4 3.6 0M456.3 68.2c0 2.4-3.6 2.4-3.6 0s3.6-2.4 3.6 0M460.2 68.6c0 2.4-3.6 2.4-3.6 0s3.6-2.4 3.6 0" fill="#33a02c" stroke-width=".8" stroke-linecap="round" stroke-linejoin="round" stroke="#33a02c" stroke-miterlimit="10"/><g><use xlink:href="#o" x="116.4" y="34.7"/><use xlink:href="#p" x="128.4" y="34.7"/><use xlink:href="#q" x="137.2" y="34.7"/><use xlink:href="#r" x="141.2" y="34.7"/><use xlink:href="#s" x="146" y="34.7"/><use xlink:href="#t" x="150" y="34.7"/><use xlink:href="#q" x="158.8" y="34.7"/><use xlink:href="#u" x="162.8" y="34.7"/><use xlink:href="#v" x="170.8" y="34.7"/><use xlink:href="#w" x="174.8" y="34.7"/><use xlink:href="#x" x="183.6" y="34.7"/><use xlink:href="#y" x="189.2" y="34.7"/><use xlink:href="#z" x="197.2" y="34.7"/><use xlink:href="#A" x="208.4" y="34.7"/><use xlink:href="#v" x="216.4" y="34.7"/><use xlink:href="#B" x="220.4" y="34.7"/><use xlink:href="#x" x="225.2" y="34.7"/><use xlink:href="#C" x="230.8" y="34.7"/><use xlink:href="#D" x="239.6" y="34.7"/><use xlink:href="#v" x="252.4" y="34.7"/><use xlink:href="#y" x="256.4" y="34.7"/><use xlink:href="#v" x="264.4" y="34.7"/><use xlink:href="#E" x="268.4" y="34.7"/><use xlink:href="#s" x="277.2" y="34.7"/><use xlink:href="#w" x="281.2" y="34.7"/><use xlink:href="#w" x="290" y="34.7"/><use xlink:href="#u" x="298.8" y="34.7"/><use xlink:href="#F" x="306.8" y="34.7"/><use xlink:href="#v" x="315.6" y="34.7"/><use xlink:href="#o" x="319.6" y="34.7"/><use xlink:href="#y" x="331.6" y="34.7"/><use xlink:href="#x" x="339.6" y="34.7"/><use xlink:href="#G" x="345.2" y="34.7"/><use xlink:href="#C" x="353.2" y="34.7"/><use xlink:href="#H" x="362" y="34.7"/><use xlink:href="#v" x="370" y="34.7"/><use xlink:href="#D" x="374" y="34.7"/><use xlink:href="#C" x="386.8" y="34.7"/><use xlink:href="#w" x="395.6" y="34.7"/><use xlink:href="#u" x="404.4" y="34.7"/><use xlink:href="#q" x="412.4" y="34.7"/></g></svg>