<svg xmlns="http://www.w3.org/2000/svg" xmlns:xlink="http://www.w3.org/1999/xlink" viewBox="0 0 504 360"><defs><symbol overflow="visible" id="q"><path d="M6 0v-1.1l-1.1 1-1.4.3C3 .2 2.5 0 2-.2a2 2 0 01-.8-.9A4 4 0 011-2.7v-4.8h2V-2l.5.6.7.2 1-.3.5-.7.1-2v-3.2h2V0zm0 0"/></symbol><symbol overflow="visible" id="a"><path d="M.5-4.2c0-1 .1-1.9.3-2.5a3 3 0 011-1.4c.3-.4.9-.5 1.5-.5.5 0 .9 0 1.2.3.4.1.6.4.9.8l.5 1.2.2 2a8 8 0 01-.3 2.5c-.2.6-.5 1.1-1 1.4-.4.4-.9.5-1.5.5-.8 0-1.5-.2-2-.8-.5-.8-.8-2-.8-3.5zm1 0c0 1.4.2 2.3.6 2.8.3.5.7.7 1.2.7s.9-.2 1.2-.7c.3-.5.5-1.4.5-2.8s-.2-2.4-.5-2.9c-.3-.4-.7-.6-1.2-.7-.5 0-.9.3-1.2.7-.3.5-.5 1.5-.5 2.9zm0 0"/></symbol><symbol overflow="visible" id="c"><path d="M6-1v1H.4v-.7L1.3-2l1.4-1.3A12 12 0 004.5-5c.3-.4.4-.9.4-1.3s-.1-.7-.4-1c-.3-.3-.7-.4-1.2-.5-.5 0-.9.2-1.2.5-.3.3-.5.7-.5 1.3l-1-.1c0-.8.3-1.5.8-1.9.5-.4 1.1-.6 2-.6.8 0 1.4.2 2 .7.4.4.6 1 .6 1.7 0 .3 0 .6-.2 1a4 4 0 01-.7 1c-.3.4-.8.9-1.6 1.5A20.2 20.2 0 001.8-1zm0 0"/></symbol><symbol overflow="visible" id="d"><path d="M.5-2.3l1-.1c.2.6.4 1 .7 1.3.3.3.6.4 1 .4.5 0 1-.2 1.3-.5.3-.4.5-.8.5-1.3s-.2-.9-.5-1.2c-.3-.3-.7-.5-1.2-.5a3 3 0 00-.7.1l.1-.9h.2L4-5.3c.3-.3.5-.6.5-1.1 0-.4-.1-.7-.4-1-.2-.2-.6-.4-1-.4s-.7.2-1 .4a2 2 0 00-.5 1.2l-1-.2c0-.7.3-1.3.8-1.6.4-.4 1-.6 1.7-.6.5 0 .9 0 1.3.3.4.2.7.5.9.8.2.4.3.7.3 1.1 0 .4 0 .7-.3 1a2 2 0 01-.9.7c.5.2 1 .4 1.2.8.3.4.4.8.4 1.4 0 .7-.2 1.4-.8 1.9-.5.5-1.2.8-2 .8s-1.5-.3-2-.7C1-1 .7-1.5.6-2.3zm0 0"/></symbol><symbol overflow="visible" id="e"><path d="M3.9 0v-2H.2v-1L4-8.6h.8V-3h1.2v1H4.9v2zm0-3V-7L1.2-3zm0 0"/></symbol><symbol overflow="visible" id="f"><path d="M.5-2.3h1.1c0 .5.3.9.6 1.2.3.2.6.4 1 .4.6 0 1-.2 1.3-.6.4-.4.6-.9.6-1.5s-.2-1-.5-1.4c-.4-.4-.8-.6-1.4-.6l-.9.3c-.3.1-.5.3-.6.6l-1-.2.8-4.4h4.3v1H2.4l-.5 2.3c.5-.3 1-.5 1.6-.5.8 0 1.4.3 2 .8.4.5.7 1.2.7 2S6-1.5 5.5-1C5-.2 4.2.1 3.3.1c-.8 0-1.5-.2-2-.6-.5-.4-.7-1-.8-1.8zm0 0"/></symbol><symbol overflow="visible" id="n"><path d="M0 0l2.4-3.2-2.1-3h1.3l1 1.4.4.7.4-.7 1-1.4h1.3l-2.1 3L5.9 0H4.6L3.3-2 3-2.4 1.4 0zm0 0"/></symbol><symbol overflow="visible" id="g"><path d="M-4.2-.5c-1 0-1.9-.1-2.5-.3a3 3 0 01-1.4-1c-.4-.4-.5-.9-.5-1.5 0-.5 0-.9.3-1.2.1-.4.4-.6.8-.9l1.2-.5 2-.2c1 0 1.9.1 2.5.3.6.2 1.1.5 1.4 1 .4.4.5.9.5 1.5 0 .8-.2 1.5-.8 2-.8.5-2 .8-3.5.8zm0-1c1.4 0 2.3-.2 2.8-.6.5-.3.7-.7.7-1.2s-.2-.9-.7-1.2C-2-4.8-2.8-5-4.2-5s-2.4.2-2.9.5c-.4.3-.6.7-.7 1.2 0 .5.3.9.7 1.2.5.3 1.5.5 2.9.5zm0 0"/></symbol><symbol overflow="visible" id="h"><path d="M0-1h-1.2v-1.3H0zm0 0"/></symbol><symbol overflow="visible" id="i"><path d="M-1-6h1v5.6h-.7L-2-1.3l-1.3-1.4A12 12 0 00-5-4.5c-.4-.3-.9-.4-1.3-.4s-.7.1-1 .4c-.3.3-.4.7-.5 1.2 0 .5.2.9.5 1.2.3.3.7.5 1.3.5l-.1 1C-7-.6-7.6-.9-8-1.4c-.4-.5-.6-1.1-.6-2 0-.8.2-1.4.7-2 .4-.4 1-.6 1.7-.6.3 0 .6 0 1 .2l1 .7c.4.3.9.8 1.5 1.6A20.2 20.2 0 00-1-1.8zm0 0"/></symbol><symbol overflow="visible" id="j"><path d="M0-3.9h-2v3.7h-1L-8.6-4v-.8H-3v-1.2h1v1.2h2zm-3 0H-7L-3-1.2zm0 0"/></symbol><symbol overflow="visible" id="k"><path d="M-6.5-6v1a2 2 0 00-.8.5c-.3.3-.5.6-.5 1s.1.7.3 1l1 .7c.6.2 1.2.3 2 .3a2.5 2.5 0 01-.3-3.9c.5-.5 1.2-.7 2-.7l1.5.3A2.5 2.5 0 01.1-3.4c0 .8-.3 1.6-1 2.1-.6.6-1.6.9-3.1.8-1.7 0-2.9-.3-3.6-.9-.7-.5-1-1.2-1-2.1 0-.7.2-1.3.5-1.7.4-.4 1-.7 1.6-.8zm3.7 4.3c.4 0 .7 0 1-.2.4-.1.6-.4.8-.6a1.5 1.5 0 00-.3-2C-1.6-5-2-5-2.7-5a2 2 0 00-1.4.4c-.4.3-.5.7-.5 1.2s.1 1 .5 1.2c.3.4.8.5 1.3.5zm0 0"/></symbol><symbol overflow="visible" id="l"><path d="M-4.7-2.1a2 2 0 01-.6 1c-.3.2-.7.3-1.1.3A2 2 0 01-8-1.5c-.4-.5-.6-1-.6-1.8 0-.7.2-1.4.6-1.8.5-.5 1-.7 1.6-.7.4 0 .8.1 1 .3.4.2.6.5.7 1 .2-.6.5-1 .9-1.2.4-.3.8-.4 1.3-.4.8 0 1.4.2 1.9.7.5.6.7 1.2.7 2 0 1-.2 1.6-.7 2.1-.5.6-1.1.8-1.9.8-.5 0-1-.1-1.4-.4-.4-.3-.6-.7-.8-1.2zm-1.7.2c.4 0 .7-.1 1-.4.2-.3.3-.6.3-1s0-.8-.3-1c-.3-.3-.6-.4-1-.4s-.7.1-1 .4c-.2.3-.4.6-.4 1s.2.7.4 1c.3.3.6.4 1 .4zm4 .3c.2 0 .5 0 .8-.2.3-.1.5-.3.7-.6l.2-1c0-.4-.2-.8-.5-1.2-.3-.3-.7-.5-1.2-.5s-1 .2-1.3.5c-.3.4-.5.8-.5 1.3s.2 1 .5 1.2c.3.4.7.5 1.2.5zm0 0"/></symbol><symbol overflow="visible" id="m"><path d="M0-4.5v1h-6.7l.7 1 .6 1.2h-1l-1-1.6a4 4 0 00-1.2-.9v-.7zm0 0"/></symbol><symbol overflow="visible" id="o"><path d="M0-1h-5.4v.9h-.8v-1H-8l-.6-.6a2 2 0 01-.2-1v-1l1 .1v.6l.1.7.8.2h.6v-1.2h.8v1.2H0zm0 0"/></symbol><symbol overflow="visible" id="p"><path d="M1 0v-10.3h3.1l1.9 7 1.9-7h3V0H9v-8.1L7 0H5L3-8.1V0zm0 0"/></symbol><symbol overflow="visible" id="b"><path d="M4.5 0h-1v-6.7l-1 .7a7 7 0 01-1.2.6v-1l1.6-1a4 4 0 00.9-1.2h.7zm0 0"/></symbol><symbol overflow="visible" id="r"><path d="M1 0v-10.3h2V0zm0 0"/></symbol><symbol overflow="visible" id="s"><path d="M4.5-7.5v1.6H3v4c0 .2.1.3.2.3l.4.1c.1 0 .4 0 .7-.2L4.6 0a4 4 0 01-1.5.3c-.4 0-.7 0-1-.2-.3-.1-.5-.3-.6-.5-.2-.2-.3-.4-.3-.7V-6h-1v-1.6h1v-1.4l2-1.2v2.6zm0 0"/></symbol><symbol overflow="visible" id="t"><path d="M1-8.5v-1.8h2v1.8zM1 0v-7.5h2V0zm0 0"/></symbol><symbol overflow="visible" id="u"><path d="M1-7.5h1.8v1.1a2.8 2.8 0 012.3-1.2c1 0 1.6.3 2.3 1 .6.7.9 1.6.9 2.8 0 1.3-.3 2.2-1 3A2.9 2.9 0 014-.2c-.3-.1-.7-.4-1-.8v3.7H1zm2 3.6C3-3 3-2.4 3.3-2c.4.4.8.6 1.2.6.5 0 .9-.2 1.2-.5.3-.4.4-1 .5-1.9 0-.7-.2-1.3-.5-1.7-.3-.4-.7-.6-1.2-.6s-.9.2-1.2.6c-.3.4-.5 1-.5 1.6zm0 0"/></symbol><symbol overflow="visible" id="v"><path d="M5.4-2.4l2 .4C7-1.3 6.6-.8 6-.4c-.5.4-1.2.6-2 .6-1.3 0-2.3-.5-2.9-1.3C.7-1.8.5-2.6.5-3.7c0-1.2.3-2.2 1-2.9.6-.7 1.4-1 2.4-1s2 .3 2.6 1c.6.8 1 2 1 3.4h-5c0 .6.2 1 .5 1.4.3.3.6.5 1.1.5.3 0 .6 0 .8-.3.2-.1.3-.4.5-.8zm0-2c0-.5 0-1-.4-1.3C4.7-6 4.4-6 4-6s-.8.1-1 .4c-.4.4-.5.8-.5 1.3zm0 0"/></symbol><symbol overflow="visible" id="x"><path d="M7.9 0H6v-1.1A3 3 0 013.7.2c-.8 0-1.6-.4-2.2-1-.6-.8-1-1.7-1-3C.6-5 1-6 1.6-6.6a3 3 0 014.4 0v-3.7h2zM2.6-3.9c0 .8.1 1.4.3 1.7.4.6.8.8 1.4.8.4 0 .8-.2 1.1-.6.3-.4.5-1 .5-1.7 0-.9-.1-1.5-.5-1.9-.3-.3-.7-.5-1.1-.5-.5 0-.9.2-1.2.5-.3.4-.5 1-.5 1.7zm0 0"/></symbol><symbol overflow="visible" id="y"><path d="M3 0H1v-7.5h1.8v1l.8-.9c.3-.2.6-.2.9-.2.4 0 .9 0 1.3.3l-.6 1.8c-.4-.3-.7-.4-1-.4-.2 0-.5.1-.7.3-.2.1-.3.4-.4.8-.1.4-.2 1.2-.2 2.5zm0 0"/></symbol><symbol overflow="visible" id="z"><path d="M2.5-5.2L.7-5.5c.2-.7.6-1.3 1-1.6.6-.4 1.3-.5 2.3-.5.8 0 1.5 0 2 .3l.8.8c.2.3.3.9.3 1.7V-1l.4 1h-2a5.3 5.3 0 01-.2-.8l-1 .7L3 .2C2.2.2 1.6 0 1.2-.5A2 2 0 01.5-2c0-.5.1-.8.3-1.2.2-.3.5-.5.9-.7.3-.2.8-.4 1.5-.5l2-.5V-5c0-.3-.1-.6-.3-.8l-1-.2c-.4 0-.7 0-1 .2l-.4.7zm2.7 1.6l-1.3.3-1 .4c-.3.1-.4.4-.4.7 0 .2 0 .5.3.7.2.2.5.3.8.3.3 0 .7-.1 1-.4l.5-.6v-1zm0 0"/></symbol><symbol overflow="visible" id="A"><path d="M2.4 0L.1-7.5H2l1.4 5 1.3-5h1.9l1.2 5 1.4-5h2L8.8 0H6.9L5.6-4.8 4.3 0zm0 0"/></symbol><symbol overflow="visible" id="B"><path d="M.3-2.1l2-.3c.1.4.3.6.5.8.3.2.6.3 1.1.3.5 0 1 0 1.2-.2l.2-.6-.1-.3-.7-.3C3-3 2-3.4 1.5-3.7.9-4 .6-4.7.6-5.3c0-.7.3-1.2.8-1.7.5-.4 1.3-.6 2.4-.6 1 0 1.7.1 2.2.5.5.3.9.8 1 1.4l-1.8.4c0-.3-.2-.5-.5-.7l-1-.2c-.4 0-.8 0-1 .2-.2.1-.3.2-.3.4l.2.4 1.9.5c1 .3 1.8.6 2.2.9.4.4.6.8.6 1.5S7-1.1 6.5-.6C5.9 0 5 .2 3.9.2 3 .2 2.1 0 1.5-.4.9-1 .5-1.4.3-2.1zm0 0"/></symbol><symbol overflow="visible" id="C"><path d="M.2-7.5h1V-8c0-.7.1-1.1.3-1.4.1-.3.3-.6.7-.8a3 3 0 011.4-.3l1.6.3L5-9a4 4 0 00-.9 0l-.6.1-.2.8v.5h1.5v1.6H3.2V0h-2v-6h-1zm0 0"/></symbol><symbol overflow="visible" id="D"><path d="M.6-3.8c0-.7.1-1.3.5-2 .3-.6.7-1 1.3-1.3.6-.4 1.3-.5 2-.5 1.2 0 2 .3 2.8 1 .7.8 1 1.7 1 2.8 0 1.2-.3 2.1-1 2.9-.7.7-1.7 1-2.8 1-.7 0-1.3 0-2-.4-.5-.3-1-.8-1.3-1.4C.7-2.3.6-3 .6-3.8zm2 0c0 .8.2 1.4.5 1.8.4.4.8.6 1.3.6s1-.2 1.3-.6c.4-.4.5-1 .5-1.7 0-.8-.1-1.3-.5-1.7C5.4-5.8 5-6 4.4-6s-1 .2-1.3.6c-.3.4-.5 1-.5 1.7zm0 0"/></symbol><symbol overflow="visible" id="E"><path d="M.9-7.5h1.8v1A3 3 0 015-7.5c.5 0 1 0 1.3.3.3.2.6.5.8.9l1.1-1 1.2-.2c.6 0 1 0 1.4.3.4.2.7.5.9 1l.2 1.5V0h-2v-4.3c0-.7 0-1.2-.2-1.4a1 1 0 00-.9-.4 1.4 1.4 0 00-1.3 1l-.1 1.5V0h-2v-4l-.1-1.5A1 1 0 005-6a1 1 0 00-.6-.1c-.3 0-.6 0-.9.2l-.5.7A5 5 0 003-3.6V0h-2zm0 0"/></symbol><symbol overflow="visible" id="F"><path d="M5.8-3.8v-1.7h4.5v4c-.4.5-1 .9-1.9 1.2A7 7 0 016 .2C5 .2 4 0 3.1-.5a4.3 4.3 0 01-1.8-2C.9-3.2.7-4.1.7-5.1c0-1 .2-2 .7-2.9.4-.8 1-1.4 2-1.9.6-.3 1.4-.5 2.4-.5a5 5 0 013 .8c.7.6 1.2 1.3 1.4 2.2l-2 .4c-.2-.5-.5-.9-.9-1.2-.4-.3-.9-.4-1.5-.4-1 0-1.6.3-2.2.9-.5.5-.8 1.4-.8 2.5 0 1.3.3 2.2.8 2.8.6.6 1.3.9 2.2.9.4 0 .9 0 1.3-.3.4-.1.8-.3 1.1-.6v-1.3zm0 0"/></symbol><symbol overflow="visible" id="G"><path d="M7.8 0h-2v-3.8-1.6l-.5-.5c-.2-.2-.4-.2-.7-.2-.3 0-.6 0-.9.3-.3.1-.5.4-.6.7L3-3.4V0H1v-7.5H3v1.1a3 3 0 013.6-1l.8.6.4.8.1 1.4zm0 0"/></symbol><symbol overflow="visible" id="H"><path d="M7.5-5.3l-1.9.4c0-.4-.2-.7-.5-.9C5-6 4.6-6 4.2-6c-.5 0-.8.2-1.1.5-.3.4-.5 1-.5 1.7 0 1 .2 1.5.5 2 .3.3.7.5 1.2.5.3 0 .7-.1.9-.4.2-.2.4-.5.5-1l2 .3c-.3.9-.6 1.5-1.2 2-.6.4-1.4.7-2.3.7-1.1 0-2-.4-2.6-1a4 4 0 01-1-3 4 4 0 011-2.8c.6-.7 1.5-1 2.6-1 1 0 1.6.2 2.2.6.5.3.9 1 1.1 1.7zm0 0"/></symbol></defs><path fill="#fff" d="M0 0h504v360H0z"/><path d="M74.4 250.7l3.9-.6 3.9-1.5 3.8-2.4 4-3.6 3.8-4.9 3.9-6.4 3.9-7.9 3.8-9.4 4-10.6 3.8-11.4 3.9-11.7 3.8-11.4 4-10.8 3.8-10 3.9-9.3 3.9-8.3 3.8-7.6 4-6.9 3.8-6.3 3.9-5.8 3.9-5.2 3.8-4.5 4-4 3.8-3.4 3.9-2.7 3.8-2.3 4-1.8 3.8-1.3 3.9-1 3.9-.7 3.8-.4 4-.2h3.8l3.9.1 3.9.3 3.8.5 4 .6 3.8.7 3.9.8 3.9.8 3.8.9 4 .8 3.8.7 3.9.5 3.8.3 4-.1 3.8-.5 3.9-.8 3.9-1.3 3.8-1.4 4-1.6L276 76l3.9-1.5 3.9-1.3 3.8-1 4-.8 3.8-.5 3.9-.4 3.9-.1h3.8l4 .3 3.8.5 3.9 1 3.8 1.6 4 2.7 3.8 4.2 3.9 6.6 3.9 9.7 3.8 13.1 4 16 3.8 17.3 3.9 16.3 3.9 13.3 3.8 9.5 4 5.2 3.8 1.3 3.9-2.5 3.8-5.7 4-8.3 3.8-9.8 3.9-10.4 3.9-9.7 3.8-8 4-6 3.8-3.6 3.9-1 3.9 1.8 3.8 4.7 4 7.8 3.8 11 3.9 14.1 3.9 16.2 3.8 16.8 4 15.7 3.8 13.4 3.9 10.4 3.8 7.4 4 4.7 3.8 2.4" fill="none" stroke-width="1.5" stroke-linecap="round" stroke-linejoin="round" stroke="#a6cee3" stroke-miterlimit="10"/><path d="M74.4 286.6h384M74.4 286.6v7.2M151.2 286.6v7.2M228 286.6v7.2M304.8 286.6v7.2M381.6 286.6v7.2M458.4 286.6v7.2" fill="none" stroke-width=".8" stroke-linecap="round" stroke-linejoin="round" stroke="#000" stroke-miterlimit="10"/><use xlink:href="#a" x="71.1" y="312.5"/><use xlink:href="#b" x="147.9" y="312.5"/><use xlink:href="#c" x="224.7" y="312.5"/><use xlink:href="#d" x="301.5" y="312.5"/><use xlink:href="#e" x="378.3" y="312.5"/><use xlink:href="#f" x="455.1" y="312.5"/><path d="M59 278.1V67.5M59 278.1h-7.2M59 236h-7.2M59 193.9h-7.2M59 151.7h-7.2M59 109.6h-7.2M59 67.5h-7.2" fill="none" stroke-width=".8" stroke-linecap="round" stroke-linejoin="round" stroke="#000" stroke-miterlimit="10"/><use xlink:href="#g" x="41.8" y="286.5"/><use xlink:href="#h" x="41.8" y="279.8"/><use xlink:href="#g" x="41.8" y="276.5"/><use xlink:href="#g" x="41.8" y="244.3"/><use xlink:href="#h" x="41.8" y="237.7"/><use xlink:href="#i" x="41.8" y="234.3"/><use xlink:href="#g" x="41.8" y="202.2"/><use xlink:href="#h" x="41.8" y="195.5"/><use xlink:href="#j" x="41.8" y="192.2"/><use xlink:href="#g" x="41.8" y="160.1"/><use xlink:href="#h" x="41.8" y="153.4"/><use xlink:href="#k" x="41.8" y="150.1"/><use xlink:href="#g" x="41.8" y="117.9"/><use xlink:href="#h" x="41.8" y="111.3"/><use xlink:href="#l" x="41.8" y="107.9"/><use xlink:href="#m" x="41.8" y="75.8"/><use xlink:href="#h" x="41.8" y="69.1"/><use xlink:href="#g" x="41.8" y="65.8"/><path d="M59 286.6h414.8V59H59v227.6" fill="none" stroke-width=".8" stroke-linecap="round" stroke-linejoin="round" stroke="#000" stroke-miterlimit="10"/><path d="M74.4 120.2l3.9-19 3.9-12 3.8-7 4-4.1 3.8-2.3 3.9-1.3 3.9-.5h3.8l4 .6 3.8 1 3.9 1.7 3.8 2.3 4 3 3.8 3.6 3.9 4 3.9 4.3 3.8 3.8 4 3 3.8 2 3.9.3 3.9-1 3.8-2.4 4-3.2 3.8-3.7 3.9-3.8 3.8-3.4 4-3 3.8-2.4 3.9-1.9 3.9-1.4 3.8-1 4-.5 3.8-.2 3.9.1 3.9.4 3.8.8 4 1 3.8 1.6 3.9 1.9 3.9 2.3 3.8 2.9 4 3.3 3.8 4 3.9 4.3 3.8 5 4 5.7 3.8 6.4 3.9 7.2 3.9 8.3 3.8 9.4 4 10.5L276 162l3.9 11.7 3.9 11.8 3.8 11 4 10 3.8 8.4 3.9 6.6 3.9 5 3.8 3.2 4 1.8 3.8.3 3.9-.8 3.8-2 4-2.7 3.8-3.4 3.9-3.9 3.9-4 3.8-4 4-3.8 3.8-3.6 3.9-3.7 3.9-4 3.8-4.6 4-5.7 3.8-7.3 3.9-9 3.8-11.1 4-12.7 3.8-13.6 3.9-13.3 3.9-12 3.8-10 4-7.7 3.8-5.6 3.9-3.8 3.9-2.6 3.8-1.5 4-1 3.8-.2 3.9.1 3.9.8 3.8 1.4 4 2.3 3.8 3.5 3.9 5.2 3.8 7.4 4 9.9 3.8 12.3" fill="none" stroke-width="1.5" stroke-linecap="round" stroke-linejoin="round" stroke="#1f78b4" stroke-miterlimit="10"/><path d="M74.4 258.6l3.9-6 3.9-8.7 3.8-12 4-14.5 3.8-15.6 3.9-14.8 3.9-12 3.8-8.2 4-4 3.8.2 3.9 4 3.8 7.1 4 9.8 3.8 11.3 3.9 11.8 3.9 11.3 3.8 10.2 4 8.6 3.8 7.2 3.9 5.9 3.9 4.8 3.8 4 4 3.3 3.8 2.7 3.9 2.3 3.8 1.9 4 1.6 3.8 1.2 3.9 1 3.9.6 3.8.5 4 .4 3.8.1h3.9l3.9-.1 3.8-.3 4-.5 3.8-.8 3.9-1 3.9-1.4 3.8-2 4-2.3 3.8-3 3.9-3.7 3.8-4.2 4-4.7 3.8-4.9 3.9-4.9 3.9-4.7 3.8-4.2 4-3.8 3.8-3 3.9-2.6 3.9-2 3.8-1.7 4-1.4 3.8-1.3 3.9-1.1 3.9-1 3.8-1.1 4-1 3.8-1 3.9-1 3.8-1 4-1.3 3.8-1.5 3.9-2 3.9-2.4 3.8-3 4-3.6 3.8-4.2 3.9-4.6 3.9-4.7 3.8-4.7 4-4.2 3.8-3.7 3.9-2.8 3.8-2 4-1 3.8-.4 3.9.2 3.9.4 3.8.4 4 .2 3.8-.3 3.9-.8 3.9-1.2 3.8-1.6 4-1.6 3.8-1.5 3.9-1 3.9-.1 3.8 1 4 2 3.8 3.6 3.9 5 3.8 6 4 6.8 3.8 7.2" fill="none" stroke-width="1.5" stroke-linecap="round" stroke-linejoin="round" stroke="#b2df8a" stroke-miterlimit="10"/><path d="M74.4 87.5l3.9 1.5 3.9 2.3 3.8 3.1 4 4 3.8 5 3.9 5.9 3.9 6.7 3.8 7.3 4 7.6 3.8 7.6 3.9 7.2 3.8 6.7 4 6 3.8 5.3 3.9 4.6 3.9 3.8 3.8 3.4 4 2.8 3.8 2.5 3.9 2.1 3.9 1.8 3.8 1.6 4 1.3 3.8 1.1 3.9 1 3.8 1 4 1.1 3.8 1.4 3.9 1.9 3.9 2.3 3.8 3 4 3.4 3.8 4 3.9 4 3.9 4 3.8 3.5 4 3 3.8 2 3.9.9 3.9-.4 3.8-1.9 4-3.5 3.8-5.4 3.9-7.3 3.8-9.4 4-11.2 3.8-12.5 3.9-13 3.9-12.4 3.8-11.2 4-9.3 3.8-7.2 3.9-5 3.9-2.8 3.8-.8 4 1.3 3.8 3.2 3.9 5.5 3.9 7.7 3.8 9.8 4 11.6 3.8 12.4 3.9 12.3 3.8 11 4 9.2 3.8 6.6 3.9 4 3.9 1.4 3.8-1 4-3.3 3.8-5 3.9-6.5 3.9-7.1 3.8-7 4-6 3.8-4.3 3.9-2 3.8.5 4 3.2 3.8 5.8 3.9 8 3.9 9.8 3.8 10.6 4 10.4 3.8 9.4 3.9 7.9 3.9 6.1 3.8 4.4 4 2.8 3.8 1.3h3.9l3.9-1.4 3.8-2.5 4-3.6 3.8-4.6 3.9-5.4 3.8-5.7 4-5.8 3.8-5.3" fill="none" stroke-width="1.5" stroke-linecap="round" stroke-linejoin="round" stroke="#33a02c" stroke-miterlimit="10"/><path d="M74.4 265.6l3.9 2.1 3.9 1.5 3.8 1 4 .7 3.8.4h7.8l3.8-.5 4-.6 3.8-1 3.9-1.2 3.8-1.7 4-2.1 3.8-2.8 3.9-3.4 3.9-4.2 3.8-4.8 4-5.4 3.8-5.6 3.9-5.2 3.9-4.3 3.8-3 4-1 3.8 1.2 3.9 3.3 3.8 5 4 6.4 3.8 6.8 3.9 6.7 3.9 5.8 3.8 4.8 4 3.7 3.8 2.7 3.9 1.9 3.9 1.2 3.8 1 4 .5 3.8.4 3.9.2h3.9l3.8.1h4l3.8-.2 3.9-.2 3.8-.2 4-.4 3.8-.3 3.9-.4 3.9-.4 3.8-.5 4-.5 3.8-.5 3.9-.6 3.9-.7 3.8-.8 4-1 3.8-1.2 3.9-1.4 3.9-1.7 3.8-2 4-2.1 3.8-2.3 3.9-2.3 3.8-2 4-1.7 3.8-1 3.9-.5 3.9.2 3.8.8 4 1.3 3.8 1.6 3.9 1.8 3.9 1.8 3.8 1.8 4 1.6 3.8 1.4 3.9 1.1 3.8 1 4 .6 3.8.2h3.9l3.9-.5 3.8-1 4-1.4 3.8-2.1 3.9-3 3.9-3.7 3.8-4.5 4-5.2 3.8-5.3 3.9-5.1 3.9-4.3 3.8-3.2 4-2 3.8-.6 3.9.3 7.7 1.5 3.9.3" fill="none" stroke-width="1.5" stroke-linecap="round" stroke-linejoin="round" stroke="#fb9a99" stroke-miterlimit="10"/><path d="M74.4 111.6l3.9-10.7 3.9-8.9 3.8-6.6 4-4.6 3.8-3 3.9-1.9 3.9-1 3.8-.5h4l3.8.6 3.9 1 3.8 1.3 4 2 3.8 2.2 3.9 2.5 3.9 2.5 3.8 2.3 4 1.7 3.8 1.1 3.9.4 3.9-.2 3.8-.7 4-1 3.8-1 3.9-.8 3.8-.5 4-.1 3.8.4 3.9 1.2 3.9 2 3.8 3.3 4 4.7 3.8 6.5 3.9 9 3.9 11.6 3.8 14.4 4 16.7 3.8 18 3.9 17.5 3.9 15.8 3.8 13 4 10 3.8 7.2 3.9 4.8 3.8 2.6 4 .9 3.8-.8 3.9-2.5 3.9-4.3 3.8-6.3 4-8.5 3.8-10.7 3.9-12.6 3.9-14 3.8-14.4 4-13.8 3.8-12.5 3.9-10.7 3.9-8.7 3.8-6.9 4-5 3.8-3.7 3.9-2.5 3.8-1.5 4-.8 3.8-.4h7.8l3.8-.2 4-.4 3.8-.6 3.9-1 3.9-1.2 3.8-1.3 4-1.2 3.8-.9 3.9-.4 3.8.2 4 1 3.8 2.2 3.9 3.5 3.9 5.3 3.8 7.4 4 9.7 3.8 12 3.9 14 3.9 15.1 3.8 14.7 4 13.2 3.8 10.7 3.9 7.8 3.9 4.8 3.8 1.9 4-1.1 3.8-4.2 3.9-7.6 3.8-11.3 4-15 3.8-17.9" fill="none" stroke-width="1.5" stroke-linecap="round" stroke-linejoin="round" stroke="#e31a1c" stroke-miterlimit="10"/><path d="M74.4 277.2H86l4-.2 3.8-.2 3.9-.5 3.9-.9 3.8-1.4 4-2.5 3.8-4.3 3.9-6.8 3.8-10.3 4-14 3.8-16.8 3.9-17.8 3.9-16.5 3.8-14 4-10.6 3.8-7.5 3.9-4.7 3.9-2.4 3.8-.5 4 1 3.8 2 3.9 3.3 3.8 4 4 4.8 3.8 5.4 3.9 5.8 3.9 6 3.8 6 4 6 3.8 5.4 3.9 4.9 3.9 4.2 3.8 3.4 4 2.6 3.8 1.8 3.9 1.2 3.9.5h3.8l4-.4 3.8-.7 3.9-.7 3.8-.7 4-.3h3.8l3.9.9 3.9 1.6 3.8 2.6 4 3.5 3.8 4.4 3.9 5 3.9 5.5 3.8 5.6 4 5.5 3.8 5 3.9 4.5 3.9 3.9 3.8 3.3 4 2.7 3.8 2.2 3.9 1.7 3.8 1.5 4 1 3.8 1 3.9.6 3.9.4 3.8.3h7.8l3.9-.3 3.9-.5 3.8-.8 4-1 3.8-1.4 3.9-1.7 3.8-2 4-2.3 3.8-2.3 3.9-2.2 3.9-2 3.8-1.6 4-1.1 3.8-.8 3.9-.5 3.9-.4 3.8-.5 4-.8 3.8-1.1 3.9-1.6 3.9-2 3.8-2.5 4-2.8 3.8-3.1 3.9-3 3.8-2.8 4-2.1 3.8-1.5" fill="none" stroke-width="1.5" stroke-linecap="round" stroke-linejoin="round" stroke="#a6cee3" stroke-miterlimit="10"/><path d="M74.4 131l3.9 11.3 3.9 12 3.8 12.4 4 12.1 3.8 11.6 3.9 10.7 3.9 9.7 3.8 8.5 4 7.3 3.8 6 3.9 4.5 3.8 3.3 4 1.8 3.8.5 3.9-.8 3.9-2.4 3.8-4 4-5.6 3.8-7.2 3.9-8.5 3.9-9.3 3.8-9.2 4-8.2 3.8-6.4 3.9-4 3.8-1.5 4 1.2 3.8 3.6 3.9 5.3 3.9 6.5 3.8 6.6 4 6 3.8 4.5 3.9 2.6 3.9.1 3.8-2.5 4-5.5 3.8-8.7 3.9-11.7 3.9-14.2 3.8-15.5 4-15.3 3.8-13.7 3.9-11.2 3.8-8.6 4-6.3 3.8-4.2 3.9-2.6 3.9-1.3 3.8-.3 4 .7 3.8 1.6L280 95l3.9 3.3 3.8 4.1 4 5 3.8 6 3.9 6.8 3.9 7.5 3.8 8.2 4 8.8 3.8 9.4 3.9 9.9 3.8 10.2 4 10.5 3.8 10.6 3.9 10.7 3.9 10.4 3.8 10 4 9.3 3.8 8.3 3.9 7.1 3.9 6 3.8 4.8 4 3.8 3.8 2.9 3.9 2.1 3.8 1.6 4 1.1 3.8.8 3.9.5 3.9.3 3.8.2h4l3.8-.2 3.9-.3 3.9-.6 3.8-1 4-1.4 3.8-2 3.9-3 3.9-4 3.8-5.4 4-6.9 3.8-8.4 3.9-9.6 3.8-10.4 4-10.6 3.8-10.3" fill="none" stroke-width="1.5" stroke-linecap="round" stroke-linejoin="round" stroke="#1f78b4" stroke-miterlimit="10"/><path d="M74.4 69.8l3.9.6 3.9 1 3.8 1.3 4 2.1 3.8 3 3.9 4.3 3.9 5.6 3.8 7.2 4 8.6 3.8 9.7 3.9 10.5 3.8 10.7 4 10.7 3.8 10.3 3.9 9.8 3.9 9.4 3.8 8.8 4 8.4 3.8 8 3.9 7.4 3.9 7 3.8 6.2 4 5.5 3.8 4.7 3.9 3.8 3.8 3 4 2 3.8 1.2 3.9.4 3.9-.4 3.8-1.2 4-2 3.8-2.8 3.9-3.8 3.9-4.8 3.8-6 4-7.2 3.8-8.7 3.9-10.1 3.9-11.5 3.8-12.5 4-13 3.8-12.7 3.9-11.8 3.8-10.3 4-8.4 3.8-6.6 3.9-4.7 3.9-3.1 3.8-1.7 4-.5 3.8.8 3.9 2 3.9 3 3.8 4 4 5 3.8 5.7 3.9 6 3.9 6.1 3.8 5.6 4 4.8 3.8 3.8 3.9 2.6 3.8 1.4 4 .3 3.8-.9 3.9-1.8 3.9-2.7 3.8-3.5 4-4 3.8-4.6 3.9-4.8 3.9-5 3.8-5.2 4-5.1 3.8-5 3.9-4.8 3.8-4.6 4-4.2 3.8-3.9 3.9-3.5 3.9-3 3.8-2.6 4-2.1 3.8-1.8L408 74l3.9-1.1 3.8-.8 4-.5 3.8-.4 3.9-.2h3.9l3.8.1 4 .3 3.8.6 3.9.9 3.8 1.4 4 2.1 3.8 3.2" fill="none" stroke-width="1.5" stroke-linecap="round" stroke-linejoin="round" stroke="#b2df8a" stroke-miterlimit="10"/><path d="M74.4 267.6l3.9-.9 3.9-1.9 3.8-3.3 4-5.4 3.8-8.3 3.9-12 3.9-16.6 3.8-20.6 4-22.7 3.8-22 3.9-19 3.8-14.9 4-10.6 3.8-7.3 3.9-4.6 3.9-2.5 3.8-1 4 .6 3.8 1.8 3.9 3 3.9 4.4 3.8 5.6 4 6.7 3.8 7.3 3.9 7.5 3.8 7 4 6 3.8 4.4 3.9 2.5 3.9.6 3.8-1.3 4-3 3.8-4.3 3.9-5.2 7.7-11.1 4-5.3 3.8-4.8 3.9-4.3 3.9-3.7 3.8-3.3 4-2.9 3.8-2.6L245 97l3.8-2.2 4-2 3.8-1.7 3.9-1.3 3.9-1 3.8-.4 4 .2 3.8 1 3.9 1.8 3.9 3 3.8 4.8 4 6.7 3.8 9.3 3.9 12.2 3.9 15.3 3.8 17.7 4 18.9 3.8 18.4 3.9 16.7 3.8 13.9 4 11 3.8 8.4 3.9 6.2 3.9 4.4 3.8 3.2 4 2.1 3.8 1.3 3.9.6 3.9-.1 3.8-1 4-1.9 3.8-3.2 3.9-5.1 3.8-7.7 4-11 3.8-14.6 3.9-17.4 3.9-18.5 3.8-17.2 4-14 3.8-9.7 3.9-5.3 3.9-1.2 3.8 3 4 6.7 3.8 10.3 3.9 13.4 3.9 15.3L435 202l4 14.6 3.8 12.7 3.9 10.3 3.8 8.2 4 6.3 3.8 4.8" fill="none" stroke-width="1.5" stroke-linecap="round" stroke-linejoin="round" stroke="#33a02c" stroke-miterlimit="10"/><path d="M76.2 250.7c0 2.4-3.6 2.4-3.6 0s3.6-2.4 3.6 0M80 243.9c0 2.4-3.5 2.4-3.5 0s3.6-2.4 3.6 0M84 247c0 2.5-3.6 2.5-3.6 0 0-2.3 3.6-2.3 3.6 0M87.8 243.5c0 2.4-3.6 2.4-3.6 0s3.6-2.4 3.6 0M91.7 242.4c0 2.4-3.6 2.4-3.6 0s3.6-2.4 3.6 0M95.6 228.4c0 2.4-3.6 2.4-3.6 0s3.6-2.4 3.6 0M99.5 223.5c0 2.4-3.6 2.4-3.6 0s3.6-2.4 3.6 0M103.4 211c0 2.4-3.7 2.4-3.7 0s3.7-2.4 3.7 0M107.2 195.2c0 2.4-3.6 2.4-3.6 0s3.6-2.4 3.6 0M111.1 212c0 2.5-3.6 2.5-3.6 0 0-2.3 3.6-2.3 3.6 0M115 194c0 2.4-3.6 2.4-3.6 0s3.6-2.4 3.6 0M118.9 182.8c0 2.4-3.6 2.4-3.6 0s3.6-2.4 3.6 0M122.7 181c0 2.5-3.6 2.5-3.6 0 0-2.3 3.6-2.3 3.6 0M126.6 178.2c0 2.4-3.6 2.4-3.6 0s3.6-2.4 3.6 0M130.5 160c0 2.4-3.6 2.4-3.6 0s3.6-2.4 3.6 0M134.4 163.5c0 2.4-3.6 2.4-3.6 0s3.6-2.4 3.6 0M138.3 125.5c0 2.4-3.6 2.4-3.6 0s3.6-2.4 3.6 0M142.1 116.5c0 2.4-3.6 2.4-3.6 0s3.6-2.4 3.6 0M146 132c0 2.4-3.6 2.4-3.6 0s3.6-2.4 3.6 0M149.9 116.3c0 2.4-3.6 2.4-3.6 0s3.6-2.4 3.6 0M153.8 93.4c0 2.4-3.6 2.4-3.6 0s3.6-2.4 3.6 0M157.7 95c0 2.4-3.6 2.4-3.6 0s3.6-2.4 3.6 0M161.5 92.8c0 2.4-3.6 2.4-3.6 0s3.6-2.4 3.6 0M165.4 88.9c0 2.4-3.6 2.4-3.6 0s3.6-2.4 3.6 0M169.3 96.2c0 2.4-3.6 2.4-3.6 0s3.6-2.4 3.6 0M173.2 83c0 2.5-3.6 2.5-3.6 0 0-2.3 3.6-2.3 3.6 0M177 87.7c0 2.4-3.6 2.4-3.6 0s3.6-2.4 3.6 0M181 75.4c0 2.4-3.7 2.4-3.7 0s3.6-2.4 3.6 0M184.8 77c0 2.3-3.6 2.3-3.6 0 0-2.5 3.6-2.5 3.6 0M188.7 77.6c0 2.4-3.6 2.4-3.6 0s3.6-2.4 3.6 0M192.6 73.6c0 2.4-3.6 2.4-3.6 0s3.6-2.4 3.6 0M196.4 79.3c0 2.4-3.6 2.4-3.6 0s3.6-2.4 3.6 0M200.3 73.4c0 2.4-3.6 2.4-3.6 0s3.6-2.4 3.6 0M204.2 73.4c0 2.4-3.6 2.4-3.6 0s3.6-2.4 3.6 0M208 80.2c0 2.4-3.5 2.4-3.5 0s3.6-2.4 3.6 0M212 78.4c0 2.4-3.6 2.4-3.6 0s3.6-2.4 3.6 0M215.8 74.4c0 2.4-3.6 2.4-3.6 0s3.6-2.4 3.6 0M219.7 80c0 2.4-3.6 2.4-3.6 0s3.6-2.4 3.6 0M223.6 77.1c0 2.4-3.6 2.4-3.6 0s3.6-2.4 3.6 0M227.5 76c0 2.4-3.6 2.4-3.6 0s3.6-2.4 3.6 0M231.4 79c0 2.3-3.7 2.3-3.7 0 0-2.5 3.7-2.5 3.7 0M235.2 77c0 2.4-3.6 2.4-3.6 0s3.6-2.4 3.6 0M239.1 81.3c0 2.4-3.6 2.4-3.6 0s3.6-2.4 3.6 0M243 82.3c0 2.4-3.6 2.4-3.6 0s3.6-2.4 3.6 0M246.9 79.2c0 2.4-3.6 2.4-3.6 0s3.6-2.4 3.6 0M250.7 79c0 2.4-3.6 2.4-3.6 0s3.6-2.4 3.6 0M254.6 88.8c0 2.4-3.6 2.4-3.6 0s3.6-2.4 3.6 0M258.5 83c0 2.4-3.6 2.4-3.6 0s3.6-2.4 3.6 0M262.4 87.1c0 2.4-3.6 2.4-3.6 0s3.6-2.4 3.6 0M266.3 79.7c0 2.4-3.6 2.4-3.6 0s3.6-2.4 3.6 0M270.1 79.3c0 2.4-3.6 2.4-3.6 0s3.6-2.4 3.6 0M274 73c0 2.4-3.6 2.4-3.6 0s3.6-2.4 3.6 0M277.9 78.8c0 2.4-3.6 2.4-3.6 0s3.6-2.4 3.6 0M281.8 75.4c0 2.5-3.6 2.5-3.6 0 0-2.3 3.6-2.3 3.6 0M285.7 75.7c0 2.4-3.6 2.4-3.6 0s3.6-2.4 3.6 0M289.5 72c0 2.5-3.6 2.5-3.6 0 0-2.3 3.6-2.3 3.6 0M293.4 71.4c0 2.4-3.6 2.4-3.6 0s3.6-2.4 3.6 0M297.3 69.8c0 2.4-3.6 2.4-3.6 0s3.6-2.4 3.6 0M301.2 75c0 2.3-3.6 2.3-3.6 0 0-2.5 3.6-2.5 3.6 0M305 70.7c0 2.4-3.6 2.4-3.6 0s3.6-2.4 3.6 0M309 69.7c0 2.4-3.7 2.4-3.7 0s3.6-2.4 3.6 0M312.8 71c0 2.5-3.6 2.5-3.6 0 0-2.3 3.6-2.3 3.6 0M316.7 70c0 2.4-3.6 2.4-3.6 0s3.6-2.4 3.6 0M320.6 72.7c0 2.4-3.6 2.4-3.6 0s3.6-2.4 3.6 0M324.4 75.4c0 2.4-3.6 2.4-3.6 0s3.6-2.4 3.6 0M328.3 76.7c0 2.4-3.6 2.4-3.6 0s3.6-2.4 3.6 0M332.2 76.5c0 2.4-3.6 2.4-3.6 0s3.6-2.4 3.6 0M336 93c0 2.4-3.5 2.4-3.5 0s3.6-2.4 3.6 0M340 97.1c0 2.4-3.6 2.4-3.6 0s3.6-2.4 3.6 0M343.8 112.6c0 2.4-3.6 2.4-3.6 0s3.6-2.4 3.6 0M347.7 119.8c0 2.4-3.6 2.4-3.6 0s3.6-2.4 3.6 0M351.6 138.2c0 2.4-3.6 2.4-3.6 0s3.6-2.4 3.6 0M355.5 155.3c0 2.4-3.6 2.4-3.6 0s3.6-2.4 3.6 0M359.4 162.6c0 2.4-3.6 2.4-3.6 0s3.6-2.4 3.6 0M363.2 187.4c0 2.4-3.6 2.4-3.6 0s3.6-2.4 3.6 0M367.1 197c0 2.4-3.6 2.4-3.6 0s3.6-2.4 3.6 0M371 207.5c0 2.4-3.6 2.4-3.6 0s3.6-2.4 3.6 0M374.9 187.4c0 2.4-3.6 2.4-3.6 0s3.6-2.4 3.6 0M378.7 160c0 2.4-3.6 2.4-3.6 0s3.6-2.4 3.6 0M382.6 151.8c0 2.4-3.6 2.4-3.6 0s3.6-2.4 3.6 0M386.5 166.2c0 2.4-3.6 2.4-3.6 0s3.6-2.4 3.6 0M390.4 149.7c0 2.4-3.6 2.4-3.6 0s3.6-2.4 3.6 0M394.3 165.4c0 2.4-3.6 2.4-3.6 0s3.6-2.4 3.6 0M398.1 114.7c0 2.4-3.6 2.4-3.6 0s3.6-2.4 3.6 0M402 120.6c0 2.4-3.6 2.4-3.6 0s3.6-2.4 3.6 0M405.9 129c0 2.4-3.6 2.4-3.6 0s3.6-2.4 3.6 0M409.8 146.7c0 2.4-3.6 2.4-3.6 0s3.6-2.4 3.6 0M413.7 157c0 2.3-3.6 2.3-3.6 0 0-2.5 3.6-2.5 3.6 0M417.5 138c0 2.3-3.6 2.3-3.6 0 0-2.5 3.6-2.5 3.6 0M421.4 121.4c0 2.4-3.6 2.4-3.6 0s3.6-2.4 3.6 0M425.3 159c0 2.3-3.6 2.3-3.6 0 0-2.5 3.6-2.5 3.6 0M429.2 141c0 2.4-3.6 2.4-3.6 0s3.6-2.4 3.6 0M433 172.1c0 2.4-3.6 2.4-3.6 0s3.6-2.4 3.6 0M437 205.1c0 2.4-3.7 2.4-3.7 0s3.6-2.4 3.6 0M440.8 228.2c0 2.4-3.6 2.4-3.6 0s3.6-2.4 3.6 0M444.7 226.8c0 2.4-3.6 2.4-3.6 0s3.6-2.4 3.6 0M448.6 244.5c0 2.4-3.6 2.4-3.6 0s3.6-2.4 3.6 0M452.4 255.4c0 2.4-3.6 2.4-3.6 0s3.6-2.4 3.6 0M456.3 253.5c0 2.4-3.6 2.4-3.6 0s3.6-2.4 3.6 0M460.2 257.6c0 2.4-3.6 2.4-3.6 0s3.6-2.4 3.6 0" fill="#a6cee3" stroke-width=".8" stroke-linecap="round" stroke-linejoin="round" stroke="#a6cee3" stroke-miterlimit="10"/><path d="M74.4 286.6h384M74.4 286.6v7.2M151.2 286.6v7.2M228 286.6v7.2M304.8 286.6v7.2M381.6 286.6v7.2M458.4 286.6v7.2" fill="none" stroke-width=".8" stroke-linecap="round" stroke-linejoin="round" stroke="#000" stroke-miterlimit="10"/><use xlink:href="#a" x="71.1" y="312.5"/><use xlink:href="#b" x="147.9" y="312.5"/><use xlink:href="#c" x="224.7" y="312.5"/><use xlink:href="#d" x="301.5" y="312.5"/><use xlink:href="#e" x="378.3" y="312.5"/><use xlink:href="#f" x="455.1" y="312.5"/><path d="M59 278.1V67.5M59 278.1h-7.2M59 236h-7.2M59 193.9h-7.2M59 151.7h-7.2M59 109.6h-7.2M59 67.5h-7.2" fill="none" stroke-width=".8" stroke-linecap="round" stroke-linejoin="round" stroke="#000" stroke-miterlimit="10"/><use xlink:href="#g" x="41.8" y="286.5"/><use xlink:href="#h" x="41.8" y="279.8"/><use xlink:href="#g" x="41.8" y="276.5"/><use xlink:href="#g" x="41.8" y="244.3"/><use xlink:href="#h" x="41.8" y="237.7"/><use xlink:href="#i" x="41.8" y="234.3"/><use xlink:href="#g" x="41.8" y="202.2"/><use xlink:href="#h" x="41.8" y="195.5"/><use xlink:href="#j" x="41.8" y="192.2"/><use xlink:href="#g" x="41.8" y="160.1"/><use xlink:href="#h" x="41.8" y="153.4"/><use xlink:href="#k" x="41.8" y="150.1"/><use xlink:href="#g" x="41.8" y="117.9"/><use xlink:href="#h" x="41.8" y="111.3"/><use xlink:href="#l" x="41.8" y="107.9"/><use xlink:href="#m" x="41.8" y="75.8"/><use xlink:href="#h" x="41.8" y="69.1"/><use xlink:href="#g" x="41.8" y="65.8"/><path d="M59 286.6h414.8V59H59v227.6" fill="none" stroke-width=".8" stroke-linecap="round" stroke-linejoin="round" stroke="#000" stroke-miterlimit="10"/><use xlink:href="#n" x="263.4" y="341.3"/><use xlink:href="#o" x="13" y="174.5"/><path d="M76.2 118.5c0 2.4-3.6 2.4-3.6 0s3.6-2.4 3.6 0M80 94.8c0 2.4-3.5 2.4-3.5 0s3.6-2.4 3.6 0M84 85.2c0 2.4-3.6 2.4-3.6 0s3.6-2.4 3.6 0M87.8 78.8c0 2.4-3.6 2.4-3.6 0s3.6-2.4 3.6 0M91.7 76.2c0 2.4-3.6 2.4-3.6 0s3.6-2.4 3.6 0M95.6 76.9c0 2.4-3.6 2.4-3.6 0s3.6-2.4 3.6 0M99.5 76.3c0 2.4-3.6 2.4-3.6 0s3.6-2.4 3.6 0M103.4 75c0 2.3-3.7 2.3-3.7 0 0-2.5 3.7-2.5 3.7 0M107.2 72.9c0 2.4-3.6 2.4-3.6 0s3.6-2.4 3.6 0M111.1 73.4c0 2.4-3.6 2.4-3.6 0s3.6-2.4 3.6 0M115 75.3c0 2.4-3.6 2.4-3.6 0s3.6-2.4 3.6 0M118.9 73.9c0 2.4-3.6 2.4-3.6 0s3.6-2.4 3.6 0M122.7 83.1c0 2.4-3.6 2.4-3.6 0s3.6-2.4 3.6 0M126.6 81.5c0 2.4-3.6 2.4-3.6 0s3.6-2.4 3.6 0M130.5 83.3c0 2.4-3.6 2.4-3.6 0s3.6-2.4 3.6 0M134.4 80.3c0 2.4-3.6 2.4-3.6 0s3.6-2.4 3.6 0M138.3 117.2c0 2.4-3.6 2.4-3.6 0s3.6-2.4 3.6 0M142.1 105.8c0 2.4-3.6 2.4-3.6 0s3.6-2.4 3.6 0M146 105c0 2.5-3.6 2.5-3.6 0 0-2.3 3.6-2.3 3.6 0M149.9 98c0 2.4-3.6 2.4-3.6 0s3.6-2.4 3.6 0M153.8 125.1c0 2.4-3.6 2.4-3.6 0s3.6-2.4 3.6 0M157.7 97c0 2.4-3.6 2.4-3.6 0s3.6-2.4 3.6 0M161.5 93.6c0 2.4-3.6 2.4-3.6 0s3.6-2.4 3.6 0M165.4 109.8c0 2.4-3.6 2.4-3.6 0s3.6-2.4 3.6 0M169.3 91.7c0 2.4-3.6 2.4-3.6 0s3.6-2.4 3.6 0M173.2 82.1c0 2.4-3.6 2.4-3.6 0s3.6-2.4 3.6 0M177 84.6c0 2.4-3.6 2.4-3.6 0s3.6-2.4 3.6 0M181 87.4c0 2.4-3.7 2.4-3.7 0s3.6-2.4 3.6 0M184.8 75.7c0 2.4-3.6 2.4-3.6 0s3.6-2.4 3.6 0M188.7 75.7c0 2.4-3.6 2.4-3.6 0s3.6-2.4 3.6 0M192.6 77c0 2.5-3.6 2.5-3.6 0 0-2.3 3.6-2.3 3.6 0M196.4 76c0 2.4-3.6 2.4-3.6 0s3.6-2.4 3.6 0M200.3 76.4c0 2.4-3.6 2.4-3.6 0s3.6-2.4 3.6 0M204.2 75.4c0 2.4-3.6 2.4-3.6 0s3.6-2.4 3.6 0M208 75.6c0 2.4-3.5 2.4-3.5 0s3.6-2.4 3.6 0M212 73.8c0 2.4-3.6 2.4-3.6 0s3.6-2.4 3.6 0M215.8 76.6c0 2.4-3.6 2.4-3.6 0s3.6-2.4 3.6 0M219.7 77.2c0 2.4-3.6 2.4-3.6 0s3.6-2.4 3.6 0M223.6 78.9c0 2.4-3.6 2.4-3.6 0s3.6-2.4 3.6 0M227.5 75.4c0 2.4-3.6 2.4-3.6 0s3.6-2.4 3.6 0M231.4 80c0 2.5-3.7 2.5-3.7 0 0-2.3 3.7-2.3 3.7 0M235.2 90.7c0 2.4-3.6 2.4-3.6 0s3.6-2.4 3.6 0M239.1 79.8c0 2.4-3.6 2.4-3.6 0s3.6-2.4 3.6 0M243 94.6c0 2.4-3.6 2.4-3.6 0s3.6-2.4 3.6 0M246.9 94c0 2.3-3.6 2.3-3.6 0 0-2.5 3.6-2.5 3.6 0M250.7 97c0 2.5-3.6 2.5-3.6 0 0-2.3 3.6-2.3 3.6 0M254.6 101.3c0 2.4-3.6 2.4-3.6 0s3.6-2.4 3.6 0M258.5 119.6c0 2.4-3.6 2.4-3.6 0s3.6-2.4 3.6 0M262.4 117.3c0 2.4-3.6 2.4-3.6 0s3.6-2.4 3.6 0M266.3 151.7c0 2.4-3.6 2.4-3.6 0s3.6-2.4 3.6 0M270.1 123c0 2.4-3.6 2.4-3.6 0s3.6-2.4 3.6 0M274 160.9c0 2.4-3.6 2.4-3.6 0s3.6-2.4 3.6 0M277.9 162.5c0 2.4-3.6 2.4-3.6 0s3.6-2.4 3.6 0M281.8 173c0 2.4-3.6 2.4-3.6 0s3.6-2.4 3.6 0M285.7 186.7c0 2.4-3.6 2.4-3.6 0s3.6-2.4 3.6 0M289.5 208.2c0 2.4-3.6 2.4-3.6 0s3.6-2.4 3.6 0M293.4 199.4c0 2.4-3.6 2.4-3.6 0s3.6-2.4 3.6 0M297.3 218.3c0 2.4-3.6 2.4-3.6 0s3.6-2.4 3.6 0M301.2 209c0 2.4-3.6 2.4-3.6 0s3.6-2.4 3.6 0M305 216.8c0 2.4-3.6 2.4-3.6 0s3.6-2.4 3.6 0M309 223.1c0 2.4-3.7 2.4-3.7 0s3.6-2.4 3.6 0M312.8 243.6c0 2.4-3.6 2.4-3.6 0s3.6-2.4 3.6 0M316.7 231.6c0 2.4-3.6 2.4-3.6 0s3.6-2.4 3.6 0M320.6 235c0 2.4-3.6 2.4-3.6 0s3.6-2.4 3.6 0M324.4 214.2c0 2.4-3.6 2.4-3.6 0s3.6-2.4 3.6 0M328.3 221.4c0 2.4-3.6 2.4-3.6 0s3.6-2.4 3.6 0M332.2 225.8c0 2.4-3.6 2.4-3.6 0s3.6-2.4 3.6 0M336 214c0 2.5-3.5 2.5-3.5 0 0-2.3 3.6-2.3 3.6 0M340 205.3c0 2.4-3.6 2.4-3.6 0s3.6-2.4 3.6 0M343.8 208c0 2.4-3.6 2.4-3.6 0s3.6-2.4 3.6 0M347.7 207.8c0 2.4-3.6 2.4-3.6 0s3.6-2.4 3.6 0M351.6 196.7c0 2.4-3.6 2.4-3.6 0s3.6-2.4 3.6 0M355.5 187c0 2.4-3.6 2.4-3.6 0s3.6-2.4 3.6 0M359.4 176.6c0 2.4-3.6 2.4-3.6 0s3.6-2.4 3.6 0M363.2 196.8c0 2.4-3.6 2.4-3.6 0s3.6-2.4 3.6 0M367.1 198.5c0 2.4-3.6 2.4-3.6 0s3.6-2.4 3.6 0M371 177c0 2.3-3.6 2.3-3.6 0 0-2.5 3.6-2.5 3.6 0M374.9 202.5c0 2.4-3.6 2.4-3.6 0s3.6-2.4 3.6 0M378.7 181.8c0 2.4-3.6 2.4-3.6 0s3.6-2.4 3.6 0M382.6 133.1c0 2.4-3.6 2.4-3.6 0s3.6-2.4 3.6 0M386.5 136.9c0 2.4-3.6 2.4-3.6 0s3.6-2.4 3.6 0M390.4 119.2c0 2.4-3.6 2.4-3.6 0s3.6-2.4 3.6 0M394.3 107c0 2.4-3.6 2.4-3.6 0s3.6-2.4 3.6 0M398.1 99c0 2.4-3.6 2.4-3.6 0s3.6-2.4 3.6 0M402 92c0 2.4-3.6 2.4-3.6 0s3.6-2.4 3.6 0M405.9 83.2c0 2.4-3.6 2.4-3.6 0s3.6-2.4 3.6 0M409.8 77.5c0 2.4-3.6 2.4-3.6 0s3.6-2.4 3.6 0M413.7 77.4c0 2.4-3.6 2.4-3.6 0s3.6-2.4 3.6 0M417.5 74.8c0 2.4-3.6 2.4-3.6 0s3.6-2.4 3.6 0M421.4 74.4c0 2.4-3.6 2.4-3.6 0s3.6-2.4 3.6 0M425.3 74.2c0 2.4-3.6 2.4-3.6 0s3.6-2.4 3.6 0M429.2 74c0 2.4-3.6 2.4-3.6 0s3.6-2.4 3.6 0M433 73.7c0 2.4-3.6 2.4-3.6 0s3.6-2.4 3.6 0M437 77c0 2.4-3.7 2.4-3.7 0 0-2.3 3.6-2.3 3.6 0M440.8 85.9c0 2.4-3.6 2.4-3.6 0s3.6-2.4 3.6 0M444.7 82.8c0 2.4-3.6 2.4-3.6 0s3.6-2.4 3.6 0M448.6 89c0 2.3-3.6 2.3-3.6 0 0-2.5 3.6-2.5 3.6 0M452.4 93c0 2.5-3.6 2.5-3.6 0 0-2.3 3.6-2.3 3.6 0M456.3 97.7c0 2.4-3.6 2.4-3.6 0s3.6-2.4 3.6 0M460.2 108c0 2.4-3.6 2.4-3.6 0s3.6-2.4 3.6 0" fill="#1f78b4" stroke-width=".8" stroke-linecap="round" stroke-linejoin="round" stroke="#1f78b4" stroke-miterlimit="10"/><path d="M76.2 263.5c0 2.4-3.6 2.4-3.6 0s3.6-2.4 3.6 0M80 253.6c0 2.4-3.5 2.4-3.5 0s3.6-2.4 3.6 0M84 249.7c0 2.4-3.6 2.4-3.6 0s3.6-2.4 3.6 0M87.8 223.7c0 2.4-3.6 2.4-3.6 0s3.6-2.4 3.6 0M91.7 219.8c0 2.4-3.6 2.4-3.6 0s3.6-2.4 3.6 0M95.6 185.4c0 2.4-3.6 2.4-3.6 0s3.6-2.4 3.6 0M99.5 196c0 2.4-3.6 2.4-3.6 0s3.6-2.4 3.6 0M103.4 181.4c0 2.4-3.7 2.4-3.7 0s3.7-2.4 3.7 0M107.2 172.8c0 2.4-3.6 2.4-3.6 0s3.6-2.4 3.6 0M111.1 165.1c0 2.4-3.6 2.4-3.6 0s3.6-2.4 3.6 0M115 145.3c0 2.4-3.6 2.4-3.6 0s3.6-2.4 3.6 0M118.9 161.2c0 2.4-3.6 2.4-3.6 0s3.6-2.4 3.6 0M122.7 174.9c0 2.4-3.6 2.4-3.6 0s3.6-2.4 3.6 0M126.6 188.6c0 2.4-3.6 2.4-3.6 0s3.6-2.4 3.6 0M130.5 213c0 2.4-3.6 2.4-3.6 0s3.6-2.4 3.6 0M134.4 221.7c0 2.4-3.6 2.4-3.6 0s3.6-2.4 3.6 0M138.3 217.8c0 2.4-3.6 2.4-3.6 0s3.6-2.4 3.6 0M142.1 221.6c0 2.4-3.6 2.4-3.6 0s3.6-2.4 3.6 0M146 239.4c0 2.4-3.6 2.4-3.6 0s3.6-2.4 3.6 0M149.9 245.6c0 2.4-3.6 2.4-3.6 0s3.6-2.4 3.6 0M153.8 236.3c0 2.4-3.6 2.4-3.6 0s3.6-2.4 3.6 0M157.7 257.2c0 2.4-3.6 2.4-3.6 0s3.6-2.4 3.6 0M161.5 258.5c0 2.4-3.6 2.4-3.6 0s3.6-2.4 3.6 0M165.4 266c0 2.5-3.6 2.5-3.6 0 0-2.3 3.6-2.3 3.6 0M169.3 264.9c0 2.4-3.6 2.4-3.6 0s3.6-2.4 3.6 0M173.2 271.7c0 2.4-3.6 2.4-3.6 0s3.6-2.4 3.6 0M177 269c0 2.3-3.6 2.3-3.6 0 0-2.5 3.6-2.5 3.6 0M181 268.4c0 2.4-3.7 2.4-3.7 0s3.6-2.4 3.6 0M184.8 270.3c0 2.4-3.6 2.4-3.6 0s3.6-2.4 3.6 0M188.7 275.1c0 2.4-3.6 2.4-3.6 0s3.6-2.4 3.6 0M192.6 273.4c0 2.4-3.6 2.4-3.6 0s3.6-2.4 3.6 0M196.4 275c0 2.4-3.6 2.4-3.6 0s3.6-2.4 3.6 0M200.3 273.3c0 2.4-3.6 2.4-3.6 0s3.6-2.4 3.6 0M204.2 275c0 2.5-3.6 2.5-3.6 0 0-2.3 3.6-2.3 3.6 0M208 275.8c0 2.4-3.5 2.4-3.5 0s3.6-2.4 3.6 0M212 272.3c0 2.4-3.6 2.4-3.6 0s3.6-2.4 3.6 0M215.8 274.2c0 2.4-3.6 2.4-3.6 0s3.6-2.4 3.6 0M219.7 273.8c0 2.4-3.6 2.4-3.6 0s3.6-2.4 3.6 0M223.6 273.6c0 2.4-3.6 2.4-3.6 0s3.6-2.4 3.6 0M227.5 273.7c0 2.4-3.6 2.4-3.6 0s3.6-2.4 3.6 0M231.4 267c0 2.4-3.7 2.4-3.7 0s3.7-2.4 3.7 0M235.2 268.8c0 2.4-3.6 2.4-3.6 0s3.6-2.4 3.6 0M239.1 266.9c0 2.4-3.6 2.4-3.6 0s3.6-2.4 3.6 0M243 262c0 2.3-3.6 2.3-3.6 0 0-2.5 3.6-2.5 3.6 0M246.9 259.8c0 2.4-3.6 2.4-3.6 0s3.6-2.4 3.6 0M250.7 259c0 2.3-3.6 2.3-3.6 0 0-2.5 3.6-2.5 3.6 0M254.6 255.7c0 2.4-3.6 2.4-3.6 0s3.6-2.4 3.6 0M258.5 242.4c0 2.4-3.6 2.4-3.6 0s3.6-2.4 3.6 0M262.4 242.8c0 2.4-3.6 2.4-3.6 0s3.6-2.4 3.6 0M266.3 228.8c0 2.4-3.6 2.4-3.6 0s3.6-2.4 3.6 0M270.1 215.1c0 2.4-3.6 2.4-3.6 0s3.6-2.4 3.6 0M274 244.2c0 2.4-3.6 2.4-3.6 0s3.6-2.4 3.6 0M277.9 249.6c0 2.4-3.6 2.4-3.6 0s3.6-2.4 3.6 0M281.8 236.5c0 2.4-3.6 2.4-3.6 0s3.6-2.4 3.6 0M285.7 235.8c0 2.4-3.6 2.4-3.6 0s3.6-2.4 3.6 0M289.5 221c0 2.5-3.6 2.5-3.6 0 0-2.3 3.6-2.3 3.6 0M293.4 222.1c0 2.4-3.6 2.4-3.6 0s3.6-2.4 3.6 0M297.3 210.3c0 2.4-3.6 2.4-3.6 0s3.6-2.4 3.6 0M301.2 219c0 2.5-3.6 2.5-3.6 0 0-2.3 3.6-2.3 3.6 0M305 204c0 2.4-3.6 2.4-3.6 0s3.6-2.4 3.6 0M309 214.7c0 2.4-3.7 2.4-3.7 0s3.6-2.4 3.6 0M312.8 196.2c0 2.4-3.6 2.4-3.6 0s3.6-2.4 3.6 0M316.7 224.3c0 2.4-3.6 2.4-3.6 0s3.6-2.4 3.6 0M320.6 220c0 2.4-3.6 2.4-3.6 0s3.6-2.4 3.6 0M324.4 225.8c0 2.4-3.6 2.4-3.6 0s3.6-2.4 3.6 0M328.3 212.8c0 2.4-3.6 2.4-3.6 0s3.6-2.4 3.6 0M332.2 205.4c0 2.4-3.6 2.4-3.6 0s3.6-2.4 3.6 0M336 197.6c0 2.4-3.5 2.4-3.5 0s3.6-2.4 3.6 0M340 209.4c0 2.4-3.6 2.4-3.6 0s3.6-2.4 3.6 0M343.8 181.8c0 2.4-3.6 2.4-3.6 0s3.6-2.4 3.6 0M347.7 185c0 2.3-3.6 2.3-3.6 0 0-2.5 3.6-2.5 3.6 0M351.6 211c0 2.5-3.6 2.5-3.6 0 0-2.3 3.6-2.3 3.6 0M355.5 197.4c0 2.4-3.6 2.4-3.6 0s3.6-2.4 3.6 0M359.4 170.4c0 2.4-3.6 2.4-3.6 0s3.6-2.4 3.6 0M363.2 199.2c0 2.4-3.6 2.4-3.6 0s3.6-2.4 3.6 0M367.1 164.8c0 2.3-3.6 2.3-3.6 0 0-2.5 3.6-2.5 3.6 0M371 168c0 2.4-3.6 2.4-3.6 0s3.6-2.4 3.6 0M374.9 194c0 2.5-3.6 2.5-3.6 0 0-2.3 3.6-2.3 3.6 0M378.7 165.7c0 2.4-3.6 2.4-3.6 0s3.6-2.4 3.6 0M382.6 194.3c0 2.4-3.6 2.4-3.6 0s3.6-2.4 3.6 0M386.5 196.6c0 2.4-3.6 2.4-3.6 0s3.6-2.4 3.6 0M390.4 133.8c0 2.4-3.6 2.4-3.6 0s3.6-2.4 3.6 0M394.3 134.7c0 2.4-3.6 2.4-3.6 0s3.6-2.4 3.6 0M398.1 153.1c0 2.4-3.6 2.4-3.6 0s3.6-2.4 3.6 0M402 128.4c0 2.4-3.6 2.4-3.6 0s3.6-2.4 3.6 0M405.9 146.4c0 2.4-3.6 2.4-3.6 0s3.6-2.4 3.6 0M409.8 172.1c0 2.4-3.6 2.4-3.6 0s3.6-2.4 3.6 0M413.7 157.4c0 2.4-3.6 2.4-3.6 0s3.6-2.4 3.6 0M417.5 135.6c0 2.4-3.6 2.4-3.6 0s3.6-2.4 3.6 0M421.4 190c0 2.3-3.6 2.3-3.6 0 0-2.5 3.6-2.5 3.6 0M425.3 144.5c0 2.4-3.6 2.4-3.6 0s3.6-2.4 3.6 0M429.2 135.9c0 2.4-3.6 2.4-3.6 0s3.6-2.4 3.6 0M433 151.8c0 2.4-3.6 2.4-3.6 0s3.6-2.4 3.6 0M437 183.9c0 2.3-3.7 2.3-3.7 0 0-2.4 3.6-2.4 3.6 0M440.8 157.4c0 2.4-3.6 2.4-3.6 0s3.6-2.4 3.6 0M444.7 184.5c0 2.4-3.6 2.4-3.6 0s3.6-2.4 3.6 0M448.6 167.3c0 2.4-3.6 2.4-3.6 0s3.6-2.4 3.6 0M452.4 198.7c0 2.4-3.6 2.4-3.6 0s3.6-2.4 3.6 0M456.3 170.4c0 2.4-3.6 2.4-3.6 0s3.6-2.4 3.6 0M460.2 177c0 2.4-3.6 2.4-3.6 0s3.6-2.4 3.6 0" fill="#b2df8a" stroke-width=".8" stroke-linecap="round" stroke-linejoin="round" stroke="#b2df8a" stroke-miterlimit="10"/><path d="M76.2 95.3c0 2.4-3.6 2.4-3.6 0s3.6-2.4 3.6 0M80 83.3c0 2.4-3.5 2.4-3.5 0s3.6-2.4 3.6 0M84 91.4c0 2.3-3.6 2.3-3.6 0 0-2.5 3.6-2.5 3.6 0M87.8 95.8c0 2.4-3.6 2.4-3.6 0s3.6-2.4 3.6 0M91.7 80.1c0 2.4-3.6 2.4-3.6 0s3.6-2.4 3.6 0M95.6 106.6c0 2.4-3.6 2.4-3.6 0s3.6-2.4 3.6 0M99.5 120.6c0 2.4-3.6 2.4-3.6 0s3.6-2.4 3.6 0M103.4 98c0 2.4-3.7 2.4-3.7 0s3.7-2.4 3.7 0M107.2 109.7c0 2.4-3.6 2.4-3.6 0s3.6-2.4 3.6 0M111.1 122.9c0 2.4-3.6 2.4-3.6 0s3.6-2.4 3.6 0M115 127.7c0 2.4-3.6 2.4-3.6 0s3.6-2.4 3.6 0M118.9 125.5c0 2.4-3.6 2.4-3.6 0s3.6-2.4 3.6 0M122.7 163.2c0 2.4-3.6 2.4-3.6 0s3.6-2.4 3.6 0M126.6 125.6c0 2.4-3.6 2.4-3.6 0s3.6-2.4 3.6 0M130.5 159.2c0 2.4-3.6 2.4-3.6 0s3.6-2.4 3.6 0M134.4 166.6c0 2.4-3.6 2.4-3.6 0s3.6-2.4 3.6 0M138.3 175.1c0 2.4-3.6 2.4-3.6 0s3.6-2.4 3.6 0M142.1 143.4c0 2.4-3.6 2.4-3.6 0s3.6-2.4 3.6 0M146 203.8c0 2.4-3.6 2.4-3.6 0s3.6-2.4 3.6 0M149.9 203.6c0 2.4-3.6 2.4-3.6 0s3.6-2.4 3.6 0M153.8 175.9c0 2.4-3.6 2.4-3.6 0s3.6-2.4 3.6 0M157.7 189.3c0 2.4-3.6 2.4-3.6 0s3.6-2.4 3.6 0M161.5 187.5c0 2.4-3.6 2.4-3.6 0s3.6-2.4 3.6 0M165.4 185.1c0 2.4-3.6 2.4-3.6 0s3.6-2.4 3.6 0M169.3 214.4c0 2.4-3.6 2.4-3.6 0s3.6-2.4 3.6 0M173.2 174.4c0 2.4-3.6 2.4-3.6 0s3.6-2.4 3.6 0M177 185.5c0 2.4-3.6 2.4-3.6 0s3.6-2.4 3.6 0M181 207.6c0 2.4-3.7 2.4-3.7 0s3.6-2.4 3.6 0M184.8 187c0 2.5-3.6 2.5-3.6 0 0-2.3 3.6-2.3 3.6 0M188.7 178.2c0 2.4-3.6 2.4-3.6 0s3.6-2.4 3.6 0M192.6 227.5c0 2.4-3.6 2.4-3.6 0s3.6-2.4 3.6 0M196.4 196c0 2.3-3.6 2.3-3.6 0 0-2.5 3.6-2.5 3.6 0M200.3 194.9c0 2.4-3.6 2.4-3.6 0s3.6-2.4 3.6 0M204.2 215c0 2.3-3.6 2.3-3.6 0 0-2.5 3.6-2.5 3.6 0M208 210.7c0 2.4-3.5 2.4-3.5 0s3.6-2.4 3.6 0M212 228.5c0 2.4-3.6 2.4-3.6 0s3.6-2.4 3.6 0M215.8 230.9c0 2.4-3.6 2.4-3.6 0s3.6-2.4 3.6 0M219.7 213.7c0 2.4-3.6 2.4-3.6 0s3.6-2.4 3.6 0M223.6 210c0 2.5-3.6 2.5-3.6 0 0-2.3 3.6-2.3 3.6 0M227.5 227.2c0 2.4-3.6 2.4-3.6 0s3.6-2.4 3.6 0M231.4 224.1c0 2.4-3.7 2.4-3.7 0s3.7-2.4 3.7 0M235.2 230.2c0 2.4-3.6 2.4-3.6 0s3.6-2.4 3.6 0M239.1 211.3c0 2.4-3.6 2.4-3.6 0s3.6-2.4 3.6 0M243 194.4c0 2.4-3.6 2.4-3.6 0s3.6-2.4 3.6 0M246.9 232.4c0 2.4-3.6 2.4-3.6 0s3.6-2.4 3.6 0M250.7 159.8c0 2.4-3.6 2.4-3.6 0s3.6-2.4 3.6 0M254.6 177.2c0 2.4-3.6 2.4-3.6 0s3.6-2.4 3.6 0M258.5 191.4c0 2.4-3.6 2.4-3.6 0s3.6-2.4 3.6 0M262.4 173.4c0 2.4-3.6 2.4-3.6 0s3.6-2.4 3.6 0M266.3 155.3c0 2.4-3.6 2.4-3.6 0s3.6-2.4 3.6 0M270.1 136.7c0 2.4-3.6 2.4-3.6 0s3.6-2.4 3.6 0M274 142.2c0 2.4-3.6 2.4-3.6 0s3.6-2.4 3.6 0M277.9 120c0 2.4-3.6 2.4-3.6 0s3.6-2.4 3.6 0M281.8 135.2c0 2.4-3.6 2.4-3.6 0s3.6-2.4 3.6 0M285.7 103.5c0 2.4-3.6 2.4-3.6 0s3.6-2.4 3.6 0M289.5 116c0 2.4-3.6 2.4-3.6 0s3.6-2.4 3.6 0M293.4 114.7c0 2.4-3.6 2.4-3.6 0s3.6-2.4 3.6 0M297.3 105c0 2.3-3.6 2.3-3.6 0 0-2.5 3.6-2.5 3.6 0M301.2 139.2c0 2.4-3.6 2.4-3.6 0s3.6-2.4 3.6 0M305 116.5c0 2.4-3.6 2.4-3.6 0s3.6-2.4 3.6 0M309 129.5c0 2.4-3.7 2.4-3.7 0s3.6-2.4 3.6 0M312.8 157.4c0 2.4-3.6 2.4-3.6 0s3.6-2.4 3.6 0M316.7 150.7c0 2.4-3.6 2.4-3.6 0s3.6-2.4 3.6 0M320.6 156.6c0 2.4-3.6 2.4-3.6 0s3.6-2.4 3.6 0M324.4 180.3c0 2.4-3.6 2.4-3.6 0s3.6-2.4 3.6 0M328.3 180.6c0 2.4-3.6 2.4-3.6 0s3.6-2.4 3.6 0M332.2 214.2c0 2.4-3.6 2.4-3.6 0s3.6-2.4 3.6 0M336 216.6c0 2.4-3.5 2.4-3.5 0s3.6-2.4 3.6 0M340 188c0 2.4-3.6 2.4-3.6 0s3.6-2.4 3.6 0M343.8 209.7c0 2.4-3.6 2.4-3.6 0s3.6-2.4 3.6 0M347.7 209.3c0 2.4-3.6 2.4-3.6 0s3.6-2.4 3.6 0M351.6 193.8c0 2.4-3.6 2.4-3.6 0s3.6-2.4 3.6 0M355.5 163.7c0 2.4-3.6 2.4-3.6 0s3.6-2.4 3.6 0M359.4 167.3c0 2.4-3.6 2.4-3.6 0s3.6-2.4 3.6 0M363.2 174c0 2.3-3.6 2.3-3.6 0 0-2.5 3.6-2.5 3.6 0M367.1 166c0 2.4-3.6 2.4-3.6 0s3.6-2.4 3.6 0M371 160.7c0 2.4-3.6 2.4-3.6 0s3.6-2.4 3.6 0M374.9 164.8c0 2.4-3.6 2.4-3.6 0s3.6-2.4 3.6 0M378.7 171.2c0 2.4-3.6 2.4-3.6 0s3.6-2.4 3.6 0M382.6 157.4c0 2.4-3.6 2.4-3.6 0s3.6-2.4 3.6 0M386.5 142c0 2.4-3.6 2.4-3.6 0s3.6-2.4 3.6 0M390.4 194.3c0 2.4-3.6 2.4-3.6 0s3.6-2.4 3.6 0M394.3 206.7c0 2.4-3.6 2.4-3.6 0s3.6-2.4 3.6 0M398.1 205.1c0 2.4-3.6 2.4-3.6 0s3.6-2.4 3.6 0M402 190.6c0 2.4-3.6 2.4-3.6 0s3.6-2.4 3.6 0M405.9 214c0 2.4-3.6 2.4-3.6 0s3.6-2.4 3.6 0M409.8 224.3c0 2.4-3.6 2.4-3.6 0s3.6-2.4 3.6 0M413.7 230c0 2.4-3.6 2.4-3.6 0s3.6-2.4 3.6 0M417.5 229c0 2.3-3.6 2.3-3.6 0 0-2.5 3.6-2.5 3.6 0M421.4 252.9c0 2.4-3.6 2.4-3.6 0s3.6-2.4 3.6 0M425.3 243.5c0 2.4-3.6 2.4-3.6 0s3.6-2.4 3.6 0M429.2 231.3c0 2.4-3.6 2.4-3.6 0s3.6-2.4 3.6 0M433 249.5c0 2.4-3.6 2.4-3.6 0s3.6-2.4 3.6 0M437 231.2c0 2.4-3.7 2.4-3.7 0s3.6-2.4 3.6 0M440.8 235.8c0 2.4-3.6 2.4-3.6 0s3.6-2.4 3.6 0M444.7 226.8c0 2.4-3.6 2.4-3.6 0s3.6-2.4 3.6 0M448.6 222c0 2.3-3.6 2.3-3.6 0 0-2.5 3.6-2.5 3.6 0M452.4 231.6c0 2.4-3.6 2.4-3.6 0s3.6-2.4 3.6 0M456.3 237c0 2.4-3.6 2.4-3.6 0s3.6-2.4 3.6 0M460.2 206.5c0 2.4-3.6 2.4-3.6 0s3.6-2.4 3.6 0" fill="#33a02c" stroke-width=".8" stroke-linecap="round" stroke-linejoin="round" stroke="#33a02c" stroke-miterlimit="10"/><path d="M76.2 262.8c0 2.4-3.6 2.4-3.6 0s3.6-2.4 3.6 0M80 269.7c0 2.4-3.5 2.4-3.5 0s3.6-2.4 3.6 0M84 271c0 2.4-3.6 2.4-3.6 0s3.6-2.4 3.6 0M87.8 268.7c0 2.4-3.6 2.4-3.6 0s3.6-2.4 3.6 0M91.7 271c0 2.4-3.6 2.4-3.6 0s3.6-2.4 3.6 0M95.6 271.6c0 2.4-3.6 2.4-3.6 0s3.6-2.4 3.6 0M99.5 272.5c0 2.4-3.6 2.4-3.6 0s3.6-2.4 3.6 0M103.4 271.3c0 2.4-3.7 2.4-3.7 0s3.7-2.4 3.7 0M107.2 273c0 2.4-3.6 2.4-3.6 0s3.6-2.4 3.6 0M111.1 268c0 2.5-3.6 2.5-3.6 0 0-2.3 3.6-2.3 3.6 0M115 269c0 2.4-3.6 2.4-3.6 0s3.6-2.4 3.6 0M118.9 269.8c0 2.4-3.6 2.4-3.6 0s3.6-2.4 3.6 0M122.7 270.7c0 2.4-3.6 2.4-3.6 0s3.6-2.4 3.6 0M126.6 256.7c0 2.4-3.6 2.4-3.6 0s3.6-2.4 3.6 0M130.5 261.3c0 2.4-3.6 2.4-3.6 0s3.6-2.4 3.6 0M134.4 259.4c0 2.4-3.6 2.4-3.6 0s3.6-2.4 3.6 0M138.3 242.5c0 2.4-3.6 2.4-3.6 0s3.6-2.4 3.6 0M142.1 234.9c0 2.4-3.6 2.4-3.6 0s3.6-2.4 3.6 0M146 231.1c0 2.4-3.6 2.4-3.6 0s3.6-2.4 3.6 0M149.9 214.8c0 2.4-3.6 2.4-3.6 0s3.6-2.4 3.6 0M153.8 221.2c0 2.4-3.6 2.4-3.6 0s3.6-2.4 3.6 0M157.7 221.5c0 2.4-3.6 2.4-3.6 0s3.6-2.4 3.6 0M161.5 219.4c0 2.4-3.6 2.4-3.6 0s3.6-2.4 3.6 0M165.4 222c0 2.5-3.6 2.5-3.6 0 0-2.3 3.6-2.3 3.6 0M169.3 222.8c0 2.4-3.6 2.4-3.6 0s3.6-2.4 3.6 0M173.2 230.6c0 2.3-3.6 2.3-3.6 0 0-2.5 3.6-2.5 3.6 0M177 242.6c0 2.4-3.6 2.4-3.6 0s3.6-2.4 3.6 0M181 220.9c0 2.4-3.7 2.4-3.7 0s3.6-2.4 3.6 0M184.8 248.4c0 2.4-3.6 2.4-3.6 0s3.6-2.4 3.6 0M188.7 245.3c0 2.4-3.6 2.4-3.6 0s3.6-2.4 3.6 0M192.6 257.3c0 2.4-3.6 2.4-3.6 0s3.6-2.4 3.6 0M196.4 265.1c0 2.4-3.6 2.4-3.6 0s3.6-2.4 3.6 0M200.3 267.8c0 2.4-3.6 2.4-3.6 0s3.6-2.4 3.6 0M204.2 270.2c0 2.4-3.6 2.4-3.6 0s3.6-2.4 3.6 0M208 272.7c0 2.4-3.5 2.4-3.5 0s3.6-2.4 3.6 0M212 275.6c0 2.4-3.6 2.4-3.6 0s3.6-2.4 3.6 0M215.8 275.5c0 2.4-3.6 2.4-3.6 0s3.6-2.4 3.6 0M219.7 275.5c0 2.4-3.6 2.4-3.6 0s3.6-2.4 3.6 0M223.6 274.2c0 2.4-3.6 2.4-3.6 0s3.6-2.4 3.6 0M227.5 276.5c0 2.4-3.6 2.4-3.6 0s3.6-2.4 3.6 0M231.4 276.2c0 2.4-3.7 2.4-3.7 0s3.7-2.4 3.7 0M235.2 276.4c0 2.4-3.6 2.4-3.6 0s3.6-2.4 3.6 0M239.1 276.3c0 2.4-3.6 2.4-3.6 0s3.6-2.4 3.6 0M243 275.3c0 2.4-3.6 2.4-3.6 0s3.6-2.4 3.6 0M246.9 275c0 2.5-3.6 2.5-3.6 0 0-2.3 3.6-2.3 3.6 0M250.7 276.1c0 2.4-3.6 2.4-3.6 0s3.6-2.4 3.6 0M254.6 274.6c0 2.4-3.6 2.4-3.6 0s3.6-2.4 3.6 0M258.5 276.5c0 2.4-3.6 2.4-3.6 0s3.6-2.4 3.6 0M262.4 274.5c0 2.4-3.6 2.4-3.6 0s3.6-2.4 3.6 0M266.3 274.2c0 2.4-3.6 2.4-3.6 0s3.6-2.4 3.6 0M270.1 271.5c0 2.4-3.6 2.4-3.6 0s3.6-2.4 3.6 0M274 273.4c0 2.4-3.6 2.4-3.6 0s3.6-2.4 3.6 0M277.9 273c0 2.5-3.6 2.5-3.6 0 0-2.3 3.6-2.3 3.6 0M281.8 274c0 2.4-3.6 2.4-3.6 0s3.6-2.4 3.6 0M285.7 272.2c0 2.4-3.6 2.4-3.6 0s3.6-2.4 3.6 0M289.5 271.8c0 2.4-3.6 2.4-3.6 0s3.6-2.4 3.6 0M293.4 267c0 2.5-3.6 2.5-3.6 0 0-2.3 3.6-2.3 3.6 0M297.3 270.9c0 2.4-3.6 2.4-3.6 0s3.6-2.4 3.6 0M301.2 265.6c0 2.4-3.6 2.4-3.6 0s3.6-2.4 3.6 0M305 264.8c0 2.4-3.6 2.4-3.6 0s3.6-2.4 3.6 0M309 261.8c0 2.4-3.7 2.4-3.7 0s3.6-2.4 3.6 0M312.8 264.1c0 2.4-3.6 2.4-3.6 0s3.6-2.4 3.6 0M316.7 264.6c0 2.4-3.6 2.4-3.6 0s3.6-2.4 3.6 0M320.6 258.9c0 2.4-3.6 2.4-3.6 0s3.6-2.4 3.6 0M324.4 253.8c0 2.4-3.6 2.4-3.6 0s3.6-2.4 3.6 0M328.3 235c0 2.4-3.6 2.4-3.6 0s3.6-2.4 3.6 0M332.2 260c0 2.4-3.6 2.4-3.6 0s3.6-2.4 3.6 0M336 261.9c0 2.4-3.5 2.4-3.5 0s3.6-2.4 3.6 0M340 254.7c0 2.4-3.6 2.4-3.6 0s3.6-2.4 3.6 0M343.8 264.2c0 2.4-3.6 2.4-3.6 0s3.6-2.4 3.6 0M347.7 251.4c0 2.4-3.6 2.4-3.6 0s3.6-2.4 3.6 0M351.6 250.8c0 2.4-3.6 2.4-3.6 0s3.6-2.4 3.6 0M355.5 255c0 2.3-3.6 2.3-3.6 0 0-2.5 3.6-2.5 3.6 0M359.4 254.3c0 2.4-3.6 2.4-3.6 0s3.6-2.4 3.6 0M363.2 263.8c0 2.4-3.6 2.4-3.6 0s3.6-2.4 3.6 0M367.1 256c0 2.4-3.6 2.4-3.6 0s3.6-2.4 3.6 0M371 253.8c0 2.4-3.6 2.4-3.6 0s3.6-2.4 3.6 0M374.9 265.7c0 2.4-3.6 2.4-3.6 0s3.6-2.4 3.6 0M378.7 262.3c0 2.4-3.6 2.4-3.6 0s3.6-2.4 3.6 0M382.6 269.4c0 2.4-3.6 2.4-3.6 0s3.6-2.4 3.6 0M386.5 273.5c0 2.4-3.6 2.4-3.6 0s3.6-2.4 3.6 0M390.4 262.5c0 2.4-3.6 2.4-3.6 0s3.6-2.4 3.6 0M394.3 265.6c0 2.4-3.6 2.4-3.6 0s3.6-2.4 3.6 0M398.1 264.5c0 2.4-3.6 2.4-3.6 0s3.6-2.4 3.6 0M402 252.5c0 2.4-3.6 2.4-3.6 0s3.6-2.4 3.6 0M405.9 264c0 2.5-3.6 2.5-3.6 0 0-2.3 3.6-2.3 3.6 0M409.8 257.8c0 2.4-3.6 2.4-3.6 0s3.6-2.4 3.6 0M413.7 254.6c0 2.4-3.6 2.4-3.6 0s3.6-2.4 3.6 0M417.5 236.5c0 2.4-3.6 2.4-3.6 0s3.6-2.4 3.6 0M421.4 221.2c0 2.4-3.6 2.4-3.6 0s3.6-2.4 3.6 0M425.3 251.2c0 2.4-3.6 2.4-3.6 0s3.6-2.4 3.6 0M429.2 244.7c0 2.4-3.6 2.4-3.6 0s3.6-2.4 3.6 0M433 234.9c0 2.4-3.6 2.4-3.6 0s3.6-2.4 3.6 0M437 236.7c0 2.4-3.7 2.4-3.7 0s3.6-2.4 3.6 0M440.8 195c0 2.4-3.6 2.4-3.6 0s3.6-2.4 3.6 0M444.7 206.8c0 2.4-3.6 2.4-3.6 0s3.6-2.4 3.6 0M448.6 234.8c0 2.4-3.6 2.4-3.6 0s3.6-2.4 3.6 0M452.4 198.5c0 2.4-3.6 2.4-3.6 0s3.6-2.4 3.6 0M456.3 209c0 2.5-3.6 2.5-3.6 0 0-2.3 3.6-2.3 3.6 0M460.2 215.5c0 2.4-3.6 2.4-3.6 0s3.6-2.4 3.6 0" fill="#fb9a99" stroke-width=".8" stroke-linecap="round" stroke-linejoin="round" stroke="#fb9a99" stroke-miterlimit="10"/><path d="M76.2 105.5c0 2.4-3.6 2.4-3.6 0s3.6-2.4 3.6 0M80 114.6c0 2.4-3.5 2.4-3.5 0s3.6-2.4 3.6 0M84 102c0 2.5-3.6 2.5-3.6 0 0-2.3 3.6-2.3 3.6 0M87.8 89c0 2.4-3.6 2.4-3.6 0s3.6-2.4 3.6 0M91.7 84.6c0 2.4-3.6 2.4-3.6 0s3.6-2.4 3.6 0M95.6 77.1c0 2.4-3.6 2.4-3.6 0s3.6-2.4 3.6 0M99.5 77c0 2.3-3.6 2.3-3.6 0 0-2.5 3.6-2.5 3.6 0M103.4 74.5c0 2.4-3.7 2.4-3.7 0s3.7-2.4 3.7 0M107.2 73c0 2.4-3.6 2.4-3.6 0s3.6-2.4 3.6 0M111.1 75.4c0 2.4-3.6 2.4-3.6 0s3.6-2.4 3.6 0M115 75.5c0 2.4-3.6 2.4-3.6 0s3.6-2.4 3.6 0M118.9 79c0 2.4-3.6 2.4-3.6 0s3.6-2.4 3.6 0M122.7 74.6c0 2.4-3.6 2.4-3.6 0s3.6-2.4 3.6 0M126.6 77.4c0 2.4-3.6 2.4-3.6 0s3.6-2.4 3.6 0M130.5 79.6c0 2.4-3.6 2.4-3.6 0s3.6-2.4 3.6 0M134.4 78.4c0 2.4-3.6 2.4-3.6 0s3.6-2.4 3.6 0M138.3 84.2c0 2.4-3.6 2.4-3.6 0s3.6-2.4 3.6 0M142.1 87.3c0 2.4-3.6 2.4-3.6 0s3.6-2.4 3.6 0M146 91.3c0 2.4-3.6 2.4-3.6 0s3.6-2.4 3.6 0M149.9 89c0 2.3-3.6 2.3-3.6 0 0-2.5 3.6-2.5 3.6 0M153.8 106.8c0 2.4-3.6 2.4-3.6 0s3.6-2.4 3.6 0M157.7 89.2c0 2.4-3.6 2.4-3.6 0s3.6-2.4 3.6 0M161.5 88.3c0 2.4-3.6 2.4-3.6 0s3.6-2.4 3.6 0M165.4 90c0 2.5-3.6 2.5-3.6 0 0-2.3 3.6-2.3 3.6 0M169.3 100.6c0 2.4-3.6 2.4-3.6 0s3.6-2.4 3.6 0M173.2 84.5c0 2.4-3.6 2.4-3.6 0s3.6-2.4 3.6 0M177 82.6c0 2.4-3.6 2.4-3.6 0s3.6-2.4 3.6 0M181 86.4c0 2.3-3.7 2.3-3.7 0 0-2.5 3.6-2.5 3.6 0M184.8 88.4c0 2.4-3.6 2.4-3.6 0s3.6-2.4 3.6 0M188.7 77c0 2.4-3.6 2.4-3.6 0s3.6-2.4 3.6 0M192.6 94.3c0 2.4-3.6 2.4-3.6 0s3.6-2.4 3.6 0M196.4 90.8c0 2.4-3.6 2.4-3.6 0s3.6-2.4 3.6 0M200.3 101.9c0 2.4-3.6 2.4-3.6 0s3.6-2.4 3.6 0M204.2 111.7c0 2.4-3.6 2.4-3.6 0s3.6-2.4 3.6 0M208 99.8c0 2.4-3.5 2.4-3.5 0s3.6-2.4 3.6 0M212 124.3c0 2.4-3.6 2.4-3.6 0s3.6-2.4 3.6 0M215.8 131.2c0 2.4-3.6 2.4-3.6 0s3.6-2.4 3.6 0M219.7 178.6c0 2.4-3.6 2.4-3.6 0s3.6-2.4 3.6 0M223.6 189.5c0 2.4-3.6 2.4-3.6 0s3.6-2.4 3.6 0M227.5 199.5c0 2.4-3.6 2.4-3.6 0s3.6-2.4 3.6 0M231.4 209.3c0 2.4-3.7 2.4-3.7 0s3.7-2.4 3.7 0M235.2 228.3c0 2.4-3.6 2.4-3.6 0s3.6-2.4 3.6 0M239.1 244.3c0 2.4-3.6 2.4-3.6 0s3.6-2.4 3.6 0M243 233.3c0 2.4-3.6 2.4-3.6 0s3.6-2.4 3.6 0M246.9 233.4c0 2.4-3.6 2.4-3.6 0s3.6-2.4 3.6 0M250.7 255.8c0 2.4-3.6 2.4-3.6 0s3.6-2.4 3.6 0M254.6 243.4c0 2.3-3.6 2.3-3.6 0 0-2.5 3.6-2.5 3.6 0M258.5 248.7c0 2.4-3.6 2.4-3.6 0s3.6-2.4 3.6 0M262.4 252.4c0 2.4-3.6 2.4-3.6 0s3.6-2.4 3.6 0M266.3 232.2c0 2.4-3.6 2.4-3.6 0s3.6-2.4 3.6 0M270.1 212.5c0 2.4-3.6 2.4-3.6 0s3.6-2.4 3.6 0M274 227.8c0 2.4-3.6 2.4-3.6 0s3.6-2.4 3.6 0M277.9 204.5c0 2.4-3.6 2.4-3.6 0s3.6-2.4 3.6 0M281.8 185.5c0 2.4-3.6 2.4-3.6 0s3.6-2.4 3.6 0M285.7 204.5c0 2.4-3.6 2.4-3.6 0s3.6-2.4 3.6 0M289.5 187.6c0 2.4-3.6 2.4-3.6 0s3.6-2.4 3.6 0M293.4 146.2c0 2.4-3.6 2.4-3.6 0s3.6-2.4 3.6 0M297.3 122.4c0 2.4-3.6 2.4-3.6 0s3.6-2.4 3.6 0M301.2 123.2c0 2.4-3.6 2.4-3.6 0s3.6-2.4 3.6 0M305 128c0 2.3-3.6 2.3-3.6 0 0-2.5 3.6-2.5 3.6 0M309 113c0 2.3-3.7 2.3-3.7 0 0-2.5 3.6-2.5 3.6 0M312.8 122.9c0 2.4-3.6 2.4-3.6 0s3.6-2.4 3.6 0M316.7 97.4c0 2.4-3.6 2.4-3.6 0s3.6-2.4 3.6 0M320.6 103.7c0 2.4-3.6 2.4-3.6 0s3.6-2.4 3.6 0M324.4 103.4c0 2.4-3.6 2.4-3.6 0s3.6-2.4 3.6 0M328.3 114.6c0 2.4-3.6 2.4-3.6 0s3.6-2.4 3.6 0M332.2 95c0 2.5-3.6 2.5-3.6 0 0-2.3 3.6-2.3 3.6 0M336 121.4c0 2.4-3.5 2.4-3.5 0s3.6-2.4 3.6 0M340 108c0 2.5-3.6 2.5-3.6 0 0-2.3 3.6-2.3 3.6 0M343.8 118c0 2.4-3.6 2.4-3.6 0s3.6-2.4 3.6 0M347.7 115.8c0 2.4-3.6 2.4-3.6 0s3.6-2.4 3.6 0M351.6 94.7c0 2.4-3.6 2.4-3.6 0s3.6-2.4 3.6 0M355.5 111.4c0 2.4-3.6 2.4-3.6 0s3.6-2.4 3.6 0M359.4 96.8c0 2.4-3.6 2.4-3.6 0s3.6-2.4 3.6 0M363.2 100.3c0 2.4-3.6 2.4-3.6 0s3.6-2.4 3.6 0M367.1 86.8c0 2.4-3.6 2.4-3.6 0s3.6-2.4 3.6 0M371 98.7c0 2.4-3.6 2.4-3.6 0s3.6-2.4 3.6 0M374.9 120.1c0 2.4-3.6 2.4-3.6 0s3.6-2.4 3.6 0M378.7 107.4c0 2.4-3.6 2.4-3.6 0s3.6-2.4 3.6 0M382.6 96.4c0 2.4-3.6 2.4-3.6 0s3.6-2.4 3.6 0M386.5 127.3c0 2.4-3.6 2.4-3.6 0s3.6-2.4 3.6 0M390.4 111.7c0 2.4-3.6 2.4-3.6 0s3.6-2.4 3.6 0M394.3 115.7c0 2.4-3.6 2.4-3.6 0s3.6-2.4 3.6 0M398.1 136.7c0 2.4-3.6 2.4-3.6 0s3.6-2.4 3.6 0M402 123.6c0 2.5-3.6 2.5-3.6 0 0-2.3 3.6-2.3 3.6 0M405.9 148.3c0 2.4-3.6 2.4-3.6 0s3.6-2.4 3.6 0M409.8 179.4c0 2.4-3.6 2.4-3.6 0s3.6-2.4 3.6 0M413.7 167.5c0 2.4-3.6 2.4-3.6 0s3.6-2.4 3.6 0M417.5 177.8c0 2.4-3.6 2.4-3.6 0s3.6-2.4 3.6 0M421.4 216.7c0 2.4-3.6 2.4-3.6 0s3.6-2.4 3.6 0M425.3 205c0 2.4-3.6 2.4-3.6 0s3.6-2.4 3.6 0M429.2 220.3c0 2.4-3.6 2.4-3.6 0s3.6-2.4 3.6 0M433 212c0 2.3-3.6 2.3-3.6 0 0-2.5 3.6-2.5 3.6 0M437 225.6c0 2.4-3.7 2.4-3.7 0s3.6-2.4 3.6 0M440.8 228.6c0 2.4-3.6 2.4-3.6 0s3.6-2.4 3.6 0M444.7 224.2c0 2.4-3.6 2.4-3.6 0s3.6-2.4 3.6 0M448.6 218.4c0 2.4-3.6 2.4-3.6 0s3.6-2.4 3.6 0M452.4 191.7c0 2.4-3.6 2.4-3.6 0s3.6-2.4 3.6 0M456.3 130.4c0 2.4-3.6 2.4-3.6 0s3.6-2.4 3.6 0M460.2 160.8c0 2.3-3.6 2.3-3.6 0 0-2.5 3.6-2.5 3.6 0" fill="#e31a1c" stroke-width=".8" stroke-linecap="round" stroke-linejoin="round" stroke="#e31a1c" stroke-miterlimit="10"/><path d="M76.2 277.5c0 2.4-3.6 2.4-3.6 0s3.6-2.4 3.6 0M80 277.2c0 2.4-3.5 2.4-3.5 0s3.6-2.4 3.6 0M84 277.2c0 2.4-3.6 2.4-3.6 0s3.6-2.4 3.6 0M87.8 277.4c0 2.4-3.6 2.4-3.6 0s3.6-2.4 3.6 0M91.7 277c0 2.3-3.6 2.3-3.6 0 0-2.5 3.6-2.5 3.6 0M95.6 276.4c0 2.4-3.6 2.4-3.6 0s3.6-2.4 3.6 0M99.5 276c0 2.4-3.6 2.4-3.6 0s3.6-2.4 3.6 0M103.4 275.4c0 2.4-3.7 2.4-3.7 0s3.7-2.4 3.7 0M107.2 273.4c0 2.4-3.6 2.4-3.6 0s3.6-2.4 3.6 0M111.1 269.2c0 2.4-3.6 2.4-3.6 0s3.6-2.4 3.6 0M115 272.5c0 2.4-3.6 2.4-3.6 0s3.6-2.4 3.6 0M118.9 266.7c0 2.4-3.6 2.4-3.6 0s3.6-2.4 3.6 0M122.7 252.5c0 2.4-3.6 2.4-3.6 0s3.6-2.4 3.6 0M126.6 225.2c0 2.4-3.6 2.4-3.6 0s3.6-2.4 3.6 0M130.5 237.5c0 2.4-3.6 2.4-3.6 0s3.6-2.4 3.6 0M134.4 206.5c0 2.4-3.6 2.4-3.6 0s3.6-2.4 3.6 0M138.3 165.6c0 2.4-3.6 2.4-3.6 0s3.6-2.4 3.6 0M142.1 194.2c0 2.4-3.6 2.4-3.6 0s3.6-2.4 3.6 0M146 146.5c0 2.4-3.6 2.4-3.6 0s3.6-2.4 3.6 0M149.9 136.6c0 2.4-3.6 2.4-3.6 0s3.6-2.4 3.6 0M153.8 155.5c0 2.4-3.6 2.4-3.6 0s3.6-2.4 3.6 0M157.7 159.9c0 2.4-3.6 2.4-3.6 0s3.6-2.4 3.6 0M161.5 135.2c0 2.4-3.6 2.4-3.6 0s3.6-2.4 3.6 0M165.4 145.1c0 2.4-3.6 2.4-3.6 0s3.6-2.4 3.6 0M169.3 149.7c0 2.4-3.6 2.4-3.6 0s3.6-2.4 3.6 0M173.2 135.3c0 2.4-3.6 2.4-3.6 0s3.6-2.4 3.6 0M177 155c0 2.4-3.6 2.4-3.6 0s3.6-2.4 3.6 0M181 136.3c0 2.4-3.7 2.4-3.7 0s3.6-2.4 3.6 0M184.8 169c0 2.4-3.6 2.4-3.6 0s3.6-2.4 3.6 0M188.7 185c0 2.4-3.6 2.4-3.6 0s3.6-2.4 3.6 0M192.6 189.8c0 2.4-3.6 2.4-3.6 0s3.6-2.4 3.6 0M196.4 206.5c0 2.4-3.6 2.4-3.6 0s3.6-2.4 3.6 0M200.3 206c0 2.4-3.6 2.4-3.6 0s3.6-2.4 3.6 0M204.2 215c0 2.4-3.6 2.4-3.6 0s3.6-2.4 3.6 0M208 202.4c0 2.4-3.5 2.4-3.5 0s3.6-2.4 3.6 0M212 204.4c0 2.4-3.6 2.4-3.6 0s3.6-2.4 3.6 0M215.8 215.1c0 2.4-3.6 2.4-3.6 0 0-2.3 3.6-2.3 3.6 0M219.7 210.2c0 2.4-3.6 2.4-3.6 0s3.6-2.4 3.6 0M223.6 193.2c0 2.4-3.6 2.4-3.6 0s3.6-2.4 3.6 0M227.5 217c0 2.3-3.6 2.3-3.6 0 0-2.5 3.6-2.5 3.6 0M231.4 229.9c0 2.4-3.7 2.4-3.7 0s3.7-2.4 3.7 0M235.2 226.4c0 2.4-3.6 2.4-3.6 0s3.6-2.4 3.6 0M239.1 234.2c0 2.4-3.6 2.4-3.6 0s3.6-2.4 3.6 0M243 181.9c0 2.4-3.6 2.4-3.6 0s3.6-2.4 3.6 0M246.9 200.6c0 2.4-3.6 2.4-3.6 0s3.6-2.4 3.6 0M250.7 227.7c0 2.4-3.6 2.4-3.6 0s3.6-2.4 3.6 0M254.6 214c0 2.4-3.6 2.4-3.6 0s3.6-2.4 3.6 0M258.5 209.7c0 2.4-3.6 2.4-3.6 0s3.6-2.4 3.6 0M262.4 208.2c0 2.4-3.6 2.4-3.6 0s3.6-2.4 3.6 0M266.3 205c0 2.5-3.6 2.5-3.6 0 0-2.3 3.6-2.3 3.6 0M270.1 196.1c0 2.4-3.6 2.4-3.6 0s3.6-2.4 3.6 0M274 228c0 2.5-3.6 2.5-3.6 0 0-2.3 3.6-2.3 3.6 0M277.9 205.6c0 2.4-3.6 2.4-3.6 0s3.6-2.4 3.6 0M281.8 217.7c0 2.4-3.6 2.4-3.6 0s3.6-2.4 3.6 0M285.7 219.6c0 2.4-3.6 2.4-3.6 0s3.6-2.4 3.6 0M289.5 247.6c0 2.4-3.6 2.4-3.6 0s3.6-2.4 3.6 0M293.4 220.5c0 2.4-3.6 2.4-3.6 0s3.6-2.4 3.6 0M297.3 258.4c0 2.4-3.6 2.4-3.6 0s3.6-2.4 3.6 0M301.2 252c0 2.5-3.6 2.5-3.6 0 0-2.3 3.6-2.3 3.6 0M305 259c0 2.5-3.6 2.5-3.6 0 0-2.3 3.6-2.3 3.6 0M309 269.2c0 2.4-3.7 2.4-3.7 0s3.6-2.4 3.6 0M312.8 263c0 2.3-3.6 2.3-3.6 0 0-2.5 3.6-2.5 3.6 0M316.7 270.6c0 2.4-3.6 2.4-3.6 0s3.6-2.4 3.6 0M320.6 268.1c0 2.4-3.6 2.4-3.6 0s3.6-2.4 3.6 0M324.4 270.2c0 2.4-3.6 2.4-3.6 0s3.6-2.4 3.6 0M328.3 273.9c0 2.4-3.6 2.4-3.6 0s3.6-2.4 3.6 0M332.2 271.8c0 2.4-3.6 2.4-3.6 0s3.6-2.4 3.6 0M336 273.5c0 2.4-3.5 2.4-3.5 0s3.6-2.4 3.6 0M340 273.9c0 2.4-3.6 2.4-3.6 0s3.6-2.4 3.6 0M343.8 273.1c0 2.4-3.6 2.4-3.6 0s3.6-2.4 3.6 0M347.7 275.1c0 2.4-3.6 2.4-3.6 0s3.6-2.4 3.6 0M351.6 274.9c0 2.4-3.6 2.4-3.6 0s3.6-2.4 3.6 0M355.5 272.2c0 2.4-3.6 2.4-3.6 0s3.6-2.4 3.6 0M359.4 274c0 2.5-3.6 2.5-3.6 0 0-2.3 3.6-2.3 3.6 0M363.2 269.5c0 2.4-3.6 2.4-3.6 0s3.6-2.4 3.6 0M367.1 268.7c0 2.4-3.6 2.4-3.6 0s3.6-2.4 3.6 0M371 272c0 2.3-3.6 2.3-3.6 0 0-2.5 3.6-2.5 3.6 0M374.9 270c0 2.4-3.6 2.4-3.6 0s3.6-2.4 3.6 0M378.7 258.5c0 2.4-3.6 2.4-3.6 0s3.6-2.4 3.6 0M382.6 263.2c0 2.4-3.6 2.4-3.6 0s3.6-2.4 3.6 0M386.5 261.2c0 2.4-3.6 2.4-3.6 0s3.6-2.4 3.6 0M390.4 254c0 2.4-3.6 2.4-3.6 0s3.6-2.4 3.6 0M394.3 261.8c0 2.4-3.6 2.4-3.6 0s3.6-2.4 3.6 0M398.1 254c0 2.5-3.6 2.5-3.6 0 0-2.3 3.6-2.3 3.6 0M402 251.8c0 2.4-3.6 2.4-3.6 0s3.6-2.4 3.6 0M405.9 255c0 2.5-3.6 2.5-3.6 0 0-2.3 3.6-2.3 3.6 0M409.8 247.7c0 2.4-3.6 2.4-3.6 0s3.6-2.4 3.6 0M413.7 258.9c0 2.4-3.6 2.4-3.6 0s3.6-2.4 3.6 0M417.5 248.6c0 2.4-3.6 2.4-3.6 0s3.6-2.4 3.6 0M421.4 247.7c0 2.4-3.6 2.4-3.6 0s3.6-2.4 3.6 0M425.3 257.9c0 2.4-3.6 2.4-3.6 0s3.6-2.4 3.6 0M429.2 254c0 2.3-3.6 2.3-3.6 0 0-2.5 3.6-2.5 3.6 0M433 241.2c0 2.4-3.6 2.4-3.6 0s3.6-2.4 3.6 0M437 230.4c0 2.4-3.7 2.4-3.7 0s3.6-2.4 3.6 0M440.8 230.7c0 2.4-3.6 2.4-3.6 0s3.6-2.4 3.6 0M444.7 238c0 2.4-3.6 2.4-3.6 0s3.6-2.4 3.6 0M448.6 244.5c0 2.4-3.6 2.4-3.6 0s3.6-2.4 3.6 0M452.4 232c0 2.4-3.6 2.4-3.6 0s3.6-2.4 3.6 0M456.3 240.2c0 2.4-3.6 2.4-3.6 0s3.6-2.4 3.6 0M460.2 251.1c0 2.4-3.6 2.4-3.6 0s3.6-2.4 3.6 0" fill="#a6cee3" stroke-width=".8" stroke-linecap="round" stroke-linejoin="round" stroke="#a6cee3" stroke-miterlimit="10"/><path d="M76.2 116c0 2.5-3.6 2.5-3.6 0 0-2.3 3.6-2.3 3.6 0M80 172.9c0 2.4-3.5 2.4-3.5 0s3.6-2.4 3.6 0M84 151c0 2.3-3.6 2.3-3.6 0 0-2.5 3.6-2.5 3.6 0M87.8 171.7c0 2.4-3.6 2.4-3.6 0s3.6-2.4 3.6 0M91.7 151.9c0 2.4-3.6 2.4-3.6 0s3.6-2.4 3.6 0M95.6 203.4c0 2.4-3.6 2.4-3.6 0s3.6-2.4 3.6 0M99.5 185.6c0 2.4-3.6 2.4-3.6 0s3.6-2.4 3.6 0M103.4 205.3c0 2.4-3.7 2.4-3.7 0s3.7-2.4 3.7 0M107.2 208.2c0 2.4-3.6 2.4-3.6 0s3.6-2.4 3.6 0M111.1 242.6c0 2.4-3.6 2.4-3.6 0s3.6-2.4 3.6 0M115 241.9c0 2.4-3.6 2.4-3.6 0s3.6-2.4 3.6 0M118.9 232c0 2.4-3.6 2.4-3.6 0s3.6-2.4 3.6 0M122.7 253.3c0 2.4-3.6 2.4-3.6 0s3.6-2.4 3.6 0M126.6 229.6c0 2.4-3.6 2.4-3.6 0s3.6-2.4 3.6 0M130.5 251.8c0 2.4-3.6 2.4-3.6 0s3.6-2.4 3.6 0M134.4 232.7c0 2.4-3.6 2.4-3.6 0s3.6-2.4 3.6 0M138.3 228c0 2.4-3.6 2.4-3.6 0s3.6-2.4 3.6 0M142.1 229.2c0 2.4-3.6 2.4-3.6 0s3.6-2.4 3.6 0M146 222.3c0 2.4-3.6 2.4-3.6 0s3.6-2.4 3.6 0M149.9 231.1c0 2.4-3.6 2.4-3.6 0s3.6-2.4 3.6 0M153.8 215.7c0 2.4-3.6 2.4-3.6 0s3.6-2.4 3.6 0M157.7 199c0 2.4-3.6 2.4-3.6 0s3.6-2.4 3.6 0M161.5 197.4c0 2.4-3.6 2.4-3.6 0s3.6-2.4 3.6 0M165.4 188.8c0 2.4-3.6 2.4-3.6 0s3.6-2.4 3.6 0M169.3 195.3c0 2.4-3.6 2.4-3.6 0s3.6-2.4 3.6 0M173.2 180.8c0 2.4-3.6 2.4-3.6 0s3.6-2.4 3.6 0M177 174.8c0 2.4-3.6 2.4-3.6 0s3.6-2.4 3.6 0M181 174c0 2.5-3.7 2.5-3.7 0 0-2.3 3.6-2.3 3.6 0M184.8 149.9c0 2.3-3.6 2.3-3.6 0 0-2.5 3.6-2.5 3.6 0M188.7 183.8c0 2.4-3.6 2.4-3.6 0s3.6-2.4 3.6 0M192.6 196c0 2.4-3.6 2.4-3.6 0s3.6-2.4 3.6 0M196.4 197.8c0 2.4-3.6 2.4-3.6 0s3.6-2.4 3.6 0M200.3 195.5c0 2.4-3.6 2.4-3.6 0s3.6-2.4 3.6 0M204.2 208.3c0 2.4-3.6 2.4-3.6 0s3.6-2.4 3.6 0M208 223.9c0 2.4-3.5 2.4-3.5 0s3.6-2.4 3.6 0M212 212.2c0 2.4-3.6 2.4-3.6 0s3.6-2.4 3.6 0M215.8 212.8c0 2.3-3.6 2.3-3.6 0 0-2.5 3.6-2.5 3.6 0M219.7 223.5c0 2.4-3.6 2.4-3.6 0s3.6-2.4 3.6 0M223.6 194.8c0 2.4-3.6 2.4-3.6 0s3.6-2.4 3.6 0M227.5 185.2c0 2.4-3.6 2.4-3.6 0s3.6-2.4 3.6 0M231.4 153.4c0 2.4-3.7 2.4-3.7 0s3.7-2.4 3.7 0M235.2 129.2c0 2.4-3.6 2.4-3.6 0s3.6-2.4 3.6 0M239.1 149.5c0 2.4-3.6 2.4-3.6 0s3.6-2.4 3.6 0M243 120c0 2.3-3.6 2.3-3.6 0 0-2.5 3.6-2.5 3.6 0M246.9 111.6c0 2.4-3.6 2.4-3.6 0s3.6-2.4 3.6 0M250.7 108.6c0 2.4-3.6 2.4-3.6 0s3.6-2.4 3.6 0M254.6 120c0 2.4-3.6 2.4-3.6 0s3.6-2.4 3.6 0M258.5 94.2c0 2.4-3.6 2.4-3.6 0s3.6-2.4 3.6 0M262.4 84.5c0 2.4-3.6 2.4-3.6 0s3.6-2.4 3.6 0M266.3 105.5c0 2.4-3.6 2.4-3.6 0s3.6-2.4 3.6 0M270.1 91.3c0 2.4-3.6 2.4-3.6 0s3.6-2.4 3.6 0M274 90.2c0 2.4-3.6 2.4-3.6 0s3.6-2.4 3.6 0M277.9 97.6c0 2.4-3.6 2.4-3.6 0s3.6-2.4 3.6 0M281.8 97.8c0 2.4-3.6 2.4-3.6 0s3.6-2.4 3.6 0M285.7 111.1c0 2.4-3.6 2.4-3.6 0s3.6-2.4 3.6 0M289.5 107.8c0 2.4-3.6 2.4-3.6 0s3.6-2.4 3.6 0M293.4 110.2c0 2.4-3.6 2.4-3.6 0s3.6-2.4 3.6 0M297.3 98.4c0 2.4-3.6 2.4-3.6 0s3.6-2.4 3.6 0M301.2 135.6c0 2.4-3.6 2.4-3.6 0s3.6-2.4 3.6 0M305 123c0 2.4-3.6 2.4-3.6 0s3.6-2.4 3.6 0M309 149.5c0 2.4-3.7 2.4-3.7 0s3.6-2.4 3.6 0M312.8 143c0 2.4-3.6 2.4-3.6 0s3.6-2.4 3.6 0M316.7 139.2c0 2.4-3.6 2.4-3.6 0s3.6-2.4 3.6 0M320.6 157.2c0 2.4-3.6 2.4-3.6 0s3.6-2.4 3.6 0M324.4 170.8c0 2.4-3.6 2.4-3.6 0s3.6-2.4 3.6 0M328.3 188.7c0 2.4-3.6 2.4-3.6 0s3.6-2.4 3.6 0M332.2 225.7c0 2.4-3.6 2.4-3.6 0s3.6-2.4 3.6 0M336 205.7c0 2.4-3.5 2.4-3.5 0s3.6-2.4 3.6 0M340 214.3c0 2.4-3.6 2.4-3.6 0s3.6-2.4 3.6 0M343.8 239.3c0 2.4-3.6 2.4-3.6 0s3.6-2.4 3.6 0M347.7 227.8c0 2.4-3.6 2.4-3.6 0s3.6-2.4 3.6 0M351.6 253.2c0 2.4-3.6 2.4-3.6 0s3.6-2.4 3.6 0M355.5 256.7c0 2.4-3.6 2.4-3.6 0s3.6-2.4 3.6 0M359.4 253.6c0 2.4-3.6 2.4-3.6 0s3.6-2.4 3.6 0M363.2 258c0 2.4-3.6 2.4-3.6 0s3.6-2.4 3.6 0M367.1 262.7c0 2.4-3.6 2.4-3.6 0s3.6-2.4 3.6 0M371 264.4c0 2.4-3.6 2.4-3.6 0s3.6-2.4 3.6 0M374.9 272c0 2.4-3.6 2.4-3.6 0s3.6-2.4 3.6 0M378.7 270.2c0 2.4-3.6 2.4-3.6 0s3.6-2.4 3.6 0M382.6 271.8c0 2.4-3.6 2.4-3.6 0s3.6-2.4 3.6 0M386.5 273.6c0 2.4-3.6 2.4-3.6 0s3.6-2.4 3.6 0M390.4 274.5c0 2.4-3.6 2.4-3.6 0s3.6-2.4 3.6 0M394.3 274.3c0 2.4-3.6 2.4-3.6 0s3.6-2.4 3.6 0M398.1 275.3c0 2.4-3.6 2.4-3.6 0s3.6-2.4 3.6 0M402 275.2c0 2.4-3.6 2.4-3.6 0s3.6-2.4 3.6 0M405.9 275.3c0 2.4-3.6 2.4-3.6 0s3.6-2.4 3.6 0M409.8 274.2c0 2.4-3.6 2.4-3.6 0s3.6-2.4 3.6 0M413.7 273.4c0 2.4-3.6 2.4-3.6 0s3.6-2.4 3.6 0M417.5 269.3c0 2.4-3.6 2.4-3.6 0s3.6-2.4 3.6 0M421.4 270.6c0 2.3-3.6 2.3-3.6 0 0-2.4 3.6-2.4 3.6 0M425.3 260c0 2.5-3.6 2.5-3.6 0 0-2.3 3.6-2.3 3.6 0M429.2 263.7c0 2.4-3.6 2.4-3.6 0s3.6-2.4 3.6 0M433 261c0 2.5-3.6 2.5-3.6 0 0-2.3 3.6-2.3 3.6 0M437 262.8c0 2.4-3.7 2.4-3.7 0s3.6-2.4 3.6 0M440.8 261c0 2.5-3.6 2.5-3.6 0 0-2.3 3.6-2.3 3.6 0M444.7 259.3c0 2.4-3.6 2.4-3.6 0s3.6-2.4 3.6 0M448.6 214.1c0 2.4-3.6 2.4-3.6 0s3.6-2.4 3.6 0M452.4 231.7c0 2.4-3.6 2.4-3.6 0s3.6-2.4 3.6 0M456.3 238.5c0 2.4-3.6 2.4-3.6 0s3.6-2.4 3.6 0M460.2 208.8c0 2.4-3.6 2.4-3.6 0s3.6-2.4 3.6 0" fill="#1f78b4" stroke-width=".8" stroke-linecap="round" stroke-linejoin="round" stroke="#1f78b4" stroke-miterlimit="10"/><path d="M76.2 69c0 2.4-3.6 2.4-3.6 0s3.6-2.4 3.6 0M80 69.8c0 2.4-3.5 2.4-3.5 0s3.6-2.4 3.6 0M84 69.6c0 2.4-3.6 2.4-3.6 0s3.6-2.4 3.6 0M87.8 73.3c0 2.4-3.6 2.4-3.6 0s3.6-2.4 3.6 0M91.7 73c0 2.4-3.6 2.4-3.6 0s3.6-2.4 3.6 0M95.6 82.2c0 2.4-3.6 2.4-3.6 0s3.6-2.4 3.6 0M99.5 80.8c0 2.4-3.6 2.4-3.6 0s3.6-2.4 3.6 0M103.4 96.3c0 2.4-3.7 2.4-3.7 0s3.7-2.4 3.7 0M107.2 90.4c0 2.4-3.6 2.4-3.6 0s3.6-2.4 3.6 0M111.1 107c0 2.4-3.6 2.4-3.6 0s3.6-2.4 3.6 0M115 124c0 2.4-3.6 2.4-3.6 0s3.6-2.4 3.6 0M118.9 121c0 2.4-3.6 2.4-3.6 0s3.6-2.4 3.6 0M122.7 102.7c0 2.4-3.6 2.4-3.6 0s3.6-2.4 3.6 0M126.6 151.4c0 2.4-3.6 2.4-3.6 0s3.6-2.4 3.6 0M130.5 141.2c0 2.4-3.6 2.4-3.6 0s3.6-2.4 3.6 0M134.4 196.3c0 2.4-3.6 2.4-3.6 0s3.6-2.4 3.6 0M138.3 168c0 2.3-3.6 2.3-3.6 0 0-2.5 3.6-2.5 3.6 0M142.1 195.3c0 2.4-3.6 2.4-3.6 0s3.6-2.4 3.6 0M146 182.6c0 2.4-3.6 2.4-3.6 0s3.6-2.4 3.6 0M149.9 199.2c0 2.4-3.6 2.4-3.6 0s3.6-2.4 3.6 0M153.8 213.3c0 2.4-3.6 2.4-3.6 0s3.6-2.4 3.6 0M157.7 229c0 2.3-3.6 2.3-3.6 0 0-2.5 3.6-2.5 3.6 0M161.5 222.6c0 2.4-3.6 2.4-3.6 0s3.6-2.4 3.6 0M165.4 233.9c0 2.4-3.6 2.4-3.6 0s3.6-2.4 3.6 0M169.3 236.5c0 2.4-3.6 2.4-3.6 0s3.6-2.4 3.6 0M173.2 237.5c0 2.4-3.6 2.4-3.6 0s3.6-2.4 3.6 0M177 229.7c0 2.4-3.6 2.4-3.6 0s3.6-2.4 3.6 0M181 238.9c0 2.4-3.7 2.4-3.7 0s3.6-2.4 3.6 0M184.8 226.7c0 2.4-3.6 2.4-3.6 0s3.6-2.4 3.6 0M188.7 246.3c0 2.4-3.6 2.4-3.6 0s3.6-2.4 3.6 0M192.6 244.3c0 2.4-3.6 2.4-3.6 0s3.6-2.4 3.6 0M196.4 258.3c0 2.4-3.6 2.4-3.6 0s3.6-2.4 3.6 0M200.3 234.5c0 2.4-3.6 2.4-3.6 0s3.6-2.4 3.6 0M204.2 242.6c0 2.4-3.6 2.4-3.6 0s3.6-2.4 3.6 0M208 230.4c0 2.4-3.5 2.4-3.5 0s3.6-2.4 3.6 0M212 229.7c0 2.4-3.6 2.4-3.6 0s3.6-2.4 3.6 0M215.8 224.8c0 2.4-3.6 2.4-3.6 0s3.6-2.4 3.6 0M219.7 227.4c0 2.4-3.6 2.4-3.6 0s3.6-2.4 3.6 0M223.6 243.5c0 2.4-3.6 2.4-3.6 0s3.6-2.4 3.6 0M227.5 193.4c0 2.4-3.6 2.4-3.6 0s3.6-2.4 3.6 0M231.4 188.5c0 2.4-3.7 2.4-3.7 0s3.7-2.4 3.7 0M235.2 185.8c0 2.4-3.6 2.4-3.6 0s3.6-2.4 3.6 0M239.1 159c0 2.4-3.6 2.4-3.6 0s3.6-2.4 3.6 0M243 132.8c0 2.4-3.6 2.4-3.6 0s3.6-2.4 3.6 0M246.9 136.9c0 2.4-3.6 2.4-3.6 0s3.6-2.4 3.6 0M250.7 117.7c0 2.4-3.6 2.4-3.6 0s3.6-2.4 3.6 0M254.6 115.6c0 2.4-3.6 2.4-3.6 0s3.6-2.4 3.6 0M258.5 91.2c0 2.4-3.6 2.4-3.6 0s3.6-2.4 3.6 0M262.4 109c0 2.5-3.6 2.5-3.6 0 0-2.3 3.6-2.3 3.6 0M266.3 86.3c0 2.4-3.6 2.4-3.6 0s3.6-2.4 3.6 0M270.1 97c0 2.4-3.6 2.4-3.6 0s3.6-2.4 3.6 0M274 91.5c0 2.4-3.6 2.4-3.6 0s3.6-2.4 3.6 0M277.9 99.4c0 2.4-3.6 2.4-3.6 0s3.6-2.4 3.6 0M281.8 101.1c0 2.4-3.6 2.4-3.6 0s3.6-2.4 3.6 0M285.7 94.2c0 2.4-3.6 2.4-3.6 0s3.6-2.4 3.6 0M289.5 122.4c0 2.4-3.6 2.4-3.6 0s3.6-2.4 3.6 0M293.4 137.9c0 2.4-3.6 2.4-3.6 0s3.6-2.4 3.6 0M297.3 140.1c0 2.4-3.6 2.4-3.6 0s3.6-2.4 3.6 0M301.2 130.7c0 2.4-3.6 2.4-3.6 0s3.6-2.4 3.6 0M305 142c0 2.3-3.6 2.3-3.6 0 0-2.5 3.6-2.5 3.6 0M309 157.6c0 2.4-3.7 2.4-3.7 0s3.6-2.4 3.6 0M312.8 129.4c0 2.4-3.6 2.4-3.6 0s3.6-2.4 3.6 0M316.7 139.7c0 2.4-3.6 2.4-3.6 0s3.6-2.4 3.6 0M320.6 146c0 2.4-3.6 2.4-3.6 0s3.6-2.4 3.6 0M324.4 150.5c0 2.4-3.6 2.4-3.6 0s3.6-2.4 3.6 0M328.3 152.4c0 2.4-3.6 2.4-3.6 0s3.6-2.4 3.6 0M332.2 120.7c0 2.4-3.6 2.4-3.6 0s3.6-2.4 3.6 0M336 141.4c0 2.4-3.5 2.4-3.5 0s3.6-2.4 3.6 0M340 124.8c0 2.4-3.6 2.4-3.6 0s3.6-2.4 3.6 0M343.8 150.2c0 2.4-3.6 2.4-3.6 0s3.6-2.4 3.6 0M347.7 114.2c0 2.4-3.6 2.4-3.6 0s3.6-2.4 3.6 0M351.6 140.9c0 2.4-3.6 2.4-3.6 0s3.6-2.4 3.6 0M355.5 114.3c0 2.4-3.6 2.4-3.6 0s3.6-2.4 3.6 0M359.4 122c0 2.4-3.6 2.4-3.6 0s3.6-2.4 3.6 0M363.2 122.7c0 2.4-3.6 2.4-3.6 0s3.6-2.4 3.6 0M367.1 108.7c0 2.4-3.6 2.4-3.6 0s3.6-2.4 3.6 0M371 103.4c0 2.4-3.6 2.4-3.6 0s3.6-2.4 3.6 0M374.9 95.5c0 2.4-3.6 2.4-3.6 0s3.6-2.4 3.6 0M378.7 99.4c0 2.4-3.6 2.4-3.6 0s3.6-2.4 3.6 0M382.6 87.8c0 2.4-3.6 2.4-3.6 0s3.6-2.4 3.6 0M386.5 87.3c0 2.4-3.6 2.4-3.6 0s3.6-2.4 3.6 0M390.4 94.4c0 2.4-3.6 2.4-3.6 0s3.6-2.4 3.6 0M394.3 83.6c0 2.4-3.6 2.4-3.6 0s3.6-2.4 3.6 0M398.1 75c0 2.4-3.6 2.4-3.6 0s3.6-2.4 3.6 0M402 82.5c0 2.4-3.6 2.4-3.6 0s3.6-2.4 3.6 0M405.9 76.1c0 2.4-3.6 2.4-3.6 0s3.6-2.4 3.6 0M409.8 75.4c0 2.4-3.6 2.4-3.6 0s3.6-2.4 3.6 0M413.7 71.2c0 2.4-3.6 2.4-3.6 0s3.6-2.4 3.6 0M417.5 71.7c0 2.4-3.6 2.4-3.6 0s3.6-2.4 3.6 0M421.4 71.1c0 2.4-3.6 2.4-3.6 0s3.6-2.4 3.6 0M425.3 69.9c0 2.4-3.6 2.4-3.6 0s3.6-2.4 3.6 0M429.2 70.7c0 2.4-3.6 2.4-3.6 0s3.6-2.4 3.6 0M433 74.4c0 2.4-3.6 2.4-3.6 0s3.6-2.4 3.6 0M437 71.5c0 2.4-3.7 2.4-3.7 0s3.6-2.4 3.6 0M440.8 70.7c0 2.4-3.6 2.4-3.6 0s3.6-2.4 3.6 0M444.7 73.5c0 2.4-3.6 2.4-3.6 0s3.6-2.4 3.6 0M448.6 75.3c0 2.4-3.6 2.4-3.6 0s3.6-2.4 3.6 0M452.4 73c0 2.4-3.6 2.4-3.6 0s3.6-2.4 3.6 0M456.3 82.5c0 2.4-3.6 2.4-3.6 0s3.6-2.4 3.6 0M460.2 77.8c0 2.4-3.6 2.4-3.6 0s3.6-2.4 3.6 0" fill="#b2df8a" stroke-width=".8" stroke-linecap="round" stroke-linejoin="round" stroke="#b2df8a" stroke-miterlimit="10"/><path d="M76.2 261.1c0 2.4-3.6 2.4-3.6 0s3.6-2.4 3.6 0M80 267c0 2.5-3.5 2.5-3.5 0 0-2.3 3.6-2.3 3.6 0M84 267.4c0 2.4-3.6 2.4-3.6 0s3.6-2.4 3.6 0M87.8 255.6c0 2.4-3.6 2.4-3.6 0s3.6-2.4 3.6 0M91.7 232c0 2.4-3.6 2.4-3.6 0s3.6-2.4 3.6 0M95.6 247.7c0 2.4-3.6 2.4-3.6 0s3.6-2.4 3.6 0M99.5 215.7c0 2.4-3.6 2.4-3.6 0s3.6-2.4 3.6 0M103.4 232.2c0 2.4-3.7 2.4-3.7 0s3.7-2.4 3.7 0M107.2 212.6c0 2.4-3.6 2.4-3.6 0 0-2.3 3.6-2.3 3.6 0M111.1 185c0 2.5-3.6 2.5-3.6 0 0-2.3 3.6-2.3 3.6 0M115 153.7c0 2.4-3.6 2.4-3.6 0s3.6-2.4 3.6 0M118.9 144.5c0 2.4-3.6 2.4-3.6 0s3.6-2.4 3.6 0M122.7 113.2c0 2.4-3.6 2.4-3.6 0s3.6-2.4 3.6 0M126.6 108c0 2.4-3.6 2.4-3.6 0s3.6-2.4 3.6 0M130.5 116.3c0 2.4-3.6 2.4-3.6 0s3.6-2.4 3.6 0M134.4 101.1c0 2.4-3.6 2.4-3.6 0s3.6-2.4 3.6 0M138.3 86.9c0 2.4-3.6 2.4-3.6 0s3.6-2.4 3.6 0M142.1 95.7c0 2.4-3.6 2.4-3.6 0s3.6-2.4 3.6 0M146 102c0 2.5-3.6 2.5-3.6 0 0-2.3 3.6-2.3 3.6 0M149.9 88.2c0 2.4-3.6 2.4-3.6 0s3.6-2.4 3.6 0M153.8 90.4c0 2.4-3.6 2.4-3.6 0s3.6-2.4 3.6 0M157.7 113c0 2.4-3.6 2.4-3.6 0s3.6-2.4 3.6 0M161.5 111.5c0 2.4-3.6 2.4-3.6 0s3.6-2.4 3.6 0M165.4 112.4c0 2.4-3.6 2.4-3.6 0s3.6-2.4 3.6 0M169.3 100.3c0 2.4-3.6 2.4-3.6 0s3.6-2.4 3.6 0M173.2 117.8c0 2.4-3.6 2.4-3.6 0s3.6-2.4 3.6 0M177 130c0 2.5-3.6 2.5-3.6 0 0-2.3 3.6-2.3 3.6 0M181 162.4c0 2.4-3.7 2.4-3.7 0s3.6-2.4 3.6 0M184.8 157.1c0 2.4-3.6 2.4-3.6 0s3.6-2.4 3.6 0M188.7 139.3c0 2.4-3.6 2.4-3.6 0s3.6-2.4 3.6 0M192.6 137.4c0 2.4-3.6 2.4-3.6 0s3.6-2.4 3.6 0M196.4 128.6c0 2.4-3.6 2.4-3.6 0s3.6-2.4 3.6 0M200.3 128.3c0 2.4-3.6 2.4-3.6 0s3.6-2.4 3.6 0M204.2 158.6c0 2.4-3.6 2.4-3.6 0s3.6-2.4 3.6 0M208 127.9c0 2.4-3.5 2.4-3.5 0s3.6-2.4 3.6 0M212 123.7c0 2.4-3.6 2.4-3.6 0s3.6-2.4 3.6 0M215.8 119.6c0 2.4-3.6 2.4-3.6 0s3.6-2.4 3.6 0M219.7 133.4c0 2.4-3.6 2.4-3.6 0s3.6-2.4 3.6 0M223.6 114c0 2.5-3.6 2.5-3.6 0 0-2.3 3.6-2.3 3.6 0M227.5 113.3c0 2.4-3.6 2.4-3.6 0s3.6-2.4 3.6 0M231.4 140c0 2.4-3.7 2.4-3.7 0s3.7-2.4 3.7 0M235.2 101.8c0 2.4-3.6 2.4-3.6 0s3.6-2.4 3.6 0M239.1 100.1c0 2.4-3.6 2.4-3.6 0s3.6-2.4 3.6 0M243 107.2c0 2.4-3.6 2.4-3.6 0s3.6-2.4 3.6 0M246.9 94.6c0 2.4-3.6 2.4-3.6 0s3.6-2.4 3.6 0M250.7 90.6c0 2.4-3.6 2.4-3.6 0s3.6-2.4 3.6 0M254.6 94.3c0 2.5-3.6 2.5-3.6 0 0-2.4 3.6-2.4 3.6 0M258.5 88.2c0 2.4-3.6 2.4-3.6 0s3.6-2.4 3.6 0M262.4 88.5c0 2.4-3.6 2.4-3.6 0s3.6-2.4 3.6 0M266.3 86c0 2.4-3.6 2.4-3.6 0s3.6-2.4 3.6 0M270.1 88c0 2.4-3.6 2.4-3.6 0s3.6-2.4 3.6 0M274 86c0 2.3-3.6 2.3-3.6 0 0-2.5 3.6-2.5 3.6 0M277.9 92.6c0 2.4-3.6 2.4-3.6 0s3.6-2.4 3.6 0M281.8 89.9c0 2.4-3.6 2.4-3.6 0s3.6-2.4 3.6 0M285.7 94.6c0 2.4-3.6 2.4-3.6 0s3.6-2.4 3.6 0M289.5 93.4c0 2.4-3.6 2.4-3.6 0s3.6-2.4 3.6 0M293.4 104.8c0 2.4-3.6 2.4-3.6 0s3.6-2.4 3.6 0M297.3 91.7c0 2.4-3.6 2.4-3.6 0s3.6-2.4 3.6 0M301.2 138.2c0 2.4-3.6 2.4-3.6 0s3.6-2.4 3.6 0M305 135.3c0 2.4-3.6 2.4-3.6 0s3.6-2.4 3.6 0M309 151.1c0 2.4-3.7 2.4-3.7 0s3.6-2.4 3.6 0M312.8 171.4c0 2.4-3.6 2.4-3.6 0s3.6-2.4 3.6 0M316.7 178.3c0 2.4-3.6 2.4-3.6 0s3.6-2.4 3.6 0M320.6 228.2c0 2.4-3.6 2.4-3.6 0s3.6-2.4 3.6 0M324.4 219.2c0 2.4-3.6 2.4-3.6 0s3.6-2.4 3.6 0M328.3 240.2c0 2.4-3.6 2.4-3.6 0s3.6-2.4 3.6 0M332.2 240.5c0 2.4-3.6 2.4-3.6 0s3.6-2.4 3.6 0M336 255.1c0 2.4-3.5 2.4-3.5 0s3.6-2.4 3.6 0M340 249.9c0 2.4-3.6 2.4-3.6 0s3.6-2.4 3.6 0M343.8 250c0 2.4-3.6 2.4-3.6 0s3.6-2.4 3.6 0M347.7 268.2c0 2.4-3.6 2.4-3.6 0s3.6-2.4 3.6 0M351.6 267.7c0 2.4-3.6 2.4-3.6 0s3.6-2.4 3.6 0M355.5 265.8c0 2.4-3.6 2.4-3.6 0s3.6-2.4 3.6 0M359.4 268.5c0 2.4-3.6 2.4-3.6 0s3.6-2.4 3.6 0M363.2 266.3c0 2.4-3.6 2.4-3.6 0s3.6-2.4 3.6 0M367.1 260.5c0 2.4-3.6 2.4-3.6 0s3.6-2.4 3.6 0M371 258.2c0 2.4-3.6 2.4-3.6 0s3.6-2.4 3.6 0M374.9 249.1c0 2.4-3.6 2.4-3.6 0s3.6-2.4 3.6 0M378.7 245c0 2.4-3.6 2.4-3.6 0s3.6-2.4 3.6 0M382.6 230.5c0 2.4-3.6 2.4-3.6 0s3.6-2.4 3.6 0M386.5 219.9c0 2.4-3.6 2.4-3.6 0s3.6-2.4 3.6 0M390.4 208.1c0 2.4-3.6 2.4-3.6 0s3.6-2.4 3.6 0M394.3 179.7c0 2.4-3.6 2.4-3.6 0s3.6-2.4 3.6 0M398.1 185.8c0 2.4-3.6 2.4-3.6 0s3.6-2.4 3.6 0M402 150.7c0 2.4-3.6 2.4-3.6 0s3.6-2.4 3.6 0M405.9 156.6c0 2.4-3.6 2.4-3.6 0s3.6-2.4 3.6 0M409.8 141.7c0 2.4-3.6 2.4-3.6 0s3.6-2.4 3.6 0M413.7 135.1c0 2.4-3.6 2.4-3.6 0s3.6-2.4 3.6 0M417.5 147c0 2.4-3.6 2.4-3.6 0s3.6-2.4 3.6 0M421.4 173.3c0 2.4-3.6 2.4-3.6 0s3.6-2.4 3.6 0M425.3 133.9c0 2.4-3.6 2.4-3.6 0s3.6-2.4 3.6 0M429.2 194c0 2.5-3.6 2.5-3.6 0 0-2.3 3.6-2.3 3.6 0M433 193.6c0 2.4-3.6 2.4-3.6 0s3.6-2.4 3.6 0M437 163.2c0 2.4-3.7 2.4-3.7 0s3.6-2.4 3.6 0M440.8 224.7c0 2.4-3.6 2.4-3.6 0s3.6-2.4 3.6 0M444.7 236.9c0 2.4-3.6 2.4-3.6 0s3.6-2.4 3.6 0M448.6 229.2c0 2.4-3.6 2.4-3.6 0s3.6-2.4 3.6 0M452.4 251.3c0 2.4-3.6 2.4-3.6 0s3.6-2.4 3.6 0M456.3 253.2c0 2.4-3.6 2.4-3.6 0s3.6-2.4 3.6 0M460.2 259.3c0 2.4-3.6 2.4-3.6 0s3.6-2.4 3.6 0" fill="#33a02c" stroke-width=".8" stroke-linecap="round" stroke-linejoin="round" stroke="#33a02c" stroke-miterlimit="10"/><g><use xlink:href="#p" x="128.4" y="34.7"/><use xlink:href="#q" x="140.4" y="34.7"/><use xlink:href="#r" x="149.1" y="34.7"/><use xlink:href="#s" x="153.1" y="34.7"/><use xlink:href="#t" x="157.9" y="34.7"/><use xlink:href="#u" x="161.9" y="34.7"/><use xlink:href="#r" x="170.7" y="34.7"/><use xlink:href="#v" x="174.7" y="34.7"/><use xlink:href="#w" x="182.7" y="34.7"/><use xlink:href="#x" x="186.8" y="34.7"/><use xlink:href="#y" x="195.5" y="34.7"/><use xlink:href="#z" x="201.2" y="34.7"/><use xlink:href="#A" x="209.2" y="34.7"/><use xlink:href="#B" x="220.4" y="34.7"/><use xlink:href="#w" x="228.4" y="34.7"/><use xlink:href="#C" x="232.4" y="34.7"/><use xlink:href="#y" x="237.2" y="34.7"/><use xlink:href="#D" x="242.8" y="34.7"/><use xlink:href="#E" x="251.6" y="34.7"/><use xlink:href="#w" x="264.4" y="34.7"/><use xlink:href="#z" x="268.4" y="34.7"/><use xlink:href="#w" x="276.4" y="34.7"/><use xlink:href="#F" x="280.4" y="34.7"/><use xlink:href="#z" x="291.6" y="34.7"/><use xlink:href="#q" x="299.6" y="34.7"/><use xlink:href="#B" x="308.4" y="34.7"/><use xlink:href="#B" x="316.4" y="34.7"/><use xlink:href="#t" x="324.4" y="34.7"/><use xlink:href="#z" x="328.4" y="34.7"/><use xlink:href="#G" x="336.4" y="34.7"/><use xlink:href="#w" x="345.2" y="34.7"/><use xlink:href="#u" x="349.2" y="34.7"/><use xlink:href="#y" x="358" y="34.7"/><use xlink:href="#D" x="363.6" y="34.7"/><use xlink:href="#H" x="372.4" y="34.7"/><use xlink:href="#v" x="380.4" y="34.7"/><use xlink:href="#B" x="388.4" y="34.7"/><use xlink:href="#B" x="396.4" y="34.7"/></g></svg>