<svg xmlns="http://www.w3.org/2000/svg" xmlns:xlink="http://www.w3.org/1999/xlink" viewBox="0 0 576 216"><defs><symbol overflow="visible" id="n"><path d="M.5 0v-5.7h.7V0zm0 0"/></symbol><symbol overflow="visible" id="a"><path d="M.3-2.8c0-.7 0-1.2.2-1.6l.6-1c.3-.2.7-.3 1-.3.4 0 .6 0 .9.2l.5.5.4.9.1 1.3c0 .7 0 1.2-.2 1.6a2 2 0 01-.6 1c-.3.2-.6.3-1 .3-.6 0-1-.2-1.3-.6C.5-1 .3-1.7.3-2.8zm.7 0c0 1 .2 1.6.4 1.9.2.3.5.4.8.4.3 0 .6-.1.8-.4.2-.3.3-1 .3-1.9 0-1-.1-1.5-.3-1.9-.2-.3-.5-.4-.8-.4-.4 0-.6.1-.8.4-.2.3-.4 1-.4 1.9zm0 0"/></symbol><symbol overflow="visible" id="c"><path d="M3 0h-.7v-4.4l-.7.4-.7.4v-.7l1-.6c.3-.3.5-.5.6-.8h.4zm0 0"/></symbol><symbol overflow="visible" id="d"><path d="M4-.7V0H.2l.1-.5.5-.7.9-.9 1.2-1.2c.3-.3.4-.6.4-.8a1 1 0 00-.3-.7c-.2-.2-.5-.3-.8-.3-.3 0-.6 0-.8.3-.2.2-.3.5-.3.8H.4c0-.6.2-1 .5-1.3a2 2 0 011.3-.4c.5 0 1 .2 1.3.5.3.3.5.6.5 1 0 .3 0 .5-.2.8 0 .2-.2.4-.4.6l-1.1 1a12.3 12.3 0 00-1 1.1zm0 0"/></symbol><symbol overflow="visible" id="e"><path d="M.3-1.5H1l.4.8.7.2c.4 0 .6 0 .9-.3.2-.2.3-.5.3-.9a1 1 0 00-.3-.7c-.2-.3-.5-.4-.8-.4l-.5.1v-.6H2c.3 0 .6 0 .8-.2l.4-.7c0-.3-.1-.5-.3-.7A1 1 0 002-5a1 1 0 00-.7.2c-.1.2-.3.5-.3.8l-.7-.1c0-.5.3-.8.6-1.1.3-.3.7-.4 1.1-.4.3 0 .6 0 .9.2l.6.6.2.7A1.2 1.2 0 013-3.1l.8.5.2 1c0 .4-.1.8-.5 1.2a2 2 0 01-1.4.5C1.6.1 1.2 0 1-.3.6-.6.4-1 .3-1.5zm0 0"/></symbol><symbol overflow="visible" id="f"><path d="M2.6 0v-1.4H0V-2l2.6-3.7h.6V-2H4v.6h-.7V0zm0-2v-2.6L.8-2zm0 0"/></symbol><symbol overflow="visible" id="g"><path d="M.5 0v-4.1h.6v.6l.5-.6.4-.1c.3 0 .5 0 .7.2l-.2.7a1 1 0 00-.5-.2c-.2 0-.3 0-.4.2l-.3.3v3zm0 0"/></symbol><symbol overflow="visible" id="h"><path d="M.5 0v-5.7h.7v2a1.7 1.7 0 012-.4c.3.2.4.4.5.6l.2.9V0h-.7v-2.6c0-.3-.1-.6-.3-.8a.9.9 0 00-.6-.2c-.2 0-.4 0-.6.2-.2 0-.3.2-.4.4v3zm0 0"/></symbol><symbol overflow="visible" id="i"><path d="M.3-2c0-.8.2-1.4.6-1.7a2 2 0 011.3-.5c.5 0 1 .2 1.4.6.3.3.5.8.5 1.5 0 .5 0 1-.2 1.2-.2.3-.4.6-.7.7a2 2 0 01-1 .3c-.6 0-1-.2-1.4-.6C.4-.8.3-1.4.3-2zM1-2c0 .5 0 .9.3 1.1.2.3.5.4.9.4.3 0 .6-.1.9-.4.2-.2.3-.6.3-1.2 0-.5-.1-.9-.4-1.1-.2-.3-.5-.4-.8-.4-.4 0-.7.1-.9.4-.2.2-.3.6-.3 1.1zm0 0"/></symbol><symbol overflow="visible" id="k"><path d="M4-4.3h-.8L3-4.7a1 1 0 00-.7-.3 1 1 0 00-.6.2c-.2.1-.4.4-.5.7L1-3a1.6 1.6 0 012.6-.3c.3.4.4.8.4 1.4 0 .3 0 .6-.2 1-.1.3-.4.5-.6.7l-1 .2c-.5 0-1-.2-1.4-.6C.5-1 .3-1.7.3-2.7c0-1 .2-1.8.6-2.3.4-.5.8-.7 1.4-.7.5 0 .8.1 1.1.4.3.2.5.6.5 1zM1-1.8l.1.7.5.5A1 1 0 003-.8c.2-.3.3-.6.3-1s0-.7-.3-1a1 1 0 00-.8-.3 1 1 0 00-.8.4c-.2.2-.3.5-.3.9zm0 0"/></symbol><symbol overflow="visible" id="l"><path d="M1.4-3l-.6-.5C.6-3.7.6-4 .6-4.2c0-.4.1-.8.4-1 .3-.3.7-.5 1.2-.5s.9.2 1.2.4c.3.3.4.7.4 1 0 .4 0 .6-.2.8-.1.2-.3.3-.6.4a1.6 1.6 0 011 1.5c0 .5-.1.9-.5 1.2a2 2 0 01-1.3.5c-.6 0-1-.2-1.4-.5C.5-.7.3-1.1.3-1.6c0-.4.1-.7.3-1l.8-.5zm-.1-1.3c0 .3 0 .5.2.7.2.2.4.3.7.3.3 0 .5-.1.7-.3l.2-.6c0-.3 0-.5-.3-.7a1 1 0 00-.6-.2c-.3 0-.5 0-.7.2-.2.2-.2.4-.2.6zM1-1.6c0 .2 0 .4.2.5 0 .2.2.4.4.5l.6.1c.3 0 .6 0 .8-.3.2-.2.3-.5.3-.8 0-.3 0-.6-.3-.8-.2-.3-.5-.4-.8-.4A1.1 1.1 0 001-1.6zm0 0"/></symbol><symbol overflow="visible" id="m"><path d="M3.2-.5l-.7.5a2 2 0 01-.8 0c-.5 0-.8 0-1-.2a1 1 0 01-.4-.9l.1-.5.4-.4.5-.3h.6l1.2-.3v-.2c0-.3 0-.5-.2-.6l-.7-.2-.8.1-.3.7L.4-3c0-.3.2-.6.3-.7l.6-.5a2.9 2.9 0 011.8 0l.5.3.2.5v2.8l.3.5h-.8l-.1-.5zm0-1.6L2-1.8a3 3 0 00-.6.1.6.6 0 00-.2 1c.2.2.4.3.7.2l.7-.1.4-.5.1-.7zm0 0"/></symbol><symbol overflow="visible" id="b"><path d="M.7 0v-.8h.8V0zm0 0"/></symbol><symbol overflow="visible" id="o"><path d="M.5 1.6v-5.7h.7v.5l.5-.4.6-.2c.4 0 .7 0 1 .3l.6.7a2.8 2.8 0 010 2.3 1.7 1.7 0 01-1.6 1c-.2 0-.4 0-.6-.2-.2 0-.4-.2-.5-.3v2zM1.2-2c0 .5 0 .9.3 1.1.2.3.4.4.8.4.3 0 .5-.1.7-.4.3-.2.4-.6.4-1.2 0-.5-.1-.9-.3-1.2a1 1 0 00-.8-.4c-.3 0-.6.2-.8.5-.2.2-.4.6-.3 1.2zm0 0"/></symbol><symbol overflow="visible" id="q"><path d="M.3-1.5h.8c0 .3.1.6.3.8l.7.2c.4 0 .7-.1.9-.4.2-.2.3-.5.3-1 0-.4 0-.7-.3-.9-.2-.2-.5-.3-.9-.3l-.6.1-.4.4H.5l.5-3h2.8v.7H1.6l-.3 1.5c.3-.2.6-.4 1-.4.5 0 1 .2 1.3.6.3.3.5.7.5 1.3 0 .5-.2 1-.5 1.3-.3.5-.8.7-1.5.7C1.6.1 1.2 0 1-.3.6-.6.4-1 .3-1.5zm0 0"/></symbol><symbol overflow="visible" id="r"><path d="M.4-5v-.6H4v.5L3-3.5A9 9 0 001.9 0h-.7c0-.4 0-1 .2-1.6A8.5 8.5 0 013.2-5zm0 0"/></symbol><symbol overflow="visible" id="s"><path d="M.2-1.2l.7-.1c0 .2.2.5.4.6l.7.2c.3 0 .6 0 .7-.2C3-.8 3-1 3-1c0-.2 0-.3-.2-.4L2-1.7a6 6 0 01-1-.4 1 1 0 01-.5-.4A1 1 0 01.4-3v-.5L.9-4l.5-.2a2.4 2.4 0 011.4 0l.6.4.2.7h-.7l-.2-.4a1 1 0 00-.7-.2l-.7.1L1-3l.1.2.3.2.6.2 1 .3.5.4.2.6-.2.6c-.2.3-.4.4-.6.5L2 .1C1.5 0 1 0 .8-.2.5-.5.3-.8.2-1.2zm0 0"/></symbol><symbol overflow="visible" id="t"><path d="M.5-4.9v-.8h.7v.8zM.5 0v-4.1h.7V0zm0 0"/></symbol><symbol overflow="visible" id="u"><path d="M.4.3l.7.1c0 .2 0 .4.2.5l.7.2c.3 0 .6 0 .8-.2.1-.1.3-.3.3-.5v-1c-.2.4-.6.6-1 .6C1.4 0 1-.2.6-.6.4-1 .3-1.5.3-2.1c0-.4 0-.7.2-1 .1-.4.3-.6.6-.8.3-.2.6-.3 1-.3s.8.2 1.1.6v-.5H4v3.5c0 .7 0 1.1-.2 1.4l-.6.6c-.3.2-.7.3-1 .3a2 2 0 01-1.3-.4C.5 1.1.4.8.4.3zM1-2c0 .5 0 .9.3 1.2.2.2.5.3.8.3.3 0 .6-.1.8-.3.2-.3.3-.7.3-1.2s0-.9-.3-1.1a1 1 0 00-1.6 0c-.2.2-.3.6-.3 1zm0 0"/></symbol><symbol overflow="visible" id="v"><path d="M.5 0v-4.1h.6v.6a1.4 1.4 0 011.3-.7c.3 0 .5 0 .7.2l.5.5c.3-.5.7-.7 1.2-.7.4 0 .7.1 1 .3.2.3.3.6.3 1V0h-.7v-2.6-.6L5-3.5a.8.8 0 00-.4-.1 1 1 0 00-.8.3l-.2 1V0H3v-2.7l-.2-.7-.6-.2a1 1 0 00-.5.2c-.2 0-.3.2-.4.4v3zm0 0"/></symbol><clipPath id="j"><path d="M39 162h134v1H39zm0 0"/></clipPath><clipPath id="p"><path d="M231 162h134v1H231zm0 0"/></clipPath><clipPath id="w"><path d="M423 162h134v1H423zm0 0"/></clipPath><clipPath id="x"><path d="M423 43h134v120H423zm0 0"/></clipPath></defs><path fill="#fff" d="M0 0h576v216H0z"/><path d="M43.9 167.5H167M43.9 167.5v4.8M74.7 167.5v4.8M105.5 167.5v4.8M136.3 167.5v4.8M167.1 167.5v4.8" fill="none" stroke-width=".8" stroke-linecap="round" stroke-linejoin="round" stroke="#000" stroke-miterlimit="10"/><use xlink:href="#a" x="38.4" y="184.6"/><use xlink:href="#b" x="42.8" y="184.6"/><use xlink:href="#a" x="45" y="184.6"/><use xlink:href="#a" x="69.2" y="184.6"/><use xlink:href="#b" x="73.6" y="184.6"/><use xlink:href="#c" x="75.8" y="184.6"/><use xlink:href="#a" x="100" y="184.6"/><use xlink:href="#b" x="104.4" y="184.6"/><use xlink:href="#d" x="106.6" y="184.6"/><use xlink:href="#a" x="130.8" y="184.6"/><use xlink:href="#b" x="135.2" y="184.6"/><use xlink:href="#e" x="137.4" y="184.6"/><use xlink:href="#a" x="161.6" y="184.6"/><use xlink:href="#b" x="166" y="184.6"/><use xlink:href="#f" x="168.2" y="184.6"/><use xlink:href="#g" x="99.8" y="203.6"/><use xlink:href="#h" x="102.4" y="203.6"/><use xlink:href="#i" x="106.8" y="203.6"/><g clip-path="url(#j)"><path d="M39 162.8h133" fill="none" stroke-width=".1" stroke-linecap="round" stroke-linejoin="round" stroke="#bebebe" stroke-miterlimit="10"/></g><path d="M79.2 162.8h1v-.1h.4l.1-.1h.1l.2-.2h.1v-.1l.2-.1.1-.1v-.1h.1v-.2h.2v-.2l.1-.1.2-.2v-.3h.2V160.6l.1-.1.2-.4v-.1l.2-.1.1-.4.1-.1.1-.2.2-.2v-.1l.1-.2.2-.3.2-.2v-.2h.1l.1-.2v-.1l.1-.1v-.2l.2-.1V157.1l.1-.2.1-.2v-.2l.1-.3v-.2l.2-.3v-.6l.1-.3.1-.3v-.4l.1-.3v-.4l.2-.3v-.8l.1-.4.1-.4v-.4l.1-.4v-.5l.2-.4v-.9l.1-.5.1-.5v-.5l.1-.5v-.6l.1-.5.1-.6v-.6l.1-.6.1-.7v-.6l.1-.7v-.7l.1-.7.1-.7v-.8l.1-.8.1-.7v-.8l.1-.8v-.8l.1-.9.1-.8.1-1.6.1-.9v-.8l.2-2.5.2-2.5v-.9l.2-.8V122l.2-1.7.1-1.6v-.8l.2-.8v-1.6l.1-.8.1-.8v-.9l.1-.8v-.8l.2-.8V108.8l.1-1 .1-.9v-1l.1-.9v-1l.2-1v-2.4l.1-1.2.1-1.2v-1.4l.1-1.3V94l.2-1.5v-3l.1-1.5.1-1.6V85l.1-1.6v-1.6l.2-1.5v-3.1l.1-1.4.1-1.5V73l.1-1.3v-1.3L91 69v-2.3l.1-1 .1-1v-1l.1-1V62l.2-.8v-1.5l.1-.7.1-.6v-.7l.1-.6v-.5l.2-.6v-1l.1-.5.1-.5v-.4l.1-.5v-.4l.1-.4.1-.4v-.4l.1-.4.1-.4v-.3l.1-.4v-.3l.1-.3.1-.3v-.3l.1-.3.1-.3V48l.1-.3v-.2l.1-.2.1-.2v-.2l.1-.2.1-.2v-.2l.1-.2.1-.4.2-.3v-.2l.1-.1v-.2l.1-.1v-.2l.1-.1.1-.2v-.1l.1-.1.1-.1.1-.1h.2l.1.1.1.2v.1l.1.3v.2l.1.3.1.4v.4l.1.5.1.5v.5l.1.6v.7l.1.6.1.7v.8l.1.7.1.8v.8l.1.8v.8l.1.8.1.8v.9l.1.8v.8l.2.9V61.3l.1.9.1.9v.8l.1 1v.9l.2.9v1.9l.1 1 .1.9v1l.3 3.8v1l.1 1 .1 1v.9l.1 1v.9l.2.9v1.9l.1.8.1 1 .1 1.8v.9l.2 1v1.8l.1 1 .1.9v1l.1.9v1l.2 1v2l.1 1 .1 1v1l.1 1v1.1l.2 1.1v2.2l.2 2.1v1.1l.1 1.1v1.1l.2 1.1v2.2l.1 1 .1 1v1.1l.1 1v1l.1 1 .1 1v.9l.1.9.1.8v.9l.1.8v.8l.1.8.1.8v.7l.1.8.1.7v.7l.1.7v.7l.1.7.1.7v.7l.1.7.1.7v.6l.1.7v.7l.1.6.1.7v.6l.1.6.1.6v.6l.1.6v.5l.1.5.1.5v.5l.1.4v.5l.2.4v.7l.1.3.1.4v.3l.1.2v.3l.2.3v.4l.1.2.1.2v.2l.1.2.3.8v.1l.1.2v.2l.1.3v.2l.2.2v.5l.1.2.1.3v.2l.1.3v.2l.3.8v.3l.1.2v.2l.1.3v.2l.2.2v.4l.1.2.1.2v.2l.1.1v.2l.2.1V158.6l.1.1.1.2.1.2v.1l.2.1v.2l.1.1.1.1.1.2.1.1h.1v.1l.1.1h.1v.1h.1l.1.1.3.2.3.2h.1l.1.1.1.1.2.2.3.3v.1h.1l.1.1v.1h.1l.2.2v.1l.1.1.2.1v.1h.2v.1h.1l.1.1H110.4l.1.1h.6zm0 0" fill="#dcbcbc"/><path d="M86.5 162.8v-21.5l.1-.7.1-.7v-.8l.1-.8.1-.7v-.8l.1-.8v-.8l.1-.9.1-.8.1-1.6.1-.9v-.8l.2-2.5.2-2.5v-.9l.2-.8V122l.2-1.7.1-1.6v-.8l.2-.8v-1.6l.1-.8.1-.8v-.9l.1-.8v-.8l.2-.8V108.8l.1-1 .1-.9v-1l.1-.9v-1l.2-1v-2.4l.1-1.2.1-1.2v-1.4l.1-1.3V94l.2-1.5v-3l.1-1.5.1-1.6V85l.1-1.6v-1.6l.2-1.5v-3.1l.1-1.4.1-1.5V73l.1-1.3v-1.3L91 69v-2.3l.1-1 .1-1v-1l.1-1V62l.2-.8v-1.5l.1-.7.1-.6v-.7l.1-.6v-.5l.2-.6v-1l.1-.5.1-.5v-.4l.1-.5v-.4l.1-.4.1-.4v-.4l.1-.4.1-.4v-.3l.1-.4v-.3l.1-.3.1-.3v-.3l.1-.3.1-.3V48l.1-.3v-.2l.1-.2.1-.2v-.2l.1-.2.1-.2v-.2l.1-.2.1-.4.2-.3v-.2l.1-.1v-.2l.1-.1v-.2l.1-.1.1-.2v-.1l.1-.1.1-.1.1-.1h.2l.1.1.1.2v.1l.1.3v.2l.1.3.1.4v.4l.1.5.1.5v.5l.1.6v.7l.1.6.1.7v.8l.1.7.1.8v.8l.1.8v.8l.1.8.1.8v.9l.1.8v.8l.2.9V61.3l.1.9.1.9v.8l.1 1v.9l.2.9v1.9l.1 1 .1.9v1l.3 3.8v1l.1 1 .1 1v.9l.1 1v.9l.2.9v1.9l.1.8.1 1 .1 1.8v.9l.2 1v1.8l.1 1 .1.9v1l.1.9v1l.2 1v2l.1 1 .1 1v1l.1 1v1.1l.2 1.1v2.2l.2 2.1v1.1l.1 1.1v1.1l.2 1.1v2.2l.1 1 .1 1v1.1l.1 1v1l.1 1 .1 1v.9l.1.9.1.8v.9l.1.8v.8l.1.8.1.8v.7l.1.8.1.7v.7l.1.7v.7l.1.7.1.7v.7l.1.7.1.7v.6l.1.7v.7l.1.6.1.7v.6l.1.6.1.6v.6l.1.6v.5l.1.5.1.5v.5l.1.4v.5l.2.4v.7l.1.3v14.5zm0 0" fill="#b97c7c"/><path d="M250.7 167.5H352M250.7 167.5v4.8M276 167.5v4.8M301.3 167.5v4.8M326.6 167.5v4.8M352 167.5v4.8" fill="none" stroke-width=".8" stroke-linecap="round" stroke-linejoin="round" stroke="#000" stroke-miterlimit="10"/><use xlink:href="#c" x="245.2" y="184.6"/><use xlink:href="#b" x="249.6" y="184.6"/><use xlink:href="#k" x="251.8" y="184.6"/><use xlink:href="#c" x="270.5" y="184.6"/><use xlink:href="#b" x="274.9" y="184.6"/><use xlink:href="#l" x="277.1" y="184.6"/><use xlink:href="#d" x="295.8" y="184.6"/><use xlink:href="#b" x="300.2" y="184.6"/><use xlink:href="#a" x="302.4" y="184.6"/><use xlink:href="#d" x="321.1" y="184.6"/><use xlink:href="#b" x="325.5" y="184.6"/><use xlink:href="#d" x="327.7" y="184.6"/><use xlink:href="#d" x="346.5" y="184.6"/><use xlink:href="#b" x="350.9" y="184.6"/><use xlink:href="#f" x="353.1" y="184.6"/><g><use xlink:href="#m" x="287.8" y="203.6"/><use xlink:href="#n" x="292.2" y="203.6"/><use xlink:href="#o" x="294" y="203.6"/><use xlink:href="#h" x="298.4" y="203.6"/><use xlink:href="#m" x="302.8" y="203.6"/></g><g clip-path="url(#p)"><path d="M231 162.8h133" fill="none" stroke-width=".1" stroke-linecap="round" stroke-linejoin="round" stroke="#bebebe" stroke-miterlimit="10"/></g><path d="M238.3 162.8h2.1l.2-.1H241.5l.2-.1h.4l.2-.1h.2l.2-.1.3-.1h.2l.2-.1.2-.1.2-.1h.2l.2-.2h.2l.3-.2.2-.1.2-.1.2-.2.2-.1.2-.1.2-.2.2-.2.3-.1.2-.2.2-.2.2-.2.2-.2.2-.2.4-.4.3-.2.2-.2.2-.3.2-.2.2-.3.2-.2.2-.3.2-.3.3-.3.2-.3.2-.3.2-.3.2-.3.2-.4.2-.3.3-.4.2-.3.2-.4.2-.4.2-.4.2-.4.2-.5.2-.4.3-.5.2-.4.2-.5.2-.5.2-.5.2-.5.2-.6.2-.5.3-.5.2-.5.2-.6.2-.5.4-1.1.2-.6.2-.5.3-.5.2-.6.2-.5.2-.6.2-.5.2-.5.2-.6.2-.5.3-.6.2-.5.2-.6.2-.6.2-.6.2-.6.2-.7.2-.6.3-.7.2-.7.2-.8.2-.7.2-.8.2-.9.2-.8.2-1 .3-.8.2-1 .2-.9.2-1 .2-1 .2-1 .2-1 .2-1 .3-1 .2-1.1.2-1 .2-1.1.2-1 .2-1.1.2-1.1.2-1.1.3-1.1.2-1.1.2-1.1.2-1.2.2-1.1.2-1.2.2-1.1.3-1.2.2-1.2.2-1.3.2-1.2.2-1.2.2-1.3.2-1.3.2-1.3.3-1.2.2-1.3.2-1.3.2-1.3.2-1.3.2-1.3.2-1.3.2-1.3.3-1.3.2-1.3.2-1.3.2-1.3.2-1.3.2-1.3.2-1.3.2-1.3.3-1.3.2-1.2.2-1.3.2-1.3.2-1.3.2-1.2.2-1.3.2-1.2.3-1.2.2-1.1.2-1.1.2-1 .2-1 .2-1 .2-1 .2-.7.3-.8.2-.7.2-.7.2-.6.2-.5.2-.5.2-.4.2-.4.3-.3.2-.3.2-.3.2-.2.2-.2.2-.2.2-.2.3-.2.4-.4.2-.2.2-.2.2-.1.2-.2.2-.3.3-.2.2-.2.2-.2.2-.2.2-.3.2-.2.2-.2.2-.2.3-.3.2-.2.2-.2.2-.1.2-.2.2-.2h.2l.2-.2h.3l.2-.1h1l.2.2h.3l.2.2.2.2.2.2.2.2.2.2.2.3.2.3.3.3.2.3.2.4.2.3.2.4.2.4.2.4.2.4.3.5.2.4.2.5.2.5.2.5.2.5.2.6.2.5.3.6.2.6.2.7.2.7.2.7.2.7.2.8.2.8.3 1 .2.8.2 1 .2 1 .2 1 .2 1.2.2 1 .2 1.3.3 1.2.2 1.2.2 1.2.2 1.3.2 1.2.2 1.3.2 1.2.3 1.3.2 1.2.2 1.2.2 1.2.2 1.2.2 1.1.2 1 .2 1.1.3 1 .2 1 .2 1 .2 1 .2.8.2.8.2.9.2.8.3.8.2.7.2.8.2.7.2.7.2.8.2.7.2.7.3.7.2.7.2.8.2.7.2.8.2.7.2.8.2.8.3.8.2.9.2.8.2 1 .2.8.2 1 .2 1 .2 1 .3 1 .2 1 .2 1.1.2 1.1.2 1.1.2 1.1.2 1.2.2 1 .3 1.2.2 1.2.2 1 .2 1.2.2 1 .2 1.2.2 1 .3 1 .2 1 .2 1 .2.8.2.9.2.8.2.7.2.8.3.6.2.7.2.6.2.5.2.6.2.5.2.4.2.5.3.4.2.4.2.4.2.4.2.3.2.4.2.3.2.4.3.3.2.4.2.3.2.4.2.3.2.4.2.3.2.4.5.7.2.3.2.3.2.4.2.3.2.3.2.4.3.3.2.3.2.2.2.3.2.3.2.3.2.3.2.2.3.3.2.2.2.3.2.2.2.3.2.2.2.3.2.3.3.2.2.3.2.2.2.3.2.3.2.2.2.3.2.3.3.2.2.3.2.3.2.2.2.3.2.2.2.3.3.2.2.3.2.2.2.3.2.2.2.2.2.2.2.2.3.2.2.2.2.2.2.1.2.2.2.2h.2l.2.2.3.1.2.2h.2l.2.2h.2l.2.1.2.1h.2l.3.2h.2l.2.1.2.1h.2l.2.2h.2l.2.1.3.1.2.1.2.1.2.1.2.1.2.1.2.1.5.3h.2l.2.1.2.1.2.1.2.1.2.1h.2l.3.1.2.1h.2l.2.1h.4l.2.1h.7l.2.1H337.6l.2.1h.4l.3.1h.4l.2.1h.4l.2.1h.5l.2.1h.2l.2.1h.4l.2.1h.7l.4.1h.8l.3.1H347zm0 0" fill="#dcbcbc"/><path d="M257.4 162.8v-22.6l.2-.6.2-.5.3-.6.2-.5.2-.6.2-.6.2-.6.2-.6.2-.7.2-.6.3-.7.2-.7.2-.8.2-.7.2-.8.2-.9.2-.8.2-1 .3-.8.2-1 .2-.9.2-1 .2-1 .2-1 .2-1 .2-1 .3-1 .2-1.1.2-1 .2-1.1.2-1 .2-1.1.2-1.1.2-1.1.3-1.1.2-1.1.2-1.1.2-1.2.2-1.1.2-1.2.2-1.1.3-1.2.2-1.2.2-1.3.2-1.2.2-1.2.2-1.3.2-1.3.2-1.3.3-1.2.2-1.3.2-1.3.2-1.3.2-1.3.2-1.3.2-1.3.2-1.3.3-1.3.2-1.3.2-1.3.2-1.3.2-1.3.2-1.3.2-1.3.2-1.3.3-1.3.2-1.2.2-1.3.2-1.3.2-1.3.2-1.2.2-1.3.2-1.2.3-1.2.2-1.1.2-1.1.2-1 .2-1 .2-1 .2-1 .2-.7.3-.8.2-.7.2-.7.2-.6.2-.5.2-.5.2-.4.2-.4.3-.3.2-.3.2-.3.2-.2.2-.2.2-.2.2-.2.3-.2.4-.4.2-.2.2-.2.2-.1.2-.2.2-.3.3-.2.2-.2.2-.2.2-.2.2-.3.2-.2.2-.2.2-.2.3-.3.2-.2.2-.2.2-.1.2-.2.2-.2h.2l.2-.2h.3l.2-.1h1l.2.2h.3l.2.2.2.2.2.2.2.2.2.2.2.3.2.3.3.3.2.3.2.4.2.3.2.4.2.4.2.4.2.4.3.5.2.4.2.5.2.5.2.5.2.5.2.6.2.5.3.6.2.6.2.7.2.7.2.7.2.7.2.8.2.8.3 1 .2.8.2 1 .2 1 .2 1 .2 1.2.2 1 .2 1.3.3 1.2.2 1.2.2 1.2.2 1.3.2 1.2.2 1.3.2 1.2.3 1.3.2 1.2.2 1.2.2 1.2.2 1.2.2 1.1.2 1 .2 1.1.3 1 .2 1 .2 1 .2 1 .2.8.2.8.2.9.2.8.3.8.2.7.2.8.2.7.2.7.2.8.2.7.2.7.3.7.2.7.2.8.2.7.2.8.2.7.2.8.2.8.3.8.2.9.2.8.2 1 .2.8.2 1 .2 1 .2 1 .3 1 .2 1 .2 1.1.2 1.1.2 1.1.2 1.1.2 1.2.2 1 .3 1.2.2 1.2.2 1 .2 1.2.2 1 .2 1.2.2 1 .3 1 .2 1 .2 1 .2.8.2.9.2.8.2.7.2.8.3.6.2.7.2.6.2.5.2.6.2.5.2.4.2.5.3.4.2.4.2.4.2.4.2.3.2.4.2.3.2.4.3.3.2.4.2.3.2.4.2.3.2.4.2.3.2.4.5.7.2.3.2.3.2.4.2.3.2.3.2.4.3.3.2.3.2.2v14.9zm0 0" fill="#b97c7c"/><path d="M433.1 167.5h120.4M433.1 167.5v4.8M453.2 167.5v4.8M473.3 167.5v4.8M493.3 167.5v4.8M513.4 167.5v4.8M533.4 167.5v4.8M553.5 167.5v4.8" fill="none" stroke-width=".8" stroke-linecap="round" stroke-linejoin="round" stroke="#000" stroke-miterlimit="10"/><g><use xlink:href="#c" x="425.4" y="184.6"/><use xlink:href="#b" x="429.8" y="184.6"/><use xlink:href="#q" x="432" y="184.6"/><use xlink:href="#q" x="436.5" y="184.6"/></g><g><use xlink:href="#c" x="465.5" y="184.6"/><use xlink:href="#b" x="469.9" y="184.6"/><use xlink:href="#k" x="472.1" y="184.6"/><use xlink:href="#q" x="476.6" y="184.6"/></g><g><use xlink:href="#c" x="505.6" y="184.6"/><use xlink:href="#b" x="510" y="184.6"/><use xlink:href="#r" x="512.2" y="184.6"/><use xlink:href="#q" x="516.7" y="184.6"/></g><g><use xlink:href="#c" x="545.8" y="184.6"/><use xlink:href="#b" x="550.2" y="184.6"/><use xlink:href="#l" x="552.4" y="184.6"/><use xlink:href="#q" x="556.8" y="184.6"/></g><g><use xlink:href="#s" x="478.9" y="203.6"/><use xlink:href="#t" x="482.9" y="203.6"/><use xlink:href="#u" x="484.7" y="203.6"/><use xlink:href="#v" x="489.1" y="203.6"/><use xlink:href="#m" x="495.7" y="203.6"/></g><g clip-path="url(#w)"><path d="M423 162.8h133" fill="none" stroke-width=".1" stroke-linecap="round" stroke-linejoin="round" stroke="#bebebe" stroke-miterlimit="10"/></g><g clip-path="url(#x)"><path d="M423.8 162.8H425.7l.5-.1h1.1l.5-.1h.3l.2-.1h.3l.3-.1h.2l.3-.1.3-.1h.2l.3-.2h.3l.2-.1.3-.1.5-.2.3-.1.3-.1.8-.3.2-.1.3-.1.3-.2h.2l.3-.2h.3l.2-.2h.3l.3-.2h.2l.3-.2.5-.2.3-.1.3-.1.2-.2.6-.2.2-.2.3-.1.3-.2.2-.1.3-.2.3-.2.2-.2.3-.2.3-.2.2-.2.3-.2.3-.3.2-.2.3-.3.3-.2.2-.3.3-.3.3-.2.5-.6.3-.3.2-.3.3-.3.3-.3.2-.3.3-.3.3-.3.2-.4.3-.3.3-.3.2-.4.3-.3.3-.4.2-.4.3-.4.3-.4.2-.4.3-.5.3-.5.2-.5.3-.5.3-.5.2-.6.3-.6.3-.6.2-.7.3-.6.3-.7.2-.8.3-.7.3-.8.2-.8.3-.8.3-.9.2-.8.3-.9.3-.9.2-1 .3-.9.3-.9.2-1 .3-1 .3-1 .2-1 .3-1 .3-1 .2-1 .3-1.2.3-1 .2-1.1.6-2.2.2-1 .3-1.1.3-1 .2-1.2.3-1 .3-1 .2-1 .3-1 .3-1 .2-1 .3-1 .3-1 .2-.8.3-1 .3-.8.2-.9.3-.8.2-.8.3-.9.3-.8.2-.8.3-.8.3-.9.3-.8.2-.8.3-.9.2-.8.3-.9.3-.8.2-.9.3-.9.3-.9.2-.9.3-.9.3-.9.8-2.7.2-.9.6-1.8.2-.9.3-.9.5-1.8.6-1.8.2-.9.3-1 .3-.9.2-.9.3-1 .3-.9.2-1 .3-1 .3-1 .2-1 .3-1 .5-2 .3-1 .3-1 .5-2 .3-1 .2-1 .3-1 .3-1 .2-1 .3-.9.3-.9.2-.9.3-.8.3-.9.2-.8.3-.7.3-.7.2-.7.3-.7.3-.6.2-.5.3-.5.3-.5.2-.4.3-.3.3-.3.2-.2.3-.2.3-.2h1.3l.3.2h.2l.3.2.3.2.2.1.3.2.3.1.2.2.3.1.3.1.2.2h.3l.3.2h.2l.3.1.5.1.3.1h.3l.2.2h.3l.3.1.2.2.3.1.3.2.2.1.3.3.3.2.2.2.3.3.3.3.2.4.3.4.3.4.2.4.3.4.3.5.2.6.3.5.3.6.2.7.3.6.3.7.2.8.3.8.3.8.2.9.3.9.3.9.2 1 .3 1 .3 1 .2 1.1.3 1.1.3 1.1.2 1.2.3 1.2.3 1.2.2 1.2.3 1.2.3 1.2.2 1.2.3 1.3.3 1.2.2 1.2.3 1.2.3 1.2.2 1.2.3 1.2.3 1.2.2 1 .3 1.2.3 1 .2 1.1.3 1 .2 1 .3 1 .3 1 .2 1 .3.8.3 1 .3.8.2 1 .3.8.2.9.3.9.3.9.2.9.3.9.3.9.2 1 .3.9.3 1 .2.9.3 1 .3 1 .5 1.9.3 1 .2 1 .3 1 .3.9.2 1 .3.9.3 1 .2.9.3.9.3.9.2.9.3.8.3.8.2.9.3.8.3.7.2.8.3.7.3.7.2.7.3.6.3.7.2.6.3.6.3.6.2.5.3.6.3.5.2.5.3.5.3.5.2.5.3.4.3.5.2.5.3.4.5 1 .3.5.3.4.2.5.3.5.3.5.2.6.3.5.3.5.5 1 .3.6.5 1 .3.6.2.5.3.6.3.5.2.5.3.5.3.5.2.5.3.4.3.5.2.4.3.5.3.4.2.4.3.4.3.4.2.3.3.4.3.4.2.3.3.3.3.4.2.3.3.3.3.3.2.3.3.3.3.2.2.3.3.2.3.3.2.2.3.2.3.2.2.2.3.2.3.1.2.2.3.2h.3l.2.2.3.2h.3l.2.2.3.1.3.1.5.2.3.1h.2l.3.2.5.2h.3l.3.1h.2l.3.2.5.1h.3l.3.1.2.1h.3l.3.2h.2l.6.2h.2l.3.1.5.2h.3l.3.2h.2l.3.2h.3l.2.2h.3l.8.4h.2l.3.1.3.1.3.1h.2l.3.1.3.1h.2l.5.1h.6l.5.1h4.3l.8.1h.5l.3.1h.5l.3.1h1l.3.1h1.1l.2.1h3.8zm0 0" fill="#dcbcbc"/></g><path d="M451.3 162.8v-22.5l.2-.8.3-.8.3-.9.2-.8.3-.9.3-.9.2-1 .3-.9.3-.9.2-1 .3-1 .3-1 .2-1 .3-1 .3-1 .2-1 .3-1.2.3-1 .2-1.1.6-2.2.2-1 .3-1.1.3-1 .2-1.2.3-1 .3-1 .2-1 .3-1 .3-1 .2-1 .3-1 .3-1 .2-.8.3-1 .3-.8.2-.9.3-.8.2-.8.3-.9.3-.8.2-.8.3-.8.3-.9.3-.8.2-.8.3-.9.2-.8.3-.9.3-.8.2-.9.3-.9.3-.9.2-.9.3-.9.3-.9.8-2.7.2-.9.6-1.8.2-.9.3-.9.5-1.8.6-1.8.2-.9.3-1 .3-.9.2-.9.3-1 .3-.9.2-1 .3-1 .3-1 .2-1 .3-1 .5-2 .3-1 .3-1 .5-2 .3-1 .2-1 .3-1 .3-1 .2-1 .3-.9.3-.9.2-.9.3-.8.3-.9.2-.8.3-.7.3-.7.2-.7.3-.7.3-.6.2-.5.3-.5.3-.5.2-.4.3-.3.3-.3.2-.2.3-.2.3-.2h1.3l.3.2h.2l.3.2.3.2.2.1.3.2.3.1.2.2.3.1.3.1.2.2h.3l.3.2h.2l.3.1.5.1.3.1h.3l.2.2h.3l.3.1.2.2.3.1.3.2.2.1.3.3.3.2.2.2.3.3.3.3.2.4.3.4.3.4.2.4.3.4.3.5.2.6.3.5.3.6.2.7.3.6.3.7.2.8.3.8.3.8.2.9.3.9.3.9.2 1 .3 1 .3 1 .2 1.1.3 1.1.3 1.1.2 1.2.3 1.2.3 1.2.2 1.2.3 1.2.3 1.2.2 1.2.3 1.3.3 1.2.2 1.2.3 1.2.3 1.2.2 1.2.3 1.2.3 1.2.2 1 .3 1.2.3 1 .2 1.1.3 1 .2 1 .3 1 .3 1 .2 1 .3.8.3 1 .3.8.2 1 .3.8.2.9.3.9.3.9.2.9.3.9.3.9.2 1 .3.9.3 1 .2.9.3 1 .3 1 .5 1.9.3 1 .2 1 .3 1 .3.9.2 1 .3.9.3 1 .2.9.3.9.3.9.2.9.3.8.3.8.2.9.3.8.3.7.2.8.3.7.3.7.2.7.3.6.3.7.2.6.3.6.3.6.2.5.3.6.3.5.2.5.3.5.3.5.2.5.3.4.3.5.2.5.3.4.5 1 .3.5.3.4.2.5.3.5.3.5.2.6.3.5.3.5.5 1 .3.6.5 1v18.8zm0 0" fill="#b97c7c"/></svg>