<?xml version="1.0" encoding="utf-8" standalone="no"?>
<!DOCTYPE svg PUBLIC "-//W3C//DTD SVG 1.1//EN"
  "http://www.w3.org/Graphics/SVG/1.1/DTD/svg11.dtd">
<!-- Created with matplotlib (http://matplotlib.org/) -->
<svg height="257.985937pt" version="1.1" viewBox="0 0 382.193437 257.985937" width="382.193437pt" xmlns="http://www.w3.org/2000/svg" xmlns:xlink="http://www.w3.org/1999/xlink">
 <defs>
  <style type="text/css">
*{stroke-linecap:butt;stroke-linejoin:round;}
  </style>
 </defs>
 <g id="figure_1">
  <g id="patch_1">
   <path d="M 0 257.985937 
L 382.193437 257.985937 
L 382.193437 0 
L 0 0 
z
" style="fill:none;"/>
  </g>
  <g id="axes_1">
   <g id="patch_2">
    <path d="M 34.193438 230.64 
L 368.993438 230.64 
L 368.993438 13.2 
L 34.193438 13.2 
z
" style="fill:#eaeaf2;"/>
   </g>
   <g id="matplotlib.axis_1">
    <g id="xtick_1">
     <g id="line2d_1">
      <path clip-path="url(#p446c14ce14)" d="M 49.411619 230.64 
L 49.411619 13.2 
" style="fill:none;stroke:#ffffff;stroke-linecap:round;"/>
     </g>
     <g id="text_1">
      <!-- 0.0 -->
      <defs>
       <path d="M 31.78125 66.40625 
Q 24.171875 66.40625 20.328125 58.90625 
Q 16.5 51.421875 16.5 36.375 
Q 16.5 21.390625 20.328125 13.890625 
Q 24.171875 6.390625 31.78125 6.390625 
Q 39.453125 6.390625 43.28125 13.890625 
Q 47.125 21.390625 47.125 36.375 
Q 47.125 51.421875 43.28125 58.90625 
Q 39.453125 66.40625 31.78125 66.40625 
z
M 31.78125 74.21875 
Q 44.046875 74.21875 50.515625 64.515625 
Q 56.984375 54.828125 56.984375 36.375 
Q 56.984375 17.96875 50.515625 8.265625 
Q 44.046875 -1.421875 31.78125 -1.421875 
Q 19.53125 -1.421875 13.0625 8.265625 
Q 6.59375 17.96875 6.59375 36.375 
Q 6.59375 54.828125 13.0625 64.515625 
Q 19.53125 74.21875 31.78125 74.21875 
z
" id="DejaVuSans-30"/>
       <path d="M 10.6875 12.40625 
L 21 12.40625 
L 21 0 
L 10.6875 0 
z
" id="DejaVuSans-2e"/>
      </defs>
      <g style="fill:#262626;" transform="translate(40.664901 248.498281)scale(0.11 -0.11)">
       <use xlink:href="#DejaVuSans-30"/>
       <use x="63.623047" xlink:href="#DejaVuSans-2e"/>
       <use x="95.410156" xlink:href="#DejaVuSans-30"/>
      </g>
     </g>
    </g>
    <g id="xtick_2">
     <g id="line2d_2">
      <path clip-path="url(#p446c14ce14)" d="M 110.284347 230.64 
L 110.284347 13.2 
" style="fill:none;stroke:#ffffff;stroke-linecap:round;"/>
     </g>
     <g id="text_2">
      <!-- 0.2 -->
      <defs>
       <path d="M 19.1875 8.296875 
L 53.609375 8.296875 
L 53.609375 0 
L 7.328125 0 
L 7.328125 8.296875 
Q 12.9375 14.109375 22.625 23.890625 
Q 32.328125 33.6875 34.8125 36.53125 
Q 39.546875 41.84375 41.421875 45.53125 
Q 43.3125 49.21875 43.3125 52.78125 
Q 43.3125 58.59375 39.234375 62.25 
Q 35.15625 65.921875 28.609375 65.921875 
Q 23.96875 65.921875 18.8125 64.3125 
Q 13.671875 62.703125 7.8125 59.421875 
L 7.8125 69.390625 
Q 13.765625 71.78125 18.9375 73 
Q 24.125 74.21875 28.421875 74.21875 
Q 39.75 74.21875 46.484375 68.546875 
Q 53.21875 62.890625 53.21875 53.421875 
Q 53.21875 48.921875 51.53125 44.890625 
Q 49.859375 40.875 45.40625 35.40625 
Q 44.1875 33.984375 37.640625 27.21875 
Q 31.109375 20.453125 19.1875 8.296875 
z
" id="DejaVuSans-32"/>
      </defs>
      <g style="fill:#262626;" transform="translate(101.537628 248.498281)scale(0.11 -0.11)">
       <use xlink:href="#DejaVuSans-30"/>
       <use x="63.623047" xlink:href="#DejaVuSans-2e"/>
       <use x="95.410156" xlink:href="#DejaVuSans-32"/>
      </g>
     </g>
    </g>
    <g id="xtick_3">
     <g id="line2d_3">
      <path clip-path="url(#p446c14ce14)" d="M 171.157074 230.64 
L 171.157074 13.2 
" style="fill:none;stroke:#ffffff;stroke-linecap:round;"/>
     </g>
     <g id="text_3">
      <!-- 0.4 -->
      <defs>
       <path d="M 37.796875 64.3125 
L 12.890625 25.390625 
L 37.796875 25.390625 
z
M 35.203125 72.90625 
L 47.609375 72.90625 
L 47.609375 25.390625 
L 58.015625 25.390625 
L 58.015625 17.1875 
L 47.609375 17.1875 
L 47.609375 0 
L 37.796875 0 
L 37.796875 17.1875 
L 4.890625 17.1875 
L 4.890625 26.703125 
z
" id="DejaVuSans-34"/>
      </defs>
      <g style="fill:#262626;" transform="translate(162.410355 248.498281)scale(0.11 -0.11)">
       <use xlink:href="#DejaVuSans-30"/>
       <use x="63.623047" xlink:href="#DejaVuSans-2e"/>
       <use x="95.410156" xlink:href="#DejaVuSans-34"/>
      </g>
     </g>
    </g>
    <g id="xtick_4">
     <g id="line2d_4">
      <path clip-path="url(#p446c14ce14)" d="M 232.029801 230.64 
L 232.029801 13.2 
" style="fill:none;stroke:#ffffff;stroke-linecap:round;"/>
     </g>
     <g id="text_4">
      <!-- 0.6 -->
      <defs>
       <path d="M 33.015625 40.375 
Q 26.375 40.375 22.484375 35.828125 
Q 18.609375 31.296875 18.609375 23.390625 
Q 18.609375 15.53125 22.484375 10.953125 
Q 26.375 6.390625 33.015625 6.390625 
Q 39.65625 6.390625 43.53125 10.953125 
Q 47.40625 15.53125 47.40625 23.390625 
Q 47.40625 31.296875 43.53125 35.828125 
Q 39.65625 40.375 33.015625 40.375 
z
M 52.59375 71.296875 
L 52.59375 62.3125 
Q 48.875 64.0625 45.09375 64.984375 
Q 41.3125 65.921875 37.59375 65.921875 
Q 27.828125 65.921875 22.671875 59.328125 
Q 17.53125 52.734375 16.796875 39.40625 
Q 19.671875 43.65625 24.015625 45.921875 
Q 28.375 48.1875 33.59375 48.1875 
Q 44.578125 48.1875 50.953125 41.515625 
Q 57.328125 34.859375 57.328125 23.390625 
Q 57.328125 12.15625 50.6875 5.359375 
Q 44.046875 -1.421875 33.015625 -1.421875 
Q 20.359375 -1.421875 13.671875 8.265625 
Q 6.984375 17.96875 6.984375 36.375 
Q 6.984375 53.65625 15.1875 63.9375 
Q 23.390625 74.21875 37.203125 74.21875 
Q 40.921875 74.21875 44.703125 73.484375 
Q 48.484375 72.75 52.59375 71.296875 
z
" id="DejaVuSans-36"/>
      </defs>
      <g style="fill:#262626;" transform="translate(223.283082 248.498281)scale(0.11 -0.11)">
       <use xlink:href="#DejaVuSans-30"/>
       <use x="63.623047" xlink:href="#DejaVuSans-2e"/>
       <use x="95.410156" xlink:href="#DejaVuSans-36"/>
      </g>
     </g>
    </g>
    <g id="xtick_5">
     <g id="line2d_5">
      <path clip-path="url(#p446c14ce14)" d="M 292.902528 230.64 
L 292.902528 13.2 
" style="fill:none;stroke:#ffffff;stroke-linecap:round;"/>
     </g>
     <g id="text_5">
      <!-- 0.8 -->
      <defs>
       <path d="M 31.78125 34.625 
Q 24.75 34.625 20.71875 30.859375 
Q 16.703125 27.09375 16.703125 20.515625 
Q 16.703125 13.921875 20.71875 10.15625 
Q 24.75 6.390625 31.78125 6.390625 
Q 38.8125 6.390625 42.859375 10.171875 
Q 46.921875 13.96875 46.921875 20.515625 
Q 46.921875 27.09375 42.890625 30.859375 
Q 38.875 34.625 31.78125 34.625 
z
M 21.921875 38.8125 
Q 15.578125 40.375 12.03125 44.71875 
Q 8.5 49.078125 8.5 55.328125 
Q 8.5 64.0625 14.71875 69.140625 
Q 20.953125 74.21875 31.78125 74.21875 
Q 42.671875 74.21875 48.875 69.140625 
Q 55.078125 64.0625 55.078125 55.328125 
Q 55.078125 49.078125 51.53125 44.71875 
Q 48 40.375 41.703125 38.8125 
Q 48.828125 37.15625 52.796875 32.3125 
Q 56.78125 27.484375 56.78125 20.515625 
Q 56.78125 9.90625 50.3125 4.234375 
Q 43.84375 -1.421875 31.78125 -1.421875 
Q 19.734375 -1.421875 13.25 4.234375 
Q 6.78125 9.90625 6.78125 20.515625 
Q 6.78125 27.484375 10.78125 32.3125 
Q 14.796875 37.15625 21.921875 38.8125 
z
M 18.3125 54.390625 
Q 18.3125 48.734375 21.84375 45.5625 
Q 25.390625 42.390625 31.78125 42.390625 
Q 38.140625 42.390625 41.71875 45.5625 
Q 45.3125 48.734375 45.3125 54.390625 
Q 45.3125 60.0625 41.71875 63.234375 
Q 38.140625 66.40625 31.78125 66.40625 
Q 25.390625 66.40625 21.84375 63.234375 
Q 18.3125 60.0625 18.3125 54.390625 
z
" id="DejaVuSans-38"/>
      </defs>
      <g style="fill:#262626;" transform="translate(284.15581 248.498281)scale(0.11 -0.11)">
       <use xlink:href="#DejaVuSans-30"/>
       <use x="63.623047" xlink:href="#DejaVuSans-2e"/>
       <use x="95.410156" xlink:href="#DejaVuSans-38"/>
      </g>
     </g>
    </g>
    <g id="xtick_6">
     <g id="line2d_6">
      <path clip-path="url(#p446c14ce14)" d="M 353.775256 230.64 
L 353.775256 13.2 
" style="fill:none;stroke:#ffffff;stroke-linecap:round;"/>
     </g>
     <g id="text_6">
      <!-- 1.0 -->
      <defs>
       <path d="M 12.40625 8.296875 
L 28.515625 8.296875 
L 28.515625 63.921875 
L 10.984375 60.40625 
L 10.984375 69.390625 
L 28.421875 72.90625 
L 38.28125 72.90625 
L 38.28125 8.296875 
L 54.390625 8.296875 
L 54.390625 0 
L 12.40625 0 
z
" id="DejaVuSans-31"/>
      </defs>
      <g style="fill:#262626;" transform="translate(345.028537 248.498281)scale(0.11 -0.11)">
       <use xlink:href="#DejaVuSans-31"/>
       <use x="63.623047" xlink:href="#DejaVuSans-2e"/>
       <use x="95.410156" xlink:href="#DejaVuSans-30"/>
      </g>
     </g>
    </g>
   </g>
   <g id="matplotlib.axis_2">
    <g id="ytick_1">
     <g id="line2d_7">
      <path clip-path="url(#p446c14ce14)" d="M 34.193438 220.756364 
L 368.993438 220.756364 
" style="fill:none;stroke:#ffffff;stroke-linecap:round;"/>
     </g>
     <g id="text_7">
      <!-- 0.0 -->
      <g style="fill:#262626;" transform="translate(7.2 224.935504)scale(0.11 -0.11)">
       <use xlink:href="#DejaVuSans-30"/>
       <use x="63.623047" xlink:href="#DejaVuSans-2e"/>
       <use x="95.410156" xlink:href="#DejaVuSans-30"/>
      </g>
     </g>
    </g>
    <g id="ytick_2">
     <g id="line2d_8">
      <path clip-path="url(#p446c14ce14)" d="M 34.193438 181.221818 
L 368.993438 181.221818 
" style="fill:none;stroke:#ffffff;stroke-linecap:round;"/>
     </g>
     <g id="text_8">
      <!-- 0.2 -->
      <g style="fill:#262626;" transform="translate(7.2 185.400959)scale(0.11 -0.11)">
       <use xlink:href="#DejaVuSans-30"/>
       <use x="63.623047" xlink:href="#DejaVuSans-2e"/>
       <use x="95.410156" xlink:href="#DejaVuSans-32"/>
      </g>
     </g>
    </g>
    <g id="ytick_3">
     <g id="line2d_9">
      <path clip-path="url(#p446c14ce14)" d="M 34.193438 141.687273 
L 368.993438 141.687273 
" style="fill:none;stroke:#ffffff;stroke-linecap:round;"/>
     </g>
     <g id="text_9">
      <!-- 0.4 -->
      <g style="fill:#262626;" transform="translate(7.2 145.866413)scale(0.11 -0.11)">
       <use xlink:href="#DejaVuSans-30"/>
       <use x="63.623047" xlink:href="#DejaVuSans-2e"/>
       <use x="95.410156" xlink:href="#DejaVuSans-34"/>
      </g>
     </g>
    </g>
    <g id="ytick_4">
     <g id="line2d_10">
      <path clip-path="url(#p446c14ce14)" d="M 34.193438 102.152727 
L 368.993438 102.152727 
" style="fill:none;stroke:#ffffff;stroke-linecap:round;"/>
     </g>
     <g id="text_10">
      <!-- 0.6 -->
      <g style="fill:#262626;" transform="translate(7.2 106.331868)scale(0.11 -0.11)">
       <use xlink:href="#DejaVuSans-30"/>
       <use x="63.623047" xlink:href="#DejaVuSans-2e"/>
       <use x="95.410156" xlink:href="#DejaVuSans-36"/>
      </g>
     </g>
    </g>
    <g id="ytick_5">
     <g id="line2d_11">
      <path clip-path="url(#p446c14ce14)" d="M 34.193438 62.618182 
L 368.993438 62.618182 
" style="fill:none;stroke:#ffffff;stroke-linecap:round;"/>
     </g>
     <g id="text_11">
      <!-- 0.8 -->
      <g style="fill:#262626;" transform="translate(7.2 66.797322)scale(0.11 -0.11)">
       <use xlink:href="#DejaVuSans-30"/>
       <use x="63.623047" xlink:href="#DejaVuSans-2e"/>
       <use x="95.410156" xlink:href="#DejaVuSans-38"/>
      </g>
     </g>
    </g>
    <g id="ytick_6">
     <g id="line2d_12">
      <path clip-path="url(#p446c14ce14)" d="M 34.193438 23.083636 
L 368.993438 23.083636 
" style="fill:none;stroke:#ffffff;stroke-linecap:round;"/>
     </g>
     <g id="text_12">
      <!-- 1.0 -->
      <g style="fill:#262626;" transform="translate(7.2 27.262777)scale(0.11 -0.11)">
       <use xlink:href="#DejaVuSans-31"/>
       <use x="63.623047" xlink:href="#DejaVuSans-2e"/>
       <use x="95.410156" xlink:href="#DejaVuSans-30"/>
      </g>
     </g>
    </g>
   </g>
   <g id="line2d_13">
    <path clip-path="url(#p446c14ce14)" d="M 49.411619 220.756364 
L 50.576629 212.888634 
L 50.672457 212.4188 
L 50.900721 211.017261 
L 51.013777 210.483721 
L 51.532755 208.038991 
L 51.922528 206.549856 
L 52.468424 204.391804 
L 52.534104 204.152906 
L 54.500192 196.930202 
L 54.51742 196.858533 
L 54.51742 196.85057 
L 54.686465 196.277213 
L 54.745684 196.17369 
L 54.920113 195.695893 
L 55.039628 195.337545 
L 55.490774 193.840446 
L 56.271395 191.634615 
L 56.741921 190.153443 
L 57.021868 189.269518 
L 57.102622 189.086363 
L 57.110159 189.086363 
L 57.529002 188.098915 
L 57.593605 187.955576 
L 57.69697 187.684824 
L 57.702354 187.684824 
L 59.050406 184.09338 
L 59.2819 183.472244 
L 59.308818 183.400574 
L 59.308818 183.392611 
L 59.770731 182.222007 
L 60.173424 181.21067 
L 60.207879 181.139 
L 60.821608 179.721535 
L 62.620805 175.73989 
L 62.6488 175.676184 
L 67.234545 166.964345 
L 67.655542 166.263576 
L 69.228629 163.17382 
L 69.723919 162.114702 
L 70.192292 161.230777 
L 70.308578 160.991878 
L 70.725268 160.251292 
L 71.093506 159.638119 
L 71.153802 159.54256 
L 72.56538 157.010234 
L 72.713967 156.739482 
L 73.915585 154.820329 
L 74.441024 154.039927 
L 74.628373 153.824918 
L 74.963233 153.371011 
L 77.298636 149.803457 
L 77.344935 149.699934 
L 77.673334 149.182321 
L 77.936053 148.816009 
L 78.114789 148.585074 
L 79.378857 146.753517 
L 79.648036 146.363316 
L 80.964863 144.364531 
L 82.926645 141.465893 
L 83.229203 141.027912 
L 83.64697 140.422702 
L 83.743875 140.22362 
L 84.691387 138.893751 
L 85.063932 138.567256 
L 85.126381 138.45577 
L 85.591524 137.930193 
L 87.412255 135.286381 
L 87.462861 135.222675 
L 87.906469 134.689134 
L 88.625718 133.900769 
L 89.033794 133.335375 
L 89.058558 133.311485 
L 89.058558 133.303522 
L 90.037296 132.045322 
L 90.718859 131.201214 
L 90.825454 131.081764 
L 90.829761 131.081764 
L 90.854525 131.057874 
L 90.854525 131.049911 
L 91.176464 130.70749 
L 92.025995 129.704115 
L 92.147665 129.552813 
L 92.240262 129.465216 
L 92.485754 129.138722 
L 93.100561 128.390172 
L 93.241611 128.278686 
L 94.540134 126.797515 
L 94.929906 126.39935 
L 95.276609 126.096745 
L 95.359517 126.025076 
L 96.347945 124.766876 
L 96.612817 124.551867 
L 96.804473 124.400565 
L 97.102725 124.058143 
L 97.239468 123.835171 
L 97.769213 123.389227 
L 97.975943 123.142365 
L 109.447305 111.43633 
L 109.68203 111.229284 
L 109.803699 111.101872 
L 110.366823 110.624074 
L 110.842733 110.162204 
L 111.801013 109.318095 
L 112.28769 108.824371 
L 112.451351 108.720848 
L 112.596708 108.617325 
L 113.247046 108.083785 
L 113.424705 107.980262 
L 113.762794 107.558208 
L 114.296847 107.168007 
L 118.012603 103.807499 
L 118.129966 103.727866 
L 119.118394 102.851904 
L 120.49767 101.832603 
L 120.680713 101.72908 
L 120.96389 101.537961 
L 121.143702 101.322953 
L 121.263217 101.21943 
L 121.38058 101.139797 
L 125.451653 97.858922 
L 125.741291 97.65984 
L 125.903875 97.444831 
L 126.432544 96.998887 
L 126.806166 96.696282 
L 127.51034 96.035329 
L 128.535376 95.231036 
L 129.16095 94.793055 
L 130.219364 94.084323 
L 130.349647 94.00469 
L 130.432555 93.917094 
L 131.580337 92.969462 
L 132.082088 92.650931 
L 139.386548 87.849067 
L 139.915217 87.482756 
L 140.514949 87.068665 
L 140.743214 86.965142 
L 141.21051 86.630684 
L 141.308491 86.543088 
L 142.144025 86.001584 
L 144.475121 84.791164 
L 144.79706 84.528376 
L 146.008369 83.78779 
L 146.11604 83.676304 
L 146.613484 83.333882 
L 146.973109 83.142763 
L 147.07755 83.071094 
L 150.198958 81.191757 
L 150.869754 80.705997 
L 150.945124 80.674144 
L 151.892637 80.029117 
L 154.396008 78.508129 
L 154.847153 78.181634 
L 154.967746 78.117928 
L 157.786595 76.636756 
L 157.816743 76.588976 
L 160.594678 74.884832 
L 161.368839 74.502595 
L 166.195769 71.866746 
L 166.266832 71.80304 
L 166.272216 71.80304 
L 167.522287 71.07838 
L 167.695638 70.982821 
L 172.765907 68.020477 
L 173.100767 67.845285 
L 179.978846 64.206062 
L 180.072521 64.166245 
L 180.076828 64.166245 
L 180.603343 63.879567 
L 181.790964 63.298247 
L 182.210884 63.099164 
L 183.305907 62.62933 
L 183.676299 62.438211 
L 183.955169 62.382468 
L 185.57563 61.625956 
L 185.57563 61.610029 
L 185.578861 61.610029 
L 186.649119 61.156122 
L 189.091117 60.081078 
L 189.105115 60.057188 
L 192.903779 58.639723 
L 193.713471 58.281375 
L 197.994505 56.473708 
L 198.274452 56.370185 
L 201.095455 55.215508 
L 201.179439 55.175692 
L 201.545524 55.056242 
L 201.716722 54.992536 
L 202.342295 54.681968 
L 203.042163 54.427143 
L 203.122917 54.387326 
L 203.758181 54.108611 
L 204.178101 54.005088 
L 204.526958 53.909529 
L 204.834899 53.813969 
L 207.613911 52.810595 
L 207.613911 52.802632 
L 207.631138 52.802632 
L 208.741235 52.277054 
L 209.169769 52.173532 
L 209.239756 52.141679 
L 210.57058 51.655918 
L 211.199384 51.440909 
L 214.876379 50.103077 
L 215.097106 50.055297 
L 216.942602 49.203225 
L 217.620935 48.980253 
L 220.080161 48.104291 
L 221.220406 47.698163 
L 221.797527 47.467228 
L 224.127547 46.790348 
L 224.476404 46.599229 
L 225.57681 46.336441 
L 227.908983 45.564002 
L 228.059724 45.492332 
L 228.757437 45.34103 
L 229.317331 45.205654 
L 233.352873 44.03505 
L 233.681272 43.971344 
L 235.546149 43.390024 
L 235.862705 43.326317 
L 238.783843 42.434429 
L 239.952083 42.107934 
L 240.079135 42.052191 
L 240.587347 41.932742 
L 240.909286 41.829219 
L 242.403771 41.439018 
L 243.240382 41.184193 
L 243.619387 41.08067 
L 248.16637 39.989699 
L 248.279426 39.933956 
L 250.399485 39.480049 
L 260.97394 36.565485 
L 261.568289 36.461962 
L 275.132792 33.531472 
L 276.739257 33.28461 
L 277.070886 33.197014 
L 284.260137 31.962704 
L 284.688671 31.859181 
L 285.115052 31.787511 
L 286.085176 31.699915 
L 286.114247 31.676025 
L 290.130408 31.030999 
L 290.275765 31.007109 
L 291.100532 30.88766 
L 291.88869 30.672651 
L 292.44966 30.585055 
L 294.307 30.091331 
L 299.921012 29.103883 
L 300.602575 29.00036 
L 302.14982 28.849058 
L 303.004735 28.753498 
L 306.031391 28.299591 
L 306.311338 28.227921 
L 308.68981 27.973096 
L 309.471508 27.877536 
L 309.832209 27.781977 
L 310.223057 27.718271 
L 311.03921 27.630674 
L 312.524006 27.423629 
L 315.411765 26.913978 
L 333.237922 24.851487 
L 334.487992 24.692221 
L 334.889608 24.636478 
L 335.641158 24.548882 
L 338.488002 24.198497 
L 347.038226 23.457911 
L 348.554246 23.354388 
L 351.731643 23.123453 
L 353.775256 23.083636 
L 353.775256 23.083636 
" style="fill:none;stroke:#4c72b0;stroke-linecap:round;stroke-width:1.5;"/>
   </g>
   <g id="line2d_14">
    <path clip-path="url(#p446c14ce14)" d="M 49.411619 220.756364 
L 49.859534 217.093251 
L 49.947825 216.623417 
L 50.213775 214.823713 
L 50.232079 214.760007 
L 50.701528 212.434726 
L 50.885647 211.510985 
L 51.161287 210.189079 
L 51.249578 209.878511 
L 51.48538 208.652164 
L 51.507991 208.620311 
L 52.985249 202.448762 
L 55.973144 193.052081 
L 56.499659 191.618689 
L 56.625635 191.339973 
L 56.662244 191.252377 
L 58.519584 186.259395 
L 58.736004 185.805487 
L 58.843676 185.478993 
L 58.952424 185.263984 
L 59.500474 183.575766 
L 60.651487 180.788615 
L 61.038029 180.048029 
L 61.448259 179.028728 
L 61.513938 178.877426 
L 62.102904 177.674969 
L 62.282716 177.276805 
L 62.287023 177.268841 
L 63.570471 174.632993 
L 63.659839 174.43391 
L 63.661992 174.43391 
L 64.412465 172.936812 
L 65.475187 170.738944 
L 66.283803 169.202029 
L 66.443157 168.915351 
L 67.568328 166.821006 
L 67.761061 166.390988 
L 67.910725 166.144126 
L 68.503997 164.82222 
L 68.531992 164.758514 
L 69.363218 163.476425 
L 70.273046 162.130629 
L 70.460395 161.700611 
L 71.199024 160.649457 
L 74.346273 155.186641 
L 75.39392 153.570093 
L 75.784769 152.988773 
L 77.193117 150.55997 
L 78.506714 148.497478 
L 78.929865 147.772818 
L 79.480068 146.92871 
L 81.496762 144.038036 
L 81.516143 143.974329 
L 86.531499 136.902929 
L 86.862052 136.544581 
L 86.971877 136.377352 
L 86.991258 136.353462 
L 88.289781 134.561722 
L 88.325313 134.529868 
L 88.761384 134.075961 
L 88.830294 133.972438 
L 89.127468 133.574274 
L 89.944698 132.626642 
L 90.041603 132.531083 
L 91.348739 130.994168 
L 91.463948 130.858792 
L 91.854797 130.476554 
L 93.082257 129.027236 
L 93.179161 128.923713 
L 93.219 128.860007 
L 93.774587 128.159237 
L 93.968396 127.912375 
L 94.274184 127.68144 
L 94.656419 127.179753 
L 94.908372 126.885111 
L 94.966514 126.813441 
L 95.084954 126.733808 
L 97.247005 124.113886 
L 98.38079 122.975136 
L 98.663967 122.680494 
L 99.921574 121.199322 
L 100.173526 121.040057 
L 100.186447 121.032093 
L 102.977302 118.181236 
L 103.109739 118.029933 
L 103.158191 117.982154 
L 103.164651 117.982154 
L 105.602343 115.593167 
L 106.133165 115.226855 
L 108.99293 112.431741 
L 109.368705 112.049503 
L 109.488221 111.953944 
L 109.561438 111.874311 
L 110.091183 111.277064 
L 112.148793 109.477361 
L 112.864811 108.856224 
L 113.233049 108.497876 
L 113.495768 108.282867 
L 113.622821 108.195271 
L 113.904921 107.860813 
L 115.142071 106.658356 
L 115.397253 106.467237 
L 115.492005 106.355751 
L 115.494158 106.355751 
L 116.099274 105.893881 
L 116.447054 105.662945 
L 116.659168 105.479789 
L 116.820676 105.376267 
L 116.936961 105.272744 
L 117.279358 104.930323 
L 117.409641 104.786983 
L 117.895241 104.396782 
L 118.106278 104.189737 
L 119.548004 102.804124 
L 120.501977 101.880383 
L 120.646258 101.792787 
L 121.163083 101.291099 
L 121.955548 100.669963 
L 122.053529 100.582367 
L 122.057836 100.582367 
L 122.250568 100.359395 
L 122.999965 99.849744 
L 123.137785 99.746221 
L 124.070223 99.093232 
L 124.265109 98.957856 
L 126.371171 97.333345 
L 127.340218 96.298117 
L 129.24278 94.920468 
L 129.317074 94.848798 
L 132.079934 92.762417 
L 132.224215 92.611114 
L 133.254634 91.894418 
L 134.594073 90.922897 
L 135.035527 90.564549 
L 136.429878 89.704514 
L 137.601348 88.836515 
L 138.400274 88.199452 
L 138.509022 88.087966 
L 139.016157 87.713691 
L 139.237961 87.610169 
L 139.307948 87.514609 
L 139.840923 87.092555 
L 141.164211 86.367895 
L 142.357215 85.420264 
L 142.850352 85.157476 
L 147.00218 82.832195 
L 147.634214 82.569407 
L 148.71524 81.804931 
L 148.858443 81.741224 
L 149.595996 81.223611 
L 149.878096 80.984712 
L 150.312014 80.825446 
L 152.299636 79.511503 
L 152.30502 79.495577 
L 156.801398 76.899545 
L 156.875691 76.851765 
L 157.585249 76.429711 
L 159.359681 75.474116 
L 159.531956 75.370593 
L 166.62215 71.787113 
L 170.192549 69.788327 
L 171.058231 69.437943 
L 171.614895 69.135338 
L 173.949221 67.916954 
L 174.374525 67.614349 
L 174.868739 67.367487 
L 176.452592 66.491526 
L 177.116928 66.244664 
L 177.698356 65.894279 
L 177.943848 65.75094 
L 178.682477 65.360739 
L 183.270376 63.154908 
L 183.42327 63.019532 
L 185.405509 62.270982 
L 185.714527 62.11968 
L 186.122604 62.016157 
L 187.126106 61.410947 
L 187.34791 61.339278 
L 190.381026 60.001445 
L 190.476854 59.977555 
L 191.457745 59.587354 
L 191.569724 59.515684 
L 192.935003 58.822878 
L 195.870139 57.437266 
L 196.779966 57.078918 
L 197.414154 56.855946 
L 197.640264 56.776313 
L 200.99532 55.319031 
L 201.115913 55.239398 
L 202.213089 54.841234 
L 202.683615 54.674005 
L 209.076095 52.515953 
L 209.573539 52.364651 
L 210.963583 51.934633 
L 211.316746 51.759441 
L 211.708672 51.504615 
L 212.252415 51.265717 
L 212.460222 51.154231 
L 216.272883 49.728802 
L 216.558214 49.625279 
L 221.157956 48.032621 
L 224.33966 46.925724 
L 224.516242 46.854055 
L 224.949083 46.766458 
L 226.87318 46.169212 
L 227.042224 46.113469 
L 227.298483 46.009946 
L 228.265377 45.8029 
L 229.559593 45.420663 
L 229.828773 45.333066 
L 231.266192 44.887122 
L 231.511684 44.751746 
L 231.884229 44.624334 
L 232.008051 44.544701 
L 232.281538 44.401361 
L 233.348566 44.074867 
L 235.288814 43.437804 
L 235.599985 43.334281 
L 238.24979 42.490172 
L 240.755315 41.813293 
L 240.805921 41.789403 
L 243.376048 41.088633 
L 243.708754 40.977147 
L 244.249267 40.873624 
L 244.467841 40.778065 
L 244.661651 40.674542 
L 251.107966 38.922619 
L 251.440672 38.850949 
L 252.066246 38.675757 
L 252.584147 38.58816 
L 253.088052 38.436858 
L 253.234486 38.381115 
L 255.751854 37.728125 
L 263.822938 35.896569 
L 264.540033 35.697486 
L 266.699931 35.283395 
L 266.936809 35.211726 
L 268.377459 34.933011 
L 271.164007 34.272058 
L 272.826461 34.033159 
L 272.910445 34.009269 
L 275.30076 33.595178 
L 276.993362 33.26072 
L 280.17722 32.671437 
L 280.201984 32.663473 
L 282.043173 32.392721 
L 282.362959 32.321052 
L 282.934697 32.233456 
L 286.925016 31.44509 
L 287.297561 31.381384 
L 287.803619 31.285824 
L 287.813309 31.269898 
L 291.029468 30.521348 
L 291.853158 30.441716 
L 302.627883 28.912764 
L 302.667722 28.904801 
L 305.401511 28.39515 
L 307.160869 28.211995 
L 310.411483 27.774014 
L 311.000448 27.694381 
L 318.260763 26.515814 
L 318.338287 26.491924 
L 323.346106 25.934494 
L 323.41717 25.934494 
L 329.430644 25.170018 
L 337.910881 24.270166 
L 338.122995 24.238313 
L 339.32569 24.134791 
L 340.592988 23.975525 
L 350.654925 23.187159 
L 353.775256 23.083636 
L 353.775256 23.083636 
" style="fill:none;stroke:#dd8452;stroke-linecap:round;stroke-width:1.5;"/>
   </g>
   <g id="line2d_15">
    <path clip-path="url(#p446c14ce14)" d="M 49.411619 220.756364 
L 49.417003 220.652841 
L 49.527905 220.007814 
L 49.5559 219.904292 
L 49.872455 218.37534 
L 49.893989 218.287744 
L 49.893989 218.271817 
L 50.240693 216.53582 
L 50.289145 216.432298 
L 50.391433 215.906721 
L 50.39574 215.906721 
L 50.440962 215.803198 
L 50.703682 214.688337 
L 50.756441 214.513145 
L 50.86519 214.122944 
L 50.867343 214.122944 
L 50.899645 214.019421 
L 51.889149 210.778362 
L 51.91499 210.690766 
L 51.91499 210.682803 
L 52.094803 210.125373 
L 52.400591 209.153851 
L 52.435046 209.050329 
L 52.598707 208.644201 
L 52.646083 208.540678 
L 52.835585 207.959358 
L 52.864656 207.863798 
L 53.041238 207.378038 
L 53.07031 207.274515 
L 53.181212 206.963947 
L 53.207053 206.876351 
L 53.504227 205.912793 
L 53.536529 205.80927 
L 53.728185 205.20406 
L 53.776637 205.100537 
L 53.887539 204.710336 
L 53.947836 204.606813 
L 54.058738 204.240502 
L 54.106113 204.136979 
L 54.288079 203.587512 
L 54.422669 203.181384 
L 54.473274 203.077862 
L 54.650933 202.584138 
L 54.678928 202.528395 
L 54.972872 201.692249 
L 55.025631 201.588727 
L 55.196829 201.142782 
L 55.565067 200.195151 
L 55.675969 199.980142 
L 55.715808 199.876619 
L 55.878392 199.494382 
L 55.933305 199.398822 
L 56.057128 199.10418 
L 57.237211 196.293139 
L 57.329809 196.189617 
L 57.640981 195.5207 
L 57.712044 195.425141 
L 57.712044 195.417177 
L 57.977994 194.851784 
L 57.983378 194.843821 
L 58.180417 194.397876 
L 58.444213 193.904153 
L 58.548655 193.585621 
L 58.634792 193.442282 
L 58.740311 193.21931 
L 58.743541 193.21931 
L 58.926583 192.757439 
L 59.033178 192.462797 
L 59.034255 192.462797 
L 59.26898 191.992963 
L 59.319586 191.873514 
L 59.608146 191.300157 
L 59.671673 191.196634 
L 59.815953 190.973662 
L 59.95808 190.782543 
L 60.24664 190.256966 
L 60.294016 190.153443 
L 60.399535 189.938435 
L 60.685942 189.293408 
L 60.79792 189.189885 
L 60.903439 188.966913 
L 60.907746 188.966913 
L 60.940047 188.879317 
L 60.940047 188.86339 
L 61.144624 188.473189 
L 61.252296 188.162621 
L 61.399806 187.947612 
L 61.709901 187.326476 
L 61.783118 187.222953 
L 62.065218 186.649596 
L 62.138435 186.474404 
L 62.139512 186.474404 
L 62.772623 185.208241 
L 62.822152 185.128608 
L 63.350821 184.196903 
L 63.753514 183.575766 
L 63.907484 183.265198 
L 63.965627 183.161675 
L 64.432923 182.460906 
L 64.683799 182.110521 
L 64.792547 181.935329 
L 64.793624 181.935329 
L 64.942211 181.712357 
L 65.227542 181.21067 
L 66.252578 179.641902 
L 66.326871 179.538379 
L 66.537908 179.164104 
L 66.589591 179.076508 
L 66.684342 178.901316 
L 69.975871 173.549985 
L 70.048012 173.422573 
L 70.065239 173.422573 
L 70.869548 172.435125 
L 70.98045 172.259933 
L 71.027826 172.15641 
L 71.185027 171.949364 
L 71.470357 171.5512 
L 71.616791 171.304338 
L 71.949497 170.961916 
L 72.270359 170.515972 
L 72.476012 170.189477 
L 73.180187 169.241846 
L 73.25771 169.138323 
L 73.349231 168.915351 
L 73.438599 168.795902 
L 73.547348 168.493297 
L 76.498634 164.734624 
L 77.098366 163.946259 
L 77.189887 163.818846 
L 80.941176 158.825864 
L 81.788553 158.101204 
L 82.007127 157.798599 
L 82.109415 157.695077 
L 82.241852 157.535811 
L 82.570251 157.129683 
L 83.777253 155.744071 
L 83.943068 155.544989 
L 84.00121 155.465356 
L 84.5428 155.091081 
L 86.81683 152.574682 
L 87.093547 152.335783 
L 87.219523 152.152627 
L 87.439173 151.953545 
L 87.77188 151.65094 
L 87.77834 151.619087 
L 88.156268 151.308519 
L 88.534196 150.974061 
L 88.698934 150.759052 
L 88.981035 150.46441 
L 89.095167 150.289218 
L 89.154386 150.249401 
L 90.2591 148.895642 
L 90.281711 148.847862 
L 92.048607 147.095939 
L 92.400694 146.80926 
L 92.978892 146.196087 
L 93.096254 146.060711 
L 93.390198 145.821812 
L 93.610925 145.559024 
L 94.107293 145.240492 
L 94.513216 144.850291 
L 94.867456 144.563613 
L 94.943903 144.476017 
L 95.136636 144.340641 
L 95.410123 143.998219 
L 95.838657 143.663761 
L 96.190744 143.448752 
L 97.907033 142.01536 
L 98.381866 141.402187 
L 98.979445 140.916426 
L 99.093578 140.820867 
L 100.145532 139.69008 
L 100.24782 139.586557 
L 100.495465 139.212282 
L 100.814174 138.901714 
L 100.922923 138.814118 
L 102.153612 137.643514 
L 102.269898 137.571845 
L 102.287125 137.571845 
L 102.59076 137.205534 
L 102.798567 137.054231 
L 103.670709 135.923444 
L 104.068018 135.485463 
L 104.402878 135.119152 
L 104.402878 135.111189 
L 104.43841 135.111189 
L 104.631142 135.055445 
L 105.500054 134.139667 
L 105.90167 133.757429 
L 106.013649 133.5902 
L 106.5154 133.03277 
L 106.596154 132.929247 
L 106.708133 132.817761 
L 108.256454 131.424186 
L 108.724827 130.890645 
L 108.997237 130.795086 
L 109.387009 130.428774 
L 109.581895 130.229692 
L 109.752017 130.094316 
L 111.584592 128.860007 
L 111.721335 128.668888 
L 111.938833 128.573328 
L 112.082036 128.437952 
L 112.302764 128.14331 
L 112.408282 128.047751 
L 112.808821 127.769036 
L 112.922954 127.649587 
L 113.146911 127.506247 
L 119.504936 122.537155 
L 121.670217 121.438221 
L 121.836032 121.255065 
L 122.059989 121.127653 
L 122.321632 121.008203 
L 122.559587 120.848938 
L 122.667259 120.673745 
L 123.341285 120.195948 
L 123.489872 120.020756 
L 123.80535 119.74204 
L 124.439538 119.574811 
L 125.916796 118.659033 
L 126.441158 118.467914 
L 130.453012 116.023184 
L 131.545882 115.425938 
L 131.751535 115.282598 
L 131.812908 115.210929 
L 133.318161 114.334967 
L 133.403222 114.215518 
L 133.405375 114.215518 
L 133.827449 113.753647 
L 134.015875 113.634198 
L 134.660829 112.925465 
L 136.887484 111.786715 
L 137.332169 111.197431 
L 137.954512 110.448882 
L 138.063261 110.22591 
L 138.560705 109.57292 
L 138.791122 109.326058 
L 139.058149 108.904004 
L 139.265955 108.728811 
L 141.14483 106.976888 
L 141.775787 106.339825 
L 141.794091 106.292045 
L 143.652508 104.946249 
L 143.916304 104.747167 
L 145.533536 103.711939 
L 145.602446 103.600453 
L 146.820214 102.851904 
L 146.86436 102.820051 
L 146.866513 102.820051 
L 147.665439 102.501519 
L 150.642566 101.068127 
L 150.911746 100.813302 
L 151.463026 100.56644 
L 151.608383 100.462917 
L 151.908787 100.239945 
L 152.755088 99.873634 
L 153.20085 99.515286 
L 153.507715 99.30824 
L 153.661686 99.164901 
L 153.68322 99.164901 
L 155.446885 98.296903 
L 155.551327 98.177453 
L 155.807586 97.827069 
L 156.061692 97.532427 
L 156.165057 97.436867 
L 158.005169 95.653091 
L 158.175291 95.549568 
L 158.514457 95.302706 
L 158.867621 95.047881 
L 159.060354 94.793055 
L 159.32415 94.63379 
L 160.269509 94.012653 
L 161.198717 93.622452 
L 161.288085 93.558746 
L 162.09347 93.224287 
L 162.417563 93.112801 
L 162.673822 93.041132 
L 163.846369 92.14128 
L 164.176921 92.061647 
L 165.073828 91.480327 
L 165.268714 91.233465 
L 166.038568 90.636218 
L 167.778546 89.776183 
L 167.991736 89.449688 
L 168.665762 89.16301 
L 168.802505 89.075414 
L 169.449613 88.924111 
L 170.728755 88.430387 
L 171.288649 87.968517 
L 172.055273 87.697765 
L 172.251235 87.530536 
L 172.449352 87.27571 
L 173.540068 86.917362 
L 173.689732 86.781987 
L 173.755412 86.71828 
L 174.607096 86.121033 
L 175.44909 85.818429 
L 175.749495 85.619346 
L 179.112088 84.066505 
L 180.759467 83.421478 
L 180.838068 83.302029 
L 181.635916 82.5057 
L 181.877101 82.258838 
L 182.019228 82.179205 
L 182.153818 81.97216 
L 183.655841 81.096198 
L 183.668762 81.064345 
L 184.076838 80.960822 
L 185.344136 79.774292 
L 185.435657 79.638916 
L 185.436734 79.638916 
L 189.246165 77.512718 
L 189.613326 77.425122 
L 189.899733 77.090664 
L 190.51454 76.907508 
L 191.14442 76.50138 
L 195.448065 74.542411 
L 195.450218 74.534448 
L 195.67956 74.430925 
L 198.316444 73.777935 
L 198.387507 73.698302 
L 198.9937 73.467367 
L 199.20366 73.300138 
L 199.284414 73.252358 
L 199.776475 72.838267 
L 199.807699 72.822341 
L 200.372977 72.352507 
L 200.504336 72.248984 
L 201.148214 71.651737 
L 202.420896 71.086344 
L 203.036779 70.799665 
L 203.568678 70.528913 
L 203.906768 70.345758 
L 208.803685 67.972697 
L 209.936393 67.686019 
L 211.271524 67.216185 
L 213.147168 66.571159 
L 214.600739 66.204847 
L 214.663188 66.180957 
L 214.919448 66.053545 
L 216.662655 64.986464 
L 217.137488 64.452924 
L 218.945299 63.505292 
L 220.443015 63.170834 
L 220.617443 63.075275 
L 221.806141 62.693037 
L 221.969802 62.509881 
L 222.105469 62.398395 
L 222.39726 62.055974 
L 222.837638 61.625956 
L 223.182188 61.315388 
L 223.348002 61.108342 
L 223.354463 61.092416 
L 224.942623 60.264234 
L 226.471563 59.332529 
L 228.205081 58.998071 
L 228.328903 58.862695 
L 228.939403 58.743245 
L 230.18409 58.313228 
L 230.299299 58.225632 
L 230.805357 58.034513 
L 234.199174 55.924241 
L 234.86997 55.749049 
L 239.129469 54.164354 
L 240.851143 53.845822 
L 243.20485 52.738925 
L 246.226123 51.966486 
L 247.344834 51.751477 
L 247.718455 51.448872 
L 248.518457 50.76403 
L 250.346726 49.688986 
L 251.156418 49.43416 
L 256.198692 48.19985 
L 257.192504 47.634457 
L 259.085375 47.069063 
L 259.680801 46.917761 
L 259.801393 46.798312 
L 259.845539 46.726642 
L 260.841504 46.065689 
L 263.048777 45.452516 
L 264.087811 45.213617 
L 264.128726 45.149911 
L 264.916884 44.61637 
L 273.02027 42.203494 
L 275.699146 41.749586 
L 276.237506 41.287715 
L 277.629703 40.650652 
L 279.816519 40.085259 
L 281.537116 39.750801 
L 282.339271 39.28893 
L 284.083556 38.675757 
L 287.503214 38.182033 
L 287.569971 38.070547 
L 288.054494 37.799795 
L 290.484649 37.210511 
L 291.541987 36.374366 
L 294.243474 35.458588 
L 297.610374 34.869304 
L 297.845098 34.710039 
L 298.867981 34.359654 
L 298.885209 34.351691 
L 302.403926 33.563325 
L 304.418467 32.974042 
L 306.734489 32.55995 
L 307.474194 32.313089 
L 309.389677 31.898997 
L 309.532881 31.811401 
L 309.993716 31.691952 
L 310.660205 31.357494 
L 311.729387 30.919513 
L 312.489551 30.704504 
L 316.610153 29.940028 
L 318.295218 29.549827 
L 318.836808 29.342782 
L 321.493073 28.761462 
L 321.560906 28.737572 
L 322.429818 28.427003 
L 325.774107 27.877536 
L 326.198334 27.646601 
L 328.653253 27.097134 
L 331.402116 26.60341 
L 331.726208 26.444144 
L 332.122441 26.316732 
L 334.65919 26.038017 
L 340.870781 24.78778 
L 341.230405 24.716111 
L 353.775256 23.083636 
L 353.775256 23.083636 
" style="fill:none;stroke:#55a868;stroke-linecap:round;stroke-width:1.5;"/>
   </g>
   <g id="line2d_16">
    <path clip-path="url(#p446c14ce14)" d="M 49.411619 220.756364 
L 49.566667 219.259265 
L 49.579587 219.179632 
L 49.579587 219.171669 
L 50.364515 214.178687 
L 52.276768 205.291656 
L 52.341371 205.15628 
L 52.631008 203.842337 
L 52.649313 203.746778 
L 55.338956 194.549179 
L 55.383102 194.445656 
L 55.548916 194.039528 
L 55.597369 193.943969 
L 55.708271 193.569694 
L 56.122808 192.279642 
L 57.14246 189.675646 
L 57.255516 189.532307 
L 58.054441 187.422035 
L 58.305316 186.824788 
L 59.804109 182.85907 
L 60.024836 182.158301 
L 60.151889 181.831806 
L 61.644221 178.431482 
L 61.738973 178.13684 
L 61.740049 178.13684 
L 61.952163 177.55552 
L 62.210576 177.085686 
L 62.405462 176.687521 
L 62.703713 176.082311 
L 64.659034 172.1803 
L 64.735481 172.076777 
L 64.908833 171.622869 
L 73.511816 155.88741 
L 75.364849 153.195818 
L 75.903208 152.311893 
L 76.305901 151.786316 
L 80.033502 145.901445 
L 80.565401 145.192713 
L 81.384784 143.87877 
L 81.430006 143.78321 
L 81.793937 143.154111 
L 83.665274 140.812904 
L 84.078734 140.24751 
L 84.26393 139.865272 
L 84.588022 139.475071 
L 84.729072 139.307842 
L 85.012249 138.933567 
L 85.309424 138.471697 
L 86.213867 137.324983 
L 86.462589 136.934782 
L 86.665013 136.751626 
L 86.74469 136.66403 
L 86.74469 136.656067 
L 86.772684 136.61625 
L 88.758154 134.203374 
L 88.871209 134.091888 
L 89.02841 133.908732 
L 89.371884 133.335375 
L 90.073904 132.459413 
L 91.096787 131.28881 
L 91.350893 130.970278 
L 92.653722 129.35373 
L 92.825998 129.082979 
L 95.121562 126.733808 
L 95.212006 126.654175 
L 95.753596 126.104708 
L 96.04108 125.738397 
L 96.149828 125.626911 
L 97.339603 124.504087 
L 97.411743 124.400565 
L 97.545256 124.257225 
L 99.025744 122.616788 
L 99.334763 122.369926 
L 99.405826 122.242513 
L 102.583223 118.523657 
L 102.589683 118.523657 
L 103.434908 117.798998 
L 104.374883 116.668211 
L 104.471788 116.564688 
L 105.579732 115.354268 
L 106.451874 114.34293 
L 107.305712 113.562528 
L 107.903291 112.798052 
L 108.656994 112.272475 
L 109.255649 111.691155 
L 109.640038 111.31688 
L 110.209622 110.75945 
L 111.541523 109.461434 
L 112.382441 108.752701 
L 112.388901 108.728811 
L 122.436841 100.216055 
L 122.626343 100.024936 
L 122.690946 99.953267 
L 126.437928 97.158152 
L 126.769557 96.943143 
L 128.776561 95.334559 
L 129.998637 94.275442 
L 130.328113 94.00469 
L 130.431478 93.901167 
L 130.900927 93.487076 
L 131.123808 93.383553 
L 131.443593 93.096875 
L 132.725966 92.260729 
L 132.88855 92.125354 
L 136.770121 89.529321 
L 137.258952 89.123194 
L 138.307676 88.470204 
L 138.444419 88.310938 
L 139.866765 87.387196 
L 139.936751 87.2996 
L 139.936751 87.291637 
L 140.029349 87.212004 
L 143.206746 85.284888 
L 144.45897 84.400963 
L 145.160991 84.026688 
L 145.338649 83.947056 
L 145.759646 83.652414 
L 146.10958 83.429442 
L 147.511468 82.609223 
L 148.94135 81.693445 
L 152.040147 80.068934 
L 152.280255 79.774292 
L 156.931681 77.305672 
L 157.756447 76.692499 
L 158.408939 76.373968 
L 161.506659 74.75742 
L 161.630481 74.701677 
L 163.735467 73.658486 
L 166.20546 72.153424 
L 167.880834 71.365059 
L 167.888371 71.349132 
L 169.863073 70.313904 
L 171.021623 69.764438 
L 174.00521 67.901028 
L 174.492964 67.558606 
L 174.726612 67.455084 
L 175.954071 66.857837 
L 176.605486 66.595048 
L 176.874666 66.419856 
L 177.270898 66.149104 
L 178.87844 65.233326 
L 179.067942 65.161656 
L 179.564309 64.874978 
L 179.692439 64.843125 
L 180.447219 64.44496 
L 180.543047 64.436997 
L 182.034302 63.831787 
L 182.266874 63.744191 
L 187.121799 61.546323 
L 187.328529 61.41891 
L 187.452351 61.379094 
L 188.981292 60.749994 
L 189.542262 60.455352 
L 189.83513 60.30405 
L 191.751689 59.380308 
L 191.844287 59.324565 
L 192.711046 58.926401 
L 198.597467 56.441855 
L 199.049689 56.306479 
L 199.223041 56.234809 
L 199.500835 56.131286 
L 199.653729 56.059617 
L 200.169477 55.836645 
L 204.70354 54.148427 
L 205.475547 53.813969 
L 205.898698 53.654704 
L 208.223333 52.699109 
L 208.333159 52.635403 
L 209.087939 52.396504 
L 209.214991 52.356687 
L 209.541237 52.189458 
L 210.218493 51.942596 
L 212.167354 51.257753 
L 213.252687 50.891442 
L 213.681221 50.724213 
L 214.133443 50.62069 
L 222.392953 47.66631 
L 222.504931 47.626494 
L 224.111396 47.045174 
L 224.693901 46.869981 
L 230.110873 45.141947 
L 232.632548 44.409325 
L 232.654083 44.385435 
L 234.668624 43.764298 
L 235.063779 43.660776 
L 235.2802 43.605033 
L 236.098506 43.413914 
L 237.085857 43.111309 
L 237.742656 42.912226 
L 249.033129 39.814507 
L 249.405674 39.742837 
L 251.849825 39.129664 
L 251.87136 39.113737 
L 253.036369 38.747426 
L 253.293705 38.63594 
L 255.013225 38.317409 
L 255.80892 38.07851 
L 256.8458 37.863501 
L 256.958856 37.831648 
L 257.874067 37.640529 
L 263.679735 36.159357 
L 266.671936 35.617854 
L 266.936809 35.530257 
L 268.548657 35.251542 
L 270.990655 34.725965 
L 274.378012 34.017232 
L 277.265772 33.531472 
L 282.308046 32.440501 
L 283.527969 32.289199 
L 287.468759 31.564539 
L 289.020311 31.261934 
L 289.333636 31.158412 
L 290.990707 30.831917 
L 291.016548 30.823953 
L 291.976981 30.672651 
L 293.997982 30.25856 
L 294.408212 30.202817 
L 297.904318 29.613533 
L 300.845914 29.135736 
L 300.995577 29.056103 
L 301.46072 28.97647 
L 304.922371 28.41904 
L 309.084966 27.845683 
L 311.602334 27.447519 
L 313.9302 27.089171 
L 314.512705 26.985648 
L 315.445144 26.826382 
L 316.255913 26.730823 
L 319.087683 26.507851 
L 320.302222 26.316732 
L 321.058079 26.221172 
L 322.945567 25.942457 
L 350.522488 23.195122 
L 353.454393 23.099563 
L 353.672967 23.083636 
L 353.775256 23.083636 
L 353.775256 23.083636 
" style="fill:none;stroke:#c44e52;stroke-linecap:round;stroke-width:1.5;"/>
   </g>
   <g id="line2d_17">
    <path clip-path="url(#p446c14ce14)" d="M 49.411619 220.756364 
L 353.775256 23.083636 
" style="fill:none;stroke:#8172b3;stroke-linecap:round;stroke-width:1.5;"/>
   </g>
   <g id="patch_3">
    <path d="M 34.193438 230.64 
L 34.193438 13.2 
" style="fill:none;stroke:#ffffff;stroke-linecap:square;stroke-linejoin:miter;stroke-width:1.25;"/>
   </g>
   <g id="patch_4">
    <path d="M 368.993438 230.64 
L 368.993438 13.2 
" style="fill:none;stroke:#ffffff;stroke-linecap:square;stroke-linejoin:miter;stroke-width:1.25;"/>
   </g>
   <g id="patch_5">
    <path d="M 34.193438 230.64 
L 368.993438 230.64 
" style="fill:none;stroke:#ffffff;stroke-linecap:square;stroke-linejoin:miter;stroke-width:1.25;"/>
   </g>
   <g id="patch_6">
    <path d="M 34.193438 13.2 
L 368.993438 13.2 
" style="fill:none;stroke:#ffffff;stroke-linecap:square;stroke-linejoin:miter;stroke-width:1.25;"/>
   </g>
   <g id="legend_1">
    <g id="patch_7">
     <path d="M 242.562187 225.14 
L 361.293438 225.14 
Q 363.493438 225.14 363.493438 222.94 
L 363.493438 143.310312 
Q 363.493438 141.110312 361.293438 141.110312 
L 242.562187 141.110312 
Q 240.362188 141.110312 240.362188 143.310312 
L 240.362188 222.94 
Q 240.362188 225.14 242.562187 225.14 
z
" style="fill:#eaeaf2;opacity:0.8;stroke:#cccccc;stroke-linejoin:miter;"/>
    </g>
    <g id="line2d_18">
     <path d="M 244.762188 150.018594 
L 266.762187 150.018594 
" style="fill:none;stroke:#4c72b0;stroke-linecap:round;stroke-width:1.5;"/>
    </g>
    <g id="line2d_19"/>
    <g id="text_13">
     <!-- Oversampling -->
     <defs>
      <path d="M 39.40625 66.21875 
Q 28.65625 66.21875 22.328125 58.203125 
Q 16.015625 50.203125 16.015625 36.375 
Q 16.015625 22.609375 22.328125 14.59375 
Q 28.65625 6.59375 39.40625 6.59375 
Q 50.140625 6.59375 56.421875 14.59375 
Q 62.703125 22.609375 62.703125 36.375 
Q 62.703125 50.203125 56.421875 58.203125 
Q 50.140625 66.21875 39.40625 66.21875 
z
M 39.40625 74.21875 
Q 54.734375 74.21875 63.90625 63.9375 
Q 73.09375 53.65625 73.09375 36.375 
Q 73.09375 19.140625 63.90625 8.859375 
Q 54.734375 -1.421875 39.40625 -1.421875 
Q 24.03125 -1.421875 14.8125 8.828125 
Q 5.609375 19.09375 5.609375 36.375 
Q 5.609375 53.65625 14.8125 63.9375 
Q 24.03125 74.21875 39.40625 74.21875 
z
" id="DejaVuSans-4f"/>
      <path d="M 2.984375 54.6875 
L 12.5 54.6875 
L 29.59375 8.796875 
L 46.6875 54.6875 
L 56.203125 54.6875 
L 35.6875 0 
L 23.484375 0 
z
" id="DejaVuSans-76"/>
      <path d="M 56.203125 29.59375 
L 56.203125 25.203125 
L 14.890625 25.203125 
Q 15.484375 15.921875 20.484375 11.0625 
Q 25.484375 6.203125 34.421875 6.203125 
Q 39.59375 6.203125 44.453125 7.46875 
Q 49.3125 8.734375 54.109375 11.28125 
L 54.109375 2.78125 
Q 49.265625 0.734375 44.1875 -0.34375 
Q 39.109375 -1.421875 33.890625 -1.421875 
Q 20.796875 -1.421875 13.15625 6.1875 
Q 5.515625 13.8125 5.515625 26.8125 
Q 5.515625 40.234375 12.765625 48.109375 
Q 20.015625 56 32.328125 56 
Q 43.359375 56 49.78125 48.890625 
Q 56.203125 41.796875 56.203125 29.59375 
z
M 47.21875 32.234375 
Q 47.125 39.59375 43.09375 43.984375 
Q 39.0625 48.390625 32.421875 48.390625 
Q 24.90625 48.390625 20.390625 44.140625 
Q 15.875 39.890625 15.1875 32.171875 
z
" id="DejaVuSans-65"/>
      <path d="M 41.109375 46.296875 
Q 39.59375 47.171875 37.8125 47.578125 
Q 36.03125 48 33.890625 48 
Q 26.265625 48 22.1875 43.046875 
Q 18.109375 38.09375 18.109375 28.8125 
L 18.109375 0 
L 9.078125 0 
L 9.078125 54.6875 
L 18.109375 54.6875 
L 18.109375 46.1875 
Q 20.953125 51.171875 25.484375 53.578125 
Q 30.03125 56 36.53125 56 
Q 37.453125 56 38.578125 55.875 
Q 39.703125 55.765625 41.0625 55.515625 
z
" id="DejaVuSans-72"/>
      <path d="M 44.28125 53.078125 
L 44.28125 44.578125 
Q 40.484375 46.53125 36.375 47.5 
Q 32.28125 48.484375 27.875 48.484375 
Q 21.1875 48.484375 17.84375 46.4375 
Q 14.5 44.390625 14.5 40.28125 
Q 14.5 37.15625 16.890625 35.375 
Q 19.28125 33.59375 26.515625 31.984375 
L 29.59375 31.296875 
Q 39.15625 29.25 43.1875 25.515625 
Q 47.21875 21.78125 47.21875 15.09375 
Q 47.21875 7.46875 41.1875 3.015625 
Q 35.15625 -1.421875 24.609375 -1.421875 
Q 20.21875 -1.421875 15.453125 -0.5625 
Q 10.6875 0.296875 5.421875 2 
L 5.421875 11.28125 
Q 10.40625 8.6875 15.234375 7.390625 
Q 20.0625 6.109375 24.8125 6.109375 
Q 31.15625 6.109375 34.5625 8.28125 
Q 37.984375 10.453125 37.984375 14.40625 
Q 37.984375 18.0625 35.515625 20.015625 
Q 33.0625 21.96875 24.703125 23.78125 
L 21.578125 24.515625 
Q 13.234375 26.265625 9.515625 29.90625 
Q 5.8125 33.546875 5.8125 39.890625 
Q 5.8125 47.609375 11.28125 51.796875 
Q 16.75 56 26.8125 56 
Q 31.78125 56 36.171875 55.265625 
Q 40.578125 54.546875 44.28125 53.078125 
z
" id="DejaVuSans-73"/>
      <path d="M 34.28125 27.484375 
Q 23.390625 27.484375 19.1875 25 
Q 14.984375 22.515625 14.984375 16.5 
Q 14.984375 11.71875 18.140625 8.90625 
Q 21.296875 6.109375 26.703125 6.109375 
Q 34.1875 6.109375 38.703125 11.40625 
Q 43.21875 16.703125 43.21875 25.484375 
L 43.21875 27.484375 
z
M 52.203125 31.203125 
L 52.203125 0 
L 43.21875 0 
L 43.21875 8.296875 
Q 40.140625 3.328125 35.546875 0.953125 
Q 30.953125 -1.421875 24.3125 -1.421875 
Q 15.921875 -1.421875 10.953125 3.296875 
Q 6 8.015625 6 15.921875 
Q 6 25.140625 12.171875 29.828125 
Q 18.359375 34.515625 30.609375 34.515625 
L 43.21875 34.515625 
L 43.21875 35.40625 
Q 43.21875 41.609375 39.140625 45 
Q 35.0625 48.390625 27.6875 48.390625 
Q 23 48.390625 18.546875 47.265625 
Q 14.109375 46.140625 10.015625 43.890625 
L 10.015625 52.203125 
Q 14.9375 54.109375 19.578125 55.046875 
Q 24.21875 56 28.609375 56 
Q 40.484375 56 46.34375 49.84375 
Q 52.203125 43.703125 52.203125 31.203125 
z
" id="DejaVuSans-61"/>
      <path d="M 52 44.1875 
Q 55.375 50.25 60.0625 53.125 
Q 64.75 56 71.09375 56 
Q 79.640625 56 84.28125 50.015625 
Q 88.921875 44.046875 88.921875 33.015625 
L 88.921875 0 
L 79.890625 0 
L 79.890625 32.71875 
Q 79.890625 40.578125 77.09375 44.375 
Q 74.3125 48.1875 68.609375 48.1875 
Q 61.625 48.1875 57.5625 43.546875 
Q 53.515625 38.921875 53.515625 30.90625 
L 53.515625 0 
L 44.484375 0 
L 44.484375 32.71875 
Q 44.484375 40.625 41.703125 44.40625 
Q 38.921875 48.1875 33.109375 48.1875 
Q 26.21875 48.1875 22.15625 43.53125 
Q 18.109375 38.875 18.109375 30.90625 
L 18.109375 0 
L 9.078125 0 
L 9.078125 54.6875 
L 18.109375 54.6875 
L 18.109375 46.1875 
Q 21.1875 51.21875 25.484375 53.609375 
Q 29.78125 56 35.6875 56 
Q 41.65625 56 45.828125 52.96875 
Q 50 49.953125 52 44.1875 
z
" id="DejaVuSans-6d"/>
      <path d="M 18.109375 8.203125 
L 18.109375 -20.796875 
L 9.078125 -20.796875 
L 9.078125 54.6875 
L 18.109375 54.6875 
L 18.109375 46.390625 
Q 20.953125 51.265625 25.265625 53.625 
Q 29.59375 56 35.59375 56 
Q 45.5625 56 51.78125 48.09375 
Q 58.015625 40.1875 58.015625 27.296875 
Q 58.015625 14.40625 51.78125 6.484375 
Q 45.5625 -1.421875 35.59375 -1.421875 
Q 29.59375 -1.421875 25.265625 0.953125 
Q 20.953125 3.328125 18.109375 8.203125 
z
M 48.6875 27.296875 
Q 48.6875 37.203125 44.609375 42.84375 
Q 40.53125 48.484375 33.40625 48.484375 
Q 26.265625 48.484375 22.1875 42.84375 
Q 18.109375 37.203125 18.109375 27.296875 
Q 18.109375 17.390625 22.1875 11.75 
Q 26.265625 6.109375 33.40625 6.109375 
Q 40.53125 6.109375 44.609375 11.75 
Q 48.6875 17.390625 48.6875 27.296875 
z
" id="DejaVuSans-70"/>
      <path d="M 9.421875 75.984375 
L 18.40625 75.984375 
L 18.40625 0 
L 9.421875 0 
z
" id="DejaVuSans-6c"/>
      <path d="M 9.421875 54.6875 
L 18.40625 54.6875 
L 18.40625 0 
L 9.421875 0 
z
M 9.421875 75.984375 
L 18.40625 75.984375 
L 18.40625 64.59375 
L 9.421875 64.59375 
z
" id="DejaVuSans-69"/>
      <path d="M 54.890625 33.015625 
L 54.890625 0 
L 45.90625 0 
L 45.90625 32.71875 
Q 45.90625 40.484375 42.875 44.328125 
Q 39.84375 48.1875 33.796875 48.1875 
Q 26.515625 48.1875 22.3125 43.546875 
Q 18.109375 38.921875 18.109375 30.90625 
L 18.109375 0 
L 9.078125 0 
L 9.078125 54.6875 
L 18.109375 54.6875 
L 18.109375 46.1875 
Q 21.34375 51.125 25.703125 53.5625 
Q 30.078125 56 35.796875 56 
Q 45.21875 56 50.046875 50.171875 
Q 54.890625 44.34375 54.890625 33.015625 
z
" id="DejaVuSans-6e"/>
      <path d="M 45.40625 27.984375 
Q 45.40625 37.75 41.375 43.109375 
Q 37.359375 48.484375 30.078125 48.484375 
Q 22.859375 48.484375 18.828125 43.109375 
Q 14.796875 37.75 14.796875 27.984375 
Q 14.796875 18.265625 18.828125 12.890625 
Q 22.859375 7.515625 30.078125 7.515625 
Q 37.359375 7.515625 41.375 12.890625 
Q 45.40625 18.265625 45.40625 27.984375 
z
M 54.390625 6.78125 
Q 54.390625 -7.171875 48.1875 -13.984375 
Q 42 -20.796875 29.203125 -20.796875 
Q 24.46875 -20.796875 20.265625 -20.09375 
Q 16.0625 -19.390625 12.109375 -17.921875 
L 12.109375 -9.1875 
Q 16.0625 -11.328125 19.921875 -12.34375 
Q 23.78125 -13.375 27.78125 -13.375 
Q 36.625 -13.375 41.015625 -8.765625 
Q 45.40625 -4.15625 45.40625 5.171875 
L 45.40625 9.625 
Q 42.625 4.78125 38.28125 2.390625 
Q 33.9375 0 27.875 0 
Q 17.828125 0 11.671875 7.65625 
Q 5.515625 15.328125 5.515625 27.984375 
Q 5.515625 40.671875 11.671875 48.328125 
Q 17.828125 56 27.875 56 
Q 33.9375 56 38.28125 53.609375 
Q 42.625 51.21875 45.40625 46.390625 
L 45.40625 54.6875 
L 54.390625 54.6875 
z
" id="DejaVuSans-67"/>
     </defs>
     <g style="fill:#262626;" transform="translate(275.562187 153.868594)scale(0.11 -0.11)">
      <use xlink:href="#DejaVuSans-4f"/>
      <use x="78.710938" xlink:href="#DejaVuSans-76"/>
      <use x="137.890625" xlink:href="#DejaVuSans-65"/>
      <use x="199.414062" xlink:href="#DejaVuSans-72"/>
      <use x="240.527344" xlink:href="#DejaVuSans-73"/>
      <use x="292.626953" xlink:href="#DejaVuSans-61"/>
      <use x="353.90625" xlink:href="#DejaVuSans-6d"/>
      <use x="451.318359" xlink:href="#DejaVuSans-70"/>
      <use x="514.794922" xlink:href="#DejaVuSans-6c"/>
      <use x="542.578125" xlink:href="#DejaVuSans-69"/>
      <use x="570.361328" xlink:href="#DejaVuSans-6e"/>
      <use x="633.740234" xlink:href="#DejaVuSans-67"/>
     </g>
    </g>
    <g id="line2d_20">
     <path d="M 244.762188 166.164531 
L 266.762187 166.164531 
" style="fill:none;stroke:#dd8452;stroke-linecap:round;stroke-width:1.5;"/>
    </g>
    <g id="line2d_21"/>
    <g id="text_14">
     <!-- Undersampling -->
     <defs>
      <path d="M 8.6875 72.90625 
L 18.609375 72.90625 
L 18.609375 28.609375 
Q 18.609375 16.890625 22.84375 11.734375 
Q 27.09375 6.59375 36.625 6.59375 
Q 46.09375 6.59375 50.34375 11.734375 
Q 54.59375 16.890625 54.59375 28.609375 
L 54.59375 72.90625 
L 64.5 72.90625 
L 64.5 27.390625 
Q 64.5 13.140625 57.4375 5.859375 
Q 50.390625 -1.421875 36.625 -1.421875 
Q 22.796875 -1.421875 15.734375 5.859375 
Q 8.6875 13.140625 8.6875 27.390625 
z
" id="DejaVuSans-55"/>
      <path d="M 45.40625 46.390625 
L 45.40625 75.984375 
L 54.390625 75.984375 
L 54.390625 0 
L 45.40625 0 
L 45.40625 8.203125 
Q 42.578125 3.328125 38.25 0.953125 
Q 33.9375 -1.421875 27.875 -1.421875 
Q 17.96875 -1.421875 11.734375 6.484375 
Q 5.515625 14.40625 5.515625 27.296875 
Q 5.515625 40.1875 11.734375 48.09375 
Q 17.96875 56 27.875 56 
Q 33.9375 56 38.25 53.625 
Q 42.578125 51.265625 45.40625 46.390625 
z
M 14.796875 27.296875 
Q 14.796875 17.390625 18.875 11.75 
Q 22.953125 6.109375 30.078125 6.109375 
Q 37.203125 6.109375 41.296875 11.75 
Q 45.40625 17.390625 45.40625 27.296875 
Q 45.40625 37.203125 41.296875 42.84375 
Q 37.203125 48.484375 30.078125 48.484375 
Q 22.953125 48.484375 18.875 42.84375 
Q 14.796875 37.203125 14.796875 27.296875 
z
" id="DejaVuSans-64"/>
     </defs>
     <g style="fill:#262626;" transform="translate(275.562187 170.014531)scale(0.11 -0.11)">
      <use xlink:href="#DejaVuSans-55"/>
      <use x="73.193359" xlink:href="#DejaVuSans-6e"/>
      <use x="136.572266" xlink:href="#DejaVuSans-64"/>
      <use x="200.048828" xlink:href="#DejaVuSans-65"/>
      <use x="261.572266" xlink:href="#DejaVuSans-72"/>
      <use x="302.685547" xlink:href="#DejaVuSans-73"/>
      <use x="354.785156" xlink:href="#DejaVuSans-61"/>
      <use x="416.064453" xlink:href="#DejaVuSans-6d"/>
      <use x="513.476562" xlink:href="#DejaVuSans-70"/>
      <use x="576.953125" xlink:href="#DejaVuSans-6c"/>
      <use x="604.736328" xlink:href="#DejaVuSans-69"/>
      <use x="632.519531" xlink:href="#DejaVuSans-6e"/>
      <use x="695.898438" xlink:href="#DejaVuSans-67"/>
     </g>
    </g>
    <g id="line2d_22">
     <path d="M 244.762188 182.310469 
L 266.762187 182.310469 
" style="fill:none;stroke:#55a868;stroke-linecap:round;stroke-width:1.5;"/>
    </g>
    <g id="line2d_23"/>
    <g id="text_15">
     <!-- SMOTE -->
     <defs>
      <path d="M 53.515625 70.515625 
L 53.515625 60.890625 
Q 47.90625 63.578125 42.921875 64.890625 
Q 37.9375 66.21875 33.296875 66.21875 
Q 25.25 66.21875 20.875 63.09375 
Q 16.5 59.96875 16.5 54.203125 
Q 16.5 49.359375 19.40625 46.890625 
Q 22.3125 44.4375 30.421875 42.921875 
L 36.375 41.703125 
Q 47.40625 39.59375 52.65625 34.296875 
Q 57.90625 29 57.90625 20.125 
Q 57.90625 9.515625 50.796875 4.046875 
Q 43.703125 -1.421875 29.984375 -1.421875 
Q 24.8125 -1.421875 18.96875 -0.25 
Q 13.140625 0.921875 6.890625 3.21875 
L 6.890625 13.375 
Q 12.890625 10.015625 18.65625 8.296875 
Q 24.421875 6.59375 29.984375 6.59375 
Q 38.421875 6.59375 43.015625 9.90625 
Q 47.609375 13.234375 47.609375 19.390625 
Q 47.609375 24.75 44.3125 27.78125 
Q 41.015625 30.8125 33.5 32.328125 
L 27.484375 33.5 
Q 16.453125 35.6875 11.515625 40.375 
Q 6.59375 45.0625 6.59375 53.421875 
Q 6.59375 63.09375 13.40625 68.65625 
Q 20.21875 74.21875 32.171875 74.21875 
Q 37.3125 74.21875 42.625 73.28125 
Q 47.953125 72.359375 53.515625 70.515625 
z
" id="DejaVuSans-53"/>
      <path d="M 9.8125 72.90625 
L 24.515625 72.90625 
L 43.109375 23.296875 
L 61.8125 72.90625 
L 76.515625 72.90625 
L 76.515625 0 
L 66.890625 0 
L 66.890625 64.015625 
L 48.09375 14.015625 
L 38.1875 14.015625 
L 19.390625 64.015625 
L 19.390625 0 
L 9.8125 0 
z
" id="DejaVuSans-4d"/>
      <path d="M -0.296875 72.90625 
L 61.375 72.90625 
L 61.375 64.59375 
L 35.5 64.59375 
L 35.5 0 
L 25.59375 0 
L 25.59375 64.59375 
L -0.296875 64.59375 
z
" id="DejaVuSans-54"/>
      <path d="M 9.8125 72.90625 
L 55.90625 72.90625 
L 55.90625 64.59375 
L 19.671875 64.59375 
L 19.671875 43.015625 
L 54.390625 43.015625 
L 54.390625 34.71875 
L 19.671875 34.71875 
L 19.671875 8.296875 
L 56.78125 8.296875 
L 56.78125 0 
L 9.8125 0 
z
" id="DejaVuSans-45"/>
     </defs>
     <g style="fill:#262626;" transform="translate(275.562187 186.160469)scale(0.11 -0.11)">
      <use xlink:href="#DejaVuSans-53"/>
      <use x="63.476562" xlink:href="#DejaVuSans-4d"/>
      <use x="149.755859" xlink:href="#DejaVuSans-4f"/>
      <use x="228.466797" xlink:href="#DejaVuSans-54"/>
      <use x="289.550781" xlink:href="#DejaVuSans-45"/>
     </g>
    </g>
    <g id="line2d_24">
     <path d="M 244.762188 198.456406 
L 266.762187 198.456406 
" style="fill:none;stroke:#c44e52;stroke-linecap:round;stroke-width:1.5;"/>
    </g>
    <g id="line2d_25"/>
    <g id="text_16">
     <!-- No resampling -->
     <defs>
      <path d="M 9.8125 72.90625 
L 23.09375 72.90625 
L 55.421875 11.921875 
L 55.421875 72.90625 
L 64.984375 72.90625 
L 64.984375 0 
L 51.703125 0 
L 19.390625 60.984375 
L 19.390625 0 
L 9.8125 0 
z
" id="DejaVuSans-4e"/>
      <path d="M 30.609375 48.390625 
Q 23.390625 48.390625 19.1875 42.75 
Q 14.984375 37.109375 14.984375 27.296875 
Q 14.984375 17.484375 19.15625 11.84375 
Q 23.34375 6.203125 30.609375 6.203125 
Q 37.796875 6.203125 41.984375 11.859375 
Q 46.1875 17.53125 46.1875 27.296875 
Q 46.1875 37.015625 41.984375 42.703125 
Q 37.796875 48.390625 30.609375 48.390625 
z
M 30.609375 56 
Q 42.328125 56 49.015625 48.375 
Q 55.71875 40.765625 55.71875 27.296875 
Q 55.71875 13.875 49.015625 6.21875 
Q 42.328125 -1.421875 30.609375 -1.421875 
Q 18.84375 -1.421875 12.171875 6.21875 
Q 5.515625 13.875 5.515625 27.296875 
Q 5.515625 40.765625 12.171875 48.375 
Q 18.84375 56 30.609375 56 
z
" id="DejaVuSans-6f"/>
      <path id="DejaVuSans-20"/>
     </defs>
     <g style="fill:#262626;" transform="translate(275.562187 202.306406)scale(0.11 -0.11)">
      <use xlink:href="#DejaVuSans-4e"/>
      <use x="74.804688" xlink:href="#DejaVuSans-6f"/>
      <use x="135.986328" xlink:href="#DejaVuSans-20"/>
      <use x="167.773438" xlink:href="#DejaVuSans-72"/>
      <use x="208.855469" xlink:href="#DejaVuSans-65"/>
      <use x="270.378906" xlink:href="#DejaVuSans-73"/>
      <use x="322.478516" xlink:href="#DejaVuSans-61"/>
      <use x="383.757812" xlink:href="#DejaVuSans-6d"/>
      <use x="481.169922" xlink:href="#DejaVuSans-70"/>
      <use x="544.646484" xlink:href="#DejaVuSans-6c"/>
      <use x="572.429688" xlink:href="#DejaVuSans-69"/>
      <use x="600.212891" xlink:href="#DejaVuSans-6e"/>
      <use x="663.591797" xlink:href="#DejaVuSans-67"/>
     </g>
    </g>
    <g id="line2d_26">
     <path d="M 244.762188 214.602344 
L 266.762187 214.602344 
" style="fill:none;stroke:#8172b3;stroke-linecap:round;stroke-width:1.5;"/>
    </g>
    <g id="line2d_27"/>
    <g id="text_17">
     <!-- Chance -->
     <defs>
      <path d="M 64.40625 67.28125 
L 64.40625 56.890625 
Q 59.421875 61.53125 53.78125 63.8125 
Q 48.140625 66.109375 41.796875 66.109375 
Q 29.296875 66.109375 22.65625 58.46875 
Q 16.015625 50.828125 16.015625 36.375 
Q 16.015625 21.96875 22.65625 14.328125 
Q 29.296875 6.6875 41.796875 6.6875 
Q 48.140625 6.6875 53.78125 8.984375 
Q 59.421875 11.28125 64.40625 15.921875 
L 64.40625 5.609375 
Q 59.234375 2.09375 53.4375 0.328125 
Q 47.65625 -1.421875 41.21875 -1.421875 
Q 24.65625 -1.421875 15.125 8.703125 
Q 5.609375 18.84375 5.609375 36.375 
Q 5.609375 53.953125 15.125 64.078125 
Q 24.65625 74.21875 41.21875 74.21875 
Q 47.75 74.21875 53.53125 72.484375 
Q 59.328125 70.75 64.40625 67.28125 
z
" id="DejaVuSans-43"/>
      <path d="M 54.890625 33.015625 
L 54.890625 0 
L 45.90625 0 
L 45.90625 32.71875 
Q 45.90625 40.484375 42.875 44.328125 
Q 39.84375 48.1875 33.796875 48.1875 
Q 26.515625 48.1875 22.3125 43.546875 
Q 18.109375 38.921875 18.109375 30.90625 
L 18.109375 0 
L 9.078125 0 
L 9.078125 75.984375 
L 18.109375 75.984375 
L 18.109375 46.1875 
Q 21.34375 51.125 25.703125 53.5625 
Q 30.078125 56 35.796875 56 
Q 45.21875 56 50.046875 50.171875 
Q 54.890625 44.34375 54.890625 33.015625 
z
" id="DejaVuSans-68"/>
      <path d="M 48.78125 52.59375 
L 48.78125 44.1875 
Q 44.96875 46.296875 41.140625 47.34375 
Q 37.3125 48.390625 33.40625 48.390625 
Q 24.65625 48.390625 19.8125 42.84375 
Q 14.984375 37.3125 14.984375 27.296875 
Q 14.984375 17.28125 19.8125 11.734375 
Q 24.65625 6.203125 33.40625 6.203125 
Q 37.3125 6.203125 41.140625 7.25 
Q 44.96875 8.296875 48.78125 10.40625 
L 48.78125 2.09375 
Q 45.015625 0.34375 40.984375 -0.53125 
Q 36.96875 -1.421875 32.421875 -1.421875 
Q 20.0625 -1.421875 12.78125 6.34375 
Q 5.515625 14.109375 5.515625 27.296875 
Q 5.515625 40.671875 12.859375 48.328125 
Q 20.21875 56 33.015625 56 
Q 37.15625 56 41.109375 55.140625 
Q 45.0625 54.296875 48.78125 52.59375 
z
" id="DejaVuSans-63"/>
     </defs>
     <g style="fill:#262626;" transform="translate(275.562187 218.452344)scale(0.11 -0.11)">
      <use xlink:href="#DejaVuSans-43"/>
      <use x="69.824219" xlink:href="#DejaVuSans-68"/>
      <use x="133.203125" xlink:href="#DejaVuSans-61"/>
      <use x="194.482422" xlink:href="#DejaVuSans-6e"/>
      <use x="257.861328" xlink:href="#DejaVuSans-63"/>
      <use x="312.841797" xlink:href="#DejaVuSans-65"/>
     </g>
    </g>
   </g>
  </g>
 </g>
 <defs>
  <clipPath id="p446c14ce14">
   <rect height="217.44" width="334.8" x="34.193438" y="13.2"/>
  </clipPath>
 </defs>
</svg>
