<?xml version="1.0" encoding="utf-8" standalone="no"?>
<!DOCTYPE svg PUBLIC "-//W3C//DTD SVG 1.1//EN"
  "http://www.w3.org/Graphics/SVG/1.1/DTD/svg11.dtd">
<!-- Created with matplotlib (http://matplotlib.org/) -->
<svg height="282.717813pt" version="1.1" viewBox="0 0 397.807187 282.717813" width="397.807187pt" xmlns="http://www.w3.org/2000/svg" xmlns:xlink="http://www.w3.org/1999/xlink">
 <defs>
  <style type="text/css">
*{stroke-linecap:butt;stroke-linejoin:round;}
  </style>
 </defs>
 <g id="figure_1">
  <g id="patch_1">
   <path d="M 0 282.717813 
L 397.807187 282.717813 
L 397.807187 0 
L 0 0 
z
" style="fill:none;"/>
  </g>
  <g id="axes_1">
   <g id="patch_2">
    <path d="M 49.807188 239.758125 
L 384.607188 239.758125 
L 384.607188 22.318125 
L 49.807188 22.318125 
z
" style="fill:#eaeaf2;"/>
   </g>
   <g id="matplotlib.axis_1">
    <g id="xtick_1">
     <g id="line2d_1">
      <path clip-path="url(#p5439dd9129)" d="M 65.025369 239.758125 
L 65.025369 22.318125 
" style="fill:none;stroke:#ffffff;stroke-linecap:round;"/>
     </g>
     <g id="text_1">
      <!-- 0.0 -->
      <defs>
       <path d="M 31.78125 66.40625 
Q 24.171875 66.40625 20.328125 58.90625 
Q 16.5 51.421875 16.5 36.375 
Q 16.5 21.390625 20.328125 13.890625 
Q 24.171875 6.390625 31.78125 6.390625 
Q 39.453125 6.390625 43.28125 13.890625 
Q 47.125 21.390625 47.125 36.375 
Q 47.125 51.421875 43.28125 58.90625 
Q 39.453125 66.40625 31.78125 66.40625 
z
M 31.78125 74.21875 
Q 44.046875 74.21875 50.515625 64.515625 
Q 56.984375 54.828125 56.984375 36.375 
Q 56.984375 17.96875 50.515625 8.265625 
Q 44.046875 -1.421875 31.78125 -1.421875 
Q 19.53125 -1.421875 13.0625 8.265625 
Q 6.59375 17.96875 6.59375 36.375 
Q 6.59375 54.828125 13.0625 64.515625 
Q 19.53125 74.21875 31.78125 74.21875 
z
" id="DejaVuSans-30"/>
       <path d="M 10.6875 12.40625 
L 21 12.40625 
L 21 0 
L 10.6875 0 
z
" id="DejaVuSans-2e"/>
      </defs>
      <g style="fill:#262626;" transform="translate(56.278651 257.616406)scale(0.11 -0.11)">
       <use xlink:href="#DejaVuSans-30"/>
       <use x="63.623047" xlink:href="#DejaVuSans-2e"/>
       <use x="95.410156" xlink:href="#DejaVuSans-30"/>
      </g>
     </g>
    </g>
    <g id="xtick_2">
     <g id="line2d_2">
      <path clip-path="url(#p5439dd9129)" d="M 125.898097 239.758125 
L 125.898097 22.318125 
" style="fill:none;stroke:#ffffff;stroke-linecap:round;"/>
     </g>
     <g id="text_2">
      <!-- 0.2 -->
      <defs>
       <path d="M 19.1875 8.296875 
L 53.609375 8.296875 
L 53.609375 0 
L 7.328125 0 
L 7.328125 8.296875 
Q 12.9375 14.109375 22.625 23.890625 
Q 32.328125 33.6875 34.8125 36.53125 
Q 39.546875 41.84375 41.421875 45.53125 
Q 43.3125 49.21875 43.3125 52.78125 
Q 43.3125 58.59375 39.234375 62.25 
Q 35.15625 65.921875 28.609375 65.921875 
Q 23.96875 65.921875 18.8125 64.3125 
Q 13.671875 62.703125 7.8125 59.421875 
L 7.8125 69.390625 
Q 13.765625 71.78125 18.9375 73 
Q 24.125 74.21875 28.421875 74.21875 
Q 39.75 74.21875 46.484375 68.546875 
Q 53.21875 62.890625 53.21875 53.421875 
Q 53.21875 48.921875 51.53125 44.890625 
Q 49.859375 40.875 45.40625 35.40625 
Q 44.1875 33.984375 37.640625 27.21875 
Q 31.109375 20.453125 19.1875 8.296875 
z
" id="DejaVuSans-32"/>
      </defs>
      <g style="fill:#262626;" transform="translate(117.151378 257.616406)scale(0.11 -0.11)">
       <use xlink:href="#DejaVuSans-30"/>
       <use x="63.623047" xlink:href="#DejaVuSans-2e"/>
       <use x="95.410156" xlink:href="#DejaVuSans-32"/>
      </g>
     </g>
    </g>
    <g id="xtick_3">
     <g id="line2d_3">
      <path clip-path="url(#p5439dd9129)" d="M 186.770824 239.758125 
L 186.770824 22.318125 
" style="fill:none;stroke:#ffffff;stroke-linecap:round;"/>
     </g>
     <g id="text_3">
      <!-- 0.4 -->
      <defs>
       <path d="M 37.796875 64.3125 
L 12.890625 25.390625 
L 37.796875 25.390625 
z
M 35.203125 72.90625 
L 47.609375 72.90625 
L 47.609375 25.390625 
L 58.015625 25.390625 
L 58.015625 17.1875 
L 47.609375 17.1875 
L 47.609375 0 
L 37.796875 0 
L 37.796875 17.1875 
L 4.890625 17.1875 
L 4.890625 26.703125 
z
" id="DejaVuSans-34"/>
      </defs>
      <g style="fill:#262626;" transform="translate(178.024105 257.616406)scale(0.11 -0.11)">
       <use xlink:href="#DejaVuSans-30"/>
       <use x="63.623047" xlink:href="#DejaVuSans-2e"/>
       <use x="95.410156" xlink:href="#DejaVuSans-34"/>
      </g>
     </g>
    </g>
    <g id="xtick_4">
     <g id="line2d_4">
      <path clip-path="url(#p5439dd9129)" d="M 247.643551 239.758125 
L 247.643551 22.318125 
" style="fill:none;stroke:#ffffff;stroke-linecap:round;"/>
     </g>
     <g id="text_4">
      <!-- 0.6 -->
      <defs>
       <path d="M 33.015625 40.375 
Q 26.375 40.375 22.484375 35.828125 
Q 18.609375 31.296875 18.609375 23.390625 
Q 18.609375 15.53125 22.484375 10.953125 
Q 26.375 6.390625 33.015625 6.390625 
Q 39.65625 6.390625 43.53125 10.953125 
Q 47.40625 15.53125 47.40625 23.390625 
Q 47.40625 31.296875 43.53125 35.828125 
Q 39.65625 40.375 33.015625 40.375 
z
M 52.59375 71.296875 
L 52.59375 62.3125 
Q 48.875 64.0625 45.09375 64.984375 
Q 41.3125 65.921875 37.59375 65.921875 
Q 27.828125 65.921875 22.671875 59.328125 
Q 17.53125 52.734375 16.796875 39.40625 
Q 19.671875 43.65625 24.015625 45.921875 
Q 28.375 48.1875 33.59375 48.1875 
Q 44.578125 48.1875 50.953125 41.515625 
Q 57.328125 34.859375 57.328125 23.390625 
Q 57.328125 12.15625 50.6875 5.359375 
Q 44.046875 -1.421875 33.015625 -1.421875 
Q 20.359375 -1.421875 13.671875 8.265625 
Q 6.984375 17.96875 6.984375 36.375 
Q 6.984375 53.65625 15.1875 63.9375 
Q 23.390625 74.21875 37.203125 74.21875 
Q 40.921875 74.21875 44.703125 73.484375 
Q 48.484375 72.75 52.59375 71.296875 
z
" id="DejaVuSans-36"/>
      </defs>
      <g style="fill:#262626;" transform="translate(238.896832 257.616406)scale(0.11 -0.11)">
       <use xlink:href="#DejaVuSans-30"/>
       <use x="63.623047" xlink:href="#DejaVuSans-2e"/>
       <use x="95.410156" xlink:href="#DejaVuSans-36"/>
      </g>
     </g>
    </g>
    <g id="xtick_5">
     <g id="line2d_5">
      <path clip-path="url(#p5439dd9129)" d="M 308.516278 239.758125 
L 308.516278 22.318125 
" style="fill:none;stroke:#ffffff;stroke-linecap:round;"/>
     </g>
     <g id="text_5">
      <!-- 0.8 -->
      <defs>
       <path d="M 31.78125 34.625 
Q 24.75 34.625 20.71875 30.859375 
Q 16.703125 27.09375 16.703125 20.515625 
Q 16.703125 13.921875 20.71875 10.15625 
Q 24.75 6.390625 31.78125 6.390625 
Q 38.8125 6.390625 42.859375 10.171875 
Q 46.921875 13.96875 46.921875 20.515625 
Q 46.921875 27.09375 42.890625 30.859375 
Q 38.875 34.625 31.78125 34.625 
z
M 21.921875 38.8125 
Q 15.578125 40.375 12.03125 44.71875 
Q 8.5 49.078125 8.5 55.328125 
Q 8.5 64.0625 14.71875 69.140625 
Q 20.953125 74.21875 31.78125 74.21875 
Q 42.671875 74.21875 48.875 69.140625 
Q 55.078125 64.0625 55.078125 55.328125 
Q 55.078125 49.078125 51.53125 44.71875 
Q 48 40.375 41.703125 38.8125 
Q 48.828125 37.15625 52.796875 32.3125 
Q 56.78125 27.484375 56.78125 20.515625 
Q 56.78125 9.90625 50.3125 4.234375 
Q 43.84375 -1.421875 31.78125 -1.421875 
Q 19.734375 -1.421875 13.25 4.234375 
Q 6.78125 9.90625 6.78125 20.515625 
Q 6.78125 27.484375 10.78125 32.3125 
Q 14.796875 37.15625 21.921875 38.8125 
z
M 18.3125 54.390625 
Q 18.3125 48.734375 21.84375 45.5625 
Q 25.390625 42.390625 31.78125 42.390625 
Q 38.140625 42.390625 41.71875 45.5625 
Q 45.3125 48.734375 45.3125 54.390625 
Q 45.3125 60.0625 41.71875 63.234375 
Q 38.140625 66.40625 31.78125 66.40625 
Q 25.390625 66.40625 21.84375 63.234375 
Q 18.3125 60.0625 18.3125 54.390625 
z
" id="DejaVuSans-38"/>
      </defs>
      <g style="fill:#262626;" transform="translate(299.76956 257.616406)scale(0.11 -0.11)">
       <use xlink:href="#DejaVuSans-30"/>
       <use x="63.623047" xlink:href="#DejaVuSans-2e"/>
       <use x="95.410156" xlink:href="#DejaVuSans-38"/>
      </g>
     </g>
    </g>
    <g id="xtick_6">
     <g id="line2d_6">
      <path clip-path="url(#p5439dd9129)" d="M 369.389006 239.758125 
L 369.389006 22.318125 
" style="fill:none;stroke:#ffffff;stroke-linecap:round;"/>
     </g>
     <g id="text_6">
      <!-- 1.0 -->
      <defs>
       <path d="M 12.40625 8.296875 
L 28.515625 8.296875 
L 28.515625 63.921875 
L 10.984375 60.40625 
L 10.984375 69.390625 
L 28.421875 72.90625 
L 38.28125 72.90625 
L 38.28125 8.296875 
L 54.390625 8.296875 
L 54.390625 0 
L 12.40625 0 
z
" id="DejaVuSans-31"/>
      </defs>
      <g style="fill:#262626;" transform="translate(360.642287 257.616406)scale(0.11 -0.11)">
       <use xlink:href="#DejaVuSans-31"/>
       <use x="63.623047" xlink:href="#DejaVuSans-2e"/>
       <use x="95.410156" xlink:href="#DejaVuSans-30"/>
      </g>
     </g>
    </g>
    <g id="text_7">
     <!-- Mean Predicted Probability -->
     <defs>
      <path d="M 9.8125 72.90625 
L 24.515625 72.90625 
L 43.109375 23.296875 
L 61.8125 72.90625 
L 76.515625 72.90625 
L 76.515625 0 
L 66.890625 0 
L 66.890625 64.015625 
L 48.09375 14.015625 
L 38.1875 14.015625 
L 19.390625 64.015625 
L 19.390625 0 
L 9.8125 0 
z
" id="DejaVuSans-4d"/>
      <path d="M 56.203125 29.59375 
L 56.203125 25.203125 
L 14.890625 25.203125 
Q 15.484375 15.921875 20.484375 11.0625 
Q 25.484375 6.203125 34.421875 6.203125 
Q 39.59375 6.203125 44.453125 7.46875 
Q 49.3125 8.734375 54.109375 11.28125 
L 54.109375 2.78125 
Q 49.265625 0.734375 44.1875 -0.34375 
Q 39.109375 -1.421875 33.890625 -1.421875 
Q 20.796875 -1.421875 13.15625 6.1875 
Q 5.515625 13.8125 5.515625 26.8125 
Q 5.515625 40.234375 12.765625 48.109375 
Q 20.015625 56 32.328125 56 
Q 43.359375 56 49.78125 48.890625 
Q 56.203125 41.796875 56.203125 29.59375 
z
M 47.21875 32.234375 
Q 47.125 39.59375 43.09375 43.984375 
Q 39.0625 48.390625 32.421875 48.390625 
Q 24.90625 48.390625 20.390625 44.140625 
Q 15.875 39.890625 15.1875 32.171875 
z
" id="DejaVuSans-65"/>
      <path d="M 34.28125 27.484375 
Q 23.390625 27.484375 19.1875 25 
Q 14.984375 22.515625 14.984375 16.5 
Q 14.984375 11.71875 18.140625 8.90625 
Q 21.296875 6.109375 26.703125 6.109375 
Q 34.1875 6.109375 38.703125 11.40625 
Q 43.21875 16.703125 43.21875 25.484375 
L 43.21875 27.484375 
z
M 52.203125 31.203125 
L 52.203125 0 
L 43.21875 0 
L 43.21875 8.296875 
Q 40.140625 3.328125 35.546875 0.953125 
Q 30.953125 -1.421875 24.3125 -1.421875 
Q 15.921875 -1.421875 10.953125 3.296875 
Q 6 8.015625 6 15.921875 
Q 6 25.140625 12.171875 29.828125 
Q 18.359375 34.515625 30.609375 34.515625 
L 43.21875 34.515625 
L 43.21875 35.40625 
Q 43.21875 41.609375 39.140625 45 
Q 35.0625 48.390625 27.6875 48.390625 
Q 23 48.390625 18.546875 47.265625 
Q 14.109375 46.140625 10.015625 43.890625 
L 10.015625 52.203125 
Q 14.9375 54.109375 19.578125 55.046875 
Q 24.21875 56 28.609375 56 
Q 40.484375 56 46.34375 49.84375 
Q 52.203125 43.703125 52.203125 31.203125 
z
" id="DejaVuSans-61"/>
      <path d="M 54.890625 33.015625 
L 54.890625 0 
L 45.90625 0 
L 45.90625 32.71875 
Q 45.90625 40.484375 42.875 44.328125 
Q 39.84375 48.1875 33.796875 48.1875 
Q 26.515625 48.1875 22.3125 43.546875 
Q 18.109375 38.921875 18.109375 30.90625 
L 18.109375 0 
L 9.078125 0 
L 9.078125 54.6875 
L 18.109375 54.6875 
L 18.109375 46.1875 
Q 21.34375 51.125 25.703125 53.5625 
Q 30.078125 56 35.796875 56 
Q 45.21875 56 50.046875 50.171875 
Q 54.890625 44.34375 54.890625 33.015625 
z
" id="DejaVuSans-6e"/>
      <path id="DejaVuSans-20"/>
      <path d="M 19.671875 64.796875 
L 19.671875 37.40625 
L 32.078125 37.40625 
Q 38.96875 37.40625 42.71875 40.96875 
Q 46.484375 44.53125 46.484375 51.125 
Q 46.484375 57.671875 42.71875 61.234375 
Q 38.96875 64.796875 32.078125 64.796875 
z
M 9.8125 72.90625 
L 32.078125 72.90625 
Q 44.34375 72.90625 50.609375 67.359375 
Q 56.890625 61.8125 56.890625 51.125 
Q 56.890625 40.328125 50.609375 34.8125 
Q 44.34375 29.296875 32.078125 29.296875 
L 19.671875 29.296875 
L 19.671875 0 
L 9.8125 0 
z
" id="DejaVuSans-50"/>
      <path d="M 41.109375 46.296875 
Q 39.59375 47.171875 37.8125 47.578125 
Q 36.03125 48 33.890625 48 
Q 26.265625 48 22.1875 43.046875 
Q 18.109375 38.09375 18.109375 28.8125 
L 18.109375 0 
L 9.078125 0 
L 9.078125 54.6875 
L 18.109375 54.6875 
L 18.109375 46.1875 
Q 20.953125 51.171875 25.484375 53.578125 
Q 30.03125 56 36.53125 56 
Q 37.453125 56 38.578125 55.875 
Q 39.703125 55.765625 41.0625 55.515625 
z
" id="DejaVuSans-72"/>
      <path d="M 45.40625 46.390625 
L 45.40625 75.984375 
L 54.390625 75.984375 
L 54.390625 0 
L 45.40625 0 
L 45.40625 8.203125 
Q 42.578125 3.328125 38.25 0.953125 
Q 33.9375 -1.421875 27.875 -1.421875 
Q 17.96875 -1.421875 11.734375 6.484375 
Q 5.515625 14.40625 5.515625 27.296875 
Q 5.515625 40.1875 11.734375 48.09375 
Q 17.96875 56 27.875 56 
Q 33.9375 56 38.25 53.625 
Q 42.578125 51.265625 45.40625 46.390625 
z
M 14.796875 27.296875 
Q 14.796875 17.390625 18.875 11.75 
Q 22.953125 6.109375 30.078125 6.109375 
Q 37.203125 6.109375 41.296875 11.75 
Q 45.40625 17.390625 45.40625 27.296875 
Q 45.40625 37.203125 41.296875 42.84375 
Q 37.203125 48.484375 30.078125 48.484375 
Q 22.953125 48.484375 18.875 42.84375 
Q 14.796875 37.203125 14.796875 27.296875 
z
" id="DejaVuSans-64"/>
      <path d="M 9.421875 54.6875 
L 18.40625 54.6875 
L 18.40625 0 
L 9.421875 0 
z
M 9.421875 75.984375 
L 18.40625 75.984375 
L 18.40625 64.59375 
L 9.421875 64.59375 
z
" id="DejaVuSans-69"/>
      <path d="M 48.78125 52.59375 
L 48.78125 44.1875 
Q 44.96875 46.296875 41.140625 47.34375 
Q 37.3125 48.390625 33.40625 48.390625 
Q 24.65625 48.390625 19.8125 42.84375 
Q 14.984375 37.3125 14.984375 27.296875 
Q 14.984375 17.28125 19.8125 11.734375 
Q 24.65625 6.203125 33.40625 6.203125 
Q 37.3125 6.203125 41.140625 7.25 
Q 44.96875 8.296875 48.78125 10.40625 
L 48.78125 2.09375 
Q 45.015625 0.34375 40.984375 -0.53125 
Q 36.96875 -1.421875 32.421875 -1.421875 
Q 20.0625 -1.421875 12.78125 6.34375 
Q 5.515625 14.109375 5.515625 27.296875 
Q 5.515625 40.671875 12.859375 48.328125 
Q 20.21875 56 33.015625 56 
Q 37.15625 56 41.109375 55.140625 
Q 45.0625 54.296875 48.78125 52.59375 
z
" id="DejaVuSans-63"/>
      <path d="M 18.3125 70.21875 
L 18.3125 54.6875 
L 36.8125 54.6875 
L 36.8125 47.703125 
L 18.3125 47.703125 
L 18.3125 18.015625 
Q 18.3125 11.328125 20.140625 9.421875 
Q 21.96875 7.515625 27.59375 7.515625 
L 36.8125 7.515625 
L 36.8125 0 
L 27.59375 0 
Q 17.1875 0 13.234375 3.875 
Q 9.28125 7.765625 9.28125 18.015625 
L 9.28125 47.703125 
L 2.6875 47.703125 
L 2.6875 54.6875 
L 9.28125 54.6875 
L 9.28125 70.21875 
z
" id="DejaVuSans-74"/>
      <path d="M 30.609375 48.390625 
Q 23.390625 48.390625 19.1875 42.75 
Q 14.984375 37.109375 14.984375 27.296875 
Q 14.984375 17.484375 19.15625 11.84375 
Q 23.34375 6.203125 30.609375 6.203125 
Q 37.796875 6.203125 41.984375 11.859375 
Q 46.1875 17.53125 46.1875 27.296875 
Q 46.1875 37.015625 41.984375 42.703125 
Q 37.796875 48.390625 30.609375 48.390625 
z
M 30.609375 56 
Q 42.328125 56 49.015625 48.375 
Q 55.71875 40.765625 55.71875 27.296875 
Q 55.71875 13.875 49.015625 6.21875 
Q 42.328125 -1.421875 30.609375 -1.421875 
Q 18.84375 -1.421875 12.171875 6.21875 
Q 5.515625 13.875 5.515625 27.296875 
Q 5.515625 40.765625 12.171875 48.375 
Q 18.84375 56 30.609375 56 
z
" id="DejaVuSans-6f"/>
      <path d="M 48.6875 27.296875 
Q 48.6875 37.203125 44.609375 42.84375 
Q 40.53125 48.484375 33.40625 48.484375 
Q 26.265625 48.484375 22.1875 42.84375 
Q 18.109375 37.203125 18.109375 27.296875 
Q 18.109375 17.390625 22.1875 11.75 
Q 26.265625 6.109375 33.40625 6.109375 
Q 40.53125 6.109375 44.609375 11.75 
Q 48.6875 17.390625 48.6875 27.296875 
z
M 18.109375 46.390625 
Q 20.953125 51.265625 25.265625 53.625 
Q 29.59375 56 35.59375 56 
Q 45.5625 56 51.78125 48.09375 
Q 58.015625 40.1875 58.015625 27.296875 
Q 58.015625 14.40625 51.78125 6.484375 
Q 45.5625 -1.421875 35.59375 -1.421875 
Q 29.59375 -1.421875 25.265625 0.953125 
Q 20.953125 3.328125 18.109375 8.203125 
L 18.109375 0 
L 9.078125 0 
L 9.078125 75.984375 
L 18.109375 75.984375 
z
" id="DejaVuSans-62"/>
      <path d="M 9.421875 75.984375 
L 18.40625 75.984375 
L 18.40625 0 
L 9.421875 0 
z
" id="DejaVuSans-6c"/>
      <path d="M 32.171875 -5.078125 
Q 28.375 -14.84375 24.75 -17.8125 
Q 21.140625 -20.796875 15.09375 -20.796875 
L 7.90625 -20.796875 
L 7.90625 -13.28125 
L 13.1875 -13.28125 
Q 16.890625 -13.28125 18.9375 -11.515625 
Q 21 -9.765625 23.484375 -3.21875 
L 25.09375 0.875 
L 2.984375 54.6875 
L 12.5 54.6875 
L 29.59375 11.921875 
L 46.6875 54.6875 
L 56.203125 54.6875 
z
" id="DejaVuSans-79"/>
     </defs>
     <g style="fill:#262626;" transform="translate(136.691875 273.022188)scale(0.12 -0.12)">
      <use xlink:href="#DejaVuSans-4d"/>
      <use x="86.279297" xlink:href="#DejaVuSans-65"/>
      <use x="147.802734" xlink:href="#DejaVuSans-61"/>
      <use x="209.082031" xlink:href="#DejaVuSans-6e"/>
      <use x="272.460938" xlink:href="#DejaVuSans-20"/>
      <use x="304.248047" xlink:href="#DejaVuSans-50"/>
      <use x="364.535156" xlink:href="#DejaVuSans-72"/>
      <use x="405.617188" xlink:href="#DejaVuSans-65"/>
      <use x="467.140625" xlink:href="#DejaVuSans-64"/>
      <use x="530.617188" xlink:href="#DejaVuSans-69"/>
      <use x="558.400391" xlink:href="#DejaVuSans-63"/>
      <use x="613.380859" xlink:href="#DejaVuSans-74"/>
      <use x="652.589844" xlink:href="#DejaVuSans-65"/>
      <use x="714.113281" xlink:href="#DejaVuSans-64"/>
      <use x="777.589844" xlink:href="#DejaVuSans-20"/>
      <use x="809.376953" xlink:href="#DejaVuSans-50"/>
      <use x="869.664062" xlink:href="#DejaVuSans-72"/>
      <use x="910.746094" xlink:href="#DejaVuSans-6f"/>
      <use x="971.927734" xlink:href="#DejaVuSans-62"/>
      <use x="1035.404297" xlink:href="#DejaVuSans-61"/>
      <use x="1096.683594" xlink:href="#DejaVuSans-62"/>
      <use x="1160.160156" xlink:href="#DejaVuSans-69"/>
      <use x="1187.943359" xlink:href="#DejaVuSans-6c"/>
      <use x="1215.726562" xlink:href="#DejaVuSans-69"/>
      <use x="1243.509766" xlink:href="#DejaVuSans-74"/>
      <use x="1282.71875" xlink:href="#DejaVuSans-79"/>
     </g>
    </g>
   </g>
   <g id="matplotlib.axis_2">
    <g id="ytick_1">
     <g id="line2d_7">
      <path clip-path="url(#p5439dd9129)" d="M 49.807188 229.874489 
L 384.607188 229.874489 
" style="fill:none;stroke:#ffffff;stroke-linecap:round;"/>
     </g>
     <g id="text_8">
      <!-- 0.0 -->
      <g style="fill:#262626;" transform="translate(22.81375 234.053629)scale(0.11 -0.11)">
       <use xlink:href="#DejaVuSans-30"/>
       <use x="63.623047" xlink:href="#DejaVuSans-2e"/>
       <use x="95.410156" xlink:href="#DejaVuSans-30"/>
      </g>
     </g>
    </g>
    <g id="ytick_2">
     <g id="line2d_8">
      <path clip-path="url(#p5439dd9129)" d="M 49.807188 190.339943 
L 384.607188 190.339943 
" style="fill:none;stroke:#ffffff;stroke-linecap:round;"/>
     </g>
     <g id="text_9">
      <!-- 0.2 -->
      <g style="fill:#262626;" transform="translate(22.81375 194.519084)scale(0.11 -0.11)">
       <use xlink:href="#DejaVuSans-30"/>
       <use x="63.623047" xlink:href="#DejaVuSans-2e"/>
       <use x="95.410156" xlink:href="#DejaVuSans-32"/>
      </g>
     </g>
    </g>
    <g id="ytick_3">
     <g id="line2d_9">
      <path clip-path="url(#p5439dd9129)" d="M 49.807188 150.805398 
L 384.607188 150.805398 
" style="fill:none;stroke:#ffffff;stroke-linecap:round;"/>
     </g>
     <g id="text_10">
      <!-- 0.4 -->
      <g style="fill:#262626;" transform="translate(22.81375 154.984538)scale(0.11 -0.11)">
       <use xlink:href="#DejaVuSans-30"/>
       <use x="63.623047" xlink:href="#DejaVuSans-2e"/>
       <use x="95.410156" xlink:href="#DejaVuSans-34"/>
      </g>
     </g>
    </g>
    <g id="ytick_4">
     <g id="line2d_10">
      <path clip-path="url(#p5439dd9129)" d="M 49.807188 111.270852 
L 384.607188 111.270852 
" style="fill:none;stroke:#ffffff;stroke-linecap:round;"/>
     </g>
     <g id="text_11">
      <!-- 0.6 -->
      <g style="fill:#262626;" transform="translate(22.81375 115.449993)scale(0.11 -0.11)">
       <use xlink:href="#DejaVuSans-30"/>
       <use x="63.623047" xlink:href="#DejaVuSans-2e"/>
       <use x="95.410156" xlink:href="#DejaVuSans-36"/>
      </g>
     </g>
    </g>
    <g id="ytick_5">
     <g id="line2d_11">
      <path clip-path="url(#p5439dd9129)" d="M 49.807188 71.736307 
L 384.607188 71.736307 
" style="fill:none;stroke:#ffffff;stroke-linecap:round;"/>
     </g>
     <g id="text_12">
      <!-- 0.8 -->
      <g style="fill:#262626;" transform="translate(22.81375 75.915447)scale(0.11 -0.11)">
       <use xlink:href="#DejaVuSans-30"/>
       <use x="63.623047" xlink:href="#DejaVuSans-2e"/>
       <use x="95.410156" xlink:href="#DejaVuSans-38"/>
      </g>
     </g>
    </g>
    <g id="ytick_6">
     <g id="line2d_12">
      <path clip-path="url(#p5439dd9129)" d="M 49.807188 32.201761 
L 384.607188 32.201761 
" style="fill:none;stroke:#ffffff;stroke-linecap:round;"/>
     </g>
     <g id="text_13">
      <!-- 1.0 -->
      <g style="fill:#262626;" transform="translate(22.81375 36.380902)scale(0.11 -0.11)">
       <use xlink:href="#DejaVuSans-31"/>
       <use x="63.623047" xlink:href="#DejaVuSans-2e"/>
       <use x="95.410156" xlink:href="#DejaVuSans-30"/>
      </g>
     </g>
    </g>
    <g id="text_14">
     <!-- Fraction of Positives -->
     <defs>
      <path d="M 9.8125 72.90625 
L 51.703125 72.90625 
L 51.703125 64.59375 
L 19.671875 64.59375 
L 19.671875 43.109375 
L 48.578125 43.109375 
L 48.578125 34.8125 
L 19.671875 34.8125 
L 19.671875 0 
L 9.8125 0 
z
" id="DejaVuSans-46"/>
      <path d="M 37.109375 75.984375 
L 37.109375 68.5 
L 28.515625 68.5 
Q 23.6875 68.5 21.796875 66.546875 
Q 19.921875 64.59375 19.921875 59.515625 
L 19.921875 54.6875 
L 34.71875 54.6875 
L 34.71875 47.703125 
L 19.921875 47.703125 
L 19.921875 0 
L 10.890625 0 
L 10.890625 47.703125 
L 2.296875 47.703125 
L 2.296875 54.6875 
L 10.890625 54.6875 
L 10.890625 58.5 
Q 10.890625 67.625 15.140625 71.796875 
Q 19.390625 75.984375 28.609375 75.984375 
z
" id="DejaVuSans-66"/>
      <path d="M 44.28125 53.078125 
L 44.28125 44.578125 
Q 40.484375 46.53125 36.375 47.5 
Q 32.28125 48.484375 27.875 48.484375 
Q 21.1875 48.484375 17.84375 46.4375 
Q 14.5 44.390625 14.5 40.28125 
Q 14.5 37.15625 16.890625 35.375 
Q 19.28125 33.59375 26.515625 31.984375 
L 29.59375 31.296875 
Q 39.15625 29.25 43.1875 25.515625 
Q 47.21875 21.78125 47.21875 15.09375 
Q 47.21875 7.46875 41.1875 3.015625 
Q 35.15625 -1.421875 24.609375 -1.421875 
Q 20.21875 -1.421875 15.453125 -0.5625 
Q 10.6875 0.296875 5.421875 2 
L 5.421875 11.28125 
Q 10.40625 8.6875 15.234375 7.390625 
Q 20.0625 6.109375 24.8125 6.109375 
Q 31.15625 6.109375 34.5625 8.28125 
Q 37.984375 10.453125 37.984375 14.40625 
Q 37.984375 18.0625 35.515625 20.015625 
Q 33.0625 21.96875 24.703125 23.78125 
L 21.578125 24.515625 
Q 13.234375 26.265625 9.515625 29.90625 
Q 5.8125 33.546875 5.8125 39.890625 
Q 5.8125 47.609375 11.28125 51.796875 
Q 16.75 56 26.8125 56 
Q 31.78125 56 36.171875 55.265625 
Q 40.578125 54.546875 44.28125 53.078125 
z
" id="DejaVuSans-73"/>
      <path d="M 2.984375 54.6875 
L 12.5 54.6875 
L 29.59375 8.796875 
L 46.6875 54.6875 
L 56.203125 54.6875 
L 35.6875 0 
L 23.484375 0 
z
" id="DejaVuSans-76"/>
     </defs>
     <g style="fill:#262626;" transform="translate(16.318125 191.481563)rotate(-90)scale(0.12 -0.12)">
      <use xlink:href="#DejaVuSans-46"/>
      <use x="57.410156" xlink:href="#DejaVuSans-72"/>
      <use x="98.523438" xlink:href="#DejaVuSans-61"/>
      <use x="159.802734" xlink:href="#DejaVuSans-63"/>
      <use x="214.783203" xlink:href="#DejaVuSans-74"/>
      <use x="253.992188" xlink:href="#DejaVuSans-69"/>
      <use x="281.775391" xlink:href="#DejaVuSans-6f"/>
      <use x="342.957031" xlink:href="#DejaVuSans-6e"/>
      <use x="406.335938" xlink:href="#DejaVuSans-20"/>
      <use x="438.123047" xlink:href="#DejaVuSans-6f"/>
      <use x="499.304688" xlink:href="#DejaVuSans-66"/>
      <use x="534.509766" xlink:href="#DejaVuSans-20"/>
      <use x="566.296875" xlink:href="#DejaVuSans-50"/>
      <use x="626.552734" xlink:href="#DejaVuSans-6f"/>
      <use x="687.734375" xlink:href="#DejaVuSans-73"/>
      <use x="739.833984" xlink:href="#DejaVuSans-69"/>
      <use x="767.617188" xlink:href="#DejaVuSans-74"/>
      <use x="806.826172" xlink:href="#DejaVuSans-69"/>
      <use x="834.609375" xlink:href="#DejaVuSans-76"/>
      <use x="893.789062" xlink:href="#DejaVuSans-65"/>
      <use x="955.3125" xlink:href="#DejaVuSans-73"/>
     </g>
    </g>
   </g>
   <g id="line2d_13">
    <path clip-path="url(#p5439dd9129)" d="M 65.025369 229.874489 
L 369.389006 32.201761 
" style="fill:none;stroke:#1a1a1a;stroke-dasharray:1.5,2.475;stroke-dashoffset:0;stroke-width:1.5;"/>
   </g>
   <g id="line2d_14">
    <path clip-path="url(#p5439dd9129)" d="M 79.745728 221.250311 
L 107.100716 200.833742 
L 137.950284 178.336012 
L 168.362765 154.92122 
L 198.849679 135.854712 
L 228.256624 110.252795 
L 255.713087 77.818545 
" style="fill:none;stroke:#4c72b0;stroke-linecap:round;stroke-width:1.5;"/>
    <defs>
     <path d="M -3 3 
L 3 3 
L 3 -3 
L -3 -3 
z
" id="m80dbde850e" style="stroke:#4c72b0;stroke-linejoin:miter;"/>
    </defs>
    <g clip-path="url(#p5439dd9129)">
     <use style="fill:#4c72b0;stroke:#4c72b0;stroke-linejoin:miter;" x="79.745728" xlink:href="#m80dbde850e" y="221.250311"/>
     <use style="fill:#4c72b0;stroke:#4c72b0;stroke-linejoin:miter;" x="107.100716" xlink:href="#m80dbde850e" y="200.833742"/>
     <use style="fill:#4c72b0;stroke:#4c72b0;stroke-linejoin:miter;" x="137.950284" xlink:href="#m80dbde850e" y="178.336012"/>
     <use style="fill:#4c72b0;stroke:#4c72b0;stroke-linejoin:miter;" x="168.362765" xlink:href="#m80dbde850e" y="154.92122"/>
     <use style="fill:#4c72b0;stroke:#4c72b0;stroke-linejoin:miter;" x="198.849679" xlink:href="#m80dbde850e" y="135.854712"/>
     <use style="fill:#4c72b0;stroke:#4c72b0;stroke-linejoin:miter;" x="228.256624" xlink:href="#m80dbde850e" y="110.252795"/>
     <use style="fill:#4c72b0;stroke:#4c72b0;stroke-linejoin:miter;" x="255.713087" xlink:href="#m80dbde850e" y="77.818545"/>
    </g>
   </g>
   <g id="line2d_15">
    <path clip-path="url(#p5439dd9129)" d="M 78.295103 221.348664 
L 108.091504 201.759872 
L 138.213246 182.354125 
L 169.179038 161.030678 
L 197.946804 141.587499 
L 232.438865 126.771807 
L 264.786701 104.521052 
L 291.900416 104.082753 
L 315.349232 69.265398 
L 369.389006 32.201761 
" style="fill:none;stroke:#dd8452;stroke-linecap:round;stroke-width:1.5;"/>
    <defs>
     <path d="M -3 3 
L 3 3 
L 3 -3 
L -3 -3 
z
" id="mdef426207b" style="stroke:#dd8452;stroke-linejoin:miter;"/>
    </defs>
    <g clip-path="url(#p5439dd9129)">
     <use style="fill:#dd8452;stroke:#dd8452;stroke-linejoin:miter;" x="78.295103" xlink:href="#mdef426207b" y="221.348664"/>
     <use style="fill:#dd8452;stroke:#dd8452;stroke-linejoin:miter;" x="108.091504" xlink:href="#mdef426207b" y="201.759872"/>
     <use style="fill:#dd8452;stroke:#dd8452;stroke-linejoin:miter;" x="138.213246" xlink:href="#mdef426207b" y="182.354125"/>
     <use style="fill:#dd8452;stroke:#dd8452;stroke-linejoin:miter;" x="169.179038" xlink:href="#mdef426207b" y="161.030678"/>
     <use style="fill:#dd8452;stroke:#dd8452;stroke-linejoin:miter;" x="197.946804" xlink:href="#mdef426207b" y="141.587499"/>
     <use style="fill:#dd8452;stroke:#dd8452;stroke-linejoin:miter;" x="232.438865" xlink:href="#mdef426207b" y="126.771807"/>
     <use style="fill:#dd8452;stroke:#dd8452;stroke-linejoin:miter;" x="264.786701" xlink:href="#mdef426207b" y="104.521052"/>
     <use style="fill:#dd8452;stroke:#dd8452;stroke-linejoin:miter;" x="291.900416" xlink:href="#mdef426207b" y="104.082753"/>
     <use style="fill:#dd8452;stroke:#dd8452;stroke-linejoin:miter;" x="315.349232" xlink:href="#mdef426207b" y="69.265398"/>
     <use style="fill:#dd8452;stroke:#dd8452;stroke-linejoin:miter;" x="369.389006" xlink:href="#mdef426207b" y="32.201761"/>
    </g>
   </g>
   <g id="line2d_16">
    <path clip-path="url(#p5439dd9129)" d="M 81.351474 219.800653 
L 106.44702 196.288395 
L 138.701258 178.685348 
L 169.716163 166.82329 
L 200.635917 157.621699 
L 231.118297 147.279608 
L 261.131131 141.100963 
L 291.701236 128.480007 
L 321.504513 112.640014 
L 345.09376 80.414622 
" style="fill:none;stroke:#55a868;stroke-linecap:round;stroke-width:1.5;"/>
    <defs>
     <path d="M -3 3 
L 3 3 
L 3 -3 
L -3 -3 
z
" id="me5a7ec31c2" style="stroke:#55a868;stroke-linejoin:miter;"/>
    </defs>
    <g clip-path="url(#p5439dd9129)">
     <use style="fill:#55a868;stroke:#55a868;stroke-linejoin:miter;" x="81.351474" xlink:href="#me5a7ec31c2" y="219.800653"/>
     <use style="fill:#55a868;stroke:#55a868;stroke-linejoin:miter;" x="106.44702" xlink:href="#me5a7ec31c2" y="196.288395"/>
     <use style="fill:#55a868;stroke:#55a868;stroke-linejoin:miter;" x="138.701258" xlink:href="#me5a7ec31c2" y="178.685348"/>
     <use style="fill:#55a868;stroke:#55a868;stroke-linejoin:miter;" x="169.716163" xlink:href="#me5a7ec31c2" y="166.82329"/>
     <use style="fill:#55a868;stroke:#55a868;stroke-linejoin:miter;" x="200.635917" xlink:href="#me5a7ec31c2" y="157.621699"/>
     <use style="fill:#55a868;stroke:#55a868;stroke-linejoin:miter;" x="231.118297" xlink:href="#me5a7ec31c2" y="147.279608"/>
     <use style="fill:#55a868;stroke:#55a868;stroke-linejoin:miter;" x="261.131131" xlink:href="#me5a7ec31c2" y="141.100963"/>
     <use style="fill:#55a868;stroke:#55a868;stroke-linejoin:miter;" x="291.701236" xlink:href="#me5a7ec31c2" y="128.480007"/>
     <use style="fill:#55a868;stroke:#55a868;stroke-linejoin:miter;" x="321.504513" xlink:href="#me5a7ec31c2" y="112.640014"/>
     <use style="fill:#55a868;stroke:#55a868;stroke-linejoin:miter;" x="345.09376" xlink:href="#me5a7ec31c2" y="80.414622"/>
    </g>
   </g>
   <g id="patch_3">
    <path d="M 49.807188 239.758125 
L 49.807188 22.318125 
" style="fill:none;stroke:#ffffff;stroke-linecap:square;stroke-linejoin:miter;stroke-width:1.25;"/>
   </g>
   <g id="patch_4">
    <path d="M 384.607188 239.758125 
L 384.607188 22.318125 
" style="fill:none;stroke:#ffffff;stroke-linecap:square;stroke-linejoin:miter;stroke-width:1.25;"/>
   </g>
   <g id="patch_5">
    <path d="M 49.807187 239.758125 
L 384.607188 239.758125 
" style="fill:none;stroke:#ffffff;stroke-linecap:square;stroke-linejoin:miter;stroke-width:1.25;"/>
   </g>
   <g id="patch_6">
    <path d="M 49.807187 22.318125 
L 384.607188 22.318125 
" style="fill:none;stroke:#ffffff;stroke-linecap:square;stroke-linejoin:miter;stroke-width:1.25;"/>
   </g>
   <g id="text_15">
    <!-- Calibration curve for Calibrated XGBoost model -->
    <defs>
     <path d="M 64.40625 67.28125 
L 64.40625 56.890625 
Q 59.421875 61.53125 53.78125 63.8125 
Q 48.140625 66.109375 41.796875 66.109375 
Q 29.296875 66.109375 22.65625 58.46875 
Q 16.015625 50.828125 16.015625 36.375 
Q 16.015625 21.96875 22.65625 14.328125 
Q 29.296875 6.6875 41.796875 6.6875 
Q 48.140625 6.6875 53.78125 8.984375 
Q 59.421875 11.28125 64.40625 15.921875 
L 64.40625 5.609375 
Q 59.234375 2.09375 53.4375 0.328125 
Q 47.65625 -1.421875 41.21875 -1.421875 
Q 24.65625 -1.421875 15.125 8.703125 
Q 5.609375 18.84375 5.609375 36.375 
Q 5.609375 53.953125 15.125 64.078125 
Q 24.65625 74.21875 41.21875 74.21875 
Q 47.75 74.21875 53.53125 72.484375 
Q 59.328125 70.75 64.40625 67.28125 
z
" id="DejaVuSans-43"/>
     <path d="M 8.5 21.578125 
L 8.5 54.6875 
L 17.484375 54.6875 
L 17.484375 21.921875 
Q 17.484375 14.15625 20.5 10.265625 
Q 23.53125 6.390625 29.59375 6.390625 
Q 36.859375 6.390625 41.078125 11.03125 
Q 45.3125 15.671875 45.3125 23.6875 
L 45.3125 54.6875 
L 54.296875 54.6875 
L 54.296875 0 
L 45.3125 0 
L 45.3125 8.40625 
Q 42.046875 3.421875 37.71875 1 
Q 33.40625 -1.421875 27.6875 -1.421875 
Q 18.265625 -1.421875 13.375 4.4375 
Q 8.5 10.296875 8.5 21.578125 
z
M 31.109375 56 
z
" id="DejaVuSans-75"/>
     <path d="M 6.296875 72.90625 
L 16.890625 72.90625 
L 35.015625 45.796875 
L 53.21875 72.90625 
L 63.8125 72.90625 
L 40.375 37.890625 
L 65.375 0 
L 54.78125 0 
L 34.28125 31 
L 13.625 0 
L 2.984375 0 
L 29 38.921875 
z
" id="DejaVuSans-58"/>
     <path d="M 59.515625 10.40625 
L 59.515625 29.984375 
L 43.40625 29.984375 
L 43.40625 38.09375 
L 69.28125 38.09375 
L 69.28125 6.78125 
Q 63.578125 2.734375 56.6875 0.65625 
Q 49.8125 -1.421875 42 -1.421875 
Q 24.90625 -1.421875 15.25 8.5625 
Q 5.609375 18.5625 5.609375 36.375 
Q 5.609375 54.25 15.25 64.234375 
Q 24.90625 74.21875 42 74.21875 
Q 49.125 74.21875 55.546875 72.453125 
Q 61.96875 70.703125 67.390625 67.28125 
L 67.390625 56.78125 
Q 61.921875 61.421875 55.765625 63.765625 
Q 49.609375 66.109375 42.828125 66.109375 
Q 29.4375 66.109375 22.71875 58.640625 
Q 16.015625 51.171875 16.015625 36.375 
Q 16.015625 21.625 22.71875 14.15625 
Q 29.4375 6.6875 42.828125 6.6875 
Q 48.046875 6.6875 52.140625 7.59375 
Q 56.25 8.5 59.515625 10.40625 
z
" id="DejaVuSans-47"/>
     <path d="M 19.671875 34.8125 
L 19.671875 8.109375 
L 35.5 8.109375 
Q 43.453125 8.109375 47.28125 11.40625 
Q 51.125 14.703125 51.125 21.484375 
Q 51.125 28.328125 47.28125 31.5625 
Q 43.453125 34.8125 35.5 34.8125 
z
M 19.671875 64.796875 
L 19.671875 42.828125 
L 34.28125 42.828125 
Q 41.5 42.828125 45.03125 45.53125 
Q 48.578125 48.25 48.578125 53.8125 
Q 48.578125 59.328125 45.03125 62.0625 
Q 41.5 64.796875 34.28125 64.796875 
z
M 9.8125 72.90625 
L 35.015625 72.90625 
Q 46.296875 72.90625 52.390625 68.21875 
Q 58.5 63.53125 58.5 54.890625 
Q 58.5 48.1875 55.375 44.234375 
Q 52.25 40.28125 46.1875 39.3125 
Q 53.46875 37.75 57.5 32.78125 
Q 61.53125 27.828125 61.53125 20.40625 
Q 61.53125 10.640625 54.890625 5.3125 
Q 48.25 0 35.984375 0 
L 9.8125 0 
z
" id="DejaVuSans-42"/>
     <path d="M 52 44.1875 
Q 55.375 50.25 60.0625 53.125 
Q 64.75 56 71.09375 56 
Q 79.640625 56 84.28125 50.015625 
Q 88.921875 44.046875 88.921875 33.015625 
L 88.921875 0 
L 79.890625 0 
L 79.890625 32.71875 
Q 79.890625 40.578125 77.09375 44.375 
Q 74.3125 48.1875 68.609375 48.1875 
Q 61.625 48.1875 57.5625 43.546875 
Q 53.515625 38.921875 53.515625 30.90625 
L 53.515625 0 
L 44.484375 0 
L 44.484375 32.71875 
Q 44.484375 40.625 41.703125 44.40625 
Q 38.921875 48.1875 33.109375 48.1875 
Q 26.21875 48.1875 22.15625 43.53125 
Q 18.109375 38.875 18.109375 30.90625 
L 18.109375 0 
L 9.078125 0 
L 9.078125 54.6875 
L 18.109375 54.6875 
L 18.109375 46.1875 
Q 21.1875 51.21875 25.484375 53.609375 
Q 29.78125 56 35.6875 56 
Q 41.65625 56 45.828125 52.96875 
Q 50 49.953125 52 44.1875 
z
" id="DejaVuSans-6d"/>
    </defs>
    <g style="fill:#262626;" transform="translate(74.580625 16.318125)scale(0.12 -0.12)">
     <use xlink:href="#DejaVuSans-43"/>
     <use x="69.824219" xlink:href="#DejaVuSans-61"/>
     <use x="131.103516" xlink:href="#DejaVuSans-6c"/>
     <use x="158.886719" xlink:href="#DejaVuSans-69"/>
     <use x="186.669922" xlink:href="#DejaVuSans-62"/>
     <use x="250.146484" xlink:href="#DejaVuSans-72"/>
     <use x="291.259766" xlink:href="#DejaVuSans-61"/>
     <use x="352.539062" xlink:href="#DejaVuSans-74"/>
     <use x="391.748047" xlink:href="#DejaVuSans-69"/>
     <use x="419.53125" xlink:href="#DejaVuSans-6f"/>
     <use x="480.712891" xlink:href="#DejaVuSans-6e"/>
     <use x="544.091797" xlink:href="#DejaVuSans-20"/>
     <use x="575.878906" xlink:href="#DejaVuSans-63"/>
     <use x="630.859375" xlink:href="#DejaVuSans-75"/>
     <use x="694.238281" xlink:href="#DejaVuSans-72"/>
     <use x="735.351562" xlink:href="#DejaVuSans-76"/>
     <use x="794.53125" xlink:href="#DejaVuSans-65"/>
     <use x="856.054688" xlink:href="#DejaVuSans-20"/>
     <use x="887.841797" xlink:href="#DejaVuSans-66"/>
     <use x="923.046875" xlink:href="#DejaVuSans-6f"/>
     <use x="984.228516" xlink:href="#DejaVuSans-72"/>
     <use x="1025.341797" xlink:href="#DejaVuSans-20"/>
     <use x="1057.128906" xlink:href="#DejaVuSans-43"/>
     <use x="1126.953125" xlink:href="#DejaVuSans-61"/>
     <use x="1188.232422" xlink:href="#DejaVuSans-6c"/>
     <use x="1216.015625" xlink:href="#DejaVuSans-69"/>
     <use x="1243.798828" xlink:href="#DejaVuSans-62"/>
     <use x="1307.275391" xlink:href="#DejaVuSans-72"/>
     <use x="1348.388672" xlink:href="#DejaVuSans-61"/>
     <use x="1409.667969" xlink:href="#DejaVuSans-74"/>
     <use x="1448.876953" xlink:href="#DejaVuSans-65"/>
     <use x="1510.400391" xlink:href="#DejaVuSans-64"/>
     <use x="1573.876953" xlink:href="#DejaVuSans-20"/>
     <use x="1605.664062" xlink:href="#DejaVuSans-58"/>
     <use x="1674.169922" xlink:href="#DejaVuSans-47"/>
     <use x="1751.660156" xlink:href="#DejaVuSans-42"/>
     <use x="1820.263672" xlink:href="#DejaVuSans-6f"/>
     <use x="1881.445312" xlink:href="#DejaVuSans-6f"/>
     <use x="1942.626953" xlink:href="#DejaVuSans-73"/>
     <use x="1994.726562" xlink:href="#DejaVuSans-74"/>
     <use x="2033.935547" xlink:href="#DejaVuSans-20"/>
     <use x="2065.722656" xlink:href="#DejaVuSans-6d"/>
     <use x="2163.134766" xlink:href="#DejaVuSans-6f"/>
     <use x="2224.316406" xlink:href="#DejaVuSans-64"/>
     <use x="2287.792969" xlink:href="#DejaVuSans-65"/>
     <use x="2349.316406" xlink:href="#DejaVuSans-6c"/>
    </g>
   </g>
   <g id="legend_1">
    <g id="patch_7">
     <path d="M 57.507188 95.701875 
L 268.067813 95.701875 
Q 270.267813 95.701875 270.267813 93.501875 
L 270.267813 30.018125 
Q 270.267813 27.818125 268.067813 27.818125 
L 57.507188 27.818125 
Q 55.307188 27.818125 55.307188 30.018125 
L 55.307188 93.501875 
Q 55.307188 95.701875 57.507188 95.701875 
z
" style="fill:#eaeaf2;opacity:0.8;stroke:#cccccc;stroke-linejoin:miter;"/>
    </g>
    <g id="line2d_17">
     <path d="M 59.707188 36.726406 
L 81.707188 36.726406 
" style="fill:none;stroke:#1a1a1a;stroke-dasharray:1.5,2.475;stroke-dashoffset:0;stroke-width:1.5;"/>
    </g>
    <g id="line2d_18"/>
    <g id="text_16">
     <!-- Perfectly Calibrated -->
     <g style="fill:#262626;" transform="translate(90.507188 40.576406)scale(0.11 -0.11)">
      <use xlink:href="#DejaVuSans-50"/>
      <use x="60.255859" xlink:href="#DejaVuSans-65"/>
      <use x="121.779297" xlink:href="#DejaVuSans-72"/>
      <use x="162.892578" xlink:href="#DejaVuSans-66"/>
      <use x="198.097656" xlink:href="#DejaVuSans-65"/>
      <use x="259.621094" xlink:href="#DejaVuSans-63"/>
      <use x="314.601562" xlink:href="#DejaVuSans-74"/>
      <use x="353.810547" xlink:href="#DejaVuSans-6c"/>
      <use x="381.59375" xlink:href="#DejaVuSans-79"/>
      <use x="440.773438" xlink:href="#DejaVuSans-20"/>
      <use x="472.560547" xlink:href="#DejaVuSans-43"/>
      <use x="542.384766" xlink:href="#DejaVuSans-61"/>
      <use x="603.664062" xlink:href="#DejaVuSans-6c"/>
      <use x="631.447266" xlink:href="#DejaVuSans-69"/>
      <use x="659.230469" xlink:href="#DejaVuSans-62"/>
      <use x="722.707031" xlink:href="#DejaVuSans-72"/>
      <use x="763.820312" xlink:href="#DejaVuSans-61"/>
      <use x="825.099609" xlink:href="#DejaVuSans-74"/>
      <use x="864.308594" xlink:href="#DejaVuSans-65"/>
      <use x="925.832031" xlink:href="#DejaVuSans-64"/>
     </g>
    </g>
    <g id="line2d_19">
     <path d="M 59.707188 52.872344 
L 81.707188 52.872344 
" style="fill:none;stroke:#4c72b0;stroke-linecap:round;stroke-width:1.5;"/>
    </g>
    <g id="line2d_20">
     <g>
      <use style="fill:#4c72b0;stroke:#4c72b0;stroke-linejoin:miter;" x="70.707188" xlink:href="#m80dbde850e" y="52.872344"/>
     </g>
    </g>
    <g id="text_17">
     <!-- XGBoost Predictions -->
     <g style="fill:#262626;" transform="translate(90.507188 56.722344)scale(0.11 -0.11)">
      <use xlink:href="#DejaVuSans-58"/>
      <use x="68.505859" xlink:href="#DejaVuSans-47"/>
      <use x="145.996094" xlink:href="#DejaVuSans-42"/>
      <use x="214.599609" xlink:href="#DejaVuSans-6f"/>
      <use x="275.78125" xlink:href="#DejaVuSans-6f"/>
      <use x="336.962891" xlink:href="#DejaVuSans-73"/>
      <use x="389.0625" xlink:href="#DejaVuSans-74"/>
      <use x="428.271484" xlink:href="#DejaVuSans-20"/>
      <use x="460.058594" xlink:href="#DejaVuSans-50"/>
      <use x="520.345703" xlink:href="#DejaVuSans-72"/>
      <use x="561.427734" xlink:href="#DejaVuSans-65"/>
      <use x="622.951172" xlink:href="#DejaVuSans-64"/>
      <use x="686.427734" xlink:href="#DejaVuSans-69"/>
      <use x="714.210938" xlink:href="#DejaVuSans-63"/>
      <use x="769.191406" xlink:href="#DejaVuSans-74"/>
      <use x="808.400391" xlink:href="#DejaVuSans-69"/>
      <use x="836.183594" xlink:href="#DejaVuSans-6f"/>
      <use x="897.365234" xlink:href="#DejaVuSans-6e"/>
      <use x="960.744141" xlink:href="#DejaVuSans-73"/>
     </g>
    </g>
    <g id="line2d_21">
     <path d="M 59.707188 69.018281 
L 81.707188 69.018281 
" style="fill:none;stroke:#dd8452;stroke-linecap:round;stroke-width:1.5;"/>
    </g>
    <g id="line2d_22">
     <g>
      <use style="fill:#dd8452;stroke:#dd8452;stroke-linejoin:miter;" x="70.707188" xlink:href="#mdef426207b" y="69.018281"/>
     </g>
    </g>
    <g id="text_18">
     <!-- Calibrated Predictions - isotonic -->
     <defs>
      <path d="M 4.890625 31.390625 
L 31.203125 31.390625 
L 31.203125 23.390625 
L 4.890625 23.390625 
z
" id="DejaVuSans-2d"/>
     </defs>
     <g style="fill:#262626;" transform="translate(90.507188 72.868281)scale(0.11 -0.11)">
      <use xlink:href="#DejaVuSans-43"/>
      <use x="69.824219" xlink:href="#DejaVuSans-61"/>
      <use x="131.103516" xlink:href="#DejaVuSans-6c"/>
      <use x="158.886719" xlink:href="#DejaVuSans-69"/>
      <use x="186.669922" xlink:href="#DejaVuSans-62"/>
      <use x="250.146484" xlink:href="#DejaVuSans-72"/>
      <use x="291.259766" xlink:href="#DejaVuSans-61"/>
      <use x="352.539062" xlink:href="#DejaVuSans-74"/>
      <use x="391.748047" xlink:href="#DejaVuSans-65"/>
      <use x="453.271484" xlink:href="#DejaVuSans-64"/>
      <use x="516.748047" xlink:href="#DejaVuSans-20"/>
      <use x="548.535156" xlink:href="#DejaVuSans-50"/>
      <use x="608.822266" xlink:href="#DejaVuSans-72"/>
      <use x="649.904297" xlink:href="#DejaVuSans-65"/>
      <use x="711.427734" xlink:href="#DejaVuSans-64"/>
      <use x="774.904297" xlink:href="#DejaVuSans-69"/>
      <use x="802.6875" xlink:href="#DejaVuSans-63"/>
      <use x="857.667969" xlink:href="#DejaVuSans-74"/>
      <use x="896.876953" xlink:href="#DejaVuSans-69"/>
      <use x="924.660156" xlink:href="#DejaVuSans-6f"/>
      <use x="985.841797" xlink:href="#DejaVuSans-6e"/>
      <use x="1049.220703" xlink:href="#DejaVuSans-73"/>
      <use x="1101.320312" xlink:href="#DejaVuSans-20"/>
      <use x="1133.107422" xlink:href="#DejaVuSans-2d"/>
      <use x="1169.191406" xlink:href="#DejaVuSans-20"/>
      <use x="1200.978516" xlink:href="#DejaVuSans-69"/>
      <use x="1228.761719" xlink:href="#DejaVuSans-73"/>
      <use x="1280.861328" xlink:href="#DejaVuSans-6f"/>
      <use x="1342.042969" xlink:href="#DejaVuSans-74"/>
      <use x="1381.251953" xlink:href="#DejaVuSans-6f"/>
      <use x="1442.433594" xlink:href="#DejaVuSans-6e"/>
      <use x="1505.8125" xlink:href="#DejaVuSans-69"/>
      <use x="1533.595703" xlink:href="#DejaVuSans-63"/>
     </g>
    </g>
    <g id="line2d_23">
     <path d="M 59.707188 85.164219 
L 81.707188 85.164219 
" style="fill:none;stroke:#55a868;stroke-linecap:round;stroke-width:1.5;"/>
    </g>
    <g id="line2d_24">
     <g>
      <use style="fill:#55a868;stroke:#55a868;stroke-linejoin:miter;" x="70.707188" xlink:href="#me5a7ec31c2" y="85.164219"/>
     </g>
    </g>
    <g id="text_19">
     <!-- Calibrated Predictions - sigmoid -->
     <defs>
      <path d="M 45.40625 27.984375 
Q 45.40625 37.75 41.375 43.109375 
Q 37.359375 48.484375 30.078125 48.484375 
Q 22.859375 48.484375 18.828125 43.109375 
Q 14.796875 37.75 14.796875 27.984375 
Q 14.796875 18.265625 18.828125 12.890625 
Q 22.859375 7.515625 30.078125 7.515625 
Q 37.359375 7.515625 41.375 12.890625 
Q 45.40625 18.265625 45.40625 27.984375 
z
M 54.390625 6.78125 
Q 54.390625 -7.171875 48.1875 -13.984375 
Q 42 -20.796875 29.203125 -20.796875 
Q 24.46875 -20.796875 20.265625 -20.09375 
Q 16.0625 -19.390625 12.109375 -17.921875 
L 12.109375 -9.1875 
Q 16.0625 -11.328125 19.921875 -12.34375 
Q 23.78125 -13.375 27.78125 -13.375 
Q 36.625 -13.375 41.015625 -8.765625 
Q 45.40625 -4.15625 45.40625 5.171875 
L 45.40625 9.625 
Q 42.625 4.78125 38.28125 2.390625 
Q 33.9375 0 27.875 0 
Q 17.828125 0 11.671875 7.65625 
Q 5.515625 15.328125 5.515625 27.984375 
Q 5.515625 40.671875 11.671875 48.328125 
Q 17.828125 56 27.875 56 
Q 33.9375 56 38.28125 53.609375 
Q 42.625 51.21875 45.40625 46.390625 
L 45.40625 54.6875 
L 54.390625 54.6875 
z
" id="DejaVuSans-67"/>
     </defs>
     <g style="fill:#262626;" transform="translate(90.507188 89.014219)scale(0.11 -0.11)">
      <use xlink:href="#DejaVuSans-43"/>
      <use x="69.824219" xlink:href="#DejaVuSans-61"/>
      <use x="131.103516" xlink:href="#DejaVuSans-6c"/>
      <use x="158.886719" xlink:href="#DejaVuSans-69"/>
      <use x="186.669922" xlink:href="#DejaVuSans-62"/>
      <use x="250.146484" xlink:href="#DejaVuSans-72"/>
      <use x="291.259766" xlink:href="#DejaVuSans-61"/>
      <use x="352.539062" xlink:href="#DejaVuSans-74"/>
      <use x="391.748047" xlink:href="#DejaVuSans-65"/>
      <use x="453.271484" xlink:href="#DejaVuSans-64"/>
      <use x="516.748047" xlink:href="#DejaVuSans-20"/>
      <use x="548.535156" xlink:href="#DejaVuSans-50"/>
      <use x="608.822266" xlink:href="#DejaVuSans-72"/>
      <use x="649.904297" xlink:href="#DejaVuSans-65"/>
      <use x="711.427734" xlink:href="#DejaVuSans-64"/>
      <use x="774.904297" xlink:href="#DejaVuSans-69"/>
      <use x="802.6875" xlink:href="#DejaVuSans-63"/>
      <use x="857.667969" xlink:href="#DejaVuSans-74"/>
      <use x="896.876953" xlink:href="#DejaVuSans-69"/>
      <use x="924.660156" xlink:href="#DejaVuSans-6f"/>
      <use x="985.841797" xlink:href="#DejaVuSans-6e"/>
      <use x="1049.220703" xlink:href="#DejaVuSans-73"/>
      <use x="1101.320312" xlink:href="#DejaVuSans-20"/>
      <use x="1133.107422" xlink:href="#DejaVuSans-2d"/>
      <use x="1169.191406" xlink:href="#DejaVuSans-20"/>
      <use x="1200.978516" xlink:href="#DejaVuSans-73"/>
      <use x="1253.078125" xlink:href="#DejaVuSans-69"/>
      <use x="1280.861328" xlink:href="#DejaVuSans-67"/>
      <use x="1344.337891" xlink:href="#DejaVuSans-6d"/>
      <use x="1441.75" xlink:href="#DejaVuSans-6f"/>
      <use x="1502.931641" xlink:href="#DejaVuSans-69"/>
      <use x="1530.714844" xlink:href="#DejaVuSans-64"/>
     </g>
    </g>
   </g>
  </g>
 </g>
 <defs>
  <clipPath id="p5439dd9129">
   <rect height="217.44" width="334.8" x="49.807188" y="22.318125"/>
  </clipPath>
 </defs>
</svg>
