<svg xmlns="http://www.w3.org/2000/svg" xmlns:xlink="http://www.w3.org/1999/xlink" version="1.2" viewBox="0 0 420 175.5" height="234" width="560"><defs><symbol id="a" overflow="visible"><path d="M0 0l2.7-4.1L.2-8h2l1.5 2.6L5.2-8h1.9L4.6-4l2.7 4H5.4L3.7-2.7 1.9 0zm0 0"/></symbol><symbol id="b" overflow="visible"><path d="M4.3 0H2.8v-5.7c-.5.5-1.2.9-2 1.2V-6c.5-.1.9-.4 1.4-.7a3 3 0 001-1.3h1.1zm0 0"/></symbol><symbol id="g" overflow="visible"><path d="M5.6-1.4V0H.3c0-.5.2-1 .5-1.5s.8-1.1 1.7-1.9c.7-.6 1-1 1.2-1.3.2-.3.3-.6.3-1 0-.2 0-.5-.2-.7a1 1 0 00-.8-.3 1 1 0 00-.7.3c-.2.2-.3.5-.3 1L.5-5.6c0-.8.3-1.4.8-1.8.5-.3 1-.5 1.8-.5.7 0 1.4.2 1.8.6.4.4.7 1 .7 1.6l-.2 1-.6 1-1 1a13.5 13.5 0 00-1.2 1.3zm0 0"/></symbol><symbol id="c" overflow="visible"><path d="M.3-2.2V-3H3v.8zm0 0"/></symbol><symbol id="d" overflow="visible"><path d="M5-.8V0H.3l.1-.6c.1-.3.3-.7.6-1l1.1-1 1.6-1.6c.3-.3.4-.7.4-1 0-.4-.1-.7-.3-.9-.3-.2-.6-.4-1-.4s-.8.2-1 .4c-.3.3-.4.6-.4 1h-1c.1-.7.4-1.2.8-1.6.4-.3 1-.5 1.6-.5.7 0 1.2.2 1.6.6.4.4.6.8.6 1.4 0 .3 0 .6-.2.9 0 .2-.3.5-.5.8L2.9-2.2A14.3 14.3 0 001.5-.8zm0 0"/></symbol><symbol id="e" overflow="visible"><path d="M.4-3.5c0-.9.1-1.6.3-2 .1-.6.4-1 .8-1.3a2 2 0 011.3-.4c.3 0 .7 0 1 .2l.7.7.4 1 .2 1.8c0 .8-.1 1.5-.3 2-.2.5-.4 1-.8 1.2a2 2 0 01-1.3.4 2 2 0 01-1.6-.7c-.4-.6-.7-1.6-.7-3zm1 0c0 1.1 0 2 .3 2.3.3.4.6.6 1 .6.5 0 .8-.2 1-.6.3-.4.5-1.2.5-2.3 0-1.2-.2-2-.4-2.4-.3-.4-.7-.6-1-.6-.5 0-.8.2-1 .5-.3.5-.5 1.3-.5 2.5zm0 0"/></symbol><symbol id="f" overflow="visible"><path d="M3.2 0v-1.7h-3v-.8l3.2-4.7H4v4.7h1v.8H4V0zm0-2.5v-3.3L1-2.5zm0 0"/></symbol></defs><g transform="translate(-96 -308.3)"><use height="100%" width="100%" y="321.2" x="213.8" xlink:href="#a"/><use height="100%" width="100%" y="321.2" x="221.1" xlink:href="#b"/></g><path d="M109.7 128.4l1.2 1.2h14l2.3-1.2M100.7 114.6l9 13.8M127.2 128.4l11.7-11.5 1.2-2.3M81.6 100.8l1.2 2.3 14 7.7 4 3.8M140 114.6l13-12.7 1-1.1M91.4 87l-8.6 12.6-1.2 1.2M154 100.8V87M91.4 73.2V87M154 87l-1-1.1-4.4-12.7M116.7 59.4l-5.8 3.8-14 2-5.5 8M148.6 73.2l-9.7-9.6-8.6-4.2M130.3 59.4L125 54l-8.2 5.4" fill="none" stroke="#3a23a6" stroke-width="1.125" stroke-linejoin="round" stroke-miterlimit="10"/><path d="M109.3 114.6l1.6 2.3h14l2.3-2.3M94.5 100.8l2.3 1.5 12.5 12.3M127.2 114.6l9.4-13.8M98 87l-1.2 9.2-2.3 4.6M136.6 100.8l2.3-9.2 2.3-4.6M106.2 73.2L98 87M141.2 87l3.2-13.8M144.4 73.2l-5.5-5.4-14-6.6-14 10.5-4.7 1.5" fill="none" stroke="#307afa" stroke-width="1.125" stroke-linejoin="round" stroke-miterlimit="10"/><path d="M107.3 100.8l3.6 3.5 14 3.4 5.2-6.9M101.2 87l6.1 13.8M130.1 100.8L136 87M116.1 73.2l-5.2 3-9.7 10.8M135.9 87l3-10.4 1.2-3.4M140 73.2l-1.1-1.1-14-5.8-8.8 6.9" fill="none" stroke="#17bdb3" stroke-width="1.125" stroke-linejoin="round" stroke-miterlimit="10"/><path d="M104.4 87l6.5 10.1 14 2.5 7.3-12.6M122.5 73.2L111 79.8l-6.5 7.2M132.2 87l-2.6-13.8M129.6 73.2l-4.7-1.8-2.4 1.8" fill="none" stroke="#cfbd26" stroke-width="1.125" stroke-linejoin="round" stroke-miterlimit="10"/><path d="M107.6 87l3.3 5 14 1.3 3.6-6.3M128.5 87l-3.6-8.4-14 4.8-3.3 3.6" fill="none" stroke="#f8fa11" stroke-width="1.125" stroke-linejoin="round" stroke-miterlimit="10"/><path d="M54.8 156H195M54.8 18H195M82.8 156v-1.4M117.9 156v-1.4M153 156v-1.4M188 156v-1.4M82.8 18v1.4M117.9 18v1.4M153 18v1.4M188 18v1.4" fill="none" stroke="#232323" stroke-width=".5249999999999999" stroke-linecap="square" stroke-linejoin="round" stroke-miterlimit="10"/><g fill="#232323" transform="translate(-96 -308.3)"><use height="100%" width="100%" y="478.8" x="174.3" xlink:href="#c"/><use height="100%" width="100%" y="478.8" x="177.6" xlink:href="#d"/></g><use height="100%" width="100%" y="478.8" x="210.9" xlink:href="#e" fill="#232323" transform="translate(-96 -308.3)"/><use height="100%" width="100%" y="478.8" x="245.9" xlink:href="#d" fill="#232323" transform="translate(-96 -308.3)"/><use height="100%" width="100%" y="478.8" x="281" xlink:href="#f" fill="#232323" transform="translate(-96 -308.3)"/><path d="M54.8 156V18M195 156V18M54.8 128.4h1.4M54.8 93.9h1.4M54.8 59.4h1.4M54.8 24.9h1.4M195 128.4h-1.4M195 93.9h-1.4M195 59.4h-1.4M195 24.9h-1.4" fill="none" stroke="#232323" stroke-width=".5249999999999999" stroke-linecap="square" stroke-linejoin="round" stroke-miterlimit="10"/><g fill="#232323" transform="translate(-96 -308.3)"><use height="100%" width="100%" y="440.8" x="137.8" xlink:href="#c"/><use height="100%" width="100%" y="440.8" x="141.1" xlink:href="#d"/></g><use height="100%" width="100%" y="406.3" x="140.8" xlink:href="#e" fill="#232323" transform="translate(-96 -308.3)"/><use height="100%" width="100%" y="371.8" x="140.8" xlink:href="#d" fill="#232323" transform="translate(-96 -308.3)"/><use height="100%" width="100%" y="337.3" x="140.8" xlink:href="#f" fill="#232323" transform="translate(-96 -308.3)"/><g transform="translate(-96 -308.3)"><use height="100%" width="100%" y="321.2" x="398.6" xlink:href="#a"/><use height="100%" width="100%" y="321.2" x="406" xlink:href="#g"/></g><path d="M332.5 87l5.4 5.4 8.3-5.4M304.3 73.2l5.5 8 14 2.2 8.7 3.6M346.2 87l5.9-3.8 10.1-10M311.7 59.4l-2 5.7-5.4 8.1M362.2 73.2l4-11.5 1.1-2.3M307.4 45.6l2.4 2.3 2 11.5M367.3 59.4l-1.2-2.3-3.9-11.5M308.6 31.8l-1.2 13.8M335.6 31.8l-11.7 2-11.8-2M362.2 45.6l-2-13.8M312.1 31.8l-2.3-1.2-1.2 1.2M360.3 31.8l-8.2-5.4-14.2 4.2-2.3 1.2" fill="none" stroke="#3a23a6" stroke-width="1.125" stroke-linejoin="round" stroke-miterlimit="10"/><path d="M312.1 73.2l11.8 6.6 14 5.7 14.2-10.8 1.5-1.5M316 59.4l-3.9 13.8M353.6 73.2l10-13.8M314.4 45.6l1.6 13.8M363.5 59.4l-9.9-13.8M353.6 45.6l-1.5-4.6-14.2-6.6-14 3.5-9.5 7.7" fill="none" stroke="#307afa" stroke-width="1.125" stroke-linejoin="round" stroke-miterlimit="10"/><path d="M318.6 73.2l5.3 3 14 5 10-8M320.3 59.4l-1.7 13.8M347.8 73.2l4.3-3 8.6-10.8M319.6 45.6l.7 13.8M360.7 59.4L352 48.6l-3-3M349 45.6l-11-8.4-14.1 5-4.3 3.4" fill="none" stroke="#17bdb3" stroke-width="1.125" stroke-linejoin="round" stroke-miterlimit="10"/><path d="M326.2 73.2l11.7 3.8 4.7-3.8M328.6 59.4l-2.4 13.8M342.6 73.2l9.5-6.6 5.7-7.2M325 45.6l3.6 13.8M357.8 59.4l-5.7-7.2-6.8-6.6M345.3 45.6L338 40 325 45.6" fill="none" stroke="#cfbd26" stroke-width="1.125" stroke-linejoin="round" stroke-miterlimit="10"/><path d="M343.4 59.4l8.7 3.6 2.8-3.6M331.5 45.6l6.4 8.4 3.7-8.4M355 59.4l-3-3.6-8.6 3.6M341.6 45.6l-3.7-2.8-6.4 2.8" fill="none" stroke="#f8fa11" stroke-width="1.125" stroke-linejoin="round" stroke-miterlimit="10"/><path d="M239.3 156h141M239.3 18h141M267.4 156v-1.4M302.7 156v-1.4M338 156v-1.4M373.2 156v-1.4M267.4 18v1.4M302.7 18v1.4M338 18v1.4M373.2 18v1.4" fill="none" stroke="#232323" stroke-width=".5249999999999999" stroke-linecap="square" stroke-linejoin="round" stroke-miterlimit="10"/><g fill="#232323" transform="translate(-96 -308.3)"><use height="100%" width="100%" y="478.8" x="359" xlink:href="#c"/><use height="100%" width="100%" y="478.8" x="362.3" xlink:href="#d"/></g><use height="100%" width="100%" y="478.8" x="395.7" xlink:href="#e" fill="#232323" transform="translate(-96 -308.3)"/><use height="100%" width="100%" y="478.8" x="431" xlink:href="#d" fill="#232323" transform="translate(-96 -308.3)"/><use height="100%" width="100%" y="478.8" x="466.2" xlink:href="#f" fill="#232323" transform="translate(-96 -308.3)"/><path d="M239.3 156V18M380.3 156V18M239.3 128.4h1.4M239.3 93.9h1.4M239.3 59.4h1.4M239.3 24.9h1.4M380.3 128.4h-1.5M380.3 93.9h-1.5M380.3 59.4h-1.5M380.3 24.9h-1.5" fill="none" stroke="#232323" stroke-width=".5249999999999999" stroke-linecap="square" stroke-linejoin="round" stroke-miterlimit="10"/><g fill="#232323" transform="translate(-96 -308.3)"><use height="100%" width="100%" y="440.8" x="322.3" xlink:href="#c"/><use height="100%" width="100%" y="440.8" x="325.6" xlink:href="#d"/></g><use height="100%" width="100%" y="406.3" x="325.3" xlink:href="#e" fill="#232323" transform="translate(-96 -308.3)"/><use height="100%" width="100%" y="371.8" x="325.3" xlink:href="#d" fill="#232323" transform="translate(-96 -308.3)"/><use height="100%" width="100%" y="337.3" x="325.3" xlink:href="#f" fill="#232323" transform="translate(-96 -308.3)"/></svg>