<svg xmlns="http://www.w3.org/2000/svg" xmlns:xlink="http://www.w3.org/1999/xlink" version="1.2" viewBox="0 0 334.9 159.9" height="213.3" width="446.6"><defs><symbol id="a" overflow="visible"><path d="M.3-2.2V-3H3v.8zm0 0"/></symbol><symbol id="b" overflow="visible"><path d="M5-.8V0H.3l.1-.6c.1-.3.3-.7.6-1l1.1-1 1.6-1.6c.3-.3.4-.7.4-1 0-.4-.1-.7-.3-.9-.3-.2-.6-.4-1-.4s-.8.2-1 .4c-.3.3-.4.6-.4 1h-1c.1-.7.4-1.2.8-1.6.4-.3 1-.5 1.6-.5.7 0 1.2.2 1.6.6.4.4.6.8.6 1.4 0 .3 0 .6-.2.9 0 .2-.3.5-.5.8L2.9-2.2A14.3 14.3 0 001.5-.8zm0 0"/></symbol><symbol id="c" overflow="visible"><path d="M3.7 0h-.9v-5.6a4.8 4.8 0 01-1.7 1v-.8l1.3-.8.8-1h.5zm0 0"/></symbol><symbol id="d" overflow="visible"><path d="M.4-3.5c0-.9.1-1.6.3-2 .1-.6.4-1 .8-1.3a2 2 0 011.3-.4c.3 0 .7 0 1 .2l.7.7.4 1 .2 1.8c0 .8-.1 1.5-.3 2-.2.5-.4 1-.8 1.2a2 2 0 01-1.3.4 2 2 0 01-1.6-.7c-.4-.6-.7-1.6-.7-3zm1 0c0 1.1 0 2 .3 2.3.3.4.6.6 1 .6.5 0 .8-.2 1-.6.3-.4.5-1.2.5-2.3 0-1.2-.2-2-.4-2.4-.3-.4-.7-.6-1-.6-.5 0-.8.2-1 .5-.3.5-.5 1.3-.5 2.5zm0 0"/></symbol><symbol id="e" overflow="visible"><path d="M.4-1.9l.9-.1c.1.5.3.9.5 1 .3.3.5.4.9.4s.8-.1 1-.4c.3-.3.5-.7.5-1 0-.5-.2-.8-.4-1-.3-.4-.6-.5-1-.5l-.6.1v-.8h.2c.4 0 .7 0 1-.2.3-.2.5-.5.5-1a1 1 0 00-.4-.7c-.2-.3-.5-.4-.8-.4-.4 0-.6.1-.9.4-.2.2-.3.5-.4 1l-.9-.2c.1-.6.4-1 .7-1.4.4-.3.9-.5 1.5-.5.4 0 .7.1 1 .3.4.1.6.4.8.7.2.2.3.6.3.9 0 .3-.1.6-.3.8-.2.3-.4.5-.7.6.4.1.7.3 1 .6.2.3.3.7.3 1.2 0 .6-.2 1.1-.7 1.6-.4.4-1 .6-1.7.6-.6 0-1.2-.2-1.6-.5C.7-.8.5-1.3.4-2zm0 0"/></symbol><symbol id="f" overflow="visible"><path d="M3.2 0v-1.7h-3v-.8l3.2-4.7H4v4.7h1v.8H4V0zm0-2.5v-3.3L1-2.5zm0 0"/></symbol><symbol id="g" overflow="visible"><path d="M.4-1.9h1c0 .4.2.7.4 1 .3.2.6.3 1 .3.3 0 .7-.2 1-.5.3-.3.4-.7.4-1.2s-.1-1-.4-1.2A1.5 1.5 0 002-3.7c-.2 0-.4.2-.5.4H.6l.7-3.8h3.5v.9H2l-.4 1.9c.4-.3.9-.5 1.3-.5.7 0 1.2.3 1.6.7a2.6 2.6 0 010 3.3c-.4.6-1 1-1.8 1-.6 0-1.2-.3-1.6-.6C.7-.8.5-1.3.4-2zm0 0"/></symbol><symbol id="h" overflow="visible"><path d="M5-5.4H4c0-.3-.2-.5-.3-.7-.3-.2-.6-.4-1-.4l-.6.3a2 2 0 00-.7.9c-.2.3-.2.9-.3 1.6a2 2 0 011.8-1c.6 0 1 .3 1.5.7.4.4.6 1 .6 1.7 0 .4 0 .8-.3 1.2a2.2 2.2 0 01-2 1.2C2.2.1 1.6 0 1.2-.7.6-1.2.4-2 .4-3.3c0-1.4.2-2.4.7-3 .5-.6 1-.9 1.8-.9.6 0 1 .2 1.4.5.4.3.6.7.7 1.3zm-3.6 3c0 .4 0 .7.2 1a1.4 1.4 0 001.2.8c.4 0 .7-.1 1-.4.3-.3.4-.8.4-1.3s-.1-.9-.4-1.1c-.3-.3-.6-.5-1-.5s-.7.2-1 .5c-.3.2-.4.6-.4 1zm0 0"/></symbol><symbol id="i" overflow="visible"><path d="M1 0v-1h1v1zm0 0"/></symbol></defs><path d="M31 135.3h291M31 13h291M31 135.3v-2.9M67.3 135.3v-2.9M103.7 135.3v-2.9M140 135.3v-2.9M176.4 135.3v-2.9M212.8 135.3v-2.9M249.2 135.3v-2.9M285.6 135.3v-2.9M322 135.3v-2.9M31 13v3M67.3 13v3M103.7 13v3M140 13v3M176.4 13v3M212.8 13v3M249.2 13v3M285.6 13v3M322 13v3" fill="none" stroke="#232323" stroke-width=".5249999999999999" stroke-linecap="square" stroke-linejoin="round" stroke-miterlimit="10"/><g fill="#232323" transform="translate(-136.3 -319.2)"><use height="100%" width="100%" y="469" x="162.8" xlink:href="#a"/><use height="100%" width="100%" y="469" x="166.1" xlink:href="#b"/></g><g fill="#232323" transform="translate(-136.3 -319.2)"><use height="100%" width="100%" y="469" x="199.1" xlink:href="#a"/><use height="100%" width="100%" y="469" x="202.5" xlink:href="#c"/></g><use height="100%" width="100%" y="469" x="237" xlink:href="#d" fill="#232323" transform="translate(-136.3 -319.2)"/><use height="100%" width="100%" y="469" x="273.4" xlink:href="#c" fill="#232323" transform="translate(-136.3 -319.2)"/><use height="100%" width="100%" y="469" x="309.8" xlink:href="#b" fill="#232323" transform="translate(-136.3 -319.2)"/><use height="100%" width="100%" y="469" x="346.1" xlink:href="#e" fill="#232323" transform="translate(-136.3 -319.2)"/><use height="100%" width="100%" y="469" x="382.5" xlink:href="#f" fill="#232323" transform="translate(-136.3 -319.2)"/><use height="100%" width="100%" y="469" x="418.9" xlink:href="#g" fill="#232323" transform="translate(-136.3 -319.2)"/><use height="100%" width="100%" y="469" x="455.3" xlink:href="#h" fill="#232323" transform="translate(-136.3 -319.2)"/><path d="M31 135.3V13.1M322 135.3V13.1M31 135.3h2.8M31 94.6h2.8M31 53.8h2.8M31 13h2.8M322 135.3h-3M322 94.6h-3M322 53.8h-3M322 13h-3" fill="none" stroke="#232323" stroke-width=".5249999999999999" stroke-linecap="square" stroke-linejoin="round" stroke-miterlimit="10"/><g fill="#232323" transform="translate(-136.3 -319.2)"><use height="100%" width="100%" y="458.6" x="146" xlink:href="#a"/><use height="100%" width="100%" y="458.6" x="149.3" xlink:href="#d"/><use height="100%" width="100%" y="458.6" x="154.9" xlink:href="#i"/><use height="100%" width="100%" y="458.6" x="157.7" xlink:href="#b"/></g><use height="100%" width="100%" y="417.9" x="157.3" xlink:href="#d" fill="#232323" transform="translate(-136.3 -319.2)"/><g fill="#232323" transform="translate(-136.3 -319.2)"><use height="100%" width="100%" y="377.1" x="149" xlink:href="#d"/><use height="100%" width="100%" y="377.1" x="154.6" xlink:href="#i"/><use height="100%" width="100%" y="377.1" x="157.3" xlink:href="#b"/></g><g fill="#232323" transform="translate(-136.3 -319.2)"><use height="100%" width="100%" y="336.4" x="149" xlink:href="#d"/><use height="100%" width="100%" y="336.4" x="154.6" xlink:href="#i"/><use height="100%" width="100%" y="336.4" x="157.3" xlink:href="#f"/></g><path d="M31 91.3v14.3M35.9 91.8v22.7M40.8 93v19M45.7 97.8v22.4M50.7 95.5V116M55.6 93.5v13.2M60.5 93.8v8.9M65.5 96v5.4M70.4 91.4v9.9M75.3 95.8v12.8M80.3 93.8V107M85.2 90.4v24M90.1 91v23M95 95v16.2M100 93v16M105 84.5v6.4M109.9 69.7V82M114.8 53v23.4M119.7 44v8.4M124.6 42.3v7.6M129.6 41v11.2M134.5 44.7v16.7M139.4 49.5v13M144.4 51.3v12.5M149.3 49.8v9.9M154.2 56.3v22.5M159.2 58.2v18M164.1 65.3v6.2M169 70v5.8M174 73.6v4.3M178.9 71.5v22.8M183.8 79v11.6M188.8 73.8v12.7M193.7 76.5v15.8M198.6 80v8M203.6 80.2v4.5M208.5 84v17.5M213.4 88.8v13.4M218.4 86.5v8.1M223.3 88.6v8.1M228.2 85.6v18.2M233.2 88.2v19.3M238 88.8v15.1M243 91v14.8M248 92.6V105M252.9 90.7V106M257.8 92.6v19M262.7 89.2v10M267.7 93v20.2M272.6 94.2v5.7M277.5 93.3V107M282.5 90.9V103M287.4 94.4v22.7M292.3 93.6v12.8M297.3 96.6v23.3M302.2 93.4v12.4M307.1 94.6v9M312 94.8v21.9M317 93.7v14.1M322 94v12.7M31 91.3V77.1M35.9 91.8V69.2M40.8 93V74.2M45.7 97.8V75.4M50.7 95.5V75M55.6 93.5V80.3M60.5 93.8V85M65.5 96v-5.5M70.4 91.4v-9.8M75.3 95.8v-13M80.3 93.8V80.4M85.2 90.4v-24M90.1 91V68M95 95V78.7M100 93V77M105 84.5V78M109.9 69.7V57.5M114.8 53V29.9M119.7 44v-8.5M124.6 42.3v-7.5M129.6 41V30M134.5 44.7V28M139.4 49.5v-13M144.4 51.3V38.7M149.3 49.8v-9.9M154.2 56.3V33.8M159.2 58.2v-18M164.1 65.3v-6.2M169 70v-5.7M174 73.6v-4.3M178.9 71.5V48.7M183.8 79V67.4M188.8 73.8V61.2M193.7 76.5V60.7M198.6 80v-7.8M203.6 80.2v-4.5M208.5 84V66.5M213.4 88.8V75.4M218.4 86.5v-8.2M223.3 88.6v-8M228.2 85.6V67.4M233.2 88.2V69M238 88.8V73.6M243 91V76.2M248 92.6V80.2M252.9 90.7V75.3M257.8 92.6v-19M262.7 89.2v-10M267.7 93V73M272.6 94.2v-5.6M277.5 93.3V79.6M282.5 90.9V78.7M287.4 94.4V71.8M292.3 93.6V80.8M297.3 96.6V73.3M302.2 93.4V81.1M307.1 94.6v-9M312 94.8V73M317 93.7V79.6M322 94V81.3M31 91.3l4.9.5 4.9 1.3 5 4.7 4.9-2.3 4.9-2 5 .3 4.9 2.1 4.9-4.5 5 4.4 4.9-2 4.9-3.4 5 .5 4.9 4 4.9-2 5-8.4 4.9-14.8 4.9-16.6 5-9.2 4.8-1.6 5-1.2 5 3.6 4.8 4.8 5 1.8 5-1.5 4.8 6.5 5 1.9 5 7.1 4.8 4.8 5 3.5 4.9-2.1 5 7.5 4.9-5.2 4.9 2.7 5 3.6h4.9l4.9 3.9 5 4.8 4.9-2.3 4.9 2.1 5-3 4.9 2.6 4.9.6 5 2.2 4.9 1.6 4.9-2 5 2 4.8-3.4 5 3.9 5 1.1 4.8-.9 5-2.4 5 3.5 4.8-.8 5 3 5-3.2 4.8 1.2 5 .2 4.9-1.1 5 .3" fill="none" stroke="#0070bd" stroke-width=".5249999999999999" stroke-linejoin="round" stroke-miterlimit="10"/><path d="M28 105.6h6M32.9 114.5h6M37.8 112h6M42.7 120.2h6M47.7 116h6M52.6 106.7h6M57.5 102.7h6M62.5 101.4h6M67.4 101.3h6M72.3 108.6h6M77.3 107.1h6M82.2 114.4h6M87.1 114h6M92 111.2h6M97 109h6M102 90.9h6M106.9 82h6M111.8 76.4h6M116.7 52.4h6M121.6 49.9h6M126.6 52.2h6M131.5 61.4h6M136.4 62.5h6M141.4 63.8h6M146.3 59.7h6M151.2 78.8h6M156.2 76.1h6M161.1 71.5h6M166 75.8h6M171 78h6M175.9 94.3h6M180.8 90.6h6M185.8 86.5h6M190.7 92.3h6M195.6 88h6M200.6 84.7h6M205.5 101.5h6M210.4 102.2h6M215.4 94.6h6M220.3 96.7h6M225.2 103.8h6M230.2 107.5h6M235 104h6M240 105.8h6M245 105h6M249.9 106.1h6M254.8 111.5h6M259.7 99.2h6M264.7 113.2h6M269.6 99.9h6M274.5 107h6M279.5 103h6M284.4 117h6M289.3 106.4h6M294.3 120h6M299.2 105.8h6M304.1 103.6h6M309 116.7h6M314 107.8h6M319 106.7h6M28 77h6M32.9 69.2h6M37.8 74.1h6M42.7 75.4h6M47.7 75h6M52.6 80.3h6M57.5 85h6M62.5 90.5h6M67.4 81.6h6M72.3 82.9h6M77.3 80.4h6M82.2 66.4h6M87.1 68h6M92 78.7h6M97 77h6M102 78.1h6M106.9 57.5h6M111.8 29.8h6M116.7 35.5h6M121.6 34.8h6M126.6 30h6M131.5 28h6M136.4 36.6h6M141.4 38.7h6M146.3 39.9h6M151.2 33.8h6M156.2 40.2h6M161.1 59.1h6M166 64.3h6M171 69.3h6M175.9 48.7h6M180.8 67.4h6M185.8 61.2h6M190.7 60.7h6M195.6 72.2h6M200.6 75.7h6M205.5 66.5h6M210.4 75.4h6M215.4 78.3h6M220.3 80.5h6M225.2 67.4h6M230.2 69h6M235 73.6h6M240 76.2h6M245 80.2h6M249.9 75.3h6M254.8 73.6h6M259.7 79.1h6M264.7 73h6M269.6 88.6h6M274.5 79.6h6M279.5 78.7h6M284.4 71.8h6M289.3 80.8h6M294.3 73.3h6M299.2 81.1h6M304.1 85.6h6M309 73h6M314 79.6h6M319 81.3h6" fill="none" stroke="#0070bd" stroke-miterlimit="10" stroke-width=".75"/><path d="M31 94.3v13.6M35.9 96.6v9.8M40.8 97.6V110M45.7 95.9v14.8M50.7 94.4v7.4M55.6 92.2v8M60.5 92V108M65.5 93.6v16M70.4 92.1v8.7M75.3 89.2v9M80.3 93.2V108M85.2 92.6v14.3M90.1 95.2v9.9M95 92.1v9.8M100 96.9v8.9M105 95.2v8.8M109.9 96.3v16.3M114.8 95.7v6.6M119.7 90.5v13M124.6 95v11.2M129.6 95.4v7.3M134.5 92.4v10.8M139.4 95.2v13.4M144.4 73.7v15.9M149.3 58v11.5M154.2 51.8v15.6M159.2 46v16.2M164.1 39.7v10.9M169 43.8v9.9M174 44v7M178.9 46v14.7M183.8 50.6v10.3M188.8 54.9v13.8M193.7 56v11.7M198.6 64.6v11M203.6 62.7v8.9M208.5 72.6V80M213.4 73.7v6.9M218.4 74.5v14.8M223.3 76.2v9.5M228.2 81.5v13M233.2 78.4v7.2M238 81.9v12M243 85.5v7.3M248 87v8.7M252.9 87.8V98M257.8 88.6V102M262.7 88v15M267.7 88.8v14.4M272.6 90.6V99M277.5 90.2v9.6M282.5 92v15.8M287.4 90.7v9.2M292.3 88.3V96M297.3 90.1v13.7M302.2 93v9M307.1 92.2v9.5M312 93.1v6.1M317 93.9v11.8M322 93.8v10.7M31 94.3V80.6M35.9 96.6v-9.8M40.8 97.6V85M45.7 95.9V81M50.7 94.4v-7.3M55.6 92.2v-7.9M60.5 92V76.4M65.5 93.6V77.5M70.4 92.1v-8.7M75.3 89.2v-9M80.3 93.2V78.6M85.2 92.6V78.3M90.1 95.2v-9.9M95 92.1v-9.8M100 96.9V88M105 95.2v-8.7M109.9 96.3V80.1M114.8 95.7v-6.6M119.7 90.5v-13M124.6 95V83.8M129.6 95.4v-7.2M134.5 92.4V81.6M139.4 95.2V81.8M144.4 73.7v-16M149.3 58V46.5M154.2 51.8V36.2M159.2 46V30M164.1 39.7V29M169 43.8V34M174 44v-7M178.9 46V31.3M183.8 50.6V40.2M188.8 54.9V41.1M193.7 56V44.2M198.6 64.6v-11M203.6 62.7V54M208.5 72.6V65M213.4 73.7v-7M218.4 74.5V59.8M223.3 76.2v-9.6M228.2 81.5v-13M233.2 78.4v-7.2M238 81.9V69.8M243 85.5v-7.3M248 87v-8.6M252.9 87.8V77.5M257.8 88.6V75.2M262.7 88V73.2M267.7 88.8V74.3M272.6 90.6V82M277.5 90.2v-9.6M282.5 92V76M287.4 90.7v-9.2M292.3 88.3v-7.7M297.3 90.1V76.4M302.2 93v-9M307.1 92.2v-9.4M312 93.1V87M317 93.9V82M322 93.8V83.2M31 94.3l4.9 2.3 4.9 1 5-1.7 4.9-1.5 4.9-2.2 5-.1 4.9 1.5 4.9-1.5 5-3 4.9 4.1 4.9-.6 5 2.6L95 92l4.9 4.8 5-1.7 4.9 1.1 4.9-.6 5-5.2 4.8 4.5 5 .4 5-3 4.8 2.8 5-21.5 5-15.7 4.8-6.2 5-5.7 5-6.4 4.8 4.1 5 .3 4.9 1.9 5 4.6 4.9 4.3 4.9 1 5 8.7 4.9-1.9 4.9 9.9 5 1 4.9 1 4.9 1.6 5 5.3 4.9-3 4.9 3.4 5 3.6 4.9 1.6 4.9.7 5 .8 4.8-.5 5 .7 5 1.8 4.8-.4 5 1.7 5-1.2 4.8-2.4 5 1.8 5 3 4.8-.9 5 1 4.9.7h5" fill="none" stroke="#d95117" stroke-width=".5249999999999999" stroke-linejoin="round" stroke-miterlimit="10"/><path d="M28 108h6M32.9 106.4h6M37.8 110h6M42.7 110.7h6M47.7 101.8h6M52.6 100.1h6M57.5 107.9h6M62.5 109.6h6M67.4 100.8h6M72.3 98.2h6M77.3 107.9h6M82.2 106.9h6M87.1 105h6M92 102h6M97 105.8h6M102 104h6M106.9 112.6h6M111.8 102.3h6M116.7 103.5h6M121.6 106.2h6M126.6 102.7h6M131.5 103.3h6M136.4 108.6h6M141.4 89.6h6M146.3 69.5h6M151.2 67.4h6M156.2 62.2h6M161.1 50.6h6M166 53.7h6M171 51h6M175.9 60.7h6M180.8 60.9h6M185.8 68.7h6M190.7 67.7h6M195.6 75.5h6M200.6 71.6h6M205.5 80h6M210.4 80.6h6M215.4 89.3h6M220.3 85.7h6M225.2 94.4h6M230.2 85.6h6M235 94h6M240 92.8h6M245 95.7h6M249.9 98.1h6M254.8 102h6M259.7 103h6M264.7 103.2h6M269.6 99h6M274.5 99.8h6M279.5 107.8h6M284.4 99.9h6M289.3 96h6M294.3 103.8h6M299.2 102h6M304.1 101.7h6M309 99.2h6M314 105.7h6M319 104.5h6M28 80.6h6M32.9 86.8h6M37.8 85h6M42.7 81h6M47.7 87h6M52.6 84.3h6M57.5 76.3h6M62.5 77.5h6M67.4 83.4h6M72.3 80.2h6M77.3 78.6h6M82.2 78.3h6M87.1 85.3h6M92 82.3h6M97 88h6M102 86.5h6M106.9 80h6M111.8 89.1h6M116.7 77.5h6M121.6 83.8h6M126.6 88.2h6M131.5 81.6h6M136.4 81.8h6M141.4 57.8h6M146.3 46.5h6M151.2 36.2h6M156.2 29.9h6M161.1 28.9h6M166 34h6M171 37h6M175.9 31.3h6M180.8 40.2h6M185.8 41h6M190.7 44.2h6M195.6 53.6h6M200.6 53.9h6M205.5 65h6M210.4 66.8h6M215.4 59.8h6M220.3 66.6h6M225.2 68.5h6M230.2 71.2h6M235 69.8h6M240 78.2h6M245 78.4h6M249.9 77.5h6M254.8 75.2h6M259.7 73.1h6M264.7 74.3h6M269.6 82.1h6M274.5 80.6h6M279.5 76h6M284.4 81.5h6M289.3 80.6h6M294.3 76.4h6M299.2 84h6M304.1 82.8h6M309 87h6M314 82h6M319 83.2h6" fill="none" stroke="#d95117" stroke-miterlimit="10" stroke-width=".75"/></svg>