<svg xmlns="http://www.w3.org/2000/svg" xmlns:xlink="http://www.w3.org/1999/xlink" version="1.2" viewBox="0 0 440 335" height="335pt" width="440pt"><defs><symbol id="b" overflow="visible"><path d="M.3-2.2V-3H3v.8zm0 0"/></symbol><symbol id="c" overflow="visible"><path d="M3.2 0v-1.7h-3v-.8l3.2-4.7H4v4.7h1v.8H4V0zm0-2.5v-3.3L1-2.5zm0 0"/></symbol><symbol id="d" overflow="visible"><path d="M.4-1.9l.9-.1c.1.5.3.9.5 1 .3.3.5.4.9.4s.8-.1 1-.4c.3-.3.5-.7.5-1 0-.5-.2-.8-.4-1-.3-.4-.6-.5-1-.5l-.6.1v-.8h.2c.4 0 .7 0 1-.2.3-.2.5-.5.5-1a1 1 0 00-.4-.7c-.2-.3-.5-.4-.8-.4-.4 0-.6.1-.9.4-.2.2-.3.5-.4 1l-.9-.2c.1-.6.4-1 .7-1.4.4-.3.9-.5 1.5-.5.4 0 .7.1 1 .3.4.1.6.4.8.7.2.2.3.6.3.9 0 .3-.1.6-.3.8-.2.3-.4.5-.7.6.4.1.7.3 1 .6.2.3.3.7.3 1.2 0 .6-.2 1.1-.7 1.6-.4.4-1 .6-1.7.6-.6 0-1.2-.2-1.6-.5C.7-.8.5-1.3.4-2zm0 0"/></symbol><symbol id="e" overflow="visible"><path d="M5-.8V0H.3l.1-.6c.1-.3.3-.7.6-1l1.1-1 1.6-1.6c.3-.3.4-.7.4-1 0-.4-.1-.7-.3-.9-.3-.2-.6-.4-1-.4s-.8.2-1 .4c-.3.3-.4.6-.4 1h-1c.1-.7.4-1.2.8-1.6.4-.3 1-.5 1.6-.5.7 0 1.2.2 1.6.6.4.4.6.8.6 1.4 0 .3 0 .6-.2.9 0 .2-.3.5-.5.8L2.9-2.2A14.3 14.3 0 001.5-.8zm0 0"/></symbol><symbol id="f" overflow="visible"><path d="M3.7 0h-.9v-5.6a4.8 4.8 0 01-1.7 1v-.8l1.3-.8.8-1h.5zm0 0"/></symbol><symbol id="g" overflow="visible"><path d="M.4-3.5c0-.9.1-1.6.3-2 .1-.6.4-1 .8-1.3a2 2 0 011.3-.4c.3 0 .7 0 1 .2l.7.7.4 1 .2 1.8c0 .8-.1 1.5-.3 2-.2.5-.4 1-.8 1.2a2 2 0 01-1.3.4 2 2 0 01-1.6-.7c-.4-.6-.7-1.6-.7-3zm1 0c0 1.1 0 2 .3 2.3.3.4.6.6 1 .6.5 0 .8-.2 1-.6.3-.4.5-1.2.5-2.3 0-1.2-.2-2-.4-2.4-.3-.4-.7-.6-1-.6-.5 0-.8.2-1 .5-.3.5-.5 1.3-.5 2.5zm0 0"/></symbol><symbol id="h" overflow="visible"><path d="M.4-1.9h1c0 .4.2.7.4 1 .3.2.6.3 1 .3.3 0 .7-.2 1-.5.3-.3.4-.7.4-1.2s-.1-1-.4-1.2A1.5 1.5 0 002-3.7c-.2 0-.4.2-.5.4H.6l.7-3.8h3.5v.9H2l-.4 1.9c.4-.3.9-.5 1.3-.5.7 0 1.2.3 1.6.7a2.6 2.6 0 010 3.3c-.4.6-1 1-1.8 1-.6 0-1.2-.3-1.6-.6C.7-.8.5-1.3.4-2zm0 0"/></symbol><symbol id="i" overflow="visible"><path d="M5-5.4H4c0-.3-.2-.5-.3-.7-.3-.2-.6-.4-1-.4l-.6.3a2 2 0 00-.7.9c-.2.3-.2.9-.3 1.6a2 2 0 011.8-1c.6 0 1 .3 1.5.7.4.4.6 1 .6 1.7 0 .4 0 .8-.3 1.2a2.2 2.2 0 01-2 1.2C2.2.1 1.6 0 1.2-.7.6-1.2.4-2 .4-3.3c0-1.4.2-2.4.7-3 .5-.6 1-.9 1.8-.9.6 0 1 .2 1.4.5.4.3.6.7.7 1.3zm-3.6 3c0 .4 0 .7.2 1a1.4 1.4 0 001.2.8c.4 0 .7-.1 1-.4.3-.3.4-.8.4-1.3s-.1-.9-.4-1.1c-.3-.3-.6-.5-1-.5s-.7.2-1 .5c-.3.2-.4.6-.4 1zm0 0"/></symbol><symbol id="j" overflow="visible"><path d="M1.8-3.9C1.4-4 1-4.2 1-4.5.8-4.7.7-5 .7-5.3c0-.6.2-1 .6-1.4.3-.3.8-.5 1.4-.5a2 2 0 011.5.6c.4.3.6.8.6 1.3 0 .3 0 .6-.2.9l-.8.5c.4.2.8.4 1 .7.2.3.3.7.3 1.2a2 2 0 01-.6 1.5c-.5.4-1 .6-1.7.6S1.5 0 1-.5C.6-.9.4-1.5.4-2.1c0-.4.1-.8.3-1.1.3-.4.6-.6 1-.7zm-.2-1.5c0 .4.1.7.3.9.2.2.5.3.9.3.3 0 .6-.1.8-.3.2-.3.3-.5.3-.8a1 1 0 00-.3-.8c-.2-.3-.5-.4-.8-.4-.4 0-.7.1-.9.4a1 1 0 00-.3.7zM1.3-2c0 .3 0 .5.2.8l.5.5.8.2A1.4 1.4 0 004.2-2c0-.5-.1-.8-.4-1-.3-.4-.6-.5-1-.5a1.4 1.4 0 00-1.5 1.4zm0 0"/></symbol><clipPath id="a"><path d="M96 238.5h420v315H96zm0 0"/></clipPath></defs><g clip-path="url(#a)" transform="translate(-86 -228.5)"><path d="M96 238.5h420v315H96zm0 0" fill="#fff"/></g><path d="M10 10h420v315H10zm0 0" fill="#fff"/><path d="M64.8 290.5h325.4V33.2H64.9zm0 0" fill="#fff"/><path d="M87.5 290.5V285h9.8v5.5zm0 0M97.3 290.5v-1.8h9.8v1.8zm0 0" fill="#0070bd" fill-opacity=".6"/><path d="M107 290.5v-3.7h9.8v3.7zm0 0M116.8 290.5v-27.6h9.8v27.6zm0 0M126.6 290.5v-31.2h9.8v31.2zm0 0M136.4 290.5v-49.6h9.7v49.6zm0 0M146.1 290.5v-97.4h9.8v97.4zm0 0M155.9 290.5V145.3h9.8v145.2zm0 0" fill="#0070bd" fill-opacity=".6"/><path d="M165.7 290.5V134.3h9.7v156.2zm0 0M175.4 290.5V104.9h9.8v185.6zm0 0" fill="#0070bd" fill-opacity=".6"/><path d="M185.2 290.5V57.1h9.7v233.4zm0 0M195 290.5V88.4h9.7v202.1zm0 0M204.7 290.5V62.6h9.8v227.9zm0 0M214.5 290.5V115.9h9.7v174.6zm0 0M224.2 290.5V167.4h9.8v123.1zm0 0M234 290.5v-58.8h9.8v58.8zm0 0M243.8 290.5v-49.6h9.7v49.6zm0 0M253.5 290.5v-29.4h9.8v29.4zm0 0M263.3 290.5v-11h9.8v11zm0 0" fill="#0070bd" fill-opacity=".6"/><path d="M273 290.5v-11h9.8v11zm0 0M282.8 290.5v-7.4h9.8v7.4zm0 0M292.6 290.5v-1.8h9.8v1.8zm0 0" fill="#0070bd" fill-opacity=".6"/><path d="M302.4 290.5v-3.7h9.7v3.7zm0 0" fill="#0070bd" fill-opacity=".6"/><path d="M87.5 290.5V285h9.8v5.5M97.3 288.7h9.8M107 290.5v-3.7h9.8M116.8 290.5v-27.6h9.8M126.6 290.5v-31.2h9.8M136.4 290.5v-49.6h9.7M146.1 290.5v-97.4h9.8M155.9 290.5V145.3h9.8" fill="none" stroke="#000" stroke-width=".5249999999999999" stroke-linecap="square" stroke-miterlimit="10"/><path d="M165.7 290.5V134.3h9.7M175.4 290.5V104.9h9.8" fill="none" stroke="#000" stroke-width=".5249999999999999" stroke-linecap="square" stroke-miterlimit="10"/><path d="M185.2 290.5V57.1h9.7v233.4M195 88.4h9.7M204.7 290.5V62.6h9.8v227.9M214.5 116h9.7v174.5M224.2 167.4h9.8v123.1M234 231.7h9.8v58.8M243.8 240.9h9.7v49.6M253.5 261.1h9.8v29.4M263.3 279.5h9.8v11" fill="none" stroke="#000" stroke-width=".5249999999999999" stroke-linecap="square" stroke-miterlimit="10"/><path d="M273 279.5h9.8v11M282.8 283.1h9.8v7.4M292.6 288.7h9.8M302.4 290.5v-3.7h9.7v3.7" fill="none" stroke="#000" stroke-width=".5249999999999999" stroke-linecap="square" stroke-miterlimit="10"/><path d="M165.7 290.5v-3.7h9.7v3.7zm0 0M175.4 290.5v-7.4h9.8v7.4zm0 0" fill="#d95117" fill-opacity=".6"/><path d="M185.2 290.5v-31.2h9.7v31.2zm0 0M195 290.5v-42.3h9.7v42.3zm0 0M204.7 290.5v-64.3h9.8v64.3zm0 0M214.5 290.5v-99.2h9.7v99.2zm0 0M224.2 290.5V160h9.8v130.5zm0 0M234 290.5V104.9h9.8v185.6zm0 0M243.8 290.5V130.6h9.7v159.9zm0 0M253.5 290.5V57.1h9.8v233.4zm0 0M263.3 290.5V59h9.8v231.5zm0 0" fill="#d95117" fill-opacity=".6"/><path d="M273 290.5V106.7h9.8v183.8zm0 0M282.8 290.5V119.6h9.8v170.9zm0 0M292.6 290.5V160h9.8v130.5zm0 0" fill="#d95117" fill-opacity=".6"/><path d="M302.4 290.5v-58.8h9.7v58.8zm0 0M312.1 290.5v-57h9.8v57zm0 0" fill="#d95117" fill-opacity=".6"/><path d="M321.9 290.5v-27.6h9.8v27.6zm0 0M331.7 290.5v-9.2h9.7v9.2zm0 0M341.4 290.5V285h9.8v5.5zm0 0M351.2 290.5v-3.7h9.8v3.7zm0 0M361 290.5v-1.8h9.7v1.8zm0 0" fill="#d95117" fill-opacity=".6"/><path d="M165.7 290.5v-3.7h9.7M175.4 290.5v-7.4h9.8" fill="none" stroke="#000" stroke-width=".5249999999999999" stroke-linecap="square" stroke-miterlimit="10"/><path d="M185.2 290.5v-31.2h9.7M195 290.5v-42.3h9.7M204.7 290.5v-64.3h9.8M214.5 290.5v-99.2h9.7M224.2 290.5V160h9.8M234 290.5V104.9h9.8v185.6M243.8 130.6h9.7M253.5 290.5V57.1h9.8v233.4M263.3 59h9.8v231.5" fill="none" stroke="#000" stroke-width=".5249999999999999" stroke-linecap="square" stroke-miterlimit="10"/><path d="M273 106.8h9.8v183.7M282.8 119.6h9.8v170.9M292.6 160h9.8v130.5" fill="none" stroke="#000" stroke-width=".5249999999999999" stroke-linecap="square" stroke-miterlimit="10"/><path d="M302.4 231.7h9.7v58.8M312.1 233.5h9.8v57" fill="none" stroke="#000" stroke-width=".5249999999999999" stroke-linecap="square" stroke-miterlimit="10"/><path d="M321.9 263h9.8v27.5M331.7 281.3h9.7v9.2M341.4 285h9.8v5.5M351.2 286.8h9.8v3.7M361 288.7h9.7v1.8" fill="none" stroke="#000" stroke-width=".5249999999999999" stroke-linecap="square" stroke-miterlimit="10"/><path d="M64.8 290.5h325.5M64.8 33.3h325.5M64.8 290.5v-3.3M97.3 290.5v-3.3M129.9 290.5v-3.3M162.4 290.5v-3.3M195 290.5v-3.3M227.5 290.5v-3.3M260 290.5v-3.3M292.6 290.5v-3.3M325.1 290.5v-3.3M357.7 290.5v-3.3M390.3 290.5v-3.3M64.8 33.3v3.2M97.3 33.3v3.2M129.9 33.3v3.2M162.4 33.3v3.2M195 33.3v3.2M227.5 33.3v3.2M260 33.3v3.2M292.6 33.3v3.2M325.1 33.3v3.2M357.7 33.3v3.2M390.3 33.3v3.2" fill="none" stroke="#232323" stroke-width=".5249999999999999" stroke-linecap="square" stroke-linejoin="round" stroke-miterlimit="10"/><g fill="#232323" transform="translate(-86 -228.5)"><use height="100%" width="100%" y="533.5" x="146.3" xlink:href="#b"/><use height="100%" width="100%" y="533.5" x="149.6" xlink:href="#c"/></g><g fill="#232323" transform="translate(-86 -228.5)"><use height="100%" width="100%" y="533.5" x="178.8" xlink:href="#b"/><use height="100%" width="100%" y="533.5" x="182.1" xlink:href="#d"/></g><g fill="#232323" transform="translate(-86 -228.5)"><use height="100%" width="100%" y="533.5" x="211.4" xlink:href="#b"/><use height="100%" width="100%" y="533.5" x="214.7" xlink:href="#e"/></g><g fill="#232323" transform="translate(-86 -228.5)"><use height="100%" width="100%" y="533.5" x="243.9" xlink:href="#b"/><use height="100%" width="100%" y="533.5" x="247.2" xlink:href="#f"/></g><use height="100%" width="100%" y="533.5" x="278" xlink:href="#g" fill="#232323" transform="translate(-86 -228.5)"/><use height="100%" width="100%" y="533.5" x="310.5" xlink:href="#f" fill="#232323" transform="translate(-86 -228.5)"/><use height="100%" width="100%" y="533.5" x="343" xlink:href="#e" fill="#232323" transform="translate(-86 -228.5)"/><use height="100%" width="100%" y="533.5" x="375.6" xlink:href="#d" fill="#232323" transform="translate(-86 -228.5)"/><use height="100%" width="100%" y="533.5" x="408.2" xlink:href="#c" fill="#232323" transform="translate(-86 -228.5)"/><use height="100%" width="100%" y="533.5" x="440.7" xlink:href="#h" fill="#232323" transform="translate(-86 -228.5)"/><use height="100%" width="100%" y="533.5" x="473.3" xlink:href="#i" fill="#232323" transform="translate(-86 -228.5)"/><path d="M64.8 290.5V33.2M390.3 290.5V33.2M64.8 290.5H68M64.8 253.8H68M64.8 217H68M64.8 180.3H68M64.8 143.5H68M64.8 106.8H68M64.8 70H68M64.8 33.3H68M390.3 290.5H387M390.3 253.8H387M390.3 217H387M390.3 180.3H387M390.3 143.5H387M390.3 106.8H387M390.3 70H387M390.3 33.3H387" fill="none" stroke="#232323" stroke-width=".5249999999999999" stroke-linecap="square" stroke-linejoin="round" stroke-miterlimit="10"/><use height="100%" width="100%" y="523.1" x="140.8" xlink:href="#g" fill="#232323" transform="translate(-86 -228.5)"/><g fill="#232323" transform="translate(-86 -228.5)"><use height="100%" width="100%" y="486.4" x="135.5" xlink:href="#e"/><use height="100%" width="100%" y="486.4" x="141.1" xlink:href="#g"/></g><g fill="#232323" transform="translate(-86 -228.5)"><use height="100%" width="100%" y="449.6" x="135.5" xlink:href="#c"/><use height="100%" width="100%" y="449.6" x="141.1" xlink:href="#g"/></g><g fill="#232323" transform="translate(-86 -228.5)"><use height="100%" width="100%" y="412.9" x="135.5" xlink:href="#i"/><use height="100%" width="100%" y="412.9" x="141.1" xlink:href="#g"/></g><g fill="#232323" transform="translate(-86 -228.5)"><use height="100%" width="100%" y="376.1" x="135.5" xlink:href="#j"/><use height="100%" width="100%" y="376.1" x="141.1" xlink:href="#g"/></g><g fill="#232323" transform="translate(-86 -228.5)"><use height="100%" width="100%" y="339.4" x="130.3" xlink:href="#f"/><use height="100%" width="100%" y="339.4" x="135.8" xlink:href="#g"/><use height="100%" width="100%" y="339.4" x="141.4" xlink:href="#g"/></g><g fill="#232323" transform="translate(-86 -228.5)"><use height="100%" width="100%" y="302.6" x="130.3" xlink:href="#f"/><use height="100%" width="100%" y="302.6" x="135.8" xlink:href="#e"/><use height="100%" width="100%" y="302.6" x="141.4" xlink:href="#g"/></g><g fill="#232323" transform="translate(-86 -228.5)"><use height="100%" width="100%" y="265.9" x="130.3" xlink:href="#f"/><use height="100%" width="100%" y="265.9" x="135.8" xlink:href="#c"/><use height="100%" width="100%" y="265.9" x="141.4" xlink:href="#g"/></g></svg>