<svg xmlns="http://www.w3.org/2000/svg" xmlns:xlink="http://www.w3.org/1999/xlink" version="1.2" viewBox="0 0 420 264.8" height="353" width="560"><defs><symbol id="a" overflow="visible"><path d="M.3-2.2V-3H3v.8zm0 0"/></symbol><symbol id="b" overflow="visible"><path d="M5-.8V0H.3l.1-.6c.1-.3.3-.7.6-1l1.1-1 1.6-1.6c.3-.3.4-.7.4-1 0-.4-.1-.7-.3-.9-.3-.2-.6-.4-1-.4s-.8.2-1 .4c-.3.3-.4.6-.4 1h-1c.1-.7.4-1.2.8-1.6.4-.3 1-.5 1.6-.5.7 0 1.2.2 1.6.6.4.4.6.8.6 1.4 0 .3 0 .6-.2.9 0 .2-.3.5-.5.8L2.9-2.2A14.3 14.3 0 001.5-.8zm0 0"/></symbol><symbol id="c" overflow="visible"><path d="M3.7 0h-.9v-5.6a4.8 4.8 0 01-1.7 1v-.8l1.3-.8.8-1h.5zm0 0"/></symbol><symbol id="d" overflow="visible"><path d="M.4-3.5c0-.9.1-1.6.3-2 .1-.6.4-1 .8-1.3a2 2 0 011.3-.4c.3 0 .7 0 1 .2l.7.7.4 1 .2 1.8c0 .8-.1 1.5-.3 2-.2.5-.4 1-.8 1.2a2 2 0 01-1.3.4 2 2 0 01-1.6-.7c-.4-.6-.7-1.6-.7-3zm1 0c0 1.1 0 2 .3 2.3.3.4.6.6 1 .6.5 0 .8-.2 1-.6.3-.4.5-1.2.5-2.3 0-1.2-.2-2-.4-2.4-.3-.4-.7-.6-1-.6-.5 0-.8.2-1 .5-.3.5-.5 1.3-.5 2.5zm0 0"/></symbol><symbol id="e" overflow="visible"><path d="M.4-1.9l.9-.1c.1.5.3.9.5 1 .3.3.5.4.9.4s.8-.1 1-.4c.3-.3.5-.7.5-1 0-.5-.2-.8-.4-1-.3-.4-.6-.5-1-.5l-.6.1v-.8h.2c.4 0 .7 0 1-.2.3-.2.5-.5.5-1a1 1 0 00-.4-.7c-.2-.3-.5-.4-.8-.4-.4 0-.6.1-.9.4-.2.2-.3.5-.4 1l-.9-.2c.1-.6.4-1 .7-1.4.4-.3.9-.5 1.5-.5.4 0 .7.1 1 .3.4.1.6.4.8.7.2.2.3.6.3.9 0 .3-.1.6-.3.8-.2.3-.4.5-.7.6.4.1.7.3 1 .6.2.3.3.7.3 1.2 0 .6-.2 1.1-.7 1.6-.4.4-1 .6-1.7.6-.6 0-1.2-.2-1.6-.5C.7-.8.5-1.3.4-2zm0 0"/></symbol><symbol id="f" overflow="visible"><path d="M3.2 0v-1.7h-3v-.8l3.2-4.7H4v4.7h1v.8H4V0zm0-2.5v-3.3L1-2.5zm0 0"/></symbol><symbol id="g" overflow="visible"><path d="M.4-1.9h1c0 .4.2.7.4 1 .3.2.6.3 1 .3.3 0 .7-.2 1-.5.3-.3.4-.7.4-1.2s-.1-1-.4-1.2A1.5 1.5 0 002-3.7c-.2 0-.4.2-.5.4H.6l.7-3.8h3.5v.9H2l-.4 1.9c.4-.3.9-.5 1.3-.5.7 0 1.2.3 1.6.7a2.6 2.6 0 010 3.3c-.4.6-1 1-1.8 1-.6 0-1.2-.3-1.6-.6C.7-.8.5-1.3.4-2zm0 0"/></symbol></defs><path d="M54.8 235.5h325.5M75.2 235.5v-3.3M115.9 235.5v-3.3M156.6 235.5v-3.3M197.3 235.5v-3.3M238 235.5v-3.3M278.6 235.5v-3.3M319.3 235.5v-3.3M360 235.5v-3.3" fill="none" stroke="#232323" stroke-width=".5249999999999999" stroke-linecap="square" stroke-linejoin="round" stroke-miterlimit="10"/><g fill="#232323" transform="translate(-96 -263.6)"><use height="100%" width="100%" y="513.6" x="166.7" xlink:href="#a"/><use height="100%" width="100%" y="513.6" x="170" xlink:href="#b"/></g><g fill="#232323" transform="translate(-96 -263.6)"><use height="100%" width="100%" y="513.6" x="207.4" xlink:href="#a"/><use height="100%" width="100%" y="513.6" x="210.7" xlink:href="#c"/></g><use height="100%" width="100%" y="513.6" x="249.6" xlink:href="#d" fill="#232323" transform="translate(-96 -263.6)"/><use height="100%" width="100%" y="513.6" x="290.3" xlink:href="#c" fill="#232323" transform="translate(-96 -263.6)"/><use height="100%" width="100%" y="513.6" x="330.9" xlink:href="#b" fill="#232323" transform="translate(-96 -263.6)"/><use height="100%" width="100%" y="513.6" x="371.6" xlink:href="#e" fill="#232323" transform="translate(-96 -263.6)"/><use height="100%" width="100%" y="513.6" x="412.3" xlink:href="#f" fill="#232323" transform="translate(-96 -263.6)"/><use height="100%" width="100%" y="513.6" x="453" xlink:href="#g" fill="#232323" transform="translate(-96 -263.6)"/><path d="M54.8 235.5v-216M54.8 227.3H58M54.8 191.3H58M54.8 155.3H58M54.8 119.3H58M54.8 83.3H58M54.8 47.3H58" fill="none" stroke="#232323" stroke-width=".5249999999999999" stroke-linecap="square" stroke-linejoin="round" stroke-miterlimit="10"/><g fill="#232323" transform="translate(-96 -263.6)"><use height="100%" width="100%" y="495.1" x="137.8" xlink:href="#a"/><use height="100%" width="100%" y="495.1" x="141.1" xlink:href="#b"/></g><g fill="#232323" transform="translate(-96 -263.6)"><use height="100%" width="100%" y="459.1" x="137.8" xlink:href="#a"/><use height="100%" width="100%" y="459.1" x="141.1" xlink:href="#c"/></g><use height="100%" width="100%" y="423.1" x="140.8" xlink:href="#d" fill="#232323" transform="translate(-96 -263.6)"/><use height="100%" width="100%" y="387.1" x="140.8" xlink:href="#c" fill="#232323" transform="translate(-96 -263.6)"/><use height="100%" width="100%" y="351.1" x="140.8" xlink:href="#b" fill="#232323" transform="translate(-96 -263.6)"/><use height="100%" width="100%" y="315.1" x="140.8" xlink:href="#e" fill="#232323" transform="translate(-96 -263.6)"/><path d="M164 75.4h-3l-3.1.4-3.1.7-1 .3-2.1.6-3 1.3-2 1-1.2.7-3 2.2h-.1l-2.8 3-.2.3-2 2.7-1.1 2.1-.5.8-1.6 3-1 1.8-.8 1.1-2.3 2.8-.2.2-2.9 2-1.5 1-1.6.6-3 1-3.1.5-3.1.4-3.1.3h-1.1l-2 .2-3 .2-3.2.3-3 .5-3.1.6-3.1.9-1 .3-2 1-3.2 1.9h-.1l-3 3-1.7 3-1 3-.3 1.3-.4 1.6-.3 3-.2 2.9-.3 3-.3 2.9-.5 3-.6 2.9-.5 2.4-.2.5-.7 3-.7 3-.5 2.9-.5 3-.2 2.9-.1 3v2.9l.4 3 .6 2.9.9 3 1 2.2.2.7 1.7 3 1.2 1.7.8 1.2 2.2 2.7.2.2 2.8 3h.1l3.1 2.9 3 2.5.8.5 2.4 1.7 1.9 1.2 1.2.8 3 1.8.8.4 2.3 1.3 3.1 1.6 3.1 1.8 2 1.2 1 .7 3.2 2.1.1.1 3 2.6.3.4 2.7 2.7.3.2 2.8 2.8.3.2 2.8 2 1.6 1 1.5.6 3 1 3.2.6 3 .3h3.1l3.1-.1 3.1-.4 3-.6 3.2-.7 2.2-.8.9-.2 3-1.1 3.1-1.3.7-.3 2.4-1 3.1-1.4 1.3-.6 1.8-.7 3-1.2 3-1h.2l3-.9 3.1-.8 3.1-.7 2.2-.6.9-.2 3-.7 3.2-.8 3-1 .8-.2 2.3-1 3.1-1.4 1-.6 2-1.3 2.1-1.6 1-1 1.9-2 1.3-1.7.8-1.2 1.8-3 .4-.8 1.2-2.1 1.5-3 .4-.7 1.2-2.2 1.7-3 .2-.4 1.7-2.5 1.4-2 .8-1 2.3-2.7.2-.2 2.9-3 3-3 2.6-2.9.5-1 1.1-2 .8-2.9v-3l-.3-2.9-.7-3-.9-2.8-1-3-1.1-3-1-2-.3-1-1.4-2.9-1.3-2.7-.1-.2-1.4-3-1.3-3-.3-.5-1-2.4-1.4-3-.7-1.4-.7-1.5-1.6-3-.8-1.1-1.1-1.8-2-2.4-.4-.5-2.7-2.6-.4-.4-2.6-2-1.4-1-1.7-1-3.1-1.7-.3-.2-2.8-1.4-3-1.3-.6-.2-2.6-1.1-3-1.3-1.6-.6-1.5-.6-3.1-1.4-2-1-1.1-.5-3-1.7-1.4-.7-1.8-1.2-2.7-1.7-.3-.3-3.1-2-1-.7-2.1-1.2-3.1-1.4-1.1-.3-2-.6-3-.6-3.2-.2z" fill="#57b3e6" fill-opacity=".3"/><path d="M170.2 98.8l-3 .2-3.2.5-3 .9-3.1 1.3-2.8 1.6-.3.2-3.1 2-.9.8-2.2 1.6-1.7 1.3-1.4 1-2.7 2-.4.2-3 1.9-1.5.8-1.6.9-3.1 1.4-2 .7-1 .4-3.2 1-3 .7-3.1.7-1 .1-2.1.5-3.1.8-3.1 1-1.5.7-1.6 1-2.4 2-.7.9-1.1 2-1 3-.5 2.9-.2 3-.1 2.9-.2 2.4v.5l-.2 3-.4 3-.6 2.9-.8 3-1 2.9v.3l-1 2.6-1 3-.7 3-.2 2.9.4 3 1.3 2.9 1.2 1.8.8 1.1 2.2 2.3.8.7 2.3 1.6 2.2 1.3 1 .6 3 1.4 2.4 1 .7.3 3 1 3.2 1.2 1.3.4 1.7.7 3.1 1.3 2.1 1 1 .5 3.1 1.8 1 .6 2 1.5 2.1 1.5 1 .8 3.1 2 .2.1 3 1.6 3 1 1.8.4 1.3.2h3l1.9-.2 1.3-.2 3-.6 3.1-.9 3.1-.9 1.4-.4 1.7-.4 3.1-.9 3-.8 3.2-.8 3-.7 3.1-.8 3.1-.9 2-.6 1.1-.4 3-1.2 2.9-1.3.3-.2 3-2 1.1-.8 2-1.7 1.2-1.2 2-2.4.3-.6 2-3 .7-1.3.8-1.6 1.5-3 .8-1.6.6-1.3 1.5-3 1-1.8.6-1 1.7-3 .8-1.3 1-1.7 1.9-3 .1-.2 1.6-2.7 1.4-3 .1-.3 1-2.6.5-3 .2-2.9-.2-3-.4-2.9-.8-3-.3-.8-.6-2-1-3-1-3-.5-1-.7-2-1.2-2.9-1.1-2.2-.4-.7-1.8-3-1-1.1-1.4-1.8-1.6-1.6-1.6-1.4-1.5-1-3-1.9h-.1l-3-1.4-3.1-1.2-1.2-.4-2-.6-3-.8-3.1-.6-3-.6-2.2-.3-1-.2-3-.4-3.1-.4-3.1-.3-3.1-.2h-3z" fill="#57b0e3" fill-opacity=".3"/><path d="M182.6 109.6h-3.1l-3.1.1-3.1.4-3 .4-3.2.8-3 .9-3.1 1.2-3.1 1.4-.6.3-2.5 1.3-2.7 1.7-.4.2-3 2-1.3.7-1.9 1.3-2.4 1.7-.7.4-3 2.1-.7.4-2.4 1.7-2 1.3-1.1.8-3 2-.2.1-3 2.3-.8.7-2.3 2.4-.4.5-1.9 3-.7 1.7-.6 1.2-.9 3-.7 3-.5 2.9-.4 2.6v.3l-.4 3-.1 3v2.9l.5 2 .2 1 1.4 2.9 1.5 1.8 1.2 1.1 1.8 1.3 3 1.7h.1l3.1 1.4 3.1 1.3.6.2 2.5 1 3 1.5 1.2.5 2 1 3 1.5 1 .4 2.1 1.2 3.1 1.4 1 .4 2 .8 3.2.8 3 .6 3.1.3h3.1l3.1-.1 3.1-.3 3-.5 3.2-.6 3-.9.5-.1 2.6-1 3.1-1.4.9-.6 2.2-1.5 1.8-1.4 1.3-1.4 1.4-1.6 1.7-2.3.3-.6 1.8-3 1-1.8.5-1.1 1.6-3 1-1.5.8-1.4 1.8-3 .4-.5 1.6-2.4 1.5-2.3.4-.7 1.8-3 .9-1.7.5-1.2 1.1-3 .7-2.9.2-3v-2.9l-.5-3-.6-2.9-1-3-.4-1.2-.6-1.7-1.4-3-1-1.9-.7-1-2.4-3-3.2-2.7-.1-.2-3-1.7-2.7-1.2-.3-.2-3.1-1-3.1-.6-3-.5-3.2-.2-3-.1z" fill="#54aee1" fill-opacity=".3"/><path d="M182.6 117.5h-3.1l-3.1.2-2.8.4h-.3l-3 .6-3.2.9-3 1-.9.4-2.2 1-3.1 1.7-.4.3-2.7 1.8-1.6 1.1-1.5 1.3-2 1.7-1 1.1-2 1.8-1.2 1.5-1.3 1.5-1.8 2.4-.4.5-1.9 3-.7 1.4-1 1.5-1.2 3-1 2.8v.1l-.5 3v3l.6 2.4.1.5 1.5 3 1.5 1.7 1 1.2 2 1.7 1.6 1.2 1.5 1.1 2.7 1.9.4.2 3.1 2 1.3.7 1.8 1 3 1.6 1 .4 2.2.8 3 1 3.1.5 3.1.2 3.1-.3 3-.6 3.2-1.2.7-.4 2.4-1.5 1.7-1.5 1.3-1.3 1.4-1.6 1.7-2.2.6-.8 2.2-3 .3-.3 2-2.6 1-1.3 1.4-1.6 1.8-2 .7-1 2.3-3 2-2.9 1.1-2 .5-1 1-2.9.6-3 .2-2.9-.3-3-.7-2.9-1-3-.3-.4-1.4-2.5-1.6-2.2-.7-.7-2.4-2-1.4-1-1.7-.9-3.1-1.2-3-.8h-.4l-2.8-.4-3-.2z" fill="#51abde" fill-opacity=".3"/><path d="M179.5 125.1l-3.1.2-3.1.4-3 .7-1.5.5-1.7.7-3 1.6-1.2.7-2 1.5-1.6 1.4-1.4 1.8-1 1.2-1.6 3-.5 1.5-.5 1.4-.3 3 .1 2.9.7 2.4.1.5 1.6 3 1.4 1.8 1.1 1.1 2 1.7 2.2 1.3.8.5 3.1 1 3.1.3 3.1-.3 3-1 1.1-.5 2-.9 3.2-1.7.4-.4 2.6-1.6 1.7-1.3 1.4-1.1 2-1.9 1.1-1 1.5-2 1.6-2.3.3-.6 1-3 .4-2.9-.4-3-1-2.9-.3-.4-2-2.5-1.1-1-3-2h-.2l-3-1-3-.6-3.1-.2z" fill="#4fabde" fill-opacity=".3"/><path d="M227.4 25.3h-3l-3 .2-3 .3-2.9.3h-.1l-3 .4-3 .5-3 .6-3 1-1.3.4-1.7.7-3 1.6-1 .7-2 1.5-1.7 1.5-1.3 1.2-1.7 1.7-1.3 1.4-1.4 1.6-1.6 1.9-.9 1-2.1 2.7-.3.4-2.2 3-.5.6-1.7 2.3-1.3 2-.7 1-1.8 3-.5 1-1.1 2-1.5 2.9-.4 1.1-.8 1.9-1.1 3-.9 3-.2 1-.5 1.9-.6 3-.5 3-.3 2.9-.1 3v3l.1 3 .4 2.9.6 3 .9 2.8v.1l1 3 1.3 3 .7 1.3.7 1.7 1.5 3 .8 1.6.6 1.3 1.1 3 1 3 .3 1 .5 2 .7 2.9 1 3 .8 2 .3 1 1.9 3 .8.8 2 2 1 .8 3 2 .6.3 2.4 1 3 1 3 .6 1.8.3 1.2.2 3 .3 3 .1h3l3-.2 3-.3h.3l2.7-.5 3-.6 3-.7 3-.7 2-.5 1-.3 3-.6 3-.5 3-.2h3l3 .4 3 .6 1.8.6 1.2.3 3 1.3 3 1.3 3 1.6 3 1.4 3 1.3 3 1 3 .5h3l3-.4 3-1 3-1.3.2-.1 2.8-1.7 2-1.3 1-.7 3-2.2h.1l3-2.5.7-.5 2.2-2.4.6-.6 1.7-3 .2-3-.9-3-1.6-2.7v-.2l-1.7-3-1.3-2.9-.7-3-.1-3 .3-3 .5-2 .3-1 1.2-2.9 1.4-3 .1-.2 1.6-2.7 1.4-2.7.2-.3 1.7-3 1.1-2.2.5-.8 1.3-3 1-2.9.2-1 .5-2 .4-3 .2-3-.1-2.9-.3-3-.4-3-.3-2-.1-1-.5-2.9-.5-3-.6-3-.7-2.9-.6-1.9-.3-1-1-3-1.4-3-.3-.4-1.6-2.6-1.4-1.7-1.3-1.3-1.7-1.4-2.3-1.5-.7-.4-3-1.3-3-.9-2.5-.4h-.5l-3-.3-3-.2h-3l-3-.1-3-.2-3-.2-3-.4-3-.5-3-.6-2.6-.5h-.4l-3-.7-3-.7-3-.5-3-.5-3-.5h-.8l-2.2-.3-3-.3-3-.1h-3z" fill="#e69700" fill-opacity=".3"/><path d="M233.4 37.6l-3 .2-1.2.1-1.8.3-3 .7-3 1-2.6 1-.4.2-3 1.5-2.3 1.3-.7.4-3 2-.8.6-2.2 1.5-1.9 1.4-1.1.9-2.8 2.1-.2.2-3 2.3-.6.5-2.4 1.9-1.3 1-1.7 1.6-1.5 1.4-1.5 1.6-1.3 1.4-1.7 2.2-.6.8-2 3-.4.8-1 2.1-1.3 3-.7 2.6-.1.4-.6 3-.3 2.9v3l.3 3 .6 3v.2l1 2.7 1.3 3 .8 1.4.9 1.5 2 3 2.4 3 .7.8 2 2.2 1 1.1 1.8 1.8 1.2 1.2 2 1.8 1 1 2.5 2 .5.4 3 1.9 1.5.6 1.5.7 3 1 3 .5 3 .2h3l3 .1h12l3 .1 3 .2 3 .2h.4l2.6.2 3 .3 3 .2 3 .2h6l3-.5 1.4-.4 1.6-.4 3-1.4 1.6-1.2 1.4-1 1.9-2 1.1-1.2 1.3-1.7 1.7-2.4.4-.6 2-3 .6-.9 1.3-2 1.7-2.8.1-.2 1.9-3 1-1.7.7-1.2 1.7-3 .6-1.4.8-1.6 1.3-3 1-2.7v-.2l.8-3 .5-3 .3-3v-3l-.4-2.9-.6-3-.7-2.3-.2-.6-1.1-3-1.6-3-2-3-1-1.1-1.8-1.8-1.3-1.1-2.5-1.9-.5-.4-3-1.7-1.7-.9-1.3-.6-3-1.3-2.7-1-.3-.2-3-1.1-3-1.1-1.7-.6-1.3-.5-3-1-3-1-1.4-.5-1.6-.5-3-.9-3-.7-3-.6-2-.3h-1l-3-.3h-3z" fill="#e39700" fill-opacity=".3"/><path d="M236.4 46.9l-3 .3-3 .5-3 1-2.8 1.1-.2.1-3 1.7-1.9 1.2-1.1.8-3 2.2-3 2.5-.6.5-2.4 1.9-1.3 1-1.7 1.4-2 1.6-1 .7-2.8 2.3-.2.2-3 2.7h-.1l-2.7 3-.2.3-2 2.7-1 2.1-.4.9-1 3-.5 2.9v3l.5 3 1 3 .4.7 1.1 2.2 1.9 2.6.3.4 2.7 2.8.2.1 2.8 2.3 1 .7 2 1.3 3 1.7 3 1.3 3 1.2 1.4.5 1.6.5 3 .8 3 .8 3 .6 1.2.2 1.8.4 3 .5 3 .5 3 .5 3 .3 3 .3 3 .3h6l3-.2 3-.5 3-.7 3-1.2.3-.2 2.7-1.4 2.1-1.5 1-.7 2.5-2.3.4-.4 2.4-2.6.6-.7 1.8-2.3 1.2-1.6 1-1.3 1.7-3 .3-.7 1.2-2.3 1.1-3 .7-2.4.2-.5.5-3 .2-3v-3l-.5-3-.4-1.2-.5-1.7-1.2-3-1.3-2.2-.5-.7-2.3-3-.2-.1-3-2.8-3-2.2-1.2-.8-1.8-1.1-3-1.7-.5-.2-2.5-1.3-3-1.4-.7-.3-2.3-1-3-1.2-2.1-.8-.9-.3-3-1-3-.7-3-.5-3-.4h-3z" fill="#e19400" fill-opacity=".3"/><path d="M239.4 55.7h-1.7l-1.3.2-3 .6-3 1.1-2.2 1.2-.8.4-3 2.1-.5.4-2.5 2.1-1 .9-2 2-1.1 1-2 1.8-1.1 1.1-1.8 1.8-1.4 1.2-1.6 1.7-1.3 1.3-1.7 2-.8 1-1.8 3-.4 1.2-.5 1.7-.1 3 .6 2.5.1.4 1.8 3 1 1.3 1.8 1.7 1.3 1 3 2 3 1.5 3 1.4 3 1.2 3 1 2 .8 1 .3 3 1 3 .8 3 .7.9.2 2.1.4 3 .4 3 .3 3 .2 3-.2 3-.3 3-.8h.2l2.8-1 3-1.5.7-.5 2.3-1.6 1.7-1.4 1.3-1.2 1.5-1.7 1.5-2 .8-1 1.6-3 .6-1.4.6-1.6.8-3 .3-2.9v-3l-.6-3-1-3-1.6-2.9-1.5-2-.7-1-2.3-2.3-.7-.6-2.3-1.8-1.7-1.2-1.3-.9-3-1.7-.7-.4-2.3-1.2-3-1.3-1-.4-2-.8-3-1-3-.7-3-.5h-.4l-2.6-.1z" fill="#de9100" fill-opacity=".3"/><path d="M242.4 66l-3 .3-3 1-.8.4-2.2 1.3-2 1.6-1 1-1.8 2-1.2 1.6-1 1.4-1.7 3-.3.6-1 2.3-.6 3 .3 3 1.3 2.6.1.3 2.7 3 .2.2 3 2.3.7.5 2.3 1.2 3 1.5.5.3 2.5.9 3 .8 3 .6 3 .3 3-.1 3-.5 3-1 2.3-1 .7-.4 3-2.3.4-.3 2.4-3 .2-.3 1.3-2.7.8-3 .1-2.9-.5-3-1.2-3-.5-.7-1.6-2.2-1.4-1.6-1.5-1.4-1.5-1.2-2.6-1.8-.4-.2-3-1.5-2.8-1.2-.2-.1-3-1-3-.5-3-.1z" fill="#de8f00" fill-opacity=".3"/><path d="M276.7 75.2l-2.5.3-2.6.7-2.2 1-.3.2-2.5 1.5-1.6 1.2-1 .8-2.2 2-.3.4-2.4 2.5-.1.1-2.5 2.8-2.6 2.7-.1.2-2.4 2.3-.5.5-2 1.9-1.1 1-1.5 1.2-1.8 1.7-.7.6-2.5 2.2-2.6 2.4-.5.5-2 2-1 .8-1.5 1.6-1.3 1.3-1.2 1.3-1.6 1.6-1 1-1.7 1.8-.8 1-1.8 2-.7.8-1.7 2-.9 1.2-1 1.6-1.5 2.5-.2.4-1.3 2.9-1 2.8v.2l-.7 2.7-.6 2.9-.4 2.8-.3 2.9-.2 2.9-.2 2.8v2.9l-.1 2.9V163.2l.2 2.9.3 2.8.4 2.9.6 2.9.7 2.8.3 1 .5 1.9 1 2.9 1 2.8v.3l.9 2.6 1 2.8.6 1.9.4 1 1 2.9 1.2 2.8 1.3 2.9 1.2 2 .6.9 2 2.2.6.6 1.9 1.5 2.3 1.4h.2l2.5 1.2 2.5.8 2.6.7.8.2 1.7.3 2.5.6 2.6.4 2.5.5 2.5.5 2.4.5h.1l2.6.7 2.5.7 2.5.7 2.6.8 2.5.7 2.5.7 2.6.5 2.5.3h2.5l2.5-.3 2.6-.5 2.5-.7 1.8-.7.7-.2 2.6-.9 2.5-.9 2.5-.8h.1l2.4-.7 2.6-.7 2.5-.6 2.5-.6 1.5-.3 1-.3 2.6-.5 2.5-.5 2.5-.6 2.6-.7 1-.3 1.5-.4 2.5-.9 2.6-1 1-.6 1.5-.8 2.5-1.7.5-.3 2-1.9 1-1 1.6-2 .5-.9 1.7-2.8.3-.8 1-2 1-3 .5-2 .3-.8.7-2.9.5-2.8.5-3 .3-2.8.3-2.2v-.6l.4-3 .2-2.8.3-2.8.2-3 .2-2.8.2-2.8.1-3V149l-.2-2.9-.3-2.9-.5-2.8-.6-2.9v-.2l-.7-2.7-1-2.8-.9-2-.4-.9-1.6-2.9-.5-.8-1.6-2-1-1.1-1.9-1.8-.5-.5-2.6-1.7-1.4-.7-1.1-.5-2.5-1-2.6-.6-2.5-.4-2.3-.3h-.2l-2.6-.4-2.5-.3-2.5-.5-2.5-.6-2.6-1h-.3l-2.2-1.4-2-1.6-.5-.5-1.7-2.3-.9-1.8-.4-1-.9-3-.7-2.8-.5-2-.2-.9-.8-2.8-1-3-.5-.9-1-1.9-1.5-2.5-.3-.3-2.3-2.7-.2-.2-2.3-1.9-1.6-1-1-.5-2.5-1-2.5-.5h-2.5z" fill="#00977f" fill-opacity=".3"/><path d="M271.6 102.4l-2.4.6h-.1l-2.5 1-2.6 1.2-1.4.7-1 .4-2.6 1.2-2.6 1.2-2.5 1.3-2.5 1.5-.2.1-2.3 1.6-1.8 1.3-.8.5-2.5 2.2-.2.1-2.3 2.2-.7.7-1.9 1.9-.9 1-1.6 1.8-.8 1-1.7 2.2-.6.7-2 2.9-1.6 2.8-.9 2-.4.9-1 2.9-.8 2.8-.3 1.4-.3 1.5-.4 2.9-.2 2.8-.1 2.9v2.9l.2 2.8.2 2.9.5 2.9.1.6.5 2.2.8 2.9 1 2.9.2.7.9 2.1 1.2 2.9.5 1 .9 1.9 1.4 2.8.2.3 1.4 2.6 1.1 1.8.7 1 1.8 2.5.4.4 2.2 2.2.8.7 1.7 1.2 2.5 1.6h.2l2.4 1 2.5 1 2.5.8.5.1 2 .5 2.6.6 2.5.5 2.5.4 2.6.4 2.5.4h.8l1.7.3 2.6.2 2.5.2h10.1l2.5-.1 2.6-.2 2.5-.2 1.2-.1 1.3-.1 2.5-.3 2.6-.4 2.5-.5 2.5-.5 2.6-.7 1-.4 1.5-.4 2.5-1 2.5-1.2.5-.3 2-1.2 2.4-1.6.2-.2 2.5-2.4.3-.3 2.2-2.9v-.1l1.6-2.7 1-2.4.2-.5.9-2.8.7-3 .5-2.8.2-1.3.3-1.5.3-3 .3-2.8.2-2.8.1-3v-5.6l-.3-3-.6-2.8-.3-1.2-.5-1.6-1.1-2.9-.9-1.7-.7-1.2-1.8-2.3-.5-.5-2-2-1.2-.9-1.4-1-2.5-1.5-.6-.4-2-1-2.5-1.1-1.5-.7-1-.4-2.5-1.1-2.6-1-.9-.4-1.6-.7-2.5-1-2.6-1-.4-.2-2-1-2.6-1-1.6-.8-1-.5-2.5-1.5-1.4-.9-1.1-.8-2.5-2-2.6-2.7-.2-.2-2-2.9-.3-.6-1.4-2.3-1.1-2.4-.3-.4-2.2-2.8h-.2l-2.4-.7z" fill="#00977d" fill-opacity=".3"/><path d="M261.5 123.8H259l-2.6.5-2.5.9-1.5.7-1 .6-2.5 1.9-.5.4-2 2-.8.9-1.8 2.3-.4.5-1.7 2.9-.4 1-.8 1.9-1 2.8-.6 2.9-.2 1.5-.1 1.4v2.8l.1 1.9.1 1 .6 2.9.7 2.8 1 2.9.2.5 1 2.4 1.3 2.8.2.4 1.3 2.5 1.2 2.3.3.6 1.7 2.8.6 1 1.2 1.9 1.3 1.8.8 1 1.7 2 .9 1 1.6 1.4 1.9 1.4.7.4 2.5 1.6 1.7.8.8.4 2.6 1.1 2.5 1 1.2.4 1.3.4 2.6.7 2.5.7 2.5.5 2.5.5h.9l1.7.3 2.5.3 2.5.2h5.1l2.5-.1 2.5-.3 1.7-.3.9-.2 2.5-.7 2.5-.9 2.5-1v-.1l2.6-1.6 1.7-1.3.8-.7 2-2.1.5-.7 1.5-2.2 1-2.1.4-.7 1-3 .8-2.8.4-2.2.1-.6.4-3 .2-2.8v-2.8l-.1-3-.4-2.8-.2-.9-.4-2-1-2.8-1.1-2.2-.4-.7-1.9-2.8-.3-.3-2.2-2.6-.3-.2-2.5-2.3-.4-.4-2.1-1.5-2-1.3-.6-.4-2.5-1.5-1.9-1-.6-.3-2.6-1.2-2.5-1-.8-.4-1.7-.6-2.5-1-2.6-.7-1.9-.5-.6-.2-2.5-.8-2.6-.7-2.5-.8-1.3-.4-1.2-.4-2.5-1-2.6-.8-1.8-.7-.7-.2-2.5-.9-2.6-.6-2.5-.4z" fill="#00947a" fill-opacity=".3"/><path d="M276.7 138.8h-2.5l-2.6.3-2.5.4-2.5.7h-.3l-2.3 1.2-2 1.7-.5.6-1.4 2.3-.8 2.9-.2 2.8v2.9l.3 2.9.5 2.8.6 2.9.8 2.9.2.6.7 2.2 1 2.9.8 1.6.6 1.3 1.7 2.8.3.4 1.8 2.5.7.7 2.1 2.2.4.3 2.6 1.9 1 .6 1.5.9 2.5 1.2 1.9.8.6.2 2.6.8 2.5.6 2.5.4 2.6.2h2.5l2.5-.3 2.5-.5 2.6-.9 1.2-.5 1.3-.7 2.5-1.9.4-.3 2.2-2.4.3-.4 1.6-3 .6-1.4.5-1.4.7-2.8.5-3 .2-2.8v-2.8l-.4-3-.6-2.8-1-2.8-1.3-3-1.1-1.6-.8-1.2-1.8-2-.8-.8-1.7-1.6-1.7-1.3-.8-.6-2.6-1.5-1.3-.8-1.2-.5-2.5-1-2.5-.9-1.7-.4-.9-.3-2.5-.5-2.5-.3-2.6-.3-2.5-.1h-2.5z" fill="#009178" fill-opacity=".3"/><path d="M284.3 147.4l-2.6.3-2.5.7-1 .5-1.5.8-2.4 2-.1.3-1.5 2.6-.8 2.9-.2 2.8.2 2.9.6 2.9 1 2.8.7 1.6.6 1.3 1.8 2.9v.1l2.5 2.7.1.1 2.5 2 1.2.8 1.4.7 2.5 1 2.5.6 2.6.3 2.5-.2 2.5-.7 2.5-1.3.6-.4 2-2 .6-.9 1.5-2.8.4-1.4.4-1.5.4-2.9v-2.8l-.3-3-.5-2-.2-.8-1.3-2.8-1-1.6-1-1.3-1.6-1.7-1.3-1.2-1.2-.8-2.5-1.4-1.4-.6-1.1-.5-2.6-.6-2.5-.3h-2.5z" fill="#008f78" fill-opacity=".3"/></svg>