<svg xmlns="http://www.w3.org/2000/svg" xmlns:xlink="http://www.w3.org/1999/xlink" version="1.2" viewBox="0 0 420 315" height="420" width="560"><defs><symbol id="a" overflow="visible"><path d="M.3-2.2V-3H3v.8zm0 0"/></symbol><symbol id="b" overflow="visible"><path d="M.4-1.9l.9-.1c.1.5.3.9.5 1 .3.3.5.4.9.4s.8-.1 1-.4c.3-.3.5-.7.5-1 0-.5-.2-.8-.4-1-.3-.4-.6-.5-1-.5l-.6.1v-.8h.2c.4 0 .7 0 1-.2.3-.2.5-.5.5-1a1 1 0 00-.4-.7c-.2-.3-.5-.4-.8-.4-.4 0-.6.1-.9.4-.2.2-.3.5-.4 1l-.9-.2c.1-.6.4-1 .7-1.4.4-.3.9-.5 1.5-.5.4 0 .7.1 1 .3.4.1.6.4.8.7.2.2.3.6.3.9 0 .3-.1.6-.3.8-.2.3-.4.5-.7.6.4.1.7.3 1 .6.2.3.3.7.3 1.2 0 .6-.2 1.1-.7 1.6-.4.4-1 .6-1.7.6-.6 0-1.2-.2-1.6-.5C.7-.8.5-1.3.4-2zm0 0"/></symbol><symbol id="c" overflow="visible"><path d="M5-.8V0H.3l.1-.6c.1-.3.3-.7.6-1l1.1-1 1.6-1.6c.3-.3.4-.7.4-1 0-.4-.1-.7-.3-.9-.3-.2-.6-.4-1-.4s-.8.2-1 .4c-.3.3-.4.6-.4 1h-1c.1-.7.4-1.2.8-1.6.4-.3 1-.5 1.6-.5.7 0 1.2.2 1.6.6.4.4.6.8.6 1.4 0 .3 0 .6-.2.9 0 .2-.3.5-.5.8L2.9-2.2A14.3 14.3 0 001.5-.8zm0 0"/></symbol><symbol id="d" overflow="visible"><path d="M3.7 0h-.9v-5.6a4.8 4.8 0 01-1.7 1v-.8l1.3-.8.8-1h.5zm0 0"/></symbol><symbol id="e" overflow="visible"><path d="M.4-3.5c0-.9.1-1.6.3-2 .1-.6.4-1 .8-1.3a2 2 0 011.3-.4c.3 0 .7 0 1 .2l.7.7.4 1 .2 1.8c0 .8-.1 1.5-.3 2-.2.5-.4 1-.8 1.2a2 2 0 01-1.3.4 2 2 0 01-1.6-.7c-.4-.6-.7-1.6-.7-3zm1 0c0 1.1 0 2 .3 2.3.3.4.6.6 1 .6.5 0 .8-.2 1-.6.3-.4.5-1.2.5-2.3 0-1.2-.2-2-.4-2.4-.3-.4-.7-.6-1-.6-.5 0-.8.2-1 .5-.3.5-.5 1.3-.5 2.5zm0 0"/></symbol><symbol id="f" overflow="visible"><path d="M1 0v-1h1v1zm0 0"/></symbol><symbol id="g" overflow="visible"><path d="M.4-1.9h1c0 .4.2.7.4 1 .3.2.6.3 1 .3.3 0 .7-.2 1-.5.3-.3.4-.7.4-1.2s-.1-1-.4-1.2A1.5 1.5 0 002-3.7c-.2 0-.4.2-.5.4H.6l.7-3.8h3.5v.9H2l-.4 1.9c.4-.3.9-.5 1.3-.5.7 0 1.2.3 1.6.7a2.6 2.6 0 010 3.3c-.4.6-1 1-1.8 1-.6 0-1.2-.3-1.6-.6C.7-.8.5-1.3.4-2zm0 0"/></symbol></defs><path d="M54.8 280.5h325.5M54.8 280.5v-3.3M109 280.5v-3.3M163.2 280.5v-3.3M217.5 280.5v-3.3M271.8 280.5v-3.3M326 280.5v-3.3M380.3 280.5v-3.3" fill="none" stroke="#232323" stroke-width=".5249999999999999" stroke-linecap="square" stroke-linejoin="round" stroke-miterlimit="10"/><g fill="#232323" transform="translate(-96 -238.5)"><use height="100%" width="100%" y="533.5" x="146.3" xlink:href="#a"/><use height="100%" width="100%" y="533.5" x="149.6" xlink:href="#b"/></g><g fill="#232323" transform="translate(-96 -238.5)"><use height="100%" width="100%" y="533.5" x="200.5" xlink:href="#a"/><use height="100%" width="100%" y="533.5" x="203.8" xlink:href="#c"/></g><g fill="#232323" transform="translate(-96 -238.5)"><use height="100%" width="100%" y="533.5" x="254.8" xlink:href="#a"/><use height="100%" width="100%" y="533.5" x="258.1" xlink:href="#d"/></g><use height="100%" width="100%" y="533.5" x="310.5" xlink:href="#e" fill="#232323" transform="translate(-96 -238.5)"/><use height="100%" width="100%" y="533.5" x="364.8" xlink:href="#d" fill="#232323" transform="translate(-96 -238.5)"/><use height="100%" width="100%" y="533.5" x="419" xlink:href="#c" fill="#232323" transform="translate(-96 -238.5)"/><use height="100%" width="100%" y="533.5" x="473.3" xlink:href="#b" fill="#232323" transform="translate(-96 -238.5)"/><path d="M54.8 280.5V23.2M54.8 280.5H58M54.8 254.8H58M54.8 229H58M54.8 203.3H58M54.8 177.6H58M54.8 151.9H58M54.8 126.1H58M54.8 100.4H58M54.8 74.7H58M54.8 49H58M54.8 23.3H58" fill="none" stroke="#232323" stroke-width=".5249999999999999" stroke-linecap="square" stroke-linejoin="round" stroke-miterlimit="10"/><g fill="#232323" transform="translate(-96 -238.5)"><use height="100%" width="100%" y="523.1" x="129.5" xlink:href="#a"/><use height="100%" width="100%" y="523.1" x="132.8" xlink:href="#c"/><use height="100%" width="100%" y="523.1" x="138.4" xlink:href="#f"/><use height="100%" width="100%" y="523.1" x="141.2" xlink:href="#g"/></g><g fill="#232323" transform="translate(-96 -238.5)"><use height="100%" width="100%" y="497.4" x="137.8" xlink:href="#a"/><use height="100%" width="100%" y="497.4" x="141.1" xlink:href="#c"/></g><g fill="#232323" transform="translate(-96 -238.5)"><use height="100%" width="100%" y="471.7" x="129.5" xlink:href="#a"/><use height="100%" width="100%" y="471.7" x="132.8" xlink:href="#d"/><use height="100%" width="100%" y="471.7" x="138.4" xlink:href="#f"/><use height="100%" width="100%" y="471.7" x="141.2" xlink:href="#g"/></g><g fill="#232323" transform="translate(-96 -238.5)"><use height="100%" width="100%" y="446" x="137.8" xlink:href="#a"/><use height="100%" width="100%" y="446" x="141.1" xlink:href="#d"/></g><g fill="#232323" transform="translate(-96 -238.5)"><use height="100%" width="100%" y="420.2" x="129.5" xlink:href="#a"/><use height="100%" width="100%" y="420.2" x="132.8" xlink:href="#e"/><use height="100%" width="100%" y="420.2" x="138.4" xlink:href="#f"/><use height="100%" width="100%" y="420.2" x="141.2" xlink:href="#g"/></g><use height="100%" width="100%" y="394.5" x="140.8" xlink:href="#e" fill="#232323" transform="translate(-96 -238.5)"/><g fill="#232323" transform="translate(-96 -238.5)"><use height="100%" width="100%" y="368.8" x="132.5" xlink:href="#e"/><use height="100%" width="100%" y="368.8" x="138.1" xlink:href="#f"/><use height="100%" width="100%" y="368.8" x="140.8" xlink:href="#g"/></g><use height="100%" width="100%" y="343" x="140.8" xlink:href="#d" fill="#232323" transform="translate(-96 -238.5)"/><g fill="#232323" transform="translate(-96 -238.5)"><use height="100%" width="100%" y="317.3" x="132.5" xlink:href="#d"/><use height="100%" width="100%" y="317.3" x="138.1" xlink:href="#f"/><use height="100%" width="100%" y="317.3" x="140.8" xlink:href="#g"/></g><use height="100%" width="100%" y="291.6" x="140.8" xlink:href="#c" fill="#232323" transform="translate(-96 -238.5)"/><g fill="#232323" transform="translate(-96 -238.5)"><use height="100%" width="100%" y="265.9" x="132.5" xlink:href="#c"/><use height="100%" width="100%" y="265.9" x="138.1" xlink:href="#f"/><use height="100%" width="100%" y="265.9" x="140.8" xlink:href="#g"/></g><path d="M231.6 26h-4.1l-4.1.4-3.6.6h-.6l-4 1L211 29l-4 1.4-1.7.7-2.5 1-4.1 2-2 1.2-2.1 1.3-4 3h-.1l-4.2 4v.2l-3.4 4.2-.7 1-2 3.2-2 4-.2.2-2.4 4.2-1.6 2.4-1.5 1.8-2.6 2.4-2.7 1.9-1.4.7-4.1 1.4-4.1 1-4.2.8-2.4.3-1.7.2-4 .4-4.2.5-4.1.6-4.1.9-4.1 1-1.5.6-2.6 1-4.2 2-2 1.2-2 1.5-3.2 2.7-1 1.1-2.4 3.1-1.7 3-.6 1.3-1.6 4.2-1 4.2-.7 4.2-.2 1.3-.4 3-.7 4.1-.8 4.3-1 4.2-1.2 4.2v.2l-1.2 4-1 4.2-.9 4.2-.5 4.3-.2 4.2.1 4.2.3 4.2.5 4.2.6 4.2.9 4.2 1 4.3.4.8 1 3.4 1.8 4.2 1.3 2.6.8 1.6 2.5 4.2.8 1.2 2.1 3 2 2.6 1.4 1.7 2.7 3.1 1 1 3.1 3.4 1 .9 3.2 3.2 1.1 1 3 2.8 1.7 1.4 2.4 2.2 2.5 2 1.6 1.5 3.5 2.8.6.6 4.1 3.5 4.1 4.2 3.1 4.3 1 2.4 1 1.8 1 4.2.6 4.3.6 4.2 1 3 .4 1.2 3.4 4.2.3.2 4 2 4.2.9h4.1l4.1-.5 4.1-.8 4.1-1 3-.8 1.2-.2 4-1 4.2-1 4-.9 4.2-1 .4-.1 3.7-.9 4.1-1.1 4.1-1.3 2.5-1 1.7-.5 4-1.5 4.2-1.9.5-.2 3.6-1.6 4.1-2 1.3-.7 2.8-1.3 4.1-1.8 2.6-1 1.5-.6 4.2-1.4 4-1.2 4-1.1h.2l4.1-.9 4.1-.8 4.1-.8 4.1-.8 3.9-1h.3l4-1 4.2-1.2 4-1.6.7-.3 3.5-2 3-2.2 1.1-1 2.7-3.3 1.4-2.2 1.1-2 2-4.2 1-2.6.7-1.6 1.8-4.2 1.7-4 .1-.2 2.2-4.3 1.8-2.9.8-1.3 3.3-4.2 4-4 .4-.2 3.8-2.8 2.5-1.4 1.6-1 4.1-2.2 2.3-1 1.8-1.1 4.2-2.5 1-.7 3-3.2.9-1 1.4-4.2-.3-4.2-1.6-4.2-.3-.6-1.9-3.6-2.2-3.7-.3-.5-2.4-4.3-1.5-2.3-.9-1.9-2.2-4.2-1-1.8-1.1-2.4-2.2-4.2-.8-1.5-1.3-2.7-2.2-4.3-.6-1.2-1.4-3-2-4.2-.7-1.4-1.2-2.8-1.8-4.2-1.1-2.4-.8-1.8-2-4.3L322 88l-1-1.9-2.8-4.2-.3-.4-3-3.8-1.2-1.2-3-3-1-1-4.2-3.2-4.1-2.8-2.4-1.5-1.7-1-4.1-2.3-1.7-.9-2.4-1.3-4.1-2.2-1.5-.7L281 55l-4-2.4-.4-.2-3.8-2.8-2-1.4-2.1-2.1-2.3-2.1-1.8-2-2.2-2.3-2-2-2.2-2.2-1.8-1.6-3.8-2.6-.4-.2-4-2-4.2-1.4-2.5-.6-1.6-.3-4.1-.6-4.1-.2z" fill="#57b3e6" fill-opacity=".3"/><path d="M223.4 50l-4.2.7-4 1.2-1 .4L211 54l-3.4 2.5-.7.6-3.2 3.6-1 1.2-2 3-2 3.3-.5 1-2.8 4.2-.8 1-2.7 3.2-1.4 1.4-3.3 2.8-.9.6-4 2.3L179 86l-1 .4-4.1 1.1-4.1.8-4.1.5-4.1.4-4.1.3-4.2.3-3.4.4-.7.1-4 .8-4.2 1.2L137 94l-.8.5-3.3 2.4-1.8 1.8-2.3 3.7-.3.5-1.4 4.2-.7 4.2-.3 4.2-.2 4.3v4.2l-.2 4.2-.3 4.2-.5 4.2-.2 1.9-.5 2.3-1 4.3-1 4.2-1.2 4.2-.5 1.7-.6 2.5-.9 4.2-.5 4.2v4.2l.4 4.3 1 4.2.6 1.5 1 2.7 2.3 4.2.9 1.3 2 3 2 2.4 1.6 1.7 2.6 2.5 1.9 1.8 2.2 1.8 3.2 2.4.9.6 4.1 2.6 1.7 1 2.4 1.4 4.1 2 1.8.8 2.4 1.2 4 2 2.4 1 1.8 1 4 2.4 1.4.8 2.8 2.1 2.7 2.2 1.4 1.2 3.3 3 .8.8 3.9 3.4.2.2 4.2 3 1.6 1 2.5 1.3 4 1.4 4.2.8 4.1.3 4.1-.1 4.1-.6 4.1-1 4.2-1.4 1.8-.7 2.3-.9 4-1.8 3.5-1.5.7-.3 4.1-1.8 4.1-1.7 1.2-.4 3-1 4-1.4 4.2-1.2 2.4-.6 1.7-.5 4-1 4.2-1.2 4.1-1.4.5-.2 3.6-1.4 4.1-2 1.6-.8 2.6-1.6 3.3-2.6.8-.7 3.3-3.5.8-1 2.4-3.2 1.7-2.7.9-1.5 2.2-4.3 1-2 1.1-2.2 2-4.2 1-2.1 1-2.1 2.3-4.2.8-1.6 1.6-2.6 2.5-4 .2-.3 3-4.2 1-1.5 1.9-2.7 2.2-3.7.3-.5 2-4.2 1.2-4.2.5-4.2v-4.3l-.5-4.2-.8-4.2-1.2-4.2-1.4-4.2-.1-.3-1.5-4-1.6-4.2-1-2.4-.7-1.8-1.6-4.2-1.7-4.2-.2-.3-1.5-4-2-4.1-.6-1-1.8-3.3-2.3-3.2-.7-1-3.4-3.8-.4-.4-3.7-3.2-1.4-1-2.7-1.9-4.1-2.3-4.1-2.1-4.2-1.7-1-.4-3-1.3-4.2-1.5-4.1-1.3-.4-.2-3.7-1.3-4.1-1.5-3.7-1.4-.4-.2-4.2-1.7-4-1.8-1.3-.5-2.9-1.4-4-1.8-3-1-1.2-.5-4.1-1.1-4.1-.6h-4.1z" fill="#57b0e3" fill-opacity=".3"/><path d="M235.7 71.2l-4.1.2-4.1.7-4 1.3h-.1l-4.2 1.8-3.7 2.4-.4.2-4 3-1.2 1-3 2.3-2.3 2-1.8 1.3-3.7 2.8-.4.3-4.1 2.8-2 1.2-2.1 1.1-4.2 2-2.5 1-1.6.7-4 1.3-4.2 1.1-4.1 1-1.2.2-3 .7-4 1.1-4.1 1.5-2 .9-2.2 1.4-3.1 2.8-1 1.4-1.5 2.8-1.3 4.3-.7 4.2-.3 4.2-.1 4.2-.2 3.4v.8l-.3 4.2-.5 4.3-.8 4.2-1 4.2-1.4 4.2-.1.4-1.4 3.8-1.3 4.2-1 4.2-.2 4.3.7 4.2 1.6 4.2 1.6 2.6 1.1 1.6 3 3.2 1 1 3.1 2.4 2.9 1.8 1.2.8 4.2 2 3.2 1.5.9.3 4 1.6 4.2 1.6 1.8.7 2.3 1 4.1 1.8 2.8 1.4 1.3.7 4.1 2.6 1.4 1 2.8 2 2.7 2.1 1.4 1.2 4 3h.2l4 2.3 4.1 1.5 2.3.5 1.8.3h4.1l2.4-.3 1.7-.3 4.2-1 4-1 4.2-1.4 1.8-.6 2.3-.7 4.1-1.2 4.1-1.1 4.1-1.1h.2l4-1.1 4-1.1 4.2-1.2 2.5-.9 1.6-.6 4.1-1.7 3.7-2 .4-.1 4.1-2.8 1.5-1.2 2.6-2.6 1.5-1.6 2.7-3.5.5-.8 2.5-4.2 1-2 1.1-2.2 2-4.2 1-2.5.9-1.7 2-4.2 1.3-2.8.8-1.5 2.3-4.2 1-1.8 1.5-2.4 2.4-4.2.2-.4 2-3.8 2-4.2.1-.6 1.2-3.6.8-4.3.3-4.2-.3-4.2-.6-4.2-1-4.2-.4-1.3-.8-3-1.3-4.2-1.4-4.2-.6-1.5-1-2.7-1.6-4.2-1.5-3.2-.5-1-2.4-4.2-1.2-1.7-2-2.6-2.1-2.2-2.2-2-2-1.5-4-2.6h-.1l-4-2.1-4.2-1.7-1.5-.5-2.6-.9-4.1-1.1-4.1-1-4.1-.8-2.9-.4-1.2-.3-4.2-.6-4-.6-4.2-.4-4-.3h-4.2z" fill="#54aee1" fill-opacity=".3"/><path d="M248 82.2l-4 .1-4.2.3-4.1.6-4.1.9-4.1 1.3-1.7.6-2.4 1-4.2 2-2 1.2-2 1.1L211 94l-.7.5-3.4 2.2-2.8 2-1.3.9-4.1 2.8-.8.5-3.3 2.2-3.3 2-.8.5-4.2 2.4-2.5 1.3-1.6 1-4 2.2-2 1-2.2 1.4-4 2.9-.1.1-3.7 4-.4.7-2 3.6-1.5 4.2-.6 2.7-.4 1.5-.8 4.2-.6 4.3-.7 4.2-.6 4.2-.7 4.2-.3 2-.4 2.2-.5 4.2-.2 4.2.5 4.3.6 1.4 1.1 2.8 3 3.7.5.5 3.6 2.6 2.7 1.6 1.4.7 4.1 1.8 4.1 1.6.3.1 3.8 1.5 4.1 1.7 2.5 1 1.7.8 4 2.1 2.5 1.4 1.7 1 4 2.3 1.8.9 2.4 1.3 4.1 1.8 3.4 1 .7.3 4.1.8 4.2.3 4-.1 4.2-.3 4.1-.5 2.4-.4 1.7-.3 4.1-.7 4.1-1 4.1-1 4-1.2.2-.1 4-1.7 4.2-2.1.5-.3 3.6-2.6 1.9-1.7 2.2-2.2 1.6-2 2.5-3.6.4-.6 2.3-4.2 1.4-2.9.7-1.3 2-4.2 1.5-3 .5-1.3 2.3-4.2 1.3-2.2 1.1-2 2.5-4.2.5-.8 2-3.4 2-4.1.1-.1 1.8-4.2 1.2-4.3.7-4.2.2-4.2-.3-4.2-.7-4.2-.9-4.2-1.2-4.3-.8-2.5-.6-1.7-1.6-4.2-2-4v-.2l-2.6-4.2-1.4-2-2-2.2-2.1-2-3-2.3-1.2-.7-4-2.2-3.2-1.3-1-.3-4.1-1.3-4.1-.8-4.1-.7-4.1-.4-4.2-.2-4-.1z" fill="#51abde" fill-opacity=".3"/><path d="M252.1 90.4l-4 .1-4.2.3-4 .5-4.2.8-4.1 1-3.7 1.4-.4.1-4.1 1.7-4.2 2.1-.3.3-3.8 2.2-3 2-1 .7-4.2 3-.6.5-3.5 2.8-1.8 1.4-2.3 2-2.7 2.2-1.4 1.3-3.4 3-.7.7-3.8 3.5-.4.4-3.5 3.8-.6.7-2.6 3.5-1.5 2.7-.8 1.5-1.7 4.2-1.3 4.3-.3 1.5-.5 2.7-.5 4.2v4.2l.3 4.2.7 3.1.3 1.1 2.1 4.2 1.7 2 2.2 2.3 2 1.4 4 2.7h.1l4 2.3 3.9 2 .3.1 4 2.2 3.5 2 .7.3 4.1 2.3 2.9 1.5 1.2.7 4.1 2 4.1 1.5 4.2 1.2 4 .8 4.2.4h4.1l4.1-.4 4.1-.6 4.1-1 1.1-.4 3-1 4.2-2.1 1.7-1 2.4-1.8 2.7-2.5 1.4-1.6 2-2.6 2.1-3.1.6-1.1 2.4-4.2 1.1-2 1.2-2.3 2.4-4.2.5-.9 2-3.3 2.1-3.1.7-1.1 2.8-4.2.7-1 1.8-3.2 2.2-4.2v-.3l1.6-4 1-4.2.5-4.2v-4.2l-.4-4.2-.9-4.2-1.2-4.3-.5-1.4-1-2.8-2.2-4.2-1-1.6-1.8-2.6-2.3-2.6-1.7-1.6-2.4-1.8-4-2.4h-.2l-4-1.6-4.1-1.2-4.1-.7-4.1-.4-4.2-.2z" fill="#4fabde" fill-opacity=".3"/><path d="M252.1 97.8h-4l-4.2.3-3.7.6h-.4l-4.1 1-4.1 1.1-4.1 1.6-1.1.5-3 1.5-4.2 2.4-.5.3-3.6 2.6-2 1.6-2 1.8-2.7 2.4-1.5 1.6-2.5 2.7-1.6 2-1.8 2.2-2.3 3.4-.6.8-2.6 4.2-1 2-1.1 2.2-1.8 4.2-1.1 4-.1.3-.7 4.2v4.2l.8 3.5.1.7 2 4.2 2 2.5 1.4 1.7 2.7 2.5 2 1.7 2 1.6 3.7 2.7.5.3 4.1 2.7 1.8 1.2 2.3 1.4 4.1 2.2 1.3.6 2.9 1.2 4 1.3 4.2.8 4.1.2 4.1-.3 4.1-1 4.1-1.6 1-.6 3.1-2.1 2.3-2.1 1.9-2 1.8-2.2 2.3-3.1.7-1.2 3-4.2.4-.5 2.6-3.7 1.5-1.9 1.7-2.3 2.4-3 1-1.2 3-4.2.1-.1 2.6-4.1 1.5-3 .6-1.3 1.4-4.2.8-4.2.2-4.2-.3-4.2-1-4.2-1.4-4.3-.3-.6-1.8-3.6-2.3-3.1-.9-1.1-3.2-3-1.8-1.2-2.3-1.3-4.1-1.7-4.1-1.2h-.5l-3.6-.6-4.2-.3z" fill="#4ca8dc" fill-opacity=".3"/><path d="M248 105l-4 .2-4.2.6-4.1 1-1 .3-3.1 1.1-4.1 2-2.1 1.1-2 1.4-3.8 2.8-.4.4-3.7 3.9-.4.4-2.7 3.8-1.4 2.6-.9 1.6-1.6 4.2-1 4.2-.6 4.2.2 4.3.8 4.2 1.6 4.2 1.5 2.4 1.2 1.8 3 3.3.9 1 3.1 2.6 2.2 1.5 2 1.2 4 2 3.8 1 .4.1 4.1.2 1.6-.3 2.5-.4 4.1-1.9 2.7-1.9 1.4-.9 4-3.3.1-.1 4.2-3.6.4-.5 3.7-3.3.9-1 3.2-3 1-1.1 3.1-3.6.5-.6 2.9-4.3.7-1.5 1.2-2.7 1.2-4.2.4-4.2-.4-4.2-1.2-4.2-1.2-2.6-1-1.7-3.1-3.8-.5-.4-3.6-2.6-3.4-1.6-.7-.3-4.1-1-4.2-.7-4-.1z" fill="#4ca6d9" fill-opacity=".3"/><path d="M248 113h-4l-4.2.7-4.1 1.2-1.4.6-2.7 1.5-4 2.8-.1.1-3.5 4-.6 1.2-1.6 3-1 4.3.2 4.2 1.2 4.2 1.2 2.2 1.5 2 2.6 2.6 2.8 1.7 1.3.7 4.1 1 4.1.2 4.1-.7 3.7-1.2.4-.2 4.1-2 3.2-2 1-.8 3.9-3.5.2-.2 2.9-4 1.2-2.5.6-1.7.6-4.2-.6-4.2-.6-1.4-1.6-2.8-2.5-2.6-2.4-1.7-1.7-.8-4.2-1.3-4-.5z" fill="#4aa3d7" fill-opacity=".3"/></svg>