<svg xmlns="http://www.w3.org/2000/svg" xmlns:xlink="http://www.w3.org/1999/xlink" version="1.2" viewBox="0 0 340.4 274.9" height="366.6" width="453.8"><defs><symbol id="f" overflow="visible"><path d="M3.2 0v-1.7h-3v-.8l3.2-4.7H4v4.7h1v.8H4V0zm0-2.5v-3.3L1-2.5zm0 0"/></symbol><symbol id="a" overflow="visible"><path d="M.4-3.5c0-.9.1-1.6.3-2 .1-.6.4-1 .8-1.3a2 2 0 011.3-.4c.3 0 .7 0 1 .2l.7.7.4 1 .2 1.8c0 .8-.1 1.5-.3 2-.2.5-.4 1-.8 1.2a2 2 0 01-1.3.4 2 2 0 01-1.6-.7c-.4-.6-.7-1.6-.7-3zm1 0c0 1.1 0 2 .3 2.3.3.4.6.6 1 .6.5 0 .8-.2 1-.6.3-.4.5-1.2.5-2.3 0-1.2-.2-2-.4-2.4-.3-.4-.7-.6-1-.6-.5 0-.8.2-1 .5-.3.5-.5 1.3-.5 2.5zm0 0"/></symbol><symbol id="c" overflow="visible"><path d="M3.7 0h-.9v-5.6a4.8 4.8 0 01-1.7 1v-.8l1.3-.8.8-1h.5zm0 0"/></symbol><symbol id="d" overflow="visible"><path d="M5-.8V0H.3l.1-.6c.1-.3.3-.7.6-1l1.1-1 1.6-1.6c.3-.3.4-.7.4-1 0-.4-.1-.7-.3-.9-.3-.2-.6-.4-1-.4s-.8.2-1 .4c-.3.3-.4.6-.4 1h-1c.1-.7.4-1.2.8-1.6.4-.3 1-.5 1.6-.5.7 0 1.2.2 1.6.6.4.4.6.8.6 1.4 0 .3 0 .6-.2.9 0 .2-.3.5-.5.8L2.9-2.2A14.3 14.3 0 001.5-.8zm0 0"/></symbol><symbol id="e" overflow="visible"><path d="M.4-1.9l.9-.1c.1.5.3.9.5 1 .3.3.5.4.9.4s.8-.1 1-.4c.3-.3.5-.7.5-1 0-.5-.2-.8-.4-1-.3-.4-.6-.5-1-.5l-.6.1v-.8h.2c.4 0 .7 0 1-.2.3-.2.5-.5.5-1a1 1 0 00-.4-.7c-.2-.3-.5-.4-.8-.4-.4 0-.6.1-.9.4-.2.2-.3.5-.4 1l-.9-.2c.1-.6.4-1 .7-1.4.4-.3.9-.5 1.5-.5.4 0 .7.1 1 .3.4.1.6.4.8.7.2.2.3.6.3.9 0 .3-.1.6-.3.8-.2.3-.4.5-.7.6.4.1.7.3 1 .6.2.3.3.7.3 1.2 0 .6-.2 1.1-.7 1.6-.4.4-1 .6-1.7.6-.6 0-1.2-.2-1.6-.5C.7-.8.5-1.3.4-2zm0 0"/></symbol><symbol id="b" overflow="visible"><path d="M1 0v-1h1v1zm0 0"/></symbol><symbol id="g" overflow="visible"><path d="M.4-1.9h1c0 .4.2.7.4 1 .3.2.6.3 1 .3.3 0 .7-.2 1-.5.3-.3.4-.7.4-1.2s-.1-1-.4-1.2A1.5 1.5 0 002-3.7c-.2 0-.4.2-.5.4H.6l.7-3.8h3.5v.9H2l-.4 1.9c.4-.3.9-.5 1.3-.5.7 0 1.2.3 1.6.7a2.6 2.6 0 010 3.3c-.4.6-1 1-1.8 1-.6 0-1.2-.3-1.6-.6C.7-.8.5-1.3.4-2zm0 0"/></symbol><symbol id="h" overflow="visible"><path d="M5-5.4H4c0-.3-.2-.5-.3-.7-.3-.2-.6-.4-1-.4l-.6.3a2 2 0 00-.7.9c-.2.3-.2.9-.3 1.6a2 2 0 011.8-1c.6 0 1 .3 1.5.7.4.4.6 1 .6 1.7 0 .4 0 .8-.3 1.2a2.2 2.2 0 01-2 1.2C2.2.1 1.6 0 1.2-.7.6-1.2.4-2 .4-3.3c0-1.4.2-2.4.7-3 .5-.6 1-.9 1.8-.9.6 0 1 .2 1.4.5.4.3.6.7.7 1.3zm-3.6 3c0 .4 0 .7.2 1a1.4 1.4 0 001.2.8c.4 0 .7-.1 1-.4.3-.3.4-.8.4-1.3s-.1-.9-.4-1.1c-.3-.3-.6-.5-1-.5s-.7.2-1 .5c-.3.2-.4.6-.4 1zm0 0"/></symbol><symbol id="i" overflow="visible"><path d="M.5-6.2v-.9H5v.7c-.5.5-.9 1.1-1.3 2A11.4 11.4 0 002.4 0h-1c0-.6.2-1.2.4-2A11 11 0 014-6.2zm0 0"/></symbol><symbol id="j" overflow="visible"><path d="M1.8-3.9C1.4-4 1-4.2 1-4.5.8-4.7.7-5 .7-5.3c0-.6.2-1 .6-1.4.3-.3.8-.5 1.4-.5a2 2 0 011.5.6c.4.3.6.8.6 1.3 0 .3 0 .6-.2.9l-.8.5c.4.2.8.4 1 .7.2.3.3.7.3 1.2a2 2 0 01-.6 1.5c-.5.4-1 .6-1.7.6S1.5 0 1-.5C.6-.9.4-1.5.4-2.1c0-.4.1-.8.3-1.1.3-.4.6-.6 1-.7zm-.2-1.5c0 .4.1.7.3.9.2.2.5.3.9.3.3 0 .6-.1.8-.3.2-.3.3-.5.3-.8a1 1 0 00-.3-.8c-.2-.3-.5-.4-.8-.4-.4 0-.7.1-.9.4a1 1 0 00-.3.7zM1.3-2c0 .3 0 .5.2.8l.5.5.8.2A1.4 1.4 0 004.2-2c0-.5-.1-.8-.4-1-.3-.4-.6-.5-1-.5a1.4 1.4 0 00-1.5 1.4zm0 0"/></symbol><symbol id="k" overflow="visible"><path d="M.5-1.7h.9c0 .4.2.7.4.8.2.2.5.3.8.3.2 0 .5 0 .7-.2l.5-.5L4-2l.2-1v-.3a2 2 0 01-.8.7c-.3.2-.6.3-1 .3A2 2 0 011-3.1C.6-3.5.4-4 .4-4.8s.2-1.3.7-1.7c.4-.5 1-.7 1.6-.7a2.3 2.3 0 012.1 1.5c.2.4.3 1.1.3 2 0 .9 0 1.6-.3 2.2-.2.5-.5 1-.9 1.2-.4.3-.8.4-1.3.4a2 2 0 01-1.4-.4 2 2 0 01-.7-1.4zm3.6-3.1c0-.5-.1-1-.4-1.2-.2-.3-.5-.5-1-.5-.3 0-.7.2-1 .5-.2.3-.4.8-.4 1.3 0 .4.1.8.4 1 .3.4.6.5 1 .5.5 0 .8-.1 1-.4.3-.3.4-.7.4-1.2zm0 0"/></symbol></defs><path d="M317.2 199.2l-11.2 7-11.2 3.2-11.3-2.3-11.2 2-11.2-2.9-11.2 2.9-11.3 6.1-11.2-4.6-11.2-.4-11.2 2-11.3-6.3-11.2 9.6-11.2-2.4-11.2 4.2-11.3-7.3-11.2 8.2-11.2 5.3-11.2-8-11.3 2.5-11.2 3.2-11.2 5-11.2-10.5-11.2 10-11.3-1.4-11.2-10.7-11.2 9.2-11.2.7V249l11.2 1.7 11.2-2.1 11.2 1.8 11.3 3.4 11.2-5 11.2-3.4 11.2 1.4 11.2 8.7 11.3-5.7 11.2-4.5 11.2 1.4 11.2-1.3 11.3-2.6h11.2l11.2 1.7 11.2-.6 11.3-1.4 11.2-.4 11.2-5.6 11.2 10 11.3-5 11.2-5.5 11.2 3.9 11.2-3.3 11.3.2 11.2.7 11.2-2.2 11.2 4.2 11.3-14.5v-24.3l-11.3 5.6z" fill="#57b3e6" fill-opacity=".3"/><path d="M14.2 236.2l11.2.5 11.2-5.6 11.2 6.2 11.3 2.4 11.2-7.6 11.2 3.7 11.2-1.9 11.2 2.8 11.3-4.1 11.2 1.8 11.2-2 11.2-4.7 11.3 2.3 11.2-2.1 11.2 2 11.2-5 11.3 2.4 11.2-1.2 11.2-2.6 11.2 7.3 11.3-5.6 11.2-4.1 11.2 3.3 11.2-2.6 11.3 1.3 11.2-1.3 11.2-4.6 11.2 5.6 11.3-10" fill="none" stroke="#57b3e6" stroke-width="2.0250000000000004" stroke-linejoin="round" stroke-miterlimit="10"/><path d="M339.7 158l-11.3 6.8-11.2.8-11.2-7.5-11.2 6.3-11.3-2.4-11.2 7.2-11.2-.9-11.2 6.3-11.3-5.2-11.2 5.8-11.2-1.1-11.2 8-11.3.4-11.2-1-11.2.2-11.2 2.8-11.3 2-11.2 4.7-11.2-2.6-11.2 2.3-11.3 1.4-11.2-.2-11.2 6.7-11.2-.5-11.2-3-11.3 8-11.2-3.4-11.2-3.5-11.2-4.4v39.6l11.2-6.6 11.2-2.5 11.2 7 11.3-6.5 11.2.6 11.2-1.5 11.2.6 11.2-1.4 11.3 1.7 11.2-10.4 11.2 1.8 11.2 4.5 11.3-7.3 11.2 1.7 11.2-7.5 11.2.1 11.3-.7 11.2.9 11.2 3.9 11.2-6.8 11.3-1L261 201l11.2-5.8 11.2 3.5 11.3-7.4 11.2.4 11.2 2.3 11.2-4.6 11.3 5z" fill="#e69700" fill-opacity=".3"/><path d="M14.2 211.8l11.2-1.1 11.2.5 11.2 5.2 11.3-7.3 11.2 1.8 11.2-.4 11.2-3.1 11.2-.6 11.3.2 11.2-6.4 11.2 2.2 11.2-.1 11.3-4.6 11.2-.6 11.2-3.8 11.2.5 11.3-.5 11.2-3.6 11.2 2.5 11.2-6.3 11.3 2.1 11.2-3.8 11.2-2.4 11.2-1.9 11.3-2.5L306 175l11.2 5 11.2-2.8 11.3-.9" fill="none" stroke="#e69700" stroke-width="2.0250000000000004" stroke-linejoin="round" stroke-miterlimit="10"/><path d="M306 116.5l-11.2 14.8-11.3-7.1-11.2 9.8-11.2-1.3-11.2-2-11.3 7.8-11.2-1.2-11.2 1.6H205l-11.3 4-11.2 12.5-11.2-5-11.2-1.7-11.3 5.2-11.2 3.1-11.2-2.2-11.2 3.4-11.3 2.4-11.2 3.2-11.2-2-11.2 5.8L59 176l-11.3-.5-11.2 4.8-11.2-1.3-11.2-2.2v30.9l11.2 1.5 11.2-2.6 11.2 1.6 11.3-2 11.2-5.2 11.2-7 11.2-3.7 11.2.9 11.3-5.6 11.2 6.6 11.2-8.8 11.2-3.2 11.3-1.1 11.2.7 11.2 7 11.2-8.8 11.3-5.3 11.2-.3 11.2-10.9 11.2 2.5 11.3 4.1 11.2-10.6 11.2.3 11.2 2.6 11.3 2.6 11.2-10.5 11.2-1.2 11.2 6.8 11.3-11.3v-28.6l-11.3 9.4-11.2-5.8z" fill="#00977f" fill-opacity=".3"/><path d="M14.2 192.2l11.2 1.9 11.2-.6 11.2-1.6 11.3-.8 11.2-6.8 11.2-6.4 11.2-.9L104 176l11.3-4 11.2 1.6 11.2-3.3 11.2-3.2 11.3-3.1 11.2 1.3 11.2 5.9 11.2-10.6 11.3-4.6 11.2-.3 11.2-6.2 11.2 1.9 11.3-1.9 11.2-4.3 11.2.8 11.2-3.6 11.3 4.9 11.2-12.7 11.2 2 11.2 6.3 11.3-10.3" fill="none" stroke="#00977f" stroke-width="2.0250000000000004" stroke-linejoin="round" stroke-miterlimit="10"/><path d="M339.7 66.6l-11.3 8.8-11.2 4.5-11.2-2-11.2 5.4-11.3 4.4-11.2 10.8-11.2 2.8-11.2-4-11.3 7.4-11.2-1-11.2-.3-11.2.2-11.3 5.8-11.2 6.9-11.2-.5-11.2 6-11.3 3-11.2-4.5-11.2 8.4-11.2 3.2-11.3 2.9-11.2 6.1-11.2 1-11.2 7.2-11.2-6.6-11.3 1.7-11.2 8.5-11.2 1.5-11.2 8.3v28.2l11.2-1.7 11.2-6.6 11.2.4 11.3-8.3 11.2-2.7 11.2-5.2 11.2 3.5 11.2-5.9 11.3-2.8 11.2 1.1 11.2-3.6 11.2-4 11.3-5.1 11.2-9.4 11.2 2.7 11.2-3.7 11.3.5 11.2-7.6 11.2 3.7 11.2-.7 11.3-8.7 11.2 8 11.2-8.2 11.2-10.8 11.3 3.5 11.2-9.5 11.2 2.2 11.2-6.7 11.3-4.3z" fill="#f0e63f" fill-opacity=".3"/><path d="M14.2 176.6l11.2-5 11.2-4 11.2-4.1 11.3-5 11.2 2 11.2-6.2 11.2 1.2 11.2-6 11.3-2.8 11.2-1 11.2-6 11.2.2 11.3-4.1 11.2-7.7 11.2 1.6 11.2-5.3 11.3-2.7 11.2-3.8 11.2 2 11.2.1 11.3-8 11.2 6 11.2-5.5 11.2-10.8 11.3-.5 11.2-7.5 11.2 2.2 11.2-5.7 11.3-6.5" fill="none" stroke="#f0e63f" stroke-width="2.0250000000000004" stroke-linejoin="round" stroke-miterlimit="10"/><path d="M339.7 32l-11.3.5-11.2 8.5-11.2-7.6-11.2 7.5-11.3 11.7-11.2-1.7-11.2 6.8-11.2 3-11.3-1.2-11.2 12.2-11.2 3.2-11.2 1-11.3 6.2-11.2-6.1-11.2 12-11.2 1.6-11.3 6-11.2 5.6-11.2.2-11.2 2-11.3 9.2-11.2-6.6-11.2 8-11.2 2.8-11.2 9.7-11.3-2.4-11.2 7-11.2 5.8-11.2 3v31.4l11.2-3.5 11.2-4.7 11.2-.3 11.3-8.4 11.2-5.5 11.2-3.6 11.2-4.4 11.2 2.9 11.3-11.6 11.2-4.3 11.2.2 11.2-7.4 11.3 3.7 11.2-9.5 11.2-8.3 11.2 7.4 11.3-10.5 11.2-2.6 11.2-2 11.2-2.5L250 92l11.2-5.7 11.2-2.6 11.2-1.7 11.3-8.8 11.2-7.7 11.2 2 11.2-4.6 11.3-4.8z" fill="#ca97b3" fill-opacity=".3"/><path d="M14.2 155.6l11.2-3.2 11.2-5.3 11.2-3.6 11.3-3 11.2-7.7 11.2-3.2 11.2-6.2 11.2 4.8 11.3-10.4 11.2-3.2h11.2l11.2-6.4 11.3-1.2 11.2-5.6 11.2-10 11.2 6.7 11.3-8.4 11.2-1.8 11.2-2.6 11.2-7.4 11.3-1.5L261 72l11.2-4.7h11.2l11.3-10.2 11.2-7.6 11.2 4.8 11.2-6.5 11.3-2.7" fill="none" stroke="#ca97b3" stroke-width="2.0250000000000004" stroke-linejoin="round" stroke-miterlimit="10"/><path d="M14.2 260.3h325.5M14.2 3h325.5M14.2 260.3v-3.2M46.7 260.3v-3.2M79.3 260.3v-3.2M111.8 260.3v-3.2M144.4 260.3v-3.2M177 260.3v-3.2M209.5 260.3v-3.2M242 260.3v-3.2M274.6 260.3v-3.2M307.1 260.3v-3.2M339.7 260.3v-3.2M14.2 3v3.3M46.7 3v3.3M79.3 3v3.3M111.8 3v3.3M144.4 3v3.3M177 3v3.3M209.5 3v3.3M242 3v3.3M274.6 3v3.3M307.1 3v3.3M339.7 3v3.3" fill="none" stroke="#232323" stroke-width=".5249999999999999" stroke-linecap="square" stroke-linejoin="round" stroke-miterlimit="10"/><use height="100%" width="100%" y="533.5" x="147.8" xlink:href="#a" fill="#232323" transform="translate(-136.6 -258.7)"/><g fill="#232323" transform="translate(-136.6 -258.7)"><use height="100%" width="100%" y="533.5" x="176.2" xlink:href="#a"/><use height="100%" width="100%" y="533.5" x="181.7" xlink:href="#b"/><use height="100%" width="100%" y="533.5" x="184.5" xlink:href="#c"/></g><g fill="#232323" transform="translate(-136.6 -258.7)"><use height="100%" width="100%" y="533.5" x="208.7" xlink:href="#a"/><use height="100%" width="100%" y="533.5" x="214.3" xlink:href="#b"/><use height="100%" width="100%" y="533.5" x="217.1" xlink:href="#d"/></g><g fill="#232323" transform="translate(-136.6 -258.7)"><use height="100%" width="100%" y="533.5" x="241.3" xlink:href="#a"/><use height="100%" width="100%" y="533.5" x="246.8" xlink:href="#b"/><use height="100%" width="100%" y="533.5" x="249.6" xlink:href="#e"/></g><g fill="#232323" transform="translate(-136.6 -258.7)"><use height="100%" width="100%" y="533.5" x="273.8" xlink:href="#a"/><use height="100%" width="100%" y="533.5" x="279.4" xlink:href="#b"/><use height="100%" width="100%" y="533.5" x="282.2" xlink:href="#f"/></g><g fill="#232323" transform="translate(-136.6 -258.7)"><use height="100%" width="100%" y="533.5" x="306.4" xlink:href="#a"/><use height="100%" width="100%" y="533.5" x="311.9" xlink:href="#b"/><use height="100%" width="100%" y="533.5" x="314.7" xlink:href="#g"/></g><g fill="#232323" transform="translate(-136.6 -258.7)"><use height="100%" width="100%" y="533.5" x="338.9" xlink:href="#a"/><use height="100%" width="100%" y="533.5" x="344.5" xlink:href="#b"/><use height="100%" width="100%" y="533.5" x="347.3" xlink:href="#h"/></g><g fill="#232323" transform="translate(-136.6 -258.7)"><use height="100%" width="100%" y="533.5" x="371.5" xlink:href="#a"/><use height="100%" width="100%" y="533.5" x="377" xlink:href="#b"/><use height="100%" width="100%" y="533.5" x="379.8" xlink:href="#i"/></g><g fill="#232323" transform="translate(-136.6 -258.7)"><use height="100%" width="100%" y="533.5" x="404" xlink:href="#a"/><use height="100%" width="100%" y="533.5" x="409.6" xlink:href="#b"/><use height="100%" width="100%" y="533.5" x="412.4" xlink:href="#j"/></g><g fill="#232323" transform="translate(-136.6 -258.7)"><use height="100%" width="100%" y="533.5" x="436.6" xlink:href="#a"/><use height="100%" width="100%" y="533.5" x="442.1" xlink:href="#b"/><use height="100%" width="100%" y="533.5" x="444.9" xlink:href="#k"/></g><use height="100%" width="100%" y="533.5" x="473.3" xlink:href="#c" fill="#232323" transform="translate(-136.6 -258.7)"/><path d="M14.2 260.3V3.1M339.7 260.3V3.1M14.2 260.3h3.2M14.2 217.4h3.2M14.2 174.6h3.2M14.2 131.7h3.2M14.2 88.8h3.2M14.2 46h3.2M14.2 3h3.2M339.7 260.3h-3.3M339.7 217.4h-3.3M339.7 174.6h-3.3M339.7 131.7h-3.3M339.7 88.8h-3.3M339.7 46h-3.3M339.7 3h-3.3" fill="none" stroke="#232323" stroke-width=".5249999999999999" stroke-linecap="square" stroke-linejoin="round" stroke-miterlimit="10"/><use height="100%" width="100%" y="523.1" x="140.8" xlink:href="#a" fill="#232323" transform="translate(-136.6 -258.7)"/><use height="100%" width="100%" y="480.3" x="140.8" xlink:href="#d" fill="#232323" transform="translate(-136.6 -258.7)"/><use height="100%" width="100%" y="437.4" x="140.8" xlink:href="#f" fill="#232323" transform="translate(-136.6 -258.7)"/><use height="100%" width="100%" y="394.5" x="140.8" xlink:href="#h" fill="#232323" transform="translate(-136.6 -258.7)"/><use height="100%" width="100%" y="351.6" x="140.8" xlink:href="#j" fill="#232323" transform="translate(-136.6 -258.7)"/><g fill="#232323" transform="translate(-136.6 -258.7)"><use height="100%" width="100%" y="308.8" x="135.5" xlink:href="#c"/><use height="100%" width="100%" y="308.8" x="141.1" xlink:href="#a"/></g><g fill="#232323" transform="translate(-136.6 -258.7)"><use height="100%" width="100%" y="265.9" x="135.5" xlink:href="#c"/><use height="100%" width="100%" y="265.9" x="141.1" xlink:href="#d"/></g></svg>