<svg xmlns="http://www.w3.org/2000/svg" xmlns:xlink="http://www.w3.org/1999/xlink" version="1.2" viewBox="0 0 314 139.9" height="186.6" width="418.7"><defs><symbol id="a" overflow="visible"><path d="M.3-2.2V-3H3v.8zm0 0"/></symbol><symbol id="b" overflow="visible"><path d="M5-.8V0H.3l.1-.6c.1-.3.3-.7.6-1l1.1-1 1.6-1.6c.3-.3.4-.7.4-1 0-.4-.1-.7-.3-.9-.3-.2-.6-.4-1-.4s-.8.2-1 .4c-.3.3-.4.6-.4 1h-1c.1-.7.4-1.2.8-1.6.4-.3 1-.5 1.6-.5.7 0 1.2.2 1.6.6.4.4.6.8.6 1.4 0 .3 0 .6-.2.9 0 .2-.3.5-.5.8L2.9-2.2A14.3 14.3 0 001.5-.8zm0 0"/></symbol><symbol id="c" overflow="visible"><path d="M3.7 0h-.9v-5.6a4.8 4.8 0 01-1.7 1v-.8l1.3-.8.8-1h.5zm0 0"/></symbol><symbol id="d" overflow="visible"><path d="M.4-3.5c0-.9.1-1.6.3-2 .1-.6.4-1 .8-1.3a2 2 0 011.3-.4c.3 0 .7 0 1 .2l.7.7.4 1 .2 1.8c0 .8-.1 1.5-.3 2-.2.5-.4 1-.8 1.2a2 2 0 01-1.3.4 2 2 0 01-1.6-.7c-.4-.6-.7-1.6-.7-3zm1 0c0 1.1 0 2 .3 2.3.3.4.6.6 1 .6.5 0 .8-.2 1-.6.3-.4.5-1.2.5-2.3 0-1.2-.2-2-.4-2.4-.3-.4-.7-.6-1-.6-.5 0-.8.2-1 .5-.3.5-.5 1.3-.5 2.5zm0 0"/></symbol><symbol id="e" overflow="visible"><path d="M.4-1.9l.9-.1c.1.5.3.9.5 1 .3.3.5.4.9.4s.8-.1 1-.4c.3-.3.5-.7.5-1 0-.5-.2-.8-.4-1-.3-.4-.6-.5-1-.5l-.6.1v-.8h.2c.4 0 .7 0 1-.2.3-.2.5-.5.5-1a1 1 0 00-.4-.7c-.2-.3-.5-.4-.8-.4-.4 0-.6.1-.9.4-.2.2-.3.5-.4 1l-.9-.2c.1-.6.4-1 .7-1.4.4-.3.9-.5 1.5-.5.4 0 .7.1 1 .3.4.1.6.4.8.7.2.2.3.6.3.9 0 .3-.1.6-.3.8-.2.3-.4.5-.7.6.4.1.7.3 1 .6.2.3.3.7.3 1.2 0 .6-.2 1.1-.7 1.6-.4.4-1 .6-1.7.6-.6 0-1.2-.2-1.6-.5C.7-.8.5-1.3.4-2zm0 0"/></symbol><symbol id="f" overflow="visible"><path d="M3.2 0v-1.7h-3v-.8l3.2-4.7H4v4.7h1v.8H4V0zm0-2.5v-3.3L1-2.5zm0 0"/></symbol><symbol id="g" overflow="visible"><path d="M.4-1.9h1c0 .4.2.7.4 1 .3.2.6.3 1 .3.3 0 .7-.2 1-.5.3-.3.4-.7.4-1.2s-.1-1-.4-1.2A1.5 1.5 0 002-3.7c-.2 0-.4.2-.5.4H.6l.7-3.8h3.5v.9H2l-.4 1.9c.4-.3.9-.5 1.3-.5.7 0 1.2.3 1.6.7a2.6 2.6 0 010 3.3c-.4.6-1 1-1.8 1-.6 0-1.2-.3-1.6-.6C.7-.8.5-1.3.4-2zm0 0"/></symbol><symbol id="h" overflow="visible"><path d="M5-5.4H4c0-.3-.2-.5-.3-.7-.3-.2-.6-.4-1-.4l-.6.3a2 2 0 00-.7.9c-.2.3-.2.9-.3 1.6a2 2 0 011.8-1c.6 0 1 .3 1.5.7.4.4.6 1 .6 1.7 0 .4 0 .8-.3 1.2a2.2 2.2 0 01-2 1.2C2.2.1 1.6 0 1.2-.7.6-1.2.4-2 .4-3.3c0-1.4.2-2.4.7-3 .5-.6 1-.9 1.8-.9.6 0 1 .2 1.4.5.4.3.6.7.7 1.3zm-3.6 3c0 .4 0 .7.2 1a1.4 1.4 0 001.2.8c.4 0 .7-.1 1-.4.3-.3.4-.8.4-1.3s-.1-.9-.4-1.1c-.3-.3-.6-.5-1-.5s-.7.2-1 .5c-.3.2-.4.6-.4 1zm0 0"/></symbol><symbol id="i" overflow="visible"><path d="M1 0v-1h1v1zm0 0"/></symbol></defs><path d="M109.7 16l-5 20L100 55l-5 24.1-5 10-4.8-2.2-5 .4-5 .5-4.8-2.2-5 6.9-5-4.5-4.8 5-5-2.3-4.9 1.9-5-3.1-4.9 1.2-4.9-5.5-5 2.8H21v23.4l5 2 4.9-3.2 5 .3 4.9-.1 4.9.5 5 6 4.9-6.7 4.9-1.8 5 7.4 4.9-1.7 4.9.3 5-5.6 4.9 6.3 4.9-2 5-13 4.9-26.5 4.9-2 5-19.8 4.8 1.6 5 2.7 5-2.1 4.8 3.3 5 6.3 5-1.6 4.8 8.4h5l4.9 12 5 2.4 4.9-5 4.9 10.6 5 8.3 4.9-9 4.9 7 5-6 4.9 12.6 4.9-11.6 5 8.4 4.9 2.9 4.9-5.3 5 .5 4.9 8.2L228 122l5-6.1 4.9-9 4.9-1 5 3.8 4.9 5.7 4.9-9.4 5 8.5 4.8-5.1 5-.5 5 .8 4.8 6.7 5-7.3 5 .9 4.8 8.3 5-3 4.9-1.9 5-1.9V84.2l-5-.2-5 4.7-4.9 1.5-4.9-.7-5 1.4-4.9-4-4.9-.4-5-.2-4.9 4.3-4.9-1-5-7.5-4.8 4.8-5 5-5-11.3-4.8-10.9-5 18-5-5-4.8-1.5-5-6.4-5 8.9-4.8-3.3-5-1.6-4.9-5.5-5 .9-4.9-6.6-4.9 5.2-5-2-4.9 1.4-4.9-9.8-5-10.3-4.9 3.8-4.9-10.5-5 1.1-4.9-5.7-4.9-.6-5-4.9-4.9-5.3-4.9 4.7-5-3-4.9 5.5z" fill="#57b3e6" fill-opacity=".3"/><path d="M21 99.8l4.9 1 4.9-3 5 2.9 4.9-.7 4.9 1.8 5 2 4.9-2 4.9-3.5 5 6 4.9-4.3 4.9 1.2 5-3L85 101H90l5-11.3 4.9-25.4 4.9-10.6 5-19.8 4.8 11.4 5-1.4 5 .4 4.8-.7 5 5.8 5 1.6 4.8 4.6 5 2.8 5 5.4 4.8 6.5 5-4.4 4.9 10.4 5 9.1 4.9-5.2 4.9 4.5 5-5.6 4.9 9.6 4.9-6.3 5 7 4.9 2.2 4.9-1 5-4.2 4.9 7.4 4.9 8.5 5-.6 4.9-13.4 4.9 4.9 5 7.5 4.8.3 5-7 5 7.9 4.8-2 5-2.4 5 .5 4.8 3.6 5-1.7 5-.3 4.8 4.6 5-2.3 4.9-3.3 5-.8" fill="none" stroke="#57b3e6" stroke-width="2.0250000000000004" stroke-linejoin="round" stroke-miterlimit="10"/><path d="M21 125.3h291M21 3h291M21 125.3v-2.9M57.3 125.3v-2.9M93.7 125.3v-2.9M130 125.3v-2.9M166.4 125.3v-2.9M202.8 125.3v-2.9M239.2 125.3v-2.9M275.6 125.3v-2.9M312 125.3v-2.9M21 3v3M57.3 3v3M93.7 3v3M130 3v3M166.4 3v3M202.8 3v3M239.2 3v3M275.6 3v3M312 3v3" fill="none" stroke="#232323" stroke-width=".5249999999999999" stroke-linecap="square" stroke-linejoin="round" stroke-miterlimit="10"/><g fill="#232323" transform="translate(-146.3 -329.2)"><use height="100%" width="100%" y="469" x="162.8" xlink:href="#a"/><use height="100%" width="100%" y="469" x="166.1" xlink:href="#b"/></g><g fill="#232323" transform="translate(-146.3 -329.2)"><use height="100%" width="100%" y="469" x="199.1" xlink:href="#a"/><use height="100%" width="100%" y="469" x="202.5" xlink:href="#c"/></g><use height="100%" width="100%" y="469" x="237" xlink:href="#d" fill="#232323" transform="translate(-146.3 -329.2)"/><use height="100%" width="100%" y="469" x="273.4" xlink:href="#c" fill="#232323" transform="translate(-146.3 -329.2)"/><use height="100%" width="100%" y="469" x="309.8" xlink:href="#b" fill="#232323" transform="translate(-146.3 -329.2)"/><use height="100%" width="100%" y="469" x="346.1" xlink:href="#e" fill="#232323" transform="translate(-146.3 -329.2)"/><use height="100%" width="100%" y="469" x="382.5" xlink:href="#f" fill="#232323" transform="translate(-146.3 -329.2)"/><use height="100%" width="100%" y="469" x="418.9" xlink:href="#g" fill="#232323" transform="translate(-146.3 -329.2)"/><use height="100%" width="100%" y="469" x="455.3" xlink:href="#h" fill="#232323" transform="translate(-146.3 -329.2)"/><path d="M21 125.3V3.1M312 125.3V3.1M21 125.3h2.8M21 100.9h2.8M21 76.4h2.8M21 52h2.8M21 27.5h2.8M21 3h2.8M312 125.3h-3M312 100.9h-3M312 76.4h-3M312 52h-3M312 27.5h-3M312 3h-3" fill="none" stroke="#232323" stroke-width=".5249999999999999" stroke-linecap="square" stroke-linejoin="round" stroke-miterlimit="10"/><g fill="#232323" transform="translate(-146.3 -329.2)"><use height="100%" width="100%" y="458.6" x="146" xlink:href="#a"/><use height="100%" width="100%" y="458.6" x="149.3" xlink:href="#d"/><use height="100%" width="100%" y="458.6" x="154.9" xlink:href="#i"/><use height="100%" width="100%" y="458.6" x="157.7" xlink:href="#c"/></g><use height="100%" width="100%" y="434.2" x="157.3" xlink:href="#d" fill="#232323" transform="translate(-146.3 -329.2)"/><g fill="#232323" transform="translate(-146.3 -329.2)"><use height="100%" width="100%" y="409.7" x="149" xlink:href="#d"/><use height="100%" width="100%" y="409.7" x="154.6" xlink:href="#i"/><use height="100%" width="100%" y="409.7" x="157.3" xlink:href="#c"/></g><g fill="#232323" transform="translate(-146.3 -329.2)"><use height="100%" width="100%" y="385.3" x="149" xlink:href="#d"/><use height="100%" width="100%" y="385.3" x="154.6" xlink:href="#i"/><use height="100%" width="100%" y="385.3" x="157.3" xlink:href="#b"/></g><g fill="#232323" transform="translate(-146.3 -329.2)"><use height="100%" width="100%" y="360.8" x="149" xlink:href="#d"/><use height="100%" width="100%" y="360.8" x="154.6" xlink:href="#i"/><use height="100%" width="100%" y="360.8" x="157.3" xlink:href="#e"/></g><g fill="#232323" transform="translate(-146.3 -329.2)"><use height="100%" width="100%" y="336.4" x="149" xlink:href="#d"/><use height="100%" width="100%" y="336.4" x="154.6" xlink:href="#i"/><use height="100%" width="100%" y="336.4" x="157.3" xlink:href="#f"/></g></svg>