<svg xmlns="http://www.w3.org/2000/svg" xmlns:xlink="http://www.w3.org/1999/xlink" version="1.2" viewBox="0 0 314 139.9" height="186.6" width="418.7"><defs><symbol id="a" overflow="visible"><path d="M.3-2.2V-3H3v.8zm0 0"/></symbol><symbol id="b" overflow="visible"><path d="M5-.8V0H.3l.1-.6c.1-.3.3-.7.6-1l1.1-1 1.6-1.6c.3-.3.4-.7.4-1 0-.4-.1-.7-.3-.9-.3-.2-.6-.4-1-.4s-.8.2-1 .4c-.3.3-.4.6-.4 1h-1c.1-.7.4-1.2.8-1.6.4-.3 1-.5 1.6-.5.7 0 1.2.2 1.6.6.4.4.6.8.6 1.4 0 .3 0 .6-.2.9 0 .2-.3.5-.5.8L2.9-2.2A14.3 14.3 0 001.5-.8zm0 0"/></symbol><symbol id="c" overflow="visible"><path d="M3.7 0h-.9v-5.6a4.8 4.8 0 01-1.7 1v-.8l1.3-.8.8-1h.5zm0 0"/></symbol><symbol id="d" overflow="visible"><path d="M.4-3.5c0-.9.1-1.6.3-2 .1-.6.4-1 .8-1.3a2 2 0 011.3-.4c.3 0 .7 0 1 .2l.7.7.4 1 .2 1.8c0 .8-.1 1.5-.3 2-.2.5-.4 1-.8 1.2a2 2 0 01-1.3.4 2 2 0 01-1.6-.7c-.4-.6-.7-1.6-.7-3zm1 0c0 1.1 0 2 .3 2.3.3.4.6.6 1 .6.5 0 .8-.2 1-.6.3-.4.5-1.2.5-2.3 0-1.2-.2-2-.4-2.4-.3-.4-.7-.6-1-.6-.5 0-.8.2-1 .5-.3.5-.5 1.3-.5 2.5zm0 0"/></symbol><symbol id="e" overflow="visible"><path d="M.4-1.9l.9-.1c.1.5.3.9.5 1 .3.3.5.4.9.4s.8-.1 1-.4c.3-.3.5-.7.5-1 0-.5-.2-.8-.4-1-.3-.4-.6-.5-1-.5l-.6.1v-.8h.2c.4 0 .7 0 1-.2.3-.2.5-.5.5-1a1 1 0 00-.4-.7c-.2-.3-.5-.4-.8-.4-.4 0-.6.1-.9.4-.2.2-.3.5-.4 1l-.9-.2c.1-.6.4-1 .7-1.4.4-.3.9-.5 1.5-.5.4 0 .7.1 1 .3.4.1.6.4.8.7.2.2.3.6.3.9 0 .3-.1.6-.3.8-.2.3-.4.5-.7.6.4.1.7.3 1 .6.2.3.3.7.3 1.2 0 .6-.2 1.1-.7 1.6-.4.4-1 .6-1.7.6-.6 0-1.2-.2-1.6-.5C.7-.8.5-1.3.4-2zm0 0"/></symbol><symbol id="f" overflow="visible"><path d="M3.2 0v-1.7h-3v-.8l3.2-4.7H4v4.7h1v.8H4V0zm0-2.5v-3.3L1-2.5zm0 0"/></symbol><symbol id="g" overflow="visible"><path d="M.4-1.9h1c0 .4.2.7.4 1 .3.2.6.3 1 .3.3 0 .7-.2 1-.5.3-.3.4-.7.4-1.2s-.1-1-.4-1.2A1.5 1.5 0 002-3.7c-.2 0-.4.2-.5.4H.6l.7-3.8h3.5v.9H2l-.4 1.9c.4-.3.9-.5 1.3-.5.7 0 1.2.3 1.6.7a2.6 2.6 0 010 3.3c-.4.6-1 1-1.8 1-.6 0-1.2-.3-1.6-.6C.7-.8.5-1.3.4-2zm0 0"/></symbol><symbol id="h" overflow="visible"><path d="M5-5.4H4c0-.3-.2-.5-.3-.7-.3-.2-.6-.4-1-.4l-.6.3a2 2 0 00-.7.9c-.2.3-.2.9-.3 1.6a2 2 0 011.8-1c.6 0 1 .3 1.5.7.4.4.6 1 .6 1.7 0 .4 0 .8-.3 1.2a2.2 2.2 0 01-2 1.2C2.2.1 1.6 0 1.2-.7.6-1.2.4-2 .4-3.3c0-1.4.2-2.4.7-3 .5-.6 1-.9 1.8-.9.6 0 1 .2 1.4.5.4.3.6.7.7 1.3zm-3.6 3c0 .4 0 .7.2 1a1.4 1.4 0 001.2.8c.4 0 .7-.1 1-.4.3-.3.4-.8.4-1.3s-.1-.9-.4-1.1c-.3-.3-.6-.5-1-.5s-.7.2-1 .5c-.3.2-.4.6-.4 1zm0 0"/></symbol><symbol id="i" overflow="visible"><path d="M1 0v-1h1v1zm0 0"/></symbol></defs><path d="M21 125.3h291M21 3h291M21 125.3v-2.9M57.3 125.3v-2.9M93.7 125.3v-2.9M130 125.3v-2.9M166.4 125.3v-2.9M202.8 125.3v-2.9M239.2 125.3v-2.9M275.6 125.3v-2.9M312 125.3v-2.9M21 3v3M57.3 3v3M93.7 3v3M130 3v3M166.4 3v3M202.8 3v3M239.2 3v3M275.6 3v3M312 3v3" fill="none" stroke="#232323" stroke-width=".5249999999999999" stroke-linecap="square" stroke-linejoin="round" stroke-miterlimit="10"/><g fill="#232323" transform="translate(-146.3 -329.2)"><use height="100%" width="100%" y="469" x="162.8" xlink:href="#a"/><use height="100%" width="100%" y="469" x="166.1" xlink:href="#b"/></g><g fill="#232323" transform="translate(-146.3 -329.2)"><use height="100%" width="100%" y="469" x="199.1" xlink:href="#a"/><use height="100%" width="100%" y="469" x="202.5" xlink:href="#c"/></g><use height="100%" width="100%" y="469" x="237" xlink:href="#d" fill="#232323" transform="translate(-146.3 -329.2)"/><use height="100%" width="100%" y="469" x="273.4" xlink:href="#c" fill="#232323" transform="translate(-146.3 -329.2)"/><use height="100%" width="100%" y="469" x="309.8" xlink:href="#b" fill="#232323" transform="translate(-146.3 -329.2)"/><use height="100%" width="100%" y="469" x="346.1" xlink:href="#e" fill="#232323" transform="translate(-146.3 -329.2)"/><use height="100%" width="100%" y="469" x="382.5" xlink:href="#f" fill="#232323" transform="translate(-146.3 -329.2)"/><use height="100%" width="100%" y="469" x="418.9" xlink:href="#g" fill="#232323" transform="translate(-146.3 -329.2)"/><use height="100%" width="100%" y="469" x="455.3" xlink:href="#h" fill="#232323" transform="translate(-146.3 -329.2)"/><path d="M21 125.3V3.1M312 125.3V3.1M21 125.3h2.8M21 84.6h2.8M21 43.8h2.8M21 3h2.8M312 125.3h-3M312 84.6h-3M312 43.8h-3M312 3h-3" fill="none" stroke="#232323" stroke-width=".5249999999999999" stroke-linecap="square" stroke-linejoin="round" stroke-miterlimit="10"/><g fill="#232323" transform="translate(-146.3 -329.2)"><use height="100%" width="100%" y="458.6" x="146" xlink:href="#a"/><use height="100%" width="100%" y="458.6" x="149.3" xlink:href="#d"/><use height="100%" width="100%" y="458.6" x="154.9" xlink:href="#i"/><use height="100%" width="100%" y="458.6" x="157.7" xlink:href="#b"/></g><use height="100%" width="100%" y="417.9" x="157.3" xlink:href="#d" fill="#232323" transform="translate(-146.3 -329.2)"/><g fill="#232323" transform="translate(-146.3 -329.2)"><use height="100%" width="100%" y="377.1" x="149" xlink:href="#d"/><use height="100%" width="100%" y="377.1" x="154.6" xlink:href="#i"/><use height="100%" width="100%" y="377.1" x="157.3" xlink:href="#b"/></g><g fill="#232323" transform="translate(-146.3 -329.2)"><use height="100%" width="100%" y="336.4" x="149" xlink:href="#d"/><use height="100%" width="100%" y="336.4" x="154.6" xlink:href="#i"/><use height="100%" width="100%" y="336.4" x="157.3" xlink:href="#f"/></g><path d="M311.7 74c0 .4-.4.8-.8.8a.8.8 0 11.8-.9zm-4 16.8c0 .4-.4.8-.9.8a.8.8 0 11.8-.8zm-5-5.6c0 .5-.4.9-.9.9a.8.8 0 11.9-.9zm-5.3 12.9a.8.8 0 01-1.6 0c0-.5.3-.9.8-.9s.8.4.8.9zm-4.9-6.2c0 .5-.4.8-.8.8a.8.8 0 11.8-.8zm-4.4-10.8a.8.8 0 01-1.7 0 .8.8 0 011.7 0zm-5 29a.8.8 0 01-1.6 0c0-.5.3-.8.8-.8s.8.3.8.8zm-4.5-21.2a.8.8 0 11-1.7 0 .8.8 0 111.7 0zM273 78.4a.8.8 0 11-1.7 0 .8.8 0 111.7 0zm-4 3.2a.8.8 0 11-1.7 0 .8.8 0 011.6 0zm-5.7 6.6c0 .4-.3.8-.8.8a.8.8 0 010-1.7c.5 0 .8.4.8.9zm-4.7-19.3c0 .5-.3.9-.8.9a.8.8 0 11.8-.9zM254 84a.8.8 0 11-1.6 0 .8.8 0 011.6 0zm-5.6-2.8a.8.8 0 11-1.7 0 .8.8 0 111.7 0zm-4.2-5.6a.8.8 0 11-1.6 0 .8.8 0 011.6 0zm-5.4-6.5c0 .5-.4.9-.8.9a.8.8 0 11.8-.9zm-4.8 16.5a.8.8 0 11-1.7 0 .8.8 0 011.7 0zM228 95.8c0 .5-.3.9-.8.9a.8.8 0 11.8-.9zm-3.6-14.6a.8.8 0 11-1.7 0 .8.8 0 011.7 0zm-5.2-16.6a.8.8 0 11-1.6 0 .8.8 0 011.6 0zm-5.5 12.7c0 .5-.3.8-.8.8a.8.8 0 11.8-.8zm-4-7c0 .5-.5.9-1 .9a.8.8 0 111-.9zm-5-7.6a.8.8 0 01-1.7 0 .8.8 0 011.7 0zm-6.2-9a.8.8 0 11-1.6 0 .8.8 0 011.6 0zm-4.3 13.6c0 .5-.4.9-.8.9a.8.8 0 11.8-.9zm-4.7 10.1a.8.8 0 11-1.7 0 .8.8 0 011.7 0zm-5.6-14.9a.8.8 0 11-1.7 0 .8.8 0 011.7 0zm-4 15.7a.8.8 0 11-1.7 0 .8.8 0 011.7 0zm-5.1 8.3c0 .4-.4.8-.9.8a.8.8 0 010-1.7c.5 0 .9.4.9.9zm-5-35.9a.8.8 0 11-1.6 0 .8.8 0 111.7 0zm-4.7-15.8a.8.8 0 11-1.6 0 .8.8 0 011.6 0zm-5.7 38.7a.8.8 0 11-1.6 0 .8.8 0 111.6 0zm-4.9-16.7c0 .5-.3.9-.8.9a.8.8 0 11.8-.9zm-4.4-12.7a.8.8 0 01-1.7 0 .8.8 0 011.7 0zm-4.1 5.4a.8.8 0 11-1.7 0 .8.8 0 011.7 0zm-6.2-1a.8.8 0 11-1.6 0 .8.8 0 011.6 0zm-4.5 3.1a.8.8 0 11-1.7 0 .8.8 0 011.7 0zm-6-17a.8.8 0 01-1.6 0c0-.5.4-.9.8-.9.5 0 .9.4.9.9zm-3.6 3.1c0 .5-.3.9-.8.9a.8.8 0 11.8-.9zm-5.9 14a.8.8 0 11-1.6 0 .8.8 0 011.6 0zM115.4 31c0 .4-.4.8-.9.8a.8.8 0 11.9-.8zm-5-8c0 .4-.4.8-.9.8a.8.8 0 010-1.7c.5 0 .9.4.9.9zm-5.1 6.2a.8.8 0 01-1.7 0c0-.4.4-.8.8-.8.5 0 .9.4.9.8zm-4.4 13.8a.8.8 0 01-1.6 0 .8.8 0 111.6 0zm-5.6 33.4c0 .5-.4.9-.9.9a.8.8 0 010-1.7c.5 0 .9.4.9.8zm-4.7 13.8a.8.8 0 11-1.6 0 .8.8 0 011.6 0zm-4.8-17.8a.8.8 0 11-1.7 0 .8.8 0 011.7 0zm-5 16a.8.8 0 11-1.7 0 .8.8 0 111.6 0zM76 82.9a.8.8 0 11-1.6 0 .8.8 0 111.6 0zM70.5 109a.8.8 0 11-1.7 0 .8.8 0 011.7 0zm-4.7-22.8a.8.8 0 11-1.7 0 .8.8 0 011.7 0zm-4.1 11.1a.8.8 0 11-1.7 0 .8.8 0 011.7 0zm-5.2-8.2a.8.8 0 11-1.6 0 .8.8 0 111.6 0zm-5 1.4a.8.8 0 11-1.7 0 .8.8 0 111.6 0zm-5.6-.1a.8.8 0 11-1.6 0 .8.8 0 011.6 0zm-4.5 2a.8.8 0 11-1.7 0 .8.8 0 011.7 0zm-5.7-11a.8.8 0 01-1.7 0c0-.4.4-.8.9-.8.4 0 .8.4.8.8zm-3.8-5.4a.8.8 0 11-1.7 0 .8.8 0 011.7 0zm-5.7 21a.8.8 0 11-1.7 0 .8.8 0 011.7 0zm-3.8-23.5a.8.8 0 01-1.6 0 .8.8 0 011.6 0zm290.4 10.3c0 .5-.4.9-.9.9a.8.8 0 010-1.7c.5 0 .9.4.9.8zm-4 15.2a.8.8 0 01-1.7 0 .8.8 0 111.7 0zm-6.2-22.6a.8.8 0 11-1.7 0 .8.8 0 011.7 0zM297 84a.8.8 0 01-1.6 0 .8.8 0 011.6 0zm-4.2 4a.8.8 0 11-1.6-.1.8.8 0 011.6 0zm-5-11a.8.8 0 01-1.7 0 .8.8 0 111.7 0zm-4.4-6.9a.8.8 0 11-1.6 0 .8.8 0 011.6 0zm-5.3 10.2a.8.8 0 11-1.6 0 .8.8 0 011.6 0zM273 77a.8.8 0 01-1.7 0 .8.8 0 011.7 0zm-4.6-4.7a.8.8 0 11-1.7 0 .8.8 0 011.7 0zm-5.2 17a.8.8 0 11-1.7 0 .8.8 0 111.7 0zm-3.9-29a.8.8 0 11-1.6 0 .8.8 0 011.6 0zm-5.8 32.8c0 .5-.4.9-.8.9a.8.8 0 11.8-.9zm-4.9-5.8a.8.8 0 11-1.6 0 .8.8 0 011.6 0zm-5.2 5a.8.8 0 11-1.6 0 .8.8 0 111.6 0zm-4.4 4.3c0 .4-.3.8-.8.8a.8.8 0 11.8-.8zm-4.9-20.3a.8.8 0 11-1.7 0 .8.8 0 011.7 0zm-5.7 23.3a.8.8 0 11-1.7 0 .8.8 0 011.7 0zm-4-26.5a.8.8 0 11-1.6 0 .8.8 0 111.7 0zM219.4 88a.8.8 0 11-1.7 0 .8.8 0 011.7 0zm-4.8-15a.8.8 0 11-1.7 0 .8.8 0 111.7 0zm-5.1 1.4c0 .4-.4.8-.8.8a.8.8 0 11.8-.8zm-5-4a.8.8 0 11-1.6 0 .8.8 0 011.6 0zm-5.1-2.4a.8.8 0 11-1.7 0 .8.8 0 011.7 0zm-5.5 27a.8.8 0 11-1.6 0 .8.8 0 011.6 0zm-4.7-33.5c0 .5-.4.9-.9.9a.8.8 0 010-1.7c.5 0 .9.4.9.8zm-5.6 25.9a.8.8 0 11-1.6 0 .8.8 0 011.6 0zm-4-20.2a.8.8 0 11-1.7 0 .8.8 0 011.6 0zm-4.6 13.8a.8.8 0 11-1.6 0 .8.8 0 011.6 0zm-4.6-23.7a.8.8 0 11-1.6 0 .8.8 0 111.6 0zm-5-.2a.8.8 0 11-1.7 0 .8.8 0 011.7 0zm-4.8 14a.8.8 0 01-1.7 0 .8.8 0 011.7 0zm-5-21a.8.8 0 11-1.7 0 .8.8 0 011.7 0zm-6.4 6.7a.8.8 0 01-1.6 0 .8.8 0 011.6 0zm-4.4-5.5a.8.8 0 11-1.7 0 .8.8 0 011.7 0zm-4.4-1a.8.8 0 11-1.7 0 .8.8 0 011.7 0zM134.7 26a.8.8 0 11-1.6 0 .8.8 0 011.6 0zm-3.9 7.6a.8.8 0 11-1.7 0 .8.8 0 011.7 0zm-5-2a.8.8 0 11-1.7 0 .8.8 0 011.7 0zm-5.5 12.5a.8.8 0 11-1.6 0 .8.8 0 011.6 0zm-5-7.4c0 .5-.4.9-.9.9a.8.8 0 010-1.7c.5 0 .8.4.8.8zm-5.2-25a.8.8 0 11-1.6 0 .8.8 0 111.6 0zm-5.2 28a.8.8 0 11-1.7 0 .8.8 0 011.7 0zm-3.4 10.1a.8.8 0 01-1.6 0c0-.4.4-.8.8-.8.5 0 .8.4.8.8zm-5.5 21a.8.8 0 11-1.7 0 .8.8 0 011.7 0zm-5.3 11.9a.8.8 0 11-1.7 0 .8.8 0 011.7 0zm-5.2-2.4a.8.8 0 11-1.7 0 .8.8 0 011.7 0zm-3.8 16.4c0 .4-.4.8-.8.8a.8.8 0 11.8-.8zm-6-4.8a.8.8 0 11-1.6 0 .8.8 0 011.6 0zm-4.5-12.6a.8.8 0 11-1.6 0 .8.8 0 011.6 0zm-5.4 10.8a.8.8 0 11-1.7 0 .8.8 0 011.7 0zm-4-11c0 .5-.3 1-.8 1a.8.8 0 11.8-1zm-5-5.6a.8.8 0 11-1.6 0 .8.8 0 011.7 0zm-5 28.4c0 .4-.3.8-.8.8a.8.8 0 11.8-.8zm-6-13a.8.8 0 11-1.6 0 .8.8 0 011.7 0zm-4.2-4c0 .5-.3.9-.8.9a.8.8 0 11.8-.8zm-4.5-.5a.8.8 0 11-1.7 0 .8.8 0 011.7 0zM31.3 91a.8.8 0 11-1.7 0 .8.8 0 011.7 0zm-4.7-9.6a.8.8 0 01-1.6 0 .8.8 0 111.6 0zm286-12a.8.8 0 01-1.7 0 .8.8 0 111.7 0zm-4.2.2a.8.8 0 11-1.7 0 .8.8 0 111.7 0zM303 98.4a.8.8 0 01-1.6 0c0-.4.3-.8.8-.8s.8.4.8.8zm-4.6-18.2c0 .5-.3.8-.8.8a.8.8 0 11.8-.8zm-5.5 6a.8.8 0 11-1.7 0 .8.8 0 011.7 0zm-4.4 12.5a.8.8 0 11-1.7 0 .8.8 0 011.7 0zM282.9 79a.8.8 0 11-1.6 0 .8.8 0 111.6 0zm-4.6-8.8a.8.8 0 11-1.7 0 .8.8 0 111.7 0zm-4.5 23.3a.8.8 0 01-1.7 0 .8.8 0 111.7 0zm-5-13.6a.8.8 0 11-1.8 0 .8.8 0 011.7 0zm-5.3-4a.8.8 0 11-1.7 0 .8.8 0 011.7 0zm-6 12.4c0 .4-.3.8-.8.8a.8.8 0 11.8-.8zm-4-4.8a.8.8 0 11-1.7 0 .8.8 0 111.7 0zm-4.7-2.1a.8.8 0 11-1.7 0 .8.8 0 011.7 0zM244 94.7a.8.8 0 11-1.7 0 .8.8 0 111.7 0zM239 55.8a.8.8 0 11-1.6 0 .8.8 0 011.6 0zm-5.5 48.5a.8.8 0 11-1.6 0 .8.8 0 011.6 0zm-5-10.8c0 .5-.3.8-.8.8a.8.8 0 11.9-.8zm-5 8.7a.8.8 0 11-1.7 0 .8.8 0 011.7 0zm-5.1-26.8a.8.8 0 11-1.7 0 .8.8 0 011.7 0zm-4.3 2a.8.8 0 11-1.7 0 .8.8 0 011.7 0zm-4.7 14.3a.8.8 0 11-1.7 0 .8.8 0 011.7 0zM204 72a.8.8 0 11-1.7 0 .8.8 0 011.7 0zm-4.7-3.2a.8.8 0 11-1.7 0 .8.8 0 011.7 0zM193.9 90a.8.8 0 11-1.6 0 .8.8 0 011.6 0zm-4-43a.8.8 0 11-1.7 0 .8.8 0 111.6 0zm-5.6 38.3a.8.8 0 01-1.7 0 .8.8 0 011.7 0zm-5.2-18.7a.8.8 0 11-1.6 0 .8.8 0 011.6 0zm-4.8 21.9c0 .5-.4.8-.8.8a.8.8 0 11.8-.8zm-4.7-6a.8.8 0 11-1.7-.1.8.8 0 011.7 0zM164.7 64a.8.8 0 01-1.6 0 .8.8 0 111.6 0zm-4.4 1.5c0 .4-.3.8-.8.8a.8.8 0 11.8-.8zm-5.3-9a.8.8 0 11-1.7 0 .8.8 0 011.7 0zm-4.7-18.2a.8.8 0 11-1.6 0 .8.8 0 011.6 0zm-5 24.3a.8.8 0 11-1.7 0 .8.8 0 111.7 0zm-4.3-19a.8.8 0 11-1.6 0 .8.8 0 011.6 0zm-6-11.4c0 .5-.4.8-.9.8a.8.8 0 11.9-.8zm-5.3-2a.8.8 0 01-1.6 0 .8.8 0 011.6 0zm-4.3-2.6a.8.8 0 11-1.7 0 .8.8 0 011.7 0zm-5.7-3.2a.8.8 0 11-1.7 0 .8.8 0 111.7 0zm-4 9.8a.8.8 0 01-1.7 0c0-.4.4-.8.8-.8.5 0 .8.4.8.8zm-5.1-30.1a.8.8 0 11-1.7 0 .8.8 0 011.7 0zm-5 22.3a.8.8 0 11-1.8 0 .8.8 0 011.7 0zm-4.7 29a.8.8 0 11-1.7 0 .8.8 0 111.7 0zM96.4 85c0 .4-.4.8-.9.8a.8.8 0 010-1.7c.5 0 .9.4.9.9zm-5.7-6a.8.8 0 11-1.6 0 .8.8 0 011.6 0zm-4.7.6c0 .4-.3.8-.8.8a.8.8 0 11.8-.8zm-4.2 3.8a.8.8 0 11-1.7 0 .8.8 0 011.7 0zM76.5 101a.8.8 0 11-1.7 0 .8.8 0 011.7 0zm-6.4-7.6a.8.8 0 11-1.6 0 .8.8 0 011.6 0zm-3.8-11.3a.8.8 0 11-1.7 0 .8.8 0 011.7 0zm-4.9 16a.8.8 0 11-1.7 0 .8.8 0 111.7 0zm-5.3-8.8a.8.8 0 11-1.7 0 .8.8 0 011.7 0zm-4.5-21.8a.8.8 0 11-1.7 0 .8.8 0 111.7 0zM45.9 80a.8.8 0 01-1.7 0 .8.8 0 011.7 0zm-5.2-10c0 .5-.4.9-.9.9a.8.8 0 010-1.7c.5 0 .9.4.9.8zm-4 12.4a.8.8 0 11-1.7 0 .8.8 0 011.7 0zM32 89.8a.8.8 0 11-1.6 0 .8.8 0 011.6 0zm-4.6-22.1a.8.8 0 01-1.7 0 .8.8 0 011.7 0zm-5.5 19.1a.8.8 0 11-1.7 0 .8.8 0 011.7 0zm290.6 3.5c0 .5-.4.9-.8.9a.8.8 0 010-1.7c.4 0 .8.4.8.8zm-3.7-18.2a.8.8 0 11-1.7 0 .8.8 0 111.7 0zm-5.3 5.5a.8.8 0 11-1.7 0 .8.8 0 011.7 0zm-5 10.6a.8.8 0 11-1.7 0 .8.8 0 011.7 0zm-5.9-5a.8.8 0 11-1.7 0 .8.8 0 011.7 0zm-4.7-2.7a.8.8 0 01-1.7 0 .8.8 0 111.7 0zm-5-1.5a.8.8 0 11-1.6 0 .8.8 0 011.7 0zm-4.9 8a.8.8 0 11-1.6 0 .8.8 0 011.6 0zm-4.6-2.4a.8.8 0 01-1.7 0 .8.8 0 011.7 0zm-4.5-6.3c0 .4-.4.8-.9.8a.8.8 0 010-1.7c.5 0 .9.4.9.9zm-5.6 7.6a.8.8 0 11-1.6 0 .8.8 0 011.6 0zm-4 3.5c0 .4-.3.8-.8.8a.8.8 0 11.8-.8zm-6.5-13.7a.8.8 0 01-1.7 0 .8.8 0 011.7 0zm-4.2 11.4a.8.8 0 11-1.7 0 .8.8 0 011.7 0zM244 73.4a.8.8 0 11-1.6 0 .8.8 0 011.6 0zm-6 15.4a.8.8 0 11-1.7 0 .8.8 0 011.7 0zm-4.2-3.6c0 .4-.4.8-.9.8a.8.8 0 11.9-.8zm-5.1-2.7a.8.8 0 11-1.7 0 .8.8 0 011.7 0zm-5.1 5.4a.8.8 0 11-1.7 0 .8.8 0 011.7 0zm-4.3-6.5a.8.8 0 11-1.6 0 .8.8 0 011.6 0zM214.1 66a.8.8 0 11-1.7 0 .8.8 0 011.7 0zm-5.6 1.7a.8.8 0 11-1.6 0 .8.8 0 011.6 0zm-4.4 24.7a.8.8 0 11-1.7 0 .8.8 0 011.7 0zm-5-18.4a.8.8 0 11-1.8 0 .8.8 0 011.7 0zm-4.4-3.5a.8.8 0 11-1.6 0 .8.8 0 011.6 0zm-6-4.3a.8.8 0 11-1.6 0 .8.8 0 011.6 0zm-4.5-3.5a.8.8 0 01-1.7 0c0-.4.4-.8.9-.8.4 0 .8.4.8.8zm-4.5 6a.8.8 0 11-1.7 0 .8.8 0 111.7 0zm-5.6 1.2c0 .5-.4.8-.9.8a.8.8 0 010-1.6c.5 0 .9.4.9.8zm-4.7-9a.8.8 0 11-1.7 0 .8.8 0 011.7 0zm-4.7-3.5a.8.8 0 01-1.7 0 .8.8 0 011.7 0zm-4.4-12.6a.8.8 0 11-1.7 0 .8.8 0 011.7 0zm-5.1 38.6c0 .5-.4.8-.8.8a.8.8 0 11.8-.8zm-5.5-41.5a.8.8 0 11-1.6 0 .8.8 0 011.6 0zm-3.9-17.3a.8.8 0 11-1.7 0 .8.8 0 111.7 0zm-5 22.4a.8.8 0 11-1.7 0 .8.8 0 111.7 0zm-5.1-5.5a.8.8 0 01-1.7 0 .8.8 0 111.7 0zm-5.3 9.8c0 .4-.4.8-.8.8a.8.8 0 11.8-.8zm-4.8-10.6a.8.8 0 11-1.7 0 .8.8 0 111.7 0zm-5.6 5.2a.8.8 0 11-1.7 0 .8.8 0 011.7 0zm-3.9-3.5a.8.8 0 11-1.6 0 .8.8 0 011.6 0zm-5.9-24c0 .5-.3 1-.8 1a.8.8 0 11.8-1zm-5 45.1a.8.8 0 01-1.7 0 .8.8 0 011.6 0zm-3.7-6.3a.8.8 0 11-1.7 0 .8.8 0 011.7 0zm-5.7-1a.8.8 0 11-1.7 0 .8.8 0 011.7 0zM91 92a.8.8 0 11-1.7 0 .8.8 0 011.7 0zm-5.8-12.7a.8.8 0 11-1.7 0 .8.8 0 111.7 0zm-3.9-5a.8.8 0 11-1.6 0 .8.8 0 011.6 0zm-5.2 3.1a.8.8 0 11-1.7 0 .8.8 0 011.7 0zm-5.6 9.2a.8.8 0 11-1.7 0 .8.8 0 011.7 0zm-4.3 16c0 .4-.3.7-.8.7a.8.8 0 11.8-.8zm-4.6-24.3a.8.8 0 01-1.6 0 .8.8 0 011.6 0zm-5 19.2a.8.8 0 01-1.7 0c0-.4.4-.8.9-.8.4 0 .8.4.8.8zM51 74.7a.8.8 0 11-1.6 0 .8.8 0 011.6 0zm-5 18.3a.8.8 0 11-1.6 0 .8.8 0 011.7 0zM41 77c0 .5-.3.8-.8.8a.8.8 0 11.8-.8zm-4-1.8c0 .5-.3.8-.8.8a.8.8 0 11.9-.8zm-5.3 18.9a.8.8 0 11-1.6 0 .8.8 0 011.6 0zm-4.8-13a.8.8 0 01-1.6 0 .8.8 0 111.6 0zm285.4-15.7c0 .4-.4.8-.9.8a.8.8 0 11.9-.8zM307.8 77a.8.8 0 01-1.6 0 .8.8 0 011.6 0zm-5.2 4c0 .4-.3.8-.8.8a.8.8 0 010-1.6c.5 0 .8.3.8.8zm-4.5 4.9a.8.8 0 11-1.7 0 .8.8 0 011.7 0zm-4.4-1.6a.8.8 0 11-1.7 0 .8.8 0 011.7 0zm-5.8-7.3a.8.8 0 11-1.7 0 .8.8 0 111.7 0zm-4.7 17.3c0 .4-.4.8-.8.8a.8.8 0 010-1.7c.4 0 .8.4.8.9zm-4.9-29a.8.8 0 11-1.7 0 .8.8 0 111.7 0zm-5.6 6.4a.8.8 0 11-1.6 0 .8.8 0 011.6 0zm-4.4 21.5a.8.8 0 01-1.7 0 .8.8 0 011.7 0zm-5.5 11.2c0 .5-.4.9-.9.9a.8.8 0 11.9-.9zm-5-20.1a.8.8 0 11-1.7 0 .8.8 0 011.7 0zm-4-.7a.8.8 0 11-1.7 0 .8.8 0 111.6 0zm-5.6-4.3a.8.8 0 11-1.7 0 .8.8 0 111.7 0zm-4.7-10a.8.8 0 11-1.7 0 .8.8 0 011.7 0zm-4.3-5.6a.8.8 0 01-1.7 0 .8.8 0 011.7 0zm-5.7 27.6a.8.8 0 11-1.6 0 .8.8 0 011.6 0zm-4.5-4.7a.8.8 0 01-1.7 0 .8.8 0 011.7 0zm-5-.8a.8.8 0 11-1.6 0 .8.8 0 011.7 0zM218.6 74c0 .5-.4.8-.8.8a.8.8 0 11.8-.8zm-4 10.8a.8.8 0 11-1.7 0 .8.8 0 011.6 0zm-5 9a.8.8 0 11-1.7 0 .8.8 0 011.7 0zm-4.9-18.9a.8.8 0 11-1.6 0 .8.8 0 011.6 0zm-5.9 6a.8.8 0 11-1.6 0 .8.8 0 011.6 0zM194 54.8a.8.8 0 11-1.7 0 .8.8 0 011.7 0zm-4.5 10.5a.8.8 0 11-1.7 0 .8.8 0 011.7 0zm-5.2 15c0 .4-.3.8-.8.8a.8.8 0 11.8-.9zm-4.7-22.3a.8.8 0 11-1.7 0 .8.8 0 011.7 0zm-5.2 3.3c0 .5-.4.9-.9.9a.8.8 0 11.9-.9zM170 79.3a.8.8 0 01-1.7 0c0-.4.4-.8.9-.8.4 0 .8.4.8.8zm-5-8.7a.8.8 0 11-1.6 0 .8.8 0 111.6 0zM160 43.2c0 .5-.4.9-.9.9a.8.8 0 010-1.7c.5 0 .9.4.9.8zm-4.4 18a.8.8 0 11-1.6 0 .8.8 0 111.6 0zm-6-2.4a.8.8 0 11-1.7 0 .8.8 0 011.7 0zm-4 1.6a.8.8 0 11-1.7 0 .8.8 0 111.7 0zm-5.3-21a.8.8 0 11-1.6 0 .8.8 0 011.6 0zm-4.7 14a.8.8 0 01-1.7 0 .8.8 0 111.7 0zm-4.8-33.3a.8.8 0 11-1.7 0 .8.8 0 111.7 0zm-6.1 29a.8.8 0 11-1.7 0 .8.8 0 011.7 0zm-4.2-15a.8.8 0 01-1.6 0 .8.8 0 011.6 0zm-4.8-6.2c0 .4-.4.8-.8.8a.8.8 0 11.8-.8zm-4.5 8.5a.8.8 0 01-1.6 0 .8.8 0 011.6 0zM105 51.5a.8.8 0 01-1.7 0 .8.8 0 011.7 0zm-4.5 12.6a.8.8 0 11-1.7 0 .8.8 0 011.7 0zm-5 21.7a.8.8 0 01-1.6 0 .8.8 0 011.7 0zM90.2 81a.8.8 0 11-1.6 0 .8.8 0 011.6 0zm-3.7 7.5c0 .5-.4.8-.8.8a.8.8 0 11.8-.8zm-4.9-8a.8.8 0 11-1.7 0 .8.8 0 011.7 0zm-5.4 21.8a.8.8 0 11-1.7 0 .8.8 0 011.7 0zm-5.7-26a.8.8 0 11-1.7 0 .8.8 0 011.7 0zm-4.3.9a.8.8 0 11-1.7 0 .8.8 0 011.7 0zm-4.6.6a.8.8 0 11-1.6 0 .8.8 0 011.6 0zm-5 3.8a.8.8 0 11-1.7 0 .8.8 0 011.6 0zM51 90a.8.8 0 11-1.7 0 .8.8 0 011.7 0zm-5-22.8a.8.8 0 01-1.7 0 .8.8 0 011.6 0zm-4.2 6.7a.8.8 0 11-1.7 0 .8.8 0 011.7 0zm-5.2 20.8c0 .5-.3.9-.8.9a.8.8 0 11.8-.9zM32 90.5a.8.8 0 11-1.6 0 .8.8 0 111.6 0zm-5.6 3.3a.8.8 0 11-1.7 0 .8.8 0 011.7 0zm285.9 1.3a.8.8 0 11-1.7 0 .8.8 0 111.7 0zm-5-8.1a.8.8 0 01-1.6 0 .8.8 0 111.7 0zm-3.8 1.3c0 .4-.4.8-.9.8a.8.8 0 11.9-.8zm-5.7 2c0 .4-.4.8-.9.8a.8.8 0 11.9-.9zm-4.5-5.6a.8.8 0 01-1.7 0 .8.8 0 011.7 0zm-6-8.2a.8.8 0 11-1.7 0 .8.8 0 011.7 0zm-4.4 16a.8.8 0 11-1.6 0 .8.8 0 011.6 0zm-4.4-3.1a.8.8 0 11-1.6 0 .8.8 0 011.6 0zm-5.3 10.2c0 .5-.4.9-.9.9a.8.8 0 010-1.7c.5 0 .9.4.9.8zm-4.3-21.5a.8.8 0 01-1.7 0 .8.8 0 111.7 0zm-5 13.1a.8.8 0 01-1.6 0 .8.8 0 011.7 0zM258.7 79a.8.8 0 11-1.6 0 .8.8 0 011.6 0zm-5-3.3c0 .5-.4.8-.9.8a.8.8 0 11.8-.8zm-4.7-5.6a.8.8 0 11-1.7 0 .8.8 0 011.7 0zm-5.3 11.6a.8.8 0 11-1.7 0 .8.8 0 011.7 0zm-4.4-.1a.8.8 0 11-1.7 0 .8.8 0 011.7 0zm-4.8-14.3a.8.8 0 11-1.7 0 .8.8 0 111.7 0zm-5.6 31a.8.8 0 11-1.7 0 .8.8 0 011.7 0zm-5-24.3a.8.8 0 11-1.6 0 .8.8 0 011.7 0zm-4 4a.8.8 0 11-1.6 0 .8.8 0 011.6 0zm-5.1.7a.8.8 0 01-1.7 0 .8.8 0 011.7 0zM209 81a.8.8 0 11-1.6 0 .8.8 0 011.6 0zM205 66.2c0 .5-.4.9-.8.9a.8.8 0 11.8-.9zm-5.1-2a.8.8 0 11-1.7 0 .8.8 0 011.7 0zM194 78.7a.8.8 0 11-1.7 0 .8.8 0 111.7 0zm-4.5-3.8a.8.8 0 11-1.6 0 .8.8 0 011.6 0zm-5.2-5.2a.8.8 0 11-1.7 0 .8.8 0 011.7 0zm-3.6-9.7a.8.8 0 11-1.7 0 .8.8 0 011.7 0zm-6.2 14.7a.8.8 0 11-1.7 0 .8.8 0 011.7 0zm-4.6-.2a.8.8 0 11-1.7 0 .8.8 0 011.7 0zm-5.2-21.4a.8.8 0 11-1.7 0 .8.8 0 011.7 0zm-5 9.2a.8.8 0 11-1.7 0 .8.8 0 011.7 0zm-5-15.9c0 .5-.5.8-1 .8a.8.8 0 111-.8zm-4.7-3.6c0 .5-.4.8-.8.8a.8.8 0 11.8-.8zm-5.6 7.8c0 .5-.4.8-.9.8a.8.8 0 11.9-.8zm-3.6-22.7a.8.8 0 11-1.7 0 .8.8 0 011.7 0zm-6.1 29.7a.8.8 0 11-1.7 0 .8.8 0 011.7 0zm-4.3 2.3a.8.8 0 11-1.7 0 .8.8 0 011.7 0zm-5-26c0 .5-.4 1-.9 1a.8.8 0 11.9-1zm-4.4-8.5a.8.8 0 01-1.7 0 .8.8 0 011.7 0zm-5.2 15.8c0 .5-.3.9-.8.9a.8.8 0 11.8-.9zm-5.3 2.5a.8.8 0 11-1.7 0 .8.8 0 011.7 0zm-5.2 24.5a.8.8 0 11-1.7 0 .8.8 0 011.7 0zm-4-5.7a.8.8 0 01-1.7 0 .8.8 0 111.7 0zm-5.6 16.7c0 .5-.3.9-.8.9a.8.8 0 11.8-.9zm-5-3.4a.8.8 0 11-1.7 0 .8.8 0 011.6 0zm-4.3 1a.8.8 0 11-1.6 0 .8.8 0 011.6 0zM80 74.2a.8.8 0 11-1.6 0 .8.8 0 011.6 0zM77 88.9a.8.8 0 11-1.6 0 .8.8 0 011.6 0zM72 74a.8.8 0 11-1.7 0 .8.8 0 011.7 0zm-5.2 26.3a.8.8 0 11-1.6 0 .8.8 0 111.6 0zm-5.6-17.6a.8.8 0 11-1.6 0 .8.8 0 011.6 0zm-5.3 10.9c0 .4-.4.8-.8.8a.8.8 0 11.8-.8zm-4.6-2.3a.8.8 0 11-1.7 0 .8.8 0 011.7 0zm-4.7-4.7a.8.8 0 01-1.7 0 .8.8 0 011.7 0zm-4.7-8.9a.8.8 0 01-1.7 0c0-.4.4-.8.8-.8.5 0 .9.4.9.8zM36.5 101a.8.8 0 11-1.7 0 .8.8 0 011.7 0zm-4.7-10.7a.8.8 0 11-1.7 0 .8.8 0 011.7 0zm-5.8-4a.8.8 0 11-1.7 0 .8.8 0 011.7 0zM312.5 81c0 .5-.4.8-.9.8a.8.8 0 11.9-.8zm-5.2-19.8a.8.8 0 01-1.6 0 .8.8 0 011.6 0zm-4.2 7.7a.8.8 0 11-1.7 0 .8.8 0 111.7 0zm-4.9-3a.8.8 0 11-1.7 0 .8.8 0 111.7 0zm-5.5 11.4a.8.8 0 11-1.7 0 .8.8 0 011.7 0zm-4.2 12a.8.8 0 11-1.7 0 .8.8 0 011.7 0zm-5-21a.8.8 0 01-1.7 0c0-.4.4-.8.8-.8.5 0 .9.4.9.8zM278.8 97a.8.8 0 11-1.7 0 .8.8 0 011.7 0zm-5.9-18c0 .5-.4.9-.8.9a.8.8 0 11.8-.9zm-4.4 11.2a.8.8 0 01-1.7 0 .8.8 0 111.7 0zm-4.7 4.4a.8.8 0 11-1.6 0 .8.8 0 111.6 0zm-5.5-3.3a.8.8 0 01-1.7 0c0-.4.4-.8.9-.8.4 0 .8.4.8.8zm-5.2-7.4a.8.8 0 11-1.6 0 .8.8 0 011.6 0zm-5.1 9.8a.8.8 0 11-1.7 0 .8.8 0 011.7 0zm-4.2-33.6a.8.8 0 01-1.7 0 .8.8 0 011.7 0zm-4.4 3.5c0 .5-.4.9-.9.9a.8.8 0 11.9-.9zM234 94.2a.8.8 0 11-1.7 0 .8.8 0 011.7 0zm-4.7 3.7a.8.8 0 11-1.7 0 .8.8 0 011.7 0zm-5.3-26a.8.8 0 11-1.7 0 .8.8 0 011.7 0zm-5.8-13.2a.8.8 0 11-1.7 0 .8.8 0 011.7 0zm-3.8 22.4a.8.8 0 11-1.7 0 .8.8 0 011.7 0zm-4.5-14.4a.8.8 0 11-1.7 0 .8.8 0 011.7 0zm-6 17.6c0 .4-.4.8-.9.8a.8.8 0 11.8-.8zM199.1 71a.8.8 0 11-1.6 0 .8.8 0 011.6 0zm-5 6a.8.8 0 11-1.7 0 .8.8 0 111.7 0zM190 60c0 .4-.4.8-.8.8a.8.8 0 11.8-.8zm-5.7 4.8c0 .4-.4.8-.9.8a.8.8 0 010-1.7c.5 0 .9.4.9.9zm-4.4 12.6a.8.8 0 11-1.6 0 .8.8 0 011.6 0zm-5.7-23.7a.8.8 0 11-1.6 0 .8.8 0 011.6 0zm-4.8 15.2a.8.8 0 11-1.7 0 .8.8 0 011.7 0zm-5-16.7a.8.8 0 11-1.7 0 .8.8 0 011.7 0zm-4 14.7a.8.8 0 01-1.7 0 .8.8 0 011.7 0zm-5-31a.8.8 0 11-1.6 0 .8.8 0 111.7 0zm-5.5 3.7a.8.8 0 11-1.7 0 .8.8 0 011.7 0zm-4.3-9.6a.8.8 0 11-1.6 0 .8.8 0 011.6 0zM141 55.3a.8.8 0 11-1.7 0 .8.8 0 011.7 0zm-5.2-33a.8.8 0 11-1.7 0 .8.8 0 011.7 0zm-4.8 13a.8.8 0 11-1.6 0 .8.8 0 111.6 0zm-4.7-3a.8.8 0 01-1.6 0 .8.8 0 011.6 0zM120.4 44a.8.8 0 11-1.7 0 .8.8 0 011.7 0zm-5.3-11.2a.8.8 0 11-1.7 0 .8.8 0 111.7 0zm-5.4-4c0 .5-.4.9-.8.9a.8.8 0 010-1.7c.4 0 .8.4.8.8zm-3.8 2.4a.8.8 0 11-1.7 0 .8.8 0 011.7 0zm-5.4 15.5a.8.8 0 01-1.7 0 .8.8 0 011.7 0zM96 68.8a.8.8 0 11-1.6 0 .8.8 0 111.6 0zM91 91.6a.8.8 0 11-1.7 0 .8.8 0 111.7 0zm-4.3 23.2a.8.8 0 01-1.7 0 .8.8 0 011.7 0zm-5.2-26.2c0 .5-.4.9-.9.9a.8.8 0 010-1.7c.5 0 .9.4.9.8zm-5-9.8a.8.8 0 11-1.6 0 .8.8 0 011.6 0zm-5.3-3.3a.8.8 0 11-1.7 0 .8.8 0 011.7 0zm-4.7 20.6c0 .4-.4.8-.9.8a.8.8 0 010-1.7c.5 0 .9.4.9.9zm-4.8-19c0 .4-.3.8-.8.8a.8.8 0 11.8-.9zm-5.1 6.3a.8.8 0 11-1.7 0 .8.8 0 111.7 0zm-5.7.3a.8.8 0 11-1.7 0 .8.8 0 011.7 0zM46 81.9c0 .5-.4.8-.8.8a.8.8 0 11.8-.8zm-4.5 10c0 .5-.3 1-.8 1a.8.8 0 11.8-1zM37 84.7a.8.8 0 11-1.7 0 .8.8 0 011.7 0zm-6-11a.8.8 0 11-1.7 0 .8.8 0 111.6 0zm-3.3-4.9a.8.8 0 11-1.7 0 .8.8 0 011.7 0zM308 89a.8.8 0 11-1.7 0 .8.8 0 011.7 0zm-5.1-3.7a.8.8 0 01-1.7 0 .8.8 0 011.7 0zm-5.4 18.5a.8.8 0 11-1.6 0 .8.8 0 011.6 0zm-4.4-6.7a.8.8 0 11-1.6 0 .8.8 0 011.6 0zm-5-4.1c0 .4-.3.8-.8.8a.8.8 0 11.9-.8zm-4.6-4.5c0 .5-.3.9-.8.9a.8.8 0 11.8-.9zm-6-12.1a.8.8 0 11-1.6 0 .8.8 0 011.6 0zm-3.9-3.4a.8.8 0 11-1.7 0 .8.8 0 011.7 0zm-4.5 23.5a.8.8 0 01-1.6 0 .8.8 0 011.6 0zM264.1 80c0 .5-.4.9-.9.9a.8.8 0 11.9-.9zm-5.5.2a.8.8 0 11-1.6 0 .8.8 0 011.6 0zM254 100a.8.8 0 11-1.6 0 .8.8 0 011.6 0zm-5-18.3c0 .5-.4.8-.8.8a.8.8 0 010-1.6c.4 0 .8.3.8.8zm-4.4-6c0 .4-.3.8-.8.8a.8.8 0 010-1.7c.5 0 .8.4.8.8zm-6 14.4a.8.8 0 11-1.7 0 .8.8 0 011.7 0zm-4.7-2.4a.8.8 0 01-1.7 0 .8.8 0 111.7 0zm-4.6-42a.8.8 0 11-1.7 0 .8.8 0 011.7 0zm-6 25.7c0 .4-.4.8-.8.8a.8.8 0 11.8-.8zm-3.9 6.6a.8.8 0 01-1.7 0 .8.8 0 011.7 0zm-5 1.8a.8.8 0 11-1.7 0 .8.8 0 111.6 0zm-5-9.2a.8.8 0 11-1.6 0 .8.8 0 011.7 0zM205 77a.8.8 0 11-1.6 0 .8.8 0 011.6 0zm-5.8-6.2c0 .4-.4.8-.8.8a.8.8 0 010-1.6c.4 0 .8.3.8.8zm-5.5-8.1a.8.8 0 11-1.6 0 .8.8 0 011.6 0zm-4.6 3.5a.8.8 0 11-1.6 0 .8.8 0 011.6 0zm-3.5-7.8a.8.8 0 11-1.7 0 .8.8 0 011.7 0zm-6.8 18.3a.8.8 0 11-1.7 0 .8.8 0 011.7 0zm-3.2-12.6c0 .5-.4.9-.9.9a.8.8 0 010-1.7c.5 0 .9.4.9.8zm-6.2.5a.8.8 0 11-1.7 0 .8.8 0 011.7 0zm-4.6 6c0 .4-.4.8-.8.8a.8.8 0 11.8-.8zM159.3 60a.8.8 0 11-1.6 0 .8.8 0 011.6 0zm-3.7-25.4a.8.8 0 11-1.7 0 .8.8 0 111.7 0zm-5.3 33.7a.8.8 0 11-1.7 0 .8.8 0 011.7 0zm-4.8-23.8a.8.8 0 11-1.6 0 .8.8 0 111.6 0zm-5.7 6a.8.8 0 01-1.7 0 .8.8 0 011.7 0zm-3.6-11a.8.8 0 11-1.7 0 .8.8 0 011.7 0zm-5.9-12.2a.8.8 0 11-1.6 0 .8.8 0 011.6 0zm-4.7 9.6a.8.8 0 11-1.7 0 .8.8 0 011.7 0zm-5.3 0c0 .6-.4 1-.8 1a.8.8 0 11.8-1zm-4 5.1a.8.8 0 11-1.6 0 .8.8 0 011.7 0zm-5.2 11.3a.8.8 0 11-1.7 0 .8.8 0 111.7 0zm-5-13a.8.8 0 01-1.8 0 .8.8 0 111.7 0zm-6.5 18.2a.8.8 0 01-1.6 0c0-.4.4-.8.8-.8.5 0 .8.4.8.8zM95.3 75a.8.8 0 11-1.7 0 .8.8 0 011.7 0zm-3.7 30.8a.8.8 0 11-1.7 0 .8.8 0 011.7 0zm-5.4-17.2a.8.8 0 11-1.7 0 .8.8 0 011.7 0zm-4.7-22.8a.8.8 0 11-1.7 0 .8.8 0 011.7 0zM76 76.1a.8.8 0 01-1.7 0c0-.5.4-.9.8-.9.5 0 .9.4.9.9zm-5.8-8.3a.8.8 0 11-1.6 0 .8.8 0 011.6 0zM65.8 86a.8.8 0 11-1.7 0 .8.8 0 011.7 0zm-5.1-3.8c0 .4-.4.8-.8.8a.8.8 0 11.8-.8zm-5-4.1a.8.8 0 11-1.6 0 .8.8 0 111.7 0zm-5 24.2a.8.8 0 11-1.7 0 .8.8 0 111.6 0zm-4-13a.8.8 0 11-1.7 0 .8.8 0 011.7 0zm-5 2.2c0 .4-.4.8-.8.8a.8.8 0 11.8-.8zM36 81.4a.8.8 0 01-1.7 0 .8.8 0 011.7 0zm-3.8-5a.8.8 0 11-1.7 0 .8.8 0 111.7 0zm-6.3 9.8a.8.8 0 11-1.6 0 .8.8 0 011.6 0zm286.4-1.4a.8.8 0 11-1.7 0 .8.8 0 111.7 0zm-4.4.4a.8.8 0 11-1.7 0 .8.8 0 011.7 0zm-5 1.2c0 .4-.4.8-.8.8a.8.8 0 11.8-.8zm-4.9-10.1a.8.8 0 11-1.6 0 .8.8 0 111.6 0zm-5.6.3c0 .4-.4.8-.9.8a.8.8 0 11.9-.8zM288 80a.8.8 0 01-1.7 0 .8.8 0 011.7 0zm-4.6 3.7a.8.8 0 01-1.7 0c0-.5.4-.9.8-.9.5 0 .9.4.9.9zM278 88a.8.8 0 11-1.7 0 .8.8 0 111.7 0zm-5.5.1a.8.8 0 01-1.7 0 .8.8 0 111.7 0zm-3.9.4a.8.8 0 11-1.7 0 .8.8 0 011.7 0zm-5.4-19.4a.8.8 0 11-1.6 0 .8.8 0 011.6 0zm-5 5.4a.8.8 0 11-1.6 0 .8.8 0 011.7 0zm-4 29.5a.8.8 0 11-1.7 0 .8.8 0 111.7 0zm-6-16.5a.8.8 0 11-1.6 0 .8.8 0 011.6 0zm-4.7-1.6c0 .4-.4.8-.8.8a.8.8 0 010-1.7c.4 0 .8.4.8.9zm-4.8-34.6a.8.8 0 11-1.6 0 .8.8 0 011.6 0zm-4.6 41.7a.8.8 0 11-1.7 0 .8.8 0 011.7 0zm-4.7-19.4a.8.8 0 11-1.7 0 .8.8 0 011.7 0zm-5.2-3.7a.8.8 0 01-1.6 0 .8.8 0 011.6 0zm-6.3.5a.8.8 0 01-1.6 0 .8.8 0 011.6 0zm-3.9-3a.8.8 0 01-1.6 0 .8.8 0 011.6 0zm-5.5 9.3a.8.8 0 11-1.7 0 .8.8 0 111.7 0zm-4 4.7a.8.8 0 11-1.7 0 .8.8 0 011.7 0zm-4.8-17.7a.8.8 0 01-1.6 0 .8.8 0 111.6 0zm-5 6c0 .4-.3.8-.8.8a.8.8 0 11.9-.9zm-4.7-3.3a.8.8 0 11-1.6 0 .8.8 0 011.6 0zm-5.6 3.3a.8.8 0 11-1.6 0 .8.8 0 011.6 0zM179.3 57a.8.8 0 11-1.7 0 .8.8 0 011.7 0zm-5 11a.8.8 0 11-1.6 0 .8.8 0 011.7 0zm-4.7-15.2a.8.8 0 11-1.7 0 .8.8 0 011.7 0zm-5 2.3a.8.8 0 11-1.7 0 .8.8 0 111.6 0zm-4.2-15c0 .4-.4.8-.9.8a.8.8 0 11.9-.8zm-5.3 1.5a.8.8 0 11-1.7 0 .8.8 0 111.7 0zm-5.6 4.8a.8.8 0 11-1.6 0 .8.8 0 111.6 0zm-3.6-6a.8.8 0 01-1.7 0c0-.5.4-.9.8-.9.5 0 .9.4.9.8zm-5.5-11a.8.8 0 01-1.6 0 .8.8 0 011.6 0zm-6.1 18.8a.8.8 0 11-1.7 0 .8.8 0 011.7 0zm-4.7-9.3a.8.8 0 11-1.6 0 .8.8 0 011.6 0zM126 53a.8.8 0 11-1.6 0 .8.8 0 011.6 0zm-6.6-10.5a.8.8 0 11-1.6 0 .8.8 0 011.6 0zm-4 5.3c0 .4-.5.8-1 .8a.8.8 0 010-1.7c.5 0 1 .4 1 .9zM110.4 37a.8.8 0 01-1.6 0 .8.8 0 011.6 0zm-4.7 23.8a.8.8 0 11-1.7 0 .8.8 0 011.7 0zm-4-.6c0 .5-.5.8-1 .8a.8.8 0 010-1.6c.5 0 1 .3 1 .8zm-5.9 21.4a.8.8 0 11-1.6 0 .8.8 0 111.6 0zm-5-5.4c0 .5-.4.9-.9.9a.8.8 0 010-1.7c.5 0 .8.4.8.8zm-4.5 10a.8.8 0 01-1.6 0 .8.8 0 011.6 0zM81 85.3a.8.8 0 11-1.6 0 .8.8 0 111.6 0zm-4.8-3.5a.8.8 0 11-1.6 0 .8.8 0 011.6 0zM72 87a.8.8 0 01-1.7 0 .8.8 0 011.7 0zm-5.7-12.6a.8.8 0 11-1.6 0 .8.8 0 011.6 0zm-4.7 2.6a.8.8 0 01-1.7 0 .8.8 0 011.7 0zm-5.3 6.6c0 .5-.4.8-.9.8a.8.8 0 11.9-.8zm-5.5-2.9a.8.8 0 11-1.7 0 .8.8 0 011.7 0zm-5.3 10.5a.8.8 0 11-1.6 0 .8.8 0 111.6 0zM42 84.5a.8.8 0 01-1.7 0c0-.4.4-.8.8-.8.5 0 .9.4.9.8zm-4.6-11.1a.8.8 0 11-1.7 0 .8.8 0 011.7 0zm-5.9-10.2c0 .5-.4.9-.8.9a.8.8 0 11.8-.9zm-5 35.6a.8.8 0 01-1.7 0 .8.8 0 011.6 0zm285.7 2.6a.8.8 0 01-1.7 0 .8.8 0 011.7 0zm-4.4-5.1a.8.8 0 11-1.6 0 .8.8 0 011.6 0zm-5 11.2a.8.8 0 11-1.6 0 .8.8 0 011.6 0zm-4.5-6a.8.8 0 11-1.7 0 .8.8 0 011.7 0zm-4.8-34.9a.8.8 0 11-1.7 0 .8.8 0 011.7 0zm-5.6 18.7a.8.8 0 01-1.6 0 .8.8 0 111.6 0zm-4.5 1.3a.8.8 0 11-1.7 0 .8.8 0 011.7 0zm-5.6-6.5a.8.8 0 11-1.7 0 .8.8 0 111.7 0zm-4.9-7a.8.8 0 11-1.6-.1.8.8 0 011.6 0zm-5.3 6.3a.8.8 0 11-1.6 0 .8.8 0 011.6 0zm-4.3-3.2a.8.8 0 11-1.7 0 .8.8 0 011.7 0zm-4.5-3.7a.8.8 0 11-1.6 0 .8.8 0 011.6 0zm-5.7-8.2a.8.8 0 11-1.7 0 .8.8 0 011.7 0zm-4.7 31.2c0 .4-.4.8-.8.8a.8.8 0 010-1.6c.4 0 .8.3.8.8zm-4.9-21.8a.8.8 0 11-1.6 0 .8.8 0 011.6 0zm-5.6 7c0 .5-.3.9-.8.9a.8.8 0 11.8-.9zm-4-12.1c0 .4-.3.8-.7.8a.8.8 0 010-1.6c.4 0 .8.3.8.8zm-5.2 16a.8.8 0 01-1.7 0 .8.8 0 011.7 0zM224 70a.8.8 0 01-1.7 0 .8.8 0 011.7 0zm-5.8-12.1a.8.8 0 11-1.7 0 .8.8 0 011.7 0zM215 76a.8.8 0 11-1.7 0 .8.8 0 011.7 0zm-5.6.7a.8.8 0 11-1.7 0 .8.8 0 011.7 0zm-5.5-6.9a.8.8 0 11-1.7 0 .8.8 0 011.7 0zm-4.2 7.7c0 .5-.3.9-.8.9a.8.8 0 010-1.7c.5 0 .8.4.8.8zm-5.3 1.7a.8.8 0 11-1.7 0 .8.8 0 011.7 0zm-5.4 1.4a.8.8 0 11-1.7 0 .8.8 0 011.7 0zm-4.6-9.7c0 .4-.4.8-.8.8a.8.8 0 010-1.7c.4 0 .8.4.8.9zm-4.6-6.2a.8.8 0 01-1.7 0 .8.8 0 011.7 0zm-4.9 5.5c0 .5-.4.9-.8.9a.8.8 0 010-1.7c.4 0 .8.4.8.8zM170 51a.8.8 0 01-1.7 0 .8.8 0 011.7 0zm-5.3-10.6a.8.8 0 11-1.7 0 .8.8 0 011.7 0zm-5 24.1a.8.8 0 11-1.6 0 .8.8 0 011.7 0zm-5.2 6.6a.8.8 0 11-1.6 0 .8.8 0 011.6 0zm-4.1-15.3a.8.8 0 11-1.7 0 .8.8 0 111.7 0zm-5.6-.7a.8.8 0 01-1.7 0 .8.8 0 011.7 0zm-4.2-16a.8.8 0 11-1.6 0 .8.8 0 011.6 0zm-5.6 6.2c0 .5-.4.9-.8.9a.8.8 0 11.8-.9zM130 38a.8.8 0 11-1.7 0 .8.8 0 111.7 0zm-4.2-6.1a.8.8 0 11-1.7 0 .8.8 0 011.7 0zm-5.7-9.4a.8.8 0 11-1.7 0 .8.8 0 011.7 0zm-5.1 24.4a.8.8 0 01-1.7 0 .8.8 0 011.7 0zm-4.2-15.5a.8.8 0 11-1.7 0 .8.8 0 011.7 0zM106 42.6a.8.8 0 11-1.6 0 .8.8 0 011.6 0zm-5.3 1.4a.8.8 0 11-1.7 0 .8.8 0 111.7 0zm-5.5 30a.8.8 0 01-1.6 0 .8.8 0 011.6 0zm-3.9-.6a.8.8 0 11-1.6 0 .8.8 0 111.6 0zM86.7 81a.8.8 0 11-1.7 0 .8.8 0 111.7 0zm-5.4 5a.8.8 0 01-1.7 0 .8.8 0 011.7 0zm-5.6-18a.8.8 0 11-1.7 0 .8.8 0 011.7 0zm-3.8 20.8a.8.8 0 11-1.6 0 .8.8 0 011.6 0zm-6.2-10a.8.8 0 11-1.6 0 .8.8 0 011.6 0zm-5.2-4.6a.8.8 0 11-1.6 0 .8.8 0 011.6 0zm-4.3 8.7c0 .5-.3.9-.8.9a.8.8 0 11.8-.9zm-5.1 5a.8.8 0 11-1.7 0 .8.8 0 011.7 0zM46.7 85c0 .5-.4.9-.8.9a.8.8 0 11.8-.9zm-5.2 9.3a.8.8 0 11-1.6 0 .8.8 0 011.6 0zm-4.8-8.6a.8.8 0 01-1.7 0 .8.8 0 011.7 0zm-4.5-11.1a.8.8 0 01-1.7 0 .8.8 0 011.7 0zm-6.1 9a.8.8 0 11-1.7 0 .8.8 0 011.7 0zm0 0" fill="#b3b3b3"/><path d="M109.7 13.9l-5 16.5-4.8 16-5 20.1-5 8.3-4.8-1.8-5 .3-5 .5-4.8-1.9-5 5.7-5-3.7-4.8 4.2-5-2-4.9 1.7-5-2.7-4.9 1-4.9-4.5-5 2.3H21v19.5l5 1.7 4.9-2.7 5 .3 4.9-.1 4.9.4 5 5 4.9-5.5 4.9-1.6 5 6.2 4.9-1.4 4.9.2 5-4.7 4.9 5.3 4.9-1.7L95 84l4.9-22.2 4.9-1.6 5-16.6 4.8 1.4 5 2.3 5-1.8 4.8 2.7 5 5.3 5-1.4 4.8 7h5l4.9 10 5 2 4.9-4 4.9 8.7 5 7 4.9-7.5 4.9 5.7 5-4.9 4.9 10.5 4.9-9.7 5 7 4.9 2.4 4.9-4.4 5 .4 4.9 6.9 4.9 13 5-5.2 4.9-7.5 4.9-.8 5 3.1 4.9 4.8 4.9-7.9 5 7 4.8-4.2 5-.3 5 .7 4.8 5.5 5-6 5 .6 4.8 7 5-2.5L307 95l5-1.5V70.7l-5-.2-5 4-4.9 1.2-4.9-.6-5 1.2-4.9-3.4-4.9-.3-5-.2-4.9 3.6-4.9-.9-5-6.1-4.8 4-5 4-5-9.3-4.8-9-5 15-5-4.3-4.8-1.2-5-5.4-5 7.5-4.8-2.8-5-1.3-4.9-4.6-5 .7-4.9-5.4-4.9 4.3-5-1.7-4.9 1.2-4.9-8.2-5-8.6-4.9 3.2-4.9-8.8-5 1-4.9-4.8-4.9-.5-5-4-4.9-4.5-4.9 4-5-2.5-4.9 4.5z" fill="#57b3e6" fill-opacity=".3"/><path d="M21 83.6l4.9.9 4.9-2.5 5 2.4 4.9-.5 4.9 1.5 5 1.7 4.9-1.8 4.9-2.9 5 5 4.9-3.6 4.9 1 5-2.5 4.9 2.5H90l5-9.5 4.9-21.1 4.9-8.8 5-16.6 4.8 9.5 5-1.1 5 .3 4.8-.6 5 4.9 5 1.3 4.8 3.8 5 2.4 5 4.5 4.8 5.4 5-3.7 4.9 8.7 5 7.6 4.9-4.4 4.9 3.7 5-4.6 4.9 8 4.9-5.2 5 5.8 4.9 1.9 4.9-.9 5-3.5 4.9 6.1 4.9 7.1 5-.4L238 74l4.9 4.1 5 6.3 4.8.3 5-6 5 6.7 4.8-1.7 5-2 5 .5 4.8 3 5-1.4 5-.3 4.8 3.8 5-1.9 4.9-2.7 5-.7" fill="none" stroke="#57b3e6" stroke-width="2.0250000000000004" stroke-linejoin="round" stroke-miterlimit="10"/></svg>