<svg xmlns="http://www.w3.org/2000/svg" xmlns:xlink="http://www.w3.org/1999/xlink" version="1.2" viewBox="0 0 314 139.9" height="186.6" width="418.7"><defs><symbol id="a" overflow="visible"><path d="M.3-2.2V-3H3v.8zm0 0"/></symbol><symbol id="b" overflow="visible"><path d="M5-.8V0H.3l.1-.6c.1-.3.3-.7.6-1l1.1-1 1.6-1.6c.3-.3.4-.7.4-1 0-.4-.1-.7-.3-.9-.3-.2-.6-.4-1-.4s-.8.2-1 .4c-.3.3-.4.6-.4 1h-1c.1-.7.4-1.2.8-1.6.4-.3 1-.5 1.6-.5.7 0 1.2.2 1.6.6.4.4.6.8.6 1.4 0 .3 0 .6-.2.9 0 .2-.3.5-.5.8L2.9-2.2A14.3 14.3 0 001.5-.8zm0 0"/></symbol><symbol id="c" overflow="visible"><path d="M3.7 0h-.9v-5.6a4.8 4.8 0 01-1.7 1v-.8l1.3-.8.8-1h.5zm0 0"/></symbol><symbol id="d" overflow="visible"><path d="M.4-3.5c0-.9.1-1.6.3-2 .1-.6.4-1 .8-1.3a2 2 0 011.3-.4c.3 0 .7 0 1 .2l.7.7.4 1 .2 1.8c0 .8-.1 1.5-.3 2-.2.5-.4 1-.8 1.2a2 2 0 01-1.3.4 2 2 0 01-1.6-.7c-.4-.6-.7-1.6-.7-3zm1 0c0 1.1 0 2 .3 2.3.3.4.6.6 1 .6.5 0 .8-.2 1-.6.3-.4.5-1.2.5-2.3 0-1.2-.2-2-.4-2.4-.3-.4-.7-.6-1-.6-.5 0-.8.2-1 .5-.3.5-.5 1.3-.5 2.5zm0 0"/></symbol><symbol id="e" overflow="visible"><path d="M.4-1.9l.9-.1c.1.5.3.9.5 1 .3.3.5.4.9.4s.8-.1 1-.4c.3-.3.5-.7.5-1 0-.5-.2-.8-.4-1-.3-.4-.6-.5-1-.5l-.6.1v-.8h.2c.4 0 .7 0 1-.2.3-.2.5-.5.5-1a1 1 0 00-.4-.7c-.2-.3-.5-.4-.8-.4-.4 0-.6.1-.9.4-.2.2-.3.5-.4 1l-.9-.2c.1-.6.4-1 .7-1.4.4-.3.9-.5 1.5-.5.4 0 .7.1 1 .3.4.1.6.4.8.7.2.2.3.6.3.9 0 .3-.1.6-.3.8-.2.3-.4.5-.7.6.4.1.7.3 1 .6.2.3.3.7.3 1.2 0 .6-.2 1.1-.7 1.6-.4.4-1 .6-1.7.6-.6 0-1.2-.2-1.6-.5C.7-.8.5-1.3.4-2zm0 0"/></symbol><symbol id="f" overflow="visible"><path d="M3.2 0v-1.7h-3v-.8l3.2-4.7H4v4.7h1v.8H4V0zm0-2.5v-3.3L1-2.5zm0 0"/></symbol><symbol id="g" overflow="visible"><path d="M.4-1.9h1c0 .4.2.7.4 1 .3.2.6.3 1 .3.3 0 .7-.2 1-.5.3-.3.4-.7.4-1.2s-.1-1-.4-1.2A1.5 1.5 0 002-3.7c-.2 0-.4.2-.5.4H.6l.7-3.8h3.5v.9H2l-.4 1.9c.4-.3.9-.5 1.3-.5.7 0 1.2.3 1.6.7a2.6 2.6 0 010 3.3c-.4.6-1 1-1.8 1-.6 0-1.2-.3-1.6-.6C.7-.8.5-1.3.4-2zm0 0"/></symbol><symbol id="h" overflow="visible"><path d="M5-5.4H4c0-.3-.2-.5-.3-.7-.3-.2-.6-.4-1-.4l-.6.3a2 2 0 00-.7.9c-.2.3-.2.9-.3 1.6a2 2 0 011.8-1c.6 0 1 .3 1.5.7.4.4.6 1 .6 1.7 0 .4 0 .8-.3 1.2a2.2 2.2 0 01-2 1.2C2.2.1 1.6 0 1.2-.7.6-1.2.4-2 .4-3.3c0-1.4.2-2.4.7-3 .5-.6 1-.9 1.8-.9.6 0 1 .2 1.4.5.4.3.6.7.7 1.3zm-3.6 3c0 .4 0 .7.2 1a1.4 1.4 0 001.2.8c.4 0 .7-.1 1-.4.3-.3.4-.8.4-1.3s-.1-.9-.4-1.1c-.3-.3-.6-.5-1-.5s-.7.2-1 .5c-.3.2-.4.6-.4 1zm0 0"/></symbol><symbol id="i" overflow="visible"><path d="M1 0v-1h1v1zm0 0"/></symbol></defs><path d="M21 125.3h291M21 3h291M21 125.3v-2.9M57.3 125.3v-2.9M93.7 125.3v-2.9M130 125.3v-2.9M166.4 125.3v-2.9M202.8 125.3v-2.9M239.2 125.3v-2.9M275.6 125.3v-2.9M312 125.3v-2.9M21 3v3M57.3 3v3M93.7 3v3M130 3v3M166.4 3v3M202.8 3v3M239.2 3v3M275.6 3v3M312 3v3" fill="none" stroke="#232323" stroke-width=".5249999999999999" stroke-linecap="square" stroke-linejoin="round" stroke-miterlimit="10"/><g fill="#232323" transform="translate(-146.3 -329.2)"><use height="100%" width="100%" y="469" x="162.8" xlink:href="#a"/><use height="100%" width="100%" y="469" x="166.1" xlink:href="#b"/></g><g fill="#232323" transform="translate(-146.3 -329.2)"><use height="100%" width="100%" y="469" x="199.1" xlink:href="#a"/><use height="100%" width="100%" y="469" x="202.5" xlink:href="#c"/></g><use height="100%" width="100%" y="469" x="237" xlink:href="#d" fill="#232323" transform="translate(-146.3 -329.2)"/><use height="100%" width="100%" y="469" x="273.4" xlink:href="#c" fill="#232323" transform="translate(-146.3 -329.2)"/><use height="100%" width="100%" y="469" x="309.8" xlink:href="#b" fill="#232323" transform="translate(-146.3 -329.2)"/><use height="100%" width="100%" y="469" x="346.1" xlink:href="#e" fill="#232323" transform="translate(-146.3 -329.2)"/><use height="100%" width="100%" y="469" x="382.5" xlink:href="#f" fill="#232323" transform="translate(-146.3 -329.2)"/><use height="100%" width="100%" y="469" x="418.9" xlink:href="#g" fill="#232323" transform="translate(-146.3 -329.2)"/><use height="100%" width="100%" y="469" x="455.3" xlink:href="#h" fill="#232323" transform="translate(-146.3 -329.2)"/><path d="M21 125.3V3.1M312 125.3V3.1M21 125.3h2.8M21 84.6h2.8M21 43.8h2.8M21 3h2.8M312 125.3h-3M312 84.6h-3M312 43.8h-3M312 3h-3" fill="none" stroke="#232323" stroke-width=".5249999999999999" stroke-linecap="square" stroke-linejoin="round" stroke-miterlimit="10"/><g fill="#232323" transform="translate(-146.3 -329.2)"><use height="100%" width="100%" y="458.6" x="146" xlink:href="#a"/><use height="100%" width="100%" y="458.6" x="149.3" xlink:href="#d"/><use height="100%" width="100%" y="458.6" x="154.9" xlink:href="#i"/><use height="100%" width="100%" y="458.6" x="157.7" xlink:href="#b"/></g><use height="100%" width="100%" y="417.9" x="157.3" xlink:href="#d" fill="#232323" transform="translate(-146.3 -329.2)"/><g fill="#232323" transform="translate(-146.3 -329.2)"><use height="100%" width="100%" y="377.1" x="149" xlink:href="#d"/><use height="100%" width="100%" y="377.1" x="154.6" xlink:href="#i"/><use height="100%" width="100%" y="377.1" x="157.3" xlink:href="#b"/></g><g fill="#232323" transform="translate(-146.3 -329.2)"><use height="100%" width="100%" y="336.4" x="149" xlink:href="#d"/><use height="100%" width="100%" y="336.4" x="154.6" xlink:href="#i"/><use height="100%" width="100%" y="336.4" x="157.3" xlink:href="#f"/></g><path d="M21 89l4.9-5.4 4.9-9 5 11.1 4.9 8.6 4.9-9.3 5 2.8 4.9-5 4.9-8.7 5 4.6 4.9 10L75.2 68l5 18 4.9-5 4.9-7.5 5 .6 4.9-30 4.9-1.4 5-11.2 4.8 15.5 5-24.4 5 9.4 4.8 6.1 5 7.3 5-6.1 4.8 15.9 5 .7 5 15.3 4.8-6.6 5-24 4.9 10.5 5 19.3 4.9-5.5 4.9 6.2 5 9.7 4.9-1.4 4.9-1.7 5-7.7 4.9 6.9 4.9-.7 5-18.3 4.9 12.1 4.9 14.7 5-16 4.9 12.1 4.9-7 5 21.8 4.8-31.2 5 8.2 5 3.7 4.8 3.2 5-6.4 5 7 4.8 6.6 5-1.3 5-18.7 4.8 34.8 5 6.1 4.9-11.2 5 5" fill="none" stroke="#0070bd" stroke-width=".5249999999999999" stroke-linejoin="round" stroke-miterlimit="10"/><path d="M21 87.5l4.9 11.3 4.9-35.6 5 10.2 4.9 11.1 4.9 6.8 5-10.5 4.9 3 4.9-6.7 5-2.6 4.9 12.6 4.9-5.4 5 3.5 4.9 1.2 4.9-10 5 5.3 4.9-21.4 4.9.6 5-23.8 4.8 10.8 5-5.3 5 10.5 4.8-14.2 5 9.3 5-18.8 4.8 11 5 6 5-4.8 4.8-1.5 5 15 4.9-2.3 5 15.3 4.9-11.1 4.9 12.8 5-3.3 4.9 3.2 4.9-5.9 5 17.7 4.9-4.7 4.9-9.2 5 2.9 4.9-.5 4.9 3.7 5 19.4 4.9-41.7 4.9 34.6 5 1.6 4.8 16.5 5-29.5 5-5.4 4.8 19.4 5-.4 5-.1 4.8-4.4 5-3.7 5-3.4 4.8-.3 5 10 4.9-1 5-.5" fill="none" stroke="#d95117" stroke-width=".5249999999999999" stroke-linejoin="round" stroke-miterlimit="10"/><path d="M21 77.9l4.9 8.3 4.9-9.9 5 5 4.9 10.2 4.9-2.2 5 13L55.4 78l4.9 4 5 4 4.9-18.3 4.9 8.3 5-10.4L85 88.5l4.9 17.2L95 75l4.9-16.3 4.9-18.2 5 13 4.8-11.3 5-5 5-.1 4.8-9.6 5 12.2 5 11 4.8-6 5 23.8 5-33.7L159 60l5 10.5 4.9-6 5-.5 4.9 12.6 4.9-18.3 5 7.8 4.9-3.5 4.9 8 5 6.3 4.9-6.4 4.9 9.2 5-1.8 4.9-6.6 4.9-25.7 5 42 4.9 2.4 4.9-14.5 5 6.1 4.8 18.3 5-19.8 5-.2 4.8 16.5 5-23.5 5 3.4 4.8 12.1 5 4.5 5 4 4.8 6.8 5-18.5L307 89l5-13.7" fill="none" stroke="#ebb01e" stroke-width=".5249999999999999" stroke-linejoin="round" stroke-miterlimit="10"/><path d="M21 86l4.9-17.3 4.9 5 5 11 4.9 7.3 4.9-10 5 1.7 4.9-.3 4.9-6.4 5 19 4.9-20.5 4.9 3.3 5 9.8 4.9 26.2L90 91.6l5-22.8 4.9-22.1 4.9-15.5 5-2.4 4.8 4 5 11.2 5-11.7 4.8 3 5-13 5 33 4.8-25.3 5 9.6 5-3.7 4.8 31 5-14.7 4.9 16.7 5-15.2 4.9 23.7 4.9-12.6 5-4.8 4.9 17 4.9-5.9 5 13.2 4.9-17.6 4.9 14.4 5-22.4 4.9 13.2 4.9 26 5-3.7 4.9-30.6 4.9-3.5 5 33.6 4.8-9.8 5 7.4 5 3.3 4.8-4.4 5-11.2 5 18 4.8-28.7 5 21 5-12L297 66l5 2.9 4.9-7.7 5 19.8" fill="none" stroke="#7d2e8c" stroke-width=".5249999999999999" stroke-linejoin="round" stroke-miterlimit="10"/><path d="M21 67.7l4.9 18.6 4.9 4 5 10.7 4.9-23.2 4.9 9 5 4.6 4.9 2.3 4.9-10.9 5 17.6L70.2 74l4.9 14.8 5-14.8 4.9 2.8 4.9-1.1 5 3.4 4.9-16.7 4.9 5.7 5-24.5 4.8-2.5 5-15.8 5 8.6 4.8 25.9 5-2.3 5-29.7 4.8 22.7 5-7.8 5 3.6 4.8 15.9 5-9.2 4.9 21.4 5 .2 4.9-14.7 4.9 9.7 5 5.2 4.9 3.8 4.9-14.5 5 2 4.9 15 4.9-2.6 5-.8 4.9-3.9 4.9 24.3 5-31 4.9 14.3h4.9l5-11.5 4.8 5.6 5 3.3 5 12.3 4.8-13.1 5 21.5 5-10.2 4.8 3.2 5-16.1 5 8.2 4.8 5.5 5-2L307 87l5 8" fill="none" stroke="#75ab2e" stroke-width=".5249999999999999" stroke-linejoin="round" stroke-miterlimit="10"/><path d="M21 77.8l4.9 16 4.9-3.3 5 4.2L40.6 74l4.9-6.7 5 22.8 4.9-8.4 4.9-3.8 5-.6 4.9-.8 4.9 25.9 5-21.8 4.9 8L90 81l5 4.8 4.9-21.7 4.9-12.6 5-15.1 4.8-8.5 5 6.1 5 15 4.8-28.9 5 33.3 5-14 4.8 21 5-1.7 5 2.5 4.8-18 5 27.4 4.9 8.7 5-18 4.9-3.4 4.9 22.2 5-15 4.9-10.4 4.9 26.3 5-6 4.9 18.8 4.9-9 5-10.8 4.9 11.9 4.9.8 5 4.7 4.9-27.6 4.9 5.6 5 10 4.8 4.3 5 .7 5 20.1 4.8-11.2 5-21.5 5-6.4 4.8 29 5-17.3 5 7.3L297 86l5-5 4.9-3.9 5-11.7" fill="none" stroke="#4cbdee" stroke-width=".5249999999999999" stroke-linejoin="round" stroke-miterlimit="10"/><path d="M21 102.5l4.9-21.4 4.9 13 5-18.9 4.9 1.8 4.9 16 5-18.3 4.9 22.7 4.9-19.2 5 24.2 4.9-15.9 4.9-9.2 5-3.1 4.9 5L90 92l5-35.7 4.9 1 4.9 6.2 5-45 4.8 24 5 3.4 5-5.2 4.8 10.6 5-9.8 5 5.5 4.8-22.4 5 17.3 5 41.5 4.8-38.6 5 12.5 4.9 3.6 5 9 4.9-1.2 4.9-6 5 3.5 4.9 4.3 4.9 3.5 5 18.4 4.9-24.7 4.9-1.7 5 15.5 4.9 6.5 4.9-5.4 5 2.7 4.9 3.6 4.9-15.4 5 13.7 4.8-11.4 5 13.7 5-3.5 4.8-7.6 5 6.3 5 2.4 4.8-8 5 1.5 5 2.7 4.8 5 5-10.6L307 72l5 18.2" fill="none" stroke="#a1112e" stroke-width=".5249999999999999" stroke-linejoin="round" stroke-miterlimit="10"/><path d="M21 86.8l4.9-19.1 4.9 22.1 5-7.4L40.6 70l4.9 10 5-12.5 4.9 21.8 4.9 8.9 5-16.1 4.9 11.3 4.9 7.6 5-17.6 4.9-3.8L90 79l5 6 4.9-29.4 4.9-29.1 5-22.3 4.8 30.1 5-9.8 5 3.2 4.8 2.7 5 1.9 5 11.3 4.8 19.1 5-24.3 5 18.3 4.8 8.9 5-1.5 4.9 18.3 5 6.1 4.9-21.9 4.9 18.7 5-38.3 4.9 43 4.9-21.3 5 3.2 4.9 19.8 4.9-14.4 5-1.9 4.9 26.8 4.9-8.7 5 10.8 4.9-48.5 4.9 39 5-13.4 4.8 2 5 4.9 5-12.3 4.8 3.9 5 13.6 5-23.3 4.8 8.8 5 19.7 5-12.5 4.8-6 5 18.2 4.9-28.7 5-.1" fill="none" stroke="#0070bd" stroke-width=".5249999999999999" stroke-linejoin="round" stroke-miterlimit="10"/><path d="M21 87.6l4.9-6.1 4.9 9.6 5-6.7 4.9.6 4.9 4 5 12.9 4.9-28.4 4.9 5.7 5 10.9 4.9-10.8L75.2 92l5 4.8L85 80.3l4.9 2.4 5-11.9 4.9-21 4.9-10 5-28.2 4.8 25.1 5 7.4 5-12.5 4.8 2 5-7.6 5 24.3 4.8.9 5 5.5 5-6.7 4.8 21 5-14 4.9.2 5 23.7 4.9-13.8 4.9 20.2 5-25.9 4.9 33.6 4.9-27.1 5 2.5 4.9 3.9 4.9-1.5 5 15.1 4.9-14.8 4.9 26.5 5-23.3 4.9 20.3 4.9-4.2 5-5.1 4.8 5.8 5-32.8 5 29 4.8-17 5 4.7 5 3.4 4.8-10.2 5 6.9 5 11 4.8-4 5-7.6L307 99l5-15.2" fill="none" stroke="#d95117" stroke-width=".5249999999999999" stroke-linejoin="round" stroke-miterlimit="10"/><path d="M21 73.6l4.9 23.6L30.8 76l5 5.4 4.9 11 4.9-2 5 .1 4.9-1.4 4.9 8.2 5-11 4.9 22.7 4.9-26.3 5 5.8L85 72.5 90 90.3l5-13.8 4.9-33.4 4.9-13.8 5-6.2 4.8 8 5 20.6 5-14 4.8-3.1 5 17 5-3.2 4.8 1.1 5-5.4 5 12.7 4.8 16.7 5-38.7 4.9 15.8 5 35.9 4.9-8.3 4.9-15.7 5 15 4.9-10.2 4.9-13.6 5 9 4.9 7.6 4.9 7 5-12.7 4.9 16.6 4.9 14.6 5-10.3L238 69l4.9 6.5 5 5.6 4.8 2.7 5-14.9 5 19.3 4.8-6.6 5-3.2 5 10.5 4.8 21.2 5-29 5 10.8 4.8 6.2 5-12.9 4.9 5.6 5-16.9" fill="none" stroke="#ebb01e" stroke-width=".5249999999999999" stroke-linejoin="round" stroke-miterlimit="10"/></svg>