<svg viewBox="0 0 951.1 189.6" fill="none" stroke-linecap="square" stroke-miterlimit="10" xmlns="http://www.w3.org/2000/svg"><clipPath id="a"><path d="M0 0h951.1v189.6H0V0z"/></clipPath><g clip-path="url(#a)"><path fill="#000" fill-opacity="0" d="M0 0h951.1v189.6H0z" fill-rule="evenodd"/><path fill="#000" d="M352 17.5h241.7v37.7H352z" fill-rule="evenodd"/><path stroke="#000" stroke-linejoin="round" stroke-linecap="butt" d="M352 17.5h241.7v37.7H352z" fill-rule="evenodd"/><path fill="#fff" d="M415.4 33.6v2h-1.8V41l.3.3.4.1 1-.2.3 2q-1 .4-2 .4-.7 0-1.3-.3-.5-.2-.8-.6-.3-.3-.4-1v-6h-1.2v-2h1.2v-2l2.5-1.4v3.4h1.8zm3.7 3l-2.4-.5q.4-1.4 1.4-2 1-.7 2.8-.7 1.7 0 2.6.4.8.4 1.2 1 .3.6.3 2.3V42l.6 1.3H423l-.2-.8-.1-.3-1.4 1q-.8.3-1.6.3-1.5 0-2.4-.8-.8-.9-.8-2 0-1 .4-1.6.4-.6 1-1 .8-.3 2.1-.5 1.8-.4 2.5-.7v-.2q0-.8-.4-1-.3-.4-1.3-.4-.7 0-1.1.3-.4.3-.6 1zm3.4 2l-1.6.4-1.4.4q-.5.4-.5 1 0 .5.4.9t1 .4q.8 0 1.4-.5.5-.3.6-.8v-1.8zm4.8 5.3l3 .4q0 .5.2.6.4.3 1.2.3 1 0 1.5-.3.3-.2.5-.6l.1-1.2v-1.4q-1.1 1.6-2.9 1.6-2 0-3-1.7-1-1.3-1-3.2 0-2.5 1.2-3.8 1.2-1.2 3-1.2 1.7 0 2.9 1.5v-1.3h2.4v8.7q0 1.7-.3 2.5-.3.9-.8 1.3-.5.5-1.3.8-.9.3-2.2.3-2.5 0-3.5-.9-1-.8-1-2.1v-.3zm2.3-5.7q0 1.6.6 2.3.6.7 1.4.7 1 0 1.6-.7.7-.8.7-2.2 0-1.5-.6-2.3-.7-.7-1.6-.7-1 0-1.5.7-.6.8-.6 2.2zm7.8 8.7v-1.6h10.7v1.6h-10.7zm18.2 0v-4.8q-.5.6-1.2 1-.8.4-1.6.4-1.7 0-2.7-1.3-1.3-1.4-1.3-3.9 0-2.3 1.2-3.6 1.1-1.3 2.9-1.3 1 0 1.7.4t1.2 1.2v-1.4h2.4v13.3h-2.6zm.1-8.6q0-1.5-.6-2.2-.6-.7-1.5-.7-1 0-1.6.7-.6.7-.6 2.3 0 1.6.6 2.4.6.7 1.5.7t1.5-.8q.7-.8.7-2.4zm11.4 5v-1.5q-.6.8-1.4 1.2-.9.5-1.8.5-1 0-1.8-.5-.8-.4-1.1-1.2-.4-.7-.4-2.1v-6.1h2.6V38l.1 2.5q.2.5.6.8.3.2 1 .2.6 0 1-.3.6-.4.8-1 .2-.5.2-2.5v-4.1h2.5v9.7h-2.3zm10.6-3.1l2.5.4q-.4 1.4-1.5 2.1-1 .8-2.7.8-2.5 0-3.7-1.7-1-1.3-1-3.3 0-2.4 1.3-3.8 1.3-1.3 3.2-1.3 2.1 0 3.4 1.4 1.2 1.4 1.2 4.4H474q0 1.1.6 1.7.6.7 1.5.7.6 0 1-.4.4-.3.6-1zm.1-2.6q0-1.1-.5-1.7-.6-.6-1.4-.6-.8 0-1.4.6-.5.6-.5 1.7h3.8zm3.8 2.9l2.5-.4q.2.7.7 1.1.5.4 1.4.4 1 0 1.5-.3.3-.3.3-.7 0-.3-.2-.5-.1-.2-.8-.3-3.1-.7-4-1.3-1-.8-1-2.2 0-1.2 1-2 1-1 3-1t3 .7q1 .7 1.3 2l-2.4.4q-.2-.6-.6-.9-.5-.3-1.3-.3-1 0-1.4.3-.3.2-.3.5t.3.5q.3.2 2.3.7 2 .4 2.9 1.1.8.7.8 2t-1.1 2.2q-1.1 1-3.3 1-2 0-3.1-.8-1.2-.8-1.5-2.2zm15.7-7v2.1h-1.8V41l.3.3.4.1 1-.2.3 2q-.9.4-2 .4-.7 0-1.3-.3-.5-.2-.8-.6-.3-.3-.3-1l-.1-1.8v-4.2h-1.2v-2h1.2v-2l2.5-1.4v3.4h1.8zm1.8-1.2v-2.4h2.5v2.4h-2.5zm0 11v-9.7h2.5v9.7h-2.5zm4.6-5q0-1.3.6-2.5T506 34q1.1-.6 2.5-.6 2.2 0 3.6 1.4t1.4 3.6q0 2.2-1.4 3.6-1.4 1.5-3.5 1.5-1.4 0-2.6-.6-1.2-.6-1.8-1.8-.6-1.2-.6-2.8zm2.6.1q0 1.5.6 2.2.7.8 1.7.8t1.7-.8q.7-.7.7-2.2 0-1.4-.7-2.2-.7-.8-1.7-.8t-1.7.8q-.6.8-.6 2.2zm18.1 4.9H522v-5q0-1.5-.2-2t-.5-.7q-.4-.3-.9-.3-.7 0-1.2.4-.5.3-.7 1-.2.6-.2 2.2v4.4h-2.6v-9.7h2.4V35q1.3-1.6 3.2-1.6.8 0 1.5.3t1.1.8q.4.4.5 1l.1 1.7v6zm1.7-2.8l2.6-.4q.2.7.7 1.1.5.4 1.4.4 1 0 1.5-.3.3-.3.3-.7 0-.3-.2-.5t-.8-.3q-3.1-.7-4-1.3-1.1-.8-1.1-2.2 0-1.2 1-2 1-1 3-1t3 .7q1 .7 1.3 2l-2.4.4q-.1-.6-.6-.9-.4-.3-1.2-.3-1 0-1.4.3-.3.2-.3.5t.2.5l2.4.7q2 .4 2.9 1.1.8.7.8 2t-1.1 2.2q-1.2 1-3.3 1-2 0-3.2-.8-1.1-.8-1.5-2.2z"/><path fill="#000" fill-opacity="0" d="M352 55.2h241.7v37.7H352z" fill-rule="evenodd"/><path stroke="#000" stroke-linejoin="round" stroke-linecap="butt" d="M352 55.2h241.7v37.7H352z" fill-rule="evenodd"/><path fill="#000" d="M365.8 79.5l.2 1.5-1.2.1q-.9 0-1.4-.3-.5-.3-.7-.7-.2-.5-.2-2v-5.5h-1.2v-1.3h1.2V69l1.7-1v3.4h1.6v1.3h-1.6v6.6l.3.3H365.8zm8 .3q-1 .8-1.8 1-.9.4-1.8.4-1.6 0-2.5-.8-.8-.8-.8-2 0-.7.3-1.3.3-.6.8-.9.6-.4 1.2-.5l1.5-.3q2-.2 2.9-.6v-.4q0-1-.5-1.4-.6-.5-1.8-.5-1.2 0-1.7.4-.6.4-.9 1.4l-1.6-.2q.3-1 .8-1.7.5-.6 1.4-1 1-.3 2.2-.3 1.2 0 2 .3t1.2.7l.5 1.1V77q0 2.3.2 3 0 .5.4 1H374q-.3-.4-.4-1.1zm-.2-3.7q-.9.4-2.7.6l-1.4.4-.7.5-.2.8q0 .6.5 1 .5.5 1.5.5.9 0 1.6-.4.8-.4 1.1-1.1.3-.6.3-1.7v-.6zm3.9 5.7l1.6.2q0 .8.5 1 .6.5 1.7.5t1.8-.4q.6-.5.8-1.3l.1-2q-1 1.2-2.7 1.2-2 0-3-1.5-1.1-1.4-1.1-3.4 0-1.4.5-2.6.5-1.1 1.4-1.8 1-.6 2.3-.6 1.7 0 2.8 1.4v-1.2h1.5v8.4q0 2.2-.5 3.2-.4 1-1.4 1.5-1 .5-2.5.5-1.7 0-2.8-.8-1-.7-1-2.3zm1.3-5.8q0 1.9.8 2.7.8 1 1.9 1 1.1 0 1.9-1 .8-.8.8-2.7 0-1.8-.8-2.6-.8-1-2-1-1 0-1.8 1-.8.8-.8 2.6zm7.9 8.7v-1.2h10.8v1.2h-10.8zm18 0V80q-.4.5-1 .9-.7.3-1.5.3-1.7 0-3-1.4-1.2-1.3-1.2-3.7 0-1.5.5-2.7.5-1.1 1.4-1.7 1-.6 2.1-.6 1.8 0 2.9 1.5v-1.3h1.4v13.4h-1.6zm-5-8.6q0 1.9.7 2.8.8 1 2 1 1 0 1.7-1 .8-.8.8-2.6 0-2-.8-3t-1.9-1q-1 0-1.8 1-.7.9-.7 2.8zm15.5 4.9v-1.4q-1 1.6-3 1.6-.9 0-1.6-.3-.8-.4-1.1-.9-.4-.5-.5-1.2l-.1-1.5v-6h1.6v5.4l.1 1.7q.2.6.7 1 .5.4 1.2.4t1.4-.4q.6-.4 1-1 .2-.7.2-1.9v-5.2h1.6V81h-1.5zm10.7-3.1l1.7.2q-.4 1.5-1.5 2.3-1 .8-2.7.8-2.2 0-3.4-1.3-1.3-1.3-1.3-3.7 0-2.4 1.3-3.8 1.3-1.3 3.3-1.3 1.9 0 3.1 1.3 1.3 1.3 1.3 3.7v.5h-7.3q.1 1.6 1 2.4.8.9 2 .9.9 0 1.5-.5t1-1.5zm-5.4-2.7h5.4q0-1.2-.6-1.8-.8-1-2-1-1.1 0-2 .8-.7.8-.8 2zm8.5 2.9l1.6-.3q.2 1 .8 1.5.6.6 1.7.6 1.2 0 1.7-.5.6-.5.6-1 0-.6-.5-1l-1.7-.5-2.5-.8q-.7-.3-1-1-.4-.5-.4-1.2t.3-1.2q.3-.6.8-1l1-.4 1.4-.2q1.2 0 2 .3.9.3 1.3 1 .4.5.6 1.4l-1.6.2q-.1-.7-.7-1.1-.5-.5-1.4-.5-1.2 0-1.7.4-.4.4-.4.9l.2.6.6.4 1.4.4 2.5.8q.7.3 1 .8.4.6.4 1.4 0 .9-.4 1.6-.5.7-1.4 1.1-1 .4-2 .4-2 0-3-.8t-1.2-2.3zm13.6 1.4l.2 1.5-1.2.1q-1 0-1.4-.3-.5-.3-.7-.7-.2-.5-.2-2v-5.5h-1.2v-1.3h1.2V69l1.6-1v3.4h1.7v1.3h-1.7v5.6l.1 1 .3.3H442.6zm1.6-10v-1.9h1.6v2h-1.6zm0 11.5v-9.7h1.6V81h-1.6zm3.5-4.9q0-2.6 1.5-4 1.3-1 3-1 2 0 3.3 1.3 1.3 1.3 1.3 3.6 0 1.9-.6 3-.5 1-1.6 1.6-1 .6-2.3.6-2 0-3.3-1.3-1.3-1.3-1.3-3.8zm1.7 0q0 1.9.8 2.8.8 1 2 1 1.3 0 2-1 .9-.9.9-2.8 0-1.8-.8-2.7-.8-1-2-1-1.3 0-2.1 1-.8.9-.8 2.7zm9.3 4.9v-9.7h1.5v1.4q1-1.6 3-1.6 1 0 1.7.3t1 .8q.4.5.6 1.2V81H465v-6q0-1-.2-1.4-.2-.5-.7-.8-.4-.3-1-.3-1.1 0-2 .7-.7.6-.7 2.5V81h-1.6zm9.7-3l1.6-.2q.2 1 .8 1.5.6.6 1.7.6 1.2 0 1.7-.5.6-.5.6-1 0-.6-.5-1-.3-.2-1.7-.5l-2.5-.8q-.7-.3-1-1-.4-.5-.4-1.2t.3-1.2q.3-.6.8-1l1-.4q.7-.2 1.5-.2 1 0 2 .3.8.3 1.2 1 .4.5.6 1.4l-1.6.2q-.1-.7-.7-1.1-.5-.5-1.4-.5-1.2 0-1.6.4-.5.4-.5.9l.2.6.6.4 1.4.4 2.5.8q.7.3 1 .8.5.6.5 1.4 0 .9-.5 1.6-.5.7-1.4 1.1-1 .4-2 .4-2 0-3-.8t-1.2-2.3zm8.5 6.7v-1.2h10.9v1.2h-11zm18 0V80q-.3.5-1 .9-.7.3-1.5.3-1.7 0-3-1.4-1.2-1.3-1.2-3.7 0-1.5.5-2.7.5-1.1 1.5-1.7 1-.6 2-.6 1.9 0 3 1.5v-1.3h1.4v13.4h-1.7zm-5-8.6q0 1.9.8 2.8.8 1 1.8 1 1.1 0 1.8-1 .8-.8.8-2.6 0-2-.8-3t-1.9-1q-1 0-1.8 1-.7.9-.7 2.8zm15.6 4.9v-1.4q-1.1 1.6-3 1.6-1 0-1.7-.3-.7-.4-1-.9-.4-.5-.6-1.2v-7.5h1.6V78.4q.2.6.7 1 .5.4 1.3.4.7 0 1.3-.4.7-.4 1-1 .2-.7.2-1.9v-5.2h1.7V81h-1.5zm10.7-3.1l1.6.2q-.4 1.5-1.4 2.3-1.1.8-2.8.8-2.1 0-3.4-1.3-1.2-1.3-1.2-3.7 0-2.4 1.2-3.8 1.3-1.3 3.3-1.3 2 0 3.2 1.3 1.2 1.3 1.2 3.7v.5h-7.2q0 1.6.9 2.4.8.9 2 .9.9 0 1.5-.5.7-.5 1-1.5zm-5.4-2.7h5.4q-.1-1.2-.6-1.8-.8-1-2-1t-2 .8q-.8.8-.8 2zm8.5 2.9l1.6-.3q.1 1 .7 1.5.7.6 1.8.6t1.7-.5q.5-.5.5-1 0-.6-.5-1-.3-.2-1.7-.5L521 76q-.7-.3-1-1-.4-.5-.4-1.2t.3-1.2q.3-.6.8-1l1-.4q.7-.2 1.5-.2 1.1 0 2 .3.8.3 1.2 1 .5.5.6 1.4l-1.6.2q0-.7-.6-1.1-.5-.5-1.5-.5-1.1 0-1.6.4t-.5.9l.2.6.6.4 1.5.4 2.4.8q.7.3 1.1.8.4.6.4 1.4 0 .9-.5 1.6-.5.7-1.4 1.1-.9.4-2 .4-1.9 0-2.9-.8t-1.2-2.3zm13.5 1.4l.3 1.5-1.3.1q-.9 0-1.4-.3-.5-.3-.7-.7-.2-.5-.2-2v-5.5h-1.2v-1.3h1.2V69l1.7-1v3.4h1.6v1.3h-1.6v6.6l.3.3H532.8zm1.6-10v-1.9h1.7v2h-1.7zm0 11.5v-9.7h1.7V81h-1.7zM538 76q0-2.6 1.4-4 1.3-1 3-1 2 0 3.4 1.3 1.2 1.3 1.2 3.6 0 1.9-.5 3-.6 1-1.7 1.6-1 .6-2.3.6-2 0-3.3-1.3-1.2-1.3-1.2-3.8zm1.6 0q0 1.9.8 2.8.9 1 2 1 1.3 0 2.1-1 .8-.9.8-2.8 0-1.8-.8-2.7-.8-1-2-1t-2 1q-.9.9-.9 2.7zM549 81v-9.7h1.5v1.4q1-1.6 3-1.6 1 0 1.7.3t1 .8q.5.5.6 1.2l.1 1.6v6h-1.6v-6q0-1-.2-1.4-.2-.5-.7-.8-.5-.3-1.2-.3-1 0-1.8.7-.7.6-.7 2.5V81h-1.7zm8.9 3.7v-1.2h10.9v1.2h-10.9zm11.9-15.2v-1.9h1.6v2h-1.6zm0 11.5v-9.7h1.6V81h-1.6zm10.4 0v-1.2q-.9 1.4-2.7 1.4-1.2 0-2.1-.6-1-.7-1.5-1.8-.6-1.2-.6-2.6 0-1.5.5-2.7.5-1.2 1.5-1.8 1-.6 2.1-.6 1 0 1.6.4.7.3 1.1 1v-4.9h1.6V81h-1.5zm-5.2-4.8q0 1.8.8 2.7.8 1 1.9 1 1 0 1.8-1 .7-.8.7-2.6 0-2-.7-3-.8-.8-2-.8-1 0-1.7.8-.8 1-.8 2.9z"/><path fill="#000" d="M30.3 55.7H272v37.7H30.3z" fill-rule="evenodd"/><path stroke="#000" stroke-linejoin="round" stroke-linecap="butt" d="M30.3 55.7H272v37.7H30.3z" fill-rule="evenodd"/><path fill="#fff" d="M137.8 71.8v2H136v5.3l.3.3.4.2q.4 0 1-.3l.3 2q-1 .4-2 .4-.7 0-1.3-.2-.6-.3-.8-.6-.3-.4-.4-1v-6.1h-1.2v-2h1.1v-2l2.6-1.4v3.4h1.8zm3.6 3l-2.3-.5q.4-1.4 1.4-2 1-.7 2.8-.7 1.7 0 2.6.4.8.4 1.1 1 .4.7.4 2.3v4.9l.5 1.3h-2.5l-.2-.8-.1-.3q-.7.7-1.4 1-.8.3-1.6.3-1.5 0-2.4-.8-.8-.8-.8-2 0-.9.4-1.5.4-.7 1-1l2-.6q1.9-.3 2.6-.6v-.3q0-.7-.4-1-.3-.4-1.4-.4-.7 0-1 .3-.4.3-.7 1zm3.5 2l-1.6.4q-1 .2-1.4.5-.5.3-.5.9 0 .5.4 1 .4.3 1 .3.7 0 1.4-.5.4-.3.6-.8v-1.8zm4.8 5.3l2.9.4q0 .5.3.7.4.2 1.2.2 1 0 1.5-.2l.5-.7.1-1.2V80q-1.1 1.6-2.9 1.6-2 0-3-1.7-1-1.3-1-3.2 0-2.4 1.2-3.7 1.2-1.3 3-1.3 1.7 0 2.9 1.6v-1.4h2.4v8.7q0 1.7-.3 2.5-.3.9-.8 1.4-.5.5-1.4.7-.8.3-2.1.3-2.5 0-3.5-.8-1-.9-1-2.2v-.3zm2.3-5.7q0 1.6.6 2.3.6.7 1.4.7 1 0 1.6-.7.7-.8.7-2.2 0-1.5-.7-2.2-.6-.8-1.5-.8-1 0-1.5.8-.6.7-.6 2.1zm8.4 2.3l2.6-.4q.1.8.6 1.2.5.4 1.4.4 1 0 1.5-.4.4-.3.4-.7 0-.3-.2-.5t-.9-.3q-3-.7-3.9-1.3-1.1-.8-1.1-2.1t1-2.2q1-.8 3-.8t3 .6q1 .7 1.3 2l-2.4.4q-.2-.6-.6-.9-.4-.3-1.2-.3-1 0-1.5.3-.3.2-.3.5t.3.5q.3.2 2.4.7 2 .5 2.8 1.2.8.6.8 1.8 0 1.4-1 2.3-1.2 1-3.4 1-2 0-3-.8-1.2-.8-1.6-2.2z"/><path fill="#000" fill-opacity="0" d="M30.3 93.4H272v37.8H30.3z" fill-rule="evenodd"/><path stroke="#000" stroke-linejoin="round" stroke-linecap="butt" d="M30.3 93.4H272v37.8H30.3z" fill-rule="evenodd"/><path fill="#000" d="M44.1 117.7l.3 1.5-1.3.1q-.8 0-1.3-.2-.5-.3-.7-.8-.2-.4-.2-2v-5.5h-1.2v-1.3h1.2v-2.4l1.6-1v3.4H44v1.3h-1.6V117.4l.3.3.6.1h.7zm8 .3q-1 .8-1.8 1.1-.8.3-1.8.3-1.6 0-2.5-.8-.8-.7-.8-2 0-.7.3-1.2.3-.6.9-1l1.1-.5 1.5-.3q2-.2 3-.5v-.5q0-1-.5-1.4-.7-.5-2-.5-1 0-1.6.4-.6.4-.8 1.4l-1.6-.2q.2-1 .7-1.7.5-.6 1.4-1 1-.3 2.2-.3 1.3 0 2 .3.8.3 1.2.8.4.4.5 1V115.3q0 2.2.2 2.9l.4 1.1h-1.7q-.3-.5-.3-1.2zm-.2-3.6l-2.7.6q-1 .1-1.4.3-.4.2-.6.5-.3.4-.3.8 0 .7.5 1.1.5.4 1.5.4t1.7-.4q.7-.4 1-1.1.3-.6.3-1.6v-.6zm4 5.6l1.5.2q.1.8.6 1.1.6.5 1.6.5 1.2 0 1.8-.5.6-.4.8-1.2.2-.5.1-2.2-1 1.3-2.6 1.3-2 0-3.1-1.4-1.1-1.5-1.1-3.5 0-1.4.5-2.5.5-1.2 1.4-1.8 1-.7 2.3-.7 1.7 0 2.8 1.4v-1.2H64v8.4q0 2.3-.5 3.2-.4 1-1.4 1.5-1 .5-2.5.5-1.7 0-2.8-.7-1-.8-1-2.4zm1.3-5.8q0 1.9.7 2.8.8.9 2 .9 1 0 1.8-1 .8-.8.8-2.6t-.8-2.7q-.8-1-1.9-1-1.1 0-1.9 1-.7.8-.7 2.6zm8.6 2.1l1.7-.2q0 1 .7 1.5.6.5 1.8.5 1 0 1.6-.5.6-.4.6-1t-.5-1q-.3-.2-1.7-.5l-2.5-.8q-.7-.3-1-.9-.4-.6-.4-1.3 0-.6.3-1.2l.8-1 1-.4q.7-.2 1.5-.2 1.1 0 2 .3.8.4 1.2 1 .5.5.6 1.4l-1.6.3q-.1-.8-.6-1.2-.6-.4-1.5-.4-1.1 0-1.6.3-.5.4-.5 1l.2.5q.2.3.6.4l1.5.5 2.4.7q.7.3 1 .9.5.5.5 1.4 0 .8-.5 1.5T72 119q-.9.4-2 .4-2 0-3-.8-.9-.7-1.2-2.3zm8.5 6.6v-1.2h10.9v1.2H74.3zm15.5-5.2l.2 1.5-1.2.1q-1 0-1.4-.2-.5-.3-.7-.8-.2-.4-.2-2v-5.5h-1.2v-1.3h1.2v-2.4l1.6-1v3.4h1.7v1.3H88v5.7l.1.9.3.3.6.1h.7zm7.9.3q-1 .8-1.8 1.1-.8.3-1.8.3-1.6 0-2.4-.8-.9-.7-.9-2 0-.7.4-1.2.3-.6.8-1l1.2-.5 1.4-.3q2-.2 3-.5v-.5q0-1-.5-1.4-.6-.5-1.9-.5-1.1 0-1.7.4-.5.4-.8 1.4l-1.6-.2q.2-1 .7-1.7.5-.6 1.5-1 1-.3 2.2-.3 1.2 0 2 .3t1.1.8q.4.4.5 1l.1 1.6v2.2l.1 2.9.4 1.1H98l-.3-1.2zm-.1-3.6l-2.7.6-1.5.3q-.4.2-.6.5l-.2.8q0 .7.5 1.1.5.4 1.4.4 1 0 1.7-.4t1-1.1q.4-.6.4-1.6v-.6zm3.9 5.6l1.5.2q.2.8.6 1.1.6.5 1.7.5t1.7-.5q.7-.4.9-1.2v-2.2q-1 1.3-2.6 1.3-2 0-3-1.4-1.2-1.5-1.2-3.5 0-1.4.5-2.5.5-1.2 1.5-1.8 1-.7 2.2-.7 1.7 0 2.8 1.4v-1.2h1.6v8.4q0 2.3-.5 3.2-.5 1-1.5 1.5t-2.4.5q-1.7 0-2.8-.7-1-.8-1-2.4zm1.3-5.8q0 1.9.8 2.8.7.9 1.9.9 1 0 1.9-1 .7-.8.7-2.6t-.8-2.7q-.8-1-1.9-1-1 0-1.8 1-.8.8-.8 2.6zm7.8 8.7v-1.2h10.9v1.2h-10.9zm12-15.2V106h1.6v1.8h-1.7zm0 11.5v-9.7h1.6v9.7h-1.7zm10.3 0V118q-.9 1.4-2.7 1.4-1.1 0-2.1-.6-1-.7-1.5-1.8t-.5-2.6q0-1.5.4-2.6.5-1.2 1.5-1.9 1-.6 2.2-.6.8 0 1.5.4t1.1 1v-4.8h1.7v13.3h-1.6zm-5.1-4.8q0 1.8.7 2.8.8.9 1.9.9 1 0 1.8-.9t.8-2.7q0-2-.8-2.9-.8-1-1.9-1-1 0-1.8 1-.7.9-.7 2.8z"/><path fill="#000" fill-opacity="0" d="M352 93h241.7v37.7H352z" fill-rule="evenodd"/><path stroke="#000" stroke-linejoin="round" stroke-linecap="butt" d="M352 93h241.7v37.7H352z" fill-rule="evenodd"/><path fill="#000" d="M365.8 117.2l.2 1.5-1.2.1q-.9 0-1.4-.2-.5-.3-.7-.8-.2-.4-.2-2v-5.5h-1.2V109h1.2v-2.3l1.7-1v3.3h1.6v1.3h-1.6V117l.3.3.6.1h.7zm8 .3q-1 .8-1.8 1.1-.9.3-1.8.3-1.6 0-2.5-.7-.8-.8-.8-2 0-.8.3-1.3.3-.6.8-1l1.2-.5 1.5-.3q2-.2 2.9-.5v-.4q0-1-.5-1.5-.6-.5-1.8-.5-1.2 0-1.7.4-.6.4-.9 1.4l-1.6-.2q.3-1 .8-1.6.5-.7 1.4-1 1-.4 2.2-.4 1.2 0 2 .3t1.2.8l.5 1V114.8q0 2.2.2 2.9 0 .6.4 1.1H374q-.3-.5-.4-1.2zm-.2-3.6l-2.7.6q-1 .1-1.4.3l-.7.5-.2.8q0 .7.5 1.1.5.5 1.5.5.9 0 1.6-.5.8-.4 1.1-1 .3-.7.3-1.7v-.6zm3.9 5.6l1.6.2q0 .8.5 1.1.6.5 1.7.5t1.8-.5q.6-.4.8-1.2l.1-2.2q-1 1.3-2.7 1.3-2 0-3-1.4-1.1-1.5-1.1-3.5 0-1.4.5-2.5.5-1.2 1.4-1.8 1-.7 2.3-.7 1.7 0 2.8 1.4V109h1.5v8.4q0 2.3-.5 3.2-.4 1-1.4 1.5-1 .5-2.5.5-1.7 0-2.8-.7-1-.8-1-2.4zm1.3-5.8q0 2 .8 2.8.8.9 1.9.9 1.1 0 1.9-.9.8-.9.8-2.7 0-1.8-.8-2.7-.8-1-2-1-1 0-1.8 1-.8.8-.8 2.6zm7.9 8.7v-1.2h10.8v1.2h-10.8zm18 0v-4.7q-.4.5-1 .9-.7.3-1.5.3-1.7 0-3-1.3-1.2-1.4-1.2-3.8 0-1.5.5-2.6.5-1.2 1.4-1.8 1-.6 2.1-.6 1.8 0 2.9 1.5V109h1.4v13.4h-1.6zm-5-8.5q0 1.8.7 2.8.8.9 2 .9 1 0 1.7-.9.8-.9.8-2.7 0-2-.8-3-.8-.9-1.9-.9-1 0-1.8 1-.7.8-.7 2.8zm15.5 4.8v-1.4q-1 1.6-3 1.6-.9 0-1.6-.3-.8-.3-1.1-.8-.4-.5-.5-1.2l-.1-1.6v-6h1.6v5.4l.1 1.7q.2.7.7 1 .5.4 1.2.4t1.4-.3q.6-.4 1-1 .2-.7.2-2V109h1.6v9.7h-1.5zm10.7-3l1.7.1q-.4 1.5-1.5 2.3-1 .8-2.7.8-2.2 0-3.4-1.3-1.3-1.3-1.3-3.6 0-2.5 1.3-3.8 1.3-1.4 3.3-1.4 1.9 0 3.1 1.4 1.3 1.3 1.3 3.7v.4h-7.3q.1 1.6 1 2.4.8.9 2 .9.9 0 1.5-.5t1-1.5zm-5.4-2.8h5.4q0-1.2-.6-1.8-.8-1-2-1-1.1 0-2 .8-.7.8-.8 2zm8.5 3l1.6-.3q.2 1 .8 1.5.6.5 1.7.5 1.2 0 1.7-.5.6-.4.6-1t-.5-1l-1.7-.5q-1.8-.4-2.5-.8-.7-.3-1-.9-.4-.6-.4-1.3 0-.6.3-1.2.3-.5.8-.9l1-.5 1.4-.2q1.2 0 2 .4.9.3 1.3.8.4.6.6 1.5l-1.6.3q-.1-.8-.7-1.2-.5-.4-1.4-.4-1.2 0-1.7.3-.4.4-.4 1l.2.5q.2.3.6.4l1.4.5q1.8.4 2.5.7.7.3 1 .9.4.5.4 1.4 0 .8-.4 1.5-.5.7-1.4 1.1-1 .4-2 .4-2 0-3-.7-1-.8-1.2-2.4zm13.6 1.3l.2 1.5-1.2.1q-1 0-1.4-.2-.5-.3-.7-.8-.2-.4-.2-2v-5.5h-1.2V109h1.2v-2.3l1.6-1v3.3h1.7v1.3h-1.7v5.7l.1.9q0 .2.3.3l.6.1h.7zm1.6-10v-1.8h1.6v1.8h-1.6zm0 11.5V109h1.6v9.7h-1.6zm3.5-4.8q0-2.7 1.5-4 1.3-1 3-1 2 0 3.3 1.2 1.3 1.3 1.3 3.6 0 2-.6 3-.5 1-1.6 1.6-1 .6-2.3.6-2 0-3.3-1.3-1.3-1.3-1.3-3.7zm1.7 0q0 1.8.8 2.8.8.9 2 .9 1.3 0 2-1 .9-.9.9-2.8 0-1.8-.8-2.7-.8-1-2-1-1.3 0-2.1 1t-.8 2.8zm9.3 4.8V109h1.5v1.4q1-1.6 3-1.6 1 0 1.7.3t1 .9q.4.5.6 1.2v7.6H465v-6q0-1-.2-1.5t-.7-.8q-.4-.3-1-.3-1.1 0-2 .7-.7.7-.7 2.5v5.3h-1.6zm9.7-2.9l1.6-.2q.2 1 .8 1.5.6.5 1.7.5 1.2 0 1.7-.5.6-.4.6-1t-.5-1q-.3-.2-1.7-.5-1.8-.4-2.5-.8-.7-.3-1-.9-.4-.6-.4-1.3 0-.6.3-1.2.3-.5.8-.9l1-.5q.7-.2 1.5-.2 1 0 2 .4.8.3 1.2.8.4.6.6 1.5l-1.6.3q-.1-.8-.7-1.2-.5-.4-1.4-.4-1.2 0-1.6.3-.5.4-.5 1l.2.5q.2.3.6.4l1.4.5q1.8.4 2.5.7.7.3 1 .9.5.5.5 1.4 0 .8-.5 1.5t-1.4 1.1q-1 .4-2 .4-2 0-3-.7-1-.8-1.2-2.4zm8.5 6.6v-1.2h10.9v1.2h-11zm15.5-5.2l.2 1.5-1.2.1q-1 0-1.4-.2-.5-.3-.7-.8-.2-.4-.2-2v-5.5h-1.2V109h1.2v-2.3l1.6-1v3.3h1.7v1.3h-1.7V117l.4.3.5.1h.8zm7.9.3q-1 .8-1.8 1.1-.8.3-1.8.3-1.6 0-2.4-.7-.9-.8-.9-2 0-.8.3-1.3.4-.6.9-1l1.2-.5 1.4-.3q2-.2 3-.5v-.4q0-1-.5-1.5-.6-.5-1.9-.5-1.1 0-1.7.4-.5.4-.8 1.4l-1.6-.2q.2-1 .7-1.6.5-.7 1.5-1 1-.4 2.1-.4 1.3 0 2 .3.8.3 1.2.8.4.4.5 1V114.8q0 2.2.2 2.9.1.6.4 1.1h-1.7q-.3-.5-.3-1.2zm-.2-3.6l-2.6.6-1.5.3q-.4.2-.6.5l-.2.8q0 .7.5 1.1.5.5 1.4.5 1 0 1.7-.5.7-.4 1-1 .3-.7.3-1.7v-.6zm4 5.6l1.5.2q.1.8.6 1.1.6.5 1.7.5t1.7-.5q.6-.4.9-1.2v-2.2q-1 1.3-2.6 1.3-2 0-3.1-1.4-1.1-1.5-1.1-3.5 0-1.4.5-2.5.5-1.2 1.5-1.8 1-.7 2.2-.7 1.7 0 2.8 1.4V109h1.5v8.4q0 2.3-.4 3.2-.5 1-1.5 1.5t-2.4.5q-1.8 0-2.8-.7-1.1-.8-1-2.4zm1.3-5.8q0 2 .7 2.8.8.9 2 .9 1 0 1.8-.9t.8-2.7q0-1.8-.8-2.7-.8-1-1.9-1-1 0-1.8 1-.8.8-.8 2.6zm7.8 8.7v-1.2h10.9v1.2h-10.9zm11.9-15.2v-1.8h1.6v1.8h-1.6zm0 11.5V109h1.6v9.7h-1.6zm10.4 0v-1.2q-.9 1.4-2.7 1.4-1.2 0-2.1-.6-1-.6-1.5-1.8-.6-1.1-.6-2.6t.5-2.6q.5-1.2 1.5-1.9 1-.6 2.1-.6 1 0 1.6.4.7.4 1.1 1v-4.8h1.6v13.3h-1.5zm-5.2-4.8q0 1.8.8 2.8.8.9 1.9.9 1 0 1.8-.9.7-.9.7-2.7 0-2-.7-2.9-.8-1-2-1-1 0-1.7 1-.8.9-.8 2.8z"/><path fill="#000" fill-opacity="0" d="M30.3 130.2H272v37.7H30.3z" fill-rule="evenodd"/><path stroke="#000" stroke-linejoin="round" stroke-linecap="butt" d="M30.3 130.2H272v37.7H30.3z" fill-rule="evenodd"/><path fill="#000" d="M44.1 154.5l.3 1.4-1.3.2q-.8 0-1.3-.3t-.7-.7q-.2-.5-.2-2v-5.6h-1.2v-1.2h1.2v-2.4l1.6-1v3.4H44v1.2h-1.6v6.7l.3.2.6.1h.7zm8 .3q-1 .7-1.8 1-.8.4-1.8.4-1.6 0-2.5-.8-.8-.8-.8-2 0-.7.3-1.3.3-.6.9-1l1.1-.5 1.5-.2 3-.6v-.4q0-1-.5-1.4-.7-.6-2-.6-1 0-1.6.4-.6.4-.8 1.4l-1.6-.2q.2-1 .7-1.6.5-.7 1.4-1 1-.3 2.2-.3 1.3 0 2 .3.8.2 1.2.7.4.4.5 1.1v3.7q0 2.3.2 2.9l.4 1.2h-1.7q-.3-.6-.3-1.2zm-.2-3.7q-.9.4-2.7.6l-1.4.3q-.4.2-.6.6-.3.3-.3.8 0 .6.5 1 .5.5 1.5.5t1.7-.4q.7-.4 1-1.2.3-.5.3-1.6v-.6zm4 5.6l1.5.3q.1.7.6 1 .6.5 1.6.5 1.2 0 1.8-.4.6-.5.8-1.3.2-.5.1-2.1-1 1.3-2.6 1.3-2 0-3.1-1.5-1.1-1.4-1.1-3.4 0-1.4.5-2.6.5-1.2 1.4-1.8 1-.6 2.3-.6 1.7 0 2.8 1.3v-1.1H64v8.3q0 2.3-.5 3.2-.4 1-1.4 1.5-1 .6-2.5.6-1.7 0-2.8-.8-1-.8-1-2.4zm1.3-5.8q0 2 .7 2.8.8.9 2 .9 1 0 1.8-.9.8-.8.8-2.7 0-1.8-.8-2.7-.8-.9-1.9-.9-1.1 0-1.9 1-.7.8-.7 2.5zm8.6 2.2l1.7-.3q0 1 .7 1.5.6.5 1.8.5 1 0 1.6-.4.6-.5.6-1.1 0-.6-.5-.9-.3-.2-1.7-.5l-2.5-.8q-.7-.4-1-1-.4-.5-.4-1.3 0-.6.3-1.1.3-.6.8-1l1-.4q.7-.2 1.5-.2 1.1 0 2 .3.8.3 1.2.9.5.5.6 1.5l-1.6.2q-.1-.8-.6-1.2-.6-.4-1.5-.4-1.1 0-1.6.4t-.5.9q0 .3.2.5.2.3.6.5l1.5.4 2.4.7q.7.3 1 .9.5.6.5 1.4 0 .8-.5 1.6-.5.7-1.4 1-.9.5-2 .5-2 0-3-.8-.9-.8-1.2-2.3zm8.5 6.6v-1.2h10.9v1.2H74.3zm15.5-5.2l.2 1.4-1.2.2q-1 0-1.4-.3-.5-.3-.7-.7-.2-.5-.2-2v-5.6h-1.2v-1.2h1.2v-2.4l1.6-1v3.4h1.7v1.2H88v5.7l.1 1 .3.2.6.1h.7zm7.9.3q-1 .7-1.8 1-.8.4-1.8.4-1.6 0-2.4-.8-.9-.8-.9-2 0-.7.4-1.3.3-.6.8-1l1.2-.5 1.4-.2 3-.6v-.4q0-1-.5-1.4-.6-.6-1.9-.6-1.1 0-1.7.4-.5.4-.8 1.4l-1.6-.2q.2-1 .7-1.6.5-.7 1.5-1 1-.3 2.2-.3 1.2 0 2 .3.8.2 1.1.7.4.4.5 1.1l.1 1.5v2.2l.1 2.9.4 1.2H98l-.3-1.2zm-.1-3.7q-1 .4-2.7.6l-1.5.3q-.4.2-.6.6-.2.3-.2.8 0 .6.5 1 .5.5 1.4.5 1 0 1.7-.4t1-1.2q.4-.5.4-1.6v-.6zm3.9 5.6l1.5.3q.2.7.6 1 .6.5 1.7.5t1.7-.4q.7-.5.9-1.3v-2.1q-1 1.3-2.6 1.3-2 0-3-1.5-1.2-1.4-1.2-3.4 0-1.4.5-2.6.5-1.2 1.5-1.8 1-.6 2.2-.6 1.7 0 2.8 1.3v-1.1h1.6v8.3q0 2.3-.5 3.2-.5 1-1.5 1.5-1 .6-2.4.6-1.7 0-2.8-.8-1-.8-1-2.4zm1.3-5.8q0 2 .8 2.8.7.9 1.9.9 1 0 1.9-.9.7-.8.7-2.7 0-1.8-.8-2.7-.8-.9-1.9-.9-1 0-1.8 1-.8.8-.8 2.5zm7.8 8.8v-1.2h10.9v1.2h-10.9zm12-3.7v-9.7h1.4v1.4q1-1.6 3-1.6 1 0 1.7.3t1 .8q.4.5.6 1.2v7.6h-1.6v-6q0-1-.2-1.4-.2-.5-.6-.8-.5-.3-1.2-.3-1 0-1.8.7-.7.6-.7 2.5v5.3h-1.7zm16.6-1.2q-1 .7-1.8 1-.8.4-1.8.4-1.6 0-2.4-.8-.9-.8-.9-2 0-.7.4-1.3.3-.6.8-1l1.2-.5 1.4-.2 3-.6v-.4q0-1-.5-1.4-.6-.6-1.9-.6-1.1 0-1.7.4-.5.4-.8 1.4l-1.6-.2q.2-1 .7-1.6.5-.7 1.5-1 1-.3 2.2-.3 1.2 0 2 .3.8.2 1.1.7.4.4.5 1.1l.1 1.5v2.2l.1 2.9.4 1.2h-1.7l-.3-1.2zm-.1-3.7q-1 .4-2.7.6l-1.4.3q-.5.2-.7.6-.2.3-.2.8 0 .6.5 1 .5.5 1.4.5 1 0 1.7-.4.8-.4 1.1-1.2.3-.5.3-1.6v-.6zm4.2 4.9v-9.7h1.4v1.3q.5-.7 1.2-1.1.8-.4 1.8-.4t1.7.4q.7.5 1 1.2 1.1-1.6 3-1.6 1.4 0 2.2.8.8.8.8 2.4v6.7h-1.7v-6.1l-.1-1.4q-.2-.5-.6-.8-.4-.2-1-.2-1 0-1.7.7-.6.6-.6 2.1v5.7H149v-6.3q0-1.1-.4-1.7-.4-.5-1.3-.5-.7 0-1.3.3-.6.4-.8 1.1-.3.7-.3 2v5h-1.6zm22.1-3.2l1.7.2q-.4 1.5-1.5 2.4-1 .8-2.7.8-2.2 0-3.4-1.3-1.2-1.3-1.2-3.7 0-2.5 1.2-3.8 1.3-1.3 3.3-1.3 2 0 3.1 1.3 1.3 1.3 1.3 3.7v.4h-7.3q.1 1.6 1 2.5.8.8 2 .8.9 0 1.5-.4.7-.5 1-1.6zm-5.4-2.6h5.4q0-1.2-.6-1.8-.8-1-2-1-1.1 0-2 .8-.7.7-.8 2z"/><path fill="#000" d="M673.7 17.5h241.6v37.7H673.7z" fill-rule="evenodd"/><path stroke="#000" stroke-linejoin="round" stroke-linecap="butt" d="M673.7 17.5h241.6v37.7H673.7z" fill-rule="evenodd"/><path fill="#fff" d="M758.1 47v-5q-.5.7-1.2 1-.8.5-1.7.5-1.6 0-2.7-1.3-1.2-1.4-1.2-3.9 0-2.3 1.2-3.6 1.1-1.3 2.9-1.3 1 0 1.7.4t1.2 1.2v-1.4h2.4v13.3H758zm.1-8.7q0-1.5-.6-2.2-.6-.7-1.5-.7-1 0-1.6.7-.6.7-.6 2.3 0 1.6.6 2.4.6.7 1.5.7t1.5-.8q.7-.8.7-2.4zm11.3 5v-1.5q-.5.8-1.3 1.2-.9.5-1.9.5-1 0-1.7-.5-.8-.4-1.1-1.2-.4-.7-.4-2.1v-6.1h2.6V38l.1 2.5.5.8q.4.2 1 .2.7 0 1.2-.3.5-.4.7-1 .2-.5.2-2.5v-4.1h2.5v9.7h-2.4zm10.7-3.1l2.5.4q-.5 1.4-1.5 2.1-1 .8-2.7.8-2.5 0-3.7-1.7-1-1.3-1-3.3 0-2.4 1.3-3.8 1.3-1.3 3.2-1.3 2.1 0 3.4 1.4 1.2 1.4 1.2 4.4h-6.4q0 1.1.6 1.7.6.7 1.5.7.5 0 1-.4.4-.3.6-1zm.1-2.6q0-1.1-.5-1.7-.6-.6-1.4-.6-.8 0-1.4.6-.5.6-.5 1.7h3.8zm3.8 2.9l2.5-.4q.2.7.7 1.1.5.4 1.4.4 1 0 1.5-.3.3-.3.3-.7 0-.3-.2-.5t-.8-.3q-3.1-.7-4-1.3-1-.8-1-2.2 0-1.2.9-2 1-1 3-1t3 .7q1 .7 1.4 2l-2.4.4q-.2-.6-.6-.9-.5-.3-1.3-.3-1 0-1.4.3-.3.2-.3.5t.2.5l2.4.7q2 .4 2.9 1.1.8.7.8 2t-1.1 2.2q-1.1 1-3.3 1-2 0-3.1-.8-1.2-.8-1.5-2.2zm15.7-7v2.1H798V41l.3.3.4.1 1-.2.3 2q-1 .4-2 .4-.7 0-1.3-.3-.5-.2-.8-.6-.3-.3-.4-1v-6h-1.2v-2h1.1v-2l2.6-1.4v3.4h1.8zm1.8-1.2v-2.4h2.5v2.4h-2.5zm0 11v-9.7h2.5v9.7h-2.5zm4.5-5q0-1.3.7-2.5.6-1.2 1.7-1.8 1.2-.6 2.6-.6 2.2 0 3.6 1.4t1.4 3.6q0 2.2-1.4 3.6-1.4 1.5-3.6 1.5-1.3 0-2.5-.6t-1.8-1.8q-.7-1.2-.7-2.8zm2.7.1q0 1.5.6 2.2.7.8 1.7.8t1.7-.8q.7-.7.7-2.2 0-1.4-.7-2.2-.7-.8-1.7-.8t-1.7.8q-.6.8-.6 2.2zm18.1 4.9h-2.5v-5q0-1.5-.2-2t-.5-.7q-.4-.3-1-.3t-1.1.4q-.5.3-.8 1l-.1 2.2v4.4H818v-9.7h2.4V35q1.3-1.6 3.2-1.6.8 0 1.5.3t1 .8q.4.4.6 1l.1 1.7v6zm1.7-2.8l2.6-.4q.2.7.7 1.1.5.4 1.4.4 1 0 1.4-.3.4-.3.4-.7 0-.3-.2-.5t-.9-.3q-3-.7-3.9-1.3-1.1-.8-1.1-2.2 0-1.2 1-2 1-1 3-1t3 .7q1 .7 1.3 2l-2.4.4q-.1-.6-.6-.9-.4-.3-1.2-.3-1 0-1.4.3-.3.2-.3.5t.2.5q.3.2 2.4.7 2 .4 2.9 1.1.8.7.8 2t-1.2 2.2q-1 1-3.2 1-2 0-3.2-.8-1.1-.8-1.5-2.2z"/><path fill="#000" fill-opacity="0" d="M673.7 55.2h241.6v37.7H673.7z" fill-rule="evenodd"/><path stroke="#000" stroke-linejoin="round" stroke-linecap="butt" d="M673.7 55.2h241.6v37.7H673.7z" fill-rule="evenodd"/><path fill="#000" d="M690 84.7V80q-.3.5-1 .9-.7.3-1.5.3-1.7 0-3-1.4-1.2-1.3-1.2-3.7 0-1.5.5-2.7.5-1.1 1.5-1.7 1-.6 2.1-.6 1.8 0 2.8 1.5v-1.3h1.5v13.4h-1.6zm-5-8.6q0 1.9.8 2.8.8 1 1.9 1 1 0 1.8-1 .7-.8.7-2.6 0-2-.8-3t-1.8-1q-1.1 0-1.9 1-.7.9-.7 2.8zm15.6 4.9v-1.4q-1.1 1.6-3 1.6-1 0-1.7-.3-.7-.4-1-.9-.4-.5-.6-1.2v-7.5h1.6V78.4q.2.6.7 1 .5.4 1.3.4.7 0 1.3-.4.7-.4 1-1 .2-.7.2-1.9v-5.2h1.7V81h-1.5zm10.7-3.1l1.7.2q-.4 1.5-1.5 2.3-1 .8-2.8.8-2.1 0-3.4-1.3-1.2-1.3-1.2-3.7 0-2.4 1.3-3.8 1.2-1.3 3.2-1.3t3.2 1.3q1.2 1.3 1.2 3.7v.5h-7.2q0 1.6.9 2.4.8.9 2 .9 1 0 1.6-.5.6-.5 1-1.5zm-5.4-2.7h5.4q-.1-1.2-.6-1.8-.8-1-2-1t-2 .8q-.7.8-.8 2zm8.5 2.9l1.6-.3q.1 1 .7 1.5.7.6 1.8.6t1.7-.5q.5-.5.5-1 0-.6-.5-1-.3-.2-1.6-.5L716 76q-.6-.3-1-1-.4-.5-.4-1.2t.3-1.2q.3-.6.8-1l1-.4 1.5-.2q1.1 0 2 .3.9.3 1.3 1 .4.5.5 1.4l-1.6.2q0-.7-.6-1.1-.5-.5-1.5-.5-1.1 0-1.6.4t-.5.9l.2.6.7.4 1.4.4 2.4.8q.7.3 1.1.8.4.6.4 1.4 0 .9-.5 1.6-.4.7-1.4 1.1-.9.4-2 .4-1.9 0-2.9-.8t-1.2-2.3zm13.5 1.4l.3 1.5-1.3.1q-.9 0-1.4-.3-.4-.3-.6-.7-.2-.5-.2-2v-5.5h-1.2v-1.3h1.2V69l1.6-1v3.4h1.6v1.3h-1.6v6.6l.3.3H728zm1.6-10v-1.9h1.7v2h-1.7zm0 11.5v-9.7h1.7V81h-1.7zm3.6-4.9q0-2.6 1.5-4 1.2-1 3-1 2 0 3.3 1.3 1.2 1.3 1.2 3.6 0 1.9-.5 3-.6 1-1.7 1.6-1 .6-2.3.6-2 0-3.3-1.3-1.2-1.3-1.2-3.8zm1.7 0q0 1.9.8 2.8.8 1 2 1t2-1q.9-.9.9-2.8 0-1.8-.9-2.7-.8-1-2-1t-2 1q-.8.9-.8 2.7zM744 81v-9.7h1.4v1.4q1-1.6 3.1-1.6.9 0 1.6.3.8.3 1.1.8.4.5.5 1.2l.1 1.6v6h-1.6v-6q0-1-.2-1.4-.2-.5-.7-.8-.5-.3-1.1-.3-1 0-1.8.7-.8.6-.8 2.5V81h-1.6zm9.7-3l1.6-.2q.1 1 .8 1.5.6.6 1.7.6t1.7-.5q.5-.5.5-1 0-.6-.5-1-.3-.2-1.6-.5l-2.5-.8q-.7-.3-1-1-.5-.5-.5-1.2t.3-1.2q.3-.6.9-1l1-.4 1.4-.2q1.2 0 2 .3.9.3 1.3 1 .4.5.6 1.4l-1.7.2q0-.7-.6-1.1-.5-.5-1.5-.5-1.1 0-1.6.4t-.5.9l.2.6.7.4 1.4.4 2.4.8q.7.3 1.1.8.4.6.4 1.4 0 .9-.5 1.6-.4.7-1.3 1.1-1 .4-2 .4-2 0-3-.8t-1.2-2.3zm8.5 6.7v-1.2H773v1.2h-10.8zM774 69.5v-1.9h1.7v2H774zm0 11.5v-9.7h1.7V81H774zm10.5 0v-1.2q-1 1.4-2.8 1.4-1.1 0-2-.6-1-.7-1.6-1.8-.5-1.2-.5-2.6 0-1.5.5-2.7.5-1.2 1.4-1.8 1-.6 2.2-.6.9 0 1.5.4.7.3 1.1 1v-4.9h1.7V81h-1.5zm-5.2-4.8q0 1.8.8 2.7.7 1 1.8 1 1 0 1.8-1 .8-.8.8-2.6 0-2-.8-3-.7-.8-1.9-.8-1 0-1.8.8-.7 1-.7 2.9z"/><path fill="#000" fill-opacity="0" d="M673.7 93h241.6v37.7H673.7z" fill-rule="evenodd"/><path stroke="#000" stroke-linejoin="round" stroke-linecap="butt" d="M673.7 93h241.6v37.7H673.7z" fill-rule="evenodd"/><path fill="#000" d="M690 122.4v-4.7q-.3.5-1 .9-.7.3-1.5.3-1.7 0-3-1.3-1.2-1.4-1.2-3.8 0-1.5.5-2.6.5-1.2 1.5-1.8 1-.6 2.1-.6 1.8 0 2.8 1.5V109h1.5v13.4h-1.6zm-5-8.5q0 1.8.8 2.8.8.9 1.9.9 1 0 1.8-.9.7-.9.7-2.7 0-2-.8-3-.8-.9-1.8-.9-1.1 0-1.9 1-.7.8-.7 2.8zm15.6 4.8v-1.4q-1.1 1.6-3 1.6-1 0-1.7-.3t-1-.8q-.4-.5-.6-1.2V109h1.6V116.1q.2.7.7 1 .5.4 1.3.4.7 0 1.3-.3.7-.4 1-1 .2-.7.2-2V109h1.7v9.7h-1.5zm10.7-3l1.7.1q-.4 1.5-1.5 2.3-1 .8-2.8.8-2.1 0-3.4-1.3-1.2-1.3-1.2-3.6 0-2.5 1.3-3.8 1.2-1.4 3.2-1.4t3.2 1.4q1.2 1.3 1.2 3.7v.4h-7.2q0 1.6.9 2.4.8.9 2 .9 1 0 1.6-.5.6-.5 1-1.5zm-5.4-2.8h5.4q-.1-1.2-.6-1.8-.8-1-2-1t-2 .8q-.7.8-.8 2zm8.5 3l1.6-.3q.1 1 .7 1.5.7.5 1.8.5t1.7-.5q.5-.4.5-1t-.5-1q-.3-.2-1.6-.5-1.9-.4-2.6-.8-.6-.3-1-.9-.4-.6-.4-1.3 0-.6.3-1.2.3-.5.8-.9l1-.5 1.5-.2q1.1 0 2 .4.9.3 1.3.8.4.6.5 1.5l-1.6.3q0-.8-.6-1.2-.5-.4-1.5-.4-1.1 0-1.6.3-.5.4-.5 1l.2.5q.2.3.7.4l1.4.5 2.4.7q.7.3 1.1.9.4.5.4 1.4 0 .8-.5 1.5-.4.7-1.4 1.1-.9.4-2 .4-1.9 0-2.9-.7-1-.8-1.2-2.4zm13.5 1.3l.3 1.5-1.3.1q-.9 0-1.4-.2-.4-.3-.6-.8-.2-.4-.2-2v-5.5h-1.2V109h1.2v-2.3l1.6-1v3.3h1.6v1.3h-1.6V117l.3.3.6.1h.7zm1.6-10v-1.8h1.7v1.8h-1.7zm0 11.5V109h1.7v9.7h-1.7zm3.6-4.8q0-2.7 1.5-4 1.2-1 3-1 2 0 3.3 1.2 1.2 1.3 1.2 3.6 0 2-.5 3-.6 1-1.7 1.6-1 .6-2.3.6-2 0-3.3-1.3-1.2-1.3-1.2-3.7zm1.7 0q0 1.8.8 2.8.8.9 2 .9t2-1q.9-.9.9-2.8 0-1.8-.9-2.7-.8-1-2-1t-2 1q-.8 1-.8 2.8zm9.3 4.8V109h1.4v1.4q1-1.6 3.1-1.6.9 0 1.6.3.8.3 1.1.9.4.5.5 1.2l.1 1.6v6h-1.6v-6q0-1-.2-1.5t-.7-.8q-.5-.3-1.1-.3-1 0-1.8.7t-.8 2.5v5.3h-1.6zm9.7-2.9l1.6-.2q.1 1 .8 1.5.6.5 1.7.5t1.7-.5q.5-.4.5-1t-.5-1q-.3-.2-1.6-.5-1.8-.4-2.5-.8-.7-.3-1-.9-.5-.6-.5-1.3 0-.6.3-1.2.3-.5.9-.9.3-.3 1-.5l1.4-.2q1.2 0 2 .4.9.3 1.3.8.4.6.6 1.5l-1.7.3q0-.8-.6-1.2-.5-.4-1.5-.4-1.1 0-1.6.3-.5.4-.5 1l.2.5q.2.3.7.4l1.4.5q1.8.4 2.4.7.7.3 1.1.9.4.5.4 1.4 0 .8-.5 1.5-.4.7-1.3 1.1-1 .4-2 .4-2 0-3-.7-1-.8-1.2-2.4zm8.5 6.6v-1.2H773v1.2h-10.8zm18.2-4.9q-1 .8-1.8 1.1-.8.3-1.8.3-1.6 0-2.5-.7-.8-.8-.8-2 0-.8.3-1.3.3-.6.9-1l1.1-.5 1.5-.3q2-.2 3-.5v-.4q0-1-.5-1.5-.7-.5-2-.5-1 0-1.6.4-.6.4-.8 1.4l-1.6-.2q.2-1 .7-1.6.5-.7 1.4-1 1-.4 2.2-.4 1.3 0 2 .3.8.3 1.2.8.4.4.5 1V114.8q0 2.2.2 2.9 0 .6.4 1.1h-1.7q-.3-.5-.3-1.2zm-.2-3.6l-2.7.6q-1 .1-1.4.3l-.7.5-.2.8q0 .7.5 1.1.5.5 1.5.5t1.7-.5q.7-.4 1-1 .3-.7.3-1.7v-.6zm10.5 4.8v-1.4q-1 1.6-3 1.6-.9 0-1.6-.3-.8-.3-1.1-.8-.4-.5-.5-1.2l-.1-1.6v-6h1.6v5.4l.1 1.7q.2.7.7 1 .5.4 1.2.4t1.4-.3q.6-.4 1-1 .2-.7.2-2V109h1.6v9.7h-1.5zm7.7-1.5l.2 1.5-1.2.1q-1 0-1.4-.2-.5-.3-.7-.8-.2-.4-.2-2v-5.5H794V109h1.2v-2.3l1.6-1v3.3h1.7v1.3h-1.7V117l.4.3.6.1h.7zm1.6 1.5v-13.3h1.6v4.8q1.2-1.4 3-1.4 1 0 1.8.4.8.5 1.1 1.2.4.8.4 2.2v6.1h-1.7v-6.1q0-1.2-.5-1.8-.6-.6-1.5-.6-.8 0-1.4.4-.6.4-1 1-.2.7-.2 1.8v5.3h-1.6zm9.7-4.8q0-2.7 1.5-4 1.3-1 3-1 2 0 3.3 1.2 1.3 1.3 1.3 3.6 0 2-.6 3-.5 1-1.6 1.6-1 .6-2.3.6-2 0-3.3-1.3-1.3-1.3-1.3-3.7zm1.7 0q0 1.8.8 2.8.8.9 2 .9 1.3 0 2.1-1 .8-.9.8-2.8 0-1.8-.8-2.7-.8-1-2-1-1.3 0-2 1-.9 1-.9 2.8zm9.3 4.8V109h1.5v1.5q.5-1 1-1.3.5-.4 1-.4.9 0 1.8.6l-.6 1.5q-.6-.4-1.2-.4-.5 0-1 .3-.4.4-.6 1-.3.8-.3 1.9v5h-1.6zm4.7 3.7v-1.2h10.9v1.2h-10.9zm12-15.2v-1.8h1.6v1.8h-1.7zm0 11.5V109h1.6v9.7h-1.7zm10.3 0v-1.2q-.9 1.4-2.7 1.4-1.1 0-2.1-.6t-1.5-1.8q-.5-1.1-.5-2.6t.5-2.6q.4-1.2 1.4-1.9 1-.6 2.2-.6.8 0 1.5.4t1.1 1v-4.8h1.7v13.3h-1.6zm-5.1-4.8q0 1.8.7 2.8.8.9 1.9.9 1 0 1.8-.9t.8-2.7q0-2-.8-2.9-.8-1-1.9-1-1 0-1.8 1-.7.9-.7 2.8z"/><path fill="#b6d7a8" d="M673.7 130.7h241.6v37.7H673.7z" fill-rule="evenodd"/><path stroke="#000" stroke-linejoin="round" stroke-linecap="butt" d="M673.7 130.7h241.6v37.7H673.7z" fill-rule="evenodd"/><path fill="#38761d" d="M690.3 160.1v-4.8q-.5.6-1.2 1-.8.4-1.6.4-1.7 0-2.7-1.3-1.3-1.4-1.3-4 0-2.2 1.2-3.5 1.2-1.3 3-1.3.9 0 1.6.4.7.4 1.2 1.2v-1.4h2.4V160h-2.6zm.1-8.6q0-1.5-.6-2.2-.6-.7-1.5-.7-1 0-1.6.7-.6.7-.6 2.3 0 1.6.6 2.3.6.8 1.5.8t1.5-.8q.7-.8.7-2.4zm11.4 5V155q-.6.8-1.4 1.2-.9.5-1.8.5-1 0-1.8-.5-.8-.4-1.1-1.2-.4-.7-.4-2.1v-6.1h2.6v4.4l.1 2.5q.2.5.6.7.3.3 1 .3.6 0 1-.3.6-.4.8-1 .2-.5.2-2.5v-4.1h2.5v9.6h-2.3zm10.6-3.1l2.5.4q-.4 1.4-1.5 2.1-1 .8-2.7.8-2.5 0-3.7-1.7-1-1.3-1-3.3 0-2.4 1.3-3.8 1.3-1.3 3.2-1.3 2.1 0 3.4 1.4 1.2 1.4 1.2 4.4h-6.4q0 1 .6 1.7t1.5.7q.6 0 1-.4.4-.3.6-1zm.2-2.6q0-1.1-.6-1.7-.6-.6-1.4-.6-.8 0-1.3.6-.6.6-.6 1.7h3.9zm3.7 2.9l2.5-.4q.2.7.7 1.1.5.4 1.4.4 1 0 1.5-.4.3-.2.3-.6l-.1-.5q-.2-.2-.9-.4-3.1-.6-4-1.2-1-.8-1-2.2 0-1.2 1-2 1-1 3-1t3 .7q1 .7 1.3 2l-2.4.4q-.2-.6-.6-.9-.4-.3-1.3-.3-1 0-1.4.3-.3.2-.3.5t.3.5q.3.2 2.3.7 2.1.4 3 1.1.7.7.7 2t-1.1 2.2q-1.1 1-3.3 1-2 0-3.1-.8-1.2-.8-1.5-2.2zm15.7-7v2.1h-1.8v5.3l.3.3.4.1 1-.2.3 2q-.9.4-2 .4-.7 0-1.3-.3-.5-.2-.8-.6-.2-.3-.3-1l-.1-1.8v-4.2h-1.2v-2h1.2v-2l2.5-1.4v3.4h1.8zm1.8-1.2V143h2.5v2.4h-2.5zm0 11v-9.7h2.5v9.6h-2.5zm4.6-5q0-1.3.6-2.5t1.8-1.8q1.1-.6 2.5-.6 2.2 0 3.6 1.4t1.4 3.6q0 2.2-1.4 3.6-1.4 1.5-3.5 1.5-1.4 0-2.6-.6-1.2-.6-1.8-1.8-.6-1.2-.6-2.8zm2.6.1q0 1.5.7 2.2.6.8 1.6.8t1.7-.8q.7-.7.7-2.2 0-1.4-.7-2.2-.7-.8-1.7-.8t-1.6.8q-.7.8-.7 2.2zm18.1 4.8h-2.5v-4.9q0-1.6-.2-2-.1-.5-.5-.7-.4-.3-.9-.3-.7 0-1.2.4-.5.3-.7 1-.2.5-.2 2.2v4.3h-2.6v-9.6h2.4v1.4q1.3-1.6 3.2-1.6.8 0 1.5.3t1.1.8q.4.4.5 1l.1 1.7v6zm1.7-2.7l2.6-.4q.2.7.7 1.1.5.4 1.4.4 1 0 1.5-.4.3-.2.3-.6 0-.3-.2-.5l-.8-.4q-3.1-.6-4-1.2-1.1-.8-1.1-2.2 0-1.2 1-2 1-1 3-1t3 .7q1 .7 1.3 2l-2.4.4q-.1-.6-.6-.9-.4-.3-1.2-.3-1 0-1.4.3-.3.2-.3.5t.2.5l2.4.7q2 .4 2.9 1.1.8.7.8 2t-1.1 2.2q-1.1 1-3.3 1-2 0-3.2-.8-1.1-.8-1.5-2.2zm9.8 6.4v-1.6h10.6v1.6h-10.6zm16.3-13.3v2h-1.7v5.3q0 .2.2.3l.5.1 1-.2.2 2q-.9.4-2 .4-.7 0-1.2-.3-.6-.2-.9-.6-.2-.3-.3-1v-6h-1.3v-2h1.2v-2l2.6-1.4v3.4h1.7zm3.7 3l-2.3-.5q.4-1.4 1.3-2 1-.7 2.9-.7 1.7 0 2.5.4.9.4 1.2 1 .4.6.4 2.3v4.9l.5 1.2h-2.5l-.3-.7v-.3q-.7.6-1.5 1-.7.3-1.6.3-1.4 0-2.3-.8-.9-.9-.9-2 0-1 .4-1.6.4-.6 1.1-1 .7-.3 2-.5 1.8-.4 2.5-.7v-.2q0-.8-.3-1-.4-.4-1.4-.4-.7 0-1 .3-.5.3-.7 1zm3.4 2l-1.5.4-1.4.4q-.5.4-.5 1 0 .5.4.9t1 .4q.7 0 1.3-.5.5-.3.6-.8l.1-1.3v-.5zm4.8 5.3l3 .3q0 .5.3.7.4.3 1.2.3 1 0 1.5-.3.3-.2.5-.6V154.9q-1 1.5-2.8 1.5-2 0-3.1-1.6-.9-1.3-.9-3.2 0-2.5 1.2-3.8 1.1-1.2 2.9-1.2 1.8 0 3 1.5v-1.3h2.3v8.6q0 1.8-.2 2.6-.3.9-.8 1.3-.5.5-1.4.8-.8.3-2.2.3-2.4 0-3.4-.9-1-.8-1-2.1v-.3zm2.3-5.7q0 1.5.6 2.3.6.7 1.5.7 1 0 1.6-.7.6-.8.6-2.2 0-1.5-.6-2.3-.6-.7-1.6-.7-.9 0-1.5.7t-.6 2.2zm8.5 2.3l2.5-.4q.2.7.7 1.1.5.4 1.4.4 1 0 1.5-.4.3-.2.3-.6l-.1-.5q-.2-.2-.9-.4-3.1-.6-4-1.2-1-.8-1-2.2 0-1.2 1-2 1-1 3-1t3 .7q1 .7 1.3 2l-2.4.4q-.2-.6-.6-.9-.4-.3-1.3-.3-1 0-1.4.3-.3.2-.3.5t.3.5q.3.2 2.3.7 2.1.4 3 1.1.7.7.7 2t-1.1 2.2q-1.1 1-3.3 1-2 0-3.1-.8-1.2-.8-1.5-2.2z"/><path fill="#b6d7a8" d="M352 130.2h241.7v37.7H352z" fill-rule="evenodd"/><path stroke="#000" stroke-linejoin="round" stroke-linecap="butt" d="M352 130.2h241.7v37.7H352z" fill-rule="evenodd"/><path fill="#000" fill-opacity="0" d="M272 112.3l80-.5" fill-rule="evenodd"/><path stroke="#000" stroke-width="2" stroke-linejoin="round" stroke-linecap="butt" d="M272 112.3l80-.5" fill-rule="evenodd"/><path fill="#000" fill-opacity="0" d="M593.7 74h80" fill-rule="evenodd"/><path stroke="#000" stroke-width="2" stroke-linejoin="round" stroke-linecap="butt" d="M593.7 74h80" fill-rule="evenodd"/><path fill="#000" fill-opacity="0" d="M272 149h80" fill-rule="evenodd"/><path stroke="#6aa84f" stroke-width="3" stroke-linejoin="round" stroke-linecap="butt" d="M272 149h62" fill-rule="evenodd"/><path fill="#6aa84f" stroke="#6aa84f" stroke-width="3" stroke-linecap="butt" d="M334 154l13.6-5-13.6-5z" fill-rule="evenodd"/><path fill="#000" fill-opacity="0" d="M593.7 149l80 .5" fill-rule="evenodd"/><path stroke="#6aa84f" stroke-width="3" stroke-linejoin="round" stroke-linecap="butt" d="M593.7 149l62 .4" fill-rule="evenodd"/><path fill="#6aa84f" stroke="#6aa84f" stroke-width="3" stroke-linecap="butt" d="M655.6 154.4l13.7-4.9-13.6-5z" fill-rule="evenodd"/></g></svg>