<svg height="387.7" viewBox="0 0 389.3 290.8" width="519" xmlns="http://www.w3.org/2000/svg" xmlns:xlink="http://www.w3.org/1999/xlink"><defs><style>*{stroke-linecap:butt;stroke-linejoin:round}</style></defs><g id="figure_1"><path d="M0 290.8h389.3V0H0z" fill="none" id="patch_1"/><g id="axes_1"><path d="M43.8 253.2h334.8V35.8H43.8z" fill="#fff" id="patch_2"/><path clip-path="url(#pc7cd8b26fc)" d="M59 253.2h10.5v-11H59z" fill="#1f77b4" fill-opacity=".5" id="patch_3"/><path clip-path="url(#pc7cd8b26fc)" d="M69.5 253.2H80v-34H69.5z" fill="#1f77b4" fill-opacity=".5" id="patch_4"/><path clip-path="url(#pc7cd8b26fc)" d="M80 253.2h10.5v-29.7H80z" fill="#1f77b4" fill-opacity=".5" id="patch_5"/><path clip-path="url(#pc7cd8b26fc)" d="M90.5 253.2H101V226H90.5z" fill="#1f77b4" fill-opacity=".5" id="patch_6"/><path clip-path="url(#pc7cd8b26fc)" d="M101 253.2h10.5v-23.6H101z" fill="#1f77b4" fill-opacity=".5" id="patch_7"/><path clip-path="url(#pc7cd8b26fc)" d="M111.5 253.2H122V232h-10.5z" fill="#1f77b4" fill-opacity=".5" id="patch_8"/><path clip-path="url(#pc7cd8b26fc)" d="M122 253.2h10.5v-18.8H122z" fill="#1f77b4" fill-opacity=".5" id="patch_9"/><path clip-path="url(#pc7cd8b26fc)" d="M132.5 253.2H143v-16.8h-10.5z" fill="#1f77b4" fill-opacity=".5" id="patch_10"/><path clip-path="url(#pc7cd8b26fc)" d="M143 253.2h10.5v-14.4H143z" fill="#1f77b4" fill-opacity=".5" id="patch_11"/><path clip-path="url(#pc7cd8b26fc)" d="M153.5 253.2H164v-14.4h-10.5z" fill="#1f77b4" fill-opacity=".5" id="patch_12"/><path clip-path="url(#pc7cd8b26fc)" d="M164 253.2h10.4v-16H164z" fill="#1f77b4" fill-opacity=".5" id="patch_13"/><path clip-path="url(#pc7cd8b26fc)" d="M174.4 253.2H185v-15.8h-10.5z" fill="#1f77b4" fill-opacity=".5" id="patch_14"/><path clip-path="url(#pc7cd8b26fc)" d="M185 253.2h10.4v-14.7H185z" fill="#1f77b4" fill-opacity=".5" id="patch_15"/><path clip-path="url(#pc7cd8b26fc)" d="M195.4 253.2H206v-14.8h-10.5z" fill="#1f77b4" fill-opacity=".5" id="patch_16"/><path clip-path="url(#pc7cd8b26fc)" d="M206 253.2h10.4v-16.3H206z" fill="#1f77b4" fill-opacity=".5" id="patch_17"/><path clip-path="url(#pc7cd8b26fc)" d="M216.4 253.2H227v-15.8h-10.5z" fill="#1f77b4" fill-opacity=".5" id="patch_18"/><path clip-path="url(#pc7cd8b26fc)" d="M227 253.2h10.4v-16H227z" fill="#1f77b4" fill-opacity=".5" id="patch_19"/><path clip-path="url(#pc7cd8b26fc)" d="M237.4 253.2H248v-17.3h-10.5z" fill="#1f77b4" fill-opacity=".5" id="patch_20"/><path clip-path="url(#pc7cd8b26fc)" d="M248 253.2h10.4v-20.5H248z" fill="#1f77b4" fill-opacity=".5" id="patch_21"/><path clip-path="url(#pc7cd8b26fc)" d="M258.4 253.2H269v-23.3h-10.5z" fill="#1f77b4" fill-opacity=".5" id="patch_22"/><path clip-path="url(#pc7cd8b26fc)" d="M269 253.2h10.4v-24.3h-10.5z" fill="#1f77b4" fill-opacity=".5" id="patch_23"/><path clip-path="url(#pc7cd8b26fc)" d="M279.4 253.2h10.5v-25h-10.5z" fill="#1f77b4" fill-opacity=".5" id="patch_24"/><path clip-path="url(#pc7cd8b26fc)" d="M289.9 253.2h10.5v-27h-10.5z" fill="#1f77b4" fill-opacity=".5" id="patch_25"/><path clip-path="url(#pc7cd8b26fc)" d="M300.4 253.2h10.5v-31h-10.5z" fill="#1f77b4" fill-opacity=".5" id="patch_26"/><path clip-path="url(#pc7cd8b26fc)" d="M310.9 253.2h10.5v-34.5h-10.5z" fill="#1f77b4" fill-opacity=".5" id="patch_27"/><path clip-path="url(#pc7cd8b26fc)" d="M321.4 253.2h10.5v-45.8h-10.5z" fill="#1f77b4" fill-opacity=".5" id="patch_28"/><path clip-path="url(#pc7cd8b26fc)" d="M331.9 253.2h10.5v-64.4h-10.5z" fill="#1f77b4" fill-opacity=".5" id="patch_29"/><path clip-path="url(#pc7cd8b26fc)" d="M342.4 253.2h10.5V148.8h-10.5z" fill="#1f77b4" fill-opacity=".5" id="patch_30"/><path clip-path="url(#pc7cd8b26fc)" d="M352.9 253.2h10.5v-207h-10.5z" fill="#1f77b4" fill-opacity=".5" id="patch_31"/><path clip-path="url(#pc7cd8b26fc)" d="M59 253.2h10.5v-38.7H59z" fill="#ff7f0e" fill-opacity=".5" id="patch_32"/><path clip-path="url(#pc7cd8b26fc)" d="M69.5 253.2H80v-80.5H69.5z" fill="#ff7f0e" fill-opacity=".5" id="patch_33"/><path clip-path="url(#pc7cd8b26fc)" d="M80 253.2h10.5v-66H80z" fill="#ff7f0e" fill-opacity=".5" id="patch_34"/><path clip-path="url(#pc7cd8b26fc)" d="M90.5 253.2H101v-47.5H90.5z" fill="#ff7f0e" fill-opacity=".5" id="patch_35"/><path clip-path="url(#pc7cd8b26fc)" d="M101 253.2h10.5V216H101z" fill="#ff7f0e" fill-opacity=".5" id="patch_36"/><path clip-path="url(#pc7cd8b26fc)" d="M111.5 253.2H122v-29.5h-10.5z" fill="#ff7f0e" fill-opacity=".5" id="patch_37"/><path clip-path="url(#pc7cd8b26fc)" d="M122 253.2h10.5v-25H122z" fill="#ff7f0e" fill-opacity=".5" id="patch_38"/><path clip-path="url(#pc7cd8b26fc)" d="M132.5 253.2H143v-23.3h-10.5z" fill="#ff7f0e" fill-opacity=".5" id="patch_39"/><path clip-path="url(#pc7cd8b26fc)" d="M143 253.2h10.5v-21.8H143z" fill="#ff7f0e" fill-opacity=".5" id="patch_40"/><path clip-path="url(#pc7cd8b26fc)" d="M153.5 253.2H164v-22.6h-10.5z" fill="#ff7f0e" fill-opacity=".5" id="patch_41"/><path clip-path="url(#pc7cd8b26fc)" d="M164 253.2h10.4v-22.8H164z" fill="#ff7f0e" fill-opacity=".5" id="patch_42"/><path clip-path="url(#pc7cd8b26fc)" d="M174.4 253.2H185v-22.3h-10.5z" fill="#ff7f0e" fill-opacity=".5" id="patch_43"/><path clip-path="url(#pc7cd8b26fc)" d="M185 253.2h10.4V231H185z" fill="#ff7f0e" fill-opacity=".5" id="patch_44"/><path clip-path="url(#pc7cd8b26fc)" d="M195.4 253.2H206v-20.5h-10.5z" fill="#ff7f0e" fill-opacity=".5" id="patch_45"/><path clip-path="url(#pc7cd8b26fc)" d="M206 253.2h10.4v-20.6H206z" fill="#ff7f0e" fill-opacity=".5" id="patch_46"/><path clip-path="url(#pc7cd8b26fc)" d="M216.4 253.2H227v-20.6h-10.5z" fill="#ff7f0e" fill-opacity=".5" id="patch_47"/><path clip-path="url(#pc7cd8b26fc)" d="M227 253.2h10.4v-20.8H227z" fill="#ff7f0e" fill-opacity=".5" id="patch_48"/><path clip-path="url(#pc7cd8b26fc)" d="M237.4 253.2H248v-21.9h-10.5z" fill="#ff7f0e" fill-opacity=".5" id="patch_49"/><path clip-path="url(#pc7cd8b26fc)" d="M248 253.2h10.4v-22.4H248z" fill="#ff7f0e" fill-opacity=".5" id="patch_50"/><path clip-path="url(#pc7cd8b26fc)" d="M258.4 253.2H269v-23.3h-10.5z" fill="#ff7f0e" fill-opacity=".5" id="patch_51"/><path clip-path="url(#pc7cd8b26fc)" d="M269 253.2h10.4v-23.1h-10.5z" fill="#ff7f0e" fill-opacity=".5" id="patch_52"/><path clip-path="url(#pc7cd8b26fc)" d="M279.4 253.2h10.5v-24h-10.5z" fill="#ff7f0e" fill-opacity=".5" id="patch_53"/><path clip-path="url(#pc7cd8b26fc)" d="M289.9 253.2h10.5v-25.1h-10.5z" fill="#ff7f0e" fill-opacity=".5" id="patch_54"/><path clip-path="url(#pc7cd8b26fc)" d="M300.4 253.2h10.5v-27.7h-10.5z" fill="#ff7f0e" fill-opacity=".5" id="patch_55"/><path clip-path="url(#pc7cd8b26fc)" d="M310.9 253.2h10.5v-34.7h-10.5z" fill="#ff7f0e" fill-opacity=".5" id="patch_56"/><path clip-path="url(#pc7cd8b26fc)" d="M321.4 253.2h10.5v-44.8h-10.5z" fill="#ff7f0e" fill-opacity=".5" id="patch_57"/><path clip-path="url(#pc7cd8b26fc)" d="M331.9 253.2h10.5v-56.5h-10.5z" fill="#ff7f0e" fill-opacity=".5" id="patch_58"/><path clip-path="url(#pc7cd8b26fc)" d="M342.4 253.2h10.5v-62.8h-10.5z" fill="#ff7f0e" fill-opacity=".5" id="patch_59"/><path clip-path="url(#pc7cd8b26fc)" d="M352.9 253.2h10.5v-36.7h-10.5z" fill="#ff7f0e" fill-opacity=".5" id="patch_60"/><g id="matplotlib.axis_1"><g id="xtick_1"><g id="line2d_1"><defs><path d="M0 0v3.5" id="m73b3be6d6d" stroke="#000" stroke-width=".8"/></defs><use x="59" xlink:href="#m73b3be6d6d" y="253.2" stroke="#000" stroke-width=".8"/></g><g id="text_1"><defs><path d="M10.6 35.5h62.6v-8.3H10.6z" id="DejaVuSans-8722"/><path d="M12.4 8.3h16.1v55.6L11 60.4v9l17.4 3.5h9.9V8.3h16V0H12.5z" id="DejaVuSans-49"/><path d="M10.7 12.4H21V0H10.7z" id="DejaVuSans-46"/><path d="M31.8 66.4q-7.6 0-11.5-7.5-3.8-7.5-3.8-22.5t3.8-22.5q3.9-7.5 11.5-7.5 7.7 0 11.5 7.5T47 36.4q0 15-3.8 22.5t-11.5 7.5zm0 7.8q12.2 0 18.7-9.7T57 36.4Q57 18 50.5 8.3 44-1.4 31.8-1.4 19.5-1.4 13 8.3q-6.5 9.7-6.5 28 0 18.5 6.5 28.2 6.4 9.7 18.7 9.7z" id="DejaVuSans-48"/></defs><g transform="matrix(.1 0 0 -.1 43.7 267.8)"><use xlink:href="#DejaVuSans-8722"/><use x="83.8" xlink:href="#DejaVuSans-49"/><use x="147.4" xlink:href="#DejaVuSans-46"/><use x="179.2" xlink:href="#DejaVuSans-48"/><use x="242.8" xlink:href="#DejaVuSans-48"/></g></g></g><g id="xtick_2"><use x="97" xlink:href="#m73b3be6d6d" y="253.2" stroke="#000" stroke-width=".8" id="line2d_2"/><g id="text_2"><defs><path d="M8.2 73h46.9v-4.3L28.6 0H18.3l25 64.6H8.1z" id="DejaVuSans-55"/><path d="M10.8 73h38.7v-8.4H19.8V46.7q2.2.8 4.3 1.1 2.2.4 4.3.4 12.2 0 19.4-6.7 7-6.7 7-18.1 0-11.8-7.2-18.3-7.4-6.5-20.7-6.5-4.6 0-9.4.8-4.7.7-9.8 2.3v10q4.4-2.5 9.1-3.6 4.7-1.2 9.9-1.2 8.5 0 13.4 4.4 5 4.5 5 12 0 7.7-5 12.1Q35 40 26.7 40q-4 0-7.9-.9-4-.9-8-2.7z" id="DejaVuSans-53"/></defs><g transform="matrix(.1 0 0 -.1 81.7 267.8)"><use xlink:href="#DejaVuSans-8722"/><use x="83.8" xlink:href="#DejaVuSans-48"/><use x="147.4" xlink:href="#DejaVuSans-46"/><use x="179.2" xlink:href="#DejaVuSans-55"/><use x="242.8" xlink:href="#DejaVuSans-53"/></g></g></g><g id="xtick_3"><use x="135.1" xlink:href="#m73b3be6d6d" y="253.2" stroke="#000" stroke-width=".8" id="line2d_3"/><g transform="matrix(.1 0 0 -.1 119.8 267.8)" id="text_3"><use xlink:href="#DejaVuSans-8722"/><use x="83.8" xlink:href="#DejaVuSans-48"/><use x="147.4" xlink:href="#DejaVuSans-46"/><use x="179.2" xlink:href="#DejaVuSans-53"/><use x="242.8" xlink:href="#DejaVuSans-48"/></g></g><g id="xtick_4"><use x="173.1" xlink:href="#m73b3be6d6d" y="253.2" stroke="#000" stroke-width=".8" id="line2d_4"/><g id="text_4"><defs><path d="M19.2 8.3h34.4V0H7.3v8.3l15.3 15.6q9.7 9.8 12.2 12.6 4.7 5.3 6.6 9 2 3.7 2 7.3 0 5.8-4.2 9.5-4 3.6-10.6 3.6-4.6 0-9.8-1.6-5.1-1.6-11-4.9v10q6 2.4 11.1 3.6 5.2 1.2 9.5 1.2 11.4 0 18-5.7 6.8-5.6 6.8-15 0-4.6-1.7-8.6-1.6-4-6-9.5l-7.9-8.2L19.2 8.3z" id="DejaVuSans-50"/></defs><g transform="matrix(.1 0 0 -.1 157.8 267.8)"><use xlink:href="#DejaVuSans-8722"/><use x="83.8" xlink:href="#DejaVuSans-48"/><use x="147.4" xlink:href="#DejaVuSans-46"/><use x="179.2" xlink:href="#DejaVuSans-50"/><use x="242.8" xlink:href="#DejaVuSans-53"/></g></g></g><g id="xtick_5"><use x="211.2" xlink:href="#m73b3be6d6d" y="253.2" stroke="#000" stroke-width=".8" id="line2d_5"/><g transform="matrix(.1 0 0 -.1 200 267.8)" id="text_5"><use xlink:href="#DejaVuSans-48"/><use x="63.6" xlink:href="#DejaVuSans-46"/><use x="95.4" xlink:href="#DejaVuSans-48"/><use x="159" xlink:href="#DejaVuSans-48"/></g></g><g id="xtick_6"><use x="249.2" xlink:href="#m73b3be6d6d" y="253.2" stroke="#000" stroke-width=".8" id="line2d_6"/><g transform="matrix(.1 0 0 -.1 238 267.8)" id="text_6"><use xlink:href="#DejaVuSans-48"/><use x="63.6" xlink:href="#DejaVuSans-46"/><use x="95.4" xlink:href="#DejaVuSans-50"/><use x="159" xlink:href="#DejaVuSans-53"/></g></g><g id="xtick_7"><use x="287.3" xlink:href="#m73b3be6d6d" y="253.2" stroke="#000" stroke-width=".8" id="line2d_7"/><g transform="matrix(.1 0 0 -.1 276.1 267.8)" id="text_7"><use xlink:href="#DejaVuSans-48"/><use x="63.6" xlink:href="#DejaVuSans-46"/><use x="95.4" xlink:href="#DejaVuSans-53"/><use x="159" xlink:href="#DejaVuSans-48"/></g></g><g id="xtick_8"><use x="325.3" xlink:href="#m73b3be6d6d" y="253.2" stroke="#000" stroke-width=".8" id="line2d_8"/><g transform="matrix(.1 0 0 -.1 314.2 267.8)" id="text_8"><use xlink:href="#DejaVuSans-48"/><use x="63.6" xlink:href="#DejaVuSans-46"/><use x="95.4" xlink:href="#DejaVuSans-55"/><use x="159" xlink:href="#DejaVuSans-53"/></g></g><g id="xtick_9"><use x="363.4" xlink:href="#m73b3be6d6d" y="253.2" stroke="#000" stroke-width=".8" id="line2d_9"/><g transform="matrix(.1 0 0 -.1 352.2 267.8)" id="text_9"><use xlink:href="#DejaVuSans-49"/><use x="63.6" xlink:href="#DejaVuSans-46"/><use x="95.4" xlink:href="#DejaVuSans-48"/><use x="159" xlink:href="#DejaVuSans-48"/></g></g><g id="text_10"><defs><path d="M52 44.2q3.4 6 8 9Q64.9 56 71 56q8.6 0 13.3-6 4.6-6 4.6-17V0h-9v32.7q0 7.9-2.8 11.7-2.8 3.8-8.5 3.8-7 0-11-4.7-4-4.6-4-12.6V0h-9.1v32.7q0 8-2.8 11.7-2.8 3.8-8.6 3.8-6.9 0-11-4.7-4-4.6-4-12.6V0h-9v54.7h9v-8.5q3 5 7.4 7.4Q29.8 56 35.7 56q6 0 10.1-3 4.2-3 6.2-8.8z" id="DejaVuSans-109"/><path d="M64.4 67.3V56.9q-5 4.6-10.6 7Q48 66 41.8 66q-12.5 0-19.1-7.6Q16 50.8 16 36.4q0-14.4 6.7-22 6.6-7.7 19.1-7.7 6.3 0 12 2.3 5.6 2.3 10.6 7V5.5q-5.2-3.5-11-5.3-5.7-1.7-12.2-1.7-16.5 0-26 10.1-9.6 10.1-9.6 27.7T15.1 64q9.6 10.1 26.1 10.1 6.5 0 12.3-1.7 5.8-1.8 11-5.2z" id="DejaVuSans-67"/><path d="M44.3 53v-8.4q-3.8 2-8 2.9-4 1-8.4 1-6.7 0-10-2-3.4-2.1-3.4-6.2 0-3.1 2.4-5 2.4-1.7 9.6-3.3l3-.7q9.7-2 13.7-5.8 4-3.7 4-10.4 0-7.6-6-12-6-4.5-16.6-4.5-4.4 0-9.1.8-4.8.9-10 2.6v9.3q5-2.6 9.7-4 4.9-1.2 9.6-1.2 6.4 0 9.8 2.2 3.4 2.2 3.4 6.1 0 3.7-2.5 5.6-2.4 2-10.8 3.8l-3.1.7q-8.4 1.8-12 5.4-3.8 3.6-3.8 10 0 7.7 5.5 11.9Q16.7 56 26.8 56q5 0 9.4-.7 4.4-.8 8-2.2z" id="DejaVuSans-115"/><path d="M9.4 54.7h9V0h-9zm0 21.3h9V64.6h-9z" id="DejaVuSans-105"/><path d="M54.9 33V0h-9v32.7q0 7.8-3 11.6-3 3.9-9.1 3.9-7.3 0-11.5-4.7Q18.1 39 18.1 31V0h-9v54.7h9v-8.5q3.2 5 7.6 7.4Q30.1 56 35.8 56q9.4 0 14.2-5.8Q55 44.3 55 33z" id="DejaVuSans-110"/><path d="M56.2 29.6v-4.4H14.9q.6-9.3 5.6-14.1 5-4.9 14-4.9 5 0 10 1.3 4.8 1.2 9.6 3.8V2.8q-4.8-2-10-3.1-5-1.1-10.2-1.1-13.1 0-20.7 7.6-7.7 7.6-7.7 20.6 0 13.4 7.3 21.3Q20 56 32.3 56q11 0 17.5-7.1 6.4-7.1 6.4-19.3zm-9 2.6q0 7.4-4.1 11.8-4 4.4-10.7 4.4-7.5 0-12-4.3-4.5-4.2-5.2-12z" id="DejaVuSans-101"/><path d="M30.6 48.4q-7.2 0-11.4-5.6Q15 37 15 27.3t4.2-15.5q4.1-5.6 11.4-5.6 7.2 0 11.4 5.7 4.2 5.6 4.2 15.4 0 9.7-4.2 15.4-4.2 5.7-11.4 5.7zm0 7.6q11.7 0 18.4-7.6 6.7-7.6 6.7-21.1 0-13.4-6.7-21-6.7-7.7-18.4-7.7-11.8 0-18.4 7.6Q5.5 14 5.5 27.3q0 13.5 6.7 21Q18.8 56 30.6 56z" id="DejaVuSans-111"/><path d="M9.4 76h9V0h-9z" id="DejaVuSans-108"/><path d="M34.3 27.5q-11 0-15.1-2.5-4.2-2.5-4.2-8.5 0-4.8 3.1-7.6 3.2-2.8 8.6-2.8 7.5 0 12 5.3t4.5 14v2zm17.9 3.7V0h-9v8.3q-3-5-7.7-7.3Q31-1.4 24.3-1.4 16-1.4 11 3.3 6 8 6 15.9q0 9.2 6.2 14 6.2 4.6 18.4 4.6h12.6v1q0 6.1-4 9.5-4.1 3.4-11.5 3.4-4.7 0-9.2-1.1-4.4-1.2-8.5-3.4v8.3q5 2 9.6 2.8 4.6 1 9 1 11.9 0 17.7-6.2 5.9-6.1 5.9-18.6z" id="DejaVuSans-97"/><path d="M41.1 46.3q-1.5.9-3.3 1.3-1.8.4-4 .4-7.5 0-11.6-5-4-5-4-14.2V0H9v54.7h9v-8.5q2.9 5 7.4 7.4Q30 56 36.5 56l2-.1 2.6-.4z" id="DejaVuSans-114"/><path d="M18.3 70.2V54.7h18.5v-7H18.3V18q0-6.7 1.8-8.6 1.9-1.9 7.5-1.9h9.2V0h-9.2Q17.2 0 13.2 3.9T9.2 18v29.7H2.8v7h6.6v15.5z" id="DejaVuSans-116"/><path d="M32.2-5q-3.8-9.8-7.5-12.8-3.6-3-9.6-3H7.9v7.5h5.3q3.7 0 5.7 1.8 2.1 1.7 4.6 8.3l1.6 4L3 54.8h9.5l17-42.8 17.2 42.8h9.5z" id="DejaVuSans-121"/></defs><g transform="matrix(.1 0 0 -.1 169.7 281.5)"><use xlink:href="#DejaVuSans-67"/><use x="69.8" xlink:href="#DejaVuSans-111"/><use x="131" xlink:href="#DejaVuSans-115"/><use x="183.1" xlink:href="#DejaVuSans-105"/><use x="210.9" xlink:href="#DejaVuSans-110"/><use x="274.3" xlink:href="#DejaVuSans-101"/><use x="335.8" xlink:href="#DejaVuSans-32"/><use x="367.6" xlink:href="#DejaVuSans-115"/><use x="419.7" xlink:href="#DejaVuSans-105"/><use x="447.5" xlink:href="#DejaVuSans-109"/><use x="544.9" xlink:href="#DejaVuSans-105"/><use x="572.7" xlink:href="#DejaVuSans-108"/><use x="600.4" xlink:href="#DejaVuSans-97"/><use x="661.7" xlink:href="#DejaVuSans-114"/><use x="702.8" xlink:href="#DejaVuSans-105"/><use x="730.6" xlink:href="#DejaVuSans-116"/><use x="769.8" xlink:href="#DejaVuSans-121"/></g></g></g><g id="matplotlib.axis_2"><g id="ytick_1"><g id="line2d_10"><defs><path d="M0 0h-3.5" id="me50ebf717c" stroke="#000" stroke-width=".8"/></defs><use x="43.8" xlink:href="#me50ebf717c" y="253.2" stroke="#000" stroke-width=".8"/></g><g transform="matrix(.1 0 0 -.1 20.9 257)" id="text_11"><use xlink:href="#DejaVuSans-48"/><use x="63.6" xlink:href="#DejaVuSans-46"/><use x="95.4" xlink:href="#DejaVuSans-48"/></g></g><g id="ytick_2"><use x="43.8" xlink:href="#me50ebf717c" y="220.6" stroke="#000" stroke-width=".8" id="line2d_11"/><g transform="matrix(.1 0 0 -.1 20.9 224.4)" id="text_12"><use xlink:href="#DejaVuSans-48"/><use x="63.6" xlink:href="#DejaVuSans-46"/><use x="95.4" xlink:href="#DejaVuSans-53"/></g></g><g id="ytick_3"><use x="43.8" xlink:href="#me50ebf717c" y="188" stroke="#000" stroke-width=".8" id="line2d_12"/><g transform="matrix(.1 0 0 -.1 20.9 191.8)" id="text_13"><use xlink:href="#DejaVuSans-49"/><use x="63.6" xlink:href="#DejaVuSans-46"/><use x="95.4" xlink:href="#DejaVuSans-48"/></g></g><g id="ytick_4"><use x="43.8" xlink:href="#me50ebf717c" y="155.5" stroke="#000" stroke-width=".8" id="line2d_13"/><g transform="matrix(.1 0 0 -.1 20.9 159.3)" id="text_14"><use xlink:href="#DejaVuSans-49"/><use x="63.6" xlink:href="#DejaVuSans-46"/><use x="95.4" xlink:href="#DejaVuSans-53"/></g></g><g id="ytick_5"><use x="43.8" xlink:href="#me50ebf717c" y="122.9" stroke="#000" stroke-width=".8" id="line2d_14"/><g transform="matrix(.1 0 0 -.1 20.9 126.7)" id="text_15"><use xlink:href="#DejaVuSans-50"/><use x="63.6" xlink:href="#DejaVuSans-46"/><use x="95.4" xlink:href="#DejaVuSans-48"/></g></g><g id="ytick_6"><use x="43.8" xlink:href="#me50ebf717c" y="90.3" stroke="#000" stroke-width=".8" id="line2d_15"/><g transform="matrix(.1 0 0 -.1 20.9 94)" id="text_16"><use xlink:href="#DejaVuSans-50"/><use x="63.6" xlink:href="#DejaVuSans-46"/><use x="95.4" xlink:href="#DejaVuSans-53"/></g></g><g id="ytick_7"><use x="43.8" xlink:href="#me50ebf717c" y="57.7" stroke="#000" stroke-width=".8" id="line2d_16"/><g id="text_17"><defs><path d="M40.6 39.3q7-1.5 11-6.3t4-11.8q0-10.8-7.4-16.7-7.4-6-21.1-6-4.6 0-9.4 1-4.9.9-10 2.7v9.5q4-2.4 8.9-3.6Q21.5 7 26.8 7q9.3 0 14.1 3.6 4.9 3.7 4.9 10.7 0 6.4-4.5 10Q36.8 35 28.7 35h-8.5V43h9q7.2 0 11 3 3.9 2.8 3.9 8.3 0 5.6-4 8.6t-11.4 3q-4 0-8.7-.9-4.6-.8-10.2-2.7v8.8q5.6 1.6 10.5 2.3 5 .8 9.3.8 11.2 0 17.8-5 6.5-5.2 6.5-13.9 0-6-3.5-10.2-3.4-4.2-9.8-5.8z" id="DejaVuSans-51"/></defs><g transform="matrix(.1 0 0 -.1 20.9 61.5)"><use xlink:href="#DejaVuSans-51"/><use x="63.6" xlink:href="#DejaVuSans-46"/><use x="95.4" xlink:href="#DejaVuSans-48"/></g></g></g><g id="text_18"><defs><path d="M19.7 64.8V37.4H32q6.9 0 10.6 3.6 3.8 3.5 3.8 10.1t-3.8 10.1q-3.7 3.6-10.6 3.6zm-9.9 8.1h22.3q12.2 0 18.5-5.5Q57 61.8 57 51q0-10.8-6.3-16.3t-18.5-5.5H19.7V0H9.8z" id="DejaVuSans-80"/><path d="M18.1 8.2v-29h-9v75.5h9v-8.3q2.9 4.9 7.2 7.2Q29.6 56 35.6 56q10 0 16.2-8Q58 40.3 58 27.4q0-12.9-6.2-20.8-6.2-8-16.2-8-6 0-10.3 2.5Q21 3.3 18 8.2zm30.6 19.1q0 9.9-4 15.5-4.2 5.7-11.3 5.7-7.1 0-11.2-5.7-4-5.6-4-15.5 0-10 4-15.6t11.2-5.6q7.1 0 11.2 5.7 4 5.6 4 15.5z" id="DejaVuSans-112"/></defs><g transform="matrix(0 -.1 -.1 0 14.8 170.5)"><use xlink:href="#DejaVuSans-80"/><use x="60.3" xlink:href="#DejaVuSans-114"/><use x="101.4" xlink:href="#DejaVuSans-111"/><use x="162.6" xlink:href="#DejaVuSans-112"/><use x="226" xlink:href="#DejaVuSans-111"/><use x="287.2" xlink:href="#DejaVuSans-114"/><use x="328.3" xlink:href="#DejaVuSans-116"/><use x="367.5" xlink:href="#DejaVuSans-105"/><use x="395.3" xlink:href="#DejaVuSans-111"/><use x="456.5" xlink:href="#DejaVuSans-110"/></g></g></g><path d="M43.8 253.2V35.8" fill="none" stroke="#000" stroke-linecap="square" stroke-width=".8" id="patch_61"/><path d="M378.6 253.2V35.8" fill="none" stroke="#000" stroke-linecap="square" stroke-width=".8" id="patch_62"/><path d="M43.8 253.2h334.8" fill="none" stroke="#000" stroke-linecap="square" stroke-width=".8" id="patch_63"/><path d="M43.8 35.8h334.8" fill="none" stroke="#000" stroke-linecap="square" stroke-width=".8" id="patch_64"/><g id="text_19"><defs><path d="M53.5 70.5V61q-5.6 2.7-10.6 4-5 1.3-9.6 1.3-8 0-12.4-3.1t-4.4-8.9q0-4.8 3-7.3 2.8-2.5 11-4l5.9-1.2q11-2.1 16.3-7.4 5.2-5.3 5.2-14.2 0-10.6-7.1-16Q43.7-1.5 30-1.5q-5.2 0-11 1.1Q13 1 6.9 3.3v10.2q6-3.4 11.8-5.1Q24.4 6.6 30 6.6q8.4 0 13 3.3t4.6 9.5q0 5.4-3.3 8.4t-10.8 4.5l-6 1.2q-11 2.2-16 6.9t-5 13q0 9.7 7 15.3 6.7 5.5 18.7 5.5 5.1 0 10.4-1 5.4-.8 11-2.7z" id="DejaVuSans-83"/><path d="M48.7 27.3q0 9.9-4 15.5-4.2 5.7-11.3 5.7-7.1 0-11.2-5.7-4-5.6-4-15.5 0-10 4-15.6t11.2-5.6q7.1 0 11.2 5.7 4 5.6 4 15.5zM18 46.3q2.9 5 7.2 7.3Q29.6 56 35.6 56q10 0 16.2-8Q58 40.3 58 27.4q0-12.9-6.2-20.8-6.2-8-16.2-8-6 0-10.3 2.5Q21 3.3 18 8.2V0h-9v76h9z" id="DejaVuSans-98"/><path d="M4.2 54.7h9L24.4 12l11.2 42.7h10.6L57.4 12l11.2 42.7h9L63.3 0H52.7L40.9 44.8 29.1 0H18.5z" id="DejaVuSans-119"/><path d="M14.8 27.3q0-10 4-15.6Q23 6.2 30.2 6.2q7.1 0 11.2 5.7 4.1 5.6 4.1 15.5t-4.1 15.5q-4.1 5.7-11.2 5.7t-11.2-5.7q-4.1-5.6-4.1-15.5zM45.4 8.2Q42.6 3.3 38.3 1q-4.4-2.4-10.4-2.4-10 0-16.2 7.9-6.2 8-6.2 20.8 0 12.9 6.2 20.8Q18 56 28 56q6 0 10.4-2.4 4.3-2.3 7.1-7.2v8.3h9v-75.5h-9z" id="DejaVuSans-113"/><path d="M8.5 21.6v33h9V22q0-7.7 3-11.6 3-4 9-4 7.4 0 11.6 4.7 4.2 4.7 4.2 12.7v31h9V0h-9v8.4Q42 3.4 37.7 1q-4.3-2.4-10-2.4-9.4 0-14.3 5.8-4.9 5.9-4.9 17.2zM31.1 56z" id="DejaVuSans-117"/><path d="M45.4 46.4V76h9V0h-9v8.2Q42.6 3.3 38.3 1q-4.4-2.4-10.4-2.4-10 0-16.2 7.9-6.2 8-6.2 20.8 0 12.9 6.2 20.8Q18 56 28 56q6 0 10.4-2.4 4.3-2.3 7.1-7.2zM14.8 27.3q0-10 4-15.6Q23 6.2 30.2 6.2q7.1 0 11.2 5.7 4.1 5.6 4.1 15.5t-4.1 15.5q-4.1 5.7-11.2 5.7t-11.2-5.7q-4.1-5.6-4.1-15.5z" id="DejaVuSans-100"/><path d="M45.4 28q0 9.8-4 15.1-4 5.4-11.3 5.4-7.2 0-11.3-5.4-4-5.4-4-15.1t4-15.1q4-5.4 11.3-5.4 7.3 0 11.3 5.4 4 5.4 4 15zm9-21.2q0-14-6.2-20.8-6.2-6.8-19-6.8-4.7 0-9 .7-4.1.7-8 2.2v8.7q3.9-2.1 7.7-3.1 3.9-1 7.9-1 8.8 0 13.2 4.5 4.4 4.6 4.4 14v4.4q-2.8-4.8-7.1-7.2Q33.9 0 27.9 0q-10 0-16.2 7.7Q5.5 15.3 5.5 28q0 12.7 6.2 20.3Q17.8 56 27.9 56q6 0 10.4-2.4 4.3-2.4 7.1-7.2v8.3h9z" id="DejaVuSans-103"/></defs><g transform="matrix(.12 0 0 -.12 88.2 16.3)"><use xlink:href="#DejaVuSans-83"/><use x="63.5" xlink:href="#DejaVuSans-105"/><use x="91.3" xlink:href="#DejaVuSans-109"/><use x="188.7" xlink:href="#DejaVuSans-105"/><use x="216.5" xlink:href="#DejaVuSans-108"/><use x="244.2" xlink:href="#DejaVuSans-97"/><use x="305.5" xlink:href="#DejaVuSans-114"/><use x="346.6" xlink:href="#DejaVuSans-105"/><use x="374.4" xlink:href="#DejaVuSans-116"/><use x="413.6" xlink:href="#DejaVuSans-121"/><use x="472.8" xlink:href="#DejaVuSans-32"/><use x="504.6" xlink:href="#DejaVuSans-98"/><use x="568.1" xlink:href="#DejaVuSans-101"/><use x="629.6" xlink:href="#DejaVuSans-116"/><use x="668.8" xlink:href="#DejaVuSans-119"/><use x="750.6" xlink:href="#DejaVuSans-101"/><use x="812.1" xlink:href="#DejaVuSans-101"/><use x="873.6" xlink:href="#DejaVuSans-110"/><use x="937" xlink:href="#DejaVuSans-32"/><use x="968.8" xlink:href="#DejaVuSans-113"/><use x="1032.3" xlink:href="#DejaVuSans-117"/><use x="1095.7" xlink:href="#DejaVuSans-101"/><use x="1157.2" xlink:href="#DejaVuSans-115"/><use x="1209.3" xlink:href="#DejaVuSans-116"/><use x="1248.5" xlink:href="#DejaVuSans-105"/><use x="1276.3" xlink:href="#DejaVuSans-111"/><use x="1337.5" xlink:href="#DejaVuSans-110"/><use x="1400.8" xlink:href="#DejaVuSans-32"/><use x="1432.6" xlink:href="#DejaVuSans-101"/><use x="1494.1" xlink:href="#DejaVuSans-109"/><use x="1591.6" xlink:href="#DejaVuSans-98"/><use x="1655" xlink:href="#DejaVuSans-101"/><use x="1716.6" xlink:href="#DejaVuSans-100"/><use x="1780" xlink:href="#DejaVuSans-100"/><use x="1843.5" xlink:href="#DejaVuSans-105"/><use x="1871.3" xlink:href="#DejaVuSans-110"/><use x="1934.7" xlink:href="#DejaVuSans-103"/><use x="1998.1" xlink:href="#DejaVuSans-115"/></g><defs><path d="M37.1 76v-7.5h-8.6q-4.8 0-6.7-2-1.9-2-1.9-7v-4.8h14.8v-7H20V0h-9v47.7H2.3v7h8.6v3.8q0 9.1 4.2 13.3Q19.4 76 28.6 76z" id="DejaVuSans-102"/><path d="M18 73V45.7H9.5v27.1z" id="DejaVuSans-39"/></defs><g transform="matrix(.12 0 0 -.12 74.1 29.8)"><use xlink:href="#DejaVuSans-97"/><use x="61.3" xlink:href="#DejaVuSans-110"/><use x="124.7" xlink:href="#DejaVuSans-100"/><use x="188.1" xlink:href="#DejaVuSans-32"/><use x="219.9" xlink:href="#DejaVuSans-112"/><use x="283.4" xlink:href="#DejaVuSans-114"/><use x="324.5" xlink:href="#DejaVuSans-111"/><use x="385.7" xlink:href="#DejaVuSans-102"/><use x="420.9" xlink:href="#DejaVuSans-101"/><use x="482.4" xlink:href="#DejaVuSans-115"/><use x="534.5" xlink:href="#DejaVuSans-115"/><use x="586.6" xlink:href="#DejaVuSans-105"/><use x="614.4" xlink:href="#DejaVuSans-111"/><use x="675.6" xlink:href="#DejaVuSans-110"/><use x="738.9" xlink:href="#DejaVuSans-97"/><use x="800.2" xlink:href="#DejaVuSans-108"/><use x="828" xlink:href="#DejaVuSans-39"/><use x="855.5" xlink:href="#DejaVuSans-115"/><use x="907.6" xlink:href="#DejaVuSans-32"/><use x="939.4" xlink:href="#DejaVuSans-109"/><use x="1036.8" xlink:href="#DejaVuSans-101"/><use x="1098.3" xlink:href="#DejaVuSans-97"/><use x="1159.6" xlink:href="#DejaVuSans-110"/><use x="1223" xlink:href="#DejaVuSans-32"/><use x="1254.8" xlink:href="#DejaVuSans-113"/><use x="1318.2" xlink:href="#DejaVuSans-117"/><use x="1381.6" xlink:href="#DejaVuSans-101"/><use x="1443.1" xlink:href="#DejaVuSans-115"/><use x="1495.2" xlink:href="#DejaVuSans-116"/><use x="1534.4" xlink:href="#DejaVuSans-105"/><use x="1562.2" xlink:href="#DejaVuSans-111"/><use x="1623.4" xlink:href="#DejaVuSans-110"/><use x="1686.8" xlink:href="#DejaVuSans-32"/><use x="1718.6" xlink:href="#DejaVuSans-101"/><use x="1780.1" xlink:href="#DejaVuSans-109"/><use x="1877.5" xlink:href="#DejaVuSans-98"/><use x="1941" xlink:href="#DejaVuSans-101"/><use x="2002.5" xlink:href="#DejaVuSans-100"/><use x="2066" xlink:href="#DejaVuSans-100"/><use x="2129.5" xlink:href="#DejaVuSans-105"/><use x="2157.2" xlink:href="#DejaVuSans-110"/><use x="2220.6" xlink:href="#DejaVuSans-103"/></g></g><g id="legend_1"><path d="M50.8 73.1H152q2 0 2-2V42.8q0-2-2-2H50.8q-2 0-2 2V71q0 2 2 2z" fill="#fff" opacity=".8" stroke="#ccc" id="patch_65"/><path d="M52.8 52.4h20v-7h-20z" fill="#1f77b4" fill-opacity=".5" id="patch_66"/><g id="text_20"><defs><path d="M34.2 63.2L20.8 26.9h26.8zm-5.6 9.7h11.2L67.6 0H57.3l-6.6 18.7H17.8L11.2 0H.8z" id="DejaVuSans-65"/></defs><g transform="matrix(.1 0 0 -.1 80.8 52.4)"><use xlink:href="#DejaVuSans-65"/><use x="68.4" xlink:href="#DejaVuSans-110"/><use x="131.8" xlink:href="#DejaVuSans-115"/><use x="183.9" xlink:href="#DejaVuSans-119"/><use x="265.7" xlink:href="#DejaVuSans-101"/><use x="327.2" xlink:href="#DejaVuSans-114"/><use x="368.3" xlink:href="#DejaVuSans-101"/><use x="429.8" xlink:href="#DejaVuSans-100"/></g></g><path d="M52.8 67h20v-7h-20z" fill="#ff7f0e" fill-opacity=".5" id="patch_67"/><g id="text_21"><defs><path d="M9.8 73h13.3l32.3-61v61H65V0H51.7L19.4 61V0H9.8z" id="DejaVuSans-78"/></defs><g transform="matrix(.1 0 0 -.1 80.8 67)"><use xlink:href="#DejaVuSans-78"/><use x="74.8" xlink:href="#DejaVuSans-111"/><use x="136" xlink:href="#DejaVuSans-116"/><use x="175.2" xlink:href="#DejaVuSans-32"/><use x="207" xlink:href="#DejaVuSans-97"/><use x="268.3" xlink:href="#DejaVuSans-110"/><use x="331.6" xlink:href="#DejaVuSans-115"/><use x="383.7" xlink:href="#DejaVuSans-119"/><use x="465.5" xlink:href="#DejaVuSans-101"/><use x="527.1" xlink:href="#DejaVuSans-114"/><use x="568.1" xlink:href="#DejaVuSans-101"/><use x="629.7" xlink:href="#DejaVuSans-100"/></g></g></g></g></g><defs><clipPath id="pc7cd8b26fc"><path d="M43.8 35.8h334.8v217.4H43.8z"/></clipPath></defs></svg>