<svg viewBox="0 0 507 510.6" fill="none" stroke-linecap="square" stroke-miterlimit="10" xmlns="http://www.w3.org/2000/svg"><clipPath id="a"><path d="M0 0h507v510.6H0V0z"/></clipPath><g clip-path="url(#a)"><path fill="#000" fill-opacity="0" d="M0 0h507v510.6H0z" fill-rule="evenodd"/><path fill="#d9ead3" d="M130.2 160.7h32v284.8h-32z" fill-rule="evenodd"/><path fill="#f4cccc" d="M162.2 160.7h196.4v284.8H162.2z" fill-rule="evenodd"/><path fill="#000" fill-opacity="0" d="M130.5 160v285" fill-rule="evenodd"/><path stroke="#000" stroke-linejoin="round" stroke-linecap="butt" d="M130.5 160v285" fill-rule="evenodd"/><path fill="#000" fill-opacity="0" d="M162.5 160v285" fill-rule="evenodd"/><path stroke="#000" stroke-linejoin="round" stroke-linecap="butt" d="M162.5 160v285" fill-rule="evenodd"/><path fill="#000" fill-opacity="0" d="M194.5 160v285" fill-rule="evenodd"/><path stroke="#000" stroke-linejoin="round" stroke-linecap="butt" d="M194.5 160v285" fill-rule="evenodd"/><path fill="#000" fill-opacity="0" d="M226.5 160v285" fill-rule="evenodd"/><path stroke="#000" stroke-linejoin="round" stroke-linecap="butt" d="M226.5 160v285" fill-rule="evenodd"/><path fill="#000" fill-opacity="0" d="M258.5 160v285" fill-rule="evenodd"/><path stroke="#000" stroke-linejoin="round" stroke-linecap="butt" d="M258.5 160v285" fill-rule="evenodd"/><path fill="#000" fill-opacity="0" d="M290.5 160v285" fill-rule="evenodd"/><path stroke="#000" stroke-linejoin="round" stroke-linecap="butt" d="M290.5 160v285" fill-rule="evenodd"/><path fill="#000" fill-opacity="0" d="M130.5 160h228.2" fill-rule="evenodd"/><path stroke="#000" stroke-linejoin="round" stroke-linecap="butt" d="M130.5 160h228.2" fill-rule="evenodd"/><path fill="#000" fill-opacity="0" d="M122.5 140.7l252-252L402.6-83l-252 252z" fill-rule="evenodd"/><path fill="#000" d="M155.7 150.8l-3.3-3.4-.1 1.4q-.3.7-.8 1.3-1.3 1.2-3.1 1.1-1.9 0-3.5-1.8-1-1-1.5-2.2-.5-1.2-.2-2.2.2-1.2 1-2 1.3-1.2 3.1-.9l-1-1 1.1-1 9.5 9.5-1.2 1.2zm-9.6-2.5q1.3 1.3 2.5 1.4 1.2.1 2-.7.8-.7.7-1.9-.1-1.1-1.4-2.4-1.4-1.4-2.6-1.5-1.3-.1-2 .6-.8.8-.7 2 .1 1.1 1.5 2.5zm14.5-7.6l-1-1q.3 2-1 3.3l-1.4 1q-.8.2-1.4.1-.6 0-1.2-.5l-1.2-1-4.2-4.2 1.2-1.2 3.8 3.8q.9.9 1.3 1.1.5.4 1.1.3.7 0 1.2-.6.5-.5.7-1.2.2-.8 0-1.4l-1.2-1.6-3.7-3.6 1.2-1.2 6.8 6.9-1 1zm5.3-9.7l1.3-1.1q.8 1.3.6 2.7-.2 1.3-1.4 2.5-1.5 1.5-3.3 1.5-1.8 0-3.4-1.7-1.8-1.8-1.8-3.6 0-1.9 1.3-3.3 1.4-1.3 3.2-1.3 1.8.1 3.5 1.8l.3.3-5.1 5.1q1.2 1 2.4 1 1.1.1 2-.7.6-.7.8-1.5 0-.8-.4-1.7zm-5.7 1.9l3.8-3.8q-.9-.8-1.7-.9-1.2-.1-2.1.8-.8.8-.8 1.9 0 1 .8 2zm8-4l1-1.3q.8.6 1.6.5.8 0 1.6-.9.8-.7.9-1.5 0-.7-.4-1.1-.4-.4-1-.3-.4 0-1.5.8-1.7 1-2.4 1.2-.7.3-1.4.1-.6-.1-1.1-.7-.5-.4-.7-1-.2-.6 0-1.2 0-.5.3-1l.9-1.2q.8-.8 1.6-1.2.9-.4 1.6-.3.7.1 1.4.7l-1 1.3q-.5-.5-1.2-.4-.7 0-1.4.7-.8.8-.8 1.4-.1.6.2 1l.6.3.7-.2q.3 0 1.4-.7 1.5-1 2.2-1.2.7-.3 1.4-.1.7 0 1.3.7.5.6.7 1.4.2.8-.2 1.8-.3.9-1.1 1.7-1.4 1.3-2.6 1.5-1.3.1-2.6-.8zm10.6-8.6l1.2.9-.7 1q-.7.6-1.2.8h-1q-.5-.3-1.5-1.3l-4-4-.8.9-1-.9 1-.8-1.8-1.7.5-1.9 2.4 2.4 1.1-1.2 1 1-1.2 1.1 4 4 .7.6h.4q.2 0 .5-.3l.4-.6zm-5.9-8.2l-1.3-1.3 1.1-1.2 1.4 1.4-1.2 1.1zm8.1 8.1l-6.8-6.8 1.1-1.2 6.9 6.9-1.2 1.1zm-1-5.9q-1.8-1.9-1.7-3.8.2-1.7 1.4-3 1.4-1.4 3.3-1.3 1.8 0 3.4 1.6 1.3 1.3 1.7 2.5.3 1.1 0 2.3-.3 1.2-1.2 2-1.5 1.5-3.3 1.5-1.8 0-3.5-1.8zm1.3-1.2q1.3 1.3 2.5 1.4 1.3.1 2.1-.8.9-.8.8-2 0-1.3-1.4-2.6-1.3-1.3-2.5-1.4-1.3 0-2.1.8-.9.9-.8 2.1 0 1.2 1.4 2.5zm10-3.1l-6.9-6.9 1-1 1 1q-.3-2 1.1-3.3.6-.7 1.4-1 .7-.3 1.3-.1.6 0 1.2.4l1.2 1.1 4.2 4.2-1.1 1.2-4.2-4.2q-.7-.7-1.2-.9-.5-.2-1 0-.6 0-1 .5-.8.7-.8 1.8-.1 1 1.2 2.3l3.7 3.7-1.1 1.2zm8.9-3.7l-.9-.8 7.7-7.7.8.8-7.6 7.7zm9.4-16.3q-.1 1.2-.5 2t-1 1.5q-1.2 1.1-2.3 1.2-1.2 0-2-.8-.6-.5-.7-1.2-.2-.6 0-1.2 0-.6.4-1.2.2-.5.8-1.2l1.7-2.5-.3-.3q-.7-.7-1.3-.7-.9 0-1.8 1-.8.8-.9 1.4 0 .7.5 1.6l-1.3 1q-.6-.9-.7-1.7 0-.8.3-1.7.5-1 1.3-1.8 1-.9 1.7-1.2.7-.4 1.3-.3.6 0 1.2.4l1 1 1.6 1.6q1.6 1.6 2.2 2l1 .5-1.1 1.2q-.6-.2-1.1-.6zm-2.7-2.5q-.4.9-1.5 2.3-.6.8-.7 1.3-.2.4-.1.8 0 .4.4.7.4.5 1 .4.8 0 1.4-.7.7-.6 1-1.4.2-.9-.1-1.6-.2-.6-1-1.4l-.4-.4zm6.4.5l-6.8-6.9 1-1 1 1q-.4-2 1-3.4.6-.6 1.4-.9.7-.3 1.3-.2.7.1 1.2.5l1.2 1 4.2 4.3-1.1 1.2-4.2-4.2-1.2-1h-1q-.6.1-1 .6-.8.7-.8 1.8-.1 1 1.2 2.3l3.8 3.7-1.2 1.2zm4.8-9l1-1.3q.8.6 1.6.5.8 0 1.6-.8t.8-1.5q.1-.7-.3-1.2-.4-.4-1-.3l-1.6.8q-1.6 1-2.3 1.2-.7.3-1.4.1-.7-.1-1.2-.6l-.6-1q-.2-.7 0-1.3 0-.5.3-1 .3-.7.9-1.2.8-.8 1.6-1.2.9-.4 1.5-.3.7.1 1.5.7l-1 1.3q-.6-.5-1.2-.4-.7 0-1.4.7-.8.9-.9 1.5 0 .6.3 1l.6.2.7-.2q.3 0 1.3-.7l2.3-1.2q.7-.2 1.4-.1.6.1 1.2.7t.8 1.4q.2.9-.2 1.8-.4 1-1.2 1.7-1.3 1.3-2.5 1.5-1.3.1-2.6-.8zm10.4-6.2l-9-4.8 1.3-1.2 5 2.9 1.9 1-1.1-1.7-3-5.1 1.3-1.2 5 3 1.6.9-1-1.7-2.7-5.1 1.1-1.2 4.7 9-1.2 1.2-5.2-3-1.4-.9 3.9 6.7-1.2 1.2zm10.7-15.2l1.4-1q.7 1.3.6 2.7-.2 1.3-1.4 2.5-1.5 1.5-3.3 1.5-1.8-.1-3.5-1.8t-1.8-3.5q0-1.9 1.4-3.3 1.3-1.4 3.1-1.3 1.8 0 3.5 1.8l.3.3-5 5q1.1 1.1 2.3 1.2 1.2 0 2-.9.7-.6.8-1.4.1-.8-.4-1.8zm-5.7 2l3.9-3.9q-1-.8-1.8-.8-1.2-.1-2 .7-.9.8-.9 2 0 1 .8 2zm10.6-2.4l-6.9-6.9 1-1 1.1 1q-.3-1-.2-1.7 0-.5.5-1 .6-.5 1.6-.8l.6 1.5q-.6.2-1 .6-.4.4-.5 1l.2 1q.4.8 1.1 1.5l3.6 3.6-1.1 1.2zm6.9-11.3l1.3-1q.8 1.3.6 2.6-.2 1.4-1.4 2.6-1.5 1.5-3.3 1.4-1.8 0-3.5-1.7t-1.8-3.6q0-1.8 1.4-3.2 1.4-1.4 3.2-1.3 1.8 0 3.5 1.7l.3.3-5.1 5.1q1.2 1.1 2.3 1.1 1.2 0 2-.8.7-.6.8-1.4.1-.8-.3-1.8zm-5.7 2L249 44q-1-.8-1.7-.9-1.3 0-2.1.8t-.9 1.9q0 1 .9 2zm15-6.9l-1-.9q.5 1.7-.8 3-.8.8-2 1-1.1.2-2.3-.2-1.2-.4-2.2-1.5-1-1-1.5-2.2-.5-1.1-.3-2.3.2-1 1.1-2 .6-.6 1.4-.8.7-.2 1.4 0l-3.4-3.5 1.2-1.1 9.4 9.4-1 1.1zm-7.1.2q1.3 1.4 2.5 1.5 1.2 0 2-.7.7-.8.6-1.9 0-1.2-1.3-2.4-1.4-1.4-2.6-1.5-1.2-.2-2 .6t-.7 2q.1 1 1.5 2.4z"/><path fill="#000" fill-opacity="0" d="M154.5 140.7l252-252L434.6-83l-252 252z" fill-rule="evenodd"/><path fill="#000" d="M178.2 151l1-1.4q.8.6 1.6.5.8 0 1.6-.8t.9-1.5q0-.8-.4-1.2-.4-.4-1-.3l-1.6.8q-1.6 1-2.3 1.2-.7.3-1.4.1-.7-.1-1.2-.6l-.6-1q-.2-.7 0-1.3 0-.5.3-1l.9-1.2q.8-.8 1.6-1.2.9-.4 1.6-.3.7.1 1.4.7l-1 1.3q-.6-.5-1.2-.4-.7 0-1.4.7-.8.8-.9 1.4 0 .6.3 1l.6.3.7-.2q.3 0 1.4-.7 1.5-1 2.2-1.2.7-.3 1.4-.1.7 0 1.2.7.6.6.8 1.4.2.9-.2 1.8-.3.9-1.1 1.7-1.4 1.3-2.6 1.5-1.3.1-2.6-.8zm10.6-8.7l1.2.9-.7 1q-.7.6-1.2.8h-1l-1.6-1.3-3.9-4-.8 1-1-1 1-.8-1.8-1.7.5-1.9 2.4 2.4 1.1-1.2 1 1-1.2 1.1 4 4 .6.6h.5q.2 0 .5-.3l.4-.6zm6.7-4.5l-1-1q.3 2-1 3.3-.6.6-1.4.9-.8.3-1.4.2-.6-.1-1.2-.5l-1.1-1-4.3-4.3 1.2-1.1 3.8 3.8q.9.9 1.3 1.1.5.4 1.2.3.6-.1 1.1-.6.5-.6.7-1.3.2-.7 0-1.4-.3-.6-1.2-1.5l-3.7-3.6 1.2-1.2 6.8 6.8-1 1zm7.3-7.3l-.9-.9q.4 1.7-.9 3-.8.8-2 1-1 .2-2.3-.2-1.1-.4-2.2-1.5-1-1-1.5-2.2-.5-1.2-.3-2.3.3-1.1 1.1-2 .6-.6 1.4-.8.7-.2 1.4-.1l-3.4-3.4 1.2-1.1 9.5 9.4-1.1 1zm-7.1.2q1.3 1.3 2.5 1.4 1.2.1 2-.6.7-.8.6-2 0-1-1.3-2.4-1.4-1.4-2.6-1.5-1.2 0-2 .7-.8.8-.7 2 .1 1 1.5 2.4zm12.5-10l1.3-1q.8 1.3.6 2.6-.2 1.4-1.4 2.6-1.5 1.5-3.3 1.4-1.8 0-3.5-1.7t-1.8-3.6q0-1.8 1.4-3.2 1.4-1.4 3.2-1.3 1.8 0 3.5 1.7l.3.3-5.1 5.1q1.2 1.1 2.3 1.1 1.2 0 2-.8.7-.6.8-1.4.1-.8-.3-1.8zm-5.7 2l3.8-3.9q-1-.8-1.7-.9-1.3 0-2.1.8t-.9 1.9q0 1 .9 2zm10.5-2.5l-6.8-6.8 1-1 1 1q-.4-2 1-3.4.7-.6 1.4-.9.7-.3 1.4-.2.6.1 1.2.5l1.2 1 4.2 4.3-1.2 1.1-4.2-4.1-1.1-1q-.5-.2-1 0-.6.1-1.1.6-.7.7-.8 1.7 0 1 1.2 2.3l3.8 3.8-1.2 1.1zm8.8-10.9l1.2.9-.7 1q-.7.6-1.2.7-.6.2-1 0-.5-.2-1.5-1.2l-4-4-.8.9-1-.9 1-.8-1.8-1.7.5-1.9 2.4 2.4 1.1-1.2 1 1-1.2 1.1 4 4 .7.6h.4q.2 0 .5-.3l.4-.6zm3.8 3.6l-.9-.8 7.7-7.7.8.8-7.6 7.7zm5.7-11l-9.4-9.4 1.1-1.2 9.5 9.5-1.2 1.1zm-.9-6q-1.9-1.8-1.7-3.8 0-1.6 1.4-2.9 1.4-1.4 3.2-1.4 1.8 0 3.4 1.7 1.4 1.3 1.7 2.5.4 1.1 0 2.3-.3 1.2-1.2 2-1.4 1.5-3.2 1.5-1.8 0-3.6-1.8zm1.2-1.1q1.3 1.3 2.6 1.4 1.2 0 2-.8 1-.9.8-2 0-1.3-1.4-2.7-1.3-1.2-2.5-1.3-1.2-.1-2 .8-1 .8-.9 2 .1 1.3 1.4 2.6zm12-10.1l1.3-1q1 1.3.9 2.8-.1 1.4-1.3 2.5-1.4 1.4-3.1 1.4-1.8-.1-3.5-1.8-1.1-1.1-1.6-2.3-.5-1.2-.1-2.4.3-1.1 1.2-2 1.1-1.1 2.4-1.3 1.2-.1 2.5.7l-1 1.3q-.8-.5-1.6-.4-.7 0-1.3.6-.9.9-.8 2 0 1.2 1.4 2.6 1.4 1.4 2.6 1.5 1.1 0 2-.8.7-.7.7-1.6 0-.8-.7-1.8zm8.2-5q0 1.2-.4 2-.4.9-1 1.5-1.2 1.2-2.4 1.2-1.1 0-2-.8-.5-.5-.7-1.1-.2-.7 0-1.3 0-.6.4-1.2l.9-1.2q1.2-1.6 1.6-2.5l-.2-.3q-.8-.7-1.4-.7-.8.1-1.7 1-.8.8-1 1.5 0 .6.5 1.6l-1.3 1q-.5-1-.6-1.7-.1-.8.3-1.8.4-.9 1.3-1.7.9-1 1.6-1.3.8-.3 1.4-.2.5 0 1.1.4.4.2 1.1 1l1.6 1.5q1.6 1.7 2.1 2l1.1.5-1.2 1.2q-.5-.1-1-.6zm-2.7-2.5q-.3 1-1.4 2.4l-.8 1.2q-.2.4 0 .9 0 .4.3.7.5.4 1.1.4.7 0 1.4-.7.6-.7.9-1.5.2-.8 0-1.6-.3-.6-1-1.3l-.5-.5zm8-3l1.1.8-.7 1q-.7.6-1.2.7-.6.2-1 0-.5-.2-1.5-1.2l-4-4-.8.9-1-.9 1-.9-1.8-1.6.5-1.9 2.4 2.4 1.1-1.2 1 1-1.2 1 4 4.1.7.6h.4q.2 0 .5-.3l.4-.6zm-6-8.3l-1.3-1.3 1.1-1.2 1.4 1.4-1.2 1.1zm8.1 8.1l-6.8-6.8 1.1-1.2 6.9 6.9-1.2 1.1zm-1-5.9q-1.8-1.9-1.7-3.8.2-1.7 1.4-3 1.4-1.4 3.3-1.3 1.8 0 3.4 1.6 1.3 1.3 1.7 2.5.3 1.1 0 2.3-.3 1.2-1.2 2-1.5 1.5-3.3 1.5-1.8 0-3.5-1.8zm1.3-1.2q1.3 1.3 2.5 1.4 1.3.1 2.1-.8.9-.8.8-2 0-1.3-1.4-2.6-1.3-1.3-2.5-1.4-1.2 0-2.1.8-.9.9-.8 2 0 1.3 1.4 2.6zm10-3.1l-6.9-6.9 1-1 1 1q-.3-2 1.1-3.3.6-.7 1.4-1 .7-.3 1.3-.1.6 0 1.2.4l1.2 1.1 4.2 4.2-1.1 1.2-4.2-4.2q-.7-.7-1.2-.9-.5-.2-1 0-.6 0-1 .5-.8.7-.8 1.8-.1 1 1.2 2.3l3.7 3.7-1.1 1.2z"/><path fill="#000" fill-opacity="0" d="M186.5 140.7l252-252L466.6-83l-252 252z" fill-rule="evenodd"/><path fill="#000" d="M215.4 155.1l-9.5-9.4 1-1 1 .8q-.2-.9 0-1.6.2-.8.9-1.4.9-.9 2-1.1 1-.2 2.3.2 1.1.5 2.1 1.5t1.5 2.3q.5 1.2.2 2.4-.3 1.1-1 2-.6.5-1.3.7-.7.2-1.4.1l3.3 3.4-1.1 1.1zm-5-7q1.3 1.3 2.5 1.4 1.2 0 2-.7.7-.7.6-2-.1-1.2-1.5-2.5-1.3-1.3-2.5-1.4-1.2-.2-2 .6-.7.7-.5 2 0 1.3 1.4 2.6zm9.7-3l-6.9-6.8 1-1 1.1 1q-.3-1-.2-1.6 0-.6.5-1 .6-.6 1.6-.8l.6 1.4q-.6.2-1 .6-.5.4-.5 1l.2 1q.4.8 1.1 1.6l3.6 3.5-1.1 1.2zm.5-7.3q-1.9-2-1.7-3.9 0-1.6 1.4-2.9 1.4-1.4 3.2-1.4 1.8 0 3.4 1.7 1.4 1.3 1.7 2.5.4 1.1 0 2.3-.3 1.2-1.2 2-1.4 1.5-3.2 1.5-1.8 0-3.6-1.8zm1.2-1.2q1.3 1.3 2.6 1.4 1.2 0 2-.8 1-.9.8-2 0-1.3-1.4-2.7-1.3-1.2-2.5-1.3-1.2 0-2 .8-1 .8-.9 2 .1 1.3 1.4 2.6zm10.3-3.4l-6-6-1 1-.9-.8 1-1-.7-.8q-.7-.7-.9-1.2-.3-.6-.1-1.3.1-.7.9-1.4l1.2-1 .8 1.2-.7.6q-.6.5-.6 1 0 .4.7 1l.6.7 1.3-1.4 1 1-1.4 1.3 6 6-1.2 1zm5.9-10.3l1.3-1q.8 1.3.6 2.6-.2 1.4-1.4 2.6-1.5 1.5-3.3 1.4-1.8 0-3.5-1.7t-1.8-3.6q0-1.8 1.4-3.2 1.4-1.4 3.2-1.3 1.8 0 3.4 1.7l.4.3-5.1 5.1q1.1 1.1 2.3 1.1 1.2 0 2-.8.7-.6.8-1.4.1-.8-.3-1.8zm-5.7 2l3.8-3.9q-1-.8-1.7-.8-1.3-.2-2.2.7-.7.8-.8 1.9 0 1 .9 2zm8-4l1-1.4q.7.6 1.6.6.8-.1 1.6-1 .8-.7.8-1.4t-.4-1.2q-.3-.4-1-.2-.3 0-1.5.7l-2.3 1.3q-.7.2-1.4 0-.7-.1-1.2-.6l-.6-1q-.2-.7-.1-1.3 0-.5.4-1 .3-.7.9-1.2.8-.8 1.6-1.2.8-.4 1.5-.2.7 0 1.5.6l-1 1.3q-.6-.5-1.3-.4-.6 0-1.3.8-.8.8-.9 1.4 0 .6.3 1l.5.2.8-.1 1.3-.8q1.6-.9 2.3-1.1.7-.3 1.3-.2.7.1 1.3.7.6.6.8 1.4.1.9-.2 1.8-.4 1-1.2 1.7-1.3 1.4-2.6 1.5-1.2.2-2.5-.7zm6.6-6.6l1-1.4q.7.6 1.6.6.8-.1 1.6-.9t.8-1.5q0-.7-.4-1.2-.3-.4-1-.2-.3 0-1.5.8l-2.3 1.2q-.8.2-1.4 0-.7-.1-1.2-.6l-.6-1q-.2-.7-.1-1.3 0-.4.4-1 .3-.7.9-1.2.8-.8 1.6-1.2.8-.4 1.5-.2.7 0 1.5.6l-1 1.3q-.6-.4-1.3-.4-.6 0-1.3.8-.8.8-.9 1.4 0 .6.3 1 .2.2.5.2l.8-.1 1.3-.8q1.6-.9 2.3-1.1.7-.3 1.3-.2.7.1 1.3.7.6.6.8 1.5.1.8-.2 1.7-.4 1-1.2 1.7-1.3 1.4-2.6 1.5-1.2.2-2.5-.7zm1-13.2l-1.3-1.3 1.1-1.2 1.4 1.4-1.2 1.1zm8.1 8.1l-6.8-6.8 1.1-1.2 6.9 6.9-1.2 1.1zm-1-5.9q-1.8-1.9-1.7-3.8.1-1.7 1.4-3 1.4-1.4 3.3-1.3 1.8 0 3.4 1.6 1.3 1.3 1.7 2.5.3 1.1 0 2.3-.3 1.2-1.2 2.1-1.5 1.4-3.3 1.4-1.8 0-3.5-1.8zm1.3-1.2q1.3 1.3 2.5 1.4 1.2.1 2.1-.8.9-.8.8-2 0-1.3-1.4-2.6-1.3-1.3-2.5-1.4-1.3 0-2.1.8-.9.9-.8 2.1 0 1.2 1.4 2.5zm10-3.1l-6.9-6.9 1-1 1 1q-.3-1.9 1-3.3.7-.6 1.5-1 .7-.2 1.3-.1.6 0 1.2.5.4.2 1.2 1l4.2 4.2-1.1 1.2-4.2-4.2q-.7-.7-1.2-.9-.5-.2-1 0-.6 0-1 .5-.8.8-.9 1.8 0 1 1.3 2.3l3.7 3.7-1.1 1.2zm11-12.7l-.5 2q-.4.9-1 1.6-1.2 1-2.4 1.1-1.1 0-2-.8-.5-.5-.7-1.1-.2-.7 0-1.3 0-.6.4-1.2l.9-1.2q1.2-1.6 1.6-2.5l-.3-.3q-.7-.7-1.3-.6-.8 0-1.7.9-.8.8-1 1.5 0 .7.5 1.6l-1.3 1q-.5-1-.6-1.7-.1-.8.3-1.7.4-1 1.3-1.8.9-1 1.6-1.2.8-.4 1.4-.3.5 0 1.1.4.4.2 1.1 1l1.6 1.5q1.6 1.7 2.1 2 .5.4 1.1.5l-1.2 1.2q-.5-.1-1-.6zm-2.8-2.5q-.3 1-1.4 2.4l-.8 1.2q-.2.5 0 .9 0 .4.3.7.5.4 1.1.4.7 0 1.4-.7.6-.7.9-1.5.2-.8 0-1.6-.3-.6-1-1.3l-.5-.5zm6.4.5l-9.4-9.4 1.1-1.2 9.5 9.5-1.2 1.1zm4.5.8l-.8-.9 7.7-7.7.8.9-7.7 7.7zm5.8-11l-9.5-9.5 1.2-1.1 9.4 9.4-1.1 1.2zm-1-6q-1.8-1.9-1.7-3.8.2-1.7 1.4-3 1.4-1.4 3.3-1.3 1.8 0 3.4 1.6 1.3 1.3 1.7 2.5.3 1.1 0 2.3-.3 1.2-1.2 2-1.5 1.5-3.3 1.5-1.8 0-3.5-1.8zm1.3-1.2q1.3 1.3 2.5 1.4 1.2.1 2.1-.8.9-.8.8-2 0-1.3-1.4-2.6-1.3-1.3-2.5-1.4-1.3 0-2.1.8-.9.9-.8 2.1 0 1.2 1.4 2.5zm12-10.1l1.2-1q1 1.4 1 2.8-.2 1.4-1.3 2.6-1.4 1.4-3.2 1.3-1.8 0-3.5-1.8-1-1-1.5-2.3-.5-1.2-.2-2.3.4-1.2 1.2-2 1.2-1.2 2.4-1.3 1.3-.2 2.5.7l-1 1.2q-.8-.5-1.5-.4-.8 0-1.4.6-.8.9-.8 2 .1 1.3 1.5 2.6 1.4 1.4 2.5 1.5 1.2 0 2-.8.7-.6.7-1.5 0-1-.7-1.9zm8.2-5q-.1 1.3-.5 2-.3.9-1 1.6-1.2 1.1-2.3 1.2-1.2 0-2-.8-.5-.5-.7-1.2-.2-.6 0-1.2 0-.7.4-1.3l.8-1.2q1.3-1.5 1.7-2.4l-.3-.3q-.7-.7-1.3-.7-.9 0-1.7 1-.9.7-1 1.4 0 .7.5 1.6l-1.3 1q-.6-.9-.7-1.7 0-.8.4-1.7.4-1 1.3-1.8.8-.9 1.6-1.2.8-.4 1.3-.3.6 0 1.2.4l1.1 1 1.5 1.6 2.2 2 1 .5-1.1 1.2q-.6-.2-1.1-.6zm-2.7-2.4q-.4.9-1.4 2.3-.7.8-.8 1.3-.2.4-.1.8 0 .4.4.7.4.5 1.1.4.7 0 1.3-.7.7-.7 1-1.5.2-.8 0-1.5-.3-.6-1-1.4l-.5-.4zm7.9-3.1l1.2.8-.8 1q-.6.6-1.2.8h-1q-.4-.2-1.5-1.3l-4-4-.8 1-.9-1 .9-.8L307 41l.4-1.8 2.4 2.3 1.2-1.1.9.9-1.2 1.1 4 4 .7.6h.5q.2 0 .4-.3l.5-.5zm-6-8.2l-1.3-1.4 1.2-1.1 1.3 1.3-1.1 1.2zm8.2 8l-6.9-6.8 1.2-1.1 6.8 6.8-1.1 1.2zm-1-5.9q-1.8-1.9-1.7-3.8.1-1.7 1.4-3 1.4-1.3 3.2-1.3 1.8 0 3.5 1.7 1.3 1.3 1.7 2.4.3 1.2 0 2.4-.4 1.1-1.3 2-1.4 1.5-3.2 1.4-1.8 0-3.5-1.8zm1.2-1.1q1.4 1.3 2.6 1.4 1.2 0 2-.8 1-.9.9-2.1-.1-1.3-1.5-2.6-1.2-1.3-2.5-1.3-1.2-.1-2 .7-1 1-.8 2.1 0 1.2 1.3 2.6zm10-3.2l-6.8-6.8 1-1 1 .9q-.4-1.9 1-3.3l1.4-1q.8-.2 1.4-.1.6 0 1.2.5.4.2 1.2 1l4.2 4.2-1.2 1.2-4.1-4.2q-.7-.7-1.2-.9-.5-.2-1 0-.6 0-1 .5-.8.8-.9 1.8 0 1 1.3 2.3l3.7 3.7-1.2 1.2z"/><path fill="#000" fill-opacity="0" d="M218.5 140.7l252-252L498.6-83l-252 252z" fill-rule="evenodd"/><path fill="#000" d="M246.2 149l1.2.8-.7 1q-.7.6-1.2.8h-1q-.5-.3-1.5-1.3l-4-4-.8.9-1-.9 1-.8-1.8-1.7.5-1.9 2.4 2.4 1.1-1.2 1 1-1.2 1.1 4 4 .7.6h.4q.2 0 .5-.3l.4-.6zm5.8-5.5q0 1.2-.4 2-.4.9-1 1.6-1.2 1-2.4 1.1-1.1 0-2-.8-.5-.5-.7-1.1-.2-.7 0-1.3 0-.6.4-1.2l.9-1.2q1.2-1.6 1.6-2.5l-.3-.3q-.7-.7-1.3-.6-.8 0-1.7.9-.8.8-1 1.5 0 .7.5 1.6l-1.3 1q-.5-1-.6-1.7-.1-.8.3-1.7.4-1 1.3-1.8.9-1 1.6-1.3.8-.3 1.4-.2.5 0 1.1.4.4.2 1.1 1l1.6 1.5q1.6 1.7 2.1 2 .5.4 1.1.5l-1.2 1.2q-.5-.1-1-.6zm-2.7-2.5q-.3 1-1.4 2.4l-.8 1.2q-.2.5 0 .9 0 .4.3.7.5.4 1.1.4.7 0 1.4-.7.6-.7.9-1.5.2-.8 0-1.6-.3-.6-1-1.3l-.5-.5zm6.8 1.3l1.3-1q.6.5 1.1.4.8-.1 1.5-.9.8-.8 1-1.5 0-.8-.3-1.5-.3-.5-1.5-1.6.2 1.7-1 2.8-1.4 1.4-3.2 1.2-1.7-.3-3.2-1.7-1-1-1.4-2.2-.5-1.2-.3-2.3.3-1 1.2-2 1.2-1.2 3-1l-.9-.8 1-1.1 6 5.9q1.6 1.6 2 2.6.3 1 0 2-.4 1.2-1.4 2.2-1.2 1.2-2.5 1.4-1.3.2-2.4-1zm-3.2-5q1.4 1.3 2.5 1.4 1.2 0 2-.8t.7-2q0-1-1.4-2.4-1.2-1.3-2.4-1.3-1.2-.1-2 .7-.8.8-.7 2 .1 1 1.3 2.3zm11.7.6l-.8-.9 7.7-7.7.8.9-7.7 7.7zm3.3-12.6l1-1.4q.8.6 1.6.6.8-.1 1.6-1 .8-.7.8-1.4t-.3-1.2q-.4-.4-1-.3l-1.6.8-2.3 1.3q-.7.2-1.4 0-.7-.1-1.2-.6l-.6-1q-.2-.7 0-1.3 0-.5.3-1 .3-.7.9-1.2.8-.8 1.6-1.2.9-.4 1.5-.3.7.1 1.5.7l-1 1.3q-.6-.5-1.3-.4-.6 0-1.3.8-.8.8-.9 1.4 0 .6.3 1l.6.2.7-.1 1.3-.8 2.3-1.2q.7-.2 1.4-.1.6.1 1.2.7t.8 1.4q.2.9-.2 1.8-.4 1-1.2 1.7-1.3 1.4-2.6 1.5-1.2.2-2.5-.7zm1-13.2l-1.3-1.3 1.1-1.2 1.4 1.4-1.2 1.1zm8.1 8.1l-6.8-6.8 1.1-1.2 6.9 6.9-1.2 1.1zm3-2.9l-6.9-6.8 1-1 1 .9q-.2-.8 0-1.7.3-.8 1-1.5.7-.8 1.5-1 .8-.1 1.6.3-.4-2 .9-3.3 1-1 2.1-1t2.3 1.1l4.7 4.7-1.1 1.2-4.4-4.3-1-.9q-.5-.2-1 0-.5 0-.8.4-.8.7-.8 1.7t1 2l4 4-1 1.1-4.5-4.4q-.8-.8-1.5-.9-.7 0-1.3.6-.5.5-.6 1.1-.2.7.1 1.4.3.7 1.3 1.6l3.5 3.5-1.2 1.2zm2.8-19l-1.3-1.4 1.1-1.2L284 97l-1.2 1.2zm8.1 8l-6.8-6.8 1.2-1.2 6.8 6.9-1.2 1.1zm3-2.9l-9.5-9.4 1.1-1.2 9.5 9.5-1.2 1.1zm6.5-8.2q0 1.1-.5 2-.3.8-1 1.5-1.1 1-2.3 1.1-1.2.1-2-.7-.5-.6-.7-1.2-.2-.6 0-1.3 0-.6.4-1.2l.8-1.2q1.3-1.6 1.7-2.5l-.3-.3q-.7-.7-1.3-.6-.8 0-1.7.9-.8.8-1 1.5 0 .7.5 1.6l-1.3 1q-.6-1-.6-1.7-.1-.8.3-1.7.4-1 1.3-1.8.9-1 1.6-1.2.8-.4 1.3-.3.6 0 1.2.4l1.1 1 1.6 1.6 2 2 1.2.5-1.2 1.2q-.6-.2-1-.6zm-2.7-2.5q-.3.8-1.4 2.3l-.8 1.2q-.2.5-.1.9 0 .4.4.7.5.4 1.1.4.7 0 1.4-.7.6-.7.9-1.5.2-.8 0-1.6-.3-.6-1-1.3l-.5-.4zm6.4.4l-6.8-6.8 1-1 1 1q-.3-1.1-.2-1.7.1-.6.5-1 .6-.6 1.6-.8l.7 1.5q-.7.1-1.1.6-.4.4-.5.9l.2 1q.5.9 1.2 1.6l3.6 3.6L304 93zm-3.7-12.5l-1.3-1.3 1.1-1.2 1.4 1.4-1.2 1.1zm8.1 8.1l-6.8-6.8 1.1-1.2 6.9 6.9-1.2 1.1zm4.4-6.5l1.2.9-.7 1q-.7.6-1.2.7-.6.2-1 0-.5-.2-1.5-1.2l-4-4-.8.9-1-.9 1-.9-1.8-1.6.5-1.9 2.4 2.4 1.1-1.2 1 1-1.2 1 4 4.1.7.6h.4q.2 0 .5-.3l.4-.6zm4.8 2.6l-1.2-1q.5-.2.7-.5.4-.4.5-.8v-.7l-.4-1.2-.2-.4-9.5-4.2 1.3-1.3 5.3 2.5 2.1 1.1-1-2-2.6-5.5 1.2-1.1 4.3 9.5 1 2.2q.2 1 0 1.6 0 .7-.6 1.2l-.9.6z"/><path fill="#000" fill-opacity="0" d="M130.5 192h228.2" fill-rule="evenodd"/><path stroke="#000" stroke-linejoin="round" stroke-linecap="butt" d="M130.5 192h228.2" fill-rule="evenodd"/><path fill="#000" fill-opacity="0" d="M130.5 224h228.2" fill-rule="evenodd"/><path stroke="#000" stroke-linejoin="round" stroke-linecap="butt" d="M130.5 224h228.2" fill-rule="evenodd"/><path fill="#000" fill-opacity="0" d="M130.5 256h228.2" fill-rule="evenodd"/><path stroke="#000" stroke-linejoin="round" stroke-linecap="butt" d="M130.5 256h228.2" fill-rule="evenodd"/><path fill="#000" fill-opacity="0" d="M130.5 288h228.2" fill-rule="evenodd"/><path stroke="#000" stroke-linejoin="round" stroke-linecap="butt" d="M130.5 288h228.2" fill-rule="evenodd"/><path fill="#000" fill-opacity="0" d="M130.5 320h228.2" fill-rule="evenodd"/><path stroke="#000" stroke-linejoin="round" stroke-linecap="butt" d="M130.5 320h228.2" fill-rule="evenodd"/><path fill="#000" fill-opacity="0" d="M130.5 352h228.2" fill-rule="evenodd"/><path stroke="#000" stroke-linejoin="round" stroke-linecap="butt" d="M130.5 352h228.2" fill-rule="evenodd"/><path fill="#000" fill-opacity="0" d="M130.5 384h228.2" fill-rule="evenodd"/><path stroke="#000" stroke-linejoin="round" stroke-linecap="butt" d="M130.5 384h228.2" fill-rule="evenodd"/><path fill="#000" fill-opacity="0" d="M130.5 416h228.2" fill-rule="evenodd"/><path stroke="#000" stroke-linejoin="round" stroke-linecap="butt" d="M130.5 416h228.2" fill-rule="evenodd"/><path fill="#000" fill-opacity="0" d="M250.5 140.7l252-252L530.6-83l-252 252z" fill-rule="evenodd"/><path fill="#000" d="M283.7 150.8l-3.3-3.4-.1 1.4q-.3.7-.8 1.3-1.3 1.2-3.1 1.1-1.9 0-3.5-1.8-1-1-1.5-2.2-.5-1.2-.2-2.2.2-1.2 1-2 1.3-1.2 3.1-.9l-1-1 1.1-1 9.5 9.5-1.2 1.2zm-9.6-2.5q1.3 1.3 2.5 1.4 1.2.1 2-.7.8-.7.7-1.9-.1-1.1-1.4-2.4-1.4-1.4-2.6-1.5-1.3-.1-2 .6-.8.8-.7 2 .1 1.1 1.5 2.5zm14.5-7.6l-1-1q.3 2-1 3.3l-1.4 1q-.8.2-1.4.1-.6 0-1.2-.5l-1.2-1-4.2-4.2 1.2-1.2 3.8 3.8q.9.9 1.3 1.1.5.4 1.1.3.7 0 1.2-.6.5-.5.7-1.2.2-.8 0-1.4l-1.2-1.6-3.7-3.6 1.2-1.2 6.8 6.9-1 1zm5.3-9.7l1.3-1.1q.8 1.3.6 2.7-.2 1.3-1.4 2.5-1.5 1.5-3.3 1.5-1.8 0-3.4-1.7-1.8-1.8-1.8-3.6 0-1.9 1.3-3.3 1.4-1.3 3.2-1.3 1.8.1 3.5 1.8l.3.3-5.1 5.1q1.2 1 2.4 1 1.1.1 2-.7.6-.7.8-1.5 0-.8-.4-1.7zm-5.7 1.9l3.8-3.8q-.9-.8-1.7-.9-1.2-.1-2.1.8-.8.8-.8 1.9 0 1 .8 2zm8-4l1-1.3q.8.6 1.6.5.8 0 1.6-.9.8-.7.9-1.5 0-.7-.4-1.1-.4-.4-1-.3-.4 0-1.5.8-1.7 1-2.4 1.2-.7.3-1.4.1-.6-.1-1.1-.7-.5-.4-.7-1-.2-.6 0-1.2 0-.5.3-1l.9-1.2q.8-.8 1.6-1.2.9-.4 1.6-.3.7.1 1.4.7l-1 1.3q-.5-.5-1.2-.4-.7 0-1.4.7-.8.8-.8 1.4-.1.6.2 1l.6.3.7-.2q.3 0 1.4-.7 1.5-1 2.2-1.2.7-.3 1.4-.1.7 0 1.3.7.5.6.7 1.4.2.8-.2 1.8-.3.9-1.1 1.7-1.4 1.3-2.6 1.5-1.3.1-2.6-.8zm10.6-8.6l1.2.9-.7 1q-.7.6-1.2.8h-1q-.5-.3-1.5-1.3l-4-4-.8.9-1-.9 1-.8-1.8-1.7.5-1.9 2.4 2.4 1.1-1.2 1 1-1.2 1.1 4 4 .7.6h.4q.2 0 .5-.3l.4-.6zm-5.9-8.2l-1.3-1.3 1.1-1.2 1.4 1.4-1.2 1.1zm8.1 8.1l-6.8-6.8 1.1-1.2 6.9 6.9-1.2 1.1zm-1-5.9q-1.8-1.9-1.7-3.8.2-1.7 1.4-3 1.4-1.4 3.3-1.3 1.8 0 3.4 1.6 1.3 1.3 1.7 2.5.3 1.1 0 2.3-.3 1.2-1.2 2-1.5 1.5-3.3 1.5-1.8 0-3.5-1.8zm1.3-1.2q1.3 1.3 2.5 1.4 1.3.1 2.1-.8.9-.8.8-2 0-1.3-1.4-2.6-1.3-1.3-2.5-1.4-1.3 0-2.1.8-.9.9-.8 2.1 0 1.2 1.4 2.5zm10-3.1l-6.9-6.9 1-1 1 1q-.3-2 1.1-3.3.6-.7 1.4-1 .7-.3 1.3-.1.6 0 1.2.4l1.2 1.1 4.2 4.2-1.1 1.2-4.2-4.2q-.7-.7-1.2-.9-.5-.2-1 0-.6 0-1 .5-.8.7-.8 1.8-.1 1 1.2 2.3l3.7 3.7-1.1 1.2zm8.9-3.7l-.9-.8 7.7-7.7.8.8-7.6 7.7zm9.4-16.3q-.1 1.2-.5 2t-1 1.5q-1.2 1.1-2.3 1.2-1.2 0-2-.8-.6-.5-.7-1.2-.2-.6 0-1.2 0-.6.4-1.2.2-.5.8-1.2l1.7-2.5-.3-.3q-.7-.7-1.3-.7-.9 0-1.8 1-.8.8-.9 1.4 0 .7.5 1.6l-1.3 1q-.6-.9-.7-1.7 0-.8.3-1.7.5-1 1.3-1.8 1-.9 1.7-1.2.7-.4 1.3-.3.6 0 1.2.4l1 1 1.6 1.6q1.6 1.6 2.2 2l1 .5-1.1 1.2q-.6-.2-1.1-.6zm-2.7-2.5q-.4.9-1.5 2.3-.6.8-.7 1.3-.2.4-.1.8 0 .4.4.7.4.5 1 .4.8 0 1.4-.7.7-.6 1-1.4.2-.9-.1-1.6-.2-.6-1-1.4l-.4-.4zm10.8-4l-.8-.8q.3 1.6-1 2.9-.8.8-1.9 1-1.1.3-2.3-.2-1.2-.4-2.2-1.4-1-1-1.6-2.2-.5-1.2-.2-2.3.2-1.2 1-2 .7-.6 1.4-.8.8-.3 1.5-.1l-3.4-3.4 1.2-1.2 9.4 9.4-1 1.1zm-7 .3q1.3 1.3 2.5 1.4 1.2 0 2-.7.7-.7.6-1.9-.1-1.1-1.4-2.4-1.4-1.4-2.6-1.5-1.2-.1-2 .7-.7.7-.6 1.9 0 1.1 1.5 2.5zm14.4-7.6l-.9-.9q.4 1.7-.9 3-.8.8-2 1-1 .2-2.3-.2-1.2-.4-2.2-1.5-1-1-1.5-2.2-.5-1.2-.3-2.3.3-1.1 1.1-2 .6-.6 1.4-.8.7-.2 1.4 0l-3.4-3.5 1.2-1.1 9.4 9.4-1 1zm-7.1.2q1.3 1.3 2.5 1.4 1.2.1 2-.6.7-.8.6-2 0-1-1.3-2.3-1.4-1.4-2.6-1.6-1.2 0-2 .7-.8.8-.7 2 .1 1 1.5 2.4zm12.5-10l1.3-1q.8 1.3.6 2.6-.2 1.4-1.4 2.6-1.5 1.5-3.3 1.4-1.8 0-3.5-1.7t-1.8-3.6q0-1.8 1.4-3.2 1.3-1.4 3.1-1.3 1.9 0 3.5 1.7l.3.3-5 5.2q1.1 1 2.3 1 1.2 0 2-.8.7-.6.8-1.4.1-.8-.3-1.8zm-5.7 2l3.8-3.9q-1-.8-1.8-.8-1.2-.2-2 .7-.9.8-.9 2 0 1 .9 2zm15-6.9l-1-.8q.4 1.6-.8 2.9-.8.8-2 1-1.1.3-2.3-.2-1.2-.4-2.2-1.4-1-1-1.5-2.2-.5-1.2-.3-2.3.2-1.2 1-2 .7-.6 1.4-.8.8-.3 1.5-.2l-3.4-3.4 1.2-1.1 9.4 9.4-1 1.1zm-7.1.3q1.3 1.3 2.5 1.4 1.2 0 2-.7.7-.7.6-1.9 0-1.1-1.4-2.4-1.4-1.4-2.6-1.5-1.2-.2-2 .6-.7.8-.6 2 .1 1.1 1.5 2.5zm11.5.5l-.9-.8 7.7-7.7.9.8-7.7 7.7zm10.2-15.5l-.9-.8q.4 1.6-.9 3-.8.7-2 1-1 .2-2.2-.2-1.2-.5-2.3-1.5-1-1-1.5-2.2-.5-1.2-.2-2.3.2-1.1 1-2 .7-.6 1.4-.8.8-.3 1.5-.1l-3.4-3.4 1.1-1.2 9.5 9.5-1 1zm-7 .3q1.3 1.3 2.5 1.4 1.2.1 2-.7.7-.7.6-1.9-.1-1.1-1.4-2.4-1.4-1.4-2.6-1.5-1.2-.1-2 .7-.7.7-.6 1.9 0 1.1 1.4 2.5zm13.5-8.5q0 1.2-.4 2-.4.9-1 1.5-1.2 1.2-2.4 1.2-1.1 0-2-.8-.5-.5-.7-1.1-.2-.7 0-1.3 0-.6.4-1.2l.9-1.2q1.2-1.6 1.6-2.5l-.3-.3q-.7-.7-1.3-.7-.8.1-1.7 1-.8.8-1 1.5 0 .7.5 1.6l-1.3 1q-.5-1-.6-1.7-.1-.8.3-1.7.4-1 1.3-1.8.9-1 1.6-1.3.8-.3 1.4-.2.5 0 1.1.4.4.2 1.1 1l1.6 1.5q1.6 1.7 2.1 2 .5.4 1.1.5l-1.2 1.2q-.5-.1-1-.6zm-2.7-2.5q-.3 1-1.4 2.4l-.8 1.2q-.2.4 0 .9 0 .4.3.7.5.4 1.1.4.7 0 1.4-.7.6-.7.9-1.5.2-.8 0-1.6-.3-.6-1-1.3l-.5-.5zm8-3l1.1.8-.7 1q-.7.6-1.2.8h-1q-.5-.3-1.5-1.3l-4-4-.8.9-1-.9 1-.8-1.8-1.7.5-1.9 2.4 2.4 1.1-1.2 1 1-1.2 1.1 4 4 .7.6h.4q.2 0 .5-.3l.4-.6zm4.6-7l1.3-1.1q.8 1.3.6 2.7-.2 1.3-1.4 2.5-1.5 1.5-3.3 1.5-1.8 0-3.4-1.7-1.8-1.8-1.8-3.6t1.3-3.3q1.4-1.3 3.2-1.3 1.8.1 3.5 1.8l.3.3L394 29q1.2 1 2.4 1.1 1.1 0 2-.8.6-.7.8-1.5 0-.8-.4-1.7zm-5.7 1.9l3.8-3.8q-1-.8-1.7-.9-1.2-.1-2.1.8-.8.8-.8 1.9 0 1 .8 2z"/><path fill="#000" fill-opacity="0" d="M282.5 140.7l252-252L562.6-83l-252 252z" fill-rule="evenodd"/><path fill="#000" d="M311.4 155.1l-9.5-9.4 1-1 1 .8q-.2-.9 0-1.6.2-.8.9-1.4.9-.9 2-1.1 1-.2 2.3.2 1.1.5 2.1 1.5t1.5 2.3q.5 1.2.2 2.4-.3 1.1-1 2-.6.5-1.3.7-.7.2-1.4.1l3.3 3.4-1.1 1.1zm-5-7q1.3 1.3 2.5 1.4 1.2 0 2-.7.7-.7.6-2-.1-1.2-1.5-2.5-1.3-1.3-2.5-1.4-1.2-.2-2 .6-.7.7-.5 2 0 1.3 1.4 2.6zm9.7-3l-6.9-6.8 1-1 1.1 1q-.3-1-.2-1.6 0-.6.5-1 .6-.6 1.6-.8l.6 1.4q-.6.2-1 .6-.5.4-.5 1l.2 1q.4.8 1.1 1.6l3.6 3.5-1.1 1.2zm.5-7.3q-1.9-2-1.7-3.9 0-1.6 1.4-2.9 1.4-1.4 3.2-1.4 1.8 0 3.4 1.7 1.4 1.3 1.7 2.5.4 1.1 0 2.3-.3 1.2-1.2 2-1.4 1.5-3.2 1.5-1.8 0-3.6-1.8zm1.2-1.2q1.3 1.3 2.6 1.4 1.2 0 2-.8 1-.9.8-2 0-1.3-1.4-2.7-1.3-1.2-2.5-1.3-1.2 0-2 .8-1 .8-.9 2 .1 1.3 1.4 2.6zm10.3-3.4l-6-6-1 1-.9-.8 1-1-.7-.8q-.7-.7-.9-1.2-.3-.6-.1-1.3.1-.7.9-1.4l1.2-1 .8 1.2-.7.6q-.6.5-.6 1 0 .4.7 1l.6.7 1.3-1.4 1 1-1.4 1.3 6 6-1.2 1zm5.9-10.3l1.3-1q.8 1.3.6 2.6-.2 1.4-1.4 2.6-1.5 1.5-3.3 1.4-1.8 0-3.5-1.7t-1.8-3.6q0-1.8 1.4-3.2 1.4-1.4 3.2-1.3 1.8 0 3.4 1.7l.4.3-5.1 5.1q1.1 1.1 2.3 1.1 1.2 0 2-.8.7-.6.8-1.4.1-.8-.3-1.8zm-5.7 2l3.8-3.9q-1-.8-1.7-.8-1.3-.2-2.2.7-.7.8-.8 1.9 0 1 .9 2zm8-4l1-1.4q.7.6 1.6.6.8-.1 1.6-1 .8-.7.8-1.4t-.4-1.2q-.3-.4-1-.2-.3 0-1.5.7l-2.3 1.3q-.7.2-1.4 0-.7-.1-1.2-.6l-.6-1q-.2-.7-.1-1.3 0-.5.4-1 .3-.7.9-1.2.8-.8 1.6-1.2.8-.4 1.5-.2.7 0 1.5.6l-1 1.3q-.6-.5-1.3-.4-.6 0-1.3.8-.8.8-.9 1.4 0 .6.3 1l.5.2.8-.1 1.3-.8q1.6-.9 2.3-1.1.7-.3 1.3-.2.7.1 1.3.7.6.6.8 1.4.1.9-.2 1.8-.4 1-1.2 1.7-1.3 1.4-2.6 1.5-1.2.2-2.5-.7zm6.6-6.6l1-1.4q.7.6 1.6.6.8-.1 1.6-.9t.8-1.5q0-.7-.4-1.2-.3-.4-1-.2-.3 0-1.5.8l-2.3 1.2q-.8.2-1.4 0-.7-.1-1.2-.6l-.6-1q-.2-.7-.1-1.3 0-.4.4-1 .3-.7.9-1.2.8-.8 1.6-1.2.8-.4 1.5-.2.7 0 1.5.6l-1 1.3q-.6-.4-1.3-.4-.6 0-1.3.8-.8.8-.9 1.4 0 .6.3 1 .2.2.5.2l.8-.1 1.3-.8q1.6-.9 2.3-1.1.7-.3 1.3-.2.7.1 1.3.7.6.6.8 1.5.1.8-.2 1.7-.4 1-1.2 1.7-1.3 1.4-2.6 1.5-1.2.2-2.5-.7zm1-13.2l-1.3-1.3 1.1-1.2 1.4 1.4-1.2 1.1zm8.1 8.1l-6.8-6.8 1.1-1.2 6.9 6.9-1.2 1.1zm-1-5.9q-1.8-1.9-1.7-3.8.1-1.7 1.4-3 1.4-1.4 3.3-1.3 1.8 0 3.4 1.6 1.3 1.3 1.7 2.5.3 1.1 0 2.3-.3 1.2-1.2 2.1-1.5 1.4-3.3 1.4-1.8 0-3.5-1.8zm1.3-1.2q1.3 1.3 2.5 1.4 1.2.1 2.1-.8.9-.8.8-2 0-1.3-1.4-2.6-1.3-1.3-2.5-1.4-1.3 0-2.1.8-.9.9-.8 2.1 0 1.2 1.4 2.5zm10-3.1l-6.9-6.9 1-1 1 1q-.3-1.9 1-3.3.7-.6 1.5-1 .7-.2 1.3-.1.6 0 1.2.5.4.2 1.2 1l4.2 4.2-1.1 1.2-4.2-4.2q-.7-.7-1.2-.9-.5-.2-1 0-.6 0-1 .5-.8.8-.9 1.8 0 1 1.3 2.3l3.7 3.7-1.1 1.2zm11-12.7l-.5 2q-.4.9-1 1.6-1.2 1-2.4 1.1-1.1 0-2-.8-.5-.5-.7-1.1-.2-.7 0-1.3 0-.6.4-1.2l.9-1.2q1.2-1.6 1.6-2.5l-.3-.3q-.7-.7-1.3-.6-.8 0-1.7.9-.8.8-1 1.5 0 .7.5 1.6l-1.3 1q-.5-1-.6-1.7-.1-.8.3-1.7.4-1 1.3-1.8.9-1 1.6-1.2.8-.4 1.4-.3.5 0 1.1.4.4.2 1.1 1l1.6 1.5q1.6 1.7 2.1 2 .5.4 1.1.5l-1.2 1.2q-.5-.1-1-.6zm-2.8-2.5q-.3 1-1.4 2.4l-.8 1.2q-.2.5 0 .9 0 .4.3.7.5.4 1.1.4.7 0 1.4-.7.6-.7.9-1.5.2-.8 0-1.6-.3-.6-1-1.3l-.5-.5zm6.4.5l-9.4-9.4 1.1-1.2 9.5 9.5-1.2 1.1zm4.5.8l-.8-.9 7.7-7.7.8.9-7.7 7.7zM379.1 66l-1.3-1.4 1.1-1.2 1.4 1.4L379 66zm9.3 12.2l-.8-1.2.7-.5q.3-.4.2-.7 0-.5-1-1.4l-7.1-7.2 1.1-1.1 7.2 7.2q1.3 1.2 1.5 2 .2 1.1-.8 2-.5.6-1 .9zm-2.1-10q-2-2-1.8-4 .2-1.6 1.4-2.9 1.4-1.4 3.3-1.3 1.8 0 3.4 1.6 1.3 1.3 1.7 2.5.3 1.1 0 2.3-.3 1.2-1.2 2-1.5 1.5-3.3 1.5-1.8 0-3.5-1.8zm1.2-1.3q1.3 1.3 2.5 1.4 1.2.1 2.1-.8.9-.8.8-2 0-1.3-1.4-2.6-1.3-1.3-2.5-1.4-1.3 0-2.1.8-.9.9-.8 2.1 0 1.2 1.4 2.5zm1.9-11.2l-1.4-1.4 1.2-1.1 1.3 1.3-1.1 1.2zm8 8l-6.8-6.8 1.2-1.1 6.8 6.8-1.1 1.2zm3-2.9l-6.8-6.8 1-1 1 1q-.4-2 1-3.4.7-.6 1.4-.9.7-.3 1.3-.2.7.1 1.3.5l1.2 1 4.2 4.3-1.2 1.1-4.2-4.1-1.2-1h-1q-.5.1-1 .6-.7.7-.8 1.7 0 1 1.2 2.3l3.8 3.8-1.2 1.1zm8.9-3.6l-.8-.8 7.6-7.7.9.8-7.7 7.7zm10.2-15.5l-.8-.8q.3 1.6-1 2.9-.8.8-1.9 1-1.1.3-2.3-.1-1.2-.5-2.2-1.5-1-1-1.6-2.2-.5-1.2-.2-2.3.2-1.2 1-2 .7-.6 1.4-.8.8-.3 1.5-.1l-3.4-3.4 1.2-1.2 9.4 9.5-1 1zm-7 .3q1.3 1.3 2.5 1.4 1.2 0 2-.7.7-.7.6-1.9-.1-1.1-1.4-2.4-1.4-1.4-2.6-1.5-1.2-.1-2 .7-.7.7-.6 1.9 0 1.1 1.4 2.5zm13.5-8.5q0 1.2-.4 2-.4.9-1 1.5-1.2 1.2-2.4 1.2-1.1 0-2-.8-.5-.5-.7-1.1-.2-.7 0-1.3 0-.6.4-1.2l.9-1.2q1.2-1.6 1.6-2.5l-.2-.3q-.8-.7-1.4-.7-.8.1-1.7 1-.8.8-1 1.5 0 .6.5 1.6l-1.3 1q-.5-1-.6-1.7-.1-.8.3-1.8.4-.9 1.3-1.7.9-1 1.6-1.3.8-.3 1.4-.2.5 0 1.1.4.4.2 1.1 1l1.6 1.5 2.1 2 1.1.5-1.2 1.2q-.5-.1-1-.6zm-2.7-2.5q-.3 1-1.4 2.4l-.8 1.2q-.1.4 0 .8 0 .4.3.8.5.4 1.2.4.6 0 1.3-.7.7-.7.9-1.5.2-.8 0-1.6-.3-.6-1-1.3l-.5-.5zm8-3l1.1.8-.7 1q-.7.6-1.2.7-.6.2-1 0-.5-.2-1.5-1.2l-4-4-.8.9-1-.9 1-.9-1.8-1.6.5-1.9 2.4 2.4 1.1-1.2 1 1-1.2 1 4 4.1.7.6h.4q.2 0 .5-.3l.4-.6zm4.6-7l1.3-1.1q.8 1.3.6 2.7-.2 1.3-1.4 2.5-1.5 1.5-3.3 1.5-1.8 0-3.4-1.7-1.8-1.8-1.8-3.6 0-1.9 1.3-3.3 1.4-1.3 3.2-1.3 1.8 0 3.5 1.8l.3.3-5.1 5q1.2 1.2 2.4 1.2 1.1 0 2-.8.6-.7.8-1.5 0-.8-.4-1.8zm-5.7 1.9L434 19q-.9-.8-1.7-.9-1.2-.1-2.1.8-.8.8-.8 1.9 0 1 .8 2z"/><path fill="#000" fill-opacity="0" d="M322.5 160v285" fill-rule="evenodd"/><path stroke="#000" stroke-linejoin="round" stroke-linecap="butt" d="M322.5 160v285" fill-rule="evenodd"/><path fill="#000" fill-opacity="0" d="M282.3 462v64h-75.5v-64z" fill-rule="evenodd"/><path fill="#000" d="M242.6 473.3h4.4v4.4h-4.4v-4.4zm0 8.9h4.4v4.4h-4.4v-4.4zm0 8.9h4.4v4.3h-4.4v-4.3z"/><path fill="#000" fill-opacity="0" d="M365.7 250.3h64v75.5h-64z" fill-rule="evenodd"/><path fill="#000" d="M377 290v-4.4h4.4v4.4H377zm8.9 0v-4.4h4.4v4.4h-4.4zm8.9 0v-4.4h4.3v4.4h-4.3z"/><path fill="#000" fill-opacity="0" d="M130.5 160h32v32h-32z" fill-rule="evenodd"/><path fill="#000" d="M146.4 183h-1.6v-10.5q-.6.6-1.6 1.2l-1.7.8V173q1.4-.6 2.4-1.5 1-1 1.5-1.8h1V183z"/><path fill="#000" fill-opacity="0" d="M130.5 192h32v32h-32z" fill-rule="evenodd"/><path fill="#000" d="M146.4 215h-1.6v-10.5q-.6.6-1.6 1.2l-1.7.8V205q1.4-.6 2.4-1.5 1-1 1.5-1.8h1V215z"/><path fill="#000" fill-opacity="0" d="M130.5 224h32v32h-32z" fill-rule="evenodd"/><path fill="#000" d="M140.3 240.4q0-2.4.4-3.8.5-1.4 1.5-2.2 1-.8 2.4-.8 1 0 1.9.4.8.4 1.3 1.3.5.8.8 2 .4 1.1.4 3.1 0 2.4-.5 3.8-.5 1.5-1.5 2.2-1 .8-2.4.8-2 0-3-1.4-1.3-1.6-1.3-5.4zm1.6 0q0 3.3.8 4.4.8 1 1.9 1 1.1 0 1.9-1 .8-1.1.8-4.4 0-3.3-.8-4.4-.8-1-2-1-1 0-1.7.9-.9 1.2-.9 4.5z"/><path fill="#000" fill-opacity="0" d="M130.5 256h32v32h-32z" fill-rule="evenodd"/><path fill="#000" d="M146.4 279h-1.6v-10.5q-.6.6-1.6 1.2l-1.7.8V269q1.4-.6 2.4-1.5 1-1 1.5-1.8h1V279z"/><path fill="#000" fill-opacity="0" d="M130.5 288h32v32h-32z" fill-rule="evenodd"/><path fill="#000" d="M140.3 304.4q0-2.4.4-3.8.5-1.4 1.5-2.2 1-.8 2.4-.8 1 0 1.9.4.8.4 1.3 1.3.5.8.8 2 .4 1.1.4 3.1 0 2.4-.5 3.8-.5 1.5-1.5 2.2-1 .8-2.4.8-2 0-3-1.4-1.3-1.6-1.3-5.4zm1.6 0q0 3.3.8 4.4.8 1 1.9 1 1.1 0 1.9-1 .8-1.1.8-4.4 0-3.3-.8-4.4-.8-1-2-1-1 0-1.7.9-.9 1.2-.9 4.5z"/><path fill="#000" fill-opacity="0" d="M130.5 320h32v32h-32z" fill-rule="evenodd"/><path fill="#000" d="M140.3 336.4q0-2.4.4-3.8.5-1.4 1.5-2.2 1-.8 2.4-.8 1 0 1.9.4.8.4 1.3 1.3.5.8.8 2 .4 1.1.4 3.1 0 2.4-.5 3.8-.5 1.5-1.5 2.2-1 .8-2.4.8-2 0-3-1.4-1.3-1.6-1.3-5.4zm1.6 0q0 3.3.8 4.4.8 1 1.9 1 1.1 0 1.9-1 .8-1.1.8-4.4 0-3.3-.8-4.4-.8-1-2-1-1 0-1.7.9-.9 1.2-.9 4.5z"/><path fill="#000" fill-opacity="0" d="M130.5 352h32v32h-32z" fill-rule="evenodd"/><path fill="#000" d="M146.4 375h-1.6v-10.5q-.6.6-1.6 1.2l-1.7.8V365q1.4-.6 2.4-1.5 1-1 1.5-1.8h1V375z"/><path fill="#000" fill-opacity="0" d="M130.5 384h32v32h-32z" fill-rule="evenodd"/><path fill="#000" d="M140.3 400.4q0-2.4.4-3.8.5-1.4 1.5-2.2 1-.8 2.4-.8 1 0 1.9.4.8.4 1.3 1.3.5.8.8 2 .4 1.1.4 3.1 0 2.4-.5 3.8-.5 1.5-1.5 2.2-1 .8-2.4.8-2 0-3-1.4-1.3-1.6-1.3-5.4zm1.6 0q0 3.3.8 4.4.8 1 1.9 1 1.1 0 1.9-1 .8-1.1.8-4.4 0-3.3-.8-4.4-.8-1-2-1-1 0-1.7.9-.9 1.2-.9 4.5z"/><path fill="#000" fill-opacity="0" d="M21 209h86v43.4H21z" fill-rule="evenodd"/><path fill="#6aa84f" d="M34.4 236v-11.2h-4v-2.2H41v2.2h-4V236h-2.6zm8.9-6.8l-2.4-.4q.4-1.4 1.4-2.1 1-.7 2.8-.7 1.7 0 2.6.4.8.4 1.2 1 .3.7.3 2.3v5l.6 1.2h-2.6l-.2-.7-.1-.3-1.4 1-1.6.2q-1.5 0-2.4-.8-.8-.8-.8-2 0-.8.4-1.5.4-.6 1-1l2.1-.6q1.8-.3 2.5-.6v-.2q0-.8-.4-1.1-.3-.3-1.4-.3-.6 0-1 .3-.4.2-.6.9zm3.4 2l-1.6.5-1.4.4q-.5.4-.5 1 0 .4.4.9.4.3 1 .3.8 0 1.4-.4.4-.4.6-.9v-1.7zm7.5 4.7h-2.6v-9.7H54v1.4q.6-1 1-1.3.6-.3 1.2-.3.9 0 1.7.5l-.8 2.2q-.7-.4-1.2-.4t-1 .3q-.3.3-.5 1.1t-.2 3.2v3zm4.6.7l2.9.3q0 .5.3.7.4.3 1.2.3 1 0 1.5-.3.3-.2.5-.7v-2.5q-1 1.5-2.8 1.5-2 0-3.1-1.6-.9-1.3-.9-3.3 0-2.4 1.2-3.7 1.2-1.3 2.9-1.3 1.8 0 3 1.6v-1.4h2.3v8.7q0 1.7-.2 2.6-.3.8-.8 1.3t-1.4.8q-.8.2-2.1.2-2.5 0-3.5-.8t-1-2.1v-.3zm2.2-5.7q0 1.5.6 2.2.6.8 1.5.8 1 0 1.6-.8.6-.7.6-2.1 0-1.6-.6-2.3-.6-.7-1.6-.7-.9 0-1.5.7t-.6 2.2zm15 2l2.5.4q-.5 1.4-1.5 2.1-1 .7-2.7.7-2.5 0-3.7-1.6-1-1.3-1-3.3 0-2.5 1.3-3.8 1.3-1.4 3.2-1.4 2.1 0 3.4 1.5 1.2 1.4 1.2 4.3h-6.4q0 1.2.6 1.8.6.6 1.5.6.5 0 1-.3.4-.3.6-1zm.1-2.7q0-1-.5-1.6-.6-.6-1.4-.6-.8 0-1.4.6-.5.6-.5 1.6h3.8zm9.1-4v2h-1.8v4l.1 1.4q0 .2.2.3l.5.1 1-.2.2 2q-.9.3-2 .3-.7 0-1.3-.2-.5-.2-.8-.6l-.3-1-.1-1.8v-4.2h-1.2v-2h1.2v-2l2.5-1.5v3.4h1.8z"/><path fill="#000" fill-opacity="0" d="M381 209h109v43.4H381z" fill-rule="evenodd"/><path fill="#c00" d="M391.4 236v-13.4h9.1v2.2h-6.4v3.2h5.5v2.2h-5.5v5.7h-2.7zm17-3.2l2.5.5q-.5 1.4-1.6 2.1-1 .7-2.6.7-2.5 0-3.8-1.6-1-1.3-1-3.3 0-2.5 1.3-3.8 1.3-1.4 3.2-1.4 2.2 0 3.4 1.5 1.3 1.4 1.2 4.3h-6.4q0 1.2.6 1.8.6.6 1.5.6.6 0 1-.3t.6-1zm0-2.6q0-1-.5-1.6-.5-.6-1.3-.6-.9 0-1.4.6-.6.6-.5 1.6h3.8zm6.6-1l-2.3-.4q.4-1.4 1.4-2.1 1-.7 2.8-.7 1.7 0 2.5.4.9.4 1.2 1 .4.7.4 2.3v5l.5 1.2H419l-.3-.7v-.3q-.7.6-1.5 1-.7.2-1.6.2-1.4 0-2.3-.8-.9-.8-.9-2 0-.8.4-1.5.4-.6 1.1-1l2-.6q1.9-.3 2.5-.6v-.2q0-.8-.3-1.1-.4-.3-1.4-.3-.7 0-1 .3-.4.2-.7.9zm3.4 2l-1.5.5-1.4.4q-.5.4-.5 1 0 .4.4.9.4.3 1 .3.7 0 1.3-.4.5-.4.6-.9l.1-1.2v-.5zm9.5-5v2h-1.7v5.4q0 .2.2.3l.5.1 1-.2.2 2q-.9.3-2 .3-.7 0-1.2-.2-.6-.2-.9-.6l-.3-1-.1-1.8v-4.2h-1.2v-2h1.2v-2l2.6-1.5v3.4h1.7zm8.2 9.7v-1.4q-.6.7-1.4 1.2-.9.4-1.8.4-1 0-1.8-.4t-1.1-1.2q-.4-.8-.4-2.1v-6.2h2.6v4.5l.1 2.5q.2.5.6.7.3.3 1 .3.6 0 1-.4.6-.3.8-.9.2-.5.2-2.6v-4h2.5v9.6h-2.3zm7.5 0H441v-9.7h2.4v1.4q.6-1 1-1.3.5-.3 1.2-.3.8 0 1.7.5l-.8 2.2q-.7-.4-1.2-.4-.6 0-1 .3-.3.3-.5 1.1t-.2 3.2v3zm10.4-3l2.5.4q-.5 1.4-1.5 2.1-1.1.7-2.7.7-2.5 0-3.7-1.6-1-1.3-1-3.3 0-2.5 1.3-3.8 1.2-1.4 3.1-1.4 2.2 0 3.5 1.5 1.2 1.4 1.1 4.3h-6.4q0 1.2.6 1.8.6.6 1.5.6.6 0 1-.3.5-.3.7-1zm.1-2.7q0-1-.6-1.6-.5-.6-1.3-.6t-1.4.6q-.5.6-.5 1.6h3.8zm3.7 3l2.6-.4q.2.7.7 1.1.5.4 1.4.4 1 0 1.5-.4.3-.2.3-.7l-.2-.4-.8-.4q-3.1-.7-4-1.2-1.1-.8-1.1-2.2 0-1.3 1-2.1 1-.9 3-.9t3 .7q1 .6 1.3 1.9l-2.4.4q-.1-.5-.6-.8-.4-.3-1.2-.3-1 0-1.4.3-.3.2-.3.5l.2.4q.4.3 2.4.8 2 .4 2.9 1.1.8.7.8 1.9 0 1.3-1.1 2.3-1.2 1-3.3 1-2 0-3.2-.9-1.1-.8-1.5-2.1z"/><path fill="#000" fill-opacity="0" d="M381.7 58.3h64v75.5h-64z" fill-rule="evenodd"/><path fill="#000" d="M393.6 98v-3.2h3.2V98h-3.2zm8.9 0v-3.2h3.2V98h-3.2zm8.9 0v-3.2h3.2V98h-3.2z"/></g></svg>