<svg version="1.1" viewBox="0.0 0.0 507.0 510.5774278215223" fill="none" stroke="none" stroke-linecap="square" stroke-miterlimit="10" xmlns:xlink="http://www.w3.org/1999/xlink" xmlns="http://www.w3.org/2000/svg"><clipPath id="p.0"><path d="m0 0l507.0 0l0 510.57742l-507.0 0l0 -510.57742z" clip-rule="nonzero"/></clipPath><g clip-path="url(#p.0)"><path fill="#000000" fill-opacity="0.0" d="m0 0l507.0 0l0 510.57742l-507.0 0z" fill-rule="evenodd"/><path fill="#d9ead3" d="m130.23622 160.67455l32.0 0l0 284.8504l-32.0 0z" fill-rule="evenodd"/><path fill="#f4cccc" d="m162.23622 160.67455l196.40944 0l0 284.8504l-196.40944 0z" fill-rule="evenodd"/><path fill="#000000" fill-opacity="0.0" d="m130.47244 160.07611l0 284.8504" fill-rule="evenodd"/><path stroke="#000000" stroke-width="1.0" stroke-linejoin="round" stroke-linecap="butt" d="m130.47244 160.07611l0 284.8504" fill-rule="evenodd"/><path fill="#000000" fill-opacity="0.0" d="m162.47244 160.07611l0 284.8504" fill-rule="evenodd"/><path stroke="#000000" stroke-width="1.0" stroke-linejoin="round" stroke-linecap="butt" d="m162.47244 160.07611l0 284.8504" fill-rule="evenodd"/><path fill="#000000" fill-opacity="0.0" d="m194.47244 160.07611l0 284.8504" fill-rule="evenodd"/><path stroke="#000000" stroke-width="1.0" stroke-linejoin="round" stroke-linecap="butt" d="m194.47244 160.07611l0 284.8504" fill-rule="evenodd"/><path fill="#000000" fill-opacity="0.0" d="m226.47244 160.07611l0 284.8504" fill-rule="evenodd"/><path stroke="#000000" stroke-width="1.0" stroke-linejoin="round" stroke-linecap="butt" d="m226.47244 160.07611l0 284.8504" fill-rule="evenodd"/><path fill="#000000" fill-opacity="0.0" d="m258.47244 160.07611l0 284.8504" fill-rule="evenodd"/><path stroke="#000000" stroke-width="1.0" stroke-linejoin="round" stroke-linecap="butt" d="m258.47244 160.07611l0 284.8504" fill-rule="evenodd"/><path fill="#000000" fill-opacity="0.0" d="m290.47244 160.07611l0 284.8504" fill-rule="evenodd"/><path stroke="#000000" stroke-width="1.0" stroke-linejoin="round" stroke-linecap="butt" d="m290.47244 160.07611l0 284.8504" fill-rule="evenodd"/><path fill="#000000" fill-opacity="0.0" d="m130.47244 160.07611l228.18896 0" fill-rule="evenodd"/><path stroke="#000000" stroke-width="1.0" stroke-linejoin="round" stroke-linecap="butt" d="m130.47244 160.07611l228.18896 0" fill-rule="evenodd"/><path fill="#000000" fill-opacity="0.0" d="m122.47141 140.70955l251.9685 -251.9685l28.283478 28.283463l-251.9685 251.9685z" fill-rule="evenodd"/><path fill="#000000" d="m155.71475 150.77304l-3.347702 -3.347702q0.121520996 0.6518707 -0.11048889 1.3921204q-0.24307251 0.7292023 -0.7955017 1.2816315q-1.215332 1.215332 -3.0714874 1.1269531q-1.845108 -0.09944153 -3.5355377 -1.7898712q-1.038559 -1.038559 -1.502594 -2.2097015q-0.45300293 -1.1822052 -0.19888306 -2.276001q0.26516724 -1.1048584 1.0717163 -1.9114075q1.2705841 -1.2705841 3.0714874 -0.92807007l-0.9170227 -0.91703796l1.038559 -1.038559l9.45755 9.45755l-1.1600952 1.1600952zm-9.623276 -2.4859161q1.3147736 1.3147736 2.5301056 1.4252625q1.2153473 0.11048889 1.988739 -0.6629181q0.7402649 -0.74024963 0.64082336 -1.9003448q-0.088394165 -1.1711426 -1.3700256 -2.452774q-1.3700104 -1.3700256 -2.6184998 -1.4915466q-1.2484894 -0.121536255 -2.0108337 0.6408081q-0.751297 0.751297 -0.64082336 1.9224396q0.121536255 1.1601105 1.4805145 2.5190735zm14.463043 -7.590851l-1.0054169 -1.0054169q0.36460876 1.9555817 -1.0054169 3.3256073q-0.607666 0.607666 -1.3700104 0.90597534q-0.75131226 0.28726196 -1.3589783 0.1878357q-0.607666 -0.09944153 -1.2153473 -0.50823975q-0.40878296 -0.25411987 -1.1600952 -1.0054169l-4.2315826 -4.231598l1.1600952 -1.1600952l3.7896423 3.7896576q0.9059906 0.90597534 1.3037415 1.1490479q0.5634613 0.34249878 1.18219 0.25411987q0.6187134 -0.088394165 1.1380005 -0.6076813q0.51927185 -0.51927185 0.70710754 -1.2374268q0.18782043 -0.74024963 -0.0773468 -1.381073q-0.2762146 -0.6518707 -1.1490479 -1.524704l-3.6681213 -3.668106l1.1601105 -1.1600952l6.839035 6.839035l-1.038559 1.0385742zm5.348007 -9.745331l1.3368683 -1.0496063q0.7623596 1.3368683 0.5855713 2.6847992q-0.18782043 1.3368683 -1.3810577 2.5301056q-1.5026093 1.5026093 -3.3035126 1.4694672q-1.8009186 -0.055252075 -3.4692535 -1.7235718q-1.7346191 -1.7346191 -1.8009033 -3.5686798q-0.055252075 -1.845108 1.358963 -3.2593231q1.3700256 -1.370018 3.170929 -1.2926788q1.8009186 0.055236816 3.4913483 1.7456665q0.11048889 0.11048889 0.3093567 0.3093567l-5.104431 5.104431q1.1932526 1.0606537 2.3754425 1.093811q1.1711426 0.022094727 2.021881 -0.8286438q0.6408081 -0.64082336 0.76234436 -1.4252625q0.11048889 -0.7955017 -0.35354614 -1.7898712zm-5.6900024 1.9335022l3.8227997 -3.8227997q-0.9391327 -0.7844391 -1.7346191 -0.8507385q-1.2263947 -0.121536255 -2.1102753 0.76234436q-0.7955017 0.7955017 -0.8065491 1.8893127q-0.011047363 1.071701 0.8286438 2.021881zm8.032791 -3.9669342l0.9722748 -1.3258286q0.773407 0.5966263 1.5909882 0.53032684q0.8065491 -0.07733154 1.6020508 -0.87283325q0.79548645 -0.7954941 0.8617859 -1.5026016q0.055236816 -0.7181549 -0.3867035 -1.1600952q-0.3867035 -0.38669586 -0.9612274 -0.2762146q-0.38668823 0.07733917 -1.5688934 0.7954941q-1.6130829 0.95018005 -2.3422852 1.2153397q-0.7181549 0.25411987 -1.381073 0.09944153q-0.67396545 -0.16573334 -1.18219 -0.67396545q-0.45298767 -0.45298767 -0.629776 -1.0496063q-0.18782043 -0.60767365 -0.07733154 -1.2263947q0.06628418 -0.46403503 0.39775085 -1.0606537q0.33145142 -0.618721 0.8617859 -1.1490555q0.8065338 -0.80654144 1.646225 -1.18219q0.83969116 -0.3756485 1.524704 -0.26516724q0.6960602 0.09944153 1.4694519 0.6518631l-0.98332214 1.2926788q-0.607666 -0.45298767 -1.2816315 -0.3756485q-0.66290283 0.06629181 -1.3368683 0.74024963q-0.8065491 0.8065491 -0.8838806 1.4142151q-0.06629944 0.5966263 0.28726196 0.95018005q0.22096252 0.22097015 0.54138184 0.27620697q0.33145142 0.044197083 0.76234436 -0.14363098q0.23202515 -0.0994339 1.3147736 -0.7181549q1.5578461 -0.9170227 2.2539062 -1.1932373q0.6960602 -0.2762146 1.3700256 -0.15467834q0.6739502 0.121528625 1.2705688 0.7181549q0.58558655 0.5855713 0.75131226 1.4363098q0.17677307 0.83968353 -0.17678833 1.7677612q-0.3645935 0.91703033 -1.1711426 1.7235794q-1.3258209 1.3258209 -2.5853577 1.4804993q-1.2484894 0.14363098 -2.5301208 -0.76234436zm10.595566 -8.584724l1.1932373 0.8617859q-0.3867035 0.5855789 -0.7733917 0.9722748q-0.629776 0.6297684 -1.1822052 0.7844467q-0.5413666 0.14363098 -1.0054169 -0.03314209q-0.4750824 -0.18782806 -1.5136414 -1.2263947l-3.944336 -3.9443283l-0.8507385 0.8507385l-0.894928 -0.894928l0.8507385 -0.8507385l-1.6904297 -1.6904297l0.45298767 -1.845108l2.3864899 2.3864899l1.1711426 -1.1711502l0.894928 0.8949356l-1.1711426 1.1711426l4.01062 4.01062q0.48614502 0.4861374 0.6850128 0.5745239q0.20991516 0.07733917 0.43089294 0.03314972q0.22097778 -0.06629181 0.48612976 -0.33145905q0.1878357 -0.18782043 0.4640503 -0.5524292zm-5.936035 -8.2061l-1.3368835 -1.3368683l1.1600952 -1.1601028l1.3368835 1.3368759l-1.1600952 1.1600952zm8.109619 8.109634l-6.839035 -6.8390503l1.1600952 -1.1600952l6.8390503 6.8390503l-1.1601105 1.1600952zm-0.92510986 -5.924988q-1.9003448 -1.9003448 -1.7567139 -3.8559418q0.121536255 -1.6462326 1.3921204 -2.9168167q1.4142151 -1.4142151 3.2372131 -1.3810654q1.811966 0.022094727 3.4471588 1.65728q1.3147736 1.3147812 1.6793671 2.4748764q0.3535614 1.1490479 0.011047363 2.3312378q-0.33145142 1.1711502 -1.2263794 2.0660782q-1.4363098 1.4363098 -3.2372284 1.4031677q-1.8119507 -0.044197083 -3.546585 -1.7788162zm1.1932526 -1.1932449q1.3147736 1.3147812 2.5411682 1.4142151q1.2263794 0.07733917 2.0992126 -0.7954941q0.8617859 -0.8617859 0.78445435 -2.088173q-0.088394165 -1.2374344 -1.4363098 -2.5853577q-1.2705841 -1.2705841 -2.4969788 -1.3479233q-1.2263794 -0.07733917 -2.0881653 0.7844467q-0.8728485 0.87283325 -0.7955017 2.0992203q0.0773468 1.2042923 1.3921204 2.5190659zm9.999435 -3.1493378l-6.8390503 -6.8390503l1.038559 -1.038559l0.9722748 0.97226715q-0.37564087 -1.8782501 1.0496216 -3.3035126q0.6187134 -0.618721 1.358963 -0.91703033q0.74024963 -0.29830933 1.3589783 -0.18782806q0.6187134 0.088394165 1.215332 0.4861374q0.3867035 0.25411987 1.1932373 1.0606613l4.209503 4.2094955l-1.1600952 1.1600952l-4.1652985 -4.1652985q-0.70710754 -0.70710754 -1.1932526 -0.905983q-0.48612976 -0.22097015 -1.038559 -0.088386536q-0.5524292 0.13258362 -1.0164642 0.59661865q-0.74024963 0.74025726 -0.8065491 1.7567215q-0.06628418 0.9943695 1.2484894 2.309143l3.7344055 3.7344131l-1.1600952 1.1600952zm8.88353 -3.6465302l-0.8396759 -0.83968353l7.678726 -7.6787415l0.83969116 0.83969116l-7.6787415 7.678734zm9.413879 -16.330254q-0.11048889 1.1932449 -0.47509766 2.0218887q-0.3645935 0.80654144 -1.0496063 1.4915466q-1.1269531 1.1269531 -2.2870483 1.1821976q-1.1600952 0.055244446 -2.0108337 -0.7954941q-0.50823975 -0.5082321 -0.6850128 -1.1490479q-0.18782043 -0.6518631 -0.06629944 -1.2595367q0.121536255 -0.6297684 0.45300293 -1.226387q0.24305725 -0.41984558 0.8507385 -1.2042923q1.2374268 -1.5688934 1.6683197 -2.4638214q-0.23200989 -0.25411987 -0.28726196 -0.30936432q-0.70710754 -0.70710754 -1.3368683 -0.6739578q-0.8286438 0.055244446 -1.7125244 0.93912506q-0.81759644 0.8175888 -0.9170227 1.4915543q-0.09944153 0.6739578 0.43089294 1.5799408l-1.2926941 0.98332214q-0.5634613 -0.87283325 -0.65185547 -1.668335q-0.09944153 -0.80654144 0.33145142 -1.7235718q0.43089294 -0.91703033 1.3037262 -1.7898636q0.8838959 -0.8838806 1.6351929 -1.2153397q0.751297 -0.35355377 1.3258209 -0.28726196q0.5745239 0.044197083 1.1490479 0.41984558q0.3535614 0.24306488 1.1269531 1.0164642l1.5467987 1.5467987q1.6130829 1.6130905 2.1213226 1.9666367q0.49717712 0.3425064 1.1048431 0.5303345l-1.2042847 1.2042923q-0.5524292 -0.1767807 -1.071701 -0.60767365zm-2.6958466 -2.4969711q-0.36460876 0.8949356 -1.4473572 2.3312454q-0.61872864 0.8175888 -0.78445435 1.2484818q-0.16572571 0.43089294 -0.088394165 0.83969116q0.088394165 0.39775085 0.39775085 0.70710754q0.46403503 0.46404266 1.1269531 0.41984558q0.6629181 -0.044197083 1.3368683 -0.7181549q0.6629181 -0.66291046 0.89494324 -1.4694595q0.23200989 -0.82863617 -0.03315735 -1.5799408q-0.20991516 -0.5855713 -0.9722595 -1.3479233l-0.43089294 -0.43089294zm6.408661 0.4635315l-6.8390503 -6.8390427l1.038559 -1.0385666l0.9722748 0.9722748q-0.37565613 -1.8782578 1.0496063 -3.3035202q0.61872864 -0.6187134 1.3589783 -0.9170227q0.74024963 -0.29831696 1.358963 -0.18782806q0.61872864 0.088386536 1.2153473 0.4861374q0.3867035 0.25411224 1.1932373 1.0606613l4.209503 4.2094955l-1.1600952 1.1600952l-4.1653137 -4.165306q-0.70710754 -0.7070999 -1.1932373 -0.90597534q-0.48612976 -0.22097015 -1.038559 -0.088386536q-0.5524292 0.13257599 -1.0164642 0.59661865q-0.7402649 0.74024963 -0.8065491 1.7567139q-0.06628418 0.9943695 1.2484894 2.3091507l3.7344055 3.7344055l-1.1600952 1.1600952zm4.82872 -8.916679l0.9722748 -1.3258286q0.7733917 0.5966263 1.5909882 0.5303345q0.8065338 -0.07733917 1.6020355 -0.87283325q0.7955017 -0.7954941 0.8617859 -1.5026016q0.055236816 -0.7181549 -0.3867035 -1.1601028q-0.38668823 -0.38669586 -0.96121216 -0.27620697q-0.3867035 0.07733917 -1.5688934 0.7954941q-1.6130981 0.9501724 -2.3423004 1.2153397q-0.7181549 0.25411224 -1.381073 0.0994339q-0.6739502 -0.16572571 -1.18219 -0.6739578q-0.45298767 -0.4529953 -0.62976074 -1.049614q-0.1878357 -0.60767365 -0.0773468 -1.226387q0.06629944 -0.46404266 0.39775085 -1.0606613q0.33145142 -0.618721 0.8617859 -1.1490479q0.8065491 -0.80654144 1.6462402 -1.1821976q0.8396759 -0.3756485 1.5246887 -0.2651596q0.6960602 0.0994339 1.4694672 0.6518631l-0.98332214 1.2926788q-0.6076813 -0.4529953 -1.2816315 -0.3756485q-0.6629181 0.06628418 -1.3368835 0.74024963q-0.8065338 0.80654144 -0.8838806 1.4142151q-0.06628418 0.59661865 0.28726196 0.9501724q0.22097778 0.22097015 0.54138184 0.2762146q0.33145142 0.044189453 0.76234436 -0.14363098q0.23202515 -0.09944153 1.3147736 -0.7181549q1.5578461 -0.91703033 2.2539062 -1.1932449q0.6960602 -0.2762146 1.3700256 -0.15467834q0.67396545 0.121536255 1.2705841 0.7181549q0.5855713 0.5855713 0.751297 1.4363098q0.17677307 0.83969116 -0.17677307 1.7677689q-0.36460876 0.91703033 -1.1711426 1.7235718q-1.3258362 1.3258286 -2.585373 1.4805069q-1.2484741 0.14363098 -2.5301056 -0.762352zm10.363525 -6.2755737l-8.938263 -4.7398224l1.2042847 -1.2042923l5.0270844 2.8615723l1.8782654 1.0606613q-0.0773468 -0.14363098 -1.060669 -1.7677689l-2.9057617 -5.093376l1.1932373 -1.1932449l4.982895 2.9499588l1.6462402 0.9612274l-0.91703796 -1.7125244l-2.7842255 -5.126526l1.1269379 -1.1269493l4.695633 8.982464l-1.2042847 1.2042923l-5.1817627 -3.0162506l-1.4252625 -0.8949356l3.8780365 6.640175l-1.2153473 1.2153397zm10.753204 -15.15052l1.3368683 -1.0496101q0.7623596 1.3368721 0.5855713 2.6847954q-0.18782043 1.3368759 -1.3810577 2.530117q-1.5026093 1.5026016 -3.3035126 1.4694557q-1.8009186 -0.05524063 -3.4692535 -1.7235718q-1.7346191 -1.734623 -1.8009033 -3.5686798q-0.055252075 -1.845108 1.358963 -3.2593193q1.3700256 -1.3700218 3.1709442 -1.2926826q1.8009033 0.055244446 3.491333 1.7456703q0.11048889 0.11048508 0.3093567 0.3093605l-5.104431 5.1044273q1.1932526 1.0606613 2.3754425 1.0938072q1.1711426 0.022094727 2.021881 -0.8286438q0.64082336 -0.64081573 0.7623596 -1.4252625q0.11047363 -0.7954941 -0.3535614 -1.7898636zm-5.6900024 1.9334946l3.8227997 -3.8227959q-0.9391327 -0.7844467 -1.7346191 -0.8507347q-1.2263947 -0.121536255 -2.1102753 0.7623482q-0.7955017 0.7954941 -0.8065491 1.8893013q-0.011047363 1.0717087 0.8286438 2.021881zm10.52977 -2.3759422l-6.8390503 -6.8390465l1.0385742 -1.0385666l1.038559 1.0385666q-0.33146667 -1.1269531 -0.23202515 -1.6904297q0.11048889 -0.5745239 0.5192871 -0.9833183q0.5855713 -0.5855751 1.5688934 -0.8175926l0.67396545 1.4694557q-0.6850128 0.17677689 -1.1048584 0.59662247q-0.3867035 0.38669586 -0.45298767 0.9170265q-0.06629944 0.53033066 0.1988678 1.0606613q0.41984558 0.8175926 1.1600952 1.5578461l3.5797272 3.5797272l-1.1490479 1.1490479zm6.8899994 -11.287315l1.3368683 -1.049614q0.7623596 1.3368759 0.5855713 2.6847954q-0.18782043 1.3368759 -1.3810577 2.530117q-1.5026093 1.5026016 -3.3035126 1.4694557q-1.8009186 -0.05524063 -3.4692535 -1.7235718q-1.7346191 -1.7346191 -1.8009033 -3.5686798q-0.055252075 -1.845108 1.358963 -3.2593193q1.3700256 -1.370018 3.170929 -1.2926788q1.8009186 0.05524063 3.4913483 1.7456703q0.11048889 0.11048508 0.3093567 0.3093567l-5.104431 5.1044273q1.1932526 1.0606613 2.3754425 1.0938072q1.1711426 0.022094727 2.021881 -0.82864q0.64082336 -0.64081573 0.76234436 -1.4252625q0.11048889 -0.7954979 -0.35354614 -1.7898636zm-5.6900024 1.9334946l3.8227997 -3.8227959q-0.9391327 -0.7844467 -1.7346191 -0.8507385q-1.2263947 -0.121536255 -2.1102753 0.7623482q-0.7955017 0.7954941 -0.8065491 1.8893013q-0.011047363 1.0717087 0.8286438 2.021885zm14.971298 -6.817459l-0.8617859 -0.8617859q0.37564087 1.65728 -0.8949585 2.927864q-0.8175659 0.8175926 -1.9555664 1.0496101q-1.1380157 0.23202133 -2.3202057 -0.19887161q-1.18219 -0.43089676 -2.2318115 -1.4805069q-1.0275116 -1.0275154 -1.5136414 -2.198658q-0.49719238 -1.1821976 -0.26516724 -2.2980995q0.24307251 -1.1269493 1.093811 -1.9776878q0.6187134 -0.618721 1.358963 -0.82864q0.74024963 -0.23202133 1.4584045 -0.11048508l-3.3918915 -3.3919048l1.1600952 -1.1600971l9.446487 9.4465065l-1.0827332 1.082756zm-7.0710754 0.2430687q1.3147736 1.3147736 2.5190582 1.4142113q1.2042999 0.09943771 1.9556122 -0.6518631q0.7623291 -0.7623482 0.6739502 -1.911396q-0.09942627 -1.160099 -1.3700256 -2.4306831q-1.4031677 -1.4031639 -2.596405 -1.513649q-1.2042847 -0.12153244 -1.9997864 0.67396164q-0.76234436 0.7623482 -0.6518707 1.911396q0.11048889 1.1490517 1.4694672 2.5080223z" fill-rule="nonzero"/><path fill="#000000" fill-opacity="0.0" d="m154.47142 140.70955l251.96849 -251.9685l28.283478 28.283463l-251.9685 251.9685z" fill-rule="evenodd"/><path fill="#000000" d="m178.2351 150.92773l0.9722748 -1.3258362q0.7733917 0.59661865 1.5909882 0.5303345q0.8065338 -0.0773468 1.6020355 -0.87283325q0.79548645 -0.7955017 0.8617859 -1.5026093q0.055236816 -0.7181549 -0.3867035 -1.1600952q-0.3867035 -0.38668823 -0.9612274 -0.2762146q-0.38668823 0.0773468 -1.5688934 0.7955017q-1.6130829 0.95018005 -2.3422852 1.215332q-0.7181549 0.25411987 -1.381073 0.09944153q-0.6739502 -0.16572571 -1.18219 -0.67396545q-0.45298767 -0.45298767 -0.62976074 -1.0496063q-0.1878357 -0.607666 -0.0773468 -1.2263947q0.06629944 -0.46403503 0.39775085 -1.0606537q0.33145142 -0.6187134 0.8617859 -1.1490479q0.8065491 -0.8065491 1.6462402 -1.18219q0.8396759 -0.37565613 1.5246887 -0.26516724q0.6960602 0.09944153 1.4694519 0.65185547l-0.9833069 1.2926788q-0.6076813 -0.45298767 -1.2816315 -0.37564087q-0.6629181 0.06628418 -1.3368835 0.74024963q-0.8065338 0.8065491 -0.8838806 1.4142151q-0.06628418 0.59661865 0.28726196 0.95018005q0.22097778 0.22096252 0.54138184 0.27619934q0.33145142 0.044204712 0.76234436 -0.14363098q0.23202515 -0.09942627 1.3147736 -0.7181549q1.5578461 -0.9170227 2.2539062 -1.1932373q0.6960602 -0.2762146 1.3700256 -0.15467834q0.67396545 0.121536255 1.2705841 0.7181549q0.5855713 0.5855713 0.751297 1.4363098q0.17677307 0.83969116 -0.17677307 1.7677612q-0.36460876 0.91703796 -1.1711426 1.723587q-1.3258362 1.3258209 -2.585373 1.4804993q-1.2484741 0.14363098 -2.5301056 -0.76234436zm10.595551 -8.584732l1.1932373 0.86180115q-0.38668823 0.5855713 -0.7733917 0.9722595q-0.629776 0.629776 -1.18219 0.78445435q-0.54138184 0.14363098 -1.0054321 -0.03314209q-0.4750824 -0.1878357 -1.5136414 -1.2263947l-3.944336 -3.944336l-0.8507385 0.8507385l-0.894928 -0.894928l0.8507385 -0.8507385l-1.6904297 -1.6904297l0.45298767 -1.845108l2.3864899 2.3864899l1.1711426 -1.1711426l0.89494324 0.894928l-1.1711578 1.1711426l4.01062 4.01062q0.48614502 0.48614502 0.6850128 0.5745239q0.20993042 0.0773468 0.43089294 0.03315735q0.22097778 -0.06629944 0.48614502 -0.33146667q0.18782043 -0.18782043 0.46403503 -0.5524292zm6.6482544 -4.571121l-1.0054169 -1.0054169q0.3645935 1.9555969 -1.0054169 3.3256073q-0.607666 0.607666 -1.3700256 0.9059906q-0.751297 0.28726196 -1.358963 0.18782043q-0.607666 -0.09944153 -1.2153473 -0.50823975q-0.40879822 -0.25411987 -1.1600952 -1.0054169l-4.2315826 -4.2315826l1.1600952 -1.1601105l3.7896423 3.7896576q0.9059906 0.90597534 1.3037262 1.1490479q0.56347656 0.34249878 1.1822052 0.25411987q0.6187134 -0.088394165 1.1380005 -0.607666q0.51927185 -0.5192871 0.70710754 -1.237442q0.18782043 -0.74024963 -0.0773468 -1.381073q-0.2762146 -0.65185547 -1.1490479 -1.5246887l-3.6681213 -3.6681213l1.1600952 -1.1600952l6.8390503 6.8390503l-1.038559 1.038559zm7.2925415 -7.2925415l-0.8617859 -0.8617859q0.37565613 1.6572723 -0.894928 2.9278564q-0.81759644 0.81759644 -1.9555969 1.0496063q-1.1380005 0.23202515 -2.3201904 -0.1988678q-1.18219 -0.43089294 -2.2318115 -1.4804993q-1.0275116 -1.0275269 -1.5136414 -2.1986694q-0.49719238 -1.18219 -0.26516724 -2.2980957q0.24307251 -1.1269455 1.093811 -1.977684q0.6187134 -0.618721 1.358963 -0.8286438q0.74024963 -0.23201752 1.4584045 -0.11048126l-3.3918915 -3.3919067l1.1600952 -1.1600952l9.446503 9.446503l-1.0827637 1.0827637zm-7.07106 0.24305725q1.3147736 1.3147888 2.5190582 1.4142151q1.2042999 0.09944153 1.9555969 -0.65185547q0.76234436 -0.7623596 0.67396545 -1.9114075q-0.09944153 -1.1600952 -1.3700256 -2.4306717q-1.4031677 -1.4031677 -2.596405 -1.5136566q-1.2042847 -0.121528625 -1.9997864 0.67396545q-0.76234436 0.76234436 -0.6518707 1.9113998q0.11048889 1.1490479 1.4694672 2.5080109zm12.463257 -10.0325775l1.3368835 -1.049614q0.76234436 1.3368759 0.5855713 2.6847992q-0.1878357 1.3368683 -1.381073 2.5301132q-1.502594 1.5026016 -3.3035126 1.4694595q-1.8009186 -0.055244446 -3.4692383 -1.7235718q-1.7346344 -1.7346268 -1.8009186 -3.5686798q-0.055236816 -1.845108 1.3589783 -3.2593231q1.3700104 -1.370018 3.170929 -1.2926788q1.8009033 0.055244446 3.491333 1.7456665q0.11048889 0.11048889 0.3093567 0.30936432l-5.104416 5.1044235q1.1932373 1.0606613 2.3754272 1.0938034q1.1711426 0.022102356 2.021881 -0.82863617q0.64082336 -0.64081573 0.7623596 -1.4252625q0.11047363 -0.7954941 -0.3535614 -1.7898636zm-5.6900024 1.9334946l3.8227997 -3.8227997q-0.93911743 -0.7844467 -1.7346191 -0.8507385q-1.2263947 -0.121528625 -2.1102753 0.762352q-0.79548645 0.7954941 -0.8065338 1.8893051q-0.011047363 1.0717087 0.82862854 2.021881zm10.540817 -2.3869934l-6.839035 -6.8390503l1.038559 -1.038559l0.9722748 0.97226715q-0.37565613 -1.8782501 1.0496063 -3.3035126q0.6187134 -0.618721 1.358963 -0.91703033q0.7402649 -0.29830933 1.3589783 -0.18782043q0.6187134 0.088386536 1.2153473 0.48612976q0.38668823 0.25411987 1.1932373 1.0606613l4.209488 4.2094955l-1.1600952 1.1600952l-4.1652985 -4.1652985q-0.70710754 -0.70710754 -1.1932373 -0.905983q-0.48614502 -0.22097015 -1.0385742 -0.088386536q-0.55241394 0.13258362 -1.0164642 0.59661865q-0.74024963 0.74025726 -0.8065338 1.7567215q-0.06629944 0.9943695 1.2484741 2.309143l3.7344208 3.7344131l-1.1601105 1.1600952zm8.828293 -10.905418l1.1932526 0.8617859q-0.3867035 0.5855713 -0.773407 0.97226715q-0.62976074 0.6297684 -1.18219 0.7844467q-0.54138184 0.14363098 -1.0054169 -0.03314209q-0.4750824 -0.18782806 -1.5136566 -1.226387l-3.9443207 -3.9443283l-0.8507385 0.8507385l-0.894928 -0.8949356l0.8507385 -0.8507385l-1.6904297 -1.6904297l0.45298767 -1.8451004l2.3864899 2.3864822l1.1711426 -1.1711426l0.894928 0.894928l-1.1711426 1.1711502l4.01062 4.01062q0.48612976 0.48612976 0.6850128 0.5745239q0.20991516 0.07733917 0.43089294 0.03314209q0.22096252 -0.06629181 0.48612976 -0.33145142q0.1878357 -0.18782806 0.46403503 -0.5524292zm3.720398 3.5937424l-0.83969116 -0.83969116l7.6787415 -7.678734l0.83969116 0.83968353l-7.6787415 7.6787415zm5.7568054 -10.993805l-9.446518 -9.44651l1.1601105 -1.1600952l9.446503 9.446503l-1.1600952 1.1601028zm-0.8919678 -5.9581375q-1.9003601 -1.9003448 -1.7567291 -3.8559418q0.121536255 -1.6462326 1.3921204 -2.9168167q1.4142151 -1.4142075 3.2372284 -1.3810654q1.811966 0.022094727 3.4471436 1.65728q1.3147736 1.3147812 1.6793823 2.4748764q0.35354614 1.1490479 0.011047363 2.3312454q-0.33145142 1.1711426 -1.2263947 2.0660782q-1.4363098 1.4363098 -3.2372131 1.4031601q-1.811966 -0.044189453 -3.546585 -1.7788162zm1.1932373 -1.1932373q1.3147736 1.3147736 2.5411682 1.4142075q1.2263947 0.07733917 2.099228 -0.7954941q0.8617859 -0.8617859 0.7844391 -2.088173q-0.088378906 -1.2374344 -1.4363098 -2.5853577q-1.2705841 -1.2705841 -2.4969635 -1.3479233q-1.2263947 -0.07733917 -2.0881805 0.7844467q-0.87283325 0.87283325 -0.7955017 2.0992203q0.0773468 1.2042923 1.3921204 2.5190735zm11.955032 -10.120979l1.2926788 -0.9833145q0.98332214 1.3589706 0.8838806 2.8063278q-0.09942627 1.4252625 -1.2263794 2.5522156q-1.4031677 1.4031601 -3.170929 1.3368683q-1.7677765 -0.06629181 -3.480301 -1.7788086q-1.1159058 -1.1159058 -1.5799408 -2.3091507q-0.46403503 -1.1932449 -0.121536255 -2.3533401q0.33146667 -1.1711426 1.2153473 -2.0550308q1.1159058 -1.1158981 2.3864746 -1.2595291q1.2705841 -0.14363098 2.5080261 0.6960602l-0.9612274 1.2926788q-0.8507385 -0.5192871 -1.6020355 -0.4529953q-0.76234436 0.055244446 -1.3368683 0.6297684q-0.87283325 0.87283325 -0.7955017 2.0550308q0.0773468 1.18219 1.4363098 2.5411606q1.381073 1.381073 2.5411682 1.4805069q1.1490479 0.088386536 1.9997864 -0.76234436q0.6850128 -0.6850128 0.7181549 -1.5578461q0.044189453 -0.88388824 -0.70710754 -1.8782578zm8.264313 -4.9276505q-0.11048889 1.1932449 -0.4750824 2.0218887q-0.36460876 0.80654144 -1.0496216 1.4915543q-1.1269531 1.1269455 -2.2870483 1.18219q-1.1600952 0.055244446 -2.0108337 -0.7954941q-0.5082245 -0.5082321 -0.6850128 -1.1490479q-0.18782043 -0.6518631 -0.06628418 -1.2595367q0.121536255 -0.62976074 0.45298767 -1.226387q0.24307251 -0.41984558 0.8507385 -1.2042923q1.237442 -1.5688934 1.668335 -2.4638214q-0.23202515 -0.25411987 -0.28726196 -0.30936432q-0.70710754 -0.7070999 -1.3368835 -0.6739578q-0.82862854 0.055244446 -1.7125244 0.93912506q-0.8175812 0.81759644 -0.9170227 1.4915543q-0.09944153 0.67396545 0.43089294 1.5799408l-1.2926788 0.98332214q-0.56347656 -0.87283325 -0.6518707 -1.6683273q-0.09942627 -0.8065491 0.33146667 -1.7235794q0.43089294 -0.9170227 1.3037262 -1.7898636q0.8838806 -0.8838806 1.6351776 -1.2153397q0.751297 -0.35355377 1.3258362 -0.28726196q0.5745239 0.044197083 1.1490479 0.41984558q0.35354614 0.24307251 1.1269379 1.0164642l1.5467987 1.5467987q1.6130981 1.6130905 2.1213226 1.9666443q0.49719238 0.34249878 1.1048584 0.53032684l-1.2042999 1.2042923q-0.55241394 -0.1767807 -1.071701 -0.60767365zm-2.6958466 -2.4969711q-0.36460876 0.8949356 -1.4473572 2.3312454q-0.6187134 0.81759644 -0.78445435 1.2484894q-0.16572571 0.43089294 -0.088378906 0.83968353q0.088378906 0.39775085 0.39775085 0.70710754q0.46403503 0.46404266 1.1269379 0.41984558q0.6629181 -0.044189453 1.3368835 -0.7181549q0.66290283 -0.66291046 0.894928 -1.4694519q0.23202515 -0.8286438 -0.03314209 -1.5799484q-0.20993042 -0.5855713 -0.9722748 -1.3479156l-0.43089294 -0.43090057zm7.900223 -3.1051407l1.1932373 0.8617859q-0.38668823 0.5855713 -0.773407 0.97226715q-0.62976074 0.6297684 -1.18219 0.7844467q-0.54138184 0.14363098 -1.0054169 -0.03314209q-0.4750824 -0.18782806 -1.5136414 -1.226387l-3.944336 -3.944336l-0.8507385 0.8507385l-0.894928 -0.894928l0.8507385 -0.8507385l-1.6904297 -1.6904297l0.45298767 -1.845108l2.3864899 2.3864899l1.1711426 -1.1711502l0.894928 0.8949356l-1.1711426 1.1711426l4.01062 4.01062q0.48614502 0.4861374 0.6850128 0.5745239q0.20991516 0.0773468 0.4308777 0.03314972q0.22097778 -0.06629181 0.48614502 -0.33145905q0.1878357 -0.18782043 0.4640503 -0.55242157zm-5.936035 -8.2061l-1.3368835 -1.3368759l1.1600952 -1.160099l1.3368835 1.3368721l-1.1600952 1.1601028zm8.109619 8.109627l-6.8390503 -6.8390503l1.1601105 -1.1600952l6.839035 6.8390503l-1.1600952 1.1600952zm-0.92510986 -5.924988q-1.9003296 -1.9003448 -1.7567139 -3.8559418q0.121520996 -1.6462326 1.3921204 -2.916813q1.4142151 -1.4142151 3.2372131 -1.3810692q1.8119812 0.022098541 3.4471436 1.6572838q1.3147888 1.3147736 1.6793823 2.4748726q0.35354614 1.1490479 0.011047363 2.3312454q-0.33145142 1.1711426 -1.2263794 2.0660782q-1.4363098 1.4363098 -3.2372131 1.4031601q-1.8119812 -0.044189453 -3.5466003 -1.7788162zm1.1932373 -1.1932373q1.3147888 1.3147736 2.5411682 1.4142075q1.2264099 0.07733917 2.0992432 -0.7954941q0.8617859 -0.8617859 0.7844238 -2.088173q-0.088378906 -1.2374344 -1.4363098 -2.5853577q-1.2705688 -1.2705841 -2.4969482 -1.3479233q-1.2264099 -0.07733917 -2.0881958 0.7844467q-0.87283325 0.87283325 -0.7955017 2.0992203q0.07736206 1.2042923 1.3921204 2.5190735zm9.999451 -3.1493454l-6.8390503 -6.8390503l1.0385742 -1.0385628l0.9722595 0.9722748q-0.37564087 -1.8782539 1.0496216 -3.3035164q0.6187134 -0.6187172 1.3589478 -0.91703033q0.7402649 -0.29830933 1.3589783 -0.18782425q0.6187134 0.08839035 1.215332 0.4861374q0.38671875 0.25411606 1.1932678 1.0606575l4.2094727 4.2094955l-1.1600952 1.160099l-4.165283 -4.1653023q-0.7071228 -0.70710754 -1.1932373 -0.90597916q-0.48614502 -0.22097015 -1.0385742 -0.08839035q-0.5524292 0.13258362 -1.0164795 0.59662247q-0.7402344 0.74025345 -0.80651855 1.7567177q-0.0663147 0.9943695 1.2484741 2.309147l3.7344055 3.7344055l-1.1600952 1.160099z" fill-rule="nonzero"/><path fill="#000000" fill-opacity="0.0" d="m186.47142 140.70955l251.96849 -251.9685l28.283478 28.283463l-251.9685 251.9685z" fill-rule="evenodd"/><path fill="#000000" d="m215.36163 155.12617l-9.457565 -9.45755l1.0496216 -1.0496216l0.8838806 0.8838959q-0.14363098 -0.89494324 0.06628418 -1.6130981q0.20993042 -0.74024963 0.8838959 -1.4142151q0.87283325 -0.87283325 1.9887238 -1.0827484q1.1159058 -0.23202515 2.2870636 0.25411987q1.1600952 0.4750824 2.1434174 1.4584045q1.0496063 1.0496063 1.5136414 2.2649536q0.46403503 1.215332 0.1988678 2.3864746q-0.27619934 1.1601105 -1.071701 1.9555969q-0.5745239 0.5745239 -1.2816315 0.7955017q-0.70710754 0.22096252 -1.3700256 0.13258362l3.3256226 3.3256073l-1.1600952 1.1600952zm-4.949753 -7.0489655q1.3147736 1.3147736 2.4859161 1.4252625q1.1711578 0.088378906 1.9224548 -0.6629181q0.7733917 -0.7733917 0.67396545 -1.9776917q-0.11048889 -1.215332 -1.4805145 -2.5853577q-1.3037262 -1.3037262 -2.4969635 -1.4142151q-1.1822052 -0.121536255 -1.9335022 0.629776q-0.74024963 0.74024963 -0.6187134 2.0108337q0.121536255 1.2484741 1.4473572 2.5743103zm9.656937 -2.8952332l-6.8390503 -6.8390503l1.038559 -1.038559l1.038559 1.038559q-0.33145142 -1.1269531 -0.23200989 -1.6904297q0.11048889 -0.5745239 0.51927185 -0.9833069q0.58558655 -0.58558655 1.5688934 -0.81759644l0.67396545 1.4694519q-0.6850128 0.17677307 -1.1048584 0.59661865q-0.38668823 0.3867035 -0.45298767 0.91703796q-0.06628418 0.5303192 0.19888306 1.0606537q0.41984558 0.81759644 1.1600952 1.5578461l3.5797272 3.5797272l-1.1490479 1.1490479zm0.5481262 -7.398224q-1.9003448 -1.9003601 -1.7567139 -3.8559418q0.121536255 -1.6462402 1.3921204 -2.9168243q1.4142151 -1.4142151 3.2372131 -1.3810577q1.811966 0.022094727 3.4471436 1.6572723q1.3147888 1.3147736 1.6793823 2.474884q0.3535614 1.1490479 0.011047363 2.3312378q-0.33145142 1.1711426 -1.2263794 2.0660706q-1.4363098 1.4363098 -3.2372284 1.4031677q-1.811966 -0.044189453 -3.546585 -1.7788086zm1.1932526 -1.1932526q1.3147736 1.3147888 2.541153 1.4142151q1.2263947 0.0773468 2.099228 -0.79548645q0.8617859 -0.8617859 0.78445435 -2.0881805q-0.088394165 -1.237442 -1.4363251 -2.5853577q-1.2705688 -1.2705841 -2.4969635 -1.3479156q-1.2263947 -0.0773468 -2.0881805 0.7844391q-0.87283325 0.87283325 -0.79548645 2.099228q0.07733154 1.2042847 1.3921204 2.5190582zm10.27565 -3.4255524l-5.9441223 -5.9441147l-1.0275116 1.0275192l-0.894928 -0.8949356l1.0275116 -1.0275116l-0.7292023 -0.7292099q-0.6850128 -0.6850052 -0.9059906 -1.1490479q-0.28726196 -0.6187134 -0.14363098 -1.3147736q0.14363098 -0.6960602 0.9059906 -1.4584122q0.48612976 -0.48612976 1.1932373 -0.97226715l0.83969116 1.1932449q-0.41984558 0.28726196 -0.74024963 0.607666q-0.5303345 0.53032684 -0.5192871 0.98332214q0 0.4419403 0.6187134 1.0606613l0.629776 0.6297684l1.3368683 -1.3368759l0.89494324 0.894928l-1.3368835 1.3368759l5.9441223 5.9441147l-1.1490479 1.1490479zm5.8748474 -10.272179l1.3368835 -1.0496063q0.76234436 1.3368683 0.5855713 2.6847916q-0.18782043 1.3368759 -1.381073 2.5301208q-1.502594 1.502594 -3.3035126 1.4694519q-1.8009186 -0.055236816 -3.4692383 -1.7235718q-1.7346191 -1.7346191 -1.8009186 -3.5686798q-0.055236816 -1.845108 1.3589783 -3.2593155q1.3700104 -1.3700256 3.170929 -1.2926865q1.8009186 0.055244446 3.491333 1.7456741q0.11048889 0.11048126 0.30937195 0.3093567l-5.104431 5.104431q1.1932373 1.0606613 2.3754272 1.0938034q1.1711578 0.022094727 2.0218964 -0.8286438q0.6408081 -0.64081573 0.76234436 -1.4252625q0.11048889 -0.7954941 -0.3535614 -1.7898636zm-5.689987 1.9334946l3.8227844 -3.822792q-0.93911743 -0.7844467 -1.7346191 -0.8507385q-1.2263794 -0.121536255 -2.1102753 0.762352q-0.79548645 0.7954941 -0.8065338 1.8892975q-0.011047363 1.0717087 0.8286438 2.021881zm8.032791 -3.9669342l0.9722748 -1.3258209q0.7733917 0.59661865 1.5909882 0.53032684q0.8065491 -0.07733917 1.6020355 -0.87283325q0.7955017 -0.7954941 0.8617859 -1.5026016q0.055252075 -0.7181549 -0.38668823 -1.1600952q-0.3867035 -0.3867035 -0.9612274 -0.2762146q-0.3867035 0.07733917 -1.5688934 0.7954941q-1.6130829 0.9501724 -2.3423004 1.2153397q-0.7181549 0.25411987 -1.3810577 0.09944153q-0.67396545 -0.16573334 -1.1822052 -0.67396545q-0.45298767 -0.45298767 -0.62976074 -1.049614q-0.18782043 -0.607666 -0.07733154 -1.226387q0.06628418 -0.46403503 0.3977356 -1.0606613q0.33146667 -0.6187134 0.8617859 -1.1490479q0.8065491 -0.80654144 1.6462402 -1.18219q0.83969116 -0.37565613 1.524704 -0.26516724q0.6960449 0.0994339 1.4694519 0.6518631l-0.98332214 1.2926788q-0.607666 -0.45298767 -1.2816315 -0.3756485q-0.6629181 0.06629181 -1.3368683 0.74024963q-0.8065491 0.8065491 -0.8838959 1.4142151q-0.06628418 0.59661865 0.28726196 0.9501724q0.22097778 0.22097778 0.54138184 0.2762146q0.33146667 0.044197083 0.7623596 -0.14363098q0.23200989 -0.0994339 1.3147736 -0.7181549q1.5578461 -0.91703033 2.2539062 -1.1932373q0.6960449 -0.2762146 1.3700104 -0.15468597q0.67396545 0.121536255 1.2705841 0.7181549q0.5855713 0.5855789 0.751297 1.4363174q0.17678833 0.83968353 -0.17677307 1.7677612q-0.3645935 0.91703033 -1.1711426 1.7235718q-1.3258209 1.3258286 -2.5853577 1.4805069q-1.2484894 0.14363098 -2.5301208 -0.762352zm6.595978 -6.595978l0.9722748 -1.3258209q0.7733917 0.59661865 1.5909882 0.53032684q0.8065491 -0.07733917 1.6020355 -0.87283325q0.7955017 -0.7954941 0.8617859 -1.5026016q0.055252075 -0.7181549 -0.38668823 -1.1601028q-0.3867035 -0.38669586 -0.9612274 -0.27620697q-0.3867035 0.07733917 -1.5688934 0.7954941q-1.6130829 0.9501724 -2.3422852 1.2153397q-0.7181549 0.25411224 -1.381073 0.0994339q-0.67396545 -0.16572571 -1.18219 -0.6739578q-0.45300293 -0.4529953 -0.629776 -1.049614q-0.18782043 -0.607666 -0.07733154 -1.226387q0.06628418 -0.46404266 0.3977356 -1.0606613q0.33146667 -0.618721 0.86180115 -1.1490479q0.8065338 -0.80654144 1.646225 -1.1821976q0.83969116 -0.3756485 1.524704 -0.2651596q0.6960602 0.0994339 1.4694519 0.6518631l-0.98332214 1.2926788q-0.607666 -0.45298767 -1.2816315 -0.3756485q-0.66290283 0.06629181 -1.3368683 0.74024963q-0.8065491 0.80654144 -0.8838806 1.4142151q-0.06629944 0.59661865 0.28726196 0.9501724q0.22096252 0.22097015 0.5413666 0.2762146q0.33146667 0.044197083 0.7623596 -0.14363098q0.23200989 -0.0994339 1.3147736 -0.7181549q1.5578461 -0.91703033 2.2539062 -1.1932449q0.6960602 -0.2762146 1.3700104 -0.15467834q0.67396545 0.121536255 1.2705841 0.7181549q0.5855713 0.5855713 0.751297 1.4363098q0.17678833 0.83969116 -0.17677307 1.7677689q-0.3645935 0.91703033 -1.1711426 1.7235718q-1.3258209 1.3258286 -2.5853577 1.4805069q-1.2484894 0.14363098 -2.5301208 -0.762352zm0.9943695 -13.125671l-1.3368683 -1.3368683l1.1600952 -1.1601028l1.3368683 1.3368759l-1.1600952 1.1600952zm8.109634 8.109634l-6.8390503 -6.8390503l1.1600952 -1.1600952l6.8390503 6.8390503l-1.1600952 1.1600952zm-0.92510986 -5.924988q-1.9003448 -1.9003525 -1.7567139 -3.8559418q0.121520996 -1.6462326 1.3921051 -2.9168167q1.4142303 -1.4142151 3.2372284 -1.3810654q1.8119507 0.022094727 3.4471436 1.65728q1.3147888 1.3147812 1.6793823 2.4748764q0.35354614 1.1490479 0.011047363 2.3312378q-0.33145142 1.1711502 -1.2263794 2.0660782q-1.4363098 1.4363098 -3.2372437 1.4031677q-1.8119507 -0.044197083 -3.5465698 -1.7788162zm1.1932373 -1.1932449q1.3147888 1.3147812 2.5411682 1.4142151q1.2263794 0.07733917 2.0992126 -0.7954941q0.8617859 -0.8617859 0.78445435 -2.088173q-0.088378906 -1.237442 -1.4363098 -2.5853577q-1.2705688 -1.2705841 -2.4969788 -1.3479233q-1.2263794 -0.07733917 -2.0881653 0.7844467q-0.87283325 0.87283325 -0.79548645 2.0992203q0.07733154 1.2042923 1.3921051 2.5190659zm9.999451 -3.1493378l-6.8390503 -6.8390503l1.0385437 -1.038559l0.97229004 0.97226715q-0.37564087 -1.8782501 1.0496216 -3.3035126q0.6187134 -0.618721 1.3589478 -0.91703033q0.7402649 -0.29830933 1.3589783 -0.18782806q0.6187134 0.088394165 1.215332 0.4861374q0.38671875 0.25411987 1.1932373 1.0606613l4.209503 4.2094955l-1.1600952 1.1600952l-4.165283 -4.1652985q-0.7071228 -0.70710754 -1.1932678 -0.905983q-0.4861145 -0.22097015 -1.0385437 -0.088386536q-0.5524292 0.13258362 -1.0164795 0.59661865q-0.7402344 0.74025726 -0.8065491 1.7567215q-0.06628418 0.9943695 1.2485046 2.309143l3.7344055 3.7344131l-1.1600952 1.1600952zm10.960663 -12.640045q-0.11050415 1.1932449 -0.47509766 2.0218887q-0.3645935 0.80654144 -1.0496216 1.4915543q-1.1269531 1.1269455 -2.2870483 1.18219q-1.1600952 0.055244446 -2.0108337 -0.7954941q-0.5082092 -0.5082321 -0.68499756 -1.1490479q-0.1878357 -0.6518631 -0.06628418 -1.2595367q0.121520996 -0.6297684 0.4529724 -1.226387q0.24307251 -0.41984558 0.8507385 -1.2042923q1.2374573 -1.5688934 1.668335 -2.4638214q-0.23202515 -0.25411987 -0.28726196 -0.30936432q-0.7070923 -0.70710754 -1.3368835 -0.6739578q-0.8286133 0.055244446 -1.7125244 0.93912506q-0.8175659 0.81759644 -0.9170227 1.4915543q-0.09942627 0.6739578 0.4309082 1.5799408l-1.2926941 0.98332214q-0.56347656 -0.87283325 -0.65185547 -1.6683273q-0.09942627 -0.8065491 0.33145142 -1.7235794q0.4309082 -0.9170227 1.3037415 -1.7898636q0.8838806 -0.8838806 1.6351624 -1.2153397q0.75131226 -0.35355377 1.3258362 -0.28726196q0.5745239 0.044197083 1.1490479 0.41984558q0.35354614 0.24307251 1.1269531 1.0164642l1.5467834 1.5467987q1.6130981 1.6130905 2.121338 1.9666443q0.49719238 0.34249878 1.1048584 0.53032684l-1.2043152 1.2042923q-0.5523987 -0.1767807 -1.0716858 -0.60767365zm-2.6958618 -2.4969711q-0.3645935 0.8949356 -1.4473572 2.3312454q-0.6187134 0.8175888 -0.78445435 1.2484894q-0.16571045 0.43089294 -0.088378906 0.83968353q0.088378906 0.39775085 0.3977661 0.70710754q0.46401978 0.46404266 1.1269531 0.41984558q0.66290283 -0.044197083 1.336853 -0.7181549q0.66293335 -0.66291046 0.894928 -1.4694595q0.23202515 -0.82863617 -0.03314209 -1.5799408q-0.20993042 -0.5855713 -0.9722595 -1.3479233l-0.4309082 -0.43089294zm6.375519 0.4966812l-9.446503 -9.446503l1.1600952 -1.1601028l9.446503 9.44651l-1.1600952 1.1600952zm4.5107727 0.72623444l-0.83969116 -0.83969116l7.6787415 -7.678734l0.83969116 0.83969116l-7.6787415 7.678734zm5.7568054 -10.993805l-9.446503 -9.446503l1.1600952 -1.160099l9.446503 9.4465065l-1.1600952 1.1600952zm-0.8919678 -5.95813q-1.9003601 -1.9003525 -1.7567139 -3.8559418q0.121520996 -1.6462364 1.3921204 -2.9168205q1.4142151 -1.4142113 3.2372131 -1.3810654q1.8119507 0.022094727 3.4471436 1.65728q1.3147888 1.3147774 1.6793823 2.4748726q0.35354614 1.1490479 0.011047363 2.3312454q-0.33145142 1.1711426 -1.2263794 2.0660782q-1.4363098 1.4363098 -3.2372131 1.4031601q-1.8119812 -0.044189453 -3.5466003 -1.7788086zm1.1932373 -1.1932449q1.3147888 1.3147736 2.5411682 1.4142151q1.2263794 0.07733917 2.0992432 -0.7955017q0.8617859 -0.8617859 0.7844238 -2.088173q-0.088378906 -1.2374344 -1.4363098 -2.5853577q-1.2705688 -1.2705803 -2.4969788 -1.3479233q-1.2263794 -0.07733917 -2.0881653 0.7844467q-0.87283325 0.87283707 -0.7955017 2.099228q0.07736206 1.2042847 1.3921204 2.5190659zm11.955048 -10.1209755l1.2926636 -0.9833183q0.9833374 1.3589706 0.8838806 2.8063278q-0.09942627 1.4252625 -1.2263794 2.5522156q-1.4031677 1.4031639 -3.170929 1.3368721q-1.7677612 -0.06629181 -3.4802856 -1.7788162q-1.1159058 -1.115902 -1.579956 -2.309143q-0.46401978 -1.1932449 -0.121520996 -2.3533401q0.33145142 -1.1711464 1.215332 -2.0550308q1.1159058 -1.115902 2.3864746 -1.2595329q1.2705994 -0.14363098 2.5080261 0.6960602l-0.96121216 1.2926788q-0.8507385 -0.5192833 -1.6020508 -0.4529915q-0.7623291 0.055244446 -1.336853 0.6297684q-0.87286377 0.87283325 -0.7955017 2.055027q0.07733154 1.1821938 1.4363098 2.5411644q1.381073 1.3810692 2.5411682 1.4805069q1.1490479 0.088386536 1.9997864 -0.7623482q0.68499756 -0.6850128 0.71813965 -1.5578461q0.044189453 -0.88388443 -0.7070923 -1.8782539zm8.264313 -4.9276505q-0.11050415 1.1932449 -0.47509766 2.021885q-0.3645935 0.80654526 -1.0496216 1.4915543q-1.1269531 1.1269493 -2.2870483 1.1821938q-1.1600952 0.05524063 -2.0108337 -0.7954941q-0.50823975 -0.50823593 -0.68499756 -1.1490517q-0.1878357 -0.6518631 -0.06628418 -1.2595329q0.121520996 -0.6297684 0.4529724 -1.226387q0.24307251 -0.41984558 0.8507385 -1.2042923q1.2374573 -1.5688934 1.668335 -2.4638252q-0.23202515 -0.25411606 -0.28726196 -0.3093605q-0.7070923 -0.7071037 -1.3368835 -0.6739578q-0.8286438 0.05524063 -1.7125244 0.93912506q-0.8175659 0.8175926 -0.9170227 1.4915543q-0.09942627 0.6739578 0.4309082 1.5799408l-1.2926941 0.9833183q-0.56347656 -0.87283325 -0.65185547 -1.6683273q-0.09942627 -0.80654526 0.33145142 -1.7235756q0.4309082 -0.9170265 1.3037415 -1.7898636q0.8838806 -0.8838806 1.6351624 -1.2153397q0.75131226 -0.35355377 1.3258362 -0.28726196q0.5745239 0.044193268 1.1490479 0.41984558q0.35354614 0.2430687 1.1269531 1.0164642l1.5467834 1.5467987q1.6130981 1.6130867 2.121338 1.9666405q0.49716187 0.3425026 1.1048584 0.53033066l-1.2043152 1.2042885q-0.5524292 -0.17677689 -1.0716858 -0.60766983zm-2.6958618 -2.4969711q-0.3645935 0.8949318 -1.4473572 2.3312454q-0.6187134 0.8175926 -0.78445435 1.2484856q-0.16571045 0.43089294 -0.088378906 0.83968735q0.088378906 0.39774704 0.3977356 0.70710754q0.4640503 0.46403885 1.1269531 0.41984558q0.66293335 -0.044193268 1.3368835 -0.7181549q0.66290283 -0.6629143 0.894928 -1.4694595q0.23202515 -0.82864 -0.03314209 -1.5799408q-0.20993042 -0.5855713 -0.9722595 -1.3479195l-0.4309082 -0.43089676zm7.9002075 -3.1051445l1.1932678 0.8617859q-0.38671875 0.5855713 -0.773407 0.97227097q-0.62976074 0.6297684 -1.18219 0.7844467q-0.54138184 0.14363098 -1.0054321 -0.033145905q-0.47506714 -0.18782425 -1.5136414 -1.226387l-3.944336 -3.9443321l-0.8507385 0.8507385l-0.894928 -0.8949318l0.8507385 -0.8507385l-1.6904297 -1.6904259l0.45300293 -1.845108l2.3864746 2.386486l1.1711426 -1.1711464l0.894928 0.8949318l-1.1711426 1.1711464l4.01062 4.01062q0.48614502 0.4861374 0.6850281 0.5745239q0.2098999 0.07734299 0.4308777 0.033145905q0.22097778 -0.06629181 0.48614502 -0.33145523q0.1878357 -0.18782425 0.46401978 -0.5524254zm-5.936035 -8.2061l-1.336853 -1.3368759l1.1600952 -1.1600952l1.3368835 1.3368721l-1.1601257 1.160099zm8.10965 8.109631l-6.8390503 -6.8390503l1.1600952 -1.1600952l6.8390503 6.8390465l-1.1600952 1.160099zm-0.92510986 -5.924988q-1.9003601 -1.9003487 -1.7567139 -3.8559418q0.121520996 -1.6462326 1.3921204 -2.9168167q1.4142151 -1.4142113 3.2372131 -1.3810654q1.8119507 0.022094727 3.4471436 1.65728q1.3147888 1.3147774 1.6793823 2.4748726q0.35354614 1.1490517 0.011047363 2.3312454q-0.33145142 1.1711426 -1.2263794 2.0660744q-1.4363098 1.4363136 -3.2372437 1.4031677q-1.8119507 -0.044193268 -3.5465698 -1.7788162zm1.1932373 -1.1932411q1.3147888 1.3147736 2.5411682 1.4142113q1.2263794 0.07733917 2.0992126 -0.7954941q0.8617859 -0.8617859 0.78445435 -2.0881767q-0.088378906 -1.2374344 -1.4363098 -2.5853577q-1.2705688 -1.2705841 -2.4969788 -1.3479233q-1.2263794 -0.07733917 -2.0881653 0.7844467q-0.87283325 0.87283707 -0.7955017 2.099224q0.07733154 1.2042923 1.3921204 2.5190697zm9.999451 -3.1493454l-6.8390503 -6.8390465l1.0385437 -1.0385628l0.97229004 0.97227097q-0.3756714 -1.878252 1.0495911 -3.3035145q0.6187439 -0.6187191 1.3589783 -0.9170284q0.7402649 -0.29831123 1.3589783 -0.18782616q0.6187134 0.08838844 1.215332 0.48613548q0.38671875 0.25411797 1.1932373 1.0606613l4.209503 4.2094955l-1.1600952 1.1600971l-4.1653137 -4.1653023q-0.7070923 -0.70710564 -1.1932373 -0.90597916q-0.4861145 -0.22097206 -1.0385437 -0.08838844q-0.5524292 0.13258171 -1.0164795 0.59662056q-0.7402649 0.74025345 -0.8065491 1.7567177q-0.06628418 0.9943695 1.2485046 2.309147l3.7344055 3.7344074l-1.1600952 1.1600952z" fill-rule="nonzero"/><path fill="#000000" fill-opacity="0.0" d="m218.47142 140.70955l251.96849 -251.9685l28.283478 28.283463l-251.9685 251.9685z" fill-rule="evenodd"/><path fill="#000000" d="m246.23468 148.939l1.1932373 0.8617859q-0.3867035 0.5855713 -0.7733917 0.9722595q-0.629776 0.629776 -1.1822052 0.78445435q-0.5413666 0.14363098 -1.0054169 -0.03314209q-0.4750824 -0.1878357 -1.5136414 -1.2263947l-3.944336 -3.9443207l-0.8507385 0.8507385l-0.894928 -0.89494324l0.8507385 -0.8507385l-1.6904297 -1.6904297l0.45298767 -1.8450928l2.3864899 2.3864746l1.1711426 -1.1711426l0.894928 0.894928l-1.1711426 1.1711578l4.01062 4.01062q0.48614502 0.48612976 0.6850128 0.5745239q0.20993042 0.07733154 0.43089294 0.03314209q0.22097778 -0.06629944 0.48612976 -0.33145142q0.1878357 -0.1878357 0.4640503 -0.5524292zm5.797516 -5.3997803q-0.11048889 1.1932526 -0.4750824 2.021881q-0.36460876 0.8065491 -1.0496216 1.4915619q-1.1269531 1.1269531 -2.2870483 1.18219q-1.1600952 0.055252075 -2.0108337 -0.79548645q-0.5082245 -0.50823975 -0.6850128 -1.1490479q-0.18782043 -0.6518707 -0.06628418 -1.2595367q0.121536255 -0.629776 0.45298767 -1.2263947q0.24307251 -0.41984558 0.8507385 -1.2042847q1.237442 -1.5688934 1.668335 -2.4638367q-0.23202515 -0.2541046 -0.28726196 -0.3093567q-0.70710754 -0.70710754 -1.3368835 -0.6739502q-0.8286438 0.055236816 -1.7125244 0.93911743q-0.8175812 0.81759644 -0.9170227 1.4915619q-0.09944153 0.6739502 0.43089294 1.5799408l-1.2926788 0.98332214q-0.56347656 -0.8728485 -0.6518707 -1.668335q-0.09942627 -0.8065491 0.33146667 -1.7235718q0.43089294 -0.91703796 1.3037262 -1.7898712q0.8838806 -0.8838806 1.6351776 -1.215332q0.751297 -0.3535614 1.3258209 -0.28726196q0.5745239 0.044189453 1.1490479 0.41984558q0.3535614 0.24305725 1.1269531 1.0164642l1.5467987 1.5467987q1.6130829 1.6130829 2.1213226 1.966629q0.49719238 0.34251404 1.1048584 0.5303345l-1.2042999 1.2042999q-0.5524292 -0.17678833 -1.071701 -0.6076813zm-2.6958466 -2.4969635q-0.36460876 0.894928 -1.4473572 2.3312378q-0.6187134 0.81759644 -0.78445435 1.2484894q-0.16572571 0.43089294 -0.088378906 0.83969116q0.088378906 0.39775085 0.39775085 0.70710754q0.46403503 0.46403503 1.1269379 0.41984558q0.6629181 -0.044204712 1.3368835 -0.7181549q0.66290283 -0.6629181 0.894928 -1.4694672q0.23202515 -0.82862854 -0.03314209 -1.5799408q-0.20993042 -0.5855713 -0.9722748 -1.3479156l-0.43089294 -0.43089294zm6.751175 1.2479706l1.2926636 -0.96121216q0.607666 0.45298767 1.1600952 0.3645935q0.75131226 -0.11048889 1.5026245 -0.8617859q0.80651855 -0.8065491 0.9170227 -1.5578461q0.121520996 -0.76234436 -0.29830933 -1.4915466q-0.26516724 -0.4419403 -1.4142151 -1.5688934q0.14361572 1.646225 -0.99438477 2.7842255q-1.4142151 1.4142151 -3.204071 1.1711426q-1.789856 -0.24305725 -3.2151184 -1.6683197q-0.98332214 -0.98332214 -1.4584198 -2.165512q-0.46403503 -1.1932526 -0.24305725 -2.2980957q0.22096252 -1.1269531 1.1380005 -2.043991q1.2042847 -1.2042847 2.9609985 -1.0164642l-0.8175812 -0.81759644l1.071701 -1.071701l5.91098 5.910965q1.6020203 1.6020355 1.9335022 2.596405q0.34249878 0.98332214 0.022094727 2.0771332q-0.3093567 1.0827637 -1.3479309 2.1213226q-1.215332 1.215332 -2.5301208 1.4252625q-1.2926636 0.20991516 -2.3864746 -0.9280853zm-3.1488495 -5.071274q1.3479309 1.3479156 2.4969788 1.4363098q1.1601105 0.07733154 1.966629 -0.7292023q0.7955017 -0.7955017 0.7292175 -1.9445496q-0.07733154 -1.1600952 -1.3921204 -2.4748688q-1.2595367 -1.2595367 -2.452774 -1.3258209q-1.1932373 -0.088394165 -1.9776917 0.6960449q-0.7733917 0.773407 -0.6850128 1.9445496q0.0773468 1.1600952 1.3147736 2.3975372zm11.689865 0.64030457l-0.83969116 -0.83969116l7.6787415 -7.6787415l0.83969116 0.83969116l-7.6787415 7.6787415zm3.2819214 -12.606895l0.97229004 -1.3258209q0.77337646 0.59661865 1.5909729 0.53032684q0.8065491 -0.07733917 1.6020508 -0.87283325q0.7955017 -0.7954941 0.8617859 -1.5026016q0.055236816 -0.7181549 -0.38668823 -1.1600952q-0.38671875 -0.3867035 -0.9612427 -0.2762146q-0.38668823 0.07733917 -1.5688782 0.7954941q-1.6130981 0.9501724 -2.3422852 1.2153397q-0.71817017 0.25411224 -1.381073 0.0994339q-0.6739807 -0.16572571 -1.18219 -0.6739578q-0.45300293 -0.4529953 -0.62979126 -1.049614q-0.18780518 -0.607666 -0.07733154 -1.226387q0.06628418 -0.46404266 0.3977356 -1.0606613q0.33148193 -0.618721 0.8617859 -1.1490479q0.8065491 -0.80654144 1.6462402 -1.1821976q0.83969116 -0.3756485 1.5247192 -0.2651596q0.6960449 0.0994339 1.4694519 0.6518631l-0.9833374 1.2926788q-0.607666 -0.45298767 -1.2816162 -0.3756485q-0.66293335 0.06629181 -1.3368835 0.74024963q-0.8065491 0.80654144 -0.8838806 1.4142151q-0.06628418 0.59661865 0.28726196 0.9501724q0.22097778 0.22097015 0.54138184 0.2762146q0.33145142 0.044197083 0.7623596 -0.14363098q0.23199463 -0.0994339 1.3147583 -0.7181549q1.5578613 -0.91703033 2.2539062 -1.1932449q0.69607544 -0.2762146 1.3700256 -0.15467834q0.6739502 0.121536255 1.2705688 0.7181549q0.5855713 0.5855713 0.75131226 1.4363098q0.17678833 0.83969116 -0.17678833 1.7677689q-0.3645935 0.91703033 -1.1711426 1.7235718q-1.3258057 1.3258286 -2.5853577 1.4805069q-1.2484741 0.14363098 -2.5301208 -0.762352zm0.99438477 -13.125671l-1.3368835 -1.3368683l1.1600952 -1.1601028l1.3368835 1.3368759l-1.1600952 1.1600952zm8.109619 8.109634l-6.8390503 -6.8390503l1.1600952 -1.1600952l6.8390503 6.8390503l-1.1600952 1.1600952zm2.9308472 -2.930832l-6.8390503 -6.8390503l1.0385437 -1.038559l0.9612427 0.9612198q-0.1878357 -0.82863617 0.044189453 -1.65728q0.23202515 -0.8507385 0.90597534 -1.5246964q0.7623596 -0.762352 1.5689087 -0.9280777q0.7954712 -0.1767807 1.5578308 0.18782043q-0.37564087 -2.0108337 0.9170227 -3.3035126q1.0275269 -1.0275116 2.1323853 -1.0054169q1.1159058 0.011047363 2.2870483 1.1821976l4.6956177 4.6956253l-1.1600952 1.1600952l-4.3089294 -4.3089294q-0.6960449 -0.6960602 -1.1048584 -0.8838806q-0.41983032 -0.19887543 -0.90597534 -0.088386536q-0.48614502 0.11048126 -0.8838806 0.5082321q-0.71817017 0.7181549 -0.7071228 1.6793747q0 0.9501724 1.0496216 1.9997864l3.977478 3.977478l-1.1600952 1.1600952l-4.4415283 -4.441513q-0.77337646 -0.77339935 -1.4473572 -0.87283325q-0.6739502 -0.09944153 -1.3147583 0.5413742q-0.48614502 0.4861374 -0.651886 1.1601028q-0.16571045 0.6739578 0.14364624 1.3589706q0.32040405 0.6739578 1.2595215 1.6130829l3.5466003 3.546585l-1.1600952 1.1600952zm2.879364 -19.09864l-1.3368835 -1.3368683l1.1600952 -1.1601028l1.3368835 1.3368759l-1.1600952 1.1600952zm8.109619 8.109634l-6.83902 -6.8390503l1.1600952 -1.1600952l6.8390503 6.8390503l-1.1601257 1.1600952zm2.897705 -2.8976822l-9.446503 -9.44651l1.1600952 -1.1600952l9.446503 9.446503l-1.1600952 1.1601028zm6.5878906 -8.267281q-0.11047363 1.1932449 -0.47509766 2.021881q-0.3645935 0.8065491 -1.0495911 1.4915543q-1.1269531 1.1269531 -2.2870483 1.1821976q-1.1600952 0.055236816 -2.0108337 -0.7954941q-0.50823975 -0.50823975 -0.6850281 -1.1490555q-0.18780518 -0.6518631 -0.06628418 -1.2595291q0.12155151 -0.6297684 0.45300293 -1.226387q0.24307251 -0.41984558 0.8507385 -1.2042923q1.2374268 -1.5688934 1.6683044 -2.463829q-0.23199463 -0.25411224 -0.28726196 -0.3093567q-0.7070923 -0.70710754 -1.336853 -0.6739578q-0.8286438 0.055236816 -1.7125244 0.93912506q-0.81759644 0.8175888 -0.9170227 1.4915543q-0.09945679 0.6739578 0.4308777 1.5799408l-1.2926636 0.9833145q-0.56347656 -0.87283325 -0.651886 -1.6683273q-0.09942627 -0.80654144 0.33145142 -1.7235718q0.4309082 -0.91703033 1.3037415 -1.7898636q0.8838806 -0.8838806 1.6351929 -1.2153397q0.75128174 -0.35355377 1.3258057 -0.28726196q0.5745239 0.044189453 1.1490479 0.41984558q0.35357666 0.24306488 1.1269531 1.0164642l1.546814 1.5467987q1.6130676 1.6130829 2.1213074 1.9666367q0.49719238 0.3425064 1.1048584 0.5303345l-1.2042847 1.2042847q-0.5524292 -0.17677307 -1.0717163 -0.607666zm-2.6958313 -2.4969711q-0.36462402 0.8949356 -1.4473572 2.3312454q-0.6187439 0.8175888 -0.78445435 1.2484818q-0.16574097 0.43089294 -0.088378906 0.83969116q0.088378906 0.39774323 0.3977356 0.70710754q0.4640503 0.46403503 1.1269531 0.41984558q0.66290283 -0.044197083 1.3368835 -0.7181549q0.66290283 -0.6629181 0.894928 -1.4694595q0.23199463 -0.8286438 -0.03314209 -1.5799408q-0.20993042 -0.5855713 -0.97229004 -1.3479233l-0.4308777 -0.43089294zm6.3976135 0.47457886l-6.8390503 -6.8390503l1.0385437 -1.038559l1.0385742 1.038559q-0.33145142 -1.1269455 -0.23202515 -1.690422q0.11050415 -0.5745239 0.5192871 -0.98332214q0.5855713 -0.5855713 1.5688782 -0.8175888l0.6739807 1.4694519q-0.6850281 0.1767807 -1.1048584 0.59661865q-0.38668823 0.3867035 -0.45300293 0.91703033q-0.06628418 0.5303345 0.19888306 1.0606613q0.41986084 0.81759644 1.1600952 1.5578461l3.5797424 3.5797272l-1.1490479 1.1490479zm-3.7055664 -12.513702l-1.3368835 -1.3368759l1.1600952 -1.1600952l1.3368835 1.3368759l-1.1600952 1.1600952zm8.109619 8.109627l-6.8390503 -6.8390427l1.1600952 -1.1601028l6.8390503 6.8390503l-1.1600952 1.1600952zm4.422394 -6.4995117l1.1932373 0.8617859q-0.38668823 0.5855789 -0.77337646 0.9722748q-0.62979126 0.6297684 -1.1822205 0.7844467q-0.5413513 0.14363098 -1.0054016 -0.03314209q-0.47509766 -0.18782806 -1.5136414 -1.2263947l-3.944336 -3.9443283l-0.8507385 0.8507385l-0.894928 -0.894928l0.8507385 -0.8507385l-1.6904297 -1.6904297l0.4529724 -1.845108l2.3865051 2.3864899l1.1711426 -1.1711502l0.894928 0.8949356l-1.1711426 1.1711426l4.01062 4.01062q0.48614502 0.4861374 0.68499756 0.5745239q0.20993042 0.07733917 0.4309082 0.03314972q0.22097778 -0.06629181 0.4861145 -0.33145905q0.1878357 -0.18782043 0.4640503 -0.5524292zm4.7478943 2.5883331l-1.215332 -0.95018005q0.48614502 -0.28726196 0.7623596 -0.56347656q0.38668823 -0.38669586 0.48614502 -0.751297q0.11047363 -0.35355377 0.03314209 -0.74025726q-0.0663147 -0.28726196 -0.50823975 -1.2153397q-0.06628418 -0.13257599 -0.1878357 -0.38669586l-9.446503 -4.2536926l1.2485046 -1.2484818l5.380615 2.5301132q1.0385742 0.4861374 2.0881958 1.093811q-0.59661865 -0.9943695 -1.0827637 -2.032936l-2.5190735 -5.4579773l1.1600952 -1.1600952l4.3420715 9.556984q0.71817017 1.5578461 0.90600586 2.2097092q0.26513672 0.88388824 0.13256836 1.5467987q-0.13256836 0.66291046 -0.68499756 1.2153397q-0.3425293 0.3425064 -0.8949585 0.60767365z" fill-rule="nonzero"/><path fill="#000000" fill-opacity="0.0" d="m130.47244 192.07611l228.18896 0" fill-rule="evenodd"/><path stroke="#000000" stroke-width="1.0" stroke-linejoin="round" stroke-linecap="butt" d="m130.47244 192.07611l228.18896 0" fill-rule="evenodd"/><path fill="#000000" fill-opacity="0.0" d="m130.47244 224.07611l228.18896 0" fill-rule="evenodd"/><path stroke="#000000" stroke-width="1.0" stroke-linejoin="round" stroke-linecap="butt" d="m130.47244 224.07611l228.18896 0" fill-rule="evenodd"/><path fill="#000000" fill-opacity="0.0" d="m130.47244 256.0761l228.18896 0" fill-rule="evenodd"/><path stroke="#000000" stroke-width="1.0" stroke-linejoin="round" stroke-linecap="butt" d="m130.47244 256.0761l228.18896 0" fill-rule="evenodd"/><path fill="#000000" fill-opacity="0.0" d="m130.47244 288.0761l228.18896 0" fill-rule="evenodd"/><path stroke="#000000" stroke-width="1.0" stroke-linejoin="round" stroke-linecap="butt" d="m130.47244 288.0761l228.18896 0" fill-rule="evenodd"/><path fill="#000000" fill-opacity="0.0" d="m130.47244 320.0761l228.18896 0" fill-rule="evenodd"/><path stroke="#000000" stroke-width="1.0" stroke-linejoin="round" stroke-linecap="butt" d="m130.47244 320.0761l228.18896 0" fill-rule="evenodd"/><path fill="#000000" fill-opacity="0.0" d="m130.47244 352.0761l228.18896 0" fill-rule="evenodd"/><path stroke="#000000" stroke-width="1.0" stroke-linejoin="round" stroke-linecap="butt" d="m130.47244 352.0761l228.18896 0" fill-rule="evenodd"/><path fill="#000000" fill-opacity="0.0" d="m130.47244 384.0761l228.18896 0" fill-rule="evenodd"/><path stroke="#000000" stroke-width="1.0" stroke-linejoin="round" stroke-linecap="butt" d="m130.47244 384.0761l228.18896 0" fill-rule="evenodd"/><path fill="#000000" fill-opacity="0.0" d="m130.47244 416.0761l228.18896 0" fill-rule="evenodd"/><path stroke="#000000" stroke-width="1.0" stroke-linejoin="round" stroke-linecap="butt" d="m130.47244 416.0761l228.18896 0" fill-rule="evenodd"/><path fill="#000000" fill-opacity="0.0" d="m250.47142 140.70955l251.96849 -251.9685l28.283478 28.283463l-251.9685 251.9685z" fill-rule="evenodd"/><path fill="#000000" d="m283.71475 150.77304l-3.3477173 -3.347702q0.12155151 0.6518707 -0.11047363 1.3921204q-0.24307251 0.7292023 -0.7955017 1.2816315q-1.215332 1.215332 -3.0715027 1.1269531q-1.8450928 -0.09944153 -3.5355225 -1.7898712q-1.0385742 -1.038559 -1.502594 -2.2097015q-0.45300293 -1.1822052 -0.19888306 -2.276001q0.26516724 -1.1048584 1.0717163 -1.9114075q1.2705688 -1.2705841 3.0715027 -0.92807007l-0.9170532 -0.91703796l1.0385742 -1.038559l9.45755 9.45755l-1.1600952 1.1600952zm-9.623291 -2.4859161q1.3147888 1.3147736 2.5301208 1.4252625q1.215332 0.11048889 1.988739 -0.6629181q0.7402649 -0.74024963 0.6408081 -1.9003448q-0.088378906 -1.1711426 -1.3699951 -2.452774q-1.3700256 -1.3700256 -2.6185303 -1.4915466q-1.2484741 -0.121536255 -2.0108337 0.6408081q-0.75128174 0.751297 -0.6408081 1.9224396q0.12155151 1.1601105 1.4804993 2.5190735zm14.463074 -7.590851l-1.0054321 -1.0054169q0.3645935 1.9555817 -1.0054016 3.3256073q-0.60769653 0.607666 -1.3700256 0.90597534q-0.75131226 0.28726196 -1.3589783 0.1878357q-0.607666 -0.09944153 -1.215332 -0.50823975q-0.40881348 -0.25411987 -1.1600952 -1.0054169l-4.231598 -4.231598l1.1600952 -1.1600952l3.7896423 3.7896576q0.90597534 0.90597534 1.3037415 1.1490479q0.56347656 0.34249878 1.18219 0.25411987q0.6187134 -0.088394165 1.1380005 -0.6076813q0.5192871 -0.51927185 0.7070923 -1.2374268q0.1878357 -0.74024963 -0.07733154 -1.381073q-0.2762146 -0.6518707 -1.1490479 -1.524704l-3.6681213 -3.668106l1.1600952 -1.1600952l6.8390503 6.839035l-1.0385437 1.0385742zm5.347992 -9.745331l1.3368835 -1.0496063q0.7623291 1.3368683 0.5855713 2.6847992q-0.1878357 1.3368683 -1.381073 2.5301056q-1.502594 1.5026093 -3.3035278 1.4694672q-1.8009033 -0.055252075 -3.4692383 -1.7235718q-1.7346191 -1.7346191 -1.8009033 -3.5686798q-0.055236816 -1.845108 1.3589783 -3.2593231q1.3699951 -1.370018 3.170929 -1.2926788q1.8009033 0.055236816 3.491333 1.7456665q0.11047363 0.11048889 0.3093567 0.3093567l-5.104431 5.104431q1.1932373 1.0606537 2.3754272 1.093811q1.1711731 0.022094727 2.021881 -0.8286438q0.6408386 -0.64082336 0.7623596 -1.4252625q0.11050415 -0.7955017 -0.35354614 -1.7898712zm-5.6900024 1.9335022l3.8227844 -3.8227997q-0.93911743 -0.7844391 -1.7346191 -0.8507385q-1.2263794 -0.121536255 -2.11026 0.76234436q-0.7955017 0.7955017 -0.8065491 1.8893127q-0.011047363 1.071701 0.8286438 2.021881zm8.032806 -3.9669342l0.9722595 -1.3258286q0.773407 0.5966263 1.5910034 0.53032684q0.8065491 -0.07733154 1.6020203 -0.87283325q0.7955017 -0.7954941 0.8617859 -1.5026016q0.055267334 -0.7181549 -0.38668823 -1.1600952q-0.38668823 -0.38669586 -0.96121216 -0.2762146q-0.38671875 0.07733917 -1.5689087 0.7954941q-1.6130981 0.95018005 -2.3422852 1.2153397q-0.71817017 0.25411987 -1.381073 0.09944153q-0.6739502 -0.16573334 -1.18219 -0.67396545q-0.45300293 -0.45298767 -0.62976074 -1.0496063q-0.1878357 -0.60767365 -0.07736206 -1.2263947q0.0663147 -0.46403503 0.3977661 -1.0606537q0.33145142 -0.618721 0.8617859 -1.1490555q0.8065491 -0.80654144 1.6462402 -1.18219q0.83969116 -0.3756485 1.5246887 -0.26516724q0.6960449 0.09944153 1.4694519 0.6518631l-0.9833069 1.2926788q-0.607666 -0.45298767 -1.2816467 -0.3756485q-0.66290283 0.06629181 -1.336853 0.74024963q-0.8065491 0.8065491 -0.88391113 1.4142151q-0.06628418 0.5966263 0.28726196 0.95018005q0.22097778 0.22097015 0.54138184 0.27620697q0.33145142 0.044197083 0.7623596 -0.14363098q0.23202515 -0.0994339 1.3147888 -0.7181549q1.5578308 -0.9170227 2.2538757 -1.1932373q0.69607544 -0.2762146 1.3700256 -0.15467834q0.6739807 0.121528625 1.2705994 0.7181549q0.5855713 0.5855713 0.75128174 1.4363098q0.17678833 0.83968353 -0.17675781 1.7677612q-0.36462402 0.91703033 -1.1711426 1.7235794q-1.3258362 1.3258209 -2.5853577 1.4804993q-1.2485046 0.14363098 -2.5301208 -0.76234436zm10.595551 -8.584724l1.1932373 0.8617859q-0.38668823 0.5855789 -0.773407 0.9722748q-0.62976074 0.6297684 -1.18219 0.7844467q-0.54138184 0.14363098 -1.0054016 -0.03314209q-0.47509766 -0.18782806 -1.5136719 -1.2263947l-3.9443054 -3.9443283l-0.8507385 0.8507385l-0.8949585 -0.894928l0.8507385 -0.8507385l-1.6904297 -1.6904297l0.45300293 -1.845108l2.3864746 2.3864899l1.1711731 -1.1711502l0.894928 0.8949356l-1.1711426 1.1711426l4.01062 4.01062q0.4861145 0.4861374 0.68499756 0.5745239q0.20993042 0.07733917 0.4308777 0.03314972q0.22097778 -0.06629181 0.48614502 -0.33145905q0.1878357 -0.18782043 0.4640503 -0.5524292zm-5.936035 -8.2061l-1.3368835 -1.3368683l1.1600952 -1.1601028l1.3368835 1.3368759l-1.1600952 1.1600952zm8.109619 8.109634l-6.8390503 -6.8390503l1.1600952 -1.1600952l6.8390503 6.8390503l-1.1600952 1.1600952zm-0.92510986 -5.924988q-1.9003296 -1.9003448 -1.7567139 -3.8559418q0.121520996 -1.6462326 1.3921204 -2.9168167q1.4142151 -1.4142151 3.2372131 -1.3810654q1.8119812 0.022094727 3.4471436 1.65728q1.3147888 1.3147812 1.6793823 2.4748764q0.35354614 1.1490479 0.011047363 2.3312378q-0.33145142 1.1711502 -1.2263794 2.0660782q-1.4363098 1.4363098 -3.2372131 1.4031677q-1.8119812 -0.044197083 -3.5466003 -1.7788162zm1.1932373 -1.1932449q1.3147888 1.3147812 2.5411682 1.4142151q1.2264099 0.07733917 2.0992432 -0.7954941q0.8617859 -0.8617859 0.7844238 -2.088173q-0.088378906 -1.2374344 -1.4363098 -2.5853577q-1.2705688 -1.2705841 -2.4969482 -1.3479233q-1.2264099 -0.07733917 -2.0881958 0.7844467q-0.87283325 0.87283325 -0.7955017 2.0992203q0.07736206 1.2042923 1.3921204 2.5190659zm9.999451 -3.1493378l-6.8390503 -6.8390503l1.0385742 -1.038559l0.9722595 0.97226715q-0.37564087 -1.8782501 1.0496216 -3.3035126q0.6187134 -0.618721 1.3589783 -0.91703033q0.7402344 -0.29830933 1.3589478 -0.18782806q0.6187134 0.088394165 1.2153625 0.4861374q0.38668823 0.25411987 1.1932373 1.0606613l4.2094727 4.2094955l-1.1600952 1.1600952l-4.165283 -4.1652985q-0.7071228 -0.70710754 -1.1932373 -0.905983q-0.48614502 -0.22097015 -1.0385742 -0.088386536q-0.5524292 0.13258362 -1.0164795 0.59661865q-0.7402344 0.74025726 -0.80651855 1.7567215q-0.0663147 0.9943695 1.2484741 2.309143l3.7344055 3.7344131l-1.1600952 1.1600952zm8.883545 -3.6465302l-0.83969116 -0.83968353l7.6787415 -7.6787415l0.83969116 0.83969116l-7.6787415 7.678734zm9.413849 -16.330254q-0.11047363 1.1932449 -0.47506714 2.0218887q-0.36462402 0.80654144 -1.0496216 1.4915466q-1.1269531 1.1269531 -2.2870483 1.1821976q-1.1600952 0.055244446 -2.0108337 -0.7954941q-0.50823975 -0.5082321 -0.6850281 -1.1490479q-0.18780518 -0.6518631 -0.06628418 -1.2595367q0.12155151 -0.6297684 0.45300293 -1.226387q0.24307251 -0.41984558 0.8507385 -1.2042923q1.2374268 -1.5688934 1.668335 -2.4638214q-0.23202515 -0.25411987 -0.28726196 -0.30936432q-0.7071228 -0.70710754 -1.3368835 -0.6739578q-0.8286438 0.055244446 -1.7125244 0.93912506q-0.81759644 0.8175888 -0.9170227 1.4915543q-0.09945679 0.6739578 0.4308777 1.5799408l-1.2926636 0.98332214q-0.56347656 -0.87283325 -0.651886 -1.668335q-0.09942627 -0.80654144 0.33148193 -1.7235718q0.4308777 -0.91703033 1.3037109 -1.7898636q0.8838806 -0.8838806 1.6351929 -1.2153397q0.75131226 -0.35355377 1.3258362 -0.28726196q0.5745239 0.044197083 1.1490479 0.41984558q0.35354614 0.24306488 1.1269531 1.0164642l1.5467834 1.5467987q1.6130981 1.6130905 2.1213074 1.9666367q0.49719238 0.3425064 1.1048584 0.5303345l-1.2042847 1.2042923q-0.5524292 -0.1767807 -1.0717163 -0.60767365zm-2.6958313 -2.4969711q-0.3645935 0.8949356 -1.4473572 2.3312454q-0.6187134 0.8175888 -0.78445435 1.2484818q-0.16574097 0.43089294 -0.088378906 0.83969116q0.088378906 0.39775085 0.3977356 0.70710754q0.4640503 0.46404266 1.1269531 0.41984558q0.66290283 -0.044197083 1.3368835 -0.7181549q0.66290283 -0.66291046 0.894928 -1.4694595q0.23202515 -0.82863617 -0.03314209 -1.5799408q-0.20993042 -0.5855713 -0.97229004 -1.3479233l-0.4308777 -0.43089294zm10.839111 -3.9669342l-0.8617859 -0.8617859q0.3756714 1.65728 -0.894928 2.927864q-0.81759644 0.81759644 -1.9555969 1.049614q-1.1380005 0.23201752 -2.3201904 -0.19887543q-1.18219 -0.43089294 -2.2318115 -1.4805069q-1.0274963 -1.0275116 -1.5136414 -2.1986542q-0.49719238 -1.1821976 -0.26516724 -2.2981033q0.24307251 -1.1269455 1.093811 -1.977684q0.6187134 -0.618721 1.3589783 -0.8286438q0.7402344 -0.23201752 1.4584045 -0.11048126l-3.3919067 -3.3919067l1.1600952 -1.1600952l9.446503 9.446503l-1.0827637 1.082756zm-7.071045 0.24307251q1.3147583 1.3147736 2.519043 1.4142075q1.2043152 0.09944153 1.9555969 -0.6518631q0.7623596 -0.76234436 0.6739807 -1.9113922q-0.09945679 -1.1601028 -1.3700256 -2.4306793q-1.4031677 -1.4031677 -2.596405 -1.5136566q-1.2042847 -0.121528625 -1.9997864 0.67396545q-0.7623596 0.76234436 -0.651886 1.9113998q0.11050415 1.1490479 1.4694824 2.5080185zm14.407806 -7.579811l-0.8617859 -0.8617859q0.37564087 1.65728 -0.894928 2.927864q-0.81759644 0.8175888 -1.9555969 1.049614q-1.1380005 0.23201752 -2.3201904 -0.19887543q-1.1822205 -0.43089294 -2.2318115 -1.4805069q-1.0275269 -1.0275116 -1.5136719 -2.1986618q-0.49716187 -1.18219 -0.26513672 -2.2980957q0.24304199 -1.1269531 1.0937805 -1.977684q0.6187439 -0.618721 1.3589783 -0.8286438q0.7402649 -0.23201752 1.4584045 -0.11048889l-3.3919067 -3.391899l1.1600952 -1.1600952l9.446503 9.446503l-1.0827332 1.082756zm-7.0710754 0.24307251q1.3147888 1.3147736 2.5190735 1.4142075q1.2042847 0.09944153 1.9555969 -0.6518631q0.7623291 -0.76234436 0.6739502 -1.9113998q-0.09942627 -1.1600952 -1.3700256 -2.4306793q-1.4031677 -1.4031601 -2.596405 -1.513649q-1.2042847 -0.121536255 -1.9997864 0.67396545q-0.7623596 0.76234436 -0.65185547 1.9113922q0.11047363 1.1490479 1.4694519 2.5080261zm12.463257 -10.032585l1.3368835 -1.049614q0.7623596 1.3368759 0.5855713 2.6847916q-0.1878357 1.3368759 -1.381073 2.5301208q-1.502594 1.5026016 -3.3035278 1.4694519q-1.8009033 -0.055236816 -3.4692383 -1.7235718q-1.7346191 -1.7346191 -1.8009033 -3.5686798q-0.055236816 -1.8451004 1.3589783 -3.2593193q1.3700256 -1.370018 3.170929 -1.2926788q1.8009033 0.055244446 3.491333 1.7456703q0.11050415 0.11048889 0.3093567 0.3093567l-5.104431 5.104431q1.1932678 1.0606613 2.3754578 1.0938034q1.1711426 0.022102356 2.021881 -0.82863617q0.6408081 -0.64081573 0.7623291 -1.4252625q0.11050415 -0.7954941 -0.35354614 -1.7898636zm-5.6900024 1.9334946l3.822815 -3.8227997q-0.93914795 -0.7844467 -1.7346191 -0.8507385q-1.2264099 -0.12153244 -2.1102905 0.762352q-0.7955017 0.7954941 -0.8065491 1.8892975q-0.011047363 1.0717087 0.8286438 2.0218887zm14.971283 -6.817463l-0.8617859 -0.8617859q0.3756714 1.6572838 -0.894928 2.927864q-0.81759644 0.8175926 -1.9555969 1.0496101q-1.1380005 0.23202515 -2.3201904 -0.1988678q-1.18219 -0.43089294 -2.2318115 -1.4805069q-1.0274963 -1.0275154 -1.5136414 -2.1986618q-0.49719238 -1.1821938 -0.26516724 -2.2980957q0.24307251 -1.1269531 1.093811 -1.9776917q0.6187134 -0.6187172 1.3589783 -0.82864q0.7402344 -0.23201752 1.4584045 -0.11048508l-3.3919067 -3.391903l1.1600952 -1.1600952l9.446503 9.446503l-1.0827637 1.082756zm-7.071045 0.2430687q1.3147583 1.3147774 2.519043 1.4142151q1.2043152 0.09943771 1.9555969 -0.6518631q0.7623596 -0.762352 0.6739807 -1.9113998q-0.09945679 -1.1600952 -1.3700256 -2.4306793q-1.4031677 -1.4031639 -2.596405 -1.513649q-1.2043152 -0.121536255 -1.9997864 0.67396164q-0.7623596 0.7623482 -0.651886 1.911396q0.11050415 1.1490479 1.4694824 2.5080185zm11.524109 0.5408745l-0.83966064 -0.83969116l7.678711 -7.6787376l0.83969116 0.83969116l-7.6787415 7.6787376zm10.220428 -15.45742l-0.8617859 -0.8617859q0.37564087 1.65728 -0.894928 2.927864q-0.81759644 0.8175926 -1.9555969 1.0496101q-1.1380005 0.23202133 -2.3201904 -0.19887543q-1.18219 -0.43089294 -2.2318115 -1.4805031q-1.0275269 -1.0275154 -1.5136414 -2.1986618q-0.49719238 -1.1821938 -0.26516724 -2.2980957q0.24307251 -1.1269493 1.093811 -1.9776878q0.6187134 -0.618721 1.3589478 -0.8286438q0.7402649 -0.23201752 1.4584045 -0.11048508l-3.3918762 -3.391903l1.1600952 -1.1600952l9.446503 9.446503l-1.0827637 1.0827599zm-7.0710754 0.2430687q1.3147888 1.3147736 2.5190735 1.4142113q1.2042847 0.09943771 1.9555969 -0.6518631q0.7623291 -0.7623482 0.6739502 -1.9113998q-0.09942627 -1.1600952 -1.3700256 -2.4306793q-1.4031677 -1.4031639 -2.596405 -1.513649q-1.2042847 -0.12153244 -1.9997864 0.67396164q-0.7623291 0.7623482 -0.65185547 1.911396q0.11047363 1.1490517 1.4694519 2.5080223zm13.601257 -8.452644q-0.11047363 1.1932411 -0.47506714 2.021885q-0.36462402 0.80654144 -1.0496216 1.4915504q-1.1269531 1.1269531 -2.2870483 1.1821938q-1.1600952 0.055244446 -2.0108337 -0.7954941q-0.50823975 -0.5082321 -0.68499756 -1.1490479q-0.1878357 -0.6518631 -0.0663147 -1.2595329q0.12155151 -0.6297684 0.45300293 -1.2263908q0.24307251 -0.41984177 0.8507385 -1.2042885q1.2374268 -1.5688934 1.668335 -2.4638252q-0.23202515 -0.25411606 -0.28726196 -0.3093605q-0.7071228 -0.70710754 -1.3368835 -0.67396164q-0.8286438 0.055244446 -1.7125244 0.93912506q-0.81759644 0.8175926 -0.9170227 1.4915543q-0.09945679 0.67396164 0.4308777 1.5799408l-1.2926636 0.98332214q-0.56347656 -0.87283325 -0.65185547 -1.6683311q-0.09945679 -0.80654144 0.33145142 -1.7235718q0.4308777 -0.91703033 1.3037109 -1.7898636q0.8838806 -0.88388443 1.6351929 -1.2153397q0.75131226 -0.35355377 1.3258362 -0.28726196q0.5745239 0.044193268 1.1490479 0.41984558q0.35354614 0.24306488 1.1269531 1.0164642l1.5467834 1.5467949q1.6130981 1.6130905 2.1213074 1.9666405q0.49719238 0.3425064 1.1048584 0.53033066l-1.2042847 1.2042923q-0.5524292 -0.17677689 -1.0717163 -0.60766983zm-2.6958313 -2.4969711q-0.3645935 0.8949318 -1.4473572 2.3312416q-0.6187134 0.8175926 -0.78445435 1.2484856q-0.16574097 0.43089294 -0.088378906 0.83969116q0.088378906 0.39774704 0.3977356 0.70710754q0.4640503 0.46403885 1.1269531 0.41984177q0.66290283 -0.044193268 1.3368835 -0.7181549q0.66290283 -0.66291046 0.894928 -1.4694557q0.23202515 -0.82864 -0.03314209 -1.5799408q-0.20993042 -0.5855751 -0.97229004 -1.3479233l-0.4308777 -0.43089294zm7.9002075 -3.1051483l1.1932373 0.8617859q-0.38668823 0.5855751 -0.77337646 0.9722748q-0.62979126 0.62976456 -1.1822205 0.7844429q-0.5413513 0.1436348 -1.0054016 -0.03314209q-0.47509766 -0.18782806 -1.5136414 -1.2263908l-3.944336 -3.9443283l-0.8507385 0.8507366l-0.894928 -0.8949318l0.8507385 -0.8507385l-1.6904297 -1.6904259l0.4529724 -1.845108l2.3865051 2.386486l1.1711426 -1.1711445l0.894928 0.8949318l-1.1711426 1.1711445l4.01062 4.010622q0.48614502 0.4861374 0.68499756 0.5745239q0.20993042 0.07733917 0.4309082 0.033145905q0.22097778 -0.06629181 0.48614502 -0.33145523q0.18780518 -0.18782806 0.46401978 -0.5524292zm4.6595154 -6.9797115l1.3368835 -1.049612q0.7623596 1.336874 0.5855713 2.6847973q-0.1878357 1.3368721 -1.381073 2.5301151q-1.502594 1.5026016 -3.3034973 1.4694557q-1.8009338 -0.05524254 -3.4692688 -1.7235718q-1.7346191 -1.734621 -1.8009033 -3.5686798q-0.055236816 -1.8451061 1.3589783 -3.2593193q1.3700256 -1.3700199 3.170929 -1.2926807q1.8009033 0.05524254 3.491333 1.7456703q0.11050415 0.11048508 0.3093567 0.3093586l-5.104431 5.1044273q1.1932678 1.0606613 2.3754578 1.0938053q1.1711426 0.022098541 2.021881 -0.82864q0.6408081 -0.64081573 0.7623291 -1.4252625q0.11050415 -0.7954941 -0.35354614 -1.7898636zm-5.6900024 1.9334946l3.822815 -3.8227959q-0.93914795 -0.7844467 -1.7346191 -0.8507385q-1.2264099 -0.12153244 -2.1102905 0.7623501q-0.7955017 0.795496 -0.8065491 1.8893013q-0.011047363 1.0717087 0.8286438 2.021883z" fill-rule="nonzero"/><path fill="#000000" fill-opacity="0.0" d="m282.4714 140.70955l251.96854 -251.9685l28.283447 28.283463l-251.9685 251.9685z" fill-rule="evenodd"/><path fill="#000000" d="m311.36163 155.12617l-9.45755 -9.45755l1.0495911 -1.0496216l0.8838806 0.8838959q-0.14361572 -0.89494324 0.0663147 -1.6130981q0.2098999 -0.74024963 0.8838806 -1.4142151q0.87283325 -0.87283325 1.988739 -1.0827484q1.1159058 -0.23202515 2.2870483 0.25411987q1.1600952 0.4750824 2.143402 1.4584045q1.0496216 1.0496063 1.5136719 2.2649536q0.46401978 1.215332 0.19885254 2.3864746q-0.2762146 1.1601105 -1.0717163 1.9555969q-0.5745239 0.5745239 -1.2816162 0.7955017q-0.7070923 0.22096252 -1.3700256 0.13258362l3.3256226 3.3256073l-1.1600952 1.1600952zm-4.949768 -7.0489655q1.3147888 1.3147736 2.4859314 1.4252625q1.1711426 0.088378906 1.9224548 -0.6629181q0.773407 -0.7733917 0.6739502 -1.9776917q-0.11047363 -1.215332 -1.4804993 -2.5853577q-1.3037109 -1.3037262 -2.4969788 -1.4142151q-1.18219 -0.121536255 -1.9334717 0.629776q-0.7402649 0.74024963 -0.6187439 2.0108337q0.12155151 1.2484741 1.4473572 2.5743103zm9.656952 -2.8952332l-6.8390503 -6.8390503l1.0385742 -1.038559l1.0385437 1.038559q-0.33145142 -1.1269531 -0.23202515 -1.6904297q0.11050415 -0.5745239 0.5192871 -0.9833069q0.5855713 -0.58558655 1.5689087 -0.81759644l0.6739502 1.4694519q-0.68499756 0.17677307 -1.1048584 0.59661865q-0.38668823 0.3867035 -0.4529724 0.91703796q-0.0663147 0.5303192 0.19885254 1.0606537q0.41986084 0.81759644 1.1600952 1.5578461l3.5797424 3.5797272l-1.1490479 1.1490479zm0.5481262 -7.398224q-1.9003601 -1.9003601 -1.7567139 -3.8559418q0.121520996 -1.6462402 1.3921204 -2.9168243q1.4142151 -1.4142151 3.2372131 -1.3810577q1.8119812 0.022094727 3.4471436 1.6572723q1.3147888 1.3147736 1.6793823 2.474884q0.35354614 1.1490479 0.011047363 2.3312378q-0.33145142 1.1711426 -1.2263794 2.0660706q-1.4363098 1.4363098 -3.2372131 1.4031677q-1.8119812 -0.044189453 -3.5466003 -1.7788086zm1.1932373 -1.1932526q1.3147888 1.3147888 2.5411682 1.4142151q1.2263794 0.0773468 2.0992432 -0.79548645q0.8617859 -0.8617859 0.7844238 -2.0881805q-0.088378906 -1.237442 -1.4363098 -2.5853577q-1.2705688 -1.2705841 -2.4969482 -1.3479156q-1.2264099 -0.0773468 -2.0881958 0.7844391q-0.87283325 0.87283325 -0.7955017 2.099228q0.07736206 1.2042847 1.3921204 2.5190582zm10.275665 -3.4255524l-5.9441223 -5.9441147l-1.0275269 1.0275192l-0.894928 -0.8949356l1.0275269 -1.0275116l-0.7292175 -0.7292099q-0.68499756 -0.6850052 -0.90597534 -1.1490479q-0.28726196 -0.6187134 -0.14361572 -1.3147736q0.14361572 -0.6960602 0.90597534 -1.4584122q0.48614502 -0.48612976 1.1932373 -0.97226715l0.83969116 1.1932449q-0.41983032 0.28726196 -0.7402649 0.607666q-0.53030396 0.53032684 -0.5192566 0.98332214q0 0.4419403 0.6187134 1.0606613l0.62976074 0.6297684l1.3368835 -1.3368759l0.894928 0.894928l-1.3368835 1.3368759l5.9441223 5.9441147l-1.1490479 1.1490479zm5.8748474 -10.272179l1.3368835 -1.0496063q0.7623596 1.3368683 0.5855713 2.6847916q-0.1878357 1.3368759 -1.381073 2.5301208q-1.502594 1.502594 -3.3034973 1.4694519q-1.8009338 -0.055236816 -3.4692688 -1.7235718q-1.7346191 -1.7346191 -1.8009033 -3.5686798q-0.055236816 -1.845108 1.3589783 -3.2593155q1.3700256 -1.3700256 3.170929 -1.2926865q1.8009033 0.055244446 3.491333 1.7456741q0.11050415 0.11048126 0.3093567 0.3093567l-5.104431 5.104431q1.1932678 1.0606613 2.3754578 1.0938034q1.1711426 0.022094727 2.021881 -0.8286438q0.6408081 -0.64081573 0.7623291 -1.4252625q0.11050415 -0.7954941 -0.35354614 -1.7898636zm-5.6900024 1.9334946l3.822815 -3.822792q-0.93914795 -0.7844467 -1.7346191 -0.8507385q-1.2264099 -0.121536255 -2.1102905 0.762352q-0.7955017 0.7954941 -0.8065491 1.8892975q-0.011047363 1.0717087 0.8286438 2.021881zm8.032806 -3.9669342l0.9722595 -1.3258209q0.773407 0.59661865 1.5910034 0.53032684q0.8065491 -0.07733917 1.6020508 -0.87283325q0.7954712 -0.7954941 0.8617859 -1.5026016q0.055236816 -0.7181549 -0.38671875 -1.1600952q-0.38668823 -0.3867035 -0.96121216 -0.2762146q-0.38668823 0.07733917 -1.5689087 0.7954941q-1.6130676 0.9501724 -2.3422852 1.2153397q-0.71813965 0.25411987 -1.381073 0.09944153q-0.6739502 -0.16573334 -1.18219 -0.67396545q-0.4529724 -0.45298767 -0.62976074 -1.049614q-0.1878357 -0.607666 -0.07733154 -1.226387q0.06628418 -0.46403503 0.3977356 -1.0606613q0.33145142 -0.6187134 0.8617859 -1.1490479q0.8065491 -0.80654144 1.6462402 -1.18219q0.83969116 -0.37565613 1.5246887 -0.26516724q0.69607544 0.0994339 1.4694519 0.6518631l-0.9833069 1.2926788q-0.607666 -0.45298767 -1.2816467 -0.3756485q-0.66290283 0.06629181 -1.336853 0.74024963q-0.8065491 0.8065491 -0.8838806 1.4142151q-0.0663147 0.59661865 0.28726196 0.9501724q0.22094727 0.22097778 0.54138184 0.2762146q0.33145142 0.044197083 0.7623291 -0.14363098q0.23202515 -0.0994339 1.3147888 -0.7181549q1.5578308 -0.91703033 2.2539062 -1.1932373q0.6960449 -0.2762146 1.3700256 -0.15468597q0.6739502 0.121536255 1.2705688 0.7181549q0.5855713 0.5855789 0.75131226 1.4363174q0.17675781 0.83968353 -0.17678833 1.7677612q-0.3645935 0.91703033 -1.1711426 1.7235718q-1.3258362 1.3258286 -2.5853577 1.4805069q-1.2484741 0.14363098 -2.5301208 -0.762352zm6.595978 -6.595978l0.97229004 -1.3258209q0.77337646 0.59661865 1.5909729 0.53032684q0.8065491 -0.07733917 1.6020508 -0.87283325q0.7954712 -0.7954941 0.8617859 -1.5026016q0.055236816 -0.7181549 -0.38671875 -1.1601028q-0.38668823 -0.38669586 -0.96121216 -0.27620697q-0.38668823 0.07733917 -1.5689087 0.7954941q-1.6130676 0.9501724 -2.3422852 1.2153397q-0.71813965 0.25411224 -1.381073 0.0994339q-0.6739502 -0.16572571 -1.18219 -0.6739578q-0.4529724 -0.4529953 -0.62976074 -1.049614q-0.1878357 -0.607666 -0.07733154 -1.226387q0.06628418 -0.46404266 0.3977356 -1.0606613q0.33145142 -0.618721 0.8617859 -1.1490479q0.8065491 -0.80654144 1.6462402 -1.1821976q0.83969116 -0.3756485 1.5246887 -0.2651596q0.69607544 0.0994339 1.4694824 0.6518631l-0.9833374 1.2926788q-0.607666 -0.45298767 -1.2816162 -0.3756485q-0.66293335 0.06629181 -1.3368835 0.74024963q-0.8065491 0.80654144 -0.8838806 1.4142151q-0.06628418 0.59661865 0.28726196 0.9501724q0.22097778 0.22097015 0.54138184 0.2762146q0.33145142 0.044197083 0.7623291 -0.14363098q0.23202515 -0.0994339 1.3147888 -0.7181549q1.5578308 -0.91703033 2.2539062 -1.1932449q0.6960449 -0.2762146 1.3700256 -0.15467834q0.6739502 0.121536255 1.2705688 0.7181549q0.5855713 0.5855713 0.75131226 1.4363098q0.17675781 0.83969116 -0.17678833 1.7677689q-0.3645935 0.91703033 -1.1711426 1.7235718q-1.3258362 1.3258286 -2.5853577 1.4805069q-1.2484741 0.14363098 -2.5301208 -0.762352zm0.99438477 -13.125671l-1.3368835 -1.3368683l1.1600952 -1.1601028l1.3368835 1.3368759l-1.1600952 1.1600952zm8.109619 8.109634l-6.8390503 -6.8390503l1.1600952 -1.1600952l6.8390503 6.8390503l-1.1600952 1.1600952zm-0.92510986 -5.924988q-1.9003601 -1.9003525 -1.7567139 -3.8559418q0.121520996 -1.6462326 1.3921204 -2.9168167q1.4142151 -1.4142151 3.2372131 -1.3810654q1.8119507 0.022094727 3.4471436 1.65728q1.3147888 1.3147812 1.6793823 2.4748764q0.35354614 1.1490479 0.011047363 2.3312378q-0.33145142 1.1711502 -1.2263794 2.0660782q-1.4363098 1.4363098 -3.2372437 1.4031677q-1.8119507 -0.044197083 -3.5465698 -1.7788162zm1.1932373 -1.1932449q1.3147888 1.3147812 2.5411682 1.4142151q1.2263794 0.07733917 2.0992126 -0.7954941q0.8617859 -0.8617859 0.78445435 -2.088173q-0.088378906 -1.237442 -1.4363098 -2.5853577q-1.2705688 -1.2705841 -2.4969788 -1.3479233q-1.2263794 -0.07733917 -2.0881653 0.7844467q-0.87283325 0.87283325 -0.7955017 2.0992203q0.07736206 1.2042923 1.3921204 2.5190659zm9.999451 -3.1493378l-6.8390503 -6.8390503l1.0385437 -1.038559l0.97229004 0.97226715q-0.37564087 -1.8782501 1.0496216 -3.3035126q0.6187134 -0.618721 1.3589478 -0.91703033q0.7402649 -0.29830933 1.3589783 -0.18782806q0.6187134 0.088394165 1.215332 0.4861374q0.38671875 0.25411987 1.1932373 1.0606613l4.209503 4.2094955l-1.1600952 1.1600952l-4.165283 -4.1652985q-0.7071228 -0.70710754 -1.1932678 -0.905983q-0.4861145 -0.22097015 -1.0385437 -0.088386536q-0.5524292 0.13258362 -1.0164795 0.59661865q-0.7402344 0.74025726 -0.8065491 1.7567215q-0.06628418 0.9943695 1.2485046 2.309143l3.7344055 3.7344131l-1.1600952 1.1600952zm10.960663 -12.640045q-0.11050415 1.1932449 -0.47509766 2.0218887q-0.3645935 0.80654144 -1.0496216 1.4915543q-1.1269531 1.1269455 -2.2870483 1.18219q-1.1600952 0.055244446 -2.0108337 -0.7954941q-0.5082092 -0.5082321 -0.68499756 -1.1490479q-0.1878357 -0.6518631 -0.06628418 -1.2595367q0.121520996 -0.6297684 0.4529724 -1.226387q0.24307251 -0.41984558 0.8507385 -1.2042923q1.2374573 -1.5688934 1.668335 -2.4638214q-0.23202515 -0.25411987 -0.28726196 -0.30936432q-0.7070923 -0.70710754 -1.3368835 -0.6739578q-0.8286133 0.055244446 -1.7125244 0.93912506q-0.8175659 0.81759644 -0.9170227 1.4915543q-0.09942627 0.6739578 0.4309082 1.5799408l-1.2926941 0.98332214q-0.56347656 -0.87283325 -0.65185547 -1.6683273q-0.09942627 -0.8065491 0.33145142 -1.7235794q0.4309082 -0.9170227 1.3037415 -1.7898636q0.8838806 -0.8838806 1.6351624 -1.2153397q0.75131226 -0.35355377 1.3258362 -0.28726196q0.5745239 0.044197083 1.1490479 0.41984558q0.35354614 0.24307251 1.1269531 1.0164642l1.5467834 1.5467987q1.6130981 1.6130905 2.121338 1.9666443q0.49719238 0.34249878 1.1048584 0.53032684l-1.2043152 1.2042923q-0.5523987 -0.1767807 -1.0716858 -0.60767365zm-2.6958618 -2.4969711q-0.3645935 0.8949356 -1.4473572 2.3312454q-0.6187134 0.8175888 -0.78445435 1.2484894q-0.16571045 0.43089294 -0.088378906 0.83968353q0.088378906 0.39775085 0.3977661 0.70710754q0.46401978 0.46404266 1.1269531 0.41984558q0.66290283 -0.044197083 1.336853 -0.7181549q0.66293335 -0.66291046 0.894928 -1.4694595q0.23202515 -0.82863617 -0.03314209 -1.5799408q-0.20993042 -0.5855713 -0.9722595 -1.3479233l-0.4309082 -0.43089294zm6.375519 0.4966812l-9.446503 -9.446503l1.1600952 -1.1601028l9.446503 9.44651l-1.1600952 1.1600952zm4.5107727 0.72623444l-0.83969116 -0.83969116l7.6787415 -7.678734l0.83969116 0.83969116l-7.6787415 7.678734zm-2.3196716 -19.114487l-1.3479309 -1.3479233l1.1600952 -1.1600952l1.3479309 1.3479233l-1.1600952 1.1600952zm9.280762 12.219688l-0.7623291 -1.2042923q0.44192505 -0.2651596 0.6408081 -0.46403503q0.35354614 -0.35355377 0.28726196 -0.7513046q-0.055236816 -0.4087906 -1.0054321 -1.3589706l-7.181549 -7.181549l1.1600952 -1.1600952l7.214691 7.214699q1.259552 1.2595291 1.4252625 2.088173q0.22097778 1.0606613 -0.75128174 2.0329285q-0.4640503 0.46404266 -1.0275269 0.7844467zm-2.0962524 -10.057137q-1.9003601 -1.9003525 -1.7567139 -3.8559418q0.121520996 -1.6462364 1.3921204 -2.9168205q1.4142151 -1.4142113 3.2372131 -1.3810654q1.8119507 0.022094727 3.4471436 1.65728q1.3147888 1.3147774 1.6793823 2.4748726q0.35354614 1.1490479 0.011047363 2.3312454q-0.33145142 1.1711426 -1.2263794 2.0660782q-1.4363098 1.4363098 -3.2372131 1.4031601q-1.8119812 -0.044189453 -3.5466003 -1.7788086zm1.1932373 -1.1932449q1.3147888 1.3147736 2.5411682 1.4142151q1.2263794 0.07733917 2.0992432 -0.7955017q0.8617859 -0.8617859 0.7844238 -2.088173q-0.088378906 -1.2374344 -1.4363098 -2.5853577q-1.2705688 -1.2705803 -2.4969788 -1.3479233q-1.2263794 -0.07733917 -2.0881653 0.7844467q-0.87283325 0.87283707 -0.7955017 2.099228q0.07736206 1.2042847 1.3921204 2.5190659zm1.889801 -11.258976l-1.336853 -1.3368721l1.1600952 -1.1600952l1.3368835 1.3368721l-1.1601257 1.1600952zm8.10965 8.109634l-6.8390503 -6.8390503l1.1600952 -1.1600952l6.8390503 6.8390465l-1.1600952 1.160099zm2.9308167 -2.930832l-6.8390503 -6.8390503l1.0385742 -1.0385628l0.9722595 0.97227097q-0.37564087 -1.8782501 1.0496216 -3.3035126q0.6187134 -0.6187172 1.3589783 -0.91703033q0.7402344 -0.29830933 1.3589783 -0.18782425q0.6187134 0.088386536 1.215332 0.4861374q0.38668823 0.25411606 1.1932373 1.0606575l4.209503 4.2094955l-1.1600952 1.160099l-4.1653137 -4.1653023q-0.7070923 -0.70710754 -1.1932373 -0.90597916q-0.48614502 -0.22097397 -1.0385742 -0.08839035q-0.5524292 0.13258362 -1.016449 0.59662247q-0.7402649 0.74025345 -0.8065491 1.7567177q-0.06628418 0.9943695 1.2484741 2.309147l3.7344055 3.7344055l-1.1600952 1.160099zm8.883545 -3.6465263l-0.83969116 -0.83969116l7.6787415 -7.6787376l0.83969116 0.83969116l-7.6787415 7.6787376zm10.220398 -15.45742l-0.8617859 -0.8617859q0.3756714 1.65728 -0.894928 2.927864q-0.81759644 0.8175926 -1.9555969 1.0496101q-1.1380005 0.23202133 -2.3201904 -0.19887161q-1.18219 -0.43089294 -2.231781 -1.4805069q-1.0275269 -1.0275154 -1.5136719 -2.198658q-0.49719238 -1.1821938 -0.26516724 -2.2980995q0.24307251 -1.1269493 1.093811 -1.9776878q0.6187134 -0.6187172 1.3589783 -0.82864q0.7402344 -0.23202133 1.4584045 -0.11048508l-3.3919067 -3.391903l1.1600952 -1.160099l9.446503 9.4465065l-1.0827637 1.082756zm-7.071045 0.2430687q1.3147583 1.3147774 2.5190735 1.4142113q1.2042847 0.09943771 1.9555664 -0.6518631q0.7623596 -0.7623482 0.6739807 -1.911396q-0.09945679 -1.160099 -1.3700256 -2.4306793q-1.4031677 -1.4031677 -2.596405 -1.5136528q-1.2042847 -0.12153244 -1.9997864 0.67396164q-0.7623596 0.7623482 -0.65185547 1.9113998q0.11047363 1.1490479 1.4694519 2.5080185zm13.601257 -8.452644q-0.11047363 1.1932449 -0.47509766 2.021885q-0.3645935 0.80654144 -1.0495911 1.4915543q-1.1269531 1.1269493 -2.2870483 1.1821938q-1.1600952 0.05524063 -2.0108337 -0.7954979q-0.50823975 -0.5082321 -0.6850281 -1.1490479q-0.1878357 -0.6518631 -0.06628418 -1.2595329q0.121520996 -0.6297684 0.45300293 -1.226387q0.24304199 -0.41984558 0.850708 -1.2042923q1.2374573 -1.5688934 1.668335 -2.4638252q-0.23199463 -0.25411606 -0.28726196 -0.3093605q-0.7070923 -0.70710564 -1.336853 -0.67395973q-0.8286438 0.05524254 -1.7125244 0.93912506q-0.81759644 0.8175926 -0.9170532 1.4915543q-0.09942627 0.67395973 0.4309082 1.5799427l-1.2926941 0.9833183q-0.56347656 -0.87283325 -0.65185547 -1.6683311q-0.09942627 -0.80654144 0.33145142 -1.7235718q0.4309082 -0.9170284 1.3037415 -1.7898636q0.8838806 -0.8838825 1.6351929 -1.2153397q0.75128174 -0.35355377 1.3258057 -0.28726196q0.5745239 0.044193268 1.1490479 0.41984558q0.35354614 0.24306679 1.1269531 1.0164642l1.546814 1.5467968q1.6130676 1.6130886 2.1213074 1.9666424q0.49719238 0.3425026 1.1048584 0.53032684l-1.2042847 1.2042923q-0.5524292 -0.17677689 -1.0717163 -0.60766983zm-2.6958618 -2.4969711q-0.3645935 0.8949337 -1.4473572 2.3312454q-0.6187134 0.8175888 -0.7844238 1.2484818q-0.16574097 0.43089676 -0.088409424 0.83969116q0.088409424 0.39774704 0.3977661 0.70710754q0.46401978 0.46403885 1.1269531 0.41984558q0.66290283 -0.044197083 1.336853 -0.7181587q0.66293335 -0.66291046 0.8949585 -1.4694557q0.23199463 -0.82864 -0.033172607 -1.5799408q-0.2098999 -0.5855713 -0.9722595 -1.3479214l-0.4309082 -0.43089485zm7.900238 -3.1051464l1.1932373 0.8617859q-0.38668823 0.5855732 -0.773407 0.97227097q-0.62976074 0.6297684 -1.18219 0.7844467q-0.54138184 0.14363098 -1.0054016 -0.033143997q-0.47509766 -0.18782616 -1.5136719 -1.2263889l-3.944336 -3.9443302l-0.8507385 0.8507385l-0.894928 -0.8949337l0.8507385 -0.8507366l-1.6904297 -1.6904278l0.45300293 -1.8451061l2.3864746 2.3864841l1.1711426 -1.1711445l0.8949585 0.8949318l-1.1711731 1.1711464l4.0106506 4.01062q0.4861145 0.48613548 0.68499756 0.5745239q0.20993042 0.07734108 0.4308777 0.033145905q0.22097778 -0.0662899 0.48614502 -0.33145523q0.1878357 -0.18782616 0.4640503 -0.5524273zm4.6595154 -6.9797134l1.3368835 -1.0496101q0.7623291 1.3368721 0.5855713 2.6847954q-0.1878357 1.336874 -1.381073 2.530117q-1.5026245 1.5026016 -3.3035278 1.4694557q-1.8009033 -0.05524254 -3.4692383 -1.7235737q-1.7346191 -1.734621 -1.8009033 -3.568678q-0.055236816 -1.845108 1.3589478 -3.2593212q1.3700256 -1.3700199 3.1709595 -1.2926788q1.8009033 0.05524254 3.491333 1.7456684q0.11047363 0.110486984 0.3093567 0.3093605l-5.104431 5.1044273q1.1932373 1.0606594 2.3754272 1.0938053q1.1711426 0.022096634 2.021881 -0.8286419q0.6408386 -0.6408138 0.7623596 -1.4252605q0.11047363 -0.795496 -0.35354614 -1.7898655zm-5.6900024 1.9334965l3.8227844 -3.8227959q-0.93911743 -0.7844467 -1.7346191 -0.8507385q-1.2263794 -0.12153435 -2.11026 0.7623501q-0.7955017 0.7954941 -0.8065491 1.8892994q-0.011047363 1.0717087 0.8286438 2.021885z" fill-rule="nonzero"/><path fill="#000000" fill-opacity="0.0" d="m322.47244 160.07611l0 284.8504" fill-rule="evenodd"/><path stroke="#000000" stroke-width="1.0" stroke-linejoin="round" stroke-linecap="butt" d="m322.47244 160.07611l0 284.8504" fill-rule="evenodd"/><path fill="#000000" fill-opacity="0.0" d="m282.33072 461.97638l0 63.93701l-75.52757 0l0 -63.93701z" fill-rule="evenodd"/><path fill="#000000" d="m242.6107 473.27325l4.390625 0l0 4.390625l-4.390625 0l0 -4.390625zm0 8.890625l4.390625 0l0 4.390625l-4.390625 0l0 -4.390625zm0 8.890625l4.390625 0l0 4.390625l-4.390625 0l0 -4.390625z" fill-rule="nonzero"/><path fill="#000000" fill-opacity="0.0" d="m365.67715 250.31233l63.93701 0l0 75.52757l-63.93701 0z" fill-rule="evenodd"/><path fill="#000000" d="m376.97403 290.03235l0 -4.390625l4.390625 0l0 4.390625l-4.390625 0zm8.890625 0l0 -4.390625l4.390625 0l0 4.390625l-4.390625 0zm8.890625 0l0 -4.390625l4.390625 0l0 4.390625l-4.390625 0z" fill-rule="nonzero"/><path fill="#000000" fill-opacity="0.0" d="m130.47244 160.07611l32.0 0l0 32.0l-32.0 0z" fill-rule="evenodd"/><path fill="#000000" d="m146.42557 182.99611l-1.640625 0l0 -10.453125q-0.59375 0.5625 -1.5625 1.140625q-0.953125 0.5625 -1.71875 0.84375l0 -1.59375q1.375 -0.640625 2.40625 -1.5625q1.03125 -0.921875 1.453125 -1.78125l1.0625 0l0 13.40625z" fill-rule="nonzero"/><path fill="#000000" fill-opacity="0.0" d="m130.47244 192.07611l32.0 0l0 32.0l-32.0 0z" fill-rule="evenodd"/><path fill="#000000" d="m146.42557 214.99611l-1.640625 0l0 -10.453125q-0.59375 0.5625 -1.5625 1.140625q-0.953125 0.5625 -1.71875 0.84375l0 -1.59375q1.375 -0.640625 2.40625 -1.5625q1.03125 -0.921875 1.453125 -1.78125l1.0625 0l0 13.40625z" fill-rule="nonzero"/><path fill="#000000" fill-opacity="0.0" d="m130.47244 224.07611l32.0 0l0 32.0l-32.0 0z" fill-rule="evenodd"/><path fill="#000000" d="m140.2537 240.40236q0 -2.359375 0.484375 -3.796875q0.484375 -1.453125 1.4375 -2.234375q0.96875 -0.78125 2.421875 -0.78125q1.078125 0 1.890625 0.4375q0.8125 0.421875 1.328125 1.25q0.53125 0.8125 0.828125 1.984375q0.3125 1.15625 0.3125 3.140625q0 2.359375 -0.484375 3.8125q-0.484375 1.4375 -1.453125 2.234375q-0.953125 0.78125 -2.421875 0.78125q-1.921875 0 -3.03125 -1.390625q-1.3125 -1.671875 -1.3125 -5.4375zm1.671875 0q0 3.296875 0.765625 4.390625q0.78125 1.078125 1.90625 1.078125q1.140625 0 1.90625 -1.09375q0.765625 -1.09375 0.765625 -4.375q0 -3.296875 -0.765625 -4.375q-0.765625 -1.078125 -1.921875 -1.078125q-1.125 0 -1.796875 0.953125q-0.859375 1.21875 -0.859375 4.5z" fill-rule="nonzero"/><path fill="#000000" fill-opacity="0.0" d="m130.47244 256.0761l32.0 0l0 32.0l-32.0 0z" fill-rule="evenodd"/><path fill="#000000" d="m146.42557 278.99612l-1.640625 0l0 -10.453125q-0.59375 0.5625 -1.5625 1.140625q-0.953125 0.5625 -1.71875 0.84375l0 -1.59375q1.375 -0.640625 2.40625 -1.5625q1.03125 -0.921875 1.453125 -1.78125l1.0625 0l0 13.40625z" fill-rule="nonzero"/><path fill="#000000" fill-opacity="0.0" d="m130.47244 288.0761l32.0 0l0 32.0l-32.0 0z" fill-rule="evenodd"/><path fill="#000000" d="m140.2537 304.40237q0 -2.359375 0.484375 -3.796875q0.484375 -1.453125 1.4375 -2.234375q0.96875 -0.78125 2.421875 -0.78125q1.078125 0 1.890625 0.4375q0.8125 0.421875 1.328125 1.25q0.53125 0.8125 0.828125 1.984375q0.3125 1.15625 0.3125 3.140625q0 2.359375 -0.484375 3.8125q-0.484375 1.4375 -1.453125 2.234375q-0.953125 0.78125 -2.421875 0.78125q-1.921875 0 -3.03125 -1.390625q-1.3125 -1.671875 -1.3125 -5.4375zm1.671875 0q0 3.296875 0.765625 4.390625q0.78125 1.078125 1.90625 1.078125q1.140625 0 1.90625 -1.09375q0.765625 -1.09375 0.765625 -4.375q0 -3.296875 -0.765625 -4.375q-0.765625 -1.078125 -1.921875 -1.078125q-1.125 0 -1.796875 0.953125q-0.859375 1.21875 -0.859375 4.5z" fill-rule="nonzero"/><path fill="#000000" fill-opacity="0.0" d="m130.47244 320.0761l32.0 0l0 32.0l-32.0 0z" fill-rule="evenodd"/><path fill="#000000" d="m140.2537 336.40237q0 -2.359375 0.484375 -3.796875q0.484375 -1.453125 1.4375 -2.234375q0.96875 -0.78125 2.421875 -0.78125q1.078125 0 1.890625 0.4375q0.8125 0.421875 1.328125 1.25q0.53125 0.8125 0.828125 1.984375q0.3125 1.15625 0.3125 3.140625q0 2.359375 -0.484375 3.8125q-0.484375 1.4375 -1.453125 2.234375q-0.953125 0.78125 -2.421875 0.78125q-1.921875 0 -3.03125 -1.390625q-1.3125 -1.671875 -1.3125 -5.4375zm1.671875 0q0 3.296875 0.765625 4.390625q0.78125 1.078125 1.90625 1.078125q1.140625 0 1.90625 -1.09375q0.765625 -1.09375 0.765625 -4.375q0 -3.296875 -0.765625 -4.375q-0.765625 -1.078125 -1.921875 -1.078125q-1.125 0 -1.796875 0.953125q-0.859375 1.21875 -0.859375 4.5z" fill-rule="nonzero"/><path fill="#000000" fill-opacity="0.0" d="m130.47244 352.0761l32.0 0l0 32.0l-32.0 0z" fill-rule="evenodd"/><path fill="#000000" d="m146.42557 374.99612l-1.640625 0l0 -10.453125q-0.59375 0.5625 -1.5625 1.140625q-0.953125 0.5625 -1.71875 0.84375l0 -1.59375q1.375 -0.640625 2.40625 -1.5625q1.03125 -0.921875 1.453125 -1.78125l1.0625 0l0 13.40625z" fill-rule="nonzero"/><path fill="#000000" fill-opacity="0.0" d="m130.47244 384.0761l32.0 0l0 32.0l-32.0 0z" fill-rule="evenodd"/><path fill="#000000" d="m140.2537 400.40237q0 -2.359375 0.484375 -3.796875q0.484375 -1.453125 1.4375 -2.234375q0.96875 -0.78125 2.421875 -0.78125q1.078125 0 1.890625 0.4375q0.8125 0.421875 1.328125 1.25q0.53125 0.8125 0.828125 1.984375q0.3125 1.15625 0.3125 3.140625q0 2.359375 -0.484375 3.8125q-0.484375 1.4375 -1.453125 2.234375q-0.953125 0.78125 -2.421875 0.78125q-1.921875 0 -3.03125 -1.390625q-1.3125 -1.671875 -1.3125 -5.4375zm1.671875 0q0 3.296875 0.765625 4.390625q0.78125 1.078125 1.90625 1.078125q1.140625 0 1.90625 -1.09375q0.765625 -1.09375 0.765625 -4.375q0 -3.296875 -0.765625 -4.375q-0.765625 -1.078125 -1.921875 -1.078125q-1.125 0 -1.796875 0.953125q-0.859375 1.21875 -0.859375 4.5z" fill-rule="nonzero"/><path fill="#000000" fill-opacity="0.0" d="m21.0 209.0l85.98425 0l0 43.37007l-85.98425 0z" fill-rule="evenodd"/><path fill="#6aa84f" d="m34.359375 235.92l0 -11.09375l-3.953125 0l0 -2.265625l10.609375 0l0 2.265625l-3.953125 0l0 11.09375l-2.703125 0zm8.901184 -6.71875l-2.328125 -0.421875q0.40625 -1.40625 1.359375 -2.078125q0.953125 -0.671875 2.84375 -0.671875q1.703125 0 2.546875 0.40625q0.84375 0.40625 1.171875 1.03125q0.34375 0.625 0.34375 2.28125l-0.015625 3.0q0 1.265625 0.109375 1.875q0.125 0.609375 0.46875 1.296875l-2.53125 0q-0.109375 -0.25 -0.25 -0.75q-0.0625 -0.234375 -0.09375 -0.3125q-0.65625 0.640625 -1.40625 0.96875q-0.734375 0.3125 -1.59375 0.3125q-1.484375 0 -2.34375 -0.8125q-0.859375 -0.8125 -0.859375 -2.046875q0 -0.828125 0.390625 -1.46875q0.390625 -0.640625 1.09375 -0.96875q0.703125 -0.34375 2.03125 -0.609375q1.796875 -0.328125 2.484375 -0.625l0 -0.25q0 -0.75 -0.359375 -1.0625q-0.359375 -0.3125 -1.375 -0.3125q-0.6875 0 -1.078125 0.28125q-0.375 0.265625 -0.609375 0.9375zm3.421875 2.078125q-0.484375 0.15625 -1.5625 0.390625q-1.0625 0.21875 -1.390625 0.4375q-0.5 0.359375 -0.5 0.90625q0 0.53125 0.40625 0.9375q0.40625 0.390625 1.015625 0.390625q0.703125 0 1.328125 -0.46875q0.46875 -0.34375 0.609375 -0.84375q0.09375 -0.328125 0.09375 -1.25l0 -0.5zm7.500717 4.640625l-2.5625 0l0 -9.671875l2.375 0l0 1.375q0.609375 -0.984375 1.09375 -1.28125q0.484375 -0.3125 1.109375 -0.3125q0.875 0 1.6875 0.484375l-0.796875 2.234375q-0.640625 -0.421875 -1.203125 -0.421875q-0.53125 0 -0.90625 0.296875q-0.375 0.296875 -0.59375 1.078125q-0.203125 0.765625 -0.203125 3.234375l0 2.984375zm4.572769 0.640625l2.921875 0.359375q0.0625 0.5 0.328125 0.6875q0.375 0.28125 1.15625 0.28125q1.0 0 1.5 -0.296875q0.328125 -0.203125 0.515625 -0.65625q0.109375 -0.3125 0.109375 -1.171875l0 -1.40625q-1.140625 1.5625 -2.890625 1.5625q-1.953125 0 -3.09375 -1.65625q-0.890625 -1.296875 -0.890625 -3.234375q0 -2.4375 1.171875 -3.71875q1.171875 -1.28125 2.90625 -1.28125q1.796875 0 2.96875 1.578125l0 -1.359375l2.390625 0l0 8.671875q0 1.71875 -0.28125 2.5625q-0.28125 0.84375 -0.796875 1.328125q-0.5 0.484375 -1.359375 0.75q-0.84375 0.28125 -2.15625 0.28125q-2.453125 0 -3.484375 -0.84375q-1.03125 -0.84375 -1.03125 -2.125q0 -0.140625 0.015625 -0.3125zm2.28125 -5.671875q0 1.53125 0.59375 2.25q0.59375 0.71875 1.46875 0.71875q0.9375 0 1.578125 -0.734375q0.65625 -0.734375 0.65625 -2.171875q0 -1.515625 -0.625 -2.234375q-0.609375 -0.734375 -1.5625 -0.734375q-0.921875 0 -1.515625 0.71875q-0.59375 0.71875 -0.59375 2.1875zm14.942856 1.953125l2.546875 0.421875q-0.484375 1.40625 -1.546875 2.140625q-1.0625 0.734375 -2.65625 0.734375q-2.515625 0 -3.734375 -1.65625q-0.953125 -1.3125 -0.953125 -3.328125q0 -2.40625 1.25 -3.765625q1.265625 -1.359375 3.1875 -1.359375q2.15625 0 3.40625 1.421875q1.25 1.421875 1.1875 4.375l-6.40625 0q0.03125 1.140625 0.609375 1.78125q0.59375 0.625 1.484375 0.625q0.59375 0 1.0 -0.328125q0.421875 -0.328125 0.625 -1.0625zm0.15625 -2.59375q-0.03125 -1.109375 -0.578125 -1.6875q-0.546875 -0.578125 -1.328125 -0.578125q-0.84375 0 -1.390625 0.609375q-0.546875 0.609375 -0.53125 1.65625l3.828125 0zm9.063217 -4.0l0 2.03125l-1.75 0l0 3.90625q0 1.1875 0.046875 1.390625q0.046875 0.1875 0.21875 0.3125q0.1875 0.125 0.4375 0.125q0.359375 0 1.03125 -0.25l0.21875 2.0q-0.890625 0.375 -2.015625 0.375q-0.703125 0 -1.265625 -0.234375q-0.546875 -0.234375 -0.8125 -0.59375q-0.25 -0.375 -0.34375 -1.0q-0.09375 -0.453125 -0.09375 -1.8125l0 -4.21875l-1.171875 0l0 -2.03125l1.171875 0l0 -1.921875l2.578125 -1.5l0 3.421875l1.75 0z" fill-rule="nonzero"/><path fill="#000000" fill-opacity="0.0" d="m381.0 209.0l109.00787 0l0 43.37007l-109.00787 0z" fill-rule="evenodd"/><path fill="#cc0000" d="m391.375 235.92l0 -13.359375l9.15625 0l0 2.265625l-6.453125 0l0 3.15625l5.5625 0l0 2.265625l-5.5625 0l0 5.671875l-2.703125 0zm16.958496 -3.078125l2.546875 0.421875q-0.484375 1.40625 -1.546875 2.140625q-1.0625 0.734375 -2.65625 0.734375q-2.515625 0 -3.734375 -1.65625q-0.953125 -1.3125 -0.953125 -3.328125q0 -2.40625 1.25 -3.765625q1.265625 -1.359375 3.1875 -1.359375q2.15625 0 3.40625 1.421875q1.25 1.421875 1.1875 4.375l-6.40625 0q0.03125 1.140625 0.609375 1.78125q0.59375 0.625 1.484375 0.625q0.59375 0 1.0 -0.328125q0.421875 -0.328125 0.625 -1.0625zm0.15625 -2.59375q-0.03125 -1.109375 -0.578125 -1.6875q-0.546875 -0.578125 -1.328125 -0.578125q-0.84375 0 -1.390625 0.609375q-0.546875 0.609375 -0.53125 1.65625l3.828125 0zm6.531952 -1.046875l-2.328125 -0.421875q0.40625 -1.40625 1.359375 -2.078125q0.953125 -0.671875 2.84375 -0.671875q1.703125 0 2.546875 0.40625q0.84375 0.40625 1.171875 1.03125q0.34375 0.625 0.34375 2.28125l-0.015625 3.0q0 1.265625 0.109375 1.875q0.125 0.609375 0.46875 1.296875l-2.53125 0q-0.109375 -0.25 -0.25 -0.75q-0.0625 -0.234375 -0.09375 -0.3125q-0.65625 0.640625 -1.40625 0.96875q-0.734375 0.3125 -1.59375 0.3125q-1.484375 0 -2.34375 -0.8125q-0.859375 -0.8125 -0.859375 -2.046875q0 -0.828125 0.390625 -1.46875q0.390625 -0.640625 1.09375 -0.96875q0.703125 -0.34375 2.03125 -0.609375q1.796875 -0.328125 2.484375 -0.625l0 -0.25q0 -0.75 -0.359375 -1.0625q-0.359375 -0.3125 -1.375 -0.3125q-0.6875 0 -1.078125 0.28125q-0.375 0.265625 -0.609375 0.9375zm3.421875 2.078125q-0.484375 0.15625 -1.5625 0.390625q-1.0625 0.21875 -1.390625 0.4375q-0.5 0.359375 -0.5 0.90625q0 0.53125 0.40625 0.9375q0.40625 0.390625 1.015625 0.390625q0.703125 0 1.328125 -0.46875q0.46875 -0.34375 0.609375 -0.84375q0.09375 -0.328125 0.09375 -1.25l0 -0.5zm9.485077 -5.03125l0 2.03125l-1.75 0l0 3.90625q0 1.1875 0.046875 1.390625q0.046875 0.1875 0.21875 0.3125q0.1875 0.125 0.4375 0.125q0.359375 0 1.03125 -0.25l0.21875 2.0q-0.890625 0.375 -2.015625 0.375q-0.703125 0 -1.265625 -0.234375q-0.546875 -0.234375 -0.8125 -0.59375q-0.25 -0.375 -0.34375 -1.0q-0.09375 -0.453125 -0.09375 -1.8125l0 -4.21875l-1.171875 0l0 -2.03125l1.171875 0l0 -1.921875l2.578125 -1.5l0 3.421875l1.75 0zm8.1345825 9.671875l0 -1.453125q-0.53125 0.78125 -1.390625 1.234375q-0.859375 0.4375 -1.8125 0.4375q-0.96875 0 -1.75 -0.421875q-0.765625 -0.4375 -1.125 -1.203125q-0.34375 -0.78125 -0.34375 -2.140625l0 -6.125l2.5625 0l0 4.4375q0 2.046875 0.140625 2.515625q0.140625 0.453125 0.515625 0.71875q0.375 0.265625 0.953125 0.265625q0.65625 0 1.171875 -0.359375q0.515625 -0.359375 0.703125 -0.890625q0.203125 -0.53125 0.203125 -2.609375l0 -4.078125l2.546875 0l0 9.671875l-2.375 0zm7.4897156 0l-2.5625 0l0 -9.671875l2.375 0l0 1.375q0.609375 -0.984375 1.09375 -1.28125q0.484375 -0.3125 1.109375 -0.3125q0.875 0 1.6875 0.484375l-0.796875 2.234375q-0.640625 -0.421875 -1.203125 -0.421875q-0.53125 0 -0.90625 0.296875q-0.375 0.296875 -0.59375 1.078125q-0.203125 0.765625 -0.203125 3.234375l0 2.984375zm10.400909 -3.078125l2.546875 0.421875q-0.484375 1.40625 -1.546875 2.140625q-1.0625 0.734375 -2.65625 0.734375q-2.515625 0 -3.734375 -1.65625q-0.953125 -1.3125 -0.953125 -3.328125q0 -2.40625 1.25 -3.765625q1.265625 -1.359375 3.1875 -1.359375q2.15625 0 3.40625 1.421875q1.25 1.421875 1.1875 4.375l-6.40625 0q0.03125 1.140625 0.609375 1.78125q0.59375 0.625 1.484375 0.625q0.59375 0 1.0 -0.328125q0.421875 -0.328125 0.625 -1.0625zm0.15625 -2.59375q-0.03125 -1.109375 -0.578125 -1.6875q-0.546875 -0.578125 -1.328125 -0.578125q-0.84375 0 -1.390625 0.609375q-0.546875 0.609375 -0.53125 1.65625l3.828125 0zm3.719452 2.90625l2.5625 -0.390625q0.171875 0.75 0.671875 1.140625q0.5 0.390625 1.40625 0.390625q0.984375 0 1.484375 -0.375q0.34375 -0.25 0.34375 -0.671875q0 -0.296875 -0.1875 -0.484375q-0.1875 -0.1875 -0.859375 -0.34375q-3.09375 -0.6875 -3.921875 -1.25q-1.140625 -0.78125 -1.140625 -2.171875q0 -1.265625 0.984375 -2.109375q1.0 -0.859375 3.078125 -0.859375q1.984375 0 2.953125 0.65625q0.96875 0.640625 1.328125 1.90625l-2.40625 0.4375q-0.15625 -0.5625 -0.59375 -0.859375q-0.421875 -0.296875 -1.234375 -0.296875q-1.0 0 -1.4375 0.28125q-0.296875 0.203125 -0.296875 0.515625q0 0.265625 0.25 0.46875q0.34375 0.25 2.390625 0.71875q2.046875 0.453125 2.859375 1.140625q0.796875 0.671875 0.796875 1.890625q0 1.34375 -1.109375 2.296875q-1.109375 0.953125 -3.28125 0.953125q-1.984375 0 -3.140625 -0.796875q-1.140625 -0.8125 -1.5 -2.1875z" fill-rule="nonzero"/><path fill="#000000" fill-opacity="0.0" d="m381.67715 58.312336l63.93701 0l0 75.52756l-63.93701 0z" fill-rule="evenodd"/><path fill="#000000" d="m393.5834 98.03233l0 -3.203125l3.203125 0l0 3.203125l-3.203125 0zm8.890625 0l0 -3.203125l3.203125 0l0 3.203125l-3.203125 0zm8.890625 0l0 -3.203125l3.203125 0l0 3.203125l-3.203125 0z" fill-rule="nonzero"/></g></svg>