<svg viewBox="0 0 501 344" xmlns="http://www.w3.org/2000/svg" xmlns:xlink="http://www.w3.org/1999/xlink"><defs><style>*{stroke-linecap:butt;stroke-linejoin:round}</style></defs><g id="figure_1"><path d="M0 344.4h501.2V0H0z" fill="#fff" id="patch_1"/><g id="axes_1"><path d="M47.6 320.9H494v-299H47.6z" fill="#eaeaf2" id="patch_2"/><g id="matplotlib.axis_1"><g id="xtick_1"><path clip-path="url(#p8c7f2af03c)" d="M80.5 320.9v-299" fill="none" stroke="#fff" stroke-linecap="round" id="line2d_1"/><g id="text_1"><defs><path d="M5 29.7v7.1h48.5v-7.1z" id="LiberationSans-2212"/><path d="M51.2 19q0-4.7-1.5-8.5-1.6-3.7-4.5-6.2-3-2.6-7.3-4Q33.5-1 27.9-1 21.5-1 17 .6T10 4.8q-2.8 2.6-4.2 6-1.5 3.3-1.9 6.9l9 .8q.5-2.7 1.5-5 1-2.2 2.9-3.8Q19 8 21.6 7.2q2.7-.9 6.3-.9 6.6 0 10.4 3.3 3.8 3.2 3.8 9.7 0 3.8-1.7 6.1T36.2 29q-2.5 1.3-5.5 1.8-3 .4-5.4.4h-5v7.6h4.8q2.5 0 5.2.5t4.9 1.9q2.2 1.3 3.6 3.6 1.5 2.3 1.5 5.9 0 5.5-3.3 8.7-3.2 3.2-9.6 3.2-5.8 0-9.4-3-3.6-3-4.2-8.4L5 52q.5 4.6 2.5 8 2 3.3 5 5.5t6.8 3.3q3.8 1.1 8.2 1.1 5.8 0 9.9-1.4 4.1-1.5 6.8-4 2.6-2.4 3.9-5.7 1.2-3.3 1.2-7 0-3.1-.8-5.8-.8-2.6-2.6-4.7-1.8-2-4.5-3.6-2.7-1.5-6.5-2.3v-.2q4.2-.4 7.2-1.9 3.1-1.4 5.1-3.6 2-2.1 3-4.9 1-2.7 1-5.7z" id="LiberationSans-33"/></defs><g transform="matrix(.1 0 0 -.1 74.8 335.1)" fill="#262626"><use xlink:href="#LiberationSans-2212"/><use x="58.4" xlink:href="#LiberationSans-33"/></g></g></g><g id="xtick_2"><path clip-path="url(#p8c7f2af03c)" d="M141.6 320.9v-299" fill="none" stroke="#fff" stroke-linecap="round" id="line2d_3"/><g id="text_2"><defs><path d="M5 0v6.2q2.5 5.7 6.1 10 3.6 4.5 7.6 8l7.8 6.6q3.9 3 7 6t5 6.4q2 3.3 2 7.5 0 3-1 5.1-.8 2.3-2.4 3.8-1.7 1.5-4 2.2-2.3.8-5.2.8-2.6 0-5-.7-2.2-.8-4-2.2-1.9-1.5-3-3.7-1.2-2.1-1.5-5l-9 .8q.5 3.7 2 7Q9.2 62 12 64.5q2.8 2.5 6.8 4 4 1.3 9.2 1.3 5.2 0 9.2-1.2 4-1.2 6.7-3.6 2.8-2.4 4.2-6 1.5-3.4 1.5-8 0-3.5-1.2-6.6-1.3-3.1-3.4-6-2-2.8-4.8-5.4-2.7-2.7-5.7-5.2l-6-5q-3-2.4-5.7-5-2.6-2.4-4.7-5t-3.3-5.3h35.9V0z" id="LiberationSans-32"/></defs><g transform="matrix(.1 0 0 -.1 136 335.1)" fill="#262626"><use xlink:href="#LiberationSans-2212"/><use x="58.4" xlink:href="#LiberationSans-32"/></g></g></g><g id="xtick_3"><path clip-path="url(#p8c7f2af03c)" d="M202.8 320.9v-299" fill="none" stroke="#fff" stroke-linecap="round" id="line2d_5"/><g id="text_3"><defs><path d="M7.6 0v7.5h17.5v53L9.6 49.2v8.3L26 68.8h8V7.5h16.8V0z" id="LiberationSans-31"/></defs><g transform="matrix(.1 0 0 -.1 197 335.1)" fill="#262626"><use xlink:href="#LiberationSans-2212"/><use x="58.4" xlink:href="#LiberationSans-31"/></g></g></g><g id="xtick_4"><path clip-path="url(#p8c7f2af03c)" d="M263.9 320.9v-299" fill="none" stroke="#fff" stroke-linecap="round" id="line2d_7"/><g id="text_4"><defs><path d="M51.7 34.4q0-9.9-1.9-16.6-1.8-6.8-5.1-11-3.2-4.2-7.6-6Q32.7-1 27.7-1T18.3.8q-4.3 1.8-7.5 6-3.2 4.1-5 10.9-1.9 6.8-1.9 16.7 0 10.4 1.8 17.2 1.9 6.9 5 10.9 3.3 4 7.7 5.7 4.4 1.6 9.6 1.6 5 0 9.2-1.6 4.3-1.7 7.6-5.7 3.2-4 5-10.9 1.9-6.8 1.9-17.2zm-9 0q0 8.2-.9 13.7-1 5.4-2.9 8.7-1.9 3.2-4.6 4.6-2.8 1.3-6.3 1.3-3.7 0-6.6-1.4-2.8-1.3-4.7-4.6-2-3.2-3-8.7-.9-5.4-.9-13.6 0-7.9 1-13.3t3-8.7q1.9-3.3 4.6-4.8 2.8-1.4 6.4-1.4 3.4 0 6.2 1.4 2.8 1.5 4.7 4.8 2 3.3 3 8.7 1 5.4 1 13.3z" id="LiberationSans-30"/></defs><use xlink:href="#LiberationSans-30" transform="matrix(.1 0 0 -.1 261 335.1)" fill="#262626"/></g></g><g id="xtick_5"><path clip-path="url(#p8c7f2af03c)" d="M325 320.9v-299" fill="none" stroke="#fff" stroke-linecap="round" id="line2d_9"/><use xlink:href="#LiberationSans-31" transform="matrix(.1 0 0 -.1 322.2 335.1)" fill="#262626" id="text_5"/></g><g id="xtick_6"><path clip-path="url(#p8c7f2af03c)" d="M386 320.9v-299" fill="none" stroke="#fff" stroke-linecap="round" id="line2d_11"/><use xlink:href="#LiberationSans-32" transform="matrix(.1 0 0 -.1 383.3 335.1)" fill="#262626" id="text_6"/></g><g id="xtick_7"><path clip-path="url(#p8c7f2af03c)" d="M447.2 320.9v-299" fill="none" stroke="#fff" stroke-linecap="round" id="line2d_13"/><use xlink:href="#LiberationSans-33" transform="matrix(.1 0 0 -.1 444.4 335.1)" fill="#262626" id="text_7"/></g></g><g id="matplotlib.axis_2"><g id="ytick_1"><path clip-path="url(#p8c7f2af03c)" d="M47.6 320.9H494" fill="none" stroke="#fff" stroke-linecap="round" id="line2d_15"/><use xlink:href="#LiberationSans-30" transform="matrix(.1 0 0 -.1 35 324.5)" fill="#262626" id="text_8"/></g><g id="ytick_2"><path clip-path="url(#p8c7f2af03c)" d="M47.6 271H494" fill="none" stroke="#fff" stroke-linecap="round" id="line2d_17"/><g transform="matrix(.1 0 0 -.1 12.8 274.5)" fill="#262626" id="text_9"><use xlink:href="#LiberationSans-32"/><use x="55.6" xlink:href="#LiberationSans-30"/><use x="111.2" xlink:href="#LiberationSans-30"/><use x="166.8" xlink:href="#LiberationSans-30"/><use x="222.5" xlink:href="#LiberationSans-30"/></g></g><g id="ytick_3"><path clip-path="url(#p8c7f2af03c)" d="M47.6 221H494" fill="none" stroke="#fff" stroke-linecap="round" id="line2d_19"/><g id="text_10"><defs><path d="M43 15.6V0h-8.3v15.6H2.3v6.8l31.5 46.4H43V22.5h9.7v-7zm-8.3 43.3q0-.3-.5-1l-.9-1.6-1-1.7-.8-1.5-17.7-26-.7-1-1-1.3q-.4-.7-1-1.3l-.7-1h24.3z" id="LiberationSans-34"/></defs><g transform="matrix(.1 0 0 -.1 12.8 224.6)" fill="#262626"><use xlink:href="#LiberationSans-34"/><use x="55.6" xlink:href="#LiberationSans-30"/><use x="111.2" xlink:href="#LiberationSans-30"/><use x="166.8" xlink:href="#LiberationSans-30"/><use x="222.5" xlink:href="#LiberationSans-30"/></g></g></g><g id="ytick_4"><path clip-path="url(#p8c7f2af03c)" d="M47.6 171H494" fill="none" stroke="#fff" stroke-linecap="round" id="line2d_21"/><g id="text_11"><defs><path d="M51.2 22.5q0-5.2-1.4-9.5-1.5-4.3-4.3-7.4-2.8-3.1-7-4.8Q34.6-1 29-1q-6 0-10.5 2.3T11 8q-3 4.3-4.4 10.6Q5 24.8 5 32.8 5 42 6.8 49q1.7 7 4.8 11.6 3.2 4.6 7.8 7 4.5 2.3 10.3 2.3 3.5 0 6.6-.7 3-.7 5.6-2.4 2.5-1.6 4.4-4.3 1.9-2.7 3-6.6L41 54.3q-1.4 4.4-4.4 6.4-3 2-7 2-3.5 0-6.5-1.7-2.9-1.7-5-5.1-2-3.4-3-8.5-1.2-5.2-1.2-12 2.4 4.4 6.8 6.8 4.3 2.3 10 2.3 4.6 0 8.4-1.5 3.8-1.5 6.5-4.4 2.8-2.9 4.2-7 1.5-4 1.5-9zm-9-.4q0 3.6-.8 6.5-.9 2.9-2.6 4.9-1.8 2-4.4 3-2.6 1.2-6 1.2-2.4 0-4.8-.7-2.5-.7-4.4-2.3-2-1.6-3.3-4.2-1.2-2.6-1.2-6.3 0-3.8 1-7 1-3.4 2.8-5.8 1.8-2.5 4.4-3.9 2.6-1.4 5.8-1.4 3.2 0 5.7 1.1t4.3 3.2q1.7 2 2.7 5 .9 3 .9 6.7z" id="LiberationSans-36"/></defs><g transform="matrix(.1 0 0 -.1 12.8 174.6)" fill="#262626"><use xlink:href="#LiberationSans-36"/><use x="55.6" xlink:href="#LiberationSans-30"/><use x="111.2" xlink:href="#LiberationSans-30"/><use x="166.8" xlink:href="#LiberationSans-30"/><use x="222.5" xlink:href="#LiberationSans-30"/></g></g></g><g id="ytick_5"><path clip-path="url(#p8c7f2af03c)" d="M47.6 121H494" fill="none" stroke="#fff" stroke-linecap="round" id="line2d_23"/><g id="text_12"><defs><path d="M51.3 19.2q0-4.4-1.4-8-1.4-3.8-4.3-6.5Q42.8 2 38.3.5 34-1 27.8-1q-6 0-10.4 1.5Q12.9 2 10 4.7q-2.9 2.7-4.3 6.4t-1.4 8q0 3.8 1.2 6.7 1.1 3 3 5 2 2.2 4.5 3.4 2.4 1.3 5 1.8v.2q-2.8.7-5 2.2-2.4 1.5-4 3.6-1.4 2.1-2.3 4.7-.7 2.6-.7 5.5 0 3.6 1.3 6.8 1.4 3.2 4.2 5.6 2.7 2.4 6.8 3.8 4 1.4 9.3 1.4 5.6 0 9.8-1.4 4.1-1.4 6.8-3.8t4-5.7q1.4-3.2 1.4-6.8 0-2.8-.9-5.4Q48 44 46.5 42q-1.5-2.2-3.8-3.7-2.3-1.4-5.2-2V36q3-.5 5.5-1.8t4.4-3.4q1.8-2.1 2.9-5 1-3 1-6.7zM40.4 51.6q0 2.6-.6 4.7-.7 2.2-2.2 3.7-1.5 1.6-4 2.4-2.4.9-6 .9-3.4 0-5.8-.9-2.4-.8-4-2.4-1.5-1.5-2.2-3.7-.7-2.1-.7-4.7 0-2 .6-4.2.5-2.1 2-3.9 1.3-1.8 3.8-2.9 2.5-1.1 6.4-1.1 4.2 0 6.7 1.1t3.9 2.9q1.3 1.8 1.7 4 .4 2 .4 4.1zM42.1 20q0 2.5-.6 4.8-.7 2.4-2.4 4.1-1.6 1.8-4.5 3-2.8 1-7 1-3.8 0-6.5-1-2.7-1.2-4.4-3-1.7-1.8-2.5-4.2-.8-2.3-.8-4.9 0-3.1.8-5.8.8-2.6 2.5-4.5 1.7-1.8 4.5-2.9 2.8-1 6.7-1 4 0 6.8 1 2.7 1 4.4 3 1.6 1.8 2.3 4.5.7 2.7.7 6z" id="LiberationSans-38"/></defs><g transform="matrix(.1 0 0 -.1 12.8 124.7)" fill="#262626"><use xlink:href="#LiberationSans-38"/><use x="55.6" xlink:href="#LiberationSans-30"/><use x="111.2" xlink:href="#LiberationSans-30"/><use x="166.8" xlink:href="#LiberationSans-30"/><use x="222.5" xlink:href="#LiberationSans-30"/></g></g></g><g id="ytick_6"><path clip-path="url(#p8c7f2af03c)" d="M47.6 71H494" fill="none" stroke="#fff" stroke-linecap="round" id="line2d_25"/><g transform="matrix(.1 0 0 -.1 7.2 74.7)" fill="#262626" id="text_13"><use xlink:href="#LiberationSans-31"/><use x="55.6" xlink:href="#LiberationSans-30"/><use x="111.2" xlink:href="#LiberationSans-30"/><use x="166.8" xlink:href="#LiberationSans-30"/><use x="222.5" xlink:href="#LiberationSans-30"/><use x="278.1" xlink:href="#LiberationSans-30"/></g></g></g><path clip-path="url(#p8c7f2af03c)" d="M67.9 320.9h13.5v-9H67.9z" fill="#4c72b0" id="patch_3"/><path clip-path="url(#p8c7f2af03c)" d="M81.4 320.9h13.5-13.5z" fill="#4c72b0" id="patch_4"/><path clip-path="url(#p8c7f2af03c)" d="M95 320.9h13.4v-6H95z" fill="#4c72b0" id="patch_5"/><path clip-path="url(#p8c7f2af03c)" d="M108.4 320.9H122v-4.5h-13.6z" fill="#4c72b0" id="patch_6"/><path clip-path="url(#p8c7f2af03c)" d="M122 320.9h13.5v-19H122z" fill="#4c72b0" id="patch_7"/><path clip-path="url(#p8c7f2af03c)" d="M135.5 320.9H149v-12.7h-13.5z" fill="#4c72b0" id="patch_8"/><path clip-path="url(#p8c7f2af03c)" d="M149 320.9h13.5v-36.4H149z" fill="#4c72b0" id="patch_9"/><path clip-path="url(#p8c7f2af03c)" d="M162.5 320.9h13.6v-79.2h-13.6z" fill="#4c72b0" id="patch_10"/><path clip-path="url(#p8c7f2af03c)" d="M176 320.9h13.6V217h-13.5z" fill="#4c72b0" id="patch_11"/><path clip-path="url(#p8c7f2af03c)" d="M189.6 320.9h13.5V203.4h-13.5z" fill="#4c72b0" id="patch_12"/><path clip-path="url(#p8c7f2af03c)" d="M203.1 320.9h13.6V123.2H203z" fill="#4c72b0" id="patch_13"/><path clip-path="url(#p8c7f2af03c)" d="M216.7 320.9h13.5v-126h-13.5z" fill="#4c72b0" id="patch_14"/><path clip-path="url(#p8c7f2af03c)" d="M230.2 320.9h13.5V80.4h-13.5z" fill="#4c72b0" id="patch_15"/><path clip-path="url(#p8c7f2af03c)" d="M243.7 320.9h13.5V149.8h-13.5z" fill="#4c72b0" id="patch_16"/><path clip-path="url(#p8c7f2af03c)" d="M257.2 320.9h13.6V36h-13.6z" fill="#4c72b0" id="patch_17"/><path clip-path="url(#p8c7f2af03c)" d="M270.8 320.9h13.5v-187h-13.5z" fill="#4c72b0" id="patch_18"/><path clip-path="url(#p8c7f2af03c)" d="M284.3 320.9h13.5v-198h-13.5z" fill="#4c72b0" id="patch_19"/><path clip-path="url(#p8c7f2af03c)" d="M297.8 320.9h13.5V142h-13.5z" fill="#4c72b0" id="patch_20"/><path clip-path="url(#p8c7f2af03c)" d="M311.3 320.9H325V177.4h-13.6z" fill="#4c72b0" id="patch_21"/><path clip-path="url(#p8c7f2af03c)" d="M324.9 320.9h13.5V216.3h-13.5z" fill="#4c72b0" id="patch_22"/><path clip-path="url(#p8c7f2af03c)" d="M338.4 320.9h13.5v-70.5h-13.5z" fill="#4c72b0" id="patch_23"/><path clip-path="url(#p8c7f2af03c)" d="M352 320.9h13.5v-58.5h-13.6z" fill="#4c72b0" id="patch_24"/><path clip-path="url(#p8c7f2af03c)" d="M365.5 320.9H379V270h-13.5z" fill="#4c72b0" id="patch_25"/><path clip-path="url(#p8c7f2af03c)" d="M379 320.9h13.5v-34.5H379z" fill="#4c72b0" id="patch_26"/><path clip-path="url(#p8c7f2af03c)" d="M392.5 320.9H406v-39.7h-13.5z" fill="#4c72b0" id="patch_27"/><path clip-path="url(#p8c7f2af03c)" d="M406 320.9h13.6v-20H406z" fill="#4c72b0" id="patch_28"/><path clip-path="url(#p8c7f2af03c)" d="M419.6 320.9H433V318h-13.5z" fill="#4c72b0" id="patch_29"/><path clip-path="url(#p8c7f2af03c)" d="M433 320.9h13.6v-1h-13.5z" fill="#4c72b0" id="patch_30"/><path clip-path="url(#p8c7f2af03c)" d="M446.6 320.9h13.5v-.4h-13.5z" fill="#4c72b0" id="patch_31"/><path clip-path="url(#p8c7f2af03c)" d="M460.1 320.9h13.6v-.2H460z" fill="#4c72b0" id="patch_32"/><path d="M47.6 320.9v-299" fill="none" id="patch_33"/><path d="M494 320.9v-299" fill="none" id="patch_34"/><path d="M47.6 320.9H494" fill="none" id="patch_35"/><path d="M47.6 21.9H494" fill="none" id="patch_36"/><g id="text_14"><defs><path d="M37.5 0v33.5q0 3.9-.5 6.4-.5 2.6-1.6 4.2-1.2 1.6-3 2.3-1.9.6-4.6.6-2.8 0-5-1-2.2-1.2-3.8-3.3-1.6-2-2.5-5-.8-3.1-.8-7V0H6.9v48.5l-.2 2.8v1.5h8.2l.1-1.3.2-2.5v-2.8l.1-2.4h.2q1.2 2.3 2.5 4.2 1.4 1.8 3.2 3 1.8 1.4 4.2 2 2.4.8 5.5.8 6 0 9.5-2.4t4.9-7.6h.1q1.2 2.3 2.6 4.2 1.5 1.8 3.5 3 2 1.4 4.4 2 2.4.8 5.5.8 4 0 7-1 2.8-1.1 4.7-3.4 1.9-2.2 2.7-5.8.9-3.5.9-8.4V0H68v33.5q0 3.9-.5 6.4-.5 2.6-1.6 4.2-1.2 1.6-3 2.3-1.9.6-4.6.6-2.7 0-5-1-2.2-1-3.8-3.1-1.6-2-2.5-5.1-.8-3.1-.8-7.2V0z" id="LiberationSans-6d"/><path d="M35.2 61.2V0h-9.3v61.2H2.3v7.6h56.5v-7.6z" id="LiberationSans-54"/><path d="M20.2-1q-8 0-12 4.2t-4 11.6q0 5.2 2 8.5 2 3.4 5.2 5.3t7.3 2.6q4.1.7 8.3.8l12 .2v3q0 3.2-.8 5.5-.7 2.3-2 3.7-1.5 1.4-3.6 2-2.1.7-5 .7-2.6 0-4.6-.4-2-.3-3.6-1.3-1.5-1-2.4-2.6-1-1.6-1.2-4l-9.2.7q.5 3.2 1.8 5.8 1.4 2.6 4 4.5 2.4 1.9 6.2 3 3.8 1 9.2 1 10 0 15-4.6 5-4.5 5-13.2V13.3q0-4 1-6 1-1.9 4-1.9l1.4.1 1.4.3V.3Q54-.1 52.3-.3q-1.6-.2-3.5-.2-2.5 0-4.2.7-1.8.6-3 2-1 1.3-1.7 3.3-.5 2-.7 4.6h-.3q-1.4-2.5-3-4.6-1.8-2-4-3.5Q29.6.6 26.8-.2 23.9-1 20.2-1zm2 6.6q4.2 0 7.4 1.5 3.1 1.6 5.2 4 2 2.4 3 5.2 1.1 2.8 1.1 5.4v4.4l-9.6-.2q-3.2 0-6.1-.5-3-.4-5.1-1.6-2.2-1.2-3.5-3.4-1.3-2.2-1.3-5.8 0-4.3 2.3-6.6 2.3-2.4 6.6-2.4z" id="LiberationSans-61"/><path d="M40.3 0v33.5q0 3.9-.6 6.4-.5 2.6-1.8 4.2t-3.4 2.3q-2 .6-5.1.6-3.1 0-5.6-1-2.6-1.2-4.3-3.3-1.8-2-2.8-5-1-3.1-1-7V0H7v48.5l-.2 2.8v1.5h8.2l.1-1.3.2-2.5v-2.8l.1-2.4h.2q1.3 2.3 2.8 4.2 1.5 1.8 3.5 3 2 1.4 4.6 2 2.6.8 6 .8 4.4 0 7.5-1 3.2-1.1 5.3-3.4 2-2.2 3-5.8 1-3.5 1-8.4V0z" id="LiberationSans-6e"/><path d="M46.4 14.6q0-3.7-1.5-6.6-1.4-3-4.1-5Q38 1.2 34 0q-4-1-9-1-4.6 0-8.3.7Q13 .4 10.2 2 7.4 3.6 5.5 6.1q-1.8 2.6-2.7 6.3l7.7 1.5q1.2-4.2 4.7-6.2t9.8-2q2.8 0 5.1.4 2.4.4 4.1 1.4Q36 8.5 37 10q1 1.6 1 4 0 2.3-1.2 3.8-1.1 1.6-3.1 2.6t-4.9 1.8l-6.2 1.7q-3.2.8-6.3 1.8-3.2 1-5.7 2.7-2.5 1.7-4 4.2-1.6 2.5-1.6 6.3 0 7.2 5.1 11 5.2 3.8 15 3.8 8.8 0 14-3.1 5-3 6.5-9.9l-8-1q-.4 2.1-1.6 3.5-1.1 1.4-2.8 2.2-1.6.9-3.7 1.3-2.1.3-4.4.3-6 0-8.8-1.8-2.8-1.8-2.8-5.5 0-2.1 1-3.5 1.1-1.4 3-2.3 1.9-1 4.5-1.7l5.8-1.5 4.3-1.1q2.2-.6 4.3-1.5 2-.9 3.9-2 1.8-1.1 3.2-2.8 1.4-1.6 2.2-3.7.8-2.2.8-5z" id="LiberationSans-73"/><path d="M17.6 46.4V0H8.8v46.4H1.4v6.4h7.4v6q0 2.9.6 5.3.5 2.5 2 4.3 1.4 1.9 3.9 3 2.5 1 6.4 1l3.3-.2q1.7-.1 3-.4V65l-2 .3h-2q-2 0-3.2-.5-1.2-.5-2-1.5-.6-1-1-2.5-.2-1.4-.2-3.3v-4.8H28v-6.4z" id="LiberationSans-66"/><path d="M51.4 26.5q0-14-6-20.7Q39.1-1 27.5-1 22-1 17.7.7q-4.3 1.6-7.3 5-3 3.5-4.6 8.6-1.6 5.2-1.6 12.2 0 27.3 23.7 27.3 6.1 0 10.6-1.7t7.3-5.1q2.9-3.4 4.2-8.6 1.4-5.1 1.4-12zm-9.2 0q0 6.1-1 10.1T38.5 43q-1.9 2.4-4.5 3.4-2.7 1-6 1t-6-1q-2.8-1-4.7-3.5-1.9-2.4-2.9-6.4t-1-10q0-6.2 1.1-10.2 1-4 3-6.4 1.8-2.4 4.4-3.4 2.6-1 5.6-1 3.4 0 6 1 2.8 1 4.7 3.3 2 2.4 3 6.4 1 4.1 1 10.3z" id="LiberationSans-6f"/><path d="M7 0v43.9l-.2 3.4v3l-.2 2.5H15l.2-2.5.1-3 .1-2.9V42h.2q1 3 2 5.3 1 2.2 2.5 3.7 1.4 1.4 3.3 2 2 .8 4.8.8l2-.2 1.5-.3v-8l-2 .3-2.6.1q-3 0-5.2-1.3-2.1-1.4-3.5-3.8-1.3-2.4-2-5.8-.6-3.3-.6-7.3V0z" id="LiberationSans-72"/><path d="M13.5 24.6q0-4.2.8-7.7.9-3.5 2.7-6 1.8-2.5 4.5-3.9 2.8-1.4 6.7-1.4 5.7 0 9.2 2.3 3.4 2.3 4.6 5.8l7.8-2.2q-.9-2.2-2.4-4.4-1.4-2.2-4-4-2.4-1.8-6.2-3-3.7-1-9-1Q16.5-1 10.4 6q-6.2 7-6.2 20.8 0 7.4 1.9 12.5 1.9 5.2 5 8.4 3.3 3.2 7.6 4.7 4.3 1.4 9.2 1.4 6.6 0 11-2.1 4.6-2.2 7.3-6t3.8-8.9q1.2-5.1 1.2-11v-1.2zM42 31.3q-.7 8.4-4.3 12.2-3.5 3.8-10 3.8-2.3 0-4.7-.7-2.4-.7-4.4-2.5-2-1.8-3.5-5-1.4-3-1.6-7.8z" id="LiberationSans-65"/><path d="M40 8.5q-2.4-5-6.4-7.3-4-2.2-10-2.2Q13.6-1 9 5.8q-4.7 6.7-4.7 20.4 0 27.6 19.4 27.6 6 0 10-2.2t6.5-7v27.9h8.8V10.9 7.2 4l.2-2.5V0h-8.3l-.2 1.4-.1 2-.2 2.5v2.6zm-26.6 18q0-5.5.7-9.4.7-4 2.2-6.4 1.5-2.5 3.9-3.7 2.3-1.2 5.7-1.2 3.4 0 6.1 1.1 2.7 1.2 4.5 3.7 1.7 2.5 2.7 6.5.9 4 .9 10 0 5.6-1 9.4-.9 4-2.7 6.3-1.8 2.4-4.4 3.5-2.6 1-6 1-3.3 0-5.6-1.1t-3.9-3.6Q14.9 40 14.2 36q-.8-4-.8-9.6z" id="LiberationSans-64"/><path d="M67.4 35.1q0-8.6-2.6-15.2-2.5-6.5-7-11Q53.3 4.6 47 2.4 41.1 0 34 0H8.2v68.8H31q8 0 14.6-2 6.7-2 11.6-6 4.8-4.2 7.5-10.6 2.7-6.3 2.7-15zm-9.3 0q0 7-2 12-2 4.9-5.7 8-3.6 3.2-8.6 4.7t-11 1.5H17.5V7.5H33q5.4 0 10 1.7 4.6 1.8 8 5.3 3.4 3.4 5.3 8.6Q58 28.3 58 35z" id="LiberationSans-44"/><path d="M6.7 64v8.5h8.8V64zm0-64v52.8h8.8V0z" id="LiberationSans-69"/><path d="M27 .4l-4-.9q-2-.3-4.8-.3-10.6 0-10.6 12v35.2h-6v6.4H8l2.5 11.9h6V52.8h9.7v-6.4h-9.8V13.1q0-3.8 1.2-5.4Q19 6.2 22 6.2q1.3 0 2.4.2l2.6.5z" id="LiberationSans-74"/><path d="M51.4 26.7Q51.4-1 32-1q-6 0-10 2.2t-6.5 7l-.1-2.6-.2-2.6-.1-2-.2-1H6.5v1.5L6.6 4l.1 3.2v65.3h8.8V51.8 49v-2.4l-.2-2.3h.2q2.5 5.1 6.5 7.3t10 2.2q10 0 14.7-6.7 4.7-6.8 4.7-20.4zm-9.2-.3q0 5.4-.7 9.4-.7 3.9-2.2 6.4-1.5 2.5-3.8 3.6Q33 47 29.7 47t-6-1.1q-2.7-1.1-4.5-3.6-1.8-2.5-2.7-6.6-1-4-1-9.9 0-5.6 1-9.5.9-3.8 2.7-6.3 1.8-2.4 4.4-3.4 2.6-1 6-1 3.3 0 5.6 1 2.3 1.2 4 3.7 1.5 2.4 2.2 6.4.8 4 .8 9.7z" id="LiberationSans-62"/><path d="M15.3 52.8V19.3q0-3.8.6-6.4.6-2.6 1.8-4.2 1.3-1.6 3.4-2.2 2-.7 5.1-.7 3.1 0 5.7 1.1 2.5 1.1 4.3 3.2 1.7 2 2.7 5.1 1 3 1 7v30.6h8.8V11.3 7.8 4.3l.2-2.8V0h-8.2l-.1 1.3-.1 2.5-.2 2.8V9H40Q39 6.7 37.4 5 35.8 3 33.8 1.7q-2-1.3-4.5-2-2.6-.7-6-.7-4.5 0-7.6 1-3.2 1.2-5.2 3.4-2 2.3-3 5.8t-1 8.4v35.2z" id="LiberationSans-75"/></defs><g transform="matrix(.12 0 0 -.12 161.7 15.9)" fill="#262626"><use xlink:href="#LiberationSans-54"/><use x="61" xlink:href="#LiberationSans-72"/><use x="94.3" xlink:href="#LiberationSans-61"/><use x="150" xlink:href="#LiberationSans-6e"/><use x="205.6" xlink:href="#LiberationSans-73"/><use x="255.6" xlink:href="#LiberationSans-66"/><use x="283.4" xlink:href="#LiberationSans-6f"/><use x="339" xlink:href="#LiberationSans-72"/><use x="372.3" xlink:href="#LiberationSans-6d"/><use x="455.6" xlink:href="#LiberationSans-65"/><use x="511.2" xlink:href="#LiberationSans-64"/><use x="566.8" xlink:href="#LiberationSans-20"/><use x="594.6" xlink:href="#LiberationSans-44"/><use x="666.8" xlink:href="#LiberationSans-69"/><use x="689" xlink:href="#LiberationSans-73"/><use x="739" xlink:href="#LiberationSans-74"/><use x="766.8" xlink:href="#LiberationSans-72"/><use x="800.1" xlink:href="#LiberationSans-69"/><use x="822.3" xlink:href="#LiberationSans-62"/><use x="877.9" xlink:href="#LiberationSans-75"/><use x="933.5" xlink:href="#LiberationSans-74"/><use x="961.3" xlink:href="#LiberationSans-69"/><use x="983.5" xlink:href="#LiberationSans-6f"/><use x="1039.2" xlink:href="#LiberationSans-6e"/><use x="1094.8" xlink:href="#LiberationSans-20"/><use x="1122.6" xlink:href="#LiberationSans-6f"/><use x="1178.2" xlink:href="#LiberationSans-66"/><use x="1206" xlink:href="#LiberationSans-20"/><use x="1233.7" xlink:href="#LiberationSans-66"/><use x="1261.5" xlink:href="#LiberationSans-61"/><use x="1317.1" xlink:href="#LiberationSans-72"/><use x="1350.4" xlink:href="#LiberationSans-65"/><use x="1406.1" xlink:href="#LiberationSans-20"/><use x="1433.8" xlink:href="#LiberationSans-61"/><use x="1489.5" xlink:href="#LiberationSans-6d"/><use x="1572.8" xlink:href="#LiberationSans-6f"/><use x="1628.4" xlink:href="#LiberationSans-75"/><use x="1684" xlink:href="#LiberationSans-6e"/><use x="1739.6" xlink:href="#LiberationSans-74"/><use x="1767.4" xlink:href="#LiberationSans-73"/></g></g></g></g><defs><clipPath id="p8c7f2af03c"><path d="M47.6 21.9H494v299H47.6z"/></clipPath></defs></svg>