<svg viewBox="0 0 483 358" xmlns="http://www.w3.org/2000/svg" xmlns:xlink="http://www.w3.org/1999/xlink"><defs><style>*{stroke-linecap:butt;stroke-linejoin:round}</style></defs><g id="figure_1"><path d="M0 358.7h483.2V0H0z" fill="#fff" id="patch_1"/><g id="axes_1"><path d="M29.6 320.9H476v-299H29.6z" fill="#eaeaf2" id="patch_2"/><g id="matplotlib.axis_1"><g id="xtick_1"><path clip-path="url(#pba82d0beaf)" d="M49.9 320.9v-299" fill="none" stroke="#fff" stroke-linecap="round" id="line2d_1"/><g id="text_1"><defs><path d="M5 29.7v7.1h48.5v-7.1z" id="LiberationSans-2212"/><path d="M51.4 22.4q0-5.2-1.5-9.5-1.6-4.3-4.7-7.4-3-3-7.6-4.8Q33-1 27-1 21.6-1 17.5.3q-4 1.3-6.8 3.5Q8 6 6.3 9 4.7 12 4 15.4l8.9 1q.5-2 1.5-3.8 1-1.8 2.7-3.3Q18.7 8 21.2 7q2.5-.8 6-.8 3.4 0 6.2 1 2.8 1.1 4.8 3.1 2 2.1 3 5 1 3 1 7 0 3-1 5.7t-2.9 4.6q-1.9 2-4.6 3-2.8 1.1-6.3 1.1-2.2 0-4-.4-2-.4-3.5-1-1.6-.7-2.9-1.6l-2.4-2H6l2.3 37.1h39.1v-7.5h-31L15 39.5q2.3 1.8 5.8 3 3.6 1.4 8.4 1.4 5.1 0 9.2-1.6 4.1-1.5 7-4.4 2.9-2.8 4.5-6.8 1.5-4 1.5-8.7z" id="LiberationSans-35"/><path d="M51.7 34.4q0-9.9-1.9-16.6-1.8-6.8-5.1-11-3.2-4.2-7.6-6Q32.7-1 27.7-1T18.3.8q-4.3 1.8-7.5 6-3.2 4.1-5 10.9-1.9 6.8-1.9 16.7 0 10.4 1.8 17.2 1.9 6.9 5 10.9 3.3 4 7.7 5.7 4.4 1.6 9.6 1.6 5 0 9.2-1.6 4.3-1.7 7.6-5.7 3.2-4 5-10.9 1.9-6.8 1.9-17.2zm-9 0q0 8.2-.9 13.7-1 5.4-2.9 8.7-1.9 3.2-4.6 4.6-2.8 1.3-6.3 1.3-3.7 0-6.6-1.4-2.8-1.3-4.7-4.6-2-3.2-3-8.7-.9-5.4-.9-13.6 0-7.9 1-13.3t3-8.7q1.9-3.3 4.6-4.8 2.8-1.4 6.4-1.4 3.4 0 6.2 1.4 2.8 1.5 4.7 4.8 2 3.3 3 8.7 1 5.4 1 13.3z" id="LiberationSans-30"/></defs><g transform="matrix(.1 0 0 -.1 41.4 335.1)" fill="#262626"><use xlink:href="#LiberationSans-2212"/><use x="58.4" xlink:href="#LiberationSans-35"/><use x="114" xlink:href="#LiberationSans-30"/></g></g></g><g id="xtick_2"><path clip-path="url(#pba82d0beaf)" d="M131.4 320.9v-299" fill="none" stroke="#fff" stroke-linecap="round" id="line2d_3"/><use xlink:href="#LiberationSans-30" transform="matrix(.1 0 0 -.1 128.6 335.1)" fill="#262626" id="text_2"/></g><g id="xtick_3"><path clip-path="url(#pba82d0beaf)" d="M212.9 320.9v-299" fill="none" stroke="#fff" stroke-linecap="round" id="line2d_5"/><g transform="matrix(.1 0 0 -.1 207.3 335.1)" fill="#262626" id="text_3"><use xlink:href="#LiberationSans-35"/><use x="55.6" xlink:href="#LiberationSans-30"/></g></g><g id="xtick_4"><path clip-path="url(#pba82d0beaf)" d="M294.4 320.9v-299" fill="none" stroke="#fff" stroke-linecap="round" id="line2d_7"/><g id="text_4"><defs><path d="M7.6 0v7.5h17.5v53L9.6 49.2v8.3L26 68.8h8V7.5h16.8V0z" id="LiberationSans-31"/></defs><g transform="matrix(.1 0 0 -.1 286 335.1)" fill="#262626"><use xlink:href="#LiberationSans-31"/><use x="55.6" xlink:href="#LiberationSans-30"/><use x="111.2" xlink:href="#LiberationSans-30"/></g></g></g><g id="xtick_5"><path clip-path="url(#pba82d0beaf)" d="M375.8 320.9v-299" fill="none" stroke="#fff" stroke-linecap="round" id="line2d_9"/><g transform="matrix(.1 0 0 -.1 367.5 335.1)" fill="#262626" id="text_5"><use xlink:href="#LiberationSans-31"/><use x="55.6" xlink:href="#LiberationSans-35"/><use x="111.2" xlink:href="#LiberationSans-30"/></g></g><g id="xtick_6"><path clip-path="url(#pba82d0beaf)" d="M457.3 320.9v-299" fill="none" stroke="#fff" stroke-linecap="round" id="line2d_11"/><g id="text_6"><defs><path d="M5 0v6.2q2.5 5.7 6.1 10 3.6 4.5 7.6 8l7.8 6.6q3.9 3 7 6t5 6.4q2 3.3 2 7.5 0 3-1 5.1-.8 2.3-2.4 3.8-1.7 1.5-4 2.2-2.3.8-5.2.8-2.6 0-5-.7-2.2-.8-4-2.2-1.9-1.5-3-3.7-1.2-2.1-1.5-5l-9 .8q.5 3.7 2 7Q9.2 62 12 64.5q2.8 2.5 6.8 4 4 1.3 9.2 1.3 5.2 0 9.2-1.2 4-1.2 6.7-3.6 2.8-2.4 4.2-6 1.5-3.4 1.5-8 0-3.5-1.2-6.6-1.3-3.1-3.4-6-2-2.8-4.8-5.4-2.7-2.7-5.7-5.2l-6-5q-3-2.4-5.7-5-2.6-2.4-4.7-5t-3.3-5.3h35.9V0z" id="LiberationSans-32"/></defs><g transform="matrix(.1 0 0 -.1 449 335.1)" fill="#262626"><use xlink:href="#LiberationSans-32"/><use x="55.6" xlink:href="#LiberationSans-30"/><use x="111.2" xlink:href="#LiberationSans-30"/></g></g></g><g id="text_7"><defs><path d="M17.6 46.4V0H8.8v46.4H1.4v6.4h7.4v6q0 2.9.6 5.3.5 2.5 2 4.3 1.4 1.9 3.9 3 2.5 1 6.4 1l3.3-.2q1.7-.1 3-.4V65l-2 .3h-2q-2 0-3.2-.5-1.2-.5-2-1.5-.6-1-1-2.5-.2-1.4-.2-3.3v-4.8H28v-6.4z" id="LiberationSans-66"/><path d="M20.2-1q-8 0-12 4.2t-4 11.6q0 5.2 2 8.5 2 3.4 5.2 5.3t7.3 2.6q4.1.7 8.3.8l12 .2v3q0 3.2-.8 5.5-.7 2.3-2 3.7-1.5 1.4-3.6 2-2.1.7-5 .7-2.6 0-4.6-.4-2-.3-3.6-1.3-1.5-1-2.4-2.6-1-1.6-1.2-4l-9.2.7q.5 3.2 1.8 5.8 1.4 2.6 4 4.5 2.4 1.9 6.2 3 3.8 1 9.2 1 10 0 15-4.6 5-4.5 5-13.2V13.3q0-4 1-6 1-1.9 4-1.9l1.4.1 1.4.3V.3Q54-.1 52.3-.3q-1.6-.2-3.5-.2-2.5 0-4.2.7-1.8.6-3 2-1 1.3-1.7 3.3-.5 2-.7 4.6h-.3q-1.4-2.5-3-4.6-1.8-2-4-3.5Q29.6.6 26.8-.2 23.9-1 20.2-1zm2 6.6q4.2 0 7.4 1.5 3.1 1.6 5.2 4 2 2.4 3 5.2 1.1 2.8 1.1 5.4v4.4l-9.6-.2q-3.2 0-6.1-.5-3-.4-5.1-1.6-2.2-1.2-3.5-3.4-1.3-2.2-1.3-5.8 0-4.3 2.3-6.6 2.3-2.4 6.6-2.4z" id="LiberationSans-61"/><path d="M7 0v43.9l-.2 3.4v3l-.2 2.5H15l.2-2.5.1-3 .1-2.9V42h.2q1 3 2 5.3 1 2.2 2.5 3.7 1.4 1.4 3.3 2 2 .8 4.8.8l2-.2 1.5-.3v-8l-2 .3-2.6.1q-3 0-5.2-1.3-2.1-1.4-3.5-3.8-1.3-2.4-2-5.8-.6-3.3-.6-7.3V0z" id="LiberationSans-72"/><path d="M13.5 24.6q0-4.2.8-7.7.9-3.5 2.7-6 1.8-2.5 4.5-3.9 2.8-1.4 6.7-1.4 5.7 0 9.2 2.3 3.4 2.3 4.6 5.8l7.8-2.2q-.9-2.2-2.4-4.4-1.4-2.2-4-4-2.4-1.8-6.2-3-3.7-1-9-1Q16.5-1 10.4 6q-6.2 7-6.2 20.8 0 7.4 1.9 12.5 1.9 5.2 5 8.4 3.3 3.2 7.6 4.7 4.3 1.4 9.2 1.4 6.6 0 11-2.1 4.6-2.2 7.3-6t3.8-8.9q1.2-5.1 1.2-11v-1.2zM42 31.3q-.7 8.4-4.3 12.2-3.5 3.8-10 3.8-2.3 0-4.7-.7-2.4-.7-4.4-2.5-2-1.8-3.5-5-1.4-3-1.6-7.8z" id="LiberationSans-65"/><path d="M-1.5-19.9v6.4h58.2V-20z" id="LiberationSans-5f"/><path d="M37.5 0v33.5q0 3.9-.5 6.4-.5 2.6-1.6 4.2-1.2 1.6-3 2.3-1.9.6-4.6.6-2.8 0-5-1-2.2-1.2-3.8-3.3-1.6-2-2.5-5-.8-3.1-.8-7V0H6.9v48.5l-.2 2.8v1.5h8.2l.1-1.3.2-2.5v-2.8l.1-2.4h.2q1.2 2.3 2.5 4.2 1.4 1.8 3.2 3 1.8 1.4 4.2 2 2.4.8 5.5.8 6 0 9.5-2.4t4.9-7.6h.1q1.2 2.3 2.6 4.2 1.5 1.8 3.5 3 2 1.4 4.4 2 2.4.8 5.5.8 4 0 7-1 2.8-1.1 4.7-3.4 1.9-2.2 2.7-5.8.9-3.5.9-8.4V0H68v33.5q0 3.9-.5 6.4-.5 2.6-1.6 4.2-1.2 1.6-3 2.3-1.9.6-4.6.6-2.7 0-5-1-2.2-1-3.8-3.1-1.6-2-2.5-5.1-.8-3.1-.8-7.2V0z" id="LiberationSans-6d"/><path d="M51.4 26.5q0-14-6-20.7Q39.1-1 27.5-1 22-1 17.7.7q-4.3 1.6-7.3 5-3 3.5-4.6 8.6-1.6 5.2-1.6 12.2 0 27.3 23.7 27.3 6.1 0 10.6-1.7t7.3-5.1q2.9-3.4 4.2-8.6 1.4-5.1 1.4-12zm-9.2 0q0 6.1-1 10.1T38.5 43q-1.9 2.4-4.5 3.4-2.7 1-6 1t-6-1q-2.8-1-4.7-3.5-1.9-2.4-2.9-6.4t-1-10q0-6.2 1.1-10.2 1-4 3-6.4 1.8-2.4 4.4-3.4 2.6-1 5.6-1 3.4 0 6 1 2.8 1 4.7 3.3 2 2.4 3 6.4 1 4.1 1 10.3z" id="LiberationSans-6f"/><path d="M15.3 52.8V19.3q0-3.8.6-6.4.6-2.6 1.8-4.2 1.3-1.6 3.4-2.2 2-.7 5.1-.7 3.1 0 5.7 1.1 2.5 1.1 4.3 3.2 1.7 2 2.7 5.1 1 3 1 7v30.6h8.8V11.3 7.8 4.3l.2-2.8V0h-8.2l-.1 1.3-.1 2.5-.2 2.8V9H40Q39 6.7 37.4 5 35.8 3 33.8 1.7q-2-1.3-4.5-2-2.6-.7-6-.7-4.5 0-7.6 1-3.2 1.2-5.2 3.4-2 2.3-3 5.8t-1 8.4v35.2z" id="LiberationSans-75"/><path d="M40.3 0v33.5q0 3.9-.6 6.4-.5 2.6-1.8 4.2t-3.4 2.3q-2 .6-5.1.6-3.1 0-5.6-1-2.6-1.2-4.3-3.3-1.8-2-2.8-5-1-3.1-1-7V0H7v48.5l-.2 2.8v1.5h8.2l.1-1.3.2-2.5v-2.8l.1-2.4h.2q1.3 2.3 2.8 4.2 1.5 1.8 3.5 3 2 1.4 4.6 2 2.6.8 6 .8 4.4 0 7.5-1 3.2-1.1 5.3-3.4 2-2.2 3-5.8 1-3.5 1-8.4V0z" id="LiberationSans-6e"/><path d="M27 .4l-4-.9q-2-.3-4.8-.3-10.6 0-10.6 12v35.2h-6v6.4H8l2.5 11.9h6V52.8h9.7v-6.4h-9.8V13.1q0-3.8 1.2-5.4Q19 6.2 22 6.2q1.3 0 2.4.2l2.6.5z" id="LiberationSans-74"/></defs><g transform="matrix(.11 0 0 -.11 222 349.2)" fill="#262626"><use xlink:href="#LiberationSans-66"/><use x="27.8" xlink:href="#LiberationSans-61"/><use x="83.4" xlink:href="#LiberationSans-72"/><use x="116.7" xlink:href="#LiberationSans-65"/><use x="172.3" xlink:href="#LiberationSans-5f"/><use x="227.9" xlink:href="#LiberationSans-61"/><use x="283.5" xlink:href="#LiberationSans-6d"/><use x="366.8" xlink:href="#LiberationSans-6f"/><use x="422.5" xlink:href="#LiberationSans-75"/><use x="478.1" xlink:href="#LiberationSans-6e"/><use x="533.7" xlink:href="#LiberationSans-74"/></g></g></g><g id="matplotlib.axis_2"><g id="ytick_1"><path clip-path="url(#pba82d0beaf)" d="M29.6 307.3H476" fill="none" stroke="#fff" stroke-linecap="round" id="line2d_13"/><g transform="matrix(.1 0 0 -.1 7.2 311)" fill="#262626" id="text_8"><use transform="translate(0 .1)" xlink:href="#LiberationSans-31"/><use transform="translate(55.6 .1)" xlink:href="#LiberationSans-30"/><use transform="matrix(.7 0 0 .7 112.2 37.1)" xlink:href="#LiberationSans-30"/></g></g><g id="ytick_2"><path clip-path="url(#pba82d0beaf)" d="M29.6 267.6H476" fill="none" stroke="#fff" stroke-linecap="round" id="line2d_15"/><g transform="matrix(.1 0 0 -.1 7.2 271.2)" fill="#262626" id="text_9"><use transform="translate(0 .9)" xlink:href="#LiberationSans-31"/><use transform="translate(55.6 .9)" xlink:href="#LiberationSans-30"/><use transform="matrix(.7 0 0 .7 112.2 37.8)" xlink:href="#LiberationSans-31"/></g></g><g id="ytick_3"><path clip-path="url(#pba82d0beaf)" d="M29.6 227.8H476" fill="none" stroke="#fff" stroke-linecap="round" id="line2d_17"/><g transform="matrix(.1 0 0 -.1 7.2 231.4)" fill="#262626" id="text_10"><use transform="translate(0 .1)" xlink:href="#LiberationSans-31"/><use transform="translate(55.6 .1)" xlink:href="#LiberationSans-30"/><use transform="matrix(.7 0 0 .7 112.2 37.1)" xlink:href="#LiberationSans-32"/></g></g><g id="ytick_4"><path clip-path="url(#pba82d0beaf)" d="M29.6 188H476" fill="none" stroke="#fff" stroke-linecap="round" id="line2d_19"/><g id="text_11"><defs><path d="M51.2 19q0-4.7-1.5-8.5-1.6-3.7-4.5-6.2-3-2.6-7.3-4Q33.5-1 27.9-1 21.5-1 17 .6T10 4.8q-2.8 2.6-4.2 6-1.5 3.3-1.9 6.9l9 .8q.5-2.7 1.5-5 1-2.2 2.9-3.8Q19 8 21.6 7.2q2.7-.9 6.3-.9 6.6 0 10.4 3.3 3.8 3.2 3.8 9.7 0 3.8-1.7 6.1T36.2 29q-2.5 1.3-5.5 1.8-3 .4-5.4.4h-5v7.6h4.8q2.5 0 5.2.5t4.9 1.9q2.2 1.3 3.6 3.6 1.5 2.3 1.5 5.9 0 5.5-3.3 8.7-3.2 3.2-9.6 3.2-5.8 0-9.4-3-3.6-3-4.2-8.4L5 52q.5 4.6 2.5 8 2 3.3 5 5.5t6.8 3.3q3.8 1.1 8.2 1.1 5.8 0 9.9-1.4 4.1-1.5 6.8-4 2.6-2.4 3.9-5.7 1.2-3.3 1.2-7 0-3.1-.8-5.8-.8-2.6-2.6-4.7-1.8-2-4.5-3.6-2.7-1.5-6.5-2.3v-.2q4.2-.4 7.2-1.9 3.1-1.4 5.1-3.6 2-2.1 3-4.9 1-2.7 1-5.7z" id="LiberationSans-33"/></defs><g transform="matrix(.1 0 0 -.1 7.2 191.7)" fill="#262626"><use transform="translate(0 .1)" xlink:href="#LiberationSans-31"/><use transform="translate(55.6 .1)" xlink:href="#LiberationSans-30"/><use transform="matrix(.7 0 0 .7 112.2 37.1)" xlink:href="#LiberationSans-33"/></g></g></g><g id="ytick_5"><path clip-path="url(#pba82d0beaf)" d="M29.6 148.4H476" fill="none" stroke="#fff" stroke-linecap="round" id="line2d_21"/><g id="text_12"><defs><path d="M43 15.6V0h-8.3v15.6H2.3v6.8l31.5 46.4H43V22.5h9.7v-7zm-8.3 43.3q0-.3-.5-1l-.9-1.6-1-1.7-.8-1.5-17.7-26-.7-1-1-1.3q-.4-.7-1-1.3l-.7-1h24.3z" id="LiberationSans-34"/></defs><g transform="matrix(.1 0 0 -.1 7.2 152)" fill="#262626"><use transform="translate(0 .9)" xlink:href="#LiberationSans-31"/><use transform="translate(55.6 .9)" xlink:href="#LiberationSans-30"/><use transform="matrix(.7 0 0 .7 112.2 37.8)" xlink:href="#LiberationSans-34"/></g></g></g><g id="ytick_6"><path clip-path="url(#pba82d0beaf)" d="M29.6 108.6H476" fill="none" stroke="#fff" stroke-linecap="round" id="line2d_23"/><g transform="matrix(.1 0 0 -.1 7.2 112.2)" fill="#262626" id="text_13"><use transform="translate(0 .9)" xlink:href="#LiberationSans-31"/><use transform="translate(55.6 .9)" xlink:href="#LiberationSans-30"/><use transform="matrix(.7 0 0 .7 112.2 37.8)" xlink:href="#LiberationSans-35"/></g></g><g id="ytick_7"><path clip-path="url(#pba82d0beaf)" d="M29.6 68.9H476" fill="none" stroke="#fff" stroke-linecap="round" id="line2d_25"/><g id="text_14"><defs><path d="M51.2 22.5q0-5.2-1.4-9.5-1.5-4.3-4.3-7.4-2.8-3.1-7-4.8Q34.6-1 29-1q-6 0-10.5 2.3T11 8q-3 4.3-4.4 10.6Q5 24.8 5 32.8 5 42 6.8 49q1.7 7 4.8 11.6 3.2 4.6 7.8 7 4.5 2.3 10.3 2.3 3.5 0 6.6-.7 3-.7 5.6-2.4 2.5-1.6 4.4-4.3 1.9-2.7 3-6.6L41 54.3q-1.4 4.4-4.4 6.4-3 2-7 2-3.5 0-6.5-1.7-2.9-1.7-5-5.1-2-3.4-3-8.5-1.2-5.2-1.2-12 2.4 4.4 6.8 6.8 4.3 2.3 10 2.3 4.6 0 8.4-1.5 3.8-1.5 6.5-4.4 2.8-2.9 4.2-7 1.5-4 1.5-9zm-9-.4q0 3.6-.8 6.5-.9 2.9-2.6 4.9-1.8 2-4.4 3-2.6 1.2-6 1.2-2.4 0-4.8-.7-2.5-.7-4.4-2.3-2-1.6-3.3-4.2-1.2-2.6-1.2-6.3 0-3.8 1-7 1-3.4 2.8-5.8 1.8-2.5 4.4-3.9 2.6-1.4 5.8-1.4 3.2 0 5.7 1.1t4.3 3.2q1.7 2 2.7 5 .9 3 .9 6.7z" id="LiberationSans-36"/></defs><g transform="matrix(.1 0 0 -.1 7.2 72.5)" fill="#262626"><use transform="translate(0 .1)" xlink:href="#LiberationSans-31"/><use transform="translate(55.6 .1)" xlink:href="#LiberationSans-30"/><use transform="matrix(.7 0 0 .7 112.2 37.1)" xlink:href="#LiberationSans-36"/></g></g></g><g id="ytick_8"><path clip-path="url(#pba82d0beaf)" d="M29.6 29.2H476" fill="none" stroke="#fff" stroke-linecap="round" id="line2d_27"/><g id="text_15"><defs><path d="M50.6 61.7q-5.2-8-9.5-15.2-4.4-7.3-7.5-14.8-3.1-7.3-4.9-15.1Q27 8.8 27 0h-9.2q0 8.3 2 16.2 2 8 5.2 15.6 3.4 7.6 7.8 15T42 61.3H5v7.5h45.5z" id="LiberationSans-37"/></defs><g transform="matrix(.1 0 0 -.1 7.2 32.8)" fill="#262626"><use transform="translate(0 .9)" xlink:href="#LiberationSans-31"/><use transform="translate(55.6 .9)" xlink:href="#LiberationSans-30"/><use transform="matrix(.7 0 0 .7 112.2 37.8)" xlink:href="#LiberationSans-37"/></g></g></g></g><path clip-path="url(#pba82d0beaf)" d="M49.9 40040h1.6V263H50z" fill="#4c72b0" id="patch_3"/><path clip-path="url(#pba82d0beaf)" d="M51.5 40040h1.7V307.3h-1.7z" fill="#4c72b0" id="patch_4"/><path clip-path="url(#pba82d0beaf)" d="M53.2 40040h1.6-1.6z" fill="#4c72b0" id="patch_5"/><path clip-path="url(#pba82d0beaf)" d="M54.8 40040h1.6-1.6z" fill="#4c72b0" id="patch_6"/><path clip-path="url(#pba82d0beaf)" d="M56.4 40040H58h-1.6z" fill="#4c72b0" id="patch_7"/><path clip-path="url(#pba82d0beaf)" d="M58 40040h1.7V240.1H58z" fill="#4c72b0" id="patch_8"/><path clip-path="url(#pba82d0beaf)" d="M59.7 40040h1.6V288.3h-1.6z" fill="#4c72b0" id="patch_9"/><path clip-path="url(#pba82d0beaf)" d="M61.3 40040h1.6V307.3h-1.6z" fill="#4c72b0" id="patch_10"/><path clip-path="url(#pba82d0beaf)" d="M63 40040h1.6-1.7z" fill="#4c72b0" id="patch_11"/><path clip-path="url(#pba82d0beaf)" d="M64.6 40040h1.6V288.3h-1.6z" fill="#4c72b0" id="patch_12"/><path clip-path="url(#pba82d0beaf)" d="M66.2 40040h1.6V283.4h-1.6z" fill="#4c72b0" id="patch_13"/><path clip-path="url(#pba82d0beaf)" d="M67.8 40040h1.6V307.3h-1.6z" fill="#4c72b0" id="patch_14"/><path clip-path="url(#pba82d0beaf)" d="M69.4 40040h1.7V295.3h-1.7z" fill="#4c72b0" id="patch_15"/><path clip-path="url(#pba82d0beaf)" d="M71 40040h1.7V288.3h-1.6z" fill="#4c72b0" id="patch_16"/><path clip-path="url(#pba82d0beaf)" d="M72.7 40040h1.6V283.4h-1.6z" fill="#4c72b0" id="patch_17"/><path clip-path="url(#pba82d0beaf)" d="M74.3 40040H76V279.5h-1.7z" fill="#4c72b0" id="patch_18"/><path clip-path="url(#pba82d0beaf)" d="M76 40040h1.6V283.4H76z" fill="#4c72b0" id="patch_19"/><path clip-path="url(#pba82d0beaf)" d="M77.6 40040h1.6V276.4h-1.6z" fill="#4c72b0" id="patch_20"/><path clip-path="url(#pba82d0beaf)" d="M79.2 40040H81V295.3h-1.7z" fill="#4c72b0" id="patch_21"/><path clip-path="url(#pba82d0beaf)" d="M80.9 40040h1.6V279.5h-1.6z" fill="#4c72b0" id="patch_22"/><path clip-path="url(#pba82d0beaf)" d="M82.5 40040H84V269.4h-1.6z" fill="#4c72b0" id="patch_23"/><path clip-path="url(#pba82d0beaf)" d="M84.1 40040h1.6V283.4h-1.6z" fill="#4c72b0" id="patch_24"/><path clip-path="url(#pba82d0beaf)" d="M85.7 40040h1.7V271.4h-1.7z" fill="#4c72b0" id="patch_25"/><path clip-path="url(#pba82d0beaf)" d="M87.4 40040H89V283.4h-1.6z" fill="#4c72b0" id="patch_26"/><path clip-path="url(#pba82d0beaf)" d="M89 40040h1.6V283.4H89z" fill="#4c72b0" id="patch_27"/><path clip-path="url(#pba82d0beaf)" d="M90.6 40040h1.7V273.7h-1.7z" fill="#4c72b0" id="patch_28"/><path clip-path="url(#pba82d0beaf)" d="M92.3 40040h1.6V273.7h-1.6z" fill="#4c72b0" id="patch_29"/><path clip-path="url(#pba82d0beaf)" d="M93.9 40040h1.6V271.4H94z" fill="#4c72b0" id="patch_30"/><path clip-path="url(#pba82d0beaf)" d="M95.5 40040h1.7V276.4h-1.7z" fill="#4c72b0" id="patch_31"/><path clip-path="url(#pba82d0beaf)" d="M97.2 40040h1.6V259.4h-1.6z" fill="#4c72b0" id="patch_32"/><path clip-path="url(#pba82d0beaf)" d="M98.8 40040h1.6V251h-1.6z" fill="#4c72b0" id="patch_33"/><path clip-path="url(#pba82d0beaf)" d="M100.4 40040h1.6V288.3h-1.6z" fill="#4c72b0" id="patch_34"/><path clip-path="url(#pba82d0beaf)" d="M102 40040h1.7V264.4H102z" fill="#4c72b0" id="patch_35"/><path clip-path="url(#pba82d0beaf)" d="M103.7 40040h1.6V269.4h-1.6z" fill="#4c72b0" id="patch_36"/><path clip-path="url(#pba82d0beaf)" d="M105.3 40040h1.6V256.5h-1.6z" fill="#4c72b0" id="patch_37"/><path clip-path="url(#pba82d0beaf)" d="M107 40040h1.6V256.5h-1.7z" fill="#4c72b0" id="patch_38"/><path clip-path="url(#pba82d0beaf)" d="M108.6 40040h1.6V261.7h-1.6z" fill="#4c72b0" id="patch_39"/><path clip-path="url(#pba82d0beaf)" d="M110.2 40040h1.6V255.6h-1.6z" fill="#4c72b0" id="patch_40"/><path clip-path="url(#pba82d0beaf)" d="M111.8 40040h1.7V267.6h-1.7z" fill="#4c72b0" id="patch_41"/><path clip-path="url(#pba82d0beaf)" d="M113.5 40040h1.6V246h-1.6z" fill="#4c72b0" id="patch_42"/><path clip-path="url(#pba82d0beaf)" d="M115 40040h1.7V248.6h-1.6z" fill="#4c72b0" id="patch_43"/><path clip-path="url(#pba82d0beaf)" d="M116.7 40040h1.6V239.1h-1.6z" fill="#4c72b0" id="patch_44"/><path clip-path="url(#pba82d0beaf)" d="M118.3 40040h1.7V239.8h-1.7z" fill="#4c72b0" id="patch_45"/><path clip-path="url(#pba82d0beaf)" d="M120 40040h1.6V228H120z" fill="#4c72b0" id="patch_46"/><path clip-path="url(#pba82d0beaf)" d="M121.6 40040h1.6V222.5h-1.6z" fill="#4c72b0" id="patch_47"/><path clip-path="url(#pba82d0beaf)" d="M123.2 40040h1.7V210.4h-1.7z" fill="#4c72b0" id="patch_48"/><path clip-path="url(#pba82d0beaf)" d="M124.9 40040h1.6V208.1h-1.6z" fill="#4c72b0" id="patch_49"/><path clip-path="url(#pba82d0beaf)" d="M126.5 40040h1.6V187.9h-1.6z" fill="#4c72b0" id="patch_50"/><path clip-path="url(#pba82d0beaf)" d="M128.1 40040h1.7-1.7z" fill="#4c72b0" id="patch_51"/><path clip-path="url(#pba82d0beaf)" d="M129.8 40040h1.6V279.5h-1.6z" fill="#4c72b0" id="patch_52"/><path clip-path="url(#pba82d0beaf)" d="M131.4 40040h1.6V175.6h-1.6z" fill="#4c72b0" id="patch_53"/><path clip-path="url(#pba82d0beaf)" d="M133 40040h1.6V218.7H133z" fill="#4c72b0" id="patch_54"/><path clip-path="url(#pba82d0beaf)" d="M134.6 40040h1.7V86.6h-1.7z" fill="#4c72b0" id="patch_55"/><path clip-path="url(#pba82d0beaf)" d="M136.3 40040h1.6V60.6h-1.6z" fill="#4c72b0" id="patch_56"/><path clip-path="url(#pba82d0beaf)" d="M137.9 40040h1.6V39.1H138z" fill="#4c72b0" id="patch_57"/><path clip-path="url(#pba82d0beaf)" d="M139.5 40040h1.7V39.6h-1.7z" fill="#4c72b0" id="patch_58"/><path clip-path="url(#pba82d0beaf)" d="M141.2 40040h1.6V35.5h-1.6z" fill="#4c72b0" id="patch_59"/><path clip-path="url(#pba82d0beaf)" d="M142.8 40040h1.6V41.3h-1.6z" fill="#4c72b0" id="patch_60"/><path clip-path="url(#pba82d0beaf)" d="M144.4 40040h1.6V40h-1.6z" fill="#4c72b0" id="patch_61"/><path clip-path="url(#pba82d0beaf)" d="M146 40040h1.7V47H146z" fill="#4c72b0" id="patch_62"/><path clip-path="url(#pba82d0beaf)" d="M147.7 40040h1.6V46.9h-1.6z" fill="#4c72b0" id="patch_63"/><path clip-path="url(#pba82d0beaf)" d="M149.3 40040h1.6V53.9h-1.6z" fill="#4c72b0" id="patch_64"/><path clip-path="url(#pba82d0beaf)" d="M151 40040h1.6V54h-1.7z" fill="#4c72b0" id="patch_65"/><path clip-path="url(#pba82d0beaf)" d="M152.6 40040h1.6V60.8h-1.6z" fill="#4c72b0" id="patch_66"/><path clip-path="url(#pba82d0beaf)" d="M154.2 40040h1.6V60.9h-1.6z" fill="#4c72b0" id="patch_67"/><path clip-path="url(#pba82d0beaf)" d="M155.8 40040h1.7V67.3h-1.7z" fill="#4c72b0" id="patch_68"/><path clip-path="url(#pba82d0beaf)" d="M157.5 40040h1.6V67.4h-1.6z" fill="#4c72b0" id="patch_69"/><path clip-path="url(#pba82d0beaf)" d="M159 40040h1.7V73.4h-1.6z" fill="#4c72b0" id="patch_70"/><path clip-path="url(#pba82d0beaf)" d="M160.7 40040h1.6V73.8h-1.6z" fill="#4c72b0" id="patch_71"/><path clip-path="url(#pba82d0beaf)" d="M162.3 40040h1.7V79.8h-1.7z" fill="#4c72b0" id="patch_72"/><path clip-path="url(#pba82d0beaf)" d="M164 40040h1.6V80.2H164z" fill="#4c72b0" id="patch_73"/><path clip-path="url(#pba82d0beaf)" d="M165.6 40040h1.6V85.9h-1.6z" fill="#4c72b0" id="patch_74"/><path clip-path="url(#pba82d0beaf)" d="M167.2 40040h1.7V86h-1.7z" fill="#4c72b0" id="patch_75"/><path clip-path="url(#pba82d0beaf)" d="M168.9 40040h1.6V90.6h-1.6z" fill="#4c72b0" id="patch_76"/><path clip-path="url(#pba82d0beaf)" d="M170.5 40040h1.6V89.9h-1.6z" fill="#4c72b0" id="patch_77"/><path clip-path="url(#pba82d0beaf)" d="M172.1 40040h1.7V93.3H172z" fill="#4c72b0" id="patch_78"/><path clip-path="url(#pba82d0beaf)" d="M173.8 40040h1.6V92.5h-1.6z" fill="#4c72b0" id="patch_79"/><path clip-path="url(#pba82d0beaf)" d="M175.4 40040h1.6V95.6h-1.6z" fill="#4c72b0" id="patch_80"/><path clip-path="url(#pba82d0beaf)" d="M177 40040h1.6V94.5H177z" fill="#4c72b0" id="patch_81"/><path clip-path="url(#pba82d0beaf)" d="M178.6 40040h1.7V97h-1.7z" fill="#4c72b0" id="patch_82"/><path clip-path="url(#pba82d0beaf)" d="M180.3 40040h1.6V96.5h-1.6z" fill="#4c72b0" id="patch_83"/><path clip-path="url(#pba82d0beaf)" d="M181.9 40040h1.6V99.5H182z" fill="#4c72b0" id="patch_84"/><path clip-path="url(#pba82d0beaf)" d="M183.5 40040h1.7V99.6h-1.7z" fill="#4c72b0" id="patch_85"/><path clip-path="url(#pba82d0beaf)" d="M185.2 40040h1.6V102.7h-1.6z" fill="#4c72b0" id="patch_86"/><path clip-path="url(#pba82d0beaf)" d="M186.8 40040h1.6V103h-1.6z" fill="#4c72b0" id="patch_87"/><path clip-path="url(#pba82d0beaf)" d="M188.4 40040h1.7V105.8h-1.7z" fill="#4c72b0" id="patch_88"/><path clip-path="url(#pba82d0beaf)" d="M190 40040h1.7V107H190z" fill="#4c72b0" id="patch_89"/><path clip-path="url(#pba82d0beaf)" d="M191.7 40040h1.6V110.2h-1.6z" fill="#4c72b0" id="patch_90"/><path clip-path="url(#pba82d0beaf)" d="M193.3 40040h1.6V111.4h-1.6z" fill="#4c72b0" id="patch_91"/><path clip-path="url(#pba82d0beaf)" d="M195 40040h1.6V114.5h-1.7z" fill="#4c72b0" id="patch_92"/><path clip-path="url(#pba82d0beaf)" d="M196.6 40040h1.6V115.6h-1.6z" fill="#4c72b0" id="patch_93"/><path clip-path="url(#pba82d0beaf)" d="M198.2 40040h1.6V119.4h-1.6z" fill="#4c72b0" id="patch_94"/><path clip-path="url(#pba82d0beaf)" d="M199.8 40040h1.7V120.6h-1.7z" fill="#4c72b0" id="patch_95"/><path clip-path="url(#pba82d0beaf)" d="M201.5 40040h1.6V124h-1.6z" fill="#4c72b0" id="patch_96"/><path clip-path="url(#pba82d0beaf)" d="M203 40040h1.7V125.3h-1.6z" fill="#4c72b0" id="patch_97"/><path clip-path="url(#pba82d0beaf)" d="M204.7 40040h1.7V98.7h-1.7z" fill="#4c72b0" id="patch_98"/><path clip-path="url(#pba82d0beaf)" d="M206.4 40040h1.6V130.6h-1.6z" fill="#4c72b0" id="patch_99"/><path clip-path="url(#pba82d0beaf)" d="M208 40040h1.6V134H208z" fill="#4c72b0" id="patch_100"/><path clip-path="url(#pba82d0beaf)" d="M209.6 40040h1.6V134.5h-1.6z" fill="#4c72b0" id="patch_101"/><path clip-path="url(#pba82d0beaf)" d="M211.2 40040h1.7V88.2h-1.7z" fill="#4c72b0" id="patch_102"/><path clip-path="url(#pba82d0beaf)" d="M212.9 40040h1.6V124.8h-1.6z" fill="#4c72b0" id="patch_103"/><path clip-path="url(#pba82d0beaf)" d="M214.5 40040h1.6V139.6h-1.6z" fill="#4c72b0" id="patch_104"/><path clip-path="url(#pba82d0beaf)" d="M216.1 40040h1.7V105.7H216z" fill="#4c72b0" id="patch_105"/><path clip-path="url(#pba82d0beaf)" d="M217.8 40040h1.6V142.6h-1.6z" fill="#4c72b0" id="patch_106"/><path clip-path="url(#pba82d0beaf)" d="M219.4 40040h1.6V145.3h-1.6z" fill="#4c72b0" id="patch_107"/><path clip-path="url(#pba82d0beaf)" d="M221 40040h1.6V144.6H221z" fill="#4c72b0" id="patch_108"/><path clip-path="url(#pba82d0beaf)" d="M222.6 40040h1.7V116.8h-1.7z" fill="#4c72b0" id="patch_109"/><path clip-path="url(#pba82d0beaf)" d="M224.3 40040h1.6V90.7h-1.6z" fill="#4c72b0" id="patch_110"/><path clip-path="url(#pba82d0beaf)" d="M226 40040h1.5V149.9H226z" fill="#4c72b0" id="patch_111"/><path clip-path="url(#pba82d0beaf)" d="M227.5 40040h1.7V151.7h-1.7z" fill="#4c72b0" id="patch_112"/><path clip-path="url(#pba82d0beaf)" d="M229.2 40040h1.6V144.6h-1.6z" fill="#4c72b0" id="patch_113"/><path clip-path="url(#pba82d0beaf)" d="M230.8 40040h1.6V154.8h-1.6z" fill="#4c72b0" id="patch_114"/><path clip-path="url(#pba82d0beaf)" d="M232.4 40040h1.7V156h-1.7z" fill="#4c72b0" id="patch_115"/><path clip-path="url(#pba82d0beaf)" d="M234 40040h1.7V156.4H234z" fill="#4c72b0" id="patch_116"/><path clip-path="url(#pba82d0beaf)" d="M235.7 40040h1.6V159.6h-1.6z" fill="#4c72b0" id="patch_117"/><path clip-path="url(#pba82d0beaf)" d="M237.3 40040h1.6V153.5h-1.6z" fill="#4c72b0" id="patch_118"/><path clip-path="url(#pba82d0beaf)" d="M239 40040h1.6V161.7h-1.7z" fill="#4c72b0" id="patch_119"/><path clip-path="url(#pba82d0beaf)" d="M240.6 40040h1.6V162.2h-1.6z" fill="#4c72b0" id="patch_120"/><path clip-path="url(#pba82d0beaf)" d="M242.2 40040h1.6V161.8h-1.6z" fill="#4c72b0" id="patch_121"/><path clip-path="url(#pba82d0beaf)" d="M243.8 40040h1.7V163h-1.7z" fill="#4c72b0" id="patch_122"/><path clip-path="url(#pba82d0beaf)" d="M245.5 40040h1.6V158h-1.6z" fill="#4c72b0" id="patch_123"/><path clip-path="url(#pba82d0beaf)" d="M247.1 40040h1.6V166h-1.6z" fill="#4c72b0" id="patch_124"/><path clip-path="url(#pba82d0beaf)" d="M248.7 40040h1.7V167.6h-1.7z" fill="#4c72b0" id="patch_125"/><path clip-path="url(#pba82d0beaf)" d="M250.4 40040h1.6V167.2h-1.6z" fill="#4c72b0" id="patch_126"/><path clip-path="url(#pba82d0beaf)" d="M252 40040h1.6V168.7H252z" fill="#4c72b0" id="patch_127"/><path clip-path="url(#pba82d0beaf)" d="M253.6 40040h1.6V161.6h-1.6z" fill="#4c72b0" id="patch_128"/><path clip-path="url(#pba82d0beaf)" d="M255.2 40040h1.7V169h-1.7z" fill="#4c72b0" id="patch_129"/><path clip-path="url(#pba82d0beaf)" d="M256.9 40040h1.6V170.2h-1.6z" fill="#4c72b0" id="patch_130"/><path clip-path="url(#pba82d0beaf)" d="M258.5 40040h1.6V170h-1.6z" fill="#4c72b0" id="patch_131"/><path clip-path="url(#pba82d0beaf)" d="M260.1 40040h1.7V170.1H260z" fill="#4c72b0" id="patch_132"/><path clip-path="url(#pba82d0beaf)" d="M261.8 40040h1.6V161h-1.6z" fill="#4c72b0" id="patch_133"/><path clip-path="url(#pba82d0beaf)" d="M263.4 40040h1.6V173h-1.6z" fill="#4c72b0" id="patch_134"/><path clip-path="url(#pba82d0beaf)" d="M265 40040h1.7V174.7H265z" fill="#4c72b0" id="patch_135"/><path clip-path="url(#pba82d0beaf)" d="M266.7 40040h1.6V174.3h-1.6z" fill="#4c72b0" id="patch_136"/><path clip-path="url(#pba82d0beaf)" d="M268.3 40040h1.6V175.6h-1.6z" fill="#4c72b0" id="patch_137"/><path clip-path="url(#pba82d0beaf)" d="M270 40040h1.5V169.4H270z" fill="#4c72b0" id="patch_138"/><path clip-path="url(#pba82d0beaf)" d="M271.5 40040h1.7V179.3h-1.7z" fill="#4c72b0" id="patch_139"/><path clip-path="url(#pba82d0beaf)" d="M273.2 40040h1.6V179.4h-1.6z" fill="#4c72b0" id="patch_140"/><path clip-path="url(#pba82d0beaf)" d="M274.8 40040h1.6V178.8h-1.6z" fill="#4c72b0" id="patch_141"/><path clip-path="url(#pba82d0beaf)" d="M276.4 40040h1.7V181h-1.7z" fill="#4c72b0" id="patch_142"/><path clip-path="url(#pba82d0beaf)" d="M278 40040h1.7V172.4H278z" fill="#4c72b0" id="patch_143"/><path clip-path="url(#pba82d0beaf)" d="M279.7 40040h1.6V186.2h-1.6z" fill="#4c72b0" id="patch_144"/><path clip-path="url(#pba82d0beaf)" d="M281.3 40040h1.7V187.2h-1.7z" fill="#4c72b0" id="patch_145"/><path clip-path="url(#pba82d0beaf)" d="M283 40040h1.6V189.1H283z" fill="#4c72b0" id="patch_146"/><path clip-path="url(#pba82d0beaf)" d="M284.6 40040h1.6V190.3h-1.6z" fill="#4c72b0" id="patch_147"/><path clip-path="url(#pba82d0beaf)" d="M286.2 40040h1.6V184h-1.6z" fill="#4c72b0" id="patch_148"/><path clip-path="url(#pba82d0beaf)" d="M287.8 40040h1.7V191.9h-1.7z" fill="#4c72b0" id="patch_149"/><path clip-path="url(#pba82d0beaf)" d="M289.5 40040h1.6V194.8h-1.6z" fill="#4c72b0" id="patch_150"/><path clip-path="url(#pba82d0beaf)" d="M291.1 40040h1.6V194h-1.6z" fill="#4c72b0" id="patch_151"/><path clip-path="url(#pba82d0beaf)" d="M292.7 40040h1.7V195.4h-1.7z" fill="#4c72b0" id="patch_152"/><path clip-path="url(#pba82d0beaf)" d="M294.4 40040h1.6V172.2h-1.6z" fill="#4c72b0" id="patch_153"/><path clip-path="url(#pba82d0beaf)" d="M296 40040h1.6V199.3H296z" fill="#4c72b0" id="patch_154"/><path clip-path="url(#pba82d0beaf)" d="M297.6 40040h1.6V200.4h-1.6z" fill="#4c72b0" id="patch_155"/><path clip-path="url(#pba82d0beaf)" d="M299.2 40040h1.7V202.9h-1.7z" fill="#4c72b0" id="patch_156"/><path clip-path="url(#pba82d0beaf)" d="M300.9 40040h1.6V199.5H301z" fill="#4c72b0" id="patch_157"/><path clip-path="url(#pba82d0beaf)" d="M302.5 40040h1.6V196h-1.6z" fill="#4c72b0" id="patch_158"/><path clip-path="url(#pba82d0beaf)" d="M304.1 40040h1.7V203.3H304z" fill="#4c72b0" id="patch_159"/><path clip-path="url(#pba82d0beaf)" d="M305.8 40040h1.6V205h-1.6z" fill="#4c72b0" id="patch_160"/><path clip-path="url(#pba82d0beaf)" d="M307.4 40040h1.6V203.1h-1.6z" fill="#4c72b0" id="patch_161"/><path clip-path="url(#pba82d0beaf)" d="M309 40040h1.7V202.8H309z" fill="#4c72b0" id="patch_162"/><path clip-path="url(#pba82d0beaf)" d="M310.7 40040h1.6V191.3h-1.6z" fill="#4c72b0" id="patch_163"/><path clip-path="url(#pba82d0beaf)" d="M312.3 40040h1.6V204h-1.6z" fill="#4c72b0" id="patch_164"/><path clip-path="url(#pba82d0beaf)" d="M314 40040h1.5V201.8H314z" fill="#4c72b0" id="patch_165"/><path clip-path="url(#pba82d0beaf)" d="M315.5 40040h1.7V207.7h-1.7z" fill="#4c72b0" id="patch_166"/><path clip-path="url(#pba82d0beaf)" d="M317.2 40040h1.6V205.8h-1.6z" fill="#4c72b0" id="patch_167"/><path clip-path="url(#pba82d0beaf)" d="M318.8 40040h1.6V199.3h-1.6z" fill="#4c72b0" id="patch_168"/><path clip-path="url(#pba82d0beaf)" d="M320.4 40040h1.7V210h-1.7z" fill="#4c72b0" id="patch_169"/><path clip-path="url(#pba82d0beaf)" d="M322 40040h1.7V210.8h-1.6z" fill="#4c72b0" id="patch_170"/><path clip-path="url(#pba82d0beaf)" d="M323.7 40040h1.6V211.8h-1.6z" fill="#4c72b0" id="patch_171"/><path clip-path="url(#pba82d0beaf)" d="M325.3 40040h1.7V211.3h-1.7z" fill="#4c72b0" id="patch_172"/><path clip-path="url(#pba82d0beaf)" d="M327 40040h1.6V186.1H327z" fill="#4c72b0" id="patch_173"/><path clip-path="url(#pba82d0beaf)" d="M328.6 40040h1.6V216.7h-1.6z" fill="#4c72b0" id="patch_174"/><path clip-path="url(#pba82d0beaf)" d="M330.2 40040h1.6V216.1h-1.6z" fill="#4c72b0" id="patch_175"/><path clip-path="url(#pba82d0beaf)" d="M331.8 40040h1.7V214.2h-1.7z" fill="#4c72b0" id="patch_176"/><path clip-path="url(#pba82d0beaf)" d="M333.5 40040h1.6V215.2h-1.6z" fill="#4c72b0" id="patch_177"/><path clip-path="url(#pba82d0beaf)" d="M335.1 40040h1.6V200.7h-1.6z" fill="#4c72b0" id="patch_178"/><path clip-path="url(#pba82d0beaf)" d="M336.7 40040h1.7V218.4h-1.7z" fill="#4c72b0" id="patch_179"/><path clip-path="url(#pba82d0beaf)" d="M338.4 40040h1.6V219.7h-1.6z" fill="#4c72b0" id="patch_180"/><path clip-path="url(#pba82d0beaf)" d="M340 40040h1.6V215.7H340z" fill="#4c72b0" id="patch_181"/><path clip-path="url(#pba82d0beaf)" d="M341.6 40040h1.7V216.7h-1.7z" fill="#4c72b0" id="patch_182"/><path clip-path="url(#pba82d0beaf)" d="M343.3 40040h1.6V200.2h-1.6z" fill="#4c72b0" id="patch_183"/><path clip-path="url(#pba82d0beaf)" d="M344.9 40040h1.6V217.6H345z" fill="#4c72b0" id="patch_184"/><path clip-path="url(#pba82d0beaf)" d="M346.5 40040h1.6V219h-1.6z" fill="#4c72b0" id="patch_185"/><path clip-path="url(#pba82d0beaf)" d="M348.1 40040h1.7V221.5H348z" fill="#4c72b0" id="patch_186"/><path clip-path="url(#pba82d0beaf)" d="M349.8 40040h1.6V218.2h-1.6z" fill="#4c72b0" id="patch_187"/><path clip-path="url(#pba82d0beaf)" d="M351.4 40040h1.6V208.1h-1.6z" fill="#4c72b0" id="patch_188"/><path clip-path="url(#pba82d0beaf)" d="M353 40040h1.7V218.2H353z" fill="#4c72b0" id="patch_189"/><path clip-path="url(#pba82d0beaf)" d="M354.7 40040h1.6V225.4h-1.6z" fill="#4c72b0" id="patch_190"/><path clip-path="url(#pba82d0beaf)" d="M356.3 40040h1.6V226h-1.6z" fill="#4c72b0" id="patch_191"/><path clip-path="url(#pba82d0beaf)" d="M358 40040h1.6V223.2h-1.7z" fill="#4c72b0" id="patch_192"/><path clip-path="url(#pba82d0beaf)" d="M359.6 40040h1.6V203.1h-1.6z" fill="#4c72b0" id="patch_193"/><path clip-path="url(#pba82d0beaf)" d="M361.2 40040h1.6V225.9h-1.6z" fill="#4c72b0" id="patch_194"/><path clip-path="url(#pba82d0beaf)" d="M362.8 40040h1.6V227.1h-1.6z" fill="#4c72b0" id="patch_195"/><path clip-path="url(#pba82d0beaf)" d="M364.4 40040h1.7V231.5h-1.7z" fill="#4c72b0" id="patch_196"/><path clip-path="url(#pba82d0beaf)" d="M366 40040h1.7V228h-1.6z" fill="#4c72b0" id="patch_197"/><path clip-path="url(#pba82d0beaf)" d="M367.7 40040h1.6V214.1h-1.6z" fill="#4c72b0" id="patch_198"/><path clip-path="url(#pba82d0beaf)" d="M369.3 40040h1.7V228.7h-1.7z" fill="#4c72b0" id="patch_199"/><path clip-path="url(#pba82d0beaf)" d="M371 40040h1.6V231.5H371z" fill="#4c72b0" id="patch_200"/><path clip-path="url(#pba82d0beaf)" d="M372.6 40040h1.6V228.2h-1.6z" fill="#4c72b0" id="patch_201"/><path clip-path="url(#pba82d0beaf)" d="M374.2 40040h1.6V231.5h-1.6z" fill="#4c72b0" id="patch_202"/><path clip-path="url(#pba82d0beaf)" d="M375.8 40040h1.7V195.9h-1.7z" fill="#4c72b0" id="patch_203"/><path clip-path="url(#pba82d0beaf)" d="M377.5 40040h1.6V232.1h-1.6z" fill="#4c72b0" id="patch_204"/><path clip-path="url(#pba82d0beaf)" d="M379.1 40040h1.6V229h-1.6z" fill="#4c72b0" id="patch_205"/><path clip-path="url(#pba82d0beaf)" d="M380.7 40040h1.7V238.1h-1.7z" fill="#4c72b0" id="patch_206"/><path clip-path="url(#pba82d0beaf)" d="M382.4 40040h1.6V230h-1.6z" fill="#4c72b0" id="patch_207"/><path clip-path="url(#pba82d0beaf)" d="M384 40040h1.6V219.2H384z" fill="#4c72b0" id="patch_208"/><path clip-path="url(#pba82d0beaf)" d="M385.6 40040h1.7V228.3h-1.7z" fill="#4c72b0" id="patch_209"/><path clip-path="url(#pba82d0beaf)" d="M387.3 40040h1.6V233.3h-1.6z" fill="#4c72b0" id="patch_210"/><path clip-path="url(#pba82d0beaf)" d="M388.9 40040h1.6V235.5H389z" fill="#4c72b0" id="patch_211"/><path clip-path="url(#pba82d0beaf)" d="M390.5 40040h1.6V233.7h-1.6z" fill="#4c72b0" id="patch_212"/><path clip-path="url(#pba82d0beaf)" d="M392.1 40040h1.7V210.5H392z" fill="#4c72b0" id="patch_213"/><path clip-path="url(#pba82d0beaf)" d="M393.8 40040h1.6V236.6h-1.6z" fill="#4c72b0" id="patch_214"/><path clip-path="url(#pba82d0beaf)" d="M395.4 40040h1.6V234.2h-1.6z" fill="#4c72b0" id="patch_215"/><path clip-path="url(#pba82d0beaf)" d="M397 40040h1.7V239.8H397z" fill="#4c72b0" id="patch_216"/><path clip-path="url(#pba82d0beaf)" d="M398.7 40040h1.6V237h-1.6z" fill="#4c72b0" id="patch_217"/><path clip-path="url(#pba82d0beaf)" d="M400.3 40040h1.6V220.7h-1.6z" fill="#4c72b0" id="patch_218"/><path clip-path="url(#pba82d0beaf)" d="M402 40040h1.6V238.8h-1.7z" fill="#4c72b0" id="patch_219"/><path clip-path="url(#pba82d0beaf)" d="M403.6 40040h1.6V241.2h-1.6z" fill="#4c72b0" id="patch_220"/><path clip-path="url(#pba82d0beaf)" d="M405.2 40040h1.6V241.2h-1.6z" fill="#4c72b0" id="patch_221"/><path clip-path="url(#pba82d0beaf)" d="M406.8 40040h1.6V236.6h-1.6z" fill="#4c72b0" id="patch_222"/><path clip-path="url(#pba82d0beaf)" d="M408.4 40040h1.7V220.7h-1.7z" fill="#4c72b0" id="patch_223"/><path clip-path="url(#pba82d0beaf)" d="M410 40040h1.7V241.2h-1.6z" fill="#4c72b0" id="patch_224"/><path clip-path="url(#pba82d0beaf)" d="M411.7 40040h1.6V238.1h-1.6z" fill="#4c72b0" id="patch_225"/><path clip-path="url(#pba82d0beaf)" d="M413.3 40040h1.7V251.7h-1.7z" fill="#4c72b0" id="patch_226"/><path clip-path="url(#pba82d0beaf)" d="M415 40040h1.6V245.5H415z" fill="#4c72b0" id="patch_227"/><path clip-path="url(#pba82d0beaf)" d="M416.6 40040h1.6V221.8h-1.6z" fill="#4c72b0" id="patch_228"/><path clip-path="url(#pba82d0beaf)" d="M418.2 40040h1.7V238.5h-1.7z" fill="#4c72b0" id="patch_229"/><path clip-path="url(#pba82d0beaf)" d="M419.9 40040h1.6V248.6h-1.6z" fill="#4c72b0" id="patch_230"/><path clip-path="url(#pba82d0beaf)" d="M421.5 40040h1.6V246h-1.6z" fill="#4c72b0" id="patch_231"/><path clip-path="url(#pba82d0beaf)" d="M423.1 40040h1.6V247h-1.6z" fill="#4c72b0" id="patch_232"/><path clip-path="url(#pba82d0beaf)" d="M424.7 40040h1.7V217.4h-1.7z" fill="#4c72b0" id="patch_233"/><path clip-path="url(#pba82d0beaf)" d="M426.4 40040h1.6V254.8h-1.6z" fill="#4c72b0" id="patch_234"/><path clip-path="url(#pba82d0beaf)" d="M428 40040h1.6V249.8H428z" fill="#4c72b0" id="patch_235"/><path clip-path="url(#pba82d0beaf)" d="M429.6 40040h1.7V251.7h-1.7z" fill="#4c72b0" id="patch_236"/><path clip-path="url(#pba82d0beaf)" d="M431.3 40040h1.6V245h-1.6z" fill="#4c72b0" id="patch_237"/><path clip-path="url(#pba82d0beaf)" d="M432.9 40040h1.6V234.2H433z" fill="#4c72b0" id="patch_238"/><path clip-path="url(#pba82d0beaf)" d="M434.5 40040h1.7V243.2h-1.7z" fill="#4c72b0" id="patch_239"/><path clip-path="url(#pba82d0beaf)" d="M436.2 40040h1.6V245h-1.6z" fill="#4c72b0" id="patch_240"/><path clip-path="url(#pba82d0beaf)" d="M437.8 40040h1.6V251h-1.6z" fill="#4c72b0" id="patch_241"/><path clip-path="url(#pba82d0beaf)" d="M439.4 40040h1.6V245.5h-1.6z" fill="#4c72b0" id="patch_242"/><path clip-path="url(#pba82d0beaf)" d="M441 40040h1.7V228.2H441z" fill="#4c72b0" id="patch_243"/><path clip-path="url(#pba82d0beaf)" d="M442.7 40040h1.6V250.4h-1.6z" fill="#4c72b0" id="patch_244"/><path clip-path="url(#pba82d0beaf)" d="M444.3 40040h1.6V253.2h-1.6z" fill="#4c72b0" id="patch_245"/><path clip-path="url(#pba82d0beaf)" d="M446 40040h1.6V253.2h-1.7z" fill="#4c72b0" id="patch_246"/><path clip-path="url(#pba82d0beaf)" d="M447.6 40040h1.6V259.4h-1.6z" fill="#4c72b0" id="patch_247"/><path clip-path="url(#pba82d0beaf)" d="M449.2 40040h1.6V239.1h-1.6z" fill="#4c72b0" id="patch_248"/><path clip-path="url(#pba82d0beaf)" d="M450.8 40040h1.6V249.2h-1.6z" fill="#4c72b0" id="patch_249"/><path clip-path="url(#pba82d0beaf)" d="M452.4 40040h1.7V254.8h-1.7z" fill="#4c72b0" id="patch_250"/><path clip-path="url(#pba82d0beaf)" d="M454 40040h1.7V256.5h-1.6z" fill="#4c72b0" id="patch_251"/><path d="M29.6 320.9v-299" fill="none" id="patch_252"/><path d="M476 320.9v-299" fill="none" id="patch_253"/><path d="M29.6 320.9H476" fill="none" id="patch_254"/><path d="M29.6 21.9H476" fill="none" id="patch_255"/><g id="text_16"><defs><path d="M17.5 61.2V35.6H56v-7.7H17.5V0H8.2v68.8h48.9v-7.6z" id="LiberationSans-46"/><path d="M40 8.5q-2.4-5-6.4-7.3-4-2.2-10-2.2Q13.6-1 9 5.8q-4.7 6.7-4.7 20.4 0 27.6 19.4 27.6 6 0 10-2.2t6.5-7v27.9h8.8V10.9 7.2 4l.2-2.5V0h-8.3l-.2 1.4-.1 2-.2 2.5v2.6zm-26.6 18q0-5.5.7-9.4.7-4 2.2-6.4 1.5-2.5 3.9-3.7 2.3-1.2 5.7-1.2 3.4 0 6.1 1.1 2.7 1.2 4.5 3.7 1.7 2.5 2.7 6.5.9 4 .9 10 0 5.6-1 9.4-.9 4-2.7 6.3-1.8 2.4-4.4 3.5-2.6 1-6 1-3.3 0-5.6-1.1t-3.9-3.6Q14.9 40 14.2 36q-.8-4-.8-9.6z" id="LiberationSans-64"/><path d="M6.7 64v8.5h8.8V64zm0-64v52.8h8.8V0z" id="LiberationSans-69"/><path d="M46.4 14.6q0-3.7-1.5-6.6-1.4-3-4.1-5Q38 1.2 34 0q-4-1-9-1-4.6 0-8.3.7Q13 .4 10.2 2 7.4 3.6 5.5 6.1q-1.8 2.6-2.7 6.3l7.7 1.5q1.2-4.2 4.7-6.2t9.8-2q2.8 0 5.1.4 2.4.4 4.1 1.4Q36 8.5 37 10q1 1.6 1 4 0 2.3-1.2 3.8-1.1 1.6-3.1 2.6t-4.9 1.8l-6.2 1.7q-3.2.8-6.3 1.8-3.2 1-5.7 2.7-2.5 1.7-4 4.2-1.6 2.5-1.6 6.3 0 7.2 5.1 11 5.2 3.8 15 3.8 8.8 0 14-3.1 5-3 6.5-9.9l-8-1q-.4 2.1-1.6 3.5-1.1 1.4-2.8 2.2-1.6.9-3.7 1.3-2.1.3-4.4.3-6 0-8.8-1.8-2.8-1.8-2.8-5.5 0-2.1 1-3.5 1.1-1.4 3-2.3 1.9-1 4.5-1.7l5.8-1.5 4.3-1.1q2.2-.6 4.3-1.5 2-.9 3.9-2 1.8-1.1 3.2-2.8 1.4-1.6 2.2-3.7.8-2.2.8-5z" id="LiberationSans-73"/><path d="M51.4 26.7Q51.4-1 32-1q-6 0-10 2.2t-6.5 7l-.1-2.6-.2-2.6-.1-2-.2-1H6.5v1.5L6.6 4l.1 3.2v65.3h8.8V51.8 49v-2.4l-.2-2.3h.2q2.5 5.1 6.5 7.3t10 2.2q10 0 14.7-6.7 4.7-6.8 4.7-20.4zm-9.2-.3q0 5.4-.7 9.4-.7 3.9-2.2 6.4-1.5 2.5-3.8 3.6Q33 47 29.7 47t-6-1.1q-2.7-1.1-4.5-3.6-1.8-2.5-2.7-6.6-1-4-1-9.9 0-5.6 1-9.5.9-3.8 2.7-6.3 1.8-2.4 4.4-3.4 2.6-1 6-1 3.3 0 5.6 1 2.3 1.2 4 3.7 1.5 2.4 2.2 6.4.8 4 .8 9.7z" id="LiberationSans-62"/></defs><g transform="matrix(.12 0 0 -.12 188.1 15.9)" fill="#262626"><use xlink:href="#LiberationSans-46"/><use x="61.1" xlink:href="#LiberationSans-61"/><use x="116.7" xlink:href="#LiberationSans-72"/><use x="150" xlink:href="#LiberationSans-65"/><use x="205.6" xlink:href="#LiberationSans-20"/><use x="233.4" xlink:href="#LiberationSans-61"/><use x="289" xlink:href="#LiberationSans-6d"/><use x="372.3" xlink:href="#LiberationSans-6f"/><use x="427.9" xlink:href="#LiberationSans-75"/><use x="483.5" xlink:href="#LiberationSans-6e"/><use x="539.2" xlink:href="#LiberationSans-74"/><use x="566.9" xlink:href="#LiberationSans-20"/><use x="594.7" xlink:href="#LiberationSans-64"/><use x="650.3" xlink:href="#LiberationSans-69"/><use x="672.6" xlink:href="#LiberationSans-73"/><use x="722.6" xlink:href="#LiberationSans-74"/><use x="750.3" xlink:href="#LiberationSans-72"/><use x="783.6" xlink:href="#LiberationSans-69"/><use x="805.9" xlink:href="#LiberationSans-62"/><use x="861.5" xlink:href="#LiberationSans-75"/><use x="917.1" xlink:href="#LiberationSans-74"/><use x="944.9" xlink:href="#LiberationSans-69"/><use x="967.1" xlink:href="#LiberationSans-6f"/><use x="1022.7" xlink:href="#LiberationSans-6e"/></g></g></g></g><defs><clipPath id="pba82d0beaf"><path d="M29.6 21.9H476v299H29.6z"/></clipPath></defs></svg>