<?xml version="1.0" encoding="utf-8" standalone="no"?>
<!DOCTYPE svg PUBLIC "-//W3C//DTD SVG 1.1//EN"
  "http://www.w3.org/Graphics/SVG/1.1/DTD/svg11.dtd">
<!-- Created with matplotlib (http://matplotlib.org/) -->
<svg version="1.1" viewBox="0 0 483 358" xmlns="http://www.w3.org/2000/svg" xmlns:xlink="http://www.w3.org/1999/xlink">
 <defs>
  <style type="text/css">
*{stroke-linecap:butt;stroke-linejoin:round;}
  </style>
 </defs>
 <g id="figure_1">
  <g id="patch_1">
   <path d="M 0 358.652187 
L 483.2 358.652187 
L 483.2 0 
L 0 0 
z
" style="fill:#ffffff;"/>
  </g>
  <g id="axes_1">
   <g id="patch_2">
    <path d="M 29.6 320.87625 
L 476 320.87625 
L 476 21.89625 
L 29.6 21.89625 
z
" style="fill:#eaeaf2;"/>
   </g>
   <g id="matplotlib.axis_1">
    <g id="xtick_1">
     <g id="line2d_1">
      <path clip-path="url(#pba82d0beaf)" d="M 49.890909 320.87625 
L 49.890909 21.89625 
" style="fill:none;stroke:#ffffff;stroke-linecap:round;"/>
     </g>
     <g id="line2d_2"/>
     <g id="text_1">
      <!-- −50 -->
      <defs>
       <path d="M 4.9375 29.6875 
L 4.9375 36.8125 
L 53.515625 36.8125 
L 53.515625 29.6875 
z
" id="LiberationSans-2212"/>
       <path d="M 51.421875 22.40625 
Q 51.421875 17.234375 49.859375 12.9375 
Q 48.296875 8.640625 45.21875 5.53125 
Q 42.140625 2.4375 37.578125 0.71875 
Q 33.015625 -0.984375 27 -0.984375 
Q 21.578125 -0.984375 17.546875 0.28125 
Q 13.53125 1.5625 10.734375 3.78125 
Q 7.953125 6 6.3125 8.984375 
Q 4.6875 11.96875 4 15.375 
L 12.890625 16.40625 
Q 13.421875 14.453125 14.390625 12.625 
Q 15.375 10.796875 17.0625 9.34375 
Q 18.75 7.90625 21.21875 7.046875 
Q 23.6875 6.203125 27.203125 6.203125 
Q 30.609375 6.203125 33.390625 7.25 
Q 36.1875 8.296875 38.15625 10.34375 
Q 40.140625 12.40625 41.203125 15.375 
Q 42.28125 18.359375 42.28125 22.21875 
Q 42.28125 25.390625 41.25 28.046875 
Q 40.234375 30.71875 38.328125 32.640625 
Q 36.421875 34.578125 33.65625 35.640625 
Q 30.90625 36.71875 27.390625 36.71875 
Q 25.203125 36.71875 23.34375 36.328125 
Q 21.484375 35.9375 19.890625 35.25 
Q 18.3125 34.578125 17.015625 33.671875 
Q 15.71875 32.765625 14.59375 31.78125 
L 6 31.78125 
L 8.296875 68.796875 
L 47.40625 68.796875 
L 47.40625 61.328125 
L 16.3125 61.328125 
L 14.984375 39.5 
Q 17.328125 41.3125 20.84375 42.59375 
Q 24.359375 43.890625 29.203125 43.890625 
Q 34.328125 43.890625 38.421875 42.328125 
Q 42.53125 40.765625 45.40625 37.90625 
Q 48.296875 35.0625 49.859375 31.109375 
Q 51.421875 27.15625 51.421875 22.40625 
z
" id="LiberationSans-35"/>
       <path d="M 51.703125 34.421875 
Q 51.703125 24.515625 49.828125 17.75 
Q 47.953125 10.984375 44.703125 6.8125 
Q 41.453125 2.640625 37.0625 0.828125 
Q 32.671875 -0.984375 27.6875 -0.984375 
Q 22.65625 -0.984375 18.3125 0.828125 
Q 13.96875 2.640625 10.765625 6.78125 
Q 7.5625 10.9375 5.734375 17.703125 
Q 3.90625 24.46875 3.90625 34.421875 
Q 3.90625 44.828125 5.734375 51.640625 
Q 7.5625 58.453125 10.78125 62.5 
Q 14.015625 66.546875 18.40625 68.1875 
Q 22.796875 69.828125 27.984375 69.828125 
Q 32.90625 69.828125 37.21875 68.1875 
Q 41.546875 66.546875 44.765625 62.5 
Q 48 58.453125 49.84375 51.640625 
Q 51.703125 44.828125 51.703125 34.421875 
z
M 42.78125 34.421875 
Q 42.78125 42.625 41.796875 48.0625 
Q 40.828125 53.515625 38.921875 56.765625 
Q 37.015625 60.015625 34.25 61.359375 
Q 31.5 62.703125 27.984375 62.703125 
Q 24.265625 62.703125 21.4375 61.328125 
Q 18.609375 59.96875 16.671875 56.71875 
Q 14.75 53.46875 13.765625 48.015625 
Q 12.796875 42.578125 12.796875 34.421875 
Q 12.796875 26.515625 13.796875 21.09375 
Q 14.796875 15.671875 16.71875 12.375 
Q 18.65625 9.078125 21.4375 7.640625 
Q 24.21875 6.203125 27.78125 6.203125 
Q 31.25 6.203125 34.03125 7.640625 
Q 36.8125 9.078125 38.734375 12.375 
Q 40.671875 15.671875 41.71875 21.09375 
Q 42.78125 26.515625 42.78125 34.421875 
z
" id="LiberationSans-30"/>
      </defs>
      <g style="fill:#262626;" transform="translate(41.409659 335.123125)scale(0.1 -0.1)">
       <use xlink:href="#LiberationSans-2212"/>
       <use x="58.398438" xlink:href="#LiberationSans-35"/>
       <use x="114.013672" xlink:href="#LiberationSans-30"/>
      </g>
     </g>
    </g>
    <g id="xtick_2">
     <g id="line2d_3">
      <path clip-path="url(#pba82d0beaf)" d="M 131.380504 320.87625 
L 131.380504 21.89625 
" style="fill:none;stroke:#ffffff;stroke-linecap:round;"/>
     </g>
     <g id="line2d_4"/>
     <g id="text_2">
      <!-- 0 -->
      <g style="fill:#262626;" transform="translate(128.600035 335.123125)scale(0.1 -0.1)">
       <use xlink:href="#LiberationSans-30"/>
      </g>
     </g>
    </g>
    <g id="xtick_3">
     <g id="line2d_5">
      <path clip-path="url(#pba82d0beaf)" d="M 212.870099 320.87625 
L 212.870099 21.89625 
" style="fill:none;stroke:#ffffff;stroke-linecap:round;"/>
     </g>
     <g id="line2d_6"/>
     <g id="text_3">
      <!-- 50 -->
      <g style="fill:#262626;" transform="translate(207.309161 335.123125)scale(0.1 -0.1)">
       <use xlink:href="#LiberationSans-35"/>
       <use x="55.615234" xlink:href="#LiberationSans-30"/>
      </g>
     </g>
    </g>
    <g id="xtick_4">
     <g id="line2d_7">
      <path clip-path="url(#pba82d0beaf)" d="M 294.359693 320.87625 
L 294.359693 21.89625 
" style="fill:none;stroke:#ffffff;stroke-linecap:round;"/>
     </g>
     <g id="line2d_8"/>
     <g id="text_4">
      <!-- 100 -->
      <defs>
       <path d="M 7.625 0 
L 7.625 7.46875 
L 25.140625 7.46875 
L 25.140625 60.40625 
L 9.625 49.3125 
L 9.625 57.625 
L 25.875 68.796875 
L 33.984375 68.796875 
L 33.984375 7.46875 
L 50.734375 7.46875 
L 50.734375 0 
z
" id="LiberationSans-31"/>
      </defs>
      <g style="fill:#262626;" transform="translate(286.018287 335.123125)scale(0.1 -0.1)">
       <use xlink:href="#LiberationSans-31"/>
       <use x="55.615234" xlink:href="#LiberationSans-30"/>
       <use x="111.230469" xlink:href="#LiberationSans-30"/>
      </g>
     </g>
    </g>
    <g id="xtick_5">
     <g id="line2d_9">
      <path clip-path="url(#pba82d0beaf)" d="M 375.849288 320.87625 
L 375.849288 21.89625 
" style="fill:none;stroke:#ffffff;stroke-linecap:round;"/>
     </g>
     <g id="line2d_10"/>
     <g id="text_5">
      <!-- 150 -->
      <g style="fill:#262626;" transform="translate(367.507882 335.123125)scale(0.1 -0.1)">
       <use xlink:href="#LiberationSans-31"/>
       <use x="55.615234" xlink:href="#LiberationSans-35"/>
       <use x="111.230469" xlink:href="#LiberationSans-30"/>
      </g>
     </g>
    </g>
    <g id="xtick_6">
     <g id="line2d_11">
      <path clip-path="url(#pba82d0beaf)" d="M 457.338883 320.87625 
L 457.338883 21.89625 
" style="fill:none;stroke:#ffffff;stroke-linecap:round;"/>
     </g>
     <g id="line2d_12"/>
     <g id="text_6">
      <!-- 200 -->
      <defs>
       <path d="M 5.03125 0 
L 5.03125 6.203125 
Q 7.515625 11.921875 11.109375 16.28125 
Q 14.703125 20.65625 18.65625 24.1875 
Q 22.609375 27.734375 26.484375 30.765625 
Q 30.375 33.796875 33.5 36.8125 
Q 36.625 39.84375 38.546875 43.15625 
Q 40.484375 46.484375 40.484375 50.6875 
Q 40.484375 53.609375 39.59375 55.828125 
Q 38.71875 58.0625 37.0625 59.5625 
Q 35.40625 61.078125 33.078125 61.828125 
Q 30.765625 62.59375 27.9375 62.59375 
Q 25.296875 62.59375 22.96875 61.859375 
Q 20.65625 61.140625 18.84375 59.671875 
Q 17.046875 58.203125 15.890625 56.03125 
Q 14.75 53.859375 14.40625 50.984375 
L 5.421875 51.8125 
Q 5.859375 55.515625 7.46875 58.78125 
Q 9.078125 62.0625 11.90625 64.53125 
Q 14.75 67 18.71875 68.40625 
Q 22.703125 69.828125 27.9375 69.828125 
Q 33.0625 69.828125 37.0625 68.609375 
Q 41.0625 67.390625 43.8125 64.984375 
Q 46.578125 62.59375 48.046875 59.078125 
Q 49.515625 55.5625 49.515625 50.984375 
Q 49.515625 47.515625 48.265625 44.390625 
Q 47.015625 41.265625 44.9375 38.421875 
Q 42.875 35.59375 40.140625 32.953125 
Q 37.40625 30.328125 34.421875 27.8125 
Q 31.453125 25.296875 28.421875 22.828125 
Q 25.390625 20.359375 22.71875 17.859375 
Q 20.0625 15.375 17.96875 12.8125 
Q 15.875 10.25 14.703125 7.46875 
L 50.59375 7.46875 
L 50.59375 0 
z
" id="LiberationSans-32"/>
      </defs>
      <g style="fill:#262626;" transform="translate(448.997477 335.123125)scale(0.1 -0.1)">
       <use xlink:href="#LiberationSans-32"/>
       <use x="55.615234" xlink:href="#LiberationSans-30"/>
       <use x="111.230469" xlink:href="#LiberationSans-30"/>
      </g>
     </g>
    </g>
    <g id="text_7">
     <!-- fare_amount -->
     <defs>
      <path d="M 17.625 46.4375 
L 17.625 0 
L 8.84375 0 
L 8.84375 46.4375 
L 1.421875 46.4375 
L 1.421875 52.828125 
L 8.84375 52.828125 
L 8.84375 58.796875 
Q 8.84375 61.671875 9.375 64.140625 
Q 9.90625 66.609375 11.34375 68.4375 
Q 12.796875 70.265625 15.28125 71.3125 
Q 17.78125 72.359375 21.734375 72.359375 
Q 23.296875 72.359375 24.96875 72.21875 
Q 26.65625 72.078125 27.9375 71.78125 
L 27.9375 65.09375 
Q 27.09375 65.234375 26 65.359375 
Q 24.90625 65.484375 24.03125 65.484375 
Q 22.078125 65.484375 20.828125 64.9375 
Q 19.578125 64.40625 18.875 63.40625 
Q 18.171875 62.40625 17.890625 60.9375 
Q 17.625 59.46875 17.625 57.5625 
L 17.625 52.828125 
L 27.9375 52.828125 
L 27.9375 46.4375 
z
" id="LiberationSans-66"/>
      <path d="M 20.21875 -0.984375 
Q 12.25 -0.984375 8.25 3.21875 
Q 4.25 7.421875 4.25 14.75 
Q 4.25 19.96875 6.21875 23.3125 
Q 8.203125 26.65625 11.390625 28.5625 
Q 14.59375 30.46875 18.6875 31.203125 
Q 22.796875 31.9375 27.046875 32.03125 
L 38.921875 32.234375 
L 38.921875 35.109375 
Q 38.921875 38.375 38.234375 40.671875 
Q 37.546875 42.96875 36.125 44.375 
Q 34.71875 45.796875 32.59375 46.453125 
Q 30.46875 47.125 27.59375 47.125 
Q 25.046875 47.125 23 46.75 
Q 20.953125 46.390625 19.4375 45.4375 
Q 17.921875 44.484375 16.984375 42.84375 
Q 16.0625 41.21875 15.765625 38.71875 
L 6.59375 39.546875 
Q 7.078125 42.671875 8.4375 45.28125 
Q 9.8125 47.90625 12.328125 49.796875 
Q 14.84375 51.703125 18.625 52.75 
Q 22.40625 53.8125 27.78125 53.8125 
Q 37.75 53.8125 42.765625 49.234375 
Q 47.796875 44.671875 47.796875 36.03125 
L 47.796875 13.28125 
Q 47.796875 9.375 48.828125 7.390625 
Q 49.859375 5.421875 52.734375 5.421875 
Q 53.46875 5.421875 54.203125 5.515625 
Q 54.9375 5.609375 55.609375 5.765625 
L 55.609375 0.296875 
Q 53.953125 -0.09375 52.3125 -0.28125 
Q 50.6875 -0.484375 48.828125 -0.484375 
Q 46.34375 -0.484375 44.5625 0.171875 
Q 42.78125 0.828125 41.65625 2.171875 
Q 40.53125 3.515625 39.9375 5.484375 
Q 39.359375 7.46875 39.203125 10.109375 
L 38.921875 10.109375 
Q 37.5 7.5625 35.8125 5.515625 
Q 34.125 3.46875 31.875 2.03125 
Q 29.640625 0.59375 26.78125 -0.1875 
Q 23.921875 -0.984375 20.21875 -0.984375 
z
M 22.21875 5.609375 
Q 26.421875 5.609375 29.5625 7.140625 
Q 32.71875 8.6875 34.78125 11.078125 
Q 36.859375 13.484375 37.890625 16.3125 
Q 38.921875 19.140625 38.921875 21.734375 
L 38.921875 26.078125 
L 29.296875 25.875 
Q 26.078125 25.828125 23.171875 25.40625 
Q 20.265625 25 18.0625 23.78125 
Q 15.875 22.5625 14.578125 20.359375 
Q 13.28125 18.171875 13.28125 14.59375 
Q 13.28125 10.296875 15.59375 7.953125 
Q 17.921875 5.609375 22.21875 5.609375 
z
" id="LiberationSans-61"/>
      <path d="M 6.9375 0 
L 6.9375 40.53125 
Q 6.9375 42.1875 6.90625 43.921875 
Q 6.890625 45.65625 6.828125 47.265625 
Q 6.78125 48.875 6.734375 50.28125 
Q 6.6875 51.703125 6.640625 52.828125 
L 14.9375 52.828125 
Q 14.984375 51.703125 15.0625 50.265625 
Q 15.140625 48.828125 15.203125 47.3125 
Q 15.28125 45.796875 15.296875 44.40625 
Q 15.328125 43.015625 15.328125 42.046875 
L 15.53125 42.046875 
Q 16.453125 45.0625 17.5 47.28125 
Q 18.5625 49.515625 19.96875 50.953125 
Q 21.390625 52.390625 23.34375 53.09375 
Q 25.296875 53.8125 28.078125 53.8125 
Q 29.15625 53.8125 30.125 53.640625 
Q 31.109375 53.46875 31.640625 53.328125 
L 31.640625 45.265625 
Q 30.765625 45.515625 29.59375 45.625 
Q 28.421875 45.75 26.953125 45.75 
Q 23.921875 45.75 21.796875 44.375 
Q 19.671875 43.015625 18.328125 40.59375 
Q 17 38.1875 16.359375 34.84375 
Q 15.71875 31.5 15.71875 27.546875 
L 15.71875 0 
z
" id="LiberationSans-72"/>
      <path d="M 13.484375 24.5625 
Q 13.484375 20.40625 14.328125 16.90625 
Q 15.1875 13.421875 16.96875 10.90625 
Q 18.75 8.40625 21.53125 7 
Q 24.3125 5.609375 28.21875 5.609375 
Q 33.9375 5.609375 37.375 7.90625 
Q 40.828125 10.203125 42.046875 13.71875 
L 49.75 11.53125 
Q 48.921875 9.328125 47.4375 7.109375 
Q 45.953125 4.890625 43.453125 3.09375 
Q 40.96875 1.3125 37.234375 0.15625 
Q 33.5 -0.984375 28.21875 -0.984375 
Q 16.5 -0.984375 10.375 6 
Q 4.25 12.984375 4.25 26.765625 
Q 4.25 34.1875 6.09375 39.328125 
Q 7.953125 44.484375 11.171875 47.703125 
Q 14.40625 50.921875 18.703125 52.359375 
Q 23 53.8125 27.875 53.8125 
Q 34.515625 53.8125 38.984375 51.65625 
Q 43.453125 49.515625 46.15625 45.71875 
Q 48.875 41.9375 50.015625 36.8125 
Q 51.171875 31.6875 51.171875 25.734375 
L 51.171875 24.5625 
z
M 42.09375 31.296875 
Q 41.359375 39.65625 37.84375 43.484375 
Q 34.328125 47.3125 27.734375 47.3125 
Q 25.53125 47.3125 23.109375 46.609375 
Q 20.703125 45.90625 18.65625 44.09375 
Q 16.609375 42.28125 15.1875 39.171875 
Q 13.765625 36.078125 13.578125 31.296875 
z
" id="LiberationSans-65"/>
      <path d="M -1.515625 -19.875 
L -1.515625 -13.53125 
L 56.734375 -13.53125 
L 56.734375 -19.875 
z
" id="LiberationSans-5f"/>
      <path d="M 37.5 0 
L 37.5 33.5 
Q 37.5 37.359375 37.015625 39.9375 
Q 36.53125 42.53125 35.375 44.109375 
Q 34.234375 45.703125 32.375 46.359375 
Q 30.515625 47.015625 27.828125 47.015625 
Q 25.046875 47.015625 22.796875 45.921875 
Q 20.5625 44.828125 18.96875 42.75 
Q 17.390625 40.671875 16.53125 37.625 
Q 15.671875 34.578125 15.671875 30.609375 
L 15.671875 0 
L 6.9375 0 
L 6.9375 41.546875 
Q 6.9375 43.21875 6.90625 45.046875 
Q 6.890625 46.875 6.828125 48.5 
Q 6.78125 50.140625 6.734375 51.3125 
Q 6.6875 52.484375 6.640625 52.828125 
L 14.9375 52.828125 
Q 14.984375 52.59375 15.03125 51.515625 
Q 15.09375 50.4375 15.15625 49.046875 
Q 15.234375 47.65625 15.28125 46.21875 
Q 15.328125 44.78125 15.328125 43.796875 
L 15.484375 43.796875 
Q 16.65625 46.09375 18.015625 47.953125 
Q 19.390625 49.8125 21.21875 51.09375 
Q 23.046875 52.390625 25.40625 53.09375 
Q 27.78125 53.8125 30.90625 53.8125 
Q 36.921875 53.8125 40.40625 51.421875 
Q 43.890625 49.03125 45.265625 43.796875 
L 45.40625 43.796875 
Q 46.578125 46.09375 48.046875 47.953125 
Q 49.515625 49.8125 51.46875 51.09375 
Q 53.421875 52.390625 55.859375 53.09375 
Q 58.296875 53.8125 61.421875 53.8125 
Q 65.4375 53.8125 68.328125 52.734375 
Q 71.234375 51.65625 73.09375 49.40625 
Q 74.953125 47.171875 75.828125 43.625 
Q 76.703125 40.09375 76.703125 35.203125 
L 76.703125 0 
L 68.015625 0 
L 68.015625 33.5 
Q 68.015625 37.359375 67.53125 39.9375 
Q 67.046875 42.53125 65.890625 44.109375 
Q 64.75 45.703125 62.890625 46.359375 
Q 61.03125 47.015625 58.34375 47.015625 
Q 55.5625 47.015625 53.3125 45.96875 
Q 51.078125 44.921875 49.484375 42.875 
Q 47.90625 40.828125 47.046875 37.75 
Q 46.1875 34.671875 46.1875 30.609375 
L 46.1875 0 
z
" id="LiberationSans-6d"/>
      <path d="M 51.421875 26.46875 
Q 51.421875 12.59375 45.3125 5.796875 
Q 39.203125 -0.984375 27.59375 -0.984375 
Q 22.078125 -0.984375 17.71875 0.671875 
Q 13.375 2.34375 10.375 5.765625 
Q 7.375 9.1875 5.78125 14.328125 
Q 4.203125 19.484375 4.203125 26.46875 
Q 4.203125 53.8125 27.875 53.8125 
Q 34.03125 53.8125 38.5 52.09375 
Q 42.96875 50.390625 45.828125 46.96875 
Q 48.6875 43.5625 50.046875 38.421875 
Q 51.421875 33.296875 51.421875 26.46875 
z
M 42.1875 26.46875 
Q 42.1875 32.625 41.234375 36.625 
Q 40.28125 40.625 38.453125 43.015625 
Q 36.625 45.40625 33.984375 46.359375 
Q 31.34375 47.3125 28.03125 47.3125 
Q 24.65625 47.3125 21.9375 46.3125 
Q 19.234375 45.3125 17.328125 42.890625 
Q 15.4375 40.484375 14.421875 36.46875 
Q 13.421875 32.46875 13.421875 26.46875 
Q 13.421875 20.3125 14.5 16.28125 
Q 15.578125 12.25 17.453125 9.859375 
Q 19.34375 7.46875 21.90625 6.484375 
Q 24.46875 5.515625 27.484375 5.515625 
Q 30.859375 5.515625 33.59375 6.46875 
Q 36.328125 7.421875 38.234375 9.8125 
Q 40.140625 12.203125 41.15625 16.25 
Q 42.1875 20.3125 42.1875 26.46875 
z
" id="LiberationSans-6f"/>
      <path d="M 15.328125 52.828125 
L 15.328125 19.34375 
Q 15.328125 15.484375 15.890625 12.890625 
Q 16.453125 10.296875 17.71875 8.703125 
Q 19 7.125 21.0625 6.46875 
Q 23.140625 5.8125 26.21875 5.8125 
Q 29.34375 5.8125 31.859375 6.90625 
Q 34.375 8.015625 36.15625 10.078125 
Q 37.9375 12.15625 38.90625 15.203125 
Q 39.890625 18.265625 39.890625 22.21875 
L 39.890625 52.828125 
L 48.6875 52.828125 
L 48.6875 11.28125 
Q 48.6875 9.625 48.703125 7.78125 
Q 48.734375 5.953125 48.78125 4.3125 
Q 48.828125 2.6875 48.875 1.515625 
Q 48.921875 0.34375 48.96875 0 
L 40.671875 0 
Q 40.625 0.25 40.578125 1.3125 
Q 40.53125 2.390625 40.453125 3.78125 
Q 40.375 5.171875 40.328125 6.609375 
Q 40.28125 8.0625 40.28125 9.03125 
L 40.140625 9.03125 
Q 38.875 6.734375 37.359375 4.875 
Q 35.84375 3.03125 33.84375 1.734375 
Q 31.84375 0.4375 29.25 -0.265625 
Q 26.65625 -0.984375 23.25 -0.984375 
Q 18.84375 -0.984375 15.671875 0.09375 
Q 12.5 1.171875 10.453125 3.421875 
Q 8.40625 5.671875 7.453125 9.1875 
Q 6.5 12.703125 6.5 17.625 
L 6.5 52.828125 
z
" id="LiberationSans-75"/>
      <path d="M 40.28125 0 
L 40.28125 33.5 
Q 40.28125 37.359375 39.71875 39.9375 
Q 39.15625 42.53125 37.890625 44.109375 
Q 36.625 45.703125 34.546875 46.359375 
Q 32.46875 47.015625 29.390625 47.015625 
Q 26.265625 47.015625 23.75 45.921875 
Q 21.234375 44.828125 19.453125 42.75 
Q 17.671875 40.671875 16.6875 37.625 
Q 15.71875 34.578125 15.71875 30.609375 
L 15.71875 0 
L 6.9375 0 
L 6.9375 41.546875 
Q 6.9375 43.21875 6.90625 45.046875 
Q 6.890625 46.875 6.828125 48.5 
Q 6.78125 50.140625 6.734375 51.3125 
Q 6.6875 52.484375 6.640625 52.828125 
L 14.9375 52.828125 
Q 14.984375 52.59375 15.03125 51.515625 
Q 15.09375 50.4375 15.15625 49.046875 
Q 15.234375 47.65625 15.28125 46.21875 
Q 15.328125 44.78125 15.328125 43.796875 
L 15.484375 43.796875 
Q 16.75 46.09375 18.265625 47.953125 
Q 19.78125 49.8125 21.78125 51.09375 
Q 23.78125 52.390625 26.359375 53.09375 
Q 28.953125 53.8125 32.375 53.8125 
Q 36.765625 53.8125 39.9375 52.734375 
Q 43.109375 51.65625 45.15625 49.40625 
Q 47.21875 47.171875 48.171875 43.625 
Q 49.125 40.09375 49.125 35.203125 
L 49.125 0 
z
" id="LiberationSans-6e"/>
      <path d="M 27.046875 0.390625 
Q 25.046875 -0.140625 22.96875 -0.453125 
Q 20.90625 -0.78125 18.171875 -0.78125 
Q 7.625 -0.78125 7.625 11.1875 
L 7.625 46.4375 
L 1.515625 46.4375 
L 1.515625 52.828125 
L 7.953125 52.828125 
L 10.546875 64.65625 
L 16.40625 64.65625 
L 16.40625 52.828125 
L 26.171875 52.828125 
L 26.171875 46.4375 
L 16.40625 46.4375 
L 16.40625 13.09375 
Q 16.40625 9.28125 17.640625 7.734375 
Q 18.890625 6.203125 21.96875 6.203125 
Q 23.25 6.203125 24.4375 6.390625 
Q 25.640625 6.59375 27.046875 6.890625 
z
" id="LiberationSans-74"/>
     </defs>
     <g style="fill:#262626;" transform="translate(221.921797 349.169687)scale(0.11 -0.11)">
      <use xlink:href="#LiberationSans-66"/>
      <use x="27.783203" xlink:href="#LiberationSans-61"/>
      <use x="83.398438" xlink:href="#LiberationSans-72"/>
      <use x="116.699219" xlink:href="#LiberationSans-65"/>
      <use x="172.314453" xlink:href="#LiberationSans-5f"/>
      <use x="227.929688" xlink:href="#LiberationSans-61"/>
      <use x="283.544922" xlink:href="#LiberationSans-6d"/>
      <use x="366.845703" xlink:href="#LiberationSans-6f"/>
      <use x="422.460938" xlink:href="#LiberationSans-75"/>
      <use x="478.076172" xlink:href="#LiberationSans-6e"/>
      <use x="533.691406" xlink:href="#LiberationSans-74"/>
     </g>
    </g>
   </g>
   <g id="matplotlib.axis_2">
    <g id="ytick_1">
     <g id="line2d_13">
      <path clip-path="url(#pba82d0beaf)" d="M 29.6 307.28625 
L 476 307.28625 
" style="fill:none;stroke:#ffffff;stroke-linecap:round;"/>
     </g>
     <g id="line2d_14"/>
     <g id="text_8">
      <!-- $\mathdefault{10^{0}}$ -->
      <g style="fill:#262626;" transform="translate(7.2 310.909687)scale(0.1 -0.1)">
       <use transform="translate(0 0.140625)" xlink:href="#LiberationSans-31"/>
       <use transform="translate(55.615234 0.140625)" xlink:href="#LiberationSans-30"/>
       <use transform="translate(112.154961 37.120312)scale(0.7)" xlink:href="#LiberationSans-30"/>
      </g>
     </g>
    </g>
    <g id="ytick_2">
     <g id="line2d_15">
      <path clip-path="url(#pba82d0beaf)" d="M 29.6 267.553538 
L 476 267.553538 
" style="fill:none;stroke:#ffffff;stroke-linecap:round;"/>
     </g>
     <g id="line2d_16"/>
     <g id="text_9">
      <!-- $\mathdefault{10^{1}}$ -->
      <g style="fill:#262626;" transform="translate(7.2 271.176975)scale(0.1 -0.1)">
       <use transform="translate(0 0.8625)" xlink:href="#LiberationSans-31"/>
       <use transform="translate(55.615234 0.8625)" xlink:href="#LiberationSans-30"/>
       <use transform="translate(112.154961 37.842188)scale(0.7)" xlink:href="#LiberationSans-31"/>
      </g>
     </g>
    </g>
    <g id="ytick_3">
     <g id="line2d_17">
      <path clip-path="url(#pba82d0beaf)" d="M 29.6 227.820826 
L 476 227.820826 
" style="fill:none;stroke:#ffffff;stroke-linecap:round;"/>
     </g>
     <g id="line2d_18"/>
     <g id="text_10">
      <!-- $\mathdefault{10^{2}}$ -->
      <g style="fill:#262626;" transform="translate(7.2 231.444263)scale(0.1 -0.1)">
       <use transform="translate(0 0.140625)" xlink:href="#LiberationSans-31"/>
       <use transform="translate(55.615234 0.140625)" xlink:href="#LiberationSans-30"/>
       <use transform="translate(112.154961 37.120312)scale(0.7)" xlink:href="#LiberationSans-32"/>
      </g>
     </g>
    </g>
    <g id="ytick_4">
     <g id="line2d_19">
      <path clip-path="url(#pba82d0beaf)" d="M 29.6 188.088114 
L 476 188.088114 
" style="fill:none;stroke:#ffffff;stroke-linecap:round;"/>
     </g>
     <g id="line2d_20"/>
     <g id="text_11">
      <!-- $\mathdefault{10^{3}}$ -->
      <defs>
       <path d="M 51.21875 19 
Q 51.21875 14.265625 49.671875 10.546875 
Q 48.140625 6.84375 45.1875 4.265625 
Q 42.234375 1.703125 37.859375 0.359375 
Q 33.5 -0.984375 27.875 -0.984375 
Q 21.484375 -0.984375 17.109375 0.609375 
Q 12.75 2.203125 9.90625 4.8125 
Q 7.078125 7.421875 5.65625 10.765625 
Q 4.25 14.109375 3.8125 17.671875 
L 12.890625 18.5 
Q 13.28125 15.765625 14.328125 13.515625 
Q 15.375 11.28125 17.1875 9.671875 
Q 19 8.0625 21.625 7.171875 
Q 24.265625 6.296875 27.875 6.296875 
Q 34.515625 6.296875 38.296875 9.5625 
Q 42.09375 12.84375 42.09375 19.28125 
Q 42.09375 23.09375 40.40625 25.40625 
Q 38.71875 27.734375 36.203125 29.03125 
Q 33.6875 30.328125 30.734375 30.765625 
Q 27.78125 31.203125 25.296875 31.203125 
L 20.3125 31.203125 
L 20.3125 38.8125 
L 25.09375 38.8125 
Q 27.59375 38.8125 30.265625 39.328125 
Q 32.953125 39.84375 35.171875 41.1875 
Q 37.40625 42.53125 38.84375 44.828125 
Q 40.28125 47.125 40.28125 50.6875 
Q 40.28125 56.203125 37.03125 59.390625 
Q 33.796875 62.59375 27.390625 62.59375 
Q 21.578125 62.59375 17.984375 59.609375 
Q 14.40625 56.640625 13.8125 51.21875 
L 4.984375 51.90625 
Q 5.515625 56.453125 7.46875 59.8125 
Q 9.421875 63.1875 12.421875 65.40625 
Q 15.4375 67.625 19.28125 68.71875 
Q 23.140625 69.828125 27.484375 69.828125 
Q 33.25 69.828125 37.390625 68.375 
Q 41.546875 66.9375 44.1875 64.46875 
Q 46.828125 62.015625 48.0625 58.6875 
Q 49.3125 55.375 49.3125 51.609375 
Q 49.3125 48.578125 48.484375 45.9375 
Q 47.65625 43.3125 45.890625 41.203125 
Q 44.140625 39.109375 41.421875 37.59375 
Q 38.71875 36.078125 34.90625 35.296875 
L 34.90625 35.109375 
Q 39.0625 34.671875 42.140625 33.21875 
Q 45.21875 31.78125 47.21875 29.625 
Q 49.21875 27.484375 50.21875 24.75 
Q 51.21875 22.015625 51.21875 19 
z
" id="LiberationSans-33"/>
      </defs>
      <g style="fill:#262626;" transform="translate(7.2 191.711551)scale(0.1 -0.1)">
       <use transform="translate(0 0.140625)" xlink:href="#LiberationSans-31"/>
       <use transform="translate(55.615234 0.140625)" xlink:href="#LiberationSans-30"/>
       <use transform="translate(112.154961 37.120312)scale(0.7)" xlink:href="#LiberationSans-33"/>
      </g>
     </g>
    </g>
    <g id="ytick_5">
     <g id="line2d_21">
      <path clip-path="url(#pba82d0beaf)" d="M 29.6 148.355402 
L 476 148.355402 
" style="fill:none;stroke:#ffffff;stroke-linecap:round;"/>
     </g>
     <g id="line2d_22"/>
     <g id="text_12">
      <!-- $\mathdefault{10^{4}}$ -->
      <defs>
       <path d="M 43.015625 15.578125 
L 43.015625 0 
L 34.71875 0 
L 34.71875 15.578125 
L 2.296875 15.578125 
L 2.296875 22.40625 
L 33.796875 68.796875 
L 43.015625 68.796875 
L 43.015625 22.515625 
L 52.6875 22.515625 
L 52.6875 15.578125 
z
M 34.71875 58.890625 
Q 34.625 58.640625 34.234375 57.9375 
Q 33.84375 57.234375 33.34375 56.34375 
Q 32.859375 55.46875 32.34375 54.5625 
Q 31.84375 53.65625 31.453125 53.078125 
L 13.8125 27.09375 
Q 13.578125 26.703125 13.109375 26.0625 
Q 12.640625 25.4375 12.15625 24.78125 
Q 11.671875 24.125 11.171875 23.484375 
Q 10.6875 22.859375 10.40625 22.515625 
L 34.71875 22.515625 
z
" id="LiberationSans-34"/>
      </defs>
      <g style="fill:#262626;" transform="translate(7.2 151.978839)scale(0.1 -0.1)">
       <use transform="translate(0 0.8625)" xlink:href="#LiberationSans-31"/>
       <use transform="translate(55.615234 0.8625)" xlink:href="#LiberationSans-30"/>
       <use transform="translate(112.154961 37.842188)scale(0.7)" xlink:href="#LiberationSans-34"/>
      </g>
     </g>
    </g>
    <g id="ytick_6">
     <g id="line2d_23">
      <path clip-path="url(#pba82d0beaf)" d="M 29.6 108.62269 
L 476 108.62269 
" style="fill:none;stroke:#ffffff;stroke-linecap:round;"/>
     </g>
     <g id="line2d_24"/>
     <g id="text_13">
      <!-- $\mathdefault{10^{5}}$ -->
      <g style="fill:#262626;" transform="translate(7.2 112.246127)scale(0.1 -0.1)">
       <use transform="translate(0 0.8625)" xlink:href="#LiberationSans-31"/>
       <use transform="translate(55.615234 0.8625)" xlink:href="#LiberationSans-30"/>
       <use transform="translate(112.154961 37.842188)scale(0.7)" xlink:href="#LiberationSans-35"/>
      </g>
     </g>
    </g>
    <g id="ytick_7">
     <g id="line2d_25">
      <path clip-path="url(#pba82d0beaf)" d="M 29.6 68.889978 
L 476 68.889978 
" style="fill:none;stroke:#ffffff;stroke-linecap:round;"/>
     </g>
     <g id="line2d_26"/>
     <g id="text_14">
      <!-- $\mathdefault{10^{6}}$ -->
      <defs>
       <path d="M 51.21875 22.515625 
Q 51.21875 17.328125 49.78125 13 
Q 48.34375 8.6875 45.53125 5.578125 
Q 42.71875 2.484375 38.5625 0.75 
Q 34.421875 -0.984375 29 -0.984375 
Q 23 -0.984375 18.5 1.3125 
Q 14.015625 3.609375 11.03125 7.921875 
Q 8.0625 12.25 6.5625 18.53125 
Q 5.078125 24.8125 5.078125 32.8125 
Q 5.078125 42 6.765625 48.921875 
Q 8.453125 55.859375 11.625 60.5 
Q 14.796875 65.140625 19.359375 67.484375 
Q 23.921875 69.828125 29.6875 69.828125 
Q 33.203125 69.828125 36.28125 69.09375 
Q 39.359375 68.359375 41.875 66.71875 
Q 44.390625 65.09375 46.28125 62.40625 
Q 48.1875 59.71875 49.3125 55.8125 
L 40.921875 54.296875 
Q 39.546875 58.734375 36.546875 60.71875 
Q 33.546875 62.703125 29.59375 62.703125 
Q 25.984375 62.703125 23.046875 60.984375 
Q 20.125 59.28125 18.0625 55.875 
Q 16.015625 52.484375 14.90625 47.359375 
Q 13.8125 42.234375 13.8125 35.40625 
Q 16.21875 39.84375 20.5625 42.15625 
Q 24.90625 44.484375 30.515625 44.484375 
Q 35.203125 44.484375 39.015625 42.96875 
Q 42.828125 41.453125 45.53125 38.59375 
Q 48.25 35.75 49.734375 31.671875 
Q 51.21875 27.59375 51.21875 22.515625 
z
M 42.28125 22.125 
Q 42.28125 25.6875 41.40625 28.5625 
Q 40.53125 31.453125 38.765625 33.46875 
Q 37.015625 35.5 34.421875 36.59375 
Q 31.84375 37.703125 28.421875 37.703125 
Q 26.03125 37.703125 23.578125 36.984375 
Q 21.140625 36.28125 19.15625 34.6875 
Q 17.1875 33.109375 15.9375 30.515625 
Q 14.703125 27.9375 14.703125 24.21875 
Q 14.703125 20.40625 15.671875 17.109375 
Q 16.65625 13.8125 18.484375 11.375 
Q 20.3125 8.9375 22.890625 7.515625 
Q 25.484375 6.109375 28.71875 6.109375 
Q 31.890625 6.109375 34.40625 7.203125 
Q 36.921875 8.296875 38.671875 10.375 
Q 40.4375 12.453125 41.359375 15.421875 
Q 42.28125 18.40625 42.28125 22.125 
z
" id="LiberationSans-36"/>
      </defs>
      <g style="fill:#262626;" transform="translate(7.2 72.513415)scale(0.1 -0.1)">
       <use transform="translate(0 0.140625)" xlink:href="#LiberationSans-31"/>
       <use transform="translate(55.615234 0.140625)" xlink:href="#LiberationSans-30"/>
       <use transform="translate(112.154961 37.120312)scale(0.7)" xlink:href="#LiberationSans-36"/>
      </g>
     </g>
    </g>
    <g id="ytick_8">
     <g id="line2d_27">
      <path clip-path="url(#pba82d0beaf)" d="M 29.6 29.157265 
L 476 29.157265 
" style="fill:none;stroke:#ffffff;stroke-linecap:round;"/>
     </g>
     <g id="line2d_28"/>
     <g id="text_15">
      <!-- $\mathdefault{10^{7}}$ -->
      <defs>
       <path d="M 50.59375 61.671875 
Q 45.40625 53.765625 41.0625 46.453125 
Q 36.71875 39.15625 33.59375 31.75 
Q 30.46875 24.359375 28.734375 16.578125 
Q 27 8.796875 27 0 
L 17.828125 0 
Q 17.828125 8.25 19.78125 16.1875 
Q 21.734375 24.125 25.046875 31.765625 
Q 28.375 39.40625 32.765625 46.78125 
Q 37.15625 54.15625 42.09375 61.328125 
L 5.125 61.328125 
L 5.125 68.796875 
L 50.59375 68.796875 
z
" id="LiberationSans-37"/>
      </defs>
      <g style="fill:#262626;" transform="translate(7.2 32.780703)scale(0.1 -0.1)">
       <use transform="translate(0 0.8625)" xlink:href="#LiberationSans-31"/>
       <use transform="translate(55.615234 0.8625)" xlink:href="#LiberationSans-30"/>
       <use transform="translate(112.154961 37.842188)scale(0.7)" xlink:href="#LiberationSans-37"/>
      </g>
     </g>
    </g>
    <g id="ytick_9">
     <g id="line2d_29"/>
    </g>
    <g id="ytick_10">
     <g id="line2d_30"/>
    </g>
    <g id="ytick_11">
     <g id="line2d_31"/>
    </g>
    <g id="ytick_12">
     <g id="line2d_32"/>
    </g>
    <g id="ytick_13">
     <g id="line2d_33"/>
    </g>
    <g id="ytick_14">
     <g id="line2d_34"/>
    </g>
    <g id="ytick_15">
     <g id="line2d_35"/>
    </g>
    <g id="ytick_16">
     <g id="line2d_36"/>
    </g>
    <g id="ytick_17">
     <g id="line2d_37"/>
    </g>
    <g id="ytick_18">
     <g id="line2d_38"/>
    </g>
    <g id="ytick_19">
     <g id="line2d_39"/>
    </g>
    <g id="ytick_20">
     <g id="line2d_40"/>
    </g>
    <g id="ytick_21">
     <g id="line2d_41"/>
    </g>
    <g id="ytick_22">
     <g id="line2d_42"/>
    </g>
    <g id="ytick_23">
     <g id="line2d_43"/>
    </g>
    <g id="ytick_24">
     <g id="line2d_44"/>
    </g>
    <g id="ytick_25">
     <g id="line2d_45"/>
    </g>
    <g id="ytick_26">
     <g id="line2d_46"/>
    </g>
    <g id="ytick_27">
     <g id="line2d_47"/>
    </g>
    <g id="ytick_28">
     <g id="line2d_48"/>
    </g>
    <g id="ytick_29">
     <g id="line2d_49"/>
    </g>
    <g id="ytick_30">
     <g id="line2d_50"/>
    </g>
    <g id="ytick_31">
     <g id="line2d_51"/>
    </g>
    <g id="ytick_32">
     <g id="line2d_52"/>
    </g>
    <g id="ytick_33">
     <g id="line2d_53"/>
    </g>
    <g id="ytick_34">
     <g id="line2d_54"/>
    </g>
    <g id="ytick_35">
     <g id="line2d_55"/>
    </g>
    <g id="ytick_36">
     <g id="line2d_56"/>
    </g>
    <g id="ytick_37">
     <g id="line2d_57"/>
    </g>
    <g id="ytick_38">
     <g id="line2d_58"/>
    </g>
    <g id="ytick_39">
     <g id="line2d_59"/>
    </g>
    <g id="ytick_40">
     <g id="line2d_60"/>
    </g>
    <g id="ytick_41">
     <g id="line2d_61"/>
    </g>
    <g id="ytick_42">
     <g id="line2d_62"/>
    </g>
    <g id="ytick_43">
     <g id="line2d_63"/>
    </g>
    <g id="ytick_44">
     <g id="line2d_64"/>
    </g>
    <g id="ytick_45">
     <g id="line2d_65"/>
    </g>
    <g id="ytick_46">
     <g id="line2d_66"/>
    </g>
    <g id="ytick_47">
     <g id="line2d_67"/>
    </g>
    <g id="ytick_48">
     <g id="line2d_68"/>
    </g>
    <g id="ytick_49">
     <g id="line2d_69"/>
    </g>
    <g id="ytick_50">
     <g id="line2d_70"/>
    </g>
    <g id="ytick_51">
     <g id="line2d_71"/>
    </g>
    <g id="ytick_52">
     <g id="line2d_72"/>
    </g>
    <g id="ytick_53">
     <g id="line2d_73"/>
    </g>
    <g id="ytick_54">
     <g id="line2d_74"/>
    </g>
    <g id="ytick_55">
     <g id="line2d_75"/>
    </g>
    <g id="ytick_56">
     <g id="line2d_76"/>
    </g>
    <g id="ytick_57">
     <g id="line2d_77"/>
    </g>
    <g id="ytick_58">
     <g id="line2d_78"/>
    </g>
    <g id="ytick_59">
     <g id="line2d_79"/>
    </g>
    <g id="ytick_60">
     <g id="line2d_80"/>
    </g>
    <g id="ytick_61">
     <g id="line2d_81"/>
    </g>
    <g id="ytick_62">
     <g id="line2d_82"/>
    </g>
    <g id="ytick_63">
     <g id="line2d_83"/>
    </g>
    <g id="ytick_64">
     <g id="line2d_84"/>
    </g>
    <g id="ytick_65">
     <g id="line2d_85"/>
    </g>
    <g id="ytick_66">
     <g id="line2d_86"/>
    </g>
    <g id="ytick_67">
     <g id="line2d_87"/>
    </g>
    <g id="ytick_68">
     <g id="line2d_88"/>
    </g>
    <g id="ytick_69">
     <g id="line2d_89"/>
    </g>
   </g>
   <g id="patch_3">
    <path clip-path="url(#pba82d0beaf)" d="M 49.890909 40039.998322 
L 51.520701 40039.998322 
L 51.520701 263.02626 
L 49.890909 263.02626 
z
" style="fill:#4c72b0;"/>
   </g>
   <g id="patch_4">
    <path clip-path="url(#pba82d0beaf)" d="M 51.520701 40039.998322 
L 53.150493 40039.998322 
L 53.150493 307.28625 
L 51.520701 307.28625 
z
" style="fill:#4c72b0;"/>
   </g>
   <g id="patch_5">
    <path clip-path="url(#pba82d0beaf)" d="M 53.150493 40039.998322 
L 54.780285 40039.998322 
L 54.780285 40039.998322 
L 53.150493 40039.998322 
z
" style="fill:#4c72b0;"/>
   </g>
   <g id="patch_6">
    <path clip-path="url(#pba82d0beaf)" d="M 54.780285 40039.998322 
L 56.410077 40039.998322 
L 56.410077 40039.998322 
L 54.780285 40039.998322 
z
" style="fill:#4c72b0;"/>
   </g>
   <g id="patch_7">
    <path clip-path="url(#pba82d0beaf)" d="M 56.410077 40039.998322 
L 58.039869 40039.998322 
L 58.039869 40039.998322 
L 56.410077 40039.998322 
z
" style="fill:#4c72b0;"/>
   </g>
   <g id="patch_8">
    <path clip-path="url(#pba82d0beaf)" d="M 58.039869 40039.998322 
L 59.66966 40039.998322 
L 59.66966 240.130176 
L 58.039869 240.130176 
z
" style="fill:#4c72b0;"/>
   </g>
   <g id="patch_9">
    <path clip-path="url(#pba82d0beaf)" d="M 59.66966 40039.998322 
L 61.299452 40039.998322 
L 61.299452 288.328929 
L 59.66966 288.328929 
z
" style="fill:#4c72b0;"/>
   </g>
   <g id="patch_10">
    <path clip-path="url(#pba82d0beaf)" d="M 61.299452 40039.998322 
L 62.929244 40039.998322 
L 62.929244 307.28625 
L 61.299452 307.28625 
z
" style="fill:#4c72b0;"/>
   </g>
   <g id="patch_11">
    <path clip-path="url(#pba82d0beaf)" d="M 62.929244 40039.998322 
L 64.559036 40039.998322 
L 64.559036 40039.998322 
L 62.929244 40039.998322 
z
" style="fill:#4c72b0;"/>
   </g>
   <g id="patch_12">
    <path clip-path="url(#pba82d0beaf)" d="M 64.559036 40039.998322 
L 66.188828 40039.998322 
L 66.188828 288.328929 
L 64.559036 288.328929 
z
" style="fill:#4c72b0;"/>
   </g>
   <g id="patch_13">
    <path clip-path="url(#pba82d0beaf)" d="M 66.188828 40039.998322 
L 67.81862 40039.998322 
L 67.81862 283.364774 
L 66.188828 283.364774 
z
" style="fill:#4c72b0;"/>
   </g>
   <g id="patch_14">
    <path clip-path="url(#pba82d0beaf)" d="M 67.81862 40039.998322 
L 69.448412 40039.998322 
L 69.448412 307.28625 
L 67.81862 307.28625 
z
" style="fill:#4c72b0;"/>
   </g>
   <g id="patch_15">
    <path clip-path="url(#pba82d0beaf)" d="M 69.448412 40039.998322 
L 71.078204 40039.998322 
L 71.078204 295.325512 
L 69.448412 295.325512 
z
" style="fill:#4c72b0;"/>
   </g>
   <g id="patch_16">
    <path clip-path="url(#pba82d0beaf)" d="M 71.078204 40039.998322 
L 72.707996 40039.998322 
L 72.707996 288.328929 
L 71.078204 288.328929 
z
" style="fill:#4c72b0;"/>
   </g>
   <g id="patch_17">
    <path clip-path="url(#pba82d0beaf)" d="M 72.707996 40039.998322 
L 74.337788 40039.998322 
L 74.337788 283.364774 
L 72.707996 283.364774 
z
" style="fill:#4c72b0;"/>
   </g>
   <g id="patch_18">
    <path clip-path="url(#pba82d0beaf)" d="M 74.337788 40039.998322 
L 75.967579 40039.998322 
L 75.967579 279.514276 
L 74.337788 279.514276 
z
" style="fill:#4c72b0;"/>
   </g>
   <g id="patch_19">
    <path clip-path="url(#pba82d0beaf)" d="M 75.967579 40039.998322 
L 77.597371 40039.998322 
L 77.597371 283.364774 
L 75.967579 283.364774 
z
" style="fill:#4c72b0;"/>
   </g>
   <g id="patch_20">
    <path clip-path="url(#pba82d0beaf)" d="M 77.597371 40039.998322 
L 79.227163 40039.998322 
L 79.227163 276.36819 
L 77.597371 276.36819 
z
" style="fill:#4c72b0;"/>
   </g>
   <g id="patch_21">
    <path clip-path="url(#pba82d0beaf)" d="M 79.227163 40039.998322 
L 80.856955 40039.998322 
L 80.856955 295.325512 
L 79.227163 295.325512 
z
" style="fill:#4c72b0;"/>
   </g>
   <g id="patch_22">
    <path clip-path="url(#pba82d0beaf)" d="M 80.856955 40039.998322 
L 82.486747 40039.998322 
L 82.486747 279.514276 
L 80.856955 279.514276 
z
" style="fill:#4c72b0;"/>
   </g>
   <g id="patch_23">
    <path clip-path="url(#pba82d0beaf)" d="M 82.486747 40039.998322 
L 84.116539 40039.998322 
L 84.116539 269.371607 
L 82.486747 269.371607 
z
" style="fill:#4c72b0;"/>
   </g>
   <g id="patch_24">
    <path clip-path="url(#pba82d0beaf)" d="M 84.116539 40039.998322 
L 85.746331 40039.998322 
L 85.746331 283.364774 
L 84.116539 283.364774 
z
" style="fill:#4c72b0;"/>
   </g>
   <g id="patch_25">
    <path clip-path="url(#pba82d0beaf)" d="M 85.746331 40039.998322 
L 87.376123 40039.998322 
L 87.376123 271.404036 
L 85.746331 271.404036 
z
" style="fill:#4c72b0;"/>
   </g>
   <g id="patch_26">
    <path clip-path="url(#pba82d0beaf)" d="M 87.376123 40039.998322 
L 89.005915 40039.998322 
L 89.005915 283.364774 
L 87.376123 283.364774 
z
" style="fill:#4c72b0;"/>
   </g>
   <g id="patch_27">
    <path clip-path="url(#pba82d0beaf)" d="M 89.005915 40039.998322 
L 90.635706 40039.998322 
L 90.635706 283.364774 
L 89.005915 283.364774 
z
" style="fill:#4c72b0;"/>
   </g>
   <g id="patch_28">
    <path clip-path="url(#pba82d0beaf)" d="M 90.635706 40039.998322 
L 92.265498 40039.998322 
L 92.265498 273.708213 
L 90.635706 273.708213 
z
" style="fill:#4c72b0;"/>
   </g>
   <g id="patch_29">
    <path clip-path="url(#pba82d0beaf)" d="M 92.265498 40039.998322 
L 93.89529 40039.998322 
L 93.89529 273.708213 
L 92.265498 273.708213 
z
" style="fill:#4c72b0;"/>
   </g>
   <g id="patch_30">
    <path clip-path="url(#pba82d0beaf)" d="M 93.89529 40039.998322 
L 95.525082 40039.998322 
L 95.525082 271.404036 
L 93.89529 271.404036 
z
" style="fill:#4c72b0;"/>
   </g>
   <g id="patch_31">
    <path clip-path="url(#pba82d0beaf)" d="M 95.525082 40039.998322 
L 97.154874 40039.998322 
L 97.154874 276.36819 
L 95.525082 276.36819 
z
" style="fill:#4c72b0;"/>
   </g>
   <g id="patch_32">
    <path clip-path="url(#pba82d0beaf)" d="M 97.154874 40039.998322 
L 98.784666 40039.998322 
L 98.784666 259.443297 
L 97.154874 259.443297 
z
" style="fill:#4c72b0;"/>
   </g>
   <g id="patch_33">
    <path clip-path="url(#pba82d0beaf)" d="M 98.784666 40039.998322 
L 100.414458 40039.998322 
L 100.414458 251.065521 
L 98.784666 251.065521 
z
" style="fill:#4c72b0;"/>
   </g>
   <g id="patch_34">
    <path clip-path="url(#pba82d0beaf)" d="M 100.414458 40039.998322 
L 102.04425 40039.998322 
L 102.04425 288.328929 
L 100.414458 288.328929 
z
" style="fill:#4c72b0;"/>
   </g>
   <g id="patch_35">
    <path clip-path="url(#pba82d0beaf)" d="M 102.04425 40039.998322 
L 103.674042 40039.998322 
L 103.674042 264.407452 
L 102.04425 264.407452 
z
" style="fill:#4c72b0;"/>
   </g>
   <g id="patch_36">
    <path clip-path="url(#pba82d0beaf)" d="M 103.674042 40039.998322 
L 105.303834 40039.998322 
L 105.303834 269.371607 
L 103.674042 269.371607 
z
" style="fill:#4c72b0;"/>
   </g>
   <g id="patch_37">
    <path clip-path="url(#pba82d0beaf)" d="M 105.303834 40039.998322 
L 106.933625 40039.998322 
L 106.933625 256.477901 
L 105.303834 256.477901 
z
" style="fill:#4c72b0;"/>
   </g>
   <g id="patch_38">
    <path clip-path="url(#pba82d0beaf)" d="M 106.933625 40039.998322 
L 108.563417 40039.998322 
L 108.563417 256.477901 
L 106.933625 256.477901 
z
" style="fill:#4c72b0;"/>
   </g>
   <g id="patch_39">
    <path clip-path="url(#pba82d0beaf)" d="M 108.563417 40039.998322 
L 110.193209 40039.998322 
L 110.193209 261.747475 
L 108.563417 261.747475 
z
" style="fill:#4c72b0;"/>
   </g>
   <g id="patch_40">
    <path clip-path="url(#pba82d0beaf)" d="M 110.193209 40039.998322 
L 111.823001 40039.998322 
L 111.823001 255.5928 
L 110.193209 255.5928 
z
" style="fill:#4c72b0;"/>
   </g>
   <g id="patch_41">
    <path clip-path="url(#pba82d0beaf)" d="M 111.823001 40039.998322 
L 113.452793 40039.998322 
L 113.452793 267.553538 
L 111.823001 267.553538 
z
" style="fill:#4c72b0;"/>
   </g>
   <g id="patch_42">
    <path clip-path="url(#pba82d0beaf)" d="M 113.452793 40039.998322 
L 115.082585 40039.998322 
L 115.082585 245.936239 
L 113.452793 245.936239 
z
" style="fill:#4c72b0;"/>
   </g>
   <g id="patch_43">
    <path clip-path="url(#pba82d0beaf)" d="M 115.082585 40039.998322 
L 116.712377 40039.998322 
L 116.712377 248.596216 
L 115.082585 248.596216 
z
" style="fill:#4c72b0;"/>
   </g>
   <g id="patch_44">
    <path clip-path="url(#pba82d0beaf)" d="M 116.712377 40039.998322 
L 118.342169 40039.998322 
L 118.342169 239.104783 
L 116.712377 239.104783 
z
" style="fill:#4c72b0;"/>
   </g>
   <g id="patch_45">
    <path clip-path="url(#pba82d0beaf)" d="M 118.342169 40039.998322 
L 119.971961 40039.998322 
L 119.971961 239.781564 
L 118.342169 239.781564 
z
" style="fill:#4c72b0;"/>
   </g>
   <g id="patch_46">
    <path clip-path="url(#pba82d0beaf)" d="M 119.971961 40039.998322 
L 121.601752 40039.998322 
L 121.601752 227.994251 
L 119.971961 227.994251 
z
" style="fill:#4c72b0;"/>
   </g>
   <g id="patch_47">
    <path clip-path="url(#pba82d0beaf)" d="M 121.601752 40039.998322 
L 123.231544 40039.998322 
L 123.231544 222.514963 
L 121.601752 222.514963 
z
" style="fill:#4c72b0;"/>
   </g>
   <g id="patch_48">
    <path clip-path="url(#pba82d0beaf)" d="M 123.231544 40039.998322 
L 124.861336 40039.998322 
L 124.861336 210.427809 
L 123.231544 210.427809 
z
" style="fill:#4c72b0;"/>
   </g>
   <g id="patch_49">
    <path clip-path="url(#pba82d0beaf)" d="M 124.861336 40039.998322 
L 126.491128 40039.998322 
L 126.491128 208.131505 
L 124.861336 208.131505 
z
" style="fill:#4c72b0;"/>
   </g>
   <g id="patch_50">
    <path clip-path="url(#pba82d0beaf)" d="M 126.491128 40039.998322 
L 128.12092 40039.998322 
L 128.12092 187.865235 
L 126.491128 187.865235 
z
" style="fill:#4c72b0;"/>
   </g>
   <g id="patch_51">
    <path clip-path="url(#pba82d0beaf)" d="M 128.12092 40039.998322 
L 129.750712 40039.998322 
L 129.750712 40039.998322 
L 128.12092 40039.998322 
z
" style="fill:#4c72b0;"/>
   </g>
   <g id="patch_52">
    <path clip-path="url(#pba82d0beaf)" d="M 129.750712 40039.998322 
L 131.380504 40039.998322 
L 131.380504 279.514276 
L 129.750712 279.514276 
z
" style="fill:#4c72b0;"/>
   </g>
   <g id="patch_53">
    <path clip-path="url(#pba82d0beaf)" d="M 131.380504 40039.998322 
L 133.010296 40039.998322 
L 133.010296 175.642466 
L 131.380504 175.642466 
z
" style="fill:#4c72b0;"/>
   </g>
   <g id="patch_54">
    <path clip-path="url(#pba82d0beaf)" d="M 133.010296 40039.998322 
L 134.640088 40039.998322 
L 134.640088 218.664465 
L 133.010296 218.664465 
z
" style="fill:#4c72b0;"/>
   </g>
   <g id="patch_55">
    <path clip-path="url(#pba82d0beaf)" d="M 134.640088 40039.998322 
L 136.26988 40039.998322 
L 136.26988 86.611174 
L 134.640088 86.611174 
z
" style="fill:#4c72b0;"/>
   </g>
   <g id="patch_56">
    <path clip-path="url(#pba82d0beaf)" d="M 136.26988 40039.998322 
L 137.899671 40039.998322 
L 137.899671 60.600489 
L 136.26988 60.600489 
z
" style="fill:#4c72b0;"/>
   </g>
   <g id="patch_57">
    <path clip-path="url(#pba82d0beaf)" d="M 137.899671 40039.998322 
L 139.529463 40039.998322 
L 139.529463 39.106746 
L 137.899671 39.106746 
z
" style="fill:#4c72b0;"/>
   </g>
   <g id="patch_58">
    <path clip-path="url(#pba82d0beaf)" d="M 139.529463 40039.998322 
L 141.159255 40039.998322 
L 141.159255 39.623122 
L 139.529463 39.623122 
z
" style="fill:#4c72b0;"/>
   </g>
   <g id="patch_59">
    <path clip-path="url(#pba82d0beaf)" d="M 141.159255 40039.998322 
L 142.789047 40039.998322 
L 142.789047 35.48625 
L 141.159255 35.48625 
z
" style="fill:#4c72b0;"/>
   </g>
   <g id="patch_60">
    <path clip-path="url(#pba82d0beaf)" d="M 142.789047 40039.998322 
L 144.418839 40039.998322 
L 144.418839 41.271741 
L 142.789047 41.271741 
z
" style="fill:#4c72b0;"/>
   </g>
   <g id="patch_61">
    <path clip-path="url(#pba82d0beaf)" d="M 144.418839 40039.998322 
L 146.048631 40039.998322 
L 146.048631 40.006053 
L 144.418839 40.006053 
z
" style="fill:#4c72b0;"/>
   </g>
   <g id="patch_62">
    <path clip-path="url(#pba82d0beaf)" d="M 146.048631 40039.998322 
L 147.678423 40039.998322 
L 147.678423 46.996929 
L 146.048631 46.996929 
z
" style="fill:#4c72b0;"/>
   </g>
   <g id="patch_63">
    <path clip-path="url(#pba82d0beaf)" d="M 147.678423 40039.998322 
L 149.308215 40039.998322 
L 149.308215 46.861228 
L 147.678423 46.861228 
z
" style="fill:#4c72b0;"/>
   </g>
   <g id="patch_64">
    <path clip-path="url(#pba82d0beaf)" d="M 149.308215 40039.998322 
L 150.938007 40039.998322 
L 150.938007 53.886703 
L 149.308215 53.886703 
z
" style="fill:#4c72b0;"/>
   </g>
   <g id="patch_65">
    <path clip-path="url(#pba82d0beaf)" d="M 150.938007 40039.998322 
L 152.567798 40039.998322 
L 152.567798 54.019646 
L 150.938007 54.019646 
z
" style="fill:#4c72b0;"/>
   </g>
   <g id="patch_66">
    <path clip-path="url(#pba82d0beaf)" d="M 152.567798 40039.998322 
L 154.19759 40039.998322 
L 154.19759 60.753862 
L 152.567798 60.753862 
z
" style="fill:#4c72b0;"/>
   </g>
   <g id="patch_67">
    <path clip-path="url(#pba82d0beaf)" d="M 154.19759 40039.998322 
L 155.827382 40039.998322 
L 155.827382 60.861377 
L 154.19759 60.861377 
z
" style="fill:#4c72b0;"/>
   </g>
   <g id="patch_68">
    <path clip-path="url(#pba82d0beaf)" d="M 155.827382 40039.998322 
L 157.457174 40039.998322 
L 157.457174 67.274976 
L 155.827382 67.274976 
z
" style="fill:#4c72b0;"/>
   </g>
   <g id="patch_69">
    <path clip-path="url(#pba82d0beaf)" d="M 157.457174 40039.998322 
L 159.086966 40039.998322 
L 159.086966 67.382733 
L 157.457174 67.382733 
z
" style="fill:#4c72b0;"/>
   </g>
   <g id="patch_70">
    <path clip-path="url(#pba82d0beaf)" d="M 159.086966 40039.998322 
L 160.716758 40039.998322 
L 160.716758 73.423915 
L 159.086966 73.423915 
z
" style="fill:#4c72b0;"/>
   </g>
   <g id="patch_71">
    <path clip-path="url(#pba82d0beaf)" d="M 160.716758 40039.998322 
L 162.34655 40039.998322 
L 162.34655 73.819334 
L 160.716758 73.819334 
z
" style="fill:#4c72b0;"/>
   </g>
   <g id="patch_72">
    <path clip-path="url(#pba82d0beaf)" d="M 162.34655 40039.998322 
L 163.976342 40039.998322 
L 163.976342 79.839288 
L 162.34655 79.839288 
z
" style="fill:#4c72b0;"/>
   </g>
   <g id="patch_73">
    <path clip-path="url(#pba82d0beaf)" d="M 163.976342 40039.998322 
L 165.606134 40039.998322 
L 165.606134 80.221653 
L 163.976342 80.221653 
z
" style="fill:#4c72b0;"/>
   </g>
   <g id="patch_74">
    <path clip-path="url(#pba82d0beaf)" d="M 165.606134 40039.998322 
L 167.235926 40039.998322 
L 167.235926 85.8948 
L 165.606134 85.8948 
z
" style="fill:#4c72b0;"/>
   </g>
   <g id="patch_75">
    <path clip-path="url(#pba82d0beaf)" d="M 167.235926 40039.998322 
L 168.865717 40039.998322 
L 168.865717 86.079264 
L 167.235926 86.079264 
z
" style="fill:#4c72b0;"/>
   </g>
   <g id="patch_76">
    <path clip-path="url(#pba82d0beaf)" d="M 168.865717 40039.998322 
L 170.495509 40039.998322 
L 170.495509 90.560584 
L 168.865717 90.560584 
z
" style="fill:#4c72b0;"/>
   </g>
   <g id="patch_77">
    <path clip-path="url(#pba82d0beaf)" d="M 170.495509 40039.998322 
L 172.125301 40039.998322 
L 172.125301 89.85693 
L 170.495509 89.85693 
z
" style="fill:#4c72b0;"/>
   </g>
   <g id="patch_78">
    <path clip-path="url(#pba82d0beaf)" d="M 172.125301 40039.998322 
L 173.755093 40039.998322 
L 173.755093 93.336408 
L 172.125301 93.336408 
z
" style="fill:#4c72b0;"/>
   </g>
   <g id="patch_79">
    <path clip-path="url(#pba82d0beaf)" d="M 173.755093 40039.998322 
L 175.384885 40039.998322 
L 175.384885 92.514872 
L 173.755093 92.514872 
z
" style="fill:#4c72b0;"/>
   </g>
   <g id="patch_80">
    <path clip-path="url(#pba82d0beaf)" d="M 175.384885 40039.998322 
L 177.014677 40039.998322 
L 177.014677 95.551881 
L 175.384885 95.551881 
z
" style="fill:#4c72b0;"/>
   </g>
   <g id="patch_81">
    <path clip-path="url(#pba82d0beaf)" d="M 177.014677 40039.998322 
L 178.644469 40039.998322 
L 178.644469 94.536746 
L 177.014677 94.536746 
z
" style="fill:#4c72b0;"/>
   </g>
   <g id="patch_82">
    <path clip-path="url(#pba82d0beaf)" d="M 178.644469 40039.998322 
L 180.274261 40039.998322 
L 180.274261 97.052697 
L 178.644469 97.052697 
z
" style="fill:#4c72b0;"/>
   </g>
   <g id="patch_83">
    <path clip-path="url(#pba82d0beaf)" d="M 180.274261 40039.998322 
L 181.904053 40039.998322 
L 181.904053 96.529592 
L 180.274261 96.529592 
z
" style="fill:#4c72b0;"/>
   </g>
   <g id="patch_84">
    <path clip-path="url(#pba82d0beaf)" d="M 181.904053 40039.998322 
L 183.533844 40039.998322 
L 183.533844 99.46024 
L 181.904053 99.46024 
z
" style="fill:#4c72b0;"/>
   </g>
   <g id="patch_85">
    <path clip-path="url(#pba82d0beaf)" d="M 183.533844 40039.998322 
L 185.163636 40039.998322 
L 185.163636 99.584069 
L 183.533844 99.584069 
z
" style="fill:#4c72b0;"/>
   </g>
   <g id="patch_86">
    <path clip-path="url(#pba82d0beaf)" d="M 185.163636 40039.998322 
L 186.793428 40039.998322 
L 186.793428 102.658111 
L 185.163636 102.658111 
z
" style="fill:#4c72b0;"/>
   </g>
   <g id="patch_87">
    <path clip-path="url(#pba82d0beaf)" d="M 186.793428 40039.998322 
L 188.42322 40039.998322 
L 188.42322 102.97997 
L 186.793428 102.97997 
z
" style="fill:#4c72b0;"/>
   </g>
   <g id="patch_88">
    <path clip-path="url(#pba82d0beaf)" d="M 188.42322 40039.998322 
L 190.053012 40039.998322 
L 190.053012 105.819054 
L 188.42322 105.819054 
z
" style="fill:#4c72b0;"/>
   </g>
   <g id="patch_89">
    <path clip-path="url(#pba82d0beaf)" d="M 190.053012 40039.998322 
L 191.682804 40039.998322 
L 191.682804 107.001121 
L 190.053012 107.001121 
z
" style="fill:#4c72b0;"/>
   </g>
   <g id="patch_90">
    <path clip-path="url(#pba82d0beaf)" d="M 191.682804 40039.998322 
L 193.312596 40039.998322 
L 193.312596 110.221666 
L 191.682804 110.221666 
z
" style="fill:#4c72b0;"/>
   </g>
   <g id="patch_91">
    <path clip-path="url(#pba82d0beaf)" d="M 193.312596 40039.998322 
L 194.942388 40039.998322 
L 194.942388 111.401304 
L 193.312596 111.401304 
z
" style="fill:#4c72b0;"/>
   </g>
   <g id="patch_92">
    <path clip-path="url(#pba82d0beaf)" d="M 194.942388 40039.998322 
L 196.57218 40039.998322 
L 196.57218 114.451131 
L 194.942388 114.451131 
z
" style="fill:#4c72b0;"/>
   </g>
   <g id="patch_93">
    <path clip-path="url(#pba82d0beaf)" d="M 196.57218 40039.998322 
L 198.201972 40039.998322 
L 198.201972 115.560015 
L 196.57218 115.560015 
z
" style="fill:#4c72b0;"/>
   </g>
   <g id="patch_94">
    <path clip-path="url(#pba82d0beaf)" d="M 198.201972 40039.998322 
L 199.831763 40039.998322 
L 199.831763 119.351865 
L 198.201972 119.351865 
z
" style="fill:#4c72b0;"/>
   </g>
   <g id="patch_95">
    <path clip-path="url(#pba82d0beaf)" d="M 199.831763 40039.998322 
L 201.461555 40039.998322 
L 201.461555 120.579977 
L 199.831763 120.579977 
z
" style="fill:#4c72b0;"/>
   </g>
   <g id="patch_96">
    <path clip-path="url(#pba82d0beaf)" d="M 201.461555 40039.998322 
L 203.091347 40039.998322 
L 203.091347 124.027208 
L 201.461555 124.027208 
z
" style="fill:#4c72b0;"/>
   </g>
   <g id="patch_97">
    <path clip-path="url(#pba82d0beaf)" d="M 203.091347 40039.998322 
L 204.721139 40039.998322 
L 204.721139 125.334473 
L 203.091347 125.334473 
z
" style="fill:#4c72b0;"/>
   </g>
   <g id="patch_98">
    <path clip-path="url(#pba82d0beaf)" d="M 204.721139 40039.998322 
L 206.350931 40039.998322 
L 206.350931 98.682327 
L 204.721139 98.682327 
z
" style="fill:#4c72b0;"/>
   </g>
   <g id="patch_99">
    <path clip-path="url(#pba82d0beaf)" d="M 206.350931 40039.998322 
L 207.980723 40039.998322 
L 207.980723 130.565198 
L 206.350931 130.565198 
z
" style="fill:#4c72b0;"/>
   </g>
   <g id="patch_100">
    <path clip-path="url(#pba82d0beaf)" d="M 207.980723 40039.998322 
L 209.610515 40039.998322 
L 209.610515 134.022031 
L 207.980723 134.022031 
z
" style="fill:#4c72b0;"/>
   </g>
   <g id="patch_101">
    <path clip-path="url(#pba82d0beaf)" d="M 209.610515 40039.998322 
L 211.240307 40039.998322 
L 211.240307 134.534111 
L 209.610515 134.534111 
z
" style="fill:#4c72b0;"/>
   </g>
   <g id="patch_102">
    <path clip-path="url(#pba82d0beaf)" d="M 211.240307 40039.998322 
L 212.870099 40039.998322 
L 212.870099 88.191932 
L 211.240307 88.191932 
z
" style="fill:#4c72b0;"/>
   </g>
   <g id="patch_103">
    <path clip-path="url(#pba82d0beaf)" d="M 212.870099 40039.998322 
L 214.49989 40039.998322 
L 214.49989 124.751751 
L 212.870099 124.751751 
z
" style="fill:#4c72b0;"/>
   </g>
   <g id="patch_104">
    <path clip-path="url(#pba82d0beaf)" d="M 214.49989 40039.998322 
L 216.129682 40039.998322 
L 216.129682 139.639041 
L 214.49989 139.639041 
z
" style="fill:#4c72b0;"/>
   </g>
   <g id="patch_105">
    <path clip-path="url(#pba82d0beaf)" d="M 216.129682 40039.998322 
L 217.759474 40039.998322 
L 217.759474 105.737108 
L 216.129682 105.737108 
z
" style="fill:#4c72b0;"/>
   </g>
   <g id="patch_106">
    <path clip-path="url(#pba82d0beaf)" d="M 217.759474 40039.998322 
L 219.389266 40039.998322 
L 219.389266 142.624688 
L 217.759474 142.624688 
z
" style="fill:#4c72b0;"/>
   </g>
   <g id="patch_107">
    <path clip-path="url(#pba82d0beaf)" d="M 219.389266 40039.998322 
L 221.019058 40039.998322 
L 221.019058 145.255393 
L 219.389266 145.255393 
z
" style="fill:#4c72b0;"/>
   </g>
   <g id="patch_108">
    <path clip-path="url(#pba82d0beaf)" d="M 221.019058 40039.998322 
L 222.64885 40039.998322 
L 222.64885 144.551904 
L 221.019058 144.551904 
z
" style="fill:#4c72b0;"/>
   </g>
   <g id="patch_109">
    <path clip-path="url(#pba82d0beaf)" d="M 222.64885 40039.998322 
L 224.278642 40039.998322 
L 224.278642 116.76388 
L 222.64885 116.76388 
z
" style="fill:#4c72b0;"/>
   </g>
   <g id="patch_110">
    <path clip-path="url(#pba82d0beaf)" d="M 224.278642 40039.998322 
L 225.908434 40039.998322 
L 225.908434 90.696152 
L 224.278642 90.696152 
z
" style="fill:#4c72b0;"/>
   </g>
   <g id="patch_111">
    <path clip-path="url(#pba82d0beaf)" d="M 225.908434 40039.998322 
L 227.538226 40039.998322 
L 227.538226 149.892018 
L 225.908434 149.892018 
z
" style="fill:#4c72b0;"/>
   </g>
   <g id="patch_112">
    <path clip-path="url(#pba82d0beaf)" d="M 227.538226 40039.998322 
L 229.168018 40039.998322 
L 229.168018 151.687467 
L 227.538226 151.687467 
z
" style="fill:#4c72b0;"/>
   </g>
   <g id="patch_113">
    <path clip-path="url(#pba82d0beaf)" d="M 229.168018 40039.998322 
L 230.797809 40039.998322 
L 230.797809 144.568522 
L 229.168018 144.568522 
z
" style="fill:#4c72b0;"/>
   </g>
   <g id="patch_114">
    <path clip-path="url(#pba82d0beaf)" d="M 230.797809 40039.998322 
L 232.427601 40039.998322 
L 232.427601 154.790906 
L 230.797809 154.790906 
z
" style="fill:#4c72b0;"/>
   </g>
   <g id="patch_115">
    <path clip-path="url(#pba82d0beaf)" d="M 232.427601 40039.998322 
L 234.057393 40039.998322 
L 234.057393 156.037534 
L 232.427601 156.037534 
z
" style="fill:#4c72b0;"/>
   </g>
   <g id="patch_116">
    <path clip-path="url(#pba82d0beaf)" d="M 234.057393 40039.998322 
L 235.687185 40039.998322 
L 235.687185 156.438055 
L 234.057393 156.438055 
z
" style="fill:#4c72b0;"/>
   </g>
   <g id="patch_117">
    <path clip-path="url(#pba82d0beaf)" d="M 235.687185 40039.998322 
L 237.316977 40039.998322 
L 237.316977 159.602895 
L 235.687185 159.602895 
z
" style="fill:#4c72b0;"/>
   </g>
   <g id="patch_118">
    <path clip-path="url(#pba82d0beaf)" d="M 237.316977 40039.998322 
L 238.946769 40039.998322 
L 238.946769 153.518565 
L 237.316977 153.518565 
z
" style="fill:#4c72b0;"/>
   </g>
   <g id="patch_119">
    <path clip-path="url(#pba82d0beaf)" d="M 238.946769 40039.998322 
L 240.576561 40039.998322 
L 240.576561 161.717476 
L 238.946769 161.717476 
z
" style="fill:#4c72b0;"/>
   </g>
   <g id="patch_120">
    <path clip-path="url(#pba82d0beaf)" d="M 240.576561 40039.998322 
L 242.206353 40039.998322 
L 242.206353 162.180286 
L 240.576561 162.180286 
z
" style="fill:#4c72b0;"/>
   </g>
   <g id="patch_121">
    <path clip-path="url(#pba82d0beaf)" d="M 242.206353 40039.998322 
L 243.836145 40039.998322 
L 243.836145 161.766205 
L 242.206353 161.766205 
z
" style="fill:#4c72b0;"/>
   </g>
   <g id="patch_122">
    <path clip-path="url(#pba82d0beaf)" d="M 243.836145 40039.998322 
L 245.465936 40039.998322 
L 245.465936 163.047589 
L 243.836145 163.047589 
z
" style="fill:#4c72b0;"/>
   </g>
   <g id="patch_123">
    <path clip-path="url(#pba82d0beaf)" d="M 245.465936 40039.998322 
L 247.095728 40039.998322 
L 247.095728 158.094556 
L 245.465936 158.094556 
z
" style="fill:#4c72b0;"/>
   </g>
   <g id="patch_124">
    <path clip-path="url(#pba82d0beaf)" d="M 247.095728 40039.998322 
L 248.72552 40039.998322 
L 248.72552 166.06157 
L 247.095728 166.06157 
z
" style="fill:#4c72b0;"/>
   </g>
   <g id="patch_125">
    <path clip-path="url(#pba82d0beaf)" d="M 248.72552 40039.998322 
L 250.355312 40039.998322 
L 250.355312 167.570016 
L 248.72552 167.570016 
z
" style="fill:#4c72b0;"/>
   </g>
   <g id="patch_126">
    <path clip-path="url(#pba82d0beaf)" d="M 250.355312 40039.998322 
L 251.985104 40039.998322 
L 251.985104 167.216361 
L 250.355312 167.216361 
z
" style="fill:#4c72b0;"/>
   </g>
   <g id="patch_127">
    <path clip-path="url(#pba82d0beaf)" d="M 251.985104 40039.998322 
L 253.614896 40039.998322 
L 253.614896 168.732785 
L 251.985104 168.732785 
z
" style="fill:#4c72b0;"/>
   </g>
   <g id="patch_128">
    <path clip-path="url(#pba82d0beaf)" d="M 253.614896 40039.998322 
L 255.244688 40039.998322 
L 255.244688 161.579534 
L 253.614896 161.579534 
z
" style="fill:#4c72b0;"/>
   </g>
   <g id="patch_129">
    <path clip-path="url(#pba82d0beaf)" d="M 255.244688 40039.998322 
L 256.87448 40039.998322 
L 256.87448 169.056179 
L 255.244688 169.056179 
z
" style="fill:#4c72b0;"/>
   </g>
   <g id="patch_130">
    <path clip-path="url(#pba82d0beaf)" d="M 256.87448 40039.998322 
L 258.504272 40039.998322 
L 258.504272 170.241382 
L 256.87448 170.241382 
z
" style="fill:#4c72b0;"/>
   </g>
   <g id="patch_131">
    <path clip-path="url(#pba82d0beaf)" d="M 258.504272 40039.998322 
L 260.134064 40039.998322 
L 260.134064 170.015894 
L 258.504272 170.015894 
z
" style="fill:#4c72b0;"/>
   </g>
   <g id="patch_132">
    <path clip-path="url(#pba82d0beaf)" d="M 260.134064 40039.998322 
L 261.763855 40039.998322 
L 261.763855 170.131317 
L 260.134064 170.131317 
z
" style="fill:#4c72b0;"/>
   </g>
   <g id="patch_133">
    <path clip-path="url(#pba82d0beaf)" d="M 261.763855 40039.998322 
L 263.393647 40039.998322 
L 263.393647 161.067349 
L 261.763855 161.067349 
z
" style="fill:#4c72b0;"/>
   </g>
   <g id="patch_134">
    <path clip-path="url(#pba82d0beaf)" d="M 263.393647 40039.998322 
L 265.023439 40039.998322 
L 265.023439 172.909541 
L 263.393647 172.909541 
z
" style="fill:#4c72b0;"/>
   </g>
   <g id="patch_135">
    <path clip-path="url(#pba82d0beaf)" d="M 265.023439 40039.998322 
L 266.653231 40039.998322 
L 266.653231 174.679942 
L 265.023439 174.679942 
z
" style="fill:#4c72b0;"/>
   </g>
   <g id="patch_136">
    <path clip-path="url(#pba82d0beaf)" d="M 266.653231 40039.998322 
L 268.283023 40039.998322 
L 268.283023 174.2645 
L 266.653231 174.2645 
z
" style="fill:#4c72b0;"/>
   </g>
   <g id="patch_137">
    <path clip-path="url(#pba82d0beaf)" d="M 268.283023 40039.998322 
L 269.912815 40039.998322 
L 269.912815 175.567132 
L 268.283023 175.567132 
z
" style="fill:#4c72b0;"/>
   </g>
   <g id="patch_138">
    <path clip-path="url(#pba82d0beaf)" d="M 269.912815 40039.998322 
L 271.542607 40039.998322 
L 271.542607 169.374079 
L 269.912815 169.374079 
z
" style="fill:#4c72b0;"/>
   </g>
   <g id="patch_139">
    <path clip-path="url(#pba82d0beaf)" d="M 271.542607 40039.998322 
L 273.172399 40039.998322 
L 273.172399 179.321845 
L 271.542607 179.321845 
z
" style="fill:#4c72b0;"/>
   </g>
   <g id="patch_140">
    <path clip-path="url(#pba82d0beaf)" d="M 273.172399 40039.998322 
L 274.802191 40039.998322 
L 274.802191 179.425984 
L 273.172399 179.425984 
z
" style="fill:#4c72b0;"/>
   </g>
   <g id="patch_141">
    <path clip-path="url(#pba82d0beaf)" d="M 274.802191 40039.998322 
L 276.431982 40039.998322 
L 276.431982 178.750006 
L 274.802191 178.750006 
z
" style="fill:#4c72b0;"/>
   </g>
   <g id="patch_142">
    <path clip-path="url(#pba82d0beaf)" d="M 276.431982 40039.998322 
L 278.061774 40039.998322 
L 278.061774 180.988306 
L 276.431982 180.988306 
z
" style="fill:#4c72b0;"/>
   </g>
   <g id="patch_143">
    <path clip-path="url(#pba82d0beaf)" d="M 278.061774 40039.998322 
L 279.691566 40039.998322 
L 279.691566 172.443333 
L 278.061774 172.443333 
z
" style="fill:#4c72b0;"/>
   </g>
   <g id="patch_144">
    <path clip-path="url(#pba82d0beaf)" d="M 279.691566 40039.998322 
L 281.321358 40039.998322 
L 281.321358 186.178831 
L 279.691566 186.178831 
z
" style="fill:#4c72b0;"/>
   </g>
   <g id="patch_145">
    <path clip-path="url(#pba82d0beaf)" d="M 281.321358 40039.998322 
L 282.95115 40039.998322 
L 282.95115 187.229779 
L 281.321358 187.229779 
z
" style="fill:#4c72b0;"/>
   </g>
   <g id="patch_146">
    <path clip-path="url(#pba82d0beaf)" d="M 282.95115 40039.998322 
L 284.580942 40039.998322 
L 284.580942 189.119142 
L 282.95115 189.119142 
z
" style="fill:#4c72b0;"/>
   </g>
   <g id="patch_147">
    <path clip-path="url(#pba82d0beaf)" d="M 284.580942 40039.998322 
L 286.210734 40039.998322 
L 286.210734 190.27437 
L 284.580942 190.27437 
z
" style="fill:#4c72b0;"/>
   </g>
   <g id="patch_148">
    <path clip-path="url(#pba82d0beaf)" d="M 286.210734 40039.998322 
L 287.840526 40039.998322 
L 287.840526 183.977303 
L 286.210734 183.977303 
z
" style="fill:#4c72b0;"/>
   </g>
   <g id="patch_149">
    <path clip-path="url(#pba82d0beaf)" d="M 287.840526 40039.998322 
L 289.470318 40039.998322 
L 289.470318 191.895526 
L 287.840526 191.895526 
z
" style="fill:#4c72b0;"/>
   </g>
   <g id="patch_150">
    <path clip-path="url(#pba82d0beaf)" d="M 289.470318 40039.998322 
L 291.10011 40039.998322 
L 291.10011 194.768384 
L 289.470318 194.768384 
z
" style="fill:#4c72b0;"/>
   </g>
   <g id="patch_151">
    <path clip-path="url(#pba82d0beaf)" d="M 291.10011 40039.998322 
L 292.729901 40039.998322 
L 292.729901 194.022344 
L 291.10011 194.022344 
z
" style="fill:#4c72b0;"/>
   </g>
   <g id="patch_152">
    <path clip-path="url(#pba82d0beaf)" d="M 292.729901 40039.998322 
L 294.359693 40039.998322 
L 294.359693 195.363021 
L 292.729901 195.363021 
z
" style="fill:#4c72b0;"/>
   </g>
   <g id="patch_153">
    <path clip-path="url(#pba82d0beaf)" d="M 294.359693 40039.998322 
L 295.989485 40039.998322 
L 295.989485 172.153082 
L 294.359693 172.153082 
z
" style="fill:#4c72b0;"/>
   </g>
   <g id="patch_154">
    <path clip-path="url(#pba82d0beaf)" d="M 295.989485 40039.998322 
L 297.619277 40039.998322 
L 297.619277 199.338919 
L 295.989485 199.338919 
z
" style="fill:#4c72b0;"/>
   </g>
   <g id="patch_155">
    <path clip-path="url(#pba82d0beaf)" d="M 297.619277 40039.998322 
L 299.249069 40039.998322 
L 299.249069 200.397464 
L 297.619277 200.397464 
z
" style="fill:#4c72b0;"/>
   </g>
   <g id="patch_156">
    <path clip-path="url(#pba82d0beaf)" d="M 299.249069 40039.998322 
L 300.878861 40039.998322 
L 300.878861 202.853229 
L 299.249069 202.853229 
z
" style="fill:#4c72b0;"/>
   </g>
   <g id="patch_157">
    <path clip-path="url(#pba82d0beaf)" d="M 300.878861 40039.998322 
L 302.508653 40039.998322 
L 302.508653 199.538794 
L 300.878861 199.538794 
z
" style="fill:#4c72b0;"/>
   </g>
   <g id="patch_158">
    <path clip-path="url(#pba82d0beaf)" d="M 302.508653 40039.998322 
L 304.138445 40039.998322 
L 304.138445 195.951644 
L 302.508653 195.951644 
z
" style="fill:#4c72b0;"/>
   </g>
   <g id="patch_159">
    <path clip-path="url(#pba82d0beaf)" d="M 304.138445 40039.998322 
L 305.768237 40039.998322 
L 305.768237 203.305729 
L 304.138445 203.305729 
z
" style="fill:#4c72b0;"/>
   </g>
   <g id="patch_160">
    <path clip-path="url(#pba82d0beaf)" d="M 305.768237 40039.998322 
L 307.398028 40039.998322 
L 307.398028 205.013007 
L 305.768237 205.013007 
z
" style="fill:#4c72b0;"/>
   </g>
   <g id="patch_161">
    <path clip-path="url(#pba82d0beaf)" d="M 307.398028 40039.998322 
L 309.02782 40039.998322 
L 309.02782 203.139808 
L 307.398028 203.139808 
z
" style="fill:#4c72b0;"/>
   </g>
   <g id="patch_162">
    <path clip-path="url(#pba82d0beaf)" d="M 309.02782 40039.998322 
L 310.657612 40039.998322 
L 310.657612 202.812675 
L 309.02782 202.812675 
z
" style="fill:#4c72b0;"/>
   </g>
   <g id="patch_163">
    <path clip-path="url(#pba82d0beaf)" d="M 310.657612 40039.998322 
L 312.287404 40039.998322 
L 312.287404 191.324163 
L 310.657612 191.324163 
z
" style="fill:#4c72b0;"/>
   </g>
   <g id="patch_164">
    <path clip-path="url(#pba82d0beaf)" d="M 312.287404 40039.998322 
L 313.917196 40039.998322 
L 313.917196 203.985844 
L 312.287404 203.985844 
z
" style="fill:#4c72b0;"/>
   </g>
   <g id="patch_165">
    <path clip-path="url(#pba82d0beaf)" d="M 313.917196 40039.998322 
L 315.546988 40039.998322 
L 315.546988 201.790399 
L 313.917196 201.790399 
z
" style="fill:#4c72b0;"/>
   </g>
   <g id="patch_166">
    <path clip-path="url(#pba82d0beaf)" d="M 315.546988 40039.998322 
L 317.17678 40039.998322 
L 317.17678 207.749847 
L 315.546988 207.749847 
z
" style="fill:#4c72b0;"/>
   </g>
   <g id="patch_167">
    <path clip-path="url(#pba82d0beaf)" d="M 317.17678 40039.998322 
L 318.806572 40039.998322 
L 318.806572 205.813551 
L 317.17678 205.813551 
z
" style="fill:#4c72b0;"/>
   </g>
   <g id="patch_168">
    <path clip-path="url(#pba82d0beaf)" d="M 318.806572 40039.998322 
L 320.436364 40039.998322 
L 320.436364 199.338919 
L 318.806572 199.338919 
z
" style="fill:#4c72b0;"/>
   </g>
   <g id="patch_169">
    <path clip-path="url(#pba82d0beaf)" d="M 320.436364 40039.998322 
L 322.066156 40039.998322 
L 322.066156 209.992507 
L 320.436364 209.992507 
z
" style="fill:#4c72b0;"/>
   </g>
   <g id="patch_170">
    <path clip-path="url(#pba82d0beaf)" d="M 322.066156 40039.998322 
L 323.695947 40039.998322 
L 323.695947 210.809869 
L 322.066156 210.809869 
z
" style="fill:#4c72b0;"/>
   </g>
   <g id="patch_171">
    <path clip-path="url(#pba82d0beaf)" d="M 323.695947 40039.998322 
L 325.325739 40039.998322 
L 325.325739 211.803754 
L 323.695947 211.803754 
z
" style="fill:#4c72b0;"/>
   </g>
   <g id="patch_172">
    <path clip-path="url(#pba82d0beaf)" d="M 325.325739 40039.998322 
L 326.955531 40039.998322 
L 326.955531 211.332809 
L 325.325739 211.332809 
z
" style="fill:#4c72b0;"/>
   </g>
   <g id="patch_173">
    <path clip-path="url(#pba82d0beaf)" d="M 326.955531 40039.998322 
L 328.585323 40039.998322 
L 328.585323 186.101762 
L 326.955531 186.101762 
z
" style="fill:#4c72b0;"/>
   </g>
   <g id="patch_174">
    <path clip-path="url(#pba82d0beaf)" d="M 328.585323 40039.998322 
L 330.215115 40039.998322 
L 330.215115 216.745189 
L 328.585323 216.745189 
z
" style="fill:#4c72b0;"/>
   </g>
   <g id="patch_175">
    <path clip-path="url(#pba82d0beaf)" d="M 330.215115 40039.998322 
L 331.844907 40039.998322 
L 331.844907 216.120884 
L 330.215115 216.120884 
z
" style="fill:#4c72b0;"/>
   </g>
   <g id="patch_176">
    <path clip-path="url(#pba82d0beaf)" d="M 331.844907 40039.998322 
L 333.474699 40039.998322 
L 333.474699 214.215444 
L 331.844907 214.215444 
z
" style="fill:#4c72b0;"/>
   </g>
   <g id="patch_177">
    <path clip-path="url(#pba82d0beaf)" d="M 333.474699 40039.998322 
L 335.104491 40039.998322 
L 335.104491 215.183307 
L 333.474699 215.183307 
z
" style="fill:#4c72b0;"/>
   </g>
   <g id="patch_178">
    <path clip-path="url(#pba82d0beaf)" d="M 335.104491 40039.998322 
L 336.734283 40039.998322 
L 336.734283 200.717352 
L 335.104491 200.717352 
z
" style="fill:#4c72b0;"/>
   </g>
   <g id="patch_179">
    <path clip-path="url(#pba82d0beaf)" d="M 336.734283 40039.998322 
L 338.364074 40039.998322 
L 338.364074 218.362609 
L 336.734283 218.362609 
z
" style="fill:#4c72b0;"/>
   </g>
   <g id="patch_180">
    <path clip-path="url(#pba82d0beaf)" d="M 338.364074 40039.998322 
L 339.993866 40039.998322 
L 339.993866 219.710585 
L 338.364074 219.710585 
z
" style="fill:#4c72b0;"/>
   </g>
   <g id="patch_181">
    <path clip-path="url(#pba82d0beaf)" d="M 339.993866 40039.998322 
L 341.623658 40039.998322 
L 341.623658 215.688388 
L 339.993866 215.688388 
z
" style="fill:#4c72b0;"/>
   </g>
   <g id="patch_182">
    <path clip-path="url(#pba82d0beaf)" d="M 341.623658 40039.998322 
L 343.25345 40039.998322 
L 343.25345 216.745189 
L 341.623658 216.745189 
z
" style="fill:#4c72b0;"/>
   </g>
   <g id="patch_183">
    <path clip-path="url(#pba82d0beaf)" d="M 343.25345 40039.998322 
L 344.883242 40039.998322 
L 344.883242 200.222277 
L 343.25345 200.222277 
z
" style="fill:#4c72b0;"/>
   </g>
   <g id="patch_184">
    <path clip-path="url(#pba82d0beaf)" d="M 344.883242 40039.998322 
L 346.513034 40039.998322 
L 346.513034 217.582557 
L 344.883242 217.582557 
z
" style="fill:#4c72b0;"/>
   </g>
   <g id="patch_185">
    <path clip-path="url(#pba82d0beaf)" d="M 346.513034 40039.998322 
L 348.142826 40039.998322 
L 348.142826 219.075335 
L 346.513034 219.075335 
z
" style="fill:#4c72b0;"/>
   </g>
   <g id="patch_186">
    <path clip-path="url(#pba82d0beaf)" d="M 348.142826 40039.998322 
L 349.772618 40039.998322 
L 349.772618 221.528655 
L 348.142826 221.528655 
z
" style="fill:#4c72b0;"/>
   </g>
   <g id="patch_187">
    <path clip-path="url(#pba82d0beaf)" d="M 349.772618 40039.998322 
L 351.40241 40039.998322 
L 351.40241 218.164265 
L 349.772618 218.164265 
z
" style="fill:#4c72b0;"/>
   </g>
   <g id="patch_188">
    <path clip-path="url(#pba82d0beaf)" d="M 351.40241 40039.998322 
L 353.032202 40039.998322 
L 353.032202 208.131505 
L 351.40241 208.131505 
z
" style="fill:#4c72b0;"/>
   </g>
   <g id="patch_189">
    <path clip-path="url(#pba82d0beaf)" d="M 353.032202 40039.998322 
L 354.661993 40039.998322 
L 354.661993 218.164265 
L 353.032202 218.164265 
z
" style="fill:#4c72b0;"/>
   </g>
   <g id="patch_190">
    <path clip-path="url(#pba82d0beaf)" d="M 354.661993 40039.998322 
L 356.291785 40039.998322 
L 356.291785 225.409136 
L 354.661993 225.409136 
z
" style="fill:#4c72b0;"/>
   </g>
   <g id="patch_191">
    <path clip-path="url(#pba82d0beaf)" d="M 356.291785 40039.998322 
L 357.921577 40039.998322 
L 357.921577 226.020021 
L 356.291785 226.020021 
z
" style="fill:#4c72b0;"/>
   </g>
   <g id="patch_192">
    <path clip-path="url(#pba82d0beaf)" d="M 357.921577 40039.998322 
L 359.551369 40039.998322 
L 359.551369 223.161319 
L 357.921577 223.161319 
z
" style="fill:#4c72b0;"/>
   </g>
   <g id="patch_193">
    <path clip-path="url(#pba82d0beaf)" d="M 359.551369 40039.998322 
L 361.181161 40039.998322 
L 361.181161 203.139808 
L 359.551369 203.139808 
z
" style="fill:#4c72b0;"/>
   </g>
   <g id="patch_194">
    <path clip-path="url(#pba82d0beaf)" d="M 361.181161 40039.998322 
L 362.810953 40039.998322 
L 362.810953 225.86526 
L 361.181161 225.86526 
z
" style="fill:#4c72b0;"/>
   </g>
   <g id="patch_195">
    <path clip-path="url(#pba82d0beaf)" d="M 362.810953 40039.998322 
L 364.440745 40039.998322 
L 364.440745 227.144045 
L 362.810953 227.144045 
z
" style="fill:#4c72b0;"/>
   </g>
   <g id="patch_196">
    <path clip-path="url(#pba82d0beaf)" d="M 364.440745 40039.998322 
L 366.070537 40039.998322 
L 366.070537 231.456964 
L 364.440745 231.456964 
z
" style="fill:#4c72b0;"/>
   </g>
   <g id="patch_197">
    <path clip-path="url(#pba82d0beaf)" d="M 366.070537 40039.998322 
L 367.700329 40039.998322 
L 367.700329 227.994251 
L 366.070537 227.994251 
z
" style="fill:#4c72b0;"/>
   </g>
   <g id="patch_198">
    <path clip-path="url(#pba82d0beaf)" d="M 367.700329 40039.998322 
L 369.33012 40039.998322 
L 369.33012 214.137187 
L 367.700329 214.137187 
z
" style="fill:#4c72b0;"/>
   </g>
   <g id="patch_199">
    <path clip-path="url(#pba82d0beaf)" d="M 369.33012 40039.998322 
L 370.959912 40039.998322 
L 370.959912 228.705927 
L 369.33012 228.705927 
z
" style="fill:#4c72b0;"/>
   </g>
   <g id="patch_200">
    <path clip-path="url(#pba82d0beaf)" d="M 370.959912 40039.998322 
L 372.589704 40039.998322 
L 372.589704 231.456964 
L 370.959912 231.456964 
z
" style="fill:#4c72b0;"/>
   </g>
   <g id="patch_201">
    <path clip-path="url(#pba82d0beaf)" d="M 372.589704 40039.998322 
L 374.219496 40039.998322 
L 374.219496 228.169438 
L 372.589704 228.169438 
z
" style="fill:#4c72b0;"/>
   </g>
   <g id="patch_202">
    <path clip-path="url(#pba82d0beaf)" d="M 374.219496 40039.998322 
L 375.849288 40039.998322 
L 375.849288 231.456964 
L 374.219496 231.456964 
z
" style="fill:#4c72b0;"/>
   </g>
   <g id="patch_203">
    <path clip-path="url(#pba82d0beaf)" d="M 375.849288 40039.998322 
L 377.47908 40039.998322 
L 377.47908 195.897296 
L 375.849288 195.897296 
z
" style="fill:#4c72b0;"/>
   </g>
   <g id="patch_204">
    <path clip-path="url(#pba82d0beaf)" d="M 377.47908 40039.998322 
L 379.108872 40039.998322 
L 379.108872 232.1082 
L 377.47908 232.1082 
z
" style="fill:#4c72b0;"/>
   </g>
   <g id="patch_205">
    <path clip-path="url(#pba82d0beaf)" d="M 379.108872 40039.998322 
L 380.738664 40039.998322 
L 380.738664 229.073084 
L 379.108872 229.073084 
z
" style="fill:#4c72b0;"/>
   </g>
   <g id="patch_206">
    <path clip-path="url(#pba82d0beaf)" d="M 380.738664 40039.998322 
L 382.368456 40039.998322 
L 382.368456 238.13692 
L 380.738664 238.13692 
z
" style="fill:#4c72b0;"/>
   </g>
   <g id="patch_207">
    <path clip-path="url(#pba82d0beaf)" d="M 382.368456 40039.998322 
L 383.998248 40039.998322 
L 383.998248 230.02668 
L 382.368456 230.02668 
z
" style="fill:#4c72b0;"/>
   </g>
   <g id="patch_208">
    <path clip-path="url(#pba82d0beaf)" d="M 383.998248 40039.998322 
L 385.628039 40039.998322 
L 385.628039 219.179599 
L 383.998248 219.179599 
z
" style="fill:#4c72b0;"/>
   </g>
   <g id="patch_209">
    <path clip-path="url(#pba82d0beaf)" d="M 385.628039 40039.998322 
L 387.257831 40039.998322 
L 387.257831 228.346421 
L 385.628039 228.346421 
z
" style="fill:#4c72b0;"/>
   </g>
   <g id="patch_210">
    <path clip-path="url(#pba82d0beaf)" d="M 387.257831 40039.998322 
L 388.887623 40039.998322 
L 388.887623 233.251379 
L 387.257831 233.251379 
z
" style="fill:#4c72b0;"/>
   </g>
   <g id="patch_211">
    <path clip-path="url(#pba82d0beaf)" d="M 388.887623 40039.998322 
L 390.517415 40039.998322 
L 390.517415 235.521821 
L 388.887623 235.521821 
z
" style="fill:#4c72b0;"/>
   </g>
   <g id="patch_212">
    <path clip-path="url(#pba82d0beaf)" d="M 390.517415 40039.998322 
L 392.147207 40039.998322 
L 392.147207 233.730735 
L 390.517415 233.730735 
z
" style="fill:#4c72b0;"/>
   </g>
   <g id="patch_213">
    <path clip-path="url(#pba82d0beaf)" d="M 392.147207 40039.998322 
L 393.776999 40039.998322 
L 393.776999 210.490901 
L 392.147207 210.490901 
z
" style="fill:#4c72b0;"/>
   </g>
   <g id="patch_214">
    <path clip-path="url(#pba82d0beaf)" d="M 393.776999 40039.998322 
L 395.406791 40039.998322 
L 395.406791 236.635478 
L 393.776999 236.635478 
z
" style="fill:#4c72b0;"/>
   </g>
   <g id="patch_215">
    <path clip-path="url(#pba82d0beaf)" d="M 395.406791 40039.998322 
L 397.036583 40039.998322 
L 397.036583 234.223789 
L 395.406791 234.223789 
z
" style="fill:#4c72b0;"/>
   </g>
   <g id="patch_216">
    <path clip-path="url(#pba82d0beaf)" d="M 397.036583 40039.998322 
L 398.666375 40039.998322 
L 398.666375 239.781564 
L 397.036583 239.781564 
z
" style="fill:#4c72b0;"/>
   </g>
   <g id="patch_217">
    <path clip-path="url(#pba82d0beaf)" d="M 398.666375 40039.998322 
L 400.296166 40039.998322 
L 400.296166 236.925497 
L 398.666375 236.925497 
z
" style="fill:#4c72b0;"/>
   </g>
   <g id="patch_218">
    <path clip-path="url(#pba82d0beaf)" d="M 400.296166 40039.998322 
L 401.925958 40039.998322 
L 401.925958 220.709586 
L 400.296166 220.709586 
z
" style="fill:#4c72b0;"/>
   </g>
   <g id="patch_219">
    <path clip-path="url(#pba82d0beaf)" d="M 401.925958 40039.998322 
L 403.55575 40039.998322 
L 403.55575 238.776093 
L 401.925958 238.776093 
z
" style="fill:#4c72b0;"/>
   </g>
   <g id="patch_220">
    <path clip-path="url(#pba82d0beaf)" d="M 403.55575 40039.998322 
L 405.185542 40039.998322 
L 405.185542 241.220372 
L 403.55575 241.220372 
z
" style="fill:#4c72b0;"/>
   </g>
   <g id="patch_221">
    <path clip-path="url(#pba82d0beaf)" d="M 405.185542 40039.998322 
L 406.815334 40039.998322 
L 406.815334 241.220372 
L 405.185542 241.220372 
z
" style="fill:#4c72b0;"/>
   </g>
   <g id="patch_222">
    <path clip-path="url(#pba82d0beaf)" d="M 406.815334 40039.998322 
L 408.445126 40039.998322 
L 408.445126 236.635478 
L 406.815334 236.635478 
z
" style="fill:#4c72b0;"/>
   </g>
   <g id="patch_223">
    <path clip-path="url(#pba82d0beaf)" d="M 408.445126 40039.998322 
L 410.074918 40039.998322 
L 410.074918 220.709586 
L 408.445126 220.709586 
z
" style="fill:#4c72b0;"/>
   </g>
   <g id="patch_224">
    <path clip-path="url(#pba82d0beaf)" d="M 410.074918 40039.998322 
L 411.70471 40039.998322 
L 411.70471 241.220372 
L 410.074918 241.220372 
z
" style="fill:#4c72b0;"/>
   </g>
   <g id="patch_225">
    <path clip-path="url(#pba82d0beaf)" d="M 411.70471 40039.998322 
L 413.334502 40039.998322 
L 413.334502 238.13692 
L 411.70471 238.13692 
z
" style="fill:#4c72b0;"/>
   </g>
   <g id="patch_226">
    <path clip-path="url(#pba82d0beaf)" d="M 413.334502 40039.998322 
L 414.964294 40039.998322 
L 414.964294 251.742302 
L 413.334502 251.742302 
z
" style="fill:#4c72b0;"/>
   </g>
   <g id="patch_227">
    <path clip-path="url(#pba82d0beaf)" d="M 414.964294 40039.998322 
L 416.594085 40039.998322 
L 416.594085 245.450131 
L 414.964294 245.450131 
z
" style="fill:#4c72b0;"/>
   </g>
   <g id="patch_228">
    <path clip-path="url(#pba82d0beaf)" d="M 416.594085 40039.998322 
L 418.223877 40039.998322 
L 418.223877 221.769997 
L 416.594085 221.769997 
z
" style="fill:#4c72b0;"/>
   </g>
   <g id="patch_229">
    <path clip-path="url(#pba82d0beaf)" d="M 418.223877 40039.998322 
L 419.853669 40039.998322 
L 419.853669 238.453548 
L 418.223877 238.453548 
z
" style="fill:#4c72b0;"/>
   </g>
   <g id="patch_230">
    <path clip-path="url(#pba82d0beaf)" d="M 419.853669 40039.998322 
L 421.483461 40039.998322 
L 421.483461 248.596216 
L 419.853669 248.596216 
z
" style="fill:#4c72b0;"/>
   </g>
   <g id="patch_231">
    <path clip-path="url(#pba82d0beaf)" d="M 421.483461 40039.998322 
L 423.113253 40039.998322 
L 423.113253 245.936239 
L 421.483461 245.936239 
z
" style="fill:#4c72b0;"/>
   </g>
   <g id="patch_232">
    <path clip-path="url(#pba82d0beaf)" d="M 423.113253 40039.998322 
L 424.743045 40039.998322 
L 424.743045 246.951573 
L 423.113253 246.951573 
z
" style="fill:#4c72b0;"/>
   </g>
   <g id="patch_233">
    <path clip-path="url(#pba82d0beaf)" d="M 424.743045 40039.998322 
L 426.372837 40039.998322 
L 426.372837 217.392932 
L 424.743045 217.392932 
z
" style="fill:#4c72b0;"/>
   </g>
   <g id="patch_234">
    <path clip-path="url(#pba82d0beaf)" d="M 426.372837 40039.998322 
L 428.002629 40039.998322 
L 428.002629 254.750891 
L 426.372837 254.750891 
z
" style="fill:#4c72b0;"/>
   </g>
   <g id="patch_235">
    <path clip-path="url(#pba82d0beaf)" d="M 428.002629 40039.998322 
L 429.632421 40039.998322 
L 429.632421 249.786737 
L 428.002629 249.786737 
z
" style="fill:#4c72b0;"/>
   </g>
   <g id="patch_236">
    <path clip-path="url(#pba82d0beaf)" d="M 429.632421 40039.998322 
L 431.262212 40039.998322 
L 431.262212 251.742302 
L 429.632421 251.742302 
z
" style="fill:#4c72b0;"/>
   </g>
   <g id="patch_237">
    <path clip-path="url(#pba82d0beaf)" d="M 431.262212 40039.998322 
L 432.892004 40039.998322 
L 432.892004 244.977342 
L 431.262212 244.977342 
z
" style="fill:#4c72b0;"/>
   </g>
   <g id="patch_238">
    <path clip-path="url(#pba82d0beaf)" d="M 432.892004 40039.998322 
L 434.521796 40039.998322 
L 434.521796 234.223789 
L 432.892004 234.223789 
z
" style="fill:#4c72b0;"/>
   </g>
   <g id="patch_239">
    <path clip-path="url(#pba82d0beaf)" d="M 434.521796 40039.998322 
L 436.151588 40039.998322 
L 436.151588 243.205973 
L 434.521796 243.205973 
z
" style="fill:#4c72b0;"/>
   </g>
   <g id="patch_240">
    <path clip-path="url(#pba82d0beaf)" d="M 436.151588 40039.998322 
L 437.78138 40039.998322 
L 437.78138 244.977342 
L 436.151588 244.977342 
z
" style="fill:#4c72b0;"/>
   </g>
   <g id="patch_241">
    <path clip-path="url(#pba82d0beaf)" d="M 437.78138 40039.998322 
L 439.411172 40039.998322 
L 439.411172 251.065521 
L 437.78138 251.065521 
z
" style="fill:#4c72b0;"/>
   </g>
   <g id="patch_242">
    <path clip-path="url(#pba82d0beaf)" d="M 439.411172 40039.998322 
L 441.040964 40039.998322 
L 441.040964 245.450131 
L 439.411172 245.450131 
z
" style="fill:#4c72b0;"/>
   </g>
   <g id="patch_243">
    <path clip-path="url(#pba82d0beaf)" d="M 441.040964 40039.998322 
L 442.670756 40039.998322 
L 442.670756 228.169438 
L 441.040964 228.169438 
z
" style="fill:#4c72b0;"/>
   </g>
   <g id="patch_244">
    <path clip-path="url(#pba82d0beaf)" d="M 442.670756 40039.998322 
L 444.300548 40039.998322 
L 444.300548 250.414286 
L 442.670756 250.414286 
z
" style="fill:#4c72b0;"/>
   </g>
   <g id="patch_245">
    <path clip-path="url(#pba82d0beaf)" d="M 444.300548 40039.998322 
L 445.93034 40039.998322 
L 445.93034 253.18111 
L 444.300548 253.18111 
z
" style="fill:#4c72b0;"/>
   </g>
   <g id="patch_246">
    <path clip-path="url(#pba82d0beaf)" d="M 445.93034 40039.998322 
L 447.560131 40039.998322 
L 447.560131 253.18111 
L 445.93034 253.18111 
z
" style="fill:#4c72b0;"/>
   </g>
   <g id="patch_247">
    <path clip-path="url(#pba82d0beaf)" d="M 447.560131 40039.998322 
L 449.189923 40039.998322 
L 449.189923 259.443297 
L 447.560131 259.443297 
z
" style="fill:#4c72b0;"/>
   </g>
   <g id="patch_248">
    <path clip-path="url(#pba82d0beaf)" d="M 449.189923 40039.998322 
L 450.819715 40039.998322 
L 450.819715 239.104783 
L 449.189923 239.104783 
z
" style="fill:#4c72b0;"/>
   </g>
   <g id="patch_249">
    <path clip-path="url(#pba82d0beaf)" d="M 450.819715 40039.998322 
L 452.449507 40039.998322 
L 452.449507 249.181211 
L 450.819715 249.181211 
z
" style="fill:#4c72b0;"/>
   </g>
   <g id="patch_250">
    <path clip-path="url(#pba82d0beaf)" d="M 452.449507 40039.998322 
L 454.079299 40039.998322 
L 454.079299 254.750891 
L 452.449507 254.750891 
z
" style="fill:#4c72b0;"/>
   </g>
   <g id="patch_251">
    <path clip-path="url(#pba82d0beaf)" d="M 454.079299 40039.998322 
L 455.709091 40039.998322 
L 455.709091 256.477901 
L 454.079299 256.477901 
z
" style="fill:#4c72b0;"/>
   </g>
   <g id="patch_252">
    <path d="M 29.6 320.87625 
L 29.6 21.89625 
" style="fill:none;"/>
   </g>
   <g id="patch_253">
    <path d="M 476 320.87625 
L 476 21.89625 
" style="fill:none;"/>
   </g>
   <g id="patch_254">
    <path d="M 29.6 320.87625 
L 476 320.87625 
" style="fill:none;"/>
   </g>
   <g id="patch_255">
    <path d="M 29.6 21.89625 
L 476 21.89625 
" style="fill:none;"/>
   </g>
   <g id="text_16">
    <!-- Fare amount distribution -->
    <defs>
     <path d="M 17.53125 61.1875 
L 17.53125 35.59375 
L 55.90625 35.59375 
L 55.90625 27.875 
L 17.53125 27.875 
L 17.53125 0 
L 8.203125 0 
L 8.203125 68.796875 
L 57.078125 68.796875 
L 57.078125 61.1875 
z
" id="LiberationSans-46"/>
     <path id="LiberationSans-20"/>
     <path d="M 40.09375 8.5 
Q 37.640625 3.421875 33.609375 1.21875 
Q 29.59375 -0.984375 23.640625 -0.984375 
Q 13.625 -0.984375 8.90625 5.75 
Q 4.203125 12.5 4.203125 26.171875 
Q 4.203125 53.8125 23.640625 53.8125 
Q 29.640625 53.8125 33.640625 51.609375 
Q 37.640625 49.421875 40.09375 44.625 
L 40.1875 44.625 
Q 40.1875 45.125 40.15625 46.171875 
Q 40.140625 47.21875 40.109375 48.359375 
Q 40.09375 49.515625 40.09375 50.53125 
Q 40.09375 51.5625 40.09375 52 
L 40.09375 72.46875 
L 48.875 72.46875 
L 48.875 10.890625 
Q 48.875 8.984375 48.890625 7.21875 
Q 48.921875 5.46875 48.96875 4 
Q 49.03125 2.546875 49.078125 1.484375 
Q 49.125 0.4375 49.171875 0 
L 40.765625 0 
Q 40.671875 0.484375 40.59375 1.390625 
Q 40.53125 2.296875 40.453125 3.46875 
Q 40.375 4.640625 40.328125 5.9375 
Q 40.28125 7.234375 40.28125 8.5 
z
M 13.421875 26.46875 
Q 13.421875 21 14.109375 17.09375 
Q 14.796875 13.1875 16.3125 10.671875 
Q 17.828125 8.15625 20.171875 6.984375 
Q 22.515625 5.8125 25.875 5.8125 
Q 29.34375 5.8125 32 6.9375 
Q 34.671875 8.0625 36.453125 10.578125 
Q 38.234375 13.09375 39.15625 17.140625 
Q 40.09375 21.1875 40.09375 27.046875 
Q 40.09375 32.671875 39.15625 36.546875 
Q 38.234375 40.4375 36.421875 42.828125 
Q 34.625 45.21875 32 46.265625 
Q 29.390625 47.3125 25.984375 47.3125 
Q 22.75 47.3125 20.40625 46.1875 
Q 18.0625 45.0625 16.5 42.578125 
Q 14.9375 40.09375 14.171875 36.109375 
Q 13.421875 32.125 13.421875 26.46875 
z
" id="LiberationSans-64"/>
     <path d="M 6.6875 64.0625 
L 6.6875 72.46875 
L 15.484375 72.46875 
L 15.484375 64.0625 
z
M 6.6875 0 
L 6.6875 52.828125 
L 15.484375 52.828125 
L 15.484375 0 
z
" id="LiberationSans-69"/>
     <path d="M 46.390625 14.59375 
Q 46.390625 10.890625 44.9375 7.984375 
Q 43.5 5.078125 40.765625 3.09375 
Q 38.03125 1.125 34.046875 0.0625 
Q 30.078125 -0.984375 24.953125 -0.984375 
Q 20.359375 -0.984375 16.671875 -0.265625 
Q 12.984375 0.4375 10.203125 2 
Q 7.421875 3.5625 5.53125 6.125 
Q 3.65625 8.6875 2.78125 12.40625 
L 10.546875 13.921875 
Q 11.671875 9.671875 15.1875 7.6875 
Q 18.703125 5.71875 24.953125 5.71875 
Q 27.78125 5.71875 30.140625 6.109375 
Q 32.515625 6.5 34.21875 7.453125 
Q 35.9375 8.40625 36.890625 9.984375 
Q 37.84375 11.578125 37.84375 13.921875 
Q 37.84375 16.3125 36.71875 17.84375 
Q 35.59375 19.390625 33.59375 20.40625 
Q 31.59375 21.4375 28.734375 22.1875 
Q 25.875 22.953125 22.46875 23.875 
Q 19.28125 24.703125 16.15625 25.734375 
Q 13.03125 26.765625 10.515625 28.4375 
Q 8.015625 30.125 6.453125 32.609375 
Q 4.890625 35.109375 4.890625 38.875 
Q 4.890625 46.09375 10.03125 49.875 
Q 15.1875 53.65625 25.046875 53.65625 
Q 33.796875 53.65625 38.9375 50.578125 
Q 44.09375 47.515625 45.453125 40.71875 
L 37.546875 39.75 
Q 37.109375 41.796875 35.9375 43.1875 
Q 34.765625 44.578125 33.109375 45.4375 
Q 31.453125 46.296875 29.375 46.65625 
Q 27.296875 47.015625 25.046875 47.015625 
Q 19.09375 47.015625 16.25 45.203125 
Q 13.421875 43.40625 13.421875 39.75 
Q 13.421875 37.59375 14.46875 36.203125 
Q 15.53125 34.8125 17.40625 33.859375 
Q 19.28125 32.90625 21.921875 32.203125 
Q 24.5625 31.5 27.734375 30.71875 
Q 29.828125 30.171875 32.03125 29.5625 
Q 34.234375 28.953125 36.296875 28.09375 
Q 38.375 27.25 40.203125 26.09375 
Q 42.046875 24.953125 43.40625 23.34375 
Q 44.78125 21.734375 45.578125 19.578125 
Q 46.390625 17.4375 46.390625 14.59375 
z
" id="LiberationSans-73"/>
     <path d="M 51.421875 26.65625 
Q 51.421875 -0.984375 31.984375 -0.984375 
Q 25.984375 -0.984375 22 1.1875 
Q 18.015625 3.375 15.53125 8.203125 
L 15.4375 8.203125 
Q 15.4375 6.9375 15.359375 5.5625 
Q 15.28125 4.203125 15.203125 3.03125 
Q 15.140625 1.859375 15.0625 1.03125 
Q 14.984375 0.203125 14.9375 0 
L 6.453125 0 
Q 6.5 0.4375 6.546875 1.484375 
Q 6.59375 2.546875 6.640625 4 
Q 6.6875 5.46875 6.703125 7.21875 
Q 6.734375 8.984375 6.734375 10.890625 
L 6.734375 72.46875 
L 15.53125 72.46875 
L 15.53125 51.8125 
Q 15.53125 50.34375 15.5 49 
Q 15.484375 47.65625 15.4375 46.625 
Q 15.375 45.40625 15.328125 44.34375 
L 15.53125 44.34375 
Q 17.96875 49.421875 22 51.609375 
Q 26.03125 53.8125 31.984375 53.8125 
Q 42 53.8125 46.703125 47.0625 
Q 51.421875 40.328125 51.421875 26.65625 
z
M 42.1875 26.375 
Q 42.1875 31.84375 41.5 35.75 
Q 40.828125 39.65625 39.3125 42.15625 
Q 37.796875 44.671875 35.453125 45.84375 
Q 33.109375 47.015625 29.734375 47.015625 
Q 26.265625 47.015625 23.609375 45.890625 
Q 20.953125 44.78125 19.171875 42.28125 
Q 17.390625 39.796875 16.453125 35.734375 
Q 15.53125 31.6875 15.53125 25.828125 
Q 15.53125 20.171875 16.453125 16.3125 
Q 17.390625 12.453125 19.171875 10.03125 
Q 20.953125 7.625 23.578125 6.5625 
Q 26.21875 5.515625 29.640625 5.515625 
Q 32.859375 5.515625 35.203125 6.640625 
Q 37.546875 7.765625 39.109375 10.25 
Q 40.671875 12.75 41.421875 16.71875 
Q 42.1875 20.703125 42.1875 26.375 
z
" id="LiberationSans-62"/>
    </defs>
    <g style="fill:#262626;" transform="translate(188.105937 15.89625)scale(0.12 -0.12)">
     <use xlink:href="#LiberationSans-46"/>
     <use x="61.083984" xlink:href="#LiberationSans-61"/>
     <use x="116.699219" xlink:href="#LiberationSans-72"/>
     <use x="150" xlink:href="#LiberationSans-65"/>
     <use x="205.615234" xlink:href="#LiberationSans-20"/>
     <use x="233.398438" xlink:href="#LiberationSans-61"/>
     <use x="289.013672" xlink:href="#LiberationSans-6d"/>
     <use x="372.314453" xlink:href="#LiberationSans-6f"/>
     <use x="427.929688" xlink:href="#LiberationSans-75"/>
     <use x="483.544922" xlink:href="#LiberationSans-6e"/>
     <use x="539.160156" xlink:href="#LiberationSans-74"/>
     <use x="566.943359" xlink:href="#LiberationSans-20"/>
     <use x="594.726562" xlink:href="#LiberationSans-64"/>
     <use x="650.341797" xlink:href="#LiberationSans-69"/>
     <use x="672.558594" xlink:href="#LiberationSans-73"/>
     <use x="722.558594" xlink:href="#LiberationSans-74"/>
     <use x="750.341797" xlink:href="#LiberationSans-72"/>
     <use x="783.642578" xlink:href="#LiberationSans-69"/>
     <use x="805.859375" xlink:href="#LiberationSans-62"/>
     <use x="861.474609" xlink:href="#LiberationSans-75"/>
     <use x="917.089844" xlink:href="#LiberationSans-74"/>
     <use x="944.873047" xlink:href="#LiberationSans-69"/>
     <use x="967.089844" xlink:href="#LiberationSans-6f"/>
     <use x="1022.705078" xlink:href="#LiberationSans-6e"/>
    </g>
   </g>
  </g>
 </g>
 <defs>
  <clipPath id="pba82d0beaf">
   <rect height="298.98" width="446.4" x="29.6" y="21.89625"/>
  </clipPath>
 </defs>
</svg>
