<?xml version="1.0" encoding="utf-8" standalone="no"?>
<!DOCTYPE svg PUBLIC "-//W3C//DTD SVG 1.1//EN"
  "http://www.w3.org/Graphics/SVG/1.1/DTD/svg11.dtd">
<!-- Created with matplotlib (http://matplotlib.org/) -->
<svg height="358pt" version="1.1" viewBox="0 0 483 358" width="483pt" xmlns="http://www.w3.org/2000/svg" xmlns:xlink="http://www.w3.org/1999/xlink">
 <defs>
  <style type="text/css">
*{stroke-linecap:butt;stroke-linejoin:round;}
  </style>
 </defs>
 <g id="figure_1">
  <g id="patch_1">
   <path d="M 0 358.652187 
L 483.2 358.652187 
L 483.2 0 
L 0 0 
z
" style="fill:#ffffff;"/>
  </g>
  <g id="axes_1">
   <g id="patch_2">
    <path d="M 29.6 320.87625 
L 476 320.87625 
L 476 21.89625 
L 29.6 21.89625 
z
" style="fill:#eaeaf2;"/>
   </g>
   <g id="matplotlib.axis_1">
    <g id="xtick_1">
     <g id="line2d_1">
      <path clip-path="url(#pa3d1848cc3)" d="M 49.890909 320.87625 
L 49.890909 21.89625 
" style="fill:none;stroke:#ffffff;stroke-linecap:round;"/>
     </g>
     <g id="line2d_2"/>
     <g id="text_1">
      <!-- −50 -->
      <defs>
       <path d="M 4.9375 29.6875 
L 4.9375 36.8125 
L 53.515625 36.8125 
L 53.515625 29.6875 
z
" id="LiberationSans-2212"/>
       <path d="M 51.421875 22.40625 
Q 51.421875 17.234375 49.859375 12.9375 
Q 48.296875 8.640625 45.21875 5.53125 
Q 42.140625 2.4375 37.578125 0.71875 
Q 33.015625 -0.984375 27 -0.984375 
Q 21.578125 -0.984375 17.546875 0.28125 
Q 13.53125 1.5625 10.734375 3.78125 
Q 7.953125 6 6.3125 8.984375 
Q 4.6875 11.96875 4 15.375 
L 12.890625 16.40625 
Q 13.421875 14.453125 14.390625 12.625 
Q 15.375 10.796875 17.0625 9.34375 
Q 18.75 7.90625 21.21875 7.046875 
Q 23.6875 6.203125 27.203125 6.203125 
Q 30.609375 6.203125 33.390625 7.25 
Q 36.1875 8.296875 38.15625 10.34375 
Q 40.140625 12.40625 41.203125 15.375 
Q 42.28125 18.359375 42.28125 22.21875 
Q 42.28125 25.390625 41.25 28.046875 
Q 40.234375 30.71875 38.328125 32.640625 
Q 36.421875 34.578125 33.65625 35.640625 
Q 30.90625 36.71875 27.390625 36.71875 
Q 25.203125 36.71875 23.34375 36.328125 
Q 21.484375 35.9375 19.890625 35.25 
Q 18.3125 34.578125 17.015625 33.671875 
Q 15.71875 32.765625 14.59375 31.78125 
L 6 31.78125 
L 8.296875 68.796875 
L 47.40625 68.796875 
L 47.40625 61.328125 
L 16.3125 61.328125 
L 14.984375 39.5 
Q 17.328125 41.3125 20.84375 42.59375 
Q 24.359375 43.890625 29.203125 43.890625 
Q 34.328125 43.890625 38.421875 42.328125 
Q 42.53125 40.765625 45.40625 37.90625 
Q 48.296875 35.0625 49.859375 31.109375 
Q 51.421875 27.15625 51.421875 22.40625 
z
" id="LiberationSans-35"/>
       <path d="M 51.703125 34.421875 
Q 51.703125 24.515625 49.828125 17.75 
Q 47.953125 10.984375 44.703125 6.8125 
Q 41.453125 2.640625 37.0625 0.828125 
Q 32.671875 -0.984375 27.6875 -0.984375 
Q 22.65625 -0.984375 18.3125 0.828125 
Q 13.96875 2.640625 10.765625 6.78125 
Q 7.5625 10.9375 5.734375 17.703125 
Q 3.90625 24.46875 3.90625 34.421875 
Q 3.90625 44.828125 5.734375 51.640625 
Q 7.5625 58.453125 10.78125 62.5 
Q 14.015625 66.546875 18.40625 68.1875 
Q 22.796875 69.828125 27.984375 69.828125 
Q 32.90625 69.828125 37.21875 68.1875 
Q 41.546875 66.546875 44.765625 62.5 
Q 48 58.453125 49.84375 51.640625 
Q 51.703125 44.828125 51.703125 34.421875 
z
M 42.78125 34.421875 
Q 42.78125 42.625 41.796875 48.0625 
Q 40.828125 53.515625 38.921875 56.765625 
Q 37.015625 60.015625 34.25 61.359375 
Q 31.5 62.703125 27.984375 62.703125 
Q 24.265625 62.703125 21.4375 61.328125 
Q 18.609375 59.96875 16.671875 56.71875 
Q 14.75 53.46875 13.765625 48.015625 
Q 12.796875 42.578125 12.796875 34.421875 
Q 12.796875 26.515625 13.796875 21.09375 
Q 14.796875 15.671875 16.71875 12.375 
Q 18.65625 9.078125 21.4375 7.640625 
Q 24.21875 6.203125 27.78125 6.203125 
Q 31.25 6.203125 34.03125 7.640625 
Q 36.8125 9.078125 38.734375 12.375 
Q 40.671875 15.671875 41.71875 21.09375 
Q 42.78125 26.515625 42.78125 34.421875 
z
" id="LiberationSans-30"/>
      </defs>
      <g style="fill:#262626;" transform="translate(41.409659 335.123125)scale(0.1 -0.1)">
       <use xlink:href="#LiberationSans-2212"/>
       <use x="58.398438" xlink:href="#LiberationSans-35"/>
       <use x="114.013672" xlink:href="#LiberationSans-30"/>
      </g>
     </g>
    </g>
    <g id="xtick_2">
     <g id="line2d_3">
      <path clip-path="url(#pa3d1848cc3)" d="M 131.380504 320.87625 
L 131.380504 21.89625 
" style="fill:none;stroke:#ffffff;stroke-linecap:round;"/>
     </g>
     <g id="line2d_4"/>
     <g id="text_2">
      <!-- 0 -->
      <g style="fill:#262626;" transform="translate(128.600035 335.123125)scale(0.1 -0.1)">
       <use xlink:href="#LiberationSans-30"/>
      </g>
     </g>
    </g>
    <g id="xtick_3">
     <g id="line2d_5">
      <path clip-path="url(#pa3d1848cc3)" d="M 212.870099 320.87625 
L 212.870099 21.89625 
" style="fill:none;stroke:#ffffff;stroke-linecap:round;"/>
     </g>
     <g id="line2d_6"/>
     <g id="text_3">
      <!-- 50 -->
      <g style="fill:#262626;" transform="translate(207.309161 335.123125)scale(0.1 -0.1)">
       <use xlink:href="#LiberationSans-35"/>
       <use x="55.615234" xlink:href="#LiberationSans-30"/>
      </g>
     </g>
    </g>
    <g id="xtick_4">
     <g id="line2d_7">
      <path clip-path="url(#pa3d1848cc3)" d="M 294.359693 320.87625 
L 294.359693 21.89625 
" style="fill:none;stroke:#ffffff;stroke-linecap:round;"/>
     </g>
     <g id="line2d_8"/>
     <g id="text_4">
      <!-- 100 -->
      <defs>
       <path d="M 7.625 0 
L 7.625 7.46875 
L 25.140625 7.46875 
L 25.140625 60.40625 
L 9.625 49.3125 
L 9.625 57.625 
L 25.875 68.796875 
L 33.984375 68.796875 
L 33.984375 7.46875 
L 50.734375 7.46875 
L 50.734375 0 
z
" id="LiberationSans-31"/>
      </defs>
      <g style="fill:#262626;" transform="translate(286.018287 335.123125)scale(0.1 -0.1)">
       <use xlink:href="#LiberationSans-31"/>
       <use x="55.615234" xlink:href="#LiberationSans-30"/>
       <use x="111.230469" xlink:href="#LiberationSans-30"/>
      </g>
     </g>
    </g>
    <g id="xtick_5">
     <g id="line2d_9">
      <path clip-path="url(#pa3d1848cc3)" d="M 375.849288 320.87625 
L 375.849288 21.89625 
" style="fill:none;stroke:#ffffff;stroke-linecap:round;"/>
     </g>
     <g id="line2d_10"/>
     <g id="text_5">
      <!-- 150 -->
      <g style="fill:#262626;" transform="translate(367.507882 335.123125)scale(0.1 -0.1)">
       <use xlink:href="#LiberationSans-31"/>
       <use x="55.615234" xlink:href="#LiberationSans-35"/>
       <use x="111.230469" xlink:href="#LiberationSans-30"/>
      </g>
     </g>
    </g>
    <g id="xtick_6">
     <g id="line2d_11">
      <path clip-path="url(#pa3d1848cc3)" d="M 457.338883 320.87625 
L 457.338883 21.89625 
" style="fill:none;stroke:#ffffff;stroke-linecap:round;"/>
     </g>
     <g id="line2d_12"/>
     <g id="text_6">
      <!-- 200 -->
      <defs>
       <path d="M 5.03125 0 
L 5.03125 6.203125 
Q 7.515625 11.921875 11.109375 16.28125 
Q 14.703125 20.65625 18.65625 24.1875 
Q 22.609375 27.734375 26.484375 30.765625 
Q 30.375 33.796875 33.5 36.8125 
Q 36.625 39.84375 38.546875 43.15625 
Q 40.484375 46.484375 40.484375 50.6875 
Q 40.484375 53.609375 39.59375 55.828125 
Q 38.71875 58.0625 37.0625 59.5625 
Q 35.40625 61.078125 33.078125 61.828125 
Q 30.765625 62.59375 27.9375 62.59375 
Q 25.296875 62.59375 22.96875 61.859375 
Q 20.65625 61.140625 18.84375 59.671875 
Q 17.046875 58.203125 15.890625 56.03125 
Q 14.75 53.859375 14.40625 50.984375 
L 5.421875 51.8125 
Q 5.859375 55.515625 7.46875 58.78125 
Q 9.078125 62.0625 11.90625 64.53125 
Q 14.75 67 18.71875 68.40625 
Q 22.703125 69.828125 27.9375 69.828125 
Q 33.0625 69.828125 37.0625 68.609375 
Q 41.0625 67.390625 43.8125 64.984375 
Q 46.578125 62.59375 48.046875 59.078125 
Q 49.515625 55.5625 49.515625 50.984375 
Q 49.515625 47.515625 48.265625 44.390625 
Q 47.015625 41.265625 44.9375 38.421875 
Q 42.875 35.59375 40.140625 32.953125 
Q 37.40625 30.328125 34.421875 27.8125 
Q 31.453125 25.296875 28.421875 22.828125 
Q 25.390625 20.359375 22.71875 17.859375 
Q 20.0625 15.375 17.96875 12.8125 
Q 15.875 10.25 14.703125 7.46875 
L 50.59375 7.46875 
L 50.59375 0 
z
" id="LiberationSans-32"/>
      </defs>
      <g style="fill:#262626;" transform="translate(448.997477 335.123125)scale(0.1 -0.1)">
       <use xlink:href="#LiberationSans-32"/>
       <use x="55.615234" xlink:href="#LiberationSans-30"/>
       <use x="111.230469" xlink:href="#LiberationSans-30"/>
      </g>
     </g>
    </g>
    <g id="text_7">
     <!-- fare_amount -->
     <defs>
      <path d="M 17.625 46.4375 
L 17.625 0 
L 8.84375 0 
L 8.84375 46.4375 
L 1.421875 46.4375 
L 1.421875 52.828125 
L 8.84375 52.828125 
L 8.84375 58.796875 
Q 8.84375 61.671875 9.375 64.140625 
Q 9.90625 66.609375 11.34375 68.4375 
Q 12.796875 70.265625 15.28125 71.3125 
Q 17.78125 72.359375 21.734375 72.359375 
Q 23.296875 72.359375 24.96875 72.21875 
Q 26.65625 72.078125 27.9375 71.78125 
L 27.9375 65.09375 
Q 27.09375 65.234375 26 65.359375 
Q 24.90625 65.484375 24.03125 65.484375 
Q 22.078125 65.484375 20.828125 64.9375 
Q 19.578125 64.40625 18.875 63.40625 
Q 18.171875 62.40625 17.890625 60.9375 
Q 17.625 59.46875 17.625 57.5625 
L 17.625 52.828125 
L 27.9375 52.828125 
L 27.9375 46.4375 
z
" id="LiberationSans-66"/>
      <path d="M 20.21875 -0.984375 
Q 12.25 -0.984375 8.25 3.21875 
Q 4.25 7.421875 4.25 14.75 
Q 4.25 19.96875 6.21875 23.3125 
Q 8.203125 26.65625 11.390625 28.5625 
Q 14.59375 30.46875 18.6875 31.203125 
Q 22.796875 31.9375 27.046875 32.03125 
L 38.921875 32.234375 
L 38.921875 35.109375 
Q 38.921875 38.375 38.234375 40.671875 
Q 37.546875 42.96875 36.125 44.375 
Q 34.71875 45.796875 32.59375 46.453125 
Q 30.46875 47.125 27.59375 47.125 
Q 25.046875 47.125 23 46.75 
Q 20.953125 46.390625 19.4375 45.4375 
Q 17.921875 44.484375 16.984375 42.84375 
Q 16.0625 41.21875 15.765625 38.71875 
L 6.59375 39.546875 
Q 7.078125 42.671875 8.4375 45.28125 
Q 9.8125 47.90625 12.328125 49.796875 
Q 14.84375 51.703125 18.625 52.75 
Q 22.40625 53.8125 27.78125 53.8125 
Q 37.75 53.8125 42.765625 49.234375 
Q 47.796875 44.671875 47.796875 36.03125 
L 47.796875 13.28125 
Q 47.796875 9.375 48.828125 7.390625 
Q 49.859375 5.421875 52.734375 5.421875 
Q 53.46875 5.421875 54.203125 5.515625 
Q 54.9375 5.609375 55.609375 5.765625 
L 55.609375 0.296875 
Q 53.953125 -0.09375 52.3125 -0.28125 
Q 50.6875 -0.484375 48.828125 -0.484375 
Q 46.34375 -0.484375 44.5625 0.171875 
Q 42.78125 0.828125 41.65625 2.171875 
Q 40.53125 3.515625 39.9375 5.484375 
Q 39.359375 7.46875 39.203125 10.109375 
L 38.921875 10.109375 
Q 37.5 7.5625 35.8125 5.515625 
Q 34.125 3.46875 31.875 2.03125 
Q 29.640625 0.59375 26.78125 -0.1875 
Q 23.921875 -0.984375 20.21875 -0.984375 
z
M 22.21875 5.609375 
Q 26.421875 5.609375 29.5625 7.140625 
Q 32.71875 8.6875 34.78125 11.078125 
Q 36.859375 13.484375 37.890625 16.3125 
Q 38.921875 19.140625 38.921875 21.734375 
L 38.921875 26.078125 
L 29.296875 25.875 
Q 26.078125 25.828125 23.171875 25.40625 
Q 20.265625 25 18.0625 23.78125 
Q 15.875 22.5625 14.578125 20.359375 
Q 13.28125 18.171875 13.28125 14.59375 
Q 13.28125 10.296875 15.59375 7.953125 
Q 17.921875 5.609375 22.21875 5.609375 
z
" id="LiberationSans-61"/>
      <path d="M 6.9375 0 
L 6.9375 40.53125 
Q 6.9375 42.1875 6.90625 43.921875 
Q 6.890625 45.65625 6.828125 47.265625 
Q 6.78125 48.875 6.734375 50.28125 
Q 6.6875 51.703125 6.640625 52.828125 
L 14.9375 52.828125 
Q 14.984375 51.703125 15.0625 50.265625 
Q 15.140625 48.828125 15.203125 47.3125 
Q 15.28125 45.796875 15.296875 44.40625 
Q 15.328125 43.015625 15.328125 42.046875 
L 15.53125 42.046875 
Q 16.453125 45.0625 17.5 47.28125 
Q 18.5625 49.515625 19.96875 50.953125 
Q 21.390625 52.390625 23.34375 53.09375 
Q 25.296875 53.8125 28.078125 53.8125 
Q 29.15625 53.8125 30.125 53.640625 
Q 31.109375 53.46875 31.640625 53.328125 
L 31.640625 45.265625 
Q 30.765625 45.515625 29.59375 45.625 
Q 28.421875 45.75 26.953125 45.75 
Q 23.921875 45.75 21.796875 44.375 
Q 19.671875 43.015625 18.328125 40.59375 
Q 17 38.1875 16.359375 34.84375 
Q 15.71875 31.5 15.71875 27.546875 
L 15.71875 0 
z
" id="LiberationSans-72"/>
      <path d="M 13.484375 24.5625 
Q 13.484375 20.40625 14.328125 16.90625 
Q 15.1875 13.421875 16.96875 10.90625 
Q 18.75 8.40625 21.53125 7 
Q 24.3125 5.609375 28.21875 5.609375 
Q 33.9375 5.609375 37.375 7.90625 
Q 40.828125 10.203125 42.046875 13.71875 
L 49.75 11.53125 
Q 48.921875 9.328125 47.4375 7.109375 
Q 45.953125 4.890625 43.453125 3.09375 
Q 40.96875 1.3125 37.234375 0.15625 
Q 33.5 -0.984375 28.21875 -0.984375 
Q 16.5 -0.984375 10.375 6 
Q 4.25 12.984375 4.25 26.765625 
Q 4.25 34.1875 6.09375 39.328125 
Q 7.953125 44.484375 11.171875 47.703125 
Q 14.40625 50.921875 18.703125 52.359375 
Q 23 53.8125 27.875 53.8125 
Q 34.515625 53.8125 38.984375 51.65625 
Q 43.453125 49.515625 46.15625 45.71875 
Q 48.875 41.9375 50.015625 36.8125 
Q 51.171875 31.6875 51.171875 25.734375 
L 51.171875 24.5625 
z
M 42.09375 31.296875 
Q 41.359375 39.65625 37.84375 43.484375 
Q 34.328125 47.3125 27.734375 47.3125 
Q 25.53125 47.3125 23.109375 46.609375 
Q 20.703125 45.90625 18.65625 44.09375 
Q 16.609375 42.28125 15.1875 39.171875 
Q 13.765625 36.078125 13.578125 31.296875 
z
" id="LiberationSans-65"/>
      <path d="M -1.515625 -19.875 
L -1.515625 -13.53125 
L 56.734375 -13.53125 
L 56.734375 -19.875 
z
" id="LiberationSans-5f"/>
      <path d="M 37.5 0 
L 37.5 33.5 
Q 37.5 37.359375 37.015625 39.9375 
Q 36.53125 42.53125 35.375 44.109375 
Q 34.234375 45.703125 32.375 46.359375 
Q 30.515625 47.015625 27.828125 47.015625 
Q 25.046875 47.015625 22.796875 45.921875 
Q 20.5625 44.828125 18.96875 42.75 
Q 17.390625 40.671875 16.53125 37.625 
Q 15.671875 34.578125 15.671875 30.609375 
L 15.671875 0 
L 6.9375 0 
L 6.9375 41.546875 
Q 6.9375 43.21875 6.90625 45.046875 
Q 6.890625 46.875 6.828125 48.5 
Q 6.78125 50.140625 6.734375 51.3125 
Q 6.6875 52.484375 6.640625 52.828125 
L 14.9375 52.828125 
Q 14.984375 52.59375 15.03125 51.515625 
Q 15.09375 50.4375 15.15625 49.046875 
Q 15.234375 47.65625 15.28125 46.21875 
Q 15.328125 44.78125 15.328125 43.796875 
L 15.484375 43.796875 
Q 16.65625 46.09375 18.015625 47.953125 
Q 19.390625 49.8125 21.21875 51.09375 
Q 23.046875 52.390625 25.40625 53.09375 
Q 27.78125 53.8125 30.90625 53.8125 
Q 36.921875 53.8125 40.40625 51.421875 
Q 43.890625 49.03125 45.265625 43.796875 
L 45.40625 43.796875 
Q 46.578125 46.09375 48.046875 47.953125 
Q 49.515625 49.8125 51.46875 51.09375 
Q 53.421875 52.390625 55.859375 53.09375 
Q 58.296875 53.8125 61.421875 53.8125 
Q 65.4375 53.8125 68.328125 52.734375 
Q 71.234375 51.65625 73.09375 49.40625 
Q 74.953125 47.171875 75.828125 43.625 
Q 76.703125 40.09375 76.703125 35.203125 
L 76.703125 0 
L 68.015625 0 
L 68.015625 33.5 
Q 68.015625 37.359375 67.53125 39.9375 
Q 67.046875 42.53125 65.890625 44.109375 
Q 64.75 45.703125 62.890625 46.359375 
Q 61.03125 47.015625 58.34375 47.015625 
Q 55.5625 47.015625 53.3125 45.96875 
Q 51.078125 44.921875 49.484375 42.875 
Q 47.90625 40.828125 47.046875 37.75 
Q 46.1875 34.671875 46.1875 30.609375 
L 46.1875 0 
z
" id="LiberationSans-6d"/>
      <path d="M 51.421875 26.46875 
Q 51.421875 12.59375 45.3125 5.796875 
Q 39.203125 -0.984375 27.59375 -0.984375 
Q 22.078125 -0.984375 17.71875 0.671875 
Q 13.375 2.34375 10.375 5.765625 
Q 7.375 9.1875 5.78125 14.328125 
Q 4.203125 19.484375 4.203125 26.46875 
Q 4.203125 53.8125 27.875 53.8125 
Q 34.03125 53.8125 38.5 52.09375 
Q 42.96875 50.390625 45.828125 46.96875 
Q 48.6875 43.5625 50.046875 38.421875 
Q 51.421875 33.296875 51.421875 26.46875 
z
M 42.1875 26.46875 
Q 42.1875 32.625 41.234375 36.625 
Q 40.28125 40.625 38.453125 43.015625 
Q 36.625 45.40625 33.984375 46.359375 
Q 31.34375 47.3125 28.03125 47.3125 
Q 24.65625 47.3125 21.9375 46.3125 
Q 19.234375 45.3125 17.328125 42.890625 
Q 15.4375 40.484375 14.421875 36.46875 
Q 13.421875 32.46875 13.421875 26.46875 
Q 13.421875 20.3125 14.5 16.28125 
Q 15.578125 12.25 17.453125 9.859375 
Q 19.34375 7.46875 21.90625 6.484375 
Q 24.46875 5.515625 27.484375 5.515625 
Q 30.859375 5.515625 33.59375 6.46875 
Q 36.328125 7.421875 38.234375 9.8125 
Q 40.140625 12.203125 41.15625 16.25 
Q 42.1875 20.3125 42.1875 26.46875 
z
" id="LiberationSans-6f"/>
      <path d="M 15.328125 52.828125 
L 15.328125 19.34375 
Q 15.328125 15.484375 15.890625 12.890625 
Q 16.453125 10.296875 17.71875 8.703125 
Q 19 7.125 21.0625 6.46875 
Q 23.140625 5.8125 26.21875 5.8125 
Q 29.34375 5.8125 31.859375 6.90625 
Q 34.375 8.015625 36.15625 10.078125 
Q 37.9375 12.15625 38.90625 15.203125 
Q 39.890625 18.265625 39.890625 22.21875 
L 39.890625 52.828125 
L 48.6875 52.828125 
L 48.6875 11.28125 
Q 48.6875 9.625 48.703125 7.78125 
Q 48.734375 5.953125 48.78125 4.3125 
Q 48.828125 2.6875 48.875 1.515625 
Q 48.921875 0.34375 48.96875 0 
L 40.671875 0 
Q 40.625 0.25 40.578125 1.3125 
Q 40.53125 2.390625 40.453125 3.78125 
Q 40.375 5.171875 40.328125 6.609375 
Q 40.28125 8.0625 40.28125 9.03125 
L 40.140625 9.03125 
Q 38.875 6.734375 37.359375 4.875 
Q 35.84375 3.03125 33.84375 1.734375 
Q 31.84375 0.4375 29.25 -0.265625 
Q 26.65625 -0.984375 23.25 -0.984375 
Q 18.84375 -0.984375 15.671875 0.09375 
Q 12.5 1.171875 10.453125 3.421875 
Q 8.40625 5.671875 7.453125 9.1875 
Q 6.5 12.703125 6.5 17.625 
L 6.5 52.828125 
z
" id="LiberationSans-75"/>
      <path d="M 40.28125 0 
L 40.28125 33.5 
Q 40.28125 37.359375 39.71875 39.9375 
Q 39.15625 42.53125 37.890625 44.109375 
Q 36.625 45.703125 34.546875 46.359375 
Q 32.46875 47.015625 29.390625 47.015625 
Q 26.265625 47.015625 23.75 45.921875 
Q 21.234375 44.828125 19.453125 42.75 
Q 17.671875 40.671875 16.6875 37.625 
Q 15.71875 34.578125 15.71875 30.609375 
L 15.71875 0 
L 6.9375 0 
L 6.9375 41.546875 
Q 6.9375 43.21875 6.90625 45.046875 
Q 6.890625 46.875 6.828125 48.5 
Q 6.78125 50.140625 6.734375 51.3125 
Q 6.6875 52.484375 6.640625 52.828125 
L 14.9375 52.828125 
Q 14.984375 52.59375 15.03125 51.515625 
Q 15.09375 50.4375 15.15625 49.046875 
Q 15.234375 47.65625 15.28125 46.21875 
Q 15.328125 44.78125 15.328125 43.796875 
L 15.484375 43.796875 
Q 16.75 46.09375 18.265625 47.953125 
Q 19.78125 49.8125 21.78125 51.09375 
Q 23.78125 52.390625 26.359375 53.09375 
Q 28.953125 53.8125 32.375 53.8125 
Q 36.765625 53.8125 39.9375 52.734375 
Q 43.109375 51.65625 45.15625 49.40625 
Q 47.21875 47.171875 48.171875 43.625 
Q 49.125 40.09375 49.125 35.203125 
L 49.125 0 
z
" id="LiberationSans-6e"/>
      <path d="M 27.046875 0.390625 
Q 25.046875 -0.140625 22.96875 -0.453125 
Q 20.90625 -0.78125 18.171875 -0.78125 
Q 7.625 -0.78125 7.625 11.1875 
L 7.625 46.4375 
L 1.515625 46.4375 
L 1.515625 52.828125 
L 7.953125 52.828125 
L 10.546875 64.65625 
L 16.40625 64.65625 
L 16.40625 52.828125 
L 26.171875 52.828125 
L 26.171875 46.4375 
L 16.40625 46.4375 
L 16.40625 13.09375 
Q 16.40625 9.28125 17.640625 7.734375 
Q 18.890625 6.203125 21.96875 6.203125 
Q 23.25 6.203125 24.4375 6.390625 
Q 25.640625 6.59375 27.046875 6.890625 
z
" id="LiberationSans-74"/>
     </defs>
     <g style="fill:#262626;" transform="translate(221.921797 349.169687)scale(0.11 -0.11)">
      <use xlink:href="#LiberationSans-66"/>
      <use x="27.783203" xlink:href="#LiberationSans-61"/>
      <use x="83.398438" xlink:href="#LiberationSans-72"/>
      <use x="116.699219" xlink:href="#LiberationSans-65"/>
      <use x="172.314453" xlink:href="#LiberationSans-5f"/>
      <use x="227.929688" xlink:href="#LiberationSans-61"/>
      <use x="283.544922" xlink:href="#LiberationSans-6d"/>
      <use x="366.845703" xlink:href="#LiberationSans-6f"/>
      <use x="422.460938" xlink:href="#LiberationSans-75"/>
      <use x="478.076172" xlink:href="#LiberationSans-6e"/>
      <use x="533.691406" xlink:href="#LiberationSans-74"/>
     </g>
    </g>
   </g>
   <g id="matplotlib.axis_2">
    <g id="ytick_1">
     <g id="line2d_13">
      <path clip-path="url(#pa3d1848cc3)" d="M 29.6 314.271778 
L 476 314.271778 
" style="fill:none;stroke:#ffffff;stroke-linecap:round;"/>
     </g>
     <g id="line2d_14"/>
     <g id="text_8">
      <!-- $\mathdefault{10^{1}}$ -->
      <g style="fill:#262626;" transform="translate(7.2 317.895216)scale(0.1 -0.1)">
       <use transform="translate(0 0.8625)" xlink:href="#LiberationSans-31"/>
       <use transform="translate(55.615234 0.8625)" xlink:href="#LiberationSans-30"/>
       <use transform="translate(112.154961 37.842188)scale(0.7)" xlink:href="#LiberationSans-31"/>
      </g>
     </g>
    </g>
    <g id="ytick_2">
     <g id="line2d_15">
      <path clip-path="url(#pa3d1848cc3)" d="M 29.6 266.467618 
L 476 266.467618 
" style="fill:none;stroke:#ffffff;stroke-linecap:round;"/>
     </g>
     <g id="line2d_16"/>
     <g id="text_9">
      <!-- $\mathdefault{10^{2}}$ -->
      <g style="fill:#262626;" transform="translate(7.2 270.091055)scale(0.1 -0.1)">
       <use transform="translate(0 0.140625)" xlink:href="#LiberationSans-31"/>
       <use transform="translate(55.615234 0.140625)" xlink:href="#LiberationSans-30"/>
       <use transform="translate(112.154961 37.120312)scale(0.7)" xlink:href="#LiberationSans-32"/>
      </g>
     </g>
    </g>
    <g id="ytick_3">
     <g id="line2d_17">
      <path clip-path="url(#pa3d1848cc3)" d="M 29.6 218.663457 
L 476 218.663457 
" style="fill:none;stroke:#ffffff;stroke-linecap:round;"/>
     </g>
     <g id="line2d_18"/>
     <g id="text_10">
      <!-- $\mathdefault{10^{3}}$ -->
      <defs>
       <path d="M 51.21875 19 
Q 51.21875 14.265625 49.671875 10.546875 
Q 48.140625 6.84375 45.1875 4.265625 
Q 42.234375 1.703125 37.859375 0.359375 
Q 33.5 -0.984375 27.875 -0.984375 
Q 21.484375 -0.984375 17.109375 0.609375 
Q 12.75 2.203125 9.90625 4.8125 
Q 7.078125 7.421875 5.65625 10.765625 
Q 4.25 14.109375 3.8125 17.671875 
L 12.890625 18.5 
Q 13.28125 15.765625 14.328125 13.515625 
Q 15.375 11.28125 17.1875 9.671875 
Q 19 8.0625 21.625 7.171875 
Q 24.265625 6.296875 27.875 6.296875 
Q 34.515625 6.296875 38.296875 9.5625 
Q 42.09375 12.84375 42.09375 19.28125 
Q 42.09375 23.09375 40.40625 25.40625 
Q 38.71875 27.734375 36.203125 29.03125 
Q 33.6875 30.328125 30.734375 30.765625 
Q 27.78125 31.203125 25.296875 31.203125 
L 20.3125 31.203125 
L 20.3125 38.8125 
L 25.09375 38.8125 
Q 27.59375 38.8125 30.265625 39.328125 
Q 32.953125 39.84375 35.171875 41.1875 
Q 37.40625 42.53125 38.84375 44.828125 
Q 40.28125 47.125 40.28125 50.6875 
Q 40.28125 56.203125 37.03125 59.390625 
Q 33.796875 62.59375 27.390625 62.59375 
Q 21.578125 62.59375 17.984375 59.609375 
Q 14.40625 56.640625 13.8125 51.21875 
L 4.984375 51.90625 
Q 5.515625 56.453125 7.46875 59.8125 
Q 9.421875 63.1875 12.421875 65.40625 
Q 15.4375 67.625 19.28125 68.71875 
Q 23.140625 69.828125 27.484375 69.828125 
Q 33.25 69.828125 37.390625 68.375 
Q 41.546875 66.9375 44.1875 64.46875 
Q 46.828125 62.015625 48.0625 58.6875 
Q 49.3125 55.375 49.3125 51.609375 
Q 49.3125 48.578125 48.484375 45.9375 
Q 47.65625 43.3125 45.890625 41.203125 
Q 44.140625 39.109375 41.421875 37.59375 
Q 38.71875 36.078125 34.90625 35.296875 
L 34.90625 35.109375 
Q 39.0625 34.671875 42.140625 33.21875 
Q 45.21875 31.78125 47.21875 29.625 
Q 49.21875 27.484375 50.21875 24.75 
Q 51.21875 22.015625 51.21875 19 
z
" id="LiberationSans-33"/>
      </defs>
      <g style="fill:#262626;" transform="translate(7.2 222.286895)scale(0.1 -0.1)">
       <use transform="translate(0 0.140625)" xlink:href="#LiberationSans-31"/>
       <use transform="translate(55.615234 0.140625)" xlink:href="#LiberationSans-30"/>
       <use transform="translate(112.154961 37.120312)scale(0.7)" xlink:href="#LiberationSans-33"/>
      </g>
     </g>
    </g>
    <g id="ytick_4">
     <g id="line2d_19">
      <path clip-path="url(#pa3d1848cc3)" d="M 29.6 170.859297 
L 476 170.859297 
" style="fill:none;stroke:#ffffff;stroke-linecap:round;"/>
     </g>
     <g id="line2d_20"/>
     <g id="text_11">
      <!-- $\mathdefault{10^{4}}$ -->
      <defs>
       <path d="M 43.015625 15.578125 
L 43.015625 0 
L 34.71875 0 
L 34.71875 15.578125 
L 2.296875 15.578125 
L 2.296875 22.40625 
L 33.796875 68.796875 
L 43.015625 68.796875 
L 43.015625 22.515625 
L 52.6875 22.515625 
L 52.6875 15.578125 
z
M 34.71875 58.890625 
Q 34.625 58.640625 34.234375 57.9375 
Q 33.84375 57.234375 33.34375 56.34375 
Q 32.859375 55.46875 32.34375 54.5625 
Q 31.84375 53.65625 31.453125 53.078125 
L 13.8125 27.09375 
Q 13.578125 26.703125 13.109375 26.0625 
Q 12.640625 25.4375 12.15625 24.78125 
Q 11.671875 24.125 11.171875 23.484375 
Q 10.6875 22.859375 10.40625 22.515625 
L 34.71875 22.515625 
z
" id="LiberationSans-34"/>
      </defs>
      <g style="fill:#262626;" transform="translate(7.2 174.482734)scale(0.1 -0.1)">
       <use transform="translate(0 0.8625)" xlink:href="#LiberationSans-31"/>
       <use transform="translate(55.615234 0.8625)" xlink:href="#LiberationSans-30"/>
       <use transform="translate(112.154961 37.842188)scale(0.7)" xlink:href="#LiberationSans-34"/>
      </g>
     </g>
    </g>
    <g id="ytick_5">
     <g id="line2d_21">
      <path clip-path="url(#pa3d1848cc3)" d="M 29.6 123.055137 
L 476 123.055137 
" style="fill:none;stroke:#ffffff;stroke-linecap:round;"/>
     </g>
     <g id="line2d_22"/>
     <g id="text_12">
      <!-- $\mathdefault{10^{5}}$ -->
      <g style="fill:#262626;" transform="translate(7.2 126.678574)scale(0.1 -0.1)">
       <use transform="translate(0 0.8625)" xlink:href="#LiberationSans-31"/>
       <use transform="translate(55.615234 0.8625)" xlink:href="#LiberationSans-30"/>
       <use transform="translate(112.154961 37.842188)scale(0.7)" xlink:href="#LiberationSans-35"/>
      </g>
     </g>
    </g>
    <g id="ytick_6">
     <g id="line2d_23">
      <path clip-path="url(#pa3d1848cc3)" d="M 29.6 75.250976 
L 476 75.250976 
" style="fill:none;stroke:#ffffff;stroke-linecap:round;"/>
     </g>
     <g id="line2d_24"/>
     <g id="text_13">
      <!-- $\mathdefault{10^{6}}$ -->
      <defs>
       <path d="M 51.21875 22.515625 
Q 51.21875 17.328125 49.78125 13 
Q 48.34375 8.6875 45.53125 5.578125 
Q 42.71875 2.484375 38.5625 0.75 
Q 34.421875 -0.984375 29 -0.984375 
Q 23 -0.984375 18.5 1.3125 
Q 14.015625 3.609375 11.03125 7.921875 
Q 8.0625 12.25 6.5625 18.53125 
Q 5.078125 24.8125 5.078125 32.8125 
Q 5.078125 42 6.765625 48.921875 
Q 8.453125 55.859375 11.625 60.5 
Q 14.796875 65.140625 19.359375 67.484375 
Q 23.921875 69.828125 29.6875 69.828125 
Q 33.203125 69.828125 36.28125 69.09375 
Q 39.359375 68.359375 41.875 66.71875 
Q 44.390625 65.09375 46.28125 62.40625 
Q 48.1875 59.71875 49.3125 55.8125 
L 40.921875 54.296875 
Q 39.546875 58.734375 36.546875 60.71875 
Q 33.546875 62.703125 29.59375 62.703125 
Q 25.984375 62.703125 23.046875 60.984375 
Q 20.125 59.28125 18.0625 55.875 
Q 16.015625 52.484375 14.90625 47.359375 
Q 13.8125 42.234375 13.8125 35.40625 
Q 16.21875 39.84375 20.5625 42.15625 
Q 24.90625 44.484375 30.515625 44.484375 
Q 35.203125 44.484375 39.015625 42.96875 
Q 42.828125 41.453125 45.53125 38.59375 
Q 48.25 35.75 49.734375 31.671875 
Q 51.21875 27.59375 51.21875 22.515625 
z
M 42.28125 22.125 
Q 42.28125 25.6875 41.40625 28.5625 
Q 40.53125 31.453125 38.765625 33.46875 
Q 37.015625 35.5 34.421875 36.59375 
Q 31.84375 37.703125 28.421875 37.703125 
Q 26.03125 37.703125 23.578125 36.984375 
Q 21.140625 36.28125 19.15625 34.6875 
Q 17.1875 33.109375 15.9375 30.515625 
Q 14.703125 27.9375 14.703125 24.21875 
Q 14.703125 20.40625 15.671875 17.109375 
Q 16.65625 13.8125 18.484375 11.375 
Q 20.3125 8.9375 22.890625 7.515625 
Q 25.484375 6.109375 28.71875 6.109375 
Q 31.890625 6.109375 34.40625 7.203125 
Q 36.921875 8.296875 38.671875 10.375 
Q 40.4375 12.453125 41.359375 15.421875 
Q 42.28125 18.40625 42.28125 22.125 
z
" id="LiberationSans-36"/>
      </defs>
      <g style="fill:#262626;" transform="translate(7.2 78.874414)scale(0.1 -0.1)">
       <use transform="translate(0 0.140625)" xlink:href="#LiberationSans-31"/>
       <use transform="translate(55.615234 0.140625)" xlink:href="#LiberationSans-30"/>
       <use transform="translate(112.154961 37.120312)scale(0.7)" xlink:href="#LiberationSans-36"/>
      </g>
     </g>
    </g>
    <g id="ytick_7">
     <g id="line2d_25">
      <path clip-path="url(#pa3d1848cc3)" d="M 29.6 27.446816 
L 476 27.446816 
" style="fill:none;stroke:#ffffff;stroke-linecap:round;"/>
     </g>
     <g id="line2d_26"/>
     <g id="text_14">
      <!-- $\mathdefault{10^{7}}$ -->
      <defs>
       <path d="M 50.59375 61.671875 
Q 45.40625 53.765625 41.0625 46.453125 
Q 36.71875 39.15625 33.59375 31.75 
Q 30.46875 24.359375 28.734375 16.578125 
Q 27 8.796875 27 0 
L 17.828125 0 
Q 17.828125 8.25 19.78125 16.1875 
Q 21.734375 24.125 25.046875 31.765625 
Q 28.375 39.40625 32.765625 46.78125 
Q 37.15625 54.15625 42.09375 61.328125 
L 5.125 61.328125 
L 5.125 68.796875 
L 50.59375 68.796875 
z
" id="LiberationSans-37"/>
      </defs>
      <g style="fill:#262626;" transform="translate(7.2 31.070253)scale(0.1 -0.1)">
       <use transform="translate(0 0.8625)" xlink:href="#LiberationSans-31"/>
       <use transform="translate(55.615234 0.8625)" xlink:href="#LiberationSans-30"/>
       <use transform="translate(112.154961 37.842188)scale(0.7)" xlink:href="#LiberationSans-37"/>
      </g>
     </g>
    </g>
    <g id="ytick_8">
     <g id="line2d_27"/>
    </g>
    <g id="ytick_9">
     <g id="line2d_28"/>
    </g>
    <g id="ytick_10">
     <g id="line2d_29"/>
    </g>
    <g id="ytick_11">
     <g id="line2d_30"/>
    </g>
    <g id="ytick_12">
     <g id="line2d_31"/>
    </g>
    <g id="ytick_13">
     <g id="line2d_32"/>
    </g>
    <g id="ytick_14">
     <g id="line2d_33"/>
    </g>
    <g id="ytick_15">
     <g id="line2d_34"/>
    </g>
    <g id="ytick_16">
     <g id="line2d_35"/>
    </g>
    <g id="ytick_17">
     <g id="line2d_36"/>
    </g>
    <g id="ytick_18">
     <g id="line2d_37"/>
    </g>
    <g id="ytick_19">
     <g id="line2d_38"/>
    </g>
    <g id="ytick_20">
     <g id="line2d_39"/>
    </g>
    <g id="ytick_21">
     <g id="line2d_40"/>
    </g>
    <g id="ytick_22">
     <g id="line2d_41"/>
    </g>
    <g id="ytick_23">
     <g id="line2d_42"/>
    </g>
    <g id="ytick_24">
     <g id="line2d_43"/>
    </g>
    <g id="ytick_25">
     <g id="line2d_44"/>
    </g>
    <g id="ytick_26">
     <g id="line2d_45"/>
    </g>
    <g id="ytick_27">
     <g id="line2d_46"/>
    </g>
    <g id="ytick_28">
     <g id="line2d_47"/>
    </g>
    <g id="ytick_29">
     <g id="line2d_48"/>
    </g>
    <g id="ytick_30">
     <g id="line2d_49"/>
    </g>
    <g id="ytick_31">
     <g id="line2d_50"/>
    </g>
    <g id="ytick_32">
     <g id="line2d_51"/>
    </g>
    <g id="ytick_33">
     <g id="line2d_52"/>
    </g>
    <g id="ytick_34">
     <g id="line2d_53"/>
    </g>
    <g id="ytick_35">
     <g id="line2d_54"/>
    </g>
    <g id="ytick_36">
     <g id="line2d_55"/>
    </g>
    <g id="ytick_37">
     <g id="line2d_56"/>
    </g>
    <g id="ytick_38">
     <g id="line2d_57"/>
    </g>
    <g id="ytick_39">
     <g id="line2d_58"/>
    </g>
    <g id="ytick_40">
     <g id="line2d_59"/>
    </g>
    <g id="ytick_41">
     <g id="line2d_60"/>
    </g>
    <g id="ytick_42">
     <g id="line2d_61"/>
    </g>
    <g id="ytick_43">
     <g id="line2d_62"/>
    </g>
    <g id="ytick_44">
     <g id="line2d_63"/>
    </g>
    <g id="ytick_45">
     <g id="line2d_64"/>
    </g>
    <g id="ytick_46">
     <g id="line2d_65"/>
    </g>
    <g id="ytick_47">
     <g id="line2d_66"/>
    </g>
    <g id="ytick_48">
     <g id="line2d_67"/>
    </g>
    <g id="ytick_49">
     <g id="line2d_68"/>
    </g>
    <g id="ytick_50">
     <g id="line2d_69"/>
    </g>
    <g id="ytick_51">
     <g id="line2d_70"/>
    </g>
    <g id="ytick_52">
     <g id="line2d_71"/>
    </g>
    <g id="ytick_53">
     <g id="line2d_72"/>
    </g>
    <g id="ytick_54">
     <g id="line2d_73"/>
    </g>
    <g id="ytick_55">
     <g id="line2d_74"/>
    </g>
    <g id="ytick_56">
     <g id="line2d_75"/>
    </g>
    <g id="ytick_57">
     <g id="line2d_76"/>
    </g>
   </g>
   <g id="patch_3">
    <path clip-path="url(#pa3d1848cc3)" d="M 49.890909 48166.2363 
L 51.520701 48166.2363 
L 51.520701 48166.2363 
L 49.890909 48166.2363 
z
" style="fill:#4c72b0;"/>
   </g>
   <g id="patch_4">
    <path clip-path="url(#pa3d1848cc3)" d="M 51.520701 48166.2363 
L 53.150493 48166.2363 
L 53.150493 48166.2363 
L 51.520701 48166.2363 
z
" style="fill:#4c72b0;"/>
   </g>
   <g id="patch_5">
    <path clip-path="url(#pa3d1848cc3)" d="M 53.150493 48166.2363 
L 54.780285 48166.2363 
L 54.780285 48166.2363 
L 53.150493 48166.2363 
z
" style="fill:#4c72b0;"/>
   </g>
   <g id="patch_6">
    <path clip-path="url(#pa3d1848cc3)" d="M 54.780285 48166.2363 
L 56.410077 48166.2363 
L 56.410077 48166.2363 
L 54.780285 48166.2363 
z
" style="fill:#4c72b0;"/>
   </g>
   <g id="patch_7">
    <path clip-path="url(#pa3d1848cc3)" d="M 56.410077 48166.2363 
L 58.039869 48166.2363 
L 58.039869 48166.2363 
L 56.410077 48166.2363 
z
" style="fill:#4c72b0;"/>
   </g>
   <g id="patch_8">
    <path clip-path="url(#pa3d1848cc3)" d="M 58.039869 48166.2363 
L 59.66966 48166.2363 
L 59.66966 48166.2363 
L 58.039869 48166.2363 
z
" style="fill:#4c72b0;"/>
   </g>
   <g id="patch_9">
    <path clip-path="url(#pa3d1848cc3)" d="M 59.66966 48166.2363 
L 61.299452 48166.2363 
L 61.299452 48166.2363 
L 59.66966 48166.2363 
z
" style="fill:#4c72b0;"/>
   </g>
   <g id="patch_10">
    <path clip-path="url(#pa3d1848cc3)" d="M 61.299452 48166.2363 
L 62.929244 48166.2363 
L 62.929244 48166.2363 
L 61.299452 48166.2363 
z
" style="fill:#4c72b0;"/>
   </g>
   <g id="patch_11">
    <path clip-path="url(#pa3d1848cc3)" d="M 62.929244 48166.2363 
L 64.559036 48166.2363 
L 64.559036 48166.2363 
L 62.929244 48166.2363 
z
" style="fill:#4c72b0;"/>
   </g>
   <g id="patch_12">
    <path clip-path="url(#pa3d1848cc3)" d="M 64.559036 48166.2363 
L 66.188828 48166.2363 
L 66.188828 48166.2363 
L 64.559036 48166.2363 
z
" style="fill:#4c72b0;"/>
   </g>
   <g id="patch_13">
    <path clip-path="url(#pa3d1848cc3)" d="M 66.188828 48166.2363 
L 67.81862 48166.2363 
L 67.81862 48166.2363 
L 66.188828 48166.2363 
z
" style="fill:#4c72b0;"/>
   </g>
   <g id="patch_14">
    <path clip-path="url(#pa3d1848cc3)" d="M 67.81862 48166.2363 
L 69.448412 48166.2363 
L 69.448412 48166.2363 
L 67.81862 48166.2363 
z
" style="fill:#4c72b0;"/>
   </g>
   <g id="patch_15">
    <path clip-path="url(#pa3d1848cc3)" d="M 69.448412 48166.2363 
L 71.078204 48166.2363 
L 71.078204 48166.2363 
L 69.448412 48166.2363 
z
" style="fill:#4c72b0;"/>
   </g>
   <g id="patch_16">
    <path clip-path="url(#pa3d1848cc3)" d="M 71.078204 48166.2363 
L 72.707996 48166.2363 
L 72.707996 48166.2363 
L 71.078204 48166.2363 
z
" style="fill:#4c72b0;"/>
   </g>
   <g id="patch_17">
    <path clip-path="url(#pa3d1848cc3)" d="M 72.707996 48166.2363 
L 74.337788 48166.2363 
L 74.337788 48166.2363 
L 72.707996 48166.2363 
z
" style="fill:#4c72b0;"/>
   </g>
   <g id="patch_18">
    <path clip-path="url(#pa3d1848cc3)" d="M 74.337788 48166.2363 
L 75.967579 48166.2363 
L 75.967579 48166.2363 
L 74.337788 48166.2363 
z
" style="fill:#4c72b0;"/>
   </g>
   <g id="patch_19">
    <path clip-path="url(#pa3d1848cc3)" d="M 75.967579 48166.2363 
L 77.597371 48166.2363 
L 77.597371 48166.2363 
L 75.967579 48166.2363 
z
" style="fill:#4c72b0;"/>
   </g>
   <g id="patch_20">
    <path clip-path="url(#pa3d1848cc3)" d="M 77.597371 48166.2363 
L 79.227163 48166.2363 
L 79.227163 48166.2363 
L 77.597371 48166.2363 
z
" style="fill:#4c72b0;"/>
   </g>
   <g id="patch_21">
    <path clip-path="url(#pa3d1848cc3)" d="M 79.227163 48166.2363 
L 80.856955 48166.2363 
L 80.856955 48166.2363 
L 79.227163 48166.2363 
z
" style="fill:#4c72b0;"/>
   </g>
   <g id="patch_22">
    <path clip-path="url(#pa3d1848cc3)" d="M 80.856955 48166.2363 
L 82.486747 48166.2363 
L 82.486747 48166.2363 
L 80.856955 48166.2363 
z
" style="fill:#4c72b0;"/>
   </g>
   <g id="patch_23">
    <path clip-path="url(#pa3d1848cc3)" d="M 82.486747 48166.2363 
L 84.116539 48166.2363 
L 84.116539 48166.2363 
L 82.486747 48166.2363 
z
" style="fill:#4c72b0;"/>
   </g>
   <g id="patch_24">
    <path clip-path="url(#pa3d1848cc3)" d="M 84.116539 48166.2363 
L 85.746331 48166.2363 
L 85.746331 48166.2363 
L 84.116539 48166.2363 
z
" style="fill:#4c72b0;"/>
   </g>
   <g id="patch_25">
    <path clip-path="url(#pa3d1848cc3)" d="M 85.746331 48166.2363 
L 87.376123 48166.2363 
L 87.376123 48166.2363 
L 85.746331 48166.2363 
z
" style="fill:#4c72b0;"/>
   </g>
   <g id="patch_26">
    <path clip-path="url(#pa3d1848cc3)" d="M 87.376123 48166.2363 
L 89.005915 48166.2363 
L 89.005915 48166.2363 
L 87.376123 48166.2363 
z
" style="fill:#4c72b0;"/>
   </g>
   <g id="patch_27">
    <path clip-path="url(#pa3d1848cc3)" d="M 89.005915 48166.2363 
L 90.635706 48166.2363 
L 90.635706 48166.2363 
L 89.005915 48166.2363 
z
" style="fill:#4c72b0;"/>
   </g>
   <g id="patch_28">
    <path clip-path="url(#pa3d1848cc3)" d="M 90.635706 48166.2363 
L 92.265498 48166.2363 
L 92.265498 48166.2363 
L 90.635706 48166.2363 
z
" style="fill:#4c72b0;"/>
   </g>
   <g id="patch_29">
    <path clip-path="url(#pa3d1848cc3)" d="M 92.265498 48166.2363 
L 93.89529 48166.2363 
L 93.89529 48166.2363 
L 92.265498 48166.2363 
z
" style="fill:#4c72b0;"/>
   </g>
   <g id="patch_30">
    <path clip-path="url(#pa3d1848cc3)" d="M 93.89529 48166.2363 
L 95.525082 48166.2363 
L 95.525082 48166.2363 
L 93.89529 48166.2363 
z
" style="fill:#4c72b0;"/>
   </g>
   <g id="patch_31">
    <path clip-path="url(#pa3d1848cc3)" d="M 95.525082 48166.2363 
L 97.154874 48166.2363 
L 97.154874 48166.2363 
L 95.525082 48166.2363 
z
" style="fill:#4c72b0;"/>
   </g>
   <g id="patch_32">
    <path clip-path="url(#pa3d1848cc3)" d="M 97.154874 48166.2363 
L 98.784666 48166.2363 
L 98.784666 48166.2363 
L 97.154874 48166.2363 
z
" style="fill:#4c72b0;"/>
   </g>
   <g id="patch_33">
    <path clip-path="url(#pa3d1848cc3)" d="M 98.784666 48166.2363 
L 100.414458 48166.2363 
L 100.414458 48166.2363 
L 98.784666 48166.2363 
z
" style="fill:#4c72b0;"/>
   </g>
   <g id="patch_34">
    <path clip-path="url(#pa3d1848cc3)" d="M 100.414458 48166.2363 
L 102.04425 48166.2363 
L 102.04425 48166.2363 
L 100.414458 48166.2363 
z
" style="fill:#4c72b0;"/>
   </g>
   <g id="patch_35">
    <path clip-path="url(#pa3d1848cc3)" d="M 102.04425 48166.2363 
L 103.674042 48166.2363 
L 103.674042 48166.2363 
L 102.04425 48166.2363 
z
" style="fill:#4c72b0;"/>
   </g>
   <g id="patch_36">
    <path clip-path="url(#pa3d1848cc3)" d="M 103.674042 48166.2363 
L 105.303834 48166.2363 
L 105.303834 48166.2363 
L 103.674042 48166.2363 
z
" style="fill:#4c72b0;"/>
   </g>
   <g id="patch_37">
    <path clip-path="url(#pa3d1848cc3)" d="M 105.303834 48166.2363 
L 106.933625 48166.2363 
L 106.933625 48166.2363 
L 105.303834 48166.2363 
z
" style="fill:#4c72b0;"/>
   </g>
   <g id="patch_38">
    <path clip-path="url(#pa3d1848cc3)" d="M 106.933625 48166.2363 
L 108.563417 48166.2363 
L 108.563417 48166.2363 
L 106.933625 48166.2363 
z
" style="fill:#4c72b0;"/>
   </g>
   <g id="patch_39">
    <path clip-path="url(#pa3d1848cc3)" d="M 108.563417 48166.2363 
L 110.193209 48166.2363 
L 110.193209 48166.2363 
L 108.563417 48166.2363 
z
" style="fill:#4c72b0;"/>
   </g>
   <g id="patch_40">
    <path clip-path="url(#pa3d1848cc3)" d="M 110.193209 48166.2363 
L 111.823001 48166.2363 
L 111.823001 48166.2363 
L 110.193209 48166.2363 
z
" style="fill:#4c72b0;"/>
   </g>
   <g id="patch_41">
    <path clip-path="url(#pa3d1848cc3)" d="M 111.823001 48166.2363 
L 113.452793 48166.2363 
L 113.452793 48166.2363 
L 111.823001 48166.2363 
z
" style="fill:#4c72b0;"/>
   </g>
   <g id="patch_42">
    <path clip-path="url(#pa3d1848cc3)" d="M 113.452793 48166.2363 
L 115.082585 48166.2363 
L 115.082585 48166.2363 
L 113.452793 48166.2363 
z
" style="fill:#4c72b0;"/>
   </g>
   <g id="patch_43">
    <path clip-path="url(#pa3d1848cc3)" d="M 115.082585 48166.2363 
L 116.712377 48166.2363 
L 116.712377 48166.2363 
L 115.082585 48166.2363 
z
" style="fill:#4c72b0;"/>
   </g>
   <g id="patch_44">
    <path clip-path="url(#pa3d1848cc3)" d="M 116.712377 48166.2363 
L 118.342169 48166.2363 
L 118.342169 48166.2363 
L 116.712377 48166.2363 
z
" style="fill:#4c72b0;"/>
   </g>
   <g id="patch_45">
    <path clip-path="url(#pa3d1848cc3)" d="M 118.342169 48166.2363 
L 119.971961 48166.2363 
L 119.971961 48166.2363 
L 118.342169 48166.2363 
z
" style="fill:#4c72b0;"/>
   </g>
   <g id="patch_46">
    <path clip-path="url(#pa3d1848cc3)" d="M 119.971961 48166.2363 
L 121.601752 48166.2363 
L 121.601752 48166.2363 
L 119.971961 48166.2363 
z
" style="fill:#4c72b0;"/>
   </g>
   <g id="patch_47">
    <path clip-path="url(#pa3d1848cc3)" d="M 121.601752 48166.2363 
L 123.231544 48166.2363 
L 123.231544 48166.2363 
L 121.601752 48166.2363 
z
" style="fill:#4c72b0;"/>
   </g>
   <g id="patch_48">
    <path clip-path="url(#pa3d1848cc3)" d="M 123.231544 48166.2363 
L 124.861336 48166.2363 
L 124.861336 48166.2363 
L 123.231544 48166.2363 
z
" style="fill:#4c72b0;"/>
   </g>
   <g id="patch_49">
    <path clip-path="url(#pa3d1848cc3)" d="M 124.861336 48166.2363 
L 126.491128 48166.2363 
L 126.491128 48166.2363 
L 124.861336 48166.2363 
z
" style="fill:#4c72b0;"/>
   </g>
   <g id="patch_50">
    <path clip-path="url(#pa3d1848cc3)" d="M 126.491128 48166.2363 
L 128.12092 48166.2363 
L 128.12092 48166.2363 
L 126.491128 48166.2363 
z
" style="fill:#4c72b0;"/>
   </g>
   <g id="patch_51">
    <path clip-path="url(#pa3d1848cc3)" d="M 128.12092 48166.2363 
L 129.750712 48166.2363 
L 129.750712 48166.2363 
L 128.12092 48166.2363 
z
" style="fill:#4c72b0;"/>
   </g>
   <g id="patch_52">
    <path clip-path="url(#pa3d1848cc3)" d="M 129.750712 48166.2363 
L 131.380504 48166.2363 
L 131.380504 48166.2363 
L 129.750712 48166.2363 
z
" style="fill:#4c72b0;"/>
   </g>
   <g id="patch_53">
    <path clip-path="url(#pa3d1848cc3)" d="M 131.380504 48166.2363 
L 133.010296 48166.2363 
L 133.010296 48166.2363 
L 131.380504 48166.2363 
z
" style="fill:#4c72b0;"/>
   </g>
   <g id="patch_54">
    <path clip-path="url(#pa3d1848cc3)" d="M 133.010296 48166.2363 
L 134.640088 48166.2363 
L 134.640088 296.096099 
L 133.010296 296.096099 
z
" style="fill:#4c72b0;"/>
   </g>
   <g id="patch_55">
    <path clip-path="url(#pa3d1848cc3)" d="M 134.640088 48166.2363 
L 136.26988 48166.2363 
L 136.26988 98.466313 
L 134.640088 98.466313 
z
" style="fill:#4c72b0;"/>
   </g>
   <g id="patch_56">
    <path clip-path="url(#pa3d1848cc3)" d="M 136.26988 48166.2363 
L 137.899671 48166.2363 
L 137.899671 65.73422 
L 136.26988 65.73422 
z
" style="fill:#4c72b0;"/>
   </g>
   <g id="patch_57">
    <path clip-path="url(#pa3d1848cc3)" d="M 137.899671 48166.2363 
L 139.529463 48166.2363 
L 139.529463 39.8439 
L 137.899671 39.8439 
z
" style="fill:#4c72b0;"/>
   </g>
   <g id="patch_58">
    <path clip-path="url(#pa3d1848cc3)" d="M 139.529463 48166.2363 
L 141.159255 48166.2363 
L 141.159255 40.461958 
L 139.529463 40.461958 
z
" style="fill:#4c72b0;"/>
   </g>
   <g id="patch_59">
    <path clip-path="url(#pa3d1848cc3)" d="M 141.159255 48166.2363 
L 142.789047 48166.2363 
L 142.789047 35.48625 
L 141.159255 35.48625 
z
" style="fill:#4c72b0;"/>
   </g>
   <g id="patch_60">
    <path clip-path="url(#pa3d1848cc3)" d="M 142.789047 48166.2363 
L 144.418839 48166.2363 
L 144.418839 42.442641 
L 142.789047 42.442641 
z
" style="fill:#4c72b0;"/>
   </g>
   <g id="patch_61">
    <path clip-path="url(#pa3d1848cc3)" d="M 144.418839 48166.2363 
L 146.048631 48166.2363 
L 146.048631 40.920631 
L 144.418839 40.920631 
z
" style="fill:#4c72b0;"/>
   </g>
   <g id="patch_62">
    <path clip-path="url(#pa3d1848cc3)" d="M 146.048631 48166.2363 
L 147.678423 48166.2363 
L 147.678423 49.331523 
L 146.048631 49.331523 
z
" style="fill:#4c72b0;"/>
   </g>
   <g id="patch_63">
    <path clip-path="url(#pa3d1848cc3)" d="M 147.678423 48166.2363 
L 149.308215 48166.2363 
L 149.308215 49.167808 
L 147.678423 49.167808 
z
" style="fill:#4c72b0;"/>
   </g>
   <g id="patch_64">
    <path clip-path="url(#pa3d1848cc3)" d="M 149.308215 48166.2363 
L 150.938007 48166.2363 
L 150.938007 57.617396 
L 149.308215 57.617396 
z
" style="fill:#4c72b0;"/>
   </g>
   <g id="patch_65">
    <path clip-path="url(#pa3d1848cc3)" d="M 150.938007 48166.2363 
L 152.567798 48166.2363 
L 152.567798 57.776365 
L 150.938007 57.776365 
z
" style="fill:#4c72b0;"/>
   </g>
   <g id="patch_66">
    <path clip-path="url(#pa3d1848cc3)" d="M 152.567798 48166.2363 
L 154.19759 48166.2363 
L 154.19759 65.876494 
L 152.567798 65.876494 
z
" style="fill:#4c72b0;"/>
   </g>
   <g id="patch_67">
    <path clip-path="url(#pa3d1848cc3)" d="M 154.19759 48166.2363 
L 155.827382 48166.2363 
L 155.827382 66.016062 
L 154.19759 66.016062 
z
" style="fill:#4c72b0;"/>
   </g>
   <g id="patch_68">
    <path clip-path="url(#pa3d1848cc3)" d="M 155.827382 48166.2363 
L 157.457174 48166.2363 
L 157.457174 73.731298 
L 155.827382 73.731298 
z
" style="fill:#4c72b0;"/>
   </g>
   <g id="patch_69">
    <path clip-path="url(#pa3d1848cc3)" d="M 157.457174 48166.2363 
L 159.086966 48166.2363 
L 159.086966 73.851529 
L 157.457174 73.851529 
z
" style="fill:#4c72b0;"/>
   </g>
   <g id="patch_70">
    <path clip-path="url(#pa3d1848cc3)" d="M 159.086966 48166.2363 
L 160.716758 48166.2363 
L 160.716758 81.125778 
L 159.086966 81.125778 
z
" style="fill:#4c72b0;"/>
   </g>
   <g id="patch_71">
    <path clip-path="url(#pa3d1848cc3)" d="M 160.716758 48166.2363 
L 162.34655 48166.2363 
L 162.34655 81.606366 
L 160.716758 81.606366 
z
" style="fill:#4c72b0;"/>
   </g>
   <g id="patch_72">
    <path clip-path="url(#pa3d1848cc3)" d="M 162.34655 48166.2363 
L 163.976342 48166.2363 
L 163.976342 88.837022 
L 162.34655 88.837022 
z
" style="fill:#4c72b0;"/>
   </g>
   <g id="patch_73">
    <path clip-path="url(#pa3d1848cc3)" d="M 163.976342 48166.2363 
L 165.606134 48166.2363 
L 165.606134 89.341361 
L 163.976342 89.341361 
z
" style="fill:#4c72b0;"/>
   </g>
   <g id="patch_74">
    <path clip-path="url(#pa3d1848cc3)" d="M 165.606134 48166.2363 
L 167.235926 48166.2363 
L 167.235926 96.13491 
L 165.606134 96.13491 
z
" style="fill:#4c72b0;"/>
   </g>
   <g id="patch_75">
    <path clip-path="url(#pa3d1848cc3)" d="M 167.235926 48166.2363 
L 168.865717 48166.2363 
L 168.865717 96.357844 
L 167.235926 96.357844 
z
" style="fill:#4c72b0;"/>
   </g>
   <g id="patch_76">
    <path clip-path="url(#pa3d1848cc3)" d="M 168.865717 48166.2363 
L 170.495509 48166.2363 
L 170.495509 101.732725 
L 168.865717 101.732725 
z
" style="fill:#4c72b0;"/>
   </g>
   <g id="patch_77">
    <path clip-path="url(#pa3d1848cc3)" d="M 170.495509 48166.2363 
L 172.125301 48166.2363 
L 172.125301 100.900322 
L 170.495509 100.900322 
z
" style="fill:#4c72b0;"/>
   </g>
   <g id="patch_78">
    <path clip-path="url(#pa3d1848cc3)" d="M 172.125301 48166.2363 
L 173.755093 48166.2363 
L 173.755093 105.106996 
L 172.125301 105.106996 
z
" style="fill:#4c72b0;"/>
   </g>
   <g id="patch_79">
    <path clip-path="url(#pa3d1848cc3)" d="M 173.755093 48166.2363 
L 175.384885 48166.2363 
L 175.384885 104.114993 
L 173.755093 104.114993 
z
" style="fill:#4c72b0;"/>
   </g>
   <g id="patch_80">
    <path clip-path="url(#pa3d1848cc3)" d="M 175.384885 48166.2363 
L 177.014677 48166.2363 
L 177.014677 107.744952 
L 175.384885 107.744952 
z
" style="fill:#4c72b0;"/>
   </g>
   <g id="patch_81">
    <path clip-path="url(#pa3d1848cc3)" d="M 177.014677 48166.2363 
L 178.644469 48166.2363 
L 178.644469 106.54971 
L 177.014677 106.54971 
z
" style="fill:#4c72b0;"/>
   </g>
   <g id="patch_82">
    <path clip-path="url(#pa3d1848cc3)" d="M 178.644469 48166.2363 
L 180.274261 48166.2363 
L 180.274261 109.556215 
L 178.644469 109.556215 
z
" style="fill:#4c72b0;"/>
   </g>
   <g id="patch_83">
    <path clip-path="url(#pa3d1848cc3)" d="M 180.274261 48166.2363 
L 181.904053 48166.2363 
L 181.904053 108.967469 
L 180.274261 108.967469 
z
" style="fill:#4c72b0;"/>
   </g>
   <g id="patch_84">
    <path clip-path="url(#pa3d1848cc3)" d="M 181.904053 48166.2363 
L 183.533844 48166.2363 
L 183.533844 112.460767 
L 181.904053 112.460767 
z
" style="fill:#4c72b0;"/>
   </g>
   <g id="patch_85">
    <path clip-path="url(#pa3d1848cc3)" d="M 183.533844 48166.2363 
L 185.163636 48166.2363 
L 185.163636 112.617646 
L 183.533844 112.617646 
z
" style="fill:#4c72b0;"/>
   </g>
   <g id="patch_86">
    <path clip-path="url(#pa3d1848cc3)" d="M 185.163636 48166.2363 
L 186.793428 48166.2363 
L 186.793428 116.309294 
L 185.163636 116.309294 
z
" style="fill:#4c72b0;"/>
   </g>
   <g id="patch_87">
    <path clip-path="url(#pa3d1848cc3)" d="M 186.793428 48166.2363 
L 188.42322 48166.2363 
L 188.42322 116.707479 
L 186.793428 116.707479 
z
" style="fill:#4c72b0;"/>
   </g>
   <g id="patch_88">
    <path clip-path="url(#pa3d1848cc3)" d="M 188.42322 48166.2363 
L 190.053012 48166.2363 
L 190.053012 120.148293 
L 188.42322 120.148293 
z
" style="fill:#4c72b0;"/>
   </g>
   <g id="patch_89">
    <path clip-path="url(#pa3d1848cc3)" d="M 190.053012 48166.2363 
L 191.682804 48166.2363 
L 191.682804 121.536693 
L 190.053012 121.536693 
z
" style="fill:#4c72b0;"/>
   </g>
   <g id="patch_90">
    <path clip-path="url(#pa3d1848cc3)" d="M 191.682804 48166.2363 
L 193.312596 48166.2363 
L 193.312596 125.397668 
L 191.682804 125.397668 
z
" style="fill:#4c72b0;"/>
   </g>
   <g id="patch_91">
    <path clip-path="url(#pa3d1848cc3)" d="M 193.312596 48166.2363 
L 194.942388 48166.2363 
L 194.942388 126.828707 
L 193.312596 126.828707 
z
" style="fill:#4c72b0;"/>
   </g>
   <g id="patch_92">
    <path clip-path="url(#pa3d1848cc3)" d="M 194.942388 48166.2363 
L 196.57218 48166.2363 
L 196.57218 130.504928 
L 194.942388 130.504928 
z
" style="fill:#4c72b0;"/>
   </g>
   <g id="patch_93">
    <path clip-path="url(#pa3d1848cc3)" d="M 196.57218 48166.2363 
L 198.201972 48166.2363 
L 198.201972 131.929144 
L 196.57218 131.929144 
z
" style="fill:#4c72b0;"/>
   </g>
   <g id="patch_94">
    <path clip-path="url(#pa3d1848cc3)" d="M 198.201972 48166.2363 
L 199.831763 48166.2363 
L 199.831763 136.385286 
L 198.201972 136.385286 
z
" style="fill:#4c72b0;"/>
   </g>
   <g id="patch_95">
    <path clip-path="url(#pa3d1848cc3)" d="M 199.831763 48166.2363 
L 201.461555 48166.2363 
L 201.461555 137.892611 
L 199.831763 137.892611 
z
" style="fill:#4c72b0;"/>
   </g>
   <g id="patch_96">
    <path clip-path="url(#pa3d1848cc3)" d="M 201.461555 48166.2363 
L 203.091347 48166.2363 
L 203.091347 142.047206 
L 201.461555 142.047206 
z
" style="fill:#4c72b0;"/>
   </g>
   <g id="patch_97">
    <path clip-path="url(#pa3d1848cc3)" d="M 203.091347 48166.2363 
L 204.721139 48166.2363 
L 204.721139 143.593902 
L 203.091347 143.593902 
z
" style="fill:#4c72b0;"/>
   </g>
   <g id="patch_98">
    <path clip-path="url(#pa3d1848cc3)" d="M 204.721139 48166.2363 
L 206.350931 48166.2363 
L 206.350931 111.78757 
L 204.721139 111.78757 
z
" style="fill:#4c72b0;"/>
   </g>
   <g id="patch_99">
    <path clip-path="url(#pa3d1848cc3)" d="M 206.350931 48166.2363 
L 207.980723 48166.2363 
L 207.980723 149.863407 
L 206.350931 149.863407 
z
" style="fill:#4c72b0;"/>
   </g>
   <g id="patch_100">
    <path clip-path="url(#pa3d1848cc3)" d="M 207.980723 48166.2363 
L 209.610515 48166.2363 
L 209.610515 154.077094 
L 207.980723 154.077094 
z
" style="fill:#4c72b0;"/>
   </g>
   <g id="patch_101">
    <path clip-path="url(#pa3d1848cc3)" d="M 209.610515 48166.2363 
L 211.240307 48166.2363 
L 211.240307 154.742618 
L 209.610515 154.742618 
z
" style="fill:#4c72b0;"/>
   </g>
   <g id="patch_102">
    <path clip-path="url(#pa3d1848cc3)" d="M 211.240307 48166.2363 
L 212.870099 48166.2363 
L 212.870099 99.037291 
L 211.240307 99.037291 
z
" style="fill:#4c72b0;"/>
   </g>
   <g id="patch_103">
    <path clip-path="url(#pa3d1848cc3)" d="M 212.870099 48166.2363 
L 214.49989 48166.2363 
L 214.49989 143.304479 
L 212.870099 143.304479 
z
" style="fill:#4c72b0;"/>
   </g>
   <g id="patch_104">
    <path clip-path="url(#pa3d1848cc3)" d="M 214.49989 48166.2363 
L 216.129682 48166.2363 
L 216.129682 161.106704 
L 214.49989 161.106704 
z
" style="fill:#4c72b0;"/>
   </g>
   <g id="patch_105">
    <path clip-path="url(#pa3d1848cc3)" d="M 216.129682 48166.2363 
L 217.759474 48166.2363 
L 217.759474 120.82949 
L 216.129682 120.82949 
z
" style="fill:#4c72b0;"/>
   </g>
   <g id="patch_106">
    <path clip-path="url(#pa3d1848cc3)" d="M 217.759474 48166.2363 
L 219.389266 48166.2363 
L 219.389266 164.573511 
L 217.759474 164.573511 
z
" style="fill:#4c72b0;"/>
   </g>
   <g id="patch_107">
    <path clip-path="url(#pa3d1848cc3)" d="M 219.389266 48166.2363 
L 221.019058 48166.2363 
L 221.019058 167.794051 
L 219.389266 167.794051 
z
" style="fill:#4c72b0;"/>
   </g>
   <g id="patch_108">
    <path clip-path="url(#pa3d1848cc3)" d="M 221.019058 48166.2363 
L 222.64885 48166.2363 
L 222.64885 167.5218 
L 221.019058 167.5218 
z
" style="fill:#4c72b0;"/>
   </g>
   <g id="patch_109">
    <path clip-path="url(#pa3d1848cc3)" d="M 222.64885 48166.2363 
L 224.278642 48166.2363 
L 224.278642 133.558605 
L 222.64885 133.558605 
z
" style="fill:#4c72b0;"/>
   </g>
   <g id="patch_110">
    <path clip-path="url(#pa3d1848cc3)" d="M 224.278642 48166.2363 
L 225.908434 48166.2363 
L 225.908434 102.042187 
L 224.278642 102.042187 
z
" style="fill:#4c72b0;"/>
   </g>
   <g id="patch_111">
    <path clip-path="url(#pa3d1848cc3)" d="M 225.908434 48166.2363 
L 227.538226 48166.2363 
L 227.538226 174.528552 
L 225.908434 174.528552 
z
" style="fill:#4c72b0;"/>
   </g>
   <g id="patch_112">
    <path clip-path="url(#pa3d1848cc3)" d="M 227.538226 48166.2363 
L 229.168018 48166.2363 
L 229.168018 176.092285 
L 227.538226 176.092285 
z
" style="fill:#4c72b0;"/>
   </g>
   <g id="patch_113">
    <path clip-path="url(#pa3d1848cc3)" d="M 229.168018 48166.2363 
L 230.797809 48166.2363 
L 230.797809 168.730111 
L 229.168018 168.730111 
z
" style="fill:#4c72b0;"/>
   </g>
   <g id="patch_114">
    <path clip-path="url(#pa3d1848cc3)" d="M 230.797809 48166.2363 
L 232.427601 48166.2363 
L 232.427601 179.35415 
L 230.797809 179.35415 
z
" style="fill:#4c72b0;"/>
   </g>
   <g id="patch_115">
    <path clip-path="url(#pa3d1848cc3)" d="M 232.427601 48166.2363 
L 234.057393 48166.2363 
L 234.057393 181.050074 
L 232.427601 181.050074 
z
" style="fill:#4c72b0;"/>
   </g>
   <g id="patch_116">
    <path clip-path="url(#pa3d1848cc3)" d="M 234.057393 48166.2363 
L 235.687185 48166.2363 
L 235.687185 181.520027 
L 234.057393 181.520027 
z
" style="fill:#4c72b0;"/>
   </g>
   <g id="patch_117">
    <path clip-path="url(#pa3d1848cc3)" d="M 235.687185 48166.2363 
L 237.316977 48166.2363 
L 237.316977 185.278869 
L 235.687185 185.278869 
z
" style="fill:#4c72b0;"/>
   </g>
   <g id="patch_118">
    <path clip-path="url(#pa3d1848cc3)" d="M 237.316977 48166.2363 
L 238.946769 48166.2363 
L 238.946769 178.942536 
L 237.316977 178.942536 
z
" style="fill:#4c72b0;"/>
   </g>
   <g id="patch_119">
    <path clip-path="url(#pa3d1848cc3)" d="M 238.946769 48166.2363 
L 240.576561 48166.2363 
L 240.576561 187.538929 
L 238.946769 187.538929 
z
" style="fill:#4c72b0;"/>
   </g>
   <g id="patch_120">
    <path clip-path="url(#pa3d1848cc3)" d="M 240.576561 48166.2363 
L 242.206353 48166.2363 
L 242.206353 188.28469 
L 240.576561 188.28469 
z
" style="fill:#4c72b0;"/>
   </g>
   <g id="patch_121">
    <path clip-path="url(#pa3d1848cc3)" d="M 242.206353 48166.2363 
L 243.836145 48166.2363 
L 243.836145 188.036281 
L 242.206353 188.036281 
z
" style="fill:#4c72b0;"/>
   </g>
   <g id="patch_122">
    <path clip-path="url(#pa3d1848cc3)" d="M 243.836145 48166.2363 
L 245.465936 48166.2363 
L 245.465936 189.213456 
L 243.836145 189.213456 
z
" style="fill:#4c72b0;"/>
   </g>
   <g id="patch_123">
    <path clip-path="url(#pa3d1848cc3)" d="M 245.465936 48166.2363 
L 247.095728 48166.2363 
L 247.095728 184.58377 
L 245.465936 184.58377 
z
" style="fill:#4c72b0;"/>
   </g>
   <g id="patch_124">
    <path clip-path="url(#pa3d1848cc3)" d="M 247.095728 48166.2363 
L 248.72552 48166.2363 
L 248.72552 192.809542 
L 247.095728 192.809542 
z
" style="fill:#4c72b0;"/>
   </g>
   <g id="patch_125">
    <path clip-path="url(#pa3d1848cc3)" d="M 248.72552 48166.2363 
L 250.355312 48166.2363 
L 250.355312 194.941238 
L 248.72552 194.941238 
z
" style="fill:#4c72b0;"/>
   </g>
   <g id="patch_126">
    <path clip-path="url(#pa3d1848cc3)" d="M 250.355312 48166.2363 
L 251.985104 48166.2363 
L 251.985104 194.24447 
L 250.355312 194.24447 
z
" style="fill:#4c72b0;"/>
   </g>
   <g id="patch_127">
    <path clip-path="url(#pa3d1848cc3)" d="M 251.985104 48166.2363 
L 253.614896 48166.2363 
L 253.614896 196.11973 
L 251.985104 196.11973 
z
" style="fill:#4c72b0;"/>
   </g>
   <g id="patch_128">
    <path clip-path="url(#pa3d1848cc3)" d="M 253.614896 48166.2363 
L 255.244688 48166.2363 
L 255.244688 188.327988 
L 253.614896 188.327988 
z
" style="fill:#4c72b0;"/>
   </g>
   <g id="patch_129">
    <path clip-path="url(#pa3d1848cc3)" d="M 255.244688 48166.2363 
L 256.87448 48166.2363 
L 256.87448 196.573232 
L 255.244688 196.573232 
z
" style="fill:#4c72b0;"/>
   </g>
   <g id="patch_130">
    <path clip-path="url(#pa3d1848cc3)" d="M 256.87448 48166.2363 
L 258.504272 48166.2363 
L 258.504272 197.820674 
L 256.87448 197.820674 
z
" style="fill:#4c72b0;"/>
   </g>
   <g id="patch_131">
    <path clip-path="url(#pa3d1848cc3)" d="M 258.504272 48166.2363 
L 260.134064 48166.2363 
L 260.134064 197.669078 
L 258.504272 197.669078 
z
" style="fill:#4c72b0;"/>
   </g>
   <g id="patch_132">
    <path clip-path="url(#pa3d1848cc3)" d="M 260.134064 48166.2363 
L 261.763855 48166.2363 
L 261.763855 197.699309 
L 260.134064 197.699309 
z
" style="fill:#4c72b0;"/>
   </g>
   <g id="patch_133">
    <path clip-path="url(#pa3d1848cc3)" d="M 261.763855 48166.2363 
L 263.393647 48166.2363 
L 263.393647 188.303923 
L 261.763855 188.303923 
z
" style="fill:#4c72b0;"/>
   </g>
   <g id="patch_134">
    <path clip-path="url(#pa3d1848cc3)" d="M 263.393647 48166.2363 
L 265.023439 48166.2363 
L 265.023439 201.218475 
L 263.393647 201.218475 
z
" style="fill:#4c72b0;"/>
   </g>
   <g id="patch_135">
    <path clip-path="url(#pa3d1848cc3)" d="M 265.023439 48166.2363 
L 266.653231 48166.2363 
L 266.653231 203.210662 
L 265.023439 203.210662 
z
" style="fill:#4c72b0;"/>
   </g>
   <g id="patch_136">
    <path clip-path="url(#pa3d1848cc3)" d="M 266.653231 48166.2363 
L 268.283023 48166.2363 
L 268.283023 202.926595 
L 266.653231 202.926595 
z
" style="fill:#4c72b0;"/>
   </g>
   <g id="patch_137">
    <path clip-path="url(#pa3d1848cc3)" d="M 268.283023 48166.2363 
L 269.912815 48166.2363 
L 269.912815 204.618387 
L 268.283023 204.618387 
z
" style="fill:#4c72b0;"/>
   </g>
   <g id="patch_138">
    <path clip-path="url(#pa3d1848cc3)" d="M 269.912815 48166.2363 
L 271.542607 48166.2363 
L 271.542607 198.212332 
L 269.912815 198.212332 
z
" style="fill:#4c72b0;"/>
   </g>
   <g id="patch_139">
    <path clip-path="url(#pa3d1848cc3)" d="M 271.542607 48166.2363 
L 273.172399 48166.2363 
L 273.172399 209.166822 
L 271.542607 209.166822 
z
" style="fill:#4c72b0;"/>
   </g>
   <g id="patch_140">
    <path clip-path="url(#pa3d1848cc3)" d="M 273.172399 48166.2363 
L 274.802191 48166.2363 
L 274.802191 209.193119 
L 273.172399 209.193119 
z
" style="fill:#4c72b0;"/>
   </g>
   <g id="patch_141">
    <path clip-path="url(#pa3d1848cc3)" d="M 274.802191 48166.2363 
L 276.431982 48166.2363 
L 276.431982 208.673415 
L 274.802191 208.673415 
z
" style="fill:#4c72b0;"/>
   </g>
   <g id="patch_142">
    <path clip-path="url(#pa3d1848cc3)" d="M 276.431982 48166.2363 
L 278.061774 48166.2363 
L 278.061774 211.574383 
L 276.431982 211.574383 
z
" style="fill:#4c72b0;"/>
   </g>
   <g id="patch_143">
    <path clip-path="url(#pa3d1848cc3)" d="M 278.061774 48166.2363 
L 279.691566 48166.2363 
L 279.691566 202.369861 
L 278.061774 202.369861 
z
" style="fill:#4c72b0;"/>
   </g>
   <g id="patch_144">
    <path clip-path="url(#pa3d1848cc3)" d="M 279.691566 48166.2363 
L 281.321358 48166.2363 
L 281.321358 217.591288 
L 279.691566 217.591288 
z
" style="fill:#4c72b0;"/>
   </g>
   <g id="patch_145">
    <path clip-path="url(#pa3d1848cc3)" d="M 281.321358 48166.2363 
L 282.95115 48166.2363 
L 282.95115 219.231713 
L 281.321358 219.231713 
z
" style="fill:#4c72b0;"/>
   </g>
   <g id="patch_146">
    <path clip-path="url(#pa3d1848cc3)" d="M 282.95115 48166.2363 
L 284.580942 48166.2363 
L 284.580942 221.891492 
L 282.95115 221.891492 
z
" style="fill:#4c72b0;"/>
   </g>
   <g id="patch_147">
    <path clip-path="url(#pa3d1848cc3)" d="M 284.580942 48166.2363 
L 286.210734 48166.2363 
L 286.210734 222.481895 
L 284.580942 222.481895 
z
" style="fill:#4c72b0;"/>
   </g>
   <g id="patch_148">
    <path clip-path="url(#pa3d1848cc3)" d="M 286.210734 48166.2363 
L 287.840526 48166.2363 
L 287.840526 216.329176 
L 286.210734 216.329176 
z
" style="fill:#4c72b0;"/>
   </g>
   <g id="patch_149">
    <path clip-path="url(#pa3d1848cc3)" d="M 287.840526 48166.2363 
L 289.470318 48166.2363 
L 289.470318 224.691486 
L 287.840526 224.691486 
z
" style="fill:#4c72b0;"/>
   </g>
   <g id="patch_150">
    <path clip-path="url(#pa3d1848cc3)" d="M 289.470318 48166.2363 
L 291.10011 48166.2363 
L 291.10011 228.925584 
L 289.470318 228.925584 
z
" style="fill:#4c72b0;"/>
   </g>
   <g id="patch_151">
    <path clip-path="url(#pa3d1848cc3)" d="M 291.10011 48166.2363 
L 292.729901 48166.2363 
L 292.729901 227.543195 
L 291.10011 227.543195 
z
" style="fill:#4c72b0;"/>
   </g>
   <g id="patch_152">
    <path clip-path="url(#pa3d1848cc3)" d="M 292.729901 48166.2363 
L 294.359693 48166.2363 
L 294.359693 229.096458 
L 292.729901 229.096458 
z
" style="fill:#4c72b0;"/>
   </g>
   <g id="patch_153">
    <path clip-path="url(#pa3d1848cc3)" d="M 294.359693 48166.2363 
L 295.989485 48166.2363 
L 295.989485 202.771516 
L 294.359693 202.771516 
z
" style="fill:#4c72b0;"/>
   </g>
   <g id="patch_154">
    <path clip-path="url(#pa3d1848cc3)" d="M 295.989485 48166.2363 
L 297.619277 48166.2363 
L 297.619277 233.558286 
L 295.989485 233.558286 
z
" style="fill:#4c72b0;"/>
   </g>
   <g id="patch_155">
    <path clip-path="url(#pa3d1848cc3)" d="M 297.619277 48166.2363 
L 299.249069 48166.2363 
L 299.249069 235.011935 
L 297.619277 235.011935 
z
" style="fill:#4c72b0;"/>
   </g>
   <g id="patch_156">
    <path clip-path="url(#pa3d1848cc3)" d="M 299.249069 48166.2363 
L 300.878861 48166.2363 
L 300.878861 237.895301 
L 299.249069 237.895301 
z
" style="fill:#4c72b0;"/>
   </g>
   <g id="patch_157">
    <path clip-path="url(#pa3d1848cc3)" d="M 300.878861 48166.2363 
L 302.508653 48166.2363 
L 302.508653 233.901452 
L 300.878861 233.901452 
z
" style="fill:#4c72b0;"/>
   </g>
   <g id="patch_158">
    <path clip-path="url(#pa3d1848cc3)" d="M 302.508653 48166.2363 
L 304.138445 48166.2363 
L 304.138445 232.041007 
L 302.508653 232.041007 
z
" style="fill:#4c72b0;"/>
   </g>
   <g id="patch_159">
    <path clip-path="url(#pa3d1848cc3)" d="M 304.138445 48166.2363 
L 305.768237 48166.2363 
L 305.768237 238.58829 
L 304.138445 238.58829 
z
" style="fill:#4c72b0;"/>
   </g>
   <g id="patch_160">
    <path clip-path="url(#pa3d1848cc3)" d="M 305.768237 48166.2363 
L 307.398028 48166.2363 
L 307.398028 240.999742 
L 305.768237 240.999742 
z
" style="fill:#4c72b0;"/>
   </g>
   <g id="patch_161">
    <path clip-path="url(#pa3d1848cc3)" d="M 307.398028 48166.2363 
L 309.02782 48166.2363 
L 309.02782 238.319011 
L 307.398028 238.319011 
z
" style="fill:#4c72b0;"/>
   </g>
   <g id="patch_162">
    <path clip-path="url(#pa3d1848cc3)" d="M 309.02782 48166.2363 
L 310.657612 48166.2363 
L 310.657612 237.377542 
L 309.02782 237.377542 
z
" style="fill:#4c72b0;"/>
   </g>
   <g id="patch_163">
    <path clip-path="url(#pa3d1848cc3)" d="M 310.657612 48166.2363 
L 312.287404 48166.2363 
L 312.287404 225.832492 
L 310.657612 225.832492 
z
" style="fill:#4c72b0;"/>
   </g>
   <g id="patch_164">
    <path clip-path="url(#pa3d1848cc3)" d="M 312.287404 48166.2363 
L 313.917196 48166.2363 
L 313.917196 239.644637 
L 312.287404 239.644637 
z
" style="fill:#4c72b0;"/>
   </g>
   <g id="patch_165">
    <path clip-path="url(#pa3d1848cc3)" d="M 313.917196 48166.2363 
L 315.546988 48166.2363 
L 315.546988 236.624336 
L 313.917196 236.624336 
z
" style="fill:#4c72b0;"/>
   </g>
   <g id="patch_166">
    <path clip-path="url(#pa3d1848cc3)" d="M 315.546988 48166.2363 
L 317.17678 48166.2363 
L 317.17678 243.452657 
L 315.546988 243.452657 
z
" style="fill:#4c72b0;"/>
   </g>
   <g id="patch_167">
    <path clip-path="url(#pa3d1848cc3)" d="M 317.17678 48166.2363 
L 318.806572 48166.2363 
L 318.806572 242.6463 
L 317.17678 242.6463 
z
" style="fill:#4c72b0;"/>
   </g>
   <g id="patch_168">
    <path clip-path="url(#pa3d1848cc3)" d="M 318.806572 48166.2363 
L 320.436364 48166.2363 
L 320.436364 236.772807 
L 318.806572 236.772807 
z
" style="fill:#4c72b0;"/>
   </g>
   <g id="patch_169">
    <path clip-path="url(#pa3d1848cc3)" d="M 320.436364 48166.2363 
L 322.066156 48166.2363 
L 322.066156 247.527641 
L 320.436364 247.527641 
z
" style="fill:#4c72b0;"/>
   </g>
   <g id="patch_170">
    <path clip-path="url(#pa3d1848cc3)" d="M 322.066156 48166.2363 
L 323.695947 48166.2363 
L 323.695947 248.640872 
L 322.066156 248.640872 
z
" style="fill:#4c72b0;"/>
   </g>
   <g id="patch_171">
    <path clip-path="url(#pa3d1848cc3)" d="M 323.695947 48166.2363 
L 325.325739 48166.2363 
L 325.325739 250.098389 
L 323.695947 250.098389 
z
" style="fill:#4c72b0;"/>
   </g>
   <g id="patch_172">
    <path clip-path="url(#pa3d1848cc3)" d="M 325.325739 48166.2363 
L 326.955531 48166.2363 
L 326.955531 248.205614 
L 325.325739 248.205614 
z
" style="fill:#4c72b0;"/>
   </g>
   <g id="patch_173">
    <path clip-path="url(#pa3d1848cc3)" d="M 326.955531 48166.2363 
L 328.585323 48166.2363 
L 328.585323 219.970156 
L 326.955531 219.970156 
z
" style="fill:#4c72b0;"/>
   </g>
   <g id="patch_174">
    <path clip-path="url(#pa3d1848cc3)" d="M 328.585323 48166.2363 
L 330.215115 48166.2363 
L 330.215115 255.573685 
L 328.585323 255.573685 
z
" style="fill:#4c72b0;"/>
   </g>
   <g id="patch_175">
    <path clip-path="url(#pa3d1848cc3)" d="M 330.215115 48166.2363 
L 331.844907 48166.2363 
L 331.844907 254.035123 
L 330.215115 254.035123 
z
" style="fill:#4c72b0;"/>
   </g>
   <g id="patch_176">
    <path clip-path="url(#pa3d1848cc3)" d="M 331.844907 48166.2363 
L 333.474699 48166.2363 
L 333.474699 252.496562 
L 331.844907 252.496562 
z
" style="fill:#4c72b0;"/>
   </g>
   <g id="patch_177">
    <path clip-path="url(#pa3d1848cc3)" d="M 333.474699 48166.2363 
L 335.104491 48166.2363 
L 335.104491 253.583778 
L 333.474699 253.583778 
z
" style="fill:#4c72b0;"/>
   </g>
   <g id="patch_178">
    <path clip-path="url(#pa3d1848cc3)" d="M 335.104491 48166.2363 
L 336.734283 48166.2363 
L 336.734283 236.972434 
L 335.104491 236.972434 
z
" style="fill:#4c72b0;"/>
   </g>
   <g id="patch_179">
    <path clip-path="url(#pa3d1848cc3)" d="M 336.734283 48166.2363 
L 338.364074 48166.2363 
L 338.364074 256.970982 
L 336.734283 256.970982 
z
" style="fill:#4c72b0;"/>
   </g>
   <g id="patch_180">
    <path clip-path="url(#pa3d1848cc3)" d="M 338.364074 48166.2363 
L 339.993866 48166.2363 
L 339.993866 259.041909 
L 338.364074 259.041909 
z
" style="fill:#4c72b0;"/>
   </g>
   <g id="patch_181">
    <path clip-path="url(#pa3d1848cc3)" d="M 339.993866 48166.2363 
L 341.623658 48166.2363 
L 341.623658 254.26453 
L 339.993866 254.26453 
z
" style="fill:#4c72b0;"/>
   </g>
   <g id="patch_182">
    <path clip-path="url(#pa3d1848cc3)" d="M 341.623658 48166.2363 
L 343.25345 48166.2363 
L 343.25345 255.088024 
L 341.623658 255.088024 
z
" style="fill:#4c72b0;"/>
   </g>
   <g id="patch_183">
    <path clip-path="url(#pa3d1848cc3)" d="M 343.25345 48166.2363 
L 344.883242 48166.2363 
L 344.883242 237.480066 
L 343.25345 237.480066 
z
" style="fill:#4c72b0;"/>
   </g>
   <g id="patch_184">
    <path clip-path="url(#pa3d1848cc3)" d="M 344.883242 48166.2363 
L 346.513034 48166.2363 
L 346.513034 256.197188 
L 344.883242 256.197188 
z
" style="fill:#4c72b0;"/>
   </g>
   <g id="patch_185">
    <path clip-path="url(#pa3d1848cc3)" d="M 346.513034 48166.2363 
L 348.142826 48166.2363 
L 348.142826 257.638599 
L 346.513034 257.638599 
z
" style="fill:#4c72b0;"/>
   </g>
   <g id="patch_186">
    <path clip-path="url(#pa3d1848cc3)" d="M 348.142826 48166.2363 
L 349.772618 48166.2363 
L 349.772618 260.861562 
L 348.142826 260.861562 
z
" style="fill:#4c72b0;"/>
   </g>
   <g id="patch_187">
    <path clip-path="url(#pa3d1848cc3)" d="M 349.772618 48166.2363 
L 351.40241 48166.2363 
L 351.40241 256.970982 
L 349.772618 256.970982 
z
" style="fill:#4c72b0;"/>
   </g>
   <g id="patch_188">
    <path clip-path="url(#pa3d1848cc3)" d="M 351.40241 48166.2363 
L 353.032202 48166.2363 
L 353.032202 245.017589 
L 351.40241 245.017589 
z
" style="fill:#4c72b0;"/>
   </g>
   <g id="patch_189">
    <path clip-path="url(#pa3d1848cc3)" d="M 353.032202 48166.2363 
L 354.661993 48166.2363 
L 354.661993 256.709833 
L 353.032202 256.709833 
z
" style="fill:#4c72b0;"/>
   </g>
   <g id="patch_190">
    <path clip-path="url(#pa3d1848cc3)" d="M 354.661993 48166.2363 
L 356.291785 48166.2363 
L 356.291785 265.062951 
L 354.661993 265.062951 
z
" style="fill:#4c72b0;"/>
   </g>
   <g id="patch_191">
    <path clip-path="url(#pa3d1848cc3)" d="M 356.291785 48166.2363 
L 357.921577 48166.2363 
L 357.921577 266.676274 
L 356.291785 266.676274 
z
" style="fill:#4c72b0;"/>
   </g>
   <g id="patch_192">
    <path clip-path="url(#pa3d1848cc3)" d="M 357.921577 48166.2363 
L 359.551369 48166.2363 
L 359.551369 263.566008 
L 357.921577 263.566008 
z
" style="fill:#4c72b0;"/>
   </g>
   <g id="patch_193">
    <path clip-path="url(#pa3d1848cc3)" d="M 359.551369 48166.2363 
L 361.181161 48166.2363 
L 361.181161 241.617677 
L 359.551369 241.617677 
z
" style="fill:#4c72b0;"/>
   </g>
   <g id="patch_194">
    <path clip-path="url(#pa3d1848cc3)" d="M 361.181161 48166.2363 
L 362.810953 48166.2363 
L 362.810953 266.887048 
L 361.181161 266.887048 
z
" style="fill:#4c72b0;"/>
   </g>
   <g id="patch_195">
    <path clip-path="url(#pa3d1848cc3)" d="M 362.810953 48166.2363 
L 364.440745 48166.2363 
L 364.440745 268.655016 
L 362.810953 268.655016 
z
" style="fill:#4c72b0;"/>
   </g>
   <g id="patch_196">
    <path clip-path="url(#pa3d1848cc3)" d="M 364.440745 48166.2363 
L 366.070537 48166.2363 
L 366.070537 273.287718 
L 364.440745 273.287718 
z
" style="fill:#4c72b0;"/>
   </g>
   <g id="patch_197">
    <path clip-path="url(#pa3d1848cc3)" d="M 366.070537 48166.2363 
L 367.700329 48166.2363 
L 367.700329 269.598864 
L 366.070537 269.598864 
z
" style="fill:#4c72b0;"/>
   </g>
   <g id="patch_198">
    <path clip-path="url(#pa3d1848cc3)" d="M 367.700329 48166.2363 
L 369.33012 48166.2363 
L 369.33012 252.709498 
L 367.700329 252.709498 
z
" style="fill:#4c72b0;"/>
   </g>
   <g id="patch_199">
    <path clip-path="url(#pa3d1848cc3)" d="M 369.33012 48166.2363 
L 370.959912 48166.2363 
L 370.959912 271.893833 
L 369.33012 271.893833 
z
" style="fill:#4c72b0;"/>
   </g>
   <g id="patch_200">
    <path clip-path="url(#pa3d1848cc3)" d="M 370.959912 48166.2363 
L 372.589704 48166.2363 
L 372.589704 274.171302 
L 370.959912 274.171302 
z
" style="fill:#4c72b0;"/>
   </g>
   <g id="patch_201">
    <path clip-path="url(#pa3d1848cc3)" d="M 372.589704 48166.2363 
L 374.219496 48166.2363 
L 374.219496 269.358849 
L 372.589704 269.358849 
z
" style="fill:#4c72b0;"/>
   </g>
   <g id="patch_202">
    <path clip-path="url(#pa3d1848cc3)" d="M 374.219496 48166.2363 
L 375.849288 48166.2363 
L 375.849288 273.001354 
L 374.219496 273.001354 
z
" style="fill:#4c72b0;"/>
   </g>
   <g id="patch_203">
    <path clip-path="url(#pa3d1848cc3)" d="M 375.849288 48166.2363 
L 377.47908 48166.2363 
L 377.47908 232.929749 
L 375.849288 232.929749 
z
" style="fill:#4c72b0;"/>
   </g>
   <g id="patch_204">
    <path clip-path="url(#pa3d1848cc3)" d="M 377.47908 48166.2363 
L 379.108872 48166.2363 
L 379.108872 273.001354 
L 377.47908 273.001354 
z
" style="fill:#4c72b0;"/>
   </g>
   <g id="patch_205">
    <path clip-path="url(#pa3d1848cc3)" d="M 379.108872 48166.2363 
L 380.738664 48166.2363 
L 380.738664 270.587674 
L 379.108872 270.587674 
z
" style="fill:#4c72b0;"/>
   </g>
   <g id="patch_206">
    <path clip-path="url(#pa3d1848cc3)" d="M 380.738664 48166.2363 
L 382.368456 48166.2363 
L 382.368456 283.512063 
L 380.738664 283.512063 
z
" style="fill:#4c72b0;"/>
   </g>
   <g id="patch_207">
    <path clip-path="url(#pa3d1848cc3)" d="M 382.368456 48166.2363 
L 383.998248 48166.2363 
L 383.998248 270.842415 
L 382.368456 270.842415 
z
" style="fill:#4c72b0;"/>
   </g>
   <g id="patch_208">
    <path clip-path="url(#pa3d1848cc3)" d="M 383.998248 48166.2363 
L 385.628039 48166.2363 
L 385.628039 259.187601 
L 383.998248 259.187601 
z
" style="fill:#4c72b0;"/>
   </g>
   <g id="patch_209">
    <path clip-path="url(#pa3d1848cc3)" d="M 385.628039 48166.2363 
L 387.257831 48166.2363 
L 387.257831 269.841687 
L 385.628039 269.841687 
z
" style="fill:#4c72b0;"/>
   </g>
   <g id="patch_210">
    <path clip-path="url(#pa3d1848cc3)" d="M 387.257831 48166.2363 
L 388.887623 48166.2363 
L 388.887623 276.392159 
L 387.257831 276.392159 
z
" style="fill:#4c72b0;"/>
   </g>
   <g id="patch_211">
    <path clip-path="url(#pa3d1848cc3)" d="M 388.887623 48166.2363 
L 390.517415 48166.2363 
L 390.517415 276.392159 
L 388.887623 276.392159 
z
" style="fill:#4c72b0;"/>
   </g>
   <g id="patch_212">
    <path clip-path="url(#pa3d1848cc3)" d="M 390.517415 48166.2363 
L 392.147207 48166.2363 
L 392.147207 275.094168 
L 390.517415 275.094168 
z
" style="fill:#4c72b0;"/>
   </g>
   <g id="patch_213">
    <path clip-path="url(#pa3d1848cc3)" d="M 392.147207 48166.2363 
L 393.776999 48166.2363 
L 393.776999 249.265985 
L 392.147207 249.265985 
z
" style="fill:#4c72b0;"/>
   </g>
   <g id="patch_214">
    <path clip-path="url(#pa3d1848cc3)" d="M 393.776999 48166.2363 
L 395.406791 48166.2363 
L 395.406791 279.260309 
L 393.776999 279.260309 
z
" style="fill:#4c72b0;"/>
   </g>
   <g id="patch_215">
    <path clip-path="url(#pa3d1848cc3)" d="M 395.406791 48166.2363 
L 397.036583 48166.2363 
L 397.036583 277.072911 
L 395.406791 277.072911 
z
" style="fill:#4c72b0;"/>
   </g>
   <g id="patch_216">
    <path clip-path="url(#pa3d1848cc3)" d="M 397.036583 48166.2363 
L 398.666375 48166.2363 
L 398.666375 282.589196 
L 397.036583 282.589196 
z
" style="fill:#4c72b0;"/>
   </g>
   <g id="patch_217">
    <path clip-path="url(#pa3d1848cc3)" d="M 398.666375 48166.2363 
L 400.296166 48166.2363 
L 400.296166 280.043839 
L 398.666375 280.043839 
z
" style="fill:#4c72b0;"/>
   </g>
   <g id="patch_218">
    <path clip-path="url(#pa3d1848cc3)" d="M 400.296166 48166.2363 
L 401.925958 48166.2363 
L 401.925958 260.546994 
L 400.296166 260.546994 
z
" style="fill:#4c72b0;"/>
   </g>
   <g id="patch_219">
    <path clip-path="url(#pa3d1848cc3)" d="M 401.925958 48166.2363 
L 403.55575 48166.2363 
L 403.55575 281.277534 
L 401.925958 281.277534 
z
" style="fill:#4c72b0;"/>
   </g>
   <g id="patch_220">
    <path clip-path="url(#pa3d1848cc3)" d="M 403.55575 48166.2363 
L 405.185542 48166.2363 
L 405.185542 286.016431 
L 403.55575 286.016431 
z
" style="fill:#4c72b0;"/>
   </g>
   <g id="patch_221">
    <path clip-path="url(#pa3d1848cc3)" d="M 405.185542 48166.2363 
L 406.815334 48166.2363 
L 406.815334 286.016431 
L 405.185542 286.016431 
z
" style="fill:#4c72b0;"/>
   </g>
   <g id="patch_222">
    <path clip-path="url(#pa3d1848cc3)" d="M 406.815334 48166.2363 
L 408.445126 48166.2363 
L 408.445126 278.505278 
L 406.815334 278.505278 
z
" style="fill:#4c72b0;"/>
   </g>
   <g id="patch_223">
    <path clip-path="url(#pa3d1848cc3)" d="M 408.445126 48166.2363 
L 410.074918 48166.2363 
L 410.074918 262.682425 
L 408.445126 262.682425 
z
" style="fill:#4c72b0;"/>
   </g>
   <g id="patch_224">
    <path clip-path="url(#pa3d1848cc3)" d="M 410.074918 48166.2363 
L 411.70471 48166.2363 
L 411.70471 283.98935 
L 410.074918 283.98935 
z
" style="fill:#4c72b0;"/>
   </g>
   <g id="patch_225">
    <path clip-path="url(#pa3d1848cc3)" d="M 411.70471 48166.2363 
L 413.334502 48166.2363 
L 413.334502 282.142704 
L 411.70471 282.142704 
z
" style="fill:#4c72b0;"/>
   </g>
   <g id="patch_226">
    <path clip-path="url(#pa3d1848cc3)" d="M 413.334502 48166.2363 
L 414.964294 48166.2363 
L 414.964294 298.868355 
L 413.334502 298.868355 
z
" style="fill:#4c72b0;"/>
   </g>
   <g id="patch_227">
    <path clip-path="url(#pa3d1848cc3)" d="M 414.964294 48166.2363 
L 416.594085 48166.2363 
L 416.594085 288.864875 
L 414.964294 288.864875 
z
" style="fill:#4c72b0;"/>
   </g>
   <g id="patch_228">
    <path clip-path="url(#pa3d1848cc3)" d="M 416.594085 48166.2363 
L 418.223877 48166.2363 
L 418.223877 263.747329 
L 416.594085 263.747329 
z
" style="fill:#4c72b0;"/>
   </g>
   <g id="patch_229">
    <path clip-path="url(#pa3d1848cc3)" d="M 418.223877 48166.2363 
L 419.853669 48166.2363 
L 419.853669 282.589196 
L 418.223877 282.589196 
z
" style="fill:#4c72b0;"/>
   </g>
   <g id="patch_230">
    <path clip-path="url(#pa3d1848cc3)" d="M 419.853669 48166.2363 
L 421.483461 48166.2363 
L 421.483461 294.434326 
L 419.853669 294.434326 
z
" style="fill:#4c72b0;"/>
   </g>
   <g id="patch_231">
    <path clip-path="url(#pa3d1848cc3)" d="M 421.483461 48166.2363 
L 423.113253 48166.2363 
L 423.113253 292.16723 
L 421.483461 292.16723 
z
" style="fill:#4c72b0;"/>
   </g>
   <g id="patch_232">
    <path clip-path="url(#pa3d1848cc3)" d="M 423.113253 48166.2363 
L 424.743045 48166.2363 
L 424.743045 292.16723 
L 423.113253 292.16723 
z
" style="fill:#4c72b0;"/>
   </g>
   <g id="patch_233">
    <path clip-path="url(#pa3d1848cc3)" d="M 424.743045 48166.2363 
L 426.372837 48166.2363 
L 426.372837 258.188594 
L 424.743045 258.188594 
z
" style="fill:#4c72b0;"/>
   </g>
   <g id="patch_234">
    <path clip-path="url(#pa3d1848cc3)" d="M 426.372837 48166.2363 
L 428.002629 48166.2363 
L 428.002629 299.881292 
L 426.372837 299.881292 
z
" style="fill:#4c72b0;"/>
   </g>
   <g id="patch_235">
    <path clip-path="url(#pa3d1848cc3)" d="M 428.002629 48166.2363 
L 429.632421 48166.2363 
L 429.632421 294.434326 
L 428.002629 294.434326 
z
" style="fill:#4c72b0;"/>
   </g>
   <g id="patch_236">
    <path clip-path="url(#pa3d1848cc3)" d="M 429.632421 48166.2363 
L 431.262212 48166.2363 
L 431.262212 295.24859 
L 429.632421 295.24859 
z
" style="fill:#4c72b0;"/>
   </g>
   <g id="patch_237">
    <path clip-path="url(#pa3d1848cc3)" d="M 431.262212 48166.2363 
L 432.892004 48166.2363 
L 432.892004 290.782645 
L 431.262212 290.782645 
z
" style="fill:#4c72b0;"/>
   </g>
   <g id="patch_238">
    <path clip-path="url(#pa3d1848cc3)" d="M 432.892004 48166.2363 
L 434.521796 48166.2363 
L 434.521796 277.072911 
L 432.892004 277.072911 
z
" style="fill:#4c72b0;"/>
   </g>
   <g id="patch_239">
    <path clip-path="url(#pa3d1848cc3)" d="M 434.521796 48166.2363 
L 436.151588 48166.2363 
L 436.151588 287.109372 
L 434.521796 287.109372 
z
" style="fill:#4c72b0;"/>
   </g>
   <g id="patch_240">
    <path clip-path="url(#pa3d1848cc3)" d="M 436.151588 48166.2363 
L 437.78138 48166.2363 
L 437.78138 289.484655 
L 436.151588 289.484655 
z
" style="fill:#4c72b0;"/>
   </g>
   <g id="patch_241">
    <path clip-path="url(#pa3d1848cc3)" d="M 437.78138 48166.2363 
L 439.411172 48166.2363 
L 439.411172 299.881292 
L 437.78138 299.881292 
z
" style="fill:#4c72b0;"/>
   </g>
   <g id="patch_242">
    <path clip-path="url(#pa3d1848cc3)" d="M 439.411172 48166.2363 
L 441.040964 48166.2363 
L 441.040964 288.864875 
L 439.411172 288.864875 
z
" style="fill:#4c72b0;"/>
   </g>
   <g id="patch_243">
    <path clip-path="url(#pa3d1848cc3)" d="M 441.040964 48166.2363 
L 442.670756 48166.2363 
L 442.670756 271.361469 
L 441.040964 271.361469 
z
" style="fill:#4c72b0;"/>
   </g>
   <g id="patch_244">
    <path clip-path="url(#pa3d1848cc3)" d="M 442.670756 48166.2363 
L 444.300548 48166.2363 
L 444.300548 296.096099 
L 442.670756 296.096099 
z
" style="fill:#4c72b0;"/>
   </g>
   <g id="patch_245">
    <path clip-path="url(#pa3d1848cc3)" d="M 444.300548 48166.2363 
L 445.93034 48166.2363 
L 445.93034 297.902549 
L 444.300548 297.902549 
z
" style="fill:#4c72b0;"/>
   </g>
   <g id="patch_246">
    <path clip-path="url(#pa3d1848cc3)" d="M 445.93034 48166.2363 
L 447.560131 48166.2363 
L 447.560131 299.881292 
L 445.93034 299.881292 
z
" style="fill:#4c72b0;"/>
   </g>
   <g id="patch_247">
    <path clip-path="url(#pa3d1848cc3)" d="M 447.560131 48166.2363 
L 449.189923 48166.2363 
L 449.189923 305.853883 
L 447.560131 305.853883 
z
" style="fill:#4c72b0;"/>
   </g>
   <g id="patch_248">
    <path clip-path="url(#pa3d1848cc3)" d="M 449.189923 48166.2363 
L 450.819715 48166.2363 
L 450.819715 281.705613 
L 449.189923 281.705613 
z
" style="fill:#4c72b0;"/>
   </g>
   <g id="patch_249">
    <path clip-path="url(#pa3d1848cc3)" d="M 450.819715 48166.2363 
L 452.449507 48166.2363 
L 452.449507 294.434326 
L 450.819715 294.434326 
z
" style="fill:#4c72b0;"/>
   </g>
   <g id="patch_250">
    <path clip-path="url(#pa3d1848cc3)" d="M 452.449507 48166.2363 
L 454.079299 48166.2363 
L 454.079299 307.28625 
L 452.449507 307.28625 
z
" style="fill:#4c72b0;"/>
   </g>
   <g id="patch_251">
    <path clip-path="url(#pa3d1848cc3)" d="M 454.079299 48166.2363 
L 455.709091 48166.2363 
L 455.709091 304.513994 
L 454.079299 304.513994 
z
" style="fill:#4c72b0;"/>
   </g>
   <g id="patch_252">
    <path d="M 29.6 320.87625 
L 29.6 21.89625 
" style="fill:none;"/>
   </g>
   <g id="patch_253">
    <path d="M 476 320.87625 
L 476 21.89625 
" style="fill:none;"/>
   </g>
   <g id="patch_254">
    <path d="M 29.6 320.87625 
L 476 320.87625 
" style="fill:none;"/>
   </g>
   <g id="patch_255">
    <path d="M 29.6 21.89625 
L 476 21.89625 
" style="fill:none;"/>
   </g>
   <g id="text_15">
    <!-- Fare amount distribution -->
    <defs>
     <path d="M 17.53125 61.1875 
L 17.53125 35.59375 
L 55.90625 35.59375 
L 55.90625 27.875 
L 17.53125 27.875 
L 17.53125 0 
L 8.203125 0 
L 8.203125 68.796875 
L 57.078125 68.796875 
L 57.078125 61.1875 
z
" id="LiberationSans-46"/>
     <path id="LiberationSans-20"/>
     <path d="M 40.09375 8.5 
Q 37.640625 3.421875 33.609375 1.21875 
Q 29.59375 -0.984375 23.640625 -0.984375 
Q 13.625 -0.984375 8.90625 5.75 
Q 4.203125 12.5 4.203125 26.171875 
Q 4.203125 53.8125 23.640625 53.8125 
Q 29.640625 53.8125 33.640625 51.609375 
Q 37.640625 49.421875 40.09375 44.625 
L 40.1875 44.625 
Q 40.1875 45.125 40.15625 46.171875 
Q 40.140625 47.21875 40.109375 48.359375 
Q 40.09375 49.515625 40.09375 50.53125 
Q 40.09375 51.5625 40.09375 52 
L 40.09375 72.46875 
L 48.875 72.46875 
L 48.875 10.890625 
Q 48.875 8.984375 48.890625 7.21875 
Q 48.921875 5.46875 48.96875 4 
Q 49.03125 2.546875 49.078125 1.484375 
Q 49.125 0.4375 49.171875 0 
L 40.765625 0 
Q 40.671875 0.484375 40.59375 1.390625 
Q 40.53125 2.296875 40.453125 3.46875 
Q 40.375 4.640625 40.328125 5.9375 
Q 40.28125 7.234375 40.28125 8.5 
z
M 13.421875 26.46875 
Q 13.421875 21 14.109375 17.09375 
Q 14.796875 13.1875 16.3125 10.671875 
Q 17.828125 8.15625 20.171875 6.984375 
Q 22.515625 5.8125 25.875 5.8125 
Q 29.34375 5.8125 32 6.9375 
Q 34.671875 8.0625 36.453125 10.578125 
Q 38.234375 13.09375 39.15625 17.140625 
Q 40.09375 21.1875 40.09375 27.046875 
Q 40.09375 32.671875 39.15625 36.546875 
Q 38.234375 40.4375 36.421875 42.828125 
Q 34.625 45.21875 32 46.265625 
Q 29.390625 47.3125 25.984375 47.3125 
Q 22.75 47.3125 20.40625 46.1875 
Q 18.0625 45.0625 16.5 42.578125 
Q 14.9375 40.09375 14.171875 36.109375 
Q 13.421875 32.125 13.421875 26.46875 
z
" id="LiberationSans-64"/>
     <path d="M 6.6875 64.0625 
L 6.6875 72.46875 
L 15.484375 72.46875 
L 15.484375 64.0625 
z
M 6.6875 0 
L 6.6875 52.828125 
L 15.484375 52.828125 
L 15.484375 0 
z
" id="LiberationSans-69"/>
     <path d="M 46.390625 14.59375 
Q 46.390625 10.890625 44.9375 7.984375 
Q 43.5 5.078125 40.765625 3.09375 
Q 38.03125 1.125 34.046875 0.0625 
Q 30.078125 -0.984375 24.953125 -0.984375 
Q 20.359375 -0.984375 16.671875 -0.265625 
Q 12.984375 0.4375 10.203125 2 
Q 7.421875 3.5625 5.53125 6.125 
Q 3.65625 8.6875 2.78125 12.40625 
L 10.546875 13.921875 
Q 11.671875 9.671875 15.1875 7.6875 
Q 18.703125 5.71875 24.953125 5.71875 
Q 27.78125 5.71875 30.140625 6.109375 
Q 32.515625 6.5 34.21875 7.453125 
Q 35.9375 8.40625 36.890625 9.984375 
Q 37.84375 11.578125 37.84375 13.921875 
Q 37.84375 16.3125 36.71875 17.84375 
Q 35.59375 19.390625 33.59375 20.40625 
Q 31.59375 21.4375 28.734375 22.1875 
Q 25.875 22.953125 22.46875 23.875 
Q 19.28125 24.703125 16.15625 25.734375 
Q 13.03125 26.765625 10.515625 28.4375 
Q 8.015625 30.125 6.453125 32.609375 
Q 4.890625 35.109375 4.890625 38.875 
Q 4.890625 46.09375 10.03125 49.875 
Q 15.1875 53.65625 25.046875 53.65625 
Q 33.796875 53.65625 38.9375 50.578125 
Q 44.09375 47.515625 45.453125 40.71875 
L 37.546875 39.75 
Q 37.109375 41.796875 35.9375 43.1875 
Q 34.765625 44.578125 33.109375 45.4375 
Q 31.453125 46.296875 29.375 46.65625 
Q 27.296875 47.015625 25.046875 47.015625 
Q 19.09375 47.015625 16.25 45.203125 
Q 13.421875 43.40625 13.421875 39.75 
Q 13.421875 37.59375 14.46875 36.203125 
Q 15.53125 34.8125 17.40625 33.859375 
Q 19.28125 32.90625 21.921875 32.203125 
Q 24.5625 31.5 27.734375 30.71875 
Q 29.828125 30.171875 32.03125 29.5625 
Q 34.234375 28.953125 36.296875 28.09375 
Q 38.375 27.25 40.203125 26.09375 
Q 42.046875 24.953125 43.40625 23.34375 
Q 44.78125 21.734375 45.578125 19.578125 
Q 46.390625 17.4375 46.390625 14.59375 
z
" id="LiberationSans-73"/>
     <path d="M 51.421875 26.65625 
Q 51.421875 -0.984375 31.984375 -0.984375 
Q 25.984375 -0.984375 22 1.1875 
Q 18.015625 3.375 15.53125 8.203125 
L 15.4375 8.203125 
Q 15.4375 6.9375 15.359375 5.5625 
Q 15.28125 4.203125 15.203125 3.03125 
Q 15.140625 1.859375 15.0625 1.03125 
Q 14.984375 0.203125 14.9375 0 
L 6.453125 0 
Q 6.5 0.4375 6.546875 1.484375 
Q 6.59375 2.546875 6.640625 4 
Q 6.6875 5.46875 6.703125 7.21875 
Q 6.734375 8.984375 6.734375 10.890625 
L 6.734375 72.46875 
L 15.53125 72.46875 
L 15.53125 51.8125 
Q 15.53125 50.34375 15.5 49 
Q 15.484375 47.65625 15.4375 46.625 
Q 15.375 45.40625 15.328125 44.34375 
L 15.53125 44.34375 
Q 17.96875 49.421875 22 51.609375 
Q 26.03125 53.8125 31.984375 53.8125 
Q 42 53.8125 46.703125 47.0625 
Q 51.421875 40.328125 51.421875 26.65625 
z
M 42.1875 26.375 
Q 42.1875 31.84375 41.5 35.75 
Q 40.828125 39.65625 39.3125 42.15625 
Q 37.796875 44.671875 35.453125 45.84375 
Q 33.109375 47.015625 29.734375 47.015625 
Q 26.265625 47.015625 23.609375 45.890625 
Q 20.953125 44.78125 19.171875 42.28125 
Q 17.390625 39.796875 16.453125 35.734375 
Q 15.53125 31.6875 15.53125 25.828125 
Q 15.53125 20.171875 16.453125 16.3125 
Q 17.390625 12.453125 19.171875 10.03125 
Q 20.953125 7.625 23.578125 6.5625 
Q 26.21875 5.515625 29.640625 5.515625 
Q 32.859375 5.515625 35.203125 6.640625 
Q 37.546875 7.765625 39.109375 10.25 
Q 40.671875 12.75 41.421875 16.71875 
Q 42.1875 20.703125 42.1875 26.375 
z
" id="LiberationSans-62"/>
    </defs>
    <g style="fill:#262626;" transform="translate(188.105937 15.89625)scale(0.12 -0.12)">
     <use xlink:href="#LiberationSans-46"/>
     <use x="61.083984" xlink:href="#LiberationSans-61"/>
     <use x="116.699219" xlink:href="#LiberationSans-72"/>
     <use x="150" xlink:href="#LiberationSans-65"/>
     <use x="205.615234" xlink:href="#LiberationSans-20"/>
     <use x="233.398438" xlink:href="#LiberationSans-61"/>
     <use x="289.013672" xlink:href="#LiberationSans-6d"/>
     <use x="372.314453" xlink:href="#LiberationSans-6f"/>
     <use x="427.929688" xlink:href="#LiberationSans-75"/>
     <use x="483.544922" xlink:href="#LiberationSans-6e"/>
     <use x="539.160156" xlink:href="#LiberationSans-74"/>
     <use x="566.943359" xlink:href="#LiberationSans-20"/>
     <use x="594.726562" xlink:href="#LiberationSans-64"/>
     <use x="650.341797" xlink:href="#LiberationSans-69"/>
     <use x="672.558594" xlink:href="#LiberationSans-73"/>
     <use x="722.558594" xlink:href="#LiberationSans-74"/>
     <use x="750.341797" xlink:href="#LiberationSans-72"/>
     <use x="783.642578" xlink:href="#LiberationSans-69"/>
     <use x="805.859375" xlink:href="#LiberationSans-62"/>
     <use x="861.474609" xlink:href="#LiberationSans-75"/>
     <use x="917.089844" xlink:href="#LiberationSans-74"/>
     <use x="944.873047" xlink:href="#LiberationSans-69"/>
     <use x="967.089844" xlink:href="#LiberationSans-6f"/>
     <use x="1022.705078" xlink:href="#LiberationSans-6e"/>
    </g>
   </g>
  </g>
 </g>
 <defs>
  <clipPath id="pa3d1848cc3">
   <rect height="298.98" width="446.4" x="29.6" y="21.89625"/>
  </clipPath>
 </defs>
</svg>
