<svg viewBox="0 0 487 358" xmlns="http://www.w3.org/2000/svg" xmlns:xlink="http://www.w3.org/1999/xlink"><defs><style>*{stroke-linecap:butt;stroke-linejoin:round}</style></defs><g id="figure_1"><path d="M0 358.7h487.6V0H0z" fill="#fff" id="patch_1"/><g id="axes_1"><path d="M34 320.9h446.4v-299H34z" fill="#eaeaf2" id="patch_2"/><g id="matplotlib.axis_1"><g id="xtick_1"><path clip-path="url(#p2467b639df)" d="M94.9 320.9v-299" fill="none" stroke="#fff" stroke-linecap="round" id="line2d_1"/><g id="text_1"><defs><path d="M5 29.7v7.1h48.5v-7.1z" id="LiberationSans-2212"/><path d="M43 15.6V0h-8.3v15.6H2.3v6.8l31.5 46.4H43V22.5h9.7v-7zm-8.3 43.3q0-.3-.5-1l-.9-1.6-1-1.7-.8-1.5-17.7-26-.7-1-1-1.3q-.4-.7-1-1.3l-.7-1h24.3z" id="LiberationSans-34"/></defs><g transform="matrix(.1 0 0 -.1 89.2 335.1)" fill="#262626"><use xlink:href="#LiberationSans-2212"/><use x="58.4" xlink:href="#LiberationSans-34"/></g></g></g><g id="xtick_2"><path clip-path="url(#p2467b639df)" d="M176 320.9v-299" fill="none" stroke="#fff" stroke-linecap="round" id="line2d_3"/><g id="text_2"><defs><path d="M5 0v6.2q2.5 5.7 6.1 10 3.6 4.5 7.6 8l7.8 6.6q3.9 3 7 6t5 6.4q2 3.3 2 7.5 0 3-1 5.1-.8 2.3-2.4 3.8-1.7 1.5-4 2.2-2.3.8-5.2.8-2.6 0-5-.7-2.2-.8-4-2.2-1.9-1.5-3-3.7-1.2-2.1-1.5-5l-9 .8q.5 3.7 2 7Q9.2 62 12 64.5q2.8 2.5 6.8 4 4 1.3 9.2 1.3 5.2 0 9.2-1.2 4-1.2 6.7-3.6 2.8-2.4 4.2-6 1.5-3.4 1.5-8 0-3.5-1.2-6.6-1.3-3.1-3.4-6-2-2.8-4.8-5.4-2.7-2.7-5.7-5.2l-6-5q-3-2.4-5.7-5-2.6-2.4-4.7-5t-3.3-5.3h35.9V0z" id="LiberationSans-32"/></defs><g transform="matrix(.1 0 0 -.1 170.4 335.1)" fill="#262626"><use xlink:href="#LiberationSans-2212"/><use x="58.4" xlink:href="#LiberationSans-32"/></g></g></g><g id="xtick_3"><path clip-path="url(#p2467b639df)" d="M257.2 320.9v-299" fill="none" stroke="#fff" stroke-linecap="round" id="line2d_5"/><g id="text_3"><defs><path d="M51.7 34.4q0-9.9-1.9-16.6-1.8-6.8-5.1-11-3.2-4.2-7.6-6Q32.7-1 27.7-1T18.3.8q-4.3 1.8-7.5 6-3.2 4.1-5 10.9-1.9 6.8-1.9 16.7 0 10.4 1.8 17.2 1.9 6.9 5 10.9 3.3 4 7.7 5.7 4.4 1.6 9.6 1.6 5 0 9.2-1.6 4.3-1.7 7.6-5.7 3.2-4 5-10.9 1.9-6.8 1.9-17.2zm-9 0q0 8.2-.9 13.7-1 5.4-2.9 8.7-1.9 3.2-4.6 4.6-2.8 1.3-6.3 1.3-3.7 0-6.6-1.4-2.8-1.3-4.7-4.6-2-3.2-3-8.7-.9-5.4-.9-13.6 0-7.9 1-13.3t3-8.7q1.9-3.3 4.6-4.8 2.8-1.4 6.4-1.4 3.4 0 6.2 1.4 2.8 1.5 4.7 4.8 2 3.3 3 8.7 1 5.4 1 13.3z" id="LiberationSans-30"/></defs><use xlink:href="#LiberationSans-30" transform="matrix(.1 0 0 -.1 254.4 335.1)" fill="#262626"/></g></g><g id="xtick_4"><path clip-path="url(#p2467b639df)" d="M338.4 320.9v-299" fill="none" stroke="#fff" stroke-linecap="round" id="line2d_7"/><use xlink:href="#LiberationSans-32" transform="matrix(.1 0 0 -.1 335.6 335.1)" fill="#262626" id="text_4"/></g><g id="xtick_5"><path clip-path="url(#p2467b639df)" d="M419.5 320.9v-299" fill="none" stroke="#fff" stroke-linecap="round" id="line2d_9"/><use xlink:href="#LiberationSans-34" transform="matrix(.1 0 0 -.1 416.8 335.1)" fill="#262626" id="text_5"/></g><g id="text_6"><defs><path d="M13.5 24.6q0-4.2.8-7.7.9-3.5 2.7-6 1.8-2.5 4.5-3.9 2.8-1.4 6.7-1.4 5.7 0 9.2 2.3 3.4 2.3 4.6 5.8l7.8-2.2q-.9-2.2-2.4-4.4-1.4-2.2-4-4-2.4-1.8-6.2-3-3.7-1-9-1Q16.5-1 10.4 6q-6.2 7-6.2 20.8 0 7.4 1.9 12.5 1.9 5.2 5 8.4 3.3 3.2 7.6 4.7 4.3 1.4 9.2 1.4 6.6 0 11-2.1 4.6-2.2 7.3-6t3.8-8.9q1.2-5.1 1.2-11v-1.2zM42 31.3q-.7 8.4-4.3 12.2-3.5 3.8-10 3.8-2.3 0-4.7-.7-2.4-.7-4.4-2.5-2-1.8-3.5-5-1.4-3-1.6-7.8z" id="LiberationSans-65"/><path d="M8.2 0v68.8h52.2v-7.6H17.5v-22h40v-7.6h-40v-24h45V0z" id="LiberationSans-45"/><path d="M51.4 26.5q0-14-6-20.7Q39.1-1 27.5-1 22-1 17.7.7q-4.3 1.6-7.3 5-3 3.5-4.6 8.6-1.6 5.2-1.6 12.2 0 27.3 23.7 27.3 6.1 0 10.6-1.7t7.3-5.1q2.9-3.4 4.2-8.6 1.4-5.1 1.4-12zm-9.2 0q0 6.1-1 10.1T38.5 43q-1.9 2.4-4.5 3.4-2.7 1-6 1t-6-1q-2.8-1-4.7-3.5-1.9-2.4-2.9-6.4t-1-10q0-6.2 1.1-10.2 1-4 3-6.4 1.8-2.4 4.4-3.4 2.6-1 5.6-1 3.4 0 6 1 2.8 1 4.7 3.3 2 2.4 3 6.4 1 4.1 1 10.3z" id="LiberationSans-6f"/><path d="M6.2 26q0 6.8 1 13t3.2 11.9q2.2 5.7 5.7 11 3.4 5.4 8.1 10.6h8.5q-4.6-5.2-8-10.6-3.3-5.4-5.4-11.1-2.2-5.7-3.2-12-1-6.1-1-13 0-6.7 1-13Q17 6.8 19.3 1q2.1-5.7 5.5-11.1 3.3-5.4 8-10.5h-8.6q-4.7 5.1-8.1 10.5-3.5 5.4-5.7 11-2.2 5.8-3.2 12t-1 13z" id="LiberationSans-28"/><path d="M27 .4l-4-.9q-2-.3-4.8-.3-10.6 0-10.6 12v35.2h-6v6.4H8l2.5 11.9h6V52.8h9.7v-6.4h-9.8V13.1q0-3.8 1.2-5.4Q19 6.2 22 6.2q1.3 0 2.4.2l2.6.5z" id="LiberationSans-74"/><path d="M15.3 52.8V19.3q0-3.8.6-6.4.6-2.6 1.8-4.2 1.3-1.6 3.4-2.2 2-.7 5.1-.7 3.1 0 5.7 1.1 2.5 1.1 4.3 3.2 1.7 2 2.7 5.1 1 3 1 7v30.6h8.8V11.3 7.8 4.3l.2-2.8V0h-8.2l-.1 1.3-.1 2.5-.2 2.8V9H40Q39 6.7 37.4 5 35.8 3 33.8 1.7q-2-1.3-4.5-2-2.6-.7-6-.7-4.5 0-7.6 1-3.2 1.2-5.2 3.4-2 2.3-3 5.8t-1 8.4v35.2z" id="LiberationSans-75"/><path d="M7 0v43.9l-.2 3.4v3l-.2 2.5H15l.2-2.5.1-3 .1-2.9V42h.2q1 3 2 5.3 1 2.2 2.5 3.7 1.4 1.4 3.3 2 2 .8 4.8.8l2-.2 1.5-.3v-8l-2 .3-2.6.1q-3 0-5.2-1.3-2.1-1.4-3.5-3.8-1.3-2.4-2-5.8-.6-3.3-.6-7.3V0z" id="LiberationSans-72"/><path d="M4.4 22.7v7.8H29v-7.8z" id="LiberationSans-2d"/><path d="M46.4 14.6q0-3.7-1.5-6.6-1.4-3-4.1-5Q38 1.2 34 0q-4-1-9-1-4.6 0-8.3.7Q13 .4 10.2 2 7.4 3.6 5.5 6.1q-1.8 2.6-2.7 6.3l7.7 1.5q1.2-4.2 4.7-6.2t9.8-2q2.8 0 5.1.4 2.4.4 4.1 1.4Q36 8.5 37 10q1 1.6 1 4 0 2.3-1.2 3.8-1.1 1.6-3.1 2.6t-4.9 1.8l-6.2 1.7q-3.2.8-6.3 1.8-3.2 1-5.7 2.7-2.5 1.7-4 4.2-1.6 2.5-1.6 6.3 0 7.2 5.1 11 5.2 3.8 15 3.8 8.8 0 14-3.1 5-3 6.5-9.9l-8-1q-.4 2.1-1.6 3.5-1.1 1.4-2.8 2.2-1.6.9-3.7 1.3-2.1.3-4.4.3-6 0-8.8-1.8-2.8-1.8-2.8-5.5 0-2.1 1-3.5 1.1-1.4 3-2.3 1.9-1 4.5-1.7l5.8-1.5 4.3-1.1q2.2-.6 4.3-1.5 2-.9 3.9-2 1.8-1.1 3.2-2.8 1.4-1.6 2.2-3.7.8-2.2.8-5z" id="LiberationSans-73"/><path d="M6.7 64v8.5h8.8V64zm0-64v52.8h8.8V0z" id="LiberationSans-69"/><path d="M37.5 0v33.5q0 3.9-.5 6.4-.5 2.6-1.6 4.2-1.2 1.6-3 2.3-1.9.6-4.6.6-2.8 0-5-1-2.2-1.2-3.8-3.3-1.6-2-2.5-5-.8-3.1-.8-7V0H6.9v48.5l-.2 2.8v1.5h8.2l.1-1.3.2-2.5v-2.8l.1-2.4h.2q1.2 2.3 2.5 4.2 1.4 1.8 3.2 3 1.8 1.4 4.2 2 2.4.8 5.5.8 6 0 9.5-2.4t4.9-7.6h.1q1.2 2.3 2.6 4.2 1.5 1.8 3.5 3 2 1.4 4.4 2 2.4.8 5.5.8 4 0 7-1 2.8-1.1 4.7-3.4 1.9-2.2 2.7-5.8.9-3.5.9-8.4V0H68v33.5q0 3.9-.5 6.4-.5 2.6-1.6 4.2-1.2 1.6-3 2.3-1.9.6-4.6.6-2.7 0-5-1-2.2-1-3.8-3.1-1.6-2-2.5-5.1-.8-3.1-.8-7.2V0z" id="LiberationSans-6d"/><path d="M20.2-1q-8 0-12 4.2t-4 11.6q0 5.2 2 8.5 2 3.4 5.2 5.3t7.3 2.6q4.1.7 8.3.8l12 .2v3q0 3.2-.8 5.5-.7 2.3-2 3.7-1.5 1.4-3.6 2-2.1.7-5 .7-2.6 0-4.6-.4-2-.3-3.6-1.3-1.5-1-2.4-2.6-1-1.6-1.2-4l-9.2.7q.5 3.2 1.8 5.8 1.4 2.6 4 4.5 2.4 1.9 6.2 3 3.8 1 9.2 1 10 0 15-4.6 5-4.5 5-13.2V13.3q0-4 1-6 1-1.9 4-1.9l1.4.1 1.4.3V.3Q54-.1 52.3-.3q-1.6-.2-3.5-.2-2.5 0-4.2.7-1.8.6-3 2-1 1.3-1.7 3.3-.5 2-.7 4.6h-.3q-1.4-2.5-3-4.6-1.8-2-4-3.5Q29.6.6 26.8-.2 23.9-1 20.2-1zm2 6.6q4.2 0 7.4 1.5 3.1 1.6 5.2 4 2 2.4 3 5.2 1.1 2.8 1.1 5.4v4.4l-9.6-.2q-3.2 0-6.1-.5-3-.4-5.1-1.6-2.2-1.2-3.5-3.4-1.3-2.2-1.3-5.8 0-4.3 2.3-6.6 2.3-2.4 6.6-2.4z" id="LiberationSans-61"/><path d="M27 25.8q0-6.8-1-13T22.9.8q-2.1-5.6-5.6-11-3.4-5.4-8.1-10.5H.6q4.6 5.1 8 10.5Q11.8-4.8 14 .9q2.2 5.8 3.2 12t1 13q0 6.8-1 13T14 50.8q-2.1 5.7-5.5 11.1-3.3 5.4-8 10.6h8.6q4.7-5.2 8.1-10.5 3.5-5.4 5.6-11.1 2.2-5.7 3.3-12 1-6.1 1-13z" id="LiberationSans-29"/></defs><g transform="matrix(.11 0 0 -.11 204.7 349.2)" fill="#262626"><use xlink:href="#LiberationSans-45"/><use x="66.7" xlink:href="#LiberationSans-72"/><use x="100" xlink:href="#LiberationSans-72"/><use x="133.3" xlink:href="#LiberationSans-6f"/><use x="188.9" xlink:href="#LiberationSans-72"/><use x="222.2" xlink:href="#LiberationSans-20"/><use x="250" xlink:href="#LiberationSans-28"/><use x="283.3" xlink:href="#LiberationSans-74"/><use x="311.1" xlink:href="#LiberationSans-72"/><use x="344.4" xlink:href="#LiberationSans-75"/><use x="400" xlink:href="#LiberationSans-65"/><use x="455.6" xlink:href="#LiberationSans-20"/><use x="483.4" xlink:href="#LiberationSans-2d"/><use x="516.7" xlink:href="#LiberationSans-20"/><use x="544.5" xlink:href="#LiberationSans-65"/><use x="600.1" xlink:href="#LiberationSans-73"/><use x="650.1" xlink:href="#LiberationSans-74"/><use x="677.9" xlink:href="#LiberationSans-69"/><use x="700.1" xlink:href="#LiberationSans-6d"/><use x="783.4" xlink:href="#LiberationSans-61"/><use x="839" xlink:href="#LiberationSans-74"/><use x="866.8" xlink:href="#LiberationSans-65"/><use x="922.4" xlink:href="#LiberationSans-29"/></g></g></g><g id="matplotlib.axis_2"><g id="ytick_1"><path clip-path="url(#p2467b639df)" d="M34 307.3h446.4" fill="none" stroke="#fff" stroke-linecap="round" id="line2d_11"/><use xlink:href="#LiberationSans-30" transform="matrix(.1 0 0 -.1 21.5 311)" fill="#262626" id="text_7"/></g><g id="ytick_2"><path clip-path="url(#p2467b639df)" d="M34 251.5h446.4" fill="none" stroke="#fff" stroke-linecap="round" id="line2d_13"/><g id="text_8"><defs><path d="M7.6 0v7.5h17.5v53L9.6 49.2v8.3L26 68.8h8V7.5h16.8V0z" id="LiberationSans-31"/></defs><use xlink:href="#LiberationSans-31" transform="matrix(.1 0 0 -.1 21.5 255.2)" fill="#262626"/></g></g><g id="ytick_3"><path clip-path="url(#p2467b639df)" d="M34 195.8h446.4" fill="none" stroke="#fff" stroke-linecap="round" id="line2d_15"/><use xlink:href="#LiberationSans-32" transform="matrix(.1 0 0 -.1 21.5 199.4)" fill="#262626" id="text_9"/></g><g id="ytick_4"><path clip-path="url(#p2467b639df)" d="M34 140h446.4" fill="none" stroke="#fff" stroke-linecap="round" id="line2d_17"/><g id="text_10"><defs><path d="M51.2 19q0-4.7-1.5-8.5-1.6-3.7-4.5-6.2-3-2.6-7.3-4Q33.5-1 27.9-1 21.5-1 17 .6T10 4.8q-2.8 2.6-4.2 6-1.5 3.3-1.9 6.9l9 .8q.5-2.7 1.5-5 1-2.2 2.9-3.8Q19 8 21.6 7.2q2.7-.9 6.3-.9 6.6 0 10.4 3.3 3.8 3.2 3.8 9.7 0 3.8-1.7 6.1T36.2 29q-2.5 1.3-5.5 1.8-3 .4-5.4.4h-5v7.6h4.8q2.5 0 5.2.5t4.9 1.9q2.2 1.3 3.6 3.6 1.5 2.3 1.5 5.9 0 5.5-3.3 8.7-3.2 3.2-9.6 3.2-5.8 0-9.4-3-3.6-3-4.2-8.4L5 52q.5 4.6 2.5 8 2 3.3 5 5.5t6.8 3.3q3.8 1.1 8.2 1.1 5.8 0 9.9-1.4 4.1-1.5 6.8-4 2.6-2.4 3.9-5.7 1.2-3.3 1.2-7 0-3.1-.8-5.8-.8-2.6-2.6-4.7-1.8-2-4.5-3.6-2.7-1.5-6.5-2.3v-.2q4.2-.4 7.2-1.9 3.1-1.4 5.1-3.6 2-2.1 3-4.9 1-2.7 1-5.7z" id="LiberationSans-33"/></defs><use xlink:href="#LiberationSans-33" transform="matrix(.1 0 0 -.1 21.5 143.6)" fill="#262626"/></g></g><g id="ytick_5"><path clip-path="url(#p2467b639df)" d="M34 84.3h446.4" fill="none" stroke="#fff" stroke-linecap="round" id="line2d_19"/><use xlink:href="#LiberationSans-34" transform="matrix(.1 0 0 -.1 21.5 87.9)" fill="#262626" id="text_11"/></g><g id="ytick_6"><path clip-path="url(#p2467b639df)" d="M34 28.5h446.4" fill="none" stroke="#fff" stroke-linecap="round" id="line2d_21"/><g id="text_12"><defs><path d="M51.4 22.4q0-5.2-1.5-9.5-1.6-4.3-4.7-7.4-3-3-7.6-4.8Q33-1 27-1 21.6-1 17.5.3q-4 1.3-6.8 3.5Q8 6 6.3 9 4.7 12 4 15.4l8.9 1q.5-2 1.5-3.8 1-1.8 2.7-3.3Q18.7 8 21.2 7q2.5-.8 6-.8 3.4 0 6.2 1 2.8 1.1 4.8 3.1 2 2.1 3 5 1 3 1 7 0 3-1 5.7t-2.9 4.6q-1.9 2-4.6 3-2.8 1.1-6.3 1.1-2.2 0-4-.4-2-.4-3.5-1-1.6-.7-2.9-1.6l-2.4-2H6l2.3 37.1h39.1v-7.5h-31L15 39.5q2.3 1.8 5.8 3 3.6 1.4 8.4 1.4 5.1 0 9.2-1.6 4.1-1.5 7-4.4 2.9-2.8 4.5-6.8 1.5-4 1.5-8.7z" id="LiberationSans-35"/></defs><use xlink:href="#LiberationSans-35" transform="matrix(.1 0 0 -.1 21.5 32.1)" fill="#262626"/></g></g><g id="text_13"><defs><path d="M73 34.7q0-7.3-1.9-13.3-1.9-6-5.4-10.6-3.5-4.5-8.7-7.4Q51.9.6 45.3-.3q1-3.1 2.3-5.3 1.3-2.2 3-3.6 1.6-1.4 3.7-2 2-.7 4.5-.7l3 .2 2.6.4v-6.5q-1.9-.5-4-.8-2.3-.3-4.7-.3-4.2 0-7.3 1.3-3.1 1.2-5.5 3.5t-4 5.7Q37-5 35.7-.8q-7.7.4-13.6 3.2-5.8 2.8-9.7 7.5-3.9 4.8-5.8 11-2 6.4-2 13.8 0 8 2.3 14.6 2.2 6.5 6.6 11 4.3 4.6 10.7 7 6.4 2.5 14.6 2.5t14.6-2.5q6.4-2.5 10.7-7 4.3-4.6 6.5-11.1Q73 42.7 73 34.7zm-9.5 0q0 6.2-1.6 11.3-1.6 5-4.7 8.7-3 3.6-7.7 5.5-4.6 2-10.6 2-6.1 0-10.8-2-4.6-1.9-7.7-5.5-3.1-3.6-4.7-8.7-1.5-5-1.5-11.3 0-6.2 1.6-11.3 1.6-5.2 4.7-9 3-3.7 7.7-5.7 4.6-2.1 10.6-2.1 6.5 0 11.1 2 4.7 2.2 7.7 6 3 3.7 4.4 8.8 1.5 5.2 1.5 11.3z" id="LiberationSans-51"/><path d="M40.3 0v33.5q0 3.9-.6 6.4-.5 2.6-1.8 4.2t-3.4 2.3q-2 .6-5.1.6-3.1 0-5.6-1-2.6-1.2-4.3-3.3-1.8-2-2.8-5-1-3.1-1-7V0H7v48.5l-.2 2.8v1.5h8.2l.1-1.3.2-2.5v-2.8l.1-2.4h.2q1.3 2.3 2.8 4.2 1.5 1.8 3.5 3 2 1.4 4.6 2 2.6.8 6 .8 4.4 0 7.5-1 3.2-1.1 5.3-3.4 2-2.2 3-5.8 1-3.5 1-8.4V0z" id="LiberationSans-6e"/><path d="M6.7 0v72.5h8.8V0z" id="LiberationSans-6c"/><path d="M8.2 0v68.8h9.3V7.6h34.8V0z" id="LiberationSans-4c"/></defs><g transform="matrix(0 -.11 -.11 0 15.2 205)" fill="#262626"><use xlink:href="#LiberationSans-51"/><use x="77.8" xlink:href="#LiberationSans-75"/><use x="133.4" xlink:href="#LiberationSans-61"/><use x="189" xlink:href="#LiberationSans-6e"/><use x="244.6" xlink:href="#LiberationSans-74"/><use x="272.4" xlink:href="#LiberationSans-69"/><use x="294.6" xlink:href="#LiberationSans-6c"/><use x="316.8" xlink:href="#LiberationSans-65"/><use x="372.5" xlink:href="#LiberationSans-20"/><use x="400.2" xlink:href="#LiberationSans-4c"/><use x="455.9" xlink:href="#LiberationSans-6f"/><use x="511.5" xlink:href="#LiberationSans-73"/><use x="561.5" xlink:href="#LiberationSans-73"/></g></g></g><path clip-path="url(#p2467b639df)" d="M54.3 279.4l4 .6 4.1.5 4 .6 4.1.5 4.1.6 4 .6 4.1.5 4 .6 4.1.5 4 .6 4.1.5 4.1.6 4 .6 4.1.5 4 .6 4.1.5 4 .6 4.2.5 4 .6 4 .6 4.1.5 4 .6 4.1.5 4.1.6 4 .5 4.1.6 4 .6 4.1.5 4 .6 4.2.5 4 .6 4 .6 4.1.5 4 .6 4.1.5 4.1.6 4 .5 4.1.6 4 .6 4.1.5 4 .6 4.1.5 4.1.6 4 .5 4.1.6 4 .6 4.1.5 4.1.6 4 .5 4.1.6 4-5 4.1-5 4-5 4.1-5 4.1-5.1 4-5 4.1-5 4-5 4.1-5 4.1-5 4-5.1 4.1-5 4-5 4.1-5 4-5 4.1-5.1 4.1-5 4-5 4.1-5 4-5 4.1-5 4.1-5.1 4-5 4.1-5 4-5 4.1-5 4-5.1 4.1-5 4.1-5 4-5 4.1-5 4-5 4.1-5.1 4-5 4.2-5 4-5 4-5 4.1-5 4-5.1 4.1-5 4.1-5 4-5 4.1-5 4-5.1 4.1-5 4-5 4.1-5 4.1-5 4-5 4.1-5.1" fill="none" stroke="#4c72b0" stroke-linecap="round" stroke-width="1.8" id="line2d_23"/><path clip-path="url(#p2467b639df)" d="M54.3 167.9l4 2.8 4.1 2.8 4 2.8 4.1 2.8 4.1 2.7 4 2.8 4.1 2.8 4 2.8 4.1 2.8 4 2.8 4.1 2.8 4.1 2.8 4 2.7 4.1 2.8 4 2.8 4.1 2.8 4 2.8 4.2 2.8 4 2.8 4 2.8 4.1 2.7 4 2.8 4.1 2.8 4.1 2.8 4 2.8 4.1 2.8 4 2.8 4.1 2.8 4 2.7 4.2 2.8 4 2.8 4 2.8 4.1 2.8 4 2.8 4.1 2.8 4.1 2.8 4 2.7 4.1 2.8 4 2.8 4.1 2.8 4 2.8 4.1 2.8 4.1 2.8 4 2.8 4.1 2.7 4 2.8 4.1 2.8 4.1 2.8 4 2.8 4.1 2.8 4-2.8 4.1-2.8 4-2.8 4.1-2.8 4.1-2.8 4-2.7 4.1-2.8 4-2.8 4.1-2.8 4.1-2.8 4-2.8 4.1-2.8 4-2.8 4.1-2.7 4-2.8 4.1-2.8 4.1-2.8 4-2.8 4.1-2.8 4-2.8 4.1-2.8 4.1-2.7 4-2.8 4.1-2.8 4-2.8 4.1-2.8 4-2.8 4.1-2.8 4.1-2.8 4-2.7 4.1-2.8 4-2.8 4.1-2.8 4-2.8 4.2-2.8 4-2.8 4-2.8 4.1-2.7 4-2.8 4.1-2.8 4.1-2.8 4-2.8 4.1-2.8 4-2.8 4.1-2.8 4-2.7 4.1-2.8 4.1-2.8 4-2.8 4.1-2.8" fill="none" stroke="#55a868" stroke-linecap="round" stroke-width="1.8" id="line2d_24"/><path clip-path="url(#p2467b639df)" d="M54.3 35.5l4 5.4 4.1 5.5 4 5.4 4.1 5.4 4.1 5.5 4 5.4 4.1 5.4 4 5.5 4.1 5.4 4 5.4 4.1 5.5 4.1 5.4 4 5.5 4.1 5.4 4 5.4 4.1 5.5 4 5.4 4.2 5.4 4 5.5 4 5.4 4.1 5.4 4 5.5 4.1 5.4 4.1 5.5 4 5.4 4.1 5.4 4 5.5 4.1 5.4 4 5.4 4.2 5.5 4 5.4 4 5.4 4.1 5.5 4 5.4 4.1 5.4 4.1 5.5 4 5.4 4.1 5.5 4 5.4 4.1 5.4 4 5.5 4.1 5.4 4.1 5.4 4 5.5 4.1 5.4 4 5.4 4.1 5.5 4.1 5.4 4 5.5 4.1 5.4 4-.2h4.1l4-.2 4.1-.2 4.1-.1 4-.2h4.1l4-.2 4.1-.2 4.1-.1 4-.1 4.1-.2 4-.1 4.1-.2 4-.1 4.1-.1 4.1-.2 4-.1 4.1-.2 4-.1 4.1-.1 4.1-.2 4-.1 4.1-.2 4-.1 4.1-.1 4-.2 4.1-.1 4.1-.2 4-.1 4.1-.1 4-.2 4.1-.1 4-.2h4.2l4-.2 4-.2 4.1-.1 4-.1 4.1-.2 4.1-.1 4-.2 4.1-.1 4-.1 4.1-.2 4-.1 4.1-.2 4.1-.1 4-.1 4.1-.2" fill="none" stroke="#c44e52" stroke-linecap="round" stroke-width="1.8" id="line2d_25"/><path d="M34 320.9v-299" fill="none" id="patch_3"/><path d="M480.4 320.9v-299" fill="none" id="patch_4"/><path d="M34 320.9h446.4" fill="none" id="patch_5"/><path d="M34 21.9h446.4" fill="none" id="patch_6"/><g id="text_14"><defs><path d="M57.3 0H47.1l-8.4 34-.8 3.4-.8 3.8-1 4.4-.9-4.3-.9-3.9-.8-3.5L24.8 0H14.7L-.1 52.8h8.6l9-35.9.7-2.7.6-3.2.8-3.7.8 3.6.8 3 .7 2.6 9.6 36.3h9.4L50 16.5l.7-2.8.8-3 .7-3.4.8 3.6.7 3.1.7 3L64 52.7h8.6z" id="LiberationSans-77"/><path d="M15.5 43.8q1.4 2.7 3.1 4.6 1.8 1.9 3.8 3 2 1.3 4.5 1.9 2.4.5 5.5.5 5 0 8.3-1.4 3.3-1.3 5.1-3.8 1.9-2.5 2.6-5.9.7-3.4.7-7.5V0h-8.8v33.5q0 3.4-.4 5.9-.4 2.5-1.6 4.2-1.2 1.7-3.3 2.6-2.2.8-5.6.8-3.1 0-5.6-1.1-2.6-1.1-4.3-3.2-1.8-2-2.8-5-1-2.9-1-6.5V0H7v72.5h8.8V53.6v-3.2q0-1.6-.2-3v-2.3l-.2-1.3z" id="LiberationSans-68"/><path d="M40 8.5q-2.4-5-6.4-7.3-4-2.2-10-2.2Q13.6-1 9 5.8q-4.7 6.7-4.7 20.4 0 27.6 19.4 27.6 6 0 10-2.2t6.5-7v27.9h8.8V10.9 7.2 4l.2-2.5V0h-8.3l-.2 1.4-.1 2-.2 2.5v2.6zm-26.6 18q0-5.5.7-9.4.7-4 2.2-6.4 1.5-2.5 3.9-3.7 2.3-1.2 5.7-1.2 3.4 0 6.1 1.1 2.7 1.2 4.5 3.7 1.7 2.5 2.7 6.5.9 4 .9 10 0 5.6-1 9.4-.9 4-2.7 6.3-1.8 2.4-4.4 3.5-2.6 1-6 1-3.3 0-5.6-1.1t-3.9-3.6Q14.9 40 14.2 36q-.8-4-.8-9.6z" id="LiberationSans-64"/><path d="M17.6 46.4V0H8.8v46.4H1.4v6.4h7.4v6q0 2.9.6 5.3.5 2.5 2 4.3 1.4 1.9 3.9 3 2.5 1 6.4 1l3.3-.2q1.7-.1 3-.4V65l-2 .3h-2q-2 0-3.2-.5-1.2-.5-2-1.5-.6-1-1-2.5-.2-1.4-.2-3.3v-4.8H28v-6.4z" id="LiberationSans-66"/><path d="M23.6-1Q13.6-1 9 5.8q-4.7 6.8-4.7 20.4 0 13.7 4.8 20.7t14.6 7q3.3 0 5.8-.7 2.5-.6 4.5-1.7 2-1.2 3.5-2.9t2.7-4l.1 2.7.2 2.8q0 1.4.2 2.3 0 1 .2 1.1h8.4l-.2-4.3-.1-10v-60H40V6l.2 2.8h-.1q-1.3-2.5-2.8-4.3-1.6-1.9-3.6-3-2-1.3-4.5-1.8-2.5-.6-5.7-.6zm16.5 28q0 5.8-1 9.7-1 4-2.9 6.3-1.8 2.3-4.4 3.3-2.6 1-5.8 1-3.4 0-5.8-1.2-2.4-1.3-3.9-3.8-1.5-2.6-2.2-6.5-.7-4-.7-9.3 0-5.3.7-9.2.7-4 2.1-6.5 1.5-2.5 3.9-3.8 2.4-1.2 5.8-1.2 3 0 5.5 1 2.6.8 4.5 3.2 2 2.4 3 6.5 1.2 4.1 1.2 10.5z" id="LiberationSans-71"/></defs><g transform="matrix(.12 0 0 -.12 159.2 15.9)" fill="#262626"><use xlink:href="#LiberationSans-51"/><use x="77.8" xlink:href="#LiberationSans-75"/><use x="133.4" xlink:href="#LiberationSans-61"/><use x="189" xlink:href="#LiberationSans-6e"/><use x="244.6" xlink:href="#LiberationSans-74"/><use x="272.4" xlink:href="#LiberationSans-69"/><use x="294.6" xlink:href="#LiberationSans-6c"/><use x="316.8" xlink:href="#LiberationSans-65"/><use x="372.5" xlink:href="#LiberationSans-20"/><use x="400.2" xlink:href="#LiberationSans-4c"/><use x="455.9" xlink:href="#LiberationSans-6f"/><use x="511.5" xlink:href="#LiberationSans-73"/><use x="561.5" xlink:href="#LiberationSans-73"/><use x="611.5" xlink:href="#LiberationSans-20"/><use x="639.3" xlink:href="#LiberationSans-77"/><use x="711.5" xlink:href="#LiberationSans-69"/><use x="733.7" xlink:href="#LiberationSans-74"/><use x="761.5" xlink:href="#LiberationSans-68"/><use x="817.1" xlink:href="#LiberationSans-20"/><use x="844.9" xlink:href="#LiberationSans-64"/><use x="900.5" xlink:href="#LiberationSans-69"/><use x="922.7" xlink:href="#LiberationSans-66"/><use x="950.5" xlink:href="#LiberationSans-66"/><use x="978.3" xlink:href="#LiberationSans-65"/><use x="1033.9" xlink:href="#LiberationSans-72"/><use x="1067.2" xlink:href="#LiberationSans-65"/><use x="1122.8" xlink:href="#LiberationSans-6e"/><use x="1178.4" xlink:href="#LiberationSans-74"/><use x="1206.2" xlink:href="#LiberationSans-20"/><use x="1234" xlink:href="#LiberationSans-71"/><use x="1289.6" xlink:href="#LiberationSans-75"/><use x="1345.2" xlink:href="#LiberationSans-61"/><use x="1400.8" xlink:href="#LiberationSans-6e"/><use x="1456.4" xlink:href="#LiberationSans-74"/><use x="1484.2" xlink:href="#LiberationSans-69"/><use x="1506.4" xlink:href="#LiberationSans-6c"/><use x="1528.6" xlink:href="#LiberationSans-65"/><use x="1584.3" xlink:href="#LiberationSans-73"/></g></g><g id="legend_1"><path d="M229 34.6h20" fill="none" stroke="#4c72b0" stroke-linecap="round" stroke-width="1.8" id="line2d_26"/><g id="text_15"><defs><path d="M85.4 21.2q0-6.1-1.3-10.3-1.2-4.2-3.4-6.7-2-2.6-5-3.7-2.7-1-6-1-3.2 0-6 1-2.8 1.1-4.9 3.6-2 2.6-3.3 6.8-1.2 4.1-1.2 10.3 0 6.5 1.2 10.7 1.2 4.3 3.3 6.8 2 2.5 5 3.5 2.8 1 6.1 1 3.2 0 6-1 2.9-1 5-3.5 2-2.5 3.2-6.8 1.3-4.2 1.3-10.7zM25.7 0h-7.5l45 68.8h7.6zm-6.5 69.4q3.2 0 6-1 2.7-1 4.8-3.5 2.1-2.5 3.3-6.7 1.2-4.2 1.2-10.6 0-6.1-1.2-10.4-1.2-4.1-3.3-6.8-2-2.6-5-3.7-2.7-1.1-6-1.1-3.2 0-6 1.1-2.9 1.1-5 3.7-2 2.6-3.3 6.8-1.1 4.2-1.1 10.4 0 6.4 1.1 10.6Q6 62.4 8 64.9q2.2 2.5 5 3.5 3 1 6.2 1zm59-48.2q0 4.8-.6 8T76 34.3q-1 2-2.6 2.7-1.5.8-3.5.8t-3.6-.8q-1.5-.8-2.6-2.7-1.1-2-1.6-5.1-.6-3.2-.6-8 0-4.7.6-7.8.5-3.1 1.6-5 1-2 2.6-2.8 1.5-.8 3.5-.8t3.5.8q1.5.9 2.6 2.8 1 1.9 1.6 5 .6 3.1.6 7.8zM27.2 47.6q0 4.8-.5 8-.5 3.1-1.6 5-1 2-2.5 2.7-1.5.8-3.5.8t-3.7-.8q-1.5-.8-2.6-2.7-1-2-1.6-5-.6-3.3-.6-8 0-4.6.6-7.8t1.6-5.1q1-2 2.6-2.8 1.6-.8 3.6-.8 1.9 0 3.4.8 1.5.9 2.6 2.8 1 2 1.6 5.1.6 3.2.6 7.8z" id="LiberationSans-25"/></defs><g transform="matrix(.1 0 0 -.1 257 38.1)" fill="#262626"><use xlink:href="#LiberationSans-31"/><use x="55.6" xlink:href="#LiberationSans-30"/><use x="111.2" xlink:href="#LiberationSans-25"/></g></g><path d="M229 49h20" fill="none" stroke="#55a868" stroke-linecap="round" stroke-width="1.8" id="line2d_28"/><g transform="matrix(.1 0 0 -.1 257 52.5)" fill="#262626" id="text_16"><use xlink:href="#LiberationSans-35"/><use x="55.6" xlink:href="#LiberationSans-30"/><use x="111.2" xlink:href="#LiberationSans-25"/></g><path d="M229 63.3h20" fill="none" stroke="#c44e52" stroke-linecap="round" stroke-width="1.8" id="line2d_30"/><g id="text_17"><defs><path d="M50.9 35.8q0-9.2-1.8-16.1-1.7-6.9-5-11.5-3.1-4.6-7.8-6.9Q31.7-1 26-1q-4 0-7.2.8-3.1.8-5.6 2.5Q10.7 4 8.9 6.8q-1.7 2.7-2.8 6.6l8.4 1.3q1.4-4.4 4.3-6.5 2.9-2 7.3-2 3.6 0 6.5 1.6 3 1.7 5 5 2.1 3.4 3.3 8.5 1.2 5 1.3 11.9-1-2.3-2.8-4.1-1.8-1.8-4-3-2.3-1.3-5-2-2.6-.6-5.3-.6-4.7 0-8.5 1.7t-6.4 4.7q-2.6 3-4 7.3-1.5 4.3-1.5 9.5 0 5.3 1.5 9.6 1.6 4.3 4.5 7.3 3 3 7.2 4.6 4.3 1.6 9.7 1.6 11.5 0 17.4-8.5 5.9-8.5 5.9-25.5zm-9.6 8.5q0 3.8-.9 7.2-.9 3.3-2.7 5.8-1.8 2.5-4.4 4-2.6 1.4-6 1.4-3.2 0-5.7-1.1-2.6-1.1-4.3-3.2-1.8-2.1-2.7-5-1-3-1-6.7 0-3.5.9-6.5.8-3 2.5-5.1 1.8-2.2 4.3-3.4 2.5-1.3 5.9-1.3 2.4 0 5 .9 2.5.8 4.5 2.5T40 38q1.3 2.6 1.3 6.2z" id="LiberationSans-39"/><path d="M50.6 61.7q-5.2-8-9.5-15.2-4.4-7.3-7.5-14.8-3.1-7.3-4.9-15.1Q27 8.8 27 0h-9.2q0 8.3 2 16.2 2 8 5.2 15.6 3.4 7.6 7.8 15T42 61.3H5v7.5h45.5z" id="LiberationSans-37"/><path d="M9.1 0v10.7h9.6V0z" id="LiberationSans-2e"/></defs><g transform="matrix(.1 0 0 -.1 257 66.8)" fill="#262626"><use xlink:href="#LiberationSans-39"/><use x="55.6" xlink:href="#LiberationSans-37"/><use x="111.2" xlink:href="#LiberationSans-2e"/><use x="139" xlink:href="#LiberationSans-35"/><use x="194.6" xlink:href="#LiberationSans-25"/></g></g></g></g></g><defs><clipPath id="p2467b639df"><path d="M34 21.9h446.4v299H34z"/></clipPath></defs></svg>