<svg viewBox="0 0 497 343" xmlns="http://www.w3.org/2000/svg" xmlns:xlink="http://www.w3.org/1999/xlink"><defs><style>*{stroke-linecap:butt;stroke-linejoin:round}</style></defs><g id="figure_1"><path d="M0 344h497.5V0H0z" fill="#fff" id="patch_1"/><g id="axes_1"><path d="M43.9 143.1h202.9V7.2h-203z" fill="#eaeaf2" id="patch_2"/><g id="matplotlib.axis_1"><g id="xtick_1"><path clip-path="url(#pb230347fc9)" d="M91.6 143.1V7.2" fill="none" stroke="#fff" stroke-linecap="round" id="line2d_1"/><g id="text_1"><defs><path d="M5 29.7v7.1h48.5v-7.1z" id="LiberationSans-2212"/><path d="M5 0v6.2q2.5 5.7 6.1 10 3.6 4.5 7.6 8l7.8 6.6q3.9 3 7 6t5 6.4q2 3.3 2 7.5 0 3-1 5.1-.8 2.3-2.4 3.8-1.7 1.5-4 2.2-2.3.8-5.2.8-2.6 0-5-.7-2.2-.8-4-2.2-1.9-1.5-3-3.7-1.2-2.1-1.5-5l-9 .8q.5 3.7 2 7Q9.2 62 12 64.5q2.8 2.5 6.8 4 4 1.3 9.2 1.3 5.2 0 9.2-1.2 4-1.2 6.7-3.6 2.8-2.4 4.2-6 1.5-3.4 1.5-8 0-3.5-1.2-6.6-1.3-3.1-3.4-6-2-2.8-4.8-5.4-2.7-2.7-5.7-5.2l-6-5q-3-2.4-5.7-5-2.6-2.4-4.7-5t-3.3-5.3h35.9V0z" id="LiberationSans-32"/><path d="M51.7 34.4q0-9.9-1.9-16.6-1.8-6.8-5.1-11-3.2-4.2-7.6-6Q32.7-1 27.7-1T18.3.8q-4.3 1.8-7.5 6-3.2 4.1-5 10.9-1.9 6.8-1.9 16.7 0 10.4 1.8 17.2 1.9 6.9 5 10.9 3.3 4 7.7 5.7 4.4 1.6 9.6 1.6 5 0 9.2-1.6 4.3-1.7 7.6-5.7 3.2-4 5-10.9 1.9-6.8 1.9-17.2zm-9 0q0 8.2-.9 13.7-1 5.4-2.9 8.7-1.9 3.2-4.6 4.6-2.8 1.3-6.3 1.3-3.7 0-6.6-1.4-2.8-1.3-4.7-4.6-2-3.2-3-8.7-.9-5.4-.9-13.6 0-7.9 1-13.3t3-8.7q1.9-3.3 4.6-4.8 2.8-1.4 6.4-1.4 3.4 0 6.2 1.4 2.8 1.5 4.7 4.8 2 3.3 3 8.7 1 5.4 1 13.3z" id="LiberationSans-30"/></defs><g transform="matrix(.1 0 0 -.1 77.6 157.3)" fill="#262626"><use xlink:href="#LiberationSans-2212"/><use x="58.4" xlink:href="#LiberationSans-32"/><use x="114" xlink:href="#LiberationSans-30"/><use x="169.6" xlink:href="#LiberationSans-30"/><use x="225.2" xlink:href="#LiberationSans-30"/></g></g></g><g id="xtick_2"><path clip-path="url(#pb230347fc9)" d="M145.1 143.1V7.2" fill="none" stroke="#fff" stroke-linecap="round" id="line2d_3"/><use xlink:href="#LiberationSans-30" transform="matrix(.1 0 0 -.1 142.3 157.3)" fill="#262626" id="text_2"/></g><g id="xtick_3"><path clip-path="url(#pb230347fc9)" d="M198.6 143.1V7.2" fill="none" stroke="#fff" stroke-linecap="round" id="line2d_5"/><g transform="matrix(.1 0 0 -.1 187.4 157.3)" fill="#262626" id="text_3"><use xlink:href="#LiberationSans-32"/><use x="55.6" xlink:href="#LiberationSans-30"/><use x="111.2" xlink:href="#LiberationSans-30"/><use x="166.8" xlink:href="#LiberationSans-30"/></g></g></g><g id="matplotlib.axis_2"><g id="ytick_1"><path clip-path="url(#pb230347fc9)" d="M43.9 121h202.9" fill="none" stroke="#fff" stroke-linecap="round" id="line2d_7"/><g id="text_4"><defs><path d="M7.6 0v7.5h17.5v53L9.6 49.2v8.3L26 68.8h8V7.5h16.8V0z" id="LiberationSans-31"/></defs><g transform="matrix(.1 0 0 -.1 21.5 124.6)" fill="#262626"><use transform="translate(0 .9)" xlink:href="#LiberationSans-31"/><use transform="translate(55.6 .9)" xlink:href="#LiberationSans-30"/><use transform="matrix(.7 0 0 .7 112.2 37.8)" xlink:href="#LiberationSans-31"/></g></g></g><g id="ytick_2"><path clip-path="url(#pb230347fc9)" d="M43.9 89h202.9" fill="none" stroke="#fff" stroke-linecap="round" id="line2d_9"/><g id="text_5"><defs><path d="M51.2 19q0-4.7-1.5-8.5-1.6-3.7-4.5-6.2-3-2.6-7.3-4Q33.5-1 27.9-1 21.5-1 17 .6T10 4.8q-2.8 2.6-4.2 6-1.5 3.3-1.9 6.9l9 .8q.5-2.7 1.5-5 1-2.2 2.9-3.8Q19 8 21.6 7.2q2.7-.9 6.3-.9 6.6 0 10.4 3.3 3.8 3.2 3.8 9.7 0 3.8-1.7 6.1T36.2 29q-2.5 1.3-5.5 1.8-3 .4-5.4.4h-5v7.6h4.8q2.5 0 5.2.5t4.9 1.9q2.2 1.3 3.6 3.6 1.5 2.3 1.5 5.9 0 5.5-3.3 8.7-3.2 3.2-9.6 3.2-5.8 0-9.4-3-3.6-3-4.2-8.4L5 52q.5 4.6 2.5 8 2 3.3 5 5.5t6.8 3.3q3.8 1.1 8.2 1.1 5.8 0 9.9-1.4 4.1-1.5 6.8-4 2.6-2.4 3.9-5.7 1.2-3.3 1.2-7 0-3.1-.8-5.8-.8-2.6-2.6-4.7-1.8-2-4.5-3.6-2.7-1.5-6.5-2.3v-.2q4.2-.4 7.2-1.9 3.1-1.4 5.1-3.6 2-2.1 3-4.9 1-2.7 1-5.7z" id="LiberationSans-33"/></defs><g transform="matrix(.1 0 0 -.1 21.5 92.7)" fill="#262626"><use transform="translate(0 .1)" xlink:href="#LiberationSans-31"/><use transform="translate(55.6 .1)" xlink:href="#LiberationSans-30"/><use transform="matrix(.7 0 0 .7 112.2 37.1)" xlink:href="#LiberationSans-33"/></g></g></g><g id="ytick_3"><path clip-path="url(#pb230347fc9)" d="M43.9 57.1h202.9" fill="none" stroke="#fff" stroke-linecap="round" id="line2d_11"/><g id="text_6"><defs><path d="M51.4 22.4q0-5.2-1.5-9.5-1.6-4.3-4.7-7.4-3-3-7.6-4.8Q33-1 27-1 21.6-1 17.5.3q-4 1.3-6.8 3.5Q8 6 6.3 9 4.7 12 4 15.4l8.9 1q.5-2 1.5-3.8 1-1.8 2.7-3.3Q18.7 8 21.2 7q2.5-.8 6-.8 3.4 0 6.2 1 2.8 1.1 4.8 3.1 2 2.1 3 5 1 3 1 7 0 3-1 5.7t-2.9 4.6q-1.9 2-4.6 3-2.8 1.1-6.3 1.1-2.2 0-4-.4-2-.4-3.5-1-1.6-.7-2.9-1.6l-2.4-2H6l2.3 37.1h39.1v-7.5h-31L15 39.5q2.3 1.8 5.8 3 3.6 1.4 8.4 1.4 5.1 0 9.2-1.6 4.1-1.5 7-4.4 2.9-2.8 4.5-6.8 1.5-4 1.5-8.7z" id="LiberationSans-35"/></defs><g transform="matrix(.1 0 0 -.1 21.5 60.8)" fill="#262626"><use transform="translate(0 .9)" xlink:href="#LiberationSans-31"/><use transform="translate(55.6 .9)" xlink:href="#LiberationSans-30"/><use transform="matrix(.7 0 0 .7 112.2 37.8)" xlink:href="#LiberationSans-35"/></g></g></g><g id="ytick_4"><path clip-path="url(#pb230347fc9)" d="M43.9 25.2h202.9" fill="none" stroke="#fff" stroke-linecap="round" id="line2d_13"/><g id="text_7"><defs><path d="M50.6 61.7q-5.2-8-9.5-15.2-4.4-7.3-7.5-14.8-3.1-7.3-4.9-15.1Q27 8.8 27 0h-9.2q0 8.3 2 16.2 2 8 5.2 15.6 3.4 7.6 7.8 15T42 61.3H5v7.5h45.5z" id="LiberationSans-37"/></defs><g transform="matrix(.1 0 0 -.1 21.5 28.9)" fill="#262626"><use transform="translate(0 .9)" xlink:href="#LiberationSans-31"/><use transform="translate(55.6 .9)" xlink:href="#LiberationSans-30"/><use transform="matrix(.7 0 0 .7 112.2 37.8)" xlink:href="#LiberationSans-37"/></g></g></g><g id="text_8"><defs><path d="M61.4 48q0-4.4-1.5-8.3-1.4-3.9-4.4-6.7-3-2.9-7.4-4.5-4.4-1.7-10.4-1.7H17.6V0H8.2v68.8h29q6 0 10.6-1.5 4.5-1.5 7.6-4.2 3-2.7 4.5-6.5 1.5-3.9 1.5-8.5zM52 48q0 6.5-4 10-4 3.3-12 3.3H17.5V34.2h19q8 0 11.8 3.5Q52 41.4 52 48z" id="LiberationSans-50"/><path d="M6.7 64v8.5h8.8V64zm0-64v52.8h8.8V0z" id="LiberationSans-69"/><path d="M13.4 26.7q0-4.6.7-8.4.7-3.8 2.2-6.6Q18 9 20.4 7.5 23 6 26.8 6q4.7 0 7.8 2.5 3.1 2.5 3.9 7.8l8.9-.6q-.5-3.2-2-6.3-1.4-3-4-5.3-2.4-2.3-6-3.7Q31.6-1 27-1q-6.2 0-10.5 2.1Q12 3.2 9.4 7q-2.7 3.7-4 8.7-1.2 5-1.2 10.9 0 5.3 1 9.4.8 4 2.4 7 1.6 3.1 3.7 5.2 2.2 2.1 4.7 3.3 2.5 1.3 5.3 1.9 2.8.5 5.6.5 4.4 0 8-1.2 3.4-1.2 5.9-3.4 2.5-2 4-5 1.6-2.8 2.3-6.2l-9-.6q-.7 4.4-3.5 7-2.8 2.5-8 2.5-3.7 0-6.2-1.2-2.5-1.3-4-3.8-1.6-2.5-2.3-6.3-.7-3.8-.7-9z" id="LiberationSans-63"/><path d="M39.8 0L22 24.1l-6.5-5.3V0H6.7v72.5h8.8V27.2l23.2 25.6H49L27.6 30.1 50 0z" id="LiberationSans-6b"/><path d="M15.3 52.8V19.3q0-3.8.6-6.4.6-2.6 1.8-4.2 1.3-1.6 3.4-2.2 2-.7 5.1-.7 3.1 0 5.7 1.1 2.5 1.1 4.3 3.2 1.7 2 2.7 5.1 1 3 1 7v30.6h8.8V11.3 7.8 4.3l.2-2.8V0h-8.2l-.1 1.3-.1 2.5-.2 2.8V9H40Q39 6.7 37.4 5 35.8 3 33.8 1.7q-2-1.3-4.5-2-2.6-.7-6-.7-4.5 0-7.6 1-3.2 1.2-5.2 3.4-2 2.3-3 5.8t-1 8.4v35.2z" id="LiberationSans-75"/><path d="M51.4 26.7q0-6-1-11.1t-3.2-8.8q-2.3-3.6-6-5.7-3.7-2-9.2-2-5.7 0-10 2-4.2 2.2-6.4 7.1h-.3l.1-.9v-2l.1-2.5v-23.5H6.7V48.9l-.2 2.5v1.4h8.4l.2-1 .1-2.1.2-2.7v-2.7h.2q1.2 2.6 2.8 4.4 1.6 1.7 3.6 2.9 2 1.1 4.4 1.6 2.5.6 5.6.6 5.5 0 9.2-2 3.7-2 6-5.5t3.2-8.5q1-5 1-11.1zm-9.2-.2q0 4.8-.6 8.7-.6 3.8-2 6.4-1.5 2.6-3.9 4t-6 1.4q-2.9 0-5.5-.9-2.6-.8-4.5-3.1-2-2.4-3-6.5-1.2-4.1-1.2-10.7 0-5.6 1-9.5.9-3.9 2.7-6.3 1.8-2.4 4.4-3.4 2.6-1 6-1 3.7 0 6.1 1.3 2.4 1.4 3.9 4.1 1.4 2.7 2 6.6.6 3.9.6 8.9z" id="LiberationSans-70"/></defs><g transform="matrix(0 -.11 -.11 0 15.2 91.7)" fill="#262626"><use xlink:href="#LiberationSans-50"/><use x="66.7" xlink:href="#LiberationSans-69"/><use x="88.9" xlink:href="#LiberationSans-63"/><use x="138.9" xlink:href="#LiberationSans-6b"/><use x="188.9" xlink:href="#LiberationSans-75"/><use x="244.5" xlink:href="#LiberationSans-70"/></g></g></g><path clip-path="url(#pb230347fc9)" d="M53 16091.8h3.8V110.1H53z" fill="#4c72b0" id="patch_3"/><path clip-path="url(#pb230347fc9)" d="M56.8 16091.8h3.7-3.7z" fill="#4c72b0" id="patch_4"/><path clip-path="url(#pb230347fc9)" d="M60.5 16091.8H64V123.4h-3.6z" fill="#4c72b0" id="patch_5"/><path clip-path="url(#pb230347fc9)" d="M64.1 16091.8h3.7V112.5h-3.7z" fill="#4c72b0" id="patch_6"/><path clip-path="url(#pb230347fc9)" d="M67.8 16091.8h3.7-3.7z" fill="#4c72b0" id="patch_7"/><path clip-path="url(#pb230347fc9)" d="M71.5 16091.8h3.7V117.8h-3.7z" fill="#4c72b0" id="patch_8"/><path clip-path="url(#pb230347fc9)" d="M75.2 16091.8H79V116.8h-3.7z" fill="#4c72b0" id="patch_9"/><path clip-path="url(#pb230347fc9)" d="M78.9 16091.8h3.7V129.3h-3.7z" fill="#4c72b0" id="patch_10"/><path clip-path="url(#pb230347fc9)" d="M82.6 16091.8h3.7V115.2h-3.7z" fill="#4c72b0" id="patch_11"/><path clip-path="url(#pb230347fc9)" d="M86.3 16091.8H90V119.7h-3.7z" fill="#4c72b0" id="patch_12"/><path clip-path="url(#pb230347fc9)" d="M90 16091.8h3.7V116.5H90z" fill="#4c72b0" id="patch_13"/><path clip-path="url(#pb230347fc9)" d="M93.7 16091.8h3.6V120.3h-3.6z" fill="#4c72b0" id="patch_14"/><path clip-path="url(#pb230347fc9)" d="M97.3 16091.8h3.7V114.3h-3.7z" fill="#4c72b0" id="patch_15"/><path clip-path="url(#pb230347fc9)" d="M101 16091.8h3.7V118.2H101z" fill="#4c72b0" id="patch_16"/><path clip-path="url(#pb230347fc9)" d="M104.7 16091.8h3.7V123.4h-3.7z" fill="#4c72b0" id="patch_17"/><path clip-path="url(#pb230347fc9)" d="M108.4 16091.8h3.7V110.7h-3.7z" fill="#4c72b0" id="patch_18"/><path clip-path="url(#pb230347fc9)" d="M112.1 16091.8h3.7V110.1H112z" fill="#4c72b0" id="patch_19"/><path clip-path="url(#pb230347fc9)" d="M115.8 16091.8h3.7V125.8h-3.7z" fill="#4c72b0" id="patch_20"/><path clip-path="url(#pb230347fc9)" d="M119.5 16091.8h3.7V114.3h-3.7z" fill="#4c72b0" id="patch_21"/><path clip-path="url(#pb230347fc9)" d="M123.2 16091.8h3.7V92.6h-3.7z" fill="#4c72b0" id="patch_22"/><path clip-path="url(#pb230347fc9)" d="M126.9 16091.8h3.7V121.7h-3.7z" fill="#4c72b0" id="patch_23"/><path clip-path="url(#pb230347fc9)" d="M130.6 16091.8h3.6V122.5h-3.6z" fill="#4c72b0" id="patch_24"/><path clip-path="url(#pb230347fc9)" d="M134.2 16091.8h3.7V113.6h-3.7z" fill="#4c72b0" id="patch_25"/><path clip-path="url(#pb230347fc9)" d="M138 16091.8h3.6V112.5H138z" fill="#4c72b0" id="patch_26"/><path clip-path="url(#pb230347fc9)" d="M141.6 16091.8h3.7V13.4h-3.7z" fill="#4c72b0" id="patch_27"/><path clip-path="url(#pb230347fc9)" d="M145.3 16091.8h3.7V66.3h-3.7z" fill="#4c72b0" id="patch_28"/><path clip-path="url(#pb230347fc9)" d="M149 16091.8h3.7V124.5H149z" fill="#4c72b0" id="patch_29"/><path clip-path="url(#pb230347fc9)" d="M152.7 16091.8h3.7V113.6h-3.7z" fill="#4c72b0" id="patch_30"/><path clip-path="url(#pb230347fc9)" d="M156.4 16091.8h3.7V117.8h-3.7z" fill="#4c72b0" id="patch_31"/><path clip-path="url(#pb230347fc9)" d="M160 16091.8h3.8-3.7z" fill="#4c72b0" id="patch_32"/><path clip-path="url(#pb230347fc9)" d="M163.8 16091.8h3.6V113.1h-3.6z" fill="#4c72b0" id="patch_33"/><path clip-path="url(#pb230347fc9)" d="M167.4 16091.8h3.7V137h-3.7z" fill="#4c72b0" id="patch_34"/><path clip-path="url(#pb230347fc9)" d="M171.1 16091.8h3.7V137h-3.7z" fill="#4c72b0" id="patch_35"/><path clip-path="url(#pb230347fc9)" d="M174.8 16091.8h3.7V121h-3.7z" fill="#4c72b0" id="patch_36"/><path clip-path="url(#pb230347fc9)" d="M178.5 16091.8h3.7V121.7h-3.7z" fill="#4c72b0" id="patch_37"/><path clip-path="url(#pb230347fc9)" d="M182.2 16091.8h3.7V127.3h-3.7z" fill="#4c72b0" id="patch_38"/><path clip-path="url(#pb230347fc9)" d="M185.9 16091.8h3.7V122.5h-3.7z" fill="#4c72b0" id="patch_39"/><path clip-path="url(#pb230347fc9)" d="M189.6 16091.8h3.7V115.2h-3.7z" fill="#4c72b0" id="patch_40"/><path clip-path="url(#pb230347fc9)" d="M193.3 16091.8h3.7-3.7z" fill="#4c72b0" id="patch_41"/><path clip-path="url(#pb230347fc9)" d="M197 16091.8h3.6V121H197z" fill="#4c72b0" id="patch_42"/><path clip-path="url(#pb230347fc9)" d="M200.6 16091.8h3.7V112h-3.7z" fill="#4c72b0" id="patch_43"/><path clip-path="url(#pb230347fc9)" d="M204.3 16091.8h3.7V132.1h-3.7z" fill="#4c72b0" id="patch_44"/><path clip-path="url(#pb230347fc9)" d="M208 16091.8h3.7V114.3H208z" fill="#4c72b0" id="patch_45"/><path clip-path="url(#pb230347fc9)" d="M211.7 16091.8h3.7V116.5h-3.7z" fill="#4c72b0" id="patch_46"/><path clip-path="url(#pb230347fc9)" d="M215.4 16091.8h3.7-3.7z" fill="#4c72b0" id="patch_47"/><path clip-path="url(#pb230347fc9)" d="M219 16091.8h3.8V116.2H219z" fill="#4c72b0" id="patch_48"/><path clip-path="url(#pb230347fc9)" d="M222.8 16091.8h3.7V137h-3.7z" fill="#4c72b0" id="patch_49"/><path clip-path="url(#pb230347fc9)" d="M226.5 16091.8h3.7V123.4h-3.7z" fill="#4c72b0" id="patch_50"/><path clip-path="url(#pb230347fc9)" d="M230.2 16091.8h3.7V129.3h-3.7z" fill="#4c72b0" id="patch_51"/><path clip-path="url(#pb230347fc9)" d="M233.9 16091.8h3.6V117.8H234z" fill="#4c72b0" id="patch_52"/><path clip-path="url(#pb230347fc9)" d="M143.1 143.1V7.2" fill="none" stroke="#000" stroke-dasharray="6.475,2.8" stroke-width="1.8" id="line2d_15"/><path d="M43.9 143.1V7.2" fill="none" id="patch_53"/><path d="M246.8 143.1V7.2" fill="none" id="patch_54"/><path d="M43.9 143.1h202.9" fill="none" id="patch_55"/><path d="M43.9 7.2h202.9" fill="none" id="patch_56"/></g><g id="axes_2"><path d="M287.3 143.1h203V7.2h-203z" fill="#eaeaf2" id="patch_57"/><g id="matplotlib.axis_3"><g id="xtick_4"><path clip-path="url(#pcfcc6c23f9)" d="M336.5 143.1V7.2" fill="none" stroke="#fff" stroke-linecap="round" id="line2d_16"/><g transform="matrix(.1 0 0 -.1 322.4 157.3)" fill="#262626" id="text_9"><use xlink:href="#LiberationSans-2212"/><use x="58.4" xlink:href="#LiberationSans-32"/><use x="114" xlink:href="#LiberationSans-30"/><use x="169.6" xlink:href="#LiberationSans-30"/><use x="225.2" xlink:href="#LiberationSans-30"/></g></g><g id="xtick_5"><path clip-path="url(#pcfcc6c23f9)" d="M390 143.1V7.2" fill="none" stroke="#fff" stroke-linecap="round" id="line2d_18"/><use xlink:href="#LiberationSans-30" transform="matrix(.1 0 0 -.1 387.1 157.3)" fill="#262626" id="text_10"/></g><g id="xtick_6"><path clip-path="url(#pcfcc6c23f9)" d="M443.4 143.1V7.2" fill="none" stroke="#fff" stroke-linecap="round" id="line2d_20"/><g transform="matrix(.1 0 0 -.1 432.3 157.3)" fill="#262626" id="text_11"><use xlink:href="#LiberationSans-32"/><use x="55.6" xlink:href="#LiberationSans-30"/><use x="111.2" xlink:href="#LiberationSans-30"/><use x="166.8" xlink:href="#LiberationSans-30"/></g></g></g><g id="matplotlib.axis_4"><g id="ytick_5"><path clip-path="url(#pcfcc6c23f9)" d="M287.3 121h203" fill="none" stroke="#fff" stroke-linecap="round" id="line2d_22"/><g transform="matrix(.1 0 0 -.1 265 124.6)" fill="#262626" id="text_12"><use transform="translate(0 .9)" xlink:href="#LiberationSans-31"/><use transform="translate(55.6 .9)" xlink:href="#LiberationSans-30"/><use transform="matrix(.7 0 0 .7 112.2 37.8)" xlink:href="#LiberationSans-31"/></g></g><g id="ytick_6"><path clip-path="url(#pcfcc6c23f9)" d="M287.3 89h203" fill="none" stroke="#fff" stroke-linecap="round" id="line2d_24"/><g transform="matrix(.1 0 0 -.1 265 92.7)" fill="#262626" id="text_13"><use transform="translate(0 .1)" xlink:href="#LiberationSans-31"/><use transform="translate(55.6 .1)" xlink:href="#LiberationSans-30"/><use transform="matrix(.7 0 0 .7 112.2 37.1)" xlink:href="#LiberationSans-33"/></g></g><g id="ytick_7"><path clip-path="url(#pcfcc6c23f9)" d="M287.3 57.1h203" fill="none" stroke="#fff" stroke-linecap="round" id="line2d_26"/><g transform="matrix(.1 0 0 -.1 265 60.8)" fill="#262626" id="text_14"><use transform="translate(0 .9)" xlink:href="#LiberationSans-31"/><use transform="translate(55.6 .9)" xlink:href="#LiberationSans-30"/><use transform="matrix(.7 0 0 .7 112.2 37.8)" xlink:href="#LiberationSans-35"/></g></g><g id="ytick_8"><path clip-path="url(#pcfcc6c23f9)" d="M287.3 25.2h203" fill="none" stroke="#fff" stroke-linecap="round" id="line2d_28"/><g transform="matrix(.1 0 0 -.1 265 28.9)" fill="#262626" id="text_15"><use transform="translate(0 .9)" xlink:href="#LiberationSans-31"/><use transform="translate(55.6 .9)" xlink:href="#LiberationSans-30"/><use transform="matrix(.7 0 0 .7 112.2 37.8)" xlink:href="#LiberationSans-37"/></g></g></g><path clip-path="url(#pcfcc6c23f9)" d="M296.6 16091.8h3.7V115.2h-3.7z" fill="#4c72b0" id="patch_58"/><path clip-path="url(#pcfcc6c23f9)" d="M300.3 16091.8h3.6V123.4h-3.6z" fill="#4c72b0" id="patch_59"/><path clip-path="url(#pcfcc6c23f9)" d="M304 16091.8h3.6V114.3H304z" fill="#4c72b0" id="patch_60"/><path clip-path="url(#pcfcc6c23f9)" d="M307.6 16091.8h3.7V127.3h-3.7z" fill="#4c72b0" id="patch_61"/><path clip-path="url(#pcfcc6c23f9)" d="M311.3 16091.8h3.7V116.8h-3.7z" fill="#4c72b0" id="patch_62"/><path clip-path="url(#pcfcc6c23f9)" d="M315 16091.8h3.7-3.7z" fill="#4c72b0" id="patch_63"/><path clip-path="url(#pcfcc6c23f9)" d="M318.7 16091.8h3.7V115.2h-3.7z" fill="#4c72b0" id="patch_64"/><path clip-path="url(#pcfcc6c23f9)" d="M322.4 16091.8h3.7V113.4h-3.7z" fill="#4c72b0" id="patch_65"/><path clip-path="url(#pcfcc6c23f9)" d="M326 16091.8h3.8-3.7z" fill="#4c72b0" id="patch_66"/><path clip-path="url(#pcfcc6c23f9)" d="M329.8 16091.8h3.7V112.7h-3.7z" fill="#4c72b0" id="patch_67"/><path clip-path="url(#pcfcc6c23f9)" d="M333.5 16091.8h3.6V118.6h-3.6z" fill="#4c72b0" id="patch_68"/><path clip-path="url(#pcfcc6c23f9)" d="M337.1 16091.8h3.7-3.7z" fill="#4c72b0" id="patch_69"/><path clip-path="url(#pcfcc6c23f9)" d="M340.8 16091.8h3.7V115h-3.7z" fill="#4c72b0" id="patch_70"/><path clip-path="url(#pcfcc6c23f9)" d="M344.5 16091.8h3.7V132.1h-3.7z" fill="#4c72b0" id="patch_71"/><path clip-path="url(#pcfcc6c23f9)" d="M348.2 16091.8h3.7V137h-3.7z" fill="#4c72b0" id="patch_72"/><path clip-path="url(#pcfcc6c23f9)" d="M352 16091.8h3.6V123.4h-3.7z" fill="#4c72b0" id="patch_73"/><path clip-path="url(#pcfcc6c23f9)" d="M355.6 16091.8h3.7V115.8h-3.7z" fill="#4c72b0" id="patch_74"/><path clip-path="url(#pcfcc6c23f9)" d="M359.3 16091.8h3.7V137h-3.7z" fill="#4c72b0" id="patch_75"/><path clip-path="url(#pcfcc6c23f9)" d="M363 16091.8h3.7V125.8H363z" fill="#4c72b0" id="patch_76"/><path clip-path="url(#pcfcc6c23f9)" d="M366.7 16091.8h3.7V112.3h-3.7z" fill="#4c72b0" id="patch_77"/><path clip-path="url(#pcfcc6c23f9)" d="M370.4 16091.8h3.6-3.6z" fill="#4c72b0" id="patch_78"/><path clip-path="url(#pcfcc6c23f9)" d="M374 16091.8h3.7V118.6H374z" fill="#4c72b0" id="patch_79"/><path clip-path="url(#pcfcc6c23f9)" d="M377.7 16091.8h3.7V113.1h-3.7z" fill="#4c72b0" id="patch_80"/><path clip-path="url(#pcfcc6c23f9)" d="M381.4 16091.8h3.7V119.7h-3.7z" fill="#4c72b0" id="patch_81"/><path clip-path="url(#pcfcc6c23f9)" d="M385.1 16091.8h3.7V66.3h-3.7z" fill="#4c72b0" id="patch_82"/><path clip-path="url(#pcfcc6c23f9)" d="M388.8 16091.8h3.7V13.4h-3.7z" fill="#4c72b0" id="patch_83"/><path clip-path="url(#pcfcc6c23f9)" d="M392.5 16091.8h3.7V120.3h-3.7z" fill="#4c72b0" id="patch_84"/><path clip-path="url(#pcfcc6c23f9)" d="M396.2 16091.8h3.7V116.5h-3.7z" fill="#4c72b0" id="patch_85"/><path clip-path="url(#pcfcc6c23f9)" d="M399.9 16091.8h3.7V96.8h-3.7z" fill="#4c72b0" id="patch_86"/><path clip-path="url(#pcfcc6c23f9)" d="M403.6 16091.8h3.6V123.4h-3.6z" fill="#4c72b0" id="patch_87"/><path clip-path="url(#pcfcc6c23f9)" d="M407.2 16091.8h3.7V125.8h-3.7z" fill="#4c72b0" id="patch_88"/><path clip-path="url(#pcfcc6c23f9)" d="M411 16091.8h3.6V113H411z" fill="#4c72b0" id="patch_89"/><path clip-path="url(#pcfcc6c23f9)" d="M414.6 16091.8h3.7V127.3h-3.7z" fill="#4c72b0" id="patch_90"/><path clip-path="url(#pcfcc6c23f9)" d="M418.3 16091.8h3.7V132.1h-3.7z" fill="#4c72b0" id="patch_91"/><path clip-path="url(#pcfcc6c23f9)" d="M422 16091.8h3.7V110.7H422z" fill="#4c72b0" id="patch_92"/><path clip-path="url(#pcfcc6c23f9)" d="M425.7 16091.8h3.7V137h-3.7z" fill="#4c72b0" id="patch_93"/><path clip-path="url(#pcfcc6c23f9)" d="M429.4 16091.8h3.7V118.6h-3.7z" fill="#4c72b0" id="patch_94"/><path clip-path="url(#pcfcc6c23f9)" d="M433 16091.8h3.8V113.8H433z" fill="#4c72b0" id="patch_95"/><path clip-path="url(#pcfcc6c23f9)" d="M436.8 16091.8h3.6V132.1h-3.6z" fill="#4c72b0" id="patch_96"/><path clip-path="url(#pcfcc6c23f9)" d="M440.4 16091.8h3.7V112.3h-3.7z" fill="#4c72b0" id="patch_97"/><path clip-path="url(#pcfcc6c23f9)" d="M444.1 16091.8h3.7V121.7h-3.7z" fill="#4c72b0" id="patch_98"/><path clip-path="url(#pcfcc6c23f9)" d="M447.8 16091.8h3.7V119.1h-3.7z" fill="#4c72b0" id="patch_99"/><path clip-path="url(#pcfcc6c23f9)" d="M451.5 16091.8h3.7V124.5h-3.7z" fill="#4c72b0" id="patch_100"/><path clip-path="url(#pcfcc6c23f9)" d="M455.2 16091.8h3.7V121h-3.7z" fill="#4c72b0" id="patch_101"/><path clip-path="url(#pcfcc6c23f9)" d="M458.9 16091.8h3.7V119.1h-3.7z" fill="#4c72b0" id="patch_102"/><path clip-path="url(#pcfcc6c23f9)" d="M462.6 16091.8h3.7-3.7z" fill="#4c72b0" id="patch_103"/><path clip-path="url(#pcfcc6c23f9)" d="M466.3 16091.8h3.7V112.1h-3.7z" fill="#4c72b0" id="patch_104"/><path clip-path="url(#pcfcc6c23f9)" d="M470 16091.8h3.7V123.4H470z" fill="#4c72b0" id="patch_105"/><path clip-path="url(#pcfcc6c23f9)" d="M473.7 16091.8h3.6V124.5h-3.6z" fill="#4c72b0" id="patch_106"/><path clip-path="url(#pcfcc6c23f9)" d="M477.3 16091.8h3.7V111.4h-3.7z" fill="#4c72b0" id="patch_107"/><path clip-path="url(#pcfcc6c23f9)" d="M391 143.1V7.2" fill="none" stroke="#000" stroke-dasharray="6.475,2.8" stroke-width="1.8" id="line2d_30"/><path d="M287.3 143.1V7.2" fill="none" id="patch_108"/><path d="M490.3 143.1V7.2" fill="none" id="patch_109"/><path d="M287.3 143.1h203" fill="none" id="patch_110"/><path d="M287.3 7.2h203" fill="none" id="patch_111"/></g><g id="axes_3"><path d="M43.9 306.2h202.9v-136h-203z" fill="#eaeaf2" id="patch_112"/><g id="matplotlib.axis_5"><g id="xtick_7"><path clip-path="url(#pe9da06d1bf)" d="M91.6 306.2v-136" fill="none" stroke="#fff" stroke-linecap="round" id="line2d_31"/><g transform="matrix(.1 0 0 -.1 77.6 320.4)" fill="#262626" id="text_16"><use xlink:href="#LiberationSans-2212"/><use x="58.4" xlink:href="#LiberationSans-32"/><use x="114" xlink:href="#LiberationSans-30"/><use x="169.6" xlink:href="#LiberationSans-30"/><use x="225.2" xlink:href="#LiberationSans-30"/></g></g><g id="xtick_8"><path clip-path="url(#pe9da06d1bf)" d="M145.1 306.2v-136" fill="none" stroke="#fff" stroke-linecap="round" id="line2d_33"/><use xlink:href="#LiberationSans-30" transform="matrix(.1 0 0 -.1 142.3 320.4)" fill="#262626" id="text_17"/></g><g id="xtick_9"><path clip-path="url(#pe9da06d1bf)" d="M198.6 306.2v-136" fill="none" stroke="#fff" stroke-linecap="round" id="line2d_35"/><g transform="matrix(.1 0 0 -.1 187.4 320.4)" fill="#262626" id="text_18"><use xlink:href="#LiberationSans-32"/><use x="55.6" xlink:href="#LiberationSans-30"/><use x="111.2" xlink:href="#LiberationSans-30"/><use x="166.8" xlink:href="#LiberationSans-30"/></g></g><g id="text_19"><defs><path d="M8.2 0v68.8h9.3V7.6h34.8V0z" id="LiberationSans-4c"/><path d="M51.4 26.5q0-14-6-20.7Q39.1-1 27.5-1 22-1 17.7.7q-4.3 1.6-7.3 5-3 3.5-4.6 8.6-1.6 5.2-1.6 12.2 0 27.3 23.7 27.3 6.1 0 10.6-1.7t7.3-5.1q2.9-3.4 4.2-8.6 1.4-5.1 1.4-12zm-9.2 0q0 6.1-1 10.1T38.5 43q-1.9 2.4-4.5 3.4-2.7 1-6 1t-6-1q-2.8-1-4.7-3.5-1.9-2.4-2.9-6.4t-1-10q0-6.2 1.1-10.2 1-4 3-6.4 1.8-2.4 4.4-3.4 2.6-1 5.6-1 3.4 0 6 1 2.8 1 4.7 3.3 2 2.4 3 6.4 1 4.1 1 10.3z" id="LiberationSans-6f"/><path d="M40.3 0v33.5q0 3.9-.6 6.4-.5 2.6-1.8 4.2t-3.4 2.3q-2 .6-5.1.6-3.1 0-5.6-1-2.6-1.2-4.3-3.3-1.8-2-2.8-5-1-3.1-1-7V0H7v48.5l-.2 2.8v1.5h8.2l.1-1.3.2-2.5v-2.8l.1-2.4h.2q1.3 2.3 2.8 4.2 1.5 1.8 3.5 3 2 1.4 4.6 2 2.6.8 6 .8 4.4 0 7.5-1 3.2-1.1 5.3-3.4 2-2.2 3-5.8 1-3.5 1-8.4V0z" id="LiberationSans-6e"/><path d="M26.8-20.8q-4.6 0-8.1 1t-6 2.6q-2.5 1.8-4 4.2Q7-10.6 6.3-7.7l8.8 1.2q1-3.6 4-5.6 3-2 7.8-2 3 0 5.4.9 2.5.8 4.2 2.6 1.7 1.9 2.6 4.8 1 3 1 7.1v8.5H40q-1-2-2.4-3.8-1.4-1.8-3.5-3.3-2-1.4-4.8-2.2-2.7-.9-6.3-.9-5 0-8.6 1.7-3.6 1.7-5.8 5-2.3 3.4-3.3 8.4-1.1 5-1.1 11.6 0 6.4 1 11.4 1.1 5.1 3.5 8.7 2.3 3.5 6.1 5.4 3.8 1.9 9.2 1.9 5.6 0 9.8-2.6 4-2.6 6.3-7.3h.1l.1 2.7q0 1.5.2 2.9l.1 2.3.2 1.1h8.4l-.1-1.5-.1-2.5-.1-3.2V1.5q0-11-5.5-16.7-5.4-5.6-16.6-5.6zM40 26.5q0 5.5-1.2 9.5-1.1 3.9-3.1 6.4-2 2.5-4.5 3.7-2.5 1.1-5.1 1.1-3.4 0-5.8-1.1-2.4-1.2-4-3.7T14 35.8q-.7-4-.7-9.4 0-5.7.7-9.6.8-3.9 2.4-6.3 1.5-2.3 4-3.4 2.3-1 5.6-1 2.7 0 5.2 1.1t4.5 3.6q2 2.4 3.2 6.3 1.2 3.9 1.2 9.3z" id="LiberationSans-67"/><path d="M27 .4l-4-.9q-2-.3-4.8-.3-10.6 0-10.6 12v35.2h-6v6.4H8l2.5 11.9h6V52.8h9.7v-6.4h-9.8V13.1q0-3.8 1.2-5.4Q19 6.2 22 6.2q1.3 0 2.4.2l2.6.5z" id="LiberationSans-74"/><path d="M40 8.5q-2.4-5-6.4-7.3-4-2.2-10-2.2Q13.6-1 9 5.8q-4.7 6.7-4.7 20.4 0 27.6 19.4 27.6 6 0 10-2.2t6.5-7v27.9h8.8V10.9 7.2 4l.2-2.5V0h-8.3l-.2 1.4-.1 2-.2 2.5v2.6zm-26.6 18q0-5.5.7-9.4.7-4 2.2-6.4 1.5-2.5 3.9-3.7 2.3-1.2 5.7-1.2 3.4 0 6.1 1.1 2.7 1.2 4.5 3.7 1.7 2.5 2.7 6.5.9 4 .9 10 0 5.6-1 9.4-.9 4-2.7 6.3-1.8 2.4-4.4 3.5-2.6 1-6 1-3.3 0-5.6-1.1t-3.9-3.6Q14.9 40 14.2 36q-.8-4-.8-9.6z" id="LiberationSans-64"/><path d="M13.5 24.6q0-4.2.8-7.7.9-3.5 2.7-6 1.8-2.5 4.5-3.9 2.8-1.4 6.7-1.4 5.7 0 9.2 2.3 3.4 2.3 4.6 5.8l7.8-2.2q-.9-2.2-2.4-4.4-1.4-2.2-4-4-2.4-1.8-6.2-3-3.7-1-9-1Q16.5-1 10.4 6q-6.2 7-6.2 20.8 0 7.4 1.9 12.5 1.9 5.2 5 8.4 3.3 3.2 7.6 4.7 4.3 1.4 9.2 1.4 6.6 0 11-2.1 4.6-2.2 7.3-6t3.8-8.9q1.2-5.1 1.2-11v-1.2zM42 31.3q-.7 8.4-4.3 12.2-3.5 3.8-10 3.8-2.3 0-4.7-.7-2.4-.7-4.4-2.5-2-1.8-3.5-5-1.4-3-1.6-7.8z" id="LiberationSans-65"/></defs><g transform="matrix(.11 0 0 -.11 121.1 334.5)" fill="#262626"><use xlink:href="#LiberationSans-4c"/><use x="55.6" xlink:href="#LiberationSans-6f"/><use x="111.2" xlink:href="#LiberationSans-6e"/><use x="166.8" xlink:href="#LiberationSans-67"/><use x="222.5" xlink:href="#LiberationSans-69"/><use x="244.7" xlink:href="#LiberationSans-74"/><use x="272.5" xlink:href="#LiberationSans-75"/><use x="328.1" xlink:href="#LiberationSans-64"/><use x="383.7" xlink:href="#LiberationSans-65"/></g></g></g><g id="matplotlib.axis_6"><g id="ytick_9"><path clip-path="url(#pe9da06d1bf)" d="M43.9 284h202.9" fill="none" stroke="#fff" stroke-linecap="round" id="line2d_37"/><g transform="matrix(.1 0 0 -.1 21.5 287.7)" fill="#262626" id="text_20"><use transform="translate(0 .9)" xlink:href="#LiberationSans-31"/><use transform="translate(55.6 .9)" xlink:href="#LiberationSans-30"/><use transform="matrix(.7 0 0 .7 112.2 37.8)" xlink:href="#LiberationSans-31"/></g></g><g id="ytick_10"><path clip-path="url(#pe9da06d1bf)" d="M43.9 252.1h202.9" fill="none" stroke="#fff" stroke-linecap="round" id="line2d_39"/><g transform="matrix(.1 0 0 -.1 21.5 255.8)" fill="#262626" id="text_21"><use transform="translate(0 .1)" xlink:href="#LiberationSans-31"/><use transform="translate(55.6 .1)" xlink:href="#LiberationSans-30"/><use transform="matrix(.7 0 0 .7 112.2 37.1)" xlink:href="#LiberationSans-33"/></g></g><g id="ytick_11"><path clip-path="url(#pe9da06d1bf)" d="M43.9 220.2h202.9" fill="none" stroke="#fff" stroke-linecap="round" id="line2d_41"/><g transform="matrix(.1 0 0 -.1 21.5 223.9)" fill="#262626" id="text_22"><use transform="translate(0 .9)" xlink:href="#LiberationSans-31"/><use transform="translate(55.6 .9)" xlink:href="#LiberationSans-30"/><use transform="matrix(.7 0 0 .7 112.2 37.8)" xlink:href="#LiberationSans-35"/></g></g><g id="ytick_12"><path clip-path="url(#pe9da06d1bf)" d="M43.9 188.3h202.9" fill="none" stroke="#fff" stroke-linecap="round" id="line2d_43"/><g transform="matrix(.1 0 0 -.1 21.5 192)" fill="#262626" id="text_23"><use transform="translate(0 .9)" xlink:href="#LiberationSans-31"/><use transform="translate(55.6 .9)" xlink:href="#LiberationSans-30"/><use transform="matrix(.7 0 0 .7 112.2 37.8)" xlink:href="#LiberationSans-37"/></g></g><g id="text_24"><defs><path d="M67.4 35.1q0-8.6-2.6-15.2-2.5-6.5-7-11Q53.3 4.6 47 2.4 41.1 0 34 0H8.2v68.8H31q8 0 14.6-2 6.7-2 11.6-6 4.8-4.2 7.5-10.6 2.7-6.3 2.7-15zm-9.3 0q0 7-2 12-2 4.9-5.7 8-3.6 3.2-8.6 4.7t-11 1.5H17.5V7.5H33q5.4 0 10 1.7 4.6 1.8 8 5.3 3.4 3.4 5.3 8.6Q58 28.3 58 35z" id="LiberationSans-44"/><path d="M7 0v43.9l-.2 3.4v3l-.2 2.5H15l.2-2.5.1-3 .1-2.9V42h.2q1 3 2 5.3 1 2.2 2.5 3.7 1.4 1.4 3.3 2 2 .8 4.8.8l2-.2 1.5-.3v-8l-2 .3-2.6.1q-3 0-5.2-1.3-2.1-1.4-3.5-3.8-1.3-2.4-2-5.8-.6-3.3-.6-7.3V0z" id="LiberationSans-72"/><path d="M17.6 46.4V0H8.8v46.4H1.4v6.4h7.4v6q0 2.9.6 5.3.5 2.5 2 4.3 1.4 1.9 3.9 3 2.5 1 6.4 1l3.3-.2q1.7-.1 3-.4V65l-2 .3h-2q-2 0-3.2-.5-1.2-.5-2-1.5-.6-1-1-2.5-.2-1.4-.2-3.3v-4.8H28v-6.4z" id="LiberationSans-66"/></defs><g transform="matrix(0 -.11 -.11 0 15.2 256.3)" fill="#262626"><use xlink:href="#LiberationSans-44"/><use x="72.2" xlink:href="#LiberationSans-72"/><use x="105.5" xlink:href="#LiberationSans-6f"/><use x="161.1" xlink:href="#LiberationSans-70"/><use x="216.7" xlink:href="#LiberationSans-6f"/><use x="272.4" xlink:href="#LiberationSans-66"/><use x="300.1" xlink:href="#LiberationSans-66"/></g></g></g><path clip-path="url(#pe9da06d1bf)" d="M53 16254.9h3.8V273H53z" fill="#4c72b0" id="patch_113"/><path clip-path="url(#pe9da06d1bf)" d="M56.8 16254.9h3.7-3.7z" fill="#4c72b0" id="patch_114"/><path clip-path="url(#pe9da06d1bf)" d="M60.5 16254.9H64V286.5h-3.6z" fill="#4c72b0" id="patch_115"/><path clip-path="url(#pe9da06d1bf)" d="M64.1 16254.9h3.7V276.7h-3.7z" fill="#4c72b0" id="patch_116"/><path clip-path="url(#pe9da06d1bf)" d="M67.8 16254.9h3.7V300h-3.7z" fill="#4c72b0" id="patch_117"/><path clip-path="url(#pe9da06d1bf)" d="M71.5 16254.9h3.7V282.2h-3.7z" fill="#4c72b0" id="patch_118"/><path clip-path="url(#pe9da06d1bf)" d="M75.2 16254.9H79V283.4h-3.7z" fill="#4c72b0" id="patch_119"/><path clip-path="url(#pe9da06d1bf)" d="M78.9 16254.9h3.7V288.9h-3.7z" fill="#4c72b0" id="patch_120"/><path clip-path="url(#pe9da06d1bf)" d="M82.6 16254.9h3.7V279.6h-3.7z" fill="#4c72b0" id="patch_121"/><path clip-path="url(#pe9da06d1bf)" d="M86.3 16254.9H90V283.4h-3.7z" fill="#4c72b0" id="patch_122"/><path clip-path="url(#pe9da06d1bf)" d="M90 16254.9h3.7V278.6H90z" fill="#4c72b0" id="patch_123"/><path clip-path="url(#pe9da06d1bf)" d="M93.7 16254.9h3.6V287.6h-3.6z" fill="#4c72b0" id="patch_124"/><path clip-path="url(#pe9da06d1bf)" d="M97.3 16254.9h3.7V278.9h-3.7z" fill="#4c72b0" id="patch_125"/><path clip-path="url(#pe9da06d1bf)" d="M101 16254.9h3.7V282.2H101z" fill="#4c72b0" id="patch_126"/><path clip-path="url(#pe9da06d1bf)" d="M104.7 16254.9h3.7V286.5h-3.7z" fill="#4c72b0" id="patch_127"/><path clip-path="url(#pe9da06d1bf)" d="M108.4 16254.9h3.7V273.8h-3.7z" fill="#4c72b0" id="patch_128"/><path clip-path="url(#pe9da06d1bf)" d="M112.1 16254.9h3.7V272.6H112z" fill="#4c72b0" id="patch_129"/><path clip-path="url(#pe9da06d1bf)" d="M115.8 16254.9h3.7V292.4h-3.7z" fill="#4c72b0" id="patch_130"/><path clip-path="url(#pe9da06d1bf)" d="M119.5 16254.9h3.7V277.4h-3.7z" fill="#4c72b0" id="patch_131"/><path clip-path="url(#pe9da06d1bf)" d="M123.2 16254.9h3.7V257h-3.7z" fill="#4c72b0" id="patch_132"/><path clip-path="url(#pe9da06d1bf)" d="M126.9 16254.9h3.7V280.8h-3.7z" fill="#4c72b0" id="patch_133"/><path clip-path="url(#pe9da06d1bf)" d="M130.6 16254.9h3.6V287.6h-3.6z" fill="#4c72b0" id="patch_134"/><path clip-path="url(#pe9da06d1bf)" d="M134.2 16254.9h3.7V275.6h-3.7z" fill="#4c72b0" id="patch_135"/><path clip-path="url(#pe9da06d1bf)" d="M138 16254.9h3.6V275.9H138z" fill="#4c72b0" id="patch_136"/><path clip-path="url(#pe9da06d1bf)" d="M141.6 16254.9h3.7V176.5h-3.7z" fill="#4c72b0" id="patch_137"/><path clip-path="url(#pe9da06d1bf)" d="M145.3 16254.9h3.7V229.4h-3.7z" fill="#4c72b0" id="patch_138"/><path clip-path="url(#pe9da06d1bf)" d="M149 16254.9h3.7V287.6H149z" fill="#4c72b0" id="patch_139"/><path clip-path="url(#pe9da06d1bf)" d="M152.7 16254.9h3.7V275.9h-3.7z" fill="#4c72b0" id="patch_140"/><path clip-path="url(#pe9da06d1bf)" d="M156.4 16254.9h3.7V278.9h-3.7z" fill="#4c72b0" id="patch_141"/><path clip-path="url(#pe9da06d1bf)" d="M160 16254.9h3.8V300H160z" fill="#4c72b0" id="patch_142"/><path clip-path="url(#pe9da06d1bf)" d="M163.8 16254.9h3.6V277.9h-3.6z" fill="#4c72b0" id="patch_143"/><path clip-path="url(#pe9da06d1bf)" d="M167.4 16254.9h3.7V290.4h-3.7z" fill="#4c72b0" id="patch_144"/><path clip-path="url(#pe9da06d1bf)" d="M171.1 16254.9h3.7-3.7z" fill="#4c72b0" id="patch_145"/><path clip-path="url(#pe9da06d1bf)" d="M174.8 16254.9h3.7V279.6h-3.7z" fill="#4c72b0" id="patch_146"/><path clip-path="url(#pe9da06d1bf)" d="M178.5 16254.9h3.7V284.8h-3.7z" fill="#4c72b0" id="patch_147"/><path clip-path="url(#pe9da06d1bf)" d="M182.2 16254.9h3.7V300h-3.7z" fill="#4c72b0" id="patch_148"/><path clip-path="url(#pe9da06d1bf)" d="M185.9 16254.9h3.7V287.6h-3.7z" fill="#4c72b0" id="patch_149"/><path clip-path="url(#pe9da06d1bf)" d="M189.6 16254.9h3.7V279.6h-3.7z" fill="#4c72b0" id="patch_150"/><path clip-path="url(#pe9da06d1bf)" d="M193.3 16254.9h3.7-3.7z" fill="#4c72b0" id="patch_151"/><path clip-path="url(#pe9da06d1bf)" d="M197 16254.9h3.6V280.8H197z" fill="#4c72b0" id="patch_152"/><path clip-path="url(#pe9da06d1bf)" d="M200.6 16254.9h3.7V275.9h-3.7z" fill="#4c72b0" id="patch_153"/><path clip-path="url(#pe9da06d1bf)" d="M204.3 16254.9h3.7-3.7z" fill="#4c72b0" id="patch_154"/><path clip-path="url(#pe9da06d1bf)" d="M208 16254.9h3.7V277.9H208z" fill="#4c72b0" id="patch_155"/><path clip-path="url(#pe9da06d1bf)" d="M211.7 16254.9h3.7V277.9h-3.7z" fill="#4c72b0" id="patch_156"/><path clip-path="url(#pe9da06d1bf)" d="M215.4 16254.9h3.7-3.7z" fill="#4c72b0" id="patch_157"/><path clip-path="url(#pe9da06d1bf)" d="M219 16254.9h3.8V279.2H219z" fill="#4c72b0" id="patch_158"/><path clip-path="url(#pe9da06d1bf)" d="M222.8 16254.9h3.7V300h-3.7z" fill="#4c72b0" id="patch_159"/><path clip-path="url(#pe9da06d1bf)" d="M226.5 16254.9h3.7V285.6h-3.7z" fill="#4c72b0" id="patch_160"/><path clip-path="url(#pe9da06d1bf)" d="M230.2 16254.9h3.7V295.2h-3.7z" fill="#4c72b0" id="patch_161"/><path clip-path="url(#pe9da06d1bf)" d="M233.9 16254.9h3.6V277.9H234z" fill="#4c72b0" id="patch_162"/><path clip-path="url(#pe9da06d1bf)" d="M143.1 306.2v-136" fill="none" stroke="#000" stroke-dasharray="6.475,2.8" stroke-width="1.8" id="line2d_45"/><path d="M43.9 306.2v-136" fill="none" id="patch_163"/><path d="M246.8 306.2v-136" fill="none" id="patch_164"/><path d="M43.9 306.2h202.9" fill="none" id="patch_165"/><path d="M43.9 170.3h202.9" fill="none" id="patch_166"/></g><g id="axes_4"><path d="M287.3 306.2h203v-136h-203z" fill="#eaeaf2" id="patch_167"/><g id="matplotlib.axis_7"><g id="xtick_10"><path clip-path="url(#p2bd5dc239f)" d="M336.9 306.2v-136" fill="none" stroke="#fff" stroke-linecap="round" id="line2d_46"/><g transform="matrix(.1 0 0 -.1 322.8 320.4)" fill="#262626" id="text_25"><use xlink:href="#LiberationSans-2212"/><use x="58.4" xlink:href="#LiberationSans-32"/><use x="114" xlink:href="#LiberationSans-30"/><use x="169.6" xlink:href="#LiberationSans-30"/><use x="225.2" xlink:href="#LiberationSans-30"/></g></g><g id="xtick_11"><path clip-path="url(#p2bd5dc239f)" d="M389 306.2v-136" fill="none" stroke="#fff" stroke-linecap="round" id="line2d_48"/><use xlink:href="#LiberationSans-30" transform="matrix(.1 0 0 -.1 386.2 320.4)" fill="#262626" id="text_26"/></g><g id="xtick_12"><path clip-path="url(#p2bd5dc239f)" d="M441 306.2v-136" fill="none" stroke="#fff" stroke-linecap="round" id="line2d_50"/><g transform="matrix(.1 0 0 -.1 429.9 320.4)" fill="#262626" id="text_27"><use xlink:href="#LiberationSans-32"/><use x="55.6" xlink:href="#LiberationSans-30"/><use x="111.2" xlink:href="#LiberationSans-30"/><use x="166.8" xlink:href="#LiberationSans-30"/></g></g><g id="text_28"><defs><path d="M20.2-1q-8 0-12 4.2t-4 11.6q0 5.2 2 8.5 2 3.4 5.2 5.3t7.3 2.6q4.1.7 8.3.8l12 .2v3q0 3.2-.8 5.5-.7 2.3-2 3.7-1.5 1.4-3.6 2-2.1.7-5 .7-2.6 0-4.6-.4-2-.3-3.6-1.3-1.5-1-2.4-2.6-1-1.6-1.2-4l-9.2.7q.5 3.2 1.8 5.8 1.4 2.6 4 4.5 2.4 1.9 6.2 3 3.8 1 9.2 1 10 0 15-4.6 5-4.5 5-13.2V13.3q0-4 1-6 1-1.9 4-1.9l1.4.1 1.4.3V.3Q54-.1 52.3-.3q-1.6-.2-3.5-.2-2.5 0-4.2.7-1.8.6-3 2-1 1.3-1.7 3.3-.5 2-.7 4.6h-.3q-1.4-2.5-3-4.6-1.8-2-4-3.5Q29.6.6 26.8-.2 23.9-1 20.2-1zm2 6.6q4.2 0 7.4 1.5 3.1 1.6 5.2 4 2 2.4 3 5.2 1.1 2.8 1.1 5.4v4.4l-9.6-.2q-3.2 0-6.1-.5-3-.4-5.1-1.6-2.2-1.2-3.5-3.4-1.3-2.2-1.3-5.8 0-4.3 2.3-6.6 2.3-2.4 6.6-2.4z" id="LiberationSans-61"/></defs><g transform="matrix(.11 0 0 -.11 369.2 334.5)" fill="#262626"><use xlink:href="#LiberationSans-4c"/><use x="55.6" xlink:href="#LiberationSans-61"/><use x="111.2" xlink:href="#LiberationSans-74"/><use x="139" xlink:href="#LiberationSans-69"/><use x="161.2" xlink:href="#LiberationSans-74"/><use x="189" xlink:href="#LiberationSans-75"/><use x="244.6" xlink:href="#LiberationSans-64"/><use x="300.2" xlink:href="#LiberationSans-65"/></g></g></g><g id="matplotlib.axis_8"><g id="ytick_13"><path clip-path="url(#p2bd5dc239f)" d="M287.3 284h203" fill="none" stroke="#fff" stroke-linecap="round" id="line2d_52"/><g transform="matrix(.1 0 0 -.1 265 287.7)" fill="#262626" id="text_29"><use transform="translate(0 .9)" xlink:href="#LiberationSans-31"/><use transform="translate(55.6 .9)" xlink:href="#LiberationSans-30"/><use transform="matrix(.7 0 0 .7 112.2 37.8)" xlink:href="#LiberationSans-31"/></g></g><g id="ytick_14"><path clip-path="url(#p2bd5dc239f)" d="M287.3 252.1h203" fill="none" stroke="#fff" stroke-linecap="round" id="line2d_54"/><g transform="matrix(.1 0 0 -.1 265 255.8)" fill="#262626" id="text_30"><use transform="translate(0 .1)" xlink:href="#LiberationSans-31"/><use transform="translate(55.6 .1)" xlink:href="#LiberationSans-30"/><use transform="matrix(.7 0 0 .7 112.2 37.1)" xlink:href="#LiberationSans-33"/></g></g><g id="ytick_15"><path clip-path="url(#p2bd5dc239f)" d="M287.3 220.2h203" fill="none" stroke="#fff" stroke-linecap="round" id="line2d_56"/><g transform="matrix(.1 0 0 -.1 265 223.9)" fill="#262626" id="text_31"><use transform="translate(0 .9)" xlink:href="#LiberationSans-31"/><use transform="translate(55.6 .9)" xlink:href="#LiberationSans-30"/><use transform="matrix(.7 0 0 .7 112.2 37.8)" xlink:href="#LiberationSans-35"/></g></g><g id="ytick_16"><path clip-path="url(#p2bd5dc239f)" d="M287.3 188.3h203" fill="none" stroke="#fff" stroke-linecap="round" id="line2d_58"/><g transform="matrix(.1 0 0 -.1 265 192)" fill="#262626" id="text_32"><use transform="translate(0 .9)" xlink:href="#LiberationSans-31"/><use transform="translate(55.6 .9)" xlink:href="#LiberationSans-30"/><use transform="matrix(.7 0 0 .7 112.2 37.8)" xlink:href="#LiberationSans-37"/></g></g></g><path clip-path="url(#p2bd5dc239f)" d="M296.6 16254.9h3.7V277.9h-3.7z" fill="#4c72b0" id="patch_168"/><path clip-path="url(#p2bd5dc239f)" d="M300.3 16254.9h3.6V290.4h-3.6z" fill="#4c72b0" id="patch_169"/><path clip-path="url(#p2bd5dc239f)" d="M304 16254.9h3.6V288.9H304z" fill="#4c72b0" id="patch_170"/><path clip-path="url(#p2bd5dc239f)" d="M307.6 16254.9h3.7V277.9h-3.7z" fill="#4c72b0" id="patch_171"/><path clip-path="url(#p2bd5dc239f)" d="M311.3 16254.9h3.7V279.6h-3.7z" fill="#4c72b0" id="patch_172"/><path clip-path="url(#p2bd5dc239f)" d="M315 16254.9h3.7-3.7z" fill="#4c72b0" id="patch_173"/><path clip-path="url(#p2bd5dc239f)" d="M318.7 16254.9h3.7V287.6h-3.7z" fill="#4c72b0" id="patch_174"/><path clip-path="url(#p2bd5dc239f)" d="M322.4 16254.9h3.7V272.2h-3.7z" fill="#4c72b0" id="patch_175"/><path clip-path="url(#p2bd5dc239f)" d="M326 16254.9h3.8V300H326z" fill="#4c72b0" id="patch_176"/><path clip-path="url(#p2bd5dc239f)" d="M329.8 16254.9h3.7V276.9h-3.7z" fill="#4c72b0" id="patch_177"/><path clip-path="url(#p2bd5dc239f)" d="M333.5 16254.9h3.6V279.6h-3.6z" fill="#4c72b0" id="patch_178"/><path clip-path="url(#p2bd5dc239f)" d="M337.1 16254.9h3.7-3.7z" fill="#4c72b0" id="patch_179"/><path clip-path="url(#p2bd5dc239f)" d="M340.8 16254.9h3.7V277.7h-3.7z" fill="#4c72b0" id="patch_180"/><path clip-path="url(#p2bd5dc239f)" d="M344.5 16254.9h3.7V290.4h-3.7z" fill="#4c72b0" id="patch_181"/><path clip-path="url(#p2bd5dc239f)" d="M348.2 16254.9h3.7V295.2h-3.7z" fill="#4c72b0" id="patch_182"/><path clip-path="url(#p2bd5dc239f)" d="M352 16254.9h3.6V283.4h-3.7z" fill="#4c72b0" id="patch_183"/><path clip-path="url(#p2bd5dc239f)" d="M355.6 16254.9h3.7V276.2h-3.7z" fill="#4c72b0" id="patch_184"/><path clip-path="url(#p2bd5dc239f)" d="M359.3 16254.9h3.7V300h-3.7z" fill="#4c72b0" id="patch_185"/><path clip-path="url(#p2bd5dc239f)" d="M363 16254.9h3.7V287.6H363z" fill="#4c72b0" id="patch_186"/><path clip-path="url(#p2bd5dc239f)" d="M366.7 16254.9h3.7V276.2h-3.7z" fill="#4c72b0" id="patch_187"/><path clip-path="url(#p2bd5dc239f)" d="M370.4 16254.9h3.6-3.6z" fill="#4c72b0" id="patch_188"/><path clip-path="url(#p2bd5dc239f)" d="M374 16254.9h3.7V277.7H374z" fill="#4c72b0" id="patch_189"/><path clip-path="url(#p2bd5dc239f)" d="M377.7 16254.9h3.7V278.3h-3.7z" fill="#4c72b0" id="patch_190"/><path clip-path="url(#p2bd5dc239f)" d="M381.4 16254.9h3.7V282.8h-3.7z" fill="#4c72b0" id="patch_191"/><path clip-path="url(#p2bd5dc239f)" d="M385.1 16254.9h3.7V229.4h-3.7z" fill="#4c72b0" id="patch_192"/><path clip-path="url(#p2bd5dc239f)" d="M388.8 16254.9h3.7V176.5h-3.7z" fill="#4c72b0" id="patch_193"/><path clip-path="url(#p2bd5dc239f)" d="M392.5 16254.9h3.7V287.6h-3.7z" fill="#4c72b0" id="patch_194"/><path clip-path="url(#p2bd5dc239f)" d="M396.2 16254.9h3.7V261h-3.7z" fill="#4c72b0" id="patch_195"/><path clip-path="url(#p2bd5dc239f)" d="M399.9 16254.9h3.7V270.9h-3.7z" fill="#4c72b0" id="patch_196"/><path clip-path="url(#p2bd5dc239f)" d="M403.6 16254.9h3.6V284.8h-3.6z" fill="#4c72b0" id="patch_197"/><path clip-path="url(#p2bd5dc239f)" d="M407.2 16254.9h3.7V287.6h-3.7z" fill="#4c72b0" id="patch_198"/><path clip-path="url(#p2bd5dc239f)" d="M411 16254.9h3.6V277.7H411z" fill="#4c72b0" id="patch_199"/><path clip-path="url(#p2bd5dc239f)" d="M414.6 16254.9h3.7V300h-3.7z" fill="#4c72b0" id="patch_200"/><path clip-path="url(#p2bd5dc239f)" d="M418.3 16254.9h3.7V280.4h-3.7z" fill="#4c72b0" id="patch_201"/><path clip-path="url(#p2bd5dc239f)" d="M422 16254.9h3.7V280.4H422z" fill="#4c72b0" id="patch_202"/><path clip-path="url(#p2bd5dc239f)" d="M425.7 16254.9h3.7V295.2h-3.7z" fill="#4c72b0" id="patch_203"/><path clip-path="url(#p2bd5dc239f)" d="M429.4 16254.9h3.7V274.3h-3.7z" fill="#4c72b0" id="patch_204"/><path clip-path="url(#p2bd5dc239f)" d="M433 16254.9h3.8V288.9H433z" fill="#4c72b0" id="patch_205"/><path clip-path="url(#p2bd5dc239f)" d="M436.8 16254.9h3.6V278.3h-3.6z" fill="#4c72b0" id="patch_206"/><path clip-path="url(#p2bd5dc239f)" d="M440.4 16254.9h3.7V281.2h-3.7z" fill="#4c72b0" id="patch_207"/><path clip-path="url(#p2bd5dc239f)" d="M444.1 16254.9h3.7V281.7h-3.7z" fill="#4c72b0" id="patch_208"/><path clip-path="url(#p2bd5dc239f)" d="M447.8 16254.9h3.7V290.4h-3.7z" fill="#4c72b0" id="patch_209"/><path clip-path="url(#p2bd5dc239f)" d="M451.5 16254.9h3.7V288.9h-3.7z" fill="#4c72b0" id="patch_210"/><path clip-path="url(#p2bd5dc239f)" d="M455.2 16254.9h3.7V278.6h-3.7z" fill="#4c72b0" id="patch_211"/><path clip-path="url(#p2bd5dc239f)" d="M458.9 16254.9h3.7-3.7z" fill="#4c72b0" id="patch_212"/><path clip-path="url(#p2bd5dc239f)" d="M462.6 16254.9h3.7V277.4h-3.7z" fill="#4c72b0" id="patch_213"/><path clip-path="url(#p2bd5dc239f)" d="M466.3 16254.9h3.7V282.2h-3.7z" fill="#4c72b0" id="patch_214"/><path clip-path="url(#p2bd5dc239f)" d="M470 16254.9h3.7V286.5H470z" fill="#4c72b0" id="patch_215"/><path clip-path="url(#p2bd5dc239f)" d="M473.7 16254.9h3.6V275.6h-3.6z" fill="#4c72b0" id="patch_216"/><path clip-path="url(#p2bd5dc239f)" d="M477.3 16254.9h3.7V292.4h-3.7z" fill="#4c72b0" id="patch_217"/><path clip-path="url(#p2bd5dc239f)" d="M390 306.2v-136" fill="none" stroke="#000" stroke-dasharray="6.475,2.8" stroke-width="1.8" id="line2d_60"/><path d="M287.3 306.2v-136" fill="none" id="patch_218"/><path d="M490.3 306.2v-136" fill="none" id="patch_219"/><path d="M287.3 306.2h203" fill="none" id="patch_220"/><path d="M287.3 170.3h203" fill="none" id="patch_221"/></g></g><defs><clipPath id="pb230347fc9"><path d="M43.9 7.2h202.9v135.9H43.9z"/></clipPath><clipPath id="pcfcc6c23f9"><path d="M287.3 7.2h202.9v135.9H287.3z"/></clipPath><clipPath id="pe9da06d1bf"><path d="M43.9 170.3h202.9v135.9H43.9z"/></clipPath><clipPath id="p2bd5dc239f"><path d="M287.3 170.3h202.9v135.9H287.3z"/></clipPath></defs></svg>