<?xml version="1.0" encoding="utf-8" standalone="no"?>
<!DOCTYPE svg PUBLIC "-//W3C//DTD SVG 1.1//EN"
  "http://www.w3.org/Graphics/SVG/1.1/DTD/svg11.dtd">
<!-- Created with matplotlib (http://matplotlib.org/) -->
<svg height="343pt" version="1.1" viewBox="0 0 497 343" width="497pt" xmlns="http://www.w3.org/2000/svg" xmlns:xlink="http://www.w3.org/1999/xlink">
 <defs>
  <style type="text/css">
*{stroke-linecap:butt;stroke-linejoin:round;}
  </style>
 </defs>
 <g id="figure_1">
  <g id="patch_1">
   <path d="M 0 343.955937 
L 497.454062 343.955937 
L 497.454062 0 
L 0 0 
z
" style="fill:#ffffff;"/>
  </g>
  <g id="axes_1">
   <g id="patch_2">
    <path d="M 43.854063 143.1 
L 246.763153 143.1 
L 246.763153 7.2 
L 43.854063 7.2 
z
" style="fill:#eaeaf2;"/>
   </g>
   <g id="matplotlib.axis_1">
    <g id="xtick_1">
     <g id="line2d_1">
      <path clip-path="url(#pb230347fc9)" d="M 91.630608 143.1 
L 91.630608 7.2 
" style="fill:none;stroke:#ffffff;stroke-linecap:round;"/>
     </g>
     <g id="line2d_2"/>
     <g id="text_1">
      <!-- −2000 -->
      <defs>
       <path d="M 4.9375 29.6875 
L 4.9375 36.8125 
L 53.515625 36.8125 
L 53.515625 29.6875 
z
" id="LiberationSans-2212"/>
       <path d="M 5.03125 0 
L 5.03125 6.203125 
Q 7.515625 11.921875 11.109375 16.28125 
Q 14.703125 20.65625 18.65625 24.1875 
Q 22.609375 27.734375 26.484375 30.765625 
Q 30.375 33.796875 33.5 36.8125 
Q 36.625 39.84375 38.546875 43.15625 
Q 40.484375 46.484375 40.484375 50.6875 
Q 40.484375 53.609375 39.59375 55.828125 
Q 38.71875 58.0625 37.0625 59.5625 
Q 35.40625 61.078125 33.078125 61.828125 
Q 30.765625 62.59375 27.9375 62.59375 
Q 25.296875 62.59375 22.96875 61.859375 
Q 20.65625 61.140625 18.84375 59.671875 
Q 17.046875 58.203125 15.890625 56.03125 
Q 14.75 53.859375 14.40625 50.984375 
L 5.421875 51.8125 
Q 5.859375 55.515625 7.46875 58.78125 
Q 9.078125 62.0625 11.90625 64.53125 
Q 14.75 67 18.71875 68.40625 
Q 22.703125 69.828125 27.9375 69.828125 
Q 33.0625 69.828125 37.0625 68.609375 
Q 41.0625 67.390625 43.8125 64.984375 
Q 46.578125 62.59375 48.046875 59.078125 
Q 49.515625 55.5625 49.515625 50.984375 
Q 49.515625 47.515625 48.265625 44.390625 
Q 47.015625 41.265625 44.9375 38.421875 
Q 42.875 35.59375 40.140625 32.953125 
Q 37.40625 30.328125 34.421875 27.8125 
Q 31.453125 25.296875 28.421875 22.828125 
Q 25.390625 20.359375 22.71875 17.859375 
Q 20.0625 15.375 17.96875 12.8125 
Q 15.875 10.25 14.703125 7.46875 
L 50.59375 7.46875 
L 50.59375 0 
z
" id="LiberationSans-32"/>
       <path d="M 51.703125 34.421875 
Q 51.703125 24.515625 49.828125 17.75 
Q 47.953125 10.984375 44.703125 6.8125 
Q 41.453125 2.640625 37.0625 0.828125 
Q 32.671875 -0.984375 27.6875 -0.984375 
Q 22.65625 -0.984375 18.3125 0.828125 
Q 13.96875 2.640625 10.765625 6.78125 
Q 7.5625 10.9375 5.734375 17.703125 
Q 3.90625 24.46875 3.90625 34.421875 
Q 3.90625 44.828125 5.734375 51.640625 
Q 7.5625 58.453125 10.78125 62.5 
Q 14.015625 66.546875 18.40625 68.1875 
Q 22.796875 69.828125 27.984375 69.828125 
Q 32.90625 69.828125 37.21875 68.1875 
Q 41.546875 66.546875 44.765625 62.5 
Q 48 58.453125 49.84375 51.640625 
Q 51.703125 44.828125 51.703125 34.421875 
z
M 42.78125 34.421875 
Q 42.78125 42.625 41.796875 48.0625 
Q 40.828125 53.515625 38.921875 56.765625 
Q 37.015625 60.015625 34.25 61.359375 
Q 31.5 62.703125 27.984375 62.703125 
Q 24.265625 62.703125 21.4375 61.328125 
Q 18.609375 59.96875 16.671875 56.71875 
Q 14.75 53.46875 13.765625 48.015625 
Q 12.796875 42.578125 12.796875 34.421875 
Q 12.796875 26.515625 13.796875 21.09375 
Q 14.796875 15.671875 16.71875 12.375 
Q 18.65625 9.078125 21.4375 7.640625 
Q 24.21875 6.203125 27.78125 6.203125 
Q 31.25 6.203125 34.03125 7.640625 
Q 36.8125 9.078125 38.734375 12.375 
Q 40.671875 15.671875 41.71875 21.09375 
Q 42.78125 26.515625 42.78125 34.421875 
z
" id="LiberationSans-30"/>
      </defs>
      <g style="fill:#262626;" transform="translate(77.58842 157.346875)scale(0.1 -0.1)">
       <use xlink:href="#LiberationSans-2212"/>
       <use x="58.398438" xlink:href="#LiberationSans-32"/>
       <use x="114.013672" xlink:href="#LiberationSans-30"/>
       <use x="169.628906" xlink:href="#LiberationSans-30"/>
       <use x="225.244141" xlink:href="#LiberationSans-30"/>
      </g>
     </g>
    </g>
    <g id="xtick_2">
     <g id="line2d_3">
      <path clip-path="url(#pb230347fc9)" d="M 145.100528 143.1 
L 145.100528 7.2 
" style="fill:none;stroke:#ffffff;stroke-linecap:round;"/>
     </g>
     <g id="line2d_4"/>
     <g id="text_2">
      <!-- 0 -->
      <g style="fill:#262626;" transform="translate(142.320059 157.346875)scale(0.1 -0.1)">
       <use xlink:href="#LiberationSans-30"/>
      </g>
     </g>
    </g>
    <g id="xtick_3">
     <g id="line2d_5">
      <path clip-path="url(#pb230347fc9)" d="M 198.570447 143.1 
L 198.570447 7.2 
" style="fill:none;stroke:#ffffff;stroke-linecap:round;"/>
     </g>
     <g id="line2d_6"/>
     <g id="text_3">
      <!-- 2000 -->
      <g style="fill:#262626;" transform="translate(187.448572 157.346875)scale(0.1 -0.1)">
       <use xlink:href="#LiberationSans-32"/>
       <use x="55.615234" xlink:href="#LiberationSans-30"/>
       <use x="111.230469" xlink:href="#LiberationSans-30"/>
       <use x="166.845703" xlink:href="#LiberationSans-30"/>
      </g>
     </g>
    </g>
   </g>
   <g id="matplotlib.axis_2">
    <g id="ytick_1">
     <g id="line2d_7">
      <path clip-path="url(#pb230347fc9)" d="M 43.854063 120.967837 
L 246.763153 120.967837 
" style="fill:none;stroke:#ffffff;stroke-linecap:round;"/>
     </g>
     <g id="line2d_8"/>
     <g id="text_4">
      <!-- $\mathdefault{10^{1}}$ -->
      <defs>
       <path d="M 7.625 0 
L 7.625 7.46875 
L 25.140625 7.46875 
L 25.140625 60.40625 
L 9.625 49.3125 
L 9.625 57.625 
L 25.875 68.796875 
L 33.984375 68.796875 
L 33.984375 7.46875 
L 50.734375 7.46875 
L 50.734375 0 
z
" id="LiberationSans-31"/>
      </defs>
      <g style="fill:#262626;" transform="translate(21.454063 124.591275)scale(0.1 -0.1)">
       <use transform="translate(0 0.8625)" xlink:href="#LiberationSans-31"/>
       <use transform="translate(55.615234 0.8625)" xlink:href="#LiberationSans-30"/>
       <use transform="translate(112.154961 37.842188)scale(0.7)" xlink:href="#LiberationSans-31"/>
      </g>
     </g>
    </g>
    <g id="ytick_2">
     <g id="line2d_9">
      <path clip-path="url(#pb230347fc9)" d="M 43.854063 89.058057 
L 246.763153 89.058057 
" style="fill:none;stroke:#ffffff;stroke-linecap:round;"/>
     </g>
     <g id="line2d_10"/>
     <g id="text_5">
      <!-- $\mathdefault{10^{3}}$ -->
      <defs>
       <path d="M 51.21875 19 
Q 51.21875 14.265625 49.671875 10.546875 
Q 48.140625 6.84375 45.1875 4.265625 
Q 42.234375 1.703125 37.859375 0.359375 
Q 33.5 -0.984375 27.875 -0.984375 
Q 21.484375 -0.984375 17.109375 0.609375 
Q 12.75 2.203125 9.90625 4.8125 
Q 7.078125 7.421875 5.65625 10.765625 
Q 4.25 14.109375 3.8125 17.671875 
L 12.890625 18.5 
Q 13.28125 15.765625 14.328125 13.515625 
Q 15.375 11.28125 17.1875 9.671875 
Q 19 8.0625 21.625 7.171875 
Q 24.265625 6.296875 27.875 6.296875 
Q 34.515625 6.296875 38.296875 9.5625 
Q 42.09375 12.84375 42.09375 19.28125 
Q 42.09375 23.09375 40.40625 25.40625 
Q 38.71875 27.734375 36.203125 29.03125 
Q 33.6875 30.328125 30.734375 30.765625 
Q 27.78125 31.203125 25.296875 31.203125 
L 20.3125 31.203125 
L 20.3125 38.8125 
L 25.09375 38.8125 
Q 27.59375 38.8125 30.265625 39.328125 
Q 32.953125 39.84375 35.171875 41.1875 
Q 37.40625 42.53125 38.84375 44.828125 
Q 40.28125 47.125 40.28125 50.6875 
Q 40.28125 56.203125 37.03125 59.390625 
Q 33.796875 62.59375 27.390625 62.59375 
Q 21.578125 62.59375 17.984375 59.609375 
Q 14.40625 56.640625 13.8125 51.21875 
L 4.984375 51.90625 
Q 5.515625 56.453125 7.46875 59.8125 
Q 9.421875 63.1875 12.421875 65.40625 
Q 15.4375 67.625 19.28125 68.71875 
Q 23.140625 69.828125 27.484375 69.828125 
Q 33.25 69.828125 37.390625 68.375 
Q 41.546875 66.9375 44.1875 64.46875 
Q 46.828125 62.015625 48.0625 58.6875 
Q 49.3125 55.375 49.3125 51.609375 
Q 49.3125 48.578125 48.484375 45.9375 
Q 47.65625 43.3125 45.890625 41.203125 
Q 44.140625 39.109375 41.421875 37.59375 
Q 38.71875 36.078125 34.90625 35.296875 
L 34.90625 35.109375 
Q 39.0625 34.671875 42.140625 33.21875 
Q 45.21875 31.78125 47.21875 29.625 
Q 49.21875 27.484375 50.21875 24.75 
Q 51.21875 22.015625 51.21875 19 
z
" id="LiberationSans-33"/>
      </defs>
      <g style="fill:#262626;" transform="translate(21.454063 92.681494)scale(0.1 -0.1)">
       <use transform="translate(0 0.140625)" xlink:href="#LiberationSans-31"/>
       <use transform="translate(55.615234 0.140625)" xlink:href="#LiberationSans-30"/>
       <use transform="translate(112.154961 37.120312)scale(0.7)" xlink:href="#LiberationSans-33"/>
      </g>
     </g>
    </g>
    <g id="ytick_3">
     <g id="line2d_11">
      <path clip-path="url(#pb230347fc9)" d="M 43.854063 57.148277 
L 246.763153 57.148277 
" style="fill:none;stroke:#ffffff;stroke-linecap:round;"/>
     </g>
     <g id="line2d_12"/>
     <g id="text_6">
      <!-- $\mathdefault{10^{5}}$ -->
      <defs>
       <path d="M 51.421875 22.40625 
Q 51.421875 17.234375 49.859375 12.9375 
Q 48.296875 8.640625 45.21875 5.53125 
Q 42.140625 2.4375 37.578125 0.71875 
Q 33.015625 -0.984375 27 -0.984375 
Q 21.578125 -0.984375 17.546875 0.28125 
Q 13.53125 1.5625 10.734375 3.78125 
Q 7.953125 6 6.3125 8.984375 
Q 4.6875 11.96875 4 15.375 
L 12.890625 16.40625 
Q 13.421875 14.453125 14.390625 12.625 
Q 15.375 10.796875 17.0625 9.34375 
Q 18.75 7.90625 21.21875 7.046875 
Q 23.6875 6.203125 27.203125 6.203125 
Q 30.609375 6.203125 33.390625 7.25 
Q 36.1875 8.296875 38.15625 10.34375 
Q 40.140625 12.40625 41.203125 15.375 
Q 42.28125 18.359375 42.28125 22.21875 
Q 42.28125 25.390625 41.25 28.046875 
Q 40.234375 30.71875 38.328125 32.640625 
Q 36.421875 34.578125 33.65625 35.640625 
Q 30.90625 36.71875 27.390625 36.71875 
Q 25.203125 36.71875 23.34375 36.328125 
Q 21.484375 35.9375 19.890625 35.25 
Q 18.3125 34.578125 17.015625 33.671875 
Q 15.71875 32.765625 14.59375 31.78125 
L 6 31.78125 
L 8.296875 68.796875 
L 47.40625 68.796875 
L 47.40625 61.328125 
L 16.3125 61.328125 
L 14.984375 39.5 
Q 17.328125 41.3125 20.84375 42.59375 
Q 24.359375 43.890625 29.203125 43.890625 
Q 34.328125 43.890625 38.421875 42.328125 
Q 42.53125 40.765625 45.40625 37.90625 
Q 48.296875 35.0625 49.859375 31.109375 
Q 51.421875 27.15625 51.421875 22.40625 
z
" id="LiberationSans-35"/>
      </defs>
      <g style="fill:#262626;" transform="translate(21.454063 60.771714)scale(0.1 -0.1)">
       <use transform="translate(0 0.8625)" xlink:href="#LiberationSans-31"/>
       <use transform="translate(55.615234 0.8625)" xlink:href="#LiberationSans-30"/>
       <use transform="translate(112.154961 37.842188)scale(0.7)" xlink:href="#LiberationSans-35"/>
      </g>
     </g>
    </g>
    <g id="ytick_4">
     <g id="line2d_13">
      <path clip-path="url(#pb230347fc9)" d="M 43.854063 25.238496 
L 246.763153 25.238496 
" style="fill:none;stroke:#ffffff;stroke-linecap:round;"/>
     </g>
     <g id="line2d_14"/>
     <g id="text_7">
      <!-- $\mathdefault{10^{7}}$ -->
      <defs>
       <path d="M 50.59375 61.671875 
Q 45.40625 53.765625 41.0625 46.453125 
Q 36.71875 39.15625 33.59375 31.75 
Q 30.46875 24.359375 28.734375 16.578125 
Q 27 8.796875 27 0 
L 17.828125 0 
Q 17.828125 8.25 19.78125 16.1875 
Q 21.734375 24.125 25.046875 31.765625 
Q 28.375 39.40625 32.765625 46.78125 
Q 37.15625 54.15625 42.09375 61.328125 
L 5.125 61.328125 
L 5.125 68.796875 
L 50.59375 68.796875 
z
" id="LiberationSans-37"/>
      </defs>
      <g style="fill:#262626;" transform="translate(21.454063 28.861934)scale(0.1 -0.1)">
       <use transform="translate(0 0.8625)" xlink:href="#LiberationSans-31"/>
       <use transform="translate(55.615234 0.8625)" xlink:href="#LiberationSans-30"/>
       <use transform="translate(112.154961 37.842188)scale(0.7)" xlink:href="#LiberationSans-37"/>
      </g>
     </g>
    </g>
    <g id="text_8">
     <!-- Pickup -->
     <defs>
      <path d="M 61.421875 48.09375 
Q 61.421875 43.609375 59.9375 39.71875 
Q 58.453125 35.84375 55.5 32.984375 
Q 52.546875 30.125 48.09375 28.46875 
Q 43.65625 26.8125 37.75 26.8125 
L 17.53125 26.8125 
L 17.53125 0 
L 8.203125 0 
L 8.203125 68.796875 
L 37.15625 68.796875 
Q 43.265625 68.796875 47.796875 67.3125 
Q 52.34375 65.828125 55.375 63.109375 
Q 58.40625 60.40625 59.90625 56.5625 
Q 61.421875 52.734375 61.421875 48.09375 
z
M 52.046875 48 
Q 52.046875 54.546875 48.046875 57.9375 
Q 44.046875 61.328125 36.03125 61.328125 
L 17.53125 61.328125 
L 17.53125 34.1875 
L 36.421875 34.1875 
Q 44.484375 34.1875 48.265625 37.75 
Q 52.046875 41.3125 52.046875 48 
z
" id="LiberationSans-50"/>
      <path d="M 6.6875 64.0625 
L 6.6875 72.46875 
L 15.484375 72.46875 
L 15.484375 64.0625 
z
M 6.6875 0 
L 6.6875 52.828125 
L 15.484375 52.828125 
L 15.484375 0 
z
" id="LiberationSans-69"/>
      <path d="M 13.421875 26.65625 
Q 13.421875 22.125 14.078125 18.3125 
Q 14.75 14.5 16.3125 11.734375 
Q 17.875 8.984375 20.4375 7.46875 
Q 23 5.953125 26.765625 5.953125 
Q 31.453125 5.953125 34.59375 8.484375 
Q 37.75 11.03125 38.484375 16.3125 
L 47.359375 15.71875 
Q 46.921875 12.453125 45.453125 9.421875 
Q 44 6.390625 41.484375 4.09375 
Q 38.96875 1.8125 35.34375 0.40625 
Q 31.734375 -0.984375 27 -0.984375 
Q 20.796875 -0.984375 16.453125 1.109375 
Q 12.109375 3.21875 9.390625 6.90625 
Q 6.6875 10.59375 5.46875 15.59375 
Q 4.25 20.609375 4.25 26.46875 
Q 4.25 31.78125 5.125 35.859375 
Q 6 39.9375 7.59375 42.984375 
Q 9.1875 46.046875 11.328125 48.125 
Q 13.484375 50.203125 15.984375 51.4375 
Q 18.5 52.6875 21.28125 53.25 
Q 24.078125 53.8125 26.90625 53.8125 
Q 31.34375 53.8125 34.8125 52.59375 
Q 38.28125 51.375 40.796875 49.25 
Q 43.3125 47.125 44.875 44.234375 
Q 46.4375 41.359375 47.078125 38.03125 
L 38.03125 37.359375 
Q 37.359375 41.75 34.5625 44.328125 
Q 31.78125 46.921875 26.65625 46.921875 
Q 22.90625 46.921875 20.390625 45.671875 
Q 17.875 44.4375 16.3125 41.921875 
Q 14.75 39.40625 14.078125 35.59375 
Q 13.421875 31.78125 13.421875 26.65625 
z
" id="LiberationSans-63"/>
      <path d="M 39.84375 0 
L 21.96875 24.125 
L 15.53125 18.796875 
L 15.53125 0 
L 6.734375 0 
L 6.734375 72.46875 
L 15.53125 72.46875 
L 15.53125 27.203125 
L 38.71875 52.828125 
L 49.03125 52.828125 
L 27.59375 30.125 
L 50.140625 0 
z
" id="LiberationSans-6b"/>
      <path d="M 15.328125 52.828125 
L 15.328125 19.34375 
Q 15.328125 15.484375 15.890625 12.890625 
Q 16.453125 10.296875 17.71875 8.703125 
Q 19 7.125 21.0625 6.46875 
Q 23.140625 5.8125 26.21875 5.8125 
Q 29.34375 5.8125 31.859375 6.90625 
Q 34.375 8.015625 36.15625 10.078125 
Q 37.9375 12.15625 38.90625 15.203125 
Q 39.890625 18.265625 39.890625 22.21875 
L 39.890625 52.828125 
L 48.6875 52.828125 
L 48.6875 11.28125 
Q 48.6875 9.625 48.703125 7.78125 
Q 48.734375 5.953125 48.78125 4.3125 
Q 48.828125 2.6875 48.875 1.515625 
Q 48.921875 0.34375 48.96875 0 
L 40.671875 0 
Q 40.625 0.25 40.578125 1.3125 
Q 40.53125 2.390625 40.453125 3.78125 
Q 40.375 5.171875 40.328125 6.609375 
Q 40.28125 8.0625 40.28125 9.03125 
L 40.140625 9.03125 
Q 38.875 6.734375 37.359375 4.875 
Q 35.84375 3.03125 33.84375 1.734375 
Q 31.84375 0.4375 29.25 -0.265625 
Q 26.65625 -0.984375 23.25 -0.984375 
Q 18.84375 -0.984375 15.671875 0.09375 
Q 12.5 1.171875 10.453125 3.421875 
Q 8.40625 5.671875 7.453125 9.1875 
Q 6.5 12.703125 6.5 17.625 
L 6.5 52.828125 
z
" id="LiberationSans-75"/>
      <path d="M 51.421875 26.65625 
Q 51.421875 20.65625 50.4375 15.578125 
Q 49.46875 10.5 47.1875 6.828125 
Q 44.921875 3.171875 41.1875 1.09375 
Q 37.453125 -0.984375 31.984375 -0.984375 
Q 26.3125 -0.984375 22.0625 1.171875 
Q 17.828125 3.328125 15.578125 8.203125 
L 15.328125 8.203125 
Q 15.375 8.109375 15.40625 7.328125 
Q 15.4375 6.546875 15.453125 5.375 
Q 15.484375 4.203125 15.5 2.75 
Q 15.53125 1.3125 15.53125 -0.09375 
L 15.53125 -20.75 
L 6.734375 -20.75 
L 6.734375 42.046875 
Q 6.734375 43.953125 6.703125 45.703125 
Q 6.6875 47.46875 6.640625 48.90625 
Q 6.59375 50.34375 6.546875 51.359375 
Q 6.5 52.390625 6.453125 52.828125 
L 14.9375 52.828125 
Q 14.984375 52.6875 15.0625 51.796875 
Q 15.140625 50.921875 15.203125 49.671875 
Q 15.28125 48.4375 15.359375 47.015625 
Q 15.4375 45.609375 15.4375 44.34375 
L 15.625 44.34375 
Q 16.84375 46.875 18.40625 48.65625 
Q 19.96875 50.4375 21.96875 51.578125 
Q 23.96875 52.734375 26.4375 53.25 
Q 28.90625 53.765625 31.984375 53.765625 
Q 37.453125 53.765625 41.1875 51.8125 
Q 44.921875 49.859375 47.1875 46.3125 
Q 49.46875 42.78125 50.4375 37.765625 
Q 51.421875 32.765625 51.421875 26.65625 
z
M 42.1875 26.46875 
Q 42.1875 31.34375 41.59375 35.15625 
Q 41.015625 38.96875 39.578125 41.59375 
Q 38.140625 44.234375 35.734375 45.59375 
Q 33.34375 46.96875 29.734375 46.96875 
Q 26.8125 46.96875 24.21875 46.140625 
Q 21.625 45.3125 19.703125 42.96875 
Q 17.78125 40.625 16.65625 36.5 
Q 15.53125 32.375 15.53125 25.78125 
Q 15.53125 20.171875 16.453125 16.28125 
Q 17.390625 12.40625 19.171875 10.015625 
Q 20.953125 7.625 23.578125 6.5625 
Q 26.21875 5.515625 29.640625 5.515625 
Q 33.296875 5.515625 35.71875 6.921875 
Q 38.140625 8.34375 39.578125 11.03125 
Q 41.015625 13.71875 41.59375 17.59375 
Q 42.1875 21.484375 42.1875 26.46875 
z
" id="LiberationSans-70"/>
     </defs>
     <g style="fill:#262626;" transform="translate(15.171563 91.657734)rotate(-90)scale(0.11 -0.11)">
      <use xlink:href="#LiberationSans-50"/>
      <use x="66.699219" xlink:href="#LiberationSans-69"/>
      <use x="88.916016" xlink:href="#LiberationSans-63"/>
      <use x="138.916016" xlink:href="#LiberationSans-6b"/>
      <use x="188.916016" xlink:href="#LiberationSans-75"/>
      <use x="244.53125" xlink:href="#LiberationSans-70"/>
     </g>
    </g>
   </g>
   <g id="patch_3">
    <path clip-path="url(#pb230347fc9)" d="M 53.077203 16091.812857 
L 56.766459 16091.812857 
L 56.766459 110.098708 
L 53.077203 110.098708 
z
" style="fill:#4c72b0;"/>
   </g>
   <g id="patch_4">
    <path clip-path="url(#pb230347fc9)" d="M 56.766459 16091.812857 
L 60.455715 16091.812857 
L 60.455715 16091.812857 
L 56.766459 16091.812857 
z
" style="fill:#4c72b0;"/>
   </g>
   <g id="patch_5">
    <path clip-path="url(#pb230347fc9)" d="M 60.455715 16091.812857 
L 64.144972 16091.812857 
L 64.144972 123.439281 
L 60.455715 123.439281 
z
" style="fill:#4c72b0;"/>
   </g>
   <g id="patch_6">
    <path clip-path="url(#pb230347fc9)" d="M 64.144972 16091.812857 
L 67.834228 16091.812857 
L 67.834228 112.488149 
L 64.144972 112.488149 
z
" style="fill:#4c72b0;"/>
   </g>
   <g id="patch_7">
    <path clip-path="url(#pb230347fc9)" d="M 67.834228 16091.812857 
L 71.523484 16091.812857 
L 71.523484 16091.812857 
L 67.834228 16091.812857 
z
" style="fill:#4c72b0;"/>
   </g>
   <g id="patch_8">
    <path clip-path="url(#pb230347fc9)" d="M 71.523484 16091.812857 
L 75.21274 16091.812857 
L 75.21274 117.711125 
L 71.523484 117.711125 
z
" style="fill:#4c72b0;"/>
   </g>
   <g id="patch_9">
    <path clip-path="url(#pb230347fc9)" d="M 75.21274 16091.812857 
L 78.901996 16091.812857 
L 78.901996 116.894992 
L 75.21274 116.894992 
z
" style="fill:#4c72b0;"/>
   </g>
   <g id="patch_10">
    <path clip-path="url(#pb230347fc9)" d="M 78.901996 16091.812857 
L 82.591253 16091.812857 
L 82.591253 129.31031 
L 78.901996 129.31031 
z
" style="fill:#4c72b0;"/>
   </g>
   <g id="patch_11">
    <path clip-path="url(#pb230347fc9)" d="M 82.591253 16091.812857 
L 86.280509 16091.812857 
L 86.280509 115.196509 
L 82.591253 115.196509 
z
" style="fill:#4c72b0;"/>
   </g>
   <g id="patch_12">
    <path clip-path="url(#pb230347fc9)" d="M 86.280509 16091.812857 
L 89.969765 16091.812857 
L 89.969765 119.704509 
L 86.280509 119.704509 
z
" style="fill:#4c72b0;"/>
   </g>
   <g id="patch_13">
    <path clip-path="url(#pb230347fc9)" d="M 89.969765 16091.812857 
L 93.659021 16091.812857 
L 93.659021 116.520354 
L 89.969765 116.520354 
z
" style="fill:#4c72b0;"/>
   </g>
   <g id="patch_14">
    <path clip-path="url(#pb230347fc9)" d="M 93.659021 16091.812857 
L 97.348277 16091.812857 
L 97.348277 120.307421 
L 93.659021 120.307421 
z
" style="fill:#4c72b0;"/>
   </g>
   <g id="patch_15">
    <path clip-path="url(#pb230347fc9)" d="M 97.348277 16091.812857 
L 101.037534 16091.812857 
L 101.037534 114.346983 
L 97.348277 114.346983 
z
" style="fill:#4c72b0;"/>
   </g>
   <g id="patch_16">
    <path clip-path="url(#pb230347fc9)" d="M 101.037534 16091.812857 
L 104.72679 16091.812857 
L 104.72679 118.15832 
L 101.037534 118.15832 
z
" style="fill:#4c72b0;"/>
   </g>
   <g id="patch_17">
    <path clip-path="url(#pb230347fc9)" d="M 104.72679 16091.812857 
L 108.416046 16091.812857 
L 108.416046 123.439281 
L 104.72679 123.439281 
z
" style="fill:#4c72b0;"/>
   </g>
   <g id="patch_18">
    <path clip-path="url(#pb230347fc9)" d="M 108.416046 16091.812857 
L 112.105302 16091.812857 
L 112.105302 110.70162 
L 108.416046 110.70162 
z
" style="fill:#4c72b0;"/>
   </g>
   <g id="patch_19">
    <path clip-path="url(#pb230347fc9)" d="M 112.105302 16091.812857 
L 115.794558 16091.812857 
L 115.794558 110.098708 
L 112.105302 110.098708 
z
" style="fill:#4c72b0;"/>
   </g>
   <g id="patch_20">
    <path clip-path="url(#pb230347fc9)" d="M 115.794558 16091.812857 
L 119.483815 16091.812857 
L 119.483815 125.770738 
L 115.794558 125.770738 
z
" style="fill:#4c72b0;"/>
   </g>
   <g id="patch_21">
    <path clip-path="url(#pb230347fc9)" d="M 119.483815 16091.812857 
L 123.173071 16091.812857 
L 123.173071 114.346983 
L 119.483815 114.346983 
z
" style="fill:#4c72b0;"/>
   </g>
   <g id="patch_22">
    <path clip-path="url(#pb230347fc9)" d="M 123.173071 16091.812857 
L 126.862327 16091.812857 
L 126.862327 92.551588 
L 123.173071 92.551588 
z
" style="fill:#4c72b0;"/>
   </g>
   <g id="patch_23">
    <path clip-path="url(#pb230347fc9)" d="M 126.862327 16091.812857 
L 130.551583 16091.812857 
L 130.551583 121.697893 
L 126.862327 121.697893 
z
" style="fill:#4c72b0;"/>
   </g>
   <g id="patch_24">
    <path clip-path="url(#pb230347fc9)" d="M 130.551583 16091.812857 
L 134.240839 16091.812857 
L 134.240839 122.514026 
L 130.551583 122.514026 
z
" style="fill:#4c72b0;"/>
   </g>
   <g id="patch_25">
    <path clip-path="url(#pb230347fc9)" d="M 134.240839 16091.812857 
L 137.930096 16091.812857 
L 137.930096 113.590328 
L 134.240839 113.590328 
z
" style="fill:#4c72b0;"/>
   </g>
   <g id="patch_26">
    <path clip-path="url(#pb230347fc9)" d="M 137.930096 16091.812857 
L 141.619352 16091.812857 
L 141.619352 112.488149 
L 137.930096 112.488149 
z
" style="fill:#4c72b0;"/>
   </g>
   <g id="patch_27">
    <path clip-path="url(#pb230347fc9)" d="M 141.619352 16091.812857 
L 145.308608 16091.812857 
L 145.308608 13.377273 
L 141.619352 13.377273 
z
" style="fill:#4c72b0;"/>
   </g>
   <g id="patch_28">
    <path clip-path="url(#pb230347fc9)" d="M 145.308608 16091.812857 
L 148.997864 16091.812857 
L 148.997864 66.280602 
L 145.308608 66.280602 
z
" style="fill:#4c72b0;"/>
   </g>
   <g id="patch_29">
    <path clip-path="url(#pb230347fc9)" d="M 148.997864 16091.812857 
L 152.68712 16091.812857 
L 152.68712 124.50741 
L 148.997864 124.50741 
z
" style="fill:#4c72b0;"/>
   </g>
   <g id="patch_30">
    <path clip-path="url(#pb230347fc9)" d="M 152.68712 16091.812857 
L 156.376377 16091.812857 
L 156.376377 113.590328 
L 152.68712 113.590328 
z
" style="fill:#4c72b0;"/>
   </g>
   <g id="patch_31">
    <path clip-path="url(#pb230347fc9)" d="M 156.376377 16091.812857 
L 160.065633 16091.812857 
L 160.065633 117.711125 
L 156.376377 117.711125 
z
" style="fill:#4c72b0;"/>
   </g>
   <g id="patch_32">
    <path clip-path="url(#pb230347fc9)" d="M 160.065633 16091.812857 
L 163.754889 16091.812857 
L 163.754889 16091.812857 
L 160.065633 16091.812857 
z
" style="fill:#4c72b0;"/>
   </g>
   <g id="patch_33">
    <path clip-path="url(#pb230347fc9)" d="M 163.754889 16091.812857 
L 167.444145 16091.812857 
L 167.444145 113.128215 
L 163.754889 113.128215 
z
" style="fill:#4c72b0;"/>
   </g>
   <g id="patch_34">
    <path clip-path="url(#pb230347fc9)" d="M 167.444145 16091.812857 
L 171.133401 16091.812857 
L 171.133401 136.922727 
L 167.444145 136.922727 
z
" style="fill:#4c72b0;"/>
   </g>
   <g id="patch_35">
    <path clip-path="url(#pb230347fc9)" d="M 171.133401 16091.812857 
L 174.822658 16091.812857 
L 174.822658 136.922727 
L 171.133401 136.922727 
z
" style="fill:#4c72b0;"/>
   </g>
   <g id="patch_36">
    <path clip-path="url(#pb230347fc9)" d="M 174.822658 16091.812857 
L 178.511914 16091.812857 
L 178.511914 120.967837 
L 174.822658 120.967837 
z
" style="fill:#4c72b0;"/>
   </g>
   <g id="patch_37">
    <path clip-path="url(#pb230347fc9)" d="M 178.511914 16091.812857 
L 182.20117 16091.812857 
L 182.20117 121.697893 
L 178.511914 121.697893 
z
" style="fill:#4c72b0;"/>
   </g>
   <g id="patch_38">
    <path clip-path="url(#pb230347fc9)" d="M 182.20117 16091.812857 
L 185.890426 16091.812857 
L 185.890426 127.316926 
L 182.20117 127.316926 
z
" style="fill:#4c72b0;"/>
   </g>
   <g id="patch_39">
    <path clip-path="url(#pb230347fc9)" d="M 185.890426 16091.812857 
L 189.579682 16091.812857 
L 189.579682 122.514026 
L 185.890426 122.514026 
z
" style="fill:#4c72b0;"/>
   </g>
   <g id="patch_40">
    <path clip-path="url(#pb230347fc9)" d="M 189.579682 16091.812857 
L 193.268939 16091.812857 
L 193.268939 115.196509 
L 189.579682 115.196509 
z
" style="fill:#4c72b0;"/>
   </g>
   <g id="patch_41">
    <path clip-path="url(#pb230347fc9)" d="M 193.268939 16091.812857 
L 196.958195 16091.812857 
L 196.958195 16091.812857 
L 193.268939 16091.812857 
z
" style="fill:#4c72b0;"/>
   </g>
   <g id="patch_42">
    <path clip-path="url(#pb230347fc9)" d="M 196.958195 16091.812857 
L 200.647451 16091.812857 
L 200.647451 120.967837 
L 196.958195 120.967837 
z
" style="fill:#4c72b0;"/>
   </g>
   <g id="patch_43">
    <path clip-path="url(#pb230347fc9)" d="M 200.647451 16091.812857 
L 204.336707 16091.812857 
L 204.336707 111.902241 
L 200.647451 111.902241 
z
" style="fill:#4c72b0;"/>
   </g>
   <g id="patch_44">
    <path clip-path="url(#pb230347fc9)" d="M 204.336707 16091.812857 
L 208.025963 16091.812857 
L 208.025963 132.119827 
L 204.336707 132.119827 
z
" style="fill:#4c72b0;"/>
   </g>
   <g id="patch_45">
    <path clip-path="url(#pb230347fc9)" d="M 208.025963 16091.812857 
L 211.71522 16091.812857 
L 211.71522 114.346983 
L 208.025963 114.346983 
z
" style="fill:#4c72b0;"/>
   </g>
   <g id="patch_46">
    <path clip-path="url(#pb230347fc9)" d="M 211.71522 16091.812857 
L 215.404476 16091.812857 
L 215.404476 116.520354 
L 211.71522 116.520354 
z
" style="fill:#4c72b0;"/>
   </g>
   <g id="patch_47">
    <path clip-path="url(#pb230347fc9)" d="M 215.404476 16091.812857 
L 219.093732 16091.812857 
L 219.093732 16091.812857 
L 215.404476 16091.812857 
z
" style="fill:#4c72b0;"/>
   </g>
   <g id="patch_48">
    <path clip-path="url(#pb230347fc9)" d="M 219.093732 16091.812857 
L 222.782988 16091.812857 
L 222.782988 116.164937 
L 219.093732 116.164937 
z
" style="fill:#4c72b0;"/>
   </g>
   <g id="patch_49">
    <path clip-path="url(#pb230347fc9)" d="M 222.782988 16091.812857 
L 226.472244 16091.812857 
L 226.472244 136.922727 
L 222.782988 136.922727 
z
" style="fill:#4c72b0;"/>
   </g>
   <g id="patch_50">
    <path clip-path="url(#pb230347fc9)" d="M 226.472244 16091.812857 
L 230.161501 16091.812857 
L 230.161501 123.439281 
L 226.472244 123.439281 
z
" style="fill:#4c72b0;"/>
   </g>
   <g id="patch_51">
    <path clip-path="url(#pb230347fc9)" d="M 230.161501 16091.812857 
L 233.850757 16091.812857 
L 233.850757 129.31031 
L 230.161501 129.31031 
z
" style="fill:#4c72b0;"/>
   </g>
   <g id="patch_52">
    <path clip-path="url(#pb230347fc9)" d="M 233.850757 16091.812857 
L 237.540013 16091.812857 
L 237.540013 117.711125 
L 233.850757 117.711125 
z
" style="fill:#4c72b0;"/>
   </g>
   <g id="line2d_15">
    <path clip-path="url(#pb230347fc9)" d="M 143.122141 143.1 
L 143.122141 7.2 
" style="fill:none;stroke:#000000;stroke-dasharray:6.475,2.8;stroke-dashoffset:0;stroke-width:1.75;"/>
   </g>
   <g id="patch_53">
    <path d="M 43.854063 143.1 
L 43.854063 7.2 
" style="fill:none;"/>
   </g>
   <g id="patch_54">
    <path d="M 246.763153 143.1 
L 246.763153 7.2 
" style="fill:none;"/>
   </g>
   <g id="patch_55">
    <path d="M 43.854063 143.1 
L 246.763153 143.1 
" style="fill:none;"/>
   </g>
   <g id="patch_56">
    <path d="M 43.854063 7.2 
L 246.763153 7.2 
" style="fill:none;"/>
   </g>
  </g>
  <g id="axes_2">
   <g id="patch_57">
    <path d="M 287.344972 143.1 
L 490.254062 143.1 
L 490.254062 7.2 
L 287.344972 7.2 
z
" style="fill:#eaeaf2;"/>
   </g>
   <g id="matplotlib.axis_3">
    <g id="xtick_4">
     <g id="line2d_16">
      <path clip-path="url(#pcfcc6c23f9)" d="M 336.455813 143.1 
L 336.455813 7.2 
" style="fill:none;stroke:#ffffff;stroke-linecap:round;"/>
     </g>
     <g id="line2d_17"/>
     <g id="text_9">
      <!-- −2000 -->
      <g style="fill:#262626;" transform="translate(322.413626 157.346875)scale(0.1 -0.1)">
       <use xlink:href="#LiberationSans-2212"/>
       <use x="58.398438" xlink:href="#LiberationSans-32"/>
       <use x="114.013672" xlink:href="#LiberationSans-30"/>
       <use x="169.628906" xlink:href="#LiberationSans-30"/>
       <use x="225.244141" xlink:href="#LiberationSans-30"/>
      </g>
     </g>
    </g>
    <g id="xtick_5">
     <g id="line2d_18">
      <path clip-path="url(#pcfcc6c23f9)" d="M 389.915135 143.1 
L 389.915135 7.2 
" style="fill:none;stroke:#ffffff;stroke-linecap:round;"/>
     </g>
     <g id="line2d_19"/>
     <g id="text_10">
      <!-- 0 -->
      <g style="fill:#262626;" transform="translate(387.134666 157.346875)scale(0.1 -0.1)">
       <use xlink:href="#LiberationSans-30"/>
      </g>
     </g>
    </g>
    <g id="xtick_6">
     <g id="line2d_20">
      <path clip-path="url(#pcfcc6c23f9)" d="M 443.374456 143.1 
L 443.374456 7.2 
" style="fill:none;stroke:#ffffff;stroke-linecap:round;"/>
     </g>
     <g id="line2d_21"/>
     <g id="text_11">
      <!-- 2000 -->
      <g style="fill:#262626;" transform="translate(432.252581 157.346875)scale(0.1 -0.1)">
       <use xlink:href="#LiberationSans-32"/>
       <use x="55.615234" xlink:href="#LiberationSans-30"/>
       <use x="111.230469" xlink:href="#LiberationSans-30"/>
       <use x="166.845703" xlink:href="#LiberationSans-30"/>
      </g>
     </g>
    </g>
   </g>
   <g id="matplotlib.axis_4">
    <g id="ytick_5">
     <g id="line2d_22">
      <path clip-path="url(#pcfcc6c23f9)" d="M 287.344972 120.967843 
L 490.254062 120.967843 
" style="fill:none;stroke:#ffffff;stroke-linecap:round;"/>
     </g>
     <g id="line2d_23"/>
     <g id="text_12">
      <!-- $\mathdefault{10^{1}}$ -->
      <g style="fill:#262626;" transform="translate(264.944972 124.59128)scale(0.1 -0.1)">
       <use transform="translate(0 0.8625)" xlink:href="#LiberationSans-31"/>
       <use transform="translate(55.615234 0.8625)" xlink:href="#LiberationSans-30"/>
       <use transform="translate(112.154961 37.842188)scale(0.7)" xlink:href="#LiberationSans-31"/>
      </g>
     </g>
    </g>
    <g id="ytick_6">
     <g id="line2d_24">
      <path clip-path="url(#pcfcc6c23f9)" d="M 287.344972 89.058074 
L 490.254062 89.058074 
" style="fill:none;stroke:#ffffff;stroke-linecap:round;"/>
     </g>
     <g id="line2d_25"/>
     <g id="text_13">
      <!-- $\mathdefault{10^{3}}$ -->
      <g style="fill:#262626;" transform="translate(264.944972 92.681511)scale(0.1 -0.1)">
       <use transform="translate(0 0.140625)" xlink:href="#LiberationSans-31"/>
       <use transform="translate(55.615234 0.140625)" xlink:href="#LiberationSans-30"/>
       <use transform="translate(112.154961 37.120312)scale(0.7)" xlink:href="#LiberationSans-33"/>
      </g>
     </g>
    </g>
    <g id="ytick_7">
     <g id="line2d_26">
      <path clip-path="url(#pcfcc6c23f9)" d="M 287.344972 57.148304 
L 490.254062 57.148304 
" style="fill:none;stroke:#ffffff;stroke-linecap:round;"/>
     </g>
     <g id="line2d_27"/>
     <g id="text_14">
      <!-- $\mathdefault{10^{5}}$ -->
      <g style="fill:#262626;" transform="translate(264.944972 60.771742)scale(0.1 -0.1)">
       <use transform="translate(0 0.8625)" xlink:href="#LiberationSans-31"/>
       <use transform="translate(55.615234 0.8625)" xlink:href="#LiberationSans-30"/>
       <use transform="translate(112.154961 37.842188)scale(0.7)" xlink:href="#LiberationSans-35"/>
      </g>
     </g>
    </g>
    <g id="ytick_8">
     <g id="line2d_28">
      <path clip-path="url(#pcfcc6c23f9)" d="M 287.344972 25.238535 
L 490.254062 25.238535 
" style="fill:none;stroke:#ffffff;stroke-linecap:round;"/>
     </g>
     <g id="line2d_29"/>
     <g id="text_15">
      <!-- $\mathdefault{10^{7}}$ -->
      <g style="fill:#262626;" transform="translate(264.944972 28.861973)scale(0.1 -0.1)">
       <use transform="translate(0 0.8625)" xlink:href="#LiberationSans-31"/>
       <use transform="translate(55.615234 0.8625)" xlink:href="#LiberationSans-30"/>
       <use transform="translate(112.154961 37.842188)scale(0.7)" xlink:href="#LiberationSans-37"/>
      </g>
     </g>
    </g>
   </g>
   <g id="patch_58">
    <path clip-path="url(#pcfcc6c23f9)" d="M 296.568112 16091.807283 
L 300.257368 16091.807283 
L 300.257368 115.196517 
L 296.568112 115.196517 
z
" style="fill:#4c72b0;"/>
   </g>
   <g id="patch_59">
    <path clip-path="url(#pcfcc6c23f9)" d="M 300.257368 16091.807283 
L 303.946624 16091.807283 
L 303.946624 123.439286 
L 300.257368 123.439286 
z
" style="fill:#4c72b0;"/>
   </g>
   <g id="patch_60">
    <path clip-path="url(#pcfcc6c23f9)" d="M 303.946624 16091.807283 
L 307.635881 16091.807283 
L 307.635881 114.346991 
L 303.946624 114.346991 
z
" style="fill:#4c72b0;"/>
   </g>
   <g id="patch_61">
    <path clip-path="url(#pcfcc6c23f9)" d="M 307.635881 16091.807283 
L 311.325137 16091.807283 
L 311.325137 127.31693 
L 307.635881 127.31693 
z
" style="fill:#4c72b0;"/>
   </g>
   <g id="patch_62">
    <path clip-path="url(#pcfcc6c23f9)" d="M 311.325137 16091.807283 
L 315.014393 16091.807283 
L 315.014393 116.894999 
L 311.325137 116.894999 
z
" style="fill:#4c72b0;"/>
   </g>
   <g id="patch_63">
    <path clip-path="url(#pcfcc6c23f9)" d="M 315.014393 16091.807283 
L 318.703649 16091.807283 
L 318.703649 16091.807283 
L 315.014393 16091.807283 
z
" style="fill:#4c72b0;"/>
   </g>
   <g id="patch_64">
    <path clip-path="url(#pcfcc6c23f9)" d="M 318.703649 16091.807283 
L 322.392905 16091.807283 
L 322.392905 115.196517 
L 318.703649 115.196517 
z
" style="fill:#4c72b0;"/>
   </g>
   <g id="patch_65">
    <path clip-path="url(#pcfcc6c23f9)" d="M 322.392905 16091.807283 
L 326.082162 16091.807283 
L 326.082162 113.355428 
L 322.392905 113.355428 
z
" style="fill:#4c72b0;"/>
   </g>
   <g id="patch_66">
    <path clip-path="url(#pcfcc6c23f9)" d="M 326.082162 16091.807283 
L 329.771418 16091.807283 
L 329.771418 16091.807283 
L 326.082162 16091.807283 
z
" style="fill:#4c72b0;"/>
   </g>
   <g id="patch_67">
    <path clip-path="url(#pcfcc6c23f9)" d="M 329.771418 16091.807283 
L 333.460674 16091.807283 
L 333.460674 112.695013 
L 329.771418 112.695013 
z
" style="fill:#4c72b0;"/>
   </g>
   <g id="patch_68">
    <path clip-path="url(#pcfcc6c23f9)" d="M 333.460674 16091.807283 
L 337.14993 16091.807283 
L 337.14993 118.636387 
L 333.460674 118.636387 
z
" style="fill:#4c72b0;"/>
   </g>
   <g id="patch_69">
    <path clip-path="url(#pcfcc6c23f9)" d="M 337.14993 16091.807283 
L 340.839186 16091.807283 
L 340.839186 16091.807283 
L 337.14993 16091.807283 
z
" style="fill:#4c72b0;"/>
   </g>
   <g id="patch_70">
    <path clip-path="url(#pcfcc6c23f9)" d="M 340.839186 16091.807283 
L 344.528443 16091.807283 
L 344.528443 114.901616 
L 340.839186 114.901616 
z
" style="fill:#4c72b0;"/>
   </g>
   <g id="patch_71">
    <path clip-path="url(#pcfcc6c23f9)" d="M 344.528443 16091.807283 
L 348.217699 16091.807283 
L 348.217699 132.119828 
L 344.528443 132.119828 
z
" style="fill:#4c72b0;"/>
   </g>
   <g id="patch_72">
    <path clip-path="url(#pcfcc6c23f9)" d="M 348.217699 16091.807283 
L 351.906955 16091.807283 
L 351.906955 136.922727 
L 348.217699 136.922727 
z
" style="fill:#4c72b0;"/>
   </g>
   <g id="patch_73">
    <path clip-path="url(#pcfcc6c23f9)" d="M 351.906955 16091.807283 
L 355.596211 16091.807283 
L 355.596211 123.439286 
L 351.906955 123.439286 
z
" style="fill:#4c72b0;"/>
   </g>
   <g id="patch_74">
    <path clip-path="url(#pcfcc6c23f9)" d="M 355.596211 16091.807283 
L 359.285467 16091.807283 
L 359.285467 115.826871 
L 355.596211 115.826871 
z
" style="fill:#4c72b0;"/>
   </g>
   <g id="patch_75">
    <path clip-path="url(#pcfcc6c23f9)" d="M 359.285467 16091.807283 
L 362.974724 16091.807283 
L 362.974724 136.922727 
L 359.285467 136.922727 
z
" style="fill:#4c72b0;"/>
   </g>
   <g id="patch_76">
    <path clip-path="url(#pcfcc6c23f9)" d="M 362.974724 16091.807283 
L 366.66398 16091.807283 
L 366.66398 125.770742 
L 362.974724 125.770742 
z
" style="fill:#4c72b0;"/>
   </g>
   <g id="patch_77">
    <path clip-path="url(#pcfcc6c23f9)" d="M 366.66398 16091.807283 
L 370.353236 16091.807283 
L 370.353236 112.2873 
L 366.66398 112.2873 
z
" style="fill:#4c72b0;"/>
   </g>
   <g id="patch_78">
    <path clip-path="url(#pcfcc6c23f9)" d="M 370.353236 16091.807283 
L 374.042492 16091.807283 
L 374.042492 16091.807283 
L 370.353236 16091.807283 
z
" style="fill:#4c72b0;"/>
   </g>
   <g id="patch_79">
    <path clip-path="url(#pcfcc6c23f9)" d="M 374.042492 16091.807283 
L 377.731748 16091.807283 
L 377.731748 118.636387 
L 374.042492 118.636387 
z
" style="fill:#4c72b0;"/>
   </g>
   <g id="patch_80">
    <path clip-path="url(#pcfcc6c23f9)" d="M 377.731748 16091.807283 
L 381.421005 16091.807283 
L 381.421005 113.128224 
L 377.731748 113.128224 
z
" style="fill:#4c72b0;"/>
   </g>
   <g id="patch_81">
    <path clip-path="url(#pcfcc6c23f9)" d="M 381.421005 16091.807283 
L 385.110261 16091.807283 
L 385.110261 119.704515 
L 381.421005 119.704515 
z
" style="fill:#4c72b0;"/>
   </g>
   <g id="patch_82">
    <path clip-path="url(#pcfcc6c23f9)" d="M 385.110261 16091.807283 
L 388.799517 16091.807283 
L 388.799517 66.285287 
L 385.110261 66.285287 
z
" style="fill:#4c72b0;"/>
   </g>
   <g id="patch_83">
    <path clip-path="url(#pcfcc6c23f9)" d="M 388.799517 16091.807283 
L 392.488773 16091.807283 
L 392.488773 13.377273 
L 388.799517 13.377273 
z
" style="fill:#4c72b0;"/>
   </g>
   <g id="patch_84">
    <path clip-path="url(#pcfcc6c23f9)" d="M 392.488773 16091.807283 
L 396.178029 16091.807283 
L 396.178029 120.307427 
L 392.488773 120.307427 
z
" style="fill:#4c72b0;"/>
   </g>
   <g id="patch_85">
    <path clip-path="url(#pcfcc6c23f9)" d="M 396.178029 16091.807283 
L 399.867286 16091.807283 
L 399.867286 116.520361 
L 396.178029 116.520361 
z
" style="fill:#4c72b0;"/>
   </g>
   <g id="patch_86">
    <path clip-path="url(#pcfcc6c23f9)" d="M 399.867286 16091.807283 
L 403.556542 16091.807283 
L 403.556542 96.888691 
L 399.867286 96.888691 
z
" style="fill:#4c72b0;"/>
   </g>
   <g id="patch_87">
    <path clip-path="url(#pcfcc6c23f9)" d="M 403.556542 16091.807283 
L 407.245798 16091.807283 
L 407.245798 123.439286 
L 403.556542 123.439286 
z
" style="fill:#4c72b0;"/>
   </g>
   <g id="patch_88">
    <path clip-path="url(#pcfcc6c23f9)" d="M 407.245798 16091.807283 
L 410.935054 16091.807283 
L 410.935054 125.770742 
L 407.245798 125.770742 
z
" style="fill:#4c72b0;"/>
   </g>
   <g id="patch_89">
    <path clip-path="url(#pcfcc6c23f9)" d="M 410.935054 16091.807283 
L 414.62431 16091.807283 
L 414.62431 112.908233 
L 410.935054 112.908233 
z
" style="fill:#4c72b0;"/>
   </g>
   <g id="patch_90">
    <path clip-path="url(#pcfcc6c23f9)" d="M 414.62431 16091.807283 
L 418.313567 16091.807283 
L 418.313567 127.31693 
L 414.62431 127.31693 
z
" style="fill:#4c72b0;"/>
   </g>
   <g id="patch_91">
    <path clip-path="url(#pcfcc6c23f9)" d="M 418.313567 16091.807283 
L 422.002823 16091.807283 
L 422.002823 132.119828 
L 418.313567 132.119828 
z
" style="fill:#4c72b0;"/>
   </g>
   <g id="patch_92">
    <path clip-path="url(#pcfcc6c23f9)" d="M 422.002823 16091.807283 
L 425.692079 16091.807283 
L 425.692079 110.70163 
L 422.002823 110.70163 
z
" style="fill:#4c72b0;"/>
   </g>
   <g id="patch_93">
    <path clip-path="url(#pcfcc6c23f9)" d="M 425.692079 16091.807283 
L 429.381335 16091.807283 
L 429.381335 136.922727 
L 425.692079 136.922727 
z
" style="fill:#4c72b0;"/>
   </g>
   <g id="patch_94">
    <path clip-path="url(#pcfcc6c23f9)" d="M 429.381335 16091.807283 
L 433.070591 16091.807283 
L 433.070591 118.636387 
L 429.381335 118.636387 
z
" style="fill:#4c72b0;"/>
   </g>
   <g id="patch_95">
    <path clip-path="url(#pcfcc6c23f9)" d="M 433.070591 16091.807283 
L 436.759848 16091.807283 
L 436.759848 113.833488 
L 433.070591 113.833488 
z
" style="fill:#4c72b0;"/>
   </g>
   <g id="patch_96">
    <path clip-path="url(#pcfcc6c23f9)" d="M 436.759848 16091.807283 
L 440.449104 16091.807283 
L 440.449104 132.119828 
L 436.759848 132.119828 
z
" style="fill:#4c72b0;"/>
   </g>
   <g id="patch_97">
    <path clip-path="url(#pcfcc6c23f9)" d="M 440.449104 16091.807283 
L 444.13836 16091.807283 
L 444.13836 112.2873 
L 440.449104 112.2873 
z
" style="fill:#4c72b0;"/>
   </g>
   <g id="patch_98">
    <path clip-path="url(#pcfcc6c23f9)" d="M 444.13836 16091.807283 
L 447.827616 16091.807283 
L 447.827616 121.697898 
L 444.13836 121.697898 
z
" style="fill:#4c72b0;"/>
   </g>
   <g id="patch_99">
    <path clip-path="url(#pcfcc6c23f9)" d="M 447.827616 16091.807283 
L 451.516872 16091.807283 
L 451.516872 119.14989 
L 447.827616 119.14989 
z
" style="fill:#4c72b0;"/>
   </g>
   <g id="patch_100">
    <path clip-path="url(#pcfcc6c23f9)" d="M 451.516872 16091.807283 
L 455.206129 16091.807283 
L 455.206129 124.507414 
L 451.516872 124.507414 
z
" style="fill:#4c72b0;"/>
   </g>
   <g id="patch_101">
    <path clip-path="url(#pcfcc6c23f9)" d="M 455.206129 16091.807283 
L 458.895385 16091.807283 
L 458.895385 120.967843 
L 455.206129 120.967843 
z
" style="fill:#4c72b0;"/>
   </g>
   <g id="patch_102">
    <path clip-path="url(#pcfcc6c23f9)" d="M 458.895385 16091.807283 
L 462.584641 16091.807283 
L 462.584641 119.14989 
L 458.895385 119.14989 
z
" style="fill:#4c72b0;"/>
   </g>
   <g id="patch_103">
    <path clip-path="url(#pcfcc6c23f9)" d="M 462.584641 16091.807283 
L 466.273897 16091.807283 
L 466.273897 16091.807283 
L 462.584641 16091.807283 
z
" style="fill:#4c72b0;"/>
   </g>
   <g id="patch_104">
    <path clip-path="url(#pcfcc6c23f9)" d="M 466.273897 16091.807283 
L 469.963153 16091.807283 
L 469.963153 112.092101 
L 466.273897 112.092101 
z
" style="fill:#4c72b0;"/>
   </g>
   <g id="patch_105">
    <path clip-path="url(#pcfcc6c23f9)" d="M 469.963153 16091.807283 
L 473.65241 16091.807283 
L 473.65241 123.439286 
L 469.963153 123.439286 
z
" style="fill:#4c72b0;"/>
   </g>
   <g id="patch_106">
    <path clip-path="url(#pcfcc6c23f9)" d="M 473.65241 16091.807283 
L 477.341666 16091.807283 
L 477.341666 124.507414 
L 473.65241 124.507414 
z
" style="fill:#4c72b0;"/>
   </g>
   <g id="patch_107">
    <path clip-path="url(#pcfcc6c23f9)" d="M 477.341666 16091.807283 
L 481.030922 16091.807283 
L 481.030922 111.362045 
L 477.341666 111.362045 
z
" style="fill:#4c72b0;"/>
   </g>
   <g id="line2d_30">
    <path clip-path="url(#pcfcc6c23f9)" d="M 391.003032 143.1 
L 391.003032 7.2 
" style="fill:none;stroke:#000000;stroke-dasharray:6.475,2.8;stroke-dashoffset:0;stroke-width:1.75;"/>
   </g>
   <g id="patch_108">
    <path d="M 287.344972 143.1 
L 287.344972 7.2 
" style="fill:none;"/>
   </g>
   <g id="patch_109">
    <path d="M 490.254062 143.1 
L 490.254062 7.2 
" style="fill:none;"/>
   </g>
   <g id="patch_110">
    <path d="M 287.344972 143.1 
L 490.254063 143.1 
" style="fill:none;"/>
   </g>
   <g id="patch_111">
    <path d="M 287.344972 7.2 
L 490.254063 7.2 
" style="fill:none;"/>
   </g>
  </g>
  <g id="axes_3">
   <g id="patch_112">
    <path d="M 43.854063 306.18 
L 246.763153 306.18 
L 246.763153 170.28 
L 43.854063 170.28 
z
" style="fill:#eaeaf2;"/>
   </g>
   <g id="matplotlib.axis_5">
    <g id="xtick_7">
     <g id="line2d_31">
      <path clip-path="url(#pe9da06d1bf)" d="M 91.629889 306.18 
L 91.629889 170.28 
" style="fill:none;stroke:#ffffff;stroke-linecap:round;"/>
     </g>
     <g id="line2d_32"/>
     <g id="text_16">
      <!-- −2000 -->
      <g style="fill:#262626;" transform="translate(77.587701 320.426875)scale(0.1 -0.1)">
       <use xlink:href="#LiberationSans-2212"/>
       <use x="58.398438" xlink:href="#LiberationSans-32"/>
       <use x="114.013672" xlink:href="#LiberationSans-30"/>
       <use x="169.628906" xlink:href="#LiberationSans-30"/>
       <use x="225.244141" xlink:href="#LiberationSans-30"/>
      </g>
     </g>
    </g>
    <g id="xtick_8">
     <g id="line2d_33">
      <path clip-path="url(#pe9da06d1bf)" d="M 145.100105 306.18 
L 145.100105 170.28 
" style="fill:none;stroke:#ffffff;stroke-linecap:round;"/>
     </g>
     <g id="line2d_34"/>
     <g id="text_17">
      <!-- 0 -->
      <g style="fill:#262626;" transform="translate(142.319637 320.426875)scale(0.1 -0.1)">
       <use xlink:href="#LiberationSans-30"/>
      </g>
     </g>
    </g>
    <g id="xtick_9">
     <g id="line2d_35">
      <path clip-path="url(#pe9da06d1bf)" d="M 198.570322 306.18 
L 198.570322 170.28 
" style="fill:none;stroke:#ffffff;stroke-linecap:round;"/>
     </g>
     <g id="line2d_36"/>
     <g id="text_18">
      <!-- 2000 -->
      <g style="fill:#262626;" transform="translate(187.448447 320.426875)scale(0.1 -0.1)">
       <use xlink:href="#LiberationSans-32"/>
       <use x="55.615234" xlink:href="#LiberationSans-30"/>
       <use x="111.230469" xlink:href="#LiberationSans-30"/>
       <use x="166.845703" xlink:href="#LiberationSans-30"/>
      </g>
     </g>
    </g>
    <g id="text_19">
     <!-- Longitude -->
     <defs>
      <path d="M 8.203125 0 
L 8.203125 68.796875 
L 17.53125 68.796875 
L 17.53125 7.625 
L 52.296875 7.625 
L 52.296875 0 
z
" id="LiberationSans-4c"/>
      <path d="M 51.421875 26.46875 
Q 51.421875 12.59375 45.3125 5.796875 
Q 39.203125 -0.984375 27.59375 -0.984375 
Q 22.078125 -0.984375 17.71875 0.671875 
Q 13.375 2.34375 10.375 5.765625 
Q 7.375 9.1875 5.78125 14.328125 
Q 4.203125 19.484375 4.203125 26.46875 
Q 4.203125 53.8125 27.875 53.8125 
Q 34.03125 53.8125 38.5 52.09375 
Q 42.96875 50.390625 45.828125 46.96875 
Q 48.6875 43.5625 50.046875 38.421875 
Q 51.421875 33.296875 51.421875 26.46875 
z
M 42.1875 26.46875 
Q 42.1875 32.625 41.234375 36.625 
Q 40.28125 40.625 38.453125 43.015625 
Q 36.625 45.40625 33.984375 46.359375 
Q 31.34375 47.3125 28.03125 47.3125 
Q 24.65625 47.3125 21.9375 46.3125 
Q 19.234375 45.3125 17.328125 42.890625 
Q 15.4375 40.484375 14.421875 36.46875 
Q 13.421875 32.46875 13.421875 26.46875 
Q 13.421875 20.3125 14.5 16.28125 
Q 15.578125 12.25 17.453125 9.859375 
Q 19.34375 7.46875 21.90625 6.484375 
Q 24.46875 5.515625 27.484375 5.515625 
Q 30.859375 5.515625 33.59375 6.46875 
Q 36.328125 7.421875 38.234375 9.8125 
Q 40.140625 12.203125 41.15625 16.25 
Q 42.1875 20.3125 42.1875 26.46875 
z
" id="LiberationSans-6f"/>
      <path d="M 40.28125 0 
L 40.28125 33.5 
Q 40.28125 37.359375 39.71875 39.9375 
Q 39.15625 42.53125 37.890625 44.109375 
Q 36.625 45.703125 34.546875 46.359375 
Q 32.46875 47.015625 29.390625 47.015625 
Q 26.265625 47.015625 23.75 45.921875 
Q 21.234375 44.828125 19.453125 42.75 
Q 17.671875 40.671875 16.6875 37.625 
Q 15.71875 34.578125 15.71875 30.609375 
L 15.71875 0 
L 6.9375 0 
L 6.9375 41.546875 
Q 6.9375 43.21875 6.90625 45.046875 
Q 6.890625 46.875 6.828125 48.5 
Q 6.78125 50.140625 6.734375 51.3125 
Q 6.6875 52.484375 6.640625 52.828125 
L 14.9375 52.828125 
Q 14.984375 52.59375 15.03125 51.515625 
Q 15.09375 50.4375 15.15625 49.046875 
Q 15.234375 47.65625 15.28125 46.21875 
Q 15.328125 44.78125 15.328125 43.796875 
L 15.484375 43.796875 
Q 16.75 46.09375 18.265625 47.953125 
Q 19.78125 49.8125 21.78125 51.09375 
Q 23.78125 52.390625 26.359375 53.09375 
Q 28.953125 53.8125 32.375 53.8125 
Q 36.765625 53.8125 39.9375 52.734375 
Q 43.109375 51.65625 45.15625 49.40625 
Q 47.21875 47.171875 48.171875 43.625 
Q 49.125 40.09375 49.125 35.203125 
L 49.125 0 
z
" id="LiberationSans-6e"/>
      <path d="M 26.765625 -20.75 
Q 22.21875 -20.75 18.703125 -19.8125 
Q 15.1875 -18.890625 12.6875 -17.15625 
Q 10.203125 -15.4375 8.640625 -13.03125 
Q 7.078125 -10.640625 6.390625 -7.71875 
L 15.234375 -6.453125 
Q 16.109375 -10.109375 19.109375 -12.078125 
Q 22.125 -14.0625 27 -14.0625 
Q 29.984375 -14.0625 32.421875 -13.234375 
Q 34.859375 -12.40625 36.5625 -10.5625 
Q 38.28125 -8.734375 39.203125 -5.796875 
Q 40.140625 -2.875 40.140625 1.3125 
L 40.140625 9.8125 
L 40.046875 9.8125 
Q 39.0625 7.8125 37.625 5.984375 
Q 36.1875 4.15625 34.109375 2.734375 
Q 32.03125 1.3125 29.296875 0.453125 
Q 26.5625 -0.390625 23.046875 -0.390625 
Q 18.015625 -0.390625 14.421875 1.296875 
Q 10.84375 2.984375 8.5625 6.34375 
Q 6.296875 9.71875 5.25 14.71875 
Q 4.203125 19.734375 4.203125 26.3125 
Q 4.203125 32.671875 5.25 37.75 
Q 6.296875 42.828125 8.65625 46.359375 
Q 11.03125 49.90625 14.8125 51.78125 
Q 18.609375 53.65625 24.03125 53.65625 
Q 29.640625 53.65625 33.765625 51.09375 
Q 37.890625 48.53125 40.140625 43.796875 
L 40.234375 43.796875 
Q 40.234375 45.015625 40.296875 46.53125 
Q 40.375 48.046875 40.453125 49.390625 
Q 40.53125 50.734375 40.625 51.703125 
Q 40.71875 52.6875 40.828125 52.828125 
L 49.171875 52.828125 
Q 49.125 52.390625 49.078125 51.34375 
Q 49.03125 50.296875 48.96875 48.828125 
Q 48.921875 47.359375 48.890625 45.578125 
Q 48.875 43.796875 48.875 41.890625 
L 48.875 1.515625 
Q 48.875 -9.578125 43.421875 -15.15625 
Q 37.984375 -20.75 26.765625 -20.75 
z
M 40.140625 26.421875 
Q 40.140625 31.9375 38.9375 35.859375 
Q 37.75 39.796875 35.796875 42.28125 
Q 33.84375 44.78125 31.328125 45.953125 
Q 28.8125 47.125 26.171875 47.125 
Q 22.796875 47.125 20.375 45.953125 
Q 17.96875 44.78125 16.375 42.265625 
Q 14.796875 39.75 14.03125 35.8125 
Q 13.28125 31.890625 13.28125 26.421875 
Q 13.28125 20.703125 14.03125 16.8125 
Q 14.796875 12.9375 16.359375 10.546875 
Q 17.921875 8.15625 20.3125 7.125 
Q 22.703125 6.109375 26.03125 6.109375 
Q 28.65625 6.109375 31.171875 7.21875 
Q 33.6875 8.34375 35.6875 10.78125 
Q 37.703125 13.234375 38.921875 17.09375 
Q 40.140625 20.953125 40.140625 26.421875 
z
" id="LiberationSans-67"/>
      <path d="M 27.046875 0.390625 
Q 25.046875 -0.140625 22.96875 -0.453125 
Q 20.90625 -0.78125 18.171875 -0.78125 
Q 7.625 -0.78125 7.625 11.1875 
L 7.625 46.4375 
L 1.515625 46.4375 
L 1.515625 52.828125 
L 7.953125 52.828125 
L 10.546875 64.65625 
L 16.40625 64.65625 
L 16.40625 52.828125 
L 26.171875 52.828125 
L 26.171875 46.4375 
L 16.40625 46.4375 
L 16.40625 13.09375 
Q 16.40625 9.28125 17.640625 7.734375 
Q 18.890625 6.203125 21.96875 6.203125 
Q 23.25 6.203125 24.4375 6.390625 
Q 25.640625 6.59375 27.046875 6.890625 
z
" id="LiberationSans-74"/>
      <path d="M 40.09375 8.5 
Q 37.640625 3.421875 33.609375 1.21875 
Q 29.59375 -0.984375 23.640625 -0.984375 
Q 13.625 -0.984375 8.90625 5.75 
Q 4.203125 12.5 4.203125 26.171875 
Q 4.203125 53.8125 23.640625 53.8125 
Q 29.640625 53.8125 33.640625 51.609375 
Q 37.640625 49.421875 40.09375 44.625 
L 40.1875 44.625 
Q 40.1875 45.125 40.15625 46.171875 
Q 40.140625 47.21875 40.109375 48.359375 
Q 40.09375 49.515625 40.09375 50.53125 
Q 40.09375 51.5625 40.09375 52 
L 40.09375 72.46875 
L 48.875 72.46875 
L 48.875 10.890625 
Q 48.875 8.984375 48.890625 7.21875 
Q 48.921875 5.46875 48.96875 4 
Q 49.03125 2.546875 49.078125 1.484375 
Q 49.125 0.4375 49.171875 0 
L 40.765625 0 
Q 40.671875 0.484375 40.59375 1.390625 
Q 40.53125 2.296875 40.453125 3.46875 
Q 40.375 4.640625 40.328125 5.9375 
Q 40.28125 7.234375 40.28125 8.5 
z
M 13.421875 26.46875 
Q 13.421875 21 14.109375 17.09375 
Q 14.796875 13.1875 16.3125 10.671875 
Q 17.828125 8.15625 20.171875 6.984375 
Q 22.515625 5.8125 25.875 5.8125 
Q 29.34375 5.8125 32 6.9375 
Q 34.671875 8.0625 36.453125 10.578125 
Q 38.234375 13.09375 39.15625 17.140625 
Q 40.09375 21.1875 40.09375 27.046875 
Q 40.09375 32.671875 39.15625 36.546875 
Q 38.234375 40.4375 36.421875 42.828125 
Q 34.625 45.21875 32 46.265625 
Q 29.390625 47.3125 25.984375 47.3125 
Q 22.75 47.3125 20.40625 46.1875 
Q 18.0625 45.0625 16.5 42.578125 
Q 14.9375 40.09375 14.171875 36.109375 
Q 13.421875 32.125 13.421875 26.46875 
z
" id="LiberationSans-64"/>
      <path d="M 13.484375 24.5625 
Q 13.484375 20.40625 14.328125 16.90625 
Q 15.1875 13.421875 16.96875 10.90625 
Q 18.75 8.40625 21.53125 7 
Q 24.3125 5.609375 28.21875 5.609375 
Q 33.9375 5.609375 37.375 7.90625 
Q 40.828125 10.203125 42.046875 13.71875 
L 49.75 11.53125 
Q 48.921875 9.328125 47.4375 7.109375 
Q 45.953125 4.890625 43.453125 3.09375 
Q 40.96875 1.3125 37.234375 0.15625 
Q 33.5 -0.984375 28.21875 -0.984375 
Q 16.5 -0.984375 10.375 6 
Q 4.25 12.984375 4.25 26.765625 
Q 4.25 34.1875 6.09375 39.328125 
Q 7.953125 44.484375 11.171875 47.703125 
Q 14.40625 50.921875 18.703125 52.359375 
Q 23 53.8125 27.875 53.8125 
Q 34.515625 53.8125 38.984375 51.65625 
Q 43.453125 49.515625 46.15625 45.71875 
Q 48.875 41.9375 50.015625 36.8125 
Q 51.171875 31.6875 51.171875 25.734375 
L 51.171875 24.5625 
z
M 42.09375 31.296875 
Q 41.359375 39.65625 37.84375 43.484375 
Q 34.328125 47.3125 27.734375 47.3125 
Q 25.53125 47.3125 23.109375 46.609375 
Q 20.703125 45.90625 18.65625 44.09375 
Q 16.609375 42.28125 15.1875 39.171875 
Q 13.765625 36.078125 13.578125 31.296875 
z
" id="LiberationSans-65"/>
     </defs>
     <g style="fill:#262626;" transform="translate(121.148999 334.473437)scale(0.11 -0.11)">
      <use xlink:href="#LiberationSans-4c"/>
      <use x="55.615234" xlink:href="#LiberationSans-6f"/>
      <use x="111.230469" xlink:href="#LiberationSans-6e"/>
      <use x="166.845703" xlink:href="#LiberationSans-67"/>
      <use x="222.460938" xlink:href="#LiberationSans-69"/>
      <use x="244.677734" xlink:href="#LiberationSans-74"/>
      <use x="272.460938" xlink:href="#LiberationSans-75"/>
      <use x="328.076172" xlink:href="#LiberationSans-64"/>
      <use x="383.691406" xlink:href="#LiberationSans-65"/>
     </g>
    </g>
   </g>
   <g id="matplotlib.axis_6">
    <g id="ytick_9">
     <g id="line2d_37">
      <path clip-path="url(#pe9da06d1bf)" d="M 43.854063 284.047839 
L 246.763153 284.047839 
" style="fill:none;stroke:#ffffff;stroke-linecap:round;"/>
     </g>
     <g id="line2d_38"/>
     <g id="text_20">
      <!-- $\mathdefault{10^{1}}$ -->
      <g style="fill:#262626;" transform="translate(21.454063 287.671277)scale(0.1 -0.1)">
       <use transform="translate(0 0.8625)" xlink:href="#LiberationSans-31"/>
       <use transform="translate(55.615234 0.8625)" xlink:href="#LiberationSans-30"/>
       <use transform="translate(112.154961 37.842188)scale(0.7)" xlink:href="#LiberationSans-31"/>
      </g>
     </g>
    </g>
    <g id="ytick_10">
     <g id="line2d_39">
      <path clip-path="url(#pe9da06d1bf)" d="M 43.854063 252.138063 
L 246.763153 252.138063 
" style="fill:none;stroke:#ffffff;stroke-linecap:round;"/>
     </g>
     <g id="line2d_40"/>
     <g id="text_21">
      <!-- $\mathdefault{10^{3}}$ -->
      <g style="fill:#262626;" transform="translate(21.454063 255.7615)scale(0.1 -0.1)">
       <use transform="translate(0 0.140625)" xlink:href="#LiberationSans-31"/>
       <use transform="translate(55.615234 0.140625)" xlink:href="#LiberationSans-30"/>
       <use transform="translate(112.154961 37.120312)scale(0.7)" xlink:href="#LiberationSans-33"/>
      </g>
     </g>
    </g>
    <g id="ytick_11">
     <g id="line2d_41">
      <path clip-path="url(#pe9da06d1bf)" d="M 43.854063 220.228287 
L 246.763153 220.228287 
" style="fill:none;stroke:#ffffff;stroke-linecap:round;"/>
     </g>
     <g id="line2d_42"/>
     <g id="text_22">
      <!-- $\mathdefault{10^{5}}$ -->
      <g style="fill:#262626;" transform="translate(21.454063 223.851724)scale(0.1 -0.1)">
       <use transform="translate(0 0.8625)" xlink:href="#LiberationSans-31"/>
       <use transform="translate(55.615234 0.8625)" xlink:href="#LiberationSans-30"/>
       <use transform="translate(112.154961 37.842188)scale(0.7)" xlink:href="#LiberationSans-35"/>
      </g>
     </g>
    </g>
    <g id="ytick_12">
     <g id="line2d_43">
      <path clip-path="url(#pe9da06d1bf)" d="M 43.854063 188.31851 
L 246.763153 188.31851 
" style="fill:none;stroke:#ffffff;stroke-linecap:round;"/>
     </g>
     <g id="line2d_44"/>
     <g id="text_23">
      <!-- $\mathdefault{10^{7}}$ -->
      <g style="fill:#262626;" transform="translate(21.454063 191.941948)scale(0.1 -0.1)">
       <use transform="translate(0 0.8625)" xlink:href="#LiberationSans-31"/>
       <use transform="translate(55.615234 0.8625)" xlink:href="#LiberationSans-30"/>
       <use transform="translate(112.154961 37.842188)scale(0.7)" xlink:href="#LiberationSans-37"/>
      </g>
     </g>
    </g>
    <g id="text_24">
     <!-- Dropoff -->
     <defs>
      <path d="M 67.4375 35.109375 
Q 67.4375 26.515625 64.84375 19.9375 
Q 62.25 13.375 57.75 8.953125 
Q 53.265625 4.546875 47.140625 2.265625 
Q 41.015625 0 33.9375 0 
L 8.203125 0 
L 8.203125 68.796875 
L 30.953125 68.796875 
Q 38.921875 68.796875 45.625 66.8125 
Q 52.34375 64.84375 57.171875 60.71875 
Q 62.015625 56.59375 64.71875 50.234375 
Q 67.4375 43.890625 67.4375 35.109375 
z
M 58.0625 35.109375 
Q 58.0625 42.09375 56.046875 47.046875 
Q 54.046875 52 50.4375 55.171875 
Q 46.828125 58.34375 41.796875 59.828125 
Q 36.765625 61.328125 30.765625 61.328125 
L 17.53125 61.328125 
L 17.53125 7.46875 
L 32.859375 7.46875 
Q 38.28125 7.46875 42.890625 9.21875 
Q 47.515625 10.984375 50.875 14.453125 
Q 54.25 17.921875 56.15625 23.09375 
Q 58.0625 28.265625 58.0625 35.109375 
z
" id="LiberationSans-44"/>
      <path d="M 6.9375 0 
L 6.9375 40.53125 
Q 6.9375 42.1875 6.90625 43.921875 
Q 6.890625 45.65625 6.828125 47.265625 
Q 6.78125 48.875 6.734375 50.28125 
Q 6.6875 51.703125 6.640625 52.828125 
L 14.9375 52.828125 
Q 14.984375 51.703125 15.0625 50.265625 
Q 15.140625 48.828125 15.203125 47.3125 
Q 15.28125 45.796875 15.296875 44.40625 
Q 15.328125 43.015625 15.328125 42.046875 
L 15.53125 42.046875 
Q 16.453125 45.0625 17.5 47.28125 
Q 18.5625 49.515625 19.96875 50.953125 
Q 21.390625 52.390625 23.34375 53.09375 
Q 25.296875 53.8125 28.078125 53.8125 
Q 29.15625 53.8125 30.125 53.640625 
Q 31.109375 53.46875 31.640625 53.328125 
L 31.640625 45.265625 
Q 30.765625 45.515625 29.59375 45.625 
Q 28.421875 45.75 26.953125 45.75 
Q 23.921875 45.75 21.796875 44.375 
Q 19.671875 43.015625 18.328125 40.59375 
Q 17 38.1875 16.359375 34.84375 
Q 15.71875 31.5 15.71875 27.546875 
L 15.71875 0 
z
" id="LiberationSans-72"/>
      <path d="M 17.625 46.4375 
L 17.625 0 
L 8.84375 0 
L 8.84375 46.4375 
L 1.421875 46.4375 
L 1.421875 52.828125 
L 8.84375 52.828125 
L 8.84375 58.796875 
Q 8.84375 61.671875 9.375 64.140625 
Q 9.90625 66.609375 11.34375 68.4375 
Q 12.796875 70.265625 15.28125 71.3125 
Q 17.78125 72.359375 21.734375 72.359375 
Q 23.296875 72.359375 24.96875 72.21875 
Q 26.65625 72.078125 27.9375 71.78125 
L 27.9375 65.09375 
Q 27.09375 65.234375 26 65.359375 
Q 24.90625 65.484375 24.03125 65.484375 
Q 22.078125 65.484375 20.828125 64.9375 
Q 19.578125 64.40625 18.875 63.40625 
Q 18.171875 62.40625 17.890625 60.9375 
Q 17.625 59.46875 17.625 57.5625 
L 17.625 52.828125 
L 27.9375 52.828125 
L 27.9375 46.4375 
z
" id="LiberationSans-66"/>
     </defs>
     <g style="fill:#262626;" transform="translate(15.171563 256.263984)rotate(-90)scale(0.11 -0.11)">
      <use xlink:href="#LiberationSans-44"/>
      <use x="72.216797" xlink:href="#LiberationSans-72"/>
      <use x="105.517578" xlink:href="#LiberationSans-6f"/>
      <use x="161.132812" xlink:href="#LiberationSans-70"/>
      <use x="216.748047" xlink:href="#LiberationSans-6f"/>
      <use x="272.363281" xlink:href="#LiberationSans-66"/>
      <use x="300.130859" xlink:href="#LiberationSans-66"/>
     </g>
    </g>
   </g>
   <g id="patch_113">
    <path clip-path="url(#pe9da06d1bf)" d="M 53.077203 16254.89087 
L 56.766459 16254.89087 
L 56.766459 273.035838 
L 53.077203 273.035838 
z
" style="fill:#4c72b0;"/>
   </g>
   <g id="patch_114">
    <path clip-path="url(#pe9da06d1bf)" d="M 56.766459 16254.89087 
L 60.455715 16254.89087 
L 60.455715 16254.89087 
L 56.766459 16254.89087 
z
" style="fill:#4c72b0;"/>
   </g>
   <g id="patch_115">
    <path clip-path="url(#pe9da06d1bf)" d="M 60.455715 16254.89087 
L 64.144972 16254.89087 
L 64.144972 286.519283 
L 60.455715 286.519283 
z
" style="fill:#4c72b0;"/>
   </g>
   <g id="patch_116">
    <path clip-path="url(#pe9da06d1bf)" d="M 64.144972 16254.89087 
L 67.834228 16254.89087 
L 67.834228 276.670331 
L 64.144972 276.670331 
z
" style="fill:#4c72b0;"/>
   </g>
   <g id="patch_117">
    <path clip-path="url(#pe9da06d1bf)" d="M 67.834228 16254.89087 
L 71.523484 16254.89087 
L 71.523484 300.002727 
L 67.834228 300.002727 
z
" style="fill:#4c72b0;"/>
   </g>
   <g id="patch_118">
    <path clip-path="url(#pe9da06d1bf)" d="M 71.523484 16254.89087 
L 75.21274 16254.89087 
L 75.21274 282.229886 
L 71.523484 282.229886 
z
" style="fill:#4c72b0;"/>
   </g>
   <g id="patch_119">
    <path clip-path="url(#pe9da06d1bf)" d="M 75.21274 16254.89087 
L 78.901996 16254.89087 
L 78.901996 283.387423 
L 75.21274 283.387423 
z
" style="fill:#4c72b0;"/>
   </g>
   <g id="patch_120">
    <path clip-path="url(#pe9da06d1bf)" d="M 78.901996 16254.89087 
L 82.591253 16254.89087 
L 82.591253 288.850739 
L 78.901996 288.850739 
z
" style="fill:#4c72b0;"/>
   </g>
   <g id="patch_121">
    <path clip-path="url(#pe9da06d1bf)" d="M 82.591253 16254.89087 
L 86.280509 16254.89087 
L 86.280509 279.600357 
L 82.591253 279.600357 
z
" style="fill:#4c72b0;"/>
   </g>
   <g id="patch_122">
    <path clip-path="url(#pe9da06d1bf)" d="M 86.280509 16254.89087 
L 89.969765 16254.89087 
L 89.969765 283.387423 
L 86.280509 283.387423 
z
" style="fill:#4c72b0;"/>
   </g>
   <g id="patch_123">
    <path clip-path="url(#pe9da06d1bf)" d="M 89.969765 16254.89087 
L 93.659021 16254.89087 
L 93.659021 278.584524 
L 89.969765 278.584524 
z
" style="fill:#4c72b0;"/>
   </g>
   <g id="patch_124">
    <path clip-path="url(#pe9da06d1bf)" d="M 93.659021 16254.89087 
L 97.348277 16254.89087 
L 97.348277 287.587411 
L 93.659021 287.587411 
z
" style="fill:#4c72b0;"/>
   </g>
   <g id="patch_125">
    <path clip-path="url(#pe9da06d1bf)" d="M 97.348277 16254.89087 
L 101.037534 16254.89087 
L 101.037534 278.906866 
L 97.348277 278.906866 
z
" style="fill:#4c72b0;"/>
   </g>
   <g id="patch_126">
    <path clip-path="url(#pe9da06d1bf)" d="M 101.037534 16254.89087 
L 104.72679 16254.89087 
L 104.72679 282.229886 
L 101.037534 282.229886 
z
" style="fill:#4c72b0;"/>
   </g>
   <g id="patch_127">
    <path clip-path="url(#pe9da06d1bf)" d="M 104.72679 16254.89087 
L 108.416046 16254.89087 
L 108.416046 286.519283 
L 104.72679 286.519283 
z
" style="fill:#4c72b0;"/>
   </g>
   <g id="patch_128">
    <path clip-path="url(#pe9da06d1bf)" d="M 108.416046 16254.89087 
L 112.105302 16254.89087 
L 112.105302 273.781624 
L 108.416046 273.781624 
z
" style="fill:#4c72b0;"/>
   </g>
   <g id="patch_129">
    <path clip-path="url(#pe9da06d1bf)" d="M 112.105302 16254.89087 
L 115.794558 16254.89087 
L 115.794558 272.624086 
L 112.105302 272.624086 
z
" style="fill:#4c72b0;"/>
   </g>
   <g id="patch_130">
    <path clip-path="url(#pe9da06d1bf)" d="M 115.794558 16254.89087 
L 119.483815 16254.89087 
L 119.483815 292.390311 
L 115.794558 292.390311 
z
" style="fill:#4c72b0;"/>
   </g>
   <g id="patch_131">
    <path clip-path="url(#pe9da06d1bf)" d="M 119.483815 16254.89087 
L 123.173071 16254.89087 
L 123.173071 277.426986 
L 119.483815 277.426986 
z
" style="fill:#4c72b0;"/>
   </g>
   <g id="patch_132">
    <path clip-path="url(#pe9da06d1bf)" d="M 123.173071 16254.89087 
L 126.862327 16254.89087 
L 126.862327 257.066823 
L 123.173071 257.066823 
z
" style="fill:#4c72b0;"/>
   </g>
   <g id="patch_133">
    <path clip-path="url(#pe9da06d1bf)" d="M 126.862327 16254.89087 
L 130.551583 16254.89087 
L 130.551583 280.791128 
L 126.862327 280.791128 
z
" style="fill:#4c72b0;"/>
   </g>
   <g id="patch_134">
    <path clip-path="url(#pe9da06d1bf)" d="M 130.551583 16254.89087 
L 134.240839 16254.89087 
L 134.240839 287.587411 
L 130.551583 287.587411 
z
" style="fill:#4c72b0;"/>
   </g>
   <g id="patch_135">
    <path clip-path="url(#pe9da06d1bf)" d="M 134.240839 16254.89087 
L 137.930096 16254.89087 
L 137.930096 275.568152 
L 134.240839 275.568152 
z
" style="fill:#4c72b0;"/>
   </g>
   <g id="patch_136">
    <path clip-path="url(#pe9da06d1bf)" d="M 137.930096 16254.89087 
L 141.619352 16254.89087 
L 141.619352 275.988228 
L 137.930096 275.988228 
z
" style="fill:#4c72b0;"/>
   </g>
   <g id="patch_137">
    <path clip-path="url(#pe9da06d1bf)" d="M 141.619352 16254.89087 
L 145.308608 16254.89087 
L 145.308608 176.457273 
L 141.619352 176.457273 
z
" style="fill:#4c72b0;"/>
   </g>
   <g id="patch_138">
    <path clip-path="url(#pe9da06d1bf)" d="M 145.308608 16254.89087 
L 148.997864 16254.89087 
L 148.997864 229.362941 
L 145.308608 229.362941 
z
" style="fill:#4c72b0;"/>
   </g>
   <g id="patch_139">
    <path clip-path="url(#pe9da06d1bf)" d="M 148.997864 16254.89087 
L 152.68712 16254.89087 
L 152.68712 287.587411 
L 148.997864 287.587411 
z
" style="fill:#4c72b0;"/>
   </g>
   <g id="patch_140">
    <path clip-path="url(#pe9da06d1bf)" d="M 152.68712 16254.89087 
L 156.376377 16254.89087 
L 156.376377 275.988228 
L 152.68712 275.988228 
z
" style="fill:#4c72b0;"/>
   </g>
   <g id="patch_141">
    <path clip-path="url(#pe9da06d1bf)" d="M 156.376377 16254.89087 
L 160.065633 16254.89087 
L 160.065633 278.906866 
L 156.376377 278.906866 
z
" style="fill:#4c72b0;"/>
   </g>
   <g id="patch_142">
    <path clip-path="url(#pe9da06d1bf)" d="M 160.065633 16254.89087 
L 163.754889 16254.89087 
L 163.754889 300.002727 
L 160.065633 300.002727 
z
" style="fill:#4c72b0;"/>
   </g>
   <g id="patch_143">
    <path clip-path="url(#pe9da06d1bf)" d="M 163.754889 16254.89087 
L 167.444145 16254.89087 
L 167.444145 277.981611 
L 163.754889 277.981611 
z
" style="fill:#4c72b0;"/>
   </g>
   <g id="patch_144">
    <path clip-path="url(#pe9da06d1bf)" d="M 167.444145 16254.89087 
L 171.133401 16254.89087 
L 171.133401 290.396927 
L 167.444145 290.396927 
z
" style="fill:#4c72b0;"/>
   </g>
   <g id="patch_145">
    <path clip-path="url(#pe9da06d1bf)" d="M 171.133401 16254.89087 
L 174.822658 16254.89087 
L 174.822658 16254.89087 
L 171.133401 16254.89087 
z
" style="fill:#4c72b0;"/>
   </g>
   <g id="patch_146">
    <path clip-path="url(#pe9da06d1bf)" d="M 174.822658 16254.89087 
L 178.511914 16254.89087 
L 178.511914 279.600357 
L 174.822658 279.600357 
z
" style="fill:#4c72b0;"/>
   </g>
   <g id="patch_147">
    <path clip-path="url(#pe9da06d1bf)" d="M 178.511914 16254.89087 
L 182.20117 16254.89087 
L 182.20117 284.777895 
L 178.511914 284.777895 
z
" style="fill:#4c72b0;"/>
   </g>
   <g id="patch_148">
    <path clip-path="url(#pe9da06d1bf)" d="M 182.20117 16254.89087 
L 185.890426 16254.89087 
L 185.890426 300.002727 
L 182.20117 300.002727 
z
" style="fill:#4c72b0;"/>
   </g>
   <g id="patch_149">
    <path clip-path="url(#pe9da06d1bf)" d="M 185.890426 16254.89087 
L 189.579682 16254.89087 
L 189.579682 287.587411 
L 185.890426 287.587411 
z
" style="fill:#4c72b0;"/>
   </g>
   <g id="patch_150">
    <path clip-path="url(#pe9da06d1bf)" d="M 189.579682 16254.89087 
L 193.268939 16254.89087 
L 193.268939 279.600357 
L 189.579682 279.600357 
z
" style="fill:#4c72b0;"/>
   </g>
   <g id="patch_151">
    <path clip-path="url(#pe9da06d1bf)" d="M 193.268939 16254.89087 
L 196.958195 16254.89087 
L 196.958195 16254.89087 
L 193.268939 16254.89087 
z
" style="fill:#4c72b0;"/>
   </g>
   <g id="patch_152">
    <path clip-path="url(#pe9da06d1bf)" d="M 196.958195 16254.89087 
L 200.647451 16254.89087 
L 200.647451 280.791128 
L 196.958195 280.791128 
z
" style="fill:#4c72b0;"/>
   </g>
   <g id="patch_153">
    <path clip-path="url(#pe9da06d1bf)" d="M 200.647451 16254.89087 
L 204.336707 16254.89087 
L 204.336707 275.988228 
L 200.647451 275.988228 
z
" style="fill:#4c72b0;"/>
   </g>
   <g id="patch_154">
    <path clip-path="url(#pe9da06d1bf)" d="M 204.336707 16254.89087 
L 208.025963 16254.89087 
L 208.025963 16254.89087 
L 204.336707 16254.89087 
z
" style="fill:#4c72b0;"/>
   </g>
   <g id="patch_155">
    <path clip-path="url(#pe9da06d1bf)" d="M 208.025963 16254.89087 
L 211.71522 16254.89087 
L 211.71522 277.981611 
L 208.025963 277.981611 
z
" style="fill:#4c72b0;"/>
   </g>
   <g id="patch_156">
    <path clip-path="url(#pe9da06d1bf)" d="M 211.71522 16254.89087 
L 215.404476 16254.89087 
L 215.404476 277.981611 
L 211.71522 277.981611 
z
" style="fill:#4c72b0;"/>
   </g>
   <g id="patch_157">
    <path clip-path="url(#pe9da06d1bf)" d="M 215.404476 16254.89087 
L 219.093732 16254.89087 
L 219.093732 16254.89087 
L 215.404476 16254.89087 
z
" style="fill:#4c72b0;"/>
   </g>
   <g id="patch_158">
    <path clip-path="url(#pe9da06d1bf)" d="M 219.093732 16254.89087 
L 222.782988 16254.89087 
L 222.782988 279.244939 
L 219.093732 279.244939 
z
" style="fill:#4c72b0;"/>
   </g>
   <g id="patch_159">
    <path clip-path="url(#pe9da06d1bf)" d="M 222.782988 16254.89087 
L 226.472244 16254.89087 
L 226.472244 300.002727 
L 222.782988 300.002727 
z
" style="fill:#4c72b0;"/>
   </g>
   <g id="patch_160">
    <path clip-path="url(#pe9da06d1bf)" d="M 226.472244 16254.89087 
L 230.161501 16254.89087 
L 230.161501 285.594028 
L 226.472244 285.594028 
z
" style="fill:#4c72b0;"/>
   </g>
   <g id="patch_161">
    <path clip-path="url(#pe9da06d1bf)" d="M 230.161501 16254.89087 
L 233.850757 16254.89087 
L 233.850757 295.199827 
L 230.161501 295.199827 
z
" style="fill:#4c72b0;"/>
   </g>
   <g id="patch_162">
    <path clip-path="url(#pe9da06d1bf)" d="M 233.850757 16254.89087 
L 237.540013 16254.89087 
L 237.540013 277.981611 
L 233.850757 277.981611 
z
" style="fill:#4c72b0;"/>
   </g>
   <g id="line2d_45">
    <path clip-path="url(#pe9da06d1bf)" d="M 143.121707 306.18 
L 143.121707 170.28 
" style="fill:none;stroke:#000000;stroke-dasharray:6.475,2.8;stroke-dashoffset:0;stroke-width:1.75;"/>
   </g>
   <g id="patch_163">
    <path d="M 43.854063 306.18 
L 43.854063 170.28 
" style="fill:none;"/>
   </g>
   <g id="patch_164">
    <path d="M 246.763153 306.18 
L 246.763153 170.28 
" style="fill:none;"/>
   </g>
   <g id="patch_165">
    <path d="M 43.854062 306.18 
L 246.763153 306.18 
" style="fill:none;"/>
   </g>
   <g id="patch_166">
    <path d="M 43.854062 170.28 
L 246.763153 170.28 
" style="fill:none;"/>
   </g>
  </g>
  <g id="axes_4">
   <g id="patch_167">
    <path d="M 287.344972 306.18 
L 490.254062 306.18 
L 490.254062 170.28 
L 287.344972 170.28 
z
" style="fill:#eaeaf2;"/>
   </g>
   <g id="matplotlib.axis_7">
    <g id="xtick_10">
     <g id="line2d_46">
      <path clip-path="url(#p2bd5dc239f)" d="M 336.868289 306.18 
L 336.868289 170.28 
" style="fill:none;stroke:#ffffff;stroke-linecap:round;"/>
     </g>
     <g id="line2d_47"/>
     <g id="text_25">
      <!-- −2000 -->
      <g style="fill:#262626;" transform="translate(322.826102 320.426875)scale(0.1 -0.1)">
       <use xlink:href="#LiberationSans-2212"/>
       <use x="58.398438" xlink:href="#LiberationSans-32"/>
       <use x="114.013672" xlink:href="#LiberationSans-30"/>
       <use x="169.628906" xlink:href="#LiberationSans-30"/>
       <use x="225.244141" xlink:href="#LiberationSans-30"/>
      </g>
     </g>
    </g>
    <g id="xtick_11">
     <g id="line2d_48">
      <path clip-path="url(#p2bd5dc239f)" d="M 388.939512 306.18 
L 388.939512 170.28 
" style="fill:none;stroke:#ffffff;stroke-linecap:round;"/>
     </g>
     <g id="line2d_49"/>
     <g id="text_26">
      <!-- 0 -->
      <g style="fill:#262626;" transform="translate(386.159044 320.426875)scale(0.1 -0.1)">
       <use xlink:href="#LiberationSans-30"/>
      </g>
     </g>
    </g>
    <g id="xtick_12">
     <g id="line2d_50">
      <path clip-path="url(#p2bd5dc239f)" d="M 441.010736 306.18 
L 441.010736 170.28 
" style="fill:none;stroke:#ffffff;stroke-linecap:round;"/>
     </g>
     <g id="line2d_51"/>
     <g id="text_27">
      <!-- 2000 -->
      <g style="fill:#262626;" transform="translate(429.888861 320.426875)scale(0.1 -0.1)">
       <use xlink:href="#LiberationSans-32"/>
       <use x="55.615234" xlink:href="#LiberationSans-30"/>
       <use x="111.230469" xlink:href="#LiberationSans-30"/>
       <use x="166.845703" xlink:href="#LiberationSans-30"/>
      </g>
     </g>
    </g>
    <g id="text_28">
     <!-- Latitude -->
     <defs>
      <path d="M 20.21875 -0.984375 
Q 12.25 -0.984375 8.25 3.21875 
Q 4.25 7.421875 4.25 14.75 
Q 4.25 19.96875 6.21875 23.3125 
Q 8.203125 26.65625 11.390625 28.5625 
Q 14.59375 30.46875 18.6875 31.203125 
Q 22.796875 31.9375 27.046875 32.03125 
L 38.921875 32.234375 
L 38.921875 35.109375 
Q 38.921875 38.375 38.234375 40.671875 
Q 37.546875 42.96875 36.125 44.375 
Q 34.71875 45.796875 32.59375 46.453125 
Q 30.46875 47.125 27.59375 47.125 
Q 25.046875 47.125 23 46.75 
Q 20.953125 46.390625 19.4375 45.4375 
Q 17.921875 44.484375 16.984375 42.84375 
Q 16.0625 41.21875 15.765625 38.71875 
L 6.59375 39.546875 
Q 7.078125 42.671875 8.4375 45.28125 
Q 9.8125 47.90625 12.328125 49.796875 
Q 14.84375 51.703125 18.625 52.75 
Q 22.40625 53.8125 27.78125 53.8125 
Q 37.75 53.8125 42.765625 49.234375 
Q 47.796875 44.671875 47.796875 36.03125 
L 47.796875 13.28125 
Q 47.796875 9.375 48.828125 7.390625 
Q 49.859375 5.421875 52.734375 5.421875 
Q 53.46875 5.421875 54.203125 5.515625 
Q 54.9375 5.609375 55.609375 5.765625 
L 55.609375 0.296875 
Q 53.953125 -0.09375 52.3125 -0.28125 
Q 50.6875 -0.484375 48.828125 -0.484375 
Q 46.34375 -0.484375 44.5625 0.171875 
Q 42.78125 0.828125 41.65625 2.171875 
Q 40.53125 3.515625 39.9375 5.484375 
Q 39.359375 7.46875 39.203125 10.109375 
L 38.921875 10.109375 
Q 37.5 7.5625 35.8125 5.515625 
Q 34.125 3.46875 31.875 2.03125 
Q 29.640625 0.59375 26.78125 -0.1875 
Q 23.921875 -0.984375 20.21875 -0.984375 
z
M 22.21875 5.609375 
Q 26.421875 5.609375 29.5625 7.140625 
Q 32.71875 8.6875 34.78125 11.078125 
Q 36.859375 13.484375 37.890625 16.3125 
Q 38.921875 19.140625 38.921875 21.734375 
L 38.921875 26.078125 
L 29.296875 25.875 
Q 26.078125 25.828125 23.171875 25.40625 
Q 20.265625 25 18.0625 23.78125 
Q 15.875 22.5625 14.578125 20.359375 
Q 13.28125 18.171875 13.28125 14.59375 
Q 13.28125 10.296875 15.59375 7.953125 
Q 17.921875 5.609375 22.21875 5.609375 
z
" id="LiberationSans-61"/>
     </defs>
     <g style="fill:#262626;" transform="translate(369.22897 334.473437)scale(0.11 -0.11)">
      <use xlink:href="#LiberationSans-4c"/>
      <use x="55.615234" xlink:href="#LiberationSans-61"/>
      <use x="111.230469" xlink:href="#LiberationSans-74"/>
      <use x="139.013672" xlink:href="#LiberationSans-69"/>
      <use x="161.230469" xlink:href="#LiberationSans-74"/>
      <use x="189.013672" xlink:href="#LiberationSans-75"/>
      <use x="244.628906" xlink:href="#LiberationSans-64"/>
      <use x="300.244141" xlink:href="#LiberationSans-65"/>
     </g>
    </g>
   </g>
   <g id="matplotlib.axis_8">
    <g id="ytick_13">
     <g id="line2d_52">
      <path clip-path="url(#p2bd5dc239f)" d="M 287.344972 284.047843 
L 490.254062 284.047843 
" style="fill:none;stroke:#ffffff;stroke-linecap:round;"/>
     </g>
     <g id="line2d_53"/>
     <g id="text_29">
      <!-- $\mathdefault{10^{1}}$ -->
      <g style="fill:#262626;" transform="translate(264.944972 287.67128)scale(0.1 -0.1)">
       <use transform="translate(0 0.8625)" xlink:href="#LiberationSans-31"/>
       <use transform="translate(55.615234 0.8625)" xlink:href="#LiberationSans-30"/>
       <use transform="translate(112.154961 37.842188)scale(0.7)" xlink:href="#LiberationSans-31"/>
      </g>
     </g>
    </g>
    <g id="ytick_14">
     <g id="line2d_54">
      <path clip-path="url(#p2bd5dc239f)" d="M 287.344972 252.138074 
L 490.254062 252.138074 
" style="fill:none;stroke:#ffffff;stroke-linecap:round;"/>
     </g>
     <g id="line2d_55"/>
     <g id="text_30">
      <!-- $\mathdefault{10^{3}}$ -->
      <g style="fill:#262626;" transform="translate(264.944972 255.761511)scale(0.1 -0.1)">
       <use transform="translate(0 0.140625)" xlink:href="#LiberationSans-31"/>
       <use transform="translate(55.615234 0.140625)" xlink:href="#LiberationSans-30"/>
       <use transform="translate(112.154961 37.120312)scale(0.7)" xlink:href="#LiberationSans-33"/>
      </g>
     </g>
    </g>
    <g id="ytick_15">
     <g id="line2d_56">
      <path clip-path="url(#p2bd5dc239f)" d="M 287.344972 220.228305 
L 490.254062 220.228305 
" style="fill:none;stroke:#ffffff;stroke-linecap:round;"/>
     </g>
     <g id="line2d_57"/>
     <g id="text_31">
      <!-- $\mathdefault{10^{5}}$ -->
      <g style="fill:#262626;" transform="translate(264.944972 223.851742)scale(0.1 -0.1)">
       <use transform="translate(0 0.8625)" xlink:href="#LiberationSans-31"/>
       <use transform="translate(55.615234 0.8625)" xlink:href="#LiberationSans-30"/>
       <use transform="translate(112.154961 37.842188)scale(0.7)" xlink:href="#LiberationSans-35"/>
      </g>
     </g>
    </g>
    <g id="ytick_16">
     <g id="line2d_58">
      <path clip-path="url(#p2bd5dc239f)" d="M 287.344972 188.318535 
L 490.254062 188.318535 
" style="fill:none;stroke:#ffffff;stroke-linecap:round;"/>
     </g>
     <g id="line2d_59"/>
     <g id="text_32">
      <!-- $\mathdefault{10^{7}}$ -->
      <g style="fill:#262626;" transform="translate(264.944972 191.941973)scale(0.1 -0.1)">
       <use transform="translate(0 0.8625)" xlink:href="#LiberationSans-31"/>
       <use transform="translate(55.615234 0.8625)" xlink:href="#LiberationSans-30"/>
       <use transform="translate(112.154961 37.842188)scale(0.7)" xlink:href="#LiberationSans-37"/>
      </g>
     </g>
    </g>
   </g>
   <g id="patch_168">
    <path clip-path="url(#p2bd5dc239f)" d="M 296.568112 16254.887267 
L 300.257368 16254.887267 
L 300.257368 277.981616 
L 296.568112 277.981616 
z
" style="fill:#4c72b0;"/>
   </g>
   <g id="patch_169">
    <path clip-path="url(#p2bd5dc239f)" d="M 300.257368 16254.887267 
L 303.946624 16254.887267 
L 303.946624 290.39693 
L 300.257368 290.39693 
z
" style="fill:#4c72b0;"/>
   </g>
   <g id="patch_170">
    <path clip-path="url(#p2bd5dc239f)" d="M 303.946624 16254.887267 
L 307.635881 16254.887267 
L 307.635881 288.850742 
L 303.946624 288.850742 
z
" style="fill:#4c72b0;"/>
   </g>
   <g id="patch_171">
    <path clip-path="url(#p2bd5dc239f)" d="M 307.635881 16254.887267 
L 311.325137 16254.887267 
L 311.325137 277.981616 
L 307.635881 277.981616 
z
" style="fill:#4c72b0;"/>
   </g>
   <g id="patch_172">
    <path clip-path="url(#p2bd5dc239f)" d="M 311.325137 16254.887267 
L 315.014393 16254.887267 
L 315.014393 279.600361 
L 311.325137 279.600361 
z
" style="fill:#4c72b0;"/>
   </g>
   <g id="patch_173">
    <path clip-path="url(#p2bd5dc239f)" d="M 315.014393 16254.887267 
L 318.703649 16254.887267 
L 318.703649 16254.887267 
L 315.014393 16254.887267 
z
" style="fill:#4c72b0;"/>
   </g>
   <g id="patch_174">
    <path clip-path="url(#p2bd5dc239f)" d="M 318.703649 16254.887267 
L 322.392905 16254.887267 
L 322.392905 287.587414 
L 318.703649 287.587414 
z
" style="fill:#4c72b0;"/>
   </g>
   <g id="patch_175">
    <path clip-path="url(#p2bd5dc239f)" d="M 322.392905 16254.887267 
L 326.082162 16254.887267 
L 326.082162 272.235442 
L 322.392905 272.235442 
z
" style="fill:#4c72b0;"/>
   </g>
   <g id="patch_176">
    <path clip-path="url(#p2bd5dc239f)" d="M 326.082162 16254.887267 
L 329.771418 16254.887267 
L 329.771418 300.002727 
L 326.082162 300.002727 
z
" style="fill:#4c72b0;"/>
   </g>
   <g id="patch_177">
    <path clip-path="url(#p2bd5dc239f)" d="M 329.771418 16254.887267 
L 333.460674 16254.887267 
L 333.460674 276.913488 
L 329.771418 276.913488 
z
" style="fill:#4c72b0;"/>
   </g>
   <g id="patch_178">
    <path clip-path="url(#p2bd5dc239f)" d="M 333.460674 16254.887267 
L 337.14993 16254.887267 
L 337.14993 279.600361 
L 333.460674 279.600361 
z
" style="fill:#4c72b0;"/>
   </g>
   <g id="patch_179">
    <path clip-path="url(#p2bd5dc239f)" d="M 337.14993 16254.887267 
L 340.839186 16254.887267 
L 340.839186 16254.887267 
L 337.14993 16254.887267 
z
" style="fill:#4c72b0;"/>
   </g>
   <g id="patch_180">
    <path clip-path="url(#p2bd5dc239f)" d="M 340.839186 16254.887267 
L 344.528443 16254.887267 
L 344.528443 277.698756 
L 340.839186 277.698756 
z
" style="fill:#4c72b0;"/>
   </g>
   <g id="patch_181">
    <path clip-path="url(#p2bd5dc239f)" d="M 344.528443 16254.887267 
L 348.217699 16254.887267 
L 348.217699 290.39693 
L 344.528443 290.39693 
z
" style="fill:#4c72b0;"/>
   </g>
   <g id="patch_182">
    <path clip-path="url(#p2bd5dc239f)" d="M 348.217699 16254.887267 
L 351.906955 16254.887267 
L 351.906955 295.199828 
L 348.217699 295.199828 
z
" style="fill:#4c72b0;"/>
   </g>
   <g id="patch_183">
    <path clip-path="url(#p2bd5dc239f)" d="M 351.906955 16254.887267 
L 355.596211 16254.887267 
L 355.596211 283.387427 
L 351.906955 283.387427 
z
" style="fill:#4c72b0;"/>
   </g>
   <g id="patch_184">
    <path clip-path="url(#p2bd5dc239f)" d="M 355.596211 16254.887267 
L 359.285467 16254.887267 
L 359.285467 276.208224 
L 355.596211 276.208224 
z
" style="fill:#4c72b0;"/>
   </g>
   <g id="patch_185">
    <path clip-path="url(#p2bd5dc239f)" d="M 359.285467 16254.887267 
L 362.974724 16254.887267 
L 362.974724 300.002727 
L 359.285467 300.002727 
z
" style="fill:#4c72b0;"/>
   </g>
   <g id="patch_186">
    <path clip-path="url(#p2bd5dc239f)" d="M 362.974724 16254.887267 
L 366.66398 16254.887267 
L 366.66398 287.587414 
L 362.974724 287.587414 
z
" style="fill:#4c72b0;"/>
   </g>
   <g id="patch_187">
    <path clip-path="url(#p2bd5dc239f)" d="M 366.66398 16254.887267 
L 370.353236 16254.887267 
L 370.353236 276.208224 
L 366.66398 276.208224 
z
" style="fill:#4c72b0;"/>
   </g>
   <g id="patch_188">
    <path clip-path="url(#p2bd5dc239f)" d="M 370.353236 16254.887267 
L 374.042492 16254.887267 
L 374.042492 16254.887267 
L 370.353236 16254.887267 
z
" style="fill:#4c72b0;"/>
   </g>
   <g id="patch_189">
    <path clip-path="url(#p2bd5dc239f)" d="M 374.042492 16254.887267 
L 377.731748 16254.887267 
L 377.731748 277.698756 
L 374.042492 277.698756 
z
" style="fill:#4c72b0;"/>
   </g>
   <g id="patch_190">
    <path clip-path="url(#p2bd5dc239f)" d="M 377.731748 16254.887267 
L 381.421005 16254.887267 
L 381.421005 278.276517 
L 377.731748 278.276517 
z
" style="fill:#4c72b0;"/>
   </g>
   <g id="patch_191">
    <path clip-path="url(#p2bd5dc239f)" d="M 381.421005 16254.887267 
L 385.110261 16254.887267 
L 385.110261 282.784515 
L 381.421005 282.784515 
z
" style="fill:#4c72b0;"/>
   </g>
   <g id="patch_192">
    <path clip-path="url(#p2bd5dc239f)" d="M 385.110261 16254.887267 
L 388.799517 16254.887267 
L 388.799517 229.364251 
L 385.110261 229.364251 
z
" style="fill:#4c72b0;"/>
   </g>
   <g id="patch_193">
    <path clip-path="url(#p2bd5dc239f)" d="M 388.799517 16254.887267 
L 392.488773 16254.887267 
L 392.488773 176.457273 
L 388.799517 176.457273 
z
" style="fill:#4c72b0;"/>
   </g>
   <g id="patch_194">
    <path clip-path="url(#p2bd5dc239f)" d="M 392.488773 16254.887267 
L 396.178029 16254.887267 
L 396.178029 287.587414 
L 392.488773 287.587414 
z
" style="fill:#4c72b0;"/>
   </g>
   <g id="patch_195">
    <path clip-path="url(#p2bd5dc239f)" d="M 396.178029 16254.887267 
L 399.867286 16254.887267 
L 399.867286 261.083456 
L 396.178029 261.083456 
z
" style="fill:#4c72b0;"/>
   </g>
   <g id="patch_196">
    <path clip-path="url(#p2bd5dc239f)" d="M 399.867286 16254.887267 
L 403.556542 16254.887267 
L 403.556542 270.867915 
L 399.867286 270.867915 
z
" style="fill:#4c72b0;"/>
   </g>
   <g id="patch_197">
    <path clip-path="url(#p2bd5dc239f)" d="M 403.556542 16254.887267 
L 407.245798 16254.887267 
L 407.245798 284.777898 
L 403.556542 284.777898 
z
" style="fill:#4c72b0;"/>
   </g>
   <g id="patch_198">
    <path clip-path="url(#p2bd5dc239f)" d="M 407.245798 16254.887267 
L 410.935054 16254.887267 
L 410.935054 287.587414 
L 407.245798 287.587414 
z
" style="fill:#4c72b0;"/>
   </g>
   <g id="patch_199">
    <path clip-path="url(#p2bd5dc239f)" d="M 410.935054 16254.887267 
L 414.62431 16254.887267 
L 414.62431 277.698756 
L 410.935054 277.698756 
z
" style="fill:#4c72b0;"/>
   </g>
   <g id="patch_200">
    <path clip-path="url(#p2bd5dc239f)" d="M 414.62431 16254.887267 
L 418.313567 16254.887267 
L 418.313567 300.002727 
L 414.62431 300.002727 
z
" style="fill:#4c72b0;"/>
   </g>
   <g id="patch_201">
    <path clip-path="url(#p2bd5dc239f)" d="M 418.313567 16254.887267 
L 422.002823 16254.887267 
L 422.002823 280.371057 
L 418.313567 280.371057 
z
" style="fill:#4c72b0;"/>
   </g>
   <g id="patch_202">
    <path clip-path="url(#p2bd5dc239f)" d="M 422.002823 16254.887267 
L 425.692079 16254.887267 
L 425.692079 280.371057 
L 422.002823 280.371057 
z
" style="fill:#4c72b0;"/>
   </g>
   <g id="patch_203">
    <path clip-path="url(#p2bd5dc239f)" d="M 425.692079 16254.887267 
L 429.381335 16254.887267 
L 429.381335 295.199828 
L 425.692079 295.199828 
z
" style="fill:#4c72b0;"/>
   </g>
   <g id="patch_204">
    <path clip-path="url(#p2bd5dc239f)" d="M 429.381335 16254.887267 
L 433.070591 16254.887267 
L 433.070591 274.270947 
L 429.381335 274.270947 
z
" style="fill:#4c72b0;"/>
   </g>
   <g id="patch_205">
    <path clip-path="url(#p2bd5dc239f)" d="M 433.070591 16254.887267 
L 436.759848 16254.887267 
L 436.759848 288.850742 
L 433.070591 288.850742 
z
" style="fill:#4c72b0;"/>
   </g>
   <g id="patch_206">
    <path clip-path="url(#p2bd5dc239f)" d="M 436.759848 16254.887267 
L 440.449104 16254.887267 
L 440.449104 278.276517 
L 436.759848 278.276517 
z
" style="fill:#4c72b0;"/>
   </g>
   <g id="patch_207">
    <path clip-path="url(#p2bd5dc239f)" d="M 440.449104 16254.887267 
L 444.13836 16254.887267 
L 444.13836 281.238327 
L 440.449104 281.238327 
z
" style="fill:#4c72b0;"/>
   </g>
   <g id="patch_208">
    <path clip-path="url(#p2bd5dc239f)" d="M 444.13836 16254.887267 
L 447.827616 16254.887267 
L 447.827616 281.716387 
L 444.13836 281.716387 
z
" style="fill:#4c72b0;"/>
   </g>
   <g id="patch_209">
    <path clip-path="url(#p2bd5dc239f)" d="M 447.827616 16254.887267 
L 451.516872 16254.887267 
L 451.516872 290.39693 
L 447.827616 290.39693 
z
" style="fill:#4c72b0;"/>
   </g>
   <g id="patch_210">
    <path clip-path="url(#p2bd5dc239f)" d="M 451.516872 16254.887267 
L 455.206129 16254.887267 
L 455.206129 288.850742 
L 451.516872 288.850742 
z
" style="fill:#4c72b0;"/>
   </g>
   <g id="patch_211">
    <path clip-path="url(#p2bd5dc239f)" d="M 455.206129 16254.887267 
L 458.895385 16254.887267 
L 458.895385 278.584528 
L 455.206129 278.584528 
z
" style="fill:#4c72b0;"/>
   </g>
   <g id="patch_212">
    <path clip-path="url(#p2bd5dc239f)" d="M 458.895385 16254.887267 
L 462.584641 16254.887267 
L 462.584641 16254.887267 
L 458.895385 16254.887267 
z
" style="fill:#4c72b0;"/>
   </g>
   <g id="patch_213">
    <path clip-path="url(#p2bd5dc239f)" d="M 462.584641 16254.887267 
L 466.273897 16254.887267 
L 466.273897 277.426991 
L 462.584641 277.426991 
z
" style="fill:#4c72b0;"/>
   </g>
   <g id="patch_214">
    <path clip-path="url(#p2bd5dc239f)" d="M 466.273897 16254.887267 
L 469.963153 16254.887267 
L 469.963153 282.22989 
L 466.273897 282.22989 
z
" style="fill:#4c72b0;"/>
   </g>
   <g id="patch_215">
    <path clip-path="url(#p2bd5dc239f)" d="M 469.963153 16254.887267 
L 473.65241 16254.887267 
L 473.65241 286.519286 
L 469.963153 286.519286 
z
" style="fill:#4c72b0;"/>
   </g>
   <g id="patch_216">
    <path clip-path="url(#p2bd5dc239f)" d="M 473.65241 16254.887267 
L 477.341666 16254.887267 
L 477.341666 275.568158 
L 473.65241 275.568158 
z
" style="fill:#4c72b0;"/>
   </g>
   <g id="patch_217">
    <path clip-path="url(#p2bd5dc239f)" d="M 477.341666 16254.887267 
L 481.030922 16254.887267 
L 481.030922 292.390313 
L 477.341666 292.390313 
z
" style="fill:#4c72b0;"/>
   </g>
   <g id="line2d_60">
    <path clip-path="url(#p2bd5dc239f)" d="M 389.999162 306.18 
L 389.999162 170.28 
" style="fill:none;stroke:#000000;stroke-dasharray:6.475,2.8;stroke-dashoffset:0;stroke-width:1.75;"/>
   </g>
   <g id="patch_218">
    <path d="M 287.344972 306.18 
L 287.344972 170.28 
" style="fill:none;"/>
   </g>
   <g id="patch_219">
    <path d="M 490.254062 306.18 
L 490.254062 170.28 
" style="fill:none;"/>
   </g>
   <g id="patch_220">
    <path d="M 287.344972 306.18 
L 490.254062 306.18 
" style="fill:none;"/>
   </g>
   <g id="patch_221">
    <path d="M 287.344972 170.28 
L 490.254062 170.28 
" style="fill:none;"/>
   </g>
  </g>
 </g>
 <defs>
  <clipPath id="pb230347fc9">
   <rect height="135.9" width="202.909091" x="43.854063" y="7.2"/>
  </clipPath>
  <clipPath id="pcfcc6c23f9">
   <rect height="135.9" width="202.909091" x="287.344972" y="7.2"/>
  </clipPath>
  <clipPath id="pe9da06d1bf">
   <rect height="135.9" width="202.909091" x="43.854063" y="170.28"/>
  </clipPath>
  <clipPath id="p2bd5dc239f">
   <rect height="135.9" width="202.909091" x="287.344972" y="170.28"/>
  </clipPath>
 </defs>
</svg>
