<svg viewBox="0 0 481 344" xmlns="http://www.w3.org/2000/svg" xmlns:xlink="http://www.w3.org/1999/xlink"><defs><style>*{stroke-linecap:butt;stroke-linejoin:round}</style></defs><g id="figure_1"><path d="M0 344.4h481.7V0H0z" fill="#fff" id="patch_1"/><g id="axes_1"><path d="M28.1 320.9h446.4v-299H28.1z" fill="#eaeaf2" id="patch_2"/><g id="matplotlib.axis_1"><g id="xtick_1"><path clip-path="url(#pad72c79b9d)" d="M46.3 320.9v-299" fill="none" stroke="#fff" stroke-linecap="round" id="line2d_1"/><g id="text_1"><defs><path d="M51.7 34.4q0-9.9-1.9-16.6-1.8-6.8-5.1-11-3.2-4.2-7.6-6Q32.7-1 27.7-1T18.3.8q-4.3 1.8-7.5 6-3.2 4.1-5 10.9-1.9 6.8-1.9 16.7 0 10.4 1.8 17.2 1.9 6.9 5 10.9 3.3 4 7.7 5.7 4.4 1.6 9.6 1.6 5 0 9.2-1.6 4.3-1.7 7.6-5.7 3.2-4 5-10.9 1.9-6.8 1.9-17.2zm-9 0q0 8.2-.9 13.7-1 5.4-2.9 8.7-1.9 3.2-4.6 4.6-2.8 1.3-6.3 1.3-3.7 0-6.6-1.4-2.8-1.3-4.7-4.6-2-3.2-3-8.7-.9-5.4-.9-13.6 0-7.9 1-13.3t3-8.7q1.9-3.3 4.6-4.8 2.8-1.4 6.4-1.4 3.4 0 6.2 1.4 2.8 1.5 4.7 4.8 2 3.3 3 8.7 1 5.4 1 13.3z" id="LiberationSans-30"/></defs><use xlink:href="#LiberationSans-30" transform="matrix(.1 0 0 -.1 43.5 335.1)" fill="#262626"/></g></g><g id="xtick_2"><path clip-path="url(#pad72c79b9d)" d="M97.3 320.9v-299" fill="none" stroke="#fff" stroke-linecap="round" id="line2d_3"/><g id="text_2"><defs><path d="M5 0v6.2q2.5 5.7 6.1 10 3.6 4.5 7.6 8l7.8 6.6q3.9 3 7 6t5 6.4q2 3.3 2 7.5 0 3-1 5.1-.8 2.3-2.4 3.8-1.7 1.5-4 2.2-2.3.8-5.2.8-2.6 0-5-.7-2.2-.8-4-2.2-1.9-1.5-3-3.7-1.2-2.1-1.5-5l-9 .8q.5 3.7 2 7Q9.2 62 12 64.5q2.8 2.5 6.8 4 4 1.3 9.2 1.3 5.2 0 9.2-1.2 4-1.2 6.7-3.6 2.8-2.4 4.2-6 1.5-3.4 1.5-8 0-3.5-1.2-6.6-1.3-3.1-3.4-6-2-2.8-4.8-5.4-2.7-2.7-5.7-5.2l-6-5q-3-2.4-5.7-5-2.6-2.4-4.7-5t-3.3-5.3h35.9V0z" id="LiberationSans-32"/><path d="M51.4 22.4q0-5.2-1.5-9.5-1.6-4.3-4.7-7.4-3-3-7.6-4.8Q33-1 27-1 21.6-1 17.5.3q-4 1.3-6.8 3.5Q8 6 6.3 9 4.7 12 4 15.4l8.9 1q.5-2 1.5-3.8 1-1.8 2.7-3.3Q18.7 8 21.2 7q2.5-.8 6-.8 3.4 0 6.2 1 2.8 1.1 4.8 3.1 2 2.1 3 5 1 3 1 7 0 3-1 5.7t-2.9 4.6q-1.9 2-4.6 3-2.8 1.1-6.3 1.1-2.2 0-4-.4-2-.4-3.5-1-1.6-.7-2.9-1.6l-2.4-2H6l2.3 37.1h39.1v-7.5h-31L15 39.5q2.3 1.8 5.8 3 3.6 1.4 8.4 1.4 5.1 0 9.2-1.6 4.1-1.5 7-4.4 2.9-2.8 4.5-6.8 1.5-4 1.5-8.7z" id="LiberationSans-35"/></defs><g transform="matrix(.1 0 0 -.1 91.7 335.1)" fill="#262626"><use xlink:href="#LiberationSans-32"/><use x="55.6" xlink:href="#LiberationSans-35"/></g></g></g><g id="xtick_3"><path clip-path="url(#pad72c79b9d)" d="M148.3 320.9v-299" fill="none" stroke="#fff" stroke-linecap="round" id="line2d_5"/><g transform="matrix(.1 0 0 -.1 142.7 335.1)" fill="#262626" id="text_3"><use xlink:href="#LiberationSans-35"/><use x="55.6" xlink:href="#LiberationSans-30"/></g></g><g id="xtick_4"><path clip-path="url(#pad72c79b9d)" d="M199.3 320.9v-299" fill="none" stroke="#fff" stroke-linecap="round" id="line2d_7"/><g id="text_4"><defs><path d="M50.6 61.7q-5.2-8-9.5-15.2-4.4-7.3-7.5-14.8-3.1-7.3-4.9-15.1Q27 8.8 27 0h-9.2q0 8.3 2 16.2 2 8 5.2 15.6 3.4 7.6 7.8 15T42 61.3H5v7.5h45.5z" id="LiberationSans-37"/></defs><g transform="matrix(.1 0 0 -.1 193.7 335.1)" fill="#262626"><use xlink:href="#LiberationSans-37"/><use x="55.6" xlink:href="#LiberationSans-35"/></g></g></g><g id="xtick_5"><path clip-path="url(#pad72c79b9d)" d="M250.2 320.9v-299" fill="none" stroke="#fff" stroke-linecap="round" id="line2d_9"/><g id="text_5"><defs><path d="M7.6 0v7.5h17.5v53L9.6 49.2v8.3L26 68.8h8V7.5h16.8V0z" id="LiberationSans-31"/></defs><g transform="matrix(.1 0 0 -.1 242 335.1)" fill="#262626"><use xlink:href="#LiberationSans-31"/><use x="55.6" xlink:href="#LiberationSans-30"/><use x="111.2" xlink:href="#LiberationSans-30"/></g></g></g><g id="xtick_6"><path clip-path="url(#pad72c79b9d)" d="M301.2 320.9v-299" fill="none" stroke="#fff" stroke-linecap="round" id="line2d_11"/><g transform="matrix(.1 0 0 -.1 292.9 335.1)" fill="#262626" id="text_6"><use xlink:href="#LiberationSans-31"/><use x="55.6" xlink:href="#LiberationSans-32"/><use x="111.2" xlink:href="#LiberationSans-35"/></g></g><g id="xtick_7"><path clip-path="url(#pad72c79b9d)" d="M352.2 320.9v-299" fill="none" stroke="#fff" stroke-linecap="round" id="line2d_13"/><g transform="matrix(.1 0 0 -.1 343.9 335.1)" fill="#262626" id="text_7"><use xlink:href="#LiberationSans-31"/><use x="55.6" xlink:href="#LiberationSans-35"/><use x="111.2" xlink:href="#LiberationSans-30"/></g></g><g id="xtick_8"><path clip-path="url(#pad72c79b9d)" d="M403.2 320.9v-299" fill="none" stroke="#fff" stroke-linecap="round" id="line2d_15"/><g transform="matrix(.1 0 0 -.1 394.9 335.1)" fill="#262626" id="text_8"><use xlink:href="#LiberationSans-31"/><use x="55.6" xlink:href="#LiberationSans-37"/><use x="111.2" xlink:href="#LiberationSans-35"/></g></g><g id="xtick_9"><path clip-path="url(#pad72c79b9d)" d="M454.2 320.9v-299" fill="none" stroke="#fff" stroke-linecap="round" id="line2d_17"/><g transform="matrix(.1 0 0 -.1 445.9 335.1)" fill="#262626" id="text_9"><use xlink:href="#LiberationSans-32"/><use x="55.6" xlink:href="#LiberationSans-30"/><use x="111.2" xlink:href="#LiberationSans-30"/></g></g></g><g id="matplotlib.axis_2"><g id="ytick_1"><path clip-path="url(#pad72c79b9d)" d="M28.1 320.9h446.4" fill="none" stroke="#fff" stroke-linecap="round" id="line2d_19"/><g id="text_10"><defs><path d="M9.1 0v10.7h9.6V0z" id="LiberationSans-2e"/></defs><g transform="matrix(.1 0 0 -.1 7.2 324.5)" fill="#262626"><use xlink:href="#LiberationSans-30"/><use x="55.6" xlink:href="#LiberationSans-2e"/><use x="83.4" xlink:href="#LiberationSans-30"/></g></g></g><g id="ytick_2"><path clip-path="url(#pad72c79b9d)" d="M28.1 274.4h446.4" fill="none" stroke="#fff" stroke-linecap="round" id="line2d_21"/><g transform="matrix(.1 0 0 -.1 7.2 278)" fill="#262626" id="text_11"><use xlink:href="#LiberationSans-30"/><use x="55.6" xlink:href="#LiberationSans-2e"/><use x="83.4" xlink:href="#LiberationSans-32"/></g></g><g id="ytick_3"><path clip-path="url(#pad72c79b9d)" d="M28.1 228h446.4" fill="none" stroke="#fff" stroke-linecap="round" id="line2d_23"/><g id="text_12"><defs><path d="M43 15.6V0h-8.3v15.6H2.3v6.8l31.5 46.4H43V22.5h9.7v-7zm-8.3 43.3q0-.3-.5-1l-.9-1.6-1-1.7-.8-1.5-17.7-26-.7-1-1-1.3q-.4-.7-1-1.3l-.7-1h24.3z" id="LiberationSans-34"/></defs><g transform="matrix(.1 0 0 -.1 7.2 231.6)" fill="#262626"><use xlink:href="#LiberationSans-30"/><use x="55.6" xlink:href="#LiberationSans-2e"/><use x="83.4" xlink:href="#LiberationSans-34"/></g></g></g><g id="ytick_4"><path clip-path="url(#pad72c79b9d)" d="M28.1 181.5h446.4" fill="none" stroke="#fff" stroke-linecap="round" id="line2d_25"/><g id="text_13"><defs><path d="M51.2 22.5q0-5.2-1.4-9.5-1.5-4.3-4.3-7.4-2.8-3.1-7-4.8Q34.6-1 29-1q-6 0-10.5 2.3T11 8q-3 4.3-4.4 10.6Q5 24.8 5 32.8 5 42 6.8 49q1.7 7 4.8 11.6 3.2 4.6 7.8 7 4.5 2.3 10.3 2.3 3.5 0 6.6-.7 3-.7 5.6-2.4 2.5-1.6 4.4-4.3 1.9-2.7 3-6.6L41 54.3q-1.4 4.4-4.4 6.4-3 2-7 2-3.5 0-6.5-1.7-2.9-1.7-5-5.1-2-3.4-3-8.5-1.2-5.2-1.2-12 2.4 4.4 6.8 6.8 4.3 2.3 10 2.3 4.6 0 8.4-1.5 3.8-1.5 6.5-4.4 2.8-2.9 4.2-7 1.5-4 1.5-9zm-9-.4q0 3.6-.8 6.5-.9 2.9-2.6 4.9-1.8 2-4.4 3-2.6 1.2-6 1.2-2.4 0-4.8-.7-2.5-.7-4.4-2.3-2-1.6-3.3-4.2-1.2-2.6-1.2-6.3 0-3.8 1-7 1-3.4 2.8-5.8 1.8-2.5 4.4-3.9 2.6-1.4 5.8-1.4 3.2 0 5.7 1.1t4.3 3.2q1.7 2 2.7 5 .9 3 .9 6.7z" id="LiberationSans-36"/></defs><g transform="matrix(.1 0 0 -.1 7.2 185.2)" fill="#262626"><use xlink:href="#LiberationSans-30"/><use x="55.6" xlink:href="#LiberationSans-2e"/><use x="83.4" xlink:href="#LiberationSans-36"/></g></g></g><g id="ytick_5"><path clip-path="url(#pad72c79b9d)" d="M28.1 135h446.4" fill="none" stroke="#fff" stroke-linecap="round" id="line2d_27"/><g id="text_14"><defs><path d="M51.3 19.2q0-4.4-1.4-8-1.4-3.8-4.3-6.5Q42.8 2 38.3.5 34-1 27.8-1q-6 0-10.4 1.5Q12.9 2 10 4.7q-2.9 2.7-4.3 6.4t-1.4 8q0 3.8 1.2 6.7 1.1 3 3 5 2 2.2 4.5 3.4 2.4 1.3 5 1.8v.2q-2.8.7-5 2.2-2.4 1.5-4 3.6-1.4 2.1-2.3 4.7-.7 2.6-.7 5.5 0 3.6 1.3 6.8 1.4 3.2 4.2 5.6 2.7 2.4 6.8 3.8 4 1.4 9.3 1.4 5.6 0 9.8-1.4 4.1-1.4 6.8-3.8t4-5.7q1.4-3.2 1.4-6.8 0-2.8-.9-5.4Q48 44 46.5 42q-1.5-2.2-3.8-3.7-2.3-1.4-5.2-2V36q3-.5 5.5-1.8t4.4-3.4q1.8-2.1 2.9-5 1-3 1-6.7zM40.4 51.6q0 2.6-.6 4.7-.7 2.2-2.2 3.7-1.5 1.6-4 2.4-2.4.9-6 .9-3.4 0-5.8-.9-2.4-.8-4-2.4-1.5-1.5-2.2-3.7-.7-2.1-.7-4.7 0-2 .6-4.2.5-2.1 2-3.9 1.3-1.8 3.8-2.9 2.5-1.1 6.4-1.1 4.2 0 6.7 1.1t3.9 2.9q1.3 1.8 1.7 4 .4 2 .4 4.1zM42.1 20q0 2.5-.6 4.8-.7 2.4-2.4 4.1-1.6 1.8-4.5 3-2.8 1-7 1-3.8 0-6.5-1-2.7-1.2-4.4-3-1.7-1.8-2.5-4.2-.8-2.3-.8-4.9 0-3.1.8-5.8.8-2.6 2.5-4.5 1.7-1.8 4.5-2.9 2.8-1 6.7-1 4 0 6.8 1 2.7 1 4.4 3 1.6 1.8 2.3 4.5.7 2.7.7 6z" id="LiberationSans-38"/></defs><g transform="matrix(.1 0 0 -.1 7.2 138.7)" fill="#262626"><use xlink:href="#LiberationSans-30"/><use x="55.6" xlink:href="#LiberationSans-2e"/><use x="83.4" xlink:href="#LiberationSans-38"/></g></g></g><g id="ytick_6"><path clip-path="url(#pad72c79b9d)" d="M28.1 88.6h446.4" fill="none" stroke="#fff" stroke-linecap="round" id="line2d_29"/><g transform="matrix(.1 0 0 -.1 7.2 92.3)" fill="#262626" id="text_15"><use xlink:href="#LiberationSans-31"/><use x="55.6" xlink:href="#LiberationSans-2e"/><use x="83.4" xlink:href="#LiberationSans-30"/></g></g><g id="ytick_7"><path clip-path="url(#pad72c79b9d)" d="M28.1 42.2h446.4" fill="none" stroke="#fff" stroke-linecap="round" id="line2d_31"/><g transform="matrix(.1 0 0 -.1 7.2 45.8)" fill="#262626" id="text_16"><use xlink:href="#LiberationSans-31"/><use x="55.6" xlink:href="#LiberationSans-2e"/><use x="83.4" xlink:href="#LiberationSans-32"/></g></g><g id="text_17"><defs><path d="M13.5 24.6q0-4.2.8-7.7.9-3.5 2.7-6 1.8-2.5 4.5-3.9 2.8-1.4 6.7-1.4 5.7 0 9.2 2.3 3.4 2.3 4.6 5.8l7.8-2.2q-.9-2.2-2.4-4.4-1.4-2.2-4-4-2.4-1.8-6.2-3-3.7-1-9-1Q16.5-1 10.4 6q-6.2 7-6.2 20.8 0 7.4 1.9 12.5 1.9 5.2 5 8.4 3.3 3.2 7.6 4.7 4.3 1.4 9.2 1.4 6.6 0 11-2.1 4.6-2.2 7.3-6t3.8-8.9q1.2-5.1 1.2-11v-1.2zM42 31.3q-.7 8.4-4.3 12.2-3.5 3.8-10 3.8-2.3 0-4.7-.7-2.4-.7-4.4-2.5-2-1.8-3.5-5-1.4-3-1.6-7.8z" id="LiberationSans-65"/></defs><g transform="matrix(.1 0 0 -.1 28.1 18.9)" fill="#262626"><use xlink:href="#LiberationSans-31"/><use x="55.6" xlink:href="#LiberationSans-65"/><use x="111.2" xlink:href="#LiberationSans-37"/></g></g></g><path clip-path="url(#pad72c79b9d)" d="M48.4 320.9h4V311h-4z" fill="#4c72b0" id="patch_3"/><path clip-path="url(#pad72c79b9d)" d="M52.4 320.9h4.1V135.2h-4z" fill="#4c72b0" id="patch_4"/><path clip-path="url(#pad72c79b9d)" d="M56.5 320.9h4V36h-4z" fill="#4c72b0" id="patch_5"/><path clip-path="url(#pad72c79b9d)" d="M60.6 320.9h4V113h-4z" fill="#4c72b0" id="patch_6"/><path clip-path="url(#pad72c79b9d)" d="M64.6 320.9h4V158.4h-4z" fill="#4c72b0" id="patch_7"/><path clip-path="url(#pad72c79b9d)" d="M68.7 320.9h4V212.7h-4z" fill="#4c72b0" id="patch_8"/><path clip-path="url(#pad72c79b9d)" d="M72.7 320.9h4.1v-72.7h-4z" fill="#4c72b0" id="patch_9"/><path clip-path="url(#pad72c79b9d)" d="M76.8 320.9h4V271h-4z" fill="#4c72b0" id="patch_10"/><path clip-path="url(#pad72c79b9d)" d="M80.9 320.9h4v-34.6h-4z" fill="#4c72b0" id="patch_11"/><path clip-path="url(#pad72c79b9d)" d="M85 320.9h4V297h-4z" fill="#4c72b0" id="patch_12"/><path clip-path="url(#pad72c79b9d)" d="M89 320.9h4v-17h-4z" fill="#4c72b0" id="patch_13"/><path clip-path="url(#pad72c79b9d)" d="M93 320.9h4v-13.3h-4z" fill="#4c72b0" id="patch_14"/><path clip-path="url(#pad72c79b9d)" d="M97 320.9h4.1v-11.3h-4z" fill="#4c72b0" id="patch_15"/><path clip-path="url(#pad72c79b9d)" d="M101.1 320.9h4.1v-9.3h-4z" fill="#4c72b0" id="patch_16"/><path clip-path="url(#pad72c79b9d)" d="M105.2 320.9h4v-9.2h-4z" fill="#4c72b0" id="patch_17"/><path clip-path="url(#pad72c79b9d)" d="M109.3 320.9h4V313h-4z" fill="#4c72b0" id="patch_18"/><path clip-path="url(#pad72c79b9d)" d="M113.3 320.9h4v-6.5h-4z" fill="#4c72b0" id="patch_19"/><path clip-path="url(#pad72c79b9d)" d="M117.4 320.9h4v-5.3h-4z" fill="#4c72b0" id="patch_20"/><path clip-path="url(#pad72c79b9d)" d="M121.4 320.9h4.1v-4h-4z" fill="#4c72b0" id="patch_21"/><path clip-path="url(#pad72c79b9d)" d="M125.5 320.9h4v-3h-4z" fill="#4c72b0" id="patch_22"/><path clip-path="url(#pad72c79b9d)" d="M129.6 320.9h4v-2.5h-4z" fill="#4c72b0" id="patch_23"/><path clip-path="url(#pad72c79b9d)" d="M133.6 320.9h4V319h-4z" fill="#4c72b0" id="patch_24"/><path clip-path="url(#pad72c79b9d)" d="M137.7 320.9h4v-4.7h-4z" fill="#4c72b0" id="patch_25"/><path clip-path="url(#pad72c79b9d)" d="M141.7 320.9h4v-1.1h-4z" fill="#4c72b0" id="patch_26"/><path clip-path="url(#pad72c79b9d)" d="M145.8 320.9h4v-8.3h-4z" fill="#4c72b0" id="patch_27"/><path clip-path="url(#pad72c79b9d)" d="M149.8 320.9h4.1v-3h-4z" fill="#4c72b0" id="patch_28"/><path clip-path="url(#pad72c79b9d)" d="M153.9 320.9h4v-.6h-4z" fill="#4c72b0" id="patch_29"/><path clip-path="url(#pad72c79b9d)" d="M158 320.9h4v-.5h-4z" fill="#4c72b0" id="patch_30"/><path clip-path="url(#pad72c79b9d)" d="M162 320.9h4V313h-4z" fill="#4c72b0" id="patch_31"/><path clip-path="url(#pad72c79b9d)" d="M166 320.9h4.1v-.5h-4z" fill="#4c72b0" id="patch_32"/><path clip-path="url(#pad72c79b9d)" d="M170.1 320.9h4v-.3h-4z" fill="#4c72b0" id="patch_33"/><path clip-path="url(#pad72c79b9d)" d="M174.2 320.9h4v-.3h-4z" fill="#4c72b0" id="patch_34"/><path clip-path="url(#pad72c79b9d)" d="M178.3 320.9h4v-.3h-4z" fill="#4c72b0" id="patch_35"/><path clip-path="url(#pad72c79b9d)" d="M182.3 320.9h4v-.2h-4z" fill="#4c72b0" id="patch_36"/><path clip-path="url(#pad72c79b9d)" d="M186.4 320.9h4v-.2h-4z" fill="#4c72b0" id="patch_37"/><path clip-path="url(#pad72c79b9d)" d="M190.4 320.9h4v-.2h-4z" fill="#4c72b0" id="patch_38"/><path clip-path="url(#pad72c79b9d)" d="M194.5 320.9h4v-.2h-4z" fill="#4c72b0" id="patch_39"/><path clip-path="url(#pad72c79b9d)" d="M198.5 320.9h4.1v-.2h-4z" fill="#4c72b0" id="patch_40"/><path clip-path="url(#pad72c79b9d)" d="M202.6 320.9h4v-.2h-4z" fill="#4c72b0" id="patch_41"/><path clip-path="url(#pad72c79b9d)" d="M206.7 320.9h4v-.2h-4z" fill="#4c72b0" id="patch_42"/><path clip-path="url(#pad72c79b9d)" d="M210.7 320.9h4v-.1h-4z" fill="#4c72b0" id="patch_43"/><path clip-path="url(#pad72c79b9d)" d="M214.8 320.9h4v-.1h-4z" fill="#4c72b0" id="patch_44"/><path clip-path="url(#pad72c79b9d)" d="M218.8 320.9h4v-.1h-4z" fill="#4c72b0" id="patch_45"/><path clip-path="url(#pad72c79b9d)" d="M222.9 320.9h4v-.1h-4z" fill="#4c72b0" id="patch_46"/><path clip-path="url(#pad72c79b9d)" d="M227 320.9h4v-.1h-4z" fill="#4c72b0" id="patch_47"/><path clip-path="url(#pad72c79b9d)" d="M231 320.9h4-4z" fill="#4c72b0" id="patch_48"/><path clip-path="url(#pad72c79b9d)" d="M235 320.9h4.1-4z" fill="#4c72b0" id="patch_49"/><path clip-path="url(#pad72c79b9d)" d="M239.1 320.9h4-4z" fill="#4c72b0" id="patch_50"/><path clip-path="url(#pad72c79b9d)" d="M243.2 320.9h4-4z" fill="#4c72b0" id="patch_51"/><path clip-path="url(#pad72c79b9d)" d="M247.2 320.9h4.1-4z" fill="#4c72b0" id="patch_52"/><path clip-path="url(#pad72c79b9d)" d="M251.3 320.9h4-4z" fill="#4c72b0" id="patch_53"/><path clip-path="url(#pad72c79b9d)" d="M255.4 320.9h4-4z" fill="#4c72b0" id="patch_54"/><path clip-path="url(#pad72c79b9d)" d="M259.4 320.9h4-4z" fill="#4c72b0" id="patch_55"/><path clip-path="url(#pad72c79b9d)" d="M263.5 320.9h4-4z" fill="#4c72b0" id="patch_56"/><path clip-path="url(#pad72c79b9d)" d="M267.5 320.9h4-4z" fill="#4c72b0" id="patch_57"/><path clip-path="url(#pad72c79b9d)" d="M271.6 320.9h4-4z" fill="#4c72b0" id="patch_58"/><path clip-path="url(#pad72c79b9d)" d="M275.6 320.9h4.1-4z" fill="#4c72b0" id="patch_59"/><path clip-path="url(#pad72c79b9d)" d="M279.7 320.9h4-4z" fill="#4c72b0" id="patch_60"/><path clip-path="url(#pad72c79b9d)" d="M283.8 320.9h4-4z" fill="#4c72b0" id="patch_61"/><path clip-path="url(#pad72c79b9d)" d="M287.8 320.9h4-4z" fill="#4c72b0" id="patch_62"/><path clip-path="url(#pad72c79b9d)" d="M291.9 320.9h4-4z" fill="#4c72b0" id="patch_63"/><path clip-path="url(#pad72c79b9d)" d="M296 320.9h4-4z" fill="#4c72b0" id="patch_64"/><path clip-path="url(#pad72c79b9d)" d="M300 320.9h4-4z" fill="#4c72b0" id="patch_65"/><path clip-path="url(#pad72c79b9d)" d="M304 320.9h4.1-4z" fill="#4c72b0" id="patch_66"/><path clip-path="url(#pad72c79b9d)" d="M308.1 320.9h4-4z" fill="#4c72b0" id="patch_67"/><path clip-path="url(#pad72c79b9d)" d="M312.2 320.9h4-4z" fill="#4c72b0" id="patch_68"/><path clip-path="url(#pad72c79b9d)" d="M316.2 320.9h4-4z" fill="#4c72b0" id="patch_69"/><path clip-path="url(#pad72c79b9d)" d="M320.3 320.9h4-4z" fill="#4c72b0" id="patch_70"/><path clip-path="url(#pad72c79b9d)" d="M324.3 320.9h4.1-4z" fill="#4c72b0" id="patch_71"/><path clip-path="url(#pad72c79b9d)" d="M328.4 320.9h4-4z" fill="#4c72b0" id="patch_72"/><path clip-path="url(#pad72c79b9d)" d="M332.5 320.9h4-4z" fill="#4c72b0" id="patch_73"/><path clip-path="url(#pad72c79b9d)" d="M336.5 320.9h4-4z" fill="#4c72b0" id="patch_74"/><path clip-path="url(#pad72c79b9d)" d="M340.6 320.9h4-4z" fill="#4c72b0" id="patch_75"/><path clip-path="url(#pad72c79b9d)" d="M344.6 320.9h4.1-4z" fill="#4c72b0" id="patch_76"/><path clip-path="url(#pad72c79b9d)" d="M348.7 320.9h4-4z" fill="#4c72b0" id="patch_77"/><path clip-path="url(#pad72c79b9d)" d="M352.8 320.9h4-4z" fill="#4c72b0" id="patch_78"/><path clip-path="url(#pad72c79b9d)" d="M356.8 320.9h4-4z" fill="#4c72b0" id="patch_79"/><path clip-path="url(#pad72c79b9d)" d="M360.9 320.9h4-4z" fill="#4c72b0" id="patch_80"/><path clip-path="url(#pad72c79b9d)" d="M365 320.9h4-4z" fill="#4c72b0" id="patch_81"/><path clip-path="url(#pad72c79b9d)" d="M369 320.9h4-4z" fill="#4c72b0" id="patch_82"/><path clip-path="url(#pad72c79b9d)" d="M373 320.9h4.1-4z" fill="#4c72b0" id="patch_83"/><path clip-path="url(#pad72c79b9d)" d="M377.1 320.9h4-4z" fill="#4c72b0" id="patch_84"/><path clip-path="url(#pad72c79b9d)" d="M381.2 320.9h4-4z" fill="#4c72b0" id="patch_85"/><path clip-path="url(#pad72c79b9d)" d="M385.2 320.9h4-4z" fill="#4c72b0" id="patch_86"/><path clip-path="url(#pad72c79b9d)" d="M389.3 320.9h4-4z" fill="#4c72b0" id="patch_87"/><path clip-path="url(#pad72c79b9d)" d="M393.3 320.9h4-4z" fill="#4c72b0" id="patch_88"/><path clip-path="url(#pad72c79b9d)" d="M397.4 320.9h4-4z" fill="#4c72b0" id="patch_89"/><path clip-path="url(#pad72c79b9d)" d="M401.5 320.9h4-4z" fill="#4c72b0" id="patch_90"/><path clip-path="url(#pad72c79b9d)" d="M405.5 320.9h4-4z" fill="#4c72b0" id="patch_91"/><path clip-path="url(#pad72c79b9d)" d="M409.6 320.9h4-4z" fill="#4c72b0" id="patch_92"/><path clip-path="url(#pad72c79b9d)" d="M413.6 320.9h4-4z" fill="#4c72b0" id="patch_93"/><path clip-path="url(#pad72c79b9d)" d="M417.7 320.9h4-4z" fill="#4c72b0" id="patch_94"/><path clip-path="url(#pad72c79b9d)" d="M421.7 320.9h4.1-4z" fill="#4c72b0" id="patch_95"/><path clip-path="url(#pad72c79b9d)" d="M425.8 320.9h4-4z" fill="#4c72b0" id="patch_96"/><path clip-path="url(#pad72c79b9d)" d="M429.9 320.9h4-4z" fill="#4c72b0" id="patch_97"/><path clip-path="url(#pad72c79b9d)" d="M434 320.9h4-4z" fill="#4c72b0" id="patch_98"/><path clip-path="url(#pad72c79b9d)" d="M438 320.9h4-4z" fill="#4c72b0" id="patch_99"/><path clip-path="url(#pad72c79b9d)" d="M442 320.9h4-4z" fill="#4c72b0" id="patch_100"/><path clip-path="url(#pad72c79b9d)" d="M446 320.9h4.2-4.1z" fill="#4c72b0" id="patch_101"/><path clip-path="url(#pad72c79b9d)" d="M450.2 320.9h4-4z" fill="#4c72b0" id="patch_102"/><path d="M28.1 320.9v-299" fill="none" id="patch_103"/><path d="M474.5 320.9v-299" fill="none" id="patch_104"/><path d="M28.1 320.9h446.4" fill="none" id="patch_105"/><path d="M28.1 21.9h446.4" fill="none" id="patch_106"/><g id="text_18"><defs><path d="M67.4 35.1q0-8.6-2.6-15.2-2.5-6.5-7-11Q53.3 4.6 47 2.4 41.1 0 34 0H8.2v68.8H31q8 0 14.6-2 6.7-2 11.6-6 4.8-4.2 7.5-10.6 2.7-6.3 2.7-15zm-9.3 0q0 7-2 12-2 4.9-5.7 8-3.6 3.2-8.6 4.7t-11 1.5H17.5V7.5H33q5.4 0 10 1.7 4.6 1.8 8 5.3 3.4 3.4 5.3 8.6Q58 28.3 58 35z" id="LiberationSans-44"/><path d="M73 34.7q0-8-2.3-14.6T64 8.8q-4.4-4.7-10.8-7.2Q47-1 38.8-1 30.3-1 24 1.7 17.5 4.3 13.3 9 9 14 6.9 20.4 4.7 27 4.7 34.7q0 8 2.3 14.6 2.2 6.5 6.6 11 4.3 4.6 10.7 7 6.4 2.5 14.6 2.5t14.6-2.5q6.4-2.5 10.7-7 4.3-4.6 6.5-11.1Q73 42.7 73 34.7zm-9.5 0q0 6.2-1.6 11.3-1.6 5-4.7 8.7-3 3.6-7.7 5.5-4.6 2-10.6 2-6.1 0-10.8-2-4.6-1.9-7.7-5.5-3.1-3.6-4.7-8.7-1.5-5-1.5-11.3 0-6.2 1.6-11.3 1.6-5.2 4.7-9 3-3.7 7.7-5.7 4.6-2.1 10.6-2.1 6.5 0 11.1 2 4.7 2.2 7.7 6 3 3.7 4.4 8.8 1.5 5.2 1.5 11.3z" id="LiberationSans-4f"/><path d="M6.7 64v8.5h8.8V64zm0-64v52.8h8.8V0z" id="LiberationSans-69"/><path d="M26.8-20.8q-4.6 0-8.1 1t-6 2.6q-2.5 1.8-4 4.2Q7-10.6 6.3-7.7l8.8 1.2q1-3.6 4-5.6 3-2 7.8-2 3 0 5.4.9 2.5.8 4.2 2.6 1.7 1.9 2.6 4.8 1 3 1 7.1v8.5H40q-1-2-2.4-3.8-1.4-1.8-3.5-3.3-2-1.4-4.8-2.2-2.7-.9-6.3-.9-5 0-8.6 1.7-3.6 1.7-5.8 5-2.3 3.4-3.3 8.4-1.1 5-1.1 11.6 0 6.4 1 11.4 1.1 5.1 3.5 8.7 2.3 3.5 6.1 5.4 3.8 1.9 9.2 1.9 5.6 0 9.8-2.6 4-2.6 6.3-7.3h.1l.1 2.7q0 1.5.2 2.9l.1 2.3.2 1.1h8.4l-.1-1.5-.1-2.5-.1-3.2V1.5q0-11-5.5-16.7-5.4-5.6-16.6-5.6zM40 26.5q0 5.5-1.2 9.5-1.1 3.9-3.1 6.4-2 2.5-4.5 3.7-2.5 1.1-5.1 1.1-3.4 0-5.8-1.1-2.4-1.2-4-3.7T14 35.8q-.7-4-.7-9.4 0-5.7.7-9.6.8-3.9 2.4-6.3 1.5-2.3 4-3.4 2.3-1 5.6-1 2.7 0 5.2 1.1t4.5 3.6q2 2.4 3.2 6.3 1.2 3.9 1.2 9.3z" id="LiberationSans-67"/><path d="M40.3 0v33.5q0 3.9-.6 6.4-.5 2.6-1.8 4.2t-3.4 2.3q-2 .6-5.1.6-3.1 0-5.6-1-2.6-1.2-4.3-3.3-1.8-2-2.8-5-1-3.1-1-7V0H7v48.5l-.2 2.8v1.5h8.2l.1-1.3.2-2.5v-2.8l.1-2.4h.2q1.3 2.3 2.8 4.2 1.5 1.8 3.5 3 2 1.4 4.6 2 2.6.8 6 .8 4.4 0 7.5-1 3.2-1.1 5.3-3.4 2-2.2 3-5.8 1-3.5 1-8.4V0z" id="LiberationSans-6e"/><path d="M20.2-1q-8 0-12 4.2t-4 11.6q0 5.2 2 8.5 2 3.4 5.2 5.3t7.3 2.6q4.1.7 8.3.8l12 .2v3q0 3.2-.8 5.5-.7 2.3-2 3.7-1.5 1.4-3.6 2-2.1.7-5 .7-2.6 0-4.6-.4-2-.3-3.6-1.3-1.5-1-2.4-2.6-1-1.6-1.2-4l-9.2.7q.5 3.2 1.8 5.8 1.4 2.6 4 4.5 2.4 1.9 6.2 3 3.8 1 9.2 1 10 0 15-4.6 5-4.5 5-13.2V13.3q0-4 1-6 1-1.9 4-1.9l1.4.1 1.4.3V.3Q54-.1 52.3-.3q-1.6-.2-3.5-.2-2.5 0-4.2.7-1.8.6-3 2-1 1.3-1.7 3.3-.5 2-.7 4.6h-.3q-1.4-2.5-3-4.6-1.8-2-4-3.5Q29.6.6 26.8-.2 23.9-1 20.2-1zm2 6.6q4.2 0 7.4 1.5 3.1 1.6 5.2 4 2 2.4 3 5.2 1.1 2.8 1.1 5.4v4.4l-9.6-.2q-3.2 0-6.1-.5-3-.4-5.1-1.6-2.2-1.2-3.5-3.4-1.3-2.2-1.3-5.8 0-4.3 2.3-6.6 2.3-2.4 6.6-2.4z" id="LiberationSans-61"/><path d="M6.7 0v72.5h8.8V0z" id="LiberationSans-6c"/><path d="M7 0v43.9l-.2 3.4v3l-.2 2.5H15l.2-2.5.1-3 .1-2.9V42h.2q1 3 2 5.3 1 2.2 2.5 3.7 1.4 1.4 3.3 2 2 .8 4.8.8l2-.2 1.5-.3v-8l-2 .3-2.6.1q-3 0-5.2-1.3-2.1-1.4-3.5-3.8-1.3-2.4-2-5.8-.6-3.3-.6-7.3V0z" id="LiberationSans-72"/><path d="M46.4 14.6q0-3.7-1.5-6.6-1.4-3-4.1-5Q38 1.2 34 0q-4-1-9-1-4.6 0-8.3.7Q13 .4 10.2 2 7.4 3.6 5.5 6.1q-1.8 2.6-2.7 6.3l7.7 1.5q1.2-4.2 4.7-6.2t9.8-2q2.8 0 5.1.4 2.4.4 4.1 1.4Q36 8.5 37 10q1 1.6 1 4 0 2.3-1.2 3.8-1.1 1.6-3.1 2.6t-4.9 1.8l-6.2 1.7q-3.2.8-6.3 1.8-3.2 1-5.7 2.7-2.5 1.7-4 4.2-1.6 2.5-1.6 6.3 0 7.2 5.1 11 5.2 3.8 15 3.8 8.8 0 14-3.1 5-3 6.5-9.9l-8-1q-.4 2.1-1.6 3.5-1.1 1.4-2.8 2.2-1.6.9-3.7 1.3-2.1.3-4.4.3-6 0-8.8-1.8-2.8-1.8-2.8-5.5 0-2.1 1-3.5 1.1-1.4 3-2.3 1.9-1 4.5-1.7l5.8-1.5 4.3-1.1q2.2-.6 4.3-1.5 2-.9 3.9-2 1.8-1.1 3.2-2.8 1.4-1.6 2.2-3.7.8-2.2.8-5z" id="LiberationSans-73"/><path d="M27 .4l-4-.9q-2-.3-4.8-.3-10.6 0-10.6 12v35.2h-6v6.4H8l2.5 11.9h6V52.8h9.7v-6.4h-9.8V13.1q0-3.8 1.2-5.4Q19 6.2 22 6.2q1.3 0 2.4.2l2.6.5z" id="LiberationSans-74"/><path d="M51.4 26.7Q51.4-1 32-1q-6 0-10 2.2t-6.5 7l-.1-2.6-.2-2.6-.1-2-.2-1H6.5v1.5L6.6 4l.1 3.2v65.3h8.8V51.8 49v-2.4l-.2-2.3h.2q2.5 5.1 6.5 7.3t10 2.2q10 0 14.7-6.7 4.7-6.8 4.7-20.4zm-9.2-.3q0 5.4-.7 9.4-.7 3.9-2.2 6.4-1.5 2.5-3.8 3.6Q33 47 29.7 47t-6-1.1q-2.7-1.1-4.5-3.6-1.8-2.5-2.7-6.6-1-4-1-9.9 0-5.6 1-9.5.9-3.8 2.7-6.3 1.8-2.4 4.4-3.4 2.6-1 6-1 3.3 0 5.6 1 2.3 1.2 4 3.7 1.5 2.4 2.2 6.4.8 4 .8 9.7z" id="LiberationSans-62"/><path d="M15.3 52.8V19.3q0-3.8.6-6.4.6-2.6 1.8-4.2 1.3-1.6 3.4-2.2 2-.7 5.1-.7 3.1 0 5.7 1.1 2.5 1.1 4.3 3.2 1.7 2 2.7 5.1 1 3 1 7v30.6h8.8V11.3 7.8 4.3l.2-2.8V0h-8.2l-.1 1.3-.1 2.5-.2 2.8V9H40Q39 6.7 37.4 5 35.8 3 33.8 1.7q-2-1.3-4.5-2-2.6-.7-6-.7-4.5 0-7.6 1-3.2 1.2-5.2 3.4-2 2.3-3 5.8t-1 8.4v35.2z" id="LiberationSans-75"/><path d="M51.4 26.5q0-14-6-20.7Q39.1-1 27.5-1 22-1 17.7.7q-4.3 1.6-7.3 5-3 3.5-4.6 8.6-1.6 5.2-1.6 12.2 0 27.3 23.7 27.3 6.1 0 10.6-1.7t7.3-5.1q2.9-3.4 4.2-8.6 1.4-5.1 1.4-12zm-9.2 0q0 6.1-1 10.1T38.5 43q-1.9 2.4-4.5 3.4-2.7 1-6 1t-6-1q-2.8-1-4.7-3.5-1.9-2.4-2.9-6.4t-1-10q0-6.2 1.1-10.2 1-4 3-6.4 1.8-2.4 4.4-3.4 2.6-1 5.6-1 3.4 0 6 1 2.8 1 4.7 3.3 2 2.4 3 6.4 1 4.1 1 10.3z" id="LiberationSans-6f"/><path d="M17.6 46.4V0H8.8v46.4H1.4v6.4h7.4v6q0 2.9.6 5.3.5 2.5 2 4.3 1.4 1.9 3.9 3 2.5 1 6.4 1l3.3-.2q1.7-.1 3-.4V65l-2 .3h-2q-2 0-3.2-.5-1.2-.5-2-1.5-.6-1-1-2.5-.2-1.4-.2-3.3v-4.8H28v-6.4z" id="LiberationSans-66"/><path d="M37.5 0v33.5q0 3.9-.5 6.4-.5 2.6-1.6 4.2-1.2 1.6-3 2.3-1.9.6-4.6.6-2.8 0-5-1-2.2-1.2-3.8-3.3-1.6-2-2.5-5-.8-3.1-.8-7V0H6.9v48.5l-.2 2.8v1.5h8.2l.1-1.3.2-2.5v-2.8l.1-2.4h.2q1.2 2.3 2.5 4.2 1.4 1.8 3.2 3 1.8 1.4 4.2 2 2.4.8 5.5.8 6 0 9.5-2.4t4.9-7.6h.1q1.2 2.3 2.6 4.2 1.5 1.8 3.5 3 2 1.4 4.4 2 2.4.8 5.5.8 4 0 7-1 2.8-1.1 4.7-3.4 1.9-2.2 2.7-5.8.9-3.5.9-8.4V0H68v33.5q0 3.9-.5 6.4-.5 2.6-1.6 4.2-1.2 1.6-3 2.3-1.9.6-4.6.6-2.7 0-5-1-2.2-1-3.8-3.1-1.6-2-2.5-5.1-.8-3.1-.8-7.2V0z" id="LiberationSans-6d"/></defs><g transform="matrix(.12 0 0 -.12 155.6 15.9)" fill="#262626"><use xlink:href="#LiberationSans-4f"/><use x="77.8" xlink:href="#LiberationSans-72"/><use x="111.1" xlink:href="#LiberationSans-69"/><use x="133.3" xlink:href="#LiberationSans-67"/><use x="188.9" xlink:href="#LiberationSans-69"/><use x="211.1" xlink:href="#LiberationSans-6e"/><use x="266.7" xlink:href="#LiberationSans-61"/><use x="322.4" xlink:href="#LiberationSans-6c"/><use x="344.6" xlink:href="#LiberationSans-20"/><use x="372.4" xlink:href="#LiberationSans-44"/><use x="444.6" xlink:href="#LiberationSans-69"/><use x="466.8" xlink:href="#LiberationSans-73"/><use x="516.8" xlink:href="#LiberationSans-74"/><use x="544.6" xlink:href="#LiberationSans-72"/><use x="577.9" xlink:href="#LiberationSans-69"/><use x="600.1" xlink:href="#LiberationSans-62"/><use x="655.7" xlink:href="#LiberationSans-75"/><use x="711.3" xlink:href="#LiberationSans-74"/><use x="739.1" xlink:href="#LiberationSans-69"/><use x="761.3" xlink:href="#LiberationSans-6f"/><use x="816.9" xlink:href="#LiberationSans-6e"/><use x="872.6" xlink:href="#LiberationSans-20"/><use x="900.3" xlink:href="#LiberationSans-6f"/><use x="956" xlink:href="#LiberationSans-66"/><use x="983.7" xlink:href="#LiberationSans-20"/><use x="1011.5" xlink:href="#LiberationSans-66"/><use x="1039.3" xlink:href="#LiberationSans-61"/><use x="1094.9" xlink:href="#LiberationSans-72"/><use x="1128.2" xlink:href="#LiberationSans-65"/><use x="1183.8" xlink:href="#LiberationSans-20"/><use x="1211.6" xlink:href="#LiberationSans-61"/><use x="1267.2" xlink:href="#LiberationSans-6d"/><use x="1350.5" xlink:href="#LiberationSans-6f"/><use x="1406.2" xlink:href="#LiberationSans-75"/><use x="1461.8" xlink:href="#LiberationSans-6e"/><use x="1517.4" xlink:href="#LiberationSans-74"/><use x="1545.2" xlink:href="#LiberationSans-73"/></g></g></g></g><defs><clipPath id="pad72c79b9d"><path d="M28.1 21.9h446.4v299H28.1z"/></clipPath></defs></svg>