<svg viewBox="0 0 493.2 329.7" xmlns="http://www.w3.org/2000/svg" xmlns:xlink="http://www.w3.org/1999/xlink"><defs><style>*{stroke-linecap:butt;stroke-linejoin:round}</style></defs><g id="figure_1"><path d="M0 329.7h493.2V0H0z" fill="#fff" id="patch_1"/><g id="axes_1"><path d="M39.6 306.2H486V7.2H39.6z" fill="#eaeaf2" id="patch_2"/><g id="matplotlib.axis_1"><g id="xtick_1"><path clip-path="url(#p46bc9b491e)" d="M102.6 306.2V7.2" fill="none" stroke="#fff" stroke-linecap="round" id="line2d_1"/><g id="text_1"><defs><path d="M52.8 0L16 58.6l.3-4.7.1-4.3.1-3.9V0H8.2v68.8H19l37.3-59-.3 4.8-.2 4.5-.1 4.6v45.1H64V0z" id="LiberationSans-78"/><path d="M51.4 26.5q0-14-6-20.7Q39.1-1 27.5-1 22-1 17.7.7q-4.3 1.6-7.3 5-3 3.5-4.6 8.6-1.6 5.2-1.6 12.2 0 27.3 23.7 27.3 6.1 0 10.6-1.7t7.3-5.1q2.9-3.4 4.2-8.6 1.4-5.1 1.4-12zm-9.2 0q0 6.1-1 10.1T38.5 43q-1.9 2.4-4.5 3.4-2.7 1-6 1t-6-1q-2.8-1-4.7-3.5-1.9-2.4-2.9-6.4t-1-10q0-6.2 1.1-10.2 1-4 3-6.4 1.8-2.4 4.4-3.4 2.6-1 5.6-1 3.4 0 6 1 2.8 1 4.7 3.3 2 2.4 3 6.4 1 4.1 1 10.3z" id="LiberationSans-111"/><path d="M27 .4l-4-.9q-2-.3-4.8-.3-10.6 0-10.6 12v35.2h-6v6.4H8l2.5 11.9h6V52.8h9.7v-6.4h-9.8V13.1q0-3.8 1.2-5.4Q19 6.2 22 6.2q1.3 0 2.4.2l2.6.5z" id="LiberationSans-116"/><path d="M15.5 43.8q1.4 2.7 3.1 4.6 1.8 1.9 3.8 3 2 1.3 4.5 1.9 2.4.5 5.5.5 5 0 8.3-1.4 3.3-1.3 5.1-3.8 1.9-2.5 2.6-5.9.7-3.4.7-7.5V0h-8.8v33.5q0 3.4-.4 5.9-.4 2.5-1.6 4.2-1.2 1.7-3.3 2.6-2.2.8-5.6.8-3.1 0-5.6-1.1-2.6-1.1-4.3-3.2-1.8-2-2.8-5-1-2.9-1-6.5V0H7v72.5h8.8V53.6v-3.2q0-1.6-.2-3v-2.3l-.2-1.3z" id="LiberationSans-104"/><path d="M6.7 64v8.5h8.8V64zm0-64v52.8h8.8V0z" id="LiberationSans-105"/><path d="M40.3 0v33.5q0 3.9-.6 6.4-.5 2.6-1.8 4.2t-3.4 2.3q-2 .6-5.1.6-3.1 0-5.6-1-2.6-1.2-4.3-3.3-1.8-2-2.8-5-1-3.1-1-7V0H7v48.5l-.2 2.8v1.5h8.2l.1-1.3.2-2.5v-2.8l.1-2.4h.2q1.3 2.3 2.8 4.2 1.5 1.8 3.5 3 2 1.4 4.6 2 2.6.8 6 .8 4.4 0 7.5-1 3.2-1.1 5.3-3.4 2-2.2 3-5.8 1-3.5 1-8.4V0z" id="LiberationSans-110"/><path d="M26.8-20.8q-4.6 0-8.1 1t-6 2.6q-2.5 1.8-4 4.2Q7-10.6 6.3-7.7l8.8 1.2q1-3.6 4-5.6 3-2 7.8-2 3 0 5.4.9 2.5.8 4.2 2.6 1.7 1.9 2.6 4.8 1 3 1 7.1v8.5H40q-1-2-2.4-3.8-1.4-1.8-3.5-3.3-2-1.4-4.8-2.2-2.7-.9-6.3-.9-5 0-8.6 1.7-3.6 1.7-5.8 5-2.3 3.4-3.3 8.4-1.1 5-1.1 11.6 0 6.4 1 11.4 1.1 5.1 3.5 8.7 2.3 3.5 6.1 5.4 3.8 1.9 9.2 1.9 5.6 0 9.8-2.6 4-2.6 6.3-7.3h.1l.1 2.7q0 1.5.2 2.9l.1 2.3.2 1.1h8.4l-.1-1.5-.1-2.5-.1-3.2V1.5q0-11-5.5-16.7-5.4-5.6-16.6-5.6zM40 26.5q0 5.5-1.2 9.5-1.1 3.9-3.1 6.4-2 2.5-4.5 3.7-2.5 1.1-5.1 1.1-3.4 0-5.8-1.1-2.4-1.2-4-3.7T14 35.8q-.7-4-.7-9.4 0-5.7.7-9.6.8-3.9 2.4-6.3 1.5-2.3 4-3.4 2.3-1 5.6-1 2.7 0 5.2 1.1t4.5 3.6q2 2.4 3.2 6.3 1.2 3.9 1.2 9.3z" id="LiberationSans-103"/></defs><g transform="matrix(.1 0 0 -.1 85.4 320.4)" fill="#262626"><use xlink:href="#LiberationSans-78"/><use x="72.2" xlink:href="#LiberationSans-111"/><use x="127.8" xlink:href="#LiberationSans-116"/><use x="155.6" xlink:href="#LiberationSans-104"/><use x="211.2" xlink:href="#LiberationSans-105"/><use x="233.4" xlink:href="#LiberationSans-110"/><use x="289.1" xlink:href="#LiberationSans-103"/></g></g></g><g id="xtick_2"><path clip-path="url(#p46bc9b491e)" d="M209.4 306.2V7.2" fill="none" stroke="#fff" stroke-linecap="round" id="line2d_3"/><g id="text_2"><defs><path d="M62.1 19q0-4.3-1.7-8t-5.2-6.3Q51.7 2 46.4.5 41-1 33.7-1q-12.9 0-20 4.5-7.2 4.5-9.2 13l9 1.8q.8-2.7 2.2-4.9 1.4-2.2 3.8-3.8 2.4-1.5 6-2.4 3.5-.9 8.5-.9 4.2 0 7.7.7 3.4.7 6 2.2 2.4 1.4 3.8 3.8 1.4 2.3 1.4 5.5 0 3.4-1.6 5.5-1.5 2-4.3 3.4t-6.6 2.3l-8.6 2-5.8 1.4q-2.9.8-5.5 1.8-2.7 1-5 2.5-2.4 1.4-4 3.4-1.8 2-2.8 4.6-1 2.6-1 6 0 4.9 2 8.4t5.5 5.7q3.6 2.3 8.3 3.3 4.8 1 10.4 1 6.4 0 11-1 4.5-1 7.6-3 3.1-2 5-5 1.9-2.9 3-6.8l-9.2-1.6q-.7 2.5-2 4.4-1.3 2-3.4 3.3-2 1.3-5 2t-7.1.7q-4.8 0-8-.9-3.3-.8-5.3-2.3-2-1.4-2.8-3.4-.9-2-.9-4.3 0-3 1.6-5 1.5-2 4.2-3.4 2.6-1.3 6-2.1 3.5-1 7.4-1.8l6.4-1.5q3.1-.7 6-1.8 2.9-1 5.4-2.5 2.5-1.4 4.4-3.4 1.8-2 2.9-4.9 1-2.8 1-6.5z" id="LiberationSans-83"/><path d="M7 0v43.9l-.2 3.4v3l-.2 2.5H15l.2-2.5.1-3 .1-2.9V42h.2q1 3 2 5.3 1 2.2 2.5 3.7 1.4 1.4 3.3 2 2 .8 4.8.8l2-.2 1.5-.3v-8l-2 .3-2.6.1q-3 0-5.2-1.3-2.1-1.4-3.5-3.8-1.3-2.4-2-5.8-.6-3.3-.6-7.3V0z" id="LiberationSans-114"/></defs><g transform="matrix(.1 0 0 -.1 201.9 320.4)" fill="#262626"><use xlink:href="#LiberationSans-83"/><use x="66.7" xlink:href="#LiberationSans-116"/><use x="94.5" xlink:href="#LiberationSans-105"/><use x="116.7" xlink:href="#LiberationSans-114"/></g></g></g><g id="xtick_3"><path clip-path="url(#p46bc9b491e)" d="M316.2 306.2V7.2" fill="none" stroke="#fff" stroke-linecap="round" id="line2d_5"/><g id="text_3"><defs><path d="M15.3 52.8V19.3q0-3.8.6-6.4.6-2.6 1.8-4.2 1.3-1.6 3.4-2.2 2-.7 5.1-.7 3.1 0 5.7 1.1 2.5 1.1 4.3 3.2 1.7 2 2.7 5.1 1 3 1 7v30.6h8.8V11.3 7.8 4.3l.2-2.8V0h-8.2l-.1 1.3-.1 2.5-.2 2.8V9H40Q39 6.7 37.4 5 35.8 3 33.8 1.7q-2-1.3-4.5-2-2.6-.7-6-.7-4.5 0-7.6 1-3.2 1.2-5.2 3.4-2 2.3-3 5.8t-1 8.4v35.2z" id="LiberationSans-117"/><path d="M20.2-1q-8 0-12 4.2t-4 11.6q0 5.2 2 8.5 2 3.4 5.2 5.3t7.3 2.6q4.1.7 8.3.8l12 .2v3q0 3.2-.8 5.5-.7 2.3-2 3.7-1.5 1.4-3.6 2-2.1.7-5 .7-2.6 0-4.6-.4-2-.3-3.6-1.3-1.5-1-2.4-2.6-1-1.6-1.2-4l-9.2.7q.5 3.2 1.8 5.8 1.4 2.6 4 4.5 2.4 1.9 6.2 3 3.8 1 9.2 1 10 0 15-4.6 5-4.5 5-13.2V13.3q0-4 1-6 1-1.9 4-1.9l1.4.1 1.4.3V.3Q54-.1 52.3-.3q-1.6-.2-3.5-.2-2.5 0-4.2.7-1.8.6-3 2-1 1.3-1.7 3.3-.5 2-.7 4.6h-.3q-1.4-2.5-3-4.6-1.8-2-4-3.5Q29.6.6 26.8-.2 23.9-1 20.2-1zm2 6.6q4.2 0 7.4 1.5 3.1 1.6 5.2 4 2 2.4 3 5.2 1.1 2.8 1.1 5.4v4.4l-9.6-.2q-3.2 0-6.1-.5-3-.4-5.1-1.6-2.2-1.2-3.5-3.4-1.3-2.2-1.3-5.8 0-4.3 2.3-6.6 2.3-2.4 6.6-2.4z" id="LiberationSans-97"/></defs><g transform="matrix(.1 0 0 -.1 302.8 320.4)" fill="#262626"><use xlink:href="#LiberationSans-83"/><use x="66.7" xlink:href="#LiberationSans-117"/><use x="122.3" xlink:href="#LiberationSans-103"/><use x="177.9" xlink:href="#LiberationSans-97"/><use x="233.5" xlink:href="#LiberationSans-114"/></g></g></g><g id="xtick_4"><path clip-path="url(#p46bc9b491e)" d="M423 306.2V7.2" fill="none" stroke="#fff" stroke-linecap="round" id="line2d_7"/><g id="text_4"><defs><path d="M32.8 29.7V8.8h-7.2v20.9H4.9v7.1h20.7v21h7.2v-21h20.7v-7.1z" id="LiberationSans-43"/><path d="M46.4 14.6q0-3.7-1.5-6.6-1.4-3-4.1-5Q38 1.2 34 0q-4-1-9-1-4.6 0-8.3.7Q13 .4 10.2 2 7.4 3.6 5.5 6.1q-1.8 2.6-2.7 6.3l7.7 1.5q1.2-4.2 4.7-6.2t9.8-2q2.8 0 5.1.4 2.4.4 4.1 1.4Q36 8.5 37 10q1 1.6 1 4 0 2.3-1.2 3.8-1.1 1.6-3.1 2.6t-4.9 1.8l-6.2 1.7q-3.2.8-6.3 1.8-3.2 1-5.7 2.7-2.5 1.7-4 4.2-1.6 2.5-1.6 6.3 0 7.2 5.1 11 5.2 3.8 15 3.8 8.8 0 14-3.1 5-3 6.5-9.9l-8-1q-.4 2.1-1.6 3.5-1.1 1.4-2.8 2.2-1.6.9-3.7 1.3-2.1.3-4.4.3-6 0-8.8-1.8-2.8-1.8-2.8-5.5 0-2.1 1-3.5 1.1-1.4 3-2.3 1.9-1 4.5-1.7l5.8-1.5 4.3-1.1q2.2-.6 4.3-1.5 2-.9 3.9-2 1.8-1.1 3.2-2.8 1.4-1.6 2.2-3.7.8-2.2.8-5z" id="LiberationSans-115"/></defs><g transform="matrix(.1 0 0 -.1 397.3 320.4)" fill="#262626"><use xlink:href="#LiberationSans-83"/><use x="66.7" xlink:href="#LiberationSans-117"/><use x="122.3" xlink:href="#LiberationSans-103"/><use x="177.9" xlink:href="#LiberationSans-97"/><use x="233.5" xlink:href="#LiberationSans-114"/><use x="266.8" xlink:href="#LiberationSans-32"/><use x="294.6" xlink:href="#LiberationSans-43"/><use x="353" xlink:href="#LiberationSans-32"/><use x="380.8" xlink:href="#LiberationSans-115"/><use x="430.8" xlink:href="#LiberationSans-116"/><use x="458.6" xlink:href="#LiberationSans-105"/><use x="480.8" xlink:href="#LiberationSans-114"/></g></g></g></g><g id="matplotlib.axis_2"><g id="ytick_1"><path clip-path="url(#p46bc9b491e)" d="M39.6 306.2H486" fill="none" stroke="#fff" stroke-linecap="round" id="line2d_9"/><g id="text_5"><defs><path d="M51.7 34.4q0-9.9-1.9-16.6-1.8-6.8-5.1-11-3.2-4.2-7.6-6Q32.7-1 27.7-1T18.3.8q-4.3 1.8-7.5 6-3.2 4.1-5 10.9-1.9 6.8-1.9 16.7 0 10.4 1.8 17.2 1.9 6.9 5 10.9 3.3 4 7.7 5.7 4.4 1.6 9.6 1.6 5 0 9.2-1.6 4.3-1.7 7.6-5.7 3.2-4 5-10.9 1.9-6.8 1.9-17.2zm-9 0q0 8.2-.9 13.7-1 5.4-2.9 8.7-1.9 3.2-4.6 4.6-2.8 1.3-6.3 1.3-3.7 0-6.6-1.4-2.8-1.3-4.7-4.6-2-3.2-3-8.7-.9-5.4-.9-13.6 0-7.9 1-13.3t3-8.7q1.9-3.3 4.6-4.8 2.8-1.4 6.4-1.4 3.4 0 6.2 1.4 2.8 1.5 4.7 4.8 2 3.3 3 8.7 1 5.4 1 13.3z" id="LiberationSans-48"/></defs><use xlink:href="#LiberationSans-48" transform="matrix(.1 0 0 -.1 27 309.8)" fill="#262626"/></g></g><g id="ytick_2"><path clip-path="url(#p46bc9b491e)" d="M39.6 249.2H486" fill="none" stroke="#fff" stroke-linecap="round" id="line2d_11"/><g id="text_6"><defs><path d="M5 0v6.2q2.5 5.7 6.1 10 3.6 4.5 7.6 8l7.8 6.6q3.9 3 7 6t5 6.4q2 3.3 2 7.5 0 3-1 5.1-.8 2.3-2.4 3.8-1.7 1.5-4 2.2-2.3.8-5.2.8-2.6 0-5-.7-2.2-.8-4-2.2-1.9-1.5-3-3.7-1.2-2.1-1.5-5l-9 .8q.5 3.7 2 7Q9.2 62 12 64.5q2.8 2.5 6.8 4 4 1.3 9.2 1.3 5.2 0 9.2-1.2 4-1.2 6.7-3.6 2.8-2.4 4.2-6 1.5-3.4 1.5-8 0-3.5-1.2-6.6-1.3-3.1-3.4-6-2-2.8-4.8-5.4-2.7-2.7-5.7-5.2l-6-5q-3-2.4-5.7-5-2.6-2.4-4.7-5t-3.3-5.3h35.9V0z" id="LiberationSans-50"/></defs><use xlink:href="#LiberationSans-50" transform="matrix(.1 0 0 -.1 27 252.9)" fill="#262626"/></g></g><g id="ytick_3"><path clip-path="url(#p46bc9b491e)" d="M39.6 192.3H486" fill="none" stroke="#fff" stroke-linecap="round" id="line2d_13"/><g id="text_7"><defs><path d="M43 15.6V0h-8.3v15.6H2.3v6.8l31.5 46.4H43V22.5h9.7v-7zm-8.3 43.3q0-.3-.5-1l-.9-1.6-1-1.7-.8-1.5-17.7-26-.7-1-1-1.3q-.4-.7-1-1.3l-.7-1h24.3z" id="LiberationSans-52"/></defs><use xlink:href="#LiberationSans-52" transform="matrix(.1 0 0 -.1 27 196)" fill="#262626"/></g></g><g id="ytick_4"><path clip-path="url(#p46bc9b491e)" d="M39.6 135.3H486" fill="none" stroke="#fff" stroke-linecap="round" id="line2d_15"/><g id="text_8"><defs><path d="M51.2 22.5q0-5.2-1.4-9.5-1.5-4.3-4.3-7.4-2.8-3.1-7-4.8Q34.6-1 29-1q-6 0-10.5 2.3T11 8q-3 4.3-4.4 10.6Q5 24.8 5 32.8 5 42 6.8 49q1.7 7 4.8 11.6 3.2 4.6 7.8 7 4.5 2.3 10.3 2.3 3.5 0 6.6-.7 3-.7 5.6-2.4 2.5-1.6 4.4-4.3 1.9-2.7 3-6.6L41 54.3q-1.4 4.4-4.4 6.4-3 2-7 2-3.5 0-6.5-1.7-2.9-1.7-5-5.1-2-3.4-3-8.5-1.2-5.2-1.2-12 2.4 4.4 6.8 6.8 4.3 2.3 10 2.3 4.6 0 8.4-1.5 3.8-1.5 6.5-4.4 2.8-2.9 4.2-7 1.5-4 1.5-9zm-9-.4q0 3.6-.8 6.5-.9 2.9-2.6 4.9-1.8 2-4.4 3-2.6 1.2-6 1.2-2.4 0-4.8-.7-2.5-.7-4.4-2.3-2-1.6-3.3-4.2-1.2-2.6-1.2-6.3 0-3.8 1-7 1-3.4 2.8-5.8 1.8-2.5 4.4-3.9 2.6-1.4 5.8-1.4 3.2 0 5.7 1.1t4.3 3.2q1.7 2 2.7 5 .9 3 .9 6.7z" id="LiberationSans-54"/></defs><use xlink:href="#LiberationSans-54" transform="matrix(.1 0 0 -.1 27 139)" fill="#262626"/></g></g><g id="ytick_5"><path clip-path="url(#p46bc9b491e)" d="M39.6 78.4H486" fill="none" stroke="#fff" stroke-linecap="round" id="line2d_17"/><g id="text_9"><defs><path d="M51.3 19.2q0-4.4-1.4-8-1.4-3.8-4.3-6.5Q42.8 2 38.3.5 34-1 27.8-1q-6 0-10.4 1.5Q12.9 2 10 4.7q-2.9 2.7-4.3 6.4t-1.4 8q0 3.8 1.2 6.7 1.1 3 3 5 2 2.2 4.5 3.4 2.4 1.3 5 1.8v.2q-2.8.7-5 2.2-2.4 1.5-4 3.6-1.4 2.1-2.3 4.7-.7 2.6-.7 5.5 0 3.6 1.3 6.8 1.4 3.2 4.2 5.6 2.7 2.4 6.8 3.8 4 1.4 9.3 1.4 5.6 0 9.8-1.4 4.1-1.4 6.8-3.8t4-5.7q1.4-3.2 1.4-6.8 0-2.8-.9-5.4Q48 44 46.5 42q-1.5-2.2-3.8-3.7-2.3-1.4-5.2-2V36q3-.5 5.5-1.8t4.4-3.4q1.8-2.1 2.9-5 1-3 1-6.7zM40.4 51.6q0 2.6-.6 4.7-.7 2.2-2.2 3.7-1.5 1.6-4 2.4-2.4.9-6 .9-3.4 0-5.8-.9-2.4-.8-4-2.4-1.5-1.5-2.2-3.7-.7-2.1-.7-4.7 0-2 .6-4.2.5-2.1 2-3.9 1.3-1.8 3.8-2.9 2.5-1.1 6.4-1.1 4.2 0 6.7 1.1t3.9 2.9q1.3 1.8 1.7 4 .4 2 .4 4.1zM42.1 20q0 2.5-.6 4.8-.7 2.4-2.4 4.1-1.6 1.8-4.5 3-2.8 1-7 1-3.8 0-6.5-1-2.7-1.2-4.4-3-1.7-1.8-2.5-4.2-.8-2.3-.8-4.9 0-3.1.8-5.8.8-2.6 2.5-4.5 1.7-1.8 4.5-2.9 2.8-1 6.7-1 4 0 6.8 1 2.7 1 4.4 3 1.6 1.8 2.3 4.5.7 2.7.7 6z" id="LiberationSans-56"/></defs><use xlink:href="#LiberationSans-56" transform="matrix(.1 0 0 -.1 27 82)" fill="#262626"/></g></g><g id="ytick_6"><path clip-path="url(#p46bc9b491e)" d="M39.6 21.4H486" fill="none" stroke="#fff" stroke-linecap="round" id="line2d_19"/><g id="text_10"><defs><path d="M7.6 0v7.5h17.5v53L9.6 49.2v8.3L26 68.8h8V7.5h16.8V0z" id="LiberationSans-49"/></defs><g transform="matrix(.1 0 0 -.1 21.5 25)" fill="#262626"><use xlink:href="#LiberationSans-49"/><use x="55.6" xlink:href="#LiberationSans-48"/></g></g></g><g id="text_11"><defs><path d="M38.7 62.2q-5.9 0-10.4-2-4.5-1.9-7.6-5.5-3-3.6-4.6-8.7-1.6-5-1.6-11.3 0-6.2 1.7-11.3 1.7-5.2 4.9-8.9 3.1-3.7 7.7-5.8 4.5-2 10.3-2 4 0 7.3 1 3.3 1.1 6 3 2.6 1.9 4.7 4.5 2 2.6 3.7 5.8l7.6-3.8q-1.9-3.9-4.6-7.2-2.7-3.3-6.4-5.8Q53.7 1.9 49 .5 44.4-1 38.6-1 30.3-1 24 1.7 17.7 4.3 13.5 9 9.3 14 7.2 20.4 5 27 5 34.7q0 8 2.2 14.6 2.2 6.5 6.5 11 4.3 4.6 10.5 7 6.3 2.5 14.3 2.5 11 0 18.3-4.3 7.4-4.3 10.9-12.7l-8.9-3q-1 2.5-2.6 4.7-1.7 2.2-4.2 4-2.4 1.7-5.8 2.7-3.3 1-7.6 1z" id="LiberationSans-67"/><path d="M17.6 46.4V0H8.8v46.4H1.4v6.4h7.4v6q0 2.9.6 5.3.5 2.5 2 4.3 1.4 1.9 3.9 3 2.5 1 6.4 1l3.3-.2q1.7-.1 3-.4V65l-2 .3h-2q-2 0-3.2-.5-1.2-.5-2-1.5-.6-1-1-2.5-.2-1.4-.2-3.3v-4.8H28v-6.4z" id="LiberationSans-102"/><path d="M13.5 24.6q0-4.2.8-7.7.9-3.5 2.7-6 1.8-2.5 4.5-3.9 2.8-1.4 6.7-1.4 5.7 0 9.2 2.3 3.4 2.3 4.6 5.8l7.8-2.2q-.9-2.2-2.4-4.4-1.4-2.2-4-4-2.4-1.8-6.2-3-3.7-1-9-1Q16.5-1 10.4 6q-6.2 7-6.2 20.8 0 7.4 1.9 12.5 1.9 5.2 5 8.4 3.3 3.2 7.6 4.7 4.3 1.4 9.2 1.4 6.6 0 11-2.1 4.6-2.2 7.3-6t3.8-8.9q1.2-5.1 1.2-11v-1.2zM42 31.3q-.7 8.4-4.3 12.2-3.5 3.8-10 3.8-2.3 0-4.7-.7-2.4-.7-4.4-2.5-2-1.8-3.5-5-1.4-3-1.6-7.8z" id="LiberationSans-101"/><path d="M57.3 0H47.1l-8.4 34-.8 3.4-.8 3.8-1 4.4-.9-4.3-.9-3.9-.8-3.5L24.8 0H14.7L-.1 52.8h8.6l9-35.9.7-2.7.6-3.2.8-3.7.8 3.6.8 3 .7 2.6 9.6 36.3h9.4L50 16.5l.7-2.8.8-3 .7-3.4.8 3.6.7 3.1.7 3L64 52.7h8.6z" id="LiberationSans-119"/></defs><g transform="matrix(0 -.11 -.11 0 15.2 200.4)" fill="#262626"><use xlink:href="#LiberationSans-67"/><use x="72.2" xlink:href="#LiberationSans-111"/><use x="127.8" xlink:href="#LiberationSans-102"/><use x="155.6" xlink:href="#LiberationSans-102"/><use x="183.4" xlink:href="#LiberationSans-101"/><use x="239" xlink:href="#LiberationSans-101"/><use x="294.6" xlink:href="#LiberationSans-32"/><use x="322.4" xlink:href="#LiberationSans-115"/><use x="372.4" xlink:href="#LiberationSans-119"/><use x="444.6" xlink:href="#LiberationSans-101"/><use x="500.2" xlink:href="#LiberationSans-101"/><use x="555.8" xlink:href="#LiberationSans-116"/><use x="583.6" xlink:href="#LiberationSans-110"/><use x="639.2" xlink:href="#LiberationSans-101"/><use x="694.9" xlink:href="#LiberationSans-115"/><use x="744.9" xlink:href="#LiberationSans-115"/></g></g></g><path clip-path="url(#p46bc9b491e)" d="M59.9 306.2h85.4v-28.5H59.9z" fill="#4c72b0" id="patch_3"/><path clip-path="url(#p46bc9b491e)" d="M166.7 306.2H252v-28.5h-85.4z" fill="#4c72b0" id="patch_4"/><path clip-path="url(#p46bc9b491e)" d="M273.5 306.2h85.4v-85.4h-85.4z" fill="#4c72b0" id="patch_5"/><path clip-path="url(#p46bc9b491e)" d="M380.2 306.2h85.5V21.4h-85.5z" fill="#4c72b0" id="patch_6"/><path d="M39.6 306.2V7.2" fill="none" id="patch_7"/><path d="M486 306.2V7.2" fill="none" id="patch_8"/><path d="M39.6 306.2H486" fill="none" id="patch_9"/><path d="M39.6 7.2H486" fill="none" id="patch_10"/></g></g><defs><clipPath id="p46bc9b491e"><path d="M39.6 7.2H486v299H39.6z"/></clipPath></defs></svg>