<svg viewBox="0 0 726 581.9" fill="none" stroke-linecap="square" stroke-miterlimit="10" xmlns="http://www.w3.org/2000/svg"><clipPath id="a"><path d="M0 0h726v581.9H0V0z"/></clipPath><g clip-path="url(#a)"><path fill="#000" fill-opacity="0" d="M0 0h726v581.9H0z" fill-rule="evenodd"/><path fill="#000" fill-opacity="0" d="M0 0h726v581.9H0zM13.8 316.3h706.6" fill-rule="evenodd"/><path stroke="#000" stroke-linejoin="round" stroke-linecap="butt" stroke-dasharray="4.0,3.0" d="M13.8 316.3h706.6" fill-rule="evenodd"/><path fill="#000" fill-opacity="0" d="M194.6 416.3l77.4-74.4" fill-rule="evenodd"/><path stroke="#000" stroke-width="2" stroke-linejoin="round" stroke-linecap="butt" d="M194.6 416.3l77.4-74.4" fill-rule="evenodd"/><path fill="#000" fill-opacity="0" d="M272 342l-77.4 114.2" fill-rule="evenodd"/><path stroke="#000" stroke-width="2" stroke-linejoin="round" stroke-linecap="butt" d="M272 342l-77.4 114.2" fill-rule="evenodd"/><path fill="#000" fill-opacity="0" d="M42.1 25.8h134.4v51H42z" fill-rule="evenodd"/><path fill="#000" d="M88.3 44.6h-5.5v15.2h-2.2V44.6h-5.5v-1.8h13.2v1.8zm10 15.2l-.3-1.3q-1.5 1.6-3.6 1.6-1.8 0-3-1-1.2-1.1-1.2-2.8 0-2 1.5-3 1.5-1.1 4.2-1.1h2v-1q0-1.2-.6-1.9-.7-.6-2-.6-1.1 0-2 .6-.7.5-.7 1.4h-2.2q0-1 .7-1.9.7-.8 1.8-1.4 1.2-.5 2.5-.5 2.2 0 3.5 1.1 1.2 1.1 1.3 3V57q0 1.7.4 2.8v.1h-2.3zm-3.6-1.6q1 0 2-.5.9-.6 1.3-1.4v-2.6h-1.7q-4 0-4 2.3 0 1 .7 1.6.7.6 1.7.6zm15-9l-1-.2q-2.2 0-3 1.8v9h-2.1V47.2h2l.1 1.4q1-1.7 3-1.7.7 0 1 .2v2zm1.5 4.2q0-3 1.3-4.7 1.4-1.8 3.7-1.8 2.3 0 3.6 1.7l.1-1.4h2v12.3q0 2.5-1.5 4-1.4 1.3-3.9 1.3-1.4 0-2.7-.5-1.3-.6-2-1.7l1.1-1.3q1.4 1.8 3.5 1.8 1.5 0 2.4-1 .9-.8.9-2.4v-1.1q-1.3 1.5-3.5 1.5-2.3 0-3.7-1.8-1.3-1.8-1.3-5zm2.2.2q0 2.2.8 3.4 1 1.2 2.5 1.2 2 0 3-1.8v-5.8q-1-1.8-3-1.8-1.6 0-2.5 1.2-.8 1.2-.8 3.6zm17 6.5q-2.6 0-4.2-1.7t-1.6-4.5v-.4q0-2 .7-3.4.7-1.5 2-2.3 1.3-.9 2.9-.9 2.4 0 3.8 1.7 1.4 1.6 1.4 4.6v1h-8.6q0 1.8 1 3 1.1 1.1 2.7 1.1 1.2 0 2-.5.8-.4 1.4-1.2l1.3 1q-1.6 2.5-4.8 2.5zm-.2-11.4q-1.4 0-2.3 1-.8 1-1 2.6h6.3v-.1q-.1-1.7-.9-2.6-.8-.9-2.1-.9zm10.6-4.6v3h2.4v1.7h-2.4v8q0 .7.3 1 .3.4 1.1.4l1-.1v1.7q-.8.3-1.6.3-1.5 0-2.2-.9-.8-.9-.8-2.5v-7.9h-2.3v-1.6h2.3V44h2.2z"/><path fill="#000" fill-opacity="0" d="M24 476.2h170.6v40H24z" fill-rule="evenodd"/><path stroke="#000" stroke-width="2" stroke-linejoin="round" stroke-linecap="butt" d="M24 476.2h170.6v40H24z" fill-rule="evenodd"/><path fill="#000" d="M99.7 503.6h-9.9v-1.4l5.3-5.8q1.1-1.3 1.5-2.2.5-.8.5-1.7 0-1.1-.7-1.9-.7-.8-2-.8-1.4 0-2.2.9-.8.8-.8 2.2h-1.9q0-2 1.3-3.4 1.4-1.3 3.7-1.3 2 0 3.3 1.2 1.2 1 1.2 3 0 2.1-2.8 5.2l-4 4.4h7.5v1.6zm2.3-1q0-.5.3-.8.3-.4.9-.4.6 0 .9.4.3.3.3.8t-.3.8q-.3.3-.9.3-.6 0-.9-.3-.3-.3-.3-.8zm14.9-5.4q0 3.3-1.2 5-1.1 1.6-3.6 1.6-2.4 0-3.6-1.6-1.1-1.6-1.2-4.8v-2.6q0-3.3 1.2-5 1.1-1.6 3.6-1.6 2.4 0 3.6 1.6 1.2 1.6 1.2 4.9v2.5zm-2-2.7q0-2.4-.6-3.5-.7-1.2-2.2-1.2-1.5 0-2.2 1.1-.6 1.2-.6 3.5v3q0 2.5.7 3.7.7 1.2 2.1 1.2 1.4 0 2.1-1.1.7-1.2.8-3.5v-3.2zm7.3.6h1.4q1.4 0 2.2-.7.7-.7.7-1.9 0-2.7-2.6-2.7-1.3 0-2 .8-.8.7-.8 1.8h-1.9q0-1.8 1.3-3 1.4-1.2 3.4-1.2 2.1 0 3.3 1.2 1.3 1.1 1.3 3.1 0 1-.7 2-.6.9-1.7 1.3 1.2.4 2 1.4.6.9.6 2.2 0 2-1.3 3.2-1.4 1.2-3.5 1.2t-3.5-1.1q-1.3-1.2-1.3-3h2q0 1.1.7 1.8.8.8 2.1.8 1.4 0 2.1-.8.8-.7.8-2 0-1.4-.8-2.1-.9-.7-2.4-.7h-1.4V495z"/><path fill="#d9ead3" d="M24 436.2h170.6v40H24z" fill-rule="evenodd"/><path stroke="#000" stroke-width="2" stroke-linejoin="round" stroke-linecap="butt" d="M24 436.2h170.6v40H24z" fill-rule="evenodd"/><path fill="#000" d="M99.3 457.2q0 3.4-1.2 5-1.1 1.7-3.6 1.7-2.4 0-3.6-1.6-1.1-1.6-1.2-4.8v-2.6q0-3.3 1.2-5 1.2-1.6 3.6-1.6 2.5 0 3.6 1.6 1.2 1.6 1.2 4.8v2.5zm-2-2.6q0-2.5-.6-3.6-.7-1.1-2.2-1.1-1.5 0-2.2 1.1-.6 1.1-.6 3.4v3.1q0 2.5.7 3.7.7 1.1 2.1 1.1 1.5 0 2.1-1 .7-1.2.8-3.6v-3.1zm4.7 8q0-.4.3-.8.3-.3.9-.3.6 0 .9.3.3.4.3.9t-.3.8q-.3.3-.9.3-.6 0-.9-.3-.3-.3-.3-.8zm11.7 1h-2v-12.8l-3.8 1.5v-1.8l5.5-2h.3v15.2zm13-6.6q-.6.7-1.4 1.2-.8.4-1.8.4-1.4 0-2.3-.6-1-.7-1.5-1.8-.6-1.2-.6-2.6 0-1.6.6-2.8.6-1.2 1.7-1.8 1-.7 2.4-.7 2.3 0 3.6 1.7 1.3 1.7 1.3 4.6v.5q0 4.5-1.8 6.5-1.7 2-5.3 2.1h-.3v-1.6h.4q2.4 0 3.7-1.3 1.2-1.2 1.3-3.8zm-3 0q1 0 1.9-.6.8-.6 1.2-1.4v-.8q0-2-.9-3-.8-1.3-2-1.3-1.3 0-2.1 1t-.8 2.6q0 1.5.8 2.5.7 1 2 1z"/><path fill="#d9ead3" d="M24 396.3h170.6v40H24z" fill-rule="evenodd"/><path stroke="#000" stroke-width="2" stroke-linejoin="round" stroke-linecap="butt" d="M24 396.3h170.6v40H24z" fill-rule="evenodd"/><path fill="#000" d="M99.7 423.7h-9.9v-1.3l5.3-5.9q1.1-1.3 1.5-2.1.5-.9.5-1.7 0-1.2-.7-2-.7-.7-2-.7-1.4 0-2.2.8-.8.8-.8 2.3h-1.9q0-2.1 1.3-3.4 1.4-1.3 3.7-1.3 2 0 3.3 1 1.2 1.2 1.2 3 0 2.3-2.8 5.4l-4 4.4h7.5v1.5zm2.3-1q0-.5.3-.8.3-.3.9-.3.6 0 .9.3.3.3.3.8t-.3.8q-.3.4-.9.4-.6 0-.9-.4-.3-.3-.3-.8zm15.3 1h-10v-1.3l5.3-5.9q1.2-1.3 1.6-2.1.5-.9.5-1.7 0-1.2-.7-2-.7-.7-2-.7-1.4 0-2.2.8-.8.8-.8 2.3h-2q0-2.1 1.4-3.4 1.4-1.3 3.6-1.3t3.4 1q1.2 1.2 1.2 3 0 2.3-2.8 5.4l-4.1 4.4h7.6v1.5zm11.3-11.2q0 1.2-.6 2-.6 1-1.7 1.5 1.2.5 2 1.4.6 1 .6 2.3 0 2-1.3 3-1.3 1.3-3.5 1.3t-3.5-1.2q-1.3-1.2-1.3-3.1 0-1.3.6-2.3.7-1 1.9-1.5-1-.5-1.6-1.3-.6-1-.6-2 0-2 1.3-3.1 1.2-1.1 3.2-1.1t3.2 1.1q1.3 1.1 1.3 3zm-1.6 7.1q0-1.3-.8-2-.8-.9-2.1-.9t-2.1.8q-.8.8-.8 2.1t.8 2q.7.8 2 .8 1.4 0 2.2-.8.8-.7.8-2zm-3-9.6q-1 0-1.7.7t-.7 1.9q0 1.1.6 1.9.7.7 1.9.7 1.1 0 1.8-.7.7-.8.7-2 0-1-.7-1.8-.7-.7-1.8-.7z"/><path fill="#000" fill-opacity="0" d="M24 356.4h170.6v39.9H24z" fill-rule="evenodd"/><path stroke="#000" stroke-width="2" stroke-linejoin="round" stroke-linecap="butt" d="M24 356.4h170.6v39.9H24z" fill-rule="evenodd"/><path fill="#000" d="M98 378.7h2v1.6h-2v3.5h-2v-3.5h-7v-1.1l6.9-10.5h2v10zm-6.7 0H96v-7.4l-.2.4-4.5 7zm10.7 4.1q0-.5.3-.8.3-.4.9-.4.6 0 .9.4.3.3.3.8t-.3.8q-.3.3-.9.3-.6 0-.9-.3-.3-.3-.3-.8zm14.9-5.5q0 3.4-1.2 5-1.1 1.7-3.6 1.7-2.4 0-3.6-1.6-1.1-1.6-1.2-4.8V375q0-3.3 1.2-5 1.1-1.6 3.6-1.6 2.4 0 3.6 1.6 1.2 1.6 1.2 4.8v2.5zm-2-2.6q0-2.4-.6-3.5-.7-1.2-2.2-1.2-1.5 0-2.2 1.1-.6 1.1-.6 3.5v3q0 2.5.7 3.7.7 1.2 2.1 1.2 1.4 0 2.1-1.2.7-1 .8-3.4v-3.2zm10.8 9.1h-2V371l-3.8 1.4v-1.7l5.5-2.1h.3v15.2z"/><path fill="#000" fill-opacity="0" d="M24 316.4h170.6v40H24z" fill-rule="evenodd"/><path stroke="#000" stroke-width="2" stroke-linejoin="round" stroke-linecap="butt" d="M24 316.4h170.6v40H24z" fill-rule="evenodd"/><path fill="#000" d="M99.3 337.4q0 3.4-1.2 5-1.1 1.7-3.6 1.7-2.4 0-3.6-1.6-1.1-1.6-1.2-4.8V335q0-3.4 1.2-5t3.6-1.6q2.5 0 3.6 1.6 1.2 1.5 1.2 4.8v2.5zm-2-2.6q0-2.5-.6-3.6-.7-1.1-2.2-1.1-1.5 0-2.2 1.1-.6 1.1-.6 3.4v3.1q0 2.5.7 3.6.7 1.2 2.1 1.2 1.5 0 2.1-1.1.7-1.1.8-3.5v-3.1zm4.7 8q0-.4.3-.8.3-.3.9-.3.6 0 .9.3.3.4.3.9 0 .4-.3.8-.3.3-.9.3-.6 0-.9-.3-.3-.4-.3-.8zm15.3 1h-10v-1.3l5.3-5.8q1.2-1.4 1.6-2.2.5-.8.5-1.7 0-1.2-.7-2-.7-.7-2-.7-1.4 0-2.2.8-.8.8-.8 2.3h-2q0-2.1 1.4-3.4 1.4-1.3 3.6-1.3t3.4 1.1q1.2 1.1 1.2 3 0 2.2-2.8 5.3l-4.1 4.4h7.6v1.6zm11.8-14l-6.2 14h-2l6.2-13.5H119v-1.6h10.2v1.1z"/><path fill="#000" fill-opacity="0" d="M24 276.5h170.6v40H24z" fill-rule="evenodd"/><path stroke="#000" stroke-width="2" stroke-linejoin="round" stroke-linecap="butt" d="M24 276.5h170.6v40H24z" fill-rule="evenodd"/><path fill="#000" d="M91 298.3h-5v-1.6h5v1.6zm11.2-.8q0 3.4-1.1 5-1.2 1.6-3.6 1.6-2.4 0-3.6-1.6-1.2-1.6-1.2-4.8v-2.5q0-3.4 1.1-5 1.2-1.6 3.7-1.6 2.4 0 3.6 1.5 1.1 1.6 1.1 4.9v2.5zm-1.9-2.7q0-2.4-.7-3.5t-2.1-1.1q-1.5 0-2.2 1-.7 1.2-.7 3.5v3q0 2.5.7 3.7.7 1.2 2.2 1.2 1.4 0 2-1.1.8-1.1.8-3.5v-3.2zm4.7 8.1q0-.5.3-.8.2-.3.8-.3.6 0 1 .3.2.3.2.8t-.3.8q-.3.3-.9.3-.6 0-.8-.3-.3-.3-.3-.8zm15.1-13l-6.3 14h-2l6.3-13.5h-8.2v-1.6H120v1zm10.3 9h2.1v1.5h-2v3.5h-2v-3.5h-7v-1.1l6.9-10.5h2v10zm-6.6 0h4.7v-7.5l-.2.4-4.5 7z"/><path fill="#000" fill-opacity="0" d="M24 236.6h170.6v39.9H24z" fill-rule="evenodd"/><path stroke="#000" stroke-width="2" stroke-linejoin="round" stroke-linecap="butt" d="M24 236.6h170.6v39.9H24z" fill-rule="evenodd"/><path fill="#000" d="M99.3 257.5q0 3.4-1.2 5-1.1 1.7-3.6 1.7-2.4 0-3.6-1.6-1.1-1.6-1.2-4.8v-2.6q0-3.3 1.2-5 1.2-1.6 3.6-1.6 2.5 0 3.6 1.6 1.2 1.6 1.2 4.8v2.5zm-2-2.6q0-2.4-.6-3.6-.7-1-2.2-1-1.5 0-2.2 1-.6 1.1-.6 3.4v3.1q0 2.5.7 3.7.7 1.1 2.1 1.1 1.5 0 2.1-1 .7-1.2.8-3.6V255zm4.7 8q0-.4.3-.7.3-.4.9-.4.6 0 .9.4.3.3.3.8t-.3.8q-.3.3-.9.3-.6 0-.9-.3-.3-.3-.3-.8zm15.2-13l-6.3 14.1h-2l6.2-13.6H107v-1.6h10.3v1.1zm9.7-1v1.6h-.3q-2.3 0-3.6 1.3-1.4 1.3-1.6 3.6 1.2-1.4 3.3-1.4 2 0 3.2 1.5 1.2 1.3 1.2 3.5 0 2.4-1.3 3.8t-3.4 1.4q-2.2 0-3.6-1.7-1.3-1.6-1.3-4.3v-.7q0-4.2 1.8-6.4t5.3-2.3h.3zm-2.5 6.8q-1 0-1.8.5-.9.6-1.2 1.5v.8q0 1.8.9 3 .8 1.1 2 1.1 1.4 0 2.1-1 .7-.9.7-2.5 0-1.5-.7-2.5-.8-1-2-1z"/><path fill="#000" fill-opacity="0" d="M24 196.6h170.6v40H24z" fill-rule="evenodd"/><path stroke="#000" stroke-width="2" stroke-linejoin="round" stroke-linecap="butt" d="M24 196.6h170.6v40H24z" fill-rule="evenodd"/><path fill="#000" d="M99.3 217.6q0 3.4-1.2 5-1.1 1.7-3.6 1.7-2.4 0-3.6-1.6-1.1-1.7-1.2-4.8v-2.6q0-3.4 1.2-5t3.6-1.6q2.5 0 3.6 1.6 1.2 1.5 1.2 4.8v2.5zm-2-2.6q0-2.5-.6-3.6-.7-1.1-2.2-1.1-1.5 0-2.2 1-.6 1.2-.6 3.5v3q0 2.6.7 3.7.7 1.2 2.1 1.2 1.5 0 2.1-1.1.7-1.1.8-3.5V215zm4.7 8q0-.5.3-.8.3-.3.9-.3.6 0 .9.3.3.3.3.8t-.3.9q-.3.3-.9.3-.6 0-.9-.3-.3-.4-.3-.9zm8.2-7.5h1.4q1.4 0 2.2-.7.8-.7.8-1.9 0-2.6-2.7-2.6-1.2 0-2 .7-.7.7-.7 1.9h-2q0-1.8 1.3-3 1.4-1.2 3.4-1.2 2.1 0 3.4 1.1 1.2 1.2 1.2 3.2 0 1-.7 2-.6.8-1.7 1.3 1.3.4 2 1.3.6 1 .6 2.2 0 2-1.3 3.3-1.4 1.2-3.5 1.2t-3.5-1.2q-1.3-1.1-1.3-3h2q0 1.2.7 1.9.8.7 2.1.7 1.4 0 2.1-.7.8-.8.8-2.1 0-1.4-.8-2-.8-.8-2.4-.8h-1.4v-1.6zm15.5 8.6h-2v-12.9l-3.8 1.5v-1.8l5.5-2h.3V224z"/><path fill="#000" fill-opacity="0" d="M24 156.7h170.6v40H24z" fill-rule="evenodd"/><path stroke="#000" stroke-width="2" stroke-linejoin="round" stroke-linecap="butt" d="M24 156.7h170.6v40H24z" fill-rule="evenodd"/><path fill="#000" d="M99.7 184.1h-9.9v-1.4l5.3-5.8q1.1-1.3 1.5-2.1.5-.9.5-1.8 0-1.1-.7-1.9-.7-.8-2-.8-1.4 0-2.2.9-.8.8-.8 2.2h-1.9q0-2 1.3-3.4 1.4-1.2 3.7-1.2 2 0 3.3 1 1.2 1.2 1.2 3 0 2.2-2.8 5.3l-4 4.4h7.5v1.6zm2.3-1q0-.5.3-.8.3-.3.9-.3.6 0 .9.3.3.3.3.8t-.3.8q-.3.3-.9.3-.6 0-.9-.3-.3-.3-.3-.8zm15.3 1h-10v-1.4l5.3-5.8q1.2-1.3 1.6-2.1.5-.9.5-1.8 0-1.1-.7-1.9-.7-.8-2-.8-1.4 0-2.2.9-.8.8-.8 2.2h-2q0-2 1.4-3.4 1.4-1.2 3.6-1.2t3.4 1q1.2 1.2 1.2 3 0 2.2-2.8 5.3l-4.1 4.4h7.6v1.6zm8.4 0h-2v-12.8l-3.8 1.4V171l5.5-2.1h.3V184z"/><path fill="#000" fill-opacity="0" d="M24 116.7h170.6v40H24z" fill-rule="evenodd"/><path stroke="#000" stroke-width="2" stroke-linejoin="round" stroke-linecap="butt" d="M24 116.7h170.6v40H24z" fill-rule="evenodd"/><path fill="#000" d="M99.3 137.7q0 3.4-1.2 5-1.1 1.7-3.6 1.7-2.4 0-3.6-1.6-1.1-1.6-1.2-4.8v-2.6q0-3.3 1.2-5 1.2-1.6 3.6-1.6 2.5 0 3.6 1.6 1.2 1.6 1.2 4.8v2.5zm-2-2.6q0-2.5-.6-3.6-.7-1-2.2-1-1.5 0-2.2 1-.6 1.1-.6 3.4v3.1q0 2.5.7 3.7.7 1.1 2.1 1.1 1.5 0 2.1-1 .7-1.2.8-3.6v-3.1zm4.7 8q0-.4.3-.8.3-.3.9-.3.6 0 .9.3.3.4.3.9t-.3.8q-.3.3-.9.3-.6 0-.9-.3-.3-.3-.3-.8zm15.3 1h-10v-1.3l5.3-5.8q1.2-1.4 1.6-2.2.5-.8.5-1.7 0-1.2-.7-2-.7-.7-2-.7-1.4 0-2.2.8-.8.8-.8 2.3h-2q0-2 1.4-3.4 1.4-1.3 3.6-1.3t3.4 1.1q1.2 1.1 1.2 3 0 2.2-2.8 5.3l-4.1 4.4h7.6v1.6zm10.2-5h2.1v1.6h-2.1v3.5h-2v-3.5h-6.9v-1.2l6.8-10.5h2v10zm-6.7 0h4.8v-7.4l-.3.4-4.5 7z"/><path fill="#000" fill-opacity="0" d="M24 76.8h170.6v40H24z" fill-rule="evenodd"/><path stroke="#000" stroke-width="2" stroke-linejoin="round" stroke-linecap="butt" d="M24 76.8h170.6v40H24z" fill-rule="evenodd"/><path fill="#000" d="M99.3 97.8q0 3.4-1.2 5-1.1 1.7-3.6 1.7-2.4 0-3.6-1.7-1.1-1.6-1.2-4.8v-2.5q0-3.4 1.2-5t3.6-1.6q2.5 0 3.6 1.6 1.2 1.5 1.2 4.8v2.5zm-2-2.7q0-2.4-.6-3.5-.7-1.1-2.2-1.1-1.5 0-2.2 1-.6 1.2-.6 3.5v3q0 2.5.7 3.7.7 1.2 2.1 1.2 1.5 0 2.1-1.1.7-1.1.8-3.5v-3.2zm4.7 8.1q0-.5.3-.8.3-.3.9-.3.6 0 .9.3.3.3.3.8t-.3.8q-.3.4-.9.4-.6 0-.9-.4-.3-.3-.3-.8zm8.2-7.5h1.4q1.4 0 2.2-.7.8-.7.8-1.9 0-2.6-2.7-2.6-1.2 0-2 .7-.7.7-.7 1.9h-2q0-1.8 1.3-3 1.4-1.2 3.4-1.2 2.1 0 3.4 1.1 1.2 1.2 1.2 3.2 0 1-.7 1.9-.6 1-1.7 1.4 1.3.4 2 1.3.6.9.6 2.2 0 2-1.3 3.3-1.4 1.2-3.5 1.2t-3.5-1.2q-1.3-1.2-1.3-3h2q0 1.2.7 1.9.8.7 2.1.7 1.4 0 2.1-.7.8-.8.8-2.1 0-1.4-.8-2-.8-.8-2.4-.8h-1.4v-1.6zm16.5 1.9q-.6.7-1.4 1.1-.8.5-1.8.5-1.4 0-2.3-.7-1-.6-1.5-1.8-.6-1.2-.6-2.6 0-1.5.6-2.7.6-1.2 1.7-1.9 1-.6 2.4-.6 2.3 0 3.6 1.7 1.3 1.7 1.3 4.5v.6q0 4.4-1.8 6.5-1.7 2-5.3 2h-.3v-1.6h.4q2.4 0 3.7-1.2 1.2-1.2 1.3-3.8zm-3 0q1 0 1.9-.6.8-.6 1.2-1.5v-.7q0-2-.9-3.1-.8-1.2-2-1.2-1.3 0-2.1 1T121 94q0 1.6.8 2.6.7 1 2 1z"/><path fill="#000" fill-opacity="0" d="M24 516.1h170.6v40H24z" fill-rule="evenodd"/><path stroke="#000" stroke-width="2" stroke-linejoin="round" stroke-linecap="butt" d="M24 516.1h170.6v40H24z" fill-rule="evenodd"/><path fill="#000" d="M91 537.9h-5v-1.6h5v1.6zm11.2-.8q0 3.4-1.1 5-1.2 1.7-3.6 1.7-2.4 0-3.6-1.6-1.2-1.7-1.2-4.8v-2.6q0-3.4 1.1-5 1.2-1.6 3.7-1.6 2.4 0 3.6 1.6 1.1 1.5 1.1 4.8v2.5zm-1.9-2.7q0-2.4-.7-3.5t-2.1-1.1q-1.5 0-2.2 1-.7 1.2-.7 3.5v3q0 2.6.7 3.7.7 1.2 2.2 1.2 1.4 0 2-1.1.8-1.1.8-3.5v-3.2zm4.7 8.1q0-.5.3-.8.2-.3.8-.3.6 0 1 .3.2.3.2.8t-.3.9q-.3.3-.9.3-.6 0-.8-.3-.3-.4-.3-.9zm14.8-5.4q0 3.4-1.1 5-1.2 1.7-3.6 1.7-2.5 0-3.6-1.6-1.2-1.7-1.2-4.8v-2.6q0-3.4 1.1-5 1.2-1.6 3.7-1.6 2.4 0 3.5 1.6 1.2 1.5 1.2 4.8v2.5zm-1.9-2.7q0-2.4-.7-3.5t-2.1-1.1q-1.5 0-2.2 1-.7 1.2-.7 3.5v3q0 2.6.7 3.7.7 1.2 2.2 1.2 1.4 0 2-1.1.8-1.1.8-3.5v-3.2zm5.3 1.5l.8-7.5h7.7v1.8h-6.1l-.5 4.1q1.1-.6 2.6-.6 2 0 3.3 1.3 1.2 1.4 1.2 3.7 0 2.4-1.3 3.7-1.2 1.4-3.5 1.4-2 0-3.3-1.1-1.3-1.2-1.4-3.1h1.8q.2 1.3.9 2 .8.6 2 .6 1.3 0 2-1 .8-.8.8-2.5 0-1.5-.8-2.4-.8-1-2.2-1-1.2 0-2 .6l-.5.5-1.5-.5z"/><path fill="#000" fill-opacity="0" d="M549.5 25.8H684v51H549.5z" fill-rule="evenodd"/><path fill="#000" d="M587.6 52.3h-7.1v7.5h-2.3v-17h10.6v1.8h-8.3v5.9h7.1v1.8zm8.8 7.8q-2.6 0-4.2-1.7t-1.6-4.5v-.4q0-2 .7-3.4.7-1.5 2-2.3 1.3-.9 2.8-.9 2.5 0 3.9 1.7 1.3 1.6 1.3 4.6v1h-8.5q0 1.8 1 3 1.1 1.1 2.7 1.1 1.2 0 2-.5.8-.4 1.4-1.2l1.3 1q-1.6 2.5-4.8 2.5zm-.3-11.4q-1.3 0-2.2 1-.8 1-1 2.6h6.3v-.1q-.1-1.7-.9-2.6-.8-.9-2.2-.9zm15.6 11.1q-.2-.3-.3-1.3-1.5 1.6-3.6 1.6-1.9 0-3.1-1-1.2-1.1-1.2-2.8 0-2 1.5-3 1.5-1.1 4.2-1.1h2.1v-1q0-1.2-.6-1.9-.7-.6-2-.6-1.2 0-2 .6-.8.5-.8 1.4h-2.2q0-1 .7-1.9.7-.8 1.8-1.4 1.2-.5 2.6-.5 2.2 0 3.4 1.1 1.3 1.1 1.3 3V57q0 1.7.5 2.8v.1h-2.3zm-3.6-1.6q1 0 2-.5.8-.6 1.2-1.4v-2.6h-1.6q-4 0-4 2.3 0 1 .6 1.6.7.6 1.8.6zM619.9 44v3h2.3v1.7H620v7.9q0 .8.3 1.1.3.4 1 .4l1-.1v1.7q-.8.3-1.6.3-1.4 0-2.2-.9-.7-.9-.7-2.5v-7.9h-2.3v-1.6h2.3V44h2.2zm12.7 14.5q-1.3 1.5-3.7 1.5-2 0-3.1-1.2-1-1.2-1-3.5v-8.2h2v8.2q0 2.8 2.4 2.8 2.5 0 3.3-1.8v-9.2h2.2v12.6h-2l-.1-1.2zM644 49h-1q-2.2 0-3 1.7v9H638V47.2h2l.1 1.4q1.1-1.7 3-1.7.7 0 1 .2v2zm7.3 11q-2.6 0-4.2-1.7t-1.6-4.5v-.4q0-2 .7-3.4.7-1.5 2-2.3 1.3-.9 2.8-.9 2.5 0 3.8 1.7 1.4 1.6 1.4 4.6v1h-8.6q0 1.8 1.1 3 1 1.1 2.7 1.1 1.1 0 2-.5.7-.4 1.3-1.2l1.4 1q-1.6 2.5-4.8 2.5zm-.3-11.4q-1.3 0-2.2 1-.9 1-1.1 2.6h6.4v-.1q-.1-1.7-1-2.6-.7-.9-2-.9z"/><path fill="#000" fill-opacity="0" d="M531.4 476.2H702v40H531.4z" fill-rule="evenodd"/><path stroke="#000" stroke-width="2" stroke-linejoin="round" stroke-linecap="butt" d="M531.4 476.2H702v40H531.4z" fill-rule="evenodd"/><path fill="#000" d="M603.6 503.6h-3V492l-3.6 1.1v-2.4l6.3-2.3h.3v15.2zm5.2-1.5q0-.7.5-1.1.5-.5 1.2-.5t1.2.5q.5.4.5 1.1 0 .8-.5 1.2-.4.4-1.2.4-.7 0-1.2-.4t-.5-1.2zm14.8-4.2h1.7v2.4h-1.7v3.3h-3v-3.3h-6.2l-.1-1.9 6.3-10h3v9.5zm-6.3 0h3.3v-5.3l-.2.3-3.1 5zm16.7-.3q-1.2 1.1-2.7 1.1-2 0-3.3-1.4-1.2-1.4-1.2-3.7 0-1.5.7-2.7.6-1.3 1.8-2 1.2-.7 2.6-.7 1.5 0 2.7.8 1.2.7 1.8 2.1.6 1.5.7 3.3v1q0 3.9-2 6-1.8 2.2-5.3 2.4h-.7v-2.5h.7q3.9-.2 4.2-3.7zm-2-1.2q.7 0 1.2-.4.6-.3.8-.9V494q0-1.5-.5-2.4-.6-.8-1.6-.8t-1.5.8q-.6.8-.6 2 0 1.3.6 2.1t1.6.8z"/><path fill="#000" fill-opacity="0" d="M531.4 436.2H702v40H531.4z" fill-rule="evenodd"/><path stroke="#000" stroke-width="2" stroke-linejoin="round" stroke-linecap="butt" d="M531.4 436.2H702v40H531.4z" fill-rule="evenodd"/><path fill="#000" d="M606.5 457.4q0 3.2-1.3 4.8-1.3 1.7-3.8 1.7t-3.8-1.6q-1.3-1.7-1.4-4.7v-2.8q0-3.2 1.4-4.8 1.3-1.7 3.7-1.7 2.5 0 3.8 1.6 1.4 1.7 1.4 4.7v2.8zm-3-3q0-2-.5-2.8-.5-.9-1.6-.9t-1.6.9q-.5.8-.5 2.5v3.7q0 1.9.5 2.8.5.9 1.6.9 1 0 1.6-.9.5-.9.5-2.7v-3.5zm5.3 7.8q0-.7.5-1.2.5-.4 1.2-.4t1.2.4q.5.5.5 1.2t-.5 1.2q-.4.4-1.2.4-.7 0-1.2-.4-.5-.5-.5-1.2zm16.3 1.5h-10.4v-2l5-5.3q1-1.1 1.4-2 .5-.8.5-1.5 0-1-.5-1.6-.5-.6-1.5-.6t-1.6.7q-.6.7-.6 1.9h-3q0-1.4.7-2.5.6-1.2 1.8-1.8 1.3-.7 2.8-.7 2.3 0 3.6 1.1 1.3 1.2 1.3 3.2 0 1.1-.6 2.3-.5 1.2-2 2.7l-3.4 3.7h6.5v2.4zm11.7-11.1q0 1-.5 2-.6.8-1.5 1.3 1 .5 1.7 1.4.7 1 .7 2.2 0 2-1.4 3.2-1.4 1.2-3.7 1.2-2.4 0-3.8-1.2t-1.4-3.2q0-1.2.7-2.2.6-1 1.7-1.4-1-.5-1.5-1.4-.6-.9-.6-2 0-1.9 1.3-3 1.3-1.2 3.5-1.2 2.3 0 3.5 1.1 1.3 1.2 1.3 3.2zm-2.7 6.7q0-1-.5-1.6-.6-.6-1.6-.6t-1.5.6q-.6.6-.6 1.6t.6 1.6q.6.6 1.6.6t1.5-.6q.5-.6.5-1.6zm-.3-6.6q0-.9-.4-1.4-.5-.6-1.4-.6-.8 0-1.3.6-.4.5-.4 1.4 0 .9.4 1.4.5.6 1.4.6.8 0 1.3-.6.4-.5.4-1.4z"/><path fill="#000" fill-opacity="0" d="M531.4 396.3H702v40H531.4z" fill-rule="evenodd"/><path stroke="#000" stroke-width="2" stroke-linejoin="round" stroke-linecap="butt" d="M531.4 396.3H702v40H531.4z" fill-rule="evenodd"/><path fill="#000" d="M606.5 417.5q0 3.1-1.3 4.8-1.3 1.6-3.8 1.6t-3.8-1.6q-1.3-1.6-1.4-4.7v-2.8q0-3.1 1.4-4.8 1.3-1.6 3.7-1.6 2.5 0 3.8 1.6 1.4 1.6 1.4 4.7v2.8zm-3-3q0-2-.5-2.8-.5-.9-1.6-.9t-1.6.8q-.5.8-.5 2.6v3.7q0 1.8.5 2.7.5 1 1.6 1 1 0 1.6-1 .5-.8.5-2.6v-3.6zm5.3 7.8q0-.8.5-1.2.5-.4 1.2-.4t1.2.4q.5.4.5 1.2 0 .7-.5 1.1-.4.5-1.2.5-.7 0-1.2-.5-.5-.4-.5-1.1zm16.3 1.4h-10.4v-2l5-5.3q1-1 1.4-1.9.5-.8.5-1.5 0-1-.5-1.6-.5-.6-1.5-.6t-1.6.7q-.6.7-.6 1.9h-3q0-1.4.7-2.6.6-1.1 1.8-1.8 1.3-.6 2.8-.6 2.3 0 3.6 1 1.3 1.2 1.3 3.3 0 1-.6 2.3-.5 1.1-2 2.7l-3.4 3.6h6.5v2.4zm11.7-11q0 1-.5 1.9-.6.8-1.5 1.3 1 .6 1.7 1.5.7 1 .7 2.2 0 2-1.4 3.2-1.4 1.1-3.7 1.1-2.4 0-3.8-1.1-1.4-1.2-1.4-3.2 0-1.3.7-2.2.6-1 1.7-1.5-1-.5-1.5-1.3-.6-.9-.6-2 0-2 1.3-3 1.3-1.2 3.5-1.2 2.3 0 3.5 1.1 1.3 1.2 1.3 3.1zm-2.7 6.7q0-1-.5-1.6-.6-.6-1.6-.6t-1.5.6q-.6.6-.6 1.6t.6 1.5q.6.6 1.6.6t1.5-.5q.5-.6.5-1.6zm-.3-6.6q0-1-.4-1.5-.5-.5-1.4-.5-.8 0-1.3.5-.4.5-.4 1.5 0 .9.4 1.4.5.6 1.4.6.8 0 1.3-.6.4-.5.4-1.4z"/><path fill="#000" fill-opacity="0" d="M531.4 356.4H702v39.9H531.4z" fill-rule="evenodd"/><path stroke="#000" stroke-width="2" stroke-linejoin="round" stroke-linecap="butt" d="M531.4 356.4H702v39.9H531.4z" fill-rule="evenodd"/><path fill="#000" d="M603.6 383.8h-3v-11.6l-3.6 1.1V371l6.3-2.3h.3v15.2zm5.2-1.5q0-.7.5-1.1.5-.5 1.2-.5t1.2.5q.5.4.5 1.1 0 .7-.5 1.2-.4.4-1.2.4-.7 0-1.2-.4-.5-.5-.5-1.2zm14.8-4.2h1.7v2.4h-1.7v3.3h-3v-3.3h-6.2l-.1-1.9 6.3-10h3v9.5zm-6.3 0h3.3v-5.4l-.2.4-3.1 5zm16.7-.4q-1.2 1.2-2.7 1.2-2 0-3.3-1.4-1.2-1.4-1.2-3.7 0-1.5.7-2.7.6-1.3 1.8-2 1.2-.7 2.6-.7 1.5 0 2.7.8 1.2.7 1.8 2.1.6 1.4.7 3.3v1q0 3.9-2 6-1.8 2.2-5.3 2.3h-.7v-2.5h.7q3.9-.1 4.2-3.7zm-2-1.1q.7 0 1.2-.4.6-.3.8-.9v-1.2q0-1.5-.5-2.4-.6-.8-1.6-.8t-1.5.8q-.6.8-.6 2 0 1.3.6 2.1t1.6.8z"/><path fill="#000" fill-opacity="0" d="M531.4 316.4H702v40H531.4z" fill-rule="evenodd"/><path stroke="#000" stroke-width="2" stroke-linejoin="round" stroke-linecap="butt" d="M531.4 316.4H702v40H531.4z" fill-rule="evenodd"/><path fill="#000" d="M598.1 338.6h-5.8v-2.4h5.8v2.4zm12.5-1q0 3.1-1.3 4.8-1.3 1.7-3.8 1.7t-3.8-1.7q-1.3-1.6-1.3-4.6V335q0-3.2 1.3-4.8 1.3-1.7 3.8-1.7t3.8 1.6q1.3 1.7 1.3 4.7v2.8zm-3-3q0-2-.5-2.8-.5-.9-1.6-.9-1 0-1.6.9-.5.8-.5 2.5v3.7q0 1.9.5 2.8.5.9 1.6.9t1.6-1q.5-.8.5-2.6v-3.6zm5.3 7.8q0-.7.5-1.2.5-.4 1.2-.4.8 0 1.3.4.4.5.4 1.2t-.4 1.1q-.5.5-1.3.5-.7 0-1.2-.5-.5-.4-.5-1.1zm13.3 1.5h-3v-11.6l-3.6 1V331l6.2-2.2h.4v15.2zm14.8-11.2q0 1.1-.6 2-.5.8-1.5 1.4 1.1.5 1.8 1.4.6 1 .6 2.2 0 2-1.4 3.2-1.4 1.2-3.7 1.2-2.4 0-3.8-1.2t-1.4-3.2q0-1.3.7-2.2.6-1 1.7-1.4-1-.6-1.5-1.4-.5-.9-.5-2 0-1.9 1.3-3 1.3-1.2 3.5-1.2t3.5 1.1q1.3 1.2 1.3 3.1zm-2.7 6.8q0-1-.6-1.6-.6-.6-1.5-.6-1 0-1.6.6-.5.6-.5 1.6t.5 1.6q.6.6 1.6.6t1.5-.6q.6-.6.6-1.6zm-.3-6.6q0-1-.5-1.4-.5-.6-1.3-.6-.9 0-1.3.5-.5.6-.5 1.5t.5 1.4q.4.6 1.3.6.8 0 1.3-.6.5-.5.5-1.4z"/><path fill="#000" fill-opacity="0" d="M531.4 276.5H702v40H531.4z" fill-rule="evenodd"/><path stroke="#000" stroke-width="2" stroke-linejoin="round" stroke-linecap="butt" d="M531.4 276.5H702v40H531.4z" fill-rule="evenodd"/><path fill="#000" d="M606.5 297.7q0 3.1-1.3 4.8-1.3 1.6-3.8 1.6t-3.8-1.6q-1.3-1.6-1.4-4.7V295q0-3.1 1.4-4.8 1.3-1.6 3.7-1.6 2.5 0 3.8 1.6 1.4 1.6 1.4 4.7v2.8zm-3-3.1q0-1.9-.5-2.7-.5-.9-1.6-.9t-1.6.8q-.5.8-.5 2.6v3.7q0 1.8.5 2.7.5 1 1.6 1 1 0 1.6-1 .5-.8.5-2.6v-3.6zm5.3 7.8q0-.7.5-1.1.5-.5 1.2-.5t1.2.5q.5.4.5 1.1 0 .8-.5 1.2-.4.4-1.2.4-.7 0-1.2-.4t-.5-1.2zM622 304h-3v-11.6l-3.6 1.1V291l6.3-2.3h.3V304zm12.3 0h-3v-11.6l-3.6 1.1V291l6.2-2.3h.4V304z"/><path fill="#c9daf8" d="M531.4 236.5H702v40H531.4z" fill-rule="evenodd"/><path stroke="#000" stroke-width="2" stroke-linejoin="round" stroke-linecap="butt" d="M531.4 236.5H702v40H531.4z" fill-rule="evenodd"/><path fill="#15c" d="M623 259q-.2 2.4-1.8 3.8t-4.3 1.4q-3 0-4.6-2-1.7-2-1.7-5.3v-1q0-2.2.8-3.8.8-1.7 2.2-2.6 1.4-.9 3.3-.9 2.7 0 4.3 1.4 1.6 1.4 1.8 4H620q-.1-1.5-.8-2.1-.7-.7-2.2-.7-1.5 0-2.3 1.1-.8 1.1-.8 3.5v1.1q0 2.5.7 3.6.8 1.2 2.4 1.2 1.4 0 2.1-.7.8-.7.9-2h3z"/><path fill="#000" fill-opacity="0" d="M531.4 196.6H702v40H531.4z" fill-rule="evenodd"/><path stroke="#000" stroke-width="2" stroke-linejoin="round" stroke-linecap="butt" d="M531.4 196.6H702v40H531.4z" fill-rule="evenodd"/><path fill="#000" d="M603.6 224h-3v-11.5l-3.6 1v-2.4l6.3-2.2h.3V224zm5.2-1.4q0-.7.5-1.2.5-.4 1.2-.4t1.2.4q.5.5.5 1.2t-.5 1.1q-.4.5-1.2.5-.7 0-1.2-.5-.5-.4-.5-1.1zm16.3 1.5h-10.4V222l5-5.2q1-1.1 1.4-2 .5-.8.5-1.5 0-1-.5-1.6-.5-.6-1.5-.6t-1.6.7q-.6.7-.6 1.9h-3q0-1.4.7-2.6.6-1.1 1.8-1.8 1.3-.6 2.8-.6 2.3 0 3.6 1.1 1.3 1.1 1.3 3.2 0 1.1-.6 2.3-.5 1.1-2 2.7l-3.4 3.6h6.5v2.5zm10.8-5.7h1.7v2.4h-1.7v3.3h-3v-3.3h-6.3l-.1-2 6.3-9.9h3v9.5zm-6.4 0h3.3V213l-.1.3-3.2 5z"/><path fill="#c9daf8" d="M531.4 156.7H702v40H531.4z" fill-rule="evenodd"/><path stroke="#000" stroke-width="2" stroke-linejoin="round" stroke-linecap="butt" d="M531.4 156.7H702v40H531.4z" fill-rule="evenodd"/><path fill="#15c" d="M623 179q-.2 2.5-1.8 4-1.6 1.3-4.3 1.3-3 0-4.6-2-1.7-1.9-1.7-5.3v-1q0-2.1.8-3.8.8-1.7 2.2-2.6 1.4-.9 3.3-.9 2.7 0 4.3 1.5 1.6 1.4 1.8 4H620q-.1-1.6-.8-2.2-.7-.7-2.2-.7-1.5 0-2.3 1.1-.8 1.1-.8 3.5v1.1q0 2.5.7 3.7.8 1 2.4 1 1.4 0 2.1-.6.8-.7.9-2h3z"/><path fill="#000" fill-opacity="0" d="M531.4 116.7H702v40H531.4z" fill-rule="evenodd"/><path stroke="#000" stroke-width="2" stroke-linejoin="round" stroke-linecap="butt" d="M531.4 116.7H702v40H531.4z" fill-rule="evenodd"/><path fill="#000" d="M603.6 144.2h-3v-11.6l-3.6 1.1v-2.5l6.3-2.2h.3v15.2zm5.2-1.5q0-.7.5-1.2.5-.4 1.2-.4t1.2.4q.5.5.5 1.2t-.5 1.2q-.4.4-1.2.4-.7 0-1.2-.4-.5-.5-.5-1.2zm16.3 1.5h-10.4v-2l5-5.3q1-1.1 1.4-2 .5-.8.5-1.5 0-1-.5-1.6-.5-.6-1.5-.6t-1.6.8q-.6.7-.6 1.8h-3q0-1.4.7-2.5.6-1.2 1.8-1.8 1.3-.7 2.8-.7 2.3 0 3.6 1.1 1.3 1.2 1.3 3.2 0 1.1-.6 2.3-.5 1.2-2 2.7l-3.4 3.7h6.5v2.4zm10.8-5.7h1.7v2.4h-1.7v3.3h-3v-3.3h-6.3l-.1-1.9 6.3-10h3v9.5zm-6.4 0h3.3V133l-.1.4-3.2 5z"/><path fill="#000" fill-opacity="0" d="M531.4 76.8H702v40H531.4z" fill-rule="evenodd"/><path stroke="#000" stroke-width="2" stroke-linejoin="round" stroke-linecap="butt" d="M531.4 76.8H702v40H531.4z" fill-rule="evenodd"/><path fill="#000" d="M606.5 98q0 3.1-1.3 4.8-1.3 1.7-3.8 1.7t-3.8-1.7q-1.3-1.6-1.4-4.7v-2.8q0-3.1 1.4-4.8 1.3-1.6 3.7-1.6 2.5 0 3.8 1.6 1.4 1.6 1.4 4.7V98zm-3-3q0-2-.5-2.8-.5-.9-1.6-.9t-1.6.8q-.5.9-.5 2.6v3.7q0 1.8.5 2.7.5 1 1.6 1 1 0 1.6-1 .5-.8.5-2.6V95zm5.3 7.8q0-.8.5-1.2.5-.4 1.2-.4t1.2.4q.5.4.5 1.2 0 .7-.5 1.1-.4.5-1.2.5-.7 0-1.2-.5-.5-.4-.5-1.1zm13.2 1.4h-3V92.7l-3.6 1v-2.4l6.3-2.2h.3v15.1zm12.3 0h-3V92.7l-3.6 1v-2.4l6.2-2.2h.4v15.1z"/><path fill="#000" fill-opacity="0" d="M531.4 516.1H702v40H531.4z" fill-rule="evenodd"/><path stroke="#000" stroke-width="2" stroke-linejoin="round" stroke-linecap="butt" d="M531.4 516.1H702v40H531.4z" fill-rule="evenodd"/><path fill="#000" d="M598.1 538.3h-5.8v-2.4h5.8v2.4zm12.5-1q0 3.1-1.3 4.8-1.3 1.7-3.8 1.7t-3.8-1.7q-1.3-1.6-1.3-4.7v-2.8q0-3.1 1.3-4.8 1.3-1.6 3.8-1.6t3.8 1.6q1.3 1.6 1.3 4.7v2.8zm-3-3q0-2-.5-2.8-.5-.9-1.6-.9-1 0-1.6.8-.5.9-.5 2.6v3.7q0 1.8.5 2.7.5 1 1.6 1t1.6-1q.5-.8.5-2.6v-3.6zm5.3 7.8q0-.7.5-1.2.5-.4 1.2-.4.8 0 1.3.4.4.5.4 1.2t-.4 1.1q-.5.5-1.3.5-.7 0-1.2-.5-.5-.4-.5-1.1zm13.3 1.5h-3V532l-3.6 1v-2.4l6.2-2.2h.4v15.2zm14.8-11.2q0 1.1-.6 2-.5.8-1.5 1.3 1.1.6 1.8 1.5.6 1 .6 2.2 0 2-1.4 3.2-1.4 1.2-3.7 1.2-2.4 0-3.8-1.2t-1.4-3.2q0-1.3.7-2.2.6-1 1.7-1.5-1-.5-1.5-1.3-.5-.9-.5-2 0-2 1.3-3 1.3-1.2 3.5-1.2t3.5 1.1q1.3 1.2 1.3 3.1zm-2.7 6.8q0-1-.6-1.6-.6-.6-1.5-.6-1 0-1.6.6-.5.6-.5 1.6t.5 1.5q.6.6 1.6.6t1.5-.5q.6-.6.6-1.6zm-.3-6.6q0-1-.5-1.5t-1.3-.5q-.9 0-1.3.5-.5.5-.5 1.5 0 .9.5 1.4.4.6 1.3.6.8 0 1.3-.6.5-.5.5-1.4z"/><path fill="#000" fill-opacity="0" d="M272 316.4h99v51h-99z" fill-rule="evenodd"/><path fill="#000" d="M286.5 337.8v1.4q1.5-1.7 3.8-1.7 2.7 0 3.7 2 .6-.8 1.6-1.4 1-.6 2.4-.6 4.2 0 4.2 4.5v8.5h-2.1V342q0-1.4-.7-2-.6-.7-2-.7-1.2 0-2 .7t-1 2v8.4h-2.1V342q0-2.7-2.7-2.7-2.2 0-3 1.8v9.3h-2.1v-12.7h2zm24.3 12.9q-2.6 0-4.2-1.7t-1.6-4.5v-.4q0-2 .7-3.4.7-1.5 2-2.3 1.3-.9 2.8-.9 2.5 0 3.8 1.7 1.4 1.6 1.4 4.6v1h-8.6q0 1.8 1.1 3 1 1.1 2.7 1.1 1.1 0 2-.4.7-.5 1.3-1.3l1.4 1q-1.6 2.5-4.8 2.5zm-.3-11.4q-1.3 0-2.2 1-.9 1-1.1 2.7h6.4v-.2q-.1-1.7-1-2.6-.7-.9-2-.9zm15.6 11.2q-.2-.4-.3-1.4-1.6 1.6-3.7 1.6-1.8 0-3-1-1.2-1.1-1.2-2.8 0-2 1.5-3 1.5-1.1 4.2-1.1h2.1v-1q0-1.2-.7-1.8-.6-.7-2-.7-1.1 0-2 .6-.7.6-.7 1.4h-2.2q0-1 .7-1.8.7-1 1.8-1.4 1.2-.6 2.6-.6 2.2 0 3.4 1.1 1.2 1.1 1.3 3v5.9q0 1.7.4 2.8v.2h-2.2zm-3.6-1.7q1 0 1.9-.5.9-.5 1.3-1.4v-2.6H324q-4 0-4 2.3 0 1 .7 1.6.7.6 1.8.6zm10.8-11l.1 1.6q1.5-1.9 3.8-1.9 4 0 4 4.6v8.4h-2.1V342q0-1.4-.6-2-.7-.7-2-.7-1 0-1.8.5-.8.6-1.2 1.5v9h-2.2v-12.6h2zm27 3.1h-9.7V339h9.8v2zm0 4.9h-9.7v-1.9h9.8v1.9z"/><path fill="#000" fill-opacity="0" d="M363 316.4h77.4v51H363z" fill-rule="evenodd"/><path fill="#000" d="M380.5 350.5h-2.1V336l-4.4 1.6v-2l6.2-2.3h.3v17.2zm6.7-1.2q0-.5.3-1 .3-.3 1-.3t1 .4q.4.4.4 1 0 .5-.4.8-.3.4-1 .4t-1-.4q-.3-.3-.3-.9zm17.2 1.2h-11.2v-1.6l6-6.6q1.2-1.4 1.7-2.4t.5-2q0-1.3-.8-2-.8-1-2.1-1-1.7 0-2.5 1-1 .9-1 2.5H393q0-2.3 1.5-3.8 1.5-1.4 4-1.4 2.4 0 3.8 1.2 1.4 1.3 1.4 3.3 0 2.6-3.2 6l-4.6 5h8.6v1.8zm11.5-5.8h2.3v1.8H416v4h-2.2v-4h-7.8v-1.3l7.6-11.8h2.4v11.3zm-7.5 0h5.3v-8.3l-.3.4-5 8z"/><path fill="#000" fill-opacity="0" d="M440.4 342l91-205.3" fill-rule="evenodd"/><path stroke="#000" stroke-width="2" stroke-linejoin="round" stroke-linecap="butt" d="M440.4 342l86.1-194.3" fill-rule="evenodd"/><path fill="#000" stroke="#000" stroke-width="2" stroke-linecap="butt" d="M529.6 149l.6-9.6-6.7 7z" fill-rule="evenodd"/><path fill="#000" fill-opacity="0" d="M440.4 342l91-125.4" fill-rule="evenodd"/><path stroke="#000" stroke-width="2" stroke-linejoin="round" stroke-linecap="butt" d="M440.4 342l84-115.7" fill-rule="evenodd"/><path fill="#000" stroke="#000" stroke-width="2" stroke-linecap="butt" d="M527 228.2l2.7-9.3-8 5.4z" fill-rule="evenodd"/></g></svg>