<svg version="1.1" viewBox="0.0 0.0 726.005249343832 581.8503937007874" fill="none" stroke="none" stroke-linecap="square" stroke-miterlimit="10" xmlns:xlink="http://www.w3.org/1999/xlink" xmlns="http://www.w3.org/2000/svg"><clipPath id="p.0"><path d="m0 0l726.00525 0l0 581.8504l-726.00525 0l0 -581.8504z" clip-rule="nonzero"/></clipPath><g clip-path="url(#p.0)"><path fill="#000000" fill-opacity="0.0" d="m0 0l726.00525 0l0 581.8504l-726.00525 0z" fill-rule="evenodd"/><path fill="#000000" fill-opacity="0.0" d="m0 0l726.01575 0l0 581.8583l-726.01575 0z" fill-rule="evenodd"/><path fill="#000000" fill-opacity="0.0" d="m194.61417 136.70866l77.38583 154.23622" fill-rule="evenodd"/><path stroke="#000000" stroke-width="2.0" stroke-linejoin="round" stroke-linecap="butt" d="m194.61417 136.70866l77.38583 154.23622" fill-rule="evenodd"/><path fill="#000000" fill-opacity="0.0" d="m272.00262 290.92914l-77.38583 -74.33072" fill-rule="evenodd"/><path stroke="#000000" stroke-width="2.0" stroke-linejoin="round" stroke-linecap="butt" d="m272.00262 290.92914l-77.38583 -74.33072" fill-rule="evenodd"/><path fill="#000000" fill-opacity="0.0" d="m272.00262 290.92914l-77.38583 125.35434" fill-rule="evenodd"/><path stroke="#000000" stroke-width="2.0" stroke-linejoin="round" stroke-linecap="butt" d="m272.00262 290.92914l-77.38583 125.35434" fill-rule="evenodd"/><path fill="#000000" fill-opacity="0.0" d="m194.61417 456.2047l77.38583 -165.29132" fill-rule="evenodd"/><path stroke="#000000" stroke-width="2.0" stroke-linejoin="round" stroke-linecap="butt" d="m194.61417 456.2047l77.38583 -165.29132" fill-rule="evenodd"/><path fill="#000000" fill-opacity="0.0" d="m42.14173 25.811024l134.33072 0l0 50.992123l-134.33072 0z" fill-rule="evenodd"/><path fill="#000000" d="m88.3149 44.628338l-5.484375 0l0 15.21875l-2.234375 0l0 -15.21875l-5.46875 0l0 -1.84375l13.1875 0l0 1.84375zm10.0234375 15.21875q-0.1875 -0.375 -0.296875 -1.34375q-1.515625 1.578125 -3.609375 1.578125q-1.875 0 -3.078125 -1.0625q-1.203125 -1.0625 -1.203125 -2.6875q0 -1.984375 1.5 -3.078125q1.515625 -1.09375 4.234375 -1.09375l2.109375 0l0 -1.0q0 -1.140625 -0.6875 -1.8125q-0.671875 -0.671875 -1.984375 -0.671875q-1.171875 0 -1.953125 0.59375q-0.78125 0.578125 -0.78125 1.40625l-2.1875 0q0 -0.9375 0.671875 -1.828125q0.6875 -0.890625 1.828125 -1.40625q1.15625 -0.515625 2.546875 -0.515625q2.1875 0 3.421875 1.109375q1.25 1.09375 1.296875 3.015625l0 5.828125q0 1.75 0.453125 2.78125l0 0.1875l-2.28125 0zm-3.59375 -1.65625q1.015625 0 1.921875 -0.515625q0.921875 -0.53125 1.328125 -1.375l0 -2.609375l-1.6875 0q-3.984375 0 -3.984375 2.328125q0 1.03125 0.671875 1.609375q0.6875 0.5625 1.75 0.5625zm14.9453125 -9.078125q-0.484375 -0.078125 -1.0625 -0.078125q-2.125 0 -2.890625 1.8125l0 9.0l-2.171875 0l0 -12.6875l2.109375 0l0.03125 1.46875q1.078125 -1.703125 3.03125 -1.703125q0.625 0 0.953125 0.171875l0 2.015625zm1.4804688 4.28125q0 -2.953125 1.375 -4.703125q1.375 -1.765625 3.625 -1.765625q2.328125 0 3.625 1.640625l0.109375 -1.40625l1.984375 0l0 12.375q0 2.46875 -1.46875 3.890625q-1.453125 1.4218712 -3.921875 1.4218712q-1.359375 0 -2.671875 -0.59375q-1.3125 -0.5781212 -2.015625 -1.6093712l1.125 -1.296875q1.40625 1.71875 3.421875 1.71875q1.578125 0 2.453125 -0.890625q0.890625 -0.890625 0.890625 -2.5l0 -1.09375q-1.296875 1.5 -3.546875 1.5q-2.234375 0 -3.609375 -1.796875q-1.375 -1.796875 -1.375 -4.890625zm2.1875 0.25q0 2.140625 0.875 3.375q0.875 1.21875 2.453125 1.21875q2.0625 0 3.015625 -1.859375l0 -5.796875q-1.0 -1.8125 -2.984375 -1.8125q-1.578125 0 -2.46875 1.234375q-0.890625 1.234375 -0.890625 3.640625zm17.058601 6.4375q-2.5781326 0 -4.2031326 -1.6875q-1.609375 -1.703125 -1.609375 -4.53125l0 -0.40625q0 -1.890625 0.71875 -3.359375q0.71875 -1.484375 2.015625 -2.328125q1.2968826 -0.84375 2.8125076 -0.84375q2.46875 0 3.828125 1.640625q1.375 1.625 1.375 4.65625l0 0.90625l-8.578133 0q0.046875 1.875 1.09375 3.03125q1.0468826 1.15625 2.6562576 1.15625q1.15625 0 1.953125 -0.46875q0.796875 -0.46875 1.390625 -1.25l1.328125 1.03125q-1.59375 2.453125 -4.78125 2.453125zm-0.265625 -11.375q-1.3125 0 -2.2031326 0.96875q-0.890625 0.953125 -1.109375 2.671875l6.3593826 0l0 -0.171875q-0.09375 -1.640625 -0.890625 -2.546875q-0.796875 -0.921875 -2.15625 -0.921875zm10.652344 -4.609375l0 3.0625l2.375 0l0 1.6875l-2.375 0l0 7.859375q0 0.765625 0.3125 1.140625q0.328125 0.375 1.09375 0.375q0.375 0 1.03125 -0.140625l0 1.765625q-0.859375 0.234375 -1.671875 0.234375q-1.453125 0 -2.1875 -0.875q-0.734375 -0.890625 -0.734375 -2.5l0 -7.859375l-2.3125 0l0 -1.6875l2.3125 0l0 -3.0625l2.15625 0z" fill-rule="nonzero"/><path fill="#000000" fill-opacity="0.0" d="m24.0 476.17322l170.61417 0l0 39.93701l-170.61417 0z" fill-rule="evenodd"/><path stroke="#000000" stroke-width="2.0" stroke-linejoin="round" stroke-linecap="butt" d="m24.0 476.17322l170.61417 0l0 39.93701l-170.61417 0z" fill-rule="evenodd"/><path fill="#000000" d="m99.72361 503.62173l-9.921875 0l0 -1.390625l5.25 -5.828125q1.15625 -1.328125 1.59375 -2.15625q0.453125 -0.828125 0.453125 -1.703125q0 -1.1875 -0.71875 -1.9375q-0.71875 -0.765625 -1.921875 -0.765625q-1.4375 0 -2.234375 0.8125q-0.796875 0.8125 -0.796875 2.28125l-1.921875 0q0 -2.09375 1.34375 -3.390625q1.359375 -1.296875 3.609375 -1.296875q2.125 0 3.34375 1.109375q1.234375 1.109375 1.234375 2.953125q0 2.234375 -2.859375 5.328125l-4.0625 4.40625l7.609375 0l0 1.578125zm2.288742 -1.015625q0 -0.5 0.296875 -0.828125q0.296875 -0.328125 0.890625 -0.328125q0.59375 0 0.890625 0.328125q0.3125 0.328125 0.3125 0.828125q0 0.484375 -0.3125 0.8125q-0.296875 0.3125 -0.890625 0.3125q-0.59375 0 -0.890625 -0.3125q-0.296875 -0.328125 -0.296875 -0.8125zm14.878845 -5.453125q0 3.390625 -1.15625 5.03125q-1.15625 1.640625 -3.609375 1.640625q-2.421875 0 -3.59375 -1.609375q-1.171875 -1.609375 -1.203125 -4.796875l0 -2.578125q0 -3.34375 1.15625 -4.96875q1.15625 -1.625 3.625 -1.625q2.4375 0 3.59375 1.578125q1.15625 1.5625 1.1875 4.828125l0 2.5zm-1.921875 -2.640625q0 -2.4375 -0.6875 -3.546875q-0.6875 -1.125 -2.171875 -1.125q-1.484375 0 -2.171875 1.109375q-0.671875 1.109375 -0.6875 3.421875l0 3.078125q0 2.46875 0.703125 3.640625q0.71875 1.171875 2.171875 1.171875q1.421875 0 2.109375 -1.109375q0.703125 -1.109375 0.734375 -3.484375l0 -3.15625zm7.194992 0.59375l1.453125 0q1.359375 -0.03125 2.140625 -0.71875q0.78125 -0.703125 0.78125 -1.890625q0 -2.65625 -2.65625 -2.65625q-1.25 0 -2.0 0.71875q-0.734375 0.703125 -0.734375 1.875l-1.9375 0q0 -1.796875 1.3125 -2.984375q1.328125 -1.203125 3.359375 -1.203125q2.140625 0 3.359375 1.140625q1.2187424 1.140625 1.2187424 3.15625q0 0.984375 -0.6406174 1.921875q-0.640625 0.921875 -1.734375 1.375q1.25 0.390625 1.9218674 1.3125q0.6875 0.921875 0.6875 2.234375q0 2.046875 -1.3437424 3.25q-1.328125 1.1875 -3.46875 1.1875q-2.125 0 -3.46875 -1.15625q-1.328125 -1.15625 -1.328125 -3.046875l1.9375 0q0 1.203125 0.78125 1.921875q0.78125 0.71875 2.09375 0.71875q1.390625 0 2.125 -0.734375q0.75 -0.734375 0.75 -2.09375q0 -1.328125 -0.8125 -2.03125q-0.8125 -0.703125 -2.34375 -0.734375l-1.453125 0l0 -1.5625z" fill-rule="nonzero"/><path fill="#d9ead3" d="m24.0 436.2362l170.61417 0l0 39.93701l-170.61417 0z" fill-rule="evenodd"/><path stroke="#000000" stroke-width="2.0" stroke-linejoin="round" stroke-linecap="butt" d="m24.0 436.2362l170.61417 0l0 39.93701l-170.61417 0z" fill-rule="evenodd"/><path fill="#000000" d="m99.301735 457.21597q0 3.390625 -1.15625 5.03125q-1.15625 1.640625 -3.609375 1.640625q-2.421875 0 -3.59375 -1.609375q-1.171875 -1.609375 -1.203125 -4.796875l0 -2.578125q0 -3.34375 1.15625 -4.96875q1.15625 -1.625 3.625 -1.625q2.4375 0 3.59375 1.578125q1.15625 1.5625 1.1875 4.828125l0 2.5zm-1.921875 -2.640625q0 -2.4375 -0.6875 -3.546875q-0.6875 -1.125 -2.171875 -1.125q-1.484375 0 -2.171875 1.109375q-0.671875 1.109375 -0.6875 3.421875l0 3.078125q0 2.46875 0.703125 3.640625q0.71875 1.171875 2.171875 1.171875q1.421875 0 2.109375 -1.109375q0.703125 -1.109375 0.734375 -3.484375l0 -3.15625zm4.632492 8.09375q0 -0.5 0.296875 -0.828125q0.296875 -0.328125 0.890625 -0.328125q0.59375 0 0.890625 0.328125q0.3125 0.328125 0.3125 0.828125q0 0.484375 -0.3125 0.8125q-0.296875 0.3125 -0.890625 0.3125q-0.59375 0 -0.890625 -0.3125q-0.296875 -0.328125 -0.296875 -0.8125zm11.70697 1.015625l-1.9375 0l0 -12.84375l-3.890625 1.4375l0 -1.75l5.53125 -2.078125l0.296875 0l0 15.234375zm13.023117 -6.671875q-0.59375 0.71875 -1.4375 1.15625q-0.84375 0.4375 -1.84375 0.4375q-1.3125 0 -2.28125 -0.640625q-0.96875 -0.640625 -1.5 -1.8125q-0.53125 -1.171875 -0.53125 -2.59375q0 -1.515625 0.578125 -2.734375q0.578125 -1.21875 1.640625 -1.859375q1.0625 -0.65625 2.46875 -0.65625q2.25 0 3.546875 1.6875q1.2968674 1.6875 1.2968674 4.578125l0 0.5625q0 4.4375 -1.7499924 6.46875q-1.75 2.03125 -5.28125 2.09375l-0.375 0l0 -1.625l0.40625 0q2.390625 -0.046875 3.671875 -1.25q1.28125 -1.203125 1.390625 -3.8125zm-2.96875 0q0.96875 0 1.78125 -0.59375q0.828125 -0.59375 1.203125 -1.46875l0 -0.765625q0 -1.890625 -0.828125 -3.078125q-0.8125 -1.1875 -2.078125 -1.1875q-1.265625 0 -2.046875 0.984375q-0.765625 0.96875 -0.765625 2.546875q0 1.5625 0.734375 2.5625q0.75 1.0 2.0 1.0z" fill-rule="nonzero"/><path fill="#d9ead3" d="m24.0 396.29922l170.61417 0l0 39.93698l-170.61417 0z" fill-rule="evenodd"/><path stroke="#000000" stroke-width="2.0" stroke-linejoin="round" stroke-linecap="butt" d="m24.0 396.29922l170.61417 0l0 39.93698l-170.61417 0z" fill-rule="evenodd"/><path fill="#000000" d="m99.72361 423.7477l-9.921875 0l0 -1.390625l5.25 -5.828125q1.15625 -1.328125 1.59375 -2.15625q0.453125 -0.828125 0.453125 -1.703125q0 -1.1875 -0.71875 -1.9375q-0.71875 -0.765625 -1.921875 -0.765625q-1.4375 0 -2.234375 0.8125q-0.796875 0.8125 -0.796875 2.28125l-1.921875 0q0 -2.09375 1.34375 -3.390625q1.359375 -1.296875 3.609375 -1.296875q2.125 0 3.34375 1.109375q1.234375 1.109375 1.234375 2.953125q0 2.234375 -2.859375 5.328125l-4.0625 4.40625l7.609375 0l0 1.578125zm2.288742 -1.015625q0 -0.5 0.296875 -0.828125q0.296875 -0.328125 0.890625 -0.328125q0.59375 0 0.890625 0.328125q0.3125 0.328125 0.3125 0.828125q0 0.484375 -0.3125 0.8125q-0.296875 0.3125 -0.890625 0.3125q-0.59375 0 -0.890625 -0.3125q-0.296875 -0.328125 -0.296875 -0.8125zm15.30072 1.015625l-9.921875 0l0 -1.390625l5.25 -5.828125q1.15625 -1.328125 1.59375 -2.15625q0.453125 -0.828125 0.453125 -1.703125q0 -1.1875 -0.71875 -1.9375q-0.71875 -0.765625 -1.921875 -0.765625q-1.4375 0 -2.234375 0.8125q-0.796875 0.8125 -0.796875 2.28125l-1.921875 0q0 -2.09375 1.34375 -3.390625q1.359375 -1.296875 3.609375 -1.296875q2.125 0 3.34375 1.109375q1.234375 1.109375 1.234375 2.953125q0 2.234375 -2.859375 5.328125l-4.0625 4.40625l7.609375 0l0 1.578125zm11.241859 -11.203125q0 1.125 -0.5937424 2.015625q-0.59375 0.890625 -1.625 1.390625q1.1875 0.5 1.8749924 1.484375q0.703125 0.984375 0.703125 2.21875q0 1.96875 -1.3281174 3.140625q-1.328125 1.15625 -3.5 1.15625q-2.1875 0 -3.5 -1.171875q-1.3125 -1.171875 -1.3125 -3.125q0 -1.234375 0.671875 -2.21875q0.671875 -0.984375 1.859375 -1.5q-1.015625 -0.5 -1.609375 -1.375q-0.578125 -0.890625 -0.578125 -2.015625q0 -1.921875 1.234375 -3.046875q1.234375 -1.125 3.234375 -1.125q2.0 0 3.234375 1.125q1.2343674 1.125 1.2343674 3.046875zm-1.5624924 7.0625q0 -1.265625 -0.8125 -2.0625q-0.8125 -0.8125 -2.109375 -0.8125q-1.296875 0 -2.09375 0.796875q-0.78125 0.796875 -0.78125 2.09375q0 1.28125 0.765625 2.03125q0.765625 0.734375 2.125 0.734375q1.359375 0 2.125 -0.75q0.78125 -0.75 0.78125 -2.03125zm-2.90625 -9.640625q-1.125 0 -1.828125 0.703125q-0.703125 0.703125 -0.703125 1.90625q0 1.15625 0.6875 1.875q0.6875 0.703125 1.84375 0.703125q1.15625 0 1.84375 -0.703125q0.703125 -0.71875 0.703125 -1.875q0 -1.15625 -0.71875 -1.875q-0.71875 -0.734375 -1.828125 -0.734375z" fill-rule="nonzero"/><path fill="#000000" fill-opacity="0.0" d="m24.0 356.3622l170.61417 0l0 39.93701l-170.61417 0z" fill-rule="evenodd"/><path stroke="#000000" stroke-width="2.0" stroke-linejoin="round" stroke-linecap="butt" d="m24.0 356.3622l170.61417 0l0 39.93701l-170.61417 0z" fill-rule="evenodd"/><path fill="#000000" d="m97.926735 378.71695l2.109375 0l0 1.578125l-2.109375 0l0 3.515625l-1.9375 0l0 -3.515625l-6.90625 0l0 -1.140625l6.796875 -10.5l2.046875 0l0 10.0625zm-6.65625 0l4.71875 0l0 -7.4375l-0.21875 0.421875l-4.5 7.015625zm10.741867 4.078125q0 -0.5 0.296875 -0.828125q0.296875 -0.328125 0.890625 -0.328125q0.59375 0 0.890625 0.328125q0.3125 0.328125 0.3125 0.828125q0 0.484375 -0.3125 0.8125q-0.296875 0.3125 -0.890625 0.3125q-0.59375 0 -0.890625 -0.3125q-0.296875 -0.328125 -0.296875 -0.8125zm14.878845 -5.453125q0 3.390625 -1.15625 5.03125q-1.15625 1.640625 -3.609375 1.640625q-2.421875 0 -3.59375 -1.609375q-1.171875 -1.609375 -1.203125 -4.796875l0 -2.578125q0 -3.34375 1.15625 -4.96875q1.15625 -1.625 3.625 -1.625q2.4375 0 3.59375 1.578125q1.15625 1.5625 1.1875 4.828125l0 2.5zm-1.921875 -2.640625q0 -2.4375 -0.6875 -3.546875q-0.6875 -1.125 -2.171875 -1.125q-1.484375 0 -2.171875 1.109375q-0.671875 1.109375 -0.6875 3.421875l0 3.078125q0 2.46875 0.703125 3.640625q0.71875 1.171875 2.171875 1.171875q1.421875 0 2.109375 -1.109375q0.703125 -1.109375 0.734375 -3.484375l0 -3.15625zm10.726242 9.109375l-1.9375 0l0 -12.84375l-3.890625 1.4375l0 -1.75l5.53125 -2.078125l0.296875 0l0 15.234375z" fill-rule="nonzero"/><path fill="#000000" fill-opacity="0.0" d="m24.0 316.4252l170.61417 0l0 39.93701l-170.61417 0z" fill-rule="evenodd"/><path stroke="#000000" stroke-width="2.0" stroke-linejoin="round" stroke-linecap="butt" d="m24.0 316.4252l170.61417 0l0 39.93701l-170.61417 0z" fill-rule="evenodd"/><path fill="#000000" d="m99.301735 337.40494q0 3.390625 -1.15625 5.03125q-1.15625 1.640625 -3.609375 1.640625q-2.421875 0 -3.59375 -1.609375q-1.171875 -1.609375 -1.203125 -4.796875l0 -2.578125q0 -3.34375 1.15625 -4.96875q1.15625 -1.625 3.625 -1.625q2.4375 0 3.59375 1.578125q1.15625 1.5625 1.1875 4.828125l0 2.5zm-1.921875 -2.640625q0 -2.4375 -0.6875 -3.546875q-0.6875 -1.125 -2.171875 -1.125q-1.484375 0 -2.171875 1.109375q-0.671875 1.109375 -0.6875 3.421875l0 3.078125q0 2.46875 0.703125 3.640625q0.71875 1.171875 2.171875 1.171875q1.421875 0 2.109375 -1.109375q0.703125 -1.109375 0.734375 -3.484375l0 -3.15625zm4.632492 8.09375q0 -0.5 0.296875 -0.828125q0.296875 -0.328125 0.890625 -0.328125q0.59375 0 0.890625 0.328125q0.3125 0.328125 0.3125 0.828125q0 0.484375 -0.3125 0.8125q-0.296875 0.3125 -0.890625 0.3125q-0.59375 0 -0.890625 -0.3125q-0.296875 -0.328125 -0.296875 -0.8125zm15.30072 1.015625l-9.921875 0l0 -1.390625l5.25 -5.828125q1.15625 -1.328125 1.59375 -2.15625q0.453125 -0.828125 0.453125 -1.703125q0 -1.1875 -0.71875 -1.9375q-0.71875 -0.765625 -1.921875 -0.765625q-1.4375 0 -2.234375 0.8125q-0.796875 0.8125 -0.796875 2.28125l-1.921875 0q0 -2.09375 1.34375 -3.390625q1.359375 -1.296875 3.609375 -1.296875q2.125 0 3.34375 1.109375q1.234375 1.109375 1.234375 2.953125q0 2.234375 -2.859375 5.328125l-4.0625 4.40625l7.609375 0l0 1.578125zm11.835609 -14.078125l-6.2812424 14.078125l-2.015625 0l6.265625 -13.578125l-8.21875 0l0 -1.578125l10.249992 0l0 1.078125z" fill-rule="nonzero"/><path fill="#000000" fill-opacity="0.0" d="m24.0 276.4882l170.61417 0l0 39.93701l-170.61417 0z" fill-rule="evenodd"/><path stroke="#000000" stroke-width="2.0" stroke-linejoin="round" stroke-linecap="butt" d="m24.0 276.4882l170.61417 0l0 39.93701l-170.61417 0z" fill-rule="evenodd"/><path fill="#000000" d="m91.06287 298.28046l-5.078125 0l0 -1.578125l5.078125 0l0 1.578125zm11.180862 -0.8125q0 3.390625 -1.15625 5.03125q-1.15625 1.640625 -3.609375 1.640625q-2.421875 0 -3.59375 -1.609375q-1.171875 -1.609375 -1.203125 -4.796875l0 -2.578125q0 -3.34375 1.15625 -4.96875q1.15625 -1.625 3.625 -1.625q2.4375 0 3.59375 1.578125q1.15625 1.5625 1.1875 4.828125l0 2.5zm-1.921875 -2.640625q0 -2.4375 -0.6875 -3.546875q-0.6875 -1.125 -2.171875 -1.125q-1.484375 0 -2.171875 1.109375q-0.671875 1.109375 -0.6875 3.421875l0 3.078125q0 2.46875 0.703125 3.640625q0.71875 1.171875 2.171875 1.171875q1.421875 0 2.109375 -1.109375q0.703125 -1.109375 0.734375 -3.484375l0 -3.15625zm4.632492 8.09375q0 -0.5 0.296875 -0.828125q0.296875 -0.328125 0.890625 -0.328125q0.59375 0 0.890625 0.328125q0.3125 0.328125 0.3125 0.828125q0 0.484375 -0.3125 0.8125q-0.296875 0.3125 -0.890625 0.3125q-0.59375 0 -0.890625 -0.3125q-0.296875 -0.328125 -0.296875 -0.8125zm15.160095 -13.0625l-6.28125 14.078125l-2.015625 0l6.265625 -13.578125l-8.21875 0l0 -1.578125l10.25 0l0 1.078125zm10.319992 8.984375l2.109375 0l0 1.578125l-2.109375 0l0 3.515625l-1.9375 0l0 -3.515625l-6.90625 0l0 -1.140625l6.796875 -10.5l2.046875 0l0 10.0625zm-6.65625 0l4.71875 0l0 -7.4375l-0.21875 0.421875l-4.5 7.015625z" fill-rule="nonzero"/><path fill="#000000" fill-opacity="0.0" d="m24.0 236.55118l170.61417 0l0 39.93701l-170.61417 0z" fill-rule="evenodd"/><path stroke="#000000" stroke-width="2.0" stroke-linejoin="round" stroke-linecap="butt" d="m24.0 236.55118l170.61417 0l0 39.93701l-170.61417 0z" fill-rule="evenodd"/><path fill="#000000" d="m99.301735 257.53094q0 3.390625 -1.15625 5.03125q-1.15625 1.640625 -3.609375 1.640625q-2.421875 0 -3.59375 -1.609375q-1.171875 -1.609375 -1.203125 -4.796875l0 -2.5781403q0 -3.34375 1.15625 -4.96875q1.15625 -1.625 3.625 -1.625q2.4375 0 3.59375 1.578125q1.15625 1.5625 1.1875 4.828125l0 2.5000153zm-1.921875 -2.6406403q0 -2.4375 -0.6875 -3.546875q-0.6875 -1.125 -2.171875 -1.125q-1.484375 0 -2.171875 1.109375q-0.671875 1.109375 -0.6875 3.421875l0 3.0781403q0 2.46875 0.703125 3.640625q0.71875 1.171875 2.171875 1.171875q1.421875 0 2.109375 -1.109375q0.703125 -1.109375 0.734375 -3.484375l0 -3.1562653zm4.632492 8.093765q0 -0.5 0.296875 -0.828125q0.296875 -0.328125 0.890625 -0.328125q0.59375 0 0.890625 0.328125q0.3125 0.328125 0.3125 0.828125q0 0.484375 -0.3125 0.8125q-0.296875 0.3125 -0.890625 0.3125q-0.59375 0 -0.890625 -0.3125q-0.296875 -0.328125 -0.296875 -0.8125zm15.160095 -13.062515l-6.28125 14.07814l-2.015625 0l6.265625 -13.57814l-8.21875 0l0 -1.578125l10.25 0l0 1.078125zm9.757492 -1.09375l0 1.640625l-0.359375 0q-2.25 0.03125 -3.59375 1.328125q-1.328125 1.296875 -1.53125 3.625q1.203125 -1.375 3.265625 -1.375q1.984375 0 3.15625 1.40625q1.1874924 1.3906403 1.1874924 3.5937653q0 2.34375 -1.2812424 3.75q-1.265625 1.40625 -3.40625 1.40625q-2.1875 0 -3.546875 -1.671875q-1.34375 -1.671875 -1.34375 -4.296875l0 -0.75q0 -4.1718903 1.78125 -6.3906403q1.796875 -2.21875 5.328125 -2.265625l0.34375 0zm-2.53125 6.828125q-1.0 0 -1.828125 0.59376526q-0.828125 0.59375 -1.15625 1.484375l0 0.71875q0 1.875 0.84375 3.015625q0.84375 1.140625 2.109375 1.140625q1.296875 0 2.03125 -0.953125q0.75 -0.953125 0.75 -2.515625q0 -1.5625 -0.75 -2.515625q-0.75 -0.96876526 -2.0 -0.96876526z" fill-rule="nonzero"/><path fill="#d9ead3" d="m24.0 196.61417l170.61417 0l0 39.93701l-170.61417 0z" fill-rule="evenodd"/><path stroke="#000000" stroke-width="2.0" stroke-linejoin="round" stroke-linecap="butt" d="m24.0 196.61417l170.61417 0l0 39.93701l-170.61417 0z" fill-rule="evenodd"/><path fill="#000000" d="m99.301735 217.59393q0 3.390625 -1.15625 5.03125q-1.15625 1.640625 -3.609375 1.640625q-2.421875 0 -3.59375 -1.609375q-1.171875 -1.609375 -1.203125 -4.796875l0 -2.578125q0 -3.34375 1.15625 -4.96875q1.15625 -1.625 3.625 -1.625q2.4375 0 3.59375 1.578125q1.15625 1.5625 1.1875 4.828125l0 2.5zm-1.921875 -2.640625q0 -2.4375 -0.6875 -3.546875q-0.6875 -1.125 -2.171875 -1.125q-1.484375 0 -2.171875 1.109375q-0.671875 1.109375 -0.6875 3.421875l0 3.078125q0 2.46875 0.703125 3.640625q0.71875 1.171875 2.171875 1.171875q1.421875 0 2.109375 -1.109375q0.703125 -1.109375 0.734375 -3.484375l0 -3.15625zm4.632492 8.09375q0 -0.5 0.296875 -0.828125q0.296875 -0.328125 0.890625 -0.328125q0.59375 0 0.890625 0.328125q0.3125 0.328125 0.3125 0.828125q0 0.484375 -0.3125 0.8125q-0.296875 0.3125 -0.890625 0.3125q-0.59375 0 -0.890625 -0.3125q-0.296875 -0.328125 -0.296875 -0.8125zm8.17572 -7.5l1.453125 0q1.359375 -0.03125 2.140625 -0.71875q0.78125 -0.703125 0.78125 -1.890625q0 -2.65625 -2.65625 -2.65625q-1.25 0 -2.0 0.71875q-0.734375 0.703125 -0.734375 1.875l-1.9375 0q0 -1.796875 1.3125 -2.984375q1.328125 -1.203125 3.359375 -1.203125q2.140625 0 3.359375 1.140625q1.21875 1.140625 1.21875 3.15625q0 0.984375 -0.640625 1.921875q-0.640625 0.921875 -1.734375 1.375q1.25 0.390625 1.921875 1.3125q0.6875 0.921875 0.6875 2.234375q0 2.046875 -1.34375 3.25q-1.328125 1.1875 -3.46875 1.1875q-2.125 0 -3.46875 -1.15625q-1.328125 -1.15625 -1.328125 -3.046875l1.9375 0q0 1.203125 0.78125 1.921875q0.78125 0.71875 2.09375 0.71875q1.390625 0 2.125 -0.734375q0.75 -0.734375 0.75 -2.09375q0 -1.328125 -0.8125 -2.03125q-0.8125 -0.703125 -2.34375 -0.734375l-1.453125 0l0 -1.5625zm15.507492 8.515625l-1.9375 0l0 -12.84375l-3.890625 1.4375l0 -1.75l5.53125 -2.078125l0.296875 0l0 15.234375z" fill-rule="nonzero"/><path fill="#000000" fill-opacity="0.0" d="m24.0 156.67717l170.61417 0l0 39.936996l-170.61417 0z" fill-rule="evenodd"/><path stroke="#000000" stroke-width="2.0" stroke-linejoin="round" stroke-linecap="butt" d="m24.0 156.67717l170.61417 0l0 39.936996l-170.61417 0z" fill-rule="evenodd"/><path fill="#000000" d="m99.72361 184.12567l-9.921875 0l0 -1.390625l5.25 -5.828125q1.15625 -1.328125 1.59375 -2.15625q0.453125 -0.828125 0.453125 -1.703125q0 -1.1875 -0.71875 -1.9375q-0.71875 -0.765625 -1.921875 -0.765625q-1.4375 0 -2.234375 0.8125q-0.796875 0.8125 -0.796875 2.28125l-1.921875 0q0 -2.09375 1.34375 -3.390625q1.359375 -1.296875 3.609375 -1.296875q2.125 0 3.34375 1.109375q1.234375 1.109375 1.234375 2.953125q0 2.234375 -2.859375 5.328125l-4.0625 4.40625l7.609375 0l0 1.578125zm2.288742 -1.015625q0 -0.5 0.296875 -0.828125q0.296875 -0.328125 0.890625 -0.328125q0.59375 0 0.890625 0.328125q0.3125 0.328125 0.3125 0.828125q0 0.484375 -0.3125 0.8125q-0.296875 0.3125 -0.890625 0.3125q-0.59375 0 -0.890625 -0.3125q-0.296875 -0.328125 -0.296875 -0.8125zm15.30072 1.015625l-9.921875 0l0 -1.390625l5.25 -5.828125q1.15625 -1.328125 1.59375 -2.15625q0.453125 -0.828125 0.453125 -1.703125q0 -1.1875 -0.71875 -1.9375q-0.71875 -0.765625 -1.921875 -0.765625q-1.4375 0 -2.234375 0.8125q-0.796875 0.8125 -0.796875 2.28125l-1.921875 0q0 -2.09375 1.34375 -3.390625q1.359375 -1.296875 3.609375 -1.296875q2.125 0 3.34375 1.109375q1.234375 1.109375 1.234375 2.953125q0 2.234375 -2.859375 5.328125l-4.0625 4.40625l7.609375 0l0 1.578125zm8.382492 0l-1.9375 0l0 -12.84375l-3.890625 1.4375l0 -1.75l5.53125 -2.078125l0.296875 0l0 15.234375z" fill-rule="nonzero"/><path fill="#d9ead3" d="m24.0 116.74016l170.61417 0l0 39.93701l-170.61417 0z" fill-rule="evenodd"/><path stroke="#000000" stroke-width="2.0" stroke-linejoin="round" stroke-linecap="butt" d="m24.0 116.74016l170.61417 0l0 39.93701l-170.61417 0z" fill-rule="evenodd"/><path fill="#000000" d="m99.301735 137.71991q0 3.390625 -1.15625 5.03125q-1.15625 1.640625 -3.609375 1.640625q-2.421875 0 -3.59375 -1.609375q-1.171875 -1.609375 -1.203125 -4.796875l0 -2.578125q0 -3.34375 1.15625 -4.96875q1.15625 -1.625 3.625 -1.625q2.4375 0 3.59375 1.578125q1.15625 1.5625 1.1875 4.828125l0 2.5zm-1.921875 -2.640625q0 -2.4375 -0.6875 -3.546875q-0.6875 -1.125 -2.171875 -1.125q-1.484375 0 -2.171875 1.109375q-0.671875 1.109375 -0.6875 3.421875l0 3.078125q0 2.46875 0.703125 3.640625q0.71875 1.171875 2.171875 1.171875q1.421875 0 2.109375 -1.109375q0.703125 -1.109375 0.734375 -3.484375l0 -3.15625zm4.632492 8.09375q0 -0.5 0.296875 -0.828125q0.296875 -0.328125 0.890625 -0.328125q0.59375 0 0.890625 0.328125q0.3125 0.328125 0.3125 0.828125q0 0.484375 -0.3125 0.8125q-0.296875 0.3125 -0.890625 0.3125q-0.59375 0 -0.890625 -0.3125q-0.296875 -0.328125 -0.296875 -0.8125zm15.30072 1.015625l-9.921875 0l0 -1.390625l5.25 -5.828125q1.15625 -1.328125 1.59375 -2.15625q0.453125 -0.828125 0.453125 -1.703125q0 -1.1875 -0.71875 -1.9375q-0.71875 -0.765625 -1.921875 -0.765625q-1.4375 0 -2.234375 0.8125q-0.796875 0.8125 -0.796875 2.28125l-1.921875 0q0 -2.09375 1.34375 -3.390625q1.359375 -1.296875 3.609375 -1.296875q2.125 0 3.34375 1.109375q1.234375 1.109375 1.234375 2.953125q0 2.234375 -2.859375 5.328125l-4.0625 4.40625l7.609375 0l0 1.578125zm10.179367 -5.09375l2.1093674 0l0 1.578125l-2.1093674 0l0 3.515625l-1.9375 0l0 -3.515625l-6.90625 0l0 -1.140625l6.796875 -10.5l2.046875 0l0 10.0625zm-6.65625 0l4.71875 0l0 -7.4375l-0.21875 0.421875l-4.5 7.015625z" fill-rule="nonzero"/><path fill="#000000" fill-opacity="0.0" d="m24.0 76.80315l170.61417 0l0 39.93701l-170.61417 0z" fill-rule="evenodd"/><path stroke="#000000" stroke-width="2.0" stroke-linejoin="round" stroke-linecap="butt" d="m24.0 76.80315l170.61417 0l0 39.93701l-170.61417 0z" fill-rule="evenodd"/><path fill="#000000" d="m99.301735 97.782906q0 3.390625 -1.15625 5.03125q-1.15625 1.640625 -3.609375 1.640625q-2.421875 0 -3.59375 -1.609375q-1.171875 -1.609375 -1.203125 -4.796875l0 -2.578125q0 -3.34375 1.15625 -4.96875q1.15625 -1.625 3.625 -1.625q2.4375 0 3.59375 1.578125q1.15625 1.5625 1.1875 4.828125l0 2.5zm-1.921875 -2.640625q0 -2.4375 -0.6875 -3.546875q-0.6875 -1.125 -2.171875 -1.125q-1.484375 0 -2.171875 1.109375q-0.671875 1.109375 -0.6875 3.421875l0 3.078125q0 2.46875 0.703125 3.640625q0.71875 1.171875 2.171875 1.171875q1.421875 0 2.109375 -1.109375q0.703125 -1.109375 0.734375 -3.484375l0 -3.15625zm4.632492 8.09375q0 -0.5 0.296875 -0.828125q0.296875 -0.328125 0.890625 -0.328125q0.59375 0 0.890625 0.328125q0.3125 0.328125 0.3125 0.828125q0 0.484375 -0.3125 0.8125q-0.296875 0.3125 -0.890625 0.3125q-0.59375 0 -0.890625 -0.3125q-0.296875 -0.328125 -0.296875 -0.8125zm8.17572 -7.5l1.453125 0q1.359375 -0.03125 2.140625 -0.71875q0.78125 -0.703125 0.78125 -1.890625q0 -2.65625 -2.65625 -2.65625q-1.25 0 -2.0 0.71875q-0.734375 0.703125 -0.734375 1.875l-1.9375 0q0 -1.796875 1.3125 -2.984375q1.328125 -1.203125 3.359375 -1.203125q2.140625 0 3.359375 1.140625q1.21875 1.140625 1.21875 3.15625q0 0.984375 -0.640625 1.921875q-0.640625 0.921875 -1.734375 1.375q1.25 0.390625 1.921875 1.3125q0.6875 0.921875 0.6875 2.234375q0 2.046875 -1.34375 3.25q-1.328125 1.1875 -3.46875 1.1875q-2.125 0 -3.46875 -1.15625q-1.328125 -1.15625 -1.328125 -3.046875l1.9375 0q0 1.203125 0.78125 1.921875q0.78125 0.71875 2.09375 0.71875q1.390625 0 2.125 -0.734375q0.75 -0.734375 0.75 -2.09375q0 -1.328125 -0.8125 -2.03125q-0.8125 -0.703125 -2.34375 -0.734375l-1.453125 0l0 -1.5625zm16.554367 1.84375q-0.59375 0.71875 -1.4375 1.15625q-0.84375 0.4375 -1.84375 0.4375q-1.3125 0 -2.28125 -0.640625q-0.96875 -0.640625 -1.5 -1.8125q-0.53125 -1.171875 -0.53125 -2.59375q0 -1.515625 0.578125 -2.734375q0.578125 -1.21875 1.640625 -1.859375q1.0625 -0.65625 2.46875 -0.65625q2.25 0 3.546875 1.6875q1.2968674 1.6875 1.2968674 4.578125l0 0.5625q0 4.4375 -1.7499924 6.46875q-1.75 2.03125 -5.28125 2.09375l-0.375 0l0 -1.625l0.40625 0q2.390625 -0.046875 3.671875 -1.25q1.28125 -1.203125 1.390625 -3.8125zm-2.96875 0q0.96875 0 1.78125 -0.59375q0.828125 -0.59375 1.203125 -1.46875l0 -0.765625q0 -1.890625 -0.828125 -3.078125q-0.8125 -1.1875 -2.078125 -1.1875q-1.265625 0 -2.046875 0.984375q-0.765625 0.96875 -0.765625 2.546875q0 1.5625 0.734375 2.5625q0.75 1.0 2.0 1.0z" fill-rule="nonzero"/><path fill="#000000" fill-opacity="0.0" d="m24.0 516.1102l170.61417 0l0 39.93701l-170.61417 0z" fill-rule="evenodd"/><path stroke="#000000" stroke-width="2.0" stroke-linejoin="round" stroke-linecap="butt" d="m24.0 516.1102l170.61417 0l0 39.93701l-170.61417 0z" fill-rule="evenodd"/><path fill="#000000" d="m91.06287 537.90247l-5.078125 0l0 -1.578125l5.078125 0l0 1.578125zm11.180862 -0.8125q0 3.390625 -1.15625 5.03125q-1.15625 1.640625 -3.609375 1.640625q-2.421875 0 -3.59375 -1.609375q-1.171875 -1.609375 -1.203125 -4.796875l0 -2.578125q0 -3.34375 1.15625 -4.96875q1.15625 -1.625 3.625 -1.625q2.4375 0 3.59375 1.578125q1.15625 1.5625 1.1875 4.828125l0 2.5zm-1.921875 -2.640625q0 -2.4375 -0.6875 -3.546875q-0.6875 -1.125 -2.171875 -1.125q-1.484375 0 -2.171875 1.109375q-0.671875 1.109375 -0.6875 3.421875l0 3.078125q0 2.46875 0.703125 3.640625q0.71875 1.171875 2.171875 1.171875q1.421875 0 2.109375 -1.109375q0.703125 -1.109375 0.734375 -3.484375l0 -3.15625zm4.632492 8.09375q0 -0.5 0.296875 -0.828125q0.296875 -0.328125 0.890625 -0.328125q0.59375 0 0.890625 0.328125q0.3125 0.328125 0.3125 0.828125q0 0.484375 -0.3125 0.8125q-0.296875 0.3125 -0.890625 0.3125q-0.59375 0 -0.890625 -0.3125q-0.296875 -0.328125 -0.296875 -0.8125zm14.878845 -5.453125q0 3.390625 -1.15625 5.03125q-1.15625 1.640625 -3.609375 1.640625q-2.421875 0 -3.59375 -1.609375q-1.171875 -1.609375 -1.203125 -4.796875l0 -2.578125q0 -3.34375 1.15625 -4.96875q1.15625 -1.625 3.625 -1.625q2.4375 0 3.59375 1.578125q1.15625 1.5625 1.1875 4.828125l0 2.5zm-1.921875 -2.640625q0 -2.4375 -0.6875 -3.546875q-0.6875 -1.125 -2.171875 -1.125q-1.484375 0 -2.171875 1.109375q-0.671875 1.109375 -0.6875 3.421875l0 3.078125q0 2.46875 0.703125 3.640625q0.71875 1.171875 2.171875 1.171875q1.421875 0 2.109375 -1.109375q0.703125 -1.109375 0.734375 -3.484375l0 -3.15625zm5.273117 1.5l0.78125 -7.546875l7.765625 0l0 1.78125l-6.140625 0l-0.453125 4.125q1.109375 -0.65625 2.53125 -0.65625q2.078125 0 3.28125 1.375q1.21875 1.359375 1.21875 3.703125q0 2.34375 -1.265625 3.6875q-1.25 1.34375 -3.53125 1.34375q-2.0 0 -3.28125 -1.109375q-1.265625 -1.109375 -1.4375 -3.078125l1.8125 0q0.1875 1.296875 0.9375 1.96875q0.75 0.65625 1.96875 0.65625q1.34375 0 2.109375 -0.921875q0.765625 -0.921875 0.765625 -2.53125q0 -1.515625 -0.828125 -2.4375q-0.828125 -0.921875 -2.203125 -0.921875q-1.25 0 -1.96875 0.546875l-0.515625 0.421875l-1.546875 -0.40625z" fill-rule="nonzero"/><path fill="#000000" fill-opacity="0.0" d="m549.54333 25.807087l134.33069 0l0 50.992123l-134.33069 0z" fill-rule="evenodd"/><path fill="#000000" d="m587.6286 52.3119l-7.15625 0l0 7.53125l-2.25 0l0 -17.0625l10.5625 0l0 1.84375l-8.3125 0l0 5.84375l7.15625 0l0 1.84375zm8.78125 7.765625q-2.578125 0 -4.203125 -1.6875q-1.609375 -1.703125 -1.609375 -4.53125l0 -0.40625q0 -1.890625 0.71875 -3.359375q0.71875 -1.484375 2.015625 -2.328125q1.296875 -0.84375 2.8125 -0.84375q2.46875 0 3.828125 1.640625q1.375 1.625 1.375 4.65625l0 0.90625l-8.578125 0q0.046875 1.875 1.09375 3.03125q1.046875 1.15625 2.65625 1.15625q1.15625 0 1.953125 -0.46875q0.796875 -0.46875 1.390625 -1.25l1.328125 1.03125q-1.59375 2.453125 -4.78125 2.453125zm-0.265625 -11.375q-1.3125 0 -2.203125 0.96875q-0.890625 0.953125 -1.109375 2.671875l6.359375 0l0 -0.171875q-0.09375 -1.640625 -0.890625 -2.546875q-0.796875 -0.921875 -2.15625 -0.921875zm15.542969 11.140625q-0.1875 -0.375 -0.296875 -1.34375q-1.515625 1.578125 -3.609375 1.578125q-1.875 0 -3.078125 -1.0625q-1.203125 -1.0625 -1.203125 -2.6875q0 -1.984375 1.5 -3.078125q1.515625 -1.09375 4.234375 -1.09375l2.109375 0l0 -1.0q0 -1.140625 -0.6875 -1.8125q-0.671875 -0.671875 -1.984375 -0.671875q-1.171875 0 -1.953125 0.59375q-0.78125 0.578125 -0.78125 1.40625l-2.1875 0q0 -0.9375 0.671875 -1.828125q0.6875 -0.890625 1.828125 -1.40625q1.15625 -0.515625 2.546875 -0.515625q2.1875 0 3.421875 1.109375q1.25 1.09375 1.296875 3.015625l0 5.828125q0 1.75 0.453125 2.78125l0 0.1875l-2.28125 0zm-3.59375 -1.65625q1.015625 0 1.921875 -0.515625q0.921875 -0.53125 1.328125 -1.375l0 -2.609375l-1.6875 0q-3.984375 0 -3.984375 2.328125q0 1.03125 0.671875 1.609375q0.6875 0.5625 1.75 0.5625zm11.7578125 -14.09375l0 3.0625l2.375 0l0 1.6875l-2.375 0l0 7.859375q0 0.765625 0.3125 1.140625q0.328125 0.375 1.09375 0.375q0.375 0 1.03125 -0.140625l0 1.765625q-0.859375 0.234375 -1.671875 0.234375q-1.453125 0 -2.1875 -0.875q-0.734375 -0.890625 -0.734375 -2.5l0 -7.859375l-2.3125 0l0 -1.6875l2.3125 0l0 -3.0625l2.15625 0zm12.730469 14.5q-1.265625 1.484375 -3.71875 1.484375q-2.015625 0 -3.078125 -1.171875q-1.0625 -1.1875 -1.078125 -3.5l0 -8.25l2.171875 0l0 8.203125q0 2.875 2.34375 2.875q2.484375 0 3.296875 -1.84375l0 -9.234375l2.171875 0l0 12.6875l-2.0625 0l-0.046875 -1.25zm11.527344 -9.484375q-0.484375 -0.078125 -1.0625 -0.078125q-2.125 0 -2.890625 1.8125l0 9.0l-2.171875 0l0 -12.6875l2.109375 0l0.03125 1.46875q1.078125 -1.703125 3.03125 -1.703125q0.625 0 0.953125 0.171875l0 2.015625zm7.2617188 10.96875q-2.578125 0 -4.203125 -1.6875q-1.609375 -1.703125 -1.609375 -4.53125l0 -0.40625q0 -1.890625 0.71875 -3.359375q0.71875 -1.484375 2.015625 -2.328125q1.296875 -0.84375 2.8125 -0.84375q2.46875 0 3.828125 1.640625q1.375 1.625 1.375 4.65625l0 0.90625l-8.578125 0q0.046875 1.875 1.09375 3.03125q1.046875 1.15625 2.65625 1.15625q1.15625 0 1.953125 -0.46875q0.796875 -0.46875 1.390625 -1.25l1.328125 1.03125q-1.59375 2.453125 -4.78125 2.453125zm-0.265625 -11.375q-1.3125 0 -2.203125 0.96875q-0.890625 0.953125 -1.109375 2.671875l6.359375 0l0 -0.171875q-0.09375 -1.640625 -0.890625 -2.546875q-0.796875 -0.921875 -2.15625 -0.921875z" fill-rule="nonzero"/><path fill="#c9daf8" d="m531.40155 476.16928l170.6142 0l0 39.937042l-170.6142 0z" fill-rule="evenodd"/><path stroke="#000000" stroke-width="2.0" stroke-linejoin="round" stroke-linecap="butt" d="m531.40155 476.16928l170.6142 0l0 39.937042l-170.6142 0z" fill-rule="evenodd"/><path fill="#1155cc" d="m622.9812 498.57092q-0.171875 2.4375 -1.796875 3.84375q-1.625 1.40625 -4.296875 1.40625q-2.921875 0 -4.59375 -1.953125q-1.671875 -1.96875 -1.671875 -5.390625l0 -0.9375q0 -2.1875 0.765625 -3.84375q0.78125 -1.671875 2.203125 -2.5625q1.4375 -0.890625 3.34375 -0.890625q2.625 0 4.21875 1.40625q1.609375 1.40625 1.859375 3.953125l-3.125 0q-0.109375 -1.46875 -0.8125 -2.125q-0.703125 -0.671875 -2.140625 -0.671875q-1.5625 0 -2.34375 1.125q-0.78125 1.109375 -0.796875 3.46875l0 1.140625q0 2.46875 0.734375 3.609375q0.75 1.125 2.359375 1.125q1.453125 0 2.15625 -0.65625q0.71875 -0.671875 0.828125 -2.046875l3.109375 0z" fill-rule="nonzero"/><path fill="#d9ead3" d="m531.40155 436.23227l170.6142 0l0 39.93701l-170.6142 0z" fill-rule="evenodd"/><path stroke="#000000" stroke-width="2.0" stroke-linejoin="round" stroke-linecap="butt" d="m531.40155 436.23227l170.6142 0l0 39.93701l-170.6142 0z" fill-rule="evenodd"/><path fill="#38761d" d="m611.2624 463.6808l0 -15.15625l5.3125 0q2.75 0 4.171875 1.0625q1.4375 1.046875 1.4375 3.09375q0 1.109375 -0.578125 1.953125q-0.578125 0.84375 -1.59375 1.25q1.171875 0.28125 1.84375 1.171875q0.671875 0.890625 0.671875 2.171875q0 2.1875 -1.40625 3.3125q-1.390625 1.125 -3.96875 1.140625l-5.890625 0zm3.125 -6.609375l0 4.09375l2.671875 0q1.109375 0 1.71875 -0.515625q0.625 -0.53125 0.625 -1.453125q0 -2.09375 -2.15625 -2.125l-2.859375 0zm0 -2.203125l2.3125 0q2.359375 -0.046875 2.359375 -1.875q0 -1.03125 -0.609375 -1.484375q-0.59375 -0.453125 -1.875 -0.453125l-2.1875 0l0 3.8125z" fill-rule="nonzero"/><path fill="#d9ead3" d="m531.40155 396.2953l170.6142 0l0 39.93698l-170.6142 0z" fill-rule="evenodd"/><path stroke="#000000" stroke-width="2.0" stroke-linejoin="round" stroke-linecap="butt" d="m531.40155 396.2953l170.6142 0l0 39.93698l-170.6142 0z" fill-rule="evenodd"/><path fill="#38761d" d="m611.2624 423.74377l0 -15.15625l5.3125 0q2.75 0 4.171875 1.0625q1.4375 1.046875 1.4375 3.09375q0 1.109375 -0.578125 1.953125q-0.578125 0.84375 -1.59375 1.25q1.171875 0.28125 1.84375 1.171875q0.671875 0.890625 0.671875 2.171875q0 2.1875 -1.40625 3.3125q-1.390625 1.125 -3.96875 1.140625l-5.890625 0zm3.125 -6.609375l0 4.09375l2.671875 0q1.109375 0 1.71875 -0.515625q0.625 -0.53125 0.625 -1.453125q0 -2.09375 -2.15625 -2.125l-2.859375 0zm0 -2.203125l2.3125 0q2.359375 -0.046875 2.359375 -1.875q0 -1.03125 -0.609375 -1.484375q-0.59375 -0.453125 -1.875 -0.453125l-2.1875 0l0 3.8125z" fill-rule="nonzero"/><path fill="#c9daf8" d="m531.40155 356.35828l170.6142 0l0 39.93701l-170.6142 0z" fill-rule="evenodd"/><path stroke="#000000" stroke-width="2.0" stroke-linejoin="round" stroke-linecap="butt" d="m531.40155 356.35828l170.6142 0l0 39.93701l-170.6142 0z" fill-rule="evenodd"/><path fill="#1155cc" d="m622.9812 378.7599q-0.171875 2.4375 -1.796875 3.84375q-1.625 1.40625 -4.296875 1.40625q-2.921875 0 -4.59375 -1.953125q-1.671875 -1.96875 -1.671875 -5.390625l0 -0.9375q0 -2.1875 0.765625 -3.84375q0.78125 -1.671875 2.203125 -2.5625q1.4375 -0.890625 3.34375 -0.890625q2.625 0 4.21875 1.40625q1.609375 1.40625 1.859375 3.953125l-3.125 0q-0.109375 -1.46875 -0.8125 -2.125q-0.703125 -0.671875 -2.140625 -0.671875q-1.5625 0 -2.34375 1.125q-0.78125 1.109375 -0.796875 3.46875l0 1.140625q0 2.46875 0.734375 3.609375q0.75 1.125 2.359375 1.125q1.453125 0 2.15625 -0.65625q0.71875 -0.671875 0.828125 -2.046875l3.109375 0z" fill-rule="nonzero"/><path fill="#c9daf8" d="m531.40155 236.54724l170.6142 0l0 39.93701l-170.6142 0z" fill-rule="evenodd"/><path stroke="#000000" stroke-width="2.0" stroke-linejoin="round" stroke-linecap="butt" d="m531.40155 236.54724l170.6142 0l0 39.93701l-170.6142 0z" fill-rule="evenodd"/><path fill="#1155cc" d="m622.9812 258.94888q-0.171875 2.4375 -1.796875 3.84375q-1.625 1.40625 -4.296875 1.40625q-2.921875 0 -4.59375 -1.953125q-1.671875 -1.96875 -1.671875 -5.390625l0 -0.93751526q0 -2.1875 0.765625 -3.84375q0.78125 -1.671875 2.203125 -2.5625q1.4375 -0.890625 3.34375 -0.890625q2.625 0 4.21875 1.40625q1.609375 1.40625 1.859375 3.953125l-3.125 0q-0.109375 -1.46875 -0.8125 -2.125q-0.703125 -0.671875 -2.140625 -0.671875q-1.5625 0 -2.34375 1.125q-0.78125 1.109375 -0.796875 3.46875l0 1.1406403q0 2.46875 0.734375 3.609375q0.75 1.125 2.359375 1.125q1.453125 0 2.15625 -0.65625q0.71875 -0.671875 0.828125 -2.046875l3.109375 0z" fill-rule="nonzero"/><path fill="#d9ead3" d="m531.40155 196.61023l170.6142 0l0 39.93701l-170.6142 0z" fill-rule="evenodd"/><path stroke="#000000" stroke-width="2.0" stroke-linejoin="round" stroke-linecap="butt" d="m531.40155 196.61023l170.6142 0l0 39.93701l-170.6142 0z" fill-rule="evenodd"/><path fill="#38761d" d="m611.2624 224.05875l0 -15.15625l5.3125 0q2.75 0 4.171875 1.0625q1.4375 1.046875 1.4375 3.09375q0 1.109375 -0.578125 1.953125q-0.578125 0.84375 -1.59375 1.25q1.171875 0.28125 1.84375 1.171875q0.671875 0.890625 0.671875 2.171875q0 2.1875 -1.40625 3.3125q-1.390625 1.125 -3.96875 1.140625l-5.890625 0zm3.125 -6.609375l0 4.09375l2.671875 0q1.109375 0 1.71875 -0.515625q0.625 -0.53125 0.625 -1.453125q0 -2.09375 -2.15625 -2.125l-2.859375 0zm0 -2.203125l2.3125 0q2.359375 -0.046875 2.359375 -1.875q0 -1.03125 -0.609375 -1.484375q-0.59375 -0.453125 -1.875 -0.453125l-2.1875 0l0 3.8125z" fill-rule="nonzero"/><path fill="#c9daf8" d="m531.40155 156.67323l170.6142 0l0 39.936996l-170.6142 0z" fill-rule="evenodd"/><path stroke="#000000" stroke-width="2.0" stroke-linejoin="round" stroke-linecap="butt" d="m531.40155 156.67323l170.6142 0l0 39.936996l-170.6142 0z" fill-rule="evenodd"/><path fill="#1155cc" d="m622.9812 179.07486q-0.171875 2.4375 -1.796875 3.84375q-1.625 1.40625 -4.296875 1.40625q-2.921875 0 -4.59375 -1.953125q-1.671875 -1.96875 -1.671875 -5.390625l0 -0.9375q0 -2.1875 0.765625 -3.84375q0.78125 -1.671875 2.203125 -2.5625q1.4375 -0.890625 3.34375 -0.890625q2.625 0 4.21875 1.40625q1.609375 1.40625 1.859375 3.953125l-3.125 0q-0.109375 -1.46875 -0.8125 -2.125q-0.703125 -0.671875 -2.140625 -0.671875q-1.5625 0 -2.34375 1.125q-0.78125 1.109375 -0.796875 3.46875l0 1.140625q0 2.46875 0.734375 3.609375q0.75 1.125 2.359375 1.125q1.453125 0 2.15625 -0.65625q0.71875 -0.671875 0.828125 -2.046875l3.109375 0z" fill-rule="nonzero"/><path fill="#d9ead3" d="m531.40155 116.73622l170.6142 0l0 39.93701l-170.6142 0z" fill-rule="evenodd"/><path stroke="#000000" stroke-width="2.0" stroke-linejoin="round" stroke-linecap="butt" d="m531.40155 116.73622l170.6142 0l0 39.93701l-170.6142 0z" fill-rule="evenodd"/><path fill="#38761d" d="m611.2624 144.18472l0 -15.15625l5.3125 0q2.75 0 4.171875 1.0625q1.4375 1.046875 1.4375 3.09375q0 1.109375 -0.578125 1.953125q-0.578125 0.84375 -1.59375 1.25q1.171875 0.28125 1.84375 1.171875q0.671875 0.890625 0.671875 2.171875q0 2.1875 -1.40625 3.3125q-1.390625 1.125 -3.96875 1.140625l-5.890625 0zm3.125 -6.609375l0 4.09375l2.671875 0q1.109375 0 1.71875 -0.515625q0.625 -0.53125 0.625 -1.453125q0 -2.09375 -2.15625 -2.125l-2.859375 0zm0 -2.203125l2.3125 0q2.359375 -0.046875 2.359375 -1.875q0 -1.03125 -0.609375 -1.484375q-0.59375 -0.453125 -1.875 -0.453125l-2.1875 0l0 3.8125z" fill-rule="nonzero"/><path fill="#000000" fill-opacity="0.0" d="m272.00262 265.43307l98.99213 0l0 50.992126l-98.99213 0z" fill-rule="evenodd"/><path fill="#000000" d="m286.5221 286.78165l0.046875 1.40625q1.40625 -1.640625 3.765625 -1.640625q2.65625 0 3.625 2.046875q0.625 -0.921875 1.640625 -1.484375q1.015625 -0.5625 2.40625 -0.5625q4.171875 0 4.234375 4.421875l0 8.5l-2.171875 0l0 -8.375q0 -1.359375 -0.625 -2.03125q-0.609375 -0.671875 -2.078125 -0.671875q-1.203125 0 -2.0 0.71875q-0.796875 0.71875 -0.921875 1.9375l0 8.421875l-2.1875 0l0 -8.3125q0 -2.765625 -2.703125 -2.765625q-2.140625 0 -2.921875 1.8125l0 9.265625l-2.171875 0l0 -12.6875l2.0625 0zm24.253906 12.921875q-2.578125 0 -4.203125 -1.6875q-1.609375 -1.703125 -1.609375 -4.53125l0 -0.40625q0 -1.890625 0.71875 -3.359375q0.71875 -1.484375 2.015625 -2.328125q1.296875 -0.84375 2.8125 -0.84375q2.46875 0 3.828125 1.640625q1.375 1.625 1.375 4.65625l0 0.90625l-8.578125 0q0.046875 1.875 1.09375 3.03125q1.046875 1.15625 2.65625 1.15625q1.15625 0 1.953125 -0.46875q0.796875 -0.46875 1.390625 -1.25l1.328125 1.03125q-1.59375 2.453125 -4.78125 2.453125zm-0.265625 -11.375q-1.3125 0 -2.203125 0.96875q-0.890625 0.953125 -1.109375 2.671875l6.359375 0l0 -0.171875q-0.09375 -1.640625 -0.890625 -2.546875q-0.796875 -0.921875 -2.15625 -0.921875zm15.542969 11.140625q-0.1875 -0.375 -0.296875 -1.34375q-1.515625 1.578125 -3.609375 1.578125q-1.875 0 -3.078125 -1.0625q-1.203125 -1.0625 -1.203125 -2.6875q0 -1.984375 1.5 -3.078125q1.515625 -1.09375 4.234375 -1.09375l2.109375 0l0 -1.0q0 -1.140625 -0.6875 -1.8125q-0.671875 -0.671875 -1.984375 -0.671875q-1.171875 0 -1.953125 0.59375q-0.78125 0.578125 -0.78125 1.40625l-2.1875 0q0 -0.9375 0.671875 -1.828125q0.6875 -0.890625 1.828125 -1.40625q1.15625 -0.515625 2.546875 -0.515625q2.1875 0 3.421875 1.109375q1.25 1.09375 1.296875 3.015625l0 5.828125q0 1.75 0.453125 2.78125l0 0.1875l-2.28125 0zm-3.59375 -1.65625q1.015625 0 1.921875 -0.515625q0.921875 -0.53125 1.328125 -1.375l0 -2.609375l-1.6875 0q-3.984375 0 -3.984375 2.328125q0 1.03125 0.671875 1.609375q0.6875 0.5625 1.75 0.5625zm10.8671875 -11.03125l0.078125 1.59375q1.453125 -1.828125 3.796875 -1.828125q4.015625 0 4.046875 4.546875l0 8.375l-2.15625 0l0 -8.390625q-0.015625 -1.375 -0.640625 -2.03125q-0.609375 -0.65625 -1.90625 -0.65625q-1.0625 0 -1.859375 0.5625q-0.796875 0.5625 -1.234375 1.484375l0 9.03125l-2.171875 0l0 -12.6875l2.046875 0zm27.058594 3.140625l-9.78125 0l0 -1.875l9.78125 0l0 1.875zm0 4.875l-9.78125 0l0 -1.875l9.78125 0l0 1.875z" fill-rule="nonzero"/><path fill="#000000" fill-opacity="0.0" d="m363.00262 265.43307l77.38583 0l0 50.992126l-77.38583 0z" fill-rule="evenodd"/><path fill="#000000" d="m384.12762 292.1879q0 3.8125 -1.3125 5.671875q-1.296875 1.84375 -4.0625 1.84375q-2.734375 0 -4.046875 -1.8125q-1.3125 -1.8125 -1.359375 -5.40625l0 -2.890625q0 -3.765625 1.296875 -5.59375q1.3125 -1.828125 4.09375 -1.828125q2.75 0 4.046875 1.765625q1.296875 1.765625 1.34375 5.4375l0 2.8125zm-2.171875 -2.96875q0 -2.75 -0.78125 -4.0q-0.765625 -1.265625 -2.4375 -1.265625q-1.671875 0 -2.4375 1.25q-0.75 1.25 -0.78125 3.859375l0 3.46875q0 2.765625 0.796875 4.09375q0.8125 1.3125 2.4375 1.3125q1.609375 0 2.390625 -1.234375q0.78125 -1.25 0.8125 -3.921875l0 -3.5625zm5.2109375 9.109375q0 -0.5625 0.328125 -0.9375q0.34375 -0.375 1.0 -0.375q0.671875 0 1.015625 0.375q0.359375 0.375 0.359375 0.9375q0 0.546875 -0.359375 0.90625q-0.34375 0.359375 -1.015625 0.359375q-0.65625 0 -1.0 -0.359375q-0.328125 -0.359375 -0.328125 -0.90625zm17.066406 -14.703125l-7.0625 15.84375l-2.28125 0l7.046875 -15.28125l-9.234375 0l0 -1.78125l11.53125 0l0 1.21875zm10.9609375 -1.234375l0 1.84375l-0.390625 0q-2.53125 0.046875 -4.03125 1.5q-1.5 1.453125 -1.734375 4.09375q1.34375 -1.546875 3.671875 -1.546875q2.234375 0 3.5625 1.578125q1.328125 1.5625 1.328125 4.046875q0 2.625 -1.4375 4.21875q-1.4375 1.578125 -3.84375 1.578125q-2.453125 0 -3.984375 -1.875q-1.515625 -1.890625 -1.515625 -4.859375l0 -0.828125q0 -4.703125 2.0 -7.1875q2.015625 -2.5 6.0 -2.5625l0.375 0zm-2.84375 7.6875q-1.109375 0 -2.046875 0.671875q-0.9375 0.671875 -1.296875 1.671875l0 0.796875q0 2.109375 0.9375 3.40625q0.953125 1.28125 2.375 1.28125q1.46875 0 2.296875 -1.078125q0.84375 -1.078125 0.84375 -2.828125q0 -1.75 -0.859375 -2.828125q-0.84375 -1.09375 -2.25 -1.09375z" fill-rule="nonzero"/><path fill="#000000" fill-opacity="0.0" d="m531.40155 316.42126l170.6142 0l0 39.93701l-170.6142 0z" fill-rule="evenodd"/><path stroke="#000000" stroke-width="2.0" stroke-linejoin="round" stroke-linecap="butt" d="m531.40155 316.42126l170.6142 0l0 39.93701l-170.6142 0z" fill-rule="evenodd"/><path fill="#000000" d="m598.1368 338.5885l-5.875 0l0 -2.421875l5.875 0l0 2.421875zm12.487549 -0.984375q0 3.140625 -1.296875 4.8125q-1.296875 1.65625 -3.8125 1.65625q-2.484375 0 -3.796875 -1.625q-1.3125 -1.640625 -1.34375 -4.6875l0 -2.796875q0 -3.171875 1.3125 -4.8125q1.328125 -1.65625 3.796875 -1.65625q2.484375 0 3.796875 1.640625q1.3125 1.625 1.34375 4.671875l0 2.796875zm-3.0 -3.0625q0 -1.890625 -0.515625 -2.75q-0.515625 -0.859375 -1.609375 -0.859375q-1.0625 0 -1.578125 0.828125q-0.5 0.8125 -0.53125 2.546875l0 3.6875q0 1.859375 0.5 2.765625q0.515625 0.890625 1.625 0.890625q1.109375 0 1.59375 -0.859375q0.484375 -0.875 0.515625 -2.65625l0 -3.59375zm5.3147583 7.84375q0 -0.71875 0.484375 -1.15625q0.484375 -0.453125 1.21875 -0.453125q0.734375 0 1.21875 0.453125q0.484375 0.4375 0.484375 1.15625q0 0.71875 -0.484375 1.15625q-0.46875 0.4375 -1.21875 0.4375q-0.75 0 -1.234375 -0.4375q-0.46875 -0.4375 -0.46875 -1.15625zm16.118286 -4.78125q0 3.140625 -1.296875 4.8125q-1.296875 1.65625 -3.8125 1.65625q-2.484375 0 -3.796875 -1.625q-1.3125 -1.640625 -1.34375 -4.6875l0 -2.796875q0 -3.171875 1.3125 -4.8125q1.328125 -1.65625 3.796875 -1.65625q2.484375 0 3.796875 1.640625q1.3125 1.625 1.34375 4.671875l0 2.796875zm-3.0 -3.0625q0 -1.890625 -0.515625 -2.75q-0.515625 -0.859375 -1.609375 -0.859375q-1.0625 0 -1.578125 0.828125q-0.5 0.8125 -0.53125 2.546875l0 3.6875q0 1.859375 0.5 2.765625q0.515625 0.890625 1.625 0.890625q1.109375 0 1.59375 -0.859375q0.484375 -0.875 0.515625 -2.65625l0 -3.59375zm8.095947 0.40625l1.609375 0q1.140625 0 1.6875 -0.5625q0.5625 -0.578125 0.5625 -1.515625q0 -0.921875 -0.546875 -1.421875q-0.546875 -0.515625 -1.515625 -0.515625q-0.859375 0 -1.453125 0.46875q-0.578125 0.46875 -0.578125 1.234375l-3.0 0q0 -1.1875 0.640625 -2.125q0.640625 -0.953125 1.78125 -1.484375q1.15625 -0.53125 2.546875 -0.53125q2.40625 0 3.765625 1.15625q1.359375 1.15625 1.359375 3.171875q0 1.03125 -0.640625 1.90625q-0.625 0.875 -1.65625 1.34375q1.28125 0.46875 1.90625 1.390625q0.625 0.90625 0.625 2.15625q0 2.015625 -1.46875 3.234375q-1.46875 1.21875 -3.890625 1.21875q-2.28125 0 -3.71875 -1.1875q-1.4375 -1.203125 -1.4375 -3.171875l3.0 0q0 0.859375 0.640625 1.40625q0.640625 0.53125 1.578125 0.53125q1.078125 0 1.6875 -0.5625q0.609375 -0.578125 0.609375 -1.515625q0 -2.265625 -2.5 -2.265625l-1.59375 0l0 -2.359375z" fill-rule="nonzero"/><path fill="#000000" fill-opacity="0.0" d="m531.40155 276.48425l170.6142 0l0 39.93701l-170.6142 0z" fill-rule="evenodd"/><path stroke="#000000" stroke-width="2.0" stroke-linejoin="round" stroke-linecap="butt" d="m531.40155 276.48425l170.6142 0l0 39.93701l-170.6142 0z" fill-rule="evenodd"/><path fill="#000000" d="m598.1368 298.65152l-5.875 0l0 -2.421875l5.875 0l0 2.421875zm12.487549 -0.984375q0 3.140625 -1.296875 4.8125q-1.296875 1.65625 -3.8125 1.65625q-2.484375 0 -3.796875 -1.625q-1.3125 -1.640625 -1.34375 -4.6875l0 -2.796875q0 -3.171875 1.3125 -4.8125q1.328125 -1.65625 3.796875 -1.65625q2.484375 0 3.796875 1.640625q1.3125 1.625 1.34375 4.671875l0 2.796875zm-3.0 -3.0625q0 -1.890625 -0.515625 -2.75q-0.515625 -0.859375 -1.609375 -0.859375q-1.0625 0 -1.578125 0.828125q-0.5 0.8125 -0.53125 2.546875l0 3.6875q0 1.859375 0.5 2.765625q0.515625 0.890625 1.625 0.890625q1.109375 0 1.59375 -0.859375q0.484375 -0.875 0.515625 -2.65625l0 -3.59375zm5.3147583 7.84375q0 -0.71875 0.484375 -1.15625q0.484375 -0.453125 1.21875 -0.453125q0.734375 0 1.21875 0.453125q0.484375 0.4375 0.484375 1.15625q0 0.71875 -0.484375 1.15625q-0.46875 0.4375 -1.21875 0.4375q-0.75 0 -1.234375 -0.4375q-0.46875 -0.4375 -0.46875 -1.15625zm16.118286 -4.78125q0 3.140625 -1.296875 4.8125q-1.296875 1.65625 -3.8125 1.65625q-2.484375 0 -3.796875 -1.625q-1.3125 -1.640625 -1.34375 -4.6875l0 -2.796875q0 -3.171875 1.3125 -4.8125q1.328125 -1.65625 3.796875 -1.65625q2.484375 0 3.796875 1.640625q1.3125 1.625 1.34375 4.671875l0 2.796875zm-3.0 -3.0625q0 -1.890625 -0.515625 -2.75q-0.515625 -0.859375 -1.609375 -0.859375q-1.0625 0 -1.578125 0.828125q-0.5 0.8125 -0.53125 2.546875l0 3.6875q0 1.859375 0.5 2.765625q0.515625 0.890625 1.625 0.890625q1.109375 0 1.59375 -0.859375q0.484375 -0.875 0.515625 -2.65625l0 -3.59375zm8.095947 0.40625l1.609375 0q1.140625 0 1.6875 -0.5625q0.5625 -0.578125 0.5625 -1.515625q0 -0.921875 -0.546875 -1.421875q-0.546875 -0.515625 -1.515625 -0.515625q-0.859375 0 -1.453125 0.46875q-0.578125 0.46875 -0.578125 1.234375l-3.0 0q0 -1.1875 0.640625 -2.125q0.640625 -0.953125 1.78125 -1.484375q1.15625 -0.53125 2.546875 -0.53125q2.40625 0 3.765625 1.15625q1.359375 1.15625 1.359375 3.171875q0 1.03125 -0.640625 1.90625q-0.625 0.875 -1.65625 1.34375q1.28125 0.46875 1.90625 1.390625q0.625 0.90625 0.625 2.15625q0 2.015625 -1.46875 3.234375q-1.46875 1.21875 -3.890625 1.21875q-2.28125 0 -3.71875 -1.1875q-1.4375 -1.203125 -1.4375 -3.171875l3.0 0q0 0.859375 0.640625 1.40625q0.640625 0.53125 1.578125 0.53125q1.078125 0 1.6875 -0.5625q0.609375 -0.578125 0.609375 -1.515625q0 -2.265625 -2.5 -2.265625l-1.59375 0l0 -2.359375z" fill-rule="nonzero"/><path fill="#000000" fill-opacity="0.0" d="m531.40155 76.79921l170.6142 0l0 39.93701l-170.6142 0z" fill-rule="evenodd"/><path stroke="#000000" stroke-width="2.0" stroke-linejoin="round" stroke-linecap="butt" d="m531.40155 76.79921l170.6142 0l0 39.93701l-170.6142 0z" fill-rule="evenodd"/><path fill="#000000" d="m598.1368 98.96647l-5.875 0l0 -2.421875l5.875 0l0 2.421875zm12.487549 -0.984375q0 3.140625 -1.296875 4.8125q-1.296875 1.65625 -3.8125 1.65625q-2.484375 0 -3.796875 -1.625q-1.3125 -1.640625 -1.34375 -4.6875l0 -2.796875q0 -3.171875 1.3125 -4.8125q1.328125 -1.65625 3.796875 -1.65625q2.484375 0 3.796875 1.640625q1.3125 1.625 1.34375 4.671875l0 2.796875zm-3.0 -3.0625q0 -1.890625 -0.515625 -2.75q-0.515625 -0.859375 -1.609375 -0.859375q-1.0625 0 -1.578125 0.828125q-0.5 0.8125 -0.53125 2.546875l0 3.6875q0 1.859375 0.5 2.765625q0.515625 0.890625 1.625 0.890625q1.109375 0 1.59375 -0.859375q0.484375 -0.875 0.515625 -2.65625l0 -3.59375zm5.3147583 7.84375q0 -0.71875 0.484375 -1.15625q0.484375 -0.453125 1.21875 -0.453125q0.734375 0 1.21875 0.453125q0.484375 0.4375 0.484375 1.15625q0 0.71875 -0.484375 1.15625q-0.46875 0.4375 -1.21875 0.4375q-0.75 0 -1.234375 -0.4375q-0.46875 -0.4375 -0.46875 -1.15625zm16.118286 -4.78125q0 3.140625 -1.296875 4.8125q-1.296875 1.65625 -3.8125 1.65625q-2.484375 0 -3.796875 -1.625q-1.3125 -1.640625 -1.34375 -4.6875l0 -2.796875q0 -3.171875 1.3125 -4.8125q1.328125 -1.65625 3.796875 -1.65625q2.484375 0 3.796875 1.640625q1.3125 1.625 1.34375 4.671875l0 2.796875zm-3.0 -3.0625q0 -1.890625 -0.515625 -2.75q-0.515625 -0.859375 -1.609375 -0.859375q-1.0625 0 -1.578125 0.828125q-0.5 0.8125 -0.53125 2.546875l0 3.6875q0 1.859375 0.5 2.765625q0.515625 0.890625 1.625 0.890625q1.109375 0 1.59375 -0.859375q0.484375 -0.875 0.515625 -2.65625l0 -3.59375zm8.095947 0.40625l1.609375 0q1.140625 0 1.6875 -0.5625q0.5625 -0.578125 0.5625 -1.515625q0 -0.921875 -0.546875 -1.421875q-0.546875 -0.515625 -1.515625 -0.515625q-0.859375 0 -1.453125 0.46875q-0.578125 0.46875 -0.578125 1.234375l-3.0 0q0 -1.1875 0.640625 -2.125q0.640625 -0.953125 1.78125 -1.484375q1.15625 -0.53125 2.546875 -0.53125q2.40625 0 3.765625 1.15625q1.359375 1.15625 1.359375 3.171875q0 1.03125 -0.640625 1.90625q-0.625 0.875 -1.65625 1.34375q1.28125 0.46875 1.90625 1.390625q0.625 0.90625 0.625 2.15625q0 2.015625 -1.46875 3.234375q-1.46875 1.21875 -3.890625 1.21875q-2.28125 0 -3.71875 -1.1875q-1.4375 -1.203125 -1.4375 -3.171875l3.0 0q0 0.859375 0.640625 1.40625q0.640625 0.53125 1.578125 0.53125q1.078125 0 1.6875 -0.5625q0.609375 -0.578125 0.609375 -1.515625q0 -2.265625 -2.5 -2.265625l-1.59375 0l0 -2.359375z" fill-rule="nonzero"/><path fill="#000000" fill-opacity="0.0" d="m531.40155 516.1063l170.6142 0l0 39.93701l-170.6142 0z" fill-rule="evenodd"/><path stroke="#000000" stroke-width="2.0" stroke-linejoin="round" stroke-linecap="butt" d="m531.40155 516.1063l170.6142 0l0 39.93701l-170.6142 0z" fill-rule="evenodd"/><path fill="#000000" d="m598.1368 538.27356l-5.875 0l0 -2.421875l5.875 0l0 2.421875zm12.487549 -0.984375q0 3.140625 -1.296875 4.8125q-1.296875 1.65625 -3.8125 1.65625q-2.484375 0 -3.796875 -1.625q-1.3125 -1.640625 -1.34375 -4.6875l0 -2.796875q0 -3.171875 1.3125 -4.8125q1.328125 -1.65625 3.796875 -1.65625q2.484375 0 3.796875 1.640625q1.3125 1.625 1.34375 4.671875l0 2.796875zm-3.0 -3.0625q0 -1.890625 -0.515625 -2.75q-0.515625 -0.859375 -1.609375 -0.859375q-1.0625 0 -1.578125 0.828125q-0.5 0.8125 -0.53125 2.546875l0 3.6875q0 1.859375 0.5 2.765625q0.515625 0.890625 1.625 0.890625q1.109375 0 1.59375 -0.859375q0.484375 -0.875 0.515625 -2.65625l0 -3.59375zm5.3147583 7.84375q0 -0.71875 0.484375 -1.15625q0.484375 -0.453125 1.21875 -0.453125q0.734375 0 1.21875 0.453125q0.484375 0.4375 0.484375 1.15625q0 0.71875 -0.484375 1.15625q-0.46875 0.4375 -1.21875 0.4375q-0.75 0 -1.234375 -0.4375q-0.46875 -0.4375 -0.46875 -1.15625zm16.118286 -4.78125q0 3.140625 -1.296875 4.8125q-1.296875 1.65625 -3.8125 1.65625q-2.484375 0 -3.796875 -1.625q-1.3125 -1.640625 -1.34375 -4.6875l0 -2.796875q0 -3.171875 1.3125 -4.8125q1.328125 -1.65625 3.796875 -1.65625q2.484375 0 3.796875 1.640625q1.3125 1.625 1.34375 4.671875l0 2.796875zm-3.0 -3.0625q0 -1.890625 -0.515625 -2.75q-0.515625 -0.859375 -1.609375 -0.859375q-1.0625 0 -1.578125 0.828125q-0.5 0.8125 -0.53125 2.546875l0 3.6875q0 1.859375 0.5 2.765625q0.515625 0.890625 1.625 0.890625q1.109375 0 1.59375 -0.859375q0.484375 -0.875 0.515625 -2.65625l0 -3.59375zm8.095947 0.40625l1.609375 0q1.140625 0 1.6875 -0.5625q0.5625 -0.578125 0.5625 -1.515625q0 -0.921875 -0.546875 -1.421875q-0.546875 -0.515625 -1.515625 -0.515625q-0.859375 0 -1.453125 0.46875q-0.578125 0.46875 -0.578125 1.234375l-3.0 0q0 -1.1875 0.640625 -2.125q0.640625 -0.953125 1.78125 -1.484375q1.15625 -0.53125 2.546875 -0.53125q2.40625 0 3.765625 1.15625q1.359375 1.15625 1.359375 3.171875q0 1.03125 -0.640625 1.90625q-0.625 0.875 -1.65625 1.34375q1.28125 0.46875 1.90625 1.390625q0.625 0.90625 0.625 2.15625q0 2.015625 -1.46875 3.234375q-1.46875 1.21875 -3.890625 1.21875q-2.28125 0 -3.71875 -1.1875q-1.4375 -1.203125 -1.4375 -3.171875l3.0 0q0 0.859375 0.640625 1.40625q0.640625 0.53125 1.578125 0.53125q1.078125 0 1.6875 -0.5625q0.609375 -0.578125 0.609375 -1.515625q0 -2.265625 -2.5 -2.265625l-1.59375 0l0 -2.359375z" fill-rule="nonzero"/></g></svg>