<svg height="364.8" viewBox="0 0 422.3 273.6" width="563.1" xmlns="http://www.w3.org/2000/svg" xmlns:xlink="http://www.w3.org/1999/xlink"><defs><style>*{stroke-linecap:butt;stroke-linejoin:round}</style></defs><g id="figure_1"><path d="M0 273.6h422.3V0H0z" fill="none" id="patch_1"/><g id="axes_1"><path d="M74.3 230.6h334.8V13.2H74.3z" fill="#eaeaf2" id="patch_2"/><g id="matplotlib.axis_1"><g id="xtick_1"><path clip-path="url(#p00a7e39774)" d="M108.7 230.6V13.2" fill="none" stroke="#fff" stroke-linecap="round" id="line2d_1"/><g id="text_1"><defs><path d="M10.6 35.5h62.6v-8.3H10.6z" id="DejaVuSans-8722"/><path d="M40.6 39.3q7-1.5 11-6.3t4-11.8q0-10.8-7.4-16.7-7.4-6-21.1-6-4.6 0-9.4 1-4.9.9-10 2.7v9.5q4-2.4 8.9-3.6Q21.5 7 26.8 7q9.3 0 14.1 3.6 4.9 3.7 4.9 10.7 0 6.4-4.5 10Q36.8 35 28.7 35h-8.5V43h9q7.2 0 11 3 3.9 2.8 3.9 8.3 0 5.6-4 8.6t-11.4 3q-4 0-8.7-.9-4.6-.8-10.2-2.7v8.8q5.6 1.6 10.5 2.3 5 .8 9.3.8 11.2 0 17.8-5 6.5-5.2 6.5-13.9 0-6-3.5-10.2-3.4-4.2-9.8-5.8z" id="DejaVuSans-51"/><path d="M31.8 66.4q-7.6 0-11.5-7.5-3.8-7.5-3.8-22.5t3.8-22.5q3.9-7.5 11.5-7.5 7.7 0 11.5 7.5T47 36.4q0 15-3.8 22.5t-11.5 7.5zm0 7.8q12.2 0 18.7-9.7T57 36.4Q57 18 50.5 8.3 44-1.4 31.8-1.4 19.5-1.4 13 8.3q-6.5 9.7-6.5 28 0 18.5 6.5 28.2 6.4 9.7 18.7 9.7z" id="DejaVuSans-48"/></defs><g transform="matrix(.11 0 0 -.11 97 248.5)" fill="#262626"><use xlink:href="#DejaVuSans-8722"/><use x="83.8" xlink:href="#DejaVuSans-51"/><use x="147.4" xlink:href="#DejaVuSans-48"/></g></g></g><g id="xtick_2"><path clip-path="url(#p00a7e39774)" d="M168.1 230.6V13.2" fill="none" stroke="#fff" stroke-linecap="round" id="line2d_2"/><g id="text_2"><defs><path d="M19.2 8.3h34.4V0H7.3v8.3l15.3 15.6q9.7 9.8 12.2 12.6 4.7 5.3 6.6 9 2 3.7 2 7.3 0 5.8-4.2 9.5-4 3.6-10.6 3.6-4.6 0-9.8-1.6-5.1-1.6-11-4.9v10q6 2.4 11.1 3.6 5.2 1.2 9.5 1.2 11.4 0 18-5.7 6.8-5.6 6.8-15 0-4.6-1.7-8.6-1.6-4-6-9.5l-7.9-8.2L19.2 8.3z" id="DejaVuSans-50"/></defs><g transform="matrix(.11 0 0 -.11 156.5 248.5)" fill="#262626"><use xlink:href="#DejaVuSans-8722"/><use x="83.8" xlink:href="#DejaVuSans-50"/><use x="147.4" xlink:href="#DejaVuSans-48"/></g></g></g><g id="xtick_3"><path clip-path="url(#p00a7e39774)" d="M227.6 230.6V13.2" fill="none" stroke="#fff" stroke-linecap="round" id="line2d_3"/><g id="text_3"><defs><path d="M12.4 8.3h16.1v55.6L11 60.4v9l17.4 3.5h9.9V8.3h16V0H12.5z" id="DejaVuSans-49"/></defs><g transform="matrix(.11 0 0 -.11 216 248.5)" fill="#262626"><use xlink:href="#DejaVuSans-8722"/><use x="83.8" xlink:href="#DejaVuSans-49"/><use x="147.4" xlink:href="#DejaVuSans-48"/></g></g></g><g id="xtick_4"><path clip-path="url(#p00a7e39774)" d="M287 230.6V13.2" fill="none" stroke="#fff" stroke-linecap="round" id="line2d_4"/><use xlink:href="#DejaVuSans-48" transform="matrix(.11 0 0 -.11 283.6 248.5)" fill="#262626" id="text_4"/></g><g id="xtick_5"><path clip-path="url(#p00a7e39774)" d="M346.5 230.6V13.2" fill="none" stroke="#fff" stroke-linecap="round" id="line2d_5"/><g transform="matrix(.11 0 0 -.11 339.5 248.5)" fill="#262626" id="text_5"><use xlink:href="#DejaVuSans-49"/><use x="63.6" xlink:href="#DejaVuSans-48"/></g></g><g id="xtick_6"><path clip-path="url(#p00a7e39774)" d="M406 230.6V13.2" fill="none" stroke="#fff" stroke-linecap="round" id="line2d_6"/><g transform="matrix(.11 0 0 -.11 399 248.5)" fill="#262626" id="text_6"><use xlink:href="#DejaVuSans-50"/><use x="63.6" xlink:href="#DejaVuSans-48"/></g></g><g id="text_7"><defs><path d="M18.3 70.2V54.7h18.5v-7H18.3V18q0-6.7 1.8-8.6 1.9-1.9 7.5-1.9h9.2V0h-9.2Q17.2 0 13.2 3.9T9.2 18v29.7H2.8v7h6.6v15.5z" id="DejaVuSans-116"/><path d="M34.3 27.5q-11 0-15.1-2.5-4.2-2.5-4.2-8.5 0-4.8 3.1-7.6 3.2-2.8 8.6-2.8 7.5 0 12 5.3t4.5 14v2zm17.9 3.7V0h-9v8.3q-3-5-7.7-7.3Q31-1.4 24.3-1.4 16-1.4 11 3.3 6 8 6 15.9q0 9.2 6.2 14 6.2 4.6 18.4 4.6h12.6v1q0 6.1-4 9.5-4.1 3.4-11.5 3.4-4.7 0-9.2-1.1-4.4-1.2-8.5-3.4v8.3q5 2 9.6 2.8 4.6 1 9 1 11.9 0 17.7-6.2 5.9-6.1 5.9-18.6z" id="DejaVuSans-97"/><path d="M41.1 46.3q-1.5.9-3.3 1.3-1.8.4-4 .4-7.5 0-11.6-5-4-5-4-14.2V0H9v54.7h9v-8.5q2.9 5 7.4 7.4Q30 56 36.5 56l2-.1 2.6-.4z" id="DejaVuSans-114"/><path d="M45.4 28q0 9.8-4 15.1-4 5.4-11.3 5.4-7.2 0-11.3-5.4-4-5.4-4-15.1t4-15.1q4-5.4 11.3-5.4 7.3 0 11.3 5.4 4 5.4 4 15zm9-21.2q0-14-6.2-20.8-6.2-6.8-19-6.8-4.7 0-9 .7-4.1.7-8 2.2v8.7q3.9-2.1 7.7-3.1 3.9-1 7.9-1 8.8 0 13.2 4.5 4.4 4.6 4.4 14v4.4q-2.8-4.8-7.1-7.2Q33.9 0 27.9 0q-10 0-16.2 7.7Q5.5 15.3 5.5 28q0 12.7 6.2 20.3Q17.8 56 27.9 56q6 0 10.4-2.4 4.3-2.4 7.1-7.2v8.3h9z" id="DejaVuSans-103"/><path d="M56.2 29.6v-4.4H14.9q.6-9.3 5.6-14.1 5-4.9 14-4.9 5 0 10 1.3 4.8 1.2 9.6 3.8V2.8q-4.8-2-10-3.1-5-1.1-10.2-1.1-13.1 0-20.7 7.6-7.7 7.6-7.7 20.6 0 13.4 7.3 21.3Q20 56 32.3 56q11 0 17.5-7.1 6.4-7.1 6.4-19.3zm-9 2.6q0 7.4-4.1 11.8-4 4.4-10.7 4.4-7.5 0-12-4.3-4.5-4.2-5.2-12z" id="DejaVuSans-101"/></defs><g transform="matrix(.12 0 0 -.12 223.4 263.9)" fill="#262626"><use xlink:href="#DejaVuSans-116"/><use x="39.2" xlink:href="#DejaVuSans-97"/><use x="100.5" xlink:href="#DejaVuSans-114"/><use x="141.6" xlink:href="#DejaVuSans-103"/><use x="205.1" xlink:href="#DejaVuSans-101"/><use x="266.6" xlink:href="#DejaVuSans-116"/></g></g></g><g id="matplotlib.axis_2"><g id="ytick_1"><path clip-path="url(#p00a7e39774)" d="M74.3 230.6h334.8" fill="none" stroke="#fff" stroke-linecap="round" id="line2d_7"/><use xlink:href="#DejaVuSans-48" transform="matrix(.11 0 0 -.11 57.8 234.8)" fill="#262626" id="text_8"/></g><g id="ytick_2"><path clip-path="url(#p00a7e39774)" d="M74.3 190.5h334.8" fill="none" stroke="#fff" stroke-linecap="round" id="line2d_8"/><g transform="matrix(.11 0 0 -.11 29.8 194.7)" fill="#262626" id="text_9"><use xlink:href="#DejaVuSans-50"/><use x="63.6" xlink:href="#DejaVuSans-48"/><use x="127.2" xlink:href="#DejaVuSans-48"/><use x="190.9" xlink:href="#DejaVuSans-48"/><use x="254.5" xlink:href="#DejaVuSans-48"/></g></g><g id="ytick_3"><path clip-path="url(#p00a7e39774)" d="M74.3 150.4h334.8" fill="none" stroke="#fff" stroke-linecap="round" id="line2d_9"/><g id="text_10"><defs><path d="M37.8 64.3l-25-39h25zM35.2 73h12.4V25.4H58v-8.2H47.6V0h-9.8v17.2h-33v9.5z" id="DejaVuSans-52"/></defs><g transform="matrix(.11 0 0 -.11 29.8 154.6)" fill="#262626"><use xlink:href="#DejaVuSans-52"/><use x="63.6" xlink:href="#DejaVuSans-48"/><use x="127.2" xlink:href="#DejaVuSans-48"/><use x="190.9" xlink:href="#DejaVuSans-48"/><use x="254.5" xlink:href="#DejaVuSans-48"/></g></g></g><g id="ytick_4"><path clip-path="url(#p00a7e39774)" d="M74.3 110.3h334.8" fill="none" stroke="#fff" stroke-linecap="round" id="line2d_10"/><g id="text_11"><defs><path d="M33 40.4q-6.6 0-10.5-4.6-3.9-4.5-3.9-12.4T22.5 11Q26.4 6.4 33 6.4q6.7 0 10.5 4.6 4 4.5 4 12.4t-4 12.4q-3.8 4.6-10.5 4.6zm19.6 30.9v-9Q48.9 64.1 45 65q-3.8 1-7.5 1-9.8 0-15-6.7-5-6.6-5.8-19.9 2.9 4.3 7.2 6.5 4.4 2.3 9.6 2.3 11 0 17.4-6.7 6.3-6.6 6.3-18.1 0-11.2-6.6-18Q44-1.4 33-1.4q-12.6 0-19.3 9.7Q7 18 7 36.3 7 53.8 15.2 64q8.2 10.3 22 10.3 3.7 0 7.5-.7 3.8-.8 7.9-2.2z" id="DejaVuSans-54"/></defs><g transform="matrix(.11 0 0 -.11 29.8 114.5)" fill="#262626"><use xlink:href="#DejaVuSans-54"/><use x="63.6" xlink:href="#DejaVuSans-48"/><use x="127.2" xlink:href="#DejaVuSans-48"/><use x="190.9" xlink:href="#DejaVuSans-48"/><use x="254.5" xlink:href="#DejaVuSans-48"/></g></g></g><g id="ytick_5"><path clip-path="url(#p00a7e39774)" d="M74.3 70.2h334.8" fill="none" stroke="#fff" stroke-linecap="round" id="line2d_11"/><g id="text_12"><defs><path d="M31.8 34.6q-7 0-11-3.7-4.1-3.8-4.1-10.4 0-6.6 4-10.3 4-3.8 11-3.8 7.1 0 11.2 3.8 4 3.8 4 10.3 0 6.6-4 10.4-4 3.7-11.1 3.7zm-9.9 4.2q-6.3 1.6-9.9 6Q8.5 49 8.5 55.2q0 8.8 6.2 13.8 6.3 5.1 17 5.1 11 0 17.2-5Q55 64 55 55.2q0-6.2-3.6-10.6-3.5-4.3-9.8-5.9 7.1-1.6 11.1-6.5 4-4.8 4-11.8 0-10.6-6.5-16.3-6.5-5.6-18.5-5.6T13.2 4.2Q6.8 10 6.8 20.5q0 7 4 11.8 4 4.9 11.1 6.5zm-3.6 15.6q0-5.7 3.5-8.8 3.6-3.2 10-3.2 6.3 0 10 3.2 3.5 3.1 3.5 8.8 0 5.7-3.6 8.8-3.6 3.2-10 3.2-6.3 0-9.9-3.2-3.5-3.1-3.5-8.8z" id="DejaVuSans-56"/></defs><g transform="matrix(.11 0 0 -.11 29.8 74.3)" fill="#262626"><use xlink:href="#DejaVuSans-56"/><use x="63.6" xlink:href="#DejaVuSans-48"/><use x="127.2" xlink:href="#DejaVuSans-48"/><use x="190.9" xlink:href="#DejaVuSans-48"/><use x="254.5" xlink:href="#DejaVuSans-48"/></g></g></g><g id="ytick_6"><path clip-path="url(#p00a7e39774)" d="M74.3 30h334.8" fill="none" stroke="#fff" stroke-linecap="round" id="line2d_12"/><g transform="matrix(.11 0 0 -.11 22.8 34.2)" fill="#262626" id="text_13"><use xlink:href="#DejaVuSans-49"/><use x="63.6" xlink:href="#DejaVuSans-48"/><use x="127.2" xlink:href="#DejaVuSans-48"/><use x="190.9" xlink:href="#DejaVuSans-48"/><use x="254.5" xlink:href="#DejaVuSans-48"/><use x="318.1" xlink:href="#DejaVuSans-48"/></g></g><g id="text_14"><defs><path d="M48.8 52.6v-8.4Q45 46.3 41 47.3q-3.8 1-7.7 1-8.7 0-13.6-5.5Q15 37.3 15 27.3t4.8-15.6q4.9-5.5 13.6-5.5 4 0 7.7 1 3.9 1.1 7.7 3.2V2.1Q45 .3 41-.5q-4-1-8.6-1-12.3 0-19.6 7.8-7.3 7.8-7.3 21 0 13.4 7.4 21Q20.2 56 33 56q4.2 0 8.1-.9 4-.8 7.7-2.5z" id="DejaVuSans-99"/><path d="M30.6 48.4q-7.2 0-11.4-5.6Q15 37 15 27.3t4.2-15.5q4.1-5.6 11.4-5.6 7.2 0 11.4 5.7 4.2 5.6 4.2 15.4 0 9.7-4.2 15.4-4.2 5.7-11.4 5.7zm0 7.6q11.7 0 18.4-7.6 6.7-7.6 6.7-21.1 0-13.4-6.7-21-6.7-7.7-18.4-7.7-11.8 0-18.4 7.6Q5.5 14 5.5 27.3q0 13.5 6.7 21Q18.8 56 30.6 56z" id="DejaVuSans-111"/><path d="M8.5 21.6v33h9V22q0-7.7 3-11.6 3-4 9-4 7.4 0 11.6 4.7 4.2 4.7 4.2 12.7v31h9V0h-9v8.4Q42 3.4 37.7 1q-4.3-2.4-10-2.4-9.4 0-14.3 5.8-4.9 5.9-4.9 17.2zM31.1 56z" id="DejaVuSans-117"/><path d="M54.9 33V0h-9v32.7q0 7.8-3 11.6-3 3.9-9.1 3.9-7.3 0-11.5-4.7Q18.1 39 18.1 31V0h-9v54.7h9v-8.5q3.2 5 7.6 7.4Q30.1 56 35.8 56q9.4 0 14.2-5.8Q55 44.3 55 33z" id="DejaVuSans-110"/></defs><g transform="matrix(0 -.12 -.12 0 16.3 138.8)" fill="#262626"><use xlink:href="#DejaVuSans-99"/><use x="55" xlink:href="#DejaVuSans-111"/><use x="116.2" xlink:href="#DejaVuSans-117"/><use x="179.5" xlink:href="#DejaVuSans-110"/><use x="242.9" xlink:href="#DejaVuSans-116"/></g></g></g><path clip-path="url(#p00a7e39774)" d="M89.5 230.6h10.2v-4.4H89.5z" fill="#4c72b0" stroke="#fff" id="patch_3"/><path clip-path="url(#p00a7e39774)" d="M99.7 230.6h10.1-10.1z" fill="#4c72b0" stroke="#fff" id="patch_4"/><path clip-path="url(#p00a7e39774)" d="M109.8 230.6H120h-10.2z" fill="#4c72b0" stroke="#fff" id="patch_5"/><path clip-path="url(#p00a7e39774)" d="M120 230.6H130 120z" fill="#4c72b0" stroke="#fff" id="patch_6"/><path clip-path="url(#p00a7e39774)" d="M130.1 230.6h10.2H130z" fill="#4c72b0" stroke="#fff" id="patch_7"/><path clip-path="url(#p00a7e39774)" d="M140.3 230.6h10.1-10.1z" fill="#4c72b0" stroke="#fff" id="patch_8"/><path clip-path="url(#p00a7e39774)" d="M150.4 230.6h10.1-10.1z" fill="#4c72b0" stroke="#fff" id="patch_9"/><path clip-path="url(#p00a7e39774)" d="M160.5 230.6h10.2-10.2z" fill="#4c72b0" stroke="#fff" id="patch_10"/><path clip-path="url(#p00a7e39774)" d="M170.7 230.6h10.1-10.1z" fill="#4c72b0" stroke="#fff" id="patch_11"/><path clip-path="url(#p00a7e39774)" d="M180.8 230.6H191h-10.2z" fill="#4c72b0" stroke="#fff" id="patch_12"/><path clip-path="url(#p00a7e39774)" d="M191 230.6H201 191z" fill="#4c72b0" stroke="#fff" id="patch_13"/><path clip-path="url(#p00a7e39774)" d="M201.1 230.6h10.2H201z" fill="#4c72b0" stroke="#fff" id="patch_14"/><path clip-path="url(#p00a7e39774)" d="M211.3 230.6h10.1-10.1z" fill="#4c72b0" stroke="#fff" id="patch_15"/><path clip-path="url(#p00a7e39774)" d="M221.4 230.6h10.2-10.2z" fill="#4c72b0" stroke="#fff" id="patch_16"/><path clip-path="url(#p00a7e39774)" d="M231.6 230.6h10.1v-.3h-10.1z" fill="#4c72b0" stroke="#fff" id="patch_17"/><path clip-path="url(#p00a7e39774)" d="M241.7 230.6H252v-1.2h-10.2z" fill="#4c72b0" stroke="#fff" id="patch_18"/><path clip-path="url(#p00a7e39774)" d="M251.9 230.6H262v-5h-10.1z" fill="#4c72b0" stroke="#fff" id="patch_19"/><path clip-path="url(#p00a7e39774)" d="M262 230.6h10.1v-18H262z" fill="#4c72b0" stroke="#fff" id="patch_20"/><path clip-path="url(#p00a7e39774)" d="M272.1 230.6h10.2v-78.9H272z" fill="#4c72b0" stroke="#fff" id="patch_21"/><path clip-path="url(#p00a7e39774)" d="M282.3 230.6h10.1v-207h-10.1z" fill="#4c72b0" stroke="#fff" id="patch_22"/><path clip-path="url(#p00a7e39774)" d="M292.4 230.6h10.2v-67.8h-10.2z" fill="#4c72b0" stroke="#fff" id="patch_23"/><path clip-path="url(#p00a7e39774)" d="M302.6 230.6h10.1v-15.9h-10.1z" fill="#4c72b0" stroke="#fff" id="patch_24"/><path clip-path="url(#p00a7e39774)" d="M312.7 230.6H323v-4.4h-10.2z" fill="#4c72b0" stroke="#fff" id="patch_25"/><path clip-path="url(#p00a7e39774)" d="M322.9 230.6H333v-1.1H323z" fill="#4c72b0" stroke="#fff" id="patch_26"/><path clip-path="url(#p00a7e39774)" d="M333 230.6h10.2v-.2H333z" fill="#4c72b0" stroke="#fff" id="patch_27"/><path clip-path="url(#p00a7e39774)" d="M343.2 230.6h10.1-10.1z" fill="#4c72b0" stroke="#fff" id="patch_28"/><path clip-path="url(#p00a7e39774)" d="M353.3 230.6h10.2-10.2z" fill="#4c72b0" stroke="#fff" id="patch_29"/><path clip-path="url(#p00a7e39774)" d="M363.5 230.6h10.1-10.1z" fill="#4c72b0" stroke="#fff" id="patch_30"/><path clip-path="url(#p00a7e39774)" d="M373.6 230.6h10.1-10.1z" fill="#4c72b0" stroke="#fff" id="patch_31"/><path clip-path="url(#p00a7e39774)" d="M383.7 230.6H394h-10.2z" fill="#4c72b0" stroke="#fff" id="patch_32"/><path d="M74.3 230.6V13.2" fill="none" stroke="#fff" stroke-linecap="square" stroke-width="1.3" id="patch_33"/><path d="M409.1 230.6V13.2" fill="none" stroke="#fff" stroke-linecap="square" stroke-width="1.3" id="patch_34"/><path d="M74.3 230.6h334.8" fill="none" stroke="#fff" stroke-linecap="square" stroke-width="1.3" id="patch_35"/><path d="M74.3 13.2h334.8" fill="none" stroke="#fff" stroke-linecap="square" stroke-width="1.3" id="patch_36"/></g></g><defs><clipPath id="p00a7e39774"><path d="M74.3 13.2h334.8v217.4H74.3z"/></clipPath></defs></svg>