<?xml version="1.0" encoding="utf-8" standalone="no"?>
<!DOCTYPE svg PUBLIC "-//W3C//DTD SVG 1.1//EN"
  "http://www.w3.org/Graphics/SVG/1.1/DTD/svg11.dtd">
<!-- Created with matplotlib (http://matplotlib.org/) -->
<svg height="273.933437pt" version="1.1" viewBox="0 0 399.67375 273.933437" width="399.67375pt" xmlns="http://www.w3.org/2000/svg" xmlns:xlink="http://www.w3.org/1999/xlink">
 <defs>
  <style type="text/css">
*{stroke-linecap:butt;stroke-linejoin:round;}
  </style>
 </defs>
 <g id="figure_1">
  <g id="patch_1">
   <path d="M 0 273.933437 
L 399.67375 273.933437 
L 399.67375 0 
L 0 0 
z
" style="fill:none;"/>
  </g>
  <g id="axes_1">
   <g id="patch_2">
    <path d="M 51.67375 230.64 
L 386.47375 230.64 
L 386.47375 13.2 
L 51.67375 13.2 
z
" style="fill:#eaeaf2;"/>
   </g>
   <g id="matplotlib.axis_1">
    <g id="xtick_1">
     <g id="line2d_1">
      <path clip-path="url(#p20c4d2994b)" d="M 66.891932 230.64 
L 66.891932 13.2 
" style="fill:none;stroke:#ffffff;stroke-linecap:round;"/>
     </g>
     <g id="text_1">
      <!-- $\mathdefault{10^{0}}$ -->
      <defs>
       <path d="M 12.40625 8.296875 
L 28.515625 8.296875 
L 28.515625 63.921875 
L 10.984375 60.40625 
L 10.984375 69.390625 
L 28.421875 72.90625 
L 38.28125 72.90625 
L 38.28125 8.296875 
L 54.390625 8.296875 
L 54.390625 0 
L 12.40625 0 
z
" id="DejaVuSans-31"/>
       <path d="M 31.78125 66.40625 
Q 24.171875 66.40625 20.328125 58.90625 
Q 16.5 51.421875 16.5 36.375 
Q 16.5 21.390625 20.328125 13.890625 
Q 24.171875 6.390625 31.78125 6.390625 
Q 39.453125 6.390625 43.28125 13.890625 
Q 47.125 21.390625 47.125 36.375 
Q 47.125 51.421875 43.28125 58.90625 
Q 39.453125 66.40625 31.78125 66.40625 
z
M 31.78125 74.21875 
Q 44.046875 74.21875 50.515625 64.515625 
Q 56.984375 54.828125 56.984375 36.375 
Q 56.984375 17.96875 50.515625 8.265625 
Q 44.046875 -1.421875 31.78125 -1.421875 
Q 19.53125 -1.421875 13.0625 8.265625 
Q 6.59375 17.96875 6.59375 36.375 
Q 6.59375 54.828125 13.0625 64.515625 
Q 19.53125 74.21875 31.78125 74.21875 
z
" id="DejaVuSans-30"/>
      </defs>
      <g style="fill:#262626;" transform="translate(57.211932 248.498281)scale(0.11 -0.11)">
       <use transform="translate(0 0.765625)" xlink:href="#DejaVuSans-31"/>
       <use transform="translate(63.623047 0.765625)" xlink:href="#DejaVuSans-30"/>
       <use transform="translate(128.203125 39.046875)scale(0.7)" xlink:href="#DejaVuSans-30"/>
      </g>
     </g>
    </g>
    <g id="xtick_2">
     <g id="line2d_2">
      <path clip-path="url(#p20c4d2994b)" d="M 111.79049 230.64 
L 111.79049 13.2 
" style="fill:none;stroke:#ffffff;stroke-linecap:round;"/>
     </g>
     <g id="text_2">
      <!-- $\mathdefault{10^{1}}$ -->
      <g style="fill:#262626;" transform="translate(102.11049 248.498281)scale(0.11 -0.11)">
       <use transform="translate(0 0.684375)" xlink:href="#DejaVuSans-31"/>
       <use transform="translate(63.623047 0.684375)" xlink:href="#DejaVuSans-30"/>
       <use transform="translate(128.203125 38.965625)scale(0.7)" xlink:href="#DejaVuSans-31"/>
      </g>
     </g>
    </g>
    <g id="xtick_3">
     <g id="line2d_3">
      <path clip-path="url(#p20c4d2994b)" d="M 156.689047 230.64 
L 156.689047 13.2 
" style="fill:none;stroke:#ffffff;stroke-linecap:round;"/>
     </g>
     <g id="text_3">
      <!-- $\mathdefault{10^{2}}$ -->
      <defs>
       <path d="M 19.1875 8.296875 
L 53.609375 8.296875 
L 53.609375 0 
L 7.328125 0 
L 7.328125 8.296875 
Q 12.9375 14.109375 22.625 23.890625 
Q 32.328125 33.6875 34.8125 36.53125 
Q 39.546875 41.84375 41.421875 45.53125 
Q 43.3125 49.21875 43.3125 52.78125 
Q 43.3125 58.59375 39.234375 62.25 
Q 35.15625 65.921875 28.609375 65.921875 
Q 23.96875 65.921875 18.8125 64.3125 
Q 13.671875 62.703125 7.8125 59.421875 
L 7.8125 69.390625 
Q 13.765625 71.78125 18.9375 73 
Q 24.125 74.21875 28.421875 74.21875 
Q 39.75 74.21875 46.484375 68.546875 
Q 53.21875 62.890625 53.21875 53.421875 
Q 53.21875 48.921875 51.53125 44.890625 
Q 49.859375 40.875 45.40625 35.40625 
Q 44.1875 33.984375 37.640625 27.21875 
Q 31.109375 20.453125 19.1875 8.296875 
z
" id="DejaVuSans-32"/>
      </defs>
      <g style="fill:#262626;" transform="translate(147.009047 248.498281)scale(0.11 -0.11)">
       <use transform="translate(0 0.765625)" xlink:href="#DejaVuSans-31"/>
       <use transform="translate(63.623047 0.765625)" xlink:href="#DejaVuSans-30"/>
       <use transform="translate(128.203125 39.046875)scale(0.7)" xlink:href="#DejaVuSans-32"/>
      </g>
     </g>
    </g>
    <g id="xtick_4">
     <g id="line2d_4">
      <path clip-path="url(#p20c4d2994b)" d="M 201.587605 230.64 
L 201.587605 13.2 
" style="fill:none;stroke:#ffffff;stroke-linecap:round;"/>
     </g>
     <g id="text_4">
      <!-- $\mathdefault{10^{3}}$ -->
      <defs>
       <path d="M 40.578125 39.3125 
Q 47.65625 37.796875 51.625 33 
Q 55.609375 28.21875 55.609375 21.1875 
Q 55.609375 10.40625 48.1875 4.484375 
Q 40.765625 -1.421875 27.09375 -1.421875 
Q 22.515625 -1.421875 17.65625 -0.515625 
Q 12.796875 0.390625 7.625 2.203125 
L 7.625 11.71875 
Q 11.71875 9.328125 16.59375 8.109375 
Q 21.484375 6.890625 26.8125 6.890625 
Q 36.078125 6.890625 40.9375 10.546875 
Q 45.796875 14.203125 45.796875 21.1875 
Q 45.796875 27.640625 41.28125 31.265625 
Q 36.765625 34.90625 28.71875 34.90625 
L 20.21875 34.90625 
L 20.21875 43.015625 
L 29.109375 43.015625 
Q 36.375 43.015625 40.234375 45.921875 
Q 44.09375 48.828125 44.09375 54.296875 
Q 44.09375 59.90625 40.109375 62.90625 
Q 36.140625 65.921875 28.71875 65.921875 
Q 24.65625 65.921875 20.015625 65.03125 
Q 15.375 64.15625 9.8125 62.3125 
L 9.8125 71.09375 
Q 15.4375 72.65625 20.34375 73.4375 
Q 25.25 74.21875 29.59375 74.21875 
Q 40.828125 74.21875 47.359375 69.109375 
Q 53.90625 64.015625 53.90625 55.328125 
Q 53.90625 49.265625 50.4375 45.09375 
Q 46.96875 40.921875 40.578125 39.3125 
z
" id="DejaVuSans-33"/>
      </defs>
      <g style="fill:#262626;" transform="translate(191.907605 248.498281)scale(0.11 -0.11)">
       <use transform="translate(0 0.765625)" xlink:href="#DejaVuSans-31"/>
       <use transform="translate(63.623047 0.765625)" xlink:href="#DejaVuSans-30"/>
       <use transform="translate(128.203125 39.046875)scale(0.7)" xlink:href="#DejaVuSans-33"/>
      </g>
     </g>
    </g>
    <g id="xtick_5">
     <g id="line2d_5">
      <path clip-path="url(#p20c4d2994b)" d="M 246.486163 230.64 
L 246.486163 13.2 
" style="fill:none;stroke:#ffffff;stroke-linecap:round;"/>
     </g>
     <g id="text_5">
      <!-- $\mathdefault{10^{4}}$ -->
      <defs>
       <path d="M 37.796875 64.3125 
L 12.890625 25.390625 
L 37.796875 25.390625 
z
M 35.203125 72.90625 
L 47.609375 72.90625 
L 47.609375 25.390625 
L 58.015625 25.390625 
L 58.015625 17.1875 
L 47.609375 17.1875 
L 47.609375 0 
L 37.796875 0 
L 37.796875 17.1875 
L 4.890625 17.1875 
L 4.890625 26.703125 
z
" id="DejaVuSans-34"/>
      </defs>
      <g style="fill:#262626;" transform="translate(236.806163 248.498281)scale(0.11 -0.11)">
       <use transform="translate(0 0.684375)" xlink:href="#DejaVuSans-31"/>
       <use transform="translate(63.623047 0.684375)" xlink:href="#DejaVuSans-30"/>
       <use transform="translate(128.203125 38.965625)scale(0.7)" xlink:href="#DejaVuSans-34"/>
      </g>
     </g>
    </g>
    <g id="xtick_6">
     <g id="line2d_6">
      <path clip-path="url(#p20c4d2994b)" d="M 291.38472 230.64 
L 291.38472 13.2 
" style="fill:none;stroke:#ffffff;stroke-linecap:round;"/>
     </g>
     <g id="text_6">
      <!-- $\mathdefault{10^{5}}$ -->
      <defs>
       <path d="M 10.796875 72.90625 
L 49.515625 72.90625 
L 49.515625 64.59375 
L 19.828125 64.59375 
L 19.828125 46.734375 
Q 21.96875 47.46875 24.109375 47.828125 
Q 26.265625 48.1875 28.421875 48.1875 
Q 40.625 48.1875 47.75 41.5 
Q 54.890625 34.8125 54.890625 23.390625 
Q 54.890625 11.625 47.5625 5.09375 
Q 40.234375 -1.421875 26.90625 -1.421875 
Q 22.3125 -1.421875 17.546875 -0.640625 
Q 12.796875 0.140625 7.71875 1.703125 
L 7.71875 11.625 
Q 12.109375 9.234375 16.796875 8.0625 
Q 21.484375 6.890625 26.703125 6.890625 
Q 35.15625 6.890625 40.078125 11.328125 
Q 45.015625 15.765625 45.015625 23.390625 
Q 45.015625 31 40.078125 35.4375 
Q 35.15625 39.890625 26.703125 39.890625 
Q 22.75 39.890625 18.8125 39.015625 
Q 14.890625 38.140625 10.796875 36.28125 
z
" id="DejaVuSans-35"/>
      </defs>
      <g style="fill:#262626;" transform="translate(281.70472 248.498281)scale(0.11 -0.11)">
       <use transform="translate(0 0.684375)" xlink:href="#DejaVuSans-31"/>
       <use transform="translate(63.623047 0.684375)" xlink:href="#DejaVuSans-30"/>
       <use transform="translate(128.203125 38.965625)scale(0.7)" xlink:href="#DejaVuSans-35"/>
      </g>
     </g>
    </g>
    <g id="xtick_7">
     <g id="line2d_7">
      <path clip-path="url(#p20c4d2994b)" d="M 336.283278 230.64 
L 336.283278 13.2 
" style="fill:none;stroke:#ffffff;stroke-linecap:round;"/>
     </g>
     <g id="text_7">
      <!-- $\mathdefault{10^{6}}$ -->
      <defs>
       <path d="M 33.015625 40.375 
Q 26.375 40.375 22.484375 35.828125 
Q 18.609375 31.296875 18.609375 23.390625 
Q 18.609375 15.53125 22.484375 10.953125 
Q 26.375 6.390625 33.015625 6.390625 
Q 39.65625 6.390625 43.53125 10.953125 
Q 47.40625 15.53125 47.40625 23.390625 
Q 47.40625 31.296875 43.53125 35.828125 
Q 39.65625 40.375 33.015625 40.375 
z
M 52.59375 71.296875 
L 52.59375 62.3125 
Q 48.875 64.0625 45.09375 64.984375 
Q 41.3125 65.921875 37.59375 65.921875 
Q 27.828125 65.921875 22.671875 59.328125 
Q 17.53125 52.734375 16.796875 39.40625 
Q 19.671875 43.65625 24.015625 45.921875 
Q 28.375 48.1875 33.59375 48.1875 
Q 44.578125 48.1875 50.953125 41.515625 
Q 57.328125 34.859375 57.328125 23.390625 
Q 57.328125 12.15625 50.6875 5.359375 
Q 44.046875 -1.421875 33.015625 -1.421875 
Q 20.359375 -1.421875 13.671875 8.265625 
Q 6.984375 17.96875 6.984375 36.375 
Q 6.984375 53.65625 15.1875 63.9375 
Q 23.390625 74.21875 37.203125 74.21875 
Q 40.921875 74.21875 44.703125 73.484375 
Q 48.484375 72.75 52.59375 71.296875 
z
" id="DejaVuSans-36"/>
      </defs>
      <g style="fill:#262626;" transform="translate(326.603278 248.498281)scale(0.11 -0.11)">
       <use transform="translate(0 0.765625)" xlink:href="#DejaVuSans-31"/>
       <use transform="translate(63.623047 0.765625)" xlink:href="#DejaVuSans-30"/>
       <use transform="translate(128.203125 39.046875)scale(0.7)" xlink:href="#DejaVuSans-36"/>
      </g>
     </g>
    </g>
    <g id="xtick_8">
     <g id="line2d_8">
      <path clip-path="url(#p20c4d2994b)" d="M 381.181836 230.64 
L 381.181836 13.2 
" style="fill:none;stroke:#ffffff;stroke-linecap:round;"/>
     </g>
     <g id="text_8">
      <!-- $\mathdefault{10^{7}}$ -->
      <defs>
       <path d="M 8.203125 72.90625 
L 55.078125 72.90625 
L 55.078125 68.703125 
L 28.609375 0 
L 18.3125 0 
L 43.21875 64.59375 
L 8.203125 64.59375 
z
" id="DejaVuSans-37"/>
      </defs>
      <g style="fill:#262626;" transform="translate(371.501836 248.498281)scale(0.11 -0.11)">
       <use transform="translate(0 0.684375)" xlink:href="#DejaVuSans-31"/>
       <use transform="translate(63.623047 0.684375)" xlink:href="#DejaVuSans-30"/>
       <use transform="translate(128.203125 38.965625)scale(0.7)" xlink:href="#DejaVuSans-37"/>
      </g>
     </g>
    </g>
    <g id="xtick_9"/>
    <g id="xtick_10"/>
    <g id="xtick_11"/>
    <g id="xtick_12"/>
    <g id="xtick_13"/>
    <g id="xtick_14"/>
    <g id="xtick_15"/>
    <g id="xtick_16"/>
    <g id="xtick_17"/>
    <g id="xtick_18"/>
    <g id="xtick_19"/>
    <g id="xtick_20"/>
    <g id="xtick_21"/>
    <g id="xtick_22"/>
    <g id="xtick_23"/>
    <g id="xtick_24"/>
    <g id="xtick_25"/>
    <g id="xtick_26"/>
    <g id="xtick_27"/>
    <g id="xtick_28"/>
    <g id="xtick_29"/>
    <g id="xtick_30"/>
    <g id="xtick_31"/>
    <g id="xtick_32"/>
    <g id="xtick_33"/>
    <g id="xtick_34"/>
    <g id="xtick_35"/>
    <g id="xtick_36"/>
    <g id="xtick_37"/>
    <g id="xtick_38"/>
    <g id="xtick_39"/>
    <g id="xtick_40"/>
    <g id="xtick_41"/>
    <g id="xtick_42"/>
    <g id="xtick_43"/>
    <g id="xtick_44"/>
    <g id="xtick_45"/>
    <g id="xtick_46"/>
    <g id="xtick_47"/>
    <g id="xtick_48"/>
    <g id="xtick_49"/>
    <g id="xtick_50"/>
    <g id="xtick_51"/>
    <g id="xtick_52"/>
    <g id="xtick_53"/>
    <g id="xtick_54"/>
    <g id="xtick_55"/>
    <g id="xtick_56"/>
    <g id="xtick_57"/>
    <g id="xtick_58"/>
    <g id="xtick_59"/>
    <g id="xtick_60"/>
    <g id="xtick_61"/>
    <g id="xtick_62"/>
    <g id="xtick_63"/>
    <g id="xtick_64"/>
    <g id="xtick_65"/>
    <g id="xtick_66"/>
    <g id="xtick_67"/>
    <g id="xtick_68"/>
    <g id="xtick_69"/>
    <g id="text_9">
     <!-- purchase_amount -->
     <defs>
      <path d="M 18.109375 8.203125 
L 18.109375 -20.796875 
L 9.078125 -20.796875 
L 9.078125 54.6875 
L 18.109375 54.6875 
L 18.109375 46.390625 
Q 20.953125 51.265625 25.265625 53.625 
Q 29.59375 56 35.59375 56 
Q 45.5625 56 51.78125 48.09375 
Q 58.015625 40.1875 58.015625 27.296875 
Q 58.015625 14.40625 51.78125 6.484375 
Q 45.5625 -1.421875 35.59375 -1.421875 
Q 29.59375 -1.421875 25.265625 0.953125 
Q 20.953125 3.328125 18.109375 8.203125 
z
M 48.6875 27.296875 
Q 48.6875 37.203125 44.609375 42.84375 
Q 40.53125 48.484375 33.40625 48.484375 
Q 26.265625 48.484375 22.1875 42.84375 
Q 18.109375 37.203125 18.109375 27.296875 
Q 18.109375 17.390625 22.1875 11.75 
Q 26.265625 6.109375 33.40625 6.109375 
Q 40.53125 6.109375 44.609375 11.75 
Q 48.6875 17.390625 48.6875 27.296875 
z
" id="DejaVuSans-70"/>
      <path d="M 8.5 21.578125 
L 8.5 54.6875 
L 17.484375 54.6875 
L 17.484375 21.921875 
Q 17.484375 14.15625 20.5 10.265625 
Q 23.53125 6.390625 29.59375 6.390625 
Q 36.859375 6.390625 41.078125 11.03125 
Q 45.3125 15.671875 45.3125 23.6875 
L 45.3125 54.6875 
L 54.296875 54.6875 
L 54.296875 0 
L 45.3125 0 
L 45.3125 8.40625 
Q 42.046875 3.421875 37.71875 1 
Q 33.40625 -1.421875 27.6875 -1.421875 
Q 18.265625 -1.421875 13.375 4.4375 
Q 8.5 10.296875 8.5 21.578125 
z
M 31.109375 56 
z
" id="DejaVuSans-75"/>
      <path d="M 41.109375 46.296875 
Q 39.59375 47.171875 37.8125 47.578125 
Q 36.03125 48 33.890625 48 
Q 26.265625 48 22.1875 43.046875 
Q 18.109375 38.09375 18.109375 28.8125 
L 18.109375 0 
L 9.078125 0 
L 9.078125 54.6875 
L 18.109375 54.6875 
L 18.109375 46.1875 
Q 20.953125 51.171875 25.484375 53.578125 
Q 30.03125 56 36.53125 56 
Q 37.453125 56 38.578125 55.875 
Q 39.703125 55.765625 41.0625 55.515625 
z
" id="DejaVuSans-72"/>
      <path d="M 48.78125 52.59375 
L 48.78125 44.1875 
Q 44.96875 46.296875 41.140625 47.34375 
Q 37.3125 48.390625 33.40625 48.390625 
Q 24.65625 48.390625 19.8125 42.84375 
Q 14.984375 37.3125 14.984375 27.296875 
Q 14.984375 17.28125 19.8125 11.734375 
Q 24.65625 6.203125 33.40625 6.203125 
Q 37.3125 6.203125 41.140625 7.25 
Q 44.96875 8.296875 48.78125 10.40625 
L 48.78125 2.09375 
Q 45.015625 0.34375 40.984375 -0.53125 
Q 36.96875 -1.421875 32.421875 -1.421875 
Q 20.0625 -1.421875 12.78125 6.34375 
Q 5.515625 14.109375 5.515625 27.296875 
Q 5.515625 40.671875 12.859375 48.328125 
Q 20.21875 56 33.015625 56 
Q 37.15625 56 41.109375 55.140625 
Q 45.0625 54.296875 48.78125 52.59375 
z
" id="DejaVuSans-63"/>
      <path d="M 54.890625 33.015625 
L 54.890625 0 
L 45.90625 0 
L 45.90625 32.71875 
Q 45.90625 40.484375 42.875 44.328125 
Q 39.84375 48.1875 33.796875 48.1875 
Q 26.515625 48.1875 22.3125 43.546875 
Q 18.109375 38.921875 18.109375 30.90625 
L 18.109375 0 
L 9.078125 0 
L 9.078125 75.984375 
L 18.109375 75.984375 
L 18.109375 46.1875 
Q 21.34375 51.125 25.703125 53.5625 
Q 30.078125 56 35.796875 56 
Q 45.21875 56 50.046875 50.171875 
Q 54.890625 44.34375 54.890625 33.015625 
z
" id="DejaVuSans-68"/>
      <path d="M 34.28125 27.484375 
Q 23.390625 27.484375 19.1875 25 
Q 14.984375 22.515625 14.984375 16.5 
Q 14.984375 11.71875 18.140625 8.90625 
Q 21.296875 6.109375 26.703125 6.109375 
Q 34.1875 6.109375 38.703125 11.40625 
Q 43.21875 16.703125 43.21875 25.484375 
L 43.21875 27.484375 
z
M 52.203125 31.203125 
L 52.203125 0 
L 43.21875 0 
L 43.21875 8.296875 
Q 40.140625 3.328125 35.546875 0.953125 
Q 30.953125 -1.421875 24.3125 -1.421875 
Q 15.921875 -1.421875 10.953125 3.296875 
Q 6 8.015625 6 15.921875 
Q 6 25.140625 12.171875 29.828125 
Q 18.359375 34.515625 30.609375 34.515625 
L 43.21875 34.515625 
L 43.21875 35.40625 
Q 43.21875 41.609375 39.140625 45 
Q 35.0625 48.390625 27.6875 48.390625 
Q 23 48.390625 18.546875 47.265625 
Q 14.109375 46.140625 10.015625 43.890625 
L 10.015625 52.203125 
Q 14.9375 54.109375 19.578125 55.046875 
Q 24.21875 56 28.609375 56 
Q 40.484375 56 46.34375 49.84375 
Q 52.203125 43.703125 52.203125 31.203125 
z
" id="DejaVuSans-61"/>
      <path d="M 44.28125 53.078125 
L 44.28125 44.578125 
Q 40.484375 46.53125 36.375 47.5 
Q 32.28125 48.484375 27.875 48.484375 
Q 21.1875 48.484375 17.84375 46.4375 
Q 14.5 44.390625 14.5 40.28125 
Q 14.5 37.15625 16.890625 35.375 
Q 19.28125 33.59375 26.515625 31.984375 
L 29.59375 31.296875 
Q 39.15625 29.25 43.1875 25.515625 
Q 47.21875 21.78125 47.21875 15.09375 
Q 47.21875 7.46875 41.1875 3.015625 
Q 35.15625 -1.421875 24.609375 -1.421875 
Q 20.21875 -1.421875 15.453125 -0.5625 
Q 10.6875 0.296875 5.421875 2 
L 5.421875 11.28125 
Q 10.40625 8.6875 15.234375 7.390625 
Q 20.0625 6.109375 24.8125 6.109375 
Q 31.15625 6.109375 34.5625 8.28125 
Q 37.984375 10.453125 37.984375 14.40625 
Q 37.984375 18.0625 35.515625 20.015625 
Q 33.0625 21.96875 24.703125 23.78125 
L 21.578125 24.515625 
Q 13.234375 26.265625 9.515625 29.90625 
Q 5.8125 33.546875 5.8125 39.890625 
Q 5.8125 47.609375 11.28125 51.796875 
Q 16.75 56 26.8125 56 
Q 31.78125 56 36.171875 55.265625 
Q 40.578125 54.546875 44.28125 53.078125 
z
" id="DejaVuSans-73"/>
      <path d="M 56.203125 29.59375 
L 56.203125 25.203125 
L 14.890625 25.203125 
Q 15.484375 15.921875 20.484375 11.0625 
Q 25.484375 6.203125 34.421875 6.203125 
Q 39.59375 6.203125 44.453125 7.46875 
Q 49.3125 8.734375 54.109375 11.28125 
L 54.109375 2.78125 
Q 49.265625 0.734375 44.1875 -0.34375 
Q 39.109375 -1.421875 33.890625 -1.421875 
Q 20.796875 -1.421875 13.15625 6.1875 
Q 5.515625 13.8125 5.515625 26.8125 
Q 5.515625 40.234375 12.765625 48.109375 
Q 20.015625 56 32.328125 56 
Q 43.359375 56 49.78125 48.890625 
Q 56.203125 41.796875 56.203125 29.59375 
z
M 47.21875 32.234375 
Q 47.125 39.59375 43.09375 43.984375 
Q 39.0625 48.390625 32.421875 48.390625 
Q 24.90625 48.390625 20.390625 44.140625 
Q 15.875 39.890625 15.1875 32.171875 
z
" id="DejaVuSans-65"/>
      <path d="M 50.984375 -16.609375 
L 50.984375 -23.578125 
L -0.984375 -23.578125 
L -0.984375 -16.609375 
z
" id="DejaVuSans-5f"/>
      <path d="M 52 44.1875 
Q 55.375 50.25 60.0625 53.125 
Q 64.75 56 71.09375 56 
Q 79.640625 56 84.28125 50.015625 
Q 88.921875 44.046875 88.921875 33.015625 
L 88.921875 0 
L 79.890625 0 
L 79.890625 32.71875 
Q 79.890625 40.578125 77.09375 44.375 
Q 74.3125 48.1875 68.609375 48.1875 
Q 61.625 48.1875 57.5625 43.546875 
Q 53.515625 38.921875 53.515625 30.90625 
L 53.515625 0 
L 44.484375 0 
L 44.484375 32.71875 
Q 44.484375 40.625 41.703125 44.40625 
Q 38.921875 48.1875 33.109375 48.1875 
Q 26.21875 48.1875 22.15625 43.53125 
Q 18.109375 38.875 18.109375 30.90625 
L 18.109375 0 
L 9.078125 0 
L 9.078125 54.6875 
L 18.109375 54.6875 
L 18.109375 46.1875 
Q 21.1875 51.21875 25.484375 53.609375 
Q 29.78125 56 35.6875 56 
Q 41.65625 56 45.828125 52.96875 
Q 50 49.953125 52 44.1875 
z
" id="DejaVuSans-6d"/>
      <path d="M 30.609375 48.390625 
Q 23.390625 48.390625 19.1875 42.75 
Q 14.984375 37.109375 14.984375 27.296875 
Q 14.984375 17.484375 19.15625 11.84375 
Q 23.34375 6.203125 30.609375 6.203125 
Q 37.796875 6.203125 41.984375 11.859375 
Q 46.1875 17.53125 46.1875 27.296875 
Q 46.1875 37.015625 41.984375 42.703125 
Q 37.796875 48.390625 30.609375 48.390625 
z
M 30.609375 56 
Q 42.328125 56 49.015625 48.375 
Q 55.71875 40.765625 55.71875 27.296875 
Q 55.71875 13.875 49.015625 6.21875 
Q 42.328125 -1.421875 30.609375 -1.421875 
Q 18.84375 -1.421875 12.171875 6.21875 
Q 5.515625 13.875 5.515625 27.296875 
Q 5.515625 40.765625 12.171875 48.375 
Q 18.84375 56 30.609375 56 
z
" id="DejaVuSans-6f"/>
      <path d="M 54.890625 33.015625 
L 54.890625 0 
L 45.90625 0 
L 45.90625 32.71875 
Q 45.90625 40.484375 42.875 44.328125 
Q 39.84375 48.1875 33.796875 48.1875 
Q 26.515625 48.1875 22.3125 43.546875 
Q 18.109375 38.921875 18.109375 30.90625 
L 18.109375 0 
L 9.078125 0 
L 9.078125 54.6875 
L 18.109375 54.6875 
L 18.109375 46.1875 
Q 21.34375 51.125 25.703125 53.5625 
Q 30.078125 56 35.796875 56 
Q 45.21875 56 50.046875 50.171875 
Q 54.890625 44.34375 54.890625 33.015625 
z
" id="DejaVuSans-6e"/>
      <path d="M 18.3125 70.21875 
L 18.3125 54.6875 
L 36.8125 54.6875 
L 36.8125 47.703125 
L 18.3125 47.703125 
L 18.3125 18.015625 
Q 18.3125 11.328125 20.140625 9.421875 
Q 21.96875 7.515625 27.59375 7.515625 
L 36.8125 7.515625 
L 36.8125 0 
L 27.59375 0 
Q 17.1875 0 13.234375 3.875 
Q 9.28125 7.765625 9.28125 18.015625 
L 9.28125 47.703125 
L 2.6875 47.703125 
L 2.6875 54.6875 
L 9.28125 54.6875 
L 9.28125 70.21875 
z
" id="DejaVuSans-74"/>
     </defs>
     <g style="fill:#262626;" transform="translate(165.251875 263.904062)scale(0.12 -0.12)">
      <use xlink:href="#DejaVuSans-70"/>
      <use x="63.476562" xlink:href="#DejaVuSans-75"/>
      <use x="126.855469" xlink:href="#DejaVuSans-72"/>
      <use x="167.9375" xlink:href="#DejaVuSans-63"/>
      <use x="222.917969" xlink:href="#DejaVuSans-68"/>
      <use x="286.296875" xlink:href="#DejaVuSans-61"/>
      <use x="347.576172" xlink:href="#DejaVuSans-73"/>
      <use x="399.675781" xlink:href="#DejaVuSans-65"/>
      <use x="461.199219" xlink:href="#DejaVuSans-5f"/>
      <use x="511.199219" xlink:href="#DejaVuSans-61"/>
      <use x="572.478516" xlink:href="#DejaVuSans-6d"/>
      <use x="669.890625" xlink:href="#DejaVuSans-6f"/>
      <use x="731.072266" xlink:href="#DejaVuSans-75"/>
      <use x="794.451172" xlink:href="#DejaVuSans-6e"/>
      <use x="857.830078" xlink:href="#DejaVuSans-74"/>
     </g>
    </g>
   </g>
   <g id="matplotlib.axis_2">
    <g id="ytick_1">
     <g id="line2d_9">
      <path clip-path="url(#p20c4d2994b)" d="M 51.67375 220.756364 
L 386.47375 220.756364 
" style="fill:none;stroke:#ffffff;stroke-linecap:round;"/>
     </g>
     <g id="text_10">
      <!-- $\mathdefault{10^{0}}$ -->
      <g style="fill:#262626;" transform="translate(22.81375 224.935504)scale(0.11 -0.11)">
       <use transform="translate(0 0.765625)" xlink:href="#DejaVuSans-31"/>
       <use transform="translate(63.623047 0.765625)" xlink:href="#DejaVuSans-30"/>
       <use transform="translate(128.203125 39.046875)scale(0.7)" xlink:href="#DejaVuSans-30"/>
      </g>
     </g>
    </g>
    <g id="ytick_2">
     <g id="line2d_10">
      <path clip-path="url(#p20c4d2994b)" d="M 51.67375 194.269651 
L 386.47375 194.269651 
" style="fill:none;stroke:#ffffff;stroke-linecap:round;"/>
     </g>
     <g id="text_11">
      <!-- $\mathdefault{10^{1}}$ -->
      <g style="fill:#262626;" transform="translate(22.81375 198.448792)scale(0.11 -0.11)">
       <use transform="translate(0 0.684375)" xlink:href="#DejaVuSans-31"/>
       <use transform="translate(63.623047 0.684375)" xlink:href="#DejaVuSans-30"/>
       <use transform="translate(128.203125 38.965625)scale(0.7)" xlink:href="#DejaVuSans-31"/>
      </g>
     </g>
    </g>
    <g id="ytick_3">
     <g id="line2d_11">
      <path clip-path="url(#p20c4d2994b)" d="M 51.67375 167.782939 
L 386.47375 167.782939 
" style="fill:none;stroke:#ffffff;stroke-linecap:round;"/>
     </g>
     <g id="text_12">
      <!-- $\mathdefault{10^{2}}$ -->
      <g style="fill:#262626;" transform="translate(22.81375 171.96208)scale(0.11 -0.11)">
       <use transform="translate(0 0.765625)" xlink:href="#DejaVuSans-31"/>
       <use transform="translate(63.623047 0.765625)" xlink:href="#DejaVuSans-30"/>
       <use transform="translate(128.203125 39.046875)scale(0.7)" xlink:href="#DejaVuSans-32"/>
      </g>
     </g>
    </g>
    <g id="ytick_4">
     <g id="line2d_12">
      <path clip-path="url(#p20c4d2994b)" d="M 51.67375 141.296227 
L 386.47375 141.296227 
" style="fill:none;stroke:#ffffff;stroke-linecap:round;"/>
     </g>
     <g id="text_13">
      <!-- $\mathdefault{10^{3}}$ -->
      <g style="fill:#262626;" transform="translate(22.81375 145.475367)scale(0.11 -0.11)">
       <use transform="translate(0 0.765625)" xlink:href="#DejaVuSans-31"/>
       <use transform="translate(63.623047 0.765625)" xlink:href="#DejaVuSans-30"/>
       <use transform="translate(128.203125 39.046875)scale(0.7)" xlink:href="#DejaVuSans-33"/>
      </g>
     </g>
    </g>
    <g id="ytick_5">
     <g id="line2d_13">
      <path clip-path="url(#p20c4d2994b)" d="M 51.67375 114.809515 
L 386.47375 114.809515 
" style="fill:none;stroke:#ffffff;stroke-linecap:round;"/>
     </g>
     <g id="text_14">
      <!-- $\mathdefault{10^{4}}$ -->
      <g style="fill:#262626;" transform="translate(22.81375 118.988655)scale(0.11 -0.11)">
       <use transform="translate(0 0.684375)" xlink:href="#DejaVuSans-31"/>
       <use transform="translate(63.623047 0.684375)" xlink:href="#DejaVuSans-30"/>
       <use transform="translate(128.203125 38.965625)scale(0.7)" xlink:href="#DejaVuSans-34"/>
      </g>
     </g>
    </g>
    <g id="ytick_6">
     <g id="line2d_14">
      <path clip-path="url(#p20c4d2994b)" d="M 51.67375 88.322802 
L 386.47375 88.322802 
" style="fill:none;stroke:#ffffff;stroke-linecap:round;"/>
     </g>
     <g id="text_15">
      <!-- $\mathdefault{10^{5}}$ -->
      <g style="fill:#262626;" transform="translate(22.81375 92.501943)scale(0.11 -0.11)">
       <use transform="translate(0 0.684375)" xlink:href="#DejaVuSans-31"/>
       <use transform="translate(63.623047 0.684375)" xlink:href="#DejaVuSans-30"/>
       <use transform="translate(128.203125 38.965625)scale(0.7)" xlink:href="#DejaVuSans-35"/>
      </g>
     </g>
    </g>
    <g id="ytick_7">
     <g id="line2d_15">
      <path clip-path="url(#p20c4d2994b)" d="M 51.67375 61.83609 
L 386.47375 61.83609 
" style="fill:none;stroke:#ffffff;stroke-linecap:round;"/>
     </g>
     <g id="text_16">
      <!-- $\mathdefault{10^{6}}$ -->
      <g style="fill:#262626;" transform="translate(22.81375 66.015231)scale(0.11 -0.11)">
       <use transform="translate(0 0.765625)" xlink:href="#DejaVuSans-31"/>
       <use transform="translate(63.623047 0.765625)" xlink:href="#DejaVuSans-30"/>
       <use transform="translate(128.203125 39.046875)scale(0.7)" xlink:href="#DejaVuSans-36"/>
      </g>
     </g>
    </g>
    <g id="ytick_8">
     <g id="line2d_16">
      <path clip-path="url(#p20c4d2994b)" d="M 51.67375 35.349378 
L 386.47375 35.349378 
" style="fill:none;stroke:#ffffff;stroke-linecap:round;"/>
     </g>
     <g id="text_17">
      <!-- $\mathdefault{10^{7}}$ -->
      <g style="fill:#262626;" transform="translate(22.81375 39.528518)scale(0.11 -0.11)">
       <use transform="translate(0 0.684375)" xlink:href="#DejaVuSans-31"/>
       <use transform="translate(63.623047 0.684375)" xlink:href="#DejaVuSans-30"/>
       <use transform="translate(128.203125 38.965625)scale(0.7)" xlink:href="#DejaVuSans-37"/>
      </g>
     </g>
    </g>
    <g id="ytick_9"/>
    <g id="ytick_10"/>
    <g id="ytick_11"/>
    <g id="ytick_12"/>
    <g id="ytick_13"/>
    <g id="ytick_14"/>
    <g id="ytick_15"/>
    <g id="ytick_16"/>
    <g id="ytick_17"/>
    <g id="ytick_18"/>
    <g id="ytick_19"/>
    <g id="ytick_20"/>
    <g id="ytick_21"/>
    <g id="ytick_22"/>
    <g id="ytick_23"/>
    <g id="ytick_24"/>
    <g id="ytick_25"/>
    <g id="ytick_26"/>
    <g id="ytick_27"/>
    <g id="ytick_28"/>
    <g id="ytick_29"/>
    <g id="ytick_30"/>
    <g id="ytick_31"/>
    <g id="ytick_32"/>
    <g id="ytick_33"/>
    <g id="ytick_34"/>
    <g id="ytick_35"/>
    <g id="ytick_36"/>
    <g id="ytick_37"/>
    <g id="ytick_38"/>
    <g id="ytick_39"/>
    <g id="ytick_40"/>
    <g id="ytick_41"/>
    <g id="ytick_42"/>
    <g id="ytick_43"/>
    <g id="ytick_44"/>
    <g id="ytick_45"/>
    <g id="ytick_46"/>
    <g id="ytick_47"/>
    <g id="ytick_48"/>
    <g id="ytick_49"/>
    <g id="ytick_50"/>
    <g id="ytick_51"/>
    <g id="ytick_52"/>
    <g id="ytick_53"/>
    <g id="ytick_54"/>
    <g id="ytick_55"/>
    <g id="ytick_56"/>
    <g id="ytick_57"/>
    <g id="ytick_58"/>
    <g id="ytick_59"/>
    <g id="ytick_60"/>
    <g id="ytick_61"/>
    <g id="ytick_62"/>
    <g id="ytick_63"/>
    <g id="ytick_64"/>
    <g id="ytick_65"/>
    <g id="ytick_66"/>
    <g id="ytick_67"/>
    <g id="ytick_68"/>
    <g id="ytick_69"/>
    <g id="ytick_70"/>
    <g id="ytick_71"/>
    <g id="ytick_72"/>
    <g id="ytick_73"/>
    <g id="ytick_74"/>
    <g id="ytick_75"/>
    <g id="text_18">
     <!-- Count -->
     <defs>
      <path d="M 64.40625 67.28125 
L 64.40625 56.890625 
Q 59.421875 61.53125 53.78125 63.8125 
Q 48.140625 66.109375 41.796875 66.109375 
Q 29.296875 66.109375 22.65625 58.46875 
Q 16.015625 50.828125 16.015625 36.375 
Q 16.015625 21.96875 22.65625 14.328125 
Q 29.296875 6.6875 41.796875 6.6875 
Q 48.140625 6.6875 53.78125 8.984375 
Q 59.421875 11.28125 64.40625 15.921875 
L 64.40625 5.609375 
Q 59.234375 2.09375 53.4375 0.328125 
Q 47.65625 -1.421875 41.21875 -1.421875 
Q 24.65625 -1.421875 15.125 8.703125 
Q 5.609375 18.84375 5.609375 36.375 
Q 5.609375 53.953125 15.125 64.078125 
Q 24.65625 74.21875 41.21875 74.21875 
Q 47.75 74.21875 53.53125 72.484375 
Q 59.328125 70.75 64.40625 67.28125 
z
" id="DejaVuSans-43"/>
     </defs>
     <g style="fill:#262626;" transform="translate(16.318125 139.738125)rotate(-90)scale(0.12 -0.12)">
      <use xlink:href="#DejaVuSans-43"/>
      <use x="69.824219" xlink:href="#DejaVuSans-6f"/>
      <use x="131.005859" xlink:href="#DejaVuSans-75"/>
      <use x="194.384766" xlink:href="#DejaVuSans-6e"/>
      <use x="257.763672" xlink:href="#DejaVuSans-74"/>
     </g>
    </g>
   </g>
   <g id="line2d_17">
    <path clip-path="url(#p20c4d2994b)" d="M 66.891932 23.083636 
L 101.829801 96.686385 
L 113.648961 116.449858 
L 120.955182 125.335267 
L 126.257671 136.685955 
L 130.422194 144.124829 
L 133.851921 147.904439 
L 136.767669 157.616932 
L 139.303601 160.831473 
L 141.54736 159.358487 
L 145.383053 174.659878 
L 147.050666 177.226705 
L 148.58683 177.226705 
L 150.010762 175.988626 
L 151.337749 176.715375 
L 152.580157 183.278372 
L 153.748122 183.278372 
L 154.850065 190.3992 
L 155.893051 185.2 
L 156.883071 198.372495 
L 157.825244 188.863184 
L 158.723984 188.165817 
L 158.726795 274.933437 
M 160.403343 274.933437 
L 160.405991 189.605573 
L 161.19554 212.783069 
L 161.954359 212.783069 
L 162.684752 194.269651 
L 164.068253 220.756364 
L 164.724854 184.199106 
L 165.360063 194.269651 
L 165.975231 212.783069 
L 166.571583 220.756364 
L 167.150236 204.809774 
L 167.712212 212.783069 
L 168.258444 208.11899 
L 168.78979 208.11899 
L 168.791094 274.933437 
M 169.809502 274.933437 
L 169.810923 200.145695 
L 170.302113 208.11899 
L 170.781233 204.809774 
L 171.248862 200.145695 
L 171.705538 204.809774 
L 171.706719 274.933437 
M 172.586644 274.933437 
L 172.588005 192.1724 
L 173.014701 208.11899 
L 173.432258 212.783069 
L 174.24147 212.783069 
L 174.633821 220.756364 
L 175.018433 194.269651 
L 175.01958 274.933437 
M 176.127719 274.933437 
L 176.128744 200.145695 
L 176.485229 212.783069 
L 176.48605 274.933437 
M 177.178357 274.933437 
L 177.179224 208.11899 
L 177.517173 212.783069 
L 177.849365 212.783069 
L 178.175993 200.145695 
L 178.497239 212.783069 
L 178.813278 212.783069 
L 179.124276 208.11899 
L 179.430393 220.756364 
L 179.731777 220.756364 
L 180.028574 202.242946 
L 180.320922 202.242946 
L 180.60895 212.783069 
L 180.892787 212.783069 
L 180.893443 274.933437 
M 181.44771 274.933437 
L 181.448357 212.783069 
L 181.720316 204.809774 
L 181.721026 274.933437 
M 182.252573 274.933437 
L 182.253115 220.756364 
L 182.514152 200.145695 
L 182.514879 274.933437 
M 183.276297 274.933437 
L 183.276929 208.11899 
L 183.277554 274.933437 
M 183.768859 274.933437 
L 183.76936 220.756364 
L 184.010988 204.809774 
L 184.24966 220.756364 
L 185.401068 220.756364 
L 185.401523 274.933437 
M 185.842796 274.933437 
L 185.843246 220.756364 
L 186.06063 196.836479 
L 186.275618 220.756364 
L 186.276053 274.933437 
M 187.517613 274.933437 
L 187.518025 220.756364 
L 187.518434 274.933437 
M 187.914767 274.933437 
L 187.915171 220.756364 
L 187.915571 274.933437 
M 188.303994 274.933437 
L 188.30439 220.756364 
L 188.685991 220.756364 
L 188.686376 274.933437 
M 189.059729 274.933437 
L 189.060267 198.372495 
L 189.0608 274.933437 
M 190.14147 274.933437 
L 190.141831 220.756364 
L 190.316399 220.756364 
L 190.316753 274.933437 
M 190.660566 274.933437 
L 190.660917 220.756364 
L 190.83092 220.756364 
L 190.831265 274.933437 
M 191.331873 274.933437 
L 191.332212 220.756364 
L 191.332548 274.933437 
M 191.658957 274.933437 
L 191.659388 204.809774 
L 191.659815 274.933437 
M 192.297394 274.933437 
L 192.297716 220.756364 
L 192.298036 274.933437 
M 192.60882 274.933437 
L 192.609212 208.11899 
L 192.763113 220.756364 
L 192.763425 274.933437 
M 193.217353 274.933437 
L 193.21766 220.756364 
L 193.217965 274.933437 
M 193.661508 274.933437 
L 193.661852 212.783069 
L 193.807696 220.756364 
L 193.952457 200.145695 
L 194.238794 220.756364 
L 194.380401 220.756364 
L 194.380688 274.933437 
M 195.073129 274.933437 
L 195.073409 220.756364 
L 195.209103 220.756364 
L 195.209379 274.933437 
M 195.610339 274.933437 
L 195.610611 220.756364 
L 195.610881 274.933437 
M 196.00365 274.933437 
L 196.004017 200.145695 
L 196.004382 274.933437 
M 196.261684 274.933437 
L 196.261947 220.756364 
L 196.389644 212.783069 
L 196.389941 274.933437 
M 196.767497 274.933437 
L 196.767791 212.783069 
L 196.768083 274.933437 
M 197.502526 274.933437 
L 197.502772 220.756364 
L 197.503018 274.933437 
M 197.85983 274.933437 
L 197.860129 208.11899 
L 197.860425 274.933437 
M 198.09454 274.933437 
L 198.094779 220.756364 
L 198.211054 220.756364 
L 198.21129 274.933437 
M 198.555541 274.933437 
L 198.555774 220.756364 
L 198.556007 274.933437 
M 199.227229 274.933437 
L 199.227455 220.756364 
L 199.227679 274.933437 
M 199.44608 274.933437 
L 199.554813 202.242946 
L 199.555109 274.933437 
M 199.982697 274.933437 
L 200.088486 220.756364 
L 200.19349 185.735122 
L 200.297932 212.783069 
L 200.298176 274.933437 
M 200.811702 274.933437 
L 200.81191 220.756364 
L 200.812117 274.933437 
M 201.113712 274.933437 
L 201.113917 220.756364 
L 201.114121 274.933437 
M 201.411116 274.933437 
L 201.411318 220.756364 
L 201.411518 274.933437 
M 201.704052 274.933437 
L 201.70425 220.756364 
L 201.704448 274.933437 
M 201.992652 274.933437 
L 201.992848 220.756364 
L 201.993043 274.933437 
M 202.557301 274.933437 
L 202.557536 208.11899 
L 202.557769 274.933437 
M 203.551966 274.933437 
L 203.6401 220.756364 
L 203.640279 274.933437 
M 204.913732 274.933437 
L 204.913901 220.756364 
L 204.914068 274.933437 
M 205.158766 274.933437 
L 205.158971 208.11899 
L 205.159175 274.933437 
M 205.639899 274.933437 
L 205.640061 220.756364 
L 205.640223 274.933437 
M 206.339991 274.933437 
L 206.340147 220.756364 
L 206.340303 274.933437 
M 206.718337 274.933437 
L 206.793286 220.756364 
L 206.793439 274.933437 
M 206.94187 274.933437 
L 207.015967 212.783069 
L 207.01614 274.933437 
M 207.235984 274.933437 
L 207.236133 220.756364 
L 207.236282 274.933437 
M 207.453694 274.933437 
L 207.453842 220.756364 
L 207.453989 274.933437 
M 208.23179 274.933437 
L 208.231932 220.756364 
L 208.232074 274.933437 
M 208.507177 274.933437 
L 208.507349 208.11899 
L 208.507521 274.933437 
M 208.643473 274.933437 
L 208.643613 220.756364 
L 208.643751 274.933437 
M 208.913178 274.933437 
L 208.913315 220.756364 
L 208.913452 274.933437 
M 209.113016 274.933437 
L 209.113172 212.783069 
L 209.113327 274.933437 
M 209.50662 274.933437 
L 209.506844 183.729529 
L 209.57169 212.783069 
L 209.700738 220.756364 
L 209.70087 274.933437 
M 209.892575 274.933437 
L 209.892724 212.783069 
L 209.892873 274.933437 
M 210.270959 274.933437 
L 210.271116 208.11899 
L 210.271274 274.933437 
M 210.395476 274.933437 
L 210.457594 200.145695 
L 210.457768 274.933437 
M 210.64218 274.933437 
L 210.642305 220.756364 
L 210.64243 274.933437 
M 210.82513 274.933437 
L 210.825283 208.11899 
L 210.825436 274.933437 
M 210.946198 274.933437 
L 211.00656 220.756364 
L 211.006683 274.933437 
M 211.186045 274.933437 
L 211.186167 220.756364 
L 211.186288 274.933437 
M 211.304871 274.933437 
L 211.364134 196.836479 
L 211.364308 274.933437 
M 211.481763 274.933437 
L 211.540493 208.11899 
L 211.54064 274.933437 
M 211.830806 274.933437 
L 211.888495 220.756364 
L 211.888612 274.933437 
M 212.173693 274.933437 
L 212.173826 212.783069 
L 212.230395 220.756364 
L 212.2868 220.756364 
L 212.286915 274.933437 
M 212.399008 274.933437 
L 212.399122 220.756364 
L 212.399237 274.933437 
M 212.510688 274.933437 
L 212.510802 220.756364 
L 212.510916 274.933437 
M 212.621732 274.933437 
L 212.73226 212.783069 
L 212.732389 274.933437 
M 212.896591 274.933437 
L 212.896719 212.783069 
L 212.896847 274.933437 
M 213.059637 274.933437 
L 213.059802 194.269651 
L 213.059967 274.933437 
M 213.540916 274.933437 
L 213.541024 220.756364 
L 213.541132 274.933437 
M 213.646261 274.933437 
L 213.698828 220.756364 
L 213.698935 274.933437 
M 213.855218 274.933437 
L 213.855365 200.145695 
L 213.855511 274.933437 
M 213.958923 274.933437 
L 214.010655 212.783069 
L 214.010776 274.933437 
M 214.113379 274.933437 
L 214.164719 212.783069 
L 214.164839 274.933437 
M 214.317471 274.933437 
L 214.317575 220.756364 
L 214.317678 274.933437 
M 214.469114 274.933437 
L 214.469241 208.11899 
L 214.469368 274.933437 
M 214.619593 274.933437 
L 214.619738 198.372495 
L 214.619882 274.933437 
M 214.76898 274.933437 
L 214.818609 220.756364 
L 214.81871 274.933437 
M 214.917174 274.933437 
L 214.91729 212.783069 
L 214.966543 274.933437 
M 215.06428 274.933437 
L 215.113165 212.783069 
L 215.113279 274.933437 
M 215.21027 274.933437 
L 215.25879 220.756364 
L 215.258889 274.933437 
M 215.35516 274.933437 
L 215.355274 212.783069 
L 215.355386 274.933437 
M 215.830559 274.933437 
L 215.877562 220.756364 
L 215.877658 274.933437 
M 216.063933 274.933437 
L 216.06407 196.836479 
L 216.064206 274.933437 
M 216.156564 274.933437 
L 216.202789 220.756364 
L 216.202883 274.933437 
M 216.340434 274.933437 
L 216.340528 220.756364 
L 216.340621 274.933437 
M 216.477194 274.933437 
L 216.477301 212.783069 
L 216.477407 274.933437 
M 216.65808 274.933437 
L 216.658185 212.783069 
L 216.703237 274.933437 
M 217.014906 274.933437 
L 217.014997 220.756364 
L 217.015087 274.933437 
M 217.147045 274.933437 
L 217.190983 220.756364 
L 217.191073 274.933437 
M 217.278282 274.933437 
L 217.278385 212.783069 
L 217.278487 274.933437 
M 217.408631 274.933437 
L 217.408756 198.372495 
L 217.408881 274.933437 
M 217.495088 274.933437 
L 217.495189 212.783069 
L 217.49529 274.933437 
M 217.666826 274.933437 
L 217.666914 220.756364 
L 217.667001 274.933437 
M 217.752125 274.933437 
L 217.794722 220.756364 
L 217.794809 274.933437 
M 217.921599 274.933437 
L 217.921698 212.783069 
L 217.921797 274.933437 
M 218.047766 274.933437 
L 218.047852 220.756364 
L 218.047938 274.933437 
M 218.131418 274.933437 
L 218.173196 220.756364 
L 218.173281 274.933437 
M 218.297641 274.933437 
L 218.380327 212.783069 
L 218.380424 274.933437 
M 218.462484 274.933437 
L 218.462568 220.756364 
L 218.462652 274.933437 
M 218.66655 274.933437 
L 218.666664 200.145695 
L 218.70733 274.933437 
M 219.266336 274.933437 
L 219.266441 204.809774 
L 219.30587 274.933437 
M 219.617567 274.933437 
L 219.617646 220.756364 
L 219.617725 274.933437 
M 220.076215 274.933437 
L 220.076292 220.756364 
L 220.07637 274.933437 
M 220.450349 274.933437 
L 220.450425 220.756364 
L 220.450501 274.933437 
M 220.561204 274.933437 
L 220.561279 220.756364 
L 220.561354 274.933437 
M 220.671421 274.933437 
L 220.671507 212.783069 
L 220.671593 274.933437 
M 220.744561 274.933437 
L 220.744647 212.783069 
L 220.744733 274.933437 
M 220.9984 274.933437 
L 220.998499 202.242946 
L 220.998598 274.933437 
M 221.213414 274.933437 
L 221.213487 220.756364 
L 221.21356 274.933437 
M 221.320026 274.933437 
L 221.320099 220.756364 
L 221.320171 274.933437 
M 221.426058 274.933437 
L 221.461346 220.756364 
L 221.461418 274.933437 
M 221.531496 274.933437 
L 221.531589 204.809774 
L 221.566687 274.933437 
M 221.636408 274.933437 
L 221.671318 220.756364 
L 221.671389 274.933437 
M 221.844513 274.933437 
L 221.844584 220.756364 
L 221.844655 274.933437 
M 221.947739 274.933437 
L 221.947809 220.756364 
L 221.947879 274.933437 
M 222.050411 274.933437 
L 222.050491 212.783069 
L 222.050571 274.933437 
M 222.152565 274.933437 
L 222.152635 220.756364 
L 222.152704 274.933437 
M 222.220355 274.933437 
L 222.220434 212.783069 
L 222.220514 274.933437 
M 222.321625 274.933437 
L 222.355331 220.756364 
L 222.355399 274.933437 
M 222.555853 274.933437 
L 222.555942 204.809774 
L 222.556029 274.933437 
M 222.655401 274.933437 
L 222.655478 212.783069 
L 222.655556 274.933437 
M 222.918385 274.933437 
L 222.951076 220.756364 
L 222.951142 274.933437 
M 223.016093 274.933437 
L 223.048621 183.278372 
L 223.048732 274.933437 
M 223.113314 274.933437 
L 223.11338 220.756364 
L 223.113446 274.933437 
M 223.210053 274.933437 
L 223.242259 220.756364 
L 223.242324 274.933437 
M 223.433928 274.933437 
L 223.433993 220.756364 
L 223.434058 274.933437 
M 223.529077 274.933437 
L 223.529157 208.11899 
L 223.56084 274.933437 
M 223.623795 274.933437 
L 223.62386 220.756364 
L 223.623924 274.933437 
M 223.749354 274.933437 
L 223.749418 220.756364 
L 223.749482 274.933437 
M 223.998051 274.933437 
L 223.998136 202.242946 
L 223.998221 274.933437 
M 224.213129 274.933437 
L 224.213192 220.756364 
L 224.213254 274.933437 
M 224.274141 274.933437 
L 224.274203 220.756364 
L 224.274265 274.933437 
M 224.48619 274.933437 
L 224.486252 220.756364 
L 224.486313 274.933437 
M 224.546354 274.933437 
L 224.546416 220.756364 
L 224.546477 274.933437 
M 224.725741 274.933437 
L 224.725802 220.756364 
L 224.725863 274.933437 
M 224.844423 274.933437 
L 224.903554 204.809774 
L 224.903632 274.933437 
M 225.021101 274.933437 
L 225.021161 220.756364 
L 225.021221 274.933437 
M 225.07964 274.933437 
L 225.0797 220.756364 
L 225.079759 274.933437 
M 225.16712 274.933437 
L 225.167179 220.756364 
L 225.167239 274.933437 
M 225.340897 274.933437 
L 225.34097 208.11899 
L 225.341043 274.933437 
M 225.484563 274.933437 
L 225.484622 220.756364 
L 225.48468 274.933437 
M 225.65556 274.933437 
L 225.683973 212.783069 
L 225.684039 274.933437 
M 225.7405 274.933437 
L 225.740558 220.756364 
L 225.740615 274.933437 
M 226.020989 274.933437 
L 226.021046 220.756364 
L 226.021103 274.933437 
M 226.352322 274.933437 
L 226.352391 208.11899 
L 226.35246 274.933437 
M 226.434299 274.933437 
L 226.434355 220.756364 
L 226.434411 274.933437 
M 226.51592 274.933437 
L 226.515976 220.756364 
L 226.516031 274.933437 
M 226.597182 274.933437 
L 226.597256 202.242946 
L 226.597331 274.933437 
M 226.651201 274.933437 
L 226.651256 220.756364 
L 226.651311 274.933437 
M 226.998592 274.933437 
L 226.998654 212.783069 
L 226.998716 274.933437 
M 227.130584 274.933437 
L 227.130637 220.756364 
L 227.130691 274.933437 
M 227.339917 274.933437 
L 227.339971 220.756364 
L 227.340024 274.933437 
M 227.391876 274.933437 
L 227.391955 194.269651 
L 227.443853 274.933437 
M 227.700922 274.933437 
L 227.700982 212.783069 
L 227.701042 274.933437 
M 227.878952 274.933437 
L 227.879011 212.783069 
L 227.879071 274.933437 
M 228.155466 274.933437 
L 228.155529 208.11899 
L 228.155592 274.933437 
M 228.575258 274.933437 
L 228.575308 220.756364 
L 228.575357 274.933437 
M 228.890269 274.933437 
L 228.890326 212.783069 
L 228.890382 274.933437 
M 228.98619 274.933437 
L 228.986239 220.756364 
L 228.986288 274.933437 
M 229.388634 274.933437 
L 229.388689 212.783069 
L 229.388744 274.933437 
M 229.435447 274.933437 
L 229.435495 220.756364 
L 229.435543 274.933437 
M 229.598388 274.933437 
L 229.598435 220.756364 
L 229.598483 274.933437 
M 229.667805 274.933437 
L 229.667852 220.756364 
L 229.667899 274.933437 
M 229.943021 274.933437 
L 229.965836 212.783069 
L 229.965889 274.933437 
M 230.079197 274.933437 
L 230.079243 220.756364 
L 230.079289 274.933437 
M 230.281676 274.933437 
L 230.281729 212.783069 
L 230.281781 274.933437 
M 230.504228 274.933437 
L 230.504274 220.756364 
L 230.504319 274.933437 
M 230.614556 274.933437 
L 230.614601 220.756364 
L 230.614646 274.933437 
M 230.876823 274.933437 
L 230.876867 220.756364 
L 230.876912 274.933437 
M 230.941819 274.933437 
L 230.941886 192.1724 
L 230.941954 274.933437 
M 230.985061 274.933437 
L 231.006689 208.11899 
L 231.006744 274.933437 
M 231.092716 274.933437 
L 231.09276 220.756364 
L 231.092803 274.933437 
M 231.263715 274.933437 
L 231.263769 208.11899 
L 231.263822 274.933437 
M 231.580381 274.933437 
L 231.580424 220.756364 
L 231.580467 274.933437 
M 231.891962 274.933437 
L 231.892019 202.242946 
L 231.892075 274.933437 
M 231.933149 274.933437 
L 231.933191 220.756364 
L 231.933233 274.933437 
M 232.015234 274.933437 
L 232.015276 220.756364 
L 232.015318 274.933437 
M 232.076572 274.933437 
L 232.076613 220.756364 
L 232.076655 274.933437 
M 232.137717 274.933437 
L 232.137759 220.756364 
L 232.1378 274.933437 
M 232.198661 274.933437 
L 232.198713 208.11899 
L 232.198764 274.933437 
M 232.4406 274.933437 
L 232.440641 220.756364 
L 232.440682 274.933437 
M 232.620097 274.933437 
L 232.620138 220.756364 
L 232.620179 274.933437 
M 232.797951 274.933437 
L 232.81766 212.783069 
L 232.837343 274.933437 
M 232.993689 274.933437 
L 232.993735 212.783069 
L 232.993781 274.933437 
M 233.090832 274.933437 
L 233.090872 220.756364 
L 233.090911 274.933437 
M 233.245252 274.933437 
L 233.245291 220.756364 
L 233.24533 274.933437 
M 233.379367 274.933437 
L 233.379412 212.783069 
L 233.379457 274.933437 
M 233.493604 274.933437 
L 233.493643 220.756364 
L 233.493682 274.933437 
M 233.943937 274.933437 
L 233.943991 198.372495 
L 233.96257 274.933437 
M 234.128571 274.933437 
L 234.128609 220.756364 
L 234.128646 274.933437 
M 234.49264 274.933437 
L 234.510709 202.242946 
L 234.510758 274.933437 
M 234.743512 274.933437 
L 234.743548 220.756364 
L 234.743585 274.933437 
M 234.814599 274.933437 
L 234.832367 220.756364 
L 234.832403 274.933437 
M 234.973604 274.933437 
L 234.97364 220.756364 
L 234.973676 274.933437 
M 235.043854 274.933437 
L 235.043895 212.783069 
L 235.043936 274.933437 
M 235.113862 274.933437 
L 235.113898 220.756364 
L 235.113933 274.933437 
M 235.305084 274.933437 
L 235.305119 220.756364 
L 235.305154 274.933437 
M 235.356911 274.933437 
L 235.356946 220.756364 
L 235.356982 274.933437 
M 235.562841 274.933437 
L 235.562889 200.145695 
L 235.562938 274.933437 
M 235.614002 274.933437 
L 235.614037 220.756364 
L 235.614072 274.933437 
M 236.001741 274.933437 
L 236.001775 220.756364 
L 236.001809 274.933437 
M 236.068383 274.933437 
L 236.068428 204.809774 
L 236.068472 274.933437 
M 236.365543 274.933437 
L 236.365576 220.756364 
L 236.36561 274.933437 
M 236.561141 274.933437 
L 236.561189 195.481617 
L 236.593635 274.933437 
M 237.041773 274.933437 
L 237.041805 220.756364 
L 237.041838 274.933437 
M 237.167961 274.933437 
L 237.167994 220.756364 
L 237.168026 274.933437 
M 237.371292 274.933437 
L 237.371324 220.756364 
L 237.371356 274.933437 
M 237.402386 274.933437 
L 237.402418 220.756364 
L 237.40245 274.933437 
M 237.510823 274.933437 
L 237.510859 212.783069 
L 237.510895 274.933437 
M 237.6033 274.933437 
L 237.603331 220.756364 
L 237.603362 274.933437 
M 237.832579 274.933437 
L 237.83261 220.756364 
L 237.832641 274.933437 
M 237.968859 274.933437 
L 237.968895 212.783069 
L 237.96893 274.933437 
M 238.357307 274.933437 
L 238.372124 220.756364 
L 238.372154 274.933437 
M 238.825007 274.933437 
L 238.825037 220.756364 
L 238.825066 274.933437 
M 238.853865 274.933437 
L 238.853899 212.783069 
L 238.853933 274.933437 
M 238.882689 274.933437 
L 238.882718 220.756364 
L 238.882748 274.933437 
M 239.125949 274.933437 
L 239.125978 220.756364 
L 239.126007 274.933437 
M 239.281751 274.933437 
L 239.28178 220.756364 
L 239.281809 274.933437 
M 239.366212 274.933437 
L 239.366241 220.756364 
L 239.36627 274.933437 
M 239.575778 274.933437 
L 239.575807 220.756364 
L 239.575835 274.933437 
M 239.603551 274.933437 
L 239.603579 220.756364 
L 239.603608 274.933437 
M 239.700441 274.933437 
L 239.700473 212.783069 
L 239.700506 274.933437 
M 239.741824 274.933437 
L 239.741853 220.756364 
L 239.741881 274.933437 
M 239.769362 274.933437 
L 239.76939 220.756364 
L 239.769418 274.933437 
M 240.110337 274.933437 
L 240.110365 220.756364 
L 240.110393 274.933437 
M 240.312097 274.933437 
L 240.312124 220.756364 
L 240.312152 274.933437 
M 240.511791 274.933437 
L 240.511818 220.756364 
L 240.511845 274.933437 
M 240.709456 274.933437 
L 240.709486 212.783069 
L 240.709517 274.933437 
M 240.879167 274.933437 
L 240.879193 220.756364 
L 240.87922 274.933437 
M 240.905134 274.933437 
L 240.905171 198.372495 
L 240.9441 274.933437 
M 241.175846 274.933437 
L 241.175873 220.756364 
L 241.175899 274.933437 
M 241.290717 274.933437 
L 241.290747 212.783069 
L 241.290777 274.933437 
M 241.480687 274.933437 
L 241.480712 220.756364 
L 241.480738 274.933437 
M 241.668816 274.933437 
L 241.668845 212.783069 
L 241.668875 274.933437 
M 241.830413 274.933437 
L 241.830438 220.756364 
L 241.830464 274.933437 
M 241.904545 274.933437 
L 241.904571 220.756364 
L 241.904596 274.933437 
M 242.039727 274.933437 
L 242.039752 220.756364 
L 242.039777 274.933437 
M 242.222567 274.933437 
L 242.222592 220.756364 
L 242.222617 274.933437 
M 242.415726 274.933437 
L 242.415751 220.756364 
L 242.415775 274.933437 
M 242.761017 274.933437 
L 242.772845 200.145695 
L 242.772879 274.933437 
M 242.948942 274.933437 
L 242.94897 212.783069 
L 242.948997 274.933437 
M 243.123494 274.933437 
L 243.123518 220.756364 
L 243.123541 274.933437 
M 243.158217 274.933437 
L 243.158241 220.756364 
L 243.158264 274.933437 
M 243.285008 274.933437 
L 243.285031 220.756364 
L 243.285055 274.933437 
M 243.467966 274.933437 
L 243.467995 208.11899 
L 243.468024 274.933437 
M 243.637955 274.933437 
L 243.637978 220.756364 
L 243.638001 274.933437 
M 243.705535 274.933437 
L 243.705558 220.756364 
L 243.705581 274.933437 
M 243.772882 274.933437 
L 243.772905 220.756364 
L 243.772928 274.933437 
M 243.806469 274.933437 
L 243.806492 220.756364 
L 243.806515 274.933437 
M 243.973536 274.933437 
L 243.973562 212.783069 
L 243.973588 274.933437 
M 244.039969 274.933437 
L 244.039991 220.756364 
L 244.040014 274.933437 
M 244.13919 274.933437 
L 244.139213 220.756364 
L 244.139235 274.933437 
M 244.303446 274.933437 
L 244.303468 220.756364 
L 244.303491 274.933437 
M 244.46632 274.933437 
L 244.466352 198.372495 
L 244.466383 274.933437 
M 244.487942 274.933437 
L 244.487967 212.783069 
L 244.487992 274.933437 
M 244.756134 274.933437 
L 244.756156 220.756364 
L 244.756178 274.933437 
M 244.915295 274.933437 
L 244.915317 220.756364 
L 244.915339 274.933437 
M 245.104586 274.933437 
L 245.104611 212.783069 
L 245.104635 274.933437 
M 245.250558 274.933437 
L 245.250579 220.756364 
L 245.2506 274.933437 
M 245.385128 274.933437 
L 245.395463 220.756364 
L 245.395484 274.933437 
M 245.508529 274.933437 
L 245.50855 220.756364 
L 245.50857 274.933437 
M 245.722617 274.933437 
L 245.722638 220.756364 
L 245.722659 274.933437 
M 246.024433 274.933437 
L 246.024458 208.11899 
L 246.044435 274.933437 
M 246.321654 274.933437 
L 246.321678 212.783069 
L 246.321701 274.933437 
M 246.370757 274.933437 
L 246.370777 220.756364 
L 246.370797 274.933437 
M 246.701391 274.933437 
L 246.701411 220.756364 
L 246.701431 274.933437 
M 247.290249 274.933437 
L 247.290269 220.756364 
L 247.290288 274.933437 
M 247.308952 274.933437 
L 247.308971 220.756364 
L 247.30899 274.933437 
M 247.43937 274.933437 
L 247.439389 220.756364 
L 247.439408 274.933437 
M 247.467197 274.933437 
L 247.476491 200.145695 
L 247.485777 274.933437 
M 247.852757 274.933437 
L 247.852776 220.756364 
L 247.852794 274.933437 
M 248.015689 274.933437 
L 248.015707 220.756364 
L 248.015726 274.933437 
M 248.069698 274.933437 
L 248.069717 220.756364 
L 248.069735 274.933437 
M 248.557934 274.933437 
L 248.557954 212.783069 
L 248.557975 274.933437 
M 248.819177 274.933437 
L 248.819202 200.145695 
L 248.827868 274.933437 
M 249.076977 274.933437 
L 249.08553 220.756364 
L 249.085547 274.933437 
M 249.331407 274.933437 
L 249.331424 220.756364 
L 249.331442 274.933437 
M 249.423872 274.933437 
L 249.42389 220.756364 
L 249.423907 274.933437 
M 249.482486 274.933437 
L 249.482504 220.756364 
L 249.482521 274.933437 
M 249.524246 274.933437 
L 249.524263 220.756364 
L 249.52428 274.933437 
M 249.58256 274.933437 
L 249.582577 220.756364 
L 249.582594 274.933437 
M 249.830518 274.933437 
L 249.830535 220.756364 
L 249.830552 274.933437 
M 250.02664 274.933437 
L 250.026656 220.756364 
L 250.026673 274.933437 
M 250.07536 274.933437 
L 250.07538 208.11899 
L 250.099713 274.933437 
M 250.148222 274.933437 
L 250.148238 220.756364 
L 250.148255 274.933437 
M 250.31717 274.933437 
L 250.317189 212.783069 
L 250.317207 274.933437 
M 250.556019 274.933437 
L 250.556035 220.756364 
L 250.556052 274.933437 
M 250.697935 274.933437 
L 250.697951 220.756364 
L 250.697968 274.933437 
M 251.1099 274.933437 
L 251.109916 220.756364 
L 251.109932 274.933437 
M 251.255488 274.933437 
L 251.255508 208.11899 
L 251.255527 274.933437 
M 251.938113 274.933437 
L 251.938128 220.756364 
L 251.938143 274.933437 
M 252.055702 274.933437 
L 252.055717 220.756364 
L 252.055732 274.933437 
M 252.158015 274.933437 
L 252.158029 220.756364 
L 252.158044 274.933437 
M 252.288775 274.933437 
L 252.28879 220.756364 
L 252.288805 274.933437 
M 252.34661 274.933437 
L 252.353843 220.756364 
L 252.353857 274.933437 
M 252.368255 274.933437 
L 252.382685 212.783069 
L 252.389904 274.933437 
M 252.461769 274.933437 
L 252.461784 220.756364 
L 252.461799 274.933437 
M 252.583385 274.933437 
L 252.583399 220.756364 
L 252.583414 274.933437 
M 253.166501 274.933437 
L 253.166515 220.756364 
L 253.166529 274.933437 
M 253.207986 274.933437 
L 253.208 220.756364 
L 253.208014 274.933437 
M 253.427754 274.933437 
L 253.427773 202.242946 
L 253.427792 274.933437 
M 253.441413 274.933437 
L 253.441427 220.756364 
L 253.441441 274.933437 
M 253.570651 274.933437 
L 253.570665 220.756364 
L 253.570679 274.933437 
M 253.631569 274.933437 
L 253.631585 212.783069 
L 253.631601 274.933437 
M 253.645081 274.933437 
L 253.645097 212.783069 
L 253.645113 274.933437 
M 253.732684 274.933437 
L 253.732698 220.756364 
L 253.732712 274.933437 
M 254.032914 274.933437 
L 254.032927 220.756364 
L 254.032941 274.933437 
M 254.158303 274.933437 
L 254.158316 220.756364 
L 254.15833 274.933437 
M 254.210858 274.933437 
L 254.210871 220.756364 
L 254.210885 274.933437 
M 254.230529 274.933437 
L 254.230543 220.756364 
L 254.230556 274.933437 
M 254.42616 274.933437 
L 254.439148 212.783069 
L 254.439163 274.933437 
M 255.382104 274.933437 
L 255.382117 220.756364 
L 255.382129 274.933437 
M 255.566571 274.933437 
L 255.566583 220.756364 
L 255.566596 274.933437 
M 256.287466 274.933437 
L 256.287478 220.756364 
L 256.287491 274.933437 
M 256.897102 274.933437 
L 256.897114 220.756364 
L 256.897126 274.933437 
M 257.779974 274.933437 
L 257.779986 220.756364 
L 257.779997 274.933437 
M 257.981072 274.933437 
L 257.981083 220.756364 
L 257.981094 274.933437 
M 258.775727 274.933437 
L 258.775738 220.756364 
L 258.775749 274.933437 
M 259.094955 274.933437 
L 259.094965 220.756364 
L 259.094976 274.933437 
M 259.544251 274.933437 
L 259.544264 208.11899 
L 259.549264 274.933437 
M 259.559219 274.933437 
L 259.55923 220.756364 
L 259.55924 274.933437 
M 260.565082 274.933437 
L 260.565092 220.756364 
L 260.565101 274.933437 
M 260.996 274.933437 
L 260.99601 220.756364 
L 260.996019 274.933437 
M 261.67431 274.933437 
L 261.674319 220.756364 
L 261.674328 274.933437 
M 261.754679 274.933437 
L 261.754688 220.756364 
L 261.754697 274.933437 
M 262.203948 274.933437 
L 262.203957 220.756364 
L 262.203966 274.933437 
M 262.334138 274.933437 
L 262.334149 208.11899 
L 262.33416 274.933437 
M 262.342789 274.933437 
L 262.342798 220.756364 
L 262.342807 274.933437 
M 262.97237 274.933437 
L 262.97238 212.783069 
L 262.97239 274.933437 
M 262.980742 274.933437 
L 262.98075 220.756364 
L 262.980759 274.933437 
M 263.46833 274.933437 
L 263.468338 220.756364 
L 263.468347 274.933437 
M 263.594428 274.933437 
L 263.598491 220.756364 
L 263.598499 274.933437 
M 264.071049 274.933437 
L 264.071057 220.756364 
L 264.071065 274.933437 
M 264.478259 274.933437 
L 264.478267 220.756364 
L 264.478275 274.933437 
M 264.774365 274.933437 
L 264.774374 212.783069 
L 264.778198 274.933437 
M 265.073561 274.933437 
L 265.073569 220.756364 
L 265.073577 274.933437 
M 265.212128 274.933437 
L 265.212135 220.756364 
L 265.212143 274.933437 
M 265.600078 274.933437 
L 265.600085 220.756364 
L 265.600093 274.933437 
M 265.669461 274.933437 
L 265.669468 220.756364 
L 265.669476 274.933437 
M 265.69132 274.933437 
L 265.691328 220.756364 
L 265.691335 274.933437 
M 265.998389 274.933437 
L 265.998396 220.756364 
L 265.998404 274.933437 
M 266.084223 274.933437 
L 266.08423 220.756364 
L 266.084237 274.933437 
M 266.159018 274.933437 
L 266.159026 220.756364 
L 266.159033 274.933437 
M 266.840182 274.933437 
L 266.840189 220.756364 
L 266.840196 274.933437 
M 266.946309 274.933437 
L 266.946317 212.783069 
L 266.946325 274.933437 
M 267.847019 274.933437 
L 267.847025 220.756364 
L 267.847032 274.933437 
M 267.944574 274.933437 
L 267.944583 202.242946 
L 267.951077 274.933437 
M 268.894214 274.933437 
L 268.894222 208.11899 
L 268.897318 274.933437 
M 269.264521 274.933437 
L 269.264527 220.756364 
L 269.264534 274.933437 
M 269.505545 274.933437 
L 269.505551 220.756364 
L 269.505557 274.933437 
M 269.805644 274.933437 
L 269.80565 220.756364 
L 269.805656 274.933437 
M 270.240099 274.933437 
L 270.240104 220.756364 
L 270.24011 274.933437 
M 271.499053 274.933437 
L 271.499058 220.756364 
L 271.499064 274.933437 
M 271.504459 274.933437 
L 271.504464 220.756364 
L 271.50447 274.933437 
M 271.579983 274.933437 
L 271.579988 220.756364 
L 271.579994 274.933437 
M 271.900384 274.933437 
L 271.90039 220.756364 
L 271.900395 274.933437 
M 272.293622 274.933437 
L 272.296222 212.783069 
L 272.296228 274.933437 
M 272.440997 274.933437 
L 272.441002 220.756364 
L 272.441007 274.933437 
M 273.059572 274.933437 
L 273.059577 220.756364 
L 273.059582 274.933437 
M 273.208721 274.933437 
L 273.208727 220.756364 
L 273.208732 274.933437 
M 273.851755 274.933437 
L 273.85176 220.756364 
L 273.851765 274.933437 
M 273.887662 274.933437 
L 273.887667 220.756364 
L 273.887672 274.933437 
M 274.153698 274.933437 
L 274.153703 212.783069 
L 274.153709 274.933437 
M 274.504404 274.933437 
L 274.504409 220.756364 
L 274.504414 274.933437 
M 275.18968 274.933437 
L 275.189684 220.756364 
L 275.189689 274.933437 
M 275.738915 274.933437 
L 275.738919 220.756364 
L 275.738924 274.933437 
M 275.849524 274.933437 
L 275.849529 208.11899 
L 275.849535 274.933437 
M 275.85385 274.933437 
L 275.853854 220.756364 
L 275.853859 274.933437 
M 276.452156 274.933437 
L 276.45216 220.756364 
L 276.452164 274.933437 
M 276.48777 274.933437 
L 276.487774 220.756364 
L 276.487779 274.933437 
M 277.107812 274.933437 
L 277.107816 212.783069 
L 277.109848 274.933437 
M 277.130102 274.933437 
L 277.130106 220.756364 
L 277.130111 274.933437 
M 277.445497 274.933437 
L 277.445501 220.756364 
L 277.445505 274.933437 
M 277.461432 274.933437 
L 277.461436 220.756364 
L 277.46144 274.933437 
M 277.708744 274.933437 
L 277.708748 220.756364 
L 277.708752 274.933437 
M 277.712676 274.933437 
L 277.71268 220.756364 
L 277.712684 274.933437 
M 278.001437 274.933437 
L 278.001441 220.756364 
L 278.001445 274.933437 
M 278.059452 274.933437 
L 278.059456 220.756364 
L 278.05946 274.933437 
M 278.289801 274.933437 
L 278.293621 220.756364 
L 278.293625 274.933437 
M 278.443762 274.933437 
L 278.443766 220.756364 
L 278.44377 274.933437 
M 279.407821 274.933437 
L 279.407825 220.756364 
L 279.407828 274.933437 
M 279.538921 274.933437 
L 279.538925 220.756364 
L 279.538929 274.933437 
M 280.965651 274.933437 
L 280.965654 220.756364 
L 280.965658 274.933437 
M 281.409723 274.933437 
L 281.409727 220.756364 
L 281.40973 274.933437 
M 281.453579 274.933437 
L 281.453583 220.756364 
L 281.453586 274.933437 
M 281.458446 274.933437 
L 281.45845 212.783069 
L 281.460075 274.933437 
M 281.797734 274.933437 
L 281.797737 220.756364 
L 281.79774 274.933437 
M 282.526778 274.933437 
L 282.526781 220.756364 
L 282.526784 274.933437 
M 282.912968 274.933437 
L 282.912971 220.756364 
L 282.912974 274.933437 
M 283.655887 274.933437 
L 283.65589 220.756364 
L 283.655893 274.933437 
M 283.930737 274.933437 
L 283.93074 220.756364 
L 283.930743 274.933437 
M 284.184849 274.933437 
L 284.184852 220.756364 
L 284.184855 274.933437 
M 285.014597 274.933437 
L 285.014601 212.783069 
L 285.014604 274.933437 
M 285.336325 274.933437 
L 285.336328 220.756364 
L 285.336331 274.933437 
M 285.415935 274.933437 
L 285.415937 220.756364 
L 285.41594 274.933437 
M 285.418583 274.933437 
L 285.418585 220.756364 
L 285.418588 274.933437 
M 285.810475 274.933437 
L 285.813073 208.11899 
L 285.813076 274.933437 
M 286.195918 274.933437 
L 286.195921 212.783069 
L 286.195924 274.933437 
M 287.309741 274.933437 
L 287.309743 220.756364 
L 287.309746 274.933437 
M 287.313345 274.933437 
L 287.313347 220.756364 
L 287.31335 274.933437 
M 287.668097 274.933437 
L 287.66928 212.783069 
L 287.669283 274.933437 
M 288.350837 274.933437 
L 288.350839 220.756364 
L 288.350842 274.933437 
M 288.700796 274.933437 
L 288.700798 220.756364 
L 288.700801 274.933437 
M 288.704152 274.933437 
L 288.704155 220.756364 
L 288.704157 274.933437 
M 289.367286 274.933437 
L 289.368369 220.756364 
L 289.368372 274.933437 
M 289.814084 274.933437 
L 289.814086 220.756364 
L 289.814088 274.933437 
M 289.830984 274.933437 
L 289.830987 220.756364 
L 289.830989 274.933437 
M 290.624438 274.933437 
L 290.62444 220.756364 
L 290.624442 274.933437 
M 290.92521 274.933437 
L 290.92621 212.783069 
L 290.926213 274.933437 
M 291.223379 274.933437 
L 291.223381 220.756364 
L 291.223383 274.933437 
M 291.806379 274.933437 
L 291.806381 220.756364 
L 291.806382 274.933437 
M 292.3437 274.933437 
L 292.343702 220.756364 
L 292.343704 274.933437 
M 292.370598 274.933437 
L 292.3706 212.783069 
L 292.370602 274.933437 
M 294.927001 274.933437 
L 294.927003 220.756364 
L 294.927004 274.933437 
M 294.974909 274.933437 
L 294.974911 220.756364 
L 294.974913 274.933437 
M 296.15727 274.933437 
L 296.157271 220.756364 
L 296.157273 274.933437 
M 297.201242 274.933437 
L 297.201244 220.756364 
L 297.201245 274.933437 
M 297.271296 274.933437 
L 297.271297 220.756364 
L 297.271299 274.933437 
M 297.346844 274.933437 
L 297.346846 220.756364 
L 297.346847 274.933437 
M 297.699817 274.933437 
L 297.699818 220.756364 
L 297.699819 274.933437 
M 298.931616 274.933437 
L 298.931618 220.756364 
L 298.931619 274.933437 
M 301.184384 274.933437 
L 301.184385 220.756364 
L 301.184386 274.933437 
M 371.255568 274.933437 
L 371.255568 220.756364 
L 371.255568 220.756364 
" style="fill:none;stroke:#4c72b0;stroke-linecap:round;stroke-width:1.5;"/>
   </g>
   <g id="patch_3">
    <path d="M 51.67375 230.64 
L 51.67375 13.2 
" style="fill:none;stroke:#ffffff;stroke-linecap:square;stroke-linejoin:miter;stroke-width:1.25;"/>
   </g>
   <g id="patch_4">
    <path d="M 386.47375 230.64 
L 386.47375 13.2 
" style="fill:none;stroke:#ffffff;stroke-linecap:square;stroke-linejoin:miter;stroke-width:1.25;"/>
   </g>
   <g id="patch_5">
    <path d="M 51.67375 230.64 
L 386.47375 230.64 
" style="fill:none;stroke:#ffffff;stroke-linecap:square;stroke-linejoin:miter;stroke-width:1.25;"/>
   </g>
   <g id="patch_6">
    <path d="M 51.67375 13.2 
L 386.47375 13.2 
" style="fill:none;stroke:#ffffff;stroke-linecap:square;stroke-linejoin:miter;stroke-width:1.25;"/>
   </g>
  </g>
 </g>
 <defs>
  <clipPath id="p20c4d2994b">
   <rect height="217.44" width="334.8" x="51.67375" y="13.2"/>
  </clipPath>
 </defs>
</svg>
