<svg height="364.8" viewBox="0 0 399.7 273.6" width="532.9" xmlns="http://www.w3.org/2000/svg" xmlns:xlink="http://www.w3.org/1999/xlink"><defs><style>*{stroke-linecap:butt;stroke-linejoin:round}</style></defs><g id="figure_1"><path d="M0 273.6h399.7V0H0z" fill="none" id="patch_1"/><g id="axes_1"><path d="M51.7 230.6h334.8V13.2H51.7z" fill="#eaeaf2" id="patch_2"/><g id="matplotlib.axis_1"><g id="xtick_1"><path clip-path="url(#p1d76c2ff8b)" d="M66.9 230.6V13.2" fill="none" stroke="#fff" stroke-linecap="round" id="line2d_1"/><g id="text_1"><defs><path d="M12.4 8.3h16.1v55.6L11 60.4v9l17.4 3.5h9.9V8.3h16V0H12.5z" id="DejaVuSans-31"/><path d="M31.8 66.4q-7.6 0-11.5-7.5-3.8-7.5-3.8-22.5t3.8-22.5q3.9-7.5 11.5-7.5 7.7 0 11.5 7.5T47 36.4q0 15-3.8 22.5t-11.5 7.5zm0 7.8q12.2 0 18.7-9.7T57 36.4Q57 18 50.5 8.3 44-1.4 31.8-1.4 19.5-1.4 13 8.3q-6.5 9.7-6.5 28 0 18.5 6.5 28.2 6.4 9.7 18.7 9.7z" id="DejaVuSans-30"/></defs><g transform="matrix(.11 0 0 -.11 57.2 248.5)" fill="#262626"><use transform="translate(0 .8)" xlink:href="#DejaVuSans-31"/><use transform="translate(63.6 .8)" xlink:href="#DejaVuSans-30"/><use transform="matrix(.7 0 0 .7 128.2 39)" xlink:href="#DejaVuSans-30"/></g></g></g><g id="xtick_2"><path clip-path="url(#p1d76c2ff8b)" d="M127.3 230.6V13.2" fill="none" stroke="#fff" stroke-linecap="round" id="line2d_2"/><g transform="matrix(.11 0 0 -.11 117.6 248.5)" fill="#262626" id="text_2"><use transform="translate(0 .7)" xlink:href="#DejaVuSans-31"/><use transform="translate(63.6 .7)" xlink:href="#DejaVuSans-30"/><use transform="matrix(.7 0 0 .7 128.2 39)" xlink:href="#DejaVuSans-31"/></g></g><g id="xtick_3"><path clip-path="url(#p1d76c2ff8b)" d="M187.7 230.6V13.2" fill="none" stroke="#fff" stroke-linecap="round" id="line2d_3"/><g id="text_3"><defs><path d="M19.2 8.3h34.4V0H7.3v8.3l15.3 15.6q9.7 9.8 12.2 12.6 4.7 5.3 6.6 9 2 3.7 2 7.3 0 5.8-4.2 9.5-4 3.6-10.6 3.6-4.6 0-9.8-1.6-5.1-1.6-11-4.9v10q6 2.4 11.1 3.6 5.2 1.2 9.5 1.2 11.4 0 18-5.7 6.8-5.6 6.8-15 0-4.6-1.7-8.6-1.6-4-6-9.5l-7.9-8.2L19.2 8.3z" id="DejaVuSans-32"/></defs><g transform="matrix(.11 0 0 -.11 178 248.5)" fill="#262626"><use transform="translate(0 .8)" xlink:href="#DejaVuSans-31"/><use transform="translate(63.6 .8)" xlink:href="#DejaVuSans-30"/><use transform="matrix(.7 0 0 .7 128.2 39)" xlink:href="#DejaVuSans-32"/></g></g></g><g id="xtick_4"><path clip-path="url(#p1d76c2ff8b)" d="M248.1 230.6V13.2" fill="none" stroke="#fff" stroke-linecap="round" id="line2d_4"/><g id="text_4"><defs><path d="M40.6 39.3q7-1.5 11-6.3t4-11.8q0-10.8-7.4-16.7-7.4-6-21.1-6-4.6 0-9.4 1-4.9.9-10 2.7v9.5q4-2.4 8.9-3.6Q21.5 7 26.8 7q9.3 0 14.1 3.6 4.9 3.7 4.9 10.7 0 6.4-4.5 10Q36.8 35 28.7 35h-8.5V43h9q7.2 0 11 3 3.9 2.8 3.9 8.3 0 5.6-4 8.6t-11.4 3q-4 0-8.7-.9-4.6-.8-10.2-2.7v8.8q5.6 1.6 10.5 2.3 5 .8 9.3.8 11.2 0 17.8-5 6.5-5.2 6.5-13.9 0-6-3.5-10.2-3.4-4.2-9.8-5.8z" id="DejaVuSans-33"/></defs><g transform="matrix(.11 0 0 -.11 238.4 248.5)" fill="#262626"><use transform="translate(0 .8)" xlink:href="#DejaVuSans-31"/><use transform="translate(63.6 .8)" xlink:href="#DejaVuSans-30"/><use transform="matrix(.7 0 0 .7 128.2 39)" xlink:href="#DejaVuSans-33"/></g></g></g><g id="xtick_5"><path clip-path="url(#p1d76c2ff8b)" d="M308.5 230.6V13.2" fill="none" stroke="#fff" stroke-linecap="round" id="line2d_5"/><g id="text_5"><defs><path d="M37.8 64.3l-25-39h25zM35.2 73h12.4V25.4H58v-8.2H47.6V0h-9.8v17.2h-33v9.5z" id="DejaVuSans-34"/></defs><g transform="matrix(.11 0 0 -.11 298.8 248.5)" fill="#262626"><use transform="translate(0 .7)" xlink:href="#DejaVuSans-31"/><use transform="translate(63.6 .7)" xlink:href="#DejaVuSans-30"/><use transform="matrix(.7 0 0 .7 128.2 39)" xlink:href="#DejaVuSans-34"/></g></g></g><g id="xtick_6"><path clip-path="url(#p1d76c2ff8b)" d="M368.9 230.6V13.2" fill="none" stroke="#fff" stroke-linecap="round" id="line2d_6"/><g id="text_6"><defs><path d="M10.8 73h38.7v-8.4H19.8V46.7q2.2.8 4.3 1.1 2.2.4 4.3.4 12.2 0 19.4-6.7 7-6.7 7-18.1 0-11.8-7.2-18.3-7.4-6.5-20.7-6.5-4.6 0-9.4.8-4.7.7-9.8 2.3v10q4.4-2.5 9.1-3.6 4.7-1.2 9.9-1.2 8.5 0 13.4 4.4 5 4.5 5 12 0 7.7-5 12.1Q35 40 26.7 40q-4 0-7.9-.9-4-.9-8-2.7z" id="DejaVuSans-35"/></defs><g transform="matrix(.11 0 0 -.11 359.2 248.5)" fill="#262626"><use transform="translate(0 .7)" xlink:href="#DejaVuSans-31"/><use transform="translate(63.6 .7)" xlink:href="#DejaVuSans-30"/><use transform="matrix(.7 0 0 .7 128.2 39)" xlink:href="#DejaVuSans-35"/></g></g></g><g id="text_7"><defs><path d="M41.1 46.3q-1.5.9-3.3 1.3-1.8.4-4 .4-7.5 0-11.6-5-4-5-4-14.2V0H9v54.7h9v-8.5q2.9 5 7.4 7.4Q30 56 36.5 56l2-.1 2.6-.4z" id="DejaVuSans-72"/><path d="M8.7 73h10V28.5q0-11.7 4.1-16.9 4.3-5.1 13.8-5.1t13.7 5.1q4.3 5.2 4.3 17v44.2h9.9V27.4q0-14.3-7-21.5-7.1-7.3-20.9-7.3-13.8 0-20.9 7.3-7 7.2-7 21.5z" id="DejaVuSans-55"/><path d="M9.4 54.7h9V0h-9zm0 21.3h9V64.6h-9z" id="DejaVuSans-69"/><path d="M14.8 27.3q0-10 4-15.6Q23 6.2 30.2 6.2q7.1 0 11.2 5.7 4.1 5.6 4.1 15.5t-4.1 15.5q-4.1 5.7-11.2 5.7t-11.2-5.7q-4.1-5.6-4.1-15.5zM45.4 8.2Q42.6 3.3 38.3 1q-4.4-2.4-10.4-2.4-10 0-16.2 7.9-6.2 8-6.2 20.8 0 12.9 6.2 20.8Q18 56 28 56q6 0 10.4-2.4 4.3-2.3 7.1-7.2v8.3h9v-75.5h-9z" id="DejaVuSans-71"/><path d="M8.5 21.6v33h9V22q0-7.7 3-11.6 3-4 9-4 7.4 0 11.6 4.7 4.2 4.7 4.2 12.7v31h9V0h-9v8.4Q42 3.4 37.7 1q-4.3-2.4-10-2.4-9.4 0-14.3 5.8-4.9 5.9-4.9 17.2zM31.1 56z" id="DejaVuSans-75"/><path d="M56.2 29.6v-4.4H14.9q.6-9.3 5.6-14.1 5-4.9 14-4.9 5 0 10 1.3 4.8 1.2 9.6 3.8V2.8q-4.8-2-10-3.1-5-1.1-10.2-1.1-13.1 0-20.7 7.6-7.7 7.6-7.7 20.6 0 13.4 7.3 21.3Q20 56 32.3 56q11 0 17.5-7.1 6.4-7.1 6.4-19.3zm-9 2.6q0 7.4-4.1 11.8-4 4.4-10.7 4.4-7.5 0-12-4.3-4.5-4.2-5.2-12z" id="DejaVuSans-65"/><path d="M52 44.2q3.4 6 8 9Q64.9 56 71 56q8.6 0 13.3-6 4.6-6 4.6-17V0h-9v32.7q0 7.9-2.8 11.7-2.8 3.8-8.5 3.8-7 0-11-4.7-4-4.6-4-12.6V0h-9.1v32.7q0 8-2.8 11.7-2.8 3.8-8.6 3.8-6.9 0-11-4.7-4-4.6-4-12.6V0h-9v54.7h9v-8.5q3 5 7.4 7.4Q29.8 56 35.7 56q6 0 10.1-3 4.2-3 6.2-8.8z" id="DejaVuSans-6d"/><path d="M54.9 33V0h-9v32.7q0 7.8-3 11.6-3 3.9-9.1 3.9-7.3 0-11.5-4.7Q18.1 39 18.1 31V0h-9v54.7h9v-8.5q3.2 5 7.6 7.4Q30.1 56 35.8 56q9.4 0 14.2-5.8Q55 44.3 55 33z" id="DejaVuSans-6e"/><path d="M48.8 52.6v-8.4Q45 46.3 41 47.3q-3.8 1-7.7 1-8.7 0-13.6-5.5Q15 37.3 15 27.3t4.8-15.6q4.9-5.5 13.6-5.5 4 0 7.7 1 3.9 1.1 7.7 3.2V2.1Q45 .3 41-.5q-4-1-8.6-1-12.3 0-19.6 7.8-7.3 7.8-7.3 21 0 13.4 7.4 21Q20.2 56 33 56q4.2 0 8.1-.9 4-.8 7.7-2.5z" id="DejaVuSans-63"/><path d="M54.9 33V0h-9v32.7q0 7.8-3 11.6-3 3.9-9.1 3.9-7.3 0-11.5-4.7Q18.1 39 18.1 31V0h-9v76h9V46.2q3.2 5 7.6 7.4Q30.1 56 35.8 56q9.4 0 14.2-5.8Q55 44.3 55 33z" id="DejaVuSans-68"/><path d="M34.3 27.5q-11 0-15.1-2.5-4.2-2.5-4.2-8.5 0-4.8 3.1-7.6 3.2-2.8 8.6-2.8 7.5 0 12 5.3t4.5 14v2zm17.9 3.7V0h-9v8.3q-3-5-7.7-7.3Q31-1.4 24.3-1.4 16-1.4 11 3.3 6 8 6 15.9q0 9.2 6.2 14 6.2 4.6 18.4 4.6h12.6v1q0 6.1-4 9.5-4.1 3.4-11.5 3.4-4.7 0-9.2-1.1-4.4-1.2-8.5-3.4v8.3q5 2 9.6 2.8 4.6 1 9 1 11.9 0 17.7-6.2 5.9-6.1 5.9-18.6z" id="DejaVuSans-61"/><path d="M18.3 70.2V54.7h18.5v-7H18.3V18q0-6.7 1.8-8.6 1.9-1.9 7.5-1.9h9.2V0h-9.2Q17.2 0 13.2 3.9T9.2 18v29.7H2.8v7h6.6v15.5z" id="DejaVuSans-74"/><path d="M45.4 28q0 9.8-4 15.1-4 5.4-11.3 5.4-7.2 0-11.3-5.4-4-5.4-4-15.1t4-15.1q4-5.4 11.3-5.4 7.3 0 11.3 5.4 4 5.4 4 15zm9-21.2q0-14-6.2-20.8-6.2-6.8-19-6.8-4.7 0-9 .7-4.1.7-8 2.2v8.7q3.9-2.1 7.7-3.1 3.9-1 7.9-1 8.8 0 13.2 4.5 4.4 4.6 4.4 14v4.4q-2.8-4.8-7.1-7.2Q33.9 0 27.9 0q-10 0-16.2 7.7Q5.5 15.3 5.5 28q0 12.7 6.2 20.3Q17.8 56 27.9 56q6 0 10.4-2.4 4.3-2.4 7.1-7.2v8.3h9z" id="DejaVuSans-67"/><path d="M30.6 48.4q-7.2 0-11.4-5.6Q15 37 15 27.3t4.2-15.5q4.1-5.6 11.4-5.6 7.2 0 11.4 5.7 4.2 5.6 4.2 15.4 0 9.7-4.2 15.4-4.2 5.7-11.4 5.7zm0 7.6q11.7 0 18.4-7.6 6.7-7.6 6.7-21.1 0-13.4-6.7-21-6.7-7.7-18.4-7.7-11.8 0-18.4 7.6Q5.5 14 5.5 27.3q0 13.5 6.7 21Q18.8 56 30.6 56z" id="DejaVuSans-6f"/><path d="M18.1 8.2v-29h-9v75.5h9v-8.3q2.9 4.9 7.2 7.2Q29.6 56 35.6 56q10 0 16.2-8Q58 40.3 58 27.4q0-12.9-6.2-20.8-6.2-8-16.2-8-6 0-10.3 2.5Q21 3.3 18 8.2zm30.6 19.1q0 9.9-4 15.5-4.2 5.7-11.3 5.7-7.1 0-11.2-5.7-4-5.6-4-15.5 0-10 4-15.6t11.2-5.6q7.1 0 11.2 5.7 4 5.6 4 15.5z" id="DejaVuSans-70"/></defs><g transform="matrix(.12 0 0 -.12 147.6 263.9)" fill="#262626"><use xlink:href="#DejaVuSans-55"/><use x="73.2" xlink:href="#DejaVuSans-6e"/><use x="136.6" xlink:href="#DejaVuSans-69"/><use x="164.4" xlink:href="#DejaVuSans-71"/><use x="227.8" xlink:href="#DejaVuSans-75"/><use x="291.2" xlink:href="#DejaVuSans-65"/><use x="352.7" xlink:href="#DejaVuSans-20"/><use x="384.5" xlink:href="#DejaVuSans-6d"/><use x="481.9" xlink:href="#DejaVuSans-65"/><use x="543.5" xlink:href="#DejaVuSans-72"/><use x="584.5" xlink:href="#DejaVuSans-63"/><use x="639.5" xlink:href="#DejaVuSans-68"/><use x="702.9" xlink:href="#DejaVuSans-61"/><use x="764.2" xlink:href="#DejaVuSans-6e"/><use x="827.6" xlink:href="#DejaVuSans-74"/><use x="866.8" xlink:href="#DejaVuSans-20"/><use x="898.6" xlink:href="#DejaVuSans-67"/><use x="962" xlink:href="#DejaVuSans-72"/><use x="1003.1" xlink:href="#DejaVuSans-6f"/><use x="1064.3" xlink:href="#DejaVuSans-75"/><use x="1127.7" xlink:href="#DejaVuSans-70"/></g></g></g><g id="matplotlib.axis_2"><g id="ytick_1"><path clip-path="url(#p1d76c2ff8b)" d="M51.7 220.8h334.8" fill="none" stroke="#fff" stroke-linecap="round" id="line2d_7"/><g transform="matrix(.11 0 0 -.11 22.8 225)" fill="#262626" id="text_8"><use transform="translate(0 .8)" xlink:href="#DejaVuSans-31"/><use transform="translate(63.6 .8)" xlink:href="#DejaVuSans-30"/><use transform="matrix(.7 0 0 .7 128.2 39)" xlink:href="#DejaVuSans-30"/></g></g><g id="ytick_2"><path clip-path="url(#p1d76c2ff8b)" d="M51.7 178.4h334.8" fill="none" stroke="#fff" stroke-linecap="round" id="line2d_8"/><g transform="matrix(.11 0 0 -.11 22.8 182.5)" fill="#262626" id="text_9"><use transform="translate(0 .7)" xlink:href="#DejaVuSans-31"/><use transform="translate(63.6 .7)" xlink:href="#DejaVuSans-30"/><use transform="matrix(.7 0 0 .7 128.2 39)" xlink:href="#DejaVuSans-31"/></g></g><g id="ytick_3"><path clip-path="url(#p1d76c2ff8b)" d="M51.7 136h334.8" fill="none" stroke="#fff" stroke-linecap="round" id="line2d_9"/><g transform="matrix(.11 0 0 -.11 22.8 140.1)" fill="#262626" id="text_10"><use transform="translate(0 .8)" xlink:href="#DejaVuSans-31"/><use transform="translate(63.6 .8)" xlink:href="#DejaVuSans-30"/><use transform="matrix(.7 0 0 .7 128.2 39)" xlink:href="#DejaVuSans-32"/></g></g><g id="ytick_4"><path clip-path="url(#p1d76c2ff8b)" d="M51.7 93.6h334.8" fill="none" stroke="#fff" stroke-linecap="round" id="line2d_10"/><g transform="matrix(.11 0 0 -.11 22.8 97.7)" fill="#262626" id="text_11"><use transform="translate(0 .8)" xlink:href="#DejaVuSans-31"/><use transform="translate(63.6 .8)" xlink:href="#DejaVuSans-30"/><use transform="matrix(.7 0 0 .7 128.2 39)" xlink:href="#DejaVuSans-33"/></g></g><g id="ytick_5"><path clip-path="url(#p1d76c2ff8b)" d="M51.7 51.2h334.8" fill="none" stroke="#fff" stroke-linecap="round" id="line2d_11"/><g transform="matrix(.11 0 0 -.11 22.8 55.4)" fill="#262626" id="text_12"><use transform="translate(0 .7)" xlink:href="#DejaVuSans-31"/><use transform="translate(63.6 .7)" xlink:href="#DejaVuSans-30"/><use transform="matrix(.7 0 0 .7 128.2 39)" xlink:href="#DejaVuSans-34"/></g></g><g id="text_13"><defs><path d="M9.8 73h13.3l32.3-61v61H65V0H51.7L19.4 61V0H9.8z" id="DejaVuSans-4e"/><path d="M48.7 27.3q0 9.9-4 15.5-4.2 5.7-11.3 5.7-7.1 0-11.2-5.7-4-5.6-4-15.5 0-10 4-15.6t11.2-5.6q7.1 0 11.2 5.7 4 5.6 4 15.5zM18 46.3q2.9 5 7.2 7.3Q29.6 56 35.6 56q10 0 16.2-8Q58 40.3 58 27.4q0-12.9-6.2-20.8-6.2-8-16.2-8-6 0-10.3 2.5Q21 3.3 18 8.2V0h-9v76h9z" id="DejaVuSans-62"/><path d="M37.1 76v-7.5h-8.6q-4.8 0-6.7-2-1.9-2-1.9-7v-4.8h14.8v-7H20V0h-9v47.7H2.3v7h8.6v3.8q0 9.1 4.2 13.3Q19.4 76 28.6 76z" id="DejaVuSans-66"/><path d="M44.3 53v-8.4q-3.8 2-8 2.9-4 1-8.4 1-6.7 0-10-2-3.4-2.1-3.4-6.2 0-3.1 2.4-5 2.4-1.7 9.6-3.3l3-.7q9.7-2 13.7-5.8 4-3.7 4-10.4 0-7.6-6-12-6-4.5-16.6-4.5-4.4 0-9.1.8-4.8.9-10 2.6v9.3q5-2.6 9.7-4 4.9-1.2 9.6-1.2 6.4 0 9.8 2.2 3.4 2.2 3.4 6.1 0 3.7-2.5 5.6-2.4 2-10.8 3.8l-3.1.7q-8.4 1.8-12 5.4-3.8 3.6-3.8 10 0 7.7 5.5 11.9Q16.7 56 26.8 56q5 0 9.4-.7 4.4-.8 8-2.2z" id="DejaVuSans-73"/></defs><g transform="matrix(0 -.12 -.12 0 16.3 187.7)" fill="#262626"><use xlink:href="#DejaVuSans-4e"/><use x="74.8" xlink:href="#DejaVuSans-75"/><use x="138.2" xlink:href="#DejaVuSans-6d"/><use x="235.6" xlink:href="#DejaVuSans-62"/><use x="299.1" xlink:href="#DejaVuSans-65"/><use x="360.6" xlink:href="#DejaVuSans-72"/><use x="401.7" xlink:href="#DejaVuSans-20"/><use x="433.5" xlink:href="#DejaVuSans-6f"/><use x="494.7" xlink:href="#DejaVuSans-66"/><use x="529.9" xlink:href="#DejaVuSans-20"/><use x="561.7" xlink:href="#DejaVuSans-6d"/><use x="659.1" xlink:href="#DejaVuSans-65"/><use x="720.6" xlink:href="#DejaVuSans-72"/><use x="761.7" xlink:href="#DejaVuSans-63"/><use x="816.7" xlink:href="#DejaVuSans-68"/><use x="880" xlink:href="#DejaVuSans-61"/><use x="941.3" xlink:href="#DejaVuSans-6e"/><use x="1004.7" xlink:href="#DejaVuSans-74"/><use x="1043.9" xlink:href="#DejaVuSans-73"/></g></g></g><path clip-path="url(#p1d76c2ff8b)" d="M66.9 23L85 107l10.6 5.1 7.6 1.7 10.6 3 4 .5 3.5 1.3 3.1.6 2.8 1 2.5 1.7 4.4.1 2 .4 1.7.4 1.7.2 1.6.6 1.5.4h1.4l1.4 1 1.3.5 1.2.2 1.1.6h1.2l1 .6 1 .3 1 .5 1 1.4h1l.8.2.9.3 1.6.3h.8l.8.5.7.2.7.3h1.4l.7.7.6.1h.6l.7.2.6.3.5.6 1.7 1h.6l.5.2h.5l1 .7.5.2.5 1h.5l.5.6h.4l.5.4h.4l.4.2h.5l.4.4h.4l.4.4.8.4h.4l.4.2h.7l.4.2h.7l.3.7h.4l.3.2h.7l.7.5h1.2l.6.4h.3l.3.5h.3l.3.3h.3l.3.2h.3l.3.3h.2l.3.2h.5l.3.3h.5l.3.2h.2l.5.6h.8l.2.2h.5l.2.9h.7l.2.3h.5l.2.3h1.3l.2.3h.6l.2.3h1l.3.6h.2l.2.3h.2l.2.3h.4l.1.4h1.1l.2.3h.8l.2.4h.5l.2.3h1.2l.2.4h.7l.2.3h.7l.1.4h1.7l.1.4h1.2l.2.4h.8l.2.4h1v.4h1.3l.2.4h.7l.2.4h1.2l.2.4h1.4l.2.5h1.2l.1.4h1l.1.5h1.5l.1.5h1l.2.5h.8l.2.5h1.4l.2.5h.9l.1.5h1.9l.1.6h1.7v.5h1.6v.6h1.5l.1.6h2.2l.2.7h1.7l.1.6h1.5l.1.7h1.6v.7h2l.1.7h1.6l.2.7h1.4l.2.8h1.5l.1.8h1.8v.9h2.6l.1.9h2.3l.1 1h2.2v1h2.7l.1 1h2.8l.1 1.1h2.8l.1 1.2h3l.1 1.3h3.1l.1 1.3h3.4l.1 1.5h3.8v1.6h4l.1 1.8h4l.2 1.9h4.6v2.2h5.4l.1 2.4h6v2.9h6.5l.1 3.3h7.7l.1 4.1h9l.2 5.3h11.2l.1 7.5h15.2l.2 12.8h21" fill="none" stroke="#4c72b0" stroke-linecap="round" stroke-width="1.5" id="line2d_12"/><path d="M51.7 230.6V13.2" fill="none" stroke="#fff" stroke-linecap="square" stroke-width="1.3" id="patch_3"/><path d="M386.5 230.6V13.2" fill="none" stroke="#fff" stroke-linecap="square" stroke-width="1.3" id="patch_4"/><path d="M51.7 230.6h334.8" fill="none" stroke="#fff" stroke-linecap="square" stroke-width="1.3" id="patch_5"/><path d="M51.7 13.2h334.8" fill="none" stroke="#fff" stroke-linecap="square" stroke-width="1.3" id="patch_6"/></g></g><defs><clipPath id="p1d76c2ff8b"><path d="M51.7 13.2h334.8v217.4H51.7z"/></clipPath></defs></svg>