<?xml version="1.0" encoding="utf-8" standalone="no"?>
<!DOCTYPE svg PUBLIC "-//W3C//DTD SVG 1.1//EN"
  "http://www.w3.org/Graphics/SVG/1.1/DTD/svg11.dtd">
<!-- Created with matplotlib (http://matplotlib.org/) -->
<svg height="283.051562pt" version="1.1" viewBox="0 0 399.67375 283.051562" width="399.67375pt" xmlns="http://www.w3.org/2000/svg" xmlns:xlink="http://www.w3.org/1999/xlink">
 <defs>
  <style type="text/css">
*{stroke-linecap:butt;stroke-linejoin:round;}
  </style>
 </defs>
 <g id="figure_1">
  <g id="patch_1">
   <path d="M 0 283.051562 
L 399.67375 283.051562 
L 399.67375 0 
L 0 0 
z
" style="fill:none;"/>
  </g>
  <g id="axes_1">
   <g id="patch_2">
    <path d="M 51.67375 239.758125 
L 386.47375 239.758125 
L 386.47375 22.318125 
L 51.67375 22.318125 
z
" style="fill:#eaeaf2;"/>
   </g>
   <g id="matplotlib.axis_1">
    <g id="xtick_1">
     <g id="line2d_1">
      <path clip-path="url(#p71ebd2aa54)" d="M 66.891932 239.758125 
L 66.891932 22.318125 
" style="fill:none;stroke:#ffffff;stroke-linecap:round;"/>
     </g>
     <g id="text_1">
      <!-- $\mathdefault{10^{0}}$ -->
      <defs>
       <path d="M 12.40625 8.296875 
L 28.515625 8.296875 
L 28.515625 63.921875 
L 10.984375 60.40625 
L 10.984375 69.390625 
L 28.421875 72.90625 
L 38.28125 72.90625 
L 38.28125 8.296875 
L 54.390625 8.296875 
L 54.390625 0 
L 12.40625 0 
z
" id="DejaVuSans-31"/>
       <path d="M 31.78125 66.40625 
Q 24.171875 66.40625 20.328125 58.90625 
Q 16.5 51.421875 16.5 36.375 
Q 16.5 21.390625 20.328125 13.890625 
Q 24.171875 6.390625 31.78125 6.390625 
Q 39.453125 6.390625 43.28125 13.890625 
Q 47.125 21.390625 47.125 36.375 
Q 47.125 51.421875 43.28125 58.90625 
Q 39.453125 66.40625 31.78125 66.40625 
z
M 31.78125 74.21875 
Q 44.046875 74.21875 50.515625 64.515625 
Q 56.984375 54.828125 56.984375 36.375 
Q 56.984375 17.96875 50.515625 8.265625 
Q 44.046875 -1.421875 31.78125 -1.421875 
Q 19.53125 -1.421875 13.0625 8.265625 
Q 6.59375 17.96875 6.59375 36.375 
Q 6.59375 54.828125 13.0625 64.515625 
Q 19.53125 74.21875 31.78125 74.21875 
z
" id="DejaVuSans-30"/>
      </defs>
      <g style="fill:#262626;" transform="translate(57.211932 257.616406)scale(0.11 -0.11)">
       <use transform="translate(0 0.765625)" xlink:href="#DejaVuSans-31"/>
       <use transform="translate(63.623047 0.765625)" xlink:href="#DejaVuSans-30"/>
       <use transform="translate(128.203125 39.046875)scale(0.7)" xlink:href="#DejaVuSans-30"/>
      </g>
     </g>
    </g>
    <g id="xtick_2">
     <g id="line2d_2">
      <path clip-path="url(#p71ebd2aa54)" d="M 121.984673 239.758125 
L 121.984673 22.318125 
" style="fill:none;stroke:#ffffff;stroke-linecap:round;"/>
     </g>
     <g id="text_2">
      <!-- $\mathdefault{10^{1}}$ -->
      <g style="fill:#262626;" transform="translate(112.304673 257.616406)scale(0.11 -0.11)">
       <use transform="translate(0 0.684375)" xlink:href="#DejaVuSans-31"/>
       <use transform="translate(63.623047 0.684375)" xlink:href="#DejaVuSans-30"/>
       <use transform="translate(128.203125 38.965625)scale(0.7)" xlink:href="#DejaVuSans-31"/>
      </g>
     </g>
    </g>
    <g id="xtick_3">
     <g id="line2d_3">
      <path clip-path="url(#p71ebd2aa54)" d="M 177.077414 239.758125 
L 177.077414 22.318125 
" style="fill:none;stroke:#ffffff;stroke-linecap:round;"/>
     </g>
     <g id="text_3">
      <!-- $\mathdefault{10^{2}}$ -->
      <defs>
       <path d="M 19.1875 8.296875 
L 53.609375 8.296875 
L 53.609375 0 
L 7.328125 0 
L 7.328125 8.296875 
Q 12.9375 14.109375 22.625 23.890625 
Q 32.328125 33.6875 34.8125 36.53125 
Q 39.546875 41.84375 41.421875 45.53125 
Q 43.3125 49.21875 43.3125 52.78125 
Q 43.3125 58.59375 39.234375 62.25 
Q 35.15625 65.921875 28.609375 65.921875 
Q 23.96875 65.921875 18.8125 64.3125 
Q 13.671875 62.703125 7.8125 59.421875 
L 7.8125 69.390625 
Q 13.765625 71.78125 18.9375 73 
Q 24.125 74.21875 28.421875 74.21875 
Q 39.75 74.21875 46.484375 68.546875 
Q 53.21875 62.890625 53.21875 53.421875 
Q 53.21875 48.921875 51.53125 44.890625 
Q 49.859375 40.875 45.40625 35.40625 
Q 44.1875 33.984375 37.640625 27.21875 
Q 31.109375 20.453125 19.1875 8.296875 
z
" id="DejaVuSans-32"/>
      </defs>
      <g style="fill:#262626;" transform="translate(167.397414 257.616406)scale(0.11 -0.11)">
       <use transform="translate(0 0.765625)" xlink:href="#DejaVuSans-31"/>
       <use transform="translate(63.623047 0.765625)" xlink:href="#DejaVuSans-30"/>
       <use transform="translate(128.203125 39.046875)scale(0.7)" xlink:href="#DejaVuSans-32"/>
      </g>
     </g>
    </g>
    <g id="xtick_4">
     <g id="line2d_4">
      <path clip-path="url(#p71ebd2aa54)" d="M 232.170155 239.758125 
L 232.170155 22.318125 
" style="fill:none;stroke:#ffffff;stroke-linecap:round;"/>
     </g>
     <g id="text_4">
      <!-- $\mathdefault{10^{3}}$ -->
      <defs>
       <path d="M 40.578125 39.3125 
Q 47.65625 37.796875 51.625 33 
Q 55.609375 28.21875 55.609375 21.1875 
Q 55.609375 10.40625 48.1875 4.484375 
Q 40.765625 -1.421875 27.09375 -1.421875 
Q 22.515625 -1.421875 17.65625 -0.515625 
Q 12.796875 0.390625 7.625 2.203125 
L 7.625 11.71875 
Q 11.71875 9.328125 16.59375 8.109375 
Q 21.484375 6.890625 26.8125 6.890625 
Q 36.078125 6.890625 40.9375 10.546875 
Q 45.796875 14.203125 45.796875 21.1875 
Q 45.796875 27.640625 41.28125 31.265625 
Q 36.765625 34.90625 28.71875 34.90625 
L 20.21875 34.90625 
L 20.21875 43.015625 
L 29.109375 43.015625 
Q 36.375 43.015625 40.234375 45.921875 
Q 44.09375 48.828125 44.09375 54.296875 
Q 44.09375 59.90625 40.109375 62.90625 
Q 36.140625 65.921875 28.71875 65.921875 
Q 24.65625 65.921875 20.015625 65.03125 
Q 15.375 64.15625 9.8125 62.3125 
L 9.8125 71.09375 
Q 15.4375 72.65625 20.34375 73.4375 
Q 25.25 74.21875 29.59375 74.21875 
Q 40.828125 74.21875 47.359375 69.109375 
Q 53.90625 64.015625 53.90625 55.328125 
Q 53.90625 49.265625 50.4375 45.09375 
Q 46.96875 40.921875 40.578125 39.3125 
z
" id="DejaVuSans-33"/>
      </defs>
      <g style="fill:#262626;" transform="translate(222.490155 257.616406)scale(0.11 -0.11)">
       <use transform="translate(0 0.765625)" xlink:href="#DejaVuSans-31"/>
       <use transform="translate(63.623047 0.765625)" xlink:href="#DejaVuSans-30"/>
       <use transform="translate(128.203125 39.046875)scale(0.7)" xlink:href="#DejaVuSans-33"/>
      </g>
     </g>
    </g>
    <g id="xtick_5">
     <g id="line2d_5">
      <path clip-path="url(#p71ebd2aa54)" d="M 287.262896 239.758125 
L 287.262896 22.318125 
" style="fill:none;stroke:#ffffff;stroke-linecap:round;"/>
     </g>
     <g id="text_5">
      <!-- $\mathdefault{10^{4}}$ -->
      <defs>
       <path d="M 37.796875 64.3125 
L 12.890625 25.390625 
L 37.796875 25.390625 
z
M 35.203125 72.90625 
L 47.609375 72.90625 
L 47.609375 25.390625 
L 58.015625 25.390625 
L 58.015625 17.1875 
L 47.609375 17.1875 
L 47.609375 0 
L 37.796875 0 
L 37.796875 17.1875 
L 4.890625 17.1875 
L 4.890625 26.703125 
z
" id="DejaVuSans-34"/>
      </defs>
      <g style="fill:#262626;" transform="translate(277.582896 257.616406)scale(0.11 -0.11)">
       <use transform="translate(0 0.684375)" xlink:href="#DejaVuSans-31"/>
       <use transform="translate(63.623047 0.684375)" xlink:href="#DejaVuSans-30"/>
       <use transform="translate(128.203125 38.965625)scale(0.7)" xlink:href="#DejaVuSans-34"/>
      </g>
     </g>
    </g>
    <g id="xtick_6">
     <g id="line2d_6">
      <path clip-path="url(#p71ebd2aa54)" d="M 342.355637 239.758125 
L 342.355637 22.318125 
" style="fill:none;stroke:#ffffff;stroke-linecap:round;"/>
     </g>
     <g id="text_6">
      <!-- $\mathdefault{10^{5}}$ -->
      <defs>
       <path d="M 10.796875 72.90625 
L 49.515625 72.90625 
L 49.515625 64.59375 
L 19.828125 64.59375 
L 19.828125 46.734375 
Q 21.96875 47.46875 24.109375 47.828125 
Q 26.265625 48.1875 28.421875 48.1875 
Q 40.625 48.1875 47.75 41.5 
Q 54.890625 34.8125 54.890625 23.390625 
Q 54.890625 11.625 47.5625 5.09375 
Q 40.234375 -1.421875 26.90625 -1.421875 
Q 22.3125 -1.421875 17.546875 -0.640625 
Q 12.796875 0.140625 7.71875 1.703125 
L 7.71875 11.625 
Q 12.109375 9.234375 16.796875 8.0625 
Q 21.484375 6.890625 26.703125 6.890625 
Q 35.15625 6.890625 40.078125 11.328125 
Q 45.015625 15.765625 45.015625 23.390625 
Q 45.015625 31 40.078125 35.4375 
Q 35.15625 39.890625 26.703125 39.890625 
Q 22.75 39.890625 18.8125 39.015625 
Q 14.890625 38.140625 10.796875 36.28125 
z
" id="DejaVuSans-35"/>
      </defs>
      <g style="fill:#262626;" transform="translate(332.675637 257.616406)scale(0.11 -0.11)">
       <use transform="translate(0 0.684375)" xlink:href="#DejaVuSans-31"/>
       <use transform="translate(63.623047 0.684375)" xlink:href="#DejaVuSans-30"/>
       <use transform="translate(128.203125 38.965625)scale(0.7)" xlink:href="#DejaVuSans-35"/>
      </g>
     </g>
    </g>
    <g id="xtick_7"/>
    <g id="xtick_8"/>
    <g id="xtick_9"/>
    <g id="xtick_10"/>
    <g id="xtick_11"/>
    <g id="xtick_12"/>
    <g id="xtick_13"/>
    <g id="xtick_14"/>
    <g id="xtick_15"/>
    <g id="xtick_16"/>
    <g id="xtick_17"/>
    <g id="xtick_18"/>
    <g id="xtick_19"/>
    <g id="xtick_20"/>
    <g id="xtick_21"/>
    <g id="xtick_22"/>
    <g id="xtick_23"/>
    <g id="xtick_24"/>
    <g id="xtick_25"/>
    <g id="xtick_26"/>
    <g id="xtick_27"/>
    <g id="xtick_28"/>
    <g id="xtick_29"/>
    <g id="xtick_30"/>
    <g id="xtick_31"/>
    <g id="xtick_32"/>
    <g id="xtick_33"/>
    <g id="xtick_34"/>
    <g id="xtick_35"/>
    <g id="xtick_36"/>
    <g id="xtick_37"/>
    <g id="xtick_38"/>
    <g id="xtick_39"/>
    <g id="xtick_40"/>
    <g id="xtick_41"/>
    <g id="xtick_42"/>
    <g id="xtick_43"/>
    <g id="xtick_44"/>
    <g id="xtick_45"/>
    <g id="xtick_46"/>
    <g id="xtick_47"/>
    <g id="xtick_48"/>
    <g id="xtick_49"/>
    <g id="xtick_50"/>
    <g id="xtick_51"/>
    <g id="xtick_52"/>
    <g id="xtick_53"/>
    <g id="xtick_54"/>
    <g id="xtick_55"/>
    <g id="text_7">
     <!-- Unique merchant_id -->
     <defs>
      <path d="M 8.6875 72.90625 
L 18.609375 72.90625 
L 18.609375 28.609375 
Q 18.609375 16.890625 22.84375 11.734375 
Q 27.09375 6.59375 36.625 6.59375 
Q 46.09375 6.59375 50.34375 11.734375 
Q 54.59375 16.890625 54.59375 28.609375 
L 54.59375 72.90625 
L 64.5 72.90625 
L 64.5 27.390625 
Q 64.5 13.140625 57.4375 5.859375 
Q 50.390625 -1.421875 36.625 -1.421875 
Q 22.796875 -1.421875 15.734375 5.859375 
Q 8.6875 13.140625 8.6875 27.390625 
z
" id="DejaVuSans-55"/>
      <path d="M 54.890625 33.015625 
L 54.890625 0 
L 45.90625 0 
L 45.90625 32.71875 
Q 45.90625 40.484375 42.875 44.328125 
Q 39.84375 48.1875 33.796875 48.1875 
Q 26.515625 48.1875 22.3125 43.546875 
Q 18.109375 38.921875 18.109375 30.90625 
L 18.109375 0 
L 9.078125 0 
L 9.078125 54.6875 
L 18.109375 54.6875 
L 18.109375 46.1875 
Q 21.34375 51.125 25.703125 53.5625 
Q 30.078125 56 35.796875 56 
Q 45.21875 56 50.046875 50.171875 
Q 54.890625 44.34375 54.890625 33.015625 
z
" id="DejaVuSans-6e"/>
      <path d="M 9.421875 54.6875 
L 18.40625 54.6875 
L 18.40625 0 
L 9.421875 0 
z
M 9.421875 75.984375 
L 18.40625 75.984375 
L 18.40625 64.59375 
L 9.421875 64.59375 
z
" id="DejaVuSans-69"/>
      <path d="M 14.796875 27.296875 
Q 14.796875 17.390625 18.875 11.75 
Q 22.953125 6.109375 30.078125 6.109375 
Q 37.203125 6.109375 41.296875 11.75 
Q 45.40625 17.390625 45.40625 27.296875 
Q 45.40625 37.203125 41.296875 42.84375 
Q 37.203125 48.484375 30.078125 48.484375 
Q 22.953125 48.484375 18.875 42.84375 
Q 14.796875 37.203125 14.796875 27.296875 
z
M 45.40625 8.203125 
Q 42.578125 3.328125 38.25 0.953125 
Q 33.9375 -1.421875 27.875 -1.421875 
Q 17.96875 -1.421875 11.734375 6.484375 
Q 5.515625 14.40625 5.515625 27.296875 
Q 5.515625 40.1875 11.734375 48.09375 
Q 17.96875 56 27.875 56 
Q 33.9375 56 38.25 53.625 
Q 42.578125 51.265625 45.40625 46.390625 
L 45.40625 54.6875 
L 54.390625 54.6875 
L 54.390625 -20.796875 
L 45.40625 -20.796875 
z
" id="DejaVuSans-71"/>
      <path d="M 8.5 21.578125 
L 8.5 54.6875 
L 17.484375 54.6875 
L 17.484375 21.921875 
Q 17.484375 14.15625 20.5 10.265625 
Q 23.53125 6.390625 29.59375 6.390625 
Q 36.859375 6.390625 41.078125 11.03125 
Q 45.3125 15.671875 45.3125 23.6875 
L 45.3125 54.6875 
L 54.296875 54.6875 
L 54.296875 0 
L 45.3125 0 
L 45.3125 8.40625 
Q 42.046875 3.421875 37.71875 1 
Q 33.40625 -1.421875 27.6875 -1.421875 
Q 18.265625 -1.421875 13.375 4.4375 
Q 8.5 10.296875 8.5 21.578125 
z
M 31.109375 56 
z
" id="DejaVuSans-75"/>
      <path d="M 56.203125 29.59375 
L 56.203125 25.203125 
L 14.890625 25.203125 
Q 15.484375 15.921875 20.484375 11.0625 
Q 25.484375 6.203125 34.421875 6.203125 
Q 39.59375 6.203125 44.453125 7.46875 
Q 49.3125 8.734375 54.109375 11.28125 
L 54.109375 2.78125 
Q 49.265625 0.734375 44.1875 -0.34375 
Q 39.109375 -1.421875 33.890625 -1.421875 
Q 20.796875 -1.421875 13.15625 6.1875 
Q 5.515625 13.8125 5.515625 26.8125 
Q 5.515625 40.234375 12.765625 48.109375 
Q 20.015625 56 32.328125 56 
Q 43.359375 56 49.78125 48.890625 
Q 56.203125 41.796875 56.203125 29.59375 
z
M 47.21875 32.234375 
Q 47.125 39.59375 43.09375 43.984375 
Q 39.0625 48.390625 32.421875 48.390625 
Q 24.90625 48.390625 20.390625 44.140625 
Q 15.875 39.890625 15.1875 32.171875 
z
" id="DejaVuSans-65"/>
      <path id="DejaVuSans-20"/>
      <path d="M 52 44.1875 
Q 55.375 50.25 60.0625 53.125 
Q 64.75 56 71.09375 56 
Q 79.640625 56 84.28125 50.015625 
Q 88.921875 44.046875 88.921875 33.015625 
L 88.921875 0 
L 79.890625 0 
L 79.890625 32.71875 
Q 79.890625 40.578125 77.09375 44.375 
Q 74.3125 48.1875 68.609375 48.1875 
Q 61.625 48.1875 57.5625 43.546875 
Q 53.515625 38.921875 53.515625 30.90625 
L 53.515625 0 
L 44.484375 0 
L 44.484375 32.71875 
Q 44.484375 40.625 41.703125 44.40625 
Q 38.921875 48.1875 33.109375 48.1875 
Q 26.21875 48.1875 22.15625 43.53125 
Q 18.109375 38.875 18.109375 30.90625 
L 18.109375 0 
L 9.078125 0 
L 9.078125 54.6875 
L 18.109375 54.6875 
L 18.109375 46.1875 
Q 21.1875 51.21875 25.484375 53.609375 
Q 29.78125 56 35.6875 56 
Q 41.65625 56 45.828125 52.96875 
Q 50 49.953125 52 44.1875 
z
" id="DejaVuSans-6d"/>
      <path d="M 41.109375 46.296875 
Q 39.59375 47.171875 37.8125 47.578125 
Q 36.03125 48 33.890625 48 
Q 26.265625 48 22.1875 43.046875 
Q 18.109375 38.09375 18.109375 28.8125 
L 18.109375 0 
L 9.078125 0 
L 9.078125 54.6875 
L 18.109375 54.6875 
L 18.109375 46.1875 
Q 20.953125 51.171875 25.484375 53.578125 
Q 30.03125 56 36.53125 56 
Q 37.453125 56 38.578125 55.875 
Q 39.703125 55.765625 41.0625 55.515625 
z
" id="DejaVuSans-72"/>
      <path d="M 48.78125 52.59375 
L 48.78125 44.1875 
Q 44.96875 46.296875 41.140625 47.34375 
Q 37.3125 48.390625 33.40625 48.390625 
Q 24.65625 48.390625 19.8125 42.84375 
Q 14.984375 37.3125 14.984375 27.296875 
Q 14.984375 17.28125 19.8125 11.734375 
Q 24.65625 6.203125 33.40625 6.203125 
Q 37.3125 6.203125 41.140625 7.25 
Q 44.96875 8.296875 48.78125 10.40625 
L 48.78125 2.09375 
Q 45.015625 0.34375 40.984375 -0.53125 
Q 36.96875 -1.421875 32.421875 -1.421875 
Q 20.0625 -1.421875 12.78125 6.34375 
Q 5.515625 14.109375 5.515625 27.296875 
Q 5.515625 40.671875 12.859375 48.328125 
Q 20.21875 56 33.015625 56 
Q 37.15625 56 41.109375 55.140625 
Q 45.0625 54.296875 48.78125 52.59375 
z
" id="DejaVuSans-63"/>
      <path d="M 54.890625 33.015625 
L 54.890625 0 
L 45.90625 0 
L 45.90625 32.71875 
Q 45.90625 40.484375 42.875 44.328125 
Q 39.84375 48.1875 33.796875 48.1875 
Q 26.515625 48.1875 22.3125 43.546875 
Q 18.109375 38.921875 18.109375 30.90625 
L 18.109375 0 
L 9.078125 0 
L 9.078125 75.984375 
L 18.109375 75.984375 
L 18.109375 46.1875 
Q 21.34375 51.125 25.703125 53.5625 
Q 30.078125 56 35.796875 56 
Q 45.21875 56 50.046875 50.171875 
Q 54.890625 44.34375 54.890625 33.015625 
z
" id="DejaVuSans-68"/>
      <path d="M 34.28125 27.484375 
Q 23.390625 27.484375 19.1875 25 
Q 14.984375 22.515625 14.984375 16.5 
Q 14.984375 11.71875 18.140625 8.90625 
Q 21.296875 6.109375 26.703125 6.109375 
Q 34.1875 6.109375 38.703125 11.40625 
Q 43.21875 16.703125 43.21875 25.484375 
L 43.21875 27.484375 
z
M 52.203125 31.203125 
L 52.203125 0 
L 43.21875 0 
L 43.21875 8.296875 
Q 40.140625 3.328125 35.546875 0.953125 
Q 30.953125 -1.421875 24.3125 -1.421875 
Q 15.921875 -1.421875 10.953125 3.296875 
Q 6 8.015625 6 15.921875 
Q 6 25.140625 12.171875 29.828125 
Q 18.359375 34.515625 30.609375 34.515625 
L 43.21875 34.515625 
L 43.21875 35.40625 
Q 43.21875 41.609375 39.140625 45 
Q 35.0625 48.390625 27.6875 48.390625 
Q 23 48.390625 18.546875 47.265625 
Q 14.109375 46.140625 10.015625 43.890625 
L 10.015625 52.203125 
Q 14.9375 54.109375 19.578125 55.046875 
Q 24.21875 56 28.609375 56 
Q 40.484375 56 46.34375 49.84375 
Q 52.203125 43.703125 52.203125 31.203125 
z
" id="DejaVuSans-61"/>
      <path d="M 18.3125 70.21875 
L 18.3125 54.6875 
L 36.8125 54.6875 
L 36.8125 47.703125 
L 18.3125 47.703125 
L 18.3125 18.015625 
Q 18.3125 11.328125 20.140625 9.421875 
Q 21.96875 7.515625 27.59375 7.515625 
L 36.8125 7.515625 
L 36.8125 0 
L 27.59375 0 
Q 17.1875 0 13.234375 3.875 
Q 9.28125 7.765625 9.28125 18.015625 
L 9.28125 47.703125 
L 2.6875 47.703125 
L 2.6875 54.6875 
L 9.28125 54.6875 
L 9.28125 70.21875 
z
" id="DejaVuSans-74"/>
      <path d="M 50.984375 -16.609375 
L 50.984375 -23.578125 
L -0.984375 -23.578125 
L -0.984375 -16.609375 
z
" id="DejaVuSans-5f"/>
      <path d="M 45.40625 46.390625 
L 45.40625 75.984375 
L 54.390625 75.984375 
L 54.390625 0 
L 45.40625 0 
L 45.40625 8.203125 
Q 42.578125 3.328125 38.25 0.953125 
Q 33.9375 -1.421875 27.875 -1.421875 
Q 17.96875 -1.421875 11.734375 6.484375 
Q 5.515625 14.40625 5.515625 27.296875 
Q 5.515625 40.1875 11.734375 48.09375 
Q 17.96875 56 27.875 56 
Q 33.9375 56 38.25 53.625 
Q 42.578125 51.265625 45.40625 46.390625 
z
M 14.796875 27.296875 
Q 14.796875 17.390625 18.875 11.75 
Q 22.953125 6.109375 30.078125 6.109375 
Q 37.203125 6.109375 41.296875 11.75 
Q 45.40625 17.390625 45.40625 27.296875 
Q 45.40625 37.203125 41.296875 42.84375 
Q 37.203125 48.484375 30.078125 48.484375 
Q 22.953125 48.484375 18.875 42.84375 
Q 14.796875 37.203125 14.796875 27.296875 
z
" id="DejaVuSans-64"/>
     </defs>
     <g style="fill:#262626;" transform="translate(158.592813 273.022187)scale(0.12 -0.12)">
      <use xlink:href="#DejaVuSans-55"/>
      <use x="73.193359" xlink:href="#DejaVuSans-6e"/>
      <use x="136.572266" xlink:href="#DejaVuSans-69"/>
      <use x="164.355469" xlink:href="#DejaVuSans-71"/>
      <use x="227.832031" xlink:href="#DejaVuSans-75"/>
      <use x="291.210938" xlink:href="#DejaVuSans-65"/>
      <use x="352.734375" xlink:href="#DejaVuSans-20"/>
      <use x="384.521484" xlink:href="#DejaVuSans-6d"/>
      <use x="481.933594" xlink:href="#DejaVuSans-65"/>
      <use x="543.457031" xlink:href="#DejaVuSans-72"/>
      <use x="584.539062" xlink:href="#DejaVuSans-63"/>
      <use x="639.519531" xlink:href="#DejaVuSans-68"/>
      <use x="702.898438" xlink:href="#DejaVuSans-61"/>
      <use x="764.177734" xlink:href="#DejaVuSans-6e"/>
      <use x="827.556641" xlink:href="#DejaVuSans-74"/>
      <use x="866.765625" xlink:href="#DejaVuSans-5f"/>
      <use x="916.765625" xlink:href="#DejaVuSans-69"/>
      <use x="944.548828" xlink:href="#DejaVuSans-64"/>
     </g>
    </g>
   </g>
   <g id="matplotlib.axis_2">
    <g id="ytick_1">
     <g id="line2d_7">
      <path clip-path="url(#p71ebd2aa54)" d="M 51.67375 229.874489 
L 386.47375 229.874489 
" style="fill:none;stroke:#ffffff;stroke-linecap:round;"/>
     </g>
     <g id="text_8">
      <!-- $\mathdefault{10^{0}}$ -->
      <g style="fill:#262626;" transform="translate(22.81375 234.053629)scale(0.11 -0.11)">
       <use transform="translate(0 0.765625)" xlink:href="#DejaVuSans-31"/>
       <use transform="translate(63.623047 0.765625)" xlink:href="#DejaVuSans-30"/>
       <use transform="translate(128.203125 39.046875)scale(0.7)" xlink:href="#DejaVuSans-30"/>
      </g>
     </g>
    </g>
    <g id="ytick_2">
     <g id="line2d_8">
      <path clip-path="url(#p71ebd2aa54)" d="M 51.67375 197.234685 
L 386.47375 197.234685 
" style="fill:none;stroke:#ffffff;stroke-linecap:round;"/>
     </g>
     <g id="text_9">
      <!-- $\mathdefault{10^{1}}$ -->
      <g style="fill:#262626;" transform="translate(22.81375 201.413826)scale(0.11 -0.11)">
       <use transform="translate(0 0.684375)" xlink:href="#DejaVuSans-31"/>
       <use transform="translate(63.623047 0.684375)" xlink:href="#DejaVuSans-30"/>
       <use transform="translate(128.203125 38.965625)scale(0.7)" xlink:href="#DejaVuSans-31"/>
      </g>
     </g>
    </g>
    <g id="ytick_3">
     <g id="line2d_9">
      <path clip-path="url(#p71ebd2aa54)" d="M 51.67375 164.594881 
L 386.47375 164.594881 
" style="fill:none;stroke:#ffffff;stroke-linecap:round;"/>
     </g>
     <g id="text_10">
      <!-- $\mathdefault{10^{2}}$ -->
      <g style="fill:#262626;" transform="translate(22.81375 168.774022)scale(0.11 -0.11)">
       <use transform="translate(0 0.765625)" xlink:href="#DejaVuSans-31"/>
       <use transform="translate(63.623047 0.765625)" xlink:href="#DejaVuSans-30"/>
       <use transform="translate(128.203125 39.046875)scale(0.7)" xlink:href="#DejaVuSans-32"/>
      </g>
     </g>
    </g>
    <g id="ytick_4">
     <g id="line2d_10">
      <path clip-path="url(#p71ebd2aa54)" d="M 51.67375 131.955077 
L 386.47375 131.955077 
" style="fill:none;stroke:#ffffff;stroke-linecap:round;"/>
     </g>
     <g id="text_11">
      <!-- $\mathdefault{10^{3}}$ -->
      <g style="fill:#262626;" transform="translate(22.81375 136.134218)scale(0.11 -0.11)">
       <use transform="translate(0 0.765625)" xlink:href="#DejaVuSans-31"/>
       <use transform="translate(63.623047 0.765625)" xlink:href="#DejaVuSans-30"/>
       <use transform="translate(128.203125 39.046875)scale(0.7)" xlink:href="#DejaVuSans-33"/>
      </g>
     </g>
    </g>
    <g id="ytick_5">
     <g id="line2d_11">
      <path clip-path="url(#p71ebd2aa54)" d="M 51.67375 99.315274 
L 386.47375 99.315274 
" style="fill:none;stroke:#ffffff;stroke-linecap:round;"/>
     </g>
     <g id="text_12">
      <!-- $\mathdefault{10^{4}}$ -->
      <g style="fill:#262626;" transform="translate(22.81375 103.494414)scale(0.11 -0.11)">
       <use transform="translate(0 0.684375)" xlink:href="#DejaVuSans-31"/>
       <use transform="translate(63.623047 0.684375)" xlink:href="#DejaVuSans-30"/>
       <use transform="translate(128.203125 38.965625)scale(0.7)" xlink:href="#DejaVuSans-34"/>
      </g>
     </g>
    </g>
    <g id="ytick_6">
     <g id="line2d_12">
      <path clip-path="url(#p71ebd2aa54)" d="M 51.67375 66.67547 
L 386.47375 66.67547 
" style="fill:none;stroke:#ffffff;stroke-linecap:round;"/>
     </g>
     <g id="text_13">
      <!-- $\mathdefault{10^{5}}$ -->
      <g style="fill:#262626;" transform="translate(22.81375 70.854611)scale(0.11 -0.11)">
       <use transform="translate(0 0.684375)" xlink:href="#DejaVuSans-31"/>
       <use transform="translate(63.623047 0.684375)" xlink:href="#DejaVuSans-30"/>
       <use transform="translate(128.203125 38.965625)scale(0.7)" xlink:href="#DejaVuSans-35"/>
      </g>
     </g>
    </g>
    <g id="ytick_7">
     <g id="line2d_13">
      <path clip-path="url(#p71ebd2aa54)" d="M 51.67375 34.035666 
L 386.47375 34.035666 
" style="fill:none;stroke:#ffffff;stroke-linecap:round;"/>
     </g>
     <g id="text_14">
      <!-- $\mathdefault{10^{6}}$ -->
      <defs>
       <path d="M 33.015625 40.375 
Q 26.375 40.375 22.484375 35.828125 
Q 18.609375 31.296875 18.609375 23.390625 
Q 18.609375 15.53125 22.484375 10.953125 
Q 26.375 6.390625 33.015625 6.390625 
Q 39.65625 6.390625 43.53125 10.953125 
Q 47.40625 15.53125 47.40625 23.390625 
Q 47.40625 31.296875 43.53125 35.828125 
Q 39.65625 40.375 33.015625 40.375 
z
M 52.59375 71.296875 
L 52.59375 62.3125 
Q 48.875 64.0625 45.09375 64.984375 
Q 41.3125 65.921875 37.59375 65.921875 
Q 27.828125 65.921875 22.671875 59.328125 
Q 17.53125 52.734375 16.796875 39.40625 
Q 19.671875 43.65625 24.015625 45.921875 
Q 28.375 48.1875 33.59375 48.1875 
Q 44.578125 48.1875 50.953125 41.515625 
Q 57.328125 34.859375 57.328125 23.390625 
Q 57.328125 12.15625 50.6875 5.359375 
Q 44.046875 -1.421875 33.015625 -1.421875 
Q 20.359375 -1.421875 13.671875 8.265625 
Q 6.984375 17.96875 6.984375 36.375 
Q 6.984375 53.65625 15.1875 63.9375 
Q 23.390625 74.21875 37.203125 74.21875 
Q 40.921875 74.21875 44.703125 73.484375 
Q 48.484375 72.75 52.59375 71.296875 
z
" id="DejaVuSans-36"/>
      </defs>
      <g style="fill:#262626;" transform="translate(22.81375 38.214807)scale(0.11 -0.11)">
       <use transform="translate(0 0.765625)" xlink:href="#DejaVuSans-31"/>
       <use transform="translate(63.623047 0.765625)" xlink:href="#DejaVuSans-30"/>
       <use transform="translate(128.203125 39.046875)scale(0.7)" xlink:href="#DejaVuSans-36"/>
      </g>
     </g>
    </g>
    <g id="ytick_8"/>
    <g id="ytick_9"/>
    <g id="ytick_10"/>
    <g id="ytick_11"/>
    <g id="ytick_12"/>
    <g id="ytick_13"/>
    <g id="ytick_14"/>
    <g id="ytick_15"/>
    <g id="ytick_16"/>
    <g id="ytick_17"/>
    <g id="ytick_18"/>
    <g id="ytick_19"/>
    <g id="ytick_20"/>
    <g id="ytick_21"/>
    <g id="ytick_22"/>
    <g id="ytick_23"/>
    <g id="ytick_24"/>
    <g id="ytick_25"/>
    <g id="ytick_26"/>
    <g id="ytick_27"/>
    <g id="ytick_28"/>
    <g id="ytick_29"/>
    <g id="ytick_30"/>
    <g id="ytick_31"/>
    <g id="ytick_32"/>
    <g id="ytick_33"/>
    <g id="ytick_34"/>
    <g id="ytick_35"/>
    <g id="ytick_36"/>
    <g id="ytick_37"/>
    <g id="ytick_38"/>
    <g id="ytick_39"/>
    <g id="ytick_40"/>
    <g id="ytick_41"/>
    <g id="ytick_42"/>
    <g id="ytick_43"/>
    <g id="ytick_44"/>
    <g id="ytick_45"/>
    <g id="ytick_46"/>
    <g id="ytick_47"/>
    <g id="ytick_48"/>
    <g id="ytick_49"/>
    <g id="ytick_50"/>
    <g id="ytick_51"/>
    <g id="ytick_52"/>
    <g id="ytick_53"/>
    <g id="ytick_54"/>
    <g id="ytick_55"/>
    <g id="ytick_56"/>
    <g id="ytick_57"/>
    <g id="ytick_58"/>
    <g id="ytick_59"/>
    <g id="ytick_60"/>
    <g id="ytick_61"/>
    <g id="text_15">
     <!-- Number of transactions -->
     <defs>
      <path d="M 9.8125 72.90625 
L 23.09375 72.90625 
L 55.421875 11.921875 
L 55.421875 72.90625 
L 64.984375 72.90625 
L 64.984375 0 
L 51.703125 0 
L 19.390625 60.984375 
L 19.390625 0 
L 9.8125 0 
z
" id="DejaVuSans-4e"/>
      <path d="M 48.6875 27.296875 
Q 48.6875 37.203125 44.609375 42.84375 
Q 40.53125 48.484375 33.40625 48.484375 
Q 26.265625 48.484375 22.1875 42.84375 
Q 18.109375 37.203125 18.109375 27.296875 
Q 18.109375 17.390625 22.1875 11.75 
Q 26.265625 6.109375 33.40625 6.109375 
Q 40.53125 6.109375 44.609375 11.75 
Q 48.6875 17.390625 48.6875 27.296875 
z
M 18.109375 46.390625 
Q 20.953125 51.265625 25.265625 53.625 
Q 29.59375 56 35.59375 56 
Q 45.5625 56 51.78125 48.09375 
Q 58.015625 40.1875 58.015625 27.296875 
Q 58.015625 14.40625 51.78125 6.484375 
Q 45.5625 -1.421875 35.59375 -1.421875 
Q 29.59375 -1.421875 25.265625 0.953125 
Q 20.953125 3.328125 18.109375 8.203125 
L 18.109375 0 
L 9.078125 0 
L 9.078125 75.984375 
L 18.109375 75.984375 
z
" id="DejaVuSans-62"/>
      <path d="M 30.609375 48.390625 
Q 23.390625 48.390625 19.1875 42.75 
Q 14.984375 37.109375 14.984375 27.296875 
Q 14.984375 17.484375 19.15625 11.84375 
Q 23.34375 6.203125 30.609375 6.203125 
Q 37.796875 6.203125 41.984375 11.859375 
Q 46.1875 17.53125 46.1875 27.296875 
Q 46.1875 37.015625 41.984375 42.703125 
Q 37.796875 48.390625 30.609375 48.390625 
z
M 30.609375 56 
Q 42.328125 56 49.015625 48.375 
Q 55.71875 40.765625 55.71875 27.296875 
Q 55.71875 13.875 49.015625 6.21875 
Q 42.328125 -1.421875 30.609375 -1.421875 
Q 18.84375 -1.421875 12.171875 6.21875 
Q 5.515625 13.875 5.515625 27.296875 
Q 5.515625 40.765625 12.171875 48.375 
Q 18.84375 56 30.609375 56 
z
" id="DejaVuSans-6f"/>
      <path d="M 37.109375 75.984375 
L 37.109375 68.5 
L 28.515625 68.5 
Q 23.6875 68.5 21.796875 66.546875 
Q 19.921875 64.59375 19.921875 59.515625 
L 19.921875 54.6875 
L 34.71875 54.6875 
L 34.71875 47.703125 
L 19.921875 47.703125 
L 19.921875 0 
L 10.890625 0 
L 10.890625 47.703125 
L 2.296875 47.703125 
L 2.296875 54.6875 
L 10.890625 54.6875 
L 10.890625 58.5 
Q 10.890625 67.625 15.140625 71.796875 
Q 19.390625 75.984375 28.609375 75.984375 
z
" id="DejaVuSans-66"/>
      <path d="M 44.28125 53.078125 
L 44.28125 44.578125 
Q 40.484375 46.53125 36.375 47.5 
Q 32.28125 48.484375 27.875 48.484375 
Q 21.1875 48.484375 17.84375 46.4375 
Q 14.5 44.390625 14.5 40.28125 
Q 14.5 37.15625 16.890625 35.375 
Q 19.28125 33.59375 26.515625 31.984375 
L 29.59375 31.296875 
Q 39.15625 29.25 43.1875 25.515625 
Q 47.21875 21.78125 47.21875 15.09375 
Q 47.21875 7.46875 41.1875 3.015625 
Q 35.15625 -1.421875 24.609375 -1.421875 
Q 20.21875 -1.421875 15.453125 -0.5625 
Q 10.6875 0.296875 5.421875 2 
L 5.421875 11.28125 
Q 10.40625 8.6875 15.234375 7.390625 
Q 20.0625 6.109375 24.8125 6.109375 
Q 31.15625 6.109375 34.5625 8.28125 
Q 37.984375 10.453125 37.984375 14.40625 
Q 37.984375 18.0625 35.515625 20.015625 
Q 33.0625 21.96875 24.703125 23.78125 
L 21.578125 24.515625 
Q 13.234375 26.265625 9.515625 29.90625 
Q 5.8125 33.546875 5.8125 39.890625 
Q 5.8125 47.609375 11.28125 51.796875 
Q 16.75 56 26.8125 56 
Q 31.78125 56 36.171875 55.265625 
Q 40.578125 54.546875 44.28125 53.078125 
z
" id="DejaVuSans-73"/>
     </defs>
     <g style="fill:#262626;" transform="translate(16.318125 201.756562)rotate(-90)scale(0.12 -0.12)">
      <use xlink:href="#DejaVuSans-4e"/>
      <use x="74.804688" xlink:href="#DejaVuSans-75"/>
      <use x="138.183594" xlink:href="#DejaVuSans-6d"/>
      <use x="235.595703" xlink:href="#DejaVuSans-62"/>
      <use x="299.072266" xlink:href="#DejaVuSans-65"/>
      <use x="360.595703" xlink:href="#DejaVuSans-72"/>
      <use x="401.708984" xlink:href="#DejaVuSans-20"/>
      <use x="433.496094" xlink:href="#DejaVuSans-6f"/>
      <use x="494.677734" xlink:href="#DejaVuSans-66"/>
      <use x="529.882812" xlink:href="#DejaVuSans-20"/>
      <use x="561.669922" xlink:href="#DejaVuSans-74"/>
      <use x="600.878906" xlink:href="#DejaVuSans-72"/>
      <use x="641.992188" xlink:href="#DejaVuSans-61"/>
      <use x="703.271484" xlink:href="#DejaVuSans-6e"/>
      <use x="766.650391" xlink:href="#DejaVuSans-73"/>
      <use x="818.75" xlink:href="#DejaVuSans-61"/>
      <use x="880.029297" xlink:href="#DejaVuSans-63"/>
      <use x="935.009766" xlink:href="#DejaVuSans-74"/>
      <use x="974.21875" xlink:href="#DejaVuSans-69"/>
      <use x="1002.001953" xlink:href="#DejaVuSans-6f"/>
      <use x="1063.183594" xlink:href="#DejaVuSans-6e"/>
      <use x="1126.5625" xlink:href="#DejaVuSans-73"/>
     </g>
    </g>
   </g>
   <g id="line2d_14">
    <path clip-path="url(#p71ebd2aa54)" d="M 66.891932 32.201761 
L 83.476499 45.956064 
L 93.17785 47.916351 
L 100.061067 57.015878 
L 105.400105 58.276095 
L 109.762417 58.785345 
L 113.450699 64.885038 
L 116.645635 65.478737 
L 119.463767 66.775474 
L 121.984673 66.811065 
L 124.265109 67.130786 
L 126.346985 68.552448 
L 128.262124 69.352656 
L 130.035267 70.228045 
L 131.686023 70.343252 
L 133.230202 71.262781 
L 134.680736 71.747244 
L 136.048335 71.784392 
L 137.341973 72.191419 
L 138.56924 74.999493 
L 139.736617 75.578561 
L 140.849677 75.64326 
L 141.913251 76.528841 
L 142.931552 76.688815 
L 143.908279 77.27955 
L 145.749685 78.961069 
L 146.619834 79.053773 
L 147.459446 79.33108 
L 148.270591 79.987103 
L 149.055135 80.297927 
L 149.81477 80.847653 
L 150.551027 81.869025 
L 151.958873 82.279408 
L 153.92654 82.88943 
L 154.548042 83.241246 
L 155.153808 83.77477 
L 156.321185 83.93432 
L 157.434245 84.003459 
L 157.971941 84.382946 
L 158.497818 85.11124 
L 159.012386 85.242472 
L 160.009467 86.210827 
L 160.966653 86.47765 
L 162.334253 86.584647 
L 162.773283 87.073397 
L 164.453023 87.632972 
L 164.855158 87.705279 
L 165.250646 88.053227 
L 166.022535 88.159943 
L 166.399337 88.438199 
L 166.770298 88.44149 
L 167.135595 88.76843 
L 167.495398 88.884086 
L 167.849871 89.153525 
L 168.199169 89.198587 
L 169.21747 89.777539 
L 169.873031 89.83407 
L 170.194196 90.050669 
L 171.738376 90.284116 
L 172.035603 90.492536 
L 172.329183 90.551233 
L 172.905752 90.954121 
L 173.188909 91.36475 
L 173.745364 91.546315 
L 177.551221 92.798884 
L 177.784652 93.043564 
L 179.574381 93.423834 
L 180.001651 93.503573 
L 180.212458 93.695845 
L 180.83396 93.802092 
L 181.037591 94.027739 
L 181.439726 94.063904 
L 181.835214 94.244145 
L 182.796245 94.599449 
L 182.983905 94.979539 
L 184.257858 95.56351 
L 184.434438 95.582017 
L 184.783736 95.847004 
L 185.128008 95.889242 
L 185.298304 96.012224 
L 185.467396 96.347406 
L 186.295384 96.474447 
L 187.095676 96.8292 
L 187.563309 97.128524 
L 187.717177 97.6142 
L 188.172933 97.740484 
L 188.472018 97.934616 
L 189.0592 98.059908 
L 189.913808 98.413274 
L 190.192026 98.64798 
L 190.873738 98.999865 
L 191.00778 99.253039 
L 191.40546 99.366397 
L 192.053913 99.736816 
L 192.560312 99.990242 
L 194.135789 100.57758 
L 194.369219 100.788329 
L 196.158949 101.925841 
L 196.691854 102.043919 
L 197.109795 102.300555 
L 198.6151 102.974245 
L 200.842426 103.985701 
L 201.10681 104.090535 
L 203.363332 104.947797 
L 204.147876 105.246191 
L 204.45463 105.491703 
L 205.932042 106.231725 
L 206.145991 106.363956 
L 206.287569 106.535126 
L 206.428313 106.674996 
L 206.568234 106.715554 
L 206.707342 106.985706 
L 207.119878 107.08345 
L 207.458306 107.236298 
L 207.924205 107.618147 
L 208.510188 107.841425 
L 208.829639 107.971355 
L 209.14488 108.065648 
L 210.126617 108.612155 
L 210.365883 108.650445 
L 210.543776 108.801877 
L 211.184962 109.137999 
L 211.527591 109.294759 
L 211.865382 109.488095 
L 212.087955 109.601859 
L 212.308477 109.639985 
L 212.526986 109.802428 
L 212.797344 109.924746 
L 213.486305 110.273572 
L 214.105127 110.490182 
L 215.199668 110.843793 
L 215.441596 110.95613 
L 215.681102 111.007783 
L 216.339239 111.239287 
L 217.069875 111.635988 
L 217.426994 111.737774 
L 217.735159 111.898722 
L 219.545764 112.439266 
L 220.027521 112.724769 
L 220.46077 112.90109 
L 220.924626 113.120867 
L 221.191113 113.252871 
L 221.529434 113.455133 
L 222.082886 113.668125 
L 222.588139 113.868527 
L 223.082943 114.059765 
L 223.257208 114.172524 
L 223.533419 114.241424 
L 227.039563 115.600601 
L 227.216797 115.663344 
L 237.297708 120.378243 
L 237.451701 120.447314 
L 238.020503 120.688548 
L 238.336921 120.797811 
L 239.50958 121.310227 
L 239.667511 121.431154 
L 239.893809 121.525927 
L 240.083634 121.587189 
L 240.203652 121.689884 
L 240.576981 121.84881 
L 243.62413 123.226984 
L 245.600769 124.128058 
L 245.791094 124.234548 
L 246.837589 124.745198 
L 247.031222 124.822121 
L 247.197779 124.977232 
L 247.363185 125.081591 
L 247.927071 125.337008 
L 248.148957 125.444059 
L 248.332302 125.515879 
L 248.538409 125.624294 
L 248.992799 125.834438 
L 249.298798 125.945327 
L 249.647079 126.08517 
L 249.819337 126.179171 
L 250.001721 126.273799 
L 250.227764 126.378626 
L 250.407074 126.474599 
L 250.596129 126.580927 
L 250.947995 126.746836 
L 251.13284 126.845344 
L 251.294762 126.914709 
L 251.615353 127.064502 
L 251.795133 127.175365 
L 252.067504 127.287102 
L 252.367689 127.389451 
L 252.694614 127.565159 
L 252.866493 127.65907 
L 253.007119 127.711513 
L 253.236369 127.816984 
L 253.532126 127.976677 
L 253.698113 128.062589 
L 253.833949 128.13819 
L 254.093761 128.246897 
L 254.341311 128.367445 
L 254.623799 128.477931 
L 254.912242 128.65652 
L 255.151508 128.746665 
L 255.297569 128.826015 
L 255.542042 128.928694 
L 255.721536 128.98606 
L 255.979434 129.089909 
L 256.182016 129.182862 
L 256.469712 129.288168 
L 256.668202 129.370617 
L 256.907639 129.477332 
L 257.119417 129.584857 
L 257.329337 129.693204 
L 257.520849 129.77805 
L 257.858485 129.887889 
L 258.053938 129.986244 
L 258.408172 130.085285 
L 258.591273 130.172518 
L 258.772984 130.272874 
L 258.961136 130.373946 
L 259.240617 130.475744 
L 259.432799 130.591148 
L 259.66898 130.694523 
L 259.872804 130.824811 
L 260.074905 130.929911 
L 260.24573 131.009251 
L 260.459394 131.115732 
L 260.627504 131.196122 
L 260.960224 131.304022 
L 261.131997 131.399113 
L 261.359126 131.508575 
L 261.563116 131.674369 
L 261.807017 131.771986 
L 261.993485 131.898489 
L 262.205801 131.997667 
L 262.36889 132.083233 
L 262.598047 132.183716 
L 262.771816 132.299433 
L 263.003759 132.401467 
L 263.168068 132.50424 
L 263.415675 132.607763 
L 263.551419 132.652363 
L 263.699213 132.756978 
L 263.852466 132.847267 
L 264.086823 132.953336 
L 264.237621 133.029588 
L 264.51783 133.137036 
L 264.665944 133.214285 
L 264.94121 133.323147 
L 265.098821 133.432851 
L 265.381125 133.543411 
L 265.524005 133.622914 
L 265.707306 133.718909 
L 265.848257 133.78327 
L 266.063944 133.880361 
L 266.214353 133.978122 
L 266.398182 134.076562 
L 266.546511 134.17569 
L 266.756021 134.275516 
L 266.902155 134.376051 
L 267.097474 134.477303 
L 267.236018 134.545209 
L 267.505259 134.647681 
L 267.641468 134.71641 
L 267.879329 134.820132 
L 268.013432 134.889704 
L 268.274112 134.994707 
L 268.406025 135.047501 
L 268.667691 135.153684 
L 268.80781 135.242781 
L 268.988232 135.350442 
L 269.121385 135.422673 
L 269.415775 135.531714 
L 269.541558 135.586551 
L 269.796124 135.696865 
L 269.924868 135.752345 
L 270.175409 135.845298 
L 270.302133 135.901364 
L 270.524707 135.995303 
L 270.659179 136.089868 
L 270.821458 136.185069 
L 270.944815 136.223328 
L 271.152135 136.319432 
L 271.278471 136.377409 
L 271.469047 136.474567 
L 271.59833 136.552776 
L 271.795521 136.651147 
L 271.923056 136.7105 
L 272.15362 136.809976 
L 272.288215 136.910155 
L 272.484262 137.011047 
L 272.603773 137.051606 
L 272.806019 137.153513 
L 272.932649 137.215011 
L 273.140782 137.318105 
L 273.265657 137.380323 
L 273.483697 137.48463 
L 273.611033 137.568632 
L 273.771359 137.674339 
L 273.897178 137.738144 
L 274.138567 137.845128 
L 274.266594 137.9313 
L 274.422601 138.039757 
L 274.54505 138.105232 
L 274.828351 138.215034 
L 274.952749 138.281325 
L 275.152037 138.370199 
L 275.274768 138.437221 
L 275.48315 138.527081 
L 275.608093 138.617514 
L 275.829044 138.708527 
L 275.948359 138.754254 
L 276.093809 138.846152 
L 276.219408 138.93865 
L 276.442333 139.031756 
L 276.569861 139.125477 
L 276.863578 139.219822 
L 276.98521 139.290995 
L 277.197501 139.386452 
L 277.321077 139.482556 
L 277.544791 139.579316 
L 277.666591 139.652322 
L 277.883573 139.750252 
L 278.003664 139.824146 
L 278.179182 139.923274 
L 278.301283 139.998078 
L 278.516058 140.098434 
L 278.636456 140.174171 
L 278.919573 140.275786 
L 279.041336 140.352479 
L 279.339729 140.455385 
L 279.456063 140.50712 
L 279.641028 140.611159 
L 279.762458 140.689693 
L 280.035869 140.795086 
L 280.152096 140.848077 
L 280.382868 140.954659 
L 280.503774 141.035124 
L 280.731195 141.143127 
L 280.853486 141.251959 
L 281.117869 141.361633 
L 281.238204 141.444449 
L 281.403828 141.527751 
L 281.522736 141.611546 
L 281.755783 141.69584 
L 281.875957 141.780637 
L 282.108573 141.865945 
L 282.226992 141.95177 
L 282.44746 142.038117 
L 282.567129 142.124993 
L 282.790268 142.212405 
L 282.908239 142.30036 
L 283.079838 142.388864 
L 283.196393 142.448174 
L 283.399712 142.537609 
L 283.517521 142.627611 
L 283.723689 142.718188 
L 283.842678 142.809348 
L 284.089826 142.901098 
L 284.207013 142.993445 
L 284.447754 143.086398 
L 284.563205 143.148707 
L 284.749965 143.242687 
L 284.869259 143.337295 
L 285.072016 143.432538 
L 285.18711 143.49639 
L 285.45697 143.592712 
L 285.5728 143.657292 
L 285.744225 143.754717 
L 285.861212 143.852816 
L 286.090973 143.951599 
L 286.206281 144.017839 
L 286.437721 144.117783 
L 286.55384 144.184805 
L 286.791721 144.285938 
L 286.906138 144.353762 
L 287.147772 144.456111 
L 287.262896 144.524757 
L 287.472528 144.628352 
L 287.588464 144.697839 
L 287.792934 144.802712 
L 287.907332 144.873061 
L 288.113726 144.979244 
L 288.228901 145.050477 
L 288.448495 145.158001 
L 288.56434 145.23014 
L 288.796605 145.339042 
L 288.910781 145.412111 
L 289.144146 145.522425 
L 289.258881 145.596447 
L 289.434328 145.670858 
L 289.549857 145.745662 
L 289.688624 145.820863 
L 289.802935 145.896464 
L 289.963768 145.972472 
L 290.078902 146.048888 
L 290.225216 146.125719 
L 290.339101 146.202969 
L 290.519363 146.280642 
L 290.633938 146.358743 
L 290.79962 146.437277 
L 290.914919 146.516248 
L 291.115364 146.595661 
L 291.229155 146.675522 
L 291.422974 146.755836 
L 291.537316 146.836607 
L 291.756443 146.917841 
L 291.871179 146.999543 
L 292.077503 147.081719 
L 292.190713 147.164374 
L 292.373063 147.247514 
L 292.486811 147.331144 
L 292.659289 147.41527 
L 292.773588 147.499899 
L 292.976075 147.585036 
L 293.090749 147.670688 
L 293.283141 147.75686 
L 293.396356 147.843559 
L 293.575291 147.930792 
L 293.688965 148.018565 
L 293.87118 148.106885 
L 293.985267 148.195759 
L 294.202871 148.285193 
L 294.317173 148.375195 
L 294.544151 148.465772 
L 294.658594 148.556932 
L 294.863222 148.648682 
L 294.977886 148.741029 
L 295.186686 148.833982 
L 295.299814 148.927549 
L 295.556642 149.021737 
L 295.669722 149.116555 
L 295.897627 149.212012 
L 296.01077 149.308116 
L 296.284747 149.404876 
L 296.397712 149.502301 
L 296.639847 149.600401 
L 296.752761 149.699183 
L 296.999313 149.798659 
L 297.112132 149.898839 
L 297.375418 149.999731 
L 297.489604 150.101346 
L 297.801217 150.203695 
L 297.914926 150.306789 
L 298.181702 150.410637 
L 298.29513 150.515253 
L 298.583079 150.620645 
L 298.696108 150.726828 
L 298.938209 150.833812 
L 299.051039 150.941609 
L 299.341642 151.050233 
L 299.455464 151.159695 
L 299.735543 151.270009 
L 299.848926 151.381188 
L 300.030631 151.437106 
L 300.144023 151.549609 
L 300.342907 151.606197 
L 300.456212 151.720056 
L 300.645691 151.77733 
L 300.758935 151.892577 
L 300.963592 151.950553 
L 301.076688 152.067223 
L 301.261336 152.12592 
L 301.374363 152.244048 
L 301.577792 152.303483 
L 301.690646 152.423107 
L 301.919959 152.483299 
L 302.032505 152.604456 
L 302.256023 152.665425 
L 302.368276 152.726657 
L 302.469869 152.788156 
L 302.581126 152.849922 
L 302.6994 152.911958 
L 302.812095 153.036851 
L 303.02848 153.099713 
L 303.139639 153.162855 
L 303.271128 153.226279 
L 303.382388 153.289988 
L 303.531956 153.353985 
L 303.643219 153.418272 
L 303.788772 153.482852 
L 303.900044 153.547728 
L 304.021492 153.612901 
L 304.132872 153.678376 
L 304.271959 153.744155 
L 304.383352 153.81024 
L 304.52681 153.876635 
L 304.638182 153.943343 
L 304.775522 154.010365 
L 304.886891 154.077707 
L 305.029647 154.145369 
L 305.140976 154.213356 
L 305.287861 154.281671 
L 305.399119 154.350317 
L 305.506513 154.419296 
L 305.617871 154.488613 
L 305.766284 154.558271 
L 305.877542 154.628272 
L 306.033094 154.698621 
L 306.145295 154.769321 
L 306.287241 154.840375 
L 306.399334 154.911788 
L 306.572901 154.983561 
L 306.68473 155.0557 
L 306.84675 155.128208 
L 306.958359 155.201089 
L 307.131061 155.274347 
L 307.242393 155.347985 
L 307.407911 155.422007 
L 307.520017 155.496418 
L 307.688727 155.571222 
L 307.800542 155.646423 
L 307.974341 155.722024 
L 308.085835 155.798032 
L 308.248624 155.874448 
L 308.359841 155.951279 
L 308.548321 156.028529 
L 308.661092 156.184303 
L 308.925723 156.262837 
L 309.037696 156.341808 
L 309.175972 156.421221 
L 309.287736 156.501082 
L 309.494597 156.581396 
L 309.605826 156.662167 
L 309.785711 156.743401 
L 309.897456 156.825103 
L 310.074248 156.907279 
L 310.185575 156.989934 
L 310.363903 157.073074 
L 310.475707 157.156704 
L 310.668991 157.24083 
L 310.780277 157.325459 
L 310.954243 157.410596 
L 311.065983 157.496248 
L 311.273003 157.58242 
L 311.38414 157.669119 
L 311.586705 157.756352 
L 311.698122 157.844125 
L 311.884381 157.932445 
L 311.996126 158.021319 
L 312.222276 158.110753 
L 312.334136 158.200755 
L 312.561285 158.291332 
L 312.673228 158.382492 
L 312.898015 158.474242 
L 313.009214 158.566589 
L 313.242194 158.659542 
L 313.353416 158.753109 
L 313.583084 158.847297 
L 313.694322 158.942115 
L 313.908188 159.037572 
L 314.019493 159.133676 
L 314.232811 159.230436 
L 314.344162 159.327861 
L 314.598929 159.42596 
L 314.710113 159.524743 
L 314.966296 159.624219 
L 315.078034 159.724399 
L 315.30885 159.825291 
L 315.420478 159.926906 
L 315.661176 160.029255 
L 315.77263 160.132349 
L 316.02853 160.236197 
L 316.139721 160.340813 
L 316.401659 160.446205 
L 316.513247 160.552388 
L 316.787873 160.659372 
L 316.899065 160.767169 
L 317.163151 160.875792 
L 317.274665 160.985255 
L 317.557605 161.095569 
L 317.669314 161.206748 
L 317.753089 161.206748 
L 317.864557 161.318806 
L 317.955614 161.318806 
L 318.066805 161.431757 
L 318.155124 161.431757 
L 318.266703 161.545616 
L 318.360159 161.545616 
L 318.471438 161.660396 
L 318.56604 161.660396 
L 318.677654 161.776113 
L 318.768881 161.776113 
L 318.880194 161.892783 
L 318.965566 161.892783 
L 319.077236 162.010421 
L 319.163171 162.010421 
L 319.274552 162.129043 
L 319.383542 162.129043 
L 319.495149 162.248667 
L 319.587036 162.248667 
L 319.698316 162.369308 
L 319.79987 162.369308 
L 319.91139 162.490985 
L 320.016915 162.490985 
L 320.128036 162.613716 
L 320.223563 162.613716 
L 320.334932 162.737518 
L 320.421262 162.737518 
L 320.532908 162.862411 
L 320.639884 162.862411 
L 320.751107 162.988415 
L 320.843007 162.988415 
L 320.954463 163.115548 
L 321.043838 163.115548 
L 321.155524 163.243832 
L 321.244731 163.243832 
L 321.356061 163.373288 
L 321.446245 163.373288 
L 321.557785 163.503936 
L 321.669944 163.503936 
L 321.781579 163.6358 
L 321.83974 163.6358 
L 321.951149 163.768903 
L 322.046391 163.768903 
L 322.157958 163.903267 
L 322.268452 163.903267 
L 322.380093 164.038916 
L 322.493411 164.038916 
L 322.604555 164.175877 
L 322.708117 164.175877 
L 322.819354 164.314173 
L 322.931154 164.314173 
L 323.042434 164.453832 
L 323.158003 164.453832 
L 323.269297 164.594881 
L 323.393822 164.594881 
L 323.50508 164.737348 
L 323.628387 164.737348 
L 323.739604 164.88126 
L 323.858601 164.88126 
L 323.969788 165.026649 
L 324.077892 165.026649 
L 324.189088 165.173545 
L 324.320117 165.173545 
L 324.431715 165.321978 
L 324.559915 165.321978 
L 324.671405 165.471983 
L 324.790853 165.471983 
L 324.902267 165.623592 
L 325.034887 165.623592 
L 325.146155 165.776839 
L 325.301846 165.776839 
L 325.41334 165.931762 
L 325.554273 165.931762 
L 325.665561 166.088397 
L 325.813621 166.088397 
L 325.925137 166.246781 
L 326.055059 166.246781 
L 326.1664 166.406956 
L 326.32029 166.406956 
L 326.431803 166.568961 
L 326.57521 166.568961 
L 326.686465 166.732839 
L 326.837972 166.732839 
L 326.949381 166.898634 
L 327.08837 166.898634 
L 327.199524 167.06639 
L 327.337072 167.06639 
L 327.448417 167.236156 
L 327.603612 167.236156 
L 327.715051 167.40798 
L 327.858447 167.40798 
L 327.969581 167.581912 
L 328.131417 167.581912 
L 328.242588 167.758005 
L 328.430015 167.758005 
L 328.541514 167.936313 
L 328.69827 167.936313 
L 328.809794 168.116892 
L 328.97067 168.116892 
L 329.082184 168.299802 
L 329.271442 168.299802 
L 329.382801 168.485102 
L 329.54397 168.485102 
L 329.655291 168.672857 
L 329.815853 168.672857 
L 329.927126 168.863132 
L 330.101458 168.863132 
L 330.212606 169.055996 
L 330.389613 169.055996 
L 330.501004 169.25152 
L 330.693044 169.25152 
L 330.804198 169.449779 
L 330.994984 169.449779 
L 331.106279 169.650851 
L 331.289362 169.650851 
L 331.400812 169.854815 
L 331.569648 169.854815 
L 331.680925 170.061757 
L 331.862276 170.061757 
L 331.97368 170.271765 
L 332.147335 170.271765 
L 332.258518 170.484932 
L 332.464155 170.484932 
L 332.575319 170.701352 
L 332.783975 170.701352 
L 332.895443 170.921129 
L 333.111199 170.921129 
L 333.222557 171.144366 
L 333.434007 171.144366 
L 333.54526 171.371176 
L 333.760402 171.371176 
L 333.871515 171.601673 
L 334.091868 171.601673 
L 334.203139 171.835981 
L 334.400796 171.835981 
L 334.511971 172.074227 
L 334.712373 172.074227 
L 334.823752 172.316545 
L 335.052434 172.316545 
L 335.163861 172.563078 
L 335.383247 172.563078 
L 335.494422 172.813975 
L 335.71018 172.813975 
L 335.821421 173.069392 
L 336.091843 173.069392 
L 336.203185 173.329496 
L 336.454352 173.329496 
L 336.565547 173.594463 
L 336.814767 173.594463 
L 336.926105 173.864476 
L 337.166268 173.864476 
L 337.277465 174.139733 
L 337.518538 174.139733 
L 337.629863 174.420441 
L 337.877528 174.420441 
L 337.988922 174.70682 
L 338.246842 174.70682 
L 338.35823 174.999105 
L 338.609423 174.999105 
L 338.720811 175.297543 
L 338.970725 175.297543 
L 339.082094 175.602399 
L 339.355963 175.602399 
L 339.467177 175.913957 
L 339.736431 175.913957 
L 339.847754 176.232516 
L 340.128807 176.232516 
L 340.240154 176.558399 
L 340.532676 176.558399 
L 340.643962 176.89195 
L 340.931617 176.89195 
L 341.042837 177.23354 
L 341.348734 177.23354 
L 341.460023 177.583565 
L 341.765817 177.583565 
L 341.87714 177.942452 
L 342.20346 177.942452 
L 342.314688 178.310662 
L 342.619758 178.310662 
L 342.730955 178.688692 
L 343.044284 178.688692 
L 343.155613 179.07708 
L 343.489721 179.07708 
L 343.601046 179.476411 
L 343.930378 179.476411 
L 344.041682 179.887317 
L 344.389891 179.887317 
L 344.501052 180.310492 
L 344.848508 180.310492 
L 344.95971 180.746689 
L 345.315208 180.746689 
L 345.426371 181.196736 
L 345.788945 181.196736 
L 345.900203 181.661541 
L 346.292281 181.661541 
L 346.403451 182.142105 
L 346.764162 182.142105 
L 346.875345 182.639535 
L 347.281507 182.639535 
L 347.392643 183.155056 
L 347.791906 183.155056 
L 347.903169 183.690036 
L 348.327649 183.690036 
L 348.438866 184.246001 
L 348.857129 184.246001 
L 348.968277 184.824665 
L 349.410448 184.824665 
L 349.521721 185.427959 
L 349.987811 185.427959 
L 350.099034 186.058076 
L 350.558703 186.058076 
L 350.669845 186.71751 
L 351.139671 186.71751 
L 351.250792 187.409125 
L 351.756506 187.409125 
L 351.8677 188.136222 
L 352.373426 188.136222 
L 352.484617 188.90264 
L 353.017629 188.90264 
L 353.128771 189.712877 
L 353.675224 189.712877 
L 353.786475 190.572249 
L 354.360034 190.572249 
L 354.471182 191.487101 
L 355.077864 191.487101 
L 355.189093 192.465094 
L 355.851132 192.465094 
L 355.962354 193.515596 
L 356.628667 193.515596 
L 356.739883 194.650225 
L 357.426249 194.650225 
L 357.537379 195.883636 
L 358.255535 195.883636 
L 358.366687 197.234685 
L 359.152445 197.234685 
L 359.263648 198.7282 
L 360.081476 198.7282 
L 360.192654 200.397809 
L 361.070631 200.397809 
L 361.181783 202.290654 
L 362.119598 202.290654 
L 362.230789 204.475785 
L 363.224429 204.475785 
L 363.335592 207.060245 
L 364.425607 207.060245 
L 364.536737 210.223369 
L 365.753095 210.223369 
L 365.864242 214.301345 
L 367.260665 214.301345 
L 367.371853 220.048929 
L 368.996608 220.048929 
L 369.107776 229.874489 
L 371.255568 229.874489 
L 371.255568 229.874489 
" style="fill:none;stroke:#4c72b0;stroke-linecap:round;stroke-width:1.5;"/>
   </g>
   <g id="patch_3">
    <path d="M 51.67375 239.758125 
L 51.67375 22.318125 
" style="fill:none;stroke:#ffffff;stroke-linecap:square;stroke-linejoin:miter;stroke-width:1.25;"/>
   </g>
   <g id="patch_4">
    <path d="M 386.47375 239.758125 
L 386.47375 22.318125 
" style="fill:none;stroke:#ffffff;stroke-linecap:square;stroke-linejoin:miter;stroke-width:1.25;"/>
   </g>
   <g id="patch_5">
    <path d="M 51.67375 239.758125 
L 386.47375 239.758125 
" style="fill:none;stroke:#ffffff;stroke-linecap:square;stroke-linejoin:miter;stroke-width:1.25;"/>
   </g>
   <g id="patch_6">
    <path d="M 51.67375 22.318125 
L 386.47375 22.318125 
" style="fill:none;stroke:#ffffff;stroke-linecap:square;stroke-linejoin:miter;stroke-width:1.25;"/>
   </g>
   <g id="text_16">
    <!-- Number of transactions per merchant_id -->
    <defs>
     <path d="M 18.109375 8.203125 
L 18.109375 -20.796875 
L 9.078125 -20.796875 
L 9.078125 54.6875 
L 18.109375 54.6875 
L 18.109375 46.390625 
Q 20.953125 51.265625 25.265625 53.625 
Q 29.59375 56 35.59375 56 
Q 45.5625 56 51.78125 48.09375 
Q 58.015625 40.1875 58.015625 27.296875 
Q 58.015625 14.40625 51.78125 6.484375 
Q 45.5625 -1.421875 35.59375 -1.421875 
Q 29.59375 -1.421875 25.265625 0.953125 
Q 20.953125 3.328125 18.109375 8.203125 
z
M 48.6875 27.296875 
Q 48.6875 37.203125 44.609375 42.84375 
Q 40.53125 48.484375 33.40625 48.484375 
Q 26.265625 48.484375 22.1875 42.84375 
Q 18.109375 37.203125 18.109375 27.296875 
Q 18.109375 17.390625 22.1875 11.75 
Q 26.265625 6.109375 33.40625 6.109375 
Q 40.53125 6.109375 44.609375 11.75 
Q 48.6875 17.390625 48.6875 27.296875 
z
" id="DejaVuSans-70"/>
    </defs>
    <g style="fill:#262626;" transform="translate(97.164063 16.318125)scale(0.12 -0.12)">
     <use xlink:href="#DejaVuSans-4e"/>
     <use x="74.804688" xlink:href="#DejaVuSans-75"/>
     <use x="138.183594" xlink:href="#DejaVuSans-6d"/>
     <use x="235.595703" xlink:href="#DejaVuSans-62"/>
     <use x="299.072266" xlink:href="#DejaVuSans-65"/>
     <use x="360.595703" xlink:href="#DejaVuSans-72"/>
     <use x="401.708984" xlink:href="#DejaVuSans-20"/>
     <use x="433.496094" xlink:href="#DejaVuSans-6f"/>
     <use x="494.677734" xlink:href="#DejaVuSans-66"/>
     <use x="529.882812" xlink:href="#DejaVuSans-20"/>
     <use x="561.669922" xlink:href="#DejaVuSans-74"/>
     <use x="600.878906" xlink:href="#DejaVuSans-72"/>
     <use x="641.992188" xlink:href="#DejaVuSans-61"/>
     <use x="703.271484" xlink:href="#DejaVuSans-6e"/>
     <use x="766.650391" xlink:href="#DejaVuSans-73"/>
     <use x="818.75" xlink:href="#DejaVuSans-61"/>
     <use x="880.029297" xlink:href="#DejaVuSans-63"/>
     <use x="935.009766" xlink:href="#DejaVuSans-74"/>
     <use x="974.21875" xlink:href="#DejaVuSans-69"/>
     <use x="1002.001953" xlink:href="#DejaVuSans-6f"/>
     <use x="1063.183594" xlink:href="#DejaVuSans-6e"/>
     <use x="1126.5625" xlink:href="#DejaVuSans-73"/>
     <use x="1178.662109" xlink:href="#DejaVuSans-20"/>
     <use x="1210.449219" xlink:href="#DejaVuSans-70"/>
     <use x="1273.925781" xlink:href="#DejaVuSans-65"/>
     <use x="1335.449219" xlink:href="#DejaVuSans-72"/>
     <use x="1376.5625" xlink:href="#DejaVuSans-20"/>
     <use x="1408.349609" xlink:href="#DejaVuSans-6d"/>
     <use x="1505.761719" xlink:href="#DejaVuSans-65"/>
     <use x="1567.285156" xlink:href="#DejaVuSans-72"/>
     <use x="1608.367188" xlink:href="#DejaVuSans-63"/>
     <use x="1663.347656" xlink:href="#DejaVuSans-68"/>
     <use x="1726.726562" xlink:href="#DejaVuSans-61"/>
     <use x="1788.005859" xlink:href="#DejaVuSans-6e"/>
     <use x="1851.384766" xlink:href="#DejaVuSans-74"/>
     <use x="1890.59375" xlink:href="#DejaVuSans-5f"/>
     <use x="1940.59375" xlink:href="#DejaVuSans-69"/>
     <use x="1968.376953" xlink:href="#DejaVuSans-64"/>
    </g>
   </g>
  </g>
 </g>
 <defs>
  <clipPath id="p71ebd2aa54">
   <rect height="217.44" width="334.8" x="51.67375" y="22.318125"/>
  </clipPath>
 </defs>
</svg>
