<svg height="365.2" viewBox="0 0 399.7 273.9" width="532.9" xmlns="http://www.w3.org/2000/svg" xmlns:xlink="http://www.w3.org/1999/xlink"><defs><style>*{stroke-linecap:butt;stroke-linejoin:round}</style></defs><g id="figure_1"><path d="M0 274h399.7V0H0z" fill="none" id="patch_1"/><g id="axes_1"><path d="M51.7 230.6h152.2V13.2H51.7z" fill="#eaeaf2" id="patch_2"/><g id="matplotlib.axis_1"><g id="xtick_1"><path clip-path="url(#pe69130baad)" d="M61.7 230.6V13.2" fill="none" stroke="#fff" stroke-linecap="round" id="line2d_1"/><g id="text_1"><defs><path d="M10.6 35.5h62.6v-8.3H10.6z" id="DejaVuSans-2212"/><path d="M12.4 8.3h16.1v55.6L11 60.4v9l17.4 3.5h9.9V8.3h16V0H12.5z" id="DejaVuSans-31"/><path d="M31.8 66.4q-7.6 0-11.5-7.5-3.8-7.5-3.8-22.5t3.8-22.5q3.9-7.5 11.5-7.5 7.7 0 11.5 7.5T47 36.4q0 15-3.8 22.5t-11.5 7.5zm0 7.8q12.2 0 18.7-9.7T57 36.4Q57 18 50.5 8.3 44-1.4 31.8-1.4 19.5-1.4 13 8.3q-6.5 9.7-6.5 28 0 18.5 6.5 28.2 6.4 9.7 18.7 9.7z" id="DejaVuSans-30"/></defs><g transform="matrix(.11 0 0 -.11 50.1 248.5)" fill="#262626"><use xlink:href="#DejaVuSans-2212"/><use x="83.8" xlink:href="#DejaVuSans-31"/><use x="147.4" xlink:href="#DejaVuSans-30"/></g></g></g><g id="xtick_2"><path clip-path="url(#pe69130baad)" d="M124.6 230.6V13.2" fill="none" stroke="#fff" stroke-linecap="round" id="line2d_2"/><use xlink:href="#DejaVuSans-30" transform="matrix(.11 0 0 -.11 121.1 248.5)" fill="#262626" id="text_2"/></g><g id="xtick_3"><path clip-path="url(#pe69130baad)" d="M187.5 230.6V13.2" fill="none" stroke="#fff" stroke-linecap="round" id="line2d_3"/><g transform="matrix(.11 0 0 -.11 180.5 248.5)" fill="#262626" id="text_3"><use xlink:href="#DejaVuSans-31"/><use x="63.6" xlink:href="#DejaVuSans-30"/></g></g><g id="text_4"><defs><path d="M48.8 52.6v-8.4Q45 46.3 41 47.3q-3.8 1-7.7 1-8.7 0-13.6-5.5Q15 37.3 15 27.3t4.8-15.6q4.9-5.5 13.6-5.5 4 0 7.7 1 3.9 1.1 7.7 3.2V2.1Q45 .3 41-.5q-4-1-8.6-1-12.3 0-19.6 7.8-7.3 7.8-7.3 21 0 13.4 7.4 21Q20.2 56 33 56q4.2 0 8.1-.9 4-.8 7.7-2.5z" id="DejaVuSans-63"/><path d="M9.4 54.7h9V0h-9zm0 21.3h9V64.6h-9z" id="DejaVuSans-69"/><path d="M18.3 70.2V54.7h18.5v-7H18.3V18q0-6.7 1.8-8.6 1.9-1.9 7.5-1.9h9.2V0h-9.2Q17.2 0 13.2 3.9T9.2 18v29.7H2.8v7h6.6v15.5z" id="DejaVuSans-74"/><path d="M32.2-5q-3.8-9.8-7.5-12.8-3.6-3-9.6-3H7.9v7.5h5.3q3.7 0 5.7 1.8 2.1 1.7 4.6 8.3l1.6 4L3 54.8h9.5l17-42.8 17.2 42.8h9.5z" id="DejaVuSans-79"/><path d="M51-16.6v-7H-1v7z" id="DejaVuSans-5f"/><path d="M45.4 46.4V76h9V0h-9v8.2Q42.6 3.3 38.3 1q-4.4-2.4-10.4-2.4-10 0-16.2 7.9-6.2 8-6.2 20.8 0 12.9 6.2 20.8Q18 56 28 56q6 0 10.4-2.4 4.3-2.3 7.1-7.2zM14.8 27.3q0-10 4-15.6Q23 6.2 30.2 6.2q7.1 0 11.2 5.7 4.1 5.6 4.1 15.5t-4.1 15.5q-4.1 5.7-11.2 5.7t-11.2-5.7q-4.1-5.6-4.1-15.5z" id="DejaVuSans-64"/></defs><g transform="matrix(.12 0 0 -.12 108.4 263.9)" fill="#262626"><use xlink:href="#DejaVuSans-63"/><use x="55" xlink:href="#DejaVuSans-69"/><use x="82.8" xlink:href="#DejaVuSans-74"/><use x="122" xlink:href="#DejaVuSans-79"/><use x="181.2" xlink:href="#DejaVuSans-5f"/><use x="231.2" xlink:href="#DejaVuSans-69"/><use x="258.9" xlink:href="#DejaVuSans-64"/></g></g></g><g id="matplotlib.axis_2"><g id="ytick_1"><path clip-path="url(#pe69130baad)" d="M51.7 150.7h152.2" fill="none" stroke="#fff" stroke-linecap="round" id="line2d_4"/><g id="text_5"><defs><path d="M10.8 73h38.7v-8.4H19.8V46.7q2.2.8 4.3 1.1 2.2.4 4.3.4 12.2 0 19.4-6.7 7-6.7 7-18.1 0-11.8-7.2-18.3-7.4-6.5-20.7-6.5-4.6 0-9.4.8-4.7.7-9.8 2.3v10q4.4-2.5 9.1-3.6 4.7-1.2 9.9-1.2 8.5 0 13.4 4.4 5 4.5 5 12 0 7.7-5 12.1Q35 40 26.7 40q-4 0-7.9-.9-4-.9-8-2.7z" id="DejaVuSans-35"/></defs><g transform="matrix(.11 0 0 -.11 22.8 154.9)" fill="#262626"><use transform="translate(0 .7)" xlink:href="#DejaVuSans-31"/><use transform="translate(63.6 .7)" xlink:href="#DejaVuSans-30"/><use transform="matrix(.7 0 0 .7 128.2 39)" xlink:href="#DejaVuSans-35"/></g></g></g><g id="ytick_2"><path clip-path="url(#pe69130baad)" d="M51.7 59.2h152.2" fill="none" stroke="#fff" stroke-linecap="round" id="line2d_5"/><g id="text_6"><defs><path d="M33 40.4q-6.6 0-10.5-4.6-3.9-4.5-3.9-12.4T22.5 11Q26.4 6.4 33 6.4q6.7 0 10.5 4.6 4 4.5 4 12.4t-4 12.4q-3.8 4.6-10.5 4.6zm19.6 30.9v-9Q48.9 64.1 45 65q-3.8 1-7.5 1-9.8 0-15-6.7-5-6.6-5.8-19.9 2.9 4.3 7.2 6.5 4.4 2.3 9.6 2.3 11 0 17.4-6.7 6.3-6.6 6.3-18.1 0-11.2-6.6-18Q44-1.4 33-1.4q-12.6 0-19.3 9.7Q7 18 7 36.3 7 53.8 15.2 64q8.2 10.3 22 10.3 3.7 0 7.5-.7 3.8-.8 7.9-2.2z" id="DejaVuSans-36"/></defs><g transform="matrix(.11 0 0 -.11 22.8 63.3)" fill="#262626"><use transform="translate(0 .8)" xlink:href="#DejaVuSans-31"/><use transform="translate(63.6 .8)" xlink:href="#DejaVuSans-30"/><use transform="matrix(.7 0 0 .7 128.2 39)" xlink:href="#DejaVuSans-36"/></g></g></g><g id="text_7"><defs><path d="M64.4 67.3V56.9q-5 4.6-10.6 7Q48 66 41.8 66q-12.5 0-19.1-7.6Q16 50.8 16 36.4q0-14.4 6.7-22 6.6-7.7 19.1-7.7 6.3 0 12 2.3 5.6 2.3 10.6 7V5.5q-5.2-3.5-11-5.3-5.7-1.7-12.2-1.7-16.5 0-26 10.1-9.6 10.1-9.6 27.7T15.1 64q9.6 10.1 26.1 10.1 6.5 0 12.3-1.7 5.8-1.8 11-5.2z" id="DejaVuSans-43"/><path d="M30.6 48.4q-7.2 0-11.4-5.6Q15 37 15 27.3t4.2-15.5q4.1-5.6 11.4-5.6 7.2 0 11.4 5.7 4.2 5.6 4.2 15.4 0 9.7-4.2 15.4-4.2 5.7-11.4 5.7zm0 7.6q11.7 0 18.4-7.6 6.7-7.6 6.7-21.1 0-13.4-6.7-21-6.7-7.7-18.4-7.7-11.8 0-18.4 7.6Q5.5 14 5.5 27.3q0 13.5 6.7 21Q18.8 56 30.6 56z" id="DejaVuSans-6f"/><path d="M8.5 21.6v33h9V22q0-7.7 3-11.6 3-4 9-4 7.4 0 11.6 4.7 4.2 4.7 4.2 12.7v31h9V0h-9v8.4Q42 3.4 37.7 1q-4.3-2.4-10-2.4-9.4 0-14.3 5.8-4.9 5.9-4.9 17.2zM31.1 56z" id="DejaVuSans-75"/><path d="M54.9 33V0h-9v32.7q0 7.8-3 11.6-3 3.9-9.1 3.9-7.3 0-11.5-4.7Q18.1 39 18.1 31V0h-9v54.7h9v-8.5q3.2 5 7.6 7.4Q30.1 56 35.8 56q9.4 0 14.2-5.8Q55 44.3 55 33z" id="DejaVuSans-6e"/></defs><g transform="matrix(0 -.12 -.12 0 16.3 139.7)" fill="#262626"><use xlink:href="#DejaVuSans-43"/><use x="69.8" xlink:href="#DejaVuSans-6f"/><use x="131" xlink:href="#DejaVuSans-75"/><use x="194.4" xlink:href="#DejaVuSans-6e"/><use x="257.8" xlink:href="#DejaVuSans-74"/></g></g></g><path clip-path="url(#pe69130baad)" d="M58.6 92148.4h6.3-6.3z" fill="#4c72b0" stroke="#fff" id="patch_3"/><path clip-path="url(#pe69130baad)" d="M64.9 92148.4h6.3-6.3z" fill="#4c72b0" stroke="#fff" id="patch_4"/><path clip-path="url(#pe69130baad)" d="M71.2 92148.4h6.3-6.3z" fill="#4c72b0" stroke="#fff" id="patch_5"/><path clip-path="url(#pe69130baad)" d="M77.5 92148.4h6.2-6.2z" fill="#4c72b0" stroke="#fff" id="patch_6"/><path clip-path="url(#pe69130baad)" d="M83.7 92148.4H90h-6.3z" fill="#4c72b0" stroke="#fff" id="patch_7"/><path clip-path="url(#pe69130baad)" d="M90 92148.4h6.3H90z" fill="#4c72b0" stroke="#fff" id="patch_8"/><path clip-path="url(#pe69130baad)" d="M96.3 92148.4h6.3-6.3z" fill="#4c72b0" stroke="#fff" id="patch_9"/><path clip-path="url(#pe69130baad)" d="M102.6 92148.4h6.3-6.3z" fill="#4c72b0" stroke="#fff" id="patch_10"/><path clip-path="url(#pe69130baad)" d="M108.9 92148.4h6.3-6.3z" fill="#4c72b0" stroke="#fff" id="patch_11"/><path clip-path="url(#pe69130baad)" d="M115.2 92148.4h6.3V23h-6.3z" fill="#4c72b0" stroke="#fff" id="patch_12"/><path clip-path="url(#pe69130baad)" d="M121.5 92148.4h6.3-6.3z" fill="#4c72b0" stroke="#fff" id="patch_13"/><path clip-path="url(#pe69130baad)" d="M127.8 92148.4h6.3V147.4h-6.3z" fill="#4c72b0" stroke="#fff" id="patch_14"/><path clip-path="url(#pe69130baad)" d="M134 92148.4h6.3V220.8h-6.2z" fill="#4c72b0" stroke="#fff" id="patch_15"/><path clip-path="url(#pe69130baad)" d="M140.3 92148.4h6.3V184.6h-6.3z" fill="#4c72b0" stroke="#fff" id="patch_16"/><path clip-path="url(#pe69130baad)" d="M146.6 92148.4h6.3V120.8h-6.3z" fill="#4c72b0" stroke="#fff" id="patch_17"/><path clip-path="url(#pe69130baad)" d="M153 92148.4h6.2-6.3z" fill="#4c72b0" stroke="#fff" id="patch_18"/><path clip-path="url(#pe69130baad)" d="M159.2 92148.4h6.3V207h-6.3z" fill="#4c72b0" stroke="#fff" id="patch_19"/><path clip-path="url(#pe69130baad)" d="M165.5 92148.4h6.3V210h-6.3z" fill="#4c72b0" stroke="#fff" id="patch_20"/><path clip-path="url(#pe69130baad)" d="M171.8 92148.4h6.3V155.2h-6.3z" fill="#4c72b0" stroke="#fff" id="patch_21"/><path clip-path="url(#pe69130baad)" d="M178 92148.4h6.4V212.7H178z" fill="#4c72b0" stroke="#fff" id="patch_22"/><path clip-path="url(#pe69130baad)" d="M184.4 92148.4h6.2V194.4h-6.2z" fill="#4c72b0" stroke="#fff" id="patch_23"/><path clip-path="url(#pe69130baad)" d="M190.6 92148.4h6.3V153.7h-6.3z" fill="#4c72b0" stroke="#fff" id="patch_24"/><path clip-path="url(#pe69130baad)" d="M124.6 230.6V13.2" fill="none" stroke="#1a1a1a" stroke-dasharray="5.55,2.4" stroke-width="1.5" id="line2d_6"/><path d="M51.7 230.6V13.2" fill="none" stroke="#fff" stroke-linecap="square" stroke-width="1.3" id="patch_25"/><path d="M203.9 230.6V13.2" fill="none" stroke="#fff" stroke-linecap="square" stroke-width="1.3" id="patch_26"/><path d="M51.7 230.6h152.2" fill="none" stroke="#fff" stroke-linecap="square" stroke-width="1.3" id="patch_27"/><path d="M51.7 13.2h152.2" fill="none" stroke="#fff" stroke-linecap="square" stroke-width="1.3" id="patch_28"/></g><g id="axes_2"><path d="M234.3 230.6h152.2V13.2H234.3z" fill="#eaeaf2" id="patch_29"/><g id="matplotlib.axis_3"><g id="xtick_4"><path clip-path="url(#p9ee49f5302)" d="M244.4 230.6V13.2" fill="none" stroke="#fff" stroke-linecap="round" id="line2d_7"/><g transform="matrix(.11 0 0 -.11 232.7 248.5)" fill="#262626" id="text_8"><use xlink:href="#DejaVuSans-2212"/><use x="83.8" xlink:href="#DejaVuSans-31"/><use x="147.4" xlink:href="#DejaVuSans-30"/></g></g><g id="xtick_5"><path clip-path="url(#p9ee49f5302)" d="M307.2 230.6V13.2" fill="none" stroke="#fff" stroke-linecap="round" id="line2d_8"/><use xlink:href="#DejaVuSans-30" transform="matrix(.11 0 0 -.11 303.7 248.5)" fill="#262626" id="text_9"/></g><g id="xtick_6"><path clip-path="url(#p9ee49f5302)" d="M370.1 230.6V13.2" fill="none" stroke="#fff" stroke-linecap="round" id="line2d_9"/><g transform="matrix(.11 0 0 -.11 363.1 248.5)" fill="#262626" id="text_10"><use xlink:href="#DejaVuSans-31"/><use x="63.6" xlink:href="#DejaVuSans-30"/></g></g><g id="text_11"><defs><path d="M44.3 53v-8.4q-3.8 2-8 2.9-4 1-8.4 1-6.7 0-10-2-3.4-2.1-3.4-6.2 0-3.1 2.4-5 2.4-1.7 9.6-3.3l3-.7q9.7-2 13.7-5.8 4-3.7 4-10.4 0-7.6-6-12-6-4.5-16.6-4.5-4.4 0-9.1.8-4.8.9-10 2.6v9.3q5-2.6 9.7-4 4.9-1.2 9.6-1.2 6.4 0 9.8 2.2 3.4 2.2 3.4 6.1 0 3.7-2.5 5.6-2.4 2-10.8 3.8l-3.1.7q-8.4 1.8-12 5.4-3.8 3.6-3.8 10 0 7.7 5.5 11.9Q16.7 56 26.8 56q5 0 9.4-.7 4.4-.8 8-2.2z" id="DejaVuSans-73"/><path d="M34.3 27.5q-11 0-15.1-2.5-4.2-2.5-4.2-8.5 0-4.8 3.1-7.6 3.2-2.8 8.6-2.8 7.5 0 12 5.3t4.5 14v2zm17.9 3.7V0h-9v8.3q-3-5-7.7-7.3Q31-1.4 24.3-1.4 16-1.4 11 3.3 6 8 6 15.9q0 9.2 6.2 14 6.2 4.6 18.4 4.6h12.6v1q0 6.1-4 9.5-4.1 3.4-11.5 3.4-4.7 0-9.2-1.1-4.4-1.2-8.5-3.4v8.3q5 2 9.6 2.8 4.6 1 9 1 11.9 0 17.7-6.2 5.9-6.1 5.9-18.6z" id="DejaVuSans-61"/><path d="M56.2 29.6v-4.4H14.9q.6-9.3 5.6-14.1 5-4.9 14-4.9 5 0 10 1.3 4.8 1.2 9.6 3.8V2.8q-4.8-2-10-3.1-5-1.1-10.2-1.1-13.1 0-20.7 7.6-7.7 7.6-7.7 20.6 0 13.4 7.3 21.3Q20 56 32.3 56q11 0 17.5-7.1 6.4-7.1 6.4-19.3zm-9 2.6q0 7.4-4.1 11.8-4 4.4-10.7 4.4-7.5 0-12-4.3-4.5-4.2-5.2-12z" id="DejaVuSans-65"/></defs><g transform="matrix(.12 0 0 -.12 286.7 263.9)" fill="#262626"><use xlink:href="#DejaVuSans-73"/><use x="52.1" xlink:href="#DejaVuSans-74"/><use x="91.3" xlink:href="#DejaVuSans-61"/><use x="152.6" xlink:href="#DejaVuSans-74"/><use x="191.8" xlink:href="#DejaVuSans-65"/><use x="253.3" xlink:href="#DejaVuSans-5f"/><use x="303.3" xlink:href="#DejaVuSans-69"/><use x="331.1" xlink:href="#DejaVuSans-64"/></g></g></g><g id="matplotlib.axis_4"><g id="ytick_21"><path clip-path="url(#p9ee49f5302)" d="M234.3 212h152.2" fill="none" stroke="#fff" stroke-linecap="round" id="line2d_10"/><g id="text_12"><defs><path d="M37.8 64.3l-25-39h25zM35.2 73h12.4V25.4H58v-8.2H47.6V0h-9.8v17.2h-33v9.5z" id="DejaVuSans-34"/></defs><g transform="matrix(.11 0 0 -.11 205.4 216.1)" fill="#262626"><use transform="translate(0 .7)" xlink:href="#DejaVuSans-31"/><use transform="translate(63.6 .7)" xlink:href="#DejaVuSans-30"/><use transform="matrix(.7 0 0 .7 128.2 39)" xlink:href="#DejaVuSans-34"/></g></g></g><g id="ytick_22"><path clip-path="url(#p9ee49f5302)" d="M234.3 149.5h152.2" fill="none" stroke="#fff" stroke-linecap="round" id="line2d_11"/><g transform="matrix(.11 0 0 -.11 205.4 153.7)" fill="#262626" id="text_13"><use transform="translate(0 .7)" xlink:href="#DejaVuSans-31"/><use transform="translate(63.6 .7)" xlink:href="#DejaVuSans-30"/><use transform="matrix(.7 0 0 .7 128.2 39)" xlink:href="#DejaVuSans-35"/></g></g><g id="ytick_23"><path clip-path="url(#p9ee49f5302)" d="M234.3 87h152.2" fill="none" stroke="#fff" stroke-linecap="round" id="line2d_12"/><g transform="matrix(.11 0 0 -.11 205.4 91.2)" fill="#262626" id="text_14"><use transform="translate(0 .8)" xlink:href="#DejaVuSans-31"/><use transform="translate(63.6 .8)" xlink:href="#DejaVuSans-30"/><use transform="matrix(.7 0 0 .7 128.2 39)" xlink:href="#DejaVuSans-36"/></g></g><g id="ytick_24"><path clip-path="url(#p9ee49f5302)" d="M234.3 24.6h152.2" fill="none" stroke="#fff" stroke-linecap="round" id="line2d_13"/><g id="text_15"><defs><path d="M8.2 73h46.9v-4.3L28.6 0H18.3l25 64.6H8.1z" id="DejaVuSans-37"/></defs><g transform="matrix(.11 0 0 -.11 205.4 28.8)" fill="#262626"><use transform="translate(0 .7)" xlink:href="#DejaVuSans-31"/><use transform="translate(63.6 .7)" xlink:href="#DejaVuSans-30"/><use transform="matrix(.7 0 0 .7 128.2 39)" xlink:href="#DejaVuSans-37"/></g></g></g><g transform="matrix(0 -.12 -.12 0 199 139.7)" fill="#262626" id="text_16"><use xlink:href="#DejaVuSans-43"/><use x="69.8" xlink:href="#DejaVuSans-6f"/><use x="131" xlink:href="#DejaVuSans-75"/><use x="194.4" xlink:href="#DejaVuSans-6e"/><use x="257.8" xlink:href="#DejaVuSans-74"/></g></g><path clip-path="url(#p9ee49f5302)" d="M241.2 62923.4h6.3-6.3z" fill="#4c72b0" stroke="#fff" id="patch_30"/><path clip-path="url(#p9ee49f5302)" d="M247.5 62923.4h6.3-6.3z" fill="#4c72b0" stroke="#fff" id="patch_31"/><path clip-path="url(#p9ee49f5302)" d="M253.8 62923.4h6.3-6.3z" fill="#4c72b0" stroke="#fff" id="patch_32"/><path clip-path="url(#p9ee49f5302)" d="M260 62923.4h6.4-6.3z" fill="#4c72b0" stroke="#fff" id="patch_33"/><path clip-path="url(#p9ee49f5302)" d="M266.4 62923.4h6.3-6.3z" fill="#4c72b0" stroke="#fff" id="patch_34"/><path clip-path="url(#p9ee49f5302)" d="M272.7 62923.4h6.2-6.2z" fill="#4c72b0" stroke="#fff" id="patch_35"/><path clip-path="url(#p9ee49f5302)" d="M279 62923.4h6.2-6.3z" fill="#4c72b0" stroke="#fff" id="patch_36"/><path clip-path="url(#p9ee49f5302)" d="M285.2 62923.4h6.3-6.3z" fill="#4c72b0" stroke="#fff" id="patch_37"/><path clip-path="url(#p9ee49f5302)" d="M291.5 62923.4h6.3-6.3z" fill="#4c72b0" stroke="#fff" id="patch_38"/><path clip-path="url(#p9ee49f5302)" d="M297.8 62923.4h6.3V60.6h-6.3z" fill="#4c72b0" stroke="#fff" id="patch_39"/><path clip-path="url(#p9ee49f5302)" d="M304 62923.4h6.4-6.3z" fill="#4c72b0" stroke="#fff" id="patch_40"/><path clip-path="url(#p9ee49f5302)" d="M310.4 62923.4h6.3V124.9h-6.3z" fill="#4c72b0" stroke="#fff" id="patch_41"/><path clip-path="url(#p9ee49f5302)" d="M316.7 62923.4h6.3V113.9h-6.3z" fill="#4c72b0" stroke="#fff" id="patch_42"/><path clip-path="url(#p9ee49f5302)" d="M323 62923.4h6.2V103.6H323z" fill="#4c72b0" stroke="#fff" id="patch_43"/><path clip-path="url(#p9ee49f5302)" d="M329.2 62923.4h6.3V91.7h-6.3z" fill="#4c72b0" stroke="#fff" id="patch_44"/><path clip-path="url(#p9ee49f5302)" d="M335.5 62923.4h6.3V73.4h-6.3z" fill="#4c72b0" stroke="#fff" id="patch_45"/><path clip-path="url(#p9ee49f5302)" d="M341.8 62923.4h6.3V220.8h-6.3z" fill="#4c72b0" stroke="#fff" id="patch_46"/><path clip-path="url(#p9ee49f5302)" d="M348.1 62923.4h6.3V99h-6.3z" fill="#4c72b0" stroke="#fff" id="patch_47"/><path clip-path="url(#p9ee49f5302)" d="M354.4 62923.4h6.3V137h-6.3z" fill="#4c72b0" stroke="#fff" id="patch_48"/><path clip-path="url(#p9ee49f5302)" d="M360.7 62923.4h6.3V23h-6.3z" fill="#4c72b0" stroke="#fff" id="patch_49"/><path clip-path="url(#p9ee49f5302)" d="M367 62923.4h6.3V127.8H367z" fill="#4c72b0" stroke="#fff" id="patch_50"/><path clip-path="url(#p9ee49f5302)" d="M373.3 62923.4h6.3V99.5h-6.3z" fill="#4c72b0" stroke="#fff" id="patch_51"/><path clip-path="url(#p9ee49f5302)" d="M307.2 230.6V13.2" fill="none" stroke="#1a1a1a" stroke-dasharray="5.55,2.4" stroke-width="1.5" id="line2d_14"/><path d="M234.3 230.6V13.2" fill="none" stroke="#fff" stroke-linecap="square" stroke-width="1.3" id="patch_52"/><path d="M386.5 230.6V13.2" fill="none" stroke="#fff" stroke-linecap="square" stroke-width="1.3" id="patch_53"/><path d="M234.3 230.6h152.2" fill="none" stroke="#fff" stroke-linecap="square" stroke-width="1.3" id="patch_54"/><path d="M234.3 13.2h152.2" fill="none" stroke="#fff" stroke-linecap="square" stroke-width="1.3" id="patch_55"/></g></g><defs><clipPath id="pe69130baad"><path d="M51.7 13.2h152.2v217.4H51.7z"/></clipPath><clipPath id="p9ee49f5302"><path d="M234.3 13.2h152.2v217.4H234.3z"/></clipPath></defs></svg>