<svg height="949.9" viewBox="0 0 453.6 712.4" width="604.8" xmlns="http://www.w3.org/2000/svg" xmlns:xlink="http://www.w3.org/1999/xlink"><defs><style>*{stroke-linecap:butt;stroke-linejoin:round}</style></defs><g id="figure_1"><path d="M0 712.4h453.6V0H0z" fill="none" id="patch_1"/><g id="axes_1"><path d="M51.7 196.3h388.7V13.2H51.7z" fill="#eaeaf2" id="patch_2"/><g id="matplotlib.axis_1"><g id="xtick_1"><path clip-path="url(#p681e1c633b)" d="M69.4 196.3V13.2" fill="none" stroke="#fff" stroke-linecap="round" id="line2d_1"/><g id="text_1"><defs><path d="M10.6 35.5h62.6v-8.3H10.6z" id="DejaVuSans-2212"/><path d="M12.4 8.3h16.1v55.6L11 60.4v9l17.4 3.5h9.9V8.3h16V0H12.5z" id="DejaVuSans-31"/><path d="M10.7 12.4H21V0H10.7z" id="DejaVuSans-2e"/><path d="M31.8 66.4q-7.6 0-11.5-7.5-3.8-7.5-3.8-22.5t3.8-22.5q3.9-7.5 11.5-7.5 7.7 0 11.5 7.5T47 36.4q0 15-3.8 22.5t-11.5 7.5zm0 7.8q12.2 0 18.7-9.7T57 36.4Q57 18 50.5 8.3 44-1.4 31.8-1.4 19.5-1.4 13 8.3q-6.5 9.7-6.5 28 0 18.5 6.5 28.2 6.4 9.7 18.7 9.7z" id="DejaVuSans-30"/></defs><g transform="matrix(.11 0 0 -.11 56 214.2)" fill="#262626"><use xlink:href="#DejaVuSans-2212"/><use x="83.8" xlink:href="#DejaVuSans-31"/><use x="147.4" xlink:href="#DejaVuSans-2e"/><use x="179.2" xlink:href="#DejaVuSans-30"/></g></g></g><g id="xtick_2"><path clip-path="url(#p681e1c633b)" d="M113.5 196.3V13.2" fill="none" stroke="#fff" stroke-linecap="round" id="line2d_2"/><g id="text_2"><defs><path d="M10.8 73h38.7v-8.4H19.8V46.7q2.2.8 4.3 1.1 2.2.4 4.3.4 12.2 0 19.4-6.7 7-6.7 7-18.1 0-11.8-7.2-18.3-7.4-6.5-20.7-6.5-4.6 0-9.4.8-4.7.7-9.8 2.3v10q4.4-2.5 9.1-3.6 4.7-1.2 9.9-1.2 8.5 0 13.4 4.4 5 4.5 5 12 0 7.7-5 12.1Q35 40 26.7 40q-4 0-7.9-.9-4-.9-8-2.7z" id="DejaVuSans-35"/></defs><g transform="matrix(.11 0 0 -.11 100.2 214.2)" fill="#262626"><use xlink:href="#DejaVuSans-2212"/><use x="83.8" xlink:href="#DejaVuSans-30"/><use x="147.4" xlink:href="#DejaVuSans-2e"/><use x="179.2" xlink:href="#DejaVuSans-35"/></g></g></g><g id="xtick_3"><path clip-path="url(#p681e1c633b)" d="M157.7 196.3V13.2" fill="none" stroke="#fff" stroke-linecap="round" id="line2d_3"/><g transform="matrix(.11 0 0 -.11 149 214.2)" fill="#262626" id="text_3"><use xlink:href="#DejaVuSans-30"/><use x="63.6" xlink:href="#DejaVuSans-2e"/><use x="95.4" xlink:href="#DejaVuSans-30"/></g></g><g id="xtick_4"><path clip-path="url(#p681e1c633b)" d="M201.9 196.3V13.2" fill="none" stroke="#fff" stroke-linecap="round" id="line2d_4"/><g transform="matrix(.11 0 0 -.11 193.1 214.2)" fill="#262626" id="text_4"><use xlink:href="#DejaVuSans-30"/><use x="63.6" xlink:href="#DejaVuSans-2e"/><use x="95.4" xlink:href="#DejaVuSans-35"/></g></g><g id="xtick_5"><path clip-path="url(#p681e1c633b)" d="M246 196.3V13.2" fill="none" stroke="#fff" stroke-linecap="round" id="line2d_5"/><g transform="matrix(.11 0 0 -.11 237.3 214.2)" fill="#262626" id="text_5"><use xlink:href="#DejaVuSans-31"/><use x="63.6" xlink:href="#DejaVuSans-2e"/><use x="95.4" xlink:href="#DejaVuSans-30"/></g></g><g id="xtick_6"><path clip-path="url(#p681e1c633b)" d="M290.2 196.3V13.2" fill="none" stroke="#fff" stroke-linecap="round" id="line2d_6"/><g transform="matrix(.11 0 0 -.11 281.5 214.2)" fill="#262626" id="text_6"><use xlink:href="#DejaVuSans-31"/><use x="63.6" xlink:href="#DejaVuSans-2e"/><use x="95.4" xlink:href="#DejaVuSans-35"/></g></g><g id="xtick_7"><path clip-path="url(#p681e1c633b)" d="M334.4 196.3V13.2" fill="none" stroke="#fff" stroke-linecap="round" id="line2d_7"/><g id="text_7"><defs><path d="M19.2 8.3h34.4V0H7.3v8.3l15.3 15.6q9.7 9.8 12.2 12.6 4.7 5.3 6.6 9 2 3.7 2 7.3 0 5.8-4.2 9.5-4 3.6-10.6 3.6-4.6 0-9.8-1.6-5.1-1.6-11-4.9v10q6 2.4 11.1 3.6 5.2 1.2 9.5 1.2 11.4 0 18-5.7 6.8-5.6 6.8-15 0-4.6-1.7-8.6-1.6-4-6-9.5l-7.9-8.2L19.2 8.3z" id="DejaVuSans-32"/></defs><g transform="matrix(.11 0 0 -.11 325.6 214.2)" fill="#262626"><use xlink:href="#DejaVuSans-32"/><use x="63.6" xlink:href="#DejaVuSans-2e"/><use x="95.4" xlink:href="#DejaVuSans-30"/></g></g></g><g id="xtick_8"><path clip-path="url(#p681e1c633b)" d="M378.6 196.3V13.2" fill="none" stroke="#fff" stroke-linecap="round" id="line2d_8"/><g transform="matrix(.11 0 0 -.11 369.8 214.2)" fill="#262626" id="text_8"><use xlink:href="#DejaVuSans-32"/><use x="63.6" xlink:href="#DejaVuSans-2e"/><use x="95.4" xlink:href="#DejaVuSans-35"/></g></g><g id="xtick_9"><path clip-path="url(#p681e1c633b)" d="M422.7 196.3V13.2" fill="none" stroke="#fff" stroke-linecap="round" id="line2d_9"/><g id="text_9"><defs><path d="M40.6 39.3q7-1.5 11-6.3t4-11.8q0-10.8-7.4-16.7-7.4-6-21.1-6-4.6 0-9.4 1-4.9.9-10 2.7v9.5q4-2.4 8.9-3.6Q21.5 7 26.8 7q9.3 0 14.1 3.6 4.9 3.7 4.9 10.7 0 6.4-4.5 10Q36.8 35 28.7 35h-8.5V43h9q7.2 0 11 3 3.9 2.8 3.9 8.3 0 5.6-4 8.6t-11.4 3q-4 0-8.7-.9-4.6-.8-10.2-2.7v8.8q5.6 1.6 10.5 2.3 5 .8 9.3.8 11.2 0 17.8-5 6.5-5.2 6.5-13.9 0-6-3.5-10.2-3.4-4.2-9.8-5.8z" id="DejaVuSans-33"/></defs><g transform="matrix(.11 0 0 -.11 414 214.2)" fill="#262626"><use xlink:href="#DejaVuSans-33"/><use x="63.6" xlink:href="#DejaVuSans-2e"/><use x="95.4" xlink:href="#DejaVuSans-30"/></g></g></g><g id="text_10"><defs><path d="M41.1 46.3q-1.5.9-3.3 1.3-1.8.4-4 .4-7.5 0-11.6-5-4-5-4-14.2V0H9v54.7h9v-8.5q2.9 5 7.4 7.4Q30 56 36.5 56l2-.1 2.6-.4z" id="DejaVuSans-72"/><path d="M34.3 27.5q-11 0-15.1-2.5-4.2-2.5-4.2-8.5 0-4.8 3.1-7.6 3.2-2.8 8.6-2.8 7.5 0 12 5.3t4.5 14v2zm17.9 3.7V0h-9v8.3q-3-5-7.7-7.3Q31-1.4 24.3-1.4 16-1.4 11 3.3 6 8 6 15.9q0 9.2 6.2 14 6.2 4.6 18.4 4.6h12.6v1q0 6.1-4 9.5-4.1 3.4-11.5 3.4-4.7 0-9.2-1.1-4.4-1.2-8.5-3.4v8.3q5 2 9.6 2.8 4.6 1 9 1 11.9 0 17.7-6.2 5.9-6.1 5.9-18.6z" id="DejaVuSans-61"/><path d="M45.4 28q0 9.8-4 15.1-4 5.4-11.3 5.4-7.2 0-11.3-5.4-4-5.4-4-15.1t4-15.1q4-5.4 11.3-5.4 7.3 0 11.3 5.4 4 5.4 4 15zm9-21.2q0-14-6.2-20.8-6.2-6.8-19-6.8-4.7 0-9 .7-4.1.7-8 2.2v8.7q3.9-2.1 7.7-3.1 3.9-1 7.9-1 8.8 0 13.2 4.5 4.4 4.6 4.4 14v4.4q-2.8-4.8-7.1-7.2Q33.9 0 27.9 0q-10 0-16.2 7.7Q5.5 15.3 5.5 28q0 12.7 6.2 20.3Q17.8 56 27.9 56q6 0 10.4-2.4 4.3-2.4 7.1-7.2v8.3h9z" id="DejaVuSans-67"/><path d="M51-16.6v-7H-1v7z" id="DejaVuSans-5f"/><path d="M18.1 8.2v-29h-9v75.5h9v-8.3q2.9 4.9 7.2 7.2Q29.6 56 35.6 56q10 0 16.2-8Q58 40.3 58 27.4q0-12.9-6.2-20.8-6.2-8-16.2-8-6 0-10.3 2.5Q21 3.3 18 8.2zm30.6 19.1q0 9.9-4 15.5-4.2 5.7-11.3 5.7-7.1 0-11.2-5.7-4-5.6-4-15.5 0-10 4-15.6t11.2-5.6q7.1 0 11.2 5.7 4 5.6 4 15.5z" id="DejaVuSans-70"/><path d="M8.5 21.6v33h9V22q0-7.7 3-11.6 3-4 9-4 7.4 0 11.6 4.7 4.2 4.7 4.2 12.7v31h9V0h-9v8.4Q42 3.4 37.7 1q-4.3-2.4-10-2.4-9.4 0-14.3 5.8-4.9 5.9-4.9 17.2zM31.1 56z" id="DejaVuSans-75"/><path d="M3 54.7h9.5l17-45.9 17.2 45.9h9.5L35.7 0H23.5z" id="DejaVuSans-76"/><path d="M48.8 52.6v-8.4Q45 46.3 41 47.3q-3.8 1-7.7 1-8.7 0-13.6-5.5Q15 37.3 15 27.3t4.8-15.6q4.9-5.5 13.6-5.5 4 0 7.7 1 3.9 1.1 7.7 3.2V2.1Q45 .3 41-.5q-4-1-8.6-1-12.3 0-19.6 7.8-7.3 7.8-7.3 21 0 13.4 7.4 21Q20.2 56 33 56q4.2 0 8.1-.9 4-.8 7.7-2.5z" id="DejaVuSans-63"/><path d="M54.9 33V0h-9v32.7q0 7.8-3 11.6-3 3.9-9.1 3.9-7.3 0-11.5-4.7Q18.1 39 18.1 31V0h-9v76h9V46.2q3.2 5 7.6 7.4Q30.1 56 35.8 56q9.4 0 14.2-5.8Q55 44.3 55 33z" id="DejaVuSans-68"/><path d="M44.3 53v-8.4q-3.8 2-8 2.9-4 1-8.4 1-6.7 0-10-2-3.4-2.1-3.4-6.2 0-3.1 2.4-5 2.4-1.7 9.6-3.3l3-.7q9.7-2 13.7-5.8 4-3.7 4-10.4 0-7.6-6-12-6-4.5-16.6-4.5-4.4 0-9.1.8-4.8.9-10 2.6v9.3q5-2.6 9.7-4 4.9-1.2 9.6-1.2 6.4 0 9.8 2.2 3.4 2.2 3.4 6.1 0 3.7-2.5 5.6-2.4 2-10.8 3.8l-3.1.7q-8.4 1.8-12 5.4-3.8 3.6-3.8 10 0 7.7 5.5 11.9Q16.7 56 26.8 56q5 0 9.4-.7 4.4-.8 8-2.2z" id="DejaVuSans-73"/><path d="M56.2 29.6v-4.4H14.9q.6-9.3 5.6-14.1 5-4.9 14-4.9 5 0 10 1.3 4.8 1.2 9.6 3.8V2.8q-4.8-2-10-3.1-5-1.1-10.2-1.1-13.1 0-20.7 7.6-7.7 7.6-7.7 20.6 0 13.4 7.3 21.3Q20 56 32.3 56q11 0 17.5-7.1 6.4-7.1 6.4-19.3zm-9 2.6q0 7.4-4.1 11.8-4 4.4-10.7 4.4-7.5 0-12-4.3-4.5-4.2-5.2-12z" id="DejaVuSans-65"/><path d="M9.4 76h9V0h-9z" id="DejaVuSans-6c"/></defs><g transform="matrix(.12 0 0 -.12 185.2 229.6)" fill="#262626"><use xlink:href="#DejaVuSans-61"/><use x="61.3" xlink:href="#DejaVuSans-76"/><use x="120.5" xlink:href="#DejaVuSans-67"/><use x="183.9" xlink:href="#DejaVuSans-5f"/><use x="233.9" xlink:href="#DejaVuSans-70"/><use x="297.4" xlink:href="#DejaVuSans-75"/><use x="360.8" xlink:href="#DejaVuSans-72"/><use x="401.9" xlink:href="#DejaVuSans-63"/><use x="456.9" xlink:href="#DejaVuSans-68"/><use x="520.2" xlink:href="#DejaVuSans-61"/><use x="581.5" xlink:href="#DejaVuSans-73"/><use x="633.6" xlink:href="#DejaVuSans-65"/><use x="695.1" xlink:href="#DejaVuSans-73"/><use x="747.2" xlink:href="#DejaVuSans-5f"/><use x="797.2" xlink:href="#DejaVuSans-6c"/><use x="825" xlink:href="#DejaVuSans-61"/><use x="886.3" xlink:href="#DejaVuSans-67"/><use x="949.8" xlink:href="#DejaVuSans-33"/></g></g></g><g id="matplotlib.axis_2"><g id="ytick_1"><path clip-path="url(#p681e1c633b)" d="M51.7 196.3h388.7" fill="none" stroke="#fff" stroke-linecap="round" id="line2d_10"/><use xlink:href="#DejaVuSans-30" transform="matrix(.11 0 0 -.11 35.2 200.5)" fill="#262626" id="text_11"/></g><g id="ytick_2"><path clip-path="url(#p681e1c633b)" d="M51.7 153.5h388.7" fill="none" stroke="#fff" stroke-linecap="round" id="line2d_11"/><g transform="matrix(.11 0 0 -.11 7.2 157.7)" fill="#262626" id="text_12"><use xlink:href="#DejaVuSans-32"/><use x="63.6" xlink:href="#DejaVuSans-30"/><use x="127.2" xlink:href="#DejaVuSans-30"/><use x="190.9" xlink:href="#DejaVuSans-30"/><use x="254.5" xlink:href="#DejaVuSans-30"/></g></g><g id="ytick_3"><path clip-path="url(#p681e1c633b)" d="M51.7 110.8h388.7" fill="none" stroke="#fff" stroke-linecap="round" id="line2d_12"/><g id="text_13"><defs><path d="M37.8 64.3l-25-39h25zM35.2 73h12.4V25.4H58v-8.2H47.6V0h-9.8v17.2h-33v9.5z" id="DejaVuSans-34"/></defs><g transform="matrix(.11 0 0 -.11 7.2 115)" fill="#262626"><use xlink:href="#DejaVuSans-34"/><use x="63.6" xlink:href="#DejaVuSans-30"/><use x="127.2" xlink:href="#DejaVuSans-30"/><use x="190.9" xlink:href="#DejaVuSans-30"/><use x="254.5" xlink:href="#DejaVuSans-30"/></g></g></g><g id="ytick_4"><path clip-path="url(#p681e1c633b)" d="M51.7 68h388.7" fill="none" stroke="#fff" stroke-linecap="round" id="line2d_13"/><g id="text_14"><defs><path d="M33 40.4q-6.6 0-10.5-4.6-3.9-4.5-3.9-12.4T22.5 11Q26.4 6.4 33 6.4q6.7 0 10.5 4.6 4 4.5 4 12.4t-4 12.4q-3.8 4.6-10.5 4.6zm19.6 30.9v-9Q48.9 64.1 45 65q-3.8 1-7.5 1-9.8 0-15-6.7-5-6.6-5.8-19.9 2.9 4.3 7.2 6.5 4.4 2.3 9.6 2.3 11 0 17.4-6.7 6.3-6.6 6.3-18.1 0-11.2-6.6-18Q44-1.4 33-1.4q-12.6 0-19.3 9.7Q7 18 7 36.3 7 53.8 15.2 64q8.2 10.3 22 10.3 3.7 0 7.5-.7 3.8-.8 7.9-2.2z" id="DejaVuSans-36"/></defs><g transform="matrix(.11 0 0 -.11 7.2 72.2)" fill="#262626"><use xlink:href="#DejaVuSans-36"/><use x="63.6" xlink:href="#DejaVuSans-30"/><use x="127.2" xlink:href="#DejaVuSans-30"/><use x="190.9" xlink:href="#DejaVuSans-30"/><use x="254.5" xlink:href="#DejaVuSans-30"/></g></g></g><g id="ytick_5"><path clip-path="url(#p681e1c633b)" d="M51.7 25.3h388.7" fill="none" stroke="#fff" stroke-linecap="round" id="line2d_14"/><g id="text_15"><defs><path d="M31.8 34.6q-7 0-11-3.7-4.1-3.8-4.1-10.4 0-6.6 4-10.3 4-3.8 11-3.8 7.1 0 11.2 3.8 4 3.8 4 10.3 0 6.6-4 10.4-4 3.7-11.1 3.7zm-9.9 4.2q-6.3 1.6-9.9 6Q8.5 49 8.5 55.2q0 8.8 6.2 13.8 6.3 5.1 17 5.1 11 0 17.2-5Q55 64 55 55.2q0-6.2-3.6-10.6-3.5-4.3-9.8-5.9 7.1-1.6 11.1-6.5 4-4.8 4-11.8 0-10.6-6.5-16.3-6.5-5.6-18.5-5.6T13.2 4.2Q6.8 10 6.8 20.5q0 7 4 11.8 4 4.9 11.1 6.5zm-3.6 15.6q0-5.7 3.5-8.8 3.6-3.2 10-3.2 6.3 0 10 3.2 3.5 3.1 3.5 8.8 0 5.7-3.6 8.8-3.6 3.2-10 3.2-6.3 0-9.9-3.2-3.5-3.1-3.5-8.8z" id="DejaVuSans-38"/></defs><g transform="matrix(.11 0 0 -.11 7.2 29.4)" fill="#262626"><use xlink:href="#DejaVuSans-38"/><use x="63.6" xlink:href="#DejaVuSans-30"/><use x="127.2" xlink:href="#DejaVuSans-30"/><use x="190.9" xlink:href="#DejaVuSans-30"/><use x="254.5" xlink:href="#DejaVuSans-30"/></g></g></g></g><path clip-path="url(#p681e1c633b)" d="M69.4 196.3h8.8-8.8z" fill="#4c72b0" stroke="#fff" id="patch_3"/><path clip-path="url(#p681e1c633b)" d="M78.2 196.3H87h-8.8z" fill="#4c72b0" stroke="#fff" id="patch_4"/><path clip-path="url(#p681e1c633b)" d="M87 196.3H96 87z" fill="#4c72b0" stroke="#fff" id="patch_5"/><path clip-path="url(#p681e1c633b)" d="M95.9 196.3h8.8-8.8z" fill="#4c72b0" stroke="#fff" id="patch_6"/><path clip-path="url(#p681e1c633b)" d="M104.7 196.3h8.8-8.8z" fill="#4c72b0" stroke="#fff" id="patch_7"/><path clip-path="url(#p681e1c633b)" d="M113.5 196.3h8.9-8.9z" fill="#4c72b0" stroke="#fff" id="patch_8"/><path clip-path="url(#p681e1c633b)" d="M122.4 196.3h8.8-8.8z" fill="#4c72b0" stroke="#fff" id="patch_9"/><path clip-path="url(#p681e1c633b)" d="M131.2 196.3h8.8-8.8z" fill="#4c72b0" stroke="#fff" id="patch_10"/><path clip-path="url(#p681e1c633b)" d="M140 196.3h8.9-8.9z" fill="#4c72b0" stroke="#fff" id="patch_11"/><path clip-path="url(#p681e1c633b)" d="M148.9 196.3h8.8-8.8z" fill="#4c72b0" stroke="#fff" id="patch_12"/><path clip-path="url(#p681e1c633b)" d="M157.7 196.3h8.8v-5.1h-8.8z" fill="#4c72b0" stroke="#fff" id="patch_13"/><path clip-path="url(#p681e1c633b)" d="M166.5 196.3h8.9v-6h-8.9z" fill="#4c72b0" stroke="#fff" id="patch_14"/><path clip-path="url(#p681e1c633b)" d="M175.4 196.3h8.8V190h-8.8z" fill="#4c72b0" stroke="#fff" id="patch_15"/><path clip-path="url(#p681e1c633b)" d="M184.2 196.3h8.8v-8.9h-8.8z" fill="#4c72b0" stroke="#fff" id="patch_16"/><path clip-path="url(#p681e1c633b)" d="M193 196.3h8.9v-9.6H193z" fill="#4c72b0" stroke="#fff" id="patch_17"/><path clip-path="url(#p681e1c633b)" d="M201.9 196.3h8.8v-15.2H202z" fill="#4c72b0" stroke="#fff" id="patch_18"/><path clip-path="url(#p681e1c633b)" d="M210.7 196.3h8.8V170h-8.8z" fill="#4c72b0" stroke="#fff" id="patch_19"/><path clip-path="url(#p681e1c633b)" d="M219.5 196.3h8.9v-43h-8.9z" fill="#4c72b0" stroke="#fff" id="patch_20"/><path clip-path="url(#p681e1c633b)" d="M228.4 196.3h8.8v-92.7h-8.8z" fill="#4c72b0" stroke="#fff" id="patch_21"/><path clip-path="url(#p681e1c633b)" d="M237.2 196.3h8.8V21.9h-8.8z" fill="#4c72b0" stroke="#fff" id="patch_22"/><path clip-path="url(#p681e1c633b)" d="M246 196.3h8.9V26.7H246z" fill="#4c72b0" stroke="#fff" id="patch_23"/><path clip-path="url(#p681e1c633b)" d="M254.9 196.3h8.8v-71.6H255z" fill="#4c72b0" stroke="#fff" id="patch_24"/><path clip-path="url(#p681e1c633b)" d="M263.7 196.3h8.8v-38h-8.8z" fill="#4c72b0" stroke="#fff" id="patch_25"/><path clip-path="url(#p681e1c633b)" d="M272.5 196.3h8.9v-18.5h-8.9z" fill="#4c72b0" stroke="#fff" id="patch_26"/><path clip-path="url(#p681e1c633b)" d="M281.4 196.3h8.8V184h-8.8z" fill="#4c72b0" stroke="#fff" id="patch_27"/><path clip-path="url(#p681e1c633b)" d="M290.2 196.3h8.8v-4.4h-8.8z" fill="#4c72b0" stroke="#fff" id="patch_28"/><path clip-path="url(#p681e1c633b)" d="M299 196.3h8.9v-3.8H299z" fill="#4c72b0" stroke="#fff" id="patch_29"/><path clip-path="url(#p681e1c633b)" d="M307.9 196.3h8.8V193H308z" fill="#4c72b0" stroke="#fff" id="patch_30"/><path clip-path="url(#p681e1c633b)" d="M316.7 196.3h8.9v-1.6h-8.9z" fill="#4c72b0" stroke="#fff" id="patch_31"/><path clip-path="url(#p681e1c633b)" d="M325.6 196.3h8.8v-1.1h-8.8z" fill="#4c72b0" stroke="#fff" id="patch_32"/><path clip-path="url(#p681e1c633b)" d="M334.4 196.3h8.8v-1.2h-8.8z" fill="#4c72b0" stroke="#fff" id="patch_33"/><path clip-path="url(#p681e1c633b)" d="M343.2 196.3h8.9v-.6h-8.9z" fill="#4c72b0" stroke="#fff" id="patch_34"/><path clip-path="url(#p681e1c633b)" d="M352 196.3h8.9v-.5H352z" fill="#4c72b0" stroke="#fff" id="patch_35"/><path clip-path="url(#p681e1c633b)" d="M360.9 196.3h8.8v-.3H361z" fill="#4c72b0" stroke="#fff" id="patch_36"/><path clip-path="url(#p681e1c633b)" d="M369.7 196.3h8.9v-.3h-8.9z" fill="#4c72b0" stroke="#fff" id="patch_37"/><path clip-path="url(#p681e1c633b)" d="M378.6 196.3h8.8v-.2h-8.8z" fill="#4c72b0" stroke="#fff" id="patch_38"/><path clip-path="url(#p681e1c633b)" d="M387.4 196.3h8.8v-.2h-8.8z" fill="#4c72b0" stroke="#fff" id="patch_39"/><path clip-path="url(#p681e1c633b)" d="M396.2 196.3h8.9v-.1h-8.9z" fill="#4c72b0" stroke="#fff" id="patch_40"/><path clip-path="url(#p681e1c633b)" d="M405 196.3h8.9-8.8z" fill="#4c72b0" stroke="#fff" id="patch_41"/><path clip-path="url(#p681e1c633b)" d="M413.9 196.3h8.8-8.8z" fill="#4c72b0" stroke="#fff" id="patch_42"/><path d="M51.7 196.3V13.2" fill="none" stroke="#fff" stroke-linecap="square" stroke-width="1.3" id="patch_43"/><path d="M440.4 196.3V13.2" fill="none" stroke="#fff" stroke-linecap="square" stroke-width="1.3" id="patch_44"/><path d="M51.7 196.3h388.7" fill="none" stroke="#fff" stroke-linecap="square" stroke-width="1.3" id="patch_45"/><path d="M51.7 13.2h388.7" fill="none" stroke="#fff" stroke-linecap="square" stroke-width="1.3" id="patch_46"/></g><g id="axes_2"><path d="M51.7 432.7h388.7V249.6H51.7z" fill="#eaeaf2" id="patch_47"/><g id="matplotlib.axis_3"><g id="xtick_10"><path clip-path="url(#p4f4808b270)" d="M69.4 432.7V249.6" fill="none" stroke="#fff" stroke-linecap="round" id="line2d_15"/><g transform="matrix(.11 0 0 -.11 56 450.6)" fill="#262626" id="text_16"><use xlink:href="#DejaVuSans-2212"/><use x="83.8" xlink:href="#DejaVuSans-31"/><use x="147.4" xlink:href="#DejaVuSans-2e"/><use x="179.2" xlink:href="#DejaVuSans-30"/></g></g><g id="xtick_11"><path clip-path="url(#p4f4808b270)" d="M113.5 432.7V249.6" fill="none" stroke="#fff" stroke-linecap="round" id="line2d_16"/><g transform="matrix(.11 0 0 -.11 100.2 450.6)" fill="#262626" id="text_17"><use xlink:href="#DejaVuSans-2212"/><use x="83.8" xlink:href="#DejaVuSans-30"/><use x="147.4" xlink:href="#DejaVuSans-2e"/><use x="179.2" xlink:href="#DejaVuSans-35"/></g></g><g id="xtick_12"><path clip-path="url(#p4f4808b270)" d="M157.7 432.7V249.6" fill="none" stroke="#fff" stroke-linecap="round" id="line2d_17"/><g transform="matrix(.11 0 0 -.11 149 450.6)" fill="#262626" id="text_18"><use xlink:href="#DejaVuSans-30"/><use x="63.6" xlink:href="#DejaVuSans-2e"/><use x="95.4" xlink:href="#DejaVuSans-30"/></g></g><g id="xtick_13"><path clip-path="url(#p4f4808b270)" d="M201.9 432.7V249.6" fill="none" stroke="#fff" stroke-linecap="round" id="line2d_18"/><g transform="matrix(.11 0 0 -.11 193.1 450.6)" fill="#262626" id="text_19"><use xlink:href="#DejaVuSans-30"/><use x="63.6" xlink:href="#DejaVuSans-2e"/><use x="95.4" xlink:href="#DejaVuSans-35"/></g></g><g id="xtick_14"><path clip-path="url(#p4f4808b270)" d="M246 432.7V249.6" fill="none" stroke="#fff" stroke-linecap="round" id="line2d_19"/><g transform="matrix(.11 0 0 -.11 237.3 450.6)" fill="#262626" id="text_20"><use xlink:href="#DejaVuSans-31"/><use x="63.6" xlink:href="#DejaVuSans-2e"/><use x="95.4" xlink:href="#DejaVuSans-30"/></g></g><g id="xtick_15"><path clip-path="url(#p4f4808b270)" d="M290.2 432.7V249.6" fill="none" stroke="#fff" stroke-linecap="round" id="line2d_20"/><g transform="matrix(.11 0 0 -.11 281.5 450.6)" fill="#262626" id="text_21"><use xlink:href="#DejaVuSans-31"/><use x="63.6" xlink:href="#DejaVuSans-2e"/><use x="95.4" xlink:href="#DejaVuSans-35"/></g></g><g id="xtick_16"><path clip-path="url(#p4f4808b270)" d="M334.4 432.7V249.6" fill="none" stroke="#fff" stroke-linecap="round" id="line2d_21"/><g transform="matrix(.11 0 0 -.11 325.6 450.6)" fill="#262626" id="text_22"><use xlink:href="#DejaVuSans-32"/><use x="63.6" xlink:href="#DejaVuSans-2e"/><use x="95.4" xlink:href="#DejaVuSans-30"/></g></g><g id="xtick_17"><path clip-path="url(#p4f4808b270)" d="M378.6 432.7V249.6" fill="none" stroke="#fff" stroke-linecap="round" id="line2d_22"/><g transform="matrix(.11 0 0 -.11 369.8 450.6)" fill="#262626" id="text_23"><use xlink:href="#DejaVuSans-32"/><use x="63.6" xlink:href="#DejaVuSans-2e"/><use x="95.4" xlink:href="#DejaVuSans-35"/></g></g><g id="xtick_18"><path clip-path="url(#p4f4808b270)" d="M422.7 432.7V249.6" fill="none" stroke="#fff" stroke-linecap="round" id="line2d_23"/><g transform="matrix(.11 0 0 -.11 414 450.6)" fill="#262626" id="text_24"><use xlink:href="#DejaVuSans-33"/><use x="63.6" xlink:href="#DejaVuSans-2e"/><use x="95.4" xlink:href="#DejaVuSans-30"/></g></g><g transform="matrix(.12 0 0 -.12 185.2 466)" fill="#262626" id="text_25"><use xlink:href="#DejaVuSans-61"/><use x="61.3" xlink:href="#DejaVuSans-76"/><use x="120.5" xlink:href="#DejaVuSans-67"/><use x="183.9" xlink:href="#DejaVuSans-5f"/><use x="233.9" xlink:href="#DejaVuSans-70"/><use x="297.4" xlink:href="#DejaVuSans-75"/><use x="360.8" xlink:href="#DejaVuSans-72"/><use x="401.9" xlink:href="#DejaVuSans-63"/><use x="456.9" xlink:href="#DejaVuSans-68"/><use x="520.2" xlink:href="#DejaVuSans-61"/><use x="581.5" xlink:href="#DejaVuSans-73"/><use x="633.6" xlink:href="#DejaVuSans-65"/><use x="695.1" xlink:href="#DejaVuSans-73"/><use x="747.2" xlink:href="#DejaVuSans-5f"/><use x="797.2" xlink:href="#DejaVuSans-6c"/><use x="825" xlink:href="#DejaVuSans-61"/><use x="886.3" xlink:href="#DejaVuSans-67"/><use x="949.8" xlink:href="#DejaVuSans-36"/></g></g><g id="matplotlib.axis_4"><g id="ytick_6"><path clip-path="url(#p4f4808b270)" d="M51.7 432.7h388.7" fill="none" stroke="#fff" stroke-linecap="round" id="line2d_24"/><use xlink:href="#DejaVuSans-30" transform="matrix(.11 0 0 -.11 35.2 436.9)" fill="#262626" id="text_26"/></g><g id="ytick_7"><path clip-path="url(#p4f4808b270)" d="M51.7 405.9h388.7" fill="none" stroke="#fff" stroke-linecap="round" id="line2d_25"/><g transform="matrix(.11 0 0 -.11 7.2 410)" fill="#262626" id="text_27"><use xlink:href="#DejaVuSans-31"/><use x="63.6" xlink:href="#DejaVuSans-30"/><use x="127.2" xlink:href="#DejaVuSans-30"/><use x="190.9" xlink:href="#DejaVuSans-30"/><use x="254.5" xlink:href="#DejaVuSans-30"/></g></g><g id="ytick_8"><path clip-path="url(#p4f4808b270)" d="M51.7 379h388.7" fill="none" stroke="#fff" stroke-linecap="round" id="line2d_26"/><g transform="matrix(.11 0 0 -.11 7.2 383.2)" fill="#262626" id="text_28"><use xlink:href="#DejaVuSans-32"/><use x="63.6" xlink:href="#DejaVuSans-30"/><use x="127.2" xlink:href="#DejaVuSans-30"/><use x="190.9" xlink:href="#DejaVuSans-30"/><use x="254.5" xlink:href="#DejaVuSans-30"/></g></g><g id="ytick_9"><path clip-path="url(#p4f4808b270)" d="M51.7 352.3h388.7" fill="none" stroke="#fff" stroke-linecap="round" id="line2d_27"/><g transform="matrix(.11 0 0 -.11 7.2 356.4)" fill="#262626" id="text_29"><use xlink:href="#DejaVuSans-33"/><use x="63.6" xlink:href="#DejaVuSans-30"/><use x="127.2" xlink:href="#DejaVuSans-30"/><use x="190.9" xlink:href="#DejaVuSans-30"/><use x="254.5" xlink:href="#DejaVuSans-30"/></g></g><g id="ytick_10"><path clip-path="url(#p4f4808b270)" d="M51.7 325.4h388.7" fill="none" stroke="#fff" stroke-linecap="round" id="line2d_28"/><g transform="matrix(.11 0 0 -.11 7.2 329.6)" fill="#262626" id="text_30"><use xlink:href="#DejaVuSans-34"/><use x="63.6" xlink:href="#DejaVuSans-30"/><use x="127.2" xlink:href="#DejaVuSans-30"/><use x="190.9" xlink:href="#DejaVuSans-30"/><use x="254.5" xlink:href="#DejaVuSans-30"/></g></g><g id="ytick_11"><path clip-path="url(#p4f4808b270)" d="M51.7 298.6h388.7" fill="none" stroke="#fff" stroke-linecap="round" id="line2d_29"/><g transform="matrix(.11 0 0 -.11 7.2 302.8)" fill="#262626" id="text_31"><use xlink:href="#DejaVuSans-35"/><use x="63.6" xlink:href="#DejaVuSans-30"/><use x="127.2" xlink:href="#DejaVuSans-30"/><use x="190.9" xlink:href="#DejaVuSans-30"/><use x="254.5" xlink:href="#DejaVuSans-30"/></g></g><g id="ytick_12"><path clip-path="url(#p4f4808b270)" d="M51.7 271.8h388.7" fill="none" stroke="#fff" stroke-linecap="round" id="line2d_30"/><g transform="matrix(.11 0 0 -.11 7.2 276)" fill="#262626" id="text_32"><use xlink:href="#DejaVuSans-36"/><use x="63.6" xlink:href="#DejaVuSans-30"/><use x="127.2" xlink:href="#DejaVuSans-30"/><use x="190.9" xlink:href="#DejaVuSans-30"/><use x="254.5" xlink:href="#DejaVuSans-30"/></g></g></g><path clip-path="url(#p4f4808b270)" d="M69.4 432.7h8.8-8.8z" fill="#4c72b0" stroke="#fff" id="patch_48"/><path clip-path="url(#p4f4808b270)" d="M78.2 432.7H87h-8.8z" fill="#4c72b0" stroke="#fff" id="patch_49"/><path clip-path="url(#p4f4808b270)" d="M87 432.7H96 87z" fill="#4c72b0" stroke="#fff" id="patch_50"/><path clip-path="url(#p4f4808b270)" d="M95.9 432.7h8.8-8.8z" fill="#4c72b0" stroke="#fff" id="patch_51"/><path clip-path="url(#p4f4808b270)" d="M104.7 432.7h8.8-8.8z" fill="#4c72b0" stroke="#fff" id="patch_52"/><path clip-path="url(#p4f4808b270)" d="M113.5 432.7h8.9-8.9z" fill="#4c72b0" stroke="#fff" id="patch_53"/><path clip-path="url(#p4f4808b270)" d="M122.4 432.7h8.8-8.8z" fill="#4c72b0" stroke="#fff" id="patch_54"/><path clip-path="url(#p4f4808b270)" d="M131.2 432.7h8.8-8.8z" fill="#4c72b0" stroke="#fff" id="patch_55"/><path clip-path="url(#p4f4808b270)" d="M140 432.7h8.9-8.9z" fill="#4c72b0" stroke="#fff" id="patch_56"/><path clip-path="url(#p4f4808b270)" d="M148.9 432.7h8.8-8.8z" fill="#4c72b0" stroke="#fff" id="patch_57"/><path clip-path="url(#p4f4808b270)" d="M157.7 432.7h8.8v-11.3h-8.8z" fill="#4c72b0" stroke="#fff" id="patch_58"/><path clip-path="url(#p4f4808b270)" d="M166.5 432.7h8.9v-10.8h-8.9z" fill="#4c72b0" stroke="#fff" id="patch_59"/><path clip-path="url(#p4f4808b270)" d="M175.4 432.7h8.8V421h-8.8z" fill="#4c72b0" stroke="#fff" id="patch_60"/><path clip-path="url(#p4f4808b270)" d="M184.2 432.7h8.8v-15.5h-8.8z" fill="#4c72b0" stroke="#fff" id="patch_61"/><path clip-path="url(#p4f4808b270)" d="M193 432.7h8.9v-17.9H193z" fill="#4c72b0" stroke="#fff" id="patch_62"/><path clip-path="url(#p4f4808b270)" d="M201.9 432.7h8.8v-26.6H202z" fill="#4c72b0" stroke="#fff" id="patch_63"/><path clip-path="url(#p4f4808b270)" d="M210.7 432.7h8.8v-41.5h-8.8z" fill="#4c72b0" stroke="#fff" id="patch_64"/><path clip-path="url(#p4f4808b270)" d="M219.5 432.7h8.9v-67h-8.9z" fill="#4c72b0" stroke="#fff" id="patch_65"/><path clip-path="url(#p4f4808b270)" d="M228.4 432.7h8.8V312.9h-8.8z" fill="#4c72b0" stroke="#fff" id="patch_66"/><path clip-path="url(#p4f4808b270)" d="M237.2 432.7h8.8V258.3h-8.8z" fill="#4c72b0" stroke="#fff" id="patch_67"/><path clip-path="url(#p4f4808b270)" d="M246 432.7h8.9V266H246z" fill="#4c72b0" stroke="#fff" id="patch_68"/><path clip-path="url(#p4f4808b270)" d="M254.9 432.7h8.8v-89.8H255z" fill="#4c72b0" stroke="#fff" id="patch_69"/><path clip-path="url(#p4f4808b270)" d="M263.7 432.7h8.8v-53.4h-8.8z" fill="#4c72b0" stroke="#fff" id="patch_70"/><path clip-path="url(#p4f4808b270)" d="M272.5 432.7h8.9v-29.5h-8.9z" fill="#4c72b0" stroke="#fff" id="patch_71"/><path clip-path="url(#p4f4808b270)" d="M281.4 432.7h8.8v-19.4h-8.8z" fill="#4c72b0" stroke="#fff" id="patch_72"/><path clip-path="url(#p4f4808b270)" d="M290.2 432.7h8.8v-10.5h-8.8z" fill="#4c72b0" stroke="#fff" id="patch_73"/><path clip-path="url(#p4f4808b270)" d="M299 432.7h8.9v-8.6H299z" fill="#4c72b0" stroke="#fff" id="patch_74"/><path clip-path="url(#p4f4808b270)" d="M307.9 432.7h8.8v-6H308z" fill="#4c72b0" stroke="#fff" id="patch_75"/><path clip-path="url(#p4f4808b270)" d="M316.7 432.7h8.9v-3.8h-8.9z" fill="#4c72b0" stroke="#fff" id="patch_76"/><path clip-path="url(#p4f4808b270)" d="M325.6 432.7h8.8v-2.5h-8.8z" fill="#4c72b0" stroke="#fff" id="patch_77"/><path clip-path="url(#p4f4808b270)" d="M334.4 432.7h8.8v-2.5h-8.8z" fill="#4c72b0" stroke="#fff" id="patch_78"/><path clip-path="url(#p4f4808b270)" d="M343.2 432.7h8.9v-1.6h-8.9z" fill="#4c72b0" stroke="#fff" id="patch_79"/><path clip-path="url(#p4f4808b270)" d="M352 432.7h8.9v-1.2H352z" fill="#4c72b0" stroke="#fff" id="patch_80"/><path clip-path="url(#p4f4808b270)" d="M360.9 432.7h8.8v-.9H361z" fill="#4c72b0" stroke="#fff" id="patch_81"/><path clip-path="url(#p4f4808b270)" d="M369.7 432.7h8.9v-.9h-8.9z" fill="#4c72b0" stroke="#fff" id="patch_82"/><path clip-path="url(#p4f4808b270)" d="M378.6 432.7h8.8v-.6h-8.8z" fill="#4c72b0" stroke="#fff" id="patch_83"/><path clip-path="url(#p4f4808b270)" d="M387.4 432.7h8.8v-.4h-8.8z" fill="#4c72b0" stroke="#fff" id="patch_84"/><path clip-path="url(#p4f4808b270)" d="M396.2 432.7h8.9v-.5h-8.9z" fill="#4c72b0" stroke="#fff" id="patch_85"/><path clip-path="url(#p4f4808b270)" d="M405 432.7h8.9v-.4H405z" fill="#4c72b0" stroke="#fff" id="patch_86"/><path clip-path="url(#p4f4808b270)" d="M413.9 432.7h8.8v-.3H414z" fill="#4c72b0" stroke="#fff" id="patch_87"/><path d="M51.7 432.7V249.6" fill="none" stroke="#fff" stroke-linecap="square" stroke-width="1.3" id="patch_88"/><path d="M440.4 432.7V249.6" fill="none" stroke="#fff" stroke-linecap="square" stroke-width="1.3" id="patch_89"/><path d="M51.7 432.7h388.7" fill="none" stroke="#fff" stroke-linecap="square" stroke-width="1.3" id="patch_90"/><path d="M51.7 249.6h388.7" fill="none" stroke="#fff" stroke-linecap="square" stroke-width="1.3" id="patch_91"/></g><g id="axes_3"><path d="M51.7 669.1h388.7V486H51.7z" fill="#eaeaf2" id="patch_92"/><g id="matplotlib.axis_5"><g id="xtick_19"><path clip-path="url(#pd0b56326f7)" d="M69.4 669.1V486" fill="none" stroke="#fff" stroke-linecap="round" id="line2d_31"/><g transform="matrix(.11 0 0 -.11 56 687)" fill="#262626" id="text_33"><use xlink:href="#DejaVuSans-2212"/><use x="83.8" xlink:href="#DejaVuSans-31"/><use x="147.4" xlink:href="#DejaVuSans-2e"/><use x="179.2" xlink:href="#DejaVuSans-30"/></g></g><g id="xtick_20"><path clip-path="url(#pd0b56326f7)" d="M113.5 669.1V486" fill="none" stroke="#fff" stroke-linecap="round" id="line2d_32"/><g transform="matrix(.11 0 0 -.11 100.2 687)" fill="#262626" id="text_34"><use xlink:href="#DejaVuSans-2212"/><use x="83.8" xlink:href="#DejaVuSans-30"/><use x="147.4" xlink:href="#DejaVuSans-2e"/><use x="179.2" xlink:href="#DejaVuSans-35"/></g></g><g id="xtick_21"><path clip-path="url(#pd0b56326f7)" d="M157.7 669.1V486" fill="none" stroke="#fff" stroke-linecap="round" id="line2d_33"/><g transform="matrix(.11 0 0 -.11 149 687)" fill="#262626" id="text_35"><use xlink:href="#DejaVuSans-30"/><use x="63.6" xlink:href="#DejaVuSans-2e"/><use x="95.4" xlink:href="#DejaVuSans-30"/></g></g><g id="xtick_22"><path clip-path="url(#pd0b56326f7)" d="M201.9 669.1V486" fill="none" stroke="#fff" stroke-linecap="round" id="line2d_34"/><g transform="matrix(.11 0 0 -.11 193.1 687)" fill="#262626" id="text_36"><use xlink:href="#DejaVuSans-30"/><use x="63.6" xlink:href="#DejaVuSans-2e"/><use x="95.4" xlink:href="#DejaVuSans-35"/></g></g><g id="xtick_23"><path clip-path="url(#pd0b56326f7)" d="M246 669.1V486" fill="none" stroke="#fff" stroke-linecap="round" id="line2d_35"/><g transform="matrix(.11 0 0 -.11 237.3 687)" fill="#262626" id="text_37"><use xlink:href="#DejaVuSans-31"/><use x="63.6" xlink:href="#DejaVuSans-2e"/><use x="95.4" xlink:href="#DejaVuSans-30"/></g></g><g id="xtick_24"><path clip-path="url(#pd0b56326f7)" d="M290.2 669.1V486" fill="none" stroke="#fff" stroke-linecap="round" id="line2d_36"/><g transform="matrix(.11 0 0 -.11 281.5 687)" fill="#262626" id="text_38"><use xlink:href="#DejaVuSans-31"/><use x="63.6" xlink:href="#DejaVuSans-2e"/><use x="95.4" xlink:href="#DejaVuSans-35"/></g></g><g id="xtick_25"><path clip-path="url(#pd0b56326f7)" d="M334.4 669.1V486" fill="none" stroke="#fff" stroke-linecap="round" id="line2d_37"/><g transform="matrix(.11 0 0 -.11 325.6 687)" fill="#262626" id="text_39"><use xlink:href="#DejaVuSans-32"/><use x="63.6" xlink:href="#DejaVuSans-2e"/><use x="95.4" xlink:href="#DejaVuSans-30"/></g></g><g id="xtick_26"><path clip-path="url(#pd0b56326f7)" d="M378.6 669.1V486" fill="none" stroke="#fff" stroke-linecap="round" id="line2d_38"/><g transform="matrix(.11 0 0 -.11 369.8 687)" fill="#262626" id="text_40"><use xlink:href="#DejaVuSans-32"/><use x="63.6" xlink:href="#DejaVuSans-2e"/><use x="95.4" xlink:href="#DejaVuSans-35"/></g></g><g id="xtick_27"><path clip-path="url(#pd0b56326f7)" d="M422.7 669.1V486" fill="none" stroke="#fff" stroke-linecap="round" id="line2d_39"/><g transform="matrix(.11 0 0 -.11 414 687)" fill="#262626" id="text_41"><use xlink:href="#DejaVuSans-33"/><use x="63.6" xlink:href="#DejaVuSans-2e"/><use x="95.4" xlink:href="#DejaVuSans-30"/></g></g><g transform="matrix(.12 0 0 -.12 181.4 702.4)" fill="#262626" id="text_42"><use xlink:href="#DejaVuSans-61"/><use x="61.3" xlink:href="#DejaVuSans-76"/><use x="120.5" xlink:href="#DejaVuSans-67"/><use x="183.9" xlink:href="#DejaVuSans-5f"/><use x="233.9" xlink:href="#DejaVuSans-70"/><use x="297.4" xlink:href="#DejaVuSans-75"/><use x="360.8" xlink:href="#DejaVuSans-72"/><use x="401.9" xlink:href="#DejaVuSans-63"/><use x="456.9" xlink:href="#DejaVuSans-68"/><use x="520.2" xlink:href="#DejaVuSans-61"/><use x="581.5" xlink:href="#DejaVuSans-73"/><use x="633.6" xlink:href="#DejaVuSans-65"/><use x="695.1" xlink:href="#DejaVuSans-73"/><use x="747.2" xlink:href="#DejaVuSans-5f"/><use x="797.2" xlink:href="#DejaVuSans-6c"/><use x="825" xlink:href="#DejaVuSans-61"/><use x="886.3" xlink:href="#DejaVuSans-67"/><use x="949.8" xlink:href="#DejaVuSans-31"/><use x="1013.4" xlink:href="#DejaVuSans-32"/></g></g><g id="matplotlib.axis_6"><g id="ytick_13"><path clip-path="url(#pd0b56326f7)" d="M51.7 669.1h388.7" fill="none" stroke="#fff" stroke-linecap="round" id="line2d_40"/><use xlink:href="#DejaVuSans-30" transform="matrix(.11 0 0 -.11 35.2 673.3)" fill="#262626" id="text_43"/></g><g id="ytick_14"><path clip-path="url(#pd0b56326f7)" d="M51.7 639.3h388.7" fill="none" stroke="#fff" stroke-linecap="round" id="line2d_41"/><g transform="matrix(.11 0 0 -.11 7.2 643.5)" fill="#262626" id="text_44"><use xlink:href="#DejaVuSans-31"/><use x="63.6" xlink:href="#DejaVuSans-30"/><use x="127.2" xlink:href="#DejaVuSans-30"/><use x="190.9" xlink:href="#DejaVuSans-30"/><use x="254.5" xlink:href="#DejaVuSans-30"/></g></g><g id="ytick_15"><path clip-path="url(#pd0b56326f7)" d="M51.7 609.6h388.7" fill="none" stroke="#fff" stroke-linecap="round" id="line2d_42"/><g transform="matrix(.11 0 0 -.11 7.2 613.7)" fill="#262626" id="text_45"><use xlink:href="#DejaVuSans-32"/><use x="63.6" xlink:href="#DejaVuSans-30"/><use x="127.2" xlink:href="#DejaVuSans-30"/><use x="190.9" xlink:href="#DejaVuSans-30"/><use x="254.5" xlink:href="#DejaVuSans-30"/></g></g><g id="ytick_16"><path clip-path="url(#pd0b56326f7)" d="M51.7 579.8h388.7" fill="none" stroke="#fff" stroke-linecap="round" id="line2d_43"/><g transform="matrix(.11 0 0 -.11 7.2 584)" fill="#262626" id="text_46"><use xlink:href="#DejaVuSans-33"/><use x="63.6" xlink:href="#DejaVuSans-30"/><use x="127.2" xlink:href="#DejaVuSans-30"/><use x="190.9" xlink:href="#DejaVuSans-30"/><use x="254.5" xlink:href="#DejaVuSans-30"/></g></g><g id="ytick_17"><path clip-path="url(#pd0b56326f7)" d="M51.7 550h388.7" fill="none" stroke="#fff" stroke-linecap="round" id="line2d_44"/><g transform="matrix(.11 0 0 -.11 7.2 554.2)" fill="#262626" id="text_47"><use xlink:href="#DejaVuSans-34"/><use x="63.6" xlink:href="#DejaVuSans-30"/><use x="127.2" xlink:href="#DejaVuSans-30"/><use x="190.9" xlink:href="#DejaVuSans-30"/><use x="254.5" xlink:href="#DejaVuSans-30"/></g></g><g id="ytick_18"><path clip-path="url(#pd0b56326f7)" d="M51.7 520.3h388.7" fill="none" stroke="#fff" stroke-linecap="round" id="line2d_45"/><g transform="matrix(.11 0 0 -.11 7.2 524.4)" fill="#262626" id="text_48"><use xlink:href="#DejaVuSans-35"/><use x="63.6" xlink:href="#DejaVuSans-30"/><use x="127.2" xlink:href="#DejaVuSans-30"/><use x="190.9" xlink:href="#DejaVuSans-30"/><use x="254.5" xlink:href="#DejaVuSans-30"/></g></g><g id="ytick_19"><path clip-path="url(#pd0b56326f7)" d="M51.7 490.5h388.7" fill="none" stroke="#fff" stroke-linecap="round" id="line2d_46"/><g transform="matrix(.11 0 0 -.11 7.2 494.7)" fill="#262626" id="text_49"><use xlink:href="#DejaVuSans-36"/><use x="63.6" xlink:href="#DejaVuSans-30"/><use x="127.2" xlink:href="#DejaVuSans-30"/><use x="190.9" xlink:href="#DejaVuSans-30"/><use x="254.5" xlink:href="#DejaVuSans-30"/></g></g></g><path clip-path="url(#pd0b56326f7)" d="M69.4 669.1h8.8-8.8z" fill="#4c72b0" stroke="#fff" id="patch_93"/><path clip-path="url(#pd0b56326f7)" d="M78.2 669.1H87h-8.8z" fill="#4c72b0" stroke="#fff" id="patch_94"/><path clip-path="url(#pd0b56326f7)" d="M87 669.1H96 87z" fill="#4c72b0" stroke="#fff" id="patch_95"/><path clip-path="url(#pd0b56326f7)" d="M95.9 669.1h8.8-8.8z" fill="#4c72b0" stroke="#fff" id="patch_96"/><path clip-path="url(#pd0b56326f7)" d="M104.7 669.1h8.8-8.8z" fill="#4c72b0" stroke="#fff" id="patch_97"/><path clip-path="url(#pd0b56326f7)" d="M113.5 669.1h8.9-8.9z" fill="#4c72b0" stroke="#fff" id="patch_98"/><path clip-path="url(#pd0b56326f7)" d="M122.4 669.1h8.8-8.8z" fill="#4c72b0" stroke="#fff" id="patch_99"/><path clip-path="url(#pd0b56326f7)" d="M131.2 669.1h8.8-8.8z" fill="#4c72b0" stroke="#fff" id="patch_100"/><path clip-path="url(#pd0b56326f7)" d="M140 669.1h8.9-8.9z" fill="#4c72b0" stroke="#fff" id="patch_101"/><path clip-path="url(#pd0b56326f7)" d="M148.9 669.1h8.8-8.8z" fill="#4c72b0" stroke="#fff" id="patch_102"/><path clip-path="url(#pd0b56326f7)" d="M157.7 669.1h8.8v-15.6h-8.8z" fill="#4c72b0" stroke="#fff" id="patch_103"/><path clip-path="url(#pd0b56326f7)" d="M166.5 669.1h8.9v-13.7h-8.9z" fill="#4c72b0" stroke="#fff" id="patch_104"/><path clip-path="url(#pd0b56326f7)" d="M175.4 669.1h8.8v-14.8h-8.8z" fill="#4c72b0" stroke="#fff" id="patch_105"/><path clip-path="url(#pd0b56326f7)" d="M184.2 669.1h8.8v-18.9h-8.8z" fill="#4c72b0" stroke="#fff" id="patch_106"/><path clip-path="url(#pd0b56326f7)" d="M193 669.1h8.9v-23.8H193z" fill="#4c72b0" stroke="#fff" id="patch_107"/><path clip-path="url(#pd0b56326f7)" d="M201.9 669.1h8.8v-34.4H202z" fill="#4c72b0" stroke="#fff" id="patch_108"/><path clip-path="url(#pd0b56326f7)" d="M210.7 669.1h8.8v-52.6h-8.8z" fill="#4c72b0" stroke="#fff" id="patch_109"/><path clip-path="url(#pd0b56326f7)" d="M219.5 669.1h8.9v-85h-8.9z" fill="#4c72b0" stroke="#fff" id="patch_110"/><path clip-path="url(#pd0b56326f7)" d="M228.4 669.1h8.8V530.2h-8.8z" fill="#4c72b0" stroke="#fff" id="patch_111"/><path clip-path="url(#pd0b56326f7)" d="M237.2 669.1h8.8V494.7h-8.8z" fill="#4c72b0" stroke="#fff" id="patch_112"/><path clip-path="url(#pd0b56326f7)" d="M246 669.1h8.9V509.6H246z" fill="#4c72b0" stroke="#fff" id="patch_113"/><path clip-path="url(#pd0b56326f7)" d="M254.9 669.1h8.8v-95H255z" fill="#4c72b0" stroke="#fff" id="patch_114"/><path clip-path="url(#pd0b56326f7)" d="M263.7 669.1h8.8v-58.2h-8.8z" fill="#4c72b0" stroke="#fff" id="patch_115"/><path clip-path="url(#pd0b56326f7)" d="M272.5 669.1h8.9v-34.6h-8.9z" fill="#4c72b0" stroke="#fff" id="patch_116"/><path clip-path="url(#pd0b56326f7)" d="M281.4 669.1h8.8v-22.2h-8.8z" fill="#4c72b0" stroke="#fff" id="patch_117"/><path clip-path="url(#pd0b56326f7)" d="M290.2 669.1h8.8v-13.5h-8.8z" fill="#4c72b0" stroke="#fff" id="patch_118"/><path clip-path="url(#pd0b56326f7)" d="M299 669.1h8.9v-10H299z" fill="#4c72b0" stroke="#fff" id="patch_119"/><path clip-path="url(#pd0b56326f7)" d="M307.9 669.1h8.8v-7H308z" fill="#4c72b0" stroke="#fff" id="patch_120"/><path clip-path="url(#pd0b56326f7)" d="M316.7 669.1h8.9v-5h-8.9z" fill="#4c72b0" stroke="#fff" id="patch_121"/><path clip-path="url(#pd0b56326f7)" d="M325.6 669.1h8.8v-3.4h-8.8z" fill="#4c72b0" stroke="#fff" id="patch_122"/><path clip-path="url(#pd0b56326f7)" d="M334.4 669.1h8.8v-3.2h-8.8z" fill="#4c72b0" stroke="#fff" id="patch_123"/><path clip-path="url(#pd0b56326f7)" d="M343.2 669.1h8.9v-2h-8.9z" fill="#4c72b0" stroke="#fff" id="patch_124"/><path clip-path="url(#pd0b56326f7)" d="M352 669.1h8.9v-1.8H352z" fill="#4c72b0" stroke="#fff" id="patch_125"/><path clip-path="url(#pd0b56326f7)" d="M360.9 669.1h8.8v-1H361z" fill="#4c72b0" stroke="#fff" id="patch_126"/><path clip-path="url(#pd0b56326f7)" d="M369.7 669.1h8.9v-1.3h-8.9z" fill="#4c72b0" stroke="#fff" id="patch_127"/><path clip-path="url(#pd0b56326f7)" d="M378.6 669.1h8.8v-1h-8.8z" fill="#4c72b0" stroke="#fff" id="patch_128"/><path clip-path="url(#pd0b56326f7)" d="M387.4 669.1h8.8v-.7h-8.8z" fill="#4c72b0" stroke="#fff" id="patch_129"/><path clip-path="url(#pd0b56326f7)" d="M396.2 669.1h8.9v-.7h-8.9z" fill="#4c72b0" stroke="#fff" id="patch_130"/><path clip-path="url(#pd0b56326f7)" d="M405 669.1h8.9v-.5H405z" fill="#4c72b0" stroke="#fff" id="patch_131"/><path clip-path="url(#pd0b56326f7)" d="M413.9 669.1h8.8v-.5H414z" fill="#4c72b0" stroke="#fff" id="patch_132"/><path d="M51.7 669.1V486" fill="none" stroke="#fff" stroke-linecap="square" stroke-width="1.3" id="patch_133"/><path d="M440.4 669.1V486" fill="none" stroke="#fff" stroke-linecap="square" stroke-width="1.3" id="patch_134"/><path d="M51.7 669.1h388.7" fill="none" stroke="#fff" stroke-linecap="square" stroke-width="1.3" id="patch_135"/><path d="M51.7 486h388.7" fill="none" stroke="#fff" stroke-linecap="square" stroke-width="1.3" id="patch_136"/></g></g><defs><clipPath id="p681e1c633b"><path d="M51.7 13.2h388.7v183.1H51.7z"/></clipPath><clipPath id="p4f4808b270"><path d="M51.7 249.6h388.7v183.1H51.7z"/></clipPath><clipPath id="pd0b56326f7"><path d="M51.7 486h388.7v183.1H51.7z"/></clipPath></defs></svg>