<?xml version="1.0" encoding="utf-8" standalone="no"?>
<!DOCTYPE svg PUBLIC "-//W3C//DTD SVG 1.1//EN"
  "http://www.w3.org/Graphics/SVG/1.1/DTD/svg11.dtd">
<!-- Created with matplotlib (http://matplotlib.org/) -->
<svg height="273.553949pt" version="1.1" viewBox="0 0 422.30625 273.553949" width="422.30625pt" xmlns="http://www.w3.org/2000/svg" xmlns:xlink="http://www.w3.org/1999/xlink">
 <defs>
  <style type="text/css">
*{stroke-linecap:butt;stroke-linejoin:round;}
  </style>
 </defs>
 <g id="figure_1">
  <g id="patch_1">
   <path d="M 0 273.553949 
L 422.30625 273.553949 
L 422.30625 0 
L 0 0 
z
" style="fill:none;"/>
  </g>
  <g id="axes_1">
   <g id="patch_2">
    <path d="M 74.30625 209.04 
L 409.10625 209.04 
L 409.10625 13.2 
L 74.30625 13.2 
z
" style="fill:#eaeaf2;"/>
   </g>
   <g id="matplotlib.axis_1">
    <g id="xtick_1">
     <g id="line2d_1">
      <path clip-path="url(#p4f8b58a43d)" d="M 109.018797 209.04 
L 109.018797 13.2 
" style="fill:none;stroke:#ffffff;stroke-linecap:round;"/>
     </g>
     <g id="text_1">
      <!-- 2017-02 -->
      <defs>
       <path d="M 19.1875 8.296875 
L 53.609375 8.296875 
L 53.609375 0 
L 7.328125 0 
L 7.328125 8.296875 
Q 12.9375 14.109375 22.625 23.890625 
Q 32.328125 33.6875 34.8125 36.53125 
Q 39.546875 41.84375 41.421875 45.53125 
Q 43.3125 49.21875 43.3125 52.78125 
Q 43.3125 58.59375 39.234375 62.25 
Q 35.15625 65.921875 28.609375 65.921875 
Q 23.96875 65.921875 18.8125 64.3125 
Q 13.671875 62.703125 7.8125 59.421875 
L 7.8125 69.390625 
Q 13.765625 71.78125 18.9375 73 
Q 24.125 74.21875 28.421875 74.21875 
Q 39.75 74.21875 46.484375 68.546875 
Q 53.21875 62.890625 53.21875 53.421875 
Q 53.21875 48.921875 51.53125 44.890625 
Q 49.859375 40.875 45.40625 35.40625 
Q 44.1875 33.984375 37.640625 27.21875 
Q 31.109375 20.453125 19.1875 8.296875 
z
" id="DejaVuSans-32"/>
       <path d="M 31.78125 66.40625 
Q 24.171875 66.40625 20.328125 58.90625 
Q 16.5 51.421875 16.5 36.375 
Q 16.5 21.390625 20.328125 13.890625 
Q 24.171875 6.390625 31.78125 6.390625 
Q 39.453125 6.390625 43.28125 13.890625 
Q 47.125 21.390625 47.125 36.375 
Q 47.125 51.421875 43.28125 58.90625 
Q 39.453125 66.40625 31.78125 66.40625 
z
M 31.78125 74.21875 
Q 44.046875 74.21875 50.515625 64.515625 
Q 56.984375 54.828125 56.984375 36.375 
Q 56.984375 17.96875 50.515625 8.265625 
Q 44.046875 -1.421875 31.78125 -1.421875 
Q 19.53125 -1.421875 13.0625 8.265625 
Q 6.59375 17.96875 6.59375 36.375 
Q 6.59375 54.828125 13.0625 64.515625 
Q 19.53125 74.21875 31.78125 74.21875 
z
" id="DejaVuSans-30"/>
       <path d="M 12.40625 8.296875 
L 28.515625 8.296875 
L 28.515625 63.921875 
L 10.984375 60.40625 
L 10.984375 69.390625 
L 28.421875 72.90625 
L 38.28125 72.90625 
L 38.28125 8.296875 
L 54.390625 8.296875 
L 54.390625 0 
L 12.40625 0 
z
" id="DejaVuSans-31"/>
       <path d="M 8.203125 72.90625 
L 55.078125 72.90625 
L 55.078125 68.703125 
L 28.609375 0 
L 18.3125 0 
L 43.21875 64.59375 
L 8.203125 64.59375 
z
" id="DejaVuSans-37"/>
       <path d="M 4.890625 31.390625 
L 31.203125 31.390625 
L 31.203125 23.390625 
L 4.890625 23.390625 
z
" id="DejaVuSans-2d"/>
      </defs>
      <g style="fill:#262626;" transform="translate(68.071494 248.759031)rotate(-30)scale(0.11 -0.11)">
       <use xlink:href="#DejaVuSans-32"/>
       <use x="63.623047" xlink:href="#DejaVuSans-30"/>
       <use x="127.246094" xlink:href="#DejaVuSans-31"/>
       <use x="190.869141" xlink:href="#DejaVuSans-37"/>
       <use x="254.492188" xlink:href="#DejaVuSans-2d"/>
       <use x="290.576172" xlink:href="#DejaVuSans-30"/>
       <use x="354.199219" xlink:href="#DejaVuSans-32"/>
      </g>
     </g>
    </g>
    <g id="xtick_2">
     <g id="line2d_2">
      <path clip-path="url(#p4f8b58a43d)" d="M 146.120976 209.04 
L 146.120976 13.2 
" style="fill:none;stroke:#ffffff;stroke-linecap:round;"/>
     </g>
     <g id="text_2">
      <!-- 2017-04 -->
      <defs>
       <path d="M 37.796875 64.3125 
L 12.890625 25.390625 
L 37.796875 25.390625 
z
M 35.203125 72.90625 
L 47.609375 72.90625 
L 47.609375 25.390625 
L 58.015625 25.390625 
L 58.015625 17.1875 
L 47.609375 17.1875 
L 47.609375 0 
L 37.796875 0 
L 37.796875 17.1875 
L 4.890625 17.1875 
L 4.890625 26.703125 
z
" id="DejaVuSans-34"/>
      </defs>
      <g style="fill:#262626;" transform="translate(105.173673 248.759031)rotate(-30)scale(0.11 -0.11)">
       <use xlink:href="#DejaVuSans-32"/>
       <use x="63.623047" xlink:href="#DejaVuSans-30"/>
       <use x="127.246094" xlink:href="#DejaVuSans-31"/>
       <use x="190.869141" xlink:href="#DejaVuSans-37"/>
       <use x="254.492188" xlink:href="#DejaVuSans-2d"/>
       <use x="290.576172" xlink:href="#DejaVuSans-30"/>
       <use x="354.199219" xlink:href="#DejaVuSans-34"/>
      </g>
     </g>
    </g>
    <g id="xtick_3">
     <g id="line2d_3">
      <path clip-path="url(#p4f8b58a43d)" d="M 184.480856 209.04 
L 184.480856 13.2 
" style="fill:none;stroke:#ffffff;stroke-linecap:round;"/>
     </g>
     <g id="text_3">
      <!-- 2017-06 -->
      <defs>
       <path d="M 33.015625 40.375 
Q 26.375 40.375 22.484375 35.828125 
Q 18.609375 31.296875 18.609375 23.390625 
Q 18.609375 15.53125 22.484375 10.953125 
Q 26.375 6.390625 33.015625 6.390625 
Q 39.65625 6.390625 43.53125 10.953125 
Q 47.40625 15.53125 47.40625 23.390625 
Q 47.40625 31.296875 43.53125 35.828125 
Q 39.65625 40.375 33.015625 40.375 
z
M 52.59375 71.296875 
L 52.59375 62.3125 
Q 48.875 64.0625 45.09375 64.984375 
Q 41.3125 65.921875 37.59375 65.921875 
Q 27.828125 65.921875 22.671875 59.328125 
Q 17.53125 52.734375 16.796875 39.40625 
Q 19.671875 43.65625 24.015625 45.921875 
Q 28.375 48.1875 33.59375 48.1875 
Q 44.578125 48.1875 50.953125 41.515625 
Q 57.328125 34.859375 57.328125 23.390625 
Q 57.328125 12.15625 50.6875 5.359375 
Q 44.046875 -1.421875 33.015625 -1.421875 
Q 20.359375 -1.421875 13.671875 8.265625 
Q 6.984375 17.96875 6.984375 36.375 
Q 6.984375 53.65625 15.1875 63.9375 
Q 23.390625 74.21875 37.203125 74.21875 
Q 40.921875 74.21875 44.703125 73.484375 
Q 48.484375 72.75 52.59375 71.296875 
z
" id="DejaVuSans-36"/>
      </defs>
      <g style="fill:#262626;" transform="translate(143.533553 248.759031)rotate(-30)scale(0.11 -0.11)">
       <use xlink:href="#DejaVuSans-32"/>
       <use x="63.623047" xlink:href="#DejaVuSans-30"/>
       <use x="127.246094" xlink:href="#DejaVuSans-31"/>
       <use x="190.869141" xlink:href="#DejaVuSans-37"/>
       <use x="254.492188" xlink:href="#DejaVuSans-2d"/>
       <use x="290.576172" xlink:href="#DejaVuSans-30"/>
       <use x="354.199219" xlink:href="#DejaVuSans-36"/>
      </g>
     </g>
    </g>
    <g id="xtick_4">
     <g id="line2d_4">
      <path clip-path="url(#p4f8b58a43d)" d="M 222.840735 209.04 
L 222.840735 13.2 
" style="fill:none;stroke:#ffffff;stroke-linecap:round;"/>
     </g>
     <g id="text_4">
      <!-- 2017-08 -->
      <defs>
       <path d="M 31.78125 34.625 
Q 24.75 34.625 20.71875 30.859375 
Q 16.703125 27.09375 16.703125 20.515625 
Q 16.703125 13.921875 20.71875 10.15625 
Q 24.75 6.390625 31.78125 6.390625 
Q 38.8125 6.390625 42.859375 10.171875 
Q 46.921875 13.96875 46.921875 20.515625 
Q 46.921875 27.09375 42.890625 30.859375 
Q 38.875 34.625 31.78125 34.625 
z
M 21.921875 38.8125 
Q 15.578125 40.375 12.03125 44.71875 
Q 8.5 49.078125 8.5 55.328125 
Q 8.5 64.0625 14.71875 69.140625 
Q 20.953125 74.21875 31.78125 74.21875 
Q 42.671875 74.21875 48.875 69.140625 
Q 55.078125 64.0625 55.078125 55.328125 
Q 55.078125 49.078125 51.53125 44.71875 
Q 48 40.375 41.703125 38.8125 
Q 48.828125 37.15625 52.796875 32.3125 
Q 56.78125 27.484375 56.78125 20.515625 
Q 56.78125 9.90625 50.3125 4.234375 
Q 43.84375 -1.421875 31.78125 -1.421875 
Q 19.734375 -1.421875 13.25 4.234375 
Q 6.78125 9.90625 6.78125 20.515625 
Q 6.78125 27.484375 10.78125 32.3125 
Q 14.796875 37.15625 21.921875 38.8125 
z
M 18.3125 54.390625 
Q 18.3125 48.734375 21.84375 45.5625 
Q 25.390625 42.390625 31.78125 42.390625 
Q 38.140625 42.390625 41.71875 45.5625 
Q 45.3125 48.734375 45.3125 54.390625 
Q 45.3125 60.0625 41.71875 63.234375 
Q 38.140625 66.40625 31.78125 66.40625 
Q 25.390625 66.40625 21.84375 63.234375 
Q 18.3125 60.0625 18.3125 54.390625 
z
" id="DejaVuSans-38"/>
      </defs>
      <g style="fill:#262626;" transform="translate(181.893432 248.759031)rotate(-30)scale(0.11 -0.11)">
       <use xlink:href="#DejaVuSans-32"/>
       <use x="63.623047" xlink:href="#DejaVuSans-30"/>
       <use x="127.246094" xlink:href="#DejaVuSans-31"/>
       <use x="190.869141" xlink:href="#DejaVuSans-37"/>
       <use x="254.492188" xlink:href="#DejaVuSans-2d"/>
       <use x="290.576172" xlink:href="#DejaVuSans-30"/>
       <use x="354.199219" xlink:href="#DejaVuSans-38"/>
      </g>
     </g>
    </g>
    <g id="xtick_5">
     <g id="line2d_5">
      <path clip-path="url(#p4f8b58a43d)" d="M 261.200615 209.04 
L 261.200615 13.2 
" style="fill:none;stroke:#ffffff;stroke-linecap:round;"/>
     </g>
     <g id="text_5">
      <!-- 2017-10 -->
      <g style="fill:#262626;" transform="translate(220.253312 248.759031)rotate(-30)scale(0.11 -0.11)">
       <use xlink:href="#DejaVuSans-32"/>
       <use x="63.623047" xlink:href="#DejaVuSans-30"/>
       <use x="127.246094" xlink:href="#DejaVuSans-31"/>
       <use x="190.869141" xlink:href="#DejaVuSans-37"/>
       <use x="254.492188" xlink:href="#DejaVuSans-2d"/>
       <use x="290.576172" xlink:href="#DejaVuSans-31"/>
       <use x="354.199219" xlink:href="#DejaVuSans-30"/>
      </g>
     </g>
    </g>
    <g id="xtick_6">
     <g id="line2d_6">
      <path clip-path="url(#p4f8b58a43d)" d="M 299.560495 209.04 
L 299.560495 13.2 
" style="fill:none;stroke:#ffffff;stroke-linecap:round;"/>
     </g>
     <g id="text_6">
      <!-- 2017-12 -->
      <g style="fill:#262626;" transform="translate(258.613192 248.759031)rotate(-30)scale(0.11 -0.11)">
       <use xlink:href="#DejaVuSans-32"/>
       <use x="63.623047" xlink:href="#DejaVuSans-30"/>
       <use x="127.246094" xlink:href="#DejaVuSans-31"/>
       <use x="190.869141" xlink:href="#DejaVuSans-37"/>
       <use x="254.492188" xlink:href="#DejaVuSans-2d"/>
       <use x="290.576172" xlink:href="#DejaVuSans-31"/>
       <use x="354.199219" xlink:href="#DejaVuSans-32"/>
      </g>
     </g>
    </g>
    <g id="xtick_7">
     <g id="line2d_7">
      <path clip-path="url(#p4f8b58a43d)" d="M 338.549225 209.04 
L 338.549225 13.2 
" style="fill:none;stroke:#ffffff;stroke-linecap:round;"/>
     </g>
     <g id="text_7">
      <!-- 2018-02 -->
      <g style="fill:#262626;" transform="translate(297.601922 248.759031)rotate(-30)scale(0.11 -0.11)">
       <use xlink:href="#DejaVuSans-32"/>
       <use x="63.623047" xlink:href="#DejaVuSans-30"/>
       <use x="127.246094" xlink:href="#DejaVuSans-31"/>
       <use x="190.869141" xlink:href="#DejaVuSans-38"/>
       <use x="254.492188" xlink:href="#DejaVuSans-2d"/>
       <use x="290.576172" xlink:href="#DejaVuSans-30"/>
       <use x="354.199219" xlink:href="#DejaVuSans-32"/>
      </g>
     </g>
    </g>
    <g id="xtick_8">
     <g id="line2d_8">
      <path clip-path="url(#p4f8b58a43d)" d="M 375.651404 209.04 
L 375.651404 13.2 
" style="fill:none;stroke:#ffffff;stroke-linecap:round;"/>
     </g>
     <g id="text_8">
      <!-- 2018-04 -->
      <g style="fill:#262626;" transform="translate(334.704101 248.759031)rotate(-30)scale(0.11 -0.11)">
       <use xlink:href="#DejaVuSans-32"/>
       <use x="63.623047" xlink:href="#DejaVuSans-30"/>
       <use x="127.246094" xlink:href="#DejaVuSans-31"/>
       <use x="190.869141" xlink:href="#DejaVuSans-38"/>
       <use x="254.492188" xlink:href="#DejaVuSans-2d"/>
       <use x="290.576172" xlink:href="#DejaVuSans-30"/>
       <use x="354.199219" xlink:href="#DejaVuSans-34"/>
      </g>
     </g>
    </g>
    <g id="text_9">
     <!-- Date -->
     <defs>
      <path d="M 19.671875 64.796875 
L 19.671875 8.109375 
L 31.59375 8.109375 
Q 46.6875 8.109375 53.6875 14.9375 
Q 60.6875 21.78125 60.6875 36.53125 
Q 60.6875 51.171875 53.6875 57.984375 
Q 46.6875 64.796875 31.59375 64.796875 
z
M 9.8125 72.90625 
L 30.078125 72.90625 
Q 51.265625 72.90625 61.171875 64.09375 
Q 71.09375 55.28125 71.09375 36.53125 
Q 71.09375 17.671875 61.125 8.828125 
Q 51.171875 0 30.078125 0 
L 9.8125 0 
z
" id="DejaVuSans-44"/>
      <path d="M 34.28125 27.484375 
Q 23.390625 27.484375 19.1875 25 
Q 14.984375 22.515625 14.984375 16.5 
Q 14.984375 11.71875 18.140625 8.90625 
Q 21.296875 6.109375 26.703125 6.109375 
Q 34.1875 6.109375 38.703125 11.40625 
Q 43.21875 16.703125 43.21875 25.484375 
L 43.21875 27.484375 
z
M 52.203125 31.203125 
L 52.203125 0 
L 43.21875 0 
L 43.21875 8.296875 
Q 40.140625 3.328125 35.546875 0.953125 
Q 30.953125 -1.421875 24.3125 -1.421875 
Q 15.921875 -1.421875 10.953125 3.296875 
Q 6 8.015625 6 15.921875 
Q 6 25.140625 12.171875 29.828125 
Q 18.359375 34.515625 30.609375 34.515625 
L 43.21875 34.515625 
L 43.21875 35.40625 
Q 43.21875 41.609375 39.140625 45 
Q 35.0625 48.390625 27.6875 48.390625 
Q 23 48.390625 18.546875 47.265625 
Q 14.109375 46.140625 10.015625 43.890625 
L 10.015625 52.203125 
Q 14.9375 54.109375 19.578125 55.046875 
Q 24.21875 56 28.609375 56 
Q 40.484375 56 46.34375 49.84375 
Q 52.203125 43.703125 52.203125 31.203125 
z
" id="DejaVuSans-61"/>
      <path d="M 18.3125 70.21875 
L 18.3125 54.6875 
L 36.8125 54.6875 
L 36.8125 47.703125 
L 18.3125 47.703125 
L 18.3125 18.015625 
Q 18.3125 11.328125 20.140625 9.421875 
Q 21.96875 7.515625 27.59375 7.515625 
L 36.8125 7.515625 
L 36.8125 0 
L 27.59375 0 
Q 17.1875 0 13.234375 3.875 
Q 9.28125 7.765625 9.28125 18.015625 
L 9.28125 47.703125 
L 2.6875 47.703125 
L 2.6875 54.6875 
L 9.28125 54.6875 
L 9.28125 70.21875 
z
" id="DejaVuSans-74"/>
      <path d="M 56.203125 29.59375 
L 56.203125 25.203125 
L 14.890625 25.203125 
Q 15.484375 15.921875 20.484375 11.0625 
Q 25.484375 6.203125 34.421875 6.203125 
Q 39.59375 6.203125 44.453125 7.46875 
Q 49.3125 8.734375 54.109375 11.28125 
L 54.109375 2.78125 
Q 49.265625 0.734375 44.1875 -0.34375 
Q 39.109375 -1.421875 33.890625 -1.421875 
Q 20.796875 -1.421875 13.15625 6.1875 
Q 5.515625 13.8125 5.515625 26.8125 
Q 5.515625 40.234375 12.765625 48.109375 
Q 20.015625 56 32.328125 56 
Q 43.359375 56 49.78125 48.890625 
Q 56.203125 41.796875 56.203125 29.59375 
z
M 47.21875 32.234375 
Q 47.125 39.59375 43.09375 43.984375 
Q 39.0625 48.390625 32.421875 48.390625 
Q 24.90625 48.390625 20.390625 44.140625 
Q 15.875 39.890625 15.1875 32.171875 
z
" id="DejaVuSans-65"/>
     </defs>
     <g style="fill:#262626;" transform="translate(227.365313 263.858324)scale(0.12 -0.12)">
      <use xlink:href="#DejaVuSans-44"/>
      <use x="77.001953" xlink:href="#DejaVuSans-61"/>
      <use x="138.28125" xlink:href="#DejaVuSans-74"/>
      <use x="177.490234" xlink:href="#DejaVuSans-65"/>
     </g>
    </g>
   </g>
   <g id="matplotlib.axis_2">
    <g id="ytick_1">
     <g id="line2d_9">
      <path clip-path="url(#p4f8b58a43d)" d="M 74.30625 201.252832 
L 409.10625 201.252832 
" style="fill:none;stroke:#ffffff;stroke-linecap:round;"/>
     </g>
     <g id="text_10">
      <!-- 0 -->
      <g style="fill:#262626;" transform="translate(57.8075 205.431973)scale(0.11 -0.11)">
       <use xlink:href="#DejaVuSans-30"/>
      </g>
     </g>
    </g>
    <g id="ytick_2">
     <g id="line2d_10">
      <path clip-path="url(#p4f8b58a43d)" d="M 74.30625 172.22548 
L 409.10625 172.22548 
" style="fill:none;stroke:#ffffff;stroke-linecap:round;"/>
     </g>
     <g id="text_11">
      <!-- 25000 -->
      <defs>
       <path d="M 10.796875 72.90625 
L 49.515625 72.90625 
L 49.515625 64.59375 
L 19.828125 64.59375 
L 19.828125 46.734375 
Q 21.96875 47.46875 24.109375 47.828125 
Q 26.265625 48.1875 28.421875 48.1875 
Q 40.625 48.1875 47.75 41.5 
Q 54.890625 34.8125 54.890625 23.390625 
Q 54.890625 11.625 47.5625 5.09375 
Q 40.234375 -1.421875 26.90625 -1.421875 
Q 22.3125 -1.421875 17.546875 -0.640625 
Q 12.796875 0.140625 7.71875 1.703125 
L 7.71875 11.625 
Q 12.109375 9.234375 16.796875 8.0625 
Q 21.484375 6.890625 26.703125 6.890625 
Q 35.15625 6.890625 40.078125 11.328125 
Q 45.015625 15.765625 45.015625 23.390625 
Q 45.015625 31 40.078125 35.4375 
Q 35.15625 39.890625 26.703125 39.890625 
Q 22.75 39.890625 18.8125 39.015625 
Q 14.890625 38.140625 10.796875 36.28125 
z
" id="DejaVuSans-35"/>
      </defs>
      <g style="fill:#262626;" transform="translate(29.8125 176.40462)scale(0.11 -0.11)">
       <use xlink:href="#DejaVuSans-32"/>
       <use x="63.623047" xlink:href="#DejaVuSans-35"/>
       <use x="127.246094" xlink:href="#DejaVuSans-30"/>
       <use x="190.869141" xlink:href="#DejaVuSans-30"/>
       <use x="254.492188" xlink:href="#DejaVuSans-30"/>
      </g>
     </g>
    </g>
    <g id="ytick_3">
     <g id="line2d_11">
      <path clip-path="url(#p4f8b58a43d)" d="M 74.30625 143.198127 
L 409.10625 143.198127 
" style="fill:none;stroke:#ffffff;stroke-linecap:round;"/>
     </g>
     <g id="text_12">
      <!-- 50000 -->
      <g style="fill:#262626;" transform="translate(29.8125 147.377268)scale(0.11 -0.11)">
       <use xlink:href="#DejaVuSans-35"/>
       <use x="63.623047" xlink:href="#DejaVuSans-30"/>
       <use x="127.246094" xlink:href="#DejaVuSans-30"/>
       <use x="190.869141" xlink:href="#DejaVuSans-30"/>
       <use x="254.492188" xlink:href="#DejaVuSans-30"/>
      </g>
     </g>
    </g>
    <g id="ytick_4">
     <g id="line2d_12">
      <path clip-path="url(#p4f8b58a43d)" d="M 74.30625 114.170775 
L 409.10625 114.170775 
" style="fill:none;stroke:#ffffff;stroke-linecap:round;"/>
     </g>
     <g id="text_13">
      <!-- 75000 -->
      <g style="fill:#262626;" transform="translate(29.8125 118.349915)scale(0.11 -0.11)">
       <use xlink:href="#DejaVuSans-37"/>
       <use x="63.623047" xlink:href="#DejaVuSans-35"/>
       <use x="127.246094" xlink:href="#DejaVuSans-30"/>
       <use x="190.869141" xlink:href="#DejaVuSans-30"/>
       <use x="254.492188" xlink:href="#DejaVuSans-30"/>
      </g>
     </g>
    </g>
    <g id="ytick_5">
     <g id="line2d_13">
      <path clip-path="url(#p4f8b58a43d)" d="M 74.30625 85.143422 
L 409.10625 85.143422 
" style="fill:none;stroke:#ffffff;stroke-linecap:round;"/>
     </g>
     <g id="text_14">
      <!-- 100000 -->
      <g style="fill:#262626;" transform="translate(22.81375 89.322563)scale(0.11 -0.11)">
       <use xlink:href="#DejaVuSans-31"/>
       <use x="63.623047" xlink:href="#DejaVuSans-30"/>
       <use x="127.246094" xlink:href="#DejaVuSans-30"/>
       <use x="190.869141" xlink:href="#DejaVuSans-30"/>
       <use x="254.492188" xlink:href="#DejaVuSans-30"/>
       <use x="318.115234" xlink:href="#DejaVuSans-30"/>
      </g>
     </g>
    </g>
    <g id="ytick_6">
     <g id="line2d_14">
      <path clip-path="url(#p4f8b58a43d)" d="M 74.30625 56.11607 
L 409.10625 56.11607 
" style="fill:none;stroke:#ffffff;stroke-linecap:round;"/>
     </g>
     <g id="text_15">
      <!-- 125000 -->
      <g style="fill:#262626;" transform="translate(22.81375 60.29521)scale(0.11 -0.11)">
       <use xlink:href="#DejaVuSans-31"/>
       <use x="63.623047" xlink:href="#DejaVuSans-32"/>
       <use x="127.246094" xlink:href="#DejaVuSans-35"/>
       <use x="190.869141" xlink:href="#DejaVuSans-30"/>
       <use x="254.492188" xlink:href="#DejaVuSans-30"/>
       <use x="318.115234" xlink:href="#DejaVuSans-30"/>
      </g>
     </g>
    </g>
    <g id="ytick_7">
     <g id="line2d_15">
      <path clip-path="url(#p4f8b58a43d)" d="M 74.30625 27.088717 
L 409.10625 27.088717 
" style="fill:none;stroke:#ffffff;stroke-linecap:round;"/>
     </g>
     <g id="text_16">
      <!-- 150000 -->
      <g style="fill:#262626;" transform="translate(22.81375 31.267858)scale(0.11 -0.11)">
       <use xlink:href="#DejaVuSans-31"/>
       <use x="63.623047" xlink:href="#DejaVuSans-35"/>
       <use x="127.246094" xlink:href="#DejaVuSans-30"/>
       <use x="190.869141" xlink:href="#DejaVuSans-30"/>
       <use x="254.492188" xlink:href="#DejaVuSans-30"/>
       <use x="318.115234" xlink:href="#DejaVuSans-30"/>
      </g>
     </g>
    </g>
    <g id="text_17">
     <!-- Number of transactions -->
     <defs>
      <path d="M 9.8125 72.90625 
L 23.09375 72.90625 
L 55.421875 11.921875 
L 55.421875 72.90625 
L 64.984375 72.90625 
L 64.984375 0 
L 51.703125 0 
L 19.390625 60.984375 
L 19.390625 0 
L 9.8125 0 
z
" id="DejaVuSans-4e"/>
      <path d="M 8.5 21.578125 
L 8.5 54.6875 
L 17.484375 54.6875 
L 17.484375 21.921875 
Q 17.484375 14.15625 20.5 10.265625 
Q 23.53125 6.390625 29.59375 6.390625 
Q 36.859375 6.390625 41.078125 11.03125 
Q 45.3125 15.671875 45.3125 23.6875 
L 45.3125 54.6875 
L 54.296875 54.6875 
L 54.296875 0 
L 45.3125 0 
L 45.3125 8.40625 
Q 42.046875 3.421875 37.71875 1 
Q 33.40625 -1.421875 27.6875 -1.421875 
Q 18.265625 -1.421875 13.375 4.4375 
Q 8.5 10.296875 8.5 21.578125 
z
M 31.109375 56 
z
" id="DejaVuSans-75"/>
      <path d="M 52 44.1875 
Q 55.375 50.25 60.0625 53.125 
Q 64.75 56 71.09375 56 
Q 79.640625 56 84.28125 50.015625 
Q 88.921875 44.046875 88.921875 33.015625 
L 88.921875 0 
L 79.890625 0 
L 79.890625 32.71875 
Q 79.890625 40.578125 77.09375 44.375 
Q 74.3125 48.1875 68.609375 48.1875 
Q 61.625 48.1875 57.5625 43.546875 
Q 53.515625 38.921875 53.515625 30.90625 
L 53.515625 0 
L 44.484375 0 
L 44.484375 32.71875 
Q 44.484375 40.625 41.703125 44.40625 
Q 38.921875 48.1875 33.109375 48.1875 
Q 26.21875 48.1875 22.15625 43.53125 
Q 18.109375 38.875 18.109375 30.90625 
L 18.109375 0 
L 9.078125 0 
L 9.078125 54.6875 
L 18.109375 54.6875 
L 18.109375 46.1875 
Q 21.1875 51.21875 25.484375 53.609375 
Q 29.78125 56 35.6875 56 
Q 41.65625 56 45.828125 52.96875 
Q 50 49.953125 52 44.1875 
z
" id="DejaVuSans-6d"/>
      <path d="M 48.6875 27.296875 
Q 48.6875 37.203125 44.609375 42.84375 
Q 40.53125 48.484375 33.40625 48.484375 
Q 26.265625 48.484375 22.1875 42.84375 
Q 18.109375 37.203125 18.109375 27.296875 
Q 18.109375 17.390625 22.1875 11.75 
Q 26.265625 6.109375 33.40625 6.109375 
Q 40.53125 6.109375 44.609375 11.75 
Q 48.6875 17.390625 48.6875 27.296875 
z
M 18.109375 46.390625 
Q 20.953125 51.265625 25.265625 53.625 
Q 29.59375 56 35.59375 56 
Q 45.5625 56 51.78125 48.09375 
Q 58.015625 40.1875 58.015625 27.296875 
Q 58.015625 14.40625 51.78125 6.484375 
Q 45.5625 -1.421875 35.59375 -1.421875 
Q 29.59375 -1.421875 25.265625 0.953125 
Q 20.953125 3.328125 18.109375 8.203125 
L 18.109375 0 
L 9.078125 0 
L 9.078125 75.984375 
L 18.109375 75.984375 
z
" id="DejaVuSans-62"/>
      <path d="M 41.109375 46.296875 
Q 39.59375 47.171875 37.8125 47.578125 
Q 36.03125 48 33.890625 48 
Q 26.265625 48 22.1875 43.046875 
Q 18.109375 38.09375 18.109375 28.8125 
L 18.109375 0 
L 9.078125 0 
L 9.078125 54.6875 
L 18.109375 54.6875 
L 18.109375 46.1875 
Q 20.953125 51.171875 25.484375 53.578125 
Q 30.03125 56 36.53125 56 
Q 37.453125 56 38.578125 55.875 
Q 39.703125 55.765625 41.0625 55.515625 
z
" id="DejaVuSans-72"/>
      <path id="DejaVuSans-20"/>
      <path d="M 30.609375 48.390625 
Q 23.390625 48.390625 19.1875 42.75 
Q 14.984375 37.109375 14.984375 27.296875 
Q 14.984375 17.484375 19.15625 11.84375 
Q 23.34375 6.203125 30.609375 6.203125 
Q 37.796875 6.203125 41.984375 11.859375 
Q 46.1875 17.53125 46.1875 27.296875 
Q 46.1875 37.015625 41.984375 42.703125 
Q 37.796875 48.390625 30.609375 48.390625 
z
M 30.609375 56 
Q 42.328125 56 49.015625 48.375 
Q 55.71875 40.765625 55.71875 27.296875 
Q 55.71875 13.875 49.015625 6.21875 
Q 42.328125 -1.421875 30.609375 -1.421875 
Q 18.84375 -1.421875 12.171875 6.21875 
Q 5.515625 13.875 5.515625 27.296875 
Q 5.515625 40.765625 12.171875 48.375 
Q 18.84375 56 30.609375 56 
z
" id="DejaVuSans-6f"/>
      <path d="M 37.109375 75.984375 
L 37.109375 68.5 
L 28.515625 68.5 
Q 23.6875 68.5 21.796875 66.546875 
Q 19.921875 64.59375 19.921875 59.515625 
L 19.921875 54.6875 
L 34.71875 54.6875 
L 34.71875 47.703125 
L 19.921875 47.703125 
L 19.921875 0 
L 10.890625 0 
L 10.890625 47.703125 
L 2.296875 47.703125 
L 2.296875 54.6875 
L 10.890625 54.6875 
L 10.890625 58.5 
Q 10.890625 67.625 15.140625 71.796875 
Q 19.390625 75.984375 28.609375 75.984375 
z
" id="DejaVuSans-66"/>
      <path d="M 54.890625 33.015625 
L 54.890625 0 
L 45.90625 0 
L 45.90625 32.71875 
Q 45.90625 40.484375 42.875 44.328125 
Q 39.84375 48.1875 33.796875 48.1875 
Q 26.515625 48.1875 22.3125 43.546875 
Q 18.109375 38.921875 18.109375 30.90625 
L 18.109375 0 
L 9.078125 0 
L 9.078125 54.6875 
L 18.109375 54.6875 
L 18.109375 46.1875 
Q 21.34375 51.125 25.703125 53.5625 
Q 30.078125 56 35.796875 56 
Q 45.21875 56 50.046875 50.171875 
Q 54.890625 44.34375 54.890625 33.015625 
z
" id="DejaVuSans-6e"/>
      <path d="M 44.28125 53.078125 
L 44.28125 44.578125 
Q 40.484375 46.53125 36.375 47.5 
Q 32.28125 48.484375 27.875 48.484375 
Q 21.1875 48.484375 17.84375 46.4375 
Q 14.5 44.390625 14.5 40.28125 
Q 14.5 37.15625 16.890625 35.375 
Q 19.28125 33.59375 26.515625 31.984375 
L 29.59375 31.296875 
Q 39.15625 29.25 43.1875 25.515625 
Q 47.21875 21.78125 47.21875 15.09375 
Q 47.21875 7.46875 41.1875 3.015625 
Q 35.15625 -1.421875 24.609375 -1.421875 
Q 20.21875 -1.421875 15.453125 -0.5625 
Q 10.6875 0.296875 5.421875 2 
L 5.421875 11.28125 
Q 10.40625 8.6875 15.234375 7.390625 
Q 20.0625 6.109375 24.8125 6.109375 
Q 31.15625 6.109375 34.5625 8.28125 
Q 37.984375 10.453125 37.984375 14.40625 
Q 37.984375 18.0625 35.515625 20.015625 
Q 33.0625 21.96875 24.703125 23.78125 
L 21.578125 24.515625 
Q 13.234375 26.265625 9.515625 29.90625 
Q 5.8125 33.546875 5.8125 39.890625 
Q 5.8125 47.609375 11.28125 51.796875 
Q 16.75 56 26.8125 56 
Q 31.78125 56 36.171875 55.265625 
Q 40.578125 54.546875 44.28125 53.078125 
z
" id="DejaVuSans-73"/>
      <path d="M 48.78125 52.59375 
L 48.78125 44.1875 
Q 44.96875 46.296875 41.140625 47.34375 
Q 37.3125 48.390625 33.40625 48.390625 
Q 24.65625 48.390625 19.8125 42.84375 
Q 14.984375 37.3125 14.984375 27.296875 
Q 14.984375 17.28125 19.8125 11.734375 
Q 24.65625 6.203125 33.40625 6.203125 
Q 37.3125 6.203125 41.140625 7.25 
Q 44.96875 8.296875 48.78125 10.40625 
L 48.78125 2.09375 
Q 45.015625 0.34375 40.984375 -0.53125 
Q 36.96875 -1.421875 32.421875 -1.421875 
Q 20.0625 -1.421875 12.78125 6.34375 
Q 5.515625 14.109375 5.515625 27.296875 
Q 5.515625 40.671875 12.859375 48.328125 
Q 20.21875 56 33.015625 56 
Q 37.15625 56 41.109375 55.140625 
Q 45.0625 54.296875 48.78125 52.59375 
z
" id="DejaVuSans-63"/>
      <path d="M 9.421875 54.6875 
L 18.40625 54.6875 
L 18.40625 0 
L 9.421875 0 
z
M 9.421875 75.984375 
L 18.40625 75.984375 
L 18.40625 64.59375 
L 9.421875 64.59375 
z
" id="DejaVuSans-69"/>
     </defs>
     <g style="fill:#262626;" transform="translate(16.318125 181.838437)rotate(-90)scale(0.12 -0.12)">
      <use xlink:href="#DejaVuSans-4e"/>
      <use x="74.804688" xlink:href="#DejaVuSans-75"/>
      <use x="138.183594" xlink:href="#DejaVuSans-6d"/>
      <use x="235.595703" xlink:href="#DejaVuSans-62"/>
      <use x="299.072266" xlink:href="#DejaVuSans-65"/>
      <use x="360.595703" xlink:href="#DejaVuSans-72"/>
      <use x="401.708984" xlink:href="#DejaVuSans-20"/>
      <use x="433.496094" xlink:href="#DejaVuSans-6f"/>
      <use x="494.677734" xlink:href="#DejaVuSans-66"/>
      <use x="529.882812" xlink:href="#DejaVuSans-20"/>
      <use x="561.669922" xlink:href="#DejaVuSans-74"/>
      <use x="600.878906" xlink:href="#DejaVuSans-72"/>
      <use x="641.992188" xlink:href="#DejaVuSans-61"/>
      <use x="703.271484" xlink:href="#DejaVuSans-6e"/>
      <use x="766.650391" xlink:href="#DejaVuSans-73"/>
      <use x="818.75" xlink:href="#DejaVuSans-61"/>
      <use x="880.029297" xlink:href="#DejaVuSans-63"/>
      <use x="935.009766" xlink:href="#DejaVuSans-74"/>
      <use x="974.21875" xlink:href="#DejaVuSans-69"/>
      <use x="1002.001953" xlink:href="#DejaVuSans-6f"/>
      <use x="1063.183594" xlink:href="#DejaVuSans-6e"/>
      <use x="1126.5625" xlink:href="#DejaVuSans-73"/>
     </g>
    </g>
   </g>
   <g id="line2d_16">
    <path clip-path="url(#p4f8b58a43d)" d="M 89.524432 187.492706 
L 90.153282 165.061529 
L 90.782133 161.290295 
L 91.410983 159.59742 
L 92.039834 157.386697 
L 92.668684 150.853221 
L 93.297535 151.070345 
L 93.926385 169.488781 
L 94.555236 156.767834 
L 95.184086 157.389019 
L 95.812937 157.120807 
L 96.441787 156.218636 
L 97.070638 151.271214 
L 97.699488 150.017233 
L 98.328339 168.814185 
L 98.957189 159.328046 
L 99.58604 157.387858 
L 100.21489 157.13474 
L 100.843741 156.347518 
L 101.472591 151.072667 
L 102.101442 150.623324 
L 102.730292 169.121875 
L 103.359143 158.703378 
L 103.987993 155.766971 
L 104.616844 156.248825 
L 105.245694 155.169007 
L 105.874545 150.114765 
L 106.503395 148.225665 
L 107.132245 168.280082 
L 107.761096 158.070582 
L 108.389946 154.557111 
L 109.018797 153.427366 
L 109.647647 152.98615 
L 110.276498 146.269221 
L 110.905348 141.850097 
L 111.534199 164.321912 
L 112.163049 154.170466 
L 112.7919 150.508376 
L 113.42075 151.208515 
L 114.049601 150.553658 
L 114.678451 144.111908 
L 115.307302 141.760693 
L 115.936152 164.071116 
L 116.565003 155.336205 
L 117.193853 151.841312 
L 117.822704 149.860485 
L 118.451554 149.416947 
L 119.080405 143.679981 
L 119.709255 139.477982 
L 120.338106 162.516411 
L 120.966956 151.890078 
L 121.595807 150.222747 
L 122.224657 148.066595 
L 122.853508 145.380984 
L 123.482358 138.40397 
L 124.111209 142.474766 
L 124.740059 166.027559 
L 125.36891 158.728922 
L 125.99776 166.179663 
L 126.626611 153.133609 
L 127.255461 149.726959 
L 127.884312 144.953701 
L 128.513162 137.384529 
L 129.142013 160.08508 
L 129.770863 150.922886 
L 130.399714 146.102024 
L 131.028564 144.407987 
L 131.657415 145.105805 
L 132.286265 140.899161 
L 132.915116 135.213283 
L 133.543966 158.024138 
L 134.172816 150.856704 
L 134.801667 149.719993 
L 135.430517 145.522638 
L 136.059368 145.165021 
L 136.688218 141.254456 
L 137.317069 136.107326 
L 137.945919 159.468539 
L 138.57477 149.293871 
L 139.832471 146.052097 
L 140.461321 144.556607 
L 141.719022 136.082943 
L 142.347873 158.007882 
L 142.976723 150.463093 
L 143.605574 149.440169 
L 144.863275 145.857033 
L 145.492125 138.416742 
L 146.120976 133.982523 
L 146.749826 160.815408 
L 147.378677 148.456722 
L 148.007527 146.709276 
L 148.636378 143.202772 
L 149.265228 140.503228 
L 149.894079 132.206049 
L 150.522929 200.138182 
L 151.15178 155.897013 
L 151.78063 144.64485 
L 152.409481 141.508735 
L 153.038331 135.133168 
L 153.667182 123.809017 
L 154.296032 159.808739 
L 154.924883 128.670518 
L 155.553733 161.440077 
L 156.182584 146.961233 
L 157.440285 140.157222 
L 158.069135 131.259758 
L 158.697986 149.033786 
L 159.326836 132.647265 
L 159.955687 158.839226 
L 160.584537 146.356303 
L 161.213387 143.799574 
L 161.842238 142.537465 
L 162.471088 137.763046 
L 163.099939 145.963853 
L 163.728789 126.192743 
L 164.35764 153.355378 
L 164.98649 162.83339 
L 165.615341 140.360413 
L 166.244191 139.337489 
L 166.873042 138.564201 
L 167.501892 126.471406 
L 168.130743 118.940549 
L 168.759593 152.133907 
L 169.388444 139.884365 
L 170.017294 136.821398 
L 170.646145 136.442882 
L 171.274995 133.359016 
L 171.903846 199.929185 
L 172.532696 111.710416 
L 173.161547 152.431147 
L 173.790397 142.133404 
L 175.048098 136.644912 
L 175.676949 135.229538 
L 176.305799 131.109977 
L 176.93465 123.445594 
L 177.5635 154.814874 
L 178.192351 142.653574 
L 179.450052 199.948923 
L 180.078902 134.305308 
L 180.707753 128.223497 
L 181.336603 125.102476 
L 181.965454 153.818655 
L 182.594304 142.834705 
L 183.223155 139.789155 
L 183.852005 134.220548 
L 184.480856 134.025484 
L 185.109706 125.496087 
L 185.738557 119.538513 
L 186.367407 150.550175 
L 186.996258 139.566225 
L 187.625108 131.683557 
L 188.253958 127.951801 
L 188.882809 126.385485 
L 189.511659 121.044452 
L 190.14051 114.663079 
L 190.76936 148.949026 
L 191.398211 127.00667 
L 192.027061 135.105301 
L 192.655912 122.467953 
L 193.284762 142.021939 
L 193.913613 117.234902 
L 194.542463 120.63923 
L 195.171314 150.827677 
L 195.800164 199.982595 
L 196.429015 131.674268 
L 197.686716 126.676919 
L 198.315566 120.524282 
L 198.944417 121.729497 
L 199.573267 150.744078 
L 200.202118 136.541575 
L 201.459819 130.372682 
L 202.088669 129.377624 
L 202.71752 199.788692 
L 203.34637 117.252318 
L 203.975221 151.027385 
L 204.604071 133.927952 
L 205.232922 130.19039 
L 206.490623 120.520798 
L 207.119473 111.928702 
L 207.748324 109.3801 
L 208.377174 145.390273 
L 209.006025 129.889667 
L 209.634875 126.371552 
L 210.263726 121.566944 
L 210.892576 121.915272 
L 211.521427 111.163541 
L 212.150277 109.21987 
L 212.779128 144.171124 
L 213.407978 128.526542 
L 214.036829 124.055169 
L 214.665679 124.160828 
L 215.294529 120.411656 
L 215.92338 111.840459 
L 216.55223 110.653821 
L 217.181081 144.388249 
L 217.809931 129.249904 
L 218.438782 125.162853 
L 219.067632 122.801187 
L 219.696483 121.909467 
L 220.325333 113.90024 
L 220.954184 108.010009 
L 221.583034 143.1691 
L 222.211885 126.492305 
L 222.840735 125.54253 
L 223.469586 122.642117 
L 224.098436 122.611929 
L 224.727287 108.772848 
L 225.356137 99.019658 
L 225.984988 139.666079 
L 226.613838 123.444433 
L 227.242689 121.468251 
L 228.50039 115.647686 
L 229.758091 89.71465 
L 230.386941 140.563605 
L 231.015792 123.596537 
L 231.644642 123.13326 
L 232.273493 117.892081 
L 232.902343 117.215163 
L 233.531194 105.483469 
L 234.160044 100.457092 
L 234.788895 139.938936 
L 235.417745 123.645303 
L 236.046596 119.668555 
L 237.304297 114.618957 
L 237.933147 103.703511 
L 238.561998 99.069585 
L 239.190848 137.643453 
L 239.819699 123.976214 
L 240.448549 120.589303 
L 241.70625 111.503742 
L 242.3351 105.008581 
L 242.963951 94.497196 
L 243.592801 132.050463 
L 244.221652 114.773383 
L 244.850502 112.84945 
L 245.479353 97.309366 
L 246.108203 118.950999 
L 246.737054 93.139877 
L 247.365904 97.311688 
L 247.994755 129.642354 
L 248.623605 115.113583 
L 249.252456 111.016082 
L 249.881306 107.783596 
L 250.510157 105.467213 
L 251.139007 94.051336 
L 251.767858 86.2662 
L 252.396708 125.482153 
L 253.025559 114.413443 
L 253.654409 111.643073 
L 254.28326 106.167353 
L 254.91211 103.942697 
L 256.169811 86.068814 
L 256.798662 126.781418 
L 257.427512 114.769899 
L 258.685213 108.326988 
L 259.314064 108.565012 
L 259.942914 97.161907 
L 260.571765 88.467635 
L 261.200615 127.55819 
L 261.829466 115.314452 
L 262.458316 191.944341 
L 263.087167 113.058447 
L 264.344868 85.047051 
L 264.973718 77.663654 
L 265.602569 120.769273 
L 266.231419 107.106678 
L 266.86027 102.182478 
L 267.48912 84.984352 
L 268.117971 105.817864 
L 268.746821 82.883933 
L 269.375671 84.435155 
L 270.004522 119.535029 
L 271.262223 102.537773 
L 271.891073 109.4428 
L 272.519924 99.500351 
L 273.148774 85.762285 
L 273.777625 79.397168 
L 274.406475 131.514037 
L 275.035326 122.306561 
L 275.664176 117.735334 
L 277.550728 89.346583 
L 278.179578 77.856396 
L 278.808429 122.672306 
L 279.437279 108.375754 
L 280.06613 99.566533 
L 280.69498 85.939933 
L 281.323831 114.908069 
L 281.952681 83.898729 
L 282.581532 86.363732 
L 283.210382 125.982585 
L 283.839233 106.851238 
L 284.468083 95.391239 
L 285.096934 90.916382 
L 285.725784 90.742218 
L 286.354635 88.957616 
L 286.983485 75.216068 
L 287.612336 113.391681 
L 288.870037 80.5989 
L 289.498887 100.926174 
L 290.127738 85.761124 
L 291.385439 64.449242 
L 292.014289 111.418982 
L 292.64314 99.495706 
L 293.27199 90.662103 
L 293.900841 87.739629 
L 294.529691 82.099034 
L 295.158542 47.002642 
L 295.787392 64.513102 
L 296.416242 108.188818 
L 297.045093 95.931148 
L 297.673943 91.35992 
L 298.302794 88.341075 
L 298.931644 74.456712 
L 299.560495 64.81847 
L 300.189345 58.059741 
L 300.818196 111.744088 
L 301.447046 88.778808 
L 302.075897 83.134729 
L 302.704747 70.244263 
L 303.333598 64.335455 
L 303.962448 60.471334 
L 304.591299 51.768933 
L 305.220149 105.848052 
L 305.849 83.074353 
L 307.106701 68.905521 
L 307.735551 62.923565 
L 308.364402 48.190441 
L 308.993252 44.700193 
L 309.622103 96.673087 
L 310.250953 70.232652 
L 310.879804 59.783966 
L 311.508654 41.072935 
L 312.137505 38.821573 
L 312.766355 22.832146 
L 313.395206 22.101818 
L 314.024056 84.966936 
L 314.652907 161.837171 
L 315.281757 83.757076 
L 317.168309 58.72737 
L 317.797159 62.546209 
L 319.05486 159.917882 
L 319.683711 100.693956 
L 320.312561 94.516935 
L 320.941412 90.136127 
L 321.570262 73.388506 
L 322.199113 72.891557 
L 322.827963 119.458397 
L 323.456813 94.127968 
L 324.085664 89.179385 
L 324.714514 86.121064 
L 325.343365 86.197696 
L 325.972215 71.336852 
L 326.601066 67.320628 
L 327.229916 114.479626 
L 327.858767 89.38606 
L 328.487617 86.244139 
L 329.116468 83.791909 
L 329.745318 82.993076 
L 330.374169 71.231193 
L 331.003019 67.437898 
L 331.63187 112.762368 
L 332.26072 93.432473 
L 333.518421 87.752401 
L 334.147272 87.948626 
L 334.776122 77.888906 
L 335.404973 74.723764 
L 336.033823 117.991935 
L 336.662674 100.712533 
L 337.291524 96.805451 
L 337.920375 87.077805 
L 338.549225 94.058303 
L 339.178076 83.595684 
L 339.806926 77.251466 
L 340.435777 124.065619 
L 341.064627 100.253901 
L 341.693478 90.448461 
L 342.322328 84.79045 
L 342.951179 82.481034 
L 343.580029 72.36326 
L 344.20888 78.176858 
L 344.83773 126.523655 
L 345.466581 112.325796 
L 346.095431 130.662955 
L 346.724282 106.746739 
L 347.353132 93.781962 
L 348.610833 71.985904 
L 349.239684 120.376823 
L 349.868534 100.118053 
L 350.497384 93.741324 
L 351.126235 92.750911 
L 351.755085 93.071373 
L 352.383936 80.377131 
L 353.012786 72.092725 
L 353.641637 120.69264 
L 354.270487 107.020757 
L 354.899338 99.662904 
L 355.528188 90.873422 
L 356.157039 171.754075 
L 356.785889 168.587772 
L 357.41474 160.292916 
L 358.04359 178.029789 
L 358.672441 174.482647 
L 361.187843 167.490538 
L 361.816693 160.666788 
L 362.445544 178.292196 
L 363.074394 175.309346 
L 363.703245 174.488452 
L 364.332095 172.922136 
L 364.960946 170.926215 
L 365.589796 167.173559 
L 366.218647 160.491463 
L 366.847497 177.340099 
L 367.476348 175.355789 
L 368.734049 173.813856 
L 369.362899 172.211547 
L 369.99175 168.146556 
L 370.6206 162.064745 
L 371.249451 178.548798 
L 371.878301 176.124434 
L 372.507152 174.725315 
L 373.136002 171.276866 
L 373.764853 163.119019 
L 374.393703 178.994658 
L 375.022554 162.063584 
L 375.651404 182.924962 
L 376.280255 179.23036 
L 376.909105 179.520634 
L 378.166806 176.59816 
L 379.424507 164.889687 
L 380.053357 181.351679 
L 380.682208 178.484938 
L 381.311058 177.756932 
L 381.939909 176.583066 
L 382.568759 174.866969 
L 383.19761 170.711413 
L 383.82646 165.244982 
L 384.455311 181.8196 
L 385.084161 178.950537 
L 385.713012 177.961285 
L 386.341862 176.401935 
L 386.970713 175.735467 
L 387.599563 171.845802 
L 388.228414 171.893407 
L 388.857264 181.349357 
L 389.486115 180.054737 
L 390.114965 178.376956 
L 391.372666 176.551716 
L 392.001517 172.277729 
L 392.630367 165.876617 
L 393.259218 180.000166 
L 393.888068 170.107644 
L 393.888068 170.107644 
" style="fill:none;stroke:#4c72b0;stroke-linecap:round;stroke-width:1.5;"/>
   </g>
   <g id="patch_3">
    <path d="M 74.30625 209.04 
L 74.30625 13.2 
" style="fill:none;stroke:#ffffff;stroke-linecap:square;stroke-linejoin:miter;stroke-width:1.25;"/>
   </g>
   <g id="patch_4">
    <path d="M 409.10625 209.04 
L 409.10625 13.2 
" style="fill:none;stroke:#ffffff;stroke-linecap:square;stroke-linejoin:miter;stroke-width:1.25;"/>
   </g>
   <g id="patch_5">
    <path d="M 74.30625 209.04 
L 409.10625 209.04 
" style="fill:none;stroke:#ffffff;stroke-linecap:square;stroke-linejoin:miter;stroke-width:1.25;"/>
   </g>
   <g id="patch_6">
    <path d="M 74.30625 13.2 
L 409.10625 13.2 
" style="fill:none;stroke:#ffffff;stroke-linecap:square;stroke-linejoin:miter;stroke-width:1.25;"/>
   </g>
   <g id="legend_1">
    <g id="patch_7">
     <path d="M 82.00625 38.145938 
L 187.455 38.145938 
Q 189.655 38.145938 189.655 35.945938 
L 189.655 20.9 
Q 189.655 18.7 187.455 18.7 
L 82.00625 18.7 
Q 79.80625 18.7 79.80625 20.9 
L 79.80625 35.945938 
Q 79.80625 38.145938 82.00625 38.145938 
z
" style="fill:#eaeaf2;opacity:0.8;stroke:#cccccc;stroke-linejoin:miter;"/>
    </g>
    <g id="line2d_17">
     <path d="M 84.20625 27.608281 
L 106.20625 27.608281 
" style="fill:none;stroke:#4c72b0;stroke-linecap:round;stroke-width:1.5;"/>
    </g>
    <g id="line2d_18"/>
    <g id="text_18">
     <!-- Transactions -->
     <defs>
      <path d="M -0.296875 72.90625 
L 61.375 72.90625 
L 61.375 64.59375 
L 35.5 64.59375 
L 35.5 0 
L 25.59375 0 
L 25.59375 64.59375 
L -0.296875 64.59375 
z
" id="DejaVuSans-54"/>
     </defs>
     <g style="fill:#262626;" transform="translate(115.00625 31.458281)scale(0.11 -0.11)">
      <use xlink:href="#DejaVuSans-54"/>
      <use x="60.865234" xlink:href="#DejaVuSans-72"/>
      <use x="101.978516" xlink:href="#DejaVuSans-61"/>
      <use x="163.257812" xlink:href="#DejaVuSans-6e"/>
      <use x="226.636719" xlink:href="#DejaVuSans-73"/>
      <use x="278.736328" xlink:href="#DejaVuSans-61"/>
      <use x="340.015625" xlink:href="#DejaVuSans-63"/>
      <use x="394.996094" xlink:href="#DejaVuSans-74"/>
      <use x="434.205078" xlink:href="#DejaVuSans-69"/>
      <use x="461.988281" xlink:href="#DejaVuSans-6f"/>
      <use x="523.169922" xlink:href="#DejaVuSans-6e"/>
      <use x="586.548828" xlink:href="#DejaVuSans-73"/>
     </g>
    </g>
   </g>
  </g>
 </g>
 <defs>
  <clipPath id="p4f8b58a43d">
   <rect height="195.84" width="334.8" x="74.30625" y="13.2"/>
  </clipPath>
 </defs>
</svg>
