<svg height="365.2" viewBox="0 0 418 273.9" width="557.4" xmlns="http://www.w3.org/2000/svg" xmlns:xlink="http://www.w3.org/1999/xlink"><defs><style>*{stroke-linecap:butt;stroke-linejoin:round}</style></defs><g id="figure_1"><path d="M0 274h418V0H0z" fill="none" id="patch_1"/><g id="axes_1"><path d="M70 230.6h334.8V13.2H70z" fill="#eaeaf2" id="patch_2"/><g id="matplotlib.axis_1"><g id="xtick_1"><path clip-path="url(#p53b60f1770)" d="M73.5 230.6V13.2" fill="none" stroke="#fff" stroke-linecap="round" id="line2d_1"/><g id="text_1"><defs><path d="M10.6 35.5h62.6v-8.3H10.6z" id="DejaVuSans-2212"/><path d="M12.4 8.3h16.1v55.6L11 60.4v9l17.4 3.5h9.9V8.3h16V0H12.5z" id="DejaVuSans-31"/><path d="M37.8 64.3l-25-39h25zM35.2 73h12.4V25.4H58v-8.2H47.6V0h-9.8v17.2h-33v9.5z" id="DejaVuSans-34"/></defs><g transform="matrix(.11 0 0 -.11 62 248.5)" fill="#262626"><use xlink:href="#DejaVuSans-2212"/><use x="83.8" xlink:href="#DejaVuSans-31"/><use x="147.4" xlink:href="#DejaVuSans-34"/></g></g></g><g id="xtick_2"><path clip-path="url(#p53b60f1770)" d="M120.4 230.6V13.2" fill="none" stroke="#fff" stroke-linecap="round" id="line2d_2"/><g id="text_2"><defs><path d="M19.2 8.3h34.4V0H7.3v8.3l15.3 15.6q9.7 9.8 12.2 12.6 4.7 5.3 6.6 9 2 3.7 2 7.3 0 5.8-4.2 9.5-4 3.6-10.6 3.6-4.6 0-9.8-1.6-5.1-1.6-11-4.9v10q6 2.4 11.1 3.6 5.2 1.2 9.5 1.2 11.4 0 18-5.7 6.8-5.6 6.8-15 0-4.6-1.7-8.6-1.6-4-6-9.5l-7.9-8.2L19.2 8.3z" id="DejaVuSans-32"/></defs><g transform="matrix(.11 0 0 -.11 108.8 248.5)" fill="#262626"><use xlink:href="#DejaVuSans-2212"/><use x="83.8" xlink:href="#DejaVuSans-31"/><use x="147.4" xlink:href="#DejaVuSans-32"/></g></g></g><g id="xtick_3"><path clip-path="url(#p53b60f1770)" d="M167.2 230.6V13.2" fill="none" stroke="#fff" stroke-linecap="round" id="line2d_3"/><g id="text_3"><defs><path d="M31.8 66.4q-7.6 0-11.5-7.5-3.8-7.5-3.8-22.5t3.8-22.5q3.9-7.5 11.5-7.5 7.7 0 11.5 7.5T47 36.4q0 15-3.8 22.5t-11.5 7.5zm0 7.8q12.2 0 18.7-9.7T57 36.4Q57 18 50.5 8.3 44-1.4 31.8-1.4 19.5-1.4 13 8.3q-6.5 9.7-6.5 28 0 18.5 6.5 28.2 6.4 9.7 18.7 9.7z" id="DejaVuSans-30"/></defs><g transform="matrix(.11 0 0 -.11 155.6 248.5)" fill="#262626"><use xlink:href="#DejaVuSans-2212"/><use x="83.8" xlink:href="#DejaVuSans-31"/><use x="147.4" xlink:href="#DejaVuSans-30"/></g></g></g><g id="xtick_4"><path clip-path="url(#p53b60f1770)" d="M214 230.6V13.2" fill="none" stroke="#fff" stroke-linecap="round" id="line2d_4"/><g id="text_4"><defs><path d="M31.8 34.6q-7 0-11-3.7-4.1-3.8-4.1-10.4 0-6.6 4-10.3 4-3.8 11-3.8 7.1 0 11.2 3.8 4 3.8 4 10.3 0 6.6-4 10.4-4 3.7-11.1 3.7zm-9.9 4.2q-6.3 1.6-9.9 6Q8.5 49 8.5 55.2q0 8.8 6.2 13.8 6.3 5.1 17 5.1 11 0 17.2-5Q55 64 55 55.2q0-6.2-3.6-10.6-3.5-4.3-9.8-5.9 7.1-1.6 11.1-6.5 4-4.8 4-11.8 0-10.6-6.5-16.3-6.5-5.6-18.5-5.6T13.2 4.2Q6.8 10 6.8 20.5q0 7 4 11.8 4 4.9 11.1 6.5zm-3.6 15.6q0-5.7 3.5-8.8 3.6-3.2 10-3.2 6.3 0 10 3.2 3.5 3.1 3.5 8.8 0 5.7-3.6 8.8-3.6 3.2-10 3.2-6.3 0-9.9-3.2-3.5-3.1-3.5-8.8z" id="DejaVuSans-38"/></defs><g transform="matrix(.11 0 0 -.11 206 248.5)" fill="#262626"><use xlink:href="#DejaVuSans-2212"/><use x="83.8" xlink:href="#DejaVuSans-38"/></g></g></g><g id="xtick_5"><path clip-path="url(#p53b60f1770)" d="M260.8 230.6V13.2" fill="none" stroke="#fff" stroke-linecap="round" id="line2d_5"/><g id="text_5"><defs><path d="M33 40.4q-6.6 0-10.5-4.6-3.9-4.5-3.9-12.4T22.5 11Q26.4 6.4 33 6.4q6.7 0 10.5 4.6 4 4.5 4 12.4t-4 12.4q-3.8 4.6-10.5 4.6zm19.6 30.9v-9Q48.9 64.1 45 65q-3.8 1-7.5 1-9.8 0-15-6.7-5-6.6-5.8-19.9 2.9 4.3 7.2 6.5 4.4 2.3 9.6 2.3 11 0 17.4-6.7 6.3-6.6 6.3-18.1 0-11.2-6.6-18Q44-1.4 33-1.4q-12.6 0-19.3 9.7Q7 18 7 36.3 7 53.8 15.2 64q8.2 10.3 22 10.3 3.7 0 7.5-.7 3.8-.8 7.9-2.2z" id="DejaVuSans-36"/></defs><g transform="matrix(.11 0 0 -.11 252.7 248.5)" fill="#262626"><use xlink:href="#DejaVuSans-2212"/><use x="83.8" xlink:href="#DejaVuSans-36"/></g></g></g><g id="xtick_6"><path clip-path="url(#p53b60f1770)" d="M307.7 230.6V13.2" fill="none" stroke="#fff" stroke-linecap="round" id="line2d_6"/><g transform="matrix(.11 0 0 -.11 299.6 248.5)" fill="#262626" id="text_6"><use xlink:href="#DejaVuSans-2212"/><use x="83.8" xlink:href="#DejaVuSans-34"/></g></g><g id="xtick_7"><path clip-path="url(#p53b60f1770)" d="M354.5 230.6V13.2" fill="none" stroke="#fff" stroke-linecap="round" id="line2d_7"/><g transform="matrix(.11 0 0 -.11 346.4 248.5)" fill="#262626" id="text_7"><use xlink:href="#DejaVuSans-2212"/><use x="83.8" xlink:href="#DejaVuSans-32"/></g></g><g id="xtick_8"><path clip-path="url(#p53b60f1770)" d="M401.3 230.6V13.2" fill="none" stroke="#fff" stroke-linecap="round" id="line2d_8"/><use xlink:href="#DejaVuSans-30" transform="matrix(.11 0 0 -.11 397.8 248.5)" fill="#262626" id="text_8"/></g><g id="text_9"><defs><path d="M52 44.2q3.4 6 8 9Q64.9 56 71 56q8.6 0 13.3-6 4.6-6 4.6-17V0h-9v32.7q0 7.9-2.8 11.7-2.8 3.8-8.5 3.8-7 0-11-4.7-4-4.6-4-12.6V0h-9.1v32.7q0 8-2.8 11.7-2.8 3.8-8.6 3.8-6.9 0-11-4.7-4-4.6-4-12.6V0h-9v54.7h9v-8.5q3 5 7.4 7.4Q29.8 56 35.7 56q6 0 10.1-3 4.2-3 6.2-8.8z" id="DejaVuSans-6d"/><path d="M30.6 48.4q-7.2 0-11.4-5.6Q15 37 15 27.3t4.2-15.5q4.1-5.6 11.4-5.6 7.2 0 11.4 5.7 4.2 5.6 4.2 15.4 0 9.7-4.2 15.4-4.2 5.7-11.4 5.7zm0 7.6q11.7 0 18.4-7.6 6.7-7.6 6.7-21.1 0-13.4-6.7-21-6.7-7.7-18.4-7.7-11.8 0-18.4 7.6Q5.5 14 5.5 27.3q0 13.5 6.7 21Q18.8 56 30.6 56z" id="DejaVuSans-6f"/><path d="M54.9 33V0h-9v32.7q0 7.8-3 11.6-3 3.9-9.1 3.9-7.3 0-11.5-4.7Q18.1 39 18.1 31V0h-9v54.7h9v-8.5q3.2 5 7.6 7.4Q30.1 56 35.8 56q9.4 0 14.2-5.8Q55 44.3 55 33z" id="DejaVuSans-6e"/><path d="M18.3 70.2V54.7h18.5v-7H18.3V18q0-6.7 1.8-8.6 1.9-1.9 7.5-1.9h9.2V0h-9.2Q17.2 0 13.2 3.9T9.2 18v29.7H2.8v7h6.6v15.5z" id="DejaVuSans-74"/><path d="M54.9 33V0h-9v32.7q0 7.8-3 11.6-3 3.9-9.1 3.9-7.3 0-11.5-4.7Q18.1 39 18.1 31V0h-9v76h9V46.2q3.2 5 7.6 7.4Q30.1 56 35.8 56q9.4 0 14.2-5.8Q55 44.3 55 33z" id="DejaVuSans-68"/><path d="M51-16.6v-7H-1v7z" id="DejaVuSans-5f"/><path d="M9.4 76h9V0h-9z" id="DejaVuSans-6c"/><path d="M34.3 27.5q-11 0-15.1-2.5-4.2-2.5-4.2-8.5 0-4.8 3.1-7.6 3.2-2.8 8.6-2.8 7.5 0 12 5.3t4.5 14v2zm17.9 3.7V0h-9v8.3q-3-5-7.7-7.3Q31-1.4 24.3-1.4 16-1.4 11 3.3 6 8 6 15.9q0 9.2 6.2 14 6.2 4.6 18.4 4.6h12.6v1q0 6.1-4 9.5-4.1 3.4-11.5 3.4-4.7 0-9.2-1.1-4.4-1.2-8.5-3.4v8.3q5 2 9.6 2.8 4.6 1 9 1 11.9 0 17.7-6.2 5.9-6.1 5.9-18.6z" id="DejaVuSans-61"/><path d="M45.4 28q0 9.8-4 15.1-4 5.4-11.3 5.4-7.2 0-11.3-5.4-4-5.4-4-15.1t4-15.1q4-5.4 11.3-5.4 7.3 0 11.3 5.4 4 5.4 4 15zm9-21.2q0-14-6.2-20.8-6.2-6.8-19-6.8-4.7 0-9 .7-4.1.7-8 2.2v8.7q3.9-2.1 7.7-3.1 3.9-1 7.9-1 8.8 0 13.2 4.5 4.4 4.6 4.4 14v4.4q-2.8-4.8-7.1-7.2Q33.9 0 27.9 0q-10 0-16.2 7.7Q5.5 15.3 5.5 28q0 12.7 6.2 20.3Q17.8 56 27.9 56q6 0 10.4-2.4 4.3-2.4 7.1-7.2v8.3h9z" id="DejaVuSans-67"/></defs><g transform="matrix(.12 0 0 -.12 205.8 263.9)" fill="#262626"><use xlink:href="#DejaVuSans-6d"/><use x="97.4" xlink:href="#DejaVuSans-6f"/><use x="158.6" xlink:href="#DejaVuSans-6e"/><use x="222" xlink:href="#DejaVuSans-74"/><use x="261.2" xlink:href="#DejaVuSans-68"/><use x="324.6" xlink:href="#DejaVuSans-5f"/><use x="374.6" xlink:href="#DejaVuSans-6c"/><use x="402.3" xlink:href="#DejaVuSans-61"/><use x="463.6" xlink:href="#DejaVuSans-67"/></g></g></g><g id="matplotlib.axis_2"><g id="ytick_1"><path clip-path="url(#p53b60f1770)" d="M70 178h334.8" fill="none" stroke="#fff" stroke-linecap="round" id="line2d_9"/><g transform="matrix(.11 0 0 -.11 41.2 182.2)" fill="#262626" id="text_10"><use transform="translate(0 .8)" xlink:href="#DejaVuSans-31"/><use transform="translate(63.6 .8)" xlink:href="#DejaVuSans-30"/><use transform="matrix(.7 0 0 .7 128.2 39)" xlink:href="#DejaVuSans-36"/></g></g><g id="ytick_5"><g id="text_11"><defs><path d="M70.1 53.7L47.8 31.3 70.1 9l-5.8-6L42 25.6 19.5 3 13.7 9 36 31.3 13.7 53.7l5.8 6 22.4-22.5 22.4 22.4z" id="DejaVuSans-d7"/></defs><g transform="matrix(.11 0 0 -.11 22.8 102.6)" fill="#262626"><use transform="translate(0 .8)" xlink:href="#DejaVuSans-32"/><use transform="translate(83.1 .8)" xlink:href="#DejaVuSans-d7"/><use transform="translate(186.4 .8)" xlink:href="#DejaVuSans-31"/><use transform="translate(250 .8)" xlink:href="#DejaVuSans-30"/><use transform="matrix(.7 0 0 .7 314.6 39)" xlink:href="#DejaVuSans-36"/></g></g></g><g id="ytick_6"><g id="text_12"><defs><path d="M40.6 39.3q7-1.5 11-6.3t4-11.8q0-10.8-7.4-16.7-7.4-6-21.1-6-4.6 0-9.4 1-4.9.9-10 2.7v9.5q4-2.4 8.9-3.6Q21.5 7 26.8 7q9.3 0 14.1 3.6 4.9 3.7 4.9 10.7 0 6.4-4.5 10Q36.8 35 28.7 35h-8.5V43h9q7.2 0 11 3 3.9 2.8 3.9 8.3 0 5.6-4 8.6t-11.4 3q-4 0-8.7-.9-4.6-.8-10.2-2.7v8.8q5.6 1.6 10.5 2.3 5 .8 9.3.8 11.2 0 17.8-5 6.5-5.2 6.5-13.9 0-6-3.5-10.2-3.4-4.2-9.8-5.8z" id="DejaVuSans-33"/></defs><g transform="matrix(.11 0 0 -.11 22.8 56.1)" fill="#262626"><use transform="translate(0 .8)" xlink:href="#DejaVuSans-33"/><use transform="translate(83.1 .8)" xlink:href="#DejaVuSans-d7"/><use transform="translate(186.4 .8)" xlink:href="#DejaVuSans-31"/><use transform="translate(250 .8)" xlink:href="#DejaVuSans-30"/><use transform="matrix(.7 0 0 .7 314.6 39)" xlink:href="#DejaVuSans-36"/></g></g></g><g id="ytick_7"><g transform="matrix(.11 0 0 -.11 22.8 23)" fill="#262626" id="text_13"><use transform="translate(0 .8)" xlink:href="#DejaVuSans-34"/><use transform="translate(83.1 .8)" xlink:href="#DejaVuSans-d7"/><use transform="translate(186.4 .8)" xlink:href="#DejaVuSans-31"/><use transform="translate(250 .8)" xlink:href="#DejaVuSans-30"/><use transform="matrix(.7 0 0 .7 314.6 39)" xlink:href="#DejaVuSans-36"/></g></g><g id="text_14"><defs><path d="M64.4 67.3V56.9q-5 4.6-10.6 7Q48 66 41.8 66q-12.5 0-19.1-7.6Q16 50.8 16 36.4q0-14.4 6.7-22 6.6-7.7 19.1-7.7 6.3 0 12 2.3 5.6 2.3 10.6 7V5.5q-5.2-3.5-11-5.3-5.7-1.7-12.2-1.7-16.5 0-26 10.1-9.6 10.1-9.6 27.7T15.1 64q9.6 10.1 26.1 10.1 6.5 0 12.3-1.7 5.8-1.8 11-5.2z" id="DejaVuSans-43"/><path d="M8.5 21.6v33h9V22q0-7.7 3-11.6 3-4 9-4 7.4 0 11.6 4.7 4.2 4.7 4.2 12.7v31h9V0h-9v8.4Q42 3.4 37.7 1q-4.3-2.4-10-2.4-9.4 0-14.3 5.8-4.9 5.9-4.9 17.2zM31.1 56z" id="DejaVuSans-75"/></defs><g transform="matrix(0 -.12 -.12 0 16.3 139.7)" fill="#262626"><use xlink:href="#DejaVuSans-43"/><use x="69.8" xlink:href="#DejaVuSans-6f"/><use x="131" xlink:href="#DejaVuSans-75"/><use x="194.4" xlink:href="#DejaVuSans-6e"/><use x="257.8" xlink:href="#DejaVuSans-74"/></g></g></g><path clip-path="url(#p53b60f1770)" d="M85.3 266031.9h23.4V220.8H85.3z" fill="#4c72b0" stroke="#fff" id="patch_3"/><path clip-path="url(#p53b60f1770)" d="M108.7 266031.9H132V204.8h-23.4z" fill="#4c72b0" stroke="#fff" id="patch_4"/><path clip-path="url(#p53b60f1770)" d="M132 266031.9h23.5V177H132z" fill="#4c72b0" stroke="#fff" id="patch_5"/><path clip-path="url(#p53b60f1770)" d="M155.5 266031.9h23.4V168.7h-23.4z" fill="#4c72b0" stroke="#fff" id="patch_6"/><path clip-path="url(#p53b60f1770)" d="M178.9 266031.9h23.4V153.9H179z" fill="#4c72b0" stroke="#fff" id="patch_7"/><path clip-path="url(#p53b60f1770)" d="M202.3 266031.9h23.4V137h-23.4z" fill="#4c72b0" stroke="#fff" id="patch_8"/><path clip-path="url(#p53b60f1770)" d="M225.7 266031.9h23.4V112.5h-23.4z" fill="#4c72b0" stroke="#fff" id="patch_9"/><path clip-path="url(#p53b60f1770)" d="M249.1 266031.9h23.5V95.6H249z" fill="#4c72b0" stroke="#fff" id="patch_10"/><path clip-path="url(#p53b60f1770)" d="M272.6 266031.9H296V79.2h-23.4z" fill="#4c72b0" stroke="#fff" id="patch_11"/><path clip-path="url(#p53b60f1770)" d="M296 266031.9h23.4V66.6H296z" fill="#4c72b0" stroke="#fff" id="patch_12"/><path clip-path="url(#p53b60f1770)" d="M319.4 266031.9h23.4V48.3h-23.4z" fill="#4c72b0" stroke="#fff" id="patch_13"/><path clip-path="url(#p53b60f1770)" d="M342.8 266031.9h23.4V23h-23.4z" fill="#4c72b0" stroke="#fff" id="patch_14"/><path clip-path="url(#p53b60f1770)" d="M366.2 266031.9h23.4V30h-23.4z" fill="#4c72b0" stroke="#fff" id="patch_15"/><path d="M70 230.6V13.2" fill="none" stroke="#fff" stroke-linecap="square" stroke-width="1.3" id="patch_16"/><path d="M404.8 230.6V13.2" fill="none" stroke="#fff" stroke-linecap="square" stroke-width="1.3" id="patch_17"/><path d="M70 230.6h334.8" fill="none" stroke="#fff" stroke-linecap="square" stroke-width="1.3" id="patch_18"/><path d="M70 13.2h334.8" fill="none" stroke="#fff" stroke-linecap="square" stroke-width="1.3" id="patch_19"/></g></g><defs><clipPath id="p53b60f1770"><path d="M70 13.2h334.8v217.4H70z"/></clipPath></defs></svg>