<svg height="377" viewBox="0 0 415.3 282.7" width="553.7" xmlns="http://www.w3.org/2000/svg" xmlns:xlink="http://www.w3.org/1999/xlink"><defs><style>*{stroke-linecap:butt;stroke-linejoin:round}</style></defs><g id="figure_1"><path d="M0 282.7h415.3V0H0z" fill="none" id="patch_1"/><g id="axes_1"><path d="M67.3 239.8h334.8V22.3H67.3z" fill="#eaeaf2" id="patch_2"/><g id="matplotlib.axis_1"><g id="xtick_1"><path clip-path="url(#p5ab3eef455)" d="M101.7 239.8V22.3" fill="none" stroke="#fff" stroke-linecap="round" id="line2d_1"/><g id="text_1"><defs><path d="M10.6 35.5h62.6v-8.3H10.6z" id="DejaVuSans-2212"/><path d="M40.6 39.3q7-1.5 11-6.3t4-11.8q0-10.8-7.4-16.7-7.4-6-21.1-6-4.6 0-9.4 1-4.9.9-10 2.7v9.5q4-2.4 8.9-3.6Q21.5 7 26.8 7q9.3 0 14.1 3.6 4.9 3.7 4.9 10.7 0 6.4-4.5 10Q36.8 35 28.7 35h-8.5V43h9q7.2 0 11 3 3.9 2.8 3.9 8.3 0 5.6-4 8.6t-11.4 3q-4 0-8.7-.9-4.6-.8-10.2-2.7v8.8q5.6 1.6 10.5 2.3 5 .8 9.3.8 11.2 0 17.8-5 6.5-5.2 6.5-13.9 0-6-3.5-10.2-3.4-4.2-9.8-5.8z" id="DejaVuSans-33"/><path d="M31.8 66.4q-7.6 0-11.5-7.5-3.8-7.5-3.8-22.5t3.8-22.5q3.9-7.5 11.5-7.5 7.7 0 11.5 7.5T47 36.4q0 15-3.8 22.5t-11.5 7.5zm0 7.8q12.2 0 18.7-9.7T57 36.4Q57 18 50.5 8.3 44-1.4 31.8-1.4 19.5-1.4 13 8.3q-6.5 9.7-6.5 28 0 18.5 6.5 28.2 6.4 9.7 18.7 9.7z" id="DejaVuSans-30"/></defs><g transform="matrix(.11 0 0 -.11 90 257.6)" fill="#262626"><use xlink:href="#DejaVuSans-2212"/><use x="83.8" xlink:href="#DejaVuSans-33"/><use x="147.4" xlink:href="#DejaVuSans-30"/></g></g></g><g id="xtick_2"><path clip-path="url(#p5ab3eef455)" d="M161.1 239.8V22.3" fill="none" stroke="#fff" stroke-linecap="round" id="line2d_2"/><g id="text_2"><defs><path d="M19.2 8.3h34.4V0H7.3v8.3l15.3 15.6q9.7 9.8 12.2 12.6 4.7 5.3 6.6 9 2 3.7 2 7.3 0 5.8-4.2 9.5-4 3.6-10.6 3.6-4.6 0-9.8-1.6-5.1-1.6-11-4.9v10q6 2.4 11.1 3.6 5.2 1.2 9.5 1.2 11.4 0 18-5.7 6.8-5.6 6.8-15 0-4.6-1.7-8.6-1.6-4-6-9.5l-7.9-8.2L19.2 8.3z" id="DejaVuSans-32"/></defs><g transform="matrix(.11 0 0 -.11 149.5 257.6)" fill="#262626"><use xlink:href="#DejaVuSans-2212"/><use x="83.8" xlink:href="#DejaVuSans-32"/><use x="147.4" xlink:href="#DejaVuSans-30"/></g></g></g><g id="xtick_3"><path clip-path="url(#p5ab3eef455)" d="M220.6 239.8V22.3" fill="none" stroke="#fff" stroke-linecap="round" id="line2d_3"/><g id="text_3"><defs><path d="M12.4 8.3h16.1v55.6L11 60.4v9l17.4 3.5h9.9V8.3h16V0H12.5z" id="DejaVuSans-31"/></defs><g transform="matrix(.11 0 0 -.11 209 257.6)" fill="#262626"><use xlink:href="#DejaVuSans-2212"/><use x="83.8" xlink:href="#DejaVuSans-31"/><use x="147.4" xlink:href="#DejaVuSans-30"/></g></g></g><g id="xtick_4"><path clip-path="url(#p5ab3eef455)" d="M280 239.8V22.3" fill="none" stroke="#fff" stroke-linecap="round" id="line2d_4"/><use xlink:href="#DejaVuSans-30" transform="matrix(.11 0 0 -.11 276.6 257.6)" fill="#262626" id="text_4"/></g><g id="xtick_5"><path clip-path="url(#p5ab3eef455)" d="M339.5 239.8V22.3" fill="none" stroke="#fff" stroke-linecap="round" id="line2d_5"/><g transform="matrix(.11 0 0 -.11 332.5 257.6)" fill="#262626" id="text_5"><use xlink:href="#DejaVuSans-31"/><use x="63.6" xlink:href="#DejaVuSans-30"/></g></g><g id="xtick_6"><path clip-path="url(#p5ab3eef455)" d="M399 239.8V22.3" fill="none" stroke="#fff" stroke-linecap="round" id="line2d_6"/><g transform="matrix(.11 0 0 -.11 392 257.6)" fill="#262626" id="text_6"><use xlink:href="#DejaVuSans-32"/><use x="63.6" xlink:href="#DejaVuSans-30"/></g></g><g id="text_7"><defs><path d="M9.8 73h9.9V8.2h35.5V0H9.8z" id="DejaVuSans-4c"/><path d="M30.6 48.4q-7.2 0-11.4-5.6Q15 37 15 27.3t4.2-15.5q4.1-5.6 11.4-5.6 7.2 0 11.4 5.7 4.2 5.6 4.2 15.4 0 9.7-4.2 15.4-4.2 5.7-11.4 5.7zm0 7.6q11.7 0 18.4-7.6 6.7-7.6 6.7-21.1 0-13.4-6.7-21-6.7-7.7-18.4-7.7-11.8 0-18.4 7.6Q5.5 14 5.5 27.3q0 13.5 6.7 21Q18.8 56 30.6 56z" id="DejaVuSans-6f"/><path d="M32.2-5q-3.8-9.8-7.5-12.8-3.6-3-9.6-3H7.9v7.5h5.3q3.7 0 5.7 1.8 2.1 1.7 4.6 8.3l1.6 4L3 54.8h9.5l17-42.8 17.2 42.8h9.5z" id="DejaVuSans-79"/><path d="M34.3 27.5q-11 0-15.1-2.5-4.2-2.5-4.2-8.5 0-4.8 3.1-7.6 3.2-2.8 8.6-2.8 7.5 0 12 5.3t4.5 14v2zm17.9 3.7V0h-9v8.3q-3-5-7.7-7.3Q31-1.4 24.3-1.4 16-1.4 11 3.3 6 8 6 15.9q0 9.2 6.2 14 6.2 4.6 18.4 4.6h12.6v1q0 6.1-4 9.5-4.1 3.4-11.5 3.4-4.7 0-9.2-1.1-4.4-1.2-8.5-3.4v8.3q5 2 9.6 2.8 4.6 1 9 1 11.9 0 17.7-6.2 5.9-6.1 5.9-18.6z" id="DejaVuSans-61"/><path d="M9.4 76h9V0h-9z" id="DejaVuSans-6c"/><path d="M18.3 70.2V54.7h18.5v-7H18.3V18q0-6.7 1.8-8.6 1.9-1.9 7.5-1.9h9.2V0h-9.2Q17.2 0 13.2 3.9T9.2 18v29.7H2.8v7h6.6v15.5z" id="DejaVuSans-74"/><path d="M44.3 53v-8.4q-3.8 2-8 2.9-4 1-8.4 1-6.7 0-10-2-3.4-2.1-3.4-6.2 0-3.1 2.4-5 2.4-1.7 9.6-3.3l3-.7q9.7-2 13.7-5.8 4-3.7 4-10.4 0-7.6-6-12-6-4.5-16.6-4.5-4.4 0-9.1.8-4.8.9-10 2.6v9.3q5-2.6 9.7-4 4.9-1.2 9.6-1.2 6.4 0 9.8 2.2 3.4 2.2 3.4 6.1 0 3.7-2.5 5.6-2.4 2-10.8 3.8l-3.1.7q-8.4 1.8-12 5.4-3.8 3.6-3.8 10 0 7.7 5.5 11.9Q16.7 56 26.8 56q5 0 9.4-.7 4.4-.8 8-2.2z" id="DejaVuSans-73"/><path d="M48.8 52.6v-8.4Q45 46.3 41 47.3q-3.8 1-7.7 1-8.7 0-13.6-5.5Q15 37.3 15 27.3t4.8-15.6q4.9-5.5 13.6-5.5 4 0 7.7 1 3.9 1.1 7.7 3.2V2.1Q45 .3 41-.5q-4-1-8.6-1-12.3 0-19.6 7.8-7.3 7.8-7.3 21 0 13.4 7.4 21Q20.2 56 33 56q4.2 0 8.1-.9 4-.8 7.7-2.5z" id="DejaVuSans-63"/><path d="M41.1 46.3q-1.5.9-3.3 1.3-1.8.4-4 .4-7.5 0-11.6-5-4-5-4-14.2V0H9v54.7h9v-8.5q2.9 5 7.4 7.4Q30 56 36.5 56l2-.1 2.6-.4z" id="DejaVuSans-72"/><path d="M56.2 29.6v-4.4H14.9q.6-9.3 5.6-14.1 5-4.9 14-4.9 5 0 10 1.3 4.8 1.2 9.6 3.8V2.8q-4.8-2-10-3.1-5-1.1-10.2-1.1-13.1 0-20.7 7.6-7.7 7.6-7.7 20.6 0 13.4 7.3 21.3Q20 56 32.3 56q11 0 17.5-7.1 6.4-7.1 6.4-19.3zm-9 2.6q0 7.4-4.1 11.8-4 4.4-10.7 4.4-7.5 0-12-4.3-4.5-4.2-5.2-12z" id="DejaVuSans-65"/></defs><g transform="matrix(.12 0 0 -.12 194.7 273)" fill="#262626"><use xlink:href="#DejaVuSans-4c"/><use x="55.7" xlink:href="#DejaVuSans-6f"/><use x="116.9" xlink:href="#DejaVuSans-79"/><use x="176.1" xlink:href="#DejaVuSans-61"/><use x="237.3" xlink:href="#DejaVuSans-6c"/><use x="265.1" xlink:href="#DejaVuSans-74"/><use x="304.3" xlink:href="#DejaVuSans-79"/><use x="363.5" xlink:href="#DejaVuSans-20"/><use x="395.3" xlink:href="#DejaVuSans-73"/><use x="447.4" xlink:href="#DejaVuSans-63"/><use x="502.4" xlink:href="#DejaVuSans-6f"/><use x="563.6" xlink:href="#DejaVuSans-72"/><use x="604.6" xlink:href="#DejaVuSans-65"/></g></g></g><g id="matplotlib.axis_2"><g id="ytick_1"><path clip-path="url(#p5ab3eef455)" d="M67.3 239.8h334.8" fill="none" stroke="#fff" stroke-linecap="round" id="line2d_7"/><use xlink:href="#DejaVuSans-30" transform="matrix(.11 0 0 -.11 50.8 244)" fill="#262626" id="text_8"/></g><g id="ytick_2"><path clip-path="url(#p5ab3eef455)" d="M67.3 210h334.8" fill="none" stroke="#fff" stroke-linecap="round" id="line2d_8"/><g transform="matrix(.11 0 0 -.11 22.8 214.2)" fill="#262626" id="text_9"><use xlink:href="#DejaVuSans-31"/><use x="63.6" xlink:href="#DejaVuSans-30"/><use x="127.2" xlink:href="#DejaVuSans-30"/><use x="190.9" xlink:href="#DejaVuSans-30"/><use x="254.5" xlink:href="#DejaVuSans-30"/></g></g><g id="ytick_3"><path clip-path="url(#p5ab3eef455)" d="M67.3 180.3h334.8" fill="none" stroke="#fff" stroke-linecap="round" id="line2d_9"/><g transform="matrix(.11 0 0 -.11 22.8 184.5)" fill="#262626" id="text_10"><use xlink:href="#DejaVuSans-32"/><use x="63.6" xlink:href="#DejaVuSans-30"/><use x="127.2" xlink:href="#DejaVuSans-30"/><use x="190.9" xlink:href="#DejaVuSans-30"/><use x="254.5" xlink:href="#DejaVuSans-30"/></g></g><g id="ytick_4"><path clip-path="url(#p5ab3eef455)" d="M67.3 150.6h334.8" fill="none" stroke="#fff" stroke-linecap="round" id="line2d_10"/><g transform="matrix(.11 0 0 -.11 22.8 154.8)" fill="#262626" id="text_11"><use xlink:href="#DejaVuSans-33"/><use x="63.6" xlink:href="#DejaVuSans-30"/><use x="127.2" xlink:href="#DejaVuSans-30"/><use x="190.9" xlink:href="#DejaVuSans-30"/><use x="254.5" xlink:href="#DejaVuSans-30"/></g></g><g id="ytick_5"><path clip-path="url(#p5ab3eef455)" d="M67.3 121h334.8" fill="none" stroke="#fff" stroke-linecap="round" id="line2d_11"/><g id="text_12"><defs><path d="M37.8 64.3l-25-39h25zM35.2 73h12.4V25.4H58v-8.2H47.6V0h-9.8v17.2h-33v9.5z" id="DejaVuSans-34"/></defs><g transform="matrix(.11 0 0 -.11 22.8 125.1)" fill="#262626"><use xlink:href="#DejaVuSans-34"/><use x="63.6" xlink:href="#DejaVuSans-30"/><use x="127.2" xlink:href="#DejaVuSans-30"/><use x="190.9" xlink:href="#DejaVuSans-30"/><use x="254.5" xlink:href="#DejaVuSans-30"/></g></g></g><g id="ytick_6"><path clip-path="url(#p5ab3eef455)" d="M67.3 91.2h334.8" fill="none" stroke="#fff" stroke-linecap="round" id="line2d_12"/><g id="text_13"><defs><path d="M10.8 73h38.7v-8.4H19.8V46.7q2.2.8 4.3 1.1 2.2.4 4.3.4 12.2 0 19.4-6.7 7-6.7 7-18.1 0-11.8-7.2-18.3-7.4-6.5-20.7-6.5-4.6 0-9.4.8-4.7.7-9.8 2.3v10q4.4-2.5 9.1-3.6 4.7-1.2 9.9-1.2 8.5 0 13.4 4.4 5 4.5 5 12 0 7.7-5 12.1Q35 40 26.7 40q-4 0-7.9-.9-4-.9-8-2.7z" id="DejaVuSans-35"/></defs><g transform="matrix(.11 0 0 -.11 22.8 95.4)" fill="#262626"><use xlink:href="#DejaVuSans-35"/><use x="63.6" xlink:href="#DejaVuSans-30"/><use x="127.2" xlink:href="#DejaVuSans-30"/><use x="190.9" xlink:href="#DejaVuSans-30"/><use x="254.5" xlink:href="#DejaVuSans-30"/></g></g></g><g id="ytick_7"><path clip-path="url(#p5ab3eef455)" d="M67.3 61.5h334.8" fill="none" stroke="#fff" stroke-linecap="round" id="line2d_13"/><g id="text_14"><defs><path d="M33 40.4q-6.6 0-10.5-4.6-3.9-4.5-3.9-12.4T22.5 11Q26.4 6.4 33 6.4q6.7 0 10.5 4.6 4 4.5 4 12.4t-4 12.4q-3.8 4.6-10.5 4.6zm19.6 30.9v-9Q48.9 64.1 45 65q-3.8 1-7.5 1-9.8 0-15-6.7-5-6.6-5.8-19.9 2.9 4.3 7.2 6.5 4.4 2.3 9.6 2.3 11 0 17.4-6.7 6.3-6.6 6.3-18.1 0-11.2-6.6-18Q44-1.4 33-1.4q-12.6 0-19.3 9.7Q7 18 7 36.3 7 53.8 15.2 64q8.2 10.3 22 10.3 3.7 0 7.5-.7 3.8-.8 7.9-2.2z" id="DejaVuSans-36"/></defs><g transform="matrix(.11 0 0 -.11 22.8 65.7)" fill="#262626"><use xlink:href="#DejaVuSans-36"/><use x="63.6" xlink:href="#DejaVuSans-30"/><use x="127.2" xlink:href="#DejaVuSans-30"/><use x="190.9" xlink:href="#DejaVuSans-30"/><use x="254.5" xlink:href="#DejaVuSans-30"/></g></g></g><g id="ytick_8"><path clip-path="url(#p5ab3eef455)" d="M67.3 31.8h334.8" fill="none" stroke="#fff" stroke-linecap="round" id="line2d_14"/><g id="text_15"><defs><path d="M8.2 73h46.9v-4.3L28.6 0H18.3l25 64.6H8.1z" id="DejaVuSans-37"/></defs><g transform="matrix(.11 0 0 -.11 22.8 36)" fill="#262626"><use xlink:href="#DejaVuSans-37"/><use x="63.6" xlink:href="#DejaVuSans-30"/><use x="127.2" xlink:href="#DejaVuSans-30"/><use x="190.9" xlink:href="#DejaVuSans-30"/><use x="254.5" xlink:href="#DejaVuSans-30"/></g></g></g><g id="text_16"><defs><path d="M9.8 73h13.3l32.3-61v61H65V0H51.7L19.4 61V0H9.8z" id="DejaVuSans-4e"/><path d="M8.5 21.6v33h9V22q0-7.7 3-11.6 3-4 9-4 7.4 0 11.6 4.7 4.2 4.7 4.2 12.7v31h9V0h-9v8.4Q42 3.4 37.7 1q-4.3-2.4-10-2.4-9.4 0-14.3 5.8-4.9 5.9-4.9 17.2zM31.1 56z" id="DejaVuSans-75"/><path d="M52 44.2q3.4 6 8 9Q64.9 56 71 56q8.6 0 13.3-6 4.6-6 4.6-17V0h-9v32.7q0 7.9-2.8 11.7-2.8 3.8-8.5 3.8-7 0-11-4.7-4-4.6-4-12.6V0h-9.1v32.7q0 8-2.8 11.7-2.8 3.8-8.6 3.8-6.9 0-11-4.7-4-4.6-4-12.6V0h-9v54.7h9v-8.5q3 5 7.4 7.4Q29.8 56 35.7 56q6 0 10.1-3 4.2-3 6.2-8.8z" id="DejaVuSans-6d"/><path d="M48.7 27.3q0 9.9-4 15.5-4.2 5.7-11.3 5.7-7.1 0-11.2-5.7-4-5.6-4-15.5 0-10 4-15.6t11.2-5.6q7.1 0 11.2 5.7 4 5.6 4 15.5zM18 46.3q2.9 5 7.2 7.3Q29.6 56 35.6 56q10 0 16.2-8Q58 40.3 58 27.4q0-12.9-6.2-20.8-6.2-8-16.2-8-6 0-10.3 2.5Q21 3.3 18 8.2V0h-9v76h9z" id="DejaVuSans-62"/><path d="M37.1 76v-7.5h-8.6q-4.8 0-6.7-2-1.9-2-1.9-7v-4.8h14.8v-7H20V0h-9v47.7H2.3v7h8.6v3.8q0 9.1 4.2 13.3Q19.4 76 28.6 76z" id="DejaVuSans-66"/><path d="M45.4 46.4V76h9V0h-9v8.2Q42.6 3.3 38.3 1q-4.4-2.4-10.4-2.4-10 0-16.2 7.9-6.2 8-6.2 20.8 0 12.9 6.2 20.8Q18 56 28 56q6 0 10.4-2.4 4.3-2.3 7.1-7.2zM14.8 27.3q0-10 4-15.6Q23 6.2 30.2 6.2q7.1 0 11.2 5.7 4.1 5.6 4.1 15.5t-4.1 15.5q-4.1 5.7-11.2 5.7t-11.2-5.7q-4.1-5.6-4.1-15.5z" id="DejaVuSans-64"/></defs><g transform="matrix(0 -.12 -.12 0 16.3 181.1)" fill="#262626"><use xlink:href="#DejaVuSans-4e"/><use x="74.8" xlink:href="#DejaVuSans-75"/><use x="138.2" xlink:href="#DejaVuSans-6d"/><use x="235.6" xlink:href="#DejaVuSans-62"/><use x="299.1" xlink:href="#DejaVuSans-65"/><use x="360.6" xlink:href="#DejaVuSans-72"/><use x="401.7" xlink:href="#DejaVuSans-20"/><use x="433.5" xlink:href="#DejaVuSans-6f"/><use x="494.7" xlink:href="#DejaVuSans-66"/><use x="529.9" xlink:href="#DejaVuSans-20"/><use x="561.7" xlink:href="#DejaVuSans-63"/><use x="616.7" xlink:href="#DejaVuSans-61"/><use x="677.9" xlink:href="#DejaVuSans-72"/><use x="719" xlink:href="#DejaVuSans-64"/><use x="782.5" xlink:href="#DejaVuSans-73"/></g></g></g><path clip-path="url(#p5ab3eef455)" d="M82.5 239.8h6.1v-6.6h-6z" fill="#4c72b0" stroke="#fff" id="patch_3"/><path clip-path="url(#p5ab3eef455)" d="M88.6 239.8h6.1-6z" fill="#4c72b0" stroke="#fff" id="patch_4"/><path clip-path="url(#p5ab3eef455)" d="M94.7 239.8h6-6z" fill="#4c72b0" stroke="#fff" id="patch_5"/><path clip-path="url(#p5ab3eef455)" d="M100.8 239.8h6-6z" fill="#4c72b0" stroke="#fff" id="patch_6"/><path clip-path="url(#p5ab3eef455)" d="M106.9 239.8h6-6z" fill="#4c72b0" stroke="#fff" id="patch_7"/><path clip-path="url(#p5ab3eef455)" d="M113 239.8h6-6z" fill="#4c72b0" stroke="#fff" id="patch_8"/><path clip-path="url(#p5ab3eef455)" d="M119 239.8h6.1-6z" fill="#4c72b0" stroke="#fff" id="patch_9"/><path clip-path="url(#p5ab3eef455)" d="M125.1 239.8h6.1-6z" fill="#4c72b0" stroke="#fff" id="patch_10"/><path clip-path="url(#p5ab3eef455)" d="M131.2 239.8h6.1-6z" fill="#4c72b0" stroke="#fff" id="patch_11"/><path clip-path="url(#p5ab3eef455)" d="M137.3 239.8h6.1-6z" fill="#4c72b0" stroke="#fff" id="patch_12"/><path clip-path="url(#p5ab3eef455)" d="M143.4 239.8h6-6z" fill="#4c72b0" stroke="#fff" id="patch_13"/><path clip-path="url(#p5ab3eef455)" d="M149.5 239.8h6-6z" fill="#4c72b0" stroke="#fff" id="patch_14"/><path clip-path="url(#p5ab3eef455)" d="M155.6 239.8h6-6z" fill="#4c72b0" stroke="#fff" id="patch_15"/><path clip-path="url(#p5ab3eef455)" d="M161.7 239.8h6-6z" fill="#4c72b0" stroke="#fff" id="patch_16"/><path clip-path="url(#p5ab3eef455)" d="M167.7 239.8h6.1-6z" fill="#4c72b0" stroke="#fff" id="patch_17"/><path clip-path="url(#p5ab3eef455)" d="M173.8 239.8h6.1-6z" fill="#4c72b0" stroke="#fff" id="patch_18"/><path clip-path="url(#p5ab3eef455)" d="M180 239.8h6-6z" fill="#4c72b0" stroke="#fff" id="patch_19"/><path clip-path="url(#p5ab3eef455)" d="M186 239.8h6.1-6z" fill="#4c72b0" stroke="#fff" id="patch_20"/><path clip-path="url(#p5ab3eef455)" d="M192.1 239.8h6-6z" fill="#4c72b0" stroke="#fff" id="patch_21"/><path clip-path="url(#p5ab3eef455)" d="M198.2 239.8h6-6z" fill="#4c72b0" stroke="#fff" id="patch_22"/><path clip-path="url(#p5ab3eef455)" d="M204.3 239.8h6-6z" fill="#4c72b0" stroke="#fff" id="patch_23"/><path clip-path="url(#p5ab3eef455)" d="M210.4 239.8h6-6z" fill="#4c72b0" stroke="#fff" id="patch_24"/><path clip-path="url(#p5ab3eef455)" d="M216.4 239.8h6.1v-.1h-6z" fill="#4c72b0" stroke="#fff" id="patch_25"/><path clip-path="url(#p5ab3eef455)" d="M222.5 239.8h6.1v-.2h-6z" fill="#4c72b0" stroke="#fff" id="patch_26"/><path clip-path="url(#p5ab3eef455)" d="M228.6 239.8h6.1v-.4h-6z" fill="#4c72b0" stroke="#fff" id="patch_27"/><path clip-path="url(#p5ab3eef455)" d="M234.7 239.8h6v-.8h-6z" fill="#4c72b0" stroke="#fff" id="patch_28"/><path clip-path="url(#p5ab3eef455)" d="M240.8 239.8h6v-2h-6z" fill="#4c72b0" stroke="#fff" id="patch_29"/><path clip-path="url(#p5ab3eef455)" d="M246.9 239.8h6v-4.5h-6z" fill="#4c72b0" stroke="#fff" id="patch_30"/><path clip-path="url(#p5ab3eef455)" d="M253 239.8h6v-9.1h-6z" fill="#4c72b0" stroke="#fff" id="patch_31"/><path clip-path="url(#p5ab3eef455)" d="M259 239.8h6.1v-20h-6z" fill="#4c72b0" stroke="#fff" id="patch_32"/><path clip-path="url(#p5ab3eef455)" d="M265.1 239.8h6.1v-47.9h-6z" fill="#4c72b0" stroke="#fff" id="patch_33"/><path clip-path="url(#p5ab3eef455)" d="M271.2 239.8h6.1V118.7h-6z" fill="#4c72b0" stroke="#fff" id="patch_34"/><path clip-path="url(#p5ab3eef455)" d="M277.3 239.8h6.1V32.7h-6z" fill="#4c72b0" stroke="#fff" id="patch_35"/><path clip-path="url(#p5ab3eef455)" d="M283.4 239.8h6v-107h-6z" fill="#4c72b0" stroke="#fff" id="patch_36"/><path clip-path="url(#p5ab3eef455)" d="M289.5 239.8h6v-41h-6z" fill="#4c72b0" stroke="#fff" id="patch_37"/><path clip-path="url(#p5ab3eef455)" d="M295.6 239.8h6V222h-6z" fill="#4c72b0" stroke="#fff" id="patch_38"/><path clip-path="url(#p5ab3eef455)" d="M301.7 239.8h6v-7.9h-6z" fill="#4c72b0" stroke="#fff" id="patch_39"/><path clip-path="url(#p5ab3eef455)" d="M307.8 239.8h6V236h-6z" fill="#4c72b0" stroke="#fff" id="patch_40"/><path clip-path="url(#p5ab3eef455)" d="M313.8 239.8h6.1V238h-6z" fill="#4c72b0" stroke="#fff" id="patch_41"/><path clip-path="url(#p5ab3eef455)" d="M320 239.8h6v-.8h-6z" fill="#4c72b0" stroke="#fff" id="patch_42"/><path clip-path="url(#p5ab3eef455)" d="M326 239.8h6.1v-.3h-6z" fill="#4c72b0" stroke="#fff" id="patch_43"/><path clip-path="url(#p5ab3eef455)" d="M332.1 239.8h6v-.2h-6z" fill="#4c72b0" stroke="#fff" id="patch_44"/><path clip-path="url(#p5ab3eef455)" d="M338.2 239.8h6v-.1h-6z" fill="#4c72b0" stroke="#fff" id="patch_45"/><path clip-path="url(#p5ab3eef455)" d="M344.3 239.8h6-6z" fill="#4c72b0" stroke="#fff" id="patch_46"/><path clip-path="url(#p5ab3eef455)" d="M350.4 239.8h6-6z" fill="#4c72b0" stroke="#fff" id="patch_47"/><path clip-path="url(#p5ab3eef455)" d="M356.5 239.8h6-6z" fill="#4c72b0" stroke="#fff" id="patch_48"/><path clip-path="url(#p5ab3eef455)" d="M362.5 239.8h6.1-6z" fill="#4c72b0" stroke="#fff" id="patch_49"/><path clip-path="url(#p5ab3eef455)" d="M368.6 239.8h6.1-6z" fill="#4c72b0" stroke="#fff" id="patch_50"/><path clip-path="url(#p5ab3eef455)" d="M374.7 239.8h6.1-6z" fill="#4c72b0" stroke="#fff" id="patch_51"/><path clip-path="url(#p5ab3eef455)" d="M380.8 239.8h6-6z" fill="#4c72b0" stroke="#fff" id="patch_52"/><path d="M67.3 239.8V22.3" fill="none" stroke="#fff" stroke-linecap="square" stroke-width="1.3" id="patch_53"/><path d="M402.1 239.8V22.3" fill="none" stroke="#fff" stroke-linecap="square" stroke-width="1.3" id="patch_54"/><path d="M67.3 239.8h334.8" fill="none" stroke="#fff" stroke-linecap="square" stroke-width="1.3" id="patch_55"/><path d="M67.3 22.3h334.8" fill="none" stroke="#fff" stroke-linecap="square" stroke-width="1.3" id="patch_56"/><g id="text_17"><defs><path d="M53.5 70.5V61q-5.6 2.7-10.6 4-5 1.3-9.6 1.3-8 0-12.4-3.1t-4.4-8.9q0-4.8 3-7.3 2.8-2.5 11-4l5.9-1.2q11-2.1 16.3-7.4 5.2-5.3 5.2-14.2 0-10.6-7.1-16Q43.7-1.5 30-1.5q-5.2 0-11 1.1Q13 1 6.9 3.3v10.2q6-3.4 11.8-5.1Q24.4 6.6 30 6.6q8.4 0 13 3.3t4.6 9.5q0 5.4-3.3 8.4t-10.8 4.5l-6 1.2q-11 2.2-16 6.9t-5 13q0 9.7 7 15.3 6.7 5.5 18.7 5.5 5.1 0 10.4-1 5.4-.8 11-2.7z" id="DejaVuSans-53"/><path d="M19.7 64.8V8.1h11.9q15 0 22 6.8 7 6.9 7 21.6 0 14.7-7 21.5-7 6.8-22 6.8zm-9.9 8.1h20.3q21.2 0 31-8.8 10-8.8 10-27.6T61 8.8Q51.1 0 30.1 0H9.8z" id="DejaVuSans-44"/><path d="M9.4 54.7h9V0h-9zm0 21.3h9V64.6h-9z" id="DejaVuSans-69"/><path d="M54.9 33V0h-9v32.7q0 7.8-3 11.6-3 3.9-9.1 3.9-7.3 0-11.5-4.7Q18.1 39 18.1 31V0h-9v54.7h9v-8.5q3.2 5 7.6 7.4Q30.1 56 35.8 56q9.4 0 14.2-5.8Q55 44.3 55 33z" id="DejaVuSans-6e"/></defs><g transform="matrix(.12 0 0 -.12 157.1 16.3)" fill="#262626"><use xlink:href="#DejaVuSans-4c"/><use x="55.7" xlink:href="#DejaVuSans-6f"/><use x="116.9" xlink:href="#DejaVuSans-79"/><use x="176.1" xlink:href="#DejaVuSans-61"/><use x="237.3" xlink:href="#DejaVuSans-6c"/><use x="265.1" xlink:href="#DejaVuSans-74"/><use x="304.3" xlink:href="#DejaVuSans-79"/><use x="363.5" xlink:href="#DejaVuSans-20"/><use x="395.3" xlink:href="#DejaVuSans-53"/><use x="458.8" xlink:href="#DejaVuSans-63"/><use x="513.8" xlink:href="#DejaVuSans-6f"/><use x="574.9" xlink:href="#DejaVuSans-72"/><use x="616" xlink:href="#DejaVuSans-65"/><use x="677.5" xlink:href="#DejaVuSans-20"/><use x="709.3" xlink:href="#DejaVuSans-44"/><use x="786.3" xlink:href="#DejaVuSans-69"/><use x="814.1" xlink:href="#DejaVuSans-73"/><use x="866.2" xlink:href="#DejaVuSans-74"/><use x="905.4" xlink:href="#DejaVuSans-72"/><use x="946.5" xlink:href="#DejaVuSans-69"/><use x="974.3" xlink:href="#DejaVuSans-62"/><use x="1037.8" xlink:href="#DejaVuSans-75"/><use x="1101.2" xlink:href="#DejaVuSans-74"/><use x="1140.4" xlink:href="#DejaVuSans-69"/><use x="1168.2" xlink:href="#DejaVuSans-6f"/><use x="1229.3" xlink:href="#DejaVuSans-6e"/></g></g></g></g><defs><clipPath id="p5ab3eef455"><path d="M67.3 22.3h334.8v217.4H67.3z"/></clipPath></defs></svg>