<?xml version="1.0" encoding="utf-8" standalone="no"?>
<!DOCTYPE svg PUBLIC "-//W3C//DTD SVG 1.1//EN"
  "http://www.w3.org/Graphics/SVG/1.1/DTD/svg11.dtd">
<!-- Created with matplotlib (http://matplotlib.org/) -->
<svg height="291pt" version="1.1" viewBox="0 0 411 291" width="411pt" xmlns="http://www.w3.org/2000/svg" xmlns:xlink="http://www.w3.org/1999/xlink">
 <defs>
  <style type="text/css">
*{stroke-linecap:butt;stroke-linejoin:round;}
  </style>
 </defs>
 <g id="figure_1">
  <g id="patch_1">
   <path d="M 0 291.719562 
L 411.980312 291.719562 
L 411.980312 0 
L 0 0 
z
" style="fill:#ffffff;"/>
  </g>
  <g id="axes_1">
   <g id="patch_2">
    <path d="M 69.980313 253.1955 
L 404.780313 253.1955 
L 404.780313 35.7555 
L 69.980313 35.7555 
z
" style="fill:#eaeaf2;"/>
   </g>
   <g id="matplotlib.axis_1">
    <g id="xtick_1">
     <g id="line2d_1">
      <path clip-path="url(#p7b9a353ca0)" d="M 69.980313 253.1955 
L 69.980313 35.7555 
" style="fill:none;stroke:#ffffff;stroke-linecap:round;"/>
     </g>
     <g id="line2d_2"/>
     <g id="text_1">
      <!-- 0 -->
      <defs>
       <path d="M 31.78125 66.40625 
Q 24.171875 66.40625 20.328125 58.90625 
Q 16.5 51.421875 16.5 36.375 
Q 16.5 21.390625 20.328125 13.890625 
Q 24.171875 6.390625 31.78125 6.390625 
Q 39.453125 6.390625 43.28125 13.890625 
Q 47.125 21.390625 47.125 36.375 
Q 47.125 51.421875 43.28125 58.90625 
Q 39.453125 66.40625 31.78125 66.40625 
z
M 31.78125 74.21875 
Q 44.046875 74.21875 50.515625 64.515625 
Q 56.984375 54.828125 56.984375 36.375 
Q 56.984375 17.96875 50.515625 8.265625 
Q 44.046875 -1.421875 31.78125 -1.421875 
Q 19.53125 -1.421875 13.0625 8.265625 
Q 6.59375 17.96875 6.59375 36.375 
Q 6.59375 54.828125 13.0625 64.515625 
Q 19.53125 74.21875 31.78125 74.21875 
z
" id="DejaVuSans-30"/>
      </defs>
      <g style="fill:#262626;" transform="translate(66.799063 267.793937)scale(0.1 -0.1)">
       <use xlink:href="#DejaVuSans-30"/>
      </g>
     </g>
    </g>
    <g id="xtick_2">
     <g id="line2d_3">
      <path clip-path="url(#p7b9a353ca0)" d="M 170.420313 253.1955 
L 170.420313 35.7555 
" style="fill:none;stroke:#ffffff;stroke-linecap:round;"/>
     </g>
     <g id="line2d_4"/>
     <g id="text_2">
      <!-- 1800 -->
      <defs>
       <path d="M 12.40625 8.296875 
L 28.515625 8.296875 
L 28.515625 63.921875 
L 10.984375 60.40625 
L 10.984375 69.390625 
L 28.421875 72.90625 
L 38.28125 72.90625 
L 38.28125 8.296875 
L 54.390625 8.296875 
L 54.390625 0 
L 12.40625 0 
z
" id="DejaVuSans-31"/>
       <path d="M 31.78125 34.625 
Q 24.75 34.625 20.71875 30.859375 
Q 16.703125 27.09375 16.703125 20.515625 
Q 16.703125 13.921875 20.71875 10.15625 
Q 24.75 6.390625 31.78125 6.390625 
Q 38.8125 6.390625 42.859375 10.171875 
Q 46.921875 13.96875 46.921875 20.515625 
Q 46.921875 27.09375 42.890625 30.859375 
Q 38.875 34.625 31.78125 34.625 
z
M 21.921875 38.8125 
Q 15.578125 40.375 12.03125 44.71875 
Q 8.5 49.078125 8.5 55.328125 
Q 8.5 64.0625 14.71875 69.140625 
Q 20.953125 74.21875 31.78125 74.21875 
Q 42.671875 74.21875 48.875 69.140625 
Q 55.078125 64.0625 55.078125 55.328125 
Q 55.078125 49.078125 51.53125 44.71875 
Q 48 40.375 41.703125 38.8125 
Q 48.828125 37.15625 52.796875 32.3125 
Q 56.78125 27.484375 56.78125 20.515625 
Q 56.78125 9.90625 50.3125 4.234375 
Q 43.84375 -1.421875 31.78125 -1.421875 
Q 19.734375 -1.421875 13.25 4.234375 
Q 6.78125 9.90625 6.78125 20.515625 
Q 6.78125 27.484375 10.78125 32.3125 
Q 14.796875 37.15625 21.921875 38.8125 
z
M 18.3125 54.390625 
Q 18.3125 48.734375 21.84375 45.5625 
Q 25.390625 42.390625 31.78125 42.390625 
Q 38.140625 42.390625 41.71875 45.5625 
Q 45.3125 48.734375 45.3125 54.390625 
Q 45.3125 60.0625 41.71875 63.234375 
Q 38.140625 66.40625 31.78125 66.40625 
Q 25.390625 66.40625 21.84375 63.234375 
Q 18.3125 60.0625 18.3125 54.390625 
z
" id="DejaVuSans-38"/>
      </defs>
      <g style="fill:#262626;" transform="translate(157.695313 267.793937)scale(0.1 -0.1)">
       <use xlink:href="#DejaVuSans-31"/>
       <use x="63.623047" xlink:href="#DejaVuSans-38"/>
       <use x="127.246094" xlink:href="#DejaVuSans-30"/>
       <use x="190.869141" xlink:href="#DejaVuSans-30"/>
      </g>
     </g>
    </g>
    <g id="xtick_3">
     <g id="line2d_5">
      <path clip-path="url(#p7b9a353ca0)" d="M 270.860313 253.1955 
L 270.860313 35.7555 
" style="fill:none;stroke:#ffffff;stroke-linecap:round;"/>
     </g>
     <g id="line2d_6"/>
     <g id="text_3">
      <!-- 3600 -->
      <defs>
       <path d="M 40.578125 39.3125 
Q 47.65625 37.796875 51.625 33 
Q 55.609375 28.21875 55.609375 21.1875 
Q 55.609375 10.40625 48.1875 4.484375 
Q 40.765625 -1.421875 27.09375 -1.421875 
Q 22.515625 -1.421875 17.65625 -0.515625 
Q 12.796875 0.390625 7.625 2.203125 
L 7.625 11.71875 
Q 11.71875 9.328125 16.59375 8.109375 
Q 21.484375 6.890625 26.8125 6.890625 
Q 36.078125 6.890625 40.9375 10.546875 
Q 45.796875 14.203125 45.796875 21.1875 
Q 45.796875 27.640625 41.28125 31.265625 
Q 36.765625 34.90625 28.71875 34.90625 
L 20.21875 34.90625 
L 20.21875 43.015625 
L 29.109375 43.015625 
Q 36.375 43.015625 40.234375 45.921875 
Q 44.09375 48.828125 44.09375 54.296875 
Q 44.09375 59.90625 40.109375 62.90625 
Q 36.140625 65.921875 28.71875 65.921875 
Q 24.65625 65.921875 20.015625 65.03125 
Q 15.375 64.15625 9.8125 62.3125 
L 9.8125 71.09375 
Q 15.4375 72.65625 20.34375 73.4375 
Q 25.25 74.21875 29.59375 74.21875 
Q 40.828125 74.21875 47.359375 69.109375 
Q 53.90625 64.015625 53.90625 55.328125 
Q 53.90625 49.265625 50.4375 45.09375 
Q 46.96875 40.921875 40.578125 39.3125 
z
" id="DejaVuSans-33"/>
       <path d="M 33.015625 40.375 
Q 26.375 40.375 22.484375 35.828125 
Q 18.609375 31.296875 18.609375 23.390625 
Q 18.609375 15.53125 22.484375 10.953125 
Q 26.375 6.390625 33.015625 6.390625 
Q 39.65625 6.390625 43.53125 10.953125 
Q 47.40625 15.53125 47.40625 23.390625 
Q 47.40625 31.296875 43.53125 35.828125 
Q 39.65625 40.375 33.015625 40.375 
z
M 52.59375 71.296875 
L 52.59375 62.3125 
Q 48.875 64.0625 45.09375 64.984375 
Q 41.3125 65.921875 37.59375 65.921875 
Q 27.828125 65.921875 22.671875 59.328125 
Q 17.53125 52.734375 16.796875 39.40625 
Q 19.671875 43.65625 24.015625 45.921875 
Q 28.375 48.1875 33.59375 48.1875 
Q 44.578125 48.1875 50.953125 41.515625 
Q 57.328125 34.859375 57.328125 23.390625 
Q 57.328125 12.15625 50.6875 5.359375 
Q 44.046875 -1.421875 33.015625 -1.421875 
Q 20.359375 -1.421875 13.671875 8.265625 
Q 6.984375 17.96875 6.984375 36.375 
Q 6.984375 53.65625 15.1875 63.9375 
Q 23.390625 74.21875 37.203125 74.21875 
Q 40.921875 74.21875 44.703125 73.484375 
Q 48.484375 72.75 52.59375 71.296875 
z
" id="DejaVuSans-36"/>
      </defs>
      <g style="fill:#262626;" transform="translate(258.135312 267.793937)scale(0.1 -0.1)">
       <use xlink:href="#DejaVuSans-33"/>
       <use x="63.623047" xlink:href="#DejaVuSans-36"/>
       <use x="127.246094" xlink:href="#DejaVuSans-30"/>
       <use x="190.869141" xlink:href="#DejaVuSans-30"/>
      </g>
     </g>
    </g>
    <g id="xtick_4">
     <g id="line2d_7">
      <path clip-path="url(#p7b9a353ca0)" d="M 371.300313 253.1955 
L 371.300313 35.7555 
" style="fill:none;stroke:#ffffff;stroke-linecap:round;"/>
     </g>
     <g id="line2d_8"/>
     <g id="text_4">
      <!-- 5400 -->
      <defs>
       <path d="M 10.796875 72.90625 
L 49.515625 72.90625 
L 49.515625 64.59375 
L 19.828125 64.59375 
L 19.828125 46.734375 
Q 21.96875 47.46875 24.109375 47.828125 
Q 26.265625 48.1875 28.421875 48.1875 
Q 40.625 48.1875 47.75 41.5 
Q 54.890625 34.8125 54.890625 23.390625 
Q 54.890625 11.625 47.5625 5.09375 
Q 40.234375 -1.421875 26.90625 -1.421875 
Q 22.3125 -1.421875 17.546875 -0.640625 
Q 12.796875 0.140625 7.71875 1.703125 
L 7.71875 11.625 
Q 12.109375 9.234375 16.796875 8.0625 
Q 21.484375 6.890625 26.703125 6.890625 
Q 35.15625 6.890625 40.078125 11.328125 
Q 45.015625 15.765625 45.015625 23.390625 
Q 45.015625 31 40.078125 35.4375 
Q 35.15625 39.890625 26.703125 39.890625 
Q 22.75 39.890625 18.8125 39.015625 
Q 14.890625 38.140625 10.796875 36.28125 
z
" id="DejaVuSans-35"/>
       <path d="M 37.796875 64.3125 
L 12.890625 25.390625 
L 37.796875 25.390625 
z
M 35.203125 72.90625 
L 47.609375 72.90625 
L 47.609375 25.390625 
L 58.015625 25.390625 
L 58.015625 17.1875 
L 47.609375 17.1875 
L 47.609375 0 
L 37.796875 0 
L 37.796875 17.1875 
L 4.890625 17.1875 
L 4.890625 26.703125 
z
" id="DejaVuSans-34"/>
      </defs>
      <g style="fill:#262626;" transform="translate(358.575312 267.793937)scale(0.1 -0.1)">
       <use xlink:href="#DejaVuSans-35"/>
       <use x="63.623047" xlink:href="#DejaVuSans-34"/>
       <use x="127.246094" xlink:href="#DejaVuSans-30"/>
       <use x="190.869141" xlink:href="#DejaVuSans-30"/>
      </g>
     </g>
    </g>
    <g id="text_5">
     <!-- Total duration (Seconds) -->
     <defs>
      <path d="M -0.296875 72.90625 
L 61.375 72.90625 
L 61.375 64.59375 
L 35.5 64.59375 
L 35.5 0 
L 25.59375 0 
L 25.59375 64.59375 
L -0.296875 64.59375 
z
" id="DejaVuSans-54"/>
      <path d="M 30.609375 48.390625 
Q 23.390625 48.390625 19.1875 42.75 
Q 14.984375 37.109375 14.984375 27.296875 
Q 14.984375 17.484375 19.15625 11.84375 
Q 23.34375 6.203125 30.609375 6.203125 
Q 37.796875 6.203125 41.984375 11.859375 
Q 46.1875 17.53125 46.1875 27.296875 
Q 46.1875 37.015625 41.984375 42.703125 
Q 37.796875 48.390625 30.609375 48.390625 
z
M 30.609375 56 
Q 42.328125 56 49.015625 48.375 
Q 55.71875 40.765625 55.71875 27.296875 
Q 55.71875 13.875 49.015625 6.21875 
Q 42.328125 -1.421875 30.609375 -1.421875 
Q 18.84375 -1.421875 12.171875 6.21875 
Q 5.515625 13.875 5.515625 27.296875 
Q 5.515625 40.765625 12.171875 48.375 
Q 18.84375 56 30.609375 56 
z
" id="DejaVuSans-6f"/>
      <path d="M 18.3125 70.21875 
L 18.3125 54.6875 
L 36.8125 54.6875 
L 36.8125 47.703125 
L 18.3125 47.703125 
L 18.3125 18.015625 
Q 18.3125 11.328125 20.140625 9.421875 
Q 21.96875 7.515625 27.59375 7.515625 
L 36.8125 7.515625 
L 36.8125 0 
L 27.59375 0 
Q 17.1875 0 13.234375 3.875 
Q 9.28125 7.765625 9.28125 18.015625 
L 9.28125 47.703125 
L 2.6875 47.703125 
L 2.6875 54.6875 
L 9.28125 54.6875 
L 9.28125 70.21875 
z
" id="DejaVuSans-74"/>
      <path d="M 34.28125 27.484375 
Q 23.390625 27.484375 19.1875 25 
Q 14.984375 22.515625 14.984375 16.5 
Q 14.984375 11.71875 18.140625 8.90625 
Q 21.296875 6.109375 26.703125 6.109375 
Q 34.1875 6.109375 38.703125 11.40625 
Q 43.21875 16.703125 43.21875 25.484375 
L 43.21875 27.484375 
z
M 52.203125 31.203125 
L 52.203125 0 
L 43.21875 0 
L 43.21875 8.296875 
Q 40.140625 3.328125 35.546875 0.953125 
Q 30.953125 -1.421875 24.3125 -1.421875 
Q 15.921875 -1.421875 10.953125 3.296875 
Q 6 8.015625 6 15.921875 
Q 6 25.140625 12.171875 29.828125 
Q 18.359375 34.515625 30.609375 34.515625 
L 43.21875 34.515625 
L 43.21875 35.40625 
Q 43.21875 41.609375 39.140625 45 
Q 35.0625 48.390625 27.6875 48.390625 
Q 23 48.390625 18.546875 47.265625 
Q 14.109375 46.140625 10.015625 43.890625 
L 10.015625 52.203125 
Q 14.9375 54.109375 19.578125 55.046875 
Q 24.21875 56 28.609375 56 
Q 40.484375 56 46.34375 49.84375 
Q 52.203125 43.703125 52.203125 31.203125 
z
" id="DejaVuSans-61"/>
      <path d="M 9.421875 75.984375 
L 18.40625 75.984375 
L 18.40625 0 
L 9.421875 0 
z
" id="DejaVuSans-6c"/>
      <path id="DejaVuSans-20"/>
      <path d="M 45.40625 46.390625 
L 45.40625 75.984375 
L 54.390625 75.984375 
L 54.390625 0 
L 45.40625 0 
L 45.40625 8.203125 
Q 42.578125 3.328125 38.25 0.953125 
Q 33.9375 -1.421875 27.875 -1.421875 
Q 17.96875 -1.421875 11.734375 6.484375 
Q 5.515625 14.40625 5.515625 27.296875 
Q 5.515625 40.1875 11.734375 48.09375 
Q 17.96875 56 27.875 56 
Q 33.9375 56 38.25 53.625 
Q 42.578125 51.265625 45.40625 46.390625 
z
M 14.796875 27.296875 
Q 14.796875 17.390625 18.875 11.75 
Q 22.953125 6.109375 30.078125 6.109375 
Q 37.203125 6.109375 41.296875 11.75 
Q 45.40625 17.390625 45.40625 27.296875 
Q 45.40625 37.203125 41.296875 42.84375 
Q 37.203125 48.484375 30.078125 48.484375 
Q 22.953125 48.484375 18.875 42.84375 
Q 14.796875 37.203125 14.796875 27.296875 
z
" id="DejaVuSans-64"/>
      <path d="M 8.5 21.578125 
L 8.5 54.6875 
L 17.484375 54.6875 
L 17.484375 21.921875 
Q 17.484375 14.15625 20.5 10.265625 
Q 23.53125 6.390625 29.59375 6.390625 
Q 36.859375 6.390625 41.078125 11.03125 
Q 45.3125 15.671875 45.3125 23.6875 
L 45.3125 54.6875 
L 54.296875 54.6875 
L 54.296875 0 
L 45.3125 0 
L 45.3125 8.40625 
Q 42.046875 3.421875 37.71875 1 
Q 33.40625 -1.421875 27.6875 -1.421875 
Q 18.265625 -1.421875 13.375 4.4375 
Q 8.5 10.296875 8.5 21.578125 
z
M 31.109375 56 
z
" id="DejaVuSans-75"/>
      <path d="M 41.109375 46.296875 
Q 39.59375 47.171875 37.8125 47.578125 
Q 36.03125 48 33.890625 48 
Q 26.265625 48 22.1875 43.046875 
Q 18.109375 38.09375 18.109375 28.8125 
L 18.109375 0 
L 9.078125 0 
L 9.078125 54.6875 
L 18.109375 54.6875 
L 18.109375 46.1875 
Q 20.953125 51.171875 25.484375 53.578125 
Q 30.03125 56 36.53125 56 
Q 37.453125 56 38.578125 55.875 
Q 39.703125 55.765625 41.0625 55.515625 
z
" id="DejaVuSans-72"/>
      <path d="M 9.421875 54.6875 
L 18.40625 54.6875 
L 18.40625 0 
L 9.421875 0 
z
M 9.421875 75.984375 
L 18.40625 75.984375 
L 18.40625 64.59375 
L 9.421875 64.59375 
z
" id="DejaVuSans-69"/>
      <path d="M 54.890625 33.015625 
L 54.890625 0 
L 45.90625 0 
L 45.90625 32.71875 
Q 45.90625 40.484375 42.875 44.328125 
Q 39.84375 48.1875 33.796875 48.1875 
Q 26.515625 48.1875 22.3125 43.546875 
Q 18.109375 38.921875 18.109375 30.90625 
L 18.109375 0 
L 9.078125 0 
L 9.078125 54.6875 
L 18.109375 54.6875 
L 18.109375 46.1875 
Q 21.34375 51.125 25.703125 53.5625 
Q 30.078125 56 35.796875 56 
Q 45.21875 56 50.046875 50.171875 
Q 54.890625 44.34375 54.890625 33.015625 
z
" id="DejaVuSans-6e"/>
      <path d="M 31 75.875 
Q 24.46875 64.65625 21.28125 53.65625 
Q 18.109375 42.671875 18.109375 31.390625 
Q 18.109375 20.125 21.3125 9.0625 
Q 24.515625 -2 31 -13.1875 
L 23.1875 -13.1875 
Q 15.875 -1.703125 12.234375 9.375 
Q 8.59375 20.453125 8.59375 31.390625 
Q 8.59375 42.28125 12.203125 53.3125 
Q 15.828125 64.359375 23.1875 75.875 
z
" id="DejaVuSans-28"/>
      <path d="M 53.515625 70.515625 
L 53.515625 60.890625 
Q 47.90625 63.578125 42.921875 64.890625 
Q 37.9375 66.21875 33.296875 66.21875 
Q 25.25 66.21875 20.875 63.09375 
Q 16.5 59.96875 16.5 54.203125 
Q 16.5 49.359375 19.40625 46.890625 
Q 22.3125 44.4375 30.421875 42.921875 
L 36.375 41.703125 
Q 47.40625 39.59375 52.65625 34.296875 
Q 57.90625 29 57.90625 20.125 
Q 57.90625 9.515625 50.796875 4.046875 
Q 43.703125 -1.421875 29.984375 -1.421875 
Q 24.8125 -1.421875 18.96875 -0.25 
Q 13.140625 0.921875 6.890625 3.21875 
L 6.890625 13.375 
Q 12.890625 10.015625 18.65625 8.296875 
Q 24.421875 6.59375 29.984375 6.59375 
Q 38.421875 6.59375 43.015625 9.90625 
Q 47.609375 13.234375 47.609375 19.390625 
Q 47.609375 24.75 44.3125 27.78125 
Q 41.015625 30.8125 33.5 32.328125 
L 27.484375 33.5 
Q 16.453125 35.6875 11.515625 40.375 
Q 6.59375 45.0625 6.59375 53.421875 
Q 6.59375 63.09375 13.40625 68.65625 
Q 20.21875 74.21875 32.171875 74.21875 
Q 37.3125 74.21875 42.625 73.28125 
Q 47.953125 72.359375 53.515625 70.515625 
z
" id="DejaVuSans-53"/>
      <path d="M 56.203125 29.59375 
L 56.203125 25.203125 
L 14.890625 25.203125 
Q 15.484375 15.921875 20.484375 11.0625 
Q 25.484375 6.203125 34.421875 6.203125 
Q 39.59375 6.203125 44.453125 7.46875 
Q 49.3125 8.734375 54.109375 11.28125 
L 54.109375 2.78125 
Q 49.265625 0.734375 44.1875 -0.34375 
Q 39.109375 -1.421875 33.890625 -1.421875 
Q 20.796875 -1.421875 13.15625 6.1875 
Q 5.515625 13.8125 5.515625 26.8125 
Q 5.515625 40.234375 12.765625 48.109375 
Q 20.015625 56 32.328125 56 
Q 43.359375 56 49.78125 48.890625 
Q 56.203125 41.796875 56.203125 29.59375 
z
M 47.21875 32.234375 
Q 47.125 39.59375 43.09375 43.984375 
Q 39.0625 48.390625 32.421875 48.390625 
Q 24.90625 48.390625 20.390625 44.140625 
Q 15.875 39.890625 15.1875 32.171875 
z
" id="DejaVuSans-65"/>
      <path d="M 48.78125 52.59375 
L 48.78125 44.1875 
Q 44.96875 46.296875 41.140625 47.34375 
Q 37.3125 48.390625 33.40625 48.390625 
Q 24.65625 48.390625 19.8125 42.84375 
Q 14.984375 37.3125 14.984375 27.296875 
Q 14.984375 17.28125 19.8125 11.734375 
Q 24.65625 6.203125 33.40625 6.203125 
Q 37.3125 6.203125 41.140625 7.25 
Q 44.96875 8.296875 48.78125 10.40625 
L 48.78125 2.09375 
Q 45.015625 0.34375 40.984375 -0.53125 
Q 36.96875 -1.421875 32.421875 -1.421875 
Q 20.0625 -1.421875 12.78125 6.34375 
Q 5.515625 14.109375 5.515625 27.296875 
Q 5.515625 40.671875 12.859375 48.328125 
Q 20.21875 56 33.015625 56 
Q 37.15625 56 41.109375 55.140625 
Q 45.0625 54.296875 48.78125 52.59375 
z
" id="DejaVuSans-63"/>
      <path d="M 44.28125 53.078125 
L 44.28125 44.578125 
Q 40.484375 46.53125 36.375 47.5 
Q 32.28125 48.484375 27.875 48.484375 
Q 21.1875 48.484375 17.84375 46.4375 
Q 14.5 44.390625 14.5 40.28125 
Q 14.5 37.15625 16.890625 35.375 
Q 19.28125 33.59375 26.515625 31.984375 
L 29.59375 31.296875 
Q 39.15625 29.25 43.1875 25.515625 
Q 47.21875 21.78125 47.21875 15.09375 
Q 47.21875 7.46875 41.1875 3.015625 
Q 35.15625 -1.421875 24.609375 -1.421875 
Q 20.21875 -1.421875 15.453125 -0.5625 
Q 10.6875 0.296875 5.421875 2 
L 5.421875 11.28125 
Q 10.40625 8.6875 15.234375 7.390625 
Q 20.0625 6.109375 24.8125 6.109375 
Q 31.15625 6.109375 34.5625 8.28125 
Q 37.984375 10.453125 37.984375 14.40625 
Q 37.984375 18.0625 35.515625 20.015625 
Q 33.0625 21.96875 24.703125 23.78125 
L 21.578125 24.515625 
Q 13.234375 26.265625 9.515625 29.90625 
Q 5.8125 33.546875 5.8125 39.890625 
Q 5.8125 47.609375 11.28125 51.796875 
Q 16.75 56 26.8125 56 
Q 31.78125 56 36.171875 55.265625 
Q 40.578125 54.546875 44.28125 53.078125 
z
" id="DejaVuSans-73"/>
      <path d="M 8.015625 75.875 
L 15.828125 75.875 
Q 23.140625 64.359375 26.78125 53.3125 
Q 30.421875 42.28125 30.421875 31.390625 
Q 30.421875 20.453125 26.78125 9.375 
Q 23.140625 -1.703125 15.828125 -13.1875 
L 8.015625 -13.1875 
Q 14.5 -2 17.703125 9.0625 
Q 20.90625 20.125 20.90625 31.390625 
Q 20.90625 42.671875 17.703125 53.65625 
Q 14.5 64.65625 8.015625 75.875 
z
" id="DejaVuSans-29"/>
     </defs>
     <g style="fill:#262626;" transform="translate(169.576484 282.231906)scale(0.11 -0.11)">
      <use xlink:href="#DejaVuSans-54"/>
      <use x="60.818359" xlink:href="#DejaVuSans-6f"/>
      <use x="122" xlink:href="#DejaVuSans-74"/>
      <use x="161.208984" xlink:href="#DejaVuSans-61"/>
      <use x="222.488281" xlink:href="#DejaVuSans-6c"/>
      <use x="250.271484" xlink:href="#DejaVuSans-20"/>
      <use x="282.058594" xlink:href="#DejaVuSans-64"/>
      <use x="345.535156" xlink:href="#DejaVuSans-75"/>
      <use x="408.914062" xlink:href="#DejaVuSans-72"/>
      <use x="450.027344" xlink:href="#DejaVuSans-61"/>
      <use x="511.306641" xlink:href="#DejaVuSans-74"/>
      <use x="550.515625" xlink:href="#DejaVuSans-69"/>
      <use x="578.298828" xlink:href="#DejaVuSans-6f"/>
      <use x="639.480469" xlink:href="#DejaVuSans-6e"/>
      <use x="702.859375" xlink:href="#DejaVuSans-20"/>
      <use x="734.646484" xlink:href="#DejaVuSans-28"/>
      <use x="773.660156" xlink:href="#DejaVuSans-53"/>
      <use x="837.136719" xlink:href="#DejaVuSans-65"/>
      <use x="898.660156" xlink:href="#DejaVuSans-63"/>
      <use x="953.640625" xlink:href="#DejaVuSans-6f"/>
      <use x="1014.822266" xlink:href="#DejaVuSans-6e"/>
      <use x="1078.201172" xlink:href="#DejaVuSans-64"/>
      <use x="1141.677734" xlink:href="#DejaVuSans-73"/>
      <use x="1193.777344" xlink:href="#DejaVuSans-29"/>
     </g>
    </g>
   </g>
   <g id="matplotlib.axis_2">
    <g id="ytick_1">
     <g id="line2d_9"/>
     <g id="text_6">
      <!-- Member -->
      <defs>
       <path d="M 9.8125 72.90625 
L 24.515625 72.90625 
L 43.109375 23.296875 
L 61.8125 72.90625 
L 76.515625 72.90625 
L 76.515625 0 
L 66.890625 0 
L 66.890625 64.015625 
L 48.09375 14.015625 
L 38.1875 14.015625 
L 19.390625 64.015625 
L 19.390625 0 
L 9.8125 0 
z
" id="DejaVuSans-4d"/>
       <path d="M 52 44.1875 
Q 55.375 50.25 60.0625 53.125 
Q 64.75 56 71.09375 56 
Q 79.640625 56 84.28125 50.015625 
Q 88.921875 44.046875 88.921875 33.015625 
L 88.921875 0 
L 79.890625 0 
L 79.890625 32.71875 
Q 79.890625 40.578125 77.09375 44.375 
Q 74.3125 48.1875 68.609375 48.1875 
Q 61.625 48.1875 57.5625 43.546875 
Q 53.515625 38.921875 53.515625 30.90625 
L 53.515625 0 
L 44.484375 0 
L 44.484375 32.71875 
Q 44.484375 40.625 41.703125 44.40625 
Q 38.921875 48.1875 33.109375 48.1875 
Q 26.21875 48.1875 22.15625 43.53125 
Q 18.109375 38.875 18.109375 30.90625 
L 18.109375 0 
L 9.078125 0 
L 9.078125 54.6875 
L 18.109375 54.6875 
L 18.109375 46.1875 
Q 21.1875 51.21875 25.484375 53.609375 
Q 29.78125 56 35.6875 56 
Q 41.65625 56 45.828125 52.96875 
Q 50 49.953125 52 44.1875 
z
" id="DejaVuSans-6d"/>
       <path d="M 48.6875 27.296875 
Q 48.6875 37.203125 44.609375 42.84375 
Q 40.53125 48.484375 33.40625 48.484375 
Q 26.265625 48.484375 22.1875 42.84375 
Q 18.109375 37.203125 18.109375 27.296875 
Q 18.109375 17.390625 22.1875 11.75 
Q 26.265625 6.109375 33.40625 6.109375 
Q 40.53125 6.109375 44.609375 11.75 
Q 48.6875 17.390625 48.6875 27.296875 
z
M 18.109375 46.390625 
Q 20.953125 51.265625 25.265625 53.625 
Q 29.59375 56 35.59375 56 
Q 45.5625 56 51.78125 48.09375 
Q 58.015625 40.1875 58.015625 27.296875 
Q 58.015625 14.40625 51.78125 6.484375 
Q 45.5625 -1.421875 35.59375 -1.421875 
Q 29.59375 -1.421875 25.265625 0.953125 
Q 20.953125 3.328125 18.109375 8.203125 
L 18.109375 0 
L 9.078125 0 
L 9.078125 75.984375 
L 18.109375 75.984375 
z
" id="DejaVuSans-62"/>
      </defs>
      <g style="fill:#262626;" transform="translate(21.845938 93.914719)scale(0.1 -0.1)">
       <use xlink:href="#DejaVuSans-4d"/>
       <use x="86.279297" xlink:href="#DejaVuSans-65"/>
       <use x="147.802734" xlink:href="#DejaVuSans-6d"/>
       <use x="245.214844" xlink:href="#DejaVuSans-62"/>
       <use x="308.691406" xlink:href="#DejaVuSans-65"/>
       <use x="370.214844" xlink:href="#DejaVuSans-72"/>
      </g>
     </g>
    </g>
    <g id="ytick_2">
     <g id="line2d_10"/>
     <g id="text_7">
      <!-- Casual -->
      <defs>
       <path d="M 64.40625 67.28125 
L 64.40625 56.890625 
Q 59.421875 61.53125 53.78125 63.8125 
Q 48.140625 66.109375 41.796875 66.109375 
Q 29.296875 66.109375 22.65625 58.46875 
Q 16.015625 50.828125 16.015625 36.375 
Q 16.015625 21.96875 22.65625 14.328125 
Q 29.296875 6.6875 41.796875 6.6875 
Q 48.140625 6.6875 53.78125 8.984375 
Q 59.421875 11.28125 64.40625 15.921875 
L 64.40625 5.609375 
Q 59.234375 2.09375 53.4375 0.328125 
Q 47.65625 -1.421875 41.21875 -1.421875 
Q 24.65625 -1.421875 15.125 8.703125 
Q 5.609375 18.84375 5.609375 36.375 
Q 5.609375 53.953125 15.125 64.078125 
Q 24.65625 74.21875 41.21875 74.21875 
Q 47.75 74.21875 53.53125 72.484375 
Q 59.328125 70.75 64.40625 67.28125 
z
" id="DejaVuSans-43"/>
      </defs>
      <g style="fill:#262626;" transform="translate(29.41625 202.634719)scale(0.1 -0.1)">
       <use xlink:href="#DejaVuSans-43"/>
       <use x="69.824219" xlink:href="#DejaVuSans-61"/>
       <use x="131.103516" xlink:href="#DejaVuSans-73"/>
       <use x="183.203125" xlink:href="#DejaVuSans-75"/>
       <use x="246.582031" xlink:href="#DejaVuSans-61"/>
       <use x="307.861328" xlink:href="#DejaVuSans-6c"/>
      </g>
     </g>
    </g>
    <g id="text_8">
     <!-- Account type -->
     <defs>
      <path d="M 34.1875 63.1875 
L 20.796875 26.90625 
L 47.609375 26.90625 
z
M 28.609375 72.90625 
L 39.796875 72.90625 
L 67.578125 0 
L 57.328125 0 
L 50.6875 18.703125 
L 17.828125 18.703125 
L 11.1875 0 
L 0.78125 0 
z
" id="DejaVuSans-41"/>
      <path d="M 32.171875 -5.078125 
Q 28.375 -14.84375 24.75 -17.8125 
Q 21.140625 -20.796875 15.09375 -20.796875 
L 7.90625 -20.796875 
L 7.90625 -13.28125 
L 13.1875 -13.28125 
Q 16.890625 -13.28125 18.9375 -11.515625 
Q 21 -9.765625 23.484375 -3.21875 
L 25.09375 0.875 
L 2.984375 54.6875 
L 12.5 54.6875 
L 29.59375 11.921875 
L 46.6875 54.6875 
L 56.203125 54.6875 
z
" id="DejaVuSans-79"/>
      <path d="M 18.109375 8.203125 
L 18.109375 -20.796875 
L 9.078125 -20.796875 
L 9.078125 54.6875 
L 18.109375 54.6875 
L 18.109375 46.390625 
Q 20.953125 51.265625 25.265625 53.625 
Q 29.59375 56 35.59375 56 
Q 45.5625 56 51.78125 48.09375 
Q 58.015625 40.1875 58.015625 27.296875 
Q 58.015625 14.40625 51.78125 6.484375 
Q 45.5625 -1.421875 35.59375 -1.421875 
Q 29.59375 -1.421875 25.265625 0.953125 
Q 20.953125 3.328125 18.109375 8.203125 
z
M 48.6875 27.296875 
Q 48.6875 37.203125 44.609375 42.84375 
Q 40.53125 48.484375 33.40625 48.484375 
Q 26.265625 48.484375 22.1875 42.84375 
Q 18.109375 37.203125 18.109375 27.296875 
Q 18.109375 17.390625 22.1875 11.75 
Q 26.265625 6.109375 33.40625 6.109375 
Q 40.53125 6.109375 44.609375 11.75 
Q 48.6875 17.390625 48.6875 27.296875 
z
" id="DejaVuSans-70"/>
     </defs>
     <g style="fill:#262626;" transform="translate(15.558281 180.813312)rotate(-90)scale(0.11 -0.11)">
      <use xlink:href="#DejaVuSans-41"/>
      <use x="68.392578" xlink:href="#DejaVuSans-63"/>
      <use x="123.373047" xlink:href="#DejaVuSans-63"/>
      <use x="178.353516" xlink:href="#DejaVuSans-6f"/>
      <use x="239.535156" xlink:href="#DejaVuSans-75"/>
      <use x="302.914062" xlink:href="#DejaVuSans-6e"/>
      <use x="366.292969" xlink:href="#DejaVuSans-74"/>
      <use x="405.501953" xlink:href="#DejaVuSans-20"/>
      <use x="437.289062" xlink:href="#DejaVuSans-74"/>
      <use x="476.498047" xlink:href="#DejaVuSans-79"/>
      <use x="535.677734" xlink:href="#DejaVuSans-70"/>
      <use x="599.154297" xlink:href="#DejaVuSans-65"/>
     </g>
    </g>
   </g>
   <g id="PolyCollection_1">
    <defs>
     <path d="M 66.975098 -201.393893 
L 66.975098 -201.814232 
L 70.450882 -203.752083 
L 73.926666 -211.173815 
L 77.40245 -224.068409 
L 80.878234 -235.95546 
L 84.354018 -242.855492 
L 87.829802 -245.092062 
L 91.305587 -243.786405 
L 94.781371 -240.281991 
L 98.257155 -235.542286 
L 101.732939 -230.651273 
L 105.208723 -226.50485 
L 108.684507 -223.118307 
L 112.160291 -220.017463 
L 115.636076 -217.150085 
L 119.11186 -215.009673 
L 122.587644 -213.525141 
L 126.063428 -212.402649 
L 129.539212 -211.465161 
L 133.014996 -210.543318 
L 136.49078 -209.659855 
L 139.966565 -208.828958 
L 143.442349 -208.146577 
L 146.918133 -207.66193 
L 150.393917 -207.275786 
L 153.869701 -206.917031 
L 157.345485 -206.55519 
L 160.821269 -206.198312 
L 164.297053 -205.795608 
L 167.772838 -205.444516 
L 171.248622 -205.133295 
L 174.724406 -204.830995 
L 178.20019 -204.556352 
L 181.675974 -204.29001 
L 185.151758 -204.065208 
L 188.627542 -203.891024 
L 192.103327 -203.73725 
L 195.579111 -203.563808 
L 199.054895 -203.41148 
L 202.530679 -203.324412 
L 206.006463 -203.260353 
L 209.482247 -203.165142 
L 212.958031 -203.056603 
L 216.433816 -202.96278 
L 219.9096 -202.864379 
L 223.385384 -202.758178 
L 226.861168 -202.680488 
L 230.336952 -202.654055 
L 233.812736 -202.625049 
L 237.28852 -202.559828 
L 240.764305 -202.485062 
L 244.240089 -202.392454 
L 247.715873 -202.302149 
L 251.191657 -202.242919 
L 254.667441 -202.20055 
L 258.143225 -202.154481 
L 261.619009 -202.105656 
L 265.094794 -202.041253 
L 268.570578 -201.966325 
L 272.046362 -201.89853 
L 275.522146 -201.844462 
L 278.99793 -201.815889 
L 282.473714 -201.798882 
L 285.949498 -201.797488 
L 289.425283 -201.798644 
L 292.901067 -201.784671 
L 296.376851 -201.764608 
L 299.852635 -201.755575 
L 303.328419 -201.744675 
L 306.804203 -201.731674 
L 310.279987 -201.717693 
L 313.755772 -201.699811 
L 317.231556 -201.691605 
L 320.70734 -201.702232 
L 324.183124 -201.712423 
L 327.658908 -201.712081 
L 331.134692 -201.700809 
L 334.610476 -201.686648 
L 338.08626 -201.687069 
L 341.562045 -201.690139 
L 345.037829 -201.692221 
L 348.513613 -201.685746 
L 351.989397 -201.670797 
L 355.465181 -201.661825 
L 358.940965 -201.661977 
L 362.416749 -201.658553 
L 365.892534 -201.650391 
L 369.368318 -201.650182 
L 372.844102 -201.650626 
L 376.319886 -201.651486 
L 379.79567 -201.657156 
L 383.271454 -201.655336 
L 386.747238 -201.64764 
L 390.223023 -201.645001 
L 393.698807 -201.647133 
L 397.174591 -201.643249 
L 400.650375 -201.638236 
L 404.126159 -201.631987 
L 407.601943 -201.615513 
L 411.077727 -201.605763 
L 411.077727 -201.602362 
L 411.077727 -201.602362 
L 407.601943 -201.592612 
L 404.126159 -201.576138 
L 400.650375 -201.569889 
L 397.174591 -201.564876 
L 393.698807 -201.560992 
L 390.223023 -201.563124 
L 386.747238 -201.560485 
L 383.271454 -201.552789 
L 379.79567 -201.550969 
L 376.319886 -201.556639 
L 372.844102 -201.557499 
L 369.368318 -201.557943 
L 365.892534 -201.557734 
L 362.416749 -201.549572 
L 358.940965 -201.546148 
L 355.465181 -201.5463 
L 351.989397 -201.537328 
L 348.513613 -201.522379 
L 345.037829 -201.515904 
L 341.562045 -201.517986 
L 338.08626 -201.521056 
L 334.610476 -201.521477 
L 331.134692 -201.507316 
L 327.658908 -201.496044 
L 324.183124 -201.495702 
L 320.70734 -201.505893 
L 317.231556 -201.51652 
L 313.755772 -201.508314 
L 310.279987 -201.490432 
L 306.804203 -201.476451 
L 303.328419 -201.46345 
L 299.852635 -201.45255 
L 296.376851 -201.443517 
L 292.901067 -201.423454 
L 289.425283 -201.409481 
L 285.949498 -201.410637 
L 282.473714 -201.409243 
L 278.99793 -201.392236 
L 275.522146 -201.363663 
L 272.046362 -201.309595 
L 268.570578 -201.2418 
L 265.094794 -201.166872 
L 261.619009 -201.102469 
L 258.143225 -201.053644 
L 254.667441 -201.007575 
L 251.191657 -200.965206 
L 247.715873 -200.905976 
L 244.240089 -200.815671 
L 240.764305 -200.723063 
L 237.28852 -200.648297 
L 233.812736 -200.583076 
L 230.336952 -200.55407 
L 226.861168 -200.527637 
L 223.385384 -200.449947 
L 219.9096 -200.343746 
L 216.433816 -200.245345 
L 212.958031 -200.151522 
L 209.482247 -200.042983 
L 206.006463 -199.947772 
L 202.530679 -199.883713 
L 199.054895 -199.796645 
L 195.579111 -199.644317 
L 192.103327 -199.470875 
L 188.627542 -199.317101 
L 185.151758 -199.142917 
L 181.675974 -198.918115 
L 178.20019 -198.651773 
L 174.724406 -198.37713 
L 171.248622 -198.07483 
L 167.772838 -197.763609 
L 164.297053 -197.412517 
L 160.821269 -197.009813 
L 157.345485 -196.652935 
L 153.869701 -196.291094 
L 150.393917 -195.932339 
L 146.918133 -195.546195 
L 143.442349 -195.061548 
L 139.966565 -194.379167 
L 136.49078 -193.54827 
L 133.014996 -192.664807 
L 129.539212 -191.742964 
L 126.063428 -190.805476 
L 122.587644 -189.682984 
L 119.11186 -188.198452 
L 115.636076 -186.05804 
L 112.160291 -183.190662 
L 108.684507 -180.089818 
L 105.208723 -176.703275 
L 101.732939 -172.556852 
L 98.257155 -167.665839 
L 94.781371 -162.926134 
L 91.305587 -159.42172 
L 87.829802 -158.116062 
L 84.354018 -160.352633 
L 80.878234 -167.252665 
L 77.40245 -179.139716 
L 73.926666 -192.03431 
L 70.450882 -199.456042 
L 66.975098 -201.393893 
z
" id="mf8c348df2e" style="stroke:#4c4c4c;stroke-width:1.75;"/>
    </defs>
    <g clip-path="url(#p7b9a353ca0)">
     <use style="fill:#5875a4;stroke:#4c4c4c;stroke-width:1.75;" x="0" xlink:href="#mf8c348df2e" y="291.719562"/>
    </g>
   </g>
   <g id="PolyCollection_2">
    <defs>
     <path d="M 61.69929 -92.837093 
L 61.69929 -92.931032 
L 65.281656 -93.071212 
L 68.864022 -93.449193 
L 72.446388 -94.229511 
L 76.028754 -95.52469 
L 79.61112 -97.336695 
L 83.193486 -99.540452 
L 86.775852 -101.900369 
L 90.358219 -104.133401 
L 93.940585 -105.998954 
L 97.522951 -107.376466 
L 101.105317 -108.29723 
L 104.687683 -108.882764 
L 108.270049 -109.225885 
L 111.852415 -109.36018 
L 115.434781 -109.339167 
L 119.017147 -109.270653 
L 122.599514 -109.254343 
L 126.18188 -109.31388 
L 129.764246 -109.382208 
L 133.346612 -109.354639 
L 136.928978 -109.178957 
L 140.511344 -108.894559 
L 144.09371 -108.578541 
L 147.676076 -108.269184 
L 151.258443 -107.948824 
L 154.840809 -107.564117 
L 158.423175 -107.031921 
L 162.005541 -106.265372 
L 165.587907 -105.23989 
L 169.170273 -104.02378 
L 172.752639 -102.744953 
L 176.335005 -101.536552 
L 179.917372 -100.4843 
L 183.499738 -99.608613 
L 187.082104 -98.896282 
L 190.66447 -98.327671 
L 194.246836 -97.871179 
L 197.829202 -97.489841 
L 201.411568 -97.167163 
L 204.993934 -96.897631 
L 208.5763 -96.658041 
L 212.158667 -96.421722 
L 215.741033 -96.191104 
L 219.323399 -95.991822 
L 222.905765 -95.841072 
L 226.488131 -95.73465 
L 230.070497 -95.653652 
L 233.652863 -95.572317 
L 237.235229 -95.475073 
L 240.817596 -95.374654 
L 244.399962 -95.298905 
L 247.982328 -95.254545 
L 251.564694 -95.214452 
L 255.14706 -95.144604 
L 258.729426 -95.036486 
L 262.311792 -94.910886 
L 265.894158 -94.796273 
L 269.476525 -94.707473 
L 273.058891 -94.641067 
L 276.641257 -94.58499 
L 280.223623 -94.531048 
L 283.805989 -94.479032 
L 287.388355 -94.432411 
L 290.970721 -94.390754 
L 294.553087 -94.345531 
L 298.135453 -94.290142 
L 301.71782 -94.230085 
L 305.300186 -94.173468 
L 308.882552 -94.121844 
L 312.464918 -94.078034 
L 316.047284 -94.048317 
L 319.62965 -94.028762 
L 323.212016 -94.002804 
L 326.794382 -93.960682 
L 330.376749 -93.91178 
L 333.959115 -93.872747 
L 337.541481 -93.850984 
L 341.123847 -93.841459 
L 344.706213 -93.834412 
L 348.288579 -93.825548 
L 351.870945 -93.817743 
L 355.453311 -93.809755 
L 359.035678 -93.790667 
L 362.618044 -93.753647 
L 366.20041 -93.706648 
L 369.782776 -93.663693 
L 373.365142 -93.632785 
L 376.947508 -93.612922 
L 380.529874 -93.597722 
L 384.11224 -93.58187 
L 387.694606 -93.56425 
L 391.276973 -93.542883 
L 394.859339 -93.506535 
L 398.441705 -93.43384 
L 402.024071 -93.311038 
L 405.606437 -93.157661 
L 409.188803 -93.021164 
L 412.771169 -92.935688 
L 416.353535 -92.898267 
L 416.353535 -92.869858 
L 416.353535 -92.869858 
L 412.771169 -92.832437 
L 409.188803 -92.746961 
L 405.606437 -92.610464 
L 402.024071 -92.457087 
L 398.441705 -92.334285 
L 394.859339 -92.26159 
L 391.276973 -92.225242 
L 387.694606 -92.203875 
L 384.11224 -92.186255 
L 380.529874 -92.170403 
L 376.947508 -92.155203 
L 373.365142 -92.13534 
L 369.782776 -92.104432 
L 366.20041 -92.061477 
L 362.618044 -92.014478 
L 359.035678 -91.977458 
L 355.453311 -91.95837 
L 351.870945 -91.950382 
L 348.288579 -91.942577 
L 344.706213 -91.933713 
L 341.123847 -91.926666 
L 337.541481 -91.917141 
L 333.959115 -91.895378 
L 330.376749 -91.856345 
L 326.794382 -91.807443 
L 323.212016 -91.765321 
L 319.62965 -91.739363 
L 316.047284 -91.719808 
L 312.464918 -91.690091 
L 308.882552 -91.646281 
L 305.300186 -91.594657 
L 301.71782 -91.53804 
L 298.135453 -91.477983 
L 294.553087 -91.422594 
L 290.970721 -91.377371 
L 287.388355 -91.335714 
L 283.805989 -91.289093 
L 280.223623 -91.237077 
L 276.641257 -91.183135 
L 273.058891 -91.127058 
L 269.476525 -91.060652 
L 265.894158 -90.971852 
L 262.311792 -90.857239 
L 258.729426 -90.731639 
L 255.14706 -90.623521 
L 251.564694 -90.553673 
L 247.982328 -90.51358 
L 244.399962 -90.46922 
L 240.817596 -90.393471 
L 237.235229 -90.293052 
L 233.652863 -90.195808 
L 230.070497 -90.114473 
L 226.488131 -90.033475 
L 222.905765 -89.927053 
L 219.323399 -89.776303 
L 215.741033 -89.577021 
L 212.158667 -89.346403 
L 208.5763 -89.110084 
L 204.993934 -88.870494 
L 201.411568 -88.600962 
L 197.829202 -88.278284 
L 194.246836 -87.896946 
L 190.66447 -87.440454 
L 187.082104 -86.871843 
L 183.499738 -86.159512 
L 179.917372 -85.283825 
L 176.335005 -84.231573 
L 172.752639 -83.023172 
L 169.170273 -81.744345 
L 165.587907 -80.528235 
L 162.005541 -79.502753 
L 158.423175 -78.736204 
L 154.840809 -78.204008 
L 151.258443 -77.819301 
L 147.676076 -77.498941 
L 144.09371 -77.189584 
L 140.511344 -76.873566 
L 136.928978 -76.589168 
L 133.346612 -76.413486 
L 129.764246 -76.385917 
L 126.18188 -76.454245 
L 122.599514 -76.513782 
L 119.017147 -76.497472 
L 115.434781 -76.428958 
L 111.852415 -76.407945 
L 108.270049 -76.54224 
L 104.687683 -76.885361 
L 101.105317 -77.470895 
L 97.522951 -78.391659 
L 93.940585 -79.769171 
L 90.358219 -81.634724 
L 86.775852 -83.867756 
L 83.193486 -86.227673 
L 79.61112 -88.43143 
L 76.028754 -90.243435 
L 72.446388 -91.538614 
L 68.864022 -92.318932 
L 65.281656 -92.696913 
L 61.69929 -92.837093 
z
" id="mbf9601c23c" style="stroke:#4c4c4c;stroke-width:1.75;"/>
    </defs>
    <g clip-path="url(#p7b9a353ca0)">
     <use style="fill:#5f9e6e;stroke:#4c4c4c;stroke-width:1.75;" x="0" xlink:href="#mbf9601c23c" y="291.719562"/>
    </g>
   </g>
   <g id="line2d_11">
    <path clip-path="url(#p7b9a353ca0)" d="M 73.328313 90.1155 
L 177.562713 90.1155 
" style="fill:none;stroke:#4c4c4c;stroke-linecap:round;stroke-width:1.75;"/>
   </g>
   <g id="line2d_12">
    <path clip-path="url(#p7b9a353ca0)" d="M 88.003713 90.1155 
L 123.827313 90.1155 
" style="fill:none;stroke:#4c4c4c;stroke-linecap:round;stroke-width:5.25;"/>
   </g>
   <g id="line2d_13">
    <path clip-path="url(#p7b9a353ca0)" d="M 73.328313 198.8355 
L 273.427113 198.8355 
" style="fill:none;stroke:#4c4c4c;stroke-linecap:round;stroke-width:1.75;"/>
   </g>
   <g id="line2d_14">
    <path clip-path="url(#p7b9a353ca0)" d="M 114.006513 198.8355 
L 177.785912 198.8355 
" style="fill:none;stroke:#4c4c4c;stroke-linecap:round;stroke-width:5.25;"/>
   </g>
   <g id="patch_3">
    <path d="M 69.980313 253.1955 
L 69.980313 35.7555 
" style="fill:none;"/>
   </g>
   <g id="patch_4">
    <path d="M 404.780313 253.1955 
L 404.780313 35.7555 
" style="fill:none;"/>
   </g>
   <g id="patch_5">
    <path d="M 69.980313 253.1955 
L 404.780313 253.1955 
" style="fill:none;"/>
   </g>
   <g id="patch_6">
    <path d="M 69.980313 35.7555 
L 404.780313 35.7555 
" style="fill:none;"/>
   </g>
   <g id="PathCollection_1">
    <defs>
     <path d="M 0 1.75 
C 0.464105 1.75 0.909265 1.565609 1.237437 1.237437 
C 1.565609 0.909265 1.75 0.464105 1.75 0 
C 1.75 -0.464105 1.565609 -0.909265 1.237437 -1.237437 
C 0.909265 -1.565609 0.464105 -1.75 0 -1.75 
C -0.464105 -1.75 -0.909265 -1.565609 -1.237437 -1.237437 
C -1.565609 -0.909265 -1.75 -0.464105 -1.75 0 
C -1.75 0.464105 -1.565609 0.909265 -1.237437 1.237437 
C -0.909265 1.565609 -0.464105 1.75 0 1.75 
z
" id="m4acdbf6303" style="stroke:#4c4c4c;stroke-width:0.3;"/>
    </defs>
    <g clip-path="url(#p7b9a353ca0)">
     <use style="fill:#ffffff;stroke:#4c4c4c;stroke-width:0.3;" x="99.721713" xlink:href="#m4acdbf6303" y="90.1155"/>
    </g>
   </g>
   <g id="PathCollection_2">
    <g clip-path="url(#p7b9a353ca0)">
     <use style="fill:#ffffff;stroke:#4c4c4c;stroke-width:0.3;" x="142.408713" xlink:href="#m4acdbf6303" y="198.8355"/>
    </g>
   </g>
   <g id="text_9">
    <!-- Ride durations -->
    <defs>
     <path d="M 44.390625 34.1875 
Q 47.5625 33.109375 50.5625 29.59375 
Q 53.5625 26.078125 56.59375 19.921875 
L 66.609375 0 
L 56 0 
L 46.6875 18.703125 
Q 43.0625 26.03125 39.671875 28.421875 
Q 36.28125 30.8125 30.421875 30.8125 
L 19.671875 30.8125 
L 19.671875 0 
L 9.8125 0 
L 9.8125 72.90625 
L 32.078125 72.90625 
Q 44.578125 72.90625 50.734375 67.671875 
Q 56.890625 62.453125 56.890625 51.90625 
Q 56.890625 45.015625 53.6875 40.46875 
Q 50.484375 35.9375 44.390625 34.1875 
z
M 19.671875 64.796875 
L 19.671875 38.921875 
L 32.078125 38.921875 
Q 39.203125 38.921875 42.84375 42.21875 
Q 46.484375 45.515625 46.484375 51.90625 
Q 46.484375 58.296875 42.84375 61.546875 
Q 39.203125 64.796875 32.078125 64.796875 
z
" id="DejaVuSans-52"/>
    </defs>
    <g style="fill:#262626;" transform="translate(193.763125 16.318125)scale(0.12 -0.12)">
     <use xlink:href="#DejaVuSans-52"/>
     <use x="69.482422" xlink:href="#DejaVuSans-69"/>
     <use x="97.265625" xlink:href="#DejaVuSans-64"/>
     <use x="160.742188" xlink:href="#DejaVuSans-65"/>
     <use x="222.265625" xlink:href="#DejaVuSans-20"/>
     <use x="254.052734" xlink:href="#DejaVuSans-64"/>
     <use x="317.529297" xlink:href="#DejaVuSans-75"/>
     <use x="380.908203" xlink:href="#DejaVuSans-72"/>
     <use x="422.021484" xlink:href="#DejaVuSans-61"/>
     <use x="483.300781" xlink:href="#DejaVuSans-74"/>
     <use x="522.509766" xlink:href="#DejaVuSans-69"/>
     <use x="550.292969" xlink:href="#DejaVuSans-6f"/>
     <use x="611.474609" xlink:href="#DejaVuSans-6e"/>
     <use x="674.853516" xlink:href="#DejaVuSans-73"/>
    </g>
    <!-- Members vs non-members -->
    <defs>
     <path d="M 2.984375 54.6875 
L 12.5 54.6875 
L 29.59375 8.796875 
L 46.6875 54.6875 
L 56.203125 54.6875 
L 35.6875 0 
L 23.484375 0 
z
" id="DejaVuSans-76"/>
     <path d="M 4.890625 31.390625 
L 31.203125 31.390625 
L 31.203125 23.390625 
L 4.890625 23.390625 
z
" id="DejaVuSans-2d"/>
    </defs>
    <g style="fill:#262626;" transform="translate(157.16875 29.7555)scale(0.12 -0.12)">
     <use xlink:href="#DejaVuSans-4d"/>
     <use x="86.279297" xlink:href="#DejaVuSans-65"/>
     <use x="147.802734" xlink:href="#DejaVuSans-6d"/>
     <use x="245.214844" xlink:href="#DejaVuSans-62"/>
     <use x="308.691406" xlink:href="#DejaVuSans-65"/>
     <use x="370.214844" xlink:href="#DejaVuSans-72"/>
     <use x="411.328125" xlink:href="#DejaVuSans-73"/>
     <use x="463.427734" xlink:href="#DejaVuSans-20"/>
     <use x="495.214844" xlink:href="#DejaVuSans-76"/>
     <use x="554.394531" xlink:href="#DejaVuSans-73"/>
     <use x="606.494141" xlink:href="#DejaVuSans-20"/>
     <use x="638.28125" xlink:href="#DejaVuSans-6e"/>
     <use x="701.660156" xlink:href="#DejaVuSans-6f"/>
     <use x="762.841797" xlink:href="#DejaVuSans-6e"/>
     <use x="826.220703" xlink:href="#DejaVuSans-2d"/>
     <use x="862.304688" xlink:href="#DejaVuSans-6d"/>
     <use x="959.716797" xlink:href="#DejaVuSans-65"/>
     <use x="1021.240234" xlink:href="#DejaVuSans-6d"/>
     <use x="1118.652344" xlink:href="#DejaVuSans-62"/>
     <use x="1182.128906" xlink:href="#DejaVuSans-65"/>
     <use x="1243.652344" xlink:href="#DejaVuSans-72"/>
     <use x="1284.765625" xlink:href="#DejaVuSans-73"/>
    </g>
   </g>
  </g>
 </g>
 <defs>
  <clipPath id="p7b9a353ca0">
   <rect height="217.44" width="334.8" x="69.980313" y="35.7555"/>
  </clipPath>
 </defs>
</svg>
