<svg viewBox="0 0 425 434" xmlns="http://www.w3.org/2000/svg" xmlns:xlink="http://www.w3.org/1999/xlink"><defs><style>*{stroke-linecap:butt;stroke-linejoin:round}</style></defs><g id="figure_1"><path d="M0 434.8h425.6V0H0z" fill="#fff" id="patch_1"/><g id="axes_1"><path d="M35.2 396.3h317.5V73.9H35.2z" fill="#fff" id="patch_2"/><g id="matplotlib.axis_1"><g id="xtick_1"><g id="text_1"><defs><path d="M31.8 66.4q-7.6 0-11.5-7.5-3.8-7.5-3.8-22.5t3.8-22.5q3.9-7.5 11.5-7.5 7.7 0 11.5 7.5T47 36.4q0 15-3.8 22.5t-11.5 7.5zm0 7.8q12.2 0 18.7-9.7T57 36.4Q57 18 50.5 8.3 44-1.4 31.8-1.4 19.5-1.4 13 8.3q-6.5 9.7-6.5 28 0 18.5 6.5 28.2 6.4 9.7 18.7 9.7z" id="DejaVuSans-30"/><path d="M10.7 12.4H21V0H10.7z" id="DejaVuSans-2e"/></defs><g transform="matrix(.1 0 0 -.1 24 410.9)" fill="#262626"><use xlink:href="#DejaVuSans-30"/><use x="63.6" xlink:href="#DejaVuSans-2e"/><use x="95.4" xlink:href="#DejaVuSans-30"/><use x="159" xlink:href="#DejaVuSans-30"/></g></g></g><g id="xtick_2"><g id="text_2"><defs><path d="M19.2 8.3h34.4V0H7.3v8.3l15.3 15.6q9.7 9.8 12.2 12.6 4.7 5.3 6.6 9 2 3.7 2 7.3 0 5.8-4.2 9.5-4 3.6-10.6 3.6-4.6 0-9.8-1.6-5.1-1.6-11-4.9v10q6 2.4 11.1 3.6 5.2 1.2 9.5 1.2 11.4 0 18-5.7 6.8-5.6 6.8-15 0-4.6-1.7-8.6-1.6-4-6-9.5l-7.9-8.2L19.2 8.3z" id="DejaVuSans-32"/><path d="M10.8 73h38.7v-8.4H19.8V46.7q2.2.8 4.3 1.1 2.2.4 4.3.4 12.2 0 19.4-6.7 7-6.7 7-18.1 0-11.8-7.2-18.3-7.4-6.5-20.7-6.5-4.6 0-9.4.8-4.7.7-9.8 2.3v10q4.4-2.5 9.1-3.6 4.7-1.2 9.9-1.2 8.5 0 13.4 4.4 5 4.5 5 12 0 7.7-5 12.1Q35 40 26.7 40q-4 0-7.9-.9-4-.9-8-2.7z" id="DejaVuSans-35"/></defs><g transform="matrix(.1 0 0 -.1 62.8 410.9)" fill="#262626"><use xlink:href="#DejaVuSans-30"/><use x="63.6" xlink:href="#DejaVuSans-2e"/><use x="95.4" xlink:href="#DejaVuSans-32"/><use x="159" xlink:href="#DejaVuSans-35"/></g></g></g><g id="xtick_3"><g transform="matrix(.1 0 0 -.1 101.5 410.9)" fill="#262626" id="text_3"><use xlink:href="#DejaVuSans-30"/><use x="63.6" xlink:href="#DejaVuSans-2e"/><use x="95.4" xlink:href="#DejaVuSans-35"/><use x="159" xlink:href="#DejaVuSans-30"/></g></g><g id="xtick_4"><g id="text_4"><defs><path d="M8.2 73h46.9v-4.3L28.6 0H18.3l25 64.6H8.1z" id="DejaVuSans-37"/></defs><g transform="matrix(.1 0 0 -.1 140.2 410.9)" fill="#262626"><use xlink:href="#DejaVuSans-30"/><use x="63.6" xlink:href="#DejaVuSans-2e"/><use x="95.4" xlink:href="#DejaVuSans-37"/><use x="159" xlink:href="#DejaVuSans-35"/></g></g></g><g id="xtick_5"><g id="text_5"><defs><path d="M12.4 8.3h16.1v55.6L11 60.4v9l17.4 3.5h9.9V8.3h16V0H12.5z" id="DejaVuSans-31"/></defs><g transform="matrix(.1 0 0 -.1 179 410.9)" fill="#262626"><use xlink:href="#DejaVuSans-31"/><use x="63.6" xlink:href="#DejaVuSans-2e"/><use x="95.4" xlink:href="#DejaVuSans-30"/><use x="159" xlink:href="#DejaVuSans-30"/></g></g></g><g id="xtick_6"><g transform="matrix(.1 0 0 -.1 217.7 410.9)" fill="#262626" id="text_6"><use xlink:href="#DejaVuSans-31"/><use x="63.6" xlink:href="#DejaVuSans-2e"/><use x="95.4" xlink:href="#DejaVuSans-32"/><use x="159" xlink:href="#DejaVuSans-35"/></g></g><g id="xtick_7"><g transform="matrix(.1 0 0 -.1 256.4 410.9)" fill="#262626" id="text_7"><use xlink:href="#DejaVuSans-31"/><use x="63.6" xlink:href="#DejaVuSans-2e"/><use x="95.4" xlink:href="#DejaVuSans-35"/><use x="159" xlink:href="#DejaVuSans-30"/></g></g><g id="xtick_8"><g transform="matrix(.1 0 0 -.1 295.1 410.9)" fill="#262626" id="text_8"><use xlink:href="#DejaVuSans-31"/><use x="63.6" xlink:href="#DejaVuSans-2e"/><use x="95.4" xlink:href="#DejaVuSans-37"/><use x="159" xlink:href="#DejaVuSans-35"/></g></g><g id="xtick_9"><g transform="matrix(.1 0 0 -.1 333.8 410.9)" fill="#262626" id="text_9"><use xlink:href="#DejaVuSans-32"/><use x="63.6" xlink:href="#DejaVuSans-2e"/><use x="95.4" xlink:href="#DejaVuSans-30"/><use x="159" xlink:href="#DejaVuSans-30"/></g></g><g id="text_10"><defs><path d="M56.2 29.6v-4.4H14.9q.6-9.3 5.6-14.1 5-4.9 14-4.9 5 0 10 1.3 4.8 1.2 9.6 3.8V2.8q-4.8-2-10-3.1-5-1.1-10.2-1.1-13.1 0-20.7 7.6-7.7 7.6-7.7 20.6 0 13.4 7.3 21.3Q20 56 32.3 56q11 0 17.5-7.1 6.4-7.1 6.4-19.3zm-9 2.6q0 7.4-4.1 11.8-4 4.4-10.7 4.4-7.5 0-12-4.3-4.5-4.2-5.2-12z" id="DejaVuSans-65"/><path d="M19.7 64.8V8.1h11.9q15 0 22 6.8 7 6.9 7 21.6 0 14.7-7 21.5-7 6.8-22 6.8zm-9.9 8.1h20.3q21.2 0 31-8.8 10-8.8 10-27.6T61 8.8Q51.1 0 30.1 0H9.8z" id="DejaVuSans-44"/><path d="M9.4 54.7h9V0h-9zm0 21.3h9V64.6h-9z" id="DejaVuSans-69"/><path d="M9.4 76h9V0h-9z" id="DejaVuSans-6c"/><path d="M32.2-5q-3.8-9.8-7.5-12.8-3.6-3-9.6-3H7.9v7.5h5.3q3.7 0 5.7 1.8 2.1 1.7 4.6 8.3l1.6 4L3 54.8h9.5l17-42.8 17.2 42.8h9.5z" id="DejaVuSans-79"/><path d="M18.1 8.2v-29h-9v75.5h9v-8.3q2.9 4.9 7.2 7.2Q29.6 56 35.6 56q10 0 16.2-8Q58 40.3 58 27.4q0-12.9-6.2-20.8-6.2-8-16.2-8-6 0-10.3 2.5Q21 3.3 18 8.2zm30.6 19.1q0 9.9-4 15.5-4.2 5.7-11.3 5.7-7.1 0-11.2-5.7-4-5.6-4-15.5 0-10 4-15.6t11.2-5.6q7.1 0 11.2 5.7 4 5.6 4 15.5z" id="DejaVuSans-70"/><path d="M41.1 46.3q-1.5.9-3.3 1.3-1.8.4-4 .4-7.5 0-11.6-5-4-5-4-14.2V0H9v54.7h9v-8.5q2.9 5 7.4 7.4Q30 56 36.5 56l2-.1 2.6-.4z" id="DejaVuSans-72"/><path d="M34.3 27.5q-11 0-15.1-2.5-4.2-2.5-4.2-8.5 0-4.8 3.1-7.6 3.2-2.8 8.6-2.8 7.5 0 12 5.3t4.5 14v2zm17.9 3.7V0h-9v8.3q-3-5-7.7-7.3Q31-1.4 24.3-1.4 16-1.4 11 3.3 6 8 6 15.9q0 9.2 6.2 14 6.2 4.6 18.4 4.6h12.6v1q0 6.1-4 9.5-4.1 3.4-11.5 3.4-4.7 0-9.2-1.1-4.4-1.2-8.5-3.4v8.3q5 2 9.6 2.8 4.6 1 9 1 11.9 0 17.7-6.2 5.9-6.1 5.9-18.6z" id="DejaVuSans-61"/><path d="M48.8 52.6v-8.4Q45 46.3 41 47.3q-3.8 1-7.7 1-8.7 0-13.6-5.5Q15 37.3 15 27.3t4.8-15.6q4.9-5.5 13.6-5.5 4 0 7.7 1 3.9 1.1 7.7 3.2V2.1Q45 .3 41-.5q-4-1-8.6-1-12.3 0-19.6 7.8-7.3 7.8-7.3 21 0 13.4 7.4 21Q20.2 56 33 56q4.2 0 8.1-.9 4-.8 7.7-2.5z" id="DejaVuSans-63"/><path d="M18.3 70.2V54.7h18.5v-7H18.3V18q0-6.7 1.8-8.6 1.9-1.9 7.5-1.9h9.2V0h-9.2Q17.2 0 13.2 3.9T9.2 18v29.7H2.8v7h6.6v15.5z" id="DejaVuSans-74"/><path d="M30.6 48.4q-7.2 0-11.4-5.6Q15 37 15 27.3t4.2-15.5q4.1-5.6 11.4-5.6 7.2 0 11.4 5.7 4.2 5.6 4.2 15.4 0 9.7-4.2 15.4-4.2 5.7-11.4 5.7zm0 7.6q11.7 0 18.4-7.6 6.7-7.6 6.7-21.1 0-13.4-6.7-21-6.7-7.7-18.4-7.7-11.8 0-18.4 7.6Q5.5 14 5.5 27.3q0 13.5 6.7 21Q18.8 56 30.6 56z" id="DejaVuSans-6f"/><path d="M54.9 33V0h-9v32.7q0 7.8-3 11.6-3 3.9-9.1 3.9-7.3 0-11.5-4.7Q18.1 39 18.1 31V0h-9v54.7h9v-8.5q3.2 5 7.6 7.4Q30.1 56 35.8 56q9.4 0 14.2-5.8Q55 44.3 55 33z" id="DejaVuSans-6e"/><path d="M31 75.9q-6.5-11.2-9.7-22.2-3.2-11-3.2-22.3T21.3 9Q24.5-2 31-13.2h-7.8q-7.3 11.5-11 22.6-3.6 11-3.6 22 0 10.9 3.6 22 3.6 11 11 22.5z" id="DejaVuSans-28"/><path d="M8 75.9h7.8q7.3-11.5 11-22.6 3.6-11 3.6-22 0-10.8-3.6-22-3.7-11-11-22.5H8Q14.5-2 17.7 9.1q3.2 11 3.2 22.3t-3.2 22.3q-3.2 11-9.7 22.2z" id="DejaVuSans-29"/></defs><g transform="matrix(.11 0 0 -.11 132.5 425.3)" fill="#262626"><use xlink:href="#DejaVuSans-44"/><use x="77" xlink:href="#DejaVuSans-61"/><use x="138.3" xlink:href="#DejaVuSans-69"/><use x="166.1" xlink:href="#DejaVuSans-6c"/><use x="193.8" xlink:href="#DejaVuSans-79"/><use x="253" xlink:href="#DejaVuSans-20"/><use x="284.8" xlink:href="#DejaVuSans-70"/><use x="348.3" xlink:href="#DejaVuSans-72"/><use x="389.4" xlink:href="#DejaVuSans-65"/><use x="450.9" xlink:href="#DejaVuSans-63"/><use x="505.9" xlink:href="#DejaVuSans-69"/><use x="533.7" xlink:href="#DejaVuSans-70"/><use x="597.1" xlink:href="#DejaVuSans-69"/><use x="624.9" xlink:href="#DejaVuSans-74"/><use x="664.1" xlink:href="#DejaVuSans-61"/><use x="725.4" xlink:href="#DejaVuSans-74"/><use x="764.6" xlink:href="#DejaVuSans-69"/><use x="792.4" xlink:href="#DejaVuSans-6f"/><use x="853.6" xlink:href="#DejaVuSans-6e"/><use x="917" xlink:href="#DejaVuSans-20"/><use x="948.7" xlink:href="#DejaVuSans-28"/><use x="987.8" xlink:href="#DejaVuSans-69"/><use x="1015.5" xlink:href="#DejaVuSans-6e"/><use x="1078.9" xlink:href="#DejaVuSans-29"/></g></g></g><g id="matplotlib.axis_2"><g id="ytick_1"><use xlink:href="#DejaVuSans-32" transform="matrix(.1 0 0 -.1 21.8 386.5)" fill="#262626" id="text_11"/></g><g id="ytick_2"><g id="text_12"><defs><path d="M40.6 39.3q7-1.5 11-6.3t4-11.8q0-10.8-7.4-16.7-7.4-6-21.1-6-4.6 0-9.4 1-4.9.9-10 2.7v9.5q4-2.4 8.9-3.6Q21.5 7 26.8 7q9.3 0 14.1 3.6 4.9 3.7 4.9 10.7 0 6.4-4.5 10Q36.8 35 28.7 35h-8.5V43h9q7.2 0 11 3 3.9 2.8 3.9 8.3 0 5.6-4 8.6t-11.4 3q-4 0-8.7-.9-4.6-.8-10.2-2.7v8.8q5.6 1.6 10.5 2.3 5 .8 9.3.8 11.2 0 17.8-5 6.5-5.2 6.5-13.9 0-6-3.5-10.2-3.4-4.2-9.8-5.8z" id="DejaVuSans-33"/></defs><use xlink:href="#DejaVuSans-33" transform="matrix(.1 0 0 -.1 21.8 325.4)" fill="#262626"/></g></g><g id="ytick_3"><g id="text_13"><defs><path d="M37.8 64.3l-25-39h25zM35.2 73h12.4V25.4H58v-8.2H47.6V0h-9.8v17.2h-33v9.5z" id="DejaVuSans-34"/></defs><use xlink:href="#DejaVuSans-34" transform="matrix(.1 0 0 -.1 21.8 264.3)" fill="#262626"/></g></g><g id="ytick_4"><use xlink:href="#DejaVuSans-35" transform="matrix(.1 0 0 -.1 21.8 203.3)" fill="#262626" id="text_14"/></g><g id="ytick_5"><g id="text_15"><defs><path d="M33 40.4q-6.6 0-10.5-4.6-3.9-4.5-3.9-12.4T22.5 11Q26.4 6.4 33 6.4q6.7 0 10.5 4.6 4 4.5 4 12.4t-4 12.4q-3.8 4.6-10.5 4.6zm19.6 30.9v-9Q48.9 64.1 45 65q-3.8 1-7.5 1-9.8 0-15-6.7-5-6.6-5.8-19.9 2.9 4.3 7.2 6.5 4.4 2.3 9.6 2.3 11 0 17.4-6.7 6.3-6.6 6.3-18.1 0-11.2-6.6-18Q44-1.4 33-1.4q-12.6 0-19.3 9.7Q7 18 7 36.3 7 53.8 15.2 64q8.2 10.3 22 10.3 3.7 0 7.5-.7 3.8-.8 7.9-2.2z" id="DejaVuSans-36"/></defs><use xlink:href="#DejaVuSans-36" transform="matrix(.1 0 0 -.1 21.8 142.2)" fill="#262626"/></g></g><g id="ytick_6"><use xlink:href="#DejaVuSans-37" transform="matrix(.1 0 0 -.1 21.8 81)" fill="#262626" id="text_16"/></g><g id="text_17"><defs><path d="M8.5 21.6v33h9V22q0-7.7 3-11.6 3-4 9-4 7.4 0 11.6 4.7 4.2 4.7 4.2 12.7v31h9V0h-9v8.4Q42 3.4 37.7 1q-4.3-2.4-10-2.4-9.4 0-14.3 5.8-4.9 5.9-4.9 17.2zM31.1 56z" id="DejaVuSans-75"/><path d="M37.1 76v-7.5h-8.6q-4.8 0-6.7-2-1.9-2-1.9-7v-4.8h14.8v-7H20V0h-9v47.7H2.3v7h8.6v3.8q0 9.1 4.2 13.3Q19.4 76 28.6 76z" id="DejaVuSans-66"/><path d="M45.4 28q0 9.8-4 15.1-4 5.4-11.3 5.4-7.2 0-11.3-5.4-4-5.4-4-15.1t4-15.1q4-5.4 11.3-5.4 7.3 0 11.3 5.4 4 5.4 4 15zm9-21.2q0-14-6.2-20.8-6.2-6.8-19-6.8-4.7 0-9 .7-4.1.7-8 2.2v8.7q3.9-2.1 7.7-3.1 3.9-1 7.9-1 8.8 0 13.2 4.5 4.4 4.6 4.4 14v4.4q-2.8-4.8-7.1-7.2Q33.9 0 27.9 0q-10 0-16.2 7.7Q5.5 15.3 5.5 28q0 12.7 6.2 20.3Q17.8 56 27.9 56q6 0 10.4-2.4 4.3-2.4 7.1-7.2v8.3h9z" id="DejaVuSans-67"/><path d="M44.3 53v-8.4q-3.8 2-8 2.9-4 1-8.4 1-6.7 0-10-2-3.4-2.1-3.4-6.2 0-3.1 2.4-5 2.4-1.7 9.6-3.3l3-.7q9.7-2 13.7-5.8 4-3.7 4-10.4 0-7.6-6-12-6-4.5-16.6-4.5-4.4 0-9.1.8-4.8.9-10 2.6v9.3q5-2.6 9.7-4 4.9-1.2 9.6-1.2 6.4 0 9.8 2.2 3.4 2.2 3.4 6.1 0 3.7-2.5 5.6-2.4 2-10.8 3.8l-3.1.7q-8.4 1.8-12 5.4-3.8 3.6-3.8 10 0 7.7 5.5 11.9Q16.7 56 26.8 56q5 0 9.4-.7 4.4-.8 8-2.2z" id="DejaVuSans-73"/></defs><g transform="matrix(0 -.11 -.11 0 15.6 316)" fill="#262626"><use xlink:href="#DejaVuSans-44"/><use x="77" xlink:href="#DejaVuSans-75"/><use x="140.4" xlink:href="#DejaVuSans-72"/><use x="181.5" xlink:href="#DejaVuSans-61"/><use x="242.8" xlink:href="#DejaVuSans-74"/><use x="282" xlink:href="#DejaVuSans-69"/><use x="309.8" xlink:href="#DejaVuSans-6f"/><use x="370.9" xlink:href="#DejaVuSans-6e"/><use x="434.3" xlink:href="#DejaVuSans-20"/><use x="466.1" xlink:href="#DejaVuSans-6f"/><use x="527.3" xlink:href="#DejaVuSans-66"/><use x="562.5" xlink:href="#DejaVuSans-20"/><use x="594.3" xlink:href="#DejaVuSans-72"/><use x="635.4" xlink:href="#DejaVuSans-65"/><use x="696.9" xlink:href="#DejaVuSans-6e"/><use x="760.3" xlink:href="#DejaVuSans-74"/><use x="799.5" xlink:href="#DejaVuSans-61"/><use x="860.8" xlink:href="#DejaVuSans-6c"/><use x="888.5" xlink:href="#DejaVuSans-20"/><use x="920.3" xlink:href="#DejaVuSans-28"/><use x="959.3" xlink:href="#DejaVuSans-20"/><use x="991.1" xlink:href="#DejaVuSans-6c"/><use x="1018.9" xlink:href="#DejaVuSans-6f"/><use x="1080.1" xlink:href="#DejaVuSans-67"/><use x="1143.6" xlink:href="#DejaVuSans-31"/><use x="1207.2" xlink:href="#DejaVuSans-30"/><use x="1270.8" xlink:href="#DejaVuSans-28"/><use x="1309.8" xlink:href="#DejaVuSans-73"/><use x="1361.9" xlink:href="#DejaVuSans-29"/><use x="1400.9" xlink:href="#DejaVuSans-20"/><use x="1432.7" xlink:href="#DejaVuSans-29"/></g></g></g><g id="PolyCollection_1"><defs><path d="M51 80.9V59.4L35.3 48.6 19.3 59.4v21.5l16 10.7z" id="C0_0_7767cb5bb6"/></defs><g clip-path="url(#p8717901175)"><use xlink:href="#C0_0_7767cb5bb6" y="326.2" fill="#2b4063" stroke="#2b4063"/></g><g clip-path="url(#p8717901175)"><use xlink:href="#C0_0_7767cb5bb6" y="261.7" stroke="#000"/></g><g clip-path="url(#p8717901175)"><use xlink:href="#C0_0_7767cb5bb6" y="197.2" fill="#1e2c44" stroke="#1e2c44"/></g><g clip-path="url(#p8717901175)"><use xlink:href="#C0_0_7767cb5bb6" y="132.7" fill="#406094" stroke="#406094"/></g><g clip-path="url(#p8717901175)"><use xlink:href="#C0_0_7767cb5bb6" y="68.3" fill="#7593c3" stroke="#7593c3"/></g><g clip-path="url(#p8717901175)"><use xlink:href="#C0_0_7767cb5bb6" y="3.8" fill="#c7d3e7" stroke="#c7d3e7"/></g><g clip-path="url(#p8717901175)"><use x="31.8" xlink:href="#C0_0_7767cb5bb6" y="326.2" fill="#4c6fa8" stroke="#4c6fa8"/></g><g clip-path="url(#p8717901175)"><use x="31.8" xlink:href="#C0_0_7767cb5bb6" y="261.7" fill="#1e2d46" stroke="#1e2d46"/></g><g clip-path="url(#p8717901175)"><use x="31.8" xlink:href="#C0_0_7767cb5bb6" y="197.2" fill="#416297" stroke="#416297"/></g><g clip-path="url(#p8717901175)"><use x="31.8" xlink:href="#C0_0_7767cb5bb6" y="132.7" fill="#7895c4" stroke="#7895c4"/></g><g clip-path="url(#p8717901175)"><use x="31.8" xlink:href="#C0_0_7767cb5bb6" y="68.3" fill="#b5c5df" stroke="#b5c5df"/></g><g clip-path="url(#p8717901175)"><use x="31.8" xlink:href="#C0_0_7767cb5bb6" y="3.8" fill="#fff" stroke="#fff"/></g><g clip-path="url(#p8717901175)"><use x="63.5" xlink:href="#C0_0_7767cb5bb6" y="326.2" fill="#6e8dc0" stroke="#6e8dc0"/></g><g clip-path="url(#p8717901175)"><use x="63.5" xlink:href="#C0_0_7767cb5bb6" y="261.7" fill="#2b4063" stroke="#2b4063"/></g><g clip-path="url(#p8717901175)"><use x="63.5" xlink:href="#C0_0_7767cb5bb6" y="197.2" fill="#4e71aa" stroke="#4e71aa"/></g><g clip-path="url(#p8717901175)"><use x="63.5" xlink:href="#C0_0_7767cb5bb6" y="132.7" fill="#8fa7cf" stroke="#8fa7cf"/></g><g clip-path="url(#p8717901175)"><use x="63.5" xlink:href="#C0_0_7767cb5bb6" y="68.3" fill="#c7d3e7" stroke="#c7d3e7"/></g><g clip-path="url(#p8717901175)"><use x="63.5" xlink:href="#C0_0_7767cb5bb6" y="3.8" fill="#fff" stroke="#fff"/></g><g clip-path="url(#p8717901175)"><use x="95.3" xlink:href="#C0_0_7767cb5bb6" y="326.2" fill="#849fca" stroke="#849fca"/></g><g clip-path="url(#p8717901175)"><use x="95.3" xlink:href="#C0_0_7767cb5bb6" y="261.7" fill="#324b74" stroke="#324b74"/></g><g clip-path="url(#p8717901175)"><use x="95.3" xlink:href="#C0_0_7767cb5bb6" y="197.2" fill="#5e81ba" stroke="#5e81ba"/></g><g clip-path="url(#p8717901175)"><use x="95.3" xlink:href="#C0_0_7767cb5bb6" y="132.7" fill="#99afd3" stroke="#99afd3"/></g><g clip-path="url(#p8717901175)"><use x="95.3" xlink:href="#C0_0_7767cb5bb6" y="68.3" fill="#fff" stroke="#fff"/></g><g clip-path="url(#p8717901175)"><use x="95.3" xlink:href="#C0_0_7767cb5bb6" y="3.8" fill="#fff" stroke="#fff"/></g><g clip-path="url(#p8717901175)"><use x="127" xlink:href="#C0_0_7767cb5bb6" y="326.2" fill="#7391c3" stroke="#7391c3"/></g><g clip-path="url(#p8717901175)"><use x="127" xlink:href="#C0_0_7767cb5bb6" y="261.7" fill="#2f476d" stroke="#2f476d"/></g><g clip-path="url(#p8717901175)"><use x="127" xlink:href="#C0_0_7767cb5bb6" y="197.2" fill="#6384bb" stroke="#6384bb"/></g><g clip-path="url(#p8717901175)"><use x="127" xlink:href="#C0_0_7767cb5bb6" y="132.7" fill="#a7bad9" stroke="#a7bad9"/></g><g clip-path="url(#p8717901175)"><use x="127" xlink:href="#C0_0_7767cb5bb6" y="68.3" fill="#d8e0ee" stroke="#d8e0ee"/></g><g clip-path="url(#p8717901175)"><use x="127" xlink:href="#C0_0_7767cb5bb6" y="3.8" fill="#fff" stroke="#fff"/></g><g clip-path="url(#p8717901175)"><use x="158.8" xlink:href="#C0_0_7767cb5bb6" y="326.2" fill="#a4b8d8" stroke="#a4b8d8"/></g><g clip-path="url(#p8717901175)"><use x="158.8" xlink:href="#C0_0_7767cb5bb6" y="261.7" fill="#5073ac" stroke="#5073ac"/></g><g clip-path="url(#p8717901175)"><use x="158.8" xlink:href="#C0_0_7767cb5bb6" y="197.2" fill="#bbc9e1" stroke="#bbc9e1"/></g><g clip-path="url(#p8717901175)"><use x="158.8" xlink:href="#C0_0_7767cb5bb6" y="132.7" fill="#e0e7f2" stroke="#e0e7f2"/></g><g clip-path="url(#p8717901175)"><use x="158.8" xlink:href="#C0_0_7767cb5bb6" y="68.3" fill="#fff" stroke="#fff"/></g><g clip-path="url(#p8717901175)"><use x="158.8" xlink:href="#C0_0_7767cb5bb6" y="3.8" fill="#fff" stroke="#fff"/></g><g clip-path="url(#p8717901175)"><use x="190.5" xlink:href="#C0_0_7767cb5bb6" y="326.2" fill="#a0b5d6" stroke="#a0b5d6"/></g><g clip-path="url(#p8717901175)"><use x="190.5" xlink:href="#C0_0_7767cb5bb6" y="261.7" fill="#3f5e91" stroke="#3f5e91"/></g><g clip-path="url(#p8717901175)"><use x="190.5" xlink:href="#C0_0_7767cb5bb6" y="197.2" fill="#7e9ac8" stroke="#7e9ac8"/></g><g clip-path="url(#p8717901175)"><use x="190.5" xlink:href="#C0_0_7767cb5bb6" y="132.7" fill="#bdcce3" stroke="#bdcce3"/></g><g clip-path="url(#p8717901175)"><use x="190.5" xlink:href="#C0_0_7767cb5bb6" y="68.3" fill="#fff" stroke="#fff"/></g><g clip-path="url(#p8717901175)"><use x="190.5" xlink:href="#C0_0_7767cb5bb6" y="3.8" fill="#fff" stroke="#fff"/></g><g clip-path="url(#p8717901175)"><use x="222.3" xlink:href="#C0_0_7767cb5bb6" y="326.2" fill="#fff" stroke="#fff"/></g><g clip-path="url(#p8717901175)"><use x="222.3" xlink:href="#C0_0_7767cb5bb6" y="261.7" fill="#fff" stroke="#fff"/></g><g clip-path="url(#p8717901175)"><use x="222.3" xlink:href="#C0_0_7767cb5bb6" y="197.2" fill="#fff" stroke="#fff"/></g><g clip-path="url(#p8717901175)"><use x="222.3" xlink:href="#C0_0_7767cb5bb6" y="132.7" fill="#fff" stroke="#fff"/></g><g clip-path="url(#p8717901175)"><use x="222.3" xlink:href="#C0_0_7767cb5bb6" y="68.3" fill="#fff" stroke="#fff"/></g><g clip-path="url(#p8717901175)"><use x="222.3" xlink:href="#C0_0_7767cb5bb6" y="3.8" fill="#fff" stroke="#fff"/></g><g clip-path="url(#p8717901175)"><use x="254" xlink:href="#C0_0_7767cb5bb6" y="326.2" fill="#abbddb" stroke="#abbddb"/></g><g clip-path="url(#p8717901175)"><use x="254" xlink:href="#C0_0_7767cb5bb6" y="261.7" fill="#426398" stroke="#426398"/></g><g clip-path="url(#p8717901175)"><use x="254" xlink:href="#C0_0_7767cb5bb6" y="197.2" fill="#819cc9" stroke="#819cc9"/></g><g clip-path="url(#p8717901175)"><use x="254" xlink:href="#C0_0_7767cb5bb6" y="132.7" fill="#c0cee4" stroke="#c0cee4"/></g><g clip-path="url(#p8717901175)"><use x="254" xlink:href="#C0_0_7767cb5bb6" y="68.3" fill="#ebf0f7" stroke="#ebf0f7"/></g><g clip-path="url(#p8717901175)"><use x="254" xlink:href="#C0_0_7767cb5bb6" y="3.8" fill="#fff" stroke="#fff"/></g><g clip-path="url(#p8717901175)"><use x="285.8" xlink:href="#C0_0_7767cb5bb6" y="326.2" fill="#9ab0d4" stroke="#9ab0d4"/></g><g clip-path="url(#p8717901175)"><use x="285.8" xlink:href="#C0_0_7767cb5bb6" y="261.7" fill="#3e5d90" stroke="#3e5d90"/></g><g clip-path="url(#p8717901175)"><use x="285.8" xlink:href="#C0_0_7767cb5bb6" y="197.2" fill="#8fa7cf" stroke="#8fa7cf"/></g><g clip-path="url(#p8717901175)"><use x="285.8" xlink:href="#C0_0_7767cb5bb6" y="132.7" fill="#cbd6e9" stroke="#cbd6e9"/></g><g clip-path="url(#p8717901175)"><use x="285.8" xlink:href="#C0_0_7767cb5bb6" y="68.3" fill="#ebf0f7" stroke="#ebf0f7"/></g><g clip-path="url(#p8717901175)"><use x="285.8" xlink:href="#C0_0_7767cb5bb6" y="3.8" fill="#fff" stroke="#fff"/></g><g clip-path="url(#p8717901175)"><use x="317.5" xlink:href="#C0_0_7767cb5bb6" y="326.2" fill="#8aa3cc" stroke="#8aa3cc"/></g><g clip-path="url(#p8717901175)"><use x="317.5" xlink:href="#C0_0_7767cb5bb6" y="261.7" fill="#44659c" stroke="#44659c"/></g><g clip-path="url(#p8717901175)"><use x="317.5" xlink:href="#C0_0_7767cb5bb6" y="197.2" fill="#a4b8d8" stroke="#a4b8d8"/></g><g clip-path="url(#p8717901175)"><use x="317.5" xlink:href="#C0_0_7767cb5bb6" y="132.7" fill="#cbd6e9" stroke="#cbd6e9"/></g><g clip-path="url(#p8717901175)"><use x="317.5" xlink:href="#C0_0_7767cb5bb6" y="68.3" fill="#ebf0f7" stroke="#ebf0f7"/></g><g clip-path="url(#p8717901175)"><use x="317.5" xlink:href="#C0_0_7767cb5bb6" y="3.8" fill="#fff" stroke="#fff"/></g><g clip-path="url(#p8717901175)"><use x="15.9" xlink:href="#C0_0_7767cb5bb6" y="293.9" fill="#111927" stroke="#111927"/></g><g clip-path="url(#p8717901175)"><use x="15.9" xlink:href="#C0_0_7767cb5bb6" y="229.5" fill="#0d131d" stroke="#0d131d"/></g><g clip-path="url(#p8717901175)"><use x="15.9" xlink:href="#C0_0_7767cb5bb6" y="165" fill="#44669e" stroke="#44669e"/></g><g clip-path="url(#p8717901175)"><use x="15.9" xlink:href="#C0_0_7767cb5bb6" y="100.5" fill="#6587bd" stroke="#6587bd"/></g><g clip-path="url(#p8717901175)"><use x="15.9" xlink:href="#C0_0_7767cb5bb6" y="36" fill="#a3b7d7" stroke="#a3b7d7"/></g><g clip-path="url(#p8717901175)"><use x="47.6" xlink:href="#C0_0_7767cb5bb6" y="293.9" fill="#2d4469" stroke="#2d4469"/></g><g clip-path="url(#p8717901175)"><use x="47.6" xlink:href="#C0_0_7767cb5bb6" y="229.5" fill="#30476e" stroke="#30476e"/></g><g clip-path="url(#p8717901175)"><use x="47.6" xlink:href="#C0_0_7767cb5bb6" y="165" fill="#8aa3cc" stroke="#8aa3cc"/></g><g clip-path="url(#p8717901175)"><use x="47.6" xlink:href="#C0_0_7767cb5bb6" y="100.5" fill="#b4c4de" stroke="#b4c4de"/></g><g clip-path="url(#p8717901175)"><use x="47.6" xlink:href="#C0_0_7767cb5bb6" y="36" fill="#ebf0f7" stroke="#ebf0f7"/></g><g clip-path="url(#p8717901175)"><use x="79.4" xlink:href="#C0_0_7767cb5bb6" y="293.9" fill="#395583" stroke="#395583"/></g><g clip-path="url(#p8717901175)"><use x="79.4" xlink:href="#C0_0_7767cb5bb6" y="229.5" fill="#344f7a" stroke="#344f7a"/></g><g clip-path="url(#p8717901175)"><use x="79.4" xlink:href="#C0_0_7767cb5bb6" y="165" fill="#93abd1" stroke="#93abd1"/></g><g clip-path="url(#p8717901175)"><use x="79.4" xlink:href="#C0_0_7767cb5bb6" y="100.5" fill="#bdcce3" stroke="#bdcce3"/></g><g clip-path="url(#p8717901175)"><use x="79.4" xlink:href="#C0_0_7767cb5bb6" y="36" fill="#e0e7f2" stroke="#e0e7f2"/></g><g clip-path="url(#p8717901175)"><use x="111.1" xlink:href="#C0_0_7767cb5bb6" y="293.9" fill="#3d5b8d" stroke="#3d5b8d"/></g><g clip-path="url(#p8717901175)"><use x="111.1" xlink:href="#C0_0_7767cb5bb6" y="229.5" fill="#3c5a8a" stroke="#3c5a8a"/></g><g clip-path="url(#p8717901175)"><use x="111.1" xlink:href="#C0_0_7767cb5bb6" y="165" fill="#a8bbda" stroke="#a8bbda"/></g><g clip-path="url(#p8717901175)"><use x="111.1" xlink:href="#C0_0_7767cb5bb6" y="100.5" fill="#bbc9e1" stroke="#bbc9e1"/></g><g clip-path="url(#p8717901175)"><use x="111.1" xlink:href="#C0_0_7767cb5bb6" y="36" fill="#e0e7f2" stroke="#e0e7f2"/></g><g clip-path="url(#p8717901175)"><use x="142.9" xlink:href="#C0_0_7767cb5bb6" y="293.9" fill="#36517e" stroke="#36517e"/></g><g clip-path="url(#p8717901175)"><use x="142.9" xlink:href="#C0_0_7767cb5bb6" y="229.5" fill="#3c5a8c" stroke="#3c5a8c"/></g><g clip-path="url(#p8717901175)"><use x="142.9" xlink:href="#C0_0_7767cb5bb6" y="165" fill="#9ab0d4" stroke="#9ab0d4"/></g><g clip-path="url(#p8717901175)"><use x="142.9" xlink:href="#C0_0_7767cb5bb6" y="100.5" fill="#e0e7f2" stroke="#e0e7f2"/></g><g clip-path="url(#p8717901175)"><use x="142.9" xlink:href="#C0_0_7767cb5bb6" y="36" fill="#fff" stroke="#fff"/></g><g clip-path="url(#p8717901175)"><use x="174.6" xlink:href="#C0_0_7767cb5bb6" y="293.9" fill="#5275ae" stroke="#5275ae"/></g><g clip-path="url(#p8717901175)"><use x="174.6" xlink:href="#C0_0_7767cb5bb6" y="229.5" fill="#5073ac" stroke="#5073ac"/></g><g clip-path="url(#p8717901175)"><use x="174.6" xlink:href="#C0_0_7767cb5bb6" y="165" fill="#c3d0e5" stroke="#c3d0e5"/></g><g clip-path="url(#p8717901175)"><use x="174.6" xlink:href="#C0_0_7767cb5bb6" y="100.5" fill="#e0e7f2" stroke="#e0e7f2"/></g><g clip-path="url(#p8717901175)"><use x="174.6" xlink:href="#C0_0_7767cb5bb6" y="36" fill="#fff" stroke="#fff"/></g><g clip-path="url(#p8717901175)"><use x="206.4" xlink:href="#C0_0_7767cb5bb6" y="293.9" fill="#6b8bbf" stroke="#6b8bbf"/></g><g clip-path="url(#p8717901175)"><use x="206.4" xlink:href="#C0_0_7767cb5bb6" y="229.5" fill="#6788bd" stroke="#6788bd"/></g><g clip-path="url(#p8717901175)"><use x="206.4" xlink:href="#C0_0_7767cb5bb6" y="165" fill="#cbd6e9" stroke="#cbd6e9"/></g><g clip-path="url(#p8717901175)"><use x="206.4" xlink:href="#C0_0_7767cb5bb6" y="100.5" fill="#fff" stroke="#fff"/></g><g clip-path="url(#p8717901175)"><use x="206.4" xlink:href="#C0_0_7767cb5bb6" y="36" fill="#fff" stroke="#fff"/></g><g clip-path="url(#p8717901175)"><use x="238.1" xlink:href="#C0_0_7767cb5bb6" y="293.9" fill="#6e8dc0" stroke="#6e8dc0"/></g><g clip-path="url(#p8717901175)"><use x="238.1" xlink:href="#C0_0_7767cb5bb6" y="229.5" fill="#6c8cc0" stroke="#6c8cc0"/></g><g clip-path="url(#p8717901175)"><use x="238.1" xlink:href="#C0_0_7767cb5bb6" y="165" fill="#cbd6e9" stroke="#cbd6e9"/></g><g clip-path="url(#p8717901175)"><use x="238.1" xlink:href="#C0_0_7767cb5bb6" y="100.5" fill="#fff" stroke="#fff"/></g><g clip-path="url(#p8717901175)"><use x="238.1" xlink:href="#C0_0_7767cb5bb6" y="36" fill="#fff" stroke="#fff"/></g><g clip-path="url(#p8717901175)"><use x="269.9" xlink:href="#C0_0_7767cb5bb6" y="293.9" fill="#4d70a9" stroke="#4d70a9"/></g><g clip-path="url(#p8717901175)"><use x="269.9" xlink:href="#C0_0_7767cb5bb6" y="229.5" fill="#4c6fa8" stroke="#4c6fa8"/></g><g clip-path="url(#p8717901175)"><use x="269.9" xlink:href="#C0_0_7767cb5bb6" y="165" fill="#bdcce3" stroke="#bdcce3"/></g><g clip-path="url(#p8717901175)"><use x="269.9" xlink:href="#C0_0_7767cb5bb6" y="100.5" fill="#fff" stroke="#fff"/></g><g clip-path="url(#p8717901175)"><use x="269.9" xlink:href="#C0_0_7767cb5bb6" y="36" fill="#fff" stroke="#fff"/></g><g clip-path="url(#p8717901175)"><use x="301.6" xlink:href="#C0_0_7767cb5bb6" y="293.9" fill="#416195" stroke="#416195"/></g><g clip-path="url(#p8717901175)"><use x="301.6" xlink:href="#C0_0_7767cb5bb6" y="229.5" fill="#486ba4" stroke="#486ba4"/></g><g clip-path="url(#p8717901175)"><use x="301.6" xlink:href="#C0_0_7767cb5bb6" y="165" fill="#bbc9e1" stroke="#bbc9e1"/></g><g clip-path="url(#p8717901175)"><use x="301.6" xlink:href="#C0_0_7767cb5bb6" y="100.5" fill="#ebf0f7" stroke="#ebf0f7"/></g><g clip-path="url(#p8717901175)"><use x="301.6" xlink:href="#C0_0_7767cb5bb6" y="36" fill="#e0e7f2" stroke="#e0e7f2"/></g></g><path d="M35.2 396.3V73.9" fill="none" stroke="#262626" stroke-linecap="square" stroke-width="1.3" id="patch_3"/><path d="M35.2 396.3h317.5" fill="none" stroke="#262626" stroke-linecap="square" stroke-width="1.3" id="patch_4"/><g id="legend_1"><g id="text_18"><defs><path d="M10.6 45.4h62.6v-8.2H10.6zm0-20h62.6v-8.2H10.6z" id="DejaVuSans-3d"/><path d="M4.9 31.4h26.3v-8H4.9z" id="DejaVuSans-2d"/><path d="M11.7 51.7H22V39.3H11.7zm0-39.3H22V4l-8-15.6H7.7l4 15.6z" id="DejaVuSans-3b"/><path d="M11 1.5v9q3.7-1.8 7.5-2.7 3.8-1 7.5-1 9.8 0 14.9 6.7 5.1 6.5 5.9 20-2.8-4.3-7.2-6.5-4.4-2.3-9.6-2.3-11 0-17.3 6.6Q6.3 38 6.3 49.4q0 11.2 6.6 18 6.7 6.8 17.7 6.8 12.7 0 19.3-9.7 6.7-9.7 6.7-28.1 0-17.3-8.2-27.5-8.2-10.3-22-10.3-3.7 0-7.5.7t-8 2.2zm19.6 31q6.6 0 10.5 4.5 4 4.5 4 12.4t-4 12.4q-3.9 4.6-10.5 4.6t-10.5-4.6q-3.9-4.5-3.9-12.4T20.1 37q3.9-4.6 10.5-4.6z" id="DejaVuSans-39"/></defs><g transform="matrix(.1 0 0 -.1 189.4 90.5)" fill="#262626"><use xlink:href="#DejaVuSans-70"/><use x="63.5" xlink:href="#DejaVuSans-65"/><use x="125" xlink:href="#DejaVuSans-61"/><use x="186.3" xlink:href="#DejaVuSans-72"/><use x="227.4" xlink:href="#DejaVuSans-73"/><use x="279.5" xlink:href="#DejaVuSans-6f"/><use x="340.7" xlink:href="#DejaVuSans-6e"/><use x="404.1" xlink:href="#DejaVuSans-72"/><use x="445.2" xlink:href="#DejaVuSans-20"/><use x="477" xlink:href="#DejaVuSans-3d"/><use x="560.7" xlink:href="#DejaVuSans-20"/><use x="592.5" xlink:href="#DejaVuSans-2d"/><use x="628.6" xlink:href="#DejaVuSans-30"/><use x="692.2" xlink:href="#DejaVuSans-2e"/><use x="724" xlink:href="#DejaVuSans-30"/><use x="787.6" xlink:href="#DejaVuSans-35"/><use x="851.3" xlink:href="#DejaVuSans-35"/><use x="914.9" xlink:href="#DejaVuSans-3b"/><use x="948.6" xlink:href="#DejaVuSans-20"/><use x="980.4" xlink:href="#DejaVuSans-70"/><use x="1043.8" xlink:href="#DejaVuSans-20"/><use x="1075.6" xlink:href="#DejaVuSans-3d"/><use x="1159.4" xlink:href="#DejaVuSans-20"/><use x="1191.2" xlink:href="#DejaVuSans-39"/><use x="1254.8" xlink:href="#DejaVuSans-65"/><use x="1316.4" xlink:href="#DejaVuSans-2d"/><use x="1352.4" xlink:href="#DejaVuSans-33"/><use x="1416.1" xlink:href="#DejaVuSans-30"/><use x="1479.7" xlink:href="#DejaVuSans-35"/></g></g></g></g><g id="axes_2"><path d="M35.2 62.8h317.5V7.2H35.2z" fill="#fff" id="patch_5"/><path clip-path="url(#p0cd7d6dcd7)" d="M35.2 62.8h6.4v-53h-6.4z" fill="#4c72b0" opacity=".4" id="patch_6"/><path clip-path="url(#p0cd7d6dcd7)" d="M41.6 62.8h6.3v-2.3h-6.3z" fill="#4c72b0" opacity=".4" id="patch_7"/><path clip-path="url(#p0cd7d6dcd7)" d="M48 62.8h6.3v-2.2h-6.4z" fill="#4c72b0" opacity=".4" id="patch_8"/><path clip-path="url(#p0cd7d6dcd7)" d="M54.3 62.8h6.3-6.3z" fill="#4c72b0" opacity=".4" id="patch_9"/><path clip-path="url(#p0cd7d6dcd7)" d="M60.6 62.8H67v-2.4h-6.4z" fill="#4c72b0" opacity=".4" id="patch_10"/><path clip-path="url(#p0cd7d6dcd7)" d="M67 62.8h6.3v-1.2H67z" fill="#4c72b0" opacity=".4" id="patch_11"/><path clip-path="url(#p0cd7d6dcd7)" d="M73.3 62.8h6.4v-.5h-6.4z" fill="#4c72b0" opacity=".4" id="patch_12"/><path clip-path="url(#p0cd7d6dcd7)" d="M79.7 62.8H86V62h-6.3z" fill="#4c72b0" opacity=".4" id="patch_13"/><path clip-path="url(#p0cd7d6dcd7)" d="M86 62.8h6.4v-.4H86z" fill="#4c72b0" opacity=".4" id="patch_14"/><path clip-path="url(#p0cd7d6dcd7)" d="M92.4 62.8h6.3v-.5h-6.3z" fill="#4c72b0" opacity=".4" id="patch_15"/><path clip-path="url(#p0cd7d6dcd7)" d="M98.7 62.8h6.4v-.5h-6.4z" fill="#4c72b0" opacity=".4" id="patch_16"/><path clip-path="url(#p0cd7d6dcd7)" d="M105 62.8h6.4v-.4h-6.3z" fill="#4c72b0" opacity=".4" id="patch_17"/><path clip-path="url(#p0cd7d6dcd7)" d="M111.4 62.8h6.4v-.2h-6.4z" fill="#4c72b0" opacity=".4" id="patch_18"/><path clip-path="url(#p0cd7d6dcd7)" d="M117.8 62.8h6.3v-.5h-6.3z" fill="#4c72b0" opacity=".4" id="patch_19"/><path clip-path="url(#p0cd7d6dcd7)" d="M124.1 62.8h6.4v-.2H124z" fill="#4c72b0" opacity=".4" id="patch_20"/><path clip-path="url(#p0cd7d6dcd7)" d="M130.5 62.8h6.3v-.5h-6.3z" fill="#4c72b0" opacity=".4" id="patch_21"/><path clip-path="url(#p0cd7d6dcd7)" d="M136.8 62.8h6.4-6.4z" fill="#4c72b0" opacity=".4" id="patch_22"/><path clip-path="url(#p0cd7d6dcd7)" d="M143.2 62.8h6.3v-.2h-6.3z" fill="#4c72b0" opacity=".4" id="patch_23"/><path clip-path="url(#p0cd7d6dcd7)" d="M149.5 62.8h6.4v-.5h-6.4z" fill="#4c72b0" opacity=".4" id="patch_24"/><path clip-path="url(#p0cd7d6dcd7)" d="M155.9 62.8h6.3-6.3z" fill="#4c72b0" opacity=".4" id="patch_25"/><path clip-path="url(#p0cd7d6dcd7)" d="M162.2 62.8h6.4v-.3h-6.4z" fill="#4c72b0" opacity=".4" id="patch_26"/><path clip-path="url(#p0cd7d6dcd7)" d="M168.6 62.8h6.3v-.9h-6.3z" fill="#4c72b0" opacity=".4" id="patch_27"/><path clip-path="url(#p0cd7d6dcd7)" d="M175 62.8h6.3v-.1h-6.4z" fill="#4c72b0" opacity=".4" id="patch_28"/><path clip-path="url(#p0cd7d6dcd7)" d="M181.3 62.8h6.3-6.3z" fill="#4c72b0" opacity=".4" id="patch_29"/><path clip-path="url(#p0cd7d6dcd7)" d="M187.6 62.8h6.4-6.4z" fill="#4c72b0" opacity=".4" id="patch_30"/><path clip-path="url(#p0cd7d6dcd7)" d="M194 62.8h6.3-6.3z" fill="#4c72b0" opacity=".4" id="patch_31"/><path clip-path="url(#p0cd7d6dcd7)" d="M200.3 62.8h6.4-6.4z" fill="#4c72b0" opacity=".4" id="patch_32"/><path clip-path="url(#p0cd7d6dcd7)" d="M206.7 62.8h6.3-6.3z" fill="#4c72b0" opacity=".4" id="patch_33"/><path clip-path="url(#p0cd7d6dcd7)" d="M213 62.8h6.4-6.4z" fill="#4c72b0" opacity=".4" id="patch_34"/><path clip-path="url(#p0cd7d6dcd7)" d="M219.4 62.8h6.3v-.4h-6.3z" fill="#4c72b0" opacity=".4" id="patch_35"/><path clip-path="url(#p0cd7d6dcd7)" d="M225.7 62.8h6.4-6.4z" fill="#4c72b0" opacity=".4" id="patch_36"/><path clip-path="url(#p0cd7d6dcd7)" d="M232 62.8h6.4-6.3z" fill="#4c72b0" opacity=".4" id="patch_37"/><path clip-path="url(#p0cd7d6dcd7)" d="M238.4 62.8h6.4v-.1h-6.4z" fill="#4c72b0" opacity=".4" id="patch_38"/><path clip-path="url(#p0cd7d6dcd7)" d="M244.8 62.8h6.3-6.3z" fill="#4c72b0" opacity=".4" id="patch_39"/><path clip-path="url(#p0cd7d6dcd7)" d="M251.1 62.8h6.4-6.4z" fill="#4c72b0" opacity=".4" id="patch_40"/><path clip-path="url(#p0cd7d6dcd7)" d="M257.5 62.8h6.3-6.3z" fill="#4c72b0" opacity=".4" id="patch_41"/><path clip-path="url(#p0cd7d6dcd7)" d="M263.8 62.8h6.4-6.4z" fill="#4c72b0" opacity=".4" id="patch_42"/><path clip-path="url(#p0cd7d6dcd7)" d="M270.2 62.8h6.3-6.3z" fill="#4c72b0" opacity=".4" id="patch_43"/><path clip-path="url(#p0cd7d6dcd7)" d="M276.5 62.8h6.4v-.1h-6.4z" fill="#4c72b0" opacity=".4" id="patch_44"/><path clip-path="url(#p0cd7d6dcd7)" d="M282.9 62.8h6.3-6.3z" fill="#4c72b0" opacity=".4" id="patch_45"/><path clip-path="url(#p0cd7d6dcd7)" d="M289.2 62.8h6.4-6.4z" fill="#4c72b0" opacity=".4" id="patch_46"/><path clip-path="url(#p0cd7d6dcd7)" d="M295.6 62.8h6.3v-.3h-6.3z" fill="#4c72b0" opacity=".4" id="patch_47"/><path clip-path="url(#p0cd7d6dcd7)" d="M302 62.8h6.3-6.4z" fill="#4c72b0" opacity=".4" id="patch_48"/><path clip-path="url(#p0cd7d6dcd7)" d="M308.3 62.8h6.3-6.3z" fill="#4c72b0" opacity=".4" id="patch_49"/><path clip-path="url(#p0cd7d6dcd7)" d="M314.6 62.8h6.4-6.4z" fill="#4c72b0" opacity=".4" id="patch_50"/><path clip-path="url(#p0cd7d6dcd7)" d="M321 62.8h6.3-6.3z" fill="#4c72b0" opacity=".4" id="patch_51"/><path clip-path="url(#p0cd7d6dcd7)" d="M327.3 62.8h6.4v-.5h-6.4z" fill="#4c72b0" opacity=".4" id="patch_52"/><path clip-path="url(#p0cd7d6dcd7)" d="M333.7 62.8h6.3-6.3z" fill="#4c72b0" opacity=".4" id="patch_53"/><path clip-path="url(#p0cd7d6dcd7)" d="M340 62.8h6.4-6.4z" fill="#4c72b0" opacity=".4" id="patch_54"/><path clip-path="url(#p0cd7d6dcd7)" d="M346.4 62.8h6.3v-.3h-6.3z" fill="#4c72b0" opacity=".4" id="patch_55"/><path d="M35.2 62.8h317.5" fill="none" stroke="#262626" stroke-linecap="square" stroke-width="1.3" id="patch_56"/></g><g id="axes_3"><path d="M363.7 396.3h54.7V73.9h-54.7z" fill="#fff" id="patch_57"/><path clip-path="url(#pf6c2bf50b7)" d="M363.7 396.3h1.1v-6.5h-1.1z" fill="#4c72b0" opacity=".4" id="patch_58"/><path clip-path="url(#pf6c2bf50b7)" d="M363.7 389.8h2.3v-6.4h-2.3z" fill="#4c72b0" opacity=".4" id="patch_59"/><path clip-path="url(#pf6c2bf50b7)" d="M363.7 383.4h5v-6.5h-5z" fill="#4c72b0" opacity=".4" id="patch_60"/><path clip-path="url(#pf6c2bf50b7)" d="M363.7 377h9.4v-6.5h-9.4z" fill="#4c72b0" opacity=".4" id="patch_61"/><path clip-path="url(#pf6c2bf50b7)" d="M363.7 370.5h16.5V364h-16.5z" fill="#4c72b0" opacity=".4" id="patch_62"/><path clip-path="url(#pf6c2bf50b7)" d="M363.7 364H388v-6.4h-24.4z" fill="#4c72b0" opacity=".4" id="patch_63"/><path clip-path="url(#pf6c2bf50b7)" d="M363.7 357.6h35.7V351h-35.7z" fill="#4c72b0" opacity=".4" id="patch_64"/><path clip-path="url(#pf6c2bf50b7)" d="M363.7 351.1h45.9v-6.4h-46z" fill="#4c72b0" opacity=".4" id="patch_65"/><path clip-path="url(#pf6c2bf50b7)" d="M363.7 344.7h52v-6.4h-52z" fill="#4c72b0" opacity=".4" id="patch_66"/><path clip-path="url(#pf6c2bf50b7)" d="M363.7 338.3h52.1v-6.5h-52.1z" fill="#4c72b0" opacity=".4" id="patch_67"/><path clip-path="url(#pf6c2bf50b7)" d="M363.7 331.8h50.7v-6.4h-50.7z" fill="#4c72b0" opacity=".4" id="patch_68"/><path clip-path="url(#pf6c2bf50b7)" d="M363.7 325.4h48.9v-6.5h-49z" fill="#4c72b0" opacity=".4" id="patch_69"/><path clip-path="url(#pf6c2bf50b7)" d="M363.7 319h50v-6.5h-50z" fill="#4c72b0" opacity=".4" id="patch_70"/><path clip-path="url(#pf6c2bf50b7)" d="M363.7 312.5h48.5V306h-48.5z" fill="#4c72b0" opacity=".4" id="patch_71"/><path clip-path="url(#pf6c2bf50b7)" d="M363.7 306h31.7v-6.4h-31.7z" fill="#4c72b0" opacity=".4" id="patch_72"/><path clip-path="url(#pf6c2bf50b7)" d="M363.7 299.6h20.8V293h-20.8z" fill="#4c72b0" opacity=".4" id="patch_73"/><path clip-path="url(#pf6c2bf50b7)" d="M363.7 293.1h14.6v-6.4h-14.6z" fill="#4c72b0" opacity=".4" id="patch_74"/><path clip-path="url(#pf6c2bf50b7)" d="M363.7 286.7h8.8v-6.5h-8.8z" fill="#4c72b0" opacity=".4" id="patch_75"/><path clip-path="url(#pf6c2bf50b7)" d="M363.7 280.2h6.4v-6.4h-6.4z" fill="#4c72b0" opacity=".4" id="patch_76"/><path clip-path="url(#pf6c2bf50b7)" d="M363.7 273.8h4.2v-6.5h-4.2z" fill="#4c72b0" opacity=".4" id="patch_77"/><path clip-path="url(#pf6c2bf50b7)" d="M363.7 267.3h2.7V261h-2.7z" fill="#4c72b0" opacity=".4" id="patch_78"/><path clip-path="url(#pf6c2bf50b7)" d="M363.7 260.9h1.7v-6.5h-1.7z" fill="#4c72b0" opacity=".4" id="patch_79"/><path clip-path="url(#pf6c2bf50b7)" d="M363.7 254.4h1V248h-1z" fill="#4c72b0" opacity=".4" id="patch_80"/><path clip-path="url(#pf6c2bf50b7)" d="M363.7 248h.5v-6.5h-.5z" fill="#4c72b0" opacity=".4" id="patch_81"/><path clip-path="url(#pf6c2bf50b7)" d="M363.7 241.5h.3v-6.4h-.3z" fill="#4c72b0" opacity=".4" id="patch_82"/><path clip-path="url(#pf6c2bf50b7)" d="M363.7 235h.2v-6.4h-.2z" fill="#4c72b0" opacity=".4" id="patch_83"/><path clip-path="url(#pf6c2bf50b7)" d="M363.7 228.6h.2v-6.4h-.2z" fill="#4c72b0" opacity=".4" id="patch_84"/><path clip-path="url(#pf6c2bf50b7)" d="M363.7 222.2h.4v-6.5h-.4z" fill="#4c72b0" opacity=".4" id="patch_85"/><path clip-path="url(#pf6c2bf50b7)" d="M363.7 215.7h.4v-6.4h-.4z" fill="#4c72b0" opacity=".4" id="patch_86"/><path clip-path="url(#pf6c2bf50b7)" d="M363.7 209.3h.5v-6.4h-.5z" fill="#4c72b0" opacity=".4" id="patch_87"/><path clip-path="url(#pf6c2bf50b7)" d="M363.7 202.9h.1v-6.5h-.1z" fill="#4c72b0" opacity=".4" id="patch_88"/><path clip-path="url(#pf6c2bf50b7)" d="M363.7 196.4V190z" fill="#4c72b0" opacity=".4" id="patch_89"/><path clip-path="url(#pf6c2bf50b7)" d="M363.7 190h.1v-6.5h-.1z" fill="#4c72b0" opacity=".4" id="patch_90"/><path clip-path="url(#pf6c2bf50b7)" d="M363.7 183.5v-6.4z" fill="#4c72b0" opacity=".4" id="patch_91"/><path clip-path="url(#pf6c2bf50b7)" d="M363.7 177v-6.4z" fill="#4c72b0" opacity=".4" id="patch_92"/><path clip-path="url(#pf6c2bf50b7)" d="M363.7 170.6v-6.4z" fill="#4c72b0" opacity=".4" id="patch_93"/><path clip-path="url(#pf6c2bf50b7)" d="M363.7 164.2v-6.5z" fill="#4c72b0" opacity=".4" id="patch_94"/><path clip-path="url(#pf6c2bf50b7)" d="M363.7 157.7v-6.4z" fill="#4c72b0" opacity=".4" id="patch_95"/><path clip-path="url(#pf6c2bf50b7)" d="M363.7 151.3v-6.5z" fill="#4c72b0" opacity=".4" id="patch_96"/><path clip-path="url(#pf6c2bf50b7)" d="M363.7 144.8v-6.4z" fill="#4c72b0" opacity=".4" id="patch_97"/><path clip-path="url(#pf6c2bf50b7)" d="M363.7 138.4v-6.5z" fill="#4c72b0" opacity=".4" id="patch_98"/><path clip-path="url(#pf6c2bf50b7)" d="M363.7 132v-6.5z" fill="#4c72b0" opacity=".4" id="patch_99"/><path clip-path="url(#pf6c2bf50b7)" d="M363.7 125.5V119z" fill="#4c72b0" opacity=".4" id="patch_100"/><path clip-path="url(#pf6c2bf50b7)" d="M363.7 119v-6.4z" fill="#4c72b0" opacity=".4" id="patch_101"/><path clip-path="url(#pf6c2bf50b7)" d="M363.7 112.6V106z" fill="#4c72b0" opacity=".4" id="patch_102"/><path clip-path="url(#pf6c2bf50b7)" d="M363.7 106.1v-6.4z" fill="#4c72b0" opacity=".4" id="patch_103"/><path clip-path="url(#pf6c2bf50b7)" d="M363.7 99.7v-6.5z" fill="#4c72b0" opacity=".4" id="patch_104"/><path clip-path="url(#pf6c2bf50b7)" d="M363.7 93.2v-6.4z" fill="#4c72b0" opacity=".4" id="patch_105"/><path clip-path="url(#pf6c2bf50b7)" d="M363.7 86.8v-6.5z" fill="#4c72b0" opacity=".4" id="patch_106"/><path clip-path="url(#pf6c2bf50b7)" d="M363.7 80.3V74z" fill="#4c72b0" opacity=".4" id="patch_107"/><path d="M363.7 396.3V73.9" fill="none" stroke="#262626" stroke-linecap="square" stroke-width="1.3" id="patch_108"/></g></g><defs><clipPath id="p8717901175"><path d="M35.2 73.9h317.5v322.4H35.2z"/></clipPath><clipPath id="p0cd7d6dcd7"><path d="M35.2 7.2h317.5v55.6H35.2z"/></clipPath><clipPath id="pf6c2bf50b7"><path d="M363.7 73.9h54.7v322.4h-54.7z"/></clipPath></defs></svg>