<?xml version="1.0" encoding="utf-8" standalone="no"?>
<!DOCTYPE svg PUBLIC "-//W3C//DTD SVG 1.1//EN"
  "http://www.w3.org/Graphics/SVG/1.1/DTD/svg11.dtd">
<!-- Created with matplotlib (http://matplotlib.org/) -->
<svg version="1.1" viewBox="0 0 405 266" xmlns="http://www.w3.org/2000/svg" xmlns:xlink="http://www.w3.org/1999/xlink">
 <defs>
  <style type="text/css">
*{stroke-linecap:butt;stroke-linejoin:round;}
  </style>
 </defs>
 <g id="figure_1">
  <g id="patch_1">
   <path d="M 0 266.963281 
L 405.839688 266.963281 
L 405.839688 0 
L 0 0 
z
" style="fill:#ffffff;"/>
  </g>
  <g id="axes_1">
   <g id="patch_2">
    <path d="M 54.295938 228.439219 
L 389.095938 228.439219 
L 389.095938 10.999219 
L 54.295938 10.999219 
z
" style="fill:#eaeaf2;"/>
   </g>
   <g id="matplotlib.axis_1">
    <g id="xtick_1">
     <g id="line2d_1">
      <path clip-path="url(#p3cfdbb2be5)" d="M 54.295938 228.439219 
L 54.295938 10.999219 
" style="fill:none;stroke:#ffffff;stroke-linecap:round;"/>
     </g>
     <g id="line2d_2"/>
     <g id="text_1">
      <!-- 20 -->
      <defs>
       <path d="M 19.1875 8.296875 
L 53.609375 8.296875 
L 53.609375 0 
L 7.328125 0 
L 7.328125 8.296875 
Q 12.9375 14.109375 22.625 23.890625 
Q 32.328125 33.6875 34.8125 36.53125 
Q 39.546875 41.84375 41.421875 45.53125 
Q 43.3125 49.21875 43.3125 52.78125 
Q 43.3125 58.59375 39.234375 62.25 
Q 35.15625 65.921875 28.609375 65.921875 
Q 23.96875 65.921875 18.8125 64.3125 
Q 13.671875 62.703125 7.8125 59.421875 
L 7.8125 69.390625 
Q 13.765625 71.78125 18.9375 73 
Q 24.125 74.21875 28.421875 74.21875 
Q 39.75 74.21875 46.484375 68.546875 
Q 53.21875 62.890625 53.21875 53.421875 
Q 53.21875 48.921875 51.53125 44.890625 
Q 49.859375 40.875 45.40625 35.40625 
Q 44.1875 33.984375 37.640625 27.21875 
Q 31.109375 20.453125 19.1875 8.296875 
z
" id="DejaVuSans-32"/>
       <path d="M 31.78125 66.40625 
Q 24.171875 66.40625 20.328125 58.90625 
Q 16.5 51.421875 16.5 36.375 
Q 16.5 21.390625 20.328125 13.890625 
Q 24.171875 6.390625 31.78125 6.390625 
Q 39.453125 6.390625 43.28125 13.890625 
Q 47.125 21.390625 47.125 36.375 
Q 47.125 51.421875 43.28125 58.90625 
Q 39.453125 66.40625 31.78125 66.40625 
z
M 31.78125 74.21875 
Q 44.046875 74.21875 50.515625 64.515625 
Q 56.984375 54.828125 56.984375 36.375 
Q 56.984375 17.96875 50.515625 8.265625 
Q 44.046875 -1.421875 31.78125 -1.421875 
Q 19.53125 -1.421875 13.0625 8.265625 
Q 6.59375 17.96875 6.59375 36.375 
Q 6.59375 54.828125 13.0625 64.515625 
Q 19.53125 74.21875 31.78125 74.21875 
z
" id="DejaVuSans-30"/>
      </defs>
      <g style="fill:#262626;" transform="translate(47.933438 243.037656)scale(0.1 -0.1)">
       <use xlink:href="#DejaVuSans-32"/>
       <use x="63.623047" xlink:href="#DejaVuSans-30"/>
      </g>
     </g>
    </g>
    <g id="xtick_2">
     <g id="line2d_3">
      <path clip-path="url(#p3cfdbb2be5)" d="M 96.145938 228.439219 
L 96.145938 10.999219 
" style="fill:none;stroke:#ffffff;stroke-linecap:round;"/>
     </g>
     <g id="line2d_4"/>
     <g id="text_2">
      <!-- 30 -->
      <defs>
       <path d="M 40.578125 39.3125 
Q 47.65625 37.796875 51.625 33 
Q 55.609375 28.21875 55.609375 21.1875 
Q 55.609375 10.40625 48.1875 4.484375 
Q 40.765625 -1.421875 27.09375 -1.421875 
Q 22.515625 -1.421875 17.65625 -0.515625 
Q 12.796875 0.390625 7.625 2.203125 
L 7.625 11.71875 
Q 11.71875 9.328125 16.59375 8.109375 
Q 21.484375 6.890625 26.8125 6.890625 
Q 36.078125 6.890625 40.9375 10.546875 
Q 45.796875 14.203125 45.796875 21.1875 
Q 45.796875 27.640625 41.28125 31.265625 
Q 36.765625 34.90625 28.71875 34.90625 
L 20.21875 34.90625 
L 20.21875 43.015625 
L 29.109375 43.015625 
Q 36.375 43.015625 40.234375 45.921875 
Q 44.09375 48.828125 44.09375 54.296875 
Q 44.09375 59.90625 40.109375 62.90625 
Q 36.140625 65.921875 28.71875 65.921875 
Q 24.65625 65.921875 20.015625 65.03125 
Q 15.375 64.15625 9.8125 62.3125 
L 9.8125 71.09375 
Q 15.4375 72.65625 20.34375 73.4375 
Q 25.25 74.21875 29.59375 74.21875 
Q 40.828125 74.21875 47.359375 69.109375 
Q 53.90625 64.015625 53.90625 55.328125 
Q 53.90625 49.265625 50.4375 45.09375 
Q 46.96875 40.921875 40.578125 39.3125 
z
" id="DejaVuSans-33"/>
      </defs>
      <g style="fill:#262626;" transform="translate(89.783438 243.037656)scale(0.1 -0.1)">
       <use xlink:href="#DejaVuSans-33"/>
       <use x="63.623047" xlink:href="#DejaVuSans-30"/>
      </g>
     </g>
    </g>
    <g id="xtick_3">
     <g id="line2d_5">
      <path clip-path="url(#p3cfdbb2be5)" d="M 137.995938 228.439219 
L 137.995938 10.999219 
" style="fill:none;stroke:#ffffff;stroke-linecap:round;"/>
     </g>
     <g id="line2d_6"/>
     <g id="text_3">
      <!-- 40 -->
      <defs>
       <path d="M 37.796875 64.3125 
L 12.890625 25.390625 
L 37.796875 25.390625 
z
M 35.203125 72.90625 
L 47.609375 72.90625 
L 47.609375 25.390625 
L 58.015625 25.390625 
L 58.015625 17.1875 
L 47.609375 17.1875 
L 47.609375 0 
L 37.796875 0 
L 37.796875 17.1875 
L 4.890625 17.1875 
L 4.890625 26.703125 
z
" id="DejaVuSans-34"/>
      </defs>
      <g style="fill:#262626;" transform="translate(131.633438 243.037656)scale(0.1 -0.1)">
       <use xlink:href="#DejaVuSans-34"/>
       <use x="63.623047" xlink:href="#DejaVuSans-30"/>
      </g>
     </g>
    </g>
    <g id="xtick_4">
     <g id="line2d_7">
      <path clip-path="url(#p3cfdbb2be5)" d="M 179.845938 228.439219 
L 179.845938 10.999219 
" style="fill:none;stroke:#ffffff;stroke-linecap:round;"/>
     </g>
     <g id="line2d_8"/>
     <g id="text_4">
      <!-- 50 -->
      <defs>
       <path d="M 10.796875 72.90625 
L 49.515625 72.90625 
L 49.515625 64.59375 
L 19.828125 64.59375 
L 19.828125 46.734375 
Q 21.96875 47.46875 24.109375 47.828125 
Q 26.265625 48.1875 28.421875 48.1875 
Q 40.625 48.1875 47.75 41.5 
Q 54.890625 34.8125 54.890625 23.390625 
Q 54.890625 11.625 47.5625 5.09375 
Q 40.234375 -1.421875 26.90625 -1.421875 
Q 22.3125 -1.421875 17.546875 -0.640625 
Q 12.796875 0.140625 7.71875 1.703125 
L 7.71875 11.625 
Q 12.109375 9.234375 16.796875 8.0625 
Q 21.484375 6.890625 26.703125 6.890625 
Q 35.15625 6.890625 40.078125 11.328125 
Q 45.015625 15.765625 45.015625 23.390625 
Q 45.015625 31 40.078125 35.4375 
Q 35.15625 39.890625 26.703125 39.890625 
Q 22.75 39.890625 18.8125 39.015625 
Q 14.890625 38.140625 10.796875 36.28125 
z
" id="DejaVuSans-35"/>
      </defs>
      <g style="fill:#262626;" transform="translate(173.483438 243.037656)scale(0.1 -0.1)">
       <use xlink:href="#DejaVuSans-35"/>
       <use x="63.623047" xlink:href="#DejaVuSans-30"/>
      </g>
     </g>
    </g>
    <g id="xtick_5">
     <g id="line2d_9">
      <path clip-path="url(#p3cfdbb2be5)" d="M 221.695938 228.439219 
L 221.695938 10.999219 
" style="fill:none;stroke:#ffffff;stroke-linecap:round;"/>
     </g>
     <g id="line2d_10"/>
     <g id="text_5">
      <!-- 60 -->
      <defs>
       <path d="M 33.015625 40.375 
Q 26.375 40.375 22.484375 35.828125 
Q 18.609375 31.296875 18.609375 23.390625 
Q 18.609375 15.53125 22.484375 10.953125 
Q 26.375 6.390625 33.015625 6.390625 
Q 39.65625 6.390625 43.53125 10.953125 
Q 47.40625 15.53125 47.40625 23.390625 
Q 47.40625 31.296875 43.53125 35.828125 
Q 39.65625 40.375 33.015625 40.375 
z
M 52.59375 71.296875 
L 52.59375 62.3125 
Q 48.875 64.0625 45.09375 64.984375 
Q 41.3125 65.921875 37.59375 65.921875 
Q 27.828125 65.921875 22.671875 59.328125 
Q 17.53125 52.734375 16.796875 39.40625 
Q 19.671875 43.65625 24.015625 45.921875 
Q 28.375 48.1875 33.59375 48.1875 
Q 44.578125 48.1875 50.953125 41.515625 
Q 57.328125 34.859375 57.328125 23.390625 
Q 57.328125 12.15625 50.6875 5.359375 
Q 44.046875 -1.421875 33.015625 -1.421875 
Q 20.359375 -1.421875 13.671875 8.265625 
Q 6.984375 17.96875 6.984375 36.375 
Q 6.984375 53.65625 15.1875 63.9375 
Q 23.390625 74.21875 37.203125 74.21875 
Q 40.921875 74.21875 44.703125 73.484375 
Q 48.484375 72.75 52.59375 71.296875 
z
" id="DejaVuSans-36"/>
      </defs>
      <g style="fill:#262626;" transform="translate(215.333438 243.037656)scale(0.1 -0.1)">
       <use xlink:href="#DejaVuSans-36"/>
       <use x="63.623047" xlink:href="#DejaVuSans-30"/>
      </g>
     </g>
    </g>
    <g id="xtick_6">
     <g id="line2d_11">
      <path clip-path="url(#p3cfdbb2be5)" d="M 263.545938 228.439219 
L 263.545938 10.999219 
" style="fill:none;stroke:#ffffff;stroke-linecap:round;"/>
     </g>
     <g id="line2d_12"/>
     <g id="text_6">
      <!-- 70 -->
      <defs>
       <path d="M 8.203125 72.90625 
L 55.078125 72.90625 
L 55.078125 68.703125 
L 28.609375 0 
L 18.3125 0 
L 43.21875 64.59375 
L 8.203125 64.59375 
z
" id="DejaVuSans-37"/>
      </defs>
      <g style="fill:#262626;" transform="translate(257.183438 243.037656)scale(0.1 -0.1)">
       <use xlink:href="#DejaVuSans-37"/>
       <use x="63.623047" xlink:href="#DejaVuSans-30"/>
      </g>
     </g>
    </g>
    <g id="xtick_7">
     <g id="line2d_13">
      <path clip-path="url(#p3cfdbb2be5)" d="M 305.395938 228.439219 
L 305.395938 10.999219 
" style="fill:none;stroke:#ffffff;stroke-linecap:round;"/>
     </g>
     <g id="line2d_14"/>
     <g id="text_7">
      <!-- 80 -->
      <defs>
       <path d="M 31.78125 34.625 
Q 24.75 34.625 20.71875 30.859375 
Q 16.703125 27.09375 16.703125 20.515625 
Q 16.703125 13.921875 20.71875 10.15625 
Q 24.75 6.390625 31.78125 6.390625 
Q 38.8125 6.390625 42.859375 10.171875 
Q 46.921875 13.96875 46.921875 20.515625 
Q 46.921875 27.09375 42.890625 30.859375 
Q 38.875 34.625 31.78125 34.625 
z
M 21.921875 38.8125 
Q 15.578125 40.375 12.03125 44.71875 
Q 8.5 49.078125 8.5 55.328125 
Q 8.5 64.0625 14.71875 69.140625 
Q 20.953125 74.21875 31.78125 74.21875 
Q 42.671875 74.21875 48.875 69.140625 
Q 55.078125 64.0625 55.078125 55.328125 
Q 55.078125 49.078125 51.53125 44.71875 
Q 48 40.375 41.703125 38.8125 
Q 48.828125 37.15625 52.796875 32.3125 
Q 56.78125 27.484375 56.78125 20.515625 
Q 56.78125 9.90625 50.3125 4.234375 
Q 43.84375 -1.421875 31.78125 -1.421875 
Q 19.734375 -1.421875 13.25 4.234375 
Q 6.78125 9.90625 6.78125 20.515625 
Q 6.78125 27.484375 10.78125 32.3125 
Q 14.796875 37.15625 21.921875 38.8125 
z
M 18.3125 54.390625 
Q 18.3125 48.734375 21.84375 45.5625 
Q 25.390625 42.390625 31.78125 42.390625 
Q 38.140625 42.390625 41.71875 45.5625 
Q 45.3125 48.734375 45.3125 54.390625 
Q 45.3125 60.0625 41.71875 63.234375 
Q 38.140625 66.40625 31.78125 66.40625 
Q 25.390625 66.40625 21.84375 63.234375 
Q 18.3125 60.0625 18.3125 54.390625 
z
" id="DejaVuSans-38"/>
      </defs>
      <g style="fill:#262626;" transform="translate(299.033438 243.037656)scale(0.1 -0.1)">
       <use xlink:href="#DejaVuSans-38"/>
       <use x="63.623047" xlink:href="#DejaVuSans-30"/>
      </g>
     </g>
    </g>
    <g id="xtick_8">
     <g id="line2d_15">
      <path clip-path="url(#p3cfdbb2be5)" d="M 347.245938 228.439219 
L 347.245938 10.999219 
" style="fill:none;stroke:#ffffff;stroke-linecap:round;"/>
     </g>
     <g id="line2d_16"/>
     <g id="text_8">
      <!-- 90 -->
      <defs>
       <path d="M 10.984375 1.515625 
L 10.984375 10.5 
Q 14.703125 8.734375 18.5 7.8125 
Q 22.3125 6.890625 25.984375 6.890625 
Q 35.75 6.890625 40.890625 13.453125 
Q 46.046875 20.015625 46.78125 33.40625 
Q 43.953125 29.203125 39.59375 26.953125 
Q 35.25 24.703125 29.984375 24.703125 
Q 19.046875 24.703125 12.671875 31.3125 
Q 6.296875 37.9375 6.296875 49.421875 
Q 6.296875 60.640625 12.9375 67.421875 
Q 19.578125 74.21875 30.609375 74.21875 
Q 43.265625 74.21875 49.921875 64.515625 
Q 56.59375 54.828125 56.59375 36.375 
Q 56.59375 19.140625 48.40625 8.859375 
Q 40.234375 -1.421875 26.421875 -1.421875 
Q 22.703125 -1.421875 18.890625 -0.6875 
Q 15.09375 0.046875 10.984375 1.515625 
z
M 30.609375 32.421875 
Q 37.25 32.421875 41.125 36.953125 
Q 45.015625 41.5 45.015625 49.421875 
Q 45.015625 57.28125 41.125 61.84375 
Q 37.25 66.40625 30.609375 66.40625 
Q 23.96875 66.40625 20.09375 61.84375 
Q 16.21875 57.28125 16.21875 49.421875 
Q 16.21875 41.5 20.09375 36.953125 
Q 23.96875 32.421875 30.609375 32.421875 
z
" id="DejaVuSans-39"/>
      </defs>
      <g style="fill:#262626;" transform="translate(340.883438 243.037656)scale(0.1 -0.1)">
       <use xlink:href="#DejaVuSans-39"/>
       <use x="63.623047" xlink:href="#DejaVuSans-30"/>
      </g>
     </g>
    </g>
    <g id="xtick_9">
     <g id="line2d_17">
      <path clip-path="url(#p3cfdbb2be5)" d="M 389.095938 228.439219 
L 389.095938 10.999219 
" style="fill:none;stroke:#ffffff;stroke-linecap:round;"/>
     </g>
     <g id="line2d_18"/>
     <g id="text_9">
      <!-- 100 -->
      <defs>
       <path d="M 12.40625 8.296875 
L 28.515625 8.296875 
L 28.515625 63.921875 
L 10.984375 60.40625 
L 10.984375 69.390625 
L 28.421875 72.90625 
L 38.28125 72.90625 
L 38.28125 8.296875 
L 54.390625 8.296875 
L 54.390625 0 
L 12.40625 0 
z
" id="DejaVuSans-31"/>
      </defs>
      <g style="fill:#262626;" transform="translate(379.552188 243.037656)scale(0.1 -0.1)">
       <use xlink:href="#DejaVuSans-31"/>
       <use x="63.623047" xlink:href="#DejaVuSans-30"/>
       <use x="127.246094" xlink:href="#DejaVuSans-30"/>
      </g>
     </g>
    </g>
    <g id="text_10">
     <!-- Daily maximum temperature (degrees F) -->
     <defs>
      <path d="M 19.671875 64.796875 
L 19.671875 8.109375 
L 31.59375 8.109375 
Q 46.6875 8.109375 53.6875 14.9375 
Q 60.6875 21.78125 60.6875 36.53125 
Q 60.6875 51.171875 53.6875 57.984375 
Q 46.6875 64.796875 31.59375 64.796875 
z
M 9.8125 72.90625 
L 30.078125 72.90625 
Q 51.265625 72.90625 61.171875 64.09375 
Q 71.09375 55.28125 71.09375 36.53125 
Q 71.09375 17.671875 61.125 8.828125 
Q 51.171875 0 30.078125 0 
L 9.8125 0 
z
" id="DejaVuSans-44"/>
      <path d="M 34.28125 27.484375 
Q 23.390625 27.484375 19.1875 25 
Q 14.984375 22.515625 14.984375 16.5 
Q 14.984375 11.71875 18.140625 8.90625 
Q 21.296875 6.109375 26.703125 6.109375 
Q 34.1875 6.109375 38.703125 11.40625 
Q 43.21875 16.703125 43.21875 25.484375 
L 43.21875 27.484375 
z
M 52.203125 31.203125 
L 52.203125 0 
L 43.21875 0 
L 43.21875 8.296875 
Q 40.140625 3.328125 35.546875 0.953125 
Q 30.953125 -1.421875 24.3125 -1.421875 
Q 15.921875 -1.421875 10.953125 3.296875 
Q 6 8.015625 6 15.921875 
Q 6 25.140625 12.171875 29.828125 
Q 18.359375 34.515625 30.609375 34.515625 
L 43.21875 34.515625 
L 43.21875 35.40625 
Q 43.21875 41.609375 39.140625 45 
Q 35.0625 48.390625 27.6875 48.390625 
Q 23 48.390625 18.546875 47.265625 
Q 14.109375 46.140625 10.015625 43.890625 
L 10.015625 52.203125 
Q 14.9375 54.109375 19.578125 55.046875 
Q 24.21875 56 28.609375 56 
Q 40.484375 56 46.34375 49.84375 
Q 52.203125 43.703125 52.203125 31.203125 
z
" id="DejaVuSans-61"/>
      <path d="M 9.421875 54.6875 
L 18.40625 54.6875 
L 18.40625 0 
L 9.421875 0 
z
M 9.421875 75.984375 
L 18.40625 75.984375 
L 18.40625 64.59375 
L 9.421875 64.59375 
z
" id="DejaVuSans-69"/>
      <path d="M 9.421875 75.984375 
L 18.40625 75.984375 
L 18.40625 0 
L 9.421875 0 
z
" id="DejaVuSans-6c"/>
      <path d="M 32.171875 -5.078125 
Q 28.375 -14.84375 24.75 -17.8125 
Q 21.140625 -20.796875 15.09375 -20.796875 
L 7.90625 -20.796875 
L 7.90625 -13.28125 
L 13.1875 -13.28125 
Q 16.890625 -13.28125 18.9375 -11.515625 
Q 21 -9.765625 23.484375 -3.21875 
L 25.09375 0.875 
L 2.984375 54.6875 
L 12.5 54.6875 
L 29.59375 11.921875 
L 46.6875 54.6875 
L 56.203125 54.6875 
z
" id="DejaVuSans-79"/>
      <path id="DejaVuSans-20"/>
      <path d="M 52 44.1875 
Q 55.375 50.25 60.0625 53.125 
Q 64.75 56 71.09375 56 
Q 79.640625 56 84.28125 50.015625 
Q 88.921875 44.046875 88.921875 33.015625 
L 88.921875 0 
L 79.890625 0 
L 79.890625 32.71875 
Q 79.890625 40.578125 77.09375 44.375 
Q 74.3125 48.1875 68.609375 48.1875 
Q 61.625 48.1875 57.5625 43.546875 
Q 53.515625 38.921875 53.515625 30.90625 
L 53.515625 0 
L 44.484375 0 
L 44.484375 32.71875 
Q 44.484375 40.625 41.703125 44.40625 
Q 38.921875 48.1875 33.109375 48.1875 
Q 26.21875 48.1875 22.15625 43.53125 
Q 18.109375 38.875 18.109375 30.90625 
L 18.109375 0 
L 9.078125 0 
L 9.078125 54.6875 
L 18.109375 54.6875 
L 18.109375 46.1875 
Q 21.1875 51.21875 25.484375 53.609375 
Q 29.78125 56 35.6875 56 
Q 41.65625 56 45.828125 52.96875 
Q 50 49.953125 52 44.1875 
z
" id="DejaVuSans-6d"/>
      <path d="M 54.890625 54.6875 
L 35.109375 28.078125 
L 55.90625 0 
L 45.3125 0 
L 29.390625 21.484375 
L 13.484375 0 
L 2.875 0 
L 24.125 28.609375 
L 4.6875 54.6875 
L 15.28125 54.6875 
L 29.78125 35.203125 
L 44.28125 54.6875 
z
" id="DejaVuSans-78"/>
      <path d="M 8.5 21.578125 
L 8.5 54.6875 
L 17.484375 54.6875 
L 17.484375 21.921875 
Q 17.484375 14.15625 20.5 10.265625 
Q 23.53125 6.390625 29.59375 6.390625 
Q 36.859375 6.390625 41.078125 11.03125 
Q 45.3125 15.671875 45.3125 23.6875 
L 45.3125 54.6875 
L 54.296875 54.6875 
L 54.296875 0 
L 45.3125 0 
L 45.3125 8.40625 
Q 42.046875 3.421875 37.71875 1 
Q 33.40625 -1.421875 27.6875 -1.421875 
Q 18.265625 -1.421875 13.375 4.4375 
Q 8.5 10.296875 8.5 21.578125 
z
M 31.109375 56 
z
" id="DejaVuSans-75"/>
      <path d="M 18.3125 70.21875 
L 18.3125 54.6875 
L 36.8125 54.6875 
L 36.8125 47.703125 
L 18.3125 47.703125 
L 18.3125 18.015625 
Q 18.3125 11.328125 20.140625 9.421875 
Q 21.96875 7.515625 27.59375 7.515625 
L 36.8125 7.515625 
L 36.8125 0 
L 27.59375 0 
Q 17.1875 0 13.234375 3.875 
Q 9.28125 7.765625 9.28125 18.015625 
L 9.28125 47.703125 
L 2.6875 47.703125 
L 2.6875 54.6875 
L 9.28125 54.6875 
L 9.28125 70.21875 
z
" id="DejaVuSans-74"/>
      <path d="M 56.203125 29.59375 
L 56.203125 25.203125 
L 14.890625 25.203125 
Q 15.484375 15.921875 20.484375 11.0625 
Q 25.484375 6.203125 34.421875 6.203125 
Q 39.59375 6.203125 44.453125 7.46875 
Q 49.3125 8.734375 54.109375 11.28125 
L 54.109375 2.78125 
Q 49.265625 0.734375 44.1875 -0.34375 
Q 39.109375 -1.421875 33.890625 -1.421875 
Q 20.796875 -1.421875 13.15625 6.1875 
Q 5.515625 13.8125 5.515625 26.8125 
Q 5.515625 40.234375 12.765625 48.109375 
Q 20.015625 56 32.328125 56 
Q 43.359375 56 49.78125 48.890625 
Q 56.203125 41.796875 56.203125 29.59375 
z
M 47.21875 32.234375 
Q 47.125 39.59375 43.09375 43.984375 
Q 39.0625 48.390625 32.421875 48.390625 
Q 24.90625 48.390625 20.390625 44.140625 
Q 15.875 39.890625 15.1875 32.171875 
z
" id="DejaVuSans-65"/>
      <path d="M 18.109375 8.203125 
L 18.109375 -20.796875 
L 9.078125 -20.796875 
L 9.078125 54.6875 
L 18.109375 54.6875 
L 18.109375 46.390625 
Q 20.953125 51.265625 25.265625 53.625 
Q 29.59375 56 35.59375 56 
Q 45.5625 56 51.78125 48.09375 
Q 58.015625 40.1875 58.015625 27.296875 
Q 58.015625 14.40625 51.78125 6.484375 
Q 45.5625 -1.421875 35.59375 -1.421875 
Q 29.59375 -1.421875 25.265625 0.953125 
Q 20.953125 3.328125 18.109375 8.203125 
z
M 48.6875 27.296875 
Q 48.6875 37.203125 44.609375 42.84375 
Q 40.53125 48.484375 33.40625 48.484375 
Q 26.265625 48.484375 22.1875 42.84375 
Q 18.109375 37.203125 18.109375 27.296875 
Q 18.109375 17.390625 22.1875 11.75 
Q 26.265625 6.109375 33.40625 6.109375 
Q 40.53125 6.109375 44.609375 11.75 
Q 48.6875 17.390625 48.6875 27.296875 
z
" id="DejaVuSans-70"/>
      <path d="M 41.109375 46.296875 
Q 39.59375 47.171875 37.8125 47.578125 
Q 36.03125 48 33.890625 48 
Q 26.265625 48 22.1875 43.046875 
Q 18.109375 38.09375 18.109375 28.8125 
L 18.109375 0 
L 9.078125 0 
L 9.078125 54.6875 
L 18.109375 54.6875 
L 18.109375 46.1875 
Q 20.953125 51.171875 25.484375 53.578125 
Q 30.03125 56 36.53125 56 
Q 37.453125 56 38.578125 55.875 
Q 39.703125 55.765625 41.0625 55.515625 
z
" id="DejaVuSans-72"/>
      <path d="M 31 75.875 
Q 24.46875 64.65625 21.28125 53.65625 
Q 18.109375 42.671875 18.109375 31.390625 
Q 18.109375 20.125 21.3125 9.0625 
Q 24.515625 -2 31 -13.1875 
L 23.1875 -13.1875 
Q 15.875 -1.703125 12.234375 9.375 
Q 8.59375 20.453125 8.59375 31.390625 
Q 8.59375 42.28125 12.203125 53.3125 
Q 15.828125 64.359375 23.1875 75.875 
z
" id="DejaVuSans-28"/>
      <path d="M 45.40625 46.390625 
L 45.40625 75.984375 
L 54.390625 75.984375 
L 54.390625 0 
L 45.40625 0 
L 45.40625 8.203125 
Q 42.578125 3.328125 38.25 0.953125 
Q 33.9375 -1.421875 27.875 -1.421875 
Q 17.96875 -1.421875 11.734375 6.484375 
Q 5.515625 14.40625 5.515625 27.296875 
Q 5.515625 40.1875 11.734375 48.09375 
Q 17.96875 56 27.875 56 
Q 33.9375 56 38.25 53.625 
Q 42.578125 51.265625 45.40625 46.390625 
z
M 14.796875 27.296875 
Q 14.796875 17.390625 18.875 11.75 
Q 22.953125 6.109375 30.078125 6.109375 
Q 37.203125 6.109375 41.296875 11.75 
Q 45.40625 17.390625 45.40625 27.296875 
Q 45.40625 37.203125 41.296875 42.84375 
Q 37.203125 48.484375 30.078125 48.484375 
Q 22.953125 48.484375 18.875 42.84375 
Q 14.796875 37.203125 14.796875 27.296875 
z
" id="DejaVuSans-64"/>
      <path d="M 45.40625 27.984375 
Q 45.40625 37.75 41.375 43.109375 
Q 37.359375 48.484375 30.078125 48.484375 
Q 22.859375 48.484375 18.828125 43.109375 
Q 14.796875 37.75 14.796875 27.984375 
Q 14.796875 18.265625 18.828125 12.890625 
Q 22.859375 7.515625 30.078125 7.515625 
Q 37.359375 7.515625 41.375 12.890625 
Q 45.40625 18.265625 45.40625 27.984375 
z
M 54.390625 6.78125 
Q 54.390625 -7.171875 48.1875 -13.984375 
Q 42 -20.796875 29.203125 -20.796875 
Q 24.46875 -20.796875 20.265625 -20.09375 
Q 16.0625 -19.390625 12.109375 -17.921875 
L 12.109375 -9.1875 
Q 16.0625 -11.328125 19.921875 -12.34375 
Q 23.78125 -13.375 27.78125 -13.375 
Q 36.625 -13.375 41.015625 -8.765625 
Q 45.40625 -4.15625 45.40625 5.171875 
L 45.40625 9.625 
Q 42.625 4.78125 38.28125 2.390625 
Q 33.9375 0 27.875 0 
Q 17.828125 0 11.671875 7.65625 
Q 5.515625 15.328125 5.515625 27.984375 
Q 5.515625 40.671875 11.671875 48.328125 
Q 17.828125 56 27.875 56 
Q 33.9375 56 38.28125 53.609375 
Q 42.625 51.21875 45.40625 46.390625 
L 45.40625 54.6875 
L 54.390625 54.6875 
z
" id="DejaVuSans-67"/>
      <path d="M 44.28125 53.078125 
L 44.28125 44.578125 
Q 40.484375 46.53125 36.375 47.5 
Q 32.28125 48.484375 27.875 48.484375 
Q 21.1875 48.484375 17.84375 46.4375 
Q 14.5 44.390625 14.5 40.28125 
Q 14.5 37.15625 16.890625 35.375 
Q 19.28125 33.59375 26.515625 31.984375 
L 29.59375 31.296875 
Q 39.15625 29.25 43.1875 25.515625 
Q 47.21875 21.78125 47.21875 15.09375 
Q 47.21875 7.46875 41.1875 3.015625 
Q 35.15625 -1.421875 24.609375 -1.421875 
Q 20.21875 -1.421875 15.453125 -0.5625 
Q 10.6875 0.296875 5.421875 2 
L 5.421875 11.28125 
Q 10.40625 8.6875 15.234375 7.390625 
Q 20.0625 6.109375 24.8125 6.109375 
Q 31.15625 6.109375 34.5625 8.28125 
Q 37.984375 10.453125 37.984375 14.40625 
Q 37.984375 18.0625 35.515625 20.015625 
Q 33.0625 21.96875 24.703125 23.78125 
L 21.578125 24.515625 
Q 13.234375 26.265625 9.515625 29.90625 
Q 5.8125 33.546875 5.8125 39.890625 
Q 5.8125 47.609375 11.28125 51.796875 
Q 16.75 56 26.8125 56 
Q 31.78125 56 36.171875 55.265625 
Q 40.578125 54.546875 44.28125 53.078125 
z
" id="DejaVuSans-73"/>
      <path d="M 9.8125 72.90625 
L 51.703125 72.90625 
L 51.703125 64.59375 
L 19.671875 64.59375 
L 19.671875 43.109375 
L 48.578125 43.109375 
L 48.578125 34.8125 
L 19.671875 34.8125 
L 19.671875 0 
L 9.8125 0 
z
" id="DejaVuSans-46"/>
      <path d="M 8.015625 75.875 
L 15.828125 75.875 
Q 23.140625 64.359375 26.78125 53.3125 
Q 30.421875 42.28125 30.421875 31.390625 
Q 30.421875 20.453125 26.78125 9.375 
Q 23.140625 -1.703125 15.828125 -13.1875 
L 8.015625 -13.1875 
Q 14.5 -2 17.703125 9.0625 
Q 20.90625 20.125 20.90625 31.390625 
Q 20.90625 42.671875 17.703125 53.65625 
Q 14.5 64.65625 8.015625 75.875 
z
" id="DejaVuSans-29"/>
     </defs>
     <g style="fill:#262626;" transform="translate(108.670078 257.475625)scale(0.11 -0.11)">
      <use xlink:href="#DejaVuSans-44"/>
      <use x="77.001953" xlink:href="#DejaVuSans-61"/>
      <use x="138.28125" xlink:href="#DejaVuSans-69"/>
      <use x="166.064453" xlink:href="#DejaVuSans-6c"/>
      <use x="193.847656" xlink:href="#DejaVuSans-79"/>
      <use x="253.027344" xlink:href="#DejaVuSans-20"/>
      <use x="284.814453" xlink:href="#DejaVuSans-6d"/>
      <use x="382.226562" xlink:href="#DejaVuSans-61"/>
      <use x="443.505859" xlink:href="#DejaVuSans-78"/>
      <use x="502.685547" xlink:href="#DejaVuSans-69"/>
      <use x="530.46875" xlink:href="#DejaVuSans-6d"/>
      <use x="627.880859" xlink:href="#DejaVuSans-75"/>
      <use x="691.259766" xlink:href="#DejaVuSans-6d"/>
      <use x="788.671875" xlink:href="#DejaVuSans-20"/>
      <use x="820.458984" xlink:href="#DejaVuSans-74"/>
      <use x="859.667969" xlink:href="#DejaVuSans-65"/>
      <use x="921.191406" xlink:href="#DejaVuSans-6d"/>
      <use x="1018.603516" xlink:href="#DejaVuSans-70"/>
      <use x="1082.080078" xlink:href="#DejaVuSans-65"/>
      <use x="1143.603516" xlink:href="#DejaVuSans-72"/>
      <use x="1184.716797" xlink:href="#DejaVuSans-61"/>
      <use x="1245.996094" xlink:href="#DejaVuSans-74"/>
      <use x="1285.205078" xlink:href="#DejaVuSans-75"/>
      <use x="1348.583984" xlink:href="#DejaVuSans-72"/>
      <use x="1389.666016" xlink:href="#DejaVuSans-65"/>
      <use x="1451.189453" xlink:href="#DejaVuSans-20"/>
      <use x="1482.976562" xlink:href="#DejaVuSans-28"/>
      <use x="1521.990234" xlink:href="#DejaVuSans-64"/>
      <use x="1585.466797" xlink:href="#DejaVuSans-65"/>
      <use x="1646.990234" xlink:href="#DejaVuSans-67"/>
      <use x="1710.466797" xlink:href="#DejaVuSans-72"/>
      <use x="1751.548828" xlink:href="#DejaVuSans-65"/>
      <use x="1813.072266" xlink:href="#DejaVuSans-65"/>
      <use x="1874.595703" xlink:href="#DejaVuSans-73"/>
      <use x="1926.695312" xlink:href="#DejaVuSans-20"/>
      <use x="1958.482422" xlink:href="#DejaVuSans-46"/>
      <use x="2016.001953" xlink:href="#DejaVuSans-29"/>
     </g>
    </g>
   </g>
   <g id="matplotlib.axis_2">
    <g id="ytick_1">
     <g id="line2d_19">
      <path clip-path="url(#p3cfdbb2be5)" d="M 54.295938 228.439219 
L 389.095938 228.439219 
" style="fill:none;stroke:#ffffff;stroke-linecap:round;"/>
     </g>
     <g id="line2d_20"/>
     <g id="text_11">
      <!-- 0 -->
      <g style="fill:#262626;" transform="translate(40.933438 232.238438)scale(0.1 -0.1)">
       <use xlink:href="#DejaVuSans-30"/>
      </g>
     </g>
    </g>
    <g id="ytick_2">
     <g id="line2d_21">
      <path clip-path="url(#p3cfdbb2be5)" d="M 54.295938 184.951219 
L 389.095938 184.951219 
" style="fill:none;stroke:#ffffff;stroke-linecap:round;"/>
     </g>
     <g id="line2d_22"/>
     <g id="text_12">
      <!-- 1000 -->
      <g style="fill:#262626;" transform="translate(21.845938 188.750438)scale(0.1 -0.1)">
       <use xlink:href="#DejaVuSans-31"/>
       <use x="63.623047" xlink:href="#DejaVuSans-30"/>
       <use x="127.246094" xlink:href="#DejaVuSans-30"/>
       <use x="190.869141" xlink:href="#DejaVuSans-30"/>
      </g>
     </g>
    </g>
    <g id="ytick_3">
     <g id="line2d_23">
      <path clip-path="url(#p3cfdbb2be5)" d="M 54.295938 141.463219 
L 389.095938 141.463219 
" style="fill:none;stroke:#ffffff;stroke-linecap:round;"/>
     </g>
     <g id="line2d_24"/>
     <g id="text_13">
      <!-- 2000 -->
      <g style="fill:#262626;" transform="translate(21.845938 145.262438)scale(0.1 -0.1)">
       <use xlink:href="#DejaVuSans-32"/>
       <use x="63.623047" xlink:href="#DejaVuSans-30"/>
       <use x="127.246094" xlink:href="#DejaVuSans-30"/>
       <use x="190.869141" xlink:href="#DejaVuSans-30"/>
      </g>
     </g>
    </g>
    <g id="ytick_4">
     <g id="line2d_25">
      <path clip-path="url(#p3cfdbb2be5)" d="M 54.295938 97.975219 
L 389.095938 97.975219 
" style="fill:none;stroke:#ffffff;stroke-linecap:round;"/>
     </g>
     <g id="line2d_26"/>
     <g id="text_14">
      <!-- 3000 -->
      <g style="fill:#262626;" transform="translate(21.845938 101.774438)scale(0.1 -0.1)">
       <use xlink:href="#DejaVuSans-33"/>
       <use x="63.623047" xlink:href="#DejaVuSans-30"/>
       <use x="127.246094" xlink:href="#DejaVuSans-30"/>
       <use x="190.869141" xlink:href="#DejaVuSans-30"/>
      </g>
     </g>
    </g>
    <g id="ytick_5">
     <g id="line2d_27">
      <path clip-path="url(#p3cfdbb2be5)" d="M 54.295938 54.487219 
L 389.095938 54.487219 
" style="fill:none;stroke:#ffffff;stroke-linecap:round;"/>
     </g>
     <g id="line2d_28"/>
     <g id="text_15">
      <!-- 4000 -->
      <g style="fill:#262626;" transform="translate(21.845938 58.286438)scale(0.1 -0.1)">
       <use xlink:href="#DejaVuSans-34"/>
       <use x="63.623047" xlink:href="#DejaVuSans-30"/>
       <use x="127.246094" xlink:href="#DejaVuSans-30"/>
       <use x="190.869141" xlink:href="#DejaVuSans-30"/>
      </g>
     </g>
    </g>
    <g id="ytick_6">
     <g id="line2d_29">
      <path clip-path="url(#p3cfdbb2be5)" d="M 54.295938 10.999219 
L 389.095938 10.999219 
" style="fill:none;stroke:#ffffff;stroke-linecap:round;"/>
     </g>
     <g id="line2d_30"/>
     <g id="text_16">
      <!-- 5000 -->
      <g style="fill:#262626;" transform="translate(21.845938 14.798438)scale(0.1 -0.1)">
       <use xlink:href="#DejaVuSans-35"/>
       <use x="63.623047" xlink:href="#DejaVuSans-30"/>
       <use x="127.246094" xlink:href="#DejaVuSans-30"/>
       <use x="190.869141" xlink:href="#DejaVuSans-30"/>
      </g>
     </g>
    </g>
    <g id="text_17">
     <!-- Number of rentals per day -->
     <defs>
      <path d="M 9.8125 72.90625 
L 23.09375 72.90625 
L 55.421875 11.921875 
L 55.421875 72.90625 
L 64.984375 72.90625 
L 64.984375 0 
L 51.703125 0 
L 19.390625 60.984375 
L 19.390625 0 
L 9.8125 0 
z
" id="DejaVuSans-4e"/>
      <path d="M 48.6875 27.296875 
Q 48.6875 37.203125 44.609375 42.84375 
Q 40.53125 48.484375 33.40625 48.484375 
Q 26.265625 48.484375 22.1875 42.84375 
Q 18.109375 37.203125 18.109375 27.296875 
Q 18.109375 17.390625 22.1875 11.75 
Q 26.265625 6.109375 33.40625 6.109375 
Q 40.53125 6.109375 44.609375 11.75 
Q 48.6875 17.390625 48.6875 27.296875 
z
M 18.109375 46.390625 
Q 20.953125 51.265625 25.265625 53.625 
Q 29.59375 56 35.59375 56 
Q 45.5625 56 51.78125 48.09375 
Q 58.015625 40.1875 58.015625 27.296875 
Q 58.015625 14.40625 51.78125 6.484375 
Q 45.5625 -1.421875 35.59375 -1.421875 
Q 29.59375 -1.421875 25.265625 0.953125 
Q 20.953125 3.328125 18.109375 8.203125 
L 18.109375 0 
L 9.078125 0 
L 9.078125 75.984375 
L 18.109375 75.984375 
z
" id="DejaVuSans-62"/>
      <path d="M 30.609375 48.390625 
Q 23.390625 48.390625 19.1875 42.75 
Q 14.984375 37.109375 14.984375 27.296875 
Q 14.984375 17.484375 19.15625 11.84375 
Q 23.34375 6.203125 30.609375 6.203125 
Q 37.796875 6.203125 41.984375 11.859375 
Q 46.1875 17.53125 46.1875 27.296875 
Q 46.1875 37.015625 41.984375 42.703125 
Q 37.796875 48.390625 30.609375 48.390625 
z
M 30.609375 56 
Q 42.328125 56 49.015625 48.375 
Q 55.71875 40.765625 55.71875 27.296875 
Q 55.71875 13.875 49.015625 6.21875 
Q 42.328125 -1.421875 30.609375 -1.421875 
Q 18.84375 -1.421875 12.171875 6.21875 
Q 5.515625 13.875 5.515625 27.296875 
Q 5.515625 40.765625 12.171875 48.375 
Q 18.84375 56 30.609375 56 
z
" id="DejaVuSans-6f"/>
      <path d="M 37.109375 75.984375 
L 37.109375 68.5 
L 28.515625 68.5 
Q 23.6875 68.5 21.796875 66.546875 
Q 19.921875 64.59375 19.921875 59.515625 
L 19.921875 54.6875 
L 34.71875 54.6875 
L 34.71875 47.703125 
L 19.921875 47.703125 
L 19.921875 0 
L 10.890625 0 
L 10.890625 47.703125 
L 2.296875 47.703125 
L 2.296875 54.6875 
L 10.890625 54.6875 
L 10.890625 58.5 
Q 10.890625 67.625 15.140625 71.796875 
Q 19.390625 75.984375 28.609375 75.984375 
z
" id="DejaVuSans-66"/>
      <path d="M 54.890625 33.015625 
L 54.890625 0 
L 45.90625 0 
L 45.90625 32.71875 
Q 45.90625 40.484375 42.875 44.328125 
Q 39.84375 48.1875 33.796875 48.1875 
Q 26.515625 48.1875 22.3125 43.546875 
Q 18.109375 38.921875 18.109375 30.90625 
L 18.109375 0 
L 9.078125 0 
L 9.078125 54.6875 
L 18.109375 54.6875 
L 18.109375 46.1875 
Q 21.34375 51.125 25.703125 53.5625 
Q 30.078125 56 35.796875 56 
Q 45.21875 56 50.046875 50.171875 
Q 54.890625 44.34375 54.890625 33.015625 
z
" id="DejaVuSans-6e"/>
     </defs>
     <g style="fill:#262626;" transform="translate(15.558281 192.410313)rotate(-90)scale(0.11 -0.11)">
      <use xlink:href="#DejaVuSans-4e"/>
      <use x="74.804688" xlink:href="#DejaVuSans-75"/>
      <use x="138.183594" xlink:href="#DejaVuSans-6d"/>
      <use x="235.595703" xlink:href="#DejaVuSans-62"/>
      <use x="299.072266" xlink:href="#DejaVuSans-65"/>
      <use x="360.595703" xlink:href="#DejaVuSans-72"/>
      <use x="401.708984" xlink:href="#DejaVuSans-20"/>
      <use x="433.496094" xlink:href="#DejaVuSans-6f"/>
      <use x="494.677734" xlink:href="#DejaVuSans-66"/>
      <use x="529.882812" xlink:href="#DejaVuSans-20"/>
      <use x="561.669922" xlink:href="#DejaVuSans-72"/>
      <use x="602.751953" xlink:href="#DejaVuSans-65"/>
      <use x="664.275391" xlink:href="#DejaVuSans-6e"/>
      <use x="727.654297" xlink:href="#DejaVuSans-74"/>
      <use x="766.863281" xlink:href="#DejaVuSans-61"/>
      <use x="828.142578" xlink:href="#DejaVuSans-6c"/>
      <use x="855.925781" xlink:href="#DejaVuSans-73"/>
      <use x="908.025391" xlink:href="#DejaVuSans-20"/>
      <use x="939.8125" xlink:href="#DejaVuSans-70"/>
      <use x="1003.289062" xlink:href="#DejaVuSans-65"/>
      <use x="1064.8125" xlink:href="#DejaVuSans-72"/>
      <use x="1105.925781" xlink:href="#DejaVuSans-20"/>
      <use x="1137.712891" xlink:href="#DejaVuSans-64"/>
      <use x="1201.189453" xlink:href="#DejaVuSans-61"/>
      <use x="1262.46875" xlink:href="#DejaVuSans-79"/>
     </g>
    </g>
   </g>
   <g id="PathCollection_1">
    <defs>
     <path d="M 0 3.5 
C 0.928211 3.5 1.81853 3.131218 2.474874 2.474874 
C 3.131218 1.81853 3.5 0.928211 3.5 0 
C 3.5 -0.928211 3.131218 -1.81853 2.474874 -2.474874 
C 1.81853 -3.131218 0.928211 -3.5 0 -3.5 
C -0.928211 -3.5 -1.81853 -3.131218 -2.474874 -2.474874 
C -3.131218 -1.81853 -3.5 -0.928211 -3.5 0 
C -3.5 0.928211 -3.131218 1.81853 -2.474874 2.474874 
C -1.81853 3.131218 -0.928211 3.5 0 3.5 
z
" id="m269a0b0601"/>
    </defs>
    <g clip-path="url(#p3cfdbb2be5)">
     <use style="fill:#4c72b0;fill-opacity:0.8;" x="192.400938" xlink:href="#m269a0b0601" y="204.825235"/>
     <use style="fill:#4c72b0;fill-opacity:0.8;" x="175.660938" xlink:href="#m269a0b0601" y="168.208339"/>
     <use style="fill:#4c72b0;fill-opacity:0.8;" x="217.510938" xlink:href="#m269a0b0601" y="176.036179"/>
     <use style="fill:#4c72b0;fill-opacity:0.8;" x="188.215938" xlink:href="#m269a0b0601" y="171.687379"/>
     <use style="fill:#4c72b0;fill-opacity:0.8;" x="188.215938" xlink:href="#m269a0b0601" y="156.292627"/>
     <use style="fill:#4c72b0;fill-opacity:0.8;" x="213.325938" xlink:href="#m269a0b0601" y="104.150515"/>
     <use style="fill:#4c72b0;fill-opacity:0.8;" x="259.360938" xlink:href="#m269a0b0601" y="158.858419"/>
     <use style="fill:#4c72b0;fill-opacity:0.8;" x="263.545938" xlink:href="#m269a0b0601" y="199.911091"/>
     <use style="fill:#4c72b0;fill-opacity:0.8;" x="150.550938" xlink:href="#m269a0b0601" y="181.559155"/>
     <use style="fill:#4c72b0;fill-opacity:0.8;" x="179.845938" xlink:href="#m269a0b0601" y="189.604435"/>
     <use style="fill:#4c72b0;fill-opacity:0.8;" x="196.585938" xlink:href="#m269a0b0601" y="170.817619"/>
     <use style="fill:#4c72b0;fill-opacity:0.8;" x="188.215938" xlink:href="#m269a0b0601" y="171.643891"/>
     <use style="fill:#4c72b0;fill-opacity:0.8;" x="230.065938" xlink:href="#m269a0b0601" y="164.033491"/>
     <use style="fill:#4c72b0;fill-opacity:0.8;" x="263.545938" xlink:href="#m269a0b0601" y="135.505363"/>
     <use style="fill:#4c72b0;fill-opacity:0.8;" x="230.065938" xlink:href="#m269a0b0601" y="149.204083"/>
     <use style="fill:#4c72b0;fill-opacity:0.8;" x="204.955938" xlink:href="#m269a0b0601" y="188.430259"/>
     <use style="fill:#4c72b0;fill-opacity:0.8;" x="230.065938" xlink:href="#m269a0b0601" y="194.431603"/>
     <use style="fill:#4c72b0;fill-opacity:0.8;" x="179.845938" xlink:href="#m269a0b0601" y="184.951219"/>
     <use style="fill:#4c72b0;fill-opacity:0.8;" x="171.475938" xlink:href="#m269a0b0601" y="133.070035"/>
     <use style="fill:#4c72b0;fill-opacity:0.8;" x="221.695938" xlink:href="#m269a0b0601" y="78.014227"/>
     <use style="fill:#4c72b0;fill-opacity:0.8;" x="250.990938" xlink:href="#m269a0b0601" y="113.630899"/>
     <use style="fill:#4c72b0;fill-opacity:0.8;" x="246.805938" xlink:href="#m269a0b0601" y="158.727955"/>
     <use style="fill:#4c72b0;fill-opacity:0.8;" x="263.545938" xlink:href="#m269a0b0601" y="185.734003"/>
     <use style="fill:#4c72b0;fill-opacity:0.8;" x="217.510938" xlink:href="#m269a0b0601" y="197.867155"/>
     <use style="fill:#4c72b0;fill-opacity:0.8;" x="129.625938" xlink:href="#m269a0b0601" y="196.214611"/>
     <use style="fill:#4c72b0;fill-opacity:0.8;" x="117.070938" xlink:href="#m269a0b0601" y="168.382291"/>
     <use style="fill:#4c72b0;fill-opacity:0.8;" x="171.475938" xlink:href="#m269a0b0601" y="156.075187"/>
     <use style="fill:#4c72b0;fill-opacity:0.8;" x="192.400938" xlink:href="#m269a0b0601" y="212.218195"/>
     <use style="fill:#4c72b0;fill-opacity:0.8;" x="158.920938" xlink:href="#m269a0b0601" y="209.565427"/>
     <use style="fill:#4c72b0;fill-opacity:0.8;" x="133.810938" xlink:href="#m269a0b0601" y="161.772115"/>
     <use style="fill:#4c72b0;fill-opacity:0.8;" x="221.695938" xlink:href="#m269a0b0601" y="150.030355"/>
     <use style="fill:#4c72b0;fill-opacity:0.8;" x="238.435938" xlink:href="#m269a0b0601" y="136.331635"/>
     <use style="fill:#4c72b0;fill-opacity:0.8;" x="250.990938" xlink:href="#m269a0b0601" y="114.892051"/>
     <use style="fill:#4c72b0;fill-opacity:0.8;" x="292.840938" xlink:href="#m269a0b0601" y="90.451795"/>
     <use style="fill:#4c72b0;fill-opacity:0.8;" x="246.805938" xlink:href="#m269a0b0601" y="114.935539"/>
     <use style="fill:#4c72b0;fill-opacity:0.8;" x="242.620938" xlink:href="#m269a0b0601" y="150.856627"/>
     <use style="fill:#4c72b0;fill-opacity:0.8;" x="259.360938" xlink:href="#m269a0b0601" y="145.725043"/>
     <use style="fill:#4c72b0;fill-opacity:0.8;" x="263.545938" xlink:href="#m269a0b0601" y="143.376691"/>
     <use style="fill:#4c72b0;fill-opacity:0.8;" x="246.805938" xlink:href="#m269a0b0601" y="117.066451"/>
     <use style="fill:#4c72b0;fill-opacity:0.8;" x="246.805938" xlink:href="#m269a0b0601" y="117.022963"/>
     <use style="fill:#4c72b0;fill-opacity:0.8;" x="284.470938" xlink:href="#m269a0b0601" y="73.708915"/>
     <use style="fill:#4c72b0;fill-opacity:0.8;" x="305.395938" xlink:href="#m269a0b0601" y="104.846323"/>
     <use style="fill:#4c72b0;fill-opacity:0.8;" x="317.950938" xlink:href="#m269a0b0601" y="153.378931"/>
     <use style="fill:#4c72b0;fill-opacity:0.8;" x="259.360938" xlink:href="#m269a0b0601" y="157.858195"/>
     <use style="fill:#4c72b0;fill-opacity:0.8;" x="309.580938" xlink:href="#m269a0b0601" y="191.778835"/>
     <use style="fill:#4c72b0;fill-opacity:0.8;" x="259.360938" xlink:href="#m269a0b0601" y="176.514547"/>
     <use style="fill:#4c72b0;fill-opacity:0.8;" x="192.400938" xlink:href="#m269a0b0601" y="165.599059"/>
     <use style="fill:#4c72b0;fill-opacity:0.8;" x="192.400938" xlink:href="#m269a0b0601" y="219.263251"/>
     <use style="fill:#4c72b0;fill-opacity:0.8;" x="179.845938" xlink:href="#m269a0b0601" y="199.519699"/>
     <use style="fill:#4c72b0;fill-opacity:0.8;" x="179.845938" xlink:href="#m269a0b0601" y="143.768083"/>
     <use style="fill:#4c72b0;fill-opacity:0.8;" x="238.435938" xlink:href="#m269a0b0601" y="165.555571"/>
     <use style="fill:#4c72b0;fill-opacity:0.8;" x="221.695938" xlink:href="#m269a0b0601" y="152.074291"/>
     <use style="fill:#4c72b0;fill-opacity:0.8;" x="225.880938" xlink:href="#m269a0b0601" y="137.462323"/>
     <use style="fill:#4c72b0;fill-opacity:0.8;" x="263.545938" xlink:href="#m269a0b0601" y="114.065779"/>
     <use style="fill:#4c72b0;fill-opacity:0.8;" x="305.395938" xlink:href="#m269a0b0601" y="68.229427"/>
     <use style="fill:#4c72b0;fill-opacity:0.8;" x="271.915938" xlink:href="#m269a0b0601" y="83.624179"/>
     <use style="fill:#4c72b0;fill-opacity:0.8;" x="276.100938" xlink:href="#m269a0b0601" y="164.294419"/>
     <use style="fill:#4c72b0;fill-opacity:0.8;" x="238.435938" xlink:href="#m269a0b0601" y="165.859987"/>
     <use style="fill:#4c72b0;fill-opacity:0.8;" x="217.510938" xlink:href="#m269a0b0601" y="132.243763"/>
     <use style="fill:#4c72b0;fill-opacity:0.8;" x="276.100938" xlink:href="#m269a0b0601" y="128.286355"/>
     <use style="fill:#4c72b0;fill-opacity:0.8;" x="301.210938" xlink:href="#m269a0b0601" y="114.674611"/>
     <use style="fill:#4c72b0;fill-opacity:0.8;" x="338.875938" xlink:href="#m269a0b0601" y="101.193331"/>
     <use style="fill:#4c72b0;fill-opacity:0.8;" x="343.060938" xlink:href="#m269a0b0601" y="112.587187"/>
     <use style="fill:#4c72b0;fill-opacity:0.8;" x="334.690938" xlink:href="#m269a0b0601" y="123.937555"/>
     <use style="fill:#4c72b0;fill-opacity:0.8;" x="322.135938" xlink:href="#m269a0b0601" y="120.415027"/>
     <use style="fill:#4c72b0;fill-opacity:0.8;" x="305.395938" xlink:href="#m269a0b0601" y="120.980371"/>
     <use style="fill:#4c72b0;fill-opacity:0.8;" x="330.505938" xlink:href="#m269a0b0601" y="118.718995"/>
     <use style="fill:#4c72b0;fill-opacity:0.8;" x="309.580938" xlink:href="#m269a0b0601" y="110.108371"/>
     <use style="fill:#4c72b0;fill-opacity:0.8;" x="317.950938" xlink:href="#m269a0b0601" y="104.802835"/>
     <use style="fill:#4c72b0;fill-opacity:0.8;" x="359.800938" xlink:href="#m269a0b0601" y="162.641875"/>
     <use style="fill:#4c72b0;fill-opacity:0.8;" x="276.100938" xlink:href="#m269a0b0601" y="152.683123"/>
     <use style="fill:#4c72b0;fill-opacity:0.8;" x="305.395938" xlink:href="#m269a0b0601" y="127.634035"/>
     <use style="fill:#4c72b0;fill-opacity:0.8;" x="338.875938" xlink:href="#m269a0b0601" y="125.546611"/>
     <use style="fill:#4c72b0;fill-opacity:0.8;" x="317.950938" xlink:href="#m269a0b0601" y="113.326483"/>
     <use style="fill:#4c72b0;fill-opacity:0.8;" x="322.135938" xlink:href="#m269a0b0601" y="106.846771"/>
     <use style="fill:#4c72b0;fill-opacity:0.8;" x="317.950938" xlink:href="#m269a0b0601" y="96.757555"/>
     <use style="fill:#4c72b0;fill-opacity:0.8;" x="313.765938" xlink:href="#m269a0b0601" y="109.934419"/>
     <use style="fill:#4c72b0;fill-opacity:0.8;" x="267.730938" xlink:href="#m269a0b0601" y="113.848339"/>
     <use style="fill:#4c72b0;fill-opacity:0.8;" x="267.730938" xlink:href="#m269a0b0601" y="121.545715"/>
     <use style="fill:#4c72b0;fill-opacity:0.8;" x="276.100938" xlink:href="#m269a0b0601" y="104.672371"/>
     <use style="fill:#4c72b0;fill-opacity:0.8;" x="305.395938" xlink:href="#m269a0b0601" y="171.861331"/>
     <use style="fill:#4c72b0;fill-opacity:0.8;" x="263.545938" xlink:href="#m269a0b0601" y="112.978579"/>
     <use style="fill:#4c72b0;fill-opacity:0.8;" x="263.545938" xlink:href="#m269a0b0601" y="108.020947"/>
     <use style="fill:#4c72b0;fill-opacity:0.8;" x="238.435938" xlink:href="#m269a0b0601" y="101.889139"/>
     <use style="fill:#4c72b0;fill-opacity:0.8;" x="246.805938" xlink:href="#m269a0b0601" y="105.890035"/>
     <use style="fill:#4c72b0;fill-opacity:0.8;" x="259.360938" xlink:href="#m269a0b0601" y="85.581139"/>
     <use style="fill:#4c72b0;fill-opacity:0.8;" x="284.470938" xlink:href="#m269a0b0601" y="144.681331"/>
     <use style="fill:#4c72b0;fill-opacity:0.8;" x="301.210938" xlink:href="#m269a0b0601" y="85.537651"/>
     <use style="fill:#4c72b0;fill-opacity:0.8;" x="280.285938" xlink:href="#m269a0b0601" y="96.409651"/>
     <use style="fill:#4c72b0;fill-opacity:0.8;" x="292.840938" xlink:href="#m269a0b0601" y="46.094035"/>
     <use style="fill:#4c72b0;fill-opacity:0.8;" x="280.285938" xlink:href="#m269a0b0601" y="28.307443"/>
     <use style="fill:#4c72b0;fill-opacity:0.8;" x="297.025938" xlink:href="#m269a0b0601" y="48.094483"/>
     <use style="fill:#4c72b0;fill-opacity:0.8;" x="309.580938" xlink:href="#m269a0b0601" y="41.962675"/>
     <use style="fill:#4c72b0;fill-opacity:0.8;" x="326.320938" xlink:href="#m269a0b0601" y="115.892275"/>
     <use style="fill:#4c72b0;fill-opacity:0.8;" x="347.245938" xlink:href="#m269a0b0601" y="119.153875"/>
     <use style="fill:#4c72b0;fill-opacity:0.8;" x="351.430938" xlink:href="#m269a0b0601" y="91.452019"/>
     <use style="fill:#4c72b0;fill-opacity:0.8;" x="305.395938" xlink:href="#m269a0b0601" y="53.791411"/>
     <use style="fill:#4c72b0;fill-opacity:0.8;" x="305.395938" xlink:href="#m269a0b0601" y="107.803507"/>
     <use style="fill:#4c72b0;fill-opacity:0.8;" x="313.765938" xlink:href="#m269a0b0601" y="111.282547"/>
     <use style="fill:#4c72b0;fill-opacity:0.8;" x="317.950938" xlink:href="#m269a0b0601" y="110.760691"/>
     <use style="fill:#4c72b0;fill-opacity:0.8;" x="322.135938" xlink:href="#m269a0b0601" y="108.499315"/>
     <use style="fill:#4c72b0;fill-opacity:0.8;" x="322.135938" xlink:href="#m269a0b0601" y="112.021843"/>
     <use style="fill:#4c72b0;fill-opacity:0.8;" x="255.175938" xlink:href="#m269a0b0601" y="89.538547"/>
     <use style="fill:#4c72b0;fill-opacity:0.8;" x="284.470938" xlink:href="#m269a0b0601" y="82.276051"/>
     <use style="fill:#4c72b0;fill-opacity:0.8;" x="351.430938" xlink:href="#m269a0b0601" y="89.625523"/>
     <use style="fill:#4c72b0;fill-opacity:0.8;" x="313.765938" xlink:href="#m269a0b0601" y="120.371539"/>
     <use style="fill:#4c72b0;fill-opacity:0.8;" x="347.245938" xlink:href="#m269a0b0601" y="139.158355"/>
     <use style="fill:#4c72b0;fill-opacity:0.8;" x="297.025938" xlink:href="#m269a0b0601" y="121.110835"/>
     <use style="fill:#4c72b0;fill-opacity:0.8;" x="305.395938" xlink:href="#m269a0b0601" y="112.108819"/>
     <use style="fill:#4c72b0;fill-opacity:0.8;" x="330.505938" xlink:href="#m269a0b0601" y="105.150739"/>
     <use style="fill:#4c72b0;fill-opacity:0.8;" x="313.765938" xlink:href="#m269a0b0601" y="48.703315"/>
     <use style="fill:#4c72b0;fill-opacity:0.8;" x="334.690938" xlink:href="#m269a0b0601" y="89.973427"/>
     <use style="fill:#4c72b0;fill-opacity:0.8;" x="284.470938" xlink:href="#m269a0b0601" y="106.368403"/>
     <use style="fill:#4c72b0;fill-opacity:0.8;" x="292.840938" xlink:href="#m269a0b0601" y="143.463667"/>
     <use style="fill:#4c72b0;fill-opacity:0.8;" x="313.765938" xlink:href="#m269a0b0601" y="128.808211"/>
     <use style="fill:#4c72b0;fill-opacity:0.8;" x="309.580938" xlink:href="#m269a0b0601" y="108.760243"/>
     <use style="fill:#4c72b0;fill-opacity:0.8;" x="309.580938" xlink:href="#m269a0b0601" y="90.712723"/>
     <use style="fill:#4c72b0;fill-opacity:0.8;" x="313.765938" xlink:href="#m269a0b0601" y="58.705555"/>
     <use style="fill:#4c72b0;fill-opacity:0.8;" x="317.950938" xlink:href="#m269a0b0601" y="88.016467"/>
     <use style="fill:#4c72b0;fill-opacity:0.8;" x="322.135938" xlink:href="#m269a0b0601" y="107.673043"/>
     <use style="fill:#4c72b0;fill-opacity:0.8;" x="326.320938" xlink:href="#m269a0b0601" y="108.803731"/>
     <use style="fill:#4c72b0;fill-opacity:0.8;" x="326.320938" xlink:href="#m269a0b0601" y="101.323795"/>
     <use style="fill:#4c72b0;fill-opacity:0.8;" x="297.025938" xlink:href="#m269a0b0601" y="179.645683"/>
     <use style="fill:#4c72b0;fill-opacity:0.8;" x="221.695938" xlink:href="#m269a0b0601" y="97.757779"/>
     <use style="fill:#4c72b0;fill-opacity:0.8;" x="280.285938" xlink:href="#m269a0b0601" y="86.233459"/>
     <use style="fill:#4c72b0;fill-opacity:0.8;" x="284.470938" xlink:href="#m269a0b0601" y="123.285235"/>
     <use style="fill:#4c72b0;fill-opacity:0.8;" x="271.915938" xlink:href="#m269a0b0601" y="95.974771"/>
     <use style="fill:#4c72b0;fill-opacity:0.8;" x="292.840938" xlink:href="#m269a0b0601" y="105.368179"/>
     <use style="fill:#4c72b0;fill-opacity:0.8;" x="301.210938" xlink:href="#m269a0b0601" y="179.776147"/>
     <use style="fill:#4c72b0;fill-opacity:0.8;" x="250.990938" xlink:href="#m269a0b0601" y="141.463219"/>
     <use style="fill:#4c72b0;fill-opacity:0.8;" x="263.545938" xlink:href="#m269a0b0601" y="100.410547"/>
     <use style="fill:#4c72b0;fill-opacity:0.8;" x="288.655938" xlink:href="#m269a0b0601" y="61.619251"/>
     <use style="fill:#4c72b0;fill-opacity:0.8;" x="292.840938" xlink:href="#m269a0b0601" y="161.554675"/>
     <use style="fill:#4c72b0;fill-opacity:0.8;" x="255.175938" xlink:href="#m269a0b0601" y="136.896979"/>
     <use style="fill:#4c72b0;fill-opacity:0.8;" x="276.100938" xlink:href="#m269a0b0601" y="116.718547"/>
     <use style="fill:#4c72b0;fill-opacity:0.8;" x="288.655938" xlink:href="#m269a0b0601" y="165.990451"/>
     <use style="fill:#4c72b0;fill-opacity:0.8;" x="288.655938" xlink:href="#m269a0b0601" y="146.768755"/>
     <use style="fill:#4c72b0;fill-opacity:0.8;" x="263.545938" xlink:href="#m269a0b0601" y="144.898771"/>
     <use style="fill:#4c72b0;fill-opacity:0.8;" x="271.915938" xlink:href="#m269a0b0601" y="80.884435"/>
     <use style="fill:#4c72b0;fill-opacity:0.8;" x="297.025938" xlink:href="#m269a0b0601" y="122.937331"/>
     <use style="fill:#4c72b0;fill-opacity:0.8;" x="317.950938" xlink:href="#m269a0b0601" y="161.250259"/>
     <use style="fill:#4c72b0;fill-opacity:0.8;" x="297.025938" xlink:href="#m269a0b0601" y="128.764723"/>
     <use style="fill:#4c72b0;fill-opacity:0.8;" x="271.915938" xlink:href="#m269a0b0601" y="118.458067"/>
     <use style="fill:#4c72b0;fill-opacity:0.8;" x="271.915938" xlink:href="#m269a0b0601" y="122.285011"/>
     <use style="fill:#4c72b0;fill-opacity:0.8;" x="267.730938" xlink:href="#m269a0b0601" y="158.597491"/>
     <use style="fill:#4c72b0;fill-opacity:0.8;" x="255.175938" xlink:href="#m269a0b0601" y="198.215059"/>
     <use style="fill:#4c72b0;fill-opacity:0.8;" x="242.620938" xlink:href="#m269a0b0601" y="146.638291"/>
     <use style="fill:#4c72b0;fill-opacity:0.8;" x="267.730938" xlink:href="#m269a0b0601" y="139.201843"/>
     <use style="fill:#4c72b0;fill-opacity:0.8;" x="267.730938" xlink:href="#m269a0b0601" y="127.199155"/>
     <use style="fill:#4c72b0;fill-opacity:0.8;" x="297.025938" xlink:href="#m269a0b0601" y="128.503795"/>
     <use style="fill:#4c72b0;fill-opacity:0.8;" x="305.395938" xlink:href="#m269a0b0601" y="114.283219"/>
     <use style="fill:#4c72b0;fill-opacity:0.8;" x="259.360938" xlink:href="#m269a0b0601" y="121.589203"/>
     <use style="fill:#4c72b0;fill-opacity:0.8;" x="263.545938" xlink:href="#m269a0b0601" y="97.018483"/>
     <use style="fill:#4c72b0;fill-opacity:0.8;" x="297.025938" xlink:href="#m269a0b0601" y="81.667219"/>
     <use style="fill:#4c72b0;fill-opacity:0.8;" x="317.950938" xlink:href="#m269a0b0601" y="136.331635"/>
     <use style="fill:#4c72b0;fill-opacity:0.8;" x="276.100938" xlink:href="#m269a0b0601" y="143.942035"/>
     <use style="fill:#4c72b0;fill-opacity:0.8;" x="230.065938" xlink:href="#m269a0b0601" y="131.982835"/>
     <use style="fill:#4c72b0;fill-opacity:0.8;" x="242.620938" xlink:href="#m269a0b0601" y="129.721459"/>
     <use style="fill:#4c72b0;fill-opacity:0.8;" x="242.620938" xlink:href="#m269a0b0601" y="109.586515"/>
     <use style="fill:#4c72b0;fill-opacity:0.8;" x="246.805938" xlink:href="#m269a0b0601" y="98.279635"/>
     <use style="fill:#4c72b0;fill-opacity:0.8;" x="271.915938" xlink:href="#m269a0b0601" y="129.590995"/>
     <use style="fill:#4c72b0;fill-opacity:0.8;" x="297.025938" xlink:href="#m269a0b0601" y="102.237043"/>
     <use style="fill:#4c72b0;fill-opacity:0.8;" x="301.210938" xlink:href="#m269a0b0601" y="115.152979"/>
     <use style="fill:#4c72b0;fill-opacity:0.8;" x="317.950938" xlink:href="#m269a0b0601" y="112.500211"/>
     <use style="fill:#4c72b0;fill-opacity:0.8;" x="322.135938" xlink:href="#m269a0b0601" y="115.761811"/>
     <use style="fill:#4c72b0;fill-opacity:0.8;" x="334.690938" xlink:href="#m269a0b0601" y="110.369299"/>
     <use style="fill:#4c72b0;fill-opacity:0.8;" x="305.395938" xlink:href="#m269a0b0601" y="119.719219"/>
     <use style="fill:#4c72b0;fill-opacity:0.8;" x="280.285938" xlink:href="#m269a0b0601" y="133.591891"/>
     <use style="fill:#4c72b0;fill-opacity:0.8;" x="238.435938" xlink:href="#m269a0b0601" y="177.123379"/>
     <use style="fill:#4c72b0;fill-opacity:0.8;" x="213.325938" xlink:href="#m269a0b0601" y="124.111507"/>
     <use style="fill:#4c72b0;fill-opacity:0.8;" x="292.840938" xlink:href="#m269a0b0601" y="127.851475"/>
     <use style="fill:#4c72b0;fill-opacity:0.8;" x="276.100938" xlink:href="#m269a0b0601" y="120.936883"/>
     <use style="fill:#4c72b0;fill-opacity:0.8;" x="305.395938" xlink:href="#m269a0b0601" y="132.330739"/>
     <use style="fill:#4c72b0;fill-opacity:0.8;" x="351.430938" xlink:href="#m269a0b0601" y="116.805523"/>
     <use style="fill:#4c72b0;fill-opacity:0.8;" x="330.505938" xlink:href="#m269a0b0601" y="141.158803"/>
     <use style="fill:#4c72b0;fill-opacity:0.8;" x="334.690938" xlink:href="#m269a0b0601" y="162.163507"/>
     <use style="fill:#4c72b0;fill-opacity:0.8;" x="221.695938" xlink:href="#m269a0b0601" y="151.726387"/>
     <use style="fill:#4c72b0;fill-opacity:0.8;" x="230.065938" xlink:href="#m269a0b0601" y="138.593011"/>
     <use style="fill:#4c72b0;fill-opacity:0.8;" x="238.435938" xlink:href="#m269a0b0601" y="137.636275"/>
     <use style="fill:#4c72b0;fill-opacity:0.8;" x="230.065938" xlink:href="#m269a0b0601" y="121.154323"/>
     <use style="fill:#4c72b0;fill-opacity:0.8;" x="230.065938" xlink:href="#m269a0b0601" y="106.542355"/>
     <use style="fill:#4c72b0;fill-opacity:0.8;" x="250.990938" xlink:href="#m269a0b0601" y="186.560275"/>
     <use style="fill:#4c72b0;fill-opacity:0.8;" x="225.880938" xlink:href="#m269a0b0601" y="176.905939"/>
     <use style="fill:#4c72b0;fill-opacity:0.8;" x="259.360938" xlink:href="#m269a0b0601" y="160.076083"/>
     <use style="fill:#4c72b0;fill-opacity:0.8;" x="259.360938" xlink:href="#m269a0b0601" y="137.070931"/>
     <use style="fill:#4c72b0;fill-opacity:0.8;" x="209.140938" xlink:href="#m269a0b0601" y="150.987091"/>
     <use style="fill:#4c72b0;fill-opacity:0.8;" x="234.250938" xlink:href="#m269a0b0601" y="176.688499"/>
     <use style="fill:#4c72b0;fill-opacity:0.8;" x="213.325938" xlink:href="#m269a0b0601" y="159.075859"/>
     <use style="fill:#4c72b0;fill-opacity:0.8;" x="242.620938" xlink:href="#m269a0b0601" y="130.504243"/>
     <use style="fill:#4c72b0;fill-opacity:0.8;" x="255.175938" xlink:href="#m269a0b0601" y="161.163283"/>
     <use style="fill:#4c72b0;fill-opacity:0.8;" x="196.585938" xlink:href="#m269a0b0601" y="166.077427"/>
     <use style="fill:#4c72b0;fill-opacity:0.8;" x="179.845938" xlink:href="#m269a0b0601" y="154.683571"/>
     <use style="fill:#4c72b0;fill-opacity:0.8;" x="192.400938" xlink:href="#m269a0b0601" y="157.249363"/>
     <use style="fill:#4c72b0;fill-opacity:0.8;" x="230.065938" xlink:href="#m269a0b0601" y="144.289939"/>
     <use style="fill:#4c72b0;fill-opacity:0.8;" x="213.325938" xlink:href="#m269a0b0601" y="187.256083"/>
     <use style="fill:#4c72b0;fill-opacity:0.8;" x="204.955938" xlink:href="#m269a0b0601" y="173.339923"/>
     <use style="fill:#4c72b0;fill-opacity:0.8;" x="184.030938" xlink:href="#m269a0b0601" y="154.335667"/>
     <use style="fill:#4c72b0;fill-opacity:0.8;" x="238.435938" xlink:href="#m269a0b0601" y="149.421523"/>
     <use style="fill:#4c72b0;fill-opacity:0.8;" x="267.730938" xlink:href="#m269a0b0601" y="148.160371"/>
     <use style="fill:#4c72b0;fill-opacity:0.8;" x="263.545938" xlink:href="#m269a0b0601" y="146.290387"/>
     <use style="fill:#4c72b0;fill-opacity:0.8;" x="267.730938" xlink:href="#m269a0b0601" y="129.721459"/>
     <use style="fill:#4c72b0;fill-opacity:0.8;" x="288.655938" xlink:href="#m269a0b0601" y="182.559379"/>
     <use style="fill:#4c72b0;fill-opacity:0.8;" x="246.805938" xlink:href="#m269a0b0601" y="161.293747"/>
     <use style="fill:#4c72b0;fill-opacity:0.8;" x="225.880938" xlink:href="#m269a0b0601" y="172.252723"/>
     <use style="fill:#4c72b0;fill-opacity:0.8;" x="213.325938" xlink:href="#m269a0b0601" y="183.777043"/>
     <use style="fill:#4c72b0;fill-opacity:0.8;" x="175.660938" xlink:href="#m269a0b0601" y="170.513203"/>
     <use style="fill:#4c72b0;fill-opacity:0.8;" x="200.770938" xlink:href="#m269a0b0601" y="181.298227"/>
     <use style="fill:#4c72b0;fill-opacity:0.8;" x="200.770938" xlink:href="#m269a0b0601" y="214.175155"/>
     <use style="fill:#4c72b0;fill-opacity:0.8;" x="104.515938" xlink:href="#m269a0b0601" y="207.608467"/>
     <use style="fill:#4c72b0;fill-opacity:0.8;" x="100.330938" xlink:href="#m269a0b0601" y="207.130099"/>
     <use style="fill:#4c72b0;fill-opacity:0.8;" x="142.180938" xlink:href="#m269a0b0601" y="197.562739"/>
     <use style="fill:#4c72b0;fill-opacity:0.8;" x="121.255938" xlink:href="#m269a0b0601" y="197.040883"/>
     <use style="fill:#4c72b0;fill-opacity:0.8;" x="108.700938" xlink:href="#m269a0b0601" y="205.781971"/>
     <use style="fill:#4c72b0;fill-opacity:0.8;" x="117.070938" xlink:href="#m269a0b0601" y="199.519699"/>
     <use style="fill:#4c72b0;fill-opacity:0.8;" x="125.440938" xlink:href="#m269a0b0601" y="204.433843"/>
     <use style="fill:#4c72b0;fill-opacity:0.8;" x="108.700938" xlink:href="#m269a0b0601" y="214.349107"/>
     <use style="fill:#4c72b0;fill-opacity:0.8;" x="142.180938" xlink:href="#m269a0b0601" y="216.175603"/>
    </g>
   </g>
   <g id="PolyCollection_1">
    <path clip-path="url(#p3cfdbb2be5)" d="M 86.992852 199.509528 
L 86.992852 219.608674 
L 89.883217 218.191893 
L 92.773583 216.775112 
L 95.663948 215.358331 
L 98.554313 213.94155 
L 101.444679 212.547299 
L 104.335044 211.155153 
L 107.225409 209.763008 
L 110.115775 208.370862 
L 113.00614 206.978716 
L 115.896505 205.643722 
L 118.786871 204.231144 
L 121.677236 202.809325 
L 124.567602 201.472188 
L 127.457967 200.133953 
L 130.348332 198.795718 
L 133.238698 197.457483 
L 136.129063 196.042544 
L 139.019428 194.60886 
L 141.909794 193.161431 
L 144.800159 191.714002 
L 147.690525 190.344598 
L 150.58089 188.961812 
L 153.471255 187.585132 
L 156.361621 186.201243 
L 159.251986 184.835489 
L 162.142351 183.461499 
L 165.032717 182.089316 
L 167.923082 180.717132 
L 170.813447 179.342507 
L 173.703813 177.993475 
L 176.594178 176.613312 
L 179.484544 175.285133 
L 182.374909 173.942538 
L 185.265274 172.616949 
L 188.15564 171.273489 
L 191.046005 169.940478 
L 193.93637 168.585415 
L 196.826736 167.202315 
L 199.717101 165.804458 
L 202.607467 164.553666 
L 205.497832 163.222373 
L 208.388197 161.862976 
L 211.278563 160.586113 
L 214.168928 159.308837 
L 217.059293 158.007404 
L 219.949659 156.754691 
L 222.840024 155.477652 
L 225.730389 154.166733 
L 228.620755 152.902151 
L 231.51112 151.627457 
L 234.401486 150.36966 
L 237.291851 149.02665 
L 240.182216 147.799522 
L 243.072582 146.617661 
L 245.962947 145.347093 
L 248.853312 144.111302 
L 251.743678 142.931237 
L 254.634043 141.692528 
L 257.524408 140.474074 
L 260.414774 139.28081 
L 263.305139 138.083017 
L 266.195505 136.926299 
L 269.08587 135.701051 
L 271.976235 134.520859 
L 274.866601 133.30102 
L 277.756966 132.165173 
L 280.647331 130.988694 
L 283.537697 129.812215 
L 286.428062 128.633957 
L 289.318428 127.48392 
L 292.208793 126.315029 
L 295.099158 125.135618 
L 297.989524 123.990607 
L 300.879889 122.85817 
L 303.770254 121.759443 
L 306.66062 120.665439 
L 309.550985 119.571436 
L 312.44135 118.477433 
L 315.331716 117.362072 
L 318.222081 116.179185 
L 321.112447 115.062471 
L 324.002812 113.904459 
L 326.893177 112.71672 
L 329.783543 111.529202 
L 332.673908 110.330863 
L 335.564273 109.165884 
L 338.454639 108.116869 
L 341.345004 107.034398 
L 344.23537 106.007214 
L 347.125735 105.027799 
L 350.0161 103.994094 
L 352.906466 102.89077 
L 355.796831 101.717394 
L 358.687196 100.671776 
L 361.577562 99.581879 
L 364.467927 98.518965 
L 367.358292 97.456284 
L 370.248658 96.405189 
L 373.139023 95.348886 
L 373.139023 78.137559 
L 373.139023 78.137559 
L 370.248658 79.566409 
L 367.358292 80.986413 
L 364.467927 82.373189 
L 361.577562 83.747607 
L 358.687196 85.126643 
L 355.796831 86.509761 
L 352.906466 87.893516 
L 350.0161 89.300737 
L 347.125735 90.686247 
L 344.23537 92.133714 
L 341.345004 93.513306 
L 338.454639 94.980623 
L 335.564273 96.442524 
L 332.673908 97.801435 
L 329.783543 99.161765 
L 326.893177 100.520021 
L 324.002812 101.897104 
L 321.112447 103.236181 
L 318.222081 104.593052 
L 315.331716 105.951936 
L 312.44135 107.3697 
L 309.550985 108.797156 
L 306.66062 110.172989 
L 303.770254 111.470215 
L 300.879889 112.859954 
L 297.989524 114.236161 
L 295.099158 115.625246 
L 292.208793 116.951961 
L 289.318428 118.276156 
L 286.428062 119.578181 
L 283.537697 120.867552 
L 280.647331 122.196021 
L 277.756966 123.462263 
L 274.866601 124.733478 
L 271.976235 126.020918 
L 269.08587 127.343952 
L 266.195505 128.649046 
L 263.305139 129.889841 
L 260.414774 131.202308 
L 257.524408 132.52357 
L 254.634043 133.761581 
L 251.743678 135.104666 
L 248.853312 136.346999 
L 245.962947 137.673701 
L 243.072582 138.908215 
L 240.182216 140.141996 
L 237.291851 141.347982 
L 234.401486 142.523197 
L 231.51112 143.696021 
L 228.620755 144.859026 
L 225.730389 146.044257 
L 222.840024 147.218796 
L 219.949659 148.508674 
L 217.059293 149.707298 
L 214.168928 150.802999 
L 211.278563 151.91358 
L 208.388197 153.076364 
L 205.497832 154.203309 
L 202.607467 155.233095 
L 199.717101 156.287664 
L 196.826736 157.465984 
L 193.93637 158.557583 
L 191.046005 159.719811 
L 188.15564 160.868045 
L 185.265274 161.884387 
L 182.374909 162.939215 
L 179.484544 164.052683 
L 176.594178 165.182937 
L 173.703813 166.364498 
L 170.813447 167.521349 
L 167.923082 168.609576 
L 165.032717 169.676007 
L 162.142351 170.771256 
L 159.251986 171.940393 
L 156.361621 173.109531 
L 153.471255 174.268252 
L 150.58089 175.374528 
L 147.690525 176.433006 
L 144.800159 177.565287 
L 141.909794 178.666024 
L 139.019428 179.775707 
L 136.129063 180.925848 
L 133.238698 182.043447 
L 130.348332 183.121957 
L 127.457967 184.225583 
L 124.567602 185.333427 
L 121.677236 186.440884 
L 118.786871 187.546095 
L 115.896505 188.653684 
L 113.00614 189.76017 
L 110.115775 190.865381 
L 107.225409 191.955079 
L 104.335044 193.035311 
L 101.444679 194.115543 
L 98.554313 195.195776 
L 95.663948 196.277105 
L 92.773583 197.358679 
L 89.883217 198.440253 
L 86.992852 199.509528 
z
" style="fill:#4c72b0;fill-opacity:0.15;"/>
   </g>
   <g id="line2d_31">
    <path clip-path="url(#p3cfdbb2be5)" d="M 86.992852 209.580681 
L 89.883217 208.344791 
L 92.773583 207.108901 
L 95.663948 205.873011 
L 98.554313 204.63712 
L 101.444679 203.40123 
L 104.335044 202.16534 
L 107.225409 200.92945 
L 110.115775 199.69356 
L 113.00614 198.45767 
L 115.896505 197.22178 
L 118.786871 195.98589 
L 121.677236 194.75 
L 124.567602 193.51411 
L 127.457967 192.27822 
L 130.348332 191.04233 
L 133.238698 189.80644 
L 136.129063 188.570549 
L 139.019428 187.334659 
L 141.909794 186.098769 
L 144.800159 184.862879 
L 147.690525 183.626989 
L 150.58089 182.391099 
L 153.471255 181.155209 
L 156.361621 179.919319 
L 159.251986 178.683429 
L 162.142351 177.447539 
L 165.032717 176.211649 
L 167.923082 174.975759 
L 170.813447 173.739868 
L 173.703813 172.503978 
L 176.594178 171.268088 
L 179.484544 170.032198 
L 182.374909 168.796308 
L 185.265274 167.560418 
L 188.15564 166.324528 
L 191.046005 165.088638 
L 193.93637 163.852748 
L 196.826736 162.616858 
L 199.717101 161.380968 
L 202.607467 160.145078 
L 205.497832 158.909188 
L 208.388197 157.673297 
L 211.278563 156.437407 
L 214.168928 155.201517 
L 217.059293 153.965627 
L 219.949659 152.729737 
L 222.840024 151.493847 
L 225.730389 150.257957 
L 228.620755 149.022067 
L 231.51112 147.786177 
L 234.401486 146.550287 
L 237.291851 145.314397 
L 240.182216 144.078507 
L 243.072582 142.842616 
L 245.962947 141.606726 
L 248.853312 140.370836 
L 251.743678 139.134946 
L 254.634043 137.899056 
L 257.524408 136.663166 
L 260.414774 135.427276 
L 263.305139 134.191386 
L 266.195505 132.955496 
L 269.08587 131.719606 
L 271.976235 130.483716 
L 274.866601 129.247826 
L 277.756966 128.011936 
L 280.647331 126.776045 
L 283.537697 125.540155 
L 286.428062 124.304265 
L 289.318428 123.068375 
L 292.208793 121.832485 
L 295.099158 120.596595 
L 297.989524 119.360705 
L 300.879889 118.124815 
L 303.770254 116.888925 
L 306.66062 115.653035 
L 309.550985 114.417145 
L 312.44135 113.181255 
L 315.331716 111.945364 
L 318.222081 110.709474 
L 321.112447 109.473584 
L 324.002812 108.237694 
L 326.893177 107.001804 
L 329.783543 105.765914 
L 332.673908 104.530024 
L 335.564273 103.294134 
L 338.454639 102.058244 
L 341.345004 100.822354 
L 344.23537 99.586464 
L 347.125735 98.350574 
L 350.0161 97.114684 
L 352.906466 95.878793 
L 355.796831 94.642903 
L 358.687196 93.407013 
L 361.577562 92.171123 
L 364.467927 90.935233 
L 367.358292 89.699343 
L 370.248658 88.463453 
L 373.139023 87.227563 
" style="fill:none;stroke:#4c72b0;stroke-linecap:round;stroke-width:2.625;"/>
   </g>
   <g id="patch_3">
    <path d="M 54.295938 228.439219 
L 54.295938 10.999219 
" style="fill:none;"/>
   </g>
   <g id="patch_4">
    <path d="M 389.095938 228.439219 
L 389.095938 10.999219 
" style="fill:none;"/>
   </g>
   <g id="patch_5">
    <path d="M 54.295938 228.439219 
L 389.095938 228.439219 
" style="fill:none;"/>
   </g>
   <g id="patch_6">
    <path d="M 54.295938 10.999219 
L 389.095938 10.999219 
" style="fill:none;"/>
   </g>
  </g>
 </g>
 <defs>
  <clipPath id="p3cfdbb2be5">
   <rect height="217.44" width="334.8" x="54.295938" y="10.999219"/>
  </clipPath>
 </defs>
</svg>
