<svg viewBox="0 0 402 154" xmlns="http://www.w3.org/2000/svg" xmlns:xlink="http://www.w3.org/1999/xlink"><defs><style>*{stroke-linecap:butt;stroke-linejoin:round}</style></defs><g id="figure_1"><path d="M0 154.6h402.3V0H0z" fill="#fff" id="patch_1"/><g id="axes_1"><path d="M56 116.1h334.7V17.3H56z" fill="#eaeaf2" id="patch_2"/><g id="matplotlib.axis_1"><g id="xtick_1"><path clip-path="url(#p1a12b51360)" d="M71.1 116.1V17.3" fill="none" stroke="#fff" stroke-linecap="round" id="line2d_1"/><g id="text_1"><defs><path d="M31.8 66.4q-7.6 0-11.5-7.5-3.8-7.5-3.8-22.5t3.8-22.5q3.9-7.5 11.5-7.5 7.7 0 11.5 7.5T47 36.4q0 15-3.8 22.5t-11.5 7.5zm0 7.8q12.2 0 18.7-9.7T57 36.4Q57 18 50.5 8.3 44-1.4 31.8-1.4 19.5-1.4 13 8.3q-6.5 9.7-6.5 28 0 18.5 6.5 28.2 6.4 9.7 18.7 9.7z" id="DejaVuSans-30"/></defs><use xlink:href="#DejaVuSans-30" transform="matrix(.1 0 0 -.1 68 130.7)" fill="#262626"/></g></g><g id="xtick_2"><path clip-path="url(#p1a12b51360)" d="M150.5 116.1V17.3" fill="none" stroke="#fff" stroke-linecap="round" id="line2d_3"/><g id="text_2"><defs><path d="M33 40.4q-6.6 0-10.5-4.6-3.9-4.5-3.9-12.4T22.5 11Q26.4 6.4 33 6.4q6.7 0 10.5 4.6 4 4.5 4 12.4t-4 12.4q-3.8 4.6-10.5 4.6zm19.6 30.9v-9Q48.9 64.1 45 65q-3.8 1-7.5 1-9.8 0-15-6.7-5-6.6-5.8-19.9 2.9 4.3 7.2 6.5 4.4 2.3 9.6 2.3 11 0 17.4-6.7 6.3-6.6 6.3-18.1 0-11.2-6.6-18Q44-1.4 33-1.4q-12.6 0-19.3 9.7Q7 18 7 36.3 7 53.8 15.2 64q8.2 10.3 22 10.3 3.7 0 7.5-.7 3.8-.8 7.9-2.2z" id="DejaVuSans-36"/></defs><use xlink:href="#DejaVuSans-36" transform="matrix(.1 0 0 -.1 147.3 130.7)" fill="#262626"/></g></g><g id="xtick_3"><path clip-path="url(#p1a12b51360)" d="M230 116.1V17.3" fill="none" stroke="#fff" stroke-linecap="round" id="line2d_5"/><g id="text_3"><defs><path d="M12.4 8.3h16.1v55.6L11 60.4v9l17.4 3.5h9.9V8.3h16V0H12.5z" id="DejaVuSans-31"/><path d="M19.2 8.3h34.4V0H7.3v8.3l15.3 15.6q9.7 9.8 12.2 12.6 4.7 5.3 6.6 9 2 3.7 2 7.3 0 5.8-4.2 9.5-4 3.6-10.6 3.6-4.6 0-9.8-1.6-5.1-1.6-11-4.9v10q6 2.4 11.1 3.6 5.2 1.2 9.5 1.2 11.4 0 18-5.7 6.8-5.6 6.8-15 0-4.6-1.7-8.6-1.6-4-6-9.5l-7.9-8.2L19.2 8.3z" id="DejaVuSans-32"/></defs><g transform="matrix(.1 0 0 -.1 223.6 130.7)" fill="#262626"><use xlink:href="#DejaVuSans-31"/><use x="63.6" xlink:href="#DejaVuSans-32"/></g></g></g><g id="xtick_4"><path clip-path="url(#p1a12b51360)" d="M309.3 116.1V17.3" fill="none" stroke="#fff" stroke-linecap="round" id="line2d_7"/><g id="text_4"><defs><path d="M31.8 34.6q-7 0-11-3.7-4.1-3.8-4.1-10.4 0-6.6 4-10.3 4-3.8 11-3.8 7.1 0 11.2 3.8 4 3.8 4 10.3 0 6.6-4 10.4-4 3.7-11.1 3.7zm-9.9 4.2q-6.3 1.6-9.9 6Q8.5 49 8.5 55.2q0 8.8 6.2 13.8 6.3 5.1 17 5.1 11 0 17.2-5Q55 64 55 55.2q0-6.2-3.6-10.6-3.5-4.3-9.8-5.9 7.1-1.6 11.1-6.5 4-4.8 4-11.8 0-10.6-6.5-16.3-6.5-5.6-18.5-5.6T13.2 4.2Q6.8 10 6.8 20.5q0 7 4 11.8 4 4.9 11.1 6.5zm-3.6 15.6q0-5.7 3.5-8.8 3.6-3.2 10-3.2 6.3 0 10 3.2 3.5 3.1 3.5 8.8 0 5.7-3.6 8.8-3.6 3.2-10 3.2-6.3 0-9.9-3.2-3.5-3.1-3.5-8.8z" id="DejaVuSans-38"/></defs><g transform="matrix(.1 0 0 -.1 303 130.7)" fill="#262626"><use xlink:href="#DejaVuSans-31"/><use x="63.6" xlink:href="#DejaVuSans-38"/></g></g></g><g id="xtick_5"><path clip-path="url(#p1a12b51360)" d="M388.7 116.1V17.3" fill="none" stroke="#fff" stroke-linecap="round" id="line2d_9"/><g id="text_5"><defs><path d="M37.8 64.3l-25-39h25zM35.2 73h12.4V25.4H58v-8.2H47.6V0h-9.8v17.2h-33v9.5z" id="DejaVuSans-34"/></defs><g transform="matrix(.1 0 0 -.1 382.4 130.7)" fill="#262626"><use xlink:href="#DejaVuSans-32"/><use x="63.6" xlink:href="#DejaVuSans-34"/></g></g></g><g id="text_6"><defs><path d="M9.8 73h9.9V43h35.8v30h9.9V0h-9.9v34.7H19.7V0H9.8z" id="DejaVuSans-48"/><path d="M30.6 48.4q-7.2 0-11.4-5.6Q15 37 15 27.3t4.2-15.5q4.1-5.6 11.4-5.6 7.2 0 11.4 5.7 4.2 5.6 4.2 15.4 0 9.7-4.2 15.4-4.2 5.7-11.4 5.7zm0 7.6q11.7 0 18.4-7.6 6.7-7.6 6.7-21.1 0-13.4-6.7-21-6.7-7.7-18.4-7.7-11.8 0-18.4 7.6Q5.5 14 5.5 27.3q0 13.5 6.7 21Q18.8 56 30.6 56z" id="DejaVuSans-6f"/><path d="M8.5 21.6v33h9V22q0-7.7 3-11.6 3-4 9-4 7.4 0 11.6 4.7 4.2 4.7 4.2 12.7v31h9V0h-9v8.4Q42 3.4 37.7 1q-4.3-2.4-10-2.4-9.4 0-14.3 5.8-4.9 5.9-4.9 17.2zM31.1 56z" id="DejaVuSans-75"/><path d="M41.1 46.3q-1.5.9-3.3 1.3-1.8.4-4 .4-7.5 0-11.6-5-4-5-4-14.2V0H9v54.7h9v-8.5q2.9 5 7.4 7.4Q30 56 36.5 56l2-.1 2.6-.4z" id="DejaVuSans-72"/></defs><g transform="matrix(.11 0 0 -.11 210 145.1)" fill="#262626"><use xlink:href="#DejaVuSans-48"/><use x="75.2" xlink:href="#DejaVuSans-6f"/><use x="136.4" xlink:href="#DejaVuSans-75"/><use x="199.8" xlink:href="#DejaVuSans-72"/></g></g></g><g id="matplotlib.axis_2"><g id="ytick_1"><path clip-path="url(#p1a12b51360)" d="M56 106.4h334.7" fill="none" stroke="#fff" stroke-linecap="round" id="line2d_11"/><g id="text_7"><defs><path d="M10.6 35.5h62.6v-8.3H10.6z" id="DejaVuSans-2212"/></defs><g transform="matrix(.1 0 0 -.1 34.2 110.2)" fill="#262626"><use xlink:href="#DejaVuSans-2212"/><use x="83.8" xlink:href="#DejaVuSans-34"/></g></g></g><g id="ytick_2"><path clip-path="url(#p1a12b51360)" d="M56 81.6h334.7" fill="none" stroke="#fff" stroke-linecap="round" id="line2d_13"/><g transform="matrix(.1 0 0 -.1 34.2 85.4)" fill="#262626" id="text_8"><use xlink:href="#DejaVuSans-2212"/><use x="83.8" xlink:href="#DejaVuSans-32"/></g></g><g id="ytick_3"><path clip-path="url(#p1a12b51360)" d="M56 56.8h334.7" fill="none" stroke="#fff" stroke-linecap="round" id="line2d_15"/><use xlink:href="#DejaVuSans-30" transform="matrix(.1 0 0 -.1 42.5 60.6)" fill="#262626" id="text_9"/></g><g id="ytick_4"><path clip-path="url(#p1a12b51360)" d="M56 32h334.7" fill="none" stroke="#fff" stroke-linecap="round" id="line2d_17"/><use xlink:href="#DejaVuSans-32" transform="matrix(.1 0 0 -.1 42.5 35.8)" fill="#262626" id="text_10"/></g><g id="text_11"><defs><path d="M34.2 63.2L20.8 26.9h26.8zm-5.6 9.7h11.2L67.6 0H57.3l-6.6 18.7H17.8L11.2 0H.8z" id="DejaVuSans-41"/><path d="M3 54.7h9.5l17-45.9 17.2 45.9h9.5L35.7 0H23.5z" id="DejaVuSans-76"/><path d="M56.2 29.6v-4.4H14.9q.6-9.3 5.6-14.1 5-4.9 14-4.9 5 0 10 1.3 4.8 1.2 9.6 3.8V2.8q-4.8-2-10-3.1-5-1.1-10.2-1.1-13.1 0-20.7 7.6-7.7 7.6-7.7 20.6 0 13.4 7.3 21.3Q20 56 32.3 56q11 0 17.5-7.1 6.4-7.1 6.4-19.3zm-9 2.6q0 7.4-4.1 11.8-4 4.4-10.7 4.4-7.5 0-12-4.3-4.5-4.2-5.2-12z" id="DejaVuSans-65"/><path d="M34.3 27.5q-11 0-15.1-2.5-4.2-2.5-4.2-8.5 0-4.8 3.1-7.6 3.2-2.8 8.6-2.8 7.5 0 12 5.3t4.5 14v2zm17.9 3.7V0h-9v8.3q-3-5-7.7-7.3Q31-1.4 24.3-1.4 16-1.4 11 3.3 6 8 6 15.9q0 9.2 6.2 14 6.2 4.6 18.4 4.6h12.6v1q0 6.1-4 9.5-4.1 3.4-11.5 3.4-4.7 0-9.2-1.1-4.4-1.2-8.5-3.4v8.3q5 2 9.6 2.8 4.6 1 9 1 11.9 0 17.7-6.2 5.9-6.1 5.9-18.6z" id="DejaVuSans-61"/><path d="M45.4 28q0 9.8-4 15.1-4 5.4-11.3 5.4-7.2 0-11.3-5.4-4-5.4-4-15.1t4-15.1q4-5.4 11.3-5.4 7.3 0 11.3 5.4 4 5.4 4 15zm9-21.2q0-14-6.2-20.8-6.2-6.8-19-6.8-4.7 0-9 .7-4.1.7-8 2.2v8.7q3.9-2.1 7.7-3.1 3.9-1 7.9-1 8.8 0 13.2 4.5 4.4 4.6 4.4 14v4.4q-2.8-4.8-7.1-7.2Q33.9 0 27.9 0q-10 0-16.2 7.7Q5.5 15.3 5.5 28q0 12.7 6.2 20.3Q17.8 56 27.9 56q6 0 10.4-2.4 4.3-2.4 7.1-7.2v8.3h9z" id="DejaVuSans-67"/><path d="M19.7 64.8V8.1h11.9q15 0 22 6.8 7 6.9 7 21.6 0 14.7-7 21.5-7 6.8-22 6.8zm-9.9 8.1h20.3q21.2 0 31-8.8 10-8.8 10-27.6T61 8.8Q51.1 0 30.1 0H9.8z" id="DejaVuSans-44"/><path d="M9.4 54.7h9V0h-9zm0 21.3h9V64.6h-9z" id="DejaVuSans-69"/><path d="M37.1 76v-7.5h-8.6q-4.8 0-6.7-2-1.9-2-1.9-7v-4.8h14.8v-7H20V0h-9v47.7H2.3v7h8.6v3.8q0 9.1 4.2 13.3Q19.4 76 28.6 76z" id="DejaVuSans-66"/><path d="M54.9 33V0h-9v32.7q0 7.8-3 11.6-3 3.9-9.1 3.9-7.3 0-11.5-4.7Q18.1 39 18.1 31V0h-9v54.7h9v-8.5q3.2 5 7.6 7.4Q30.1 56 35.8 56q9.4 0 14.2-5.8Q55 44.3 55 33z" id="DejaVuSans-6e"/><path d="M48.8 52.6v-8.4Q45 46.3 41 47.3q-3.8 1-7.7 1-8.7 0-13.6-5.5Q15 37.3 15 27.3t4.8-15.6q4.9-5.5 13.6-5.5 4 0 7.7 1 3.9 1.1 7.7 3.2V2.1Q45 .3 41-.5q-4-1-8.6-1-12.3 0-19.6 7.8-7.3 7.8-7.3 21 0 13.4 7.4 21Q20.2 56 33 56q4.2 0 8.1-.9 4-.8 7.7-2.5z" id="DejaVuSans-63"/></defs><g transform="matrix(0 -.11 -.11 0 15.6 119.9)" fill="#262626"><use xlink:href="#DejaVuSans-41"/><use x="68.3" xlink:href="#DejaVuSans-76"/><use x="127.5" xlink:href="#DejaVuSans-65"/><use x="189" xlink:href="#DejaVuSans-72"/><use x="230.1" xlink:href="#DejaVuSans-61"/><use x="291.4" xlink:href="#DejaVuSans-67"/><use x="354.9" xlink:href="#DejaVuSans-65"/><use x="416.4" xlink:href="#DejaVuSans-20"/><use x="448.2" xlink:href="#DejaVuSans-44"/><use x="525.2" xlink:href="#DejaVuSans-69"/><use x="553" xlink:href="#DejaVuSans-66"/><use x="588.2" xlink:href="#DejaVuSans-66"/><use x="623.4" xlink:href="#DejaVuSans-65"/><use x="684.9" xlink:href="#DejaVuSans-72"/><use x="726" xlink:href="#DejaVuSans-65"/><use x="787.5" xlink:href="#DejaVuSans-6e"/><use x="850.9" xlink:href="#DejaVuSans-63"/><use x="905.9" xlink:href="#DejaVuSans-65"/></g><defs><path d="M31 75.9q-6.5-11.2-9.7-22.2-3.2-11-3.2-22.3T21.3 9Q24.5-2 31-13.2h-7.8q-7.3 11.5-11 22.6-3.6 11-3.6 22 0 10.9 3.6 22 3.6 11 11 22.5z" id="DejaVuSans-28"/><path d="M9.8 73h9.9V0H9.8z" id="DejaVuSans-49"/><path d="M48.7 27.3q0 9.9-4 15.5-4.2 5.7-11.3 5.7-7.1 0-11.2-5.7-4-5.6-4-15.5 0-10 4-15.6t11.2-5.6q7.1 0 11.2 5.7 4 5.6 4 15.5zM18 46.3q2.9 5 7.2 7.3Q29.6 56 35.6 56q10 0 16.2-8Q58 40.3 58 27.4q0-12.9-6.2-20.8-6.2-8-16.2-8-6 0-10.3 2.5Q21 3.3 18 8.2V0h-9v76h9z" id="DejaVuSans-62"/><path d="M45.4 46.4V76h9V0h-9v8.2Q42.6 3.3 38.3 1q-4.4-2.4-10.4-2.4-10 0-16.2 7.9-6.2 8-6.2 20.8 0 12.9 6.2 20.8Q18 56 28 56q6 0 10.4-2.4 4.3-2.3 7.1-7.2zM14.8 27.3q0-10 4-15.6Q23 6.2 30.2 6.2q7.1 0 11.2 5.7 4.1 5.6 4.1 15.5t-4.1 15.5q-4.1 5.7-11.2 5.7t-11.2-5.7q-4.1-5.6-4.1-15.5z" id="DejaVuSans-64"/><path d="M4.9 31.4h26.3v-8H4.9z" id="DejaVuSans-2d"/><path d="M39.4 66.2q-10.7 0-17-8-6.4-8-6.4-21.8t6.3-21.8q6.4-8 17.1-8 10.7 0 17 8 6.3 8 6.3 21.8t-6.3 21.8q-6.3 8-17 8zm0 8Q54.7 74.2 64 64q9.2-10.2 9.2-27.5T63.9 8.9Q54.7-1.4 39.4-1.4 24-1.4 14.8 8.8 5.6 19.1 5.6 36.4t9.2 27.5Q24 74.2 39.4 74.2z" id="DejaVuSans-4f"/><path d="M18.3 70.2V54.7h18.5v-7H18.3V18q0-6.7 1.8-8.6 1.9-1.9 7.5-1.9h9.2V0h-9.2Q17.2 0 13.2 3.9T9.2 18v29.7H2.8v7h6.6v15.5z" id="DejaVuSans-74"/><path d="M8 75.9h7.8q7.3-11.5 11-22.6 3.6-11 3.6-22 0-10.8-3.6-22-3.7-11-11-22.5H8Q14.5-2 17.7 9.1q3.2 11 3.2 22.3t-3.2 22.3q-3.2 11-9.7 22.2z" id="DejaVuSans-29"/></defs><g transform="matrix(0 -.11 -.11 0 27.9 126.2)" fill="#262626"><use xlink:href="#DejaVuSans-28"/><use x="39" xlink:href="#DejaVuSans-49"/><use x="68.5" xlink:href="#DejaVuSans-6e"/><use x="131.9" xlink:href="#DejaVuSans-62"/><use x="195.4" xlink:href="#DejaVuSans-6f"/><use x="256.5" xlink:href="#DejaVuSans-75"/><use x="319.9" xlink:href="#DejaVuSans-6e"/><use x="383.3" xlink:href="#DejaVuSans-64"/><use x="446.8" xlink:href="#DejaVuSans-20"/><use x="478.6" xlink:href="#DejaVuSans-2d"/><use x="514.6" xlink:href="#DejaVuSans-20"/><use x="546.4" xlink:href="#DejaVuSans-4f"/><use x="625.1" xlink:href="#DejaVuSans-75"/><use x="688.5" xlink:href="#DejaVuSans-74"/><use x="727.7" xlink:href="#DejaVuSans-62"/><use x="791.2" xlink:href="#DejaVuSans-6f"/><use x="852.4" xlink:href="#DejaVuSans-75"/><use x="915.8" xlink:href="#DejaVuSans-6e"/><use x="979.2" xlink:href="#DejaVuSans-64"/><use x="1042.6" xlink:href="#DejaVuSans-29"/></g></g></g><g id="PolyCollection_1"><defs><path d="M71.1-102.8v5h304.4v-6h0l-13.2-4.7-13.3-4-13.2-2.9-13.2 3.4-13.3-1.5-13.2-19.4-13.2 2.4-13.3 17.6-13.2 13.8-13.2 2.6-13.3 5.1-13.2.6-13.2 8.7-13.3 22.7L177-43l-13.2-29.2L150.5-83 137.3-90l-13.2-8-13.3-2-13.2-1.7-13.2-.7-13.3-.5z" id="m79d12e17f5" stroke="#ff0" stroke-opacity=".2" stroke-width=".3"/></defs><g clip-path="url(#p1a12b51360)"><use xlink:href="#m79d12e17f5" y="154.6" fill="#ff0" fill-opacity=".2" stroke="#ff0" stroke-opacity=".2" stroke-width=".3"/></g></g><path clip-path="url(#p1a12b51360)" d="M71.1 51.8l13.3.6 13.2.6 13.2 1.8 13.3 2 13.2 8 13.2 6.8 13.3 10.8 13.2 29.2 13.2-16.3 13.3-22.7 13.2-8.8 13.2-.5 13.3-5.1 13.2-2.7 13.2-13.8L283 24.2l13.2-2.4 13.2 19.4 13.3 1.4 13.2-3.3L349 42l13.3 4 13.2 4.7" fill="none" stroke="#bfbf00" stroke-linecap="round" stroke-width="1.8" id="line2d_19"/><path d="M56 116.1V17.3" fill="none" id="patch_3"/><path d="M390.7 116.1V17.3" fill="none" id="patch_4"/><path d="M56 116.1h334.7" fill="none" id="patch_5"/><path d="M56 17.3h334.7" fill="none" id="patch_6"/></g></g><defs><clipPath id="p1a12b51360"><path d="M55.9 17.3h334.8v98.8H55.9z"/></clipPath></defs></svg>