<svg viewBox="0 0 393 159" xmlns="http://www.w3.org/2000/svg" xmlns:xlink="http://www.w3.org/1999/xlink"><defs><style>*{stroke-linecap:butt;stroke-linejoin:round}</style></defs><g id="figure_1"><path d="M0 159.7h393.9V0H0z" fill="#fff" id="patch_1"/><g id="axes_1"><path d="M47.5 121.2h334.8V22.3H47.5z" fill="#eaeaf2" id="patch_2"/><g id="matplotlib.axis_1"><g id="xtick_1"><path clip-path="url(#p06eba5c22b)" d="M62.7 121.2V22.3" fill="none" stroke="#fff" stroke-linecap="round" id="line2d_1"/><g id="text_1"><defs><path d="M31.8 66.4q-7.6 0-11.5-7.5-3.8-7.5-3.8-22.5t3.8-22.5q3.9-7.5 11.5-7.5 7.7 0 11.5 7.5T47 36.4q0 15-3.8 22.5t-11.5 7.5zm0 7.8q12.2 0 18.7-9.7T57 36.4Q57 18 50.5 8.3 44-1.4 31.8-1.4 19.5-1.4 13 8.3q-6.5 9.7-6.5 28 0 18.5 6.5 28.2 6.4 9.7 18.7 9.7z" id="DejaVuSans-30"/></defs><use xlink:href="#DejaVuSans-30" transform="matrix(.1 0 0 -.1 59.6 135.8)" fill="#262626"/></g></g><g id="xtick_2"><path clip-path="url(#p06eba5c22b)" d="M142.1 121.2V22.3" fill="none" stroke="#fff" stroke-linecap="round" id="line2d_3"/><g id="text_2"><defs><path d="M33 40.4q-6.6 0-10.5-4.6-3.9-4.5-3.9-12.4T22.5 11Q26.4 6.4 33 6.4q6.7 0 10.5 4.6 4 4.5 4 12.4t-4 12.4q-3.8 4.6-10.5 4.6zm19.6 30.9v-9Q48.9 64.1 45 65q-3.8 1-7.5 1-9.8 0-15-6.7-5-6.6-5.8-19.9 2.9 4.3 7.2 6.5 4.4 2.3 9.6 2.3 11 0 17.4-6.7 6.3-6.6 6.3-18.1 0-11.2-6.6-18Q44-1.4 33-1.4q-12.6 0-19.3 9.7Q7 18 7 36.3 7 53.8 15.2 64q8.2 10.3 22 10.3 3.7 0 7.5-.7 3.8-.8 7.9-2.2z" id="DejaVuSans-36"/></defs><use xlink:href="#DejaVuSans-36" transform="matrix(.1 0 0 -.1 139 135.8)" fill="#262626"/></g></g><g id="xtick_3"><path clip-path="url(#p06eba5c22b)" d="M221.5 121.2V22.3" fill="none" stroke="#fff" stroke-linecap="round" id="line2d_5"/><g id="text_3"><defs><path d="M12.4 8.3h16.1v55.6L11 60.4v9l17.4 3.5h9.9V8.3h16V0H12.5z" id="DejaVuSans-31"/><path d="M19.2 8.3h34.4V0H7.3v8.3l15.3 15.6q9.7 9.8 12.2 12.6 4.7 5.3 6.6 9 2 3.7 2 7.3 0 5.8-4.2 9.5-4 3.6-10.6 3.6-4.6 0-9.8-1.6-5.1-1.6-11-4.9v10q6 2.4 11.1 3.6 5.2 1.2 9.5 1.2 11.4 0 18-5.7 6.8-5.6 6.8-15 0-4.6-1.7-8.6-1.6-4-6-9.5l-7.9-8.2L19.2 8.3z" id="DejaVuSans-32"/></defs><g transform="matrix(.1 0 0 -.1 215.2 135.8)" fill="#262626"><use xlink:href="#DejaVuSans-31"/><use x="63.6" xlink:href="#DejaVuSans-32"/></g></g></g><g id="xtick_4"><path clip-path="url(#p06eba5c22b)" d="M301 121.2V22.3" fill="none" stroke="#fff" stroke-linecap="round" id="line2d_7"/><g id="text_4"><defs><path d="M31.8 34.6q-7 0-11-3.7-4.1-3.8-4.1-10.4 0-6.6 4-10.3 4-3.8 11-3.8 7.1 0 11.2 3.8 4 3.8 4 10.3 0 6.6-4 10.4-4 3.7-11.1 3.7zm-9.9 4.2q-6.3 1.6-9.9 6Q8.5 49 8.5 55.2q0 8.8 6.2 13.8 6.3 5.1 17 5.1 11 0 17.2-5Q55 64 55 55.2q0-6.2-3.6-10.6-3.5-4.3-9.8-5.9 7.1-1.6 11.1-6.5 4-4.8 4-11.8 0-10.6-6.5-16.3-6.5-5.6-18.5-5.6T13.2 4.2Q6.8 10 6.8 20.5q0 7 4 11.8 4 4.9 11.1 6.5zm-3.6 15.6q0-5.7 3.5-8.8 3.6-3.2 10-3.2 6.3 0 10 3.2 3.5 3.1 3.5 8.8 0 5.7-3.6 8.8-3.6 3.2-10 3.2-6.3 0-9.9-3.2-3.5-3.1-3.5-8.8z" id="DejaVuSans-38"/></defs><g transform="matrix(.1 0 0 -.1 294.6 135.8)" fill="#262626"><use xlink:href="#DejaVuSans-31"/><use x="63.6" xlink:href="#DejaVuSans-38"/></g></g></g><g id="xtick_5"><path clip-path="url(#p06eba5c22b)" d="M380.3 121.2V22.3" fill="none" stroke="#fff" stroke-linecap="round" id="line2d_9"/><g id="text_5"><defs><path d="M37.8 64.3l-25-39h25zM35.2 73h12.4V25.4H58v-8.2H47.6V0h-9.8v17.2h-33v9.5z" id="DejaVuSans-34"/></defs><g transform="matrix(.1 0 0 -.1 374 135.8)" fill="#262626"><use xlink:href="#DejaVuSans-32"/><use x="63.6" xlink:href="#DejaVuSans-34"/></g></g></g><g id="text_6"><defs><path d="M9.8 73h9.9V43h35.8v30h9.9V0h-9.9v34.7H19.7V0H9.8z" id="DejaVuSans-48"/><path d="M30.6 48.4q-7.2 0-11.4-5.6Q15 37 15 27.3t4.2-15.5q4.1-5.6 11.4-5.6 7.2 0 11.4 5.7 4.2 5.6 4.2 15.4 0 9.7-4.2 15.4-4.2 5.7-11.4 5.7zm0 7.6q11.7 0 18.4-7.6 6.7-7.6 6.7-21.1 0-13.4-6.7-21-6.7-7.7-18.4-7.7-11.8 0-18.4 7.6Q5.5 14 5.5 27.3q0 13.5 6.7 21Q18.8 56 30.6 56z" id="DejaVuSans-6f"/><path d="M8.5 21.6v33h9V22q0-7.7 3-11.6 3-4 9-4 7.4 0 11.6 4.7 4.2 4.7 4.2 12.7v31h9V0h-9v8.4Q42 3.4 37.7 1q-4.3-2.4-10-2.4-9.4 0-14.3 5.8-4.9 5.9-4.9 17.2zM31.1 56z" id="DejaVuSans-75"/><path d="M41.1 46.3q-1.5.9-3.3 1.3-1.8.4-4 .4-7.5 0-11.6-5-4-5-4-14.2V0H9v54.7h9v-8.5q2.9 5 7.4 7.4Q30 56 36.5 56l2-.1 2.6-.4z" id="DejaVuSans-72"/></defs><g transform="matrix(.11 0 0 -.11 201.7 150.2)" fill="#262626"><use xlink:href="#DejaVuSans-48"/><use x="75.2" xlink:href="#DejaVuSans-6f"/><use x="136.4" xlink:href="#DejaVuSans-75"/><use x="199.8" xlink:href="#DejaVuSans-72"/></g></g></g><g id="matplotlib.axis_2"><g id="ytick_1"><path clip-path="url(#p06eba5c22b)" d="M47.5 116.8h334.8" fill="none" stroke="#fff" stroke-linecap="round" id="line2d_11"/><use xlink:href="#DejaVuSans-30" transform="matrix(.1 0 0 -.1 34.2 120.6)" fill="#262626" id="text_7"/></g><g id="ytick_2"><path clip-path="url(#p06eba5c22b)" d="M47.5 80.9h334.8" fill="none" stroke="#fff" stroke-linecap="round" id="line2d_13"/><use xlink:href="#DejaVuSans-32" transform="matrix(.1 0 0 -.1 34.2 84.7)" fill="#262626" id="text_8"/></g><g id="ytick_3"><path clip-path="url(#p06eba5c22b)" d="M47.5 45h334.8" fill="none" stroke="#fff" stroke-linecap="round" id="line2d_15"/><use xlink:href="#DejaVuSans-34" transform="matrix(.1 0 0 -.1 34.2 48.7)" fill="#262626" id="text_9"/></g><g id="text_10"><defs><path d="M34.2 63.2L20.8 26.9h26.8zm-5.6 9.7h11.2L67.6 0H57.3l-6.6 18.7H17.8L11.2 0H.8z" id="DejaVuSans-41"/><path d="M3 54.7h9.5l17-45.9 17.2 45.9h9.5L35.7 0H23.5z" id="DejaVuSans-76"/><path d="M56.2 29.6v-4.4H14.9q.6-9.3 5.6-14.1 5-4.9 14-4.9 5 0 10 1.3 4.8 1.2 9.6 3.8V2.8q-4.8-2-10-3.1-5-1.1-10.2-1.1-13.1 0-20.7 7.6-7.7 7.6-7.7 20.6 0 13.4 7.3 21.3Q20 56 32.3 56q11 0 17.5-7.1 6.4-7.1 6.4-19.3zm-9 2.6q0 7.4-4.1 11.8-4 4.4-10.7 4.4-7.5 0-12-4.3-4.5-4.2-5.2-12z" id="DejaVuSans-65"/><path d="M34.3 27.5q-11 0-15.1-2.5-4.2-2.5-4.2-8.5 0-4.8 3.1-7.6 3.2-2.8 8.6-2.8 7.5 0 12 5.3t4.5 14v2zm17.9 3.7V0h-9v8.3q-3-5-7.7-7.3Q31-1.4 24.3-1.4 16-1.4 11 3.3 6 8 6 15.9q0 9.2 6.2 14 6.2 4.6 18.4 4.6h12.6v1q0 6.1-4 9.5-4.1 3.4-11.5 3.4-4.7 0-9.2-1.1-4.4-1.2-8.5-3.4v8.3q5 2 9.6 2.8 4.6 1 9 1 11.9 0 17.7-6.2 5.9-6.1 5.9-18.6z" id="DejaVuSans-61"/><path d="M45.4 28q0 9.8-4 15.1-4 5.4-11.3 5.4-7.2 0-11.3-5.4-4-5.4-4-15.1t4-15.1q4-5.4 11.3-5.4 7.3 0 11.3 5.4 4 5.4 4 15zm9-21.2q0-14-6.2-20.8-6.2-6.8-19-6.8-4.7 0-9 .7-4.1.7-8 2.2v8.7q3.9-2.1 7.7-3.1 3.9-1 7.9-1 8.8 0 13.2 4.5 4.4 4.6 4.4 14v4.4q-2.8-4.8-7.1-7.2Q33.9 0 27.9 0q-10 0-16.2 7.7Q5.5 15.3 5.5 28q0 12.7 6.2 20.3Q17.8 56 27.9 56q6 0 10.4-2.4 4.3-2.4 7.1-7.2v8.3h9z" id="DejaVuSans-67"/></defs><g transform="matrix(0 -.11 -.11 0 15.6 94.6)" fill="#262626"><use xlink:href="#DejaVuSans-41"/><use x="68.3" xlink:href="#DejaVuSans-76"/><use x="127.5" xlink:href="#DejaVuSans-65"/><use x="189" xlink:href="#DejaVuSans-72"/><use x="230.1" xlink:href="#DejaVuSans-61"/><use x="291.4" xlink:href="#DejaVuSans-67"/><use x="354.9" xlink:href="#DejaVuSans-65"/></g><defs><path d="M9.8 73h13.3l32.3-61v61H65V0H51.7L19.4 61V0H9.8z" id="DejaVuSans-4e"/><path d="M52 44.2q3.4 6 8 9Q64.9 56 71 56q8.6 0 13.3-6 4.6-6 4.6-17V0h-9v32.7q0 7.9-2.8 11.7-2.8 3.8-8.5 3.8-7 0-11-4.7-4-4.6-4-12.6V0h-9.1v32.7q0 8-2.8 11.7-2.8 3.8-8.6 3.8-6.9 0-11-4.7-4-4.6-4-12.6V0h-9v54.7h9v-8.5q3 5 7.4 7.4Q29.8 56 35.7 56q6 0 10.1-3 4.2-3 6.2-8.8z" id="DejaVuSans-6d"/><path d="M48.7 27.3q0 9.9-4 15.5-4.2 5.7-11.3 5.7-7.1 0-11.2-5.7-4-5.6-4-15.5 0-10 4-15.6t11.2-5.6q7.1 0 11.2 5.7 4 5.6 4 15.5zM18 46.3q2.9 5 7.2 7.3Q29.6 56 35.6 56q10 0 16.2-8Q58 40.3 58 27.4q0-12.9-6.2-20.8-6.2-8-16.2-8-6 0-10.3 2.5Q21 3.3 18 8.2V0h-9v76h9z" id="DejaVuSans-62"/><path d="M37.1 76v-7.5h-8.6q-4.8 0-6.7-2-1.9-2-1.9-7v-4.8h14.8v-7H20V0h-9v47.7H2.3v7h8.6v3.8q0 9.1 4.2 13.3Q19.4 76 28.6 76z" id="DejaVuSans-66"/><path d="M18.3 70.2V54.7h18.5v-7H18.3V18q0-6.7 1.8-8.6 1.9-1.9 7.5-1.9h9.2V0h-9.2Q17.2 0 13.2 3.9T9.2 18v29.7H2.8v7h6.6v15.5z" id="DejaVuSans-74"/><path d="M9.4 54.7h9V0h-9zm0 21.3h9V64.6h-9z" id="DejaVuSans-69"/><path d="M18.1 8.2v-29h-9v75.5h9v-8.3q2.9 4.9 7.2 7.2Q29.6 56 35.6 56q10 0 16.2-8Q58 40.3 58 27.4q0-12.9-6.2-20.8-6.2-8-16.2-8-6 0-10.3 2.5Q21 3.3 18 8.2zm30.6 19.1q0 9.9-4 15.5-4.2 5.7-11.3 5.7-7.1 0-11.2-5.7-4-5.6-4-15.5 0-10 4-15.6t11.2-5.6q7.1 0 11.2 5.7 4 5.6 4 15.5z" id="DejaVuSans-70"/><path d="M44.3 53v-8.4q-3.8 2-8 2.9-4 1-8.4 1-6.7 0-10-2-3.4-2.1-3.4-6.2 0-3.1 2.4-5 2.4-1.7 9.6-3.3l3-.7q9.7-2 13.7-5.8 4-3.7 4-10.4 0-7.6-6-12-6-4.5-16.6-4.5-4.4 0-9.1.8-4.8.9-10 2.6v9.3q5-2.6 9.7-4 4.9-1.2 9.6-1.2 6.4 0 9.8 2.2 3.4 2.2 3.4 6.1 0 3.7-2.5 5.6-2.4 2-10.8 3.8l-3.1.7q-8.4 1.8-12 5.4-3.8 3.6-3.8 10 0 7.7 5.5 11.9Q16.7 56 26.8 56q5 0 9.4-.7 4.4-.8 8-2.2z" id="DejaVuSans-73"/></defs><g transform="matrix(0 -.11 -.11 0 27.9 115)" fill="#262626"><use xlink:href="#DejaVuSans-4e"/><use x="74.8" xlink:href="#DejaVuSans-75"/><use x="138.2" xlink:href="#DejaVuSans-6d"/><use x="235.6" xlink:href="#DejaVuSans-62"/><use x="299.1" xlink:href="#DejaVuSans-65"/><use x="360.6" xlink:href="#DejaVuSans-72"/><use x="401.7" xlink:href="#DejaVuSans-20"/><use x="433.5" xlink:href="#DejaVuSans-6f"/><use x="494.7" xlink:href="#DejaVuSans-66"/><use x="529.9" xlink:href="#DejaVuSans-20"/><use x="561.7" xlink:href="#DejaVuSans-74"/><use x="600.9" xlink:href="#DejaVuSans-72"/><use x="642" xlink:href="#DejaVuSans-69"/><use x="669.8" xlink:href="#DejaVuSans-70"/><use x="733.3" xlink:href="#DejaVuSans-73"/></g></g></g><path clip-path="url(#p06eba5c22b)" d="M62.7 110.2L76 115h13.2l13.2.6 13.3 1 13.2-11.9 13.2-10 13.3-18.3L168.6 31l13.2 20.6 13.3 23.5h13.2l13.2-.7 13.3 2 13.2-1.2 13.2 6.7 13.3-1.9 13.2-2.5 13.2-1.9 13.3 7.1 13.2 4.7 13.2 8.6 13.3 5.3L367 105" fill="none" stroke="#4c72b0" stroke-linecap="round" stroke-width="1.8" id="line2d_17"/><path clip-path="url(#p06eba5c22b)" d="M62.7 103l13.3 5.7 13.2 1 13.2 3 13.3 4 13.2-.3 13.2-.2 13.3-2.6 13.2-3 13.2-3.2 13.3-9.3 13.2-12.8 13.2-1.4 13.3-5.3 13.2-5.1L261.2 60l13.3-27.2 13.2-6L301 53l13.3 9.2 13.2-.2 13.2 12.8 13.3 11L367 96.3" fill="none" stroke="#55a868" stroke-linecap="round" stroke-width="1.8" id="line2d_18"/><path d="M47.5 121.2V22.3" fill="none" id="patch_3"/><path d="M382.3 121.2V22.3" fill="none" id="patch_4"/><path d="M47.5 121.2h334.8" fill="none" id="patch_5"/><path d="M47.5 22.3h334.8" fill="none" id="patch_6"/><g id="text_11"><defs><path d="M-.3 73h61.7v-8.4H35.5V0h-10v64.6H-.2z" id="DejaVuSans-54"/><path d="M54.9 33V0h-9v32.7q0 7.8-3 11.6-3 3.9-9.1 3.9-7.3 0-11.5-4.7Q18.1 39 18.1 31V0h-9v76h9V46.2q3.2 5 7.6 7.4Q30.1 56 35.8 56q9.4 0 14.2-5.8Q55 44.3 55 33z" id="DejaVuSans-68"/><path d="M53.5 70.5V61q-5.6 2.7-10.6 4-5 1.3-9.6 1.3-8 0-12.4-3.1t-4.4-8.9q0-4.8 3-7.3 2.8-2.5 11-4l5.9-1.2q11-2.1 16.3-7.4 5.2-5.3 5.2-14.2 0-10.6-7.1-16Q43.7-1.5 30-1.5q-5.2 0-11 1.1Q13 1 6.9 3.3v10.2q6-3.4 11.8-5.1Q24.4 6.6 30 6.6q8.4 0 13 3.3t4.6 9.5q0 5.4-3.3 8.4t-10.8 4.5l-6 1.2q-11 2.2-16 6.9t-5 13q0 9.7 7 15.3 6.7 5.5 18.7 5.5 5.1 0 10.4-1 5.4-.8 11-2.7z" id="DejaVuSans-53"/><path d="M9.8 73H56v-8.4H19.7V43h34.7v-8.3H19.7V8.3h37V0H9.9z" id="DejaVuSans-45"/><path d="M24.3 39.2q-4.4-4-6.5-7.9-2-4-2-8.2 0-7.1 5-11.9 5.3-4.7 13-4.7 4.7 0 8.8 1.5 4 1.6 7.6 4.7zm6.9 5.5L56 19.3q2.9 4.3 4.5 9.3 1.6 5 2 10.5h9q-.6-6.4-3.1-12.7-2.6-6.3-7.1-12.5L74.9 0H62.6l-7 7.2Q50.6 2.8 45 .7q-5.6-2.1-12-2.1-11.8 0-19.2 6.7Q6.3 12 6.3 22.5q0 6.3 3.3 11.8 3.2 5.5 9.8 10.3-2.4 3-3.6 6.1-1.2 3-1.2 6 0 7.9 5.4 12.7 5.4 4.8 14.4 4.8 4 0 8.1-.9 4-.8 8.2-2.6v-8.9q-4.3 2.3-8.1 3.5-3.9 1.2-7.2 1.2-5.1 0-8.3-2.7-3.2-2.7-3.2-7 0-2.5 1.4-5 1.5-2.5 5.9-7.1z" id="DejaVuSans-26"/><path d="M8.7 73h10V28.5q0-11.7 4.1-16.9 4.3-5.1 13.8-5.1t13.7 5.1q4.3 5.2 4.3 17v44.2h9.9V27.4q0-14.3-7-21.5-7.1-7.3-20.9-7.3-13.8 0-20.9 7.3-7 7.2-7 21.5z" id="DejaVuSans-55"/><path d="M54.9 33V0h-9v32.7q0 7.8-3 11.6-3 3.9-9.1 3.9-7.3 0-11.5-4.7Q18.1 39 18.1 31V0h-9v54.7h9v-8.5q3.2 5 7.6 7.4Q30.1 56 35.8 56q9.4 0 14.2-5.8Q55 44.3 55 33z" id="DejaVuSans-6e"/><path d="M32.2-5q-3.8-9.8-7.5-12.8-3.6-3-9.6-3H7.9v7.5h5.3q3.7 0 5.7 1.8 2.1 1.7 4.6 8.3l1.6 4L3 54.8h9.5l17-42.8 17.2 42.8h9.5z" id="DejaVuSans-79"/></defs><g transform="matrix(.12 0 0 -.12 105.6 16.3)" fill="#262626"><use xlink:href="#DejaVuSans-54"/><use x="60.9" xlink:href="#DejaVuSans-72"/><use x="102" xlink:href="#DejaVuSans-69"/><use x="129.8" xlink:href="#DejaVuSans-70"/><use x="193.2" xlink:href="#DejaVuSans-73"/><use x="245.3" xlink:href="#DejaVuSans-20"/><use x="277.1" xlink:href="#DejaVuSans-61"/><use x="338.4" xlink:href="#DejaVuSans-74"/><use x="377.6" xlink:href="#DejaVuSans-20"/><use x="409.4" xlink:href="#DejaVuSans-36"/><use x="473" xlink:href="#DejaVuSans-74"/><use x="512.2" xlink:href="#DejaVuSans-68"/><use x="575.6" xlink:href="#DejaVuSans-20"/><use x="607.4" xlink:href="#DejaVuSans-41"/><use x="675.7" xlink:href="#DejaVuSans-76"/><use x="734.9" xlink:href="#DejaVuSans-65"/><use x="796.4" xlink:href="#DejaVuSans-20"/><use x="828.2" xlink:href="#DejaVuSans-53"/><use x="891.7" xlink:href="#DejaVuSans-45"/><use x="954.9" xlink:href="#DejaVuSans-20"/><use x="986.7" xlink:href="#DejaVuSans-26"/><use x="1064.6" xlink:href="#DejaVuSans-20"/><use x="1096.4" xlink:href="#DejaVuSans-55"/><use x="1169.6" xlink:href="#DejaVuSans-6e"/><use x="1233" xlink:href="#DejaVuSans-69"/><use x="1260.8" xlink:href="#DejaVuSans-76"/><use x="1320" xlink:href="#DejaVuSans-65"/><use x="1381.5" xlink:href="#DejaVuSans-72"/><use x="1422.6" xlink:href="#DejaVuSans-73"/><use x="1474.7" xlink:href="#DejaVuSans-69"/><use x="1502.5" xlink:href="#DejaVuSans-74"/><use x="1541.7" xlink:href="#DejaVuSans-79"/><use x="1600.9" xlink:href="#DejaVuSans-20"/><use x="1632.7" xlink:href="#DejaVuSans-41"/><use x="1701" xlink:href="#DejaVuSans-76"/><use x="1760.2" xlink:href="#DejaVuSans-65"/></g></g><g id="legend_1"><path d="M56.5 35.4h20" fill="none" stroke="#4c72b0" stroke-linecap="round" stroke-width="1.8" id="line2d_19"/><g id="text_12"><defs><path d="M39.4 66.2q-10.7 0-17-8-6.4-8-6.4-21.8t6.3-21.8q6.4-8 17.1-8 10.7 0 17 8 6.3 8 6.3 21.8t-6.3 21.8q-6.3 8-17 8zm0 8Q54.7 74.2 64 64q9.2-10.2 9.2-27.5T63.9 8.9Q54.7-1.4 39.4-1.4 24-1.4 14.8 8.8 5.6 19.1 5.6 36.4t9.2 27.5Q24 74.2 39.4 74.2z" id="DejaVuSans-4f"/><path d="M45.4 46.4V76h9V0h-9v8.2Q42.6 3.3 38.3 1q-4.4-2.4-10.4-2.4-10 0-16.2 7.9-6.2 8-6.2 20.8 0 12.9 6.2 20.8Q18 56 28 56q6 0 10.4-2.4 4.3-2.3 7.1-7.2zM14.8 27.3q0-10 4-15.6Q23 6.2 30.2 6.2q7.1 0 11.2 5.7 4.1 5.6 4.1 15.5t-4.1 15.5q-4.1 5.7-11.2 5.7t-11.2-5.7q-4.1-5.6-4.1-15.5z" id="DejaVuSans-64"/></defs><g transform="matrix(.1 0 0 -.1 84.5 39)" fill="#262626"><use xlink:href="#DejaVuSans-4f"/><use x="78.7" xlink:href="#DejaVuSans-75"/><use x="142.1" xlink:href="#DejaVuSans-74"/><use x="181.3" xlink:href="#DejaVuSans-62"/><use x="244.8" xlink:href="#DejaVuSans-6f"/><use x="306" xlink:href="#DejaVuSans-75"/><use x="369.3" xlink:href="#DejaVuSans-6e"/><use x="432.7" xlink:href="#DejaVuSans-64"/></g></g><path d="M56.5 50h20" fill="none" stroke="#55a868" stroke-linecap="round" stroke-width="1.8" id="line2d_21"/><g id="text_13"><defs><path d="M9.8 73h9.9V0H9.8z" id="DejaVuSans-49"/></defs><g transform="matrix(.1 0 0 -.1 84.5 53.6)" fill="#262626"><use xlink:href="#DejaVuSans-49"/><use x="29.5" xlink:href="#DejaVuSans-6e"/><use x="92.9" xlink:href="#DejaVuSans-62"/><use x="156.3" xlink:href="#DejaVuSans-6f"/><use x="217.5" xlink:href="#DejaVuSans-75"/><use x="280.9" xlink:href="#DejaVuSans-6e"/><use x="344.3" xlink:href="#DejaVuSans-64"/></g></g></g></g></g><defs><clipPath id="p06eba5c22b"><path d="M47.5 22.3h334.8v98.8H47.5z"/></clipPath></defs></svg>