<svg viewBox="0 0 391 278" xmlns="http://www.w3.org/2000/svg" xmlns:xlink="http://www.w3.org/1999/xlink"><defs><style>*{stroke-linecap:butt;stroke-linejoin:round}</style></defs><g id="figure_1"><path d="M0 278.3h392V0H0z" fill="#fff" id="patch_1"/><g id="axes_1"><path d="M50 239.8h334.8V22.3H50z" fill="#eaeaf2" id="patch_2"/><g id="matplotlib.axis_1"><g id="xtick_1"><g id="text_1"><defs><path d="M31.8 66.4q-7.6 0-11.5-7.5-3.8-7.5-3.8-22.5t3.8-22.5q3.9-7.5 11.5-7.5 7.7 0 11.5 7.5T47 36.4q0 15-3.8 22.5t-11.5 7.5zm0 7.8q12.2 0 18.7-9.7T57 36.4Q57 18 50.5 8.3 44-1.4 31.8-1.4 19.5-1.4 13 8.3q-6.5 9.7-6.5 28 0 18.5 6.5 28.2 6.4 9.7 18.7 9.7z" id="DejaVuSans-30"/></defs><use xlink:href="#DejaVuSans-30" transform="matrix(.1 0 0 -.1 61.2 254.4)" fill="#262626"/></g></g><g id="xtick_2"><g id="text_2"><defs><path d="M10.8 73h38.7v-8.4H19.8V46.7q2.2.8 4.3 1.1 2.2.4 4.3.4 12.2 0 19.4-6.7 7-6.7 7-18.1 0-11.8-7.2-18.3-7.4-6.5-20.7-6.5-4.6 0-9.4.8-4.7.7-9.8 2.3v10q4.4-2.5 9.1-3.6 4.7-1.2 9.9-1.2 8.5 0 13.4 4.4 5 4.5 5 12 0 7.7-5 12.1Q35 40 26.7 40q-4 0-7.9-.9-4-.9-8-2.7z" id="DejaVuSans-35"/></defs><g transform="matrix(.1 0 0 -.1 99.8 254.4)" fill="#262626"><use xlink:href="#DejaVuSans-35"/><use x="63.6" xlink:href="#DejaVuSans-30"/></g></g></g><g id="xtick_3"><g id="text_3"><defs><path d="M12.4 8.3h16.1v55.6L11 60.4v9l17.4 3.5h9.9V8.3h16V0H12.5z" id="DejaVuSans-31"/></defs><g transform="matrix(.1 0 0 -.1 138.4 254.4)" fill="#262626"><use xlink:href="#DejaVuSans-31"/><use x="63.6" xlink:href="#DejaVuSans-30"/><use x="127.2" xlink:href="#DejaVuSans-30"/></g></g></g><g id="xtick_4"><g transform="matrix(.1 0 0 -.1 180.2 254.4)" fill="#262626" id="text_4"><use xlink:href="#DejaVuSans-31"/><use x="63.6" xlink:href="#DejaVuSans-35"/><use x="127.2" xlink:href="#DejaVuSans-30"/></g></g><g id="xtick_5"><g id="text_5"><defs><path d="M19.2 8.3h34.4V0H7.3v8.3l15.3 15.6q9.7 9.8 12.2 12.6 4.7 5.3 6.6 9 2 3.7 2 7.3 0 5.8-4.2 9.5-4 3.6-10.6 3.6-4.6 0-9.8-1.6-5.1-1.6-11-4.9v10q6 2.4 11.1 3.6 5.2 1.2 9.5 1.2 11.4 0 18-5.7 6.8-5.6 6.8-15 0-4.6-1.7-8.6-1.6-4-6-9.5l-7.9-8.2L19.2 8.3z" id="DejaVuSans-32"/></defs><g transform="matrix(.1 0 0 -.1 222 254.4)" fill="#262626"><use xlink:href="#DejaVuSans-32"/><use x="63.6" xlink:href="#DejaVuSans-30"/><use x="127.2" xlink:href="#DejaVuSans-30"/></g></g></g><g id="xtick_6"><g transform="matrix(.1 0 0 -.1 263.8 254.4)" fill="#262626" id="text_6"><use xlink:href="#DejaVuSans-32"/><use x="63.6" xlink:href="#DejaVuSans-35"/><use x="127.2" xlink:href="#DejaVuSans-30"/></g></g><g id="xtick_7"><g id="text_7"><defs><path d="M40.6 39.3q7-1.5 11-6.3t4-11.8q0-10.8-7.4-16.7-7.4-6-21.1-6-4.6 0-9.4 1-4.9.9-10 2.7v9.5q4-2.4 8.9-3.6Q21.5 7 26.8 7q9.3 0 14.1 3.6 4.9 3.7 4.9 10.7 0 6.4-4.5 10Q36.8 35 28.7 35h-8.5V43h9q7.2 0 11 3 3.9 2.8 3.9 8.3 0 5.6-4 8.6t-11.4 3q-4 0-8.7-.9-4.6-.8-10.2-2.7v8.8q5.6 1.6 10.5 2.3 5 .8 9.3.8 11.2 0 17.8-5 6.5-5.2 6.5-13.9 0-6-3.5-10.2-3.4-4.2-9.8-5.8z" id="DejaVuSans-33"/></defs><g transform="matrix(.1 0 0 -.1 305.6 254.4)" fill="#262626"><use xlink:href="#DejaVuSans-33"/><use x="63.6" xlink:href="#DejaVuSans-30"/><use x="127.2" xlink:href="#DejaVuSans-30"/></g></g></g><g id="xtick_8"><g transform="matrix(.1 0 0 -.1 347.4 254.4)" fill="#262626" id="text_8"><use xlink:href="#DejaVuSans-33"/><use x="63.6" xlink:href="#DejaVuSans-35"/><use x="127.2" xlink:href="#DejaVuSans-30"/></g></g><g id="text_9"><defs><path d="M19.7 64.8V8.1h11.9q15 0 22 6.8 7 6.9 7 21.6 0 14.7-7 21.5-7 6.8-22 6.8zm-9.9 8.1h20.3q21.2 0 31-8.8 10-8.8 10-27.6T61 8.8Q51.1 0 30.1 0H9.8z" id="DejaVuSans-44"/><path d="M34.3 27.5q-11 0-15.1-2.5-4.2-2.5-4.2-8.5 0-4.8 3.1-7.6 3.2-2.8 8.6-2.8 7.5 0 12 5.3t4.5 14v2zm17.9 3.7V0h-9v8.3q-3-5-7.7-7.3Q31-1.4 24.3-1.4 16-1.4 11 3.3 6 8 6 15.9q0 9.2 6.2 14 6.2 4.6 18.4 4.6h12.6v1q0 6.1-4 9.5-4.1 3.4-11.5 3.4-4.7 0-9.2-1.1-4.4-1.2-8.5-3.4v8.3q5 2 9.6 2.8 4.6 1 9 1 11.9 0 17.7-6.2 5.9-6.1 5.9-18.6z" id="DejaVuSans-61"/><path d="M32.2-5q-3.8-9.8-7.5-12.8-3.6-3-9.6-3H7.9v7.5h5.3q3.7 0 5.7 1.8 2.1 1.7 4.6 8.3l1.6 4L3 54.8h9.5l17-42.8 17.2 42.8h9.5z" id="DejaVuSans-79"/><path d="M30.6 48.4q-7.2 0-11.4-5.6Q15 37 15 27.3t4.2-15.5q4.1-5.6 11.4-5.6 7.2 0 11.4 5.7 4.2 5.6 4.2 15.4 0 9.7-4.2 15.4-4.2 5.7-11.4 5.7zm0 7.6q11.7 0 18.4-7.6 6.7-7.6 6.7-21.1 0-13.4-6.7-21-6.7-7.7-18.4-7.7-11.8 0-18.4 7.6Q5.5 14 5.5 27.3q0 13.5 6.7 21Q18.8 56 30.6 56z" id="DejaVuSans-6f"/><path d="M37.1 76v-7.5h-8.6q-4.8 0-6.7-2-1.9-2-1.9-7v-4.8h14.8v-7H20V0h-9v47.7H2.3v7h8.6v3.8q0 9.1 4.2 13.3Q19.4 76 28.6 76z" id="DejaVuSans-66"/><path d="M56.2 29.6v-4.4H14.9q.6-9.3 5.6-14.1 5-4.9 14-4.9 5 0 10 1.3 4.8 1.2 9.6 3.8V2.8q-4.8-2-10-3.1-5-1.1-10.2-1.1-13.1 0-20.7 7.6-7.7 7.6-7.7 20.6 0 13.4 7.3 21.3Q20 56 32.3 56q11 0 17.5-7.1 6.4-7.1 6.4-19.3zm-9 2.6q0 7.4-4.1 11.8-4 4.4-10.7 4.4-7.5 0-12-4.3-4.5-4.2-5.2-12z" id="DejaVuSans-65"/><path d="M41.1 46.3q-1.5.9-3.3 1.3-1.8.4-4 .4-7.5 0-11.6-5-4-5-4-14.2V0H9v54.7h9v-8.5q2.9 5 7.4 7.4Q30 56 36.5 56l2-.1 2.6-.4z" id="DejaVuSans-72"/></defs><g transform="matrix(.11 0 0 -.11 185.4 268.8)" fill="#262626"><use xlink:href="#DejaVuSans-44"/><use x="77" xlink:href="#DejaVuSans-61"/><use x="138.3" xlink:href="#DejaVuSans-79"/><use x="197.5" xlink:href="#DejaVuSans-20"/><use x="229.2" xlink:href="#DejaVuSans-6f"/><use x="290.4" xlink:href="#DejaVuSans-66"/><use x="325.6" xlink:href="#DejaVuSans-20"/><use x="357.4" xlink:href="#DejaVuSans-79"/><use x="416.6" xlink:href="#DejaVuSans-65"/><use x="478.1" xlink:href="#DejaVuSans-61"/><use x="539.4" xlink:href="#DejaVuSans-72"/></g></g></g><g id="matplotlib.axis_2"><g id="ytick_1"><g id="text_10"><defs><path d="M10.6 35.5h62.6v-8.3H10.6z" id="DejaVuSans-2212"/></defs><g transform="matrix(.1 0 0 -.1 21.8 239)" fill="#262626"><use xlink:href="#DejaVuSans-2212"/><use x="83.8" xlink:href="#DejaVuSans-32"/><use x="147.4" xlink:href="#DejaVuSans-30"/></g></g></g><g id="ytick_2"><use xlink:href="#DejaVuSans-30" transform="matrix(.1 0 0 -.1 36.6 203.1)" fill="#262626" id="text_11"/></g><g id="ytick_3"><g transform="matrix(.1 0 0 -.1 30.2 167.2)" fill="#262626" id="text_12"><use xlink:href="#DejaVuSans-32"/><use x="63.6" xlink:href="#DejaVuSans-30"/></g></g><g id="ytick_4"><g id="text_13"><defs><path d="M37.8 64.3l-25-39h25zM35.2 73h12.4V25.4H58v-8.2H47.6V0h-9.8v17.2h-33v9.5z" id="DejaVuSans-34"/></defs><g transform="matrix(.1 0 0 -.1 30.2 131.2)" fill="#262626"><use xlink:href="#DejaVuSans-34"/><use x="63.6" xlink:href="#DejaVuSans-30"/></g></g></g><g id="ytick_5"><g id="text_14"><defs><path d="M33 40.4q-6.6 0-10.5-4.6-3.9-4.5-3.9-12.4T22.5 11Q26.4 6.4 33 6.4q6.7 0 10.5 4.6 4 4.5 4 12.4t-4 12.4q-3.8 4.6-10.5 4.6zm19.6 30.9v-9Q48.9 64.1 45 65q-3.8 1-7.5 1-9.8 0-15-6.7-5-6.6-5.8-19.9 2.9 4.3 7.2 6.5 4.4 2.3 9.6 2.3 11 0 17.4-6.7 6.3-6.6 6.3-18.1 0-11.2-6.6-18Q44-1.4 33-1.4q-12.6 0-19.3 9.7Q7 18 7 36.3 7 53.8 15.2 64q8.2 10.3 22 10.3 3.7 0 7.5-.7 3.8-.8 7.9-2.2z" id="DejaVuSans-36"/></defs><g transform="matrix(.1 0 0 -.1 30.2 95.3)" fill="#262626"><use xlink:href="#DejaVuSans-36"/><use x="63.6" xlink:href="#DejaVuSans-30"/></g></g></g><g id="ytick_6"><g id="text_15"><defs><path d="M31.8 34.6q-7 0-11-3.7-4.1-3.8-4.1-10.4 0-6.6 4-10.3 4-3.8 11-3.8 7.1 0 11.2 3.8 4 3.8 4 10.3 0 6.6-4 10.4-4 3.7-11.1 3.7zm-9.9 4.2q-6.3 1.6-9.9 6Q8.5 49 8.5 55.2q0 8.8 6.2 13.8 6.3 5.1 17 5.1 11 0 17.2-5Q55 64 55 55.2q0-6.2-3.6-10.6-3.5-4.3-9.8-5.9 7.1-1.6 11.1-6.5 4-4.8 4-11.8 0-10.6-6.5-16.3-6.5-5.6-18.5-5.6T13.2 4.2Q6.8 10 6.8 20.5q0 7 4 11.8 4 4.9 11.1 6.5zm-3.6 15.6q0-5.7 3.5-8.8 3.6-3.2 10-3.2 6.3 0 10 3.2 3.5 3.1 3.5 8.8 0 5.7-3.6 8.8-3.6 3.2-10 3.2-6.3 0-9.9-3.2-3.5-3.1-3.5-8.8z" id="DejaVuSans-38"/></defs><g transform="matrix(.1 0 0 -.1 30.2 59.4)" fill="#262626"><use xlink:href="#DejaVuSans-38"/><use x="63.6" xlink:href="#DejaVuSans-30"/></g></g></g><g id="text_16"><defs><path d="M31 75.9q-6.5-11.2-9.7-22.2-3.2-11-3.2-22.3T21.3 9Q24.5-2 31-13.2h-7.8q-7.3 11.5-11 22.6-3.6 11-3.6 22 0 10.9 3.6 22 3.6 11 11 22.5z" id="DejaVuSans-28"/><path d="M-.3 73h61.7v-8.4H35.5V0h-10v64.6H-.2z" id="DejaVuSans-54"/><path d="M18.1 8.2v-29h-9v75.5h9v-8.3q2.9 4.9 7.2 7.2Q29.6 56 35.6 56q10 0 16.2-8Q58 40.3 58 27.4q0-12.9-6.2-20.8-6.2-8-16.2-8-6 0-10.3 2.5Q21 3.3 18 8.2zm30.6 19.1q0 9.9-4 15.5-4.2 5.7-11.3 5.7-7.1 0-11.2-5.7-4-5.6-4-15.5 0-10 4-15.6t11.2-5.6q7.1 0 11.2 5.7 4 5.6 4 15.5z" id="DejaVuSans-70"/><path d="M18.3 70.2V54.7h18.5v-7H18.3V18q0-6.7 1.8-8.6 1.9-1.9 7.5-1.9h9.2V0h-9.2Q17.2 0 13.2 3.9T9.2 18v29.7H2.8v7h6.6v15.5z" id="DejaVuSans-74"/><path d="M8.5 21.6v33h9V22q0-7.7 3-11.6 3-4 9-4 7.4 0 11.6 4.7 4.2 4.7 4.2 12.7v31h9V0h-9v8.4Q42 3.4 37.7 1q-4.3-2.4-10-2.4-9.4 0-14.3 5.8-4.9 5.9-4.9 17.2zM31.1 56z" id="DejaVuSans-75"/><path d="M52 44.2q3.4 6 8 9Q64.9 56 71 56q8.6 0 13.3-6 4.6-6 4.6-17V0h-9v32.7q0 7.9-2.8 11.7-2.8 3.8-8.5 3.8-7 0-11-4.7-4-4.6-4-12.6V0h-9.1v32.7q0 8-2.8 11.7-2.8 3.8-8.6 3.8-6.9 0-11-4.7-4-4.6-4-12.6V0h-9v54.7h9v-8.5q3 5 7.4 7.4Q29.8 56 35.7 56q6 0 10.1-3 4.2-3 6.2-8.8z" id="DejaVuSans-6d"/><path d="M45.4 46.4V76h9V0h-9v8.2Q42.6 3.3 38.3 1q-4.4-2.4-10.4-2.4-10 0-16.2 7.9-6.2 8-6.2 20.8 0 12.9 6.2 20.8Q18 56 28 56q6 0 10.4-2.4 4.3-2.3 7.1-7.2zM14.8 27.3q0-10 4-15.6Q23 6.2 30.2 6.2q7.1 0 11.2 5.7 4.1 5.6 4.1 15.5t-4.1 15.5q-4.1 5.7-11.2 5.7t-11.2-5.7q-4.1-5.6-4.1-15.5z" id="DejaVuSans-64"/><path d="M45.4 28q0 9.8-4 15.1-4 5.4-11.3 5.4-7.2 0-11.3-5.4-4-5.4-4-15.1t4-15.1q4-5.4 11.3-5.4 7.3 0 11.3 5.4 4 5.4 4 15zm9-21.2q0-14-6.2-20.8-6.2-6.8-19-6.8-4.7 0-9 .7-4.1.7-8 2.2v8.7q3.9-2.1 7.7-3.1 3.9-1 7.9-1 8.8 0 13.2 4.5 4.4 4.6 4.4 14v4.4q-2.8-4.8-7.1-7.2Q33.9 0 27.9 0q-10 0-16.2 7.7Q5.5 15.3 5.5 28q0 12.7 6.2 20.3Q17.8 56 27.9 56q6 0 10.4-2.4 4.3-2.4 7.1-7.2v8.3h9z" id="DejaVuSans-67"/><path d="M44.3 53v-8.4q-3.8 2-8 2.9-4 1-8.4 1-6.7 0-10-2-3.4-2.1-3.4-6.2 0-3.1 2.4-5 2.4-1.7 9.6-3.3l3-.7q9.7-2 13.7-5.8 4-3.7 4-10.4 0-7.6-6-12-6-4.5-16.6-4.5-4.4 0-9.1.8-4.8.9-10 2.6v9.3q5-2.6 9.7-4 4.9-1.2 9.6-1.2 6.4 0 9.8 2.2 3.4 2.2 3.4 6.1 0 3.7-2.5 5.6-2.4 2-10.8 3.8l-3.1.7q-8.4 1.8-12 5.4-3.8 3.6-3.8 10 0 7.7 5.5 11.9Q16.7 56 26.8 56q5 0 9.4-.7 4.4-.8 8-2.2z" id="DejaVuSans-73"/><path d="M9.8 73h41.9v-8.4h-32V43h28.9v-8.3h-29V0H9.9z" id="DejaVuSans-46"/><path d="M8 75.9h7.8q7.3-11.5 11-22.6 3.6-11 3.6-22 0-10.8-3.6-22-3.7-11-11-22.5H8Q14.5-2 17.7 9.1q3.2 11 3.2 22.3t-3.2 22.3q-3.2 11-9.7 22.2z" id="DejaVuSans-29"/></defs><g transform="matrix(0 -.11 -.11 0 15.6 200.1)" fill="#262626"><use xlink:href="#DejaVuSans-54"/><use x="60.8" xlink:href="#DejaVuSans-65"/><use x="122.3" xlink:href="#DejaVuSans-6d"/><use x="219.8" xlink:href="#DejaVuSans-70"/><use x="283.2" xlink:href="#DejaVuSans-65"/><use x="344.8" xlink:href="#DejaVuSans-72"/><use x="385.9" xlink:href="#DejaVuSans-61"/><use x="447.1" xlink:href="#DejaVuSans-74"/><use x="486.4" xlink:href="#DejaVuSans-75"/><use x="549.7" xlink:href="#DejaVuSans-72"/><use x="590.8" xlink:href="#DejaVuSans-65"/><use x="652.3" xlink:href="#DejaVuSans-20"/><use x="684.1" xlink:href="#DejaVuSans-28"/><use x="723.1" xlink:href="#DejaVuSans-64"/><use x="786.6" xlink:href="#DejaVuSans-65"/><use x="848.1" xlink:href="#DejaVuSans-67"/><use x="911.6" xlink:href="#DejaVuSans-72"/><use x="952.7" xlink:href="#DejaVuSans-65"/><use x="1014.2" xlink:href="#DejaVuSans-65"/><use x="1075.7" xlink:href="#DejaVuSans-73"/><use x="1127.8" xlink:href="#DejaVuSans-20"/><use x="1159.6" xlink:href="#DejaVuSans-46"/><use x="1217.2" xlink:href="#DejaVuSans-29"/></g></g></g><path clip-path="url(#pa6fa24fa81)" d="M65.2 152.6l.8-9 .8 1.8.9 9 .8 41.3.8 3.6.9-9 .8-3.6.9-18 .8-14.3h.8l.9 30.5.8-7.1.8 7.1.9-25.1.8-18 .8 3.6.9-7.2.8-10.8.9 5.4.8 3.6.8-1.8.9-3.6.8 9 .8 3.6.9 5.4.8 1.8.8-3.6.9 7.2.8-1.8.9-23.4.8 5.4.8 36h.9l.8-28.8.8-1.8.9 16.2.8-10.8.8 10.8.9 21.6.8-12.6.9-45 .8 1.9.8 10.7.9-14.3.8 9 .8 10.7.9-9 .8-39.5.8 7.2.9 1.8.8 5.4.8-14.4.9 9 .8 37.7.9 18 1.6-18 .9-14.3h.8l.8 16.1.9 12.6.8-3.6.8-19.8.9-28.7.8-9 1.7 54 .8 7.1.9 19.8.8-7.2.8-14.4.9-1.8.8-5.4.8 3.6.9-18 .8-3.5.9 3.5.8-21.5.8-1.8.9 36 .8-9h.8l.9-7.2.8 3.5.8-1.8.9-27 .8-8.9.9 23.4.8 3.6 1.7-30.6.8 18 .8 7.2.9-18 .8 12.6h.8l.9-10.8.8-19.8.8-1.8.9 48.6.8-12.6.9-7.2.8 3.6.8-18 .9-14.4.8 14.4.8 10.8.9-10.8.8 21.6.8 3.6.9-21.6.8-12.6.9 1.8.8-7.2.8 19.8.9 37.7.8 5.4.8-23.3.9-9 .8 14.4.8 10.7.9-37.7.8-7.2.9-5.4.8-18 .8 19.8.9 1.8.8-7.2.8-1.8.9 7.2h.8l.8-16.2.9-9 .8-5.3.9 25.1.8-21.5.8 21.5.9 28.8h.8l.8 5.4h.9l.8-25.2.8 7.2.9-1.8 1.6-34.1.9 14.3.8-1.8.9 16.2.8 9 .8-25.2.9-10.7.8-16.2.8-1.8.9 3.6.8 5.4.8 7.2.9-10.8.8 9 .9-3.6.8-18 .8 36 .9-12.6.8-14.4.8 9 .9-1.8 1.6 3.6.9 19.7h.8l.9-3.6.8-12.5.8 18h.9l.8 10.7.8-3.6.9-5.4.8-10.8.8-7.1.9 9 .8-5.4.9 5.3.8-7.1.8-5.4.9-7.2.8-9 .8-1.8.9 19.8h.8l.8-3.6 1.7-3.6h.8l.9 28.7.8-12.6.9-28.7.8 16.2.8-14.4.9 21.6.8-3.6.8-10.8.9 7.2.8-9 .8 21.5.9-3.5.8-9 .9 1.8h.8l3.3-7.2h.9l.8 12.6.8 32.3.9-25.2.8-1.8.9 5.4.8-9 .8-3.5.9 21.5.8-5.4.8-10.7.9-1.8.8 16.1.8-9 .9-5.3h.8l.9 10.7.8-3.6.8-10.7.9-9 .8 9 .8 10.7h.9l.8 1.8 1.7 10.8.8-10.8h.8l.9-12.5.8-3.6.9 19.7.8-1.8.8-14.3.9-9 1.6 37.7.9-5.4h.8l.8-1.8 1.7-21.5.9-1.8.8-7.2.8-1.8.9-5.4.8 12.6.8 10.7.9 18 .8 10.8.8-34.1.9 7.1.8-12.5.9-19.8.8 9 .8-1.8.9 48.5 1.6-7.2.9 3.6h.8l.8-9 .9 10.8.8-14.4h.9l.8 21.6.8-10.8.9 9 .8-12.6.8-5.4.9 25.2.8 7.2.8-5.4.9-16.2.8 7.2.8 3.6.9 9 .8-23.4.9-12.6.8 1.8.8-1.8.9-9 .8 18 .8 9 .9 5.4.8 16.2.8-10.8h.9l.8 41.3.9 1.8.8-18 .8 9 .9 5.4 1.6-7.2.9 7.2.8-14.4.8 12.6.9 5.4.8-3.6.9-10.8.8 34.2.8-16.2.9-23.3.8 16.1.8-18 .9-1.7.8 7.1.8 9 .9-1.8.8 1.8.8-7.2.9-10.7.8 32.3.9-7.2.8-27 .8-21.5.9 37.7 1.6-37.7.9 14.4.8 10.8 1.7-7.2.8 5.4.9-10.8.8-7.2.8 64.7.9 3.6.8-9 .8-14.4.9 14.4.8-9 .8-10.8.9 10.8.8 1.8.9 9 .8-12.6 1.7 3.6.8-27 .8 16.2.9 25.2 1.6-10.8.9 7.2h.8l.9 36 .8 3.5 1.7-21.5.8 18 .8 14.3h0" fill="none" stroke="#c44e52" stroke-linecap="round" stroke-width="1.8" id="line2d_15"/><path clip-path="url(#pa6fa24fa81)" d="M65.2 167l.8-3.6.8-9 .9 55.7.8 3.6.8 5.4h.9l.8-10.8h.9l.8-36 .8 23.4h.9l.8 21.6.8-1.8.9-19.8.8-1.8.8-14.3.9-25.2.8-1.8.9-5.4.8-7.2h.8l.9 1.8.8 5.4.8 1.8.9 3.6.8 14.4.8 1.8.9-9 .8 14.4.9-7.2.8 7.2.8 14.3h.9l.8 1.8.8-21.5.9 1.8.8-1.8.8 30.5.9 3.6.8-5.4.9-32.3.8-18 .8 3.6h.9l.8 16.2h.8l.9-18 .8-3.6.8-1.8.9-3.6h.8l.8 3.6.9 1.8.8 12.6.9 18h.8l.8-16.2h.9l.8-3.6.8 14.4.9 10.8h.8l.8-27 .9-18 .8 16.2.9 5.4.8 3.6.8 32.3.9 1.8.8-7.2.8-10.7h.9l.8 1.8h.8l1.7-30.6h.9l.8-1.8.8 5.4.9 14.4.8-1.8.8-28.8h.9l.8 1.8h.8l.9 5.4.8-1.8.9-9 .8 12.6h.8l.9-7.2.8-16.1.8 1.8.9 10.7.8 5.4.8 7.2.9-5.4.8-27 .8 9 .9 23.4.8-1.8.9-21.5.8-1.8.8-5.4.9 1.8.8 5.4h1.7l.8 7.1.8 5.4.9-7.2.8-9 .9-1.7.8-10.8.8 30.5.9 7.2h.8l.8-7.2.9-5.4.8 5.4.8 3.6.9-12.6.8-7.1.9-1.8.8 5.3.8-5.3h.9l1.6-7.2 1.7 7.2.8-7.2.9-10.8.8-12.6.9 5.4.8-7.2.8 28.8.9 7.2h.8l.8 3.5.9-5.3.8-9 .8 5.4.9-3.6.8-9h.8l.9-7.2.8 7.2.9 1.8.8 3.6.8 7.2.9-19.8.8-14.4.8 3.6.9 9 .8 7.2.8-9 .9-14.4.8 10.8 1.7-18 .8 27 .9-16.2.8-3.6h.8l.9 5.4 1.6 7.2h.9l1.7 7.2.8-12.6.8 10.8.9 7.2h.8l.8 7.2.9-5.4 1.6-18 .9 5.4.8-3.6.9-5.4.8 10.8.8-12.6.9-3.6.8-10.8.8 12.6.9 14.4.8-14.4.8-3.6.9 12.6.8-10.8.8 19.8.9 1.8.8-7.2.9-10.8.8-3.6.8-1.8.9 14.4.8-9 .8-1.8.9-3.6.8 3.6.8 18 .9-9 .8-10.8.9 3.6.8 5.4.8 3.6.9-3.6.8-5.4h.8l.9 1.8.8 7.2.8 14.4 1.7-10.8.9 9 .8-10.8.8-5.4.9 3.6 1.6 10.8.9-7.2.8-3.6.8 10.8 1.7-18 .9 9 .8 5.4.8-7.2.9-5.4.8 7.2.8 9h.9l.8-3.6h.8l.9-7.2h.8l.8 9 .9-5.4.8 9h.9l.8-1.8.8-7.2.9-3.6.8 16.2.8 7.2.9 1.8h.8l.8-7.2.9-5.4.8-10.8h.9l.8-5.4 1.7-7.2.8-5.4.8 32.4.9 1.8.8-7.2.8-9 .9 16.2.8-5.4.9-34.2.8 5.4.8 18 .9 5.4.8 16.2h1.7l.8 3.6.8-1.8.9-12.6.8-1.8.9 14.4.8 1.8h.8l.9-3.6.8-5.4.8 9 .9 21.5h.8l.8-7.2.9-16.1 1.6 10.7 1.7 3.6.9-12.5.8 7.1.8 1.8.9-23.3.8 7.2h.8l.9 14.3.8 9h.8l.9 5.4.8 7.2.9 1.8.8-5.4.8 5.4.9 3.6.8-7.2.8 5.4h.9l.8-12.6.8 23.4h.9l.8-9 1.7 30.5.8-3.5.9-25.2.8 1.8.8-3.6.9-21.6.8 21.6.8-1.8.9-9 .8 27h.8l.9-18 .8 23.4.9-1.8.8-14.4.8-18 .9 14.4.8-7.2.8-12.6.9 19.8h.8l.8-5.4.9-1.8h.8l.9-1.8.8 25.2.8 1.8.9 14.3h.8l.8-21.5.9 3.6.8-5.4.8 25.1.9 1.8.8-18 .9 7.3.8-16.2.8 5.4.9-5.4.8-9 .8 16.2h1.7l.8 10.8h.9l1.7 34.1.8 1.8.8-1.8.9-10.8.8 21.6.8 1.8h0" fill="none" stroke="#55a868" stroke-linecap="round" stroke-width="1.8" id="line2d_16"/><path d="M50 239.8V22.3" fill="none" id="patch_3"/><path d="M384.8 239.8V22.3" fill="none" id="patch_4"/><path d="M50 239.8h334.8" fill="none" id="patch_5"/><path d="M50 22.3h334.8" fill="none" id="patch_6"/><g id="text_17"><defs><path d="M9.4 54.7h9V0h-9zm0 21.3h9V64.6h-9z" id="DejaVuSans-69"/><path d="M9.4 76h9V0h-9z" id="DejaVuSans-6c"/><path d="M54.9 33V0h-9v32.7q0 7.8-3 11.6-3 3.9-9.1 3.9-7.3 0-11.5-4.7Q18.1 39 18.1 31V0h-9v54.7h9v-8.5q3.2 5 7.6 7.4Q30.1 56 35.8 56q9.4 0 14.2-5.8Q55 44.3 55 33z" id="DejaVuSans-6e"/><path d="M9.8 73h14.7l18.6-49.7 18.7 49.6h14.7V0H67v64L48 14H38L19.5 64V0H9.8z" id="DejaVuSans-4d"/><path d="M8.2 73h46.9v-4.3L28.6 0H18.3l25 64.6H8.1z" id="DejaVuSans-37"/></defs><g transform="matrix(.12 0 0 -.12 87 16.3)" fill="#262626"><use xlink:href="#DejaVuSans-44"/><use x="77" xlink:href="#DejaVuSans-61"/><use x="138.3" xlink:href="#DejaVuSans-69"/><use x="166.1" xlink:href="#DejaVuSans-6c"/><use x="193.8" xlink:href="#DejaVuSans-79"/><use x="253" xlink:href="#DejaVuSans-20"/><use x="284.8" xlink:href="#DejaVuSans-74"/><use x="324" xlink:href="#DejaVuSans-65"/><use x="385.5" xlink:href="#DejaVuSans-6d"/><use x="483" xlink:href="#DejaVuSans-70"/><use x="546.4" xlink:href="#DejaVuSans-65"/><use x="608" xlink:href="#DejaVuSans-72"/><use x="649.1" xlink:href="#DejaVuSans-61"/><use x="710.4" xlink:href="#DejaVuSans-74"/><use x="749.6" xlink:href="#DejaVuSans-75"/><use x="812.9" xlink:href="#DejaVuSans-72"/><use x="854" xlink:href="#DejaVuSans-65"/><use x="915.5" xlink:href="#DejaVuSans-73"/><use x="967.6" xlink:href="#DejaVuSans-20"/><use x="999.4" xlink:href="#DejaVuSans-69"/><use x="1027.2" xlink:href="#DejaVuSans-6e"/><use x="1090.6" xlink:href="#DejaVuSans-20"/><use x="1122.4" xlink:href="#DejaVuSans-4d"/><use x="1208.7" xlink:href="#DejaVuSans-69"/><use x="1236.4" xlink:href="#DejaVuSans-6e"/><use x="1299.8" xlink:href="#DejaVuSans-6e"/><use x="1363.2" xlink:href="#DejaVuSans-65"/><use x="1424.7" xlink:href="#DejaVuSans-61"/><use x="1486" xlink:href="#DejaVuSans-70"/><use x="1549.5" xlink:href="#DejaVuSans-6f"/><use x="1610.7" xlink:href="#DejaVuSans-6c"/><use x="1638.4" xlink:href="#DejaVuSans-69"/><use x="1666.2" xlink:href="#DejaVuSans-73"/><use x="1718.3" xlink:href="#DejaVuSans-20"/><use x="1750.1" xlink:href="#DejaVuSans-66"/><use x="1785.3" xlink:href="#DejaVuSans-6f"/><use x="1846.5" xlink:href="#DejaVuSans-72"/><use x="1887.6" xlink:href="#DejaVuSans-20"/><use x="1919.4" xlink:href="#DejaVuSans-32"/><use x="1983" xlink:href="#DejaVuSans-30"/><use x="2046.6" xlink:href="#DejaVuSans-31"/><use x="2110.3" xlink:href="#DejaVuSans-37"/></g></g><g id="legend_1"><path d="M327 35.4h20" fill="none" stroke="#c44e52" stroke-linecap="round" stroke-width="1.8" id="line2d_17"/><g id="text_18"><defs><path d="M54.9 54.7L35 28 56 0H45.3l-16 21.5L13.6 0H2.9L24 28.6l-19.4 26h10.6l14.5-19.4 14.5 19.5z" id="DejaVuSans-78"/></defs><g transform="matrix(.1 0 0 -.1 355 39)" fill="#262626"><use xlink:href="#DejaVuSans-4d"/><use x="86.3" xlink:href="#DejaVuSans-61"/><use x="147.6" xlink:href="#DejaVuSans-78"/></g></g><path d="M327 50h20" fill="none" stroke="#55a868" stroke-linecap="round" stroke-width="1.8" id="line2d_19"/><g transform="matrix(.1 0 0 -.1 355 53.6)" fill="#262626" id="text_19"><use xlink:href="#DejaVuSans-4d"/><use x="86.3" xlink:href="#DejaVuSans-69"/><use x="114.1" xlink:href="#DejaVuSans-6e"/></g></g></g></g><defs><clipPath id="pa6fa24fa81"><path d="M50 22.3h334.8v217.4H50z"/></clipPath></defs></svg>