<svg viewBox="0 0 404 278" xmlns="http://www.w3.org/2000/svg" xmlns:xlink="http://www.w3.org/1999/xlink"><defs><style>*{stroke-linecap:butt;stroke-linejoin:round}</style></defs><g id="figure_1"><path d="M0 278.3h404.7V0H0z" fill="#fff" id="patch_1"/><g id="axes_1"><path d="M62.7 239.8h334.8V22.3H62.7z" fill="#eaeaf2" id="patch_2"/><g id="matplotlib.axis_1"><g id="xtick_1"><path clip-path="url(#pa5679cde88)" d="M88 239.8V22.3" fill="none" stroke="#fff" stroke-linecap="round" id="line2d_1"/><g id="text_1"><defs><path d="M12.4 8.3h16.1v55.6L11 60.4v9l17.4 3.5h9.9V8.3h16V0H12.5z" id="DejaVuSans-31"/><path d="M31.8 66.4q-7.6 0-11.5-7.5-3.8-7.5-3.8-22.5t3.8-22.5q3.9-7.5 11.5-7.5 7.7 0 11.5 7.5T47 36.4q0 15-3.8 22.5t-11.5 7.5zm0 7.8q12.2 0 18.7-9.7T57 36.4Q57 18 50.5 8.3 44-1.4 31.8-1.4 19.5-1.4 13 8.3q-6.5 9.7-6.5 28 0 18.5 6.5 28.2 6.4 9.7 18.7 9.7z" id="DejaVuSans-30"/></defs><g transform="matrix(.1 0 0 -.1 78.5 254.4)" fill="#262626"><use xlink:href="#DejaVuSans-31"/><use x="63.6" xlink:href="#DejaVuSans-30"/><use x="127.2" xlink:href="#DejaVuSans-30"/></g></g></g><g id="xtick_2"><path clip-path="url(#pa5679cde88)" d="M158.4 239.8V22.3" fill="none" stroke="#fff" stroke-linecap="round" id="line2d_3"/><g id="text_2"><defs><path d="M10.8 73h38.7v-8.4H19.8V46.7q2.2.8 4.3 1.1 2.2.4 4.3.4 12.2 0 19.4-6.7 7-6.7 7-18.1 0-11.8-7.2-18.3-7.4-6.5-20.7-6.5-4.6 0-9.4.8-4.7.7-9.8 2.3v10q4.4-2.5 9.1-3.6 4.7-1.2 9.9-1.2 8.5 0 13.4 4.4 5 4.5 5 12 0 7.7-5 12.1Q35 40 26.7 40q-4 0-7.9-.9-4-.9-8-2.7z" id="DejaVuSans-35"/></defs><g transform="matrix(.1 0 0 -.1 148.8 254.4)" fill="#262626"><use xlink:href="#DejaVuSans-31"/><use x="63.6" xlink:href="#DejaVuSans-35"/><use x="127.2" xlink:href="#DejaVuSans-30"/></g></g></g><g id="xtick_3"><path clip-path="url(#pa5679cde88)" d="M228.7 239.8V22.3" fill="none" stroke="#fff" stroke-linecap="round" id="line2d_5"/><g id="text_3"><defs><path d="M19.2 8.3h34.4V0H7.3v8.3l15.3 15.6q9.7 9.8 12.2 12.6 4.7 5.3 6.6 9 2 3.7 2 7.3 0 5.8-4.2 9.5-4 3.6-10.6 3.6-4.6 0-9.8-1.6-5.1-1.6-11-4.9v10q6 2.4 11.1 3.6 5.2 1.2 9.5 1.2 11.4 0 18-5.7 6.8-5.6 6.8-15 0-4.6-1.7-8.6-1.6-4-6-9.5l-7.9-8.2L19.2 8.3z" id="DejaVuSans-32"/></defs><g transform="matrix(.1 0 0 -.1 219.1 254.4)" fill="#262626"><use xlink:href="#DejaVuSans-32"/><use x="63.6" xlink:href="#DejaVuSans-30"/><use x="127.2" xlink:href="#DejaVuSans-30"/></g></g></g><g id="xtick_4"><path clip-path="url(#pa5679cde88)" d="M299 239.8V22.3" fill="none" stroke="#fff" stroke-linecap="round" id="line2d_7"/><g transform="matrix(.1 0 0 -.1 289.4 254.4)" fill="#262626" id="text_4"><use xlink:href="#DejaVuSans-32"/><use x="63.6" xlink:href="#DejaVuSans-35"/><use x="127.2" xlink:href="#DejaVuSans-30"/></g></g><g id="xtick_5"><path clip-path="url(#pa5679cde88)" d="M369.3 239.8V22.3" fill="none" stroke="#fff" stroke-linecap="round" id="line2d_9"/><g id="text_5"><defs><path d="M40.6 39.3q7-1.5 11-6.3t4-11.8q0-10.8-7.4-16.7-7.4-6-21.1-6-4.6 0-9.4 1-4.9.9-10 2.7v9.5q4-2.4 8.9-3.6Q21.5 7 26.8 7q9.3 0 14.1 3.6 4.9 3.7 4.9 10.7 0 6.4-4.5 10Q36.8 35 28.7 35h-8.5V43h9q7.2 0 11 3 3.9 2.8 3.9 8.3 0 5.6-4 8.6t-11.4 3q-4 0-8.7-.9-4.6-.8-10.2-2.7v8.8q5.6 1.6 10.5 2.3 5 .8 9.3.8 11.2 0 17.8-5 6.5-5.2 6.5-13.9 0-6-3.5-10.2-3.4-4.2-9.8-5.8z" id="DejaVuSans-33"/></defs><g transform="matrix(.1 0 0 -.1 359.7 254.4)" fill="#262626"><use xlink:href="#DejaVuSans-33"/><use x="63.6" xlink:href="#DejaVuSans-30"/><use x="127.2" xlink:href="#DejaVuSans-30"/></g></g></g><g id="text_6"><defs><path d="M19.7 64.8V8.1h11.9q15 0 22 6.8 7 6.9 7 21.6 0 14.7-7 21.5-7 6.8-22 6.8zm-9.9 8.1h20.3q21.2 0 31-8.8 10-8.8 10-27.6T61 8.8Q51.1 0 30.1 0H9.8z" id="DejaVuSans-44"/><path d="M34.3 27.5q-11 0-15.1-2.5-4.2-2.5-4.2-8.5 0-4.8 3.1-7.6 3.2-2.8 8.6-2.8 7.5 0 12 5.3t4.5 14v2zm17.9 3.7V0h-9v8.3q-3-5-7.7-7.3Q31-1.4 24.3-1.4 16-1.4 11 3.3 6 8 6 15.9q0 9.2 6.2 14 6.2 4.6 18.4 4.6h12.6v1q0 6.1-4 9.5-4.1 3.4-11.5 3.4-4.7 0-9.2-1.1-4.4-1.2-8.5-3.4v8.3q5 2 9.6 2.8 4.6 1 9 1 11.9 0 17.7-6.2 5.9-6.1 5.9-18.6z" id="DejaVuSans-61"/><path d="M32.2-5q-3.8-9.8-7.5-12.8-3.6-3-9.6-3H7.9v7.5h5.3q3.7 0 5.7 1.8 2.1 1.7 4.6 8.3l1.6 4L3 54.8h9.5l17-42.8 17.2 42.8h9.5z" id="DejaVuSans-79"/><path d="M30.6 48.4q-7.2 0-11.4-5.6Q15 37 15 27.3t4.2-15.5q4.1-5.6 11.4-5.6 7.2 0 11.4 5.7 4.2 5.6 4.2 15.4 0 9.7-4.2 15.4-4.2 5.7-11.4 5.7zm0 7.6q11.7 0 18.4-7.6 6.7-7.6 6.7-21.1 0-13.4-6.7-21-6.7-7.7-18.4-7.7-11.8 0-18.4 7.6Q5.5 14 5.5 27.3q0 13.5 6.7 21Q18.8 56 30.6 56z" id="DejaVuSans-6f"/><path d="M37.1 76v-7.5h-8.6q-4.8 0-6.7-2-1.9-2-1.9-7v-4.8h14.8v-7H20V0h-9v47.7H2.3v7h8.6v3.8q0 9.1 4.2 13.3Q19.4 76 28.6 76z" id="DejaVuSans-66"/><path d="M18.3 70.2V54.7h18.5v-7H18.3V18q0-6.7 1.8-8.6 1.9-1.9 7.5-1.9h9.2V0h-9.2Q17.2 0 13.2 3.9T9.2 18v29.7H2.8v7h6.6v15.5z" id="DejaVuSans-74"/><path d="M54.9 33V0h-9v32.7q0 7.8-3 11.6-3 3.9-9.1 3.9-7.3 0-11.5-4.7Q18.1 39 18.1 31V0h-9v76h9V46.2q3.2 5 7.6 7.4Q30.1 56 35.8 56q9.4 0 14.2-5.8Q55 44.3 55 33z" id="DejaVuSans-68"/><path d="M56.2 29.6v-4.4H14.9q.6-9.3 5.6-14.1 5-4.9 14-4.9 5 0 10 1.3 4.8 1.2 9.6 3.8V2.8q-4.8-2-10-3.1-5-1.1-10.2-1.1-13.1 0-20.7 7.6-7.7 7.6-7.7 20.6 0 13.4 7.3 21.3Q20 56 32.3 56q11 0 17.5-7.1 6.4-7.1 6.4-19.3zm-9 2.6q0 7.4-4.1 11.8-4 4.4-10.7 4.4-7.5 0-12-4.3-4.5-4.2-5.2-12z" id="DejaVuSans-65"/><path d="M-.2 73h10.6l20.2-30 20 30h10.7L35.5 34.6V0h-10v34.7z" id="DejaVuSans-59"/><path d="M41.1 46.3q-1.5.9-3.3 1.3-1.8.4-4 .4-7.5 0-11.6-5-4-5-4-14.2V0H9v54.7h9v-8.5q2.9 5 7.4 7.4Q30 56 36.5 56l2-.1 2.6-.4z" id="DejaVuSans-72"/></defs><g transform="matrix(.11 0 0 -.11 187.3 268.8)" fill="#262626"><use xlink:href="#DejaVuSans-44"/><use x="77" xlink:href="#DejaVuSans-61"/><use x="138.3" xlink:href="#DejaVuSans-79"/><use x="197.5" xlink:href="#DejaVuSans-20"/><use x="229.2" xlink:href="#DejaVuSans-6f"/><use x="290.4" xlink:href="#DejaVuSans-66"/><use x="325.6" xlink:href="#DejaVuSans-20"/><use x="357.4" xlink:href="#DejaVuSans-74"/><use x="396.6" xlink:href="#DejaVuSans-68"/><use x="460" xlink:href="#DejaVuSans-65"/><use x="521.5" xlink:href="#DejaVuSans-20"/><use x="553.3" xlink:href="#DejaVuSans-59"/><use x="614.2" xlink:href="#DejaVuSans-65"/><use x="675.7" xlink:href="#DejaVuSans-61"/><use x="737" xlink:href="#DejaVuSans-72"/></g></g></g><g id="matplotlib.axis_2"><g id="ytick_1"><path clip-path="url(#pa5679cde88)" d="M62.7 238.3h334.8" fill="none" stroke="#fff" stroke-linecap="round" id="line2d_11"/><g id="text_7"><defs><path d="M10.6 35.5h62.6v-8.3H10.6z" id="DejaVuSans-2212"/></defs><g transform="matrix(.1 0 0 -.1 21.8 242)" fill="#262626"><use xlink:href="#DejaVuSans-2212"/><use x="83.8" xlink:href="#DejaVuSans-32"/><use x="147.4" xlink:href="#DejaVuSans-30"/><use x="211" xlink:href="#DejaVuSans-30"/><use x="274.7" xlink:href="#DejaVuSans-30"/></g></g></g><g id="ytick_2"><path clip-path="url(#pa5679cde88)" d="M62.7 213.4h334.8" fill="none" stroke="#fff" stroke-linecap="round" id="line2d_13"/><g transform="matrix(.1 0 0 -.1 21.8 217.2)" fill="#262626" id="text_8"><use xlink:href="#DejaVuSans-2212"/><use x="83.8" xlink:href="#DejaVuSans-31"/><use x="147.4" xlink:href="#DejaVuSans-35"/><use x="211" xlink:href="#DejaVuSans-30"/><use x="274.7" xlink:href="#DejaVuSans-30"/></g></g><g id="ytick_3"><path clip-path="url(#pa5679cde88)" d="M62.7 188.6h334.8" fill="none" stroke="#fff" stroke-linecap="round" id="line2d_15"/><g transform="matrix(.1 0 0 -.1 21.8 192.4)" fill="#262626" id="text_9"><use xlink:href="#DejaVuSans-2212"/><use x="83.8" xlink:href="#DejaVuSans-31"/><use x="147.4" xlink:href="#DejaVuSans-30"/><use x="211" xlink:href="#DejaVuSans-30"/><use x="274.7" xlink:href="#DejaVuSans-30"/></g></g><g id="ytick_4"><path clip-path="url(#pa5679cde88)" d="M62.7 163.7h334.8" fill="none" stroke="#fff" stroke-linecap="round" id="line2d_17"/><g transform="matrix(.1 0 0 -.1 28.2 167.5)" fill="#262626" id="text_10"><use xlink:href="#DejaVuSans-2212"/><use x="83.8" xlink:href="#DejaVuSans-35"/><use x="147.4" xlink:href="#DejaVuSans-30"/><use x="211" xlink:href="#DejaVuSans-30"/></g></g><g id="ytick_5"><path clip-path="url(#pa5679cde88)" d="M62.7 138.9h334.8" fill="none" stroke="#fff" stroke-linecap="round" id="line2d_19"/><use xlink:href="#DejaVuSans-30" transform="matrix(.1 0 0 -.1 49.3 142.7)" fill="#262626" id="text_11"/></g><g id="ytick_6"><path clip-path="url(#pa5679cde88)" d="M62.7 114h334.8" fill="none" stroke="#fff" stroke-linecap="round" id="line2d_21"/><g transform="matrix(.1 0 0 -.1 36.6 117.9)" fill="#262626" id="text_12"><use xlink:href="#DejaVuSans-35"/><use x="63.6" xlink:href="#DejaVuSans-30"/><use x="127.2" xlink:href="#DejaVuSans-30"/></g></g><g id="ytick_7"><path clip-path="url(#pa5679cde88)" d="M62.7 89.2h334.8" fill="none" stroke="#fff" stroke-linecap="round" id="line2d_23"/><g transform="matrix(.1 0 0 -.1 30.2 93)" fill="#262626" id="text_13"><use xlink:href="#DejaVuSans-31"/><use x="63.6" xlink:href="#DejaVuSans-30"/><use x="127.2" xlink:href="#DejaVuSans-30"/><use x="190.9" xlink:href="#DejaVuSans-30"/></g></g><g id="ytick_8"><path clip-path="url(#pa5679cde88)" d="M62.7 64.4h334.8" fill="none" stroke="#fff" stroke-linecap="round" id="line2d_25"/><g transform="matrix(.1 0 0 -.1 30.2 68.2)" fill="#262626" id="text_14"><use xlink:href="#DejaVuSans-31"/><use x="63.6" xlink:href="#DejaVuSans-35"/><use x="127.2" xlink:href="#DejaVuSans-30"/><use x="190.9" xlink:href="#DejaVuSans-30"/></g></g><g id="ytick_9"><path clip-path="url(#pa5679cde88)" d="M62.7 39.5h334.8" fill="none" stroke="#fff" stroke-linecap="round" id="line2d_27"/><g transform="matrix(.1 0 0 -.1 30.2 43.3)" fill="#262626" id="text_15"><use xlink:href="#DejaVuSans-32"/><use x="63.6" xlink:href="#DejaVuSans-30"/><use x="127.2" xlink:href="#DejaVuSans-30"/><use x="190.9" xlink:href="#DejaVuSans-30"/></g></g><g id="text_16"><defs><path d="M31 75.9q-6.5-11.2-9.7-22.2-3.2-11-3.2-22.3T21.3 9Q24.5-2 31-13.2h-7.8q-7.3 11.5-11 22.6-3.6 11-3.6 22 0 10.9 3.6 22 3.6 11 11 22.5z" id="DejaVuSans-28"/><path d="M44.4 34.2q3.2-1 6.2-4.6 3-3.5 6-9.7L66.6 0H56l-9.3 18.7q-3.6 7.3-7 9.7-3.4 2.4-9.3 2.4H19.7V0H9.8v73h22.3q12.5 0 18.6-5.3Q57 62.5 57 51.9q0-6.9-3.2-11.4-3.2-4.6-9.3-6.3zM19.7 64.8V38.9H32q7.1 0 10.7 3.3 3.7 3.3 3.7 9.7 0 6.4-3.7 9.6-3.6 3.3-10.7 3.3z" id="DejaVuSans-52"/><path d="M9.4 54.7h9V0h-9zm0 21.3h9V64.6h-9z" id="DejaVuSans-69"/><path d="M45.4 46.4V76h9V0h-9v8.2Q42.6 3.3 38.3 1q-4.4-2.4-10.4-2.4-10 0-16.2 7.9-6.2 8-6.2 20.8 0 12.9 6.2 20.8Q18 56 28 56q6 0 10.4-2.4 4.3-2.3 7.1-7.2zM14.8 27.3q0-10 4-15.6Q23 6.2 30.2 6.2q7.1 0 11.2 5.7 4.1 5.6 4.1 15.5t-4.1 15.5q-4.1 5.7-11.2 5.7t-11.2-5.7q-4.1-5.6-4.1-15.5z" id="DejaVuSans-64"/><path d="M8.5 21.6v33h9V22q0-7.7 3-11.6 3-4 9-4 7.4 0 11.6 4.7 4.2 4.7 4.2 12.7v31h9V0h-9v8.4Q42 3.4 37.7 1q-4.3-2.4-10-2.4-9.4 0-14.3 5.8-4.9 5.9-4.9 17.2zM31.1 56z" id="DejaVuSans-75"/><path d="M9.4 76h9V0h-9z" id="DejaVuSans-6c"/><path d="M44.3 53v-8.4q-3.8 2-8 2.9-4 1-8.4 1-6.7 0-10-2-3.4-2.1-3.4-6.2 0-3.1 2.4-5 2.4-1.7 9.6-3.3l3-.7q9.7-2 13.7-5.8 4-3.7 4-10.4 0-7.6-6-12-6-4.5-16.6-4.5-4.4 0-9.1.8-4.8.9-10 2.6v9.3q5-2.6 9.7-4 4.9-1.2 9.6-1.2 6.4 0 9.8 2.2 3.4 2.2 3.4 6.1 0 3.7-2.5 5.6-2.4 2-10.8 3.8l-3.1.7q-8.4 1.8-12 5.4-3.8 3.6-3.8 10 0 7.7 5.5 11.9Q16.7 56 26.8 56q5 0 9.4-.7 4.4-.8 8-2.2z" id="DejaVuSans-73"/><path d="M34.2 63.2L20.8 26.9h26.8zm-5.6 9.7h11.2L67.6 0H57.3l-6.6 18.7H17.8L11.2 0H.8z" id="DejaVuSans-41"/><path d="M48.8 52.6v-8.4Q45 46.3 41 47.3q-3.8 1-7.7 1-8.7 0-13.6-5.5Q15 37.3 15 27.3t4.8-15.6q4.9-5.5 13.6-5.5 4 0 7.7 1 3.9 1.1 7.7 3.2V2.1Q45 .3 41-.5q-4-1-8.6-1-12.3 0-19.6 7.8-7.3 7.8-7.3 21 0 13.4 7.4 21Q20.2 56 33 56q4.2 0 8.1-.9 4-.8 7.7-2.5z" id="DejaVuSans-63"/><path d="M4.9 31.4h26.3v-8H4.9z" id="DejaVuSans-2d"/><path d="M19.7 64.8V37.4H32q6.9 0 10.6 3.6 3.8 3.5 3.8 10.1t-3.8 10.1q-3.7 3.6-10.6 3.6zm-9.9 8.1h22.3q12.2 0 18.5-5.5Q57 61.8 57 51q0-10.8-6.3-16.3t-18.5-5.5H19.7V0H9.8z" id="DejaVuSans-50"/><path d="M8 75.9h7.8q7.3-11.5 11-22.6 3.6-11 3.6-22 0-10.8-3.6-22-3.7-11-11-22.5H8Q14.5-2 17.7 9.1q3.2 11 3.2 22.3t-3.2 22.3q-3.2 11-9.7 22.2z" id="DejaVuSans-29"/></defs><g transform="matrix(0 -.11 -.11 0 15.6 205.9)" fill="#262626"><use xlink:href="#DejaVuSans-52"/><use x="69.4" xlink:href="#DejaVuSans-65"/><use x="130.9" xlink:href="#DejaVuSans-73"/><use x="183" xlink:href="#DejaVuSans-69"/><use x="210.8" xlink:href="#DejaVuSans-64"/><use x="274.3" xlink:href="#DejaVuSans-75"/><use x="337.7" xlink:href="#DejaVuSans-61"/><use x="399" xlink:href="#DejaVuSans-6c"/><use x="426.7" xlink:href="#DejaVuSans-20"/><use x="458.5" xlink:href="#DejaVuSans-28"/><use x="497.5" xlink:href="#DejaVuSans-41"/><use x="565.9" xlink:href="#DejaVuSans-63"/><use x="620.9" xlink:href="#DejaVuSans-74"/><use x="660.1" xlink:href="#DejaVuSans-75"/><use x="723.5" xlink:href="#DejaVuSans-61"/><use x="784.8" xlink:href="#DejaVuSans-6c"/><use x="812.6" xlink:href="#DejaVuSans-2d"/><use x="848.7" xlink:href="#DejaVuSans-50"/><use x="908.9" xlink:href="#DejaVuSans-72"/><use x="950" xlink:href="#DejaVuSans-65"/><use x="1011.5" xlink:href="#DejaVuSans-64"/><use x="1075" xlink:href="#DejaVuSans-69"/><use x="1102.8" xlink:href="#DejaVuSans-63"/><use x="1157.8" xlink:href="#DejaVuSans-74"/><use x="1197" xlink:href="#DejaVuSans-65"/><use x="1258.5" xlink:href="#DejaVuSans-64"/><use x="1322" xlink:href="#DejaVuSans-29"/></g></g></g><g id="PathCollection_1"><defs><path d="M0 3.5a3.5 3.5 0 100-7 3.5 3.5 0 000 7z" id="m310ffcdea1"/></defs><g clip-path="url(#pa5679cde88)" fill="#4c72b0" fill-opacity=".8"><use x="78.2" xlink:href="#m310ffcdea1" y="182.3"/><use x="79.6" xlink:href="#m310ffcdea1" y="127.6"/><use x="81" xlink:href="#m310ffcdea1" y="162.5"/><use x="82.4" xlink:href="#m310ffcdea1" y="148.2"/><use x="83.8" xlink:href="#m310ffcdea1" y="144.6"/><use x="85.2" xlink:href="#m310ffcdea1" y="108.2"/><use x="86.7" xlink:href="#m310ffcdea1" y="171.5"/><use x="88.1" xlink:href="#m310ffcdea1" y="189.7"/><use x="89.5" xlink:href="#m310ffcdea1" y="123.2"/><use x="90.9" xlink:href="#m310ffcdea1" y="160.1"/><use x="92.3" xlink:href="#m310ffcdea1" y="130.4"/><use x="93.7" xlink:href="#m310ffcdea1" y="162.1"/><use x="95.1" xlink:href="#m310ffcdea1" y="160.5"/><use x="96.5" xlink:href="#m310ffcdea1" y="123.7"/><use x="97.9" xlink:href="#m310ffcdea1" y="136.6"/><use x="99.3" xlink:href="#m310ffcdea1" y="179.8"/><use x="100.7" xlink:href="#m310ffcdea1" y="168.2"/><use x="102.1" xlink:href="#m310ffcdea1" y="133.2"/><use x="103.5" xlink:href="#m310ffcdea1" y="110.1"/><use x="104.9" xlink:href="#m310ffcdea1" y="82.3"/><use x="106.3" xlink:href="#m310ffcdea1" y="115.8"/><use x="107.7" xlink:href="#m310ffcdea1" y="155.4"/><use x="109.2" xlink:href="#m310ffcdea1" y="204.5"/><use x="110.6" xlink:href="#m310ffcdea1" y="161.2"/><use x="112" xlink:href="#m310ffcdea1" y="148.5"/><use x="113.4" xlink:href="#m310ffcdea1" y="124.7"/><use x="114.8" xlink:href="#m310ffcdea1" y="147.8"/><use x="116.2" xlink:href="#m310ffcdea1" y="200.7"/><use x="117.6" xlink:href="#m310ffcdea1" y="145.2"/><use x="119" xlink:href="#m310ffcdea1" y="93.6"/><use x="120.4" xlink:href="#m310ffcdea1" y="134.7"/><use x="121.8" xlink:href="#m310ffcdea1" y="131.6"/><use x="123.2" xlink:href="#m310ffcdea1" y="127"/><use x="124.6" xlink:href="#m310ffcdea1" y="130.2"/><use x="126" xlink:href="#m310ffcdea1" y="115.3"/><use x="127.4" xlink:href="#m310ffcdea1" y="144.4"/><use x="128.8" xlink:href="#m310ffcdea1" y="136.3"/><use x="130.2" xlink:href="#m310ffcdea1" y="137.6"/><use x="131.6" xlink:href="#m310ffcdea1" y="113.5"/><use x="133.1" xlink:href="#m310ffcdea1" y="127.5"/><use x="134.5" xlink:href="#m310ffcdea1" y="107.1"/><use x="135.9" xlink:href="#m310ffcdea1" y="131.6"/><use x="137.3" xlink:href="#m310ffcdea1" y="183"/><use x="138.7" xlink:href="#m310ffcdea1" y="145.7"/><use x="140.1" xlink:href="#m310ffcdea1" y="197.5"/><use x="141.5" xlink:href="#m310ffcdea1" y="158.2"/><use x="142.9" xlink:href="#m310ffcdea1" y="145.4"/><use x="144.3" xlink:href="#m310ffcdea1" y="229.9"/><use x="145.7" xlink:href="#m310ffcdea1" y="152.4"/><use x="147.1" xlink:href="#m310ffcdea1" y="90.7"/><use x="148.5" xlink:href="#m310ffcdea1" y="155.2"/><use x="149.9" xlink:href="#m310ffcdea1" y="123.7"/><use x="151.3" xlink:href="#m310ffcdea1" y="126.9"/><use x="152.7" xlink:href="#m310ffcdea1" y="117.6"/><use x="154.1" xlink:href="#m310ffcdea1" y="110.8"/><use x="155.6" xlink:href="#m310ffcdea1" y="91.5"/><use x="157" xlink:href="#m310ffcdea1" y="160.4"/><use x="158.4" xlink:href="#m310ffcdea1" y="156.6"/><use x="159.8" xlink:href="#m310ffcdea1" y="112.4"/><use x="161.2" xlink:href="#m310ffcdea1" y="140.2"/><use x="162.6" xlink:href="#m310ffcdea1" y="150.5"/><use x="164" xlink:href="#m310ffcdea1" y="164.3"/><use x="165.4" xlink:href="#m310ffcdea1" y="158.2"/><use x="166.8" xlink:href="#m310ffcdea1" y="157.3"/><use x="168.2" xlink:href="#m310ffcdea1" y="157.6"/><use x="169.6" xlink:href="#m310ffcdea1" y="141.2"/><use x="171" xlink:href="#m310ffcdea1" y="145.8"/><use x="172.4" xlink:href="#m310ffcdea1" y="149.3"/><use x="173.8" xlink:href="#m310ffcdea1" y="158.5"/><use x="175.2" xlink:href="#m310ffcdea1" y="223.4"/><use x="176.6" xlink:href="#m310ffcdea1" y="136.1"/><use x="178.1" xlink:href="#m310ffcdea1" y="135.6"/><use x="179.5" xlink:href="#m310ffcdea1" y="141.5"/><use x="180.9" xlink:href="#m310ffcdea1" y="142.9"/><use x="182.3" xlink:href="#m310ffcdea1" y="151.5"/><use x="183.7" xlink:href="#m310ffcdea1" y="149.3"/><use x="185.1" xlink:href="#m310ffcdea1" y="120.1"/><use x="186.5" xlink:href="#m310ffcdea1" y="114"/><use x="187.9" xlink:href="#m310ffcdea1" y="113.2"/><use x="189.3" xlink:href="#m310ffcdea1" y="108.7"/><use x="190.7" xlink:href="#m310ffcdea1" y="185.6"/><use x="192.1" xlink:href="#m310ffcdea1" y="106.8"/><use x="193.5" xlink:href="#m310ffcdea1" y="136.4"/><use x="194.9" xlink:href="#m310ffcdea1" y="96.5"/><use x="196.3" xlink:href="#m310ffcdea1" y="81.7"/><use x="197.7" xlink:href="#m310ffcdea1" y="88.1"/><use x="199.1" xlink:href="#m310ffcdea1" y="133.9"/><use x="200.5" xlink:href="#m310ffcdea1" y="85"/><use x="202" xlink:href="#m310ffcdea1" y="104.5"/><use x="203.4" xlink:href="#m310ffcdea1" y="79.6"/><use x="204.8" xlink:href="#m310ffcdea1" y="32.2"/><use x="206.2" xlink:href="#m310ffcdea1" y="52.8"/><use x="207.6" xlink:href="#m310ffcdea1" y="62"/><use x="209" xlink:href="#m310ffcdea1" y="127.4"/><use x="210.4" xlink:href="#m310ffcdea1" y="163.5"/><use x="211.8" xlink:href="#m310ffcdea1" y="147.8"/><use x="213.2" xlink:href="#m310ffcdea1" y="94.3"/><use x="214.6" xlink:href="#m310ffcdea1" y="134.9"/><use x="216" xlink:href="#m310ffcdea1" y="132.9"/><use x="217.4" xlink:href="#m310ffcdea1" y="144.6"/><use x="218.8" xlink:href="#m310ffcdea1" y="120.4"/><use x="220.2" xlink:href="#m310ffcdea1" y="143.4"/><use x="221.6" xlink:href="#m310ffcdea1" y="100"/><use x="223" xlink:href="#m310ffcdea1" y="116.9"/><use x="224.5" xlink:href="#m310ffcdea1" y="136"/><use x="225.9" xlink:href="#m310ffcdea1" y="143.3"/><use x="227.3" xlink:href="#m310ffcdea1" y="164.6"/><use x="228.7" xlink:href="#m310ffcdea1" y="123"/><use x="230.1" xlink:href="#m310ffcdea1" y="115.7"/><use x="231.5" xlink:href="#m310ffcdea1" y="153.5"/><use x="232.9" xlink:href="#m310ffcdea1" y="92.4"/><use x="234.3" xlink:href="#m310ffcdea1" y="119.1"/><use x="235.7" xlink:href="#m310ffcdea1" y="113.4"/><use x="237.1" xlink:href="#m310ffcdea1" y="170.1"/><use x="238.5" xlink:href="#m310ffcdea1" y="126.6"/><use x="239.9" xlink:href="#m310ffcdea1" y="133.8"/><use x="241.3" xlink:href="#m310ffcdea1" y="127.1"/><use x="242.7" xlink:href="#m310ffcdea1" y="103.9"/><use x="244.1" xlink:href="#m310ffcdea1" y="118.3"/><use x="245.5" xlink:href="#m310ffcdea1" y="132.7"/><use x="246.9" xlink:href="#m310ffcdea1" y="146.3"/><use x="248.4" xlink:href="#m310ffcdea1" y="128.6"/><use x="249.8" xlink:href="#m310ffcdea1" y="188.5"/><use x="251.2" xlink:href="#m310ffcdea1" y="70"/><use x="252.6" xlink:href="#m310ffcdea1" y="119.5"/><use x="254" xlink:href="#m310ffcdea1" y="122.4"/><use x="255.4" xlink:href="#m310ffcdea1" y="69.9"/><use x="256.8" xlink:href="#m310ffcdea1" y="126.6"/><use x="258.2" xlink:href="#m310ffcdea1" y="206.4"/><use x="259.6" xlink:href="#m310ffcdea1" y="117"/><use x="261" xlink:href="#m310ffcdea1" y="100.5"/><use x="262.4" xlink:href="#m310ffcdea1" y="95.3"/><use x="263.8" xlink:href="#m310ffcdea1" y="190.4"/><use x="265.2" xlink:href="#m310ffcdea1" y="105.6"/><use x="266.6" xlink:href="#m310ffcdea1" y="122.3"/><use x="268" xlink:href="#m310ffcdea1" y="160.2"/><use x="269.4" xlink:href="#m310ffcdea1" y="138"/><use x="270.9" xlink:href="#m310ffcdea1" y="158"/><use x="272.3" xlink:href="#m310ffcdea1" y="109.4"/><use x="273.7" xlink:href="#m310ffcdea1" y="148.3"/><use x="275.1" xlink:href="#m310ffcdea1" y="192"/><use x="276.5" xlink:href="#m310ffcdea1" y="140"/><use x="277.9" xlink:href="#m310ffcdea1" y="122.4"/><use x="279.3" xlink:href="#m310ffcdea1" y="131.4"/><use x="280.7" xlink:href="#m310ffcdea1" y="164.3"/><use x="282.1" xlink:href="#m310ffcdea1" y="207"/><use x="283.5" xlink:href="#m310ffcdea1" y="132.1"/><use x="284.9" xlink:href="#m310ffcdea1" y="122.5"/><use x="286.3" xlink:href="#m310ffcdea1" y="139.6"/><use x="287.7" xlink:href="#m310ffcdea1" y="145.8"/><use x="289.1" xlink:href="#m310ffcdea1" y="126.3"/><use x="290.5" xlink:href="#m310ffcdea1" y="138.6"/><use x="291.9" xlink:href="#m310ffcdea1" y="123.9"/><use x="293.3" xlink:href="#m310ffcdea1" y="101.1"/><use x="294.8" xlink:href="#m310ffcdea1" y="163.5"/><use x="296.2" xlink:href="#m310ffcdea1" y="144.1"/><use x="297.6" xlink:href="#m310ffcdea1" y="108.8"/><use x="299" xlink:href="#m310ffcdea1" y="126"/><use x="300.4" xlink:href="#m310ffcdea1" y="117"/><use x="301.8" xlink:href="#m310ffcdea1" y="117.4"/><use x="303.2" xlink:href="#m310ffcdea1" y="144"/><use x="304.6" xlink:href="#m310ffcdea1" y="114.6"/><use x="306" xlink:href="#m310ffcdea1" y="141.7"/><use x="307.4" xlink:href="#m310ffcdea1" y="137.4"/><use x="308.8" xlink:href="#m310ffcdea1" y="147.7"/><use x="310.2" xlink:href="#m310ffcdea1" y="161.5"/><use x="311.6" xlink:href="#m310ffcdea1" y="169.6"/><use x="313" xlink:href="#m310ffcdea1" y="139.2"/><use x="314.4" xlink:href="#m310ffcdea1" y="172.5"/><use x="315.8" xlink:href="#m310ffcdea1" y="87.8"/><use x="317.3" xlink:href="#m310ffcdea1" y="121.7"/><use x="318.7" xlink:href="#m310ffcdea1" y="131.8"/><use x="320.1" xlink:href="#m310ffcdea1" y="172.7"/><use x="321.5" xlink:href="#m310ffcdea1" y="188.1"/><use x="322.9" xlink:href="#m310ffcdea1" y="184.9"/><use x="324.3" xlink:href="#m310ffcdea1" y="178.7"/><use x="325.7" xlink:href="#m310ffcdea1" y="125.5"/><use x="327.1" xlink:href="#m310ffcdea1" y="116.3"/><use x="328.5" xlink:href="#m310ffcdea1" y="133.1"/><use x="329.9" xlink:href="#m310ffcdea1" y="124.3"/><use x="331.3" xlink:href="#m310ffcdea1" y="118.9"/><use x="332.7" xlink:href="#m310ffcdea1" y="180.6"/><use x="334.1" xlink:href="#m310ffcdea1" y="140.7"/><use x="335.5" xlink:href="#m310ffcdea1" y="143.7"/><use x="336.9" xlink:href="#m310ffcdea1" y="121.8"/><use x="338.3" xlink:href="#m310ffcdea1" y="134.4"/><use x="339.7" xlink:href="#m310ffcdea1" y="177.9"/><use x="341.2" xlink:href="#m310ffcdea1" y="145.9"/><use x="342.6" xlink:href="#m310ffcdea1" y="119.4"/><use x="344" xlink:href="#m310ffcdea1" y="162.2"/><use x="345.4" xlink:href="#m310ffcdea1" y="150.3"/><use x="346.8" xlink:href="#m310ffcdea1" y="120.2"/><use x="348.2" xlink:href="#m310ffcdea1" y="133.7"/><use x="349.6" xlink:href="#m310ffcdea1" y="150.7"/><use x="351" xlink:href="#m310ffcdea1" y="203.2"/><use x="352.4" xlink:href="#m310ffcdea1" y="137.6"/><use x="353.8" xlink:href="#m310ffcdea1" y="120.7"/><use x="355.2" xlink:href="#m310ffcdea1" y="151.1"/><use x="356.6" xlink:href="#m310ffcdea1" y="154.4"/><use x="358" xlink:href="#m310ffcdea1" y="154.8"/><use x="359.4" xlink:href="#m310ffcdea1" y="151.9"/><use x="360.8" xlink:href="#m310ffcdea1" y="212"/><use x="362.2" xlink:href="#m310ffcdea1" y="149.7"/><use x="363.7" xlink:href="#m310ffcdea1" y="161"/><use x="365.1" xlink:href="#m310ffcdea1" y="178.5"/><use x="366.5" xlink:href="#m310ffcdea1" y="136.3"/><use x="367.9" xlink:href="#m310ffcdea1" y="165.1"/><use x="369.3" xlink:href="#m310ffcdea1" y="198.4"/><use x="370.7" xlink:href="#m310ffcdea1" y="156.3"/><use x="372.1" xlink:href="#m310ffcdea1" y="151.3"/><use x="373.5" xlink:href="#m310ffcdea1" y="150.2"/><use x="374.9" xlink:href="#m310ffcdea1" y="150"/><use x="376.3" xlink:href="#m310ffcdea1" y="144.9"/><use x="377.7" xlink:href="#m310ffcdea1" y="131.9"/><use x="379.1" xlink:href="#m310ffcdea1" y="169.9"/><use x="380.5" xlink:href="#m310ffcdea1" y="166.7"/><use x="381.9" xlink:href="#m310ffcdea1" y="163.6"/></g></g><path clip-path="url(#pa5679cde88)" d="M78.2 144.3v21.4l3-1.5 3.2-1.5 3-1.4 3-1.3 3.2-1.6 3-1.2 3-1.3 3.2-1.5 3-1.2 3.1-1.2 3-1.1 3.1-1 3.1-1.1 3-1 3.1-1 3.1-1 3-.8 3.1-.8 3.1-.8 3-1 3.1-.6 3.1-.7 3-.7 3.1-.7 3.1-.5 3-.3 3.1-.6 3.1-.3 3-.5 3.2-.4 3-.4 3-.4 3.2-.2 3-.1 3-.2 3.2-.2 3-.2h3.1l3-.2 3.1-.1 3.1-.2h24.5l3.1.1h3l3.1.2 3.1.1 3 .2 3.1.1 3.1.3 3 .3 3.2.2 3 .2 3 .2 3.2.2 3 .4 3 .2 3.2.4 3 .3 3 .4 3.2.5 3 .3 3.1.7 3 .6 3.1.6 3.1.6 3 .6 3.1.7 3.1.7 3 .6 3.1.9 3.1.7 3 .9 3.1 1 3.1.9 3 1 3.1 1 3.1 1.2 3 1.1 3.2 1.2 3 1.2 3 1.3 3.2 1.2 3 1.4 3 1.3 3.2 1.4 3 1.5 3 1.5 3.2 1.5 3 1.6 3.1 1.6 3 1.8 3.1 1.5v-18l-3-.8-3.1-1-3-.8-3.1-1-3.1-.9-3-.8-3.1-.8-3.1-1-3-.8-3.1-.8-3.1-1-3-.9-3.1-.8-3.1-.9-3-.9-3.2-.8-3-.8-3-1-3.2-.8-3-1-3-.7-3.2-.8-3-.9-3.1-.8-3-.8-3.1-.9-3.1-.7-3-.8-3.1-.8-3.1-.7-3-.8-3.1-.6-3.1-.5-3-.6-3.1-.6-3.1-.5-3-.4-3.1-.5-3.1-.5-3-.4-3.1-.3-3.1-.3-3-.3-3.2-.3-3-.1-3-.2-3.2-.1-3-.2-3-.1h-3.2l-3-.2H213.2l-3 .1H207l-3.1.2-3 .1-3.1.2-3.1.2-3 .3-3.1.3-3.1.3-3 .4-3.1.4-3.1.5-3 .4-3.1.4-3.1.5-3 .6-3.2.6-3 .4-3 .4-3.2.6-3 .5-3 .5-3.2.6-3 .5-3 .7-3.2.5-3 .6-3.1.7-3 .9-3.1.4-3.1.6-3 .8-3.1.6-3.1.7-3 .6-3.1.6-3.1.6-3 .5-3.1.5-3.1.6-3 .9-3.1.7-3.1.8-3 .7z" fill="#c44e52" fill-opacity=".1" id="PolyCollection_1"/><path clip-path="url(#pa5679cde88)" d="M78.2 155.1l3-1.1 3.2-1.1 3-1.2 3-1 3.2-1 3-1.1 3-1 3.2-1 3-1 3.1-.9 3-.9 3.1-.8 3.1-.9 3-.8 3.1-.8 3.1-.8 3-.7 3.1-.8 3.1-.7 3-.6 3.1-.7 3.1-.6 3-.6 3.1-.6 3.1-.5 3-.5 3.1-.5 3.1-.5 3-.4 3.2-.5 3-.4 3-.3 3.2-.4 3-.3 3-.3 3.2-.2 3-.3 3.1-.2 3-.2 3.1-.2h3.1l3-.2h3.1l3.1-.2h12.2l3.1.1h3.1l3 .2 3.1.1 3.1.2 3 .2 3.1.2 3.1.3 3 .2 3.2.3 3 .3 3 .4 3.2.3 3 .4 3 .5 3.2.4 3 .5 3 .5 3.2.5 3 .5 3.1.6 3 .6 3.1.6 3.1.7 3 .6 3.1.7 3.1.8 3 .7 3.1.8 3.1.8 3 .8 3.1.8 3.1 1 3 .8 3.1 1 3.1.9 3 1 3.2 1 3 1 3 1 3.2 1.1 3 1.1 3 1.2 3.2 1.1 3 1.2 3 1.2 3.2 1.2 3 1.3 3.1 1.3 3 1.3 3.1 1.3" fill="none" stroke="#c44e52" stroke-linecap="round" stroke-width="2.6" id="line2d_29"/><path clip-path="url(#pa5679cde88)" d="M-1 138.9h406.7" fill="none" stroke="#000" stroke-dasharray="1.75,2.8875" stroke-width="1.8" id="line2d_30"/><path d="M62.7 239.8V22.3" fill="none" id="patch_3"/><path d="M397.5 239.8V22.3" fill="none" id="patch_4"/><path d="M62.7 239.8h334.8" fill="none" id="patch_5"/><path d="M62.7 22.3h334.8" fill="none" id="patch_6"/><g transform="matrix(.12 0 0 -.12 201.3 16.3)" fill="#262626" id="text_17"><use xlink:href="#DejaVuSans-52"/><use x="69.4" xlink:href="#DejaVuSans-65"/><use x="130.9" xlink:href="#DejaVuSans-73"/><use x="183" xlink:href="#DejaVuSans-69"/><use x="210.8" xlink:href="#DejaVuSans-64"/><use x="274.3" xlink:href="#DejaVuSans-75"/><use x="337.7" xlink:href="#DejaVuSans-61"/><use x="399" xlink:href="#DejaVuSans-6c"/><use x="426.7" xlink:href="#DejaVuSans-73"/></g></g></g><defs><clipPath id="pa5679cde88"><path d="M62.7 22.3h334.8v217.4H62.7z"/></clipPath></defs></svg>