<?xml version="1.0" encoding="utf-8" standalone="no"?>
<!DOCTYPE svg PUBLIC "-//W3C//DTD SVG 1.1//EN"
  "http://www.w3.org/Graphics/SVG/1.1/DTD/svg11.dtd">
<!-- Created with matplotlib (http://matplotlib.org/) -->
<svg height="278pt" version="1.1" viewBox="0 0 386 278" width="386pt" xmlns="http://www.w3.org/2000/svg" xmlns:xlink="http://www.w3.org/1999/xlink">
 <defs>
  <style type="text/css">
*{stroke-linecap:butt;stroke-linejoin:round;}
  </style>
 </defs>
 <g id="figure_1">
  <g id="patch_1">
   <path d="M 0 278.282188 
L 386.749062 278.282188 
L 386.749062 0 
L 0 0 
z
" style="fill:#ffffff;"/>
  </g>
  <g id="axes_1">
   <g id="patch_2">
    <path d="M 44.749063 239.758125 
L 379.549062 239.758125 
L 379.549062 22.318125 
L 44.749063 22.318125 
z
" style="fill:#eaeaf2;"/>
   </g>
   <g id="matplotlib.axis_1">
    <g id="xtick_1">
     <g id="line2d_1"/>
     <g id="text_1">
      <!-- 0 -->
      <defs>
       <path d="M 31.78125 66.40625 
Q 24.171875 66.40625 20.328125 58.90625 
Q 16.5 51.421875 16.5 36.375 
Q 16.5 21.390625 20.328125 13.890625 
Q 24.171875 6.390625 31.78125 6.390625 
Q 39.453125 6.390625 43.28125 13.890625 
Q 47.125 21.390625 47.125 36.375 
Q 47.125 51.421875 43.28125 58.90625 
Q 39.453125 66.40625 31.78125 66.40625 
z
M 31.78125 74.21875 
Q 44.046875 74.21875 50.515625 64.515625 
Q 56.984375 54.828125 56.984375 36.375 
Q 56.984375 17.96875 50.515625 8.265625 
Q 44.046875 -1.421875 31.78125 -1.421875 
Q 19.53125 -1.421875 13.0625 8.265625 
Q 6.59375 17.96875 6.59375 36.375 
Q 6.59375 54.828125 13.0625 64.515625 
Q 19.53125 74.21875 31.78125 74.21875 
z
" id="DejaVuSans-30"/>
      </defs>
      <g style="fill:#262626;" transform="translate(55.94983 254.356563)scale(0.1 -0.1)">
       <use xlink:href="#DejaVuSans-30"/>
      </g>
     </g>
    </g>
    <g id="xtick_2">
     <g id="line2d_2"/>
     <g id="text_2">
      <!-- 50 -->
      <defs>
       <path d="M 10.796875 72.90625 
L 49.515625 72.90625 
L 49.515625 64.59375 
L 19.828125 64.59375 
L 19.828125 46.734375 
Q 21.96875 47.46875 24.109375 47.828125 
Q 26.265625 48.1875 28.421875 48.1875 
Q 40.625 48.1875 47.75 41.5 
Q 54.890625 34.8125 54.890625 23.390625 
Q 54.890625 11.625 47.5625 5.09375 
Q 40.234375 -1.421875 26.90625 -1.421875 
Q 22.3125 -1.421875 17.546875 -0.640625 
Q 12.796875 0.140625 7.71875 1.703125 
L 7.71875 11.625 
Q 12.109375 9.234375 16.796875 8.0625 
Q 21.484375 6.890625 26.703125 6.890625 
Q 35.15625 6.890625 40.078125 11.328125 
Q 45.015625 15.765625 45.015625 23.390625 
Q 45.015625 31 40.078125 35.4375 
Q 35.15625 39.890625 26.703125 39.890625 
Q 22.75 39.890625 18.8125 39.015625 
Q 14.890625 38.140625 10.796875 36.28125 
z
" id="DejaVuSans-35"/>
      </defs>
      <g style="fill:#262626;" transform="translate(94.576772 254.356563)scale(0.1 -0.1)">
       <use xlink:href="#DejaVuSans-35"/>
       <use x="63.623047" xlink:href="#DejaVuSans-30"/>
      </g>
     </g>
    </g>
    <g id="xtick_3">
     <g id="line2d_3"/>
     <g id="text_3">
      <!-- 100 -->
      <defs>
       <path d="M 12.40625 8.296875 
L 28.515625 8.296875 
L 28.515625 63.921875 
L 10.984375 60.40625 
L 10.984375 69.390625 
L 28.421875 72.90625 
L 38.28125 72.90625 
L 38.28125 8.296875 
L 54.390625 8.296875 
L 54.390625 0 
L 12.40625 0 
z
" id="DejaVuSans-31"/>
      </defs>
      <g style="fill:#262626;" transform="translate(133.203714 254.356563)scale(0.1 -0.1)">
       <use xlink:href="#DejaVuSans-31"/>
       <use x="63.623047" xlink:href="#DejaVuSans-30"/>
       <use x="127.246094" xlink:href="#DejaVuSans-30"/>
      </g>
     </g>
    </g>
    <g id="xtick_4">
     <g id="line2d_4"/>
     <g id="text_4">
      <!-- 150 -->
      <g style="fill:#262626;" transform="translate(175.011906 254.356563)scale(0.1 -0.1)">
       <use xlink:href="#DejaVuSans-31"/>
       <use x="63.623047" xlink:href="#DejaVuSans-35"/>
       <use x="127.246094" xlink:href="#DejaVuSans-30"/>
      </g>
     </g>
    </g>
    <g id="xtick_5">
     <g id="line2d_5"/>
     <g id="text_5">
      <!-- 200 -->
      <defs>
       <path d="M 19.1875 8.296875 
L 53.609375 8.296875 
L 53.609375 0 
L 7.328125 0 
L 7.328125 8.296875 
Q 12.9375 14.109375 22.625 23.890625 
Q 32.328125 33.6875 34.8125 36.53125 
Q 39.546875 41.84375 41.421875 45.53125 
Q 43.3125 49.21875 43.3125 52.78125 
Q 43.3125 58.59375 39.234375 62.25 
Q 35.15625 65.921875 28.609375 65.921875 
Q 23.96875 65.921875 18.8125 64.3125 
Q 13.671875 62.703125 7.8125 59.421875 
L 7.8125 69.390625 
Q 13.765625 71.78125 18.9375 73 
Q 24.125 74.21875 28.421875 74.21875 
Q 39.75 74.21875 46.484375 68.546875 
Q 53.21875 62.890625 53.21875 53.421875 
Q 53.21875 48.921875 51.53125 44.890625 
Q 49.859375 40.875 45.40625 35.40625 
Q 44.1875 33.984375 37.640625 27.21875 
Q 31.109375 20.453125 19.1875 8.296875 
z
" id="DejaVuSans-32"/>
      </defs>
      <g style="fill:#262626;" transform="translate(216.820098 254.356563)scale(0.1 -0.1)">
       <use xlink:href="#DejaVuSans-32"/>
       <use x="63.623047" xlink:href="#DejaVuSans-30"/>
       <use x="127.246094" xlink:href="#DejaVuSans-30"/>
      </g>
     </g>
    </g>
    <g id="xtick_6">
     <g id="line2d_6"/>
     <g id="text_6">
      <!-- 250 -->
      <g style="fill:#262626;" transform="translate(258.62829 254.356563)scale(0.1 -0.1)">
       <use xlink:href="#DejaVuSans-32"/>
       <use x="63.623047" xlink:href="#DejaVuSans-35"/>
       <use x="127.246094" xlink:href="#DejaVuSans-30"/>
      </g>
     </g>
    </g>
    <g id="xtick_7">
     <g id="line2d_7"/>
     <g id="text_7">
      <!-- 300 -->
      <defs>
       <path d="M 40.578125 39.3125 
Q 47.65625 37.796875 51.625 33 
Q 55.609375 28.21875 55.609375 21.1875 
Q 55.609375 10.40625 48.1875 4.484375 
Q 40.765625 -1.421875 27.09375 -1.421875 
Q 22.515625 -1.421875 17.65625 -0.515625 
Q 12.796875 0.390625 7.625 2.203125 
L 7.625 11.71875 
Q 11.71875 9.328125 16.59375 8.109375 
Q 21.484375 6.890625 26.8125 6.890625 
Q 36.078125 6.890625 40.9375 10.546875 
Q 45.796875 14.203125 45.796875 21.1875 
Q 45.796875 27.640625 41.28125 31.265625 
Q 36.765625 34.90625 28.71875 34.90625 
L 20.21875 34.90625 
L 20.21875 43.015625 
L 29.109375 43.015625 
Q 36.375 43.015625 40.234375 45.921875 
Q 44.09375 48.828125 44.09375 54.296875 
Q 44.09375 59.90625 40.109375 62.90625 
Q 36.140625 65.921875 28.71875 65.921875 
Q 24.65625 65.921875 20.015625 65.03125 
Q 15.375 64.15625 9.8125 62.3125 
L 9.8125 71.09375 
Q 15.4375 72.65625 20.34375 73.4375 
Q 25.25 74.21875 29.59375 74.21875 
Q 40.828125 74.21875 47.359375 69.109375 
Q 53.90625 64.015625 53.90625 55.328125 
Q 53.90625 49.265625 50.4375 45.09375 
Q 46.96875 40.921875 40.578125 39.3125 
z
" id="DejaVuSans-33"/>
      </defs>
      <g style="fill:#262626;" transform="translate(300.436481 254.356563)scale(0.1 -0.1)">
       <use xlink:href="#DejaVuSans-33"/>
       <use x="63.623047" xlink:href="#DejaVuSans-30"/>
       <use x="127.246094" xlink:href="#DejaVuSans-30"/>
      </g>
     </g>
    </g>
    <g id="xtick_8">
     <g id="line2d_8"/>
     <g id="text_8">
      <!-- 350 -->
      <g style="fill:#262626;" transform="translate(342.244673 254.356563)scale(0.1 -0.1)">
       <use xlink:href="#DejaVuSans-33"/>
       <use x="63.623047" xlink:href="#DejaVuSans-35"/>
       <use x="127.246094" xlink:href="#DejaVuSans-30"/>
      </g>
     </g>
    </g>
    <g id="text_9">
     <!-- Day of year -->
     <defs>
      <path d="M 19.671875 64.796875 
L 19.671875 8.109375 
L 31.59375 8.109375 
Q 46.6875 8.109375 53.6875 14.9375 
Q 60.6875 21.78125 60.6875 36.53125 
Q 60.6875 51.171875 53.6875 57.984375 
Q 46.6875 64.796875 31.59375 64.796875 
z
M 9.8125 72.90625 
L 30.078125 72.90625 
Q 51.265625 72.90625 61.171875 64.09375 
Q 71.09375 55.28125 71.09375 36.53125 
Q 71.09375 17.671875 61.125 8.828125 
Q 51.171875 0 30.078125 0 
L 9.8125 0 
z
" id="DejaVuSans-44"/>
      <path d="M 34.28125 27.484375 
Q 23.390625 27.484375 19.1875 25 
Q 14.984375 22.515625 14.984375 16.5 
Q 14.984375 11.71875 18.140625 8.90625 
Q 21.296875 6.109375 26.703125 6.109375 
Q 34.1875 6.109375 38.703125 11.40625 
Q 43.21875 16.703125 43.21875 25.484375 
L 43.21875 27.484375 
z
M 52.203125 31.203125 
L 52.203125 0 
L 43.21875 0 
L 43.21875 8.296875 
Q 40.140625 3.328125 35.546875 0.953125 
Q 30.953125 -1.421875 24.3125 -1.421875 
Q 15.921875 -1.421875 10.953125 3.296875 
Q 6 8.015625 6 15.921875 
Q 6 25.140625 12.171875 29.828125 
Q 18.359375 34.515625 30.609375 34.515625 
L 43.21875 34.515625 
L 43.21875 35.40625 
Q 43.21875 41.609375 39.140625 45 
Q 35.0625 48.390625 27.6875 48.390625 
Q 23 48.390625 18.546875 47.265625 
Q 14.109375 46.140625 10.015625 43.890625 
L 10.015625 52.203125 
Q 14.9375 54.109375 19.578125 55.046875 
Q 24.21875 56 28.609375 56 
Q 40.484375 56 46.34375 49.84375 
Q 52.203125 43.703125 52.203125 31.203125 
z
" id="DejaVuSans-61"/>
      <path d="M 32.171875 -5.078125 
Q 28.375 -14.84375 24.75 -17.8125 
Q 21.140625 -20.796875 15.09375 -20.796875 
L 7.90625 -20.796875 
L 7.90625 -13.28125 
L 13.1875 -13.28125 
Q 16.890625 -13.28125 18.9375 -11.515625 
Q 21 -9.765625 23.484375 -3.21875 
L 25.09375 0.875 
L 2.984375 54.6875 
L 12.5 54.6875 
L 29.59375 11.921875 
L 46.6875 54.6875 
L 56.203125 54.6875 
z
" id="DejaVuSans-79"/>
      <path id="DejaVuSans-20"/>
      <path d="M 30.609375 48.390625 
Q 23.390625 48.390625 19.1875 42.75 
Q 14.984375 37.109375 14.984375 27.296875 
Q 14.984375 17.484375 19.15625 11.84375 
Q 23.34375 6.203125 30.609375 6.203125 
Q 37.796875 6.203125 41.984375 11.859375 
Q 46.1875 17.53125 46.1875 27.296875 
Q 46.1875 37.015625 41.984375 42.703125 
Q 37.796875 48.390625 30.609375 48.390625 
z
M 30.609375 56 
Q 42.328125 56 49.015625 48.375 
Q 55.71875 40.765625 55.71875 27.296875 
Q 55.71875 13.875 49.015625 6.21875 
Q 42.328125 -1.421875 30.609375 -1.421875 
Q 18.84375 -1.421875 12.171875 6.21875 
Q 5.515625 13.875 5.515625 27.296875 
Q 5.515625 40.765625 12.171875 48.375 
Q 18.84375 56 30.609375 56 
z
" id="DejaVuSans-6f"/>
      <path d="M 37.109375 75.984375 
L 37.109375 68.5 
L 28.515625 68.5 
Q 23.6875 68.5 21.796875 66.546875 
Q 19.921875 64.59375 19.921875 59.515625 
L 19.921875 54.6875 
L 34.71875 54.6875 
L 34.71875 47.703125 
L 19.921875 47.703125 
L 19.921875 0 
L 10.890625 0 
L 10.890625 47.703125 
L 2.296875 47.703125 
L 2.296875 54.6875 
L 10.890625 54.6875 
L 10.890625 58.5 
Q 10.890625 67.625 15.140625 71.796875 
Q 19.390625 75.984375 28.609375 75.984375 
z
" id="DejaVuSans-66"/>
      <path d="M 56.203125 29.59375 
L 56.203125 25.203125 
L 14.890625 25.203125 
Q 15.484375 15.921875 20.484375 11.0625 
Q 25.484375 6.203125 34.421875 6.203125 
Q 39.59375 6.203125 44.453125 7.46875 
Q 49.3125 8.734375 54.109375 11.28125 
L 54.109375 2.78125 
Q 49.265625 0.734375 44.1875 -0.34375 
Q 39.109375 -1.421875 33.890625 -1.421875 
Q 20.796875 -1.421875 13.15625 6.1875 
Q 5.515625 13.8125 5.515625 26.8125 
Q 5.515625 40.234375 12.765625 48.109375 
Q 20.015625 56 32.328125 56 
Q 43.359375 56 49.78125 48.890625 
Q 56.203125 41.796875 56.203125 29.59375 
z
M 47.21875 32.234375 
Q 47.125 39.59375 43.09375 43.984375 
Q 39.0625 48.390625 32.421875 48.390625 
Q 24.90625 48.390625 20.390625 44.140625 
Q 15.875 39.890625 15.1875 32.171875 
z
" id="DejaVuSans-65"/>
      <path d="M 41.109375 46.296875 
Q 39.59375 47.171875 37.8125 47.578125 
Q 36.03125 48 33.890625 48 
Q 26.265625 48 22.1875 43.046875 
Q 18.109375 38.09375 18.109375 28.8125 
L 18.109375 0 
L 9.078125 0 
L 9.078125 54.6875 
L 18.109375 54.6875 
L 18.109375 46.1875 
Q 20.953125 51.171875 25.484375 53.578125 
Q 30.03125 56 36.53125 56 
Q 37.453125 56 38.578125 55.875 
Q 39.703125 55.765625 41.0625 55.515625 
z
" id="DejaVuSans-72"/>
     </defs>
     <g style="fill:#262626;" transform="translate(180.219844 268.794531)scale(0.11 -0.11)">
      <use xlink:href="#DejaVuSans-44"/>
      <use x="77.001953" xlink:href="#DejaVuSans-61"/>
      <use x="138.28125" xlink:href="#DejaVuSans-79"/>
      <use x="197.460938" xlink:href="#DejaVuSans-20"/>
      <use x="229.248047" xlink:href="#DejaVuSans-6f"/>
      <use x="290.429688" xlink:href="#DejaVuSans-66"/>
      <use x="325.634766" xlink:href="#DejaVuSans-20"/>
      <use x="357.421875" xlink:href="#DejaVuSans-79"/>
      <use x="416.601562" xlink:href="#DejaVuSans-65"/>
      <use x="478.125" xlink:href="#DejaVuSans-61"/>
      <use x="539.404297" xlink:href="#DejaVuSans-72"/>
     </g>
    </g>
   </g>
   <g id="matplotlib.axis_2">
    <g id="ytick_1">
     <g id="line2d_9"/>
     <g id="text_10">
      <!-- 0.0 -->
      <defs>
       <path d="M 10.6875 12.40625 
L 21 12.40625 
L 21 0 
L 10.6875 0 
z
" id="DejaVuSans-2e"/>
      </defs>
      <g style="fill:#262626;" transform="translate(21.845938 233.673707)scale(0.1 -0.1)">
       <use xlink:href="#DejaVuSans-30"/>
       <use x="63.623047" xlink:href="#DejaVuSans-2e"/>
       <use x="95.410156" xlink:href="#DejaVuSans-30"/>
      </g>
     </g>
    </g>
    <g id="ytick_2">
     <g id="line2d_10"/>
     <g id="text_11">
      <!-- 0.5 -->
      <g style="fill:#262626;" transform="translate(21.845938 185.460847)scale(0.1 -0.1)">
       <use xlink:href="#DejaVuSans-30"/>
       <use x="63.623047" xlink:href="#DejaVuSans-2e"/>
       <use x="95.410156" xlink:href="#DejaVuSans-35"/>
      </g>
     </g>
    </g>
    <g id="ytick_3">
     <g id="line2d_11"/>
     <g id="text_12">
      <!-- 1.0 -->
      <g style="fill:#262626;" transform="translate(21.845938 137.247987)scale(0.1 -0.1)">
       <use xlink:href="#DejaVuSans-31"/>
       <use x="63.623047" xlink:href="#DejaVuSans-2e"/>
       <use x="95.410156" xlink:href="#DejaVuSans-30"/>
      </g>
     </g>
    </g>
    <g id="ytick_4">
     <g id="line2d_12"/>
     <g id="text_13">
      <!-- 1.5 -->
      <g style="fill:#262626;" transform="translate(21.845938 89.035126)scale(0.1 -0.1)">
       <use xlink:href="#DejaVuSans-31"/>
       <use x="63.623047" xlink:href="#DejaVuSans-2e"/>
       <use x="95.410156" xlink:href="#DejaVuSans-35"/>
      </g>
     </g>
    </g>
    <g id="ytick_5">
     <g id="line2d_13"/>
     <g id="text_14">
      <!-- 2.0 -->
      <g style="fill:#262626;" transform="translate(21.845938 40.822266)scale(0.1 -0.1)">
       <use xlink:href="#DejaVuSans-32"/>
       <use x="63.623047" xlink:href="#DejaVuSans-2e"/>
       <use x="95.410156" xlink:href="#DejaVuSans-30"/>
      </g>
     </g>
    </g>
    <g id="text_15">
     <!-- Precipitation (in) -->
     <defs>
      <path d="M 19.671875 64.796875 
L 19.671875 37.40625 
L 32.078125 37.40625 
Q 38.96875 37.40625 42.71875 40.96875 
Q 46.484375 44.53125 46.484375 51.125 
Q 46.484375 57.671875 42.71875 61.234375 
Q 38.96875 64.796875 32.078125 64.796875 
z
M 9.8125 72.90625 
L 32.078125 72.90625 
Q 44.34375 72.90625 50.609375 67.359375 
Q 56.890625 61.8125 56.890625 51.125 
Q 56.890625 40.328125 50.609375 34.8125 
Q 44.34375 29.296875 32.078125 29.296875 
L 19.671875 29.296875 
L 19.671875 0 
L 9.8125 0 
z
" id="DejaVuSans-50"/>
      <path d="M 48.78125 52.59375 
L 48.78125 44.1875 
Q 44.96875 46.296875 41.140625 47.34375 
Q 37.3125 48.390625 33.40625 48.390625 
Q 24.65625 48.390625 19.8125 42.84375 
Q 14.984375 37.3125 14.984375 27.296875 
Q 14.984375 17.28125 19.8125 11.734375 
Q 24.65625 6.203125 33.40625 6.203125 
Q 37.3125 6.203125 41.140625 7.25 
Q 44.96875 8.296875 48.78125 10.40625 
L 48.78125 2.09375 
Q 45.015625 0.34375 40.984375 -0.53125 
Q 36.96875 -1.421875 32.421875 -1.421875 
Q 20.0625 -1.421875 12.78125 6.34375 
Q 5.515625 14.109375 5.515625 27.296875 
Q 5.515625 40.671875 12.859375 48.328125 
Q 20.21875 56 33.015625 56 
Q 37.15625 56 41.109375 55.140625 
Q 45.0625 54.296875 48.78125 52.59375 
z
" id="DejaVuSans-63"/>
      <path d="M 9.421875 54.6875 
L 18.40625 54.6875 
L 18.40625 0 
L 9.421875 0 
z
M 9.421875 75.984375 
L 18.40625 75.984375 
L 18.40625 64.59375 
L 9.421875 64.59375 
z
" id="DejaVuSans-69"/>
      <path d="M 18.109375 8.203125 
L 18.109375 -20.796875 
L 9.078125 -20.796875 
L 9.078125 54.6875 
L 18.109375 54.6875 
L 18.109375 46.390625 
Q 20.953125 51.265625 25.265625 53.625 
Q 29.59375 56 35.59375 56 
Q 45.5625 56 51.78125 48.09375 
Q 58.015625 40.1875 58.015625 27.296875 
Q 58.015625 14.40625 51.78125 6.484375 
Q 45.5625 -1.421875 35.59375 -1.421875 
Q 29.59375 -1.421875 25.265625 0.953125 
Q 20.953125 3.328125 18.109375 8.203125 
z
M 48.6875 27.296875 
Q 48.6875 37.203125 44.609375 42.84375 
Q 40.53125 48.484375 33.40625 48.484375 
Q 26.265625 48.484375 22.1875 42.84375 
Q 18.109375 37.203125 18.109375 27.296875 
Q 18.109375 17.390625 22.1875 11.75 
Q 26.265625 6.109375 33.40625 6.109375 
Q 40.53125 6.109375 44.609375 11.75 
Q 48.6875 17.390625 48.6875 27.296875 
z
" id="DejaVuSans-70"/>
      <path d="M 18.3125 70.21875 
L 18.3125 54.6875 
L 36.8125 54.6875 
L 36.8125 47.703125 
L 18.3125 47.703125 
L 18.3125 18.015625 
Q 18.3125 11.328125 20.140625 9.421875 
Q 21.96875 7.515625 27.59375 7.515625 
L 36.8125 7.515625 
L 36.8125 0 
L 27.59375 0 
Q 17.1875 0 13.234375 3.875 
Q 9.28125 7.765625 9.28125 18.015625 
L 9.28125 47.703125 
L 2.6875 47.703125 
L 2.6875 54.6875 
L 9.28125 54.6875 
L 9.28125 70.21875 
z
" id="DejaVuSans-74"/>
      <path d="M 54.890625 33.015625 
L 54.890625 0 
L 45.90625 0 
L 45.90625 32.71875 
Q 45.90625 40.484375 42.875 44.328125 
Q 39.84375 48.1875 33.796875 48.1875 
Q 26.515625 48.1875 22.3125 43.546875 
Q 18.109375 38.921875 18.109375 30.90625 
L 18.109375 0 
L 9.078125 0 
L 9.078125 54.6875 
L 18.109375 54.6875 
L 18.109375 46.1875 
Q 21.34375 51.125 25.703125 53.5625 
Q 30.078125 56 35.796875 56 
Q 45.21875 56 50.046875 50.171875 
Q 54.890625 44.34375 54.890625 33.015625 
z
" id="DejaVuSans-6e"/>
      <path d="M 31 75.875 
Q 24.46875 64.65625 21.28125 53.65625 
Q 18.109375 42.671875 18.109375 31.390625 
Q 18.109375 20.125 21.3125 9.0625 
Q 24.515625 -2 31 -13.1875 
L 23.1875 -13.1875 
Q 15.875 -1.703125 12.234375 9.375 
Q 8.59375 20.453125 8.59375 31.390625 
Q 8.59375 42.28125 12.203125 53.3125 
Q 15.828125 64.359375 23.1875 75.875 
z
" id="DejaVuSans-28"/>
      <path d="M 8.015625 75.875 
L 15.828125 75.875 
Q 23.140625 64.359375 26.78125 53.3125 
Q 30.421875 42.28125 30.421875 31.390625 
Q 30.421875 20.453125 26.78125 9.375 
Q 23.140625 -1.703125 15.828125 -13.1875 
L 8.015625 -13.1875 
Q 14.5 -2 17.703125 9.0625 
Q 20.90625 20.125 20.90625 31.390625 
Q 20.90625 42.671875 17.703125 53.65625 
Q 14.5 64.65625 8.015625 75.875 
z
" id="DejaVuSans-29"/>
     </defs>
     <g style="fill:#262626;" transform="translate(15.558281 176.683828)rotate(-90)scale(0.11 -0.11)">
      <use xlink:href="#DejaVuSans-50"/>
      <use x="60.287109" xlink:href="#DejaVuSans-72"/>
      <use x="101.369141" xlink:href="#DejaVuSans-65"/>
      <use x="162.892578" xlink:href="#DejaVuSans-63"/>
      <use x="217.873047" xlink:href="#DejaVuSans-69"/>
      <use x="245.65625" xlink:href="#DejaVuSans-70"/>
      <use x="309.132812" xlink:href="#DejaVuSans-69"/>
      <use x="336.916016" xlink:href="#DejaVuSans-74"/>
      <use x="376.125" xlink:href="#DejaVuSans-61"/>
      <use x="437.404297" xlink:href="#DejaVuSans-74"/>
      <use x="476.613281" xlink:href="#DejaVuSans-69"/>
      <use x="504.396484" xlink:href="#DejaVuSans-6f"/>
      <use x="565.578125" xlink:href="#DejaVuSans-6e"/>
      <use x="628.957031" xlink:href="#DejaVuSans-20"/>
      <use x="660.744141" xlink:href="#DejaVuSans-28"/>
      <use x="699.757812" xlink:href="#DejaVuSans-69"/>
      <use x="727.541016" xlink:href="#DejaVuSans-6e"/>
      <use x="790.919922" xlink:href="#DejaVuSans-29"/>
     </g>
    </g>
   </g>
   <g id="line2d_14">
    <path clip-path="url(#p177bb97a5a)" d="M 59.967244 229.874489 
L 60.803408 229.874489 
L 61.639572 228.910231 
L 62.475736 229.874489 
L 63.3119 228.910231 
L 64.148063 229.874489 
L 66.656555 229.874489 
L 67.492719 214.446373 
L 68.328883 208.66083 
L 69.165047 226.01746 
L 70.00121 229.874489 
L 72.509702 229.874489 
L 73.345866 203.839544 
L 74.18203 229.874489 
L 76.690521 229.874489 
L 77.526685 227.945974 
L 78.362849 229.874489 
L 79.199013 229.874489 
L 80.035176 224.088945 
L 80.87134 228.910231 
L 81.707504 229.874489 
L 83.379832 229.874489 
L 84.215996 227.945974 
L 85.052159 219.267659 
L 85.888323 228.910231 
L 86.724487 229.874489 
L 90.905306 229.874489 
L 91.74147 228.910231 
L 92.577634 229.874489 
L 94.249962 229.874489 
L 95.086125 227.945974 
L 95.922289 229.874489 
L 101.775436 229.874489 
L 102.6116 166.233513 
L 103.447764 229.874489 
L 108.464747 229.874489 
L 109.300911 226.01746 
L 110.137074 228.910231 
L 110.973238 229.874489 
L 113.48173 229.874489 
L 114.317894 222.160431 
L 115.154058 229.874489 
L 118.498713 229.874489 
L 119.334877 219.267659 
L 120.171041 229.874489 
L 127.696515 229.874489 
L 128.532679 212.517859 
L 129.368843 229.874489 
L 130.205007 218.303402 
L 131.04117 229.874489 
L 132.713498 229.874489 
L 133.549662 226.01746 
L 134.385826 229.874489 
L 136.894317 229.874489 
L 137.730481 225.053203 
L 138.566645 229.874489 
L 141.9113 229.874489 
L 142.747464 209.625087 
L 143.583628 193.232715 
L 144.419792 229.874489 
L 145.255956 209.625087 
L 146.092119 229.874489 
L 146.928283 181.661628 
L 147.764447 193.232715 
L 148.600611 229.874489 
L 149.436775 229.874489 
L 150.272939 206.732316 
L 151.109102 147.912626 
L 151.945266 229.874489 
L 155.289922 229.874489 
L 156.126085 146.948369 
L 156.962249 229.874489 
L 159.470741 229.874489 
L 160.306905 135.377282 
L 161.143068 200.946772 
L 161.979232 229.874489 
L 166.160052 229.874489 
L 166.996215 210.589345 
L 167.832379 228.910231 
L 168.668543 229.874489 
L 172.013198 229.874489 
L 172.849362 169.126285 
L 173.685526 139.234311 
L 174.52169 47.629877 
L 175.357854 227.945974 
L 176.194018 229.874489 
L 177.030181 102.592537 
L 177.866345 224.088945 
L 178.702509 226.01746 
L 179.538673 226.981717 
L 180.374837 229.874489 
L 181.211001 226.01746 
L 182.047164 229.874489 
L 182.883328 229.874489 
L 183.719492 225.053203 
L 184.555656 226.981717 
L 185.39182 229.874489 
L 191.244967 229.874489 
L 192.08113 228.910231 
L 192.917294 229.874489 
L 194.589622 229.874489 
L 195.425786 144.055597 
L 196.26195 199.018258 
L 197.098113 209.625087 
L 197.934277 229.874489 
L 199.606605 229.874489 
L 200.442769 206.732316 
L 201.278933 229.874489 
L 202.115096 213.482116 
L 202.95126 229.874489 
L 203.787424 219.267659 
L 204.623588 183.590143 
L 205.459752 229.874489 
L 206.295916 229.874489 
L 207.132079 226.981717 
L 207.968243 229.874489 
L 208.804407 177.8046 
L 209.640571 219.267659 
L 210.476735 225.053203 
L 211.312899 229.874489 
L 213.82139 229.874489 
L 214.657554 220.231917 
L 215.493718 229.874489 
L 219.674537 229.874489 
L 220.510701 226.01746 
L 221.346865 229.874489 
L 224.69152 229.874489 
L 225.527684 143.09134 
L 226.363848 226.01746 
L 227.200012 213.482116 
L 228.036175 229.874489 
L 228.872339 229.874489 
L 229.708503 228.910231 
L 230.544667 229.874489 
L 231.380831 229.874489 
L 232.216995 115.127881 
L 233.053158 229.874489 
L 238.070141 229.874489 
L 238.906305 211.553602 
L 239.742469 188.411429 
L 240.578633 229.874489 
L 241.414797 211.553602 
L 242.250961 156.590941 
L 243.087124 229.874489 
L 243.923288 229.874489 
L 244.759452 143.09134 
L 245.595616 224.088945 
L 246.43178 229.874489 
L 247.267944 229.874489 
L 248.104107 64.022249 
L 248.940271 228.910231 
L 249.776435 176.840342 
L 250.612599 44.737105 
L 251.448763 228.910231 
L 252.284927 229.874489 
L 253.957254 229.874489 
L 254.793418 225.053203 
L 255.629582 229.874489 
L 256.465746 229.874489 
L 257.30191 210.589345 
L 258.138073 76.557593 
L 258.974237 221.196174 
L 259.810401 210.589345 
L 260.646565 229.874489 
L 261.482729 229.874489 
L 262.318893 227.945974 
L 263.155057 229.874489 
L 265.663548 229.874489 
L 266.499712 218.303402 
L 267.335876 228.910231 
L 268.17204 229.874489 
L 275.697514 229.874489 
L 276.533678 226.981717 
L 277.369842 229.874489 
L 278.206006 198.054001 
L 279.042169 205.768058 
L 279.878333 229.874489 
L 282.386825 229.874489 
L 283.222989 199.982515 
L 284.059152 211.553602 
L 284.895316 228.910231 
L 285.73148 229.874489 
L 287.403808 229.874489 
L 288.239972 218.303402 
L 289.076135 159.483713 
L 289.912299 32.201761 
L 290.748463 224.088945 
L 291.584627 229.874489 
L 292.420791 227.945974 
L 293.256955 167.19777 
L 294.093118 227.945974 
L 294.929282 229.874489 
L 299.110101 229.874489 
L 299.946265 173.947571 
L 300.782429 229.874489 
L 304.127084 229.874489 
L 304.963248 204.803801 
L 305.799412 218.303402 
L 306.635576 229.874489 
L 309.144067 229.874489 
L 309.980231 219.267659 
L 310.816395 218.303402 
L 311.652559 229.874489 
L 314.161051 229.874489 
L 314.997214 226.01746 
L 315.833378 229.874489 
L 316.669542 220.231917 
L 317.505706 220.231917 
L 318.34187 229.874489 
L 321.686525 229.874489 
L 322.522689 226.01746 
L 323.358853 229.874489 
L 324.195017 229.874489 
L 325.03118 228.910231 
L 325.867344 223.124688 
L 326.703508 229.874489 
L 327.539672 229.874489 
L 328.375836 224.088945 
L 329.212 229.874489 
L 341.754457 229.874489 
L 342.590621 200.946772 
L 343.426785 229.874489 
L 344.262949 228.910231 
L 345.099112 229.874489 
L 345.935276 228.910231 
L 346.77144 229.874489 
L 347.607604 216.374888 
L 348.443768 229.874489 
L 349.279932 226.981717 
L 350.116095 229.874489 
L 350.952259 229.874489 
L 351.788423 225.053203 
L 352.624587 229.874489 
L 355.133078 229.874489 
L 355.969242 228.910231 
L 356.805406 229.874489 
L 360.986225 229.874489 
L 361.822389 225.053203 
L 362.658553 228.910231 
L 363.494717 228.910231 
L 364.330881 229.874489 
L 364.330881 229.874489 
" style="fill:none;stroke:#4c72b0;stroke-linecap:round;stroke-width:1.75;"/>
   </g>
   <g id="patch_3">
    <path d="M 44.749063 239.758125 
L 44.749063 22.318125 
" style="fill:none;"/>
   </g>
   <g id="patch_4">
    <path d="M 379.549062 239.758125 
L 379.549062 22.318125 
" style="fill:none;"/>
   </g>
   <g id="patch_5">
    <path d="M 44.749063 239.758125 
L 379.549062 239.758125 
" style="fill:none;"/>
   </g>
   <g id="patch_6">
    <path d="M 44.749063 22.318125 
L 379.549062 22.318125 
" style="fill:none;"/>
   </g>
   <g id="text_16">
    <!-- Daily precipitation in Minneapolis for 2017 -->
    <defs>
     <path d="M 9.421875 75.984375 
L 18.40625 75.984375 
L 18.40625 0 
L 9.421875 0 
z
" id="DejaVuSans-6c"/>
     <path d="M 9.8125 72.90625 
L 24.515625 72.90625 
L 43.109375 23.296875 
L 61.8125 72.90625 
L 76.515625 72.90625 
L 76.515625 0 
L 66.890625 0 
L 66.890625 64.015625 
L 48.09375 14.015625 
L 38.1875 14.015625 
L 19.390625 64.015625 
L 19.390625 0 
L 9.8125 0 
z
" id="DejaVuSans-4d"/>
     <path d="M 44.28125 53.078125 
L 44.28125 44.578125 
Q 40.484375 46.53125 36.375 47.5 
Q 32.28125 48.484375 27.875 48.484375 
Q 21.1875 48.484375 17.84375 46.4375 
Q 14.5 44.390625 14.5 40.28125 
Q 14.5 37.15625 16.890625 35.375 
Q 19.28125 33.59375 26.515625 31.984375 
L 29.59375 31.296875 
Q 39.15625 29.25 43.1875 25.515625 
Q 47.21875 21.78125 47.21875 15.09375 
Q 47.21875 7.46875 41.1875 3.015625 
Q 35.15625 -1.421875 24.609375 -1.421875 
Q 20.21875 -1.421875 15.453125 -0.5625 
Q 10.6875 0.296875 5.421875 2 
L 5.421875 11.28125 
Q 10.40625 8.6875 15.234375 7.390625 
Q 20.0625 6.109375 24.8125 6.109375 
Q 31.15625 6.109375 34.5625 8.28125 
Q 37.984375 10.453125 37.984375 14.40625 
Q 37.984375 18.0625 35.515625 20.015625 
Q 33.0625 21.96875 24.703125 23.78125 
L 21.578125 24.515625 
Q 13.234375 26.265625 9.515625 29.90625 
Q 5.8125 33.546875 5.8125 39.890625 
Q 5.8125 47.609375 11.28125 51.796875 
Q 16.75 56 26.8125 56 
Q 31.78125 56 36.171875 55.265625 
Q 40.578125 54.546875 44.28125 53.078125 
z
" id="DejaVuSans-73"/>
     <path d="M 8.203125 72.90625 
L 55.078125 72.90625 
L 55.078125 68.703125 
L 28.609375 0 
L 18.3125 0 
L 43.21875 64.59375 
L 8.203125 64.59375 
z
" id="DejaVuSans-37"/>
    </defs>
    <g style="fill:#262626;" transform="translate(84.756875 16.318125)scale(0.12 -0.12)">
     <use xlink:href="#DejaVuSans-44"/>
     <use x="77.001953" xlink:href="#DejaVuSans-61"/>
     <use x="138.28125" xlink:href="#DejaVuSans-69"/>
     <use x="166.064453" xlink:href="#DejaVuSans-6c"/>
     <use x="193.847656" xlink:href="#DejaVuSans-79"/>
     <use x="253.027344" xlink:href="#DejaVuSans-20"/>
     <use x="284.814453" xlink:href="#DejaVuSans-70"/>
     <use x="348.291016" xlink:href="#DejaVuSans-72"/>
     <use x="389.373047" xlink:href="#DejaVuSans-65"/>
     <use x="450.896484" xlink:href="#DejaVuSans-63"/>
     <use x="505.876953" xlink:href="#DejaVuSans-69"/>
     <use x="533.660156" xlink:href="#DejaVuSans-70"/>
     <use x="597.136719" xlink:href="#DejaVuSans-69"/>
     <use x="624.919922" xlink:href="#DejaVuSans-74"/>
     <use x="664.128906" xlink:href="#DejaVuSans-61"/>
     <use x="725.408203" xlink:href="#DejaVuSans-74"/>
     <use x="764.617188" xlink:href="#DejaVuSans-69"/>
     <use x="792.400391" xlink:href="#DejaVuSans-6f"/>
     <use x="853.582031" xlink:href="#DejaVuSans-6e"/>
     <use x="916.960938" xlink:href="#DejaVuSans-20"/>
     <use x="948.748047" xlink:href="#DejaVuSans-69"/>
     <use x="976.53125" xlink:href="#DejaVuSans-6e"/>
     <use x="1039.910156" xlink:href="#DejaVuSans-20"/>
     <use x="1071.697266" xlink:href="#DejaVuSans-4d"/>
     <use x="1157.976562" xlink:href="#DejaVuSans-69"/>
     <use x="1185.759766" xlink:href="#DejaVuSans-6e"/>
     <use x="1249.138672" xlink:href="#DejaVuSans-6e"/>
     <use x="1312.517578" xlink:href="#DejaVuSans-65"/>
     <use x="1374.041016" xlink:href="#DejaVuSans-61"/>
     <use x="1435.320312" xlink:href="#DejaVuSans-70"/>
     <use x="1498.796875" xlink:href="#DejaVuSans-6f"/>
     <use x="1559.978516" xlink:href="#DejaVuSans-6c"/>
     <use x="1587.761719" xlink:href="#DejaVuSans-69"/>
     <use x="1615.544922" xlink:href="#DejaVuSans-73"/>
     <use x="1667.644531" xlink:href="#DejaVuSans-20"/>
     <use x="1699.431641" xlink:href="#DejaVuSans-66"/>
     <use x="1734.636719" xlink:href="#DejaVuSans-6f"/>
     <use x="1795.818359" xlink:href="#DejaVuSans-72"/>
     <use x="1836.931641" xlink:href="#DejaVuSans-20"/>
     <use x="1868.71875" xlink:href="#DejaVuSans-32"/>
     <use x="1932.341797" xlink:href="#DejaVuSans-30"/>
     <use x="1995.964844" xlink:href="#DejaVuSans-31"/>
     <use x="2059.587891" xlink:href="#DejaVuSans-37"/>
    </g>
   </g>
  </g>
 </g>
 <defs>
  <clipPath id="p177bb97a5a">
   <rect height="217.44" width="334.8" x="44.749063" y="22.318125"/>
  </clipPath>
 </defs>
</svg>
