<?xml version="1.0" encoding="utf-8" standalone="no"?>
<!DOCTYPE svg PUBLIC "-//W3C//DTD SVG 1.1//EN"
  "http://www.w3.org/Graphics/SVG/1.1/DTD/svg11.dtd">
<!-- Created with matplotlib (http://matplotlib.org/) -->
<svg height="434pt" version="1.1" viewBox="0 0 425 434" width="425pt" xmlns="http://www.w3.org/2000/svg" xmlns:xlink="http://www.w3.org/1999/xlink">
 <defs>
  <style type="text/css">
*{stroke-linecap:butt;stroke-linejoin:round;}
  </style>
 </defs>
 <g id="figure_1">
  <g id="patch_1">
   <path d="M 0 434.804062 
L 425.613437 434.804062 
L 425.613437 -0 
L 0 -0 
z
" style="fill:#ffffff;"/>
  </g>
  <g id="axes_1">
   <g id="patch_2">
    <path d="M 35.208438 396.28 
L 352.721152 396.28 
L 352.721152 73.899429 
L 35.208438 73.899429 
z
" style="fill:#ffffff;"/>
   </g>
   <g id="matplotlib.axis_1">
    <g id="xtick_1">
     <g id="line2d_1"/>
     <g id="text_1">
      <!-- 0.00 -->
      <defs>
       <path d="M 31.78125 66.40625 
Q 24.171875 66.40625 20.328125 58.90625 
Q 16.5 51.421875 16.5 36.375 
Q 16.5 21.390625 20.328125 13.890625 
Q 24.171875 6.390625 31.78125 6.390625 
Q 39.453125 6.390625 43.28125 13.890625 
Q 47.125 21.390625 47.125 36.375 
Q 47.125 51.421875 43.28125 58.90625 
Q 39.453125 66.40625 31.78125 66.40625 
z
M 31.78125 74.21875 
Q 44.046875 74.21875 50.515625 64.515625 
Q 56.984375 54.828125 56.984375 36.375 
Q 56.984375 17.96875 50.515625 8.265625 
Q 44.046875 -1.421875 31.78125 -1.421875 
Q 19.53125 -1.421875 13.0625 8.265625 
Q 6.59375 17.96875 6.59375 36.375 
Q 6.59375 54.828125 13.0625 64.515625 
Q 19.53125 74.21875 31.78125 74.21875 
z
" id="DejaVuSans-30"/>
       <path d="M 10.6875 12.40625 
L 21 12.40625 
L 21 0 
L 10.6875 0 
z
" id="DejaVuSans-2e"/>
      </defs>
      <g style="fill:#262626;" transform="translate(24.075625 410.878437)scale(0.1 -0.1)">
       <use xlink:href="#DejaVuSans-30"/>
       <use x="63.623047" xlink:href="#DejaVuSans-2e"/>
       <use x="95.410156" xlink:href="#DejaVuSans-30"/>
       <use x="159.033203" xlink:href="#DejaVuSans-30"/>
      </g>
     </g>
    </g>
    <g id="xtick_2">
     <g id="line2d_2"/>
     <g id="text_2">
      <!-- 0.25 -->
      <defs>
       <path d="M 19.1875 8.296875 
L 53.609375 8.296875 
L 53.609375 0 
L 7.328125 0 
L 7.328125 8.296875 
Q 12.9375 14.109375 22.625 23.890625 
Q 32.328125 33.6875 34.8125 36.53125 
Q 39.546875 41.84375 41.421875 45.53125 
Q 43.3125 49.21875 43.3125 52.78125 
Q 43.3125 58.59375 39.234375 62.25 
Q 35.15625 65.921875 28.609375 65.921875 
Q 23.96875 65.921875 18.8125 64.3125 
Q 13.671875 62.703125 7.8125 59.421875 
L 7.8125 69.390625 
Q 13.765625 71.78125 18.9375 73 
Q 24.125 74.21875 28.421875 74.21875 
Q 39.75 74.21875 46.484375 68.546875 
Q 53.21875 62.890625 53.21875 53.421875 
Q 53.21875 48.921875 51.53125 44.890625 
Q 49.859375 40.875 45.40625 35.40625 
Q 44.1875 33.984375 37.640625 27.21875 
Q 31.109375 20.453125 19.1875 8.296875 
z
" id="DejaVuSans-32"/>
       <path d="M 10.796875 72.90625 
L 49.515625 72.90625 
L 49.515625 64.59375 
L 19.828125 64.59375 
L 19.828125 46.734375 
Q 21.96875 47.46875 24.109375 47.828125 
Q 26.265625 48.1875 28.421875 48.1875 
Q 40.625 48.1875 47.75 41.5 
Q 54.890625 34.8125 54.890625 23.390625 
Q 54.890625 11.625 47.5625 5.09375 
Q 40.234375 -1.421875 26.90625 -1.421875 
Q 22.3125 -1.421875 17.546875 -0.640625 
Q 12.796875 0.140625 7.71875 1.703125 
L 7.71875 11.625 
Q 12.109375 9.234375 16.796875 8.0625 
Q 21.484375 6.890625 26.703125 6.890625 
Q 35.15625 6.890625 40.078125 11.328125 
Q 45.015625 15.765625 45.015625 23.390625 
Q 45.015625 31 40.078125 35.4375 
Q 35.15625 39.890625 26.703125 39.890625 
Q 22.75 39.890625 18.8125 39.015625 
Q 14.890625 38.140625 10.796875 36.28125 
z
" id="DejaVuSans-35"/>
      </defs>
      <g style="fill:#262626;" transform="translate(62.796688 410.878437)scale(0.1 -0.1)">
       <use xlink:href="#DejaVuSans-30"/>
       <use x="63.623047" xlink:href="#DejaVuSans-2e"/>
       <use x="95.410156" xlink:href="#DejaVuSans-32"/>
       <use x="159.033203" xlink:href="#DejaVuSans-35"/>
      </g>
     </g>
    </g>
    <g id="xtick_3">
     <g id="line2d_3"/>
     <g id="text_3">
      <!-- 0.50 -->
      <g style="fill:#262626;" transform="translate(101.517751 410.878437)scale(0.1 -0.1)">
       <use xlink:href="#DejaVuSans-30"/>
       <use x="63.623047" xlink:href="#DejaVuSans-2e"/>
       <use x="95.410156" xlink:href="#DejaVuSans-35"/>
       <use x="159.033203" xlink:href="#DejaVuSans-30"/>
      </g>
     </g>
    </g>
    <g id="xtick_4">
     <g id="line2d_4"/>
     <g id="text_4">
      <!-- 0.75 -->
      <defs>
       <path d="M 8.203125 72.90625 
L 55.078125 72.90625 
L 55.078125 68.703125 
L 28.609375 0 
L 18.3125 0 
L 43.21875 64.59375 
L 8.203125 64.59375 
z
" id="DejaVuSans-37"/>
      </defs>
      <g style="fill:#262626;" transform="translate(140.238813 410.878437)scale(0.1 -0.1)">
       <use xlink:href="#DejaVuSans-30"/>
       <use x="63.623047" xlink:href="#DejaVuSans-2e"/>
       <use x="95.410156" xlink:href="#DejaVuSans-37"/>
       <use x="159.033203" xlink:href="#DejaVuSans-35"/>
      </g>
     </g>
    </g>
    <g id="xtick_5">
     <g id="line2d_5"/>
     <g id="text_5">
      <!-- 1.00 -->
      <defs>
       <path d="M 12.40625 8.296875 
L 28.515625 8.296875 
L 28.515625 63.921875 
L 10.984375 60.40625 
L 10.984375 69.390625 
L 28.421875 72.90625 
L 38.28125 72.90625 
L 38.28125 8.296875 
L 54.390625 8.296875 
L 54.390625 0 
L 12.40625 0 
z
" id="DejaVuSans-31"/>
      </defs>
      <g style="fill:#262626;" transform="translate(178.959876 410.878437)scale(0.1 -0.1)">
       <use xlink:href="#DejaVuSans-31"/>
       <use x="63.623047" xlink:href="#DejaVuSans-2e"/>
       <use x="95.410156" xlink:href="#DejaVuSans-30"/>
       <use x="159.033203" xlink:href="#DejaVuSans-30"/>
      </g>
     </g>
    </g>
    <g id="xtick_6">
     <g id="line2d_6"/>
     <g id="text_6">
      <!-- 1.25 -->
      <g style="fill:#262626;" transform="translate(217.680939 410.878437)scale(0.1 -0.1)">
       <use xlink:href="#DejaVuSans-31"/>
       <use x="63.623047" xlink:href="#DejaVuSans-2e"/>
       <use x="95.410156" xlink:href="#DejaVuSans-32"/>
       <use x="159.033203" xlink:href="#DejaVuSans-35"/>
      </g>
     </g>
    </g>
    <g id="xtick_7">
     <g id="line2d_7"/>
     <g id="text_7">
      <!-- 1.50 -->
      <g style="fill:#262626;" transform="translate(256.402001 410.878437)scale(0.1 -0.1)">
       <use xlink:href="#DejaVuSans-31"/>
       <use x="63.623047" xlink:href="#DejaVuSans-2e"/>
       <use x="95.410156" xlink:href="#DejaVuSans-35"/>
       <use x="159.033203" xlink:href="#DejaVuSans-30"/>
      </g>
     </g>
    </g>
    <g id="xtick_8">
     <g id="line2d_8"/>
     <g id="text_8">
      <!-- 1.75 -->
      <g style="fill:#262626;" transform="translate(295.123064 410.878437)scale(0.1 -0.1)">
       <use xlink:href="#DejaVuSans-31"/>
       <use x="63.623047" xlink:href="#DejaVuSans-2e"/>
       <use x="95.410156" xlink:href="#DejaVuSans-37"/>
       <use x="159.033203" xlink:href="#DejaVuSans-35"/>
      </g>
     </g>
    </g>
    <g id="xtick_9">
     <g id="line2d_9"/>
     <g id="text_9">
      <!-- 2.00 -->
      <g style="fill:#262626;" transform="translate(333.844126 410.878437)scale(0.1 -0.1)">
       <use xlink:href="#DejaVuSans-32"/>
       <use x="63.623047" xlink:href="#DejaVuSans-2e"/>
       <use x="95.410156" xlink:href="#DejaVuSans-30"/>
       <use x="159.033203" xlink:href="#DejaVuSans-30"/>
      </g>
     </g>
    </g>
    <g id="text_10">
     <!-- Daily precipitation (in) -->
     <defs>
      <path d="M 19.671875 64.796875 
L 19.671875 8.109375 
L 31.59375 8.109375 
Q 46.6875 8.109375 53.6875 14.9375 
Q 60.6875 21.78125 60.6875 36.53125 
Q 60.6875 51.171875 53.6875 57.984375 
Q 46.6875 64.796875 31.59375 64.796875 
z
M 9.8125 72.90625 
L 30.078125 72.90625 
Q 51.265625 72.90625 61.171875 64.09375 
Q 71.09375 55.28125 71.09375 36.53125 
Q 71.09375 17.671875 61.125 8.828125 
Q 51.171875 0 30.078125 0 
L 9.8125 0 
z
" id="DejaVuSans-44"/>
      <path d="M 34.28125 27.484375 
Q 23.390625 27.484375 19.1875 25 
Q 14.984375 22.515625 14.984375 16.5 
Q 14.984375 11.71875 18.140625 8.90625 
Q 21.296875 6.109375 26.703125 6.109375 
Q 34.1875 6.109375 38.703125 11.40625 
Q 43.21875 16.703125 43.21875 25.484375 
L 43.21875 27.484375 
z
M 52.203125 31.203125 
L 52.203125 0 
L 43.21875 0 
L 43.21875 8.296875 
Q 40.140625 3.328125 35.546875 0.953125 
Q 30.953125 -1.421875 24.3125 -1.421875 
Q 15.921875 -1.421875 10.953125 3.296875 
Q 6 8.015625 6 15.921875 
Q 6 25.140625 12.171875 29.828125 
Q 18.359375 34.515625 30.609375 34.515625 
L 43.21875 34.515625 
L 43.21875 35.40625 
Q 43.21875 41.609375 39.140625 45 
Q 35.0625 48.390625 27.6875 48.390625 
Q 23 48.390625 18.546875 47.265625 
Q 14.109375 46.140625 10.015625 43.890625 
L 10.015625 52.203125 
Q 14.9375 54.109375 19.578125 55.046875 
Q 24.21875 56 28.609375 56 
Q 40.484375 56 46.34375 49.84375 
Q 52.203125 43.703125 52.203125 31.203125 
z
" id="DejaVuSans-61"/>
      <path d="M 9.421875 54.6875 
L 18.40625 54.6875 
L 18.40625 0 
L 9.421875 0 
z
M 9.421875 75.984375 
L 18.40625 75.984375 
L 18.40625 64.59375 
L 9.421875 64.59375 
z
" id="DejaVuSans-69"/>
      <path d="M 9.421875 75.984375 
L 18.40625 75.984375 
L 18.40625 0 
L 9.421875 0 
z
" id="DejaVuSans-6c"/>
      <path d="M 32.171875 -5.078125 
Q 28.375 -14.84375 24.75 -17.8125 
Q 21.140625 -20.796875 15.09375 -20.796875 
L 7.90625 -20.796875 
L 7.90625 -13.28125 
L 13.1875 -13.28125 
Q 16.890625 -13.28125 18.9375 -11.515625 
Q 21 -9.765625 23.484375 -3.21875 
L 25.09375 0.875 
L 2.984375 54.6875 
L 12.5 54.6875 
L 29.59375 11.921875 
L 46.6875 54.6875 
L 56.203125 54.6875 
z
" id="DejaVuSans-79"/>
      <path id="DejaVuSans-20"/>
      <path d="M 18.109375 8.203125 
L 18.109375 -20.796875 
L 9.078125 -20.796875 
L 9.078125 54.6875 
L 18.109375 54.6875 
L 18.109375 46.390625 
Q 20.953125 51.265625 25.265625 53.625 
Q 29.59375 56 35.59375 56 
Q 45.5625 56 51.78125 48.09375 
Q 58.015625 40.1875 58.015625 27.296875 
Q 58.015625 14.40625 51.78125 6.484375 
Q 45.5625 -1.421875 35.59375 -1.421875 
Q 29.59375 -1.421875 25.265625 0.953125 
Q 20.953125 3.328125 18.109375 8.203125 
z
M 48.6875 27.296875 
Q 48.6875 37.203125 44.609375 42.84375 
Q 40.53125 48.484375 33.40625 48.484375 
Q 26.265625 48.484375 22.1875 42.84375 
Q 18.109375 37.203125 18.109375 27.296875 
Q 18.109375 17.390625 22.1875 11.75 
Q 26.265625 6.109375 33.40625 6.109375 
Q 40.53125 6.109375 44.609375 11.75 
Q 48.6875 17.390625 48.6875 27.296875 
z
" id="DejaVuSans-70"/>
      <path d="M 41.109375 46.296875 
Q 39.59375 47.171875 37.8125 47.578125 
Q 36.03125 48 33.890625 48 
Q 26.265625 48 22.1875 43.046875 
Q 18.109375 38.09375 18.109375 28.8125 
L 18.109375 0 
L 9.078125 0 
L 9.078125 54.6875 
L 18.109375 54.6875 
L 18.109375 46.1875 
Q 20.953125 51.171875 25.484375 53.578125 
Q 30.03125 56 36.53125 56 
Q 37.453125 56 38.578125 55.875 
Q 39.703125 55.765625 41.0625 55.515625 
z
" id="DejaVuSans-72"/>
      <path d="M 56.203125 29.59375 
L 56.203125 25.203125 
L 14.890625 25.203125 
Q 15.484375 15.921875 20.484375 11.0625 
Q 25.484375 6.203125 34.421875 6.203125 
Q 39.59375 6.203125 44.453125 7.46875 
Q 49.3125 8.734375 54.109375 11.28125 
L 54.109375 2.78125 
Q 49.265625 0.734375 44.1875 -0.34375 
Q 39.109375 -1.421875 33.890625 -1.421875 
Q 20.796875 -1.421875 13.15625 6.1875 
Q 5.515625 13.8125 5.515625 26.8125 
Q 5.515625 40.234375 12.765625 48.109375 
Q 20.015625 56 32.328125 56 
Q 43.359375 56 49.78125 48.890625 
Q 56.203125 41.796875 56.203125 29.59375 
z
M 47.21875 32.234375 
Q 47.125 39.59375 43.09375 43.984375 
Q 39.0625 48.390625 32.421875 48.390625 
Q 24.90625 48.390625 20.390625 44.140625 
Q 15.875 39.890625 15.1875 32.171875 
z
" id="DejaVuSans-65"/>
      <path d="M 48.78125 52.59375 
L 48.78125 44.1875 
Q 44.96875 46.296875 41.140625 47.34375 
Q 37.3125 48.390625 33.40625 48.390625 
Q 24.65625 48.390625 19.8125 42.84375 
Q 14.984375 37.3125 14.984375 27.296875 
Q 14.984375 17.28125 19.8125 11.734375 
Q 24.65625 6.203125 33.40625 6.203125 
Q 37.3125 6.203125 41.140625 7.25 
Q 44.96875 8.296875 48.78125 10.40625 
L 48.78125 2.09375 
Q 45.015625 0.34375 40.984375 -0.53125 
Q 36.96875 -1.421875 32.421875 -1.421875 
Q 20.0625 -1.421875 12.78125 6.34375 
Q 5.515625 14.109375 5.515625 27.296875 
Q 5.515625 40.671875 12.859375 48.328125 
Q 20.21875 56 33.015625 56 
Q 37.15625 56 41.109375 55.140625 
Q 45.0625 54.296875 48.78125 52.59375 
z
" id="DejaVuSans-63"/>
      <path d="M 18.3125 70.21875 
L 18.3125 54.6875 
L 36.8125 54.6875 
L 36.8125 47.703125 
L 18.3125 47.703125 
L 18.3125 18.015625 
Q 18.3125 11.328125 20.140625 9.421875 
Q 21.96875 7.515625 27.59375 7.515625 
L 36.8125 7.515625 
L 36.8125 0 
L 27.59375 0 
Q 17.1875 0 13.234375 3.875 
Q 9.28125 7.765625 9.28125 18.015625 
L 9.28125 47.703125 
L 2.6875 47.703125 
L 2.6875 54.6875 
L 9.28125 54.6875 
L 9.28125 70.21875 
z
" id="DejaVuSans-74"/>
      <path d="M 30.609375 48.390625 
Q 23.390625 48.390625 19.1875 42.75 
Q 14.984375 37.109375 14.984375 27.296875 
Q 14.984375 17.484375 19.15625 11.84375 
Q 23.34375 6.203125 30.609375 6.203125 
Q 37.796875 6.203125 41.984375 11.859375 
Q 46.1875 17.53125 46.1875 27.296875 
Q 46.1875 37.015625 41.984375 42.703125 
Q 37.796875 48.390625 30.609375 48.390625 
z
M 30.609375 56 
Q 42.328125 56 49.015625 48.375 
Q 55.71875 40.765625 55.71875 27.296875 
Q 55.71875 13.875 49.015625 6.21875 
Q 42.328125 -1.421875 30.609375 -1.421875 
Q 18.84375 -1.421875 12.171875 6.21875 
Q 5.515625 13.875 5.515625 27.296875 
Q 5.515625 40.765625 12.171875 48.375 
Q 18.84375 56 30.609375 56 
z
" id="DejaVuSans-6f"/>
      <path d="M 54.890625 33.015625 
L 54.890625 0 
L 45.90625 0 
L 45.90625 32.71875 
Q 45.90625 40.484375 42.875 44.328125 
Q 39.84375 48.1875 33.796875 48.1875 
Q 26.515625 48.1875 22.3125 43.546875 
Q 18.109375 38.921875 18.109375 30.90625 
L 18.109375 0 
L 9.078125 0 
L 9.078125 54.6875 
L 18.109375 54.6875 
L 18.109375 46.1875 
Q 21.34375 51.125 25.703125 53.5625 
Q 30.078125 56 35.796875 56 
Q 45.21875 56 50.046875 50.171875 
Q 54.890625 44.34375 54.890625 33.015625 
z
" id="DejaVuSans-6e"/>
      <path d="M 31 75.875 
Q 24.46875 64.65625 21.28125 53.65625 
Q 18.109375 42.671875 18.109375 31.390625 
Q 18.109375 20.125 21.3125 9.0625 
Q 24.515625 -2 31 -13.1875 
L 23.1875 -13.1875 
Q 15.875 -1.703125 12.234375 9.375 
Q 8.59375 20.453125 8.59375 31.390625 
Q 8.59375 42.28125 12.203125 53.3125 
Q 15.828125 64.359375 23.1875 75.875 
z
" id="DejaVuSans-28"/>
      <path d="M 8.015625 75.875 
L 15.828125 75.875 
Q 23.140625 64.359375 26.78125 53.3125 
Q 30.421875 42.28125 30.421875 31.390625 
Q 30.421875 20.453125 26.78125 9.375 
Q 23.140625 -1.703125 15.828125 -13.1875 
L 8.015625 -13.1875 
Q 14.5 -2 17.703125 9.0625 
Q 20.90625 20.125 20.90625 31.390625 
Q 20.90625 42.671875 17.703125 53.65625 
Q 14.5 64.65625 8.015625 75.875 
z
" id="DejaVuSans-29"/>
     </defs>
     <g style="fill:#262626;" transform="translate(132.478232 425.316406)scale(0.11 -0.11)">
      <use xlink:href="#DejaVuSans-44"/>
      <use x="77.001953" xlink:href="#DejaVuSans-61"/>
      <use x="138.28125" xlink:href="#DejaVuSans-69"/>
      <use x="166.064453" xlink:href="#DejaVuSans-6c"/>
      <use x="193.847656" xlink:href="#DejaVuSans-79"/>
      <use x="253.027344" xlink:href="#DejaVuSans-20"/>
      <use x="284.814453" xlink:href="#DejaVuSans-70"/>
      <use x="348.291016" xlink:href="#DejaVuSans-72"/>
      <use x="389.373047" xlink:href="#DejaVuSans-65"/>
      <use x="450.896484" xlink:href="#DejaVuSans-63"/>
      <use x="505.876953" xlink:href="#DejaVuSans-69"/>
      <use x="533.660156" xlink:href="#DejaVuSans-70"/>
      <use x="597.136719" xlink:href="#DejaVuSans-69"/>
      <use x="624.919922" xlink:href="#DejaVuSans-74"/>
      <use x="664.128906" xlink:href="#DejaVuSans-61"/>
      <use x="725.408203" xlink:href="#DejaVuSans-74"/>
      <use x="764.617188" xlink:href="#DejaVuSans-69"/>
      <use x="792.400391" xlink:href="#DejaVuSans-6f"/>
      <use x="853.582031" xlink:href="#DejaVuSans-6e"/>
      <use x="916.960938" xlink:href="#DejaVuSans-20"/>
      <use x="948.748047" xlink:href="#DejaVuSans-28"/>
      <use x="987.761719" xlink:href="#DejaVuSans-69"/>
      <use x="1015.544922" xlink:href="#DejaVuSans-6e"/>
      <use x="1078.923828" xlink:href="#DejaVuSans-29"/>
     </g>
    </g>
   </g>
   <g id="matplotlib.axis_2">
    <g id="ytick_1">
     <g id="line2d_10"/>
     <g id="text_11">
      <!-- 2 -->
      <g style="fill:#262626;" transform="translate(21.845938 386.526188)scale(0.1 -0.1)">
       <use xlink:href="#DejaVuSans-32"/>
      </g>
     </g>
    </g>
    <g id="ytick_2">
     <g id="line2d_11"/>
     <g id="text_12">
      <!-- 3 -->
      <defs>
       <path d="M 40.578125 39.3125 
Q 47.65625 37.796875 51.625 33 
Q 55.609375 28.21875 55.609375 21.1875 
Q 55.609375 10.40625 48.1875 4.484375 
Q 40.765625 -1.421875 27.09375 -1.421875 
Q 22.515625 -1.421875 17.65625 -0.515625 
Q 12.796875 0.390625 7.625 2.203125 
L 7.625 11.71875 
Q 11.71875 9.328125 16.59375 8.109375 
Q 21.484375 6.890625 26.8125 6.890625 
Q 36.078125 6.890625 40.9375 10.546875 
Q 45.796875 14.203125 45.796875 21.1875 
Q 45.796875 27.640625 41.28125 31.265625 
Q 36.765625 34.90625 28.71875 34.90625 
L 20.21875 34.90625 
L 20.21875 43.015625 
L 29.109375 43.015625 
Q 36.375 43.015625 40.234375 45.921875 
Q 44.09375 48.828125 44.09375 54.296875 
Q 44.09375 59.90625 40.109375 62.90625 
Q 36.140625 65.921875 28.71875 65.921875 
Q 24.65625 65.921875 20.015625 65.03125 
Q 15.375 64.15625 9.8125 62.3125 
L 9.8125 71.09375 
Q 15.4375 72.65625 20.34375 73.4375 
Q 25.25 74.21875 29.59375 74.21875 
Q 40.828125 74.21875 47.359375 69.109375 
Q 53.90625 64.015625 53.90625 55.328125 
Q 53.90625 49.265625 50.4375 45.09375 
Q 46.96875 40.921875 40.578125 39.3125 
z
" id="DejaVuSans-33"/>
      </defs>
      <g style="fill:#262626;" transform="translate(21.845938 325.434878)scale(0.1 -0.1)">
       <use xlink:href="#DejaVuSans-33"/>
      </g>
     </g>
    </g>
    <g id="ytick_3">
     <g id="line2d_12"/>
     <g id="text_13">
      <!-- 4 -->
      <defs>
       <path d="M 37.796875 64.3125 
L 12.890625 25.390625 
L 37.796875 25.390625 
z
M 35.203125 72.90625 
L 47.609375 72.90625 
L 47.609375 25.390625 
L 58.015625 25.390625 
L 58.015625 17.1875 
L 47.609375 17.1875 
L 47.609375 0 
L 37.796875 0 
L 37.796875 17.1875 
L 4.890625 17.1875 
L 4.890625 26.703125 
z
" id="DejaVuSans-34"/>
      </defs>
      <g style="fill:#262626;" transform="translate(21.845938 264.343569)scale(0.1 -0.1)">
       <use xlink:href="#DejaVuSans-34"/>
      </g>
     </g>
    </g>
    <g id="ytick_4">
     <g id="line2d_13"/>
     <g id="text_14">
      <!-- 5 -->
      <g style="fill:#262626;" transform="translate(21.845938 203.252259)scale(0.1 -0.1)">
       <use xlink:href="#DejaVuSans-35"/>
      </g>
     </g>
    </g>
    <g id="ytick_5">
     <g id="line2d_14"/>
     <g id="text_15">
      <!-- 6 -->
      <defs>
       <path d="M 33.015625 40.375 
Q 26.375 40.375 22.484375 35.828125 
Q 18.609375 31.296875 18.609375 23.390625 
Q 18.609375 15.53125 22.484375 10.953125 
Q 26.375 6.390625 33.015625 6.390625 
Q 39.65625 6.390625 43.53125 10.953125 
Q 47.40625 15.53125 47.40625 23.390625 
Q 47.40625 31.296875 43.53125 35.828125 
Q 39.65625 40.375 33.015625 40.375 
z
M 52.59375 71.296875 
L 52.59375 62.3125 
Q 48.875 64.0625 45.09375 64.984375 
Q 41.3125 65.921875 37.59375 65.921875 
Q 27.828125 65.921875 22.671875 59.328125 
Q 17.53125 52.734375 16.796875 39.40625 
Q 19.671875 43.65625 24.015625 45.921875 
Q 28.375 48.1875 33.59375 48.1875 
Q 44.578125 48.1875 50.953125 41.515625 
Q 57.328125 34.859375 57.328125 23.390625 
Q 57.328125 12.15625 50.6875 5.359375 
Q 44.046875 -1.421875 33.015625 -1.421875 
Q 20.359375 -1.421875 13.671875 8.265625 
Q 6.984375 17.96875 6.984375 36.375 
Q 6.984375 53.65625 15.1875 63.9375 
Q 23.390625 74.21875 37.203125 74.21875 
Q 40.921875 74.21875 44.703125 73.484375 
Q 48.484375 72.75 52.59375 71.296875 
z
" id="DejaVuSans-36"/>
      </defs>
      <g style="fill:#262626;" transform="translate(21.845938 142.160949)scale(0.1 -0.1)">
       <use xlink:href="#DejaVuSans-36"/>
      </g>
     </g>
    </g>
    <g id="ytick_6">
     <g id="line2d_15"/>
     <g id="text_16">
      <!-- 7 -->
      <g style="fill:#262626;" transform="translate(21.845938 81.069639)scale(0.1 -0.1)">
       <use xlink:href="#DejaVuSans-37"/>
      </g>
     </g>
    </g>
    <g id="text_17">
     <!-- Duration of rental ( log10(s) ) -->
     <defs>
      <path d="M 8.5 21.578125 
L 8.5 54.6875 
L 17.484375 54.6875 
L 17.484375 21.921875 
Q 17.484375 14.15625 20.5 10.265625 
Q 23.53125 6.390625 29.59375 6.390625 
Q 36.859375 6.390625 41.078125 11.03125 
Q 45.3125 15.671875 45.3125 23.6875 
L 45.3125 54.6875 
L 54.296875 54.6875 
L 54.296875 0 
L 45.3125 0 
L 45.3125 8.40625 
Q 42.046875 3.421875 37.71875 1 
Q 33.40625 -1.421875 27.6875 -1.421875 
Q 18.265625 -1.421875 13.375 4.4375 
Q 8.5 10.296875 8.5 21.578125 
z
M 31.109375 56 
z
" id="DejaVuSans-75"/>
      <path d="M 37.109375 75.984375 
L 37.109375 68.5 
L 28.515625 68.5 
Q 23.6875 68.5 21.796875 66.546875 
Q 19.921875 64.59375 19.921875 59.515625 
L 19.921875 54.6875 
L 34.71875 54.6875 
L 34.71875 47.703125 
L 19.921875 47.703125 
L 19.921875 0 
L 10.890625 0 
L 10.890625 47.703125 
L 2.296875 47.703125 
L 2.296875 54.6875 
L 10.890625 54.6875 
L 10.890625 58.5 
Q 10.890625 67.625 15.140625 71.796875 
Q 19.390625 75.984375 28.609375 75.984375 
z
" id="DejaVuSans-66"/>
      <path d="M 45.40625 27.984375 
Q 45.40625 37.75 41.375 43.109375 
Q 37.359375 48.484375 30.078125 48.484375 
Q 22.859375 48.484375 18.828125 43.109375 
Q 14.796875 37.75 14.796875 27.984375 
Q 14.796875 18.265625 18.828125 12.890625 
Q 22.859375 7.515625 30.078125 7.515625 
Q 37.359375 7.515625 41.375 12.890625 
Q 45.40625 18.265625 45.40625 27.984375 
z
M 54.390625 6.78125 
Q 54.390625 -7.171875 48.1875 -13.984375 
Q 42 -20.796875 29.203125 -20.796875 
Q 24.46875 -20.796875 20.265625 -20.09375 
Q 16.0625 -19.390625 12.109375 -17.921875 
L 12.109375 -9.1875 
Q 16.0625 -11.328125 19.921875 -12.34375 
Q 23.78125 -13.375 27.78125 -13.375 
Q 36.625 -13.375 41.015625 -8.765625 
Q 45.40625 -4.15625 45.40625 5.171875 
L 45.40625 9.625 
Q 42.625 4.78125 38.28125 2.390625 
Q 33.9375 0 27.875 0 
Q 17.828125 0 11.671875 7.65625 
Q 5.515625 15.328125 5.515625 27.984375 
Q 5.515625 40.671875 11.671875 48.328125 
Q 17.828125 56 27.875 56 
Q 33.9375 56 38.28125 53.609375 
Q 42.625 51.21875 45.40625 46.390625 
L 45.40625 54.6875 
L 54.390625 54.6875 
z
" id="DejaVuSans-67"/>
      <path d="M 44.28125 53.078125 
L 44.28125 44.578125 
Q 40.484375 46.53125 36.375 47.5 
Q 32.28125 48.484375 27.875 48.484375 
Q 21.1875 48.484375 17.84375 46.4375 
Q 14.5 44.390625 14.5 40.28125 
Q 14.5 37.15625 16.890625 35.375 
Q 19.28125 33.59375 26.515625 31.984375 
L 29.59375 31.296875 
Q 39.15625 29.25 43.1875 25.515625 
Q 47.21875 21.78125 47.21875 15.09375 
Q 47.21875 7.46875 41.1875 3.015625 
Q 35.15625 -1.421875 24.609375 -1.421875 
Q 20.21875 -1.421875 15.453125 -0.5625 
Q 10.6875 0.296875 5.421875 2 
L 5.421875 11.28125 
Q 10.40625 8.6875 15.234375 7.390625 
Q 20.0625 6.109375 24.8125 6.109375 
Q 31.15625 6.109375 34.5625 8.28125 
Q 37.984375 10.453125 37.984375 14.40625 
Q 37.984375 18.0625 35.515625 20.015625 
Q 33.0625 21.96875 24.703125 23.78125 
L 21.578125 24.515625 
Q 13.234375 26.265625 9.515625 29.90625 
Q 5.8125 33.546875 5.8125 39.890625 
Q 5.8125 47.609375 11.28125 51.796875 
Q 16.75 56 26.8125 56 
Q 31.78125 56 36.171875 55.265625 
Q 40.578125 54.546875 44.28125 53.078125 
z
" id="DejaVuSans-73"/>
     </defs>
     <g style="fill:#262626;" transform="translate(15.558281 316.034246)rotate(-90)scale(0.11 -0.11)">
      <use xlink:href="#DejaVuSans-44"/>
      <use x="77.001953" xlink:href="#DejaVuSans-75"/>
      <use x="140.380859" xlink:href="#DejaVuSans-72"/>
      <use x="181.494141" xlink:href="#DejaVuSans-61"/>
      <use x="242.773438" xlink:href="#DejaVuSans-74"/>
      <use x="281.982422" xlink:href="#DejaVuSans-69"/>
      <use x="309.765625" xlink:href="#DejaVuSans-6f"/>
      <use x="370.947266" xlink:href="#DejaVuSans-6e"/>
      <use x="434.326172" xlink:href="#DejaVuSans-20"/>
      <use x="466.113281" xlink:href="#DejaVuSans-6f"/>
      <use x="527.294922" xlink:href="#DejaVuSans-66"/>
      <use x="562.5" xlink:href="#DejaVuSans-20"/>
      <use x="594.287109" xlink:href="#DejaVuSans-72"/>
      <use x="635.369141" xlink:href="#DejaVuSans-65"/>
      <use x="696.892578" xlink:href="#DejaVuSans-6e"/>
      <use x="760.271484" xlink:href="#DejaVuSans-74"/>
      <use x="799.480469" xlink:href="#DejaVuSans-61"/>
      <use x="860.759766" xlink:href="#DejaVuSans-6c"/>
      <use x="888.542969" xlink:href="#DejaVuSans-20"/>
      <use x="920.330078" xlink:href="#DejaVuSans-28"/>
      <use x="959.34375" xlink:href="#DejaVuSans-20"/>
      <use x="991.130859" xlink:href="#DejaVuSans-6c"/>
      <use x="1018.914062" xlink:href="#DejaVuSans-6f"/>
      <use x="1080.095703" xlink:href="#DejaVuSans-67"/>
      <use x="1143.572266" xlink:href="#DejaVuSans-31"/>
      <use x="1207.195312" xlink:href="#DejaVuSans-30"/>
      <use x="1270.818359" xlink:href="#DejaVuSans-28"/>
      <use x="1309.832031" xlink:href="#DejaVuSans-73"/>
      <use x="1361.931641" xlink:href="#DejaVuSans-29"/>
      <use x="1400.945312" xlink:href="#DejaVuSans-20"/>
      <use x="1432.732422" xlink:href="#DejaVuSans-29"/>
     </g>
    </g>
   </g>
   <g id="PolyCollection_1">
    <defs>
     <path d="M 51.084074 80.851545 
L 51.084074 59.359507 
L 35.208438 48.613488 
L 19.332802 59.359507 
L 19.332802 80.851545 
L 35.208438 91.597564 
z
" id="C0_0_7767cb5bb6"/>
    </defs>
    <g clip-path="url(#p8717901175)">
     <use style="fill:#2b4063;stroke:#2b4063;" x="-0" xlink:href="#C0_0_7767cb5bb6" y="326.174474"/>
    </g>
    <g clip-path="url(#p8717901175)">
     <use style="stroke:#000000;" x="-0" xlink:href="#C0_0_7767cb5bb6" y="261.698359"/>
    </g>
    <g clip-path="url(#p8717901175)">
     <use style="fill:#1e2c44;stroke:#1e2c44;" x="-0" xlink:href="#C0_0_7767cb5bb6" y="197.222245"/>
    </g>
    <g clip-path="url(#p8717901175)">
     <use style="fill:#406094;stroke:#406094;" x="-0" xlink:href="#C0_0_7767cb5bb6" y="132.746131"/>
    </g>
    <g clip-path="url(#p8717901175)">
     <use style="fill:#7593c3;stroke:#7593c3;" x="-0" xlink:href="#C0_0_7767cb5bb6" y="68.270017"/>
    </g>
    <g clip-path="url(#p8717901175)">
     <use style="fill:#c7d3e7;stroke:#c7d3e7;" x="-0" xlink:href="#C0_0_7767cb5bb6" y="3.793902"/>
    </g>
    <g clip-path="url(#p8717901175)">
     <use style="fill:#4c6fa8;stroke:#4c6fa8;" x="31.751271" xlink:href="#C0_0_7767cb5bb6" y="326.174474"/>
    </g>
    <g clip-path="url(#p8717901175)">
     <use style="fill:#1e2d46;stroke:#1e2d46;" x="31.751271" xlink:href="#C0_0_7767cb5bb6" y="261.698359"/>
    </g>
    <g clip-path="url(#p8717901175)">
     <use style="fill:#416297;stroke:#416297;" x="31.751271" xlink:href="#C0_0_7767cb5bb6" y="197.222245"/>
    </g>
    <g clip-path="url(#p8717901175)">
     <use style="fill:#7895c4;stroke:#7895c4;" x="31.751271" xlink:href="#C0_0_7767cb5bb6" y="132.746131"/>
    </g>
    <g clip-path="url(#p8717901175)">
     <use style="fill:#b5c5df;stroke:#b5c5df;" x="31.751271" xlink:href="#C0_0_7767cb5bb6" y="68.270017"/>
    </g>
    <g clip-path="url(#p8717901175)">
     <use style="fill:#ffffff;stroke:#ffffff;" x="31.751271" xlink:href="#C0_0_7767cb5bb6" y="3.793902"/>
    </g>
    <g clip-path="url(#p8717901175)">
     <use style="fill:#6e8dc0;stroke:#6e8dc0;" x="63.502543" xlink:href="#C0_0_7767cb5bb6" y="326.174474"/>
    </g>
    <g clip-path="url(#p8717901175)">
     <use style="fill:#2b4063;stroke:#2b4063;" x="63.502543" xlink:href="#C0_0_7767cb5bb6" y="261.698359"/>
    </g>
    <g clip-path="url(#p8717901175)">
     <use style="fill:#4e71aa;stroke:#4e71aa;" x="63.502543" xlink:href="#C0_0_7767cb5bb6" y="197.222245"/>
    </g>
    <g clip-path="url(#p8717901175)">
     <use style="fill:#8fa7cf;stroke:#8fa7cf;" x="63.502543" xlink:href="#C0_0_7767cb5bb6" y="132.746131"/>
    </g>
    <g clip-path="url(#p8717901175)">
     <use style="fill:#c7d3e7;stroke:#c7d3e7;" x="63.502543" xlink:href="#C0_0_7767cb5bb6" y="68.270017"/>
    </g>
    <g clip-path="url(#p8717901175)">
     <use style="fill:#ffffff;stroke:#ffffff;" x="63.502543" xlink:href="#C0_0_7767cb5bb6" y="3.793902"/>
    </g>
    <g clip-path="url(#p8717901175)">
     <use style="fill:#849fca;stroke:#849fca;" x="95.253814" xlink:href="#C0_0_7767cb5bb6" y="326.174474"/>
    </g>
    <g clip-path="url(#p8717901175)">
     <use style="fill:#324b74;stroke:#324b74;" x="95.253814" xlink:href="#C0_0_7767cb5bb6" y="261.698359"/>
    </g>
    <g clip-path="url(#p8717901175)">
     <use style="fill:#5e81ba;stroke:#5e81ba;" x="95.253814" xlink:href="#C0_0_7767cb5bb6" y="197.222245"/>
    </g>
    <g clip-path="url(#p8717901175)">
     <use style="fill:#99afd3;stroke:#99afd3;" x="95.253814" xlink:href="#C0_0_7767cb5bb6" y="132.746131"/>
    </g>
    <g clip-path="url(#p8717901175)">
     <use style="fill:#ffffff;stroke:#ffffff;" x="95.253814" xlink:href="#C0_0_7767cb5bb6" y="68.270017"/>
    </g>
    <g clip-path="url(#p8717901175)">
     <use style="fill:#ffffff;stroke:#ffffff;" x="95.253814" xlink:href="#C0_0_7767cb5bb6" y="3.793902"/>
    </g>
    <g clip-path="url(#p8717901175)">
     <use style="fill:#7391c3;stroke:#7391c3;" x="127.005085" xlink:href="#C0_0_7767cb5bb6" y="326.174474"/>
    </g>
    <g clip-path="url(#p8717901175)">
     <use style="fill:#2f476d;stroke:#2f476d;" x="127.005085" xlink:href="#C0_0_7767cb5bb6" y="261.698359"/>
    </g>
    <g clip-path="url(#p8717901175)">
     <use style="fill:#6384bb;stroke:#6384bb;" x="127.005085" xlink:href="#C0_0_7767cb5bb6" y="197.222245"/>
    </g>
    <g clip-path="url(#p8717901175)">
     <use style="fill:#a7bad9;stroke:#a7bad9;" x="127.005085" xlink:href="#C0_0_7767cb5bb6" y="132.746131"/>
    </g>
    <g clip-path="url(#p8717901175)">
     <use style="fill:#d8e0ee;stroke:#d8e0ee;" x="127.005085" xlink:href="#C0_0_7767cb5bb6" y="68.270017"/>
    </g>
    <g clip-path="url(#p8717901175)">
     <use style="fill:#ffffff;stroke:#ffffff;" x="127.005085" xlink:href="#C0_0_7767cb5bb6" y="3.793902"/>
    </g>
    <g clip-path="url(#p8717901175)">
     <use style="fill:#a4b8d8;stroke:#a4b8d8;" x="158.756357" xlink:href="#C0_0_7767cb5bb6" y="326.174474"/>
    </g>
    <g clip-path="url(#p8717901175)">
     <use style="fill:#5073ac;stroke:#5073ac;" x="158.756357" xlink:href="#C0_0_7767cb5bb6" y="261.698359"/>
    </g>
    <g clip-path="url(#p8717901175)">
     <use style="fill:#bbc9e1;stroke:#bbc9e1;" x="158.756357" xlink:href="#C0_0_7767cb5bb6" y="197.222245"/>
    </g>
    <g clip-path="url(#p8717901175)">
     <use style="fill:#e0e7f2;stroke:#e0e7f2;" x="158.756357" xlink:href="#C0_0_7767cb5bb6" y="132.746131"/>
    </g>
    <g clip-path="url(#p8717901175)">
     <use style="fill:#ffffff;stroke:#ffffff;" x="158.756357" xlink:href="#C0_0_7767cb5bb6" y="68.270017"/>
    </g>
    <g clip-path="url(#p8717901175)">
     <use style="fill:#ffffff;stroke:#ffffff;" x="158.756357" xlink:href="#C0_0_7767cb5bb6" y="3.793902"/>
    </g>
    <g clip-path="url(#p8717901175)">
     <use style="fill:#a0b5d6;stroke:#a0b5d6;" x="190.507628" xlink:href="#C0_0_7767cb5bb6" y="326.174474"/>
    </g>
    <g clip-path="url(#p8717901175)">
     <use style="fill:#3f5e91;stroke:#3f5e91;" x="190.507628" xlink:href="#C0_0_7767cb5bb6" y="261.698359"/>
    </g>
    <g clip-path="url(#p8717901175)">
     <use style="fill:#7e9ac8;stroke:#7e9ac8;" x="190.507628" xlink:href="#C0_0_7767cb5bb6" y="197.222245"/>
    </g>
    <g clip-path="url(#p8717901175)">
     <use style="fill:#bdcce3;stroke:#bdcce3;" x="190.507628" xlink:href="#C0_0_7767cb5bb6" y="132.746131"/>
    </g>
    <g clip-path="url(#p8717901175)">
     <use style="fill:#ffffff;stroke:#ffffff;" x="190.507628" xlink:href="#C0_0_7767cb5bb6" y="68.270017"/>
    </g>
    <g clip-path="url(#p8717901175)">
     <use style="fill:#ffffff;stroke:#ffffff;" x="190.507628" xlink:href="#C0_0_7767cb5bb6" y="3.793902"/>
    </g>
    <g clip-path="url(#p8717901175)">
     <use style="fill:#ffffff;stroke:#ffffff;" x="222.2589" xlink:href="#C0_0_7767cb5bb6" y="326.174474"/>
    </g>
    <g clip-path="url(#p8717901175)">
     <use style="fill:#ffffff;stroke:#ffffff;" x="222.2589" xlink:href="#C0_0_7767cb5bb6" y="261.698359"/>
    </g>
    <g clip-path="url(#p8717901175)">
     <use style="fill:#ffffff;stroke:#ffffff;" x="222.2589" xlink:href="#C0_0_7767cb5bb6" y="197.222245"/>
    </g>
    <g clip-path="url(#p8717901175)">
     <use style="fill:#ffffff;stroke:#ffffff;" x="222.2589" xlink:href="#C0_0_7767cb5bb6" y="132.746131"/>
    </g>
    <g clip-path="url(#p8717901175)">
     <use style="fill:#ffffff;stroke:#ffffff;" x="222.2589" xlink:href="#C0_0_7767cb5bb6" y="68.270017"/>
    </g>
    <g clip-path="url(#p8717901175)">
     <use style="fill:#ffffff;stroke:#ffffff;" x="222.2589" xlink:href="#C0_0_7767cb5bb6" y="3.793902"/>
    </g>
    <g clip-path="url(#p8717901175)">
     <use style="fill:#abbddb;stroke:#abbddb;" x="254.010171" xlink:href="#C0_0_7767cb5bb6" y="326.174474"/>
    </g>
    <g clip-path="url(#p8717901175)">
     <use style="fill:#426398;stroke:#426398;" x="254.010171" xlink:href="#C0_0_7767cb5bb6" y="261.698359"/>
    </g>
    <g clip-path="url(#p8717901175)">
     <use style="fill:#819cc9;stroke:#819cc9;" x="254.010171" xlink:href="#C0_0_7767cb5bb6" y="197.222245"/>
    </g>
    <g clip-path="url(#p8717901175)">
     <use style="fill:#c0cee4;stroke:#c0cee4;" x="254.010171" xlink:href="#C0_0_7767cb5bb6" y="132.746131"/>
    </g>
    <g clip-path="url(#p8717901175)">
     <use style="fill:#ebf0f7;stroke:#ebf0f7;" x="254.010171" xlink:href="#C0_0_7767cb5bb6" y="68.270017"/>
    </g>
    <g clip-path="url(#p8717901175)">
     <use style="fill:#ffffff;stroke:#ffffff;" x="254.010171" xlink:href="#C0_0_7767cb5bb6" y="3.793902"/>
    </g>
    <g clip-path="url(#p8717901175)">
     <use style="fill:#9ab0d4;stroke:#9ab0d4;" x="285.761443" xlink:href="#C0_0_7767cb5bb6" y="326.174474"/>
    </g>
    <g clip-path="url(#p8717901175)">
     <use style="fill:#3e5d90;stroke:#3e5d90;" x="285.761443" xlink:href="#C0_0_7767cb5bb6" y="261.698359"/>
    </g>
    <g clip-path="url(#p8717901175)">
     <use style="fill:#8fa7cf;stroke:#8fa7cf;" x="285.761443" xlink:href="#C0_0_7767cb5bb6" y="197.222245"/>
    </g>
    <g clip-path="url(#p8717901175)">
     <use style="fill:#cbd6e9;stroke:#cbd6e9;" x="285.761443" xlink:href="#C0_0_7767cb5bb6" y="132.746131"/>
    </g>
    <g clip-path="url(#p8717901175)">
     <use style="fill:#ebf0f7;stroke:#ebf0f7;" x="285.761443" xlink:href="#C0_0_7767cb5bb6" y="68.270017"/>
    </g>
    <g clip-path="url(#p8717901175)">
     <use style="fill:#ffffff;stroke:#ffffff;" x="285.761443" xlink:href="#C0_0_7767cb5bb6" y="3.793902"/>
    </g>
    <g clip-path="url(#p8717901175)">
     <use style="fill:#8aa3cc;stroke:#8aa3cc;" x="317.512714" xlink:href="#C0_0_7767cb5bb6" y="326.174474"/>
    </g>
    <g clip-path="url(#p8717901175)">
     <use style="fill:#44659c;stroke:#44659c;" x="317.512714" xlink:href="#C0_0_7767cb5bb6" y="261.698359"/>
    </g>
    <g clip-path="url(#p8717901175)">
     <use style="fill:#a4b8d8;stroke:#a4b8d8;" x="317.512714" xlink:href="#C0_0_7767cb5bb6" y="197.222245"/>
    </g>
    <g clip-path="url(#p8717901175)">
     <use style="fill:#cbd6e9;stroke:#cbd6e9;" x="317.512714" xlink:href="#C0_0_7767cb5bb6" y="132.746131"/>
    </g>
    <g clip-path="url(#p8717901175)">
     <use style="fill:#ebf0f7;stroke:#ebf0f7;" x="317.512714" xlink:href="#C0_0_7767cb5bb6" y="68.270017"/>
    </g>
    <g clip-path="url(#p8717901175)">
     <use style="fill:#ffffff;stroke:#ffffff;" x="317.512714" xlink:href="#C0_0_7767cb5bb6" y="3.793902"/>
    </g>
    <g clip-path="url(#p8717901175)">
     <use style="fill:#111927;stroke:#111927;" x="15.875635" xlink:href="#C0_0_7767cb5bb6" y="293.936417"/>
    </g>
    <g clip-path="url(#p8717901175)">
     <use style="fill:#0d131d;stroke:#0d131d;" x="15.875635" xlink:href="#C0_0_7767cb5bb6" y="229.460302"/>
    </g>
    <g clip-path="url(#p8717901175)">
     <use style="fill:#44669e;stroke:#44669e;" x="15.875635" xlink:href="#C0_0_7767cb5bb6" y="164.984188"/>
    </g>
    <g clip-path="url(#p8717901175)">
     <use style="fill:#6587bd;stroke:#6587bd;" x="15.875635" xlink:href="#C0_0_7767cb5bb6" y="100.508074"/>
    </g>
    <g clip-path="url(#p8717901175)">
     <use style="fill:#a3b7d7;stroke:#a3b7d7;" x="15.875635" xlink:href="#C0_0_7767cb5bb6" y="36.031959"/>
    </g>
    <g clip-path="url(#p8717901175)">
     <use style="fill:#2d4469;stroke:#2d4469;" x="47.626907" xlink:href="#C0_0_7767cb5bb6" y="293.936417"/>
    </g>
    <g clip-path="url(#p8717901175)">
     <use style="fill:#30476e;stroke:#30476e;" x="47.626907" xlink:href="#C0_0_7767cb5bb6" y="229.460302"/>
    </g>
    <g clip-path="url(#p8717901175)">
     <use style="fill:#8aa3cc;stroke:#8aa3cc;" x="47.626907" xlink:href="#C0_0_7767cb5bb6" y="164.984188"/>
    </g>
    <g clip-path="url(#p8717901175)">
     <use style="fill:#b4c4de;stroke:#b4c4de;" x="47.626907" xlink:href="#C0_0_7767cb5bb6" y="100.508074"/>
    </g>
    <g clip-path="url(#p8717901175)">
     <use style="fill:#ebf0f7;stroke:#ebf0f7;" x="47.626907" xlink:href="#C0_0_7767cb5bb6" y="36.031959"/>
    </g>
    <g clip-path="url(#p8717901175)">
     <use style="fill:#395583;stroke:#395583;" x="79.378178" xlink:href="#C0_0_7767cb5bb6" y="293.936417"/>
    </g>
    <g clip-path="url(#p8717901175)">
     <use style="fill:#344f7a;stroke:#344f7a;" x="79.378178" xlink:href="#C0_0_7767cb5bb6" y="229.460302"/>
    </g>
    <g clip-path="url(#p8717901175)">
     <use style="fill:#93abd1;stroke:#93abd1;" x="79.378178" xlink:href="#C0_0_7767cb5bb6" y="164.984188"/>
    </g>
    <g clip-path="url(#p8717901175)">
     <use style="fill:#bdcce3;stroke:#bdcce3;" x="79.378178" xlink:href="#C0_0_7767cb5bb6" y="100.508074"/>
    </g>
    <g clip-path="url(#p8717901175)">
     <use style="fill:#e0e7f2;stroke:#e0e7f2;" x="79.378178" xlink:href="#C0_0_7767cb5bb6" y="36.031959"/>
    </g>
    <g clip-path="url(#p8717901175)">
     <use style="fill:#3d5b8d;stroke:#3d5b8d;" x="111.12945" xlink:href="#C0_0_7767cb5bb6" y="293.936417"/>
    </g>
    <g clip-path="url(#p8717901175)">
     <use style="fill:#3c5a8a;stroke:#3c5a8a;" x="111.12945" xlink:href="#C0_0_7767cb5bb6" y="229.460302"/>
    </g>
    <g clip-path="url(#p8717901175)">
     <use style="fill:#a8bbda;stroke:#a8bbda;" x="111.12945" xlink:href="#C0_0_7767cb5bb6" y="164.984188"/>
    </g>
    <g clip-path="url(#p8717901175)">
     <use style="fill:#bbc9e1;stroke:#bbc9e1;" x="111.12945" xlink:href="#C0_0_7767cb5bb6" y="100.508074"/>
    </g>
    <g clip-path="url(#p8717901175)">
     <use style="fill:#e0e7f2;stroke:#e0e7f2;" x="111.12945" xlink:href="#C0_0_7767cb5bb6" y="36.031959"/>
    </g>
    <g clip-path="url(#p8717901175)">
     <use style="fill:#36517e;stroke:#36517e;" x="142.880721" xlink:href="#C0_0_7767cb5bb6" y="293.936417"/>
    </g>
    <g clip-path="url(#p8717901175)">
     <use style="fill:#3c5a8c;stroke:#3c5a8c;" x="142.880721" xlink:href="#C0_0_7767cb5bb6" y="229.460302"/>
    </g>
    <g clip-path="url(#p8717901175)">
     <use style="fill:#9ab0d4;stroke:#9ab0d4;" x="142.880721" xlink:href="#C0_0_7767cb5bb6" y="164.984188"/>
    </g>
    <g clip-path="url(#p8717901175)">
     <use style="fill:#e0e7f2;stroke:#e0e7f2;" x="142.880721" xlink:href="#C0_0_7767cb5bb6" y="100.508074"/>
    </g>
    <g clip-path="url(#p8717901175)">
     <use style="fill:#ffffff;stroke:#ffffff;" x="142.880721" xlink:href="#C0_0_7767cb5bb6" y="36.031959"/>
    </g>
    <g clip-path="url(#p8717901175)">
     <use style="fill:#5275ae;stroke:#5275ae;" x="174.631993" xlink:href="#C0_0_7767cb5bb6" y="293.936417"/>
    </g>
    <g clip-path="url(#p8717901175)">
     <use style="fill:#5073ac;stroke:#5073ac;" x="174.631993" xlink:href="#C0_0_7767cb5bb6" y="229.460302"/>
    </g>
    <g clip-path="url(#p8717901175)">
     <use style="fill:#c3d0e5;stroke:#c3d0e5;" x="174.631993" xlink:href="#C0_0_7767cb5bb6" y="164.984188"/>
    </g>
    <g clip-path="url(#p8717901175)">
     <use style="fill:#e0e7f2;stroke:#e0e7f2;" x="174.631993" xlink:href="#C0_0_7767cb5bb6" y="100.508074"/>
    </g>
    <g clip-path="url(#p8717901175)">
     <use style="fill:#ffffff;stroke:#ffffff;" x="174.631993" xlink:href="#C0_0_7767cb5bb6" y="36.031959"/>
    </g>
    <g clip-path="url(#p8717901175)">
     <use style="fill:#6b8bbf;stroke:#6b8bbf;" x="206.383264" xlink:href="#C0_0_7767cb5bb6" y="293.936417"/>
    </g>
    <g clip-path="url(#p8717901175)">
     <use style="fill:#6788bd;stroke:#6788bd;" x="206.383264" xlink:href="#C0_0_7767cb5bb6" y="229.460302"/>
    </g>
    <g clip-path="url(#p8717901175)">
     <use style="fill:#cbd6e9;stroke:#cbd6e9;" x="206.383264" xlink:href="#C0_0_7767cb5bb6" y="164.984188"/>
    </g>
    <g clip-path="url(#p8717901175)">
     <use style="fill:#ffffff;stroke:#ffffff;" x="206.383264" xlink:href="#C0_0_7767cb5bb6" y="100.508074"/>
    </g>
    <g clip-path="url(#p8717901175)">
     <use style="fill:#ffffff;stroke:#ffffff;" x="206.383264" xlink:href="#C0_0_7767cb5bb6" y="36.031959"/>
    </g>
    <g clip-path="url(#p8717901175)">
     <use style="fill:#6e8dc0;stroke:#6e8dc0;" x="238.134535" xlink:href="#C0_0_7767cb5bb6" y="293.936417"/>
    </g>
    <g clip-path="url(#p8717901175)">
     <use style="fill:#6c8cc0;stroke:#6c8cc0;" x="238.134535" xlink:href="#C0_0_7767cb5bb6" y="229.460302"/>
    </g>
    <g clip-path="url(#p8717901175)">
     <use style="fill:#cbd6e9;stroke:#cbd6e9;" x="238.134535" xlink:href="#C0_0_7767cb5bb6" y="164.984188"/>
    </g>
    <g clip-path="url(#p8717901175)">
     <use style="fill:#ffffff;stroke:#ffffff;" x="238.134535" xlink:href="#C0_0_7767cb5bb6" y="100.508074"/>
    </g>
    <g clip-path="url(#p8717901175)">
     <use style="fill:#ffffff;stroke:#ffffff;" x="238.134535" xlink:href="#C0_0_7767cb5bb6" y="36.031959"/>
    </g>
    <g clip-path="url(#p8717901175)">
     <use style="fill:#4d70a9;stroke:#4d70a9;" x="269.885807" xlink:href="#C0_0_7767cb5bb6" y="293.936417"/>
    </g>
    <g clip-path="url(#p8717901175)">
     <use style="fill:#4c6fa8;stroke:#4c6fa8;" x="269.885807" xlink:href="#C0_0_7767cb5bb6" y="229.460302"/>
    </g>
    <g clip-path="url(#p8717901175)">
     <use style="fill:#bdcce3;stroke:#bdcce3;" x="269.885807" xlink:href="#C0_0_7767cb5bb6" y="164.984188"/>
    </g>
    <g clip-path="url(#p8717901175)">
     <use style="fill:#ffffff;stroke:#ffffff;" x="269.885807" xlink:href="#C0_0_7767cb5bb6" y="100.508074"/>
    </g>
    <g clip-path="url(#p8717901175)">
     <use style="fill:#ffffff;stroke:#ffffff;" x="269.885807" xlink:href="#C0_0_7767cb5bb6" y="36.031959"/>
    </g>
    <g clip-path="url(#p8717901175)">
     <use style="fill:#416195;stroke:#416195;" x="301.637078" xlink:href="#C0_0_7767cb5bb6" y="293.936417"/>
    </g>
    <g clip-path="url(#p8717901175)">
     <use style="fill:#486ba4;stroke:#486ba4;" x="301.637078" xlink:href="#C0_0_7767cb5bb6" y="229.460302"/>
    </g>
    <g clip-path="url(#p8717901175)">
     <use style="fill:#bbc9e1;stroke:#bbc9e1;" x="301.637078" xlink:href="#C0_0_7767cb5bb6" y="164.984188"/>
    </g>
    <g clip-path="url(#p8717901175)">
     <use style="fill:#ebf0f7;stroke:#ebf0f7;" x="301.637078" xlink:href="#C0_0_7767cb5bb6" y="100.508074"/>
    </g>
    <g clip-path="url(#p8717901175)">
     <use style="fill:#e0e7f2;stroke:#e0e7f2;" x="301.637078" xlink:href="#C0_0_7767cb5bb6" y="36.031959"/>
    </g>
   </g>
   <g id="patch_3">
    <path d="M 35.208438 396.28 
L 35.208438 73.899429 
" style="fill:none;stroke:#262626;stroke-linecap:square;stroke-linejoin:miter;stroke-width:1.25;"/>
   </g>
   <g id="patch_4">
    <path d="M 35.208438 396.28 
L 352.721152 396.28 
" style="fill:none;stroke:#262626;stroke-linecap:square;stroke-linejoin:miter;stroke-width:1.25;"/>
   </g>
   <g id="legend_1">
    <g id="line2d_16"/>
    <g id="line2d_17"/>
    <g id="text_18">
     <!-- pearsonr = -0.055; p = 9e-305 -->
     <defs>
      <path d="M 10.59375 45.40625 
L 73.1875 45.40625 
L 73.1875 37.203125 
L 10.59375 37.203125 
z
M 10.59375 25.484375 
L 73.1875 25.484375 
L 73.1875 17.1875 
L 10.59375 17.1875 
z
" id="DejaVuSans-3d"/>
      <path d="M 4.890625 31.390625 
L 31.203125 31.390625 
L 31.203125 23.390625 
L 4.890625 23.390625 
z
" id="DejaVuSans-2d"/>
      <path d="M 11.71875 51.703125 
L 22.015625 51.703125 
L 22.015625 39.3125 
L 11.71875 39.3125 
z
M 11.71875 12.40625 
L 22.015625 12.40625 
L 22.015625 4 
L 14.015625 -11.625 
L 7.71875 -11.625 
L 11.71875 4 
z
" id="DejaVuSans-3b"/>
      <path d="M 10.984375 1.515625 
L 10.984375 10.5 
Q 14.703125 8.734375 18.5 7.8125 
Q 22.3125 6.890625 25.984375 6.890625 
Q 35.75 6.890625 40.890625 13.453125 
Q 46.046875 20.015625 46.78125 33.40625 
Q 43.953125 29.203125 39.59375 26.953125 
Q 35.25 24.703125 29.984375 24.703125 
Q 19.046875 24.703125 12.671875 31.3125 
Q 6.296875 37.9375 6.296875 49.421875 
Q 6.296875 60.640625 12.9375 67.421875 
Q 19.578125 74.21875 30.609375 74.21875 
Q 43.265625 74.21875 49.921875 64.515625 
Q 56.59375 54.828125 56.59375 36.375 
Q 56.59375 19.140625 48.40625 8.859375 
Q 40.234375 -1.421875 26.421875 -1.421875 
Q 22.703125 -1.421875 18.890625 -0.6875 
Q 15.09375 0.046875 10.984375 1.515625 
z
M 30.609375 32.421875 
Q 37.25 32.421875 41.125 36.953125 
Q 45.015625 41.5 45.015625 49.421875 
Q 45.015625 57.28125 41.125 61.84375 
Q 37.25 66.40625 30.609375 66.40625 
Q 23.96875 66.40625 20.09375 61.84375 
Q 16.21875 57.28125 16.21875 49.421875 
Q 16.21875 41.5 20.09375 36.953125 
Q 23.96875 32.421875 30.609375 32.421875 
z
" id="DejaVuSans-39"/>
     </defs>
     <g style="fill:#262626;" transform="translate(189.389902 90.497866)scale(0.1 -0.1)">
      <use xlink:href="#DejaVuSans-70"/>
      <use x="63.476562" xlink:href="#DejaVuSans-65"/>
      <use x="125" xlink:href="#DejaVuSans-61"/>
      <use x="186.279297" xlink:href="#DejaVuSans-72"/>
      <use x="227.392578" xlink:href="#DejaVuSans-73"/>
      <use x="279.492188" xlink:href="#DejaVuSans-6f"/>
      <use x="340.673828" xlink:href="#DejaVuSans-6e"/>
      <use x="404.052734" xlink:href="#DejaVuSans-72"/>
      <use x="445.166016" xlink:href="#DejaVuSans-20"/>
      <use x="476.953125" xlink:href="#DejaVuSans-3d"/>
      <use x="560.742188" xlink:href="#DejaVuSans-20"/>
      <use x="592.529297" xlink:href="#DejaVuSans-2d"/>
      <use x="628.613281" xlink:href="#DejaVuSans-30"/>
      <use x="692.236328" xlink:href="#DejaVuSans-2e"/>
      <use x="724.023438" xlink:href="#DejaVuSans-30"/>
      <use x="787.646484" xlink:href="#DejaVuSans-35"/>
      <use x="851.269531" xlink:href="#DejaVuSans-35"/>
      <use x="914.892578" xlink:href="#DejaVuSans-3b"/>
      <use x="948.583984" xlink:href="#DejaVuSans-20"/>
      <use x="980.371094" xlink:href="#DejaVuSans-70"/>
      <use x="1043.847656" xlink:href="#DejaVuSans-20"/>
      <use x="1075.634766" xlink:href="#DejaVuSans-3d"/>
      <use x="1159.423828" xlink:href="#DejaVuSans-20"/>
      <use x="1191.210938" xlink:href="#DejaVuSans-39"/>
      <use x="1254.833984" xlink:href="#DejaVuSans-65"/>
      <use x="1316.357422" xlink:href="#DejaVuSans-2d"/>
      <use x="1352.441406" xlink:href="#DejaVuSans-33"/>
      <use x="1416.064453" xlink:href="#DejaVuSans-30"/>
      <use x="1479.6875" xlink:href="#DejaVuSans-35"/>
     </g>
    </g>
   </g>
  </g>
  <g id="axes_2">
   <g id="patch_5">
    <path d="M 35.208438 62.782857 
L 352.721152 62.782857 
L 352.721152 7.2 
L 35.208438 7.2 
z
" style="fill:#ffffff;"/>
   </g>
   <g id="matplotlib.axis_3">
    <g id="xtick_10">
     <g id="line2d_18"/>
    </g>
    <g id="xtick_11">
     <g id="line2d_19"/>
    </g>
    <g id="xtick_12">
     <g id="line2d_20"/>
    </g>
    <g id="xtick_13">
     <g id="line2d_21"/>
    </g>
    <g id="xtick_14">
     <g id="line2d_22"/>
    </g>
    <g id="xtick_15">
     <g id="line2d_23"/>
    </g>
    <g id="xtick_16">
     <g id="line2d_24"/>
    </g>
    <g id="xtick_17">
     <g id="line2d_25"/>
    </g>
    <g id="xtick_18">
     <g id="line2d_26"/>
    </g>
   </g>
   <g id="matplotlib.axis_4">
    <g id="ytick_7"/>
    <g id="ytick_8"/>
   </g>
   <g id="patch_6">
    <path clip-path="url(#p0cd7d6dcd7)" d="M 35.208438 62.782857 
L 41.558692 62.782857 
L 41.558692 9.846803 
L 35.208438 9.846803 
z
" style="fill:#4c72b0;opacity:0.4;"/>
   </g>
   <g id="patch_7">
    <path clip-path="url(#p0cd7d6dcd7)" d="M 41.558692 62.782857 
L 47.908946 62.782857 
L 47.908946 60.512996 
L 41.558692 60.512996 
z
" style="fill:#4c72b0;opacity:0.4;"/>
   </g>
   <g id="patch_8">
    <path clip-path="url(#p0cd7d6dcd7)" d="M 47.908946 62.782857 
L 54.259201 62.782857 
L 54.259201 60.552024 
L 47.908946 60.552024 
z
" style="fill:#4c72b0;opacity:0.4;"/>
   </g>
   <g id="patch_9">
    <path clip-path="url(#p0cd7d6dcd7)" d="M 54.259201 62.782857 
L 60.609455 62.782857 
L 60.609455 62.782857 
L 54.259201 62.782857 
z
" style="fill:#4c72b0;opacity:0.4;"/>
   </g>
   <g id="patch_10">
    <path clip-path="url(#p0cd7d6dcd7)" d="M 60.609455 62.782857 
L 66.959709 62.782857 
L 66.959709 60.390831 
L 60.609455 60.390831 
z
" style="fill:#4c72b0;opacity:0.4;"/>
   </g>
   <g id="patch_11">
    <path clip-path="url(#p0cd7d6dcd7)" d="M 66.959709 62.782857 
L 73.309963 62.782857 
L 73.309963 61.608451 
L 66.959709 61.608451 
z
" style="fill:#4c72b0;opacity:0.4;"/>
   </g>
   <g id="patch_12">
    <path clip-path="url(#p0cd7d6dcd7)" d="M 73.309963 62.782857 
L 79.660218 62.782857 
L 79.660218 62.279241 
L 73.309963 62.279241 
z
" style="fill:#4c72b0;opacity:0.4;"/>
   </g>
   <g id="patch_13">
    <path clip-path="url(#p0cd7d6dcd7)" d="M 79.660218 62.782857 
L 86.010472 62.782857 
L 86.010472 61.979135 
L 79.660218 61.979135 
z
" style="fill:#4c72b0;opacity:0.4;"/>
   </g>
   <g id="patch_14">
    <path clip-path="url(#p0cd7d6dcd7)" d="M 86.010472 62.782857 
L 92.360726 62.782857 
L 92.360726 62.424135 
L 86.010472 62.424135 
z
" style="fill:#4c72b0;opacity:0.4;"/>
   </g>
   <g id="patch_15">
    <path clip-path="url(#p0cd7d6dcd7)" d="M 92.360726 62.782857 
L 98.710981 62.782857 
L 98.710981 62.302119 
L 92.360726 62.302119 
z
" style="fill:#4c72b0;opacity:0.4;"/>
   </g>
   <g id="patch_16">
    <path clip-path="url(#p0cd7d6dcd7)" d="M 98.710981 62.782857 
L 105.061235 62.782857 
L 105.061235 62.33352 
L 98.710981 62.33352 
z
" style="fill:#4c72b0;opacity:0.4;"/>
   </g>
   <g id="patch_17">
    <path clip-path="url(#p0cd7d6dcd7)" d="M 105.061235 62.782857 
L 111.411489 62.782857 
L 111.411489 62.385856 
L 105.061235 62.385856 
z
" style="fill:#4c72b0;opacity:0.4;"/>
   </g>
   <g id="patch_18">
    <path clip-path="url(#p0cd7d6dcd7)" d="M 111.411489 62.782857 
L 117.761743 62.782857 
L 117.761743 62.561404 
L 111.411489 62.561404 
z
" style="fill:#4c72b0;opacity:0.4;"/>
   </g>
   <g id="patch_19">
    <path clip-path="url(#p0cd7d6dcd7)" d="M 117.761743 62.782857 
L 124.111998 62.782857 
L 124.111998 62.280138 
L 117.761743 62.280138 
z
" style="fill:#4c72b0;opacity:0.4;"/>
   </g>
   <g id="patch_20">
    <path clip-path="url(#p0cd7d6dcd7)" d="M 124.111998 62.782857 
L 130.462252 62.782857 
L 130.462252 62.593403 
L 124.111998 62.593403 
z
" style="fill:#4c72b0;opacity:0.4;"/>
   </g>
   <g id="patch_21">
    <path clip-path="url(#p0cd7d6dcd7)" d="M 130.462252 62.782857 
L 136.812506 62.782857 
L 136.812506 62.301671 
L 130.462252 62.301671 
z
" style="fill:#4c72b0;opacity:0.4;"/>
   </g>
   <g id="patch_22">
    <path clip-path="url(#p0cd7d6dcd7)" d="M 136.812506 62.782857 
L 143.16276 62.782857 
L 143.16276 62.782857 
L 136.812506 62.782857 
z
" style="fill:#4c72b0;opacity:0.4;"/>
   </g>
   <g id="patch_23">
    <path clip-path="url(#p0cd7d6dcd7)" d="M 143.16276 62.782857 
L 149.513015 62.782857 
L 149.513015 62.605664 
L 143.16276 62.605664 
z
" style="fill:#4c72b0;opacity:0.4;"/>
   </g>
   <g id="patch_24">
    <path clip-path="url(#p0cd7d6dcd7)" d="M 149.513015 62.782857 
L 155.863269 62.782857 
L 155.863269 62.32739 
L 149.513015 62.32739 
z
" style="fill:#4c72b0;opacity:0.4;"/>
   </g>
   <g id="patch_25">
    <path clip-path="url(#p0cd7d6dcd7)" d="M 155.863269 62.782857 
L 162.213523 62.782857 
L 162.213523 62.782857 
L 155.863269 62.782857 
z
" style="fill:#4c72b0;opacity:0.4;"/>
   </g>
   <g id="patch_26">
    <path clip-path="url(#p0cd7d6dcd7)" d="M 162.213523 62.782857 
L 168.563778 62.782857 
L 168.563778 62.528208 
L 162.213523 62.528208 
z
" style="fill:#4c72b0;opacity:0.4;"/>
   </g>
   <g id="patch_27">
    <path clip-path="url(#p0cd7d6dcd7)" d="M 168.563778 62.782857 
L 174.914032 62.782857 
L 174.914032 61.916333 
L 168.563778 61.916333 
z
" style="fill:#4c72b0;opacity:0.4;"/>
   </g>
   <g id="patch_28">
    <path clip-path="url(#p0cd7d6dcd7)" d="M 174.914032 62.782857 
L 181.264286 62.782857 
L 181.264286 62.656804 
L 174.914032 62.656804 
z
" style="fill:#4c72b0;opacity:0.4;"/>
   </g>
   <g id="patch_29">
    <path clip-path="url(#p0cd7d6dcd7)" d="M 181.264286 62.782857 
L 187.61454 62.782857 
L 187.61454 62.717961 
L 181.264286 62.717961 
z
" style="fill:#4c72b0;opacity:0.4;"/>
   </g>
   <g id="patch_30">
    <path clip-path="url(#p0cd7d6dcd7)" d="M 187.61454 62.782857 
L 193.964795 62.782857 
L 193.964795 62.782857 
L 187.61454 62.782857 
z
" style="fill:#4c72b0;opacity:0.4;"/>
   </g>
   <g id="patch_31">
    <path clip-path="url(#p0cd7d6dcd7)" d="M 193.964795 62.782857 
L 200.315049 62.782857 
L 200.315049 62.782857 
L 193.964795 62.782857 
z
" style="fill:#4c72b0;opacity:0.4;"/>
   </g>
   <g id="patch_32">
    <path clip-path="url(#p0cd7d6dcd7)" d="M 200.315049 62.782857 
L 206.665303 62.782857 
L 206.665303 62.782857 
L 200.315049 62.782857 
z
" style="fill:#4c72b0;opacity:0.4;"/>
   </g>
   <g id="patch_33">
    <path clip-path="url(#p0cd7d6dcd7)" d="M 206.665303 62.782857 
L 213.015557 62.782857 
L 213.015557 62.782857 
L 206.665303 62.782857 
z
" style="fill:#4c72b0;opacity:0.4;"/>
   </g>
   <g id="patch_34">
    <path clip-path="url(#p0cd7d6dcd7)" d="M 213.015557 62.782857 
L 219.365812 62.782857 
L 219.365812 62.782857 
L 213.015557 62.782857 
z
" style="fill:#4c72b0;opacity:0.4;"/>
   </g>
   <g id="patch_35">
    <path clip-path="url(#p0cd7d6dcd7)" d="M 219.365812 62.782857 
L 225.716066 62.782857 
L 225.716066 62.440285 
L 219.365812 62.440285 
z
" style="fill:#4c72b0;opacity:0.4;"/>
   </g>
   <g id="patch_36">
    <path clip-path="url(#p0cd7d6dcd7)" d="M 225.716066 62.782857 
L 232.06632 62.782857 
L 232.06632 62.782857 
L 225.716066 62.782857 
z
" style="fill:#4c72b0;opacity:0.4;"/>
   </g>
   <g id="patch_37">
    <path clip-path="url(#p0cd7d6dcd7)" d="M 232.06632 62.782857 
L 238.416575 62.782857 
L 238.416575 62.782857 
L 232.06632 62.782857 
z
" style="fill:#4c72b0;opacity:0.4;"/>
   </g>
   <g id="patch_38">
    <path clip-path="url(#p0cd7d6dcd7)" d="M 238.416575 62.782857 
L 244.766829 62.782857 
L 244.766829 62.68342 
L 238.416575 62.68342 
z
" style="fill:#4c72b0;opacity:0.4;"/>
   </g>
   <g id="patch_39">
    <path clip-path="url(#p0cd7d6dcd7)" d="M 244.766829 62.782857 
L 251.117083 62.782857 
L 251.117083 62.782857 
L 244.766829 62.782857 
z
" style="fill:#4c72b0;opacity:0.4;"/>
   </g>
   <g id="patch_40">
    <path clip-path="url(#p0cd7d6dcd7)" d="M 251.117083 62.782857 
L 257.467337 62.782857 
L 257.467337 62.782857 
L 251.117083 62.782857 
z
" style="fill:#4c72b0;opacity:0.4;"/>
   </g>
   <g id="patch_41">
    <path clip-path="url(#p0cd7d6dcd7)" d="M 257.467337 62.782857 
L 263.817592 62.782857 
L 263.817592 62.782857 
L 257.467337 62.782857 
z
" style="fill:#4c72b0;opacity:0.4;"/>
   </g>
   <g id="patch_42">
    <path clip-path="url(#p0cd7d6dcd7)" d="M 263.817592 62.782857 
L 270.167846 62.782857 
L 270.167846 62.782857 
L 263.817592 62.782857 
z
" style="fill:#4c72b0;opacity:0.4;"/>
   </g>
   <g id="patch_43">
    <path clip-path="url(#p0cd7d6dcd7)" d="M 270.167846 62.782857 
L 276.5181 62.782857 
L 276.5181 62.782857 
L 270.167846 62.782857 
z
" style="fill:#4c72b0;opacity:0.4;"/>
   </g>
   <g id="patch_44">
    <path clip-path="url(#p0cd7d6dcd7)" d="M 276.5181 62.782857 
L 282.868354 62.782857 
L 282.868354 62.678934 
L 276.5181 62.678934 
z
" style="fill:#4c72b0;opacity:0.4;"/>
   </g>
   <g id="patch_45">
    <path clip-path="url(#p0cd7d6dcd7)" d="M 282.868354 62.782857 
L 289.218609 62.782857 
L 289.218609 62.782857 
L 282.868354 62.782857 
z
" style="fill:#4c72b0;opacity:0.4;"/>
   </g>
   <g id="patch_46">
    <path clip-path="url(#p0cd7d6dcd7)" d="M 289.218609 62.782857 
L 295.568863 62.782857 
L 295.568863 62.782857 
L 289.218609 62.782857 
z
" style="fill:#4c72b0;opacity:0.4;"/>
   </g>
   <g id="patch_47">
    <path clip-path="url(#p0cd7d6dcd7)" d="M 295.568863 62.782857 
L 301.919117 62.782857 
L 301.919117 62.468097 
L 295.568863 62.468097 
z
" style="fill:#4c72b0;opacity:0.4;"/>
   </g>
   <g id="patch_48">
    <path clip-path="url(#p0cd7d6dcd7)" d="M 301.919117 62.782857 
L 308.269372 62.782857 
L 308.269372 62.782857 
L 301.919117 62.782857 
z
" style="fill:#4c72b0;opacity:0.4;"/>
   </g>
   <g id="patch_49">
    <path clip-path="url(#p0cd7d6dcd7)" d="M 308.269372 62.782857 
L 314.619626 62.782857 
L 314.619626 62.782857 
L 308.269372 62.782857 
z
" style="fill:#4c72b0;opacity:0.4;"/>
   </g>
   <g id="patch_50">
    <path clip-path="url(#p0cd7d6dcd7)" d="M 314.619626 62.782857 
L 320.96988 62.782857 
L 320.96988 62.782857 
L 314.619626 62.782857 
z
" style="fill:#4c72b0;opacity:0.4;"/>
   </g>
   <g id="patch_51">
    <path clip-path="url(#p0cd7d6dcd7)" d="M 320.96988 62.782857 
L 327.320134 62.782857 
L 327.320134 62.782857 
L 320.96988 62.782857 
z
" style="fill:#4c72b0;opacity:0.4;"/>
   </g>
   <g id="patch_52">
    <path clip-path="url(#p0cd7d6dcd7)" d="M 327.320134 62.782857 
L 333.670389 62.782857 
L 333.670389 62.323502 
L 327.320134 62.323502 
z
" style="fill:#4c72b0;opacity:0.4;"/>
   </g>
   <g id="patch_53">
    <path clip-path="url(#p0cd7d6dcd7)" d="M 333.670389 62.782857 
L 340.020643 62.782857 
L 340.020643 62.782857 
L 333.670389 62.782857 
z
" style="fill:#4c72b0;opacity:0.4;"/>
   </g>
   <g id="patch_54">
    <path clip-path="url(#p0cd7d6dcd7)" d="M 340.020643 62.782857 
L 346.370897 62.782857 
L 346.370897 62.782857 
L 340.020643 62.782857 
z
" style="fill:#4c72b0;opacity:0.4;"/>
   </g>
   <g id="patch_55">
    <path clip-path="url(#p0cd7d6dcd7)" d="M 346.370897 62.782857 
L 352.721151 62.782857 
L 352.721151 62.547796 
L 346.370897 62.547796 
z
" style="fill:#4c72b0;opacity:0.4;"/>
   </g>
   <g id="patch_56">
    <path d="M 35.208438 62.782857 
L 352.721152 62.782857 
" style="fill:none;stroke:#262626;stroke-linecap:square;stroke-linejoin:miter;stroke-width:1.25;"/>
   </g>
  </g>
  <g id="axes_3">
   <g id="patch_57">
    <path d="M 363.669866 396.28 
L 418.413437 396.28 
L 418.413437 73.899429 
L 363.669866 73.899429 
z
" style="fill:#ffffff;"/>
   </g>
   <g id="matplotlib.axis_5">
    <g id="xtick_19"/>
    <g id="xtick_20"/>
   </g>
   <g id="matplotlib.axis_6">
    <g id="ytick_9">
     <g id="line2d_27"/>
    </g>
    <g id="ytick_10">
     <g id="line2d_28"/>
    </g>
    <g id="ytick_11">
     <g id="line2d_29"/>
    </g>
    <g id="ytick_12">
     <g id="line2d_30"/>
    </g>
    <g id="ytick_13">
     <g id="line2d_31"/>
    </g>
    <g id="ytick_14">
     <g id="line2d_32"/>
    </g>
   </g>
   <g id="patch_58">
    <path clip-path="url(#pf6c2bf50b7)" d="M 363.669866 396.28 
L 364.838311 396.28 
L 364.838311 389.832389 
L 363.669866 389.832389 
z
" style="fill:#4c72b0;opacity:0.4;"/>
   </g>
   <g id="patch_59">
    <path clip-path="url(#pf6c2bf50b7)" d="M 363.669866 389.832389 
L 365.991551 389.832389 
L 365.991551 383.384777 
L 363.669866 383.384777 
z
" style="fill:#4c72b0;opacity:0.4;"/>
   </g>
   <g id="patch_60">
    <path clip-path="url(#pf6c2bf50b7)" d="M 363.669866 383.384777 
L 368.669968 383.384777 
L 368.669968 376.937166 
L 363.669866 376.937166 
z
" style="fill:#4c72b0;opacity:0.4;"/>
   </g>
   <g id="patch_61">
    <path clip-path="url(#pf6c2bf50b7)" d="M 363.669866 376.937166 
L 373.144913 376.937166 
L 373.144913 370.489554 
L 363.669866 370.489554 
z
" style="fill:#4c72b0;opacity:0.4;"/>
   </g>
   <g id="patch_62">
    <path clip-path="url(#pf6c2bf50b7)" d="M 363.669866 370.489554 
L 380.239794 370.489554 
L 380.239794 364.041943 
L 363.669866 364.041943 
z
" style="fill:#4c72b0;opacity:0.4;"/>
   </g>
   <g id="patch_63">
    <path clip-path="url(#pf6c2bf50b7)" d="M 363.669866 364.041943 
L 388.073872 364.041943 
L 388.073872 357.594331 
L 363.669866 357.594331 
z
" style="fill:#4c72b0;opacity:0.4;"/>
   </g>
   <g id="patch_64">
    <path clip-path="url(#pf6c2bf50b7)" d="M 363.669866 357.594331 
L 399.405097 357.594331 
L 399.405097 351.14672 
L 363.669866 351.14672 
z
" style="fill:#4c72b0;opacity:0.4;"/>
   </g>
   <g id="patch_65">
    <path clip-path="url(#pf6c2bf50b7)" d="M 363.669866 351.14672 
L 409.585421 351.14672 
L 409.585421 344.699109 
L 363.669866 344.699109 
z
" style="fill:#4c72b0;opacity:0.4;"/>
   </g>
   <g id="patch_66">
    <path clip-path="url(#pf6c2bf50b7)" d="M 363.669866 344.699109 
L 415.734085 344.699109 
L 415.734085 338.251497 
L 363.669866 338.251497 
z
" style="fill:#4c72b0;opacity:0.4;"/>
   </g>
   <g id="patch_67">
    <path clip-path="url(#pf6c2bf50b7)" d="M 363.669866 338.251497 
L 415.806601 338.251497 
L 415.806601 331.803886 
L 363.669866 331.803886 
z
" style="fill:#4c72b0;opacity:0.4;"/>
   </g>
   <g id="patch_68">
    <path clip-path="url(#pf6c2bf50b7)" d="M 363.669866 331.803886 
L 414.358618 331.803886 
L 414.358618 325.356274 
L 363.669866 325.356274 
z
" style="fill:#4c72b0;opacity:0.4;"/>
   </g>
   <g id="patch_69">
    <path clip-path="url(#pf6c2bf50b7)" d="M 363.669866 325.356274 
L 412.59367 325.356274 
L 412.59367 318.908663 
L 363.669866 318.908663 
z
" style="fill:#4c72b0;opacity:0.4;"/>
   </g>
   <g id="patch_70">
    <path clip-path="url(#pf6c2bf50b7)" d="M 363.669866 318.908663 
L 413.605386 318.908663 
L 413.605386 312.461051 
L 363.669866 312.461051 
z
" style="fill:#4c72b0;opacity:0.4;"/>
   </g>
   <g id="patch_71">
    <path clip-path="url(#pf6c2bf50b7)" d="M 363.669866 312.461051 
L 412.226411 312.461051 
L 412.226411 306.01344 
L 363.669866 306.01344 
z
" style="fill:#4c72b0;opacity:0.4;"/>
   </g>
   <g id="patch_72">
    <path clip-path="url(#pf6c2bf50b7)" d="M 363.669866 306.01344 
L 395.449461 306.01344 
L 395.449461 299.565829 
L 363.669866 299.565829 
z
" style="fill:#4c72b0;opacity:0.4;"/>
   </g>
   <g id="patch_73">
    <path clip-path="url(#pf6c2bf50b7)" d="M 363.669866 299.565829 
L 384.458594 299.565829 
L 384.458594 293.118217 
L 363.669866 293.118217 
z
" style="fill:#4c72b0;opacity:0.4;"/>
   </g>
   <g id="patch_74">
    <path clip-path="url(#pf6c2bf50b7)" d="M 363.669866 293.118217 
L 378.326305 293.118217 
L 378.326305 286.670606 
L 363.669866 286.670606 
z
" style="fill:#4c72b0;opacity:0.4;"/>
   </g>
   <g id="patch_75">
    <path clip-path="url(#pf6c2bf50b7)" d="M 363.669866 286.670606 
L 372.549579 286.670606 
L 372.549579 280.222994 
L 363.669866 280.222994 
z
" style="fill:#4c72b0;opacity:0.4;"/>
   </g>
   <g id="patch_76">
    <path clip-path="url(#pf6c2bf50b7)" d="M 363.669866 280.222994 
L 370.141343 280.222994 
L 370.141343 273.775383 
L 363.669866 273.775383 
z
" style="fill:#4c72b0;opacity:0.4;"/>
   </g>
   <g id="patch_77">
    <path clip-path="url(#pf6c2bf50b7)" d="M 363.669866 273.775383 
L 367.90504 273.775383 
L 367.90504 267.327771 
L 363.669866 267.327771 
z
" style="fill:#4c72b0;opacity:0.4;"/>
   </g>
   <g id="patch_78">
    <path clip-path="url(#pf6c2bf50b7)" d="M 363.669866 267.327771 
L 366.404425 267.327771 
L 366.404425 260.88016 
L 363.669866 260.88016 
z
" style="fill:#4c72b0;opacity:0.4;"/>
   </g>
   <g id="patch_79">
    <path clip-path="url(#pf6c2bf50b7)" d="M 363.669866 260.88016 
L 365.383351 260.88016 
L 365.383351 254.432549 
L 363.669866 254.432549 
z
" style="fill:#4c72b0;opacity:0.4;"/>
   </g>
   <g id="patch_80">
    <path clip-path="url(#pf6c2bf50b7)" d="M 363.669866 254.432549 
L 364.683922 254.432549 
L 364.683922 247.984937 
L 363.669866 247.984937 
z
" style="fill:#4c72b0;opacity:0.4;"/>
   </g>
   <g id="patch_81">
    <path clip-path="url(#pf6c2bf50b7)" d="M 363.669866 247.984937 
L 364.216076 247.984937 
L 364.216076 241.537326 
L 363.669866 241.537326 
z
" style="fill:#4c72b0;opacity:0.4;"/>
   </g>
   <g id="patch_82">
    <path clip-path="url(#pf6c2bf50b7)" d="M 363.669866 241.537326 
L 364.024259 241.537326 
L 364.024259 235.089714 
L 363.669866 235.089714 
z
" style="fill:#4c72b0;opacity:0.4;"/>
   </g>
   <g id="patch_83">
    <path clip-path="url(#pf6c2bf50b7)" d="M 363.669866 235.089714 
L 363.937708 235.089714 
L 363.937708 228.642103 
L 363.669866 228.642103 
z
" style="fill:#4c72b0;opacity:0.4;"/>
   </g>
   <g id="patch_84">
    <path clip-path="url(#pf6c2bf50b7)" d="M 363.669866 228.642103 
L 363.933029 228.642103 
L 363.933029 222.194491 
L 363.669866 222.194491 
z
" style="fill:#4c72b0;opacity:0.4;"/>
   </g>
   <g id="patch_85">
    <path clip-path="url(#pf6c2bf50b7)" d="M 363.669866 222.194491 
L 364.065196 222.194491 
L 364.065196 215.74688 
L 363.669866 215.74688 
z
" style="fill:#4c72b0;opacity:0.4;"/>
   </g>
   <g id="patch_86">
    <path clip-path="url(#pf6c2bf50b7)" d="M 363.669866 215.74688 
L 364.086249 215.74688 
L 364.086249 209.299269 
L 363.669866 209.299269 
z
" style="fill:#4c72b0;opacity:0.4;"/>
   </g>
   <g id="patch_87">
    <path clip-path="url(#pf6c2bf50b7)" d="M 363.669866 209.299269 
L 364.199701 209.299269 
L 364.199701 202.851657 
L 363.669866 202.851657 
z
" style="fill:#4c72b0;opacity:0.4;"/>
   </g>
   <g id="patch_88">
    <path clip-path="url(#pf6c2bf50b7)" d="M 363.669866 202.851657 
L 363.849987 202.851657 
L 363.849987 196.404046 
L 363.669866 196.404046 
z
" style="fill:#4c72b0;opacity:0.4;"/>
   </g>
   <g id="patch_89">
    <path clip-path="url(#pf6c2bf50b7)" d="M 363.669866 196.404046 
L 363.785658 196.404046 
L 363.785658 189.956434 
L 363.669866 189.956434 
z
" style="fill:#4c72b0;opacity:0.4;"/>
   </g>
   <g id="patch_90">
    <path clip-path="url(#pf6c2bf50b7)" d="M 363.669866 189.956434 
L 363.805541 189.956434 
L 363.805541 183.508823 
L 363.669866 183.508823 
z
" style="fill:#4c72b0;opacity:0.4;"/>
   </g>
   <g id="patch_91">
    <path clip-path="url(#pf6c2bf50b7)" d="M 363.669866 183.508823 
L 363.766944 183.508823 
L 363.766944 177.061211 
L 363.669866 177.061211 
z
" style="fill:#4c72b0;opacity:0.4;"/>
   </g>
   <g id="patch_92">
    <path clip-path="url(#pf6c2bf50b7)" d="M 363.669866 177.061211 
L 363.745891 177.061211 
L 363.745891 170.6136 
L 363.669866 170.6136 
z
" style="fill:#4c72b0;opacity:0.4;"/>
   </g>
   <g id="patch_93">
    <path clip-path="url(#pf6c2bf50b7)" d="M 363.669866 170.6136 
L 363.735364 170.6136 
L 363.735364 164.165989 
L 363.669866 164.165989 
z
" style="fill:#4c72b0;opacity:0.4;"/>
   </g>
   <g id="patch_94">
    <path clip-path="url(#pf6c2bf50b7)" d="M 363.669866 164.165989 
L 363.71899 164.165989 
L 363.71899 157.718377 
L 363.669866 157.718377 
z
" style="fill:#4c72b0;opacity:0.4;"/>
   </g>
   <g id="patch_95">
    <path clip-path="url(#pf6c2bf50b7)" d="M 363.669866 157.718377 
L 363.713142 157.718377 
L 363.713142 151.270766 
L 363.669866 151.270766 
z
" style="fill:#4c72b0;opacity:0.4;"/>
   </g>
   <g id="patch_96">
    <path clip-path="url(#pf6c2bf50b7)" d="M 363.669866 151.270766 
L 363.695598 151.270766 
L 363.695598 144.823154 
L 363.669866 144.823154 
z
" style="fill:#4c72b0;opacity:0.4;"/>
   </g>
   <g id="patch_97">
    <path clip-path="url(#pf6c2bf50b7)" d="M 363.669866 144.823154 
L 363.697937 144.823154 
L 363.697937 138.375543 
L 363.669866 138.375543 
z
" style="fill:#4c72b0;opacity:0.4;"/>
   </g>
   <g id="patch_98">
    <path clip-path="url(#pf6c2bf50b7)" d="M 363.669866 138.375543 
L 363.697937 138.375543 
L 363.697937 131.927931 
L 363.669866 131.927931 
z
" style="fill:#4c72b0;opacity:0.4;"/>
   </g>
   <g id="patch_99">
    <path clip-path="url(#pf6c2bf50b7)" d="M 363.669866 131.927931 
L 363.680393 131.927931 
L 363.680393 125.48032 
L 363.669866 125.48032 
z
" style="fill:#4c72b0;opacity:0.4;"/>
   </g>
   <g id="patch_100">
    <path clip-path="url(#pf6c2bf50b7)" d="M 363.669866 125.48032 
L 363.686241 125.48032 
L 363.686241 119.032709 
L 363.669866 119.032709 
z
" style="fill:#4c72b0;opacity:0.4;"/>
   </g>
   <g id="patch_101">
    <path clip-path="url(#pf6c2bf50b7)" d="M 363.669866 119.032709 
L 363.690919 119.032709 
L 363.690919 112.585097 
L 363.669866 112.585097 
z
" style="fill:#4c72b0;opacity:0.4;"/>
   </g>
   <g id="patch_102">
    <path clip-path="url(#pf6c2bf50b7)" d="M 363.669866 112.585097 
L 363.679223 112.585097 
L 363.679223 106.137486 
L 363.669866 106.137486 
z
" style="fill:#4c72b0;opacity:0.4;"/>
   </g>
   <g id="patch_103">
    <path clip-path="url(#pf6c2bf50b7)" d="M 363.669866 106.137486 
L 363.679223 106.137486 
L 363.679223 99.689874 
L 363.669866 99.689874 
z
" style="fill:#4c72b0;opacity:0.4;"/>
   </g>
   <g id="patch_104">
    <path clip-path="url(#pf6c2bf50b7)" d="M 363.669866 99.689874 
L 363.673375 99.689874 
L 363.673375 93.242263 
L 363.669866 93.242263 
z
" style="fill:#4c72b0;opacity:0.4;"/>
   </g>
   <g id="patch_105">
    <path clip-path="url(#pf6c2bf50b7)" d="M 363.669866 93.242263 
L 363.671036 93.242263 
L 363.671036 86.794651 
L 363.669866 86.794651 
z
" style="fill:#4c72b0;opacity:0.4;"/>
   </g>
   <g id="patch_106">
    <path clip-path="url(#pf6c2bf50b7)" d="M 363.669866 86.794651 
L 363.673375 86.794651 
L 363.673375 80.34704 
L 363.669866 80.34704 
z
" style="fill:#4c72b0;opacity:0.4;"/>
   </g>
   <g id="patch_107">
    <path clip-path="url(#pf6c2bf50b7)" d="M 363.669866 80.34704 
L 363.671036 80.34704 
L 363.671036 73.899429 
L 363.669866 73.899429 
z
" style="fill:#4c72b0;opacity:0.4;"/>
   </g>
   <g id="patch_108">
    <path d="M 363.669866 396.28 
L 363.669866 73.899429 
" style="fill:none;stroke:#262626;stroke-linecap:square;stroke-linejoin:miter;stroke-width:1.25;"/>
   </g>
  </g>
 </g>
 <defs>
  <clipPath id="p8717901175">
   <rect height="322.380571" width="317.512714" x="35.208438" y="73.899429"/>
  </clipPath>
  <clipPath id="p0cd7d6dcd7">
   <rect height="55.582857" width="317.512714" x="35.208438" y="7.2"/>
  </clipPath>
  <clipPath id="pf6c2bf50b7">
   <rect height="322.380571" width="54.743571" x="363.669866" y="73.899429"/>
  </clipPath>
 </defs>
</svg>
