<svg viewBox="0 0 405 266" xmlns="http://www.w3.org/2000/svg" xmlns:xlink="http://www.w3.org/1999/xlink"><defs><style>*{stroke-linecap:butt;stroke-linejoin:round}</style></defs><g id="figure_1"><path d="M0 267h405.8V0H0z" fill="#fff" id="patch_1"/><g id="axes_1"><path d="M54.3 228.4h334.8V11H54.3z" fill="#eaeaf2" id="patch_2"/><g id="matplotlib.axis_1"><g id="xtick_1"><path clip-path="url(#p3cfdbb2be5)" d="M54.3 228.4V11" fill="none" stroke="#fff" stroke-linecap="round" id="line2d_1"/><g id="text_1"><defs><path d="M19.2 8.3h34.4V0H7.3v8.3l15.3 15.6q9.7 9.8 12.2 12.6 4.7 5.3 6.6 9 2 3.7 2 7.3 0 5.8-4.2 9.5-4 3.6-10.6 3.6-4.6 0-9.8-1.6-5.1-1.6-11-4.9v10q6 2.4 11.1 3.6 5.2 1.2 9.5 1.2 11.4 0 18-5.7 6.8-5.6 6.8-15 0-4.6-1.7-8.6-1.6-4-6-9.5l-7.9-8.2L19.2 8.3z" id="DejaVuSans-32"/><path d="M31.8 66.4q-7.6 0-11.5-7.5-3.8-7.5-3.8-22.5t3.8-22.5q3.9-7.5 11.5-7.5 7.7 0 11.5 7.5T47 36.4q0 15-3.8 22.5t-11.5 7.5zm0 7.8q12.2 0 18.7-9.7T57 36.4Q57 18 50.5 8.3 44-1.4 31.8-1.4 19.5-1.4 13 8.3q-6.5 9.7-6.5 28 0 18.5 6.5 28.2 6.4 9.7 18.7 9.7z" id="DejaVuSans-30"/></defs><g transform="matrix(.1 0 0 -.1 48 243)" fill="#262626"><use xlink:href="#DejaVuSans-32"/><use x="63.6" xlink:href="#DejaVuSans-30"/></g></g></g><g id="xtick_2"><path clip-path="url(#p3cfdbb2be5)" d="M96.1 228.4V11" fill="none" stroke="#fff" stroke-linecap="round" id="line2d_3"/><g id="text_2"><defs><path d="M40.6 39.3q7-1.5 11-6.3t4-11.8q0-10.8-7.4-16.7-7.4-6-21.1-6-4.6 0-9.4 1-4.9.9-10 2.7v9.5q4-2.4 8.9-3.6Q21.5 7 26.8 7q9.3 0 14.1 3.6 4.9 3.7 4.9 10.7 0 6.4-4.5 10Q36.8 35 28.7 35h-8.5V43h9q7.2 0 11 3 3.9 2.8 3.9 8.3 0 5.6-4 8.6t-11.4 3q-4 0-8.7-.9-4.6-.8-10.2-2.7v8.8q5.6 1.6 10.5 2.3 5 .8 9.3.8 11.2 0 17.8-5 6.5-5.2 6.5-13.9 0-6-3.5-10.2-3.4-4.2-9.8-5.8z" id="DejaVuSans-33"/></defs><g transform="matrix(.1 0 0 -.1 89.8 243)" fill="#262626"><use xlink:href="#DejaVuSans-33"/><use x="63.6" xlink:href="#DejaVuSans-30"/></g></g></g><g id="xtick_3"><path clip-path="url(#p3cfdbb2be5)" d="M138 228.4V11" fill="none" stroke="#fff" stroke-linecap="round" id="line2d_5"/><g id="text_3"><defs><path d="M37.8 64.3l-25-39h25zM35.2 73h12.4V25.4H58v-8.2H47.6V0h-9.8v17.2h-33v9.5z" id="DejaVuSans-34"/></defs><g transform="matrix(.1 0 0 -.1 131.6 243)" fill="#262626"><use xlink:href="#DejaVuSans-34"/><use x="63.6" xlink:href="#DejaVuSans-30"/></g></g></g><g id="xtick_4"><path clip-path="url(#p3cfdbb2be5)" d="M179.8 228.4V11" fill="none" stroke="#fff" stroke-linecap="round" id="line2d_7"/><g id="text_4"><defs><path d="M10.8 73h38.7v-8.4H19.8V46.7q2.2.8 4.3 1.1 2.2.4 4.3.4 12.2 0 19.4-6.7 7-6.7 7-18.1 0-11.8-7.2-18.3-7.4-6.5-20.7-6.5-4.6 0-9.4.8-4.7.7-9.8 2.3v10q4.4-2.5 9.1-3.6 4.7-1.2 9.9-1.2 8.5 0 13.4 4.4 5 4.5 5 12 0 7.7-5 12.1Q35 40 26.7 40q-4 0-7.9-.9-4-.9-8-2.7z" id="DejaVuSans-35"/></defs><g transform="matrix(.1 0 0 -.1 173.5 243)" fill="#262626"><use xlink:href="#DejaVuSans-35"/><use x="63.6" xlink:href="#DejaVuSans-30"/></g></g></g><g id="xtick_5"><path clip-path="url(#p3cfdbb2be5)" d="M221.7 228.4V11" fill="none" stroke="#fff" stroke-linecap="round" id="line2d_9"/><g id="text_5"><defs><path d="M33 40.4q-6.6 0-10.5-4.6-3.9-4.5-3.9-12.4T22.5 11Q26.4 6.4 33 6.4q6.7 0 10.5 4.6 4 4.5 4 12.4t-4 12.4q-3.8 4.6-10.5 4.6zm19.6 30.9v-9Q48.9 64.1 45 65q-3.8 1-7.5 1-9.8 0-15-6.7-5-6.6-5.8-19.9 2.9 4.3 7.2 6.5 4.4 2.3 9.6 2.3 11 0 17.4-6.7 6.3-6.6 6.3-18.1 0-11.2-6.6-18Q44-1.4 33-1.4q-12.6 0-19.3 9.7Q7 18 7 36.3 7 53.8 15.2 64q8.2 10.3 22 10.3 3.7 0 7.5-.7 3.8-.8 7.9-2.2z" id="DejaVuSans-36"/></defs><g transform="matrix(.1 0 0 -.1 215.3 243)" fill="#262626"><use xlink:href="#DejaVuSans-36"/><use x="63.6" xlink:href="#DejaVuSans-30"/></g></g></g><g id="xtick_6"><path clip-path="url(#p3cfdbb2be5)" d="M263.5 228.4V11" fill="none" stroke="#fff" stroke-linecap="round" id="line2d_11"/><g id="text_6"><defs><path d="M8.2 73h46.9v-4.3L28.6 0H18.3l25 64.6H8.1z" id="DejaVuSans-37"/></defs><g transform="matrix(.1 0 0 -.1 257.2 243)" fill="#262626"><use xlink:href="#DejaVuSans-37"/><use x="63.6" xlink:href="#DejaVuSans-30"/></g></g></g><g id="xtick_7"><path clip-path="url(#p3cfdbb2be5)" d="M305.4 228.4V11" fill="none" stroke="#fff" stroke-linecap="round" id="line2d_13"/><g id="text_7"><defs><path d="M31.8 34.6q-7 0-11-3.7-4.1-3.8-4.1-10.4 0-6.6 4-10.3 4-3.8 11-3.8 7.1 0 11.2 3.8 4 3.8 4 10.3 0 6.6-4 10.4-4 3.7-11.1 3.7zm-9.9 4.2q-6.3 1.6-9.9 6Q8.5 49 8.5 55.2q0 8.8 6.2 13.8 6.3 5.1 17 5.1 11 0 17.2-5Q55 64 55 55.2q0-6.2-3.6-10.6-3.5-4.3-9.8-5.9 7.1-1.6 11.1-6.5 4-4.8 4-11.8 0-10.6-6.5-16.3-6.5-5.6-18.5-5.6T13.2 4.2Q6.8 10 6.8 20.5q0 7 4 11.8 4 4.9 11.1 6.5zm-3.6 15.6q0-5.7 3.5-8.8 3.6-3.2 10-3.2 6.3 0 10 3.2 3.5 3.1 3.5 8.8 0 5.7-3.6 8.8-3.6 3.2-10 3.2-6.3 0-9.9-3.2-3.5-3.1-3.5-8.8z" id="DejaVuSans-38"/></defs><g transform="matrix(.1 0 0 -.1 299 243)" fill="#262626"><use xlink:href="#DejaVuSans-38"/><use x="63.6" xlink:href="#DejaVuSans-30"/></g></g></g><g id="xtick_8"><path clip-path="url(#p3cfdbb2be5)" d="M347.2 228.4V11" fill="none" stroke="#fff" stroke-linecap="round" id="line2d_15"/><g id="text_8"><defs><path d="M11 1.5v9q3.7-1.8 7.5-2.7 3.8-1 7.5-1 9.8 0 14.9 6.7 5.1 6.5 5.9 20-2.8-4.3-7.2-6.5-4.4-2.3-9.6-2.3-11 0-17.3 6.6Q6.3 38 6.3 49.4q0 11.2 6.6 18 6.7 6.8 17.7 6.8 12.7 0 19.3-9.7 6.7-9.7 6.7-28.1 0-17.3-8.2-27.5-8.2-10.3-22-10.3-3.7 0-7.5.7t-8 2.2zm19.6 31q6.6 0 10.5 4.5 4 4.5 4 12.4t-4 12.4q-3.9 4.6-10.5 4.6t-10.5-4.6q-3.9-4.5-3.9-12.4T20.1 37q3.9-4.6 10.5-4.6z" id="DejaVuSans-39"/></defs><g transform="matrix(.1 0 0 -.1 340.9 243)" fill="#262626"><use xlink:href="#DejaVuSans-39"/><use x="63.6" xlink:href="#DejaVuSans-30"/></g></g></g><g id="xtick_9"><path clip-path="url(#p3cfdbb2be5)" d="M389.1 228.4V11" fill="none" stroke="#fff" stroke-linecap="round" id="line2d_17"/><g id="text_9"><defs><path d="M12.4 8.3h16.1v55.6L11 60.4v9l17.4 3.5h9.9V8.3h16V0H12.5z" id="DejaVuSans-31"/></defs><g transform="matrix(.1 0 0 -.1 379.6 243)" fill="#262626"><use xlink:href="#DejaVuSans-31"/><use x="63.6" xlink:href="#DejaVuSans-30"/><use x="127.2" xlink:href="#DejaVuSans-30"/></g></g></g><g id="text_10"><defs><path d="M56.2 29.6v-4.4H14.9q.6-9.3 5.6-14.1 5-4.9 14-4.9 5 0 10 1.3 4.8 1.2 9.6 3.8V2.8q-4.8-2-10-3.1-5-1.1-10.2-1.1-13.1 0-20.7 7.6-7.7 7.6-7.7 20.6 0 13.4 7.3 21.3Q20 56 32.3 56q11 0 17.5-7.1 6.4-7.1 6.4-19.3zm-9 2.6q0 7.4-4.1 11.8-4 4.4-10.7 4.4-7.5 0-12-4.3-4.5-4.2-5.2-12z" id="DejaVuSans-65"/><path d="M19.7 64.8V8.1h11.9q15 0 22 6.8 7 6.9 7 21.6 0 14.7-7 21.5-7 6.8-22 6.8zm-9.9 8.1h20.3q21.2 0 31-8.8 10-8.8 10-27.6T61 8.8Q51.1 0 30.1 0H9.8z" id="DejaVuSans-44"/><path d="M9.4 54.7h9V0h-9zm0 21.3h9V64.6h-9z" id="DejaVuSans-69"/><path d="M9.4 76h9V0h-9z" id="DejaVuSans-6c"/><path d="M32.2-5q-3.8-9.8-7.5-12.8-3.6-3-9.6-3H7.9v7.5h5.3q3.7 0 5.7 1.8 2.1 1.7 4.6 8.3l1.6 4L3 54.8h9.5l17-42.8 17.2 42.8h9.5z" id="DejaVuSans-79"/><path d="M52 44.2q3.4 6 8 9Q64.9 56 71 56q8.6 0 13.3-6 4.6-6 4.6-17V0h-9v32.7q0 7.9-2.8 11.7-2.8 3.8-8.5 3.8-7 0-11-4.7-4-4.6-4-12.6V0h-9.1v32.7q0 8-2.8 11.7-2.8 3.8-8.6 3.8-6.9 0-11-4.7-4-4.6-4-12.6V0h-9v54.7h9v-8.5q3 5 7.4 7.4Q29.8 56 35.7 56q6 0 10.1-3 4.2-3 6.2-8.8z" id="DejaVuSans-6d"/><path d="M54.9 54.7L35 28 56 0H45.3l-16 21.5L13.6 0H2.9L24 28.6l-19.4 26h10.6l14.5-19.4 14.5 19.5z" id="DejaVuSans-78"/><path d="M8.5 21.6v33h9V22q0-7.7 3-11.6 3-4 9-4 7.4 0 11.6 4.7 4.2 4.7 4.2 12.7v31h9V0h-9v8.4Q42 3.4 37.7 1q-4.3-2.4-10-2.4-9.4 0-14.3 5.8-4.9 5.9-4.9 17.2zM31.1 56z" id="DejaVuSans-75"/><path d="M18.3 70.2V54.7h18.5v-7H18.3V18q0-6.7 1.8-8.6 1.9-1.9 7.5-1.9h9.2V0h-9.2Q17.2 0 13.2 3.9T9.2 18v29.7H2.8v7h6.6v15.5z" id="DejaVuSans-74"/><path d="M34.3 27.5q-11 0-15.1-2.5-4.2-2.5-4.2-8.5 0-4.8 3.1-7.6 3.2-2.8 8.6-2.8 7.5 0 12 5.3t4.5 14v2zm17.9 3.7V0h-9v8.3q-3-5-7.7-7.3Q31-1.4 24.3-1.4 16-1.4 11 3.3 6 8 6 15.9q0 9.2 6.2 14 6.2 4.6 18.4 4.6h12.6v1q0 6.1-4 9.5-4.1 3.4-11.5 3.4-4.7 0-9.2-1.1-4.4-1.2-8.5-3.4v8.3q5 2 9.6 2.8 4.6 1 9 1 11.9 0 17.7-6.2 5.9-6.1 5.9-18.6z" id="DejaVuSans-61"/><path d="M18.1 8.2v-29h-9v75.5h9v-8.3q2.9 4.9 7.2 7.2Q29.6 56 35.6 56q10 0 16.2-8Q58 40.3 58 27.4q0-12.9-6.2-20.8-6.2-8-16.2-8-6 0-10.3 2.5Q21 3.3 18 8.2zm30.6 19.1q0 9.9-4 15.5-4.2 5.7-11.3 5.7-7.1 0-11.2-5.7-4-5.6-4-15.5 0-10 4-15.6t11.2-5.6q7.1 0 11.2 5.7 4 5.6 4 15.5z" id="DejaVuSans-70"/><path d="M41.1 46.3q-1.5.9-3.3 1.3-1.8.4-4 .4-7.5 0-11.6-5-4-5-4-14.2V0H9v54.7h9v-8.5q2.9 5 7.4 7.4Q30 56 36.5 56l2-.1 2.6-.4z" id="DejaVuSans-72"/><path d="M31 75.9q-6.5-11.2-9.7-22.2-3.2-11-3.2-22.3T21.3 9Q24.5-2 31-13.2h-7.8q-7.3 11.5-11 22.6-3.6 11-3.6 22 0 10.9 3.6 22 3.6 11 11 22.5z" id="DejaVuSans-28"/><path d="M45.4 46.4V76h9V0h-9v8.2Q42.6 3.3 38.3 1q-4.4-2.4-10.4-2.4-10 0-16.2 7.9-6.2 8-6.2 20.8 0 12.9 6.2 20.8Q18 56 28 56q6 0 10.4-2.4 4.3-2.3 7.1-7.2zM14.8 27.3q0-10 4-15.6Q23 6.2 30.2 6.2q7.1 0 11.2 5.7 4.1 5.6 4.1 15.5t-4.1 15.5q-4.1 5.7-11.2 5.7t-11.2-5.7q-4.1-5.6-4.1-15.5z" id="DejaVuSans-64"/><path d="M45.4 28q0 9.8-4 15.1-4 5.4-11.3 5.4-7.2 0-11.3-5.4-4-5.4-4-15.1t4-15.1q4-5.4 11.3-5.4 7.3 0 11.3 5.4 4 5.4 4 15zm9-21.2q0-14-6.2-20.8-6.2-6.8-19-6.8-4.7 0-9 .7-4.1.7-8 2.2v8.7q3.9-2.1 7.7-3.1 3.9-1 7.9-1 8.8 0 13.2 4.5 4.4 4.6 4.4 14v4.4q-2.8-4.8-7.1-7.2Q33.9 0 27.9 0q-10 0-16.2 7.7Q5.5 15.3 5.5 28q0 12.7 6.2 20.3Q17.8 56 27.9 56q6 0 10.4-2.4 4.3-2.4 7.1-7.2v8.3h9z" id="DejaVuSans-67"/><path d="M44.3 53v-8.4q-3.8 2-8 2.9-4 1-8.4 1-6.7 0-10-2-3.4-2.1-3.4-6.2 0-3.1 2.4-5 2.4-1.7 9.6-3.3l3-.7q9.7-2 13.7-5.8 4-3.7 4-10.4 0-7.6-6-12-6-4.5-16.6-4.5-4.4 0-9.1.8-4.8.9-10 2.6v9.3q5-2.6 9.7-4 4.9-1.2 9.6-1.2 6.4 0 9.8 2.2 3.4 2.2 3.4 6.1 0 3.7-2.5 5.6-2.4 2-10.8 3.8l-3.1.7q-8.4 1.8-12 5.4-3.8 3.6-3.8 10 0 7.7 5.5 11.9Q16.7 56 26.8 56q5 0 9.4-.7 4.4-.8 8-2.2z" id="DejaVuSans-73"/><path d="M9.8 73h41.9v-8.4h-32V43h28.9v-8.3h-29V0H9.9z" id="DejaVuSans-46"/><path d="M8 75.9h7.8q7.3-11.5 11-22.6 3.6-11 3.6-22 0-10.8-3.6-22-3.7-11-11-22.5H8Q14.5-2 17.7 9.1q3.2 11 3.2 22.3t-3.2 22.3q-3.2 11-9.7 22.2z" id="DejaVuSans-29"/></defs><g transform="matrix(.11 0 0 -.11 108.7 257.5)" fill="#262626"><use xlink:href="#DejaVuSans-44"/><use x="77" xlink:href="#DejaVuSans-61"/><use x="138.3" xlink:href="#DejaVuSans-69"/><use x="166.1" xlink:href="#DejaVuSans-6c"/><use x="193.8" xlink:href="#DejaVuSans-79"/><use x="253" xlink:href="#DejaVuSans-20"/><use x="284.8" xlink:href="#DejaVuSans-6d"/><use x="382.2" xlink:href="#DejaVuSans-61"/><use x="443.5" xlink:href="#DejaVuSans-78"/><use x="502.7" xlink:href="#DejaVuSans-69"/><use x="530.5" xlink:href="#DejaVuSans-6d"/><use x="627.9" xlink:href="#DejaVuSans-75"/><use x="691.3" xlink:href="#DejaVuSans-6d"/><use x="788.7" xlink:href="#DejaVuSans-20"/><use x="820.5" xlink:href="#DejaVuSans-74"/><use x="859.7" xlink:href="#DejaVuSans-65"/><use x="921.2" xlink:href="#DejaVuSans-6d"/><use x="1018.6" xlink:href="#DejaVuSans-70"/><use x="1082.1" xlink:href="#DejaVuSans-65"/><use x="1143.6" xlink:href="#DejaVuSans-72"/><use x="1184.7" xlink:href="#DejaVuSans-61"/><use x="1246" xlink:href="#DejaVuSans-74"/><use x="1285.2" xlink:href="#DejaVuSans-75"/><use x="1348.6" xlink:href="#DejaVuSans-72"/><use x="1389.7" xlink:href="#DejaVuSans-65"/><use x="1451.2" xlink:href="#DejaVuSans-20"/><use x="1483" xlink:href="#DejaVuSans-28"/><use x="1522" xlink:href="#DejaVuSans-64"/><use x="1585.5" xlink:href="#DejaVuSans-65"/><use x="1647" xlink:href="#DejaVuSans-67"/><use x="1710.5" xlink:href="#DejaVuSans-72"/><use x="1751.5" xlink:href="#DejaVuSans-65"/><use x="1813.1" xlink:href="#DejaVuSans-65"/><use x="1874.6" xlink:href="#DejaVuSans-73"/><use x="1926.7" xlink:href="#DejaVuSans-20"/><use x="1958.5" xlink:href="#DejaVuSans-46"/><use x="2016" xlink:href="#DejaVuSans-29"/></g></g></g><g id="matplotlib.axis_2"><g id="ytick_1"><path clip-path="url(#p3cfdbb2be5)" d="M54.3 228.4h334.8" fill="none" stroke="#fff" stroke-linecap="round" id="line2d_19"/><use xlink:href="#DejaVuSans-30" transform="matrix(.1 0 0 -.1 41 232.2)" fill="#262626" id="text_11"/></g><g id="ytick_2"><path clip-path="url(#p3cfdbb2be5)" d="M54.3 185h334.8" fill="none" stroke="#fff" stroke-linecap="round" id="line2d_21"/><g transform="matrix(.1 0 0 -.1 21.8 188.8)" fill="#262626" id="text_12"><use xlink:href="#DejaVuSans-31"/><use x="63.6" xlink:href="#DejaVuSans-30"/><use x="127.2" xlink:href="#DejaVuSans-30"/><use x="190.9" xlink:href="#DejaVuSans-30"/></g></g><g id="ytick_3"><path clip-path="url(#p3cfdbb2be5)" d="M54.3 141.5h334.8" fill="none" stroke="#fff" stroke-linecap="round" id="line2d_23"/><g transform="matrix(.1 0 0 -.1 21.8 145.3)" fill="#262626" id="text_13"><use xlink:href="#DejaVuSans-32"/><use x="63.6" xlink:href="#DejaVuSans-30"/><use x="127.2" xlink:href="#DejaVuSans-30"/><use x="190.9" xlink:href="#DejaVuSans-30"/></g></g><g id="ytick_4"><path clip-path="url(#p3cfdbb2be5)" d="M54.3 98h334.8" fill="none" stroke="#fff" stroke-linecap="round" id="line2d_25"/><g transform="matrix(.1 0 0 -.1 21.8 101.8)" fill="#262626" id="text_14"><use xlink:href="#DejaVuSans-33"/><use x="63.6" xlink:href="#DejaVuSans-30"/><use x="127.2" xlink:href="#DejaVuSans-30"/><use x="190.9" xlink:href="#DejaVuSans-30"/></g></g><g id="ytick_5"><path clip-path="url(#p3cfdbb2be5)" d="M54.3 54.5h334.8" fill="none" stroke="#fff" stroke-linecap="round" id="line2d_27"/><g transform="matrix(.1 0 0 -.1 21.8 58.3)" fill="#262626" id="text_15"><use xlink:href="#DejaVuSans-34"/><use x="63.6" xlink:href="#DejaVuSans-30"/><use x="127.2" xlink:href="#DejaVuSans-30"/><use x="190.9" xlink:href="#DejaVuSans-30"/></g></g><g id="ytick_6"><path clip-path="url(#p3cfdbb2be5)" d="M54.3 11h334.8" fill="none" stroke="#fff" stroke-linecap="round" id="line2d_29"/><g transform="matrix(.1 0 0 -.1 21.8 14.8)" fill="#262626" id="text_16"><use xlink:href="#DejaVuSans-35"/><use x="63.6" xlink:href="#DejaVuSans-30"/><use x="127.2" xlink:href="#DejaVuSans-30"/><use x="190.9" xlink:href="#DejaVuSans-30"/></g></g><g id="text_17"><defs><path d="M9.8 73h13.3l32.3-61v61H65V0H51.7L19.4 61V0H9.8z" id="DejaVuSans-4e"/><path d="M48.7 27.3q0 9.9-4 15.5-4.2 5.7-11.3 5.7-7.1 0-11.2-5.7-4-5.6-4-15.5 0-10 4-15.6t11.2-5.6q7.1 0 11.2 5.7 4 5.6 4 15.5zM18 46.3q2.9 5 7.2 7.3Q29.6 56 35.6 56q10 0 16.2-8Q58 40.3 58 27.4q0-12.9-6.2-20.8-6.2-8-16.2-8-6 0-10.3 2.5Q21 3.3 18 8.2V0h-9v76h9z" id="DejaVuSans-62"/><path d="M30.6 48.4q-7.2 0-11.4-5.6Q15 37 15 27.3t4.2-15.5q4.1-5.6 11.4-5.6 7.2 0 11.4 5.7 4.2 5.6 4.2 15.4 0 9.7-4.2 15.4-4.2 5.7-11.4 5.7zm0 7.6q11.7 0 18.4-7.6 6.7-7.6 6.7-21.1 0-13.4-6.7-21-6.7-7.7-18.4-7.7-11.8 0-18.4 7.6Q5.5 14 5.5 27.3q0 13.5 6.7 21Q18.8 56 30.6 56z" id="DejaVuSans-6f"/><path d="M37.1 76v-7.5h-8.6q-4.8 0-6.7-2-1.9-2-1.9-7v-4.8h14.8v-7H20V0h-9v47.7H2.3v7h8.6v3.8q0 9.1 4.2 13.3Q19.4 76 28.6 76z" id="DejaVuSans-66"/><path d="M54.9 33V0h-9v32.7q0 7.8-3 11.6-3 3.9-9.1 3.9-7.3 0-11.5-4.7Q18.1 39 18.1 31V0h-9v54.7h9v-8.5q3.2 5 7.6 7.4Q30.1 56 35.8 56q9.4 0 14.2-5.8Q55 44.3 55 33z" id="DejaVuSans-6e"/></defs><g transform="matrix(0 -.11 -.11 0 15.6 192.4)" fill="#262626"><use xlink:href="#DejaVuSans-4e"/><use x="74.8" xlink:href="#DejaVuSans-75"/><use x="138.2" xlink:href="#DejaVuSans-6d"/><use x="235.6" xlink:href="#DejaVuSans-62"/><use x="299.1" xlink:href="#DejaVuSans-65"/><use x="360.6" xlink:href="#DejaVuSans-72"/><use x="401.7" xlink:href="#DejaVuSans-20"/><use x="433.5" xlink:href="#DejaVuSans-6f"/><use x="494.7" xlink:href="#DejaVuSans-66"/><use x="529.9" xlink:href="#DejaVuSans-20"/><use x="561.7" xlink:href="#DejaVuSans-72"/><use x="602.8" xlink:href="#DejaVuSans-65"/><use x="664.3" xlink:href="#DejaVuSans-6e"/><use x="727.7" xlink:href="#DejaVuSans-74"/><use x="766.9" xlink:href="#DejaVuSans-61"/><use x="828.1" xlink:href="#DejaVuSans-6c"/><use x="855.9" xlink:href="#DejaVuSans-73"/><use x="908" xlink:href="#DejaVuSans-20"/><use x="939.8" xlink:href="#DejaVuSans-70"/><use x="1003.3" xlink:href="#DejaVuSans-65"/><use x="1064.8" xlink:href="#DejaVuSans-72"/><use x="1105.9" xlink:href="#DejaVuSans-20"/><use x="1137.7" xlink:href="#DejaVuSans-64"/><use x="1201.2" xlink:href="#DejaVuSans-61"/><use x="1262.5" xlink:href="#DejaVuSans-79"/></g></g></g><g id="PathCollection_1"><defs><path d="M0 3.5a3.5 3.5 0 100-7 3.5 3.5 0 000 7z" id="m269a0b0601"/></defs><g clip-path="url(#p3cfdbb2be5)" fill="#4c72b0" fill-opacity=".8"><use x="192.4" xlink:href="#m269a0b0601" y="204.8"/><use x="175.7" xlink:href="#m269a0b0601" y="168.2"/><use x="217.5" xlink:href="#m269a0b0601" y="176"/><use x="188.2" xlink:href="#m269a0b0601" y="171.7"/><use x="188.2" xlink:href="#m269a0b0601" y="156.3"/><use x="213.3" xlink:href="#m269a0b0601" y="104.2"/><use x="259.4" xlink:href="#m269a0b0601" y="158.9"/><use x="263.5" xlink:href="#m269a0b0601" y="199.9"/><use x="150.6" xlink:href="#m269a0b0601" y="181.6"/><use x="179.8" xlink:href="#m269a0b0601" y="189.6"/><use x="196.6" xlink:href="#m269a0b0601" y="170.8"/><use x="188.2" xlink:href="#m269a0b0601" y="171.6"/><use x="230.1" xlink:href="#m269a0b0601" y="164"/><use x="263.5" xlink:href="#m269a0b0601" y="135.5"/><use x="230.1" xlink:href="#m269a0b0601" y="149.2"/><use x="205" xlink:href="#m269a0b0601" y="188.4"/><use x="230.1" xlink:href="#m269a0b0601" y="194.4"/><use x="179.8" xlink:href="#m269a0b0601" y="185"/><use x="171.5" xlink:href="#m269a0b0601" y="133.1"/><use x="221.7" xlink:href="#m269a0b0601" y="78"/><use x="251" xlink:href="#m269a0b0601" y="113.6"/><use x="246.8" xlink:href="#m269a0b0601" y="158.7"/><use x="263.5" xlink:href="#m269a0b0601" y="185.7"/><use x="217.5" xlink:href="#m269a0b0601" y="197.9"/><use x="129.6" xlink:href="#m269a0b0601" y="196.2"/><use x="117.1" xlink:href="#m269a0b0601" y="168.4"/><use x="171.5" xlink:href="#m269a0b0601" y="156.1"/><use x="192.4" xlink:href="#m269a0b0601" y="212.2"/><use x="158.9" xlink:href="#m269a0b0601" y="209.6"/><use x="133.8" xlink:href="#m269a0b0601" y="161.8"/><use x="221.7" xlink:href="#m269a0b0601" y="150"/><use x="238.4" xlink:href="#m269a0b0601" y="136.3"/><use x="251" xlink:href="#m269a0b0601" y="114.9"/><use x="292.8" xlink:href="#m269a0b0601" y="90.5"/><use x="246.8" xlink:href="#m269a0b0601" y="114.9"/><use x="242.6" xlink:href="#m269a0b0601" y="150.9"/><use x="259.4" xlink:href="#m269a0b0601" y="145.7"/><use x="263.5" xlink:href="#m269a0b0601" y="143.4"/><use x="246.8" xlink:href="#m269a0b0601" y="117.1"/><use x="246.8" xlink:href="#m269a0b0601" y="117"/><use x="284.5" xlink:href="#m269a0b0601" y="73.7"/><use x="305.4" xlink:href="#m269a0b0601" y="104.8"/><use x="318" xlink:href="#m269a0b0601" y="153.4"/><use x="259.4" xlink:href="#m269a0b0601" y="157.9"/><use x="309.6" xlink:href="#m269a0b0601" y="191.8"/><use x="259.4" xlink:href="#m269a0b0601" y="176.5"/><use x="192.4" xlink:href="#m269a0b0601" y="165.6"/><use x="192.4" xlink:href="#m269a0b0601" y="219.3"/><use x="179.8" xlink:href="#m269a0b0601" y="199.5"/><use x="179.8" xlink:href="#m269a0b0601" y="143.8"/><use x="238.4" xlink:href="#m269a0b0601" y="165.6"/><use x="221.7" xlink:href="#m269a0b0601" y="152.1"/><use x="225.9" xlink:href="#m269a0b0601" y="137.5"/><use x="263.5" xlink:href="#m269a0b0601" y="114.1"/><use x="305.4" xlink:href="#m269a0b0601" y="68.2"/><use x="271.9" xlink:href="#m269a0b0601" y="83.6"/><use x="276.1" xlink:href="#m269a0b0601" y="164.3"/><use x="238.4" xlink:href="#m269a0b0601" y="165.9"/><use x="217.5" xlink:href="#m269a0b0601" y="132.2"/><use x="276.1" xlink:href="#m269a0b0601" y="128.3"/><use x="301.2" xlink:href="#m269a0b0601" y="114.7"/><use x="338.9" xlink:href="#m269a0b0601" y="101.2"/><use x="343.1" xlink:href="#m269a0b0601" y="112.6"/><use x="334.7" xlink:href="#m269a0b0601" y="123.9"/><use x="322.1" xlink:href="#m269a0b0601" y="120.4"/><use x="305.4" xlink:href="#m269a0b0601" y="121"/><use x="330.5" xlink:href="#m269a0b0601" y="118.7"/><use x="309.6" xlink:href="#m269a0b0601" y="110.1"/><use x="318" xlink:href="#m269a0b0601" y="104.8"/><use x="359.8" xlink:href="#m269a0b0601" y="162.6"/><use x="276.1" xlink:href="#m269a0b0601" y="152.7"/><use x="305.4" xlink:href="#m269a0b0601" y="127.6"/><use x="338.9" xlink:href="#m269a0b0601" y="125.5"/><use x="318" xlink:href="#m269a0b0601" y="113.3"/><use x="322.1" xlink:href="#m269a0b0601" y="106.8"/><use x="318" xlink:href="#m269a0b0601" y="96.8"/><use x="313.8" xlink:href="#m269a0b0601" y="109.9"/><use x="267.7" xlink:href="#m269a0b0601" y="113.8"/><use x="267.7" xlink:href="#m269a0b0601" y="121.5"/><use x="276.1" xlink:href="#m269a0b0601" y="104.7"/><use x="305.4" xlink:href="#m269a0b0601" y="171.9"/><use x="263.5" xlink:href="#m269a0b0601" y="113"/><use x="263.5" xlink:href="#m269a0b0601" y="108"/><use x="238.4" xlink:href="#m269a0b0601" y="101.9"/><use x="246.8" xlink:href="#m269a0b0601" y="105.9"/><use x="259.4" xlink:href="#m269a0b0601" y="85.6"/><use x="284.5" xlink:href="#m269a0b0601" y="144.7"/><use x="301.2" xlink:href="#m269a0b0601" y="85.5"/><use x="280.3" xlink:href="#m269a0b0601" y="96.4"/><use x="292.8" xlink:href="#m269a0b0601" y="46.1"/><use x="280.3" xlink:href="#m269a0b0601" y="28.3"/><use x="297" xlink:href="#m269a0b0601" y="48.1"/><use x="309.6" xlink:href="#m269a0b0601" y="42"/><use x="326.3" xlink:href="#m269a0b0601" y="115.9"/><use x="347.2" xlink:href="#m269a0b0601" y="119.2"/><use x="351.4" xlink:href="#m269a0b0601" y="91.5"/><use x="305.4" xlink:href="#m269a0b0601" y="53.8"/><use x="305.4" xlink:href="#m269a0b0601" y="107.8"/><use x="313.8" xlink:href="#m269a0b0601" y="111.3"/><use x="318" xlink:href="#m269a0b0601" y="110.8"/><use x="322.1" xlink:href="#m269a0b0601" y="108.5"/><use x="322.1" xlink:href="#m269a0b0601" y="112"/><use x="255.2" xlink:href="#m269a0b0601" y="89.5"/><use x="284.5" xlink:href="#m269a0b0601" y="82.3"/><use x="351.4" xlink:href="#m269a0b0601" y="89.6"/><use x="313.8" xlink:href="#m269a0b0601" y="120.4"/><use x="347.2" xlink:href="#m269a0b0601" y="139.2"/><use x="297" xlink:href="#m269a0b0601" y="121.1"/><use x="305.4" xlink:href="#m269a0b0601" y="112.1"/><use x="330.5" xlink:href="#m269a0b0601" y="105.2"/><use x="313.8" xlink:href="#m269a0b0601" y="48.7"/><use x="334.7" xlink:href="#m269a0b0601" y="90"/><use x="284.5" xlink:href="#m269a0b0601" y="106.4"/><use x="292.8" xlink:href="#m269a0b0601" y="143.5"/><use x="313.8" xlink:href="#m269a0b0601" y="128.8"/><use x="309.6" xlink:href="#m269a0b0601" y="108.8"/><use x="309.6" xlink:href="#m269a0b0601" y="90.7"/><use x="313.8" xlink:href="#m269a0b0601" y="58.7"/><use x="318" xlink:href="#m269a0b0601" y="88"/><use x="322.1" xlink:href="#m269a0b0601" y="107.7"/><use x="326.3" xlink:href="#m269a0b0601" y="108.8"/><use x="326.3" xlink:href="#m269a0b0601" y="101.3"/><use x="297" xlink:href="#m269a0b0601" y="179.6"/><use x="221.7" xlink:href="#m269a0b0601" y="97.8"/><use x="280.3" xlink:href="#m269a0b0601" y="86.2"/><use x="284.5" xlink:href="#m269a0b0601" y="123.3"/><use x="271.9" xlink:href="#m269a0b0601" y="96"/><use x="292.8" xlink:href="#m269a0b0601" y="105.4"/><use x="301.2" xlink:href="#m269a0b0601" y="179.8"/><use x="251" xlink:href="#m269a0b0601" y="141.5"/><use x="263.5" xlink:href="#m269a0b0601" y="100.4"/><use x="288.7" xlink:href="#m269a0b0601" y="61.6"/><use x="292.8" xlink:href="#m269a0b0601" y="161.6"/><use x="255.2" xlink:href="#m269a0b0601" y="136.9"/><use x="276.1" xlink:href="#m269a0b0601" y="116.7"/><use x="288.7" xlink:href="#m269a0b0601" y="166"/><use x="288.7" xlink:href="#m269a0b0601" y="146.8"/><use x="263.5" xlink:href="#m269a0b0601" y="144.9"/><use x="271.9" xlink:href="#m269a0b0601" y="80.9"/><use x="297" xlink:href="#m269a0b0601" y="122.9"/><use x="318" xlink:href="#m269a0b0601" y="161.3"/><use x="297" xlink:href="#m269a0b0601" y="128.8"/><use x="271.9" xlink:href="#m269a0b0601" y="118.5"/><use x="271.9" xlink:href="#m269a0b0601" y="122.3"/><use x="267.7" xlink:href="#m269a0b0601" y="158.6"/><use x="255.2" xlink:href="#m269a0b0601" y="198.2"/><use x="242.6" xlink:href="#m269a0b0601" y="146.6"/><use x="267.7" xlink:href="#m269a0b0601" y="139.2"/><use x="267.7" xlink:href="#m269a0b0601" y="127.2"/><use x="297" xlink:href="#m269a0b0601" y="128.5"/><use x="305.4" xlink:href="#m269a0b0601" y="114.3"/><use x="259.4" xlink:href="#m269a0b0601" y="121.6"/><use x="263.5" xlink:href="#m269a0b0601" y="97"/><use x="297" xlink:href="#m269a0b0601" y="81.7"/><use x="318" xlink:href="#m269a0b0601" y="136.3"/><use x="276.1" xlink:href="#m269a0b0601" y="143.9"/><use x="230.1" xlink:href="#m269a0b0601" y="132"/><use x="242.6" xlink:href="#m269a0b0601" y="129.7"/><use x="242.6" xlink:href="#m269a0b0601" y="109.6"/><use x="246.8" xlink:href="#m269a0b0601" y="98.3"/><use x="271.9" xlink:href="#m269a0b0601" y="129.6"/><use x="297" xlink:href="#m269a0b0601" y="102.2"/><use x="301.2" xlink:href="#m269a0b0601" y="115.2"/><use x="318" xlink:href="#m269a0b0601" y="112.5"/><use x="322.1" xlink:href="#m269a0b0601" y="115.8"/><use x="334.7" xlink:href="#m269a0b0601" y="110.4"/><use x="305.4" xlink:href="#m269a0b0601" y="119.7"/><use x="280.3" xlink:href="#m269a0b0601" y="133.6"/><use x="238.4" xlink:href="#m269a0b0601" y="177.1"/><use x="213.3" xlink:href="#m269a0b0601" y="124.1"/><use x="292.8" xlink:href="#m269a0b0601" y="127.9"/><use x="276.1" xlink:href="#m269a0b0601" y="120.9"/><use x="305.4" xlink:href="#m269a0b0601" y="132.3"/><use x="351.4" xlink:href="#m269a0b0601" y="116.8"/><use x="330.5" xlink:href="#m269a0b0601" y="141.2"/><use x="334.7" xlink:href="#m269a0b0601" y="162.2"/><use x="221.7" xlink:href="#m269a0b0601" y="151.7"/><use x="230.1" xlink:href="#m269a0b0601" y="138.6"/><use x="238.4" xlink:href="#m269a0b0601" y="137.6"/><use x="230.1" xlink:href="#m269a0b0601" y="121.2"/><use x="230.1" xlink:href="#m269a0b0601" y="106.5"/><use x="251" xlink:href="#m269a0b0601" y="186.6"/><use x="225.9" xlink:href="#m269a0b0601" y="176.9"/><use x="259.4" xlink:href="#m269a0b0601" y="160.1"/><use x="259.4" xlink:href="#m269a0b0601" y="137.1"/><use x="209.1" xlink:href="#m269a0b0601" y="151"/><use x="234.3" xlink:href="#m269a0b0601" y="176.7"/><use x="213.3" xlink:href="#m269a0b0601" y="159.1"/><use x="242.6" xlink:href="#m269a0b0601" y="130.5"/><use x="255.2" xlink:href="#m269a0b0601" y="161.2"/><use x="196.6" xlink:href="#m269a0b0601" y="166.1"/><use x="179.8" xlink:href="#m269a0b0601" y="154.7"/><use x="192.4" xlink:href="#m269a0b0601" y="157.2"/><use x="230.1" xlink:href="#m269a0b0601" y="144.3"/><use x="213.3" xlink:href="#m269a0b0601" y="187.3"/><use x="205" xlink:href="#m269a0b0601" y="173.3"/><use x="184" xlink:href="#m269a0b0601" y="154.3"/><use x="238.4" xlink:href="#m269a0b0601" y="149.4"/><use x="267.7" xlink:href="#m269a0b0601" y="148.2"/><use x="263.5" xlink:href="#m269a0b0601" y="146.3"/><use x="267.7" xlink:href="#m269a0b0601" y="129.7"/><use x="288.7" xlink:href="#m269a0b0601" y="182.6"/><use x="246.8" xlink:href="#m269a0b0601" y="161.3"/><use x="225.9" xlink:href="#m269a0b0601" y="172.3"/><use x="213.3" xlink:href="#m269a0b0601" y="183.8"/><use x="175.7" xlink:href="#m269a0b0601" y="170.5"/><use x="200.8" xlink:href="#m269a0b0601" y="181.3"/><use x="200.8" xlink:href="#m269a0b0601" y="214.2"/><use x="104.5" xlink:href="#m269a0b0601" y="207.6"/><use x="100.3" xlink:href="#m269a0b0601" y="207.1"/><use x="142.2" xlink:href="#m269a0b0601" y="197.6"/><use x="121.3" xlink:href="#m269a0b0601" y="197"/><use x="108.7" xlink:href="#m269a0b0601" y="205.8"/><use x="117.1" xlink:href="#m269a0b0601" y="199.5"/><use x="125.4" xlink:href="#m269a0b0601" y="204.4"/><use x="108.7" xlink:href="#m269a0b0601" y="214.3"/><use x="142.2" xlink:href="#m269a0b0601" y="216.2"/></g></g><path clip-path="url(#p3cfdbb2be5)" d="M87 199.5v20.1l2.9-1.4 2.9-1.4 2.9-1.4 2.9-1.5 2.8-1.4 3-1.3 2.8-1.4 3-1.4 2.8-1.4 2.9-1.4 2.9-1.4 2.9-1.4 2.9-1.3 2.9-1.4 2.8-1.3 3-1.3 2.8-1.5 3-1.4 2.8-1.4 2.9-1.5 2.9-1.4 2.9-1.3 2.9-1.4 2.9-1.4 2.9-1.4 2.8-1.3 3-1.4 2.8-1.4 3-1.4 2.8-1.3 2.9-1.4 2.9-1.3 2.9-1.4 2.9-1.3 2.9-1.3 2.8-1.4 3-1.3 2.8-1.4 3-1.4 2.8-1.2 2.9-1.4 2.9-1.3 2.9-1.3 2.9-1.3 2.9-1.3 2.8-1.2 3-1.3 2.8-1.3 3-1.3 2.8-1.3 2.9-1.2 2.9-1.4 2.9-1.2 2.9-1.2 2.9-1.3 2.9-1.2 2.8-1.2 3-1.2 2.8-1.2 3-1.2 2.8-1.2 2.9-1.2 2.9-1.2 2.9-1.2 2.9-1.2 2.9-1.1 2.8-1.2 3-1.2 2.8-1.2 3-1.1 2.8-1.2 2.9-1.2 2.9-1.1 2.9-1.1 2.9-1.1 2.9-1.1 2.9-1.1 2.8-1.1 3-1.1 2.8-1.2 3-1.1 2.8-1.2 2.9-1.2 2.9-1.2 2.9-1.2 2.9-1.1 2.9-1 2.8-1.2 3-1 2.8-1 3-1 2.8-1.1 2.9-1.2 2.9-1 2.9-1.1 2.9-1 2.9-1.1 2.8-1 3-1.2V78.1l-3 1.5-2.8 1.4-3 1.4-2.8 1.3-3 1.4-2.8 1.4-2.9 1.4-2.9 1.4-2.9 1.4-2.9 1.4-2.9 1.4-2.8 1.5-3 1.4-2.8 1.4-3 1.4-2.8 1.3-2.9 1.4-2.9 1.3-2.9 1.4-2.9 1.4-2.9 1.4-2.8 1.4-3 1.4-2.8 1.3-3 1.4-2.8 1.3-2.9 1.4-2.9 1.4-2.9 1.3-2.9 1.3-2.9 1.3-2.9 1.3-2.8 1.3-3 1.2-2.8 1.3-3 1.3-2.8 1.3-2.9 1.3-2.9 1.3-2.9 1.3-2.9 1.3-2.9 1.3-2.8 1.2-3 1.4-2.8 1.2-3 1.2-2.8 1.2-2.9 1.2-2.9 1.2-2.9 1.2-2.9 1.1-2.9 1.2-2.9 1.3-2.8 1.2-3 1.1-2.8 1.1-3 1.2-2.8 1.1-2.9 1-2.9 1-2.9 1.3-2.9 1-2.9 1.2-2.8 1.2-3 1-2.8 1-3 1.2-2.8 1-2.9 1.3-2.9 1.1-2.9 1.1-2.9 1-2.9 1.2-2.8 1.1-3 1.2-2.8 1.2-3 1-2.8 1.1-2.9 1.2-2.9 1-2.9 1.2-2.9 1.1-2.9 1.1-2.9 1.1-2.8 1.1-3 1.1-2.8 1.1-3 1.1-2.8 1.2-2.9 1-2.9 1.2-2.9 1-2.9 1.1-2.9 1.1-2.8 1.1-3 1-2.8 1.2-3 1-2.8 1.1z" fill="#4c72b0" fill-opacity=".1" id="PolyCollection_1"/><path clip-path="url(#p3cfdbb2be5)" d="M87 209.6l2.9-1.3 2.9-1.2 2.9-1.2 2.9-1.3 2.8-1.2 3-1.2 2.8-1.3 3-1.2 2.8-1.2 2.9-1.3 2.9-1.2 2.9-1.3 2.9-1.2 2.9-1.2 2.8-1.3 3-1.2 2.8-1.2 3-1.3 2.8-1.2 2.9-1.2 2.9-1.3 2.9-1.2 2.9-1.2 2.9-1.3 2.9-1.2 2.8-1.3 3-1.2 2.8-1.2 3-1.3 2.8-1.2 2.9-1.2 2.9-1.3 2.9-1.2 2.9-1.2 2.9-1.3 2.8-1.2 3-1.2 2.8-1.3 3-1.2 2.8-1.3 2.9-1.2 2.9-1.2 2.9-1.3 2.9-1.2 2.9-1.2 2.8-1.3 3-1.2 2.8-1.2 3-1.3 2.8-1.2 2.9-1.2 2.9-1.3 2.9-1.2 2.9-1.3 2.9-1.2 2.9-1.2 2.8-1.3 3-1.2 2.8-1.2 3-1.3 2.8-1.2 2.9-1.2 2.9-1.3 2.9-1.2 2.9-1.3 2.9-1.2 2.8-1.2 3-1.3 2.8-1.2 3-1.2 2.8-1.3 2.9-1.2 2.9-1.2 2.9-1.3 2.9-1.2 2.9-1.2 2.9-1.3 2.8-1.2 3-1.3 2.8-1.2 3-1.2 2.8-1.3 2.9-1.2 2.9-1.2 2.9-1.3 2.9-1.2 2.9-1.2 2.8-1.3 3-1.2 2.8-1.2 3-1.3 2.8-1.2 2.9-1.3 2.9-1.2 2.9-1.2 2.9-1.3 2.9-1.2 2.8-1.2 3-1.3" fill="none" stroke="#4c72b0" stroke-linecap="round" stroke-width="2.6" id="line2d_31"/><path d="M54.3 228.4V11" fill="none" id="patch_3"/><path d="M389.1 228.4V11" fill="none" id="patch_4"/><path d="M54.3 228.4h334.8" fill="none" id="patch_5"/><path d="M54.3 11h334.8" fill="none" id="patch_6"/></g></g><defs><clipPath id="p3cfdbb2be5"><path d="M54.3 11h334.8v217.4H54.3z"/></clipPath></defs></svg>