<svg viewBox="0 0 409 278" xmlns="http://www.w3.org/2000/svg" xmlns:xlink="http://www.w3.org/1999/xlink"><defs><style>*{stroke-linecap:butt;stroke-linejoin:round}</style></defs><g id="figure_1"><path d="M0 278.3h409V0H0z" fill="#fff" id="patch_1"/><g id="axes_1"><path d="M67 239.8h334.8V22.3H67z" fill="#eaeaf2" id="patch_2"/><g id="matplotlib.axis_1"><g id="xtick_1"><g id="text_1"><defs><path d="M9.8 73h14.7l18.6-49.7 18.7 49.6h14.7V0H67v64L48 14H38L19.5 64V0H9.8z" id="DejaVuSans-4d"/><path d="M56.2 29.6v-4.4H14.9q.6-9.3 5.6-14.1 5-4.9 14-4.9 5 0 10 1.3 4.8 1.2 9.6 3.8V2.8q-4.8-2-10-3.1-5-1.1-10.2-1.1-13.1 0-20.7 7.6-7.7 7.6-7.7 20.6 0 13.4 7.3 21.3Q20 56 32.3 56q11 0 17.5-7.1 6.4-7.1 6.4-19.3zm-9 2.6q0 7.4-4.1 11.8-4 4.4-10.7 4.4-7.5 0-12-4.3-4.5-4.2-5.2-12z" id="DejaVuSans-65"/><path d="M52 44.2q3.4 6 8 9Q64.9 56 71 56q8.6 0 13.3-6 4.6-6 4.6-17V0h-9v32.7q0 7.9-2.8 11.7-2.8 3.8-8.5 3.8-7 0-11-4.7-4-4.6-4-12.6V0h-9.1v32.7q0 8-2.8 11.7-2.8 3.8-8.6 3.8-6.9 0-11-4.7-4-4.6-4-12.6V0h-9v54.7h9v-8.5q3 5 7.4 7.4Q29.8 56 35.7 56q6 0 10.1-3 4.2-3 6.2-8.8z" id="DejaVuSans-6d"/><path d="M48.7 27.3q0 9.9-4 15.5-4.2 5.7-11.3 5.7-7.1 0-11.2-5.7-4-5.6-4-15.5 0-10 4-15.6t11.2-5.6q7.1 0 11.2 5.7 4 5.6 4 15.5zM18 46.3q2.9 5 7.2 7.3Q29.6 56 35.6 56q10 0 16.2-8Q58 40.3 58 27.4q0-12.9-6.2-20.8-6.2-8-16.2-8-6 0-10.3 2.5Q21 3.3 18 8.2V0h-9v76h9z" id="DejaVuSans-62"/><path d="M41.1 46.3q-1.5.9-3.3 1.3-1.8.4-4 .4-7.5 0-11.6-5-4-5-4-14.2V0H9v54.7h9v-8.5q2.9 5 7.4 7.4Q30 56 36.5 56l2-.1 2.6-.4z" id="DejaVuSans-72"/></defs><g transform="matrix(.1 0 0 -.1 130.2 254.4)" fill="#262626"><use xlink:href="#DejaVuSans-4d"/><use x="86.3" xlink:href="#DejaVuSans-65"/><use x="147.8" xlink:href="#DejaVuSans-6d"/><use x="245.2" xlink:href="#DejaVuSans-62"/><use x="308.7" xlink:href="#DejaVuSans-65"/><use x="370.2" xlink:href="#DejaVuSans-72"/></g></g></g><g id="xtick_2"><g id="text_2"><defs><path d="M64.4 67.3V56.9q-5 4.6-10.6 7Q48 66 41.8 66q-12.5 0-19.1-7.6Q16 50.8 16 36.4q0-14.4 6.7-22 6.6-7.7 19.1-7.7 6.3 0 12 2.3 5.6 2.3 10.6 7V5.5q-5.2-3.5-11-5.3-5.7-1.7-12.2-1.7-16.5 0-26 10.1-9.6 10.1-9.6 27.7T15.1 64q9.6 10.1 26.1 10.1 6.5 0 12.3-1.7 5.8-1.8 11-5.2z" id="DejaVuSans-43"/><path d="M34.3 27.5q-11 0-15.1-2.5-4.2-2.5-4.2-8.5 0-4.8 3.1-7.6 3.2-2.8 8.6-2.8 7.5 0 12 5.3t4.5 14v2zm17.9 3.7V0h-9v8.3q-3-5-7.7-7.3Q31-1.4 24.3-1.4 16-1.4 11 3.3 6 8 6 15.9q0 9.2 6.2 14 6.2 4.6 18.4 4.6h12.6v1q0 6.1-4 9.5-4.1 3.4-11.5 3.4-4.7 0-9.2-1.1-4.4-1.2-8.5-3.4v8.3q5 2 9.6 2.8 4.6 1 9 1 11.9 0 17.7-6.2 5.9-6.1 5.9-18.6z" id="DejaVuSans-61"/><path d="M44.3 53v-8.4q-3.8 2-8 2.9-4 1-8.4 1-6.7 0-10-2-3.4-2.1-3.4-6.2 0-3.1 2.4-5 2.4-1.7 9.6-3.3l3-.7q9.7-2 13.7-5.8 4-3.7 4-10.4 0-7.6-6-12-6-4.5-16.6-4.5-4.4 0-9.1.8-4.8.9-10 2.6v9.3q5-2.6 9.7-4 4.9-1.2 9.6-1.2 6.4 0 9.8 2.2 3.4 2.2 3.4 6.1 0 3.7-2.5 5.6-2.4 2-10.8 3.8l-3.1.7q-8.4 1.8-12 5.4-3.8 3.6-3.8 10 0 7.7 5.5 11.9Q16.7 56 26.8 56q5 0 9.4-.7 4.4-.8 8-2.2z" id="DejaVuSans-73"/><path d="M8.5 21.6v33h9V22q0-7.7 3-11.6 3-4 9-4 7.4 0 11.6 4.7 4.2 4.7 4.2 12.7v31h9V0h-9v8.4Q42 3.4 37.7 1q-4.3-2.4-10-2.4-9.4 0-14.3 5.8-4.9 5.9-4.9 17.2zM31.1 56z" id="DejaVuSans-75"/><path d="M9.4 76h9V0h-9z" id="DejaVuSans-6c"/></defs><g transform="matrix(.1 0 0 -.1 301.3 254.4)" fill="#262626"><use xlink:href="#DejaVuSans-43"/><use x="69.8" xlink:href="#DejaVuSans-61"/><use x="131.1" xlink:href="#DejaVuSans-73"/><use x="183.2" xlink:href="#DejaVuSans-75"/><use x="246.6" xlink:href="#DejaVuSans-61"/><use x="307.9" xlink:href="#DejaVuSans-6c"/></g></g></g><g id="text_3"><defs><path d="M34.2 63.2L20.8 26.9h26.8zm-5.6 9.7h11.2L67.6 0H57.3l-6.6 18.7H17.8L11.2 0H.8z" id="DejaVuSans-41"/><path d="M48.8 52.6v-8.4Q45 46.3 41 47.3q-3.8 1-7.7 1-8.7 0-13.6-5.5Q15 37.3 15 27.3t4.8-15.6q4.9-5.5 13.6-5.5 4 0 7.7 1 3.9 1.1 7.7 3.2V2.1Q45 .3 41-.5q-4-1-8.6-1-12.3 0-19.6 7.8-7.3 7.8-7.3 21 0 13.4 7.4 21Q20.2 56 33 56q4.2 0 8.1-.9 4-.8 7.7-2.5z" id="DejaVuSans-63"/><path d="M30.6 48.4q-7.2 0-11.4-5.6Q15 37 15 27.3t4.2-15.5q4.1-5.6 11.4-5.6 7.2 0 11.4 5.7 4.2 5.6 4.2 15.4 0 9.7-4.2 15.4-4.2 5.7-11.4 5.7zm0 7.6q11.7 0 18.4-7.6 6.7-7.6 6.7-21.1 0-13.4-6.7-21-6.7-7.7-18.4-7.7-11.8 0-18.4 7.6Q5.5 14 5.5 27.3q0 13.5 6.7 21Q18.8 56 30.6 56z" id="DejaVuSans-6f"/><path d="M54.9 33V0h-9v32.7q0 7.8-3 11.6-3 3.9-9.1 3.9-7.3 0-11.5-4.7Q18.1 39 18.1 31V0h-9v54.7h9v-8.5q3.2 5 7.6 7.4Q30.1 56 35.8 56q9.4 0 14.2-5.8Q55 44.3 55 33z" id="DejaVuSans-6e"/><path d="M18.3 70.2V54.7h18.5v-7H18.3V18q0-6.7 1.8-8.6 1.9-1.9 7.5-1.9h9.2V0h-9.2Q17.2 0 13.2 3.9T9.2 18v29.7H2.8v7h6.6v15.5z" id="DejaVuSans-74"/><path d="M32.2-5q-3.8-9.8-7.5-12.8-3.6-3-9.6-3H7.9v7.5h5.3q3.7 0 5.7 1.8 2.1 1.7 4.6 8.3l1.6 4L3 54.8h9.5l17-42.8 17.2 42.8h9.5z" id="DejaVuSans-79"/><path d="M18.1 8.2v-29h-9v75.5h9v-8.3q2.9 4.9 7.2 7.2Q29.6 56 35.6 56q10 0 16.2-8Q58 40.3 58 27.4q0-12.9-6.2-20.8-6.2-8-16.2-8-6 0-10.3 2.5Q21 3.3 18 8.2zm30.6 19.1q0 9.9-4 15.5-4.2 5.7-11.3 5.7-7.1 0-11.2-5.7-4-5.6-4-15.5 0-10 4-15.6t11.2-5.6q7.1 0 11.2 5.7 4 5.6 4 15.5z" id="DejaVuSans-70"/></defs><g transform="matrix(.11 0 0 -.11 198 268.8)" fill="#262626"><use xlink:href="#DejaVuSans-41"/><use x="68.4" xlink:href="#DejaVuSans-63"/><use x="123.4" xlink:href="#DejaVuSans-63"/><use x="178.4" xlink:href="#DejaVuSans-6f"/><use x="239.5" xlink:href="#DejaVuSans-75"/><use x="302.9" xlink:href="#DejaVuSans-6e"/><use x="366.3" xlink:href="#DejaVuSans-74"/><use x="405.5" xlink:href="#DejaVuSans-20"/><use x="437.3" xlink:href="#DejaVuSans-74"/><use x="476.5" xlink:href="#DejaVuSans-79"/><use x="535.7" xlink:href="#DejaVuSans-70"/><use x="599.2" xlink:href="#DejaVuSans-65"/></g></g></g><g id="matplotlib.axis_2"><g id="ytick_1"><path clip-path="url(#p7b9be30b31)" d="M67 239.8h334.8" fill="none" stroke="#fff" stroke-linecap="round" id="line2d_3"/><g id="text_4"><defs><path d="M31.8 66.4q-7.6 0-11.5-7.5-3.8-7.5-3.8-22.5t3.8-22.5q3.9-7.5 11.5-7.5 7.7 0 11.5 7.5T47 36.4q0 15-3.8 22.5t-11.5 7.5zm0 7.8q12.2 0 18.7-9.7T57 36.4Q57 18 50.5 8.3 44-1.4 31.8-1.4 19.5-1.4 13 8.3q-6.5 9.7-6.5 28 0 18.5 6.5 28.2 6.4 9.7 18.7 9.7z" id="DejaVuSans-30"/></defs><use xlink:href="#DejaVuSans-30" transform="matrix(.1 0 0 -.1 53.7 243.6)" fill="#262626"/></g></g><g id="ytick_2"><path clip-path="url(#p7b9be30b31)" d="M67 204h334.8" fill="none" stroke="#fff" stroke-linecap="round" id="line2d_5"/><g id="text_5"><defs><path d="M10.8 73h38.7v-8.4H19.8V46.7q2.2.8 4.3 1.1 2.2.4 4.3.4 12.2 0 19.4-6.7 7-6.7 7-18.1 0-11.8-7.2-18.3-7.4-6.5-20.7-6.5-4.6 0-9.4.8-4.7.7-9.8 2.3v10q4.4-2.5 9.1-3.6 4.7-1.2 9.9-1.2 8.5 0 13.4 4.4 5 4.5 5 12 0 7.7-5 12.1Q35 40 26.7 40q-4 0-7.9-.9-4-.9-8-2.7z" id="DejaVuSans-35"/></defs><g transform="matrix(.1 0 0 -.1 28.2 207.9)" fill="#262626"><use xlink:href="#DejaVuSans-35"/><use x="63.6" xlink:href="#DejaVuSans-30"/><use x="127.2" xlink:href="#DejaVuSans-30"/><use x="190.9" xlink:href="#DejaVuSans-30"/><use x="254.5" xlink:href="#DejaVuSans-30"/></g></g></g><g id="ytick_3"><path clip-path="url(#p7b9be30b31)" d="M67 168.4h334.8" fill="none" stroke="#fff" stroke-linecap="round" id="line2d_7"/><g id="text_6"><defs><path d="M12.4 8.3h16.1v55.6L11 60.4v9l17.4 3.5h9.9V8.3h16V0H12.5z" id="DejaVuSans-31"/></defs><g transform="matrix(.1 0 0 -.1 21.8 172.2)" fill="#262626"><use xlink:href="#DejaVuSans-31"/><use x="63.6" xlink:href="#DejaVuSans-30"/><use x="127.2" xlink:href="#DejaVuSans-30"/><use x="190.9" xlink:href="#DejaVuSans-30"/><use x="254.5" xlink:href="#DejaVuSans-30"/><use x="318.1" xlink:href="#DejaVuSans-30"/></g></g></g><g id="ytick_4"><path clip-path="url(#p7b9be30b31)" d="M67 132.7h334.8" fill="none" stroke="#fff" stroke-linecap="round" id="line2d_9"/><g transform="matrix(.1 0 0 -.1 21.8 136.5)" fill="#262626" id="text_7"><use xlink:href="#DejaVuSans-31"/><use x="63.6" xlink:href="#DejaVuSans-35"/><use x="127.2" xlink:href="#DejaVuSans-30"/><use x="190.9" xlink:href="#DejaVuSans-30"/><use x="254.5" xlink:href="#DejaVuSans-30"/><use x="318.1" xlink:href="#DejaVuSans-30"/></g></g><g id="ytick_5"><path clip-path="url(#p7b9be30b31)" d="M67 97h334.8" fill="none" stroke="#fff" stroke-linecap="round" id="line2d_11"/><g id="text_8"><defs><path d="M19.2 8.3h34.4V0H7.3v8.3l15.3 15.6q9.7 9.8 12.2 12.6 4.7 5.3 6.6 9 2 3.7 2 7.3 0 5.8-4.2 9.5-4 3.6-10.6 3.6-4.6 0-9.8-1.6-5.1-1.6-11-4.9v10q6 2.4 11.1 3.6 5.2 1.2 9.5 1.2 11.4 0 18-5.7 6.8-5.6 6.8-15 0-4.6-1.7-8.6-1.6-4-6-9.5l-7.9-8.2L19.2 8.3z" id="DejaVuSans-32"/></defs><g transform="matrix(.1 0 0 -.1 21.8 100.8)" fill="#262626"><use xlink:href="#DejaVuSans-32"/><use x="63.6" xlink:href="#DejaVuSans-30"/><use x="127.2" xlink:href="#DejaVuSans-30"/><use x="190.9" xlink:href="#DejaVuSans-30"/><use x="254.5" xlink:href="#DejaVuSans-30"/><use x="318.1" xlink:href="#DejaVuSans-30"/></g></g></g><g id="ytick_6"><path clip-path="url(#p7b9be30b31)" d="M67 61.3h334.8" fill="none" stroke="#fff" stroke-linecap="round" id="line2d_13"/><g transform="matrix(.1 0 0 -.1 21.8 65)" fill="#262626" id="text_9"><use xlink:href="#DejaVuSans-32"/><use x="63.6" xlink:href="#DejaVuSans-35"/><use x="127.2" xlink:href="#DejaVuSans-30"/><use x="190.9" xlink:href="#DejaVuSans-30"/><use x="254.5" xlink:href="#DejaVuSans-30"/><use x="318.1" xlink:href="#DejaVuSans-30"/></g></g><g id="ytick_7"><path clip-path="url(#p7b9be30b31)" d="M67 25.6h334.8" fill="none" stroke="#fff" stroke-linecap="round" id="line2d_15"/><g id="text_10"><defs><path d="M40.6 39.3q7-1.5 11-6.3t4-11.8q0-10.8-7.4-16.7-7.4-6-21.1-6-4.6 0-9.4 1-4.9.9-10 2.7v9.5q4-2.4 8.9-3.6Q21.5 7 26.8 7q9.3 0 14.1 3.6 4.9 3.7 4.9 10.7 0 6.4-4.5 10Q36.8 35 28.7 35h-8.5V43h9q7.2 0 11 3 3.9 2.8 3.9 8.3 0 5.6-4 8.6t-11.4 3q-4 0-8.7-.9-4.6-.8-10.2-2.7v8.8q5.6 1.6 10.5 2.3 5 .8 9.3.8 11.2 0 17.8-5 6.5-5.2 6.5-13.9 0-6-3.5-10.2-3.4-4.2-9.8-5.8z" id="DejaVuSans-33"/></defs><g transform="matrix(.1 0 0 -.1 21.8 29.4)" fill="#262626"><use xlink:href="#DejaVuSans-33"/><use x="63.6" xlink:href="#DejaVuSans-30"/><use x="127.2" xlink:href="#DejaVuSans-30"/><use x="190.9" xlink:href="#DejaVuSans-30"/><use x="254.5" xlink:href="#DejaVuSans-30"/><use x="318.1" xlink:href="#DejaVuSans-30"/></g></g></g><g transform="matrix(0 -.11 -.11 0 15.6 146.6)" fill="#262626" id="text_11"><use xlink:href="#DejaVuSans-63"/><use x="55" xlink:href="#DejaVuSans-6f"/><use x="116.2" xlink:href="#DejaVuSans-75"/><use x="179.5" xlink:href="#DejaVuSans-6e"/><use x="242.9" xlink:href="#DejaVuSans-74"/></g></g><path clip-path="url(#p7b9be30b31)" d="M83.8 239.8h133.9V32.7h-134z" fill="#5875a4" id="patch_3"/><path clip-path="url(#p7b9be30b31)" d="M251.2 239.8H385V117.9H251z" fill="#5f9e6e" id="patch_4"/><path d="M67 239.8V22.3" fill="none" id="patch_5"/><path d="M401.8 239.8V22.3" fill="none" id="patch_6"/><path d="M67 239.8h334.8" fill="none" id="patch_7"/><path d="M67 22.3h334.8" fill="none" id="patch_8"/><g id="text_12"><defs><path d="M11 1.5v9q3.7-1.8 7.5-2.7 3.8-1 7.5-1 9.8 0 14.9 6.7 5.1 6.5 5.9 20-2.8-4.3-7.2-6.5-4.4-2.3-9.6-2.3-11 0-17.3 6.6Q6.3 38 6.3 49.4q0 11.2 6.6 18 6.7 6.8 17.7 6.8 12.7 0 19.3-9.7 6.7-9.7 6.7-28.1 0-17.3-8.2-27.5-8.2-10.3-22-10.3-3.7 0-7.5.7t-8 2.2zm19.6 31q6.6 0 10.5 4.5 4 4.5 4 12.4t-4 12.4q-3.9 4.6-10.5 4.6t-10.5-4.6q-3.9-4.5-3.9-12.4T20.1 37q3.9-4.6 10.5-4.6z" id="DejaVuSans-39"/><path d="M8.2 73h46.9v-4.3L28.6 0H18.3l25 64.6H8.1z" id="DejaVuSans-37"/></defs><g transform="matrix(.12 0 0 -.12 127.8 30.2)" fill="#262626"><use xlink:href="#DejaVuSans-32"/><use x="63.6" xlink:href="#DejaVuSans-39"/><use x="127.2" xlink:href="#DejaVuSans-30"/><use x="190.9" xlink:href="#DejaVuSans-30"/><use x="254.5" xlink:href="#DejaVuSans-37"/><use x="318.1" xlink:href="#DejaVuSans-30"/></g></g><g id="text_13"><defs><path d="M33 40.4q-6.6 0-10.5-4.6-3.9-4.5-3.9-12.4T22.5 11Q26.4 6.4 33 6.4q6.7 0 10.5 4.6 4 4.5 4 12.4t-4 12.4q-3.8 4.6-10.5 4.6zm19.6 30.9v-9Q48.9 64.1 45 65q-3.8 1-7.5 1-9.8 0-15-6.7-5-6.6-5.8-19.9 2.9 4.3 7.2 6.5 4.4 2.3 9.6 2.3 11 0 17.4-6.7 6.3-6.6 6.3-18.1 0-11.2-6.6-18Q44-1.4 33-1.4q-12.6 0-19.3 9.7Q7 18 7 36.3 7 53.8 15.2 64q8.2 10.3 22 10.3 3.7 0 7.5-.7 3.8-.8 7.9-2.2z" id="DejaVuSans-36"/><path d="M37.8 64.3l-25-39h25zM35.2 73h12.4V25.4H58v-8.2H47.6V0h-9.8v17.2h-33v9.5z" id="DejaVuSans-34"/><path d="M31.8 34.6q-7 0-11-3.7-4.1-3.8-4.1-10.4 0-6.6 4-10.3 4-3.8 11-3.8 7.1 0 11.2 3.8 4 3.8 4 10.3 0 6.6-4 10.4-4 3.7-11.1 3.7zm-9.9 4.2q-6.3 1.6-9.9 6Q8.5 49 8.5 55.2q0 8.8 6.2 13.8 6.3 5.1 17 5.1 11 0 17.2-5Q55 64 55 55.2q0-6.2-3.6-10.6-3.5-4.3-9.8-5.9 7.1-1.6 11.1-6.5 4-4.8 4-11.8 0-10.6-6.5-16.3-6.5-5.6-18.5-5.6T13.2 4.2Q6.8 10 6.8 20.5q0 7 4 11.8 4 4.9 11.1 6.5zm-3.6 15.6q0-5.7 3.5-8.8 3.6-3.2 10-3.2 6.3 0 10 3.2 3.5 3.1 3.5 8.8 0 5.7-3.6 8.8-3.6 3.2-10 3.2-6.3 0-9.9-3.2-3.5-3.1-3.5-8.8z" id="DejaVuSans-38"/></defs><g transform="matrix(.12 0 0 -.12 295.2 115.4)" fill="#262626"><use xlink:href="#DejaVuSans-31"/><use x="63.6" xlink:href="#DejaVuSans-37"/><use x="127.2" xlink:href="#DejaVuSans-30"/><use x="190.9" xlink:href="#DejaVuSans-36"/><use x="254.5" xlink:href="#DejaVuSans-34"/><use x="318.1" xlink:href="#DejaVuSans-38"/></g></g><g transform="matrix(.12 0 0 -.12 191.7 16.3)" fill="#262626" id="text_14"><use xlink:href="#DejaVuSans-41"/><use x="68.4" xlink:href="#DejaVuSans-63"/><use x="123.4" xlink:href="#DejaVuSans-63"/><use x="178.4" xlink:href="#DejaVuSans-6f"/><use x="239.5" xlink:href="#DejaVuSans-75"/><use x="302.9" xlink:href="#DejaVuSans-6e"/><use x="366.3" xlink:href="#DejaVuSans-74"/><use x="405.5" xlink:href="#DejaVuSans-20"/><use x="437.3" xlink:href="#DejaVuSans-74"/><use x="476.5" xlink:href="#DejaVuSans-79"/><use x="535.7" xlink:href="#DejaVuSans-70"/><use x="599.2" xlink:href="#DejaVuSans-65"/><use x="660.7" xlink:href="#DejaVuSans-73"/></g></g></g><defs><clipPath id="p7b9be30b31"><path d="M67 22.3h334.8v217.4H67z"/></clipPath></defs></svg>