<svg viewBox="0 0 386 278" xmlns="http://www.w3.org/2000/svg" xmlns:xlink="http://www.w3.org/1999/xlink"><defs><style>*{stroke-linecap:butt;stroke-linejoin:round}</style></defs><g id="figure_1"><path d="M0 278.3h386.7V0H0z" fill="#fff" id="patch_1"/><g id="axes_1"><path d="M44.7 239.8h334.8V22.3H44.7z" fill="#eaeaf2" id="patch_2"/><g id="matplotlib.axis_1"><g id="xtick_1"><g id="text_1"><defs><path d="M31.8 66.4q-7.6 0-11.5-7.5-3.8-7.5-3.8-22.5t3.8-22.5q3.9-7.5 11.5-7.5 7.7 0 11.5 7.5T47 36.4q0 15-3.8 22.5t-11.5 7.5zm0 7.8q12.2 0 18.7-9.7T57 36.4Q57 18 50.5 8.3 44-1.4 31.8-1.4 19.5-1.4 13 8.3q-6.5 9.7-6.5 28 0 18.5 6.5 28.2 6.4 9.7 18.7 9.7z" id="DejaVuSans-30"/></defs><use xlink:href="#DejaVuSans-30" transform="matrix(.1 0 0 -.1 56 254.4)" fill="#262626"/></g></g><g id="xtick_2"><g id="text_2"><defs><path d="M10.8 73h38.7v-8.4H19.8V46.7q2.2.8 4.3 1.1 2.2.4 4.3.4 12.2 0 19.4-6.7 7-6.7 7-18.1 0-11.8-7.2-18.3-7.4-6.5-20.7-6.5-4.6 0-9.4.8-4.7.7-9.8 2.3v10q4.4-2.5 9.1-3.6 4.7-1.2 9.9-1.2 8.5 0 13.4 4.4 5 4.5 5 12 0 7.7-5 12.1Q35 40 26.7 40q-4 0-7.9-.9-4-.9-8-2.7z" id="DejaVuSans-35"/></defs><g transform="matrix(.1 0 0 -.1 94.6 254.4)" fill="#262626"><use xlink:href="#DejaVuSans-35"/><use x="63.6" xlink:href="#DejaVuSans-30"/></g></g></g><g id="xtick_3"><g id="text_3"><defs><path d="M12.4 8.3h16.1v55.6L11 60.4v9l17.4 3.5h9.9V8.3h16V0H12.5z" id="DejaVuSans-31"/></defs><g transform="matrix(.1 0 0 -.1 133.2 254.4)" fill="#262626"><use xlink:href="#DejaVuSans-31"/><use x="63.6" xlink:href="#DejaVuSans-30"/><use x="127.2" xlink:href="#DejaVuSans-30"/></g></g></g><g id="xtick_4"><g transform="matrix(.1 0 0 -.1 175 254.4)" fill="#262626" id="text_4"><use xlink:href="#DejaVuSans-31"/><use x="63.6" xlink:href="#DejaVuSans-35"/><use x="127.2" xlink:href="#DejaVuSans-30"/></g></g><g id="xtick_5"><g id="text_5"><defs><path d="M19.2 8.3h34.4V0H7.3v8.3l15.3 15.6q9.7 9.8 12.2 12.6 4.7 5.3 6.6 9 2 3.7 2 7.3 0 5.8-4.2 9.5-4 3.6-10.6 3.6-4.6 0-9.8-1.6-5.1-1.6-11-4.9v10q6 2.4 11.1 3.6 5.2 1.2 9.5 1.2 11.4 0 18-5.7 6.8-5.6 6.8-15 0-4.6-1.7-8.6-1.6-4-6-9.5l-7.9-8.2L19.2 8.3z" id="DejaVuSans-32"/></defs><g transform="matrix(.1 0 0 -.1 216.8 254.4)" fill="#262626"><use xlink:href="#DejaVuSans-32"/><use x="63.6" xlink:href="#DejaVuSans-30"/><use x="127.2" xlink:href="#DejaVuSans-30"/></g></g></g><g id="xtick_6"><g transform="matrix(.1 0 0 -.1 258.6 254.4)" fill="#262626" id="text_6"><use xlink:href="#DejaVuSans-32"/><use x="63.6" xlink:href="#DejaVuSans-35"/><use x="127.2" xlink:href="#DejaVuSans-30"/></g></g><g id="xtick_7"><g id="text_7"><defs><path d="M40.6 39.3q7-1.5 11-6.3t4-11.8q0-10.8-7.4-16.7-7.4-6-21.1-6-4.6 0-9.4 1-4.9.9-10 2.7v9.5q4-2.4 8.9-3.6Q21.5 7 26.8 7q9.3 0 14.1 3.6 4.9 3.7 4.9 10.7 0 6.4-4.5 10Q36.8 35 28.7 35h-8.5V43h9q7.2 0 11 3 3.9 2.8 3.9 8.3 0 5.6-4 8.6t-11.4 3q-4 0-8.7-.9-4.6-.8-10.2-2.7v8.8q5.6 1.6 10.5 2.3 5 .8 9.3.8 11.2 0 17.8-5 6.5-5.2 6.5-13.9 0-6-3.5-10.2-3.4-4.2-9.8-5.8z" id="DejaVuSans-33"/></defs><g transform="matrix(.1 0 0 -.1 300.4 254.4)" fill="#262626"><use xlink:href="#DejaVuSans-33"/><use x="63.6" xlink:href="#DejaVuSans-30"/><use x="127.2" xlink:href="#DejaVuSans-30"/></g></g></g><g id="xtick_8"><g transform="matrix(.1 0 0 -.1 342.2 254.4)" fill="#262626" id="text_8"><use xlink:href="#DejaVuSans-33"/><use x="63.6" xlink:href="#DejaVuSans-35"/><use x="127.2" xlink:href="#DejaVuSans-30"/></g></g><g id="text_9"><defs><path d="M19.7 64.8V8.1h11.9q15 0 22 6.8 7 6.9 7 21.6 0 14.7-7 21.5-7 6.8-22 6.8zm-9.9 8.1h20.3q21.2 0 31-8.8 10-8.8 10-27.6T61 8.8Q51.1 0 30.1 0H9.8z" id="DejaVuSans-44"/><path d="M34.3 27.5q-11 0-15.1-2.5-4.2-2.5-4.2-8.5 0-4.8 3.1-7.6 3.2-2.8 8.6-2.8 7.5 0 12 5.3t4.5 14v2zm17.9 3.7V0h-9v8.3q-3-5-7.7-7.3Q31-1.4 24.3-1.4 16-1.4 11 3.3 6 8 6 15.9q0 9.2 6.2 14 6.2 4.6 18.4 4.6h12.6v1q0 6.1-4 9.5-4.1 3.4-11.5 3.4-4.7 0-9.2-1.1-4.4-1.2-8.5-3.4v8.3q5 2 9.6 2.8 4.6 1 9 1 11.9 0 17.7-6.2 5.9-6.1 5.9-18.6z" id="DejaVuSans-61"/><path d="M32.2-5q-3.8-9.8-7.5-12.8-3.6-3-9.6-3H7.9v7.5h5.3q3.7 0 5.7 1.8 2.1 1.7 4.6 8.3l1.6 4L3 54.8h9.5l17-42.8 17.2 42.8h9.5z" id="DejaVuSans-79"/><path d="M30.6 48.4q-7.2 0-11.4-5.6Q15 37 15 27.3t4.2-15.5q4.1-5.6 11.4-5.6 7.2 0 11.4 5.7 4.2 5.6 4.2 15.4 0 9.7-4.2 15.4-4.2 5.7-11.4 5.7zm0 7.6q11.7 0 18.4-7.6 6.7-7.6 6.7-21.1 0-13.4-6.7-21-6.7-7.7-18.4-7.7-11.8 0-18.4 7.6Q5.5 14 5.5 27.3q0 13.5 6.7 21Q18.8 56 30.6 56z" id="DejaVuSans-6f"/><path d="M37.1 76v-7.5h-8.6q-4.8 0-6.7-2-1.9-2-1.9-7v-4.8h14.8v-7H20V0h-9v47.7H2.3v7h8.6v3.8q0 9.1 4.2 13.3Q19.4 76 28.6 76z" id="DejaVuSans-66"/><path d="M56.2 29.6v-4.4H14.9q.6-9.3 5.6-14.1 5-4.9 14-4.9 5 0 10 1.3 4.8 1.2 9.6 3.8V2.8q-4.8-2-10-3.1-5-1.1-10.2-1.1-13.1 0-20.7 7.6-7.7 7.6-7.7 20.6 0 13.4 7.3 21.3Q20 56 32.3 56q11 0 17.5-7.1 6.4-7.1 6.4-19.3zm-9 2.6q0 7.4-4.1 11.8-4 4.4-10.7 4.4-7.5 0-12-4.3-4.5-4.2-5.2-12z" id="DejaVuSans-65"/><path d="M41.1 46.3q-1.5.9-3.3 1.3-1.8.4-4 .4-7.5 0-11.6-5-4-5-4-14.2V0H9v54.7h9v-8.5q2.9 5 7.4 7.4Q30 56 36.5 56l2-.1 2.6-.4z" id="DejaVuSans-72"/></defs><g transform="matrix(.11 0 0 -.11 180.2 268.8)" fill="#262626"><use xlink:href="#DejaVuSans-44"/><use x="77" xlink:href="#DejaVuSans-61"/><use x="138.3" xlink:href="#DejaVuSans-79"/><use x="197.5" xlink:href="#DejaVuSans-20"/><use x="229.2" xlink:href="#DejaVuSans-6f"/><use x="290.4" xlink:href="#DejaVuSans-66"/><use x="325.6" xlink:href="#DejaVuSans-20"/><use x="357.4" xlink:href="#DejaVuSans-79"/><use x="416.6" xlink:href="#DejaVuSans-65"/><use x="478.1" xlink:href="#DejaVuSans-61"/><use x="539.4" xlink:href="#DejaVuSans-72"/></g></g></g><g id="matplotlib.axis_2"><g id="ytick_1"><g id="text_10"><defs><path d="M10.7 12.4H21V0H10.7z" id="DejaVuSans-2e"/></defs><g transform="matrix(.1 0 0 -.1 21.8 233.7)" fill="#262626"><use xlink:href="#DejaVuSans-30"/><use x="63.6" xlink:href="#DejaVuSans-2e"/><use x="95.4" xlink:href="#DejaVuSans-30"/></g></g></g><g id="ytick_2"><g transform="matrix(.1 0 0 -.1 21.8 185.5)" fill="#262626" id="text_11"><use xlink:href="#DejaVuSans-30"/><use x="63.6" xlink:href="#DejaVuSans-2e"/><use x="95.4" xlink:href="#DejaVuSans-35"/></g></g><g id="ytick_3"><g transform="matrix(.1 0 0 -.1 21.8 137.2)" fill="#262626" id="text_12"><use xlink:href="#DejaVuSans-31"/><use x="63.6" xlink:href="#DejaVuSans-2e"/><use x="95.4" xlink:href="#DejaVuSans-30"/></g></g><g id="ytick_4"><g transform="matrix(.1 0 0 -.1 21.8 89)" fill="#262626" id="text_13"><use xlink:href="#DejaVuSans-31"/><use x="63.6" xlink:href="#DejaVuSans-2e"/><use x="95.4" xlink:href="#DejaVuSans-35"/></g></g><g id="ytick_5"><g transform="matrix(.1 0 0 -.1 21.8 40.8)" fill="#262626" id="text_14"><use xlink:href="#DejaVuSans-32"/><use x="63.6" xlink:href="#DejaVuSans-2e"/><use x="95.4" xlink:href="#DejaVuSans-30"/></g></g><g id="text_15"><defs><path d="M19.7 64.8V37.4H32q6.9 0 10.6 3.6 3.8 3.5 3.8 10.1t-3.8 10.1q-3.7 3.6-10.6 3.6zm-9.9 8.1h22.3q12.2 0 18.5-5.5Q57 61.8 57 51q0-10.8-6.3-16.3t-18.5-5.5H19.7V0H9.8z" id="DejaVuSans-50"/><path d="M48.8 52.6v-8.4Q45 46.3 41 47.3q-3.8 1-7.7 1-8.7 0-13.6-5.5Q15 37.3 15 27.3t4.8-15.6q4.9-5.5 13.6-5.5 4 0 7.7 1 3.9 1.1 7.7 3.2V2.1Q45 .3 41-.5q-4-1-8.6-1-12.3 0-19.6 7.8-7.3 7.8-7.3 21 0 13.4 7.4 21Q20.2 56 33 56q4.2 0 8.1-.9 4-.8 7.7-2.5z" id="DejaVuSans-63"/><path d="M9.4 54.7h9V0h-9zm0 21.3h9V64.6h-9z" id="DejaVuSans-69"/><path d="M18.1 8.2v-29h-9v75.5h9v-8.3q2.9 4.9 7.2 7.2Q29.6 56 35.6 56q10 0 16.2-8Q58 40.3 58 27.4q0-12.9-6.2-20.8-6.2-8-16.2-8-6 0-10.3 2.5Q21 3.3 18 8.2zm30.6 19.1q0 9.9-4 15.5-4.2 5.7-11.3 5.7-7.1 0-11.2-5.7-4-5.6-4-15.5 0-10 4-15.6t11.2-5.6q7.1 0 11.2 5.7 4 5.6 4 15.5z" id="DejaVuSans-70"/><path d="M18.3 70.2V54.7h18.5v-7H18.3V18q0-6.7 1.8-8.6 1.9-1.9 7.5-1.9h9.2V0h-9.2Q17.2 0 13.2 3.9T9.2 18v29.7H2.8v7h6.6v15.5z" id="DejaVuSans-74"/><path d="M54.9 33V0h-9v32.7q0 7.8-3 11.6-3 3.9-9.1 3.9-7.3 0-11.5-4.7Q18.1 39 18.1 31V0h-9v54.7h9v-8.5q3.2 5 7.6 7.4Q30.1 56 35.8 56q9.4 0 14.2-5.8Q55 44.3 55 33z" id="DejaVuSans-6e"/><path d="M31 75.9q-6.5-11.2-9.7-22.2-3.2-11-3.2-22.3T21.3 9Q24.5-2 31-13.2h-7.8q-7.3 11.5-11 22.6-3.6 11-3.6 22 0 10.9 3.6 22 3.6 11 11 22.5z" id="DejaVuSans-28"/><path d="M8 75.9h7.8q7.3-11.5 11-22.6 3.6-11 3.6-22 0-10.8-3.6-22-3.7-11-11-22.5H8Q14.5-2 17.7 9.1q3.2 11 3.2 22.3t-3.2 22.3q-3.2 11-9.7 22.2z" id="DejaVuSans-29"/></defs><g transform="matrix(0 -.11 -.11 0 15.6 176.7)" fill="#262626"><use xlink:href="#DejaVuSans-50"/><use x="60.3" xlink:href="#DejaVuSans-72"/><use x="101.4" xlink:href="#DejaVuSans-65"/><use x="162.9" xlink:href="#DejaVuSans-63"/><use x="217.9" xlink:href="#DejaVuSans-69"/><use x="245.7" xlink:href="#DejaVuSans-70"/><use x="309.1" xlink:href="#DejaVuSans-69"/><use x="336.9" xlink:href="#DejaVuSans-74"/><use x="376.1" xlink:href="#DejaVuSans-61"/><use x="437.4" xlink:href="#DejaVuSans-74"/><use x="476.6" xlink:href="#DejaVuSans-69"/><use x="504.4" xlink:href="#DejaVuSans-6f"/><use x="565.6" xlink:href="#DejaVuSans-6e"/><use x="629" xlink:href="#DejaVuSans-20"/><use x="660.7" xlink:href="#DejaVuSans-28"/><use x="699.8" xlink:href="#DejaVuSans-69"/><use x="727.5" xlink:href="#DejaVuSans-6e"/><use x="790.9" xlink:href="#DejaVuSans-29"/></g></g></g><path clip-path="url(#p177bb97a5a)" d="M60 229.9h.8l.8-1 .9 1 .8-1 .8 1h2.6l.8-15.5.8-5.7.9 17.3.8 3.9h2.5l.8-26 .9 26h2.5l.8-2 .9 2h.8l.8-5.8.9 4.8.8 1h1.7l.8-2 .9-8.6.8 9.6.8 1H91l.8-1 .9 1h1.6l.9-2 .8 2h5.9l.8-63.7.8 63.7h5l.9-3.9.8 3 .9.9h2.5l.8-7.7.9 7.7h3.3l.8-10.6.9 10.6h7.5l.8-17.4.9 17.4.8-11.6.8 11.6h1.7l.8-3.9.9 3.9h2.5l.8-4.8.9 4.8h3.3l.8-20.3.9-16.4.8 36.7.9-20.3.8 20.3.8-48.2.9 11.5.8 36.7h.8l.9-23.2.8-58.8.8 82h3.4l.8-83 .9 83h2.5l.8-94.5.8 65.5.9 29h4.2l.8-19.3.8 18.3.9 1h3.3l.8-60.8.9-29.9.8-91.6.9 180.3.8 2 .8-127.3.9 121.5.8 2 .8.9.9 2.9.8-3.9.8 3.9h.9l.8-4.8.9 1.9.8 2.9h5.8l.9-1 .8 1h1.7l.8-85.8.9 55 .8 10.5.8 20.3h1.7l.8-23.2.9 23.2.8-16.4.9 16.4.8-10.6.8-35.7.9 46.3h.8l.8-3 .9 3 .8-52.1.8 41.5.9 5.8.8 4.8h2.5l.9-9.7.8 9.7h4.2l.8-3.9.8 3.9h3.4l.8-86.8.9 83 .8-12.6.8 16.4h.9l.8-1 .8 1h.9l.8-114.8.9 114.8h5l.8-18.3.8-23.2.9 41.5.8-18.3.9-55 .8 73.3h.8l.9-86.8.8 81 .8 5.8h.9L248 64l.8 165 .9-52.2.8-132 .8 184.1.9 1h1.7l.8-4.8.8 4.8h.9l.8-19.3.8-134 .9 144.6.8-10.6.8 19.3h.9l.8-2 .9 2h2.5l.8-11.6.8 10.6.9 1h7.5l.8-3 .9 3 .8-31.8.8 7.7.9 24h2.5l.8-29.8.9 11.6.8 17.3.8 1h1.7l.8-11.6.9-58.8.8-127.3.8 191.9.9 5.8.8-2 .9-60.7.8 60.7.8 2h4.2l.8-56 .9 56h3.3l.9-25.1.8 13.5.8 11.6h2.5l.9-10.6.8-1 .9 11.6h2.5l.8-3.9.8 3.9.9-9.7h.8l.8 9.7h3.4l.8-3.9.9 3.9h.8l.8-1 .9-5.8.8 6.8h.8l.9-5.8.8 5.8h12.6l.8-29 .8 29 .9-1 .8 1 .8-1 .9 1 .8-13.5.8 13.5.9-3 .8 3h.9l.8-4.8.8 4.8h2.5l.9-1 .8 1h4.2l.8-4.8.9 3.8h.8l.8 1h0" fill="none" stroke="#4c72b0" stroke-linecap="round" stroke-width="1.8" id="line2d_14"/><path d="M44.7 239.8V22.3" fill="none" id="patch_3"/><path d="M379.5 239.8V22.3" fill="none" id="patch_4"/><path d="M44.7 239.8h334.8" fill="none" id="patch_5"/><path d="M44.7 22.3h334.8" fill="none" id="patch_6"/><g id="text_16"><defs><path d="M9.4 76h9V0h-9z" id="DejaVuSans-6c"/><path d="M9.8 73h14.7l18.6-49.7 18.7 49.6h14.7V0H67v64L48 14H38L19.5 64V0H9.8z" id="DejaVuSans-4d"/><path d="M44.3 53v-8.4q-3.8 2-8 2.9-4 1-8.4 1-6.7 0-10-2-3.4-2.1-3.4-6.2 0-3.1 2.4-5 2.4-1.7 9.6-3.3l3-.7q9.7-2 13.7-5.8 4-3.7 4-10.4 0-7.6-6-12-6-4.5-16.6-4.5-4.4 0-9.1.8-4.8.9-10 2.6v9.3q5-2.6 9.7-4 4.9-1.2 9.6-1.2 6.4 0 9.8 2.2 3.4 2.2 3.4 6.1 0 3.7-2.5 5.6-2.4 2-10.8 3.8l-3.1.7q-8.4 1.8-12 5.4-3.8 3.6-3.8 10 0 7.7 5.5 11.9Q16.7 56 26.8 56q5 0 9.4-.7 4.4-.8 8-2.2z" id="DejaVuSans-73"/><path d="M8.2 73h46.9v-4.3L28.6 0H18.3l25 64.6H8.1z" id="DejaVuSans-37"/></defs><g transform="matrix(.12 0 0 -.12 84.8 16.3)" fill="#262626"><use xlink:href="#DejaVuSans-44"/><use x="77" xlink:href="#DejaVuSans-61"/><use x="138.3" xlink:href="#DejaVuSans-69"/><use x="166.1" xlink:href="#DejaVuSans-6c"/><use x="193.8" xlink:href="#DejaVuSans-79"/><use x="253" xlink:href="#DejaVuSans-20"/><use x="284.8" xlink:href="#DejaVuSans-70"/><use x="348.3" xlink:href="#DejaVuSans-72"/><use x="389.4" xlink:href="#DejaVuSans-65"/><use x="450.9" xlink:href="#DejaVuSans-63"/><use x="505.9" xlink:href="#DejaVuSans-69"/><use x="533.7" xlink:href="#DejaVuSans-70"/><use x="597.1" xlink:href="#DejaVuSans-69"/><use x="624.9" xlink:href="#DejaVuSans-74"/><use x="664.1" xlink:href="#DejaVuSans-61"/><use x="725.4" xlink:href="#DejaVuSans-74"/><use x="764.6" xlink:href="#DejaVuSans-69"/><use x="792.4" xlink:href="#DejaVuSans-6f"/><use x="853.6" xlink:href="#DejaVuSans-6e"/><use x="917" xlink:href="#DejaVuSans-20"/><use x="948.7" xlink:href="#DejaVuSans-69"/><use x="976.5" xlink:href="#DejaVuSans-6e"/><use x="1039.9" xlink:href="#DejaVuSans-20"/><use x="1071.7" xlink:href="#DejaVuSans-4d"/><use x="1158" xlink:href="#DejaVuSans-69"/><use x="1185.8" xlink:href="#DejaVuSans-6e"/><use x="1249.1" xlink:href="#DejaVuSans-6e"/><use x="1312.5" xlink:href="#DejaVuSans-65"/><use x="1374" xlink:href="#DejaVuSans-61"/><use x="1435.3" xlink:href="#DejaVuSans-70"/><use x="1498.8" xlink:href="#DejaVuSans-6f"/><use x="1560" xlink:href="#DejaVuSans-6c"/><use x="1587.8" xlink:href="#DejaVuSans-69"/><use x="1615.5" xlink:href="#DejaVuSans-73"/><use x="1667.6" xlink:href="#DejaVuSans-20"/><use x="1699.4" xlink:href="#DejaVuSans-66"/><use x="1734.6" xlink:href="#DejaVuSans-6f"/><use x="1795.8" xlink:href="#DejaVuSans-72"/><use x="1836.9" xlink:href="#DejaVuSans-20"/><use x="1868.7" xlink:href="#DejaVuSans-32"/><use x="1932.3" xlink:href="#DejaVuSans-30"/><use x="1996" xlink:href="#DejaVuSans-31"/><use x="2059.6" xlink:href="#DejaVuSans-37"/></g></g></g></g><defs><clipPath id="p177bb97a5a"><path d="M44.7 22.3h334.8v217.4H44.7z"/></clipPath></defs></svg>