<?xml version="1.0" encoding="utf-8" standalone="no"?>
<!DOCTYPE svg PUBLIC "-//W3C//DTD SVG 1.1//EN"
  "http://www.w3.org/Graphics/SVG/1.1/DTD/svg11.dtd">
<!-- Created with matplotlib (http://matplotlib.org/) -->
<svg height="278pt" version="1.1" viewBox="0 0 391 278" width="391pt" xmlns="http://www.w3.org/2000/svg" xmlns:xlink="http://www.w3.org/1999/xlink">
 <defs>
  <style type="text/css">
*{stroke-linecap:butt;stroke-linejoin:round;}
  </style>
 </defs>
 <g id="figure_1">
  <g id="patch_1">
   <path d="M 0 278.282188 
L 391.950625 278.282188 
L 391.950625 0 
L 0 0 
z
" style="fill:#ffffff;"/>
  </g>
  <g id="axes_1">
   <g id="patch_2">
    <path d="M 49.950625 239.758125 
L 384.750625 239.758125 
L 384.750625 22.318125 
L 49.950625 22.318125 
z
" style="fill:#eaeaf2;"/>
   </g>
   <g id="matplotlib.axis_1">
    <g id="xtick_1">
     <g id="line2d_1"/>
     <g id="text_1">
      <!-- 0 -->
      <defs>
       <path d="M 31.78125 66.40625 
Q 24.171875 66.40625 20.328125 58.90625 
Q 16.5 51.421875 16.5 36.375 
Q 16.5 21.390625 20.328125 13.890625 
Q 24.171875 6.390625 31.78125 6.390625 
Q 39.453125 6.390625 43.28125 13.890625 
Q 47.125 21.390625 47.125 36.375 
Q 47.125 51.421875 43.28125 58.90625 
Q 39.453125 66.40625 31.78125 66.40625 
z
M 31.78125 74.21875 
Q 44.046875 74.21875 50.515625 64.515625 
Q 56.984375 54.828125 56.984375 36.375 
Q 56.984375 17.96875 50.515625 8.265625 
Q 44.046875 -1.421875 31.78125 -1.421875 
Q 19.53125 -1.421875 13.0625 8.265625 
Q 6.59375 17.96875 6.59375 36.375 
Q 6.59375 54.828125 13.0625 64.515625 
Q 19.53125 74.21875 31.78125 74.21875 
z
" id="DejaVuSans-30"/>
      </defs>
      <g style="fill:#262626;" transform="translate(61.151393 254.356563)scale(0.1 -0.1)">
       <use xlink:href="#DejaVuSans-30"/>
      </g>
     </g>
    </g>
    <g id="xtick_2">
     <g id="line2d_2"/>
     <g id="text_2">
      <!-- 50 -->
      <defs>
       <path d="M 10.796875 72.90625 
L 49.515625 72.90625 
L 49.515625 64.59375 
L 19.828125 64.59375 
L 19.828125 46.734375 
Q 21.96875 47.46875 24.109375 47.828125 
Q 26.265625 48.1875 28.421875 48.1875 
Q 40.625 48.1875 47.75 41.5 
Q 54.890625 34.8125 54.890625 23.390625 
Q 54.890625 11.625 47.5625 5.09375 
Q 40.234375 -1.421875 26.90625 -1.421875 
Q 22.3125 -1.421875 17.546875 -0.640625 
Q 12.796875 0.140625 7.71875 1.703125 
L 7.71875 11.625 
Q 12.109375 9.234375 16.796875 8.0625 
Q 21.484375 6.890625 26.703125 6.890625 
Q 35.15625 6.890625 40.078125 11.328125 
Q 45.015625 15.765625 45.015625 23.390625 
Q 45.015625 31 40.078125 35.4375 
Q 35.15625 39.890625 26.703125 39.890625 
Q 22.75 39.890625 18.8125 39.015625 
Q 14.890625 38.140625 10.796875 36.28125 
z
" id="DejaVuSans-35"/>
      </defs>
      <g style="fill:#262626;" transform="translate(99.778335 254.356563)scale(0.1 -0.1)">
       <use xlink:href="#DejaVuSans-35"/>
       <use x="63.623047" xlink:href="#DejaVuSans-30"/>
      </g>
     </g>
    </g>
    <g id="xtick_3">
     <g id="line2d_3"/>
     <g id="text_3">
      <!-- 100 -->
      <defs>
       <path d="M 12.40625 8.296875 
L 28.515625 8.296875 
L 28.515625 63.921875 
L 10.984375 60.40625 
L 10.984375 69.390625 
L 28.421875 72.90625 
L 38.28125 72.90625 
L 38.28125 8.296875 
L 54.390625 8.296875 
L 54.390625 0 
L 12.40625 0 
z
" id="DejaVuSans-31"/>
      </defs>
      <g style="fill:#262626;" transform="translate(138.405277 254.356563)scale(0.1 -0.1)">
       <use xlink:href="#DejaVuSans-31"/>
       <use x="63.623047" xlink:href="#DejaVuSans-30"/>
       <use x="127.246094" xlink:href="#DejaVuSans-30"/>
      </g>
     </g>
    </g>
    <g id="xtick_4">
     <g id="line2d_4"/>
     <g id="text_4">
      <!-- 150 -->
      <g style="fill:#262626;" transform="translate(180.213468 254.356563)scale(0.1 -0.1)">
       <use xlink:href="#DejaVuSans-31"/>
       <use x="63.623047" xlink:href="#DejaVuSans-35"/>
       <use x="127.246094" xlink:href="#DejaVuSans-30"/>
      </g>
     </g>
    </g>
    <g id="xtick_5">
     <g id="line2d_5"/>
     <g id="text_5">
      <!-- 200 -->
      <defs>
       <path d="M 19.1875 8.296875 
L 53.609375 8.296875 
L 53.609375 0 
L 7.328125 0 
L 7.328125 8.296875 
Q 12.9375 14.109375 22.625 23.890625 
Q 32.328125 33.6875 34.8125 36.53125 
Q 39.546875 41.84375 41.421875 45.53125 
Q 43.3125 49.21875 43.3125 52.78125 
Q 43.3125 58.59375 39.234375 62.25 
Q 35.15625 65.921875 28.609375 65.921875 
Q 23.96875 65.921875 18.8125 64.3125 
Q 13.671875 62.703125 7.8125 59.421875 
L 7.8125 69.390625 
Q 13.765625 71.78125 18.9375 73 
Q 24.125 74.21875 28.421875 74.21875 
Q 39.75 74.21875 46.484375 68.546875 
Q 53.21875 62.890625 53.21875 53.421875 
Q 53.21875 48.921875 51.53125 44.890625 
Q 49.859375 40.875 45.40625 35.40625 
Q 44.1875 33.984375 37.640625 27.21875 
Q 31.109375 20.453125 19.1875 8.296875 
z
" id="DejaVuSans-32"/>
      </defs>
      <g style="fill:#262626;" transform="translate(222.02166 254.356563)scale(0.1 -0.1)">
       <use xlink:href="#DejaVuSans-32"/>
       <use x="63.623047" xlink:href="#DejaVuSans-30"/>
       <use x="127.246094" xlink:href="#DejaVuSans-30"/>
      </g>
     </g>
    </g>
    <g id="xtick_6">
     <g id="line2d_6"/>
     <g id="text_6">
      <!-- 250 -->
      <g style="fill:#262626;" transform="translate(263.829852 254.356563)scale(0.1 -0.1)">
       <use xlink:href="#DejaVuSans-32"/>
       <use x="63.623047" xlink:href="#DejaVuSans-35"/>
       <use x="127.246094" xlink:href="#DejaVuSans-30"/>
      </g>
     </g>
    </g>
    <g id="xtick_7">
     <g id="line2d_7"/>
     <g id="text_7">
      <!-- 300 -->
      <defs>
       <path d="M 40.578125 39.3125 
Q 47.65625 37.796875 51.625 33 
Q 55.609375 28.21875 55.609375 21.1875 
Q 55.609375 10.40625 48.1875 4.484375 
Q 40.765625 -1.421875 27.09375 -1.421875 
Q 22.515625 -1.421875 17.65625 -0.515625 
Q 12.796875 0.390625 7.625 2.203125 
L 7.625 11.71875 
Q 11.71875 9.328125 16.59375 8.109375 
Q 21.484375 6.890625 26.8125 6.890625 
Q 36.078125 6.890625 40.9375 10.546875 
Q 45.796875 14.203125 45.796875 21.1875 
Q 45.796875 27.640625 41.28125 31.265625 
Q 36.765625 34.90625 28.71875 34.90625 
L 20.21875 34.90625 
L 20.21875 43.015625 
L 29.109375 43.015625 
Q 36.375 43.015625 40.234375 45.921875 
Q 44.09375 48.828125 44.09375 54.296875 
Q 44.09375 59.90625 40.109375 62.90625 
Q 36.140625 65.921875 28.71875 65.921875 
Q 24.65625 65.921875 20.015625 65.03125 
Q 15.375 64.15625 9.8125 62.3125 
L 9.8125 71.09375 
Q 15.4375 72.65625 20.34375 73.4375 
Q 25.25 74.21875 29.59375 74.21875 
Q 40.828125 74.21875 47.359375 69.109375 
Q 53.90625 64.015625 53.90625 55.328125 
Q 53.90625 49.265625 50.4375 45.09375 
Q 46.96875 40.921875 40.578125 39.3125 
z
" id="DejaVuSans-33"/>
      </defs>
      <g style="fill:#262626;" transform="translate(305.638044 254.356563)scale(0.1 -0.1)">
       <use xlink:href="#DejaVuSans-33"/>
       <use x="63.623047" xlink:href="#DejaVuSans-30"/>
       <use x="127.246094" xlink:href="#DejaVuSans-30"/>
      </g>
     </g>
    </g>
    <g id="xtick_8">
     <g id="line2d_8"/>
     <g id="text_8">
      <!-- 350 -->
      <g style="fill:#262626;" transform="translate(347.446236 254.356563)scale(0.1 -0.1)">
       <use xlink:href="#DejaVuSans-33"/>
       <use x="63.623047" xlink:href="#DejaVuSans-35"/>
       <use x="127.246094" xlink:href="#DejaVuSans-30"/>
      </g>
     </g>
    </g>
    <g id="text_9">
     <!-- Day of year -->
     <defs>
      <path d="M 19.671875 64.796875 
L 19.671875 8.109375 
L 31.59375 8.109375 
Q 46.6875 8.109375 53.6875 14.9375 
Q 60.6875 21.78125 60.6875 36.53125 
Q 60.6875 51.171875 53.6875 57.984375 
Q 46.6875 64.796875 31.59375 64.796875 
z
M 9.8125 72.90625 
L 30.078125 72.90625 
Q 51.265625 72.90625 61.171875 64.09375 
Q 71.09375 55.28125 71.09375 36.53125 
Q 71.09375 17.671875 61.125 8.828125 
Q 51.171875 0 30.078125 0 
L 9.8125 0 
z
" id="DejaVuSans-44"/>
      <path d="M 34.28125 27.484375 
Q 23.390625 27.484375 19.1875 25 
Q 14.984375 22.515625 14.984375 16.5 
Q 14.984375 11.71875 18.140625 8.90625 
Q 21.296875 6.109375 26.703125 6.109375 
Q 34.1875 6.109375 38.703125 11.40625 
Q 43.21875 16.703125 43.21875 25.484375 
L 43.21875 27.484375 
z
M 52.203125 31.203125 
L 52.203125 0 
L 43.21875 0 
L 43.21875 8.296875 
Q 40.140625 3.328125 35.546875 0.953125 
Q 30.953125 -1.421875 24.3125 -1.421875 
Q 15.921875 -1.421875 10.953125 3.296875 
Q 6 8.015625 6 15.921875 
Q 6 25.140625 12.171875 29.828125 
Q 18.359375 34.515625 30.609375 34.515625 
L 43.21875 34.515625 
L 43.21875 35.40625 
Q 43.21875 41.609375 39.140625 45 
Q 35.0625 48.390625 27.6875 48.390625 
Q 23 48.390625 18.546875 47.265625 
Q 14.109375 46.140625 10.015625 43.890625 
L 10.015625 52.203125 
Q 14.9375 54.109375 19.578125 55.046875 
Q 24.21875 56 28.609375 56 
Q 40.484375 56 46.34375 49.84375 
Q 52.203125 43.703125 52.203125 31.203125 
z
" id="DejaVuSans-61"/>
      <path d="M 32.171875 -5.078125 
Q 28.375 -14.84375 24.75 -17.8125 
Q 21.140625 -20.796875 15.09375 -20.796875 
L 7.90625 -20.796875 
L 7.90625 -13.28125 
L 13.1875 -13.28125 
Q 16.890625 -13.28125 18.9375 -11.515625 
Q 21 -9.765625 23.484375 -3.21875 
L 25.09375 0.875 
L 2.984375 54.6875 
L 12.5 54.6875 
L 29.59375 11.921875 
L 46.6875 54.6875 
L 56.203125 54.6875 
z
" id="DejaVuSans-79"/>
      <path id="DejaVuSans-20"/>
      <path d="M 30.609375 48.390625 
Q 23.390625 48.390625 19.1875 42.75 
Q 14.984375 37.109375 14.984375 27.296875 
Q 14.984375 17.484375 19.15625 11.84375 
Q 23.34375 6.203125 30.609375 6.203125 
Q 37.796875 6.203125 41.984375 11.859375 
Q 46.1875 17.53125 46.1875 27.296875 
Q 46.1875 37.015625 41.984375 42.703125 
Q 37.796875 48.390625 30.609375 48.390625 
z
M 30.609375 56 
Q 42.328125 56 49.015625 48.375 
Q 55.71875 40.765625 55.71875 27.296875 
Q 55.71875 13.875 49.015625 6.21875 
Q 42.328125 -1.421875 30.609375 -1.421875 
Q 18.84375 -1.421875 12.171875 6.21875 
Q 5.515625 13.875 5.515625 27.296875 
Q 5.515625 40.765625 12.171875 48.375 
Q 18.84375 56 30.609375 56 
z
" id="DejaVuSans-6f"/>
      <path d="M 37.109375 75.984375 
L 37.109375 68.5 
L 28.515625 68.5 
Q 23.6875 68.5 21.796875 66.546875 
Q 19.921875 64.59375 19.921875 59.515625 
L 19.921875 54.6875 
L 34.71875 54.6875 
L 34.71875 47.703125 
L 19.921875 47.703125 
L 19.921875 0 
L 10.890625 0 
L 10.890625 47.703125 
L 2.296875 47.703125 
L 2.296875 54.6875 
L 10.890625 54.6875 
L 10.890625 58.5 
Q 10.890625 67.625 15.140625 71.796875 
Q 19.390625 75.984375 28.609375 75.984375 
z
" id="DejaVuSans-66"/>
      <path d="M 56.203125 29.59375 
L 56.203125 25.203125 
L 14.890625 25.203125 
Q 15.484375 15.921875 20.484375 11.0625 
Q 25.484375 6.203125 34.421875 6.203125 
Q 39.59375 6.203125 44.453125 7.46875 
Q 49.3125 8.734375 54.109375 11.28125 
L 54.109375 2.78125 
Q 49.265625 0.734375 44.1875 -0.34375 
Q 39.109375 -1.421875 33.890625 -1.421875 
Q 20.796875 -1.421875 13.15625 6.1875 
Q 5.515625 13.8125 5.515625 26.8125 
Q 5.515625 40.234375 12.765625 48.109375 
Q 20.015625 56 32.328125 56 
Q 43.359375 56 49.78125 48.890625 
Q 56.203125 41.796875 56.203125 29.59375 
z
M 47.21875 32.234375 
Q 47.125 39.59375 43.09375 43.984375 
Q 39.0625 48.390625 32.421875 48.390625 
Q 24.90625 48.390625 20.390625 44.140625 
Q 15.875 39.890625 15.1875 32.171875 
z
" id="DejaVuSans-65"/>
      <path d="M 41.109375 46.296875 
Q 39.59375 47.171875 37.8125 47.578125 
Q 36.03125 48 33.890625 48 
Q 26.265625 48 22.1875 43.046875 
Q 18.109375 38.09375 18.109375 28.8125 
L 18.109375 0 
L 9.078125 0 
L 9.078125 54.6875 
L 18.109375 54.6875 
L 18.109375 46.1875 
Q 20.953125 51.171875 25.484375 53.578125 
Q 30.03125 56 36.53125 56 
Q 37.453125 56 38.578125 55.875 
Q 39.703125 55.765625 41.0625 55.515625 
z
" id="DejaVuSans-72"/>
     </defs>
     <g style="fill:#262626;" transform="translate(185.421406 268.794531)scale(0.11 -0.11)">
      <use xlink:href="#DejaVuSans-44"/>
      <use x="77.001953" xlink:href="#DejaVuSans-61"/>
      <use x="138.28125" xlink:href="#DejaVuSans-79"/>
      <use x="197.460938" xlink:href="#DejaVuSans-20"/>
      <use x="229.248047" xlink:href="#DejaVuSans-6f"/>
      <use x="290.429688" xlink:href="#DejaVuSans-66"/>
      <use x="325.634766" xlink:href="#DejaVuSans-20"/>
      <use x="357.421875" xlink:href="#DejaVuSans-79"/>
      <use x="416.601562" xlink:href="#DejaVuSans-65"/>
      <use x="478.125" xlink:href="#DejaVuSans-61"/>
      <use x="539.404297" xlink:href="#DejaVuSans-72"/>
     </g>
    </g>
   </g>
   <g id="matplotlib.axis_2">
    <g id="ytick_1">
     <g id="line2d_9"/>
     <g id="text_10">
      <!-- −20 -->
      <defs>
       <path d="M 10.59375 35.5 
L 73.1875 35.5 
L 73.1875 27.203125 
L 10.59375 27.203125 
z
" id="DejaVuSans-2212"/>
      </defs>
      <g style="fill:#262626;" transform="translate(21.845938 239.064782)scale(0.1 -0.1)">
       <use xlink:href="#DejaVuSans-2212"/>
       <use x="83.789062" xlink:href="#DejaVuSans-32"/>
       <use x="147.412109" xlink:href="#DejaVuSans-30"/>
      </g>
     </g>
    </g>
    <g id="ytick_2">
     <g id="line2d_10"/>
     <g id="text_11">
      <!-- 0 -->
      <g style="fill:#262626;" transform="translate(36.588125 203.124286)scale(0.1 -0.1)">
       <use xlink:href="#DejaVuSans-30"/>
      </g>
     </g>
    </g>
    <g id="ytick_3">
     <g id="line2d_11"/>
     <g id="text_12">
      <!-- 20 -->
      <g style="fill:#262626;" transform="translate(30.225625 167.18379)scale(0.1 -0.1)">
       <use xlink:href="#DejaVuSans-32"/>
       <use x="63.623047" xlink:href="#DejaVuSans-30"/>
      </g>
     </g>
    </g>
    <g id="ytick_4">
     <g id="line2d_12"/>
     <g id="text_13">
      <!-- 40 -->
      <defs>
       <path d="M 37.796875 64.3125 
L 12.890625 25.390625 
L 37.796875 25.390625 
z
M 35.203125 72.90625 
L 47.609375 72.90625 
L 47.609375 25.390625 
L 58.015625 25.390625 
L 58.015625 17.1875 
L 47.609375 17.1875 
L 47.609375 0 
L 37.796875 0 
L 37.796875 17.1875 
L 4.890625 17.1875 
L 4.890625 26.703125 
z
" id="DejaVuSans-34"/>
      </defs>
      <g style="fill:#262626;" transform="translate(30.225625 131.243294)scale(0.1 -0.1)">
       <use xlink:href="#DejaVuSans-34"/>
       <use x="63.623047" xlink:href="#DejaVuSans-30"/>
      </g>
     </g>
    </g>
    <g id="ytick_5">
     <g id="line2d_13"/>
     <g id="text_14">
      <!-- 60 -->
      <defs>
       <path d="M 33.015625 40.375 
Q 26.375 40.375 22.484375 35.828125 
Q 18.609375 31.296875 18.609375 23.390625 
Q 18.609375 15.53125 22.484375 10.953125 
Q 26.375 6.390625 33.015625 6.390625 
Q 39.65625 6.390625 43.53125 10.953125 
Q 47.40625 15.53125 47.40625 23.390625 
Q 47.40625 31.296875 43.53125 35.828125 
Q 39.65625 40.375 33.015625 40.375 
z
M 52.59375 71.296875 
L 52.59375 62.3125 
Q 48.875 64.0625 45.09375 64.984375 
Q 41.3125 65.921875 37.59375 65.921875 
Q 27.828125 65.921875 22.671875 59.328125 
Q 17.53125 52.734375 16.796875 39.40625 
Q 19.671875 43.65625 24.015625 45.921875 
Q 28.375 48.1875 33.59375 48.1875 
Q 44.578125 48.1875 50.953125 41.515625 
Q 57.328125 34.859375 57.328125 23.390625 
Q 57.328125 12.15625 50.6875 5.359375 
Q 44.046875 -1.421875 33.015625 -1.421875 
Q 20.359375 -1.421875 13.671875 8.265625 
Q 6.984375 17.96875 6.984375 36.375 
Q 6.984375 53.65625 15.1875 63.9375 
Q 23.390625 74.21875 37.203125 74.21875 
Q 40.921875 74.21875 44.703125 73.484375 
Q 48.484375 72.75 52.59375 71.296875 
z
" id="DejaVuSans-36"/>
      </defs>
      <g style="fill:#262626;" transform="translate(30.225625 95.302798)scale(0.1 -0.1)">
       <use xlink:href="#DejaVuSans-36"/>
       <use x="63.623047" xlink:href="#DejaVuSans-30"/>
      </g>
     </g>
    </g>
    <g id="ytick_6">
     <g id="line2d_14"/>
     <g id="text_15">
      <!-- 80 -->
      <defs>
       <path d="M 31.78125 34.625 
Q 24.75 34.625 20.71875 30.859375 
Q 16.703125 27.09375 16.703125 20.515625 
Q 16.703125 13.921875 20.71875 10.15625 
Q 24.75 6.390625 31.78125 6.390625 
Q 38.8125 6.390625 42.859375 10.171875 
Q 46.921875 13.96875 46.921875 20.515625 
Q 46.921875 27.09375 42.890625 30.859375 
Q 38.875 34.625 31.78125 34.625 
z
M 21.921875 38.8125 
Q 15.578125 40.375 12.03125 44.71875 
Q 8.5 49.078125 8.5 55.328125 
Q 8.5 64.0625 14.71875 69.140625 
Q 20.953125 74.21875 31.78125 74.21875 
Q 42.671875 74.21875 48.875 69.140625 
Q 55.078125 64.0625 55.078125 55.328125 
Q 55.078125 49.078125 51.53125 44.71875 
Q 48 40.375 41.703125 38.8125 
Q 48.828125 37.15625 52.796875 32.3125 
Q 56.78125 27.484375 56.78125 20.515625 
Q 56.78125 9.90625 50.3125 4.234375 
Q 43.84375 -1.421875 31.78125 -1.421875 
Q 19.734375 -1.421875 13.25 4.234375 
Q 6.78125 9.90625 6.78125 20.515625 
Q 6.78125 27.484375 10.78125 32.3125 
Q 14.796875 37.15625 21.921875 38.8125 
z
M 18.3125 54.390625 
Q 18.3125 48.734375 21.84375 45.5625 
Q 25.390625 42.390625 31.78125 42.390625 
Q 38.140625 42.390625 41.71875 45.5625 
Q 45.3125 48.734375 45.3125 54.390625 
Q 45.3125 60.0625 41.71875 63.234375 
Q 38.140625 66.40625 31.78125 66.40625 
Q 25.390625 66.40625 21.84375 63.234375 
Q 18.3125 60.0625 18.3125 54.390625 
z
" id="DejaVuSans-38"/>
      </defs>
      <g style="fill:#262626;" transform="translate(30.225625 59.362302)scale(0.1 -0.1)">
       <use xlink:href="#DejaVuSans-38"/>
       <use x="63.623047" xlink:href="#DejaVuSans-30"/>
      </g>
     </g>
    </g>
    <g id="text_16">
     <!-- Temperature (degrees F) -->
     <defs>
      <path d="M -0.296875 72.90625 
L 61.375 72.90625 
L 61.375 64.59375 
L 35.5 64.59375 
L 35.5 0 
L 25.59375 0 
L 25.59375 64.59375 
L -0.296875 64.59375 
z
" id="DejaVuSans-54"/>
      <path d="M 52 44.1875 
Q 55.375 50.25 60.0625 53.125 
Q 64.75 56 71.09375 56 
Q 79.640625 56 84.28125 50.015625 
Q 88.921875 44.046875 88.921875 33.015625 
L 88.921875 0 
L 79.890625 0 
L 79.890625 32.71875 
Q 79.890625 40.578125 77.09375 44.375 
Q 74.3125 48.1875 68.609375 48.1875 
Q 61.625 48.1875 57.5625 43.546875 
Q 53.515625 38.921875 53.515625 30.90625 
L 53.515625 0 
L 44.484375 0 
L 44.484375 32.71875 
Q 44.484375 40.625 41.703125 44.40625 
Q 38.921875 48.1875 33.109375 48.1875 
Q 26.21875 48.1875 22.15625 43.53125 
Q 18.109375 38.875 18.109375 30.90625 
L 18.109375 0 
L 9.078125 0 
L 9.078125 54.6875 
L 18.109375 54.6875 
L 18.109375 46.1875 
Q 21.1875 51.21875 25.484375 53.609375 
Q 29.78125 56 35.6875 56 
Q 41.65625 56 45.828125 52.96875 
Q 50 49.953125 52 44.1875 
z
" id="DejaVuSans-6d"/>
      <path d="M 18.109375 8.203125 
L 18.109375 -20.796875 
L 9.078125 -20.796875 
L 9.078125 54.6875 
L 18.109375 54.6875 
L 18.109375 46.390625 
Q 20.953125 51.265625 25.265625 53.625 
Q 29.59375 56 35.59375 56 
Q 45.5625 56 51.78125 48.09375 
Q 58.015625 40.1875 58.015625 27.296875 
Q 58.015625 14.40625 51.78125 6.484375 
Q 45.5625 -1.421875 35.59375 -1.421875 
Q 29.59375 -1.421875 25.265625 0.953125 
Q 20.953125 3.328125 18.109375 8.203125 
z
M 48.6875 27.296875 
Q 48.6875 37.203125 44.609375 42.84375 
Q 40.53125 48.484375 33.40625 48.484375 
Q 26.265625 48.484375 22.1875 42.84375 
Q 18.109375 37.203125 18.109375 27.296875 
Q 18.109375 17.390625 22.1875 11.75 
Q 26.265625 6.109375 33.40625 6.109375 
Q 40.53125 6.109375 44.609375 11.75 
Q 48.6875 17.390625 48.6875 27.296875 
z
" id="DejaVuSans-70"/>
      <path d="M 18.3125 70.21875 
L 18.3125 54.6875 
L 36.8125 54.6875 
L 36.8125 47.703125 
L 18.3125 47.703125 
L 18.3125 18.015625 
Q 18.3125 11.328125 20.140625 9.421875 
Q 21.96875 7.515625 27.59375 7.515625 
L 36.8125 7.515625 
L 36.8125 0 
L 27.59375 0 
Q 17.1875 0 13.234375 3.875 
Q 9.28125 7.765625 9.28125 18.015625 
L 9.28125 47.703125 
L 2.6875 47.703125 
L 2.6875 54.6875 
L 9.28125 54.6875 
L 9.28125 70.21875 
z
" id="DejaVuSans-74"/>
      <path d="M 8.5 21.578125 
L 8.5 54.6875 
L 17.484375 54.6875 
L 17.484375 21.921875 
Q 17.484375 14.15625 20.5 10.265625 
Q 23.53125 6.390625 29.59375 6.390625 
Q 36.859375 6.390625 41.078125 11.03125 
Q 45.3125 15.671875 45.3125 23.6875 
L 45.3125 54.6875 
L 54.296875 54.6875 
L 54.296875 0 
L 45.3125 0 
L 45.3125 8.40625 
Q 42.046875 3.421875 37.71875 1 
Q 33.40625 -1.421875 27.6875 -1.421875 
Q 18.265625 -1.421875 13.375 4.4375 
Q 8.5 10.296875 8.5 21.578125 
z
M 31.109375 56 
z
" id="DejaVuSans-75"/>
      <path d="M 31 75.875 
Q 24.46875 64.65625 21.28125 53.65625 
Q 18.109375 42.671875 18.109375 31.390625 
Q 18.109375 20.125 21.3125 9.0625 
Q 24.515625 -2 31 -13.1875 
L 23.1875 -13.1875 
Q 15.875 -1.703125 12.234375 9.375 
Q 8.59375 20.453125 8.59375 31.390625 
Q 8.59375 42.28125 12.203125 53.3125 
Q 15.828125 64.359375 23.1875 75.875 
z
" id="DejaVuSans-28"/>
      <path d="M 45.40625 46.390625 
L 45.40625 75.984375 
L 54.390625 75.984375 
L 54.390625 0 
L 45.40625 0 
L 45.40625 8.203125 
Q 42.578125 3.328125 38.25 0.953125 
Q 33.9375 -1.421875 27.875 -1.421875 
Q 17.96875 -1.421875 11.734375 6.484375 
Q 5.515625 14.40625 5.515625 27.296875 
Q 5.515625 40.1875 11.734375 48.09375 
Q 17.96875 56 27.875 56 
Q 33.9375 56 38.25 53.625 
Q 42.578125 51.265625 45.40625 46.390625 
z
M 14.796875 27.296875 
Q 14.796875 17.390625 18.875 11.75 
Q 22.953125 6.109375 30.078125 6.109375 
Q 37.203125 6.109375 41.296875 11.75 
Q 45.40625 17.390625 45.40625 27.296875 
Q 45.40625 37.203125 41.296875 42.84375 
Q 37.203125 48.484375 30.078125 48.484375 
Q 22.953125 48.484375 18.875 42.84375 
Q 14.796875 37.203125 14.796875 27.296875 
z
" id="DejaVuSans-64"/>
      <path d="M 45.40625 27.984375 
Q 45.40625 37.75 41.375 43.109375 
Q 37.359375 48.484375 30.078125 48.484375 
Q 22.859375 48.484375 18.828125 43.109375 
Q 14.796875 37.75 14.796875 27.984375 
Q 14.796875 18.265625 18.828125 12.890625 
Q 22.859375 7.515625 30.078125 7.515625 
Q 37.359375 7.515625 41.375 12.890625 
Q 45.40625 18.265625 45.40625 27.984375 
z
M 54.390625 6.78125 
Q 54.390625 -7.171875 48.1875 -13.984375 
Q 42 -20.796875 29.203125 -20.796875 
Q 24.46875 -20.796875 20.265625 -20.09375 
Q 16.0625 -19.390625 12.109375 -17.921875 
L 12.109375 -9.1875 
Q 16.0625 -11.328125 19.921875 -12.34375 
Q 23.78125 -13.375 27.78125 -13.375 
Q 36.625 -13.375 41.015625 -8.765625 
Q 45.40625 -4.15625 45.40625 5.171875 
L 45.40625 9.625 
Q 42.625 4.78125 38.28125 2.390625 
Q 33.9375 0 27.875 0 
Q 17.828125 0 11.671875 7.65625 
Q 5.515625 15.328125 5.515625 27.984375 
Q 5.515625 40.671875 11.671875 48.328125 
Q 17.828125 56 27.875 56 
Q 33.9375 56 38.28125 53.609375 
Q 42.625 51.21875 45.40625 46.390625 
L 45.40625 54.6875 
L 54.390625 54.6875 
z
" id="DejaVuSans-67"/>
      <path d="M 44.28125 53.078125 
L 44.28125 44.578125 
Q 40.484375 46.53125 36.375 47.5 
Q 32.28125 48.484375 27.875 48.484375 
Q 21.1875 48.484375 17.84375 46.4375 
Q 14.5 44.390625 14.5 40.28125 
Q 14.5 37.15625 16.890625 35.375 
Q 19.28125 33.59375 26.515625 31.984375 
L 29.59375 31.296875 
Q 39.15625 29.25 43.1875 25.515625 
Q 47.21875 21.78125 47.21875 15.09375 
Q 47.21875 7.46875 41.1875 3.015625 
Q 35.15625 -1.421875 24.609375 -1.421875 
Q 20.21875 -1.421875 15.453125 -0.5625 
Q 10.6875 0.296875 5.421875 2 
L 5.421875 11.28125 
Q 10.40625 8.6875 15.234375 7.390625 
Q 20.0625 6.109375 24.8125 6.109375 
Q 31.15625 6.109375 34.5625 8.28125 
Q 37.984375 10.453125 37.984375 14.40625 
Q 37.984375 18.0625 35.515625 20.015625 
Q 33.0625 21.96875 24.703125 23.78125 
L 21.578125 24.515625 
Q 13.234375 26.265625 9.515625 29.90625 
Q 5.8125 33.546875 5.8125 39.890625 
Q 5.8125 47.609375 11.28125 51.796875 
Q 16.75 56 26.8125 56 
Q 31.78125 56 36.171875 55.265625 
Q 40.578125 54.546875 44.28125 53.078125 
z
" id="DejaVuSans-73"/>
      <path d="M 9.8125 72.90625 
L 51.703125 72.90625 
L 51.703125 64.59375 
L 19.671875 64.59375 
L 19.671875 43.109375 
L 48.578125 43.109375 
L 48.578125 34.8125 
L 19.671875 34.8125 
L 19.671875 0 
L 9.8125 0 
z
" id="DejaVuSans-46"/>
      <path d="M 8.015625 75.875 
L 15.828125 75.875 
Q 23.140625 64.359375 26.78125 53.3125 
Q 30.421875 42.28125 30.421875 31.390625 
Q 30.421875 20.453125 26.78125 9.375 
Q 23.140625 -1.703125 15.828125 -13.1875 
L 8.015625 -13.1875 
Q 14.5 -2 17.703125 9.0625 
Q 20.90625 20.125 20.90625 31.390625 
Q 20.90625 42.671875 17.703125 53.65625 
Q 14.5 64.65625 8.015625 75.875 
z
" id="DejaVuSans-29"/>
     </defs>
     <g style="fill:#262626;" transform="translate(15.558281 200.128438)rotate(-90)scale(0.11 -0.11)">
      <use xlink:href="#DejaVuSans-54"/>
      <use x="60.818359" xlink:href="#DejaVuSans-65"/>
      <use x="122.341797" xlink:href="#DejaVuSans-6d"/>
      <use x="219.753906" xlink:href="#DejaVuSans-70"/>
      <use x="283.230469" xlink:href="#DejaVuSans-65"/>
      <use x="344.753906" xlink:href="#DejaVuSans-72"/>
      <use x="385.867188" xlink:href="#DejaVuSans-61"/>
      <use x="447.146484" xlink:href="#DejaVuSans-74"/>
      <use x="486.355469" xlink:href="#DejaVuSans-75"/>
      <use x="549.734375" xlink:href="#DejaVuSans-72"/>
      <use x="590.816406" xlink:href="#DejaVuSans-65"/>
      <use x="652.339844" xlink:href="#DejaVuSans-20"/>
      <use x="684.126953" xlink:href="#DejaVuSans-28"/>
      <use x="723.140625" xlink:href="#DejaVuSans-64"/>
      <use x="786.617188" xlink:href="#DejaVuSans-65"/>
      <use x="848.140625" xlink:href="#DejaVuSans-67"/>
      <use x="911.617188" xlink:href="#DejaVuSans-72"/>
      <use x="952.699219" xlink:href="#DejaVuSans-65"/>
      <use x="1014.222656" xlink:href="#DejaVuSans-65"/>
      <use x="1075.746094" xlink:href="#DejaVuSans-73"/>
      <use x="1127.845703" xlink:href="#DejaVuSans-20"/>
      <use x="1159.632812" xlink:href="#DejaVuSans-46"/>
      <use x="1217.152344" xlink:href="#DejaVuSans-29"/>
     </g>
    </g>
   </g>
   <g id="line2d_15">
    <path clip-path="url(#pa6fa24fa81)" d="M 65.168807 152.602423 
L 66.004971 143.617299 
L 66.841134 145.414323 
L 67.677298 154.399447 
L 68.513462 195.731018 
L 69.349626 199.325067 
L 70.18579 190.339943 
L 71.021954 186.745894 
L 71.858118 168.775646 
L 72.694281 154.399447 
L 73.530445 154.399447 
L 74.366609 184.948869 
L 75.202773 177.76077 
L 76.038937 184.948869 
L 76.875101 159.790522 
L 77.711264 141.820274 
L 78.547428 145.414323 
L 79.383592 138.226224 
L 80.219756 127.444075 
L 81.05592 132.83515 
L 81.892084 136.429199 
L 82.728247 134.632175 
L 83.564411 131.038125 
L 84.400575 140.023249 
L 85.236739 143.617299 
L 86.072903 149.008373 
L 86.909067 150.805398 
L 87.74523 147.211348 
L 88.581394 154.399447 
L 89.417558 152.602423 
L 90.253722 129.2411 
L 91.089886 134.632175 
L 91.92605 170.57267 
L 92.762213 170.57267 
L 93.598377 141.820274 
L 94.434541 140.023249 
L 95.270705 156.196472 
L 96.106869 145.414323 
L 96.943033 156.196472 
L 97.779196 177.76077 
L 98.61536 165.181596 
L 99.451524 120.255976 
L 100.287688 122.053001 
L 101.123852 132.83515 
L 101.960016 118.458951 
L 102.796179 127.444075 
L 103.632343 138.226224 
L 104.468507 129.2411 
L 105.304671 89.706555 
L 106.140835 96.894654 
L 106.976999 98.691679 
L 107.813162 104.082753 
L 108.649326 89.706555 
L 109.48549 98.691679 
L 110.321654 136.429199 
L 111.157818 154.399447 
L 112.830145 136.429199 
L 113.666309 122.053001 
L 114.502473 122.053001 
L 115.338637 138.226224 
L 116.174801 150.805398 
L 117.010965 147.211348 
L 117.847128 127.444075 
L 118.683292 98.691679 
L 119.519456 89.706555 
L 121.191784 143.617299 
L 122.027948 150.805398 
L 122.864112 170.57267 
L 123.700275 163.384571 
L 124.536439 149.008373 
L 125.372603 147.211348 
L 126.208767 141.820274 
L 127.044931 145.414323 
L 127.881095 127.444075 
L 128.717258 123.850026 
L 129.553422 127.444075 
L 130.389586 105.879778 
L 131.22575 104.082753 
L 132.061914 140.023249 
L 132.898078 131.038125 
L 133.734241 131.038125 
L 134.570405 123.850026 
L 135.406569 127.444075 
L 136.242733 125.647051 
L 137.078897 98.691679 
L 137.915061 89.706555 
L 138.751224 113.067877 
L 139.587388 116.661927 
L 141.259716 86.112505 
L 142.09588 104.082753 
L 142.932044 111.270852 
L 143.768207 93.300604 
L 144.604371 105.879778 
L 145.440535 105.879778 
L 146.276699 95.097629 
L 147.112863 75.330356 
L 147.949027 73.533332 
L 148.78519 122.053001 
L 149.621354 109.473827 
L 150.457518 102.285728 
L 151.293682 105.879778 
L 152.129846 87.90953 
L 152.96601 73.533332 
L 153.802173 87.90953 
L 154.638337 98.691679 
L 155.474501 87.90953 
L 156.310665 109.473827 
L 157.146829 113.067877 
L 157.982993 91.50358 
L 158.819156 78.924406 
L 159.65532 80.721431 
L 160.491484 73.533332 
L 161.327648 93.300604 
L 162.163812 131.038125 
L 162.999976 136.429199 
L 163.836139 113.067877 
L 164.672303 104.082753 
L 165.508467 118.458951 
L 166.344631 129.2411 
L 167.180795 91.50358 
L 168.016959 84.31548 
L 168.853123 78.924406 
L 169.689286 60.954158 
L 170.52545 80.721431 
L 171.361614 82.518456 
L 172.197778 75.330356 
L 173.033942 73.533332 
L 173.870106 80.721431 
L 174.706269 80.721431 
L 175.542433 64.548208 
L 176.378597 55.563084 
L 177.214761 50.172009 
L 178.050925 75.330356 
L 178.887089 53.766059 
L 179.723252 75.330356 
L 180.559416 104.082753 
L 181.39558 104.082753 
L 182.231744 109.473827 
L 183.067908 109.473827 
L 183.904072 84.31548 
L 184.740235 91.50358 
L 185.576399 89.706555 
L 187.248727 55.563084 
L 188.084891 69.939282 
L 188.921055 68.142257 
L 189.757218 84.31548 
L 190.593382 93.300604 
L 191.429546 68.142257 
L 192.26571 57.360108 
L 193.101874 41.186885 
L 193.938038 39.389861 
L 194.774201 42.98391 
L 195.610365 48.374985 
L 196.446529 55.563084 
L 197.282693 44.780935 
L 198.118857 53.766059 
L 198.955021 50.172009 
L 199.791184 32.201761 
L 200.627348 68.142257 
L 201.463512 55.563084 
L 202.299676 41.186885 
L 203.13584 50.172009 
L 203.972004 48.374985 
L 205.644331 51.969034 
L 206.480495 71.736307 
L 207.316659 71.736307 
L 208.152823 68.142257 
L 208.988987 55.563084 
L 209.82515 73.533332 
L 210.661314 73.533332 
L 211.497478 84.31548 
L 212.333642 80.721431 
L 213.169806 75.330356 
L 214.00597 64.548208 
L 214.842133 57.360108 
L 215.678297 66.345232 
L 216.514461 60.954158 
L 217.350625 66.345232 
L 218.186789 59.157133 
L 219.022953 53.766059 
L 219.859117 46.57796 
L 220.69528 37.592836 
L 221.531444 35.795811 
L 222.367608 55.563084 
L 223.203772 55.563084 
L 224.039936 51.969034 
L 225.712263 48.374985 
L 226.548427 48.374985 
L 227.384591 77.127381 
L 228.220755 64.548208 
L 229.056919 35.795811 
L 229.893083 51.969034 
L 230.729246 37.592836 
L 231.56541 59.157133 
L 232.401574 55.563084 
L 233.237738 44.780935 
L 234.073902 51.969034 
L 234.910066 42.98391 
L 235.746229 64.548208 
L 236.582393 60.954158 
L 237.418557 51.969034 
L 238.254721 53.766059 
L 239.090885 53.766059 
L 242.43554 46.57796 
L 243.271704 46.57796 
L 244.107868 59.157133 
L 244.944032 91.50358 
L 245.780195 66.345232 
L 246.616359 64.548208 
L 247.452523 69.939282 
L 248.288687 60.954158 
L 249.124851 57.360108 
L 249.961015 78.924406 
L 250.797178 73.533332 
L 251.633342 62.751183 
L 252.469506 60.954158 
L 253.30567 77.127381 
L 254.141834 68.142257 
L 254.977998 62.751183 
L 255.814161 62.751183 
L 256.650325 73.533332 
L 257.486489 69.939282 
L 258.322653 59.157133 
L 259.158817 50.172009 
L 259.994981 59.157133 
L 260.831144 69.939282 
L 261.667308 69.939282 
L 262.503472 71.736307 
L 264.1758 82.518456 
L 265.011964 71.736307 
L 265.848127 71.736307 
L 266.684291 59.157133 
L 267.520455 55.563084 
L 268.356619 75.330356 
L 269.192783 73.533332 
L 270.028947 59.157133 
L 270.865111 50.172009 
L 272.537438 87.90953 
L 273.373602 82.518456 
L 274.209766 82.518456 
L 275.04593 80.721431 
L 276.718257 59.157133 
L 277.554421 57.360108 
L 278.390585 50.172009 
L 279.226749 48.374985 
L 280.062913 42.98391 
L 280.899077 55.563084 
L 281.73524 66.345232 
L 282.571404 84.31548 
L 283.407568 95.097629 
L 284.243732 60.954158 
L 285.079896 68.142257 
L 285.91606 55.563084 
L 286.752223 35.795811 
L 287.588387 44.780935 
L 288.424551 42.98391 
L 289.260715 91.50358 
L 290.933043 84.31548 
L 291.769206 87.90953 
L 292.60537 87.90953 
L 293.441534 78.924406 
L 294.277698 89.706555 
L 295.113862 75.330356 
L 295.950026 75.330356 
L 296.786189 96.894654 
L 297.622353 86.112505 
L 298.458517 95.097629 
L 299.294681 82.518456 
L 300.130845 77.127381 
L 300.967009 102.285728 
L 301.803172 109.473827 
L 302.639336 104.082753 
L 303.4755 87.90953 
L 304.311664 95.097629 
L 305.147828 98.691679 
L 305.983992 107.676803 
L 306.820155 84.31548 
L 307.656319 71.736307 
L 308.492483 73.533332 
L 309.328647 71.736307 
L 310.164811 62.751183 
L 311.000975 80.721431 
L 311.837138 89.706555 
L 312.673302 95.097629 
L 313.509466 111.270852 
L 314.34563 100.488704 
L 315.181794 100.488704 
L 316.017958 141.820274 
L 316.854122 143.617299 
L 317.690285 125.647051 
L 318.526449 134.632175 
L 319.362613 140.023249 
L 321.034941 132.83515 
L 321.871105 140.023249 
L 322.707268 125.647051 
L 323.543432 138.226224 
L 324.379596 143.617299 
L 325.21576 140.023249 
L 326.051924 129.2411 
L 326.888088 163.384571 
L 327.724251 147.211348 
L 328.560415 123.850026 
L 329.396579 140.023249 
L 330.232743 122.053001 
L 331.068907 120.255976 
L 331.905071 127.444075 
L 332.741234 136.429199 
L 333.577398 134.632175 
L 334.413562 136.429199 
L 335.249726 129.2411 
L 336.08589 118.458951 
L 336.922054 150.805398 
L 337.758217 143.617299 
L 338.594381 116.661927 
L 339.430545 95.097629 
L 340.266709 132.83515 
L 341.939037 95.097629 
L 342.7752 109.473827 
L 343.611364 120.255976 
L 345.283692 113.067877 
L 346.119856 118.458951 
L 346.95602 107.676803 
L 347.792183 100.488704 
L 348.628347 165.181596 
L 349.464511 168.775646 
L 350.300675 159.790522 
L 351.136839 145.414323 
L 351.973003 159.790522 
L 352.809166 150.805398 
L 353.64533 140.023249 
L 354.481494 150.805398 
L 355.317658 152.602423 
L 356.153822 161.587546 
L 356.989986 149.008373 
L 358.662313 152.602423 
L 359.498477 125.647051 
L 360.334641 141.820274 
L 361.170805 166.978621 
L 362.843132 156.196472 
L 363.679296 163.384571 
L 364.51546 163.384571 
L 365.351624 199.325067 
L 366.187788 202.919117 
L 367.860116 181.354819 
L 368.696279 199.325067 
L 369.532443 213.701265 
L 369.532443 213.701265 
" style="fill:none;stroke:#c44e52;stroke-linecap:round;stroke-width:1.75;"/>
   </g>
   <g id="line2d_16">
    <path clip-path="url(#pa6fa24fa81)" d="M 65.168807 166.978621 
L 66.004971 163.384571 
L 66.841134 154.399447 
L 67.677298 210.107216 
L 68.513462 213.701265 
L 69.349626 219.09234 
L 70.18579 219.09234 
L 71.021954 208.310191 
L 71.858118 208.310191 
L 72.694281 172.369695 
L 73.530445 195.731018 
L 74.366609 195.731018 
L 75.202773 217.295315 
L 76.038937 215.49829 
L 76.875101 195.731018 
L 77.711264 193.933993 
L 78.547428 179.557794 
L 79.383592 154.399447 
L 80.219756 152.602423 
L 81.05592 147.211348 
L 81.892084 140.023249 
L 82.728247 140.023249 
L 83.564411 141.820274 
L 84.400575 147.211348 
L 85.236739 149.008373 
L 86.072903 152.602423 
L 86.909067 166.978621 
L 87.74523 168.775646 
L 88.581394 159.790522 
L 89.417558 174.16672 
L 90.253722 166.978621 
L 91.089886 174.16672 
L 91.92605 188.542918 
L 92.762213 188.542918 
L 93.598377 190.339943 
L 94.434541 168.775646 
L 95.270705 170.57267 
L 96.106869 168.775646 
L 96.943033 199.325067 
L 97.779196 202.919117 
L 98.61536 197.528042 
L 99.451524 165.181596 
L 100.287688 147.211348 
L 101.123852 150.805398 
L 101.960016 150.805398 
L 102.796179 166.978621 
L 103.632343 166.978621 
L 104.468507 149.008373 
L 105.304671 145.414323 
L 106.140835 143.617299 
L 106.976999 140.023249 
L 107.813162 140.023249 
L 108.649326 143.617299 
L 109.48549 145.414323 
L 110.321654 157.993497 
L 111.157818 175.963745 
L 111.993982 175.963745 
L 112.830145 159.790522 
L 113.666309 159.790522 
L 114.502473 156.196472 
L 115.338637 170.57267 
L 116.174801 181.354819 
L 117.010965 181.354819 
L 117.847128 154.399447 
L 118.683292 136.429199 
L 119.519456 152.602423 
L 120.35562 157.993497 
L 121.191784 161.587546 
L 122.027948 193.933993 
L 122.864112 195.731018 
L 123.700275 188.542918 
L 124.536439 177.76077 
L 125.372603 177.76077 
L 126.208767 179.557794 
L 127.044931 179.557794 
L 128.717258 149.008373 
L 129.553422 149.008373 
L 130.389586 147.211348 
L 131.22575 152.602423 
L 132.061914 166.978621 
L 132.898078 165.181596 
L 133.734241 136.429199 
L 134.570405 136.429199 
L 135.406569 138.226224 
L 136.242733 138.226224 
L 137.078897 143.617299 
L 137.915061 141.820274 
L 138.751224 132.83515 
L 139.587388 145.414323 
L 140.423552 145.414323 
L 141.259716 138.226224 
L 142.09588 122.053001 
L 142.932044 123.850026 
L 143.768207 134.632175 
L 144.604371 140.023249 
L 145.440535 147.211348 
L 146.276699 141.820274 
L 147.112863 114.864902 
L 147.949027 123.850026 
L 148.78519 147.211348 
L 149.621354 145.414323 
L 150.457518 123.850026 
L 151.293682 122.053001 
L 152.129846 116.661927 
L 152.96601 118.458951 
L 153.802173 123.850026 
L 155.474501 123.850026 
L 156.310665 131.038125 
L 157.146829 136.429199 
L 157.982993 129.2411 
L 158.819156 120.255976 
L 159.65532 118.458951 
L 160.491484 107.676803 
L 161.327648 138.226224 
L 162.163812 145.414323 
L 162.999976 145.414323 
L 163.836139 138.226224 
L 164.672303 132.83515 
L 165.508467 138.226224 
L 166.344631 141.820274 
L 167.180795 129.2411 
L 168.016959 122.053001 
L 168.853123 120.255976 
L 169.689286 125.647051 
L 170.52545 120.255976 
L 171.361614 120.255976 
L 173.033942 113.067877 
L 174.706269 120.255976 
L 175.542433 113.067877 
L 176.378597 102.285728 
L 177.214761 89.706555 
L 178.050925 95.097629 
L 178.887089 87.90953 
L 179.723252 116.661927 
L 180.559416 123.850026 
L 181.39558 123.850026 
L 182.231744 127.444075 
L 183.067908 122.053001 
L 183.904072 113.067877 
L 184.740235 118.458951 
L 185.576399 114.864902 
L 186.412563 105.879778 
L 187.248727 105.879778 
L 188.084891 98.691679 
L 188.921055 105.879778 
L 189.757218 107.676803 
L 190.593382 111.270852 
L 191.429546 118.458951 
L 192.26571 98.691679 
L 193.101874 84.31548 
L 193.938038 87.90953 
L 194.774201 96.894654 
L 195.610365 104.082753 
L 196.446529 95.097629 
L 197.282693 80.721431 
L 198.118857 91.50358 
L 199.791184 73.533332 
L 200.627348 100.488704 
L 201.463512 84.31548 
L 202.299676 80.721431 
L 203.13584 80.721431 
L 203.972004 86.112505 
L 205.644331 93.300604 
L 206.480495 93.300604 
L 208.152823 100.488704 
L 208.988987 87.90953 
L 209.82515 98.691679 
L 210.661314 105.879778 
L 211.497478 105.879778 
L 212.333642 113.067877 
L 213.169806 107.676803 
L 214.842133 89.706555 
L 215.678297 95.097629 
L 216.514461 91.50358 
L 217.350625 86.112505 
L 218.186789 96.894654 
L 219.022953 84.31548 
L 219.859117 80.721431 
L 220.69528 69.939282 
L 221.531444 82.518456 
L 222.367608 96.894654 
L 223.203772 82.518456 
L 224.039936 78.924406 
L 224.8761 91.50358 
L 225.712263 80.721431 
L 226.548427 100.488704 
L 227.384591 102.285728 
L 228.220755 95.097629 
L 229.056919 84.31548 
L 229.893083 80.721431 
L 230.729246 78.924406 
L 231.56541 93.300604 
L 232.401574 84.31548 
L 233.237738 82.518456 
L 234.073902 78.924406 
L 234.910066 82.518456 
L 235.746229 100.488704 
L 236.582393 91.50358 
L 237.418557 80.721431 
L 238.254721 84.31548 
L 239.090885 89.706555 
L 239.927049 93.300604 
L 240.763212 89.706555 
L 241.599376 84.31548 
L 242.43554 84.31548 
L 243.271704 86.112505 
L 244.107868 93.300604 
L 244.944032 107.676803 
L 246.616359 96.894654 
L 247.452523 105.879778 
L 248.288687 95.097629 
L 249.124851 89.706555 
L 249.961015 93.300604 
L 251.633342 104.082753 
L 252.469506 96.894654 
L 253.30567 93.300604 
L 254.141834 104.082753 
L 255.814161 86.112505 
L 256.650325 95.097629 
L 257.486489 100.488704 
L 258.322653 93.300604 
L 259.158817 87.90953 
L 259.994981 95.097629 
L 260.831144 104.082753 
L 261.667308 104.082753 
L 262.503472 100.488704 
L 263.339636 100.488704 
L 264.1758 93.300604 
L 265.011964 93.300604 
L 265.848127 102.285728 
L 266.684291 96.894654 
L 267.520455 105.879778 
L 268.356619 105.879778 
L 269.192783 104.082753 
L 270.028947 96.894654 
L 270.865111 93.300604 
L 271.701274 109.473827 
L 272.537438 116.661927 
L 273.373602 118.458951 
L 274.209766 118.458951 
L 275.04593 111.270852 
L 275.882094 105.879778 
L 276.718257 95.097629 
L 277.554421 95.097629 
L 278.390585 89.706555 
L 280.062913 82.518456 
L 280.899077 77.127381 
L 281.73524 109.473827 
L 282.571404 111.270852 
L 283.407568 104.082753 
L 284.243732 95.097629 
L 285.079896 111.270852 
L 285.91606 105.879778 
L 286.752223 71.736307 
L 287.588387 77.127381 
L 288.424551 95.097629 
L 289.260715 100.488704 
L 290.096879 116.661927 
L 291.769206 116.661927 
L 292.60537 120.255976 
L 293.441534 118.458951 
L 294.277698 105.879778 
L 295.113862 104.082753 
L 295.950026 118.458951 
L 296.786189 120.255976 
L 297.622353 120.255976 
L 298.458517 116.661927 
L 299.294681 111.270852 
L 300.130845 120.255976 
L 300.967009 141.820274 
L 301.803172 141.820274 
L 302.639336 134.632175 
L 303.4755 118.458951 
L 305.147828 129.2411 
L 306.820155 132.83515 
L 307.656319 120.255976 
L 308.492483 127.444075 
L 309.328647 129.2411 
L 310.164811 105.879778 
L 311.000975 113.067877 
L 311.837138 113.067877 
L 312.673302 127.444075 
L 313.509466 136.429199 
L 314.34563 136.429199 
L 315.181794 141.820274 
L 316.017958 149.008373 
L 316.854122 150.805398 
L 317.690285 145.414323 
L 318.526449 150.805398 
L 319.362613 154.399447 
L 320.198777 147.211348 
L 321.034941 152.602423 
L 321.871105 152.602423 
L 322.707268 140.023249 
L 323.543432 163.384571 
L 324.379596 163.384571 
L 325.21576 154.399447 
L 326.888088 184.948869 
L 327.724251 181.354819 
L 328.560415 156.196472 
L 329.396579 157.993497 
L 330.232743 154.399447 
L 331.068907 132.83515 
L 331.905071 154.399447 
L 332.741234 152.602423 
L 333.577398 143.617299 
L 334.413562 170.57267 
L 335.249726 170.57267 
L 336.08589 152.602423 
L 336.922054 175.963745 
L 337.758217 174.16672 
L 338.594381 159.790522 
L 339.430545 141.820274 
L 340.266709 156.196472 
L 341.102873 149.008373 
L 341.939037 136.429199 
L 342.7752 156.196472 
L 343.611364 156.196472 
L 344.447528 150.805398 
L 345.283692 149.008373 
L 346.119856 149.008373 
L 346.95602 147.211348 
L 347.792183 172.369695 
L 348.628347 174.16672 
L 349.464511 188.542918 
L 350.300675 188.542918 
L 351.136839 166.978621 
L 351.973003 170.57267 
L 352.809166 165.181596 
L 353.64533 190.339943 
L 354.481494 192.136968 
L 355.317658 174.16672 
L 356.153822 181.354819 
L 356.989986 165.181596 
L 357.826149 170.57267 
L 358.662313 165.181596 
L 359.498477 156.196472 
L 360.334641 172.369695 
L 362.006969 172.369695 
L 362.843132 183.151844 
L 363.679296 183.151844 
L 365.351624 217.295315 
L 366.187788 219.09234 
L 367.023952 217.295315 
L 367.860116 206.513166 
L 368.696279 228.077464 
L 369.532443 229.874489 
L 369.532443 229.874489 
" style="fill:none;stroke:#55a868;stroke-linecap:round;stroke-width:1.75;"/>
   </g>
   <g id="patch_3">
    <path d="M 49.950625 239.758125 
L 49.950625 22.318125 
" style="fill:none;"/>
   </g>
   <g id="patch_4">
    <path d="M 384.750625 239.758125 
L 384.750625 22.318125 
" style="fill:none;"/>
   </g>
   <g id="patch_5">
    <path d="M 49.950625 239.758125 
L 384.750625 239.758125 
" style="fill:none;"/>
   </g>
   <g id="patch_6">
    <path d="M 49.950625 22.318125 
L 384.750625 22.318125 
" style="fill:none;"/>
   </g>
   <g id="text_17">
    <!-- Daily temperatures in Minneapolis for 2017 -->
    <defs>
     <path d="M 9.421875 54.6875 
L 18.40625 54.6875 
L 18.40625 0 
L 9.421875 0 
z
M 9.421875 75.984375 
L 18.40625 75.984375 
L 18.40625 64.59375 
L 9.421875 64.59375 
z
" id="DejaVuSans-69"/>
     <path d="M 9.421875 75.984375 
L 18.40625 75.984375 
L 18.40625 0 
L 9.421875 0 
z
" id="DejaVuSans-6c"/>
     <path d="M 54.890625 33.015625 
L 54.890625 0 
L 45.90625 0 
L 45.90625 32.71875 
Q 45.90625 40.484375 42.875 44.328125 
Q 39.84375 48.1875 33.796875 48.1875 
Q 26.515625 48.1875 22.3125 43.546875 
Q 18.109375 38.921875 18.109375 30.90625 
L 18.109375 0 
L 9.078125 0 
L 9.078125 54.6875 
L 18.109375 54.6875 
L 18.109375 46.1875 
Q 21.34375 51.125 25.703125 53.5625 
Q 30.078125 56 35.796875 56 
Q 45.21875 56 50.046875 50.171875 
Q 54.890625 44.34375 54.890625 33.015625 
z
" id="DejaVuSans-6e"/>
     <path d="M 9.8125 72.90625 
L 24.515625 72.90625 
L 43.109375 23.296875 
L 61.8125 72.90625 
L 76.515625 72.90625 
L 76.515625 0 
L 66.890625 0 
L 66.890625 64.015625 
L 48.09375 14.015625 
L 38.1875 14.015625 
L 19.390625 64.015625 
L 19.390625 0 
L 9.8125 0 
z
" id="DejaVuSans-4d"/>
     <path d="M 8.203125 72.90625 
L 55.078125 72.90625 
L 55.078125 68.703125 
L 28.609375 0 
L 18.3125 0 
L 43.21875 64.59375 
L 8.203125 64.59375 
z
" id="DejaVuSans-37"/>
    </defs>
    <g style="fill:#262626;" transform="translate(86.918125 16.318125)scale(0.12 -0.12)">
     <use xlink:href="#DejaVuSans-44"/>
     <use x="77.001953" xlink:href="#DejaVuSans-61"/>
     <use x="138.28125" xlink:href="#DejaVuSans-69"/>
     <use x="166.064453" xlink:href="#DejaVuSans-6c"/>
     <use x="193.847656" xlink:href="#DejaVuSans-79"/>
     <use x="253.027344" xlink:href="#DejaVuSans-20"/>
     <use x="284.814453" xlink:href="#DejaVuSans-74"/>
     <use x="324.023438" xlink:href="#DejaVuSans-65"/>
     <use x="385.546875" xlink:href="#DejaVuSans-6d"/>
     <use x="482.958984" xlink:href="#DejaVuSans-70"/>
     <use x="546.435547" xlink:href="#DejaVuSans-65"/>
     <use x="607.958984" xlink:href="#DejaVuSans-72"/>
     <use x="649.072266" xlink:href="#DejaVuSans-61"/>
     <use x="710.351562" xlink:href="#DejaVuSans-74"/>
     <use x="749.560547" xlink:href="#DejaVuSans-75"/>
     <use x="812.939453" xlink:href="#DejaVuSans-72"/>
     <use x="854.021484" xlink:href="#DejaVuSans-65"/>
     <use x="915.544922" xlink:href="#DejaVuSans-73"/>
     <use x="967.644531" xlink:href="#DejaVuSans-20"/>
     <use x="999.431641" xlink:href="#DejaVuSans-69"/>
     <use x="1027.214844" xlink:href="#DejaVuSans-6e"/>
     <use x="1090.59375" xlink:href="#DejaVuSans-20"/>
     <use x="1122.380859" xlink:href="#DejaVuSans-4d"/>
     <use x="1208.660156" xlink:href="#DejaVuSans-69"/>
     <use x="1236.443359" xlink:href="#DejaVuSans-6e"/>
     <use x="1299.822266" xlink:href="#DejaVuSans-6e"/>
     <use x="1363.201172" xlink:href="#DejaVuSans-65"/>
     <use x="1424.724609" xlink:href="#DejaVuSans-61"/>
     <use x="1486.003906" xlink:href="#DejaVuSans-70"/>
     <use x="1549.480469" xlink:href="#DejaVuSans-6f"/>
     <use x="1610.662109" xlink:href="#DejaVuSans-6c"/>
     <use x="1638.445312" xlink:href="#DejaVuSans-69"/>
     <use x="1666.228516" xlink:href="#DejaVuSans-73"/>
     <use x="1718.328125" xlink:href="#DejaVuSans-20"/>
     <use x="1750.115234" xlink:href="#DejaVuSans-66"/>
     <use x="1785.320312" xlink:href="#DejaVuSans-6f"/>
     <use x="1846.501953" xlink:href="#DejaVuSans-72"/>
     <use x="1887.615234" xlink:href="#DejaVuSans-20"/>
     <use x="1919.402344" xlink:href="#DejaVuSans-32"/>
     <use x="1983.025391" xlink:href="#DejaVuSans-30"/>
     <use x="2046.648438" xlink:href="#DejaVuSans-31"/>
     <use x="2110.271484" xlink:href="#DejaVuSans-37"/>
    </g>
   </g>
   <g id="legend_1">
    <g id="line2d_17">
     <path d="M 327.075625 35.416562 
L 347.075625 35.416562 
" style="fill:none;stroke:#c44e52;stroke-linecap:round;stroke-width:1.75;"/>
    </g>
    <g id="line2d_18"/>
    <g id="text_18">
     <!-- Max -->
     <defs>
      <path d="M 54.890625 54.6875 
L 35.109375 28.078125 
L 55.90625 0 
L 45.3125 0 
L 29.390625 21.484375 
L 13.484375 0 
L 2.875 0 
L 24.125 28.609375 
L 4.6875 54.6875 
L 15.28125 54.6875 
L 29.78125 35.203125 
L 44.28125 54.6875 
z
" id="DejaVuSans-78"/>
     </defs>
     <g style="fill:#262626;" transform="translate(355.075625 38.916562)scale(0.1 -0.1)">
      <use xlink:href="#DejaVuSans-4d"/>
      <use x="86.279297" xlink:href="#DejaVuSans-61"/>
      <use x="147.558594" xlink:href="#DejaVuSans-78"/>
     </g>
    </g>
    <g id="line2d_19">
     <path d="M 327.075625 50.094687 
L 347.075625 50.094687 
" style="fill:none;stroke:#55a868;stroke-linecap:round;stroke-width:1.75;"/>
    </g>
    <g id="line2d_20"/>
    <g id="text_19">
     <!-- Min -->
     <g style="fill:#262626;" transform="translate(355.075625 53.594687)scale(0.1 -0.1)">
      <use xlink:href="#DejaVuSans-4d"/>
      <use x="86.279297" xlink:href="#DejaVuSans-69"/>
      <use x="114.0625" xlink:href="#DejaVuSans-6e"/>
     </g>
    </g>
   </g>
  </g>
 </g>
 <defs>
  <clipPath id="pa6fa24fa81">
   <rect height="217.44" width="334.8" x="49.950625" y="22.318125"/>
  </clipPath>
 </defs>
</svg>
