<svg xmlns="http://www.w3.org/2000/svg" xmlns:xlink="http://www.w3.org/1999/xlink" width="672" height="480" viewBox="0 0 504 360"><defs><clipPath id="j"><path d="M52.7 71h347v2h-347zm0 0"/></clipPath><clipPath id="aN"><path d="M398.8 200h17.9v92.6h-18zm0 0"/></clipPath><clipPath id="aM"><path d="M398.8 200H416v92h-17.2zm0 0"/></clipPath><clipPath id="aI"><path d="M398.8 102.7h17.9V195h-18zm0 0"/></clipPath><clipPath id="aH"><path d="M398.8 102.7H416V195h-17.2zm0 0"/></clipPath><clipPath id="ap"><path d="M403 5.5h8v92.7h-8zm0 0"/></clipPath><clipPath id="ao"><path d="M398.8 5.5h17.9V98h-18zm0 0"/></clipPath><clipPath id="an"><path d="M398.8 5.5H416V98h-17.2zm0 0"/></clipPath><clipPath id="am"><path d="M52.7 200h347v92.6h-347zm0 0"/></clipPath><clipPath id="al"><path d="M384 200h2v92.6h-2zm0 0"/></clipPath><clipPath id="ak"><path d="M302 200h2v92.6h-2zm0 0"/></clipPath><clipPath id="aj"><path d="M210 200h2v92.6h-2zm0 0"/></clipPath><clipPath id="ai"><path d="M67 200h2v92.6h-2zm0 0"/></clipPath><clipPath id="ah"><path d="M52.7 286h347v3h-347zm0 0"/></clipPath><clipPath id="ag"><path d="M382 200h2v92.6h-2zm0 0"/></clipPath><clipPath id="af"><path d="M304 200h2v92.6h-2zm0 0"/></clipPath><clipPath id="ae"><path d="M212 200h2v92.6h-2zm0 0"/></clipPath><clipPath id="ad"><path d="M69 200h2v92.6h-2zm0 0"/></clipPath><clipPath id="ac"><path d="M52.7 209h347v2h-347zm0 0"/></clipPath><clipPath id="ab"><path d="M52.7 235h347v2h-347zm0 0"/></clipPath><clipPath id="aa"><path d="M52.7 260h347v3h-347zm0 0"/></clipPath><clipPath id="Z"><path d="M52.7 286h347v3h-347zm0 0"/></clipPath><clipPath id="Y"><path d="M343 200h2v92h-2zm0 0"/></clipPath><clipPath id="X"><path d="M258 200h2v92h-2zm0 0"/></clipPath><clipPath id="W"><path d="M141 200h1v92h-1zm0 0"/></clipPath><clipPath id="V"><path d="M52.7 222h347v1h-347zm0 0"/></clipPath><clipPath id="U"><path d="M52.7 248h347v1h-347zm0 0"/></clipPath><clipPath id="T"><path d="M52.7 274h347v1h-347zm0 0"/></clipPath><clipPath id="S"><path d="M52.7 200H399v92H52.7zm0 0"/></clipPath><clipPath id="R"><path d="M52.7 102.7h347V195h-347zm0 0"/></clipPath><clipPath id="Q"><path d="M384 102.7h2V195h-2zm0 0"/></clipPath><clipPath id="P"><path d="M302 102.7h2V195h-2zm0 0"/></clipPath><clipPath id="O"><path d="M210 102.7h2V195h-2zm0 0"/></clipPath><clipPath id="N"><path d="M67 102.7h2V195h-2zm0 0"/></clipPath><clipPath id="M"><path d="M52.7 155h347v2h-347zm0 0"/></clipPath><clipPath id="L"><path d="M382 102.7h2V195h-2zm0 0"/></clipPath><clipPath id="K"><path d="M304 102.7h2V195h-2zm0 0"/></clipPath><clipPath id="J"><path d="M212 102.7h2V195h-2zm0 0"/></clipPath><clipPath id="I"><path d="M69 102.7h2V195h-2zm0 0"/></clipPath><clipPath id="H"><path d="M52.7 102.7h347v1.3h-347zm0 0"/></clipPath><clipPath id="G"><path d="M52.7 128h347v2h-347zm0 0"/></clipPath><clipPath id="F"><path d="M52.7 155h347v2h-347zm0 0"/></clipPath><clipPath id="E"><path d="M52.7 181h347v2h-347zm0 0"/></clipPath><clipPath id="D"><path d="M343 102.7h2V195h-2zm0 0"/></clipPath><clipPath id="C"><path d="M258 102.7h2V195h-2zm0 0"/></clipPath><clipPath id="B"><path d="M141 102.7h1V195h-1zm0 0"/></clipPath><clipPath id="A"><path d="M52.7 115h347v2h-347zm0 0"/></clipPath><clipPath id="z"><path d="M52.7 142h347v1h-347zm0 0"/></clipPath><clipPath id="y"><path d="M52.7 168h347v2h-347zm0 0"/></clipPath><clipPath id="x"><path d="M52.7 102.7H399V195H52.7zm0 0"/></clipPath><clipPath id="w"><path d="M52.7 5.5h347V98h-347zm0 0"/></clipPath><clipPath id="v"><path d="M384 5.5h2V98h-2zm0 0"/></clipPath><clipPath id="u"><path d="M302 5.5h2V98h-2zm0 0"/></clipPath><clipPath id="a"><path d="M52.7 5.5H399V98H52.7zm0 0"/></clipPath><clipPath id="b"><path d="M52.7 82h347v1h-347zm0 0"/></clipPath><clipPath id="c"><path d="M52.7 61h347v2h-347zm0 0"/></clipPath><clipPath id="d"><path d="M52.7 40h347v2h-347zm0 0"/></clipPath><clipPath id="e"><path d="M52.7 19h347v2h-347zm0 0"/></clipPath><clipPath id="f"><path d="M141 5.5h1V98h-1zm0 0"/></clipPath><clipPath id="g"><path d="M258 5.5h2V98h-2zm0 0"/></clipPath><clipPath id="h"><path d="M343 5.5h2V98h-2zm0 0"/></clipPath><clipPath id="i"><path d="M52.7 92h347v2h-347zm0 0"/></clipPath><clipPath id="t"><path d="M210 5.5h2V98h-2zm0 0"/></clipPath><clipPath id="k"><path d="M52.7 50h347v2h-347zm0 0"/></clipPath><clipPath id="l"><path d="M52.7 29h347v3h-347zm0 0"/></clipPath><clipPath id="m"><path d="M52.7 9h347v2h-347zm0 0"/></clipPath><clipPath id="n"><path d="M69 5.5h2V98h-2zm0 0"/></clipPath><clipPath id="o"><path d="M212 5.5h2V98h-2zm0 0"/></clipPath><clipPath id="p"><path d="M304 5.5h2V98h-2zm0 0"/></clipPath><clipPath id="q"><path d="M382 5.5h2V98h-2zm0 0"/></clipPath><clipPath id="r"><path d="M52.7 92h347v2h-347zm0 0"/></clipPath><clipPath id="s"><path d="M67 5.5h2V98h-2zm0 0"/></clipPath><symbol overflow="visible" id="aW"><path d="M-1.7-.4V-1c.4-.1.7-.3.9-.5.2-.2.3-.5.3-.8 0-.3-.2-.6-.4-.9-.3-.2-.6-.4-1-.4-.3 0-.6.1-.8.4-.2.2-.4.5-.4.9l.1.5h-.7v-.2c0-.3 0-.6-.2-.9-.2-.3-.4-.4-.8-.4a1 1 0 00-.7.3 1 1 0 00-.3.7c0 .3.1.6.3.8l.8.4v.8A2 2 0 01-6-1.1c-.3-.3-.4-.7-.4-1.2 0-.4 0-.7.2-1a1.6 1.6 0 011.4-.9c.3 0 .5 0 .8.2l.5.7c0-.4.3-.7.5-.9.3-.2.6-.3 1-.3.6 0 1 .2 1.4.6.4.4.6 1 .6 1.5 0 .6-.2 1-.5 1.4-.3.4-.7.6-1.3.6zm0 0"/></symbol><symbol overflow="visible" id="ar"><path d="M0 1.3V.6h6.3v.7H4.1c.4.4.6.8.6 1.3 0 .3 0 .5-.2.8L4 4l-.7.4-1 .1C1.7 4.5 1 4.3.6 4 .1 3.6 0 3 0 2.6c0-.6.2-1 .7-1.3zm2.3 0c-.5 0-1 0-1.2.2-.4.3-.6.6-.6 1 0 .3.2.6.5.9.3.2.7.3 1.3.3.6 0 1 0 1.3-.3a1 1 0 000-1.7 2 2 0 00-1.3-.4zm0 0"/></symbol><symbol overflow="visible" id="bj"><path d="M2.8-.9L3 0H1.4A1 1 0 011-.6L1-1.7V-5H.2v-.7h.7v-1.4l1-.6v2h1v.7h-1V-1l.2.2h.7zm0 0"/></symbol><symbol overflow="visible" id="bi"><path d="M4.4-.7c-.3.3-.7.5-1 .6a3 3 0 01-1 .2C1.6.1 1.1 0 .8-.3.6-.6.4-1 .4-1.5a1.6 1.6 0 01.7-1.3c.2-.2.4-.3.7-.3l.8-.2c.8 0 1.4-.2 1.8-.3V-4c0-.4-.1-.6-.3-.8C3.8-4.9 3.5-5 3-5c-.5 0-.8 0-1 .2-.2.2-.4.4-.5.9l-1-.2.5-1 .8-.5a4 4 0 011.3-.2l1.2.1c.3.2.6.3.7.5l.3.6v2.2l.1 1.7.2.7h-1a2 2 0 01-.2-.7zm0-2.2l-1.6.4-.9.2-.3.3-.2.5.3.6c.2.2.5.3.9.3.3 0 .7-.1 1-.3.3-.1.5-.4.6-.6l.2-1zm0 0"/></symbol><symbol overflow="visible" id="bh"><path d="M4.4 0v-.7c-.3.5-.9.8-1.6.8L1.6-.2C1.2-.5.9-.8.6-1.3L.5-2.8c0-.6 0-1.1.3-1.6.1-.5.4-.8.8-1 .4-.3.8-.4 1.3-.4.3 0 .6 0 1 .2l.6.6V-8h1V0zm-3-2.8c0 .7.1 1.2.4 1.6a1.4 1.4 0 002.2 0c.3-.3.4-.9.4-1.6 0-.7-.1-1.3-.4-1.7-.3-.3-.7-.5-1.1-.5-.5 0-.8.1-1.1.5-.3.3-.4.9-.4 1.7zm0 0"/></symbol><symbol overflow="visible" id="bv"><path d="M2.3-.7V0H1.2a.7.7 0 01-.3-.4V-4H.1v-.6h.5v-1.1l.8-.5v1.6h.8v.6h-.8v3.1l.2.2H2.3zm0 0"/></symbol><symbol overflow="visible" id="bu"><path d="M3.6-1.7l.7.1c0 .6-.3 1-.6 1.3-.4.3-.8.4-1.3.4A2 2 0 011-.5C.5-1 .3-1.5.3-2.3c0-.5.1-.9.3-1.3l.7-.8c.4-.2.7-.3 1.1-.3.5 0 1 .2 1.2.4.4.3.6.6.6 1l-.7.2c0-.3-.2-.5-.4-.7a1 1 0 00-.6-.2c-.4 0-.8.1-1 .4-.2.3-.4.7-.4 1.3 0 .6.2 1 .4 1.4.2.2.5.4 1 .4.2 0 .5-.1.7-.3.2-.2.3-.5.4-.9zm0 0"/></symbol><symbol overflow="visible" id="bt"><path d="M.6-5.4v-.9h.8v.9zM.6 0v-4.6h.8V0zm0 0"/></symbol><symbol overflow="visible" id="bs"><path d="M.7 0v-6.3H4l.7.4c.2.1.4.3.5.6l.2.8c0 .6-.2 1-.5 1.4-.4.4-1 .5-1.9.5H1.5V0zm.8-3.3h1.6c.6 0 1-.1 1.2-.3.2-.2.3-.5.3-.9 0-.2 0-.4-.2-.6a1 1 0 00-.5-.4H1.5zm0 0"/></symbol><symbol overflow="visible" id="br"><path d="M3.5 0v-.6c-.3.5-.7.7-1.2.7-.4 0-.7-.1-1-.3A2 2 0 01.6-1a3.2 3.2 0 010-2.5 1.8 1.8 0 011.6-1.2c.3 0 .5 0 .8.2l.5.5v-2.3h.8V0zM1.1-2.3c0 .6.1 1 .4 1.3.2.3.5.5.8.5.4 0 .7-.2.9-.4.2-.3.4-.7.4-1.3 0-.6-.2-1-.4-1.4-.3-.3-.5-.4-.9-.4a1 1 0 00-.9.4c-.2.3-.3.7-.3 1.3zm0 0"/></symbol><symbol overflow="visible" id="bq"><path d="M1.8 0L.1-4.6H1l1 2.8.3.9.3-.9 1-2.8h.8L2.6 0zm0 0"/></symbol><symbol overflow="visible" id="bp"><path d="M.6 0v-4.6h.7v.7c.1-.3.3-.5.5-.6l.5-.2.8.3-.3.7-.6-.2c-.2 0-.3 0-.4.2-.2 0-.3.2-.3.4l-.2 1V0zm0 0"/></symbol><symbol overflow="visible" id="bo"><path d="M3.7-1.5l.8.1a2 2 0 01-.7 1.1c-.3.3-.8.4-1.3.4C1.8.1 1.3-.1.9-.5.5-1 .3-1.5.3-2.2.3-3 .5-3.6 1-4a2 2 0 011.6-.7 2 2 0 011.4.7c.4.4.6 1 .6 1.7v.2H1.1c0 .5.2.9.4 1.2.3.2.6.4 1 .4.3 0 .5-.1.7-.3.2-.1.4-.3.5-.7zM1.2-2.7h2.5c0-.4-.1-.7-.3-.9-.2-.3-.5-.4-1-.4-.3 0-.6 0-.8.3-.3.3-.4.6-.4 1zm0 0"/></symbol><symbol overflow="visible" id="bn"><path d="M.3-1.4H1c0 .2.2.5.4.6.2.2.5.3.8.3.4 0 .6-.1.8-.3.2 0 .3-.3.3-.5L3-1.7l-.8-.2-1.1-.4a1.1 1.1 0 01-.7-1L.5-4a1.3 1.3 0 011-.7 2.6 2.6 0 011.5 0l.6.5.3.7-.8.1c0-.2-.1-.4-.3-.5a1 1 0 00-.7-.2l-.7.1c-.2.2-.3.3-.3.5l.1.2.3.2.7.2 1.2.4c.2 0 .4.2.5.4l.2.7c0 .2-.1.5-.3.7-.1.2-.3.4-.6.5l-1 .2C1.6.1 1.2 0 1-.3.6-.5.4-.9.3-1.3zm0 0"/></symbol><symbol overflow="visible" id="bm"><path d="M1.3 0H.6v-6.3h.7v2.2c.4-.4.8-.6 1.3-.6.3 0 .5 0 .8.2L4-4l.4.7.1 1c0 .7-.2 1.3-.5 1.8-.4.4-.9.6-1.4.6-.6 0-1-.2-1.3-.7zm0-2.3c0 .5 0 1 .2 1.2.3.4.6.6 1 .6.3 0 .6-.2.9-.5.2-.3.3-.7.3-1.3 0-.6 0-1-.3-1.3a1 1 0 00-1.7 0 2 2 0 00-.4 1.3zm0 0"/></symbol><symbol overflow="visible" id="bl"><path d="M.4-3c0-1.1.3-2 .9-2.5.5-.6 1.3-1 2.1-1A3 3 0 015-6c.5.3.8.7 1 1.2.3.5.4 1 .4 1.7 0 .6 0 1.2-.3 1.7S5.4-.5 5-.3a3.2 3.2 0 01-3.2 0A3.5 3.5 0 01.4-3zm.9 0c0 .7.2 1.3.6 1.7.4.5 1 .7 1.5.7A2 2 0 005-1.3c.4-.4.6-1 .6-1.8 0-.6-.1-1-.3-1.4a2 2 0 00-1.9-1.2c-.5 0-1 .2-1.5.6-.4.4-.6 1.1-.6 2zm0 0"/></symbol><symbol overflow="visible" id="bg"><path d="M3.3 0h-.8v-5A5 5 0 011-4v-.7c.4-.2.8-.5 1-.8l.8-.8h.5zm0 0"/></symbol><symbol overflow="visible" id="bf"><path d="M.4-1.6l.8-.1c0 .4.2.7.4.9.2.2.5.3.8.3.4 0 .7-.2 1-.4.2-.3.3-.7.3-1.2 0-.4-.1-.8-.4-1-.2-.3-.5-.4-1-.4-.2 0-.4 0-.6.2-.2 0-.4.2-.5.4H.5l.6-3.3h3.1v.7H1.7l-.3 1.7c.4-.2.8-.4 1.2-.4a2 2 0 012 2c0 .6-.2 1.1-.6 1.5a2 2 0 01-1.6.8A2 2 0 011-.4C.6-.7.4-1 .4-1.6zm0 0"/></symbol><symbol overflow="visible" id="be"><path d="M.3-1.9v-.8h2.4v.8zm0 0"/></symbol><symbol overflow="visible" id="bd"><path d="M1.6-3.4C1.2-3.5 1-3.7.8-4l-.2-.8c0-.5.2-.8.5-1.2.3-.3.8-.4 1.3-.4.6 0 1 .1 1.3.5.4.3.5.7.5 1.1 0 .3 0 .6-.2.8-.1.2-.4.4-.7.5.4.1.7.3.9.6.2.3.3.6.3 1 0 .5-.2 1-.6 1.4a2 2 0 01-1.5.5C1.8.1 1.4 0 1-.4.5-.8.4-1.3.4-1.8c0-.4 0-.8.3-1 .2-.3.5-.5.9-.6zm-.2-1.3c0 .3.1.5.3.7.2.2.4.3.7.3a1 1 0 001-1 1 1 0 00-.2-.7 1 1 0 00-.8-.3 1 1 0 00-.7.3c-.2.2-.3.4-.3.7zm-.2 2.9l.1.6.5.5.6.2c.4 0 .7-.1 1-.4.2-.2.3-.5.3-.9A1.3 1.3 0 002.4-3c-.3 0-.6.1-.9.4-.2.2-.4.5-.3.9zm0 0"/></symbol><symbol overflow="visible" id="bc"><path d="M4.4-4.8l-.8.1c0-.3-.2-.5-.3-.7A1.1 1.1 0 002-5.5c-.3.2-.4.5-.6.8a4 4 0 00-.2 1.5 1.8 1.8 0 011.5-.9c.5 0 1 .2 1.3.6.4.4.6.9.6 1.5 0 .4-.1.7-.3 1-.1.4-.4.7-.7.8a2 2 0 01-1 .3A2 2 0 011-.6C.5-1.1.3-1.9.3-2.9.3-4.2.6-5 1-5.6a2 2 0 011.6-.7c.5 0 .9.1 1.2.4.3.3.5.7.6 1.1zM1.2-2c0 .2 0 .5.2.7a1.2 1.2 0 001.1.8c.3 0 .6-.2.8-.4.3-.3.4-.6.4-1.1 0-.4-.1-.8-.3-1-.3-.3-.6-.4-1-.4-.3 0-.6.1-.8.4-.3.2-.4.6-.4 1zm0 0"/></symbol><symbol overflow="visible" id="bb"><path d="M2.8 0v-1.5H.1v-.7L3-6.3h.6v4h.9v.8h-.9V0zm0-2.2v-2.9l-2 2.9zm0 0"/></symbol><symbol overflow="visible" id="ba"><path d="M4.4-.7V0H.3v-.5l.6-.9 1-1c.7-.5 1.1-1 1.4-1.3l.3-.9a1 1 0 00-.3-.8c-.2-.2-.5-.3-.9-.3-.3 0-.6.1-.9.4-.2.2-.3.5-.3.9l-.8-.1c0-.6.3-1 .6-1.4.4-.3.9-.4 1.5-.4s1 .1 1.4.5c.3.3.5.7.5 1.2l-.1.8-.5.7L2.6-2A12.5 12.5 0 001.3-.7zm0 0"/></symbol><symbol overflow="visible" id="aZ"><path d="M.4-3.1c0-.7 0-1.3.2-1.8.1-.5.4-.8.7-1 .3-.3.7-.4 1.1-.4.4 0 .7 0 1 .2.2.1.4.3.5.6.2.2.3.5.4 1l.2 1.4c0 .7-.1 1.3-.3 1.8-.1.4-.3.8-.6 1-.3.3-.7.4-1.2.4-.6 0-1-.2-1.4-.6C.6-1.1.4-2 .4-3.1zm.8 0c0 1 0 1.7.3 2 .3.4.6.6 1 .6.3 0 .6-.2.8-.5.3-.4.4-1 .4-2.1 0-1-.1-1.7-.4-2-.2-.4-.5-.6-.9-.6a1 1 0 00-.8.5c-.3.4-.4 1-.4 2zm0 0"/></symbol><symbol overflow="visible" id="aY"><path d="M-5.5-.4h-.7v-4.1h.6L-4-3.3A10.1 10.1 0 000-2.1v.8l-1.8-.3a9.3 9.3 0 01-3.7-1.9zm0 0"/></symbol><symbol overflow="visible" id="aX"><path d="M0-2.8h-1.5v2.7h-.7L-6.3-3v-.6h4v-.9h.8v.9H0zm-2.2 0h-2.9l2.9 2zm0 0"/></symbol><symbol overflow="visible" id="bk"><path d="M4.6-1.8h1c-.1.7-.4 1.1-.8 1.4-.5.4-1 .5-1.7.5-.8 0-1.5-.2-2-.7C.6-1.2.4-2 .4-2.8c0-1 .2-1.7.7-2.2.5-.6 1.2-.8 2-.8.7 0 1.3.2 1.8.7.5.6.8 1.3.8 2.2v.3H1.4c0 .6.2 1.1.5 1.4.4.4.7.5 1.2.5.4 0 .7 0 1-.2.2-.2.4-.5.5-1zM1.5-3.4h3.1a2 2 0 00-.3-1C4-5 3.6-5 3-5s-.8.1-1.1.4c-.3.3-.5.7-.5 1.2zm0 0"/></symbol><symbol overflow="visible" id="aV"><path d="M-4.8-4.4l.1.8c-.3 0-.5.2-.7.3A1.1 1.1 0 00-5.5-2c.2.3.5.4.8.6l1.5.2a1.8 1.8 0 01-.9-1.5c0-.5.2-1 .6-1.3A2 2 0 01-2-4.5c.4 0 .7.1 1 .3.4.1.7.4.8.7.2.3.3.6.3 1A2 2 0 01-.6-1c-.5.4-1.3.6-2.3.6C-4.2-.3-5-.6-5.6-1a2 2 0 01-.7-1.6c0-.5.1-.9.4-1.2.3-.3.7-.5 1.1-.6zM-2-1.2c.2 0 .5 0 .7-.2a1.2 1.2 0 00.8-1.1c0-.3-.2-.6-.4-.8-.3-.3-.6-.4-1.1-.4-.4 0-.8.1-1 .3-.3.3-.4.6-.4 1 0 .3.1.6.4.8.2.3.6.4 1 .4zm0 0"/></symbol><symbol overflow="visible" id="aU"><path d="M-1.9-.3h-.8v-2.4h.8zm0 0"/></symbol><symbol overflow="visible" id="aT"><path d="M-1.6-.4l-.1-.8c.4 0 .7-.2.9-.4.2-.2.3-.5.3-.8 0-.4-.2-.7-.4-1-.3-.2-.7-.3-1.2-.3-.4 0-.8.1-1 .4-.3.2-.4.5-.4 1 0 .2 0 .4.2.6 0 .2.2.4.4.5v.7l-3.3-.6v-3.1h.7v2.5l1.7.3c-.2-.4-.4-.8-.4-1.2a2 2 0 012-2c.6 0 1.1.2 1.5.6.6.4.8 1 .8 1.6 0 .6-.2 1-.5 1.4-.3.4-.7.6-1.2.6zm0 0"/></symbol><symbol overflow="visible" id="aS"><path d="M0-3.3v.8h-5l.6.7.4.8h-.7c-.2-.4-.5-.8-.8-1a3 3 0 00-.8-.8v-.5zm0 0"/></symbol><symbol overflow="visible" id="aR"><path d="M-3.1-.4c-.7 0-1.3 0-1.8-.2-.5-.1-.8-.4-1-.7-.3-.3-.4-.7-.4-1.1 0-.4 0-.7.2-1 .1-.2.3-.4.6-.5.2-.2.5-.3 1-.4l1.4-.2c.7 0 1.3.1 1.8.3.4.1.8.3 1 .6.3.3.4.7.4 1.2 0 .6-.2 1-.6 1.4-.6.4-1.4.6-2.6.6zm0-.8c1 0 1.7 0 2-.3.4-.3.6-.6.6-1 0-.3-.2-.6-.5-.8-.4-.3-1-.4-2.1-.4-1 0-1.7.1-2 .4-.4.2-.6.5-.6.9 0 .3.2.6.5.8.4.3 1 .4 2 .4zm0 0"/></symbol><symbol overflow="visible" id="aQ"><path d="M-.7-4.4H0v4.1h-.5l-.9-.6-1-1c-.5-.7-1-1.1-1.3-1.4l-.9-.3a1 1 0 00-.8.3c-.2.2-.3.5-.3.9 0 .3.1.6.4.9.2.2.5.3.9.3l-.1.8A2 2 0 01-5.9-1c-.3-.4-.4-.9-.4-1.5s.1-1 .5-1.4c.3-.3.7-.5 1.2-.5l.8.1.7.5L-2-2.6A12.8 12.8 0 00-.7-1.3zm0 0"/></symbol><symbol overflow="visible" id="aP"><path d="M0 .6h4.6v.7h-.7l.6.5.2.9-.2.8c-.2.2-.4.4-.6.4.5.4.8.9.8 1.5 0 .4-.2.7-.4 1-.3.2-.6.4-1.2.4H0V6h3.5l.4-.4.1-.4a1 1 0 00-.3-.8c-.2-.2-.6-.3-1-.3H0v-.8h3c.3 0 .6 0 .7-.2.2-.1.3-.3.3-.6 0-.2 0-.4-.2-.6a1 1 0 00-.5-.4c-.2-.1-.5-.2-1-.1H0zm0 0"/></symbol><symbol overflow="visible" id="aO"><path d="M2.2 5.2L2 6C1.3 5.8.8 5.5.4 5 .1 4.7 0 4 0 3.5c0-.7.1-1.2.4-1.7.3-.4.7-.7 1.2-1C2 .6 2.5.5 3.2.5c.6 0 1.2.2 1.7.4.5.3.9.6 1.1 1 .3.5.4 1 .4 1.6C6.4 4 6.2 4.6 6 5c-.3.4-.7.7-1.3.9l-.2-.8a2 2 0 001-.7c.2-.2.3-.6.3-1a2 2 0 00-.4-1.2c-.2-.3-.5-.6-.9-.7l-1.2-.2c-.5 0-1 0-1.4.2-.4.2-.7.4-.9.8a2 2 0 00-.3 1c0 .5.1.9.4 1.2.3.3.7.6 1.2.7zm0 0"/></symbol><symbol overflow="visible" id="aL"><path d="M0 1.4L4.6 0v.8l-2.7.8-1 .2 1 .3 2.7.7v.8l-2.7.7-.9.2 1 .3 2.6.7v.8L0 4.9V4l2.7-.8.8-.1-3.5-1zm0 0"/></symbol><symbol overflow="visible" id="aK"><path d="M5.4.6h.9v.8h-.9zM0 .6h4.6v.8H0zm0 0"/></symbol><symbol overflow="visible" id="aJ"><path d="M0 .7h6.3V4l-.4.7c-.1.2-.3.4-.6.5a2 2 0 01-.8.2A2 2 0 013 5c-.4-.4-.5-1-.5-1.9V1.5H0zm3.3.8v1.6c0 .6.1 1 .3 1.2.2.2.5.3.9.3.2 0 .4 0 .6-.2l.4-.5V1.5zm0 0"/></symbol><symbol overflow="visible" id="aG"><path d="M0 .6h6.3v.7H0zm0 0"/></symbol><symbol overflow="visible" id="aF"><path d="M.6 3.6a3 3 0 01-.6-.9L0 2c0-.5.1-1 .4-1.2.2-.3.5-.4.9-.4a1.3 1.3 0 011 .6c.2.1.3.3.3.5l.1.7.3 1.4H3c.3 0 .5 0 .7-.2l.2-.9c0-.4 0-.6-.2-.8 0-.2-.3-.3-.6-.4V.4l.8.4c.2.1.4.4.5.7a3.2 3.2 0 010 2c0 .2-.2.4-.3.5l-.5.2H1.9l-1.4.1-.5.2v-.8l.6-.1zm1.7-.1L2 2.2l-.2-.6-.2-.4a.6.6 0 00-.4 0c-.2 0-.4 0-.5.2L.5 2c0 .3 0 .5.2.8l.5.5H2zm0 0"/></symbol><symbol overflow="visible" id="aE"><path d="M0 .8h4V0h.6v.7h1.1l.5.4.2.8v.8l-.7-.2v-.4c0-.3 0-.4-.2-.5 0-.1-.2-.2-.5-.2h-.4v1H4v-1H0zm0 0"/></symbol><symbol overflow="visible" id="aD"><path d="M.7 2.3H0v-.5-.7L.5.8H4V.1h.6v.5h1.1l.5.8H4.6v.8H4v-.8H.9l-.2.2V2.3zm0 0"/></symbol><symbol overflow="visible" id="aC"><path d="M0 .6h4.6v.7h-.7c.5.3.8.8.8 1.4 0 .3 0 .6-.2.8 0 .2-.2.4-.4.5l-.5.2H0v-.7h3.5l.4-.4.1-.5c0-.4-.1-.7-.3-.9-.2-.2-.6-.4-1.2-.3H0zm0 0"/></symbol><symbol overflow="visible" id="aB"><path d="M0 3.6h.7C.2 3.2-.1 2.7-.1 2c0-.2 0-.5.2-.7a1.2 1.2 0 011-.8h3.5v.7H1.2l-.5.4a1 1 0 00-.1.6l.1.6.5.5h3.4v.9H0zm0 0"/></symbol><symbol overflow="visible" id="aA"><path d="M2.3.3c.8 0 1.5.2 1.9.7.3.4.5.9.5 1.4A2 2 0 014 4c-.5.4-1 .6-1.8.6-.5 0-1-.1-1.3-.3-.4-.2-.6-.4-.8-.8-.2-.3-.3-.7-.3-1 0-.7.2-1.2.6-1.6.4-.4 1-.6 1.8-.6zm0 .8c-.6 0-1 .1-1.3.4-.3.2-.5.5-.5 1 0 .3.2.6.5.9.3.2.7.4 1.3.4.6 0 1-.2 1.3-.4.3-.3.4-.6.4-1s-.1-.7-.4-1c-.3-.2-.7-.3-1.3-.3zm0 0"/></symbol><symbol overflow="visible" id="az"><path d="M1.7 3.6l-.1.7a2 2 0 01-1.3-.6C0 3.3 0 2.9 0 2.4c0-.6.2-1.1.6-1.5.4-.4 1-.6 1.8-.6.5 0 .9.1 1.3.3l.8.7c.2.4.3.7.3 1.1 0 .5-.2 1-.4 1.2-.3.4-.6.6-1 .6L3 3.5c.3 0 .5-.2.7-.4.2-.2.2-.4.2-.6 0-.4-.1-.8-.4-1-.3-.2-.7-.4-1.3-.4-.6 0-1 .2-1.4.4-.2.2-.4.5-.4 1 0 .2.1.5.3.7.2.2.5.3.9.4zm0 0"/></symbol><symbol overflow="visible" id="ay"><path d="M1 2.2h1.7V.5h.8v1.7h1.7v.7H3.5v1.7h-.8V3H1zm0 0"/></symbol><symbol overflow="visible" id="aw"><path d="M0 3.5h.6c-.5-.3-.7-.7-.7-1.2 0-.4.1-.7.3-1C.4 1 .7.7 1 .6a3.2 3.2 0 012.5 0 1.8 1.8 0 011.2 1.6c0 .3 0 .5-.2.8l-.5.5h2.3v.8H0zm2.3-2.4c-.6 0-1 .1-1.3.4a1 1 0 00-.5.8c0 .4.2.7.4.9.3.2.7.4 1.3.4.6 0 1-.2 1.4-.4.3-.3.4-.5.4-.9a1 1 0 00-.4-.9c-.3-.2-.7-.3-1.3-.3zm0 0"/></symbol><symbol overflow="visible" id="av"><path d="M0 1.8L4.6.1V1L1.8 2l-.9.3.9.3 2.8 1v.8L0 2.6zm0 0"/></symbol><symbol overflow="visible" id="au"><path d="M0 .6h4.6v.7h-.7c.3.1.5.3.6.5l.2.5-.3.8-.7-.3.2-.6c0-.2 0-.3-.2-.4a.8.8 0 00-.4-.3l-1-.2H0zm0 0"/></symbol><symbol overflow="visible" id="at"><path d="M1.5 3.7l-.1.8a2 2 0 01-1.1-.7C0 3.5-.1 3-.1 2.5c0-.7.2-1.2.6-1.6.4-.4 1-.6 1.7-.6C3 .3 3.6.5 4 1c.5.4.7 1 .7 1.6A2 2 0 014 3.9c-.4.4-1 .6-1.7.6H2V1.1c-.5 0-.9.2-1.2.4-.2.3-.4.6-.4 1 0 .3.1.5.3.7.1.2.3.4.7.5zm1.2-2.5v2.5c.4 0 .7-.1.9-.3.3-.2.4-.5.4-1 0-.3 0-.6-.3-.8-.3-.3-.6-.4-1-.4zm0 0"/></symbol><symbol overflow="visible" id="as"><path d="M1.4.3V1a1 1 0 00-.6.4c-.2.2-.3.5-.3.8 0 .4.1.6.3.8 0 .2.3.3.5.3l.4-.3.2-.8.4-1.1a1.1 1.1 0 011-.7l.6.1a1.3 1.3 0 01.7 1 2.6 2.6 0 010 1.5l-.5.6-.7.3-.1-.8c.2 0 .4-.1.5-.3.2-.1.2-.4.2-.7L4 1.4c-.2-.2-.3-.3-.5-.3l-.2.1-.2.3-.2.7-.4 1.2c0 .2-.2.4-.4.5l-.7.2c-.2 0-.5-.1-.7-.3-.2-.1-.4-.3-.5-.6l-.2-1c0-.6.1-1 .4-1.3.2-.3.6-.5 1-.6zm0 0"/></symbol><symbol overflow="visible" id="aq"><path d="M3 .4c1.1 0 2 .3 2.5.9.6.5 1 1.3 1 2.1A3 3 0 016 5c-.3.5-.7.8-1.2 1-.5.3-1 .4-1.7.4-.6 0-1.2 0-1.7-.3S.5 5.4.3 5a3.2 3.2 0 010-3.2A3.5 3.5 0 013 .4zm0 .9c-.7 0-1.3.2-1.7.6a2 2 0 00-.7 1.5c0 .7.2 1.2.7 1.6.4.4 1 .6 1.8.6.6 0 1-.1 1.4-.3a2 2 0 001.2-1.9c0-.5-.2-1-.6-1.5-.4-.4-1.1-.6-2-.6zm0 0"/></symbol></defs><path fill="#fff" d="M0 0h504v360H0z"/><path fill="#fff" d="M0 0h504v360H0z"/><path d="M0 360h504V0H0zm0 0" fill="none" stroke-width="1.1" stroke-linecap="round" stroke-linejoin="round" stroke="#fff" stroke-miterlimit="10"/><g clip-path="url(#a)"><path d="M52.7 97.2h346V5.5h-346zm0 0" fill="#fff"/></g><g clip-path="url(#b)"><path d="M52.7 82.6h346" fill="none" stroke-width=".5" stroke-linejoin="round" stroke="#ebebeb" stroke-miterlimit="10"/></g><g clip-path="url(#c)"><path d="M52.7 61.8h346" fill="none" stroke-width=".5" stroke-linejoin="round" stroke="#ebebeb" stroke-miterlimit="10"/></g><g clip-path="url(#d)"><path d="M52.7 41h346" fill="none" stroke-width=".5" stroke-linejoin="round" stroke="#ebebeb" stroke-miterlimit="10"/></g><g clip-path="url(#e)"><path d="M52.7 20h346" fill="none" stroke-width=".5" stroke-linejoin="round" stroke="#ebebeb" stroke-miterlimit="10"/></g><g clip-path="url(#f)"><path d="M141.6 97.2V5.5" fill="none" stroke-width=".5" stroke-linejoin="round" stroke="#ebebeb" stroke-miterlimit="10"/></g><g clip-path="url(#g)"><path d="M258.9 97.2V5.5" fill="none" stroke-width=".5" stroke-linejoin="round" stroke="#ebebeb" stroke-miterlimit="10"/></g><g clip-path="url(#h)"><path d="M344 97.2V5.5" fill="none" stroke-width=".5" stroke-linejoin="round" stroke="#ebebeb" stroke-miterlimit="10"/></g><g clip-path="url(#i)"><path d="M52.7 93h346" fill="none" stroke-width="1.1" stroke-linejoin="round" stroke="#ebebeb" stroke-miterlimit="10"/></g><g clip-path="url(#j)"><path d="M52.7 72.2h346" fill="none" stroke-width="1.1" stroke-linejoin="round" stroke="#ebebeb" stroke-miterlimit="10"/></g><g clip-path="url(#k)"><path d="M52.7 51.3h346" fill="none" stroke-width="1.1" stroke-linejoin="round" stroke="#ebebeb" stroke-miterlimit="10"/></g><g clip-path="url(#l)"><path d="M52.7 30.5h346" fill="none" stroke-width="1.1" stroke-linejoin="round" stroke="#ebebeb" stroke-miterlimit="10"/></g><g clip-path="url(#m)"><path d="M52.7 9.6h346" fill="none" stroke-width="1.1" stroke-linejoin="round" stroke="#ebebeb" stroke-miterlimit="10"/></g><g clip-path="url(#n)"><path d="M70.1 97.2V5.5" fill="none" stroke-width="1.1" stroke-linejoin="round" stroke="#ebebeb" stroke-miterlimit="10"/></g><g clip-path="url(#o)"><path d="M213 97.2V5.5" fill="none" stroke-width="1.1" stroke-linejoin="round" stroke="#ebebeb" stroke-miterlimit="10"/></g><g clip-path="url(#p)"><path d="M304.8 97.2V5.5" fill="none" stroke-width="1.1" stroke-linejoin="round" stroke="#ebebeb" stroke-miterlimit="10"/></g><g clip-path="url(#q)"><path d="M383 97.2V5.5" fill="none" stroke-width="1.1" stroke-linejoin="round" stroke="#ebebeb" stroke-miterlimit="10"/></g><path d="M68.4 93h23.8V9.7H68.4zm0 0M116 93H140V9.7H116zm0 0M163.7 93h23.8V9.7h-23.8zm0 0M211.3 93H235V9.7h-23.8zm0 0M258.9 93h23.8V9.7H259zm0 0M306.5 93h23.8V9.7h-23.8zm0 0M354.1 93H378V9.7h-23.8zm0 0" fill="#7f7f7f" fill-opacity=".1"/><g clip-path="url(#r)"><path d="M52.7 93h346" fill="none" stroke-width="1.1" stroke-linejoin="round" stroke="#a9a9a9" stroke-miterlimit="10"/></g><path d="M70.1 62.4l3.4-2.7 3.4.7 3.4 2.5 3.4 2.4 3.4 13.3 3.4 3L94 64.3l3.4 1.3 3.4-1.4 3.4.8 3.4 4.3 3.4 11.4 3.5.4 3.3-18.4 3.5 1 3.4-1.6 3.4-.5 3.4 5.1 3.4 12.2 3.4 1.3 3.4-20.6 3.4 2.8 3.4 3.5 3.4 4.2 3.4 13.9 3.4-2L162 80l3.4-20.4 3.4 2.7 3.4-1.6 3.4 2 3.4 5.6 3.4 10 3.4 1 3.4-21.8 3.4 2.7 3.4-1.5 3.4 1 3.4 6 3.4 12.4 3.4-.3 3.4-22.2 3.4 3.5 3.4-1.6 3.4 2.4 3.4 4 3.4 12.8 3.4.7 3.4-23.7 3.4-2.1 3.4 2.6 3.4-.2 3.4 4.3 3.4 17 3.4-.4 3.4-24.7 3.4 2.2 3.4-.8 3.4 1 3.4 7.3 3.4 14.3L281 76l3.4-27 3.4.8 3.4 1.3 3.4 1.6 3.4 4.9 3.4 17.4 3.4-.4 3.4-28.7 3.4 2.6 3.4.7 3.4 1 3.4 7 3.4 17 3.4-1 3.4-28.7 3.4 8 3.4-8 3.4 6.5 3.4 6.9 3.4 18.7 3.4 3.2 3.4-13.7 3.4-23.2 3.4-3.3 3.4-30 3.4 27.4 3.4 29.3 3.4-.1 3.4-31 3.4 9.5v1.7l-3.4-9.4-3.4 30.8-3.4.1-3.4-29L366 12l-3.4 29.5-3.4 3.2-3.4 23-3.4 13.8-3.4-3.2-3.4-18.7-3.4-6.9-3.4-6.5-3.4 8-3.4-7.9-3.4 28.6-3.4 1-3.4-17-3.4-7-3.4-1-3.4-.6-3.4-2.6-3.4 28.6-3.4.4-3.4-17.5-3.4-4.8-3.4-1.6-3.4-1.2-3.4-1-3.4 27-3.4-1.7-3.4-14.4-3.4-7.3-3.4-1-3.4.9-3.4-2.2-3.4 24.6-3.4.4-3.4-16.9-3.4-4.3-3.4.2-3.4-2.6-3.4 2.1-3.4 23.7-3.4-.8-3.4-12.8-3.4-4-3.4-2.3-3.4 1.6-3.4-3.5-3.4 20.8-3.4.4-3.4-12.5-3.4-5.9-3.4-1-3.4 1.4-3.4-2.6-3.4 21.8-3.4-1-3.4-10.1-3.4-5.6-3.4-2-3.4 1.7-3.4-2.8-3.4 20.6-3.4 2-3.4 1.9-3.4-14.1-3.4-4.3-3.4-3.4-3.4-2.7-3.4 20.6-3.4-1.3-3.4-12.3-3.4-5-3.4.4-3.4 1.7-3.5-1-3.3 18.5-3.5-.4-3.4-11.6-3.4-4.3-3.4-.9-3.4 1.5-3.4-1.3-3.4 17.7-3.4-3.2-3.4-13.4-3.4-2.4-3.4-2.4-3.4-.7-3.4 2.6zm0 0" fill="#add8e6" fill-opacity=".6"/><path d="M70.1 62.5l3.4-2.6 3.4.7 3.4 2.5 3.4 2.4 3.4 13.3 3.4 3.1L94 64.4l3.4 1.3 3.4-1.5 3.4.9 3.4 4.2L111 81l3.5.4 3.3-18.5 3.5 1 3.4-1.7 3.4-.4 3.4 5 3.4 12.3 3.4 1.3 3.4-20.6 3.4 2.8 3.4 3.4 3.4 4.2 3.4 14 3.4-1.9 3.4-2 3.4-20.4 3.4 2.7 3.4-1.7 3.4 2 3.4 5.6 3.4 10 3.4 1.1 3.4-21.8 3.4 2.7 3.4-1.5 3.4 1 3.4 6 3.4 12.4 3.4-.3 3.4-21.6 3.4 3.5 3.4-1.6 3.4 2.4 3.4 4 3.4 12.8 3.4.7 3.4-23.6 3.4-2.2 3.4 2.7 3.4-.2 3.4 4.3 3.4 16.9 3.4-.4 3.4-24.7 3.4 2.2 3.4-.8 3.4 1 3.4 7.3 3.4 14.4 3.4 1.8 3.4-27.1 3.4.9 3.4 1.2 3.4 1.6 3.4 5 3.4 17.4 3.4-.4 3.4-28.7 3.4 2.6 3.4.6 3.4 1.1 3.4 7 3.4 17 3.4-1 3.4-28.7 3.4 8 3.4-8 3.4 6.5 3.4 6.8 3.4 18.7 3.4 3.3 3.4-13.8 3.4-23 3.4-3.3 3.4-29.8 3.4 27.1 3.4 29.2 3.4-.1 3.4-31 3.4 9.6" fill="none" stroke-width="1.1" stroke-linejoin="round" stroke="#00008b" stroke-miterlimit="10"/><path d="M70.1 61.6l3.4-1.6 3.4.2 3.4 2.2 3.4 2.5 3.4 13.9 3.4 3.8L94 65.4l3.4 1 3.4-1.5 3.4.4 3.4 3.5 3.4 12h3.5l3.3-18.7 3.5 2.2 3.4-1.6 3.4-.1 3.4 3.8 3.4 12.7 3.4.5 3.4-20.3 3.4 3.4 3.4 2.6 3.4 4.2 3.4 14.6 3.4-1.7L162 80l3.4-19.5 3.4 2.4 3.4-1.5 3.4.1 3.4 6.2 3.4 11.3h3.4l3.4-21.6 3.4 2.9 3.4-1.6 3.4 2.5 3.4 4.5 3.4 13.3 3.4-.2 3.4-28.2 3.4 2 3.4-.6 3.4 1.8 3.4 6 3.4 15.9 3.4-.4 3.4-25.6 3.4-3.6 3.4 2.1 3.4.1 3.4 6.1 3.4 18.7h3.4l3.4-30.8 3.4 3.5 3.4-1.2 3.4 1 3.4 8.5 3.4 17.6 3.4 1.7 3.4-29.3 3.4-.2 3.4 2.5 3.4.6 3.4 5.8 3.4 20.2 3.4-1.9 3.4-23.5 3.4.2 3.4.8 3.4 3.5 3.4 6.3 3.4 16.8 3.4-1.6 3.4-27.9 3.4 7.5 3.4-7.3 3.4 5.1 3.4 6 3.4 20.3 3.4 2.6 3.4-13.5 3.4-22 3.4-3.4 3.4-24.6 3.4 23.6 3.4 28.8 3.4-2.3 3.4-31 3.4 10" fill="none" stroke-width="1.1" stroke-linejoin="round" stroke="#8b0000" stroke-miterlimit="10"/><g clip-path="url(#s)"><path d="M68.4 97.2V5.5" fill="none" stroke-width="1.1" stroke-linejoin="round" stroke="#000" stroke-dasharray="1.066978,3.200935" stroke-miterlimit="10"/></g><g clip-path="url(#t)"><path d="M211.3 97.2V5.5" fill="none" stroke-width="1.1" stroke-linejoin="round" stroke="#000" stroke-dasharray="4.267913,4.267913" stroke-miterlimit="10"/></g><g clip-path="url(#u)"><path d="M303.1 97.2V5.5" fill="none" stroke-width="1.1" stroke-linejoin="round" stroke="#000" stroke-dasharray="4.267913,4.267913" stroke-miterlimit="10"/></g><g clip-path="url(#v)"><path d="M384.7 97.2V5.5" fill="none" stroke-width="1.1" stroke-linejoin="round" stroke="#000" stroke-dasharray="1.066978,3.200935" stroke-miterlimit="10"/></g><g clip-path="url(#w)"><path d="M52.7 97.2h346V5.5h-346zm0 0" fill="none" stroke-width="1.1" stroke-linecap="round" stroke-linejoin="round" stroke="#333" stroke-miterlimit="10"/></g><g clip-path="url(#x)"><path d="M52.7 194.4h346v-91.7h-346zm0 0" fill="#fff"/></g><g clip-path="url(#y)"><path d="M52.7 169.1h346" fill="none" stroke-width=".5" stroke-linejoin="round" stroke="#ebebeb" stroke-miterlimit="10"/></g><g clip-path="url(#z)"><path d="M52.7 142.6h346" fill="none" stroke-width=".5" stroke-linejoin="round" stroke="#ebebeb" stroke-miterlimit="10"/></g><g clip-path="url(#A)"><path d="M52.7 116h346" fill="none" stroke-width=".5" stroke-linejoin="round" stroke="#ebebeb" stroke-miterlimit="10"/></g><g clip-path="url(#B)"><path d="M141.6 194.4v-91.7" fill="none" stroke-width=".5" stroke-linejoin="round" stroke="#ebebeb" stroke-miterlimit="10"/></g><g clip-path="url(#C)"><path d="M258.9 194.4v-91.7" fill="none" stroke-width=".5" stroke-linejoin="round" stroke="#ebebeb" stroke-miterlimit="10"/></g><g clip-path="url(#D)"><path d="M344 194.4v-91.7" fill="none" stroke-width=".5" stroke-linejoin="round" stroke="#ebebeb" stroke-miterlimit="10"/></g><g clip-path="url(#E)"><path d="M52.7 182.4h346" fill="none" stroke-width="1.1" stroke-linejoin="round" stroke="#ebebeb" stroke-miterlimit="10"/></g><g clip-path="url(#F)"><path d="M52.7 155.8h346" fill="none" stroke-width="1.1" stroke-linejoin="round" stroke="#ebebeb" stroke-miterlimit="10"/></g><g clip-path="url(#G)"><path d="M52.7 129.3h346" fill="none" stroke-width="1.1" stroke-linejoin="round" stroke="#ebebeb" stroke-miterlimit="10"/></g><g clip-path="url(#H)"><path d="M52.7 102.8h346" fill="none" stroke-width="1.1" stroke-linejoin="round" stroke="#ebebeb" stroke-miterlimit="10"/></g><g clip-path="url(#I)"><path d="M70.1 194.4v-91.7" fill="none" stroke-width="1.1" stroke-linejoin="round" stroke="#ebebeb" stroke-miterlimit="10"/></g><g clip-path="url(#J)"><path d="M213 194.4v-91.7" fill="none" stroke-width="1.1" stroke-linejoin="round" stroke="#ebebeb" stroke-miterlimit="10"/></g><g clip-path="url(#K)"><path d="M304.8 194.4v-91.7" fill="none" stroke-width="1.1" stroke-linejoin="round" stroke="#ebebeb" stroke-miterlimit="10"/></g><g clip-path="url(#L)"><path d="M383 194.4v-91.7" fill="none" stroke-width="1.1" stroke-linejoin="round" stroke="#ebebeb" stroke-miterlimit="10"/></g><path d="M68.4 190.3h23.8v-83.4H68.4zm0 0M116 190.3H140v-83.4H116zm0 0M163.7 190.3h23.8v-83.4h-23.8zm0 0M211.3 190.3H235v-83.4h-23.8zm0 0M258.9 190.3h23.8v-83.4H259zm0 0M306.5 190.3h23.8v-83.4h-23.8zm0 0M354.1 190.3H378v-83.4h-23.8zm0 0" fill="#7f7f7f" fill-opacity=".1"/><g clip-path="url(#M)"><path d="M52.7 155.8h346" fill="none" stroke-width="1.1" stroke-linejoin="round" stroke="#a9a9a9" stroke-miterlimit="10"/></g><path d="M70.1 151.1l3.4 5.3 3.4-2.7 3.4-1.4 3.4.8 3.4 2.8 3.4 3.3 3.4 2 3.4-2 3.4.4 3.4-2.7 3.4-4 3.4 3.2 3.5-3 3.3-1 3.5 6.3 3.4.4 3.4 1.6 3.4-6.2 3.4 1.9 3.4-3.8 3.4 1.3 3.4 3.2 3.4-4.2h3.4l3.4 3.3 3.4.7 3.4-2 3.4 5 3.4-1.7 3.4.7 3.4-9.6 3.4 3 3.4 6.3 3.4-4.6 3.4.4 3.4 1.4 3.4-.8 3.4 7.4 3.4-7.3 3.4 5 3.4.4 3.4-38.1 3.4-7.8 3.4 5.2 3.4-3.1 3.4 10.8 3.4 15.3 3.4-6 3.4-10 3.4-7.3 3.4-2.5 3.4 1.4 3.4 9.4 3.4 8.8 3.4 2 3.4-31.4 3.4 7 3.4-2.2 3.4.6 3.4 5.8 3.4 16.5 3.4-.6 3.4-11.7 3.4-5.7 3.4 6.5 3.4-4.8 3.4 4.7 3.4 14 3.4-7.5 3.4 25.8 3.4-11.8 3.4.8 3.4 12.1 3.4-2.8 3.4-1.3 3.4-3.5 3.4 4.2 3.4-2.3 3.4 3.3 3.4-6.8 3.4-4.9 3.4 8.4 3.4-3 3.4 1.4 3.4 4.8 3.4-.6 3.4 24.8 3.4-16.7 3.4-1.1 3.4-11 3.4-1.6 3.4 3.7v9l-3.4-3-3.4.2-3.4 11-3.4 2.4-3.4 19.3-3.4-27.6-3.4.4-3.4-5.6-3.4-1.3-3.4 3-3.4-8.4-3.4 5.1-3.4 7.2-3.4-3.7-3.4 2.7-3.4-4.9-3.4 3.5-3.4 1.4-3.4 3.1-3.4-12-3.4-.8-3.4 12-3.4-26.5-3.4 7.6-3.4-14-3.4-4.5-3.4 4.8-3.4-6.4-3.4 5.7-3.4 11.4-3.4.5-3.4-16.5-3.4-5.5-3.4-.6-3.4 2.1-3.4-6.8-3.4 31-3.4-2-3.4-8.7-3.4-9.3-3.4-1.4-3.4 2.6-3.4 7.3-3.4 9.9-3.4 5.9-3.4-15.5-3.4-10.6-3.4 3.1-3.4-5.2-3.4 7.9-3.4 29.5-3.4-.4-3.4-5-3.4 7.3-3.4-7.4-3.4.8-3.4-1.4-3.4-.4-3.4 4.6-3.4-6.4-3.4-3-3.4 9.7-3.4-.7-3.4 1.7-3.4-5-3.4 2-3.4-.7-3.4-3.3h-3.4l-3.4 4.2-3.4-3.2-3.4-1.3-3.4 3.8-3.4-1.9-3.4 6.2-3.4-1.6-3.4-.4-3.5-6.4-3.3 1.2-3.5 2.9-3.4-3.2-3.4 4-3.4 2.7-3.4-.3L94 161l-3.4-2-3.4-3.2-3.4-2.8-3.4-.8-3.4 1.4-3.4 2.7zm0 0" fill="#add8e6" fill-opacity=".6"/><path d="M70.1 151.1l3.4 5.3 3.4-2.7 3.4-1.4 3.4.8 3.4 2.8 3.4 3.3 3.4 2 3.4-2 3.4.4 3.4-2.7 3.4-4 3.4 3.2 3.5-3 3.3-1 3.5 6.3 3.4.4 3.4 1.6 3.4-6.2 3.4 1.9 3.4-3.8 3.4 1.3 3.4 3.2 3.4-4.2h3.4l3.4 3.3 3.4.7 3.4-2 3.4 5 3.4-1.7 3.4.7 3.4-9.6 3.4 3 3.4 6.3 3.4-4.6 3.4.4 3.4 1.4 3.4-.8 3.4 7.4 3.4-7.3 3.4 5 3.4.4 3.4-33.8 3.4-7.9 3.4 5.3 3.4-3.2 3.4 10.8 3.4 15.3 3.4-5.9 3.4-9.9 3.4-7.3 3.4-2.6 3.4 1.4 3.4 9.4 3.4 8.8 3.4 2 3.4-31.3 3.4 6.9 3.4-2.2 3.4.7 3.4 5.6 3.4 16.5 3.4-.5 3.4-11.6 3.4-5.7 3.4 6.5 3.4-4.8 3.4 4.6 3.4 14 3.4-7.6 3.4 26.1 3.4-11.9 3.4.8 3.4 12.1 3.4-3 3.4-1.3 3.4-3.5 3.4 4.6 3.4-2.6 3.4 3.5 3.4-7 3.4-5 3.4 8.5 3.4-3 3.4 1.3 3.4 5.2 3.4-.5 3.4 26.2 3.4-18 3.4-1.7 3.4-11 3.4-1 3.4 3.5" fill="none" stroke-width="1.1" stroke-linejoin="round" stroke="#00008b" stroke-miterlimit="10"/><g clip-path="url(#N)"><path d="M68.4 194.4v-91.7" fill="none" stroke-width="1.1" stroke-linejoin="round" stroke="#000" stroke-dasharray="1.066978,3.200935" stroke-miterlimit="10"/></g><g clip-path="url(#O)"><path d="M211.3 194.4v-91.7" fill="none" stroke-width="1.1" stroke-linejoin="round" stroke="#000" stroke-dasharray="4.267913,4.267913" stroke-miterlimit="10"/></g><g clip-path="url(#P)"><path d="M303.1 194.4v-91.7" fill="none" stroke-width="1.1" stroke-linejoin="round" stroke="#000" stroke-dasharray="4.267913,4.267913" stroke-miterlimit="10"/></g><g clip-path="url(#Q)"><path d="M384.7 194.4v-91.7" fill="none" stroke-width="1.1" stroke-linejoin="round" stroke="#000" stroke-dasharray="1.066978,3.200935" stroke-miterlimit="10"/></g><g clip-path="url(#R)"><path d="M52.7 194.4h346v-91.7h-346zm0 0" fill="none" stroke-width="1.1" stroke-linecap="round" stroke-linejoin="round" stroke="#333" stroke-miterlimit="10"/></g><g clip-path="url(#S)"><path d="M52.7 291.6h346V200h-346zm0 0" fill="#fff"/></g><g clip-path="url(#T)"><path d="M52.7 274.5h346" fill="none" stroke-width=".5" stroke-linejoin="round" stroke="#ebebeb" stroke-miterlimit="10"/></g><g clip-path="url(#U)"><path d="M52.7 248.5h346" fill="none" stroke-width=".5" stroke-linejoin="round" stroke="#ebebeb" stroke-miterlimit="10"/></g><g clip-path="url(#V)"><path d="M52.7 222.5h346" fill="none" stroke-width=".5" stroke-linejoin="round" stroke="#ebebeb" stroke-miterlimit="10"/></g><g clip-path="url(#W)"><path d="M141.6 291.6V200" fill="none" stroke-width=".5" stroke-linejoin="round" stroke="#ebebeb" stroke-miterlimit="10"/></g><g clip-path="url(#X)"><path d="M258.9 291.6V200" fill="none" stroke-width=".5" stroke-linejoin="round" stroke="#ebebeb" stroke-miterlimit="10"/></g><g clip-path="url(#Y)"><path d="M344 291.6V200" fill="none" stroke-width=".5" stroke-linejoin="round" stroke="#ebebeb" stroke-miterlimit="10"/></g><g clip-path="url(#Z)"><path d="M52.7 287.5h346" fill="none" stroke-width="1.1" stroke-linejoin="round" stroke="#ebebeb" stroke-miterlimit="10"/></g><g clip-path="url(#aa)"><path d="M52.7 261.5h346" fill="none" stroke-width="1.1" stroke-linejoin="round" stroke="#ebebeb" stroke-miterlimit="10"/></g><g clip-path="url(#ab)"><path d="M52.7 235.5h346" fill="none" stroke-width="1.1" stroke-linejoin="round" stroke="#ebebeb" stroke-miterlimit="10"/></g><g clip-path="url(#ac)"><path d="M52.7 209.6h346" fill="none" stroke-width="1.1" stroke-linejoin="round" stroke="#ebebeb" stroke-miterlimit="10"/></g><g clip-path="url(#ad)"><path d="M70.1 291.6V200" fill="none" stroke-width="1.1" stroke-linejoin="round" stroke="#ebebeb" stroke-miterlimit="10"/></g><g clip-path="url(#ae)"><path d="M213 291.6V200" fill="none" stroke-width="1.1" stroke-linejoin="round" stroke="#ebebeb" stroke-miterlimit="10"/></g><g clip-path="url(#af)"><path d="M304.8 291.6V200" fill="none" stroke-width="1.1" stroke-linejoin="round" stroke="#ebebeb" stroke-miterlimit="10"/></g><g clip-path="url(#ag)"><path d="M383 291.6V200" fill="none" stroke-width="1.1" stroke-linejoin="round" stroke="#ebebeb" stroke-miterlimit="10"/></g><path d="M68.4 287.5h23.8V204H68.4zm0 0M116 287.5H140V204H116zm0 0M163.7 287.5h23.8V204h-23.8zm0 0M211.3 287.5H235V204h-23.8zm0 0M258.9 287.5h23.8V204H259zm0 0M306.5 287.5h23.8V204h-23.8zm0 0M354.1 287.5H378V204h-23.8zm0 0" fill="#7f7f7f" fill-opacity=".1"/><g clip-path="url(#ah)"><path d="M52.7 287.5h346" fill="none" stroke-width="1.1" stroke-linejoin="round" stroke="#a9a9a9" stroke-miterlimit="10"/></g><path d="M213 284.2l3.4-3.9 3.4-3.3 3.4-3.6 3.4-2.5 3.4-1 3.4-1.5 3.4-2.6 3.4-3.2 3.4-3.6 3.4-3.4 3.4-2.4 3.4-1.6 3.4-1.3 3.4-4.5 3.4-3.8 3.4-4 3.4-4 3.4-3.4 3.4-1.7 3.4-1.7 3.4-3 3.4-3.6 3.4-2.8 3.4-3.4 3.4-3 3.4-1.4 3.4-2.2 3.4.3 3.4-1 3.4-.8 3.4.4h3.4l3.4.1 3.4-.3h3.4l3.4-.2 3.4.1 3.4-.5 3.4-1 3.4-.1 3.4-.4 3.4-.3h3.4l3.4.1 3.4 2.5 3.4.8 3.4.8 3.4-.3 3.4-.6 3.4-.1V219l-3.4-.2-3.4.1-3.4.2-3.4-1-3.4-1.1-3.4-3.1-3.4-.4-3.4-.4-3.4.2-3.4.3-3.4.1-3.4.8-3.4.3-3.4-.4H332l-3.4-.4-3.4.3-3.4-.1-3.4-.3-3.4-.6-3.4.6-3.4.6-3.4-.5-3.4 2.1-3.4 1.4-3.4 2.7-3.4 3.1-3.4 2.7-3.4 3.3-3.4 2.7-3.4 1.7-3.4 1.6-3.4 3.2-3.4 3.7-3.4 3.8-3.4 3.6-3.4 4.3-3.4 1.2-3.4 1.4-3.4 2.3-3.4 3.2-3.4 3.3-3.4 3-3.4 2.3-3.4 1.4-3.4.8-3.4 2.3-3.4 3.4-3.4 3-3.4 3.4zm0 0" fill="#add8e6" fill-opacity=".6"/><path d="M213 284.6l3.4-3.7 3.4-3.1 3.4-3.5 3.4-2.4 3.4-.9 3.4-1.4 3.4-2.5 3.4-3.1 3.4-3.4 3.4-3.3 3.4-2.4 3.4-1.5 3.4-1.3 3.4-4.4 3.4-3.6 3.4-4 3.4-3.8 3.4-3.3 3.4-1.6 3.4-1.8 3.4-2.8 3.4-3.4 3.4-2.8 3.4-3.3 3.4-2.8 3.4-1.4 3.4-2.2 3.4.4 3.4-.7 3.4-.7 3.4.4 3.4.2 3.4.1 3.4-.3 3.4.2h3.4l3.4.2 3.4-.4 3.4-1h3.4l3.4-.4 3.4-.3 3.4.3 3.4.2 3.4 2.8 3.4 1 3.4.8 3.4-.2 3.4-.3h3.4" fill="none" stroke-width="1.1" stroke-linejoin="round" stroke="#00008b" stroke-miterlimit="10"/><g clip-path="url(#ai)"><path d="M68.4 291.6V200" fill="none" stroke-width="1.1" stroke-linejoin="round" stroke="#000" stroke-dasharray="1.066978,3.200935" stroke-miterlimit="10"/></g><g clip-path="url(#aj)"><path d="M211.3 291.6V200" fill="none" stroke-width="1.1" stroke-linejoin="round" stroke="#000" stroke-dasharray="4.267913,4.267913" stroke-miterlimit="10"/></g><g clip-path="url(#ak)"><path d="M303.1 291.6V200" fill="none" stroke-width="1.1" stroke-linejoin="round" stroke="#000" stroke-dasharray="4.267913,4.267913" stroke-miterlimit="10"/></g><g clip-path="url(#al)"><path d="M384.7 291.6V200" fill="none" stroke-width="1.1" stroke-linejoin="round" stroke="#000" stroke-dasharray="1.066978,3.200935" stroke-miterlimit="10"/></g><g clip-path="url(#am)"><path d="M52.7 291.6h346V200h-346zm0 0" fill="none" stroke-width="1.1" stroke-linecap="round" stroke-linejoin="round" stroke="#333" stroke-miterlimit="10"/></g><g clip-path="url(#an)"><path d="M398.8 97.2h16.9V5.5h-17zm0 0" fill="#d9d9d9"/></g><g clip-path="url(#ao)"><path d="M398.8 97.2h16.9V5.5h-17zm0 0" fill="none" stroke-width="1.1" stroke-linecap="round" stroke-linejoin="round" stroke="#333" stroke-miterlimit="10"/></g><g fill="#1a1a1a" clip-path="url(#ap)"><use xlink:href="#aq" x="404.1" y="-.4"/><use xlink:href="#ar" x="404.1" y="6.5"/><use xlink:href="#as" x="404.1" y="11.4"/><use xlink:href="#at" x="404.1" y="15.8"/><use xlink:href="#au" x="404.1" y="20.7"/><use xlink:href="#av" x="404.1" y="23.6"/><use xlink:href="#at" x="404.1" y="28"/><use xlink:href="#aw" x="404.1" y="32.9"/><use xlink:href="#ax" x="404.1" y="37.8"/><use xlink:href="#ay" x="404.1" y="40.2"/><use xlink:href="#ax" x="404.1" y="45.4"/><use xlink:href="#az" x="404.1" y="47.8"/><use xlink:href="#aA" x="404.1" y="52.2"/><use xlink:href="#aB" x="404.1" y="57.1"/><use xlink:href="#aC" x="404.1" y="62"/><use xlink:href="#aD" x="404.1" y="66.9"/><use xlink:href="#at" x="404.1" y="69.3"/><use xlink:href="#au" x="404.1" y="74.2"/><use xlink:href="#aE" x="404.1" y="77.2"/><use xlink:href="#aF" x="404.1" y="79.6"/><use xlink:href="#az" x="404.1" y="84.5"/><use xlink:href="#aD" x="404.1" y="88.9"/><use xlink:href="#aB" x="404.1" y="91.3"/><use xlink:href="#aF" x="404.1" y="96.2"/><use xlink:href="#aG" x="404.1" y="101.1"/></g><g clip-path="url(#aH)"><path d="M398.8 194.4h16.9v-91.7h-17zm0 0" fill="#d9d9d9"/></g><g clip-path="url(#aI)"><path d="M398.8 194.4h16.9v-91.7h-17zm0 0" fill="none" stroke-width="1.1" stroke-linecap="round" stroke-linejoin="round" stroke="#333" stroke-miterlimit="10"/></g><g fill="#1a1a1a"><use xlink:href="#aJ" x="404.1" y="107"/><use xlink:href="#aA" x="404.1" y="112.9"/><use xlink:href="#aK" x="404.1" y="117.7"/><use xlink:href="#aC" x="404.1" y="119.7"/><use xlink:href="#aD" x="404.1" y="124.6"/><use xlink:href="#aL" x="404.1" y="127"/><use xlink:href="#aK" x="404.1" y="133.4"/><use xlink:href="#as" x="404.1" y="135.4"/><use xlink:href="#at" x="404.1" y="139.8"/><use xlink:href="#ax" x="404.1" y="144.6"/><use xlink:href="#aw" x="404.1" y="147.1"/><use xlink:href="#aK" x="404.1" y="152"/><use xlink:href="#aE" x="404.1" y="153.9"/><use xlink:href="#aE" x="404.1" y="156.4"/><use xlink:href="#at" x="404.1" y="158.8"/><use xlink:href="#au" x="404.1" y="163.7"/><use xlink:href="#at" x="404.1" y="166.7"/><use xlink:href="#aC" x="404.1" y="171.5"/><use xlink:href="#az" x="404.1" y="176.4"/><use xlink:href="#at" x="404.1" y="180.8"/><use xlink:href="#as" x="404.1" y="185.7"/></g><g clip-path="url(#aM)"><path d="M398.8 291.6h16.9V200h-17zm0 0" fill="#d9d9d9"/></g><g clip-path="url(#aN)"><path d="M398.8 291.6h16.9V200h-17zm0 0" fill="none" stroke-width="1.1" stroke-linecap="round" stroke-linejoin="round" stroke="#333" stroke-miterlimit="10"/></g><g fill="#1a1a1a"><use xlink:href="#aO" x="404.1" y="211.8"/><use xlink:href="#aB" x="404.1" y="218.1"/><use xlink:href="#aP" x="404.1" y="223"/><use xlink:href="#aB" x="404.1" y="230.4"/><use xlink:href="#aG" x="404.1" y="235.3"/><use xlink:href="#aF" x="404.1" y="237.2"/><use xlink:href="#aD" x="404.1" y="242.1"/><use xlink:href="#aK" x="404.1" y="244.6"/><use xlink:href="#av" x="404.1" y="246.5"/><use xlink:href="#at" x="404.1" y="250.9"/><use xlink:href="#ax" x="404.1" y="255.8"/><use xlink:href="#at" x="404.1" y="258.2"/><use xlink:href="#aE" x="404.1" y="263.1"/><use xlink:href="#aE" x="404.1" y="265.6"/><use xlink:href="#at" x="404.1" y="268"/><use xlink:href="#az" x="404.1" y="272.9"/><use xlink:href="#aD" x="404.1" y="277.3"/></g><path d="M70.1 294.4v-2.8M213 294.4v-2.8M304.8 294.4v-2.8M383 294.4v-2.8" fill="none" stroke-width="1.1" stroke-linejoin="round" stroke="#333" stroke-miterlimit="10"/><g fill="#4d4d4d"><use xlink:href="#aQ" x="76.4" y="341.6"/><use xlink:href="#aR" x="76.4" y="336.7"/><use xlink:href="#aS" x="76.4" y="331.8"/><use xlink:href="#aT" x="76.4" y="326.9"/><use xlink:href="#aU" x="76.4" y="322"/><use xlink:href="#aR" x="76.4" y="319.1"/><use xlink:href="#aS" x="76.4" y="314.2"/><use xlink:href="#aU" x="76.4" y="309.3"/><use xlink:href="#aR" x="76.4" y="306.4"/><use xlink:href="#aT" x="76.4" y="301.5"/></g><g fill="#4d4d4d"><use xlink:href="#aQ" x="219.3" y="341.6"/><use xlink:href="#aR" x="219.3" y="336.7"/><use xlink:href="#aS" x="219.3" y="331.8"/><use xlink:href="#aT" x="219.3" y="326.9"/><use xlink:href="#aU" x="219.3" y="322"/><use xlink:href="#aR" x="219.3" y="319.1"/><use xlink:href="#aQ" x="219.3" y="314.2"/><use xlink:href="#aU" x="219.3" y="309.3"/><use xlink:href="#aS" x="219.3" y="306.4"/><use xlink:href="#aV" x="219.3" y="301.5"/></g><g fill="#4d4d4d"><use xlink:href="#aQ" x="311.1" y="341.6"/><use xlink:href="#aR" x="311.1" y="336.7"/><use xlink:href="#aS" x="311.1" y="331.8"/><use xlink:href="#aT" x="311.1" y="326.9"/><use xlink:href="#aU" x="311.1" y="322"/><use xlink:href="#aR" x="311.1" y="319.1"/><use xlink:href="#aW" x="311.1" y="314.2"/><use xlink:href="#aU" x="311.1" y="309.3"/><use xlink:href="#aS" x="311.1" y="306.4"/><use xlink:href="#aT" x="311.1" y="301.5"/></g><g fill="#4d4d4d"><use xlink:href="#aQ" x="389.3" y="341.6"/><use xlink:href="#aR" x="389.3" y="336.7"/><use xlink:href="#aS" x="389.3" y="331.8"/><use xlink:href="#aT" x="389.3" y="326.9"/><use xlink:href="#aU" x="389.3" y="322"/><use xlink:href="#aR" x="389.3" y="319.1"/><use xlink:href="#aX" x="389.3" y="314.2"/><use xlink:href="#aU" x="389.3" y="309.3"/><use xlink:href="#aR" x="389.3" y="306.4"/><use xlink:href="#aY" x="389.3" y="301.5"/></g><use xlink:href="#aZ" x="42.9" y="96.2" fill="#4d4d4d"/><g fill="#4d4d4d"><use xlink:href="#ba" x="23.3" y="75.3"/><use xlink:href="#aZ" x="28.2" y="75.3"/><use xlink:href="#aZ" x="33.1" y="75.3"/><use xlink:href="#aZ" x="38" y="75.3"/><use xlink:href="#aZ" x="42.9" y="75.3"/></g><g fill="#4d4d4d"><use xlink:href="#bb" x="23.3" y="54.5"/><use xlink:href="#aZ" x="28.2" y="54.5"/><use xlink:href="#aZ" x="33.1" y="54.5"/><use xlink:href="#aZ" x="38" y="54.5"/><use xlink:href="#aZ" x="42.9" y="54.5"/></g><g fill="#4d4d4d"><use xlink:href="#bc" x="23.3" y="33.6"/><use xlink:href="#aZ" x="28.2" y="33.6"/><use xlink:href="#aZ" x="33.1" y="33.6"/><use xlink:href="#aZ" x="38" y="33.6"/><use xlink:href="#aZ" x="42.9" y="33.6"/></g><g fill="#4d4d4d"><use xlink:href="#bd" x="23.3" y="12.8"/><use xlink:href="#aZ" x="28.2" y="12.8"/><use xlink:href="#aZ" x="33.1" y="12.8"/><use xlink:href="#aZ" x="38" y="12.8"/><use xlink:href="#aZ" x="42.9" y="12.8"/></g><path d="M50 93h2.7M50 72.2h2.7M50 51.3h2.7M50 30.5h2.7M50 9.6h2.7" fill="none" stroke-width="1.1" stroke-linejoin="round" stroke="#333" stroke-miterlimit="10"/><g fill="#4d4d4d"><use xlink:href="#be" x="25.3" y="185.5"/><use xlink:href="#bf" x="28.2" y="185.5"/><use xlink:href="#aZ" x="33.1" y="185.5"/><use xlink:href="#aZ" x="38" y="185.5"/><use xlink:href="#aZ" x="42.9" y="185.5"/></g><use xlink:href="#aZ" x="42.9" y="159" fill="#4d4d4d"/><g fill="#4d4d4d"><use xlink:href="#bf" x="28.2" y="132.5"/><use xlink:href="#aZ" x="33.1" y="132.5"/><use xlink:href="#aZ" x="38" y="132.5"/><use xlink:href="#aZ" x="42.9" y="132.5"/></g><g fill="#4d4d4d"><use xlink:href="#bg" x="23.3" y="106"/><use xlink:href="#aZ" x="28.2" y="106"/><use xlink:href="#aZ" x="33.1" y="106"/><use xlink:href="#aZ" x="38" y="106"/><use xlink:href="#aZ" x="42.9" y="106"/></g><path d="M50 182.4h2.7M50 155.8h2.7M50 129.3h2.7M50 102.8h2.7" fill="none" stroke-width="1.1" stroke-linejoin="round" stroke="#333" stroke-miterlimit="10"/><use xlink:href="#aZ" x="42.9" y="290.6" fill="#4d4d4d"/><g fill="#4d4d4d"><use xlink:href="#bf" x="23.3" y="264.7"/><use xlink:href="#aZ" x="28.2" y="264.7"/><use xlink:href="#aZ" x="33.1" y="264.7"/><use xlink:href="#aZ" x="38" y="264.7"/><use xlink:href="#aZ" x="42.9" y="264.7"/></g><g fill="#4d4d4d"><use xlink:href="#bg" x="18.4" y="238.7"/><use xlink:href="#aZ" x="23.3" y="238.7"/><use xlink:href="#aZ" x="28.2" y="238.7"/><use xlink:href="#aZ" x="33.1" y="238.7"/><use xlink:href="#aZ" x="38" y="238.7"/><use xlink:href="#aZ" x="42.9" y="238.7"/></g><g fill="#4d4d4d"><use xlink:href="#bg" x="18.4" y="212.7"/><use xlink:href="#bf" x="23.3" y="212.7"/><use xlink:href="#aZ" x="28.2" y="212.7"/><use xlink:href="#aZ" x="33.1" y="212.7"/><use xlink:href="#aZ" x="38" y="212.7"/><use xlink:href="#aZ" x="42.9" y="212.7"/></g><path d="M50 287.5h2.7M50 261.5h2.7M50 235.5h2.7M50 209.6h2.7" fill="none" stroke-width="1.1" stroke-linejoin="round" stroke="#333" stroke-miterlimit="10"/><use xlink:href="#bh" x="215" y="352.2"/><use xlink:href="#bi" x="221.2" y="352.2"/><use xlink:href="#bj" x="227.3" y="352.2"/><use xlink:href="#bk" x="230.3" y="352.2"/><path d="M426.6 179.2h72V118h-72zm0 0" fill="#fff"/><path d="M432.1 156.4h17.3v-17.3h-17.3zm0 0" fill="#fff"/><path d="M433.9 147.8h13.8M433.9 147.8h13.8" fill="none" stroke-width="1.1" stroke-linejoin="round" stroke="#8b0000" stroke-miterlimit="10"/><path d="M432.1 173.7h17.3v-17.3h-17.3zm0 0" fill="#fff"/><path d="M433.9 165h13.8M433.9 165h13.8" fill="none" stroke-width="1.1" stroke-linejoin="round" stroke="#00008b" stroke-miterlimit="10"/><g><use xlink:href="#bl" x="454.9" y="150.9"/><use xlink:href="#bm" x="461.7" y="150.9"/><use xlink:href="#bn" x="466.6" y="150.9"/><use xlink:href="#bo" x="471" y="150.9"/><use xlink:href="#bp" x="475.9" y="150.9"/><use xlink:href="#bq" x="478.9" y="150.9"/><use xlink:href="#bo" x="483.3" y="150.9"/><use xlink:href="#br" x="488.1" y="150.9"/></g><g><use xlink:href="#bs" x="454.9" y="168.2"/><use xlink:href="#bp" x="460.8" y="168.2"/><use xlink:href="#bo" x="463.7" y="168.2"/><use xlink:href="#br" x="468.6" y="168.2"/><use xlink:href="#bt" x="473.5" y="168.2"/><use xlink:href="#bu" x="475.4" y="168.2"/><use xlink:href="#bv" x="479.8" y="168.2"/><use xlink:href="#bo" x="482.3" y="168.2"/><use xlink:href="#br" x="487.2" y="168.2"/></g></svg>