<svg version="1.1" viewBox="0.0 0.0 474.0 204.0" fill="none" stroke="none" stroke-linecap="square" stroke-miterlimit="10" xmlns:xlink="http://www.w3.org/1999/xlink" xmlns="http://www.w3.org/2000/svg"><clipPath id="p.0"><path d="m0 0l474.0 0l0 204.0l-474.0 0l0 -204.0z" clip-rule="nonzero"/></clipPath><g clip-path="url(#p.0)"><path fill="#000000" fill-opacity="0.0" d="m0 0l474.0 0l0 204.0l-474.0 0z" fill-rule="evenodd"/><path fill="#000000" fill-opacity="0.0" d="m70.40682 89.21301l41.70079 -24.0" fill-rule="evenodd"/><path stroke="#000000" stroke-width="1.0" stroke-linejoin="round" stroke-linecap="butt" d="m70.40682 89.21301l41.70079 -24.0" fill-rule="evenodd"/><path fill="#000000" fill-opacity="0.0" d="m70.40682 89.21301l41.70079 0" fill-rule="evenodd"/><path stroke="#000000" stroke-width="1.0" stroke-linejoin="round" stroke-linecap="butt" d="m70.40682 89.21301l41.70079 0" fill-rule="evenodd"/><path fill="#000000" fill-opacity="0.0" d="m70.40682 89.21301l41.70079 24.0" fill-rule="evenodd"/><path stroke="#000000" stroke-width="1.0" stroke-linejoin="round" stroke-linecap="butt" d="m70.40682 89.21301l41.70079 24.0" fill-rule="evenodd"/><path fill="#000000" fill-opacity="0.0" d="m70.40682 89.21301l41.70079 48.0" fill-rule="evenodd"/><path stroke="#000000" stroke-width="1.0" stroke-linejoin="round" stroke-linecap="butt" d="m70.40682 89.21301l41.70079 48.0" fill-rule="evenodd"/><path fill="#000000" fill-opacity="0.0" d="m70.40682 89.21301l41.70079 72.0" fill-rule="evenodd"/><path stroke="#000000" stroke-width="1.0" stroke-linejoin="round" stroke-linecap="butt" d="m70.40682 89.21301l41.70079 72.0" fill-rule="evenodd"/><path fill="#000000" fill-opacity="0.0" d="m70.40682 113.21301l41.70079 -48.0" fill-rule="evenodd"/><path stroke="#000000" stroke-width="1.0" stroke-linejoin="round" stroke-linecap="butt" d="m70.40682 113.21301l41.70079 -48.0" fill-rule="evenodd"/><path fill="#000000" fill-opacity="0.0" d="m70.40682 113.21301l41.70079 -24.0" fill-rule="evenodd"/><path stroke="#000000" stroke-width="1.0" stroke-linejoin="round" stroke-linecap="butt" d="m70.40682 113.21301l41.70079 -24.0" fill-rule="evenodd"/><path fill="#000000" fill-opacity="0.0" d="m70.40682 113.21301l41.70079 0" fill-rule="evenodd"/><path stroke="#000000" stroke-width="1.0" stroke-linejoin="round" stroke-linecap="butt" d="m70.40682 113.21301l41.70079 0" fill-rule="evenodd"/><path fill="#000000" fill-opacity="0.0" d="m70.40682 113.21301l41.70079 24.0" fill-rule="evenodd"/><path stroke="#000000" stroke-width="1.0" stroke-linejoin="round" stroke-linecap="butt" d="m70.40682 113.21301l41.70079 24.0" fill-rule="evenodd"/><path fill="#000000" fill-opacity="0.0" d="m70.40682 113.21301l41.70079 48.0" fill-rule="evenodd"/><path stroke="#000000" stroke-width="1.0" stroke-linejoin="round" stroke-linecap="butt" d="m70.40682 113.21301l41.70079 48.0" fill-rule="evenodd"/><path fill="#000000" fill-opacity="0.0" d="m70.40682 137.21301l41.70079 -72.0" fill-rule="evenodd"/><path stroke="#000000" stroke-width="1.0" stroke-linejoin="round" stroke-linecap="butt" d="m70.40682 137.21301l41.70079 -72.0" fill-rule="evenodd"/><path fill="#000000" fill-opacity="0.0" d="m70.40682 137.21301l41.70079 -48.0" fill-rule="evenodd"/><path stroke="#000000" stroke-width="1.0" stroke-linejoin="round" stroke-linecap="butt" d="m70.40682 137.21301l41.70079 -48.0" fill-rule="evenodd"/><path fill="#000000" fill-opacity="0.0" d="m70.40682 137.21301l41.70079 -24.0" fill-rule="evenodd"/><path stroke="#000000" stroke-width="1.0" stroke-linejoin="round" stroke-linecap="butt" d="m70.40682 137.21301l41.70079 -24.0" fill-rule="evenodd"/><path fill="#000000" fill-opacity="0.0" d="m70.40682 137.21301l41.70079 0" fill-rule="evenodd"/><path stroke="#000000" stroke-width="1.0" stroke-linejoin="round" stroke-linecap="butt" d="m70.40682 137.21301l41.70079 0" fill-rule="evenodd"/><path fill="#000000" fill-opacity="0.0" d="m70.40682 137.21301l41.70079 24.0" fill-rule="evenodd"/><path stroke="#000000" stroke-width="1.0" stroke-linejoin="round" stroke-linecap="butt" d="m70.40682 137.21301l41.70079 24.0" fill-rule="evenodd"/><path fill="#d9ead3" d="m224.1076 89.21301l0 0c0 -3.948616 3.2009888 -7.149605 7.1496124 -7.149605l0 0c1.8961945 0 3.7147217 0.75325775 5.055542 2.0940704c1.340805 1.3408127 2.0940704 3.15934 2.0940704 5.0555344l0 0c0 3.948616 -3.2009888 7.149605 -7.1496124 7.149605l0 0c-3.9486237 0 -7.1496124 -3.2009888 -7.1496124 -7.149605z" fill-rule="evenodd"/><path stroke="#000000" stroke-width="1.0" stroke-linejoin="round" stroke-linecap="butt" d="m224.1076 89.21301l0 0c0 -3.948616 3.2009888 -7.149605 7.1496124 -7.149605l0 0c1.8961945 0 3.7147217 0.75325775 5.055542 2.0940704c1.340805 1.3408127 2.0940704 3.15934 2.0940704 5.0555344l0 0c0 3.948616 -3.2009888 7.149605 -7.1496124 7.149605l0 0c-3.9486237 0 -7.1496124 -3.2009888 -7.1496124 -7.149605z" fill-rule="evenodd"/><path fill="#d9ead3" d="m224.1076 113.21301l0 0c0 -3.948616 3.2009888 -7.149605 7.1496124 -7.149605l0 0c1.8961945 0 3.7147217 0.75325775 5.055542 2.0940704c1.340805 1.3408127 2.0940704 3.15934 2.0940704 5.0555344l0 0c0 3.948616 -3.2009888 7.149605 -7.1496124 7.149605l0 0c-3.9486237 0 -7.1496124 -3.2009888 -7.1496124 -7.149605z" fill-rule="evenodd"/><path stroke="#000000" stroke-width="1.0" stroke-linejoin="round" stroke-linecap="butt" d="m224.1076 113.21301l0 0c0 -3.948616 3.2009888 -7.149605 7.1496124 -7.149605l0 0c1.8961945 0 3.7147217 0.75325775 5.055542 2.0940704c1.340805 1.3408127 2.0940704 3.15934 2.0940704 5.0555344l0 0c0 3.948616 -3.2009888 7.149605 -7.1496124 7.149605l0 0c-3.9486237 0 -7.1496124 -3.2009888 -7.1496124 -7.149605z" fill-rule="evenodd"/><path fill="#d9ead3" d="m224.1076 137.21301l0 0c0 -3.9486237 3.2009888 -7.1496124 7.1496124 -7.1496124l0 0c1.8961945 0 3.7147217 0.7532654 5.055542 2.0940704c1.340805 1.3408203 2.0940704 3.1593475 2.0940704 5.055542l0 0c0 3.9486237 -3.2009888 7.1496124 -7.1496124 7.1496124l0 0c-3.9486237 0 -7.1496124 -3.2009888 -7.1496124 -7.1496124z" fill-rule="evenodd"/><path stroke="#000000" stroke-width="1.0" stroke-linejoin="round" stroke-linecap="butt" d="m224.1076 137.21301l0 0c0 -3.9486237 3.2009888 -7.1496124 7.1496124 -7.1496124l0 0c1.8961945 0 3.7147217 0.7532654 5.055542 2.0940704c1.340805 1.3408203 2.0940704 3.1593475 2.0940704 5.055542l0 0c0 3.9486237 -3.2009888 7.1496124 -7.1496124 7.1496124l0 0c-3.9486237 0 -7.1496124 -3.2009888 -7.1496124 -7.1496124z" fill-rule="evenodd"/><path fill="#d9ead3" d="m280.1076 125.13889l0 0c0 -3.9486237 3.2009888 -7.1496124 7.1496277 -7.1496124l0 0c1.8961792 0 3.7147217 0.7532654 5.0555115 2.0940704c1.3408203 1.3408127 2.0940857 3.1593475 2.0940857 5.055542l0 0c0 3.948616 -3.2009888 7.149605 -7.149597 7.149605l0 0c-3.948639 0 -7.1496277 -3.2009888 -7.1496277 -7.149605z" fill-rule="evenodd"/><path stroke="#000000" stroke-width="1.0" stroke-linejoin="round" stroke-linecap="butt" d="m280.1076 125.13889l0 0c0 -3.9486237 3.2009888 -7.1496124 7.1496277 -7.1496124l0 0c1.8961792 0 3.7147217 0.7532654 5.0555115 2.0940704c1.3408203 1.3408127 2.0940857 3.1593475 2.0940857 5.055542l0 0c0 3.948616 -3.2009888 7.149605 -7.149597 7.149605l0 0c-3.948639 0 -7.1496277 -3.2009888 -7.1496277 -7.149605z" fill-rule="evenodd"/><path fill="#d9ead3" d="m280.1076 101.13889l0 0c0 -3.9486237 3.2009888 -7.1496124 7.1496277 -7.1496124l0 0c1.8961792 0 3.7147217 0.7532654 5.0555115 2.0940704c1.3408203 1.3408127 2.0940857 3.1593475 2.0940857 5.055542l0 0c0 3.948616 -3.2009888 7.149605 -7.149597 7.149605l0 0c-3.948639 0 -7.1496277 -3.2009888 -7.1496277 -7.149605z" fill-rule="evenodd"/><path stroke="#000000" stroke-width="1.0" stroke-linejoin="round" stroke-linecap="butt" d="m280.1076 101.13889l0 0c0 -3.9486237 3.2009888 -7.1496124 7.1496277 -7.1496124l0 0c1.8961792 0 3.7147217 0.7532654 5.0555115 2.0940704c1.3408203 1.3408127 2.0940857 3.1593475 2.0940857 5.055542l0 0c0 3.948616 -3.2009888 7.149605 -7.149597 7.149605l0 0c-3.948639 0 -7.1496277 -3.2009888 -7.1496277 -7.149605z" fill-rule="evenodd"/><path fill="#d9ead3" d="m336.1076 113.21301l0 0c0 -3.948616 3.2009888 -7.149605 7.1496277 -7.149605l0 0c1.8961792 0 3.7147217 0.75325775 5.0555115 2.0940704c1.3408203 1.3408127 2.0940857 3.15934 2.0940857 5.0555344l0 0c0 3.948616 -3.2009888 7.149605 -7.149597 7.149605l0 0c-3.948639 0 -7.1496277 -3.2009888 -7.1496277 -7.149605z" fill-rule="evenodd"/><path stroke="#000000" stroke-width="1.0" stroke-linejoin="round" stroke-linecap="butt" d="m336.1076 113.21301l0 0c0 -3.948616 3.2009888 -7.149605 7.1496277 -7.149605l0 0c1.8961792 0 3.7147217 0.75325775 5.0555115 2.0940704c1.3408203 1.3408127 2.0940857 3.15934 2.0940857 5.0555344l0 0c0 3.948616 -3.2009888 7.149605 -7.149597 7.149605l0 0c-3.948639 0 -7.1496277 -3.2009888 -7.1496277 -7.149605z" fill-rule="evenodd"/><path fill="#000000" fill-opacity="0.0" d="m126.40682 65.21301l41.700783 24.0" fill-rule="evenodd"/><path stroke="#000000" stroke-width="1.0" stroke-linejoin="round" stroke-linecap="butt" d="m126.40682 65.21301l41.700783 24.0" fill-rule="evenodd"/><path fill="#000000" fill-opacity="0.0" d="m126.40682 65.21301l41.700783 48.0" fill-rule="evenodd"/><path stroke="#000000" stroke-width="1.0" stroke-linejoin="round" stroke-linecap="butt" d="m126.40682 65.21301l41.700783 48.0" fill-rule="evenodd"/><path fill="#000000" fill-opacity="0.0" d="m126.40682 65.21301l41.700783 72.0" fill-rule="evenodd"/><path stroke="#000000" stroke-width="1.0" stroke-linejoin="round" stroke-linecap="butt" d="m126.40682 65.21301l41.700783 72.0" fill-rule="evenodd"/><path fill="#000000" fill-opacity="0.0" d="m126.40682 89.21301l41.700783 0" fill-rule="evenodd"/><path stroke="#000000" stroke-width="1.0" stroke-linejoin="round" stroke-linecap="butt" d="m126.40682 89.21301l41.700783 0" fill-rule="evenodd"/><path fill="#000000" fill-opacity="0.0" d="m126.40682 89.21301l41.700783 24.0" fill-rule="evenodd"/><path stroke="#000000" stroke-width="1.0" stroke-linejoin="round" stroke-linecap="butt" d="m126.40682 89.21301l41.700783 24.0" fill-rule="evenodd"/><path fill="#000000" fill-opacity="0.0" d="m126.40682 89.21301l41.700783 48.0" fill-rule="evenodd"/><path stroke="#000000" stroke-width="1.0" stroke-linejoin="round" stroke-linecap="butt" d="m126.40682 89.21301l41.700783 48.0" fill-rule="evenodd"/><path fill="#000000" fill-opacity="0.0" d="m126.40682 113.21301l41.700783 -24.0" fill-rule="evenodd"/><path stroke="#000000" stroke-width="1.0" stroke-linejoin="round" stroke-linecap="butt" d="m126.40682 113.21301l41.700783 -24.0" fill-rule="evenodd"/><path fill="#000000" fill-opacity="0.0" d="m126.40682 113.21301l41.700783 0" fill-rule="evenodd"/><path stroke="#000000" stroke-width="1.0" stroke-linejoin="round" stroke-linecap="butt" d="m126.40682 113.21301l41.700783 0" fill-rule="evenodd"/><path fill="#000000" fill-opacity="0.0" d="m126.40682 113.21301l41.700783 24.0" fill-rule="evenodd"/><path stroke="#000000" stroke-width="1.0" stroke-linejoin="round" stroke-linecap="butt" d="m126.40682 113.21301l41.700783 24.0" fill-rule="evenodd"/><path fill="#000000" fill-opacity="0.0" d="m126.40682 137.21301l41.700783 -48.0" fill-rule="evenodd"/><path stroke="#000000" stroke-width="1.0" stroke-linejoin="round" stroke-linecap="butt" d="m126.40682 137.21301l41.700783 -48.0" fill-rule="evenodd"/><path fill="#000000" fill-opacity="0.0" d="m126.40682 137.21301l41.700783 -24.0" fill-rule="evenodd"/><path stroke="#000000" stroke-width="1.0" stroke-linejoin="round" stroke-linecap="butt" d="m126.40682 137.21301l41.700783 -24.0" fill-rule="evenodd"/><path fill="#000000" fill-opacity="0.0" d="m126.40682 137.21301l41.700783 0" fill-rule="evenodd"/><path stroke="#000000" stroke-width="1.0" stroke-linejoin="round" stroke-linecap="butt" d="m126.40682 137.21301l41.700783 0" fill-rule="evenodd"/><path fill="#000000" fill-opacity="0.0" d="m126.40682 161.21301l41.700783 -24.0" fill-rule="evenodd"/><path stroke="#000000" stroke-width="1.0" stroke-linejoin="round" stroke-linecap="butt" d="m126.40682 161.21301l41.700783 -24.0" fill-rule="evenodd"/><path fill="#000000" fill-opacity="0.0" d="m126.40682 161.21301l41.700783 -48.0" fill-rule="evenodd"/><path stroke="#000000" stroke-width="1.0" stroke-linejoin="round" stroke-linecap="butt" d="m126.40682 161.21301l41.700783 -48.0" fill-rule="evenodd"/><path fill="#000000" fill-opacity="0.0" d="m126.40682 161.21301l41.700783 -72.0" fill-rule="evenodd"/><path stroke="#000000" stroke-width="1.0" stroke-linejoin="round" stroke-linecap="butt" d="m126.40682 161.21301l41.700783 -72.0" fill-rule="evenodd"/><path fill="#000000" fill-opacity="0.0" d="m182.40683 89.21301l41.700775 0" fill-rule="evenodd"/><path stroke="#000000" stroke-width="1.0" stroke-linejoin="round" stroke-linecap="butt" d="m182.40683 89.21301l41.700775 0" fill-rule="evenodd"/><path fill="#000000" fill-opacity="0.0" d="m182.40683 89.21301l41.700775 24.0" fill-rule="evenodd"/><path stroke="#000000" stroke-width="1.0" stroke-linejoin="round" stroke-linecap="butt" d="m182.40683 89.21301l41.700775 24.0" fill-rule="evenodd"/><path fill="#000000" fill-opacity="0.0" d="m182.40683 89.21301l41.700775 48.0" fill-rule="evenodd"/><path stroke="#000000" stroke-width="1.0" stroke-linejoin="round" stroke-linecap="butt" d="m182.40683 89.21301l41.700775 48.0" fill-rule="evenodd"/><path fill="#000000" fill-opacity="0.0" d="m182.40683 89.21301l41.700775 48.0" fill-rule="evenodd"/><path stroke="#000000" stroke-width="1.0" stroke-linejoin="round" stroke-linecap="butt" d="m182.40683 89.21301l41.700775 48.0" fill-rule="evenodd"/><path fill="#000000" fill-opacity="0.0" d="m182.40683 137.21301l41.700775 -24.0" fill-rule="evenodd"/><path stroke="#000000" stroke-width="1.0" stroke-linejoin="round" stroke-linecap="butt" d="m182.40683 137.21301l41.700775 -24.0" fill-rule="evenodd"/><path fill="#000000" fill-opacity="0.0" d="m182.40683 137.21301l41.700775 -48.0" fill-rule="evenodd"/><path stroke="#000000" stroke-width="1.0" stroke-linejoin="round" stroke-linecap="butt" d="m182.40683 137.21301l41.700775 -48.0" fill-rule="evenodd"/><path fill="#000000" fill-opacity="0.0" d="m182.40683 113.21301l41.700775 -24.0" fill-rule="evenodd"/><path stroke="#000000" stroke-width="1.0" stroke-linejoin="round" stroke-linecap="butt" d="m182.40683 113.21301l41.700775 -24.0" fill-rule="evenodd"/><path fill="#000000" fill-opacity="0.0" d="m182.40683 113.21301l41.700775 0" fill-rule="evenodd"/><path stroke="#000000" stroke-width="1.0" stroke-linejoin="round" stroke-linecap="butt" d="m182.40683 113.21301l41.700775 0" fill-rule="evenodd"/><path fill="#000000" fill-opacity="0.0" d="m182.40683 137.21301l41.700775 0" fill-rule="evenodd"/><path stroke="#000000" stroke-width="1.0" stroke-linejoin="round" stroke-linecap="butt" d="m182.40683 137.21301l41.700775 0" fill-rule="evenodd"/><path fill="#000000" fill-opacity="0.0" d="m238.40683 89.21301l41.700775 11.937012" fill-rule="evenodd"/><path stroke="#000000" stroke-width="1.0" stroke-linejoin="round" stroke-linecap="butt" d="m238.40683 89.21301l41.700775 11.937012" fill-rule="evenodd"/><path fill="#000000" fill-opacity="0.0" d="m238.40683 89.21301l41.700775 35.93701" fill-rule="evenodd"/><path stroke="#000000" stroke-width="1.0" stroke-linejoin="round" stroke-linecap="butt" d="m238.40683 89.21301l41.700775 35.93701" fill-rule="evenodd"/><path fill="#000000" fill-opacity="0.0" d="m238.40683 113.21301l41.700775 -12.062988" fill-rule="evenodd"/><path stroke="#000000" stroke-width="1.0" stroke-linejoin="round" stroke-linecap="butt" d="m238.40683 113.21301l41.700775 -12.062988" fill-rule="evenodd"/><path fill="#000000" fill-opacity="0.0" d="m238.40683 113.21301l41.700775 11.937012" fill-rule="evenodd"/><path stroke="#000000" stroke-width="1.0" stroke-linejoin="round" stroke-linecap="butt" d="m238.40683 113.21301l41.700775 11.937012" fill-rule="evenodd"/><path fill="#000000" fill-opacity="0.0" d="m238.40683 137.20189l41.700775 -36.062996" fill-rule="evenodd"/><path stroke="#000000" stroke-width="1.0" stroke-linejoin="round" stroke-linecap="butt" d="m238.40683 137.20189l41.700775 -36.062996" fill-rule="evenodd"/><path fill="#000000" fill-opacity="0.0" d="m238.40683 137.21301l41.700775 -12.062988" fill-rule="evenodd"/><path stroke="#000000" stroke-width="1.0" stroke-linejoin="round" stroke-linecap="butt" d="m238.40683 137.21301l41.700775 -12.062988" fill-rule="evenodd"/><path fill="#000000" fill-opacity="0.0" d="m294.40683 101.13889l41.700775 12.062988" fill-rule="evenodd"/><path stroke="#000000" stroke-width="1.0" stroke-linejoin="round" stroke-linecap="butt" d="m294.40683 101.13889l41.700775 12.062988" fill-rule="evenodd"/><path fill="#000000" fill-opacity="0.0" d="m294.40683 125.13889l41.700775 -11.937012" fill-rule="evenodd"/><path stroke="#000000" stroke-width="1.0" stroke-linejoin="round" stroke-linecap="butt" d="m294.40683 125.13889l41.700775 -11.937012" fill-rule="evenodd"/><path fill="#d9ead3" d="m56.107613 89.21301l0 0c0 -3.948616 3.200985 -7.149605 7.149605 -7.149605l0 0c1.8961945 0 3.7147217 0.75325775 5.0555344 2.0940704c1.3408127 1.3408127 2.0940704 3.15934 2.0940704 5.0555344l0 0c0 3.948616 -3.2009888 7.149605 -7.149605 7.149605l0 0c-3.9486198 0 -7.149605 -3.2009888 -7.149605 -7.149605z" fill-rule="evenodd"/><path stroke="#000000" stroke-width="1.0" stroke-linejoin="round" stroke-linecap="butt" d="m56.107613 89.21301l0 0c0 -3.948616 3.200985 -7.149605 7.149605 -7.149605l0 0c1.8961945 0 3.7147217 0.75325775 5.0555344 2.0940704c1.3408127 1.3408127 2.0940704 3.15934 2.0940704 5.0555344l0 0c0 3.948616 -3.2009888 7.149605 -7.149605 7.149605l0 0c-3.9486198 0 -7.149605 -3.2009888 -7.149605 -7.149605z" fill-rule="evenodd"/><path fill="#d9ead3" d="m56.107613 113.21301l0 0c0 -3.948616 3.200985 -7.149605 7.149605 -7.149605l0 0c1.8961945 0 3.7147217 0.75325775 5.0555344 2.0940704c1.3408127 1.3408127 2.0940704 3.15934 2.0940704 5.0555344l0 0c0 3.948616 -3.2009888 7.149605 -7.149605 7.149605l0 0c-3.9486198 0 -7.149605 -3.2009888 -7.149605 -7.149605z" fill-rule="evenodd"/><path stroke="#000000" stroke-width="1.0" stroke-linejoin="round" stroke-linecap="butt" d="m56.107613 113.21301l0 0c0 -3.948616 3.200985 -7.149605 7.149605 -7.149605l0 0c1.8961945 0 3.7147217 0.75325775 5.0555344 2.0940704c1.3408127 1.3408127 2.0940704 3.15934 2.0940704 5.0555344l0 0c0 3.948616 -3.2009888 7.149605 -7.149605 7.149605l0 0c-3.9486198 0 -7.149605 -3.2009888 -7.149605 -7.149605z" fill-rule="evenodd"/><path fill="#d9ead3" d="m56.107613 137.21301l0 0c0 -3.9486237 3.200985 -7.1496124 7.149605 -7.1496124l0 0c1.8961945 0 3.7147217 0.7532654 5.0555344 2.0940704c1.3408127 1.3408203 2.0940704 3.1593475 2.0940704 5.055542l0 0c0 3.9486237 -3.2009888 7.1496124 -7.149605 7.1496124l0 0c-3.9486198 0 -7.149605 -3.2009888 -7.149605 -7.1496124z" fill-rule="evenodd"/><path stroke="#000000" stroke-width="1.0" stroke-linejoin="round" stroke-linecap="butt" d="m56.107613 137.21301l0 0c0 -3.9486237 3.200985 -7.1496124 7.149605 -7.1496124l0 0c1.8961945 0 3.7147217 0.7532654 5.0555344 2.0940704c1.3408127 1.3408203 2.0940704 3.1593475 2.0940704 5.055542l0 0c0 3.9486237 -3.2009888 7.1496124 -7.149605 7.1496124l0 0c-3.9486198 0 -7.149605 -3.2009888 -7.149605 -7.1496124z" fill-rule="evenodd"/><path fill="#d9ead3" d="m112.10761 89.21301l0 0c0 -3.948616 3.2009888 -7.149605 7.149605 -7.149605l0 0c1.8961945 0 3.7147217 0.75325775 5.0555344 2.0940704c1.3408127 1.3408127 2.0940704 3.15934 2.0940704 5.0555344l0 0c0 3.948616 -3.2009888 7.149605 -7.149605 7.149605l0 0c-3.948616 0 -7.149605 -3.2009888 -7.149605 -7.149605z" fill-rule="evenodd"/><path stroke="#000000" stroke-width="1.0" stroke-linejoin="round" stroke-linecap="butt" d="m112.10761 89.21301l0 0c0 -3.948616 3.2009888 -7.149605 7.149605 -7.149605l0 0c1.8961945 0 3.7147217 0.75325775 5.0555344 2.0940704c1.3408127 1.3408127 2.0940704 3.15934 2.0940704 5.0555344l0 0c0 3.948616 -3.2009888 7.149605 -7.149605 7.149605l0 0c-3.948616 0 -7.149605 -3.2009888 -7.149605 -7.149605z" fill-rule="evenodd"/><path fill="#d9ead3" d="m112.10761 113.21301l0 0c0 -3.948616 3.2009888 -7.149605 7.149605 -7.149605l0 0c1.8961945 0 3.7147217 0.75325775 5.0555344 2.0940704c1.3408127 1.3408127 2.0940704 3.15934 2.0940704 5.0555344l0 0c0 3.948616 -3.2009888 7.149605 -7.149605 7.149605l0 0c-3.948616 0 -7.149605 -3.2009888 -7.149605 -7.149605z" fill-rule="evenodd"/><path stroke="#000000" stroke-width="1.0" stroke-linejoin="round" stroke-linecap="butt" d="m112.10761 113.21301l0 0c0 -3.948616 3.2009888 -7.149605 7.149605 -7.149605l0 0c1.8961945 0 3.7147217 0.75325775 5.0555344 2.0940704c1.3408127 1.3408127 2.0940704 3.15934 2.0940704 5.0555344l0 0c0 3.948616 -3.2009888 7.149605 -7.149605 7.149605l0 0c-3.948616 0 -7.149605 -3.2009888 -7.149605 -7.149605z" fill-rule="evenodd"/><path fill="#d9ead3" d="m112.10761 137.21301l0 0c0 -3.9486237 3.2009888 -7.1496124 7.149605 -7.1496124l0 0c1.8961945 0 3.7147217 0.7532654 5.0555344 2.0940704c1.3408127 1.3408203 2.0940704 3.1593475 2.0940704 5.055542l0 0c0 3.9486237 -3.2009888 7.1496124 -7.149605 7.1496124l0 0c-3.948616 0 -7.149605 -3.2009888 -7.149605 -7.1496124z" fill-rule="evenodd"/><path stroke="#000000" stroke-width="1.0" stroke-linejoin="round" stroke-linecap="butt" d="m112.10761 137.21301l0 0c0 -3.9486237 3.2009888 -7.1496124 7.149605 -7.1496124l0 0c1.8961945 0 3.7147217 0.7532654 5.0555344 2.0940704c1.3408127 1.3408203 2.0940704 3.1593475 2.0940704 5.055542l0 0c0 3.9486237 -3.2009888 7.1496124 -7.149605 7.1496124l0 0c-3.948616 0 -7.149605 -3.2009888 -7.149605 -7.1496124z" fill-rule="evenodd"/><path fill="#d9ead3" d="m112.10761 65.21301l0 0c0 -3.9486198 3.2009888 -7.149605 7.149605 -7.149605l0 0c1.8961945 0 3.7147217 0.75325775 5.0555344 2.0940704c1.3408127 1.3408089 2.0940704 3.15934 2.0940704 5.0555344l0 0c0 3.948616 -3.2009888 7.149605 -7.149605 7.149605l0 0c-3.948616 0 -7.149605 -3.2009888 -7.149605 -7.149605z" fill-rule="evenodd"/><path stroke="#000000" stroke-width="1.0" stroke-linejoin="round" stroke-linecap="butt" d="m112.10761 65.21301l0 0c0 -3.9486198 3.2009888 -7.149605 7.149605 -7.149605l0 0c1.8961945 0 3.7147217 0.75325775 5.0555344 2.0940704c1.3408127 1.3408089 2.0940704 3.15934 2.0940704 5.0555344l0 0c0 3.948616 -3.2009888 7.149605 -7.149605 7.149605l0 0c-3.948616 0 -7.149605 -3.2009888 -7.149605 -7.149605z" fill-rule="evenodd"/><path fill="#d9ead3" d="m112.10761 161.21301l0 0c0 -3.9486237 3.2009888 -7.1496124 7.149605 -7.1496124l0 0c1.8961945 0 3.7147217 0.7532654 5.0555344 2.0940704c1.3408127 1.3408203 2.0940704 3.1593475 2.0940704 5.055542l0 0c0 3.9486237 -3.2009888 7.1496124 -7.149605 7.1496124l0 0c-3.948616 0 -7.149605 -3.2009888 -7.149605 -7.1496124z" fill-rule="evenodd"/><path stroke="#000000" stroke-width="1.0" stroke-linejoin="round" stroke-linecap="butt" d="m112.10761 161.21301l0 0c0 -3.9486237 3.2009888 -7.1496124 7.149605 -7.1496124l0 0c1.8961945 0 3.7147217 0.7532654 5.0555344 2.0940704c1.3408127 1.3408203 2.0940704 3.1593475 2.0940704 5.055542l0 0c0 3.9486237 -3.2009888 7.1496124 -7.149605 7.1496124l0 0c-3.948616 0 -7.149605 -3.2009888 -7.149605 -7.1496124z" fill-rule="evenodd"/><path fill="#d9ead3" d="m168.1076 89.21301l0 0c0 -3.948616 3.2009888 -7.149605 7.1496124 -7.149605l0 0c1.8961945 0 3.7147217 0.75325775 5.055542 2.0940704c1.340805 1.3408127 2.0940704 3.15934 2.0940704 5.0555344l0 0c0 3.948616 -3.2009888 7.149605 -7.1496124 7.149605l0 0c-3.9486237 0 -7.1496124 -3.2009888 -7.1496124 -7.149605z" fill-rule="evenodd"/><path stroke="#000000" stroke-width="1.0" stroke-linejoin="round" stroke-linecap="butt" d="m168.1076 89.21301l0 0c0 -3.948616 3.2009888 -7.149605 7.1496124 -7.149605l0 0c1.8961945 0 3.7147217 0.75325775 5.055542 2.0940704c1.340805 1.3408127 2.0940704 3.15934 2.0940704 5.0555344l0 0c0 3.948616 -3.2009888 7.149605 -7.1496124 7.149605l0 0c-3.9486237 0 -7.1496124 -3.2009888 -7.1496124 -7.149605z" fill-rule="evenodd"/><path fill="#d9ead3" d="m168.1076 113.21301l0 0c0 -3.948616 3.2009888 -7.149605 7.1496124 -7.149605l0 0c1.8961945 0 3.7147217 0.75325775 5.055542 2.0940704c1.340805 1.3408127 2.0940704 3.15934 2.0940704 5.0555344l0 0c0 3.948616 -3.2009888 7.149605 -7.1496124 7.149605l0 0c-3.9486237 0 -7.1496124 -3.2009888 -7.1496124 -7.149605z" fill-rule="evenodd"/><path stroke="#000000" stroke-width="1.0" stroke-linejoin="round" stroke-linecap="butt" d="m168.1076 113.21301l0 0c0 -3.948616 3.2009888 -7.149605 7.1496124 -7.149605l0 0c1.8961945 0 3.7147217 0.75325775 5.055542 2.0940704c1.340805 1.3408127 2.0940704 3.15934 2.0940704 5.0555344l0 0c0 3.948616 -3.2009888 7.149605 -7.1496124 7.149605l0 0c-3.9486237 0 -7.1496124 -3.2009888 -7.1496124 -7.149605z" fill-rule="evenodd"/><path fill="#d9ead3" d="m168.1076 137.21301l0 0c0 -3.9486237 3.2009888 -7.1496124 7.1496124 -7.1496124l0 0c1.8961945 0 3.7147217 0.7532654 5.055542 2.0940704c1.340805 1.3408203 2.0940704 3.1593475 2.0940704 5.055542l0 0c0 3.9486237 -3.2009888 7.1496124 -7.1496124 7.1496124l0 0c-3.9486237 0 -7.1496124 -3.2009888 -7.1496124 -7.1496124z" fill-rule="evenodd"/><path stroke="#000000" stroke-width="1.0" stroke-linejoin="round" stroke-linecap="butt" d="m168.1076 137.21301l0 0c0 -3.9486237 3.2009888 -7.1496124 7.1496124 -7.1496124l0 0c1.8961945 0 3.7147217 0.7532654 5.055542 2.0940704c1.340805 1.3408203 2.0940704 3.1593475 2.0940704 5.055542l0 0c0 3.9486237 -3.2009888 7.1496124 -7.1496124 7.1496124l0 0c-3.9486237 0 -7.1496124 -3.2009888 -7.1496124 -7.1496124z" fill-rule="evenodd"/><path fill="#d9d9d9" d="m455.35434 192.12599c-1.3193359 -6.464569 0.098846436 -25.627304 -7.9160156 -38.787415c-8.014862 -13.160095 -40.14041 -26.848198 -40.173218 -40.173225c-0.032836914 -13.32502 31.914246 -26.730972 39.97635 -39.7769c8.062134 -13.045933 6.9969482 -32.082237 8.396332 -38.498688" fill-rule="evenodd"/><path stroke="#000000" stroke-width="1.0" stroke-linejoin="round" stroke-linecap="butt" d="m455.35434 192.12599c-1.3193359 -6.464569 0.098846436 -25.627304 -7.9160156 -38.787415c-8.014862 -13.160095 -40.14041 -26.848198 -40.173218 -40.173225c-0.032836914 -13.32502 31.914246 -26.730972 39.97635 -39.7769c8.062134 -13.045933 6.9969482 -32.082237 8.396332 -38.498688" fill-rule="evenodd"/><path fill="#000000" fill-opacity="0.0" d="m455.6378 193.31496l0 -166.70866" fill-rule="evenodd"/><path stroke="#000000" stroke-width="1.0" stroke-linejoin="round" stroke-linecap="butt" d="m455.6378 193.31496l0 -160.70865" fill-rule="evenodd"/><path fill="#000000" stroke="#000000" stroke-width="1.0" stroke-linecap="butt" d="m457.28952 32.6063l-1.6517334 -4.5380993l-1.6517334 4.5380993z" fill-rule="evenodd"/><path fill="#000000" fill-opacity="0.0" d="m441.3974 6.133919l29.669281 0l0 13.291338l-29.669281 0z" fill-rule="evenodd"/><path fill="#000000" d="m451.45044 24.652712q0.3125 -0.765625 0.46875 -1.40625l0.21875 0q0.453125 0.484375 0.96875 0.484375q0.640625 0 1.109375 -0.65625q0.484375 -0.640625 1.359375 -2.828125q-0.34375 -0.96875 -0.703125 -1.84375l-1.4375 -3.578125q-0.234375 -0.5625 -0.6875 -1.59375q-0.4375 -1.03125 -0.53125 -1.140625q-0.078125 -0.109375 -0.21875 -0.1875q-0.140625 -0.09375 -0.734375 -0.1875l-0.078125 -0.0625l0 -0.375l0.09375 -0.0625q1.046875 0.0625 2.140625 0.0625q1.296875 0 2.0 -0.0625l0.078125 0.0625l0 0.375l-0.078125 0.0625q-0.09375 0.015625 -0.5625 0.046875q-0.453125 0.03125 -0.5625 0.15625q-0.109375 0.109375 -0.109375 0.25q0 0.15625 0.28125 1.015625q0.28125 0.84375 0.546875 1.5l0.5625 1.421875q0.5625 1.390625 0.875 2.0625l0.484375 -1.0625q0.265625 -0.578125 0.734375 -1.765625l0.75 -1.9375q0.296875 -0.75 0.328125 -0.921875q0.046875 -0.1875 0.046875 -0.265625q0 -0.203125 -0.15625 -0.265625q-0.140625 -0.078125 -0.640625 -0.140625l-0.375 -0.046875l-0.0625 -0.078125l0 -0.40625l0.078125 -0.0625q0.75 0.0625 1.8125 0.0625q0.953125 0 1.515625 -0.0625l0.078125 0.0625l0 0.40625l-0.078125 0.078125q-0.328125 0 -0.53125 0.09375q-0.203125 0.078125 -0.390625 0.296875q-0.171875 0.203125 -0.65625 1.171875q-0.46875 0.96875 -0.9375 2.0l-0.890625 1.96875l-2.109375 4.90625q-0.265625 0.640625 -0.671875 1.359375q-0.40625 0.734375 -1.0 1.0625q-0.578125 0.328125 -1.234375 0.328125q-0.578125 0 -1.09375 -0.296875zm4.875 -14.203125l0 0zm2.140625 9.796875l0 0z" fill-rule="nonzero"/><path fill="#000000" fill-opacity="0.0" d="m411.29135 59.081276l29.669281 0l0 13.291336l-29.669281 0z" fill-rule="evenodd"/><path fill="#3c78d8" d="m431.6591 63.896942l0.09375 0.171875q-0.171875 0.46875 -0.265625 1.078125q-0.78125 -0.046875 -3.125 -0.171875l-0.078125 0.15625q0.828125 0.359375 1.1875 0.8125q0.375 0.765625 0.375 1.84375q0 1.390625 -0.59375 2.671875q-0.578125 1.265625 -1.5625 1.859375q-0.984375 0.59375 -2.265625 0.59375q-1.859375 0 -3.09375 -1.15625q-1.21875 -1.15625 -1.21875 -3.203125q0 -1.4375 0.609375 -2.421875q0.609375 -0.984375 1.59375 -1.46875q1.0 -0.5 2.703125 -0.5l1.53125 0.015625q2.46875 0 4.109375 -0.28125zm-8.890625 4.671875q0 1.921875 0.78125 2.90625q0.796875 0.96875 2.078125 0.96875q1.46875 0 2.203125 -1.15625q0.734375 -1.15625 0.734375 -3.09375q0 -1.703125 -0.625 -2.625q-0.609375 -0.9375 -2.046875 -0.9375q-1.59375 0 -2.359375 1.0625q-0.765625 1.046875 -0.765625 2.875z" fill-rule="nonzero"/><path fill="#000000" fill-opacity="0.0" d="m400.2257 113.04294l55.212616 0" fill-rule="evenodd"/><path stroke="#6aa84f" stroke-width="1.0" stroke-linejoin="round" stroke-linecap="butt" stroke-dasharray="1.0,3.0" d="m400.2257 113.04294l55.212616 0" fill-rule="evenodd"/><path fill="#000000" fill-opacity="0.0" d="m371.74326 105.14265l29.669281 0l0 13.291336l-29.669281 0z" fill-rule="evenodd"/><path fill="#6aa84f" d="m392.462 117.81769l-0.0625 0.421875q-1.140625 0.625 -2.015625 0.625q-0.5 0 -0.796875 -0.21875q-0.28125 -0.21875 -0.390625 -0.578125q-0.09375 -0.359375 -0.125 -1.09375l-0.125 -0.078125q-0.75 1.03125 -1.546875 1.546875q-0.796875 0.515625 -1.8125 0.515625q-1.34375 0 -1.96875 -0.84375l-0.1875 0.03125q0.046875 3.609375 0.46875 5.421875l-0.140625 0.203125q-0.515625 0.078125 -1.125 0.109375l-0.15625 -0.140625q0.09375 -3.8125 0.171875 -7.625q0 -4.078125 -0.203125 -5.921875l1.578125 -0.171875l0.203125 0.1875q-0.140625 1.265625 -0.140625 3.0q0 3.0625 0.5625 3.890625q0.5625 0.8125 1.625 0.8125q0.859375 0 1.515625 -0.453125q0.65625 -0.46875 0.96875 -1.265625q0.3125 -0.796875 0.3125 -2.28125q0 -2.25 -0.078125 -3.71875l1.546875 -0.171875l0.203125 0.1875q-0.078125 0.609375 -0.15625 2.203125q-0.0625 1.59375 -0.0625 2.359375q0 1.34375 0.0625 2.0q0.0625 0.640625 0.328125 0.953125q0.265625 0.296875 0.734375 0.296875q0.359375 0 0.8125 -0.203125z" fill-rule="nonzero"/><path fill="#000000" fill-opacity="0.0" d="m426.12598 77.19292l0 72.62991" fill-rule="evenodd"/><path stroke="#3c78d8" stroke-width="1.0" stroke-linejoin="round" stroke-linecap="butt" d="m426.12598 80.62l0 65.77575" fill-rule="evenodd"/><path fill="#3c78d8" stroke="#3c78d8" stroke-width="1.0" stroke-linecap="butt" d="m426.12598 80.62l1.1246033 1.1245804l-1.1246033 -3.0897675l-1.1245728 3.0897675z" fill-rule="evenodd"/><path fill="#3c78d8" stroke="#3c78d8" stroke-width="1.0" stroke-linecap="butt" d="m426.12598 146.39575l-1.1245728 -1.124588l1.1245728 3.0897675l1.1246033 -3.0897675z" fill-rule="evenodd"/><path fill="#000000" fill-opacity="0.0" d="m350.40683 113.21301l20.724396 0" fill-rule="evenodd"/><path stroke="#b6d7a8" stroke-width="1.0" stroke-linejoin="round" stroke-linecap="butt" d="m350.40683 113.213005l14.724396 0" fill-rule="evenodd"/><path fill="#b6d7a8" stroke="#b6d7a8" stroke-width="1.0" stroke-linecap="butt" d="m365.13123 114.86474l4.5381165 -1.6517334l-4.5381165 -1.6517258z" fill-rule="evenodd"/><path fill="#000000" fill-opacity="0.0" d="m-5.5850086 104.36483l22.141733 0l0 13.291336l-22.141733 0z" fill-rule="evenodd"/><path fill="#000000" d="m3.8212416 117.993l-0.078125 -0.078125l0 -0.359375l0.078125 -0.078125q0.34374976 -0.015625 0.54687476 -0.109375q0.21875 -0.09375 0.515625 -0.390625q0.3125 -0.3125 1.09375 -1.265625l1.46875 -1.8125l-0.78125 -1.15625q-0.171875 -0.25 -0.71875 -1.0q-0.53125 -0.75 -0.90625 -1.125q-0.359375 -0.375 -0.546875 -0.46875q-0.171875 -0.09375 -0.34375 -0.09375q-0.09375 0 -0.21874976 0.015625l-0.09375 -0.0625l-0.078125 -0.375l0.078125 -0.078125q0.92187476 -0.109375 2.0468748 -0.359375q0.625 0.53125 1.859375 2.4375l0.671875 1.0625l0.578125 -0.71875q0.65625 -0.875 1.859375 -2.59375q0.4375 0.0625 0.6875 0.0625q0.234375 0 0.640625 -0.0625l0.078125 0.0625l0 0.375l-0.078125 0.0625q-0.296875 0.03125 -0.4375 0.09375q-0.140625 0.0625 -0.515625 0.421875q-0.359375 0.359375 -0.96875 1.09375l-0.546875 0.65625q-0.15625 0.1875 -0.3125 0.390625l-0.5625 0.71875l0.328125 0.53125q0.234375 0.328125 1.09375 1.53125q0.875 1.203125 1.21875 1.609375q0.359375 0.40625 0.515625 0.484375q0.15625 0.0625 0.5 0.0625l0.0625 0.078125l0 0.359375l-0.0625 0.078125q-0.671875 -0.0625 -1.046875 -0.0625q-0.109375 0 -1.15625 0.0625q-0.75 -0.9375 -1.515625 -2.109375l-0.921875 -1.390625q-0.9375 1.0625 -2.515625 3.5q-0.625 -0.0625 -0.734375 -0.0625q-0.1875 0 -0.78124976 0.0625z" fill-rule="nonzero"/><path fill="#000000" fill-opacity="0.0" d="m24.908491 89.21301l30.614172 0" fill-rule="evenodd"/><path stroke="#000000" stroke-width="1.0" stroke-linejoin="round" stroke-linecap="butt" d="m24.908491 89.213005l27.187082 0" fill-rule="evenodd"/><path fill="#000000" stroke="#000000" stroke-width="1.0" stroke-linecap="butt" d="m52.095577 89.213005l-1.1245842 1.124588l3.0897675 -1.124588l-3.0897675 -1.1245804z" fill-rule="evenodd"/><path fill="#000000" fill-opacity="0.0" d="m24.916365 113.2126l30.614172 0" fill-rule="evenodd"/><path stroke="#000000" stroke-width="1.0" stroke-linejoin="round" stroke-linecap="butt" d="m24.916365 113.2126l27.187086 0" fill-rule="evenodd"/><path fill="#000000" stroke="#000000" stroke-width="1.0" stroke-linecap="butt" d="m52.10345 113.2126l-1.1245842 1.1245804l3.0897675 -1.1245804l-3.0897675 -1.124588z" fill-rule="evenodd"/><path fill="#000000" fill-opacity="0.0" d="m24.916365 137.2126l30.614172 0" fill-rule="evenodd"/><path stroke="#000000" stroke-width="1.0" stroke-linejoin="round" stroke-linecap="butt" d="m24.916365 137.2126l27.187086 0" fill-rule="evenodd"/><path fill="#000000" stroke="#000000" stroke-width="1.0" stroke-linecap="butt" d="m52.10345 137.2126l-1.1245842 1.124588l3.0897675 -1.124588l-3.0897675 -1.124588z" fill-rule="evenodd"/></g></svg>