<?xml version="1.0" encoding="utf-8" standalone="no"?>
<!DOCTYPE svg PUBLIC "-//W3C//DTD SVG 1.1//EN"
  "http://www.w3.org/Graphics/SVG/1.1/DTD/svg11.dtd">
<!-- Created with matplotlib (https://matplotlib.org/) -->
<svg height="273.599688pt" version="1.1" viewBox="0 0 408.30875 273.599688" width="408.30875pt" xmlns="http://www.w3.org/2000/svg" xmlns:xlink="http://www.w3.org/1999/xlink">
 <defs>
  <style type="text/css">
*{stroke-linecap:butt;stroke-linejoin:round;}
  </style>
 </defs>
 <g id="figure_1">
  <g id="patch_1">
   <path d="M 0 273.599688 
L 408.30875 273.599688 
L 408.30875 0 
L 0 0 
z
" style="fill:#ffffff;"/>
  </g>
  <g id="axes_1">
   <g id="patch_2">
    <path d="M 60.30875 230.64 
L 395.10875 230.64 
L 395.10875 13.2 
L 60.30875 13.2 
z
" style="fill:#eaeaf2;"/>
   </g>
   <g id="matplotlib.axis_1">
    <g id="xtick_1">
     <g id="line2d_1">
      <path clip-path="url(#p327c391435)" d="M 75.526932 230.64 
L 75.526932 13.2 
" style="fill:none;stroke:#ffffff;stroke-linecap:round;"/>
     </g>
     <g id="text_1">
      <!-- −2.0 -->
      <defs>
       <path d="M 10.59375 35.5 
L 73.1875 35.5 
L 73.1875 27.203125 
L 10.59375 27.203125 
z
" id="DejaVuSans-8722"/>
       <path d="M 19.1875 8.296875 
L 53.609375 8.296875 
L 53.609375 0 
L 7.328125 0 
L 7.328125 8.296875 
Q 12.9375 14.109375 22.625 23.890625 
Q 32.328125 33.6875 34.8125 36.53125 
Q 39.546875 41.84375 41.421875 45.53125 
Q 43.3125 49.21875 43.3125 52.78125 
Q 43.3125 58.59375 39.234375 62.25 
Q 35.15625 65.921875 28.609375 65.921875 
Q 23.96875 65.921875 18.8125 64.3125 
Q 13.671875 62.703125 7.8125 59.421875 
L 7.8125 69.390625 
Q 13.765625 71.78125 18.9375 73 
Q 24.125 74.21875 28.421875 74.21875 
Q 39.75 74.21875 46.484375 68.546875 
Q 53.21875 62.890625 53.21875 53.421875 
Q 53.21875 48.921875 51.53125 44.890625 
Q 49.859375 40.875 45.40625 35.40625 
Q 44.1875 33.984375 37.640625 27.21875 
Q 31.109375 20.453125 19.1875 8.296875 
z
" id="DejaVuSans-50"/>
       <path d="M 10.6875 12.40625 
L 21 12.40625 
L 21 0 
L 10.6875 0 
z
" id="DejaVuSans-46"/>
       <path d="M 31.78125 66.40625 
Q 24.171875 66.40625 20.328125 58.90625 
Q 16.5 51.421875 16.5 36.375 
Q 16.5 21.390625 20.328125 13.890625 
Q 24.171875 6.390625 31.78125 6.390625 
Q 39.453125 6.390625 43.28125 13.890625 
Q 47.125 21.390625 47.125 36.375 
Q 47.125 51.421875 43.28125 58.90625 
Q 39.453125 66.40625 31.78125 66.40625 
z
M 31.78125 74.21875 
Q 44.046875 74.21875 50.515625 64.515625 
Q 56.984375 54.828125 56.984375 36.375 
Q 56.984375 17.96875 50.515625 8.265625 
Q 44.046875 -1.421875 31.78125 -1.421875 
Q 19.53125 -1.421875 13.0625 8.265625 
Q 6.59375 17.96875 6.59375 36.375 
Q 6.59375 54.828125 13.0625 64.515625 
Q 19.53125 74.21875 31.78125 74.21875 
z
" id="DejaVuSans-48"/>
      </defs>
      <g style="fill:#262626;" transform="translate(62.171385 248.498281)scale(0.11 -0.11)">
       <use xlink:href="#DejaVuSans-8722"/>
       <use x="83.789062" xlink:href="#DejaVuSans-50"/>
       <use x="147.412109" xlink:href="#DejaVuSans-46"/>
       <use x="179.199219" xlink:href="#DejaVuSans-48"/>
      </g>
     </g>
    </g>
    <g id="xtick_2">
     <g id="line2d_2">
      <path clip-path="url(#p327c391435)" d="M 113.572386 230.64 
L 113.572386 13.2 
" style="fill:none;stroke:#ffffff;stroke-linecap:round;"/>
     </g>
     <g id="text_2">
      <!-- −1.5 -->
      <defs>
       <path d="M 12.40625 8.296875 
L 28.515625 8.296875 
L 28.515625 63.921875 
L 10.984375 60.40625 
L 10.984375 69.390625 
L 28.421875 72.90625 
L 38.28125 72.90625 
L 38.28125 8.296875 
L 54.390625 8.296875 
L 54.390625 0 
L 12.40625 0 
z
" id="DejaVuSans-49"/>
       <path d="M 10.796875 72.90625 
L 49.515625 72.90625 
L 49.515625 64.59375 
L 19.828125 64.59375 
L 19.828125 46.734375 
Q 21.96875 47.46875 24.109375 47.828125 
Q 26.265625 48.1875 28.421875 48.1875 
Q 40.625 48.1875 47.75 41.5 
Q 54.890625 34.8125 54.890625 23.390625 
Q 54.890625 11.625 47.5625 5.09375 
Q 40.234375 -1.421875 26.90625 -1.421875 
Q 22.3125 -1.421875 17.546875 -0.640625 
Q 12.796875 0.140625 7.71875 1.703125 
L 7.71875 11.625 
Q 12.109375 9.234375 16.796875 8.0625 
Q 21.484375 6.890625 26.703125 6.890625 
Q 35.15625 6.890625 40.078125 11.328125 
Q 45.015625 15.765625 45.015625 23.390625 
Q 45.015625 31 40.078125 35.4375 
Q 35.15625 39.890625 26.703125 39.890625 
Q 22.75 39.890625 18.8125 39.015625 
Q 14.890625 38.140625 10.796875 36.28125 
z
" id="DejaVuSans-53"/>
      </defs>
      <g style="fill:#262626;" transform="translate(100.216839 248.498281)scale(0.11 -0.11)">
       <use xlink:href="#DejaVuSans-8722"/>
       <use x="83.789062" xlink:href="#DejaVuSans-49"/>
       <use x="147.412109" xlink:href="#DejaVuSans-46"/>
       <use x="179.199219" xlink:href="#DejaVuSans-53"/>
      </g>
     </g>
    </g>
    <g id="xtick_3">
     <g id="line2d_3">
      <path clip-path="url(#p327c391435)" d="M 151.617841 230.64 
L 151.617841 13.2 
" style="fill:none;stroke:#ffffff;stroke-linecap:round;"/>
     </g>
     <g id="text_3">
      <!-- −1.0 -->
      <g style="fill:#262626;" transform="translate(138.262294 248.498281)scale(0.11 -0.11)">
       <use xlink:href="#DejaVuSans-8722"/>
       <use x="83.789062" xlink:href="#DejaVuSans-49"/>
       <use x="147.412109" xlink:href="#DejaVuSans-46"/>
       <use x="179.199219" xlink:href="#DejaVuSans-48"/>
      </g>
     </g>
    </g>
    <g id="xtick_4">
     <g id="line2d_4">
      <path clip-path="url(#p327c391435)" d="M 189.663295 230.64 
L 189.663295 13.2 
" style="fill:none;stroke:#ffffff;stroke-linecap:round;"/>
     </g>
     <g id="text_4">
      <!-- −0.5 -->
      <g style="fill:#262626;" transform="translate(176.307749 248.498281)scale(0.11 -0.11)">
       <use xlink:href="#DejaVuSans-8722"/>
       <use x="83.789062" xlink:href="#DejaVuSans-48"/>
       <use x="147.412109" xlink:href="#DejaVuSans-46"/>
       <use x="179.199219" xlink:href="#DejaVuSans-53"/>
      </g>
     </g>
    </g>
    <g id="xtick_5">
     <g id="line2d_5">
      <path clip-path="url(#p327c391435)" d="M 227.70875 230.64 
L 227.70875 13.2 
" style="fill:none;stroke:#ffffff;stroke-linecap:round;"/>
     </g>
     <g id="text_5">
      <!-- 0.0 -->
      <g style="fill:#262626;" transform="translate(218.962031 248.498281)scale(0.11 -0.11)">
       <use xlink:href="#DejaVuSans-48"/>
       <use x="63.623047" xlink:href="#DejaVuSans-46"/>
       <use x="95.410156" xlink:href="#DejaVuSans-48"/>
      </g>
     </g>
    </g>
    <g id="xtick_6">
     <g id="line2d_6">
      <path clip-path="url(#p327c391435)" d="M 265.754205 230.64 
L 265.754205 13.2 
" style="fill:none;stroke:#ffffff;stroke-linecap:round;"/>
     </g>
     <g id="text_6">
      <!-- 0.5 -->
      <g style="fill:#262626;" transform="translate(257.007486 248.498281)scale(0.11 -0.11)">
       <use xlink:href="#DejaVuSans-48"/>
       <use x="63.623047" xlink:href="#DejaVuSans-46"/>
       <use x="95.410156" xlink:href="#DejaVuSans-53"/>
      </g>
     </g>
    </g>
    <g id="xtick_7">
     <g id="line2d_7">
      <path clip-path="url(#p327c391435)" d="M 303.799659 230.64 
L 303.799659 13.2 
" style="fill:none;stroke:#ffffff;stroke-linecap:round;"/>
     </g>
     <g id="text_7">
      <!-- 1.0 -->
      <g style="fill:#262626;" transform="translate(295.05294 248.498281)scale(0.11 -0.11)">
       <use xlink:href="#DejaVuSans-49"/>
       <use x="63.623047" xlink:href="#DejaVuSans-46"/>
       <use x="95.410156" xlink:href="#DejaVuSans-48"/>
      </g>
     </g>
    </g>
    <g id="xtick_8">
     <g id="line2d_8">
      <path clip-path="url(#p327c391435)" d="M 341.845114 230.64 
L 341.845114 13.2 
" style="fill:none;stroke:#ffffff;stroke-linecap:round;"/>
     </g>
     <g id="text_8">
      <!-- 1.5 -->
      <g style="fill:#262626;" transform="translate(333.098395 248.498281)scale(0.11 -0.11)">
       <use xlink:href="#DejaVuSans-49"/>
       <use x="63.623047" xlink:href="#DejaVuSans-46"/>
       <use x="95.410156" xlink:href="#DejaVuSans-53"/>
      </g>
     </g>
    </g>
    <g id="xtick_9">
     <g id="line2d_9">
      <path clip-path="url(#p327c391435)" d="M 379.890568 230.64 
L 379.890568 13.2 
" style="fill:none;stroke:#ffffff;stroke-linecap:round;"/>
     </g>
     <g id="text_9">
      <!-- 2.0 -->
      <g style="fill:#262626;" transform="translate(371.143849 248.498281)scale(0.11 -0.11)">
       <use xlink:href="#DejaVuSans-50"/>
       <use x="63.623047" xlink:href="#DejaVuSans-46"/>
       <use x="95.410156" xlink:href="#DejaVuSans-48"/>
      </g>
     </g>
    </g>
    <g id="text_10">
     <!-- Residuals -->
     <defs>
      <path d="M 44.390625 34.1875 
Q 47.5625 33.109375 50.5625 29.59375 
Q 53.5625 26.078125 56.59375 19.921875 
L 66.609375 0 
L 56 0 
L 46.6875 18.703125 
Q 43.0625 26.03125 39.671875 28.421875 
Q 36.28125 30.8125 30.421875 30.8125 
L 19.671875 30.8125 
L 19.671875 0 
L 9.8125 0 
L 9.8125 72.90625 
L 32.078125 72.90625 
Q 44.578125 72.90625 50.734375 67.671875 
Q 56.890625 62.453125 56.890625 51.90625 
Q 56.890625 45.015625 53.6875 40.46875 
Q 50.484375 35.9375 44.390625 34.1875 
z
M 19.671875 64.796875 
L 19.671875 38.921875 
L 32.078125 38.921875 
Q 39.203125 38.921875 42.84375 42.21875 
Q 46.484375 45.515625 46.484375 51.90625 
Q 46.484375 58.296875 42.84375 61.546875 
Q 39.203125 64.796875 32.078125 64.796875 
z
" id="DejaVuSans-82"/>
      <path d="M 56.203125 29.59375 
L 56.203125 25.203125 
L 14.890625 25.203125 
Q 15.484375 15.921875 20.484375 11.0625 
Q 25.484375 6.203125 34.421875 6.203125 
Q 39.59375 6.203125 44.453125 7.46875 
Q 49.3125 8.734375 54.109375 11.28125 
L 54.109375 2.78125 
Q 49.265625 0.734375 44.1875 -0.34375 
Q 39.109375 -1.421875 33.890625 -1.421875 
Q 20.796875 -1.421875 13.15625 6.1875 
Q 5.515625 13.8125 5.515625 26.8125 
Q 5.515625 40.234375 12.765625 48.109375 
Q 20.015625 56 32.328125 56 
Q 43.359375 56 49.78125 48.890625 
Q 56.203125 41.796875 56.203125 29.59375 
z
M 47.21875 32.234375 
Q 47.125 39.59375 43.09375 43.984375 
Q 39.0625 48.390625 32.421875 48.390625 
Q 24.90625 48.390625 20.390625 44.140625 
Q 15.875 39.890625 15.1875 32.171875 
z
" id="DejaVuSans-101"/>
      <path d="M 44.28125 53.078125 
L 44.28125 44.578125 
Q 40.484375 46.53125 36.375 47.5 
Q 32.28125 48.484375 27.875 48.484375 
Q 21.1875 48.484375 17.84375 46.4375 
Q 14.5 44.390625 14.5 40.28125 
Q 14.5 37.15625 16.890625 35.375 
Q 19.28125 33.59375 26.515625 31.984375 
L 29.59375 31.296875 
Q 39.15625 29.25 43.1875 25.515625 
Q 47.21875 21.78125 47.21875 15.09375 
Q 47.21875 7.46875 41.1875 3.015625 
Q 35.15625 -1.421875 24.609375 -1.421875 
Q 20.21875 -1.421875 15.453125 -0.5625 
Q 10.6875 0.296875 5.421875 2 
L 5.421875 11.28125 
Q 10.40625 8.6875 15.234375 7.390625 
Q 20.0625 6.109375 24.8125 6.109375 
Q 31.15625 6.109375 34.5625 8.28125 
Q 37.984375 10.453125 37.984375 14.40625 
Q 37.984375 18.0625 35.515625 20.015625 
Q 33.0625 21.96875 24.703125 23.78125 
L 21.578125 24.515625 
Q 13.234375 26.265625 9.515625 29.90625 
Q 5.8125 33.546875 5.8125 39.890625 
Q 5.8125 47.609375 11.28125 51.796875 
Q 16.75 56 26.8125 56 
Q 31.78125 56 36.171875 55.265625 
Q 40.578125 54.546875 44.28125 53.078125 
z
" id="DejaVuSans-115"/>
      <path d="M 9.421875 54.6875 
L 18.40625 54.6875 
L 18.40625 0 
L 9.421875 0 
z
M 9.421875 75.984375 
L 18.40625 75.984375 
L 18.40625 64.59375 
L 9.421875 64.59375 
z
" id="DejaVuSans-105"/>
      <path d="M 45.40625 46.390625 
L 45.40625 75.984375 
L 54.390625 75.984375 
L 54.390625 0 
L 45.40625 0 
L 45.40625 8.203125 
Q 42.578125 3.328125 38.25 0.953125 
Q 33.9375 -1.421875 27.875 -1.421875 
Q 17.96875 -1.421875 11.734375 6.484375 
Q 5.515625 14.40625 5.515625 27.296875 
Q 5.515625 40.1875 11.734375 48.09375 
Q 17.96875 56 27.875 56 
Q 33.9375 56 38.25 53.625 
Q 42.578125 51.265625 45.40625 46.390625 
z
M 14.796875 27.296875 
Q 14.796875 17.390625 18.875 11.75 
Q 22.953125 6.109375 30.078125 6.109375 
Q 37.203125 6.109375 41.296875 11.75 
Q 45.40625 17.390625 45.40625 27.296875 
Q 45.40625 37.203125 41.296875 42.84375 
Q 37.203125 48.484375 30.078125 48.484375 
Q 22.953125 48.484375 18.875 42.84375 
Q 14.796875 37.203125 14.796875 27.296875 
z
" id="DejaVuSans-100"/>
      <path d="M 8.5 21.578125 
L 8.5 54.6875 
L 17.484375 54.6875 
L 17.484375 21.921875 
Q 17.484375 14.15625 20.5 10.265625 
Q 23.53125 6.390625 29.59375 6.390625 
Q 36.859375 6.390625 41.078125 11.03125 
Q 45.3125 15.671875 45.3125 23.6875 
L 45.3125 54.6875 
L 54.296875 54.6875 
L 54.296875 0 
L 45.3125 0 
L 45.3125 8.40625 
Q 42.046875 3.421875 37.71875 1 
Q 33.40625 -1.421875 27.6875 -1.421875 
Q 18.265625 -1.421875 13.375 4.4375 
Q 8.5 10.296875 8.5 21.578125 
z
M 31.109375 56 
z
" id="DejaVuSans-117"/>
      <path d="M 34.28125 27.484375 
Q 23.390625 27.484375 19.1875 25 
Q 14.984375 22.515625 14.984375 16.5 
Q 14.984375 11.71875 18.140625 8.90625 
Q 21.296875 6.109375 26.703125 6.109375 
Q 34.1875 6.109375 38.703125 11.40625 
Q 43.21875 16.703125 43.21875 25.484375 
L 43.21875 27.484375 
z
M 52.203125 31.203125 
L 52.203125 0 
L 43.21875 0 
L 43.21875 8.296875 
Q 40.140625 3.328125 35.546875 0.953125 
Q 30.953125 -1.421875 24.3125 -1.421875 
Q 15.921875 -1.421875 10.953125 3.296875 
Q 6 8.015625 6 15.921875 
Q 6 25.140625 12.171875 29.828125 
Q 18.359375 34.515625 30.609375 34.515625 
L 43.21875 34.515625 
L 43.21875 35.40625 
Q 43.21875 41.609375 39.140625 45 
Q 35.0625 48.390625 27.6875 48.390625 
Q 23 48.390625 18.546875 47.265625 
Q 14.109375 46.140625 10.015625 43.890625 
L 10.015625 52.203125 
Q 14.9375 54.109375 19.578125 55.046875 
Q 24.21875 56 28.609375 56 
Q 40.484375 56 46.34375 49.84375 
Q 52.203125 43.703125 52.203125 31.203125 
z
" id="DejaVuSans-97"/>
      <path d="M 9.421875 75.984375 
L 18.40625 75.984375 
L 18.40625 0 
L 9.421875 0 
z
" id="DejaVuSans-108"/>
     </defs>
     <g style="fill:#262626;" transform="translate(198.978125 263.904063)scale(0.12 -0.12)">
      <use xlink:href="#DejaVuSans-82"/>
      <use x="69.419922" xlink:href="#DejaVuSans-101"/>
      <use x="130.943359" xlink:href="#DejaVuSans-115"/>
      <use x="183.042969" xlink:href="#DejaVuSans-105"/>
      <use x="210.826172" xlink:href="#DejaVuSans-100"/>
      <use x="274.302734" xlink:href="#DejaVuSans-117"/>
      <use x="337.681641" xlink:href="#DejaVuSans-97"/>
      <use x="398.960938" xlink:href="#DejaVuSans-108"/>
      <use x="426.744141" xlink:href="#DejaVuSans-115"/>
     </g>
    </g>
   </g>
   <g id="matplotlib.axis_2">
    <g id="ytick_1">
     <g id="line2d_10">
      <path clip-path="url(#p327c391435)" d="M 60.30875 230.64 
L 395.10875 230.64 
" style="fill:none;stroke:#ffffff;stroke-linecap:round;"/>
     </g>
     <g id="text_11">
      <!-- 0 -->
      <g style="fill:#262626;" transform="translate(43.81 234.819141)scale(0.11 -0.11)">
       <use xlink:href="#DejaVuSans-48"/>
      </g>
     </g>
    </g>
    <g id="ytick_2">
     <g id="line2d_11">
      <path clip-path="url(#p327c391435)" d="M 60.30875 193.686803 
L 395.10875 193.686803 
" style="fill:none;stroke:#ffffff;stroke-linecap:round;"/>
     </g>
     <g id="text_12">
      <!-- 1000 -->
      <g style="fill:#262626;" transform="translate(22.81375 197.865944)scale(0.11 -0.11)">
       <use xlink:href="#DejaVuSans-49"/>
       <use x="63.623047" xlink:href="#DejaVuSans-48"/>
       <use x="127.246094" xlink:href="#DejaVuSans-48"/>
       <use x="190.869141" xlink:href="#DejaVuSans-48"/>
      </g>
     </g>
    </g>
    <g id="ytick_3">
     <g id="line2d_12">
      <path clip-path="url(#p327c391435)" d="M 60.30875 156.733607 
L 395.10875 156.733607 
" style="fill:none;stroke:#ffffff;stroke-linecap:round;"/>
     </g>
     <g id="text_13">
      <!-- 2000 -->
      <g style="fill:#262626;" transform="translate(22.81375 160.912747)scale(0.11 -0.11)">
       <use xlink:href="#DejaVuSans-50"/>
       <use x="63.623047" xlink:href="#DejaVuSans-48"/>
       <use x="127.246094" xlink:href="#DejaVuSans-48"/>
       <use x="190.869141" xlink:href="#DejaVuSans-48"/>
      </g>
     </g>
    </g>
    <g id="ytick_4">
     <g id="line2d_13">
      <path clip-path="url(#p327c391435)" d="M 60.30875 119.78041 
L 395.10875 119.78041 
" style="fill:none;stroke:#ffffff;stroke-linecap:round;"/>
     </g>
     <g id="text_14">
      <!-- 3000 -->
      <defs>
       <path d="M 40.578125 39.3125 
Q 47.65625 37.796875 51.625 33 
Q 55.609375 28.21875 55.609375 21.1875 
Q 55.609375 10.40625 48.1875 4.484375 
Q 40.765625 -1.421875 27.09375 -1.421875 
Q 22.515625 -1.421875 17.65625 -0.515625 
Q 12.796875 0.390625 7.625 2.203125 
L 7.625 11.71875 
Q 11.71875 9.328125 16.59375 8.109375 
Q 21.484375 6.890625 26.8125 6.890625 
Q 36.078125 6.890625 40.9375 10.546875 
Q 45.796875 14.203125 45.796875 21.1875 
Q 45.796875 27.640625 41.28125 31.265625 
Q 36.765625 34.90625 28.71875 34.90625 
L 20.21875 34.90625 
L 20.21875 43.015625 
L 29.109375 43.015625 
Q 36.375 43.015625 40.234375 45.921875 
Q 44.09375 48.828125 44.09375 54.296875 
Q 44.09375 59.90625 40.109375 62.90625 
Q 36.140625 65.921875 28.71875 65.921875 
Q 24.65625 65.921875 20.015625 65.03125 
Q 15.375 64.15625 9.8125 62.3125 
L 9.8125 71.09375 
Q 15.4375 72.65625 20.34375 73.4375 
Q 25.25 74.21875 29.59375 74.21875 
Q 40.828125 74.21875 47.359375 69.109375 
Q 53.90625 64.015625 53.90625 55.328125 
Q 53.90625 49.265625 50.4375 45.09375 
Q 46.96875 40.921875 40.578125 39.3125 
z
" id="DejaVuSans-51"/>
      </defs>
      <g style="fill:#262626;" transform="translate(22.81375 123.959551)scale(0.11 -0.11)">
       <use xlink:href="#DejaVuSans-51"/>
       <use x="63.623047" xlink:href="#DejaVuSans-48"/>
       <use x="127.246094" xlink:href="#DejaVuSans-48"/>
       <use x="190.869141" xlink:href="#DejaVuSans-48"/>
      </g>
     </g>
    </g>
    <g id="ytick_5">
     <g id="line2d_14">
      <path clip-path="url(#p327c391435)" d="M 60.30875 82.827213 
L 395.10875 82.827213 
" style="fill:none;stroke:#ffffff;stroke-linecap:round;"/>
     </g>
     <g id="text_15">
      <!-- 4000 -->
      <defs>
       <path d="M 37.796875 64.3125 
L 12.890625 25.390625 
L 37.796875 25.390625 
z
M 35.203125 72.90625 
L 47.609375 72.90625 
L 47.609375 25.390625 
L 58.015625 25.390625 
L 58.015625 17.1875 
L 47.609375 17.1875 
L 47.609375 0 
L 37.796875 0 
L 37.796875 17.1875 
L 4.890625 17.1875 
L 4.890625 26.703125 
z
" id="DejaVuSans-52"/>
      </defs>
      <g style="fill:#262626;" transform="translate(22.81375 87.006354)scale(0.11 -0.11)">
       <use xlink:href="#DejaVuSans-52"/>
       <use x="63.623047" xlink:href="#DejaVuSans-48"/>
       <use x="127.246094" xlink:href="#DejaVuSans-48"/>
       <use x="190.869141" xlink:href="#DejaVuSans-48"/>
      </g>
     </g>
    </g>
    <g id="ytick_6">
     <g id="line2d_15">
      <path clip-path="url(#p327c391435)" d="M 60.30875 45.874017 
L 395.10875 45.874017 
" style="fill:none;stroke:#ffffff;stroke-linecap:round;"/>
     </g>
     <g id="text_16">
      <!-- 5000 -->
      <g style="fill:#262626;" transform="translate(22.81375 50.053157)scale(0.11 -0.11)">
       <use xlink:href="#DejaVuSans-53"/>
       <use x="63.623047" xlink:href="#DejaVuSans-48"/>
       <use x="127.246094" xlink:href="#DejaVuSans-48"/>
       <use x="190.869141" xlink:href="#DejaVuSans-48"/>
      </g>
     </g>
    </g>
    <g id="text_17">
     <!-- Count -->
     <defs>
      <path d="M 64.40625 67.28125 
L 64.40625 56.890625 
Q 59.421875 61.53125 53.78125 63.8125 
Q 48.140625 66.109375 41.796875 66.109375 
Q 29.296875 66.109375 22.65625 58.46875 
Q 16.015625 50.828125 16.015625 36.375 
Q 16.015625 21.96875 22.65625 14.328125 
Q 29.296875 6.6875 41.796875 6.6875 
Q 48.140625 6.6875 53.78125 8.984375 
Q 59.421875 11.28125 64.40625 15.921875 
L 64.40625 5.609375 
Q 59.234375 2.09375 53.4375 0.328125 
Q 47.65625 -1.421875 41.21875 -1.421875 
Q 24.65625 -1.421875 15.125 8.703125 
Q 5.609375 18.84375 5.609375 36.375 
Q 5.609375 53.953125 15.125 64.078125 
Q 24.65625 74.21875 41.21875 74.21875 
Q 47.75 74.21875 53.53125 72.484375 
Q 59.328125 70.75 64.40625 67.28125 
z
" id="DejaVuSans-67"/>
      <path d="M 30.609375 48.390625 
Q 23.390625 48.390625 19.1875 42.75 
Q 14.984375 37.109375 14.984375 27.296875 
Q 14.984375 17.484375 19.15625 11.84375 
Q 23.34375 6.203125 30.609375 6.203125 
Q 37.796875 6.203125 41.984375 11.859375 
Q 46.1875 17.53125 46.1875 27.296875 
Q 46.1875 37.015625 41.984375 42.703125 
Q 37.796875 48.390625 30.609375 48.390625 
z
M 30.609375 56 
Q 42.328125 56 49.015625 48.375 
Q 55.71875 40.765625 55.71875 27.296875 
Q 55.71875 13.875 49.015625 6.21875 
Q 42.328125 -1.421875 30.609375 -1.421875 
Q 18.84375 -1.421875 12.171875 6.21875 
Q 5.515625 13.875 5.515625 27.296875 
Q 5.515625 40.765625 12.171875 48.375 
Q 18.84375 56 30.609375 56 
z
" id="DejaVuSans-111"/>
      <path d="M 54.890625 33.015625 
L 54.890625 0 
L 45.90625 0 
L 45.90625 32.71875 
Q 45.90625 40.484375 42.875 44.328125 
Q 39.84375 48.1875 33.796875 48.1875 
Q 26.515625 48.1875 22.3125 43.546875 
Q 18.109375 38.921875 18.109375 30.90625 
L 18.109375 0 
L 9.078125 0 
L 9.078125 54.6875 
L 18.109375 54.6875 
L 18.109375 46.1875 
Q 21.34375 51.125 25.703125 53.5625 
Q 30.078125 56 35.796875 56 
Q 45.21875 56 50.046875 50.171875 
Q 54.890625 44.34375 54.890625 33.015625 
z
" id="DejaVuSans-110"/>
      <path d="M 18.3125 70.21875 
L 18.3125 54.6875 
L 36.8125 54.6875 
L 36.8125 47.703125 
L 18.3125 47.703125 
L 18.3125 18.015625 
Q 18.3125 11.328125 20.140625 9.421875 
Q 21.96875 7.515625 27.59375 7.515625 
L 36.8125 7.515625 
L 36.8125 0 
L 27.59375 0 
Q 17.1875 0 13.234375 3.875 
Q 9.28125 7.765625 9.28125 18.015625 
L 9.28125 47.703125 
L 2.6875 47.703125 
L 2.6875 54.6875 
L 9.28125 54.6875 
L 9.28125 70.21875 
z
" id="DejaVuSans-116"/>
     </defs>
     <g style="fill:#262626;" transform="translate(16.318125 139.738125)rotate(-90)scale(0.12 -0.12)">
      <use xlink:href="#DejaVuSans-67"/>
      <use x="69.824219" xlink:href="#DejaVuSans-111"/>
      <use x="131.005859" xlink:href="#DejaVuSans-117"/>
      <use x="194.384766" xlink:href="#DejaVuSans-110"/>
      <use x="257.763672" xlink:href="#DejaVuSans-116"/>
     </g>
    </g>
   </g>
   <g id="patch_3">
    <path clip-path="url(#p327c391435)" d="M 75.526932 230.64 
L 78.601312 230.64 
L 78.601312 229.974842 
L 75.526932 229.974842 
z
" style="fill:#4c72b0;opacity:0.5;stroke:#ffffff;stroke-linejoin:miter;"/>
   </g>
   <g id="patch_4">
    <path clip-path="url(#p327c391435)" d="M 78.601312 230.64 
L 81.675692 230.64 
L 81.675692 230.233515 
L 78.601312 230.233515 
z
" style="fill:#4c72b0;opacity:0.5;stroke:#ffffff;stroke-linejoin:miter;"/>
   </g>
   <g id="patch_5">
    <path clip-path="url(#p327c391435)" d="M 81.675692 230.64 
L 84.750072 230.64 
L 84.750072 230.270468 
L 81.675692 230.270468 
z
" style="fill:#4c72b0;opacity:0.5;stroke:#ffffff;stroke-linejoin:miter;"/>
   </g>
   <g id="patch_6">
    <path clip-path="url(#p327c391435)" d="M 84.750072 230.64 
L 87.824452 230.64 
L 87.824452 230.307421 
L 84.750072 230.307421 
z
" style="fill:#4c72b0;opacity:0.5;stroke:#ffffff;stroke-linejoin:miter;"/>
   </g>
   <g id="patch_7">
    <path clip-path="url(#p327c391435)" d="M 87.824452 230.64 
L 90.898833 230.64 
L 90.898833 230.418281 
L 87.824452 230.418281 
z
" style="fill:#4c72b0;opacity:0.5;stroke:#ffffff;stroke-linejoin:miter;"/>
   </g>
   <g id="patch_8">
    <path clip-path="url(#p327c391435)" d="M 90.898833 230.64 
L 93.973213 230.64 
L 93.973213 230.492187 
L 90.898833 230.492187 
z
" style="fill:#4c72b0;opacity:0.5;stroke:#ffffff;stroke-linejoin:miter;"/>
   </g>
   <g id="patch_9">
    <path clip-path="url(#p327c391435)" d="M 93.973213 230.64 
L 97.047593 230.64 
L 97.047593 230.196562 
L 93.973213 230.196562 
z
" style="fill:#4c72b0;opacity:0.5;stroke:#ffffff;stroke-linejoin:miter;"/>
   </g>
   <g id="patch_10">
    <path clip-path="url(#p327c391435)" d="M 97.047593 230.64 
L 100.121973 230.64 
L 100.121973 230.085702 
L 97.047593 230.085702 
z
" style="fill:#4c72b0;opacity:0.5;stroke:#ffffff;stroke-linejoin:miter;"/>
   </g>
   <g id="patch_11">
    <path clip-path="url(#p327c391435)" d="M 100.121973 230.64 
L 103.196353 230.64 
L 103.196353 230.085702 
L 100.121973 230.085702 
z
" style="fill:#4c72b0;opacity:0.5;stroke:#ffffff;stroke-linejoin:miter;"/>
   </g>
   <g id="patch_12">
    <path clip-path="url(#p327c391435)" d="M 103.196353 230.64 
L 106.270733 230.64 
L 106.270733 230.085702 
L 103.196353 230.085702 
z
" style="fill:#4c72b0;opacity:0.5;stroke:#ffffff;stroke-linejoin:miter;"/>
   </g>
   <g id="patch_13">
    <path clip-path="url(#p327c391435)" d="M 106.270733 230.64 
L 109.345114 230.64 
L 109.345114 230.196562 
L 106.270733 230.196562 
z
" style="fill:#4c72b0;opacity:0.5;stroke:#ffffff;stroke-linejoin:miter;"/>
   </g>
   <g id="patch_14">
    <path clip-path="url(#p327c391435)" d="M 109.345114 230.64 
L 112.419494 230.64 
L 112.419494 229.679217 
L 109.345114 229.679217 
z
" style="fill:#4c72b0;opacity:0.5;stroke:#ffffff;stroke-linejoin:miter;"/>
   </g>
   <g id="patch_15">
    <path clip-path="url(#p327c391435)" d="M 112.419494 230.64 
L 115.493874 230.64 
L 115.493874 230.085702 
L 112.419494 230.085702 
z
" style="fill:#4c72b0;opacity:0.5;stroke:#ffffff;stroke-linejoin:miter;"/>
   </g>
   <g id="patch_16">
    <path clip-path="url(#p327c391435)" d="M 115.493874 230.64 
L 118.568254 230.64 
L 118.568254 229.71617 
L 115.493874 229.71617 
z
" style="fill:#4c72b0;opacity:0.5;stroke:#ffffff;stroke-linejoin:miter;"/>
   </g>
   <g id="patch_17">
    <path clip-path="url(#p327c391435)" d="M 118.568254 230.64 
L 121.642634 230.64 
L 121.642634 230.011796 
L 118.568254 230.011796 
z
" style="fill:#4c72b0;opacity:0.5;stroke:#ffffff;stroke-linejoin:miter;"/>
   </g>
   <g id="patch_18">
    <path clip-path="url(#p327c391435)" d="M 121.642634 230.64 
L 124.717014 230.64 
L 124.717014 229.60531 
L 121.642634 229.60531 
z
" style="fill:#4c72b0;opacity:0.5;stroke:#ffffff;stroke-linejoin:miter;"/>
   </g>
   <g id="patch_19">
    <path clip-path="url(#p327c391435)" d="M 124.717014 230.64 
L 127.791395 230.64 
L 127.791395 229.568357 
L 124.717014 229.568357 
z
" style="fill:#4c72b0;opacity:0.5;stroke:#ffffff;stroke-linejoin:miter;"/>
   </g>
   <g id="patch_20">
    <path clip-path="url(#p327c391435)" d="M 127.791395 230.64 
L 130.865775 230.64 
L 130.865775 229.383591 
L 127.791395 229.383591 
z
" style="fill:#4c72b0;opacity:0.5;stroke:#ffffff;stroke-linejoin:miter;"/>
   </g>
   <g id="patch_21">
    <path clip-path="url(#p327c391435)" d="M 130.865775 230.64 
L 133.940155 230.64 
L 133.940155 229.198825 
L 130.865775 229.198825 
z
" style="fill:#4c72b0;opacity:0.5;stroke:#ffffff;stroke-linejoin:miter;"/>
   </g>
   <g id="patch_22">
    <path clip-path="url(#p327c391435)" d="M 133.940155 230.64 
L 137.014535 230.64 
L 137.014535 228.977106 
L 133.940155 228.977106 
z
" style="fill:#4c72b0;opacity:0.5;stroke:#ffffff;stroke-linejoin:miter;"/>
   </g>
   <g id="patch_23">
    <path clip-path="url(#p327c391435)" d="M 137.014535 230.64 
L 140.088915 230.64 
L 140.088915 228.829293 
L 137.014535 228.829293 
z
" style="fill:#4c72b0;opacity:0.5;stroke:#ffffff;stroke-linejoin:miter;"/>
   </g>
   <g id="patch_24">
    <path clip-path="url(#p327c391435)" d="M 140.088915 230.64 
L 143.163295 230.64 
L 143.163295 228.422808 
L 140.088915 228.422808 
z
" style="fill:#4c72b0;opacity:0.5;stroke:#ffffff;stroke-linejoin:miter;"/>
   </g>
   <g id="patch_25">
    <path clip-path="url(#p327c391435)" d="M 143.163295 230.64 
L 146.237676 230.64 
L 146.237676 227.498978 
L 143.163295 227.498978 
z
" style="fill:#4c72b0;opacity:0.5;stroke:#ffffff;stroke-linejoin:miter;"/>
   </g>
   <g id="patch_26">
    <path clip-path="url(#p327c391435)" d="M 146.237676 230.64 
L 149.312056 230.64 
L 149.312056 227.129446 
L 146.237676 227.129446 
z
" style="fill:#4c72b0;opacity:0.5;stroke:#ffffff;stroke-linejoin:miter;"/>
   </g>
   <g id="patch_27">
    <path clip-path="url(#p327c391435)" d="M 149.312056 230.64 
L 152.386436 230.64 
L 152.386436 226.981634 
L 149.312056 226.981634 
z
" style="fill:#4c72b0;opacity:0.5;stroke:#ffffff;stroke-linejoin:miter;"/>
   </g>
   <g id="patch_28">
    <path clip-path="url(#p327c391435)" d="M 152.386436 230.64 
L 155.460816 230.64 
L 155.460816 226.205616 
L 152.386436 226.205616 
z
" style="fill:#4c72b0;opacity:0.5;stroke:#ffffff;stroke-linejoin:miter;"/>
   </g>
   <g id="patch_29">
    <path clip-path="url(#p327c391435)" d="M 155.460816 230.64 
L 158.535196 230.64 
L 158.535196 225.651318 
L 155.460816 225.651318 
z
" style="fill:#4c72b0;opacity:0.5;stroke:#ffffff;stroke-linejoin:miter;"/>
   </g>
   <g id="patch_30">
    <path clip-path="url(#p327c391435)" d="M 158.535196 230.64 
L 161.609576 230.64 
L 161.609576 223.027641 
L 158.535196 223.027641 
z
" style="fill:#4c72b0;opacity:0.5;stroke:#ffffff;stroke-linejoin:miter;"/>
   </g>
   <g id="patch_31">
    <path clip-path="url(#p327c391435)" d="M 161.609576 230.64 
L 164.683957 230.64 
L 164.683957 222.140765 
L 161.609576 222.140765 
z
" style="fill:#4c72b0;opacity:0.5;stroke:#ffffff;stroke-linejoin:miter;"/>
   </g>
   <g id="patch_32">
    <path clip-path="url(#p327c391435)" d="M 164.683957 230.64 
L 167.758337 230.64 
L 167.758337 219.295369 
L 164.683957 219.295369 
z
" style="fill:#4c72b0;opacity:0.5;stroke:#ffffff;stroke-linejoin:miter;"/>
   </g>
   <g id="patch_33">
    <path clip-path="url(#p327c391435)" d="M 167.758337 230.64 
L 170.832717 230.64 
L 170.832717 218.223726 
L 167.758337 218.223726 
z
" style="fill:#4c72b0;opacity:0.5;stroke:#ffffff;stroke-linejoin:miter;"/>
   </g>
   <g id="patch_34">
    <path clip-path="url(#p327c391435)" d="M 170.832717 230.64 
L 173.907097 230.64 
L 173.907097 216.154347 
L 170.832717 216.154347 
z
" style="fill:#4c72b0;opacity:0.5;stroke:#ffffff;stroke-linejoin:miter;"/>
   </g>
   <g id="patch_35">
    <path clip-path="url(#p327c391435)" d="M 173.907097 230.64 
L 176.981477 230.64 
L 176.981477 211.941682 
L 173.907097 211.941682 
z
" style="fill:#4c72b0;opacity:0.5;stroke:#ffffff;stroke-linejoin:miter;"/>
   </g>
   <g id="patch_36">
    <path clip-path="url(#p327c391435)" d="M 176.981477 230.64 
L 180.055857 230.64 
L 180.055857 209.170193 
L 176.981477 209.170193 
z
" style="fill:#4c72b0;opacity:0.5;stroke:#ffffff;stroke-linejoin:miter;"/>
   </g>
   <g id="patch_37">
    <path clip-path="url(#p327c391435)" d="M 180.055857 230.64 
L 183.130238 230.64 
L 183.130238 202.075179 
L 180.055857 202.075179 
z
" style="fill:#4c72b0;opacity:0.5;stroke:#ffffff;stroke-linejoin:miter;"/>
   </g>
   <g id="patch_38">
    <path clip-path="url(#p327c391435)" d="M 183.130238 230.64 
L 186.204618 230.64 
L 186.204618 193.612897 
L 183.130238 193.612897 
z
" style="fill:#4c72b0;opacity:0.5;stroke:#ffffff;stroke-linejoin:miter;"/>
   </g>
   <g id="patch_39">
    <path clip-path="url(#p327c391435)" d="M 186.204618 230.64 
L 189.278998 230.64 
L 189.278998 189.917577 
L 186.204618 189.917577 
z
" style="fill:#4c72b0;opacity:0.5;stroke:#ffffff;stroke-linejoin:miter;"/>
   </g>
   <g id="patch_40">
    <path clip-path="url(#p327c391435)" d="M 189.278998 230.64 
L 192.353378 230.64 
L 192.353378 176.688333 
L 189.278998 176.688333 
z
" style="fill:#4c72b0;opacity:0.5;stroke:#ffffff;stroke-linejoin:miter;"/>
   </g>
   <g id="patch_41">
    <path clip-path="url(#p327c391435)" d="M 192.353378 230.64 
L 195.427758 230.64 
L 195.427758 168.041285 
L 192.353378 168.041285 
z
" style="fill:#4c72b0;opacity:0.5;stroke:#ffffff;stroke-linejoin:miter;"/>
   </g>
   <g id="patch_42">
    <path clip-path="url(#p327c391435)" d="M 195.427758 230.64 
L 198.502138 230.64 
L 198.502138 155.107666 
L 195.427758 155.107666 
z
" style="fill:#4c72b0;opacity:0.5;stroke:#ffffff;stroke-linejoin:miter;"/>
   </g>
   <g id="patch_43">
    <path clip-path="url(#p327c391435)" d="M 198.502138 230.64 
L 201.576519 230.64 
L 201.576519 139.735136 
L 198.502138 139.735136 
z
" style="fill:#4c72b0;opacity:0.5;stroke:#ffffff;stroke-linejoin:miter;"/>
   </g>
   <g id="patch_44">
    <path clip-path="url(#p327c391435)" d="M 201.576519 230.64 
L 204.650899 230.64 
L 204.650899 124.584325 
L 201.576519 124.584325 
z
" style="fill:#4c72b0;opacity:0.5;stroke:#ffffff;stroke-linejoin:miter;"/>
   </g>
   <g id="patch_45">
    <path clip-path="url(#p327c391435)" d="M 204.650899 230.64 
L 207.725279 230.64 
L 207.725279 110.65297 
L 204.650899 110.65297 
z
" style="fill:#4c72b0;opacity:0.5;stroke:#ffffff;stroke-linejoin:miter;"/>
   </g>
   <g id="patch_46">
    <path clip-path="url(#p327c391435)" d="M 207.725279 230.64 
L 210.799659 230.64 
L 210.799659 87.668082 
L 207.725279 87.668082 
z
" style="fill:#4c72b0;opacity:0.5;stroke:#ffffff;stroke-linejoin:miter;"/>
   </g>
   <g id="patch_47">
    <path clip-path="url(#p327c391435)" d="M 210.799659 230.64 
L 213.874039 230.64 
L 213.874039 71.039143 
L 210.799659 71.039143 
z
" style="fill:#4c72b0;opacity:0.5;stroke:#ffffff;stroke-linejoin:miter;"/>
   </g>
   <g id="patch_48">
    <path clip-path="url(#p327c391435)" d="M 213.874039 230.64 
L 216.948419 230.64 
L 216.948419 60.655295 
L 213.874039 60.655295 
z
" style="fill:#4c72b0;opacity:0.5;stroke:#ffffff;stroke-linejoin:miter;"/>
   </g>
   <g id="patch_49">
    <path clip-path="url(#p327c391435)" d="M 216.948419 230.64 
L 220.0228 230.64 
L 220.0228 46.650034 
L 216.948419 46.650034 
z
" style="fill:#4c72b0;opacity:0.5;stroke:#ffffff;stroke-linejoin:miter;"/>
   </g>
   <g id="patch_50">
    <path clip-path="url(#p327c391435)" d="M 220.0228 230.64 
L 223.09718 230.64 
L 223.09718 27.988669 
L 220.0228 27.988669 
z
" style="fill:#4c72b0;opacity:0.5;stroke:#ffffff;stroke-linejoin:miter;"/>
   </g>
   <g id="patch_51">
    <path clip-path="url(#p327c391435)" d="M 223.09718 230.64 
L 226.17156 230.64 
L 226.17156 26.880073 
L 223.09718 26.880073 
z
" style="fill:#4c72b0;opacity:0.5;stroke:#ffffff;stroke-linejoin:miter;"/>
   </g>
   <g id="patch_52">
    <path clip-path="url(#p327c391435)" d="M 226.17156 230.64 
L 229.24594 230.64 
L 229.24594 33.420789 
L 226.17156 33.420789 
z
" style="fill:#4c72b0;opacity:0.5;stroke:#ffffff;stroke-linejoin:miter;"/>
   </g>
   <g id="patch_53">
    <path clip-path="url(#p327c391435)" d="M 229.24594 230.64 
L 232.32032 230.64 
L 232.32032 40.885335 
L 229.24594 40.885335 
z
" style="fill:#4c72b0;opacity:0.5;stroke:#ffffff;stroke-linejoin:miter;"/>
   </g>
   <g id="patch_54">
    <path clip-path="url(#p327c391435)" d="M 232.32032 230.64 
L 235.3947 230.64 
L 235.3947 44.691514 
L 232.32032 44.691514 
z
" style="fill:#4c72b0;opacity:0.5;stroke:#ffffff;stroke-linejoin:miter;"/>
   </g>
   <g id="patch_55">
    <path clip-path="url(#p327c391435)" d="M 235.3947 230.64 
L 238.469081 230.64 
L 238.469081 57.735993 
L 235.3947 57.735993 
z
" style="fill:#4c72b0;opacity:0.5;stroke:#ffffff;stroke-linejoin:miter;"/>
   </g>
   <g id="patch_56">
    <path clip-path="url(#p327c391435)" d="M 238.469081 230.64 
L 241.543461 230.64 
L 241.543461 69.006718 
L 238.469081 69.006718 
z
" style="fill:#4c72b0;opacity:0.5;stroke:#ffffff;stroke-linejoin:miter;"/>
   </g>
   <g id="patch_57">
    <path clip-path="url(#p327c391435)" d="M 241.543461 230.64 
L 244.617841 230.64 
L 244.617841 89.03535 
L 241.543461 89.03535 
z
" style="fill:#4c72b0;opacity:0.5;stroke:#ffffff;stroke-linejoin:miter;"/>
   </g>
   <g id="patch_58">
    <path clip-path="url(#p327c391435)" d="M 244.617841 230.64 
L 247.692221 230.64 
L 247.692221 100.490841 
L 244.617841 100.490841 
z
" style="fill:#4c72b0;opacity:0.5;stroke:#ffffff;stroke-linejoin:miter;"/>
   </g>
   <g id="patch_59">
    <path clip-path="url(#p327c391435)" d="M 247.692221 230.64 
L 250.766601 230.64 
L 250.766601 118.782674 
L 247.692221 118.782674 
z
" style="fill:#4c72b0;opacity:0.5;stroke:#ffffff;stroke-linejoin:miter;"/>
   </g>
   <g id="patch_60">
    <path clip-path="url(#p327c391435)" d="M 250.766601 230.64 
L 253.840981 230.64 
L 253.840981 130.829416 
L 250.766601 130.829416 
z
" style="fill:#4c72b0;opacity:0.5;stroke:#ffffff;stroke-linejoin:miter;"/>
   </g>
   <g id="patch_61">
    <path clip-path="url(#p327c391435)" d="M 253.840981 230.64 
L 256.915362 230.64 
L 256.915362 145.056396 
L 253.840981 145.056396 
z
" style="fill:#4c72b0;opacity:0.5;stroke:#ffffff;stroke-linejoin:miter;"/>
   </g>
   <g id="patch_62">
    <path clip-path="url(#p327c391435)" d="M 256.915362 230.64 
L 259.989742 230.64 
L 259.989742 157.953062 
L 256.915362 157.953062 
z
" style="fill:#4c72b0;opacity:0.5;stroke:#ffffff;stroke-linejoin:miter;"/>
   </g>
   <g id="patch_63">
    <path clip-path="url(#p327c391435)" d="M 259.989742 230.64 
L 263.064122 230.64 
L 263.064122 167.745659 
L 259.989742 167.745659 
z
" style="fill:#4c72b0;opacity:0.5;stroke:#ffffff;stroke-linejoin:miter;"/>
   </g>
   <g id="patch_64">
    <path clip-path="url(#p327c391435)" d="M 263.064122 230.64 
L 266.138502 230.64 
L 266.138502 175.025439 
L 263.064122 175.025439 
z
" style="fill:#4c72b0;opacity:0.5;stroke:#ffffff;stroke-linejoin:miter;"/>
   </g>
   <g id="patch_65">
    <path clip-path="url(#p327c391435)" d="M 266.138502 230.64 
L 269.212882 230.64 
L 269.212882 184.928896 
L 266.138502 184.928896 
z
" style="fill:#4c72b0;opacity:0.5;stroke:#ffffff;stroke-linejoin:miter;"/>
   </g>
   <g id="patch_66">
    <path clip-path="url(#p327c391435)" d="M 269.212882 230.64 
L 272.287262 230.64 
L 272.287262 190.767501 
L 269.212882 190.767501 
z
" style="fill:#4c72b0;opacity:0.5;stroke:#ffffff;stroke-linejoin:miter;"/>
   </g>
   <g id="patch_67">
    <path clip-path="url(#p327c391435)" d="M 272.287262 230.64 
L 275.361643 230.64 
L 275.361643 198.121187 
L 272.287262 198.121187 
z
" style="fill:#4c72b0;opacity:0.5;stroke:#ffffff;stroke-linejoin:miter;"/>
   </g>
   <g id="patch_68">
    <path clip-path="url(#p327c391435)" d="M 275.361643 230.64 
L 278.436023 230.64 
L 278.436023 202.481664 
L 275.361643 202.481664 
z
" style="fill:#4c72b0;opacity:0.5;stroke:#ffffff;stroke-linejoin:miter;"/>
   </g>
   <g id="patch_69">
    <path clip-path="url(#p327c391435)" d="M 278.436023 230.64 
L 281.510403 230.64 
L 281.510403 207.913784 
L 278.436023 207.913784 
z
" style="fill:#4c72b0;opacity:0.5;stroke:#ffffff;stroke-linejoin:miter;"/>
   </g>
   <g id="patch_70">
    <path clip-path="url(#p327c391435)" d="M 281.510403 230.64 
L 284.584783 230.64 
L 284.584783 209.613631 
L 281.510403 209.613631 
z
" style="fill:#4c72b0;opacity:0.5;stroke:#ffffff;stroke-linejoin:miter;"/>
   </g>
   <g id="patch_71">
    <path clip-path="url(#p327c391435)" d="M 284.584783 230.64 
L 287.659163 230.64 
L 287.659163 213.937155 
L 284.584783 213.937155 
z
" style="fill:#4c72b0;opacity:0.5;stroke:#ffffff;stroke-linejoin:miter;"/>
   </g>
   <g id="patch_72">
    <path clip-path="url(#p327c391435)" d="M 287.659163 230.64 
L 290.733543 230.64 
L 290.733543 215.600049 
L 287.659163 215.600049 
z
" style="fill:#4c72b0;opacity:0.5;stroke:#ffffff;stroke-linejoin:miter;"/>
   </g>
   <g id="patch_73">
    <path clip-path="url(#p327c391435)" d="M 290.733543 230.64 
L 293.807924 230.64 
L 293.807924 218.186773 
L 290.733543 218.186773 
z
" style="fill:#4c72b0;opacity:0.5;stroke:#ffffff;stroke-linejoin:miter;"/>
   </g>
   <g id="patch_74">
    <path clip-path="url(#p327c391435)" d="M 293.807924 230.64 
L 296.882304 230.64 
L 296.882304 220.293105 
L 293.807924 220.293105 
z
" style="fill:#4c72b0;opacity:0.5;stroke:#ffffff;stroke-linejoin:miter;"/>
   </g>
   <g id="patch_75">
    <path clip-path="url(#p327c391435)" d="M 296.882304 230.64 
L 299.956684 230.64 
L 299.956684 220.440918 
L 296.882304 220.440918 
z
" style="fill:#4c72b0;opacity:0.5;stroke:#ffffff;stroke-linejoin:miter;"/>
   </g>
   <g id="patch_76">
    <path clip-path="url(#p327c391435)" d="M 299.956684 230.64 
L 303.031064 230.64 
L 303.031064 221.697326 
L 299.956684 221.697326 
z
" style="fill:#4c72b0;opacity:0.5;stroke:#ffffff;stroke-linejoin:miter;"/>
   </g>
   <g id="patch_77">
    <path clip-path="url(#p327c391435)" d="M 303.031064 230.64 
L 306.105444 230.64 
L 306.105444 224.39491 
L 303.031064 224.39491 
z
" style="fill:#4c72b0;opacity:0.5;stroke:#ffffff;stroke-linejoin:miter;"/>
   </g>
   <g id="patch_78">
    <path clip-path="url(#p327c391435)" d="M 306.105444 230.64 
L 309.179824 230.64 
L 309.179824 224.653582 
L 306.105444 224.653582 
z
" style="fill:#4c72b0;opacity:0.5;stroke:#ffffff;stroke-linejoin:miter;"/>
   </g>
   <g id="patch_79">
    <path clip-path="url(#p327c391435)" d="M 309.179824 230.64 
L 312.254205 230.64 
L 312.254205 225.466552 
L 309.179824 225.466552 
z
" style="fill:#4c72b0;opacity:0.5;stroke:#ffffff;stroke-linejoin:miter;"/>
   </g>
   <g id="patch_80">
    <path clip-path="url(#p327c391435)" d="M 312.254205 230.64 
L 315.328585 230.64 
L 315.328585 226.168663 
L 312.254205 226.168663 
z
" style="fill:#4c72b0;opacity:0.5;stroke:#ffffff;stroke-linejoin:miter;"/>
   </g>
   <g id="patch_81">
    <path clip-path="url(#p327c391435)" d="M 315.328585 230.64 
L 318.402965 230.64 
L 318.402965 226.353429 
L 315.328585 226.353429 
z
" style="fill:#4c72b0;opacity:0.5;stroke:#ffffff;stroke-linejoin:miter;"/>
   </g>
   <g id="patch_82">
    <path clip-path="url(#p327c391435)" d="M 318.402965 230.64 
L 321.477345 230.64 
L 321.477345 226.390382 
L 318.402965 226.390382 
z
" style="fill:#4c72b0;opacity:0.5;stroke:#ffffff;stroke-linejoin:miter;"/>
   </g>
   <g id="patch_83">
    <path clip-path="url(#p327c391435)" d="M 321.477345 230.64 
L 324.551725 230.64 
L 324.551725 227.425072 
L 321.477345 227.425072 
z
" style="fill:#4c72b0;opacity:0.5;stroke:#ffffff;stroke-linejoin:miter;"/>
   </g>
   <g id="patch_84">
    <path clip-path="url(#p327c391435)" d="M 324.551725 230.64 
L 327.626105 230.64 
L 327.626105 227.757651 
L 324.551725 227.757651 
z
" style="fill:#4c72b0;opacity:0.5;stroke:#ffffff;stroke-linejoin:miter;"/>
   </g>
   <g id="patch_85">
    <path clip-path="url(#p327c391435)" d="M 327.626105 230.64 
L 330.700486 230.64 
L 330.700486 227.609838 
L 327.626105 227.609838 
z
" style="fill:#4c72b0;opacity:0.5;stroke:#ffffff;stroke-linejoin:miter;"/>
   </g>
   <g id="patch_86">
    <path clip-path="url(#p327c391435)" d="M 330.700486 230.64 
L 333.774866 230.64 
L 333.774866 228.348902 
L 330.700486 228.348902 
z
" style="fill:#4c72b0;opacity:0.5;stroke:#ffffff;stroke-linejoin:miter;"/>
   </g>
   <g id="patch_87">
    <path clip-path="url(#p327c391435)" d="M 333.774866 230.64 
L 336.849246 230.64 
L 336.849246 228.311949 
L 333.774866 228.311949 
z
" style="fill:#4c72b0;opacity:0.5;stroke:#ffffff;stroke-linejoin:miter;"/>
   </g>
   <g id="patch_88">
    <path clip-path="url(#p327c391435)" d="M 336.849246 230.64 
L 339.923626 230.64 
L 339.923626 228.238042 
L 336.849246 228.238042 
z
" style="fill:#4c72b0;opacity:0.5;stroke:#ffffff;stroke-linejoin:miter;"/>
   </g>
   <g id="patch_89">
    <path clip-path="url(#p327c391435)" d="M 339.923626 230.64 
L 342.998006 230.64 
L 342.998006 228.422808 
L 339.923626 228.422808 
z
" style="fill:#4c72b0;opacity:0.5;stroke:#ffffff;stroke-linejoin:miter;"/>
   </g>
   <g id="patch_90">
    <path clip-path="url(#p327c391435)" d="M 342.998006 230.64 
L 346.072386 230.64 
L 346.072386 228.755387 
L 342.998006 228.755387 
z
" style="fill:#4c72b0;opacity:0.5;stroke:#ffffff;stroke-linejoin:miter;"/>
   </g>
   <g id="patch_91">
    <path clip-path="url(#p327c391435)" d="M 346.072386 230.64 
L 349.146767 230.64 
L 349.146767 229.494451 
L 346.072386 229.494451 
z
" style="fill:#4c72b0;opacity:0.5;stroke:#ffffff;stroke-linejoin:miter;"/>
   </g>
   <g id="patch_92">
    <path clip-path="url(#p327c391435)" d="M 349.146767 230.64 
L 352.221147 230.64 
L 352.221147 229.71617 
L 349.146767 229.71617 
z
" style="fill:#4c72b0;opacity:0.5;stroke:#ffffff;stroke-linejoin:miter;"/>
   </g>
   <g id="patch_93">
    <path clip-path="url(#p327c391435)" d="M 352.221147 230.64 
L 355.295527 230.64 
L 355.295527 229.790076 
L 352.221147 229.790076 
z
" style="fill:#4c72b0;opacity:0.5;stroke:#ffffff;stroke-linejoin:miter;"/>
   </g>
   <g id="patch_94">
    <path clip-path="url(#p327c391435)" d="M 355.295527 230.64 
L 358.369907 230.64 
L 358.369907 229.346638 
L 355.295527 229.346638 
z
" style="fill:#4c72b0;opacity:0.5;stroke:#ffffff;stroke-linejoin:miter;"/>
   </g>
   <g id="patch_95">
    <path clip-path="url(#p327c391435)" d="M 358.369907 230.64 
L 361.444287 230.64 
L 361.444287 229.457498 
L 358.369907 229.457498 
z
" style="fill:#4c72b0;opacity:0.5;stroke:#ffffff;stroke-linejoin:miter;"/>
   </g>
   <g id="patch_96">
    <path clip-path="url(#p327c391435)" d="M 361.444287 230.64 
L 364.518667 230.64 
L 364.518667 229.457498 
L 361.444287 229.457498 
z
" style="fill:#4c72b0;opacity:0.5;stroke:#ffffff;stroke-linejoin:miter;"/>
   </g>
   <g id="patch_97">
    <path clip-path="url(#p327c391435)" d="M 364.518667 230.64 
L 367.593048 230.64 
L 367.593048 229.937889 
L 364.518667 229.937889 
z
" style="fill:#4c72b0;opacity:0.5;stroke:#ffffff;stroke-linejoin:miter;"/>
   </g>
   <g id="patch_98">
    <path clip-path="url(#p327c391435)" d="M 367.593048 230.64 
L 370.667428 230.64 
L 370.667428 229.60531 
L 367.593048 229.60531 
z
" style="fill:#4c72b0;opacity:0.5;stroke:#ffffff;stroke-linejoin:miter;"/>
   </g>
   <g id="patch_99">
    <path clip-path="url(#p327c391435)" d="M 370.667428 230.64 
L 373.741808 230.64 
L 373.741808 229.568357 
L 370.667428 229.568357 
z
" style="fill:#4c72b0;opacity:0.5;stroke:#ffffff;stroke-linejoin:miter;"/>
   </g>
   <g id="patch_100">
    <path clip-path="url(#p327c391435)" d="M 373.741808 230.64 
L 376.816188 230.64 
L 376.816188 230.159608 
L 373.741808 230.159608 
z
" style="fill:#4c72b0;opacity:0.5;stroke:#ffffff;stroke-linejoin:miter;"/>
   </g>
   <g id="patch_101">
    <path clip-path="url(#p327c391435)" d="M 376.816188 230.64 
L 379.890568 230.64 
L 379.890568 229.974842 
L 376.816188 229.974842 
z
" style="fill:#4c72b0;opacity:0.5;stroke:#ffffff;stroke-linejoin:miter;"/>
   </g>
   <g id="patch_102">
    <path clip-path="url(#p327c391435)" d="M 75.526932 230.64 
L 78.601312 230.64 
L 78.601312 230.307421 
L 75.526932 230.307421 
z
" style="fill:#dd8452;opacity:0.5;stroke:#ffffff;stroke-linejoin:miter;"/>
   </g>
   <g id="patch_103">
    <path clip-path="url(#p327c391435)" d="M 78.601312 230.64 
L 81.675692 230.64 
L 81.675692 230.418281 
L 78.601312 230.418281 
z
" style="fill:#dd8452;opacity:0.5;stroke:#ffffff;stroke-linejoin:miter;"/>
   </g>
   <g id="patch_104">
    <path clip-path="url(#p327c391435)" d="M 81.675692 230.64 
L 84.750072 230.64 
L 84.750072 230.233515 
L 81.675692 230.233515 
z
" style="fill:#dd8452;opacity:0.5;stroke:#ffffff;stroke-linejoin:miter;"/>
   </g>
   <g id="patch_105">
    <path clip-path="url(#p327c391435)" d="M 84.750072 230.64 
L 87.824452 230.64 
L 87.824452 230.196562 
L 84.750072 230.196562 
z
" style="fill:#dd8452;opacity:0.5;stroke:#ffffff;stroke-linejoin:miter;"/>
   </g>
   <g id="patch_106">
    <path clip-path="url(#p327c391435)" d="M 87.824452 230.64 
L 90.898833 230.64 
L 90.898833 230.122655 
L 87.824452 230.122655 
z
" style="fill:#dd8452;opacity:0.5;stroke:#ffffff;stroke-linejoin:miter;"/>
   </g>
   <g id="patch_107">
    <path clip-path="url(#p327c391435)" d="M 90.898833 230.64 
L 93.973213 230.64 
L 93.973213 230.159608 
L 90.898833 230.159608 
z
" style="fill:#dd8452;opacity:0.5;stroke:#ffffff;stroke-linejoin:miter;"/>
   </g>
   <g id="patch_108">
    <path clip-path="url(#p327c391435)" d="M 93.973213 230.64 
L 97.047593 230.64 
L 97.047593 230.159608 
L 93.973213 230.159608 
z
" style="fill:#dd8452;opacity:0.5;stroke:#ffffff;stroke-linejoin:miter;"/>
   </g>
   <g id="patch_109">
    <path clip-path="url(#p327c391435)" d="M 97.047593 230.64 
L 100.121973 230.64 
L 100.121973 229.900936 
L 97.047593 229.900936 
z
" style="fill:#dd8452;opacity:0.5;stroke:#ffffff;stroke-linejoin:miter;"/>
   </g>
   <g id="patch_110">
    <path clip-path="url(#p327c391435)" d="M 100.121973 230.64 
L 103.196353 230.64 
L 103.196353 230.122655 
L 100.121973 230.122655 
z
" style="fill:#dd8452;opacity:0.5;stroke:#ffffff;stroke-linejoin:miter;"/>
   </g>
   <g id="patch_111">
    <path clip-path="url(#p327c391435)" d="M 103.196353 230.64 
L 106.270733 230.64 
L 106.270733 229.900936 
L 103.196353 229.900936 
z
" style="fill:#dd8452;opacity:0.5;stroke:#ffffff;stroke-linejoin:miter;"/>
   </g>
   <g id="patch_112">
    <path clip-path="url(#p327c391435)" d="M 106.270733 230.64 
L 109.345114 230.64 
L 109.345114 229.900936 
L 106.270733 229.900936 
z
" style="fill:#dd8452;opacity:0.5;stroke:#ffffff;stroke-linejoin:miter;"/>
   </g>
   <g id="patch_113">
    <path clip-path="url(#p327c391435)" d="M 109.345114 230.64 
L 112.419494 230.64 
L 112.419494 230.085702 
L 109.345114 230.085702 
z
" style="fill:#dd8452;opacity:0.5;stroke:#ffffff;stroke-linejoin:miter;"/>
   </g>
   <g id="patch_114">
    <path clip-path="url(#p327c391435)" d="M 112.419494 230.64 
L 115.493874 230.64 
L 115.493874 229.494451 
L 112.419494 229.494451 
z
" style="fill:#dd8452;opacity:0.5;stroke:#ffffff;stroke-linejoin:miter;"/>
   </g>
   <g id="patch_115">
    <path clip-path="url(#p327c391435)" d="M 115.493874 230.64 
L 118.568254 230.64 
L 118.568254 229.420545 
L 115.493874 229.420545 
z
" style="fill:#dd8452;opacity:0.5;stroke:#ffffff;stroke-linejoin:miter;"/>
   </g>
   <g id="patch_116">
    <path clip-path="url(#p327c391435)" d="M 118.568254 230.64 
L 121.642634 230.64 
L 121.642634 229.568357 
L 118.568254 229.568357 
z
" style="fill:#dd8452;opacity:0.5;stroke:#ffffff;stroke-linejoin:miter;"/>
   </g>
   <g id="patch_117">
    <path clip-path="url(#p327c391435)" d="M 121.642634 230.64 
L 124.717014 230.64 
L 124.717014 229.71617 
L 121.642634 229.71617 
z
" style="fill:#dd8452;opacity:0.5;stroke:#ffffff;stroke-linejoin:miter;"/>
   </g>
   <g id="patch_118">
    <path clip-path="url(#p327c391435)" d="M 124.717014 230.64 
L 127.791395 230.64 
L 127.791395 229.235779 
L 124.717014 229.235779 
z
" style="fill:#dd8452;opacity:0.5;stroke:#ffffff;stroke-linejoin:miter;"/>
   </g>
   <g id="patch_119">
    <path clip-path="url(#p327c391435)" d="M 127.791395 230.64 
L 130.865775 230.64 
L 130.865775 229.124919 
L 127.791395 229.124919 
z
" style="fill:#dd8452;opacity:0.5;stroke:#ffffff;stroke-linejoin:miter;"/>
   </g>
   <g id="patch_120">
    <path clip-path="url(#p327c391435)" d="M 130.865775 230.64 
L 133.940155 230.64 
L 133.940155 229.383591 
L 130.865775 229.383591 
z
" style="fill:#dd8452;opacity:0.5;stroke:#ffffff;stroke-linejoin:miter;"/>
   </g>
   <g id="patch_121">
    <path clip-path="url(#p327c391435)" d="M 133.940155 230.64 
L 137.014535 230.64 
L 137.014535 229.60531 
L 133.940155 229.60531 
z
" style="fill:#dd8452;opacity:0.5;stroke:#ffffff;stroke-linejoin:miter;"/>
   </g>
   <g id="patch_122">
    <path clip-path="url(#p327c391435)" d="M 137.014535 230.64 
L 140.088915 230.64 
L 140.088915 228.127183 
L 137.014535 228.127183 
z
" style="fill:#dd8452;opacity:0.5;stroke:#ffffff;stroke-linejoin:miter;"/>
   </g>
   <g id="patch_123">
    <path clip-path="url(#p327c391435)" d="M 140.088915 230.64 
L 143.163295 230.64 
L 143.163295 228.755387 
L 140.088915 228.755387 
z
" style="fill:#dd8452;opacity:0.5;stroke:#ffffff;stroke-linejoin:miter;"/>
   </g>
   <g id="patch_124">
    <path clip-path="url(#p327c391435)" d="M 143.163295 230.64 
L 146.237676 230.64 
L 146.237676 227.757651 
L 143.163295 227.757651 
z
" style="fill:#dd8452;opacity:0.5;stroke:#ffffff;stroke-linejoin:miter;"/>
   </g>
   <g id="patch_125">
    <path clip-path="url(#p327c391435)" d="M 146.237676 230.64 
L 149.312056 230.64 
L 149.312056 227.351165 
L 146.237676 227.351165 
z
" style="fill:#dd8452;opacity:0.5;stroke:#ffffff;stroke-linejoin:miter;"/>
   </g>
   <g id="patch_126">
    <path clip-path="url(#p327c391435)" d="M 149.312056 230.64 
L 152.386436 230.64 
L 152.386436 226.24257 
L 149.312056 226.24257 
z
" style="fill:#dd8452;opacity:0.5;stroke:#ffffff;stroke-linejoin:miter;"/>
   </g>
   <g id="patch_127">
    <path clip-path="url(#p327c391435)" d="M 152.386436 230.64 
L 155.460816 230.64 
L 155.460816 225.836084 
L 152.386436 225.836084 
z
" style="fill:#dd8452;opacity:0.5;stroke:#ffffff;stroke-linejoin:miter;"/>
   </g>
   <g id="patch_128">
    <path clip-path="url(#p327c391435)" d="M 155.460816 230.64 
L 158.535196 230.64 
L 158.535196 225.503506 
L 155.460816 225.503506 
z
" style="fill:#dd8452;opacity:0.5;stroke:#ffffff;stroke-linejoin:miter;"/>
   </g>
   <g id="patch_129">
    <path clip-path="url(#p327c391435)" d="M 158.535196 230.64 
L 161.609576 230.64 
L 161.609576 223.249361 
L 158.535196 223.249361 
z
" style="fill:#dd8452;opacity:0.5;stroke:#ffffff;stroke-linejoin:miter;"/>
   </g>
   <g id="patch_130">
    <path clip-path="url(#p327c391435)" d="M 161.609576 230.64 
L 164.683957 230.64 
L 164.683957 222.732016 
L 161.609576 222.732016 
z
" style="fill:#dd8452;opacity:0.5;stroke:#ffffff;stroke-linejoin:miter;"/>
   </g>
   <g id="patch_131">
    <path clip-path="url(#p327c391435)" d="M 164.683957 230.64 
L 167.758337 230.64 
L 167.758337 220.071386 
L 164.683957 220.071386 
z
" style="fill:#dd8452;opacity:0.5;stroke:#ffffff;stroke-linejoin:miter;"/>
   </g>
   <g id="patch_132">
    <path clip-path="url(#p327c391435)" d="M 167.758337 230.64 
L 170.832717 230.64 
L 170.832717 218.14982 
L 167.758337 218.14982 
z
" style="fill:#dd8452;opacity:0.5;stroke:#ffffff;stroke-linejoin:miter;"/>
   </g>
   <g id="patch_133">
    <path clip-path="url(#p327c391435)" d="M 170.832717 230.64 
L 173.907097 230.64 
L 173.907097 215.673955 
L 170.832717 215.673955 
z
" style="fill:#dd8452;opacity:0.5;stroke:#ffffff;stroke-linejoin:miter;"/>
   </g>
   <g id="patch_134">
    <path clip-path="url(#p327c391435)" d="M 173.907097 230.64 
L 176.981477 230.64 
L 176.981477 213.271998 
L 173.907097 213.271998 
z
" style="fill:#dd8452;opacity:0.5;stroke:#ffffff;stroke-linejoin:miter;"/>
   </g>
   <g id="patch_135">
    <path clip-path="url(#p327c391435)" d="M 176.981477 230.64 
L 180.055857 230.64 
L 180.055857 210.130976 
L 176.981477 210.130976 
z
" style="fill:#dd8452;opacity:0.5;stroke:#ffffff;stroke-linejoin:miter;"/>
   </g>
   <g id="patch_136">
    <path clip-path="url(#p327c391435)" d="M 180.055857 230.64 
L 183.130238 230.64 
L 183.130238 203.922839 
L 180.055857 203.922839 
z
" style="fill:#dd8452;opacity:0.5;stroke:#ffffff;stroke-linejoin:miter;"/>
   </g>
   <g id="patch_137">
    <path clip-path="url(#p327c391435)" d="M 183.130238 230.64 
L 186.204618 230.64 
L 186.204618 197.456029 
L 183.130238 197.456029 
z
" style="fill:#dd8452;opacity:0.5;stroke:#ffffff;stroke-linejoin:miter;"/>
   </g>
   <g id="patch_138">
    <path clip-path="url(#p327c391435)" d="M 186.204618 230.64 
L 189.278998 230.64 
L 189.278998 191.728284 
L 186.204618 191.728284 
z
" style="fill:#dd8452;opacity:0.5;stroke:#ffffff;stroke-linejoin:miter;"/>
   </g>
   <g id="patch_139">
    <path clip-path="url(#p327c391435)" d="M 189.278998 230.64 
L 192.353378 230.64 
L 192.353378 181.085763 
L 189.278998 181.085763 
z
" style="fill:#dd8452;opacity:0.5;stroke:#ffffff;stroke-linejoin:miter;"/>
   </g>
   <g id="patch_140">
    <path clip-path="url(#p327c391435)" d="M 192.353378 230.64 
L 195.427758 230.64 
L 195.427758 170.406289 
L 192.353378 170.406289 
z
" style="fill:#dd8452;opacity:0.5;stroke:#ffffff;stroke-linejoin:miter;"/>
   </g>
   <g id="patch_141">
    <path clip-path="url(#p327c391435)" d="M 195.427758 230.64 
L 198.502138 230.64 
L 198.502138 159.394237 
L 195.427758 159.394237 
z
" style="fill:#dd8452;opacity:0.5;stroke:#ffffff;stroke-linejoin:miter;"/>
   </g>
   <g id="patch_142">
    <path clip-path="url(#p327c391435)" d="M 198.502138 230.64 
L 201.576519 230.64 
L 201.576519 141.952328 
L 198.502138 141.952328 
z
" style="fill:#dd8452;opacity:0.5;stroke:#ffffff;stroke-linejoin:miter;"/>
   </g>
   <g id="patch_143">
    <path clip-path="url(#p327c391435)" d="M 201.576519 230.64 
L 204.650899 230.64 
L 204.650899 128.020973 
L 201.576519 128.020973 
z
" style="fill:#dd8452;opacity:0.5;stroke:#ffffff;stroke-linejoin:miter;"/>
   </g>
   <g id="patch_144">
    <path clip-path="url(#p327c391435)" d="M 204.650899 230.64 
L 207.725279 230.64 
L 207.725279 110.024766 
L 204.650899 110.024766 
z
" style="fill:#dd8452;opacity:0.5;stroke:#ffffff;stroke-linejoin:miter;"/>
   </g>
   <g id="patch_145">
    <path clip-path="url(#p327c391435)" d="M 207.725279 230.64 
L 210.799659 230.64 
L 210.799659 87.631129 
L 207.725279 87.631129 
z
" style="fill:#dd8452;opacity:0.5;stroke:#ffffff;stroke-linejoin:miter;"/>
   </g>
   <g id="patch_146">
    <path clip-path="url(#p327c391435)" d="M 210.799659 230.64 
L 213.874039 230.64 
L 213.874039 72.073833 
L 210.799659 72.073833 
z
" style="fill:#dd8452;opacity:0.5;stroke:#ffffff;stroke-linejoin:miter;"/>
   </g>
   <g id="patch_147">
    <path clip-path="url(#p327c391435)" d="M 213.874039 230.64 
L 216.948419 230.64 
L 216.948419 53.07989 
L 213.874039 53.07989 
z
" style="fill:#dd8452;opacity:0.5;stroke:#ffffff;stroke-linejoin:miter;"/>
   </g>
   <g id="patch_148">
    <path clip-path="url(#p327c391435)" d="M 216.948419 230.64 
L 220.0228 230.64 
L 220.0228 36.192279 
L 216.948419 36.192279 
z
" style="fill:#dd8452;opacity:0.5;stroke:#ffffff;stroke-linejoin:miter;"/>
   </g>
   <g id="patch_149">
    <path clip-path="url(#p327c391435)" d="M 220.0228 230.64 
L 223.09718 230.64 
L 223.09718 26.658354 
L 220.0228 26.658354 
z
" style="fill:#dd8452;opacity:0.5;stroke:#ffffff;stroke-linejoin:miter;"/>
   </g>
   <g id="patch_150">
    <path clip-path="url(#p327c391435)" d="M 223.09718 230.64 
L 226.17156 230.64 
L 226.17156 23.554286 
L 223.09718 23.554286 
z
" style="fill:#dd8452;opacity:0.5;stroke:#ffffff;stroke-linejoin:miter;"/>
   </g>
   <g id="patch_151">
    <path clip-path="url(#p327c391435)" d="M 226.17156 230.64 
L 229.24594 230.64 
L 229.24594 24.441162 
L 226.17156 24.441162 
z
" style="fill:#dd8452;opacity:0.5;stroke:#ffffff;stroke-linejoin:miter;"/>
   </g>
   <g id="patch_152">
    <path clip-path="url(#p327c391435)" d="M 229.24594 230.64 
L 232.32032 230.64 
L 232.32032 27.840857 
L 229.24594 27.840857 
z
" style="fill:#dd8452;opacity:0.5;stroke:#ffffff;stroke-linejoin:miter;"/>
   </g>
   <g id="patch_153">
    <path clip-path="url(#p327c391435)" d="M 232.32032 230.64 
L 235.3947 230.64 
L 235.3947 41.735258 
L 232.32032 41.735258 
z
" style="fill:#dd8452;opacity:0.5;stroke:#ffffff;stroke-linejoin:miter;"/>
   </g>
   <g id="patch_154">
    <path clip-path="url(#p327c391435)" d="M 235.3947 230.64 
L 238.469081 230.64 
L 238.469081 52.229966 
L 235.3947 52.229966 
z
" style="fill:#dd8452;opacity:0.5;stroke:#ffffff;stroke-linejoin:miter;"/>
   </g>
   <g id="patch_155">
    <path clip-path="url(#p327c391435)" d="M 238.469081 230.64 
L 241.543461 230.64 
L 241.543461 67.269917 
L 238.469081 67.269917 
z
" style="fill:#dd8452;opacity:0.5;stroke:#ffffff;stroke-linejoin:miter;"/>
   </g>
   <g id="patch_156">
    <path clip-path="url(#p327c391435)" d="M 241.543461 230.64 
L 244.617841 230.64 
L 244.617841 89.922227 
L 241.543461 89.922227 
z
" style="fill:#dd8452;opacity:0.5;stroke:#ffffff;stroke-linejoin:miter;"/>
   </g>
   <g id="patch_157">
    <path clip-path="url(#p327c391435)" d="M 244.617841 230.64 
L 247.692221 230.64 
L 247.692221 101.599437 
L 244.617841 101.599437 
z
" style="fill:#dd8452;opacity:0.5;stroke:#ffffff;stroke-linejoin:miter;"/>
   </g>
   <g id="patch_158">
    <path clip-path="url(#p327c391435)" d="M 247.692221 230.64 
L 250.766601 230.64 
L 250.766601 120.223848 
L 247.692221 120.223848 
z
" style="fill:#dd8452;opacity:0.5;stroke:#ffffff;stroke-linejoin:miter;"/>
   </g>
   <g id="patch_159">
    <path clip-path="url(#p327c391435)" d="M 250.766601 230.64 
L 253.840981 230.64 
L 253.840981 131.309807 
L 250.766601 131.309807 
z
" style="fill:#dd8452;opacity:0.5;stroke:#ffffff;stroke-linejoin:miter;"/>
   </g>
   <g id="patch_160">
    <path clip-path="url(#p327c391435)" d="M 253.840981 230.64 
L 256.915362 230.64 
L 256.915362 145.610694 
L 253.840981 145.610694 
z
" style="fill:#dd8452;opacity:0.5;stroke:#ffffff;stroke-linejoin:miter;"/>
   </g>
   <g id="patch_161">
    <path clip-path="url(#p327c391435)" d="M 256.915362 230.64 
L 259.989742 230.64 
L 259.989742 162.165727 
L 256.915362 162.165727 
z
" style="fill:#dd8452;opacity:0.5;stroke:#ffffff;stroke-linejoin:miter;"/>
   </g>
   <g id="patch_162">
    <path clip-path="url(#p327c391435)" d="M 259.989742 230.64 
L 263.064122 230.64 
L 263.064122 171.293166 
L 259.989742 171.293166 
z
" style="fill:#dd8452;opacity:0.5;stroke:#ffffff;stroke-linejoin:miter;"/>
   </g>
   <g id="patch_163">
    <path clip-path="url(#p327c391435)" d="M 263.064122 230.64 
L 266.138502 230.64 
L 266.138502 179.903261 
L 263.064122 179.903261 
z
" style="fill:#dd8452;opacity:0.5;stroke:#ffffff;stroke-linejoin:miter;"/>
   </g>
   <g id="patch_164">
    <path clip-path="url(#p327c391435)" d="M 266.138502 230.64 
L 269.212882 230.64 
L 269.212882 184.411551 
L 266.138502 184.411551 
z
" style="fill:#dd8452;opacity:0.5;stroke:#ffffff;stroke-linejoin:miter;"/>
   </g>
   <g id="patch_165">
    <path clip-path="url(#p327c391435)" d="M 269.212882 230.64 
L 272.287262 230.64 
L 272.287262 192.134769 
L 269.212882 192.134769 
z
" style="fill:#dd8452;opacity:0.5;stroke:#ffffff;stroke-linejoin:miter;"/>
   </g>
   <g id="patch_166">
    <path clip-path="url(#p327c391435)" d="M 272.287262 230.64 
L 275.361643 230.64 
L 275.361643 198.564625 
L 272.287262 198.564625 
z
" style="fill:#dd8452;opacity:0.5;stroke:#ffffff;stroke-linejoin:miter;"/>
   </g>
   <g id="patch_167">
    <path clip-path="url(#p327c391435)" d="M 275.361643 230.64 
L 278.436023 230.64 
L 278.436023 205.770499 
L 275.361643 205.770499 
z
" style="fill:#dd8452;opacity:0.5;stroke:#ffffff;stroke-linejoin:miter;"/>
   </g>
   <g id="patch_168">
    <path clip-path="url(#p327c391435)" d="M 278.436023 230.64 
L 281.510403 230.64 
L 281.510403 208.763708 
L 278.436023 208.763708 
z
" style="fill:#dd8452;opacity:0.5;stroke:#ffffff;stroke-linejoin:miter;"/>
   </g>
   <g id="patch_169">
    <path clip-path="url(#p327c391435)" d="M 281.510403 230.64 
L 284.584783 230.64 
L 284.584783 213.161138 
L 281.510403 213.161138 
z
" style="fill:#dd8452;opacity:0.5;stroke:#ffffff;stroke-linejoin:miter;"/>
   </g>
   <g id="patch_170">
    <path clip-path="url(#p327c391435)" d="M 284.584783 230.64 
L 287.659163 230.64 
L 287.659163 215.082704 
L 284.584783 215.082704 
z
" style="fill:#dd8452;opacity:0.5;stroke:#ffffff;stroke-linejoin:miter;"/>
   </g>
   <g id="patch_171">
    <path clip-path="url(#p327c391435)" d="M 287.659163 230.64 
L 290.733543 230.64 
L 290.733543 216.117394 
L 287.659163 216.117394 
z
" style="fill:#dd8452;opacity:0.5;stroke:#ffffff;stroke-linejoin:miter;"/>
   </g>
   <g id="patch_172">
    <path clip-path="url(#p327c391435)" d="M 290.733543 230.64 
L 293.807924 230.64 
L 293.807924 217.484662 
L 290.733543 217.484662 
z
" style="fill:#dd8452;opacity:0.5;stroke:#ffffff;stroke-linejoin:miter;"/>
   </g>
   <g id="patch_173">
    <path clip-path="url(#p327c391435)" d="M 293.807924 230.64 
L 296.882304 230.64 
L 296.882304 220.367011 
L 293.807924 220.367011 
z
" style="fill:#dd8452;opacity:0.5;stroke:#ffffff;stroke-linejoin:miter;"/>
   </g>
   <g id="patch_174">
    <path clip-path="url(#p327c391435)" d="M 296.882304 230.64 
L 299.956684 230.64 
L 299.956684 220.921309 
L 296.882304 220.921309 
z
" style="fill:#dd8452;opacity:0.5;stroke:#ffffff;stroke-linejoin:miter;"/>
   </g>
   <g id="patch_175">
    <path clip-path="url(#p327c391435)" d="M 299.956684 230.64 
L 303.031064 230.64 
L 303.031064 221.955999 
L 299.956684 221.955999 
z
" style="fill:#dd8452;opacity:0.5;stroke:#ffffff;stroke-linejoin:miter;"/>
   </g>
   <g id="patch_176">
    <path clip-path="url(#p327c391435)" d="M 303.031064 230.64 
L 306.105444 230.64 
L 306.105444 224.062331 
L 303.031064 224.062331 
z
" style="fill:#dd8452;opacity:0.5;stroke:#ffffff;stroke-linejoin:miter;"/>
   </g>
   <g id="patch_177">
    <path clip-path="url(#p327c391435)" d="M 306.105444 230.64 
L 309.179824 230.64 
L 309.179824 224.653582 
L 306.105444 224.653582 
z
" style="fill:#dd8452;opacity:0.5;stroke:#ffffff;stroke-linejoin:miter;"/>
   </g>
   <g id="patch_178">
    <path clip-path="url(#p327c391435)" d="M 309.179824 230.64 
L 312.254205 230.64 
L 312.254205 226.02085 
L 309.179824 226.02085 
z
" style="fill:#dd8452;opacity:0.5;stroke:#ffffff;stroke-linejoin:miter;"/>
   </g>
   <g id="patch_179">
    <path clip-path="url(#p327c391435)" d="M 312.254205 230.64 
L 315.328585 230.64 
L 315.328585 226.464289 
L 312.254205 226.464289 
z
" style="fill:#dd8452;opacity:0.5;stroke:#ffffff;stroke-linejoin:miter;"/>
   </g>
   <g id="patch_180">
    <path clip-path="url(#p327c391435)" d="M 315.328585 230.64 
L 318.402965 230.64 
L 318.402965 226.907727 
L 315.328585 226.907727 
z
" style="fill:#dd8452;opacity:0.5;stroke:#ffffff;stroke-linejoin:miter;"/>
   </g>
   <g id="patch_181">
    <path clip-path="url(#p327c391435)" d="M 318.402965 230.64 
L 321.477345 230.64 
L 321.477345 226.575148 
L 318.402965 226.575148 
z
" style="fill:#dd8452;opacity:0.5;stroke:#ffffff;stroke-linejoin:miter;"/>
   </g>
   <g id="patch_182">
    <path clip-path="url(#p327c391435)" d="M 321.477345 230.64 
L 324.551725 230.64 
L 324.551725 227.609838 
L 321.477345 227.609838 
z
" style="fill:#dd8452;opacity:0.5;stroke:#ffffff;stroke-linejoin:miter;"/>
   </g>
   <g id="patch_183">
    <path clip-path="url(#p327c391435)" d="M 324.551725 230.64 
L 327.626105 230.64 
L 327.626105 227.277259 
L 324.551725 227.277259 
z
" style="fill:#dd8452;opacity:0.5;stroke:#ffffff;stroke-linejoin:miter;"/>
   </g>
   <g id="patch_184">
    <path clip-path="url(#p327c391435)" d="M 327.626105 230.64 
L 330.700486 230.64 
L 330.700486 228.274995 
L 327.626105 228.274995 
z
" style="fill:#dd8452;opacity:0.5;stroke:#ffffff;stroke-linejoin:miter;"/>
   </g>
   <g id="patch_185">
    <path clip-path="url(#p327c391435)" d="M 330.700486 230.64 
L 333.774866 230.64 
L 333.774866 228.016323 
L 330.700486 228.016323 
z
" style="fill:#dd8452;opacity:0.5;stroke:#ffffff;stroke-linejoin:miter;"/>
   </g>
   <g id="patch_186">
    <path clip-path="url(#p327c391435)" d="M 333.774866 230.64 
L 336.849246 230.64 
L 336.849246 228.681481 
L 333.774866 228.681481 
z
" style="fill:#dd8452;opacity:0.5;stroke:#ffffff;stroke-linejoin:miter;"/>
   </g>
   <g id="patch_187">
    <path clip-path="url(#p327c391435)" d="M 336.849246 230.64 
L 339.923626 230.64 
L 339.923626 228.79234 
L 336.849246 228.79234 
z
" style="fill:#dd8452;opacity:0.5;stroke:#ffffff;stroke-linejoin:miter;"/>
   </g>
   <g id="patch_188">
    <path clip-path="url(#p327c391435)" d="M 339.923626 230.64 
L 342.998006 230.64 
L 342.998006 229.051013 
L 339.923626 229.051013 
z
" style="fill:#dd8452;opacity:0.5;stroke:#ffffff;stroke-linejoin:miter;"/>
   </g>
   <g id="patch_189">
    <path clip-path="url(#p327c391435)" d="M 342.998006 230.64 
L 346.072386 230.64 
L 346.072386 228.866247 
L 342.998006 228.866247 
z
" style="fill:#dd8452;opacity:0.5;stroke:#ffffff;stroke-linejoin:miter;"/>
   </g>
   <g id="patch_190">
    <path clip-path="url(#p327c391435)" d="M 346.072386 230.64 
L 349.146767 230.64 
L 349.146767 229.568357 
L 346.072386 229.568357 
z
" style="fill:#dd8452;opacity:0.5;stroke:#ffffff;stroke-linejoin:miter;"/>
   </g>
   <g id="patch_191">
    <path clip-path="url(#p327c391435)" d="M 349.146767 230.64 
L 352.221147 230.64 
L 352.221147 229.383591 
L 349.146767 229.383591 
z
" style="fill:#dd8452;opacity:0.5;stroke:#ffffff;stroke-linejoin:miter;"/>
   </g>
   <g id="patch_192">
    <path clip-path="url(#p327c391435)" d="M 352.221147 230.64 
L 355.295527 230.64 
L 355.295527 229.272732 
L 352.221147 229.272732 
z
" style="fill:#dd8452;opacity:0.5;stroke:#ffffff;stroke-linejoin:miter;"/>
   </g>
   <g id="patch_193">
    <path clip-path="url(#p327c391435)" d="M 355.295527 230.64 
L 358.369907 230.64 
L 358.369907 229.60531 
L 355.295527 229.60531 
z
" style="fill:#dd8452;opacity:0.5;stroke:#ffffff;stroke-linejoin:miter;"/>
   </g>
   <g id="patch_194">
    <path clip-path="url(#p327c391435)" d="M 358.369907 230.64 
L 361.444287 230.64 
L 361.444287 229.420545 
L 358.369907 229.420545 
z
" style="fill:#dd8452;opacity:0.5;stroke:#ffffff;stroke-linejoin:miter;"/>
   </g>
   <g id="patch_195">
    <path clip-path="url(#p327c391435)" d="M 361.444287 230.64 
L 364.518667 230.64 
L 364.518667 229.642264 
L 361.444287 229.642264 
z
" style="fill:#dd8452;opacity:0.5;stroke:#ffffff;stroke-linejoin:miter;"/>
   </g>
   <g id="patch_196">
    <path clip-path="url(#p327c391435)" d="M 364.518667 230.64 
L 367.593048 230.64 
L 367.593048 229.753123 
L 364.518667 229.753123 
z
" style="fill:#dd8452;opacity:0.5;stroke:#ffffff;stroke-linejoin:miter;"/>
   </g>
   <g id="patch_197">
    <path clip-path="url(#p327c391435)" d="M 367.593048 230.64 
L 370.667428 230.64 
L 370.667428 229.863983 
L 367.593048 229.863983 
z
" style="fill:#dd8452;opacity:0.5;stroke:#ffffff;stroke-linejoin:miter;"/>
   </g>
   <g id="patch_198">
    <path clip-path="url(#p327c391435)" d="M 370.667428 230.64 
L 373.741808 230.64 
L 373.741808 229.863983 
L 370.667428 229.863983 
z
" style="fill:#dd8452;opacity:0.5;stroke:#ffffff;stroke-linejoin:miter;"/>
   </g>
   <g id="patch_199">
    <path clip-path="url(#p327c391435)" d="M 373.741808 230.64 
L 376.816188 230.64 
L 376.816188 229.790076 
L 373.741808 229.790076 
z
" style="fill:#dd8452;opacity:0.5;stroke:#ffffff;stroke-linejoin:miter;"/>
   </g>
   <g id="patch_200">
    <path clip-path="url(#p327c391435)" d="M 376.816188 230.64 
L 379.890568 230.64 
L 379.890568 230.048749 
L 376.816188 230.048749 
z
" style="fill:#dd8452;opacity:0.5;stroke:#ffffff;stroke-linejoin:miter;"/>
   </g>
   <g id="patch_201">
    <path d="M 60.30875 230.64 
L 60.30875 13.2 
" style="fill:none;stroke:#ffffff;stroke-linecap:square;stroke-linejoin:miter;stroke-width:1.25;"/>
   </g>
   <g id="patch_202">
    <path d="M 395.10875 230.64 
L 395.10875 13.2 
" style="fill:none;stroke:#ffffff;stroke-linecap:square;stroke-linejoin:miter;stroke-width:1.25;"/>
   </g>
   <g id="patch_203">
    <path d="M 60.30875 230.64 
L 395.10875 230.64 
" style="fill:none;stroke:#ffffff;stroke-linecap:square;stroke-linejoin:miter;stroke-width:1.25;"/>
   </g>
   <g id="patch_204">
    <path d="M 60.30875 13.2 
L 395.10875 13.2 
" style="fill:none;stroke:#ffffff;stroke-linecap:square;stroke-linejoin:miter;stroke-width:1.25;"/>
   </g>
   <g id="legend_1">
    <g id="patch_205">
     <path d="M 244.439687 54.291875 
L 387.40875 54.291875 
Q 389.60875 54.291875 389.60875 52.091875 
L 389.60875 20.9 
Q 389.60875 18.7 387.40875 18.7 
L 244.439687 18.7 
Q 242.239687 18.7 242.239687 20.9 
L 242.239687 52.091875 
Q 242.239687 54.291875 244.439687 54.291875 
z
" style="fill:#eaeaf2;opacity:0.8;stroke:#cccccc;stroke-linejoin:miter;"/>
    </g>
    <g id="patch_206">
     <path d="M 246.639687 31.458281 
L 268.639687 31.458281 
L 268.639687 23.758281 
L 246.639687 23.758281 
z
" style="fill:#4c72b0;opacity:0.5;stroke:#ffffff;stroke-linejoin:miter;"/>
    </g>
    <g id="text_18">
     <!-- No Error Estimation -->
     <defs>
      <path d="M 9.8125 72.90625 
L 23.09375 72.90625 
L 55.421875 11.921875 
L 55.421875 72.90625 
L 64.984375 72.90625 
L 64.984375 0 
L 51.703125 0 
L 19.390625 60.984375 
L 19.390625 0 
L 9.8125 0 
z
" id="DejaVuSans-78"/>
      <path id="DejaVuSans-32"/>
      <path d="M 9.8125 72.90625 
L 55.90625 72.90625 
L 55.90625 64.59375 
L 19.671875 64.59375 
L 19.671875 43.015625 
L 54.390625 43.015625 
L 54.390625 34.71875 
L 19.671875 34.71875 
L 19.671875 8.296875 
L 56.78125 8.296875 
L 56.78125 0 
L 9.8125 0 
z
" id="DejaVuSans-69"/>
      <path d="M 41.109375 46.296875 
Q 39.59375 47.171875 37.8125 47.578125 
Q 36.03125 48 33.890625 48 
Q 26.265625 48 22.1875 43.046875 
Q 18.109375 38.09375 18.109375 28.8125 
L 18.109375 0 
L 9.078125 0 
L 9.078125 54.6875 
L 18.109375 54.6875 
L 18.109375 46.1875 
Q 20.953125 51.171875 25.484375 53.578125 
Q 30.03125 56 36.53125 56 
Q 37.453125 56 38.578125 55.875 
Q 39.703125 55.765625 41.0625 55.515625 
z
" id="DejaVuSans-114"/>
      <path d="M 52 44.1875 
Q 55.375 50.25 60.0625 53.125 
Q 64.75 56 71.09375 56 
Q 79.640625 56 84.28125 50.015625 
Q 88.921875 44.046875 88.921875 33.015625 
L 88.921875 0 
L 79.890625 0 
L 79.890625 32.71875 
Q 79.890625 40.578125 77.09375 44.375 
Q 74.3125 48.1875 68.609375 48.1875 
Q 61.625 48.1875 57.5625 43.546875 
Q 53.515625 38.921875 53.515625 30.90625 
L 53.515625 0 
L 44.484375 0 
L 44.484375 32.71875 
Q 44.484375 40.625 41.703125 44.40625 
Q 38.921875 48.1875 33.109375 48.1875 
Q 26.21875 48.1875 22.15625 43.53125 
Q 18.109375 38.875 18.109375 30.90625 
L 18.109375 0 
L 9.078125 0 
L 9.078125 54.6875 
L 18.109375 54.6875 
L 18.109375 46.1875 
Q 21.1875 51.21875 25.484375 53.609375 
Q 29.78125 56 35.6875 56 
Q 41.65625 56 45.828125 52.96875 
Q 50 49.953125 52 44.1875 
z
" id="DejaVuSans-109"/>
     </defs>
     <g style="fill:#262626;" transform="translate(277.439687 31.458281)scale(0.11 -0.11)">
      <use xlink:href="#DejaVuSans-78"/>
      <use x="74.804688" xlink:href="#DejaVuSans-111"/>
      <use x="135.986328" xlink:href="#DejaVuSans-32"/>
      <use x="167.773438" xlink:href="#DejaVuSans-69"/>
      <use x="230.957031" xlink:href="#DejaVuSans-114"/>
      <use x="272.054688" xlink:href="#DejaVuSans-114"/>
      <use x="313.136719" xlink:href="#DejaVuSans-111"/>
      <use x="374.318359" xlink:href="#DejaVuSans-114"/>
      <use x="415.431641" xlink:href="#DejaVuSans-32"/>
      <use x="447.21875" xlink:href="#DejaVuSans-69"/>
      <use x="510.402344" xlink:href="#DejaVuSans-115"/>
      <use x="562.501953" xlink:href="#DejaVuSans-116"/>
      <use x="601.710938" xlink:href="#DejaVuSans-105"/>
      <use x="629.494141" xlink:href="#DejaVuSans-109"/>
      <use x="726.90625" xlink:href="#DejaVuSans-97"/>
      <use x="788.185547" xlink:href="#DejaVuSans-116"/>
      <use x="827.394531" xlink:href="#DejaVuSans-105"/>
      <use x="855.177734" xlink:href="#DejaVuSans-111"/>
      <use x="916.359375" xlink:href="#DejaVuSans-110"/>
     </g>
    </g>
    <g id="patch_207">
     <path d="M 246.639687 47.604219 
L 268.639687 47.604219 
L 268.639687 39.904219 
L 246.639687 39.904219 
z
" style="fill:#dd8452;opacity:0.5;stroke:#ffffff;stroke-linejoin:miter;"/>
    </g>
    <g id="text_19">
     <!-- Density Network -->
     <defs>
      <path d="M 19.671875 64.796875 
L 19.671875 8.109375 
L 31.59375 8.109375 
Q 46.6875 8.109375 53.6875 14.9375 
Q 60.6875 21.78125 60.6875 36.53125 
Q 60.6875 51.171875 53.6875 57.984375 
Q 46.6875 64.796875 31.59375 64.796875 
z
M 9.8125 72.90625 
L 30.078125 72.90625 
Q 51.265625 72.90625 61.171875 64.09375 
Q 71.09375 55.28125 71.09375 36.53125 
Q 71.09375 17.671875 61.125 8.828125 
Q 51.171875 0 30.078125 0 
L 9.8125 0 
z
" id="DejaVuSans-68"/>
      <path d="M 32.171875 -5.078125 
Q 28.375 -14.84375 24.75 -17.8125 
Q 21.140625 -20.796875 15.09375 -20.796875 
L 7.90625 -20.796875 
L 7.90625 -13.28125 
L 13.1875 -13.28125 
Q 16.890625 -13.28125 18.9375 -11.515625 
Q 21 -9.765625 23.484375 -3.21875 
L 25.09375 0.875 
L 2.984375 54.6875 
L 12.5 54.6875 
L 29.59375 11.921875 
L 46.6875 54.6875 
L 56.203125 54.6875 
z
" id="DejaVuSans-121"/>
      <path d="M 4.203125 54.6875 
L 13.1875 54.6875 
L 24.421875 12.015625 
L 35.59375 54.6875 
L 46.1875 54.6875 
L 57.421875 12.015625 
L 68.609375 54.6875 
L 77.59375 54.6875 
L 63.28125 0 
L 52.6875 0 
L 40.921875 44.828125 
L 29.109375 0 
L 18.5 0 
z
" id="DejaVuSans-119"/>
      <path d="M 9.078125 75.984375 
L 18.109375 75.984375 
L 18.109375 31.109375 
L 44.921875 54.6875 
L 56.390625 54.6875 
L 27.390625 29.109375 
L 57.625 0 
L 45.90625 0 
L 18.109375 26.703125 
L 18.109375 0 
L 9.078125 0 
z
" id="DejaVuSans-107"/>
     </defs>
     <g style="fill:#262626;" transform="translate(277.439687 47.604219)scale(0.11 -0.11)">
      <use xlink:href="#DejaVuSans-68"/>
      <use x="77.001953" xlink:href="#DejaVuSans-101"/>
      <use x="138.525391" xlink:href="#DejaVuSans-110"/>
      <use x="201.904297" xlink:href="#DejaVuSans-115"/>
      <use x="254.003906" xlink:href="#DejaVuSans-105"/>
      <use x="281.787109" xlink:href="#DejaVuSans-116"/>
      <use x="320.996094" xlink:href="#DejaVuSans-121"/>
      <use x="380.175781" xlink:href="#DejaVuSans-32"/>
      <use x="411.962891" xlink:href="#DejaVuSans-78"/>
      <use x="486.767578" xlink:href="#DejaVuSans-101"/>
      <use x="548.291016" xlink:href="#DejaVuSans-116"/>
      <use x="587.5" xlink:href="#DejaVuSans-119"/>
      <use x="669.287109" xlink:href="#DejaVuSans-111"/>
      <use x="730.46875" xlink:href="#DejaVuSans-114"/>
      <use x="771.582031" xlink:href="#DejaVuSans-107"/>
     </g>
    </g>
   </g>
  </g>
 </g>
 <defs>
  <clipPath id="p327c391435">
   <rect height="217.44" width="334.8" x="60.30875" y="13.2"/>
  </clipPath>
 </defs>
</svg>
