<svg height="364.8" viewBox="0 0 406.7 273.6" width="542.3" xmlns="http://www.w3.org/2000/svg" xmlns:xlink="http://www.w3.org/1999/xlink"><defs><style>*{stroke-linecap:butt;stroke-linejoin:round}</style></defs><g id="figure_1"><path d="M0 273.6h406.7V0H0z" fill="#fff" id="patch_1"/><g id="axes_1"><path d="M58.7 230.6h334.8V13.2H58.7z" fill="#eaeaf2" id="patch_2"/><g id="matplotlib.axis_1"><g id="xtick_1"><path clip-path="url(#p75edb2830c)" d="M74 230.6V13.2" fill="none" stroke="#fff" stroke-linecap="round" id="line2d_1"/><g id="text_1"><defs><path d="M10.6 35.5h62.6v-8.3H10.6z" id="DejaVuSans-8722"/><path d="M33 40.4q-6.6 0-10.5-4.6-3.9-4.5-3.9-12.4T22.5 11Q26.4 6.4 33 6.4q6.7 0 10.5 4.6 4 4.5 4 12.4t-4 12.4q-3.8 4.6-10.5 4.6zm19.6 30.9v-9Q48.9 64.1 45 65q-3.8 1-7.5 1-9.8 0-15-6.7-5-6.6-5.8-19.9 2.9 4.3 7.2 6.5 4.4 2.3 9.6 2.3 11 0 17.4-6.7 6.3-6.6 6.3-18.1 0-11.2-6.6-18Q44-1.4 33-1.4q-12.6 0-19.3 9.7Q7 18 7 36.3 7 53.8 15.2 64q8.2 10.3 22 10.3 3.7 0 7.5-.7 3.8-.8 7.9-2.2z" id="DejaVuSans-54"/></defs><g transform="matrix(.11 0 0 -.11 65.8 248.5)" fill="#262626"><use xlink:href="#DejaVuSans-8722"/><use x="83.8" xlink:href="#DejaVuSans-54"/></g></g></g><g id="xtick_2"><path clip-path="url(#p75edb2830c)" d="M124.6 230.6V13.2" fill="none" stroke="#fff" stroke-linecap="round" id="line2d_2"/><g id="text_2"><defs><path d="M37.8 64.3l-25-39h25zM35.2 73h12.4V25.4H58v-8.2H47.6V0h-9.8v17.2h-33v9.5z" id="DejaVuSans-52"/></defs><g transform="matrix(.11 0 0 -.11 116.5 248.5)" fill="#262626"><use xlink:href="#DejaVuSans-8722"/><use x="83.8" xlink:href="#DejaVuSans-52"/></g></g></g><g id="xtick_3"><path clip-path="url(#p75edb2830c)" d="M175.4 230.6V13.2" fill="none" stroke="#fff" stroke-linecap="round" id="line2d_3"/><g id="text_3"><defs><path d="M19.2 8.3h34.4V0H7.3v8.3l15.3 15.6q9.7 9.8 12.2 12.6 4.7 5.3 6.6 9 2 3.7 2 7.3 0 5.8-4.2 9.5-4 3.6-10.6 3.6-4.6 0-9.8-1.6-5.1-1.6-11-4.9v10q6 2.4 11.1 3.6 5.2 1.2 9.5 1.2 11.4 0 18-5.7 6.8-5.6 6.8-15 0-4.6-1.7-8.6-1.6-4-6-9.5l-7.9-8.2L19.2 8.3z" id="DejaVuSans-50"/></defs><g transform="matrix(.11 0 0 -.11 167.3 248.5)" fill="#262626"><use xlink:href="#DejaVuSans-8722"/><use x="83.8" xlink:href="#DejaVuSans-50"/></g></g></g><g id="xtick_4"><path clip-path="url(#p75edb2830c)" d="M226 230.6V13.2" fill="none" stroke="#fff" stroke-linecap="round" id="line2d_4"/><g id="text_4"><defs><path d="M31.8 66.4q-7.6 0-11.5-7.5-3.8-7.5-3.8-22.5t3.8-22.5q3.9-7.5 11.5-7.5 7.7 0 11.5 7.5T47 36.4q0 15-3.8 22.5t-11.5 7.5zm0 7.8q12.2 0 18.7-9.7T57 36.4Q57 18 50.5 8.3 44-1.4 31.8-1.4 19.5-1.4 13 8.3q-6.5 9.7-6.5 28 0 18.5 6.5 28.2 6.4 9.7 18.7 9.7z" id="DejaVuSans-48"/></defs><use xlink:href="#DejaVuSans-48" transform="matrix(.11 0 0 -.11 222.6 248.5)" fill="#262626"/></g></g><g id="xtick_5"><path clip-path="url(#p75edb2830c)" d="M276.8 230.6V13.2" fill="none" stroke="#fff" stroke-linecap="round" id="line2d_5"/><use xlink:href="#DejaVuSans-50" transform="matrix(.11 0 0 -.11 273.3 248.5)" fill="#262626" id="text_5"/></g><g id="xtick_6"><path clip-path="url(#p75edb2830c)" d="M327.5 230.6V13.2" fill="none" stroke="#fff" stroke-linecap="round" id="line2d_6"/><use xlink:href="#DejaVuSans-52" transform="matrix(.11 0 0 -.11 324 248.5)" fill="#262626" id="text_6"/></g><g id="xtick_7"><path clip-path="url(#p75edb2830c)" d="M378.3 230.6V13.2" fill="none" stroke="#fff" stroke-linecap="round" id="line2d_7"/><use xlink:href="#DejaVuSans-54" transform="matrix(.11 0 0 -.11 374.8 248.5)" fill="#262626" id="text_7"/></g><g id="text_8"><defs><path d="M56.2 29.6v-4.4H14.9q.6-9.3 5.6-14.1 5-4.9 14-4.9 5 0 10 1.3 4.8 1.2 9.6 3.8V2.8q-4.8-2-10-3.1-5-1.1-10.2-1.1-13.1 0-20.7 7.6-7.7 7.6-7.7 20.6 0 13.4 7.3 21.3Q20 56 32.3 56q11 0 17.5-7.1 6.4-7.1 6.4-19.3zm-9 2.6q0 7.4-4.1 11.8-4 4.4-10.7 4.4-7.5 0-12-4.3-4.5-4.2-5.2-12z" id="DejaVuSans-101"/><path d="M9.8 73h13.3l32.3-61v61H65V0H51.7L19.4 61V0H9.8z" id="DejaVuSans-78"/><path d="M41.1 46.3q-1.5.9-3.3 1.3-1.8.4-4 .4-7.5 0-11.6-5-4-5-4-14.2V0H9v54.7h9v-8.5q2.9 5 7.4 7.4Q30 56 36.5 56l2-.1 2.6-.4z" id="DejaVuSans-114"/><path d="M52 44.2q3.4 6 8 9Q64.9 56 71 56q8.6 0 13.3-6 4.6-6 4.6-17V0h-9v32.7q0 7.9-2.8 11.7-2.8 3.8-8.5 3.8-7 0-11-4.7-4-4.6-4-12.6V0h-9.1v32.7q0 8-2.8 11.7-2.8 3.8-8.6 3.8-6.9 0-11-4.7-4-4.6-4-12.6V0h-9v54.7h9v-8.5q3 5 7.4 7.4Q29.8 56 35.7 56q6 0 10.1-3 4.2-3 6.2-8.8z" id="DejaVuSans-109"/><path d="M34.3 27.5q-11 0-15.1-2.5-4.2-2.5-4.2-8.5 0-4.8 3.1-7.6 3.2-2.8 8.6-2.8 7.5 0 12 5.3t4.5 14v2zm17.9 3.7V0h-9v8.3q-3-5-7.7-7.3Q31-1.4 24.3-1.4 16-1.4 11 3.3 6 8 6 15.9q0 9.2 6.2 14 6.2 4.6 18.4 4.6h12.6v1q0 6.1-4 9.5-4.1 3.4-11.5 3.4-4.7 0-9.2-1.1-4.4-1.2-8.5-3.4v8.3q5 2 9.6 2.8 4.6 1 9 1 11.9 0 17.7-6.2 5.9-6.1 5.9-18.6z" id="DejaVuSans-97"/><path d="M9.4 76h9V0h-9z" id="DejaVuSans-108"/><path d="M9.4 54.7h9V0h-9zm0 21.3h9V64.6h-9z" id="DejaVuSans-105"/><path d="M5.5 54.7h42.7v-8.2L14.4 7.2h33.8V0H4.3v8.2l33.8 39.3H5.5z" id="DejaVuSans-122"/><path d="M30.6 48.4q-7.2 0-11.4-5.6Q15 37 15 27.3t4.2-15.5q4.1-5.6 11.4-5.6 7.2 0 11.4 5.7 4.2 5.6 4.2 15.4 0 9.7-4.2 15.4-4.2 5.7-11.4 5.7zm0 7.6q11.7 0 18.4-7.6 6.7-7.6 6.7-21.1 0-13.4-6.7-21-6.7-7.7-18.4-7.7-11.8 0-18.4 7.6Q5.5 14 5.5 27.3q0 13.5 6.7 21Q18.8 56 30.6 56z" id="DejaVuSans-111"/><path d="M45.4 46.4V76h9V0h-9v8.2Q42.6 3.3 38.3 1q-4.4-2.4-10.4-2.4-10 0-16.2 7.9-6.2 8-6.2 20.8 0 12.9 6.2 20.8Q18 56 28 56q6 0 10.4-2.4 4.3-2.3 7.1-7.2zM14.8 27.3q0-10 4-15.6Q23 6.2 30.2 6.2q7.1 0 11.2 5.7 4.1 5.6 4.1 15.5t-4.1 15.5q-4.1 5.7-11.2 5.7t-11.2-5.7q-4.1-5.6-4.1-15.5z" id="DejaVuSans-100"/><path d="M-.3 73h61.7v-8.4H35.5V0h-10v64.6H-.2z" id="DejaVuSans-84"/><path d="M18.1 8.2v-29h-9v75.5h9v-8.3q2.9 4.9 7.2 7.2Q29.6 56 35.6 56q10 0 16.2-8Q58 40.3 58 27.4q0-12.9-6.2-20.8-6.2-8-16.2-8-6 0-10.3 2.5Q21 3.3 18 8.2zm30.6 19.1q0 9.9-4 15.5-4.2 5.7-11.3 5.7-7.1 0-11.2-5.7-4-5.6-4-15.5 0-10 4-15.6t11.2-5.6q7.1 0 11.2 5.7 4 5.6 4 15.5z" id="DejaVuSans-112"/><path d="M19.7 64.8V8.1h11.9q15 0 22 6.8 7 6.9 7 21.6 0 14.7-7 21.5-7 6.8-22 6.8zm-9.9 8.1h20.3q21.2 0 31-8.8 10-8.8 10-27.6T61 8.8Q51.1 0 30.1 0H9.8z" id="DejaVuSans-68"/><path d="M8.5 21.6v33h9V22q0-7.7 3-11.6 3-4 9-4 7.4 0 11.6 4.7 4.2 4.7 4.2 12.7v31h9V0h-9v8.4Q42 3.4 37.7 1q-4.3-2.4-10-2.4-9.4 0-14.3 5.8-4.9 5.9-4.9 17.2zM31.1 56z" id="DejaVuSans-117"/><path d="M18.3 70.2V54.7h18.5v-7H18.3V18q0-6.7 1.8-8.6 1.9-1.9 7.5-1.9h9.2V0h-9.2Q17.2 0 13.2 3.9T9.2 18v29.7H2.8v7h6.6v15.5z" id="DejaVuSans-116"/><path d="M54.9 33V0h-9v32.7q0 7.8-3 11.6-3 3.9-9.1 3.9-7.3 0-11.5-4.7Q18.1 39 18.1 31V0h-9v54.7h9v-8.5q3.2 5 7.6 7.4Q30.1 56 35.8 56q9.4 0 14.2-5.8Q55 44.3 55 33z" id="DejaVuSans-110"/></defs><g transform="matrix(.12 0 0 -.12 150.5 263.9)" fill="#262626"><use xlink:href="#DejaVuSans-78"/><use x="74.8" xlink:href="#DejaVuSans-111"/><use x="136" xlink:href="#DejaVuSans-114"/><use x="177.1" xlink:href="#DejaVuSans-109"/><use x="274.5" xlink:href="#DejaVuSans-97"/><use x="335.8" xlink:href="#DejaVuSans-108"/><use x="363.6" xlink:href="#DejaVuSans-105"/><use x="391.3" xlink:href="#DejaVuSans-122"/><use x="443.8" xlink:href="#DejaVuSans-101"/><use x="505.4" xlink:href="#DejaVuSans-100"/><use x="568.8" xlink:href="#DejaVuSans-32"/><use x="600.6" xlink:href="#DejaVuSans-84"/><use x="661.5" xlink:href="#DejaVuSans-114"/><use x="702.6" xlink:href="#DejaVuSans-105"/><use x="730.4" xlink:href="#DejaVuSans-112"/><use x="793.9" xlink:href="#DejaVuSans-32"/><use x="825.6" xlink:href="#DejaVuSans-68"/><use x="902.6" xlink:href="#DejaVuSans-117"/><use x="966" xlink:href="#DejaVuSans-114"/><use x="1007.1" xlink:href="#DejaVuSans-97"/><use x="1068.4" xlink:href="#DejaVuSans-116"/><use x="1107.6" xlink:href="#DejaVuSans-105"/><use x="1135.4" xlink:href="#DejaVuSans-111"/><use x="1196.6" xlink:href="#DejaVuSans-110"/></g></g></g><g id="matplotlib.axis_2"><g id="ytick_1"><path clip-path="url(#p75edb2830c)" d="M58.7 230.6h334.8" fill="none" stroke="#fff" stroke-linecap="round" id="line2d_8"/><use xlink:href="#DejaVuSans-48" transform="matrix(.11 0 0 -.11 42.2 234.8)" fill="#262626" id="text_9"/></g><g id="ytick_2"><path clip-path="url(#p75edb2830c)" d="M58.7 199.7h334.8" fill="none" stroke="#fff" stroke-linecap="round" id="line2d_9"/><g transform="matrix(.11 0 0 -.11 14.2 203.9)" fill="#262626" id="text_10"><use xlink:href="#DejaVuSans-50"/><use x="63.6" xlink:href="#DejaVuSans-48"/><use x="127.2" xlink:href="#DejaVuSans-48"/><use x="190.9" xlink:href="#DejaVuSans-48"/><use x="254.5" xlink:href="#DejaVuSans-48"/></g></g><g id="ytick_3"><path clip-path="url(#p75edb2830c)" d="M58.7 168.7h334.8" fill="none" stroke="#fff" stroke-linecap="round" id="line2d_10"/><g transform="matrix(.11 0 0 -.11 14.2 173)" fill="#262626" id="text_11"><use xlink:href="#DejaVuSans-52"/><use x="63.6" xlink:href="#DejaVuSans-48"/><use x="127.2" xlink:href="#DejaVuSans-48"/><use x="190.9" xlink:href="#DejaVuSans-48"/><use x="254.5" xlink:href="#DejaVuSans-48"/></g></g><g id="ytick_4"><path clip-path="url(#p75edb2830c)" d="M58.7 137.8h334.8" fill="none" stroke="#fff" stroke-linecap="round" id="line2d_11"/><g transform="matrix(.11 0 0 -.11 14.2 142)" fill="#262626" id="text_12"><use xlink:href="#DejaVuSans-54"/><use x="63.6" xlink:href="#DejaVuSans-48"/><use x="127.2" xlink:href="#DejaVuSans-48"/><use x="190.9" xlink:href="#DejaVuSans-48"/><use x="254.5" xlink:href="#DejaVuSans-48"/></g></g><g id="ytick_5"><path clip-path="url(#p75edb2830c)" d="M58.7 106.8h334.8" fill="none" stroke="#fff" stroke-linecap="round" id="line2d_12"/><g id="text_13"><defs><path d="M31.8 34.6q-7 0-11-3.7-4.1-3.8-4.1-10.4 0-6.6 4-10.3 4-3.8 11-3.8 7.1 0 11.2 3.8 4 3.8 4 10.3 0 6.6-4 10.4-4 3.7-11.1 3.7zm-9.9 4.2q-6.3 1.6-9.9 6Q8.5 49 8.5 55.2q0 8.8 6.2 13.8 6.3 5.1 17 5.1 11 0 17.2-5Q55 64 55 55.2q0-6.2-3.6-10.6-3.5-4.3-9.8-5.9 7.1-1.6 11.1-6.5 4-4.8 4-11.8 0-10.6-6.5-16.3-6.5-5.6-18.5-5.6T13.2 4.2Q6.8 10 6.8 20.5q0 7 4 11.8 4 4.9 11.1 6.5zm-3.6 15.6q0-5.7 3.5-8.8 3.6-3.2 10-3.2 6.3 0 10 3.2 3.5 3.1 3.5 8.8 0 5.7-3.6 8.8-3.6 3.2-10 3.2-6.3 0-9.9-3.2-3.5-3.1-3.5-8.8z" id="DejaVuSans-56"/></defs><g transform="matrix(.11 0 0 -.11 14.2 111)" fill="#262626"><use xlink:href="#DejaVuSans-56"/><use x="63.6" xlink:href="#DejaVuSans-48"/><use x="127.2" xlink:href="#DejaVuSans-48"/><use x="190.9" xlink:href="#DejaVuSans-48"/><use x="254.5" xlink:href="#DejaVuSans-48"/></g></g></g><g id="ytick_6"><path clip-path="url(#p75edb2830c)" d="M58.7 75.9h334.8" fill="none" stroke="#fff" stroke-linecap="round" id="line2d_13"/><g id="text_14"><defs><path d="M12.4 8.3h16.1v55.6L11 60.4v9l17.4 3.5h9.9V8.3h16V0H12.5z" id="DejaVuSans-49"/></defs><g transform="matrix(.11 0 0 -.11 7.2 80)" fill="#262626"><use xlink:href="#DejaVuSans-49"/><use x="63.6" xlink:href="#DejaVuSans-48"/><use x="127.2" xlink:href="#DejaVuSans-48"/><use x="190.9" xlink:href="#DejaVuSans-48"/><use x="254.5" xlink:href="#DejaVuSans-48"/><use x="318.1" xlink:href="#DejaVuSans-48"/></g></g></g><g id="ytick_7"><path clip-path="url(#p75edb2830c)" d="M58.7 45h334.8" fill="none" stroke="#fff" stroke-linecap="round" id="line2d_14"/><g transform="matrix(.11 0 0 -.11 7.2 49.1)" fill="#262626" id="text_15"><use xlink:href="#DejaVuSans-49"/><use x="63.6" xlink:href="#DejaVuSans-50"/><use x="127.2" xlink:href="#DejaVuSans-48"/><use x="190.9" xlink:href="#DejaVuSans-48"/><use x="254.5" xlink:href="#DejaVuSans-48"/><use x="318.1" xlink:href="#DejaVuSans-48"/></g></g><g id="ytick_8"><path clip-path="url(#p75edb2830c)" d="M58.7 14h334.8" fill="none" stroke="#fff" stroke-linecap="round" id="line2d_15"/><g transform="matrix(.11 0 0 -.11 7.2 18.2)" fill="#262626" id="text_16"><use xlink:href="#DejaVuSans-49"/><use x="63.6" xlink:href="#DejaVuSans-52"/><use x="127.2" xlink:href="#DejaVuSans-48"/><use x="190.9" xlink:href="#DejaVuSans-48"/><use x="254.5" xlink:href="#DejaVuSans-48"/><use x="318.1" xlink:href="#DejaVuSans-48"/></g></g></g><path clip-path="url(#p75edb2830c)" d="M74 230.6H89v-.5H74z" fill="#4c72b0" stroke="#fff" id="patch_3"/><path clip-path="url(#p75edb2830c)" d="M89.1 230.6h15.2v-.6H89.1z" fill="#4c72b0" stroke="#fff" id="patch_4"/><path clip-path="url(#p75edb2830c)" d="M104.3 230.6h15.3v-.9h-15.3z" fill="#4c72b0" stroke="#fff" id="patch_5"/><path clip-path="url(#p75edb2830c)" d="M119.6 230.6h15.2v-1.3h-15.2z" fill="#4c72b0" stroke="#fff" id="patch_6"/><path clip-path="url(#p75edb2830c)" d="M134.8 230.6H150v-2.2h-15.2z" fill="#4c72b0" stroke="#fff" id="patch_7"/><path clip-path="url(#p75edb2830c)" d="M150 230.6h15.2v-5.9H150z" fill="#4c72b0" stroke="#fff" id="patch_8"/><path clip-path="url(#p75edb2830c)" d="M165.2 230.6h15.2v-20h-15.2z" fill="#4c72b0" stroke="#fff" id="patch_9"/><path clip-path="url(#p75edb2830c)" d="M180.4 230.6h15.3v-50.8h-15.3z" fill="#4c72b0" stroke="#fff" id="patch_10"/><path clip-path="url(#p75edb2830c)" d="M195.7 230.6h15.2V119.4h-15.2z" fill="#4c72b0" stroke="#fff" id="patch_11"/><path clip-path="url(#p75edb2830c)" d="M210.9 230.6H226V39.5h-15.2z" fill="#4c72b0" stroke="#fff" id="patch_12"/><path clip-path="url(#p75edb2830c)" d="M226 230.6h15.3v-207h-15.2z" fill="#4c72b0" stroke="#fff" id="patch_13"/><path clip-path="url(#p75edb2830c)" d="M241.3 230.6h15.2V110.8h-15.2z" fill="#4c72b0" stroke="#fff" id="patch_14"/><path clip-path="url(#p75edb2830c)" d="M256.5 230.6h15.2v-77.8h-15.2z" fill="#4c72b0" stroke="#fff" id="patch_15"/><path clip-path="url(#p75edb2830c)" d="M271.7 230.6H287v-14h-15.3z" fill="#4c72b0" stroke="#fff" id="patch_16"/><path clip-path="url(#p75edb2830c)" d="M287 230.6h15.2v-.8H287z" fill="#4c72b0" stroke="#fff" id="patch_17"/><path clip-path="url(#p75edb2830c)" d="M302.2 230.6h15.2-15.2z" fill="#4c72b0" stroke="#fff" id="patch_18"/><path clip-path="url(#p75edb2830c)" d="M317.4 230.6h15.2-15.2z" fill="#4c72b0" stroke="#fff" id="patch_19"/><path clip-path="url(#p75edb2830c)" d="M332.6 230.6h15.2-15.2z" fill="#4c72b0" stroke="#fff" id="patch_20"/><path clip-path="url(#p75edb2830c)" d="M347.8 230.6h15.3-15.3z" fill="#4c72b0" stroke="#fff" id="patch_21"/><path clip-path="url(#p75edb2830c)" d="M363 230.6h15.3H363z" fill="#4c72b0" stroke="#fff" id="patch_22"/><path d="M58.7 230.6V13.2" fill="none" stroke="#fff" stroke-linecap="square" stroke-width="1.3" id="patch_23"/><path d="M393.5 230.6V13.2" fill="none" stroke="#fff" stroke-linecap="square" stroke-width="1.3" id="patch_24"/><path d="M58.7 230.6h334.8" fill="none" stroke="#fff" stroke-linecap="square" stroke-width="1.3" id="patch_25"/><path d="M58.7 13.2h334.8" fill="none" stroke="#fff" stroke-linecap="square" stroke-width="1.3" id="patch_26"/></g></g><defs><clipPath id="p75edb2830c"><path d="M58.7 13.2h334.8v217.4H58.7z"/></clipPath></defs></svg>