<svg height="633.9" viewBox="0 0 393.6 475.4" width="524.8" xmlns="http://www.w3.org/2000/svg" xmlns:xlink="http://www.w3.org/1999/xlink"><defs><style>*{stroke-linecap:butt;stroke-linejoin:round}</style></defs><g id="figure_1"><path d="M0 475.4h393.6V0H0z" fill="#fff" id="patch_1"/><g id="axes_1"><path d="M20.6 107.7h162.3V13.2H20.6z" fill="#eaeaf2" id="patch_2"/><g id="matplotlib.axis_1"><g id="xtick_1"><path clip-path="url(#pd882b0e925)" d="M20.6 107.7V13.2" fill="none" stroke="#fff" stroke-linecap="round" id="line2d_1"/></g><g id="xtick_2"><path clip-path="url(#pd882b0e925)" d="M61.1 107.7V13.2" fill="none" stroke="#fff" stroke-linecap="round" id="line2d_2"/></g><g id="xtick_3"><path clip-path="url(#pd882b0e925)" d="M101.7 107.7V13.2" fill="none" stroke="#fff" stroke-linecap="round" id="line2d_3"/></g><g id="xtick_4"><path clip-path="url(#pd882b0e925)" d="M142.3 107.7V13.2" fill="none" stroke="#fff" stroke-linecap="round" id="line2d_4"/></g><g id="xtick_5"><path clip-path="url(#pd882b0e925)" d="M182.9 107.7V13.2" fill="none" stroke="#fff" stroke-linecap="round" id="line2d_5"/></g></g><g id="matplotlib.axis_2"><g id="ytick_1"><path clip-path="url(#pd882b0e925)" d="M20.6 107.7h162.3" fill="none" stroke="#fff" stroke-linecap="round" id="line2d_6"/></g><g id="ytick_2"><path clip-path="url(#pd882b0e925)" d="M20.6 64.8h162.3" fill="none" stroke="#fff" stroke-linecap="round" id="line2d_7"/></g><g id="ytick_3"><path clip-path="url(#pd882b0e925)" d="M20.6 21.8h162.3" fill="none" stroke="#fff" stroke-linecap="round" id="line2d_8"/></g></g><g id="PolyCollection_1"><defs><path d="M44-367.7H137 130.5l-.8-.1H124.6l-.7-.1h-1.5l-.7-.1h-2.2l-.8-.1h-2.2l-.7-.1h-.7l-.8-.2-.7-.1-.7-.2-.8-.1-.7-.2-.7-.2-.8-.3-.7-.3-.7-.3-.8-.3-.7-.4-.7-.4-.8-.5-.7-.5-.7-.6-.8-.7-.7-.8-.7-1-.8-1-.7-1.2-.7-1.2-.8-1.2-.7-1.2-.7-1.1-.8-1-.7-1-.7-1-.8-1-.7-1-.7-1.2-.8-1.2-.7-1.2-.7-1.2-.8-1-.7-1-.7-.7-.8-.5-.7-.2h-.7l-.8.2-.7.5-.7.5-.8.8-.7.8-.7.8-.8 1-.7.8-.7 1-.8.9-.7 1-.7 1-.8 1-.7 1-.7 1-.8 1-.7 1-.7 1-.8 1-.7 1-.7.8-.8.8-.7.8-.7.7-.8.7-.7.7-.7.6-.8.5-.7.6-.7.5-.8.5-.7.4-.7.4-.8.4-.7.3-.7.3-.8.2-.7.2H58l-.8.2h-.7l-.7.1h-.8l-.7.1h-.7l-.8.1-.7.1h-.7l-.8.2h-1.4l-.8.1H47l-.8.1H44z" id="m60d6a99b78" stroke="#fff" stroke-opacity=".3"/></defs><g clip-path="url(#pd882b0e925)"><use xlink:href="#m60d6a99b78" y="475.4" fill="#4c72b0" fill-opacity=".3" stroke="#fff" stroke-opacity=".3"/></g></g><g id="PolyCollection_2"><defs><path d="M61-367.7H109.2h-2.3l-.4-.1-.3-.1-.4-.1-.4-.2-.4-.1-.3-.2-.4-.2-.4-.3-.4-.2-.4-.3-.3-.3-.4-.2-.4-.3-.4-.2-.3-.3-.4-.3-.4-.3-.4-.4-.4-.4-.3-.5-.4-.5-.4-.6-.4-.8-.3-.8-.4-1-.4-1-.4-1.1-.4-1.3-.3-1.3-.4-1.4-.4-1.3-.4-1.4-.4-1.4-.3-1.4-.4-1.4-.4-1.4-.4-1.4-.3-1.4-.4-1.4-.4-1.3-.4-1.3-.4-1.3-.3-1.1-.4-1-.4-1-.4-1-.3-.8-.4-.8-.4-.7-.4-.8-.4-.7-.3-.6-.4-.7-.4-.6-.4-.5-.3-.4-.4-.4-.4-.2H84l-.3.4-.4.6-.4.8-.4 1-.4 1.4-.3 1.5-.4 1.8-.4 1.8-.4 2-.3 1.8-.4 1.8-.4 1.8-.4 1.6-.4 1.4-.3 1.4-.4 1.2-.4 1.1-.4 1.2-.3 1-.4 1.1-.4 1.2-.4 1.1-.4 1.1-.3 1.2-.4 1-.4 1-.4 1-.3.9-.4.7-.4.7-.4.6-.4.5-.3.5-.4.4-.4.4-.4.4-.4.3-.3.4-.4.3-.4.3-.4.2-.3.2-.4.2-.4.2h-.4l-.4.2-.3.1-.4.1h-.4l-.4.2H65l-.4.2h-.8l-.4.1h-1.1l-.4.1h-.7z" id="mdc21b76cc7" stroke="#fff" stroke-opacity=".3"/></defs><g clip-path="url(#pd882b0e925)"><use xlink:href="#mdc21b76cc7" y="475.4" fill="#dd8452" fill-opacity=".3" stroke="#fff" stroke-opacity=".3"/></g></g><path clip-path="url(#pd882b0e925)" d="M44 107.7h4.3l4.4-.4 6-.6 1.4-.4 1.4-.6 2.2-1.2L66 103l2.2-1.9 2.2-2.2 2.2-2.6 3-4 3.6-5 3.7-4.5 1.5-1.5.7-.6.7-.4.8-.3h.7l.7.2.8.5.7.7 1.5 2 3.6 5.8 3 4 2.2 3.6 2.2 3.4 1.4 1.7 1.5 1.4 1.5 1 2.2 1 2.2.9 2.2.6 2.2.3 2.2.2 19.8.4h0" fill="none" stroke="#4c72b0" stroke-linecap="round" stroke-width="1.5" id="line2d_9"/><path clip-path="url(#pd882b0e925)" d="M61 107.7h2.3l1.6-.3 2.6-.7 1.1-.6 1.2-.8 1.5-1.5 1.1-1.4.8-1.3.7-1.6 1.2-3L78.8 85l1.2-4.8 2.2-10.8.8-2.4.8-1.4.3-.3.4-.1h.4l.8.6.7 1 1.1 1.9 1.6 3 1 2.6 1.2 3.5 2 6.8L96.5 97l1.2 3.1.7 1.6.8 1.2 1.1 1.2 1.1 1 3.4 2.1 1.2.4 1.1.2h1.9" fill="none" stroke="#dd8452" stroke-linecap="round" stroke-width="1.5" id="line2d_10"/><path clip-path="url(#pd882b0e925)" d="M96.6 107.7V13.2" fill="none" stroke="gray" stroke-dasharray="1.5,2.475" stroke-width="1.5" id="line2d_11"/><path d="M20.6 107.7V13.2" fill="none" stroke="#fff" stroke-linecap="square" stroke-width="1.3" id="patch_3"/><path d="M182.9 107.7V13.2" fill="none" stroke="#fff" stroke-linecap="square" stroke-width="1.3" id="patch_4"/><path d="M20.6 107.7h162.3" fill="none" stroke="#fff" stroke-linecap="square" stroke-width="1.3" id="patch_5"/><path d="M20.6 13.2h162.3" fill="none" stroke="#fff" stroke-linecap="square" stroke-width="1.3" id="patch_6"/></g><g id="axes_2"><path d="M215.3 107.7h162.4V13.2H215.3z" fill="#eaeaf2" id="patch_7"/><g id="matplotlib.axis_3"><g id="xtick_6"><path clip-path="url(#pbf3fb2141e)" d="M215.3 107.7V13.2" fill="none" stroke="#fff" stroke-linecap="round" id="line2d_12"/></g><g id="xtick_7"><path clip-path="url(#pbf3fb2141e)" d="M256 107.7V13.2" fill="none" stroke="#fff" stroke-linecap="round" id="line2d_13"/></g><g id="xtick_8"><path clip-path="url(#pbf3fb2141e)" d="M296.5 107.7V13.2" fill="none" stroke="#fff" stroke-linecap="round" id="line2d_14"/></g><g id="xtick_9"><path clip-path="url(#pbf3fb2141e)" d="M337 107.7V13.2" fill="none" stroke="#fff" stroke-linecap="round" id="line2d_15"/></g><g id="xtick_10"><path clip-path="url(#pbf3fb2141e)" d="M377.7 107.7V13.2" fill="none" stroke="#fff" stroke-linecap="round" id="line2d_16"/></g></g><g id="matplotlib.axis_4"><g id="ytick_4"><path clip-path="url(#pbf3fb2141e)" d="M215.3 107.7h162.4" fill="none" stroke="#fff" stroke-linecap="round" id="line2d_17"/></g><g id="ytick_5"><path clip-path="url(#pbf3fb2141e)" d="M215.3 64.8h162.4" fill="none" stroke="#fff" stroke-linecap="round" id="line2d_18"/></g><g id="ytick_6"><path clip-path="url(#pbf3fb2141e)" d="M215.3 21.8h162.4" fill="none" stroke="#fff" stroke-linecap="round" id="line2d_19"/></g></g><g id="PolyCollection_3"><defs><path d="M224.2-367.7H329.1h-5l-.8-.1h-.8l-.8-.1h-2.5l-.8-.1H316.7l-.8-.2h-.8l-.9-.2-.8-.2-.8-.2-.9-.3-.8-.2-.8-.3-.8-.2-.9-.2-.8-.3-.8-.3-.8-.4-.9-.4-.8-.4-.8-.5-.8-.6-.9-.6-.8-.7-.8-.8-.8-.8-.9-.8-.8-.8-.8-.8-.8-.8-.9-.8-.8-.8-.8-1-.8-1-.9-1-.8-1.2-.8-1.1-.8-1.2-.9-1-.8-1-.8-1-.8-.9-.9-.8-.8-.6-.8-.6-.8-.5-.9-.3-.8-.1h-.8l-.8.5-.9.7-.8 1-.8 1.2-.8 1.3-.9 1.3-.8 1.4-.8 1.3-.9 1.2-.8 1.2-.8 1.2-.8 1.1-.9 1-.8 1-.8 1-.8.8-.9.8-.8.7-.8.7-.8.6-.9.6-.8.6-.8.5-.8.5-.9.6-.8.5-.8.5-.8.4-.9.4-.8.3-.8.2-.8.2-.9.2h-.8l-.8.2h-.8l-.9.1-.8.1h-.8l-.8.1H245.7l-.8.1h-2.5l-.8.1H224.2z" id="m5f85ef8e14" stroke="#fff" stroke-opacity=".3"/></defs><g clip-path="url(#pbf3fb2141e)"><use xlink:href="#m5f85ef8e14" y="475.4" fill="#4c72b0" fill-opacity=".3" stroke="#fff" stroke-opacity=".3"/></g></g><g id="PolyCollection_4"><defs><path d="M259-367.7H306h-1.5l-.3-.1-.4-.1-.4-.1-.3-.1-.4-.2-.4-.2-.3-.2-.4-.2-.4-.2-.3-.2-.4-.2-.4-.2-.4-.3-.3-.2-.4-.4-.4-.4-.3-.5-.4-.6-.4-.7-.3-.9-.4-1-.4-1.1-.3-1.3-.4-1.5-.4-1.5-.4-1.5-.3-1.6-.4-1.6-.4-1.4-.3-1.4-.4-1.3-.4-1.3-.3-1.3-.4-1.3-.4-1.3-.3-1.5-.4-1.5-.4-1.6-.3-1.7-.4-1.7-.4-1.6-.4-1.6-.3-1.5-.4-1.3-.4-1.3-.3-1-.4-1-.4-.8-.3-.8-.4-.6-.4-.6-.3-.5-.4-.4-.4-.3h-.4l-.3.2-.4.5-.4 1-.3 1.2-.4 1.6-.4 2-.3 2.2-.4 2.4-.4 2.4-.3 2.5-.4 2.3-.4 2.3-.3 2-.4 1.8-.4 1.5-.4 1.4-.3 1.3-.4 1-.4 1.1-.3 1-.4 1-.4 1-.3.9-.4 1-.4.9-.3 1-.4.8-.4 1-.3.8-.4.8-.4.7-.4.7-.3.6-.4.5-.4.5-.3.4-.4.4-.4.4-.3.4-.4.3-.4.3-.3.3-.4.2-.4.2-.4.1-.3.1-.4.1h-.4l-.3.1H263.9l-.4.1h-.4l-.3.1h-.4l-.4.1h-.4l-.3.1h-1.1l-.4.1h-.7z" id="mc5f95f4983" stroke="#fff" stroke-opacity=".3"/></defs><g clip-path="url(#pbf3fb2141e)"><use xlink:href="#mc5f95f4983" y="475.4" fill="#dd8452" fill-opacity=".3" stroke="#fff" stroke-opacity=".3"/></g></g><path clip-path="url(#pbf3fb2141e)" d="M224.2 107.7h21.5l5-.4 3.3-.4 1.6-.5 1.7-.7 2.4-1.4 4.2-2.8 2.4-2 1.7-1.6 1.6-2 2.5-3.2 2.5-3.8 3.3-5.2.8-1 .9-.7.8-.4.8-.1.8.1.9.4 1.6 1 1.7 1.4 1.6 1.8 2.5 3.3 2.5 3.4 1.6 2 3.3 3 4.1 4 1.7 1.2 1.6 1 1.7.7 2.5.8 5.8 1.6 2.4.2 11.6.3h0" fill="none" stroke="#4c72b0" stroke-linecap="round" stroke-width="1.5" id="line2d_20"/><path clip-path="url(#pbf3fb2141e)" d="M259 107.7h2.6l3.4-.4 1.8-.2 1.1-.3 1.1-.7 1.1-1 1.1-1.2 1.1-1.6 1.2-2.2 1.4-3.6 2.6-6.8.7-2.3.8-3 .7-3.8 1.5-9.5 1.1-6.5.7-3 .4-.8.4-.6.3-.2h.4l.4.3.7 1 1.1 1.9.8 1.8.7 2.3 1.1 4.4 2.2 9.6 3.7 14 1.1 4.3.8 2.1.7 1.6.7 1.1.8.8 1 .7 2.7 1.4 1 .3 1.5.1h.4" fill="none" stroke="#dd8452" stroke-linecap="round" stroke-width="1.5" id="line2d_21"/><path clip-path="url(#pbf3fb2141e)" d="M276.3 107.7V13.2" fill="none" stroke="gray" stroke-dasharray="1.5,2.475" stroke-width="1.5" id="line2d_22"/><path d="M215.3 107.7V13.2" fill="none" stroke="#fff" stroke-linecap="square" stroke-width="1.3" id="patch_8"/><path d="M377.7 107.7V13.2" fill="none" stroke="#fff" stroke-linecap="square" stroke-width="1.3" id="patch_9"/><path d="M215.3 107.7h162.4" fill="none" stroke="#fff" stroke-linecap="square" stroke-width="1.3" id="patch_10"/><path d="M215.3 13.2h162.4" fill="none" stroke="#fff" stroke-linecap="square" stroke-width="1.3" id="patch_11"/></g><g id="axes_3"><path d="M20.6 221.2h162.3v-94.6H20.6z" fill="#eaeaf2" id="patch_12"/><g id="matplotlib.axis_5"><g id="xtick_11"><path clip-path="url(#p6cd0845558)" d="M20.6 221.2v-94.6" fill="none" stroke="#fff" stroke-linecap="round" id="line2d_23"/></g><g id="xtick_12"><path clip-path="url(#p6cd0845558)" d="M61.1 221.2v-94.6" fill="none" stroke="#fff" stroke-linecap="round" id="line2d_24"/></g><g id="xtick_13"><path clip-path="url(#p6cd0845558)" d="M101.7 221.2v-94.6" fill="none" stroke="#fff" stroke-linecap="round" id="line2d_25"/></g><g id="xtick_14"><path clip-path="url(#p6cd0845558)" d="M142.3 221.2v-94.6" fill="none" stroke="#fff" stroke-linecap="round" id="line2d_26"/></g><g id="xtick_15"><path clip-path="url(#p6cd0845558)" d="M182.9 221.2v-94.6" fill="none" stroke="#fff" stroke-linecap="round" id="line2d_27"/></g></g><g id="matplotlib.axis_6"><g id="ytick_7"><path clip-path="url(#p6cd0845558)" d="M20.6 221.2h162.3" fill="none" stroke="#fff" stroke-linecap="round" id="line2d_28"/></g><g id="ytick_8"><path clip-path="url(#p6cd0845558)" d="M20.6 178.2h162.3" fill="none" stroke="#fff" stroke-linecap="round" id="line2d_29"/></g><g id="ytick_9"><path clip-path="url(#p6cd0845558)" d="M20.6 135.2h162.3" fill="none" stroke="#fff" stroke-linecap="round" id="line2d_30"/></g></g><g id="PolyCollection_5"><defs><path d="M31.4-254.2H129h-3.8l-.8-.1h-2.3l-.8-.1h-9.2l-.8-.1h-.7l-.8-.1-.8-.1h-.7l-.8-.2H106l-.7-.1h-.8l-.8-.2h-.7l-.8-.2-.8-.1-.7-.2-.8-.3-.8-.2-.8-.4-.7-.4-.8-.4-.8-.5-.7-.5-.8-.6-.8-.6-.7-.6-.8-.6-.8-.7-.7-.7-.8-.7-.8-.8-.8-.8-.7-.8-.8-1-.8-.8-.7-1-.8-1.1-.8-1.2-.7-1.2-.8-1.2-.8-1.1-.8-1.1-.7-.9-.8-.7-.8-.5-.7-.4-.8-.3-.8-.2-.7-.1-.8-.2-.8-.1-.7-.2-.8-.1h-1.6l-.7.4-.8.6-.8.8-.7 1-.8 1.1-.8 1.2-.7 1.2-.8 1.2-.8 1.2-.8 1.1-.7 1.1-.8 1-.8 1.1-.7 1-.8.9-.8.8-.7.7-.8.6-.8.5-.8.5-.7.4-.8.4-.8.4-.7.5-.8.4-.8.5-.7.5-.8.4-.8.4-.7.4-.8.4-.8.3-.8.3-.7.3-.8.2-.8.1-.7.1-.8.1h-.8l-.7.2H36.8l-.8.1h-4.6z" id="m3e5440ff9c" stroke="#fff" stroke-opacity=".3"/></defs><g clip-path="url(#p6cd0845558)"><use xlink:href="#m3e5440ff9c" y="475.4" fill="#4c72b0" fill-opacity=".3" stroke="#fff" stroke-opacity=".3"/></g></g><g id="PolyCollection_6"><defs><path d="M36.7-254.2H104.7h-2.2l-.5-.1h-1.1l-.5-.2h-.6l-.5-.2-.5-.2-.6-.1-.5-.2-.5-.3-.6-.2-.5-.2-.5-.3-.6-.3-.5-.3-.5-.4-.6-.4-.5-.3-.6-.5-.5-.4-.5-.6-.6-.6-.5-.6-.5-.8-.6-.9-.5-.9-.5-1-.6-1-.5-1-.5-1-.6-1-.5-1-.5-1-.6-.9-.5-.8-.5-1-.6-.9-.5-1-.6-1-.5-1.1-.5-1.2-.6-1.2-.5-1.1-.5-1.1-.6-1-.5-.8-.5-.6-.6-.5-.5-.3-.5-.2-.6-.2h-.5l-.5-.2h-.6l-.5-.2h-.5l-.6.2-.5.2-.6.5-.5.7-.5.8-.6 1-.5 1-.5 1.2-.6 1.1-.5 1.2-.5 1.2-.6 1.2-.5 1.2-.5 1.2-.6 1.2-.5 1.2-.5 1.2-.6 1.2-.5 1.3-.6 1.2-.5 1.2-.5 1.1-.6 1-.5 1-.5 1-.6.8-.5.6-.5.6-.6.4-.5.4-.5.3-.6.2-.5.2-.5.1-.6.2-.5.1-.5.2-.6.2-.5.2-.6.2-.5.2-.5.2-.6.2-.5.1-.5.2h-.6l-.5.1h-.5l-.6.1H41l-.6.1h-3.7z" id="m4ee1eee088" stroke="#fff" stroke-opacity=".3"/></defs><g clip-path="url(#p6cd0845558)"><use xlink:href="#m4ee1eee088" y="475.4" fill="#dd8452" fill-opacity=".3" stroke="#fff" stroke-opacity=".3"/></g></g><path clip-path="url(#p6cd0845558)" d="M31.4 221.2l6.1-.1 3.9-.3 2.3-.3 1.5-.5 1.6-.6 2.3-1.2 7.7-4.5 1.5-1.3 1.6-1.7 2.3-3 3-4.6 2.4-3.6.7-1 .8-.8.8-.6.7-.3.8-.2 1.6.2 4.6 1.1.7.4.8.5.8.7 1.5 2 3.9 5.8 1.5 1.9 2.3 2.5 2.3 2.2 3.1 2.6 2.3 1.5 1.5.9 1.6.6 1.5.4 2.3.4 10.8.8H129.1" fill="none" stroke="#4c72b0" stroke-linecap="round" stroke-width="1.5" id="line2d_31"/><path clip-path="url(#p6cd0845558)" d="M36.7 221.2l5.9-.1 4.8-.1 1.6-.4 2.1-.7 2.7-.9 2.2-.7 1-.6 1.1-1 1-1.5 1.1-1.9 1.6-3.4 7-15.5 1-2 1.1-1.6.6-.4.5-.3.6-.1h1l2.2.5 1 .5.6.5 1 1.5 1.1 2 2.7 5.7 1.6 2.8 2.1 3.7 3.8 6.8 1 1.5 1.1 1 1.6 1.4 1.6 1 2.2 1 1.6.7 1.6.4 1.6.1h2.7" fill="none" stroke="#dd8452" stroke-linecap="round" stroke-width="1.5" id="line2d_32"/><path clip-path="url(#p6cd0845558)" d="M69.8 221.2v-94.6" fill="none" stroke="gray" stroke-dasharray="1.5,2.475" stroke-width="1.5" id="line2d_33"/><path d="M20.6 221.2v-94.6" fill="none" stroke="#fff" stroke-linecap="square" stroke-width="1.3" id="patch_13"/><path d="M182.9 221.2v-94.6" fill="none" stroke="#fff" stroke-linecap="square" stroke-width="1.3" id="patch_14"/><path d="M20.6 221.2h162.3" fill="none" stroke="#fff" stroke-linecap="square" stroke-width="1.3" id="patch_15"/><path d="M20.6 126.6h162.3" fill="none" stroke="#fff" stroke-linecap="square" stroke-width="1.3" id="patch_16"/></g><g id="axes_4"><path d="M215.3 221.2h162.4v-94.6H215.3z" fill="#eaeaf2" id="patch_17"/><g id="matplotlib.axis_7"><g id="xtick_16"><path clip-path="url(#p19b36c17cf)" d="M215.3 221.2v-94.6" fill="none" stroke="#fff" stroke-linecap="round" id="line2d_34"/></g><g id="xtick_17"><path clip-path="url(#p19b36c17cf)" d="M256 221.2v-94.6" fill="none" stroke="#fff" stroke-linecap="round" id="line2d_35"/></g><g id="xtick_18"><path clip-path="url(#p19b36c17cf)" d="M296.5 221.2v-94.6" fill="none" stroke="#fff" stroke-linecap="round" id="line2d_36"/></g><g id="xtick_19"><path clip-path="url(#p19b36c17cf)" d="M337 221.2v-94.6" fill="none" stroke="#fff" stroke-linecap="round" id="line2d_37"/></g><g id="xtick_20"><path clip-path="url(#p19b36c17cf)" d="M377.7 221.2v-94.6" fill="none" stroke="#fff" stroke-linecap="round" id="line2d_38"/></g></g><g id="matplotlib.axis_8"><g id="ytick_10"><path clip-path="url(#p19b36c17cf)" d="M215.3 221.2h162.4" fill="none" stroke="#fff" stroke-linecap="round" id="line2d_39"/></g><g id="ytick_11"><path clip-path="url(#p19b36c17cf)" d="M215.3 178.2h162.4" fill="none" stroke="#fff" stroke-linecap="round" id="line2d_40"/></g><g id="ytick_12"><path clip-path="url(#p19b36c17cf)" d="M215.3 135.2h162.4" fill="none" stroke="#fff" stroke-linecap="round" id="line2d_41"/></g></g><g id="PolyCollection_7"><defs><path d="M239.4-254.2H345.4h-5l-.8-.1H328.7l-.8-.1-.8-.1h-.9l-.8-.1-.8-.1h-.9l-.8-.1h-.8l-.9-.1h-.8l-.8-.2-.9-.2-.8-.2-.8-.3-.9-.3-.8-.4-.9-.5-.8-.5-.8-.6-.9-.6-.8-.7-.8-.7-.9-.7-.8-.9-.8-1-.9-1-.8-1-.8-1-.9-1.1-.8-1-.8-1.1-.9-1.1-.8-1.2-.8-1.2-.9-1.2-.8-1.3-.9-1.3-.8-1.3-.8-1.2-.9-1-.8-.7-.8-.4h-.9l-.8.4-.8.6-.9.8-.8.8-.8.8-.9.8-.8.7-.8.8-.9.8-.8.8-.8 1-.9.9-.8 1-.8 1-.9 1-.8 1-.9 1-.8 1-.8 1.1-.9 1-.8 1-.8 1-.9.8-.8.8-.8.7-.9.5-.8.5-.8.4-.9.3-.8.3-.8.4-.9.3-.8.3-.8.3-.9.2-.8.3-.9.1-.8.2-.8.1-.9.1-.8.1-.8.1h-.9l-.8.1h-.8l-.9.1h-5.8l-.8.1h-2.5l-.9.1h-5z" id="m4f0ba11309" stroke="#fff" stroke-opacity=".3"/></defs><g clip-path="url(#p19b36c17cf)"><use xlink:href="#m4f0ba11309" y="475.4" fill="#4c72b0" fill-opacity=".3" stroke="#fff" stroke-opacity=".3"/></g></g><g id="PolyCollection_8"><defs><path d="M268.4-254.2H309.2h-1.6l-.4-.1h-.6l-.3-.1h-1l-.3-.1h-.6l-.4-.1h-.3l-.3-.2-.3-.2-.3-.3-.4-.3-.3-.4-.3-.5-.3-.6-.3-.8-.4-.8-.3-1-.3-1-.3-1-.4-1.3-.3-1.2-.3-1.5-.3-1.6-.3-1.8-.4-2-.3-2.3-.3-2.3-.3-2.3-.3-2.2-.4-2-.3-1.7-.3-1.5-.3-1.3-.3-1.2-.4-1.2-.3-1.3-.3-1.5-.3-1.7-.3-2-.4-2.1-.3-2.2-.3-2.2-.3-1.9-.3-1.6-.4-1.3-.3-1-.3-.6-.3-.4-.4-.2-.3-.2h-.6l-.3.1-.4.3-.3.5-.3.7-.3.9-.3 1.2-.4 1.5-.3 1.7-.3 2-.3 2.3-.3 2.4-.4 2.5-.3 2.6-.3 2.6-.3 2.7-.3 2.6-.4 2.5-.3 2.5-.3 2.4-.3 2.2-.3 2-.4 1.8-.3 1.6-.3 1.4-.3 1.3-.4 1.2-.3 1-.3 1-.3 1-.3.8-.4.7-.3.7-.3.5-.3.5-.3.4-.4.4-.3.3-.3.3-.3.2-.3.3-.4.3-.3.2-.3.2-.3.2-.3.2h-.4l-.3.2H270.4l-.4.1h-1.6z" id="mf90f4bc612" stroke="#fff" stroke-opacity=".3"/></defs><g clip-path="url(#p19b36c17cf)"><use xlink:href="#mf90f4bc612" y="475.4" fill="#dd8452" fill-opacity=".3" stroke="#fff" stroke-opacity=".3"/></g></g><path clip-path="url(#p19b36c17cf)" d="M239.4 221.2l6.7-.1h5.8l3.4-.2 4.1-.3 2.5-.4 2.6-.7 4.1-1.6 1.7-.7 1.7-1 1.6-1.4 1.7-1.9 3.3-4 3.4-4.1 2.5-2.8 2.5-2.4 2.5-2.4 1.7-1.6.8-.6.8-.4h.9l.8.4.8.7.9 1 1.6 2.5 3.4 5 2.5 3.4 5 6.2 1.7 1.6 2.5 2 1.6 1 1.7 1 1.7.5 1.7.4 2.5.3 10.8.5h12.5" fill="none" stroke="#4c72b0" stroke-linecap="round" stroke-width="1.5" id="line2d_42"/><path clip-path="url(#p19b36c17cf)" d="M268.4 221.2l2.3-.1 2-.1h1.5l.7-.2 1-.6 1.5-1.3 1-1 .6-1 .7-1.5 1-2.7.9-3.5.6-3 1-6 1.3-10.1 1.9-15 .6-3.8.7-2.7.6-1.6.7-.8.6-.1.6.2.4.2.3.5.3.6.7 2.2.6 3.6 1.6 10.2 1 3.9.6 2.5.6 3.2 1 6.5 1 6.6 1 4.9.9 3.5 1 2.8.6 1.4.6 1 .7.5.6.3 1 .2 4.5.3h0" fill="none" stroke="#dd8452" stroke-linecap="round" stroke-width="1.5" id="line2d_43"/><path clip-path="url(#p19b36c17cf)" d="M287 221.2v-94.6" fill="none" stroke="gray" stroke-dasharray="1.5,2.475" stroke-width="1.5" id="line2d_44"/><path d="M215.3 221.2v-94.6" fill="none" stroke="#fff" stroke-linecap="square" stroke-width="1.3" id="patch_18"/><path d="M377.7 221.2v-94.6" fill="none" stroke="#fff" stroke-linecap="square" stroke-width="1.3" id="patch_19"/><path d="M215.3 221.2h162.4" fill="none" stroke="#fff" stroke-linecap="square" stroke-width="1.3" id="patch_20"/><path d="M215.3 126.6h162.4" fill="none" stroke="#fff" stroke-linecap="square" stroke-width="1.3" id="patch_21"/></g><g id="axes_5"><path d="M20.6 334.6h162.3v-94.5H20.6z" fill="#eaeaf2" id="patch_22"/><g id="matplotlib.axis_9"><g id="xtick_21"><path clip-path="url(#p17df64daaa)" d="M20.6 334.6v-94.5" fill="none" stroke="#fff" stroke-linecap="round" id="line2d_45"/></g><g id="xtick_22"><path clip-path="url(#p17df64daaa)" d="M61.1 334.6v-94.5" fill="none" stroke="#fff" stroke-linecap="round" id="line2d_46"/></g><g id="xtick_23"><path clip-path="url(#p17df64daaa)" d="M101.7 334.6v-94.5" fill="none" stroke="#fff" stroke-linecap="round" id="line2d_47"/></g><g id="xtick_24"><path clip-path="url(#p17df64daaa)" d="M142.3 334.6v-94.5" fill="none" stroke="#fff" stroke-linecap="round" id="line2d_48"/></g><g id="xtick_25"><path clip-path="url(#p17df64daaa)" d="M182.9 334.6v-94.5" fill="none" stroke="#fff" stroke-linecap="round" id="line2d_49"/></g></g><g id="matplotlib.axis_10"><g id="ytick_13"><path clip-path="url(#p17df64daaa)" d="M20.6 334.6h162.3" fill="none" stroke="#fff" stroke-linecap="round" id="line2d_50"/></g><g id="ytick_14"><path clip-path="url(#p17df64daaa)" d="M20.6 291.7h162.3" fill="none" stroke="#fff" stroke-linecap="round" id="line2d_51"/></g><g id="ytick_15"><path clip-path="url(#p17df64daaa)" d="M20.6 248.7h162.3" fill="none" stroke="#fff" stroke-linecap="round" id="line2d_52"/></g></g><g id="PolyCollection_9"><defs><path d="M60.4-140.8H143.8h-5.3l-.6-.1h-.7l-.7-.2h-.6l-.7-.1-.6-.2h-.7l-.6-.2-.7-.2-.7-.1-.6-.1-.7-.2-.6-.1-.7-.2-.6-.1-.7-.2-.6-.3-.7-.3-.7-.3-.6-.4-.7-.5-.6-.6-.7-.6-.6-.6-.7-.7-.7-.6-.6-.7-.7-.6-.6-.7-.7-.7-.6-.6-.7-.8-.7-.8-.6-.8-.7-1-.6-1-.7-1-.6-1-.7-1.1-.7-1-.6-.9-.7-.8-.6-.7-.7-.6-.6-.4-.7-.4-.6-.4-.7-.2-.7-.3-.6-.3-.7-.2-.6-.2H102.4l-.7.2-.6.2-.7.4-.6.4-.7.5-.6.4-.7.5-.7.5-.6.5-.7.6-.6.6-.7.6-.6.7-.7.8-.7.8-.6.9-.7 1-.6 1-.7 1-.6 1-.7 1-.7 1-.6 1-.7.8-.6.8-.7.7-.6.7-.7.5-.6.4-.7.4-.7.4-.6.3-.7.3-.6.2-.7.3-.6.2-.7.2-.7.2-.6.1-.7.2-.6.1-.7.2-.6.2-.7.1-.7.2-.6.1-.7.1-.6.2h-.7l-.6.2h-.7l-.7.1h-.6l-.7.1h-.6l-.7.1H63l-.7.1h-1.9z" id="me753528e04" stroke="#fff" stroke-opacity=".3"/></defs><g clip-path="url(#p17df64daaa)"><use xlink:href="#me753528e04" y="475.4" fill="#4c72b0" fill-opacity=".3" stroke="#fff" stroke-opacity=".3"/></g></g><g id="PolyCollection_10"><defs><path d="M79.2-140.8H126.5 123.9l-.4-.1h-.4l-.3-.1-.4-.1-.4-.1-.3-.1-.4-.1-.4-.2-.4-.2-.3-.3-.4-.3-.4-.4-.4-.6-.3-.5-.4-.7-.4-.7-.3-.8-.4-.8-.4-.8-.4-.8-.3-.8-.4-.9-.4-.8-.4-.8-.3-1-.4-.8-.4-1-.3-1.2-.4-1.3-.4-1.4-.4-1.7-.3-1.7-.4-2-.4-1.9-.3-1.9-.4-1.9-.4-1.7-.4-1.7-.3-1.4-.4-1.2-.4-1-.4-.9-.3-.7-.4-.7-.4-.6-.3-.7-.4-.7-.4-.8-.4-.7-.3-.8-.4-.6-.4-.6-.4-.3-.3-.2h-.4l-.4.2-.3.4-.4.6-.4.7-.4 1-.3 1-.4 1.2-.4 1.2-.3 1.4-.4 1.4-.4 1.5-.4 1.6-.3 1.7-.4 1.8-.4 1.9-.4 2-.3 1.9-.4 1.9-.4 1.8-.3 1.7-.4 1.6-.4 1.5-.4 1.3-.3 1.2-.4 1-.4 1-.4.9-.3.8-.4.7-.4.7-.3.7-.4.6-.4.5-.4.5-.3.5-.4.4-.4.4-.3.3-.4.3-.4.2-.4.2-.3.2-.4.2-.4.2-.4.1-.3.1-.4.2-.4.1-.3.1-.4.1-.4.1H84l-.3.2h-.8l-.4.1h-.3l-.4.1h-1.5l-.4.1h-.7z" id="mad3e6ab134" stroke="#fff" stroke-opacity=".3"/></defs><g clip-path="url(#p17df64daaa)"><use xlink:href="#mad3e6ab134" y="475.4" fill="#dd8452" fill-opacity=".3" stroke="#fff" stroke-opacity=".3"/></g></g><path clip-path="url(#p17df64daaa)" d="M60.4 334.6h5.9l3.3-.4 2.6-.5 5.2-1.2 2.7-.9 2-.8 1.3-.7 1.3-1 1.3-1.3 1.3-1.7 2-3 2.6-4 1.3-1.7 1.3-1.5 2-1.7 3.3-2.5 1.3-.7 1.3-.5h1.3l1.3.2 2 .8 1.3.6 1.3.9 1.3 1.2 1.3 1.7 5.3 7.7 2 2.1 4.6 4.6 1.3 1 1.3.8 1.3.5 2 .5 5.9 1.2 2.6.2 4 .1h1.3" fill="none" stroke="#4c72b0" stroke-linecap="round" stroke-width="1.5" id="line2d_53"/><path clip-path="url(#p17df64daaa)" d="M79.2 334.6h3l1.8-.4 1.9-.5 1.9-.7 1-.7 1.2-1 1.1-1.3 1.1-1.8 1.1-2.3.8-1.8.7-2.3.8-2.7 1.1-5.2 2.2-11.1 1.2-4.6 1-3.8.8-2 .8-1.3.3-.4.4-.2h.4l.3.2.4.4.8 1.2 2.6 5 .7 1.5.8 2.2.7 3 1.5 7.6 1.1 5.3.8 2.7 1 3.1 2.7 5.9 1.5 2.9.7 1 .8.9.7.4 1.1.4 1.9.3 2.2.1h.4" fill="none" stroke="#dd8452" stroke-linecap="round" stroke-width="1.5" id="line2d_54"/><path clip-path="url(#p17df64daaa)" d="M104.4 334.6v-94.5" fill="none" stroke="gray" stroke-dasharray="1.5,2.475" stroke-width="1.5" id="line2d_55"/><path d="M20.6 334.6v-94.5" fill="none" stroke="#fff" stroke-linecap="square" stroke-width="1.3" id="patch_23"/><path d="M182.9 334.6v-94.5" fill="none" stroke="#fff" stroke-linecap="square" stroke-width="1.3" id="patch_24"/><path d="M20.6 334.6h162.3" fill="none" stroke="#fff" stroke-linecap="square" stroke-width="1.3" id="patch_25"/><path d="M20.6 240h162.3" fill="none" stroke="#fff" stroke-linecap="square" stroke-width="1.3" id="patch_26"/></g><g id="axes_6"><path d="M215.3 334.6h162.4v-94.5H215.3z" fill="#eaeaf2" id="patch_27"/><g id="matplotlib.axis_11"><g id="xtick_26"><path clip-path="url(#pa9cca9149b)" d="M215.3 334.6v-94.5" fill="none" stroke="#fff" stroke-linecap="round" id="line2d_56"/></g><g id="xtick_27"><path clip-path="url(#pa9cca9149b)" d="M256 334.6v-94.5" fill="none" stroke="#fff" stroke-linecap="round" id="line2d_57"/></g><g id="xtick_28"><path clip-path="url(#pa9cca9149b)" d="M296.5 334.6v-94.5" fill="none" stroke="#fff" stroke-linecap="round" id="line2d_58"/></g><g id="xtick_29"><path clip-path="url(#pa9cca9149b)" d="M337 334.6v-94.5" fill="none" stroke="#fff" stroke-linecap="round" id="line2d_59"/></g><g id="xtick_30"><path clip-path="url(#pa9cca9149b)" d="M377.7 334.6v-94.5" fill="none" stroke="#fff" stroke-linecap="round" id="line2d_60"/></g></g><g id="matplotlib.axis_12"><g id="ytick_16"><path clip-path="url(#pa9cca9149b)" d="M215.3 334.6h162.4" fill="none" stroke="#fff" stroke-linecap="round" id="line2d_61"/></g><g id="ytick_17"><path clip-path="url(#pa9cca9149b)" d="M215.3 291.7h162.4" fill="none" stroke="#fff" stroke-linecap="round" id="line2d_62"/></g><g id="ytick_18"><path clip-path="url(#pa9cca9149b)" d="M215.3 248.7h162.4" fill="none" stroke="#fff" stroke-linecap="round" id="line2d_63"/></g></g><g id="PolyCollection_11"><defs><path d="M206.7-140.8h95.2-14.2l-.8-.1h-.7l-.8-.1h-.7l-.8-.1h-.7l-.8-.1-.7-.1-.8-.2-.7-.2-.8-.2-.7-.3-.8-.4-.7-.4-.8-.5-.7-.4-.8-.5-.7-.5-.8-.5-.7-.5-.8-.6-.7-.6-.8-.8-.7-.8-.8-1-.7-1-.8-1.3-.7-1.2-.8-1.3-.7-1.3-.8-1.2-.7-1.2-.8-1.1-.7-1-.8-.9-.7-.7-.8-.6-.7-.6-.8-.5-.7-.4-.8-.4-.7-.4-.8-.2H254l-.7.2-.8.3-.7.3-.8.5-.7.4-.8.4-.7.5-.8.4-.7.4-.8.5-.7.5-.8.5-.7.7-.8.7-.7.8-.8 1-.7 1-.8 1-.7 1.2-.8 1.1-.7 1.2-.8 1.1-.7 1.1-.8 1.1-.7 1-.8.9-.7.7-.8.6-.7.6-.8.4-.7.3-.8.3-.7.2-.8.3-.7.1-.8.2-.7.2-.8.1-.7.2-.8.1-.7.2h-.8l-.7.2h-.8l-.7.1h-.8l-.7.2h-1.5l-.8.1h-.7l-.8.1h-1.5l-.7.1h-3l-.8.1h-2.2z" id="ma676cf64c7" stroke="#fff" stroke-opacity=".3"/></defs><g clip-path="url(#pa9cca9149b)"><use xlink:href="#ma676cf64c7" y="475.4" fill="#4c72b0" fill-opacity=".3" stroke="#fff" stroke-opacity=".3"/></g></g><g id="PolyCollection_12"><defs><path d="M108-140.8H407 364.6l-2.4-.1H355.2l-2.4-.1h-2.3l-2.4-.1-2.3-.1h-2.4l-2.3-.2h-2.4l-2.4-.2-2.3-.1-2.4-.1-2.3-.2-2.4-.2-2.3-.2-2.4-.2-2.3-.2-2.4-.2-2.3-.3-2.4-.2-2.4-.2-2.3-.3-2.4-.2-2.3-.3-2.4-.2-2.3-.3-2.4-.2-2.3-.2-2.4-.3-2.3-.2-2.4-.2-2.4-.3-2.3-.3-2.4-.2-2.3-.3-2.4-.2-2.3-.1-2.4-.2-2.3-.2-2.4-.1-2.3-.1-2.4-.1-2.4-.2h-2.3l-2.4-.1H247l-2.4.2-2.3.2-2.4.2-2.3.2-2.4.3-2.4.3-2.3.4-2.4.3-2.3.4-2.4.3-2.3.4-2.4.3-2.3.3-2.4.3-2.3.3-2.4.3-2.4.3-2.3.2-2.4.2-2.3.2-2.4.3-2.3.2-2.4.2-2.3.2-2.4.1-2.3.2-2.4.1-2.4.1-2.3.1-2.4.1H174l-2.4.2H166.8l-2.3.1H155l-2.3.1H124.4l-2.3.1H108z" id="meb894dd567" stroke="#fff" stroke-opacity=".3"/></defs><g clip-path="url(#pa9cca9149b)"><use xlink:href="#meb894dd567" y="475.4" fill="#dd8452" fill-opacity=".3" stroke="#fff" stroke-opacity=".3"/></g></g><path clip-path="url(#pa9cca9149b)" d="M206.7 334.6h6l6-.4 3.7-.4 3-.5 3.8-1 1.5-.4 1.5-.8 1.5-1.2 1.5-1.6 1.5-2 5.2-7.8 1.5-1.8 1.5-1.4 1.5-1 6-3.4 1.5-.5h1.5l1.5.6 1.5.9 1.5 1 1.5 1.4 1.5 1.8 1.5 2.3 4.5 7.3 1.5 1.9 1.5 1.4 2.3 1.6 3.7 2.2 1.5.7 1.5.4 2.3.4 4.5.2h9l5.2.1h0" fill="none" stroke="#4c72b0" stroke-linecap="round" stroke-width="1.5" id="line2d_64"/><path clip-path="url(#pa9cca9149b)" d="M108 334.6h47l14.2-.3 11.7-.3 7.1-.4 9.4-.8 11.8-1.2 9.4-1.2 21.2-3 4.7-.3 4.7-.2h4.7l7.1.3 11.8.7 7 .6 35.4 3.7 11.7 1 9.4.6 11.8.5 11.8.2 21.2.1h13.5" fill="none" stroke="#dd8452" stroke-linecap="round" stroke-width="1.5" id="line2d_65"/><path clip-path="url(#pa9cca9149b)" d="M301.5 334.6v-94.5" fill="none" stroke="gray" stroke-dasharray="1.5,2.475" stroke-width="1.5" id="line2d_66"/><path d="M215.3 334.6v-94.5" fill="none" stroke="#fff" stroke-linecap="square" stroke-width="1.3" id="patch_28"/><path d="M377.7 334.6v-94.5" fill="none" stroke="#fff" stroke-linecap="square" stroke-width="1.3" id="patch_29"/><path d="M215.3 334.6h162.4" fill="none" stroke="#fff" stroke-linecap="square" stroke-width="1.3" id="patch_30"/><path d="M215.3 240h162.4" fill="none" stroke="#fff" stroke-linecap="square" stroke-width="1.3" id="patch_31"/></g><g id="axes_7"><path d="M20.6 448h162.3v-94.5H20.6z" fill="#eaeaf2" id="patch_32"/><g id="matplotlib.axis_13"><g id="xtick_31"><path clip-path="url(#pc05c63edf9)" d="M20.6 448v-94.5" fill="none" stroke="#fff" stroke-linecap="round" id="line2d_67"/><g id="text_1"><defs><path d="M10.6 35.5h62.6v-8.3H10.6z" id="DejaVuSans-8722"/><path d="M10.8 73h38.7v-8.4H19.8V46.7q2.2.8 4.3 1.1 2.2.4 4.3.4 12.2 0 19.4-6.7 7-6.7 7-18.1 0-11.8-7.2-18.3-7.4-6.5-20.7-6.5-4.6 0-9.4.8-4.7.7-9.8 2.3v10q4.4-2.5 9.1-3.6 4.7-1.2 9.9-1.2 8.5 0 13.4 4.4 5 4.5 5 12 0 7.7-5 12.1Q35 40 26.7 40q-4 0-7.9-.9-4-.9-8-2.7z" id="DejaVuSans-53"/><path d="M10.7 12.4H21V0H10.7z" id="DejaVuSans-46"/><path d="M31.8 66.4q-7.6 0-11.5-7.5-3.8-7.5-3.8-22.5t3.8-22.5q3.9-7.5 11.5-7.5 7.7 0 11.5 7.5T47 36.4q0 15-3.8 22.5t-11.5 7.5zm0 7.8q12.2 0 18.7-9.7T57 36.4Q57 18 50.5 8.3 44-1.4 31.8-1.4 19.5-1.4 13 8.3q-6.5 9.7-6.5 28 0 18.5 6.5 28.2 6.4 9.7 18.7 9.7z" id="DejaVuSans-48"/></defs><g transform="matrix(.11 0 0 -.11 7.2 466)" fill="#262626"><use xlink:href="#DejaVuSans-8722"/><use x="83.8" xlink:href="#DejaVuSans-53"/><use x="147.4" xlink:href="#DejaVuSans-46"/><use x="179.2" xlink:href="#DejaVuSans-48"/></g></g></g><g id="xtick_32"><path clip-path="url(#pc05c63edf9)" d="M61.1 448v-94.5" fill="none" stroke="#fff" stroke-linecap="round" id="line2d_68"/><g id="text_2"><defs><path d="M19.2 8.3h34.4V0H7.3v8.3l15.3 15.6q9.7 9.8 12.2 12.6 4.7 5.3 6.6 9 2 3.7 2 7.3 0 5.8-4.2 9.5-4 3.6-10.6 3.6-4.6 0-9.8-1.6-5.1-1.6-11-4.9v10q6 2.4 11.1 3.6 5.2 1.2 9.5 1.2 11.4 0 18-5.7 6.8-5.6 6.8-15 0-4.6-1.7-8.6-1.6-4-6-9.5l-7.9-8.2L19.2 8.3z" id="DejaVuSans-50"/></defs><g transform="matrix(.11 0 0 -.11 47.8 466)" fill="#262626"><use xlink:href="#DejaVuSans-8722"/><use x="83.8" xlink:href="#DejaVuSans-50"/><use x="147.4" xlink:href="#DejaVuSans-46"/><use x="179.2" xlink:href="#DejaVuSans-53"/></g></g></g><g id="xtick_33"><path clip-path="url(#pc05c63edf9)" d="M101.7 448v-94.5" fill="none" stroke="#fff" stroke-linecap="round" id="line2d_69"/><g transform="matrix(.11 0 0 -.11 93 466)" fill="#262626" id="text_3"><use xlink:href="#DejaVuSans-48"/><use x="63.6" xlink:href="#DejaVuSans-46"/><use x="95.4" xlink:href="#DejaVuSans-48"/></g></g><g id="xtick_34"><path clip-path="url(#pc05c63edf9)" d="M142.3 448v-94.5" fill="none" stroke="#fff" stroke-linecap="round" id="line2d_70"/><g transform="matrix(.11 0 0 -.11 133.6 466)" fill="#262626" id="text_4"><use xlink:href="#DejaVuSans-50"/><use x="63.6" xlink:href="#DejaVuSans-46"/><use x="95.4" xlink:href="#DejaVuSans-53"/></g></g><g id="xtick_35"><path clip-path="url(#pc05c63edf9)" d="M182.9 448v-94.5" fill="none" stroke="#fff" stroke-linecap="round" id="line2d_71"/><g transform="matrix(.11 0 0 -.11 174.1 466)" fill="#262626" id="text_5"><use xlink:href="#DejaVuSans-53"/><use x="63.6" xlink:href="#DejaVuSans-46"/><use x="95.4" xlink:href="#DejaVuSans-48"/></g></g></g><g id="matplotlib.axis_14"><g id="ytick_19"><path clip-path="url(#pc05c63edf9)" d="M20.6 448h162.3" fill="none" stroke="#fff" stroke-linecap="round" id="line2d_72"/></g><g id="ytick_20"><path clip-path="url(#pc05c63edf9)" d="M20.6 405.1h162.3" fill="none" stroke="#fff" stroke-linecap="round" id="line2d_73"/></g><g id="ytick_21"><path clip-path="url(#pc05c63edf9)" d="M20.6 362.1h162.3" fill="none" stroke="#fff" stroke-linecap="round" id="line2d_74"/></g></g><g id="PolyCollection_13"><defs><path d="M61-27.3H160.5h-4.7l-.8-.1H151.1l-.8-.1H145.6l-.8-.1h-.8l-.7-.1-.8-.1-.8-.1-.8-.1-.8-.2-.8-.1-.7-.2-.8-.3-.8-.2-.8-.3-.8-.4-.8-.4-.7-.5-.8-.5-.8-.6-.8-.6-.8-.6-.8-.6-.7-.6-.8-.6-.8-.7-.8-.8-.8-.9-.7-1-.8-1-.8-1.2-.8-1.3-.8-1.2-.8-1.2-.7-1.1-.8-1-.8-.8-.8-.7-.8-.6-.8-.5-.7-.5-.8-.4-.8-.4-.8-.4-.8-.4-.8-.2-.7-.1h-.8l-.8.2-.8.3-.8.5-.8.5-.7.7-.8.6-.8.7-.8.6-.8.7-.8.7-.7.7-.8.8-.8.9-.8.9-.8 1-.8 1-.7 1-.8 1-.8.9-.8 1-.8.8-.7.8-.8.7-.8.7-.8.6-.8.6-.8.5-.7.5-.8.4-.8.4-.8.4-.8.3-.8.3-.7.2-.8.3-.8.2-.8.2-.8.2-.8.1-.7.2h-.8l-.8.1-.8.1H76l-.8.1h-1.5l-.8.1H69.7l-.8.1H66.5l-.8.1H61z" id="mc1653f0d7e" stroke="#fff" stroke-opacity=".3"/></defs><g clip-path="url(#pc05c63edf9)"><use xlink:href="#mc1653f0d7e" y="475.4" fill="#4c72b0" fill-opacity=".3" stroke="#fff" stroke-opacity=".3"/></g></g><g id="PolyCollection_14"><defs><path d="M93.3-27.4H127.2h-1.6l-.2-.1-.3-.1-.3-.1h-.2l-.3-.2h-.3l-.2-.2h-.3l-.3-.2-.2-.2-.3-.2-.3-.3-.2-.3-.3-.3-.3-.3-.2-.3-.3-.3-.3-.3-.2-.3-.3-.3-.3-.3-.2-.5-.3-.6-.3-.7-.2-.8-.3-1-.3-1-.3-1.1-.2-1.3-.3-1.4-.3-1.5-.2-1.7-.3-1.9-.3-2-.2-2.2-.3-2.3-.3-2.4-.2-2.5-.3-2.4-.3-2.3-.2-2-.3-2-.3-1.6-.2-1.5-.3-1.4-.3-1.2-.2-1.2-.3-1.3-.3-1.4-.2-1.4-.3-1.6-.3-1.6-.2-1.6-.3-1.6-.3-1.6-.2-1.4-.3-1.3-.3-1.2-.2-1-.3-.7-.3-.5-.2-.1-.3.2-.3.7-.2 1-.3 1.5-.3 2-.2 2-.3 2.4-.3 2.4-.3 2.4-.2 2.4-.3 2.3-.3 2.3-.2 2.3-.3 2.3-.3 2.4-.2 2.4-.3 2.4-.3 2.4-.2 2.3-.3 2.1-.3 1.9-.2 1.7-.3 1.4-.3 1.2-.2 1.1-.3 1-.3 1-.2.9-.3.9-.3.9-.2 1-.3.8-.3 1-.2.8-.3.8-.3.7-.2.7-.3.6-.3.5-.2.4-.3.3-.3.3-.2.3-.3.3-.3.2-.2.3-.3.3-.3.3-.2.3-.3.3-.3.2-.3.1-.2.2h-.3l-.3.1h-.2l-.3.1h-.5z" id="m5e6e2a73db" stroke="#fff" stroke-opacity=".3"/></defs><g clip-path="url(#pc05c63edf9)"><use xlink:href="#m5e6e2a73db" y="475.4" fill="#dd8452" fill-opacity=".3" stroke="#fff" stroke-opacity=".3"/></g></g><path clip-path="url(#pc05c63edf9)" d="M61 448h6.3l11-.5 2.3-.4 2.4-.6 2.3-.8 2.4-1 1.5-1 1.6-1 1.6-1.4 1.5-1.5 2.4-2.8 3.9-4.8 1.6-1.6 2.3-2.1 3.1-2.6 1.6-1 .8-.4.8-.2h.8l.7.1 1.6.6 2.4 1.3 1.5 1 1.6 1.2 1.6 1.8 1.5 2.3 2.4 3.7 1.5 2 1.6 1.7 2.3 2 3.2 2.3 1.5 1 1.6.8 1.6.6 2.3.5 3.2.5 3 .2 14.2.2h0" fill="none" stroke="#4c72b0" stroke-linecap="round" stroke-width="1.5" id="line2d_75"/><path clip-path="url(#pc05c63edf9)" d="M93.3 448h1l.8-.3.9-.7 2.4-2.6.5-.9.8-2 1-3.5 2-6.6.5-2.7.8-5.7 3-25.9 1-8.7.5-2.6.3-.7.3-.2.2.2.3.4.5 1.7.8 4 2.4 13.2.8 4 .8 5.8 2.4 19.6.8 4.2.9 3.1.5 1.6.5 1 .8 1 1 1.1.9 1 .8.5 1.3.4 1.4.3h1" fill="none" stroke="#dd8452" stroke-linecap="round" stroke-width="1.5" id="line2d_76"/><path clip-path="url(#pc05c63edf9)" d="M110.5 448v-94.5" fill="none" stroke="gray" stroke-dasharray="1.5,2.475" stroke-width="1.5" id="line2d_77"/><path d="M20.6 448v-94.5" fill="none" stroke="#fff" stroke-linecap="square" stroke-width="1.3" id="patch_33"/><path d="M182.9 448v-94.5" fill="none" stroke="#fff" stroke-linecap="square" stroke-width="1.3" id="patch_34"/><path d="M20.6 448h162.3" fill="none" stroke="#fff" stroke-linecap="square" stroke-width="1.3" id="patch_35"/><path d="M20.6 353.5h162.3" fill="none" stroke="#fff" stroke-linecap="square" stroke-width="1.3" id="patch_36"/></g><g id="axes_8"><path d="M215.3 448h162.4v-94.5H215.3z" fill="#eaeaf2" id="patch_37"/><g id="matplotlib.axis_15"><g id="xtick_36"><path clip-path="url(#pe2bc71dc73)" d="M215.3 448v-94.5" fill="none" stroke="#fff" stroke-linecap="round" id="line2d_78"/><g transform="matrix(.11 0 0 -.11 202 466)" fill="#262626" id="text_6"><use xlink:href="#DejaVuSans-8722"/><use x="83.8" xlink:href="#DejaVuSans-53"/><use x="147.4" xlink:href="#DejaVuSans-46"/><use x="179.2" xlink:href="#DejaVuSans-48"/></g></g><g id="xtick_37"><path clip-path="url(#pe2bc71dc73)" d="M256 448v-94.5" fill="none" stroke="#fff" stroke-linecap="round" id="line2d_79"/><g transform="matrix(.11 0 0 -.11 242.6 466)" fill="#262626" id="text_7"><use xlink:href="#DejaVuSans-8722"/><use x="83.8" xlink:href="#DejaVuSans-50"/><use x="147.4" xlink:href="#DejaVuSans-46"/><use x="179.2" xlink:href="#DejaVuSans-53"/></g></g><g id="xtick_38"><path clip-path="url(#pe2bc71dc73)" d="M296.5 448v-94.5" fill="none" stroke="#fff" stroke-linecap="round" id="line2d_80"/><g transform="matrix(.11 0 0 -.11 287.8 466)" fill="#262626" id="text_8"><use xlink:href="#DejaVuSans-48"/><use x="63.6" xlink:href="#DejaVuSans-46"/><use x="95.4" xlink:href="#DejaVuSans-48"/></g></g><g id="xtick_39"><path clip-path="url(#pe2bc71dc73)" d="M337 448v-94.5" fill="none" stroke="#fff" stroke-linecap="round" id="line2d_81"/><g transform="matrix(.11 0 0 -.11 328.3 466)" fill="#262626" id="text_9"><use xlink:href="#DejaVuSans-50"/><use x="63.6" xlink:href="#DejaVuSans-46"/><use x="95.4" xlink:href="#DejaVuSans-53"/></g></g><g id="xtick_40"><path clip-path="url(#pe2bc71dc73)" d="M377.7 448v-94.5" fill="none" stroke="#fff" stroke-linecap="round" id="line2d_82"/><g transform="matrix(.11 0 0 -.11 369 466)" fill="#262626" id="text_10"><use xlink:href="#DejaVuSans-53"/><use x="63.6" xlink:href="#DejaVuSans-46"/><use x="95.4" xlink:href="#DejaVuSans-48"/></g></g></g><g id="matplotlib.axis_16"><g id="ytick_22"><path clip-path="url(#pe2bc71dc73)" d="M215.3 448h162.4" fill="none" stroke="#fff" stroke-linecap="round" id="line2d_83"/></g><g id="ytick_23"><path clip-path="url(#pe2bc71dc73)" d="M215.3 405.1h162.4" fill="none" stroke="#fff" stroke-linecap="round" id="line2d_84"/></g><g id="ytick_24"><path clip-path="url(#pe2bc71dc73)" d="M215.3 362.1h162.4" fill="none" stroke="#fff" stroke-linecap="round" id="line2d_85"/></g></g><g id="PolyCollection_15"><defs><path d="M234.3-27.3H325 321.5l-.7-.1h-1.5l-.7-.1h-.7l-.7-.1h-.7l-.7-.1h-.7l-.8-.1h-.7l-.7-.1-.7-.1h-.7l-.7-.2-.7-.2-.8-.2-.7-.2-.7-.2-.7-.3-.7-.4-.7-.3-.8-.4-.7-.4-.7-.4-.7-.4-.7-.5-.7-.6-.7-.7-.8-.7-.7-.7-.7-.8-.7-.7-.7-.6-.7-.7-.7-.6-.8-.6-.7-.7-.7-.7-.7-1-.7-1-.7-1-.7-1.3-.8-1.3-.7-1.3-.7-1.3-.7-1.2-.7-1.1-.7-1-.8-.7-.7-.5-.7-.3H282.2l-.7.3-.8.4-.7.4-.7.4-.7.5-.7.4-.7.6-.7.5-.8.6-.7.6-.7.7-.7.8-.7 1-.7 1-.8 1.2-.7 1.3-.7 1.3-.7 1.3-.7 1.3-.7 1.2-.7 1-.8.9-.7.7-.7.6-.7.5-.7.5-.7.4-.7.5-.8.4-.7.4-.7.4-.7.3-.7.3-.7.3-.8.3-.7.3-.7.3-.7.3-.7.3-.7.2-.7.3-.8.2-.7.1-.7.1h-.7l-.7.1h-.7l-.7.1h-1.5l-.7.1H240l-.7.1H234.3z" id="mb6aa2a8fa8" stroke="#fff" stroke-opacity=".3"/></defs><g clip-path="url(#pe2bc71dc73)"><use xlink:href="#mb6aa2a8fa8" y="475.4" fill="#4c72b0" fill-opacity=".3" stroke="#fff" stroke-opacity=".3"/></g></g><g id="PolyCollection_16"><defs><path d="M261.4-27.4H305.2h-2.8l-.3-.1h-.4l-.3-.1-.3-.1-.4-.1-.3-.1-.4-.1-.3-.2-.4-.2-.3-.2-.4-.3-.3-.4-.4-.4-.3-.6-.3-.6-.4-.7-.3-.8-.4-.8-.3-.8-.4-1-.3-.8-.4-.9-.3-.9-.4-1-.3-1-.3-1-.4-1.4-.3-1.4-.4-1.5-.3-1.7-.4-1.7-.3-1.8-.4-1.7-.3-1.6-.3-1.6-.4-1.4-.3-1.4-.4-1.3-.3-1.3-.4-1.4-.3-1.4-.4-1.4-.3-1.4-.4-1.5-.3-1.4-.3-1.3-.4-1.2-.3-1.2-.4-1-.3-.8-.4-.6-.3-.5-.4-.2-.3-.1h-.3l-.4.3-.3.4-.4.5-.3.7-.4.7-.3 1-.4 1-.3 1-.4 1.4-.3 1.6-.3 1.8-.4 2-.3 2.1-.4 2.3-.3 2.2-.4 2.2-.3 2-.4 2-.3 1.9-.4 1.7-.3 1.7-.3 1.6-.4 1.5-.3 1.5-.4 1.3-.3 1.3-.4 1.1-.3 1-.4 1-.3.8-.3.7-.4.6-.3.6-.4.6-.3.5-.4.5-.3.5-.4.4-.3.4-.4.4-.3.3-.3.2-.4.2-.3.1-.4.1h-.7l-.3.1h-1l-.4.1-.3.1h-.4l-.3.2h-.7l-.4.1h-.3l-.4.1h-1.3z" id="m8ca372644a" stroke="#fff" stroke-opacity=".3"/></defs><g clip-path="url(#pe2bc71dc73)"><use xlink:href="#m8ca372644a" y="475.4" fill="#dd8452" fill-opacity=".3" stroke="#fff" stroke-opacity=".3"/></g></g><path clip-path="url(#pe2bc71dc73)" d="M234.3 448h9.3l5-.2 2.1-.2 1.4-.2 2.2-.7 5-2 2.1-1.2 2.9-1.8 1.4-1 1.5-1.7 1.4-2.1 4.3-7.5 1.4-1.8 1.4-1.3 2.2-1.6 2.1-1.4 1.5-.7 1.4-.4h1.4l.7.4.7.5.8.7 1.4 2 2.1 3.9 1.5 2.5 1.4 2.1 1.4 1.7 2.2 1.9 2.1 2 2.9 2.8 1.4 1 2.1 1.3 2.2 1 2.1.9 2.2.4 2.8.3 8.6.5h2.2" fill="none" stroke="#4c72b0" stroke-linecap="round" stroke-width="1.5" id="line2d_86"/><path clip-path="url(#pe2bc71dc73)" d="M261.4 448h2l5.2-.9.7-.4.7-.7 1-1.3 1.4-2.1 1-2.2.7-2 1-3.7 1.4-6.2 1-5.6 2.8-16.2.7-2.6.7-1.8.7-1.4.7-1 .4-.2.3-.1h.3l.4.4.7 1 .7 1.9 1 3.7 4.1 17 2.1 9.9 1 3.4 2.1 5.3 1 2.3.7 1.2.7.8.7.6 1 .4 1.4.3 1.8.2h1.7" fill="none" stroke="#dd8452" stroke-linecap="round" stroke-width="1.5" id="line2d_87"/><path clip-path="url(#pe2bc71dc73)" d="M281 448v-94.5" fill="none" stroke="gray" stroke-dasharray="1.5,2.475" stroke-width="1.5" id="line2d_88"/><path d="M215.3 448v-94.5" fill="none" stroke="#fff" stroke-linecap="square" stroke-width="1.3" id="patch_38"/><path d="M377.7 448v-94.5" fill="none" stroke="#fff" stroke-linecap="square" stroke-width="1.3" id="patch_39"/><path d="M215.3 448h162.4" fill="none" stroke="#fff" stroke-linecap="square" stroke-width="1.3" id="patch_40"/><path d="M215.3 353.5h162.4" fill="none" stroke="#fff" stroke-linecap="square" stroke-width="1.3" id="patch_41"/></g></g><defs><clipPath id="pd882b0e925"><path d="M20.6 13.2h162.3v94.5H20.6z"/></clipPath><clipPath id="pbf3fb2141e"><path d="M215.3 13.2h162.3v94.5H215.3z"/></clipPath><clipPath id="p6cd0845558"><path d="M20.6 126.6h162.3v94.5H20.6z"/></clipPath><clipPath id="p19b36c17cf"><path d="M215.3 126.6h162.3v94.5H215.3z"/></clipPath><clipPath id="p17df64daaa"><path d="M20.6 240.1h162.3v94.5H20.6z"/></clipPath><clipPath id="pa9cca9149b"><path d="M215.3 240.1h162.3v94.5H215.3z"/></clipPath><clipPath id="pc05c63edf9"><path d="M20.6 353.5h162.3V448H20.6z"/></clipPath><clipPath id="pe2bc71dc73"><path d="M215.3 353.5h162.3V448H215.3z"/></clipPath></defs></svg>