<svg height="364.8" viewBox="0 0 408.3 273.6" width="544.4" xmlns="http://www.w3.org/2000/svg" xmlns:xlink="http://www.w3.org/1999/xlink"><defs><style>*{stroke-linecap:butt;stroke-linejoin:round}</style></defs><g id="figure_1"><path d="M0 273.6h408.3V0H0z" fill="#fff" id="patch_1"/><g id="axes_1"><path d="M60.3 230.6h334.8V13.2H60.3z" fill="#eaeaf2" id="patch_2"/><g id="matplotlib.axis_1"><g id="xtick_1"><path clip-path="url(#p327c391435)" d="M75.5 230.6V13.2" fill="none" stroke="#fff" stroke-linecap="round" id="line2d_1"/><g id="text_1"><defs><path d="M10.6 35.5h62.6v-8.3H10.6z" id="DejaVuSans-8722"/><path d="M19.2 8.3h34.4V0H7.3v8.3l15.3 15.6q9.7 9.8 12.2 12.6 4.7 5.3 6.6 9 2 3.7 2 7.3 0 5.8-4.2 9.5-4 3.6-10.6 3.6-4.6 0-9.8-1.6-5.1-1.6-11-4.9v10q6 2.4 11.1 3.6 5.2 1.2 9.5 1.2 11.4 0 18-5.7 6.8-5.6 6.8-15 0-4.6-1.7-8.6-1.6-4-6-9.5l-7.9-8.2L19.2 8.3z" id="DejaVuSans-50"/><path d="M10.7 12.4H21V0H10.7z" id="DejaVuSans-46"/><path d="M31.8 66.4q-7.6 0-11.5-7.5-3.8-7.5-3.8-22.5t3.8-22.5q3.9-7.5 11.5-7.5 7.7 0 11.5 7.5T47 36.4q0 15-3.8 22.5t-11.5 7.5zm0 7.8q12.2 0 18.7-9.7T57 36.4Q57 18 50.5 8.3 44-1.4 31.8-1.4 19.5-1.4 13 8.3q-6.5 9.7-6.5 28 0 18.5 6.5 28.2 6.4 9.7 18.7 9.7z" id="DejaVuSans-48"/></defs><g transform="matrix(.11 0 0 -.11 62.2 248.5)" fill="#262626"><use xlink:href="#DejaVuSans-8722"/><use x="83.8" xlink:href="#DejaVuSans-50"/><use x="147.4" xlink:href="#DejaVuSans-46"/><use x="179.2" xlink:href="#DejaVuSans-48"/></g></g></g><g id="xtick_2"><path clip-path="url(#p327c391435)" d="M113.6 230.6V13.2" fill="none" stroke="#fff" stroke-linecap="round" id="line2d_2"/><g id="text_2"><defs><path d="M12.4 8.3h16.1v55.6L11 60.4v9l17.4 3.5h9.9V8.3h16V0H12.5z" id="DejaVuSans-49"/><path d="M10.8 73h38.7v-8.4H19.8V46.7q2.2.8 4.3 1.1 2.2.4 4.3.4 12.2 0 19.4-6.7 7-6.7 7-18.1 0-11.8-7.2-18.3-7.4-6.5-20.7-6.5-4.6 0-9.4.8-4.7.7-9.8 2.3v10q4.4-2.5 9.1-3.6 4.7-1.2 9.9-1.2 8.5 0 13.4 4.4 5 4.5 5 12 0 7.7-5 12.1Q35 40 26.7 40q-4 0-7.9-.9-4-.9-8-2.7z" id="DejaVuSans-53"/></defs><g transform="matrix(.11 0 0 -.11 100.2 248.5)" fill="#262626"><use xlink:href="#DejaVuSans-8722"/><use x="83.8" xlink:href="#DejaVuSans-49"/><use x="147.4" xlink:href="#DejaVuSans-46"/><use x="179.2" xlink:href="#DejaVuSans-53"/></g></g></g><g id="xtick_3"><path clip-path="url(#p327c391435)" d="M151.6 230.6V13.2" fill="none" stroke="#fff" stroke-linecap="round" id="line2d_3"/><g transform="matrix(.11 0 0 -.11 138.3 248.5)" fill="#262626" id="text_3"><use xlink:href="#DejaVuSans-8722"/><use x="83.8" xlink:href="#DejaVuSans-49"/><use x="147.4" xlink:href="#DejaVuSans-46"/><use x="179.2" xlink:href="#DejaVuSans-48"/></g></g><g id="xtick_4"><path clip-path="url(#p327c391435)" d="M189.7 230.6V13.2" fill="none" stroke="#fff" stroke-linecap="round" id="line2d_4"/><g transform="matrix(.11 0 0 -.11 176.3 248.5)" fill="#262626" id="text_4"><use xlink:href="#DejaVuSans-8722"/><use x="83.8" xlink:href="#DejaVuSans-48"/><use x="147.4" xlink:href="#DejaVuSans-46"/><use x="179.2" xlink:href="#DejaVuSans-53"/></g></g><g id="xtick_5"><path clip-path="url(#p327c391435)" d="M227.7 230.6V13.2" fill="none" stroke="#fff" stroke-linecap="round" id="line2d_5"/><g transform="matrix(.11 0 0 -.11 219 248.5)" fill="#262626" id="text_5"><use xlink:href="#DejaVuSans-48"/><use x="63.6" xlink:href="#DejaVuSans-46"/><use x="95.4" xlink:href="#DejaVuSans-48"/></g></g><g id="xtick_6"><path clip-path="url(#p327c391435)" d="M265.8 230.6V13.2" fill="none" stroke="#fff" stroke-linecap="round" id="line2d_6"/><g transform="matrix(.11 0 0 -.11 257 248.5)" fill="#262626" id="text_6"><use xlink:href="#DejaVuSans-48"/><use x="63.6" xlink:href="#DejaVuSans-46"/><use x="95.4" xlink:href="#DejaVuSans-53"/></g></g><g id="xtick_7"><path clip-path="url(#p327c391435)" d="M303.8 230.6V13.2" fill="none" stroke="#fff" stroke-linecap="round" id="line2d_7"/><g transform="matrix(.11 0 0 -.11 295 248.5)" fill="#262626" id="text_7"><use xlink:href="#DejaVuSans-49"/><use x="63.6" xlink:href="#DejaVuSans-46"/><use x="95.4" xlink:href="#DejaVuSans-48"/></g></g><g id="xtick_8"><path clip-path="url(#p327c391435)" d="M341.8 230.6V13.2" fill="none" stroke="#fff" stroke-linecap="round" id="line2d_8"/><g transform="matrix(.11 0 0 -.11 333.1 248.5)" fill="#262626" id="text_8"><use xlink:href="#DejaVuSans-49"/><use x="63.6" xlink:href="#DejaVuSans-46"/><use x="95.4" xlink:href="#DejaVuSans-53"/></g></g><g id="xtick_9"><path clip-path="url(#p327c391435)" d="M379.9 230.6V13.2" fill="none" stroke="#fff" stroke-linecap="round" id="line2d_9"/><g transform="matrix(.11 0 0 -.11 371.1 248.5)" fill="#262626" id="text_9"><use xlink:href="#DejaVuSans-50"/><use x="63.6" xlink:href="#DejaVuSans-46"/><use x="95.4" xlink:href="#DejaVuSans-48"/></g></g><g id="text_10"><defs><path d="M44.4 34.2q3.2-1 6.2-4.6 3-3.5 6-9.7L66.6 0H56l-9.3 18.7q-3.6 7.3-7 9.7-3.4 2.4-9.3 2.4H19.7V0H9.8v73h22.3q12.5 0 18.6-5.3Q57 62.5 57 51.9q0-6.9-3.2-11.4-3.2-4.6-9.3-6.3zM19.7 64.8V38.9H32q7.1 0 10.7 3.3 3.7 3.3 3.7 9.7 0 6.4-3.7 9.6-3.6 3.3-10.7 3.3z" id="DejaVuSans-82"/><path d="M56.2 29.6v-4.4H14.9q.6-9.3 5.6-14.1 5-4.9 14-4.9 5 0 10 1.3 4.8 1.2 9.6 3.8V2.8q-4.8-2-10-3.1-5-1.1-10.2-1.1-13.1 0-20.7 7.6-7.7 7.6-7.7 20.6 0 13.4 7.3 21.3Q20 56 32.3 56q11 0 17.5-7.1 6.4-7.1 6.4-19.3zm-9 2.6q0 7.4-4.1 11.8-4 4.4-10.7 4.4-7.5 0-12-4.3-4.5-4.2-5.2-12z" id="DejaVuSans-101"/><path d="M44.3 53v-8.4q-3.8 2-8 2.9-4 1-8.4 1-6.7 0-10-2-3.4-2.1-3.4-6.2 0-3.1 2.4-5 2.4-1.7 9.6-3.3l3-.7q9.7-2 13.7-5.8 4-3.7 4-10.4 0-7.6-6-12-6-4.5-16.6-4.5-4.4 0-9.1.8-4.8.9-10 2.6v9.3q5-2.6 9.7-4 4.9-1.2 9.6-1.2 6.4 0 9.8 2.2 3.4 2.2 3.4 6.1 0 3.7-2.5 5.6-2.4 2-10.8 3.8l-3.1.7q-8.4 1.8-12 5.4-3.8 3.6-3.8 10 0 7.7 5.5 11.9Q16.7 56 26.8 56q5 0 9.4-.7 4.4-.8 8-2.2z" id="DejaVuSans-115"/><path d="M9.4 54.7h9V0h-9zm0 21.3h9V64.6h-9z" id="DejaVuSans-105"/><path d="M45.4 46.4V76h9V0h-9v8.2Q42.6 3.3 38.3 1q-4.4-2.4-10.4-2.4-10 0-16.2 7.9-6.2 8-6.2 20.8 0 12.9 6.2 20.8Q18 56 28 56q6 0 10.4-2.4 4.3-2.3 7.1-7.2zM14.8 27.3q0-10 4-15.6Q23 6.2 30.2 6.2q7.1 0 11.2 5.7 4.1 5.6 4.1 15.5t-4.1 15.5q-4.1 5.7-11.2 5.7t-11.2-5.7q-4.1-5.6-4.1-15.5z" id="DejaVuSans-100"/><path d="M8.5 21.6v33h9V22q0-7.7 3-11.6 3-4 9-4 7.4 0 11.6 4.7 4.2 4.7 4.2 12.7v31h9V0h-9v8.4Q42 3.4 37.7 1q-4.3-2.4-10-2.4-9.4 0-14.3 5.8-4.9 5.9-4.9 17.2zM31.1 56z" id="DejaVuSans-117"/><path d="M34.3 27.5q-11 0-15.1-2.5-4.2-2.5-4.2-8.5 0-4.8 3.1-7.6 3.2-2.8 8.6-2.8 7.5 0 12 5.3t4.5 14v2zm17.9 3.7V0h-9v8.3q-3-5-7.7-7.3Q31-1.4 24.3-1.4 16-1.4 11 3.3 6 8 6 15.9q0 9.2 6.2 14 6.2 4.6 18.4 4.6h12.6v1q0 6.1-4 9.5-4.1 3.4-11.5 3.4-4.7 0-9.2-1.1-4.4-1.2-8.5-3.4v8.3q5 2 9.6 2.8 4.6 1 9 1 11.9 0 17.7-6.2 5.9-6.1 5.9-18.6z" id="DejaVuSans-97"/><path d="M9.4 76h9V0h-9z" id="DejaVuSans-108"/></defs><g transform="matrix(.12 0 0 -.12 199 263.9)" fill="#262626"><use xlink:href="#DejaVuSans-82"/><use x="69.4" xlink:href="#DejaVuSans-101"/><use x="130.9" xlink:href="#DejaVuSans-115"/><use x="183" xlink:href="#DejaVuSans-105"/><use x="210.8" xlink:href="#DejaVuSans-100"/><use x="274.3" xlink:href="#DejaVuSans-117"/><use x="337.7" xlink:href="#DejaVuSans-97"/><use x="399" xlink:href="#DejaVuSans-108"/><use x="426.7" xlink:href="#DejaVuSans-115"/></g></g></g><g id="matplotlib.axis_2"><g id="ytick_1"><path clip-path="url(#p327c391435)" d="M60.3 230.6h334.8" fill="none" stroke="#fff" stroke-linecap="round" id="line2d_10"/><use xlink:href="#DejaVuSans-48" transform="matrix(.11 0 0 -.11 43.8 234.8)" fill="#262626" id="text_11"/></g><g id="ytick_2"><path clip-path="url(#p327c391435)" d="M60.3 193.7h334.8" fill="none" stroke="#fff" stroke-linecap="round" id="line2d_11"/><g transform="matrix(.11 0 0 -.11 22.8 197.9)" fill="#262626" id="text_12"><use xlink:href="#DejaVuSans-49"/><use x="63.6" xlink:href="#DejaVuSans-48"/><use x="127.2" xlink:href="#DejaVuSans-48"/><use x="190.9" xlink:href="#DejaVuSans-48"/></g></g><g id="ytick_3"><path clip-path="url(#p327c391435)" d="M60.3 156.7h334.8" fill="none" stroke="#fff" stroke-linecap="round" id="line2d_12"/><g transform="matrix(.11 0 0 -.11 22.8 161)" fill="#262626" id="text_13"><use xlink:href="#DejaVuSans-50"/><use x="63.6" xlink:href="#DejaVuSans-48"/><use x="127.2" xlink:href="#DejaVuSans-48"/><use x="190.9" xlink:href="#DejaVuSans-48"/></g></g><g id="ytick_4"><path clip-path="url(#p327c391435)" d="M60.3 119.8h334.8" fill="none" stroke="#fff" stroke-linecap="round" id="line2d_13"/><g id="text_14"><defs><path d="M40.6 39.3q7-1.5 11-6.3t4-11.8q0-10.8-7.4-16.7-7.4-6-21.1-6-4.6 0-9.4 1-4.9.9-10 2.7v9.5q4-2.4 8.9-3.6Q21.5 7 26.8 7q9.3 0 14.1 3.6 4.9 3.7 4.9 10.7 0 6.4-4.5 10Q36.8 35 28.7 35h-8.5V43h9q7.2 0 11 3 3.9 2.8 3.9 8.3 0 5.6-4 8.6t-11.4 3q-4 0-8.7-.9-4.6-.8-10.2-2.7v8.8q5.6 1.6 10.5 2.3 5 .8 9.3.8 11.2 0 17.8-5 6.5-5.2 6.5-13.9 0-6-3.5-10.2-3.4-4.2-9.8-5.8z" id="DejaVuSans-51"/></defs><g transform="matrix(.11 0 0 -.11 22.8 124)" fill="#262626"><use xlink:href="#DejaVuSans-51"/><use x="63.6" xlink:href="#DejaVuSans-48"/><use x="127.2" xlink:href="#DejaVuSans-48"/><use x="190.9" xlink:href="#DejaVuSans-48"/></g></g></g><g id="ytick_5"><path clip-path="url(#p327c391435)" d="M60.3 82.8h334.8" fill="none" stroke="#fff" stroke-linecap="round" id="line2d_14"/><g id="text_15"><defs><path d="M37.8 64.3l-25-39h25zM35.2 73h12.4V25.4H58v-8.2H47.6V0h-9.8v17.2h-33v9.5z" id="DejaVuSans-52"/></defs><g transform="matrix(.11 0 0 -.11 22.8 87)" fill="#262626"><use xlink:href="#DejaVuSans-52"/><use x="63.6" xlink:href="#DejaVuSans-48"/><use x="127.2" xlink:href="#DejaVuSans-48"/><use x="190.9" xlink:href="#DejaVuSans-48"/></g></g></g><g id="ytick_6"><path clip-path="url(#p327c391435)" d="M60.3 45.9h334.8" fill="none" stroke="#fff" stroke-linecap="round" id="line2d_15"/><g transform="matrix(.11 0 0 -.11 22.8 50)" fill="#262626" id="text_16"><use xlink:href="#DejaVuSans-53"/><use x="63.6" xlink:href="#DejaVuSans-48"/><use x="127.2" xlink:href="#DejaVuSans-48"/><use x="190.9" xlink:href="#DejaVuSans-48"/></g></g><g id="text_17"><defs><path d="M64.4 67.3V56.9q-5 4.6-10.6 7Q48 66 41.8 66q-12.5 0-19.1-7.6Q16 50.8 16 36.4q0-14.4 6.7-22 6.6-7.7 19.1-7.7 6.3 0 12 2.3 5.6 2.3 10.6 7V5.5q-5.2-3.5-11-5.3-5.7-1.7-12.2-1.7-16.5 0-26 10.1-9.6 10.1-9.6 27.7T15.1 64q9.6 10.1 26.1 10.1 6.5 0 12.3-1.7 5.8-1.8 11-5.2z" id="DejaVuSans-67"/><path d="M30.6 48.4q-7.2 0-11.4-5.6Q15 37 15 27.3t4.2-15.5q4.1-5.6 11.4-5.6 7.2 0 11.4 5.7 4.2 5.6 4.2 15.4 0 9.7-4.2 15.4-4.2 5.7-11.4 5.7zm0 7.6q11.7 0 18.4-7.6 6.7-7.6 6.7-21.1 0-13.4-6.7-21-6.7-7.7-18.4-7.7-11.8 0-18.4 7.6Q5.5 14 5.5 27.3q0 13.5 6.7 21Q18.8 56 30.6 56z" id="DejaVuSans-111"/><path d="M54.9 33V0h-9v32.7q0 7.8-3 11.6-3 3.9-9.1 3.9-7.3 0-11.5-4.7Q18.1 39 18.1 31V0h-9v54.7h9v-8.5q3.2 5 7.6 7.4Q30.1 56 35.8 56q9.4 0 14.2-5.8Q55 44.3 55 33z" id="DejaVuSans-110"/><path d="M18.3 70.2V54.7h18.5v-7H18.3V18q0-6.7 1.8-8.6 1.9-1.9 7.5-1.9h9.2V0h-9.2Q17.2 0 13.2 3.9T9.2 18v29.7H2.8v7h6.6v15.5z" id="DejaVuSans-116"/></defs><g transform="matrix(0 -.12 -.12 0 16.3 139.7)" fill="#262626"><use xlink:href="#DejaVuSans-67"/><use x="69.8" xlink:href="#DejaVuSans-111"/><use x="131" xlink:href="#DejaVuSans-117"/><use x="194.4" xlink:href="#DejaVuSans-110"/><use x="257.8" xlink:href="#DejaVuSans-116"/></g></g></g><path clip-path="url(#p327c391435)" d="M75.5 230.6h3.1v-.6h-3z" fill="#4c72b0" opacity=".5" stroke="#fff" id="patch_3"/><path clip-path="url(#p327c391435)" d="M78.6 230.6h3v-.4h-3z" fill="#4c72b0" opacity=".5" stroke="#fff" id="patch_4"/><path clip-path="url(#p327c391435)" d="M81.7 230.6h3v-.3h-3z" fill="#4c72b0" opacity=".5" stroke="#fff" id="patch_5"/><path clip-path="url(#p327c391435)" d="M84.8 230.6h3v-.3h-3z" fill="#4c72b0" opacity=".5" stroke="#fff" id="patch_6"/><path clip-path="url(#p327c391435)" d="M87.8 230.6H91v-.2h-3z" fill="#4c72b0" opacity=".5" stroke="#fff" id="patch_7"/><path clip-path="url(#p327c391435)" d="M90.9 230.6h3v-.1h-3z" fill="#4c72b0" opacity=".5" stroke="#fff" id="patch_8"/><path clip-path="url(#p327c391435)" d="M94 230.6h3v-.4h-3z" fill="#4c72b0" opacity=".5" stroke="#fff" id="patch_9"/><path clip-path="url(#p327c391435)" d="M97 230.6h3.1v-.5h-3z" fill="#4c72b0" opacity=".5" stroke="#fff" id="patch_10"/><path clip-path="url(#p327c391435)" d="M100.1 230.6h3.1v-.5h-3z" fill="#4c72b0" opacity=".5" stroke="#fff" id="patch_11"/><path clip-path="url(#p327c391435)" d="M103.2 230.6h3v-.5h-3z" fill="#4c72b0" opacity=".5" stroke="#fff" id="patch_12"/><path clip-path="url(#p327c391435)" d="M106.3 230.6h3v-.4h-3z" fill="#4c72b0" opacity=".5" stroke="#fff" id="patch_13"/><path clip-path="url(#p327c391435)" d="M109.3 230.6h3.1v-1h-3z" fill="#4c72b0" opacity=".5" stroke="#fff" id="patch_14"/><path clip-path="url(#p327c391435)" d="M112.4 230.6h3v-.5h-3z" fill="#4c72b0" opacity=".5" stroke="#fff" id="patch_15"/><path clip-path="url(#p327c391435)" d="M115.5 230.6h3v-.9h-3z" fill="#4c72b0" opacity=".5" stroke="#fff" id="patch_16"/><path clip-path="url(#p327c391435)" d="M118.6 230.6h3v-.6h-3z" fill="#4c72b0" opacity=".5" stroke="#fff" id="patch_17"/><path clip-path="url(#p327c391435)" d="M121.6 230.6h3.1v-1h-3z" fill="#4c72b0" opacity=".5" stroke="#fff" id="patch_18"/><path clip-path="url(#p327c391435)" d="M124.7 230.6h3v-1h-3z" fill="#4c72b0" opacity=".5" stroke="#fff" id="patch_19"/><path clip-path="url(#p327c391435)" d="M127.8 230.6h3v-1.2h-3z" fill="#4c72b0" opacity=".5" stroke="#fff" id="patch_20"/><path clip-path="url(#p327c391435)" d="M130.9 230.6h3v-1.4h-3z" fill="#4c72b0" opacity=".5" stroke="#fff" id="patch_21"/><path clip-path="url(#p327c391435)" d="M134 230.6h3V229h-3z" fill="#4c72b0" opacity=".5" stroke="#fff" id="patch_22"/><path clip-path="url(#p327c391435)" d="M137 230.6h3v-1.8h-3z" fill="#4c72b0" opacity=".5" stroke="#fff" id="patch_23"/><path clip-path="url(#p327c391435)" d="M140 230.6h3.2v-2.2H140z" fill="#4c72b0" opacity=".5" stroke="#fff" id="patch_24"/><path clip-path="url(#p327c391435)" d="M143.2 230.6h3v-3.1h-3z" fill="#4c72b0" opacity=".5" stroke="#fff" id="patch_25"/><path clip-path="url(#p327c391435)" d="M146.2 230.6h3.1v-3.5h-3z" fill="#4c72b0" opacity=".5" stroke="#fff" id="patch_26"/><path clip-path="url(#p327c391435)" d="M149.3 230.6h3V227h-3z" fill="#4c72b0" opacity=".5" stroke="#fff" id="patch_27"/><path clip-path="url(#p327c391435)" d="M152.4 230.6h3v-4.4h-3z" fill="#4c72b0" opacity=".5" stroke="#fff" id="patch_28"/><path clip-path="url(#p327c391435)" d="M155.5 230.6h3v-5h-3z" fill="#4c72b0" opacity=".5" stroke="#fff" id="patch_29"/><path clip-path="url(#p327c391435)" d="M158.5 230.6h3.1V223h-3z" fill="#4c72b0" opacity=".5" stroke="#fff" id="patch_30"/><path clip-path="url(#p327c391435)" d="M161.6 230.6h3v-8.5h-3z" fill="#4c72b0" opacity=".5" stroke="#fff" id="patch_31"/><path clip-path="url(#p327c391435)" d="M164.7 230.6h3v-11.3h-3z" fill="#4c72b0" opacity=".5" stroke="#fff" id="patch_32"/><path clip-path="url(#p327c391435)" d="M167.8 230.6h3v-12.4h-3z" fill="#4c72b0" opacity=".5" stroke="#fff" id="patch_33"/><path clip-path="url(#p327c391435)" d="M170.8 230.6h3.1v-14.4h-3z" fill="#4c72b0" opacity=".5" stroke="#fff" id="patch_34"/><path clip-path="url(#p327c391435)" d="M174 230.6h3V212h-3z" fill="#4c72b0" opacity=".5" stroke="#fff" id="patch_35"/><path clip-path="url(#p327c391435)" d="M177 230.6h3v-21.4h-3z" fill="#4c72b0" opacity=".5" stroke="#fff" id="patch_36"/><path clip-path="url(#p327c391435)" d="M180 230.6h3.1v-28.5h-3z" fill="#4c72b0" opacity=".5" stroke="#fff" id="patch_37"/><path clip-path="url(#p327c391435)" d="M183.1 230.6h3.1v-37h-3z" fill="#4c72b0" opacity=".5" stroke="#fff" id="patch_38"/><path clip-path="url(#p327c391435)" d="M186.2 230.6h3V190h-3z" fill="#4c72b0" opacity=".5" stroke="#fff" id="patch_39"/><path clip-path="url(#p327c391435)" d="M189.3 230.6h3v-54h-3z" fill="#4c72b0" opacity=".5" stroke="#fff" id="patch_40"/><path clip-path="url(#p327c391435)" d="M192.4 230.6h3V168h-3z" fill="#4c72b0" opacity=".5" stroke="#fff" id="patch_41"/><path clip-path="url(#p327c391435)" d="M195.4 230.6h3.1v-75.5h-3z" fill="#4c72b0" opacity=".5" stroke="#fff" id="patch_42"/><path clip-path="url(#p327c391435)" d="M198.5 230.6h3v-90.9h-3z" fill="#4c72b0" opacity=".5" stroke="#fff" id="patch_43"/><path clip-path="url(#p327c391435)" d="M201.6 230.6h3v-106h-3z" fill="#4c72b0" opacity=".5" stroke="#fff" id="patch_44"/><path clip-path="url(#p327c391435)" d="M204.7 230.6h3v-120h-3z" fill="#4c72b0" opacity=".5" stroke="#fff" id="patch_45"/><path clip-path="url(#p327c391435)" d="M207.7 230.6h3.1v-143h-3z" fill="#4c72b0" opacity=".5" stroke="#fff" id="patch_46"/><path clip-path="url(#p327c391435)" d="M210.8 230.6h3V71h-3z" fill="#4c72b0" opacity=".5" stroke="#fff" id="patch_47"/><path clip-path="url(#p327c391435)" d="M213.9 230.6h3v-170h-3z" fill="#4c72b0" opacity=".5" stroke="#fff" id="patch_48"/><path clip-path="url(#p327c391435)" d="M217 230.6h3v-184h-3z" fill="#4c72b0" opacity=".5" stroke="#fff" id="patch_49"/><path clip-path="url(#p327c391435)" d="M220 230.6h3.1V28h-3z" fill="#4c72b0" opacity=".5" stroke="#fff" id="patch_50"/><path clip-path="url(#p327c391435)" d="M223.1 230.6h3V27h-3z" fill="#4c72b0" opacity=".5" stroke="#fff" id="patch_51"/><path clip-path="url(#p327c391435)" d="M226.2 230.6h3V33.4h-3z" fill="#4c72b0" opacity=".5" stroke="#fff" id="patch_52"/><path clip-path="url(#p327c391435)" d="M229.2 230.6h3.1V41h-3z" fill="#4c72b0" opacity=".5" stroke="#fff" id="patch_53"/><path clip-path="url(#p327c391435)" d="M232.3 230.6h3v-186h-3z" fill="#4c72b0" opacity=".5" stroke="#fff" id="patch_54"/><path clip-path="url(#p327c391435)" d="M235.4 230.6h3V57.7h-3z" fill="#4c72b0" opacity=".5" stroke="#fff" id="patch_55"/><path clip-path="url(#p327c391435)" d="M238.5 230.6h3V69h-3z" fill="#4c72b0" opacity=".5" stroke="#fff" id="patch_56"/><path clip-path="url(#p327c391435)" d="M241.5 230.6h3.1V89h-3z" fill="#4c72b0" opacity=".5" stroke="#fff" id="patch_57"/><path clip-path="url(#p327c391435)" d="M244.6 230.6h3V100.5h-3z" fill="#4c72b0" opacity=".5" stroke="#fff" id="patch_58"/><path clip-path="url(#p327c391435)" d="M247.7 230.6h3V118.8h-3z" fill="#4c72b0" opacity=".5" stroke="#fff" id="patch_59"/><path clip-path="url(#p327c391435)" d="M250.8 230.6h3v-99.8h-3z" fill="#4c72b0" opacity=".5" stroke="#fff" id="patch_60"/><path clip-path="url(#p327c391435)" d="M253.8 230.6h3.1v-85.5h-3z" fill="#4c72b0" opacity=".5" stroke="#fff" id="patch_61"/><path clip-path="url(#p327c391435)" d="M257 230.6h3V158h-3z" fill="#4c72b0" opacity=".5" stroke="#fff" id="patch_62"/><path clip-path="url(#p327c391435)" d="M260 230.6h3v-62.9h-3z" fill="#4c72b0" opacity=".5" stroke="#fff" id="patch_63"/><path clip-path="url(#p327c391435)" d="M263 230.6h3.1V175h-3z" fill="#4c72b0" opacity=".5" stroke="#fff" id="patch_64"/><path clip-path="url(#p327c391435)" d="M266.1 230.6h3.1V185h-3z" fill="#4c72b0" opacity=".5" stroke="#fff" id="patch_65"/><path clip-path="url(#p327c391435)" d="M269.2 230.6h3v-39.8h-3z" fill="#4c72b0" opacity=".5" stroke="#fff" id="patch_66"/><path clip-path="url(#p327c391435)" d="M272.3 230.6h3v-32.5h-3z" fill="#4c72b0" opacity=".5" stroke="#fff" id="patch_67"/><path clip-path="url(#p327c391435)" d="M275.4 230.6h3v-28.1h-3z" fill="#4c72b0" opacity=".5" stroke="#fff" id="patch_68"/><path clip-path="url(#p327c391435)" d="M278.4 230.6h3.1V208h-3z" fill="#4c72b0" opacity=".5" stroke="#fff" id="patch_69"/><path clip-path="url(#p327c391435)" d="M281.5 230.6h3v-21h-3z" fill="#4c72b0" opacity=".5" stroke="#fff" id="patch_70"/><path clip-path="url(#p327c391435)" d="M284.6 230.6h3V214h-3z" fill="#4c72b0" opacity=".5" stroke="#fff" id="patch_71"/><path clip-path="url(#p327c391435)" d="M287.7 230.6h3v-15h-3z" fill="#4c72b0" opacity=".5" stroke="#fff" id="patch_72"/><path clip-path="url(#p327c391435)" d="M290.7 230.6h3.1v-12.4h-3z" fill="#4c72b0" opacity=".5" stroke="#fff" id="patch_73"/><path clip-path="url(#p327c391435)" d="M293.8 230.6h3v-10.3h-3z" fill="#4c72b0" opacity=".5" stroke="#fff" id="patch_74"/><path clip-path="url(#p327c391435)" d="M296.9 230.6h3v-10.2h-3z" fill="#4c72b0" opacity=".5" stroke="#fff" id="patch_75"/><path clip-path="url(#p327c391435)" d="M300 230.6h3v-8.9h-3z" fill="#4c72b0" opacity=".5" stroke="#fff" id="patch_76"/><path clip-path="url(#p327c391435)" d="M303 230.6h3.1v-6.2h-3z" fill="#4c72b0" opacity=".5" stroke="#fff" id="patch_77"/><path clip-path="url(#p327c391435)" d="M306.1 230.6h3v-6h-3z" fill="#4c72b0" opacity=".5" stroke="#fff" id="patch_78"/><path clip-path="url(#p327c391435)" d="M309.2 230.6h3v-5.1h-3z" fill="#4c72b0" opacity=".5" stroke="#fff" id="patch_79"/><path clip-path="url(#p327c391435)" d="M312.3 230.6h3v-4.4h-3z" fill="#4c72b0" opacity=".5" stroke="#fff" id="patch_80"/><path clip-path="url(#p327c391435)" d="M315.3 230.6h3.1v-4.2h-3z" fill="#4c72b0" opacity=".5" stroke="#fff" id="patch_81"/><path clip-path="url(#p327c391435)" d="M318.4 230.6h3v-4.2h-3z" fill="#4c72b0" opacity=".5" stroke="#fff" id="patch_82"/><path clip-path="url(#p327c391435)" d="M321.5 230.6h3v-3.2h-3z" fill="#4c72b0" opacity=".5" stroke="#fff" id="patch_83"/><path clip-path="url(#p327c391435)" d="M324.6 230.6h3v-2.8h-3z" fill="#4c72b0" opacity=".5" stroke="#fff" id="patch_84"/><path clip-path="url(#p327c391435)" d="M327.6 230.6h3.1v-3h-3z" fill="#4c72b0" opacity=".5" stroke="#fff" id="patch_85"/><path clip-path="url(#p327c391435)" d="M330.7 230.6h3v-2.3h-3z" fill="#4c72b0" opacity=".5" stroke="#fff" id="patch_86"/><path clip-path="url(#p327c391435)" d="M333.8 230.6h3v-2.3h-3z" fill="#4c72b0" opacity=".5" stroke="#fff" id="patch_87"/><path clip-path="url(#p327c391435)" d="M336.8 230.6h3.1v-2.4h-3z" fill="#4c72b0" opacity=".5" stroke="#fff" id="patch_88"/><path clip-path="url(#p327c391435)" d="M340 230.6h3v-2.2h-3z" fill="#4c72b0" opacity=".5" stroke="#fff" id="patch_89"/><path clip-path="url(#p327c391435)" d="M343 230.6h3v-1.8h-3z" fill="#4c72b0" opacity=".5" stroke="#fff" id="patch_90"/><path clip-path="url(#p327c391435)" d="M346 230.6h3.1v-1.1h-3z" fill="#4c72b0" opacity=".5" stroke="#fff" id="patch_91"/><path clip-path="url(#p327c391435)" d="M349.1 230.6h3.1v-.9h-3z" fill="#4c72b0" opacity=".5" stroke="#fff" id="patch_92"/><path clip-path="url(#p327c391435)" d="M352.2 230.6h3.1v-.8h-3z" fill="#4c72b0" opacity=".5" stroke="#fff" id="patch_93"/><path clip-path="url(#p327c391435)" d="M355.3 230.6h3v-1.3h-3z" fill="#4c72b0" opacity=".5" stroke="#fff" id="patch_94"/><path clip-path="url(#p327c391435)" d="M358.4 230.6h3v-1.1h-3z" fill="#4c72b0" opacity=".5" stroke="#fff" id="patch_95"/><path clip-path="url(#p327c391435)" d="M361.4 230.6h3.1v-1.1h-3z" fill="#4c72b0" opacity=".5" stroke="#fff" id="patch_96"/><path clip-path="url(#p327c391435)" d="M364.5 230.6h3v-.7h-3z" fill="#4c72b0" opacity=".5" stroke="#fff" id="patch_97"/><path clip-path="url(#p327c391435)" d="M367.6 230.6h3v-1h-3z" fill="#4c72b0" opacity=".5" stroke="#fff" id="patch_98"/><path clip-path="url(#p327c391435)" d="M370.7 230.6h3v-1h-3z" fill="#4c72b0" opacity=".5" stroke="#fff" id="patch_99"/><path clip-path="url(#p327c391435)" d="M373.7 230.6h3.1v-.4h-3z" fill="#4c72b0" opacity=".5" stroke="#fff" id="patch_100"/><path clip-path="url(#p327c391435)" d="M376.8 230.6h3v-.6h-3z" fill="#4c72b0" opacity=".5" stroke="#fff" id="patch_101"/><path clip-path="url(#p327c391435)" d="M75.5 230.6h3.1v-.3h-3z" fill="#dd8452" opacity=".5" stroke="#fff" id="patch_102"/><path clip-path="url(#p327c391435)" d="M78.6 230.6h3v-.2h-3z" fill="#dd8452" opacity=".5" stroke="#fff" id="patch_103"/><path clip-path="url(#p327c391435)" d="M81.7 230.6h3v-.4h-3z" fill="#dd8452" opacity=".5" stroke="#fff" id="patch_104"/><path clip-path="url(#p327c391435)" d="M84.8 230.6h3v-.4h-3z" fill="#dd8452" opacity=".5" stroke="#fff" id="patch_105"/><path clip-path="url(#p327c391435)" d="M87.8 230.6H91v-.5h-3z" fill="#dd8452" opacity=".5" stroke="#fff" id="patch_106"/><path clip-path="url(#p327c391435)" d="M90.9 230.6h3v-.4h-3z" fill="#dd8452" opacity=".5" stroke="#fff" id="patch_107"/><path clip-path="url(#p327c391435)" d="M94 230.6h3v-.4h-3z" fill="#dd8452" opacity=".5" stroke="#fff" id="patch_108"/><path clip-path="url(#p327c391435)" d="M97 230.6h3.1v-.7h-3z" fill="#dd8452" opacity=".5" stroke="#fff" id="patch_109"/><path clip-path="url(#p327c391435)" d="M100.1 230.6h3.1v-.5h-3z" fill="#dd8452" opacity=".5" stroke="#fff" id="patch_110"/><path clip-path="url(#p327c391435)" d="M103.2 230.6h3v-.7h-3z" fill="#dd8452" opacity=".5" stroke="#fff" id="patch_111"/><path clip-path="url(#p327c391435)" d="M106.3 230.6h3v-.7h-3z" fill="#dd8452" opacity=".5" stroke="#fff" id="patch_112"/><path clip-path="url(#p327c391435)" d="M109.3 230.6h3.1v-.5h-3z" fill="#dd8452" opacity=".5" stroke="#fff" id="patch_113"/><path clip-path="url(#p327c391435)" d="M112.4 230.6h3v-1.1h-3z" fill="#dd8452" opacity=".5" stroke="#fff" id="patch_114"/><path clip-path="url(#p327c391435)" d="M115.5 230.6h3v-1.2h-3z" fill="#dd8452" opacity=".5" stroke="#fff" id="patch_115"/><path clip-path="url(#p327c391435)" d="M118.6 230.6h3v-1h-3z" fill="#dd8452" opacity=".5" stroke="#fff" id="patch_116"/><path clip-path="url(#p327c391435)" d="M121.6 230.6h3.1v-.9h-3z" fill="#dd8452" opacity=".5" stroke="#fff" id="patch_117"/><path clip-path="url(#p327c391435)" d="M124.7 230.6h3v-1.4h-3z" fill="#dd8452" opacity=".5" stroke="#fff" id="patch_118"/><path clip-path="url(#p327c391435)" d="M127.8 230.6h3v-1.5h-3z" fill="#dd8452" opacity=".5" stroke="#fff" id="patch_119"/><path clip-path="url(#p327c391435)" d="M130.9 230.6h3v-1.2h-3z" fill="#dd8452" opacity=".5" stroke="#fff" id="patch_120"/><path clip-path="url(#p327c391435)" d="M134 230.6h3v-1h-3z" fill="#dd8452" opacity=".5" stroke="#fff" id="patch_121"/><path clip-path="url(#p327c391435)" d="M137 230.6h3v-2.5h-3z" fill="#dd8452" opacity=".5" stroke="#fff" id="patch_122"/><path clip-path="url(#p327c391435)" d="M140 230.6h3.2v-1.8H140z" fill="#dd8452" opacity=".5" stroke="#fff" id="patch_123"/><path clip-path="url(#p327c391435)" d="M143.2 230.6h3v-2.8h-3z" fill="#dd8452" opacity=".5" stroke="#fff" id="patch_124"/><path clip-path="url(#p327c391435)" d="M146.2 230.6h3.1v-3.2h-3z" fill="#dd8452" opacity=".5" stroke="#fff" id="patch_125"/><path clip-path="url(#p327c391435)" d="M149.3 230.6h3v-4.4h-3z" fill="#dd8452" opacity=".5" stroke="#fff" id="patch_126"/><path clip-path="url(#p327c391435)" d="M152.4 230.6h3v-4.8h-3z" fill="#dd8452" opacity=".5" stroke="#fff" id="patch_127"/><path clip-path="url(#p327c391435)" d="M155.5 230.6h3v-5.1h-3z" fill="#dd8452" opacity=".5" stroke="#fff" id="patch_128"/><path clip-path="url(#p327c391435)" d="M158.5 230.6h3.1v-7.4h-3z" fill="#dd8452" opacity=".5" stroke="#fff" id="patch_129"/><path clip-path="url(#p327c391435)" d="M161.6 230.6h3v-7.9h-3z" fill="#dd8452" opacity=".5" stroke="#fff" id="patch_130"/><path clip-path="url(#p327c391435)" d="M164.7 230.6h3v-10.5h-3z" fill="#dd8452" opacity=".5" stroke="#fff" id="patch_131"/><path clip-path="url(#p327c391435)" d="M167.8 230.6h3v-12.5h-3z" fill="#dd8452" opacity=".5" stroke="#fff" id="patch_132"/><path clip-path="url(#p327c391435)" d="M170.8 230.6h3.1v-15h-3z" fill="#dd8452" opacity=".5" stroke="#fff" id="patch_133"/><path clip-path="url(#p327c391435)" d="M174 230.6h3v-17.3h-3z" fill="#dd8452" opacity=".5" stroke="#fff" id="patch_134"/><path clip-path="url(#p327c391435)" d="M177 230.6h3v-20.5h-3z" fill="#dd8452" opacity=".5" stroke="#fff" id="patch_135"/><path clip-path="url(#p327c391435)" d="M180 230.6h3.1V204h-3z" fill="#dd8452" opacity=".5" stroke="#fff" id="patch_136"/><path clip-path="url(#p327c391435)" d="M183.1 230.6h3.1v-33.1h-3z" fill="#dd8452" opacity=".5" stroke="#fff" id="patch_137"/><path clip-path="url(#p327c391435)" d="M186.2 230.6h3v-38.9h-3z" fill="#dd8452" opacity=".5" stroke="#fff" id="patch_138"/><path clip-path="url(#p327c391435)" d="M189.3 230.6h3v-49.5h-3z" fill="#dd8452" opacity=".5" stroke="#fff" id="patch_139"/><path clip-path="url(#p327c391435)" d="M192.4 230.6h3v-60.2h-3z" fill="#dd8452" opacity=".5" stroke="#fff" id="patch_140"/><path clip-path="url(#p327c391435)" d="M195.4 230.6h3.1v-71.2h-3z" fill="#dd8452" opacity=".5" stroke="#fff" id="patch_141"/><path clip-path="url(#p327c391435)" d="M198.5 230.6h3V142h-3z" fill="#dd8452" opacity=".5" stroke="#fff" id="patch_142"/><path clip-path="url(#p327c391435)" d="M201.6 230.6h3V128h-3z" fill="#dd8452" opacity=".5" stroke="#fff" id="patch_143"/><path clip-path="url(#p327c391435)" d="M204.7 230.6h3V110h-3z" fill="#dd8452" opacity=".5" stroke="#fff" id="patch_144"/><path clip-path="url(#p327c391435)" d="M207.7 230.6h3.1v-143h-3z" fill="#dd8452" opacity=".5" stroke="#fff" id="patch_145"/><path clip-path="url(#p327c391435)" d="M210.8 230.6h3V72.1h-3z" fill="#dd8452" opacity=".5" stroke="#fff" id="patch_146"/><path clip-path="url(#p327c391435)" d="M213.9 230.6h3V53.1h-3z" fill="#dd8452" opacity=".5" stroke="#fff" id="patch_147"/><path clip-path="url(#p327c391435)" d="M217 230.6h3V36.2h-3z" fill="#dd8452" opacity=".5" stroke="#fff" id="patch_148"/><path clip-path="url(#p327c391435)" d="M220 230.6h3.1v-204h-3z" fill="#dd8452" opacity=".5" stroke="#fff" id="patch_149"/><path clip-path="url(#p327c391435)" d="M223.1 230.6h3v-207h-3z" fill="#dd8452" opacity=".5" stroke="#fff" id="patch_150"/><path clip-path="url(#p327c391435)" d="M226.2 230.6h3V24.4h-3z" fill="#dd8452" opacity=".5" stroke="#fff" id="patch_151"/><path clip-path="url(#p327c391435)" d="M229.2 230.6h3.1V27.8h-3z" fill="#dd8452" opacity=".5" stroke="#fff" id="patch_152"/><path clip-path="url(#p327c391435)" d="M232.3 230.6h3V41.7h-3z" fill="#dd8452" opacity=".5" stroke="#fff" id="patch_153"/><path clip-path="url(#p327c391435)" d="M235.4 230.6h3V52.2h-3z" fill="#dd8452" opacity=".5" stroke="#fff" id="patch_154"/><path clip-path="url(#p327c391435)" d="M238.5 230.6h3V67.3h-3z" fill="#dd8452" opacity=".5" stroke="#fff" id="patch_155"/><path clip-path="url(#p327c391435)" d="M241.5 230.6h3.1V90h-3z" fill="#dd8452" opacity=".5" stroke="#fff" id="patch_156"/><path clip-path="url(#p327c391435)" d="M244.6 230.6h3v-129h-3z" fill="#dd8452" opacity=".5" stroke="#fff" id="patch_157"/><path clip-path="url(#p327c391435)" d="M247.7 230.6h3V120.2h-3z" fill="#dd8452" opacity=".5" stroke="#fff" id="patch_158"/><path clip-path="url(#p327c391435)" d="M250.8 230.6h3v-99.3h-3z" fill="#dd8452" opacity=".5" stroke="#fff" id="patch_159"/><path clip-path="url(#p327c391435)" d="M253.8 230.6h3.1v-85h-3z" fill="#dd8452" opacity=".5" stroke="#fff" id="patch_160"/><path clip-path="url(#p327c391435)" d="M257 230.6h3v-68.4h-3z" fill="#dd8452" opacity=".5" stroke="#fff" id="patch_161"/><path clip-path="url(#p327c391435)" d="M260 230.6h3v-59.3h-3z" fill="#dd8452" opacity=".5" stroke="#fff" id="patch_162"/><path clip-path="url(#p327c391435)" d="M263 230.6h3.1V180h-3z" fill="#dd8452" opacity=".5" stroke="#fff" id="patch_163"/><path clip-path="url(#p327c391435)" d="M266.1 230.6h3.1v-46.2h-3z" fill="#dd8452" opacity=".5" stroke="#fff" id="patch_164"/><path clip-path="url(#p327c391435)" d="M269.2 230.6h3v-38.5h-3z" fill="#dd8452" opacity=".5" stroke="#fff" id="patch_165"/><path clip-path="url(#p327c391435)" d="M272.3 230.6h3v-32h-3z" fill="#dd8452" opacity=".5" stroke="#fff" id="patch_166"/><path clip-path="url(#p327c391435)" d="M275.4 230.6h3v-24.8h-3z" fill="#dd8452" opacity=".5" stroke="#fff" id="patch_167"/><path clip-path="url(#p327c391435)" d="M278.4 230.6h3.1v-21.8h-3z" fill="#dd8452" opacity=".5" stroke="#fff" id="patch_168"/><path clip-path="url(#p327c391435)" d="M281.5 230.6h3v-17.4h-3z" fill="#dd8452" opacity=".5" stroke="#fff" id="patch_169"/><path clip-path="url(#p327c391435)" d="M284.6 230.6h3v-15.5h-3z" fill="#dd8452" opacity=".5" stroke="#fff" id="patch_170"/><path clip-path="url(#p327c391435)" d="M287.7 230.6h3v-14.5h-3z" fill="#dd8452" opacity=".5" stroke="#fff" id="patch_171"/><path clip-path="url(#p327c391435)" d="M290.7 230.6h3.1v-13.1h-3z" fill="#dd8452" opacity=".5" stroke="#fff" id="patch_172"/><path clip-path="url(#p327c391435)" d="M293.8 230.6h3v-10.2h-3z" fill="#dd8452" opacity=".5" stroke="#fff" id="patch_173"/><path clip-path="url(#p327c391435)" d="M296.9 230.6h3V221h-3z" fill="#dd8452" opacity=".5" stroke="#fff" id="patch_174"/><path clip-path="url(#p327c391435)" d="M300 230.6h3V222h-3z" fill="#dd8452" opacity=".5" stroke="#fff" id="patch_175"/><path clip-path="url(#p327c391435)" d="M303 230.6h3.1v-6.5h-3z" fill="#dd8452" opacity=".5" stroke="#fff" id="patch_176"/><path clip-path="url(#p327c391435)" d="M306.1 230.6h3v-6h-3z" fill="#dd8452" opacity=".5" stroke="#fff" id="patch_177"/><path clip-path="url(#p327c391435)" d="M309.2 230.6h3V226h-3z" fill="#dd8452" opacity=".5" stroke="#fff" id="patch_178"/><path clip-path="url(#p327c391435)" d="M312.3 230.6h3v-4.1h-3z" fill="#dd8452" opacity=".5" stroke="#fff" id="patch_179"/><path clip-path="url(#p327c391435)" d="M315.3 230.6h3.1V227h-3z" fill="#dd8452" opacity=".5" stroke="#fff" id="patch_180"/><path clip-path="url(#p327c391435)" d="M318.4 230.6h3v-4h-3z" fill="#dd8452" opacity=".5" stroke="#fff" id="patch_181"/><path clip-path="url(#p327c391435)" d="M321.5 230.6h3v-3h-3z" fill="#dd8452" opacity=".5" stroke="#fff" id="patch_182"/><path clip-path="url(#p327c391435)" d="M324.6 230.6h3v-3.3h-3z" fill="#dd8452" opacity=".5" stroke="#fff" id="patch_183"/><path clip-path="url(#p327c391435)" d="M327.6 230.6h3.1v-2.3h-3z" fill="#dd8452" opacity=".5" stroke="#fff" id="patch_184"/><path clip-path="url(#p327c391435)" d="M330.7 230.6h3V228h-3z" fill="#dd8452" opacity=".5" stroke="#fff" id="patch_185"/><path clip-path="url(#p327c391435)" d="M333.8 230.6h3v-2h-3z" fill="#dd8452" opacity=".5" stroke="#fff" id="patch_186"/><path clip-path="url(#p327c391435)" d="M336.8 230.6h3.1v-1.8h-3z" fill="#dd8452" opacity=".5" stroke="#fff" id="patch_187"/><path clip-path="url(#p327c391435)" d="M340 230.6h3v-1.5h-3z" fill="#dd8452" opacity=".5" stroke="#fff" id="patch_188"/><path clip-path="url(#p327c391435)" d="M343 230.6h3V229h-3z" fill="#dd8452" opacity=".5" stroke="#fff" id="patch_189"/><path clip-path="url(#p327c391435)" d="M346 230.6h3.1v-1h-3z" fill="#dd8452" opacity=".5" stroke="#fff" id="patch_190"/><path clip-path="url(#p327c391435)" d="M349.1 230.6h3.1v-1.2h-3z" fill="#dd8452" opacity=".5" stroke="#fff" id="patch_191"/><path clip-path="url(#p327c391435)" d="M352.2 230.6h3.1v-1.3h-3z" fill="#dd8452" opacity=".5" stroke="#fff" id="patch_192"/><path clip-path="url(#p327c391435)" d="M355.3 230.6h3v-1h-3z" fill="#dd8452" opacity=".5" stroke="#fff" id="patch_193"/><path clip-path="url(#p327c391435)" d="M358.4 230.6h3v-1.2h-3z" fill="#dd8452" opacity=".5" stroke="#fff" id="patch_194"/><path clip-path="url(#p327c391435)" d="M361.4 230.6h3.1v-1h-3z" fill="#dd8452" opacity=".5" stroke="#fff" id="patch_195"/><path clip-path="url(#p327c391435)" d="M364.5 230.6h3v-.8h-3z" fill="#dd8452" opacity=".5" stroke="#fff" id="patch_196"/><path clip-path="url(#p327c391435)" d="M367.6 230.6h3v-.7h-3z" fill="#dd8452" opacity=".5" stroke="#fff" id="patch_197"/><path clip-path="url(#p327c391435)" d="M370.7 230.6h3v-.7h-3z" fill="#dd8452" opacity=".5" stroke="#fff" id="patch_198"/><path clip-path="url(#p327c391435)" d="M373.7 230.6h3.1v-.8h-3z" fill="#dd8452" opacity=".5" stroke="#fff" id="patch_199"/><path clip-path="url(#p327c391435)" d="M376.8 230.6h3v-.6h-3z" fill="#dd8452" opacity=".5" stroke="#fff" id="patch_200"/><path d="M60.3 230.6V13.2" fill="none" stroke="#fff" stroke-linecap="square" stroke-width="1.3" id="patch_201"/><path d="M395.1 230.6V13.2" fill="none" stroke="#fff" stroke-linecap="square" stroke-width="1.3" id="patch_202"/><path d="M60.3 230.6h334.8" fill="none" stroke="#fff" stroke-linecap="square" stroke-width="1.3" id="patch_203"/><path d="M60.3 13.2h334.8" fill="none" stroke="#fff" stroke-linecap="square" stroke-width="1.3" id="patch_204"/><g id="legend_1"><path d="M244.4 54.3h143q2.2 0 2.2-2.2V20.9q0-2.2-2.2-2.2h-143q-2.2 0-2.2 2.2v31.2q0 2.2 2.2 2.2z" fill="#eaeaf2" opacity=".8" stroke="#ccc" id="patch_205"/><path d="M246.6 31.5h22v-7.7h-22z" fill="#4c72b0" opacity=".5" stroke="#fff" id="patch_206"/><g id="text_18"><defs><path d="M9.8 73h13.3l32.3-61v61H65V0H51.7L19.4 61V0H9.8z" id="DejaVuSans-78"/><path d="M9.8 73H56v-8.4H19.7V43h34.7v-8.3H19.7V8.3h37V0H9.9z" id="DejaVuSans-69"/><path d="M41.1 46.3q-1.5.9-3.3 1.3-1.8.4-4 .4-7.5 0-11.6-5-4-5-4-14.2V0H9v54.7h9v-8.5q2.9 5 7.4 7.4Q30 56 36.5 56l2-.1 2.6-.4z" id="DejaVuSans-114"/><path d="M52 44.2q3.4 6 8 9Q64.9 56 71 56q8.6 0 13.3-6 4.6-6 4.6-17V0h-9v32.7q0 7.9-2.8 11.7-2.8 3.8-8.5 3.8-7 0-11-4.7-4-4.6-4-12.6V0h-9.1v32.7q0 8-2.8 11.7-2.8 3.8-8.6 3.8-6.9 0-11-4.7-4-4.6-4-12.6V0h-9v54.7h9v-8.5q3 5 7.4 7.4Q29.8 56 35.7 56q6 0 10.1-3 4.2-3 6.2-8.8z" id="DejaVuSans-109"/></defs><g transform="matrix(.11 0 0 -.11 277.4 31.5)" fill="#262626"><use xlink:href="#DejaVuSans-78"/><use x="74.8" xlink:href="#DejaVuSans-111"/><use x="136" xlink:href="#DejaVuSans-32"/><use x="167.8" xlink:href="#DejaVuSans-69"/><use x="231" xlink:href="#DejaVuSans-114"/><use x="272.1" xlink:href="#DejaVuSans-114"/><use x="313.1" xlink:href="#DejaVuSans-111"/><use x="374.3" xlink:href="#DejaVuSans-114"/><use x="415.4" xlink:href="#DejaVuSans-32"/><use x="447.2" xlink:href="#DejaVuSans-69"/><use x="510.4" xlink:href="#DejaVuSans-115"/><use x="562.5" xlink:href="#DejaVuSans-116"/><use x="601.7" xlink:href="#DejaVuSans-105"/><use x="629.5" xlink:href="#DejaVuSans-109"/><use x="726.9" xlink:href="#DejaVuSans-97"/><use x="788.2" xlink:href="#DejaVuSans-116"/><use x="827.4" xlink:href="#DejaVuSans-105"/><use x="855.2" xlink:href="#DejaVuSans-111"/><use x="916.4" xlink:href="#DejaVuSans-110"/></g></g><path d="M246.6 47.6h22v-7.7h-22z" fill="#dd8452" opacity=".5" stroke="#fff" id="patch_207"/><g id="text_19"><defs><path d="M19.7 64.8V8.1h11.9q15 0 22 6.8 7 6.9 7 21.6 0 14.7-7 21.5-7 6.8-22 6.8zm-9.9 8.1h20.3q21.2 0 31-8.8 10-8.8 10-27.6T61 8.8Q51.1 0 30.1 0H9.8z" id="DejaVuSans-68"/><path d="M32.2-5q-3.8-9.8-7.5-12.8-3.6-3-9.6-3H7.9v7.5h5.3q3.7 0 5.7 1.8 2.1 1.7 4.6 8.3l1.6 4L3 54.8h9.5l17-42.8 17.2 42.8h9.5z" id="DejaVuSans-121"/><path d="M4.2 54.7h9L24.4 12l11.2 42.7h10.6L57.4 12l11.2 42.7h9L63.3 0H52.7L40.9 44.8 29.1 0H18.5z" id="DejaVuSans-119"/><path d="M9 76h9.1V31L45 54.7h11.5L27.4 29 57.6 0H46L18.1 26.7V0h-9z" id="DejaVuSans-107"/></defs><g transform="matrix(.11 0 0 -.11 277.4 47.6)" fill="#262626"><use xlink:href="#DejaVuSans-68"/><use x="77" xlink:href="#DejaVuSans-101"/><use x="138.5" xlink:href="#DejaVuSans-110"/><use x="201.9" xlink:href="#DejaVuSans-115"/><use x="254" xlink:href="#DejaVuSans-105"/><use x="281.8" xlink:href="#DejaVuSans-116"/><use x="321" xlink:href="#DejaVuSans-121"/><use x="380.2" xlink:href="#DejaVuSans-32"/><use x="412" xlink:href="#DejaVuSans-78"/><use x="486.8" xlink:href="#DejaVuSans-101"/><use x="548.3" xlink:href="#DejaVuSans-116"/><use x="587.5" xlink:href="#DejaVuSans-119"/><use x="669.3" xlink:href="#DejaVuSans-111"/><use x="730.5" xlink:href="#DejaVuSans-114"/><use x="771.6" xlink:href="#DejaVuSans-107"/></g></g></g></g></g><defs><clipPath id="p327c391435"><path d="M60.3 13.2h334.8v217.4H60.3z"/></clipPath></defs></svg>