<svg version="1.1" viewBox="0.0 0.0 438.1679790026247 131.91076115485563" fill="none" stroke="none" stroke-linecap="square" stroke-miterlimit="10" xmlns:xlink="http://www.w3.org/1999/xlink" xmlns="http://www.w3.org/2000/svg"><clipPath id="p.0"><path d="m0 0l438.16797 0l0 131.91077l-438.16797 0l0 -131.91077z" clip-rule="nonzero"/></clipPath><g clip-path="url(#p.0)"><path fill="#000000" fill-opacity="0.0" d="m0 0l438.16797 0l0 131.91077l-438.16797 0z" fill-rule="evenodd"/><path fill="#000000" fill-opacity="0.0" d="m188.8809 17.213013l41.70079 24.0" fill-rule="evenodd"/><path stroke="#000000" stroke-width="1.0" stroke-linejoin="round" stroke-linecap="butt" d="m188.8809 17.213013l41.70079 24.0" fill-rule="evenodd"/><path fill="#000000" fill-opacity="0.0" d="m188.8809 17.213013l41.70079 72.0" fill-rule="evenodd"/><path stroke="#000000" stroke-width="1.0" stroke-linejoin="round" stroke-linecap="butt" d="m188.8809 17.213013l41.70079 72.0" fill-rule="evenodd"/><path fill="#000000" fill-opacity="0.0" d="m188.8809 41.213013l41.70079 0" fill-rule="evenodd"/><path stroke="#000000" stroke-width="1.0" stroke-linejoin="round" stroke-linecap="butt" d="m188.8809 41.213013l41.70079 0" fill-rule="evenodd"/><path fill="#000000" fill-opacity="0.0" d="m188.8809 41.213013l41.70079 48.0" fill-rule="evenodd"/><path stroke="#000000" stroke-width="1.0" stroke-linejoin="round" stroke-linecap="butt" d="m188.8809 41.213013l41.70079 48.0" fill-rule="evenodd"/><path fill="#000000" fill-opacity="0.0" d="m188.8809 89.21301l41.70079 -48.0" fill-rule="evenodd"/><path stroke="#000000" stroke-width="1.0" stroke-linejoin="round" stroke-linecap="butt" d="m188.8809 89.21301l41.70079 -48.0" fill-rule="evenodd"/><path fill="#000000" fill-opacity="0.0" d="m188.8809 89.21301l41.70079 0" fill-rule="evenodd"/><path stroke="#000000" stroke-width="1.0" stroke-linejoin="round" stroke-linecap="butt" d="m188.8809 89.21301l41.70079 0" fill-rule="evenodd"/><path fill="#000000" fill-opacity="0.0" d="m188.8809 113.21301l41.70079 -24.0" fill-rule="evenodd"/><path stroke="#000000" stroke-width="1.0" stroke-linejoin="round" stroke-linecap="butt" d="m188.8809 113.21301l41.70079 -24.0" fill-rule="evenodd"/><path fill="#000000" fill-opacity="0.0" d="m188.8809 113.21301l41.70079 -72.0" fill-rule="evenodd"/><path stroke="#000000" stroke-width="1.0" stroke-linejoin="round" stroke-linecap="butt" d="m188.8809 113.21301l41.70079 -72.0" fill-rule="evenodd"/><path fill="#000000" fill-opacity="0.0" d="m174.5817 41.213013l0 0c0 -3.9486198 3.2009888 -7.149605 7.1496124 -7.149605l0 0c1.8961945 0 3.7147217 0.75325775 5.0555267 2.0940704c1.3408203 1.3408089 2.0940704 3.15934 2.0940704 5.0555344l0 0c0 3.9486198 -3.2009888 7.149605 -7.149597 7.149605l0 0c-3.9486237 0 -7.1496124 -3.200985 -7.1496124 -7.149605z" fill-rule="evenodd"/><path stroke="#000000" stroke-width="1.0" stroke-linejoin="round" stroke-linecap="butt" d="m174.5817 41.213013l0 0c0 -3.9486198 3.2009888 -7.149605 7.1496124 -7.149605l0 0c1.8961945 0 3.7147217 0.75325775 5.0555267 2.0940704c1.3408203 1.3408089 2.0940704 3.15934 2.0940704 5.0555344l0 0c0 3.9486198 -3.2009888 7.149605 -7.149597 7.149605l0 0c-3.9486237 0 -7.1496124 -3.200985 -7.1496124 -7.149605z" fill-rule="evenodd"/><path fill="#000000" fill-opacity="0.0" d="m174.5817 89.21301l0 0c0 -3.948616 3.2009888 -7.149605 7.1496124 -7.149605l0 0c1.8961945 0 3.7147217 0.75325775 5.0555267 2.0940704c1.3408203 1.3408127 2.0940704 3.15934 2.0940704 5.0555344l0 0c0 3.948616 -3.2009888 7.149605 -7.149597 7.149605l0 0c-3.9486237 0 -7.1496124 -3.2009888 -7.1496124 -7.149605z" fill-rule="evenodd"/><path stroke="#000000" stroke-width="1.0" stroke-linejoin="round" stroke-linecap="butt" d="m174.5817 89.21301l0 0c0 -3.948616 3.2009888 -7.149605 7.1496124 -7.149605l0 0c1.8961945 0 3.7147217 0.75325775 5.0555267 2.0940704c1.3408203 1.3408127 2.0940704 3.15934 2.0940704 5.0555344l0 0c0 3.948616 -3.2009888 7.149605 -7.149597 7.149605l0 0c-3.9486237 0 -7.1496124 -3.2009888 -7.1496124 -7.149605z" fill-rule="evenodd"/><path fill="#000000" fill-opacity="0.0" d="m174.5817 17.213013l0 0c0 -3.948618 3.2009888 -7.1496058 7.1496124 -7.1496058l0 0c1.8961945 0 3.7147217 0.75325966 5.0555267 2.0940704c1.3408203 1.3408117 2.0940704 3.1593418 2.0940704 5.0555353l0 0c0 3.948618 -3.2009888 7.1496067 -7.149597 7.1496067l0 0c-3.9486237 0 -7.1496124 -3.2009888 -7.1496124 -7.1496067z" fill-rule="evenodd"/><path stroke="#000000" stroke-width="1.0" stroke-linejoin="round" stroke-linecap="butt" d="m174.5817 17.213013l0 0c0 -3.948618 3.2009888 -7.1496058 7.1496124 -7.1496058l0 0c1.8961945 0 3.7147217 0.75325966 5.0555267 2.0940704c1.3408203 1.3408117 2.0940704 3.1593418 2.0940704 5.0555353l0 0c0 3.948618 -3.2009888 7.1496067 -7.149597 7.1496067l0 0c-3.9486237 0 -7.1496124 -3.2009888 -7.1496124 -7.1496067z" fill-rule="evenodd"/><path fill="#000000" fill-opacity="0.0" d="m174.5817 113.21301l0 0c0 -3.948616 3.2009888 -7.149605 7.1496124 -7.149605l0 0c1.8961945 0 3.7147217 0.75325775 5.0555267 2.0940704c1.3408203 1.3408127 2.0940704 3.15934 2.0940704 5.0555344l0 0c0 3.948616 -3.2009888 7.149605 -7.149597 7.149605l0 0c-3.9486237 0 -7.1496124 -3.2009888 -7.1496124 -7.149605z" fill-rule="evenodd"/><path stroke="#000000" stroke-width="1.0" stroke-linejoin="round" stroke-linecap="butt" d="m174.5817 113.21301l0 0c0 -3.948616 3.2009888 -7.149605 7.1496124 -7.149605l0 0c1.8961945 0 3.7147217 0.75325775 5.0555267 2.0940704c1.3408203 1.3408127 2.0940704 3.15934 2.0940704 5.0555344l0 0c0 3.948616 -3.2009888 7.149605 -7.149597 7.149605l0 0c-3.9486237 0 -7.1496124 -3.2009888 -7.1496124 -7.149605z" fill-rule="evenodd"/><path fill="#000000" fill-opacity="0.0" d="m406.91086 58.56699l29.669281 0l0 13.29134l-29.669281 0z" fill-rule="evenodd"/><path fill="#000000" d="m416.9639 77.085785q0.3125 -0.765625 0.46875 -1.40625l0.21875 0q0.453125 0.484375 0.96875 0.484375q0.640625 0 1.109375 -0.65625q0.484375 -0.640625 1.359375 -2.828125q-0.34375 -0.96875 -0.703125 -1.84375l-1.4375 -3.578125q-0.234375 -0.5625 -0.6875 -1.59375q-0.4375 -1.03125 -0.53125 -1.140625q-0.078125 -0.109375 -0.21875 -0.1875q-0.140625 -0.09375 -0.734375 -0.1875l-0.078125 -0.0625l0 -0.3750038l0.09375 -0.0625q1.046875 0.0625 2.140625 0.0625q1.296875 0 2.0 -0.0625l0.078125 0.0625l0 0.3750038l-0.078125 0.0625q-0.09375 0.015625 -0.5625 0.046875q-0.453125 0.03125 -0.5625 0.15625q-0.109375 0.109375 -0.109375 0.25q0 0.15625 0.28125 1.015625q0.28125 0.84375 0.546875 1.5l0.5625 1.421875q0.5625 1.390625 0.875 2.0625l0.484375 -1.0625q0.265625 -0.578125 0.734375 -1.765625l0.75 -1.9375q0.296875 -0.75 0.328125 -0.921875q0.046875 -0.1875 0.046875 -0.265625q0 -0.203125 -0.15625 -0.265625q-0.140625 -0.078125 -0.640625 -0.140625l-0.375 -0.046875l-0.0625 -0.078125l0 -0.4062538l0.078125 -0.0625q0.75 0.0625 1.8125 0.0625q0.953125 0 1.515625 -0.0625l0.078125 0.0625l0 0.4062538l-0.078125 0.078125q-0.328125 0 -0.53125 0.09375q-0.203125 0.078125 -0.390625 0.296875q-0.171875 0.203125 -0.65625 1.171875q-0.46875 0.96875 -0.9375 2.0l-0.890625 1.96875l-2.109375 4.90625q-0.265625 0.640625 -0.671875 1.359375q-0.40625 0.734375 -1.0 1.0625q-0.578125 0.328125 -1.234375 0.328125q-0.578125 0 -1.09375 -0.296875zm4.875 -14.203129l0 0zm2.140625 9.796879l0 0z" fill-rule="nonzero"/><path fill="#000000" fill-opacity="0.0" d="m188.8809 17.213013l41.70079 0" fill-rule="evenodd"/><path stroke="#000000" stroke-width="1.0" stroke-linejoin="round" stroke-linecap="butt" d="m188.8809 17.213013l41.70079 0" fill-rule="evenodd"/><path fill="#000000" fill-opacity="0.0" d="m188.8809 17.213013l41.70079 96.0" fill-rule="evenodd"/><path stroke="#000000" stroke-width="1.0" stroke-linejoin="round" stroke-linecap="butt" d="m188.8809 17.213013l41.70079 96.0" fill-rule="evenodd"/><path fill="#000000" fill-opacity="0.0" d="m188.8809 113.21301l41.70079 0" fill-rule="evenodd"/><path stroke="#000000" stroke-width="1.0" stroke-linejoin="round" stroke-linecap="butt" d="m188.8809 113.21301l41.70079 0" fill-rule="evenodd"/><path fill="#000000" fill-opacity="0.0" d="m188.8809 113.21301l41.70079 -96.0" fill-rule="evenodd"/><path stroke="#000000" stroke-width="1.0" stroke-linejoin="round" stroke-linecap="butt" d="m188.8809 113.21301l41.70079 -96.0" fill-rule="evenodd"/><path fill="#000000" fill-opacity="0.0" d="m188.8809 41.213013l41.70079 -24.0" fill-rule="evenodd"/><path stroke="#000000" stroke-width="1.0" stroke-linejoin="round" stroke-linecap="butt" d="m188.8809 41.213013l41.70079 -24.0" fill-rule="evenodd"/><path fill="#000000" fill-opacity="0.0" d="m188.8809 41.213013l41.70079 72.0" fill-rule="evenodd"/><path stroke="#000000" stroke-width="1.0" stroke-linejoin="round" stroke-linecap="butt" d="m188.8809 41.213013l41.70079 72.0" fill-rule="evenodd"/><path fill="#000000" fill-opacity="0.0" d="m188.8809 89.21301l41.70079 24.0" fill-rule="evenodd"/><path stroke="#000000" stroke-width="1.0" stroke-linejoin="round" stroke-linecap="butt" d="m188.8809 89.21301l41.70079 24.0" fill-rule="evenodd"/><path fill="#000000" fill-opacity="0.0" d="m188.8809 89.21301l41.70079 -72.0" fill-rule="evenodd"/><path stroke="#000000" stroke-width="1.0" stroke-linejoin="round" stroke-linecap="butt" d="m188.8809 89.21301l41.70079 -72.0" fill-rule="evenodd"/><path fill="#000000" fill-opacity="0.0" d="m164.17865 83.22835l0 -36.031498l26.425201 0l0 36.031498z" fill-rule="evenodd"/><path fill="#000000" d="m182.19125 69.56396l-1.328125 0l0 -1.34375l1.328125 0l0 1.34375zm0 -3.7029877l-1.328125 0l0 -1.34375l1.328125 0l0 1.34375zm0 -3.7029877l-1.328125 0l0 -1.34375l1.328125 0l0 1.34375z" fill-rule="nonzero"/><path fill="#000000" fill-opacity="0.0" d="m230.5817 41.213013l0 0c0 -3.9486198 3.2009888 -7.149605 7.1496124 -7.149605l0 0c1.8961945 0 3.7147217 0.75325775 5.0555267 2.0940704c1.3408203 1.3408089 2.0940704 3.15934 2.0940704 5.0555344l0 0c0 3.9486198 -3.2009888 7.149605 -7.149597 7.149605l0 0c-3.9486237 0 -7.1496124 -3.200985 -7.1496124 -7.149605z" fill-rule="evenodd"/><path stroke="#000000" stroke-width="1.0" stroke-linejoin="round" stroke-linecap="butt" d="m230.5817 41.213013l0 0c0 -3.9486198 3.2009888 -7.149605 7.1496124 -7.149605l0 0c1.8961945 0 3.7147217 0.75325775 5.0555267 2.0940704c1.3408203 1.3408089 2.0940704 3.15934 2.0940704 5.0555344l0 0c0 3.9486198 -3.2009888 7.149605 -7.149597 7.149605l0 0c-3.9486237 0 -7.1496124 -3.200985 -7.1496124 -7.149605z" fill-rule="evenodd"/><path fill="#000000" fill-opacity="0.0" d="m230.5817 89.21301l0 0c0 -3.948616 3.2009888 -7.149605 7.1496124 -7.149605l0 0c1.8961945 0 3.7147217 0.75325775 5.0555267 2.0940704c1.3408203 1.3408127 2.0940704 3.15934 2.0940704 5.0555344l0 0c0 3.948616 -3.2009888 7.149605 -7.149597 7.149605l0 0c-3.9486237 0 -7.1496124 -3.2009888 -7.1496124 -7.149605z" fill-rule="evenodd"/><path stroke="#000000" stroke-width="1.0" stroke-linejoin="round" stroke-linecap="butt" d="m230.5817 89.21301l0 0c0 -3.948616 3.2009888 -7.149605 7.1496124 -7.149605l0 0c1.8961945 0 3.7147217 0.75325775 5.0555267 2.0940704c1.3408203 1.3408127 2.0940704 3.15934 2.0940704 5.0555344l0 0c0 3.948616 -3.2009888 7.149605 -7.149597 7.149605l0 0c-3.9486237 0 -7.1496124 -3.2009888 -7.1496124 -7.149605z" fill-rule="evenodd"/><path fill="#000000" fill-opacity="0.0" d="m230.5817 17.213013l0 0c0 -3.948618 3.2009888 -7.1496058 7.1496124 -7.1496058l0 0c1.8961945 0 3.7147217 0.75325966 5.0555267 2.0940704c1.3408203 1.3408117 2.0940704 3.1593418 2.0940704 5.0555353l0 0c0 3.948618 -3.2009888 7.1496067 -7.149597 7.1496067l0 0c-3.9486237 0 -7.1496124 -3.2009888 -7.1496124 -7.1496067z" fill-rule="evenodd"/><path stroke="#000000" stroke-width="1.0" stroke-linejoin="round" stroke-linecap="butt" d="m230.5817 17.213013l0 0c0 -3.948618 3.2009888 -7.1496058 7.1496124 -7.1496058l0 0c1.8961945 0 3.7147217 0.75325966 5.0555267 2.0940704c1.3408203 1.3408117 2.0940704 3.1593418 2.0940704 5.0555353l0 0c0 3.948618 -3.2009888 7.1496067 -7.149597 7.1496067l0 0c-3.9486237 0 -7.1496124 -3.2009888 -7.1496124 -7.1496067z" fill-rule="evenodd"/><path fill="#000000" fill-opacity="0.0" d="m230.5817 113.21301l0 0c0 -3.948616 3.2009888 -7.149605 7.1496124 -7.149605l0 0c1.8961945 0 3.7147217 0.75325775 5.0555267 2.0940704c1.3408203 1.3408127 2.0940704 3.15934 2.0940704 5.0555344l0 0c0 3.948616 -3.2009888 7.149605 -7.149597 7.149605l0 0c-3.9486237 0 -7.1496124 -3.2009888 -7.1496124 -7.149605z" fill-rule="evenodd"/><path stroke="#000000" stroke-width="1.0" stroke-linejoin="round" stroke-linecap="butt" d="m230.5817 113.21301l0 0c0 -3.948616 3.2009888 -7.149605 7.1496124 -7.149605l0 0c1.8961945 0 3.7147217 0.75325775 5.0555267 2.0940704c1.3408203 1.3408127 2.0940704 3.15934 2.0940704 5.0555344l0 0c0 3.948616 -3.2009888 7.149605 -7.149597 7.149605l0 0c-3.9486237 0 -7.1496124 -3.2009888 -7.1496124 -7.149605z" fill-rule="evenodd"/><path fill="#000000" fill-opacity="0.0" d="m220.17865 83.22835l0 -36.031498l26.425201 0l0 36.031498z" fill-rule="evenodd"/><path fill="#000000" d="m238.19125 69.56396l-1.328125 0l0 -1.34375l1.328125 0l0 1.34375zm0 -3.7029877l-1.328125 0l0 -1.34375l1.328125 0l0 1.34375zm0 -3.7029877l-1.328125 0l0 -1.34375l1.328125 0l0 1.34375z" fill-rule="nonzero"/><path fill="#000000" fill-opacity="0.0" d="m244.8809 17.213013l41.70079 24.0" fill-rule="evenodd"/><path stroke="#000000" stroke-width="1.0" stroke-linejoin="round" stroke-linecap="butt" d="m244.8809 17.213013l41.70079 24.0" fill-rule="evenodd"/><path fill="#000000" fill-opacity="0.0" d="m244.8809 17.213013l41.70079 72.0" fill-rule="evenodd"/><path stroke="#000000" stroke-width="1.0" stroke-linejoin="round" stroke-linecap="butt" d="m244.8809 17.213013l41.70079 72.0" fill-rule="evenodd"/><path fill="#000000" fill-opacity="0.0" d="m244.8809 41.213013l41.70079 0" fill-rule="evenodd"/><path stroke="#000000" stroke-width="1.0" stroke-linejoin="round" stroke-linecap="butt" d="m244.8809 41.213013l41.70079 0" fill-rule="evenodd"/><path fill="#000000" fill-opacity="0.0" d="m244.8809 41.213013l41.70079 48.0" fill-rule="evenodd"/><path stroke="#000000" stroke-width="1.0" stroke-linejoin="round" stroke-linecap="butt" d="m244.8809 41.213013l41.70079 48.0" fill-rule="evenodd"/><path fill="#000000" fill-opacity="0.0" d="m244.8809 89.21301l41.70079 -48.0" fill-rule="evenodd"/><path stroke="#000000" stroke-width="1.0" stroke-linejoin="round" stroke-linecap="butt" d="m244.8809 89.21301l41.70079 -48.0" fill-rule="evenodd"/><path fill="#000000" fill-opacity="0.0" d="m244.8809 89.21301l41.70079 0" fill-rule="evenodd"/><path stroke="#000000" stroke-width="1.0" stroke-linejoin="round" stroke-linecap="butt" d="m244.8809 89.21301l41.70079 0" fill-rule="evenodd"/><path fill="#000000" fill-opacity="0.0" d="m244.8809 113.21301l41.70079 -24.0" fill-rule="evenodd"/><path stroke="#000000" stroke-width="1.0" stroke-linejoin="round" stroke-linecap="butt" d="m244.8809 113.21301l41.70079 -24.0" fill-rule="evenodd"/><path fill="#000000" fill-opacity="0.0" d="m244.8809 113.21301l41.70079 -72.0" fill-rule="evenodd"/><path stroke="#000000" stroke-width="1.0" stroke-linejoin="round" stroke-linecap="butt" d="m244.8809 113.21301l41.70079 -72.0" fill-rule="evenodd"/><path fill="#000000" fill-opacity="0.0" d="m244.8809 17.213013l41.70079 0" fill-rule="evenodd"/><path stroke="#000000" stroke-width="1.0" stroke-linejoin="round" stroke-linecap="butt" d="m244.8809 17.213013l41.70079 0" fill-rule="evenodd"/><path fill="#000000" fill-opacity="0.0" d="m244.8809 17.213013l41.70079 96.0" fill-rule="evenodd"/><path stroke="#000000" stroke-width="1.0" stroke-linejoin="round" stroke-linecap="butt" d="m244.8809 17.213013l41.70079 96.0" fill-rule="evenodd"/><path fill="#000000" fill-opacity="0.0" d="m244.8809 113.21301l41.70079 0" fill-rule="evenodd"/><path stroke="#000000" stroke-width="1.0" stroke-linejoin="round" stroke-linecap="butt" d="m244.8809 113.21301l41.70079 0" fill-rule="evenodd"/><path fill="#000000" fill-opacity="0.0" d="m244.8809 113.21301l41.70079 -96.0" fill-rule="evenodd"/><path stroke="#000000" stroke-width="1.0" stroke-linejoin="round" stroke-linecap="butt" d="m244.8809 113.21301l41.70079 -96.0" fill-rule="evenodd"/><path fill="#000000" fill-opacity="0.0" d="m244.8809 41.213013l41.70079 -24.0" fill-rule="evenodd"/><path stroke="#000000" stroke-width="1.0" stroke-linejoin="round" stroke-linecap="butt" d="m244.8809 41.213013l41.70079 -24.0" fill-rule="evenodd"/><path fill="#000000" fill-opacity="0.0" d="m244.8809 41.213013l41.70079 72.0" fill-rule="evenodd"/><path stroke="#000000" stroke-width="1.0" stroke-linejoin="round" stroke-linecap="butt" d="m244.8809 41.213013l41.70079 72.0" fill-rule="evenodd"/><path fill="#000000" fill-opacity="0.0" d="m244.8809 89.21301l41.70079 24.0" fill-rule="evenodd"/><path stroke="#000000" stroke-width="1.0" stroke-linejoin="round" stroke-linecap="butt" d="m244.8809 89.21301l41.70079 24.0" fill-rule="evenodd"/><path fill="#000000" fill-opacity="0.0" d="m244.8809 89.21301l41.70079 -72.0" fill-rule="evenodd"/><path stroke="#000000" stroke-width="1.0" stroke-linejoin="round" stroke-linecap="butt" d="m244.8809 89.21301l41.70079 -72.0" fill-rule="evenodd"/><path fill="#000000" fill-opacity="0.0" d="m286.5817 41.213013l0 0c0 -3.9486198 3.2009888 -7.149605 7.149597 -7.149605l0 0c1.8962097 0 3.7147217 0.75325775 5.055542 2.0940704c1.3408203 1.3408089 2.0940857 3.15934 2.0940857 5.0555344l0 0c0 3.9486198 -3.2009888 7.149605 -7.1496277 7.149605l0 0c-3.9486084 0 -7.149597 -3.200985 -7.149597 -7.149605z" fill-rule="evenodd"/><path stroke="#000000" stroke-width="1.0" stroke-linejoin="round" stroke-linecap="butt" d="m286.5817 41.213013l0 0c0 -3.9486198 3.2009888 -7.149605 7.149597 -7.149605l0 0c1.8962097 0 3.7147217 0.75325775 5.055542 2.0940704c1.3408203 1.3408089 2.0940857 3.15934 2.0940857 5.0555344l0 0c0 3.9486198 -3.2009888 7.149605 -7.1496277 7.149605l0 0c-3.9486084 0 -7.149597 -3.200985 -7.149597 -7.149605z" fill-rule="evenodd"/><path fill="#000000" fill-opacity="0.0" d="m286.5817 89.21301l0 0c0 -3.948616 3.2009888 -7.149605 7.149597 -7.149605l0 0c1.8962097 0 3.7147217 0.75325775 5.055542 2.0940704c1.3408203 1.3408127 2.0940857 3.15934 2.0940857 5.0555344l0 0c0 3.948616 -3.2009888 7.149605 -7.1496277 7.149605l0 0c-3.9486084 0 -7.149597 -3.2009888 -7.149597 -7.149605z" fill-rule="evenodd"/><path stroke="#000000" stroke-width="1.0" stroke-linejoin="round" stroke-linecap="butt" d="m286.5817 89.21301l0 0c0 -3.948616 3.2009888 -7.149605 7.149597 -7.149605l0 0c1.8962097 0 3.7147217 0.75325775 5.055542 2.0940704c1.3408203 1.3408127 2.0940857 3.15934 2.0940857 5.0555344l0 0c0 3.948616 -3.2009888 7.149605 -7.1496277 7.149605l0 0c-3.9486084 0 -7.149597 -3.2009888 -7.149597 -7.149605z" fill-rule="evenodd"/><path fill="#000000" fill-opacity="0.0" d="m286.5817 17.213013l0 0c0 -3.948618 3.2009888 -7.1496058 7.149597 -7.1496058l0 0c1.8962097 0 3.7147217 0.75325966 5.055542 2.0940704c1.3408203 1.3408117 2.0940857 3.1593418 2.0940857 5.0555353l0 0c0 3.948618 -3.2009888 7.1496067 -7.1496277 7.1496067l0 0c-3.9486084 0 -7.149597 -3.2009888 -7.149597 -7.1496067z" fill-rule="evenodd"/><path stroke="#000000" stroke-width="1.0" stroke-linejoin="round" stroke-linecap="butt" d="m286.5817 17.213013l0 0c0 -3.948618 3.2009888 -7.1496058 7.149597 -7.1496058l0 0c1.8962097 0 3.7147217 0.75325966 5.055542 2.0940704c1.3408203 1.3408117 2.0940857 3.1593418 2.0940857 5.0555353l0 0c0 3.948618 -3.2009888 7.1496067 -7.1496277 7.1496067l0 0c-3.9486084 0 -7.149597 -3.2009888 -7.149597 -7.1496067z" fill-rule="evenodd"/><path fill="#000000" fill-opacity="0.0" d="m286.5817 113.21301l0 0c0 -3.948616 3.2009888 -7.149605 7.149597 -7.149605l0 0c1.8962097 0 3.7147217 0.75325775 5.055542 2.0940704c1.3408203 1.3408127 2.0940857 3.15934 2.0940857 5.0555344l0 0c0 3.948616 -3.2009888 7.149605 -7.1496277 7.149605l0 0c-3.9486084 0 -7.149597 -3.2009888 -7.149597 -7.149605z" fill-rule="evenodd"/><path stroke="#000000" stroke-width="1.0" stroke-linejoin="round" stroke-linecap="butt" d="m286.5817 113.21301l0 0c0 -3.948616 3.2009888 -7.149605 7.149597 -7.149605l0 0c1.8962097 0 3.7147217 0.75325775 5.055542 2.0940704c1.3408203 1.3408127 2.0940857 3.15934 2.0940857 5.0555344l0 0c0 3.948616 -3.2009888 7.149605 -7.1496277 7.149605l0 0c-3.9486084 0 -7.149597 -3.2009888 -7.149597 -7.149605z" fill-rule="evenodd"/><path fill="#000000" fill-opacity="0.0" d="m276.17865 83.22835l0 -36.031498l26.425201 0l0 36.031498z" fill-rule="evenodd"/><path fill="#000000" d="m294.19125 69.56396l-1.328125 0l0 -1.34375l1.328125 0l0 1.34375zm0 -3.7029877l-1.328125 0l0 -1.34375l1.328125 0l0 1.34375zm0 -3.7029877l-1.328125 0l0 -1.34375l1.328125 0l0 1.34375z" fill-rule="nonzero"/><path fill="#000000" fill-opacity="0.0" d="m342.5817 65.21301l0 0c0 -3.9486198 3.2009888 -7.149605 7.149597 -7.149605l0 0c1.8962097 0 3.7147217 0.75325775 5.055542 2.0940704c1.3408203 1.3408089 2.0940857 3.15934 2.0940857 5.0555344l0 0c0 3.948616 -3.2009888 7.149605 -7.1496277 7.149605l0 0c-3.9486084 0 -7.149597 -3.2009888 -7.149597 -7.149605z" fill-rule="evenodd"/><path stroke="#000000" stroke-width="1.0" stroke-linejoin="round" stroke-linecap="butt" d="m342.5817 65.21301l0 0c0 -3.9486198 3.2009888 -7.149605 7.149597 -7.149605l0 0c1.8962097 0 3.7147217 0.75325775 5.055542 2.0940704c1.3408203 1.3408089 2.0940857 3.15934 2.0940857 5.0555344l0 0c0 3.948616 -3.2009888 7.149605 -7.1496277 7.149605l0 0c-3.9486084 0 -7.149597 -3.2009888 -7.149597 -7.149605z" fill-rule="evenodd"/><path fill="#000000" fill-opacity="0.0" d="m300.88092 17.213013l41.700775 48.0" fill-rule="evenodd"/><path stroke="#000000" stroke-width="1.0" stroke-linejoin="round" stroke-linecap="butt" d="m300.88092 17.213013l41.700775 48.0" fill-rule="evenodd"/><path fill="#000000" fill-opacity="0.0" d="m300.88092 41.213013l41.700775 24.0" fill-rule="evenodd"/><path stroke="#000000" stroke-width="1.0" stroke-linejoin="round" stroke-linecap="butt" d="m300.88092 41.213013l41.700775 24.0" fill-rule="evenodd"/><path fill="#000000" fill-opacity="0.0" d="m300.88092 89.21301l41.700775 -24.0" fill-rule="evenodd"/><path stroke="#000000" stroke-width="1.0" stroke-linejoin="round" stroke-linecap="butt" d="m300.88092 89.21301l41.700775 -24.0" fill-rule="evenodd"/><path fill="#000000" fill-opacity="0.0" d="m300.88092 113.21301l41.700775 -48.0" fill-rule="evenodd"/><path stroke="#000000" stroke-width="1.0" stroke-linejoin="round" stroke-linecap="butt" d="m300.88092 113.21301l41.700775 -48.0" fill-rule="evenodd"/><path fill="#000000" fill-opacity="0.0" d="m356.88092 65.21301l50.015747 0" fill-rule="evenodd"/><path stroke="#000000" stroke-width="1.0" stroke-linejoin="round" stroke-linecap="butt" d="m356.88092 65.21301l46.588654 0" fill-rule="evenodd"/><path fill="#000000" stroke="#000000" stroke-width="1.0" stroke-linecap="butt" d="m403.46957 65.21301l-1.1246033 1.124588l3.0897827 -1.124588l-3.0897827 -1.1245804z" fill-rule="evenodd"/><path fill="#000000" fill-opacity="0.0" d="m76.88091 41.213013l41.700783 -24.0" fill-rule="evenodd"/><path stroke="#000000" stroke-width="1.0" stroke-linejoin="round" stroke-linecap="butt" d="m76.88091 41.213013l41.700783 -24.0" fill-rule="evenodd"/><path fill="#000000" fill-opacity="0.0" d="m76.88091 41.213013l41.700783 0" fill-rule="evenodd"/><path stroke="#000000" stroke-width="1.0" stroke-linejoin="round" stroke-linecap="butt" d="m76.88091 41.213013l41.700783 0" fill-rule="evenodd"/><path fill="#000000" fill-opacity="0.0" d="m76.88091 41.213013l41.700783 48.0" fill-rule="evenodd"/><path stroke="#000000" stroke-width="1.0" stroke-linejoin="round" stroke-linecap="butt" d="m76.88091 41.213013l41.700783 48.0" fill-rule="evenodd"/><path fill="#000000" fill-opacity="0.0" d="m76.88091 41.213013l41.700783 72.0" fill-rule="evenodd"/><path stroke="#000000" stroke-width="1.0" stroke-linejoin="round" stroke-linecap="butt" d="m76.88091 41.213013l41.700783 72.0" fill-rule="evenodd"/><path fill="#000000" fill-opacity="0.0" d="m76.88091 65.21301l41.700783 -48.0" fill-rule="evenodd"/><path stroke="#000000" stroke-width="1.0" stroke-linejoin="round" stroke-linecap="butt" d="m76.88091 65.21301l41.700783 -48.0" fill-rule="evenodd"/><path fill="#000000" fill-opacity="0.0" d="m76.88091 65.21301l41.700783 -24.0" fill-rule="evenodd"/><path stroke="#000000" stroke-width="1.0" stroke-linejoin="round" stroke-linecap="butt" d="m76.88091 65.21301l41.700783 -24.0" fill-rule="evenodd"/><path fill="#000000" fill-opacity="0.0" d="m76.88091 65.21301l41.700783 24.0" fill-rule="evenodd"/><path stroke="#000000" stroke-width="1.0" stroke-linejoin="round" stroke-linecap="butt" d="m76.88091 65.21301l41.700783 24.0" fill-rule="evenodd"/><path fill="#000000" fill-opacity="0.0" d="m76.88091 65.21301l41.700783 48.0" fill-rule="evenodd"/><path stroke="#000000" stroke-width="1.0" stroke-linejoin="round" stroke-linecap="butt" d="m76.88091 65.21301l41.700783 48.0" fill-rule="evenodd"/><path fill="#000000" fill-opacity="0.0" d="m76.88091 89.21301l41.700783 -72.0" fill-rule="evenodd"/><path stroke="#000000" stroke-width="1.0" stroke-linejoin="round" stroke-linecap="butt" d="m76.88091 89.21301l41.700783 -72.0" fill-rule="evenodd"/><path fill="#000000" fill-opacity="0.0" d="m76.88091 89.21301l41.700783 -48.0" fill-rule="evenodd"/><path stroke="#000000" stroke-width="1.0" stroke-linejoin="round" stroke-linecap="butt" d="m76.88091 89.21301l41.700783 -48.0" fill-rule="evenodd"/><path fill="#000000" fill-opacity="0.0" d="m76.88091 89.21301l41.700783 0" fill-rule="evenodd"/><path stroke="#000000" stroke-width="1.0" stroke-linejoin="round" stroke-linecap="butt" d="m76.88091 89.21301l41.700783 0" fill-rule="evenodd"/><path fill="#000000" fill-opacity="0.0" d="m76.88091 89.21301l41.700783 24.0" fill-rule="evenodd"/><path stroke="#000000" stroke-width="1.0" stroke-linejoin="round" stroke-linecap="butt" d="m76.88091 89.21301l41.700783 24.0" fill-rule="evenodd"/><path fill="#000000" fill-opacity="0.0" d="m132.8809 17.213013l41.70079 24.0" fill-rule="evenodd"/><path stroke="#000000" stroke-width="1.0" stroke-linejoin="round" stroke-linecap="butt" d="m132.8809 17.213013l41.70079 24.0" fill-rule="evenodd"/><path fill="#000000" fill-opacity="0.0" d="m132.8809 17.213013l41.70079 72.0" fill-rule="evenodd"/><path stroke="#000000" stroke-width="1.0" stroke-linejoin="round" stroke-linecap="butt" d="m132.8809 17.213013l41.70079 72.0" fill-rule="evenodd"/><path fill="#000000" fill-opacity="0.0" d="m132.8809 41.213013l41.70079 0" fill-rule="evenodd"/><path stroke="#000000" stroke-width="1.0" stroke-linejoin="round" stroke-linecap="butt" d="m132.8809 41.213013l41.70079 0" fill-rule="evenodd"/><path fill="#000000" fill-opacity="0.0" d="m132.8809 41.213013l41.70079 48.0" fill-rule="evenodd"/><path stroke="#000000" stroke-width="1.0" stroke-linejoin="round" stroke-linecap="butt" d="m132.8809 41.213013l41.70079 48.0" fill-rule="evenodd"/><path fill="#000000" fill-opacity="0.0" d="m132.8809 89.21301l41.70079 -48.0" fill-rule="evenodd"/><path stroke="#000000" stroke-width="1.0" stroke-linejoin="round" stroke-linecap="butt" d="m132.8809 89.21301l41.70079 -48.0" fill-rule="evenodd"/><path fill="#000000" fill-opacity="0.0" d="m132.8809 89.21301l41.70079 0" fill-rule="evenodd"/><path stroke="#000000" stroke-width="1.0" stroke-linejoin="round" stroke-linecap="butt" d="m132.8809 89.21301l41.70079 0" fill-rule="evenodd"/><path fill="#000000" fill-opacity="0.0" d="m132.8809 113.21301l41.70079 -24.0" fill-rule="evenodd"/><path stroke="#000000" stroke-width="1.0" stroke-linejoin="round" stroke-linecap="butt" d="m132.8809 113.21301l41.70079 -24.0" fill-rule="evenodd"/><path fill="#000000" fill-opacity="0.0" d="m132.8809 113.21301l41.70079 -72.0" fill-rule="evenodd"/><path stroke="#000000" stroke-width="1.0" stroke-linejoin="round" stroke-linecap="butt" d="m132.8809 113.21301l41.70079 -72.0" fill-rule="evenodd"/><path fill="#000000" fill-opacity="0.0" d="m62.5817 41.213013l0 0c0 -3.9486198 3.200985 -7.149605 7.1496086 -7.149605l0 0c1.8961868 0 3.7147217 0.75325775 5.0555344 2.0940704c1.340805 1.3408089 2.0940704 3.15934 2.0940704 5.0555344l0 0c0 3.9486198 -3.2009888 7.149605 -7.149605 7.149605l0 0c-3.9486237 0 -7.1496086 -3.200985 -7.1496086 -7.149605z" fill-rule="evenodd"/><path stroke="#000000" stroke-width="1.0" stroke-linejoin="round" stroke-linecap="butt" d="m62.5817 41.213013l0 0c0 -3.9486198 3.200985 -7.149605 7.1496086 -7.149605l0 0c1.8961868 0 3.7147217 0.75325775 5.0555344 2.0940704c1.340805 1.3408089 2.0940704 3.15934 2.0940704 5.0555344l0 0c0 3.9486198 -3.2009888 7.149605 -7.149605 7.149605l0 0c-3.9486237 0 -7.1496086 -3.200985 -7.1496086 -7.149605z" fill-rule="evenodd"/><path fill="#000000" fill-opacity="0.0" d="m62.5817 65.21301l0 0c0 -3.9486198 3.200985 -7.149605 7.1496086 -7.149605l0 0c1.8961868 0 3.7147217 0.75325775 5.0555344 2.0940704c1.340805 1.3408089 2.0940704 3.15934 2.0940704 5.0555344l0 0c0 3.948616 -3.2009888 7.149605 -7.149605 7.149605l0 0c-3.9486237 0 -7.1496086 -3.2009888 -7.1496086 -7.149605z" fill-rule="evenodd"/><path stroke="#000000" stroke-width="1.0" stroke-linejoin="round" stroke-linecap="butt" d="m62.5817 65.21301l0 0c0 -3.9486198 3.200985 -7.149605 7.1496086 -7.149605l0 0c1.8961868 0 3.7147217 0.75325775 5.0555344 2.0940704c1.340805 1.3408089 2.0940704 3.15934 2.0940704 5.0555344l0 0c0 3.948616 -3.2009888 7.149605 -7.149605 7.149605l0 0c-3.9486237 0 -7.1496086 -3.2009888 -7.1496086 -7.149605z" fill-rule="evenodd"/><path fill="#000000" fill-opacity="0.0" d="m62.5817 89.21301l0 0c0 -3.948616 3.200985 -7.149605 7.1496086 -7.149605l0 0c1.8961868 0 3.7147217 0.75325775 5.0555344 2.0940704c1.340805 1.3408127 2.0940704 3.15934 2.0940704 5.0555344l0 0c0 3.948616 -3.2009888 7.149605 -7.149605 7.149605l0 0c-3.9486237 0 -7.1496086 -3.2009888 -7.1496086 -7.149605z" fill-rule="evenodd"/><path stroke="#000000" stroke-width="1.0" stroke-linejoin="round" stroke-linecap="butt" d="m62.5817 89.21301l0 0c0 -3.948616 3.200985 -7.149605 7.1496086 -7.149605l0 0c1.8961868 0 3.7147217 0.75325775 5.0555344 2.0940704c1.340805 1.3408127 2.0940704 3.15934 2.0940704 5.0555344l0 0c0 3.948616 -3.2009888 7.149605 -7.149605 7.149605l0 0c-3.9486237 0 -7.1496086 -3.2009888 -7.1496086 -7.149605z" fill-rule="evenodd"/><path fill="#000000" fill-opacity="0.0" d="m118.581696 41.213013l0 0c0 -3.9486198 3.2009888 -7.149605 7.1496124 -7.149605l0 0c1.8961868 0 3.7147217 0.75325775 5.0555267 2.0940704c1.3408203 1.3408089 2.0940704 3.15934 2.0940704 5.0555344l0 0c0 3.9486198 -3.2009888 7.149605 -7.149597 7.149605l0 0c-3.9486237 0 -7.1496124 -3.200985 -7.1496124 -7.149605z" fill-rule="evenodd"/><path stroke="#000000" stroke-width="1.0" stroke-linejoin="round" stroke-linecap="butt" d="m118.581696 41.213013l0 0c0 -3.9486198 3.2009888 -7.149605 7.1496124 -7.149605l0 0c1.8961868 0 3.7147217 0.75325775 5.0555267 2.0940704c1.3408203 1.3408089 2.0940704 3.15934 2.0940704 5.0555344l0 0c0 3.9486198 -3.2009888 7.149605 -7.149597 7.149605l0 0c-3.9486237 0 -7.1496124 -3.200985 -7.1496124 -7.149605z" fill-rule="evenodd"/><path fill="#000000" fill-opacity="0.0" d="m118.581696 89.21301l0 0c0 -3.948616 3.2009888 -7.149605 7.1496124 -7.149605l0 0c1.8961868 0 3.7147217 0.75325775 5.0555267 2.0940704c1.3408203 1.3408127 2.0940704 3.15934 2.0940704 5.0555344l0 0c0 3.948616 -3.2009888 7.149605 -7.149597 7.149605l0 0c-3.9486237 0 -7.1496124 -3.2009888 -7.1496124 -7.149605z" fill-rule="evenodd"/><path stroke="#000000" stroke-width="1.0" stroke-linejoin="round" stroke-linecap="butt" d="m118.581696 89.21301l0 0c0 -3.948616 3.2009888 -7.149605 7.1496124 -7.149605l0 0c1.8961868 0 3.7147217 0.75325775 5.0555267 2.0940704c1.3408203 1.3408127 2.0940704 3.15934 2.0940704 5.0555344l0 0c0 3.948616 -3.2009888 7.149605 -7.149597 7.149605l0 0c-3.9486237 0 -7.1496124 -3.2009888 -7.1496124 -7.149605z" fill-rule="evenodd"/><path fill="#000000" fill-opacity="0.0" d="m118.581696 17.213013l0 0c0 -3.948618 3.2009888 -7.1496058 7.1496124 -7.1496058l0 0c1.8961868 0 3.7147217 0.75325966 5.0555267 2.0940704c1.3408203 1.3408117 2.0940704 3.1593418 2.0940704 5.0555353l0 0c0 3.948618 -3.2009888 7.1496067 -7.149597 7.1496067l0 0c-3.9486237 0 -7.1496124 -3.2009888 -7.1496124 -7.1496067z" fill-rule="evenodd"/><path stroke="#000000" stroke-width="1.0" stroke-linejoin="round" stroke-linecap="butt" d="m118.581696 17.213013l0 0c0 -3.948618 3.2009888 -7.1496058 7.1496124 -7.1496058l0 0c1.8961868 0 3.7147217 0.75325966 5.0555267 2.0940704c1.3408203 1.3408117 2.0940704 3.1593418 2.0940704 5.0555353l0 0c0 3.948618 -3.2009888 7.1496067 -7.149597 7.1496067l0 0c-3.9486237 0 -7.1496124 -3.2009888 -7.1496124 -7.1496067z" fill-rule="evenodd"/><path fill="#000000" fill-opacity="0.0" d="m118.581696 113.21301l0 0c0 -3.948616 3.2009888 -7.149605 7.1496124 -7.149605l0 0c1.8961868 0 3.7147217 0.75325775 5.0555267 2.0940704c1.3408203 1.3408127 2.0940704 3.15934 2.0940704 5.0555344l0 0c0 3.948616 -3.2009888 7.149605 -7.149597 7.149605l0 0c-3.9486237 0 -7.1496124 -3.2009888 -7.1496124 -7.149605z" fill-rule="evenodd"/><path stroke="#000000" stroke-width="1.0" stroke-linejoin="round" stroke-linecap="butt" d="m118.581696 113.21301l0 0c0 -3.948616 3.2009888 -7.149605 7.1496124 -7.149605l0 0c1.8961868 0 3.7147217 0.75325775 5.0555267 2.0940704c1.3408203 1.3408127 2.0940704 3.15934 2.0940704 5.0555344l0 0c0 3.948616 -3.2009888 7.149605 -7.149597 7.149605l0 0c-3.9486237 0 -7.1496124 -3.2009888 -7.1496124 -7.149605z" fill-rule="evenodd"/><path fill="#000000" fill-opacity="0.0" d="m132.8809 17.213013l41.70079 0" fill-rule="evenodd"/><path stroke="#000000" stroke-width="1.0" stroke-linejoin="round" stroke-linecap="butt" d="m132.8809 17.213013l41.70079 0" fill-rule="evenodd"/><path fill="#000000" fill-opacity="0.0" d="m132.8809 17.213013l41.70079 96.0" fill-rule="evenodd"/><path stroke="#000000" stroke-width="1.0" stroke-linejoin="round" stroke-linecap="butt" d="m132.8809 17.213013l41.70079 96.0" fill-rule="evenodd"/><path fill="#000000" fill-opacity="0.0" d="m132.8809 113.21301l41.70079 0" fill-rule="evenodd"/><path stroke="#000000" stroke-width="1.0" stroke-linejoin="round" stroke-linecap="butt" d="m132.8809 113.21301l41.70079 0" fill-rule="evenodd"/><path fill="#000000" fill-opacity="0.0" d="m132.8809 113.21301l41.70079 -96.0" fill-rule="evenodd"/><path stroke="#000000" stroke-width="1.0" stroke-linejoin="round" stroke-linecap="butt" d="m132.8809 113.21301l41.70079 -96.0" fill-rule="evenodd"/><path fill="#000000" fill-opacity="0.0" d="m132.8809 41.213013l41.70079 -24.0" fill-rule="evenodd"/><path stroke="#000000" stroke-width="1.0" stroke-linejoin="round" stroke-linecap="butt" d="m132.8809 41.213013l41.70079 -24.0" fill-rule="evenodd"/><path fill="#000000" fill-opacity="0.0" d="m132.8809 41.213013l41.70079 72.0" fill-rule="evenodd"/><path stroke="#000000" stroke-width="1.0" stroke-linejoin="round" stroke-linecap="butt" d="m132.8809 41.213013l41.70079 72.0" fill-rule="evenodd"/><path fill="#000000" fill-opacity="0.0" d="m132.8809 89.21301l41.70079 24.0" fill-rule="evenodd"/><path stroke="#000000" stroke-width="1.0" stroke-linejoin="round" stroke-linecap="butt" d="m132.8809 89.21301l41.70079 24.0" fill-rule="evenodd"/><path fill="#000000" fill-opacity="0.0" d="m132.8809 89.21301l41.70079 -72.0" fill-rule="evenodd"/><path stroke="#000000" stroke-width="1.0" stroke-linejoin="round" stroke-linecap="butt" d="m132.8809 89.21301l41.70079 -72.0" fill-rule="evenodd"/><path fill="#000000" fill-opacity="0.0" d="m108.17865 83.22835l0 -36.031498l26.425201 0l0 36.031498z" fill-rule="evenodd"/><path fill="#000000" d="m126.19125 69.56396l-1.328125 0l0 -1.34375l1.328125 0l0 1.34375zm0 -3.7029877l-1.328125 0l0 -1.34375l1.328125 0l0 1.34375zm0 -3.7029877l-1.328125 0l0 -1.34375l1.328125 0l0 1.34375z" fill-rule="nonzero"/><path fill="#000000" fill-opacity="0.0" d="m1.0724058 56.36483l22.141731 0l0 13.291336l-22.141731 0z" fill-rule="evenodd"/><path fill="#000000" d="m10.478656 69.993l-0.078125 -0.078125l0 -0.359375l0.078125 -0.078125q0.34375 -0.015625 0.546875 -0.109375q0.21875 -0.09375 0.515625 -0.390625q0.3125 -0.3125 1.09375 -1.265625l1.46875 -1.8125l-0.78125 -1.15625q-0.171875 -0.25 -0.71875 -1.0q-0.53125 -0.75 -0.90625 -1.125q-0.359375 -0.375 -0.546875 -0.46875q-0.171875 -0.09375 -0.34375 -0.09375q-0.09375 0 -0.21875 0.015625l-0.09375 -0.0625l-0.078125 -0.375l0.078125 -0.078125q0.921875 -0.109375 2.046875 -0.359375q0.625 0.53125 1.859375 2.4375l0.671875 1.0625l0.578125 -0.71875q0.65624905 -0.875 1.859374 -2.59375q0.4375 0.0625 0.6875 0.0625q0.234375 0 0.640625 -0.0625l0.078125 0.0625l0 0.375l-0.078125 0.0625q-0.296875 0.03125 -0.4375 0.09375q-0.140625 0.0625 -0.515625 0.421875q-0.359375 0.359375 -0.96875 1.09375l-0.546875 0.65625q-0.15625 0.1875 -0.3125 0.390625l-0.56249905 0.71875l0.328125 0.53125q0.23437405 0.328125 1.093749 1.53125q0.875 1.203125 1.21875 1.609375q0.359375 0.40625 0.515625 0.484375q0.15625 0.0625 0.5 0.0625l0.0625 0.078125l0 0.359375l-0.0625 0.078125q-0.671875 -0.0625 -1.046875 -0.0625q-0.109375 0 -1.15625 0.0625q-0.75 -0.9375 -1.515624 -2.109375l-0.921875 -1.390625q-0.9375 1.0625 -2.515625 3.5q-0.625 -0.0625 -0.734375 -0.0625q-0.1875 0 -0.78125 0.0625z" fill-rule="nonzero"/><path fill="#000000" fill-opacity="0.0" d="m31.565905 41.213013l30.614172 0" fill-rule="evenodd"/><path stroke="#000000" stroke-width="1.0" stroke-linejoin="round" stroke-linecap="butt" d="m31.565905 41.213013l27.187082 0" fill-rule="evenodd"/><path fill="#000000" stroke="#000000" stroke-width="1.0" stroke-linecap="butt" d="m58.75299 41.213013l-1.1245842 1.1245842l3.0897675 -1.1245842l-3.0897675 -1.1245842z" fill-rule="evenodd"/><path fill="#000000" fill-opacity="0.0" d="m31.573778 65.2126l30.614172 0" fill-rule="evenodd"/><path stroke="#000000" stroke-width="1.0" stroke-linejoin="round" stroke-linecap="butt" d="m31.573778 65.2126l27.187086 0" fill-rule="evenodd"/><path fill="#000000" stroke="#000000" stroke-width="1.0" stroke-linecap="butt" d="m58.760864 65.2126l-1.1245842 1.1245804l3.0897675 -1.1245804l-3.0897675 -1.124588z" fill-rule="evenodd"/><path fill="#000000" fill-opacity="0.0" d="m31.573778 89.2126l30.614172 0" fill-rule="evenodd"/><path stroke="#000000" stroke-width="1.0" stroke-linejoin="round" stroke-linecap="butt" d="m31.573778 89.2126l27.187086 0" fill-rule="evenodd"/><path fill="#000000" stroke="#000000" stroke-width="1.0" stroke-linecap="butt" d="m58.760864 89.2126l-1.1245842 1.1245804l3.0897675 -1.1245804l-3.0897675 -1.124588z" fill-rule="evenodd"/></g></svg>