<svg xmlns="http://www.w3.org/2000/svg" xmlns:xlink="http://www.w3.org/1999/xlink" version="1.2" viewBox="0 0 371 180.3"><defs><symbol id="b" overflow="visible"><path d="M.4 2v.3c0 .2 0 .3.3.3l.4-.3.7-3c.3.6.7.8 1.2.8 1.3 0 2.9-1.6 2.9-3.5 0-1.2-.8-1.9-1.6-1.9-1 0-2.4 1.1-2.8 2.7zM3 0c-.8 0-1-1-1-1.1l.3-1.4C2.9-5 4.1-5 4.3-5c.5 0 .8.5.8 1.2 0 .6-.3 1.8-.5 2.3-.4.8-1 1.4-1.6 1.4zm0 0"/></symbol><symbol id="c" overflow="visible"><path d="M5.5-3c0-1.2-.6-2.3-1.9-2.3C2-5.3.5-3.6.5-1.9c0 1 .6 2 1.8 2 .8 0 1.7-.3 2.5-1 .2.7.6 1 1 1 .7 0 1-.6 1-.8v-.1l-.2.1c-.1.3-.4.6-.7.6-.4 0-.4-.8-.4-1.5 1.3-1.5 1.5-3 1.5-3v-.1c-.2 0-.2 0-.3.2-.1.6-.4 1.5-1.2 2.5zm-.7 1.8c-1 1-2 1-2.4 1-.9 0-1.1-.7-1.1-1.2 0-.6.2-1.8.6-2.4C2.4-4.7 3.1-5 3.6-5c1.2 0 1.2 1.5 1.2 2.5v1.3zm0 0"/></symbol><symbol id="e" overflow="visible"><path d="M.4 2v.3c0 .2 0 .3.3.3l.4-.3.7-3c.3.6.7.8 1.2.8 1.3 0 2.9-1.6 2.9-3.5 0-1.2-.8-1.9-1.6-1.9-1 0-2.4 1.1-2.8 2.7zM3 0c-.8 0-1-1-1-1.1l.3-1.4C2.9-5 4.1-5 4.3-5c.5 0 .8.5.8 1.2 0 .6-.3 1.8-.5 2.3-.4.8-1 1.4-1.6 1.4zm0 0"/></symbol><symbol id="f" overflow="visible"><path d="M5.5-3c0-1.2-.6-2.3-1.9-2.3C2-5.3.5-3.6.5-1.9c0 1 .6 2 1.8 2 .8 0 1.7-.3 2.5-1 .2.7.6 1 1 1 .7 0 1-.6 1-.8v-.1l-.2.1c-.1.3-.4.6-.7.6-.4 0-.4-.8-.4-1.5 1.3-1.5 1.5-3 1.5-3v-.1c-.2 0-.2 0-.3.2-.1.6-.4 1.5-1.2 2.5zm-.7 1.8c-1 1-2 1-2.4 1-.9 0-1.1-.7-1.1-1.2 0-.6.2-1.8.6-2.4C2.4-4.7 3.1-5 3.6-5c1.2 0 1.2 1.5 1.2 2.5v1.3zm0 0"/></symbol><symbol id="g" overflow="visible"><path d="M6-4.5c.2 0 .6 0 .6-.4 0-.3-.2-.3-.4-.3H3.5c-1.8 0-3 2-3 3.5C.5-.8 1 0 2.2 0c1.4 0 3-1.5 3-3.3 0-.5-.2-1-.5-1.3zM2.3-.1c-.6 0-1-.5-1-1.3 0-.7.4-3.1 2.1-3.1.5 0 1.1.3 1.1 1.2 0 .4-.2 1.4-.6 2-.4.8-1 1.2-1.6 1.2zm0 0"/></symbol><clipPath id="a"><path d="M226 552h7v9h-7zm0 0"/></clipPath><clipPath id="d"><path d="M354.7 547h9.3v7.5h-9.3zm0 0"/></clipPath></defs><g clip-path="url(#a)" transform="translate(-162 -471.9)"><use height="100%" width="100%" y="557.7" x="226.2" xlink:href="#b"/><use height="100%" width="100%" y="557.7" x="236.1" xlink:href="#c"/></g><g clip-path="url(#d)" transform="translate(-162 -471.9)"><use height="100%" width="100%" y="552.6" x="346" xlink:href="#e"/><use height="100%" width="100%" y="552.6" x="356" xlink:href="#f"/></g><use height="100%" width="100%" y="496.4" x="503.5" xlink:href="#g" transform="translate(-162 -471.9)"/><path d="M10.6 105.9c1 .3 3.2.6 4.2.5 1.1 0 3.3-.6 4.2-1a23 23 0 008.4-8 94.8 94.8 0 008.5-15c1-2.1 3-6.5 4.2-8.7 1-2 3-6.3 4.2-8.4 1-1.8 3-5.6 4.2-7.4a49.5 49.5 0 018.4-10.4c1-.8 3-2.3 4.2-3a28 28 0 014.2-1.8c1-.3 3.1-.7 4.2-.7 1-.1 3.2 0 4.2.2s3.2 1 4.2 1.4c1.1.6 3.2 2 4.2 2.8a36.3 36.3 0 018.4 12A130.8 130.8 0 0198.9 84c1.2 4.3 3.2 13 4.2 17.5l4.2 18.1c1 4 3 12.2 4.2 16.2a84.5 84.5 0 008.4 21.4c1 1.5 3 4.4 4.2 5.7 1 1 3 2.9 4.2 3.7a31.6 31.6 0 008.4 3.6 51 51 0 0021 .4 84.6 84.6 0 0012.7-3.2 136.7 136.7 0 008.4-3.4l4.2-1.8 4.2-1.8a146.9 146.9 0 0112.6-4c1-.4 3.1-.9 4.2-1.2l4.2-1.1a98.8 98.8 0 008.4-3 61 61 0 008.4-5 70.7 70.7 0 0012.6-12.6l4.2-5.4 4.2-5.6 4.2-5.5a175.1 175.1 0 018.4-9.6 79.6 79.6 0 018.4-6.8l4.2-2.5 4.2-2.2 4.2-2.2a86.8 86.8 0 008.4-5.5 68.5 68.5 0 0012.7-14.4l4.2-6.3a208 208 0 0112.6-17.7 49.1 49.1 0 0112.6-9.9 40.5 40.5 0 018.4-2.5 47.3 47.3 0 018.4-.2 47.6 47.6 0 018.4 1.8 49.6 49.6 0 018.4 4" fill="none" stroke="#a6a3a6" stroke-width="2" stroke-linejoin="round" stroke-miterlimit="10"/><path d="M16.8 103.2c0 2.6-4 2.6-4 0s4-2.6 4 0M21 103.4c0 2.6-4 2.6-4 0s4-2.6 4 0M25.2 84.5c0 2.6-4 2.6-4 0s4-2.6 4 0M29.4 103.3c0 2.6-4 2.6-4 0s4-2.6 4 0M33.6 73.4c0 2.6-3.9 2.6-3.9 0s4-2.6 4 0M37.8 87.5c0 2.6-3.9 2.6-3.9 0s4-2.6 4 0M42 71c0 2.7-3.9 2.7-3.9 0 0-2.5 4-2.5 4 0M46.2 63.3c0 2.6-3.9 2.6-3.9 0s4-2.6 4 0M50.4 54.1c0 2.6-3.9 2.6-3.9 0s4-2.6 4 0M54.6 55.6c0 2.6-3.9 2.6-3.9 0s4-2.6 4 0M58.8 53.2c0 2.6-3.9 2.6-3.9 0s4-2.6 4 0M63 40.6c0 2.6-3.9 2.6-3.9 0s4-2.6 4 0M67.2 42c0 2.5-3.9 2.5-3.9 0 0-2.7 4-2.7 4 0M71.4 42c0 2.6-3.9 2.6-3.9 0s4-2.6 4 0M75.6 49c0 2.5-3.9 2.5-3.9 0 0-2.7 4-2.7 4 0M79.8 39.2c0 2.6-3.9 2.6-3.9 0s4-2.6 4 0M84 43c0 2.5-3.9 2.5-3.9 0 0-2.7 4-2.7 4 0M88.2 52.2c0 2.6-3.9 2.6-3.9 0s4-2.6 4 0M92.5 57.3c0 2.6-4 2.6-4 0s4-2.6 4 0M96.7 79.5c0 2.6-4 2.6-4 0s4-2.6 4 0M100.9 72.9c0 2.6-4 2.6-4 0 0-2.7 4-2.7 4 0M105 92.4c0 2.6-3.8 2.6-3.8 0s3.9-2.6 3.9 0M109.3 128.6c0 2.6-4 2.6-4 0s4-2.6 4 0M113.5 134.2c0 2.6-4 2.6-4 0s4-2.6 4 0M117.7 157c0 2.5-4 2.5-4 0 0-2.7 4-2.7 4 0M121.9 150c0 2.6-4 2.6-4 0s4-2.6 4 0M126 159.5c0 2.6-3.8 2.6-3.8 0s3.9-2.6 3.9 0M130.3 167.7c0 2.6-4 2.6-4 0s4-2.6 4 0M134.5 166.7c0 2.6-4 2.6-4 0s4-2.6 4 0M138.7 173c0 2.6-4 2.6-4 0s4-2.6 4 0M142.9 170.5c0 2.6-4 2.6-4 0s4-2.6 4 0M147 170.1c0 2.6-3.8 2.6-3.8 0s3.9-2.6 3.9 0M151.3 171.2c0 2.7-4 2.7-4 0 0-2.6 4-2.6 4 0M155.5 171.8c0 2.6-4 2.6-4 0 0-2.7 4-2.7 4 0M159.7 168.6c0 2.6-4 2.6-4 0s4-2.6 4 0M163.9 171.1c0 2.6-3.9 2.6-3.9 0s3.9-2.6 3.9 0M168.1 167.4c0 2.6-3.9 2.6-3.9 0s4-2.6 4 0M172.3 167.5c0 2.6-3.9 2.6-3.9 0s4-2.6 4 0M176.5 165.1c0 2.6-3.9 2.6-3.9 0s4-2.6 4 0M180.7 163.1c0 2.6-3.9 2.6-3.9 0s4-2.6 4 0M185 162.6c0 2.6-4 2.6-4 0s4-2.6 4 0M189.1 159.6c0 2.6-3.9 2.6-3.9 0s4-2.6 4 0M193.3 150.9c0 2.6-3.9 2.6-3.9 0s4-2.6 4 0M197.5 155.3c0 2.6-3.9 2.6-3.9 0s4-2.6 4 0M201.7 160c0 2.6-3.9 2.6-3.9 0s4-2.6 4 0M206 152.8c0 2.6-4 2.6-4 0s4-2.6 4 0M210.1 143.9c0 2.6-3.9 2.6-3.9 0s4-2.6 4 0M214.3 159c0 2.6-3.9 2.6-3.9 0s4-2.6 4 0M218.5 153.8c0 2.6-3.9 2.6-3.9 0s4-2.6 4 0M222.8 154c0 2.5-4 2.5-4 0 0-2.7 4-2.7 4 0M227 148.6c0 2.6-4 2.6-4 0 0-2.7 4-2.7 4 0M231.2 142.8c0 2.6-4 2.6-4 0s4-2.6 4 0M235.4 138.9c0 2.6-4 2.6-4 0s4-2.6 4 0M239.6 133.2c0 2.6-4 2.6-4 0s4-2.6 4 0M243.8 134c0 2.7-4 2.7-4 0 0-2.5 4-2.5 4 0M248 123.2c0 2.7-4 2.7-4 0 0-2.6 4-2.6 4 0M252.2 103.2c0 2.6-4 2.6-4 0s4-2.6 4 0M256.4 118.3c0 2.6-4 2.6-4 0s4-2.6 4 0M260.6 137.2c0 2.7-4 2.7-4 0 0-2.6 4-2.6 4 0M264.8 106.4c0 2.7-4 2.7-4 0 0-2.6 4-2.6 4 0M269 89.4c0 2.6-4 2.6-4 0s4-2.6 4 0M273.2 94.6c0 2.6-4 2.6-4 0s4-2.6 4 0M277.4 98.7c0 2.6-4 2.6-4 0s4-2.6 4 0M281.6 83.2c0 2.6-4 2.6-4 0s4-2.6 4 0M285.8 97.7c0 2.6-4 2.6-4 0s4-2.6 4 0M290 82.4c0 2.6-4 2.6-4 0s4-2.6 4 0M294.2 84.4c0 2.6-4 2.6-4 0s4-2.6 4 0M298.4 74.6c0 2.6-3.9 2.6-3.9 0s4-2.6 4 0M302.6 73.8c0 2.6-3.9 2.6-3.9 0s4-2.6 4 0M306.8 50.5c0 2.6-3.9 2.6-3.9 0s4-2.6 4 0M311 56.5c0 2.6-3.9 2.6-3.9 0 0-2.7 4-2.7 4 0M315.2 53.3c0 2.6-3.9 2.6-3.9 0s4-2.6 4 0M319.4 55c0 2.7-3.9 2.7-3.9 0 0-2.5 4-2.5 4 0M323.6 47.3c0 2.6-3.9 2.6-3.9 0s4-2.6 4 0M327.8 45c0 2.6-3.9 2.6-3.9 0s4-2.6 4 0M332 37.9c0 2.6-3.9 2.6-3.9 0s4-2.6 4 0M336.2 38c0 2.7-3.9 2.7-3.9 0 0-2.5 4-2.5 4 0M340.4 40.1c0 2.6-3.9 2.6-3.9 0s4-2.6 4 0M344.6 34.6c0 2.6-3.9 2.6-3.9 0s4-2.6 4 0M348.8 39.3c0 2.6-3.9 2.6-3.9 0s4-2.6 4 0M353 37.1c0 2.6-3.9 2.6-3.9 0s4-2.6 4 0M357.3 49.8c0 2.6-4 2.6-4 0s4-2.6 4 0M361.5 42c0 2.6-4 2.6-4 0s4-2.6 4 0M365.7 37.6c0 2.6-4 2.6-4 0s4-2.6 4 0" fill="#b56b75" stroke="#b56b75" stroke-width=".7" stroke-linecap="round" stroke-linejoin="round" stroke-miterlimit="10"/><path d="M51.8 76.3h31.4" fill="none" stroke="#4a4747" stroke-linejoin="round"/><path d="M46.5 76.3l7.5 3-1.8-3 1.8-3zm0 0M88.5 76.3l-7.4 3 1.7-3-1.7-3zm0 0" fill="#4a4747"/><path d="M189.1 135V60.3" fill="none" stroke="#4a4747" stroke-linejoin="round"/><path d="M189.1 140.2l3-7.5-3 1.8-3-1.8zm0 0M189.1 55.1l3 7.5-3-1.8-3 1.8zm0 0" fill="#4a4747"/><path d="M336.5 67.9V10.3" fill="none" stroke="#4a4747" stroke-linejoin="round"/><path d="M336.5 73.2l3-7.5-3 1.8-3-1.8zm0 0M336.5 5l3 7.5-3-1.8-3 1.8zm0 0" fill="#4a4747"/><path d="M5 97.7h361" fill="none" stroke="#4a4747" stroke-width=".9" stroke-linejoin="round" stroke-dasharray="4.69491967,4.69491967"/></svg>