<svg xmlns="http://www.w3.org/2000/svg" xmlns:xlink="http://www.w3.org/1999/xlink" viewBox="0 0 504 360"><defs><symbol overflow="visible" id="p"><path d="M.6-3.8c0-.7.1-1.3.5-2 .3-.6.7-1 1.3-1.3.6-.4 1.3-.5 2-.5 1.2 0 2 .3 2.8 1 .7.8 1 1.7 1 2.8 0 1.2-.3 2.1-1 2.9-.7.7-1.7 1-2.8 1-.7 0-1.3 0-2-.4-.5-.3-1-.8-1.3-1.4C.7-2.3.6-3 .6-3.8zm2 0c0 .8.2 1.4.5 1.8.4.4.8.6 1.3.6s1-.2 1.3-.6c.4-.4.5-1 .5-1.7 0-.8-.1-1.3-.5-1.7C5.4-5.8 5-6 4.4-6s-1 .2-1.3.6c-.3.4-.5 1-.5 1.7zm0 0"/></symbol><symbol overflow="visible" id="a"><path d="M.4-2.6v-1h3.2v1zm0 0"/></symbol><symbol overflow="visible" id="c"><path d="M6-1v1H.4v-.7L1.3-2l1.4-1.3A12 12 0 004.5-5c.3-.4.4-.9.4-1.3s-.1-.7-.4-1c-.3-.3-.7-.4-1.2-.5-.5 0-.9.2-1.2.5-.3.3-.5.7-.5 1.3l-1-.1c0-.8.3-1.5.8-1.9.5-.4 1.1-.6 2-.6.8 0 1.4.2 2 .7.4.4.6 1 .6 1.7 0 .3 0 .6-.2 1a4 4 0 01-.7 1c-.3.4-.8.9-1.6 1.5A20.2 20.2 0 001.8-1zm0 0"/></symbol><symbol overflow="visible" id="d"><path d="M.5-4.2c0-1 .1-1.9.3-2.5a3 3 0 011-1.4c.3-.4.9-.5 1.5-.5.5 0 .9 0 1.2.3.4.1.6.4.9.8l.5 1.2.2 2a8 8 0 01-.3 2.5c-.2.6-.5 1.1-1 1.4-.4.4-.9.5-1.5.5-.8 0-1.5-.2-2-.8-.5-.8-.8-2-.8-3.5zm1 0c0 1.4.2 2.3.6 2.8.3.5.7.7 1.2.7s.9-.2 1.2-.7c.3-.5.5-1.4.5-2.8s-.2-2.4-.5-2.9c-.3-.4-.7-.6-1.2-.7-.5 0-.9.3-1.2.7-.3.5-.5 1.5-.5 2.9zm0 0"/></symbol><symbol overflow="visible" id="v"><path d="M0 0l2.4-3.2-2.1-3h1.3l1 1.4.4.7.4-.7 1-1.4h1.3l-2.1 3L5.9 0H4.6L3.3-2 3-2.4 1.4 0zm0 0"/></symbol><symbol overflow="visible" id="e"><path d="M.5-3.4l2-.2c.2.7.4 1.2.8 1.5.4.4.9.5 1.5.5.7 0 1.2-.1 1.5-.4.3-.3.5-.6.5-1 0-.2 0-.4-.2-.6-.1-.2-.4-.3-.7-.5l-1.7-.4a5.5 5.5 0 01-2.4-1c-.6-.6-1-1.3-1-2.1 0-.5.2-1 .5-1.5.3-.4.8-.8 1.3-1 .6-.3 1.3-.4 2-.4 1.3 0 2.3.3 3 .9a3 3 0 011 2.2l-2 .1c-.2-.5-.4-.9-.7-1.1-.2-.2-.7-.4-1.3-.4-.6 0-1 .2-1.4.4-.2.2-.3.4-.3.7 0 .2 0 .4.3.6l2 .7c1 .2 1.7.5 2.2.7.4.3.8.6 1 1 .4.5.5 1 .5 1.7a3 3 0 01-.5 1.7A3 3 0 017-.2a6 6 0 01-2.2.4c-1.3 0-2.3-.3-3-1A4 4 0 01.5-3.3zm0 0"/></symbol><symbol overflow="visible" id="f"><path d="M6 2.8V-.9a2.8 2.8 0 01-4.4.1c-.6-.7-1-1.7-1-3a4 4 0 011-2.8A3 3 0 015-7.3c.4.2.7.5 1 1v-1.2h1.8V2.8zm0-6.6c0-.8-.2-1.4-.5-1.7-.3-.4-.7-.6-1.2-.6-.4 0-.8.2-1.2.6-.3.4-.4 1-.4 1.8S2.8-2.3 3-2c.3.3.7.5 1.2.5.4 0 .8-.2 1.2-.6.3-.4.5-1 .5-1.8zm0 0"/></symbol><symbol overflow="visible" id="g"><path d="M6 0v-1.1l-1.1 1-1.4.3C3 .2 2.5 0 2-.2a2 2 0 01-.8-.9A4 4 0 011-2.7v-4.8h2V-2l.5.6.7.2 1-.3.5-.7.1-2v-3.2h2V0zm0 0"/></symbol><symbol overflow="visible" id="h"><path d="M2.5-5.2L.7-5.5c.2-.7.6-1.3 1-1.6.6-.4 1.3-.5 2.3-.5.8 0 1.5 0 2 .3l.8.8c.2.3.3.9.3 1.7V-1l.4 1h-2a5.3 5.3 0 01-.2-.8l-1 .7L3 .2C2.2.2 1.6 0 1.2-.5A2 2 0 01.5-2c0-.5.1-.8.3-1.2.2-.3.5-.5.9-.7.3-.2.8-.4 1.5-.5l2-.5V-5c0-.3-.1-.6-.3-.8l-1-.2c-.4 0-.7 0-1 .2l-.4.7zm2.7 1.6l-1.3.3-1 .4c-.3.1-.4.4-.4.7 0 .2 0 .5.3.7.2.2.5.3.8.3.3 0 .7-.1 1-.4l.5-.6v-1zm0 0"/></symbol><symbol overflow="visible" id="i"><path d="M3 0H1v-7.5h1.8v1l.8-.9c.3-.2.6-.2.9-.2.4 0 .9 0 1.3.3l-.6 1.8c-.4-.3-.7-.4-1-.4-.2 0-.5.1-.7.3-.2.1-.3.4-.4.8-.1.4-.2 1.2-.2 2.5zm0 0"/></symbol><symbol overflow="visible" id="j"><path d="M5.4-2.4l2 .4C7-1.3 6.6-.8 6-.4c-.5.4-1.2.6-2 .6-1.3 0-2.3-.5-2.9-1.3C.7-1.8.5-2.6.5-3.7c0-1.2.3-2.2 1-2.9.6-.7 1.4-1 2.4-1s2 .3 2.6 1c.6.8 1 2 1 3.4h-5c0 .6.2 1 .5 1.4.3.3.6.5 1.1.5.3 0 .6 0 .8-.3.2-.1.3-.4.5-.8zm0-2c0-.5 0-1-.4-1.3C4.7-6 4.4-6 4-6s-.8.1-1 .4c-.4.4-.5.8-.5 1.3zm0 0"/></symbol><symbol overflow="visible" id="k"><path d="M7.9 0H6v-1.1A3 3 0 013.7.2c-.8 0-1.6-.4-2.2-1-.6-.8-1-1.7-1-3C.6-5 1-6 1.6-6.6a3 3 0 014.4 0v-3.7h2zM2.6-3.9c0 .8.1 1.4.3 1.7.4.6.8.8 1.4.8.4 0 .8-.2 1.1-.6.3-.4.5-1 .5-1.7 0-.9-.1-1.5-.5-1.9-.3-.3-.7-.5-1.1-.5-.5 0-.9.2-1.2.5-.3.4-.5 1-.5 1.7zm0 0"/></symbol><symbol overflow="visible" id="m"><path d="M1 0v-10.3h7.7v1.7H3v2.3h5.2v1.8H3.1v2.8H9V0zm0 0"/></symbol><symbol overflow="visible" id="n"><path d="M0 0l2.8-3.8L.2-7.5h2.4l1.3 2 1.4-2h2.3L5.1-3.9 8 0H5.4L4-2.3 2.4 0zm0 0"/></symbol><symbol overflow="visible" id="o"><path d="M1-7.5h1.8v1.1a2.8 2.8 0 012.3-1.2c1 0 1.6.3 2.3 1 .6.7.9 1.6.9 2.8 0 1.3-.3 2.2-1 3A2.9 2.9 0 014-.2c-.3-.1-.7-.4-1-.8v3.7H1zm2 3.6C3-3 3-2.4 3.3-2c.4.4.8.6 1.2.6.5 0 .9-.2 1.2-.5.3-.4.4-1 .5-1.9 0-.7-.2-1.3-.5-1.7-.3-.4-.7-.6-1.2-.6s-.9.2-1.2.6c-.3.4-.5 1-.5 1.6zm0 0"/></symbol><symbol overflow="visible" id="b"><path d="M3.9 0v-2H.2v-1L4-8.6h.8V-3h1.2v1H4.9v2zm0-3V-7L1.2-3zm0 0"/></symbol><symbol overflow="visible" id="q"><path d="M7.8 0h-2v-3.8-1.6l-.5-.5c-.2-.2-.4-.2-.7-.2-.3 0-.6 0-.9.3-.3.1-.5.4-.6.7L3-3.4V0H1v-7.5H3v1.1a3 3 0 013.6-1l.8.6.4.8.1 1.4zm0 0"/></symbol><symbol overflow="visible" id="r"><path d="M4.5-7.5v1.6H3v4c0 .2.1.3.2.3l.4.1c.1 0 .4 0 .7-.2L4.6 0a4 4 0 01-1.5.3c-.4 0-.7 0-1-.2-.3-.1-.5-.3-.6-.5-.2-.2-.3-.4-.3-.7V-6h-1v-1.6h1v-1.4l2-1.2v2.6zm0 0"/></symbol><symbol overflow="visible" id="s"><path d="M1-8.5v-1.8h2v1.8zM1 0v-7.5h2V0zm0 0"/></symbol><symbol overflow="visible" id="t"><path d="M1 0v-10.3h2V0zm0 0"/></symbol><symbol overflow="visible" id="u"><path d="M1 0v-10.3h2.2v4.6l4.2-4.6h2.8l-4 4L10.5 0H7.7L4.8-4.8 3.2-3.1V0zm0 0"/></symbol><symbol overflow="visible" id="w"><path d="M.6-5.2V-6h.7v.8zM.6 0v-4.4h.7V0zm0 0"/></symbol><symbol overflow="visible" id="y"><path d="M.6-5.2V-6h.7v.8zm-1 6.9l.2-.6H0L.4 1 .6.2v-4.6h.7V.2c0 .6 0 1-.2 1.2-.2.2-.5.4-1 .4l-.5-.1zm0 0"/></symbol><symbol overflow="visible" id="x"><path d="M.2-3.4h6.2v.6H.2zm0 0"/></symbol><symbol overflow="visible" id="z"><path d="M0-.9h-8.6V-2h4.3l-4.3-4.3v-1.5L-5-4.2 0-8v1.5l-4.3 3L-3-2h3zm0 0"/></symbol><symbol overflow="visible" id="B"><path d="M0 0l-3.2-2.4-3 2.1v-1.3l1.4-1L-4-3l-.7-.4-1.4-1v-1.3l3 2.1L0-5.9v1.3l-2 1.3-.5.3L0-1.4zm0 0"/></symbol><symbol overflow="visible" id="A"><path d="M3-4.7h.2a7 7 0 01-2.8 3c-1.2.7-2.5 1-4 1s-2.9-.3-4.1-1a6.4 6.4 0 01-2.7-3h.3c.3.6.8 1.1 1.4 1.5.5.4 1.3.7 2.1.9l2.8.3c1.1 0 2.1-.1 3-.3C0-2.5.8-2.7 1.4-3c.5-.4 1-.9 1.5-1.6zm0 0"/></symbol><symbol overflow="visible" id="G"><path d="M-10.1-.3h-.3a7 7 0 012.8-3c1.2-.7 2.5-1 4-1a8 8 0 014.2 1c1.2.8 2.1 1.8 2.6 3H3c-.3-.6-.8-1.1-1.3-1.5C1-2.2.3-2.5-.6-2.7a13.6 13.6 0 00-8 .8c-.5.4-1 .9-1.5 1.6zm0 0"/></symbol><symbol overflow="visible" id="C"><path d="M-5.2-.6H-6v-.7h.8zM0-.6h-4.4v-.7H0zm0 0"/></symbol><symbol overflow="visible" id="F"><path d="M-5.2-.6H-6v-.7h.8zm6.9 1L1 .2V0L1-.4.2-.6h-4.6v-.7H.2c.6 0 1 0 1.2.2.2.2.4.5.4 1l-.1.5zm0 0"/></symbol><symbol overflow="visible" id="D"><path d="M2-.6h-.3a2 2 0 00-.6-1l-.9-.3H.1l-.1.2.1.2v.2L0-.8l-.5.2C-.7-.6-.8-.7-1-1a.8.8 0 01-.2-.5c0-.3.1-.5.4-.7.2-.2.5-.3.9-.3s.7.1 1 .4c.4.3.7.8.9 1.4zm0 0"/></symbol></defs><path fill="#fff" d="M0 0h504v360H0z"/><path d="M74.4 278.1H86l2.5-.1H92.4l2.5-.2H98.8l1.3-.1h1.3l1.3-.1h1.2l1.3-.1 1.3-.1h1.3l1.3-.2h1.3l1.2-.2h1.3l1.3-.2 1.3-.1 1.3-.1 1.3-.2 1.3-.1 1.2-.2 1.3-.2 1.3-.2 1.3-.2 1.3-.2 1.3-.2 1.2-.3 1.3-.2 1.3-.3 1.3-.3 1.3-.4 1.3-.3 1.2-.4 1.3-.4 1.3-.4 1.3-.4 1.3-.5 1.3-.5 1.3-.6 1.2-.5 1.3-.6 1.3-.7 1.3-.6 1.3-.7 1.3-.8 1.2-.8 1.3-.8 1.3-.9 1.3-.9 1.3-1 1.3-1 1.2-1 1.3-1.2 1.3-1.1 1.3-1.2 1.3-1.3 1.3-1.3 1.3-1.4 1.2-1.5 1.3-1.5 1.3-1.6 1.3-1.6 1.3-1.7 1.3-1.8 1.2-1.8 1.3-1.9 1.3-2 1.3-2 1.3-2 1.3-2.2 1.2-2.3 1.3-2.3 1.3-2.3 1.3-2.5 1.3-2.4 1.3-2.6 1.3-2.6 1.2-2.7 1.3-2.8 1.3-2.8 1.3-2.9 1.3-2.9 1.3-3 1.2-3 1.3-3 1.3-3.2 1.3-3.2 1.3-3.2 1.3-3.3 1.3-3.2 1.2-3.4 1.3-3.3 1.3-3.4 1.3-3.4 1.3-3.4 1.3-3.4 1.2-3.4 2.6-6.8 1.3-3.4 1.3-3.4 1.3-3.4 1.2-3.3 1.3-3.4 1.3-3.2 1.3-3.3 1.3-3.2 1.3-3.1 1.3-3 1.2-3.1 1.3-3 1.3-2.8 1.3-2.8 1.3-2.7 1.3-2.6 1.2-2.6 1.3-2.4 1.3-2.3 1.3-2.2 1.3-2 1.3-2 1.2-1.9 1.3-1.7 1.3-1.6 1.3-1.5 1.3-1.3 1.3-1.2 1.3-1 1.2-.9 1.3-.7 1.3-.6 1.3-.5 1.3-.3 1.3-.1h1.2l1.3.1 1.3.3 1.3.5 1.3.6 1.3.7 1.2 1 1.3 1 1.3 1.1 1.3 1.3 1.3 1.5 1.3 1.6 1.3 1.7 1.2 1.9 1.3 2 1.3 2 1.3 2.2 1.3 2.3 1.3 2.4 1.2 2.6 1.3 2.6 1.3 2.7 1.3 2.8 1.3 2.8 1.3 3 1.2 3 1.3 3 1.3 3.2 1.3 3.2 1.3 3.3 1.3 3.2 1.3 3.4 1.2 3.3 1.3 3.4 1.3 3.4 1.3 3.4 1.3 3.4 1.3 3.4 1.2 3.4 1.3 3.4 1.3 3.4 1.3 3.4 1.3 3.4 1.3 3.3 1.3 3.4 1.2 3.3 1.3 3.2 1.3 3.2 1.3 3.2 1.3 3.1 1.3 3.1 1.2 3 1.3 3 1.3 3 1.3 2.8 1.3 2.8 1.3 2.8 1.2 2.7 1.3 2.6 1.3 2.6 1.3 2.4 1.3 2.5 1.3 2.3 1.3 2.3 1.2 2.3 1.3 2.1 1.3 2.1 1.3 2 1.3 2 1.3 1.9 1.2 1.8 1.3 1.8 1.3 1.7 1.3 1.6 1.3 1.6 1.3 1.5 1.2 1.5 1.3 1.4 1.3 1.3 1.3 1.3 1.3 1.2 1.3 1.1 1.3 1.2 1.2 1 1.3 1 1.3 1 1.3 1 1.3.8 1.3.8 1.2.8 1.3.8 1.3.7 1.3.6 1.3.7 1.3.6 1.3.5 1.2.6 1.3.5 1.3.5 1.3.4 1.3.4 1.3.4 1.2.4 1.3.3 1.3.4 1.3.3 1.3.3 1.3.2 1.2.3 1.3.2 1.3.2 1.3.2 1.3.2 1.3.2 1.2.2 1.3.1 1.3.2 1.3.1 1.3.1 1.3.1 1.3.1 1.2.1 1.3.1 1.3.1h1.3l1.3.2h2.5l1.3.1h1.3l1.3.1h1.3l1.3.1h1.3l2.5.1H444.3l1.3.1H452l1.3.1h5.1" fill="none" stroke-width="2.3" stroke-linecap="round" stroke-linejoin="round" stroke="#6689bf" stroke-miterlimit="10"/><path d="M74.4 286.6h384M74.4 286.6v7.2M170.4 286.6v7.2M266.4 286.6v7.2M362.4 286.6v7.2M458.4 286.6v7.2" fill="none" stroke-width=".8" stroke-linecap="round" stroke-linejoin="round" stroke="#000" stroke-miterlimit="10"/><use xlink:href="#a" x="69.1" y="312.5"/><use xlink:href="#b" x="73.1" y="312.5"/><use xlink:href="#a" x="165.1" y="312.5"/><use xlink:href="#c" x="169.1" y="312.5"/><use xlink:href="#d" x="263.1" y="312.5"/><use xlink:href="#c" x="359.1" y="312.5"/><use xlink:href="#b" x="455.1" y="312.5"/><use xlink:href="#e" x="170.4" y="34.7"/><use xlink:href="#f" x="180" y="34.7"/><use xlink:href="#g" x="188.8" y="34.7"/><use xlink:href="#h" x="197.6" y="34.7"/><use xlink:href="#i" x="205.6" y="34.7"/><use xlink:href="#j" x="211.2" y="34.7"/><use xlink:href="#k" x="219.2" y="34.7"/><use xlink:href="#l" x="228" y="34.7"/><use xlink:href="#m" x="232" y="34.7"/><use xlink:href="#n" x="241.6" y="34.7"/><use xlink:href="#o" x="249.6" y="34.7"/><use xlink:href="#p" x="258.4" y="34.7"/><use xlink:href="#q" x="267.2" y="34.7"/><use xlink:href="#j" x="276" y="34.7"/><use xlink:href="#q" x="284" y="34.7"/><use xlink:href="#r" x="292.8" y="34.7"/><use xlink:href="#s" x="297.6" y="34.7"/><use xlink:href="#h" x="301.6" y="34.7"/><use xlink:href="#t" x="309.6" y="34.7"/><use xlink:href="#l" x="313.6" y="34.7"/><use xlink:href="#u" x="317.6" y="34.7"/><use xlink:href="#j" x="328" y="34.7"/><use xlink:href="#i" x="336" y="34.7"/><use xlink:href="#q" x="341.6" y="34.7"/><use xlink:href="#j" x="350.4" y="34.7"/><use xlink:href="#t" x="358.4" y="34.7"/><g><use xlink:href="#v" x="252.7" y="337.3"/></g><g><use xlink:href="#w" x="258.7" y="339.5"/></g><g><use xlink:href="#x" x="262.8" y="337.3"/></g><g><use xlink:href="#v" x="272.2" y="337.3"/></g><g><use xlink:href="#y" x="278.2" y="339.5"/></g><g><use xlink:href="#z" x="9" y="192.7"/></g><g><use xlink:href="#A" x="9" y="184.7"/></g><g><use xlink:href="#B" x="9" y="179.7"/></g><g><use xlink:href="#C" x="11.2" y="173.7"/></g><g><use xlink:href="#D" x="9" y="171.8"/></g><g><use xlink:href="#E" x="9" y="168.8"/></g><g><use xlink:href="#B" x="9" y="165.8"/></g><g><use xlink:href="#F" x="11.2" y="159.8"/></g><g><use xlink:href="#G" x="9" y="157.9"/></g></svg>