<svg xmlns="http://www.w3.org/2000/svg" xmlns:xlink="http://www.w3.org/1999/xlink" viewBox="0 0 504 360"><defs><symbol overflow="visible" id="M"><path d="M3.4-.8a8 8 0 01-1 .8l-.7.1C1.3.1 1 0 .7-.3.6-.5.5-.9.5-1.3c0-.2 0-.5.2-.7.2-.2.4-.5.8-.7l2-.9v-.2c0-.5 0-.9-.2-1a1 1 0 00-.8-.4l-.6.2-.2.5v.3l-.1.4-.4.2c-.1 0-.2 0-.3-.2l-.2-.4c0-.3.2-.6.5-.9.4-.3.9-.4 1.5-.4.5 0 .9 0 1.2.2.2.1.4.3.5.6V-2l.1 1 .1.2H4.8l.5-.4v.3c-.4.6-.9 1-1.3 1l-.4-.3-.2-.7zm0-.4v-2l-1.1.5a2 2 0 00-.7.5 1 1 0 00-.2.7c0 .2.1.5.3.7l.5.2c.3 0 .7-.2 1.2-.6zm0 0"/></symbol><symbol overflow="visible" id="q"><path d="M1.7-6.4v1.6H3v.3H1.7v3.2c0 .3 0 .5.2.6l.3.2.4-.1.2-.4H3c-.1.4-.3.6-.5.8-.2.2-.5.3-.7.3a1 1 0 01-.5-.2.8.8 0 01-.3-.3l-.1-.8v-3.3H0v-.1L.7-5l.5-.7.4-.7zm0 0"/></symbol><symbol overflow="visible" id="s"><path d="M1.1-3c0 .7.2 1.3.6 1.7.3.4.7.6 1.2.6.3 0 .6-.1.8-.3.3-.1.5-.4.6-.9l.2.1c0 .5-.3 1-.7 1.4A2 2 0 011-.4c-.4-.6-.6-1.2-.6-2s.2-1.4.6-1.9A2 2 0 012.6-5c.6 0 1 .2 1.4.6.3.3.5.8.5 1.4zm0-.3h2.3L3.3-4a1 1 0 00-1-.6c-.3 0-.5.1-.7.3-.3.3-.4.6-.5 1zm0 0"/></symbol><symbol overflow="visible" id="t"><path d="M3-.7a7 7 0 01-.9.7l-.6.1a1 1 0 01-.8-.3C.5-.5.4-.8.4-1.2l.1-.6.8-.6L3-3.2v-.2c0-.5-.1-.8-.3-1a.8.8 0 00-.6-.3l-.5.2-.3.4v.7c-.1.1-.3.2-.4.1H.7l-.1-.5c0-.3.1-.5.4-.8A2 2 0 012.3-5l1 .2c.3.2.5.3.6.6v3.4l.2.2h.2l.5-.4v.3c-.4.5-.8.8-1.2.8-.1 0-.3 0-.4-.2l-.1-.6zM3-1V-3l-1 .5-.6.5-.1.5c0 .3 0 .5.2.6.1.2.3.3.5.3.3 0 .6-.2 1-.5zm0 0"/></symbol><symbol overflow="visible" id="u"><path d="M3.2 2.1H1v-9.4h2.3v.4H1.7v8.6h1.5zm0 0"/></symbol><symbol overflow="visible" id="v"><path d="M1.3-6.4L3-7.3h.2v6.8l.2.2.7.1V0H1.4v-.2H2l.3-.3V-5v-1L2-6.4H2l-.6.1zm0 0"/></symbol><symbol overflow="visible" id="w"><path d="M.4-7.3h2.3V2H.4v-.4h1.5v-8.6H.4zm0 0"/></symbol><symbol overflow="visible" id="x"><path d="M5-1.4L4.4 0H.2v-.2A19 19 0 003-3c.5-.7.7-1.3.7-2 0-.4-.1-.8-.4-1-.3-.3-.6-.5-1-.5s-.7.1-1 .3l-.6 1H.4c.1-.7.3-1.2.7-1.6a2 2 0 011.4-.5c.6 0 1 .2 1.4.6.4.3.6.8.6 1.3 0 .3 0 .7-.2 1L3-2.4A38 38 0 011.4-.8H4a1 1 0 00.8-.6zm0 0"/></symbol><symbol overflow="visible" id="y"><path d="M0-4.4L1.5-5h.2v1.2l.7-1 .8-.2c.5 0 1 .2 1.2.6.4.5.6 1 .6 1.8a3 3 0 01-.7 2 2 2 0 01-1.5.7 1.5 1.5 0 01-1.2-.4v1.5l.1.6.2.2.6.1v.2H0v-.2L.7 2l.1-.2.1-.6v-4.6-.6l-.2-.2H.1zm1.7.9V-1c0 .2.2.3.4.5s.4.2.7.2c.4 0 .6-.1.9-.4.2-.3.4-.8.4-1.5s-.2-1.3-.5-1.7a1 1 0 00-1.3-.3 3 3 0 00-.6.6zm0 0"/></symbol><symbol overflow="visible" id="z"><path d="M1.6-7.5c.1 0 .2 0 .3.2a.5.5 0 010 .7l-.3.2c-.2 0-.3 0-.4-.2A.5.5 0 011-7c0-.1 0-.2.2-.3l.4-.2zM2-5v4.5l.3.2.4.1V0H.4v-.2h.5L1-.6V-3v-1L1-4.2H.7.5v-.2L1.7-5zm0 0"/></symbol><symbol overflow="visible" id="A"><path d="M.6 1.8v-.2c.3-.2.6-.3.8-.6.2-.2.3-.5.3-.8V0h-.1l-.3.1h-.2L.7 0 .6-.4c0-.2 0-.3.2-.5l.5-.2c.2 0 .4.1.6.4.2.2.2.4.3.8 0 .3-.2.7-.4 1-.3.3-.7.5-1.2.7zm0 0"/></symbol><symbol overflow="visible" id="B"><path d="M4.5-2.3v.6h-.9V0h-.8v-1.7H.1v-.6l3-4.2h.5v4.2zm-1.7 0v-3.2L.6-2.3zm0 0"/></symbol><symbol overflow="visible" id="C"><path d="M4.3-6.5v.2l-1 .2-.8.6-.6.8a5 5 0 00-.4 1.2c.4-.4.9-.5 1.3-.5.5 0 .8.2 1.1.5.4.4.5.8.5 1.4 0 .5-.1 1-.5 1.4-.3.5-.9.8-1.5.8-.4 0-.8-.1-1.1-.4C.7-1 .4-1.6.4-2.5.4-3 .5-3.6.8-4c.2-.5.5-1 1-1.4l1.1-.8L4-6.5zm-3 3.3v1c0 .3 0 .6.2 1 0 .3.2.6.5.8.1.2.3.3.5.3.3 0 .6-.2.8-.4.2-.3.3-.7.3-1.1 0-.6-.1-1-.3-1.4-.2-.4-.5-.6-1-.6H2l-.6.4zm0 0"/></symbol><symbol overflow="visible" id="D"><path d="M1.8-3.2l-1-1c0-.2-.2-.5-.1-.8 0-.4.1-.7.4-1 .3-.3.8-.5 1.3-.5s1 .2 1.2.4c.3.3.5.6.5 1 0 .2 0 .5-.2.7-.2.3-.6.5-1.1.9.5.4 1 .7 1 1 .3.3.4.6.4 1s-.1.8-.5 1.1a2 2 0 01-1.3.5C1.8.1 1.4 0 1-.5.7-.8.6-1 .6-1.5c0-.2 0-.5.3-.8.2-.3.5-.6 1-.9zm.8-.5c.4-.3.6-.6.7-.8l.1-.7c0-.3 0-.5-.2-.7a1 1 0 00-.8-.3c-.3 0-.6 0-.8.3l-.3.6c0 .2 0 .3.2.5 0 .2.2.3.3.5zM2-3c-.3.2-.5.4-.6.7l-.2.8c0 .4.1.8.3 1 .2.2.5.4.9.4.3 0 .6-.1.8-.3.2-.2.3-.4.3-.7 0-.2 0-.4-.2-.6A7 7 0 002.1-3zm0 0"/></symbol><symbol overflow="visible" id="E"><path d="M.5-5.1c.2-.5.4-.8.7-1 .2-.3.6-.4 1-.4.5 0 1 .2 1.2.5.2.3.3.5.3.8 0 .5-.3 1-.9 1.4.4.2.7.4.9.7.2.3.3.6.3 1 0 .5-.2 1-.5 1.4-.5.6-1.1.8-2 .8L.6 0 .4-.4l.1-.2.3-.1H1a10.4 10.4 0 01.8.4H2c.3 0 .6-.1.9-.4.2-.2.3-.5.3-.8 0-.3 0-.5-.2-.8L3-2.7 2.3-3a2 2 0 00-.7-.2h-.1v-.1l.7-.3.5-.5c.2-.2.2-.4.2-.7a1 1 0 00-.3-.8 1 1 0 00-.7-.3c-.5 0-1 .3-1.3.8zm0 0"/></symbol><symbol overflow="visible" id="F"><path d="M4.2-6.4l-.4.8h-2l-.3.9c.8.1 1.5.4 2 1a2.1 2.1 0 01.4 2.3A2.4 2.4 0 012.7 0L1.6 0C1.2.1.9.1.7 0 .5-.2.5-.4.5-.5v-.2l.3-.1h.3l.3.2c.2.2.4.2.7.2a1.4 1.4 0 001.4-1.4c0-.4-.2-.7-.4-1-.3-.4-.6-.7-1-.8-.4-.2-.8-.3-1.4-.3l1.2-2.5zm0 0"/></symbol><symbol overflow="visible" id="G"><path d="M1-6.4h3.4v.2L2.3.1h-.6l2-5.7H1.8l-.8.1c-.2.2-.5.4-.6.7H.4zm0 0"/></symbol><symbol overflow="visible" id="H"><path d="M.3-3.1c0-.8.2-1.4.4-2 .2-.4.5-.8.8-1 .3-.3.6-.4 1-.4s.8.3 1.2.8c.5.6.8 1.4.8 2.5A5 5 0 014-1.4c-.2.6-.4 1-.8 1.2-.3.2-.6.3-1 .3-.5 0-1-.3-1.4-1C.5-1.7.3-2.4.3-3.2zm1 0c0 1 0 1.7.3 2.2.2.5.4.7.8.7.2 0 .3 0 .5-.2l.4-.8a9.4 9.4 0 000-4C3.2-5.7 3.1-6 3-6a.8.8 0 00-.5-.2l-.6.3-.4 1.2L1.3-3zm0 0"/></symbol><symbol overflow="visible" id="I"><path d="M1.2-1l.4.2.1.4-.1.4-.4.1L.8 0a.5.5 0 01-.1-.4l.1-.4.4-.1zm0 0"/></symbol><symbol overflow="visible" id="J"><path d="M.5.1V0c.4 0 .8-.1 1.1-.3a3 3 0 001-1c.4-.4.6-1 .7-1.5-.5.3-.9.5-1.3.5s-.8-.2-1.1-.5a2 2 0 01-.5-1.4c0-.6.1-1 .5-1.5a1.8 1.8 0 012.8-.1c.5.5.7 1.2.7 2a4 4 0 01-.5 2c-.4.5-.9 1-1.5 1.4A3 3 0 01.8.1zm3-3.2v-1c0-.3 0-.6-.2-1 0-.3-.2-.6-.4-.8a1 1 0 00-.6-.3 1 1 0 00-.8.4c-.2.2-.3.6-.3 1.1 0 .7.2 1.2.4 1.6.2.2.5.4.8.4l.5-.1.5-.3zm0 0"/></symbol><symbol overflow="visible" id="K"><path d="M7.2-8.1l.2 2.7h-.2c-.2-.8-.6-1.4-1-1.8-.5-.3-1-.5-1.6-.5-.6 0-1 .1-1.5.4-.4.3-.7.7-1 1.3-.2.6-.3 1.3-.3 2.2 0 .7 0 1.3.3 1.8.2.6.6 1 1 1.2.5.3 1 .5 1.6.5.6 0 1-.1 1.4-.4.4-.2.8-.6 1.3-1.3l.2.1c-.4.7-.9 1.3-1.4 1.6-.5.3-1.2.5-1.9.5C3 .2 2-.3 1.3-1.3.6-2 .3-2.9.3-3.9c0-.7.2-1.5.6-2.1a3.9 3.9 0 013.5-2.1c.5 0 1.1.1 1.7.4l.3.1h.3l.2-.5zm0 0"/></symbol><symbol overflow="visible" id="L"><path d="M2-8.3v3.9l1-1 .7-.1c.3 0 .6 0 .8.2l.5.8.1 1.4v1.9l.1.7.2.2H6V0H3.3v-.2h.1L4-.3l.2-.4v-2.5-1l-.3-.5a.8.8 0 00-.5-.1l-.6.1c-.2.1-.5.3-.7.7v3.5l.2.2h.6V0H.2v-.2l.5-.1.2-.2V-6.1v-1.1l-.1-.3H.2L0-7.7l1.6-.6zm0 0"/></symbol><symbol overflow="visible" id="r"><path d="M1.8-7.5V-4l.9-.8.7-.2c.2 0 .5.1.7.3.2.1.3.3.4.7l.1 1.2v2.3l.3.2.4.1V0H3v-.2h.5l.2-.4v-2.2-1l-.3-.4a.7.7 0 00-.4-.1l-.6.1c-.2 0-.4.3-.6.6v3.1l.2.2.5.1V0H.1v-.2h.5l.2-.3v-5-1-.2l-.3-.1H.1v-.1l1.4-.6zm0 0"/></symbol><symbol overflow="visible" id="N"><path d="M1.7-8.3l.5.1.1.5-.1.4-.5.2-.4-.2a.5.5 0 01-.2-.4l.2-.5.4-.1zm.5 2.8v4.3l.1.7.2.2H3V0H.4v-.2H1l.2-.3v-2.7-1.2l-.1-.3H.8.4v-.2L2-5.5zm0 0"/></symbol><symbol overflow="visible" id="O"><path d="M2-4.4c.6-.7 1.2-1.1 1.7-1.1.3 0 .6 0 .8.2.2.1.4.4.5.7l.1 1.1v2.3l.1.7.2.2H6V0H3.3v-.2h.1L4-.3l.2-.4v-2.7l-.1-1c-.2-.3-.4-.4-.7-.4-.4 0-.9.2-1.4.8v2.8l.1.7.2.2h.6V0H.2v-.2c.3 0 .5 0 .6-.2l.2-.8v-2-1.2l-.2-.3H.2L0-4.9l1.6-.6h.2zm0 0"/></symbol><symbol overflow="visible" id="P"><path d="M1.5-7.8l2.1-1h.2v8.2l.3.3H5V0H1.7v-.2l.8-.1.2-.3v-5.6-1.2l-.1-.3h-.3l-.7.1zm0 0"/></symbol><symbol overflow="visible" id="Q"><path d="M6-1.7L5.4 0H.3v-.2c1.5-1.4 2.5-2.5 3.1-3.4.6-.8 1-1.6 1-2.3 0-.6-.2-1-.6-1.4-.3-.3-.7-.5-1.2-.5-.4 0-.8.1-1 .4-.4.2-.7.6-.8 1H.5a3 3 0 01.8-1.8c.5-.4 1-.6 1.7-.6s1.3.2 1.7.7c.5.4.7 1 .7 1.6 0 .4 0 .8-.3 1.3-.3.7-.8 1.4-1.5 2.2l-2 2H5l.4-.2.4-.5zm0 0"/></symbol><symbol overflow="visible" id="R"><path d="M.7-7c.2-.5.5-1 .9-1.3.4-.3.8-.5 1.4-.5a2 2 0 011.6.7c.3.3.4.7.4 1 0 .7-.4 1.3-1.2 2 .5.2 1 .5 1.2.9.3.4.4.8.4 1.3 0 .8-.2 1.4-.7 2-.6.7-1.5 1-2.7 1C1.4.2 1 .2.8 0 .6-.2.5-.4.5-.5c0-.1 0-.3.2-.4h.7l.4.2.6.2.5.1a1.7 1.7 0 001.6-1.7l-.2-1a2 2 0 00-.4-.5 3 3 0 00-.8-.5l-1-.2H2v-.2l1-.3.7-.7c.2-.3.2-.6.2-1s-.1-.7-.4-1c-.2-.3-.6-.4-1-.4C2-8 1.3-7.6 1-7zm0 0"/></symbol><symbol overflow="visible" id="S"><path d="M6-3.2v1H5V0h-1v-2.3H.1V-3l4-5.7h.7v5.6zm-2.2 0v-4.2l-3 4.2zm0 0"/></symbol><clipPath id="i"><path d="M239 32h206v123H239zm0 0"/></clipPath><clipPath id="a"><path d="M9 25.5h206V155H9zm0 0"/></clipPath><clipPath id="c"><path d="M9 29h206v126H9zm0 0"/></clipPath><clipPath id="d"><path d="M9 33h206v122H9zm0 0"/></clipPath><clipPath id="e"><path d="M9 213h206v127H9zm0 0"/></clipPath><clipPath id="f"><path d="M9 214h206v126H9zm0 0"/></clipPath><clipPath id="g"><path d="M9 218h206v122H9zm0 0"/></clipPath><clipPath id="h"><path d="M9 210.3h206V340H9zm0 0"/></clipPath><clipPath id="b"><path d="M9 39h206v116H9zm0 0"/></clipPath><clipPath id="j"><path d="M239 31h206v124H239zm0 0"/></clipPath><clipPath id="k"><path d="M239 25.5h206V155H239zm0 0"/></clipPath><clipPath id="l"><path d="M239 27h206v128H239zm0 0"/></clipPath><clipPath id="m"><path d="M239 222h206v118H239zm0 0"/></clipPath><clipPath id="n"><path d="M239 217h206v123H239zm0 0"/></clipPath><clipPath id="o"><path d="M239 210.3h206V340H239zm0 0"/></clipPath><clipPath id="p"><path d="M239 212h206v128H239zm0 0"/></clipPath></defs><path fill="#fff" d="M0 0h504v360H0z"/><g clip-path="url(#a)"><path d="M9 153.4h4.8l.4.1h.8l1.6.1H24.6l.4-.1h.8l2.5-.2H31.5l1.2-.1h1.6l1.2-.1H36.7l.4-.1H38.3l.8-.2h.8l.8-.1h.4l.4-.1h.4l.8-.2.8-.1.8-.2h.4l.4-.1.8-.1.9-.2h.4l.8-.2h.4l.4-.2h.4l1.2-.3h.4l1.2-.3h.4l.4-.1h.4l.4-.2h.4l.4-.1.4-.1.8-.2.8-.2h.4l.4-.2.8-.2.8-.2h.4l.4-.2.4-.1.4-.2.4-.1.4-.2.4-.1.4-.2.4-.1.4-.2.4-.2.4-.2.4-.2.4-.1.4-.3.4-.2.4-.2.4-.2.4-.3.4-.2.5-.3.4-.3.4-.2.4-.3.8-.6.4-.3 1.2-.9.8-.5.4-.3.4-.3.4-.3.4-.2.4-.3.4-.2.4-.3.4-.2.4-.2.4-.2.4-.2.4-.2.4-.2.4-.2.4-.1.4-.2.4-.1.4-.2 1.2-.4.4-.2.8-.3.4-.1.4-.2.4-.2.4-.2.4-.2.4-.2.4-.2.4-.2.4-.3.4-.2.4-.3.4-.3.4-.3.4-.4.4-.3.5-.3.4-.4.4-.4.4-.4.4-.4.4-.4.4-.4.4-.5.4-.4.4-.5.4-.4.8-1 .8-1 .4-.4.4-.5.4-.5.8-1 .4-.6.4-.5.8-1 .4-.5.4-.6.4-.5.4-.5.4-.6.4-.5.4-.6.4-.5.4-.6.4-.6.4-.6.4-.6.4-.6.4-.6.4-.6.4-.7.4-.6.4-.7.4-.7.4-.7.4-.8.4-.7.4-.8.4-.7.4-.8.4-.8.4-.8.5-.8.4-.9.4-.8.4-.9.4-.8.4-.9 1.6-3.4.4-.9.4-.9.8-1.7.4-.8.4-.8.4-.8.4-.9.4-.8.4-.8.4-.7.4-.8.4-.8.8-1.5.4-.8.8-1.5.8-1.6.4-.7.4-.8.4-.8.4-.8.4-.8.4-.8.4-.9.4-.8.4-.9.4-.9.4-.9.4-1 .4-.9.4-1 .4-.9.4-1 .4-1 .4-1 .4-1.1.4-1 .4-1.2.4-1 .5-1.2.4-1 .4-1.2.4-1.1.4-1.1.4-1.1.4-1.1.4-1.1.4-1.1.4-1 .4-1.1.4-1 .4-1 .4-1 .4-1 .4-1 .4-.9.4-.9.4-.8.4-.8.4-.8.4-.8.4-.7.4-.7.4-.6.4-.6.4-.6.4-.6.4-.5.4-.6.4-.5.4-.4.4-.5.4-.4.4-.4.4-.4.4-.4.4-.4.4-.4.4-.3.4-.4.4-.3.4-.4.4-.3.4-.3.4-.3.4-.2.4-.3.4-.2.4-.2.4-.2.5-.2.4-.1.4-.1h.4l.4-.1h.8l.4.2.4.2.4.2.4.3.4.3.4.4.4.5.4.5.4.5.4.7.4.6.4.8.4.8.4.8.4 1 .4.9.4 1 .4 1 .4 1 .4 1 .4 1.2.4 1.1.4 1.2.4 1.1.4 1.2.4 1.2.4 1.2.4 1.1.4 1.2.4 1.2.4 1.1.4 1.1.4 1.2.4 1 .4 1.2.4 1 .4 1 .4 1.1.4 1 .4 1 .4 1 .4 1 .4 1 .4 1 .5.9.4.9.4 1 .8 1.8.8 1.9.4.9.4 1 .4 1 .4.9.4 1 .4 1 .4 1 .4 1 .4 1 .4 1.1.4 1 .4 1.2.4 1 .4 1.2.4 1.1.4 1.2.4 1.1.4 1.2.4 1.2 1.6 4.7.4 1.1.4 1.2.4 1.1.4 1.2.4 1 .4 1.2.4 1 .4 1.2.4 1 .4 1 .4 1 .4 1 .4 1 .4 1 .4 1 .4.8.4 1 .4.8.4.9.4.8.4.8.5.8.4.8.4.8.4.8.4.8.4.8.8 1.5.4.8.4.8.4.8.4.7.8 1.6.4.8.4.8.8 1.6 1.2 2.4.4.8.4.8.4.8.4.8.4.8.4.8.4.7.4.7.4.8.4.7.4.7.4.7.4.6.4.6.4.6.4.6.4.6.4.5.4.5.4.5.4.5.4.4.4.4.4.4.4.3.4.4.4.3.4.3.4.3.4.2.4.3.5.2.4.2.4.2.4.2.4.1.4.2h.4l.4.2" fill="none" stroke-width="1.1" stroke-linejoin="round" stroke="#7c0000" stroke-miterlimit="10"/></g><g clip-path="url(#b)"><path d="M9 153.9h4l2-.1h1.6l.4-.1h.4l3.2-.2H23l1.2-.1H38.7l.4-.1h2l.8-.1h1.6l.4-.1H45.1l1.2-.1h.9l.8-.1h.8l.4-.1h.4l1.2-.2 1.2-.1h.4l.4-.1h.4l.8-.2h.4l.4-.1 1.2-.2.4-.1h.4l.4-.2h.4l.8-.2.4-.1h.4l.8-.3.8-.2.4-.1.8-.3h.4l.4-.2.4-.2.4-.1.4-.2.4-.1.4-.2.4-.2.4-.2.4-.2.4-.2.4-.2.5-.3.4-.2.4-.2.4-.3.4-.3.4-.2.4-.3.4-.3.4-.3.4-.3.8-.6 1.6-1.2.4-.3.8-.6.4-.3.4-.3.4-.3.4-.2.4-.3.4-.3.4-.2.4-.3.4-.2.4-.3.4-.2.4-.2.4-.2.4-.2.4-.2.8-.4.4-.2.4-.2.4-.2.4-.2.4-.2.8-.3.4-.2.4-.2.4-.2.4-.2.4-.2.4-.2.8-.4.5-.2.4-.2.4-.2.4-.2.4-.3.4-.2.4-.3.4-.2.4-.3.4-.3.4-.3.4-.4.4-.3.4-.4.4-.4.4-.5.4-.4.4-.5.4-.6.4-.5.4-.6.4-.6.4-.7.4-.7.4-.8.4-.7.4-.9.4-.8.4-1 .4-.9.4-1 .4-1 .4-1 .4-1.2.4-1 .4-1.2.4-1.2.4-1.2.4-1.3.4-1.2.4-1.3.4-1.3.4-1.3.4-1.3.4-1.3.4-1.3.4-1.3.4-1.3.4-1.2.4-1.3.4-1.2.5-1.2.4-1.2.4-1.2.4-1.1.4-1.1.4-1 .4-1.1.4-1 .4-1 .4-1 .4-.9.4-.8.4-.9.4-.8.4-.8.4-.7.4-.8.4-.7.4-.7.4-.6.4-.7.4-.6.4-.6.4-.6.4-.6.4-.6.4-.5.4-.6.4-.5.4-.5.4-.5.4-.5.4-.5.4-.5.4-.4.4-.5.4-.4.4-.5.4-.4.4-.4.4-.4.4-.3.4-.4.4-.3.4-.3.4-.4.4-.3.4-.2.4-.3.4-.3.4-.2.4-.2.5-.3.4-.2.4-.2.4-.2.4-.2.4-.2.8-.4.8-.4.4-.2.4-.2.4-.2.4-.2.4-.2.4-.3.4-.2.4-.3.4-.3.4-.3.4-.3.4-.3.4-.4.4-.3.4-.4.4-.4.4-.4.4-.4.4-.4.4-.5.4-.4.8-.9.4-.4.4-.5.4-.4.4-.4.4-.4.4-.4.4-.4.4-.4.4-.3.4-.3.4-.3.4-.3.4-.2.4-.2.4-.2.4-.2.4-.1.4-.2h.5l.4-.1h.4l.4-.1h.8l.8-.1h.8l.4-.1h.4l.4-.1.4-.1.4-.1.4-.2.4-.1.4-.2.4-.2.4-.2.4-.3.4-.3.4-.3.4-.3.4-.3.4-.4.4-.3.4-.4.4-.4.4-.4.4-.4.4-.3.4-.4.4-.3.4-.3.4-.3.4-.3.4-.2.4-.2.4-.1h.4l.4-.1h.4l.4.1.4.2.4.2.4.3.4.3.4.5.4.5.4.5.5.7.4.7.4.8.4.8.4 1 .4.9.4 1 .4 1.1.4 1.2.4 1.2.4 1.3.4 1.3.4 1.3.4 1.4.4 1.5.4 1.4.4 1.5.4 1.6.4 1.5.4 1.6.4 1.6.4 1.6.4 1.6.4 1.6.4 1.6.4 1.6.4 1.7.8 3.2.4 1.6.4 1.6.4 1.6.4 1.6.4 1.6.4 1.5.4 1.6.4 1.5.4 1.5.4 1.5.4 1.4.4 1.5.4 1.4.4 1.4.4 1.4.4 1.3.4 1.4.4 1.3.4 1.2.4 1.3.4 1.3.4 1.2.5 1.2.4 1.1.4 1.2.4 1.1.4 1.1.4 1 .4 1.1.4 1 .4 1 .4 1 .4 1 .4 1 .4 1 .4.8.4 1 .4.8.4.9.4.8.4.8.4.8.4.8.4.7.4.8.4.7.4.7.4.7.4.6.4.6.4.7.4.5.4.6.4.6.4.5.4.5.4.5.4.5.4.4.4.4.4.5.4.3.4.4.4.4.4.3.4.4.4.3.4.3.4.3.4.3.4.2.4.3.4.2.4.3.5.2.4.2.4.3.8.4.4.2.8.4" fill="none" stroke-width="1.1" stroke-linejoin="round" stroke="#8f2727" stroke-miterlimit="10"/></g><g clip-path="url(#c)"><path d="M9 153.9h4l.4-.1h2l1.2-.1h.8l.4-.1h1.6l.4-.1h1.6l1.6-.2H41.1l.4.1h1.6l1.6.1h4.1l.4-.1h.8l.4-.1h.4l.4-.1.4-.1h.4l.8-.2.4-.1.4-.1.4-.1.4-.1.4-.2h.4l.8-.3.4-.2h.4l.4-.2 1.2-.5.4-.1.4-.2.4-.1 1.2-.5.4-.1.4-.2.8-.3 1.2-.4.4-.2.4-.1.8-.3.4-.1 2-.8.9-.3.8-.3.4-.1.4-.2.8-.3.4-.2.4-.2.4-.2.4-.2.4-.2.4-.2.4-.2.4-.3.4-.2.4-.3.4-.2.4-.3.4-.3.4-.3.4-.4.4-.3.4-.3.4-.4.4-.4.4-.4.4-.4.4-.4.4-.5.4-.4.4-.5.4-.4.4-.5.4-.5.4-.5.4-.5.4-.4.8-1 .4-.6.8-1 .4-.4.4-.5.4-.5.4-.5.4-.5.5-.4.4-.5.4-.4.4-.5.4-.4.4-.4.4-.4.4-.4.4-.4.4-.3.4-.4.4-.3.4-.4.4-.3.4-.3.4-.3 1.6-1.3.4-.3.8-.6.4-.3.4-.4.4-.3.4-.4.4-.4.4-.4.4-.4.4-.4.4-.5.4-.4.4-.5.4-.5.4-.5.4-.6.4-.5.4-.6.4-.6.4-.6.4-.6.4-.7.4-.6.4-.6.4-.7.4-.7.4-.7.4-.6.4-.7.4-.7.5-.8.4-.7.4-.7.4-.8.4-.7.4-.8.4-.8.4-.8.4-.8.4-.9.4-.8.4-1 .4-.8.4-1 .4-1 .4-1 .4-1 .4-1 .4-1 .4-1.2.4-1 .4-1.2.4-1.2.4-1.2.4-1.2.4-1.2.4-1.3.4-1.2.8-2.5.4-1.2.4-1.3.4-1.2.4-1.2.4-1.2.4-1.2.4-1.2.4-1 .4-1.2.4-1 .4-1.1.4-1 .4-1 .4-1 .4-1 .4-1 .4-.9.4-.9.4-.9.4-.9.4-.9.4-.8.9-1.8.4-.9.4-.9.4-.9.4-.9.4-1 .4-.9.4-1 .4-1 .4-1 .4-.9.4-1 .4-1 .4-1 .4-1 .4-1 .4-1 .4-.9.4-.9.4-.8.4-.9.4-.7.4-.7.4-.7.4-.6.4-.5.4-.5.4-.3.4-.3.4-.2.4-.1h.8l.4.1.4.2.4.3.4.4.4.4.4.5.4.5.4.5.4.6.4.7.4.6.8 1.3.4.7.4.6.4.6.4.6.5.5.4.5.4.5.4.4.4.3.4.3.4.3.4.2.4.1h.4l.4.1h.8l.4-.2.4-.1.4-.2.4-.2.4-.2.8-.4.4-.2.4-.2.4-.2h.4l.4-.2h1.6l.4.2.4.2.4.2.4.3.4.5.4.4.4.5.4.6.4.7.4.7.4.8.4.8.4 1 .4.9.4 1 .4 1 .4 1 .4 1.2.4 1 .4 1.2.4 1.2.4 1.2.5 1.2.4 1.2.4 1.2.4 1.2.8 2.4.4 1.2.4 1.2.4 1.2.4 1.1.4 1.2.4 1.1.4 1.1.4 1.2.4 1 .4 1.2.4 1 .4 1.1.4 1.1.8 2.2.4 1 .4 1.2.4 1 .4 1.1.4 1.1.4 1.2.4 1 .4 1.2.4 1.2.4 1.2.4 1.1.4 1.2.4 1.3.4 1.2.4 1.2.4 1.3.4 1.2.4 1.3.4 1.3.4 1.3.4 1.3.4 1.3.8 2.5.8 2.6.4 1.3.4 1.3.4 1.2.4 1.2.5 1.3.4 1.2.4 1.2.4 1.1.4 1.2.4 1 .4 1.2.4 1 .4 1.1.4 1 .4 1 .4 1 .4 1 .4.9.4.9.4.9.4.8.4.9.4.8.4.8.4.8.4.7.4.8.4.7.4.7.4.7.4.6.4.7.4.6.4.6.4.6.4.6.4.5.4.6.4.5.4.5.4.5.4.4.4.5.4.4.4.4.4.4.4.3.4.4.4.3.4.3.4.3.4.2.4.3.4.2.4.2.4.2.5.2.4.1.4.2h.4l.4.2.4.1.4.1.4.1" fill="none" stroke-width="1.1" stroke-linejoin="round" stroke="#b97c7c" stroke-miterlimit="10"/></g><g clip-path="url(#d)"><path d="M9 154H16.6l.4-.1H21.4l1.6-.1h2l1.3-.2H28.6l.4-.1 2-.1H32.3l.4-.1h.4l2-.1H36.3l.4-.1h1.6l.4-.1H40l.8-.1h.4l.8-.1h.8l.8-.2 1.2-.1h.4l.4-.1 1.3-.2h.8l.4-.1.8-.2h.4l.8-.2h.4l.4-.1.4-.1.4-.1.8-.2h.4l.4-.1.4-.1.4-.1.4-.1h.4l.4-.2h.4l.4-.1.4-.1.4-.1.4-.1.4-.1h.4l.8-.3 1.2-.2.8-.2.4-.1.4-.1.8-.2.8-.3h.4l.4-.2.4-.2.4-.1.4-.2.4-.1.4-.2.4-.2.4-.2.5-.2.4-.2.4-.2.4-.2.4-.3.4-.2.4-.3.4-.2.4-.3.4-.3.4-.3.4-.3.4-.3 1.2-.9.4-.3.4-.3.8-.5.4-.3.8-.6.4-.3.4-.3.4-.3.4-.2.4-.3.4-.2.4-.3.8-.5.8-.5.8-.5.4-.2.4-.3.4-.2.4-.3.4-.2.4-.3.4-.3.4-.3.4-.3.4-.3.4-.3.4-.4.4-.3.4-.4.4-.4.5-.4.4-.4.4-.5.4-.4.4-.5.4-.5.4-.5.4-.5.4-.6.4-.5.4-.6.4-.6.4-.6.4-.6.4-.7.4-.6.4-.7.4-.6.4-.7.4-.7.4-.7.4-.7.4-.8.4-.7.4-.7.4-.8.4-.7.4-.8.8-1.6.4-.7 1.2-2.4.4-.8.4-.8.4-.8.8-1.5.4-.8.4-.7.4-.8.4-.7.4-.8.4-.7.4-.7.4-.7.4-.7.4-.7.4-.6.4-.6.5-.7.4-.6.4-.6.4-.5.4-.6.4-.5.4-.6.4-.5.4-.5.4-.4.4-.5.4-.5.4-.4.4-.5.4-.4.4-.5.8-.8.8-1 .4-.4.4-.4.4-.5.4-.5.4-.5.4-.5.4-.5.4-.5.4-.5.4-.6.4-.6.4-.6.4-.6.4-.6.4-.7.4-.6.4-.7.4-.7.4-.7.4-.7.4-.8.4-.7.4-.7.4-.8.4-.7.4-.8.4-.8 1.6-3 .4-.8.9-1.5.4-.7.4-.8.8-1.4.4-.8.8-1.5 1.2-2.1.4-.8.4-.7 1.2-2.2.4-.7.4-.7.4-.8.8-1.4.4-.7.4-.7.4-.7.4-.7.4-.7.4-.7.4-.7.4-.7.4-.6.4-.7.4-.6.4-.6.4-.6.4-.7.4-.5.4-.6.4-.5.4-.6.4-.5.4-.5.4-.5.4-.4.4-.4.4-.4.4-.4.4-.4.4-.3.4-.4.4-.3.5-.2.4-.3.4-.2.4-.3.4-.1.4-.2.4-.2.4-.1.4-.2h.4l.4-.2h.4l.4-.1h.8l.4-.1H156.9l.4.1.4.1.4.1.4.1.4.2.4.2.4.2.4.2.4.3.4.3.4.3.4.4.4.4.4.4.4.5.4.5.4.6.4.5.4.6.4.7.4.6.4.7.4.7.4.8.4.8.4.8.4.8.4.8.4 1 .4.8.4 1 .4.9.5 1 .4.9.4 1 .4 1 .4 1 .4 1.1.4 1.1.4 1.1.4 1.2.4 1.1.4 1.2.4 1.1.4 1.3.4 1.2.4 1.2.4 1.3.4 1.2.4 1.3.4 1.3.4 1.3.4 1.3.4 1.3.4 1.4.4 1.3.4 1.4.4 1.4.4 1.3.4 1.4.4 1.4.4 1.4.4 1.4.4 1.4.4 1.4 1.2 4.2.4 1.5.8 2.8.4 1.4.4 1.4.4 1.4.4 1.4.4 1.4.4 1.3.4 1.4.4 1.4.4 1.3.4 1.3.4 1.3.4 1.3.5 1.3.4 1.2.4 1.2.4 1.2.4 1.2.4 1.2.4 1.1.4 1.1.4 1 .4 1.1.4 1 .4 1 .4 1 .4 1 .4.9.4.8.4 1 .4.7.4.8.4.8.4.8.4.7.4.8.4.6.4.7.4.7.4.6.4.6.4.6.4.6.4.6.4.5.4.5.4.5.4.5.4.5.4.4.4.5.4.4.4.4.4.4.4.4.4.3.4.4.4.3.4.3.4.3.4.3.4.2.4.3.4.2.4.2.5.3.4.1.4.2.4.2.4.1.4.2.4.1.4.1" fill="none" stroke-width="1.1" stroke-linejoin="round" stroke="#dcbcbc" stroke-miterlimit="10"/></g><g clip-path="url(#e)"><path d="M9 337.4h.4l.4-.1.4-.2h.4l.4-.2.4-.1.4-.2.4-.1.4-.2.4-.2.4-.2.4-.2.4-.2.4-.3.4-.2.4-.3.4-.3.4-.3.4-.3.4-.3.4-.4.4-.4.4-.4.4-.4.4-.5.4-.4.4-.5.4-.5.4-.6.4-.5.4-.6.4-.6.4-.6.4-.7.4-.6.4-.7.4-.7.4-.7.4-.8.4-.7.4-.8.4-.8.4-.8.5-.9.4-.8.4-.9.4-.8.4-1 .4-.8.4-.9.4-1 .4-.8.4-1 .4-.9.4-.9.8-1.8.8-2 .4-.8.4-1 .4-1 .4-.9.4-1 .4-.9.4-1 .4-1 .4-.9.4-1 .4-1 .4-1 .4-1 .4-1.1.4-1 .4-1.2.4-1.1.4-1.1.4-1.2.4-1.2.4-1.2.4-1.3.4-1.2.4-1.3.4-1.3.4-1.4.4-1.3.4-1.4.4-1.3.4-1.4.4-1.4.8-2.8.4-1.4.5-1.4.4-1.4.4-1.3.4-1.4.4-1.4.4-1.3.4-1.3.4-1.4.4-1.3.4-1.3.4-1.3.4-1.2.4-1.3.4-1.2.4-1.2.4-1.3.4-1.2.4-1.1.4-1.2.4-1.2.4-1.1.4-1.2.4-1 .4-1.2.4-1 .4-1.1.4-1.1.4-1 .4-1 .4-1 .4-1 .4-1 .4-.9.4-.8.4-1 .4-.7.4-.9.4-.7.4-.8.4-.7.4-.7.4-.6.4-.6.4-.6.4-.6.4-.5.4-.5.4-.4.4-.5.4-.4.4-.3.5-.3.4-.3.4-.3.4-.2.4-.2.4-.1.4-.1.4-.1h1.6l.4.1.4.2.4.1.4.2.4.2.4.3.4.3.4.3.4.3.4.4.4.4.4.4.4.4.4.4.4.5.4.5.4.5.4.5.4.5.4.5.4.6.4.6.4.5.4.6.4.6.4.7.4.6.4.6.4.7.4.6.4.7.4.7.4.7.4.7.4.7.4.7.8 1.4.8 1.4.9 1.5.8 1.4.4.7.4.8.4.7.4.7.8 1.5.4.8.4.8.4.7.4.8.4.8.4.8.4.9.4.8.4.9.4.9.4.9.4.9.4 1 .4 1 .4.9.4 1 .4 1 .4 1 .4 1.1.4 1 .4 1.1.4 1.1.4 1.1.4 1.1.4 1.1.4 1.1.4 1.2.4 1 .4 1.2.4 1 .4 1.2.4 1 .4 1.2.4 1 .4 1.1.4 1 .4 1 .4 1 .4 1 .4 1 .5 1 .4 1 .4.9.4.9.4.8.4.9.4.8.4.8.4.7.4.8.4.7.4.7.4.7.4.6.4.7.4.6.4.6.4.6.4.7 1.6 2.4.4.6.4.6.4.6.4.7.4.6.4.7.4.6.4.7.4.7.4.6.4.7.4.7.4.7.4.8.8 1.4.8 1.4.4.7.4.6.4.7.4.7.4.6.4.6.4.7.4.6.4.6.4.5.4.6.5.5.4.6.4.5.4.5.4.5.4.4.4.5.4.5.4.4.4.5.8.8.4.4.4.5.4.4.4.4.4.4.8.8.4.4.4.4.8.8.4.4.4.4.4.4.4.4.4.3.4.4.4.3.4.3.4.4.4.3.4.3.4.2.4.3.4.3.4.2.4.2.4.2.4.2.4.2.4.2.4.1.4.1.4.2h.4l.4.2h.4l.4.2h.4l.5.1.4.1h.4l.4.1 2 .3 1.2.2h.4l.4.2 1.2.2h.4l1.6.4h.4l.4.2h.4l.4.1.4.1h.4l.8.2h.4l.8.2h.4l.4.1.8.2h.8l.8.1.8.1h.8l.4.1h.8l.4.1h.8l.5.1h.8l1.2.2 1.2.1 1.2.1h.4l.4.1.8.1h.4l.4.1 1.2.2h.8l.4.1 1.6.2 1.2.1h.4l.4.1h.8l1.2.2h2l.4.1h2.4l.9.1h23.6" fill="none" stroke-width="1.1" stroke-linejoin="round" stroke="#7c0000" stroke-miterlimit="10"/></g><g clip-path="url(#f)"><path d="M9 338l.4-.2.4-.1.4-.2.4-.1.4-.2.4-.2.4-.2.4-.2.4-.2.4-.2.4-.3.4-.2.4-.3.4-.3.4-.3.4-.3.4-.3.4-.3.4-.4.4-.3.4-.4.4-.4.4-.3.4-.4.4-.4.4-.4.4-.4.4-.4.4-.4.4-.5.8-.8.4-.4.4-.5.4-.4.4-.5.4-.5.4-.4.4-.5.4-.5.4-.6.4-.5.4-.6.5-.6.4-.6.4-.6.4-.6.4-.7.4-.7.4-.8.4-.7.4-.8.4-.9.4-.8.4-1 .4-.9.4-1 .4-1 .4-1 .4-1 .4-1.1.4-1.2.4-1.1.4-1.2.4-1.3.4-1.2.4-1.4.4-1.3.4-1.4.4-1.4.4-1.4.4-1.4.4-1.5.4-1.6.4-1.5.4-1.6.4-1.6.4-1.6.4-1.7.4-1.6.4-1.7.4-1.7.4-1.7 1.2-5.2.4-1.7.4-1.7.4-1.7.4-1.6.4-1.7.4-1.6.4-1.6.5-1.6.4-1.5.4-1.5.4-1.5.4-1.4.4-1.4.4-1.3.4-1.2.4-1.2.4-1.2.4-1.1.4-1 .4-1 .4-1 .4-.9.4-.8.4-.8.4-.8.4-.7.4-.6.4-.6.4-.6.4-.5.4-.5.4-.5.4-.5.4-.4.4-.4.4-.4 1.2-1.3.4-.4.4-.4.4-.5.4-.4.4-.5.4-.5.4-.5.4-.6.4-.5.4-.6.4-.6.4-.6.4-.6.4-.7.4-.6.4-.7.4-.6.4-.6.4-.6.5-.6.4-.6.4-.6.4-.5.4-.5.4-.4.4-.5.4-.3.4-.4.4-.3.4-.2.4-.2.4-.1.4-.1.4-.1H74l.4.2.4.1.4.2.4.2.4.2.4.2.4.3.4.2.4.3 2 1.4.8.5.8.5.4.3.4.3.4.3.4.3.4.3.4.3.4.4.4.3.4.5.4.4.4.5.4.5.4.6.4.6.4.6.5.7.4.7.4.8.4.8.4.8.4.9.4.9.4.9.4 1 .4.9.4 1 .4 1 .8 2 .4.9.4 1 .4 1 .4.9.4 1 .4.9.4 1 .4.9.4.9.4.9.4.9.4.9.8 1.8.4.9.4 1 .4.9.4.9.4 1 .4 1 .4 1 .4 1 .4 1 .4 1 .4 1.1.4 1.2.4 1.1.4 1.2.4 1.2.4 1.2.4 1.3.4 1.2.4 1.3.4 1.4.4 1.3.4 1.3.4 1.4.5 1.4 1.2 4 .4 1.4.4 1.4.4 1.4.4 1.3.4 1.3.4 1.3.4 1.3.4 1.2.4 1.2.4 1.2.4 1.2.4 1 .4 1.2.4 1 .4 1 .4 1 .4.9.4.8.4.9.4.7.4.8.4.7.4.6.4.7.4.5.4.6.4.5.4.5.4.5.4.4.4.4.4.4.4.4.4.4 1.2 1 .4.4.4.4.4.3.4.4.4.4.4.4.4.4.4.4.4.5.4.4.4.5.5.5.4.5.4.5.4.5.4.6.4.5.4.6.4.5.8 1.1.8 1.1.4.6.4.5.4.5.4.5.4.6.4.4.4.5.4.5.4.4.4.5.4.4.4.4.4.4.4.4.4.3.4.4.4.3.4.3.4.3.4.3.4.2.4.3.4.2.4.2.4.2.4.2.4.2.4.2.4.1.4.2.4.1.4.1.4.1.4.1h.4l.4.2h.8l.4.1h.5l.4.1H151.3l.4.1h2l.4.1h1.6l.4.1h.8l.4.1.8.1h.4l1.2.2.8.1h.4l.4.1.8.2h.8l.4.1.8.2h.4l2 .3h.4l.4.2h.8l.4.1h.4l.4.1h.4l.5.1.4.1h.8l.4.1.8.1h1.6l.4.1h4l.4-.1h1.2l.4-.1h.8l.4-.1H183l.4-.1h.8l1.2-.1h5.3l.4.1h.8l.4.1h.8l1.6.2h.8l.4.1h.8l.4.1H198.3l.4.1h.8l.8.1h2.8l1.2.1h10.1" fill="none" stroke-width="1.1" stroke-linejoin="round" stroke="#8f2727" stroke-miterlimit="10"/></g><g clip-path="url(#g)"><path d="M9 338l1.2-.3h.4l.8-.2.8-.1.4-.1h.4l.4-.2h.4l.4-.2.4-.1.4-.1.4-.2.4-.1.4-.2.4-.1.4-.2.4-.2.4-.2.4-.2.4-.2.4-.3.4-.2.4-.3.4-.3.4-.3.4-.4.4-.3.4-.4.4-.4.4-.5.4-.4.4-.5.4-.6.4-.5.4-.6.4-.7.4-.6.4-.7.4-.8.5-.8.4-.8.4-.9.4-1 .4-.9.4-1 .4-1 .4-1 .4-1.2.4-1.1.4-1.2.4-1.2.4-1.3.4-1.3.4-1.3.4-1.3.4-1.4.4-1.4.4-1.4.4-1.4.4-1.4.4-1.4.4-1.5.4-1.5.4-1.4.4-1.5.4-1.5.4-1.4.4-1.5 1.2-4.4.4-1.5.8-3 .4-1.4.4-1.5.4-1.5.4-1.5.4-1.5.4-1.5.4-1.5.4-1.5.4-1.5.4-1.5.4-1.6.4-1.5.4-1.5.8-3.2.9-3.1.4-1.6.8-3.1.4-1.6.4-1.5.4-1.5.4-1.6.4-1.4.4-1.5.4-1.4.4-1.4.4-1.4.4-1.3.4-1.3.4-1.3.4-1.2.4-1.1.4-1.1.4-1 .4-1 .4-1 .4-1 .4-.8.4-.8.4-.7.4-.7.4-.7.4-.6.4-.5.4-.5.4-.5.4-.4.4-.3.4-.3.4-.3.4-.2.4-.2h.4l.4-.1h1.6l.4.2.4.1.4.2.4.2.4.2.4.3.5.2.4.3.4.3.4.3.8.6.4.3.4.4.4.3.4.2.4.3.4.3.4.3.4.2.4.3.4.2.4.2.4.2.4.2.4.3.8.4.8.4.4.2.4.2.4.2.4.3.4.2.4.3.4.3.4.3.4.3.4.3.4.4.4.3.4.4.4.4.4.4.4.4.4.4.4.5.4.4.8 1 .4.4.4.5.4.4.4.5.4.5.4.5.5.5.4.4 1.2 1.5.4.5.8 1 .8.9.4.5.4.5.4.5.4.5.4.5.4.6.4.5.4.6.4.6.4.6.4.6.4.6.4.6.4.7.4.7.4.7.4.7.4.7.4.8.4.8.4.8.4.8.4.8.4.9.4.9.4.9.4.9.4.9.4 1 .4.9.4 1 .4 1 .4 1 .4 1 .4 1 .4 1 .4 1 .4 1 .4 1.2.4 1 .4 1.1.5 1.1.4 1.1.4 1.1.4 1.2.4 1.1.4 1.1.4 1.2.8 2.2.4 1.1.4 1.2.4 1 .4 1.2.4 1 .4 1.1.4 1 .4 1 .4 1 .4 1 .4 1 .4 1 .4.9.4.9.4.8.4.8.4.9.4.7.4.8.4.7.4.8.4.7.4.7.4.7.4.6.4.7.4.7 2.4 3.9.4.6.8 1.3.4.7.4.7.4.6.4.7.8 1.3.9 1.3.4.7.4.6.4.6.4.6.4.6.4.6.4.6.4.6.4.5.4.6.4.5.4.5.4.5.4.4.4.5.4.4.4.4.4.4.4.3.4.4.4.3.4.3.4.3.4.2.4.2.4.3.4.1.4.2.4.2.4.1.4.2h.4l.4.2h.4l.4.1.4.1.8.1.4.1h.4l.8.2h.4l.4.1.4.1h.4l.4.2h.4l.4.1.4.1.5.1.4.1.4.2h.4l.8.3.4.2.4.1.8.3.4.2.4.1.4.2 1.6.6 1.2.4.8.3.4.1.8.3.4.1.4.2.8.2.4.1.4.2.8.2h.4l.4.2.8.2.8.2h.4l.4.1.8.2h.4l.4.1h.4l.4.1.8.1.8.1h.9l.4.1h.4l.8.1H174.6l.4.1H203.5l1.6-.1 1.6-.1h.4l2.4-.2H212.4l.4-.1h1.6" fill="none" stroke-width="1.1" stroke-linejoin="round" stroke="#b97c7c" stroke-miterlimit="10"/></g><g clip-path="url(#h)"><path d="M9 336.2l1.2-.3.4-.1 1.2-.4.4-.1.4-.1.8-.3.4-.1.4-.2.4-.1.4-.2.4-.2.4-.2.4-.2.4-.2.4-.2.4-.3.4-.2.4-.3.4-.4.4-.3.4-.4.4-.4.4-.4.4-.4.4-.5.4-.5.4-.5.4-.6.4-.6.4-.6.4-.6.4-.7.4-.7.4-.7.4-.7.4-.7.4-.8.4-.8.5-.8.4-.8.4-.9.4-.8.4-1 .4-.8.4-.9.4-1 .4-.9.4-1 .4-.9.4-1 .4-1 .4-1 .4-1 .4-1.2.4-1 .4-1.2.4-1.2.4-1.2.4-1.2.4-1.2.4-1.3.4-1.4.4-1.3.4-1.4.4-1.4.4-1.5.4-1.5.4-1.5.4-1.5.4-1.6.4-1.5.4-1.6.4-1.6.4-1.7.4-1.6 1.2-5 .4-1.6.4-1.6.4-1.6.4-1.6.4-1.6.4-1.6.4-1.5.4-1.5.4-1.5.4-1.4.5-1.5.4-1.3.4-1.4.4-1.3.4-1.3.4-1.2.4-1.2.4-1.2.4-1.1.4-1 .4-1.2.4-1 .4-1 .4-1 .4-.9.4-.9.4-.9.4-.9.4-.8.4-.9.4-.8.4-.8.4-.8.4-.8.4-.8.4-.8.4-.8.4-.8.4-.8.4-.8.4-.7.4-.8.4-.8.4-.7.4-.7.4-.8.4-.7.4-.6.4-.7.4-.6.4-.7.4-.6.4-.5.4-.6.4-.5.4-.5.4-.4.4-.5.4-.4.4-.4.4-.4.5-.3.4-.3.4-.3.4-.3.4-.3.4-.2.4-.2.4-.2.4-.2.4-.1.4-.1.4-.1.4-.1h1.6l.4.1.4.1.4.2.4.2.4.3.4.3.4.3.4.4.4.5.4.5.4.5.4.6.4.6.4.6.4.7.4.7.4.8.4.8.4.8.4.9.4.9.4.9.4.9.4 1 .4.9.4 1 .4 1 .4 1 .4 1 .4 1 .4 1 .4 1.1.4 1 .8 2.2.5 1 .4 1 .4 1.1.4 1.1.4 1 .4 1.1.4 1 .4 1 .4 1.1.4 1 .4 1 .4 1 .4 1 .4 1 .4 1 .4 1 .4.9.4 1 .4.8.4 1 .4.9.4.9.4.8.4 1 .4.8.4.9.8 1.7 2 4.2.4.9.4.8.4.9.4.9.4.8.4 1 .4.8.4 1 .4.9.4.9.4 1 .4.9.4 1 .4 1 .4 1 .4 1 .4 1 .5 1 .4 1 .4 1 .4 1.1.4 1 .4 1.1.4 1.1.4 1 .4 1.1.4 1 .8 2.2.4 1 .4 1 .4 1 .4 1 .4 1 .4 1 .4 1 .4 1 .4.8.4 1 .4.8.4.8.4.8.4.8.4.7.4.7.4.7.4.6.4.7.4.6.4.5.4.6.4.5.4.5.4.4.4.4.4.5.4.4.4.4.4.3.4.4.4.3.4.4.4.3.4.3 1.2 1 .4.3.4.4.5.3.8.7.4.3.4.4.4.3.4.4.4.3.4.4.4.4.8.7.4.4.4.4.4.4.8.7.4.4.4.3.4.4.4.4.4.3.4.3.4.4.4.3.4.3.4.3.4.3.4.2.4.3.4.2.4.3.4.2.4.2.4.2.4.2.4.1.4.2.4.1.4.1.4.2h.4l.4.2h.4l.4.1h.4l.4.1.4.1h.8l.4.1h2.1l1.2.1h2.4l.4.1h.8l.8.1.8.1.4.1h.4l.4.1.4.1.4.1.4.1h.4l.4.2.4.1.4.1.4.1.4.2h.4l.4.2.4.1.4.2 2.4.8.4.1.8.3.8.2.4.2.8.2.5.1.4.1.4.1.4.1.4.1.4.1h.4l.4.2h.4l.4.1h.4l.4.1h.4l.4.1h.4l.4.1h.4l.8.1h.8l.4.1h2.4l.4.1h33" fill="none" stroke-width="1.1" stroke-linejoin="round" stroke="#dcbcbc" stroke-miterlimit="10"/></g><g clip-path="url(#i)"><path d="M239 153.4h4l3.6.2H254.6l.4-.1h.8l.4-.1h.8l.4-.1h.4l.9-.1h.4l1.2-.2h.4l1.6-.2h.4l.4-.1h.8l.4-.1h.4l2-.2h.4l.4-.1 2.8-.3H271.5l.8-.1h.4l1.2-.2h.4l.8-.1h.4l.4-.1 1.2-.1 1.6-.1h.9l.4-.1h.4l1.2-.1h.4l.4-.1h.8l.4-.1h.4l.4-.1h.4l.4-.1h.4l.4-.1.4-.1h.4l.4-.2h.4l.4-.1.4-.1.4-.1.4-.2h.4l.8-.3.4-.2h.4l.4-.2.4-.2.8-.3.8-.3.4-.1.4-.2.8-.3.4-.1.8-.4.8-.3.8-.2.4-.2.4-.1.4-.2h.4l.5-.2.4-.1.4-.2h.4l.4-.2.8-.2.4-.1.4-.1.4-.1.4-.1.8-.2.8-.2h.4l.4-.1.4-.1.4-.1.4-.1.8-.2.4-.1.4-.1.4-.1.4-.1.4-.1.4-.2.4-.1.4-.2.4-.1.4-.2.4-.2.4-.2.4-.2.4-.2.4-.3.4-.3.4-.2.4-.3.4-.4.4-.3.4-.3.4-.4.4-.4.4-.4.4-.4.4-.4.4-.4.4-.5.4-.4.5-.5 1.2-1.4.8-1 .8-.8.4-.5.4-.4.4-.5.4-.4.4-.4.4-.4.4-.4.4-.4.4-.4.4-.3.4-.3.4-.4.4-.3.4-.3.4-.3.4-.2.4-.3.4-.2.4-.3.4-.2.4-.2.4-.2.4-.2.4-.2.4-.2.4-.1.4-.2 1.2-.5.4-.2.4-.2.4-.1.4-.2.4-.2.4-.2.4-.2.4-.2.4-.2.4-.2.4-.3.4-.3.4-.2.5-.4.4-.3.4-.3.4-.4.4-.5.4-.4.4-.5.4-.5.4-.6.4-.5.4-.7.4-.6.4-.7.4-.7.4-.8.4-.8.4-.8.4-.9.4-.9.4-.9.4-1 .4-.9.4-1 .4-1 .4-1 .4-1 .4-1 .4-1.1.4-1.1.8-2.1.4-1 .4-1.1.4-1 .4-1 .4-1.1.4-1 .4-1 .4-1 .4-1 .4-1 .4-.9.4-.9.4-.9.4-.9.4-.8.4-.9.4-.8.4-.8.4-.8.4-.8.5-.8.4-.8.4-.7.4-.7.4-.7.4-.7.4-.7.4-.7.4-.7.4-.6.4-.7.4-.6.4-.7 1.6-2.5.4-.6.4-.7.4-.6.4-.7.4-.7.4-.6.4-.7.4-.7.4-.7.4-.8.4-.7.4-.8.4-.8.4-.8.4-.8.4-.8.4-.9.4-.9.4-.9.4-.8.4-1 .4-.8.8-1.9.4-.9.4-.8.4-1 .4-.8.4-.9.4-.8.4-.8.4-.8.4-.8.4-.7.5-.7.4-.7.4-.6.4-.7.4-.5.4-.6.4-.5.4-.4.4-.4.4-.4.4-.4.4-.3.4-.3.4-.2.4-.2.4-.2.4-.2h.4l.4-.2h.4l.4-.1h2.8l.4.1.4.1.4.1h.4l.4.2.4.1.4.1.4.1.4.2.4.1.4.1.4.2.4.2.4.2.4.2.4.2.4.3.4.2.4.3.4.3.4.4.4.4.4.4.5.4.4.5.4.5.4.6.4.6.4.6.4.7.4.7.4.7.4.8.4.9.4.9.4.9.4 1 .4 1 .4 1 .4 1 .4 1.2.4 1.1.4 1.2.4 1.2.4 1.2.4 1.2.4 1.2.4 1.3.4 1.3.4 1.2.8 2.6.4 1.3.4 1.2.4 1.3.4 1.3.4 1.2.4 1.3.4 1.2.4 1.2.4 1.2.4 1.2.4 1.2.4 1.2.4 1.1.4 1.2.4 1.1.4 1.2.8 2.2.4 1.2.4 1 .8 2.3.5 1.2.4 1.1.4 1.2.4 1.1.4 1.2.4 1.2.8 2.4.4 1.2.4 1.2.4 1.3.4 1.2.4 1.3.4 1.3.4 1.2.4 1.3.4 1.3.4 1.3 1.2 4 .4 1.2.4 1.3.4 1.3.4 1.3.4 1.2.4 1.3.4 1.2.4 1.2.4 1.2.4 1.2.4 1.1.4 1.2.4 1 .4 1.1.4 1.1.4 1 .4 1 .4 1 .4.9.4.9.4.8.4.9.4.8.4.7.4.8.4.7.4.6.4.7.4.6.4.5.5.6.4.5.4.5" fill="none" stroke-width="1.1" stroke-linejoin="round" stroke="#7c0000" stroke-miterlimit="10"/></g><g clip-path="url(#j)"><path d="M239 154H262.7l.4-.1H267l1.2-.1h2l.4-.1H272l.8-.1.8-.1h.4l.8-.1h.4l.4-.1.8-.1.8-.2h.4l.4-.1h.4l.9-.2.4-.1.4-.1.8-.2.8-.3h.4l.4-.2.4-.1.4-.2.4-.1.4-.2.4-.1.4-.2.8-.3.4-.2.4-.1.4-.2.4-.2.4-.1 1.2-.5.4-.2.8-.3.4-.2.4-.1.4-.1.4-.2.4-.1.4-.1.4-.1.4-.1.4-.1h.4l.4-.2h.8l.4-.1h.8l.4-.1h2.8l.5.1 1.6.2h4.8l.4-.1.4-.1.4-.1.4-.1.4-.2.4-.2.4-.1.4-.2.4-.3.4-.2.4-.3.4-.2.4-.3.4-.4.4-.3.4-.4.4-.3.4-.4.4-.4.4-.4.4-.4.4-.5.4-.4 1.2-1.3.4-.4.4-.5.4-.4.4-.4.4-.4.4-.4.4-.3.4-.4.5-.3.4-.4.4-.3.4-.3.4-.3.4-.2.4-.3.4-.2.4-.3.4-.2.4-.2.4-.2.4-.2.4-.3.4-.2.4-.2.4-.2.4-.3.4-.2.4-.3.4-.3.4-.3.4-.3.4-.3.4-.4.4-.4.4-.4.4-.4.4-.4.4-.4.4-.5.4-.5.4-.5.4-.5.4-.5.4-.5.4-.6.4-.5.4-.6.4-.6.4-.5.8-1.2.8-1.2.4-.5 1.2-1.8.4-.6.4-.5.9-1.2.4-.5.4-.6.4-.6.4-.5.4-.6.4-.5.4-.5.4-.6.4-.5.4-.5.4-.5.4-.5.4-.4.4-.5.4-.5.4-.4.4-.5.4-.4.4-.4.4-.4.4-.4.4-.4.8-.8.4-.4.4-.4.4-.3.4-.4.4-.4.4-.4.4-.4.4-.5.4-.4.4-.5.4-.5.4-.6.4-.6.4-.6.4-.6.4-.7.4-.8.4-.8.4-.8.4-1 .4-1 .4-1 .4-1 .4-1.1.4-1.2.5-1.2.4-1.3.4-1.3.4-1.3.4-1.4.4-1.4.4-1.4.4-1.5.4-1.4.4-1.5.4-1.5.4-1.4.4-1.5.4-1.4.4-1.4.4-1.4.4-1.4.4-1.3.4-1.3.4-1.3.4-1.2.4-1.1.4-1.2.4-1 .4-1 .4-1 .4-1 .4-.9.4-.9.4-.8.4-.8.4-.7.4-.8.4-.7.4-.6.4-.7.4-.6.4-.6.4-.6.4-.5.4-.6.4-.5.4-.6.4-.5.4-.5.4-.5.4-.5.4-.5.4-.5.4-.5.4-.4.5-.5.4-.4.4-.5.4-.4.4-.4.4-.4.4-.3.4-.4.4-.3.4-.3.4-.3.4-.2.4-.2.4-.2.4-.1h.4l.4-.1H389.7l.4.1.4.2.4.2.4.2.4.2.4.3.4.3.4.4.4.3.4.4.4.4.4.4 1.2 1.2.4.4.4.4.4.4.4.4.4.3.4.4.4.3.4.3.4.3.4.2.4.3.4.2.4.2.4.2.4.1.4.2.5.1.4.1.4.2.4.1.4.1.4.2h.4l.4.3.4.1.4.2.4.3.4.2.4.3.4.4.4.3.4.5.4.4.4.6.4.5.4.7.4.6.4.8.4.8.4.8.4 1 .4.9.4 1 .4 1 .4 1.2.4 1.1.4 1.2.4 1.2.4 1.3.4 1.3.4 1.4.4 1.4.4 1.4.4 1.4.4 1.5.4 1.4.4 1.5.4 1.5.4 1.5.4 1.6.4 1.5.4 1.6.4 1.5.4 1.6.4 1.5.8 3.2.5 1.6.4 1.6.4 1.5.4 1.6.4 1.6.4 1.6.4 1.5.4 1.6.4 1.6.4 1.5.4 1.6.4 1.5.4 1.6.4 1.5.4 1.5.4 1.5.4 1.4.4 1.5.4 1.4.4 1.5.4 1.4.4 1.3.4 1.4.4 1.3.4 1.3.4 1.3.4 1.3.4 1.2.4 1.2.4 1.2.4 1.1.4 1.1.4 1.1.4 1 .4 1 .4 1 .4 1 .4 1 .4.9.4.9.4.8.4.8.4.8.4.7.4.7.4.7.4.6.4.7.4.6.4.5.4.5.5.5.4.5.4.4" fill="none" stroke-width="1.1" stroke-linejoin="round" stroke="#8f2727" stroke-miterlimit="10"/></g><g clip-path="url(#k)"><path d="M239 153.6H240.2l.4-.1 1.2-.1h.8l.4-.1h.4l.8-.1h.8l1.6-.2H247.8l.4-.1h.4l1.2-.1h1.6l1.2-.1H266.7l.4-.1h.4l1.6-.2H270.3l.4-.1h.8l.4-.1h.4l.4-.1h.4l.4-.1h.8l.8-.2h.4l.8-.2h.4l.8-.2h.4l.4-.1h.4l.5-.2h.4l.4-.1.8-.2 2-.5h.4l.4-.2.8-.1.4-.1h.4l.4-.2h.8l.4-.1h.8l.4-.1H291.2l.4.1h.4l.8.2 1.2.1h.4l.4.1h.8l.4.1h.4l.8.1H301l.4-.1h.4l.4-.1.4-.1h.4l.4-.2h.4l.4-.2h.4l.4-.2.4-.1.4-.2.4-.1.4-.2.4-.1.4-.2.4-.2.4-.1.4-.2.4-.2.4-.3.4-.2.4-.2.4-.3.4-.2.4-.3.4-.3.4-.3.4-.3.4-.3.4-.3.4-.4.4-.3.4-.4.4-.4.4-.4.4-.4.4-.5.4-.4.4-.5.4-.5.4-.5.4-.5.4-.5.4-.5.4-.5.4-.6.4-.5.5-.6.4-.5.8-1.2.8-1.1.4-.6.4-.6.4-.5.4-.6.4-.6.4-.5.4-.6.4-.5.4-.5.4-.5.4-.5.4-.5.4-.5.4-.5.4-.4.4-.5.4-.4.4-.4.4-.4.4-.4.4-.4.4-.4.4-.4.4-.3.4-.4.4-.4 1.2-1 .8-.7.4-.4.4-.4.4-.3.4-.4.4-.4.4-.5.4-.4.4-.4.4-.5.4-.5.4-.5.4-.5.4-.5.4-.6.5-.5.4-.6.4-.6.4-.6.4-.6.4-.6.8-1.3.4-.6.4-.7.8-1.2.4-.6.4-.6.4-.6.4-.6.4-.6.4-.6.4-.5.4-.5.4-.6.4-.5.4-.4.4-.5.4-.5.4-.4.4-.4.4-.5.4-.4.8-.8.4-.4.4-.4.4-.4.4-.5.4-.4.4-.5.4-.4.4-.5.4-.5.4-.5.4-.6.4-.5.4-.6.4-.6.4-.7.4-.6.4-.7.4-.7.4-.7.4-.8.5-.7.4-.8.4-.9.4-.8.4-.9.4-.9.4-.9.4-.9.4-1 .4-.9.4-1 .4-1 .4-1 .4-1 .4-1 .4-1.1.4-1.1.4-1 .4-1.2.4-1 .4-1.2.4-1.1.4-1.2.4-1.1.4-1.2.8-2.3.4-1.1.4-1.2.4-1.2.8-2.3.4-1.1.4-1.2.4-1.1.4-1.2.4-1 .4-1.2.4-1.1.4-1.1.4-1 .4-1.1.4-1 .4-1 .4-1 .4-1 .4-1 .4-.9.4-.8.4-.9.4-.8.5-.7.4-.7.4-.7.4-.6.4-.6.4-.6.4-.4.4-.5.4-.4.4-.3.4-.3.4-.3.4-.2.4-.2h.4l.4-.2H389.3l.4.1.4.1.4.1.4.2.4.1.4.2.4.2.4.2.4.2.4.2.8.4.8.4.4.2.4.2.4.2.4.2.4.2.4.2.4.1.4.2.4.2.4.2.4.2.4.2.4.3.4.2.4.3.4.3.4.4.4.4.5.4.4.5.4.6.4.6.4.6.4.8.4.8.4.8.4 1 .4 1 .4 1 .4 1.2.4 1.2.4 1.3.4 1.4.4 1.4.4 1.5.4 1.5.4 1.6.4 1.7.4 1.7.4 1.7.4 1.8.4 1.8.4 1.9.4 1.8.4 1.9.8 3.7.4 2 .4 1.8.4 1.8.4 1.9.4 1.8.4 1.8.4 1.7.4 1.7.4 1.7.4 1.7.4 1.6.4 1.5.4 1.5.4 1.5.4 1.4.4 1.4.4 1.4.4 1.3.4 1.3.4 1.2.4 1.2.4 1.2.5 1.1.4 1.1.4 1 .4 1.2.4 1 .4 1 .4 1 .4 1 .4 1 .4 1 .4 1 .4.9.8 1.9.8 1.9.4 1 .8 1.8.8 1.8.4 1 .4.9.8 1.8.4 1 .4.8.4 1 .4.8.4.9.4.9.4.8.4.8.4.9.4.8.4.8.4.7.4.8.4.7.4.8.4.7.4.6.4.7.4.6.4.6.4.6.4.6.4.5.4.6.4.5.4.4.5.5.4.4.4.4" fill="none" stroke-width="1.1" stroke-linejoin="round" stroke="#b97c7c" stroke-miterlimit="10"/></g><g clip-path="url(#l)"><path d="M239 154H256.2l2.5-.1h3.2l.8-.1h1.6l.4-.1h.8l1.2-.1h.4l2-.2h2.4l.4-.1h2l.8-.1h3.2l1.3-.1h.4l.8-.1h1.6l.4-.1h.8l.4-.1h.8l1.2-.2h.8l.8-.2h.4l.8-.1.4-.1.8-.1.4-.1.8-.1.4-.1.4-.1.4-.1.8-.2.4-.1.4-.1.4-.1.4-.1.4-.2h.4l.4-.2.4-.2.8-.2 1.2-.4.4-.2.4-.1.4-.1.4-.2h.5l.8-.3.4-.2h.4l.8-.3.8-.2.4-.1.4-.1.4-.1 1.6-.4h.4l.4-.2h.4l.4-.2h.4l.8-.3h.4l.4-.2.4-.1.4-.2.4-.1.4-.1.4-.2.4-.2.4-.1.4-.2.4-.2.4-.2.4-.2.4-.2.4-.3.4-.2.4-.3.4-.2.4-.3.4-.3.4-.3.4-.3.4-.3.4-.3.4-.4.4-.3.4-.4.4-.4.5-.3.4-.4.4-.4.4-.4.4-.4.4-.4.4-.5.4-.4.4-.4.4-.4.4-.5.8-.9 1.6-1.7.8-.9.4-.4.4-.5.8-.8.8-.9.8-.8.4-.4.4-.5.4-.4.8-.8.4-.5.4-.4.4-.5.4-.4.4-.5.4-.4.4-.5.4-.5.4-.6.4-.5.4-.6.4-.5.4-.6.4-.7.4-.6.4-.7.4-.6.4-.7.4-.8.5-.7.4-.8.4-.8.4-.8.4-.8.4-.8.4-.9.4-.8.4-1 .4-.8.4-.9.4-1 .4-.8.4-1 .8-1.8.4-1 .4-1 .4-.9.4-1 1.2-2.8.4-1 .4-.9.4-1 .4-.9.4-.9.4-1 .4-.8.4-1 .4-.8.4-.9.4-.8.4-.9.4-.8.4-.8.4-.8.4-.8.4-.7.4-.8.4-.7.4-.6.4-.7.4-.6.4-.7.4-.6.4-.5.4-.6.4-.6.4-.5.5-.5.4-.5.4-.5.8-1 .8-1 .4-.4.4-.5.4-.5.4-.5.4-.5.4-.6.4-.6.4-.6.4-.6.4-.6.4-.7.4-.8.4-.7.4-.8.4-.8.4-.9.4-.9.4-1 .4-1 .4-1 .4-1 .4-1 .4-1.2.4-1 .4-1.2.4-1.2.4-1.1.4-1.2.4-1.2.4-1.2.4-1.1.4-1.2.4-1.1.4-1.2.4-1 .4-1.1.4-1 .4-1 .4-1 .4-.8.4-.8.4-.8.4-.7.4-.7.5-.6.4-.5.4-.5.4-.4.4-.4.4-.3.4-.2.4-.2.4-.1h.4l.4-.1h.8l.4.1.4.1.4.2.4.2.4.2.4.2.4.2.4.2.4.3.8.5.4.2.8.5.4.2.4.3.8.4.8.5.4.2.8.5.4.2.4.3.4.2.4.3.4.2.4.3.4.3.4.3.4.3.4.3.4.3.4.4.4.3.4.4.4.4.5.4.4.5.4.5.4.4.4.5.4.6.4.5.4.6.4.6.4.6.4.7.4.7.4.7.4.8.4.8.4.8.4.8.4 1 .4.9.4 1 .4 1 .4 1 .4 1 .4 1.2.4 1.1.4 1.2.4 1.2.4 1.3.4 1.3.4 1.3.4 1.4.4 1.4.4 1.4.4 1.5.4 1.5.4 1.5.4 1.5.4 1.6.4 1.6.4 1.6.4 1.6.4 1.7.4 1.6.4 1.7.4 1.7.4 1.7.4 1.7.4 1.7 1.2 5.1.5 1.7.4 1.7.4 1.7.4 1.7.4 1.7.4 1.6.4 1.7.4 1.6.4 1.6.4 1.5.4 1.6.4 1.5.4 1.5.4 1.4.4 1.4.4 1.4.4 1.3.4 1.3.4 1.3.4 1.2.4 1.1.4 1.2.4 1 .4 1.1.4 1 .4 1 .4 1 .4.9.4.8.4.9.4.8.4.7.4.8.4.7.4.7.4.6.4.7.4.6.4.6.4.5.4.6.4.5.4.5.4.5.4.5.4.4.4.5.4.4.4.4.4.4.4.3.5.4.4.3.4.4" fill="none" stroke-width="1.1" stroke-linejoin="round" stroke="#dcbcbc" stroke-miterlimit="10"/></g><g clip-path="url(#m)"><path d="M239 338l1.2-.1h1.6l.4-.1H244.6l.4-.1h1.6l.4-.1h.4l.4-.1h.4l.4-.1h.4l.4-.1.4-.1.4-.1.4-.1.4-.1.4-.2.4-.1.4-.2.4-.2.4-.2.4-.2.4-.2.4-.3.4-.2.4-.3.4-.4.4-.3.4-.4.4-.3.4-.4.4-.4.4-.5.4-.4.5-.5.4-.5.4-.5.4-.6.4-.5.4-.6.4-.6.4-.5.4-.6.4-.6.4-.7.4-.6.4-.6.4-.7.4-.6.4-.7.4-.6.4-.7.4-.7.4-.7.4-.7.4-.6.4-.7.4-.7.4-.8.4-.7.4-.7.4-.7.4-.8.4-.7.4-.8.4-.8.4-.8.4-.8.4-.8.4-.8.4-.9.4-.8.4-1 .4-.8.4-1 .4-1 .4-.9.4-1 .4-1 .4-1 .4-1 .4-1.1.4-1 .4-1.2.4-1 .5-1.2.4-1.1.4-1.2.4-1.1.4-1.2.4-1.1.4-1.2.8-2.2.8-2.3.4-1.2.8-2.3.4-1.1.4-1.2.4-1.1.4-1.2.4-1.2.4-1.1.4-1.2.4-1.2.4-1.2.4-1.3.4-1.2.4-1.2.4-1.3.4-1.3.4-1.2.8-2.6.4-1.3.4-1.2.4-1.3.4-1.3.4-1.2.4-1.3.4-1.2.4-1.2.4-1.1.4-1.2.4-1.1.4-1 .4-1.1.4-1 .4-1 .4-1 .4-.9.4-.8.4-.9.4-.8.4-.7.5-.7.4-.7.4-.7.4-.6.4-.6.4-.5.4-.6.4-.5.4-.4.4-.5.4-.4.4-.4.4-.4.4-.3.4-.3.4-.4.4-.3.4-.2.4-.3.4-.2.4-.3.4-.2.4-.2.4-.1.4-.2.4-.2h.4l.4-.2.4-.1.4-.1h.4l.4-.1h2l.4.2h.4l.4.2.4.2.4.3.4.2.4.4.4.3.4.4.4.4.4.5.4.5.4.6.4.6.5.6.4.7.4.7.4.7.4.8.4.8.4.8.4.8.4 1 .4.8.4.9.4.9.4 1 .4.8.4 1 .4 1 .4 1 .4.9.4 1 .4 1 .4 1 .4 1 .4 1 .4 1 .4 1.1.4 1 .4 1.1.4 1 .4 1.2.4 1 .8 2.2.4 1.1.4 1.1.4 1 .4 1.2.4 1 .4 1 .4 1.1.4 1 .4 1 .4 1 .4 1 .4 1 .4 1 .4.8.4 1 .4.8.4.9.4.8.4.9.5.8.4.8.4.9.4.8.4.9.4.9.4.9.4.9.4 1 .4 1 .4 1 .4 1 .4 1 .4 1.1.4 1.2.4 1.1.4 1.2.4 1.2.4 1.2 1.2 3.6.4 1.2.4 1.2.4 1.1.4 1.2.4 1 .4 1.2.4 1 .4 1 .4 1 .4 1 .4.8.4.8.4.8.4.8.4.7.4.7.4.6.4.6.4.6.4.5.4.5.4.5.4.4.4.5.4.4.4.4.4.3.4.4.4.4.5.3.4.3.4.3.4.3.4.3.4.3.4.3.4.3.4.3.4.2.4.3.4.3.4.2.8.5.4.3.4.2.4.3.4.2.4.3.8.5.4.3.4.3.4.3.4.2.4.3.4.4.4.3.4.3.4.3.4.3.4.4.4.3.8.7.4.4.4.3.4.3.4.4.4.3.4.4.4.3.4.3.4.3.4.3.4.3.4.3.4.3.4.2.4.3.5.2.4.2.4.3.4.2.4.2.4.1.4.2.4.2.4.1.4.1.4.2h.4l.4.2.4.1.4.1h.4l.4.2h.4l.4.1h.4l.8.2h.8l.8.1h.8l.4.1h2.4l.4.1H435.1l.4-.1h1.6l.4-.1 2-.1H440.7l.4-.1h3.3" fill="none" stroke-width="1.1" stroke-linejoin="round" stroke="#7c0000" stroke-miterlimit="10"/></g><g clip-path="url(#n)"><path d="M239 338.7h2l.8-.1h.4l.4-.1h.4l.4-.1h.4l.4-.1.4-.1.4-.1h.4l.4-.2.4-.1.4-.1.4-.2h.4l.4-.2.4-.2.4-.2.4-.1.4-.2.4-.2.4-.2.4-.2.4-.2.4-.3.8-.4.4-.2 1.6-1 .4-.2.4-.2.8-.5 1.2-.7.4-.2.4-.3.4-.2.5-.3.4-.3.4-.3.4-.3.4-.3.4-.3.4-.4.4-.3.4-.4.4-.4.4-.4.4-.5.4-.4.4-.5.4-.5.4-.6.4-.5.4-.6.4-.6.4-.6.4-.7.4-.6.4-.7.4-.7.4-.7.4-.7.4-.7.4-.8.4-.7.4-.7.8-1.5.4-.8.8-1.5.4-.8.4-.7.4-.8.4-.8.4-.8.4-.8.4-.8.4-.8.4-.9.4-.9.4-.9.4-1 .4-1 .4-1 .4-1 .4-1.1.5-1.2.4-1.2.4-1.2.4-1.3.4-1.3.4-1.3.4-1.4.4-1.5.4-1.4.4-1.5.4-1.6.4-1.5.4-1.6.4-1.6.4-1.5.8-3.2.4-1.6.4-1.6.4-1.6.4-1.6.4-1.5.4-1.5.4-1.5.4-1.5.4-1.4.4-1.5.4-1.4.4-1.3.4-1.4.4-1.3.4-1.3.4-1.3.4-1.2.4-1.2.4-1.2.4-1.2.4-1.1.4-1.1.4-1.2.4-1 .4-1.1.4-1 .4-1.1.4-1 .4-1 .4-1 .4-1 .4-1 .4-1 .4-1 .4-1 .5-.9.4-.9.4-.9.4-.9.4-.8.4-.9.4-.8.4-.8.4-.7.4-.7.4-.7.4-.6.4-.6.4-.5.4-.5.4-.4.4-.3.4-.3.4-.2h.4l.4-.1h.8l.4.2.4.2.4.2.4.3.4.4.4.4.4.5.4.5.4.5.4.5.4.6.4.6 1.2 1.7.4.6.4.6.4.5.4.6.4.5.4.5.4.5.4.5.4.5.4.5.4.5.4.5.4.6.5.5.4.6.4.5.4.6.4.7.4.7.4.7.4.7.4.8.4.9.4.9.4.9.4 1 .4 1 .4 1 .4 1 .4 1 .4 1 .4 1.1.4 1.1.4 1 .4 1.1.4 1 .4 1 .4 1 .4 1 .4 1 .4.9.4.8.4.9.4.8.4.7.4.8.4.7.4.7.4.7.4.7.4.6.4.7.4.6.4.7.4.6.4.7.4.7.4.7.4.8.4.8.4.8.4.8.4.9.4.8.5 1 .4 1 .4.9.4 1 .4 1 .4 1.1.4 1 .4 1.2.4 1 .4 1.2.4 1.1.4 1.1.8 2.3.4 1 .4 1.2.4 1 .4 1.1.4 1 .4 1.1.4 1 .4 1 .4 1 .4 1 .4.9.4.9.4.9.4.9.4.8.4.9.4.8.4.8.4.8.4.8.4.7.4.8.4.7.4.8.4.7.4.7.4.7.4.7.4.8.8 1.4.4.7.4.7.4.7.4.7.8 1.4.9 1.3.4.7.4.7.4.7.4.7.4.6.4.7.4.6.4.7.4.6.4.6.4.5.4.6.4.5.4.5.4.5.4.5.4.4.4.5.4.4.4.3.4.4.4.3.4.3.4.3.4.2.4.3.4.2.4.2.4.2.4.2.4.1.4.2.4.1.4.2.4.1.4.1.4.2h.4l.8.3.8.2.8.2.4.1.4.1.4.1.8.2h.5l.4.1.4.1h.4l.4.1h.4l.4.1h.8l.4.1h1.6l.8.1H392l.4.1h.8l.8.1h.4l.8.1.8.1h.4l.4.1h.4l.8.1.8.1.8.1h.8l.4.1h.8l.9.1h1.6l.4.1h.8l1.6.1 1.6.1h.4l2.4.2H412.6l.4.1h1.6l.4.1h2.4l1.2.1H444.4" fill="none" stroke-width="1.1" stroke-linejoin="round" stroke="#8f2727" stroke-miterlimit="10"/></g><g clip-path="url(#o)"><path d="M239 338.6h2l.4-.1h.8l.4-.1h.4l.8-.1h.8l1.2-.2H247l.8-.2h.8l.4-.1h.4l.4-.2h.4l.4-.1.4-.1.4-.1.4-.1.4-.2.4-.1.4-.2.4-.2.4-.2.4-.2.4-.2.4-.3.4-.2.4-.3.4-.4.4-.3.4-.4.4-.3.4-.4.4-.5.5-.4.4-.5.4-.5.4-.5.4-.5.4-.5.4-.6.4-.6.4-.6.4-.6.4-.6.4-.6.4-.6.4-.6.4-.7.4-.6.4-.6.8-1.3.4-.7.4-.6.4-.7 1.6-2.5.8-1.3 1.6-2.6.4-.6.4-.7.4-.6.4-.7.4-.6.4-.7.4-.7.4-.7.4-.8.4-.7.4-.8.4-.7.4-.8.4-.9.4-.8.4-1 .4-.8.4-1 .4-1 .5-1 .4-1 .4-1.2.4-1.2.4-1.2.4-1.2.4-1.3.4-1.4.4-1.3.4-1.5.4-1.4.4-1.5.4-1.5.4-1.6.4-1.5.4-1.6.4-1.6.8-3.2.4-1.5.4-1.6.4-1.6.4-1.6.4-1.5.4-1.6.4-1.5.4-1.5.4-1.5.4-1.5.4-1.4.4-1.5.4-1.5.4-1.4.4-1.4.8-2.9.4-1.4.4-1.5.4-1.4.4-1.5.4-1.4.4-1.5 1.2-4.4.4-1.4.4-1.5.4-1.4.4-1.5.4-1.4.4-1.4.4-1.3.5-1.3.4-1.3.4-1.2.4-1.1.4-1.1.4-1 .4-1 .4-1 .4-.7.4-.8.4-.6.4-.6.4-.5.4-.3.4-.4.4-.2.4-.1H307.7l.4.2.4.3.4.3.4.4.4.4.4.6.4.5.4.6.4.7.4.8.4.7.4.8.4.9.4.8.4 1 .4.9.4 1 .4.9.4 1 .4 1 .8 2 .4.9.4 1 .4 1 .4.9.4.9.4.9.4.9.4.8.4.9.5.8.4.8.4.8.4.7.4.8.4.7.4.7.4.8.4.7.4.6.4.7.4.7.4.7.4.6.4.7.4.6.4.7.4.6.4.6.4.6.4.6.4.5.4.6.4.5.4.6.4.5.4.5.8 1 .4.6.4.5.4.5.4.6.4.6.4.6.4.6.4.7.4.7.4.8.4.8.4.9.4.9.4 1 .4 1 .4 1 .4 1.1.4 1.2.4 1.2.4 1.3.4 1.2.4 1.3.5 1.4.4 1.4.4 1.3.4 1.4.4 1.5 1.2 4.2.4 1.4.4 1.4.4 1.4.4 1.4.4 1.3.4 1.4.4 1.3.4 1.3.4 1.2.4 1.2.4 1.2.4 1.2.4 1.1.4 1.1.4 1.1.4 1 .4 1 .4 1 .4 1 .4.8.4.9.4.8.4.8.4.8.4.7.4.7.4.7.4.6.4.7.4.6.4.5.4.6.4.6.4.5.4.5.4.6.4.5.4.5.4.5.4.4.4.5.4.5.4.5.5.4.8 1 .8.9.4.4.4.5.4.4.4.4.4.5.4.4.4.4.4.4.4.4.4.3.4.4.4.3.4.3.4.3.4.3.4.3.4.2.4.3.4.2.4.2.4.2.4.2.4.2.4.1.4.2.4.1.4.2 1.2.4 1.2.4.4.1.4.2 1.2.4 2 .7.4.2.8.2 1.3.4.4.2h.4l.4.2.4.1.4.1.8.2.4.1.4.1.8.2h.4l.4.2h.4l.4.1.8.2h.4l.4.1.8.2h.4l.4.1.4.1h.4l1.2.3 1.2.2h.4l.4.1h.4l.4.1h.4l.4.1h.4l.8.1h.8l.8.1H405.4l1.2-.1h2l.4-.1H413l.4.1h1.6l.4.1H416.6l.4.1h1.6l.4.1h2.4l.4.1h22.6" fill="none" stroke-width="1.1" stroke-linejoin="round" stroke="#b97c7c" stroke-miterlimit="10"/></g><g clip-path="url(#p)"><path d="M239 338.7h4l.8-.1h.8l.4-.1h.4l.4-.1h.4l.4-.1h.4l.4-.2h.4l.4-.2h.4l.4-.2.4-.1.4-.2.4-.1.4-.2.4-.1.4-.2.4-.2.4-.2.4-.2.4-.2.4-.2.4-.2.4-.3.4-.2.4-.2.4-.3.4-.2.4-.3.4-.3.4-.2.4-.3.4-.3.4-.3.5-.4.4-.3.4-.4.4-.3.4-.4.4-.4.4-.4.4-.4.4-.5.4-.4.4-.5.4-.5.4-.6.4-.5.4-.6.4-.6.4-.6.4-.6.4-.6.4-.7.4-.7.4-.7.4-.7.4-.7.4-.8.4-.7.4-.8.4-.7.4-.8.4-.8.4-.8.4-.8.4-.8.4-.8.4-.8.4-.9.4-.8.4-.9.4-.8.4-1 .4-.8.4-1 .4-.8.4-1 .4-.9.4-1 .4-1 .4-1 .4-1 .4-1 .4-1 .5-1 .4-1 .4-1 .4-1.1.4-1.1.4-1 .4-1.2.4-1 .4-1.1.4-1.1.4-1.1.4-1.1.4-1.2.4-1.1.4-1.2.4-1.1.4-1.2.4-1.2.4-1.2.4-1.3.4-1.3.4-1.3.4-1.3.4-1.4.4-1.4.4-1.4.4-1.4.4-1.5.4-1.4.4-1.4.4-1.5.4-1.4.4-1.4.4-1.4.4-1.4.4-1.4.4-1.3.4-1.3.4-1.2.4-1.2.4-1.1.4-1.1.4-1.1.4-1 .4-1 .4-1 .4-.8.4-1 .4-.8.4-.8.4-.8.4-.7.5-.8.4-.8.4-.7.4-.7.4-.7.4-.8.4-.7.4-.7.4-.7.4-.6.4-.7.8-1.4.4-.7.4-.6.4-.7.4-.7.4-.6.4-.7.4-.7.4-.7.8-1.3.4-.7.4-.6.4-.7.4-.6.4-.6.4-.6.4-.6.4-.5.4-.5.4-.5.4-.4.4-.3.4-.3.4-.2.4-.2h.8l.4.1.4.2.4.3.4.4.4.5.4.6.4.6.4.7.4.8.4.9.4.9.5 1 .4 1 .4 1 .4 1 .4 1.1.4 1 .4 1.2.4 1 .4 1 .4 1.1.4 1 .4 1 .4 1 .4.9.4.8.4.9.4.8.4.8.4.8.4.8.4.8.4.7.4.8.4.8.4.8.4.8.4.8.4.9.4.9.4 1 .4.9.4 1 .4 1 .4 1.1.4 1.1.4 1.2.4 1.2.4 1.3.4 1.2.4 1.3.4 1.4.4 1.3.4 1.4.4 1.5.4 1.4.4 1.5.4 1.4.4 1.5.4 1.5.4 1.5.9 3 .4 1.6.4 1.5.4 1.4.4 1.5.4 1.5.4 1.4.4 1.4.4 1.4.4 1.4.4 1.4.4 1.3.4 1.3.4 1.2.4 1.3.4 1.1.4 1.2.4 1.1.4 1 .4 1.1.4 1 .4 1 .4 1 .4.9.4.8.4.9.4.8.4.8.4.8.4.8.4.7.4.8.4.7.4.7.4.7.8 1.4.4.8.4.7.8 1.4.8 1.4.4.6.4.7.4.7.4.7.4.6.4.6.4.6.4.6.5.6.4.6.4.5.4.5.4.5.4.5.4.4.4.5.4.4.4.4.4.3.4.4.4.3.4.3.4.3.4.3.4.3.4.2.4.3.4.2.4.2.4.2.4.2.4.3.8.3.4.2.4.2.4.2.4.1 1.2.6 2 .8.4.2.4.1 1.2.5.8.4.4.1.8.3.4.2.8.2.5.2.4.1.4.1.8.3h.4l.4.2h.4l.4.2.8.1.8.2.8.2h.4l.4.1h.4l.8.2h.8l1.2.2.8.1h.4l.8.1H395l.8.1h2l1.2.1h45.5" fill="none" stroke-width="1.1" stroke-linejoin="round" stroke="#dcbcbc" stroke-miterlimit="10"/></g><g fill="#1a1a1a"><use xlink:href="#q" x="94.9" y="204.1"/><use xlink:href="#r" x="97.9" y="204.1"/><use xlink:href="#s" x="103.3" y="204.1"/><use xlink:href="#q" x="108.1" y="204.1"/><use xlink:href="#t" x="111.1" y="204.1"/><use xlink:href="#u" x="115.9" y="204.1"/><use xlink:href="#v" x="119.5" y="204.1"/><use xlink:href="#w" x="124.9" y="204.1"/></g><g fill="#1a1a1a"><use xlink:href="#q" x="324.9" y="204.1"/><use xlink:href="#r" x="327.9" y="204.1"/><use xlink:href="#s" x="333.3" y="204.1"/><use xlink:href="#q" x="338.1" y="204.1"/><use xlink:href="#t" x="341.1" y="204.1"/><use xlink:href="#u" x="345.9" y="204.1"/><use xlink:href="#x" x="349.5" y="204.1"/><use xlink:href="#w" x="354.9" y="204.1"/></g><g fill="#1a1a1a"><use xlink:href="#y" x="94.4" y="19.3"/><use xlink:href="#r" x="99.8" y="19.3"/><use xlink:href="#z" x="105.2" y="19.3"/><use xlink:href="#u" x="108.2" y="19.3"/><use xlink:href="#v" x="111.8" y="19.3"/><use xlink:href="#A" x="117.2" y="19.3"/><use xlink:href="#v" x="119.9" y="19.3"/><use xlink:href="#w" x="125.3" y="19.3"/></g><g fill="#1a1a1a"><use xlink:href="#y" x="324.4" y="19.3"/><use xlink:href="#r" x="329.8" y="19.3"/><use xlink:href="#z" x="335.2" y="19.3"/><use xlink:href="#u" x="338.2" y="19.3"/><use xlink:href="#x" x="341.8" y="19.3"/><use xlink:href="#A" x="347.2" y="19.3"/><use xlink:href="#x" x="349.9" y="19.3"/><use xlink:href="#w" x="355.3" y="19.3"/></g><path d="M9 339.4h205.4" fill="none" stroke-width=".9" stroke-linejoin="round" stroke="#000" stroke-miterlimit="10"/><path d="M59.4 342.4v-3M122.2 342.4v-3M185 342.4v-3" fill="none" stroke-width=".6" stroke-linejoin="round" stroke="#333" stroke-miterlimit="10"/><use xlink:href="#B" x="57" y="351.1" fill="#4d4d4d"/><use xlink:href="#C" x="119.8" y="351.1" fill="#4d4d4d"/><use xlink:href="#D" x="182.6" y="351.1" fill="#4d4d4d"/><path d="M239 339.4h205.4" fill="none" stroke-width=".9" stroke-linejoin="round" stroke="#000" stroke-miterlimit="10"/><path d="M253.4 342.4v-3M292.6 342.4v-3M331.8 342.4v-3M371 342.4v-3M410.1 342.4v-3" fill="none" stroke-width=".6" stroke-linejoin="round" stroke="#333" stroke-miterlimit="10"/><use xlink:href="#E" x="251" y="351.1" fill="#4d4d4d"/><use xlink:href="#B" x="290.2" y="351.1" fill="#4d4d4d"/><use xlink:href="#F" x="329.4" y="351.1" fill="#4d4d4d"/><use xlink:href="#C" x="368.6" y="351.1" fill="#4d4d4d"/><use xlink:href="#G" x="407.8" y="351.1" fill="#4d4d4d"/><path d="M9 154.6h205.4" fill="none" stroke-width=".9" stroke-linejoin="round" stroke="#000" stroke-miterlimit="10"/><path d="M31.5 157.6v-3M80 157.6v-3M128.4 157.6v-3M176.9 157.6v-3" fill="none" stroke-width=".6" stroke-linejoin="round" stroke="#333" stroke-miterlimit="10"/><g fill="#4d4d4d"><use xlink:href="#H" x="25.5" y="166.3"/><use xlink:href="#I" x="30.3" y="166.3"/><use xlink:href="#C" x="32.7" y="166.3"/></g><g fill="#4d4d4d"><use xlink:href="#H" x="74" y="166.3"/><use xlink:href="#I" x="78.8" y="166.3"/><use xlink:href="#G" x="81.2" y="166.3"/></g><g fill="#4d4d4d"><use xlink:href="#H" x="122.4" y="166.3"/><use xlink:href="#I" x="127.2" y="166.3"/><use xlink:href="#D" x="129.6" y="166.3"/></g><g fill="#4d4d4d"><use xlink:href="#H" x="170.9" y="166.3"/><use xlink:href="#I" x="175.7" y="166.3"/><use xlink:href="#J" x="178.1" y="166.3"/></g><path d="M239 154.6h205.4" fill="none" stroke-width=".9" stroke-linejoin="round" stroke="#000" stroke-miterlimit="10"/><path d="M302 157.6v-3M378 157.6v-3" fill="none" stroke-width=".6" stroke-linejoin="round" stroke="#333" stroke-miterlimit="10"/><g fill="#4d4d4d"><use xlink:href="#H" x="296" y="166.3"/><use xlink:href="#I" x="300.8" y="166.3"/><use xlink:href="#D" x="303.2" y="166.3"/></g><g fill="#4d4d4d"><use xlink:href="#H" x="372" y="166.3"/><use xlink:href="#I" x="376.8" y="166.3"/><use xlink:href="#J" x="379.2" y="166.3"/></g><path d="M239 154.6V25.5M239 339.4V210.3M9 154.6V25.5M9 339.4V210.3" fill="none" stroke-width=".9" stroke-linejoin="round" stroke="#000" stroke-miterlimit="10"/><use xlink:href="#K" x="462.3" y="148.8"/><use xlink:href="#L" x="470.3" y="148.8"/><use xlink:href="#M" x="476.3" y="148.8"/><use xlink:href="#N" x="481.6" y="148.8"/><use xlink:href="#O" x="485" y="148.8"/><path d="M464 164.8h13.8" fill="none" stroke-width="1.1" stroke-linejoin="round" stroke="#7c0000" stroke-miterlimit="10"/><path d="M464 182h13.8" fill="none" stroke-width="1.1" stroke-linejoin="round" stroke="#8f2727" stroke-miterlimit="10"/><path d="M464 199.3h13.8" fill="none" stroke-width="1.1" stroke-linejoin="round" stroke="#b97c7c" stroke-miterlimit="10"/><path d="M464 216.6h13.8" fill="none" stroke-width="1.1" stroke-linejoin="round" stroke="#dcbcbc" stroke-miterlimit="10"/><g><use xlink:href="#P" x="485.5" y="169.1"/></g><g><use xlink:href="#Q" x="485.5" y="186.4"/></g><g><use xlink:href="#R" x="485.5" y="203.6"/></g><g><use xlink:href="#S" x="485.5" y="220.9"/></g></svg>