<svg xmlns="http://www.w3.org/2000/svg" xmlns:xlink="http://www.w3.org/1999/xlink" viewBox="0 0 504 360"><defs><symbol overflow="visible" id="j"><path d="M.9.5L3 .8c0 .2.1.4.3.5.2.1.4.2.9.2s.9 0 1.1-.2l.4-.5.1-1v-1C5.3-.4 4.6 0 3.7 0c-1 0-1.8-.4-2.4-1.3C.8-1.9.6-2.8.6-3.8c0-1.2.3-2.2.9-2.8a3 3 0 012.2-1c1 0 1.7.4 2.3 1.2v-1H8v6.6l-.2 2c-.2.4-.4.8-.7 1-.2.3-.6.5-1 .6-.4.2-1 .2-1.7.2-1.2 0-2.1-.2-2.7-.6A2 2 0 01.8.7V.5zM2.6-4c0 .8.2 1.4.5 1.8.3.3.7.5 1.1.5.5 0 .9-.2 1.2-.6.4-.3.5-.9.5-1.6 0-.8-.1-1.4-.4-1.8C5-5.9 4.7-6 4.2-6c-.4 0-.8.2-1.1.5-.3.4-.5 1-.5 1.7zm0 0"/></symbol><symbol overflow="visible" id="a"><path d="M.5-4.2c0-1 .1-1.9.3-2.5a3 3 0 011-1.4c.3-.4.9-.5 1.5-.5.5 0 .9 0 1.2.3.4.1.6.4.9.8l.5 1.2.2 2a8 8 0 01-.3 2.5c-.2.6-.5 1.1-1 1.4-.4.4-.9.5-1.5.5-.8 0-1.5-.2-2-.8-.5-.8-.8-2-.8-3.5zm1 0c0 1.4.2 2.3.6 2.8.3.5.7.7 1.2.7s.9-.2 1.2-.7c.3-.5.5-1.4.5-2.8s-.2-2.4-.5-2.9c-.3-.4-.7-.6-1.2-.7-.5 0-.9.3-1.2.7-.3.5-.5 1.5-.5 2.9zm0 0"/></symbol><symbol overflow="visible" id="c"><path d="M.5-2.3h1.1c0 .5.3.9.6 1.2.3.2.6.4 1 .4.6 0 1-.2 1.3-.6.4-.4.6-.9.6-1.5s-.2-1-.5-1.4c-.4-.4-.8-.6-1.4-.6l-.9.3c-.3.1-.5.3-.6.6l-1-.2.8-4.4h4.3v1H2.4l-.5 2.3c.5-.3 1-.5 1.6-.5.8 0 1.4.3 2 .8.4.5.7 1.2.7 2S6-1.5 5.5-1C5-.2 4.2.1 3.3.1c-.8 0-1.5-.2-2-.6-.5-.4-.7-1-.8-1.8zm0 0"/></symbol><symbol overflow="visible" id="d"><path d="M4.5 0h-1v-6.7l-1 .7a7 7 0 01-1.2.6v-1l1.6-1a4 4 0 00.9-1.2h.7zm0 0"/></symbol><symbol overflow="visible" id="e"><path d="M6-1v1H.4v-.7L1.3-2l1.4-1.3A12 12 0 004.5-5c.3-.4.4-.9.4-1.3s-.1-.7-.4-1c-.3-.3-.7-.4-1.2-.5-.5 0-.9.2-1.2.5-.3.3-.5.7-.5 1.3l-1-.1c0-.8.3-1.5.8-1.9.5-.4 1.1-.6 2-.6.8 0 1.4.2 2 .7.4.4.6 1 .6 1.7 0 .3 0 .6-.2 1a4 4 0 01-.7 1c-.3.4-.8.9-1.6 1.5A20.2 20.2 0 001.8-1zm0 0"/></symbol><symbol overflow="visible" id="f"><path d="M.5-2.3l1-.1c.2.6.4 1 .7 1.3.3.3.6.4 1 .4.5 0 1-.2 1.3-.5.3-.4.5-.8.5-1.3s-.2-.9-.5-1.2c-.3-.3-.7-.5-1.2-.5a3 3 0 00-.7.1l.1-.9h.2L4-5.3c.3-.3.5-.6.5-1.1 0-.4-.1-.7-.4-1-.2-.2-.6-.4-1-.4s-.7.2-1 .4a2 2 0 00-.5 1.2l-1-.2c0-.7.3-1.3.8-1.6.4-.4 1-.6 1.7-.6.5 0 .9 0 1.3.3.4.2.7.5.9.8.2.4.3.7.3 1.1 0 .4 0 .7-.3 1a2 2 0 01-.9.7c.5.2 1 .4 1.2.8.3.4.4.8.4 1.4 0 .7-.2 1.4-.8 1.9-.5.5-1.2.8-2 .8s-1.5-.3-2-.7C1-1 .7-1.5.6-2.3zm0 0"/></symbol><symbol overflow="visible" id="w"><path d="M1 0v-8.6h3.8a5 5 0 011.7.2c.4.2.7.5 1 .9.2.4.3.8.3 1.3 0 .6-.2 1-.6 1.5a3 3 0 01-1.8.8l.7.4 1 1.2L8.4 0H7.1L5.9-1.8 5.1-3l-.5-.5-.6-.3H2.1V0zm1-4.8h2.5c.5 0 1 0 1.2-.2a1.4 1.4 0 001-1.2c0-.5-.2-.8-.5-1-.3-.3-.8-.4-1.4-.4H2.1zm0 0"/></symbol><symbol overflow="visible" id="x"><path d="M.8 0v-8.6h1v3c.5-.5 1.2-.8 2-.8.4 0 .8.1 1.1.3.3.2.6.4.7.8.2.3.3.7.3 1.4V0H4.8v-4c0-.5-.1-.9-.3-1-.3-.3-.6-.4-1-.5l-.9.3-.6.6-.2 1.2V0zm0 0"/></symbol><symbol overflow="visible" id="y"><path d="M.4-3.1c0-1.2.3-2 1-2.6.5-.4 1.1-.7 2-.7.8 0 1.5.3 2 .9.6.5.8 1.3.8 2.3 0 .8-.1 1.4-.3 1.9-.3.5-.6.8-1 1a3 3 0 01-1.6.4C2.4.1 1.7 0 1.2-.7.7-1.3.4-2.1.4-3.1zm1 0c0 .8.3 1.4.6 1.8.3.4.8.6 1.3.6s1-.2 1.3-.6c.4-.4.5-1 .5-1.8S5-4.5 4.6-5c-.3-.4-.8-.6-1.3-.6s-1 .2-1.3.6c-.3.4-.5 1-.5 1.8zm0 0"/></symbol><symbol overflow="visible" id="g"><path d="M1.1 0v-10.2h2v8.5h5.3V0zm0 0"/></symbol><symbol overflow="visible" id="h"><path d="M5.4-2.4l2 .4C7-1.3 6.6-.8 6-.4c-.5.4-1.2.6-2 .6-1.3 0-2.3-.5-2.9-1.3C.7-1.8.5-2.6.5-3.7c0-1.2.3-2.2 1-2.9.6-.7 1.4-1 2.4-1s2 .3 2.6 1c.6.8 1 2 1 3.4h-5c0 .6.2 1 .5 1.4.3.3.6.5 1.1.5.3 0 .6 0 .8-.3.2-.1.3-.4.5-.8zm0-2c0-.5 0-1-.4-1.3C4.7-6 4.4-6 4-6s-.8.1-1 .4c-.4.4-.5.8-.5 1.3zm0 0"/></symbol><symbol overflow="visible" id="i"><path d="M7.8 0h-2v-3.8-1.6l-.5-.5c-.2-.2-.4-.2-.7-.2-.3 0-.6 0-.9.3-.3.1-.5.4-.6.7L3-3.4V0H1v-7.5H3v1.1a3 3 0 013.6-1l.8.6.4.8.1 1.4zm0 0"/></symbol><symbol overflow="visible" id="b"><path d="M1 0v-1.2h1.3V0zm0 0"/></symbol><symbol overflow="visible" id="k"><path d="M4.5-7.5v1.6H3v4c0 .2.1.3.2.3l.4.1c.1 0 .4 0 .7-.2L4.6 0a4 4 0 01-1.5.3c-.4 0-.7 0-1-.2-.3-.1-.5-.3-.6-.5-.2-.2-.3-.4-.3-.7V-6h-1v-1.6h1v-1.4l2-1.2v2.6zm0 0"/></symbol><symbol overflow="visible" id="l"><path d="M3-10.3v3.8a3 3 0 013.5-.9c.4.2.7.4.8.7.2.2.4.5.4.8l.1 1.5V0h-2v-4-1.4a1 1 0 00-.5-.5c-.2-.2-.4-.2-.7-.2-.3 0-.6 0-.9.2l-.5.7L3-3.7V0H1v-10.3zm0 0"/></symbol><symbol overflow="visible" id="n"><path d="M.3-2.1l2-.3c.1.4.3.6.5.8.3.2.6.3 1.1.3.5 0 1 0 1.2-.2l.2-.6-.1-.3-.7-.3C3-3 2-3.4 1.5-3.7.9-4 .6-4.7.6-5.3c0-.7.3-1.2.8-1.7.5-.4 1.3-.6 2.4-.6 1 0 1.7.1 2.2.5.5.3.9.8 1 1.4l-1.8.4c0-.3-.2-.5-.5-.7l-1-.2c-.4 0-.8 0-1 .2-.2.1-.3.2-.3.4l.2.4 1.9.5c1 .3 1.8.6 2.2.9.4.4.6.8.6 1.5S7-1.1 6.5-.6C5.9 0 5 .2 3.9.2 3 .2 2.1 0 1.5-.4.9-1 .5-1.4.3-2.1zm0 0"/></symbol><symbol overflow="visible" id="o"><path d="M7.5-5.3l-1.9.4c0-.4-.2-.7-.5-.9C5-6 4.6-6 4.2-6c-.5 0-.8.2-1.1.5-.3.4-.5 1-.5 1.7 0 1 .2 1.5.5 2 .3.3.7.5 1.2.5.3 0 .7-.1.9-.4.2-.2.4-.5.5-1l2 .3c-.3.9-.6 1.5-1.2 2-.6.4-1.4.7-2.3.7-1.1 0-2-.4-2.6-1a4 4 0 01-1-3 4 4 0 011-2.8c.6-.7 1.5-1 2.6-1 1 0 1.6.2 2.2.6.5.3.9 1 1.1 1.7zm0 0"/></symbol><symbol overflow="visible" id="p"><path d="M2.5-5.2L.7-5.5c.2-.7.6-1.3 1-1.6.6-.4 1.3-.5 2.3-.5.8 0 1.5 0 2 .3l.8.8c.2.3.3.9.3 1.7V-1l.4 1h-2a5.3 5.3 0 01-.2-.8l-1 .7L3 .2C2.2.2 1.6 0 1.2-.5A2 2 0 01.5-2c0-.5.1-.8.3-1.2.2-.3.5-.5.9-.7.3-.2.8-.4 1.5-.5l2-.5V-5c0-.3-.1-.6-.3-.8l-1-.2c-.4 0-.7 0-1 .2l-.4.7zm2.7 1.6l-1.3.3-1 .4c-.3.1-.4.4-.4.7 0 .2 0 .5.3.7.2.2.5.3.8.3.3 0 .7-.1 1-.4l.5-.6v-1zm0 0"/></symbol><symbol overflow="visible" id="q"><path d="M1 0v-10.3h2V0zm0 0"/></symbol><symbol overflow="visible" id="r"><path d="M1-7.5h1.8v1.1a2.8 2.8 0 012.3-1.2c1 0 1.6.3 2.3 1 .6.7.9 1.6.9 2.8 0 1.3-.3 2.2-1 3A2.9 2.9 0 014-.2c-.3-.1-.7-.4-1-.8v3.7H1zm2 3.6C3-3 3-2.4 3.3-2c.4.4.8.6 1.2.6.5 0 .9-.2 1.2-.5.3-.4.4-1 .5-1.9 0-.7-.2-1.3-.5-1.7-.3-.4-.7-.6-1.2-.6s-.9.2-1.2.6c-.3.4-.5 1-.5 1.6zm0 0"/></symbol><symbol overflow="visible" id="s"><path d="M3 0H1v-7.5h1.8v1l.8-.9c.3-.2.6-.2.9-.2.4 0 .9 0 1.3.3l-.6 1.8c-.4-.3-.7-.4-1-.4-.2 0-.5.1-.7.3-.2.1-.3.4-.4.8-.1.4-.2 1.2-.2 2.5zm0 0"/></symbol><symbol overflow="visible" id="t"><path d="M.9-7.5h1.8v1A3 3 0 015-7.5c.5 0 1 0 1.3.3.3.2.6.5.8.9l1.1-1 1.2-.2c.6 0 1 0 1.4.3.4.2.7.5.9 1l.2 1.5V0h-2v-4.3c0-.7 0-1.2-.2-1.4a1 1 0 00-.9-.4 1.4 1.4 0 00-1.3 1l-.1 1.5V0h-2v-4l-.1-1.5A1 1 0 005-6a1 1 0 00-.6-.1c-.3 0-.6 0-.9.2l-.5.7A5 5 0 003-3.6V0h-2zm0 0"/></symbol><symbol overflow="visible" id="u"><path d="M1-8.5v-1.8h2v1.8zM1 0v-7.5h2V0zm0 0"/></symbol><symbol overflow="visible" id="v"><path d="M.6-3.8c0-.7.1-1.3.5-2 .3-.6.7-1 1.3-1.3.6-.4 1.3-.5 2-.5 1.2 0 2 .3 2.8 1 .7.8 1 1.7 1 2.8 0 1.2-.3 2.1-1 2.9-.7.7-1.7 1-2.8 1-.7 0-1.3 0-2-.4-.5-.3-1-.8-1.3-1.4C.7-2.3.6-3 .6-3.8zm2 0c0 .8.2 1.4.5 1.8.4.4.8.6 1.3.6s1-.2 1.3-.6c.4-.4.5-1 .5-1.7 0-.8-.1-1.3-.5-1.7C5.4-5.8 5-6 4.4-6s-1 .2-1.3.6c-.3.4-.5 1-.5 1.7zm0 0"/></symbol></defs><path fill="#fff" d="M0 0h504v360H0z"/><path d="M75.7 278.1h2.6l1.2-1.1 1.3-6.2 1.3-14.9 1.3-23.6 1.3-28.9 1.3-30.1 1.2-28.1 1.3-24.2 1.3-19.4L91.1 87l1.3-10.1 1.3-6.2 1.2-3 1.3-.2 1.3 1.8 1.3 3.4 1.3 4.6 1.3 5.5 1.3 6 1.2 6.6 1.3 6.7 1.3 6.8 1.3 6.8 1.3 6.7 1.3 6.6 1.2 6.4 1.3 6.2 1.3 6 1.3 5.7 1.3 5.5 1.3 5.3 1.3 5 1.2 4.8 1.3 4.6 1.3 4.3 1.3 4.2 1.3 3.9 1.3 3.7 1.2 3.6 1.3 3.3 1.3 3.2 1.3 3 1.3 3 1.3 2.7 1.2 2.6 1.3 2.5 1.3 2.3 1.3 2.3 1.3 2 1.3 2.1 1.3 2 1.2 1.8 1.3 1.7 1.3 1.7 1.3 1.6 1.3 1.5 1.3 1.5 1.2 1.4 1.3 1.3 1.3 1.2 1.3 1.2 1.3 1.2 1.3 1.1 1.2 1 1.3 1 1.3 1 1.3 1 1.3.9 1.3.8 1.3.8 1.2.8 1.3.8 1.3.7 1.3.7 1.3.6 1.3.7 1.2.6 1.3.6 1.3.6 1.3.5 1.3.5 1.3.5 1.2.5 1.3.5 1.3.5 1.3.4 1.3.4 1.3.4 1.3.4 1.2.4 1.3.4 1.3.3 1.3.4 1.3.3 1.3.3 1.2.3 1.3.3 1.3.3 1.3.3 1.3.3 1.3.2 1.3.3 1.2.2 1.3.3 1.3.2 1.3.2 1.3.3 1.3.2 1.2.2 2.6.4 1.3.2 1.3.1 1.3.2 1.2.2 2.6.3 1.3.2 1.3.1 1.3.2 1.3.1 1.2.2 1.3.1 1.3.1 1.3.2h1.3l1.3.2 2.5.2 1.3.2h1.3l1.3.2h1.3l1.2.2h1.3l2.6.3 2.6.2h1.3l1.2.1 2.6.2h1.3l1.3.2 3.8.2h1.3l1.3.1h1.3l1.3.2h1.2l3.9.2h1.3l1.3.1h1.3l2.5.2h2.6l1.3.1h1.3l1.2.1h1.3l1.3.1h1.3l1.3.1h1.3l1.2.1h2.6l1.3.1h1.3l2.6.1h1.2l1.3.1h2.6l1.3.1h2.5l1.3.1h2.6l1.3.1h2.6l1.2.1h1.3l5.2.1h1.2l2.6.1h2.6l3.8.1h2.6l1.3.1h5.1l3.9.1h1.3l2.5.1h5.2l2.5.1h6.5l2.5.1h7.7l1.3.1h6.4l3.9.1h9l2.5.1H417.3l1.3.1H434l1.3.1H452l1.3.1h5.1" fill="none" stroke-width="2.3" stroke-linecap="round" stroke-linejoin="round" stroke="#6689bf" stroke-miterlimit="10"/><path d="M74.4 286.6h384M74.4 286.6v7.2M138.4 286.6v7.2M202.4 286.6v7.2M266.4 286.6v7.2M330.4 286.6v7.2M394.4 286.6v7.2M458.4 286.6v7.2" fill="none" stroke-width=".8" stroke-linecap="round" stroke-linejoin="round" stroke="#000" stroke-miterlimit="10"/><use xlink:href="#a" x="66.1" y="312.5"/><use xlink:href="#b" x="72.7" y="312.5"/><use xlink:href="#a" x="76.1" y="312.5"/><use xlink:href="#a" x="130.1" y="312.5"/><use xlink:href="#b" x="136.7" y="312.5"/><use xlink:href="#c" x="140.1" y="312.5"/><use xlink:href="#d" x="194.1" y="312.5"/><use xlink:href="#b" x="200.7" y="312.5"/><use xlink:href="#a" x="204.1" y="312.5"/><g><use xlink:href="#d" x="258.1" y="312.5"/><use xlink:href="#b" x="264.7" y="312.5"/><use xlink:href="#c" x="268.1" y="312.5"/></g><g><use xlink:href="#e" x="322.1" y="312.5"/><use xlink:href="#b" x="328.7" y="312.5"/><use xlink:href="#a" x="332.1" y="312.5"/></g><g><use xlink:href="#e" x="386.1" y="312.5"/><use xlink:href="#b" x="392.7" y="312.5"/><use xlink:href="#c" x="396.1" y="312.5"/></g><g><use xlink:href="#f" x="450.1" y="312.5"/><use xlink:href="#b" x="456.7" y="312.5"/><use xlink:href="#a" x="460.1" y="312.5"/></g><g><use xlink:href="#g" x="167.2" y="34.7"/><use xlink:href="#h" x="176" y="34.7"/><use xlink:href="#i" x="184" y="34.7"/><use xlink:href="#j" x="192.8" y="34.7"/><use xlink:href="#k" x="201.6" y="34.7"/><use xlink:href="#l" x="206.4" y="34.7"/><use xlink:href="#m" x="215.2" y="34.7"/><use xlink:href="#n" x="219.2" y="34.7"/><use xlink:href="#o" x="227.2" y="34.7"/><use xlink:href="#p" x="235.2" y="34.7"/><use xlink:href="#q" x="243.2" y="34.7"/><use xlink:href="#h" x="247.2" y="34.7"/><use xlink:href="#m" x="255.2" y="34.7"/><use xlink:href="#r" x="259.2" y="34.7"/><use xlink:href="#p" x="268" y="34.7"/><use xlink:href="#s" x="276" y="34.7"/><use xlink:href="#p" x="281.6" y="34.7"/><use xlink:href="#t" x="289.6" y="34.7"/><use xlink:href="#h" x="302.4" y="34.7"/><use xlink:href="#k" x="310.4" y="34.7"/><use xlink:href="#h" x="315.2" y="34.7"/><use xlink:href="#s" x="323.2" y="34.7"/><use xlink:href="#m" x="328.8" y="34.7"/><use xlink:href="#r" x="332.8" y="34.7"/><use xlink:href="#s" x="341.6" y="34.7"/><use xlink:href="#u" x="347.2" y="34.7"/><use xlink:href="#v" x="351.2" y="34.7"/><use xlink:href="#s" x="360" y="34.7"/></g><g><use xlink:href="#w" x="255.4" y="341.3"/><use xlink:href="#x" x="264.1" y="341.3"/><use xlink:href="#y" x="270.7" y="341.3"/></g></svg>