<svg xmlns="http://www.w3.org/2000/svg" xmlns:xlink="http://www.w3.org/1999/xlink" viewBox="0 0 504 360"><defs><symbol overflow="visible" id="i"><path d="M.3-2.1l2-.3c.1.4.3.6.5.8.3.2.6.3 1.1.3.5 0 1 0 1.2-.2l.2-.6-.1-.3-.7-.3C3-3 2-3.4 1.5-3.7.9-4 .6-4.7.6-5.3c0-.7.3-1.2.8-1.7.5-.4 1.3-.6 2.4-.6 1 0 1.7.1 2.2.5.5.3.9.8 1 1.4l-1.8.4c0-.3-.2-.5-.5-.7l-1-.2c-.4 0-.8 0-1 .2-.2.1-.3.2-.3.4l.2.4 1.9.5c1 .3 1.8.6 2.2.9.4.4.6.8.6 1.5S7-1.1 6.5-.6C5.9 0 5 .2 3.9.2 3 .2 2.1 0 1.5-.4.9-1 .5-1.4.3-2.1zm0 0"/></symbol><symbol overflow="visible" id="a"><path d="M.5-4.2c0-1 .1-1.9.3-2.5a3 3 0 011-1.4c.3-.4.9-.5 1.5-.5.5 0 .9 0 1.2.3.4.1.6.4.9.8l.5 1.2.2 2a8 8 0 01-.3 2.5c-.2.6-.5 1.1-1 1.4-.4.4-.9.5-1.5.5-.8 0-1.5-.2-2-.8-.5-.8-.8-2-.8-3.5zm1 0c0 1.4.2 2.3.6 2.8.3.5.7.7 1.2.7s.9-.2 1.2-.7c.3-.5.5-1.4.5-2.8s-.2-2.4-.5-2.9c-.3-.4-.7-.6-1.2-.7-.5 0-.9.3-1.2.7-.3.5-.5 1.5-.5 2.9zm0 0"/></symbol><symbol overflow="visible" id="c"><path d="M3.9 0v-2H.2v-1L4-8.6h.8V-3h1.2v1H4.9v2zm0-3V-7L1.2-3zm0 0"/></symbol><symbol overflow="visible" id="d"><path d="M6-6.5H5a2 2 0 00-.5-.8c-.3-.3-.6-.5-1-.5s-.7.1-1 .3l-.7 1c-.2.6-.3 1.2-.3 2a2.5 2.5 0 013.9-.3c.5.5.7 1.2.7 2l-.3 1.5A2.5 2.5 0 013.4.1c-.8 0-1.6-.3-2.1-1C.7-1.4.4-2.4.5-4c0-1.7.3-2.9.9-3.6.5-.7 1.2-1 2.1-1 .7 0 1.3.2 1.7.5.4.4.7 1 .8 1.6zM1.7-2.8c0 .4 0 .7.2 1 .1.4.4.6.6.8a1.5 1.5 0 002-.3C5-1.6 5-2 5-2.7c0-.6-.1-1-.4-1.4-.3-.4-.7-.5-1.2-.5s-1 .1-1.2.5c-.4.3-.5.8-.5 1.3zm0 0"/></symbol><symbol overflow="visible" id="e"><path d="M2.1-4.7a2 2 0 01-1-.6C1-5.6.8-6 .8-6.4c0-.6.3-1.2.7-1.6.5-.4 1-.6 1.8-.6.7 0 1.3.2 1.8.6.5.5.7 1 .7 1.6 0 .4-.1.8-.3 1a2 2 0 01-1 .7c.6.2 1 .5 1.2.9.3.4.4.8.4 1.3 0 .8-.2 1.4-.7 1.9-.6.5-1.2.7-2 .7-1 0-1.6-.2-2.1-.7C.7-1.1.5-1.7.5-2.5c0-.5.1-1 .4-1.4.3-.4.7-.6 1.2-.8zM2-6.4c0 .4.1.7.4 1 .3.2.6.3 1 .3s.8 0 1-.3c.3-.3.4-.6.4-1s-.1-.7-.4-1c-.3-.2-.6-.4-1-.4s-.7.2-1 .4c-.3.3-.4.6-.4 1zm-.3 4c0 .2 0 .5.2.8.1.3.3.5.6.7l1 .2A1.7 1.7 0 005-2.4c0-.5-.2-1-.5-1.3-.4-.3-.8-.5-1.3-.5a1.7 1.7 0 00-1.7 1.7zm0 0"/></symbol><symbol overflow="visible" id="f"><path d="M4.5 0h-1v-6.7l-1 .7a7 7 0 01-1.2.6v-1l1.6-1a4 4 0 00.9-1.2h.7zm0 0"/></symbol><symbol overflow="visible" id="w"><path d="M3.1 0v-7.6H.3v-1H7v1H4.3V0zm0 0"/></symbol><symbol overflow="visible" id="x"><path d="M.8 0v-8.6h1v3c.5-.5 1.2-.8 2-.8.4 0 .8.1 1.1.3.3.2.6.4.7.8.2.3.3.7.3 1.4V0H4.8v-4c0-.5-.1-.9-.3-1-.3-.3-.6-.4-1-.5l-.9.3-.6.6-.2 1.2V0zm0 0"/></symbol><symbol overflow="visible" id="y"><path d="M5-2l1.1.1c-.1.7-.5 1.2-1 1.5-.4.4-1 .5-1.7.5-1 0-1.6-.2-2.2-.8C.7-1.3.4-2 .4-3.1c0-1 .3-1.8.8-2.4.6-.6 1.3-.9 2.1-.9.9 0 1.6.3 2 .9.6.6.9 1.4.9 2.4v.3H1.5c0 .6.3 1.2.6 1.5.4.4.8.6 1.3.6.4 0 .7-.1 1-.3.3-.2.5-.6.7-1zM1.7-3.7H5c0-.5-.2-1-.4-1.2-.4-.4-.8-.6-1.3-.6s-1 .2-1.3.5a2 2 0 00-.5 1.3zm0 0"/></symbol><symbol overflow="visible" id="z"><path d="M3-1l.2 1a4 4 0 01-.8 0L1.6 0A1 1 0 011-.6L1-1.8v-3.6H.2v-.8H1v-1.6l1-.6v2.2h1v.8H2v4.2l.3.2.3.1h.5zm0 0"/></symbol><symbol overflow="visible" id="A"><path d="M4.9-.8a3.3 3.3 0 01-2.3 1C1.9.1 1.4 0 1-.5.6-.7.4-1 .4-1.6l.2-.9.6-.6.7-.3 1-.2c.8 0 1.5-.2 1.9-.3v-.3c0-.4-.1-.8-.3-1-.3-.2-.7-.3-1.2-.3s-.9.1-1.1.3c-.3.1-.4.5-.6.9l-1-.1c.1-.5.3-.8.5-1.1a2 2 0 011-.6 4 4 0 011.3-.3l1.3.2c.3.1.6.3.7.5l.4.7v4.3l.4.7H5l-.2-.8zM4.8-3L3-2.7l-.9.2a1 1 0 00-.4.3 1 1 0 00-.1.5c0 .3 0 .5.3.7.2.2.5.3 1 .3.3 0 .7 0 1-.3.3-.1.5-.4.7-.7l.2-1zm0 0"/></symbol><symbol overflow="visible" id="g"><path d="M.6-5c0-1.1.2-2 .5-2.7.2-.6.5-1 1-1.4a4 4 0 011.3-1c.6-.2 1.4-.4 2.2-.4 1.5 0 2.7.5 3.7 1.4.9 1 1.3 2.3 1.3 4 0 1.6-.4 3-1.3 3.9C8.3-.2 7.2.2 5.6.2 4.1.2 3-.3 2-1.2 1-2.2.6-3.4.6-5.1zm2.2-.2c0 1.2.2 2 .8 2.7.5.6 1.2.9 2 .9.9 0 1.5-.3 2-.9.6-.6.9-1.5.9-2.7 0-1.2-.3-2-.8-2.6-.5-.6-1.2-.9-2-.9-1 0-1.6.3-2.1.9-.6.6-.8 1.5-.8 2.6zm0 0"/></symbol><symbol overflow="visible" id="h"><path d="M1 0v-10.3h2v3.7c.5-.7 1.3-1 2-1 1 0 1.8.3 2.3 1 .6.6 1 1.6 1 2.8 0 1.3-.4 2.2-1 3-.6.6-1.3 1-2.2 1C4.7.2 4.3 0 4-.2A3 3 0 012.8-1V0zm2-3.9c0 .8 0 1.4.3 1.7.3.5.8.8 1.3.8s.8-.2 1.2-.5c.3-.4.4-1 .4-1.8 0-.9-.1-1.5-.5-1.9C5.5-5.9 5-6 4.7-6c-.5 0-1 .2-1.2.5-.3.4-.5 1-.5 1.7zm0 0"/></symbol><symbol overflow="visible" id="b"><path d="M6-1v1H.4v-.7L1.3-2l1.4-1.3A12 12 0 004.5-5c.3-.4.4-.9.4-1.3s-.1-.7-.4-1c-.3-.3-.7-.4-1.2-.5-.5 0-.9.2-1.2.5-.3.3-.5.7-.5 1.3l-1-.1c0-.8.3-1.5.8-1.9.5-.4 1.1-.6 2-.6.8 0 1.4.2 2 .7.4.4.6 1 .6 1.7 0 .3 0 .6-.2 1a4 4 0 01-.7 1c-.3.4-.8.9-1.6 1.5A20.2 20.2 0 001.8-1zm0 0"/></symbol><symbol overflow="visible" id="j"><path d="M5.4-2.4l2 .4C7-1.3 6.6-.8 6-.4c-.5.4-1.2.6-2 .6-1.3 0-2.3-.5-2.9-1.3C.7-1.8.5-2.6.5-3.7c0-1.2.3-2.2 1-2.9.6-.7 1.4-1 2.4-1s2 .3 2.6 1c.6.8 1 2 1 3.4h-5c0 .6.2 1 .5 1.4.3.3.6.5 1.1.5.3 0 .6 0 .8-.3.2-.1.3-.4.5-.8zm0-2c0-.5 0-1-.4-1.3C4.7-6 4.4-6 4-6s-.8.1-1 .4c-.4.4-.5.8-.5 1.3zm0 0"/></symbol><symbol overflow="visible" id="k"><path d="M3 0H1v-7.5h1.8v1l.8-.9c.3-.2.6-.2.9-.2.4 0 .9 0 1.3.3l-.6 1.8c-.4-.3-.7-.4-1-.4-.2 0-.5.1-.7.3-.2.1-.3.4-.4.8-.1.4-.2 1.2-.2 2.5zm0 0"/></symbol><symbol overflow="visible" id="l"><path d="M3 0L0-7.5h2.2l1.4 3.8.4 1.3a24.2 24.2 0 00.4-1.3l1.4-3.8h2L4.8 0zm0 0"/></symbol><symbol overflow="visible" id="m"><path d="M2.5-5.2L.7-5.5c.2-.7.6-1.3 1-1.6.6-.4 1.3-.5 2.3-.5.8 0 1.5 0 2 .3l.8.8c.2.3.3.9.3 1.7V-1l.4 1h-2a5.3 5.3 0 01-.2-.8l-1 .7L3 .2C2.2.2 1.6 0 1.2-.5A2 2 0 01.5-2c0-.5.1-.8.3-1.2.2-.3.5-.5.9-.7.3-.2.8-.4 1.5-.5l2-.5V-5c0-.3-.1-.6-.3-.8l-1-.2c-.4 0-.7 0-1 .2l-.4.7zm2.7 1.6l-1.3.3-1 .4c-.3.1-.4.4-.4.7 0 .2 0 .5.3.7.2.2.5.3.8.3.3 0 .7-.1 1-.4l.5-.6v-1zm0 0"/></symbol><symbol overflow="visible" id="n"><path d="M4.5-7.5v1.6H3v4c0 .2.1.3.2.3l.4.1c.1 0 .4 0 .7-.2L4.6 0a4 4 0 01-1.5.3c-.4 0-.7 0-1-.2-.3-.1-.5-.3-.6-.5-.2-.2-.3-.4-.3-.7V-6h-1v-1.6h1v-1.4l2-1.2v2.6zm0 0"/></symbol><symbol overflow="visible" id="o"><path d="M1-8.5v-1.8h2v1.8zM1 0v-7.5h2V0zm0 0"/></symbol><symbol overflow="visible" id="p"><path d="M.6-3.8c0-.7.1-1.3.5-2 .3-.6.7-1 1.3-1.3.6-.4 1.3-.5 2-.5 1.2 0 2 .3 2.8 1 .7.8 1 1.7 1 2.8 0 1.2-.3 2.1-1 2.9-.7.7-1.7 1-2.8 1-.7 0-1.3 0-2-.4-.5-.3-1-.8-1.3-1.4C.7-2.3.6-3 .6-3.8zm2 0c0 .8.2 1.4.5 1.8.4.4.8.6 1.3.6s1-.2 1.3-.6c.4-.4.5-1 .5-1.7 0-.8-.1-1.3-.5-1.7C5.4-5.8 5-6 4.4-6s-1 .2-1.3.6c-.3.4-.5 1-.5 1.7zm0 0"/></symbol><symbol overflow="visible" id="q"><path d="M7.8 0h-2v-3.8-1.6l-.5-.5c-.2-.2-.4-.2-.7-.2-.3 0-.6 0-.9.3-.3.1-.5.4-.6.7L3-3.4V0H1v-7.5H3v1.1a3 3 0 013.6-1l.8.6.4.8.1 1.4zm0 0"/></symbol><symbol overflow="visible" id="s"><path d="M.9-7.5h1.8v1A3 3 0 015-7.5c.5 0 1 0 1.3.3.3.2.6.5.8.9l1.1-1 1.2-.2c.6 0 1 0 1.4.3.4.2.7.5.9 1l.2 1.5V0h-2v-4.3c0-.7 0-1.2-.2-1.4a1 1 0 00-.9-.4 1.4 1.4 0 00-1.3 1l-.1 1.5V0h-2v-4l-.1-1.5A1 1 0 005-6a1 1 0 00-.6-.1c-.3 0-.6 0-.9.2l-.5.7A5 5 0 003-3.6V0h-2zm0 0"/></symbol><symbol overflow="visible" id="t"><path d="M7.9 0H6v-1.1A3 3 0 013.7.2c-.8 0-1.6-.4-2.2-1-.6-.8-1-1.7-1-3C.6-5 1-6 1.6-6.6a3 3 0 014.4 0v-3.7h2zM2.6-3.9c0 .8.1 1.4.3 1.7.4.6.8.8 1.4.8.4 0 .8-.2 1.1-.6.3-.4.5-1 .5-1.7 0-.9-.1-1.5-.5-1.9-.3-.3-.7-.5-1.1-.5-.5 0-.9.2-1.2.5-.3.4-.5 1-.5 1.7zm0 0"/></symbol><symbol overflow="visible" id="u"><path d="M1 0v-10.3h2V0zm0 0"/></symbol><symbol overflow="visible" id="v"><path d="M1-7.5h1.8v1.1a2.8 2.8 0 012.3-1.2c1 0 1.6.3 2.3 1 .6.7.9 1.6.9 2.8 0 1.3-.3 2.2-1 3A2.9 2.9 0 014-.2c-.3-.1-.7-.4-1-.8v3.7H1zm2 3.6C3-3 3-2.4 3.3-2c.4.4.8.6 1.2.6.5 0 .9-.2 1.2-.5.3-.4.4-1 .5-1.9 0-.7-.2-1.3-.5-1.7-.3-.4-.7-.6-1.2-.6s-.9.2-1.2.6c-.3.4-.5 1-.5 1.6zm0 0"/></symbol></defs><path fill="#fff" d="M0 0h504v360H0z"/><path d="M74.4 278.1h37.2l1.3-1 1.3-9.3 1.3-9 1.3-8.9 1.3-8.4 1.3-8.2 1.2-8 1.3-7.5 1.3-7.4 1.3-7.1 1.3-6.9 1.3-6.6 1.2-6.3 1.3-6.1 1.3-6 1.3-5.6 1.3-5.5 1.3-5.2 1.2-5 1.3-4.9 1.3-4.6 1.3-4.5 1.3-4.2 1.3-4.1 1.3-3.9 1.2-3.7 1.3-3.6 1.3-3.4 1.3-3.3 1.3-3 1.3-3 1.2-2.8 1.3-2.7 1.3-2.5 1.3-2.4 1.3-2.3 1.3-2 1.2-2.1 1.3-1.9 1.3-1.8 1.3-1.7 1.3-1.5 1.3-1.5 1.3-1.3 1.2-1.3 1.3-1.1 1.3-1 1.3-1 1.3-1 1.3-.7 1.2-.7 1.3-.7 1.3-.5 1.3-.5 1.3-.4 1.3-.4 1.2-.2 1.3-.2 1.3-.1 1.3-.1h2.6l1.3.1 1.2.2 1.3.2 1.3.2 1.3.4 1.3.3 1.3.4 1.2.5 1.3.5 1.3.5 1.3.6 1.3.6 1.3.6 1.3.7 1.2.7 1.3.8 1.3.7 1.3.8 1.3.9 1.3.8 1.2 1 1.3.9 1.3.9 1.3 1 1.3 1 1.3 1 1.2 1 1.3 1 1.3 1 1.3 1.2 1.3 1 1.3 1.2 1.3 1.1 1.2 1.2 1.3 1.1 1.3 1.2 1.3 1.2 1.3 1.2 1.3 1.2 1.2 1.2 1.3 1.2 1.3 1.3 1.3 1.2 1.3 1.2 1.3 1.3 1.2 1.3 1.3 1.2 2.6 2.6 2.6 2.5 1.3 1.3 2.5 2.6 1.3 1.3 1.3 1.3 3.8 3.9 1.3 1.3 1.3 1.3 3.9 3.8 1.2 1.3 1.3 1.3 1.3 1.3 2.6 2.6 1.3 1.3 1.3 1.2 1.2 1.3 1.3 1.3 1.3 1.2 2.6 2.5 2.5 2.5 1.3 1.3 1.3 1.2 1.3 1.2 1.3 1.2 1.3 1.3 1.2 1.2 1.3 1.2 1.3 1.2 1.3 1.2 1.3 1.1 1.3 1.2 1.3 1.2 1.2 1.2 1.3 1.1 1.3 1.2 1.3 1.1 1.3 1.2 1.3 1 1.2 1.2 1.3 1.1 1.3 1.1 1.3 1.1 1.3 1.1 1.3 1.1 1.3 1 1.2 1.2 1.3 1 1.3 1 1.3 1.1 1.3 1 1.3 1 1.2 1.1 1.3 1 1.3 1 1.3 1 1.3 1 1.3 1 1.2 1 1.3 1 1.3 1 1.3.9 1.3 1 1.3.8 1.3 1 1.2.9 1.3 1 1.3.8 1.3 1 1.3.8 1.3.9 1.2.8 1.3 1 1.3.8 1.3.8 1.3.9 1.3.8 1.2.8 1.3.8 1.3.8 1.3.9 1.3.7 1.3.8 1.3.8 1.2.8 1.3.8 1.3.7 1.3.8 1.3.7 1.3.7 1.2.8 1.3.7 1.3.7 1.3.7 1.3.7 1.3.7 1.3.7 1.2.7 1.3.6 1.3.7 1.3.7 1.3.6 1.3.6 1.2.7 1.3.6 1.3.6 1.3.7 1.3.6 1.3.6 1.2.6 1.3.6 1.3.5 1.3.6 1.3.6 1.3.6 1.2.5 1.3.6 1.3.5 1.3.6 1.3.5 1.3.5 1.3.5 1.2.6 1.3.5 1.3.5 1.3.5 1.3.5 1.3.5 1.2.5 1.3.4 1.3.5 1.3.5 1.3.4 1.3.5 1.3.4 1.2.5 1.3.4 1.3.5 2.6.8 1.3.5 1.2.4 1.3.4 1.3.4 1.3.4 1.3.4 1.3.4 2.5.8 1.3.3 1.3.4" fill="none" stroke-width="2.3" stroke-linecap="round" stroke-linejoin="round" stroke="#6689bf" stroke-miterlimit="10"/><path d="M74.4 286.6h384M74.4 286.6v7.2M151.2 286.6v7.2M228 286.6v7.2M304.8 286.6v7.2M381.6 286.6v7.2M458.4 286.6v7.2" fill="none" stroke-width=".8" stroke-linecap="round" stroke-linejoin="round" stroke="#000" stroke-miterlimit="10"/><use xlink:href="#a" x="71.1" y="312.5"/><use xlink:href="#b" x="147.9" y="312.5"/><use xlink:href="#c" x="224.7" y="312.5"/><use xlink:href="#d" x="301.5" y="312.5"/><use xlink:href="#e" x="378.3" y="312.5"/><use xlink:href="#f" x="451.7" y="312.5"/><use xlink:href="#a" x="458.4" y="312.5"/><use xlink:href="#g" x="146" y="34.7"/><use xlink:href="#h" x="157.2" y="34.7"/><use xlink:href="#i" x="166" y="34.7"/><use xlink:href="#j" x="174" y="34.7"/><use xlink:href="#k" x="182" y="34.7"/><use xlink:href="#l" x="187.6" y="34.7"/><use xlink:href="#m" x="195.6" y="34.7"/><use xlink:href="#n" x="203.6" y="34.7"/><use xlink:href="#o" x="208.4" y="34.7"/><use xlink:href="#p" x="212.4" y="34.7"/><use xlink:href="#q" x="221.2" y="34.7"/><use xlink:href="#r" x="230" y="34.7"/><use xlink:href="#s" x="234" y="34.7"/><use xlink:href="#p" x="246.8" y="34.7"/><use xlink:href="#t" x="255.6" y="34.7"/><use xlink:href="#j" x="264.4" y="34.7"/><use xlink:href="#u" x="272.4" y="34.7"/><use xlink:href="#r" x="276.4" y="34.7"/><use xlink:href="#v" x="280.4" y="34.7"/><use xlink:href="#m" x="289.2" y="34.7"/><use xlink:href="#k" x="297.2" y="34.7"/><use xlink:href="#m" x="302.8" y="34.7"/><use xlink:href="#s" x="310.8" y="34.7"/><use xlink:href="#j" x="323.6" y="34.7"/><use xlink:href="#n" x="331.6" y="34.7"/><use xlink:href="#j" x="336.4" y="34.7"/><use xlink:href="#k" x="344.4" y="34.7"/><use xlink:href="#r" x="350" y="34.7"/><use xlink:href="#v" x="354" y="34.7"/><use xlink:href="#k" x="362.8" y="34.7"/><use xlink:href="#o" x="368.4" y="34.7"/><use xlink:href="#p" x="372.4" y="34.7"/><use xlink:href="#k" x="381.2" y="34.7"/><g><use xlink:href="#w" x="251.1" y="341.3"/><use xlink:href="#x" x="258.4" y="341.3"/><use xlink:href="#y" x="265.1" y="341.3"/><use xlink:href="#z" x="271.7" y="341.3"/><use xlink:href="#A" x="275.1" y="341.3"/></g></svg>