<svg xmlns="http://www.w3.org/2000/svg" xmlns:xlink="http://www.w3.org/1999/xlink" viewBox="0 0 504 360"><defs><symbol overflow="visible" id="s"><path d="M.4-1.9l.9-.1c0 .5.3.9.5 1 .2.3.5.4.9.4s.7-.1 1-.4c.3-.3.5-.7.5-1 0-.5-.2-.8-.4-1-.3-.3-.6-.5-1-.5l-.7.1.1-.7h.2c.4 0 .7-.1 1-.3.3-.2.4-.5.4-1a1 1 0 00-.3-.7c-.2-.2-.5-.3-.8-.3-.4 0-.7 0-.9.3-.2.2-.4.5-.4 1l-.9-.2c.1-.6.4-1 .7-1.4.4-.3.9-.5 1.5-.5.3 0 .7.1 1 .3l.8.7.2.9c0 .3 0 .6-.2.8-.2.3-.4.5-.7.6.4.1.7.3 1 .6.2.4.3.7.3 1.2 0 .6-.2 1.1-.7 1.6-.4.4-1 .6-1.7.6C2 .1 1.5 0 1-.4.7-.8.5-1.3.4-2zm0 0"/></symbol><symbol overflow="visible" id="a"><path d="M.4-3.5c0-.9.1-1.5.3-2 .1-.6.4-1 .7-1.2a2 2 0 011.3-.5c.4 0 .8.1 1 .3l.8.6.4 1.1.2 1.7c0 .8-.1 1.5-.3 2-.2.5-.4 1-.8 1.2a2 2 0 01-1.3.4 2 2 0 01-1.6-.7c-.5-.6-.7-1.6-.7-3zm1 0c0 1.2 0 2 .3 2.3.3.4.6.6 1 .6s.8-.2 1-.6c.3-.4.5-1.1.5-2.3 0-1.2-.2-2-.5-2.4-.2-.3-.6-.5-1-.5s-.7.1-1 .5c-.2.4-.4 1.2-.4 2.4zm0 0"/></symbol><symbol overflow="visible" id="c"><path d="M.5-6.2V-7H5v.6A11.7 11.7 0 002.4 0h-1c0-.6.2-1.2.4-2A10.5 10.5 0 014-6.2zm0 0"/></symbol><symbol overflow="visible" id="d"><path d="M1.8-3.9C1.4-4 1-4.2 1-4.4c-.2-.3-.3-.6-.3-1s.2-.9.6-1.2a2 2 0 011.4-.6c.7 0 1.2.2 1.5.6.4.3.6.8.6 1.3 0 .3 0 .6-.3.9-.1.2-.4.4-.7.5l1 .7c.2.3.3.7.3 1.2a2 2 0 01-.6 1.5c-.5.4-1 .6-1.7.6S1.5 0 1-.5a2 2 0 01-.7-1.6c0-.4.1-.8.4-1.1.2-.3.5-.5 1-.7zm-.2-1.4c0 .3 0 .6.3.8.2.2.5.3.9.3.3 0 .6-.1.8-.3.2-.2.3-.5.3-.8 0-.3-.1-.6-.3-.8-.2-.2-.5-.3-.9-.3-.3 0-.6 0-.8.3a1 1 0 00-.3.8zm-.3 3.2c0 .3 0 .5.2.8l.5.5.8.2c.4 0 .7-.1 1-.4.3-.3.4-.6.4-1s-.1-.8-.4-1c-.3-.3-.6-.5-1-.5A1.4 1.4 0 001.2-2zm0 0"/></symbol><symbol overflow="visible" id="e"><path d="M.5-1.6l.9-.1c0 .4.2.7.4.8.2.2.5.3.8.3.2 0 .5 0 .7-.2l.5-.5L4-2l.1-1v-.3A2 2 0 011-3C.6-3.5.4-4 .4-4.7c0-.8.2-1.4.7-1.8.4-.4 1-.7 1.6-.7a2.3 2.3 0 012.1 1.5c.2.5.3 1.1.3 2 0 .9-.1 1.6-.3 2.2-.2.5-.5 1-.9 1.2-.4.3-.8.4-1.4.4a2 2 0 01-1.3-.4 2 2 0 01-.7-1.3zm3.6-3.2c0-.5-.1-.9-.4-1.2-.2-.3-.6-.4-1-.4-.3 0-.7.1-1 .4-.2.4-.4.8-.4 1.3 0 .4.1.8.4 1 .3.4.6.5 1 .5s.8-.1 1-.4c.3-.3.4-.7.4-1.2zm0 0"/></symbol><symbol overflow="visible" id="f"><path d="M3.7 0h-.9v-5.6L2-5l-1 .5v-.9c.6-.2 1-.5 1.4-.8.3-.3.6-.6.7-1h.6zm0 0"/></symbol><symbol overflow="visible" id="g"><path d="M.7 2v-7.2h.8v.7c.1-.3.4-.4.6-.6l.9-.2c.4 0 .8.1 1.1.4.4.2.6.5.8 1a3.7 3.7 0 010 2.7 2.1 2.1 0 01-2 1.3C2.6.1 2.3.1 2 0c-.2 0-.4-.2-.6-.4V2zm.7-4.6c0 .7.2 1.2.5 1.5.2.3.5.5 1 .5.3 0 .6-.2 1-.5.2-.3.3-.8.3-1.5s0-1.2-.4-1.5c-.2-.3-.6-.5-1-.5-.3 0-.6.2-1 .5-.2.4-.4.9-.4 1.5zm0 0"/></symbol><symbol overflow="visible" id="h"><path d="M.7 0v-7.1h.8v2.5a2 2 0 011.6-.7L4-5c.3.2.5.4.6.7l.2 1.1V0h-1v-3.3c0-.4 0-.7-.2-1l-.8-.2c-.3 0-.5 0-.7.2-.3.1-.4.3-.5.5l-.2 1V0zm0 0"/></symbol><symbol overflow="visible" id="i"><path d="M.7-6.1v-1h.8v1zM.7 0v-5.2h.8V0zm0 0"/></symbol><symbol overflow="visible" id="j"><path d="M.7 2v-9.1h2v.7H1.5v7.7h1V2zm0 0"/></symbol><symbol overflow="visible" id="k"><path d="M.9 0v-1h1v1c0 .4 0 .7-.2.9l-.6.5L.8 1c.2 0 .3-.2.4-.3l.2-.7zm0 0"/></symbol><symbol overflow="visible" id="l"><path d="M2.1 2h-2v-.7h1.1v-7.7h-1v-.7h2zm0 0"/></symbol><symbol overflow="visible" id="o"><path d="M.4-1.9h1c0 .4.2.7.4 1l.9.3c.4 0 .8-.2 1-.5.4-.3.5-.7.5-1.2s-.1-1-.4-1.2C3.5-3.8 3-4 2.7-4l-.8.2-.5.5H.6L1.3-7h3.5v.8H2l-.4 2c.4-.4.8-.5 1.3-.5.6 0 1.2.2 1.6.6.4.5.6 1 .6 1.7 0 .6-.2 1.2-.5 1.7-.5.5-1.1.8-1.9.8-.6 0-1.2-.2-1.6-.5C.7-.8.5-1.3.4-2zm0 0"/></symbol><symbol overflow="visible" id="p"><path d="M5-.8V0H.3l.1-.6.6-1 1.1-1 1.6-1.5c.3-.4.4-.8.4-1.1 0-.3-.1-.6-.4-.9-.2-.2-.5-.3-1-.3-.4 0-.7.1-1 .3-.2.3-.3.7-.3 1.1l-1-.1c.1-.7.4-1.2.8-1.5.4-.4.9-.6 1.6-.6.7 0 1.2.2 1.6.6.4.4.6.9.6 1.4 0 .3 0 .6-.2.9 0 .2-.3.5-.6.8L3-2.2A16 16 0 001.5-.8zm0 0"/></symbol><symbol overflow="visible" id="b"><path d="M1 0v-1h.9v1zm0 0"/></symbol><symbol overflow="visible" id="t"><path d="M3.2 0v-1.7h-3v-.8l3.2-4.6H4v4.6h1v.8H4V0zm0-2.5v-3.2L1-2.5zm0 0"/></symbol><symbol overflow="visible" id="u"><path d="M5-5.4H4L3.9-6c-.3-.2-.6-.3-1-.3-.2 0-.4 0-.7.2a2 2 0 00-.6.9c-.2.4-.3 1-.3 1.6A2 2 0 014.5-4a2.8 2.8 0 01.3 3L4-.3c-.3.2-.7.3-1.1.3C2 .1 1.5 0 1-.7.6-1.2.4-2 .4-3.3c0-1.4.2-2.4.7-3 .5-.6 1-.9 1.8-.9.6 0 1 .2 1.4.5.4.3.6.8.7 1.3zm-3.6 3c0 .4 0 .7.2 1l.5.6.7.2c.4 0 .7-.1 1-.4.3-.3.4-.7.4-1.3 0-.5-.1-.8-.4-1.1-.3-.3-.6-.4-1-.5-.4 0-.7.2-1 .5-.3.3-.4.6-.4 1zm0 0"/></symbol><symbol overflow="visible" id="v"><path d="M2.6-.8l.1.8H1.3a.8.8 0 01-.4-.5 3 3 0 010-1v-3H.1v-.7h.6v-1.2l.9-.6v1.8h.9v.7h-1v3l.1.5.2.2h.7zm0 0"/></symbol><symbol overflow="visible" id="w"><path d="M4.2-1.7l.9.1c-.1.6-.4 1-.8 1.3-.4.3-.9.4-1.5.4C2.1.1 1.5 0 1-.6.6-1 .4-1.7.4-2.6c0-.8.2-1.5.6-2 .5-.4 1-.7 1.8-.7.7 0 1.2.3 1.7.7.4.5.6 1.2.6 2v.2H1.3c0 .6.2 1 .4 1.3.3.4.7.5 1.1.5.3 0 .6 0 .9-.3.2-.1.4-.4.5-.8zM1.3-3h2.9c0-.4-.1-.7-.3-1-.3-.3-.7-.5-1.1-.5-.4 0-.8.2-1 .4-.3.3-.5.7-.5 1.1zm0 0"/></symbol><symbol overflow="visible" id="x"><path d="M4-.6L3-.1c-.2.2-.5.2-.9.2-.5 0-1-.1-1.3-.4-.3-.3-.4-.6-.4-1l.1-.8.5-.5.6-.2.8-.2C3-3 3.6-3.2 4-3.3v-.2c0-.4-.1-.6-.3-.8-.2-.2-.5-.3-1-.3-.4 0-.7.1-.9.3-.2.1-.3.4-.4.7H.5c0-.5.2-.8.4-1 .2-.2.4-.4.8-.5l1.1-.2c.5 0 .8 0 1.1.2.3 0 .5.2.6.4.2.1.2.3.3.6v3.5l.3.6h-.9L4-.6zm0-2l-1.5.3-.7.2c-.2 0-.3.2-.4.3l-.1.4c0 .3 0 .4.3.6.1.2.4.2.7.2.4 0 .7 0 1-.2.2-.1.4-.3.5-.6l.2-.9zm0 0"/></symbol><clipPath id="m"><path d="M49 116h178v1H49zm0 0"/></clipPath><clipPath id="n"><path d="M62 51h165.9v66H62zm0 0"/></clipPath><clipPath id="q"><path d="M301 116h178v1H301zm0 0"/></clipPath><clipPath id="r"><path d="M301 51h178.9v66H301zm0 0"/></clipPath><clipPath id="y"><path d="M49 296h178v1H49zm0 0"/></clipPath><clipPath id="z"><path d="M49 231h178.9v66H49zm0 0"/></clipPath><clipPath id="A"><path d="M301 296h178v1H301zm0 0"/></clipPath><clipPath id="B"><path d="M301 231h144v66H301zm0 0"/></clipPath></defs><path fill="#fff" d="M0 0h504v360H0z"/><path d="M59.2 119H221M59.2 119v6M86.2 119v6M113.1 119v6M140.1 119v6M167.1 119v6M194 119v6M221 119v6" fill="none" stroke-width=".8" stroke-linecap="round" stroke-linejoin="round" stroke="#000" stroke-miterlimit="10"/><use xlink:href="#a" x="49.5" y="140.6"/><use xlink:href="#b" x="55" y="140.6"/><use xlink:href="#c" x="57.8" y="140.6"/><use xlink:href="#a" x="63.3" y="140.6"/><use xlink:href="#a" x="103.4" y="140.6"/><use xlink:href="#b" x="109" y="140.6"/><use xlink:href="#d" x="111.8" y="140.6"/><use xlink:href="#a" x="117.3" y="140.6"/><use xlink:href="#a" x="157.4" y="140.6"/><use xlink:href="#b" x="163" y="140.6"/><use xlink:href="#e" x="165.7" y="140.6"/><use xlink:href="#a" x="171.3" y="140.6"/><use xlink:href="#f" x="211.4" y="140.6"/><use xlink:href="#b" x="216.9" y="140.6"/><use xlink:href="#a" x="219.7" y="140.6"/><use xlink:href="#a" x="225.2" y="140.6"/><use xlink:href="#g" x="120.2" y="164.5"/><use xlink:href="#h" x="125.8" y="164.5"/><use xlink:href="#i" x="131.3" y="164.5"/><use xlink:href="#j" x="133.5" y="164.5"/><use xlink:href="#k" x="136.3" y="164.5"/><use xlink:href="#f" x="139.1" y="164.5"/><use xlink:href="#k" x="144.6" y="164.5"/><use xlink:href="#f" x="147.4" y="164.5"/><use xlink:href="#l" x="152.9" y="164.5"/><g clip-path="url(#m)"><path d="M49 116.5h177.9" fill="none" stroke-width=".1" stroke-linecap="round" stroke-linejoin="round" stroke="#bebebe" stroke-miterlimit="10"/></g><g clip-path="url(#n)"><path d="M62.8 116.4H71l.3-.1H103l1.4-.1H106l.3-.1H112.2l.3-.1h1l.7-.1h.6l.7-.1h.6l.4-.1h.3l1-.2h.6l.4-.1.6-.1h.3l.4-.1h.3l.3-.1h.4l.3-.1h.3l.3-.1h.4l.6-.1h.7l.3-.1 1-.1h.6l.4-.1h.6l.4-.1h.3l.3-.1h.3l.4-.1.3-.1h.3l.3-.2h.4l.3-.1.3-.1.4-.1.3-.1.3-.1.3-.2h.4l1.3-.5.3-.1.3-.1.4-.1.3-.1.3-.1.3-.1h.4l.3-.2h.3l.3-.1h.4l.3-.1h.3l.4-.1h.3l.3-.1 1-.2h.3l.7-.2.6-.1h.4l.3-.1.3-.1 1-.2.3-.1h.4l.3-.2h.3l.3-.2h.4l.3-.2.3-.1.3-.1.4-.2.3-.1.3-.2.4-.1.3-.2.3-.2.3-.2.4-.2.3-.3.3-.2.3-.2.4-.3.3-.3.3-.2.4-.3.3-.3.3-.2.7-.6.6-.5.4-.3.3-.3.3-.2.3-.3.4-.2.3-.2.3-.2.3-.2.4-.2.3-.1.3-.2.4-.2.3-.1.3-.1.3-.2.7-.2.3-.2h.3l.4-.2.3-.2.7-.2.3-.2.3-.1.3-.2.4-.2.3-.2.3-.2.3-.2.4-.2.3-.2.3-.3.4-.2.3-.3.3-.3.3-.3.4-.3.3-.3.3-.4.3-.3.4-.3.3-.4.3-.4.4-.3.6-.8.7-.7.3-.4.3-.4.7-.8.6-.8.4-.4 1-1.2.3-.4.3-.4.3-.4 1-1.2.7-.8.3-.4.3-.4.3-.4.4-.5.3-.4.3-.5.4-.5.3-.5.3-.5.3-.5.4-.6.3-.6.3-.6.3-.6.4-.7.3-.6.3-.7.4-.6.3-.7.3-.6.3-.6.4-.7.3-.6.3-.5.3-.6.4-.5.3-.5.3-.5.4-.5.3-.4.3-.5.3-.4.4-.4.6-.8.4-.4.3-.4.3-.4.3-.4.4-.4.3-.5.3-.4.3-.5.4-.5.3-.5.3-.5.4-.5.3-.5.3-.6.7-1 .3-.5.3-.5.3-.5.4-.5.3-.4.3-.4.4-.4.3-.4.3-.4.3-.3.4-.4.3-.3.3-.3.4-.3.3-.4.3-.3.3-.3.4-.3.3-.3.3-.2.3-.3.4-.2.3-.3.3-.2.4-.2h.3l.3-.2h.3l.4-.1h.6l.3.1.4.1.3.1.3.2.4.1.3.2.3.3.3.2.4.2.3.3.3.3.3.2.4.4.3.3.3.3.4.4.3.4.3.5.3.5.4.6.3.6.3.6.3.8.4.8.3.8.3 1 .4 1 .3 1 .3 1.2.3 1.3.4 1.3.3 1.4.3 1.4.3 1.5.4 1.5.3 1.6.3 1.6.4 1.7.3 1.7.3 1.7 1 5.2.3 1.7.4 1.7.3 1.7.3 1.7.3 1.6.4 1.5.3 1.6.3 1.4.3 1.5.4 1.3.3 1.3.3 1.2.4 1.2.3 1 .3 1 .3 1 .4.9.3.8.3.7.3.6.4.6.3.5.3.5.4.4.3.3.3.3.3.3.4.2.3.2.3.1.3.2h.4l.3.1.3.1h.4l.3.1h1l.3.1h1.3zm0 0" fill="#dcbcbc"/></g><path d="M139 116.5v-5.1l.4-.1h.3l.7-.2.6-.1h.4l.3-.1.3-.1 1-.2.3-.1h.4l.3-.2h.3l.3-.2h.4l.3-.2.3-.1.3-.1.4-.2.3-.1.3-.2.4-.1.3-.2.3-.2.3-.2.4-.2.3-.3.3-.2.3-.2.4-.3.3-.3.3-.2.4-.3.3-.3.3-.2.7-.6.6-.5.4-.3.3-.3.3-.2.3-.3.4-.2.3-.2.3-.2.3-.2.4-.2.3-.1.3-.2.4-.2.3-.1.3-.1.3-.2.7-.2.3-.2h.3l.4-.2.3-.2.7-.2.3-.2.3-.1.3-.2.4-.2.3-.2.3-.2.3-.2.4-.2.3-.2.3-.3.4-.2.3-.3.3-.3.3-.3.4-.3.3-.3.3-.4.3-.3.4-.3.3-.4.3-.4.4-.3.6-.8.7-.7.3-.4.3-.4.7-.8.6-.8.4-.4 1-1.2.3-.4.3-.4.3-.4 1-1.2.7-.8.3-.4.3-.4.3-.4.4-.5.3-.4.3-.5.4-.5.3-.5.3-.5.3-.5.4-.6.3-.6.3-.6.3-.6.4-.7.3-.6.3-.7.4-.6.3-.7.3-.6.3-.6.4-.7.3-.6.3-.5.3-.6.4-.5.3-.5.3-.5.4-.5.3-.4.3-.5.3-.4.4-.4.6-.8.4-.4.3-.4.3-.4.3-.4.4-.4.3-.5.3-.4.3-.5.4-.5.3-.5.3-.5.4-.5.3-.5.3-.6.7-1 .3-.5.3-.5.3-.5.4-.5.3-.4.3-.4.4-.4.3-.4.3-.4.3-.3.4-.4.3-.3.3-.3.4-.3.3-.4.3-.3.3-.3.4-.3.3-.3.3-.2.3-.3.4-.2.3-.3.3-.2.4-.2h.3l.3-.2h.3l.4-.1h.6l.3.1.4.1.3.1.3.2.4.1.3.2.3.3.3.2.4.2.3.3.3.3.3.2.4.4.3.3.3.3.4.4.3.4.3.5.3.5.4.6.3.6.3.6.3.8.4.8.3.8.3 1 .4 1 .3 1 .3 1.2.3 1.3.4 1.3.3 1.4.3 1.4.3 1.5.4 1.5.3 1.6.3 1.6.4 1.7.3 1.7.3 1.7 1 5.2v29.5zm0 0" fill="#b97c7c"/><path d="M338.7 119h134M338.7 119v6M383.4 119v6M428 119v6M472.7 119v6" fill="none" stroke-width=".8" stroke-linecap="round" stroke-linejoin="round" stroke="#000" stroke-miterlimit="10"/><use xlink:href="#a" x="329" y="140.6"/><use xlink:href="#b" x="334.5" y="140.6"/><use xlink:href="#d" x="337.3" y="140.6"/><use xlink:href="#o" x="342.8" y="140.6"/><use xlink:href="#a" x="373.7" y="140.6"/><use xlink:href="#b" x="379.2" y="140.6"/><use xlink:href="#e" x="382" y="140.6"/><use xlink:href="#a" x="387.5" y="140.6"/><use xlink:href="#a" x="418.4" y="140.6"/><use xlink:href="#b" x="423.9" y="140.6"/><use xlink:href="#e" x="426.7" y="140.6"/><use xlink:href="#o" x="432.2" y="140.6"/><use xlink:href="#f" x="463" y="140.6"/><use xlink:href="#b" x="468.6" y="140.6"/><use xlink:href="#a" x="471.3" y="140.6"/><use xlink:href="#a" x="476.9" y="140.6"/><use xlink:href="#g" x="372.2" y="164.5"/><use xlink:href="#h" x="377.8" y="164.5"/><use xlink:href="#i" x="383.3" y="164.5"/><use xlink:href="#j" x="385.5" y="164.5"/><use xlink:href="#k" x="388.3" y="164.5"/><use xlink:href="#p" x="391.1" y="164.5"/><use xlink:href="#k" x="396.6" y="164.5"/><use xlink:href="#p" x="399.4" y="164.5"/><use xlink:href="#l" x="404.9" y="164.5"/><g clip-path="url(#q)"><path d="M301 116.4h177.9" fill="none" stroke-width=".1" stroke-linecap="round" stroke-linejoin="round" stroke="#bebebe" stroke-miterlimit="10"/></g><g clip-path="url(#r)"><path d="M297.3 116.4H336.1l1.5-.2H351.3l1.5-.1h2.1l.4-.1H362.2l.7-.1h.7l.8-.1h.7l.7-.1.8-.1h.3l.4-.1 1-.1h.4l.4-.1h1.1l.3-.1 1.1-.1h.7l.8-.1h.7l.4-.1h.3l.4-.1h.4l.3-.1.7-.1h.4l.4-.1 1.4-.3h.4l.3-.1h.4l.4-.1h.3l.4-.1 1-.2h.4l.4-.1.4-.1.7-.1.3-.1h.4l.7-.3h.4l.4-.1.3-.1.4-.1.3-.1.4-.1.4-.1.3-.1.4-.1.7-.2.4-.1 1-.3.4-.1.4-.1 1-.3h.4l1.1-.4h.4l.4-.1.3-.1.4-.1.3-.2h.4l.4-.2.3-.1.4-.2.4-.1.3-.2.4-.2.3-.1.4-.2.4-.2.3-.2.8-.4.7-.5.3-.2.4-.2.4-.2.3-.2.4-.2.4-.3.3-.2.4-.2.3-.1.4-.2.4-.2.7-.3.4-.2.3-.2.4-.1.7-.4.4-.1.3-.2.4-.2.4-.2.3-.2.4-.2.3-.2.4-.3.4-.2.3-.3.4-.2.4-.3.3-.3.4-.3.3-.4.4-.3.4-.4.3-.3.4-.4.4-.4.3-.3.4-.4.3-.4.4-.4.4-.5.3-.4.4-.4.4-.4.3-.4.4-.4.3-.4.4-.4.4-.3.3-.4.4-.4.4-.4.3-.3.4-.4.3-.4.4-.4.4-.4.3-.4.4-.5.4-.4.3-.5.4-.4.3-.5.4-.5.4-.5.3-.5.4-.4.4-.5.3-.5.4-.4.3-.4.4-.5.4-.4.3-.4.4-.4.4-.3.3-.4.4-.3.3-.4.8-.7.3-.3.4-.4.4-.3.3-.4.4-.3.3-.4.4-.4.4-.4.3-.4.4-.4.4-.5.3-.4.4-.4.3-.5.4-.5.4-.4.3-.5.4-.5.4-.4.3-.5.4-.4.3-.5.4-.4.4-.4.3-.4.4-.4.4-.4.7-.8.3-.4.4-.4.4-.4.3-.5.4-.4.4-.5.3-.5.4-.5.3-.6.4-.5.4-.6.3-.5.8-1.2.3-.6.4-.6.3-.6.4-.5.4-.6.3-.5.4-.6.4-.5.3-.5.4-.5.3-.5.4-.5.4-.5.3-.5.4-.4.4-.4.3-.4.4-.3.3-.3.4-.2.4-.1.3-.2h1.1l.4.2.3.2.4.3.4.3.3.4.4.4.4.4.3.5.4.5.3.6.4.5.4.6.3.6.4.7.3.6.4.8.4.7.3.8.4.8.4 1 .3 1 .4 1 .4 1.2.3 1.2.4 1.3.3 1.4.4 1.6.4 1.6.3 1.7.4 1.8.3 1.8.4 2 .4 1.9.3 2 .4 2 .4 2.1.3 2 .4 2 .3 2 .4 2 .4 1.9.3 1.8.4 1.7.4 1.6.3 1.5.4 1.4.4 1.3.3 1.2.4 1.1.3 1 .4.8.4.8.3.7.4.6.3.5.4.4.4.4.3.3.4.3.4.2.3.2.4.1.3.1.4.1.4.1h.3l.4.1h1.1l.3.1h1.1zm0 0" fill="#dcbcbc"/></g><path d="M390.8 116.4v-5h.4l1-.3h.4l1.1-.4h.4l.4-.1.3-.1.4-.1.3-.2h.4l.4-.2.3-.1.4-.2.4-.1.3-.2.4-.2.3-.1.4-.2.4-.2.3-.2.8-.4.7-.5.3-.2.4-.2.4-.2.3-.2.4-.2.4-.3.3-.2.4-.2.3-.1.4-.2.4-.2.7-.3.4-.2.3-.2.4-.1.7-.4.4-.1.3-.2.4-.2.4-.2.3-.2.4-.2.3-.2.4-.3.4-.2.3-.3.4-.2.4-.3.3-.3.4-.3.3-.4.4-.3.4-.4.3-.3.4-.4.4-.4.3-.3.4-.4.3-.4.4-.4.4-.5.3-.4.4-.4.4-.4.3-.4.4-.4.3-.4.4-.4.4-.3.3-.4.4-.4.4-.4.3-.3.4-.4.3-.4.4-.4.4-.4.3-.4.4-.5.4-.4.3-.5.4-.4.3-.5.4-.5.4-.5.3-.5.4-.4.4-.5.3-.5.4-.4.3-.4.4-.5.4-.4.3-.4.4-.4.4-.3.3-.4.4-.3.3-.4.8-.7.3-.3.4-.4.4-.3.3-.4.4-.3.3-.4.4-.4.4-.4.3-.4.4-.4.4-.5.3-.4.4-.4.3-.5.4-.5.4-.4.3-.5.4-.5.4-.4.3-.5.4-.4.3-.5.4-.4.4-.4.3-.4.4-.4.4-.4.7-.8.3-.4.4-.4.4-.4.3-.5.4-.4.4-.5.3-.5.4-.5.3-.6.4-.5.4-.6.3-.5.8-1.2.3-.6.4-.6.3-.6.4-.5.4-.6.3-.5.4-.6.4-.5.3-.5.4-.5.3-.5.4-.5.4-.5.3-.5.4-.4.4-.4.3-.4.4-.3.3-.3.4-.2.4-.1.3-.2h1.1l.4.2.3.2.4.3.4.3.3.4.4.4.4.4.3.5.4.5.3.6.4.5.4.6.3.6.4.7.3.6.4.8.4.7.3.8.4.8.4 1 .3 1 .4 1 .4 1.2.3 1.2.4 1.3.3 1.4.4 1.6.4 1.6.3 1.7.4 1.8.3 1.8.4 2 .4 1.9.3 2v32.4zm0 0" fill="#b97c7c"/><path d="M49.8 299h158.7M49.8 299v6M76.3 299v6M102.7 299v6M129.1 299v6M155.6 299v6M182 299v6M208.5 299v6" fill="none" stroke-width=".8" stroke-linecap="round" stroke-linejoin="round" stroke="#000" stroke-miterlimit="10"/><g><use xlink:href="#p" x="47.1" y="320.6"/></g><g><use xlink:href="#s" x="73.5" y="320.6"/></g><g><use xlink:href="#t" x="99.9" y="320.6"/></g><g><use xlink:href="#o" x="126.4" y="320.6"/></g><g><use xlink:href="#u" x="152.8" y="320.6"/></g><g><use xlink:href="#c" x="179.3" y="320.6"/></g><g><use xlink:href="#d" x="205.7" y="320.6"/></g><g><use xlink:href="#v" x="121.3" y="344.5"/><use xlink:href="#h" x="124.1" y="344.5"/><use xlink:href="#w" x="129.6" y="344.5"/><use xlink:href="#v" x="135.2" y="344.5"/><use xlink:href="#x" x="138" y="344.5"/><use xlink:href="#j" x="143.5" y="344.5"/><use xlink:href="#f" x="146.3" y="344.5"/><use xlink:href="#l" x="151.8" y="344.5"/></g><g clip-path="url(#y)"><path d="M49 296.5h177.9" fill="none" stroke-width=".1" stroke-linecap="round" stroke-linejoin="round" stroke="#bebebe" stroke-miterlimit="10"/></g><g clip-path="url(#z)"><path d="M43.7 296.4H51.1l1-.1h.8l1.1-.2h1.5l.4-.1h.3l1.1-.2h.8l1-.1 1.5-.2.8-.1.7-.1h.4l.7-.2.7-.1.8-.2h.3l.4-.1.4-.1h.3l.4-.2.4-.1.3-.1.4-.1.4-.2.3-.1.4-.2.4-.1.3-.2.4-.2.4-.2.3-.2.4-.2.4-.3.3-.2.4-.3.4-.3.3-.3.4-.4.4-.3.4-.4.3-.4.4-.4.4-.4.3-.5.4-.4.4-.5.3-.5.4-.5.4-.6.3-.5.4-.6.4-.5.3-.6.4-.6.4-.6.3-.6.4-.7.4-.6.3-.6.4-.7.7-1.3.4-.6.4-.7.3-.6.4-.7.4-.6.3-.6.4-.7.4-.6.3-.6.4-.6.4-.6.3-.6.4-.6.4-.5.3-.6.4-.5.4-.5.3-.5.4-.5.4-.5 1-1.4.5-.5.3-.5.4-.5.4-.5.3-.6.4-.5.4-.6.3-.5.4-.6.4-.6.3-.7.4-.6.4-.7.3-.6.4-.7.4-.7.3-.7.4-.7.7-1.5.4-.7.4-.7.3-.7.4-.7.4-.6.3-.7.4-.6.4-.7.3-.6.4-.6.4-.5.3-.6.4-.6.4-.5.3-.5.4-.6 1.1-1.5.4-.5.7-1 .7-1 .4-.6.4-.5.3-.5.4-.6.4-.5.3-.4.4-.5.4-.5.3-.4.4-.4.4-.4.3-.3.4-.3.4-.3.4-.2.3-.2.4-.1.4-.2h.7l.4-.1h.7l.4.1h.3l.4.2h.4l.3.2.4.1.4.1.3.2.4.1.4.2.3.2.4.1.4.2.3.2.4.2.4.2.3.2.4.2.4.3.3.2.4.3.4.3.3.3.4.3.4.4.3.3.4.4.4.4.3.5.4.4.4.5.3.5.4.5.4.5.3.5.4.5.4.6.3.5 1.9 2.8.7 1.1.8 1.1 1.8 2.8.4.5.3.6 1.5 2.2.4.5.3.6.4.5.4.5.3.5.4.5.4.5.3.5.4.5.4.4.3.5.4.4.4.4.3.4.4.4.4.4.3.4.8.9.3.4.4.4.4.4.3.5.4.5.4.4.3.5.4.5.4.5.3.6.4.5 1.1 1.6.4.6.4.5.3.5.4.5.4.5.3.5.4.5.4.4.3.5.4.4.4.4.3.4.4.4.4.3.3.4.4.4.7.6.8.7.3.4.4.3.4.4.3.3 1.1 1 .8.7.3.3.4.4.4.3.3.3.4.3.4.3.3.3.4.3.4.2.3.3.4.2.4.3.3.2.4.2.4.2.3.2.4.2 1.8 1 .8.3.3.2.4.2.4.2.4.2.3.2.8.5.3.2.4.2.4.2.7.5.4.2.7.4.4.1.3.2.4.2.4.2.3.2.4.1.4.2.7.3.4.2.7.3.4.1.3.2.8.2.3.2h.4l.4.2.3.1.4.1.4.1.3.1.4.1h.4l.3.2h.4l.7.1.4.1h.4l.3.1h.8l.3.1h.8l.4.1 1 .1h1.2l1.4.2h2.2l.8.2h1.1l.3.1h.4l.4.1 1 .2 2.3.4h.7l.4.2h.7l.4.1h.7l.4.1h.3l.4.1h.7l.4.1h.4l1 .1h1.2l.4.1H209l1.1.1h2.2l.4.1h5.5l.4.1H223.7l.4.1H231.4zm0 0" fill="#dcbcbc"/></g><path d="M80.1 296.5V281l.4-.6.3-.6.4-.7.7-1.3.4-.6.4-.7.3-.6.4-.7.4-.6.3-.6.4-.7.4-.6.3-.6.4-.6.4-.6.3-.6.4-.6.4-.5.3-.6.4-.5.4-.5.3-.5.4-.5.4-.5 1-1.4.5-.5.3-.5.4-.5.4-.5.3-.6.4-.5.4-.6.3-.5.4-.6.4-.6.3-.7.4-.6.4-.7.3-.6.4-.7.4-.7.3-.7.4-.7.7-1.5.4-.7.4-.7.3-.7.4-.7.4-.6.3-.7.4-.6.4-.7.3-.6.4-.6.4-.5.3-.6.4-.6.4-.5.3-.5.4-.6 1.1-1.5.4-.5.7-1 .7-1 .4-.6.4-.5.3-.5.4-.6.4-.5.3-.4.4-.5.4-.5.3-.4.4-.4.4-.4.3-.3.4-.3.4-.3.4-.2.3-.2.4-.1.4-.2h.7l.4-.1h.7l.4.1h.3l.4.2h.4l.3.2.4.1.4.1.3.2.4.1.4.2.3.2.4.1.4.2.3.2.4.2.4.2.3.2.4.2.4.3.3.2.4.3.4.3.3.3.4.3.4.4.3.3.4.4.4.4.3.5.4.4.4.5.3.5.4.5.4.5.3.5.4.5.4.6.3.5 1.9 2.8.7 1.1.8 1.1 1.8 2.8.4.5.3.6 1.5 2.2.4.5.3.6.4.5.4.5.3.5.4.5.4.5.3.5.4.5.4.4.3.5.4.4.4.4.3.4.4.4.4.4.3.4.8.9.3.4.4.4.4.4.3.5.4.5.4.4.3.5.4.5.4.5.3.6.4.5 1.1 1.6.4.6.4.5.3.5.4.5.4.5.3.5.4.5.4.4.3.5.4.4.4.4.3.4.4.4.4.3.3.4.4.4.7.6.8.7.3.4.4.3.4.4.3.3 1.1 1 .8.7.3.3.4.4.4.3.3.3.4.3.4.3.3.3.4.3.4.2.3.3.4.2.4.3.3.2.4.2.4.2.3.2.4.2 1.8 1 .8.3.3.2.4.2.4.2.4.2.3.2.8.5.3.2.4.2.4.2.7.5v7.3zm0 0" fill="#b97c7c"/><path d="M311.6 299h141.8M311.6 299v6M340 299v6M368.3 299v6M396.7 299v6M425 299v6M453.4 299v6" fill="none" stroke-width=".8" stroke-linecap="round" stroke-linejoin="round" stroke="#000" stroke-miterlimit="10"/><g><use xlink:href="#f" x="304.7" y="320.6"/><use xlink:href="#b" x="310.2" y="320.6"/><use xlink:href="#o" x="313" y="320.6"/></g><g><use xlink:href="#p" x="333.1" y="320.6"/><use xlink:href="#b" x="338.6" y="320.6"/><use xlink:href="#a" x="341.4" y="320.6"/></g><g><use xlink:href="#p" x="361.4" y="320.6"/><use xlink:href="#b" x="366.9" y="320.6"/><use xlink:href="#o" x="369.7" y="320.6"/></g><g><use xlink:href="#s" x="389.8" y="320.6"/><use xlink:href="#b" x="395.3" y="320.6"/><use xlink:href="#a" x="398.1" y="320.6"/></g><g><use xlink:href="#s" x="418.1" y="320.6"/><use xlink:href="#b" x="423.6" y="320.6"/><use xlink:href="#o" x="426.4" y="320.6"/></g><g><use xlink:href="#t" x="446.4" y="320.6"/><use xlink:href="#b" x="452" y="320.6"/><use xlink:href="#a" x="454.8" y="320.6"/></g><g><use xlink:href="#v" x="373.3" y="344.5"/><use xlink:href="#h" x="376.1" y="344.5"/><use xlink:href="#w" x="381.6" y="344.5"/><use xlink:href="#v" x="387.2" y="344.5"/><use xlink:href="#x" x="390" y="344.5"/><use xlink:href="#j" x="395.5" y="344.5"/><use xlink:href="#p" x="398.3" y="344.5"/><use xlink:href="#l" x="403.8" y="344.5"/></g><g clip-path="url(#A)"><path d="M301 296.5h177.9" fill="none" stroke-width=".1" stroke-linecap="round" stroke-linejoin="round" stroke="#bebebe" stroke-miterlimit="10"/></g><g clip-path="url(#B)"><path d="M300.8 296.4H307.5l.3-.1h1.2l.5-.1H310.4l.5-.1H311.8l.3-.1h1.1l.6-.1h1.1l.3-.1h1.1l.3-.1h.3l.5-.1h.3l.3-.1h.3l.2-.1.3-.1h.3l.3-.2h.3l.3-.1.2-.1.3-.1.3-.1.3-.1.3-.2h.3l.2-.2.3-.1.3-.2.3-.1.3-.2.5-.3.3-.2.3-.1.3-.2.8-.5.3-.2.3-.2.5-.4.3-.2.3-.1.3-.2.3-.2.3-.2.2-.3.3-.2.3-.2.3-.2.3-.3.3-.2.2-.3.3-.2.3-.3.3-.3.3-.3.2-.3.3-.3.3-.4.3-.3.3-.4.3-.4.2-.4.3-.4.3-.4.3-.4.3-.4.2-.4.3-.4.3-.5.6-.8.3-.5.2-.4.6-.9.3-.4.3-.5.2-.4.3-.5.3-.5.3-.4.3-.5.3-.5.2-.6.3-.5.3-.6.3-.6.3-.6.3-.7.2-.7.3-.7.3-.7.3-.8.3-.8.2-.8.3-.8.3-.9.3-.9.3-.8.3-.9.2-.9.3-.8.3-.9.3-.8.3-.9.2-.8.3-.8.3-.8.3-.7.3-.8.3-.7.2-.7.3-.6.3-.7.3-.6.3-.7.3-.6.2-.6.3-.6.3-.5.3-.6.3-.6.8-1.7.3-.5.3-.6.5-1.1.3-.6.6-1 .3-.6.2-.6.3-.5.3-.5.3-.6.3-.5.3-.5.2-.4.3-.5.3-.5.3-.4.3-.4.3-.4.2-.4.3-.4.3-.3.3-.3.3-.3.2-.3.3-.2.3-.3.3-.2.3-.1.3-.2.2-.2.3-.1.3-.1.3-.1.3-.1h.2l.3-.2h.3l.3-.1h.3l.3-.1h.2l.3-.1h.3l.3-.1h.3l.5-.2H365.4l.3-.1h1.1l.3.1.3.1.2.1.3.1.3.2.3.1.3.2.2.1.3.2.3.2.3.2.6.4.2.2.3.2.3.2.3.2.3.2.2.2.3.3.3.2.3.3.3.3.3.3.2.3.3.4.3.4.3.5.3.4.3.5.2.6.3.6.3.6.3.6.3.7.2.6.3.8.3.7.3.7.8 2.2.3.7.3.8.3.7.3.7.2.6.3.7.3.6.3.7.3.5.3.6.2.6.3.5.3.5.3.5.3.5.3.4.2.5.3.4.3.5.6.9.2.4.3.4.3.5.3.4.3.4.3.5.2.4.3.5.9 1.3.2.5.6 1 .3.4.3.4.3.5.2.4.3.5.3.4.3.5.3.4.3.4.2.4.3.4.3.5.3.4.3.3.2.4.3.4.3.4.3.4.3.3.3.4.2.3.6.8.3.3.3.3.8 1 .3.4.3.4.3.3.5.7.3.4.3.3.5.8.3.3.3.4.3.4.3.3.3.4.2.4.6.8.3.4.3.3.3.4.5.8.3.3.3.4.3.4.2.3.3.3.3.4.3.3.3.3.3.3.2.2.3.3.3.3.3.2.3.2.3.3.2.2.3.2.3.2.3.1.3.2.2.2.3.1.3.2.3.1.3.1.3.2h.2l.3.2.3.1.3.1.3.1.2.1.3.1.3.1.6.2h.3l.2.2h.6l.3.2h.6l.2.1.6.1.3.1.5.1h.3l.3.1h.3l.6.2.2.1h.3l.3.2.6.1.2.1.3.1.3.1.3.1.3.1.3.1.8.4h.3l.8.4.3.1.3.1.3.1.3.1.2.1h.3l.3.2h.3l.6.2h.2l.3.2h.6l.3.1.2.1h.3l.3.1h.6l.3.1h.5l.3.1h.6l.5.1H431.7l.3.1H433.7l1 .1H436.3l.3.1h2.2l1.2.1h5zm0 0" fill="#dcbcbc"/></g><path d="M333.8 296.5V284l.3-.4.2-.4.3-.4.3-.5.6-.8.3-.5.2-.4.6-.9.3-.4.3-.5.2-.4.3-.5.3-.5.3-.4.3-.5.3-.5.2-.6.3-.5.3-.6.3-.6.3-.6.3-.7.2-.7.3-.7.3-.7.3-.8.3-.8.2-.8.3-.8.3-.9.3-.9.3-.8.3-.9.2-.9.3-.8.3-.9.3-.8.3-.9.2-.8.3-.8.3-.8.3-.7.3-.8.3-.7.2-.7.3-.6.3-.7.3-.6.3-.7.3-.6.2-.6.3-.6.3-.5.3-.6.3-.6.8-1.7.3-.5.3-.6.5-1.1.3-.6.6-1 .3-.6.2-.6.3-.5.3-.5.3-.6.3-.5.3-.5.2-.4.3-.5.3-.5.3-.4.3-.4.3-.4.2-.4.3-.4.3-.3.3-.3.3-.3.2-.3.3-.2.3-.3.3-.2.3-.1.3-.2.2-.2.3-.1.3-.1.3-.1.3-.1h.2l.3-.2h.3l.3-.1h.3l.3-.1h.2l.3-.1h.3l.3-.1h.3l.5-.2H365.4l.3-.1h1.1l.3.1.3.1.2.1.3.1.3.2.3.1.3.2.2.1.3.2.3.2.3.2.6.4.2.2.3.2.3.2.3.2.3.2.2.2.3.3.3.2.3.3.3.3.3.3.2.3.3.4.3.4.3.5.3.4.3.5.2.6.3.6.3.6.3.6.3.7.2.6.3.8.3.7.3.7.8 2.2.3.7.3.8.3.7.3.7.2.6.3.7.3.6.3.7.3.5.3.6.2.6.3.5.3.5.3.5.3.5.3.4.2.5.3.4.3.5.6.9.2.4.3.4.3.5.3.4.3.4.3.5.2.4.3.5.9 1.3.2.5.6 1 .3.4.3.4.3.5.2.4.3.5.3.4.3.5.3.4.3.4.2.4.3.4.3.5.3.4.3.3.2.4.3.4.3.4.3.4.3.3.3.4.2.3.6.8.3.3.3.3.8 1 .3.4.3.4.3.3.5.7.3.4.3.3.5.8.3.3.3.4.3.4.3.3.3.4.2.4.6.8.3.4.3.3.3.4.5.8.3.3.3.4.3.4.2.3.3.3.3.4.3.3.3.3.3.3.2.2.3.3.3.3.3.2.3.2.3.3.2.2.3.2.3.2v7.3zm0 0" fill="#b97c7c"/></svg>