<svg xmlns="http://www.w3.org/2000/svg" xmlns:xlink="http://www.w3.org/1999/xlink" viewBox="0 0 504 360"><defs><symbol overflow="visible" id="h"><path d="M1 0v-10.3h4.4c1.1 0 2 0 2.4.3.5.2 1 .5 1.2 1 .3.4.5 1 .5 1.6 0 .8-.2 1.4-.7 1.9-.5.5-1.1.8-2 1 .4.2.8.5 1 .8.4.3.8.9 1.3 1.7l1.2 2H7.8L6.3-2.2l-1-1.6-.7-.4-1-.1H3V0zm2.1-6H6.5l.6-.5c.2-.2.2-.5.2-.8 0-.3 0-.6-.2-.8-.2-.2-.5-.4-.8-.4H3zm0 0"/></symbol><symbol overflow="visible" id="a"><path d="M.5-4.2c0-1 .1-1.9.3-2.5a3 3 0 011-1.4c.3-.4.9-.5 1.5-.5.5 0 .9 0 1.2.3.4.1.6.4.9.8l.5 1.2.2 2a8 8 0 01-.3 2.5c-.2.6-.5 1.1-1 1.4-.4.4-.9.5-1.5.5-.8 0-1.5-.2-2-.8-.5-.8-.8-2-.8-3.5zm1 0c0 1.4.2 2.3.6 2.8.3.5.7.7 1.2.7s.9-.2 1.2-.7c.3-.5.5-1.4.5-2.8s-.2-2.4-.5-2.9c-.3-.4-.7-.6-1.2-.7-.5 0-.9.3-1.2.7-.3.5-.5 1.5-.5 2.9zm0 0"/></symbol><symbol overflow="visible" id="c"><path d="M6-1v1H.4v-.7L1.3-2l1.4-1.3A12 12 0 004.5-5c.3-.4.4-.9.4-1.3s-.1-.7-.4-1c-.3-.3-.7-.4-1.2-.5-.5 0-.9.2-1.2.5-.3.3-.5.7-.5 1.3l-1-.1c0-.8.3-1.5.8-1.9.5-.4 1.1-.6 2-.6.8 0 1.4.2 2 .7.4.4.6 1 .6 1.7 0 .3 0 .6-.2 1a4 4 0 01-.7 1c-.3.4-.8.9-1.6 1.5A20.2 20.2 0 001.8-1zm0 0"/></symbol><symbol overflow="visible" id="d"><path d="M3.9 0v-2H.2v-1L4-8.6h.8V-3h1.2v1H4.9v2zm0-3V-7L1.2-3zm0 0"/></symbol><symbol overflow="visible" id="e"><path d="M6-6.5H5a2 2 0 00-.5-.8c-.3-.3-.6-.5-1-.5s-.7.1-1 .3l-.7 1c-.2.6-.3 1.2-.3 2a2.5 2.5 0 013.9-.3c.5.5.7 1.2.7 2l-.3 1.5A2.5 2.5 0 013.4.1c-.8 0-1.6-.3-2.1-1C.7-1.4.4-2.4.5-4c0-1.7.3-2.9.9-3.6.5-.7 1.2-1 2.1-1 .7 0 1.3.2 1.7.5.4.4.7 1 .8 1.6zM1.7-2.8c0 .4 0 .7.2 1 .1.4.4.6.6.8a1.5 1.5 0 002-.3C5-1.6 5-2 5-2.7c0-.6-.1-1-.4-1.4-.3-.4-.7-.5-1.2-.5s-1 .1-1.2.5c-.4.3-.5.8-.5 1.3zm0 0"/></symbol><symbol overflow="visible" id="f"><path d="M2.1-4.7a2 2 0 01-1-.6C1-5.6.8-6 .8-6.4c0-.6.3-1.2.7-1.6.5-.4 1-.6 1.8-.6.7 0 1.3.2 1.8.6.5.5.7 1 .7 1.6 0 .4-.1.8-.3 1a2 2 0 01-1 .7c.6.2 1 .5 1.2.9.3.4.4.8.4 1.3 0 .8-.2 1.4-.7 1.9-.6.5-1.2.7-2 .7-1 0-1.6-.2-2.1-.7C.7-1.1.5-1.7.5-2.5c0-.5.1-1 .4-1.4.3-.4.7-.6 1.2-.8zM2-6.4c0 .4.1.7.4 1 .3.2.6.3 1 .3s.8 0 1-.3c.3-.3.4-.6.4-1s-.1-.7-.4-1c-.3-.2-.6-.4-1-.4s-.7.2-1 .4c-.3.3-.4.6-.4 1zm-.3 4c0 .2 0 .5.2.8.1.3.3.5.6.7l1 .2A1.7 1.7 0 005-2.4c0-.5-.2-1-.5-1.3-.4-.3-.8-.5-1.3-.5a1.7 1.7 0 00-1.7 1.7zm0 0"/></symbol><symbol overflow="visible" id="g"><path d="M4.5 0h-1v-6.7l-1 .7a7 7 0 01-1.2.6v-1l1.6-1a4 4 0 00.9-1.2h.7zm0 0"/></symbol><symbol overflow="visible" id="x"><path d="M1 0v-8.6h4.5l1 .5.7.8.3 1.2c0 .7-.3 1.3-.7 1.8-.5.6-1.3.8-2.5.8H2V0zm1-4.5h2.3c.7 0 1.2-.1 1.5-.4.4-.3.5-.7.5-1.2 0-.3 0-.6-.3-.9-.1-.2-.4-.4-.7-.5H2.1zm0 0"/></symbol><symbol overflow="visible" id="y"><path d="M.8 0v-8.6h1v3c.5-.5 1.2-.8 2-.8.4 0 .8.1 1.1.3.3.2.6.4.7.8.2.3.3.7.3 1.4V0H4.8v-4c0-.5-.1-.9-.3-1-.3-.3-.6-.4-1-.5l-.9.3-.6.6-.2 1.2V0zm0 0"/></symbol><symbol overflow="visible" id="z"><path d="M.8-7.4v-1.2h1v1.2zM.8 0v-6.2h1V0zm0 0"/></symbol><symbol overflow="visible" id="A"><path d="M-.2 2.4v-.8h7v.8zm0 0"/></symbol><symbol overflow="visible" id="B"><path d="M.3-3.6c.3 0 .6 0 .8-.2.2-.2.3-.4.3-.7l.1-1.3v-1.3l.3-.8c0-.2.2-.4.3-.5l.6-.3h1v.9h-.2c-.4 0-.6 0-.8.2l-.2 1v2c-.1.3-.2.7-.4.9a2 2 0 01-.8.6c.4.2.8.5 1 .8l.2 1.8V1c0 .3.2.4.3.5.1.2.4.2.7.2h.2v1h-.3a3 3 0 01-.8-.2 1.4 1.4 0 01-1-1.2V-.3l-.2-1.4c0-.3-.1-.5-.3-.7l-.8-.2zm0 0"/></symbol><symbol overflow="visible" id="C"><path d="M1 0v-1.2h1.3V0c0 .4-.1.8-.3 1-.1.3-.4.6-.7.7L1 1.3l.5-.5.2-.8zm0 0"/></symbol><symbol overflow="visible" id="D"><path d="M3.7-3.6v1c-.3 0-.6 0-.8.2-.2.2-.3.4-.3.7L2.5-.4V1l-.3.8c0 .2-.2.4-.3.5l-.6.3h-1v-.9h.2c.4 0 .6 0 .8-.2l.2-1v-1.9c0-.4.2-.7.4-1 .2-.3.4-.5.8-.6a2 2 0 01-1-.9l-.2-1.8V-7c0-.3-.2-.5-.3-.6l-.7-.1H.3v-1h.3l.8.2c.3 0 .5.2.7.4l.3.8V-6c0 .7 0 1.2.2 1.4 0 .3.1.5.3.7l.8.2zm0 0"/></symbol><symbol overflow="visible" id="b"><path d="M1 0v-1.2h1.3V0zm0 0"/></symbol><symbol overflow="visible" id="i"><path d="M5.4-2.4l2 .4C7-1.3 6.6-.8 6-.4c-.5.4-1.2.6-2 .6-1.3 0-2.3-.5-2.9-1.3C.7-1.8.5-2.6.5-3.7c0-1.2.3-2.2 1-2.9.6-.7 1.4-1 2.4-1s2 .3 2.6 1c.6.8 1 2 1 3.4h-5c0 .6.2 1 .5 1.4.3.3.6.5 1.1.5.3 0 .6 0 .8-.3.2-.1.3-.4.5-.8zm0-2c0-.5 0-1-.4-1.3C4.7-6 4.4-6 4-6s-.8.1-1 .4c-.4.4-.5.8-.5 1.3zm0 0"/></symbol><symbol overflow="visible" id="j"><path d="M7.5-5.3l-1.9.4c0-.4-.2-.7-.5-.9C5-6 4.6-6 4.2-6c-.5 0-.8.2-1.1.5-.3.4-.5 1-.5 1.7 0 1 .2 1.5.5 2 .3.3.7.5 1.2.5.3 0 .7-.1.9-.4.2-.2.4-.5.5-1l2 .3c-.3.9-.6 1.5-1.2 2-.6.4-1.4.7-2.3.7-1.1 0-2-.4-2.6-1a4 4 0 01-1-3 4 4 0 011-2.8c.6-.7 1.5-1 2.6-1 1 0 1.6.2 2.2.6.5.3.9 1 1.1 1.7zm0 0"/></symbol><symbol overflow="visible" id="k"><path d="M6 0v-1.1l-1.1 1-1.4.3C3 .2 2.5 0 2-.2a2 2 0 01-.8-.9A4 4 0 011-2.7v-4.8h2V-2l.5.6.7.2 1-.3.5-.7.1-2v-3.2h2V0zm0 0"/></symbol><symbol overflow="visible" id="l"><path d="M3 0H1v-7.5h1.8v1l.8-.9c.3-.2.6-.2.9-.2.4 0 .9 0 1.3.3l-.6 1.8c-.4-.3-.7-.4-1-.4-.2 0-.5.1-.7.3-.2.1-.3.4-.4.8-.1.4-.2 1.2-.2 2.5zm0 0"/></symbol><symbol overflow="visible" id="m"><path d="M7.8 0h-2v-3.8-1.6l-.5-.5c-.2-.2-.4-.2-.7-.2-.3 0-.6 0-.9.3-.3.1-.5.4-.6.7L3-3.4V0H1v-7.5H3v1.1a3 3 0 013.6-1l.8.6.4.8.1 1.4zm0 0"/></symbol><symbol overflow="visible" id="n"><path d="M4.5-7.5v1.6H3v4c0 .2.1.3.2.3l.4.1c.1 0 .4 0 .7-.2L4.6 0a4 4 0 01-1.5.3c-.4 0-.7 0-1-.2-.3-.1-.5-.3-.6-.5-.2-.2-.3-.4-.3-.7V-6h-1v-1.6h1v-1.4l2-1.2v2.6zm0 0"/></symbol><symbol overflow="visible" id="p"><path d="M2.5-5.2L.7-5.5c.2-.7.6-1.3 1-1.6.6-.4 1.3-.5 2.3-.5.8 0 1.5 0 2 .3l.8.8c.2.3.3.9.3 1.7V-1l.4 1h-2a5.3 5.3 0 01-.2-.8l-1 .7L3 .2C2.2.2 1.6 0 1.2-.5A2 2 0 01.5-2c0-.5.1-.8.3-1.2.2-.3.5-.5.9-.7.3-.2.8-.4 1.5-.5l2-.5V-5c0-.3-.1-.6-.3-.8l-1-.2c-.4 0-.7 0-1 .2l-.4.7zm2.7 1.6l-1.3.3-1 .4c-.3.1-.4.4-.4.7 0 .2 0 .5.3.7.2.2.5.3.8.3.3 0 .7-.1 1-.4l.5-.6v-1zm0 0"/></symbol><symbol overflow="visible" id="q"><path d="M.3-2.1l2-.3c.1.4.3.6.5.8.3.2.6.3 1.1.3.5 0 1 0 1.2-.2l.2-.6-.1-.3-.7-.3C3-3 2-3.4 1.5-3.7.9-4 .6-4.7.6-5.3c0-.7.3-1.2.8-1.7.5-.4 1.3-.6 2.4-.6 1 0 1.7.1 2.2.5.5.3.9.8 1 1.4l-1.8.4c0-.3-.2-.5-.5-.7l-1-.2c-.4 0-.8 0-1 .2-.2.1-.3.2-.3.4l.2.4 1.9.5c1 .3 1.8.6 2.2.9.4.4.6.8.6 1.5S7-1.1 6.5-.6C5.9 0 5 .2 3.9.2 3 .2 2.1 0 1.5-.4.9-1 .5-1.4.3-2.1zm0 0"/></symbol><symbol overflow="visible" id="r"><path d="M1-8.5v-1.8h2v1.8zM1 0v-7.5h2V0zm0 0"/></symbol><symbol overflow="visible" id="s"><path d="M.6-3.8c0-.7.1-1.3.5-2 .3-.6.7-1 1.3-1.3.6-.4 1.3-.5 2-.5 1.2 0 2 .3 2.8 1 .7.8 1 1.7 1 2.8 0 1.2-.3 2.1-1 2.9-.7.7-1.7 1-2.8 1-.7 0-1.3 0-2-.4-.5-.3-1-.8-1.3-1.4C.7-2.3.6-3 .6-3.8zm2 0c0 .8.2 1.4.5 1.8.4.4.8.6 1.3.6s1-.2 1.3-.6c.4-.4.5-1 .5-1.7 0-.8-.1-1.3-.5-1.7C5.4-5.8 5-6 4.4-6s-1 .2-1.3.6c-.3.4-.5 1-.5 1.7zm0 0"/></symbol><symbol overflow="visible" id="t"><path d="M1-7.5h1.8v1.1a2.8 2.8 0 012.3-1.2c1 0 1.6.3 2.3 1 .6.7.9 1.6.9 2.8 0 1.3-.3 2.2-1 3A2.9 2.9 0 014-.2c-.3-.1-.7-.4-1-.8v3.7H1zm2 3.6C3-3 3-2.4 3.3-2c.4.4.8.6 1.2.6.5 0 .9-.2 1.2-.5.3-.4.4-1 .5-1.9 0-.7-.2-1.3-.5-1.7-.3-.4-.7-.6-1.2-.6s-.9.2-1.2.6c-.3.4-.5 1-.5 1.6zm0 0"/></symbol><symbol overflow="visible" id="u"><path d="M1 0v-10.3h2v3.7c.5-.7 1.3-1 2-1 1 0 1.8.3 2.3 1 .6.6 1 1.6 1 2.8 0 1.3-.4 2.2-1 3-.6.6-1.3 1-2.2 1C4.7.2 4.3 0 4-.2A3 3 0 012.8-1V0zm2-3.9c0 .8 0 1.4.3 1.7.3.5.8.8 1.3.8s.8-.2 1.2-.5c.3-.4.4-1 .4-1.8 0-.9-.1-1.5-.5-1.9C5.5-5.9 5-6 4.7-6c-.5 0-1 .2-1.2.5-.3.4-.5 1-.5 1.7zm0 0"/></symbol><symbol overflow="visible" id="v"><path d="M1 0v-10.3h2V0zm0 0"/></symbol><symbol overflow="visible" id="w"><path d="M.1-7.5h2.1L4-2.2l1.7-5.3h2L5.2-.3 4.7 1l-.5 1-.6.6-.7.3-1 .1H.8L.6 1.3h.8c.5 0 .8 0 1-.3L3 0zm0 0"/></symbol></defs><path fill="#fff" d="M0 0h504v360H0z"/><path d="M74.4 278.1l1.3-88.8 1.3-13.1 1.3-8.6 1.2-6.4 1.3-5.3 1.3-4.5 1.3-3.8 1.3-3.5 1.3-3 1.2-2.9 1.3-2.6 1.3-2.4 1.3-2.2 1.3-2.1 1.3-2 1.2-1.8 1.3-1.8 1.3-1.7 1.3-1.6 1.3-1.5 1.3-1.4 1.3-1.4 1.2-1.3 1.3-1.3 1.3-1.3 1.3-1.1 1.3-1.2 1.3-1.1 1.2-1 1.3-1.1 1.3-1 1.3-1 1.3-1 1.3-.8 1.3-1 1.2-.8 1.3-.8 1.3-.8 1.3-.8 1.3-.8 1.3-.8 1.2-.7 1.3-.7 1.3-.7 1.3-.7 1.3-.7 1.3-.6 1.2-.6 1.3-.7 1.3-.6 1.3-.6 1.3-.5 1.3-.6 1.3-.6 1.2-.5 1.3-.5 1.3-.6 1.3-.5 1.3-.5 1.3-.4 1.2-.5 1.3-.5 1.3-.4 1.3-.5 1.3-.4 1.3-.5 1.2-.4 1.3-.4 1.3-.4 1.3-.4 1.3-.4 1.3-.3 1.3-.4 1.2-.4 1.3-.3 1.3-.4 1.3-.3 1.3-.4 1.3-.3 1.2-.3 1.3-.3 1.3-.3 1.3-.3 1.3-.3 1.3-.3 1.2-.3 1.3-.3 1.3-.3 1.3-.2 2.6-.5 2.5-.5 1.3-.3 2.6-.4 1.3-.3 1.3-.2 1.2-.2 1.3-.2 2.6-.4 1.3-.2 1.3-.2 1.3-.2 1.2-.1 1.3-.2 1.3-.2 1.3-.1 1.3-.2 1.3-.2 1.2-.1 1.3-.2 2.6-.2 1.3-.2 1.3-.1 1.2-.1 1.3-.2h1.3l1.3-.2h1.3l2.6-.3h1.2l2.6-.3h1.3l1.3-.1 1.3-.1 2.5-.2h2.6l1.3-.1 2.5-.1h1.3l2.6-.2H259.3l1.3-.1H274.7l2.6.1h2.6l1.3.1h1.3l2.5.2h2.6l1.3.1 2.5.2h1.3l1.3.1 1.3.1 1.3.1 1.3.1 1.2.1 2.6.2 1.3.1 1.3.1 1.3.2h1.3l1.2.2 1.3.1 1.3.2 2.6.2 1.3.2 1.2.1 1.3.2 1.3.2 1.3.1 1.3.2 1.3.2 1.3.1 1.2.2 1.3.2 1.3.2 2.6.4 1.3.2 1.2.2 1.3.2 1.3.3 1.3.2 1.3.2 1.3.3 2.5.5 1.3.2 1.3.3 1.3.2 1.3.3 1.3.3 1.2.3 1.3.3 1.3.3 1.3.3 1.3.3 1.3.3 1.2.3 1.3.3 1.3.4 1.3.3 1.3.4 1.3.3 1.2.4 1.3.3 1.3.4 1.3.4 1.3.4 1.3.4 1.3.4 1.2.4 1.3.5 1.3.4 1.3.5 1.3.4 1.3.5 1.2.5 1.3.4 1.3.5 1.3.5 1.3.6 1.3.5 1.3.5 1.2.6 1.3.6 1.3.5 1.3.6 1.3.6 1.3.7 1.2.6 1.3.6 1.3.7 1.3.7 1.3.7 1.3.7 1.2.7 1.3.8 1.3.8 1.3.8 1.3.8 1.3.8 1.2.9 1.3.9 1.3.9 1.3 1 1.3.9 1.3 1 1.3 1 1.2 1.1 1.3 1.1 1.3 1.2 1.3 1.1 1.3 1.3 1.3 1.3 1.2 1.3 1.3 1.4 1.3 1.4 1.3 1.5 1.3 1.6 1.3 1.7 1.3 1.8 1.2 1.8 1.3 2 1.3 2 1.3 2.3 1.3 2.4 1.3 2.6 1.2 2.8 1.3 3.1 1.3 3.5 1.3 3.8 1.3 4.5 1.3 5.3 1.2 6.4 1.3 8.6 1.3 13.1 1.3 88.8" fill="none" stroke-width="2.3" stroke-linecap="round" stroke-linejoin="round" stroke="#6689bf" stroke-miterlimit="10"/><path d="M74.4 286.6h384M74.4 286.6v7.2M151.2 286.6v7.2M228 286.6v7.2M304.8 286.6v7.2M381.6 286.6v7.2M458.4 286.6v7.2" fill="none" stroke-width=".8" stroke-linecap="round" stroke-linejoin="round" stroke="#000" stroke-miterlimit="10"/><use xlink:href="#a" x="66.1" y="312.5"/><use xlink:href="#b" x="72.7" y="312.5"/><use xlink:href="#a" x="76.1" y="312.5"/><use xlink:href="#a" x="142.9" y="312.5"/><use xlink:href="#b" x="149.5" y="312.5"/><use xlink:href="#c" x="152.9" y="312.5"/><use xlink:href="#a" x="219.7" y="312.5"/><use xlink:href="#b" x="226.3" y="312.5"/><use xlink:href="#d" x="229.7" y="312.5"/><g><use xlink:href="#a" x="296.5" y="312.5"/><use xlink:href="#b" x="303.1" y="312.5"/><use xlink:href="#e" x="306.5" y="312.5"/></g><g><use xlink:href="#a" x="373.3" y="312.5"/><use xlink:href="#b" x="379.9" y="312.5"/><use xlink:href="#f" x="383.3" y="312.5"/></g><g><use xlink:href="#g" x="450.1" y="312.5"/><use xlink:href="#b" x="456.7" y="312.5"/><use xlink:href="#a" x="460.1" y="312.5"/></g><g><use xlink:href="#h" x="140.4" y="34.7"/><use xlink:href="#i" x="150.8" y="34.7"/><use xlink:href="#j" x="158.8" y="34.7"/><use xlink:href="#k" x="166.8" y="34.7"/><use xlink:href="#l" x="175.6" y="34.7"/><use xlink:href="#l" x="181.2" y="34.7"/><use xlink:href="#i" x="186.8" y="34.7"/><use xlink:href="#m" x="194.8" y="34.7"/><use xlink:href="#n" x="203.6" y="34.7"/><use xlink:href="#o" x="208.4" y="34.7"/><use xlink:href="#n" x="212.4" y="34.7"/><use xlink:href="#l" x="217.2" y="34.7"/><use xlink:href="#p" x="222.8" y="34.7"/><use xlink:href="#m" x="230.8" y="34.7"/><use xlink:href="#q" x="239.6" y="34.7"/><use xlink:href="#r" x="247.6" y="34.7"/><use xlink:href="#n" x="251.6" y="34.7"/><use xlink:href="#r" x="256.4" y="34.7"/><use xlink:href="#s" x="260.4" y="34.7"/><use xlink:href="#m" x="269.2" y="34.7"/><use xlink:href="#o" x="278" y="34.7"/><use xlink:href="#t" x="282" y="34.7"/><use xlink:href="#l" x="290.8" y="34.7"/><use xlink:href="#s" x="296.4" y="34.7"/><use xlink:href="#u" x="305.2" y="34.7"/><use xlink:href="#p" x="314" y="34.7"/><use xlink:href="#u" x="322" y="34.7"/><use xlink:href="#r" x="330.8" y="34.7"/><use xlink:href="#v" x="334.8" y="34.7"/><use xlink:href="#r" x="338.8" y="34.7"/><use xlink:href="#n" x="342.8" y="34.7"/><use xlink:href="#w" x="347.6" y="34.7"/><use xlink:href="#o" x="355.6" y="34.7"/><use xlink:href="#t" x="359.6" y="34.7"/><use xlink:href="#l" x="368.4" y="34.7"/><use xlink:href="#r" x="374" y="34.7"/><use xlink:href="#s" x="378" y="34.7"/><use xlink:href="#l" x="386.8" y="34.7"/></g><g><use xlink:href="#x" x="246" y="341.3"/><use xlink:href="#y" x="254.1" y="341.3"/><use xlink:href="#z" x="260.7" y="341.3"/><use xlink:href="#A" x="263.4" y="341.3"/><use xlink:href="#B" x="270.1" y="341.3"/><use xlink:href="#z" x="274.1" y="341.3"/><use xlink:href="#C" x="276.7" y="341.3"/><use xlink:href="#z" x="280.1" y="341.3"/><use xlink:href="#D" x="282.7" y="341.3"/></g></svg>