<svg xmlns="http://www.w3.org/2000/svg" xmlns:xlink="http://www.w3.org/1999/xlink" viewBox="0 0 504 360"><defs><symbol overflow="visible" id="ah"><path d="M.9 0v-6.8h1v1C2.4-6.7 3.1-7 4.1-7c.4 0 .8 0 1.1.2l.8.6.4.9V0H5.3v-4.2c0-.4 0-.8-.2-1 0-.3-.2-.4-.4-.6L3.8-6a2 2 0 00-1.2.5c-.4.3-.6.9-.6 1.8V0zm0 0"/></symbol><symbol overflow="visible" id="v"><path d="M.4-3.1c0-.7 0-1.3.2-1.8.1-.5.4-.8.7-1 .3-.3.7-.4 1.1-.4.4 0 .7 0 1 .2.2.1.4.3.5.6.2.2.3.5.4 1l.2 1.4c0 .7-.1 1.3-.3 1.8-.1.4-.3.8-.6 1-.3.3-.7.4-1.2.4-.6 0-1-.2-1.4-.6C.6-1.1.4-2 .4-3.1zm.8 0c0 1 0 1.7.3 2 .3.4.6.6 1 .6.3 0 .6-.2.8-.5.3-.4.4-1 .4-2.1 0-1-.1-1.7-.4-2-.2-.4-.5-.6-.9-.6a1 1 0 00-.8.5c-.3.4-.4 1-.4 2zm0 0"/></symbol><symbol overflow="visible" id="x"><path d="M.4-1.6l.8-.1c0 .4.2.7.4.9.2.2.5.3.8.3.4 0 .7-.2 1-.4.2-.3.3-.7.3-1.2 0-.4-.1-.8-.4-1-.2-.3-.5-.4-1-.4-.2 0-.4 0-.6.2-.2 0-.4.2-.5.4H.5l.6-3.3h3.1v.7H1.7l-.3 1.7c.4-.2.8-.4 1.2-.4a2 2 0 012 2c0 .6-.2 1.1-.6 1.5a2 2 0 01-1.6.8A2 2 0 011-.4C.6-.7.4-1 .4-1.6zm0 0"/></symbol><symbol overflow="visible" id="y"><path d="M3.3 0h-.8v-5A5 5 0 011-4v-.7c.4-.2.8-.5 1-.8l.8-.8h.5zm0 0"/></symbol><symbol overflow="visible" id="z"><path d="M4.4-.7V0H.3v-.5l.6-.9 1-1c.7-.5 1.1-1 1.4-1.3l.3-.9a1 1 0 00-.3-.8c-.2-.2-.5-.3-.9-.3-.3 0-.6.1-.9.4-.2.2-.3.5-.3.9l-.8-.1c0-.6.3-1 .6-1.4.4-.3.9-.4 1.5-.4s1 .1 1.4.5c.3.3.5.7.5 1.2l-.1.8-.5.7L2.6-2A12.5 12.5 0 001.3-.7zm0 0"/></symbol><symbol overflow="visible" id="A"><path d="M.7 2.2l-.1-1 .5.2.5-.1L2 1a6 6 0 00.3-1L.2-5.7h1l1.2 3.3.4 1.3.4-1.3 1.2-3.3h1L3.2.1l-.5 1.3A2 2 0 012 2l-.8.2a2 2 0 01-.6-.1zm0 0"/></symbol><symbol overflow="visible" id="C"><path d="M2.3 0L.1-5.7h1l1.3 3.4.4 1.2.3-1.1 1.3-3.5h1L3.2 0zm0 0"/></symbol><symbol overflow="visible" id="D"><path d="M4.4-.7c-.3.3-.7.5-1 .6a3 3 0 01-1 .2C1.6.1 1.1 0 .8-.3.6-.6.4-1 .4-1.5a1.6 1.6 0 01.7-1.3c.2-.2.4-.3.7-.3l.8-.2c.8 0 1.4-.2 1.8-.3V-4c0-.4-.1-.6-.3-.8C3.8-4.9 3.5-5 3-5c-.5 0-.8 0-1 .2-.2.2-.4.4-.5.9l-1-.2.5-1 .8-.5a4 4 0 011.3-.2l1.2.1c.3.2.6.3.7.5l.3.6v2.2l.1 1.7.2.7h-1a2 2 0 01-.2-.7zm0-2.2l-1.6.4-.9.2-.3.3-.2.5.3.6c.2.2.5.3.9.3.3 0 .7-.1 1-.3.3-.1.5-.4.6-.6l.2-1zm0 0"/></symbol><symbol overflow="visible" id="E"><path d="M.7 0v-7.9h1V0zm0 0"/></symbol><symbol overflow="visible" id="F"><path d="M4.5 0v-.8c-.5.6-1 1-1.8 1-.4 0-.7-.1-1-.3-.3 0-.5-.3-.6-.5C.9-.7.8-1 .8-1.3l-.1-.9v-3.5h1v4.2c0 .2.2.4.4.6l.7.2c.3 0 .6 0 .9-.2l.5-.6.2-1.1v-3.1h1V0zm0 0"/></symbol><symbol overflow="visible" id="G"><path d="M4.6-1.8h1c-.1.7-.4 1.1-.8 1.4-.5.4-1 .5-1.7.5-.8 0-1.5-.2-2-.7C.6-1.2.4-2 .4-2.8c0-1 .2-1.7.7-2.2.5-.6 1.2-.8 2-.8.7 0 1.3.2 1.8.7.5.6.8 1.3.8 2.2v.3H1.4c0 .6.2 1.1.5 1.4.4.4.7.5 1.2.5.4 0 .7 0 1-.2.2-.2.4-.5.5-1zM1.5-3.4h3.1a2 2 0 00-.3-1C4-5 3.6-5 3-5s-.8.1-1.1.4c-.3.3-.5.7-.5 1.2zm0 0"/></symbol><symbol overflow="visible" id="H"><path d="M.4-2.9c0-1 .3-1.8.8-2.3.5-.4 1.1-.6 1.8-.6.8 0 1.5.2 2 .7.5.6.7 1.3.7 2.2 0 .7-.1 1.3-.3 1.7-.2.4-.6.8-1 1C4 0 3.5 0 3 0 2.2.1 1.6 0 1.1-.6.6-1.1.4-2 .4-3zm1 0c0 .8.1 1.3.4 1.7.4.4.8.5 1.2.5.5 0 1-.1 1.2-.5.4-.4.5-1 .5-1.7S4.6-4 4.2-4.5C4-4.8 3.5-5 3-5c-.4 0-.8.2-1.2.5-.3.4-.4 1-.4 1.6zm0 0"/></symbol><symbol overflow="visible" id="I"><path d="M1 0v-5H0v-.7H1v-.6-.9l.6-.6 1-.2h.8l-.1 1-.6-.1c-.3 0-.5 0-.6.2-.1.1-.2.3-.2.7v.5H3v.7H2v5zm0 0"/></symbol><symbol overflow="visible" id="J"><path d="M.7-6.8v-1h1v1zM.7 0v-5.7h1V0zm0 0"/></symbol><symbol overflow="visible" id="K"><path d="M.7 0v-5.7h.9v.9l.6-.8c.2-.2.4-.2.6-.2.3 0 .7 0 1 .3l-.3.9c-.3-.2-.5-.2-.7-.2a1 1 0 00-.6.2 1 1 0 00-.4.5L1.7-3v3zm0 0"/></symbol><symbol overflow="visible" id="L"><path d="M.3-1.7l1-.2c0 .4.2.7.4 1l1 .2c.5 0 .8 0 1-.2.3-.2.4-.4.4-.7C4-1.8 4-2 3.8-2l-1-.3L1.3-3l-.6-.5-.2-.8c0-.2 0-.5.2-.7a1.6 1.6 0 011-.8l.9-.1c.4 0 .8 0 1.2.2.3 0 .6.3.7.5.2.2.3.5.4.9l-1 .1a1 1 0 00-.4-.7C3.3-5 3-5 2.7-5c-.5 0-.8 0-1 .2-.2.1-.3.3-.3.5 0 .1 0 .2.2.3l.3.3.9.2 1.4.5c.3.1.5.3.6.5.2.2.3.5.3.8 0 .3-.1.7-.3 1L4-.2a3 3 0 01-1.2.2C2 .1 1.5 0 1-.3.7-.6.4-1.1.3-1.7zm0 0"/></symbol><symbol overflow="visible" id="M"><path d="M2.8-.9L3 0H1.4A1 1 0 011-.6L1-1.7V-5H.2v-.7h.7v-1.4l1-.6v2h1v.7h-1V-1l.2.2h.7zm0 0"/></symbol><symbol overflow="visible" id="N"><path d="M4.4 0v-.7c-.3.5-.9.8-1.6.8L1.6-.2C1.2-.5.9-.8.6-1.3L.5-2.8c0-.6 0-1.1.3-1.6.1-.5.4-.8.8-1 .4-.3.8-.4 1.3-.4.3 0 .6 0 1 .2l.6.6V-8h1V0zm-3-2.8c0 .7.1 1.2.4 1.6a1.4 1.4 0 002.2 0c.3-.3.4-.9.4-1.6 0-.7-.1-1.3-.4-1.7-.3-.3-.7-.5-1.1-.5-.5 0-.8.1-1.1.5-.3.3-.4.9-.4 1.7zm0 0"/></symbol><symbol overflow="visible" id="O"><path d="M.7 2.2v-7.9h1v.7c.1-.3.3-.5.6-.6a2.3 2.3 0 012.2.2c.4.2.7.5.9 1a4 4 0 010 3A2.4 2.4 0 013.2.2c-.3 0-.6 0-.9-.2a2 2 0 01-.6-.5v2.8zm.9-5c0 .7.1 1.3.4 1.6.3.4.7.5 1.1.5.5 0 .8-.1 1.1-.5.3-.4.5-1 .5-1.7s-.2-1.3-.5-1.6c-.3-.4-.6-.6-1-.6s-.8.2-1.1.6c-.3.4-.5 1-.5 1.7zm0 0"/></symbol><symbol overflow="visible" id="P"><path d="M.7 0v-5.7h.9v.8c.4-.6 1-1 1.8-1 .4 0 .7.1 1 .3.2 0 .5.2.6.4l.3.8V0h-1v-3.5-.9a1 1 0 00-.4-.4L3.2-5c-.4 0-.8.1-1 .4-.4.3-.5.8-.5 1.5V0zm0 0"/></symbol><symbol overflow="visible" id="Q"><path d="M2.2-.7l-1 .1.2-.5-.1-.5A1 1 0 001-2a6 6 0 00-1-.3L-5.7-.2v-1l3.3-1.2 1.3-.4-1.3-.4-3.3-1.2v-1L.1-3.2l1.3.5.7.6.2.8-.1.6zm0 0"/></symbol><symbol overflow="visible" id="S"><path d="M0-2.3L-5.7-.1v-1l3.4-1.3 1.2-.4-1.1-.3-3.5-1.3v-1L0-3.2zm0 0"/></symbol><symbol overflow="visible" id="T"><path d="M-.7-4.4c.3.3.5.7.6 1 .2.3.2.7.2 1 0 .7-.1 1.2-.4 1.5-.3.3-.7.5-1.2.5a1.6 1.6 0 01-1.3-.7c-.2-.2-.3-.4-.3-.7a7 7 0 01-.2-.8c0-.8-.2-1.4-.3-1.8H-4c-.4 0-.6.1-.8.3-.2.3-.3.6-.3 1.1 0 .5 0 .8.2 1 .2.2.4.4.9.5l-.2 1-1-.5-.5-.8a4 4 0 01-.2-1.3l.1-1.2c.2-.3.3-.6.5-.7l.6-.3h2.2l1.7-.1.7-.2v1a2 2 0 01-.7.2zm-2.2 0l.4 1.6.2.9.3.3.5.2.6-.3c.2-.2.3-.5.3-.9 0-.3-.1-.7-.3-1-.1-.3-.4-.5-.6-.6l-1-.2zm0 0"/></symbol><symbol overflow="visible" id="U"><path d="M0-.7h-7.9v-1H0zm0 0"/></symbol><symbol overflow="visible" id="V"><path d="M0-4.5h-.8c.6.5 1 1 1 1.8 0 .4-.1.7-.3 1 0 .3-.3.5-.5.6-.1.2-.4.3-.7.3a5 5 0 01-.9.1h-3.5v-1h4.2c.2 0 .4-.2.6-.4l.2-.7c0-.3 0-.6-.2-.9l-.6-.5a3 3 0 00-1.1-.2h-3.1v-1H0zm0 0"/></symbol><symbol overflow="visible" id="W"><path d="M-1.8-4.6v-1c.7.1 1.1.4 1.4.8.4.5.5 1 .5 1.7 0 .8-.2 1.5-.7 2-.6.5-1.3.7-2.2.7-1 0-1.7-.2-2.2-.7-.6-.5-.8-1.2-.8-2 0-.7.2-1.3.7-1.8a3 3 0 012.2-.8h.3v4.3c.6 0 1.1-.2 1.4-.5.4-.4.5-.7.5-1.2 0-.4 0-.7-.2-1-.2-.2-.5-.4-1-.5zm-1.6 3.1v-3.1a2 2 0 00-1 .3C-5-4-5-3.6-5-3s.1.8.4 1.1c.3.3.7.5 1.2.5zm0 0"/></symbol><symbol overflow="visible" id="X"><path d="M-2.9-.4c-1 0-1.8-.3-2.3-.8-.4-.5-.6-1.1-.6-1.8 0-.8.2-1.5.7-2a3 3 0 012.2-.7c.7 0 1.3.1 1.7.3.4.2.8.6 1 1C0-4 0-3.5 0-3c0 .8-.2 1.4-.7 1.9-.5.5-1.3.7-2.3.7zm0-1c.8 0 1.3-.1 1.7-.4.4-.4.5-.8.5-1.2 0-.5-.1-1-.5-1.2-.4-.4-1-.5-1.7-.5s-1.2.1-1.6.5C-4.8-4-5-3.5-5-3c0 .4.2.8.5 1.2.4.3 1 .4 1.6.4zm0 0"/></symbol><symbol overflow="visible" id="Y"><path d="M0-1h-5V0h-.7V-1h-1.5l-.6-.6-.2-1v-.8l1 .1-.1.6c0 .3 0 .5.2.6.1.1.3.2.7.2h.5V-3h.7v1h5zm0 0"/></symbol><symbol overflow="visible" id="Z"><path d="M-1.7-.3l-.2-1c.4 0 .7-.2 1-.4l.2-1c0-.5 0-.8-.2-1a.8.8 0 00-.7-.4c-.2 0-.4.1-.5.3l-.3 1-.5 1.5-.5.6-.8.2c-.2 0-.5 0-.7-.2a1.6 1.6 0 01-.8-1l-.1-.9c0-.4 0-.8.2-1.2 0-.3.3-.6.5-.7.2-.2.5-.3.9-.4l.1 1a1 1 0 00-.7.4c-.2.2-.2.5-.2.8 0 .5 0 .8.2 1 .1.2.3.3.5.3.1 0 .2 0 .3-.2l.3-.3.2-.9.5-1.4c.1-.3.3-.5.5-.6.2-.2.5-.3.8-.3.3 0 .7.1 1 .3l.6.8c.2.4.2.8.2 1.2C.1-2 0-1.5-.3-1c-.3.4-.8.7-1.4.8zm0 0"/></symbol><symbol overflow="visible" id="aa"><path d="M-2-4.4v-1c.7.1 1.2.4 1.6.8.3.4.5 1 .5 1.6 0 .8-.2 1.4-.7 1.9-.5.4-1.3.7-2.2.7-.6 0-1.2-.1-1.6-.3-.5-.2-.9-.6-1-1a2.8 2.8 0 010-2.8c.4-.4.8-.7 1.4-.8l.1 1c-.4 0-.7.2-.8.4-.2.2-.3.5-.3.8 0 .5.1 1 .5 1.2.3.3.9.5 1.6.5.8 0 1.4-.2 1.7-.5.4-.3.5-.6.5-1.1 0-.4 0-.7-.3-1-.2-.2-.6-.4-1-.4zm0 0"/></symbol><symbol overflow="visible" id="ab"><path d="M0-.7h-5.7v-.9h.8a2 2 0 01-1-1.8c0-.4.1-.7.3-1 0-.2.2-.5.4-.6l.8-.3H0v1h-4.4a1 1 0 00-.4.4l-.2.7c0 .4.1.8.4 1 .3.4.8.5 1.5.5H0zm0 0"/></symbol><symbol overflow="visible" id="ac"><path d="M0-4.4h-.7c.5.3.8.9.8 1.6l-.3 1.2c-.3.4-.6.7-1.1 1l-1.5.2c-.6 0-1.1 0-1.6-.3-.5-.1-.8-.4-1-.8-.3-.4-.4-.8-.4-1.3 0-.3 0-.6.2-1l.6-.6H-8v-1H0zm-2.8 3c.7 0 1.2-.1 1.6-.4a1.4 1.4 0 000-2.2c-.3-.3-.9-.4-1.6-.4-.7 0-1.3.1-1.7.4-.3.3-.5.7-.5 1.1 0 .5.1.8.5 1.1.3.3.9.4 1.7.4zm0 0"/></symbol><symbol overflow="visible" id="ad"><path d="M-.9-2.8L0-3v1.6a1 1 0 01-.5.4l-1.2.1H-5v.7h-.7v-.7h-1.4l-.6-1h2v-1h.7v1H-1l.2-.2v-.3-.4zm0 0"/></symbol><symbol overflow="visible" id="ae"><path d="M2.2-.7h-7.9v-1h.7c-.3-.1-.5-.3-.6-.6a2.3 2.3 0 01.2-2.2c.2-.4.5-.7 1-.9a4 4 0 013 0A2.4 2.4 0 01.2-3.2c0 .3 0 .6-.2.9l-.5.6h2.8zm-5-.9c.7 0 1.3-.1 1.6-.4.4-.3.5-.7.5-1.1 0-.5-.1-.8-.5-1.1-.4-.3-1-.5-1.7-.5s-1.3.2-1.6.5c-.4.3-.6.6-.6 1s.2.8.6 1.1c.4.3 1 .5 1.7.5zm0 0"/></symbol><symbol overflow="visible" id="af"><path d="M-6.8-.7h-1v-1h1zM0-.7h-5.7v-1H0zm0 0"/></symbol><symbol overflow="visible" id="ag"><path d="M.6-4.6c0-1.6.5-2.8 1.3-3.7.8-.9 2-1.3 3.3-1.3a4.1 4.1 0 014 2.4c.3.7.5 1.5.5 2.5S9.5-3 9-2.1A4 4 0 017.4-.4a4.8 4.8 0 01-4.6 0C2-1 1.5-1.6 1.2-2.3.8-3 .6-3.8.6-4.6zm1.3 0c0 1.2.3 2 1 2.7A3 3 0 005-.9a3 3 0 002.4-1 4 4 0 00.9-2.8 5 5 0 00-.4-2 3 3 0 00-2.8-1.8c-1 0-1.7.3-2.3.9-.7.6-1 1.6-1 3zm0 0"/></symbol><symbol overflow="visible" id="w"><path d="M.8 0v-.9h.9V0zm0 0"/></symbol><symbol overflow="visible" id="ai"><path d="M5.6-2.2l1.2.1A3 3 0 015.7-.4c-.5.4-1.2.6-2 .6-1 0-1.8-.4-2.3-1-.6-.6-1-1.4-1-2.6 0-1.1.4-2 1-2.6a3 3 0 012.3-1c.9 0 1.6.3 2.2 1 .6.6.9 1.4.9 2.6v.3H1.7c0 .7.2 1.3.6 1.7.4.4.9.6 1.5.6.4 0 .7-.1 1-.3.3-.3.6-.6.8-1.1zM1.7-4.1h3.9c0-.6-.2-1-.5-1.3-.3-.4-.8-.6-1.4-.6-.5 0-1 .1-1.4.5-.3.3-.5.8-.6 1.4zm0 0"/></symbol><symbol overflow="visible" id="ak"><path d="M1 0v-9.4h5c.5.2 1 .4 1.3.8.5.4 1 1 1.2 1.6.2.6.3 1.4.3 2.2 0 .7 0 1.4-.2 2-.2.5-.4 1-.7 1.3-.2.4-.5.7-.8.9l-1.2.4-1.5.2zm1.3-1.1h2c.6 0 1 0 1.5-.2l.8-.5c.3-.3.5-.7.7-1.2a6 6 0 00.2-1.8c0-1-.1-1.7-.4-2.3-.4-.5-.8-.9-1.2-1a5 5 0 00-1.6-.2h-2zm0 0"/></symbol><symbol overflow="visible" id="al"><path d="M5.3-.8a3.7 3.7 0 01-2.5 1C2.1.2 1.5 0 1.1-.4.7-.8.5-1.2.5-1.8c0-.3 0-.6.2-1l.6-.6.8-.4 1-.1 2.1-.4v-.3c0-.5 0-.8-.3-1C4.6-6 4.2-6 3.6-6c-.5 0-1 0-1.2.3-.3.1-.5.5-.6 1L.7-5c0-.5.2-.9.5-1.2.2-.3.6-.5 1-.7L3.8-7c.5 0 1 0 1.4.2l.8.5.4.8v4.6l.4.9H5.6c-.2-.2-.2-.5-.3-.8zm0-2.6l-2 .4-1 .2a1 1 0 00-.6 1c0 .3.1.5.4.7.2.2.5.4 1 .3.4 0 .8 0 1.2-.2.3-.2.6-.5.8-.9L5.2-3zm0 0"/></symbol><symbol overflow="visible" id="am"><path d="M3.4-1l.2 1h-.9a2 2 0 01-1-.1 1 1 0 01-.5-.5A4 4 0 011.1-2v-4H.2v-.8h.9v-1.7l1.1-.7v2.4h1.2v.9H2.2v4l.1.6.2.2.4.1h.5zm0 0"/></symbol><symbol overflow="visible" id="an"><path d="M.9 2.6v-9.4h1v.8c.3-.3.6-.6.9-.7C3-7 3.5-7 3.9-7a2.8 2.8 0 012.6 1.7l.3 1.8c0 .7-.1 1.4-.4 2A2.8 2.8 0 013.8.1c-.4 0-.7-.1-1-.3L2-.7v3.3zm1-6c0 .9.2 1.5.6 2 .3.4.7.6 1.3.6.5 0 1-.2 1.3-.7.3-.4.5-1 .5-2 0-.9-.2-1.5-.5-2-.4-.4-.8-.6-1.3-.6s-1 .2-1.3.7c-.4.5-.6 1.1-.6 2zm0 0"/></symbol><symbol overflow="visible" id="ao"><path d="M.4-3.4c0-1.3.4-2.2 1.1-2.8.6-.5 1.3-.8 2.1-.8 1 0 1.8.3 2.4 1 .6.5.8 1.4.9 2.5 0 .9-.2 1.6-.4 2-.3.6-.7 1-1.2 1.2-.5.3-1 .5-1.7.5a3 3 0 01-2.3-1C.7-1.4.4-2.3.4-3.4zm1.2 0c0 .9.2 1.5.6 2 .4.4.9.6 1.4.6.6 0 1.1-.2 1.5-.7.4-.4.6-1 .6-2 0-.8-.2-1.4-.6-1.9-.4-.4-.9-.6-1.5-.6-.5 0-1 .2-1.4.6-.4.5-.6 1.1-.6 2zm0 0"/></symbol><symbol overflow="visible" id="ap"><path d="M.9-8.1v-1.3H2v1.3zM.9 0v-6.8H2V0zm0 0"/></symbol><symbol overflow="visible" id="aq"><path d="M2.1 0l-2-6.8h1.1l1.1 4 .4 1.4.4-1.4 1-4h1.3l1 4 .3 1.2.4-1.3 1.2-4h1.1L7.3 0H6L5-4.1l-.3-1.2L3.3 0zm0 0"/></symbol><symbol overflow="visible" id="ar"><path d="M.9 0v-9.4H2v3.3c.6-.6 1.3-.9 2-.9.6 0 1 .1 1.4.3.4.2.6.5.8.8.2.4.2.9.2 1.6V0H5.3v-4.3c0-.6-.1-1-.4-1.3-.2-.3-.6-.4-1-.4s-.7 0-1 .3c-.3.1-.6.4-.7.7L2-3.7V0zm0 0"/></symbol><symbol overflow="visible" id="as"><path d="M6.6-1.1V0H.4l.1-.8.8-1.3 1.5-1.4c1-.8 1.7-1.5 2.1-2 .4-.5.5-1 .5-1.4 0-.4-.1-.8-.5-1.2-.3-.3-.7-.4-1.2-.4-.6 0-1 .1-1.4.5-.3.3-.5.8-.5 1.4L.6-6.8a3 3 0 011-2c.5-.5 1.2-.7 2-.7a3 3 0 012.2.8c.6.5.8 1 .8 1.8 0 .4 0 .8-.2 1.2l-.8 1.1-1.8 1.7A21.7 21.7 0 002-1.1zm0 0"/></symbol><symbol overflow="visible" id="at"><path d="M.8 2.6l-.1-1H2l.4-.4A6.3 6.3 0 002.8 0L.2-6.8h1.3l1.4 4 .5 1.5.5-1.6 1.4-4h1.2L3.9.2l-.7 1.6-.7.8c-.2.2-.6.3-1 .3-.2 0-.4 0-.7-.2zm0 0"/></symbol><symbol overflow="visible" id="au"><path d="M.4-2.8V-4H4v1.2zm0 0"/></symbol><symbol overflow="visible" id="av"><path d="M2.8 0L.2-6.8h1.2l1.5 4 .4 1.4.4-1.3 1.6-4.1h1.1L4 0zm0 0"/></symbol><symbol overflow="visible" id="aw"><path d="M.8 0v-9.4H2V0zm0 0"/></symbol><symbol overflow="visible" id="ax"><path d="M5.4 0v-1C4.8-.2 4 .2 3.2.2 2.8.2 2.4 0 2-.1c-.4-.1-.7-.3-.8-.6l-.4-.8V-6.8H2v5l.5.7a1.9 1.9 0 001.9 0c.3-.2.5-.4.6-.7.2-.3.2-.8.2-1.4v-3.6h1.2V0zm0 0"/></symbol><clipPath id="k"><path d="M35.9 243h463.6v2H36zm0 0"/></clipPath><clipPath id="a"><path d="M35.9 23H499v305H35.9zm0 0"/></clipPath><clipPath id="c"><path d="M35.9 209H499v2H35.9zm0 0"/></clipPath><clipPath id="d"><path d="M35.9 140H499v1H35.9zm0 0"/></clipPath><clipPath id="e"><path d="M35.9 71H499v1H35.9zm0 0"/></clipPath><clipPath id="f"><path d="M109 23h1v305h-1zm0 0"/></clipPath><clipPath id="g"><path d="M214 23h1v305h-1zm0 0"/></clipPath><clipPath id="h"><path d="M319 23h2v305h-2zm0 0"/></clipPath><clipPath id="i"><path d="M424 23h2v305h-2zm0 0"/></clipPath><clipPath id="j"><path d="M35.9 313h463.6v2H36zm0 0"/></clipPath><clipPath id="b"><path d="M35.9 278H499v2H35.9zm0 0"/></clipPath><clipPath id="l"><path d="M35.9 174h463.6v2H36zm0 0"/></clipPath><clipPath id="m"><path d="M35.9 105h463.6v2H36zm0 0"/></clipPath><clipPath id="n"><path d="M35.9 36h463.6v2H36zm0 0"/></clipPath><clipPath id="o"><path d="M56 23h2v305h-2zm0 0"/></clipPath><clipPath id="p"><path d="M161 23h2v305h-2zm0 0"/></clipPath><clipPath id="q"><path d="M266 23h2v305h-2zm0 0"/></clipPath><clipPath id="r"><path d="M371 23h2v305h-2zm0 0"/></clipPath><clipPath id="s"><path d="M476 23h3v305h-3zm0 0"/></clipPath><clipPath id="t"><path d="M266 23h3v305.4h-3zm0 0"/></clipPath><clipPath id="u"><path d="M35.9 104h463.6v4H36zm0 0"/></clipPath></defs><path fill="#fff" d="M0 0h504v360H0z"/><path fill="#fff" d="M0 0h504v360H0z"/><path d="M0 360h504V0H0zm0 0" fill="none" stroke-width="1.1" stroke-linecap="round" stroke-linejoin="round" stroke="#fff" stroke-miterlimit="10"/><g clip-path="url(#a)"><path d="M35.9 327.4h462.6V23H36zm0 0" fill="#ebebeb"/></g><g clip-path="url(#b)"><path d="M35.9 279h462.6" fill="none" stroke-width=".5" stroke-linejoin="round" stroke="#fff" stroke-miterlimit="10"/></g><g clip-path="url(#c)"><path d="M35.9 209.8h462.6" fill="none" stroke-width=".5" stroke-linejoin="round" stroke="#fff" stroke-miterlimit="10"/></g><g clip-path="url(#d)"><path d="M35.9 140.6h462.6" fill="none" stroke-width=".5" stroke-linejoin="round" stroke="#fff" stroke-miterlimit="10"/></g><g clip-path="url(#e)"><path d="M35.9 71.5h462.6" fill="none" stroke-width=".5" stroke-linejoin="round" stroke="#fff" stroke-miterlimit="10"/></g><g clip-path="url(#f)"><path d="M109.5 327.4V23" fill="none" stroke-width=".5" stroke-linejoin="round" stroke="#fff" stroke-miterlimit="10"/></g><g clip-path="url(#g)"><path d="M214.6 327.4V23" fill="none" stroke-width=".5" stroke-linejoin="round" stroke="#fff" stroke-miterlimit="10"/></g><g clip-path="url(#h)"><path d="M319.8 327.4V23" fill="none" stroke-width=".5" stroke-linejoin="round" stroke="#fff" stroke-miterlimit="10"/></g><g clip-path="url(#i)"><path d="M425 327.4V23" fill="none" stroke-width=".5" stroke-linejoin="round" stroke="#fff" stroke-miterlimit="10"/></g><g clip-path="url(#j)"><path d="M35.9 313.6h462.6" fill="none" stroke-width="1.1" stroke-linejoin="round" stroke="#fff" stroke-miterlimit="10"/></g><g clip-path="url(#k)"><path d="M35.9 244.4h462.6" fill="none" stroke-width="1.1" stroke-linejoin="round" stroke="#fff" stroke-miterlimit="10"/></g><g clip-path="url(#l)"><path d="M35.9 175.2h462.6" fill="none" stroke-width="1.1" stroke-linejoin="round" stroke="#fff" stroke-miterlimit="10"/></g><g clip-path="url(#m)"><path d="M35.9 106h462.6" fill="none" stroke-width="1.1" stroke-linejoin="round" stroke="#fff" stroke-miterlimit="10"/></g><g clip-path="url(#n)"><path d="M35.9 36.9h462.6" fill="none" stroke-width="1.1" stroke-linejoin="round" stroke="#fff" stroke-miterlimit="10"/></g><g clip-path="url(#o)"><path d="M57 327.4V23" fill="none" stroke-width="1.1" stroke-linejoin="round" stroke="#fff" stroke-miterlimit="10"/></g><g clip-path="url(#p)"><path d="M162 327.4V23" fill="none" stroke-width="1.1" stroke-linejoin="round" stroke="#fff" stroke-miterlimit="10"/></g><g clip-path="url(#q)"><path d="M267.2 327.4V23" fill="none" stroke-width="1.1" stroke-linejoin="round" stroke="#fff" stroke-miterlimit="10"/></g><g clip-path="url(#r)"><path d="M372.4 327.4V23" fill="none" stroke-width="1.1" stroke-linejoin="round" stroke="#fff" stroke-miterlimit="10"/></g><g clip-path="url(#s)"><path d="M477.5 327.4V23" fill="none" stroke-width="1.1" stroke-linejoin="round" stroke="#fff" stroke-miterlimit="10"/></g><g clip-path="url(#t)"><path d="M267.2 327.4V23" fill="none" stroke-width="2.1" stroke-linejoin="round" stroke="#b2c4df" stroke-miterlimit="10"/></g><g clip-path="url(#u)"><path d="M35.9 106h462.6" fill="none" stroke-width="2.1" stroke-linejoin="round" stroke="#dcbcbc" stroke-miterlimit="10"/></g><path d="M272.9 106a5.7 5.7 0 11-11.4 0 5.7 5.7 0 0111.4 0" stroke-width=".7" stroke-linecap="round" stroke-linejoin="round" stroke="#000" stroke-miterlimit="10"/><g fill="#4d4d4d"><use xlink:href="#v" x="18.7" y="316.7"/><use xlink:href="#w" x="23.6" y="316.7"/><use xlink:href="#v" x="26.1" y="316.7"/></g><g fill="#4d4d4d"><use xlink:href="#v" x="18.7" y="247.5"/><use xlink:href="#w" x="23.6" y="247.5"/><use xlink:href="#x" x="26.1" y="247.5"/></g><g fill="#4d4d4d"><use xlink:href="#y" x="18.7" y="178.4"/><use xlink:href="#w" x="23.6" y="178.4"/><use xlink:href="#v" x="26.1" y="178.4"/></g><g fill="#4d4d4d"><use xlink:href="#y" x="18.7" y="109.2"/><use xlink:href="#w" x="23.6" y="109.2"/><use xlink:href="#x" x="26.1" y="109.2"/></g><g fill="#4d4d4d"><use xlink:href="#z" x="18.7" y="40"/><use xlink:href="#w" x="23.6" y="40"/><use xlink:href="#v" x="26.1" y="40"/></g><path d="M33.2 313.6h2.7M33.2 244.4h2.7M33.2 175.2h2.7M33.2 106h2.7M33.2 36.9h2.7M57 330.1v-2.7M162 330.1v-2.7M267.2 330.1v-2.7M372.4 330.1v-2.7M477.5 330.1v-2.7" fill="none" stroke-width="1.1" stroke-linejoin="round" stroke="#333" stroke-miterlimit="10"/><g fill="#4d4d4d"><use xlink:href="#v" x="50.8" y="338.6"/><use xlink:href="#w" x="55.7" y="338.6"/><use xlink:href="#v" x="58.1" y="338.6"/></g><g fill="#4d4d4d"><use xlink:href="#v" x="155.9" y="338.6"/><use xlink:href="#w" x="160.8" y="338.6"/><use xlink:href="#x" x="163.3" y="338.6"/></g><g fill="#4d4d4d"><use xlink:href="#y" x="261.1" y="338.6"/><use xlink:href="#w" x="266" y="338.6"/><use xlink:href="#v" x="268.4" y="338.6"/></g><g fill="#4d4d4d"><use xlink:href="#y" x="366.2" y="338.6"/><use xlink:href="#w" x="371.1" y="338.6"/><use xlink:href="#x" x="373.6" y="338.6"/></g><g fill="#4d4d4d"><use xlink:href="#z" x="471.4" y="338.6"/><use xlink:href="#w" x="476.3" y="338.6"/><use xlink:href="#v" x="478.7" y="338.6"/></g><use xlink:href="#A" x="209.1" y="351.9"/><use xlink:href="#B" x="214.6" y="351.9"/><use xlink:href="#C" x="217.7" y="351.9"/><use xlink:href="#D" x="223.2" y="351.9"/><use xlink:href="#E" x="229.3" y="351.9"/><use xlink:href="#F" x="231.7" y="351.9"/><use xlink:href="#G" x="237.9" y="351.9"/><use xlink:href="#B" x="244" y="351.9"/><use xlink:href="#H" x="247" y="351.9"/><use xlink:href="#I" x="253.1" y="351.9"/><use xlink:href="#B" x="256.2" y="351.9"/><use xlink:href="#I" x="259.3" y="351.9"/><use xlink:href="#J" x="262.3" y="351.9"/><use xlink:href="#K" x="264.8" y="351.9"/><use xlink:href="#L" x="268.4" y="351.9"/><use xlink:href="#M" x="273.9" y="351.9"/><use xlink:href="#B" x="277" y="351.9"/><use xlink:href="#N" x="280" y="351.9"/><use xlink:href="#D" x="286.2" y="351.9"/><use xlink:href="#M" x="292.3" y="351.9"/><use xlink:href="#D" x="295.3" y="351.9"/><use xlink:href="#O" x="301.4" y="351.9"/><use xlink:href="#H" x="307.6" y="351.9"/><use xlink:href="#J" x="313.7" y="351.9"/><use xlink:href="#P" x="316.1" y="351.9"/><use xlink:href="#M" x="322.2" y="351.9"/><g><use xlink:href="#Q" x="13.4" y="242.2"/><use xlink:href="#R" x="13.4" y="236.7"/><use xlink:href="#S" x="13.4" y="233.6"/><use xlink:href="#T" x="13.4" y="228.1"/><use xlink:href="#U" x="13.4" y="222"/><use xlink:href="#V" x="13.4" y="219.6"/><use xlink:href="#W" x="13.4" y="213.5"/><use xlink:href="#R" x="13.4" y="207.3"/><use xlink:href="#X" x="13.4" y="204.3"/><use xlink:href="#Y" x="13.4" y="198.2"/><use xlink:href="#R" x="13.4" y="195.1"/><use xlink:href="#Z" x="13.4" y="192"/><use xlink:href="#W" x="13.4" y="186.5"/><use xlink:href="#aa" x="13.4" y="180.4"/><use xlink:href="#X" x="13.4" y="174.9"/><use xlink:href="#ab" x="13.4" y="168.8"/><use xlink:href="#ac" x="13.4" y="162.7"/><use xlink:href="#R" x="13.4" y="156.6"/><use xlink:href="#ac" x="13.4" y="153.5"/><use xlink:href="#T" x="13.4" y="147.4"/><use xlink:href="#ad" x="13.4" y="141.3"/><use xlink:href="#T" x="13.4" y="138.2"/><use xlink:href="#ae" x="13.4" y="132.1"/><use xlink:href="#X" x="13.4" y="126"/><use xlink:href="#af" x="13.4" y="119.9"/><use xlink:href="#ab" x="13.4" y="117.4"/><use xlink:href="#ad" x="13.4" y="111.3"/></g><g><use xlink:href="#ag" x="35.9" y="14.9"/><use xlink:href="#ah" x="46.2" y="14.9"/><use xlink:href="#ai" x="53.5" y="14.9"/><use xlink:href="#aj" x="60.8" y="14.9"/><use xlink:href="#ak" x="64.5" y="14.9"/><use xlink:href="#al" x="74" y="14.9"/><use xlink:href="#am" x="81.4" y="14.9"/><use xlink:href="#al" x="85.1" y="14.9"/><use xlink:href="#an" x="92.4" y="14.9"/><use xlink:href="#ao" x="99.7" y="14.9"/><use xlink:href="#ap" x="107.1" y="14.9"/><use xlink:href="#ah" x="110" y="14.9"/><use xlink:href="#am" x="117.4" y="14.9"/><use xlink:href="#aj" x="121" y="14.9"/><use xlink:href="#aq" x="124.7" y="14.9"/><use xlink:href="#ap" x="134.2" y="14.9"/><use xlink:href="#am" x="137.2" y="14.9"/><use xlink:href="#ar" x="140.8" y="14.9"/><use xlink:href="#aj" x="148.2" y="14.9"/><use xlink:href="#as" x="151.8" y="14.9"/><use xlink:href="#ak" x="159.2" y="14.9"/><use xlink:href="#aj" x="168.7" y="14.9"/><use xlink:href="#at" x="172.4" y="14.9"/><use xlink:href="#au" x="179" y="14.9"/><use xlink:href="#av" x="183.4" y="14.9"/><use xlink:href="#al" x="190" y="14.9"/><use xlink:href="#aw" x="197.3" y="14.9"/><use xlink:href="#ax" x="200.2" y="14.9"/><use xlink:href="#ai" x="207.6" y="14.9"/></g></svg>